{
    "header": {
        "PPQ": 480,
        "timeSignature": [
            4,
            4
        ],
        "bpm": 63.510007589445905,
        "name": "Klaviersonate Nr. 11 KV 331"
    },
    "startTime": 0,
    "duration": 898.6772662499943,
    "tracks": [
        {
            "startTime": 0,
            "duration": 0,
            "length": 0,
            "notes": [],
            "controlChanges": {},
            "id": 0,
            "name": "Klaviersonate Nr. 11 KV 331"
        },
        {
            "startTime": 0,
            "duration": 898.6772662499865,
            "length": 3683,
            "notes": [
                {
                    "name": "C#5",
                    "midi": 73,
                    "time": 0,
                    "velocity": 0.3937007874015748,
                    "duration": 0.70854975
                },
                {
                    "name": "D5",
                    "midi": 74,
                    "time": 0.70854975,
                    "velocity": 0.33858267716535434,
                    "duration": 0.23618325000000007
                },
                {
                    "name": "C#5",
                    "midi": 73,
                    "time": 0.944733,
                    "velocity": 0.33858267716535434,
                    "duration": 0.4723664999999999
                },
                {
                    "name": "E5",
                    "midi": 76,
                    "time": 1.4170995,
                    "velocity": 0.3779527559055118,
                    "duration": 0.9447330000000003
                },
                {
                    "name": "E5",
                    "midi": 76,
                    "time": 2.3618325000000002,
                    "velocity": 0.33070866141732286,
                    "duration": 0.42512985000000025
                },
                {
                    "name": "B4",
                    "midi": 71,
                    "time": 2.8341990000000004,
                    "velocity": 0.3937007874015748,
                    "duration": 0.70854975
                },
                {
                    "name": "C#5",
                    "midi": 73,
                    "time": 3.5427487500000003,
                    "velocity": 0.3543307086614173,
                    "duration": 0.23618324999999984
                },
                {
                    "name": "B4",
                    "midi": 71,
                    "time": 3.778932,
                    "velocity": 0.3543307086614173,
                    "duration": 0.4723664999999997
                },
                {
                    "name": "D5",
                    "midi": 74,
                    "time": 4.2512985,
                    "velocity": 0.3858267716535433,
                    "duration": 0.9447330000000003
                },
                {
                    "name": "D5",
                    "midi": 74,
                    "time": 5.1960315,
                    "velocity": 0.3543307086614173,
                    "duration": 0.42512985000000025
                },
                {
                    "name": "A4",
                    "midi": 69,
                    "time": 5.668398000000001,
                    "velocity": 0.41732283464566927,
                    "duration": 0.9447330000000003
                },
                {
                    "name": "A4",
                    "midi": 69,
                    "time": 6.613131000000001,
                    "velocity": 0.36220472440944884,
                    "duration": 0.4723664999999997
                },
                {
                    "name": "B4",
                    "midi": 71,
                    "time": 7.085497500000001,
                    "velocity": 0.3937007874015748,
                    "duration": 0.9447329999999994
                },
                {
                    "name": "B4",
                    "midi": 71,
                    "time": 8.0302305,
                    "velocity": 0.36220472440944884,
                    "duration": 0.4723664999999997
                },
                {
                    "name": "C#5",
                    "midi": 73,
                    "time": 8.502597,
                    "velocity": 0.41732283464566927,
                    "duration": 0.9447329999999994
                },
                {
                    "name": "B4",
                    "midi": 71,
                    "time": 9.44733,
                    "velocity": 0.2755905511811024,
                    "duration": 0.4723664999999997
                },
                {
                    "name": "E5",
                    "midi": 76,
                    "time": 9.44733,
                    "velocity": 0.3858267716535433,
                    "duration": 0.23618324999999984
                },
                {
                    "name": "D5",
                    "midi": 74,
                    "time": 9.683513249999999,
                    "velocity": 0.3700787401574803,
                    "duration": 0.23618324999999984
                },
                {
                    "name": "C#5",
                    "midi": 73,
                    "time": 9.919696499999999,
                    "velocity": 0.41732283464566927,
                    "duration": 0.9447329999999994
                },
                {
                    "name": "A4",
                    "midi": 69,
                    "time": 9.919696499999999,
                    "velocity": 0.3543307086614173,
                    "duration": 0.9447329999999994
                },
                {
                    "name": "B4",
                    "midi": 71,
                    "time": 10.864429499999998,
                    "velocity": 0.3858267716535433,
                    "duration": 0.42512984999999937
                },
                {
                    "name": "G#4",
                    "midi": 68,
                    "time": 10.864429499999998,
                    "velocity": 0.3228346456692913,
                    "duration": 0.42512984999999937
                },
                {
                    "name": "C#5",
                    "midi": 73,
                    "time": 11.336795999999998,
                    "velocity": 0.3937007874015748,
                    "duration": 0.7085497499999995
                },
                {
                    "name": "D5",
                    "midi": 74,
                    "time": 12.045345749999997,
                    "velocity": 0.33858267716535434,
                    "duration": 0.23618324999999984
                },
                {
                    "name": "C#5",
                    "midi": 73,
                    "time": 12.281528999999997,
                    "velocity": 0.33858267716535434,
                    "duration": 0.4723664999999997
                },
                {
                    "name": "E5",
                    "midi": 76,
                    "time": 12.753895499999997,
                    "velocity": 0.3779527559055118,
                    "duration": 0.9447329999999994
                },
                {
                    "name": "E5",
                    "midi": 76,
                    "time": 13.698628499999996,
                    "velocity": 0.33070866141732286,
                    "duration": 0.42512984999999937
                },
                {
                    "name": "B4",
                    "midi": 71,
                    "time": 14.170994999999996,
                    "velocity": 0.3937007874015748,
                    "duration": 0.7085497499999995
                },
                {
                    "name": "C#5",
                    "midi": 73,
                    "time": 14.879544749999996,
                    "velocity": 0.3543307086614173,
                    "duration": 0.23618324999999984
                },
                {
                    "name": "B4",
                    "midi": 71,
                    "time": 15.115727999999995,
                    "velocity": 0.3543307086614173,
                    "duration": 0.4723664999999997
                },
                {
                    "name": "D5",
                    "midi": 74,
                    "time": 15.588094499999995,
                    "velocity": 0.3858267716535433,
                    "duration": 0.9447330000000012
                },
                {
                    "name": "D5",
                    "midi": 74,
                    "time": 16.532827499999996,
                    "velocity": 0.3543307086614173,
                    "duration": 0.42512985000000114
                },
                {
                    "name": "A4",
                    "midi": 69,
                    "time": 17.005193999999996,
                    "velocity": 0.4330708661417323,
                    "duration": 0.9447329999999994
                },
                {
                    "name": "B4",
                    "midi": 71,
                    "time": 17.949926999999995,
                    "velocity": 0.49606299212598426,
                    "duration": 0.4723664999999997
                },
                {
                    "name": "C#5",
                    "midi": 73,
                    "time": 18.422293499999995,
                    "velocity": 0.5354330708661418,
                    "duration": 0.9447329999999994
                },
                {
                    "name": "B4",
                    "midi": 71,
                    "time": 19.367026499999994,
                    "velocity": 0.4409448818897638,
                    "duration": 0.4723664999999997
                },
                {
                    "name": "D5",
                    "midi": 74,
                    "time": 19.367026499999994,
                    "velocity": 0.5275590551181102,
                    "duration": 0.4723664999999997
                },
                {
                    "name": "F#4",
                    "midi": 66,
                    "time": 19.367026499999994,
                    "velocity": 0.4409448818897638,
                    "duration": 0.4723664999999997
                },
                {
                    "name": "E4",
                    "midi": 64,
                    "time": 19.839392999999994,
                    "velocity": 0.3700787401574803,
                    "duration": 0.9447329999999994
                },
                {
                    "name": "C#5",
                    "midi": 73,
                    "time": 19.839392999999994,
                    "velocity": 0.4409448818897638,
                    "duration": 0.9447329999999994
                },
                {
                    "name": "A4",
                    "midi": 69,
                    "time": 19.839392999999994,
                    "velocity": 0.3700787401574803,
                    "duration": 0.9447329999999994
                },
                {
                    "name": "G#4",
                    "midi": 68,
                    "time": 20.784125999999993,
                    "velocity": 0.2677165354330709,
                    "duration": 0.4723664999999997
                },
                {
                    "name": "D4",
                    "midi": 62,
                    "time": 20.784125999999993,
                    "velocity": 0.2677165354330709,
                    "duration": 0.4723664999999997
                },
                {
                    "name": "B4",
                    "midi": 71,
                    "time": 20.784125999999993,
                    "velocity": 0.31496062992125984,
                    "duration": 0.4723664999999997
                },
                {
                    "name": "E4",
                    "midi": 64,
                    "time": 20.784125999999993,
                    "velocity": 0.2677165354330709,
                    "duration": 0.4723664999999997
                },
                {
                    "name": "A4",
                    "midi": 69,
                    "time": 21.256492499999993,
                    "velocity": 0.2992125984251969,
                    "duration": 0.9447329999999994
                },
                {
                    "name": "E4",
                    "midi": 64,
                    "time": 21.256492499999993,
                    "velocity": 0.25196850393700787,
                    "duration": 0.9447329999999994
                },
                {
                    "name": "C#4",
                    "midi": 61,
                    "time": 21.256492499999993,
                    "velocity": 0.25196850393700787,
                    "duration": 0.9447329999999994
                },
                {
                    "name": "C#5",
                    "midi": 73,
                    "time": 22.673591999999992,
                    "velocity": 0.33070866141732286,
                    "duration": 0.7085497499999995
                },
                {
                    "name": "D5",
                    "midi": 74,
                    "time": 23.38214174999999,
                    "velocity": 0.28346456692913385,
                    "duration": 0.23618324999999984
                },
                {
                    "name": "C#5",
                    "midi": 73,
                    "time": 23.61832499999999,
                    "velocity": 0.28346456692913385,
                    "duration": 0.4723664999999997
                },
                {
                    "name": "E5",
                    "midi": 76,
                    "time": 24.09069149999999,
                    "velocity": 0.31496062992125984,
                    "duration": 0.9447329999999994
                },
                {
                    "name": "E5",
                    "midi": 76,
                    "time": 25.03542449999999,
                    "velocity": 0.2755905511811024,
                    "duration": 0.42512985000000114
                },
                {
                    "name": "B4",
                    "midi": 71,
                    "time": 25.50779099999999,
                    "velocity": 0.33070866141732286,
                    "duration": 0.7085497499999995
                },
                {
                    "name": "C#5",
                    "midi": 73,
                    "time": 26.21634074999999,
                    "velocity": 0.2992125984251969,
                    "duration": 0.23618324999999984
                },
                {
                    "name": "B4",
                    "midi": 71,
                    "time": 26.45252399999999,
                    "velocity": 0.2992125984251969,
                    "duration": 0.4723664999999997
                },
                {
                    "name": "D5",
                    "midi": 74,
                    "time": 26.92489049999999,
                    "velocity": 0.3228346456692913,
                    "duration": 0.9447329999999994
                },
                {
                    "name": "D5",
                    "midi": 74,
                    "time": 27.86962349999999,
                    "velocity": 0.2992125984251969,
                    "duration": 0.42512985000000114
                },
                {
                    "name": "A4",
                    "midi": 69,
                    "time": 28.34198999999999,
                    "velocity": 0.3543307086614173,
                    "duration": 0.9447329999999994
                },
                {
                    "name": "A4",
                    "midi": 69,
                    "time": 29.286722999999988,
                    "velocity": 0.30708661417322836,
                    "duration": 0.4723664999999997
                },
                {
                    "name": "B4",
                    "midi": 71,
                    "time": 29.759089499999988,
                    "velocity": 0.33070866141732286,
                    "duration": 0.9447329999999994
                },
                {
                    "name": "B4",
                    "midi": 71,
                    "time": 30.703822499999987,
                    "velocity": 0.30708661417322836,
                    "duration": 0.4723664999999997
                },
                {
                    "name": "C#5",
                    "midi": 73,
                    "time": 31.176188999999987,
                    "velocity": 0.3543307086614173,
                    "duration": 0.9447329999999994
                },
                {
                    "name": "B4",
                    "midi": 71,
                    "time": 32.120921999999986,
                    "velocity": 0.2283464566929134,
                    "duration": 0.4723665000000068
                },
                {
                    "name": "E5",
                    "midi": 76,
                    "time": 32.120921999999986,
                    "velocity": 0.3228346456692913,
                    "duration": 0.2361832500000034
                },
                {
                    "name": "D5",
                    "midi": 74,
                    "time": 32.35710524999999,
                    "velocity": 0.30708661417322836,
                    "duration": 0.2361832500000034
                },
                {
                    "name": "C#5",
                    "midi": 73,
                    "time": 32.59328849999999,
                    "velocity": 0.3543307086614173,
                    "duration": 0.9447329999999994
                },
                {
                    "name": "A4",
                    "midi": 69,
                    "time": 32.59328849999999,
                    "velocity": 0.2992125984251969,
                    "duration": 0.9447329999999994
                },
                {
                    "name": "B4",
                    "midi": 71,
                    "time": 33.53802149999999,
                    "velocity": 0.3228346456692913,
                    "duration": 0.4251298499999976
                },
                {
                    "name": "G#4",
                    "midi": 68,
                    "time": 33.53802149999999,
                    "velocity": 0.2677165354330709,
                    "duration": 0.4251298499999976
                },
                {
                    "name": "C#5",
                    "midi": 73,
                    "time": 34.01038799999999,
                    "velocity": 0.3937007874015748,
                    "duration": 0.7085497500000031
                },
                {
                    "name": "D5",
                    "midi": 74,
                    "time": 34.718937749999995,
                    "velocity": 0.33858267716535434,
                    "duration": 0.2361832500000034
                },
                {
                    "name": "C#5",
                    "midi": 73,
                    "time": 34.955121,
                    "velocity": 0.33858267716535434,
                    "duration": 0.4723664999999997
                },
                {
                    "name": "E5",
                    "midi": 76,
                    "time": 35.4274875,
                    "velocity": 0.3779527559055118,
                    "duration": 0.9447329999999994
                },
                {
                    "name": "E5",
                    "midi": 76,
                    "time": 36.3722205,
                    "velocity": 0.33070866141732286,
                    "duration": 0.4251298499999976
                },
                {
                    "name": "B4",
                    "midi": 71,
                    "time": 36.844587,
                    "velocity": 0.3937007874015748,
                    "duration": 0.7085497500000031
                },
                {
                    "name": "C#5",
                    "midi": 73,
                    "time": 37.55313675,
                    "velocity": 0.3543307086614173,
                    "duration": 0.2361832500000034
                },
                {
                    "name": "B4",
                    "midi": 71,
                    "time": 37.789320000000004,
                    "velocity": 0.3543307086614173,
                    "duration": 0.4723664999999997
                },
                {
                    "name": "D5",
                    "midi": 74,
                    "time": 38.2616865,
                    "velocity": 0.3858267716535433,
                    "duration": 0.9447329999999994
                },
                {
                    "name": "D5",
                    "midi": 74,
                    "time": 39.2064195,
                    "velocity": 0.3543307086614173,
                    "duration": 0.4251298499999976
                },
                {
                    "name": "A4",
                    "midi": 69,
                    "time": 39.678786,
                    "velocity": 0.4330708661417323,
                    "duration": 0.9447329999999994
                },
                {
                    "name": "B4",
                    "midi": 71,
                    "time": 40.623519,
                    "velocity": 0.49606299212598426,
                    "duration": 0.4723664999999997
                },
                {
                    "name": "C#5",
                    "midi": 73,
                    "time": 41.0958855,
                    "velocity": 0.5354330708661418,
                    "duration": 0.9447329999999994
                },
                {
                    "name": "F#4",
                    "midi": 66,
                    "time": 42.0406185,
                    "velocity": 0.4409448818897638,
                    "duration": 0.4723664999999997
                },
                {
                    "name": "D5",
                    "midi": 74,
                    "time": 42.0406185,
                    "velocity": 0.5275590551181102,
                    "duration": 0.4723664999999997
                },
                {
                    "name": "B4",
                    "midi": 71,
                    "time": 42.0406185,
                    "velocity": 0.4409448818897638,
                    "duration": 0.4723664999999997
                },
                {
                    "name": "C#5",
                    "midi": 73,
                    "time": 42.512985,
                    "velocity": 0.4409448818897638,
                    "duration": 0.9447329999999994
                },
                {
                    "name": "E4",
                    "midi": 64,
                    "time": 42.512985,
                    "velocity": 0.3700787401574803,
                    "duration": 0.9447329999999994
                },
                {
                    "name": "A4",
                    "midi": 69,
                    "time": 42.512985,
                    "velocity": 0.3700787401574803,
                    "duration": 0.9447329999999994
                },
                {
                    "name": "E4",
                    "midi": 64,
                    "time": 43.457718,
                    "velocity": 0.2677165354330709,
                    "duration": 0.4723664999999997
                },
                {
                    "name": "G#4",
                    "midi": 68,
                    "time": 43.457718,
                    "velocity": 0.2677165354330709,
                    "duration": 0.4723664999999997
                },
                {
                    "name": "D4",
                    "midi": 62,
                    "time": 43.457718,
                    "velocity": 0.2677165354330709,
                    "duration": 0.4723664999999997
                },
                {
                    "name": "B4",
                    "midi": 71,
                    "time": 43.457718,
                    "velocity": 0.31496062992125984,
                    "duration": 0.4723664999999997
                },
                {
                    "name": "A4",
                    "midi": 69,
                    "time": 43.9300845,
                    "velocity": 0.2992125984251969,
                    "duration": 0.9447329999999994
                },
                {
                    "name": "E4",
                    "midi": 64,
                    "time": 43.9300845,
                    "velocity": 0.25196850393700787,
                    "duration": 0.9447329999999994
                },
                {
                    "name": "C#4",
                    "midi": 61,
                    "time": 43.9300845,
                    "velocity": 0.25196850393700787,
                    "duration": 0.9447329999999994
                },
                {
                    "name": "E5",
                    "midi": 76,
                    "time": 45.347184,
                    "velocity": 0.3937007874015748,
                    "duration": 0.7085497500000031
                },
                {
                    "name": "F#5",
                    "midi": 78,
                    "time": 46.05573375,
                    "velocity": 0.3543307086614173,
                    "duration": 0.2361832500000034
                },
                {
                    "name": "E5",
                    "midi": 76,
                    "time": 46.291917000000005,
                    "velocity": 0.36220472440944884,
                    "duration": 0.4723664999999997
                },
                {
                    "name": "F#5",
                    "midi": 78,
                    "time": 46.764283500000005,
                    "velocity": 0.41732283464566927,
                    "duration": 0.9447329999999994
                },
                {
                    "name": "F#5",
                    "midi": 78,
                    "time": 47.709016500000004,
                    "velocity": 0.33070866141732286,
                    "duration": 0.2952290624999989
                },
                {
                    "name": "F#5",
                    "midi": 78,
                    "time": 48.063291375000006,
                    "velocity": 0.3858267716535433,
                    "duration": 0.059045812500002626
                },
                {
                    "name": "G#5",
                    "midi": 80,
                    "time": 48.12233718750001,
                    "velocity": 0.41732283464566927,
                    "duration": 0.059045812500002626
                },
                {
                    "name": "A5",
                    "midi": 81,
                    "time": 48.18138300000001,
                    "velocity": 0.44881889763779526,
                    "duration": 0.7085497500000031
                },
                {
                    "name": "G#5",
                    "midi": 80,
                    "time": 48.889932750000014,
                    "velocity": 0.3700787401574803,
                    "duration": 0.2361832500000034
                },
                {
                    "name": "F#5",
                    "midi": 78,
                    "time": 49.12611600000002,
                    "velocity": 0.3937007874015748,
                    "duration": 0.4723664999999997
                },
                {
                    "name": "F#5",
                    "midi": 78,
                    "time": 49.59848250000002,
                    "velocity": 0.41732283464566927,
                    "duration": 0.4723664999999997
                },
                {
                    "name": "E5",
                    "midi": 76,
                    "time": 50.07084900000002,
                    "velocity": 0.3543307086614173,
                    "duration": 0.4723664999999997
                },
                {
                    "name": "E5",
                    "midi": 76,
                    "time": 50.54321550000002,
                    "velocity": 0.33070866141732286,
                    "duration": 0.2361832500000034
                },
                {
                    "name": "E5",
                    "midi": 76,
                    "time": 51.01558200000002,
                    "velocity": 0.4645669291338583,
                    "duration": 0.4723664999999997
                },
                {
                    "name": "C#5",
                    "midi": 73,
                    "time": 51.48794850000002,
                    "velocity": 0.3937007874015748,
                    "duration": 0.4723664999999997
                },
                {
                    "name": "A4",
                    "midi": 69,
                    "time": 51.96031500000002,
                    "velocity": 0.3858267716535433,
                    "duration": 0.11809162499999815
                },
                {
                    "name": "E5",
                    "midi": 76,
                    "time": 52.43268150000002,
                    "velocity": 0.48031496062992124,
                    "duration": 0.4723664999999997
                },
                {
                    "name": "D5",
                    "midi": 74,
                    "time": 52.90504800000002,
                    "velocity": 0.41732283464566927,
                    "duration": 0.4723664999999997
                },
                {
                    "name": "B4",
                    "midi": 71,
                    "time": 53.37741450000002,
                    "velocity": 0.3779527559055118,
                    "duration": 0.11809162499999815
                },
                {
                    "name": "E5",
                    "midi": 76,
                    "time": 53.84978100000002,
                    "velocity": 0.4881889763779528,
                    "duration": 0.4723664999999997
                },
                {
                    "name": "C#5",
                    "midi": 73,
                    "time": 54.32214750000002,
                    "velocity": 0.4015748031496063,
                    "duration": 0.4723664999999997
                },
                {
                    "name": "A4",
                    "midi": 69,
                    "time": 54.79451400000002,
                    "velocity": 0.3543307086614173,
                    "duration": 0.4330026250000003
                },
                {
                    "name": "A4",
                    "midi": 69,
                    "time": 55.26688050000002,
                    "velocity": 0.3464566929133858,
                    "duration": 0.9447329999999994
                },
                {
                    "name": "C#5",
                    "midi": 73,
                    "time": 55.26688050000002,
                    "velocity": 0.3464566929133858,
                    "duration": 0.9447329999999994
                },
                {
                    "name": "G#4",
                    "midi": 68,
                    "time": 56.21161350000002,
                    "velocity": 0.29133858267716534,
                    "duration": 0.4251298499999976
                },
                {
                    "name": "B4",
                    "midi": 71,
                    "time": 56.21161350000002,
                    "velocity": 0.29133858267716534,
                    "duration": 0.4251298499999976
                },
                {
                    "name": "C#5",
                    "midi": 73,
                    "time": 56.68398000000002,
                    "velocity": 0.3937007874015748,
                    "duration": 0.7085497500000031
                },
                {
                    "name": "D5",
                    "midi": 74,
                    "time": 57.39252975000002,
                    "velocity": 0.33858267716535434,
                    "duration": 0.2361832500000034
                },
                {
                    "name": "C#5",
                    "midi": 73,
                    "time": 57.628713000000026,
                    "velocity": 0.33858267716535434,
                    "duration": 0.4723664999999997
                },
                {
                    "name": "E5",
                    "midi": 76,
                    "time": 58.101079500000026,
                    "velocity": 0.3779527559055118,
                    "duration": 0.9447329999999994
                },
                {
                    "name": "E5",
                    "midi": 76,
                    "time": 59.045812500000025,
                    "velocity": 0.33070866141732286,
                    "duration": 0.4251298499999976
                },
                {
                    "name": "B4",
                    "midi": 71,
                    "time": 59.518179000000025,
                    "velocity": 0.3937007874015748,
                    "duration": 0.7085497500000031
                },
                {
                    "name": "C#5",
                    "midi": 73,
                    "time": 60.22672875000003,
                    "velocity": 0.3543307086614173,
                    "duration": 0.2361832500000034
                },
                {
                    "name": "B4",
                    "midi": 71,
                    "time": 60.46291200000003,
                    "velocity": 0.3543307086614173,
                    "duration": 0.4723664999999997
                },
                {
                    "name": "D5",
                    "midi": 74,
                    "time": 60.93527850000003,
                    "velocity": 0.3858267716535433,
                    "duration": 0.9447329999999994
                },
                {
                    "name": "D5",
                    "midi": 74,
                    "time": 61.88001150000003,
                    "velocity": 0.3543307086614173,
                    "duration": 0.4251298499999976
                },
                {
                    "name": "A4",
                    "midi": 69,
                    "time": 62.35237800000003,
                    "velocity": 0.4330708661417323,
                    "duration": 0.9447329999999994
                },
                {
                    "name": "B4",
                    "midi": 71,
                    "time": 63.29711100000003,
                    "velocity": 0.49606299212598426,
                    "duration": 0.4723664999999997
                },
                {
                    "name": "C#5",
                    "midi": 73,
                    "time": 63.76947750000003,
                    "velocity": 0.5354330708661418,
                    "duration": 0.9447330000000065
                },
                {
                    "name": "B4",
                    "midi": 71,
                    "time": 64.71421050000004,
                    "velocity": 0.4409448818897638,
                    "duration": 0.4723665000000068
                },
                {
                    "name": "F#4",
                    "midi": 66,
                    "time": 64.71421050000004,
                    "velocity": 0.4409448818897638,
                    "duration": 0.4723665000000068
                },
                {
                    "name": "D5",
                    "midi": 74,
                    "time": 64.71421050000004,
                    "velocity": 0.5275590551181102,
                    "duration": 0.4723665000000068
                },
                {
                    "name": "E4",
                    "midi": 64,
                    "time": 65.18657700000004,
                    "velocity": 0.3700787401574803,
                    "duration": 0.9447329999999994
                },
                {
                    "name": "C#5",
                    "midi": 73,
                    "time": 65.18657700000004,
                    "velocity": 0.4409448818897638,
                    "duration": 0.9447329999999994
                },
                {
                    "name": "A4",
                    "midi": 69,
                    "time": 65.18657700000004,
                    "velocity": 0.3700787401574803,
                    "duration": 0.9447329999999994
                },
                {
                    "name": "G#4",
                    "midi": 68,
                    "time": 66.13131000000004,
                    "velocity": 0.33070866141732286,
                    "duration": 0.4723665000000068
                },
                {
                    "name": "B4",
                    "midi": 71,
                    "time": 66.13131000000004,
                    "velocity": 0.3937007874015748,
                    "duration": 0.4723665000000068
                },
                {
                    "name": "E4",
                    "midi": 64,
                    "time": 66.13131000000004,
                    "velocity": 0.33070866141732286,
                    "duration": 0.4723665000000068
                },
                {
                    "name": "B4",
                    "midi": 71,
                    "time": 66.60367650000005,
                    "velocity": 0.3700787401574803,
                    "duration": 0.9447329999999994
                },
                {
                    "name": "E4",
                    "midi": 64,
                    "time": 66.60367650000005,
                    "velocity": 0.31496062992125984,
                    "duration": 1.4170995000000062
                },
                {
                    "name": "G#4",
                    "midi": 68,
                    "time": 66.60367650000005,
                    "velocity": 0.31496062992125984,
                    "duration": 0.9447329999999994
                },
                {
                    "name": "C#5",
                    "midi": 73,
                    "time": 67.54840950000005,
                    "velocity": 0.3700787401574803,
                    "duration": 0.4723665000000068
                },
                {
                    "name": "A4",
                    "midi": 69,
                    "time": 67.54840950000005,
                    "velocity": 0.3700787401574803,
                    "duration": 0.4723665000000068
                },
                {
                    "name": "C#5",
                    "midi": 73,
                    "time": 68.02077600000005,
                    "velocity": 0.5905511811023622,
                    "duration": 0.9447329999999994
                },
                {
                    "name": "A4",
                    "midi": 69,
                    "time": 68.02077600000005,
                    "velocity": 0.49606299212598426,
                    "duration": 0.9447329999999994
                },
                {
                    "name": "E4",
                    "midi": 64,
                    "time": 68.02077600000005,
                    "velocity": 0.49606299212598426,
                    "duration": 0.9447329999999994
                },
                {
                    "name": "D5",
                    "midi": 74,
                    "time": 68.96550900000005,
                    "velocity": 0.5905511811023622,
                    "duration": 0.4723665000000068
                },
                {
                    "name": "G#4",
                    "midi": 68,
                    "time": 68.96550900000005,
                    "velocity": 0.49606299212598426,
                    "duration": 0.4723665000000068
                },
                {
                    "name": "E4",
                    "midi": 64,
                    "time": 68.96550900000005,
                    "velocity": 0.49606299212598426,
                    "duration": 0.4723665000000068
                },
                {
                    "name": "E4",
                    "midi": 64,
                    "time": 69.43787550000006,
                    "velocity": 0.5354330708661418,
                    "duration": 0.9447329999999994
                },
                {
                    "name": "E5",
                    "midi": 76,
                    "time": 69.43787550000006,
                    "velocity": 0.6299212598425197,
                    "duration": 0.9447329999999994
                },
                {
                    "name": "A4",
                    "midi": 69,
                    "time": 69.43787550000006,
                    "velocity": 0.5354330708661418,
                    "duration": 0.9447329999999994
                },
                {
                    "name": "F#5",
                    "midi": 78,
                    "time": 70.38260850000006,
                    "velocity": 0.4409448818897638,
                    "duration": 0.2361832499999963
                },
                {
                    "name": "G#5",
                    "midi": 80,
                    "time": 70.61879175000006,
                    "velocity": 0.3464566929133858,
                    "duration": 0.11809162500000525
                },
                {
                    "name": "A5",
                    "midi": 81,
                    "time": 70.73688337500006,
                    "velocity": 0.36220472440944884,
                    "duration": 0.11809162500000525
                },
                {
                    "name": "A4",
                    "midi": 69,
                    "time": 70.85497500000007,
                    "velocity": 0.41732283464566927,
                    "duration": 0.9447329999999994
                },
                {
                    "name": "G#4",
                    "midi": 68,
                    "time": 71.79970800000007,
                    "velocity": 0.2677165354330709,
                    "duration": 0.4723664999999926
                },
                {
                    "name": "C#5",
                    "midi": 73,
                    "time": 71.79970800000007,
                    "velocity": 0.3228346456692913,
                    "duration": 0.2361832499999963
                },
                {
                    "name": "B4",
                    "midi": 71,
                    "time": 72.03589125000006,
                    "velocity": 0.30708661417322836,
                    "duration": 0.2361832499999963
                },
                {
                    "name": "A4",
                    "midi": 69,
                    "time": 72.27207450000006,
                    "velocity": 0.30708661417322836,
                    "duration": 0.9447329999999994
                },
                {
                    "name": "E5",
                    "midi": 76,
                    "time": 73.68917400000007,
                    "velocity": 0.3937007874015748,
                    "duration": 0.7085497500000031
                },
                {
                    "name": "F#5",
                    "midi": 78,
                    "time": 74.39772375000007,
                    "velocity": 0.3543307086614173,
                    "duration": 0.2361832499999963
                },
                {
                    "name": "E5",
                    "midi": 76,
                    "time": 74.63390700000006,
                    "velocity": 0.36220472440944884,
                    "duration": 0.4723665000000068
                },
                {
                    "name": "F#5",
                    "midi": 78,
                    "time": 75.10627350000007,
                    "velocity": 0.41732283464566927,
                    "duration": 0.9447329999999994
                },
                {
                    "name": "F#5",
                    "midi": 78,
                    "time": 76.05100650000007,
                    "velocity": 0.33070866141732286,
                    "duration": 0.2952290624999989
                },
                {
                    "name": "F#5",
                    "midi": 78,
                    "time": 76.40528137500007,
                    "velocity": 0.3858267716535433,
                    "duration": 0.059045812500002626
                },
                {
                    "name": "G#5",
                    "midi": 80,
                    "time": 76.46432718750007,
                    "velocity": 0.41732283464566927,
                    "duration": 0.059045812500002626
                },
                {
                    "name": "A5",
                    "midi": 81,
                    "time": 76.52337300000008,
                    "velocity": 0.44881889763779526,
                    "duration": 0.7085497500000031
                },
                {
                    "name": "G#5",
                    "midi": 80,
                    "time": 77.23192275000008,
                    "velocity": 0.3700787401574803,
                    "duration": 0.2361832499999963
                },
                {
                    "name": "F#5",
                    "midi": 78,
                    "time": 77.46810600000008,
                    "velocity": 0.3937007874015748,
                    "duration": 0.4723665000000068
                },
                {
                    "name": "F#5",
                    "midi": 78,
                    "time": 77.94047250000008,
                    "velocity": 0.41732283464566927,
                    "duration": 0.4723665000000068
                },
                {
                    "name": "E5",
                    "midi": 76,
                    "time": 78.41283900000009,
                    "velocity": 0.3543307086614173,
                    "duration": 0.4723665000000068
                },
                {
                    "name": "E5",
                    "midi": 76,
                    "time": 78.8852055000001,
                    "velocity": 0.33070866141732286,
                    "duration": 0.2361832499999963
                },
                {
                    "name": "E5",
                    "midi": 76,
                    "time": 79.35757200000009,
                    "velocity": 0.4645669291338583,
                    "duration": 0.4723665000000068
                },
                {
                    "name": "C#5",
                    "midi": 73,
                    "time": 79.8299385000001,
                    "velocity": 0.3937007874015748,
                    "duration": 0.4723665000000068
                },
                {
                    "name": "A4",
                    "midi": 69,
                    "time": 80.3023050000001,
                    "velocity": 0.3858267716535433,
                    "duration": 0.11809162500000525
                },
                {
                    "name": "E5",
                    "midi": 76,
                    "time": 80.77467150000011,
                    "velocity": 0.48031496062992124,
                    "duration": 0.4723665000000068
                },
                {
                    "name": "D5",
                    "midi": 74,
                    "time": 81.24703800000012,
                    "velocity": 0.41732283464566927,
                    "duration": 0.4723665000000068
                },
                {
                    "name": "B4",
                    "midi": 71,
                    "time": 81.71940450000012,
                    "velocity": 0.3779527559055118,
                    "duration": 0.11809162500000525
                },
                {
                    "name": "E5",
                    "midi": 76,
                    "time": 82.19177100000013,
                    "velocity": 0.4881889763779528,
                    "duration": 0.4723665000000068
                },
                {
                    "name": "C#5",
                    "midi": 73,
                    "time": 82.66413750000014,
                    "velocity": 0.4015748031496063,
                    "duration": 0.4723665000000068
                },
                {
                    "name": "A4",
                    "midi": 69,
                    "time": 83.13650400000014,
                    "velocity": 0.3543307086614173,
                    "duration": 0.4330026250000003
                },
                {
                    "name": "A4",
                    "midi": 69,
                    "time": 83.60887050000015,
                    "velocity": 0.3464566929133858,
                    "duration": 0.9447329999999994
                },
                {
                    "name": "C#5",
                    "midi": 73,
                    "time": 83.60887050000015,
                    "velocity": 0.3464566929133858,
                    "duration": 0.9447329999999994
                },
                {
                    "name": "B4",
                    "midi": 71,
                    "time": 84.55360350000015,
                    "velocity": 0.29133858267716534,
                    "duration": 0.4251298500000047
                },
                {
                    "name": "G#4",
                    "midi": 68,
                    "time": 84.55360350000015,
                    "velocity": 0.29133858267716534,
                    "duration": 0.4251298500000047
                },
                {
                    "name": "C#5",
                    "midi": 73,
                    "time": 85.02597000000016,
                    "velocity": 0.33070866141732286,
                    "duration": 0.7085497500000031
                },
                {
                    "name": "D5",
                    "midi": 74,
                    "time": 85.73451975000016,
                    "velocity": 0.28346456692913385,
                    "duration": 0.2361832499999963
                },
                {
                    "name": "C#5",
                    "midi": 73,
                    "time": 85.97070300000016,
                    "velocity": 0.28346456692913385,
                    "duration": 0.4723665000000068
                },
                {
                    "name": "E5",
                    "midi": 76,
                    "time": 86.44306950000016,
                    "velocity": 0.31496062992125984,
                    "duration": 0.9447329999999994
                },
                {
                    "name": "E5",
                    "midi": 76,
                    "time": 87.38780250000016,
                    "velocity": 0.2755905511811024,
                    "duration": 0.4251298500000047
                },
                {
                    "name": "B4",
                    "midi": 71,
                    "time": 87.86016900000017,
                    "velocity": 0.33070866141732286,
                    "duration": 0.7085497500000031
                },
                {
                    "name": "C#5",
                    "midi": 73,
                    "time": 88.56871875000017,
                    "velocity": 0.2992125984251969,
                    "duration": 0.2361832499999963
                },
                {
                    "name": "B4",
                    "midi": 71,
                    "time": 88.80490200000017,
                    "velocity": 0.2992125984251969,
                    "duration": 0.4723665000000068
                },
                {
                    "name": "D5",
                    "midi": 74,
                    "time": 89.27726850000018,
                    "velocity": 0.3228346456692913,
                    "duration": 0.9447329999999994
                },
                {
                    "name": "D5",
                    "midi": 74,
                    "time": 90.22200150000018,
                    "velocity": 0.2992125984251969,
                    "duration": 0.4251298500000047
                },
                {
                    "name": "A4",
                    "midi": 69,
                    "time": 90.69436800000018,
                    "velocity": 0.4330708661417323,
                    "duration": 0.9447329999999994
                },
                {
                    "name": "B4",
                    "midi": 71,
                    "time": 91.63910100000018,
                    "velocity": 0.49606299212598426,
                    "duration": 0.4723665000000068
                },
                {
                    "name": "C#5",
                    "midi": 73,
                    "time": 92.11146750000019,
                    "velocity": 0.5354330708661418,
                    "duration": 0.9447329999999994
                },
                {
                    "name": "D5",
                    "midi": 74,
                    "time": 93.05620050000019,
                    "velocity": 0.5275590551181102,
                    "duration": 0.4723665000000068
                },
                {
                    "name": "B4",
                    "midi": 71,
                    "time": 93.05620050000019,
                    "velocity": 0.4409448818897638,
                    "duration": 0.4723665000000068
                },
                {
                    "name": "F#4",
                    "midi": 66,
                    "time": 93.05620050000019,
                    "velocity": 0.4409448818897638,
                    "duration": 0.4723665000000068
                },
                {
                    "name": "A4",
                    "midi": 69,
                    "time": 93.5285670000002,
                    "velocity": 0.4251968503937008,
                    "duration": 0.9447329999999994
                },
                {
                    "name": "C#5",
                    "midi": 73,
                    "time": 93.5285670000002,
                    "velocity": 0.5039370078740157,
                    "duration": 0.9447329999999994
                },
                {
                    "name": "E4",
                    "midi": 64,
                    "time": 93.5285670000002,
                    "velocity": 0.4251968503937008,
                    "duration": 0.9447329999999994
                },
                {
                    "name": "G#4",
                    "midi": 68,
                    "time": 94.4733000000002,
                    "velocity": 0.3779527559055118,
                    "duration": 0.4723665000000068
                },
                {
                    "name": "E4",
                    "midi": 64,
                    "time": 94.4733000000002,
                    "velocity": 0.3779527559055118,
                    "duration": 0.4723665000000068
                },
                {
                    "name": "B4",
                    "midi": 71,
                    "time": 94.4733000000002,
                    "velocity": 0.44881889763779526,
                    "duration": 0.4723665000000068
                },
                {
                    "name": "B4",
                    "midi": 71,
                    "time": 94.9456665000002,
                    "velocity": 0.48031496062992124,
                    "duration": 0.9447329999999994
                },
                {
                    "name": "G#4",
                    "midi": 68,
                    "time": 94.9456665000002,
                    "velocity": 0.4015748031496063,
                    "duration": 0.9447329999999994
                },
                {
                    "name": "E4",
                    "midi": 64,
                    "time": 94.9456665000002,
                    "velocity": 0.36220472440944884,
                    "duration": 1.4170995000000062
                },
                {
                    "name": "C#5",
                    "midi": 73,
                    "time": 95.8903995000002,
                    "velocity": 0.4251968503937008,
                    "duration": 0.4723665000000068
                },
                {
                    "name": "A4",
                    "midi": 69,
                    "time": 95.8903995000002,
                    "velocity": 0.4251968503937008,
                    "duration": 0.4723665000000068
                },
                {
                    "name": "E4",
                    "midi": 64,
                    "time": 96.3627660000002,
                    "velocity": 0.49606299212598426,
                    "duration": 0.9447329999999994
                },
                {
                    "name": "C#5",
                    "midi": 73,
                    "time": 96.3627660000002,
                    "velocity": 0.5905511811023622,
                    "duration": 0.9447329999999994
                },
                {
                    "name": "A4",
                    "midi": 69,
                    "time": 96.3627660000002,
                    "velocity": 0.49606299212598426,
                    "duration": 0.9447329999999994
                },
                {
                    "name": "D5",
                    "midi": 74,
                    "time": 97.3074990000002,
                    "velocity": 0.5905511811023622,
                    "duration": 0.4723665000000068
                },
                {
                    "name": "E4",
                    "midi": 64,
                    "time": 97.3074990000002,
                    "velocity": 0.49606299212598426,
                    "duration": 0.4723665000000068
                },
                {
                    "name": "G#4",
                    "midi": 68,
                    "time": 97.3074990000002,
                    "velocity": 0.49606299212598426,
                    "duration": 0.4723665000000068
                },
                {
                    "name": "E4",
                    "midi": 64,
                    "time": 97.77986550000021,
                    "velocity": 0.5354330708661418,
                    "duration": 0.9447329999999994
                },
                {
                    "name": "A4",
                    "midi": 69,
                    "time": 97.77986550000021,
                    "velocity": 0.5354330708661418,
                    "duration": 0.9447329999999994
                },
                {
                    "name": "E5",
                    "midi": 76,
                    "time": 97.77986550000021,
                    "velocity": 0.6299212598425197,
                    "duration": 0.9447329999999994
                },
                {
                    "name": "F#5",
                    "midi": 78,
                    "time": 98.72459850000021,
                    "velocity": 0.4409448818897638,
                    "duration": 0.2361832499999963
                },
                {
                    "name": "G#5",
                    "midi": 80,
                    "time": 98.96078175000021,
                    "velocity": 0.3464566929133858,
                    "duration": 0.11809162500000525
                },
                {
                    "name": "A5",
                    "midi": 81,
                    "time": 99.07887337500021,
                    "velocity": 0.36220472440944884,
                    "duration": 0.11809162500000525
                },
                {
                    "name": "A4",
                    "midi": 69,
                    "time": 99.19696500000022,
                    "velocity": 0.4015748031496063,
                    "duration": 0.9447329999999994
                },
                {
                    "name": "G#4",
                    "midi": 68,
                    "time": 100.14169800000022,
                    "velocity": 0.23622047244094488,
                    "duration": 0.4723664999999926
                },
                {
                    "name": "C#5",
                    "midi": 73,
                    "time": 100.14169800000022,
                    "velocity": 0.28346456692913385,
                    "duration": 0.2361832499999963
                },
                {
                    "name": "B4",
                    "midi": 71,
                    "time": 100.37788125000021,
                    "velocity": 0.2755905511811024,
                    "duration": 0.2361832499999963
                },
                {
                    "name": "A4",
                    "midi": 69,
                    "time": 100.61406450000021,
                    "velocity": 0.2755905511811024,
                    "duration": 0.9447329999999994
                },
                {
                    "name": "C5",
                    "midi": 72,
                    "time": 104.86536300000022,
                    "velocity": 0.3937007874015748,
                    "duration": 0.2361832499999963
                },
                {
                    "name": "C#5",
                    "midi": 73,
                    "time": 105.10154625000021,
                    "velocity": 0.36220472440944884,
                    "duration": 0.1889465999999942
                },
                {
                    "name": "C#5",
                    "midi": 73,
                    "time": 105.5739127500002,
                    "velocity": 0.3543307086614173,
                    "duration": 0.2361832499999963
                },
                {
                    "name": "C5",
                    "midi": 72,
                    "time": 105.8100960000002,
                    "velocity": 0.3543307086614173,
                    "duration": 0.2361832499999963
                },
                {
                    "name": "C#5",
                    "midi": 73,
                    "time": 106.0462792500002,
                    "velocity": 0.36220472440944884,
                    "duration": 0.2361832499999963
                },
                {
                    "name": "D#5",
                    "midi": 75,
                    "time": 106.2824625000002,
                    "velocity": 0.3937007874015748,
                    "duration": 0.2361832499999963
                },
                {
                    "name": "E5",
                    "midi": 76,
                    "time": 106.51864575000019,
                    "velocity": 0.36220472440944884,
                    "duration": 0.1889465999999942
                },
                {
                    "name": "E5",
                    "midi": 76,
                    "time": 106.99101225000018,
                    "velocity": 0.3700787401574803,
                    "duration": 0.2361832499999963
                },
                {
                    "name": "F#5",
                    "midi": 78,
                    "time": 107.22719550000018,
                    "velocity": 0.3937007874015748,
                    "duration": 0.2361832499999963
                },
                {
                    "name": "E5",
                    "midi": 76,
                    "time": 107.46337875000017,
                    "velocity": 0.3779527559055118,
                    "duration": 0.2361832499999963
                },
                {
                    "name": "E5",
                    "midi": 76,
                    "time": 107.69956200000017,
                    "velocity": 0.3937007874015748,
                    "duration": 0.2361832499999963
                },
                {
                    "name": "B4",
                    "midi": 71,
                    "time": 107.93574525000017,
                    "velocity": 0.3700787401574803,
                    "duration": 0.1889465999999942
                },
                {
                    "name": "B4",
                    "midi": 71,
                    "time": 108.40811175000016,
                    "velocity": 0.3779527559055118,
                    "duration": 0.2361832499999963
                },
                {
                    "name": "A#4",
                    "midi": 70,
                    "time": 108.64429500000016,
                    "velocity": 0.3858267716535433,
                    "duration": 0.2361832499999963
                },
                {
                    "name": "B4",
                    "midi": 71,
                    "time": 108.88047825000015,
                    "velocity": 0.3937007874015748,
                    "duration": 0.2361832499999963
                },
                {
                    "name": "C#5",
                    "midi": 73,
                    "time": 109.11666150000015,
                    "velocity": 0.4015748031496063,
                    "duration": 0.2361832499999963
                },
                {
                    "name": "D5",
                    "midi": 74,
                    "time": 109.35284475000014,
                    "velocity": 0.3779527559055118,
                    "duration": 0.1889465999999942
                },
                {
                    "name": "D5",
                    "midi": 74,
                    "time": 109.82521125000014,
                    "velocity": 0.3858267716535433,
                    "duration": 0.2361832499999963
                },
                {
                    "name": "E5",
                    "midi": 76,
                    "time": 110.06139450000013,
                    "velocity": 0.4094488188976378,
                    "duration": 0.2361832499999963
                },
                {
                    "name": "D5",
                    "midi": 74,
                    "time": 110.29757775000013,
                    "velocity": 0.3937007874015748,
                    "duration": 0.17713743749999367
                },
                {
                    "name": "D5",
                    "midi": 74,
                    "time": 110.53376100000013,
                    "velocity": 0.41732283464566927,
                    "duration": 0.2361832499999963
                },
                {
                    "name": "A4",
                    "midi": 69,
                    "time": 110.76994425000012,
                    "velocity": 0.3700787401574803,
                    "duration": 0.1889465999999942
                },
                {
                    "name": "A4",
                    "midi": 69,
                    "time": 111.24231075000012,
                    "velocity": 0.4015748031496063,
                    "duration": 0.2361832499999963
                },
                {
                    "name": "G#4",
                    "midi": 68,
                    "time": 111.47849400000011,
                    "velocity": 0.4094488188976378,
                    "duration": 0.2361832499999963
                },
                {
                    "name": "A4",
                    "midi": 69,
                    "time": 111.71467725000011,
                    "velocity": 0.4094488188976378,
                    "duration": 0.2361832499999963
                },
                {
                    "name": "A#4",
                    "midi": 70,
                    "time": 111.9508605000001,
                    "velocity": 0.44881889763779526,
                    "duration": 0.2361832499999963
                },
                {
                    "name": "B4",
                    "midi": 71,
                    "time": 112.1870437500001,
                    "velocity": 0.3937007874015748,
                    "duration": 0.1889465999999942
                },
                {
                    "name": "B4",
                    "midi": 71,
                    "time": 112.6594102500001,
                    "velocity": 0.4094488188976378,
                    "duration": 0.2361832499999963
                },
                {
                    "name": "A#4",
                    "midi": 70,
                    "time": 112.89559350000009,
                    "velocity": 0.4094488188976378,
                    "duration": 0.2361832499999963
                },
                {
                    "name": "B4",
                    "midi": 71,
                    "time": 113.13177675000009,
                    "velocity": 0.4094488188976378,
                    "duration": 0.2361832499999963
                },
                {
                    "name": "C5",
                    "midi": 72,
                    "time": 113.36796000000008,
                    "velocity": 0.48031496062992124,
                    "duration": 0.2361832499999963
                },
                {
                    "name": "C#5",
                    "midi": 73,
                    "time": 113.60414325000008,
                    "velocity": 0.4409448818897638,
                    "duration": 0.2361832499999963
                },
                {
                    "name": "C5",
                    "midi": 72,
                    "time": 113.84032650000007,
                    "velocity": 0.4881889763779528,
                    "duration": 0.2361832499999963
                },
                {
                    "name": "C#5",
                    "midi": 73,
                    "time": 114.07650975000007,
                    "velocity": 0.4251968503937008,
                    "duration": 0.2361832499999963
                },
                {
                    "name": "E5",
                    "midi": 76,
                    "time": 114.31269300000007,
                    "velocity": 0.4881889763779528,
                    "duration": 0.2361832499999963
                },
                {
                    "name": "D5",
                    "midi": 74,
                    "time": 114.54887625000006,
                    "velocity": 0.41732283464566927,
                    "duration": 0.2361832499999963
                },
                {
                    "name": "C#5",
                    "midi": 73,
                    "time": 114.78505950000006,
                    "velocity": 0.4409448818897638,
                    "duration": 0.2361832499999963
                },
                {
                    "name": "B4",
                    "midi": 71,
                    "time": 115.02124275000006,
                    "velocity": 0.4566929133858268,
                    "duration": 0.2361832499999963
                },
                {
                    "name": "A4",
                    "midi": 69,
                    "time": 115.25742600000005,
                    "velocity": 0.48031496062992124,
                    "duration": 0.2361832499999963
                },
                {
                    "name": "G#4",
                    "midi": 68,
                    "time": 115.49360925000005,
                    "velocity": 0.5039370078740157,
                    "duration": 0.2361832499999963
                },
                {
                    "name": "F#4",
                    "midi": 66,
                    "time": 115.72979250000004,
                    "velocity": 0.5196850393700787,
                    "duration": 0.2361832499999963
                },
                {
                    "name": "E4",
                    "midi": 64,
                    "time": 115.96597575000004,
                    "velocity": 0.5433070866141733,
                    "duration": 0.2361832499999963
                },
                {
                    "name": "C#5",
                    "midi": 73,
                    "time": 116.20215900000004,
                    "velocity": 0.6062992125984252,
                    "duration": 0.9447329999999994
                },
                {
                    "name": "A4",
                    "midi": 69,
                    "time": 116.20215900000004,
                    "velocity": 0.5039370078740157,
                    "duration": 0.9447329999999994
                },
                {
                    "name": "E4",
                    "midi": 64,
                    "time": 116.20215900000004,
                    "velocity": 0.5039370078740157,
                    "duration": 0.9447329999999994
                },
                {
                    "name": "D5",
                    "midi": 74,
                    "time": 117.14689200000004,
                    "velocity": 0.6062992125984252,
                    "duration": 0.4723665000000068
                },
                {
                    "name": "B4",
                    "midi": 71,
                    "time": 117.14689200000004,
                    "velocity": 0.5039370078740157,
                    "duration": 0.4723665000000068
                },
                {
                    "name": "D#5",
                    "midi": 75,
                    "time": 117.61925850000004,
                    "velocity": 0.6456692913385826,
                    "duration": 0.4723665000000068
                },
                {
                    "name": "C5",
                    "midi": 72,
                    "time": 117.61925850000004,
                    "velocity": 0.5433070866141733,
                    "duration": 0.4723665000000068
                },
                {
                    "name": "C#5",
                    "midi": 73,
                    "time": 118.09162500000005,
                    "velocity": 0.5196850393700787,
                    "duration": 0.4723665000000068
                },
                {
                    "name": "E5",
                    "midi": 76,
                    "time": 118.09162500000005,
                    "velocity": 0.6141732283464567,
                    "duration": 0.4723665000000068
                },
                {
                    "name": "C#5",
                    "midi": 73,
                    "time": 118.80017475000005,
                    "velocity": 0.6062992125984252,
                    "duration": 0.2361832499999963
                },
                {
                    "name": "A4",
                    "midi": 69,
                    "time": 118.80017475000005,
                    "velocity": 0.5039370078740157,
                    "duration": 0.2361832499999963
                },
                {
                    "name": "E4",
                    "midi": 64,
                    "time": 119.03635800000005,
                    "velocity": 0.5433070866141733,
                    "duration": 0.4723665000000068
                },
                {
                    "name": "B4",
                    "midi": 71,
                    "time": 119.03635800000005,
                    "velocity": 0.6456692913385826,
                    "duration": 0.4723665000000068
                },
                {
                    "name": "G#4",
                    "midi": 68,
                    "time": 119.03635800000005,
                    "velocity": 0.5433070866141733,
                    "duration": 0.4723665000000068
                },
                {
                    "name": "B4",
                    "midi": 71,
                    "time": 119.50872450000006,
                    "velocity": 0.6062992125984252,
                    "duration": 0.4723665000000068
                },
                {
                    "name": "E4",
                    "midi": 64,
                    "time": 119.50872450000006,
                    "velocity": 0.5039370078740157,
                    "duration": 0.4723665000000068
                },
                {
                    "name": "G#4",
                    "midi": 68,
                    "time": 119.50872450000006,
                    "velocity": 0.5039370078740157,
                    "duration": 0.4723665000000068
                },
                {
                    "name": "A4",
                    "midi": 69,
                    "time": 119.98109100000006,
                    "velocity": 0.5354330708661418,
                    "duration": 0.4723665000000068
                },
                {
                    "name": "C#5",
                    "midi": 73,
                    "time": 119.98109100000006,
                    "velocity": 0.6299212598425197,
                    "duration": 0.4723665000000068
                },
                {
                    "name": "E4",
                    "midi": 64,
                    "time": 119.98109100000006,
                    "velocity": 0.5354330708661418,
                    "duration": 0.4723665000000068
                },
                {
                    "name": "A#4",
                    "midi": 70,
                    "time": 120.45345750000007,
                    "velocity": 0.5433070866141733,
                    "duration": 0.4723665000000068
                },
                {
                    "name": "C#5",
                    "midi": 73,
                    "time": 120.45345750000007,
                    "velocity": 0.6456692913385826,
                    "duration": 0.4723665000000068
                },
                {
                    "name": "E4",
                    "midi": 64,
                    "time": 120.45345750000007,
                    "velocity": 0.5433070866141733,
                    "duration": 0.9447330000000136
                },
                {
                    "name": "B4",
                    "midi": 71,
                    "time": 120.92582400000008,
                    "velocity": 0.5354330708661418,
                    "duration": 0.4723665000000068
                },
                {
                    "name": "D5",
                    "midi": 74,
                    "time": 120.92582400000008,
                    "velocity": 0.6299212598425197,
                    "duration": 0.4723665000000068
                },
                {
                    "name": "G#4",
                    "midi": 68,
                    "time": 121.63437375000008,
                    "velocity": 0.4645669291338583,
                    "duration": 0.2361832499999963
                },
                {
                    "name": "B4",
                    "midi": 71,
                    "time": 121.63437375000008,
                    "velocity": 0.5511811023622047,
                    "duration": 0.2361832499999963
                },
                {
                    "name": "A4",
                    "midi": 69,
                    "time": 121.87055700000008,
                    "velocity": 0.5984251968503937,
                    "duration": 0.2361832499999963
                },
                {
                    "name": "A4",
                    "midi": 69,
                    "time": 122.34292350000007,
                    "velocity": 0.5511811023622047,
                    "duration": 0.2361832499999963
                },
                {
                    "name": "B4",
                    "midi": 71,
                    "time": 122.81529000000006,
                    "velocity": 0.5511811023622047,
                    "duration": 0.07872774999999876
                },
                {
                    "name": "C#5",
                    "midi": 73,
                    "time": 122.89401775000006,
                    "velocity": 0.5354330708661418,
                    "duration": 0.07872774999999876
                },
                {
                    "name": "B4",
                    "midi": 71,
                    "time": 122.97274550000006,
                    "velocity": 0.5354330708661418,
                    "duration": 0.07872774999999876
                },
                {
                    "name": "A4",
                    "midi": 69,
                    "time": 123.05147325000006,
                    "velocity": 0.5511811023622047,
                    "duration": 0.11809162500000525
                },
                {
                    "name": "B4",
                    "midi": 71,
                    "time": 123.16956487500006,
                    "velocity": 0.5511811023622047,
                    "duration": 0.11809162500000525
                },
                {
                    "name": "C#5",
                    "midi": 73,
                    "time": 123.28765650000007,
                    "velocity": 0.6062992125984252,
                    "duration": 0.2361832499999963
                },
                {
                    "name": "C#5",
                    "midi": 73,
                    "time": 123.76002300000006,
                    "velocity": 0.5511811023622047,
                    "duration": 0.2361832499999963
                },
                {
                    "name": "B4",
                    "midi": 71,
                    "time": 124.23238950000005,
                    "velocity": 0.4881889763779528,
                    "duration": 0.4723665000000068
                },
                {
                    "name": "F#4",
                    "midi": 66,
                    "time": 124.23238950000005,
                    "velocity": 0.4881889763779528,
                    "duration": 0.4723665000000068
                },
                {
                    "name": "D5",
                    "midi": 74,
                    "time": 124.23238950000005,
                    "velocity": 0.5748031496062992,
                    "duration": 0.4723665000000068
                },
                {
                    "name": "A4",
                    "midi": 69,
                    "time": 124.70475600000006,
                    "velocity": 0.5039370078740157,
                    "duration": 0.4723665000000068
                },
                {
                    "name": "E4",
                    "midi": 64,
                    "time": 124.70475600000006,
                    "velocity": 0.5039370078740157,
                    "duration": 0.4723665000000068
                },
                {
                    "name": "C#5",
                    "midi": 73,
                    "time": 124.70475600000006,
                    "velocity": 0.5984251968503937,
                    "duration": 0.4723665000000068
                },
                {
                    "name": "A4",
                    "midi": 69,
                    "time": 125.17712250000007,
                    "velocity": 0.4881889763779528,
                    "duration": 0.4723665000000068
                },
                {
                    "name": "C#5",
                    "midi": 73,
                    "time": 125.17712250000007,
                    "velocity": 0.5826771653543307,
                    "duration": 0.4723665000000068
                },
                {
                    "name": "E4",
                    "midi": 64,
                    "time": 125.17712250000007,
                    "velocity": 0.4881889763779528,
                    "duration": 0.4723665000000068
                },
                {
                    "name": "B4",
                    "midi": 71,
                    "time": 125.64948900000007,
                    "velocity": 0.5669291338582677,
                    "duration": 0.4723665000000068
                },
                {
                    "name": "D4",
                    "midi": 62,
                    "time": 125.64948900000007,
                    "velocity": 0.48031496062992124,
                    "duration": 0.4723665000000068
                },
                {
                    "name": "G#4",
                    "midi": 68,
                    "time": 125.64948900000007,
                    "velocity": 0.48031496062992124,
                    "duration": 0.4723665000000068
                },
                {
                    "name": "E4",
                    "midi": 64,
                    "time": 125.64948900000007,
                    "velocity": 0.48031496062992124,
                    "duration": 0.4723665000000068
                },
                {
                    "name": "A4",
                    "midi": 69,
                    "time": 126.12185550000008,
                    "velocity": 0.5984251968503937,
                    "duration": 0.4723665000000068
                },
                {
                    "name": "C#4",
                    "midi": 61,
                    "time": 126.12185550000008,
                    "velocity": 0.5039370078740157,
                    "duration": 0.4723665000000068
                },
                {
                    "name": "E4",
                    "midi": 64,
                    "time": 126.12185550000008,
                    "velocity": 0.5039370078740157,
                    "duration": 0.4723665000000068
                },
                {
                    "name": "C5",
                    "midi": 72,
                    "time": 127.53895500000009,
                    "velocity": 0.3937007874015748,
                    "duration": 0.2361832499999963
                },
                {
                    "name": "C#5",
                    "midi": 73,
                    "time": 127.77513825000008,
                    "velocity": 0.36220472440944884,
                    "duration": 0.1889465999999942
                },
                {
                    "name": "C#5",
                    "midi": 73,
                    "time": 128.24750475000008,
                    "velocity": 0.3543307086614173,
                    "duration": 0.2361832500000105
                },
                {
                    "name": "C5",
                    "midi": 72,
                    "time": 128.4836880000001,
                    "velocity": 0.3543307086614173,
                    "duration": 0.2361832500000105
                },
                {
                    "name": "C#5",
                    "midi": 73,
                    "time": 128.7198712500001,
                    "velocity": 0.36220472440944884,
                    "duration": 0.2361832500000105
                },
                {
                    "name": "D#5",
                    "midi": 75,
                    "time": 128.9560545000001,
                    "velocity": 0.3937007874015748,
                    "duration": 0.2361832500000105
                },
                {
                    "name": "E5",
                    "midi": 76,
                    "time": 129.19223775000012,
                    "velocity": 0.36220472440944884,
                    "duration": 0.1889466000000084
                },
                {
                    "name": "E5",
                    "midi": 76,
                    "time": 129.66460425000014,
                    "velocity": 0.3700787401574803,
                    "duration": 0.2361832500000105
                },
                {
                    "name": "F#5",
                    "midi": 78,
                    "time": 129.90078750000015,
                    "velocity": 0.3937007874015748,
                    "duration": 0.2361832500000105
                },
                {
                    "name": "E5",
                    "midi": 76,
                    "time": 130.13697075000016,
                    "velocity": 0.3779527559055118,
                    "duration": 0.2361832500000105
                },
                {
                    "name": "E5",
                    "midi": 76,
                    "time": 130.37315400000017,
                    "velocity": 0.3937007874015748,
                    "duration": 0.2361832500000105
                },
                {
                    "name": "B4",
                    "midi": 71,
                    "time": 130.60933725000018,
                    "velocity": 0.3700787401574803,
                    "duration": 0.1889466000000084
                },
                {
                    "name": "B4",
                    "midi": 71,
                    "time": 131.0817037500002,
                    "velocity": 0.3779527559055118,
                    "duration": 0.2361832500000105
                },
                {
                    "name": "A#4",
                    "midi": 70,
                    "time": 131.3178870000002,
                    "velocity": 0.3858267716535433,
                    "duration": 0.2361832500000105
                },
                {
                    "name": "B4",
                    "midi": 71,
                    "time": 131.55407025000022,
                    "velocity": 0.3937007874015748,
                    "duration": 0.2361832500000105
                },
                {
                    "name": "C#5",
                    "midi": 73,
                    "time": 131.79025350000023,
                    "velocity": 0.4015748031496063,
                    "duration": 0.2361832500000105
                },
                {
                    "name": "D5",
                    "midi": 74,
                    "time": 132.02643675000024,
                    "velocity": 0.3779527559055118,
                    "duration": 0.1889466000000084
                },
                {
                    "name": "D5",
                    "midi": 74,
                    "time": 132.49880325000026,
                    "velocity": 0.3858267716535433,
                    "duration": 0.2361832500000105
                },
                {
                    "name": "E5",
                    "midi": 76,
                    "time": 132.73498650000028,
                    "velocity": 0.4094488188976378,
                    "duration": 0.2361832500000105
                },
                {
                    "name": "D5",
                    "midi": 74,
                    "time": 132.97116975000029,
                    "velocity": 0.3937007874015748,
                    "duration": 0.17713743749999367
                },
                {
                    "name": "D5",
                    "midi": 74,
                    "time": 133.20735300000027,
                    "velocity": 0.41732283464566927,
                    "duration": 0.2361832500000105
                },
                {
                    "name": "A4",
                    "midi": 69,
                    "time": 133.44353625000028,
                    "velocity": 0.3700787401574803,
                    "duration": 0.1889466000000084
                },
                {
                    "name": "A4",
                    "midi": 69,
                    "time": 133.9159027500003,
                    "velocity": 0.4015748031496063,
                    "duration": 0.2361832500000105
                },
                {
                    "name": "G#4",
                    "midi": 68,
                    "time": 134.1520860000003,
                    "velocity": 0.4094488188976378,
                    "duration": 0.2361832500000105
                },
                {
                    "name": "A4",
                    "midi": 69,
                    "time": 134.38826925000032,
                    "velocity": 0.4094488188976378,
                    "duration": 0.2361832500000105
                },
                {
                    "name": "A#4",
                    "midi": 70,
                    "time": 134.62445250000033,
                    "velocity": 0.44881889763779526,
                    "duration": 0.2361832500000105
                },
                {
                    "name": "B4",
                    "midi": 71,
                    "time": 134.86063575000034,
                    "velocity": 0.3937007874015748,
                    "duration": 0.1889466000000084
                },
                {
                    "name": "B4",
                    "midi": 71,
                    "time": 135.33300225000036,
                    "velocity": 0.4094488188976378,
                    "duration": 0.2361832500000105
                },
                {
                    "name": "A#4",
                    "midi": 70,
                    "time": 135.56918550000037,
                    "velocity": 0.4094488188976378,
                    "duration": 0.2361832500000105
                },
                {
                    "name": "B4",
                    "midi": 71,
                    "time": 135.80536875000038,
                    "velocity": 0.4094488188976378,
                    "duration": 0.2361832500000105
                },
                {
                    "name": "C5",
                    "midi": 72,
                    "time": 136.0415520000004,
                    "velocity": 0.48031496062992124,
                    "duration": 0.2361832500000105
                },
                {
                    "name": "C#5",
                    "midi": 73,
                    "time": 136.2777352500004,
                    "velocity": 0.4409448818897638,
                    "duration": 0.2361832500000105
                },
                {
                    "name": "C5",
                    "midi": 72,
                    "time": 136.51391850000041,
                    "velocity": 0.4881889763779528,
                    "duration": 0.2361832500000105
                },
                {
                    "name": "C#5",
                    "midi": 73,
                    "time": 136.75010175000043,
                    "velocity": 0.4251968503937008,
                    "duration": 0.2361832500000105
                },
                {
                    "name": "E5",
                    "midi": 76,
                    "time": 136.98628500000044,
                    "velocity": 0.4881889763779528,
                    "duration": 0.2361832500000105
                },
                {
                    "name": "D5",
                    "midi": 74,
                    "time": 137.22246825000045,
                    "velocity": 0.41732283464566927,
                    "duration": 0.2361832500000105
                },
                {
                    "name": "C#5",
                    "midi": 73,
                    "time": 137.45865150000046,
                    "velocity": 0.4409448818897638,
                    "duration": 0.2361832500000105
                },
                {
                    "name": "B4",
                    "midi": 71,
                    "time": 137.69483475000047,
                    "velocity": 0.4566929133858268,
                    "duration": 0.2361832500000105
                },
                {
                    "name": "A4",
                    "midi": 69,
                    "time": 137.93101800000048,
                    "velocity": 0.48031496062992124,
                    "duration": 0.2361832500000105
                },
                {
                    "name": "G#4",
                    "midi": 68,
                    "time": 138.1672012500005,
                    "velocity": 0.5039370078740157,
                    "duration": 0.2361832500000105
                },
                {
                    "name": "F#4",
                    "midi": 66,
                    "time": 138.4033845000005,
                    "velocity": 0.5196850393700787,
                    "duration": 0.2361832500000105
                },
                {
                    "name": "E4",
                    "midi": 64,
                    "time": 138.6395677500005,
                    "velocity": 0.5433070866141733,
                    "duration": 0.2361832500000105
                },
                {
                    "name": "E4",
                    "midi": 64,
                    "time": 138.87575100000052,
                    "velocity": 0.5039370078740157,
                    "duration": 0.9447330000000136
                },
                {
                    "name": "C#5",
                    "midi": 73,
                    "time": 138.87575100000052,
                    "velocity": 0.6062992125984252,
                    "duration": 0.9447330000000136
                },
                {
                    "name": "A4",
                    "midi": 69,
                    "time": 138.87575100000052,
                    "velocity": 0.5039370078740157,
                    "duration": 0.9447330000000136
                },
                {
                    "name": "B4",
                    "midi": 71,
                    "time": 139.82048400000053,
                    "velocity": 0.5039370078740157,
                    "duration": 0.4723664999999926
                },
                {
                    "name": "D5",
                    "midi": 74,
                    "time": 139.82048400000053,
                    "velocity": 0.6062992125984252,
                    "duration": 0.4723664999999926
                },
                {
                    "name": "D#5",
                    "midi": 75,
                    "time": 140.29285050000053,
                    "velocity": 0.6456692913385826,
                    "duration": 0.4723664999999926
                },
                {
                    "name": "C5",
                    "midi": 72,
                    "time": 140.29285050000053,
                    "velocity": 0.5433070866141733,
                    "duration": 0.4723664999999926
                },
                {
                    "name": "C#5",
                    "midi": 73,
                    "time": 140.76521700000052,
                    "velocity": 0.5196850393700787,
                    "duration": 0.4723664999999926
                },
                {
                    "name": "E5",
                    "midi": 76,
                    "time": 140.76521700000052,
                    "velocity": 0.6141732283464567,
                    "duration": 0.4723664999999926
                },
                {
                    "name": "A4",
                    "midi": 69,
                    "time": 141.47376675000052,
                    "velocity": 0.5039370078740157,
                    "duration": 0.2361832500000105
                },
                {
                    "name": "C#5",
                    "midi": 73,
                    "time": 141.47376675000052,
                    "velocity": 0.6062992125984252,
                    "duration": 0.2361832500000105
                },
                {
                    "name": "G#4",
                    "midi": 68,
                    "time": 141.70995000000053,
                    "velocity": 0.5433070866141733,
                    "duration": 0.4723664999999926
                },
                {
                    "name": "B4",
                    "midi": 71,
                    "time": 141.70995000000053,
                    "velocity": 0.6456692913385826,
                    "duration": 0.4723664999999926
                },
                {
                    "name": "E4",
                    "midi": 64,
                    "time": 141.70995000000053,
                    "velocity": 0.5433070866141733,
                    "duration": 0.4723664999999926
                },
                {
                    "name": "B4",
                    "midi": 71,
                    "time": 142.18231650000052,
                    "velocity": 0.6062992125984252,
                    "duration": 0.4723664999999926
                },
                {
                    "name": "E4",
                    "midi": 64,
                    "time": 142.18231650000052,
                    "velocity": 0.5039370078740157,
                    "duration": 0.4723664999999926
                },
                {
                    "name": "G#4",
                    "midi": 68,
                    "time": 142.18231650000052,
                    "velocity": 0.5039370078740157,
                    "duration": 0.4723664999999926
                },
                {
                    "name": "E4",
                    "midi": 64,
                    "time": 142.65468300000052,
                    "velocity": 0.5354330708661418,
                    "duration": 0.4723664999999926
                },
                {
                    "name": "A4",
                    "midi": 69,
                    "time": 142.65468300000052,
                    "velocity": 0.5354330708661418,
                    "duration": 0.4723664999999926
                },
                {
                    "name": "C#5",
                    "midi": 73,
                    "time": 142.65468300000052,
                    "velocity": 0.6299212598425197,
                    "duration": 0.4723664999999926
                },
                {
                    "name": "E4",
                    "midi": 64,
                    "time": 143.1270495000005,
                    "velocity": 0.5433070866141733,
                    "duration": 0.9447329999999852
                },
                {
                    "name": "C#5",
                    "midi": 73,
                    "time": 143.1270495000005,
                    "velocity": 0.6456692913385826,
                    "duration": 0.4723664999999926
                },
                {
                    "name": "A#4",
                    "midi": 70,
                    "time": 143.1270495000005,
                    "velocity": 0.5433070866141733,
                    "duration": 0.4723664999999926
                },
                {
                    "name": "D5",
                    "midi": 74,
                    "time": 143.5994160000005,
                    "velocity": 0.6299212598425197,
                    "duration": 0.4723664999999926
                },
                {
                    "name": "B4",
                    "midi": 71,
                    "time": 143.5994160000005,
                    "velocity": 0.5354330708661418,
                    "duration": 0.4723664999999926
                },
                {
                    "name": "G#4",
                    "midi": 68,
                    "time": 144.3079657500005,
                    "velocity": 0.4645669291338583,
                    "duration": 0.2361832500000105
                },
                {
                    "name": "B4",
                    "midi": 71,
                    "time": 144.3079657500005,
                    "velocity": 0.5511811023622047,
                    "duration": 0.2361832500000105
                },
                {
                    "name": "A4",
                    "midi": 69,
                    "time": 144.54414900000052,
                    "velocity": 0.5984251968503937,
                    "duration": 0.2361832500000105
                },
                {
                    "name": "A4",
                    "midi": 69,
                    "time": 145.01651550000054,
                    "velocity": 0.5511811023622047,
                    "duration": 0.2361832500000105
                },
                {
                    "name": "B4",
                    "midi": 71,
                    "time": 145.48888200000056,
                    "velocity": 0.5511811023622047,
                    "duration": 0.07872775000001297
                },
                {
                    "name": "C#5",
                    "midi": 73,
                    "time": 145.56760975000057,
                    "velocity": 0.5354330708661418,
                    "duration": 0.07872775000001297
                },
                {
                    "name": "B4",
                    "midi": 71,
                    "time": 145.64633750000058,
                    "velocity": 0.5354330708661418,
                    "duration": 0.07872775000001297
                },
                {
                    "name": "A4",
                    "midi": 69,
                    "time": 145.7250652500006,
                    "velocity": 0.5511811023622047,
                    "duration": 0.11809162500000525
                },
                {
                    "name": "B4",
                    "midi": 71,
                    "time": 145.8431568750006,
                    "velocity": 0.5511811023622047,
                    "duration": 0.11809162500000525
                },
                {
                    "name": "C#5",
                    "midi": 73,
                    "time": 145.9612485000006,
                    "velocity": 0.6062992125984252,
                    "duration": 0.2361832500000105
                },
                {
                    "name": "C#5",
                    "midi": 73,
                    "time": 146.43361500000063,
                    "velocity": 0.5511811023622047,
                    "duration": 0.2361832500000105
                },
                {
                    "name": "D5",
                    "midi": 74,
                    "time": 146.90598150000065,
                    "velocity": 0.5748031496062992,
                    "duration": 0.4723664999999926
                },
                {
                    "name": "B4",
                    "midi": 71,
                    "time": 146.90598150000065,
                    "velocity": 0.4881889763779528,
                    "duration": 0.4723664999999926
                },
                {
                    "name": "F#4",
                    "midi": 66,
                    "time": 146.90598150000065,
                    "velocity": 0.4881889763779528,
                    "duration": 0.4723664999999926
                },
                {
                    "name": "C#5",
                    "midi": 73,
                    "time": 147.37834800000064,
                    "velocity": 0.5984251968503937,
                    "duration": 0.4723664999999926
                },
                {
                    "name": "A4",
                    "midi": 69,
                    "time": 147.37834800000064,
                    "velocity": 0.5039370078740157,
                    "duration": 0.4723664999999926
                },
                {
                    "name": "E4",
                    "midi": 64,
                    "time": 147.37834800000064,
                    "velocity": 0.5039370078740157,
                    "duration": 0.4723664999999926
                },
                {
                    "name": "E4",
                    "midi": 64,
                    "time": 147.85071450000063,
                    "velocity": 0.4881889763779528,
                    "duration": 0.4723664999999926
                },
                {
                    "name": "C#5",
                    "midi": 73,
                    "time": 147.85071450000063,
                    "velocity": 0.5826771653543307,
                    "duration": 0.4723664999999926
                },
                {
                    "name": "A4",
                    "midi": 69,
                    "time": 147.85071450000063,
                    "velocity": 0.4881889763779528,
                    "duration": 0.4723664999999926
                },
                {
                    "name": "D4",
                    "midi": 62,
                    "time": 148.32308100000063,
                    "velocity": 0.48031496062992124,
                    "duration": 0.4723664999999926
                },
                {
                    "name": "E4",
                    "midi": 64,
                    "time": 148.32308100000063,
                    "velocity": 0.48031496062992124,
                    "duration": 0.4723664999999926
                },
                {
                    "name": "G#4",
                    "midi": 68,
                    "time": 148.32308100000063,
                    "velocity": 0.48031496062992124,
                    "duration": 0.4723664999999926
                },
                {
                    "name": "B4",
                    "midi": 71,
                    "time": 148.32308100000063,
                    "velocity": 0.5669291338582677,
                    "duration": 0.4723664999999926
                },
                {
                    "name": "C#4",
                    "midi": 61,
                    "time": 148.79544750000062,
                    "velocity": 0.5039370078740157,
                    "duration": 0.4723664999999926
                },
                {
                    "name": "E4",
                    "midi": 64,
                    "time": 148.79544750000062,
                    "velocity": 0.5039370078740157,
                    "duration": 0.4723664999999926
                },
                {
                    "name": "A4",
                    "midi": 69,
                    "time": 148.79544750000062,
                    "velocity": 0.5984251968503937,
                    "duration": 0.4723664999999926
                },
                {
                    "name": "D#5",
                    "midi": 75,
                    "time": 150.21254700000063,
                    "velocity": 0.3937007874015748,
                    "duration": 0.2361832500000105
                },
                {
                    "name": "E5",
                    "midi": 76,
                    "time": 150.44873025000064,
                    "velocity": 0.36220472440944884,
                    "duration": 0.1889466000000084
                },
                {
                    "name": "E5",
                    "midi": 76,
                    "time": 150.92109675000066,
                    "velocity": 0.3543307086614173,
                    "duration": 0.2361832500000105
                },
                {
                    "name": "D#5",
                    "midi": 75,
                    "time": 151.15728000000067,
                    "velocity": 0.3543307086614173,
                    "duration": 0.2361832500000105
                },
                {
                    "name": "E5",
                    "midi": 76,
                    "time": 151.39346325000068,
                    "velocity": 0.36220472440944884,
                    "duration": 0.2361832500000105
                },
                {
                    "name": "F5",
                    "midi": 77,
                    "time": 151.6296465000007,
                    "velocity": 0.3937007874015748,
                    "duration": 0.2361832500000105
                },
                {
                    "name": "F#5",
                    "midi": 78,
                    "time": 151.8658297500007,
                    "velocity": 0.36220472440944884,
                    "duration": 0.1889466000000084
                },
                {
                    "name": "F#5",
                    "midi": 78,
                    "time": 152.33819625000072,
                    "velocity": 0.3700787401574803,
                    "duration": 0.2361832500000105
                },
                {
                    "name": "F5",
                    "midi": 77,
                    "time": 152.57437950000073,
                    "velocity": 0.3937007874015748,
                    "duration": 0.2361832500000105
                },
                {
                    "name": "F#5",
                    "midi": 78,
                    "time": 152.81056275000074,
                    "velocity": 0.3779527559055118,
                    "duration": 0.2361832500000105
                },
                {
                    "name": "G#5",
                    "midi": 80,
                    "time": 153.04674600000075,
                    "velocity": 0.4330708661417323,
                    "duration": 0.2361832500000105
                },
                {
                    "name": "A5",
                    "midi": 81,
                    "time": 153.28292925000076,
                    "velocity": 0.3700787401574803,
                    "duration": 0.1889466000000084
                },
                {
                    "name": "G5",
                    "midi": 79,
                    "time": 153.51911250000077,
                    "velocity": 0.4330708661417323,
                    "duration": 0.2361832500000105
                },
                {
                    "name": "G#5",
                    "midi": 80,
                    "time": 153.75529575000078,
                    "velocity": 0.3779527559055118,
                    "duration": 0.1889466000000084
                },
                {
                    "name": "F5",
                    "midi": 77,
                    "time": 153.9914790000008,
                    "velocity": 0.4330708661417323,
                    "duration": 0.2361832500000105
                },
                {
                    "name": "F#5",
                    "midi": 78,
                    "time": 154.2276622500008,
                    "velocity": 0.3700787401574803,
                    "duration": 0.1889466000000084
                },
                {
                    "name": "D#5",
                    "midi": 75,
                    "time": 154.46384550000082,
                    "velocity": 0.4330708661417323,
                    "duration": 0.2361832500000105
                },
                {
                    "name": "E5",
                    "midi": 76,
                    "time": 154.70002875000083,
                    "velocity": 0.36220472440944884,
                    "duration": 0.1889466000000084
                },
                {
                    "name": "E5",
                    "midi": 76,
                    "time": 155.17239525000085,
                    "velocity": 0.4330708661417323,
                    "duration": 0.21256492500000945
                },
                {
                    "name": "E5",
                    "midi": 76,
                    "time": 155.40857850000086,
                    "velocity": 0.44881889763779526,
                    "duration": 0.21256492500000945
                },
                {
                    "name": "E5",
                    "midi": 76,
                    "time": 155.64476175000087,
                    "velocity": 0.4566929133858268,
                    "duration": 0.21256492500000945
                },
                {
                    "name": "E5",
                    "midi": 76,
                    "time": 155.88094500000088,
                    "velocity": 0.5669291338582677,
                    "duration": 0.2361832500000105
                },
                {
                    "name": "C#5",
                    "midi": 73,
                    "time": 156.1171282500009,
                    "velocity": 0.5039370078740157,
                    "duration": 0.2361832500000105
                },
                {
                    "name": "A4",
                    "midi": 69,
                    "time": 156.3533115000009,
                    "velocity": 0.4645669291338583,
                    "duration": 0.2361832500000105
                },
                {
                    "name": "E5",
                    "midi": 76,
                    "time": 156.5894947500009,
                    "velocity": 0.44881889763779526,
                    "duration": 0.21256492500000945
                },
                {
                    "name": "E5",
                    "midi": 76,
                    "time": 156.82567800000092,
                    "velocity": 0.4645669291338583,
                    "duration": 0.21256492500000945
                },
                {
                    "name": "E5",
                    "midi": 76,
                    "time": 157.06186125000093,
                    "velocity": 0.48031496062992124,
                    "duration": 0.21256492500000945
                },
                {
                    "name": "E5",
                    "midi": 76,
                    "time": 157.29804450000094,
                    "velocity": 0.5511811023622047,
                    "duration": 0.2361832500000105
                },
                {
                    "name": "D5",
                    "midi": 74,
                    "time": 157.53422775000095,
                    "velocity": 0.4881889763779528,
                    "duration": 0.2361832500000105
                },
                {
                    "name": "G#4",
                    "midi": 68,
                    "time": 157.77041100000096,
                    "velocity": 0.4566929133858268,
                    "duration": 0.2361832500000105
                },
                {
                    "name": "E5",
                    "midi": 76,
                    "time": 158.00659425000097,
                    "velocity": 0.4645669291338583,
                    "duration": 0.21256492500000945
                },
                {
                    "name": "E5",
                    "midi": 76,
                    "time": 158.24277750000098,
                    "velocity": 0.4881889763779528,
                    "duration": 0.21256492500000945
                },
                {
                    "name": "E5",
                    "midi": 76,
                    "time": 158.478960750001,
                    "velocity": 0.5039370078740157,
                    "duration": 0.21256492500000945
                },
                {
                    "name": "E5",
                    "midi": 76,
                    "time": 158.715144000001,
                    "velocity": 0.5433070866141733,
                    "duration": 0.2361832500000105
                },
                {
                    "name": "C#5",
                    "midi": 73,
                    "time": 158.95132725000101,
                    "velocity": 0.49606299212598426,
                    "duration": 0.2361832500000105
                },
                {
                    "name": "A4",
                    "midi": 69,
                    "time": 159.18751050000103,
                    "velocity": 0.3779527559055118,
                    "duration": 0.2361832500000105
                },
                {
                    "name": "E5",
                    "midi": 76,
                    "time": 159.42369375000104,
                    "velocity": 0.4094488188976378,
                    "duration": 0.2361832500000105
                },
                {
                    "name": "C#5",
                    "midi": 73,
                    "time": 159.65987700000105,
                    "velocity": 0.4015748031496063,
                    "duration": 0.2361832500000105
                },
                {
                    "name": "A4",
                    "midi": 69,
                    "time": 159.89606025000106,
                    "velocity": 0.3858267716535433,
                    "duration": 0.2361832500000105
                },
                {
                    "name": "C#5",
                    "midi": 73,
                    "time": 160.13224350000107,
                    "velocity": 0.4015748031496063,
                    "duration": 0.9447330000000136
                },
                {
                    "name": "A4",
                    "midi": 69,
                    "time": 160.13224350000107,
                    "velocity": 0.33858267716535434,
                    "duration": 0.9447330000000136
                },
                {
                    "name": "B4",
                    "midi": 71,
                    "time": 161.07697650000108,
                    "velocity": 0.3700787401574803,
                    "duration": 0.4723664999999926
                },
                {
                    "name": "G#4",
                    "midi": 68,
                    "time": 161.07697650000108,
                    "velocity": 0.30708661417322836,
                    "duration": 0.4723664999999926
                },
                {
                    "name": "C5",
                    "midi": 72,
                    "time": 161.54934300000107,
                    "velocity": 0.3937007874015748,
                    "duration": 0.2361832500000105
                },
                {
                    "name": "C#5",
                    "midi": 73,
                    "time": 161.78552625000108,
                    "velocity": 0.36220472440944884,
                    "duration": 0.1889466000000084
                },
                {
                    "name": "C#5",
                    "midi": 73,
                    "time": 162.2578927500011,
                    "velocity": 0.3543307086614173,
                    "duration": 0.2361832500000105
                },
                {
                    "name": "C5",
                    "midi": 72,
                    "time": 162.49407600000112,
                    "velocity": 0.3543307086614173,
                    "duration": 0.2361832500000105
                },
                {
                    "name": "C#5",
                    "midi": 73,
                    "time": 162.73025925000113,
                    "velocity": 0.36220472440944884,
                    "duration": 0.2361832500000105
                },
                {
                    "name": "D#5",
                    "midi": 75,
                    "time": 162.96644250000114,
                    "velocity": 0.3937007874015748,
                    "duration": 0.2361832500000105
                },
                {
                    "name": "E5",
                    "midi": 76,
                    "time": 163.20262575000115,
                    "velocity": 0.36220472440944884,
                    "duration": 0.1889466000000084
                },
                {
                    "name": "E5",
                    "midi": 76,
                    "time": 163.67499225000117,
                    "velocity": 0.3700787401574803,
                    "duration": 0.2361832500000105
                },
                {
                    "name": "F#5",
                    "midi": 78,
                    "time": 163.91117550000118,
                    "velocity": 0.3937007874015748,
                    "duration": 0.2361832500000105
                },
                {
                    "name": "E5",
                    "midi": 76,
                    "time": 164.1473587500012,
                    "velocity": 0.3779527559055118,
                    "duration": 0.17713743749999367
                },
                {
                    "name": "E5",
                    "midi": 76,
                    "time": 164.38354200000117,
                    "velocity": 0.3937007874015748,
                    "duration": 0.2361832500000105
                },
                {
                    "name": "B4",
                    "midi": 71,
                    "time": 164.61972525000118,
                    "velocity": 0.3700787401574803,
                    "duration": 0.1889466000000084
                },
                {
                    "name": "B4",
                    "midi": 71,
                    "time": 165.0920917500012,
                    "velocity": 0.3779527559055118,
                    "duration": 0.2361832500000105
                },
                {
                    "name": "A#4",
                    "midi": 70,
                    "time": 165.3282750000012,
                    "velocity": 0.3858267716535433,
                    "duration": 0.2361832500000105
                },
                {
                    "name": "B4",
                    "midi": 71,
                    "time": 165.56445825000122,
                    "velocity": 0.3937007874015748,
                    "duration": 0.2361832500000105
                },
                {
                    "name": "C#5",
                    "midi": 73,
                    "time": 165.80064150000123,
                    "velocity": 0.4015748031496063,
                    "duration": 0.2361832500000105
                },
                {
                    "name": "D5",
                    "midi": 74,
                    "time": 166.03682475000124,
                    "velocity": 0.3779527559055118,
                    "duration": 0.1889466000000084
                },
                {
                    "name": "D5",
                    "midi": 74,
                    "time": 166.50919125000127,
                    "velocity": 0.3858267716535433,
                    "duration": 0.2361832500000105
                },
                {
                    "name": "E5",
                    "midi": 76,
                    "time": 166.74537450000128,
                    "velocity": 0.4094488188976378,
                    "duration": 0.2361832500000105
                },
                {
                    "name": "D5",
                    "midi": 74,
                    "time": 166.9815577500013,
                    "velocity": 0.3937007874015748,
                    "duration": 0.17713743749999367
                },
                {
                    "name": "D5",
                    "midi": 74,
                    "time": 167.21774100000127,
                    "velocity": 0.41732283464566927,
                    "duration": 0.2361832500000105
                },
                {
                    "name": "A4",
                    "midi": 69,
                    "time": 167.45392425000128,
                    "velocity": 0.3700787401574803,
                    "duration": 0.1889466000000084
                },
                {
                    "name": "A4",
                    "midi": 69,
                    "time": 167.9262907500013,
                    "velocity": 0.4015748031496063,
                    "duration": 0.2361832500000105
                },
                {
                    "name": "C#5",
                    "midi": 73,
                    "time": 168.1624740000013,
                    "velocity": 0.4094488188976378,
                    "duration": 0.2361832500000105
                },
                {
                    "name": "B4",
                    "midi": 71,
                    "time": 168.39865725000132,
                    "velocity": 0.4094488188976378,
                    "duration": 0.2361832500000105
                },
                {
                    "name": "D5",
                    "midi": 74,
                    "time": 168.63484050000133,
                    "velocity": 0.44881889763779526,
                    "duration": 0.2361832500000105
                },
                {
                    "name": "C#5",
                    "midi": 73,
                    "time": 168.87102375000134,
                    "velocity": 0.3937007874015748,
                    "duration": 0.1889466000000084
                },
                {
                    "name": "C#5",
                    "midi": 73,
                    "time": 169.34339025000136,
                    "velocity": 0.4094488188976378,
                    "duration": 0.2361832500000105
                },
                {
                    "name": "E5",
                    "midi": 76,
                    "time": 169.57957350000137,
                    "velocity": 0.44881889763779526,
                    "duration": 0.2361832500000105
                },
                {
                    "name": "D5",
                    "midi": 74,
                    "time": 169.81575675000138,
                    "velocity": 0.4251968503937008,
                    "duration": 0.2361832500000105
                },
                {
                    "name": "C5",
                    "midi": 72,
                    "time": 170.0519400000014,
                    "velocity": 0.47244094488188976,
                    "duration": 0.2361832500000105
                },
                {
                    "name": "C#5",
                    "midi": 73,
                    "time": 170.2881232500014,
                    "velocity": 0.4251968503937008,
                    "duration": 0.1889466000000084
                },
                {
                    "name": "C#5",
                    "midi": 73,
                    "time": 170.76048975000143,
                    "velocity": 0.4330708661417323,
                    "duration": 0.2361832500000105
                },
                {
                    "name": "D5",
                    "midi": 74,
                    "time": 170.99667300000144,
                    "velocity": 0.4645669291338583,
                    "duration": 0.2361832500000105
                },
                {
                    "name": "B4",
                    "midi": 71,
                    "time": 171.23285625000145,
                    "velocity": 0.4251968503937008,
                    "duration": 0.2361832500000105
                },
                {
                    "name": "B4",
                    "midi": 71,
                    "time": 171.46903950000146,
                    "velocity": 0.47244094488188976,
                    "duration": 0.7085497500000031
                },
                {
                    "name": "G#4",
                    "midi": 68,
                    "time": 171.46903950000146,
                    "velocity": 0.3779527559055118,
                    "duration": 0.9447330000000136
                },
                {
                    "name": "C5",
                    "midi": 72,
                    "time": 172.17758925000146,
                    "velocity": 0.4645669291338583,
                    "duration": 0.2361832500000105
                },
                {
                    "name": "A4",
                    "midi": 69,
                    "time": 172.41377250000147,
                    "velocity": 0.4015748031496063,
                    "duration": 0.4723664999999926
                },
                {
                    "name": "C#5",
                    "midi": 73,
                    "time": 172.41377250000147,
                    "velocity": 0.5039370078740157,
                    "duration": 0.4723664999999926
                },
                {
                    "name": "C#5",
                    "midi": 73,
                    "time": 172.88613900000146,
                    "velocity": 0.5984251968503937,
                    "duration": 0.35427487499998733
                },
                {
                    "name": "A4",
                    "midi": 69,
                    "time": 172.88613900000146,
                    "velocity": 0.5039370078740157,
                    "duration": 0.35427487499998733
                },
                {
                    "name": "E4",
                    "midi": 64,
                    "time": 172.88613900000146,
                    "velocity": 0.5039370078740157,
                    "duration": 0.35427487499998733
                },
                {
                    "name": "C#5",
                    "midi": 73,
                    "time": 173.35850550000146,
                    "velocity": 0.5984251968503937,
                    "duration": 0.35427487499998733
                },
                {
                    "name": "A4",
                    "midi": 69,
                    "time": 173.35850550000146,
                    "velocity": 0.5039370078740157,
                    "duration": 0.35427487499998733
                },
                {
                    "name": "E4",
                    "midi": 64,
                    "time": 173.35850550000146,
                    "velocity": 0.5039370078740157,
                    "duration": 0.35427487499998733
                },
                {
                    "name": "E4",
                    "midi": 64,
                    "time": 173.83087200000145,
                    "velocity": 0.47244094488188976,
                    "duration": 0.35427487499998733
                },
                {
                    "name": "D5",
                    "midi": 74,
                    "time": 173.83087200000145,
                    "velocity": 0.5590551181102362,
                    "duration": 0.35427487499998733
                },
                {
                    "name": "G#4",
                    "midi": 68,
                    "time": 173.83087200000145,
                    "velocity": 0.47244094488188976,
                    "duration": 0.35427487499998733
                },
                {
                    "name": "E4",
                    "midi": 64,
                    "time": 174.30323850000144,
                    "velocity": 0.49606299212598426,
                    "duration": 0.35427487499998733
                },
                {
                    "name": "A4",
                    "midi": 69,
                    "time": 174.30323850000144,
                    "velocity": 0.49606299212598426,
                    "duration": 0.35427487499998733
                },
                {
                    "name": "E5",
                    "midi": 76,
                    "time": 174.30323850000144,
                    "velocity": 0.5905511811023622,
                    "duration": 0.35427487499998733
                },
                {
                    "name": "E5",
                    "midi": 76,
                    "time": 174.77560500000143,
                    "velocity": 0.5354330708661418,
                    "duration": 0.35427487499998733
                },
                {
                    "name": "A4",
                    "midi": 69,
                    "time": 174.77560500000143,
                    "velocity": 0.44881889763779526,
                    "duration": 0.35427487499998733
                },
                {
                    "name": "F#5",
                    "midi": 78,
                    "time": 175.24797150000143,
                    "velocity": 0.5669291338582677,
                    "duration": 0.2361832500000105
                },
                {
                    "name": "A4",
                    "midi": 69,
                    "time": 175.24797150000143,
                    "velocity": 0.48031496062992124,
                    "duration": 0.2361832500000105
                },
                {
                    "name": "G#5",
                    "midi": 80,
                    "time": 175.48415475000144,
                    "velocity": 0.5354330708661418,
                    "duration": 0.11809162500000525
                },
                {
                    "name": "A5",
                    "midi": 81,
                    "time": 175.60224637500144,
                    "velocity": 0.5354330708661418,
                    "duration": 0.11809162500000525
                },
                {
                    "name": "A4",
                    "midi": 69,
                    "time": 175.72033800000145,
                    "velocity": 0.5984251968503937,
                    "duration": 0.4723664999999926
                },
                {
                    "name": "C#4",
                    "midi": 61,
                    "time": 175.72033800000145,
                    "velocity": 0.5039370078740157,
                    "duration": 0.4723664999999926
                },
                {
                    "name": "E4",
                    "midi": 64,
                    "time": 175.72033800000145,
                    "velocity": 0.5039370078740157,
                    "duration": 0.4723664999999926
                },
                {
                    "name": "E4",
                    "midi": 64,
                    "time": 176.19270450000144,
                    "velocity": 0.4881889763779528,
                    "duration": 0.4723664999999926
                },
                {
                    "name": "C#4",
                    "midi": 61,
                    "time": 176.19270450000144,
                    "velocity": 0.4881889763779528,
                    "duration": 0.4723664999999926
                },
                {
                    "name": "A4",
                    "midi": 69,
                    "time": 176.19270450000144,
                    "velocity": 0.5826771653543307,
                    "duration": 0.4723664999999926
                },
                {
                    "name": "E4",
                    "midi": 64,
                    "time": 176.66507100000143,
                    "velocity": 0.48031496062992124,
                    "duration": 0.4723664999999926
                },
                {
                    "name": "G#4",
                    "midi": 68,
                    "time": 176.66507100000143,
                    "velocity": 0.48031496062992124,
                    "duration": 0.4723664999999926
                },
                {
                    "name": "B4",
                    "midi": 71,
                    "time": 176.66507100000143,
                    "velocity": 0.5669291338582677,
                    "duration": 0.4723664999999926
                },
                {
                    "name": "D4",
                    "midi": 62,
                    "time": 176.66507100000143,
                    "velocity": 0.48031496062992124,
                    "duration": 0.4723664999999926
                },
                {
                    "name": "E4",
                    "midi": 64,
                    "time": 177.13743750000143,
                    "velocity": 0.5039370078740157,
                    "duration": 0.4723664999999926
                },
                {
                    "name": "A4",
                    "midi": 69,
                    "time": 177.13743750000143,
                    "velocity": 0.5984251968503937,
                    "duration": 0.4723664999999926
                },
                {
                    "name": "C#4",
                    "midi": 61,
                    "time": 177.13743750000143,
                    "velocity": 0.5039370078740157,
                    "duration": 0.4723664999999926
                },
                {
                    "name": "D#5",
                    "midi": 75,
                    "time": 178.55453700000143,
                    "velocity": 0.3937007874015748,
                    "duration": 0.2361832500000105
                },
                {
                    "name": "E5",
                    "midi": 76,
                    "time": 178.79072025000144,
                    "velocity": 0.36220472440944884,
                    "duration": 0.1889466000000084
                },
                {
                    "name": "E5",
                    "midi": 76,
                    "time": 179.26308675000146,
                    "velocity": 0.3543307086614173,
                    "duration": 0.2361832500000105
                },
                {
                    "name": "D#5",
                    "midi": 75,
                    "time": 179.49927000000147,
                    "velocity": 0.3543307086614173,
                    "duration": 0.2361832500000105
                },
                {
                    "name": "E5",
                    "midi": 76,
                    "time": 179.73545325000148,
                    "velocity": 0.36220472440944884,
                    "duration": 0.2361832500000105
                },
                {
                    "name": "F5",
                    "midi": 77,
                    "time": 179.9716365000015,
                    "velocity": 0.3937007874015748,
                    "duration": 0.2361832500000105
                },
                {
                    "name": "F#5",
                    "midi": 78,
                    "time": 180.2078197500015,
                    "velocity": 0.36220472440944884,
                    "duration": 0.1889466000000084
                },
                {
                    "name": "F#5",
                    "midi": 78,
                    "time": 180.68018625000153,
                    "velocity": 0.3700787401574803,
                    "duration": 0.2361832500000105
                },
                {
                    "name": "F5",
                    "midi": 77,
                    "time": 180.91636950000154,
                    "velocity": 0.3937007874015748,
                    "duration": 0.2361832500000105
                },
                {
                    "name": "F#5",
                    "midi": 78,
                    "time": 181.15255275000155,
                    "velocity": 0.3779527559055118,
                    "duration": 0.2361832500000105
                },
                {
                    "name": "G#5",
                    "midi": 80,
                    "time": 181.38873600000156,
                    "velocity": 0.4330708661417323,
                    "duration": 0.2361832500000105
                },
                {
                    "name": "A5",
                    "midi": 81,
                    "time": 181.62491925000157,
                    "velocity": 0.3700787401574803,
                    "duration": 0.1889466000000084
                },
                {
                    "name": "G5",
                    "midi": 79,
                    "time": 181.86110250000158,
                    "velocity": 0.4330708661417323,
                    "duration": 0.2361832500000105
                },
                {
                    "name": "G#5",
                    "midi": 80,
                    "time": 182.0972857500016,
                    "velocity": 0.3779527559055118,
                    "duration": 0.1889466000000084
                },
                {
                    "name": "F5",
                    "midi": 77,
                    "time": 182.3334690000016,
                    "velocity": 0.4330708661417323,
                    "duration": 0.2361832500000105
                },
                {
                    "name": "F#5",
                    "midi": 78,
                    "time": 182.5696522500016,
                    "velocity": 0.3700787401574803,
                    "duration": 0.1889466000000084
                },
                {
                    "name": "D#5",
                    "midi": 75,
                    "time": 182.80583550000162,
                    "velocity": 0.4330708661417323,
                    "duration": 0.2361832500000105
                },
                {
                    "name": "E5",
                    "midi": 76,
                    "time": 183.04201875000163,
                    "velocity": 0.36220472440944884,
                    "duration": 0.1889466000000084
                },
                {
                    "name": "E5",
                    "midi": 76,
                    "time": 183.51438525000165,
                    "velocity": 0.4330708661417323,
                    "duration": 0.21256492500000945
                },
                {
                    "name": "E5",
                    "midi": 76,
                    "time": 183.75056850000166,
                    "velocity": 0.44881889763779526,
                    "duration": 0.21256492500000945
                },
                {
                    "name": "E5",
                    "midi": 76,
                    "time": 183.98675175000167,
                    "velocity": 0.4566929133858268,
                    "duration": 0.21256492500000945
                },
                {
                    "name": "E5",
                    "midi": 76,
                    "time": 184.22293500000168,
                    "velocity": 0.5669291338582677,
                    "duration": 0.2361832500000105
                },
                {
                    "name": "C#5",
                    "midi": 73,
                    "time": 184.4591182500017,
                    "velocity": 0.5039370078740157,
                    "duration": 0.2361832500000105
                },
                {
                    "name": "A4",
                    "midi": 69,
                    "time": 184.6953015000017,
                    "velocity": 0.4645669291338583,
                    "duration": 0.2361832500000105
                },
                {
                    "name": "E5",
                    "midi": 76,
                    "time": 184.93148475000172,
                    "velocity": 0.44881889763779526,
                    "duration": 0.21256492500000945
                },
                {
                    "name": "E5",
                    "midi": 76,
                    "time": 185.16766800000173,
                    "velocity": 0.4645669291338583,
                    "duration": 0.21256492500000945
                },
                {
                    "name": "E5",
                    "midi": 76,
                    "time": 185.40385125000174,
                    "velocity": 0.48031496062992124,
                    "duration": 0.21256492500000945
                },
                {
                    "name": "E5",
                    "midi": 76,
                    "time": 185.64003450000175,
                    "velocity": 0.5511811023622047,
                    "duration": 0.2361832500000105
                },
                {
                    "name": "D5",
                    "midi": 74,
                    "time": 185.87621775000176,
                    "velocity": 0.4881889763779528,
                    "duration": 0.2361832500000105
                },
                {
                    "name": "G#4",
                    "midi": 68,
                    "time": 186.11240100000177,
                    "velocity": 0.4566929133858268,
                    "duration": 0.2361832500000105
                },
                {
                    "name": "E5",
                    "midi": 76,
                    "time": 186.34858425000178,
                    "velocity": 0.4645669291338583,
                    "duration": 0.21256492500000945
                },
                {
                    "name": "E5",
                    "midi": 76,
                    "time": 186.5847675000018,
                    "velocity": 0.4881889763779528,
                    "duration": 0.21256492500000945
                },
                {
                    "name": "E5",
                    "midi": 76,
                    "time": 186.8209507500018,
                    "velocity": 0.5039370078740157,
                    "duration": 0.21256492500000945
                },
                {
                    "name": "E5",
                    "midi": 76,
                    "time": 187.0571340000018,
                    "velocity": 0.5433070866141733,
                    "duration": 0.2361832500000105
                },
                {
                    "name": "C#5",
                    "midi": 73,
                    "time": 187.29331725000182,
                    "velocity": 0.49606299212598426,
                    "duration": 0.2361832500000105
                },
                {
                    "name": "A4",
                    "midi": 69,
                    "time": 187.52950050000183,
                    "velocity": 0.3779527559055118,
                    "duration": 0.2361832500000105
                },
                {
                    "name": "E5",
                    "midi": 76,
                    "time": 187.76568375000184,
                    "velocity": 0.4094488188976378,
                    "duration": 0.2361832500000105
                },
                {
                    "name": "C#5",
                    "midi": 73,
                    "time": 188.00186700000185,
                    "velocity": 0.4015748031496063,
                    "duration": 0.2361832500000105
                },
                {
                    "name": "A4",
                    "midi": 69,
                    "time": 188.23805025000186,
                    "velocity": 0.3858267716535433,
                    "duration": 0.2361832500000105
                },
                {
                    "name": "C#5",
                    "midi": 73,
                    "time": 188.47423350000187,
                    "velocity": 0.4015748031496063,
                    "duration": 0.9447330000000136
                },
                {
                    "name": "A4",
                    "midi": 69,
                    "time": 188.47423350000187,
                    "velocity": 0.33858267716535434,
                    "duration": 0.9447330000000136
                },
                {
                    "name": "B4",
                    "midi": 71,
                    "time": 189.4189665000019,
                    "velocity": 0.3700787401574803,
                    "duration": 0.4723664999999926
                },
                {
                    "name": "G#4",
                    "midi": 68,
                    "time": 189.4189665000019,
                    "velocity": 0.30708661417322836,
                    "duration": 0.4723664999999926
                },
                {
                    "name": "C5",
                    "midi": 72,
                    "time": 189.89133300000188,
                    "velocity": 0.3937007874015748,
                    "duration": 0.2361832500000105
                },
                {
                    "name": "C#5",
                    "midi": 73,
                    "time": 190.1275162500019,
                    "velocity": 0.36220472440944884,
                    "duration": 0.1889466000000084
                },
                {
                    "name": "C#5",
                    "midi": 73,
                    "time": 190.5998827500019,
                    "velocity": 0.3543307086614173,
                    "duration": 0.2361832500000105
                },
                {
                    "name": "C5",
                    "midi": 72,
                    "time": 190.83606600000192,
                    "velocity": 0.3543307086614173,
                    "duration": 0.2361832500000105
                },
                {
                    "name": "C#5",
                    "midi": 73,
                    "time": 191.07224925000193,
                    "velocity": 0.36220472440944884,
                    "duration": 0.2361832500000105
                },
                {
                    "name": "D#5",
                    "midi": 75,
                    "time": 191.30843250000194,
                    "velocity": 0.3937007874015748,
                    "duration": 0.2361832500000105
                },
                {
                    "name": "E5",
                    "midi": 76,
                    "time": 191.54461575000195,
                    "velocity": 0.36220472440944884,
                    "duration": 0.1889466000000084
                },
                {
                    "name": "E5",
                    "midi": 76,
                    "time": 192.01698225000197,
                    "velocity": 0.3700787401574803,
                    "duration": 0.2361832500000105
                },
                {
                    "name": "F#5",
                    "midi": 78,
                    "time": 192.25316550000198,
                    "velocity": 0.3937007874015748,
                    "duration": 0.2361832500000105
                },
                {
                    "name": "E5",
                    "midi": 76,
                    "time": 192.489348750002,
                    "velocity": 0.3779527559055118,
                    "duration": 0.17713743749999367
                },
                {
                    "name": "E5",
                    "midi": 76,
                    "time": 192.72553200000198,
                    "velocity": 0.3937007874015748,
                    "duration": 0.2361832500000105
                },
                {
                    "name": "B4",
                    "midi": 71,
                    "time": 192.961715250002,
                    "velocity": 0.3700787401574803,
                    "duration": 0.1889466000000084
                },
                {
                    "name": "B4",
                    "midi": 71,
                    "time": 193.434081750002,
                    "velocity": 0.3779527559055118,
                    "duration": 0.2361832500000105
                },
                {
                    "name": "A#4",
                    "midi": 70,
                    "time": 193.67026500000202,
                    "velocity": 0.3858267716535433,
                    "duration": 0.2361832500000105
                },
                {
                    "name": "B4",
                    "midi": 71,
                    "time": 193.90644825000203,
                    "velocity": 0.3937007874015748,
                    "duration": 0.2361832500000105
                },
                {
                    "name": "C#5",
                    "midi": 73,
                    "time": 194.14263150000204,
                    "velocity": 0.4015748031496063,
                    "duration": 0.2361832500000105
                },
                {
                    "name": "D5",
                    "midi": 74,
                    "time": 194.37881475000205,
                    "velocity": 0.3779527559055118,
                    "duration": 0.1889466000000084
                },
                {
                    "name": "D5",
                    "midi": 74,
                    "time": 194.85118125000207,
                    "velocity": 0.3858267716535433,
                    "duration": 0.2361832500000105
                },
                {
                    "name": "E5",
                    "midi": 76,
                    "time": 195.08736450000208,
                    "velocity": 0.4094488188976378,
                    "duration": 0.2361832500000105
                },
                {
                    "name": "D5",
                    "midi": 74,
                    "time": 195.3235477500021,
                    "velocity": 0.3937007874015748,
                    "duration": 0.17713743749999367
                },
                {
                    "name": "D5",
                    "midi": 74,
                    "time": 195.55973100000207,
                    "velocity": 0.41732283464566927,
                    "duration": 0.2361832500000105
                },
                {
                    "name": "A4",
                    "midi": 69,
                    "time": 195.79591425000208,
                    "velocity": 0.3700787401574803,
                    "duration": 0.1889466000000084
                },
                {
                    "name": "A4",
                    "midi": 69,
                    "time": 196.2682807500021,
                    "velocity": 0.4015748031496063,
                    "duration": 0.2361832500000105
                },
                {
                    "name": "C#5",
                    "midi": 73,
                    "time": 196.50446400000212,
                    "velocity": 0.4094488188976378,
                    "duration": 0.2361832500000105
                },
                {
                    "name": "B4",
                    "midi": 71,
                    "time": 196.74064725000213,
                    "velocity": 0.4094488188976378,
                    "duration": 0.2361832500000105
                },
                {
                    "name": "D5",
                    "midi": 74,
                    "time": 196.97683050000214,
                    "velocity": 0.44881889763779526,
                    "duration": 0.2361832500000105
                },
                {
                    "name": "C#5",
                    "midi": 73,
                    "time": 197.21301375000215,
                    "velocity": 0.3937007874015748,
                    "duration": 0.1889466000000084
                },
                {
                    "name": "C#5",
                    "midi": 73,
                    "time": 197.68538025000217,
                    "velocity": 0.4094488188976378,
                    "duration": 0.2361832500000105
                },
                {
                    "name": "E5",
                    "midi": 76,
                    "time": 197.92156350000218,
                    "velocity": 0.44881889763779526,
                    "duration": 0.2361832500000105
                },
                {
                    "name": "D5",
                    "midi": 74,
                    "time": 198.1577467500022,
                    "velocity": 0.4251968503937008,
                    "duration": 0.2361832500000105
                },
                {
                    "name": "C5",
                    "midi": 72,
                    "time": 198.3939300000022,
                    "velocity": 0.47244094488188976,
                    "duration": 0.2361832500000105
                },
                {
                    "name": "C#5",
                    "midi": 73,
                    "time": 198.6301132500022,
                    "velocity": 0.4251968503937008,
                    "duration": 0.1889466000000084
                },
                {
                    "name": "C#5",
                    "midi": 73,
                    "time": 199.10247975000223,
                    "velocity": 0.4330708661417323,
                    "duration": 0.2361832500000105
                },
                {
                    "name": "D5",
                    "midi": 74,
                    "time": 199.33866300000224,
                    "velocity": 0.4645669291338583,
                    "duration": 0.2361832500000105
                },
                {
                    "name": "B4",
                    "midi": 71,
                    "time": 199.57484625000225,
                    "velocity": 0.4251968503937008,
                    "duration": 0.2361832500000105
                },
                {
                    "name": "B4",
                    "midi": 71,
                    "time": 199.81102950000226,
                    "velocity": 0.47244094488188976,
                    "duration": 0.7085497500000031
                },
                {
                    "name": "G#4",
                    "midi": 68,
                    "time": 199.81102950000226,
                    "velocity": 0.3779527559055118,
                    "duration": 0.9447330000000136
                },
                {
                    "name": "C5",
                    "midi": 72,
                    "time": 200.51957925000227,
                    "velocity": 0.4645669291338583,
                    "duration": 0.2361832500000105
                },
                {
                    "name": "A4",
                    "midi": 69,
                    "time": 200.75576250000228,
                    "velocity": 0.4015748031496063,
                    "duration": 0.4723664999999926
                },
                {
                    "name": "C#5",
                    "midi": 73,
                    "time": 200.75576250000228,
                    "velocity": 0.5039370078740157,
                    "duration": 0.4723664999999926
                },
                {
                    "name": "C#5",
                    "midi": 73,
                    "time": 201.22812900000227,
                    "velocity": 0.5984251968503937,
                    "duration": 0.35427487499998733
                },
                {
                    "name": "E4",
                    "midi": 64,
                    "time": 201.22812900000227,
                    "velocity": 0.5039370078740157,
                    "duration": 0.35427487499998733
                },
                {
                    "name": "A4",
                    "midi": 69,
                    "time": 201.22812900000227,
                    "velocity": 0.5039370078740157,
                    "duration": 0.35427487499998733
                },
                {
                    "name": "A4",
                    "midi": 69,
                    "time": 201.70049550000226,
                    "velocity": 0.5039370078740157,
                    "duration": 0.35427487499998733
                },
                {
                    "name": "E4",
                    "midi": 64,
                    "time": 201.70049550000226,
                    "velocity": 0.5039370078740157,
                    "duration": 0.35427487499998733
                },
                {
                    "name": "C#5",
                    "midi": 73,
                    "time": 201.70049550000226,
                    "velocity": 0.5984251968503937,
                    "duration": 0.35427487499998733
                },
                {
                    "name": "D5",
                    "midi": 74,
                    "time": 202.17286200000225,
                    "velocity": 0.5590551181102362,
                    "duration": 0.35427487499998733
                },
                {
                    "name": "E4",
                    "midi": 64,
                    "time": 202.17286200000225,
                    "velocity": 0.47244094488188976,
                    "duration": 0.35427487499998733
                },
                {
                    "name": "G#4",
                    "midi": 68,
                    "time": 202.17286200000225,
                    "velocity": 0.47244094488188976,
                    "duration": 0.35427487499998733
                },
                {
                    "name": "A4",
                    "midi": 69,
                    "time": 202.64522850000225,
                    "velocity": 0.49606299212598426,
                    "duration": 0.35427487499998733
                },
                {
                    "name": "E5",
                    "midi": 76,
                    "time": 202.64522850000225,
                    "velocity": 0.5905511811023622,
                    "duration": 0.35427487499998733
                },
                {
                    "name": "E4",
                    "midi": 64,
                    "time": 202.64522850000225,
                    "velocity": 0.49606299212598426,
                    "duration": 0.35427487499998733
                },
                {
                    "name": "E5",
                    "midi": 76,
                    "time": 203.11759500000224,
                    "velocity": 0.5354330708661418,
                    "duration": 0.35427487499998733
                },
                {
                    "name": "A4",
                    "midi": 69,
                    "time": 203.11759500000224,
                    "velocity": 0.44881889763779526,
                    "duration": 0.35427487499998733
                },
                {
                    "name": "F#5",
                    "midi": 78,
                    "time": 203.58996150000223,
                    "velocity": 0.5669291338582677,
                    "duration": 0.2361832500000105
                },
                {
                    "name": "A4",
                    "midi": 69,
                    "time": 203.58996150000223,
                    "velocity": 0.48031496062992124,
                    "duration": 0.2361832500000105
                },
                {
                    "name": "G#5",
                    "midi": 80,
                    "time": 203.82614475000224,
                    "velocity": 0.5354330708661418,
                    "duration": 0.11809162500000525
                },
                {
                    "name": "A5",
                    "midi": 81,
                    "time": 203.94423637500225,
                    "velocity": 0.5354330708661418,
                    "duration": 0.11809162500000525
                },
                {
                    "name": "A4",
                    "midi": 69,
                    "time": 204.06232800000225,
                    "velocity": 0.5984251968503937,
                    "duration": 0.4723664999999926
                },
                {
                    "name": "E4",
                    "midi": 64,
                    "time": 204.06232800000225,
                    "velocity": 0.5039370078740157,
                    "duration": 0.4723664999999926
                },
                {
                    "name": "C#4",
                    "midi": 61,
                    "time": 204.06232800000225,
                    "velocity": 0.5039370078740157,
                    "duration": 0.4723664999999926
                },
                {
                    "name": "E4",
                    "midi": 64,
                    "time": 204.53469450000225,
                    "velocity": 0.4881889763779528,
                    "duration": 0.4723664999999926
                },
                {
                    "name": "A4",
                    "midi": 69,
                    "time": 204.53469450000225,
                    "velocity": 0.5826771653543307,
                    "duration": 0.4723664999999926
                },
                {
                    "name": "C#4",
                    "midi": 61,
                    "time": 204.53469450000225,
                    "velocity": 0.4881889763779528,
                    "duration": 0.4723664999999926
                },
                {
                    "name": "E4",
                    "midi": 64,
                    "time": 205.00706100000224,
                    "velocity": 0.48031496062992124,
                    "duration": 0.4723664999999926
                },
                {
                    "name": "B4",
                    "midi": 71,
                    "time": 205.00706100000224,
                    "velocity": 0.5669291338582677,
                    "duration": 0.4723664999999926
                },
                {
                    "name": "G#4",
                    "midi": 68,
                    "time": 205.00706100000224,
                    "velocity": 0.48031496062992124,
                    "duration": 0.4723664999999926
                },
                {
                    "name": "D4",
                    "midi": 62,
                    "time": 205.00706100000224,
                    "velocity": 0.48031496062992124,
                    "duration": 0.4723664999999926
                },
                {
                    "name": "A4",
                    "midi": 69,
                    "time": 205.47942750000223,
                    "velocity": 0.5984251968503937,
                    "duration": 0.4723664999999926
                },
                {
                    "name": "E4",
                    "midi": 64,
                    "time": 205.47942750000223,
                    "velocity": 0.5039370078740157,
                    "duration": 0.4723664999999926
                },
                {
                    "name": "C#4",
                    "midi": 61,
                    "time": 205.47942750000223,
                    "velocity": 0.5039370078740157,
                    "duration": 0.4723664999999926
                },
                {
                    "name": "C#5",
                    "midi": 73,
                    "time": 209.73072600000222,
                    "velocity": 0.41732283464566927,
                    "duration": 0.11809162500000525
                },
                {
                    "name": "C#5",
                    "midi": 73,
                    "time": 210.2030925000022,
                    "velocity": 0.3858267716535433,
                    "duration": 0.11809162500000525
                },
                {
                    "name": "D5",
                    "midi": 74,
                    "time": 210.6754590000022,
                    "velocity": 0.3858267716535433,
                    "duration": 0.07872775000001297
                },
                {
                    "name": "E5",
                    "midi": 76,
                    "time": 210.75418675000222,
                    "velocity": 0.3700787401574803,
                    "duration": 0.07872775000001297
                },
                {
                    "name": "D5",
                    "midi": 74,
                    "time": 210.83291450000223,
                    "velocity": 0.3700787401574803,
                    "duration": 0.07872775000001297
                },
                {
                    "name": "C#5",
                    "midi": 73,
                    "time": 210.91164225000225,
                    "velocity": 0.3858267716535433,
                    "duration": 0.11809162500000525
                },
                {
                    "name": "D5",
                    "midi": 74,
                    "time": 211.02973387500225,
                    "velocity": 0.3858267716535433,
                    "duration": 0.11809162500000525
                },
                {
                    "name": "E5",
                    "midi": 76,
                    "time": 211.14782550000226,
                    "velocity": 0.41732283464566927,
                    "duration": 0.4723664999999926
                },
                {
                    "name": "F#5",
                    "midi": 78,
                    "time": 212.09255850000224,
                    "velocity": 0.41732283464566927,
                    "duration": 0.12990078749999157
                },
                {
                    "name": "E5",
                    "midi": 76,
                    "time": 212.21065012500225,
                    "velocity": 0.4094488188976378,
                    "duration": 0.12990078749996314
                },
                {
                    "name": "D5",
                    "midi": 74,
                    "time": 212.32874175000222,
                    "velocity": 0.4015748031496063,
                    "duration": 0.12990078749996314
                },
                {
                    "name": "C#5",
                    "midi": 73,
                    "time": 212.4468333750022,
                    "velocity": 0.3858267716535433,
                    "duration": 0.12990078749996314
                },
                {
                    "name": "B4",
                    "midi": 71,
                    "time": 212.56492500000218,
                    "velocity": 0.41732283464566927,
                    "duration": 0.11809162499997683
                },
                {
                    "name": "B4",
                    "midi": 71,
                    "time": 213.03729150000214,
                    "velocity": 0.3858267716535433,
                    "duration": 0.11809162500000525
                },
                {
                    "name": "C#5",
                    "midi": 73,
                    "time": 213.50965800000213,
                    "velocity": 0.3858267716535433,
                    "duration": 0.07872775000001297
                },
                {
                    "name": "D5",
                    "midi": 74,
                    "time": 213.58838575000215,
                    "velocity": 0.3700787401574803,
                    "duration": 0.07872775000001297
                },
                {
                    "name": "C#5",
                    "midi": 73,
                    "time": 213.66711350000216,
                    "velocity": 0.3700787401574803,
                    "duration": 0.07872775000001297
                },
                {
                    "name": "B4",
                    "midi": 71,
                    "time": 213.74584125000217,
                    "velocity": 0.3858267716535433,
                    "duration": 0.11809162500000525
                },
                {
                    "name": "C#5",
                    "midi": 73,
                    "time": 213.86393287500218,
                    "velocity": 0.3858267716535433,
                    "duration": 0.11809162500000525
                },
                {
                    "name": "D5",
                    "midi": 74,
                    "time": 213.98202450000218,
                    "velocity": 0.41732283464566927,
                    "duration": 0.4723664999999926
                },
                {
                    "name": "E5",
                    "midi": 76,
                    "time": 214.92675750000217,
                    "velocity": 0.41732283464566927,
                    "duration": 0.12990078749999157
                },
                {
                    "name": "D5",
                    "midi": 74,
                    "time": 215.04484912500217,
                    "velocity": 0.4094488188976378,
                    "duration": 0.12990078749996314
                },
                {
                    "name": "C#5",
                    "midi": 73,
                    "time": 215.16294075000215,
                    "velocity": 0.4015748031496063,
                    "duration": 0.12990078749996314
                },
                {
                    "name": "B4",
                    "midi": 71,
                    "time": 215.28103237500213,
                    "velocity": 0.3858267716535433,
                    "duration": 0.12990078749996314
                },
                {
                    "name": "A4",
                    "midi": 69,
                    "time": 215.3991240000021,
                    "velocity": 0.41732283464566927,
                    "duration": 0.11809162499997683
                },
                {
                    "name": "A4",
                    "midi": 69,
                    "time": 215.87149050000207,
                    "velocity": 0.3858267716535433,
                    "duration": 0.11809162500000525
                },
                {
                    "name": "A4",
                    "midi": 69,
                    "time": 216.34385700000206,
                    "velocity": 0.3858267716535433,
                    "duration": 0.07872775000001297
                },
                {
                    "name": "B4",
                    "midi": 71,
                    "time": 216.42258475000207,
                    "velocity": 0.3700787401574803,
                    "duration": 0.07872775000001297
                },
                {
                    "name": "A4",
                    "midi": 69,
                    "time": 216.5013125000021,
                    "velocity": 0.3700787401574803,
                    "duration": 0.07872775000001297
                },
                {
                    "name": "G#4",
                    "midi": 68,
                    "time": 216.5800402500021,
                    "velocity": 0.3858267716535433,
                    "duration": 0.11809162500000525
                },
                {
                    "name": "A4",
                    "midi": 69,
                    "time": 216.6981318750021,
                    "velocity": 0.3858267716535433,
                    "duration": 0.11809162500000525
                },
                {
                    "name": "B4",
                    "midi": 71,
                    "time": 216.8162235000021,
                    "velocity": 0.41732283464566927,
                    "duration": 0.11809162500000525
                },
                {
                    "name": "B4",
                    "midi": 71,
                    "time": 217.2885900000021,
                    "velocity": 0.3858267716535433,
                    "duration": 0.11809162500000525
                },
                {
                    "name": "B4",
                    "midi": 71,
                    "time": 217.7609565000021,
                    "velocity": 0.3858267716535433,
                    "duration": 0.07872775000001297
                },
                {
                    "name": "C#5",
                    "midi": 73,
                    "time": 217.8396842500021,
                    "velocity": 0.3700787401574803,
                    "duration": 0.07872775000001297
                },
                {
                    "name": "B4",
                    "midi": 71,
                    "time": 217.91841200000212,
                    "velocity": 0.3700787401574803,
                    "duration": 0.07872775000001297
                },
                {
                    "name": "A4",
                    "midi": 69,
                    "time": 217.99713975000213,
                    "velocity": 0.3858267716535433,
                    "duration": 0.11809162500000525
                },
                {
                    "name": "B4",
                    "midi": 71,
                    "time": 218.11523137500214,
                    "velocity": 0.3858267716535433,
                    "duration": 0.11809162500000525
                },
                {
                    "name": "C#5",
                    "midi": 73,
                    "time": 218.23332300000214,
                    "velocity": 0.4566929133858268,
                    "duration": 0.11809162500000525
                },
                {
                    "name": "C#5",
                    "midi": 73,
                    "time": 218.70568950000214,
                    "velocity": 0.4251968503937008,
                    "duration": 0.11809162500000525
                },
                {
                    "name": "B4",
                    "midi": 71,
                    "time": 219.17805600000213,
                    "velocity": 0.48031496062992124,
                    "duration": 0.4723664999999926
                },
                {
                    "name": "E5",
                    "midi": 76,
                    "time": 219.17805600000213,
                    "velocity": 0.48031496062992124,
                    "duration": 0.11809162500000525
                },
                {
                    "name": "D5",
                    "midi": 74,
                    "time": 219.29614762500213,
                    "velocity": 0.4015748031496063,
                    "duration": 0.35427487499998733
                },
                {
                    "name": "A4",
                    "midi": 69,
                    "time": 219.65042250000212,
                    "velocity": 0.4330708661417323,
                    "duration": 0.9447330000000136
                },
                {
                    "name": "C#5",
                    "midi": 73,
                    "time": 219.65042250000212,
                    "velocity": 0.4330708661417323,
                    "duration": 0.9447330000000136
                },
                {
                    "name": "B4",
                    "midi": 71,
                    "time": 220.59515550000214,
                    "velocity": 0.41732283464566927,
                    "duration": 0.4723664999999926
                },
                {
                    "name": "G#4",
                    "midi": 68,
                    "time": 220.59515550000214,
                    "velocity": 0.41732283464566927,
                    "duration": 0.4723664999999926
                },
                {
                    "name": "C#5",
                    "midi": 73,
                    "time": 221.06752200000213,
                    "velocity": 0.5826771653543307,
                    "duration": 0.1889466000000084
                },
                {
                    "name": "A4",
                    "midi": 69,
                    "time": 221.22497750000213,
                    "velocity": 0.41732283464566927,
                    "duration": 0.1889466000000084
                },
                {
                    "name": "E4",
                    "midi": 64,
                    "time": 221.38243300000212,
                    "velocity": 0.41732283464566927,
                    "duration": 0.15745549999999753
                },
                {
                    "name": "C#5",
                    "midi": 73,
                    "time": 221.53988850000212,
                    "velocity": 0.5669291338582677,
                    "duration": 0.1889466000000084
                },
                {
                    "name": "A4",
                    "midi": 69,
                    "time": 221.69734400000212,
                    "velocity": 0.41732283464566927,
                    "duration": 0.1889466000000084
                },
                {
                    "name": "E4",
                    "midi": 64,
                    "time": 221.85479950000212,
                    "velocity": 0.41732283464566927,
                    "duration": 0.15745549999999753
                },
                {
                    "name": "D5",
                    "midi": 74,
                    "time": 222.0122550000021,
                    "velocity": 0.5590551181102362,
                    "duration": 0.1889466000000084
                },
                {
                    "name": "B4",
                    "midi": 71,
                    "time": 222.1697105000021,
                    "velocity": 0.41732283464566927,
                    "duration": 0.1889466000000084
                },
                {
                    "name": "E4",
                    "midi": 64,
                    "time": 222.3271660000021,
                    "velocity": 0.41732283464566927,
                    "duration": 0.15745549999999753
                },
                {
                    "name": "E5",
                    "midi": 76,
                    "time": 222.4846215000021,
                    "velocity": 0.5511811023622047,
                    "duration": 0.1889466000000084
                },
                {
                    "name": "C#5",
                    "midi": 73,
                    "time": 222.6420770000021,
                    "velocity": 0.41732283464566927,
                    "duration": 0.1889466000000084
                },
                {
                    "name": "E4",
                    "midi": 64,
                    "time": 222.7995325000021,
                    "velocity": 0.41732283464566927,
                    "duration": 0.15745549999999753
                },
                {
                    "name": "E5",
                    "midi": 76,
                    "time": 222.9569880000021,
                    "velocity": 0.5590551181102362,
                    "duration": 0.1889466000000084
                },
                {
                    "name": "C#5",
                    "midi": 73,
                    "time": 223.1144435000021,
                    "velocity": 0.41732283464566927,
                    "duration": 0.1889466000000084
                },
                {
                    "name": "E4",
                    "midi": 64,
                    "time": 223.2718990000021,
                    "velocity": 0.41732283464566927,
                    "duration": 0.15745549999999753
                },
                {
                    "name": "F#5",
                    "midi": 78,
                    "time": 223.4293545000021,
                    "velocity": 0.5354330708661418,
                    "duration": 0.11809162500000525
                },
                {
                    "name": "E5",
                    "midi": 76,
                    "time": 223.5474461250021,
                    "velocity": 0.5196850393700787,
                    "duration": 0.11809162500000525
                },
                {
                    "name": "D5",
                    "midi": 74,
                    "time": 223.6655377500021,
                    "velocity": 0.5039370078740157,
                    "duration": 0.11809162500000525
                },
                {
                    "name": "C#5",
                    "midi": 73,
                    "time": 223.7836293750021,
                    "velocity": 0.4881889763779528,
                    "duration": 0.11809162500000525
                },
                {
                    "name": "B4",
                    "midi": 71,
                    "time": 223.9017210000021,
                    "velocity": 0.5826771653543307,
                    "duration": 0.1889466000000084
                },
                {
                    "name": "G#4",
                    "midi": 68,
                    "time": 224.0591765000021,
                    "velocity": 0.41732283464566927,
                    "duration": 0.1889466000000084
                },
                {
                    "name": "E4",
                    "midi": 64,
                    "time": 224.2166320000021,
                    "velocity": 0.41732283464566927,
                    "duration": 0.15745549999999753
                },
                {
                    "name": "B4",
                    "midi": 71,
                    "time": 224.3740875000021,
                    "velocity": 0.5669291338582677,
                    "duration": 0.1889466000000084
                },
                {
                    "name": "G#4",
                    "midi": 68,
                    "time": 224.5315430000021,
                    "velocity": 0.41732283464566927,
                    "duration": 0.1889466000000084
                },
                {
                    "name": "E4",
                    "midi": 64,
                    "time": 224.6889985000021,
                    "velocity": 0.41732283464566927,
                    "duration": 0.15745549999999753
                },
                {
                    "name": "C#5",
                    "midi": 73,
                    "time": 224.8464540000021,
                    "velocity": 0.5590551181102362,
                    "duration": 0.1889466000000084
                },
                {
                    "name": "A4",
                    "midi": 69,
                    "time": 225.0039095000021,
                    "velocity": 0.41732283464566927,
                    "duration": 0.1889466000000084
                },
                {
                    "name": "E4",
                    "midi": 64,
                    "time": 225.1613650000021,
                    "velocity": 0.41732283464566927,
                    "duration": 0.15745549999999753
                },
                {
                    "name": "D5",
                    "midi": 74,
                    "time": 225.3188205000021,
                    "velocity": 0.5511811023622047,
                    "duration": 0.1889466000000084
                },
                {
                    "name": "B4",
                    "midi": 71,
                    "time": 225.4762760000021,
                    "velocity": 0.41732283464566927,
                    "duration": 0.1889466000000084
                },
                {
                    "name": "E4",
                    "midi": 64,
                    "time": 225.63373150000209,
                    "velocity": 0.41732283464566927,
                    "duration": 0.15745549999999753
                },
                {
                    "name": "D5",
                    "midi": 74,
                    "time": 225.79118700000208,
                    "velocity": 0.5590551181102362,
                    "duration": 0.1889466000000084
                },
                {
                    "name": "B4",
                    "midi": 71,
                    "time": 225.94864250000208,
                    "velocity": 0.41732283464566927,
                    "duration": 0.1889466000000084
                },
                {
                    "name": "E4",
                    "midi": 64,
                    "time": 226.10609800000208,
                    "velocity": 0.41732283464566927,
                    "duration": 0.15745549999999753
                },
                {
                    "name": "E5",
                    "midi": 76,
                    "time": 226.26355350000208,
                    "velocity": 0.5354330708661418,
                    "duration": 0.11809162500000525
                },
                {
                    "name": "D5",
                    "midi": 74,
                    "time": 226.38164512500208,
                    "velocity": 0.5196850393700787,
                    "duration": 0.11809162500000525
                },
                {
                    "name": "C#5",
                    "midi": 73,
                    "time": 226.49973675000209,
                    "velocity": 0.5039370078740157,
                    "duration": 0.11809162500000525
                },
                {
                    "name": "B4",
                    "midi": 71,
                    "time": 226.6178283750021,
                    "velocity": 0.4881889763779528,
                    "duration": 0.11809162500000525
                },
                {
                    "name": "A4",
                    "midi": 69,
                    "time": 226.7359200000021,
                    "velocity": 0.5826771653543307,
                    "duration": 0.1889466000000084
                },
                {
                    "name": "E4",
                    "midi": 64,
                    "time": 226.8933755000021,
                    "velocity": 0.41732283464566927,
                    "duration": 0.1889466000000084
                },
                {
                    "name": "C#4",
                    "midi": 61,
                    "time": 227.0508310000021,
                    "velocity": 0.41732283464566927,
                    "duration": 0.15745549999999753
                },
                {
                    "name": "A4",
                    "midi": 69,
                    "time": 227.2082865000021,
                    "velocity": 0.5669291338582677,
                    "duration": 0.1889466000000084
                },
                {
                    "name": "E4",
                    "midi": 64,
                    "time": 227.3657420000021,
                    "velocity": 0.41732283464566927,
                    "duration": 0.1889466000000084
                },
                {
                    "name": "C#4",
                    "midi": 61,
                    "time": 227.52319750000208,
                    "velocity": 0.41732283464566927,
                    "duration": 0.15745549999999753
                },
                {
                    "name": "B4",
                    "midi": 71,
                    "time": 227.68065300000208,
                    "velocity": 0.5590551181102362,
                    "duration": 0.1889466000000084
                },
                {
                    "name": "E4",
                    "midi": 64,
                    "time": 227.83810850000208,
                    "velocity": 0.41732283464566927,
                    "duration": 0.1889466000000084
                },
                {
                    "name": "D4",
                    "midi": 62,
                    "time": 227.99556400000208,
                    "velocity": 0.41732283464566927,
                    "duration": 0.15745549999999753
                },
                {
                    "name": "C#5",
                    "midi": 73,
                    "time": 228.15301950000207,
                    "velocity": 0.5826771653543307,
                    "duration": 0.1889466000000084
                },
                {
                    "name": "A4",
                    "midi": 69,
                    "time": 228.31047500000207,
                    "velocity": 0.41732283464566927,
                    "duration": 0.1889466000000084
                },
                {
                    "name": "E4",
                    "midi": 64,
                    "time": 228.46793050000207,
                    "velocity": 0.41732283464566927,
                    "duration": 0.15745549999999753
                },
                {
                    "name": "C#5",
                    "midi": 73,
                    "time": 228.62538600000207,
                    "velocity": 0.5669291338582677,
                    "duration": 0.1889466000000084
                },
                {
                    "name": "A4",
                    "midi": 69,
                    "time": 228.78284150000206,
                    "velocity": 0.41732283464566927,
                    "duration": 0.1889466000000084
                },
                {
                    "name": "E4",
                    "midi": 64,
                    "time": 228.94029700000206,
                    "velocity": 0.41732283464566927,
                    "duration": 0.15745549999999753
                },
                {
                    "name": "D5",
                    "midi": 74,
                    "time": 229.09775250000206,
                    "velocity": 0.5590551181102362,
                    "duration": 0.1889466000000084
                },
                {
                    "name": "B4",
                    "midi": 71,
                    "time": 229.25520800000206,
                    "velocity": 0.41732283464566927,
                    "duration": 0.1889466000000084
                },
                {
                    "name": "F#4",
                    "midi": 66,
                    "time": 229.41266350000205,
                    "velocity": 0.41732283464566927,
                    "duration": 0.15745549999999753
                },
                {
                    "name": "C#5",
                    "midi": 73,
                    "time": 229.57011900000205,
                    "velocity": 0.5826771653543307,
                    "duration": 0.1889466000000084
                },
                {
                    "name": "A4",
                    "midi": 69,
                    "time": 229.72757450000205,
                    "velocity": 0.41732283464566927,
                    "duration": 0.1889466000000084
                },
                {
                    "name": "E4",
                    "midi": 64,
                    "time": 229.88503000000205,
                    "velocity": 0.41732283464566927,
                    "duration": 0.15745549999999753
                },
                {
                    "name": "C#5",
                    "midi": 73,
                    "time": 230.04248550000204,
                    "velocity": 0.5669291338582677,
                    "duration": 0.1889466000000084
                },
                {
                    "name": "A4",
                    "midi": 69,
                    "time": 230.19994100000204,
                    "velocity": 0.41732283464566927,
                    "duration": 0.1889466000000084
                },
                {
                    "name": "E4",
                    "midi": 64,
                    "time": 230.35739650000204,
                    "velocity": 0.41732283464566927,
                    "duration": 0.15745549999999753
                },
                {
                    "name": "B4",
                    "midi": 71,
                    "time": 230.51485200000204,
                    "velocity": 0.5590551181102362,
                    "duration": 0.1889466000000084
                },
                {
                    "name": "G#4",
                    "midi": 68,
                    "time": 230.67230750000203,
                    "velocity": 0.41732283464566927,
                    "duration": 0.1889466000000084
                },
                {
                    "name": "D4",
                    "midi": 62,
                    "time": 230.82976300000203,
                    "velocity": 0.41732283464566927,
                    "duration": 0.15745549999999753
                },
                {
                    "name": "A4",
                    "midi": 69,
                    "time": 230.98721850000203,
                    "velocity": 0.5826771653543307,
                    "duration": 0.1889466000000084
                },
                {
                    "name": "E4",
                    "midi": 64,
                    "time": 231.14467400000203,
                    "velocity": 0.41732283464566927,
                    "duration": 0.1889466000000084
                },
                {
                    "name": "C#4",
                    "midi": 61,
                    "time": 231.30212950000202,
                    "velocity": 0.41732283464566927,
                    "duration": 0.1889466000000084
                },
                {
                    "name": "A3",
                    "midi": 57,
                    "time": 231.45958500000202,
                    "velocity": 0.5669291338582677,
                    "duration": 0.2361832500000105
                },
                {
                    "name": "C#5",
                    "midi": 73,
                    "time": 232.40431800000204,
                    "velocity": 0.41732283464566927,
                    "duration": 0.11809162500000525
                },
                {
                    "name": "C#5",
                    "midi": 73,
                    "time": 232.87668450000203,
                    "velocity": 0.3858267716535433,
                    "duration": 0.11809162500000525
                },
                {
                    "name": "D5",
                    "midi": 74,
                    "time": 233.34905100000202,
                    "velocity": 0.3858267716535433,
                    "duration": 0.07872775000001297
                },
                {
                    "name": "E5",
                    "midi": 76,
                    "time": 233.42777875000203,
                    "velocity": 0.3700787401574803,
                    "duration": 0.07872775000001297
                },
                {
                    "name": "D5",
                    "midi": 74,
                    "time": 233.50650650000205,
                    "velocity": 0.3700787401574803,
                    "duration": 0.07872775000001297
                },
                {
                    "name": "C#5",
                    "midi": 73,
                    "time": 233.58523425000206,
                    "velocity": 0.3858267716535433,
                    "duration": 0.11809162500000525
                },
                {
                    "name": "D5",
                    "midi": 74,
                    "time": 233.70332587500207,
                    "velocity": 0.3858267716535433,
                    "duration": 0.11809162500000525
                },
                {
                    "name": "E5",
                    "midi": 76,
                    "time": 233.82141750000207,
                    "velocity": 0.41732283464566927,
                    "duration": 0.4723664999999926
                },
                {
                    "name": "F#5",
                    "midi": 78,
                    "time": 234.76615050000206,
                    "velocity": 0.41732283464566927,
                    "duration": 0.12990078749999157
                },
                {
                    "name": "E5",
                    "midi": 76,
                    "time": 234.88424212500206,
                    "velocity": 0.4094488188976378,
                    "duration": 0.12990078749996314
                },
                {
                    "name": "D5",
                    "midi": 74,
                    "time": 235.00233375000204,
                    "velocity": 0.4015748031496063,
                    "duration": 0.12990078749996314
                },
                {
                    "name": "C#5",
                    "midi": 73,
                    "time": 235.12042537500201,
                    "velocity": 0.3858267716535433,
                    "duration": 0.12990078749996314
                },
                {
                    "name": "B4",
                    "midi": 71,
                    "time": 235.238517000002,
                    "velocity": 0.41732283464566927,
                    "duration": 0.11809162499997683
                },
                {
                    "name": "B4",
                    "midi": 71,
                    "time": 235.71088350000196,
                    "velocity": 0.3858267716535433,
                    "duration": 0.11809162500000525
                },
                {
                    "name": "C#5",
                    "midi": 73,
                    "time": 236.18325000000195,
                    "velocity": 0.3858267716535433,
                    "duration": 0.07872775000001297
                },
                {
                    "name": "D5",
                    "midi": 74,
                    "time": 236.26197775000196,
                    "velocity": 0.3700787401574803,
                    "duration": 0.07872775000001297
                },
                {
                    "name": "C#5",
                    "midi": 73,
                    "time": 236.34070550000197,
                    "velocity": 0.3700787401574803,
                    "duration": 0.07872775000001297
                },
                {
                    "name": "B4",
                    "midi": 71,
                    "time": 236.419433250002,
                    "velocity": 0.3858267716535433,
                    "duration": 0.11809162500000525
                },
                {
                    "name": "C#5",
                    "midi": 73,
                    "time": 236.537524875002,
                    "velocity": 0.3858267716535433,
                    "duration": 0.11809162500000525
                },
                {
                    "name": "D5",
                    "midi": 74,
                    "time": 236.655616500002,
                    "velocity": 0.41732283464566927,
                    "duration": 0.4723664999999926
                },
                {
                    "name": "E5",
                    "midi": 76,
                    "time": 237.60034950000198,
                    "velocity": 0.41732283464566927,
                    "duration": 0.12990078749999157
                },
                {
                    "name": "D5",
                    "midi": 74,
                    "time": 237.718441125002,
                    "velocity": 0.4094488188976378,
                    "duration": 0.12990078749996314
                },
                {
                    "name": "C#5",
                    "midi": 73,
                    "time": 237.83653275000196,
                    "velocity": 0.4015748031496063,
                    "duration": 0.12990078749996314
                },
                {
                    "name": "B4",
                    "midi": 71,
                    "time": 237.95462437500194,
                    "velocity": 0.3858267716535433,
                    "duration": 0.12990078749996314
                },
                {
                    "name": "A4",
                    "midi": 69,
                    "time": 238.07271600000192,
                    "velocity": 0.41732283464566927,
                    "duration": 0.11809162499997683
                },
                {
                    "name": "A4",
                    "midi": 69,
                    "time": 238.54508250000188,
                    "velocity": 0.3858267716535433,
                    "duration": 0.11809162500000525
                },
                {
                    "name": "A4",
                    "midi": 69,
                    "time": 239.01744900000187,
                    "velocity": 0.3858267716535433,
                    "duration": 0.07872775000001297
                },
                {
                    "name": "B4",
                    "midi": 71,
                    "time": 239.0961767500019,
                    "velocity": 0.3700787401574803,
                    "duration": 0.07872775000001297
                },
                {
                    "name": "A4",
                    "midi": 69,
                    "time": 239.1749045000019,
                    "velocity": 0.3700787401574803,
                    "duration": 0.07872775000001297
                },
                {
                    "name": "G#4",
                    "midi": 68,
                    "time": 239.2536322500019,
                    "velocity": 0.3858267716535433,
                    "duration": 0.11809162500000525
                },
                {
                    "name": "A4",
                    "midi": 69,
                    "time": 239.37172387500192,
                    "velocity": 0.3858267716535433,
                    "duration": 0.11809162500000525
                },
                {
                    "name": "B4",
                    "midi": 71,
                    "time": 239.48981550000192,
                    "velocity": 0.41732283464566927,
                    "duration": 0.11809162500000525
                },
                {
                    "name": "B4",
                    "midi": 71,
                    "time": 239.96218200000192,
                    "velocity": 0.3858267716535433,
                    "duration": 0.11809162500000525
                },
                {
                    "name": "B4",
                    "midi": 71,
                    "time": 240.4345485000019,
                    "velocity": 0.3858267716535433,
                    "duration": 0.07872775000001297
                },
                {
                    "name": "C#5",
                    "midi": 73,
                    "time": 240.51327625000192,
                    "velocity": 0.3700787401574803,
                    "duration": 0.07872775000001297
                },
                {
                    "name": "B4",
                    "midi": 71,
                    "time": 240.59200400000194,
                    "velocity": 0.3700787401574803,
                    "duration": 0.07872775000001297
                },
                {
                    "name": "A4",
                    "midi": 69,
                    "time": 240.67073175000195,
                    "velocity": 0.3858267716535433,
                    "duration": 0.11809162500000525
                },
                {
                    "name": "B4",
                    "midi": 71,
                    "time": 240.78882337500195,
                    "velocity": 0.3858267716535433,
                    "duration": 0.11809162500000525
                },
                {
                    "name": "C#5",
                    "midi": 73,
                    "time": 240.90691500000196,
                    "velocity": 0.4566929133858268,
                    "duration": 0.11809162500000525
                },
                {
                    "name": "C#5",
                    "midi": 73,
                    "time": 241.37928150000195,
                    "velocity": 0.4251968503937008,
                    "duration": 0.11809162500000525
                },
                {
                    "name": "B4",
                    "midi": 71,
                    "time": 241.85164800000194,
                    "velocity": 0.48031496062992124,
                    "duration": 0.4723664999999926
                },
                {
                    "name": "E5",
                    "midi": 76,
                    "time": 241.85164800000194,
                    "velocity": 0.48031496062992124,
                    "duration": 0.11809162500000525
                },
                {
                    "name": "D5",
                    "midi": 74,
                    "time": 241.96973962500195,
                    "velocity": 0.4015748031496063,
                    "duration": 0.35427487499998733
                },
                {
                    "name": "A4",
                    "midi": 69,
                    "time": 242.32401450000194,
                    "velocity": 0.4330708661417323,
                    "duration": 0.9447330000000136
                },
                {
                    "name": "C#5",
                    "midi": 73,
                    "time": 242.32401450000194,
                    "velocity": 0.4330708661417323,
                    "duration": 0.9447330000000136
                },
                {
                    "name": "B4",
                    "midi": 71,
                    "time": 243.26874750000195,
                    "velocity": 0.41732283464566927,
                    "duration": 0.4723664999999926
                },
                {
                    "name": "G#4",
                    "midi": 68,
                    "time": 243.26874750000195,
                    "velocity": 0.41732283464566927,
                    "duration": 0.4723664999999926
                },
                {
                    "name": "C#5",
                    "midi": 73,
                    "time": 243.74111400000194,
                    "velocity": 0.5826771653543307,
                    "duration": 0.1889466000000084
                },
                {
                    "name": "A4",
                    "midi": 69,
                    "time": 243.89856950000194,
                    "velocity": 0.41732283464566927,
                    "duration": 0.1889466000000084
                },
                {
                    "name": "E4",
                    "midi": 64,
                    "time": 244.05602500000194,
                    "velocity": 0.41732283464566927,
                    "duration": 0.15745549999999753
                },
                {
                    "name": "C#5",
                    "midi": 73,
                    "time": 244.21348050000194,
                    "velocity": 0.5669291338582677,
                    "duration": 0.1889466000000084
                },
                {
                    "name": "A4",
                    "midi": 69,
                    "time": 244.37093600000193,
                    "velocity": 0.41732283464566927,
                    "duration": 0.1889466000000084
                },
                {
                    "name": "E4",
                    "midi": 64,
                    "time": 244.52839150000193,
                    "velocity": 0.41732283464566927,
                    "duration": 0.15745549999999753
                },
                {
                    "name": "D5",
                    "midi": 74,
                    "time": 244.68584700000193,
                    "velocity": 0.5590551181102362,
                    "duration": 0.1889466000000084
                },
                {
                    "name": "B4",
                    "midi": 71,
                    "time": 244.84330250000193,
                    "velocity": 0.41732283464566927,
                    "duration": 0.18894660000003682
                },
                {
                    "name": "E4",
                    "midi": 64,
                    "time": 244.99878980625195,
                    "velocity": 0.41732283464566927,
                    "duration": 0.15745550000002595
                },
                {
                    "name": "E5",
                    "midi": 76,
                    "time": 245.15821350000198,
                    "velocity": 0.5511811023622047,
                    "duration": 0.1889466000000084
                },
                {
                    "name": "C#5",
                    "midi": 73,
                    "time": 245.31566900000198,
                    "velocity": 0.41732283464566927,
                    "duration": 0.1889466000000084
                },
                {
                    "name": "E4",
                    "midi": 64,
                    "time": 245.47312450000197,
                    "velocity": 0.41732283464566927,
                    "duration": 0.15745549999999753
                },
                {
                    "name": "E5",
                    "midi": 76,
                    "time": 245.63058000000197,
                    "velocity": 0.5590551181102362,
                    "duration": 0.1889466000000084
                },
                {
                    "name": "C#5",
                    "midi": 73,
                    "time": 245.78803550000197,
                    "velocity": 0.41732283464566927,
                    "duration": 0.1889466000000084
                },
                {
                    "name": "E4",
                    "midi": 64,
                    "time": 245.94549100000197,
                    "velocity": 0.41732283464566927,
                    "duration": 0.15745549999999753
                },
                {
                    "name": "F#5",
                    "midi": 78,
                    "time": 246.10294650000196,
                    "velocity": 0.5354330708661418,
                    "duration": 0.11809162500000525
                },
                {
                    "name": "E5",
                    "midi": 76,
                    "time": 246.22103812500197,
                    "velocity": 0.5196850393700787,
                    "duration": 0.11809162500000525
                },
                {
                    "name": "D5",
                    "midi": 74,
                    "time": 246.33912975000197,
                    "velocity": 0.5039370078740157,
                    "duration": 0.11809162500000525
                },
                {
                    "name": "C#5",
                    "midi": 73,
                    "time": 246.45722137500198,
                    "velocity": 0.4881889763779528,
                    "duration": 0.11809162500000525
                },
                {
                    "name": "B4",
                    "midi": 71,
                    "time": 246.57531300000198,
                    "velocity": 0.5826771653543307,
                    "duration": 0.1889466000000084
                },
                {
                    "name": "G#4",
                    "midi": 68,
                    "time": 246.73276850000198,
                    "velocity": 0.41732283464566927,
                    "duration": 0.1889466000000084
                },
                {
                    "name": "E4",
                    "midi": 64,
                    "time": 246.89022400000198,
                    "velocity": 0.41732283464566927,
                    "duration": 0.15745549999999753
                },
                {
                    "name": "B4",
                    "midi": 71,
                    "time": 247.04767950000198,
                    "velocity": 0.5669291338582677,
                    "duration": 0.1889466000000084
                },
                {
                    "name": "G#4",
                    "midi": 68,
                    "time": 247.20513500000197,
                    "velocity": 0.41732283464566927,
                    "duration": 0.1889466000000084
                },
                {
                    "name": "E4",
                    "midi": 64,
                    "time": 247.36259050000197,
                    "velocity": 0.41732283464566927,
                    "duration": 0.15745549999999753
                },
                {
                    "name": "C#5",
                    "midi": 73,
                    "time": 247.52004600000197,
                    "velocity": 0.5590551181102362,
                    "duration": 0.1889466000000084
                },
                {
                    "name": "A4",
                    "midi": 69,
                    "time": 247.67750150000197,
                    "velocity": 0.41732283464566927,
                    "duration": 0.1889466000000084
                },
                {
                    "name": "E4",
                    "midi": 64,
                    "time": 247.83495700000196,
                    "velocity": 0.41732283464566927,
                    "duration": 0.15745549999999753
                },
                {
                    "name": "D5",
                    "midi": 74,
                    "time": 247.99241250000196,
                    "velocity": 0.5511811023622047,
                    "duration": 0.1889466000000084
                },
                {
                    "name": "B4",
                    "midi": 71,
                    "time": 248.14986800000196,
                    "velocity": 0.41732283464566927,
                    "duration": 0.1889466000000084
                },
                {
                    "name": "E4",
                    "midi": 64,
                    "time": 248.30732350000196,
                    "velocity": 0.41732283464566927,
                    "duration": 0.15745549999999753
                },
                {
                    "name": "D5",
                    "midi": 74,
                    "time": 248.46477900000195,
                    "velocity": 0.5590551181102362,
                    "duration": 0.1889466000000084
                },
                {
                    "name": "B4",
                    "midi": 71,
                    "time": 248.62223450000195,
                    "velocity": 0.41732283464566927,
                    "duration": 0.1889466000000084
                },
                {
                    "name": "E4",
                    "midi": 64,
                    "time": 248.77969000000195,
                    "velocity": 0.41732283464566927,
                    "duration": 0.15745549999999753
                },
                {
                    "name": "E5",
                    "midi": 76,
                    "time": 248.93714550000195,
                    "velocity": 0.5354330708661418,
                    "duration": 0.11809162500000525
                },
                {
                    "name": "D5",
                    "midi": 74,
                    "time": 249.05523712500195,
                    "velocity": 0.5196850393700787,
                    "duration": 0.11809162500000525
                },
                {
                    "name": "C#5",
                    "midi": 73,
                    "time": 249.17332875000196,
                    "velocity": 0.5039370078740157,
                    "duration": 0.11809162500000525
                },
                {
                    "name": "B4",
                    "midi": 71,
                    "time": 249.29142037500196,
                    "velocity": 0.4881889763779528,
                    "duration": 0.11809162500000525
                },
                {
                    "name": "A4",
                    "midi": 69,
                    "time": 249.40951200000197,
                    "velocity": 0.5826771653543307,
                    "duration": 0.1889466000000084
                },
                {
                    "name": "E4",
                    "midi": 64,
                    "time": 249.56696750000197,
                    "velocity": 0.41732283464566927,
                    "duration": 0.1889466000000084
                },
                {
                    "name": "C#4",
                    "midi": 61,
                    "time": 249.72442300000196,
                    "velocity": 0.41732283464566927,
                    "duration": 0.15745549999999753
                },
                {
                    "name": "A4",
                    "midi": 69,
                    "time": 249.88187850000196,
                    "velocity": 0.5669291338582677,
                    "duration": 0.1889466000000084
                },
                {
                    "name": "E4",
                    "midi": 64,
                    "time": 250.03933400000196,
                    "velocity": 0.41732283464566927,
                    "duration": 0.1889466000000084
                },
                {
                    "name": "C#4",
                    "midi": 61,
                    "time": 250.19678950000196,
                    "velocity": 0.41732283464566927,
                    "duration": 0.15745549999999753
                },
                {
                    "name": "B4",
                    "midi": 71,
                    "time": 250.35424500000195,
                    "velocity": 0.5590551181102362,
                    "duration": 0.1889466000000084
                },
                {
                    "name": "E4",
                    "midi": 64,
                    "time": 250.51170050000195,
                    "velocity": 0.41732283464566927,
                    "duration": 0.1889466000000084
                },
                {
                    "name": "D4",
                    "midi": 62,
                    "time": 250.66915600000195,
                    "velocity": 0.41732283464566927,
                    "duration": 0.15745549999999753
                },
                {
                    "name": "C#5",
                    "midi": 73,
                    "time": 250.82661150000195,
                    "velocity": 0.5826771653543307,
                    "duration": 0.1889466000000084
                },
                {
                    "name": "A4",
                    "midi": 69,
                    "time": 250.98406700000194,
                    "velocity": 0.41732283464566927,
                    "duration": 0.1889466000000084
                },
                {
                    "name": "E4",
                    "midi": 64,
                    "time": 251.14152250000194,
                    "velocity": 0.41732283464566927,
                    "duration": 0.15745549999999753
                },
                {
                    "name": "C#5",
                    "midi": 73,
                    "time": 251.29897800000194,
                    "velocity": 0.5669291338582677,
                    "duration": 0.1889466000000084
                },
                {
                    "name": "A4",
                    "midi": 69,
                    "time": 251.45643350000194,
                    "velocity": 0.41732283464566927,
                    "duration": 0.1889466000000084
                },
                {
                    "name": "E4",
                    "midi": 64,
                    "time": 251.61388900000193,
                    "velocity": 0.41732283464566927,
                    "duration": 0.15745549999999753
                },
                {
                    "name": "D5",
                    "midi": 74,
                    "time": 251.77134450000193,
                    "velocity": 0.5590551181102362,
                    "duration": 0.1889466000000084
                },
                {
                    "name": "B4",
                    "midi": 71,
                    "time": 251.92880000000193,
                    "velocity": 0.41732283464566927,
                    "duration": 0.1889466000000084
                },
                {
                    "name": "F#4",
                    "midi": 66,
                    "time": 252.08625550000193,
                    "velocity": 0.41732283464566927,
                    "duration": 0.15745549999999753
                },
                {
                    "name": "C#5",
                    "midi": 73,
                    "time": 252.24371100000192,
                    "velocity": 0.5826771653543307,
                    "duration": 0.1889466000000084
                },
                {
                    "name": "A4",
                    "midi": 69,
                    "time": 252.40116650000192,
                    "velocity": 0.41732283464566927,
                    "duration": 0.1889466000000084
                },
                {
                    "name": "E4",
                    "midi": 64,
                    "time": 252.55862200000192,
                    "velocity": 0.41732283464566927,
                    "duration": 0.15745549999999753
                },
                {
                    "name": "C#5",
                    "midi": 73,
                    "time": 252.71607750000192,
                    "velocity": 0.5669291338582677,
                    "duration": 0.1889466000000084
                },
                {
                    "name": "A4",
                    "midi": 69,
                    "time": 252.8735330000019,
                    "velocity": 0.41732283464566927,
                    "duration": 0.1889466000000084
                },
                {
                    "name": "E4",
                    "midi": 64,
                    "time": 253.0309885000019,
                    "velocity": 0.41732283464566927,
                    "duration": 0.15745549999999753
                },
                {
                    "name": "B4",
                    "midi": 71,
                    "time": 253.1884440000019,
                    "velocity": 0.5590551181102362,
                    "duration": 0.1889466000000084
                },
                {
                    "name": "G#4",
                    "midi": 68,
                    "time": 253.3458995000019,
                    "velocity": 0.41732283464566927,
                    "duration": 0.1889466000000084
                },
                {
                    "name": "D4",
                    "midi": 62,
                    "time": 253.5033550000019,
                    "velocity": 0.41732283464566927,
                    "duration": 0.15745549999999753
                },
                {
                    "name": "A4",
                    "midi": 69,
                    "time": 253.6608105000019,
                    "velocity": 0.5826771653543307,
                    "duration": 0.1889466000000084
                },
                {
                    "name": "E4",
                    "midi": 64,
                    "time": 253.8182660000019,
                    "velocity": 0.41732283464566927,
                    "duration": 0.1889466000000084
                },
                {
                    "name": "C#4",
                    "midi": 61,
                    "time": 253.9757215000019,
                    "velocity": 0.41732283464566927,
                    "duration": 0.1889466000000084
                },
                {
                    "name": "A3",
                    "midi": 57,
                    "time": 254.1331770000019,
                    "velocity": 0.5669291338582677,
                    "duration": 0.2361832500000105
                },
                {
                    "name": "E5",
                    "midi": 76,
                    "time": 255.0779100000019,
                    "velocity": 0.3937007874015748,
                    "duration": 0.11809162500000525
                },
                {
                    "name": "D5",
                    "midi": 74,
                    "time": 255.5502765000019,
                    "velocity": 0.3779527559055118,
                    "duration": 0.11809162500000525
                },
                {
                    "name": "E5",
                    "midi": 76,
                    "time": 256.0226430000019,
                    "velocity": 0.3937007874015748,
                    "duration": 0.11809162499997683
                },
                {
                    "name": "F#5",
                    "midi": 78,
                    "time": 256.49500950000186,
                    "velocity": 0.3937007874015748,
                    "duration": 0.2361832500000105
                },
                {
                    "name": "F#5",
                    "midi": 78,
                    "time": 257.43974250000184,
                    "velocity": 0.3937007874015748,
                    "duration": 0.03936387499999228
                },
                {
                    "name": "G#5",
                    "midi": 80,
                    "time": 257.47910637500183,
                    "velocity": 0.3464566929133858,
                    "duration": 0.03936387499999228
                },
                {
                    "name": "F#5",
                    "midi": 78,
                    "time": 257.5184702500018,
                    "velocity": 0.3464566929133858,
                    "duration": 0.03936387499999228
                },
                {
                    "name": "E5",
                    "midi": 76,
                    "time": 257.5578341250018,
                    "velocity": 0.3937007874015748,
                    "duration": 0.11809162499997683
                },
                {
                    "name": "F#5",
                    "midi": 78,
                    "time": 257.6759257500018,
                    "velocity": 0.3858267716535433,
                    "duration": 0.11809162499997683
                },
                {
                    "name": "G#5",
                    "midi": 80,
                    "time": 257.7940173750018,
                    "velocity": 0.3858267716535433,
                    "duration": 0.11809162499997683
                },
                {
                    "name": "A5",
                    "midi": 81,
                    "time": 257.91210900000175,
                    "velocity": 0.4409448818897638,
                    "duration": 0.2361832500000105
                },
                {
                    "name": "G#5",
                    "midi": 80,
                    "time": 258.38447550000177,
                    "velocity": 0.4094488188976378,
                    "duration": 0.11809162499997683
                },
                {
                    "name": "F#5",
                    "midi": 78,
                    "time": 258.85684200000173,
                    "velocity": 0.3937007874015748,
                    "duration": 0.11809162499997683
                },
                {
                    "name": "E5",
                    "midi": 76,
                    "time": 259.3292085000017,
                    "velocity": 0.3937007874015748,
                    "duration": 0.2361832500000105
                },
                {
                    "name": "C#5",
                    "midi": 73,
                    "time": 260.2739415000017,
                    "velocity": 0.3937007874015748,
                    "duration": 0.03936387499999228
                },
                {
                    "name": "D5",
                    "midi": 74,
                    "time": 260.3133053750017,
                    "velocity": 0.3464566929133858,
                    "duration": 0.03936387499999228
                },
                {
                    "name": "C#5",
                    "midi": 73,
                    "time": 260.35266925000167,
                    "velocity": 0.3464566929133858,
                    "duration": 0.03936387499999228
                },
                {
                    "name": "B4",
                    "midi": 71,
                    "time": 260.39203312500166,
                    "velocity": 0.3937007874015748,
                    "duration": 0.11809162499997683
                },
                {
                    "name": "C#5",
                    "midi": 73,
                    "time": 260.51012475000164,
                    "velocity": 0.4015748031496063,
                    "duration": 0.11809162499997683
                },
                {
                    "name": "D5",
                    "midi": 74,
                    "time": 260.6282163750016,
                    "velocity": 0.4330708661417323,
                    "duration": 0.11809162499997683
                },
                {
                    "name": "E5",
                    "midi": 76,
                    "time": 260.7463080000016,
                    "velocity": 0.47244094488188976,
                    "duration": 0.472366500000021
                },
                {
                    "name": "C#5",
                    "midi": 73,
                    "time": 261.2186745000016,
                    "velocity": 0.4566929133858268,
                    "duration": 0.11809162499997683
                },
                {
                    "name": "A4",
                    "midi": 69,
                    "time": 262.04531587500156,
                    "velocity": 0.4566929133858268,
                    "duration": 0.11809162499997683
                },
                {
                    "name": "E5",
                    "midi": 76,
                    "time": 262.16340750000154,
                    "velocity": 0.5118110236220472,
                    "duration": 0.472366500000021
                },
                {
                    "name": "D5",
                    "midi": 74,
                    "time": 262.63577400000156,
                    "velocity": 0.4645669291338583,
                    "duration": 0.11809162499997683
                },
                {
                    "name": "B4",
                    "midi": 71,
                    "time": 263.4624153750015,
                    "velocity": 0.5196850393700787,
                    "duration": 0.11809162499997683
                },
                {
                    "name": "E5",
                    "midi": 76,
                    "time": 263.5805070000015,
                    "velocity": 0.5748031496062992,
                    "duration": 0.472366500000021
                },
                {
                    "name": "C#5",
                    "midi": 73,
                    "time": 264.0528735000015,
                    "velocity": 0.5196850393700787,
                    "duration": 0.472366500000021
                },
                {
                    "name": "A4",
                    "midi": 69,
                    "time": 264.52524000000153,
                    "velocity": 0.3937007874015748,
                    "duration": 0.11809162499997683
                },
                {
                    "name": "C#5",
                    "midi": 73,
                    "time": 264.9976065000015,
                    "velocity": 0.3937007874015748,
                    "duration": 0.9447329999999852
                },
                {
                    "name": "A4",
                    "midi": 69,
                    "time": 264.9976065000015,
                    "velocity": 0.3937007874015748,
                    "duration": 0.9447329999999852
                },
                {
                    "name": "B4",
                    "midi": 71,
                    "time": 265.9423395000015,
                    "velocity": 0.36220472440944884,
                    "duration": 0.472366500000021
                },
                {
                    "name": "G#4",
                    "midi": 68,
                    "time": 265.9423395000015,
                    "velocity": 0.36220472440944884,
                    "duration": 0.472366500000021
                },
                {
                    "name": "C#5",
                    "midi": 73,
                    "time": 266.4147060000015,
                    "velocity": 0.41732283464566927,
                    "duration": 0.11809162499997683
                },
                {
                    "name": "C#5",
                    "midi": 73,
                    "time": 266.88707250000147,
                    "velocity": 0.3858267716535433,
                    "duration": 0.11809162499997683
                },
                {
                    "name": "D5",
                    "midi": 74,
                    "time": 267.35943900000143,
                    "velocity": 0.3858267716535433,
                    "duration": 0.07872774999998455
                },
                {
                    "name": "E5",
                    "midi": 76,
                    "time": 267.4381667500014,
                    "velocity": 0.3700787401574803,
                    "duration": 0.07872774999998455
                },
                {
                    "name": "D5",
                    "midi": 74,
                    "time": 267.5168945000014,
                    "velocity": 0.3700787401574803,
                    "duration": 0.07872774999998455
                },
                {
                    "name": "C#5",
                    "midi": 73,
                    "time": 267.5956222500014,
                    "velocity": 0.3858267716535433,
                    "duration": 0.11809162499997683
                },
                {
                    "name": "D5",
                    "midi": 74,
                    "time": 267.71371387500136,
                    "velocity": 0.3858267716535433,
                    "duration": 0.11809162499997683
                },
                {
                    "name": "E5",
                    "midi": 76,
                    "time": 267.83180550000134,
                    "velocity": 0.41732283464566927,
                    "duration": 0.472366500000021
                },
                {
                    "name": "F#5",
                    "midi": 78,
                    "time": 268.7765385000014,
                    "velocity": 0.41732283464566927,
                    "duration": 0.12990078749999157
                },
                {
                    "name": "E5",
                    "midi": 76,
                    "time": 268.89463012500136,
                    "velocity": 0.4094488188976378,
                    "duration": 0.1299007875000484
                },
                {
                    "name": "D5",
                    "midi": 74,
                    "time": 269.0127217500014,
                    "velocity": 0.4015748031496063,
                    "duration": 0.1299007875000484
                },
                {
                    "name": "C#5",
                    "midi": 73,
                    "time": 269.1308133750014,
                    "velocity": 0.3858267716535433,
                    "duration": 0.1299007875000484
                },
                {
                    "name": "B4",
                    "midi": 71,
                    "time": 269.24890500000146,
                    "velocity": 0.41732283464566927,
                    "duration": 0.11809162500003367
                },
                {
                    "name": "B4",
                    "midi": 71,
                    "time": 269.7212715000015,
                    "velocity": 0.3858267716535433,
                    "duration": 0.11809162499997683
                },
                {
                    "name": "C#5",
                    "midi": 73,
                    "time": 270.19363800000144,
                    "velocity": 0.3858267716535433,
                    "duration": 0.07872774999998455
                },
                {
                    "name": "D5",
                    "midi": 74,
                    "time": 270.2723657500014,
                    "velocity": 0.3700787401574803,
                    "duration": 0.07872774999998455
                },
                {
                    "name": "C#5",
                    "midi": 73,
                    "time": 270.3510935000014,
                    "velocity": 0.3700787401574803,
                    "duration": 0.07872774999998455
                },
                {
                    "name": "B4",
                    "midi": 71,
                    "time": 270.4298212500014,
                    "velocity": 0.3858267716535433,
                    "duration": 0.11809162499997683
                },
                {
                    "name": "C#5",
                    "midi": 73,
                    "time": 270.5479128750014,
                    "velocity": 0.3858267716535433,
                    "duration": 0.11809162499997683
                },
                {
                    "name": "D5",
                    "midi": 74,
                    "time": 270.66600450000135,
                    "velocity": 0.41732283464566927,
                    "duration": 0.472366500000021
                },
                {
                    "name": "E5",
                    "midi": 76,
                    "time": 271.6107375000014,
                    "velocity": 0.41732283464566927,
                    "duration": 0.12990078749999157
                },
                {
                    "name": "D5",
                    "midi": 74,
                    "time": 271.72882912500137,
                    "velocity": 0.4094488188976378,
                    "duration": 0.1299007875000484
                },
                {
                    "name": "C#5",
                    "midi": 73,
                    "time": 271.8469207500014,
                    "velocity": 0.4015748031496063,
                    "duration": 0.1299007875000484
                },
                {
                    "name": "B4",
                    "midi": 71,
                    "time": 271.96501237500144,
                    "velocity": 0.3858267716535433,
                    "duration": 0.1299007875000484
                },
                {
                    "name": "A4",
                    "midi": 69,
                    "time": 272.08310400000147,
                    "velocity": 0.41732283464566927,
                    "duration": 0.11809162500003367
                },
                {
                    "name": "A4",
                    "midi": 69,
                    "time": 272.5554705000015,
                    "velocity": 0.3858267716535433,
                    "duration": 0.11809162499997683
                },
                {
                    "name": "B4",
                    "midi": 71,
                    "time": 273.02783700000145,
                    "velocity": 0.3858267716535433,
                    "duration": 0.07872774999998455
                },
                {
                    "name": "C#5",
                    "midi": 73,
                    "time": 273.10656475000144,
                    "velocity": 0.3700787401574803,
                    "duration": 0.07872774999998455
                },
                {
                    "name": "B4",
                    "midi": 71,
                    "time": 273.1852925000014,
                    "velocity": 0.3700787401574803,
                    "duration": 0.07872774999998455
                },
                {
                    "name": "A4",
                    "midi": 69,
                    "time": 273.2640202500014,
                    "velocity": 0.3858267716535433,
                    "duration": 0.11809162499997683
                },
                {
                    "name": "B4",
                    "midi": 71,
                    "time": 273.3821118750014,
                    "velocity": 0.3858267716535433,
                    "duration": 0.11809162499997683
                },
                {
                    "name": "C#5",
                    "midi": 73,
                    "time": 273.50020350000136,
                    "velocity": 0.41732283464566927,
                    "duration": 0.11809162499997683
                },
                {
                    "name": "C#5",
                    "midi": 73,
                    "time": 273.9725700000013,
                    "velocity": 0.3858267716535433,
                    "duration": 0.11809162499997683
                },
                {
                    "name": "D5",
                    "midi": 74,
                    "time": 274.4449365000013,
                    "velocity": 0.3858267716535433,
                    "duration": 0.07872774999998455
                },
                {
                    "name": "E5",
                    "midi": 76,
                    "time": 274.5236642500013,
                    "velocity": 0.3700787401574803,
                    "duration": 0.07872774999998455
                },
                {
                    "name": "D5",
                    "midi": 74,
                    "time": 274.60239200000126,
                    "velocity": 0.3700787401574803,
                    "duration": 0.07872774999998455
                },
                {
                    "name": "C#5",
                    "midi": 73,
                    "time": 274.68111975000124,
                    "velocity": 0.3858267716535433,
                    "duration": 0.11809162499997683
                },
                {
                    "name": "D5",
                    "midi": 74,
                    "time": 274.7992113750012,
                    "velocity": 0.3858267716535433,
                    "duration": 0.11809162499997683
                },
                {
                    "name": "C#5",
                    "midi": 73,
                    "time": 274.9173030000012,
                    "velocity": 0.41732283464566927,
                    "duration": 0.11809162499997683
                },
                {
                    "name": "C#5",
                    "midi": 73,
                    "time": 275.38966950000116,
                    "velocity": 0.3858267716535433,
                    "duration": 0.11809162499997683
                },
                {
                    "name": "B4",
                    "midi": 71,
                    "time": 275.8620360000011,
                    "velocity": 0.3858267716535433,
                    "duration": 0.07872774999998455
                },
                {
                    "name": "C#5",
                    "midi": 73,
                    "time": 275.9407637500011,
                    "velocity": 0.3700787401574803,
                    "duration": 0.07872774999998455
                },
                {
                    "name": "B4",
                    "midi": 71,
                    "time": 276.0194915000011,
                    "velocity": 0.3700787401574803,
                    "duration": 0.07872774999998455
                },
                {
                    "name": "A4",
                    "midi": 69,
                    "time": 276.0982192500011,
                    "velocity": 0.3858267716535433,
                    "duration": 0.11809162499997683
                },
                {
                    "name": "B4",
                    "midi": 71,
                    "time": 276.21631087500106,
                    "velocity": 0.3858267716535433,
                    "duration": 0.11809162499997683
                },
                {
                    "name": "B4",
                    "midi": 71,
                    "time": 276.33440250000103,
                    "velocity": 0.41732283464566927,
                    "duration": 0.472366500000021
                },
                {
                    "name": "G#4",
                    "midi": 68,
                    "time": 276.33440250000103,
                    "velocity": 0.3543307086614173,
                    "duration": 0.944733000000042
                },
                {
                    "name": "C5",
                    "midi": 72,
                    "time": 276.80676900000105,
                    "velocity": 0.4330708661417323,
                    "duration": 0.472366500000021
                },
                {
                    "name": "A4",
                    "midi": 69,
                    "time": 277.2791355000011,
                    "velocity": 0.3700787401574803,
                    "duration": 0.472366500000021
                },
                {
                    "name": "C#5",
                    "midi": 73,
                    "time": 277.2791355000011,
                    "velocity": 0.4409448818897638,
                    "duration": 0.472366500000021
                },
                {
                    "name": "C#5",
                    "midi": 73,
                    "time": 277.7515020000011,
                    "velocity": 0.5826771653543307,
                    "duration": 0.1889466000000084
                },
                {
                    "name": "A4",
                    "midi": 69,
                    "time": 277.9089575000011,
                    "velocity": 0.41732283464566927,
                    "duration": 0.18894659999995156
                },
                {
                    "name": "E4",
                    "midi": 64,
                    "time": 278.0664130000011,
                    "velocity": 0.41732283464566927,
                    "duration": 0.1574554999999691
                },
                {
                    "name": "C#5",
                    "midi": 73,
                    "time": 278.22386850000106,
                    "velocity": 0.5669291338582677,
                    "duration": 0.1889466000000084
                },
                {
                    "name": "A4",
                    "midi": 69,
                    "time": 278.3813240000011,
                    "velocity": 0.41732283464566927,
                    "duration": 0.18894659999995156
                },
                {
                    "name": "E4",
                    "midi": 64,
                    "time": 278.53877950000106,
                    "velocity": 0.41732283464566927,
                    "duration": 0.1574554999999691
                },
                {
                    "name": "D5",
                    "midi": 74,
                    "time": 278.696235000001,
                    "velocity": 0.5590551181102362,
                    "duration": 0.1889466000000084
                },
                {
                    "name": "G#4",
                    "midi": 68,
                    "time": 278.85369050000105,
                    "velocity": 0.41732283464566927,
                    "duration": 0.18894659999995156
                },
                {
                    "name": "E4",
                    "midi": 64,
                    "time": 279.011146000001,
                    "velocity": 0.41732283464566927,
                    "duration": 0.1574554999999691
                },
                {
                    "name": "E5",
                    "midi": 76,
                    "time": 279.168601500001,
                    "velocity": 0.5826771653543307,
                    "duration": 0.1889466000000084
                },
                {
                    "name": "C#5",
                    "midi": 73,
                    "time": 279.326057000001,
                    "velocity": 0.41732283464566927,
                    "duration": 0.18894659999995156
                },
                {
                    "name": "A4",
                    "midi": 69,
                    "time": 279.483512500001,
                    "velocity": 0.41732283464566927,
                    "duration": 0.1574554999999691
                },
                {
                    "name": "E5",
                    "midi": 76,
                    "time": 279.64096800000095,
                    "velocity": 0.5669291338582677,
                    "duration": 0.1889466000000084
                },
                {
                    "name": "C#5",
                    "midi": 73,
                    "time": 279.798423500001,
                    "velocity": 0.41732283464566927,
                    "duration": 0.18894659999995156
                },
                {
                    "name": "A4",
                    "midi": 69,
                    "time": 279.95587900000095,
                    "velocity": 0.41732283464566927,
                    "duration": 0.1574554999999691
                },
                {
                    "name": "F#5",
                    "midi": 78,
                    "time": 280.1133345000009,
                    "velocity": 0.5590551181102362,
                    "duration": 0.1889466000000084
                },
                {
                    "name": "B4",
                    "midi": 71,
                    "time": 280.27079000000094,
                    "velocity": 0.41732283464566927,
                    "duration": 0.18894659999995156
                },
                {
                    "name": "A4",
                    "midi": 69,
                    "time": 280.4282455000009,
                    "velocity": 0.41732283464566927,
                    "duration": 0.1574554999999691
                },
                {
                    "name": "C#5",
                    "midi": 73,
                    "time": 280.5857010000009,
                    "velocity": 0.5826771653543307,
                    "duration": 0.1889466000000084
                },
                {
                    "name": "A4",
                    "midi": 69,
                    "time": 280.7431565000009,
                    "velocity": 0.41732283464566927,
                    "duration": 0.18894659999995156
                },
                {
                    "name": "E4",
                    "midi": 64,
                    "time": 280.9006120000009,
                    "velocity": 0.41732283464566927,
                    "duration": 0.1574554999999691
                },
                {
                    "name": "C#5",
                    "midi": 73,
                    "time": 281.05806750000085,
                    "velocity": 0.5669291338582677,
                    "duration": 0.1889466000000084
                },
                {
                    "name": "A4",
                    "midi": 69,
                    "time": 281.21552300000087,
                    "velocity": 0.41732283464566927,
                    "duration": 0.18894659999995156
                },
                {
                    "name": "E4",
                    "midi": 64,
                    "time": 281.37297850000084,
                    "velocity": 0.41732283464566927,
                    "duration": 0.1574554999999691
                },
                {
                    "name": "B4",
                    "midi": 71,
                    "time": 281.5304340000008,
                    "velocity": 0.5590551181102362,
                    "duration": 0.1889466000000084
                },
                {
                    "name": "G#4",
                    "midi": 68,
                    "time": 281.68788950000084,
                    "velocity": 0.41732283464566927,
                    "duration": 0.18894659999995156
                },
                {
                    "name": "D4",
                    "midi": 62,
                    "time": 281.8453450000008,
                    "velocity": 0.41732283464566927,
                    "duration": 0.1574554999999691
                },
                {
                    "name": "A4",
                    "midi": 69,
                    "time": 282.0028005000008,
                    "velocity": 0.5826771653543307,
                    "duration": 0.1889466000000084
                },
                {
                    "name": "E4",
                    "midi": 64,
                    "time": 282.1602560000008,
                    "velocity": 0.41732283464566927,
                    "duration": 0.18894659999995156
                },
                {
                    "name": "C#4",
                    "midi": 61,
                    "time": 282.31771150000077,
                    "velocity": 0.41732283464566927,
                    "duration": 0.18894659999995156
                },
                {
                    "name": "A3",
                    "midi": 57,
                    "time": 282.47516700000074,
                    "velocity": 0.5669291338582677,
                    "duration": 0.2361832500000105
                },
                {
                    "name": "E5",
                    "midi": 76,
                    "time": 283.4199000000007,
                    "velocity": 0.3937007874015748,
                    "duration": 0.11809162499997683
                },
                {
                    "name": "D5",
                    "midi": 74,
                    "time": 283.8922665000007,
                    "velocity": 0.3779527559055118,
                    "duration": 0.11809162499997683
                },
                {
                    "name": "E5",
                    "midi": 76,
                    "time": 284.36463300000065,
                    "velocity": 0.3937007874015748,
                    "duration": 0.11809162499997683
                },
                {
                    "name": "F#5",
                    "midi": 78,
                    "time": 284.8369995000006,
                    "velocity": 0.3937007874015748,
                    "duration": 0.2361832500000105
                },
                {
                    "name": "F#5",
                    "midi": 78,
                    "time": 285.7817325000006,
                    "velocity": 0.3937007874015748,
                    "duration": 0.03936387499999228
                },
                {
                    "name": "G#5",
                    "midi": 80,
                    "time": 285.8210963750006,
                    "velocity": 0.3464566929133858,
                    "duration": 0.03936387499999228
                },
                {
                    "name": "F#5",
                    "midi": 78,
                    "time": 285.8604602500006,
                    "velocity": 0.3464566929133858,
                    "duration": 0.03936387499999228
                },
                {
                    "name": "E5",
                    "midi": 76,
                    "time": 285.8998241250006,
                    "velocity": 0.3937007874015748,
                    "duration": 0.11809162499997683
                },
                {
                    "name": "F#5",
                    "midi": 78,
                    "time": 286.01791575000055,
                    "velocity": 0.3858267716535433,
                    "duration": 0.11809162499997683
                },
                {
                    "name": "G#5",
                    "midi": 80,
                    "time": 286.13600737500053,
                    "velocity": 0.3858267716535433,
                    "duration": 0.11809162499997683
                },
                {
                    "name": "A5",
                    "midi": 81,
                    "time": 286.2540990000005,
                    "velocity": 0.4409448818897638,
                    "duration": 0.2361832500000105
                },
                {
                    "name": "G#5",
                    "midi": 80,
                    "time": 286.72646550000053,
                    "velocity": 0.4094488188976378,
                    "duration": 0.11809162499997683
                },
                {
                    "name": "F#5",
                    "midi": 78,
                    "time": 287.1988320000005,
                    "velocity": 0.3937007874015748,
                    "duration": 0.11809162499997683
                },
                {
                    "name": "E5",
                    "midi": 76,
                    "time": 287.67119850000046,
                    "velocity": 0.3937007874015748,
                    "duration": 0.2361832500000105
                },
                {
                    "name": "C#5",
                    "midi": 73,
                    "time": 288.61593150000044,
                    "velocity": 0.3937007874015748,
                    "duration": 0.03936387499999228
                },
                {
                    "name": "D5",
                    "midi": 74,
                    "time": 288.65529537500043,
                    "velocity": 0.3464566929133858,
                    "duration": 0.03936387499999228
                },
                {
                    "name": "C#5",
                    "midi": 73,
                    "time": 288.6946592500004,
                    "velocity": 0.3464566929133858,
                    "duration": 0.03936387499999228
                },
                {
                    "name": "B4",
                    "midi": 71,
                    "time": 288.7340231250004,
                    "velocity": 0.3937007874015748,
                    "duration": 0.11809162499997683
                },
                {
                    "name": "C#5",
                    "midi": 73,
                    "time": 288.8521147500004,
                    "velocity": 0.4015748031496063,
                    "duration": 0.11809162499997683
                },
                {
                    "name": "D5",
                    "midi": 74,
                    "time": 288.9702063750004,
                    "velocity": 0.4330708661417323,
                    "duration": 0.11809162499997683
                },
                {
                    "name": "E5",
                    "midi": 76,
                    "time": 289.08829800000035,
                    "velocity": 0.47244094488188976,
                    "duration": 0.472366500000021
                },
                {
                    "name": "C#5",
                    "midi": 73,
                    "time": 289.56066450000037,
                    "velocity": 0.4566929133858268,
                    "duration": 0.11809162499997683
                },
                {
                    "name": "A4",
                    "midi": 69,
                    "time": 290.3873058750003,
                    "velocity": 0.4566929133858268,
                    "duration": 0.11809162499997683
                },
                {
                    "name": "E5",
                    "midi": 76,
                    "time": 290.5053975000003,
                    "velocity": 0.5118110236220472,
                    "duration": 0.472366500000021
                },
                {
                    "name": "D5",
                    "midi": 74,
                    "time": 290.9777640000003,
                    "velocity": 0.4645669291338583,
                    "duration": 0.11809162499997683
                },
                {
                    "name": "B4",
                    "midi": 71,
                    "time": 291.8044053750003,
                    "velocity": 0.5196850393700787,
                    "duration": 0.11809162499997683
                },
                {
                    "name": "E5",
                    "midi": 76,
                    "time": 291.92249700000025,
                    "velocity": 0.5748031496062992,
                    "duration": 0.472366500000021
                },
                {
                    "name": "C#5",
                    "midi": 73,
                    "time": 292.39486350000027,
                    "velocity": 0.5196850393700787,
                    "duration": 0.472366500000021
                },
                {
                    "name": "A4",
                    "midi": 69,
                    "time": 292.8672300000003,
                    "velocity": 0.3937007874015748,
                    "duration": 0.11809162499997683
                },
                {
                    "name": "A4",
                    "midi": 69,
                    "time": 293.33959650000025,
                    "velocity": 0.3937007874015748,
                    "duration": 0.9447329999999852
                },
                {
                    "name": "C#5",
                    "midi": 73,
                    "time": 293.33959650000025,
                    "velocity": 0.3937007874015748,
                    "duration": 0.9447329999999852
                },
                {
                    "name": "B4",
                    "midi": 71,
                    "time": 294.28432950000024,
                    "velocity": 0.36220472440944884,
                    "duration": 0.472366500000021
                },
                {
                    "name": "G#4",
                    "midi": 68,
                    "time": 294.28432950000024,
                    "velocity": 0.36220472440944884,
                    "duration": 0.472366500000021
                },
                {
                    "name": "C#5",
                    "midi": 73,
                    "time": 294.75669600000026,
                    "velocity": 0.41732283464566927,
                    "duration": 0.11809162499997683
                },
                {
                    "name": "C#5",
                    "midi": 73,
                    "time": 295.2290625000002,
                    "velocity": 0.3858267716535433,
                    "duration": 0.11809162499997683
                },
                {
                    "name": "D5",
                    "midi": 74,
                    "time": 295.7014290000002,
                    "velocity": 0.3858267716535433,
                    "duration": 0.07872774999998455
                },
                {
                    "name": "E5",
                    "midi": 76,
                    "time": 295.7801567500002,
                    "velocity": 0.3700787401574803,
                    "duration": 0.07872774999998455
                },
                {
                    "name": "D5",
                    "midi": 74,
                    "time": 295.85888450000016,
                    "velocity": 0.3700787401574803,
                    "duration": 0.07872774999998455
                },
                {
                    "name": "C#5",
                    "midi": 73,
                    "time": 295.93761225000014,
                    "velocity": 0.3858267716535433,
                    "duration": 0.11809162499997683
                },
                {
                    "name": "D5",
                    "midi": 74,
                    "time": 296.0557038750001,
                    "velocity": 0.3858267716535433,
                    "duration": 0.11809162499997683
                },
                {
                    "name": "E5",
                    "midi": 76,
                    "time": 296.1737955000001,
                    "velocity": 0.41732283464566927,
                    "duration": 0.472366500000021
                },
                {
                    "name": "F#5",
                    "midi": 78,
                    "time": 297.11852850000014,
                    "velocity": 0.41732283464566927,
                    "duration": 0.12990078749999157
                },
                {
                    "name": "E5",
                    "midi": 76,
                    "time": 297.2366201250001,
                    "velocity": 0.4094488188976378,
                    "duration": 0.1299007875000484
                },
                {
                    "name": "D5",
                    "midi": 74,
                    "time": 297.35471175000015,
                    "velocity": 0.4015748031496063,
                    "duration": 0.1299007875000484
                },
                {
                    "name": "C#5",
                    "midi": 73,
                    "time": 297.4728033750002,
                    "velocity": 0.3858267716535433,
                    "duration": 0.1299007875000484
                },
                {
                    "name": "B4",
                    "midi": 71,
                    "time": 297.5908950000002,
                    "velocity": 0.41732283464566927,
                    "duration": 0.11809162500003367
                },
                {
                    "name": "B4",
                    "midi": 71,
                    "time": 298.06326150000024,
                    "velocity": 0.3858267716535433,
                    "duration": 0.11809162499997683
                },
                {
                    "name": "C#5",
                    "midi": 73,
                    "time": 298.5356280000002,
                    "velocity": 0.3858267716535433,
                    "duration": 0.07872774999998455
                },
                {
                    "name": "D5",
                    "midi": 74,
                    "time": 298.6143557500002,
                    "velocity": 0.3700787401574803,
                    "duration": 0.07872774999998455
                },
                {
                    "name": "C#5",
                    "midi": 73,
                    "time": 298.69308350000017,
                    "velocity": 0.3700787401574803,
                    "duration": 0.07872774999998455
                },
                {
                    "name": "B4",
                    "midi": 71,
                    "time": 298.77181125000016,
                    "velocity": 0.3858267716535433,
                    "duration": 0.11809162499997683
                },
                {
                    "name": "C#5",
                    "midi": 73,
                    "time": 298.88990287500013,
                    "velocity": 0.3858267716535433,
                    "duration": 0.11809162499997683
                },
                {
                    "name": "D5",
                    "midi": 74,
                    "time": 299.0079945000001,
                    "velocity": 0.41732283464566927,
                    "duration": 0.472366500000021
                },
                {
                    "name": "E5",
                    "midi": 76,
                    "time": 299.95272750000015,
                    "velocity": 0.41732283464566927,
                    "duration": 0.12990078749999157
                },
                {
                    "name": "D5",
                    "midi": 74,
                    "time": 300.0708191250001,
                    "velocity": 0.4094488188976378,
                    "duration": 0.1299007875000484
                },
                {
                    "name": "C#5",
                    "midi": 73,
                    "time": 300.18891075000016,
                    "velocity": 0.4015748031496063,
                    "duration": 0.1299007875000484
                },
                {
                    "name": "B4",
                    "midi": 71,
                    "time": 300.3070023750002,
                    "velocity": 0.3858267716535433,
                    "duration": 0.1299007875000484
                },
                {
                    "name": "A4",
                    "midi": 69,
                    "time": 300.42509400000023,
                    "velocity": 0.41732283464566927,
                    "duration": 0.11809162500003367
                },
                {
                    "name": "A4",
                    "midi": 69,
                    "time": 300.89746050000025,
                    "velocity": 0.3858267716535433,
                    "duration": 0.11809162499997683
                },
                {
                    "name": "B4",
                    "midi": 71,
                    "time": 301.3698270000002,
                    "velocity": 0.3858267716535433,
                    "duration": 0.07872774999998455
                },
                {
                    "name": "C#5",
                    "midi": 73,
                    "time": 301.4485547500002,
                    "velocity": 0.3700787401574803,
                    "duration": 0.07872774999998455
                },
                {
                    "name": "B4",
                    "midi": 71,
                    "time": 301.5272825000002,
                    "velocity": 0.3700787401574803,
                    "duration": 0.07872774999998455
                },
                {
                    "name": "A4",
                    "midi": 69,
                    "time": 301.60601025000017,
                    "velocity": 0.3858267716535433,
                    "duration": 0.11809162499997683
                },
                {
                    "name": "B4",
                    "midi": 71,
                    "time": 301.72410187500014,
                    "velocity": 0.3858267716535433,
                    "duration": 0.11809162499997683
                },
                {
                    "name": "C#5",
                    "midi": 73,
                    "time": 301.8421935000001,
                    "velocity": 0.41732283464566927,
                    "duration": 0.11809162499997683
                },
                {
                    "name": "C#5",
                    "midi": 73,
                    "time": 302.3145600000001,
                    "velocity": 0.3858267716535433,
                    "duration": 0.11809162499997683
                },
                {
                    "name": "D5",
                    "midi": 74,
                    "time": 302.78692650000005,
                    "velocity": 0.3858267716535433,
                    "duration": 0.07872774999998455
                },
                {
                    "name": "E5",
                    "midi": 76,
                    "time": 302.86565425000003,
                    "velocity": 0.3700787401574803,
                    "duration": 0.07872774999998455
                },
                {
                    "name": "D5",
                    "midi": 74,
                    "time": 302.944382,
                    "velocity": 0.3700787401574803,
                    "duration": 0.07872774999998455
                },
                {
                    "name": "C#5",
                    "midi": 73,
                    "time": 303.02310975,
                    "velocity": 0.3858267716535433,
                    "duration": 0.11809162499997683
                },
                {
                    "name": "D5",
                    "midi": 74,
                    "time": 303.141201375,
                    "velocity": 0.3858267716535433,
                    "duration": 0.11809162499997683
                },
                {
                    "name": "C#5",
                    "midi": 73,
                    "time": 303.25929299999996,
                    "velocity": 0.41732283464566927,
                    "duration": 0.11809162499997683
                },
                {
                    "name": "C#5",
                    "midi": 73,
                    "time": 303.7316594999999,
                    "velocity": 0.3858267716535433,
                    "duration": 0.11809162499997683
                },
                {
                    "name": "B4",
                    "midi": 71,
                    "time": 304.2040259999999,
                    "velocity": 0.3858267716535433,
                    "duration": 0.07872774999998455
                },
                {
                    "name": "C#5",
                    "midi": 73,
                    "time": 304.28275374999987,
                    "velocity": 0.3700787401574803,
                    "duration": 0.07872774999998455
                },
                {
                    "name": "B4",
                    "midi": 71,
                    "time": 304.36148149999985,
                    "velocity": 0.3700787401574803,
                    "duration": 0.07872774999998455
                },
                {
                    "name": "A4",
                    "midi": 69,
                    "time": 304.44020924999984,
                    "velocity": 0.3858267716535433,
                    "duration": 0.11809162499997683
                },
                {
                    "name": "B4",
                    "midi": 71,
                    "time": 304.5583008749998,
                    "velocity": 0.3858267716535433,
                    "duration": 0.11809162499997683
                },
                {
                    "name": "B4",
                    "midi": 71,
                    "time": 304.6763924999998,
                    "velocity": 0.41732283464566927,
                    "duration": 0.472366500000021
                },
                {
                    "name": "G#4",
                    "midi": 68,
                    "time": 304.6763924999998,
                    "velocity": 0.3543307086614173,
                    "duration": 0.944733000000042
                },
                {
                    "name": "C5",
                    "midi": 72,
                    "time": 305.1487589999998,
                    "velocity": 0.4330708661417323,
                    "duration": 0.472366500000021
                },
                {
                    "name": "C#5",
                    "midi": 73,
                    "time": 305.62112549999983,
                    "velocity": 0.4409448818897638,
                    "duration": 0.472366500000021
                },
                {
                    "name": "A4",
                    "midi": 69,
                    "time": 305.62112549999983,
                    "velocity": 0.3700787401574803,
                    "duration": 0.472366500000021
                },
                {
                    "name": "C#5",
                    "midi": 73,
                    "time": 306.09349199999986,
                    "velocity": 0.5826771653543307,
                    "duration": 0.1889466000000084
                },
                {
                    "name": "A4",
                    "midi": 69,
                    "time": 306.2509474999999,
                    "velocity": 0.41732283464566927,
                    "duration": 0.18894659999995156
                },
                {
                    "name": "E4",
                    "midi": 64,
                    "time": 306.40840299999985,
                    "velocity": 0.41732283464566927,
                    "duration": 0.1574554999999691
                },
                {
                    "name": "C#5",
                    "midi": 73,
                    "time": 306.5658584999998,
                    "velocity": 0.5669291338582677,
                    "duration": 0.1889466000000084
                },
                {
                    "name": "A4",
                    "midi": 69,
                    "time": 306.72331399999985,
                    "velocity": 0.41732283464566927,
                    "duration": 0.18894659999995156
                },
                {
                    "name": "E4",
                    "midi": 64,
                    "time": 306.8807694999998,
                    "velocity": 0.41732283464566927,
                    "duration": 0.1574554999999691
                },
                {
                    "name": "D5",
                    "midi": 74,
                    "time": 307.0382249999998,
                    "velocity": 0.5590551181102362,
                    "duration": 0.1889466000000084
                },
                {
                    "name": "G#4",
                    "midi": 68,
                    "time": 307.1956804999998,
                    "velocity": 0.41732283464566927,
                    "duration": 0.18894659999995156
                },
                {
                    "name": "E4",
                    "midi": 64,
                    "time": 307.3531359999998,
                    "velocity": 0.41732283464566927,
                    "duration": 0.1574554999999691
                },
                {
                    "name": "E5",
                    "midi": 76,
                    "time": 307.51059149999975,
                    "velocity": 0.5826771653543307,
                    "duration": 0.1889466000000084
                },
                {
                    "name": "C#5",
                    "midi": 73,
                    "time": 307.6680469999998,
                    "velocity": 0.41732283464566927,
                    "duration": 0.18894659999995156
                },
                {
                    "name": "A4",
                    "midi": 69,
                    "time": 307.82550249999974,
                    "velocity": 0.41732283464566927,
                    "duration": 0.1574554999999691
                },
                {
                    "name": "E5",
                    "midi": 76,
                    "time": 307.9829579999997,
                    "velocity": 0.5669291338582677,
                    "duration": 0.1889466000000084
                },
                {
                    "name": "C#5",
                    "midi": 73,
                    "time": 308.14041349999974,
                    "velocity": 0.41732283464566927,
                    "duration": 0.18894659999995156
                },
                {
                    "name": "A4",
                    "midi": 69,
                    "time": 308.2978689999997,
                    "velocity": 0.41732283464566927,
                    "duration": 0.1574554999999691
                },
                {
                    "name": "F#5",
                    "midi": 78,
                    "time": 308.4553244999997,
                    "velocity": 0.5590551181102362,
                    "duration": 0.1889466000000084
                },
                {
                    "name": "B4",
                    "midi": 71,
                    "time": 308.6127799999997,
                    "velocity": 0.41732283464566927,
                    "duration": 0.18894659999995156
                },
                {
                    "name": "A4",
                    "midi": 69,
                    "time": 308.77023549999967,
                    "velocity": 0.41732283464566927,
                    "duration": 0.1574554999999691
                },
                {
                    "name": "C#5",
                    "midi": 73,
                    "time": 308.92769099999964,
                    "velocity": 0.5826771653543307,
                    "duration": 0.1889466000000084
                },
                {
                    "name": "A4",
                    "midi": 69,
                    "time": 309.08514649999967,
                    "velocity": 0.41732283464566927,
                    "duration": 0.18894659999995156
                },
                {
                    "name": "E4",
                    "midi": 64,
                    "time": 309.24260199999964,
                    "velocity": 0.41732283464566927,
                    "duration": 0.1574554999999691
                },
                {
                    "name": "C#5",
                    "midi": 73,
                    "time": 309.4000574999996,
                    "velocity": 0.5669291338582677,
                    "duration": 0.1889466000000084
                },
                {
                    "name": "A4",
                    "midi": 69,
                    "time": 309.55751299999963,
                    "velocity": 0.41732283464566927,
                    "duration": 0.18894659999995156
                },
                {
                    "name": "E4",
                    "midi": 64,
                    "time": 309.7149684999996,
                    "velocity": 0.41732283464566927,
                    "duration": 0.1574554999999691
                },
                {
                    "name": "B4",
                    "midi": 71,
                    "time": 309.87242399999957,
                    "velocity": 0.5590551181102362,
                    "duration": 0.1889466000000084
                },
                {
                    "name": "G#4",
                    "midi": 68,
                    "time": 310.0298794999996,
                    "velocity": 0.41732283464566927,
                    "duration": 0.18894659999995156
                },
                {
                    "name": "D4",
                    "midi": 62,
                    "time": 310.18733499999956,
                    "velocity": 0.41732283464566927,
                    "duration": 0.1574554999999691
                },
                {
                    "name": "A4",
                    "midi": 69,
                    "time": 310.34479049999953,
                    "velocity": 0.5826771653543307,
                    "duration": 0.1889466000000084
                },
                {
                    "name": "E4",
                    "midi": 64,
                    "time": 310.50224599999956,
                    "velocity": 0.41732283464566927,
                    "duration": 0.18894659999995156
                },
                {
                    "name": "C#4",
                    "midi": 61,
                    "time": 310.6597014999995,
                    "velocity": 0.41732283464566927,
                    "duration": 0.18894659999995156
                },
                {
                    "name": "A3",
                    "midi": 57,
                    "time": 310.8171569999995,
                    "velocity": 0.5669291338582677,
                    "duration": 0.2361832500000105
                },
                {
                    "name": "C5",
                    "midi": 72,
                    "time": 314.5960889999995,
                    "velocity": 0.3937007874015748,
                    "duration": 0.2361832500000105
                },
                {
                    "name": "B4",
                    "midi": 71,
                    "time": 314.8322722499995,
                    "velocity": 0.3700787401574803,
                    "duration": 0.2361832500000105
                },
                {
                    "name": "A4",
                    "midi": 69,
                    "time": 315.0684554999995,
                    "velocity": 0.3937007874015748,
                    "duration": 0.2361832500000105
                },
                {
                    "name": "B4",
                    "midi": 71,
                    "time": 315.3046387499995,
                    "velocity": 0.36220472440944884,
                    "duration": 0.2361832500000105
                },
                {
                    "name": "C5",
                    "midi": 72,
                    "time": 315.54082199999954,
                    "velocity": 0.3700787401574803,
                    "duration": 0.2361832500000105
                },
                {
                    "name": "D5",
                    "midi": 74,
                    "time": 315.77700524999955,
                    "velocity": 0.3779527559055118,
                    "duration": 0.2361832500000105
                },
                {
                    "name": "E5",
                    "midi": 76,
                    "time": 316.01318849999956,
                    "velocity": 0.3937007874015748,
                    "duration": 0.2361832500000105
                },
                {
                    "name": "D#5",
                    "midi": 75,
                    "time": 316.24937174999957,
                    "velocity": 0.36220472440944884,
                    "duration": 0.2361832500000105
                },
                {
                    "name": "F5",
                    "midi": 77,
                    "time": 316.4855549999996,
                    "velocity": 0.4330708661417323,
                    "duration": 0.2361832500000105
                },
                {
                    "name": "E5",
                    "midi": 76,
                    "time": 316.7217382499996,
                    "velocity": 0.41732283464566927,
                    "duration": 0.2361832500000105
                },
                {
                    "name": "D5",
                    "midi": 74,
                    "time": 316.9579214999996,
                    "velocity": 0.4015748031496063,
                    "duration": 0.2361832500000105
                },
                {
                    "name": "C5",
                    "midi": 72,
                    "time": 317.1941047499996,
                    "velocity": 0.3779527559055118,
                    "duration": 0.2361832500000105
                },
                {
                    "name": "B4",
                    "midi": 71,
                    "time": 317.4302879999996,
                    "velocity": 0.3937007874015748,
                    "duration": 0.2361832500000105
                },
                {
                    "name": "A4",
                    "midi": 69,
                    "time": 317.66647124999963,
                    "velocity": 0.3700787401574803,
                    "duration": 0.2361832500000105
                },
                {
                    "name": "G#4",
                    "midi": 68,
                    "time": 317.90265449999964,
                    "velocity": 0.3937007874015748,
                    "duration": 0.2361832500000105
                },
                {
                    "name": "A4",
                    "midi": 69,
                    "time": 318.13883774999965,
                    "velocity": 0.36220472440944884,
                    "duration": 0.2361832500000105
                },
                {
                    "name": "B4",
                    "midi": 71,
                    "time": 318.37502099999966,
                    "velocity": 0.3700787401574803,
                    "duration": 0.2361832500000105
                },
                {
                    "name": "C5",
                    "midi": 72,
                    "time": 318.6112042499997,
                    "velocity": 0.3779527559055118,
                    "duration": 0.2361832500000105
                },
                {
                    "name": "D5",
                    "midi": 74,
                    "time": 318.8473874999997,
                    "velocity": 0.3937007874015748,
                    "duration": 0.2361832500000105
                },
                {
                    "name": "C#5",
                    "midi": 73,
                    "time": 319.0835707499997,
                    "velocity": 0.36220472440944884,
                    "duration": 0.2361832500000105
                },
                {
                    "name": "E5",
                    "midi": 76,
                    "time": 319.3197539999997,
                    "velocity": 0.4251968503937008,
                    "duration": 0.2361832500000105
                },
                {
                    "name": "D5",
                    "midi": 74,
                    "time": 319.5559372499997,
                    "velocity": 0.4094488188976378,
                    "duration": 0.2361832500000105
                },
                {
                    "name": "C5",
                    "midi": 72,
                    "time": 319.7921204999997,
                    "velocity": 0.4015748031496063,
                    "duration": 0.2361832500000105
                },
                {
                    "name": "B4",
                    "midi": 71,
                    "time": 320.02830374999974,
                    "velocity": 0.3858267716535433,
                    "duration": 0.2361832500000105
                },
                {
                    "name": "A4",
                    "midi": 69,
                    "time": 320.26448699999975,
                    "velocity": 0.3937007874015748,
                    "duration": 0.2361832500000105
                },
                {
                    "name": "E5",
                    "midi": 76,
                    "time": 320.50067024999976,
                    "velocity": 0.3700787401574803,
                    "duration": 0.2361832500000105
                },
                {
                    "name": "D#5",
                    "midi": 75,
                    "time": 320.73685349999977,
                    "velocity": 0.3937007874015748,
                    "duration": 0.2361832500000105
                },
                {
                    "name": "E5",
                    "midi": 76,
                    "time": 320.9730367499998,
                    "velocity": 0.36220472440944884,
                    "duration": 0.2361832500000105
                },
                {
                    "name": "C5",
                    "midi": 72,
                    "time": 321.2092199999998,
                    "velocity": 0.3700787401574803,
                    "duration": 0.2361832500000105
                },
                {
                    "name": "A4",
                    "midi": 69,
                    "time": 321.4454032499998,
                    "velocity": 0.3779527559055118,
                    "duration": 0.2361832500000105
                },
                {
                    "name": "G#4",
                    "midi": 68,
                    "time": 321.6815864999998,
                    "velocity": 0.3937007874015748,
                    "duration": 0.2361832500000105
                },
                {
                    "name": "E5",
                    "midi": 76,
                    "time": 321.9177697499998,
                    "velocity": 0.36220472440944884,
                    "duration": 0.2361832500000105
                },
                {
                    "name": "F5",
                    "midi": 77,
                    "time": 322.15395299999983,
                    "velocity": 0.4330708661417323,
                    "duration": 0.2361832500000105
                },
                {
                    "name": "E5",
                    "midi": 76,
                    "time": 322.39013624999984,
                    "velocity": 0.41732283464566927,
                    "duration": 0.2361832500000105
                },
                {
                    "name": "D5",
                    "midi": 74,
                    "time": 322.62631949999985,
                    "velocity": 0.4015748031496063,
                    "duration": 0.2361832500000105
                },
                {
                    "name": "B4",
                    "midi": 71,
                    "time": 322.86250274999986,
                    "velocity": 0.3779527559055118,
                    "duration": 0.22634228125002664
                },
                {
                    "name": "B4",
                    "midi": 71,
                    "time": 323.0986859999999,
                    "velocity": 0.3937007874015748,
                    "duration": 0.2361832500000105
                },
                {
                    "name": "A4",
                    "midi": 69,
                    "time": 323.3348692499999,
                    "velocity": 0.3700787401574803,
                    "duration": 0.2361832500000105
                },
                {
                    "name": "G#4",
                    "midi": 68,
                    "time": 323.5710524999999,
                    "velocity": 0.3937007874015748,
                    "duration": 0.2361832500000105
                },
                {
                    "name": "A4",
                    "midi": 69,
                    "time": 323.8072357499999,
                    "velocity": 0.36220472440944884,
                    "duration": 0.2361832500000105
                },
                {
                    "name": "B4",
                    "midi": 71,
                    "time": 324.0434189999999,
                    "velocity": 0.3700787401574803,
                    "duration": 0.2361832500000105
                },
                {
                    "name": "C5",
                    "midi": 72,
                    "time": 324.2796022499999,
                    "velocity": 0.3779527559055118,
                    "duration": 0.21846950625001682
                },
                {
                    "name": "C5",
                    "midi": 72,
                    "time": 324.51578549999994,
                    "velocity": 0.3228346456692913,
                    "duration": 0.9447329999999852
                },
                {
                    "name": "A4",
                    "midi": 69,
                    "time": 324.51578549999994,
                    "velocity": 0.3228346456692913,
                    "duration": 0.9447329999999852
                },
                {
                    "name": "G#4",
                    "midi": 68,
                    "time": 325.4605184999999,
                    "velocity": 0.3228346456692913,
                    "duration": 0.472366500000021
                },
                {
                    "name": "B4",
                    "midi": 71,
                    "time": 325.4605184999999,
                    "velocity": 0.3228346456692913,
                    "duration": 0.472366500000021
                },
                {
                    "name": "C6",
                    "midi": 84,
                    "time": 325.93288499999994,
                    "velocity": 0.41732283464566927,
                    "duration": 0.2361832500000105
                },
                {
                    "name": "C5",
                    "midi": 72,
                    "time": 325.93288499999994,
                    "velocity": 0.3464566929133858,
                    "duration": 0.2361832500000105
                },
                {
                    "name": "B4",
                    "midi": 71,
                    "time": 326.16906824999995,
                    "velocity": 0.31496062992125984,
                    "duration": 0.2361832500000105
                },
                {
                    "name": "B5",
                    "midi": 83,
                    "time": 326.16906824999995,
                    "velocity": 0.3779527559055118,
                    "duration": 0.2361832500000105
                },
                {
                    "name": "A4",
                    "midi": 69,
                    "time": 326.40525149999996,
                    "velocity": 0.36220472440944884,
                    "duration": 0.2361832500000105
                },
                {
                    "name": "A5",
                    "midi": 81,
                    "time": 326.40525149999996,
                    "velocity": 0.4330708661417323,
                    "duration": 0.2361832500000105
                },
                {
                    "name": "B4",
                    "midi": 71,
                    "time": 326.64143475,
                    "velocity": 0.3464566929133858,
                    "duration": 0.2361832500000105
                },
                {
                    "name": "B5",
                    "midi": 83,
                    "time": 326.64143475,
                    "velocity": 0.4094488188976378,
                    "duration": 0.2361832500000105
                },
                {
                    "name": "C5",
                    "midi": 72,
                    "time": 326.877618,
                    "velocity": 0.3700787401574803,
                    "duration": 0.2361832500000105
                },
                {
                    "name": "C6",
                    "midi": 84,
                    "time": 326.877618,
                    "velocity": 0.4330708661417323,
                    "duration": 0.2361832500000105
                },
                {
                    "name": "D6",
                    "midi": 86,
                    "time": 327.11380125,
                    "velocity": 0.4094488188976378,
                    "duration": 0.2361832500000105
                },
                {
                    "name": "D5",
                    "midi": 74,
                    "time": 327.11380125,
                    "velocity": 0.33858267716535434,
                    "duration": 0.2361832500000105
                },
                {
                    "name": "E5",
                    "midi": 76,
                    "time": 327.3499845,
                    "velocity": 0.41732283464566927,
                    "duration": 0.2361832500000105
                },
                {
                    "name": "E6",
                    "midi": 88,
                    "time": 327.3499845,
                    "velocity": 0.49606299212598426,
                    "duration": 0.2361832500000105
                },
                {
                    "name": "D#6",
                    "midi": 87,
                    "time": 327.58616775,
                    "velocity": 0.4566929133858268,
                    "duration": 0.2361832500000105
                },
                {
                    "name": "D#5",
                    "midi": 75,
                    "time": 327.58616775,
                    "velocity": 0.33858267716535434,
                    "duration": 0.2361832500000105
                },
                {
                    "name": "F5",
                    "midi": 77,
                    "time": 327.822351,
                    "velocity": 0.41732283464566927,
                    "duration": 0.2361832500000105
                },
                {
                    "name": "F6",
                    "midi": 89,
                    "time": 327.822351,
                    "velocity": 0.49606299212598426,
                    "duration": 0.2361832500000105
                },
                {
                    "name": "E6",
                    "midi": 88,
                    "time": 328.05853425000004,
                    "velocity": 0.47244094488188976,
                    "duration": 0.2361832500000105
                },
                {
                    "name": "E5",
                    "midi": 76,
                    "time": 328.05853425000004,
                    "velocity": 0.3937007874015748,
                    "duration": 0.2361832500000105
                },
                {
                    "name": "D6",
                    "midi": 86,
                    "time": 328.29471750000005,
                    "velocity": 0.5039370078740157,
                    "duration": 0.2361832500000105
                },
                {
                    "name": "D5",
                    "midi": 74,
                    "time": 328.29471750000005,
                    "velocity": 0.4251968503937008,
                    "duration": 0.2361832500000105
                },
                {
                    "name": "C5",
                    "midi": 72,
                    "time": 328.53090075000006,
                    "velocity": 0.3779527559055118,
                    "duration": 0.2361832500000105
                },
                {
                    "name": "C6",
                    "midi": 84,
                    "time": 328.53090075000006,
                    "velocity": 0.44881889763779526,
                    "duration": 0.2361832500000105
                },
                {
                    "name": "B5",
                    "midi": 83,
                    "time": 328.76708400000007,
                    "velocity": 0.5196850393700787,
                    "duration": 0.2361832500000105
                },
                {
                    "name": "B4",
                    "midi": 71,
                    "time": 328.76708400000007,
                    "velocity": 0.4409448818897638,
                    "duration": 0.2361832500000105
                },
                {
                    "name": "A5",
                    "midi": 81,
                    "time": 329.0032672500001,
                    "velocity": 0.4566929133858268,
                    "duration": 0.2361832500000105
                },
                {
                    "name": "A4",
                    "midi": 69,
                    "time": 329.0032672500001,
                    "velocity": 0.3858267716535433,
                    "duration": 0.2361832500000105
                },
                {
                    "name": "G#4",
                    "midi": 68,
                    "time": 329.2394505000001,
                    "velocity": 0.4251968503937008,
                    "duration": 0.2361832500000105
                },
                {
                    "name": "G#5",
                    "midi": 80,
                    "time": 329.2394505000001,
                    "velocity": 0.5039370078740157,
                    "duration": 0.2361832500000105
                },
                {
                    "name": "A5",
                    "midi": 81,
                    "time": 329.4756337500001,
                    "velocity": 0.4566929133858268,
                    "duration": 0.2361832500000105
                },
                {
                    "name": "A4",
                    "midi": 69,
                    "time": 329.4756337500001,
                    "velocity": 0.3858267716535433,
                    "duration": 0.2361832500000105
                },
                {
                    "name": "B5",
                    "midi": 83,
                    "time": 329.7118170000001,
                    "velocity": 0.5039370078740157,
                    "duration": 0.2361832500000105
                },
                {
                    "name": "B4",
                    "midi": 71,
                    "time": 329.7118170000001,
                    "velocity": 0.4251968503937008,
                    "duration": 0.2361832500000105
                },
                {
                    "name": "C6",
                    "midi": 84,
                    "time": 329.9480002500001,
                    "velocity": 0.47244094488188976,
                    "duration": 0.2361832500000105
                },
                {
                    "name": "C5",
                    "midi": 72,
                    "time": 329.9480002500001,
                    "velocity": 0.4015748031496063,
                    "duration": 0.2361832500000105
                },
                {
                    "name": "D5",
                    "midi": 74,
                    "time": 330.18418350000013,
                    "velocity": 0.3858267716535433,
                    "duration": 0.2361832500000105
                },
                {
                    "name": "D6",
                    "midi": 86,
                    "time": 330.18418350000013,
                    "velocity": 0.5196850393700787,
                    "duration": 0.2361832500000105
                },
                {
                    "name": "C#6",
                    "midi": 85,
                    "time": 330.42036675000014,
                    "velocity": 0.47244094488188976,
                    "duration": 0.2361832500000105
                },
                {
                    "name": "C#5",
                    "midi": 73,
                    "time": 330.42036675000014,
                    "velocity": 0.3543307086614173,
                    "duration": 0.2361832500000105
                },
                {
                    "name": "E5",
                    "midi": 76,
                    "time": 330.65655000000015,
                    "velocity": 0.47244094488188976,
                    "duration": 0.2361832500000105
                },
                {
                    "name": "E6",
                    "midi": 88,
                    "time": 330.65655000000015,
                    "velocity": 0.5590551181102362,
                    "duration": 0.2361832500000105
                },
                {
                    "name": "D6",
                    "midi": 86,
                    "time": 330.89273325000016,
                    "velocity": 0.5354330708661418,
                    "duration": 0.2361832500000105
                },
                {
                    "name": "D5",
                    "midi": 74,
                    "time": 330.89273325000016,
                    "velocity": 0.44881889763779526,
                    "duration": 0.2361832500000105
                },
                {
                    "name": "C6",
                    "midi": 84,
                    "time": 331.1289165000002,
                    "velocity": 0.5118110236220472,
                    "duration": 0.2361832500000105
                },
                {
                    "name": "C5",
                    "midi": 72,
                    "time": 331.1289165000002,
                    "velocity": 0.4330708661417323,
                    "duration": 0.2361832500000105
                },
                {
                    "name": "B5",
                    "midi": 83,
                    "time": 331.3650997500002,
                    "velocity": 0.4881889763779528,
                    "duration": 0.2361832500000105
                },
                {
                    "name": "B4",
                    "midi": 71,
                    "time": 331.3650997500002,
                    "velocity": 0.4094488188976378,
                    "duration": 0.2361832500000105
                },
                {
                    "name": "A4",
                    "midi": 69,
                    "time": 331.6012830000002,
                    "velocity": 0.4330708661417323,
                    "duration": 0.2361832500000105
                },
                {
                    "name": "A5",
                    "midi": 81,
                    "time": 331.6012830000002,
                    "velocity": 0.5118110236220472,
                    "duration": 0.2361832500000105
                },
                {
                    "name": "G#4",
                    "midi": 68,
                    "time": 331.8374662500002,
                    "velocity": 0.4015748031496063,
                    "duration": 0.2361832500000105
                },
                {
                    "name": "G#5",
                    "midi": 80,
                    "time": 331.8374662500002,
                    "velocity": 0.47244094488188976,
                    "duration": 0.2361832500000105
                },
                {
                    "name": "A5",
                    "midi": 81,
                    "time": 332.0736495000002,
                    "velocity": 0.5196850393700787,
                    "duration": 0.2361832500000105
                },
                {
                    "name": "A4",
                    "midi": 69,
                    "time": 332.0736495000002,
                    "velocity": 0.4409448818897638,
                    "duration": 0.2361832500000105
                },
                {
                    "name": "C6",
                    "midi": 84,
                    "time": 332.3098327500002,
                    "velocity": 0.47244094488188976,
                    "duration": 0.2361832500000105
                },
                {
                    "name": "C5",
                    "midi": 72,
                    "time": 332.3098327500002,
                    "velocity": 0.4015748031496063,
                    "duration": 0.2361832500000105
                },
                {
                    "name": "B4",
                    "midi": 71,
                    "time": 332.54601600000024,
                    "velocity": 0.41732283464566927,
                    "duration": 0.2361832500000105
                },
                {
                    "name": "B5",
                    "midi": 83,
                    "time": 332.54601600000024,
                    "velocity": 0.49606299212598426,
                    "duration": 0.2361832500000105
                },
                {
                    "name": "D6",
                    "midi": 86,
                    "time": 332.78219925000025,
                    "velocity": 0.49606299212598426,
                    "duration": 0.2361832500000105
                },
                {
                    "name": "D5",
                    "midi": 74,
                    "time": 332.78219925000025,
                    "velocity": 0.41732283464566927,
                    "duration": 0.2361832500000105
                },
                {
                    "name": "C5",
                    "midi": 72,
                    "time": 333.01838250000026,
                    "velocity": 0.4409448818897638,
                    "duration": 0.2361832500000105
                },
                {
                    "name": "C6",
                    "midi": 84,
                    "time": 333.01838250000026,
                    "velocity": 0.5196850393700787,
                    "duration": 0.2361832500000105
                },
                {
                    "name": "B5",
                    "midi": 83,
                    "time": 333.25456575000027,
                    "velocity": 0.47244094488188976,
                    "duration": 0.2361832500000105
                },
                {
                    "name": "B4",
                    "midi": 71,
                    "time": 333.25456575000027,
                    "velocity": 0.4015748031496063,
                    "duration": 0.2361832500000105
                },
                {
                    "name": "C5",
                    "midi": 72,
                    "time": 333.4907490000003,
                    "velocity": 0.47244094488188976,
                    "duration": 0.2361832500000105
                },
                {
                    "name": "C6",
                    "midi": 84,
                    "time": 333.4907490000003,
                    "velocity": 0.5590551181102362,
                    "duration": 0.2361832500000105
                },
                {
                    "name": "E6",
                    "midi": 88,
                    "time": 333.7269322500003,
                    "velocity": 0.5275590551181102,
                    "duration": 0.2361832500000105
                },
                {
                    "name": "E5",
                    "midi": 76,
                    "time": 333.7269322500003,
                    "velocity": 0.4409448818897638,
                    "duration": 0.2361832500000105
                },
                {
                    "name": "D5",
                    "midi": 74,
                    "time": 333.9631155000003,
                    "velocity": 0.4330708661417323,
                    "duration": 0.2361832500000105
                },
                {
                    "name": "D6",
                    "midi": 86,
                    "time": 333.9631155000003,
                    "velocity": 0.5118110236220472,
                    "duration": 0.2361832500000105
                },
                {
                    "name": "F6",
                    "midi": 89,
                    "time": 334.1992987500003,
                    "velocity": 0.5118110236220472,
                    "duration": 0.2361832500000105
                },
                {
                    "name": "F5",
                    "midi": 77,
                    "time": 334.1992987500003,
                    "velocity": 0.4330708661417323,
                    "duration": 0.2361832500000105
                },
                {
                    "name": "E6",
                    "midi": 88,
                    "time": 334.4354820000003,
                    "velocity": 0.5275590551181102,
                    "duration": 0.2361832500000105
                },
                {
                    "name": "E5",
                    "midi": 76,
                    "time": 334.4354820000003,
                    "velocity": 0.4409448818897638,
                    "duration": 0.2361832500000105
                },
                {
                    "name": "D#6",
                    "midi": 87,
                    "time": 334.67166525000033,
                    "velocity": 0.4645669291338583,
                    "duration": 0.2361832500000105
                },
                {
                    "name": "D#5",
                    "midi": 75,
                    "time": 334.67166525000033,
                    "velocity": 0.3937007874015748,
                    "duration": 0.2361832500000105
                },
                {
                    "name": "E5",
                    "midi": 76,
                    "time": 334.90784850000034,
                    "velocity": 0.4409448818897638,
                    "duration": 0.2361832500000105
                },
                {
                    "name": "E6",
                    "midi": 88,
                    "time": 334.90784850000034,
                    "velocity": 0.5196850393700787,
                    "duration": 0.2361832500000105
                },
                {
                    "name": "E5",
                    "midi": 76,
                    "time": 335.14403175000035,
                    "velocity": 0.47244094488188976,
                    "duration": 0.2361832500000105
                },
                {
                    "name": "E4",
                    "midi": 64,
                    "time": 335.14403175000035,
                    "velocity": 0.4015748031496063,
                    "duration": 0.2361832500000105
                },
                {
                    "name": "F#4",
                    "midi": 66,
                    "time": 335.38021500000036,
                    "velocity": 0.41732283464566927,
                    "duration": 0.2361832500000105
                },
                {
                    "name": "F#5",
                    "midi": 78,
                    "time": 335.38021500000036,
                    "velocity": 0.49606299212598426,
                    "duration": 0.2361832500000105
                },
                {
                    "name": "G#5",
                    "midi": 80,
                    "time": 335.6163982500004,
                    "velocity": 0.49606299212598426,
                    "duration": 0.2361832500000105
                },
                {
                    "name": "G#4",
                    "midi": 68,
                    "time": 335.6163982500004,
                    "velocity": 0.41732283464566927,
                    "duration": 0.2361832500000105
                },
                {
                    "name": "A4",
                    "midi": 69,
                    "time": 335.8525815000004,
                    "velocity": 0.41732283464566927,
                    "duration": 0.9447329999999852
                },
                {
                    "name": "A5",
                    "midi": 81,
                    "time": 335.8525815000004,
                    "velocity": 0.49606299212598426,
                    "duration": 0.9447329999999852
                },
                {
                    "name": "C5",
                    "midi": 72,
                    "time": 337.2696810000004,
                    "velocity": 0.3937007874015748,
                    "duration": 0.2361832500000105
                },
                {
                    "name": "B4",
                    "midi": 71,
                    "time": 337.5058642500004,
                    "velocity": 0.3700787401574803,
                    "duration": 0.2361832500000105
                },
                {
                    "name": "A4",
                    "midi": 69,
                    "time": 337.7420475000004,
                    "velocity": 0.3937007874015748,
                    "duration": 0.2361832500000105
                },
                {
                    "name": "B4",
                    "midi": 71,
                    "time": 337.9782307500004,
                    "velocity": 0.36220472440944884,
                    "duration": 0.2361832500000105
                },
                {
                    "name": "C5",
                    "midi": 72,
                    "time": 338.21441400000043,
                    "velocity": 0.3700787401574803,
                    "duration": 0.2361832500000105
                },
                {
                    "name": "D5",
                    "midi": 74,
                    "time": 338.45059725000044,
                    "velocity": 0.3779527559055118,
                    "duration": 0.2361832500000105
                },
                {
                    "name": "E5",
                    "midi": 76,
                    "time": 338.68678050000045,
                    "velocity": 0.3937007874015748,
                    "duration": 0.2361832500000105
                },
                {
                    "name": "D#5",
                    "midi": 75,
                    "time": 338.92296375000046,
                    "velocity": 0.36220472440944884,
                    "duration": 0.2361832500000105
                },
                {
                    "name": "F5",
                    "midi": 77,
                    "time": 339.1591470000005,
                    "velocity": 0.4330708661417323,
                    "duration": 0.2361832500000105
                },
                {
                    "name": "E5",
                    "midi": 76,
                    "time": 339.3953302500005,
                    "velocity": 0.41732283464566927,
                    "duration": 0.2361832500000105
                },
                {
                    "name": "D5",
                    "midi": 74,
                    "time": 339.6315135000005,
                    "velocity": 0.4015748031496063,
                    "duration": 0.2361832500000105
                },
                {
                    "name": "C5",
                    "midi": 72,
                    "time": 339.8676967500005,
                    "velocity": 0.3779527559055118,
                    "duration": 0.2361832500000105
                },
                {
                    "name": "B4",
                    "midi": 71,
                    "time": 340.1038800000005,
                    "velocity": 0.3937007874015748,
                    "duration": 0.2361832500000105
                },
                {
                    "name": "A4",
                    "midi": 69,
                    "time": 340.3400632500005,
                    "velocity": 0.3700787401574803,
                    "duration": 0.2361832500000105
                },
                {
                    "name": "G#4",
                    "midi": 68,
                    "time": 340.57624650000054,
                    "velocity": 0.3937007874015748,
                    "duration": 0.2361832500000105
                },
                {
                    "name": "A4",
                    "midi": 69,
                    "time": 340.81242975000055,
                    "velocity": 0.36220472440944884,
                    "duration": 0.2361832500000105
                },
                {
                    "name": "B4",
                    "midi": 71,
                    "time": 341.04861300000056,
                    "velocity": 0.3700787401574803,
                    "duration": 0.2361832500000105
                },
                {
                    "name": "C5",
                    "midi": 72,
                    "time": 341.28479625000057,
                    "velocity": 0.3779527559055118,
                    "duration": 0.2361832500000105
                },
                {
                    "name": "D5",
                    "midi": 74,
                    "time": 341.5209795000006,
                    "velocity": 0.3937007874015748,
                    "duration": 0.2361832500000105
                },
                {
                    "name": "C#5",
                    "midi": 73,
                    "time": 341.7571627500006,
                    "velocity": 0.36220472440944884,
                    "duration": 0.2361832500000105
                },
                {
                    "name": "E5",
                    "midi": 76,
                    "time": 341.9933460000006,
                    "velocity": 0.4251968503937008,
                    "duration": 0.2361832500000105
                },
                {
                    "name": "D5",
                    "midi": 74,
                    "time": 342.2295292500006,
                    "velocity": 0.4094488188976378,
                    "duration": 0.2361832500000105
                },
                {
                    "name": "C5",
                    "midi": 72,
                    "time": 342.4657125000006,
                    "velocity": 0.4015748031496063,
                    "duration": 0.2361832500000105
                },
                {
                    "name": "B4",
                    "midi": 71,
                    "time": 342.70189575000063,
                    "velocity": 0.3858267716535433,
                    "duration": 0.2361832500000105
                },
                {
                    "name": "A4",
                    "midi": 69,
                    "time": 342.93807900000064,
                    "velocity": 0.3937007874015748,
                    "duration": 0.2361832500000105
                },
                {
                    "name": "E5",
                    "midi": 76,
                    "time": 343.17426225000065,
                    "velocity": 0.3700787401574803,
                    "duration": 0.2361832500000105
                },
                {
                    "name": "D#5",
                    "midi": 75,
                    "time": 343.41044550000066,
                    "velocity": 0.3937007874015748,
                    "duration": 0.2361832500000105
                },
                {
                    "name": "E5",
                    "midi": 76,
                    "time": 343.6466287500007,
                    "velocity": 0.36220472440944884,
                    "duration": 0.2361832500000105
                },
                {
                    "name": "C5",
                    "midi": 72,
                    "time": 343.8828120000007,
                    "velocity": 0.3700787401574803,
                    "duration": 0.2361832500000105
                },
                {
                    "name": "A4",
                    "midi": 69,
                    "time": 344.1189952500007,
                    "velocity": 0.3779527559055118,
                    "duration": 0.2361832500000105
                },
                {
                    "name": "G#4",
                    "midi": 68,
                    "time": 344.3551785000007,
                    "velocity": 0.3937007874015748,
                    "duration": 0.2361832500000105
                },
                {
                    "name": "E5",
                    "midi": 76,
                    "time": 344.5913617500007,
                    "velocity": 0.36220472440944884,
                    "duration": 0.2361832500000105
                },
                {
                    "name": "F5",
                    "midi": 77,
                    "time": 344.8275450000007,
                    "velocity": 0.4330708661417323,
                    "duration": 0.2361832500000105
                },
                {
                    "name": "E5",
                    "midi": 76,
                    "time": 345.06372825000074,
                    "velocity": 0.41732283464566927,
                    "duration": 0.2361832500000105
                },
                {
                    "name": "D5",
                    "midi": 74,
                    "time": 345.29991150000075,
                    "velocity": 0.4015748031496063,
                    "duration": 0.2361832500000105
                },
                {
                    "name": "B4",
                    "midi": 71,
                    "time": 345.53609475000076,
                    "velocity": 0.3779527559055118,
                    "duration": 0.2145331187500119
                },
                {
                    "name": "B4",
                    "midi": 71,
                    "time": 345.77227800000077,
                    "velocity": 0.3937007874015748,
                    "duration": 0.2361832500000105
                },
                {
                    "name": "A4",
                    "midi": 69,
                    "time": 346.0084612500008,
                    "velocity": 0.3700787401574803,
                    "duration": 0.2361832500000105
                },
                {
                    "name": "G#4",
                    "midi": 68,
                    "time": 346.2446445000008,
                    "velocity": 0.3937007874015748,
                    "duration": 0.2361832500000105
                },
                {
                    "name": "A4",
                    "midi": 69,
                    "time": 346.4808277500008,
                    "velocity": 0.36220472440944884,
                    "duration": 0.2361832500000105
                },
                {
                    "name": "B4",
                    "midi": 71,
                    "time": 346.7170110000008,
                    "velocity": 0.3700787401574803,
                    "duration": 0.2361832500000105
                },
                {
                    "name": "C5",
                    "midi": 72,
                    "time": 346.9531942500008,
                    "velocity": 0.3779527559055118,
                    "duration": 0.21650131249998594
                },
                {
                    "name": "C5",
                    "midi": 72,
                    "time": 347.18937750000083,
                    "velocity": 0.3228346456692913,
                    "duration": 0.9447329999999852
                },
                {
                    "name": "A4",
                    "midi": 69,
                    "time": 347.18937750000083,
                    "velocity": 0.3228346456692913,
                    "duration": 0.9447329999999852
                },
                {
                    "name": "G#4",
                    "midi": 68,
                    "time": 348.1341105000008,
                    "velocity": 0.3228346456692913,
                    "duration": 0.472366500000021
                },
                {
                    "name": "B4",
                    "midi": 71,
                    "time": 348.1341105000008,
                    "velocity": 0.3228346456692913,
                    "duration": 0.472366500000021
                },
                {
                    "name": "C6",
                    "midi": 84,
                    "time": 348.60647700000084,
                    "velocity": 0.41732283464566927,
                    "duration": 0.2361832500000105
                },
                {
                    "name": "C5",
                    "midi": 72,
                    "time": 348.60647700000084,
                    "velocity": 0.3464566929133858,
                    "duration": 0.2361832500000105
                },
                {
                    "name": "B5",
                    "midi": 83,
                    "time": 348.84266025000085,
                    "velocity": 0.3779527559055118,
                    "duration": 0.2361832500000105
                },
                {
                    "name": "B4",
                    "midi": 71,
                    "time": 348.84266025000085,
                    "velocity": 0.31496062992125984,
                    "duration": 0.2361832500000105
                },
                {
                    "name": "A4",
                    "midi": 69,
                    "time": 349.07884350000086,
                    "velocity": 0.36220472440944884,
                    "duration": 0.2361832500000105
                },
                {
                    "name": "A5",
                    "midi": 81,
                    "time": 349.07884350000086,
                    "velocity": 0.4330708661417323,
                    "duration": 0.2361832500000105
                },
                {
                    "name": "B4",
                    "midi": 71,
                    "time": 349.31502675000087,
                    "velocity": 0.3464566929133858,
                    "duration": 0.2361832500000105
                },
                {
                    "name": "B5",
                    "midi": 83,
                    "time": 349.31502675000087,
                    "velocity": 0.4094488188976378,
                    "duration": 0.2361832500000105
                },
                {
                    "name": "C5",
                    "midi": 72,
                    "time": 349.5512100000009,
                    "velocity": 0.3700787401574803,
                    "duration": 0.2361832500000105
                },
                {
                    "name": "C6",
                    "midi": 84,
                    "time": 349.5512100000009,
                    "velocity": 0.4330708661417323,
                    "duration": 0.2361832500000105
                },
                {
                    "name": "D6",
                    "midi": 86,
                    "time": 349.7873932500009,
                    "velocity": 0.4094488188976378,
                    "duration": 0.2361832500000105
                },
                {
                    "name": "D5",
                    "midi": 74,
                    "time": 349.7873932500009,
                    "velocity": 0.33858267716535434,
                    "duration": 0.2361832500000105
                },
                {
                    "name": "E6",
                    "midi": 88,
                    "time": 350.0235765000009,
                    "velocity": 0.49606299212598426,
                    "duration": 0.2361832500000105
                },
                {
                    "name": "E5",
                    "midi": 76,
                    "time": 350.0235765000009,
                    "velocity": 0.41732283464566927,
                    "duration": 0.2361832500000105
                },
                {
                    "name": "D#5",
                    "midi": 75,
                    "time": 350.2597597500009,
                    "velocity": 0.33858267716535434,
                    "duration": 0.2361832500000105
                },
                {
                    "name": "D#6",
                    "midi": 87,
                    "time": 350.2597597500009,
                    "velocity": 0.4566929133858268,
                    "duration": 0.2361832500000105
                },
                {
                    "name": "F6",
                    "midi": 89,
                    "time": 350.4959430000009,
                    "velocity": 0.49606299212598426,
                    "duration": 0.2361832500000105
                },
                {
                    "name": "F5",
                    "midi": 77,
                    "time": 350.4959430000009,
                    "velocity": 0.41732283464566927,
                    "duration": 0.2361832500000105
                },
                {
                    "name": "E6",
                    "midi": 88,
                    "time": 350.73212625000093,
                    "velocity": 0.47244094488188976,
                    "duration": 0.2361832500000105
                },
                {
                    "name": "E5",
                    "midi": 76,
                    "time": 350.73212625000093,
                    "velocity": 0.3937007874015748,
                    "duration": 0.2361832500000105
                },
                {
                    "name": "D6",
                    "midi": 86,
                    "time": 350.96830950000094,
                    "velocity": 0.5039370078740157,
                    "duration": 0.2361832500000105
                },
                {
                    "name": "D5",
                    "midi": 74,
                    "time": 350.96830950000094,
                    "velocity": 0.4251968503937008,
                    "duration": 0.2361832500000105
                },
                {
                    "name": "C5",
                    "midi": 72,
                    "time": 351.20449275000095,
                    "velocity": 0.3779527559055118,
                    "duration": 0.2361832500000105
                },
                {
                    "name": "C6",
                    "midi": 84,
                    "time": 351.20449275000095,
                    "velocity": 0.44881889763779526,
                    "duration": 0.2361832500000105
                },
                {
                    "name": "B5",
                    "midi": 83,
                    "time": 351.44067600000096,
                    "velocity": 0.5196850393700787,
                    "duration": 0.2361832500000105
                },
                {
                    "name": "B4",
                    "midi": 71,
                    "time": 351.44067600000096,
                    "velocity": 0.4409448818897638,
                    "duration": 0.2361832500000105
                },
                {
                    "name": "A4",
                    "midi": 69,
                    "time": 351.676859250001,
                    "velocity": 0.3858267716535433,
                    "duration": 0.2361832500000105
                },
                {
                    "name": "A5",
                    "midi": 81,
                    "time": 351.676859250001,
                    "velocity": 0.4566929133858268,
                    "duration": 0.2361832500000105
                },
                {
                    "name": "G#4",
                    "midi": 68,
                    "time": 351.913042500001,
                    "velocity": 0.4251968503937008,
                    "duration": 0.2361832500000105
                },
                {
                    "name": "G#5",
                    "midi": 80,
                    "time": 351.913042500001,
                    "velocity": 0.5039370078740157,
                    "duration": 0.2361832500000105
                },
                {
                    "name": "A4",
                    "midi": 69,
                    "time": 352.149225750001,
                    "velocity": 0.3858267716535433,
                    "duration": 0.2361832500000105
                },
                {
                    "name": "A5",
                    "midi": 81,
                    "time": 352.149225750001,
                    "velocity": 0.4566929133858268,
                    "duration": 0.2361832500000105
                },
                {
                    "name": "B4",
                    "midi": 71,
                    "time": 352.385409000001,
                    "velocity": 0.4251968503937008,
                    "duration": 0.2361832500000105
                },
                {
                    "name": "B5",
                    "midi": 83,
                    "time": 352.385409000001,
                    "velocity": 0.5039370078740157,
                    "duration": 0.2361832500000105
                },
                {
                    "name": "C6",
                    "midi": 84,
                    "time": 352.621592250001,
                    "velocity": 0.47244094488188976,
                    "duration": 0.2361832500000105
                },
                {
                    "name": "C5",
                    "midi": 72,
                    "time": 352.621592250001,
                    "velocity": 0.4015748031496063,
                    "duration": 0.2361832500000105
                },
                {
                    "name": "D5",
                    "midi": 74,
                    "time": 352.857775500001,
                    "velocity": 0.3858267716535433,
                    "duration": 0.2361832500000105
                },
                {
                    "name": "D6",
                    "midi": 86,
                    "time": 352.857775500001,
                    "velocity": 0.5196850393700787,
                    "duration": 0.2361832500000105
                },
                {
                    "name": "C#6",
                    "midi": 85,
                    "time": 353.09395875000104,
                    "velocity": 0.47244094488188976,
                    "duration": 0.2361832500000105
                },
                {
                    "name": "C#5",
                    "midi": 73,
                    "time": 353.09395875000104,
                    "velocity": 0.3543307086614173,
                    "duration": 0.2361832500000105
                },
                {
                    "name": "E6",
                    "midi": 88,
                    "time": 353.33014200000105,
                    "velocity": 0.5590551181102362,
                    "duration": 0.2361832500000105
                },
                {
                    "name": "E5",
                    "midi": 76,
                    "time": 353.33014200000105,
                    "velocity": 0.47244094488188976,
                    "duration": 0.2361832500000105
                },
                {
                    "name": "D5",
                    "midi": 74,
                    "time": 353.56632525000106,
                    "velocity": 0.44881889763779526,
                    "duration": 0.2361832500000105
                },
                {
                    "name": "D6",
                    "midi": 86,
                    "time": 353.56632525000106,
                    "velocity": 0.5354330708661418,
                    "duration": 0.2361832500000105
                },
                {
                    "name": "C6",
                    "midi": 84,
                    "time": 353.80250850000107,
                    "velocity": 0.5118110236220472,
                    "duration": 0.2361832500000105
                },
                {
                    "name": "C5",
                    "midi": 72,
                    "time": 353.80250850000107,
                    "velocity": 0.4330708661417323,
                    "duration": 0.2361832500000105
                },
                {
                    "name": "B4",
                    "midi": 71,
                    "time": 354.0386917500011,
                    "velocity": 0.4094488188976378,
                    "duration": 0.2361832500000105
                },
                {
                    "name": "B5",
                    "midi": 83,
                    "time": 354.0386917500011,
                    "velocity": 0.4881889763779528,
                    "duration": 0.2361832500000105
                },
                {
                    "name": "A5",
                    "midi": 81,
                    "time": 354.2748750000011,
                    "velocity": 0.5118110236220472,
                    "duration": 0.2361832500000105
                },
                {
                    "name": "A4",
                    "midi": 69,
                    "time": 354.2748750000011,
                    "velocity": 0.4330708661417323,
                    "duration": 0.2361832500000105
                },
                {
                    "name": "G#4",
                    "midi": 68,
                    "time": 354.5110582500011,
                    "velocity": 0.4015748031496063,
                    "duration": 0.2361832500000105
                },
                {
                    "name": "G#5",
                    "midi": 80,
                    "time": 354.5110582500011,
                    "velocity": 0.47244094488188976,
                    "duration": 0.2361832500000105
                },
                {
                    "name": "A5",
                    "midi": 81,
                    "time": 354.7472415000011,
                    "velocity": 0.5196850393700787,
                    "duration": 0.2361832500000105
                },
                {
                    "name": "A4",
                    "midi": 69,
                    "time": 354.7472415000011,
                    "velocity": 0.4409448818897638,
                    "duration": 0.2361832500000105
                },
                {
                    "name": "C5",
                    "midi": 72,
                    "time": 354.9834247500011,
                    "velocity": 0.4015748031496063,
                    "duration": 0.2361832500000105
                },
                {
                    "name": "C6",
                    "midi": 84,
                    "time": 354.9834247500011,
                    "velocity": 0.47244094488188976,
                    "duration": 0.2361832500000105
                },
                {
                    "name": "B4",
                    "midi": 71,
                    "time": 355.21960800000113,
                    "velocity": 0.41732283464566927,
                    "duration": 0.2361832500000105
                },
                {
                    "name": "B5",
                    "midi": 83,
                    "time": 355.21960800000113,
                    "velocity": 0.49606299212598426,
                    "duration": 0.2361832500000105
                },
                {
                    "name": "D6",
                    "midi": 86,
                    "time": 355.45579125000114,
                    "velocity": 0.49606299212598426,
                    "duration": 0.2361832500000105
                },
                {
                    "name": "D5",
                    "midi": 74,
                    "time": 355.45579125000114,
                    "velocity": 0.41732283464566927,
                    "duration": 0.2361832500000105
                },
                {
                    "name": "C5",
                    "midi": 72,
                    "time": 355.69197450000115,
                    "velocity": 0.4409448818897638,
                    "duration": 0.2361832500000105
                },
                {
                    "name": "C6",
                    "midi": 84,
                    "time": 355.69197450000115,
                    "velocity": 0.5196850393700787,
                    "duration": 0.2361832500000105
                },
                {
                    "name": "B4",
                    "midi": 71,
                    "time": 355.92815775000116,
                    "velocity": 0.4015748031496063,
                    "duration": 0.2361832500000105
                },
                {
                    "name": "B5",
                    "midi": 83,
                    "time": 355.92815775000116,
                    "velocity": 0.47244094488188976,
                    "duration": 0.2361832500000105
                },
                {
                    "name": "C5",
                    "midi": 72,
                    "time": 356.1643410000012,
                    "velocity": 0.47244094488188976,
                    "duration": 0.2361832500000105
                },
                {
                    "name": "C6",
                    "midi": 84,
                    "time": 356.1643410000012,
                    "velocity": 0.5590551181102362,
                    "duration": 0.2361832500000105
                },
                {
                    "name": "E6",
                    "midi": 88,
                    "time": 356.4005242500012,
                    "velocity": 0.5275590551181102,
                    "duration": 0.2361832500000105
                },
                {
                    "name": "E5",
                    "midi": 76,
                    "time": 356.4005242500012,
                    "velocity": 0.4409448818897638,
                    "duration": 0.2361832500000105
                },
                {
                    "name": "D6",
                    "midi": 86,
                    "time": 356.6367075000012,
                    "velocity": 0.5118110236220472,
                    "duration": 0.2361832500000105
                },
                {
                    "name": "D5",
                    "midi": 74,
                    "time": 356.6367075000012,
                    "velocity": 0.4330708661417323,
                    "duration": 0.2361832500000105
                },
                {
                    "name": "F5",
                    "midi": 77,
                    "time": 356.8728907500012,
                    "velocity": 0.4330708661417323,
                    "duration": 0.2361832500000105
                },
                {
                    "name": "F6",
                    "midi": 89,
                    "time": 356.8728907500012,
                    "velocity": 0.5118110236220472,
                    "duration": 0.2361832500000105
                },
                {
                    "name": "E6",
                    "midi": 88,
                    "time": 357.1090740000012,
                    "velocity": 0.5275590551181102,
                    "duration": 0.2361832500000105
                },
                {
                    "name": "E5",
                    "midi": 76,
                    "time": 357.1090740000012,
                    "velocity": 0.4409448818897638,
                    "duration": 0.2361832500000105
                },
                {
                    "name": "D#6",
                    "midi": 87,
                    "time": 357.3452572500012,
                    "velocity": 0.4645669291338583,
                    "duration": 0.2361832500000105
                },
                {
                    "name": "D#5",
                    "midi": 75,
                    "time": 357.3452572500012,
                    "velocity": 0.3937007874015748,
                    "duration": 0.2361832500000105
                },
                {
                    "name": "E6",
                    "midi": 88,
                    "time": 357.58144050000124,
                    "velocity": 0.5196850393700787,
                    "duration": 0.2361832500000105
                },
                {
                    "name": "E5",
                    "midi": 76,
                    "time": 357.58144050000124,
                    "velocity": 0.4409448818897638,
                    "duration": 0.2361832500000105
                },
                {
                    "name": "E5",
                    "midi": 76,
                    "time": 357.81762375000125,
                    "velocity": 0.47244094488188976,
                    "duration": 0.2361832500000105
                },
                {
                    "name": "E4",
                    "midi": 64,
                    "time": 357.81762375000125,
                    "velocity": 0.4015748031496063,
                    "duration": 0.2361832500000105
                },
                {
                    "name": "F#4",
                    "midi": 66,
                    "time": 358.05380700000126,
                    "velocity": 0.41732283464566927,
                    "duration": 0.2361832500000105
                },
                {
                    "name": "F#5",
                    "midi": 78,
                    "time": 358.05380700000126,
                    "velocity": 0.49606299212598426,
                    "duration": 0.2361832500000105
                },
                {
                    "name": "G#5",
                    "midi": 80,
                    "time": 358.28999025000127,
                    "velocity": 0.49606299212598426,
                    "duration": 0.2361832500000105
                },
                {
                    "name": "G#4",
                    "midi": 68,
                    "time": 358.28999025000127,
                    "velocity": 0.41732283464566927,
                    "duration": 0.2361832500000105
                },
                {
                    "name": "A4",
                    "midi": 69,
                    "time": 358.5261735000013,
                    "velocity": 0.41732283464566927,
                    "duration": 0.9447329999999852
                },
                {
                    "name": "A5",
                    "midi": 81,
                    "time": 358.5261735000013,
                    "velocity": 0.49606299212598426,
                    "duration": 0.9447329999999852
                },
                {
                    "name": "A4",
                    "midi": 69,
                    "time": 359.9432730000013,
                    "velocity": 0.3937007874015748,
                    "duration": 0.2361832500000105
                },
                {
                    "name": "G#4",
                    "midi": 68,
                    "time": 360.1794562500013,
                    "velocity": 0.36220472440944884,
                    "duration": 0.2361832500000105
                },
                {
                    "name": "A4",
                    "midi": 69,
                    "time": 360.4156395000013,
                    "velocity": 0.3937007874015748,
                    "duration": 0.2361832500000105
                },
                {
                    "name": "A5",
                    "midi": 81,
                    "time": 360.6518227500013,
                    "velocity": 0.4330708661417323,
                    "duration": 0.2361832500000105
                },
                {
                    "name": "G#5",
                    "midi": 80,
                    "time": 360.8880060000013,
                    "velocity": 0.4251968503937008,
                    "duration": 0.2361832500000105
                },
                {
                    "name": "G5",
                    "midi": 79,
                    "time": 361.12418925000134,
                    "velocity": 0.41732283464566927,
                    "duration": 0.21256492499998103
                },
                {
                    "name": "G5",
                    "midi": 79,
                    "time": 361.3603725000013,
                    "velocity": 0.3937007874015748,
                    "duration": 0.2361832500000105
                },
                {
                    "name": "F5",
                    "midi": 77,
                    "time": 361.5965557500013,
                    "velocity": 0.3779527559055118,
                    "duration": 0.2361832500000105
                },
                {
                    "name": "E5",
                    "midi": 76,
                    "time": 361.8327390000013,
                    "velocity": 0.3779527559055118,
                    "duration": 0.2361832500000105
                },
                {
                    "name": "F5",
                    "midi": 77,
                    "time": 362.0689222500013,
                    "velocity": 0.3779527559055118,
                    "duration": 0.2361832500000105
                },
                {
                    "name": "E5",
                    "midi": 76,
                    "time": 362.30510550000133,
                    "velocity": 0.3937007874015748,
                    "duration": 0.2361832500000105
                },
                {
                    "name": "F5",
                    "midi": 77,
                    "time": 362.54128875000134,
                    "velocity": 0.3779527559055118,
                    "duration": 0.2361832500000105
                },
                {
                    "name": "A5",
                    "midi": 81,
                    "time": 362.77747200000135,
                    "velocity": 0.3937007874015748,
                    "duration": 0.2361832500000105
                },
                {
                    "name": "G#5",
                    "midi": 80,
                    "time": 363.01365525000136,
                    "velocity": 0.3543307086614173,
                    "duration": 0.2361832500000105
                },
                {
                    "name": "A5",
                    "midi": 81,
                    "time": 363.2498385000014,
                    "velocity": 0.3937007874015748,
                    "duration": 0.2361832500000105
                },
                {
                    "name": "G#5",
                    "midi": 80,
                    "time": 363.4860217500014,
                    "velocity": 0.3543307086614173,
                    "duration": 0.2361832500000105
                },
                {
                    "name": "A5",
                    "midi": 81,
                    "time": 363.7222050000014,
                    "velocity": 0.3937007874015748,
                    "duration": 0.2361832500000105
                },
                {
                    "name": "F5",
                    "midi": 77,
                    "time": 363.9583882500014,
                    "velocity": 0.36220472440944884,
                    "duration": 0.21256492499998103
                },
                {
                    "name": "F5",
                    "midi": 77,
                    "time": 364.19457150000136,
                    "velocity": 0.3937007874015748,
                    "duration": 0.2361832500000105
                },
                {
                    "name": "E5",
                    "midi": 76,
                    "time": 364.43075475000137,
                    "velocity": 0.3700787401574803,
                    "duration": 0.2361832500000105
                },
                {
                    "name": "D#5",
                    "midi": 75,
                    "time": 364.6669380000014,
                    "velocity": 0.3700787401574803,
                    "duration": 0.2361832500000105
                },
                {
                    "name": "E5",
                    "midi": 76,
                    "time": 364.9031212500014,
                    "velocity": 0.3700787401574803,
                    "duration": 0.2361832500000105
                },
                {
                    "name": "D#5",
                    "midi": 75,
                    "time": 365.1393045000014,
                    "velocity": 0.3937007874015748,
                    "duration": 0.2361832500000105
                },
                {
                    "name": "E5",
                    "midi": 76,
                    "time": 365.3754877500014,
                    "velocity": 0.3543307086614173,
                    "duration": 0.21256492499998103
                },
                {
                    "name": "E5",
                    "midi": 76,
                    "time": 365.61167100000137,
                    "velocity": 0.3937007874015748,
                    "duration": 0.2361832500000105
                },
                {
                    "name": "D5",
                    "midi": 74,
                    "time": 365.8478542500014,
                    "velocity": 0.36220472440944884,
                    "duration": 0.2361832500000105
                },
                {
                    "name": "C5",
                    "midi": 72,
                    "time": 366.0840375000014,
                    "velocity": 0.36220472440944884,
                    "duration": 0.2361832500000105
                },
                {
                    "name": "B4",
                    "midi": 71,
                    "time": 366.3202207500014,
                    "velocity": 0.36220472440944884,
                    "duration": 0.2361832500000105
                },
                {
                    "name": "A4",
                    "midi": 69,
                    "time": 366.5564040000014,
                    "velocity": 0.3464566929133858,
                    "duration": 0.2361832500000105
                },
                {
                    "name": "E5",
                    "midi": 76,
                    "time": 366.7925872500014,
                    "velocity": 0.3937007874015748,
                    "duration": 0.2361832500000105
                },
                {
                    "name": "F5",
                    "midi": 77,
                    "time": 367.02877050000143,
                    "velocity": 0.3700787401574803,
                    "duration": 0.2361832500000105
                },
                {
                    "name": "D5",
                    "midi": 74,
                    "time": 367.26495375000144,
                    "velocity": 0.3700787401574803,
                    "duration": 0.2361832500000105
                },
                {
                    "name": "B4",
                    "midi": 71,
                    "time": 367.50113700000145,
                    "velocity": 0.3700787401574803,
                    "duration": 0.2361832500000105
                },
                {
                    "name": "A4",
                    "midi": 69,
                    "time": 367.73732025000146,
                    "velocity": 0.3700787401574803,
                    "duration": 0.2361832500000105
                },
                {
                    "name": "G#4",
                    "midi": 68,
                    "time": 367.97350350000147,
                    "velocity": 0.3937007874015748,
                    "duration": 0.2361832500000105
                },
                {
                    "name": "B4",
                    "midi": 71,
                    "time": 368.2096867500015,
                    "velocity": 0.3700787401574803,
                    "duration": 0.21256492499998103
                },
                {
                    "name": "B4",
                    "midi": 71,
                    "time": 368.44587000000143,
                    "velocity": 0.3937007874015748,
                    "duration": 0.2361832500000105
                },
                {
                    "name": "A4",
                    "midi": 69,
                    "time": 368.68205325000145,
                    "velocity": 0.33858267716535434,
                    "duration": 0.2361832500000105
                },
                {
                    "name": "C5",
                    "midi": 72,
                    "time": 368.91823650000146,
                    "velocity": 0.4330708661417323,
                    "duration": 0.2361832500000105
                },
                {
                    "name": "B4",
                    "midi": 71,
                    "time": 369.15441975000147,
                    "velocity": 0.3858267716535433,
                    "duration": 0.2361832500000105
                },
                {
                    "name": "D5",
                    "midi": 74,
                    "time": 369.3906030000015,
                    "velocity": 0.4566929133858268,
                    "duration": 0.2361832500000105
                },
                {
                    "name": "C5",
                    "midi": 72,
                    "time": 369.6267862500015,
                    "velocity": 0.4015748031496063,
                    "duration": 0.2361832500000105
                },
                {
                    "name": "B4",
                    "midi": 71,
                    "time": 369.8629695000015,
                    "velocity": 0.4251968503937008,
                    "duration": 0.07872774999998455
                },
                {
                    "name": "C5",
                    "midi": 72,
                    "time": 369.9416972500015,
                    "velocity": 0.4409448818897638,
                    "duration": 0.07872774999998455
                },
                {
                    "name": "D5",
                    "midi": 74,
                    "time": 370.02042500000147,
                    "velocity": 0.4566929133858268,
                    "duration": 0.07872774999998455
                },
                {
                    "name": "A4",
                    "midi": 69,
                    "time": 370.09915275000145,
                    "velocity": 0.4330708661417323,
                    "duration": 0.7085497499999747
                },
                {
                    "name": "C5",
                    "midi": 72,
                    "time": 370.09915275000145,
                    "velocity": 0.5118110236220472,
                    "duration": 0.7085497499999747
                },
                {
                    "name": "G#4",
                    "midi": 68,
                    "time": 370.8077025000014,
                    "velocity": 0.28346456692913385,
                    "duration": 0.35427487499998733
                },
                {
                    "name": "B4",
                    "midi": 71,
                    "time": 370.8077025000014,
                    "velocity": 0.4015748031496063,
                    "duration": 0.35427487499998733
                },
                {
                    "name": "C5",
                    "midi": 72,
                    "time": 371.2800690000014,
                    "velocity": 0.3937007874015748,
                    "duration": 0.2361832500000105
                },
                {
                    "name": "B4",
                    "midi": 71,
                    "time": 371.5162522500014,
                    "velocity": 0.3700787401574803,
                    "duration": 0.2361832500000105
                },
                {
                    "name": "A4",
                    "midi": 69,
                    "time": 371.7524355000014,
                    "velocity": 0.3937007874015748,
                    "duration": 0.2361832500000105
                },
                {
                    "name": "B4",
                    "midi": 71,
                    "time": 371.9886187500014,
                    "velocity": 0.36220472440944884,
                    "duration": 0.2361832500000105
                },
                {
                    "name": "C5",
                    "midi": 72,
                    "time": 372.22480200000143,
                    "velocity": 0.3700787401574803,
                    "duration": 0.2361832500000105
                },
                {
                    "name": "D5",
                    "midi": 74,
                    "time": 372.46098525000144,
                    "velocity": 0.3779527559055118,
                    "duration": 0.2361832500000105
                },
                {
                    "name": "E5",
                    "midi": 76,
                    "time": 372.69716850000145,
                    "velocity": 0.3937007874015748,
                    "duration": 0.2361832500000105
                },
                {
                    "name": "D#5",
                    "midi": 75,
                    "time": 372.93335175000146,
                    "velocity": 0.36220472440944884,
                    "duration": 0.2361832500000105
                },
                {
                    "name": "F5",
                    "midi": 77,
                    "time": 373.1695350000015,
                    "velocity": 0.4330708661417323,
                    "duration": 0.2361832500000105
                },
                {
                    "name": "E5",
                    "midi": 76,
                    "time": 373.4057182500015,
                    "velocity": 0.41732283464566927,
                    "duration": 0.2361832500000105
                },
                {
                    "name": "D5",
                    "midi": 74,
                    "time": 373.6419015000015,
                    "velocity": 0.4015748031496063,
                    "duration": 0.2361832500000105
                },
                {
                    "name": "C5",
                    "midi": 72,
                    "time": 373.8780847500015,
                    "velocity": 0.3779527559055118,
                    "duration": 0.2361832500000105
                },
                {
                    "name": "B4",
                    "midi": 71,
                    "time": 374.1142680000015,
                    "velocity": 0.3937007874015748,
                    "duration": 0.2361832500000105
                },
                {
                    "name": "A4",
                    "midi": 69,
                    "time": 374.3504512500015,
                    "velocity": 0.3700787401574803,
                    "duration": 0.2361832500000105
                },
                {
                    "name": "G#4",
                    "midi": 68,
                    "time": 374.58663450000154,
                    "velocity": 0.3937007874015748,
                    "duration": 0.2361832500000105
                },
                {
                    "name": "A4",
                    "midi": 69,
                    "time": 374.82281775000155,
                    "velocity": 0.36220472440944884,
                    "duration": 0.2361832500000105
                },
                {
                    "name": "B4",
                    "midi": 71,
                    "time": 375.05900100000156,
                    "velocity": 0.3700787401574803,
                    "duration": 0.2361832500000105
                },
                {
                    "name": "C5",
                    "midi": 72,
                    "time": 375.29518425000157,
                    "velocity": 0.3779527559055118,
                    "duration": 0.2361832500000105
                },
                {
                    "name": "D5",
                    "midi": 74,
                    "time": 375.5313675000016,
                    "velocity": 0.3937007874015748,
                    "duration": 0.2361832500000105
                },
                {
                    "name": "C#5",
                    "midi": 73,
                    "time": 375.7675507500016,
                    "velocity": 0.36220472440944884,
                    "duration": 0.2361832500000105
                },
                {
                    "name": "E5",
                    "midi": 76,
                    "time": 376.0037340000016,
                    "velocity": 0.4251968503937008,
                    "duration": 0.2361832500000105
                },
                {
                    "name": "D5",
                    "midi": 74,
                    "time": 376.2399172500016,
                    "velocity": 0.4094488188976378,
                    "duration": 0.2361832500000105
                },
                {
                    "name": "C5",
                    "midi": 72,
                    "time": 376.4761005000016,
                    "velocity": 0.4015748031496063,
                    "duration": 0.2361832500000105
                },
                {
                    "name": "B4",
                    "midi": 71,
                    "time": 376.71228375000163,
                    "velocity": 0.3858267716535433,
                    "duration": 0.2361832500000105
                },
                {
                    "name": "A4",
                    "midi": 69,
                    "time": 376.94846700000164,
                    "velocity": 0.3937007874015748,
                    "duration": 0.2361832500000105
                },
                {
                    "name": "G#4",
                    "midi": 68,
                    "time": 377.18465025000165,
                    "velocity": 0.3700787401574803,
                    "duration": 0.2361832500000105
                },
                {
                    "name": "A4",
                    "midi": 69,
                    "time": 377.42083350000166,
                    "velocity": 0.3937007874015748,
                    "duration": 0.2361832500000105
                },
                {
                    "name": "C5",
                    "midi": 72,
                    "time": 377.6570167500017,
                    "velocity": 0.36220472440944884,
                    "duration": 0.2361832500000105
                },
                {
                    "name": "B4",
                    "midi": 71,
                    "time": 377.8932000000017,
                    "velocity": 0.4094488188976378,
                    "duration": 0.2361832500000105
                },
                {
                    "name": "D5",
                    "midi": 74,
                    "time": 378.1293832500017,
                    "velocity": 0.3779527559055118,
                    "duration": 0.2361832500000105
                },
                {
                    "name": "C5",
                    "midi": 72,
                    "time": 378.3655665000017,
                    "velocity": 0.4409448818897638,
                    "duration": 0.2361832500000105
                },
                {
                    "name": "B4",
                    "midi": 71,
                    "time": 378.6017497500017,
                    "velocity": 0.3937007874015748,
                    "duration": 0.2361832500000105
                },
                {
                    "name": "C5",
                    "midi": 72,
                    "time": 378.8379330000017,
                    "velocity": 0.4251968503937008,
                    "duration": 0.2361832500000105
                },
                {
                    "name": "E5",
                    "midi": 76,
                    "time": 379.07411625000174,
                    "velocity": 0.3937007874015748,
                    "duration": 0.2361832500000105
                },
                {
                    "name": "D5",
                    "midi": 74,
                    "time": 379.31029950000175,
                    "velocity": 0.4330708661417323,
                    "duration": 0.2361832500000105
                },
                {
                    "name": "F5",
                    "midi": 77,
                    "time": 379.54648275000176,
                    "velocity": 0.3779527559055118,
                    "duration": 0.2361832500000105
                },
                {
                    "name": "E5",
                    "midi": 76,
                    "time": 379.78266600000177,
                    "velocity": 0.47244094488188976,
                    "duration": 0.2361832500000105
                },
                {
                    "name": "D#5",
                    "midi": 75,
                    "time": 380.0188492500018,
                    "velocity": 0.4251968503937008,
                    "duration": 0.2361832500000105
                },
                {
                    "name": "E5",
                    "midi": 76,
                    "time": 380.2550325000018,
                    "velocity": 0.4409448818897638,
                    "duration": 0.2361832500000105
                },
                {
                    "name": "E4",
                    "midi": 64,
                    "time": 380.4912157500018,
                    "velocity": 0.33858267716535434,
                    "duration": 0.2361832500000105
                },
                {
                    "name": "F#4",
                    "midi": 66,
                    "time": 380.7273990000018,
                    "velocity": 0.33858267716535434,
                    "duration": 0.2361832500000105
                },
                {
                    "name": "G#4",
                    "midi": 68,
                    "time": 380.9635822500018,
                    "velocity": 0.36220472440944884,
                    "duration": 0.2361832500000105
                },
                {
                    "name": "A4",
                    "midi": 69,
                    "time": 381.19976550000183,
                    "velocity": 0.4015748031496063,
                    "duration": 0.2361832500000105
                },
                {
                    "name": "G#4",
                    "midi": 68,
                    "time": 381.43594875000184,
                    "velocity": 0.3464566929133858,
                    "duration": 0.2361832500000105
                },
                {
                    "name": "A4",
                    "midi": 69,
                    "time": 381.67213200000185,
                    "velocity": 0.3937007874015748,
                    "duration": 0.2361832500000105
                },
                {
                    "name": "E4",
                    "midi": 64,
                    "time": 381.90831525000186,
                    "velocity": 0.3543307086614173,
                    "duration": 0.2361832500000105
                },
                {
                    "name": "C4",
                    "midi": 60,
                    "time": 382.1444985000019,
                    "velocity": 0.3858267716535433,
                    "duration": 0.2361832500000105
                },
                {
                    "name": "E4",
                    "midi": 64,
                    "time": 382.3806817500019,
                    "velocity": 0.36220472440944884,
                    "duration": 0.2361832500000105
                },
                {
                    "name": "A4",
                    "midi": 69,
                    "time": 382.6168650000019,
                    "velocity": 0.4330708661417323,
                    "duration": 0.2361832500000105
                },
                {
                    "name": "A5",
                    "midi": 81,
                    "time": 382.6168650000019,
                    "velocity": 0.5118110236220472,
                    "duration": 0.2361832500000105
                },
                {
                    "name": "G#5",
                    "midi": 80,
                    "time": 382.8530482500019,
                    "velocity": 0.47244094488188976,
                    "duration": 0.2361832500000105
                },
                {
                    "name": "G#4",
                    "midi": 68,
                    "time": 382.8530482500019,
                    "velocity": 0.4015748031496063,
                    "duration": 0.2361832500000105
                },
                {
                    "name": "A5",
                    "midi": 81,
                    "time": 383.0892315000019,
                    "velocity": 0.5196850393700787,
                    "duration": 0.2361832500000105
                },
                {
                    "name": "A4",
                    "midi": 69,
                    "time": 383.0892315000019,
                    "velocity": 0.4409448818897638,
                    "duration": 0.2361832500000105
                },
                {
                    "name": "C5",
                    "midi": 72,
                    "time": 383.3254147500019,
                    "velocity": 0.4015748031496063,
                    "duration": 0.2361832500000105
                },
                {
                    "name": "C6",
                    "midi": 84,
                    "time": 383.3254147500019,
                    "velocity": 0.47244094488188976,
                    "duration": 0.2361832500000105
                },
                {
                    "name": "B5",
                    "midi": 83,
                    "time": 383.56159800000194,
                    "velocity": 0.49606299212598426,
                    "duration": 0.2361832500000105
                },
                {
                    "name": "B4",
                    "midi": 71,
                    "time": 383.56159800000194,
                    "velocity": 0.41732283464566927,
                    "duration": 0.2361832500000105
                },
                {
                    "name": "D6",
                    "midi": 86,
                    "time": 383.79778125000195,
                    "velocity": 0.49606299212598426,
                    "duration": 0.2361832500000105
                },
                {
                    "name": "D5",
                    "midi": 74,
                    "time": 383.79778125000195,
                    "velocity": 0.41732283464566927,
                    "duration": 0.2361832500000105
                },
                {
                    "name": "C5",
                    "midi": 72,
                    "time": 384.03396450000196,
                    "velocity": 0.4409448818897638,
                    "duration": 0.2361832500000105
                },
                {
                    "name": "C6",
                    "midi": 84,
                    "time": 384.03396450000196,
                    "velocity": 0.5196850393700787,
                    "duration": 0.2361832500000105
                },
                {
                    "name": "B4",
                    "midi": 71,
                    "time": 384.27014775000197,
                    "velocity": 0.4015748031496063,
                    "duration": 0.2361832500000105
                },
                {
                    "name": "B5",
                    "midi": 83,
                    "time": 384.27014775000197,
                    "velocity": 0.47244094488188976,
                    "duration": 0.2361832500000105
                },
                {
                    "name": "C6",
                    "midi": 84,
                    "time": 384.506331000002,
                    "velocity": 0.5590551181102362,
                    "duration": 0.2361832500000105
                },
                {
                    "name": "C5",
                    "midi": 72,
                    "time": 384.506331000002,
                    "velocity": 0.47244094488188976,
                    "duration": 0.2361832500000105
                },
                {
                    "name": "E6",
                    "midi": 88,
                    "time": 384.742514250002,
                    "velocity": 0.5275590551181102,
                    "duration": 0.2361832500000105
                },
                {
                    "name": "E5",
                    "midi": 76,
                    "time": 384.742514250002,
                    "velocity": 0.4409448818897638,
                    "duration": 0.2361832500000105
                },
                {
                    "name": "D5",
                    "midi": 74,
                    "time": 384.978697500002,
                    "velocity": 0.4330708661417323,
                    "duration": 0.2361832500000105
                },
                {
                    "name": "D6",
                    "midi": 86,
                    "time": 384.978697500002,
                    "velocity": 0.5118110236220472,
                    "duration": 0.2361832500000105
                },
                {
                    "name": "F5",
                    "midi": 77,
                    "time": 385.214880750002,
                    "velocity": 0.4330708661417323,
                    "duration": 0.2361832500000105
                },
                {
                    "name": "F6",
                    "midi": 89,
                    "time": 385.214880750002,
                    "velocity": 0.5118110236220472,
                    "duration": 0.2361832500000105
                },
                {
                    "name": "E5",
                    "midi": 76,
                    "time": 385.451064000002,
                    "velocity": 0.4409448818897638,
                    "duration": 0.2361832500000105
                },
                {
                    "name": "E6",
                    "midi": 88,
                    "time": 385.451064000002,
                    "velocity": 0.5275590551181102,
                    "duration": 0.2361832500000105
                },
                {
                    "name": "D#6",
                    "midi": 87,
                    "time": 385.68724725000203,
                    "velocity": 0.4645669291338583,
                    "duration": 0.2361832500000105
                },
                {
                    "name": "D#5",
                    "midi": 75,
                    "time": 385.68724725000203,
                    "velocity": 0.3937007874015748,
                    "duration": 0.2361832500000105
                },
                {
                    "name": "E5",
                    "midi": 76,
                    "time": 385.92343050000204,
                    "velocity": 0.4409448818897638,
                    "duration": 0.2361832500000105
                },
                {
                    "name": "E6",
                    "midi": 88,
                    "time": 385.92343050000204,
                    "velocity": 0.5196850393700787,
                    "duration": 0.2361832500000105
                },
                {
                    "name": "E4",
                    "midi": 64,
                    "time": 386.15961375000205,
                    "velocity": 0.4015748031496063,
                    "duration": 0.2361832500000105
                },
                {
                    "name": "E5",
                    "midi": 76,
                    "time": 386.15961375000205,
                    "velocity": 0.47244094488188976,
                    "duration": 0.2361832500000105
                },
                {
                    "name": "F#5",
                    "midi": 78,
                    "time": 386.39579700000206,
                    "velocity": 0.49606299212598426,
                    "duration": 0.2361832500000105
                },
                {
                    "name": "F#4",
                    "midi": 66,
                    "time": 386.39579700000206,
                    "velocity": 0.41732283464566927,
                    "duration": 0.2361832500000105
                },
                {
                    "name": "G#5",
                    "midi": 80,
                    "time": 386.6319802500021,
                    "velocity": 0.49606299212598426,
                    "duration": 0.2361832500000105
                },
                {
                    "name": "G#4",
                    "midi": 68,
                    "time": 386.6319802500021,
                    "velocity": 0.41732283464566927,
                    "duration": 0.2361832500000105
                },
                {
                    "name": "A5",
                    "midi": 81,
                    "time": 386.8681635000021,
                    "velocity": 0.49606299212598426,
                    "duration": 0.9447329999999852
                },
                {
                    "name": "A4",
                    "midi": 69,
                    "time": 386.8681635000021,
                    "velocity": 0.41732283464566927,
                    "duration": 0.9447329999999852
                },
                {
                    "name": "A4",
                    "midi": 69,
                    "time": 388.2852630000021,
                    "velocity": 0.3937007874015748,
                    "duration": 0.2361832500000105
                },
                {
                    "name": "G#4",
                    "midi": 68,
                    "time": 388.5214462500021,
                    "velocity": 0.36220472440944884,
                    "duration": 0.2361832500000105
                },
                {
                    "name": "A4",
                    "midi": 69,
                    "time": 388.7576295000021,
                    "velocity": 0.3937007874015748,
                    "duration": 0.2361832500000105
                },
                {
                    "name": "A5",
                    "midi": 81,
                    "time": 388.9938127500021,
                    "velocity": 0.4330708661417323,
                    "duration": 0.2361832500000105
                },
                {
                    "name": "G#5",
                    "midi": 80,
                    "time": 389.22999600000213,
                    "velocity": 0.4251968503937008,
                    "duration": 0.2361832500000105
                },
                {
                    "name": "G5",
                    "midi": 79,
                    "time": 389.46617925000214,
                    "velocity": 0.41732283464566927,
                    "duration": 0.21256492499998103
                },
                {
                    "name": "G5",
                    "midi": 79,
                    "time": 389.7023625000021,
                    "velocity": 0.3937007874015748,
                    "duration": 0.2361832500000105
                },
                {
                    "name": "F5",
                    "midi": 77,
                    "time": 389.9385457500021,
                    "velocity": 0.3779527559055118,
                    "duration": 0.2361832500000105
                },
                {
                    "name": "E5",
                    "midi": 76,
                    "time": 390.1747290000021,
                    "velocity": 0.3779527559055118,
                    "duration": 0.2361832500000105
                },
                {
                    "name": "F5",
                    "midi": 77,
                    "time": 390.4109122500021,
                    "velocity": 0.3779527559055118,
                    "duration": 0.2361832500000105
                },
                {
                    "name": "E5",
                    "midi": 76,
                    "time": 390.64709550000214,
                    "velocity": 0.3937007874015748,
                    "duration": 0.2361832500000105
                },
                {
                    "name": "F5",
                    "midi": 77,
                    "time": 390.88327875000215,
                    "velocity": 0.3779527559055118,
                    "duration": 0.2361832500000105
                },
                {
                    "name": "A5",
                    "midi": 81,
                    "time": 391.11946200000216,
                    "velocity": 0.3937007874015748,
                    "duration": 0.2361832500000105
                },
                {
                    "name": "G#5",
                    "midi": 80,
                    "time": 391.35564525000217,
                    "velocity": 0.3543307086614173,
                    "duration": 0.2361832500000105
                },
                {
                    "name": "A5",
                    "midi": 81,
                    "time": 391.5918285000022,
                    "velocity": 0.3937007874015748,
                    "duration": 0.2361832500000105
                },
                {
                    "name": "G#5",
                    "midi": 80,
                    "time": 391.8280117500022,
                    "velocity": 0.3543307086614173,
                    "duration": 0.2361832500000105
                },
                {
                    "name": "A5",
                    "midi": 81,
                    "time": 392.0641950000022,
                    "velocity": 0.3937007874015748,
                    "duration": 0.2361832500000105
                },
                {
                    "name": "F5",
                    "midi": 77,
                    "time": 392.3003782500022,
                    "velocity": 0.36220472440944884,
                    "duration": 0.21256492499998103
                },
                {
                    "name": "F5",
                    "midi": 77,
                    "time": 392.53656150000216,
                    "velocity": 0.3937007874015748,
                    "duration": 0.2361832500000105
                },
                {
                    "name": "E5",
                    "midi": 76,
                    "time": 392.7727447500022,
                    "velocity": 0.3700787401574803,
                    "duration": 0.2361832500000105
                },
                {
                    "name": "D#5",
                    "midi": 75,
                    "time": 393.0089280000022,
                    "velocity": 0.3700787401574803,
                    "duration": 0.2361832500000105
                },
                {
                    "name": "E5",
                    "midi": 76,
                    "time": 393.2451112500022,
                    "velocity": 0.3700787401574803,
                    "duration": 0.2361832500000105
                },
                {
                    "name": "D#5",
                    "midi": 75,
                    "time": 393.4812945000022,
                    "velocity": 0.3937007874015748,
                    "duration": 0.2361832500000105
                },
                {
                    "name": "E5",
                    "midi": 76,
                    "time": 393.7174777500022,
                    "velocity": 0.3543307086614173,
                    "duration": 0.21256492499998103
                },
                {
                    "name": "E5",
                    "midi": 76,
                    "time": 393.95366100000217,
                    "velocity": 0.3937007874015748,
                    "duration": 0.2361832500000105
                },
                {
                    "name": "D5",
                    "midi": 74,
                    "time": 394.1898442500022,
                    "velocity": 0.36220472440944884,
                    "duration": 0.2361832500000105
                },
                {
                    "name": "C5",
                    "midi": 72,
                    "time": 394.4260275000022,
                    "velocity": 0.36220472440944884,
                    "duration": 0.2361832500000105
                },
                {
                    "name": "B4",
                    "midi": 71,
                    "time": 394.6622107500022,
                    "velocity": 0.36220472440944884,
                    "duration": 0.2361832500000105
                },
                {
                    "name": "A4",
                    "midi": 69,
                    "time": 394.8983940000022,
                    "velocity": 0.3464566929133858,
                    "duration": 0.2361832500000105
                },
                {
                    "name": "E5",
                    "midi": 76,
                    "time": 395.1345772500022,
                    "velocity": 0.3937007874015748,
                    "duration": 0.2361832500000105
                },
                {
                    "name": "F5",
                    "midi": 77,
                    "time": 395.37076050000223,
                    "velocity": 0.3700787401574803,
                    "duration": 0.2361832500000105
                },
                {
                    "name": "D5",
                    "midi": 74,
                    "time": 395.60694375000224,
                    "velocity": 0.3700787401574803,
                    "duration": 0.2361832500000105
                },
                {
                    "name": "B4",
                    "midi": 71,
                    "time": 395.84312700000226,
                    "velocity": 0.3700787401574803,
                    "duration": 0.2361832500000105
                },
                {
                    "name": "A4",
                    "midi": 69,
                    "time": 396.07931025000227,
                    "velocity": 0.3700787401574803,
                    "duration": 0.2361832500000105
                },
                {
                    "name": "G#4",
                    "midi": 68,
                    "time": 396.3154935000023,
                    "velocity": 0.3937007874015748,
                    "duration": 0.2361832500000105
                },
                {
                    "name": "B4",
                    "midi": 71,
                    "time": 396.5516767500023,
                    "velocity": 0.3700787401574803,
                    "duration": 0.21256492499998103
                },
                {
                    "name": "B4",
                    "midi": 71,
                    "time": 396.78786000000224,
                    "velocity": 0.3937007874015748,
                    "duration": 0.2361832500000105
                },
                {
                    "name": "A4",
                    "midi": 69,
                    "time": 397.02404325000225,
                    "velocity": 0.33858267716535434,
                    "duration": 0.2361832500000105
                },
                {
                    "name": "C5",
                    "midi": 72,
                    "time": 397.26022650000226,
                    "velocity": 0.4330708661417323,
                    "duration": 0.2361832500000105
                },
                {
                    "name": "B4",
                    "midi": 71,
                    "time": 397.4964097500023,
                    "velocity": 0.3858267716535433,
                    "duration": 0.2361832500000105
                },
                {
                    "name": "D5",
                    "midi": 74,
                    "time": 397.7325930000023,
                    "velocity": 0.4566929133858268,
                    "duration": 0.2361832500000105
                },
                {
                    "name": "C5",
                    "midi": 72,
                    "time": 397.9687762500023,
                    "velocity": 0.4015748031496063,
                    "duration": 0.2361832500000105
                },
                {
                    "name": "B4",
                    "midi": 71,
                    "time": 398.2049595000023,
                    "velocity": 0.4251968503937008,
                    "duration": 0.07872774999998455
                },
                {
                    "name": "C5",
                    "midi": 72,
                    "time": 398.2836872500023,
                    "velocity": 0.4409448818897638,
                    "duration": 0.07872774999998455
                },
                {
                    "name": "D5",
                    "midi": 74,
                    "time": 398.3624150000023,
                    "velocity": 0.4566929133858268,
                    "duration": 0.07872774999998455
                },
                {
                    "name": "C5",
                    "midi": 72,
                    "time": 398.44114275000226,
                    "velocity": 0.5118110236220472,
                    "duration": 0.7085497499999747
                },
                {
                    "name": "A4",
                    "midi": 69,
                    "time": 398.44114275000226,
                    "velocity": 0.4330708661417323,
                    "duration": 0.7085497499999747
                },
                {
                    "name": "G#4",
                    "midi": 68,
                    "time": 399.14969250000223,
                    "velocity": 0.28346456692913385,
                    "duration": 0.35427487499998733
                },
                {
                    "name": "B4",
                    "midi": 71,
                    "time": 399.14969250000223,
                    "velocity": 0.4015748031496063,
                    "duration": 0.35427487499998733
                },
                {
                    "name": "C5",
                    "midi": 72,
                    "time": 399.6220590000022,
                    "velocity": 0.3937007874015748,
                    "duration": 0.2361832500000105
                },
                {
                    "name": "B4",
                    "midi": 71,
                    "time": 399.8582422500022,
                    "velocity": 0.3700787401574803,
                    "duration": 0.2361832500000105
                },
                {
                    "name": "A4",
                    "midi": 69,
                    "time": 400.0944255000022,
                    "velocity": 0.3937007874015748,
                    "duration": 0.2361832500000105
                },
                {
                    "name": "B4",
                    "midi": 71,
                    "time": 400.3306087500022,
                    "velocity": 0.36220472440944884,
                    "duration": 0.2361832500000105
                },
                {
                    "name": "C5",
                    "midi": 72,
                    "time": 400.56679200000224,
                    "velocity": 0.3700787401574803,
                    "duration": 0.2361832500000105
                },
                {
                    "name": "D5",
                    "midi": 74,
                    "time": 400.80297525000225,
                    "velocity": 0.3779527559055118,
                    "duration": 0.2361832500000105
                },
                {
                    "name": "E5",
                    "midi": 76,
                    "time": 401.03915850000226,
                    "velocity": 0.3937007874015748,
                    "duration": 0.2361832500000105
                },
                {
                    "name": "D#5",
                    "midi": 75,
                    "time": 401.27534175000227,
                    "velocity": 0.36220472440944884,
                    "duration": 0.2361832500000105
                },
                {
                    "name": "F5",
                    "midi": 77,
                    "time": 401.5115250000023,
                    "velocity": 0.4330708661417323,
                    "duration": 0.2361832500000105
                },
                {
                    "name": "E5",
                    "midi": 76,
                    "time": 401.7477082500023,
                    "velocity": 0.41732283464566927,
                    "duration": 0.2361832500000105
                },
                {
                    "name": "D5",
                    "midi": 74,
                    "time": 401.9838915000023,
                    "velocity": 0.4015748031496063,
                    "duration": 0.2361832500000105
                },
                {
                    "name": "C5",
                    "midi": 72,
                    "time": 402.2200747500023,
                    "velocity": 0.3779527559055118,
                    "duration": 0.2361832500000105
                },
                {
                    "name": "B4",
                    "midi": 71,
                    "time": 402.4562580000023,
                    "velocity": 0.3937007874015748,
                    "duration": 0.2361832500000105
                },
                {
                    "name": "A4",
                    "midi": 69,
                    "time": 402.69244125000233,
                    "velocity": 0.3700787401574803,
                    "duration": 0.2361832500000105
                },
                {
                    "name": "G#4",
                    "midi": 68,
                    "time": 402.92862450000234,
                    "velocity": 0.3937007874015748,
                    "duration": 0.2361832500000105
                },
                {
                    "name": "A4",
                    "midi": 69,
                    "time": 403.16480775000235,
                    "velocity": 0.36220472440944884,
                    "duration": 0.2361832500000105
                },
                {
                    "name": "B4",
                    "midi": 71,
                    "time": 403.40099100000236,
                    "velocity": 0.3700787401574803,
                    "duration": 0.2361832500000105
                },
                {
                    "name": "C5",
                    "midi": 72,
                    "time": 403.6371742500024,
                    "velocity": 0.3779527559055118,
                    "duration": 0.2361832500000105
                },
                {
                    "name": "D5",
                    "midi": 74,
                    "time": 403.8733575000024,
                    "velocity": 0.3937007874015748,
                    "duration": 0.2361832500000105
                },
                {
                    "name": "C#5",
                    "midi": 73,
                    "time": 404.1095407500024,
                    "velocity": 0.36220472440944884,
                    "duration": 0.2361832500000105
                },
                {
                    "name": "E5",
                    "midi": 76,
                    "time": 404.3457240000024,
                    "velocity": 0.4251968503937008,
                    "duration": 0.2361832500000105
                },
                {
                    "name": "D5",
                    "midi": 74,
                    "time": 404.5819072500024,
                    "velocity": 0.4094488188976378,
                    "duration": 0.2361832500000105
                },
                {
                    "name": "C5",
                    "midi": 72,
                    "time": 404.8180905000024,
                    "velocity": 0.4015748031496063,
                    "duration": 0.2361832500000105
                },
                {
                    "name": "B4",
                    "midi": 71,
                    "time": 405.05427375000244,
                    "velocity": 0.3858267716535433,
                    "duration": 0.2361832500000105
                },
                {
                    "name": "A4",
                    "midi": 69,
                    "time": 405.29045700000245,
                    "velocity": 0.3937007874015748,
                    "duration": 0.2361832500000105
                },
                {
                    "name": "G#4",
                    "midi": 68,
                    "time": 405.52664025000246,
                    "velocity": 0.3700787401574803,
                    "duration": 0.2361832500000105
                },
                {
                    "name": "A4",
                    "midi": 69,
                    "time": 405.76282350000247,
                    "velocity": 0.3937007874015748,
                    "duration": 0.2361832500000105
                },
                {
                    "name": "C5",
                    "midi": 72,
                    "time": 405.9990067500025,
                    "velocity": 0.36220472440944884,
                    "duration": 0.2361832500000105
                },
                {
                    "name": "B4",
                    "midi": 71,
                    "time": 406.2351900000025,
                    "velocity": 0.4094488188976378,
                    "duration": 0.2361832500000105
                },
                {
                    "name": "D5",
                    "midi": 74,
                    "time": 406.4713732500025,
                    "velocity": 0.3779527559055118,
                    "duration": 0.2361832500000105
                },
                {
                    "name": "C5",
                    "midi": 72,
                    "time": 406.7075565000025,
                    "velocity": 0.4409448818897638,
                    "duration": 0.2361832500000105
                },
                {
                    "name": "B4",
                    "midi": 71,
                    "time": 406.9437397500025,
                    "velocity": 0.3937007874015748,
                    "duration": 0.2361832500000105
                },
                {
                    "name": "C5",
                    "midi": 72,
                    "time": 407.17992300000253,
                    "velocity": 0.4251968503937008,
                    "duration": 0.2361832500000105
                },
                {
                    "name": "E5",
                    "midi": 76,
                    "time": 407.41610625000254,
                    "velocity": 0.3937007874015748,
                    "duration": 0.2361832500000105
                },
                {
                    "name": "D5",
                    "midi": 74,
                    "time": 407.65228950000255,
                    "velocity": 0.4330708661417323,
                    "duration": 0.2361832500000105
                },
                {
                    "name": "F5",
                    "midi": 77,
                    "time": 407.88847275000256,
                    "velocity": 0.3779527559055118,
                    "duration": 0.2361832500000105
                },
                {
                    "name": "E5",
                    "midi": 76,
                    "time": 408.1246560000026,
                    "velocity": 0.47244094488188976,
                    "duration": 0.2361832500000105
                },
                {
                    "name": "D#5",
                    "midi": 75,
                    "time": 408.3608392500026,
                    "velocity": 0.4251968503937008,
                    "duration": 0.2361832500000105
                },
                {
                    "name": "E5",
                    "midi": 76,
                    "time": 408.5970225000026,
                    "velocity": 0.4409448818897638,
                    "duration": 0.2361832500000105
                },
                {
                    "name": "E4",
                    "midi": 64,
                    "time": 408.8332057500026,
                    "velocity": 0.33858267716535434,
                    "duration": 0.2361832500000105
                },
                {
                    "name": "F#4",
                    "midi": 66,
                    "time": 409.0693890000026,
                    "velocity": 0.33858267716535434,
                    "duration": 0.2361832500000105
                },
                {
                    "name": "G#4",
                    "midi": 68,
                    "time": 409.3055722500026,
                    "velocity": 0.36220472440944884,
                    "duration": 0.2361832500000105
                },
                {
                    "name": "A4",
                    "midi": 69,
                    "time": 409.54175550000264,
                    "velocity": 0.4015748031496063,
                    "duration": 0.2361832500000105
                },
                {
                    "name": "G#4",
                    "midi": 68,
                    "time": 409.77793875000265,
                    "velocity": 0.3464566929133858,
                    "duration": 0.2361832500000105
                },
                {
                    "name": "A4",
                    "midi": 69,
                    "time": 410.01412200000266,
                    "velocity": 0.3937007874015748,
                    "duration": 0.2361832500000105
                },
                {
                    "name": "E4",
                    "midi": 64,
                    "time": 410.25030525000267,
                    "velocity": 0.3543307086614173,
                    "duration": 0.2361832500000105
                },
                {
                    "name": "C4",
                    "midi": 60,
                    "time": 410.4864885000027,
                    "velocity": 0.3858267716535433,
                    "duration": 0.2361832500000105
                },
                {
                    "name": "E4",
                    "midi": 64,
                    "time": 410.7226717500027,
                    "velocity": 0.36220472440944884,
                    "duration": 0.2361832500000105
                },
                {
                    "name": "A4",
                    "midi": 69,
                    "time": 410.9588550000027,
                    "velocity": 0.4330708661417323,
                    "duration": 0.2361832500000105
                },
                {
                    "name": "A5",
                    "midi": 81,
                    "time": 410.9588550000027,
                    "velocity": 0.5118110236220472,
                    "duration": 0.2361832500000105
                },
                {
                    "name": "G#5",
                    "midi": 80,
                    "time": 411.1950382500027,
                    "velocity": 0.47244094488188976,
                    "duration": 0.2361832500000105
                },
                {
                    "name": "G#4",
                    "midi": 68,
                    "time": 411.1950382500027,
                    "velocity": 0.4015748031496063,
                    "duration": 0.2361832500000105
                },
                {
                    "name": "A5",
                    "midi": 81,
                    "time": 411.4312215000027,
                    "velocity": 0.5196850393700787,
                    "duration": 0.2361832500000105
                },
                {
                    "name": "A4",
                    "midi": 69,
                    "time": 411.4312215000027,
                    "velocity": 0.4409448818897638,
                    "duration": 0.2361832500000105
                },
                {
                    "name": "C6",
                    "midi": 84,
                    "time": 411.66740475000273,
                    "velocity": 0.47244094488188976,
                    "duration": 0.2361832500000105
                },
                {
                    "name": "C5",
                    "midi": 72,
                    "time": 411.66740475000273,
                    "velocity": 0.4015748031496063,
                    "duration": 0.2361832500000105
                },
                {
                    "name": "B4",
                    "midi": 71,
                    "time": 411.90358800000274,
                    "velocity": 0.41732283464566927,
                    "duration": 0.2361832500000105
                },
                {
                    "name": "B5",
                    "midi": 83,
                    "time": 411.90358800000274,
                    "velocity": 0.49606299212598426,
                    "duration": 0.2361832500000105
                },
                {
                    "name": "D6",
                    "midi": 86,
                    "time": 412.13977125000275,
                    "velocity": 0.49606299212598426,
                    "duration": 0.2361832500000105
                },
                {
                    "name": "D5",
                    "midi": 74,
                    "time": 412.13977125000275,
                    "velocity": 0.41732283464566927,
                    "duration": 0.2361832500000105
                },
                {
                    "name": "C6",
                    "midi": 84,
                    "time": 412.37595450000276,
                    "velocity": 0.5196850393700787,
                    "duration": 0.2361832500000105
                },
                {
                    "name": "C5",
                    "midi": 72,
                    "time": 412.37595450000276,
                    "velocity": 0.4409448818897638,
                    "duration": 0.2361832500000105
                },
                {
                    "name": "B5",
                    "midi": 83,
                    "time": 412.6121377500028,
                    "velocity": 0.47244094488188976,
                    "duration": 0.2361832500000105
                },
                {
                    "name": "B4",
                    "midi": 71,
                    "time": 412.6121377500028,
                    "velocity": 0.4015748031496063,
                    "duration": 0.2361832500000105
                },
                {
                    "name": "C6",
                    "midi": 84,
                    "time": 412.8483210000028,
                    "velocity": 0.5590551181102362,
                    "duration": 0.2361832500000105
                },
                {
                    "name": "C5",
                    "midi": 72,
                    "time": 412.8483210000028,
                    "velocity": 0.47244094488188976,
                    "duration": 0.2361832500000105
                },
                {
                    "name": "E5",
                    "midi": 76,
                    "time": 413.0845042500028,
                    "velocity": 0.4409448818897638,
                    "duration": 0.2361832500000105
                },
                {
                    "name": "E6",
                    "midi": 88,
                    "time": 413.0845042500028,
                    "velocity": 0.5275590551181102,
                    "duration": 0.2361832500000105
                },
                {
                    "name": "D5",
                    "midi": 74,
                    "time": 413.3206875000028,
                    "velocity": 0.4330708661417323,
                    "duration": 0.2361832500000105
                },
                {
                    "name": "D6",
                    "midi": 86,
                    "time": 413.3206875000028,
                    "velocity": 0.5118110236220472,
                    "duration": 0.2361832500000105
                },
                {
                    "name": "F5",
                    "midi": 77,
                    "time": 413.5568707500028,
                    "velocity": 0.4330708661417323,
                    "duration": 0.2361832500000105
                },
                {
                    "name": "F6",
                    "midi": 89,
                    "time": 413.5568707500028,
                    "velocity": 0.5118110236220472,
                    "duration": 0.2361832500000105
                },
                {
                    "name": "E6",
                    "midi": 88,
                    "time": 413.7930540000028,
                    "velocity": 0.5275590551181102,
                    "duration": 0.2361832500000105
                },
                {
                    "name": "E5",
                    "midi": 76,
                    "time": 413.7930540000028,
                    "velocity": 0.4409448818897638,
                    "duration": 0.2361832500000105
                },
                {
                    "name": "D#6",
                    "midi": 87,
                    "time": 414.02923725000284,
                    "velocity": 0.4645669291338583,
                    "duration": 0.2361832500000105
                },
                {
                    "name": "D#5",
                    "midi": 75,
                    "time": 414.02923725000284,
                    "velocity": 0.3937007874015748,
                    "duration": 0.2361832500000105
                },
                {
                    "name": "E6",
                    "midi": 88,
                    "time": 414.26542050000285,
                    "velocity": 0.5196850393700787,
                    "duration": 0.2361832500000105
                },
                {
                    "name": "E5",
                    "midi": 76,
                    "time": 414.26542050000285,
                    "velocity": 0.4409448818897638,
                    "duration": 0.2361832500000105
                },
                {
                    "name": "E4",
                    "midi": 64,
                    "time": 414.50160375000286,
                    "velocity": 0.4015748031496063,
                    "duration": 0.2361832500000105
                },
                {
                    "name": "E5",
                    "midi": 76,
                    "time": 414.50160375000286,
                    "velocity": 0.47244094488188976,
                    "duration": 0.2361832500000105
                },
                {
                    "name": "F#4",
                    "midi": 66,
                    "time": 414.73778700000287,
                    "velocity": 0.41732283464566927,
                    "duration": 0.2361832500000105
                },
                {
                    "name": "F#5",
                    "midi": 78,
                    "time": 414.73778700000287,
                    "velocity": 0.49606299212598426,
                    "duration": 0.2361832500000105
                },
                {
                    "name": "G#5",
                    "midi": 80,
                    "time": 414.9739702500029,
                    "velocity": 0.49606299212598426,
                    "duration": 0.2361832500000105
                },
                {
                    "name": "G#4",
                    "midi": 68,
                    "time": 414.9739702500029,
                    "velocity": 0.41732283464566927,
                    "duration": 0.2361832500000105
                },
                {
                    "name": "A5",
                    "midi": 81,
                    "time": 415.2101535000029,
                    "velocity": 0.49606299212598426,
                    "duration": 0.9447329999999852
                },
                {
                    "name": "A4",
                    "midi": 69,
                    "time": 415.2101535000029,
                    "velocity": 0.41732283464566927,
                    "duration": 0.9447329999999852
                },
                {
                    "name": "C#5",
                    "midi": 73,
                    "time": 419.46145200000285,
                    "velocity": 0.3937007874015748,
                    "duration": 0.2361832500000105
                },
                {
                    "name": "A4",
                    "midi": 69,
                    "time": 419.46145200000285,
                    "velocity": 0.3937007874015748,
                    "duration": 0.2361832500000105
                },
                {
                    "name": "E4",
                    "midi": 64,
                    "time": 419.69763525000286,
                    "velocity": 0.3937007874015748,
                    "duration": 0.2361832500000105
                },
                {
                    "name": "A4",
                    "midi": 69,
                    "time": 419.9338185000029,
                    "velocity": 0.3464566929133858,
                    "duration": 0.2361832500000105
                },
                {
                    "name": "C#5",
                    "midi": 73,
                    "time": 419.9338185000029,
                    "velocity": 0.3464566929133858,
                    "duration": 0.2361832500000105
                },
                {
                    "name": "C#6",
                    "midi": 85,
                    "time": 419.9338185000029,
                    "velocity": 0.4094488188976378,
                    "duration": 0.472366500000021
                },
                {
                    "name": "A5",
                    "midi": 81,
                    "time": 419.9338185000029,
                    "velocity": 0.4094488188976378,
                    "duration": 0.472366500000021
                },
                {
                    "name": "E4",
                    "midi": 64,
                    "time": 420.1700017500029,
                    "velocity": 0.3858267716535433,
                    "duration": 0.2361832500000105
                },
                {
                    "name": "D5",
                    "midi": 74,
                    "time": 420.4061850000029,
                    "velocity": 0.3543307086614173,
                    "duration": 0.2361832500000105
                },
                {
                    "name": "D6",
                    "midi": 86,
                    "time": 420.4061850000029,
                    "velocity": 0.41732283464566927,
                    "duration": 0.472366500000021
                },
                {
                    "name": "B5",
                    "midi": 83,
                    "time": 420.4061850000029,
                    "velocity": 0.41732283464566927,
                    "duration": 0.472366500000021
                },
                {
                    "name": "B4",
                    "midi": 71,
                    "time": 420.4061850000029,
                    "velocity": 0.3543307086614173,
                    "duration": 0.2361832500000105
                },
                {
                    "name": "E4",
                    "midi": 64,
                    "time": 420.6423682500029,
                    "velocity": 0.3937007874015748,
                    "duration": 0.2361832500000105
                },
                {
                    "name": "E6",
                    "midi": 88,
                    "time": 420.8785515000029,
                    "velocity": 0.4330708661417323,
                    "duration": 0.472366500000021
                },
                {
                    "name": "C#6",
                    "midi": 85,
                    "time": 420.8785515000029,
                    "velocity": 0.4330708661417323,
                    "duration": 0.472366500000021
                },
                {
                    "name": "E5",
                    "midi": 76,
                    "time": 420.8785515000029,
                    "velocity": 0.36220472440944884,
                    "duration": 0.2361832500000105
                },
                {
                    "name": "C#5",
                    "midi": 73,
                    "time": 420.8785515000029,
                    "velocity": 0.36220472440944884,
                    "duration": 0.2361832500000105
                },
                {
                    "name": "E4",
                    "midi": 64,
                    "time": 421.1147347500029,
                    "velocity": 0.3937007874015748,
                    "duration": 0.2361832500000105
                },
                {
                    "name": "D5",
                    "midi": 74,
                    "time": 421.35091800000293,
                    "velocity": 0.3543307086614173,
                    "duration": 0.2361832500000105
                },
                {
                    "name": "D6",
                    "midi": 86,
                    "time": 421.35091800000293,
                    "velocity": 0.41732283464566927,
                    "duration": 0.472366500000021
                },
                {
                    "name": "B5",
                    "midi": 83,
                    "time": 421.35091800000293,
                    "velocity": 0.41732283464566927,
                    "duration": 0.472366500000021
                },
                {
                    "name": "B4",
                    "midi": 71,
                    "time": 421.35091800000293,
                    "velocity": 0.3543307086614173,
                    "duration": 0.2361832500000105
                },
                {
                    "name": "E4",
                    "midi": 64,
                    "time": 421.58710125000295,
                    "velocity": 0.3858267716535433,
                    "duration": 0.2361832500000105
                },
                {
                    "name": "C#5",
                    "midi": 73,
                    "time": 421.82328450000296,
                    "velocity": 0.3464566929133858,
                    "duration": 0.2361832500000105
                },
                {
                    "name": "A5",
                    "midi": 81,
                    "time": 421.82328450000296,
                    "velocity": 0.4094488188976378,
                    "duration": 0.472366500000021
                },
                {
                    "name": "C#6",
                    "midi": 85,
                    "time": 421.82328450000296,
                    "velocity": 0.4094488188976378,
                    "duration": 0.472366500000021
                },
                {
                    "name": "A4",
                    "midi": 69,
                    "time": 421.82328450000296,
                    "velocity": 0.3464566929133858,
                    "duration": 0.2361832500000105
                },
                {
                    "name": "E4",
                    "midi": 64,
                    "time": 422.05946775000297,
                    "velocity": 0.3779527559055118,
                    "duration": 0.2361832500000105
                },
                {
                    "name": "G#4",
                    "midi": 68,
                    "time": 422.295651000003,
                    "velocity": 0.3937007874015748,
                    "duration": 0.2361832500000105
                },
                {
                    "name": "B4",
                    "midi": 71,
                    "time": 422.295651000003,
                    "velocity": 0.3937007874015748,
                    "duration": 0.2361832500000105
                },
                {
                    "name": "E4",
                    "midi": 64,
                    "time": 422.531834250003,
                    "velocity": 0.3937007874015748,
                    "duration": 0.2361832500000105
                },
                {
                    "name": "B5",
                    "midi": 83,
                    "time": 422.768017500003,
                    "velocity": 0.4094488188976378,
                    "duration": 0.472366500000021
                },
                {
                    "name": "G#4",
                    "midi": 68,
                    "time": 422.768017500003,
                    "velocity": 0.3464566929133858,
                    "duration": 0.2361832500000105
                },
                {
                    "name": "B4",
                    "midi": 71,
                    "time": 422.768017500003,
                    "velocity": 0.3464566929133858,
                    "duration": 0.2361832500000105
                },
                {
                    "name": "G#5",
                    "midi": 80,
                    "time": 422.768017500003,
                    "velocity": 0.4094488188976378,
                    "duration": 0.472366500000021
                },
                {
                    "name": "E4",
                    "midi": 64,
                    "time": 423.004200750003,
                    "velocity": 0.3858267716535433,
                    "duration": 0.2361832500000105
                },
                {
                    "name": "A5",
                    "midi": 81,
                    "time": 423.240384000003,
                    "velocity": 0.41732283464566927,
                    "duration": 0.472366500000021
                },
                {
                    "name": "C#5",
                    "midi": 73,
                    "time": 423.240384000003,
                    "velocity": 0.3543307086614173,
                    "duration": 0.2361832500000105
                },
                {
                    "name": "A4",
                    "midi": 69,
                    "time": 423.240384000003,
                    "velocity": 0.3543307086614173,
                    "duration": 0.2361832500000105
                },
                {
                    "name": "C#6",
                    "midi": 85,
                    "time": 423.240384000003,
                    "velocity": 0.41732283464566927,
                    "duration": 0.472366500000021
                },
                {
                    "name": "E4",
                    "midi": 64,
                    "time": 423.47656725000303,
                    "velocity": 0.3937007874015748,
                    "duration": 0.2361832500000105
                },
                {
                    "name": "D5",
                    "midi": 74,
                    "time": 423.71275050000304,
                    "velocity": 0.36220472440944884,
                    "duration": 0.2361832500000105
                },
                {
                    "name": "B4",
                    "midi": 71,
                    "time": 423.71275050000304,
                    "velocity": 0.36220472440944884,
                    "duration": 0.2361832500000105
                },
                {
                    "name": "B5",
                    "midi": 83,
                    "time": 423.71275050000304,
                    "velocity": 0.4330708661417323,
                    "duration": 0.472366500000021
                },
                {
                    "name": "D6",
                    "midi": 86,
                    "time": 423.71275050000304,
                    "velocity": 0.4330708661417323,
                    "duration": 0.472366500000021
                },
                {
                    "name": "E4",
                    "midi": 64,
                    "time": 423.94893375000305,
                    "velocity": 0.3937007874015748,
                    "duration": 0.2361832500000105
                },
                {
                    "name": "A5",
                    "midi": 81,
                    "time": 424.18511700000306,
                    "velocity": 0.41732283464566927,
                    "duration": 0.472366500000021
                },
                {
                    "name": "C#6",
                    "midi": 85,
                    "time": 424.18511700000306,
                    "velocity": 0.41732283464566927,
                    "duration": 0.472366500000021
                },
                {
                    "name": "A4",
                    "midi": 69,
                    "time": 424.18511700000306,
                    "velocity": 0.3543307086614173,
                    "duration": 0.2361832500000105
                },
                {
                    "name": "C#5",
                    "midi": 73,
                    "time": 424.18511700000306,
                    "velocity": 0.3543307086614173,
                    "duration": 0.2361832500000105
                },
                {
                    "name": "E4",
                    "midi": 64,
                    "time": 424.42130025000307,
                    "velocity": 0.3858267716535433,
                    "duration": 0.2361832500000105
                },
                {
                    "name": "G#4",
                    "midi": 68,
                    "time": 424.6574835000031,
                    "velocity": 0.3464566929133858,
                    "duration": 0.2361832500000105
                },
                {
                    "name": "B5",
                    "midi": 83,
                    "time": 424.6574835000031,
                    "velocity": 0.4094488188976378,
                    "duration": 0.472366500000021
                },
                {
                    "name": "B4",
                    "midi": 71,
                    "time": 424.6574835000031,
                    "velocity": 0.3464566929133858,
                    "duration": 0.2361832500000105
                },
                {
                    "name": "G#5",
                    "midi": 80,
                    "time": 424.6574835000031,
                    "velocity": 0.4094488188976378,
                    "duration": 0.472366500000021
                },
                {
                    "name": "E4",
                    "midi": 64,
                    "time": 424.8936667500031,
                    "velocity": 0.3779527559055118,
                    "duration": 0.2361832500000105
                },
                {
                    "name": "E4",
                    "midi": 64,
                    "time": 425.1298500000031,
                    "velocity": 0.4251968503937008,
                    "duration": 0.2361832500000105
                },
                {
                    "name": "A4",
                    "midi": 69,
                    "time": 425.1298500000031,
                    "velocity": 0.4251968503937008,
                    "duration": 0.2361832500000105
                },
                {
                    "name": "C#4",
                    "midi": 61,
                    "time": 425.3660332500031,
                    "velocity": 0.3937007874015748,
                    "duration": 0.2361832500000105
                },
                {
                    "name": "A4",
                    "midi": 69,
                    "time": 425.6022165000031,
                    "velocity": 0.3543307086614173,
                    "duration": 0.2361832500000105
                },
                {
                    "name": "A5",
                    "midi": 81,
                    "time": 425.6022165000031,
                    "velocity": 0.4251968503937008,
                    "duration": 0.472366500000021
                },
                {
                    "name": "E4",
                    "midi": 64,
                    "time": 425.6022165000031,
                    "velocity": 0.3543307086614173,
                    "duration": 0.2361832500000105
                },
                {
                    "name": "C#4",
                    "midi": 61,
                    "time": 425.83839975000313,
                    "velocity": 0.3937007874015748,
                    "duration": 0.2361832500000105
                },
                {
                    "name": "A4",
                    "midi": 69,
                    "time": 426.07458300000314,
                    "velocity": 0.4251968503937008,
                    "duration": 0.2361832500000105
                },
                {
                    "name": "E4",
                    "midi": 64,
                    "time": 426.07458300000314,
                    "velocity": 0.4251968503937008,
                    "duration": 0.2361832500000105
                },
                {
                    "name": "C#4",
                    "midi": 61,
                    "time": 426.31076625000316,
                    "velocity": 0.3937007874015748,
                    "duration": 0.2361832500000105
                },
                {
                    "name": "G#4",
                    "midi": 68,
                    "time": 426.54694950000317,
                    "velocity": 0.4330708661417323,
                    "duration": 0.2361832500000105
                },
                {
                    "name": "B4",
                    "midi": 71,
                    "time": 426.54694950000317,
                    "velocity": 0.4330708661417323,
                    "duration": 0.2361832500000105
                },
                {
                    "name": "E4",
                    "midi": 64,
                    "time": 426.7831327500032,
                    "velocity": 0.4015748031496063,
                    "duration": 0.2361832500000105
                },
                {
                    "name": "B5",
                    "midi": 83,
                    "time": 427.0193160000032,
                    "velocity": 0.4409448818897638,
                    "duration": 0.472366500000021
                },
                {
                    "name": "B4",
                    "midi": 71,
                    "time": 427.0193160000032,
                    "velocity": 0.3700787401574803,
                    "duration": 0.2361832500000105
                },
                {
                    "name": "G#4",
                    "midi": 68,
                    "time": 427.0193160000032,
                    "velocity": 0.3700787401574803,
                    "duration": 0.2361832500000105
                },
                {
                    "name": "E4",
                    "midi": 64,
                    "time": 427.2554992500032,
                    "velocity": 0.4015748031496063,
                    "duration": 0.2361832500000105
                },
                {
                    "name": "B4",
                    "midi": 71,
                    "time": 427.4916825000032,
                    "velocity": 0.3937007874015748,
                    "duration": 0.2361832500000105
                },
                {
                    "name": "G#4",
                    "midi": 68,
                    "time": 427.4916825000032,
                    "velocity": 0.3937007874015748,
                    "duration": 0.2361832500000105
                },
                {
                    "name": "E4",
                    "midi": 64,
                    "time": 427.7278657500032,
                    "velocity": 0.3779527559055118,
                    "duration": 0.2361832500000105
                },
                {
                    "name": "A4",
                    "midi": 69,
                    "time": 427.96404900000323,
                    "velocity": 0.36220472440944884,
                    "duration": 0.2361832500000105
                },
                {
                    "name": "C#5",
                    "midi": 73,
                    "time": 427.96404900000323,
                    "velocity": 0.36220472440944884,
                    "duration": 0.2361832500000105
                },
                {
                    "name": "C#6",
                    "midi": 85,
                    "time": 427.96404900000323,
                    "velocity": 0.4330708661417323,
                    "duration": 0.472366500000021
                },
                {
                    "name": "A5",
                    "midi": 81,
                    "time": 427.96404900000323,
                    "velocity": 0.4330708661417323,
                    "duration": 0.472366500000021
                },
                {
                    "name": "E4",
                    "midi": 64,
                    "time": 428.20023225000324,
                    "velocity": 0.3937007874015748,
                    "duration": 0.2361832500000105
                },
                {
                    "name": "D6",
                    "midi": 86,
                    "time": 428.43641550000325,
                    "velocity": 0.41732283464566927,
                    "duration": 0.472366500000021
                },
                {
                    "name": "B5",
                    "midi": 83,
                    "time": 428.43641550000325,
                    "velocity": 0.41732283464566927,
                    "duration": 0.472366500000021
                },
                {
                    "name": "D5",
                    "midi": 74,
                    "time": 428.43641550000325,
                    "velocity": 0.3543307086614173,
                    "duration": 0.2361832500000105
                },
                {
                    "name": "B4",
                    "midi": 71,
                    "time": 428.43641550000325,
                    "velocity": 0.3543307086614173,
                    "duration": 0.2361832500000105
                },
                {
                    "name": "E4",
                    "midi": 64,
                    "time": 428.67259875000326,
                    "velocity": 0.3858267716535433,
                    "duration": 0.2361832500000105
                },
                {
                    "name": "C#6",
                    "midi": 85,
                    "time": 428.90878200000327,
                    "velocity": 0.4094488188976378,
                    "duration": 0.472366500000021
                },
                {
                    "name": "C#5",
                    "midi": 73,
                    "time": 428.90878200000327,
                    "velocity": 0.3464566929133858,
                    "duration": 0.2361832500000105
                },
                {
                    "name": "A4",
                    "midi": 69,
                    "time": 428.90878200000327,
                    "velocity": 0.3464566929133858,
                    "duration": 0.2361832500000105
                },
                {
                    "name": "A5",
                    "midi": 81,
                    "time": 428.90878200000327,
                    "velocity": 0.4094488188976378,
                    "duration": 0.472366500000021
                },
                {
                    "name": "E4",
                    "midi": 64,
                    "time": 429.1449652500033,
                    "velocity": 0.3779527559055118,
                    "duration": 0.2361832500000105
                },
                {
                    "name": "B5",
                    "midi": 83,
                    "time": 429.3811485000033,
                    "velocity": 0.4094488188976378,
                    "duration": 0.472366500000021
                },
                {
                    "name": "G#4",
                    "midi": 68,
                    "time": 429.3811485000033,
                    "velocity": 0.3464566929133858,
                    "duration": 0.2361832500000105
                },
                {
                    "name": "B4",
                    "midi": 71,
                    "time": 429.3811485000033,
                    "velocity": 0.3464566929133858,
                    "duration": 0.2361832500000105
                },
                {
                    "name": "G#5",
                    "midi": 80,
                    "time": 429.3811485000033,
                    "velocity": 0.4094488188976378,
                    "duration": 0.472366500000021
                },
                {
                    "name": "E4",
                    "midi": 64,
                    "time": 429.6173317500033,
                    "velocity": 0.3858267716535433,
                    "duration": 0.2361832500000105
                },
                {
                    "name": "D#5",
                    "midi": 75,
                    "time": 429.8535150000033,
                    "velocity": 0.4409448818897638,
                    "duration": 0.2361832500000105
                },
                {
                    "name": "E5",
                    "midi": 76,
                    "time": 430.0896982500033,
                    "velocity": 0.41732283464566927,
                    "duration": 0.2361832500000105
                },
                {
                    "name": "D#5",
                    "midi": 75,
                    "time": 430.32588150000333,
                    "velocity": 0.4409448818897638,
                    "duration": 0.2361832500000105
                },
                {
                    "name": "E5",
                    "midi": 76,
                    "time": 430.56206475000334,
                    "velocity": 0.41732283464566927,
                    "duration": 0.2361832500000105
                },
                {
                    "name": "A4",
                    "midi": 69,
                    "time": 430.79824800000335,
                    "velocity": 0.47244094488188976,
                    "duration": 0.2361832500000105
                },
                {
                    "name": "C#5",
                    "midi": 73,
                    "time": 430.79824800000335,
                    "velocity": 0.47244094488188976,
                    "duration": 0.2361832500000105
                },
                {
                    "name": "E4",
                    "midi": 64,
                    "time": 431.03443125000337,
                    "velocity": 0.47244094488188976,
                    "duration": 0.2361832500000105
                },
                {
                    "name": "C#6",
                    "midi": 85,
                    "time": 431.2706145000034,
                    "velocity": 0.5354330708661418,
                    "duration": 0.472366500000021
                },
                {
                    "name": "A4",
                    "midi": 69,
                    "time": 431.2706145000034,
                    "velocity": 0.4094488188976378,
                    "duration": 0.2361832500000105
                },
                {
                    "name": "C#5",
                    "midi": 73,
                    "time": 431.2706145000034,
                    "velocity": 0.4094488188976378,
                    "duration": 0.2361832500000105
                },
                {
                    "name": "A5",
                    "midi": 81,
                    "time": 431.2706145000034,
                    "velocity": 0.44881889763779526,
                    "duration": 0.472366500000021
                },
                {
                    "name": "E4",
                    "midi": 64,
                    "time": 431.5067977500034,
                    "velocity": 0.4566929133858268,
                    "duration": 0.2361832500000105
                },
                {
                    "name": "D6",
                    "midi": 86,
                    "time": 431.7429810000034,
                    "velocity": 0.5433070866141733,
                    "duration": 0.472366500000021
                },
                {
                    "name": "D5",
                    "midi": 74,
                    "time": 431.7429810000034,
                    "velocity": 0.4251968503937008,
                    "duration": 0.2361832500000105
                },
                {
                    "name": "B4",
                    "midi": 71,
                    "time": 431.7429810000034,
                    "velocity": 0.4251968503937008,
                    "duration": 0.2361832500000105
                },
                {
                    "name": "B5",
                    "midi": 83,
                    "time": 431.7429810000034,
                    "velocity": 0.4566929133858268,
                    "duration": 0.472366500000021
                },
                {
                    "name": "E4",
                    "midi": 64,
                    "time": 431.9791642500034,
                    "velocity": 0.47244094488188976,
                    "duration": 0.2361832500000105
                },
                {
                    "name": "C#6",
                    "midi": 85,
                    "time": 432.2153475000034,
                    "velocity": 0.48031496062992124,
                    "duration": 0.472366500000021
                },
                {
                    "name": "E6",
                    "midi": 88,
                    "time": 432.2153475000034,
                    "velocity": 0.5669291338582677,
                    "duration": 0.472366500000021
                },
                {
                    "name": "C#5",
                    "midi": 73,
                    "time": 432.2153475000034,
                    "velocity": 0.4330708661417323,
                    "duration": 0.2361832500000105
                },
                {
                    "name": "E5",
                    "midi": 76,
                    "time": 432.2153475000034,
                    "velocity": 0.4330708661417323,
                    "duration": 0.2361832500000105
                },
                {
                    "name": "E4",
                    "midi": 64,
                    "time": 432.4515307500034,
                    "velocity": 0.47244094488188976,
                    "duration": 0.2361832500000105
                },
                {
                    "name": "B4",
                    "midi": 71,
                    "time": 432.68771400000344,
                    "velocity": 0.4251968503937008,
                    "duration": 0.2361832500000105
                },
                {
                    "name": "D5",
                    "midi": 74,
                    "time": 432.68771400000344,
                    "velocity": 0.4251968503937008,
                    "duration": 0.2361832500000105
                },
                {
                    "name": "B5",
                    "midi": 83,
                    "time": 432.68771400000344,
                    "velocity": 0.4566929133858268,
                    "duration": 0.472366500000021
                },
                {
                    "name": "D6",
                    "midi": 86,
                    "time": 432.68771400000344,
                    "velocity": 0.5433070866141733,
                    "duration": 0.472366500000021
                },
                {
                    "name": "E4",
                    "midi": 64,
                    "time": 432.92389725000345,
                    "velocity": 0.4566929133858268,
                    "duration": 0.2361832500000105
                },
                {
                    "name": "A5",
                    "midi": 81,
                    "time": 433.16008050000346,
                    "velocity": 0.44881889763779526,
                    "duration": 0.472366500000021
                },
                {
                    "name": "C#6",
                    "midi": 85,
                    "time": 433.16008050000346,
                    "velocity": 0.5354330708661418,
                    "duration": 0.472366500000021
                },
                {
                    "name": "C#5",
                    "midi": 73,
                    "time": 433.16008050000346,
                    "velocity": 0.4094488188976378,
                    "duration": 0.2361832500000105
                },
                {
                    "name": "A4",
                    "midi": 69,
                    "time": 433.16008050000346,
                    "velocity": 0.4094488188976378,
                    "duration": 0.2361832500000105
                },
                {
                    "name": "E4",
                    "midi": 64,
                    "time": 433.39626375000347,
                    "velocity": 0.44881889763779526,
                    "duration": 0.2361832500000105
                },
                {
                    "name": "G#4",
                    "midi": 68,
                    "time": 433.6324470000035,
                    "velocity": 0.47244094488188976,
                    "duration": 0.2361832500000105
                },
                {
                    "name": "B4",
                    "midi": 71,
                    "time": 433.6324470000035,
                    "velocity": 0.47244094488188976,
                    "duration": 0.2361832500000105
                },
                {
                    "name": "E4",
                    "midi": 64,
                    "time": 433.8686302500035,
                    "velocity": 0.47244094488188976,
                    "duration": 0.2361832500000105
                },
                {
                    "name": "B4",
                    "midi": 71,
                    "time": 434.1048135000035,
                    "velocity": 0.4094488188976378,
                    "duration": 0.2361832500000105
                },
                {
                    "name": "G#5",
                    "midi": 80,
                    "time": 434.1048135000035,
                    "velocity": 0.44881889763779526,
                    "duration": 0.472366500000021
                },
                {
                    "name": "B5",
                    "midi": 83,
                    "time": 434.1048135000035,
                    "velocity": 0.5354330708661418,
                    "duration": 0.472366500000021
                },
                {
                    "name": "G#4",
                    "midi": 68,
                    "time": 434.1048135000035,
                    "velocity": 0.4094488188976378,
                    "duration": 0.2361832500000105
                },
                {
                    "name": "E4",
                    "midi": 64,
                    "time": 434.3409967500035,
                    "velocity": 0.4566929133858268,
                    "duration": 0.2361832500000105
                },
                {
                    "name": "C#6",
                    "midi": 85,
                    "time": 434.5771800000035,
                    "velocity": 0.5433070866141733,
                    "duration": 0.472366500000021
                },
                {
                    "name": "A5",
                    "midi": 81,
                    "time": 434.5771800000035,
                    "velocity": 0.4566929133858268,
                    "duration": 0.472366500000021
                },
                {
                    "name": "C#5",
                    "midi": 73,
                    "time": 434.5771800000035,
                    "velocity": 0.4251968503937008,
                    "duration": 0.2361832500000105
                },
                {
                    "name": "A4",
                    "midi": 69,
                    "time": 434.5771800000035,
                    "velocity": 0.4251968503937008,
                    "duration": 0.2361832500000105
                },
                {
                    "name": "E4",
                    "midi": 64,
                    "time": 434.81336325000353,
                    "velocity": 0.47244094488188976,
                    "duration": 0.2361832500000105
                },
                {
                    "name": "D5",
                    "midi": 74,
                    "time": 435.04954650000354,
                    "velocity": 0.4330708661417323,
                    "duration": 0.2361832500000105
                },
                {
                    "name": "B4",
                    "midi": 71,
                    "time": 435.04954650000354,
                    "velocity": 0.4330708661417323,
                    "duration": 0.2361832500000105
                },
                {
                    "name": "B5",
                    "midi": 83,
                    "time": 435.04954650000354,
                    "velocity": 0.48031496062992124,
                    "duration": 0.472366500000021
                },
                {
                    "name": "D6",
                    "midi": 86,
                    "time": 435.04954650000354,
                    "velocity": 0.5669291338582677,
                    "duration": 0.472366500000021
                },
                {
                    "name": "E4",
                    "midi": 64,
                    "time": 435.28572975000355,
                    "velocity": 0.47244094488188976,
                    "duration": 0.2361832500000105
                },
                {
                    "name": "A4",
                    "midi": 69,
                    "time": 435.52191300000356,
                    "velocity": 0.4251968503937008,
                    "duration": 0.2361832500000105
                },
                {
                    "name": "C#5",
                    "midi": 73,
                    "time": 435.52191300000356,
                    "velocity": 0.4251968503937008,
                    "duration": 0.2361832500000105
                },
                {
                    "name": "C#6",
                    "midi": 85,
                    "time": 435.52191300000356,
                    "velocity": 0.5433070866141733,
                    "duration": 0.472366500000021
                },
                {
                    "name": "A5",
                    "midi": 81,
                    "time": 435.52191300000356,
                    "velocity": 0.4566929133858268,
                    "duration": 0.472366500000021
                },
                {
                    "name": "E4",
                    "midi": 64,
                    "time": 435.7580962500036,
                    "velocity": 0.4566929133858268,
                    "duration": 0.2361832500000105
                },
                {
                    "name": "G#4",
                    "midi": 68,
                    "time": 435.9942795000036,
                    "velocity": 0.4094488188976378,
                    "duration": 0.2361832500000105
                },
                {
                    "name": "B5",
                    "midi": 83,
                    "time": 435.9942795000036,
                    "velocity": 0.5354330708661418,
                    "duration": 0.472366500000021
                },
                {
                    "name": "G#5",
                    "midi": 80,
                    "time": 435.9942795000036,
                    "velocity": 0.44881889763779526,
                    "duration": 0.472366500000021
                },
                {
                    "name": "B4",
                    "midi": 71,
                    "time": 435.9942795000036,
                    "velocity": 0.4094488188976378,
                    "duration": 0.2361832500000105
                },
                {
                    "name": "E4",
                    "midi": 64,
                    "time": 436.2304627500036,
                    "velocity": 0.44881889763779526,
                    "duration": 0.2361832500000105
                },
                {
                    "name": "A4",
                    "midi": 69,
                    "time": 436.4666460000036,
                    "velocity": 0.5039370078740157,
                    "duration": 0.2361832500000105
                },
                {
                    "name": "E4",
                    "midi": 64,
                    "time": 436.4666460000036,
                    "velocity": 0.5039370078740157,
                    "duration": 0.2361832500000105
                },
                {
                    "name": "C#4",
                    "midi": 61,
                    "time": 436.7028292500036,
                    "velocity": 0.47244094488188976,
                    "duration": 0.2361832500000105
                },
                {
                    "name": "A5",
                    "midi": 81,
                    "time": 436.9390125000036,
                    "velocity": 0.5511811023622047,
                    "duration": 0.472366500000021
                },
                {
                    "name": "E4",
                    "midi": 64,
                    "time": 436.9390125000036,
                    "velocity": 0.4251968503937008,
                    "duration": 0.2361832500000105
                },
                {
                    "name": "A4",
                    "midi": 69,
                    "time": 436.9390125000036,
                    "velocity": 0.4251968503937008,
                    "duration": 0.2361832500000105
                },
                {
                    "name": "C#5",
                    "midi": 73,
                    "time": 436.9390125000036,
                    "velocity": 0.4645669291338583,
                    "duration": 0.472366500000021
                },
                {
                    "name": "C#4",
                    "midi": 61,
                    "time": 437.17519575000364,
                    "velocity": 0.47244094488188976,
                    "duration": 0.2361832500000105
                },
                {
                    "name": "B5",
                    "midi": 83,
                    "time": 437.41137900000365,
                    "velocity": 0.5511811023622047,
                    "duration": 0.472366500000021
                },
                {
                    "name": "B4",
                    "midi": 71,
                    "time": 437.41137900000365,
                    "velocity": 0.5039370078740157,
                    "duration": 0.2361832500000105
                },
                {
                    "name": "G#4",
                    "midi": 68,
                    "time": 437.41137900000365,
                    "velocity": 0.5039370078740157,
                    "duration": 0.2361832500000105
                },
                {
                    "name": "E5",
                    "midi": 76,
                    "time": 437.41137900000365,
                    "velocity": 0.4645669291338583,
                    "duration": 0.472366500000021
                },
                {
                    "name": "E4",
                    "midi": 64,
                    "time": 437.64756225000366,
                    "velocity": 0.47244094488188976,
                    "duration": 0.2361832500000105
                },
                {
                    "name": "A5",
                    "midi": 81,
                    "time": 437.88374550000367,
                    "velocity": 0.48031496062992124,
                    "duration": 0.472366500000021
                },
                {
                    "name": "C#6",
                    "midi": 85,
                    "time": 437.88374550000367,
                    "velocity": 0.5748031496062992,
                    "duration": 0.472366500000021
                },
                {
                    "name": "C#5",
                    "midi": 73,
                    "time": 437.88374550000367,
                    "velocity": 0.5196850393700787,
                    "duration": 0.2361832500000105
                },
                {
                    "name": "A4",
                    "midi": 69,
                    "time": 437.88374550000367,
                    "velocity": 0.5196850393700787,
                    "duration": 0.2361832500000105
                },
                {
                    "name": "E4",
                    "midi": 64,
                    "time": 438.1199287500037,
                    "velocity": 0.48031496062992124,
                    "duration": 0.2361832500000105
                },
                {
                    "name": "C#5",
                    "midi": 73,
                    "time": 438.3561120000037,
                    "velocity": 0.4409448818897638,
                    "duration": 0.2361832500000105
                },
                {
                    "name": "A4",
                    "midi": 69,
                    "time": 438.3561120000037,
                    "velocity": 0.4409448818897638,
                    "duration": 0.2361832500000105
                },
                {
                    "name": "F#4",
                    "midi": 66,
                    "time": 438.5922952500037,
                    "velocity": 0.48031496062992124,
                    "duration": 0.2361832500000105
                },
                {
                    "name": "B4",
                    "midi": 71,
                    "time": 438.8284785000037,
                    "velocity": 0.47244094488188976,
                    "duration": 0.2361832500000105
                },
                {
                    "name": "D5",
                    "midi": 74,
                    "time": 438.8284785000037,
                    "velocity": 0.47244094488188976,
                    "duration": 0.2361832500000105
                },
                {
                    "name": "F#4",
                    "midi": 66,
                    "time": 439.0646617500037,
                    "velocity": 0.44881889763779526,
                    "duration": 0.2361832500000105
                },
                {
                    "name": "C#5",
                    "midi": 73,
                    "time": 439.30084500000373,
                    "velocity": 0.47244094488188976,
                    "duration": 0.2361832500000105
                },
                {
                    "name": "A4",
                    "midi": 69,
                    "time": 439.30084500000373,
                    "velocity": 0.47244094488188976,
                    "duration": 0.2361832500000105
                },
                {
                    "name": "E4",
                    "midi": 64,
                    "time": 439.53702825000374,
                    "velocity": 0.5196850393700787,
                    "duration": 0.2361832500000105
                },
                {
                    "name": "A4",
                    "midi": 69,
                    "time": 439.77321150000375,
                    "velocity": 0.3700787401574803,
                    "duration": 0.2361832500000105
                },
                {
                    "name": "A5",
                    "midi": 81,
                    "time": 439.77321150000375,
                    "velocity": 0.3937007874015748,
                    "duration": 0.472366500000021
                },
                {
                    "name": "C#6",
                    "midi": 85,
                    "time": 439.77321150000375,
                    "velocity": 0.47244094488188976,
                    "duration": 0.472366500000021
                },
                {
                    "name": "C#5",
                    "midi": 73,
                    "time": 439.77321150000375,
                    "velocity": 0.3700787401574803,
                    "duration": 0.2361832500000105
                },
                {
                    "name": "E4",
                    "midi": 64,
                    "time": 440.00939475000376,
                    "velocity": 0.3937007874015748,
                    "duration": 0.2361832500000105
                },
                {
                    "name": "B5",
                    "midi": 83,
                    "time": 440.2455780000038,
                    "velocity": 0.4645669291338583,
                    "duration": 0.472366500000021
                },
                {
                    "name": "B4",
                    "midi": 71,
                    "time": 440.2455780000038,
                    "velocity": 0.3543307086614173,
                    "duration": 0.2361832500000105
                },
                {
                    "name": "G#4",
                    "midi": 68,
                    "time": 440.2455780000038,
                    "velocity": 0.3543307086614173,
                    "duration": 0.2361832500000105
                },
                {
                    "name": "G#5",
                    "midi": 80,
                    "time": 440.2455780000038,
                    "velocity": 0.3858267716535433,
                    "duration": 0.472366500000021
                },
                {
                    "name": "E4",
                    "midi": 64,
                    "time": 440.4817612500038,
                    "velocity": 0.3858267716535433,
                    "duration": 0.2361832500000105
                },
                {
                    "name": "A5",
                    "midi": 81,
                    "time": 440.7179445000038,
                    "velocity": 0.41732283464566927,
                    "duration": 0.472366500000021
                },
                {
                    "name": "A4",
                    "midi": 69,
                    "time": 440.7179445000038,
                    "velocity": 0.41732283464566927,
                    "duration": 0.2361832500000105
                },
                {
                    "name": "E4",
                    "midi": 64,
                    "time": 440.9541277500038,
                    "velocity": 0.3779527559055118,
                    "duration": 0.2361832500000105
                },
                {
                    "name": "C#4",
                    "midi": 61,
                    "time": 441.1903110000038,
                    "velocity": 0.3937007874015748,
                    "duration": 0.2361832500000105
                },
                {
                    "name": "E4",
                    "midi": 64,
                    "time": 441.4264942500038,
                    "velocity": 0.3228346456692913,
                    "duration": 0.2361832500000105
                },
                {
                    "name": "A4",
                    "midi": 69,
                    "time": 441.66267750000384,
                    "velocity": 0.3779527559055118,
                    "duration": 0.2361832500000105
                },
                {
                    "name": "C#5",
                    "midi": 73,
                    "time": 442.13504400000386,
                    "velocity": 0.3937007874015748,
                    "duration": 0.2361832500000105
                },
                {
                    "name": "A4",
                    "midi": 69,
                    "time": 442.13504400000386,
                    "velocity": 0.3937007874015748,
                    "duration": 0.2361832500000105
                },
                {
                    "name": "E4",
                    "midi": 64,
                    "time": 442.37122725000387,
                    "velocity": 0.3937007874015748,
                    "duration": 0.2361832500000105
                },
                {
                    "name": "C#5",
                    "midi": 73,
                    "time": 442.6074105000039,
                    "velocity": 0.3464566929133858,
                    "duration": 0.2361832500000105
                },
                {
                    "name": "C#6",
                    "midi": 85,
                    "time": 442.6074105000039,
                    "velocity": 0.4094488188976378,
                    "duration": 0.472366500000021
                },
                {
                    "name": "A5",
                    "midi": 81,
                    "time": 442.6074105000039,
                    "velocity": 0.4094488188976378,
                    "duration": 0.472366500000021
                },
                {
                    "name": "A4",
                    "midi": 69,
                    "time": 442.6074105000039,
                    "velocity": 0.3464566929133858,
                    "duration": 0.2361832500000105
                },
                {
                    "name": "E4",
                    "midi": 64,
                    "time": 442.8435937500039,
                    "velocity": 0.3858267716535433,
                    "duration": 0.2361832500000105
                },
                {
                    "name": "B5",
                    "midi": 83,
                    "time": 443.0797770000039,
                    "velocity": 0.41732283464566927,
                    "duration": 0.472366500000021
                },
                {
                    "name": "D6",
                    "midi": 86,
                    "time": 443.0797770000039,
                    "velocity": 0.41732283464566927,
                    "duration": 0.472366500000021
                },
                {
                    "name": "B4",
                    "midi": 71,
                    "time": 443.0797770000039,
                    "velocity": 0.3543307086614173,
                    "duration": 0.2361832500000105
                },
                {
                    "name": "D5",
                    "midi": 74,
                    "time": 443.0797770000039,
                    "velocity": 0.3543307086614173,
                    "duration": 0.2361832500000105
                },
                {
                    "name": "E4",
                    "midi": 64,
                    "time": 443.3159602500039,
                    "velocity": 0.3937007874015748,
                    "duration": 0.2361832500000105
                },
                {
                    "name": "E5",
                    "midi": 76,
                    "time": 443.5521435000039,
                    "velocity": 0.36220472440944884,
                    "duration": 0.2361832500000105
                },
                {
                    "name": "E6",
                    "midi": 88,
                    "time": 443.5521435000039,
                    "velocity": 0.4330708661417323,
                    "duration": 0.472366500000021
                },
                {
                    "name": "C#5",
                    "midi": 73,
                    "time": 443.5521435000039,
                    "velocity": 0.36220472440944884,
                    "duration": 0.2361832500000105
                },
                {
                    "name": "C#6",
                    "midi": 85,
                    "time": 443.5521435000039,
                    "velocity": 0.4330708661417323,
                    "duration": 0.472366500000021
                },
                {
                    "name": "E4",
                    "midi": 64,
                    "time": 443.78832675000393,
                    "velocity": 0.3937007874015748,
                    "duration": 0.2361832500000105
                },
                {
                    "name": "B5",
                    "midi": 83,
                    "time": 444.02451000000394,
                    "velocity": 0.41732283464566927,
                    "duration": 0.472366500000021
                },
                {
                    "name": "D5",
                    "midi": 74,
                    "time": 444.02451000000394,
                    "velocity": 0.3543307086614173,
                    "duration": 0.2361832500000105
                },
                {
                    "name": "D6",
                    "midi": 86,
                    "time": 444.02451000000394,
                    "velocity": 0.41732283464566927,
                    "duration": 0.472366500000021
                },
                {
                    "name": "B4",
                    "midi": 71,
                    "time": 444.02451000000394,
                    "velocity": 0.3543307086614173,
                    "duration": 0.2361832500000105
                },
                {
                    "name": "E4",
                    "midi": 64,
                    "time": 444.26069325000395,
                    "velocity": 0.3858267716535433,
                    "duration": 0.2361832500000105
                },
                {
                    "name": "A4",
                    "midi": 69,
                    "time": 444.49687650000396,
                    "velocity": 0.3464566929133858,
                    "duration": 0.2361832500000105
                },
                {
                    "name": "C#5",
                    "midi": 73,
                    "time": 444.49687650000396,
                    "velocity": 0.3464566929133858,
                    "duration": 0.2361832500000105
                },
                {
                    "name": "A5",
                    "midi": 81,
                    "time": 444.49687650000396,
                    "velocity": 0.4094488188976378,
                    "duration": 0.472366500000021
                },
                {
                    "name": "C#6",
                    "midi": 85,
                    "time": 444.49687650000396,
                    "velocity": 0.4094488188976378,
                    "duration": 0.472366500000021
                },
                {
                    "name": "E4",
                    "midi": 64,
                    "time": 444.733059750004,
                    "velocity": 0.3779527559055118,
                    "duration": 0.2361832500000105
                },
                {
                    "name": "G#4",
                    "midi": 68,
                    "time": 444.969243000004,
                    "velocity": 0.3937007874015748,
                    "duration": 0.2361832500000105
                },
                {
                    "name": "B4",
                    "midi": 71,
                    "time": 444.969243000004,
                    "velocity": 0.3937007874015748,
                    "duration": 0.2361832500000105
                },
                {
                    "name": "E4",
                    "midi": 64,
                    "time": 445.205426250004,
                    "velocity": 0.3937007874015748,
                    "duration": 0.2361832500000105
                },
                {
                    "name": "G#5",
                    "midi": 80,
                    "time": 445.441609500004,
                    "velocity": 0.4094488188976378,
                    "duration": 0.472366500000021
                },
                {
                    "name": "B4",
                    "midi": 71,
                    "time": 445.441609500004,
                    "velocity": 0.3464566929133858,
                    "duration": 0.2361832500000105
                },
                {
                    "name": "B5",
                    "midi": 83,
                    "time": 445.441609500004,
                    "velocity": 0.4094488188976378,
                    "duration": 0.472366500000021
                },
                {
                    "name": "G#4",
                    "midi": 68,
                    "time": 445.441609500004,
                    "velocity": 0.3464566929133858,
                    "duration": 0.2361832500000105
                },
                {
                    "name": "E4",
                    "midi": 64,
                    "time": 445.677792750004,
                    "velocity": 0.3858267716535433,
                    "duration": 0.2361832500000105
                },
                {
                    "name": "A4",
                    "midi": 69,
                    "time": 445.913976000004,
                    "velocity": 0.3543307086614173,
                    "duration": 0.2361832500000105
                },
                {
                    "name": "A5",
                    "midi": 81,
                    "time": 445.913976000004,
                    "velocity": 0.41732283464566927,
                    "duration": 0.472366500000021
                },
                {
                    "name": "C#6",
                    "midi": 85,
                    "time": 445.913976000004,
                    "velocity": 0.41732283464566927,
                    "duration": 0.472366500000021
                },
                {
                    "name": "C#5",
                    "midi": 73,
                    "time": 445.913976000004,
                    "velocity": 0.3543307086614173,
                    "duration": 0.2361832500000105
                },
                {
                    "name": "E4",
                    "midi": 64,
                    "time": 446.15015925000404,
                    "velocity": 0.3937007874015748,
                    "duration": 0.2361832500000105
                },
                {
                    "name": "D5",
                    "midi": 74,
                    "time": 446.38634250000405,
                    "velocity": 0.36220472440944884,
                    "duration": 0.2361832500000105
                },
                {
                    "name": "B4",
                    "midi": 71,
                    "time": 446.38634250000405,
                    "velocity": 0.36220472440944884,
                    "duration": 0.2361832500000105
                },
                {
                    "name": "D6",
                    "midi": 86,
                    "time": 446.38634250000405,
                    "velocity": 0.4330708661417323,
                    "duration": 0.472366500000021
                },
                {
                    "name": "B5",
                    "midi": 83,
                    "time": 446.38634250000405,
                    "velocity": 0.4330708661417323,
                    "duration": 0.472366500000021
                },
                {
                    "name": "E4",
                    "midi": 64,
                    "time": 446.62252575000406,
                    "velocity": 0.3937007874015748,
                    "duration": 0.2361832500000105
                },
                {
                    "name": "C#6",
                    "midi": 85,
                    "time": 446.85870900000407,
                    "velocity": 0.41732283464566927,
                    "duration": 0.472366500000021
                },
                {
                    "name": "A4",
                    "midi": 69,
                    "time": 446.85870900000407,
                    "velocity": 0.3543307086614173,
                    "duration": 0.2361832500000105
                },
                {
                    "name": "C#5",
                    "midi": 73,
                    "time": 446.85870900000407,
                    "velocity": 0.3543307086614173,
                    "duration": 0.2361832500000105
                },
                {
                    "name": "A5",
                    "midi": 81,
                    "time": 446.85870900000407,
                    "velocity": 0.41732283464566927,
                    "duration": 0.472366500000021
                },
                {
                    "name": "E4",
                    "midi": 64,
                    "time": 447.0948922500041,
                    "velocity": 0.3858267716535433,
                    "duration": 0.2361832500000105
                },
                {
                    "name": "B5",
                    "midi": 83,
                    "time": 447.3310755000041,
                    "velocity": 0.4094488188976378,
                    "duration": 0.472366500000021
                },
                {
                    "name": "B4",
                    "midi": 71,
                    "time": 447.3310755000041,
                    "velocity": 0.3464566929133858,
                    "duration": 0.2361832500000105
                },
                {
                    "name": "G#5",
                    "midi": 80,
                    "time": 447.3310755000041,
                    "velocity": 0.4094488188976378,
                    "duration": 0.472366500000021
                },
                {
                    "name": "G#4",
                    "midi": 68,
                    "time": 447.3310755000041,
                    "velocity": 0.3464566929133858,
                    "duration": 0.2361832500000105
                },
                {
                    "name": "E4",
                    "midi": 64,
                    "time": 447.5672587500041,
                    "velocity": 0.3779527559055118,
                    "duration": 0.2361832500000105
                },
                {
                    "name": "E4",
                    "midi": 64,
                    "time": 447.8034420000041,
                    "velocity": 0.4251968503937008,
                    "duration": 0.2361832500000105
                },
                {
                    "name": "A4",
                    "midi": 69,
                    "time": 447.8034420000041,
                    "velocity": 0.4251968503937008,
                    "duration": 0.2361832500000105
                },
                {
                    "name": "C#4",
                    "midi": 61,
                    "time": 448.0396252500041,
                    "velocity": 0.3937007874015748,
                    "duration": 0.2361832500000105
                },
                {
                    "name": "E4",
                    "midi": 64,
                    "time": 448.27580850000413,
                    "velocity": 0.3543307086614173,
                    "duration": 0.2361832500000105
                },
                {
                    "name": "A4",
                    "midi": 69,
                    "time": 448.27580850000413,
                    "velocity": 0.3543307086614173,
                    "duration": 0.2361832500000105
                },
                {
                    "name": "A5",
                    "midi": 81,
                    "time": 448.27580850000413,
                    "velocity": 0.4251968503937008,
                    "duration": 0.472366500000021
                },
                {
                    "name": "C#4",
                    "midi": 61,
                    "time": 448.51199175000414,
                    "velocity": 0.3937007874015748,
                    "duration": 0.2361832500000105
                },
                {
                    "name": "E4",
                    "midi": 64,
                    "time": 448.74817500000415,
                    "velocity": 0.4251968503937008,
                    "duration": 0.2361832500000105
                },
                {
                    "name": "A4",
                    "midi": 69,
                    "time": 448.74817500000415,
                    "velocity": 0.4251968503937008,
                    "duration": 0.2361832500000105
                },
                {
                    "name": "C#4",
                    "midi": 61,
                    "time": 448.98435825000416,
                    "velocity": 0.3937007874015748,
                    "duration": 0.2361832500000105
                },
                {
                    "name": "B4",
                    "midi": 71,
                    "time": 449.2205415000042,
                    "velocity": 0.4330708661417323,
                    "duration": 0.2361832500000105
                },
                {
                    "name": "G#4",
                    "midi": 68,
                    "time": 449.2205415000042,
                    "velocity": 0.4330708661417323,
                    "duration": 0.2361832500000105
                },
                {
                    "name": "E4",
                    "midi": 64,
                    "time": 449.4567247500042,
                    "velocity": 0.4015748031496063,
                    "duration": 0.2361832500000105
                },
                {
                    "name": "G#4",
                    "midi": 68,
                    "time": 449.6929080000042,
                    "velocity": 0.3700787401574803,
                    "duration": 0.2361832500000105
                },
                {
                    "name": "B5",
                    "midi": 83,
                    "time": 449.6929080000042,
                    "velocity": 0.4409448818897638,
                    "duration": 0.472366500000021
                },
                {
                    "name": "B4",
                    "midi": 71,
                    "time": 449.6929080000042,
                    "velocity": 0.3700787401574803,
                    "duration": 0.2361832500000105
                },
                {
                    "name": "E4",
                    "midi": 64,
                    "time": 449.9290912500042,
                    "velocity": 0.4015748031496063,
                    "duration": 0.2361832500000105
                },
                {
                    "name": "B4",
                    "midi": 71,
                    "time": 450.1652745000042,
                    "velocity": 0.3937007874015748,
                    "duration": 0.2361832500000105
                },
                {
                    "name": "G#4",
                    "midi": 68,
                    "time": 450.1652745000042,
                    "velocity": 0.3937007874015748,
                    "duration": 0.2361832500000105
                },
                {
                    "name": "E4",
                    "midi": 64,
                    "time": 450.4014577500042,
                    "velocity": 0.3779527559055118,
                    "duration": 0.2361832500000105
                },
                {
                    "name": "C#5",
                    "midi": 73,
                    "time": 450.63764100000424,
                    "velocity": 0.36220472440944884,
                    "duration": 0.2361832500000105
                },
                {
                    "name": "A4",
                    "midi": 69,
                    "time": 450.63764100000424,
                    "velocity": 0.36220472440944884,
                    "duration": 0.2361832500000105
                },
                {
                    "name": "C#6",
                    "midi": 85,
                    "time": 450.63764100000424,
                    "velocity": 0.4330708661417323,
                    "duration": 0.472366500000021
                },
                {
                    "name": "A5",
                    "midi": 81,
                    "time": 450.63764100000424,
                    "velocity": 0.4330708661417323,
                    "duration": 0.472366500000021
                },
                {
                    "name": "E4",
                    "midi": 64,
                    "time": 450.87382425000425,
                    "velocity": 0.3937007874015748,
                    "duration": 0.2361832500000105
                },
                {
                    "name": "D6",
                    "midi": 86,
                    "time": 451.11000750000426,
                    "velocity": 0.41732283464566927,
                    "duration": 0.472366500000021
                },
                {
                    "name": "D5",
                    "midi": 74,
                    "time": 451.11000750000426,
                    "velocity": 0.3543307086614173,
                    "duration": 0.2361832500000105
                },
                {
                    "name": "B5",
                    "midi": 83,
                    "time": 451.11000750000426,
                    "velocity": 0.41732283464566927,
                    "duration": 0.472366500000021
                },
                {
                    "name": "B4",
                    "midi": 71,
                    "time": 451.11000750000426,
                    "velocity": 0.3543307086614173,
                    "duration": 0.2361832500000105
                },
                {
                    "name": "E4",
                    "midi": 64,
                    "time": 451.34619075000427,
                    "velocity": 0.3858267716535433,
                    "duration": 0.2361832500000105
                },
                {
                    "name": "C#6",
                    "midi": 85,
                    "time": 451.5823740000043,
                    "velocity": 0.4094488188976378,
                    "duration": 0.472366500000021
                },
                {
                    "name": "A4",
                    "midi": 69,
                    "time": 451.5823740000043,
                    "velocity": 0.3464566929133858,
                    "duration": 0.2361832500000105
                },
                {
                    "name": "C#5",
                    "midi": 73,
                    "time": 451.5823740000043,
                    "velocity": 0.3464566929133858,
                    "duration": 0.2361832500000105
                },
                {
                    "name": "A5",
                    "midi": 81,
                    "time": 451.5823740000043,
                    "velocity": 0.4094488188976378,
                    "duration": 0.472366500000021
                },
                {
                    "name": "E4",
                    "midi": 64,
                    "time": 451.8185572500043,
                    "velocity": 0.3779527559055118,
                    "duration": 0.2361832500000105
                },
                {
                    "name": "G#4",
                    "midi": 68,
                    "time": 452.0547405000043,
                    "velocity": 0.3464566929133858,
                    "duration": 0.2361832500000105
                },
                {
                    "name": "G#5",
                    "midi": 80,
                    "time": 452.0547405000043,
                    "velocity": 0.4094488188976378,
                    "duration": 0.472366500000021
                },
                {
                    "name": "B5",
                    "midi": 83,
                    "time": 452.0547405000043,
                    "velocity": 0.4094488188976378,
                    "duration": 0.472366500000021
                },
                {
                    "name": "B4",
                    "midi": 71,
                    "time": 452.0547405000043,
                    "velocity": 0.3464566929133858,
                    "duration": 0.2361832500000105
                },
                {
                    "name": "E4",
                    "midi": 64,
                    "time": 452.2909237500043,
                    "velocity": 0.3858267716535433,
                    "duration": 0.2361832500000105
                },
                {
                    "name": "D#5",
                    "midi": 75,
                    "time": 452.5271070000043,
                    "velocity": 0.4409448818897638,
                    "duration": 0.2361832500000105
                },
                {
                    "name": "E5",
                    "midi": 76,
                    "time": 452.76329025000433,
                    "velocity": 0.41732283464566927,
                    "duration": 0.2361832500000105
                },
                {
                    "name": "D#5",
                    "midi": 75,
                    "time": 452.99947350000434,
                    "velocity": 0.4409448818897638,
                    "duration": 0.2361832500000105
                },
                {
                    "name": "E5",
                    "midi": 76,
                    "time": 453.23565675000435,
                    "velocity": 0.41732283464566927,
                    "duration": 0.2361832500000105
                },
                {
                    "name": "A4",
                    "midi": 69,
                    "time": 453.47184000000436,
                    "velocity": 0.47244094488188976,
                    "duration": 0.2361832500000105
                },
                {
                    "name": "C#5",
                    "midi": 73,
                    "time": 453.47184000000436,
                    "velocity": 0.47244094488188976,
                    "duration": 0.2361832500000105
                },
                {
                    "name": "E4",
                    "midi": 64,
                    "time": 453.7080232500044,
                    "velocity": 0.47244094488188976,
                    "duration": 0.2361832500000105
                },
                {
                    "name": "A5",
                    "midi": 81,
                    "time": 453.9442065000044,
                    "velocity": 0.44881889763779526,
                    "duration": 0.472366500000021
                },
                {
                    "name": "C#5",
                    "midi": 73,
                    "time": 453.9442065000044,
                    "velocity": 0.4094488188976378,
                    "duration": 0.2361832500000105
                },
                {
                    "name": "C#6",
                    "midi": 85,
                    "time": 453.9442065000044,
                    "velocity": 0.5354330708661418,
                    "duration": 0.472366500000021
                },
                {
                    "name": "A4",
                    "midi": 69,
                    "time": 453.9442065000044,
                    "velocity": 0.4094488188976378,
                    "duration": 0.2361832500000105
                },
                {
                    "name": "E4",
                    "midi": 64,
                    "time": 454.1803897500044,
                    "velocity": 0.4566929133858268,
                    "duration": 0.2361832500000105
                },
                {
                    "name": "D5",
                    "midi": 74,
                    "time": 454.4165730000044,
                    "velocity": 0.4251968503937008,
                    "duration": 0.2361832500000105
                },
                {
                    "name": "D6",
                    "midi": 86,
                    "time": 454.4165730000044,
                    "velocity": 0.5433070866141733,
                    "duration": 0.472366500000021
                },
                {
                    "name": "B5",
                    "midi": 83,
                    "time": 454.4165730000044,
                    "velocity": 0.4566929133858268,
                    "duration": 0.472366500000021
                },
                {
                    "name": "B4",
                    "midi": 71,
                    "time": 454.4165730000044,
                    "velocity": 0.4251968503937008,
                    "duration": 0.2361832500000105
                },
                {
                    "name": "E4",
                    "midi": 64,
                    "time": 454.6527562500044,
                    "velocity": 0.47244094488188976,
                    "duration": 0.2361832500000105
                },
                {
                    "name": "C#5",
                    "midi": 73,
                    "time": 454.8889395000044,
                    "velocity": 0.4330708661417323,
                    "duration": 0.2361832500000105
                },
                {
                    "name": "E5",
                    "midi": 76,
                    "time": 454.8889395000044,
                    "velocity": 0.4330708661417323,
                    "duration": 0.2361832500000105
                },
                {
                    "name": "C#6",
                    "midi": 85,
                    "time": 454.8889395000044,
                    "velocity": 0.48031496062992124,
                    "duration": 0.472366500000021
                },
                {
                    "name": "E6",
                    "midi": 88,
                    "time": 454.8889395000044,
                    "velocity": 0.5669291338582677,
                    "duration": 0.472366500000021
                },
                {
                    "name": "E4",
                    "midi": 64,
                    "time": 455.12512275000444,
                    "velocity": 0.47244094488188976,
                    "duration": 0.2361832500000105
                },
                {
                    "name": "D6",
                    "midi": 86,
                    "time": 455.36130600000445,
                    "velocity": 0.5433070866141733,
                    "duration": 0.472366500000021
                },
                {
                    "name": "B4",
                    "midi": 71,
                    "time": 455.36130600000445,
                    "velocity": 0.4251968503937008,
                    "duration": 0.2361832500000105
                },
                {
                    "name": "B5",
                    "midi": 83,
                    "time": 455.36130600000445,
                    "velocity": 0.4566929133858268,
                    "duration": 0.472366500000021
                },
                {
                    "name": "D5",
                    "midi": 74,
                    "time": 455.36130600000445,
                    "velocity": 0.4251968503937008,
                    "duration": 0.2361832500000105
                },
                {
                    "name": "E4",
                    "midi": 64,
                    "time": 455.59748925000446,
                    "velocity": 0.4566929133858268,
                    "duration": 0.2361832500000105
                },
                {
                    "name": "A5",
                    "midi": 81,
                    "time": 455.83367250000447,
                    "velocity": 0.44881889763779526,
                    "duration": 0.472366500000021
                },
                {
                    "name": "C#5",
                    "midi": 73,
                    "time": 455.83367250000447,
                    "velocity": 0.4094488188976378,
                    "duration": 0.2361832500000105
                },
                {
                    "name": "C#6",
                    "midi": 85,
                    "time": 455.83367250000447,
                    "velocity": 0.5354330708661418,
                    "duration": 0.472366500000021
                },
                {
                    "name": "A4",
                    "midi": 69,
                    "time": 455.83367250000447,
                    "velocity": 0.4094488188976378,
                    "duration": 0.2361832500000105
                },
                {
                    "name": "E4",
                    "midi": 64,
                    "time": 456.0698557500045,
                    "velocity": 0.44881889763779526,
                    "duration": 0.2361832500000105
                },
                {
                    "name": "G#4",
                    "midi": 68,
                    "time": 456.3060390000045,
                    "velocity": 0.47244094488188976,
                    "duration": 0.2361832500000105
                },
                {
                    "name": "B4",
                    "midi": 71,
                    "time": 456.3060390000045,
                    "velocity": 0.47244094488188976,
                    "duration": 0.2361832500000105
                },
                {
                    "name": "E4",
                    "midi": 64,
                    "time": 456.5422222500045,
                    "velocity": 0.47244094488188976,
                    "duration": 0.2361832500000105
                },
                {
                    "name": "B4",
                    "midi": 71,
                    "time": 456.7784055000045,
                    "velocity": 0.4094488188976378,
                    "duration": 0.2361832500000105
                },
                {
                    "name": "G#5",
                    "midi": 80,
                    "time": 456.7784055000045,
                    "velocity": 0.44881889763779526,
                    "duration": 0.472366500000021
                },
                {
                    "name": "G#4",
                    "midi": 68,
                    "time": 456.7784055000045,
                    "velocity": 0.4094488188976378,
                    "duration": 0.2361832500000105
                },
                {
                    "name": "B5",
                    "midi": 83,
                    "time": 456.7784055000045,
                    "velocity": 0.5354330708661418,
                    "duration": 0.472366500000021
                },
                {
                    "name": "E4",
                    "midi": 64,
                    "time": 457.0145887500045,
                    "velocity": 0.4566929133858268,
                    "duration": 0.2361832500000105
                },
                {
                    "name": "A4",
                    "midi": 69,
                    "time": 457.25077200000453,
                    "velocity": 0.4251968503937008,
                    "duration": 0.2361832500000105
                },
                {
                    "name": "C#5",
                    "midi": 73,
                    "time": 457.25077200000453,
                    "velocity": 0.4251968503937008,
                    "duration": 0.2361832500000105
                },
                {
                    "name": "A5",
                    "midi": 81,
                    "time": 457.25077200000453,
                    "velocity": 0.4566929133858268,
                    "duration": 0.472366500000021
                },
                {
                    "name": "C#6",
                    "midi": 85,
                    "time": 457.25077200000453,
                    "velocity": 0.5433070866141733,
                    "duration": 0.472366500000021
                },
                {
                    "name": "E4",
                    "midi": 64,
                    "time": 457.48695525000454,
                    "velocity": 0.47244094488188976,
                    "duration": 0.2361832500000105
                },
                {
                    "name": "B4",
                    "midi": 71,
                    "time": 457.72313850000455,
                    "velocity": 0.4330708661417323,
                    "duration": 0.2361832500000105
                },
                {
                    "name": "B5",
                    "midi": 83,
                    "time": 457.72313850000455,
                    "velocity": 0.48031496062992124,
                    "duration": 0.472366500000021
                },
                {
                    "name": "D6",
                    "midi": 86,
                    "time": 457.72313850000455,
                    "velocity": 0.5669291338582677,
                    "duration": 0.472366500000021
                },
                {
                    "name": "D5",
                    "midi": 74,
                    "time": 457.72313850000455,
                    "velocity": 0.4330708661417323,
                    "duration": 0.2361832500000105
                },
                {
                    "name": "E4",
                    "midi": 64,
                    "time": 457.95932175000456,
                    "velocity": 0.47244094488188976,
                    "duration": 0.2361832500000105
                },
                {
                    "name": "C#5",
                    "midi": 73,
                    "time": 458.1955050000046,
                    "velocity": 0.4251968503937008,
                    "duration": 0.2361832500000105
                },
                {
                    "name": "C#6",
                    "midi": 85,
                    "time": 458.1955050000046,
                    "velocity": 0.5433070866141733,
                    "duration": 0.472366500000021
                },
                {
                    "name": "A5",
                    "midi": 81,
                    "time": 458.1955050000046,
                    "velocity": 0.4566929133858268,
                    "duration": 0.472366500000021
                },
                {
                    "name": "A4",
                    "midi": 69,
                    "time": 458.1955050000046,
                    "velocity": 0.4251968503937008,
                    "duration": 0.2361832500000105
                },
                {
                    "name": "E4",
                    "midi": 64,
                    "time": 458.4316882500046,
                    "velocity": 0.4566929133858268,
                    "duration": 0.2361832500000105
                },
                {
                    "name": "B4",
                    "midi": 71,
                    "time": 458.6678715000046,
                    "velocity": 0.4094488188976378,
                    "duration": 0.2361832500000105
                },
                {
                    "name": "B5",
                    "midi": 83,
                    "time": 458.6678715000046,
                    "velocity": 0.5354330708661418,
                    "duration": 0.472366500000021
                },
                {
                    "name": "G#5",
                    "midi": 80,
                    "time": 458.6678715000046,
                    "velocity": 0.44881889763779526,
                    "duration": 0.472366500000021
                },
                {
                    "name": "G#4",
                    "midi": 68,
                    "time": 458.6678715000046,
                    "velocity": 0.4094488188976378,
                    "duration": 0.2361832500000105
                },
                {
                    "name": "E4",
                    "midi": 64,
                    "time": 458.9040547500046,
                    "velocity": 0.44881889763779526,
                    "duration": 0.2361832500000105
                },
                {
                    "name": "A4",
                    "midi": 69,
                    "time": 459.1402380000046,
                    "velocity": 0.5039370078740157,
                    "duration": 0.2361832500000105
                },
                {
                    "name": "E4",
                    "midi": 64,
                    "time": 459.1402380000046,
                    "velocity": 0.5039370078740157,
                    "duration": 0.2361832500000105
                },
                {
                    "name": "C#4",
                    "midi": 61,
                    "time": 459.3764212500046,
                    "velocity": 0.47244094488188976,
                    "duration": 0.2361832500000105
                },
                {
                    "name": "A5",
                    "midi": 81,
                    "time": 459.61260450000464,
                    "velocity": 0.5511811023622047,
                    "duration": 0.472366500000021
                },
                {
                    "name": "E4",
                    "midi": 64,
                    "time": 459.61260450000464,
                    "velocity": 0.4251968503937008,
                    "duration": 0.2361832500000105
                },
                {
                    "name": "A4",
                    "midi": 69,
                    "time": 459.61260450000464,
                    "velocity": 0.4251968503937008,
                    "duration": 0.2361832500000105
                },
                {
                    "name": "C#5",
                    "midi": 73,
                    "time": 459.61260450000464,
                    "velocity": 0.4645669291338583,
                    "duration": 0.472366500000021
                },
                {
                    "name": "C#4",
                    "midi": 61,
                    "time": 459.84878775000465,
                    "velocity": 0.47244094488188976,
                    "duration": 0.2361832500000105
                },
                {
                    "name": "G#4",
                    "midi": 68,
                    "time": 460.08497100000466,
                    "velocity": 0.5039370078740157,
                    "duration": 0.2361832500000105
                },
                {
                    "name": "E5",
                    "midi": 76,
                    "time": 460.08497100000466,
                    "velocity": 0.4645669291338583,
                    "duration": 0.472366500000021
                },
                {
                    "name": "B4",
                    "midi": 71,
                    "time": 460.08497100000466,
                    "velocity": 0.5039370078740157,
                    "duration": 0.2361832500000105
                },
                {
                    "name": "B5",
                    "midi": 83,
                    "time": 460.08497100000466,
                    "velocity": 0.5511811023622047,
                    "duration": 0.472366500000021
                },
                {
                    "name": "E4",
                    "midi": 64,
                    "time": 460.32115425000467,
                    "velocity": 0.47244094488188976,
                    "duration": 0.2361832500000105
                },
                {
                    "name": "A4",
                    "midi": 69,
                    "time": 460.5573375000047,
                    "velocity": 0.5196850393700787,
                    "duration": 0.2361832500000105
                },
                {
                    "name": "C#6",
                    "midi": 85,
                    "time": 460.5573375000047,
                    "velocity": 0.5748031496062992,
                    "duration": 0.472366500000021
                },
                {
                    "name": "C#5",
                    "midi": 73,
                    "time": 460.5573375000047,
                    "velocity": 0.5196850393700787,
                    "duration": 0.2361832500000105
                },
                {
                    "name": "A5",
                    "midi": 81,
                    "time": 460.5573375000047,
                    "velocity": 0.48031496062992124,
                    "duration": 0.472366500000021
                },
                {
                    "name": "E4",
                    "midi": 64,
                    "time": 460.7935207500047,
                    "velocity": 0.48031496062992124,
                    "duration": 0.2361832500000105
                },
                {
                    "name": "C#5",
                    "midi": 73,
                    "time": 461.0297040000047,
                    "velocity": 0.4409448818897638,
                    "duration": 0.2361832500000105
                },
                {
                    "name": "A4",
                    "midi": 69,
                    "time": 461.0297040000047,
                    "velocity": 0.4409448818897638,
                    "duration": 0.2361832500000105
                },
                {
                    "name": "F#4",
                    "midi": 66,
                    "time": 461.2658872500047,
                    "velocity": 0.48031496062992124,
                    "duration": 0.2361832500000105
                },
                {
                    "name": "B4",
                    "midi": 71,
                    "time": 461.5020705000047,
                    "velocity": 0.47244094488188976,
                    "duration": 0.2361832500000105
                },
                {
                    "name": "D5",
                    "midi": 74,
                    "time": 461.5020705000047,
                    "velocity": 0.47244094488188976,
                    "duration": 0.2361832500000105
                },
                {
                    "name": "F#4",
                    "midi": 66,
                    "time": 461.73825375000473,
                    "velocity": 0.44881889763779526,
                    "duration": 0.2361832500000105
                },
                {
                    "name": "A4",
                    "midi": 69,
                    "time": 461.97443700000474,
                    "velocity": 0.47244094488188976,
                    "duration": 0.2361832500000105
                },
                {
                    "name": "C#5",
                    "midi": 73,
                    "time": 461.97443700000474,
                    "velocity": 0.47244094488188976,
                    "duration": 0.2361832500000105
                },
                {
                    "name": "E4",
                    "midi": 64,
                    "time": 462.21062025000475,
                    "velocity": 0.5196850393700787,
                    "duration": 0.2361832500000105
                },
                {
                    "name": "C#6",
                    "midi": 85,
                    "time": 462.44680350000476,
                    "velocity": 0.47244094488188976,
                    "duration": 0.472366500000021
                },
                {
                    "name": "A5",
                    "midi": 81,
                    "time": 462.44680350000476,
                    "velocity": 0.3937007874015748,
                    "duration": 0.472366500000021
                },
                {
                    "name": "A4",
                    "midi": 69,
                    "time": 462.44680350000476,
                    "velocity": 0.3700787401574803,
                    "duration": 0.2361832500000105
                },
                {
                    "name": "C#5",
                    "midi": 73,
                    "time": 462.44680350000476,
                    "velocity": 0.3700787401574803,
                    "duration": 0.2361832500000105
                },
                {
                    "name": "E4",
                    "midi": 64,
                    "time": 462.6829867500048,
                    "velocity": 0.3937007874015748,
                    "duration": 0.2361832500000105
                },
                {
                    "name": "G#5",
                    "midi": 80,
                    "time": 462.9191700000048,
                    "velocity": 0.3858267716535433,
                    "duration": 0.472366500000021
                },
                {
                    "name": "B4",
                    "midi": 71,
                    "time": 462.9191700000048,
                    "velocity": 0.3543307086614173,
                    "duration": 0.2361832500000105
                },
                {
                    "name": "B5",
                    "midi": 83,
                    "time": 462.9191700000048,
                    "velocity": 0.4645669291338583,
                    "duration": 0.472366500000021
                },
                {
                    "name": "G#4",
                    "midi": 68,
                    "time": 462.9191700000048,
                    "velocity": 0.3543307086614173,
                    "duration": 0.2361832500000105
                },
                {
                    "name": "E4",
                    "midi": 64,
                    "time": 463.1553532500048,
                    "velocity": 0.3858267716535433,
                    "duration": 0.2361832500000105
                },
                {
                    "name": "A4",
                    "midi": 69,
                    "time": 463.3915365000048,
                    "velocity": 0.41732283464566927,
                    "duration": 0.2361832500000105
                },
                {
                    "name": "A5",
                    "midi": 81,
                    "time": 463.3915365000048,
                    "velocity": 0.41732283464566927,
                    "duration": 0.472366500000021
                },
                {
                    "name": "E4",
                    "midi": 64,
                    "time": 463.6277197500048,
                    "velocity": 0.3779527559055118,
                    "duration": 0.2361832500000105
                },
                {
                    "name": "C#4",
                    "midi": 61,
                    "time": 463.8639030000048,
                    "velocity": 0.3937007874015748,
                    "duration": 0.2361832500000105
                },
                {
                    "name": "E4",
                    "midi": 64,
                    "time": 464.10008625000484,
                    "velocity": 0.3228346456692913,
                    "duration": 0.2361832500000105
                },
                {
                    "name": "A4",
                    "midi": 69,
                    "time": 464.33626950000485,
                    "velocity": 0.3779527559055118,
                    "duration": 0.2361832500000105
                },
                {
                    "name": "E5",
                    "midi": 76,
                    "time": 464.80863600000487,
                    "velocity": 0.4251968503937008,
                    "duration": 0.7085497499999747
                },
                {
                    "name": "F#5",
                    "midi": 78,
                    "time": 465.51718575000484,
                    "velocity": 0.4251968503937008,
                    "duration": 0.11809162499997683
                },
                {
                    "name": "E5",
                    "midi": 76,
                    "time": 465.6352773750048,
                    "velocity": 0.3937007874015748,
                    "duration": 0.11809162499997683
                },
                {
                    "name": "D5",
                    "midi": 74,
                    "time": 465.7533690000048,
                    "velocity": 0.4330708661417323,
                    "duration": 0.11809162499997683
                },
                {
                    "name": "C#5",
                    "midi": 73,
                    "time": 465.8714606250048,
                    "velocity": 0.4251968503937008,
                    "duration": 0.11809162499997683
                },
                {
                    "name": "B4",
                    "midi": 71,
                    "time": 465.98955225000475,
                    "velocity": 0.41732283464566927,
                    "duration": 0.11809162499997683
                },
                {
                    "name": "A4",
                    "midi": 69,
                    "time": 466.1076438750047,
                    "velocity": 0.4094488188976378,
                    "duration": 0.11809162499997683
                },
                {
                    "name": "F5",
                    "midi": 77,
                    "time": 466.2257355000047,
                    "velocity": 0.44881889763779526,
                    "duration": 0.2361832500000105
                },
                {
                    "name": "F#5",
                    "midi": 78,
                    "time": 466.4619187500047,
                    "velocity": 0.4251968503937008,
                    "duration": 0.22437408749999577
                },
                {
                    "name": "F#5",
                    "midi": 78,
                    "time": 466.6981020000047,
                    "velocity": 0.4251968503937008,
                    "duration": 0.2361832500000105
                },
                {
                    "name": "A5",
                    "midi": 81,
                    "time": 467.6428350000047,
                    "velocity": 0.4566929133858268,
                    "duration": 0.2361832500000105
                },
                {
                    "name": "G#5",
                    "midi": 80,
                    "time": 467.8790182500047,
                    "velocity": 0.4330708661417323,
                    "duration": 0.2361832500000105
                },
                {
                    "name": "B5",
                    "midi": 83,
                    "time": 468.11520150000473,
                    "velocity": 0.4566929133858268,
                    "duration": 0.2361832500000105
                },
                {
                    "name": "A5",
                    "midi": 81,
                    "time": 468.35138475000474,
                    "velocity": 0.4566929133858268,
                    "duration": 0.2361832500000105
                },
                {
                    "name": "G#5",
                    "midi": 80,
                    "time": 468.58756800000475,
                    "velocity": 0.4645669291338583,
                    "duration": 0.2361832500000105
                },
                {
                    "name": "F#5",
                    "midi": 78,
                    "time": 468.82375125000476,
                    "velocity": 0.47244094488188976,
                    "duration": 0.2361832500000105
                },
                {
                    "name": "D#5",
                    "midi": 75,
                    "time": 469.0599345000048,
                    "velocity": 0.4881889763779528,
                    "duration": 0.2361832500000105
                },
                {
                    "name": "E5",
                    "midi": 76,
                    "time": 469.2961177500048,
                    "velocity": 0.44881889763779526,
                    "duration": 0.22043769999999085
                },
                {
                    "name": "E5",
                    "midi": 76,
                    "time": 469.5323010000048,
                    "velocity": 0.44881889763779526,
                    "duration": 0.2361832500000105
                },
                {
                    "name": "E5",
                    "midi": 76,
                    "time": 470.4770340000048,
                    "velocity": 0.49606299212598426,
                    "duration": 0.7085497499999747
                },
                {
                    "name": "F#5",
                    "midi": 78,
                    "time": 471.18558375000475,
                    "velocity": 0.4330708661417323,
                    "duration": 0.11809162499997683
                },
                {
                    "name": "E5",
                    "midi": 76,
                    "time": 471.30367537500473,
                    "velocity": 0.3937007874015748,
                    "duration": 0.11809162499997683
                },
                {
                    "name": "D5",
                    "midi": 74,
                    "time": 471.4217670000047,
                    "velocity": 0.4566929133858268,
                    "duration": 0.11809162499997683
                },
                {
                    "name": "C#5",
                    "midi": 73,
                    "time": 471.5398586250047,
                    "velocity": 0.4409448818897638,
                    "duration": 0.11809162499997683
                },
                {
                    "name": "B4",
                    "midi": 71,
                    "time": 471.65795025000466,
                    "velocity": 0.4251968503937008,
                    "duration": 0.11809162499997683
                },
                {
                    "name": "A4",
                    "midi": 69,
                    "time": 471.77604187500464,
                    "velocity": 0.41732283464566927,
                    "duration": 0.11809162499997683
                },
                {
                    "name": "E5",
                    "midi": 76,
                    "time": 471.8941335000046,
                    "velocity": 0.49606299212598426,
                    "duration": 0.2361832500000105
                },
                {
                    "name": "D5",
                    "midi": 74,
                    "time": 472.1303167500046,
                    "velocity": 0.49606299212598426,
                    "duration": 0.472366500000021
                },
                {
                    "name": "F#5",
                    "midi": 78,
                    "time": 472.60268325000465,
                    "velocity": 0.4330708661417323,
                    "duration": 0.11809162499997683
                },
                {
                    "name": "E5",
                    "midi": 76,
                    "time": 472.7207748750046,
                    "velocity": 0.3937007874015748,
                    "duration": 0.11809162499997683
                },
                {
                    "name": "D5",
                    "midi": 74,
                    "time": 472.8388665000046,
                    "velocity": 0.4566929133858268,
                    "duration": 0.11809162499997683
                },
                {
                    "name": "C#5",
                    "midi": 73,
                    "time": 472.9569581250046,
                    "velocity": 0.4409448818897638,
                    "duration": 0.11809162499997683
                },
                {
                    "name": "B4",
                    "midi": 71,
                    "time": 473.07504975000455,
                    "velocity": 0.4251968503937008,
                    "duration": 0.11809162499997683
                },
                {
                    "name": "A4",
                    "midi": 69,
                    "time": 473.19314137500453,
                    "velocity": 0.41732283464566927,
                    "duration": 0.11809162499997683
                },
                {
                    "name": "A4",
                    "midi": 69,
                    "time": 473.3112330000045,
                    "velocity": 0.4881889763779528,
                    "duration": 0.472366500000021
                },
                {
                    "name": "G#4",
                    "midi": 68,
                    "time": 473.7835995000045,
                    "velocity": 0.4566929133858268,
                    "duration": 0.472366500000021
                },
                {
                    "name": "D#4",
                    "midi": 63,
                    "time": 474.25596600000455,
                    "velocity": 0.3937007874015748,
                    "duration": 0.472366500000021
                },
                {
                    "name": "A4",
                    "midi": 69,
                    "time": 474.25596600000455,
                    "velocity": 0.4645669291338583,
                    "duration": 0.472366500000021
                },
                {
                    "name": "E4",
                    "midi": 64,
                    "time": 474.72833250000457,
                    "velocity": 0.41732283464566927,
                    "duration": 1.4170995000000062
                },
                {
                    "name": "A4",
                    "midi": 69,
                    "time": 474.72833250000457,
                    "velocity": 0.41732283464566927,
                    "duration": 0.9447329999999852
                },
                {
                    "name": "C#5",
                    "midi": 73,
                    "time": 474.72833250000457,
                    "velocity": 0.49606299212598426,
                    "duration": 0.9447329999999852
                },
                {
                    "name": "B4",
                    "midi": 71,
                    "time": 475.67306550000455,
                    "velocity": 0.3700787401574803,
                    "duration": 0.472366500000021
                },
                {
                    "name": "G#4",
                    "midi": 68,
                    "time": 475.67306550000455,
                    "velocity": 0.30708661417322836,
                    "duration": 0.472366500000021
                },
                {
                    "name": "C#5",
                    "midi": 73,
                    "time": 476.1454320000046,
                    "velocity": 0.3858267716535433,
                    "duration": 0.2361832500000105
                },
                {
                    "name": "A4",
                    "midi": 69,
                    "time": 476.1454320000046,
                    "velocity": 0.3858267716535433,
                    "duration": 0.2361832500000105
                },
                {
                    "name": "E4",
                    "midi": 64,
                    "time": 476.3816152500046,
                    "velocity": 0.3858267716535433,
                    "duration": 0.2361832500000105
                },
                {
                    "name": "C#6",
                    "midi": 85,
                    "time": 476.6177985000046,
                    "velocity": 0.4409448818897638,
                    "duration": 0.472366500000021
                },
                {
                    "name": "C#5",
                    "midi": 73,
                    "time": 476.6177985000046,
                    "velocity": 0.33858267716535434,
                    "duration": 0.2361832500000105
                },
                {
                    "name": "A4",
                    "midi": 69,
                    "time": 476.6177985000046,
                    "velocity": 0.33858267716535434,
                    "duration": 0.2361832500000105
                },
                {
                    "name": "A5",
                    "midi": 81,
                    "time": 476.6177985000046,
                    "velocity": 0.3700787401574803,
                    "duration": 0.472366500000021
                },
                {
                    "name": "E4",
                    "midi": 64,
                    "time": 476.8539817500046,
                    "velocity": 0.3779527559055118,
                    "duration": 0.2361832500000105
                },
                {
                    "name": "B5",
                    "midi": 83,
                    "time": 477.0901650000046,
                    "velocity": 0.3779527559055118,
                    "duration": 0.472366500000021
                },
                {
                    "name": "B4",
                    "midi": 71,
                    "time": 477.0901650000046,
                    "velocity": 0.3464566929133858,
                    "duration": 0.2361832500000105
                },
                {
                    "name": "D6",
                    "midi": 86,
                    "time": 477.0901650000046,
                    "velocity": 0.44881889763779526,
                    "duration": 0.472366500000021
                },
                {
                    "name": "D5",
                    "midi": 74,
                    "time": 477.0901650000046,
                    "velocity": 0.3464566929133858,
                    "duration": 0.2361832500000105
                },
                {
                    "name": "E4",
                    "midi": 64,
                    "time": 477.3263482500046,
                    "velocity": 0.3858267716535433,
                    "duration": 0.2361832500000105
                },
                {
                    "name": "E5",
                    "midi": 76,
                    "time": 477.56253150000464,
                    "velocity": 0.3543307086614173,
                    "duration": 0.2361832500000105
                },
                {
                    "name": "C#6",
                    "midi": 85,
                    "time": 477.56253150000464,
                    "velocity": 0.3937007874015748,
                    "duration": 0.472366500000021
                },
                {
                    "name": "E6",
                    "midi": 88,
                    "time": 477.56253150000464,
                    "velocity": 0.4645669291338583,
                    "duration": 0.472366500000021
                },
                {
                    "name": "C#5",
                    "midi": 73,
                    "time": 477.56253150000464,
                    "velocity": 0.3543307086614173,
                    "duration": 0.2361832500000105
                },
                {
                    "name": "E4",
                    "midi": 64,
                    "time": 477.79871475000465,
                    "velocity": 0.3858267716535433,
                    "duration": 0.2361832500000105
                },
                {
                    "name": "B5",
                    "midi": 83,
                    "time": 478.03489800000466,
                    "velocity": 0.3779527559055118,
                    "duration": 0.472366500000021
                },
                {
                    "name": "D6",
                    "midi": 86,
                    "time": 478.03489800000466,
                    "velocity": 0.44881889763779526,
                    "duration": 0.472366500000021
                },
                {
                    "name": "B4",
                    "midi": 71,
                    "time": 478.03489800000466,
                    "velocity": 0.3464566929133858,
                    "duration": 0.2361832500000105
                },
                {
                    "name": "D5",
                    "midi": 74,
                    "time": 478.03489800000466,
                    "velocity": 0.3464566929133858,
                    "duration": 0.2361832500000105
                },
                {
                    "name": "E4",
                    "midi": 64,
                    "time": 478.27108125000467,
                    "velocity": 0.3779527559055118,
                    "duration": 0.2361832500000105
                },
                {
                    "name": "A5",
                    "midi": 81,
                    "time": 478.5072645000047,
                    "velocity": 0.3700787401574803,
                    "duration": 0.472366500000021
                },
                {
                    "name": "A4",
                    "midi": 69,
                    "time": 478.5072645000047,
                    "velocity": 0.33858267716535434,
                    "duration": 0.2361832500000105
                },
                {
                    "name": "C#6",
                    "midi": 85,
                    "time": 478.5072645000047,
                    "velocity": 0.4409448818897638,
                    "duration": 0.472366500000021
                },
                {
                    "name": "C#5",
                    "midi": 73,
                    "time": 478.5072645000047,
                    "velocity": 0.33858267716535434,
                    "duration": 0.2361832500000105
                },
                {
                    "name": "E4",
                    "midi": 64,
                    "time": 478.7434477500047,
                    "velocity": 0.3700787401574803,
                    "duration": 0.2361832500000105
                },
                {
                    "name": "B4",
                    "midi": 71,
                    "time": 478.9796310000047,
                    "velocity": 0.3858267716535433,
                    "duration": 0.2361832500000105
                },
                {
                    "name": "G#4",
                    "midi": 68,
                    "time": 478.9796310000047,
                    "velocity": 0.3858267716535433,
                    "duration": 0.2361832500000105
                },
                {
                    "name": "E4",
                    "midi": 64,
                    "time": 479.2158142500047,
                    "velocity": 0.3858267716535433,
                    "duration": 0.2361832500000105
                },
                {
                    "name": "B5",
                    "midi": 83,
                    "time": 479.4519975000047,
                    "velocity": 0.4409448818897638,
                    "duration": 0.472366500000021
                },
                {
                    "name": "B4",
                    "midi": 71,
                    "time": 479.4519975000047,
                    "velocity": 0.33858267716535434,
                    "duration": 0.2361832500000105
                },
                {
                    "name": "G#5",
                    "midi": 80,
                    "time": 479.4519975000047,
                    "velocity": 0.3700787401574803,
                    "duration": 0.472366500000021
                },
                {
                    "name": "G#4",
                    "midi": 68,
                    "time": 479.4519975000047,
                    "velocity": 0.33858267716535434,
                    "duration": 0.2361832500000105
                },
                {
                    "name": "E4",
                    "midi": 64,
                    "time": 479.68818075000473,
                    "velocity": 0.3779527559055118,
                    "duration": 0.2361832500000105
                },
                {
                    "name": "A4",
                    "midi": 69,
                    "time": 479.92436400000474,
                    "velocity": 0.3464566929133858,
                    "duration": 0.2361832500000105
                },
                {
                    "name": "C#6",
                    "midi": 85,
                    "time": 479.92436400000474,
                    "velocity": 0.44881889763779526,
                    "duration": 0.472366500000021
                },
                {
                    "name": "A5",
                    "midi": 81,
                    "time": 479.92436400000474,
                    "velocity": 0.3779527559055118,
                    "duration": 0.472366500000021
                },
                {
                    "name": "C#5",
                    "midi": 73,
                    "time": 479.92436400000474,
                    "velocity": 0.3464566929133858,
                    "duration": 0.2361832500000105
                },
                {
                    "name": "E4",
                    "midi": 64,
                    "time": 480.16054725000475,
                    "velocity": 0.3858267716535433,
                    "duration": 0.2361832500000105
                },
                {
                    "name": "D6",
                    "midi": 86,
                    "time": 480.39673050000476,
                    "velocity": 0.4645669291338583,
                    "duration": 0.472366500000021
                },
                {
                    "name": "B5",
                    "midi": 83,
                    "time": 480.39673050000476,
                    "velocity": 0.3937007874015748,
                    "duration": 0.472366500000021
                },
                {
                    "name": "B4",
                    "midi": 71,
                    "time": 480.39673050000476,
                    "velocity": 0.3543307086614173,
                    "duration": 0.2361832500000105
                },
                {
                    "name": "D5",
                    "midi": 74,
                    "time": 480.39673050000476,
                    "velocity": 0.3543307086614173,
                    "duration": 0.2361832500000105
                },
                {
                    "name": "E4",
                    "midi": 64,
                    "time": 480.6329137500048,
                    "velocity": 0.3858267716535433,
                    "duration": 0.2361832500000105
                },
                {
                    "name": "C#5",
                    "midi": 73,
                    "time": 480.8690970000048,
                    "velocity": 0.3464566929133858,
                    "duration": 0.2361832500000105
                },
                {
                    "name": "A5",
                    "midi": 81,
                    "time": 480.8690970000048,
                    "velocity": 0.3779527559055118,
                    "duration": 0.472366500000021
                },
                {
                    "name": "C#6",
                    "midi": 85,
                    "time": 480.8690970000048,
                    "velocity": 0.44881889763779526,
                    "duration": 0.472366500000021
                },
                {
                    "name": "A4",
                    "midi": 69,
                    "time": 480.8690970000048,
                    "velocity": 0.3464566929133858,
                    "duration": 0.2361832500000105
                },
                {
                    "name": "E4",
                    "midi": 64,
                    "time": 481.1052802500048,
                    "velocity": 0.3779527559055118,
                    "duration": 0.2361832500000105
                },
                {
                    "name": "G#4",
                    "midi": 68,
                    "time": 481.3414635000048,
                    "velocity": 0.33858267716535434,
                    "duration": 0.2361832500000105
                },
                {
                    "name": "B4",
                    "midi": 71,
                    "time": 481.3414635000048,
                    "velocity": 0.33858267716535434,
                    "duration": 0.2361832500000105
                },
                {
                    "name": "G#5",
                    "midi": 80,
                    "time": 481.3414635000048,
                    "velocity": 0.3700787401574803,
                    "duration": 0.472366500000021
                },
                {
                    "name": "B5",
                    "midi": 83,
                    "time": 481.3414635000048,
                    "velocity": 0.4409448818897638,
                    "duration": 0.472366500000021
                },
                {
                    "name": "E4",
                    "midi": 64,
                    "time": 481.5776467500048,
                    "velocity": 0.3700787401574803,
                    "duration": 0.2361832500000105
                },
                {
                    "name": "A4",
                    "midi": 69,
                    "time": 481.8138300000048,
                    "velocity": 0.41732283464566927,
                    "duration": 0.2361832500000105
                },
                {
                    "name": "E4",
                    "midi": 64,
                    "time": 481.8138300000048,
                    "velocity": 0.41732283464566927,
                    "duration": 0.2361832500000105
                },
                {
                    "name": "C#4",
                    "midi": 61,
                    "time": 482.05001325000484,
                    "velocity": 0.3858267716535433,
                    "duration": 0.2361832500000105
                },
                {
                    "name": "A5",
                    "midi": 81,
                    "time": 482.28619650000485,
                    "velocity": 0.4566929133858268,
                    "duration": 0.472366500000021
                },
                {
                    "name": "C#5",
                    "midi": 73,
                    "time": 482.28619650000485,
                    "velocity": 0.3779527559055118,
                    "duration": 0.472366500000021
                },
                {
                    "name": "A4",
                    "midi": 69,
                    "time": 482.28619650000485,
                    "velocity": 0.3464566929133858,
                    "duration": 0.2361832500000105
                },
                {
                    "name": "E4",
                    "midi": 64,
                    "time": 482.28619650000485,
                    "velocity": 0.3464566929133858,
                    "duration": 0.2361832500000105
                },
                {
                    "name": "C#4",
                    "midi": 61,
                    "time": 482.52237975000486,
                    "velocity": 0.3858267716535433,
                    "duration": 0.2361832500000105
                },
                {
                    "name": "E5",
                    "midi": 76,
                    "time": 482.75856300000487,
                    "velocity": 0.3779527559055118,
                    "duration": 0.472366500000021
                },
                {
                    "name": "B4",
                    "midi": 71,
                    "time": 482.75856300000487,
                    "velocity": 0.41732283464566927,
                    "duration": 0.2361832500000105
                },
                {
                    "name": "B5",
                    "midi": 83,
                    "time": 482.75856300000487,
                    "velocity": 0.4566929133858268,
                    "duration": 0.472366500000021
                },
                {
                    "name": "G#4",
                    "midi": 68,
                    "time": 482.75856300000487,
                    "velocity": 0.41732283464566927,
                    "duration": 0.2361832500000105
                },
                {
                    "name": "E4",
                    "midi": 64,
                    "time": 482.9947462500049,
                    "velocity": 0.3858267716535433,
                    "duration": 0.2361832500000105
                },
                {
                    "name": "C#5",
                    "midi": 73,
                    "time": 483.2309295000049,
                    "velocity": 0.4251968503937008,
                    "duration": 0.2361832500000105
                },
                {
                    "name": "C#6",
                    "midi": 85,
                    "time": 483.2309295000049,
                    "velocity": 0.47244094488188976,
                    "duration": 0.472366500000021
                },
                {
                    "name": "A5",
                    "midi": 81,
                    "time": 483.2309295000049,
                    "velocity": 0.3937007874015748,
                    "duration": 0.472366500000021
                },
                {
                    "name": "A4",
                    "midi": 69,
                    "time": 483.2309295000049,
                    "velocity": 0.4251968503937008,
                    "duration": 0.2361832500000105
                },
                {
                    "name": "E4",
                    "midi": 64,
                    "time": 483.4671127500049,
                    "velocity": 0.3937007874015748,
                    "duration": 0.2361832500000105
                },
                {
                    "name": "C#5",
                    "midi": 73,
                    "time": 483.7032960000049,
                    "velocity": 0.36220472440944884,
                    "duration": 0.2361832500000105
                },
                {
                    "name": "A4",
                    "midi": 69,
                    "time": 483.7032960000049,
                    "velocity": 0.36220472440944884,
                    "duration": 0.2361832500000105
                },
                {
                    "name": "F#4",
                    "midi": 66,
                    "time": 483.9394792500049,
                    "velocity": 0.3937007874015748,
                    "duration": 0.2361832500000105
                },
                {
                    "name": "B4",
                    "midi": 71,
                    "time": 484.17566250000493,
                    "velocity": 0.3858267716535433,
                    "duration": 0.2361832500000105
                },
                {
                    "name": "D5",
                    "midi": 74,
                    "time": 484.17566250000493,
                    "velocity": 0.3858267716535433,
                    "duration": 0.2361832500000105
                },
                {
                    "name": "F#4",
                    "midi": 66,
                    "time": 484.41184575000494,
                    "velocity": 0.3700787401574803,
                    "duration": 0.2361832500000105
                },
                {
                    "name": "C#5",
                    "midi": 73,
                    "time": 484.64802900000495,
                    "velocity": 0.3858267716535433,
                    "duration": 0.2361832500000105
                },
                {
                    "name": "A4",
                    "midi": 69,
                    "time": 484.64802900000495,
                    "velocity": 0.3858267716535433,
                    "duration": 0.2361832500000105
                },
                {
                    "name": "E4",
                    "midi": 64,
                    "time": 484.88421225000496,
                    "velocity": 0.4251968503937008,
                    "duration": 0.2361832500000105
                },
                {
                    "name": "C#6",
                    "midi": 85,
                    "time": 485.120395500005,
                    "velocity": 0.3858267716535433,
                    "duration": 0.472366500000021
                },
                {
                    "name": "A4",
                    "midi": 69,
                    "time": 485.120395500005,
                    "velocity": 0.30708661417322836,
                    "duration": 0.2361832500000105
                },
                {
                    "name": "A5",
                    "midi": 81,
                    "time": 485.120395500005,
                    "velocity": 0.3228346456692913,
                    "duration": 0.472366500000021
                },
                {
                    "name": "C#5",
                    "midi": 73,
                    "time": 485.120395500005,
                    "velocity": 0.30708661417322836,
                    "duration": 0.2361832500000105
                },
                {
                    "name": "E4",
                    "midi": 64,
                    "time": 485.356578750005,
                    "velocity": 0.3464566929133858,
                    "duration": 0.2361832500000105
                },
                {
                    "name": "G#4",
                    "midi": 68,
                    "time": 485.592762000005,
                    "velocity": 0.29133858267716534,
                    "duration": 0.2361832500000105
                },
                {
                    "name": "G#5",
                    "midi": 80,
                    "time": 485.592762000005,
                    "velocity": 0.31496062992125984,
                    "duration": 0.472366500000021
                },
                {
                    "name": "B5",
                    "midi": 83,
                    "time": 485.592762000005,
                    "velocity": 0.3779527559055118,
                    "duration": 0.472366500000021
                },
                {
                    "name": "B4",
                    "midi": 71,
                    "time": 485.592762000005,
                    "velocity": 0.29133858267716534,
                    "duration": 0.2361832500000105
                },
                {
                    "name": "E4",
                    "midi": 64,
                    "time": 485.828945250005,
                    "velocity": 0.31496062992125984,
                    "duration": 0.2361832500000105
                },
                {
                    "name": "B5",
                    "midi": 83,
                    "time": 486.065128500005,
                    "velocity": 0.3858267716535433,
                    "duration": 0.472366500000021
                },
                {
                    "name": "B4",
                    "midi": 71,
                    "time": 486.065128500005,
                    "velocity": 0.3464566929133858,
                    "duration": 0.2361832500000105
                },
                {
                    "name": "G#5",
                    "midi": 80,
                    "time": 486.065128500005,
                    "velocity": 0.3858267716535433,
                    "duration": 0.944733000000042
                },
                {
                    "name": "G#4",
                    "midi": 68,
                    "time": 486.065128500005,
                    "velocity": 0.3464566929133858,
                    "duration": 0.2361832500000105
                },
                {
                    "name": "E4",
                    "midi": 64,
                    "time": 486.301311750005,
                    "velocity": 0.36220472440944884,
                    "duration": 0.2361832500000105
                },
                {
                    "name": "G#4",
                    "midi": 68,
                    "time": 486.53749500000504,
                    "velocity": 0.33070866141732286,
                    "duration": 0.2361832500000105
                },
                {
                    "name": "C5",
                    "midi": 72,
                    "time": 486.53749500000504,
                    "velocity": 0.33858267716535434,
                    "duration": 0.2361832500000105
                },
                {
                    "name": "C6",
                    "midi": 84,
                    "time": 486.53749500000504,
                    "velocity": 0.3858267716535433,
                    "duration": 0.472366500000021
                },
                {
                    "name": "E4",
                    "midi": 64,
                    "time": 486.77367825000505,
                    "velocity": 0.3543307086614173,
                    "duration": 0.2361832500000105
                },
                {
                    "name": "C#6",
                    "midi": 85,
                    "time": 487.00986150000506,
                    "velocity": 0.3858267716535433,
                    "duration": 0.472366500000021
                },
                {
                    "name": "A5",
                    "midi": 81,
                    "time": 487.00986150000506,
                    "velocity": 0.3858267716535433,
                    "duration": 0.472366500000021
                },
                {
                    "name": "A4",
                    "midi": 69,
                    "time": 487.00986150000506,
                    "velocity": 0.33070866141732286,
                    "duration": 0.2361832500000105
                },
                {
                    "name": "C#5",
                    "midi": 73,
                    "time": 487.00986150000506,
                    "velocity": 0.33070866141732286,
                    "duration": 0.2361832500000105
                },
                {
                    "name": "E4",
                    "midi": 64,
                    "time": 487.22439461875507,
                    "velocity": 0.33070866141732286,
                    "duration": 0.2361832500000105
                },
                {
                    "name": "C#5",
                    "midi": 73,
                    "time": 487.4822280000051,
                    "velocity": 0.47244094488188976,
                    "duration": 0.2361832500000105
                },
                {
                    "name": "A4",
                    "midi": 69,
                    "time": 487.4822280000051,
                    "velocity": 0.47244094488188976,
                    "duration": 0.2361832500000105
                },
                {
                    "name": "E4",
                    "midi": 64,
                    "time": 487.7184112500051,
                    "velocity": 0.4409448818897638,
                    "duration": 0.2361832500000105
                },
                {
                    "name": "C#5",
                    "midi": 73,
                    "time": 487.9545945000051,
                    "velocity": 0.3937007874015748,
                    "duration": 0.2361832500000105
                },
                {
                    "name": "C#6",
                    "midi": 85,
                    "time": 487.9545945000051,
                    "velocity": 0.5196850393700787,
                    "duration": 0.472366500000021
                },
                {
                    "name": "A4",
                    "midi": 69,
                    "time": 487.9545945000051,
                    "velocity": 0.3937007874015748,
                    "duration": 0.2361832500000105
                },
                {
                    "name": "A5",
                    "midi": 81,
                    "time": 487.9545945000051,
                    "velocity": 0.4330708661417323,
                    "duration": 0.472366500000021
                },
                {
                    "name": "E4",
                    "midi": 64,
                    "time": 488.1907777500051,
                    "velocity": 0.4409448818897638,
                    "duration": 0.2361832500000105
                },
                {
                    "name": "B4",
                    "midi": 71,
                    "time": 488.4269610000051,
                    "velocity": 0.47244094488188976,
                    "duration": 0.2361832500000105
                },
                {
                    "name": "B5",
                    "midi": 83,
                    "time": 488.4269610000051,
                    "velocity": 0.4330708661417323,
                    "duration": 0.472366500000021
                },
                {
                    "name": "D6",
                    "midi": 86,
                    "time": 488.4269610000051,
                    "velocity": 0.5196850393700787,
                    "duration": 0.472366500000021
                },
                {
                    "name": "D5",
                    "midi": 74,
                    "time": 488.4269610000051,
                    "velocity": 0.47244094488188976,
                    "duration": 0.2361832500000105
                },
                {
                    "name": "E4",
                    "midi": 64,
                    "time": 488.66314425000513,
                    "velocity": 0.4409448818897638,
                    "duration": 0.2361832500000105
                },
                {
                    "name": "E6",
                    "midi": 88,
                    "time": 488.89932750000514,
                    "velocity": 0.5433070866141733,
                    "duration": 0.472366500000021
                },
                {
                    "name": "C#5",
                    "midi": 73,
                    "time": 488.89932750000514,
                    "velocity": 0.4881889763779528,
                    "duration": 0.2361832500000105
                },
                {
                    "name": "C#6",
                    "midi": 85,
                    "time": 488.89932750000514,
                    "velocity": 0.44881889763779526,
                    "duration": 0.472366500000021
                },
                {
                    "name": "E5",
                    "midi": 76,
                    "time": 488.89932750000514,
                    "velocity": 0.4881889763779528,
                    "duration": 0.2361832500000105
                },
                {
                    "name": "A4",
                    "midi": 69,
                    "time": 489.13551075000515,
                    "velocity": 0.44881889763779526,
                    "duration": 0.2361832500000105
                },
                {
                    "name": "E5",
                    "midi": 76,
                    "time": 489.37169400000516,
                    "velocity": 0.4094488188976378,
                    "duration": 0.2361832500000105
                },
                {
                    "name": "C#5",
                    "midi": 73,
                    "time": 489.37169400000516,
                    "velocity": 0.4094488188976378,
                    "duration": 0.2361832500000105
                },
                {
                    "name": "A4",
                    "midi": 69,
                    "time": 489.6078772500052,
                    "velocity": 0.44881889763779526,
                    "duration": 0.2361832500000105
                },
                {
                    "name": "F#5",
                    "midi": 78,
                    "time": 489.8440605000052,
                    "velocity": 0.4409448818897638,
                    "duration": 0.2361832500000105
                },
                {
                    "name": "D5",
                    "midi": 74,
                    "time": 489.8440605000052,
                    "velocity": 0.4409448818897638,
                    "duration": 0.2361832500000105
                },
                {
                    "name": "A4",
                    "midi": 69,
                    "time": 490.0802437500052,
                    "velocity": 0.4251968503937008,
                    "duration": 0.2361832500000105
                },
                {
                    "name": "C#5",
                    "midi": 73,
                    "time": 490.3164270000052,
                    "velocity": 0.4409448818897638,
                    "duration": 0.2361832500000105
                },
                {
                    "name": "A4",
                    "midi": 69,
                    "time": 490.3164270000052,
                    "velocity": 0.4409448818897638,
                    "duration": 0.2361832500000105
                },
                {
                    "name": "E4",
                    "midi": 64,
                    "time": 490.5526102500052,
                    "velocity": 0.4881889763779528,
                    "duration": 0.2361832500000105
                },
                {
                    "name": "A4",
                    "midi": 69,
                    "time": 490.7887935000052,
                    "velocity": 0.4330708661417323,
                    "duration": 0.2361832500000105
                },
                {
                    "name": "C#6",
                    "midi": 85,
                    "time": 490.7887935000052,
                    "velocity": 0.5590551181102362,
                    "duration": 0.472366500000021
                },
                {
                    "name": "C#5",
                    "midi": 73,
                    "time": 490.7887935000052,
                    "velocity": 0.4330708661417323,
                    "duration": 0.2361832500000105
                },
                {
                    "name": "A5",
                    "midi": 81,
                    "time": 490.7887935000052,
                    "velocity": 0.4645669291338583,
                    "duration": 0.472366500000021
                },
                {
                    "name": "E4",
                    "midi": 64,
                    "time": 491.02497675000524,
                    "velocity": 0.4645669291338583,
                    "duration": 0.2361832500000105
                },
                {
                    "name": "G#4",
                    "midi": 68,
                    "time": 491.26116000000525,
                    "velocity": 0.4251968503937008,
                    "duration": 0.2361832500000105
                },
                {
                    "name": "G#5",
                    "midi": 80,
                    "time": 491.26116000000525,
                    "velocity": 0.4566929133858268,
                    "duration": 0.472366500000021
                },
                {
                    "name": "B5",
                    "midi": 83,
                    "time": 491.26116000000525,
                    "velocity": 0.5511811023622047,
                    "duration": 0.472366500000021
                },
                {
                    "name": "B4",
                    "midi": 71,
                    "time": 491.26116000000525,
                    "velocity": 0.4251968503937008,
                    "duration": 0.2361832500000105
                },
                {
                    "name": "E4",
                    "midi": 64,
                    "time": 491.49734325000526,
                    "velocity": 0.4566929133858268,
                    "duration": 0.2361832500000105
                },
                {
                    "name": "A4",
                    "midi": 69,
                    "time": 491.73352650000527,
                    "velocity": 0.49606299212598426,
                    "duration": 0.2361832500000105
                },
                {
                    "name": "A5",
                    "midi": 81,
                    "time": 491.73352650000527,
                    "velocity": 0.49606299212598426,
                    "duration": 0.472366500000021
                },
                {
                    "name": "E4",
                    "midi": 64,
                    "time": 491.9697097500053,
                    "velocity": 0.4409448818897638,
                    "duration": 0.2361832500000105
                },
                {
                    "name": "C#4",
                    "midi": 61,
                    "time": 492.2058930000053,
                    "velocity": 0.4645669291338583,
                    "duration": 0.2361832500000105
                },
                {
                    "name": "E4",
                    "midi": 64,
                    "time": 492.4420762500053,
                    "velocity": 0.3858267716535433,
                    "duration": 0.2361832500000105
                },
                {
                    "name": "A4",
                    "midi": 69,
                    "time": 492.6782595000053,
                    "velocity": 0.44881889763779526,
                    "duration": 0.2361832500000105
                },
                {
                    "name": "E5",
                    "midi": 76,
                    "time": 493.15062600000533,
                    "velocity": 0.4251968503937008,
                    "duration": 0.7085497499999747
                },
                {
                    "name": "F#5",
                    "midi": 78,
                    "time": 493.8591757500053,
                    "velocity": 0.4251968503937008,
                    "duration": 0.11809162499997683
                },
                {
                    "name": "E5",
                    "midi": 76,
                    "time": 493.9772673750053,
                    "velocity": 0.3937007874015748,
                    "duration": 0.11809162499997683
                },
                {
                    "name": "D5",
                    "midi": 74,
                    "time": 494.09535900000526,
                    "velocity": 0.4330708661417323,
                    "duration": 0.11809162499997683
                },
                {
                    "name": "C#5",
                    "midi": 73,
                    "time": 494.21345062500524,
                    "velocity": 0.4251968503937008,
                    "duration": 0.11809162499997683
                },
                {
                    "name": "B4",
                    "midi": 71,
                    "time": 494.3315422500052,
                    "velocity": 0.41732283464566927,
                    "duration": 0.11809162499997683
                },
                {
                    "name": "A4",
                    "midi": 69,
                    "time": 494.4496338750052,
                    "velocity": 0.4094488188976378,
                    "duration": 0.11809162499997683
                },
                {
                    "name": "F5",
                    "midi": 77,
                    "time": 494.56772550000517,
                    "velocity": 0.44881889763779526,
                    "duration": 0.2361832500000105
                },
                {
                    "name": "F#5",
                    "midi": 78,
                    "time": 494.8039087500052,
                    "velocity": 0.4251968503937008,
                    "duration": 0.21846950625001682
                },
                {
                    "name": "F#5",
                    "midi": 78,
                    "time": 495.0400920000052,
                    "velocity": 0.4251968503937008,
                    "duration": 0.2361832500000105
                },
                {
                    "name": "A5",
                    "midi": 81,
                    "time": 495.9848250000052,
                    "velocity": 0.4566929133858268,
                    "duration": 0.2361832500000105
                },
                {
                    "name": "G#5",
                    "midi": 80,
                    "time": 496.2210082500052,
                    "velocity": 0.4330708661417323,
                    "duration": 0.2361832500000105
                },
                {
                    "name": "B5",
                    "midi": 83,
                    "time": 496.4571915000052,
                    "velocity": 0.4566929133858268,
                    "duration": 0.2361832500000105
                },
                {
                    "name": "A5",
                    "midi": 81,
                    "time": 496.6933747500052,
                    "velocity": 0.4566929133858268,
                    "duration": 0.2361832500000105
                },
                {
                    "name": "G#5",
                    "midi": 80,
                    "time": 496.9295580000052,
                    "velocity": 0.4645669291338583,
                    "duration": 0.2361832500000105
                },
                {
                    "name": "F#5",
                    "midi": 78,
                    "time": 497.1657412500052,
                    "velocity": 0.47244094488188976,
                    "duration": 0.2361832500000105
                },
                {
                    "name": "D#5",
                    "midi": 75,
                    "time": 497.40192450000524,
                    "velocity": 0.4881889763779528,
                    "duration": 0.2361832500000105
                },
                {
                    "name": "E5",
                    "midi": 76,
                    "time": 497.63810775000525,
                    "velocity": 0.44881889763779526,
                    "duration": 0.22043769999999085
                },
                {
                    "name": "E5",
                    "midi": 76,
                    "time": 497.87429100000526,
                    "velocity": 0.44881889763779526,
                    "duration": 0.2361832500000105
                },
                {
                    "name": "E5",
                    "midi": 76,
                    "time": 498.81902400000524,
                    "velocity": 0.49606299212598426,
                    "duration": 0.7085497499999747
                },
                {
                    "name": "F#5",
                    "midi": 78,
                    "time": 499.5275737500052,
                    "velocity": 0.4330708661417323,
                    "duration": 0.11809162499997683
                },
                {
                    "name": "E5",
                    "midi": 76,
                    "time": 499.6456653750052,
                    "velocity": 0.3937007874015748,
                    "duration": 0.11809162499997683
                },
                {
                    "name": "D5",
                    "midi": 74,
                    "time": 499.76375700000517,
                    "velocity": 0.4566929133858268,
                    "duration": 0.11809162499997683
                },
                {
                    "name": "C#5",
                    "midi": 73,
                    "time": 499.88184862500515,
                    "velocity": 0.4409448818897638,
                    "duration": 0.11809162499997683
                },
                {
                    "name": "B4",
                    "midi": 71,
                    "time": 499.9999402500051,
                    "velocity": 0.4251968503937008,
                    "duration": 0.11809162499997683
                },
                {
                    "name": "A4",
                    "midi": 69,
                    "time": 500.1180318750051,
                    "velocity": 0.41732283464566927,
                    "duration": 0.11809162499997683
                },
                {
                    "name": "E5",
                    "midi": 76,
                    "time": 500.2361235000051,
                    "velocity": 0.49606299212598426,
                    "duration": 0.2361832500000105
                },
                {
                    "name": "D5",
                    "midi": 74,
                    "time": 500.4723067500051,
                    "velocity": 0.49606299212598426,
                    "duration": 0.472366500000021
                },
                {
                    "name": "F#5",
                    "midi": 78,
                    "time": 500.9446732500051,
                    "velocity": 0.4330708661417323,
                    "duration": 0.11809162499997683
                },
                {
                    "name": "E5",
                    "midi": 76,
                    "time": 501.0627648750051,
                    "velocity": 0.3937007874015748,
                    "duration": 0.11809162499997683
                },
                {
                    "name": "D5",
                    "midi": 74,
                    "time": 501.18085650000506,
                    "velocity": 0.4566929133858268,
                    "duration": 0.11809162499997683
                },
                {
                    "name": "C#5",
                    "midi": 73,
                    "time": 501.29894812500504,
                    "velocity": 0.4409448818897638,
                    "duration": 0.11809162499997683
                },
                {
                    "name": "B4",
                    "midi": 71,
                    "time": 501.417039750005,
                    "velocity": 0.4251968503937008,
                    "duration": 0.11809162499997683
                },
                {
                    "name": "A4",
                    "midi": 69,
                    "time": 501.535131375005,
                    "velocity": 0.41732283464566927,
                    "duration": 0.11809162499997683
                },
                {
                    "name": "A4",
                    "midi": 69,
                    "time": 501.65322300000497,
                    "velocity": 0.4881889763779528,
                    "duration": 0.472366500000021
                },
                {
                    "name": "G#4",
                    "midi": 68,
                    "time": 502.125589500005,
                    "velocity": 0.4566929133858268,
                    "duration": 0.472366500000021
                },
                {
                    "name": "D#4",
                    "midi": 63,
                    "time": 502.597956000005,
                    "velocity": 0.3937007874015748,
                    "duration": 0.472366500000021
                },
                {
                    "name": "A4",
                    "midi": 69,
                    "time": 502.597956000005,
                    "velocity": 0.4645669291338583,
                    "duration": 0.472366500000021
                },
                {
                    "name": "C#5",
                    "midi": 73,
                    "time": 503.07032250000503,
                    "velocity": 0.49606299212598426,
                    "duration": 0.9447329999999852
                },
                {
                    "name": "E4",
                    "midi": 64,
                    "time": 503.07032250000503,
                    "velocity": 0.41732283464566927,
                    "duration": 1.4170995000000062
                },
                {
                    "name": "A4",
                    "midi": 69,
                    "time": 503.07032250000503,
                    "velocity": 0.41732283464566927,
                    "duration": 0.9447329999999852
                },
                {
                    "name": "B4",
                    "midi": 71,
                    "time": 504.015055500005,
                    "velocity": 0.3700787401574803,
                    "duration": 0.472366500000021
                },
                {
                    "name": "G#4",
                    "midi": 68,
                    "time": 504.015055500005,
                    "velocity": 0.30708661417322836,
                    "duration": 0.472366500000021
                },
                {
                    "name": "C#5",
                    "midi": 73,
                    "time": 504.48742200000504,
                    "velocity": 0.3858267716535433,
                    "duration": 0.2361832500000105
                },
                {
                    "name": "A4",
                    "midi": 69,
                    "time": 504.48742200000504,
                    "velocity": 0.3858267716535433,
                    "duration": 0.2361832500000105
                },
                {
                    "name": "E4",
                    "midi": 64,
                    "time": 504.72360525000505,
                    "velocity": 0.3858267716535433,
                    "duration": 0.2361832500000105
                },
                {
                    "name": "C#6",
                    "midi": 85,
                    "time": 504.95978850000506,
                    "velocity": 0.4409448818897638,
                    "duration": 0.472366500000021
                },
                {
                    "name": "C#5",
                    "midi": 73,
                    "time": 504.95978850000506,
                    "velocity": 0.33858267716535434,
                    "duration": 0.2361832500000105
                },
                {
                    "name": "A5",
                    "midi": 81,
                    "time": 504.95978850000506,
                    "velocity": 0.3700787401574803,
                    "duration": 0.472366500000021
                },
                {
                    "name": "A4",
                    "midi": 69,
                    "time": 504.95978850000506,
                    "velocity": 0.33858267716535434,
                    "duration": 0.2361832500000105
                },
                {
                    "name": "E4",
                    "midi": 64,
                    "time": 505.19597175000507,
                    "velocity": 0.3779527559055118,
                    "duration": 0.2361832500000105
                },
                {
                    "name": "D6",
                    "midi": 86,
                    "time": 505.4321550000051,
                    "velocity": 0.44881889763779526,
                    "duration": 0.472366500000021
                },
                {
                    "name": "B5",
                    "midi": 83,
                    "time": 505.4321550000051,
                    "velocity": 0.3779527559055118,
                    "duration": 0.472366500000021
                },
                {
                    "name": "D5",
                    "midi": 74,
                    "time": 505.4321550000051,
                    "velocity": 0.3464566929133858,
                    "duration": 0.2361832500000105
                },
                {
                    "name": "B4",
                    "midi": 71,
                    "time": 505.4321550000051,
                    "velocity": 0.3464566929133858,
                    "duration": 0.2361832500000105
                },
                {
                    "name": "E4",
                    "midi": 64,
                    "time": 505.6683382500051,
                    "velocity": 0.3858267716535433,
                    "duration": 0.2361832500000105
                },
                {
                    "name": "E6",
                    "midi": 88,
                    "time": 505.9045215000051,
                    "velocity": 0.4645669291338583,
                    "duration": 0.472366500000021
                },
                {
                    "name": "C#6",
                    "midi": 85,
                    "time": 505.9045215000051,
                    "velocity": 0.3937007874015748,
                    "duration": 0.472366500000021
                },
                {
                    "name": "E5",
                    "midi": 76,
                    "time": 505.9045215000051,
                    "velocity": 0.3543307086614173,
                    "duration": 0.2361832500000105
                },
                {
                    "name": "C#5",
                    "midi": 73,
                    "time": 505.9045215000051,
                    "velocity": 0.3543307086614173,
                    "duration": 0.2361832500000105
                },
                {
                    "name": "E4",
                    "midi": 64,
                    "time": 506.1407047500051,
                    "velocity": 0.3858267716535433,
                    "duration": 0.2361832500000105
                },
                {
                    "name": "D5",
                    "midi": 74,
                    "time": 506.3768880000051,
                    "velocity": 0.3464566929133858,
                    "duration": 0.2361832500000105
                },
                {
                    "name": "B4",
                    "midi": 71,
                    "time": 506.3768880000051,
                    "velocity": 0.3464566929133858,
                    "duration": 0.2361832500000105
                },
                {
                    "name": "B5",
                    "midi": 83,
                    "time": 506.3768880000051,
                    "velocity": 0.3779527559055118,
                    "duration": 0.472366500000021
                },
                {
                    "name": "D6",
                    "midi": 86,
                    "time": 506.3768880000051,
                    "velocity": 0.44881889763779526,
                    "duration": 0.472366500000021
                },
                {
                    "name": "E4",
                    "midi": 64,
                    "time": 506.61307125000513,
                    "velocity": 0.3779527559055118,
                    "duration": 0.2361832500000105
                },
                {
                    "name": "C#5",
                    "midi": 73,
                    "time": 506.84925450000515,
                    "velocity": 0.33858267716535434,
                    "duration": 0.2361832500000105
                },
                {
                    "name": "C#6",
                    "midi": 85,
                    "time": 506.84925450000515,
                    "velocity": 0.4409448818897638,
                    "duration": 0.472366500000021
                },
                {
                    "name": "A4",
                    "midi": 69,
                    "time": 506.84925450000515,
                    "velocity": 0.33858267716535434,
                    "duration": 0.2361832500000105
                },
                {
                    "name": "A5",
                    "midi": 81,
                    "time": 506.84925450000515,
                    "velocity": 0.3700787401574803,
                    "duration": 0.472366500000021
                },
                {
                    "name": "E4",
                    "midi": 64,
                    "time": 507.08543775000516,
                    "velocity": 0.3700787401574803,
                    "duration": 0.2361832500000105
                },
                {
                    "name": "G#4",
                    "midi": 68,
                    "time": 507.32162100000517,
                    "velocity": 0.3858267716535433,
                    "duration": 0.2361832500000105
                },
                {
                    "name": "B4",
                    "midi": 71,
                    "time": 507.32162100000517,
                    "velocity": 0.3858267716535433,
                    "duration": 0.2361832500000105
                },
                {
                    "name": "E4",
                    "midi": 64,
                    "time": 507.5578042500052,
                    "velocity": 0.3858267716535433,
                    "duration": 0.2361832500000105
                },
                {
                    "name": "B5",
                    "midi": 83,
                    "time": 507.7939875000052,
                    "velocity": 0.4409448818897638,
                    "duration": 0.472366500000021
                },
                {
                    "name": "G#4",
                    "midi": 68,
                    "time": 507.7939875000052,
                    "velocity": 0.33858267716535434,
                    "duration": 0.2361832500000105
                },
                {
                    "name": "G#5",
                    "midi": 80,
                    "time": 507.7939875000052,
                    "velocity": 0.3700787401574803,
                    "duration": 0.472366500000021
                },
                {
                    "name": "B4",
                    "midi": 71,
                    "time": 507.7939875000052,
                    "velocity": 0.33858267716535434,
                    "duration": 0.2361832500000105
                },
                {
                    "name": "E4",
                    "midi": 64,
                    "time": 508.0301707500052,
                    "velocity": 0.3779527559055118,
                    "duration": 0.2361832500000105
                },
                {
                    "name": "A4",
                    "midi": 69,
                    "time": 508.2663540000052,
                    "velocity": 0.3464566929133858,
                    "duration": 0.2361832500000105
                },
                {
                    "name": "A5",
                    "midi": 81,
                    "time": 508.2663540000052,
                    "velocity": 0.3779527559055118,
                    "duration": 0.472366500000021
                },
                {
                    "name": "C#6",
                    "midi": 85,
                    "time": 508.2663540000052,
                    "velocity": 0.44881889763779526,
                    "duration": 0.472366500000021
                },
                {
                    "name": "C#5",
                    "midi": 73,
                    "time": 508.2663540000052,
                    "velocity": 0.3464566929133858,
                    "duration": 0.2361832500000105
                },
                {
                    "name": "E4",
                    "midi": 64,
                    "time": 508.5025372500052,
                    "velocity": 0.3858267716535433,
                    "duration": 0.2361832500000105
                },
                {
                    "name": "B5",
                    "midi": 83,
                    "time": 508.73872050000523,
                    "velocity": 0.3937007874015748,
                    "duration": 0.472366500000021
                },
                {
                    "name": "D5",
                    "midi": 74,
                    "time": 508.73872050000523,
                    "velocity": 0.3543307086614173,
                    "duration": 0.2361832500000105
                },
                {
                    "name": "D6",
                    "midi": 86,
                    "time": 508.73872050000523,
                    "velocity": 0.4645669291338583,
                    "duration": 0.472366500000021
                },
                {
                    "name": "B4",
                    "midi": 71,
                    "time": 508.73872050000523,
                    "velocity": 0.3543307086614173,
                    "duration": 0.2361832500000105
                },
                {
                    "name": "E4",
                    "midi": 64,
                    "time": 508.97490375000524,
                    "velocity": 0.3858267716535433,
                    "duration": 0.2361832500000105
                },
                {
                    "name": "C#6",
                    "midi": 85,
                    "time": 509.21108700000525,
                    "velocity": 0.44881889763779526,
                    "duration": 0.472366500000021
                },
                {
                    "name": "A5",
                    "midi": 81,
                    "time": 509.21108700000525,
                    "velocity": 0.3779527559055118,
                    "duration": 0.472366500000021
                },
                {
                    "name": "A4",
                    "midi": 69,
                    "time": 509.21108700000525,
                    "velocity": 0.3464566929133858,
                    "duration": 0.2361832500000105
                },
                {
                    "name": "C#5",
                    "midi": 73,
                    "time": 509.21108700000525,
                    "velocity": 0.3464566929133858,
                    "duration": 0.2361832500000105
                },
                {
                    "name": "E4",
                    "midi": 64,
                    "time": 509.44727025000526,
                    "velocity": 0.3779527559055118,
                    "duration": 0.2361832500000105
                },
                {
                    "name": "G#5",
                    "midi": 80,
                    "time": 509.68345350000527,
                    "velocity": 0.3700787401574803,
                    "duration": 0.472366500000021
                },
                {
                    "name": "B4",
                    "midi": 71,
                    "time": 509.68345350000527,
                    "velocity": 0.33858267716535434,
                    "duration": 0.2361832500000105
                },
                {
                    "name": "G#4",
                    "midi": 68,
                    "time": 509.68345350000527,
                    "velocity": 0.33858267716535434,
                    "duration": 0.2361832500000105
                },
                {
                    "name": "B5",
                    "midi": 83,
                    "time": 509.68345350000527,
                    "velocity": 0.4409448818897638,
                    "duration": 0.472366500000021
                },
                {
                    "name": "E4",
                    "midi": 64,
                    "time": 509.9196367500053,
                    "velocity": 0.3700787401574803,
                    "duration": 0.2361832500000105
                },
                {
                    "name": "E4",
                    "midi": 64,
                    "time": 510.1558200000053,
                    "velocity": 0.41732283464566927,
                    "duration": 0.2361832500000105
                },
                {
                    "name": "A4",
                    "midi": 69,
                    "time": 510.1558200000053,
                    "velocity": 0.41732283464566927,
                    "duration": 0.2361832500000105
                },
                {
                    "name": "C#4",
                    "midi": 61,
                    "time": 510.3920032500053,
                    "velocity": 0.3858267716535433,
                    "duration": 0.2361832500000105
                },
                {
                    "name": "A4",
                    "midi": 69,
                    "time": 510.6281865000053,
                    "velocity": 0.3464566929133858,
                    "duration": 0.2361832500000105
                },
                {
                    "name": "A5",
                    "midi": 81,
                    "time": 510.6281865000053,
                    "velocity": 0.4566929133858268,
                    "duration": 0.472366500000021
                },
                {
                    "name": "C#5",
                    "midi": 73,
                    "time": 510.6281865000053,
                    "velocity": 0.3779527559055118,
                    "duration": 0.472366500000021
                },
                {
                    "name": "E4",
                    "midi": 64,
                    "time": 510.6281865000053,
                    "velocity": 0.3464566929133858,
                    "duration": 0.2361832500000105
                },
                {
                    "name": "C#4",
                    "midi": 61,
                    "time": 510.8643697500053,
                    "velocity": 0.3858267716535433,
                    "duration": 0.2361832500000105
                },
                {
                    "name": "G#4",
                    "midi": 68,
                    "time": 511.10055300000533,
                    "velocity": 0.41732283464566927,
                    "duration": 0.2361832500000105
                },
                {
                    "name": "B4",
                    "midi": 71,
                    "time": 511.10055300000533,
                    "velocity": 0.41732283464566927,
                    "duration": 0.2361832500000105
                },
                {
                    "name": "E5",
                    "midi": 76,
                    "time": 511.10055300000533,
                    "velocity": 0.3779527559055118,
                    "duration": 0.472366500000021
                },
                {
                    "name": "B5",
                    "midi": 83,
                    "time": 511.10055300000533,
                    "velocity": 0.4566929133858268,
                    "duration": 0.472366500000021
                },
                {
                    "name": "E4",
                    "midi": 64,
                    "time": 511.33673625000534,
                    "velocity": 0.3858267716535433,
                    "duration": 0.2361832500000105
                },
                {
                    "name": "A4",
                    "midi": 69,
                    "time": 511.57291950000536,
                    "velocity": 0.4251968503937008,
                    "duration": 0.2361832500000105
                },
                {
                    "name": "C#6",
                    "midi": 85,
                    "time": 511.57291950000536,
                    "velocity": 0.47244094488188976,
                    "duration": 0.472366500000021
                },
                {
                    "name": "C#5",
                    "midi": 73,
                    "time": 511.57291950000536,
                    "velocity": 0.4251968503937008,
                    "duration": 0.2361832500000105
                },
                {
                    "name": "A5",
                    "midi": 81,
                    "time": 511.57291950000536,
                    "velocity": 0.3937007874015748,
                    "duration": 0.472366500000021
                },
                {
                    "name": "E4",
                    "midi": 64,
                    "time": 511.80910275000537,
                    "velocity": 0.3937007874015748,
                    "duration": 0.2361832500000105
                },
                {
                    "name": "A4",
                    "midi": 69,
                    "time": 512.0452860000054,
                    "velocity": 0.36220472440944884,
                    "duration": 0.23618324999995366
                },
                {
                    "name": "C#5",
                    "midi": 73,
                    "time": 512.0452860000054,
                    "velocity": 0.36220472440944884,
                    "duration": 0.23618324999995366
                },
                {
                    "name": "F#4",
                    "midi": 66,
                    "time": 512.2814692500053,
                    "velocity": 0.3937007874015748,
                    "duration": 0.23618324999995366
                },
                {
                    "name": "B4",
                    "midi": 71,
                    "time": 512.5176525000053,
                    "velocity": 0.3858267716535433,
                    "duration": 0.23618324999995366
                },
                {
                    "name": "D5",
                    "midi": 74,
                    "time": 512.5176525000053,
                    "velocity": 0.3858267716535433,
                    "duration": 0.23618324999995366
                },
                {
                    "name": "F#4",
                    "midi": 66,
                    "time": 512.7538357500052,
                    "velocity": 0.3700787401574803,
                    "duration": 0.23618324999995366
                },
                {
                    "name": "C#5",
                    "midi": 73,
                    "time": 512.9900190000052,
                    "velocity": 0.3858267716535433,
                    "duration": 0.23618324999995366
                },
                {
                    "name": "A4",
                    "midi": 69,
                    "time": 512.9900190000052,
                    "velocity": 0.3858267716535433,
                    "duration": 0.23618324999995366
                },
                {
                    "name": "E4",
                    "midi": 64,
                    "time": 513.2262022500051,
                    "velocity": 0.4251968503937008,
                    "duration": 0.23618324999995366
                },
                {
                    "name": "A5",
                    "midi": 81,
                    "time": 513.4623855000051,
                    "velocity": 0.3228346456692913,
                    "duration": 0.4723664999999073
                },
                {
                    "name": "A4",
                    "midi": 69,
                    "time": 513.4623855000051,
                    "velocity": 0.30708661417322836,
                    "duration": 0.23618324999995366
                },
                {
                    "name": "C#5",
                    "midi": 73,
                    "time": 513.4623855000051,
                    "velocity": 0.30708661417322836,
                    "duration": 0.23618324999995366
                },
                {
                    "name": "C#6",
                    "midi": 85,
                    "time": 513.4623855000051,
                    "velocity": 0.3858267716535433,
                    "duration": 0.4723664999999073
                },
                {
                    "name": "E4",
                    "midi": 64,
                    "time": 513.698568750005,
                    "velocity": 0.3464566929133858,
                    "duration": 0.23618324999995366
                },
                {
                    "name": "G#5",
                    "midi": 80,
                    "time": 513.934752000005,
                    "velocity": 0.31496062992125984,
                    "duration": 0.4723664999999073
                },
                {
                    "name": "B4",
                    "midi": 71,
                    "time": 513.934752000005,
                    "velocity": 0.29133858267716534,
                    "duration": 0.23618324999995366
                },
                {
                    "name": "G#4",
                    "midi": 68,
                    "time": 513.934752000005,
                    "velocity": 0.29133858267716534,
                    "duration": 0.23618324999995366
                },
                {
                    "name": "B5",
                    "midi": 83,
                    "time": 513.934752000005,
                    "velocity": 0.3779527559055118,
                    "duration": 0.4723664999999073
                },
                {
                    "name": "E4",
                    "midi": 64,
                    "time": 514.170935250005,
                    "velocity": 0.31496062992125984,
                    "duration": 0.23618324999995366
                },
                {
                    "name": "G#4",
                    "midi": 68,
                    "time": 514.4071185000049,
                    "velocity": 0.3464566929133858,
                    "duration": 0.23618324999995366
                },
                {
                    "name": "B4",
                    "midi": 71,
                    "time": 514.4071185000049,
                    "velocity": 0.3464566929133858,
                    "duration": 0.23618324999995366
                },
                {
                    "name": "B5",
                    "midi": 83,
                    "time": 514.4071185000049,
                    "velocity": 0.3858267716535433,
                    "duration": 0.4723664999999073
                },
                {
                    "name": "G#5",
                    "midi": 80,
                    "time": 514.4071185000049,
                    "velocity": 0.3858267716535433,
                    "duration": 0.9447329999998146
                },
                {
                    "name": "E4",
                    "midi": 64,
                    "time": 514.6433017500049,
                    "velocity": 0.36220472440944884,
                    "duration": 0.23618324999995366
                },
                {
                    "name": "C6",
                    "midi": 84,
                    "time": 514.8794850000048,
                    "velocity": 0.3858267716535433,
                    "duration": 0.4723664999999073
                },
                {
                    "name": "G#4",
                    "midi": 68,
                    "time": 514.8794850000048,
                    "velocity": 0.33070866141732286,
                    "duration": 0.23618324999995366
                },
                {
                    "name": "C5",
                    "midi": 72,
                    "time": 514.8794850000048,
                    "velocity": 0.33858267716535434,
                    "duration": 0.23618324999995366
                },
                {
                    "name": "E4",
                    "midi": 64,
                    "time": 515.1156682500048,
                    "velocity": 0.3543307086614173,
                    "duration": 0.23618324999995366
                },
                {
                    "name": "C#5",
                    "midi": 73,
                    "time": 515.3518515000047,
                    "velocity": 0.33070866141732286,
                    "duration": 0.23618324999995366
                },
                {
                    "name": "C#6",
                    "midi": 85,
                    "time": 515.3518515000047,
                    "velocity": 0.3858267716535433,
                    "duration": 0.4723664999999073
                },
                {
                    "name": "A4",
                    "midi": 69,
                    "time": 515.3518515000047,
                    "velocity": 0.33070866141732286,
                    "duration": 0.23618324999995366
                },
                {
                    "name": "A5",
                    "midi": 81,
                    "time": 515.3518515000047,
                    "velocity": 0.3858267716535433,
                    "duration": 0.4723664999999073
                },
                {
                    "name": "E4",
                    "midi": 64,
                    "time": 515.5663846187547,
                    "velocity": 0.33070866141732286,
                    "duration": 0.23618324999995366
                },
                {
                    "name": "C#5",
                    "midi": 73,
                    "time": 515.8242180000046,
                    "velocity": 0.47244094488188976,
                    "duration": 0.23618324999995366
                },
                {
                    "name": "A4",
                    "midi": 69,
                    "time": 515.8242180000046,
                    "velocity": 0.47244094488188976,
                    "duration": 0.23618324999995366
                },
                {
                    "name": "E4",
                    "midi": 64,
                    "time": 516.0604012500046,
                    "velocity": 0.4409448818897638,
                    "duration": 0.23618324999995366
                },
                {
                    "name": "C#6",
                    "midi": 85,
                    "time": 516.2965845000045,
                    "velocity": 0.5196850393700787,
                    "duration": 0.4723664999999073
                },
                {
                    "name": "C#5",
                    "midi": 73,
                    "time": 516.2965845000045,
                    "velocity": 0.3937007874015748,
                    "duration": 0.23618324999995366
                },
                {
                    "name": "A4",
                    "midi": 69,
                    "time": 516.2965845000045,
                    "velocity": 0.3937007874015748,
                    "duration": 0.23618324999995366
                },
                {
                    "name": "A5",
                    "midi": 81,
                    "time": 516.2965845000045,
                    "velocity": 0.4330708661417323,
                    "duration": 0.4723664999999073
                },
                {
                    "name": "E4",
                    "midi": 64,
                    "time": 516.5327677500045,
                    "velocity": 0.4409448818897638,
                    "duration": 0.23618324999995366
                },
                {
                    "name": "D6",
                    "midi": 86,
                    "time": 516.7689510000044,
                    "velocity": 0.5196850393700787,
                    "duration": 0.4723664999999073
                },
                {
                    "name": "D5",
                    "midi": 74,
                    "time": 516.7689510000044,
                    "velocity": 0.47244094488188976,
                    "duration": 0.23618324999995366
                },
                {
                    "name": "B5",
                    "midi": 83,
                    "time": 516.7689510000044,
                    "velocity": 0.4330708661417323,
                    "duration": 0.4723664999999073
                },
                {
                    "name": "B4",
                    "midi": 71,
                    "time": 516.7689510000044,
                    "velocity": 0.47244094488188976,
                    "duration": 0.23618324999995366
                },
                {
                    "name": "E4",
                    "midi": 64,
                    "time": 517.0051342500044,
                    "velocity": 0.4409448818897638,
                    "duration": 0.23618324999995366
                },
                {
                    "name": "E6",
                    "midi": 88,
                    "time": 517.2413175000044,
                    "velocity": 0.5433070866141733,
                    "duration": 0.4723664999999073
                },
                {
                    "name": "E5",
                    "midi": 76,
                    "time": 517.2413175000044,
                    "velocity": 0.4881889763779528,
                    "duration": 0.23618324999995366
                },
                {
                    "name": "C#6",
                    "midi": 85,
                    "time": 517.2413175000044,
                    "velocity": 0.44881889763779526,
                    "duration": 0.4723664999999073
                },
                {
                    "name": "C#5",
                    "midi": 73,
                    "time": 517.2413175000044,
                    "velocity": 0.4881889763779528,
                    "duration": 0.23618324999995366
                },
                {
                    "name": "A4",
                    "midi": 69,
                    "time": 517.4775007500043,
                    "velocity": 0.44881889763779526,
                    "duration": 0.23618324999995366
                },
                {
                    "name": "C#5",
                    "midi": 73,
                    "time": 517.7136840000043,
                    "velocity": 0.4094488188976378,
                    "duration": 0.23618324999995366
                },
                {
                    "name": "E5",
                    "midi": 76,
                    "time": 517.7136840000043,
                    "velocity": 0.4094488188976378,
                    "duration": 0.23618324999995366
                },
                {
                    "name": "A4",
                    "midi": 69,
                    "time": 517.9498672500042,
                    "velocity": 0.44881889763779526,
                    "duration": 0.23618324999995366
                },
                {
                    "name": "D5",
                    "midi": 74,
                    "time": 518.1860505000042,
                    "velocity": 0.4409448818897638,
                    "duration": 0.23618324999995366
                },
                {
                    "name": "F#5",
                    "midi": 78,
                    "time": 518.1860505000042,
                    "velocity": 0.4409448818897638,
                    "duration": 0.23618324999995366
                },
                {
                    "name": "A4",
                    "midi": 69,
                    "time": 518.4222337500041,
                    "velocity": 0.4251968503937008,
                    "duration": 0.23618324999995366
                },
                {
                    "name": "C#5",
                    "midi": 73,
                    "time": 518.6584170000041,
                    "velocity": 0.4409448818897638,
                    "duration": 0.23618324999995366
                },
                {
                    "name": "A4",
                    "midi": 69,
                    "time": 518.6584170000041,
                    "velocity": 0.4409448818897638,
                    "duration": 0.23618324999995366
                },
                {
                    "name": "E4",
                    "midi": 64,
                    "time": 518.894600250004,
                    "velocity": 0.4881889763779528,
                    "duration": 0.23618324999995366
                },
                {
                    "name": "C#6",
                    "midi": 85,
                    "time": 519.130783500004,
                    "velocity": 0.5590551181102362,
                    "duration": 0.4723664999999073
                },
                {
                    "name": "A4",
                    "midi": 69,
                    "time": 519.130783500004,
                    "velocity": 0.4330708661417323,
                    "duration": 0.23618324999995366
                },
                {
                    "name": "A5",
                    "midi": 81,
                    "time": 519.130783500004,
                    "velocity": 0.4645669291338583,
                    "duration": 0.4723664999999073
                },
                {
                    "name": "C#5",
                    "midi": 73,
                    "time": 519.130783500004,
                    "velocity": 0.4330708661417323,
                    "duration": 0.23618324999995366
                },
                {
                    "name": "E4",
                    "midi": 64,
                    "time": 519.3669667500039,
                    "velocity": 0.4645669291338583,
                    "duration": 0.23618324999995366
                },
                {
                    "name": "B4",
                    "midi": 71,
                    "time": 519.6031500000039,
                    "velocity": 0.4251968503937008,
                    "duration": 0.23618324999995366
                },
                {
                    "name": "G#5",
                    "midi": 80,
                    "time": 519.6031500000039,
                    "velocity": 0.4566929133858268,
                    "duration": 0.4723664999999073
                },
                {
                    "name": "G#4",
                    "midi": 68,
                    "time": 519.6031500000039,
                    "velocity": 0.4251968503937008,
                    "duration": 0.23618324999995366
                },
                {
                    "name": "B5",
                    "midi": 83,
                    "time": 519.6031500000039,
                    "velocity": 0.5511811023622047,
                    "duration": 0.4723664999999073
                },
                {
                    "name": "E4",
                    "midi": 64,
                    "time": 519.8393332500038,
                    "velocity": 0.4566929133858268,
                    "duration": 0.23618324999995366
                },
                {
                    "name": "A4",
                    "midi": 69,
                    "time": 520.0755165000038,
                    "velocity": 0.49606299212598426,
                    "duration": 0.23618324999995366
                },
                {
                    "name": "A5",
                    "midi": 81,
                    "time": 520.0755165000038,
                    "velocity": 0.49606299212598426,
                    "duration": 0.4723664999999073
                },
                {
                    "name": "E4",
                    "midi": 64,
                    "time": 520.3116997500038,
                    "velocity": 0.4409448818897638,
                    "duration": 0.23618324999995366
                },
                {
                    "name": "C#4",
                    "midi": 61,
                    "time": 520.5478830000037,
                    "velocity": 0.4645669291338583,
                    "duration": 0.23618324999995366
                },
                {
                    "name": "E4",
                    "midi": 64,
                    "time": 520.7840662500037,
                    "velocity": 0.3858267716535433,
                    "duration": 0.23618324999995366
                },
                {
                    "name": "A4",
                    "midi": 69,
                    "time": 521.0202495000036,
                    "velocity": 0.44881889763779526,
                    "duration": 0.23618324999995366
                },
                {
                    "name": "C#5",
                    "midi": 73,
                    "time": 524.3268150000035,
                    "velocity": 0.3937007874015748,
                    "duration": 0.944733000000042
                },
                {
                    "name": "C#5",
                    "midi": 73,
                    "time": 525.2715480000036,
                    "velocity": 0.3937007874015748,
                    "duration": 1.4170994999999493
                },
                {
                    "name": "D5",
                    "midi": 74,
                    "time": 526.6886475000035,
                    "velocity": 0.41732283464566927,
                    "duration": 0.472366500000021
                },
                {
                    "name": "F#5",
                    "midi": 78,
                    "time": 527.1610140000035,
                    "velocity": 0.4409448818897638,
                    "duration": 0.472366500000021
                },
                {
                    "name": "E5",
                    "midi": 76,
                    "time": 527.6333805000036,
                    "velocity": 0.3937007874015748,
                    "duration": 0.472366500000021
                },
                {
                    "name": "E5",
                    "midi": 76,
                    "time": 528.5781135000036,
                    "velocity": 0.3937007874015748,
                    "duration": 0.472366500000021
                },
                {
                    "name": "F#5",
                    "midi": 78,
                    "time": 529.0504800000036,
                    "velocity": 0.4251968503937008,
                    "duration": 0.23618324999995366
                },
                {
                    "name": "E5",
                    "midi": 76,
                    "time": 529.2866632500036,
                    "velocity": 0.3937007874015748,
                    "duration": 0.23618324999995366
                },
                {
                    "name": "D5",
                    "midi": 74,
                    "time": 529.5228465000035,
                    "velocity": 0.3937007874015748,
                    "duration": 0.23618324999995366
                },
                {
                    "name": "C#5",
                    "midi": 73,
                    "time": 529.7590297500035,
                    "velocity": 0.3937007874015748,
                    "duration": 0.21846950625001682
                },
                {
                    "name": "C#5",
                    "midi": 73,
                    "time": 529.9952130000036,
                    "velocity": 0.4251968503937008,
                    "duration": 0.472366500000021
                },
                {
                    "name": "B4",
                    "midi": 71,
                    "time": 530.4675795000036,
                    "velocity": 0.3937007874015748,
                    "duration": 0.4605573374999494
                },
                {
                    "name": "B4",
                    "midi": 71,
                    "time": 530.9399460000035,
                    "velocity": 0.3937007874015748,
                    "duration": 1.4170994999999493
                },
                {
                    "name": "C#5",
                    "midi": 73,
                    "time": 532.3570455000034,
                    "velocity": 0.4251968503937008,
                    "duration": 0.472366500000021
                },
                {
                    "name": "E5",
                    "midi": 76,
                    "time": 532.8294120000035,
                    "velocity": 0.44881889763779526,
                    "duration": 0.472366500000021
                },
                {
                    "name": "D5",
                    "midi": 74,
                    "time": 533.3017785000035,
                    "velocity": 0.41732283464566927,
                    "duration": 0.472366500000021
                },
                {
                    "name": "D5",
                    "midi": 74,
                    "time": 534.2465115000035,
                    "velocity": 0.3937007874015748,
                    "duration": 0.472366500000021
                },
                {
                    "name": "E5",
                    "midi": 76,
                    "time": 534.7188780000035,
                    "velocity": 0.4409448818897638,
                    "duration": 0.23618324999995366
                },
                {
                    "name": "D5",
                    "midi": 74,
                    "time": 534.9550612500035,
                    "velocity": 0.3937007874015748,
                    "duration": 0.23618324999995366
                },
                {
                    "name": "C#5",
                    "midi": 73,
                    "time": 535.1912445000034,
                    "velocity": 0.3937007874015748,
                    "duration": 0.23618324999995366
                },
                {
                    "name": "B4",
                    "midi": 71,
                    "time": 535.4274277500034,
                    "velocity": 0.3937007874015748,
                    "duration": 0.2204377000000477
                },
                {
                    "name": "B4",
                    "midi": 71,
                    "time": 535.6636110000035,
                    "velocity": 0.44881889763779526,
                    "duration": 0.472366500000021
                },
                {
                    "name": "A4",
                    "midi": 69,
                    "time": 536.1359775000035,
                    "velocity": 0.41732283464566927,
                    "duration": 0.472366500000021
                },
                {
                    "name": "A4",
                    "midi": 69,
                    "time": 536.8445272500035,
                    "velocity": 0.41732283464566927,
                    "duration": 0.23618324999995366
                },
                {
                    "name": "G#4",
                    "midi": 68,
                    "time": 537.0807105000034,
                    "velocity": 0.4409448818897638,
                    "duration": 0.23618324999995366
                },
                {
                    "name": "A4",
                    "midi": 69,
                    "time": 537.3168937500034,
                    "velocity": 0.41732283464566927,
                    "duration": 0.23618324999995366
                },
                {
                    "name": "B4",
                    "midi": 71,
                    "time": 537.5530770000033,
                    "velocity": 0.4566929133858268,
                    "duration": 0.23618324999995366
                },
                {
                    "name": "A4",
                    "midi": 69,
                    "time": 537.7892602500033,
                    "velocity": 0.4330708661417323,
                    "duration": 0.23618324999995366
                },
                {
                    "name": "D5",
                    "midi": 74,
                    "time": 538.0254435000032,
                    "velocity": 0.4881889763779528,
                    "duration": 0.23618324999995366
                },
                {
                    "name": "C#5",
                    "midi": 73,
                    "time": 538.2616267500032,
                    "velocity": 0.4566929133858268,
                    "duration": 0.23618324999995366
                },
                {
                    "name": "A#4",
                    "midi": 70,
                    "time": 538.4978100000031,
                    "velocity": 0.49606299212598426,
                    "duration": 0.472366500000021
                },
                {
                    "name": "B4",
                    "midi": 71,
                    "time": 538.9701765000032,
                    "velocity": 0.4566929133858268,
                    "duration": 0.472366500000021
                },
                {
                    "name": "B4",
                    "midi": 71,
                    "time": 539.6787262500031,
                    "velocity": 0.3858267716535433,
                    "duration": 0.23618324999995366
                },
                {
                    "name": "A#4",
                    "midi": 70,
                    "time": 539.9149095000031,
                    "velocity": 0.41732283464566927,
                    "duration": 0.23618324999995366
                },
                {
                    "name": "B4",
                    "midi": 71,
                    "time": 540.151092750003,
                    "velocity": 0.3858267716535433,
                    "duration": 0.23618324999995366
                },
                {
                    "name": "C#5",
                    "midi": 73,
                    "time": 540.387276000003,
                    "velocity": 0.41732283464566927,
                    "duration": 0.23618324999995366
                },
                {
                    "name": "B4",
                    "midi": 71,
                    "time": 540.623459250003,
                    "velocity": 0.3858267716535433,
                    "duration": 0.23618324999995366
                },
                {
                    "name": "E5",
                    "midi": 76,
                    "time": 540.8596425000029,
                    "velocity": 0.41732283464566927,
                    "duration": 0.23618324999995366
                },
                {
                    "name": "D5",
                    "midi": 74,
                    "time": 541.0958257500029,
                    "velocity": 0.3858267716535433,
                    "duration": 0.23618324999995366
                },
                {
                    "name": "D5",
                    "midi": 74,
                    "time": 541.3320090000028,
                    "velocity": 0.41732283464566927,
                    "duration": 0.23618324999995366
                },
                {
                    "name": "C#5",
                    "midi": 73,
                    "time": 541.5681922500028,
                    "velocity": 0.3543307086614173,
                    "duration": 0.23618324999995366
                },
                {
                    "name": "C5",
                    "midi": 72,
                    "time": 541.8043755000027,
                    "velocity": 0.3858267716535433,
                    "duration": 0.23618324999995366
                },
                {
                    "name": "C#5",
                    "midi": 73,
                    "time": 542.0405587500027,
                    "velocity": 0.36220472440944884,
                    "duration": 0.23618324999995366
                },
                {
                    "name": "D5",
                    "midi": 74,
                    "time": 542.2767420000026,
                    "velocity": 0.4330708661417323,
                    "duration": 0.23618324999995366
                },
                {
                    "name": "C#5",
                    "midi": 73,
                    "time": 542.5129252500026,
                    "velocity": 0.36220472440944884,
                    "duration": 0.23618324999995366
                },
                {
                    "name": "C5",
                    "midi": 72,
                    "time": 542.7491085000025,
                    "velocity": 0.3937007874015748,
                    "duration": 0.23618324999995366
                },
                {
                    "name": "C#5",
                    "midi": 73,
                    "time": 542.9852917500025,
                    "velocity": 0.3700787401574803,
                    "duration": 0.23618324999995366
                },
                {
                    "name": "E5",
                    "midi": 76,
                    "time": 543.2214750000024,
                    "velocity": 0.4645669291338583,
                    "duration": 0.23618324999995366
                },
                {
                    "name": "D5",
                    "midi": 74,
                    "time": 543.4576582500024,
                    "velocity": 0.4015748031496063,
                    "duration": 0.23618324999995366
                },
                {
                    "name": "C#5",
                    "midi": 73,
                    "time": 543.6938415000023,
                    "velocity": 0.41732283464566927,
                    "duration": 0.23618324999995366
                },
                {
                    "name": "D5",
                    "midi": 74,
                    "time": 543.9300247500023,
                    "velocity": 0.4015748031496063,
                    "duration": 0.23618324999995366
                },
                {
                    "name": "C#5",
                    "midi": 73,
                    "time": 544.1662080000023,
                    "velocity": 0.4881889763779528,
                    "duration": 0.23618324999995366
                },
                {
                    "name": "B4",
                    "midi": 71,
                    "time": 544.4023912500022,
                    "velocity": 0.4094488188976378,
                    "duration": 0.23618324999995366
                },
                {
                    "name": "A#4",
                    "midi": 70,
                    "time": 544.6385745000022,
                    "velocity": 0.41732283464566927,
                    "duration": 0.23618324999995366
                },
                {
                    "name": "B4",
                    "midi": 71,
                    "time": 544.8747577500021,
                    "velocity": 0.3858267716535433,
                    "duration": 0.23618324999995366
                },
                {
                    "name": "A4",
                    "midi": 69,
                    "time": 545.1109410000021,
                    "velocity": 0.49606299212598426,
                    "duration": 0.23618324999995366
                },
                {
                    "name": "G#4",
                    "midi": 68,
                    "time": 545.347124250002,
                    "velocity": 0.3937007874015748,
                    "duration": 0.23618324999995366
                },
                {
                    "name": "G4",
                    "midi": 67,
                    "time": 545.583307500002,
                    "velocity": 0.4251968503937008,
                    "duration": 0.23618324999995366
                },
                {
                    "name": "G#4",
                    "midi": 68,
                    "time": 545.8194907500019,
                    "velocity": 0.4015748031496063,
                    "duration": 0.23618324999995366
                },
                {
                    "name": "F#4",
                    "midi": 66,
                    "time": 546.0556740000019,
                    "velocity": 0.5039370078740157,
                    "duration": 0.23618324999995366
                },
                {
                    "name": "E4",
                    "midi": 64,
                    "time": 546.2918572500018,
                    "velocity": 0.4251968503937008,
                    "duration": 0.23618324999995366
                },
                {
                    "name": "D#4",
                    "midi": 63,
                    "time": 546.5280405000018,
                    "velocity": 0.4409448818897638,
                    "duration": 0.23618324999995366
                },
                {
                    "name": "E4",
                    "midi": 64,
                    "time": 546.7642237500017,
                    "velocity": 0.4251968503937008,
                    "duration": 0.23618324999995366
                },
                {
                    "name": "C#5",
                    "midi": 73,
                    "time": 547.0004070000017,
                    "velocity": 0.5590551181102362,
                    "duration": 0.472366500000021
                },
                {
                    "name": "A4",
                    "midi": 69,
                    "time": 547.0004070000017,
                    "velocity": 0.5590551181102362,
                    "duration": 0.472366500000021
                },
                {
                    "name": "A4",
                    "midi": 69,
                    "time": 547.4727735000017,
                    "velocity": 0.5118110236220472,
                    "duration": 0.944733000000042
                },
                {
                    "name": "C#5",
                    "midi": 73,
                    "time": 547.4727735000017,
                    "velocity": 0.5118110236220472,
                    "duration": 0.944733000000042
                },
                {
                    "name": "C#5",
                    "midi": 73,
                    "time": 548.4175065000018,
                    "velocity": 0.3937007874015748,
                    "duration": 0.472366500000021
                },
                {
                    "name": "A#4",
                    "midi": 70,
                    "time": 548.4175065000018,
                    "velocity": 0.3937007874015748,
                    "duration": 0.472366500000021
                },
                {
                    "name": "D5",
                    "midi": 74,
                    "time": 548.8898730000018,
                    "velocity": 0.3937007874015748,
                    "duration": 0.472366500000021
                },
                {
                    "name": "B4",
                    "midi": 71,
                    "time": 548.8898730000018,
                    "velocity": 0.3937007874015748,
                    "duration": 0.472366500000021
                },
                {
                    "name": "C5",
                    "midi": 72,
                    "time": 549.3622395000018,
                    "velocity": 0.3937007874015748,
                    "duration": 0.472366500000021
                },
                {
                    "name": "D#5",
                    "midi": 75,
                    "time": 549.3622395000018,
                    "velocity": 0.3937007874015748,
                    "duration": 0.472366500000021
                },
                {
                    "name": "C#5",
                    "midi": 73,
                    "time": 549.8346060000018,
                    "velocity": 0.41732283464566927,
                    "duration": 0.23618324999995366
                },
                {
                    "name": "E5",
                    "midi": 76,
                    "time": 549.8346060000018,
                    "velocity": 0.41732283464566927,
                    "duration": 0.23618324999995366
                },
                {
                    "name": "A4",
                    "midi": 69,
                    "time": 550.0707892500018,
                    "velocity": 0.3858267716535433,
                    "duration": 0.12399620625001262
                },
                {
                    "name": "B4",
                    "midi": 71,
                    "time": 550.3069725000018,
                    "velocity": 0.3937007874015748,
                    "duration": 0.12399620625001262
                },
                {
                    "name": "C#5",
                    "midi": 73,
                    "time": 550.5431557500019,
                    "velocity": 0.4015748031496063,
                    "duration": 0.12399620625001262
                },
                {
                    "name": "D5",
                    "midi": 74,
                    "time": 550.779339000002,
                    "velocity": 0.4094488188976378,
                    "duration": 0.12399620625001262
                },
                {
                    "name": "E5",
                    "midi": 76,
                    "time": 551.015522250002,
                    "velocity": 0.41732283464566927,
                    "duration": 0.12399620625001262
                },
                {
                    "name": "F#5",
                    "midi": 78,
                    "time": 551.2517055000021,
                    "velocity": 0.4251968503937008,
                    "duration": 0.12399620625001262
                },
                {
                    "name": "G#5",
                    "midi": 80,
                    "time": 551.4878887500022,
                    "velocity": 0.4330708661417323,
                    "duration": 0.12399620625001262
                },
                {
                    "name": "A5",
                    "midi": 81,
                    "time": 551.7240720000023,
                    "velocity": 0.4409448818897638,
                    "duration": 0.23618324999995366
                },
                {
                    "name": "B5",
                    "midi": 83,
                    "time": 551.9602552500022,
                    "velocity": 0.44881889763779526,
                    "duration": 0.23618324999995366
                },
                {
                    "name": "C#6",
                    "midi": 85,
                    "time": 552.1964385000022,
                    "velocity": 0.4566929133858268,
                    "duration": 0.23618324999995366
                },
                {
                    "name": "A4",
                    "midi": 69,
                    "time": 552.6688050000021,
                    "velocity": 0.5590551181102362,
                    "duration": 0.23618324999995366
                },
                {
                    "name": "C#5",
                    "midi": 73,
                    "time": 552.6688050000021,
                    "velocity": 0.5590551181102362,
                    "duration": 0.23618324999995366
                },
                {
                    "name": "B4",
                    "midi": 71,
                    "time": 552.904988250002,
                    "velocity": 0.49606299212598426,
                    "duration": 0.21256492500003787
                },
                {
                    "name": "G#4",
                    "midi": 68,
                    "time": 552.904988250002,
                    "velocity": 0.4881889763779528,
                    "duration": 0.21256492500003787
                },
                {
                    "name": "G#4",
                    "midi": 68,
                    "time": 553.1411715000021,
                    "velocity": 0.5118110236220472,
                    "duration": 0.944733000000042
                },
                {
                    "name": "B4",
                    "midi": 71,
                    "time": 553.1411715000021,
                    "velocity": 0.5118110236220472,
                    "duration": 0.944733000000042
                },
                {
                    "name": "B4",
                    "midi": 71,
                    "time": 554.0859045000021,
                    "velocity": 0.3937007874015748,
                    "duration": 0.472366500000021
                },
                {
                    "name": "G#4",
                    "midi": 68,
                    "time": 554.0859045000021,
                    "velocity": 0.3937007874015748,
                    "duration": 0.472366500000021
                },
                {
                    "name": "A4",
                    "midi": 69,
                    "time": 554.5582710000022,
                    "velocity": 0.3937007874015748,
                    "duration": 0.472366500000021
                },
                {
                    "name": "C5",
                    "midi": 72,
                    "time": 554.5582710000022,
                    "velocity": 0.3937007874015748,
                    "duration": 0.472366500000021
                },
                {
                    "name": "C#5",
                    "midi": 73,
                    "time": 555.0306375000022,
                    "velocity": 0.3937007874015748,
                    "duration": 0.472366500000021
                },
                {
                    "name": "A#4",
                    "midi": 70,
                    "time": 555.0306375000022,
                    "velocity": 0.3937007874015748,
                    "duration": 0.472366500000021
                },
                {
                    "name": "B4",
                    "midi": 71,
                    "time": 555.5030040000022,
                    "velocity": 0.41732283464566927,
                    "duration": 0.23618324999995366
                },
                {
                    "name": "D5",
                    "midi": 74,
                    "time": 555.5030040000022,
                    "velocity": 0.41732283464566927,
                    "duration": 0.23618324999995366
                },
                {
                    "name": "B4",
                    "midi": 71,
                    "time": 555.7391872500021,
                    "velocity": 0.3858267716535433,
                    "duration": 0.12399620625001262
                },
                {
                    "name": "C#5",
                    "midi": 73,
                    "time": 555.9753705000022,
                    "velocity": 0.3937007874015748,
                    "duration": 0.12399620625001262
                },
                {
                    "name": "D5",
                    "midi": 74,
                    "time": 556.2115537500023,
                    "velocity": 0.4015748031496063,
                    "duration": 0.12399620625001262
                },
                {
                    "name": "E5",
                    "midi": 76,
                    "time": 556.4477370000023,
                    "velocity": 0.4094488188976378,
                    "duration": 0.12399620625001262
                },
                {
                    "name": "F#5",
                    "midi": 78,
                    "time": 556.6839202500024,
                    "velocity": 0.41732283464566927,
                    "duration": 0.12399620625001262
                },
                {
                    "name": "G#5",
                    "midi": 80,
                    "time": 556.9201035000025,
                    "velocity": 0.4251968503937008,
                    "duration": 0.12399620625001262
                },
                {
                    "name": "A5",
                    "midi": 81,
                    "time": 557.1562867500026,
                    "velocity": 0.4330708661417323,
                    "duration": 0.12399620625001262
                },
                {
                    "name": "B5",
                    "midi": 83,
                    "time": 557.3924700000026,
                    "velocity": 0.4409448818897638,
                    "duration": 0.23618324999995366
                },
                {
                    "name": "C#6",
                    "midi": 85,
                    "time": 557.6286532500026,
                    "velocity": 0.44881889763779526,
                    "duration": 0.23618324999995366
                },
                {
                    "name": "D6",
                    "midi": 86,
                    "time": 557.8648365000025,
                    "velocity": 0.4566929133858268,
                    "duration": 0.23618324999995366
                },
                {
                    "name": "B4",
                    "midi": 71,
                    "time": 558.3372030000024,
                    "velocity": 0.44881889763779526,
                    "duration": 0.23618324999995366
                },
                {
                    "name": "A4",
                    "midi": 69,
                    "time": 558.5733862500024,
                    "velocity": 0.41732283464566927,
                    "duration": 0.21256492500003787
                },
                {
                    "name": "A4",
                    "midi": 69,
                    "time": 558.8095695000025,
                    "velocity": 0.41732283464566927,
                    "duration": 0.7085497499999747
                },
                {
                    "name": "A4",
                    "midi": 69,
                    "time": 559.5181192500024,
                    "velocity": 0.41732283464566927,
                    "duration": 0.23618324999995366
                },
                {
                    "name": "D5",
                    "midi": 74,
                    "time": 559.7543025000024,
                    "velocity": 0.4409448818897638,
                    "duration": 0.23618324999995366
                },
                {
                    "name": "C#5",
                    "midi": 73,
                    "time": 559.9904857500023,
                    "velocity": 0.41732283464566927,
                    "duration": 0.23618324999995366
                },
                {
                    "name": "A#4",
                    "midi": 70,
                    "time": 560.2266690000023,
                    "velocity": 0.4330708661417323,
                    "duration": 0.23618324999995366
                },
                {
                    "name": "B4",
                    "midi": 71,
                    "time": 560.4628522500022,
                    "velocity": 0.4094488188976378,
                    "duration": 0.23618324999995366
                },
                {
                    "name": "E5",
                    "midi": 76,
                    "time": 560.6990355000022,
                    "velocity": 0.4094488188976378,
                    "duration": 0.23618324999995366
                },
                {
                    "name": "D5",
                    "midi": 74,
                    "time": 560.9352187500022,
                    "velocity": 0.41732283464566927,
                    "duration": 0.23618324999995366
                },
                {
                    "name": "C5",
                    "midi": 72,
                    "time": 561.1714020000021,
                    "velocity": 0.4566929133858268,
                    "duration": 0.23618324999995366
                },
                {
                    "name": "C#5",
                    "midi": 73,
                    "time": 561.4075852500021,
                    "velocity": 0.41732283464566927,
                    "duration": 0.23618324999995366
                },
                {
                    "name": "A5",
                    "midi": 81,
                    "time": 561.643768500002,
                    "velocity": 0.4251968503937008,
                    "duration": 0.1771374375000505
                },
                {
                    "name": "A5",
                    "midi": 81,
                    "time": 561.8799517500021,
                    "velocity": 0.4330708661417323,
                    "duration": 0.1771374375000505
                },
                {
                    "name": "A5",
                    "midi": 81,
                    "time": 562.1161350000021,
                    "velocity": 0.44881889763779526,
                    "duration": 0.1771374375000505
                },
                {
                    "name": "A5",
                    "midi": 81,
                    "time": 562.3523182500022,
                    "velocity": 0.4330708661417323,
                    "duration": 0.1771374375000505
                },
                {
                    "name": "A5",
                    "midi": 81,
                    "time": 562.5885015000023,
                    "velocity": 0.4330708661417323,
                    "duration": 0.1771374375000505
                },
                {
                    "name": "A5",
                    "midi": 81,
                    "time": 562.8246847500023,
                    "velocity": 0.4330708661417323,
                    "duration": 0.1771374375000505
                },
                {
                    "name": "A5",
                    "midi": 81,
                    "time": 563.0608680000024,
                    "velocity": 0.4566929133858268,
                    "duration": 0.23618324999995366
                },
                {
                    "name": "F#5",
                    "midi": 78,
                    "time": 563.2970512500024,
                    "velocity": 0.4094488188976378,
                    "duration": 0.23618324999995366
                },
                {
                    "name": "D5",
                    "midi": 74,
                    "time": 563.5332345000023,
                    "velocity": 0.4251968503937008,
                    "duration": 0.23618324999995366
                },
                {
                    "name": "B4",
                    "midi": 71,
                    "time": 563.7694177500023,
                    "velocity": 0.4094488188976378,
                    "duration": 0.23618324999995366
                },
                {
                    "name": "E5",
                    "midi": 76,
                    "time": 564.0056010000022,
                    "velocity": 0.4645669291338583,
                    "duration": 0.23618324999995366
                },
                {
                    "name": "F#5",
                    "midi": 78,
                    "time": 564.2417842500022,
                    "velocity": 0.4251968503937008,
                    "duration": 0.07872774999998455
                },
                {
                    "name": "E5",
                    "midi": 76,
                    "time": 564.3205120000022,
                    "velocity": 0.4251968503937008,
                    "duration": 0.07872774999998455
                },
                {
                    "name": "D#5",
                    "midi": 75,
                    "time": 564.3992397500022,
                    "velocity": 0.4251968503937008,
                    "duration": 0.07872774999998455
                },
                {
                    "name": "E5",
                    "midi": 76,
                    "time": 564.4779675000021,
                    "velocity": 0.4645669291338583,
                    "duration": 0.23618324999995366
                },
                {
                    "name": "F#5",
                    "midi": 78,
                    "time": 564.7141507500021,
                    "velocity": 0.4409448818897638,
                    "duration": 0.23618324999995366
                },
                {
                    "name": "A4",
                    "midi": 69,
                    "time": 564.950334000002,
                    "velocity": 0.4566929133858268,
                    "duration": 1.4170994999999493
                },
                {
                    "name": "G#4",
                    "midi": 68,
                    "time": 566.367433500002,
                    "velocity": 0.41732283464566927,
                    "duration": 0.4723664999999073
                },
                {
                    "name": "C#5",
                    "midi": 73,
                    "time": 566.367433500002,
                    "velocity": 0.41732283464566927,
                    "duration": 0.23618324999995366
                },
                {
                    "name": "B4",
                    "midi": 71,
                    "time": 566.603616750002,
                    "velocity": 0.3937007874015748,
                    "duration": 0.23618324999995366
                },
                {
                    "name": "E4",
                    "midi": 64,
                    "time": 566.8398000000019,
                    "velocity": 0.3543307086614173,
                    "duration": 1.889466000000084
                },
                {
                    "name": "B4",
                    "midi": 71,
                    "time": 566.8398000000019,
                    "velocity": 0.41732283464566927,
                    "duration": 0.944733000000042
                },
                {
                    "name": "G#4",
                    "midi": 68,
                    "time": 566.8398000000019,
                    "velocity": 0.3543307086614173,
                    "duration": 0.944733000000042
                },
                {
                    "name": "A4",
                    "midi": 69,
                    "time": 567.7845330000019,
                    "velocity": 0.3464566929133858,
                    "duration": 0.472366500000021
                },
                {
                    "name": "E4",
                    "midi": 64,
                    "time": 568.611174375002,
                    "velocity": 0.33858267716535434,
                    "duration": 0.11809162500003367
                },
                {
                    "name": "F#4",
                    "midi": 66,
                    "time": 568.729266000002,
                    "velocity": 0.36220472440944884,
                    "duration": 0.11809162500003367
                },
                {
                    "name": "A4",
                    "midi": 69,
                    "time": 568.847357625002,
                    "velocity": 0.33070866141732286,
                    "duration": 0.11809162500003367
                },
                {
                    "name": "G#4",
                    "midi": 68,
                    "time": 568.965449250002,
                    "velocity": 0.36220472440944884,
                    "duration": 0.11809162500003367
                },
                {
                    "name": "B4",
                    "midi": 71,
                    "time": 569.0835408750021,
                    "velocity": 0.3464566929133858,
                    "duration": 0.11809162500003367
                },
                {
                    "name": "A4",
                    "midi": 69,
                    "time": 569.2016325000021,
                    "velocity": 0.3464566929133858,
                    "duration": 0.11809162500003367
                },
                {
                    "name": "C#5",
                    "midi": 73,
                    "time": 569.3197241250022,
                    "velocity": 0.31496062992125984,
                    "duration": 0.11809162500003367
                },
                {
                    "name": "B4",
                    "midi": 71,
                    "time": 569.4378157500022,
                    "velocity": 0.3464566929133858,
                    "duration": 0.11809162500003367
                },
                {
                    "name": "D5",
                    "midi": 74,
                    "time": 569.5559073750022,
                    "velocity": 0.3228346456692913,
                    "duration": 0.11809162500003367
                },
                {
                    "name": "C#5",
                    "midi": 73,
                    "time": 569.6739990000023,
                    "velocity": 0.3937007874015748,
                    "duration": 0.944733000000042
                },
                {
                    "name": "C#5",
                    "midi": 73,
                    "time": 570.6187320000023,
                    "velocity": 0.3937007874015748,
                    "duration": 1.4170994999999493
                },
                {
                    "name": "D5",
                    "midi": 74,
                    "time": 572.0358315000022,
                    "velocity": 0.41732283464566927,
                    "duration": 0.472366500000021
                },
                {
                    "name": "F#5",
                    "midi": 78,
                    "time": 572.5081980000023,
                    "velocity": 0.4409448818897638,
                    "duration": 0.472366500000021
                },
                {
                    "name": "E5",
                    "midi": 76,
                    "time": 572.9805645000023,
                    "velocity": 0.3937007874015748,
                    "duration": 0.472366500000021
                },
                {
                    "name": "E5",
                    "midi": 76,
                    "time": 573.9252975000023,
                    "velocity": 0.3937007874015748,
                    "duration": 0.472366500000021
                },
                {
                    "name": "F#5",
                    "midi": 78,
                    "time": 574.3976640000024,
                    "velocity": 0.4251968503937008,
                    "duration": 0.23618324999995366
                },
                {
                    "name": "E5",
                    "midi": 76,
                    "time": 574.6338472500023,
                    "velocity": 0.3937007874015748,
                    "duration": 0.23618324999995366
                },
                {
                    "name": "D5",
                    "midi": 74,
                    "time": 574.8700305000023,
                    "velocity": 0.3937007874015748,
                    "duration": 0.23618324999995366
                },
                {
                    "name": "C#5",
                    "midi": 73,
                    "time": 575.1062137500022,
                    "velocity": 0.3937007874015748,
                    "duration": 0.21256492500003787
                },
                {
                    "name": "C#5",
                    "midi": 73,
                    "time": 575.3423970000023,
                    "velocity": 0.4251968503937008,
                    "duration": 0.472366500000021
                },
                {
                    "name": "B4",
                    "midi": 71,
                    "time": 575.8147635000023,
                    "velocity": 0.3937007874015748,
                    "duration": 0.45662095000000136
                },
                {
                    "name": "B4",
                    "midi": 71,
                    "time": 576.2871300000023,
                    "velocity": 0.3937007874015748,
                    "duration": 1.4170994999999493
                },
                {
                    "name": "C#5",
                    "midi": 73,
                    "time": 577.7042295000023,
                    "velocity": 0.4251968503937008,
                    "duration": 0.472366500000021
                },
                {
                    "name": "E5",
                    "midi": 76,
                    "time": 578.1765960000023,
                    "velocity": 0.44881889763779526,
                    "duration": 0.472366500000021
                },
                {
                    "name": "D5",
                    "midi": 74,
                    "time": 578.6489625000023,
                    "velocity": 0.41732283464566927,
                    "duration": 0.472366500000021
                },
                {
                    "name": "D5",
                    "midi": 74,
                    "time": 579.5936955000024,
                    "velocity": 0.3937007874015748,
                    "duration": 0.472366500000021
                },
                {
                    "name": "E5",
                    "midi": 76,
                    "time": 580.0660620000024,
                    "velocity": 0.4409448818897638,
                    "duration": 0.23618324999995366
                },
                {
                    "name": "D5",
                    "midi": 74,
                    "time": 580.3022452500023,
                    "velocity": 0.3937007874015748,
                    "duration": 0.23618324999995366
                },
                {
                    "name": "C#5",
                    "midi": 73,
                    "time": 580.5384285000023,
                    "velocity": 0.3937007874015748,
                    "duration": 0.23618324999995366
                },
                {
                    "name": "B4",
                    "midi": 71,
                    "time": 580.7746117500022,
                    "velocity": 0.3937007874015748,
                    "duration": 0.21256492500003787
                },
                {
                    "name": "B4",
                    "midi": 71,
                    "time": 581.0107950000023,
                    "velocity": 0.44881889763779526,
                    "duration": 0.472366500000021
                },
                {
                    "name": "A4",
                    "midi": 69,
                    "time": 581.4831615000023,
                    "velocity": 0.41732283464566927,
                    "duration": 0.472366500000021
                },
                {
                    "name": "A4",
                    "midi": 69,
                    "time": 582.1917112500023,
                    "velocity": 0.41732283464566927,
                    "duration": 0.23618324999995366
                },
                {
                    "name": "G#4",
                    "midi": 68,
                    "time": 582.4278945000023,
                    "velocity": 0.4409448818897638,
                    "duration": 0.23618324999995366
                },
                {
                    "name": "A4",
                    "midi": 69,
                    "time": 582.6640777500022,
                    "velocity": 0.41732283464566927,
                    "duration": 0.23618324999995366
                },
                {
                    "name": "B4",
                    "midi": 71,
                    "time": 582.9002610000022,
                    "velocity": 0.4566929133858268,
                    "duration": 0.23618324999995366
                },
                {
                    "name": "A4",
                    "midi": 69,
                    "time": 583.1364442500021,
                    "velocity": 0.4330708661417323,
                    "duration": 0.23618324999995366
                },
                {
                    "name": "D5",
                    "midi": 74,
                    "time": 583.3726275000021,
                    "velocity": 0.4881889763779528,
                    "duration": 0.23618324999995366
                },
                {
                    "name": "C#5",
                    "midi": 73,
                    "time": 583.608810750002,
                    "velocity": 0.4566929133858268,
                    "duration": 0.23618324999995366
                },
                {
                    "name": "A#4",
                    "midi": 70,
                    "time": 583.844994000002,
                    "velocity": 0.49606299212598426,
                    "duration": 0.472366500000021
                },
                {
                    "name": "B4",
                    "midi": 71,
                    "time": 584.317360500002,
                    "velocity": 0.4566929133858268,
                    "duration": 0.472366500000021
                },
                {
                    "name": "B4",
                    "midi": 71,
                    "time": 585.025910250002,
                    "velocity": 0.3858267716535433,
                    "duration": 0.23618324999995366
                },
                {
                    "name": "A#4",
                    "midi": 70,
                    "time": 585.2620935000019,
                    "velocity": 0.41732283464566927,
                    "duration": 0.23618324999995366
                },
                {
                    "name": "B4",
                    "midi": 71,
                    "time": 585.4982767500019,
                    "velocity": 0.3858267716535433,
                    "duration": 0.23618324999995366
                },
                {
                    "name": "C#5",
                    "midi": 73,
                    "time": 585.7344600000018,
                    "velocity": 0.41732283464566927,
                    "duration": 0.23618324999995366
                },
                {
                    "name": "B4",
                    "midi": 71,
                    "time": 585.9706432500018,
                    "velocity": 0.3858267716535433,
                    "duration": 0.23618324999995366
                },
                {
                    "name": "E5",
                    "midi": 76,
                    "time": 586.2068265000017,
                    "velocity": 0.41732283464566927,
                    "duration": 0.23618324999995366
                },
                {
                    "name": "D5",
                    "midi": 74,
                    "time": 586.4430097500017,
                    "velocity": 0.3858267716535433,
                    "duration": 0.21256492500003787
                },
                {
                    "name": "D5",
                    "midi": 74,
                    "time": 586.6791930000018,
                    "velocity": 0.41732283464566927,
                    "duration": 0.23618324999995366
                },
                {
                    "name": "C#5",
                    "midi": 73,
                    "time": 586.9153762500017,
                    "velocity": 0.3858267716535433,
                    "duration": 0.23618324999995366
                },
                {
                    "name": "C5",
                    "midi": 72,
                    "time": 587.1515595000017,
                    "velocity": 0.3858267716535433,
                    "duration": 0.23618324999995366
                },
                {
                    "name": "C#5",
                    "midi": 73,
                    "time": 587.3877427500016,
                    "velocity": 0.3858267716535433,
                    "duration": 0.23618324999995366
                },
                {
                    "name": "D5",
                    "midi": 74,
                    "time": 587.6239260000016,
                    "velocity": 0.4330708661417323,
                    "duration": 0.23618324999995366
                },
                {
                    "name": "C#5",
                    "midi": 73,
                    "time": 587.8601092500015,
                    "velocity": 0.3937007874015748,
                    "duration": 0.23618324999995366
                },
                {
                    "name": "C5",
                    "midi": 72,
                    "time": 588.0962925000015,
                    "velocity": 0.3937007874015748,
                    "duration": 0.23618324999995366
                },
                {
                    "name": "C#5",
                    "midi": 73,
                    "time": 588.3324757500014,
                    "velocity": 0.3937007874015748,
                    "duration": 0.23618324999995366
                },
                {
                    "name": "E5",
                    "midi": 76,
                    "time": 588.5686590000014,
                    "velocity": 0.4645669291338583,
                    "duration": 0.23618324999995366
                },
                {
                    "name": "D5",
                    "midi": 74,
                    "time": 588.8048422500013,
                    "velocity": 0.41732283464566927,
                    "duration": 0.23618324999995366
                },
                {
                    "name": "C#5",
                    "midi": 73,
                    "time": 589.0410255000013,
                    "velocity": 0.41732283464566927,
                    "duration": 0.23618324999995366
                },
                {
                    "name": "D5",
                    "midi": 74,
                    "time": 589.2772087500013,
                    "velocity": 0.41732283464566927,
                    "duration": 0.23618324999995366
                },
                {
                    "name": "C#5",
                    "midi": 73,
                    "time": 589.5133920000012,
                    "velocity": 0.4881889763779528,
                    "duration": 0.23618324999995366
                },
                {
                    "name": "B4",
                    "midi": 71,
                    "time": 589.7495752500012,
                    "velocity": 0.41732283464566927,
                    "duration": 0.23618324999995366
                },
                {
                    "name": "A#4",
                    "midi": 70,
                    "time": 589.9857585000011,
                    "velocity": 0.41732283464566927,
                    "duration": 0.23618324999995366
                },
                {
                    "name": "B4",
                    "midi": 71,
                    "time": 590.2219417500011,
                    "velocity": 0.41732283464566927,
                    "duration": 0.23618324999995366
                },
                {
                    "name": "A4",
                    "midi": 69,
                    "time": 590.458125000001,
                    "velocity": 0.49606299212598426,
                    "duration": 0.23618324999995366
                },
                {
                    "name": "G#4",
                    "midi": 68,
                    "time": 590.694308250001,
                    "velocity": 0.4251968503937008,
                    "duration": 0.23618324999995366
                },
                {
                    "name": "G4",
                    "midi": 67,
                    "time": 590.9304915000009,
                    "velocity": 0.4251968503937008,
                    "duration": 0.23618324999995366
                },
                {
                    "name": "G#4",
                    "midi": 68,
                    "time": 591.1666747500009,
                    "velocity": 0.4251968503937008,
                    "duration": 0.23618324999995366
                },
                {
                    "name": "F#4",
                    "midi": 66,
                    "time": 591.4028580000008,
                    "velocity": 0.5039370078740157,
                    "duration": 0.23618324999995366
                },
                {
                    "name": "E4",
                    "midi": 64,
                    "time": 591.6390412500008,
                    "velocity": 0.4409448818897638,
                    "duration": 0.23618324999995366
                },
                {
                    "name": "D#4",
                    "midi": 63,
                    "time": 591.8752245000007,
                    "velocity": 0.4409448818897638,
                    "duration": 0.23618324999995366
                },
                {
                    "name": "E4",
                    "midi": 64,
                    "time": 592.1114077500007,
                    "velocity": 0.4409448818897638,
                    "duration": 0.23618324999995366
                },
                {
                    "name": "C#5",
                    "midi": 73,
                    "time": 592.3475910000006,
                    "velocity": 0.5590551181102362,
                    "duration": 0.472366500000021
                },
                {
                    "name": "A4",
                    "midi": 69,
                    "time": 592.3475910000006,
                    "velocity": 0.5590551181102362,
                    "duration": 0.472366500000021
                },
                {
                    "name": "C#5",
                    "midi": 73,
                    "time": 592.8199575000007,
                    "velocity": 0.5118110236220472,
                    "duration": 0.944733000000042
                },
                {
                    "name": "A4",
                    "midi": 69,
                    "time": 592.8199575000007,
                    "velocity": 0.5118110236220472,
                    "duration": 0.944733000000042
                },
                {
                    "name": "A#4",
                    "midi": 70,
                    "time": 593.7646905000007,
                    "velocity": 0.3937007874015748,
                    "duration": 0.472366500000021
                },
                {
                    "name": "C#5",
                    "midi": 73,
                    "time": 593.7646905000007,
                    "velocity": 0.3937007874015748,
                    "duration": 0.472366500000021
                },
                {
                    "name": "B4",
                    "midi": 71,
                    "time": 594.2370570000007,
                    "velocity": 0.3937007874015748,
                    "duration": 0.472366500000021
                },
                {
                    "name": "D5",
                    "midi": 74,
                    "time": 594.2370570000007,
                    "velocity": 0.3937007874015748,
                    "duration": 0.472366500000021
                },
                {
                    "name": "C5",
                    "midi": 72,
                    "time": 594.7094235000008,
                    "velocity": 0.3937007874015748,
                    "duration": 0.472366500000021
                },
                {
                    "name": "D#5",
                    "midi": 75,
                    "time": 594.7094235000008,
                    "velocity": 0.3937007874015748,
                    "duration": 0.472366500000021
                },
                {
                    "name": "C#5",
                    "midi": 73,
                    "time": 595.1817900000008,
                    "velocity": 0.41732283464566927,
                    "duration": 0.23618324999995366
                },
                {
                    "name": "E5",
                    "midi": 76,
                    "time": 595.1817900000008,
                    "velocity": 0.41732283464566927,
                    "duration": 0.23618324999995366
                },
                {
                    "name": "A4",
                    "midi": 69,
                    "time": 595.4179732500007,
                    "velocity": 0.3858267716535433,
                    "duration": 0.12399620625001262
                },
                {
                    "name": "B4",
                    "midi": 71,
                    "time": 595.6541565000008,
                    "velocity": 0.3937007874015748,
                    "duration": 0.12399620625001262
                },
                {
                    "name": "C#5",
                    "midi": 73,
                    "time": 595.8903397500009,
                    "velocity": 0.4015748031496063,
                    "duration": 0.12399620625001262
                },
                {
                    "name": "D5",
                    "midi": 74,
                    "time": 596.1265230000009,
                    "velocity": 0.4094488188976378,
                    "duration": 0.12399620625001262
                },
                {
                    "name": "E5",
                    "midi": 76,
                    "time": 596.362706250001,
                    "velocity": 0.41732283464566927,
                    "duration": 0.12399620625001262
                },
                {
                    "name": "F#5",
                    "midi": 78,
                    "time": 596.5988895000011,
                    "velocity": 0.4251968503937008,
                    "duration": 0.12399620625001262
                },
                {
                    "name": "G#5",
                    "midi": 80,
                    "time": 596.8350727500011,
                    "velocity": 0.4330708661417323,
                    "duration": 0.12399620625001262
                },
                {
                    "name": "A5",
                    "midi": 81,
                    "time": 597.0712560000012,
                    "velocity": 0.4409448818897638,
                    "duration": 0.23618324999995366
                },
                {
                    "name": "B5",
                    "midi": 83,
                    "time": 597.3074392500012,
                    "velocity": 0.44881889763779526,
                    "duration": 0.23618324999995366
                },
                {
                    "name": "C#6",
                    "midi": 85,
                    "time": 597.5436225000011,
                    "velocity": 0.4566929133858268,
                    "duration": 0.23618324999995366
                },
                {
                    "name": "C#5",
                    "midi": 73,
                    "time": 598.015989000001,
                    "velocity": 0.5590551181102362,
                    "duration": 0.23618324999995366
                },
                {
                    "name": "A4",
                    "midi": 69,
                    "time": 598.015989000001,
                    "velocity": 0.5590551181102362,
                    "duration": 0.23618324999995366
                },
                {
                    "name": "G#4",
                    "midi": 68,
                    "time": 598.252172250001,
                    "velocity": 0.4881889763779528,
                    "duration": 0.21256492500003787
                },
                {
                    "name": "B4",
                    "midi": 71,
                    "time": 598.252172250001,
                    "velocity": 0.49606299212598426,
                    "duration": 0.21256492500003787
                },
                {
                    "name": "B4",
                    "midi": 71,
                    "time": 598.488355500001,
                    "velocity": 0.5118110236220472,
                    "duration": 0.944733000000042
                },
                {
                    "name": "G#4",
                    "midi": 68,
                    "time": 598.488355500001,
                    "velocity": 0.5118110236220472,
                    "duration": 0.944733000000042
                },
                {
                    "name": "B4",
                    "midi": 71,
                    "time": 599.4330885000011,
                    "velocity": 0.3937007874015748,
                    "duration": 0.472366500000021
                },
                {
                    "name": "G#4",
                    "midi": 68,
                    "time": 599.4330885000011,
                    "velocity": 0.3937007874015748,
                    "duration": 0.472366500000021
                },
                {
                    "name": "C5",
                    "midi": 72,
                    "time": 599.9054550000011,
                    "velocity": 0.3937007874015748,
                    "duration": 0.472366500000021
                },
                {
                    "name": "A4",
                    "midi": 69,
                    "time": 599.9054550000011,
                    "velocity": 0.3937007874015748,
                    "duration": 0.472366500000021
                },
                {
                    "name": "A#4",
                    "midi": 70,
                    "time": 600.3778215000011,
                    "velocity": 0.3937007874015748,
                    "duration": 0.472366500000021
                },
                {
                    "name": "C#5",
                    "midi": 73,
                    "time": 600.3778215000011,
                    "velocity": 0.3937007874015748,
                    "duration": 0.472366500000021
                },
                {
                    "name": "B4",
                    "midi": 71,
                    "time": 600.8501880000011,
                    "velocity": 0.41732283464566927,
                    "duration": 0.23618324999995366
                },
                {
                    "name": "D5",
                    "midi": 74,
                    "time": 600.8501880000011,
                    "velocity": 0.41732283464566927,
                    "duration": 0.23618324999995366
                },
                {
                    "name": "B4",
                    "midi": 71,
                    "time": 601.0863712500011,
                    "velocity": 0.3858267716535433,
                    "duration": 0.12399620625001262
                },
                {
                    "name": "C#5",
                    "midi": 73,
                    "time": 601.3225545000012,
                    "velocity": 0.3937007874015748,
                    "duration": 0.12399620625001262
                },
                {
                    "name": "D5",
                    "midi": 74,
                    "time": 601.5587377500012,
                    "velocity": 0.4015748031496063,
                    "duration": 0.12399620625001262
                },
                {
                    "name": "E5",
                    "midi": 76,
                    "time": 601.7949210000013,
                    "velocity": 0.4094488188976378,
                    "duration": 0.12399620625001262
                },
                {
                    "name": "F#5",
                    "midi": 78,
                    "time": 602.0311042500014,
                    "velocity": 0.41732283464566927,
                    "duration": 0.12399620625001262
                },
                {
                    "name": "G#5",
                    "midi": 80,
                    "time": 602.2672875000014,
                    "velocity": 0.4251968503937008,
                    "duration": 0.12399620625001262
                },
                {
                    "name": "A5",
                    "midi": 81,
                    "time": 602.5034707500015,
                    "velocity": 0.4330708661417323,
                    "duration": 0.12399620625001262
                },
                {
                    "name": "B5",
                    "midi": 83,
                    "time": 602.7396540000016,
                    "velocity": 0.4409448818897638,
                    "duration": 0.23618324999995366
                },
                {
                    "name": "C#6",
                    "midi": 85,
                    "time": 602.9758372500015,
                    "velocity": 0.44881889763779526,
                    "duration": 0.23618324999995366
                },
                {
                    "name": "D6",
                    "midi": 86,
                    "time": 603.2120205000015,
                    "velocity": 0.4566929133858268,
                    "duration": 0.23618324999995366
                },
                {
                    "name": "B4",
                    "midi": 71,
                    "time": 603.6843870000014,
                    "velocity": 0.44881889763779526,
                    "duration": 0.23618324999995366
                },
                {
                    "name": "A4",
                    "midi": 69,
                    "time": 603.9205702500013,
                    "velocity": 0.41732283464566927,
                    "duration": 0.23618324999995366
                },
                {
                    "name": "A4",
                    "midi": 69,
                    "time": 604.1567535000013,
                    "velocity": 0.41732283464566927,
                    "duration": 0.7085497499999747
                },
                {
                    "name": "A4",
                    "midi": 69,
                    "time": 604.8653032500013,
                    "velocity": 0.41732283464566927,
                    "duration": 0.23618324999995366
                },
                {
                    "name": "D5",
                    "midi": 74,
                    "time": 605.1014865000012,
                    "velocity": 0.4409448818897638,
                    "duration": 0.23618324999995366
                },
                {
                    "name": "C#5",
                    "midi": 73,
                    "time": 605.3376697500012,
                    "velocity": 0.41732283464566927,
                    "duration": 0.23618324999995366
                },
                {
                    "name": "A#4",
                    "midi": 70,
                    "time": 605.5738530000011,
                    "velocity": 0.4330708661417323,
                    "duration": 0.23618324999995366
                },
                {
                    "name": "B4",
                    "midi": 71,
                    "time": 605.8100362500011,
                    "velocity": 0.4094488188976378,
                    "duration": 0.23618324999995366
                },
                {
                    "name": "E5",
                    "midi": 76,
                    "time": 606.046219500001,
                    "velocity": 0.4094488188976378,
                    "duration": 0.23618324999995366
                },
                {
                    "name": "D5",
                    "midi": 74,
                    "time": 606.282402750001,
                    "velocity": 0.41732283464566927,
                    "duration": 0.23618324999995366
                },
                {
                    "name": "C5",
                    "midi": 72,
                    "time": 606.5185860000009,
                    "velocity": 0.4566929133858268,
                    "duration": 0.23618324999995366
                },
                {
                    "name": "C#5",
                    "midi": 73,
                    "time": 606.7547692500009,
                    "velocity": 0.41732283464566927,
                    "duration": 0.23618324999995366
                },
                {
                    "name": "A5",
                    "midi": 81,
                    "time": 606.9909525000008,
                    "velocity": 0.4251968503937008,
                    "duration": 0.1771374375000505
                },
                {
                    "name": "A5",
                    "midi": 81,
                    "time": 607.2271357500009,
                    "velocity": 0.4330708661417323,
                    "duration": 0.1771374375000505
                },
                {
                    "name": "A5",
                    "midi": 81,
                    "time": 607.463319000001,
                    "velocity": 0.44881889763779526,
                    "duration": 0.1771374375000505
                },
                {
                    "name": "A5",
                    "midi": 81,
                    "time": 607.699502250001,
                    "velocity": 0.4330708661417323,
                    "duration": 0.1771374375000505
                },
                {
                    "name": "A5",
                    "midi": 81,
                    "time": 607.9356855000011,
                    "velocity": 0.4330708661417323,
                    "duration": 0.1771374375000505
                },
                {
                    "name": "A5",
                    "midi": 81,
                    "time": 608.1718687500012,
                    "velocity": 0.4330708661417323,
                    "duration": 0.1771374375000505
                },
                {
                    "name": "A5",
                    "midi": 81,
                    "time": 608.4080520000012,
                    "velocity": 0.4566929133858268,
                    "duration": 0.23618324999995366
                },
                {
                    "name": "F#5",
                    "midi": 78,
                    "time": 608.6442352500012,
                    "velocity": 0.4409448818897638,
                    "duration": 0.23618324999995366
                },
                {
                    "name": "D5",
                    "midi": 74,
                    "time": 608.8804185000012,
                    "velocity": 0.4251968503937008,
                    "duration": 0.23618324999995366
                },
                {
                    "name": "B4",
                    "midi": 71,
                    "time": 609.1166017500011,
                    "velocity": 0.3858267716535433,
                    "duration": 0.23618324999995366
                },
                {
                    "name": "E5",
                    "midi": 76,
                    "time": 609.3527850000011,
                    "velocity": 0.4645669291338583,
                    "duration": 0.23618324999995366
                },
                {
                    "name": "F#5",
                    "midi": 78,
                    "time": 609.588968250001,
                    "velocity": 0.4251968503937008,
                    "duration": 0.07872774999998455
                },
                {
                    "name": "E5",
                    "midi": 76,
                    "time": 609.667696000001,
                    "velocity": 0.4251968503937008,
                    "duration": 0.07872774999998455
                },
                {
                    "name": "D#5",
                    "midi": 75,
                    "time": 609.746423750001,
                    "velocity": 0.4251968503937008,
                    "duration": 0.07872774999998455
                },
                {
                    "name": "E5",
                    "midi": 76,
                    "time": 609.825151500001,
                    "velocity": 0.4645669291338583,
                    "duration": 0.23618324999995366
                },
                {
                    "name": "F#5",
                    "midi": 78,
                    "time": 610.0613347500009,
                    "velocity": 0.4409448818897638,
                    "duration": 0.23618324999995366
                },
                {
                    "name": "A4",
                    "midi": 69,
                    "time": 610.2975180000009,
                    "velocity": 0.4566929133858268,
                    "duration": 1.4170994999999493
                },
                {
                    "name": "C#5",
                    "midi": 73,
                    "time": 611.7146175000008,
                    "velocity": 0.41732283464566927,
                    "duration": 0.23618324999995366
                },
                {
                    "name": "G#4",
                    "midi": 68,
                    "time": 611.7146175000008,
                    "velocity": 0.41732283464566927,
                    "duration": 0.4723664999999073
                },
                {
                    "name": "B4",
                    "midi": 71,
                    "time": 611.9508007500008,
                    "velocity": 0.3937007874015748,
                    "duration": 0.23618324999995366
                },
                {
                    "name": "E4",
                    "midi": 64,
                    "time": 612.1869840000007,
                    "velocity": 0.3543307086614173,
                    "duration": 1.8894659999998566
                },
                {
                    "name": "G#4",
                    "midi": 68,
                    "time": 612.1869840000007,
                    "velocity": 0.3543307086614173,
                    "duration": 0.944733000000042
                },
                {
                    "name": "B4",
                    "midi": 71,
                    "time": 612.1869840000007,
                    "velocity": 0.41732283464566927,
                    "duration": 0.944733000000042
                },
                {
                    "name": "A4",
                    "midi": 69,
                    "time": 613.1317170000008,
                    "velocity": 0.36220472440944884,
                    "duration": 0.23618324999995366
                },
                {
                    "name": "B4",
                    "midi": 71,
                    "time": 613.3679002500007,
                    "velocity": 0.33858267716535434,
                    "duration": 0.07872774999998455
                },
                {
                    "name": "A4",
                    "midi": 69,
                    "time": 613.4466280000007,
                    "velocity": 0.3543307086614173,
                    "duration": 0.07872774999998455
                },
                {
                    "name": "G#4",
                    "midi": 68,
                    "time": 613.5253557500007,
                    "velocity": 0.36220472440944884,
                    "duration": 0.07872774999998455
                },
                {
                    "name": "A4",
                    "midi": 69,
                    "time": 613.6040835000007,
                    "velocity": 0.4094488188976378,
                    "duration": 0.23618324999995366
                },
                {
                    "name": "B4",
                    "midi": 71,
                    "time": 613.8402667500006,
                    "velocity": 0.4251968503937008,
                    "duration": 0.23618324999995366
                },
                {
                    "name": "C#5",
                    "midi": 73,
                    "time": 614.0764500000006,
                    "velocity": 0.4330708661417323,
                    "duration": 0.23618324999995366
                },
                {
                    "name": "D5",
                    "midi": 74,
                    "time": 614.3126332500005,
                    "velocity": 0.31496062992125984,
                    "duration": 0.07872774999998455
                },
                {
                    "name": "C#5",
                    "midi": 73,
                    "time": 614.3913610000005,
                    "velocity": 0.31496062992125984,
                    "duration": 0.07872774999998455
                },
                {
                    "name": "B4",
                    "midi": 71,
                    "time": 614.4700887500005,
                    "velocity": 0.31496062992125984,
                    "duration": 0.07872774999998455
                },
                {
                    "name": "C#5",
                    "midi": 73,
                    "time": 614.5488165000005,
                    "velocity": 0.4015748031496063,
                    "duration": 0.23618324999995366
                },
                {
                    "name": "D5",
                    "midi": 74,
                    "time": 614.7849997500005,
                    "velocity": 0.4094488188976378,
                    "duration": 0.23618324999995366
                },
                {
                    "name": "E5",
                    "midi": 76,
                    "time": 615.0211830000004,
                    "velocity": 0.44881889763779526,
                    "duration": 0.7085497499999747
                },
                {
                    "name": "F#5",
                    "midi": 78,
                    "time": 615.7297327500004,
                    "velocity": 0.3700787401574803,
                    "duration": 0.11809162500003367
                },
                {
                    "name": "E5",
                    "midi": 76,
                    "time": 615.8478243750004,
                    "velocity": 0.3700787401574803,
                    "duration": 0.11809162500003367
                },
                {
                    "name": "D5",
                    "midi": 74,
                    "time": 615.9659160000004,
                    "velocity": 0.4566929133858268,
                    "duration": 0.472366500000021
                },
                {
                    "name": "C#5",
                    "midi": 73,
                    "time": 616.4382825000005,
                    "velocity": 0.41732283464566927,
                    "duration": 0.472366500000021
                },
                {
                    "name": "B4",
                    "midi": 71,
                    "time": 616.9106490000005,
                    "velocity": 0.44881889763779526,
                    "duration": 0.472366500000021
                },
                {
                    "name": "A4",
                    "midi": 69,
                    "time": 617.3830155000005,
                    "velocity": 0.4094488188976378,
                    "duration": 0.472366500000021
                },
                {
                    "name": "A4",
                    "midi": 69,
                    "time": 617.8553820000005,
                    "velocity": 0.5039370078740157,
                    "duration": 0.7085497499999747
                },
                {
                    "name": "F#5",
                    "midi": 78,
                    "time": 618.5639317500005,
                    "velocity": 0.44881889763779526,
                    "duration": 0.23618324999995366
                },
                {
                    "name": "F#5",
                    "midi": 78,
                    "time": 618.8001150000005,
                    "velocity": 0.48031496062992124,
                    "duration": 0.944733000000042
                },
                {
                    "name": "D4",
                    "midi": 62,
                    "time": 619.7448480000005,
                    "velocity": 0.5354330708661418,
                    "duration": 1.062824624999962
                },
                {
                    "name": "F#4",
                    "midi": 66,
                    "time": 620.8076726250005,
                    "velocity": 0.3464566929133858,
                    "duration": 0.11809162500003367
                },
                {
                    "name": "E4",
                    "midi": 64,
                    "time": 620.9257642500005,
                    "velocity": 0.3543307086614173,
                    "duration": 0.11809162500003367
                },
                {
                    "name": "D4",
                    "midi": 62,
                    "time": 621.0438558750005,
                    "velocity": 0.36220472440944884,
                    "duration": 0.11809162500003367
                },
                {
                    "name": "E4",
                    "midi": 64,
                    "time": 621.1619475000006,
                    "velocity": 0.3700787401574803,
                    "duration": 0.11809162500003367
                },
                {
                    "name": "F#4",
                    "midi": 66,
                    "time": 621.2800391250006,
                    "velocity": 0.3779527559055118,
                    "duration": 0.11809162500003367
                },
                {
                    "name": "G4",
                    "midi": 67,
                    "time": 621.3981307500006,
                    "velocity": 0.3858267716535433,
                    "duration": 0.11809162500003367
                },
                {
                    "name": "A4",
                    "midi": 69,
                    "time": 621.5162223750007,
                    "velocity": 0.3937007874015748,
                    "duration": 0.11809162500003367
                },
                {
                    "name": "B4",
                    "midi": 71,
                    "time": 621.6343140000007,
                    "velocity": 0.4015748031496063,
                    "duration": 0.11809162500003367
                },
                {
                    "name": "C#5",
                    "midi": 73,
                    "time": 621.7524056250007,
                    "velocity": 0.4094488188976378,
                    "duration": 0.11809162500003367
                },
                {
                    "name": "D5",
                    "midi": 74,
                    "time": 621.8704972500008,
                    "velocity": 0.41732283464566927,
                    "duration": 0.11809162500003367
                },
                {
                    "name": "E5",
                    "midi": 76,
                    "time": 621.9885888750008,
                    "velocity": 0.4251968503937008,
                    "duration": 0.11809162500003367
                },
                {
                    "name": "F#5",
                    "midi": 78,
                    "time": 622.1066805000008,
                    "velocity": 0.4330708661417323,
                    "duration": 0.1574554999999691
                },
                {
                    "name": "G5",
                    "midi": 79,
                    "time": 622.2641360000008,
                    "velocity": 0.4409448818897638,
                    "duration": 0.11809162500003367
                },
                {
                    "name": "A5",
                    "midi": 81,
                    "time": 622.4215915000009,
                    "velocity": 0.44881889763779526,
                    "duration": 0.11809162500003367
                },
                {
                    "name": "B5",
                    "midi": 83,
                    "time": 622.579047000001,
                    "velocity": 0.4881889763779528,
                    "duration": 0.1771374375000505
                },
                {
                    "name": "C#6",
                    "midi": 85,
                    "time": 622.815230250001,
                    "velocity": 0.5354330708661418,
                    "duration": 0.1771374375000505
                },
                {
                    "name": "D6",
                    "midi": 86,
                    "time": 623.0514135000011,
                    "velocity": 0.5905511811023622,
                    "duration": 0.35427487499998733
                },
                {
                    "name": "F#5",
                    "midi": 78,
                    "time": 623.4056883750011,
                    "velocity": 0.48031496062992124,
                    "duration": 0.11809162500003367
                },
                {
                    "name": "A5",
                    "midi": 81,
                    "time": 623.5237800000011,
                    "velocity": 0.5354330708661418,
                    "duration": 0.7085497499999747
                },
                {
                    "name": "F#5",
                    "midi": 78,
                    "time": 624.2323297500011,
                    "velocity": 0.47244094488188976,
                    "duration": 0.23618324999995366
                },
                {
                    "name": "E5",
                    "midi": 76,
                    "time": 624.468513000001,
                    "velocity": 0.5118110236220472,
                    "duration": 0.42512984999996206
                },
                {
                    "name": "E5",
                    "midi": 76,
                    "time": 624.940879500001,
                    "velocity": 0.44881889763779526,
                    "duration": 0.42512984999996206
                },
                {
                    "name": "E5",
                    "midi": 76,
                    "time": 625.4132460000009,
                    "velocity": 0.44881889763779526,
                    "duration": 0.42512984999996206
                },
                {
                    "name": "E5",
                    "midi": 76,
                    "time": 625.8856125000008,
                    "velocity": 0.44881889763779526,
                    "duration": 0.42512984999996206
                },
                {
                    "name": "F#5",
                    "midi": 78,
                    "time": 626.3579790000007,
                    "velocity": 0.4645669291338583,
                    "duration": 0.23618324999995366
                },
                {
                    "name": "E5",
                    "midi": 76,
                    "time": 626.5941622500006,
                    "velocity": 0.3700787401574803,
                    "duration": 0.23618324999995366
                },
                {
                    "name": "C#5",
                    "midi": 73,
                    "time": 626.8303455000006,
                    "velocity": 0.3700787401574803,
                    "duration": 0.23618324999995366
                },
                {
                    "name": "B4",
                    "midi": 71,
                    "time": 627.0665287500005,
                    "velocity": 0.3700787401574803,
                    "duration": 0.23618324999995366
                },
                {
                    "name": "A4",
                    "midi": 69,
                    "time": 627.3027120000005,
                    "velocity": 0.41732283464566927,
                    "duration": 0.472366500000021
                },
                {
                    "name": "E5",
                    "midi": 76,
                    "time": 627.7750785000005,
                    "velocity": 0.3700787401574803,
                    "duration": 0.42512984999996206
                },
                {
                    "name": "E5",
                    "midi": 76,
                    "time": 628.2474450000004,
                    "velocity": 0.3700787401574803,
                    "duration": 0.42512984999996206
                },
                {
                    "name": "E5",
                    "midi": 76,
                    "time": 628.7198115000003,
                    "velocity": 0.3700787401574803,
                    "duration": 0.42512984999996206
                },
                {
                    "name": "F#5",
                    "midi": 78,
                    "time": 629.1921780000002,
                    "velocity": 0.4566929133858268,
                    "duration": 0.23618324999995366
                },
                {
                    "name": "E5",
                    "midi": 76,
                    "time": 629.4283612500002,
                    "velocity": 0.3779527559055118,
                    "duration": 0.23618324999995366
                },
                {
                    "name": "D5",
                    "midi": 74,
                    "time": 629.6645445000001,
                    "velocity": 0.3779527559055118,
                    "duration": 0.23618324999995366
                },
                {
                    "name": "B4",
                    "midi": 71,
                    "time": 629.9007277500001,
                    "velocity": 0.3779527559055118,
                    "duration": 0.23618324999995366
                },
                {
                    "name": "G#4",
                    "midi": 68,
                    "time": 630.136911,
                    "velocity": 0.4094488188976378,
                    "duration": 0.472366500000021
                },
                {
                    "name": "E5",
                    "midi": 76,
                    "time": 630.6092775000001,
                    "velocity": 0.3858267716535433,
                    "duration": 0.42512984999996206
                },
                {
                    "name": "E5",
                    "midi": 76,
                    "time": 631.081644,
                    "velocity": 0.4015748031496063,
                    "duration": 0.42512984999996206
                },
                {
                    "name": "E5",
                    "midi": 76,
                    "time": 631.5540104999999,
                    "velocity": 0.41732283464566927,
                    "duration": 0.42512984999996206
                },
                {
                    "name": "F#5",
                    "midi": 78,
                    "time": 632.0263769999998,
                    "velocity": 0.5118110236220472,
                    "duration": 0.23618324999995366
                },
                {
                    "name": "E5",
                    "midi": 76,
                    "time": 632.2625602499998,
                    "velocity": 0.4330708661417323,
                    "duration": 0.23618324999995366
                },
                {
                    "name": "C#5",
                    "midi": 73,
                    "time": 632.4987434999997,
                    "velocity": 0.4566929133858268,
                    "duration": 0.23618324999995366
                },
                {
                    "name": "A4",
                    "midi": 69,
                    "time": 632.7349267499997,
                    "velocity": 0.4330708661417323,
                    "duration": 0.23618324999995366
                },
                {
                    "name": "F#5",
                    "midi": 78,
                    "time": 632.9711099999996,
                    "velocity": 0.5354330708661418,
                    "duration": 0.23618324999995366
                },
                {
                    "name": "E5",
                    "midi": 76,
                    "time": 633.2072932499996,
                    "velocity": 0.44881889763779526,
                    "duration": 0.23618324999995366
                },
                {
                    "name": "D5",
                    "midi": 74,
                    "time": 633.4434764999995,
                    "velocity": 0.4645669291338583,
                    "duration": 0.23618324999995366
                },
                {
                    "name": "B4",
                    "midi": 71,
                    "time": 633.6796597499995,
                    "velocity": 0.44881889763779526,
                    "duration": 0.23618324999995366
                },
                {
                    "name": "F#5",
                    "midi": 78,
                    "time": 633.9158429999994,
                    "velocity": 0.5511811023622047,
                    "duration": 0.23618324999995366
                },
                {
                    "name": "E5",
                    "midi": 76,
                    "time": 634.1520262499994,
                    "velocity": 0.44881889763779526,
                    "duration": 0.23618324999995366
                },
                {
                    "name": "C#5",
                    "midi": 73,
                    "time": 634.3882094999993,
                    "velocity": 0.47244094488188976,
                    "duration": 0.23618324999995366
                },
                {
                    "name": "A4",
                    "midi": 69,
                    "time": 634.6243927499993,
                    "velocity": 0.44881889763779526,
                    "duration": 0.23618324999995366
                },
                {
                    "name": "C#5",
                    "midi": 73,
                    "time": 634.8605759999992,
                    "velocity": 0.5590551181102362,
                    "duration": 0.944733000000042
                },
                {
                    "name": "B4",
                    "midi": 71,
                    "time": 635.8053089999993,
                    "velocity": 0.48031496062992124,
                    "duration": 0.23618324999995366
                },
                {
                    "name": "E4",
                    "midi": 64,
                    "time": 636.0414922499992,
                    "velocity": 0.33858267716535434,
                    "duration": 0.23618324999995366
                },
                {
                    "name": "E5",
                    "midi": 76,
                    "time": 636.2776754999992,
                    "velocity": 0.41732283464566927,
                    "duration": 0.23618324999995366
                },
                {
                    "name": "E4",
                    "midi": 64,
                    "time": 636.5138587499991,
                    "velocity": 0.33858267716535434,
                    "duration": 0.23618324999995366
                },
                {
                    "name": "D#5",
                    "midi": 75,
                    "time": 636.7500419999991,
                    "velocity": 0.4015748031496063,
                    "duration": 0.23618324999995366
                },
                {
                    "name": "E4",
                    "midi": 64,
                    "time": 636.986225249999,
                    "velocity": 0.33858267716535434,
                    "duration": 0.23618324999995366
                },
                {
                    "name": "D5",
                    "midi": 74,
                    "time": 637.222408499999,
                    "velocity": 0.4094488188976378,
                    "duration": 0.23618324999995366
                },
                {
                    "name": "E4",
                    "midi": 64,
                    "time": 637.458591749999,
                    "velocity": 0.33070866141732286,
                    "duration": 0.23618324999995366
                },
                {
                    "name": "C#5",
                    "midi": 73,
                    "time": 637.6947749999989,
                    "velocity": 0.4330708661417323,
                    "duration": 0.944733000000042
                },
                {
                    "name": "C#5",
                    "midi": 73,
                    "time": 638.639507999999,
                    "velocity": 0.4015748031496063,
                    "duration": 1.1809162499999957
                },
                {
                    "name": "D5",
                    "midi": 74,
                    "time": 639.820424249999,
                    "velocity": 0.3779527559055118,
                    "duration": 0.07872774999998455
                },
                {
                    "name": "C#5",
                    "midi": 73,
                    "time": 639.8991519999989,
                    "velocity": 0.3700787401574803,
                    "duration": 0.07872774999998455
                },
                {
                    "name": "B4",
                    "midi": 71,
                    "time": 639.9778797499989,
                    "velocity": 0.3700787401574803,
                    "duration": 0.07872774999998455
                },
                {
                    "name": "C#5",
                    "midi": 73,
                    "time": 640.0566074999989,
                    "velocity": 0.3700787401574803,
                    "duration": 0.23618324999995366
                },
                {
                    "name": "D5",
                    "midi": 74,
                    "time": 640.2927907499989,
                    "velocity": 0.4015748031496063,
                    "duration": 0.23618324999995366
                },
                {
                    "name": "F#5",
                    "midi": 78,
                    "time": 640.5289739999988,
                    "velocity": 0.4251968503937008,
                    "duration": 0.472366500000021
                },
                {
                    "name": "E5",
                    "midi": 76,
                    "time": 641.0013404999988,
                    "velocity": 0.4015748031496063,
                    "duration": 0.23618324999995366
                },
                {
                    "name": "D#6",
                    "midi": 87,
                    "time": 641.4737069999987,
                    "velocity": 0.4881889763779528,
                    "duration": 0.472366500000021
                },
                {
                    "name": "E6",
                    "midi": 88,
                    "time": 641.9460734999988,
                    "velocity": 0.44881889763779526,
                    "duration": 0.23618324999995366
                },
                {
                    "name": "E5",
                    "midi": 76,
                    "time": 642.3003483749987,
                    "velocity": 0.4015748031496063,
                    "duration": 0.11809162500003367
                },
                {
                    "name": "F#5",
                    "midi": 78,
                    "time": 642.4184399999988,
                    "velocity": 0.44881889763779526,
                    "duration": 0.23618324999995366
                },
                {
                    "name": "E5",
                    "midi": 76,
                    "time": 642.6546232499987,
                    "velocity": 0.4015748031496063,
                    "duration": 0.23618324999995366
                },
                {
                    "name": "D5",
                    "midi": 74,
                    "time": 642.8908064999987,
                    "velocity": 0.4015748031496063,
                    "duration": 0.23618324999995366
                },
                {
                    "name": "C#5",
                    "midi": 73,
                    "time": 643.1269897499986,
                    "velocity": 0.4015748031496063,
                    "duration": 0.23618324999995366
                },
                {
                    "name": "C#5",
                    "midi": 73,
                    "time": 643.3631729999986,
                    "velocity": 0.4330708661417323,
                    "duration": 0.472366500000021
                },
                {
                    "name": "B4",
                    "midi": 71,
                    "time": 643.8355394999986,
                    "velocity": 0.4330708661417323,
                    "duration": 0.944733000000042
                },
                {
                    "name": "B4",
                    "midi": 71,
                    "time": 644.7802724999987,
                    "velocity": 0.4015748031496063,
                    "duration": 0.8660052499999438
                },
                {
                    "name": "C#5",
                    "midi": 73,
                    "time": 645.4888222499986,
                    "velocity": 0.3700787401574803,
                    "duration": 0.07872774999998455
                },
                {
                    "name": "B4",
                    "midi": 71,
                    "time": 645.5675499999986,
                    "velocity": 0.3700787401574803,
                    "duration": 0.1574554999999691
                },
                {
                    "name": "A#4",
                    "midi": 70,
                    "time": 645.6462777499986,
                    "velocity": 0.3700787401574803,
                    "duration": 0.07872774999998455
                },
                {
                    "name": "B4",
                    "midi": 71,
                    "time": 645.7250054999986,
                    "velocity": 0.4015748031496063,
                    "duration": 0.23618324999995366
                },
                {
                    "name": "C#5",
                    "midi": 73,
                    "time": 645.9611887499985,
                    "velocity": 0.4015748031496063,
                    "duration": 0.23618324999995366
                },
                {
                    "name": "E5",
                    "midi": 76,
                    "time": 646.1973719999985,
                    "velocity": 0.4251968503937008,
                    "duration": 0.472366500000021
                },
                {
                    "name": "D5",
                    "midi": 74,
                    "time": 646.6697384999985,
                    "velocity": 0.4015748031496063,
                    "duration": 0.23618324999995366
                },
                {
                    "name": "C#6",
                    "midi": 85,
                    "time": 647.1421049999984,
                    "velocity": 0.47244094488188976,
                    "duration": 0.472366500000021
                },
                {
                    "name": "D6",
                    "midi": 86,
                    "time": 647.6144714999984,
                    "velocity": 0.44881889763779526,
                    "duration": 0.23618324999995366
                },
                {
                    "name": "D5",
                    "midi": 74,
                    "time": 647.9687463749984,
                    "velocity": 0.4015748031496063,
                    "duration": 0.11809162500003367
                },
                {
                    "name": "E5",
                    "midi": 76,
                    "time": 648.0868379999985,
                    "velocity": 0.44881889763779526,
                    "duration": 0.23618324999995366
                },
                {
                    "name": "D5",
                    "midi": 74,
                    "time": 648.3230212499984,
                    "velocity": 0.4015748031496063,
                    "duration": 0.23618324999995366
                },
                {
                    "name": "C#5",
                    "midi": 73,
                    "time": 648.5592044999984,
                    "velocity": 0.4015748031496063,
                    "duration": 0.23618324999995366
                },
                {
                    "name": "B4",
                    "midi": 71,
                    "time": 648.7953877499983,
                    "velocity": 0.4015748031496063,
                    "duration": 0.2204377000000477
                },
                {
                    "name": "B4",
                    "midi": 71,
                    "time": 649.0315709999984,
                    "velocity": 0.44881889763779526,
                    "duration": 0.472366500000021
                },
                {
                    "name": "A4",
                    "midi": 69,
                    "time": 649.5039374999984,
                    "velocity": 0.4251968503937008,
                    "duration": 0.7085497499999747
                },
                {
                    "name": "A4",
                    "midi": 69,
                    "time": 650.2124872499984,
                    "velocity": 0.44881889763779526,
                    "duration": 0.23618324999995366
                },
                {
                    "name": "D5",
                    "midi": 74,
                    "time": 650.4486704999983,
                    "velocity": 0.48031496062992124,
                    "duration": 0.23618324999995366
                },
                {
                    "name": "C#5",
                    "midi": 73,
                    "time": 650.6848537499983,
                    "velocity": 0.44881889763779526,
                    "duration": 0.23618324999995366
                },
                {
                    "name": "A#4",
                    "midi": 70,
                    "time": 650.9210369999983,
                    "velocity": 0.48031496062992124,
                    "duration": 0.23618324999995366
                },
                {
                    "name": "B4",
                    "midi": 71,
                    "time": 651.1572202499982,
                    "velocity": 0.44881889763779526,
                    "duration": 0.23618324999995366
                },
                {
                    "name": "E5",
                    "midi": 76,
                    "time": 651.3934034999982,
                    "velocity": 0.44881889763779526,
                    "duration": 0.23618324999995366
                },
                {
                    "name": "D5",
                    "midi": 74,
                    "time": 651.6295867499981,
                    "velocity": 0.44881889763779526,
                    "duration": 0.23618324999995366
                },
                {
                    "name": "C5",
                    "midi": 72,
                    "time": 651.8657699999981,
                    "velocity": 0.47244094488188976,
                    "duration": 0.23618324999995366
                },
                {
                    "name": "C#5",
                    "midi": 73,
                    "time": 652.101953249998,
                    "velocity": 0.44881889763779526,
                    "duration": 0.23618324999995366
                },
                {
                    "name": "A5",
                    "midi": 81,
                    "time": 652.338136499998,
                    "velocity": 0.47244094488188976,
                    "duration": 0.21256492500003787
                },
                {
                    "name": "A5",
                    "midi": 81,
                    "time": 652.574319749998,
                    "velocity": 0.48031496062992124,
                    "duration": 0.21256492500003787
                },
                {
                    "name": "A5",
                    "midi": 81,
                    "time": 652.8105029999981,
                    "velocity": 0.4881889763779528,
                    "duration": 0.21256492500003787
                },
                {
                    "name": "A5",
                    "midi": 81,
                    "time": 653.0466862499982,
                    "velocity": 0.5039370078740157,
                    "duration": 0.21256492500003787
                },
                {
                    "name": "A5",
                    "midi": 81,
                    "time": 653.2828694999982,
                    "velocity": 0.5196850393700787,
                    "duration": 0.21256492500003787
                },
                {
                    "name": "A5",
                    "midi": 81,
                    "time": 653.5190527499983,
                    "velocity": 0.5354330708661418,
                    "duration": 0.21256492500003787
                },
                {
                    "name": "A5",
                    "midi": 81,
                    "time": 653.7552359999984,
                    "velocity": 0.5433070866141733,
                    "duration": 0.23618324999995366
                },
                {
                    "name": "F#5",
                    "midi": 78,
                    "time": 653.9914192499983,
                    "velocity": 0.4645669291338583,
                    "duration": 0.23618324999995366
                },
                {
                    "name": "D5",
                    "midi": 74,
                    "time": 654.2276024999983,
                    "velocity": 0.4881889763779528,
                    "duration": 0.23618324999995366
                },
                {
                    "name": "B4",
                    "midi": 71,
                    "time": 654.4637857499982,
                    "velocity": 0.4645669291338583,
                    "duration": 0.23618324999995366
                },
                {
                    "name": "E5",
                    "midi": 76,
                    "time": 654.6999689999982,
                    "velocity": 0.5039370078740157,
                    "duration": 0.23618324999995366
                },
                {
                    "name": "F#5",
                    "midi": 78,
                    "time": 654.9361522499981,
                    "velocity": 0.4645669291338583,
                    "duration": 0.07872774999998455
                },
                {
                    "name": "E5",
                    "midi": 76,
                    "time": 655.0148799999981,
                    "velocity": 0.4645669291338583,
                    "duration": 0.07872774999998455
                },
                {
                    "name": "D#5",
                    "midi": 75,
                    "time": 655.0936077499981,
                    "velocity": 0.4645669291338583,
                    "duration": 0.07872774999998455
                },
                {
                    "name": "E5",
                    "midi": 76,
                    "time": 655.1723354999981,
                    "velocity": 0.5039370078740157,
                    "duration": 0.23618324999995366
                },
                {
                    "name": "F#5",
                    "midi": 78,
                    "time": 655.408518749998,
                    "velocity": 0.48031496062992124,
                    "duration": 0.23618324999995366
                },
                {
                    "name": "A4",
                    "midi": 69,
                    "time": 655.644701999998,
                    "velocity": 0.5196850393700787,
                    "duration": 1.4170994999999493
                },
                {
                    "name": "B4",
                    "midi": 71,
                    "time": 657.061801499998,
                    "velocity": 0.3543307086614173,
                    "duration": 0.44874817499999153
                },
                {
                    "name": "G#4",
                    "midi": 68,
                    "time": 657.061801499998,
                    "velocity": 0.3543307086614173,
                    "duration": 0.44874817499999153
                },
                {
                    "name": "G#4",
                    "midi": 68,
                    "time": 657.534167999998,
                    "velocity": 0.4094488188976378,
                    "duration": 1.8894659999999703
                },
                {
                    "name": "B4",
                    "midi": 71,
                    "time": 657.534167999998,
                    "velocity": 0.4094488188976378,
                    "duration": 1.4170994999999493
                },
                {
                    "name": "C5",
                    "midi": 72,
                    "time": 658.9512674999979,
                    "velocity": 0.4015748031496063,
                    "duration": 0.472366500000021
                },
                {
                    "name": "C#5",
                    "midi": 73,
                    "time": 659.423633999998,
                    "velocity": 0.4015748031496063,
                    "duration": 0.8266413750000083
                },
                {
                    "name": "A4",
                    "midi": 69,
                    "time": 659.423633999998,
                    "velocity": 0.4015748031496063,
                    "duration": 0.8266413750000083
                },
                {
                    "name": "E4",
                    "midi": 64,
                    "time": 660.250275374998,
                    "velocity": 0.48031496062992124,
                    "duration": 0.05904581250001684
                },
                {
                    "name": "A4",
                    "midi": 69,
                    "time": 660.309321187498,
                    "velocity": 0.4881889763779528,
                    "duration": 0.05904581250001684
                },
                {
                    "name": "C#5",
                    "midi": 73,
                    "time": 660.368366999998,
                    "velocity": 0.5354330708661418,
                    "duration": 1.1021885000000111
                },
                {
                    "name": "E5",
                    "midi": 76,
                    "time": 661.470555499998,
                    "velocity": 0.49606299212598426,
                    "duration": 0.1574554999999691
                },
                {
                    "name": "D5",
                    "midi": 74,
                    "time": 661.628010999998,
                    "velocity": 0.49606299212598426,
                    "duration": 0.1574554999999691
                },
                {
                    "name": "C#5",
                    "midi": 73,
                    "time": 661.7854664999979,
                    "velocity": 0.5196850393700787,
                    "duration": 0.1574554999999691
                },
                {
                    "name": "D5",
                    "midi": 74,
                    "time": 661.9429219999979,
                    "velocity": 0.4881889763779528,
                    "duration": 0.1574554999999691
                },
                {
                    "name": "E5",
                    "midi": 76,
                    "time": 662.1003774999979,
                    "velocity": 0.4881889763779528,
                    "duration": 0.1574554999999691
                },
                {
                    "name": "D5",
                    "midi": 74,
                    "time": 662.2578329999978,
                    "velocity": 0.5196850393700787,
                    "duration": 0.1574554999999691
                },
                {
                    "name": "F#5",
                    "midi": 78,
                    "time": 662.4152884999978,
                    "velocity": 0.4881889763779528,
                    "duration": 0.1574554999999691
                },
                {
                    "name": "E5",
                    "midi": 76,
                    "time": 662.5727439999978,
                    "velocity": 0.4881889763779528,
                    "duration": 0.1574554999999691
                },
                {
                    "name": "D5",
                    "midi": 74,
                    "time": 662.7301994999978,
                    "velocity": 0.5196850393700787,
                    "duration": 0.1574554999999691
                },
                {
                    "name": "E5",
                    "midi": 76,
                    "time": 662.8876549999977,
                    "velocity": 0.49606299212598426,
                    "duration": 0.1574554999999691
                },
                {
                    "name": "F#5",
                    "midi": 78,
                    "time": 663.0451104999977,
                    "velocity": 0.49606299212598426,
                    "duration": 0.1574554999999691
                },
                {
                    "name": "E5",
                    "midi": 76,
                    "time": 663.2025659999977,
                    "velocity": 0.4881889763779528,
                    "duration": 0.11809162500003367
                },
                {
                    "name": "A4",
                    "midi": 69,
                    "time": 663.3206576249977,
                    "velocity": 0.49606299212598426,
                    "duration": 0.11809162500003367
                },
                {
                    "name": "B4",
                    "midi": 71,
                    "time": 663.4387492499977,
                    "velocity": 0.5039370078740157,
                    "duration": 0.11809162500003367
                },
                {
                    "name": "C#5",
                    "midi": 73,
                    "time": 663.5568408749978,
                    "velocity": 0.5118110236220472,
                    "duration": 0.11809162500003367
                },
                {
                    "name": "D5",
                    "midi": 74,
                    "time": 663.6749324999978,
                    "velocity": 0.5118110236220472,
                    "duration": 0.11809162500003367
                },
                {
                    "name": "E5",
                    "midi": 76,
                    "time": 663.7930241249978,
                    "velocity": 0.5118110236220472,
                    "duration": 0.11809162500003367
                },
                {
                    "name": "F#5",
                    "midi": 78,
                    "time": 663.9111157499979,
                    "velocity": 0.5196850393700787,
                    "duration": 0.11809162500003367
                },
                {
                    "name": "G#5",
                    "midi": 80,
                    "time": 664.0292073749979,
                    "velocity": 0.5275590551181102,
                    "duration": 0.11809162500003367
                },
                {
                    "name": "A5",
                    "midi": 81,
                    "time": 664.1472989999979,
                    "velocity": 0.5354330708661418,
                    "duration": 0.11809162500003367
                },
                {
                    "name": "B5",
                    "midi": 83,
                    "time": 664.265390624998,
                    "velocity": 0.5433070866141733,
                    "duration": 0.11809162500003367
                },
                {
                    "name": "C#6",
                    "midi": 85,
                    "time": 664.383482249998,
                    "velocity": 0.5511811023622047,
                    "duration": 0.11809162500003367
                },
                {
                    "name": "B5",
                    "midi": 83,
                    "time": 664.501573874998,
                    "velocity": 0.5590551181102362,
                    "duration": 0.11809162500003367
                },
                {
                    "name": "A5",
                    "midi": 81,
                    "time": 664.6196654999981,
                    "velocity": 0.5590551181102362,
                    "duration": 0.11809162500003367
                },
                {
                    "name": "G#5",
                    "midi": 80,
                    "time": 664.7377571249981,
                    "velocity": 0.5511811023622047,
                    "duration": 0.11809162500003367
                },
                {
                    "name": "F#5",
                    "midi": 78,
                    "time": 664.8558487499981,
                    "velocity": 0.5511811023622047,
                    "duration": 0.11809162500003367
                },
                {
                    "name": "F5",
                    "midi": 77,
                    "time": 664.9739403749982,
                    "velocity": 0.5433070866141733,
                    "duration": 0.11809162500003367
                },
                {
                    "name": "F#5",
                    "midi": 78,
                    "time": 665.0920319999982,
                    "velocity": 0.5354330708661418,
                    "duration": 0.11809162500003367
                },
                {
                    "name": "G#5",
                    "midi": 80,
                    "time": 665.2101236249982,
                    "velocity": 0.5275590551181102,
                    "duration": 0.11809162500003367
                },
                {
                    "name": "A5",
                    "midi": 81,
                    "time": 665.3282152499983,
                    "velocity": 0.5118110236220472,
                    "duration": 0.11809162500003367
                },
                {
                    "name": "G#5",
                    "midi": 80,
                    "time": 665.4463068749983,
                    "velocity": 0.5039370078740157,
                    "duration": 0.11809162500003367
                },
                {
                    "name": "B5",
                    "midi": 83,
                    "time": 665.5643984999983,
                    "velocity": 0.4881889763779528,
                    "duration": 0.11809162500003367
                },
                {
                    "name": "A5",
                    "midi": 81,
                    "time": 665.6824901249984,
                    "velocity": 0.48031496062992124,
                    "duration": 0.11809162500003367
                },
                {
                    "name": "G#5",
                    "midi": 80,
                    "time": 665.8005817499984,
                    "velocity": 0.4645669291338583,
                    "duration": 0.11809162500003367
                },
                {
                    "name": "F#5",
                    "midi": 78,
                    "time": 665.9186733749984,
                    "velocity": 0.4566929133858268,
                    "duration": 0.11809162500003367
                },
                {
                    "name": "E5",
                    "midi": 76,
                    "time": 666.0367649999985,
                    "velocity": 0.4881889763779528,
                    "duration": 0.11809162500003367
                },
                {
                    "name": "E6",
                    "midi": 88,
                    "time": 666.2729482499985,
                    "velocity": 0.4094488188976378,
                    "duration": 0.23618324999995366
                },
                {
                    "name": "C#6",
                    "midi": 85,
                    "time": 666.5091314999985,
                    "velocity": 0.4094488188976378,
                    "duration": 0.23618324999995366
                },
                {
                    "name": "A5",
                    "midi": 81,
                    "time": 666.7453147499984,
                    "velocity": 0.47244094488188976,
                    "duration": 0.23618324999995366
                },
                {
                    "name": "E5",
                    "midi": 76,
                    "time": 666.9814979999984,
                    "velocity": 0.4094488188976378,
                    "duration": 0.11809162500003367
                },
                {
                    "name": "A5",
                    "midi": 81,
                    "time": 667.2176812499985,
                    "velocity": 0.4094488188976378,
                    "duration": 0.23618324999995366
                },
                {
                    "name": "E5",
                    "midi": 76,
                    "time": 667.4538644999984,
                    "velocity": 0.4015748031496063,
                    "duration": 0.23618324999995366
                },
                {
                    "name": "C#5",
                    "midi": 73,
                    "time": 667.6900477499984,
                    "velocity": 0.4015748031496063,
                    "duration": 0.23618324999995366
                },
                {
                    "name": "E5",
                    "midi": 76,
                    "time": 667.9262309999983,
                    "velocity": 0.44881889763779526,
                    "duration": 0.23618324999995366
                },
                {
                    "name": "D5",
                    "midi": 74,
                    "time": 668.1624142499983,
                    "velocity": 0.4015748031496063,
                    "duration": 0.23618324999995366
                },
                {
                    "name": "C#5",
                    "midi": 73,
                    "time": 668.3985974999982,
                    "velocity": 0.4015748031496063,
                    "duration": 0.23618324999995366
                },
                {
                    "name": "B4",
                    "midi": 71,
                    "time": 668.6347807499982,
                    "velocity": 0.4015748031496063,
                    "duration": 0.2224058937499649
                },
                {
                    "name": "G#4",
                    "midi": 68,
                    "time": 668.8709639999981,
                    "velocity": 0.4015748031496063,
                    "duration": 0.944733000000042
                },
                {
                    "name": "B4",
                    "midi": 71,
                    "time": 668.8709639999981,
                    "velocity": 0.4566929133858268,
                    "duration": 0.944733000000042
                },
                {
                    "name": "A4",
                    "midi": 69,
                    "time": 669.8156969999982,
                    "velocity": 0.4094488188976378,
                    "duration": 0.1574554999999691
                },
                {
                    "name": "E4",
                    "midi": 64,
                    "time": 669.9731524999982,
                    "velocity": 0.3543307086614173,
                    "duration": 0.11809162500003367
                },
                {
                    "name": "F#4",
                    "midi": 66,
                    "time": 670.1306079999982,
                    "velocity": 0.3543307086614173,
                    "duration": 0.11809162500003367
                },
                {
                    "name": "G4",
                    "midi": 67,
                    "time": 670.2880634999983,
                    "velocity": 0.3937007874015748,
                    "duration": 0.11809162500003367
                },
                {
                    "name": "G#4",
                    "midi": 68,
                    "time": 670.4455189999984,
                    "velocity": 0.3700787401574803,
                    "duration": 0.11809162500003367
                },
                {
                    "name": "A4",
                    "midi": 69,
                    "time": 670.6029744999985,
                    "velocity": 0.3700787401574803,
                    "duration": 0.11809162500003367
                },
                {
                    "name": "A#4",
                    "midi": 70,
                    "time": 670.7604299999986,
                    "velocity": 0.3858267716535433,
                    "duration": 0.11809162500003367
                },
                {
                    "name": "B4",
                    "midi": 71,
                    "time": 670.9178854999986,
                    "velocity": 0.3464566929133858,
                    "duration": 0.11809162500003367
                },
                {
                    "name": "C5",
                    "midi": 72,
                    "time": 671.0753409999987,
                    "velocity": 0.3464566929133858,
                    "duration": 0.11809162500003367
                },
                {
                    "name": "C#5",
                    "midi": 73,
                    "time": 671.2327964999988,
                    "velocity": 0.3779527559055118,
                    "duration": 0.11809162500003367
                },
                {
                    "name": "D5",
                    "midi": 74,
                    "time": 671.3902519999989,
                    "velocity": 0.3464566929133858,
                    "duration": 0.11809162500003367
                },
                {
                    "name": "D#5",
                    "midi": 75,
                    "time": 671.547707499999,
                    "velocity": 0.3464566929133858,
                    "duration": 0.11809162500003367
                },
                {
                    "name": "E5",
                    "midi": 76,
                    "time": 671.7051629999991,
                    "velocity": 0.44881889763779526,
                    "duration": 0.7085497499999747
                },
                {
                    "name": "F#5",
                    "midi": 78,
                    "time": 672.413712749999,
                    "velocity": 0.3700787401574803,
                    "duration": 0.11809162500003367
                },
                {
                    "name": "E5",
                    "midi": 76,
                    "time": 672.5318043749991,
                    "velocity": 0.3700787401574803,
                    "duration": 0.11809162500003367
                },
                {
                    "name": "D5",
                    "midi": 74,
                    "time": 672.6498959999991,
                    "velocity": 0.4566929133858268,
                    "duration": 0.472366500000021
                },
                {
                    "name": "C#5",
                    "midi": 73,
                    "time": 673.1222624999991,
                    "velocity": 0.41732283464566927,
                    "duration": 0.472366500000021
                },
                {
                    "name": "B4",
                    "midi": 71,
                    "time": 673.5946289999991,
                    "velocity": 0.44881889763779526,
                    "duration": 0.472366500000021
                },
                {
                    "name": "A4",
                    "midi": 69,
                    "time": 674.0669954999992,
                    "velocity": 0.4094488188976378,
                    "duration": 0.472366500000021
                },
                {
                    "name": "A4",
                    "midi": 69,
                    "time": 674.5393619999992,
                    "velocity": 0.48031496062992124,
                    "duration": 0.7085497499999747
                },
                {
                    "name": "F#5",
                    "midi": 78,
                    "time": 675.2479117499992,
                    "velocity": 0.4330708661417323,
                    "duration": 0.21453311874995507
                },
                {
                    "name": "F#5",
                    "midi": 78,
                    "time": 675.4840949999991,
                    "velocity": 0.4645669291338583,
                    "duration": 0.944733000000042
                },
                {
                    "name": "D4",
                    "midi": 62,
                    "time": 676.4288279999992,
                    "velocity": 0.5354330708661418,
                    "duration": 1.062824624999962
                },
                {
                    "name": "F#4",
                    "midi": 66,
                    "time": 677.4916526249991,
                    "velocity": 0.3464566929133858,
                    "duration": 0.11809162500003367
                },
                {
                    "name": "E4",
                    "midi": 64,
                    "time": 677.6097442499992,
                    "velocity": 0.3543307086614173,
                    "duration": 0.11809162500003367
                },
                {
                    "name": "D4",
                    "midi": 62,
                    "time": 677.7278358749992,
                    "velocity": 0.36220472440944884,
                    "duration": 0.11809162500003367
                },
                {
                    "name": "E4",
                    "midi": 64,
                    "time": 677.8459274999992,
                    "velocity": 0.3700787401574803,
                    "duration": 0.11809162500003367
                },
                {
                    "name": "F#4",
                    "midi": 66,
                    "time": 677.9640191249993,
                    "velocity": 0.3779527559055118,
                    "duration": 0.11809162500003367
                },
                {
                    "name": "G4",
                    "midi": 67,
                    "time": 678.0821107499993,
                    "velocity": 0.3858267716535433,
                    "duration": 0.11809162500003367
                },
                {
                    "name": "A4",
                    "midi": 69,
                    "time": 678.2002023749993,
                    "velocity": 0.3937007874015748,
                    "duration": 0.11809162500003367
                },
                {
                    "name": "B4",
                    "midi": 71,
                    "time": 678.3182939999994,
                    "velocity": 0.4015748031496063,
                    "duration": 0.11809162500003367
                },
                {
                    "name": "C#5",
                    "midi": 73,
                    "time": 678.4363856249994,
                    "velocity": 0.4094488188976378,
                    "duration": 0.11809162500003367
                },
                {
                    "name": "D5",
                    "midi": 74,
                    "time": 678.5544772499994,
                    "velocity": 0.41732283464566927,
                    "duration": 0.11809162500003367
                },
                {
                    "name": "E5",
                    "midi": 76,
                    "time": 678.6725688749995,
                    "velocity": 0.4251968503937008,
                    "duration": 0.11809162500003367
                },
                {
                    "name": "F#5",
                    "midi": 78,
                    "time": 678.7906604999995,
                    "velocity": 0.4330708661417323,
                    "duration": 0.1574554999999691
                },
                {
                    "name": "G5",
                    "midi": 79,
                    "time": 678.9481159999995,
                    "velocity": 0.4409448818897638,
                    "duration": 0.1574554999999691
                },
                {
                    "name": "A5",
                    "midi": 81,
                    "time": 679.1055714999994,
                    "velocity": 0.44881889763779526,
                    "duration": 0.1574554999999691
                },
                {
                    "name": "B5",
                    "midi": 83,
                    "time": 679.2630269999994,
                    "velocity": 0.4881889763779528,
                    "duration": 0.23618324999995366
                },
                {
                    "name": "C#6",
                    "midi": 85,
                    "time": 679.4992102499994,
                    "velocity": 0.5354330708661418,
                    "duration": 0.23618324999995366
                },
                {
                    "name": "D6",
                    "midi": 86,
                    "time": 679.7353934999993,
                    "velocity": 0.5905511811023622,
                    "duration": 0.35427487499998733
                },
                {
                    "name": "F#5",
                    "midi": 78,
                    "time": 680.0896683749993,
                    "velocity": 0.48031496062992124,
                    "duration": 0.11809162500003367
                },
                {
                    "name": "A5",
                    "midi": 81,
                    "time": 680.2077599999993,
                    "velocity": 0.5354330708661418,
                    "duration": 0.7085497499999747
                },
                {
                    "name": "F#5",
                    "midi": 78,
                    "time": 680.9163097499993,
                    "velocity": 0.47244094488188976,
                    "duration": 0.23618324999995366
                },
                {
                    "name": "E5",
                    "midi": 76,
                    "time": 681.1524929999993,
                    "velocity": 0.5118110236220472,
                    "duration": 0.44874817499999153
                },
                {
                    "name": "E5",
                    "midi": 76,
                    "time": 681.6248594999993,
                    "velocity": 0.44881889763779526,
                    "duration": 0.44874817499999153
                },
                {
                    "name": "E5",
                    "midi": 76,
                    "time": 682.0972259999993,
                    "velocity": 0.44881889763779526,
                    "duration": 0.44874817499999153
                },
                {
                    "name": "E5",
                    "midi": 76,
                    "time": 682.5695924999993,
                    "velocity": 0.44881889763779526,
                    "duration": 0.44874817499999153
                },
                {
                    "name": "F#5",
                    "midi": 78,
                    "time": 683.0419589999993,
                    "velocity": 0.47244094488188976,
                    "duration": 0.23618324999995366
                },
                {
                    "name": "E5",
                    "midi": 76,
                    "time": 683.2781422499993,
                    "velocity": 0.3937007874015748,
                    "duration": 0.23618324999995366
                },
                {
                    "name": "C#5",
                    "midi": 73,
                    "time": 683.5143254999992,
                    "velocity": 0.3937007874015748,
                    "duration": 0.23618324999995366
                },
                {
                    "name": "B4",
                    "midi": 71,
                    "time": 683.7505087499992,
                    "velocity": 0.3937007874015748,
                    "duration": 0.23618324999995366
                },
                {
                    "name": "A4",
                    "midi": 69,
                    "time": 683.9866919999992,
                    "velocity": 0.4330708661417323,
                    "duration": 0.472366500000021
                },
                {
                    "name": "E5",
                    "midi": 76,
                    "time": 684.4590584999992,
                    "velocity": 0.36220472440944884,
                    "duration": 0.44874817499999153
                },
                {
                    "name": "E5",
                    "midi": 76,
                    "time": 684.9314249999992,
                    "velocity": 0.36220472440944884,
                    "duration": 0.44874817499999153
                },
                {
                    "name": "E5",
                    "midi": 76,
                    "time": 685.4037914999992,
                    "velocity": 0.36220472440944884,
                    "duration": 0.44874817499999153
                },
                {
                    "name": "F#5",
                    "midi": 78,
                    "time": 685.8761579999992,
                    "velocity": 0.48031496062992124,
                    "duration": 0.23618324999995366
                },
                {
                    "name": "E5",
                    "midi": 76,
                    "time": 686.1123412499992,
                    "velocity": 0.4015748031496063,
                    "duration": 0.23618324999995366
                },
                {
                    "name": "D5",
                    "midi": 74,
                    "time": 686.3485244999991,
                    "velocity": 0.4015748031496063,
                    "duration": 0.23618324999995366
                },
                {
                    "name": "B4",
                    "midi": 71,
                    "time": 686.5847077499991,
                    "velocity": 0.4015748031496063,
                    "duration": 0.23618324999995366
                },
                {
                    "name": "G#4",
                    "midi": 68,
                    "time": 686.820890999999,
                    "velocity": 0.4251968503937008,
                    "duration": 0.472366500000021
                },
                {
                    "name": "E5",
                    "midi": 76,
                    "time": 687.2932574999991,
                    "velocity": 0.4094488188976378,
                    "duration": 0.44874817499999153
                },
                {
                    "name": "E5",
                    "midi": 76,
                    "time": 687.7656239999991,
                    "velocity": 0.41732283464566927,
                    "duration": 0.44874817499999153
                },
                {
                    "name": "E5",
                    "midi": 76,
                    "time": 688.2379904999991,
                    "velocity": 0.4330708661417323,
                    "duration": 0.44874817499999153
                },
                {
                    "name": "F#5",
                    "midi": 78,
                    "time": 688.7103569999991,
                    "velocity": 0.5118110236220472,
                    "duration": 0.23618324999995366
                },
                {
                    "name": "E5",
                    "midi": 76,
                    "time": 688.9465402499991,
                    "velocity": 0.4330708661417323,
                    "duration": 0.23618324999995366
                },
                {
                    "name": "C#5",
                    "midi": 73,
                    "time": 689.182723499999,
                    "velocity": 0.4566929133858268,
                    "duration": 0.23618324999995366
                },
                {
                    "name": "A4",
                    "midi": 69,
                    "time": 689.418906749999,
                    "velocity": 0.4251968503937008,
                    "duration": 0.23618324999995366
                },
                {
                    "name": "F#5",
                    "midi": 78,
                    "time": 689.655089999999,
                    "velocity": 0.5354330708661418,
                    "duration": 0.23618324999995366
                },
                {
                    "name": "E5",
                    "midi": 76,
                    "time": 689.8912732499989,
                    "velocity": 0.4409448818897638,
                    "duration": 0.23618324999995366
                },
                {
                    "name": "D5",
                    "midi": 74,
                    "time": 690.1274564999989,
                    "velocity": 0.4645669291338583,
                    "duration": 0.23618324999995366
                },
                {
                    "name": "B4",
                    "midi": 71,
                    "time": 690.3636397499988,
                    "velocity": 0.4251968503937008,
                    "duration": 0.23618324999995366
                },
                {
                    "name": "F#5",
                    "midi": 78,
                    "time": 690.5998229999988,
                    "velocity": 0.5511811023622047,
                    "duration": 0.23618324999995366
                },
                {
                    "name": "E5",
                    "midi": 76,
                    "time": 690.8360062499987,
                    "velocity": 0.4409448818897638,
                    "duration": 0.23618324999995366
                },
                {
                    "name": "C#5",
                    "midi": 73,
                    "time": 691.0721894999987,
                    "velocity": 0.47244094488188976,
                    "duration": 0.23618324999995366
                },
                {
                    "name": "A4",
                    "midi": 69,
                    "time": 691.3083727499986,
                    "velocity": 0.4330708661417323,
                    "duration": 0.23618324999995366
                },
                {
                    "name": "C#5",
                    "midi": 73,
                    "time": 691.5445559999986,
                    "velocity": 0.5590551181102362,
                    "duration": 0.944733000000042
                },
                {
                    "name": "B4",
                    "midi": 71,
                    "time": 692.4892889999986,
                    "velocity": 0.48031496062992124,
                    "duration": 0.23618324999995366
                },
                {
                    "name": "E4",
                    "midi": 64,
                    "time": 692.7254722499986,
                    "velocity": 0.3464566929133858,
                    "duration": 0.23618324999995366
                },
                {
                    "name": "E5",
                    "midi": 76,
                    "time": 692.9616554999985,
                    "velocity": 0.41732283464566927,
                    "duration": 0.23618324999995366
                },
                {
                    "name": "E4",
                    "midi": 64,
                    "time": 693.1978387499985,
                    "velocity": 0.31496062992125984,
                    "duration": 0.23618324999995366
                },
                {
                    "name": "D#5",
                    "midi": 75,
                    "time": 693.4340219999984,
                    "velocity": 0.4015748031496063,
                    "duration": 0.23618324999995366
                },
                {
                    "name": "E4",
                    "midi": 64,
                    "time": 693.6702052499984,
                    "velocity": 0.30708661417322836,
                    "duration": 0.23618324999995366
                },
                {
                    "name": "D5",
                    "midi": 74,
                    "time": 693.9063884999983,
                    "velocity": 0.4094488188976378,
                    "duration": 0.23618324999995366
                },
                {
                    "name": "E4",
                    "midi": 64,
                    "time": 694.1425717499983,
                    "velocity": 0.31496062992125984,
                    "duration": 0.23618324999995366
                },
                {
                    "name": "C#5",
                    "midi": 73,
                    "time": 694.3787549999983,
                    "velocity": 0.4330708661417323,
                    "duration": 0.944733000000042
                },
                {
                    "name": "C#5",
                    "midi": 73,
                    "time": 695.3234879999983,
                    "velocity": 0.4015748031496063,
                    "duration": 1.1809162499999957
                },
                {
                    "name": "D5",
                    "midi": 74,
                    "time": 696.5044042499983,
                    "velocity": 0.3779527559055118,
                    "duration": 0.07872774999998455
                },
                {
                    "name": "C#5",
                    "midi": 73,
                    "time": 696.5831319999983,
                    "velocity": 0.3700787401574803,
                    "duration": 0.07872774999998455
                },
                {
                    "name": "B4",
                    "midi": 71,
                    "time": 696.6618597499983,
                    "velocity": 0.3700787401574803,
                    "duration": 0.07872774999998455
                },
                {
                    "name": "C#5",
                    "midi": 73,
                    "time": 696.7405874999982,
                    "velocity": 0.3700787401574803,
                    "duration": 0.23618324999995366
                },
                {
                    "name": "D5",
                    "midi": 74,
                    "time": 696.9767707499982,
                    "velocity": 0.4015748031496063,
                    "duration": 0.23618324999995366
                },
                {
                    "name": "F#5",
                    "midi": 78,
                    "time": 697.2129539999981,
                    "velocity": 0.4251968503937008,
                    "duration": 0.472366500000021
                },
                {
                    "name": "E5",
                    "midi": 76,
                    "time": 697.6853204999982,
                    "velocity": 0.4015748031496063,
                    "duration": 0.23618324999995366
                },
                {
                    "name": "D#6",
                    "midi": 87,
                    "time": 698.1576869999981,
                    "velocity": 0.48031496062992124,
                    "duration": 0.472366500000021
                },
                {
                    "name": "E6",
                    "midi": 88,
                    "time": 698.6300534999981,
                    "velocity": 0.44881889763779526,
                    "duration": 0.23618324999995366
                },
                {
                    "name": "E5",
                    "midi": 76,
                    "time": 698.9843283749981,
                    "velocity": 0.4015748031496063,
                    "duration": 0.11809162500003367
                },
                {
                    "name": "F#5",
                    "midi": 78,
                    "time": 699.1024199999981,
                    "velocity": 0.44881889763779526,
                    "duration": 0.23618324999995366
                },
                {
                    "name": "E5",
                    "midi": 76,
                    "time": 699.3386032499981,
                    "velocity": 0.4015748031496063,
                    "duration": 0.23618324999995366
                },
                {
                    "name": "D5",
                    "midi": 74,
                    "time": 699.574786499998,
                    "velocity": 0.4015748031496063,
                    "duration": 0.23618324999995366
                },
                {
                    "name": "C#5",
                    "midi": 73,
                    "time": 699.810969749998,
                    "velocity": 0.4015748031496063,
                    "duration": 0.2204377000000477
                },
                {
                    "name": "C#5",
                    "midi": 73,
                    "time": 700.047152999998,
                    "velocity": 0.4330708661417323,
                    "duration": 0.472366500000021
                },
                {
                    "name": "B4",
                    "midi": 71,
                    "time": 700.5195194999981,
                    "velocity": 0.4330708661417323,
                    "duration": 0.944733000000042
                },
                {
                    "name": "B4",
                    "midi": 71,
                    "time": 701.4642524999981,
                    "velocity": 0.4015748031496063,
                    "duration": 0.8660052499999438
                },
                {
                    "name": "C#5",
                    "midi": 73,
                    "time": 702.1728022499981,
                    "velocity": 0.3700787401574803,
                    "duration": 0.07872774999998455
                },
                {
                    "name": "B4",
                    "midi": 71,
                    "time": 702.2515299999981,
                    "velocity": 0.3700787401574803,
                    "duration": 0.1574554999999691
                },
                {
                    "name": "A#4",
                    "midi": 70,
                    "time": 702.330257749998,
                    "velocity": 0.3700787401574803,
                    "duration": 0.07872774999998455
                },
                {
                    "name": "B4",
                    "midi": 71,
                    "time": 702.408985499998,
                    "velocity": 0.4015748031496063,
                    "duration": 0.23618324999995366
                },
                {
                    "name": "C#5",
                    "midi": 73,
                    "time": 702.645168749998,
                    "velocity": 0.4015748031496063,
                    "duration": 0.23618324999995366
                },
                {
                    "name": "E5",
                    "midi": 76,
                    "time": 702.881351999998,
                    "velocity": 0.4251968503937008,
                    "duration": 0.472366500000021
                },
                {
                    "name": "D5",
                    "midi": 74,
                    "time": 703.353718499998,
                    "velocity": 0.4015748031496063,
                    "duration": 0.23618324999995366
                },
                {
                    "name": "C#6",
                    "midi": 85,
                    "time": 703.8260849999979,
                    "velocity": 0.47244094488188976,
                    "duration": 0.472366500000021
                },
                {
                    "name": "D6",
                    "midi": 86,
                    "time": 704.2984514999979,
                    "velocity": 0.44881889763779526,
                    "duration": 0.23618324999995366
                },
                {
                    "name": "D5",
                    "midi": 74,
                    "time": 704.6527263749979,
                    "velocity": 0.4015748031496063,
                    "duration": 0.11809162500003367
                },
                {
                    "name": "E5",
                    "midi": 76,
                    "time": 704.7708179999979,
                    "velocity": 0.44881889763779526,
                    "duration": 0.23618324999995366
                },
                {
                    "name": "D5",
                    "midi": 74,
                    "time": 705.0070012499979,
                    "velocity": 0.4015748031496063,
                    "duration": 0.23618324999995366
                },
                {
                    "name": "C#5",
                    "midi": 73,
                    "time": 705.2431844999978,
                    "velocity": 0.4015748031496063,
                    "duration": 0.23618324999995366
                },
                {
                    "name": "B4",
                    "midi": 71,
                    "time": 705.4793677499978,
                    "velocity": 0.4015748031496063,
                    "duration": 0.21256492500003787
                },
                {
                    "name": "B4",
                    "midi": 71,
                    "time": 705.7155509999978,
                    "velocity": 0.44881889763779526,
                    "duration": 0.472366500000021
                },
                {
                    "name": "A4",
                    "midi": 69,
                    "time": 706.1879174999979,
                    "velocity": 0.4251968503937008,
                    "duration": 0.7085497499999747
                },
                {
                    "name": "A4",
                    "midi": 69,
                    "time": 706.8964672499978,
                    "velocity": 0.44881889763779526,
                    "duration": 0.23618324999995366
                },
                {
                    "name": "D5",
                    "midi": 74,
                    "time": 707.1326504999978,
                    "velocity": 0.48031496062992124,
                    "duration": 0.23618324999995366
                },
                {
                    "name": "C#5",
                    "midi": 73,
                    "time": 707.3688337499977,
                    "velocity": 0.44881889763779526,
                    "duration": 0.23618324999995366
                },
                {
                    "name": "A#4",
                    "midi": 70,
                    "time": 707.6050169999977,
                    "velocity": 0.48031496062992124,
                    "duration": 0.23618324999995366
                },
                {
                    "name": "B4",
                    "midi": 71,
                    "time": 707.8412002499977,
                    "velocity": 0.44881889763779526,
                    "duration": 0.23618324999995366
                },
                {
                    "name": "E5",
                    "midi": 76,
                    "time": 708.0773834999976,
                    "velocity": 0.44881889763779526,
                    "duration": 0.23618324999995366
                },
                {
                    "name": "D5",
                    "midi": 74,
                    "time": 708.3135667499976,
                    "velocity": 0.44881889763779526,
                    "duration": 0.23618324999995366
                },
                {
                    "name": "C5",
                    "midi": 72,
                    "time": 708.5497499999975,
                    "velocity": 0.47244094488188976,
                    "duration": 0.23618324999995366
                },
                {
                    "name": "C#5",
                    "midi": 73,
                    "time": 708.7859332499975,
                    "velocity": 0.44881889763779526,
                    "duration": 0.23618324999995366
                },
                {
                    "name": "A5",
                    "midi": 81,
                    "time": 709.0221164999974,
                    "velocity": 0.47244094488188976,
                    "duration": 0.21256492500003787
                },
                {
                    "name": "A5",
                    "midi": 81,
                    "time": 709.2582997499975,
                    "velocity": 0.48031496062992124,
                    "duration": 0.21256492500003787
                },
                {
                    "name": "A5",
                    "midi": 81,
                    "time": 709.4944829999976,
                    "velocity": 0.4881889763779528,
                    "duration": 0.21256492500003787
                },
                {
                    "name": "A5",
                    "midi": 81,
                    "time": 709.7306662499976,
                    "velocity": 0.5039370078740157,
                    "duration": 0.21256492500003787
                },
                {
                    "name": "A5",
                    "midi": 81,
                    "time": 709.9668494999977,
                    "velocity": 0.5196850393700787,
                    "duration": 0.21256492500003787
                },
                {
                    "name": "A5",
                    "midi": 81,
                    "time": 710.2030327499978,
                    "velocity": 0.5354330708661418,
                    "duration": 0.21256492500003787
                },
                {
                    "name": "A5",
                    "midi": 81,
                    "time": 710.4392159999978,
                    "velocity": 0.5433070866141733,
                    "duration": 0.23618324999995366
                },
                {
                    "name": "F#5",
                    "midi": 78,
                    "time": 710.6753992499978,
                    "velocity": 0.44881889763779526,
                    "duration": 0.23618324999995366
                },
                {
                    "name": "D5",
                    "midi": 74,
                    "time": 710.9115824999977,
                    "velocity": 0.4881889763779528,
                    "duration": 0.23618324999995366
                },
                {
                    "name": "B4",
                    "midi": 71,
                    "time": 711.1477657499977,
                    "velocity": 0.4330708661417323,
                    "duration": 0.23618324999995366
                },
                {
                    "name": "E5",
                    "midi": 76,
                    "time": 711.3839489999976,
                    "velocity": 0.5039370078740157,
                    "duration": 0.23618324999995366
                },
                {
                    "name": "F#5",
                    "midi": 78,
                    "time": 711.6201322499976,
                    "velocity": 0.4645669291338583,
                    "duration": 0.07872774999998455
                },
                {
                    "name": "E5",
                    "midi": 76,
                    "time": 711.6988599999976,
                    "velocity": 0.4645669291338583,
                    "duration": 0.07872774999998455
                },
                {
                    "name": "D#5",
                    "midi": 75,
                    "time": 711.7775877499976,
                    "velocity": 0.4645669291338583,
                    "duration": 0.07872774999998455
                },
                {
                    "name": "E5",
                    "midi": 76,
                    "time": 711.8563154999975,
                    "velocity": 0.5039370078740157,
                    "duration": 0.23618324999995366
                },
                {
                    "name": "F#5",
                    "midi": 78,
                    "time": 712.0924987499975,
                    "velocity": 0.48031496062992124,
                    "duration": 0.23618324999995366
                },
                {
                    "name": "A4",
                    "midi": 69,
                    "time": 712.3286819999975,
                    "velocity": 0.5196850393700787,
                    "duration": 1.4170994999999493
                },
                {
                    "name": "G#4",
                    "midi": 68,
                    "time": 713.7457814999974,
                    "velocity": 0.3543307086614173,
                    "duration": 0.44874817499999153
                },
                {
                    "name": "B4",
                    "midi": 71,
                    "time": 713.7457814999974,
                    "velocity": 0.3543307086614173,
                    "duration": 0.44874817499999153
                },
                {
                    "name": "B4",
                    "midi": 71,
                    "time": 714.2181479999974,
                    "velocity": 0.4094488188976378,
                    "duration": 1.4170994999999493
                },
                {
                    "name": "G#4",
                    "midi": 68,
                    "time": 714.2181479999974,
                    "velocity": 0.4094488188976378,
                    "duration": 1.8894659999999703
                },
                {
                    "name": "C5",
                    "midi": 72,
                    "time": 715.6352474999974,
                    "velocity": 0.4015748031496063,
                    "duration": 0.472366500000021
                },
                {
                    "name": "A4",
                    "midi": 69,
                    "time": 716.1076139999974,
                    "velocity": 0.4015748031496063,
                    "duration": 0.8266413750000083
                },
                {
                    "name": "C#5",
                    "midi": 73,
                    "time": 716.1076139999974,
                    "velocity": 0.4015748031496063,
                    "duration": 0.8266413750000083
                },
                {
                    "name": "E4",
                    "midi": 64,
                    "time": 716.9342553749974,
                    "velocity": 0.48031496062992124,
                    "duration": 0.05904581250001684
                },
                {
                    "name": "A4",
                    "midi": 69,
                    "time": 716.9933011874974,
                    "velocity": 0.4881889763779528,
                    "duration": 0.05904581250001684
                },
                {
                    "name": "C#5",
                    "midi": 73,
                    "time": 717.0523469999974,
                    "velocity": 0.5354330708661418,
                    "duration": 1.1021885000000111
                },
                {
                    "name": "E5",
                    "midi": 76,
                    "time": 718.1545354999975,
                    "velocity": 0.49606299212598426,
                    "duration": 0.1574554999999691
                },
                {
                    "name": "D5",
                    "midi": 74,
                    "time": 718.3119909999974,
                    "velocity": 0.49606299212598426,
                    "duration": 0.1574554999999691
                },
                {
                    "name": "C#5",
                    "midi": 73,
                    "time": 718.4694464999974,
                    "velocity": 0.5196850393700787,
                    "duration": 0.1574554999999691
                },
                {
                    "name": "D5",
                    "midi": 74,
                    "time": 718.6269019999974,
                    "velocity": 0.4881889763779528,
                    "duration": 0.1574554999999691
                },
                {
                    "name": "E5",
                    "midi": 76,
                    "time": 718.7843574999973,
                    "velocity": 0.4881889763779528,
                    "duration": 0.1574554999999691
                },
                {
                    "name": "D5",
                    "midi": 74,
                    "time": 718.9418129999973,
                    "velocity": 0.5196850393700787,
                    "duration": 0.1574554999999691
                },
                {
                    "name": "F#5",
                    "midi": 78,
                    "time": 719.0992684999973,
                    "velocity": 0.4881889763779528,
                    "duration": 0.1574554999999691
                },
                {
                    "name": "E5",
                    "midi": 76,
                    "time": 719.2567239999972,
                    "velocity": 0.4881889763779528,
                    "duration": 0.1574554999999691
                },
                {
                    "name": "D5",
                    "midi": 74,
                    "time": 719.4141794999972,
                    "velocity": 0.5196850393700787,
                    "duration": 0.1574554999999691
                },
                {
                    "name": "E5",
                    "midi": 76,
                    "time": 719.5716349999972,
                    "velocity": 0.49606299212598426,
                    "duration": 0.1574554999999691
                },
                {
                    "name": "F#5",
                    "midi": 78,
                    "time": 719.7290904999971,
                    "velocity": 0.49606299212598426,
                    "duration": 0.1574554999999691
                },
                {
                    "name": "E5",
                    "midi": 76,
                    "time": 719.8865459999971,
                    "velocity": 0.4881889763779528,
                    "duration": 0.11809162500003367
                },
                {
                    "name": "A4",
                    "midi": 69,
                    "time": 720.0046376249971,
                    "velocity": 0.49606299212598426,
                    "duration": 0.11809162500003367
                },
                {
                    "name": "B4",
                    "midi": 71,
                    "time": 720.1227292499972,
                    "velocity": 0.5039370078740157,
                    "duration": 0.11809162500003367
                },
                {
                    "name": "C#5",
                    "midi": 73,
                    "time": 720.2408208749972,
                    "velocity": 0.5118110236220472,
                    "duration": 0.11809162500003367
                },
                {
                    "name": "D5",
                    "midi": 74,
                    "time": 720.3589124999972,
                    "velocity": 0.5118110236220472,
                    "duration": 0.11809162500003367
                },
                {
                    "name": "E5",
                    "midi": 76,
                    "time": 720.4770041249973,
                    "velocity": 0.5118110236220472,
                    "duration": 0.11809162500003367
                },
                {
                    "name": "F#5",
                    "midi": 78,
                    "time": 720.5950957499973,
                    "velocity": 0.5196850393700787,
                    "duration": 0.11809162500003367
                },
                {
                    "name": "G#5",
                    "midi": 80,
                    "time": 720.7131873749973,
                    "velocity": 0.5275590551181102,
                    "duration": 0.11809162500003367
                },
                {
                    "name": "A5",
                    "midi": 81,
                    "time": 720.8312789999974,
                    "velocity": 0.5354330708661418,
                    "duration": 0.11809162500003367
                },
                {
                    "name": "B5",
                    "midi": 83,
                    "time": 720.9493706249974,
                    "velocity": 0.5433070866141733,
                    "duration": 0.11809162500003367
                },
                {
                    "name": "C#6",
                    "midi": 85,
                    "time": 721.0674622499974,
                    "velocity": 0.5511811023622047,
                    "duration": 0.11809162500003367
                },
                {
                    "name": "B5",
                    "midi": 83,
                    "time": 721.1855538749975,
                    "velocity": 0.5590551181102362,
                    "duration": 0.11809162500003367
                },
                {
                    "name": "A5",
                    "midi": 81,
                    "time": 721.3036454999975,
                    "velocity": 0.5590551181102362,
                    "duration": 0.11809162500003367
                },
                {
                    "name": "G#5",
                    "midi": 80,
                    "time": 721.4217371249975,
                    "velocity": 0.5511811023622047,
                    "duration": 0.11809162500003367
                },
                {
                    "name": "F#5",
                    "midi": 78,
                    "time": 721.5398287499976,
                    "velocity": 0.5511811023622047,
                    "duration": 0.11809162500003367
                },
                {
                    "name": "F5",
                    "midi": 77,
                    "time": 721.6579203749976,
                    "velocity": 0.5433070866141733,
                    "duration": 0.11809162500003367
                },
                {
                    "name": "F#5",
                    "midi": 78,
                    "time": 721.7760119999976,
                    "velocity": 0.5354330708661418,
                    "duration": 0.11809162500003367
                },
                {
                    "name": "G#5",
                    "midi": 80,
                    "time": 721.8941036249977,
                    "velocity": 0.5275590551181102,
                    "duration": 0.11809162500003367
                },
                {
                    "name": "A5",
                    "midi": 81,
                    "time": 722.0121952499977,
                    "velocity": 0.5118110236220472,
                    "duration": 0.11809162500003367
                },
                {
                    "name": "G#5",
                    "midi": 80,
                    "time": 722.1302868749978,
                    "velocity": 0.5039370078740157,
                    "duration": 0.11809162500003367
                },
                {
                    "name": "B5",
                    "midi": 83,
                    "time": 722.2483784999978,
                    "velocity": 0.4881889763779528,
                    "duration": 0.11809162500003367
                },
                {
                    "name": "A5",
                    "midi": 81,
                    "time": 722.3664701249978,
                    "velocity": 0.48031496062992124,
                    "duration": 0.11809162500003367
                },
                {
                    "name": "G#5",
                    "midi": 80,
                    "time": 722.4845617499979,
                    "velocity": 0.4645669291338583,
                    "duration": 0.11809162500003367
                },
                {
                    "name": "F#5",
                    "midi": 78,
                    "time": 722.6026533749979,
                    "velocity": 0.4566929133858268,
                    "duration": 0.11809162500003367
                },
                {
                    "name": "E5",
                    "midi": 76,
                    "time": 722.7207449999979,
                    "velocity": 0.4881889763779528,
                    "duration": 0.11809162500003367
                },
                {
                    "name": "E6",
                    "midi": 88,
                    "time": 722.956928249998,
                    "velocity": 0.4094488188976378,
                    "duration": 0.23618324999995366
                },
                {
                    "name": "C#6",
                    "midi": 85,
                    "time": 723.1931114999979,
                    "velocity": 0.4094488188976378,
                    "duration": 0.23618324999995366
                },
                {
                    "name": "A5",
                    "midi": 81,
                    "time": 723.4292947499979,
                    "velocity": 0.47244094488188976,
                    "duration": 0.23618324999995366
                },
                {
                    "name": "E5",
                    "midi": 76,
                    "time": 723.6654779999978,
                    "velocity": 0.4094488188976378,
                    "duration": 0.11809162500003367
                },
                {
                    "name": "A5",
                    "midi": 81,
                    "time": 723.9016612499979,
                    "velocity": 0.4094488188976378,
                    "duration": 0.23618324999995366
                },
                {
                    "name": "E5",
                    "midi": 76,
                    "time": 724.1378444999979,
                    "velocity": 0.4015748031496063,
                    "duration": 0.23618324999995366
                },
                {
                    "name": "C#5",
                    "midi": 73,
                    "time": 724.3740277499978,
                    "velocity": 0.4015748031496063,
                    "duration": 0.23618324999995366
                },
                {
                    "name": "E5",
                    "midi": 76,
                    "time": 724.6102109999978,
                    "velocity": 0.44881889763779526,
                    "duration": 0.23618324999995366
                },
                {
                    "name": "D5",
                    "midi": 74,
                    "time": 724.8463942499977,
                    "velocity": 0.3700787401574803,
                    "duration": 0.23618324999995366
                },
                {
                    "name": "C#5",
                    "midi": 73,
                    "time": 725.0825774999977,
                    "velocity": 0.4015748031496063,
                    "duration": 0.23618324999995366
                },
                {
                    "name": "B4",
                    "midi": 71,
                    "time": 725.3187607499976,
                    "velocity": 0.36220472440944884,
                    "duration": 0.22437408749999577
                },
                {
                    "name": "E4",
                    "midi": 64,
                    "time": 725.5549439999976,
                    "velocity": 0.25196850393700787,
                    "duration": 0.944733000000042
                },
                {
                    "name": "G#4",
                    "midi": 68,
                    "time": 725.5549439999976,
                    "velocity": 0.28346456692913385,
                    "duration": 0.944733000000042
                },
                {
                    "name": "B4",
                    "midi": 71,
                    "time": 725.5549439999976,
                    "velocity": 0.3228346456692913,
                    "duration": 0.944733000000042
                },
                {
                    "name": "A4",
                    "midi": 69,
                    "time": 726.4996769999976,
                    "velocity": 0.2677165354330709,
                    "duration": 0.944733000000042
                },
                {
                    "name": "C#5",
                    "midi": 73,
                    "time": 734.0575409999976,
                    "velocity": 0.3937007874015748,
                    "duration": 0.11809162500003367
                },
                {
                    "name": "D5",
                    "midi": 74,
                    "time": 734.4708616874976,
                    "velocity": 0.3700787401574803,
                    "duration": 0.05904581250001684
                },
                {
                    "name": "C#5",
                    "midi": 73,
                    "time": 734.5299074999976,
                    "velocity": 0.3700787401574803,
                    "duration": 0.23618324999995366
                },
                {
                    "name": "B4",
                    "midi": 71,
                    "time": 734.7660907499976,
                    "velocity": 0.4094488188976378,
                    "duration": 0.23618324999995366
                },
                {
                    "name": "C#5",
                    "midi": 73,
                    "time": 735.0022739999976,
                    "velocity": 0.3700787401574803,
                    "duration": 0.11809162500003367
                },
                {
                    "name": "D5",
                    "midi": 74,
                    "time": 735.4746404999976,
                    "velocity": 0.4015748031496063,
                    "duration": 0.11809162500003367
                },
                {
                    "name": "F#5",
                    "midi": 78,
                    "time": 735.9470069999976,
                    "velocity": 0.41732283464566927,
                    "duration": 0.472366500000021
                },
                {
                    "name": "E5",
                    "midi": 76,
                    "time": 736.4193734999976,
                    "velocity": 0.36220472440944884,
                    "duration": 0.472366500000021
                },
                {
                    "name": "D5",
                    "midi": 74,
                    "time": 736.8917399999976,
                    "velocity": 0.4015748031496063,
                    "duration": 0.11809162500003367
                },
                {
                    "name": "C#5",
                    "midi": 73,
                    "time": 737.3641064999977,
                    "velocity": 0.3858267716535433,
                    "duration": 0.11809162500003367
                },
                {
                    "name": "B4",
                    "midi": 71,
                    "time": 737.8364729999977,
                    "velocity": 0.3937007874015748,
                    "duration": 0.11809162500003367
                },
                {
                    "name": "C#5",
                    "midi": 73,
                    "time": 738.2497936874977,
                    "velocity": 0.36220472440944884,
                    "duration": 0.05904581250001684
                },
                {
                    "name": "B4",
                    "midi": 71,
                    "time": 738.3088394999977,
                    "velocity": 0.36220472440944884,
                    "duration": 0.23618324999995366
                },
                {
                    "name": "A#4",
                    "midi": 70,
                    "time": 738.5450227499977,
                    "velocity": 0.3937007874015748,
                    "duration": 0.23618324999995366
                },
                {
                    "name": "B4",
                    "midi": 71,
                    "time": 738.7812059999976,
                    "velocity": 0.36220472440944884,
                    "duration": 0.11809162500003367
                },
                {
                    "name": "C#5",
                    "midi": 73,
                    "time": 739.2535724999976,
                    "velocity": 0.3700787401574803,
                    "duration": 0.11809162500003367
                },
                {
                    "name": "E5",
                    "midi": 76,
                    "time": 739.7259389999977,
                    "velocity": 0.3937007874015748,
                    "duration": 0.472366500000021
                },
                {
                    "name": "D5",
                    "midi": 74,
                    "time": 740.1983054999977,
                    "velocity": 0.3700787401574803,
                    "duration": 0.472366500000021
                },
                {
                    "name": "C#5",
                    "midi": 73,
                    "time": 740.6706719999977,
                    "velocity": 0.3700787401574803,
                    "duration": 0.11809162500003367
                },
                {
                    "name": "B4",
                    "midi": 71,
                    "time": 741.1430384999977,
                    "velocity": 0.3700787401574803,
                    "duration": 0.11809162500003367
                },
                {
                    "name": "G#4",
                    "midi": 68,
                    "time": 741.6154049999977,
                    "velocity": 0.41732283464566927,
                    "duration": 0.472366500000021
                },
                {
                    "name": "A4",
                    "midi": 69,
                    "time": 742.0877714999978,
                    "velocity": 0.3937007874015748,
                    "duration": 0.11809162500003367
                },
                {
                    "name": "A#4",
                    "midi": 70,
                    "time": 743.0325044999978,
                    "velocity": 0.3937007874015748,
                    "duration": 0.11809162500003367
                },
                {
                    "name": "B4",
                    "midi": 71,
                    "time": 743.9772374999978,
                    "velocity": 0.3937007874015748,
                    "duration": 0.11809162500003367
                },
                {
                    "name": "C5",
                    "midi": 72,
                    "time": 744.9219704999979,
                    "velocity": 0.3937007874015748,
                    "duration": 0.11809162500003367
                },
                {
                    "name": "D5",
                    "midi": 74,
                    "time": 745.3352911874979,
                    "velocity": 0.3228346456692913,
                    "duration": 0.05904581250001684
                },
                {
                    "name": "C#5",
                    "midi": 73,
                    "time": 745.3943369999979,
                    "velocity": 0.4251968503937008,
                    "duration": 0.11809162500003367
                },
                {
                    "name": "C#5",
                    "midi": 73,
                    "time": 745.8667034999979,
                    "velocity": 0.3937007874015748,
                    "duration": 0.11809162500003367
                },
                {
                    "name": "E5",
                    "midi": 76,
                    "time": 746.2800241874979,
                    "velocity": 0.3228346456692913,
                    "duration": 0.05904581250001684
                },
                {
                    "name": "D5",
                    "midi": 74,
                    "time": 746.339069999998,
                    "velocity": 0.3937007874015748,
                    "duration": 0.11809162500003367
                },
                {
                    "name": "D5",
                    "midi": 74,
                    "time": 746.811436499998,
                    "velocity": 0.3937007874015748,
                    "duration": 0.11809162500003367
                },
                {
                    "name": "C#5",
                    "midi": 73,
                    "time": 747.283802999998,
                    "velocity": 0.4330708661417323,
                    "duration": 0.944733000000042
                },
                {
                    "name": "B4",
                    "midi": 71,
                    "time": 748.228535999998,
                    "velocity": 0.3937007874015748,
                    "duration": 0.472366500000021
                },
                {
                    "name": "C#5",
                    "midi": 73,
                    "time": 749.1732689999981,
                    "velocity": 0.6141732283464567,
                    "duration": 0.23618324999995366
                },
                {
                    "name": "A4",
                    "midi": 69,
                    "time": 749.409452249998,
                    "velocity": 0.49606299212598426,
                    "duration": 0.23618324999995366
                },
                {
                    "name": "E4",
                    "midi": 64,
                    "time": 749.645635499998,
                    "velocity": 0.49606299212598426,
                    "duration": 0.23618324999995366
                },
                {
                    "name": "A4",
                    "midi": 69,
                    "time": 749.8818187499979,
                    "velocity": 0.49606299212598426,
                    "duration": 0.23618324999995366
                },
                {
                    "name": "C#5",
                    "midi": 73,
                    "time": 750.1180019999979,
                    "velocity": 0.6141732283464567,
                    "duration": 0.23618324999995366
                },
                {
                    "name": "A4",
                    "midi": 69,
                    "time": 750.3541852499978,
                    "velocity": 0.5039370078740157,
                    "duration": 0.23618324999995366
                },
                {
                    "name": "D5",
                    "midi": 74,
                    "time": 750.5903684999978,
                    "velocity": 0.6141732283464567,
                    "duration": 0.23618324999995366
                },
                {
                    "name": "B4",
                    "midi": 71,
                    "time": 750.8265517499977,
                    "velocity": 0.5039370078740157,
                    "duration": 0.23618324999995366
                },
                {
                    "name": "E5",
                    "midi": 76,
                    "time": 751.0627349999977,
                    "velocity": 0.6220472440944882,
                    "duration": 0.23618324999995366
                },
                {
                    "name": "C#5",
                    "midi": 73,
                    "time": 751.2989182499977,
                    "velocity": 0.5196850393700787,
                    "duration": 0.23618324999995366
                },
                {
                    "name": "E5",
                    "midi": 76,
                    "time": 751.5351014999976,
                    "velocity": 0.6377952755905512,
                    "duration": 0.23618324999995366
                },
                {
                    "name": "C#5",
                    "midi": 73,
                    "time": 751.7712847499976,
                    "velocity": 0.5354330708661418,
                    "duration": 0.23618324999995366
                },
                {
                    "name": "F#5",
                    "midi": 78,
                    "time": 752.0074679999975,
                    "velocity": 0.6614173228346457,
                    "duration": 0.23618324999995366
                },
                {
                    "name": "E5",
                    "midi": 76,
                    "time": 752.2436512499975,
                    "velocity": 0.6456692913385826,
                    "duration": 0.23618324999995366
                },
                {
                    "name": "D5",
                    "midi": 74,
                    "time": 752.4798344999974,
                    "velocity": 0.6299212598425197,
                    "duration": 0.23618324999995366
                },
                {
                    "name": "C#5",
                    "midi": 73,
                    "time": 752.7160177499974,
                    "velocity": 0.6220472440944882,
                    "duration": 0.23618324999995366
                },
                {
                    "name": "B4",
                    "midi": 71,
                    "time": 752.9522009999973,
                    "velocity": 0.6062992125984252,
                    "duration": 0.23618324999995366
                },
                {
                    "name": "G#4",
                    "midi": 68,
                    "time": 753.1883842499973,
                    "velocity": 0.5039370078740157,
                    "duration": 0.23618324999995366
                },
                {
                    "name": "E4",
                    "midi": 64,
                    "time": 753.4245674999972,
                    "velocity": 0.5039370078740157,
                    "duration": 0.23618324999995366
                },
                {
                    "name": "G#4",
                    "midi": 68,
                    "time": 753.6607507499972,
                    "velocity": 0.5039370078740157,
                    "duration": 0.23618324999995366
                },
                {
                    "name": "B4",
                    "midi": 71,
                    "time": 753.8969339999971,
                    "velocity": 0.6141732283464567,
                    "duration": 0.23618324999995366
                },
                {
                    "name": "G#4",
                    "midi": 68,
                    "time": 754.1331172499971,
                    "velocity": 0.49606299212598426,
                    "duration": 0.23618324999995366
                },
                {
                    "name": "C#5",
                    "midi": 73,
                    "time": 754.369300499997,
                    "velocity": 0.6220472440944882,
                    "duration": 0.23618324999995366
                },
                {
                    "name": "A4",
                    "midi": 69,
                    "time": 754.605483749997,
                    "velocity": 0.49606299212598426,
                    "duration": 0.23618324999995366
                },
                {
                    "name": "D5",
                    "midi": 74,
                    "time": 754.841666999997,
                    "velocity": 0.6299212598425197,
                    "duration": 0.23618324999995366
                },
                {
                    "name": "B4",
                    "midi": 71,
                    "time": 755.0778502499969,
                    "velocity": 0.5039370078740157,
                    "duration": 0.23618324999995366
                },
                {
                    "name": "D5",
                    "midi": 74,
                    "time": 755.3140334999969,
                    "velocity": 0.6299212598425197,
                    "duration": 0.23618324999995366
                },
                {
                    "name": "B4",
                    "midi": 71,
                    "time": 755.5502167499968,
                    "velocity": 0.5433070866141733,
                    "duration": 0.23618324999995366
                },
                {
                    "name": "E5",
                    "midi": 76,
                    "time": 755.7863999999968,
                    "velocity": 0.6614173228346457,
                    "duration": 0.23618324999995366
                },
                {
                    "name": "D5",
                    "midi": 74,
                    "time": 756.0225832499967,
                    "velocity": 0.6614173228346457,
                    "duration": 0.23618324999995366
                },
                {
                    "name": "C#5",
                    "midi": 73,
                    "time": 756.2587664999967,
                    "velocity": 0.6377952755905512,
                    "duration": 0.23618324999995366
                },
                {
                    "name": "B4",
                    "midi": 71,
                    "time": 756.4949497499966,
                    "velocity": 0.6220472440944882,
                    "duration": 0.23618324999995366
                },
                {
                    "name": "A4",
                    "midi": 69,
                    "time": 756.7311329999966,
                    "velocity": 0.6456692913385826,
                    "duration": 0.23618324999995366
                },
                {
                    "name": "C#5",
                    "midi": 73,
                    "time": 756.9673162499965,
                    "velocity": 0.5196850393700787,
                    "duration": 0.23618324999995366
                },
                {
                    "name": "B4",
                    "midi": 71,
                    "time": 757.2034994999965,
                    "velocity": 0.5196850393700787,
                    "duration": 0.23618324999995366
                },
                {
                    "name": "A4",
                    "midi": 69,
                    "time": 757.4396827499965,
                    "velocity": 0.5196850393700787,
                    "duration": 0.23618324999995366
                },
                {
                    "name": "B4",
                    "midi": 71,
                    "time": 757.6758659999964,
                    "velocity": 0.6692913385826772,
                    "duration": 0.23618324999995366
                },
                {
                    "name": "D5",
                    "midi": 74,
                    "time": 757.9120492499964,
                    "velocity": 0.5196850393700787,
                    "duration": 0.23618324999995366
                },
                {
                    "name": "C#5",
                    "midi": 73,
                    "time": 758.1482324999963,
                    "velocity": 0.5196850393700787,
                    "duration": 0.23618324999995366
                },
                {
                    "name": "B4",
                    "midi": 71,
                    "time": 758.3844157499963,
                    "velocity": 0.5196850393700787,
                    "duration": 0.23618324999995366
                },
                {
                    "name": "C#5",
                    "midi": 73,
                    "time": 758.6205989999962,
                    "velocity": 0.6456692913385826,
                    "duration": 0.23618324999995366
                },
                {
                    "name": "E5",
                    "midi": 76,
                    "time": 758.8567822499962,
                    "velocity": 0.5433070866141733,
                    "duration": 0.23618324999995366
                },
                {
                    "name": "A5",
                    "midi": 81,
                    "time": 759.0929654999961,
                    "velocity": 0.5826771653543307,
                    "duration": 0.23618324999995366
                },
                {
                    "name": "E5",
                    "midi": 76,
                    "time": 759.3291487499961,
                    "velocity": 0.5433070866141733,
                    "duration": 0.23618324999995366
                },
                {
                    "name": "F#5",
                    "midi": 78,
                    "time": 759.565331999996,
                    "velocity": 0.6535433070866141,
                    "duration": 0.23618324999995366
                },
                {
                    "name": "A5",
                    "midi": 81,
                    "time": 759.801515249996,
                    "velocity": 0.5590551181102362,
                    "duration": 0.23618324999995366
                },
                {
                    "name": "D5",
                    "midi": 74,
                    "time": 760.0376984999959,
                    "velocity": 0.5590551181102362,
                    "duration": 0.23618324999995366
                },
                {
                    "name": "F#5",
                    "midi": 78,
                    "time": 760.2738817499959,
                    "velocity": 0.5590551181102362,
                    "duration": 0.23618324999995366
                },
                {
                    "name": "C#5",
                    "midi": 73,
                    "time": 760.5100649999958,
                    "velocity": 0.6614173228346457,
                    "duration": 0.23618324999995366
                },
                {
                    "name": "E5",
                    "midi": 76,
                    "time": 760.7462482499958,
                    "velocity": 0.5433070866141733,
                    "duration": 0.23618324999995366
                },
                {
                    "name": "A4",
                    "midi": 69,
                    "time": 760.9824314999958,
                    "velocity": 0.6299212598425197,
                    "duration": 0.23618324999995366
                },
                {
                    "name": "C#5",
                    "midi": 73,
                    "time": 761.2186147499957,
                    "velocity": 0.5433070866141733,
                    "duration": 0.23618324999995366
                },
                {
                    "name": "B4",
                    "midi": 71,
                    "time": 761.4547979999957,
                    "velocity": 0.6377952755905512,
                    "duration": 0.23618324999995366
                },
                {
                    "name": "D5",
                    "midi": 74,
                    "time": 761.6909812499956,
                    "velocity": 0.5433070866141733,
                    "duration": 0.23618324999995366
                },
                {
                    "name": "G#4",
                    "midi": 68,
                    "time": 761.9271644999956,
                    "velocity": 0.6377952755905512,
                    "duration": 0.23618324999995366
                },
                {
                    "name": "B4",
                    "midi": 71,
                    "time": 762.1633477499955,
                    "velocity": 0.5433070866141733,
                    "duration": 0.23618324999995366
                },
                {
                    "name": "A4",
                    "midi": 69,
                    "time": 762.3995309999955,
                    "velocity": 0.6220472440944882,
                    "duration": 0.23618324999995366
                },
                {
                    "name": "E4",
                    "midi": 64,
                    "time": 762.6357142499954,
                    "velocity": 0.5433070866141733,
                    "duration": 0.23618324999995366
                },
                {
                    "name": "C#4",
                    "midi": 61,
                    "time": 762.8718974999954,
                    "velocity": 0.5433070866141733,
                    "duration": 0.23618324999995366
                },
                {
                    "name": "E4",
                    "midi": 64,
                    "time": 763.1080807499953,
                    "velocity": 0.5433070866141733,
                    "duration": 0.23618324999995366
                },
                {
                    "name": "A4",
                    "midi": 69,
                    "time": 763.3442639999953,
                    "velocity": 0.6456692913385826,
                    "duration": 0.8266413750000083
                },
                {
                    "name": "C#5",
                    "midi": 73,
                    "time": 764.2889969999953,
                    "velocity": 0.3937007874015748,
                    "duration": 0.11809162500003367
                },
                {
                    "name": "D5",
                    "midi": 74,
                    "time": 764.7023176874953,
                    "velocity": 0.3700787401574803,
                    "duration": 0.05904581250001684
                },
                {
                    "name": "C#5",
                    "midi": 73,
                    "time": 764.7613634999954,
                    "velocity": 0.3700787401574803,
                    "duration": 0.23618324999995366
                },
                {
                    "name": "B4",
                    "midi": 71,
                    "time": 764.9975467499953,
                    "velocity": 0.4094488188976378,
                    "duration": 0.23618324999995366
                },
                {
                    "name": "C#5",
                    "midi": 73,
                    "time": 765.2337299999953,
                    "velocity": 0.3700787401574803,
                    "duration": 0.11809162500003367
                },
                {
                    "name": "D5",
                    "midi": 74,
                    "time": 765.7060964999953,
                    "velocity": 0.4015748031496063,
                    "duration": 0.11809162500003367
                },
                {
                    "name": "F#5",
                    "midi": 78,
                    "time": 766.1784629999953,
                    "velocity": 0.41732283464566927,
                    "duration": 0.472366500000021
                },
                {
                    "name": "E5",
                    "midi": 76,
                    "time": 766.6508294999953,
                    "velocity": 0.36220472440944884,
                    "duration": 0.472366500000021
                },
                {
                    "name": "D5",
                    "midi": 74,
                    "time": 767.1231959999953,
                    "velocity": 0.4015748031496063,
                    "duration": 0.11809162500003367
                },
                {
                    "name": "C#5",
                    "midi": 73,
                    "time": 767.5955624999954,
                    "velocity": 0.3858267716535433,
                    "duration": 0.11809162500003367
                },
                {
                    "name": "B4",
                    "midi": 71,
                    "time": 768.0679289999954,
                    "velocity": 0.3937007874015748,
                    "duration": 0.11809162500003367
                },
                {
                    "name": "C#5",
                    "midi": 73,
                    "time": 768.4812496874954,
                    "velocity": 0.36220472440944884,
                    "duration": 0.05904581250001684
                },
                {
                    "name": "B4",
                    "midi": 71,
                    "time": 768.5402954999954,
                    "velocity": 0.36220472440944884,
                    "duration": 0.23618324999995366
                },
                {
                    "name": "A#4",
                    "midi": 70,
                    "time": 768.7764787499954,
                    "velocity": 0.3937007874015748,
                    "duration": 0.23618324999995366
                },
                {
                    "name": "B4",
                    "midi": 71,
                    "time": 769.0126619999953,
                    "velocity": 0.36220472440944884,
                    "duration": 0.11809162500003367
                },
                {
                    "name": "C#5",
                    "midi": 73,
                    "time": 769.4850284999953,
                    "velocity": 0.3700787401574803,
                    "duration": 0.11809162500003367
                },
                {
                    "name": "E5",
                    "midi": 76,
                    "time": 769.9573949999954,
                    "velocity": 0.3937007874015748,
                    "duration": 0.472366500000021
                },
                {
                    "name": "D5",
                    "midi": 74,
                    "time": 770.4297614999954,
                    "velocity": 0.3700787401574803,
                    "duration": 0.472366500000021
                },
                {
                    "name": "C#5",
                    "midi": 73,
                    "time": 770.9021279999954,
                    "velocity": 0.3700787401574803,
                    "duration": 0.11809162500003367
                },
                {
                    "name": "B4",
                    "midi": 71,
                    "time": 771.3744944999954,
                    "velocity": 0.3700787401574803,
                    "duration": 0.11809162500003367
                },
                {
                    "name": "G#4",
                    "midi": 68,
                    "time": 771.8468609999954,
                    "velocity": 0.41732283464566927,
                    "duration": 0.472366500000021
                },
                {
                    "name": "A4",
                    "midi": 69,
                    "time": 772.3192274999955,
                    "velocity": 0.3937007874015748,
                    "duration": 0.11809162500003367
                },
                {
                    "name": "A#4",
                    "midi": 70,
                    "time": 773.2639604999955,
                    "velocity": 0.3937007874015748,
                    "duration": 0.11809162500003367
                },
                {
                    "name": "B4",
                    "midi": 71,
                    "time": 774.2086934999955,
                    "velocity": 0.3937007874015748,
                    "duration": 0.11809162500003367
                },
                {
                    "name": "C5",
                    "midi": 72,
                    "time": 775.1534264999956,
                    "velocity": 0.3937007874015748,
                    "duration": 0.11809162500003367
                },
                {
                    "name": "D5",
                    "midi": 74,
                    "time": 775.5667471874956,
                    "velocity": 0.3228346456692913,
                    "duration": 0.05904581250001684
                },
                {
                    "name": "C#5",
                    "midi": 73,
                    "time": 775.6257929999956,
                    "velocity": 0.4251968503937008,
                    "duration": 0.11809162500003367
                },
                {
                    "name": "C#5",
                    "midi": 73,
                    "time": 776.0981594999956,
                    "velocity": 0.3937007874015748,
                    "duration": 0.11809162500003367
                },
                {
                    "name": "E5",
                    "midi": 76,
                    "time": 776.5114801874956,
                    "velocity": 0.3228346456692913,
                    "duration": 0.05904581250001684
                },
                {
                    "name": "D5",
                    "midi": 74,
                    "time": 776.5705259999957,
                    "velocity": 0.3937007874015748,
                    "duration": 0.11809162500003367
                },
                {
                    "name": "D5",
                    "midi": 74,
                    "time": 777.0428924999957,
                    "velocity": 0.3937007874015748,
                    "duration": 0.11809162500003367
                },
                {
                    "name": "C#5",
                    "midi": 73,
                    "time": 777.5152589999957,
                    "velocity": 0.4330708661417323,
                    "duration": 0.944733000000042
                },
                {
                    "name": "B4",
                    "midi": 71,
                    "time": 778.4599919999957,
                    "velocity": 0.3937007874015748,
                    "duration": 0.472366500000021
                },
                {
                    "name": "C#5",
                    "midi": 73,
                    "time": 779.4047249999958,
                    "velocity": 0.6141732283464567,
                    "duration": 0.23618324999995366
                },
                {
                    "name": "A4",
                    "midi": 69,
                    "time": 779.6409082499957,
                    "velocity": 0.49606299212598426,
                    "duration": 0.23618324999995366
                },
                {
                    "name": "E4",
                    "midi": 64,
                    "time": 779.8770914999957,
                    "velocity": 0.49606299212598426,
                    "duration": 0.23618324999995366
                },
                {
                    "name": "A4",
                    "midi": 69,
                    "time": 780.1132747499956,
                    "velocity": 0.49606299212598426,
                    "duration": 0.23618324999995366
                },
                {
                    "name": "C#5",
                    "midi": 73,
                    "time": 780.3494579999956,
                    "velocity": 0.6141732283464567,
                    "duration": 0.23618324999995366
                },
                {
                    "name": "A4",
                    "midi": 69,
                    "time": 780.5856412499955,
                    "velocity": 0.5039370078740157,
                    "duration": 0.23618324999995366
                },
                {
                    "name": "D5",
                    "midi": 74,
                    "time": 780.8218244999955,
                    "velocity": 0.6141732283464567,
                    "duration": 0.23618324999995366
                },
                {
                    "name": "B4",
                    "midi": 71,
                    "time": 781.0580077499955,
                    "velocity": 0.5039370078740157,
                    "duration": 0.23618324999995366
                },
                {
                    "name": "E5",
                    "midi": 76,
                    "time": 781.2941909999954,
                    "velocity": 0.6220472440944882,
                    "duration": 0.23618324999995366
                },
                {
                    "name": "C#5",
                    "midi": 73,
                    "time": 781.5303742499954,
                    "velocity": 0.5196850393700787,
                    "duration": 0.23618324999995366
                },
                {
                    "name": "E5",
                    "midi": 76,
                    "time": 781.7665574999953,
                    "velocity": 0.6377952755905512,
                    "duration": 0.23618324999995366
                },
                {
                    "name": "C#5",
                    "midi": 73,
                    "time": 782.0027407499953,
                    "velocity": 0.5354330708661418,
                    "duration": 0.23618324999995366
                },
                {
                    "name": "F#5",
                    "midi": 78,
                    "time": 782.2389239999952,
                    "velocity": 0.6614173228346457,
                    "duration": 0.23618324999995366
                },
                {
                    "name": "E5",
                    "midi": 76,
                    "time": 782.4751072499952,
                    "velocity": 0.6456692913385826,
                    "duration": 0.23618324999995366
                },
                {
                    "name": "D5",
                    "midi": 74,
                    "time": 782.7112904999951,
                    "velocity": 0.6299212598425197,
                    "duration": 0.23618324999995366
                },
                {
                    "name": "C#5",
                    "midi": 73,
                    "time": 782.9474737499951,
                    "velocity": 0.6220472440944882,
                    "duration": 0.23618324999995366
                },
                {
                    "name": "B4",
                    "midi": 71,
                    "time": 783.183656999995,
                    "velocity": 0.6062992125984252,
                    "duration": 0.23618324999995366
                },
                {
                    "name": "G#4",
                    "midi": 68,
                    "time": 783.419840249995,
                    "velocity": 0.5039370078740157,
                    "duration": 0.23618324999995366
                },
                {
                    "name": "E4",
                    "midi": 64,
                    "time": 783.656023499995,
                    "velocity": 0.5039370078740157,
                    "duration": 0.23618324999995366
                },
                {
                    "name": "G#4",
                    "midi": 68,
                    "time": 783.8922067499949,
                    "velocity": 0.5039370078740157,
                    "duration": 0.23618324999995366
                },
                {
                    "name": "B4",
                    "midi": 71,
                    "time": 784.1283899999949,
                    "velocity": 0.6141732283464567,
                    "duration": 0.23618324999995366
                },
                {
                    "name": "G#4",
                    "midi": 68,
                    "time": 784.3645732499948,
                    "velocity": 0.49606299212598426,
                    "duration": 0.23618324999995366
                },
                {
                    "name": "C#5",
                    "midi": 73,
                    "time": 784.6007564999948,
                    "velocity": 0.6220472440944882,
                    "duration": 0.23618324999995366
                },
                {
                    "name": "A4",
                    "midi": 69,
                    "time": 784.8369397499947,
                    "velocity": 0.49606299212598426,
                    "duration": 0.23618324999995366
                },
                {
                    "name": "D5",
                    "midi": 74,
                    "time": 785.0731229999947,
                    "velocity": 0.6299212598425197,
                    "duration": 0.23618324999995366
                },
                {
                    "name": "B4",
                    "midi": 71,
                    "time": 785.3093062499946,
                    "velocity": 0.5039370078740157,
                    "duration": 0.23618324999995366
                },
                {
                    "name": "D5",
                    "midi": 74,
                    "time": 785.5454894999946,
                    "velocity": 0.6299212598425197,
                    "duration": 0.23618324999995366
                },
                {
                    "name": "B4",
                    "midi": 71,
                    "time": 785.7816727499945,
                    "velocity": 0.5433070866141733,
                    "duration": 0.23618324999995366
                },
                {
                    "name": "E5",
                    "midi": 76,
                    "time": 786.0178559999945,
                    "velocity": 0.6614173228346457,
                    "duration": 0.23618324999995366
                },
                {
                    "name": "D5",
                    "midi": 74,
                    "time": 786.2540392499944,
                    "velocity": 0.6614173228346457,
                    "duration": 0.23618324999995366
                },
                {
                    "name": "C#5",
                    "midi": 73,
                    "time": 786.4902224999944,
                    "velocity": 0.6377952755905512,
                    "duration": 0.23618324999995366
                },
                {
                    "name": "B4",
                    "midi": 71,
                    "time": 786.7264057499943,
                    "velocity": 0.6220472440944882,
                    "duration": 0.23618324999995366
                },
                {
                    "name": "A4",
                    "midi": 69,
                    "time": 786.9625889999943,
                    "velocity": 0.6456692913385826,
                    "duration": 0.23618324999995366
                },
                {
                    "name": "C#5",
                    "midi": 73,
                    "time": 787.1987722499942,
                    "velocity": 0.5196850393700787,
                    "duration": 0.23618324999995366
                },
                {
                    "name": "B4",
                    "midi": 71,
                    "time": 787.4349554999942,
                    "velocity": 0.5196850393700787,
                    "duration": 0.23618324999995366
                },
                {
                    "name": "A4",
                    "midi": 69,
                    "time": 787.6711387499942,
                    "velocity": 0.5196850393700787,
                    "duration": 0.23618324999995366
                },
                {
                    "name": "B4",
                    "midi": 71,
                    "time": 787.9073219999941,
                    "velocity": 0.6692913385826772,
                    "duration": 0.23618324999995366
                },
                {
                    "name": "D5",
                    "midi": 74,
                    "time": 788.1435052499941,
                    "velocity": 0.5196850393700787,
                    "duration": 0.23618324999995366
                },
                {
                    "name": "C#5",
                    "midi": 73,
                    "time": 788.379688499994,
                    "velocity": 0.5196850393700787,
                    "duration": 0.23618324999995366
                },
                {
                    "name": "B4",
                    "midi": 71,
                    "time": 788.615871749994,
                    "velocity": 0.5196850393700787,
                    "duration": 0.23618324999995366
                },
                {
                    "name": "C#5",
                    "midi": 73,
                    "time": 788.8520549999939,
                    "velocity": 0.6456692913385826,
                    "duration": 0.23618324999995366
                },
                {
                    "name": "E5",
                    "midi": 76,
                    "time": 789.0882382499939,
                    "velocity": 0.5433070866141733,
                    "duration": 0.23618324999995366
                },
                {
                    "name": "A5",
                    "midi": 81,
                    "time": 789.3244214999938,
                    "velocity": 0.5826771653543307,
                    "duration": 0.23618324999995366
                },
                {
                    "name": "E5",
                    "midi": 76,
                    "time": 789.5606047499938,
                    "velocity": 0.5433070866141733,
                    "duration": 0.23618324999995366
                },
                {
                    "name": "F#5",
                    "midi": 78,
                    "time": 789.7967879999937,
                    "velocity": 0.6535433070866141,
                    "duration": 0.23618324999995366
                },
                {
                    "name": "A5",
                    "midi": 81,
                    "time": 790.0329712499937,
                    "velocity": 0.5590551181102362,
                    "duration": 0.23618324999995366
                },
                {
                    "name": "D5",
                    "midi": 74,
                    "time": 790.2691544999936,
                    "velocity": 0.5590551181102362,
                    "duration": 0.23618324999995366
                },
                {
                    "name": "F#5",
                    "midi": 78,
                    "time": 790.5053377499936,
                    "velocity": 0.5590551181102362,
                    "duration": 0.23618324999995366
                },
                {
                    "name": "C#5",
                    "midi": 73,
                    "time": 790.7415209999936,
                    "velocity": 0.6614173228346457,
                    "duration": 0.23618324999995366
                },
                {
                    "name": "E5",
                    "midi": 76,
                    "time": 790.9777042499935,
                    "velocity": 0.5433070866141733,
                    "duration": 0.23618324999995366
                },
                {
                    "name": "A4",
                    "midi": 69,
                    "time": 791.2138874999935,
                    "velocity": 0.6299212598425197,
                    "duration": 0.23618324999995366
                },
                {
                    "name": "C#5",
                    "midi": 73,
                    "time": 791.4500707499934,
                    "velocity": 0.5433070866141733,
                    "duration": 0.23618324999995366
                },
                {
                    "name": "B4",
                    "midi": 71,
                    "time": 791.6862539999934,
                    "velocity": 0.6377952755905512,
                    "duration": 0.23618324999995366
                },
                {
                    "name": "D5",
                    "midi": 74,
                    "time": 791.9224372499933,
                    "velocity": 0.5433070866141733,
                    "duration": 0.23618324999995366
                },
                {
                    "name": "G#4",
                    "midi": 68,
                    "time": 792.1586204999933,
                    "velocity": 0.6377952755905512,
                    "duration": 0.23618324999995366
                },
                {
                    "name": "B4",
                    "midi": 71,
                    "time": 792.3948037499932,
                    "velocity": 0.5433070866141733,
                    "duration": 0.23618324999995366
                },
                {
                    "name": "A4",
                    "midi": 69,
                    "time": 792.6309869999932,
                    "velocity": 0.6220472440944882,
                    "duration": 0.23618324999995366
                },
                {
                    "name": "E4",
                    "midi": 64,
                    "time": 792.8671702499931,
                    "velocity": 0.5433070866141733,
                    "duration": 0.23618324999995366
                },
                {
                    "name": "C#4",
                    "midi": 61,
                    "time": 793.1033534999931,
                    "velocity": 0.5433070866141733,
                    "duration": 0.23618324999995366
                },
                {
                    "name": "E4",
                    "midi": 64,
                    "time": 793.339536749993,
                    "velocity": 0.5433070866141733,
                    "duration": 0.23618324999995366
                },
                {
                    "name": "A4",
                    "midi": 69,
                    "time": 793.575719999993,
                    "velocity": 0.6456692913385826,
                    "duration": 0.944733000000042
                },
                {
                    "name": "A4",
                    "midi": 69,
                    "time": 794.520452999993,
                    "velocity": 0.4330708661417323,
                    "duration": 0.23618324999995366
                },
                {
                    "name": "B4",
                    "midi": 71,
                    "time": 794.756636249993,
                    "velocity": 0.3858267716535433,
                    "duration": 0.23618324999995366
                },
                {
                    "name": "C#5",
                    "midi": 73,
                    "time": 794.992819499993,
                    "velocity": 0.3937007874015748,
                    "duration": 0.23618324999995366
                },
                {
                    "name": "D5",
                    "midi": 74,
                    "time": 795.2290027499929,
                    "velocity": 0.3937007874015748,
                    "duration": 0.23618324999995366
                },
                {
                    "name": "E5",
                    "midi": 76,
                    "time": 795.4651859999929,
                    "velocity": 0.4015748031496063,
                    "duration": 0.23618324999995366
                },
                {
                    "name": "F#5",
                    "midi": 78,
                    "time": 795.7013692499928,
                    "velocity": 0.4094488188976378,
                    "duration": 0.23618324999995366
                },
                {
                    "name": "G#5",
                    "midi": 80,
                    "time": 795.9375524999928,
                    "velocity": 0.41732283464566927,
                    "duration": 0.23618324999995366
                },
                {
                    "name": "A5",
                    "midi": 81,
                    "time": 796.1737357499927,
                    "velocity": 0.4251968503937008,
                    "duration": 0.23618324999995366
                },
                {
                    "name": "G#5",
                    "midi": 80,
                    "time": 796.4099189999927,
                    "velocity": 0.4409448818897638,
                    "duration": 0.23618324999995366
                },
                {
                    "name": "F#5",
                    "midi": 78,
                    "time": 796.6461022499926,
                    "velocity": 0.3937007874015748,
                    "duration": 0.23618324999995366
                },
                {
                    "name": "F5",
                    "midi": 77,
                    "time": 796.8822854999926,
                    "velocity": 0.4094488188976378,
                    "duration": 0.23618324999995366
                },
                {
                    "name": "F#5",
                    "midi": 78,
                    "time": 797.1184687499925,
                    "velocity": 0.3937007874015748,
                    "duration": 0.23618324999995366
                },
                {
                    "name": "F5",
                    "midi": 77,
                    "time": 797.3546519999925,
                    "velocity": 0.4094488188976378,
                    "duration": 0.23618324999995366
                },
                {
                    "name": "F#5",
                    "midi": 78,
                    "time": 797.5908352499924,
                    "velocity": 0.3937007874015748,
                    "duration": 0.23618324999995366
                },
                {
                    "name": "F5",
                    "midi": 77,
                    "time": 797.8270184999924,
                    "velocity": 0.4094488188976378,
                    "duration": 0.23618324999995366
                },
                {
                    "name": "F#5",
                    "midi": 78,
                    "time": 798.0632017499923,
                    "velocity": 0.3937007874015748,
                    "duration": 0.23618324999995366
                },
                {
                    "name": "A5",
                    "midi": 81,
                    "time": 798.2993849999923,
                    "velocity": 0.4330708661417323,
                    "duration": 0.23618324999995366
                },
                {
                    "name": "G#5",
                    "midi": 80,
                    "time": 798.5355682499923,
                    "velocity": 0.4015748031496063,
                    "duration": 0.23618324999995366
                },
                {
                    "name": "A5",
                    "midi": 81,
                    "time": 798.7717514999922,
                    "velocity": 0.4330708661417323,
                    "duration": 0.23618324999995366
                },
                {
                    "name": "G#5",
                    "midi": 80,
                    "time": 799.0079347499922,
                    "velocity": 0.4015748031496063,
                    "duration": 0.23618324999995366
                },
                {
                    "name": "B5",
                    "midi": 83,
                    "time": 799.2441179999921,
                    "velocity": 0.4251968503937008,
                    "duration": 0.23618324999995366
                },
                {
                    "name": "A5",
                    "midi": 81,
                    "time": 799.4803012499921,
                    "velocity": 0.4330708661417323,
                    "duration": 0.23618324999995366
                },
                {
                    "name": "G#5",
                    "midi": 80,
                    "time": 799.716484499992,
                    "velocity": 0.4409448818897638,
                    "duration": 0.23618324999995366
                },
                {
                    "name": "F#5",
                    "midi": 78,
                    "time": 799.952667749992,
                    "velocity": 0.4566929133858268,
                    "duration": 0.23618324999995366
                },
                {
                    "name": "F#5",
                    "midi": 78,
                    "time": 800.1888509999919,
                    "velocity": 0.4645669291338583,
                    "duration": 0.23618324999995366
                },
                {
                    "name": "E5",
                    "midi": 76,
                    "time": 800.4250342499919,
                    "velocity": 0.4251968503937008,
                    "duration": 0.23618324999995366
                },
                {
                    "name": "D#5",
                    "midi": 75,
                    "time": 800.6612174999918,
                    "velocity": 0.4566929133858268,
                    "duration": 0.23618324999995366
                },
                {
                    "name": "E5",
                    "midi": 76,
                    "time": 800.8974007499918,
                    "velocity": 0.4094488188976378,
                    "duration": 0.23618324999995366
                },
                {
                    "name": "D#5",
                    "midi": 75,
                    "time": 801.1335839999917,
                    "velocity": 0.4251968503937008,
                    "duration": 0.23618324999995366
                },
                {
                    "name": "E5",
                    "midi": 76,
                    "time": 801.3697672499917,
                    "velocity": 0.3937007874015748,
                    "duration": 0.23618324999995366
                },
                {
                    "name": "D#5",
                    "midi": 75,
                    "time": 801.6059504999916,
                    "velocity": 0.4330708661417323,
                    "duration": 0.23618324999995366
                },
                {
                    "name": "E5",
                    "midi": 76,
                    "time": 801.8421337499916,
                    "velocity": 0.4015748031496063,
                    "duration": 0.23618324999995366
                },
                {
                    "name": "E5",
                    "midi": 76,
                    "time": 802.0783169999916,
                    "velocity": 0.5826771653543307,
                    "duration": 0.23618324999995366
                },
                {
                    "name": "A5",
                    "midi": 81,
                    "time": 802.3145002499915,
                    "velocity": 0.5669291338582677,
                    "duration": 0.23618324999995366
                },
                {
                    "name": "C#6",
                    "midi": 85,
                    "time": 802.5506834999915,
                    "velocity": 0.5905511811023622,
                    "duration": 0.23618324999995366
                },
                {
                    "name": "B5",
                    "midi": 83,
                    "time": 802.7868667499914,
                    "velocity": 0.5590551181102362,
                    "duration": 0.23618324999995366
                },
                {
                    "name": "A5",
                    "midi": 81,
                    "time": 803.0230499999914,
                    "velocity": 0.5826771653543307,
                    "duration": 0.23618324999995366
                },
                {
                    "name": "G#5",
                    "midi": 80,
                    "time": 803.2592332499913,
                    "velocity": 0.5826771653543307,
                    "duration": 0.23618324999995366
                },
                {
                    "name": "F#5",
                    "midi": 78,
                    "time": 803.4954164999913,
                    "velocity": 0.5748031496062992,
                    "duration": 0.23618324999995366
                },
                {
                    "name": "E5",
                    "midi": 76,
                    "time": 803.7315997499912,
                    "velocity": 0.5669291338582677,
                    "duration": 0.23618324999995366
                },
                {
                    "name": "D5",
                    "midi": 74,
                    "time": 803.9677829999912,
                    "velocity": 0.5826771653543307,
                    "duration": 0.23618324999995366
                },
                {
                    "name": "G#5",
                    "midi": 80,
                    "time": 804.2039662499911,
                    "velocity": 0.5433070866141733,
                    "duration": 0.23618324999995366
                },
                {
                    "name": "B5",
                    "midi": 83,
                    "time": 804.4401494999911,
                    "velocity": 0.6062992125984252,
                    "duration": 0.23618324999995366
                },
                {
                    "name": "A5",
                    "midi": 81,
                    "time": 804.676332749991,
                    "velocity": 0.5748031496062992,
                    "duration": 0.23618324999995366
                },
                {
                    "name": "G#5",
                    "midi": 80,
                    "time": 804.912515999991,
                    "velocity": 0.5984251968503937,
                    "duration": 0.23618324999995366
                },
                {
                    "name": "F#5",
                    "midi": 78,
                    "time": 805.148699249991,
                    "velocity": 0.5826771653543307,
                    "duration": 0.23618324999995366
                },
                {
                    "name": "E5",
                    "midi": 76,
                    "time": 805.3848824999909,
                    "velocity": 0.5748031496062992,
                    "duration": 0.23618324999995366
                },
                {
                    "name": "D5",
                    "midi": 74,
                    "time": 805.6210657499909,
                    "velocity": 0.5590551181102362,
                    "duration": 0.23618324999995366
                },
                {
                    "name": "C#5",
                    "midi": 73,
                    "time": 805.8572489999908,
                    "velocity": 0.5748031496062992,
                    "duration": 0.25980157499998313
                },
                {
                    "name": "E5",
                    "midi": 76,
                    "time": 806.0934322499908,
                    "velocity": 0.5511811023622047,
                    "duration": 0.2598015750000968
                },
                {
                    "name": "A5",
                    "midi": 81,
                    "time": 806.3296154999908,
                    "velocity": 0.5748031496062992,
                    "duration": 0.2598015750000968
                },
                {
                    "name": "G#5",
                    "midi": 80,
                    "time": 806.5657987499909,
                    "velocity": 0.5511811023622047,
                    "duration": 0.2598015750000968
                },
                {
                    "name": "F#5",
                    "midi": 78,
                    "time": 806.801981999991,
                    "velocity": 0.5748031496062992,
                    "duration": 0.2598015750000968
                },
                {
                    "name": "E5",
                    "midi": 76,
                    "time": 807.038165249991,
                    "velocity": 0.5590551181102362,
                    "duration": 0.2598015750000968
                },
                {
                    "name": "D5",
                    "midi": 74,
                    "time": 807.2743484999911,
                    "velocity": 0.5748031496062992,
                    "duration": 0.2598015750000968
                },
                {
                    "name": "C#5",
                    "midi": 73,
                    "time": 807.5105317499912,
                    "velocity": 0.5511811023622047,
                    "duration": 0.2598015750000968
                },
                {
                    "name": "B4",
                    "midi": 71,
                    "time": 807.7467149999912,
                    "velocity": 0.5669291338582677,
                    "duration": 0.2598015750000968
                },
                {
                    "name": "A4",
                    "midi": 69,
                    "time": 807.9828982499913,
                    "velocity": 0.5354330708661418,
                    "duration": 0.2598015750000968
                },
                {
                    "name": "G#4",
                    "midi": 68,
                    "time": 808.2190814999914,
                    "velocity": 0.5196850393700787,
                    "duration": 0.2598015750000968
                },
                {
                    "name": "F#4",
                    "midi": 66,
                    "time": 808.4552647499914,
                    "velocity": 0.5039370078740157,
                    "duration": 0.2598015750000968
                },
                {
                    "name": "E4",
                    "midi": 64,
                    "time": 808.6914479999915,
                    "velocity": 0.48031496062992124,
                    "duration": 0.23618325000006735
                },
                {
                    "name": "C#5",
                    "midi": 73,
                    "time": 809.6361809999916,
                    "velocity": 0.3937007874015748,
                    "duration": 0.11809162500003367
                },
                {
                    "name": "D5",
                    "midi": 74,
                    "time": 810.0495016874916,
                    "velocity": 0.3700787401574803,
                    "duration": 0.05904581250001684
                },
                {
                    "name": "C#5",
                    "midi": 73,
                    "time": 810.1085474999916,
                    "velocity": 0.3700787401574803,
                    "duration": 0.23618324999995366
                },
                {
                    "name": "B4",
                    "midi": 71,
                    "time": 810.3447307499915,
                    "velocity": 0.4094488188976378,
                    "duration": 0.23618324999995366
                },
                {
                    "name": "C#5",
                    "midi": 73,
                    "time": 810.5809139999915,
                    "velocity": 0.3700787401574803,
                    "duration": 0.11809162500003367
                },
                {
                    "name": "D5",
                    "midi": 74,
                    "time": 811.0532804999915,
                    "velocity": 0.4015748031496063,
                    "duration": 0.11809162500003367
                },
                {
                    "name": "F#5",
                    "midi": 78,
                    "time": 811.5256469999915,
                    "velocity": 0.41732283464566927,
                    "duration": 0.472366500000021
                },
                {
                    "name": "E5",
                    "midi": 76,
                    "time": 811.9980134999915,
                    "velocity": 0.36220472440944884,
                    "duration": 0.472366500000021
                },
                {
                    "name": "D5",
                    "midi": 74,
                    "time": 812.4703799999916,
                    "velocity": 0.4015748031496063,
                    "duration": 0.11809162500003367
                },
                {
                    "name": "C#5",
                    "midi": 73,
                    "time": 812.9427464999916,
                    "velocity": 0.3858267716535433,
                    "duration": 0.11809162500003367
                },
                {
                    "name": "B4",
                    "midi": 71,
                    "time": 813.4151129999916,
                    "velocity": 0.3937007874015748,
                    "duration": 0.11809162500003367
                },
                {
                    "name": "C#5",
                    "midi": 73,
                    "time": 813.8284336874916,
                    "velocity": 0.36220472440944884,
                    "duration": 0.05904581250001684
                },
                {
                    "name": "B4",
                    "midi": 71,
                    "time": 813.8874794999916,
                    "velocity": 0.36220472440944884,
                    "duration": 0.23618324999995366
                },
                {
                    "name": "A#4",
                    "midi": 70,
                    "time": 814.1236627499916,
                    "velocity": 0.3937007874015748,
                    "duration": 0.23618324999995366
                },
                {
                    "name": "B4",
                    "midi": 71,
                    "time": 814.3598459999915,
                    "velocity": 0.36220472440944884,
                    "duration": 0.11809162500003367
                },
                {
                    "name": "C#5",
                    "midi": 73,
                    "time": 814.8322124999916,
                    "velocity": 0.3700787401574803,
                    "duration": 0.11809162500003367
                },
                {
                    "name": "E5",
                    "midi": 76,
                    "time": 815.3045789999916,
                    "velocity": 0.3937007874015748,
                    "duration": 0.472366500000021
                },
                {
                    "name": "D5",
                    "midi": 74,
                    "time": 815.7769454999916,
                    "velocity": 0.3700787401574803,
                    "duration": 0.472366500000021
                },
                {
                    "name": "C#5",
                    "midi": 73,
                    "time": 816.2493119999916,
                    "velocity": 0.3700787401574803,
                    "duration": 0.11809162500003367
                },
                {
                    "name": "B4",
                    "midi": 71,
                    "time": 816.7216784999916,
                    "velocity": 0.3700787401574803,
                    "duration": 0.11809162500003367
                },
                {
                    "name": "G#4",
                    "midi": 68,
                    "time": 817.1940449999917,
                    "velocity": 0.41732283464566927,
                    "duration": 0.472366500000021
                },
                {
                    "name": "A4",
                    "midi": 69,
                    "time": 817.6664114999917,
                    "velocity": 0.3937007874015748,
                    "duration": 0.11809162500003367
                },
                {
                    "name": "B4",
                    "midi": 71,
                    "time": 818.6111444999917,
                    "velocity": 0.3937007874015748,
                    "duration": 0.11809162500003367
                },
                {
                    "name": "C5",
                    "midi": 72,
                    "time": 819.4968316874917,
                    "velocity": 0.31496062992125984,
                    "duration": 0.05904581250001684
                },
                {
                    "name": "C#5",
                    "midi": 73,
                    "time": 819.5558774999918,
                    "velocity": 0.3937007874015748,
                    "duration": 0.11809162500003367
                },
                {
                    "name": "E5",
                    "midi": 76,
                    "time": 820.4415646874918,
                    "velocity": 0.31496062992125984,
                    "duration": 0.05904581250001684
                },
                {
                    "name": "D5",
                    "midi": 74,
                    "time": 820.5006104999918,
                    "velocity": 0.3937007874015748,
                    "duration": 0.11809162500003367
                },
                {
                    "name": "D5",
                    "midi": 74,
                    "time": 821.3862976874918,
                    "velocity": 0.31496062992125984,
                    "duration": 0.05904581250001684
                },
                {
                    "name": "C#5",
                    "midi": 73,
                    "time": 821.4453434999918,
                    "velocity": 0.3937007874015748,
                    "duration": 0.11809162500003367
                },
                {
                    "name": "C#5",
                    "midi": 73,
                    "time": 822.3310306874919,
                    "velocity": 0.31496062992125984,
                    "duration": 0.05904581250001684
                },
                {
                    "name": "B4",
                    "midi": 71,
                    "time": 822.3900764999919,
                    "velocity": 0.3937007874015748,
                    "duration": 0.11809162500003367
                },
                {
                    "name": "B4",
                    "midi": 71,
                    "time": 822.8624429999919,
                    "velocity": 0.4015748031496063,
                    "duration": 0.472366500000021
                },
                {
                    "name": "G#4",
                    "midi": 68,
                    "time": 822.8624429999919,
                    "velocity": 0.33858267716535434,
                    "duration": 0.944733000000042
                },
                {
                    "name": "C5",
                    "midi": 72,
                    "time": 823.3348094999919,
                    "velocity": 0.4015748031496063,
                    "duration": 0.472366500000021
                },
                {
                    "name": "A4",
                    "midi": 69,
                    "time": 823.807175999992,
                    "velocity": 0.31496062992125984,
                    "duration": 0.472366500000021
                },
                {
                    "name": "C#5",
                    "midi": 73,
                    "time": 823.807175999992,
                    "velocity": 0.3779527559055118,
                    "duration": 0.472366500000021
                },
                {
                    "name": "C#5",
                    "midi": 73,
                    "time": 824.751908999992,
                    "velocity": 0.6456692913385826,
                    "duration": 0.23618324999995366
                },
                {
                    "name": "A4",
                    "midi": 69,
                    "time": 824.988092249992,
                    "velocity": 0.5196850393700787,
                    "duration": 0.23618324999995366
                },
                {
                    "name": "E5",
                    "midi": 76,
                    "time": 825.2242754999919,
                    "velocity": 0.6377952755905512,
                    "duration": 0.23618324999995366
                },
                {
                    "name": "C#5",
                    "midi": 73,
                    "time": 825.4604587499919,
                    "velocity": 0.5196850393700787,
                    "duration": 0.23618324999995366
                },
                {
                    "name": "D5",
                    "midi": 74,
                    "time": 825.6966419999918,
                    "velocity": 0.6692913385826772,
                    "duration": 0.23618324999995366
                },
                {
                    "name": "B4",
                    "midi": 71,
                    "time": 825.9328252499918,
                    "velocity": 0.5196850393700787,
                    "duration": 0.23618324999995366
                },
                {
                    "name": "F#5",
                    "midi": 78,
                    "time": 826.1690084999917,
                    "velocity": 0.6220472440944882,
                    "duration": 0.23618324999995366
                },
                {
                    "name": "D5",
                    "midi": 74,
                    "time": 826.4051917499917,
                    "velocity": 0.5196850393700787,
                    "duration": 0.23618324999995366
                },
                {
                    "name": "E5",
                    "midi": 76,
                    "time": 826.6413749999916,
                    "velocity": 0.6456692913385826,
                    "duration": 0.23618324999995366
                },
                {
                    "name": "C#5",
                    "midi": 73,
                    "time": 826.8775582499916,
                    "velocity": 0.5433070866141733,
                    "duration": 0.23618324999995366
                },
                {
                    "name": "A5",
                    "midi": 81,
                    "time": 827.1137414999915,
                    "velocity": 0.5826771653543307,
                    "duration": 0.23618324999995366
                },
                {
                    "name": "E5",
                    "midi": 76,
                    "time": 827.3499247499915,
                    "velocity": 0.5433070866141733,
                    "duration": 0.23618324999995366
                },
                {
                    "name": "G#5",
                    "midi": 80,
                    "time": 827.5861079999914,
                    "velocity": 0.6535433070866141,
                    "duration": 0.23618324999995366
                },
                {
                    "name": "F#5",
                    "midi": 78,
                    "time": 827.8222912499914,
                    "velocity": 0.5590551181102362,
                    "duration": 0.23618324999995366
                },
                {
                    "name": "E5",
                    "midi": 76,
                    "time": 828.0584744999913,
                    "velocity": 0.5590551181102362,
                    "duration": 0.23618324999995366
                },
                {
                    "name": "D5",
                    "midi": 74,
                    "time": 828.2946577499913,
                    "velocity": 0.5590551181102362,
                    "duration": 0.23618324999995366
                },
                {
                    "name": "C#5",
                    "midi": 73,
                    "time": 828.5308409999913,
                    "velocity": 0.6614173228346457,
                    "duration": 0.23618324999995366
                },
                {
                    "name": "E5",
                    "midi": 76,
                    "time": 828.7670242499912,
                    "velocity": 0.5433070866141733,
                    "duration": 0.23618324999995366
                },
                {
                    "name": "A4",
                    "midi": 69,
                    "time": 829.0032074999912,
                    "velocity": 0.6299212598425197,
                    "duration": 0.23618324999995366
                },
                {
                    "name": "C#5",
                    "midi": 73,
                    "time": 829.2393907499911,
                    "velocity": 0.5433070866141733,
                    "duration": 0.23618324999995366
                },
                {
                    "name": "B4",
                    "midi": 71,
                    "time": 829.4755739999911,
                    "velocity": 0.6377952755905512,
                    "duration": 0.23618324999995366
                },
                {
                    "name": "D5",
                    "midi": 74,
                    "time": 829.711757249991,
                    "velocity": 0.5433070866141733,
                    "duration": 0.23618324999995366
                },
                {
                    "name": "G#4",
                    "midi": 68,
                    "time": 829.947940499991,
                    "velocity": 0.6377952755905512,
                    "duration": 0.23618324999995366
                },
                {
                    "name": "B4",
                    "midi": 71,
                    "time": 830.1841237499909,
                    "velocity": 0.5433070866141733,
                    "duration": 0.23618324999995366
                },
                {
                    "name": "A4",
                    "midi": 69,
                    "time": 830.4203069999909,
                    "velocity": 0.6220472440944882,
                    "duration": 0.23618324999995366
                },
                {
                    "name": "E4",
                    "midi": 64,
                    "time": 830.6564902499908,
                    "velocity": 0.5433070866141733,
                    "duration": 0.23618324999995366
                },
                {
                    "name": "C#4",
                    "midi": 61,
                    "time": 830.8926734999908,
                    "velocity": 0.5433070866141733,
                    "duration": 0.23618324999995366
                },
                {
                    "name": "E4",
                    "midi": 64,
                    "time": 831.1288567499907,
                    "velocity": 0.5433070866141733,
                    "duration": 0.23618324999995366
                },
                {
                    "name": "A4",
                    "midi": 69,
                    "time": 831.3650399999907,
                    "velocity": 0.6456692913385826,
                    "duration": 0.8266413750000083
                },
                {
                    "name": "A4",
                    "midi": 69,
                    "time": 832.3097729999907,
                    "velocity": 0.4330708661417323,
                    "duration": 0.23618324999995366
                },
                {
                    "name": "B4",
                    "midi": 71,
                    "time": 832.5459562499907,
                    "velocity": 0.3858267716535433,
                    "duration": 0.23618324999995366
                },
                {
                    "name": "C#5",
                    "midi": 73,
                    "time": 832.7821394999906,
                    "velocity": 0.3937007874015748,
                    "duration": 0.23618324999995366
                },
                {
                    "name": "D5",
                    "midi": 74,
                    "time": 833.0183227499906,
                    "velocity": 0.3937007874015748,
                    "duration": 0.23618324999995366
                },
                {
                    "name": "E5",
                    "midi": 76,
                    "time": 833.2545059999906,
                    "velocity": 0.4015748031496063,
                    "duration": 0.23618324999995366
                },
                {
                    "name": "F#5",
                    "midi": 78,
                    "time": 833.4906892499905,
                    "velocity": 0.4094488188976378,
                    "duration": 0.23618324999995366
                },
                {
                    "name": "G#5",
                    "midi": 80,
                    "time": 833.7268724999905,
                    "velocity": 0.41732283464566927,
                    "duration": 0.23618324999995366
                },
                {
                    "name": "A5",
                    "midi": 81,
                    "time": 833.9630557499904,
                    "velocity": 0.4251968503937008,
                    "duration": 0.23618324999995366
                },
                {
                    "name": "G#5",
                    "midi": 80,
                    "time": 834.1992389999904,
                    "velocity": 0.4409448818897638,
                    "duration": 0.23618324999995366
                },
                {
                    "name": "F#5",
                    "midi": 78,
                    "time": 834.4354222499903,
                    "velocity": 0.3937007874015748,
                    "duration": 0.23618324999995366
                },
                {
                    "name": "F5",
                    "midi": 77,
                    "time": 834.6716054999903,
                    "velocity": 0.4094488188976378,
                    "duration": 0.23618324999995366
                },
                {
                    "name": "F#5",
                    "midi": 78,
                    "time": 834.9077887499902,
                    "velocity": 0.3937007874015748,
                    "duration": 0.23618324999995366
                },
                {
                    "name": "F5",
                    "midi": 77,
                    "time": 835.1439719999902,
                    "velocity": 0.4094488188976378,
                    "duration": 0.23618324999995366
                },
                {
                    "name": "F#5",
                    "midi": 78,
                    "time": 835.3801552499901,
                    "velocity": 0.3937007874015748,
                    "duration": 0.23618324999995366
                },
                {
                    "name": "F5",
                    "midi": 77,
                    "time": 835.6163384999901,
                    "velocity": 0.4094488188976378,
                    "duration": 0.23618324999995366
                },
                {
                    "name": "F#5",
                    "midi": 78,
                    "time": 835.85252174999,
                    "velocity": 0.3937007874015748,
                    "duration": 0.23618324999995366
                },
                {
                    "name": "A5",
                    "midi": 81,
                    "time": 836.08870499999,
                    "velocity": 0.4330708661417323,
                    "duration": 0.23618324999995366
                },
                {
                    "name": "G#5",
                    "midi": 80,
                    "time": 836.32488824999,
                    "velocity": 0.4015748031496063,
                    "duration": 0.23618324999995366
                },
                {
                    "name": "A5",
                    "midi": 81,
                    "time": 836.5610714999899,
                    "velocity": 0.4330708661417323,
                    "duration": 0.23618324999995366
                },
                {
                    "name": "G#5",
                    "midi": 80,
                    "time": 836.7972547499899,
                    "velocity": 0.4015748031496063,
                    "duration": 0.23618324999995366
                },
                {
                    "name": "B5",
                    "midi": 83,
                    "time": 837.0334379999898,
                    "velocity": 0.4251968503937008,
                    "duration": 0.23618324999995366
                },
                {
                    "name": "A5",
                    "midi": 81,
                    "time": 837.2696212499898,
                    "velocity": 0.4330708661417323,
                    "duration": 0.23618324999995366
                },
                {
                    "name": "G#5",
                    "midi": 80,
                    "time": 837.5058044999897,
                    "velocity": 0.4409448818897638,
                    "duration": 0.23618324999995366
                },
                {
                    "name": "F#5",
                    "midi": 78,
                    "time": 837.7419877499897,
                    "velocity": 0.4566929133858268,
                    "duration": 0.23618324999995366
                },
                {
                    "name": "F#5",
                    "midi": 78,
                    "time": 837.9781709999896,
                    "velocity": 0.4645669291338583,
                    "duration": 0.23618324999995366
                },
                {
                    "name": "E5",
                    "midi": 76,
                    "time": 838.2143542499896,
                    "velocity": 0.4251968503937008,
                    "duration": 0.23618324999995366
                },
                {
                    "name": "D#5",
                    "midi": 75,
                    "time": 838.4505374999895,
                    "velocity": 0.4566929133858268,
                    "duration": 0.23618324999995366
                },
                {
                    "name": "E5",
                    "midi": 76,
                    "time": 838.6867207499895,
                    "velocity": 0.4094488188976378,
                    "duration": 0.23618324999995366
                },
                {
                    "name": "D#5",
                    "midi": 75,
                    "time": 838.9229039999894,
                    "velocity": 0.4251968503937008,
                    "duration": 0.23618324999995366
                },
                {
                    "name": "E5",
                    "midi": 76,
                    "time": 839.1590872499894,
                    "velocity": 0.3937007874015748,
                    "duration": 0.23618324999995366
                },
                {
                    "name": "D#5",
                    "midi": 75,
                    "time": 839.3952704999894,
                    "velocity": 0.4330708661417323,
                    "duration": 0.23618324999995366
                },
                {
                    "name": "E5",
                    "midi": 76,
                    "time": 839.6314537499893,
                    "velocity": 0.4015748031496063,
                    "duration": 0.23618324999995366
                },
                {
                    "name": "E5",
                    "midi": 76,
                    "time": 839.8676369999893,
                    "velocity": 0.5826771653543307,
                    "duration": 0.23618324999995366
                },
                {
                    "name": "A5",
                    "midi": 81,
                    "time": 840.1038202499892,
                    "velocity": 0.5669291338582677,
                    "duration": 0.23618324999995366
                },
                {
                    "name": "C#6",
                    "midi": 85,
                    "time": 840.3400034999892,
                    "velocity": 0.5905511811023622,
                    "duration": 0.23618324999995366
                },
                {
                    "name": "B5",
                    "midi": 83,
                    "time": 840.5761867499891,
                    "velocity": 0.5590551181102362,
                    "duration": 0.23618324999995366
                },
                {
                    "name": "A5",
                    "midi": 81,
                    "time": 840.8123699999891,
                    "velocity": 0.5826771653543307,
                    "duration": 0.23618324999995366
                },
                {
                    "name": "G#5",
                    "midi": 80,
                    "time": 841.048553249989,
                    "velocity": 0.5826771653543307,
                    "duration": 0.23618324999995366
                },
                {
                    "name": "F#5",
                    "midi": 78,
                    "time": 841.284736499989,
                    "velocity": 0.5748031496062992,
                    "duration": 0.23618324999995366
                },
                {
                    "name": "E5",
                    "midi": 76,
                    "time": 841.5209197499889,
                    "velocity": 0.5669291338582677,
                    "duration": 0.23618324999995366
                },
                {
                    "name": "D5",
                    "midi": 74,
                    "time": 841.7571029999889,
                    "velocity": 0.5826771653543307,
                    "duration": 0.23618324999995366
                },
                {
                    "name": "G#5",
                    "midi": 80,
                    "time": 841.9932862499888,
                    "velocity": 0.5433070866141733,
                    "duration": 0.23618324999995366
                },
                {
                    "name": "B5",
                    "midi": 83,
                    "time": 842.2294694999888,
                    "velocity": 0.6062992125984252,
                    "duration": 0.23618324999995366
                },
                {
                    "name": "A5",
                    "midi": 81,
                    "time": 842.4656527499887,
                    "velocity": 0.5748031496062992,
                    "duration": 0.23618324999995366
                },
                {
                    "name": "G#5",
                    "midi": 80,
                    "time": 842.7018359999887,
                    "velocity": 0.5984251968503937,
                    "duration": 0.23618324999995366
                },
                {
                    "name": "F#5",
                    "midi": 78,
                    "time": 842.9380192499887,
                    "velocity": 0.5826771653543307,
                    "duration": 0.23618324999995366
                },
                {
                    "name": "E5",
                    "midi": 76,
                    "time": 843.1742024999886,
                    "velocity": 0.5748031496062992,
                    "duration": 0.23618324999995366
                },
                {
                    "name": "D5",
                    "midi": 74,
                    "time": 843.4103857499886,
                    "velocity": 0.5590551181102362,
                    "duration": 0.23618324999995366
                },
                {
                    "name": "C#5",
                    "midi": 73,
                    "time": 843.6465689999885,
                    "velocity": 0.5748031496062992,
                    "duration": 0.25980157499998313
                },
                {
                    "name": "E5",
                    "midi": 76,
                    "time": 843.8827522499885,
                    "velocity": 0.5511811023622047,
                    "duration": 0.2598015750000968
                },
                {
                    "name": "A5",
                    "midi": 81,
                    "time": 844.1189354999885,
                    "velocity": 0.5748031496062992,
                    "duration": 0.2598015750000968
                },
                {
                    "name": "G#5",
                    "midi": 80,
                    "time": 844.3551187499886,
                    "velocity": 0.5511811023622047,
                    "duration": 0.2598015750000968
                },
                {
                    "name": "F#5",
                    "midi": 78,
                    "time": 844.5913019999887,
                    "velocity": 0.5748031496062992,
                    "duration": 0.2598015750000968
                },
                {
                    "name": "E5",
                    "midi": 76,
                    "time": 844.8274852499887,
                    "velocity": 0.5590551181102362,
                    "duration": 0.2598015750000968
                },
                {
                    "name": "D5",
                    "midi": 74,
                    "time": 845.0636684999888,
                    "velocity": 0.5748031496062992,
                    "duration": 0.2598015750000968
                },
                {
                    "name": "C#5",
                    "midi": 73,
                    "time": 845.2998517499889,
                    "velocity": 0.5511811023622047,
                    "duration": 0.2598015750000968
                },
                {
                    "name": "B4",
                    "midi": 71,
                    "time": 845.5360349999889,
                    "velocity": 0.5669291338582677,
                    "duration": 0.2598015750000968
                },
                {
                    "name": "A4",
                    "midi": 69,
                    "time": 845.772218249989,
                    "velocity": 0.5354330708661418,
                    "duration": 0.2598015750000968
                },
                {
                    "name": "G#4",
                    "midi": 68,
                    "time": 846.0084014999891,
                    "velocity": 0.5196850393700787,
                    "duration": 0.2598015750000968
                },
                {
                    "name": "F#4",
                    "midi": 66,
                    "time": 846.2445847499891,
                    "velocity": 0.5039370078740157,
                    "duration": 0.2598015750000968
                },
                {
                    "name": "E4",
                    "midi": 64,
                    "time": 846.4807679999892,
                    "velocity": 0.48031496062992124,
                    "duration": 0.23618325000006735
                },
                {
                    "name": "C#5",
                    "midi": 73,
                    "time": 847.4255009999893,
                    "velocity": 0.3937007874015748,
                    "duration": 0.11809162500003367
                },
                {
                    "name": "D5",
                    "midi": 74,
                    "time": 847.8388216874893,
                    "velocity": 0.3700787401574803,
                    "duration": 0.05904581250001684
                },
                {
                    "name": "C#5",
                    "midi": 73,
                    "time": 847.8978674999893,
                    "velocity": 0.3700787401574803,
                    "duration": 0.23618324999995366
                },
                {
                    "name": "B4",
                    "midi": 71,
                    "time": 848.1340507499892,
                    "velocity": 0.4094488188976378,
                    "duration": 0.23618324999995366
                },
                {
                    "name": "C#5",
                    "midi": 73,
                    "time": 848.3702339999892,
                    "velocity": 0.3700787401574803,
                    "duration": 0.11809162500003367
                },
                {
                    "name": "D5",
                    "midi": 74,
                    "time": 848.8426004999892,
                    "velocity": 0.4015748031496063,
                    "duration": 0.11809162500003367
                },
                {
                    "name": "F#5",
                    "midi": 78,
                    "time": 849.3149669999892,
                    "velocity": 0.41732283464566927,
                    "duration": 0.472366500000021
                },
                {
                    "name": "E5",
                    "midi": 76,
                    "time": 849.7873334999892,
                    "velocity": 0.36220472440944884,
                    "duration": 0.472366500000021
                },
                {
                    "name": "D5",
                    "midi": 74,
                    "time": 850.2596999999893,
                    "velocity": 0.4015748031496063,
                    "duration": 0.11809162500003367
                },
                {
                    "name": "C#5",
                    "midi": 73,
                    "time": 850.7320664999893,
                    "velocity": 0.3858267716535433,
                    "duration": 0.11809162500003367
                },
                {
                    "name": "B4",
                    "midi": 71,
                    "time": 851.2044329999893,
                    "velocity": 0.3937007874015748,
                    "duration": 0.11809162500003367
                },
                {
                    "name": "C#5",
                    "midi": 73,
                    "time": 851.6177536874893,
                    "velocity": 0.36220472440944884,
                    "duration": 0.05904581250001684
                },
                {
                    "name": "B4",
                    "midi": 71,
                    "time": 851.6767994999893,
                    "velocity": 0.36220472440944884,
                    "duration": 0.23618324999995366
                },
                {
                    "name": "A#4",
                    "midi": 70,
                    "time": 851.9129827499893,
                    "velocity": 0.3937007874015748,
                    "duration": 0.23618324999995366
                },
                {
                    "name": "B4",
                    "midi": 71,
                    "time": 852.1491659999892,
                    "velocity": 0.36220472440944884,
                    "duration": 0.11809162500003367
                },
                {
                    "name": "C#5",
                    "midi": 73,
                    "time": 852.6215324999893,
                    "velocity": 0.3700787401574803,
                    "duration": 0.11809162500003367
                },
                {
                    "name": "E5",
                    "midi": 76,
                    "time": 853.0938989999893,
                    "velocity": 0.3937007874015748,
                    "duration": 0.472366500000021
                },
                {
                    "name": "D5",
                    "midi": 74,
                    "time": 853.5662654999893,
                    "velocity": 0.3700787401574803,
                    "duration": 0.472366500000021
                },
                {
                    "name": "C#5",
                    "midi": 73,
                    "time": 854.0386319999893,
                    "velocity": 0.3700787401574803,
                    "duration": 0.11809162500003367
                },
                {
                    "name": "B4",
                    "midi": 71,
                    "time": 854.5109984999893,
                    "velocity": 0.3700787401574803,
                    "duration": 0.11809162500003367
                },
                {
                    "name": "G#4",
                    "midi": 68,
                    "time": 854.9833649999894,
                    "velocity": 0.41732283464566927,
                    "duration": 0.472366500000021
                },
                {
                    "name": "A4",
                    "midi": 69,
                    "time": 855.4557314999894,
                    "velocity": 0.3937007874015748,
                    "duration": 0.11809162500003367
                },
                {
                    "name": "B4",
                    "midi": 71,
                    "time": 856.4004644999894,
                    "velocity": 0.3937007874015748,
                    "duration": 0.11809162500003367
                },
                {
                    "name": "C5",
                    "midi": 72,
                    "time": 857.2861516874895,
                    "velocity": 0.31496062992125984,
                    "duration": 0.05904581250001684
                },
                {
                    "name": "C#5",
                    "midi": 73,
                    "time": 857.3451974999895,
                    "velocity": 0.3937007874015748,
                    "duration": 0.11809162500003367
                },
                {
                    "name": "E5",
                    "midi": 76,
                    "time": 858.2308846874895,
                    "velocity": 0.31496062992125984,
                    "duration": 0.05904581250001684
                },
                {
                    "name": "D5",
                    "midi": 74,
                    "time": 858.2899304999895,
                    "velocity": 0.3937007874015748,
                    "duration": 0.11809162500003367
                },
                {
                    "name": "D5",
                    "midi": 74,
                    "time": 859.1756176874895,
                    "velocity": 0.31496062992125984,
                    "duration": 0.05904581250001684
                },
                {
                    "name": "C#5",
                    "midi": 73,
                    "time": 859.2346634999896,
                    "velocity": 0.3937007874015748,
                    "duration": 0.11809162500003367
                },
                {
                    "name": "C#5",
                    "midi": 73,
                    "time": 860.1203506874896,
                    "velocity": 0.31496062992125984,
                    "duration": 0.05904581250001684
                },
                {
                    "name": "B4",
                    "midi": 71,
                    "time": 860.1793964999896,
                    "velocity": 0.3937007874015748,
                    "duration": 0.11809162500003367
                },
                {
                    "name": "B4",
                    "midi": 71,
                    "time": 860.6517629999896,
                    "velocity": 0.4015748031496063,
                    "duration": 0.472366500000021
                },
                {
                    "name": "G#4",
                    "midi": 68,
                    "time": 860.6517629999896,
                    "velocity": 0.33858267716535434,
                    "duration": 0.944733000000042
                },
                {
                    "name": "C5",
                    "midi": 72,
                    "time": 861.1241294999896,
                    "velocity": 0.4015748031496063,
                    "duration": 0.472366500000021
                },
                {
                    "name": "A4",
                    "midi": 69,
                    "time": 861.5964959999897,
                    "velocity": 0.31496062992125984,
                    "duration": 0.472366500000021
                },
                {
                    "name": "C#5",
                    "midi": 73,
                    "time": 861.5964959999897,
                    "velocity": 0.3779527559055118,
                    "duration": 0.472366500000021
                },
                {
                    "name": "C#5",
                    "midi": 73,
                    "time": 862.5412289999897,
                    "velocity": 0.6456692913385826,
                    "duration": 0.23618324999995366
                },
                {
                    "name": "A4",
                    "midi": 69,
                    "time": 862.7774122499897,
                    "velocity": 0.5196850393700787,
                    "duration": 0.23618324999995366
                },
                {
                    "name": "E5",
                    "midi": 76,
                    "time": 863.0135954999896,
                    "velocity": 0.6377952755905512,
                    "duration": 0.23618324999995366
                },
                {
                    "name": "C#5",
                    "midi": 73,
                    "time": 863.2497787499896,
                    "velocity": 0.5196850393700787,
                    "duration": 0.23618324999995366
                },
                {
                    "name": "D5",
                    "midi": 74,
                    "time": 863.4859619999895,
                    "velocity": 0.6692913385826772,
                    "duration": 0.23618324999995366
                },
                {
                    "name": "B4",
                    "midi": 71,
                    "time": 863.7221452499895,
                    "velocity": 0.5196850393700787,
                    "duration": 0.23618324999995366
                },
                {
                    "name": "F#5",
                    "midi": 78,
                    "time": 863.9583284999894,
                    "velocity": 0.6220472440944882,
                    "duration": 0.23618324999995366
                },
                {
                    "name": "D5",
                    "midi": 74,
                    "time": 864.1945117499894,
                    "velocity": 0.5196850393700787,
                    "duration": 0.23618324999995366
                },
                {
                    "name": "E5",
                    "midi": 76,
                    "time": 864.4306949999893,
                    "velocity": 0.6456692913385826,
                    "duration": 0.23618324999995366
                },
                {
                    "name": "C#5",
                    "midi": 73,
                    "time": 864.6668782499893,
                    "velocity": 0.5433070866141733,
                    "duration": 0.23618324999995366
                },
                {
                    "name": "A5",
                    "midi": 81,
                    "time": 864.9030614999892,
                    "velocity": 0.5826771653543307,
                    "duration": 0.23618324999995366
                },
                {
                    "name": "E5",
                    "midi": 76,
                    "time": 865.1392447499892,
                    "velocity": 0.5433070866141733,
                    "duration": 0.23618324999995366
                },
                {
                    "name": "G#5",
                    "midi": 80,
                    "time": 865.3754279999891,
                    "velocity": 0.6535433070866141,
                    "duration": 0.23618324999995366
                },
                {
                    "name": "F#5",
                    "midi": 78,
                    "time": 865.6116112499891,
                    "velocity": 0.5590551181102362,
                    "duration": 0.23618324999995366
                },
                {
                    "name": "E5",
                    "midi": 76,
                    "time": 865.847794499989,
                    "velocity": 0.5590551181102362,
                    "duration": 0.23618324999995366
                },
                {
                    "name": "D5",
                    "midi": 74,
                    "time": 866.083977749989,
                    "velocity": 0.5590551181102362,
                    "duration": 0.23618324999995366
                },
                {
                    "name": "C#5",
                    "midi": 73,
                    "time": 866.320160999989,
                    "velocity": 0.6614173228346457,
                    "duration": 0.23618324999995366
                },
                {
                    "name": "E5",
                    "midi": 76,
                    "time": 866.5563442499889,
                    "velocity": 0.5433070866141733,
                    "duration": 0.23618324999995366
                },
                {
                    "name": "A4",
                    "midi": 69,
                    "time": 866.7925274999889,
                    "velocity": 0.6299212598425197,
                    "duration": 0.23618324999995366
                },
                {
                    "name": "C#5",
                    "midi": 73,
                    "time": 867.0287107499888,
                    "velocity": 0.5433070866141733,
                    "duration": 0.23618324999995366
                },
                {
                    "name": "B4",
                    "midi": 71,
                    "time": 867.2648939999888,
                    "velocity": 0.6377952755905512,
                    "duration": 0.23618324999995366
                },
                {
                    "name": "D5",
                    "midi": 74,
                    "time": 867.5010772499887,
                    "velocity": 0.5433070866141733,
                    "duration": 0.23618324999995366
                },
                {
                    "name": "G#4",
                    "midi": 68,
                    "time": 867.7372604999887,
                    "velocity": 0.6377952755905512,
                    "duration": 0.23618324999995366
                },
                {
                    "name": "B4",
                    "midi": 71,
                    "time": 867.9734437499886,
                    "velocity": 0.5433070866141733,
                    "duration": 0.21650131249998594
                },
                {
                    "name": "A4",
                    "midi": 69,
                    "time": 868.2096269999886,
                    "velocity": 0.4015748031496063,
                    "duration": 0.23618324999995366
                },
                {
                    "name": "B4",
                    "midi": 71,
                    "time": 868.4458102499885,
                    "velocity": 0.3858267716535433,
                    "duration": 0.23618324999995366
                },
                {
                    "name": "C#5",
                    "midi": 73,
                    "time": 868.6819934999885,
                    "velocity": 0.3937007874015748,
                    "duration": 0.23618324999995366
                },
                {
                    "name": "D5",
                    "midi": 74,
                    "time": 868.9181767499884,
                    "velocity": 0.4015748031496063,
                    "duration": 0.23618324999995366
                },
                {
                    "name": "E5",
                    "midi": 76,
                    "time": 869.1543599999884,
                    "velocity": 0.4094488188976378,
                    "duration": 0.23618324999995366
                },
                {
                    "name": "F#5",
                    "midi": 78,
                    "time": 869.3905432499884,
                    "velocity": 0.41732283464566927,
                    "duration": 0.23618324999995366
                },
                {
                    "name": "G#5",
                    "midi": 80,
                    "time": 869.6267264999883,
                    "velocity": 0.4251968503937008,
                    "duration": 0.23618324999995366
                },
                {
                    "name": "A5",
                    "midi": 81,
                    "time": 869.8629097499883,
                    "velocity": 0.4330708661417323,
                    "duration": 0.19681937500001823
                },
                {
                    "name": "G#5",
                    "midi": 80,
                    "time": 870.0990929999883,
                    "velocity": 0.4330708661417323,
                    "duration": 0.23618324999995366
                },
                {
                    "name": "F#5",
                    "midi": 78,
                    "time": 870.3352762499883,
                    "velocity": 0.4015748031496063,
                    "duration": 0.23618324999995366
                },
                {
                    "name": "F5",
                    "midi": 77,
                    "time": 870.5714594999882,
                    "velocity": 0.4330708661417323,
                    "duration": 0.23618324999995366
                },
                {
                    "name": "F#5",
                    "midi": 78,
                    "time": 870.8076427499882,
                    "velocity": 0.4015748031496063,
                    "duration": 0.23618324999995366
                },
                {
                    "name": "B5",
                    "midi": 83,
                    "time": 871.0438259999881,
                    "velocity": 0.3779527559055118,
                    "duration": 0.23618324999995366
                },
                {
                    "name": "A5",
                    "midi": 81,
                    "time": 871.2800092499881,
                    "velocity": 0.3937007874015748,
                    "duration": 0.23618324999995366
                },
                {
                    "name": "G#5",
                    "midi": 80,
                    "time": 871.516192499988,
                    "velocity": 0.4094488188976378,
                    "duration": 0.11809162500003367
                },
                {
                    "name": "F#5",
                    "midi": 78,
                    "time": 871.7523757499881,
                    "velocity": 0.4251968503937008,
                    "duration": 0.11809162500003367
                },
                {
                    "name": "F#5",
                    "midi": 78,
                    "time": 871.9885589999882,
                    "velocity": 0.4409448818897638,
                    "duration": 0.23618324999995366
                },
                {
                    "name": "E5",
                    "midi": 76,
                    "time": 872.2247422499881,
                    "velocity": 0.3700787401574803,
                    "duration": 0.23618324999995366
                },
                {
                    "name": "D#5",
                    "midi": 75,
                    "time": 872.4609254999881,
                    "velocity": 0.4251968503937008,
                    "duration": 0.23618324999995366
                },
                {
                    "name": "E5",
                    "midi": 76,
                    "time": 872.697108749988,
                    "velocity": 0.3700787401574803,
                    "duration": 0.23618324999995366
                },
                {
                    "name": "A4",
                    "midi": 69,
                    "time": 872.933291999988,
                    "velocity": 0.4094488188976378,
                    "duration": 0.23618324999995366
                },
                {
                    "name": "C#5",
                    "midi": 73,
                    "time": 873.169475249988,
                    "velocity": 0.36220472440944884,
                    "duration": 0.23618324999995366
                },
                {
                    "name": "E5",
                    "midi": 76,
                    "time": 873.4056584999879,
                    "velocity": 0.4094488188976378,
                    "duration": 0.23618324999995366
                },
                {
                    "name": "A5",
                    "midi": 81,
                    "time": 873.6418417499879,
                    "velocity": 0.36220472440944884,
                    "duration": 0.23618324999995366
                },
                {
                    "name": "G#5",
                    "midi": 80,
                    "time": 873.8780249999878,
                    "velocity": 0.4330708661417323,
                    "duration": 0.23618324999995366
                },
                {
                    "name": "F#5",
                    "midi": 78,
                    "time": 874.1142082499878,
                    "velocity": 0.4015748031496063,
                    "duration": 0.23618324999995366
                },
                {
                    "name": "F5",
                    "midi": 77,
                    "time": 874.3503914999877,
                    "velocity": 0.4330708661417323,
                    "duration": 0.23618324999995366
                },
                {
                    "name": "F#5",
                    "midi": 78,
                    "time": 874.5865747499877,
                    "velocity": 0.4015748031496063,
                    "duration": 0.23618324999995366
                },
                {
                    "name": "B5",
                    "midi": 83,
                    "time": 874.8227579999876,
                    "velocity": 0.3779527559055118,
                    "duration": 0.23618324999995366
                },
                {
                    "name": "A5",
                    "midi": 81,
                    "time": 875.0589412499876,
                    "velocity": 0.3937007874015748,
                    "duration": 0.23618324999995366
                },
                {
                    "name": "G#5",
                    "midi": 80,
                    "time": 875.2951244999875,
                    "velocity": 0.4094488188976378,
                    "duration": 0.11809162500003367
                },
                {
                    "name": "F#5",
                    "midi": 78,
                    "time": 875.5313077499876,
                    "velocity": 0.4251968503937008,
                    "duration": 0.11809162500003367
                },
                {
                    "name": "E5",
                    "midi": 76,
                    "time": 875.7674909999877,
                    "velocity": 0.4094488188976378,
                    "duration": 0.7006769749999648
                },
                {
                    "name": "E5",
                    "midi": 76,
                    "time": 876.4760407499876,
                    "velocity": 0.4094488188976378,
                    "duration": 0.11809162500003367
                },
                {
                    "name": "F#5",
                    "midi": 78,
                    "time": 876.5941323749877,
                    "velocity": 0.2992125984251969,
                    "duration": 0.03936387500004912
                },
                {
                    "name": "E5",
                    "midi": 76,
                    "time": 876.6334962499877,
                    "velocity": 0.29133858267716534,
                    "duration": 0.03936387500004912
                },
                {
                    "name": "D#5",
                    "midi": 75,
                    "time": 876.6728601249878,
                    "velocity": 0.29133858267716534,
                    "duration": 0.03936387500004912
                },
                {
                    "name": "E5",
                    "midi": 76,
                    "time": 876.7122239999878,
                    "velocity": 0.4094488188976378,
                    "duration": 0.944733000000042
                },
                {
                    "name": "D5",
                    "midi": 74,
                    "time": 878.3655067499878,
                    "velocity": 0.4094488188976378,
                    "duration": 0.11809162500003367
                },
                {
                    "name": "E5",
                    "midi": 76,
                    "time": 878.4835983749879,
                    "velocity": 0.2755905511811024,
                    "duration": 0.03936387500004912
                },
                {
                    "name": "D5",
                    "midi": 74,
                    "time": 878.5229622499879,
                    "velocity": 0.2755905511811024,
                    "duration": 0.03936387500004912
                },
                {
                    "name": "C#5",
                    "midi": 73,
                    "time": 878.562326124988,
                    "velocity": 0.2755905511811024,
                    "duration": 0.03936387500004912
                },
                {
                    "name": "D5",
                    "midi": 74,
                    "time": 878.601689999988,
                    "velocity": 0.4094488188976378,
                    "duration": 0.944733000000042
                },
                {
                    "name": "C#5",
                    "midi": 73,
                    "time": 880.254972749988,
                    "velocity": 0.4094488188976378,
                    "duration": 0.11809162500003367
                },
                {
                    "name": "D5",
                    "midi": 74,
                    "time": 880.3730643749881,
                    "velocity": 0.28346456692913385,
                    "duration": 0.03936387500004912
                },
                {
                    "name": "C#5",
                    "midi": 73,
                    "time": 880.4124282499881,
                    "velocity": 0.28346456692913385,
                    "duration": 0.03936387500004912
                },
                {
                    "name": "B4",
                    "midi": 71,
                    "time": 880.4517921249882,
                    "velocity": 0.28346456692913385,
                    "duration": 0.03936387500004912
                },
                {
                    "name": "C#5",
                    "midi": 73,
                    "time": 880.4911559999882,
                    "velocity": 0.4094488188976378,
                    "duration": 0.944733000000042
                },
                {
                    "name": "B4",
                    "midi": 71,
                    "time": 882.1444387499882,
                    "velocity": 0.4094488188976378,
                    "duration": 0.11809162500003367
                },
                {
                    "name": "C#5",
                    "midi": 73,
                    "time": 882.2625303749883,
                    "velocity": 0.2755905511811024,
                    "duration": 0.03936387500004912
                },
                {
                    "name": "B4",
                    "midi": 71,
                    "time": 882.3018942499883,
                    "velocity": 0.2755905511811024,
                    "duration": 0.03936387500004912
                },
                {
                    "name": "A4",
                    "midi": 69,
                    "time": 882.3412581249884,
                    "velocity": 0.2755905511811024,
                    "duration": 0.03936387500004912
                },
                {
                    "name": "B4",
                    "midi": 71,
                    "time": 882.3806219999884,
                    "velocity": 0.4094488188976378,
                    "duration": 0.944733000000042
                },
                {
                    "name": "E5",
                    "midi": 76,
                    "time": 883.5615382499884,
                    "velocity": 0.47244094488188976,
                    "duration": 0.23618324999995366
                },
                {
                    "name": "D#5",
                    "midi": 75,
                    "time": 883.7977214999884,
                    "velocity": 0.5590551181102362,
                    "duration": 0.23618324999995366
                },
                {
                    "name": "E5",
                    "midi": 76,
                    "time": 884.0339047499883,
                    "velocity": 0.5039370078740157,
                    "duration": 0.23618324999995366
                },
                {
                    "name": "F#5",
                    "midi": 78,
                    "time": 884.2700879999883,
                    "velocity": 0.5590551181102362,
                    "duration": 0.23618324999995366
                },
                {
                    "name": "E5",
                    "midi": 76,
                    "time": 884.5062712499882,
                    "velocity": 0.5039370078740157,
                    "duration": 0.23618324999995366
                },
                {
                    "name": "D#5",
                    "midi": 75,
                    "time": 884.7424544999882,
                    "velocity": 0.5039370078740157,
                    "duration": 0.23618324999995366
                },
                {
                    "name": "E5",
                    "midi": 76,
                    "time": 884.9786377499881,
                    "velocity": 0.5039370078740157,
                    "duration": 0.23618324999995366
                },
                {
                    "name": "D5",
                    "midi": 74,
                    "time": 885.451004249988,
                    "velocity": 0.47244094488188976,
                    "duration": 0.23618324999995366
                },
                {
                    "name": "C#5",
                    "midi": 73,
                    "time": 885.687187499988,
                    "velocity": 0.5590551181102362,
                    "duration": 0.23618324999995366
                },
                {
                    "name": "D5",
                    "midi": 74,
                    "time": 885.923370749988,
                    "velocity": 0.5039370078740157,
                    "duration": 0.23618324999995366
                },
                {
                    "name": "E5",
                    "midi": 76,
                    "time": 886.1595539999879,
                    "velocity": 0.5590551181102362,
                    "duration": 0.23618324999995366
                },
                {
                    "name": "D5",
                    "midi": 74,
                    "time": 886.3957372499879,
                    "velocity": 0.5039370078740157,
                    "duration": 0.23618324999995366
                },
                {
                    "name": "C#5",
                    "midi": 73,
                    "time": 886.6319204999878,
                    "velocity": 0.5039370078740157,
                    "duration": 0.23618324999995366
                },
                {
                    "name": "D5",
                    "midi": 74,
                    "time": 886.8681037499878,
                    "velocity": 0.5039370078740157,
                    "duration": 0.23618324999995366
                },
                {
                    "name": "C#5",
                    "midi": 73,
                    "time": 887.3404702499877,
                    "velocity": 0.47244094488188976,
                    "duration": 0.23618324999995366
                },
                {
                    "name": "C5",
                    "midi": 72,
                    "time": 887.5766534999876,
                    "velocity": 0.5590551181102362,
                    "duration": 0.23618324999995366
                },
                {
                    "name": "C#5",
                    "midi": 73,
                    "time": 887.8128367499876,
                    "velocity": 0.5039370078740157,
                    "duration": 0.23618324999995366
                },
                {
                    "name": "D5",
                    "midi": 74,
                    "time": 888.0490199999875,
                    "velocity": 0.5590551181102362,
                    "duration": 0.23618324999995366
                },
                {
                    "name": "C#5",
                    "midi": 73,
                    "time": 888.2852032499875,
                    "velocity": 0.5039370078740157,
                    "duration": 0.23618324999995366
                },
                {
                    "name": "C5",
                    "midi": 72,
                    "time": 888.5213864999874,
                    "velocity": 0.5039370078740157,
                    "duration": 0.23618324999995366
                },
                {
                    "name": "C#5",
                    "midi": 73,
                    "time": 888.7575697499874,
                    "velocity": 0.5039370078740157,
                    "duration": 0.23618324999995366
                },
                {
                    "name": "B4",
                    "midi": 71,
                    "time": 889.2299362499873,
                    "velocity": 0.47244094488188976,
                    "duration": 0.23618324999995366
                },
                {
                    "name": "A#4",
                    "midi": 70,
                    "time": 889.4661194999873,
                    "velocity": 0.5590551181102362,
                    "duration": 0.23618324999995366
                },
                {
                    "name": "B4",
                    "midi": 71,
                    "time": 889.7023027499872,
                    "velocity": 0.5039370078740157,
                    "duration": 0.23618324999995366
                },
                {
                    "name": "C#5",
                    "midi": 73,
                    "time": 889.9384859999872,
                    "velocity": 0.5590551181102362,
                    "duration": 0.23618324999995366
                },
                {
                    "name": "B4",
                    "midi": 71,
                    "time": 890.1746692499871,
                    "velocity": 0.5039370078740157,
                    "duration": 0.23618324999995366
                },
                {
                    "name": "A#4",
                    "midi": 70,
                    "time": 890.4108524999871,
                    "velocity": 0.5039370078740157,
                    "duration": 0.23618324999995366
                },
                {
                    "name": "B4",
                    "midi": 71,
                    "time": 890.647035749987,
                    "velocity": 0.5039370078740157,
                    "duration": 0.23618324999995366
                },
                {
                    "name": "A4",
                    "midi": 69,
                    "time": 890.883218999987,
                    "velocity": 0.5748031496062992,
                    "duration": 0.23618324999995366
                },
                {
                    "name": "C#5",
                    "midi": 73,
                    "time": 891.3555854999869,
                    "velocity": 0.3937007874015748,
                    "duration": 0.23618324999995366
                },
                {
                    "name": "A4",
                    "midi": 69,
                    "time": 891.5917687499868,
                    "velocity": 0.3858267716535433,
                    "duration": 0.23618324999995366
                },
                {
                    "name": "E5",
                    "midi": 76,
                    "time": 891.8279519999868,
                    "velocity": 0.4330708661417323,
                    "duration": 0.23618324999995366
                },
                {
                    "name": "D5",
                    "midi": 74,
                    "time": 892.0641352499867,
                    "velocity": 0.3779527559055118,
                    "duration": 0.23618324999995366
                },
                {
                    "name": "B4",
                    "midi": 71,
                    "time": 892.3003184999867,
                    "velocity": 0.3779527559055118,
                    "duration": 0.11809162500003367
                },
                {
                    "name": "G#4",
                    "midi": 68,
                    "time": 892.5365017499868,
                    "velocity": 0.3700787401574803,
                    "duration": 0.11809162500003367
                },
                {
                    "name": "A4",
                    "midi": 69,
                    "time": 892.7726849999868,
                    "velocity": 0.47244094488188976,
                    "duration": 0.944733000000042
                },
                {
                    "name": "G#4",
                    "midi": 68,
                    "time": 893.7174179999869,
                    "velocity": 0.5275590551181102,
                    "duration": 0.23618324999995366
                },
                {
                    "name": "B4",
                    "midi": 71,
                    "time": 893.7174179999869,
                    "velocity": 0.5275590551181102,
                    "duration": 0.23618324999995366
                },
                {
                    "name": "E5",
                    "midi": 76,
                    "time": 893.7174179999869,
                    "velocity": 0.6299212598425197,
                    "duration": 0.23618324999995366
                },
                {
                    "name": "A4",
                    "midi": 69,
                    "time": 894.6621509999868,
                    "velocity": 0.5748031496062992,
                    "duration": 0.23618324999995366
                },
                {
                    "name": "C#5",
                    "midi": 73,
                    "time": 894.6621509999868,
                    "velocity": 0.5748031496062992,
                    "duration": 0.23618324999995366
                },
                {
                    "name": "E5",
                    "midi": 76,
                    "time": 894.6621509999868,
                    "velocity": 0.5748031496062992,
                    "duration": 0.23618324999995366
                },
                {
                    "name": "A5",
                    "midi": 81,
                    "time": 894.6621509999868,
                    "velocity": 0.6771653543307087,
                    "duration": 0.23618324999995366
                },
                {
                    "name": "C#5",
                    "midi": 73,
                    "time": 895.1345174999867,
                    "velocity": 0.4094488188976378,
                    "duration": 0.2558651874999214
                },
                {
                    "name": "A4",
                    "midi": 69,
                    "time": 895.3707007499867,
                    "velocity": 0.3937007874015748,
                    "duration": 0.23618324999995366
                },
                {
                    "name": "E5",
                    "midi": 76,
                    "time": 895.6068839999866,
                    "velocity": 0.44881889763779526,
                    "duration": 0.23618324999995366
                },
                {
                    "name": "D5",
                    "midi": 74,
                    "time": 895.8430672499866,
                    "velocity": 0.3937007874015748,
                    "duration": 0.23618324999995366
                },
                {
                    "name": "B4",
                    "midi": 71,
                    "time": 896.0792504999865,
                    "velocity": 0.3937007874015748,
                    "duration": 0.11809162500003367
                },
                {
                    "name": "G#4",
                    "midi": 68,
                    "time": 896.3154337499866,
                    "velocity": 0.3937007874015748,
                    "duration": 0.11809162500003367
                },
                {
                    "name": "A4",
                    "midi": 69,
                    "time": 896.5516169999867,
                    "velocity": 0.4881889763779528,
                    "duration": 0.23618324999995366
                },
                {
                    "name": "G#4",
                    "midi": 68,
                    "time": 897.4963499999866,
                    "velocity": 0.5511811023622047,
                    "duration": 0.23618324999995366
                },
                {
                    "name": "B4",
                    "midi": 71,
                    "time": 897.4963499999866,
                    "velocity": 0.5511811023622047,
                    "duration": 0.23618324999995366
                },
                {
                    "name": "E5",
                    "midi": 76,
                    "time": 897.4963499999866,
                    "velocity": 0.6456692913385826,
                    "duration": 0.23618324999995366
                },
                {
                    "name": "A4",
                    "midi": 69,
                    "time": 898.4410829999865,
                    "velocity": 0.5905511811023622,
                    "duration": 0.23618324999995366
                },
                {
                    "name": "C#5",
                    "midi": 73,
                    "time": 898.4410829999865,
                    "velocity": 0.5905511811023622,
                    "duration": 0.23618324999995366
                },
                {
                    "name": "E5",
                    "midi": 76,
                    "time": 898.4410829999865,
                    "velocity": 0.5905511811023622,
                    "duration": 0.23618324999995366
                },
                {
                    "name": "A5",
                    "midi": 81,
                    "time": 898.4410829999865,
                    "velocity": 0.7007874015748031,
                    "duration": 0.23618324999995366
                }
            ],
            "controlChanges": {
                "7": [
                    {
                        "number": 7,
                        "time": 0,
                        "value": 0.7874015748031497
                    }
                ],
                "10": [
                    {
                        "number": 10,
                        "time": 0,
                        "value": 0.5039370078740157
                    }
                ],
                "91": [
                    {
                        "number": 91,
                        "time": 0,
                        "value": 1
                    },
                    {
                        "number": 91,
                        "time": 2.8341990000000004,
                        "value": 1
                    },
                    {
                        "number": 91,
                        "time": 11.336795999999998,
                        "value": 1
                    },
                    {
                        "number": 91,
                        "time": 14.170994999999996,
                        "value": 1
                    },
                    {
                        "number": 91,
                        "time": 22.673591999999992,
                        "value": 1
                    },
                    {
                        "number": 91,
                        "time": 25.50779099999999,
                        "value": 1
                    },
                    {
                        "number": 91,
                        "time": 34.01038799999999,
                        "value": 1
                    },
                    {
                        "number": 91,
                        "time": 36.844587,
                        "value": 1
                    },
                    {
                        "number": 91,
                        "time": 45.347184,
                        "value": 1
                    },
                    {
                        "number": 91,
                        "time": 48.18138300000001,
                        "value": 1
                    },
                    {
                        "number": 91,
                        "time": 56.68398000000002,
                        "value": 1
                    },
                    {
                        "number": 91,
                        "time": 59.518179000000025,
                        "value": 1
                    },
                    {
                        "number": 91,
                        "time": 73.68917400000007,
                        "value": 1
                    },
                    {
                        "number": 91,
                        "time": 76.52337300000008,
                        "value": 1
                    },
                    {
                        "number": 91,
                        "time": 85.02597000000016,
                        "value": 1
                    },
                    {
                        "number": 91,
                        "time": 87.86016900000017,
                        "value": 1
                    }
                ]
            },
            "id": 1,
            "name": "Piano right",
            "instrumentNumber": 0,
            "instrument": "acoustic grand piano",
            "instrumentFamily": "piano",
            "channelNumber": 0,
            "isPercussion": false
        },
        {
            "startTime": 0,
            "duration": 898.6772662499943,
            "length": 2524,
            "notes": [
                {
                    "name": "A3",
                    "midi": 57,
                    "time": 0,
                    "velocity": 0.3543307086614173,
                    "duration": 0.70854975
                },
                {
                    "name": "E4",
                    "midi": 64,
                    "time": 0,
                    "velocity": 0.2992125984251969,
                    "duration": 0.944733
                },
                {
                    "name": "B3",
                    "midi": 59,
                    "time": 0.70854975,
                    "velocity": 0.2755905511811024,
                    "duration": 0.23618325000000007
                },
                {
                    "name": "A3",
                    "midi": 57,
                    "time": 0.944733,
                    "velocity": 0.2755905511811024,
                    "duration": 0.4723664999999999
                },
                {
                    "name": "E4",
                    "midi": 64,
                    "time": 0.944733,
                    "velocity": 0.2283464566929134,
                    "duration": 0.4723664999999999
                },
                {
                    "name": "E4",
                    "midi": 64,
                    "time": 1.4170995,
                    "velocity": 0.2283464566929134,
                    "duration": 0.9447330000000003
                },
                {
                    "name": "C#4",
                    "midi": 61,
                    "time": 1.4170995,
                    "velocity": 0.30708661417322836,
                    "duration": 0.9447330000000003
                },
                {
                    "name": "C#4",
                    "midi": 61,
                    "time": 2.3618325000000002,
                    "velocity": 0.25196850393700787,
                    "duration": 0.42512985000000025
                },
                {
                    "name": "E4",
                    "midi": 64,
                    "time": 2.3618325000000002,
                    "velocity": 0.18110236220472442,
                    "duration": 0.42512985000000025
                },
                {
                    "name": "G#3",
                    "midi": 56,
                    "time": 2.8341990000000004,
                    "velocity": 0.3543307086614173,
                    "duration": 0.70854975
                },
                {
                    "name": "E4",
                    "midi": 64,
                    "time": 2.8341990000000004,
                    "velocity": 0.2992125984251969,
                    "duration": 0.9447329999999998
                },
                {
                    "name": "A3",
                    "midi": 57,
                    "time": 3.5427487500000003,
                    "velocity": 0.2992125984251969,
                    "duration": 0.23618324999999984
                },
                {
                    "name": "G#3",
                    "midi": 56,
                    "time": 3.778932,
                    "velocity": 0.2992125984251969,
                    "duration": 0.4723664999999997
                },
                {
                    "name": "E4",
                    "midi": 64,
                    "time": 3.778932,
                    "velocity": 0.25196850393700787,
                    "duration": 0.4723664999999997
                },
                {
                    "name": "E4",
                    "midi": 64,
                    "time": 4.2512985,
                    "velocity": 0.28346456692913385,
                    "duration": 0.9447330000000003
                },
                {
                    "name": "B3",
                    "midi": 59,
                    "time": 4.2512985,
                    "velocity": 0.2992125984251969,
                    "duration": 0.9447330000000003
                },
                {
                    "name": "E4",
                    "midi": 64,
                    "time": 5.1960315,
                    "velocity": 0.2204724409448819,
                    "duration": 0.42512985000000025
                },
                {
                    "name": "B3",
                    "midi": 59,
                    "time": 5.1960315,
                    "velocity": 0.2440944881889764,
                    "duration": 0.42512985000000025
                },
                {
                    "name": "F#3",
                    "midi": 54,
                    "time": 5.668398000000001,
                    "velocity": 0.33858267716535434,
                    "duration": 0.9447330000000003
                },
                {
                    "name": "E4",
                    "midi": 64,
                    "time": 5.668398000000001,
                    "velocity": 0.28346456692913385,
                    "duration": 0.9447330000000003
                },
                {
                    "name": "E4",
                    "midi": 64,
                    "time": 6.613131000000001,
                    "velocity": 0.25196850393700787,
                    "duration": 0.4723664999999997
                },
                {
                    "name": "F#3",
                    "midi": 54,
                    "time": 6.613131000000001,
                    "velocity": 0.2992125984251969,
                    "duration": 0.4723664999999997
                },
                {
                    "name": "G#3",
                    "midi": 56,
                    "time": 7.085497500000001,
                    "velocity": 0.36220472440944884,
                    "duration": 0.9447329999999994
                },
                {
                    "name": "E4",
                    "midi": 64,
                    "time": 7.085497500000001,
                    "velocity": 0.30708661417322836,
                    "duration": 0.9447329999999994
                },
                {
                    "name": "G#3",
                    "midi": 56,
                    "time": 8.0302305,
                    "velocity": 0.3228346456692913,
                    "duration": 0.4723664999999997
                },
                {
                    "name": "E4",
                    "midi": 64,
                    "time": 8.0302305,
                    "velocity": 0.2677165354330709,
                    "duration": 0.4723664999999997
                },
                {
                    "name": "E4",
                    "midi": 64,
                    "time": 8.502597,
                    "velocity": 0.2992125984251969,
                    "duration": 0.9447329999999994
                },
                {
                    "name": "A3",
                    "midi": 57,
                    "time": 8.502597,
                    "velocity": 0.3543307086614173,
                    "duration": 0.9447329999999994
                },
                {
                    "name": "D3",
                    "midi": 50,
                    "time": 9.44733,
                    "velocity": 0.2992125984251969,
                    "duration": 0.4723664999999997
                },
                {
                    "name": "E3",
                    "midi": 52,
                    "time": 9.919696499999999,
                    "velocity": 0.3543307086614173,
                    "duration": 1.4170995000000008
                },
                {
                    "name": "E4",
                    "midi": 64,
                    "time": 11.336796,
                    "velocity": 0.2992125984251969,
                    "duration": 0.9447329999999994
                },
                {
                    "name": "A3",
                    "midi": 57,
                    "time": 11.336796,
                    "velocity": 0.3543307086614173,
                    "duration": 0.7085497499999995
                },
                {
                    "name": "B3",
                    "midi": 59,
                    "time": 12.04534575,
                    "velocity": 0.2755905511811024,
                    "duration": 0.23618324999999984
                },
                {
                    "name": "E4",
                    "midi": 64,
                    "time": 12.281528999999999,
                    "velocity": 0.2283464566929134,
                    "duration": 0.4723664999999997
                },
                {
                    "name": "A3",
                    "midi": 57,
                    "time": 12.281528999999999,
                    "velocity": 0.2755905511811024,
                    "duration": 0.4723664999999997
                },
                {
                    "name": "C#4",
                    "midi": 61,
                    "time": 12.753895499999999,
                    "velocity": 0.30708661417322836,
                    "duration": 0.9447329999999994
                },
                {
                    "name": "E4",
                    "midi": 64,
                    "time": 12.753895499999999,
                    "velocity": 0.2283464566929134,
                    "duration": 0.9447329999999994
                },
                {
                    "name": "E4",
                    "midi": 64,
                    "time": 13.698628499999998,
                    "velocity": 0.18110236220472442,
                    "duration": 0.42512984999999937
                },
                {
                    "name": "C#4",
                    "midi": 61,
                    "time": 13.698628499999998,
                    "velocity": 0.25196850393700787,
                    "duration": 0.42512984999999937
                },
                {
                    "name": "G#3",
                    "midi": 56,
                    "time": 14.170994999999998,
                    "velocity": 0.3543307086614173,
                    "duration": 0.7085497499999995
                },
                {
                    "name": "E4",
                    "midi": 64,
                    "time": 14.170994999999998,
                    "velocity": 0.2992125984251969,
                    "duration": 0.9447329999999994
                },
                {
                    "name": "A3",
                    "midi": 57,
                    "time": 14.879544749999997,
                    "velocity": 0.2992125984251969,
                    "duration": 0.23618324999999984
                },
                {
                    "name": "E4",
                    "midi": 64,
                    "time": 15.115727999999997,
                    "velocity": 0.25196850393700787,
                    "duration": 0.4723664999999997
                },
                {
                    "name": "G#3",
                    "midi": 56,
                    "time": 15.115727999999997,
                    "velocity": 0.2992125984251969,
                    "duration": 0.4723664999999997
                },
                {
                    "name": "B3",
                    "midi": 59,
                    "time": 15.588094499999997,
                    "velocity": 0.31496062992125984,
                    "duration": 0.9447329999999994
                },
                {
                    "name": "E4",
                    "midi": 64,
                    "time": 15.588094499999997,
                    "velocity": 0.28346456692913385,
                    "duration": 0.9447329999999994
                },
                {
                    "name": "E4",
                    "midi": 64,
                    "time": 16.532827499999996,
                    "velocity": 0.2204724409448819,
                    "duration": 0.42512985000000114
                },
                {
                    "name": "B3",
                    "midi": 59,
                    "time": 16.532827499999996,
                    "velocity": 0.2440944881889764,
                    "duration": 0.42512985000000114
                },
                {
                    "name": "E4",
                    "midi": 64,
                    "time": 17.005193999999996,
                    "velocity": 0.29133858267716534,
                    "duration": 0.9447329999999994
                },
                {
                    "name": "F#3",
                    "midi": 54,
                    "time": 17.005193999999996,
                    "velocity": 0.3543307086614173,
                    "duration": 0.9447329999999994
                },
                {
                    "name": "G#3",
                    "midi": 56,
                    "time": 17.949926999999995,
                    "velocity": 0.3858267716535433,
                    "duration": 0.4723664999999997
                },
                {
                    "name": "E4",
                    "midi": 64,
                    "time": 17.949926999999995,
                    "velocity": 0.3858267716535433,
                    "duration": 0.4723664999999997
                },
                {
                    "name": "A3",
                    "midi": 57,
                    "time": 18.422293499999995,
                    "velocity": 0.4330708661417323,
                    "duration": 0.9447329999999994
                },
                {
                    "name": "E4",
                    "midi": 64,
                    "time": 18.422293499999995,
                    "velocity": 0.4330708661417323,
                    "duration": 0.9447329999999994
                },
                {
                    "name": "D3",
                    "midi": 50,
                    "time": 19.367026499999994,
                    "velocity": 0.4330708661417323,
                    "duration": 0.4723664999999997
                },
                {
                    "name": "E3",
                    "midi": 52,
                    "time": 19.839392999999994,
                    "velocity": 0.36220472440944884,
                    "duration": 0.9447329999999994
                },
                {
                    "name": "E2",
                    "midi": 40,
                    "time": 20.784125999999993,
                    "velocity": 0.28346456692913385,
                    "duration": 0.4723664999999997
                },
                {
                    "name": "A2",
                    "midi": 45,
                    "time": 21.256492499999993,
                    "velocity": 0.2677165354330709,
                    "duration": 0.9447329999999994
                },
                {
                    "name": "A3",
                    "midi": 57,
                    "time": 22.673591999999992,
                    "velocity": 0.2992125984251969,
                    "duration": 0.7085497499999995
                },
                {
                    "name": "E4",
                    "midi": 64,
                    "time": 22.673591999999992,
                    "velocity": 0.25196850393700787,
                    "duration": 0.9447329999999994
                },
                {
                    "name": "B3",
                    "midi": 59,
                    "time": 23.38214174999999,
                    "velocity": 0.2283464566929134,
                    "duration": 0.23618324999999984
                },
                {
                    "name": "A3",
                    "midi": 57,
                    "time": 23.61832499999999,
                    "velocity": 0.2283464566929134,
                    "duration": 0.4723664999999997
                },
                {
                    "name": "E4",
                    "midi": 64,
                    "time": 23.61832499999999,
                    "velocity": 0.1889763779527559,
                    "duration": 0.4723664999999997
                },
                {
                    "name": "E4",
                    "midi": 64,
                    "time": 24.09069149999999,
                    "velocity": 0.2283464566929134,
                    "duration": 0.9447329999999994
                },
                {
                    "name": "C#4",
                    "midi": 61,
                    "time": 24.09069149999999,
                    "velocity": 0.25984251968503935,
                    "duration": 0.9447329999999994
                },
                {
                    "name": "E4",
                    "midi": 64,
                    "time": 25.03542449999999,
                    "velocity": 0.18110236220472442,
                    "duration": 0.42512985000000114
                },
                {
                    "name": "C#4",
                    "midi": 61,
                    "time": 25.03542449999999,
                    "velocity": 0.2047244094488189,
                    "duration": 0.42512985000000114
                },
                {
                    "name": "E4",
                    "midi": 64,
                    "time": 25.50779099999999,
                    "velocity": 0.25196850393700787,
                    "duration": 0.9447329999999994
                },
                {
                    "name": "G#3",
                    "midi": 56,
                    "time": 25.50779099999999,
                    "velocity": 0.2992125984251969,
                    "duration": 0.7085497499999995
                },
                {
                    "name": "A3",
                    "midi": 57,
                    "time": 26.21634074999999,
                    "velocity": 0.25196850393700787,
                    "duration": 0.23618324999999984
                },
                {
                    "name": "E4",
                    "midi": 64,
                    "time": 26.45252399999999,
                    "velocity": 0.2125984251968504,
                    "duration": 0.4723664999999997
                },
                {
                    "name": "G#3",
                    "midi": 56,
                    "time": 26.45252399999999,
                    "velocity": 0.25196850393700787,
                    "duration": 0.4723664999999997
                },
                {
                    "name": "B3",
                    "midi": 59,
                    "time": 26.92489049999999,
                    "velocity": 0.25196850393700787,
                    "duration": 0.9447329999999994
                },
                {
                    "name": "E4",
                    "midi": 64,
                    "time": 26.92489049999999,
                    "velocity": 0.23622047244094488,
                    "duration": 0.9447329999999994
                },
                {
                    "name": "E4",
                    "midi": 64,
                    "time": 27.86962349999999,
                    "velocity": 0.18110236220472442,
                    "duration": 0.42512985000000114
                },
                {
                    "name": "B3",
                    "midi": 59,
                    "time": 27.86962349999999,
                    "velocity": 0.2047244094488189,
                    "duration": 0.42512985000000114
                },
                {
                    "name": "E4",
                    "midi": 64,
                    "time": 28.34198999999999,
                    "velocity": 0.23622047244094488,
                    "duration": 0.9447329999999994
                },
                {
                    "name": "F#3",
                    "midi": 54,
                    "time": 28.34198999999999,
                    "velocity": 0.28346456692913385,
                    "duration": 0.9447329999999994
                },
                {
                    "name": "F#3",
                    "midi": 54,
                    "time": 29.286722999999988,
                    "velocity": 0.25196850393700787,
                    "duration": 0.4723664999999997
                },
                {
                    "name": "E4",
                    "midi": 64,
                    "time": 29.286722999999988,
                    "velocity": 0.2125984251968504,
                    "duration": 0.4723664999999997
                },
                {
                    "name": "E4",
                    "midi": 64,
                    "time": 29.759089499999988,
                    "velocity": 0.25984251968503935,
                    "duration": 0.9447329999999994
                },
                {
                    "name": "G#3",
                    "midi": 56,
                    "time": 29.759089499999988,
                    "velocity": 0.30708661417322836,
                    "duration": 0.9447329999999994
                },
                {
                    "name": "E4",
                    "midi": 64,
                    "time": 30.703822499999987,
                    "velocity": 0.2204724409448819,
                    "duration": 0.4723664999999997
                },
                {
                    "name": "G#3",
                    "midi": 56,
                    "time": 30.703822499999987,
                    "velocity": 0.2677165354330709,
                    "duration": 0.4723664999999997
                },
                {
                    "name": "A3",
                    "midi": 57,
                    "time": 31.176188999999987,
                    "velocity": 0.2992125984251969,
                    "duration": 0.9447329999999994
                },
                {
                    "name": "E4",
                    "midi": 64,
                    "time": 31.176188999999987,
                    "velocity": 0.25196850393700787,
                    "duration": 0.9447329999999994
                },
                {
                    "name": "D3",
                    "midi": 50,
                    "time": 32.120921999999986,
                    "velocity": 0.25196850393700787,
                    "duration": 0.4723664999999997
                },
                {
                    "name": "E3",
                    "midi": 52,
                    "time": 32.593288499999986,
                    "velocity": 0.2992125984251969,
                    "duration": 1.417099499999999
                },
                {
                    "name": "A3",
                    "midi": 57,
                    "time": 34.010387999999985,
                    "velocity": 0.3543307086614173,
                    "duration": 0.7085497500000031
                },
                {
                    "name": "E4",
                    "midi": 64,
                    "time": 34.010387999999985,
                    "velocity": 0.2992125984251969,
                    "duration": 0.9447330000000065
                },
                {
                    "name": "B3",
                    "midi": 59,
                    "time": 34.71893774999999,
                    "velocity": 0.2755905511811024,
                    "duration": 0.2361832500000034
                },
                {
                    "name": "E4",
                    "midi": 64,
                    "time": 34.95512099999999,
                    "velocity": 0.2283464566929134,
                    "duration": 0.4723664999999997
                },
                {
                    "name": "A3",
                    "midi": 57,
                    "time": 34.95512099999999,
                    "velocity": 0.2755905511811024,
                    "duration": 0.4723664999999997
                },
                {
                    "name": "C#4",
                    "midi": 61,
                    "time": 35.42748749999999,
                    "velocity": 0.30708661417322836,
                    "duration": 0.9447329999999994
                },
                {
                    "name": "E4",
                    "midi": 64,
                    "time": 35.42748749999999,
                    "velocity": 0.2755905511811024,
                    "duration": 0.9447329999999994
                },
                {
                    "name": "C#4",
                    "midi": 61,
                    "time": 36.37222049999999,
                    "velocity": 0.25196850393700787,
                    "duration": 0.4251298499999976
                },
                {
                    "name": "E4",
                    "midi": 64,
                    "time": 36.37222049999999,
                    "velocity": 0.2204724409448819,
                    "duration": 0.4251298499999976
                },
                {
                    "name": "E4",
                    "midi": 64,
                    "time": 36.84458699999999,
                    "velocity": 0.2992125984251969,
                    "duration": 0.9447330000000065
                },
                {
                    "name": "G#3",
                    "midi": 56,
                    "time": 36.84458699999999,
                    "velocity": 0.3543307086614173,
                    "duration": 0.7085497500000031
                },
                {
                    "name": "A3",
                    "midi": 57,
                    "time": 37.55313674999999,
                    "velocity": 0.2992125984251969,
                    "duration": 0.2361832500000034
                },
                {
                    "name": "E4",
                    "midi": 64,
                    "time": 37.78932,
                    "velocity": 0.25196850393700787,
                    "duration": 0.4723664999999997
                },
                {
                    "name": "G#3",
                    "midi": 56,
                    "time": 37.78932,
                    "velocity": 0.2992125984251969,
                    "duration": 0.4723664999999997
                },
                {
                    "name": "B3",
                    "midi": 59,
                    "time": 38.261686499999996,
                    "velocity": 0.31496062992125984,
                    "duration": 0.9447329999999994
                },
                {
                    "name": "E4",
                    "midi": 64,
                    "time": 38.261686499999996,
                    "velocity": 0.28346456692913385,
                    "duration": 0.9447329999999994
                },
                {
                    "name": "B3",
                    "midi": 59,
                    "time": 39.206419499999996,
                    "velocity": 0.2440944881889764,
                    "duration": 0.4251298499999976
                },
                {
                    "name": "E4",
                    "midi": 64,
                    "time": 39.206419499999996,
                    "velocity": 0.2204724409448819,
                    "duration": 0.4251298499999976
                },
                {
                    "name": "E4",
                    "midi": 64,
                    "time": 39.678785999999995,
                    "velocity": 0.29133858267716534,
                    "duration": 0.9447329999999994
                },
                {
                    "name": "F#3",
                    "midi": 54,
                    "time": 39.678785999999995,
                    "velocity": 0.3543307086614173,
                    "duration": 0.9447329999999994
                },
                {
                    "name": "E4",
                    "midi": 64,
                    "time": 40.623518999999995,
                    "velocity": 0.3858267716535433,
                    "duration": 0.4723664999999997
                },
                {
                    "name": "G#3",
                    "midi": 56,
                    "time": 40.623518999999995,
                    "velocity": 0.3858267716535433,
                    "duration": 0.4723664999999997
                },
                {
                    "name": "A3",
                    "midi": 57,
                    "time": 41.095885499999994,
                    "velocity": 0.4330708661417323,
                    "duration": 0.9447329999999994
                },
                {
                    "name": "E4",
                    "midi": 64,
                    "time": 41.095885499999994,
                    "velocity": 0.4330708661417323,
                    "duration": 0.9447329999999994
                },
                {
                    "name": "D3",
                    "midi": 50,
                    "time": 42.040618499999994,
                    "velocity": 0.4330708661417323,
                    "duration": 0.4723664999999997
                },
                {
                    "name": "E3",
                    "midi": 52,
                    "time": 42.51298499999999,
                    "velocity": 0.36220472440944884,
                    "duration": 0.9447329999999994
                },
                {
                    "name": "E2",
                    "midi": 40,
                    "time": 43.45771799999999,
                    "velocity": 0.28346456692913385,
                    "duration": 0.4723664999999997
                },
                {
                    "name": "A2",
                    "midi": 45,
                    "time": 43.93008449999999,
                    "velocity": 0.2677165354330709,
                    "duration": 0.9447329999999994
                },
                {
                    "name": "A3",
                    "midi": 57,
                    "time": 45.34718399999999,
                    "velocity": 0.30708661417322836,
                    "duration": 0.4723664999999997
                },
                {
                    "name": "C#4",
                    "midi": 61,
                    "time": 45.81955049999999,
                    "velocity": 0.25984251968503935,
                    "duration": 0.4723664999999997
                },
                {
                    "name": "E4",
                    "midi": 64,
                    "time": 46.29191699999999,
                    "velocity": 0.2677165354330709,
                    "duration": 0.4723664999999997
                },
                {
                    "name": "A3",
                    "midi": 57,
                    "time": 46.76428349999999,
                    "velocity": 0.29133858267716534,
                    "duration": 0.4723664999999997
                },
                {
                    "name": "D4",
                    "midi": 62,
                    "time": 47.23664999999999,
                    "velocity": 0.25196850393700787,
                    "duration": 0.4723664999999997
                },
                {
                    "name": "F#4",
                    "midi": 66,
                    "time": 47.70901649999999,
                    "velocity": 0.25196850393700787,
                    "duration": 0.4723664999999997
                },
                {
                    "name": "A3",
                    "midi": 57,
                    "time": 48.18138299999999,
                    "velocity": 0.30708661417322836,
                    "duration": 0.4723664999999997
                },
                {
                    "name": "D4",
                    "midi": 62,
                    "time": 48.65374949999999,
                    "velocity": 0.25984251968503935,
                    "duration": 0.4723664999999997
                },
                {
                    "name": "F#4",
                    "midi": 66,
                    "time": 49.12611599999999,
                    "velocity": 0.2677165354330709,
                    "duration": 0.4723664999999997
                },
                {
                    "name": "A3",
                    "midi": 57,
                    "time": 49.59848249999999,
                    "velocity": 0.29133858267716534,
                    "duration": 0.4723664999999997
                },
                {
                    "name": "C#4",
                    "midi": 61,
                    "time": 50.07084899999999,
                    "velocity": 0.25196850393700787,
                    "duration": 0.4723664999999997
                },
                {
                    "name": "E4",
                    "midi": 64,
                    "time": 50.54321549999999,
                    "velocity": 0.25196850393700787,
                    "duration": 0.2361832500000034
                },
                {
                    "name": "C#4",
                    "midi": 61,
                    "time": 51.015581999999995,
                    "velocity": 0.4015748031496063,
                    "duration": 0.9447329999999994
                },
                {
                    "name": "A3",
                    "midi": 57,
                    "time": 51.015581999999995,
                    "velocity": 0.4015748031496063,
                    "duration": 0.9447329999999994
                },
                {
                    "name": "G#3",
                    "midi": 56,
                    "time": 52.432681499999994,
                    "velocity": 0.33858267716535434,
                    "duration": 0.9447329999999994
                },
                {
                    "name": "D4",
                    "midi": 62,
                    "time": 52.432681499999994,
                    "velocity": 0.33858267716535434,
                    "duration": 0.9447329999999994
                },
                {
                    "name": "C#4",
                    "midi": 61,
                    "time": 53.84978099999999,
                    "velocity": 0.3937007874015748,
                    "duration": 0.9447329999999994
                },
                {
                    "name": "A3",
                    "midi": 57,
                    "time": 53.84978099999999,
                    "velocity": 0.3937007874015748,
                    "duration": 0.9447329999999994
                },
                {
                    "name": "F#3",
                    "midi": 54,
                    "time": 54.79451399999999,
                    "velocity": 0.3779527559055118,
                    "duration": 0.4330026250000003
                },
                {
                    "name": "D#4",
                    "midi": 63,
                    "time": 54.79451399999999,
                    "velocity": 0.3779527559055118,
                    "duration": 0.4330026250000003
                },
                {
                    "name": "E4",
                    "midi": 64,
                    "time": 55.26688049999999,
                    "velocity": 0.31496062992125984,
                    "duration": 1.369862849999997
                },
                {
                    "name": "E3",
                    "midi": 52,
                    "time": 55.26688049999999,
                    "velocity": 0.31496062992125984,
                    "duration": 1.369862849999997
                },
                {
                    "name": "A3",
                    "midi": 57,
                    "time": 56.68397999999999,
                    "velocity": 0.3543307086614173,
                    "duration": 0.7085497500000031
                },
                {
                    "name": "E4",
                    "midi": 64,
                    "time": 56.68397999999999,
                    "velocity": 0.2992125984251969,
                    "duration": 0.9447330000000065
                },
                {
                    "name": "B3",
                    "midi": 59,
                    "time": 57.392529749999994,
                    "velocity": 0.2755905511811024,
                    "duration": 0.2361832500000034
                },
                {
                    "name": "A3",
                    "midi": 57,
                    "time": 57.628713,
                    "velocity": 0.2755905511811024,
                    "duration": 0.4723664999999997
                },
                {
                    "name": "E4",
                    "midi": 64,
                    "time": 57.628713,
                    "velocity": 0.2283464566929134,
                    "duration": 0.4723664999999997
                },
                {
                    "name": "E4",
                    "midi": 64,
                    "time": 58.1010795,
                    "velocity": 0.2755905511811024,
                    "duration": 0.9447329999999994
                },
                {
                    "name": "C#4",
                    "midi": 61,
                    "time": 58.1010795,
                    "velocity": 0.30708661417322836,
                    "duration": 0.9447329999999994
                },
                {
                    "name": "E4",
                    "midi": 64,
                    "time": 59.0458125,
                    "velocity": 0.2204724409448819,
                    "duration": 0.4251298499999976
                },
                {
                    "name": "C#4",
                    "midi": 61,
                    "time": 59.0458125,
                    "velocity": 0.25196850393700787,
                    "duration": 0.4251298499999976
                },
                {
                    "name": "E4",
                    "midi": 64,
                    "time": 59.518178999999996,
                    "velocity": 0.2992125984251969,
                    "duration": 0.9447330000000065
                },
                {
                    "name": "G#3",
                    "midi": 56,
                    "time": 59.518178999999996,
                    "velocity": 0.3543307086614173,
                    "duration": 0.7085497500000031
                },
                {
                    "name": "A3",
                    "midi": 57,
                    "time": 60.22672875,
                    "velocity": 0.2992125984251969,
                    "duration": 0.2361832500000034
                },
                {
                    "name": "G#3",
                    "midi": 56,
                    "time": 60.462912,
                    "velocity": 0.2992125984251969,
                    "duration": 0.4723664999999997
                },
                {
                    "name": "E4",
                    "midi": 64,
                    "time": 60.462912,
                    "velocity": 0.25196850393700787,
                    "duration": 0.4723664999999997
                },
                {
                    "name": "B3",
                    "midi": 59,
                    "time": 60.9352785,
                    "velocity": 0.31496062992125984,
                    "duration": 0.9447329999999994
                },
                {
                    "name": "E4",
                    "midi": 64,
                    "time": 60.9352785,
                    "velocity": 0.28346456692913385,
                    "duration": 0.9447329999999994
                },
                {
                    "name": "E4",
                    "midi": 64,
                    "time": 61.8800115,
                    "velocity": 0.2204724409448819,
                    "duration": 0.4251298499999976
                },
                {
                    "name": "B3",
                    "midi": 59,
                    "time": 61.8800115,
                    "velocity": 0.2440944881889764,
                    "duration": 0.4251298499999976
                },
                {
                    "name": "E4",
                    "midi": 64,
                    "time": 62.352378,
                    "velocity": 0.29133858267716534,
                    "duration": 0.9447329999999994
                },
                {
                    "name": "F#3",
                    "midi": 54,
                    "time": 62.352378,
                    "velocity": 0.3543307086614173,
                    "duration": 0.9447329999999994
                },
                {
                    "name": "G#3",
                    "midi": 56,
                    "time": 63.297111,
                    "velocity": 0.3858267716535433,
                    "duration": 0.4723664999999997
                },
                {
                    "name": "E4",
                    "midi": 64,
                    "time": 63.297111,
                    "velocity": 0.3858267716535433,
                    "duration": 0.4723664999999997
                },
                {
                    "name": "A3",
                    "midi": 57,
                    "time": 63.7694775,
                    "velocity": 0.4330708661417323,
                    "duration": 0.9447330000000065
                },
                {
                    "name": "E4",
                    "midi": 64,
                    "time": 63.7694775,
                    "velocity": 0.4330708661417323,
                    "duration": 0.9447330000000065
                },
                {
                    "name": "D3",
                    "midi": 50,
                    "time": 64.71421050000001,
                    "velocity": 0.4330708661417323,
                    "duration": 0.4723665000000068
                },
                {
                    "name": "E3",
                    "midi": 52,
                    "time": 65.18657700000001,
                    "velocity": 0.36220472440944884,
                    "duration": 0.9447329999999994
                },
                {
                    "name": "E2",
                    "midi": 40,
                    "time": 66.13131000000001,
                    "velocity": 0.3543307086614173,
                    "duration": 0.4723665000000068
                },
                {
                    "name": "A2",
                    "midi": 45,
                    "time": 66.60367650000002,
                    "velocity": 0.33070866141732286,
                    "duration": 1.4170995000000062
                },
                {
                    "name": "A3",
                    "midi": 57,
                    "time": 68.02077600000003,
                    "velocity": 0.44881889763779526,
                    "duration": 0.9447329999999994
                },
                {
                    "name": "A2",
                    "midi": 45,
                    "time": 68.02077600000003,
                    "velocity": 0.3779527559055118,
                    "duration": 0.9447329999999994
                },
                {
                    "name": "B2",
                    "midi": 47,
                    "time": 68.96550900000003,
                    "velocity": 0.41732283464566927,
                    "duration": 0.4723665000000068
                },
                {
                    "name": "B3",
                    "midi": 59,
                    "time": 68.96550900000003,
                    "velocity": 0.49606299212598426,
                    "duration": 0.4723665000000068
                },
                {
                    "name": "C#3",
                    "midi": 49,
                    "time": 69.43787550000003,
                    "velocity": 0.44881889763779526,
                    "duration": 0.9447329999999994
                },
                {
                    "name": "C#4",
                    "midi": 61,
                    "time": 69.43787550000003,
                    "velocity": 0.5433070866141733,
                    "duration": 0.9447329999999994
                },
                {
                    "name": "D4",
                    "midi": 62,
                    "time": 70.38260850000003,
                    "velocity": 0.2992125984251969,
                    "duration": 0.4723665000000068
                },
                {
                    "name": "D3",
                    "midi": 50,
                    "time": 70.38260850000003,
                    "velocity": 0.25196850393700787,
                    "duration": 0.4723665000000068
                },
                {
                    "name": "E3",
                    "midi": 52,
                    "time": 70.85497500000004,
                    "velocity": 0.2677165354330709,
                    "duration": 0.9447329999999994
                },
                {
                    "name": "C#4",
                    "midi": 61,
                    "time": 70.85497500000004,
                    "velocity": 0.3228346456692913,
                    "duration": 0.9447329999999994
                },
                {
                    "name": "D4",
                    "midi": 62,
                    "time": 71.79970800000004,
                    "velocity": 0.31496062992125984,
                    "duration": 0.4723665000000068
                },
                {
                    "name": "E3",
                    "midi": 52,
                    "time": 71.79970800000004,
                    "velocity": 0.2677165354330709,
                    "duration": 0.4723665000000068
                },
                {
                    "name": "C#4",
                    "midi": 61,
                    "time": 72.27207450000004,
                    "velocity": 0.31496062992125984,
                    "duration": 0.9447329999999994
                },
                {
                    "name": "A3",
                    "midi": 57,
                    "time": 72.27207450000004,
                    "velocity": 0.2677165354330709,
                    "duration": 0.9447329999999994
                },
                {
                    "name": "A3",
                    "midi": 57,
                    "time": 73.68917400000005,
                    "velocity": 0.30708661417322836,
                    "duration": 0.4723665000000068
                },
                {
                    "name": "C#4",
                    "midi": 61,
                    "time": 74.16154050000006,
                    "velocity": 0.25984251968503935,
                    "duration": 0.4723665000000068
                },
                {
                    "name": "E4",
                    "midi": 64,
                    "time": 74.63390700000006,
                    "velocity": 0.2677165354330709,
                    "duration": 0.4723665000000068
                },
                {
                    "name": "A3",
                    "midi": 57,
                    "time": 75.10627350000007,
                    "velocity": 0.29133858267716534,
                    "duration": 0.4723665000000068
                },
                {
                    "name": "D4",
                    "midi": 62,
                    "time": 75.57864000000008,
                    "velocity": 0.25196850393700787,
                    "duration": 0.4723665000000068
                },
                {
                    "name": "F#4",
                    "midi": 66,
                    "time": 76.05100650000008,
                    "velocity": 0.25196850393700787,
                    "duration": 0.4723665000000068
                },
                {
                    "name": "A3",
                    "midi": 57,
                    "time": 76.52337300000009,
                    "velocity": 0.30708661417322836,
                    "duration": 0.4723665000000068
                },
                {
                    "name": "D4",
                    "midi": 62,
                    "time": 76.9957395000001,
                    "velocity": 0.25984251968503935,
                    "duration": 0.4723665000000068
                },
                {
                    "name": "F#4",
                    "midi": 66,
                    "time": 77.4681060000001,
                    "velocity": 0.2677165354330709,
                    "duration": 0.4723665000000068
                },
                {
                    "name": "A3",
                    "midi": 57,
                    "time": 77.94047250000011,
                    "velocity": 0.29133858267716534,
                    "duration": 0.4723665000000068
                },
                {
                    "name": "C#4",
                    "midi": 61,
                    "time": 78.41283900000012,
                    "velocity": 0.25196850393700787,
                    "duration": 0.4723665000000068
                },
                {
                    "name": "E4",
                    "midi": 64,
                    "time": 78.88520550000013,
                    "velocity": 0.25196850393700787,
                    "duration": 0.2361832499999963
                },
                {
                    "name": "A3",
                    "midi": 57,
                    "time": 79.35757200000012,
                    "velocity": 0.4015748031496063,
                    "duration": 0.9447329999999994
                },
                {
                    "name": "C#4",
                    "midi": 61,
                    "time": 79.35757200000012,
                    "velocity": 0.4015748031496063,
                    "duration": 0.9447329999999994
                },
                {
                    "name": "D4",
                    "midi": 62,
                    "time": 80.77467150000012,
                    "velocity": 0.33858267716535434,
                    "duration": 0.9447329999999994
                },
                {
                    "name": "G#3",
                    "midi": 56,
                    "time": 80.77467150000012,
                    "velocity": 0.33858267716535434,
                    "duration": 0.9447329999999994
                },
                {
                    "name": "A3",
                    "midi": 57,
                    "time": 82.19177100000013,
                    "velocity": 0.3937007874015748,
                    "duration": 0.9447329999999994
                },
                {
                    "name": "C#4",
                    "midi": 61,
                    "time": 82.19177100000013,
                    "velocity": 0.3937007874015748,
                    "duration": 0.9447329999999994
                },
                {
                    "name": "D#4",
                    "midi": 63,
                    "time": 83.13650400000013,
                    "velocity": 0.3779527559055118,
                    "duration": 0.4330026250000003
                },
                {
                    "name": "F#3",
                    "midi": 54,
                    "time": 83.13650400000013,
                    "velocity": 0.3779527559055118,
                    "duration": 0.4330026250000003
                },
                {
                    "name": "E3",
                    "midi": 52,
                    "time": 83.60887050000014,
                    "velocity": 0.31496062992125984,
                    "duration": 1.369862850000004
                },
                {
                    "name": "E4",
                    "midi": 64,
                    "time": 83.60887050000014,
                    "velocity": 0.31496062992125984,
                    "duration": 1.369862850000004
                },
                {
                    "name": "E4",
                    "midi": 64,
                    "time": 85.02597000000014,
                    "velocity": 0.25196850393700787,
                    "duration": 0.9447329999999994
                },
                {
                    "name": "A3",
                    "midi": 57,
                    "time": 85.02597000000014,
                    "velocity": 0.2992125984251969,
                    "duration": 0.7085497500000031
                },
                {
                    "name": "B3",
                    "midi": 59,
                    "time": 85.73451975000015,
                    "velocity": 0.2283464566929134,
                    "duration": 0.2361832499999963
                },
                {
                    "name": "E4",
                    "midi": 64,
                    "time": 85.97070300000014,
                    "velocity": 0.1889763779527559,
                    "duration": 0.4723665000000068
                },
                {
                    "name": "A3",
                    "midi": 57,
                    "time": 85.97070300000014,
                    "velocity": 0.2283464566929134,
                    "duration": 0.4723665000000068
                },
                {
                    "name": "C#4",
                    "midi": 61,
                    "time": 86.44306950000015,
                    "velocity": 0.25984251968503935,
                    "duration": 0.9447329999999994
                },
                {
                    "name": "E4",
                    "midi": 64,
                    "time": 86.44306950000015,
                    "velocity": 0.2283464566929134,
                    "duration": 0.9447329999999994
                },
                {
                    "name": "C#4",
                    "midi": 61,
                    "time": 87.38780250000015,
                    "velocity": 0.2047244094488189,
                    "duration": 0.4251298500000047
                },
                {
                    "name": "E4",
                    "midi": 64,
                    "time": 87.38780250000015,
                    "velocity": 0.18110236220472442,
                    "duration": 0.4251298500000047
                },
                {
                    "name": "G#3",
                    "midi": 56,
                    "time": 87.86016900000016,
                    "velocity": 0.2992125984251969,
                    "duration": 0.7085497500000031
                },
                {
                    "name": "E4",
                    "midi": 64,
                    "time": 87.86016900000016,
                    "velocity": 0.25196850393700787,
                    "duration": 0.9447329999999994
                },
                {
                    "name": "A3",
                    "midi": 57,
                    "time": 88.56871875000016,
                    "velocity": 0.25196850393700787,
                    "duration": 0.2361832499999963
                },
                {
                    "name": "G#3",
                    "midi": 56,
                    "time": 88.80490200000015,
                    "velocity": 0.25196850393700787,
                    "duration": 0.4723665000000068
                },
                {
                    "name": "E4",
                    "midi": 64,
                    "time": 88.80490200000015,
                    "velocity": 0.2125984251968504,
                    "duration": 0.4723665000000068
                },
                {
                    "name": "B3",
                    "midi": 59,
                    "time": 89.27726850000016,
                    "velocity": 0.2677165354330709,
                    "duration": 0.9447329999999994
                },
                {
                    "name": "E4",
                    "midi": 64,
                    "time": 89.27726850000016,
                    "velocity": 0.23622047244094488,
                    "duration": 0.9447329999999994
                },
                {
                    "name": "B3",
                    "midi": 59,
                    "time": 90.22200150000016,
                    "velocity": 0.2047244094488189,
                    "duration": 0.4251298500000047
                },
                {
                    "name": "E4",
                    "midi": 64,
                    "time": 90.22200150000016,
                    "velocity": 0.18110236220472442,
                    "duration": 0.4251298500000047
                },
                {
                    "name": "E4",
                    "midi": 64,
                    "time": 90.69436800000017,
                    "velocity": 0.29133858267716534,
                    "duration": 0.9447329999999994
                },
                {
                    "name": "F#3",
                    "midi": 54,
                    "time": 90.69436800000017,
                    "velocity": 0.3543307086614173,
                    "duration": 0.9447329999999994
                },
                {
                    "name": "E4",
                    "midi": 64,
                    "time": 91.63910100000017,
                    "velocity": 0.3858267716535433,
                    "duration": 0.4723665000000068
                },
                {
                    "name": "G#3",
                    "midi": 56,
                    "time": 91.63910100000017,
                    "velocity": 0.3858267716535433,
                    "duration": 0.4723665000000068
                },
                {
                    "name": "E4",
                    "midi": 64,
                    "time": 92.11146750000017,
                    "velocity": 0.4330708661417323,
                    "duration": 0.9447329999999994
                },
                {
                    "name": "A3",
                    "midi": 57,
                    "time": 92.11146750000017,
                    "velocity": 0.4330708661417323,
                    "duration": 0.9447329999999994
                },
                {
                    "name": "D3",
                    "midi": 50,
                    "time": 93.05620050000017,
                    "velocity": 0.4330708661417323,
                    "duration": 0.4723665000000068
                },
                {
                    "name": "E3",
                    "midi": 52,
                    "time": 93.52856700000018,
                    "velocity": 0.4094488188976378,
                    "duration": 0.9447329999999994
                },
                {
                    "name": "E2",
                    "midi": 40,
                    "time": 94.47330000000018,
                    "velocity": 0.4015748031496063,
                    "duration": 0.4723665000000068
                },
                {
                    "name": "A2",
                    "midi": 45,
                    "time": 94.94566650000019,
                    "velocity": 0.3779527559055118,
                    "duration": 1.4170995000000062
                },
                {
                    "name": "A3",
                    "midi": 57,
                    "time": 96.36276600000019,
                    "velocity": 0.44881889763779526,
                    "duration": 0.9447329999999994
                },
                {
                    "name": "A2",
                    "midi": 45,
                    "time": 96.36276600000019,
                    "velocity": 0.3779527559055118,
                    "duration": 0.9447329999999994
                },
                {
                    "name": "B2",
                    "midi": 47,
                    "time": 97.30749900000019,
                    "velocity": 0.41732283464566927,
                    "duration": 0.4723665000000068
                },
                {
                    "name": "B3",
                    "midi": 59,
                    "time": 97.30749900000019,
                    "velocity": 0.49606299212598426,
                    "duration": 0.4723665000000068
                },
                {
                    "name": "C#3",
                    "midi": 49,
                    "time": 97.7798655000002,
                    "velocity": 0.44881889763779526,
                    "duration": 0.9447329999999994
                },
                {
                    "name": "C#4",
                    "midi": 61,
                    "time": 97.7798655000002,
                    "velocity": 0.5433070866141733,
                    "duration": 0.9447329999999994
                },
                {
                    "name": "D4",
                    "midi": 62,
                    "time": 98.7245985000002,
                    "velocity": 0.2992125984251969,
                    "duration": 0.4723665000000068
                },
                {
                    "name": "D3",
                    "midi": 50,
                    "time": 98.7245985000002,
                    "velocity": 0.25196850393700787,
                    "duration": 0.4723665000000068
                },
                {
                    "name": "E3",
                    "midi": 52,
                    "time": 99.1969650000002,
                    "velocity": 0.25196850393700787,
                    "duration": 0.9447329999999994
                },
                {
                    "name": "C#4",
                    "midi": 61,
                    "time": 99.1969650000002,
                    "velocity": 0.30708661417322836,
                    "duration": 0.9447329999999994
                },
                {
                    "name": "E3",
                    "midi": 52,
                    "time": 100.1416980000002,
                    "velocity": 0.23622047244094488,
                    "duration": 0.4723665000000068
                },
                {
                    "name": "D4",
                    "midi": 62,
                    "time": 100.1416980000002,
                    "velocity": 0.28346456692913385,
                    "duration": 0.4723665000000068
                },
                {
                    "name": "C#4",
                    "midi": 61,
                    "time": 100.61406450000021,
                    "velocity": 0.28346456692913385,
                    "duration": 0.9447329999999994
                },
                {
                    "name": "A3",
                    "midi": 57,
                    "time": 100.61406450000021,
                    "velocity": 0.23622047244094488,
                    "duration": 0.9447329999999994
                },
                {
                    "name": "E4",
                    "midi": 64,
                    "time": 105.33772950000021,
                    "velocity": 0.30708661417322836,
                    "duration": 0.17713743749999367
                },
                {
                    "name": "A3",
                    "midi": 57,
                    "time": 105.33772950000021,
                    "velocity": 0.23622047244094488,
                    "duration": 0.17713743749999367
                },
                {
                    "name": "C#4",
                    "midi": 61,
                    "time": 106.7548290000002,
                    "velocity": 0.23622047244094488,
                    "duration": 0.17713743749999367
                },
                {
                    "name": "E4",
                    "midi": 64,
                    "time": 106.7548290000002,
                    "velocity": 0.30708661417322836,
                    "duration": 0.17713743749999367
                },
                {
                    "name": "G#3",
                    "midi": 56,
                    "time": 108.17192850000019,
                    "velocity": 0.23622047244094488,
                    "duration": 0.17713743749999367
                },
                {
                    "name": "E4",
                    "midi": 64,
                    "time": 108.17192850000019,
                    "velocity": 0.30708661417322836,
                    "duration": 0.17713743749999367
                },
                {
                    "name": "B3",
                    "midi": 59,
                    "time": 109.58902800000018,
                    "velocity": 0.23622047244094488,
                    "duration": 0.17713743749999367
                },
                {
                    "name": "E4",
                    "midi": 64,
                    "time": 109.58902800000018,
                    "velocity": 0.30708661417322836,
                    "duration": 0.17713743749999367
                },
                {
                    "name": "F#3",
                    "midi": 54,
                    "time": 111.00612750000018,
                    "velocity": 0.2677165354330709,
                    "duration": 0.17713743749999367
                },
                {
                    "name": "E4",
                    "midi": 64,
                    "time": 111.00612750000018,
                    "velocity": 0.3543307086614173,
                    "duration": 0.17713743749999367
                },
                {
                    "name": "E4",
                    "midi": 64,
                    "time": 112.42322700000017,
                    "velocity": 0.36220472440944884,
                    "duration": 0.17713743749999367
                },
                {
                    "name": "G#3",
                    "midi": 56,
                    "time": 112.42322700000017,
                    "velocity": 0.2755905511811024,
                    "duration": 0.17713743749999367
                },
                {
                    "name": "E4",
                    "midi": 64,
                    "time": 113.36796000000017,
                    "velocity": 0.33070866141732286,
                    "duration": 0.9447329999999994
                },
                {
                    "name": "A3",
                    "midi": 57,
                    "time": 113.36796000000017,
                    "velocity": 0.25984251968503935,
                    "duration": 0.9447329999999994
                },
                {
                    "name": "F#3",
                    "midi": 54,
                    "time": 114.31269300000017,
                    "velocity": 0.30708661417322836,
                    "duration": 0.4723665000000068
                },
                {
                    "name": "D3",
                    "midi": 50,
                    "time": 114.31269300000017,
                    "velocity": 0.25984251968503935,
                    "duration": 0.4723665000000068
                },
                {
                    "name": "E3",
                    "midi": 52,
                    "time": 114.78505950000017,
                    "velocity": 0.25984251968503935,
                    "duration": 0.9447329999999994
                },
                {
                    "name": "G#3",
                    "midi": 56,
                    "time": 114.78505950000017,
                    "velocity": 0.33070866141732286,
                    "duration": 0.9447329999999994
                },
                {
                    "name": "A2",
                    "midi": 45,
                    "time": 116.20215900000018,
                    "velocity": 0.5118110236220472,
                    "duration": 0.2361832499999963
                },
                {
                    "name": "A3",
                    "midi": 57,
                    "time": 116.43834225000018,
                    "velocity": 0.4645669291338583,
                    "duration": 0.17713743749999367
                },
                {
                    "name": "A3",
                    "midi": 57,
                    "time": 116.67452550000017,
                    "velocity": 0.4645669291338583,
                    "duration": 0.17713743749999367
                },
                {
                    "name": "A3",
                    "midi": 57,
                    "time": 116.91070875000017,
                    "velocity": 0.4645669291338583,
                    "duration": 0.17713743749999367
                },
                {
                    "name": "A3",
                    "midi": 57,
                    "time": 117.14689200000016,
                    "velocity": 0.4645669291338583,
                    "duration": 0.17713743749999367
                },
                {
                    "name": "A3",
                    "midi": 57,
                    "time": 117.38307525000016,
                    "velocity": 0.4645669291338583,
                    "duration": 0.17713743749999367
                },
                {
                    "name": "A2",
                    "midi": 45,
                    "time": 117.61925850000016,
                    "velocity": 0.5118110236220472,
                    "duration": 0.2361832499999963
                },
                {
                    "name": "A3",
                    "midi": 57,
                    "time": 117.85544175000015,
                    "velocity": 0.4645669291338583,
                    "duration": 0.17713743749999367
                },
                {
                    "name": "A3",
                    "midi": 57,
                    "time": 118.09162500000015,
                    "velocity": 0.4645669291338583,
                    "duration": 0.17713743749999367
                },
                {
                    "name": "A3",
                    "midi": 57,
                    "time": 118.32780825000015,
                    "velocity": 0.4566929133858268,
                    "duration": 0.17713743749999367
                },
                {
                    "name": "A3",
                    "midi": 57,
                    "time": 118.56399150000014,
                    "velocity": 0.4566929133858268,
                    "duration": 0.17713743749999367
                },
                {
                    "name": "A3",
                    "midi": 57,
                    "time": 118.80017475000014,
                    "velocity": 0.4566929133858268,
                    "duration": 0.17713743749999367
                },
                {
                    "name": "E2",
                    "midi": 40,
                    "time": 119.03635800000013,
                    "velocity": 0.5118110236220472,
                    "duration": 0.2361832499999963
                },
                {
                    "name": "E3",
                    "midi": 52,
                    "time": 119.27254125000013,
                    "velocity": 0.44881889763779526,
                    "duration": 0.17713743749999367
                },
                {
                    "name": "E3",
                    "midi": 52,
                    "time": 119.50872450000013,
                    "velocity": 0.44881889763779526,
                    "duration": 0.17713743749999367
                },
                {
                    "name": "E3",
                    "midi": 52,
                    "time": 119.74490775000012,
                    "velocity": 0.44881889763779526,
                    "duration": 0.17713743749999367
                },
                {
                    "name": "E3",
                    "midi": 52,
                    "time": 119.98109100000012,
                    "velocity": 0.44881889763779526,
                    "duration": 0.17713743749999367
                },
                {
                    "name": "E3",
                    "midi": 52,
                    "time": 120.21727425000012,
                    "velocity": 0.44881889763779526,
                    "duration": 0.17713743749999367
                },
                {
                    "name": "E2",
                    "midi": 40,
                    "time": 120.45345750000011,
                    "velocity": 0.5118110236220472,
                    "duration": 0.2361832499999963
                },
                {
                    "name": "E3",
                    "midi": 52,
                    "time": 120.68964075000011,
                    "velocity": 0.4566929133858268,
                    "duration": 0.17713743749999367
                },
                {
                    "name": "E3",
                    "midi": 52,
                    "time": 120.9258240000001,
                    "velocity": 0.4566929133858268,
                    "duration": 0.17713743749999367
                },
                {
                    "name": "E3",
                    "midi": 52,
                    "time": 121.1620072500001,
                    "velocity": 0.4566929133858268,
                    "duration": 0.17713743749999367
                },
                {
                    "name": "E3",
                    "midi": 52,
                    "time": 121.3981905000001,
                    "velocity": 0.4566929133858268,
                    "duration": 0.17713743749999367
                },
                {
                    "name": "E3",
                    "midi": 52,
                    "time": 121.6343737500001,
                    "velocity": 0.4566929133858268,
                    "duration": 0.17713743749999367
                },
                {
                    "name": "F#2",
                    "midi": 42,
                    "time": 121.87055700000009,
                    "velocity": 0.5118110236220472,
                    "duration": 0.2361832499999963
                },
                {
                    "name": "F#3",
                    "midi": 54,
                    "time": 122.10674025000009,
                    "velocity": 0.44881889763779526,
                    "duration": 0.17713743749999367
                },
                {
                    "name": "F#3",
                    "midi": 54,
                    "time": 122.34292350000008,
                    "velocity": 0.44881889763779526,
                    "duration": 0.17713743749999367
                },
                {
                    "name": "F#3",
                    "midi": 54,
                    "time": 122.57910675000008,
                    "velocity": 0.44881889763779526,
                    "duration": 0.17713743749999367
                },
                {
                    "name": "G#2",
                    "midi": 44,
                    "time": 122.81529000000008,
                    "velocity": 0.5118110236220472,
                    "duration": 0.2361832499999963
                },
                {
                    "name": "G#3",
                    "midi": 56,
                    "time": 123.05147325000007,
                    "velocity": 0.44881889763779526,
                    "duration": 0.2361832499999963
                },
                {
                    "name": "A2",
                    "midi": 45,
                    "time": 123.28765650000007,
                    "velocity": 0.5118110236220472,
                    "duration": 0.2361832499999963
                },
                {
                    "name": "A3",
                    "midi": 57,
                    "time": 123.52383975000006,
                    "velocity": 0.4566929133858268,
                    "duration": 0.17713743749999367
                },
                {
                    "name": "A3",
                    "midi": 57,
                    "time": 123.76002300000006,
                    "velocity": 0.4566929133858268,
                    "duration": 0.17713743749999367
                },
                {
                    "name": "A3",
                    "midi": 57,
                    "time": 123.99620625000006,
                    "velocity": 0.4645669291338583,
                    "duration": 0.17713743749999367
                },
                {
                    "name": "D2",
                    "midi": 38,
                    "time": 124.23238950000005,
                    "velocity": 0.5118110236220472,
                    "duration": 0.2361832499999963
                },
                {
                    "name": "D3",
                    "midi": 50,
                    "time": 124.46857275000005,
                    "velocity": 0.4645669291338583,
                    "duration": 0.2361832499999963
                },
                {
                    "name": "E2",
                    "midi": 40,
                    "time": 124.70475600000005,
                    "velocity": 0.5118110236220472,
                    "duration": 0.2361832499999963
                },
                {
                    "name": "E3",
                    "midi": 52,
                    "time": 124.94093925000004,
                    "velocity": 0.4566929133858268,
                    "duration": 0.17713743749999367
                },
                {
                    "name": "E3",
                    "midi": 52,
                    "time": 125.17712250000004,
                    "velocity": 0.4566929133858268,
                    "duration": 0.17713743749999367
                },
                {
                    "name": "E3",
                    "midi": 52,
                    "time": 125.41330575000003,
                    "velocity": 0.4566929133858268,
                    "duration": 0.17713743749999367
                },
                {
                    "name": "E2",
                    "midi": 40,
                    "time": 125.64948900000003,
                    "velocity": 0.5118110236220472,
                    "duration": 0.2361832499999963
                },
                {
                    "name": "E3",
                    "midi": 52,
                    "time": 125.88567225000003,
                    "velocity": 0.4409448818897638,
                    "duration": 0.2361832499999963
                },
                {
                    "name": "A1",
                    "midi": 33,
                    "time": 126.12185550000002,
                    "velocity": 0.5905511811023622,
                    "duration": 0.4723665000000068
                },
                {
                    "name": "A2",
                    "midi": 45,
                    "time": 126.59422200000003,
                    "velocity": 0.5275590551181102,
                    "duration": 0.4723665000000068
                },
                {
                    "name": "A3",
                    "midi": 57,
                    "time": 128.01132150000004,
                    "velocity": 0.23622047244094488,
                    "duration": 0.17713743749999367
                },
                {
                    "name": "E4",
                    "midi": 64,
                    "time": 128.01132150000004,
                    "velocity": 0.30708661417322836,
                    "duration": 0.17713743749999367
                },
                {
                    "name": "C#4",
                    "midi": 61,
                    "time": 129.42842100000004,
                    "velocity": 0.23622047244094488,
                    "duration": 0.17713743749999367
                },
                {
                    "name": "E4",
                    "midi": 64,
                    "time": 129.42842100000004,
                    "velocity": 0.30708661417322836,
                    "duration": 0.17713743749999367
                },
                {
                    "name": "G#3",
                    "midi": 56,
                    "time": 130.84552050000005,
                    "velocity": 0.23622047244094488,
                    "duration": 0.17713743749999367
                },
                {
                    "name": "E4",
                    "midi": 64,
                    "time": 130.84552050000005,
                    "velocity": 0.30708661417322836,
                    "duration": 0.17713743749999367
                },
                {
                    "name": "B3",
                    "midi": 59,
                    "time": 132.26262000000006,
                    "velocity": 0.23622047244094488,
                    "duration": 0.17713743749999367
                },
                {
                    "name": "E4",
                    "midi": 64,
                    "time": 132.26262000000006,
                    "velocity": 0.30708661417322836,
                    "duration": 0.17713743749999367
                },
                {
                    "name": "F#3",
                    "midi": 54,
                    "time": 133.67971950000006,
                    "velocity": 0.2677165354330709,
                    "duration": 0.17713743749999367
                },
                {
                    "name": "E4",
                    "midi": 64,
                    "time": 133.67971950000006,
                    "velocity": 0.3543307086614173,
                    "duration": 0.17713743749999367
                },
                {
                    "name": "E4",
                    "midi": 64,
                    "time": 135.09681900000007,
                    "velocity": 0.36220472440944884,
                    "duration": 0.17713743749999367
                },
                {
                    "name": "G#3",
                    "midi": 56,
                    "time": 135.09681900000007,
                    "velocity": 0.2755905511811024,
                    "duration": 0.17713743749999367
                },
                {
                    "name": "E4",
                    "midi": 64,
                    "time": 136.04155200000005,
                    "velocity": 0.33070866141732286,
                    "duration": 0.9447330000000136
                },
                {
                    "name": "A3",
                    "midi": 57,
                    "time": 136.04155200000005,
                    "velocity": 0.25984251968503935,
                    "duration": 0.9447330000000136
                },
                {
                    "name": "F#3",
                    "midi": 54,
                    "time": 136.98628500000007,
                    "velocity": 0.30708661417322836,
                    "duration": 0.4723664999999926
                },
                {
                    "name": "D3",
                    "midi": 50,
                    "time": 136.98628500000007,
                    "velocity": 0.25984251968503935,
                    "duration": 0.4723664999999926
                },
                {
                    "name": "G#3",
                    "midi": 56,
                    "time": 137.45865150000006,
                    "velocity": 0.33070866141732286,
                    "duration": 0.9447330000000136
                },
                {
                    "name": "E3",
                    "midi": 52,
                    "time": 137.45865150000006,
                    "velocity": 0.25984251968503935,
                    "duration": 0.9447330000000136
                },
                {
                    "name": "A2",
                    "midi": 45,
                    "time": 138.87575100000007,
                    "velocity": 0.5118110236220472,
                    "duration": 0.2361832500000105
                },
                {
                    "name": "A3",
                    "midi": 57,
                    "time": 139.11193425000008,
                    "velocity": 0.4645669291338583,
                    "duration": 0.17713743749999367
                },
                {
                    "name": "A3",
                    "midi": 57,
                    "time": 139.34811750000006,
                    "velocity": 0.4645669291338583,
                    "duration": 0.17713743749999367
                },
                {
                    "name": "A3",
                    "midi": 57,
                    "time": 139.58430075000004,
                    "velocity": 0.4645669291338583,
                    "duration": 0.17713743749999367
                },
                {
                    "name": "A3",
                    "midi": 57,
                    "time": 139.82048400000002,
                    "velocity": 0.4645669291338583,
                    "duration": 0.17713743749999367
                },
                {
                    "name": "A3",
                    "midi": 57,
                    "time": 140.05666725,
                    "velocity": 0.4645669291338583,
                    "duration": 0.17713743749999367
                },
                {
                    "name": "A2",
                    "midi": 45,
                    "time": 140.2928505,
                    "velocity": 0.5118110236220472,
                    "duration": 0.2361832500000105
                },
                {
                    "name": "A3",
                    "midi": 57,
                    "time": 140.52903375,
                    "velocity": 0.4645669291338583,
                    "duration": 0.17713743749999367
                },
                {
                    "name": "A3",
                    "midi": 57,
                    "time": 140.76521699999998,
                    "velocity": 0.4645669291338583,
                    "duration": 0.17713743749999367
                },
                {
                    "name": "A3",
                    "midi": 57,
                    "time": 141.00140024999996,
                    "velocity": 0.4566929133858268,
                    "duration": 0.17713743749999367
                },
                {
                    "name": "A3",
                    "midi": 57,
                    "time": 141.23758349999994,
                    "velocity": 0.4566929133858268,
                    "duration": 0.17713743749999367
                },
                {
                    "name": "A3",
                    "midi": 57,
                    "time": 141.47376674999992,
                    "velocity": 0.4566929133858268,
                    "duration": 0.17713743749999367
                },
                {
                    "name": "E2",
                    "midi": 40,
                    "time": 141.7099499999999,
                    "velocity": 0.5118110236220472,
                    "duration": 0.2361832500000105
                },
                {
                    "name": "E3",
                    "midi": 52,
                    "time": 141.94613324999992,
                    "velocity": 0.44881889763779526,
                    "duration": 0.17713743749999367
                },
                {
                    "name": "E3",
                    "midi": 52,
                    "time": 142.1823164999999,
                    "velocity": 0.44881889763779526,
                    "duration": 0.17713743749999367
                },
                {
                    "name": "E3",
                    "midi": 52,
                    "time": 142.41849974999988,
                    "velocity": 0.44881889763779526,
                    "duration": 0.17713743749999367
                },
                {
                    "name": "E3",
                    "midi": 52,
                    "time": 142.65468299999986,
                    "velocity": 0.44881889763779526,
                    "duration": 0.17713743749999367
                },
                {
                    "name": "E3",
                    "midi": 52,
                    "time": 142.89086624999985,
                    "velocity": 0.44881889763779526,
                    "duration": 0.17713743749999367
                },
                {
                    "name": "E2",
                    "midi": 40,
                    "time": 143.12704949999983,
                    "velocity": 0.5118110236220472,
                    "duration": 0.2361832500000105
                },
                {
                    "name": "E3",
                    "midi": 52,
                    "time": 143.36323274999984,
                    "velocity": 0.4566929133858268,
                    "duration": 0.17713743749999367
                },
                {
                    "name": "E3",
                    "midi": 52,
                    "time": 143.59941599999982,
                    "velocity": 0.4566929133858268,
                    "duration": 0.17713743749999367
                },
                {
                    "name": "E3",
                    "midi": 52,
                    "time": 143.8355992499998,
                    "velocity": 0.4566929133858268,
                    "duration": 0.17713743749999367
                },
                {
                    "name": "E3",
                    "midi": 52,
                    "time": 144.07178249999978,
                    "velocity": 0.4566929133858268,
                    "duration": 0.17713743749999367
                },
                {
                    "name": "E3",
                    "midi": 52,
                    "time": 144.30796574999977,
                    "velocity": 0.4566929133858268,
                    "duration": 0.17713743749999367
                },
                {
                    "name": "F#2",
                    "midi": 42,
                    "time": 144.54414899999975,
                    "velocity": 0.5118110236220472,
                    "duration": 0.2361832500000105
                },
                {
                    "name": "F#3",
                    "midi": 54,
                    "time": 144.78033224999976,
                    "velocity": 0.44881889763779526,
                    "duration": 0.17713743749999367
                },
                {
                    "name": "F#3",
                    "midi": 54,
                    "time": 145.01651549999974,
                    "velocity": 0.44881889763779526,
                    "duration": 0.17713743749999367
                },
                {
                    "name": "F#3",
                    "midi": 54,
                    "time": 145.25269874999972,
                    "velocity": 0.44881889763779526,
                    "duration": 0.17713743749999367
                },
                {
                    "name": "G#2",
                    "midi": 44,
                    "time": 145.4888819999997,
                    "velocity": 0.5118110236220472,
                    "duration": 0.2361832500000105
                },
                {
                    "name": "G#3",
                    "midi": 56,
                    "time": 145.72506524999972,
                    "velocity": 0.44881889763779526,
                    "duration": 0.2361832500000105
                },
                {
                    "name": "A2",
                    "midi": 45,
                    "time": 145.96124849999973,
                    "velocity": 0.5118110236220472,
                    "duration": 0.2361832500000105
                },
                {
                    "name": "A3",
                    "midi": 57,
                    "time": 146.19743174999974,
                    "velocity": 0.4566929133858268,
                    "duration": 0.17713743749999367
                },
                {
                    "name": "A3",
                    "midi": 57,
                    "time": 146.43361499999972,
                    "velocity": 0.4566929133858268,
                    "duration": 0.17713743749999367
                },
                {
                    "name": "A3",
                    "midi": 57,
                    "time": 146.6697982499997,
                    "velocity": 0.4645669291338583,
                    "duration": 0.17713743749999367
                },
                {
                    "name": "D2",
                    "midi": 38,
                    "time": 146.90598149999968,
                    "velocity": 0.5118110236220472,
                    "duration": 0.2361832500000105
                },
                {
                    "name": "D3",
                    "midi": 50,
                    "time": 147.1421647499997,
                    "velocity": 0.4645669291338583,
                    "duration": 0.2361832500000105
                },
                {
                    "name": "E2",
                    "midi": 40,
                    "time": 147.3783479999997,
                    "velocity": 0.5118110236220472,
                    "duration": 0.2361832500000105
                },
                {
                    "name": "E3",
                    "midi": 52,
                    "time": 147.61453124999971,
                    "velocity": 0.4566929133858268,
                    "duration": 0.17713743749999367
                },
                {
                    "name": "E3",
                    "midi": 52,
                    "time": 147.8507144999997,
                    "velocity": 0.4566929133858268,
                    "duration": 0.17713743749999367
                },
                {
                    "name": "E3",
                    "midi": 52,
                    "time": 148.08689774999968,
                    "velocity": 0.4566929133858268,
                    "duration": 0.17713743749999367
                },
                {
                    "name": "E2",
                    "midi": 40,
                    "time": 148.32308099999966,
                    "velocity": 0.5118110236220472,
                    "duration": 0.2361832500000105
                },
                {
                    "name": "E3",
                    "midi": 52,
                    "time": 148.55926424999967,
                    "velocity": 0.4409448818897638,
                    "duration": 0.2361832500000105
                },
                {
                    "name": "A1",
                    "midi": 33,
                    "time": 148.79544749999968,
                    "velocity": 0.5905511811023622,
                    "duration": 0.4723664999999926
                },
                {
                    "name": "A2",
                    "midi": 45,
                    "time": 149.26781399999967,
                    "velocity": 0.5275590551181102,
                    "duration": 0.4723664999999926
                },
                {
                    "name": "C#4",
                    "midi": 61,
                    "time": 150.68491349999968,
                    "velocity": 0.30708661417322836,
                    "duration": 0.17713743749999367
                },
                {
                    "name": "A3",
                    "midi": 57,
                    "time": 150.68491349999968,
                    "velocity": 0.23622047244094488,
                    "duration": 0.17713743749999367
                },
                {
                    "name": "A3",
                    "midi": 57,
                    "time": 152.1020129999997,
                    "velocity": 0.23622047244094488,
                    "duration": 0.17713743749999367
                },
                {
                    "name": "D4",
                    "midi": 62,
                    "time": 152.1020129999997,
                    "velocity": 0.30708661417322836,
                    "duration": 0.17713743749999367
                },
                {
                    "name": "F#4",
                    "midi": 66,
                    "time": 153.04674599999967,
                    "velocity": 0.2440944881889764,
                    "duration": 0.17713743749999367
                },
                {
                    "name": "A3",
                    "midi": 57,
                    "time": 153.04674599999967,
                    "velocity": 0.2047244094488189,
                    "duration": 0.17713743749999367
                },
                {
                    "name": "A3",
                    "midi": 57,
                    "time": 153.51911249999966,
                    "velocity": 0.1889763779527559,
                    "duration": 0.17713743749999367
                },
                {
                    "name": "E4",
                    "midi": 64,
                    "time": 153.51911249999966,
                    "velocity": 0.2283464566929134,
                    "duration": 0.17713743749999367
                },
                {
                    "name": "A3",
                    "midi": 57,
                    "time": 153.99147899999966,
                    "velocity": 0.1889763779527559,
                    "duration": 0.17713743749999367
                },
                {
                    "name": "D4",
                    "midi": 62,
                    "time": 153.99147899999966,
                    "velocity": 0.2283464566929134,
                    "duration": 0.17713743749999367
                },
                {
                    "name": "C#4",
                    "midi": 61,
                    "time": 154.93621199999964,
                    "velocity": 0.29133858267716534,
                    "duration": 0.17713743749999367
                },
                {
                    "name": "A3",
                    "midi": 57,
                    "time": 154.93621199999964,
                    "velocity": 0.2440944881889764,
                    "duration": 0.17713743749999367
                },
                {
                    "name": "A3",
                    "midi": 57,
                    "time": 155.88094499999963,
                    "velocity": 0.36220472440944884,
                    "duration": 1.4170995000000062
                },
                {
                    "name": "E4",
                    "midi": 64,
                    "time": 155.88094499999963,
                    "velocity": 0.4330708661417323,
                    "duration": 1.4170995000000062
                },
                {
                    "name": "C#4",
                    "midi": 61,
                    "time": 155.88094499999963,
                    "velocity": 0.36220472440944884,
                    "duration": 1.4170995000000062
                },
                {
                    "name": "E4",
                    "midi": 64,
                    "time": 157.29804449999963,
                    "velocity": 0.4015748031496063,
                    "duration": 1.4170995000000062
                },
                {
                    "name": "B3",
                    "midi": 59,
                    "time": 157.29804449999963,
                    "velocity": 0.33858267716535434,
                    "duration": 1.4170995000000062
                },
                {
                    "name": "D4",
                    "midi": 62,
                    "time": 157.29804449999963,
                    "velocity": 0.33858267716535434,
                    "duration": 1.4170995000000062
                },
                {
                    "name": "E4",
                    "midi": 64,
                    "time": 158.71514399999964,
                    "velocity": 0.4645669291338583,
                    "duration": 0.9447330000000136
                },
                {
                    "name": "C#4",
                    "midi": 61,
                    "time": 158.71514399999964,
                    "velocity": 0.3937007874015748,
                    "duration": 0.9447330000000136
                },
                {
                    "name": "A3",
                    "midi": 57,
                    "time": 159.65987699999965,
                    "velocity": 0.2047244094488189,
                    "duration": 0.4723664999999926
                },
                {
                    "name": "F#3",
                    "midi": 54,
                    "time": 159.65987699999965,
                    "velocity": 0.2047244094488189,
                    "duration": 0.4723664999999926
                },
                {
                    "name": "D#4",
                    "midi": 63,
                    "time": 159.65987699999965,
                    "velocity": 0.2440944881889764,
                    "duration": 0.4723664999999926
                },
                {
                    "name": "E4",
                    "midi": 64,
                    "time": 160.13224349999965,
                    "velocity": 0.31496062992125984,
                    "duration": 1.4170995000000062
                },
                {
                    "name": "E3",
                    "midi": 52,
                    "time": 160.13224349999965,
                    "velocity": 0.2677165354330709,
                    "duration": 1.4170995000000062
                },
                {
                    "name": "A3",
                    "midi": 57,
                    "time": 162.02170949999964,
                    "velocity": 0.23622047244094488,
                    "duration": 0.17713743749999367
                },
                {
                    "name": "E4",
                    "midi": 64,
                    "time": 162.02170949999964,
                    "velocity": 0.30708661417322836,
                    "duration": 0.17713743749999367
                },
                {
                    "name": "E4",
                    "midi": 64,
                    "time": 163.43880899999965,
                    "velocity": 0.30708661417322836,
                    "duration": 0.17713743749999367
                },
                {
                    "name": "C#4",
                    "midi": 61,
                    "time": 163.43880899999965,
                    "velocity": 0.23622047244094488,
                    "duration": 0.17713743749999367
                },
                {
                    "name": "E4",
                    "midi": 64,
                    "time": 164.85590849999966,
                    "velocity": 0.3464566929133858,
                    "duration": 0.17713743749999367
                },
                {
                    "name": "G#3",
                    "midi": 56,
                    "time": 164.85590849999966,
                    "velocity": 0.2677165354330709,
                    "duration": 0.17713743749999367
                },
                {
                    "name": "E4",
                    "midi": 64,
                    "time": 166.27300799999966,
                    "velocity": 0.3464566929133858,
                    "duration": 0.17713743749999367
                },
                {
                    "name": "B3",
                    "midi": 59,
                    "time": 166.27300799999966,
                    "velocity": 0.2677165354330709,
                    "duration": 0.17713743749999367
                },
                {
                    "name": "F#3",
                    "midi": 54,
                    "time": 167.69010749999967,
                    "velocity": 0.3543307086614173,
                    "duration": 0.4723664999999926
                },
                {
                    "name": "E4",
                    "midi": 64,
                    "time": 167.69010749999967,
                    "velocity": 0.41732283464566927,
                    "duration": 0.4723664999999926
                },
                {
                    "name": "G#3",
                    "midi": 56,
                    "time": 168.16247399999966,
                    "velocity": 0.33858267716535434,
                    "duration": 0.4723664999999926
                },
                {
                    "name": "E4",
                    "midi": 64,
                    "time": 168.16247399999966,
                    "velocity": 0.4015748031496063,
                    "duration": 0.4723664999999926
                },
                {
                    "name": "G#3",
                    "midi": 56,
                    "time": 169.10720699999965,
                    "velocity": 0.3543307086614173,
                    "duration": 0.4723664999999926
                },
                {
                    "name": "E4",
                    "midi": 64,
                    "time": 169.10720699999965,
                    "velocity": 0.41732283464566927,
                    "duration": 0.4723664999999926
                },
                {
                    "name": "B3",
                    "midi": 59,
                    "time": 169.57957349999964,
                    "velocity": 0.4094488188976378,
                    "duration": 0.4723664999999926
                },
                {
                    "name": "D3",
                    "midi": 50,
                    "time": 169.57957349999964,
                    "velocity": 0.3464566929133858,
                    "duration": 0.4723664999999926
                },
                {
                    "name": "A3",
                    "midi": 57,
                    "time": 170.52430649999962,
                    "velocity": 0.44881889763779526,
                    "duration": 0.4723664999999926
                },
                {
                    "name": "E3",
                    "midi": 52,
                    "time": 170.52430649999962,
                    "velocity": 0.3779527559055118,
                    "duration": 0.4723664999999926
                },
                {
                    "name": "G#3",
                    "midi": 56,
                    "time": 170.99667299999962,
                    "velocity": 0.4015748031496063,
                    "duration": 0.4723664999999926
                },
                {
                    "name": "E3",
                    "midi": 52,
                    "time": 170.99667299999962,
                    "velocity": 0.33858267716535434,
                    "duration": 0.4723664999999926
                },
                {
                    "name": "A3",
                    "midi": 57,
                    "time": 171.4690394999996,
                    "velocity": 0.48031496062992124,
                    "duration": 0.4723664999999926
                },
                {
                    "name": "E3",
                    "midi": 52,
                    "time": 171.9414059999996,
                    "velocity": 0.4330708661417323,
                    "duration": 0.4723664999999926
                },
                {
                    "name": "A2",
                    "midi": 45,
                    "time": 172.4137724999996,
                    "velocity": 0.4330708661417323,
                    "duration": 0.4723664999999926
                },
                {
                    "name": "A1",
                    "midi": 33,
                    "time": 172.8861389999996,
                    "velocity": 0.5590551181102362,
                    "duration": 0.2361832500000105
                },
                {
                    "name": "A2",
                    "midi": 45,
                    "time": 173.1223222499996,
                    "velocity": 0.47244094488188976,
                    "duration": 0.17713743749999367
                },
                {
                    "name": "A2",
                    "midi": 45,
                    "time": 173.35850549999958,
                    "velocity": 0.47244094488188976,
                    "duration": 0.17713743749999367
                },
                {
                    "name": "A2",
                    "midi": 45,
                    "time": 173.59468874999956,
                    "velocity": 0.47244094488188976,
                    "duration": 0.17713743749999367
                },
                {
                    "name": "B1",
                    "midi": 35,
                    "time": 173.83087199999954,
                    "velocity": 0.5275590551181102,
                    "duration": 0.2361832500000105
                },
                {
                    "name": "B2",
                    "midi": 47,
                    "time": 174.06705524999956,
                    "velocity": 0.4645669291338583,
                    "duration": 0.2361832500000105
                },
                {
                    "name": "C#2",
                    "midi": 37,
                    "time": 174.30323849999957,
                    "velocity": 0.5196850393700787,
                    "duration": 0.2361832500000105
                },
                {
                    "name": "C#3",
                    "midi": 49,
                    "time": 174.53942174999958,
                    "velocity": 0.4645669291338583,
                    "duration": 0.17713743749999367
                },
                {
                    "name": "C#3",
                    "midi": 49,
                    "time": 174.77560499999956,
                    "velocity": 0.44881889763779526,
                    "duration": 0.17713743749999367
                },
                {
                    "name": "C#3",
                    "midi": 49,
                    "time": 175.01178824999954,
                    "velocity": 0.44881889763779526,
                    "duration": 0.17713743749999367
                },
                {
                    "name": "D2",
                    "midi": 38,
                    "time": 175.24797149999952,
                    "velocity": 0.5354330708661418,
                    "duration": 0.2361832500000105
                },
                {
                    "name": "D3",
                    "midi": 50,
                    "time": 175.48415474999953,
                    "velocity": 0.4881889763779528,
                    "duration": 0.2361832500000105
                },
                {
                    "name": "E2",
                    "midi": 40,
                    "time": 175.72033799999954,
                    "velocity": 0.5433070866141733,
                    "duration": 0.2361832500000105
                },
                {
                    "name": "E3",
                    "midi": 52,
                    "time": 175.95652124999955,
                    "velocity": 0.4330708661417323,
                    "duration": 0.17713743749999367
                },
                {
                    "name": "E3",
                    "midi": 52,
                    "time": 176.19270449999954,
                    "velocity": 0.4330708661417323,
                    "duration": 0.17713743749999367
                },
                {
                    "name": "E3",
                    "midi": 52,
                    "time": 176.42888774999952,
                    "velocity": 0.4330708661417323,
                    "duration": 0.17713743749999367
                },
                {
                    "name": "E2",
                    "midi": 40,
                    "time": 176.6650709999995,
                    "velocity": 0.5039370078740157,
                    "duration": 0.2361832500000105
                },
                {
                    "name": "E3",
                    "midi": 52,
                    "time": 176.9012542499995,
                    "velocity": 0.4330708661417323,
                    "duration": 0.2361832500000105
                },
                {
                    "name": "A1",
                    "midi": 33,
                    "time": 177.13743749999952,
                    "velocity": 0.5748031496062992,
                    "duration": 0.4723664999999926
                },
                {
                    "name": "A2",
                    "midi": 45,
                    "time": 177.6098039999995,
                    "velocity": 0.5275590551181102,
                    "duration": 0.4723664999999926
                },
                {
                    "name": "A3",
                    "midi": 57,
                    "time": 179.02690349999952,
                    "velocity": 0.23622047244094488,
                    "duration": 0.17713743749999367
                },
                {
                    "name": "C#4",
                    "midi": 61,
                    "time": 179.02690349999952,
                    "velocity": 0.30708661417322836,
                    "duration": 0.17713743749999367
                },
                {
                    "name": "D4",
                    "midi": 62,
                    "time": 180.44400299999953,
                    "velocity": 0.30708661417322836,
                    "duration": 0.17713743749999367
                },
                {
                    "name": "A3",
                    "midi": 57,
                    "time": 180.44400299999953,
                    "velocity": 0.23622047244094488,
                    "duration": 0.17713743749999367
                },
                {
                    "name": "A3",
                    "midi": 57,
                    "time": 181.3887359999995,
                    "velocity": 0.2047244094488189,
                    "duration": 0.17713743749999367
                },
                {
                    "name": "F#4",
                    "midi": 66,
                    "time": 181.3887359999995,
                    "velocity": 0.2440944881889764,
                    "duration": 0.17713743749999367
                },
                {
                    "name": "A3",
                    "midi": 57,
                    "time": 181.8611024999995,
                    "velocity": 0.1889763779527559,
                    "duration": 0.17713743749999367
                },
                {
                    "name": "E4",
                    "midi": 64,
                    "time": 181.8611024999995,
                    "velocity": 0.2283464566929134,
                    "duration": 0.17713743749999367
                },
                {
                    "name": "D4",
                    "midi": 62,
                    "time": 182.3334689999995,
                    "velocity": 0.2283464566929134,
                    "duration": 0.17713743749999367
                },
                {
                    "name": "A3",
                    "midi": 57,
                    "time": 182.3334689999995,
                    "velocity": 0.1889763779527559,
                    "duration": 0.17713743749999367
                },
                {
                    "name": "C#4",
                    "midi": 61,
                    "time": 183.27820199999948,
                    "velocity": 0.29133858267716534,
                    "duration": 0.17713743749999367
                },
                {
                    "name": "A3",
                    "midi": 57,
                    "time": 183.27820199999948,
                    "velocity": 0.2440944881889764,
                    "duration": 0.17713743749999367
                },
                {
                    "name": "E4",
                    "midi": 64,
                    "time": 184.22293499999947,
                    "velocity": 0.4330708661417323,
                    "duration": 1.4170995000000062
                },
                {
                    "name": "C#4",
                    "midi": 61,
                    "time": 184.22293499999947,
                    "velocity": 0.36220472440944884,
                    "duration": 1.4170995000000062
                },
                {
                    "name": "A3",
                    "midi": 57,
                    "time": 184.22293499999947,
                    "velocity": 0.36220472440944884,
                    "duration": 1.4170995000000062
                },
                {
                    "name": "B3",
                    "midi": 59,
                    "time": 185.64003449999947,
                    "velocity": 0.33858267716535434,
                    "duration": 1.4170995000000062
                },
                {
                    "name": "E4",
                    "midi": 64,
                    "time": 185.64003449999947,
                    "velocity": 0.4015748031496063,
                    "duration": 1.4170995000000062
                },
                {
                    "name": "D4",
                    "midi": 62,
                    "time": 185.64003449999947,
                    "velocity": 0.33858267716535434,
                    "duration": 1.4170995000000062
                },
                {
                    "name": "C#4",
                    "midi": 61,
                    "time": 187.05713399999948,
                    "velocity": 0.3937007874015748,
                    "duration": 0.9447330000000136
                },
                {
                    "name": "E4",
                    "midi": 64,
                    "time": 187.05713399999948,
                    "velocity": 0.4645669291338583,
                    "duration": 0.9447330000000136
                },
                {
                    "name": "F#3",
                    "midi": 54,
                    "time": 188.0018669999995,
                    "velocity": 0.2047244094488189,
                    "duration": 0.4723664999999926
                },
                {
                    "name": "D#4",
                    "midi": 63,
                    "time": 188.0018669999995,
                    "velocity": 0.2440944881889764,
                    "duration": 0.4723664999999926
                },
                {
                    "name": "A3",
                    "midi": 57,
                    "time": 188.0018669999995,
                    "velocity": 0.2047244094488189,
                    "duration": 0.4723664999999926
                },
                {
                    "name": "E3",
                    "midi": 52,
                    "time": 188.47423349999949,
                    "velocity": 0.2677165354330709,
                    "duration": 1.4170995000000062
                },
                {
                    "name": "E4",
                    "midi": 64,
                    "time": 188.47423349999949,
                    "velocity": 0.31496062992125984,
                    "duration": 1.4170995000000062
                },
                {
                    "name": "A3",
                    "midi": 57,
                    "time": 190.36369949999948,
                    "velocity": 0.23622047244094488,
                    "duration": 0.17713743749999367
                },
                {
                    "name": "E4",
                    "midi": 64,
                    "time": 190.36369949999948,
                    "velocity": 0.30708661417322836,
                    "duration": 0.17713743749999367
                },
                {
                    "name": "E4",
                    "midi": 64,
                    "time": 191.7807989999995,
                    "velocity": 0.30708661417322836,
                    "duration": 0.17713743749999367
                },
                {
                    "name": "C#4",
                    "midi": 61,
                    "time": 191.7807989999995,
                    "velocity": 0.23622047244094488,
                    "duration": 0.17713743749999367
                },
                {
                    "name": "E4",
                    "midi": 64,
                    "time": 193.1978984999995,
                    "velocity": 0.3464566929133858,
                    "duration": 0.17713743749999367
                },
                {
                    "name": "G#3",
                    "midi": 56,
                    "time": 193.1978984999995,
                    "velocity": 0.2677165354330709,
                    "duration": 0.17713743749999367
                },
                {
                    "name": "B3",
                    "midi": 59,
                    "time": 194.6149979999995,
                    "velocity": 0.2677165354330709,
                    "duration": 0.17713743749999367
                },
                {
                    "name": "E4",
                    "midi": 64,
                    "time": 194.6149979999995,
                    "velocity": 0.3464566929133858,
                    "duration": 0.17713743749999367
                },
                {
                    "name": "E4",
                    "midi": 64,
                    "time": 196.0320974999995,
                    "velocity": 0.41732283464566927,
                    "duration": 0.4723664999999926
                },
                {
                    "name": "F#3",
                    "midi": 54,
                    "time": 196.0320974999995,
                    "velocity": 0.3543307086614173,
                    "duration": 0.4723664999999926
                },
                {
                    "name": "G#3",
                    "midi": 56,
                    "time": 196.5044639999995,
                    "velocity": 0.33858267716535434,
                    "duration": 0.4723664999999926
                },
                {
                    "name": "E4",
                    "midi": 64,
                    "time": 196.5044639999995,
                    "velocity": 0.4015748031496063,
                    "duration": 0.4723664999999926
                },
                {
                    "name": "G#3",
                    "midi": 56,
                    "time": 197.4491969999995,
                    "velocity": 0.3543307086614173,
                    "duration": 0.4723664999999926
                },
                {
                    "name": "E4",
                    "midi": 64,
                    "time": 197.4491969999995,
                    "velocity": 0.41732283464566927,
                    "duration": 0.4723664999999926
                },
                {
                    "name": "D3",
                    "midi": 50,
                    "time": 197.92156349999948,
                    "velocity": 0.3464566929133858,
                    "duration": 0.4723664999999926
                },
                {
                    "name": "B3",
                    "midi": 59,
                    "time": 197.92156349999948,
                    "velocity": 0.4094488188976378,
                    "duration": 0.4723664999999926
                },
                {
                    "name": "A3",
                    "midi": 57,
                    "time": 198.86629649999946,
                    "velocity": 0.44881889763779526,
                    "duration": 0.4723664999999926
                },
                {
                    "name": "E3",
                    "midi": 52,
                    "time": 198.86629649999946,
                    "velocity": 0.3779527559055118,
                    "duration": 0.4723664999999926
                },
                {
                    "name": "G#3",
                    "midi": 56,
                    "time": 199.33866299999946,
                    "velocity": 0.4015748031496063,
                    "duration": 0.4723664999999926
                },
                {
                    "name": "E3",
                    "midi": 52,
                    "time": 199.33866299999946,
                    "velocity": 0.33858267716535434,
                    "duration": 0.4723664999999926
                },
                {
                    "name": "A3",
                    "midi": 57,
                    "time": 199.81102949999945,
                    "velocity": 0.48031496062992124,
                    "duration": 0.4723664999999926
                },
                {
                    "name": "E3",
                    "midi": 52,
                    "time": 200.28339599999944,
                    "velocity": 0.4330708661417323,
                    "duration": 0.4723664999999926
                },
                {
                    "name": "A2",
                    "midi": 45,
                    "time": 200.75576249999943,
                    "velocity": 0.4330708661417323,
                    "duration": 0.4723664999999926
                },
                {
                    "name": "A1",
                    "midi": 33,
                    "time": 201.22812899999943,
                    "velocity": 0.5590551181102362,
                    "duration": 0.2361832500000105
                },
                {
                    "name": "A2",
                    "midi": 45,
                    "time": 201.46431224999944,
                    "velocity": 0.47244094488188976,
                    "duration": 0.17713743749999367
                },
                {
                    "name": "A2",
                    "midi": 45,
                    "time": 201.70049549999942,
                    "velocity": 0.47244094488188976,
                    "duration": 0.17713743749999367
                },
                {
                    "name": "A2",
                    "midi": 45,
                    "time": 201.9366787499994,
                    "velocity": 0.47244094488188976,
                    "duration": 0.17713743749999367
                },
                {
                    "name": "B1",
                    "midi": 35,
                    "time": 202.17286199999938,
                    "velocity": 0.5275590551181102,
                    "duration": 0.2361832500000105
                },
                {
                    "name": "B2",
                    "midi": 47,
                    "time": 202.4090452499994,
                    "velocity": 0.4645669291338583,
                    "duration": 0.2361832500000105
                },
                {
                    "name": "C#2",
                    "midi": 37,
                    "time": 202.6452284999994,
                    "velocity": 0.5196850393700787,
                    "duration": 0.2361832500000105
                },
                {
                    "name": "C#3",
                    "midi": 49,
                    "time": 202.88141174999942,
                    "velocity": 0.4645669291338583,
                    "duration": 0.17713743749999367
                },
                {
                    "name": "C#3",
                    "midi": 49,
                    "time": 203.1175949999994,
                    "velocity": 0.44881889763779526,
                    "duration": 0.17713743749999367
                },
                {
                    "name": "C#3",
                    "midi": 49,
                    "time": 203.35377824999938,
                    "velocity": 0.44881889763779526,
                    "duration": 0.17713743749999367
                },
                {
                    "name": "D2",
                    "midi": 38,
                    "time": 203.58996149999936,
                    "velocity": 0.5354330708661418,
                    "duration": 0.2361832500000105
                },
                {
                    "name": "D3",
                    "midi": 50,
                    "time": 203.82614474999937,
                    "velocity": 0.4881889763779528,
                    "duration": 0.2361832500000105
                },
                {
                    "name": "E2",
                    "midi": 40,
                    "time": 204.06232799999938,
                    "velocity": 0.5433070866141733,
                    "duration": 0.2361832500000105
                },
                {
                    "name": "E3",
                    "midi": 52,
                    "time": 204.2985112499994,
                    "velocity": 0.4330708661417323,
                    "duration": 0.17713743749999367
                },
                {
                    "name": "E3",
                    "midi": 52,
                    "time": 204.53469449999938,
                    "velocity": 0.4330708661417323,
                    "duration": 0.17713743749999367
                },
                {
                    "name": "E3",
                    "midi": 52,
                    "time": 204.77087774999936,
                    "velocity": 0.4330708661417323,
                    "duration": 0.17713743749999367
                },
                {
                    "name": "E2",
                    "midi": 40,
                    "time": 205.00706099999934,
                    "velocity": 0.5039370078740157,
                    "duration": 0.2361832500000105
                },
                {
                    "name": "E3",
                    "midi": 52,
                    "time": 205.24324424999935,
                    "velocity": 0.4330708661417323,
                    "duration": 0.2361832500000105
                },
                {
                    "name": "A1",
                    "midi": 33,
                    "time": 205.47942749999936,
                    "velocity": 0.5748031496062992,
                    "duration": 0.4723664999999926
                },
                {
                    "name": "A2",
                    "midi": 45,
                    "time": 205.95179399999935,
                    "velocity": 0.5275590551181102,
                    "duration": 0.4723664999999926
                },
                {
                    "name": "A3",
                    "midi": 57,
                    "time": 209.73072599999935,
                    "velocity": 0.3464566929133858,
                    "duration": 0.1889466000000084
                },
                {
                    "name": "D#4",
                    "midi": 63,
                    "time": 209.88818149999935,
                    "velocity": 0.2440944881889764,
                    "duration": 0.1889466000000084
                },
                {
                    "name": "E4",
                    "midi": 64,
                    "time": 210.04563699999935,
                    "velocity": 0.2440944881889764,
                    "duration": 0.15745549999999753
                },
                {
                    "name": "A3",
                    "midi": 57,
                    "time": 210.20309249999934,
                    "velocity": 0.31496062992125984,
                    "duration": 0.1889466000000084
                },
                {
                    "name": "D#4",
                    "midi": 63,
                    "time": 210.36054799999934,
                    "velocity": 0.23622047244094488,
                    "duration": 0.1889466000000084
                },
                {
                    "name": "E4",
                    "midi": 64,
                    "time": 210.51800349999934,
                    "velocity": 0.23622047244094488,
                    "duration": 0.15745549999999753
                },
                {
                    "name": "B3",
                    "midi": 59,
                    "time": 210.67545899999934,
                    "velocity": 0.31496062992125984,
                    "duration": 0.1889466000000084
                },
                {
                    "name": "D#4",
                    "midi": 63,
                    "time": 210.83291449999933,
                    "velocity": 0.23622047244094488,
                    "duration": 0.1889466000000084
                },
                {
                    "name": "E4",
                    "midi": 64,
                    "time": 210.99036999999933,
                    "velocity": 0.23622047244094488,
                    "duration": 0.15745549999999753
                },
                {
                    "name": "C#4",
                    "midi": 61,
                    "time": 211.14782549999933,
                    "velocity": 0.3228346456692913,
                    "duration": 0.1889466000000084
                },
                {
                    "name": "D#4",
                    "midi": 63,
                    "time": 211.30528099999933,
                    "velocity": 0.2283464566929134,
                    "duration": 0.1889466000000084
                },
                {
                    "name": "E4",
                    "midi": 64,
                    "time": 211.46273649999932,
                    "velocity": 0.2283464566929134,
                    "duration": 0.15745549999999753
                },
                {
                    "name": "C#4",
                    "midi": 61,
                    "time": 211.62019199999932,
                    "velocity": 0.31496062992125984,
                    "duration": 0.1889466000000084
                },
                {
                    "name": "D#4",
                    "midi": 63,
                    "time": 211.77764749999932,
                    "velocity": 0.2440944881889764,
                    "duration": 0.1889466000000084
                },
                {
                    "name": "E4",
                    "midi": 64,
                    "time": 211.93510299999932,
                    "velocity": 0.2440944881889764,
                    "duration": 0.15745549999999753
                },
                {
                    "name": "A3",
                    "midi": 57,
                    "time": 212.0925584999993,
                    "velocity": 0.31496062992125984,
                    "duration": 0.1889466000000084
                },
                {
                    "name": "D#4",
                    "midi": 63,
                    "time": 212.2500139999993,
                    "velocity": 0.28346456692913385,
                    "duration": 0.1889466000000084
                },
                {
                    "name": "E4",
                    "midi": 64,
                    "time": 212.4074694999993,
                    "velocity": 0.28346456692913385,
                    "duration": 0.15745549999999753
                },
                {
                    "name": "G#3",
                    "midi": 56,
                    "time": 212.5649249999993,
                    "velocity": 0.3464566929133858,
                    "duration": 0.1889466000000084
                },
                {
                    "name": "D#4",
                    "midi": 63,
                    "time": 212.7223804999993,
                    "velocity": 0.2440944881889764,
                    "duration": 0.1889466000000084
                },
                {
                    "name": "E4",
                    "midi": 64,
                    "time": 212.8798359999993,
                    "velocity": 0.2440944881889764,
                    "duration": 0.15745549999999753
                },
                {
                    "name": "G#3",
                    "midi": 56,
                    "time": 213.0372914999993,
                    "velocity": 0.31496062992125984,
                    "duration": 0.1889466000000084
                },
                {
                    "name": "D#4",
                    "midi": 63,
                    "time": 213.1947469999993,
                    "velocity": 0.25984251968503935,
                    "duration": 0.1889466000000084
                },
                {
                    "name": "E4",
                    "midi": 64,
                    "time": 213.3522024999993,
                    "velocity": 0.25984251968503935,
                    "duration": 0.15745549999999753
                },
                {
                    "name": "A3",
                    "midi": 57,
                    "time": 213.5096579999993,
                    "velocity": 0.31496062992125984,
                    "duration": 0.1889466000000084
                },
                {
                    "name": "D#4",
                    "midi": 63,
                    "time": 213.6671134999993,
                    "velocity": 0.2677165354330709,
                    "duration": 0.1889466000000084
                },
                {
                    "name": "E4",
                    "midi": 64,
                    "time": 213.8245689999993,
                    "velocity": 0.2677165354330709,
                    "duration": 0.15745549999999753
                },
                {
                    "name": "B3",
                    "midi": 59,
                    "time": 213.98202449999928,
                    "velocity": 0.3543307086614173,
                    "duration": 0.1889466000000084
                },
                {
                    "name": "D#4",
                    "midi": 63,
                    "time": 214.13947999999928,
                    "velocity": 0.2677165354330709,
                    "duration": 0.1889466000000084
                },
                {
                    "name": "E4",
                    "midi": 64,
                    "time": 214.29693549999928,
                    "velocity": 0.2677165354330709,
                    "duration": 0.15745549999999753
                },
                {
                    "name": "B3",
                    "midi": 59,
                    "time": 214.45439099999928,
                    "velocity": 0.2992125984251969,
                    "duration": 0.1889466000000084
                },
                {
                    "name": "D#4",
                    "midi": 63,
                    "time": 214.61184649999927,
                    "velocity": 0.2440944881889764,
                    "duration": 0.1889466000000084
                },
                {
                    "name": "E4",
                    "midi": 64,
                    "time": 214.76930199999927,
                    "velocity": 0.2440944881889764,
                    "duration": 0.15745549999999753
                },
                {
                    "name": "G#3",
                    "midi": 56,
                    "time": 214.92675749999927,
                    "velocity": 0.31496062992125984,
                    "duration": 0.1889466000000084
                },
                {
                    "name": "D#4",
                    "midi": 63,
                    "time": 215.08421299999927,
                    "velocity": 0.28346456692913385,
                    "duration": 0.1889466000000084
                },
                {
                    "name": "E4",
                    "midi": 64,
                    "time": 215.24166849999926,
                    "velocity": 0.28346456692913385,
                    "duration": 0.15745549999999753
                },
                {
                    "name": "F#3",
                    "midi": 54,
                    "time": 215.39912399999926,
                    "velocity": 0.3464566929133858,
                    "duration": 0.1889466000000084
                },
                {
                    "name": "D#4",
                    "midi": 63,
                    "time": 215.55657949999926,
                    "velocity": 0.25984251968503935,
                    "duration": 0.1889466000000084
                },
                {
                    "name": "E4",
                    "midi": 64,
                    "time": 215.71403499999926,
                    "velocity": 0.25984251968503935,
                    "duration": 0.15745549999999753
                },
                {
                    "name": "F#3",
                    "midi": 54,
                    "time": 215.87149049999925,
                    "velocity": 0.31496062992125984,
                    "duration": 0.1889466000000084
                },
                {
                    "name": "D#4",
                    "midi": 63,
                    "time": 216.02894599999925,
                    "velocity": 0.2755905511811024,
                    "duration": 0.1889466000000084
                },
                {
                    "name": "E4",
                    "midi": 64,
                    "time": 216.18640149999925,
                    "velocity": 0.2755905511811024,
                    "duration": 0.15745549999999753
                },
                {
                    "name": "F#3",
                    "midi": 54,
                    "time": 216.34385699999925,
                    "velocity": 0.31496062992125984,
                    "duration": 0.1889466000000084
                },
                {
                    "name": "D#4",
                    "midi": 63,
                    "time": 216.50131249999924,
                    "velocity": 0.2755905511811024,
                    "duration": 0.1889466000000084
                },
                {
                    "name": "E4",
                    "midi": 64,
                    "time": 216.65876799999924,
                    "velocity": 0.28346456692913385,
                    "duration": 0.15745549999999753
                },
                {
                    "name": "G#3",
                    "midi": 56,
                    "time": 216.81622349999924,
                    "velocity": 0.3464566929133858,
                    "duration": 0.1889466000000084
                },
                {
                    "name": "D4",
                    "midi": 62,
                    "time": 216.97367899999924,
                    "velocity": 0.2755905511811024,
                    "duration": 0.1889466000000084
                },
                {
                    "name": "E4",
                    "midi": 64,
                    "time": 217.13113449999923,
                    "velocity": 0.2755905511811024,
                    "duration": 0.15745549999999753
                },
                {
                    "name": "G#3",
                    "midi": 56,
                    "time": 217.28858999999923,
                    "velocity": 0.31496062992125984,
                    "duration": 0.1889466000000084
                },
                {
                    "name": "D4",
                    "midi": 62,
                    "time": 217.44604549999923,
                    "velocity": 0.2755905511811024,
                    "duration": 0.1889466000000084
                },
                {
                    "name": "E4",
                    "midi": 64,
                    "time": 217.60350099999923,
                    "velocity": 0.2755905511811024,
                    "duration": 0.15745549999999753
                },
                {
                    "name": "G#3",
                    "midi": 56,
                    "time": 217.76095649999922,
                    "velocity": 0.31496062992125984,
                    "duration": 0.1889466000000084
                },
                {
                    "name": "D4",
                    "midi": 62,
                    "time": 217.91841199999922,
                    "velocity": 0.2677165354330709,
                    "duration": 0.1889466000000084
                },
                {
                    "name": "E4",
                    "midi": 64,
                    "time": 218.07586749999922,
                    "velocity": 0.2677165354330709,
                    "duration": 0.15745549999999753
                },
                {
                    "name": "A3",
                    "midi": 57,
                    "time": 218.23332299999922,
                    "velocity": 0.3464566929133858,
                    "duration": 0.1889466000000084
                },
                {
                    "name": "C#4",
                    "midi": 61,
                    "time": 218.39077849999921,
                    "velocity": 0.2677165354330709,
                    "duration": 0.1889466000000084
                },
                {
                    "name": "E4",
                    "midi": 64,
                    "time": 218.5482339999992,
                    "velocity": 0.2677165354330709,
                    "duration": 0.15745549999999753
                },
                {
                    "name": "A3",
                    "midi": 57,
                    "time": 218.7056894999992,
                    "velocity": 0.31496062992125984,
                    "duration": 0.1889466000000084
                },
                {
                    "name": "C#4",
                    "midi": 61,
                    "time": 218.8631449999992,
                    "velocity": 0.25984251968503935,
                    "duration": 0.1889466000000084
                },
                {
                    "name": "E4",
                    "midi": 64,
                    "time": 219.0206004999992,
                    "velocity": 0.25984251968503935,
                    "duration": 0.15745549999999753
                },
                {
                    "name": "D3",
                    "midi": 50,
                    "time": 219.1780559999992,
                    "velocity": 0.33070866141732286,
                    "duration": 0.1889466000000084
                },
                {
                    "name": "F#3",
                    "midi": 54,
                    "time": 219.3355114999992,
                    "velocity": 0.29133858267716534,
                    "duration": 0.1889466000000084
                },
                {
                    "name": "B3",
                    "midi": 59,
                    "time": 219.4929669999992,
                    "velocity": 0.29133858267716534,
                    "duration": 0.15745549999999753
                },
                {
                    "name": "E3",
                    "midi": 52,
                    "time": 219.6504224999992,
                    "velocity": 0.3464566929133858,
                    "duration": 0.1889466000000084
                },
                {
                    "name": "A3",
                    "midi": 57,
                    "time": 219.8078779999992,
                    "velocity": 0.31496062992125984,
                    "duration": 0.1889466000000084
                },
                {
                    "name": "C#4",
                    "midi": 61,
                    "time": 219.9653334999992,
                    "velocity": 0.31496062992125984,
                    "duration": 0.15745549999999753
                },
                {
                    "name": "E3",
                    "midi": 52,
                    "time": 220.1227889999992,
                    "velocity": 0.3464566929133858,
                    "duration": 0.1889466000000084
                },
                {
                    "name": "A3",
                    "midi": 57,
                    "time": 220.28024449999918,
                    "velocity": 0.33070866141732286,
                    "duration": 0.1889466000000084
                },
                {
                    "name": "C#4",
                    "midi": 61,
                    "time": 220.43769999999918,
                    "velocity": 0.3464566929133858,
                    "duration": 0.15745549999999753
                },
                {
                    "name": "E3",
                    "midi": 52,
                    "time": 220.59515549999918,
                    "velocity": 0.3779527559055118,
                    "duration": 0.1889466000000084
                },
                {
                    "name": "G#3",
                    "midi": 56,
                    "time": 220.75261099999918,
                    "velocity": 0.3228346456692913,
                    "duration": 0.1889466000000084
                },
                {
                    "name": "B3",
                    "midi": 59,
                    "time": 220.91006649999917,
                    "velocity": 0.33070866141732286,
                    "duration": 0.15745549999999753
                },
                {
                    "name": "A2",
                    "midi": 45,
                    "time": 221.06752199999917,
                    "velocity": 0.5826771653543307,
                    "duration": 0.2361832500000105
                },
                {
                    "name": "G#3",
                    "midi": 56,
                    "time": 221.48084268749918,
                    "velocity": 0.5275590551181102,
                    "duration": 0.059045812499988415
                },
                {
                    "name": "A3",
                    "midi": 57,
                    "time": 221.53988849999917,
                    "velocity": 0.5826771653543307,
                    "duration": 0.2361832500000105
                },
                {
                    "name": "A2",
                    "midi": 45,
                    "time": 222.48462149999918,
                    "velocity": 0.5826771653543307,
                    "duration": 0.2361832500000105
                },
                {
                    "name": "G#3",
                    "midi": 56,
                    "time": 222.89794218749918,
                    "velocity": 0.5275590551181102,
                    "duration": 0.059045812499988415
                },
                {
                    "name": "A3",
                    "midi": 57,
                    "time": 222.95698799999917,
                    "velocity": 0.5669291338582677,
                    "duration": 0.2361832500000105
                },
                {
                    "name": "E2",
                    "midi": 40,
                    "time": 223.90172099999918,
                    "velocity": 0.5826771653543307,
                    "duration": 0.2361832500000105
                },
                {
                    "name": "D#3",
                    "midi": 51,
                    "time": 224.2559958749992,
                    "velocity": 0.5275590551181102,
                    "duration": 0.059045812499988415
                },
                {
                    "name": "E3",
                    "midi": 52,
                    "time": 224.37408749999918,
                    "velocity": 0.5826771653543307,
                    "duration": 0.2361832500000105
                },
                {
                    "name": "E2",
                    "midi": 40,
                    "time": 225.3188204999992,
                    "velocity": 0.5826771653543307,
                    "duration": 0.2361832500000105
                },
                {
                    "name": "D#3",
                    "midi": 51,
                    "time": 225.6730953749992,
                    "velocity": 0.5275590551181102,
                    "duration": 0.059045812499988415
                },
                {
                    "name": "E3",
                    "midi": 52,
                    "time": 225.79118699999918,
                    "velocity": 0.5669291338582677,
                    "duration": 0.2361832500000105
                },
                {
                    "name": "E2",
                    "midi": 40,
                    "time": 226.7359199999992,
                    "velocity": 0.5826771653543307,
                    "duration": 0.2361832500000105
                },
                {
                    "name": "F3",
                    "midi": 53,
                    "time": 227.0901948749992,
                    "velocity": 0.4645669291338583,
                    "duration": 0.059045812499988415
                },
                {
                    "name": "F#3",
                    "midi": 54,
                    "time": 227.2082864999992,
                    "velocity": 0.5354330708661418,
                    "duration": 0.2361832500000105
                },
                {
                    "name": "G3",
                    "midi": 55,
                    "time": 227.5625613749992,
                    "velocity": 0.4881889763779528,
                    "duration": 0.11809162500000525
                },
                {
                    "name": "G#3",
                    "midi": 56,
                    "time": 227.6806529999992,
                    "velocity": 0.5511811023622047,
                    "duration": 0.2361832500000105
                },
                {
                    "name": "A2",
                    "midi": 45,
                    "time": 228.15301949999923,
                    "velocity": 0.5826771653543307,
                    "duration": 0.2361832500000105
                },
                {
                    "name": "G#3",
                    "midi": 56,
                    "time": 228.50729437499925,
                    "velocity": 0.49606299212598426,
                    "duration": 0.059045812499988415
                },
                {
                    "name": "A3",
                    "midi": 57,
                    "time": 228.62538599999922,
                    "velocity": 0.5275590551181102,
                    "duration": 0.2361832500000105
                },
                {
                    "name": "C#3",
                    "midi": 49,
                    "time": 228.97966087499924,
                    "velocity": 0.49606299212598426,
                    "duration": 0.11809162500000525
                },
                {
                    "name": "D3",
                    "midi": 50,
                    "time": 229.09775249999925,
                    "velocity": 0.5433070866141733,
                    "duration": 0.2361832500000105
                },
                {
                    "name": "E2",
                    "midi": 40,
                    "time": 229.57011899999927,
                    "velocity": 0.5826771653543307,
                    "duration": 0.2361832500000105
                },
                {
                    "name": "D#3",
                    "midi": 51,
                    "time": 229.92439387499928,
                    "velocity": 0.4881889763779528,
                    "duration": 0.059045812499988415
                },
                {
                    "name": "E3",
                    "midi": 52,
                    "time": 230.04248549999926,
                    "velocity": 0.5275590551181102,
                    "duration": 0.2361832500000105
                },
                {
                    "name": "D#3",
                    "midi": 51,
                    "time": 230.39676037499927,
                    "velocity": 0.48031496062992124,
                    "duration": 0.11809162500000525
                },
                {
                    "name": "E3",
                    "midi": 52,
                    "time": 230.51485199999928,
                    "velocity": 0.5354330708661418,
                    "duration": 0.2361832500000105
                },
                {
                    "name": "A1",
                    "midi": 33,
                    "time": 230.9872184999993,
                    "velocity": 0.5826771653543307,
                    "duration": 0.2361832500000105
                },
                {
                    "name": "G#2",
                    "midi": 44,
                    "time": 231.34149337499932,
                    "velocity": 0.48031496062992124,
                    "duration": 0.059045812499988415
                },
                {
                    "name": "A2",
                    "midi": 45,
                    "time": 231.4595849999993,
                    "velocity": 0.5275590551181102,
                    "duration": 0.2361832500000105
                },
                {
                    "name": "A3",
                    "midi": 57,
                    "time": 232.4043179999993,
                    "velocity": 0.3464566929133858,
                    "duration": 0.1889466000000084
                },
                {
                    "name": "D#4",
                    "midi": 63,
                    "time": 232.5617734999993,
                    "velocity": 0.25984251968503935,
                    "duration": 0.1889466000000084
                },
                {
                    "name": "E4",
                    "midi": 64,
                    "time": 232.7192289999993,
                    "velocity": 0.25984251968503935,
                    "duration": 0.15745549999999753
                },
                {
                    "name": "A3",
                    "midi": 57,
                    "time": 232.8766844999993,
                    "velocity": 0.31496062992125984,
                    "duration": 0.1889466000000084
                },
                {
                    "name": "D#4",
                    "midi": 63,
                    "time": 233.0341399999993,
                    "velocity": 0.25196850393700787,
                    "duration": 0.1889466000000084
                },
                {
                    "name": "E4",
                    "midi": 64,
                    "time": 233.1915954999993,
                    "velocity": 0.25196850393700787,
                    "duration": 0.15745549999999753
                },
                {
                    "name": "B3",
                    "midi": 59,
                    "time": 233.3490509999993,
                    "velocity": 0.31496062992125984,
                    "duration": 0.1889466000000084
                },
                {
                    "name": "D#4",
                    "midi": 63,
                    "time": 233.5065064999993,
                    "velocity": 0.25196850393700787,
                    "duration": 0.1889466000000084
                },
                {
                    "name": "E4",
                    "midi": 64,
                    "time": 233.6639619999993,
                    "velocity": 0.25196850393700787,
                    "duration": 0.15745549999999753
                },
                {
                    "name": "C#4",
                    "midi": 61,
                    "time": 233.82141749999928,
                    "velocity": 0.3228346456692913,
                    "duration": 0.1889466000000084
                },
                {
                    "name": "D#4",
                    "midi": 63,
                    "time": 233.97887299999928,
                    "velocity": 0.23622047244094488,
                    "duration": 0.1889466000000084
                },
                {
                    "name": "E4",
                    "midi": 64,
                    "time": 234.13632849999928,
                    "velocity": 0.23622047244094488,
                    "duration": 0.15745549999999753
                },
                {
                    "name": "C#4",
                    "midi": 61,
                    "time": 234.29378399999928,
                    "velocity": 0.31496062992125984,
                    "duration": 0.1889466000000084
                },
                {
                    "name": "D#4",
                    "midi": 63,
                    "time": 234.45123949999928,
                    "velocity": 0.2204724409448819,
                    "duration": 0.1889466000000084
                },
                {
                    "name": "E4",
                    "midi": 64,
                    "time": 234.60869499999927,
                    "velocity": 0.2204724409448819,
                    "duration": 0.15745549999999753
                },
                {
                    "name": "A3",
                    "midi": 57,
                    "time": 234.76615049999927,
                    "velocity": 0.31496062992125984,
                    "duration": 0.1889466000000084
                },
                {
                    "name": "D#4",
                    "midi": 63,
                    "time": 234.92360599999927,
                    "velocity": 0.2677165354330709,
                    "duration": 0.1889466000000084
                },
                {
                    "name": "E4",
                    "midi": 64,
                    "time": 235.08106149999927,
                    "velocity": 0.28346456692913385,
                    "duration": 0.15745549999999753
                },
                {
                    "name": "G#3",
                    "midi": 56,
                    "time": 235.23851699999926,
                    "velocity": 0.3464566929133858,
                    "duration": 0.1889466000000084
                },
                {
                    "name": "D#4",
                    "midi": 63,
                    "time": 235.39597249999926,
                    "velocity": 0.25984251968503935,
                    "duration": 0.1889466000000084
                },
                {
                    "name": "E4",
                    "midi": 64,
                    "time": 235.55342799999926,
                    "velocity": 0.25984251968503935,
                    "duration": 0.15745549999999753
                },
                {
                    "name": "G#3",
                    "midi": 56,
                    "time": 235.71088349999926,
                    "velocity": 0.31496062992125984,
                    "duration": 0.1889466000000084
                },
                {
                    "name": "D#4",
                    "midi": 63,
                    "time": 235.86833899999925,
                    "velocity": 0.25984251968503935,
                    "duration": 0.1889466000000084
                },
                {
                    "name": "E4",
                    "midi": 64,
                    "time": 236.02579449999925,
                    "velocity": 0.25984251968503935,
                    "duration": 0.15745549999999753
                },
                {
                    "name": "A3",
                    "midi": 57,
                    "time": 236.18324999999925,
                    "velocity": 0.31496062992125984,
                    "duration": 0.1889466000000084
                },
                {
                    "name": "D#4",
                    "midi": 63,
                    "time": 236.34070549999925,
                    "velocity": 0.25984251968503935,
                    "duration": 0.1889466000000084
                },
                {
                    "name": "E4",
                    "midi": 64,
                    "time": 236.49816099999924,
                    "velocity": 0.25984251968503935,
                    "duration": 0.15745549999999753
                },
                {
                    "name": "B3",
                    "midi": 59,
                    "time": 236.65561649999924,
                    "velocity": 0.3543307086614173,
                    "duration": 0.1889466000000084
                },
                {
                    "name": "D#4",
                    "midi": 63,
                    "time": 236.81307199999924,
                    "velocity": 0.2677165354330709,
                    "duration": 0.1889466000000084
                },
                {
                    "name": "E4",
                    "midi": 64,
                    "time": 236.97052749999924,
                    "velocity": 0.2677165354330709,
                    "duration": 0.15745549999999753
                },
                {
                    "name": "B3",
                    "midi": 59,
                    "time": 237.12798299999923,
                    "velocity": 0.2992125984251969,
                    "duration": 0.1889466000000084
                },
                {
                    "name": "D#4",
                    "midi": 63,
                    "time": 237.28543849999923,
                    "velocity": 0.23622047244094488,
                    "duration": 0.1889466000000084
                },
                {
                    "name": "E4",
                    "midi": 64,
                    "time": 237.44289399999923,
                    "velocity": 0.2440944881889764,
                    "duration": 0.15745549999999753
                },
                {
                    "name": "G#3",
                    "midi": 56,
                    "time": 237.60034949999923,
                    "velocity": 0.31496062992125984,
                    "duration": 0.1889466000000084
                },
                {
                    "name": "D#4",
                    "midi": 63,
                    "time": 237.75780499999922,
                    "velocity": 0.28346456692913385,
                    "duration": 0.1889466000000084
                },
                {
                    "name": "E4",
                    "midi": 64,
                    "time": 237.91526049999922,
                    "velocity": 0.28346456692913385,
                    "duration": 0.15745549999999753
                },
                {
                    "name": "F#3",
                    "midi": 54,
                    "time": 238.07271599999922,
                    "velocity": 0.3464566929133858,
                    "duration": 0.1889466000000084
                },
                {
                    "name": "D#4",
                    "midi": 63,
                    "time": 238.23017149999922,
                    "velocity": 0.2755905511811024,
                    "duration": 0.1889466000000084
                },
                {
                    "name": "E4",
                    "midi": 64,
                    "time": 238.3876269999992,
                    "velocity": 0.2755905511811024,
                    "duration": 0.15745549999999753
                },
                {
                    "name": "F#3",
                    "midi": 54,
                    "time": 238.5450824999992,
                    "velocity": 0.31496062992125984,
                    "duration": 0.1889466000000084
                },
                {
                    "name": "D#4",
                    "midi": 63,
                    "time": 238.7025379999992,
                    "velocity": 0.25196850393700787,
                    "duration": 0.1889466000000084
                },
                {
                    "name": "E4",
                    "midi": 64,
                    "time": 238.8599934999992,
                    "velocity": 0.25196850393700787,
                    "duration": 0.15745549999999753
                },
                {
                    "name": "F#3",
                    "midi": 54,
                    "time": 239.0174489999992,
                    "velocity": 0.31496062992125984,
                    "duration": 0.1889466000000084
                },
                {
                    "name": "D#4",
                    "midi": 63,
                    "time": 239.1749044999992,
                    "velocity": 0.25196850393700787,
                    "duration": 0.1889466000000084
                },
                {
                    "name": "E4",
                    "midi": 64,
                    "time": 239.3323599999992,
                    "velocity": 0.25196850393700787,
                    "duration": 0.15745549999999753
                },
                {
                    "name": "G#3",
                    "midi": 56,
                    "time": 239.4898154999992,
                    "velocity": 0.3464566929133858,
                    "duration": 0.1889466000000084
                },
                {
                    "name": "D4",
                    "midi": 62,
                    "time": 239.6472709999992,
                    "velocity": 0.2677165354330709,
                    "duration": 0.1889466000000084
                },
                {
                    "name": "E4",
                    "midi": 64,
                    "time": 239.8047264999992,
                    "velocity": 0.2677165354330709,
                    "duration": 0.15745549999999753
                },
                {
                    "name": "G#3",
                    "midi": 56,
                    "time": 239.9621819999992,
                    "velocity": 0.31496062992125984,
                    "duration": 0.1889466000000084
                },
                {
                    "name": "D4",
                    "midi": 62,
                    "time": 240.1196374999992,
                    "velocity": 0.25196850393700787,
                    "duration": 0.1889466000000084
                },
                {
                    "name": "E4",
                    "midi": 64,
                    "time": 240.27709299999918,
                    "velocity": 0.25196850393700787,
                    "duration": 0.15745549999999753
                },
                {
                    "name": "G#3",
                    "midi": 56,
                    "time": 240.43454849999918,
                    "velocity": 0.31496062992125984,
                    "duration": 0.1889466000000084
                },
                {
                    "name": "D4",
                    "midi": 62,
                    "time": 240.59200399999918,
                    "velocity": 0.25196850393700787,
                    "duration": 0.1889466000000084
                },
                {
                    "name": "E4",
                    "midi": 64,
                    "time": 240.74945949999918,
                    "velocity": 0.25196850393700787,
                    "duration": 0.15745549999999753
                },
                {
                    "name": "A3",
                    "midi": 57,
                    "time": 240.90691499999917,
                    "velocity": 0.3464566929133858,
                    "duration": 0.1889466000000084
                },
                {
                    "name": "C#4",
                    "midi": 61,
                    "time": 241.06437049999917,
                    "velocity": 0.2755905511811024,
                    "duration": 0.1889466000000084
                },
                {
                    "name": "E4",
                    "midi": 64,
                    "time": 241.22182599999917,
                    "velocity": 0.25984251968503935,
                    "duration": 0.15745549999999753
                },
                {
                    "name": "A3",
                    "midi": 57,
                    "time": 241.37928149999917,
                    "velocity": 0.31496062992125984,
                    "duration": 0.1889466000000084
                },
                {
                    "name": "C#4",
                    "midi": 61,
                    "time": 241.53673699999916,
                    "velocity": 0.2755905511811024,
                    "duration": 0.1889466000000084
                },
                {
                    "name": "E4",
                    "midi": 64,
                    "time": 241.69419249999916,
                    "velocity": 0.2755905511811024,
                    "duration": 0.15745549999999753
                },
                {
                    "name": "D3",
                    "midi": 50,
                    "time": 241.85164799999916,
                    "velocity": 0.33070866141732286,
                    "duration": 0.1889466000000084
                },
                {
                    "name": "F#3",
                    "midi": 54,
                    "time": 242.00910349999916,
                    "velocity": 0.29133858267716534,
                    "duration": 0.1889466000000084
                },
                {
                    "name": "B3",
                    "midi": 59,
                    "time": 242.16655899999915,
                    "velocity": 0.29133858267716534,
                    "duration": 0.15745549999999753
                },
                {
                    "name": "E3",
                    "midi": 52,
                    "time": 242.32401449999915,
                    "velocity": 0.3464566929133858,
                    "duration": 0.1889466000000084
                },
                {
                    "name": "A3",
                    "midi": 57,
                    "time": 242.48146999999915,
                    "velocity": 0.31496062992125984,
                    "duration": 0.1889466000000084
                },
                {
                    "name": "C#4",
                    "midi": 61,
                    "time": 242.63892549999915,
                    "velocity": 0.31496062992125984,
                    "duration": 0.15745549999999753
                },
                {
                    "name": "E3",
                    "midi": 52,
                    "time": 242.79638099999914,
                    "velocity": 0.3464566929133858,
                    "duration": 0.1889466000000084
                },
                {
                    "name": "A3",
                    "midi": 57,
                    "time": 242.95383649999914,
                    "velocity": 0.33070866141732286,
                    "duration": 0.1889466000000084
                },
                {
                    "name": "C#4",
                    "midi": 61,
                    "time": 243.11129199999914,
                    "velocity": 0.3464566929133858,
                    "duration": 0.15745549999999753
                },
                {
                    "name": "E3",
                    "midi": 52,
                    "time": 243.26874749999914,
                    "velocity": 0.3779527559055118,
                    "duration": 0.1889466000000084
                },
                {
                    "name": "G#3",
                    "midi": 56,
                    "time": 243.42620299999913,
                    "velocity": 0.3228346456692913,
                    "duration": 0.18894660000003682
                },
                {
                    "name": "B3",
                    "midi": 59,
                    "time": 243.58169030624916,
                    "velocity": 0.33070866141732286,
                    "duration": 0.15745550000002595
                },
                {
                    "name": "A2",
                    "midi": 45,
                    "time": 243.7411139999992,
                    "velocity": 0.5826771653543307,
                    "duration": 0.2361832500000105
                },
                {
                    "name": "G#3",
                    "midi": 56,
                    "time": 244.1544346874992,
                    "velocity": 0.5275590551181102,
                    "duration": 0.059045812499988415
                },
                {
                    "name": "A3",
                    "midi": 57,
                    "time": 244.21348049999918,
                    "velocity": 0.5826771653543307,
                    "duration": 0.2361832500000105
                },
                {
                    "name": "A2",
                    "midi": 45,
                    "time": 245.1582134999992,
                    "velocity": 0.5826771653543307,
                    "duration": 0.2361832500000105
                },
                {
                    "name": "G#3",
                    "midi": 56,
                    "time": 245.5715341874992,
                    "velocity": 0.5275590551181102,
                    "duration": 0.059045812499988415
                },
                {
                    "name": "A3",
                    "midi": 57,
                    "time": 245.63057999999918,
                    "velocity": 0.5669291338582677,
                    "duration": 0.2361832500000105
                },
                {
                    "name": "E2",
                    "midi": 40,
                    "time": 246.5753129999992,
                    "velocity": 0.5826771653543307,
                    "duration": 0.2361832500000105
                },
                {
                    "name": "D#3",
                    "midi": 51,
                    "time": 246.9295878749992,
                    "velocity": 0.5275590551181102,
                    "duration": 0.059045812499988415
                },
                {
                    "name": "E3",
                    "midi": 52,
                    "time": 247.0476794999992,
                    "velocity": 0.5826771653543307,
                    "duration": 0.2361832500000105
                },
                {
                    "name": "E2",
                    "midi": 40,
                    "time": 247.9924124999992,
                    "velocity": 0.5826771653543307,
                    "duration": 0.2361832500000105
                },
                {
                    "name": "D#3",
                    "midi": 51,
                    "time": 248.34668737499922,
                    "velocity": 0.5275590551181102,
                    "duration": 0.059045812499988415
                },
                {
                    "name": "E3",
                    "midi": 52,
                    "time": 248.4647789999992,
                    "velocity": 0.5669291338582677,
                    "duration": 0.2361832500000105
                },
                {
                    "name": "E2",
                    "midi": 40,
                    "time": 249.4095119999992,
                    "velocity": 0.5826771653543307,
                    "duration": 0.2361832500000105
                },
                {
                    "name": "F3",
                    "midi": 53,
                    "time": 249.76378687499923,
                    "velocity": 0.4645669291338583,
                    "duration": 0.059045812499988415
                },
                {
                    "name": "F#3",
                    "midi": 54,
                    "time": 249.8818784999992,
                    "velocity": 0.5354330708661418,
                    "duration": 0.2361832500000105
                },
                {
                    "name": "G3",
                    "midi": 55,
                    "time": 250.23615337499922,
                    "velocity": 0.4881889763779528,
                    "duration": 0.11809162500000525
                },
                {
                    "name": "G#3",
                    "midi": 56,
                    "time": 250.35424499999922,
                    "velocity": 0.5511811023622047,
                    "duration": 0.2361832500000105
                },
                {
                    "name": "A2",
                    "midi": 45,
                    "time": 250.82661149999925,
                    "velocity": 0.5826771653543307,
                    "duration": 0.2361832500000105
                },
                {
                    "name": "G#3",
                    "midi": 56,
                    "time": 251.18088637499926,
                    "velocity": 0.49606299212598426,
                    "duration": 0.059045812499988415
                },
                {
                    "name": "A3",
                    "midi": 57,
                    "time": 251.29897799999924,
                    "velocity": 0.5275590551181102,
                    "duration": 0.2361832500000105
                },
                {
                    "name": "C#3",
                    "midi": 49,
                    "time": 251.65325287499925,
                    "velocity": 0.49606299212598426,
                    "duration": 0.11809162500000525
                },
                {
                    "name": "D3",
                    "midi": 50,
                    "time": 251.77134449999926,
                    "velocity": 0.5433070866141733,
                    "duration": 0.2361832500000105
                },
                {
                    "name": "E2",
                    "midi": 40,
                    "time": 252.24371099999928,
                    "velocity": 0.5826771653543307,
                    "duration": 0.2361832500000105
                },
                {
                    "name": "D#3",
                    "midi": 51,
                    "time": 252.5979858749993,
                    "velocity": 0.4881889763779528,
                    "duration": 0.059045812499988415
                },
                {
                    "name": "E3",
                    "midi": 52,
                    "time": 252.71607749999927,
                    "velocity": 0.5275590551181102,
                    "duration": 0.2361832500000105
                },
                {
                    "name": "D#3",
                    "midi": 51,
                    "time": 253.0703523749993,
                    "velocity": 0.48031496062992124,
                    "duration": 0.11809162500000525
                },
                {
                    "name": "E3",
                    "midi": 52,
                    "time": 253.1884439999993,
                    "velocity": 0.5354330708661418,
                    "duration": 0.2361832500000105
                },
                {
                    "name": "A1",
                    "midi": 33,
                    "time": 253.66081049999931,
                    "velocity": 0.5826771653543307,
                    "duration": 0.2361832500000105
                },
                {
                    "name": "G#2",
                    "midi": 44,
                    "time": 254.01508537499933,
                    "velocity": 0.48031496062992124,
                    "duration": 0.059045812499988415
                },
                {
                    "name": "A2",
                    "midi": 45,
                    "time": 254.1331769999993,
                    "velocity": 0.5275590551181102,
                    "duration": 0.2361832500000105
                },
                {
                    "name": "A3",
                    "midi": 57,
                    "time": 255.07790999999932,
                    "velocity": 0.29133858267716534,
                    "duration": 0.1889466000000084
                },
                {
                    "name": "C#4",
                    "midi": 61,
                    "time": 255.23536549999932,
                    "velocity": 0.23622047244094488,
                    "duration": 0.1889466000000084
                },
                {
                    "name": "E4",
                    "midi": 64,
                    "time": 255.39478919374932,
                    "velocity": 0.2283464566929134,
                    "duration": 0.15745549999999753
                },
                {
                    "name": "A3",
                    "midi": 57,
                    "time": 255.5502764999993,
                    "velocity": 0.2992125984251969,
                    "duration": 0.1889466000000084
                },
                {
                    "name": "B3",
                    "midi": 59,
                    "time": 255.7077319999993,
                    "velocity": 0.23622047244094488,
                    "duration": 0.1889466000000084
                },
                {
                    "name": "D4",
                    "midi": 62,
                    "time": 255.8651874999993,
                    "velocity": 0.23622047244094488,
                    "duration": 0.15745550000002595
                },
                {
                    "name": "A3",
                    "midi": 57,
                    "time": 256.02264299999933,
                    "velocity": 0.2992125984251969,
                    "duration": 0.1889466000000084
                },
                {
                    "name": "C#4",
                    "midi": 61,
                    "time": 256.18009849999936,
                    "velocity": 0.23622047244094488,
                    "duration": 0.18894659999995156
                },
                {
                    "name": "E4",
                    "midi": 64,
                    "time": 256.33755399999933,
                    "velocity": 0.23622047244094488,
                    "duration": 0.1574554999999691
                },
                {
                    "name": "A3",
                    "midi": 57,
                    "time": 256.4950094999993,
                    "velocity": 0.2992125984251969,
                    "duration": 0.1889466000000084
                },
                {
                    "name": "D4",
                    "midi": 62,
                    "time": 256.6524649999993,
                    "velocity": 0.2204724409448819,
                    "duration": 0.18894659999995156
                },
                {
                    "name": "F#4",
                    "midi": 66,
                    "time": 256.8099204999993,
                    "velocity": 0.2204724409448819,
                    "duration": 0.1574554999999691
                },
                {
                    "name": "A3",
                    "midi": 57,
                    "time": 256.96737599999926,
                    "velocity": 0.2755905511811024,
                    "duration": 0.1889466000000084
                },
                {
                    "name": "D4",
                    "midi": 62,
                    "time": 257.1248314999993,
                    "velocity": 0.2204724409448819,
                    "duration": 0.18894659999995156
                },
                {
                    "name": "F#4",
                    "midi": 66,
                    "time": 257.28228699999926,
                    "velocity": 0.2204724409448819,
                    "duration": 0.1574554999999691
                },
                {
                    "name": "A3",
                    "midi": 57,
                    "time": 257.4397424999992,
                    "velocity": 0.2992125984251969,
                    "duration": 0.1889466000000084
                },
                {
                    "name": "D4",
                    "midi": 62,
                    "time": 257.59719799999925,
                    "velocity": 0.25196850393700787,
                    "duration": 0.18894659999995156
                },
                {
                    "name": "F#4",
                    "midi": 66,
                    "time": 257.7546534999992,
                    "velocity": 0.25196850393700787,
                    "duration": 0.1574554999999691
                },
                {
                    "name": "A3",
                    "midi": 57,
                    "time": 257.9121089999992,
                    "velocity": 0.29133858267716534,
                    "duration": 0.1889466000000084
                },
                {
                    "name": "F#4",
                    "midi": 66,
                    "time": 258.0695644999992,
                    "velocity": 0.25984251968503935,
                    "duration": 0.18894659999995156
                },
                {
                    "name": "A4",
                    "midi": 69,
                    "time": 258.2270199999992,
                    "velocity": 0.25984251968503935,
                    "duration": 0.1574554999999691
                },
                {
                    "name": "A3",
                    "midi": 57,
                    "time": 258.38447549999916,
                    "velocity": 0.2992125984251969,
                    "duration": 0.1889466000000084
                },
                {
                    "name": "E4",
                    "midi": 64,
                    "time": 258.5419309999992,
                    "velocity": 0.25984251968503935,
                    "duration": 0.18894659999995156
                },
                {
                    "name": "G#4",
                    "midi": 68,
                    "time": 258.69938649999915,
                    "velocity": 0.25984251968503935,
                    "duration": 0.1574554999999691
                },
                {
                    "name": "A3",
                    "midi": 57,
                    "time": 258.8568419999991,
                    "velocity": 0.2992125984251969,
                    "duration": 0.1889466000000084
                },
                {
                    "name": "D4",
                    "midi": 62,
                    "time": 259.01429749999915,
                    "velocity": 0.2677165354330709,
                    "duration": 0.18894659999995156
                },
                {
                    "name": "F#4",
                    "midi": 66,
                    "time": 259.1717529999991,
                    "velocity": 0.2440944881889764,
                    "duration": 0.1574554999999691
                },
                {
                    "name": "A3",
                    "midi": 57,
                    "time": 259.3292084999991,
                    "velocity": 0.28346456692913385,
                    "duration": 0.1889466000000084
                },
                {
                    "name": "C#4",
                    "midi": 61,
                    "time": 259.4866639999991,
                    "velocity": 0.2125984251968504,
                    "duration": 0.18894659999995156
                },
                {
                    "name": "E4",
                    "midi": 64,
                    "time": 259.6441194999991,
                    "velocity": 0.2125984251968504,
                    "duration": 0.1574554999999691
                },
                {
                    "name": "A3",
                    "midi": 57,
                    "time": 259.80157499999905,
                    "velocity": 0.2755905511811024,
                    "duration": 0.1889466000000084
                },
                {
                    "name": "C#4",
                    "midi": 61,
                    "time": 259.9590304999991,
                    "velocity": 0.2204724409448819,
                    "duration": 0.18894659999995156
                },
                {
                    "name": "E4",
                    "midi": 64,
                    "time": 260.11648599999904,
                    "velocity": 0.2204724409448819,
                    "duration": 0.1574554999999691
                },
                {
                    "name": "A3",
                    "midi": 57,
                    "time": 260.273941499999,
                    "velocity": 0.2992125984251969,
                    "duration": 0.1889466000000084
                },
                {
                    "name": "C#4",
                    "midi": 61,
                    "time": 260.43139699999904,
                    "velocity": 0.25984251968503935,
                    "duration": 0.18894659999995156
                },
                {
                    "name": "E4",
                    "midi": 64,
                    "time": 260.588852499999,
                    "velocity": 0.25984251968503935,
                    "duration": 0.1574554999999691
                },
                {
                    "name": "A3",
                    "midi": 57,
                    "time": 260.746307999999,
                    "velocity": 0.33070866141732286,
                    "duration": 0.1889466000000084
                },
                {
                    "name": "C#4",
                    "midi": 61,
                    "time": 260.903763499999,
                    "velocity": 0.2677165354330709,
                    "duration": 0.18894659999995156
                },
                {
                    "name": "E4",
                    "midi": 64,
                    "time": 261.06121899999897,
                    "velocity": 0.2677165354330709,
                    "duration": 0.1574554999999691
                },
                {
                    "name": "A3",
                    "midi": 57,
                    "time": 261.21867449999894,
                    "velocity": 0.2992125984251969,
                    "duration": 0.1889466000000084
                },
                {
                    "name": "C#4",
                    "midi": 61,
                    "time": 261.37612999999897,
                    "velocity": 0.25984251968503935,
                    "duration": 0.18894659999995156
                },
                {
                    "name": "E4",
                    "midi": 64,
                    "time": 261.53358549999894,
                    "velocity": 0.25984251968503935,
                    "duration": 0.1574554999999691
                },
                {
                    "name": "A3",
                    "midi": 57,
                    "time": 261.6910409999989,
                    "velocity": 0.2992125984251969,
                    "duration": 0.1889466000000084
                },
                {
                    "name": "C#4",
                    "midi": 61,
                    "time": 261.84849649999893,
                    "velocity": 0.2677165354330709,
                    "duration": 0.18894659999995156
                },
                {
                    "name": "E4",
                    "midi": 64,
                    "time": 262.0059519999989,
                    "velocity": 0.2755905511811024,
                    "duration": 0.1574554999999691
                },
                {
                    "name": "B3",
                    "midi": 59,
                    "time": 262.16340749999887,
                    "velocity": 0.3228346456692913,
                    "duration": 0.1889466000000084
                },
                {
                    "name": "D4",
                    "midi": 62,
                    "time": 262.3208629999989,
                    "velocity": 0.28346456692913385,
                    "duration": 0.18894659999995156
                },
                {
                    "name": "E4",
                    "midi": 64,
                    "time": 262.47831849999886,
                    "velocity": 0.29133858267716534,
                    "duration": 0.1574554999999691
                },
                {
                    "name": "B3",
                    "midi": 59,
                    "time": 262.63577399999883,
                    "velocity": 0.3464566929133858,
                    "duration": 0.1889466000000084
                },
                {
                    "name": "D4",
                    "midi": 62,
                    "time": 262.79322949999886,
                    "velocity": 0.29133858267716534,
                    "duration": 0.18894659999995156
                },
                {
                    "name": "E4",
                    "midi": 64,
                    "time": 262.9506849999988,
                    "velocity": 0.30708661417322836,
                    "duration": 0.1574554999999691
                },
                {
                    "name": "B3",
                    "midi": 59,
                    "time": 263.1081404999988,
                    "velocity": 0.36220472440944884,
                    "duration": 0.1889466000000084
                },
                {
                    "name": "D4",
                    "midi": 62,
                    "time": 263.2655959999988,
                    "velocity": 0.3228346456692913,
                    "duration": 0.18894659999995156
                },
                {
                    "name": "E4",
                    "midi": 64,
                    "time": 263.4230514999988,
                    "velocity": 0.33070866141732286,
                    "duration": 0.1574554999999691
                },
                {
                    "name": "A3",
                    "midi": 57,
                    "time": 263.58050699999876,
                    "velocity": 0.3700787401574803,
                    "duration": 0.1889466000000084
                },
                {
                    "name": "C#4",
                    "midi": 61,
                    "time": 263.7379624999988,
                    "velocity": 0.31496062992125984,
                    "duration": 0.18894659999995156
                },
                {
                    "name": "E4",
                    "midi": 64,
                    "time": 263.89541799999876,
                    "velocity": 0.31496062992125984,
                    "duration": 0.1574554999999691
                },
                {
                    "name": "A3",
                    "midi": 57,
                    "time": 264.0528734999987,
                    "velocity": 0.3700787401574803,
                    "duration": 0.1889466000000084
                },
                {
                    "name": "C#4",
                    "midi": 61,
                    "time": 264.21032899999875,
                    "velocity": 0.2992125984251969,
                    "duration": 0.18894659999995156
                },
                {
                    "name": "E4",
                    "midi": 64,
                    "time": 264.3677844999987,
                    "velocity": 0.25984251968503935,
                    "duration": 0.1574554999999691
                },
                {
                    "name": "F#3",
                    "midi": 54,
                    "time": 264.5252399999987,
                    "velocity": 0.2992125984251969,
                    "duration": 0.1889466000000084
                },
                {
                    "name": "A3",
                    "midi": 57,
                    "time": 264.6826954999987,
                    "velocity": 0.2283464566929134,
                    "duration": 0.18894659999995156
                },
                {
                    "name": "D#4",
                    "midi": 63,
                    "time": 264.8401509999987,
                    "velocity": 0.2283464566929134,
                    "duration": 0.1574554999999691
                },
                {
                    "name": "E3",
                    "midi": 52,
                    "time": 264.99760649999865,
                    "velocity": 0.18110236220472442,
                    "duration": 1.4170995000000062
                },
                {
                    "name": "E4",
                    "midi": 64,
                    "time": 264.99760649999865,
                    "velocity": 0.2283464566929134,
                    "duration": 1.4170995000000062
                },
                {
                    "name": "A3",
                    "midi": 57,
                    "time": 266.41470599999866,
                    "velocity": 0.3464566929133858,
                    "duration": 0.1889466000000084
                },
                {
                    "name": "D#4",
                    "midi": 63,
                    "time": 266.5721614999987,
                    "velocity": 0.2677165354330709,
                    "duration": 0.18894659999995156
                },
                {
                    "name": "E4",
                    "midi": 64,
                    "time": 266.72961699999865,
                    "velocity": 0.2677165354330709,
                    "duration": 0.1574554999999691
                },
                {
                    "name": "A3",
                    "midi": 57,
                    "time": 266.8870724999986,
                    "velocity": 0.31496062992125984,
                    "duration": 0.1889466000000084
                },
                {
                    "name": "D#4",
                    "midi": 63,
                    "time": 267.04452799999865,
                    "velocity": 0.2440944881889764,
                    "duration": 0.18894659999995156
                },
                {
                    "name": "E4",
                    "midi": 64,
                    "time": 267.2019834999986,
                    "velocity": 0.2440944881889764,
                    "duration": 0.1574554999999691
                },
                {
                    "name": "B3",
                    "midi": 59,
                    "time": 267.3594389999986,
                    "velocity": 0.31496062992125984,
                    "duration": 0.1889466000000084
                },
                {
                    "name": "D#4",
                    "midi": 63,
                    "time": 267.5168944999986,
                    "velocity": 0.25196850393700787,
                    "duration": 0.18894659999995156
                },
                {
                    "name": "E4",
                    "midi": 64,
                    "time": 267.6743499999986,
                    "velocity": 0.25196850393700787,
                    "duration": 0.1574554999999691
                },
                {
                    "name": "C#4",
                    "midi": 61,
                    "time": 267.83180549999855,
                    "velocity": 0.3228346456692913,
                    "duration": 0.1889466000000084
                },
                {
                    "name": "D#4",
                    "midi": 63,
                    "time": 267.9892609999986,
                    "velocity": 0.2440944881889764,
                    "duration": 0.18894659999995156
                },
                {
                    "name": "E4",
                    "midi": 64,
                    "time": 268.14671649999855,
                    "velocity": 0.2440944881889764,
                    "duration": 0.1574554999999691
                },
                {
                    "name": "C#4",
                    "midi": 61,
                    "time": 268.3041719999985,
                    "velocity": 0.31496062992125984,
                    "duration": 0.1889466000000084
                },
                {
                    "name": "D#4",
                    "midi": 63,
                    "time": 268.46162749999854,
                    "velocity": 0.23622047244094488,
                    "duration": 0.18894659999995156
                },
                {
                    "name": "E4",
                    "midi": 64,
                    "time": 268.6190829999985,
                    "velocity": 0.23622047244094488,
                    "duration": 0.1574554999999691
                },
                {
                    "name": "A3",
                    "midi": 57,
                    "time": 268.7765384999985,
                    "velocity": 0.31496062992125984,
                    "duration": 0.1889466000000084
                },
                {
                    "name": "D#4",
                    "midi": 63,
                    "time": 268.9339939999985,
                    "velocity": 0.2755905511811024,
                    "duration": 0.18894659999995156
                },
                {
                    "name": "E4",
                    "midi": 64,
                    "time": 269.0914494999985,
                    "velocity": 0.2755905511811024,
                    "duration": 0.1574554999999691
                },
                {
                    "name": "G#3",
                    "midi": 56,
                    "time": 269.24890499999844,
                    "velocity": 0.3464566929133858,
                    "duration": 0.1889466000000084
                },
                {
                    "name": "D#4",
                    "midi": 63,
                    "time": 269.40636049999847,
                    "velocity": 0.2440944881889764,
                    "duration": 0.18894659999995156
                },
                {
                    "name": "E4",
                    "midi": 64,
                    "time": 269.56381599999844,
                    "velocity": 0.25196850393700787,
                    "duration": 0.1574554999999691
                },
                {
                    "name": "G#3",
                    "midi": 56,
                    "time": 269.7212714999984,
                    "velocity": 0.31496062992125984,
                    "duration": 0.1889466000000084
                },
                {
                    "name": "D#4",
                    "midi": 63,
                    "time": 269.87872699999843,
                    "velocity": 0.2755905511811024,
                    "duration": 0.18894659999995156
                },
                {
                    "name": "E4",
                    "midi": 64,
                    "time": 270.0361824999984,
                    "velocity": 0.2755905511811024,
                    "duration": 0.1574554999999691
                },
                {
                    "name": "A3",
                    "midi": 57,
                    "time": 270.1936379999984,
                    "velocity": 0.31496062992125984,
                    "duration": 0.1889466000000084
                },
                {
                    "name": "D#4",
                    "midi": 63,
                    "time": 270.3510934999984,
                    "velocity": 0.25984251968503935,
                    "duration": 0.18894659999995156
                },
                {
                    "name": "E4",
                    "midi": 64,
                    "time": 270.50854899999837,
                    "velocity": 0.2755905511811024,
                    "duration": 0.1574554999999691
                },
                {
                    "name": "B3",
                    "midi": 59,
                    "time": 270.66600449999834,
                    "velocity": 0.3543307086614173,
                    "duration": 0.1889466000000084
                },
                {
                    "name": "D#4",
                    "midi": 63,
                    "time": 270.82345999999836,
                    "velocity": 0.2677165354330709,
                    "duration": 0.18894659999995156
                },
                {
                    "name": "E4",
                    "midi": 64,
                    "time": 270.98091549999833,
                    "velocity": 0.2677165354330709,
                    "duration": 0.1574554999999691
                },
                {
                    "name": "B3",
                    "midi": 59,
                    "time": 271.1383709999983,
                    "velocity": 0.2992125984251969,
                    "duration": 0.1889466000000084
                },
                {
                    "name": "D#4",
                    "midi": 63,
                    "time": 271.2958264999983,
                    "velocity": 0.2204724409448819,
                    "duration": 0.18894659999995156
                },
                {
                    "name": "E4",
                    "midi": 64,
                    "time": 271.4532819999983,
                    "velocity": 0.2204724409448819,
                    "duration": 0.1574554999999691
                },
                {
                    "name": "G#3",
                    "midi": 56,
                    "time": 271.61073749999827,
                    "velocity": 0.31496062992125984,
                    "duration": 0.1889466000000084
                },
                {
                    "name": "D#4",
                    "midi": 63,
                    "time": 271.7681929999983,
                    "velocity": 0.2755905511811024,
                    "duration": 0.18894659999995156
                },
                {
                    "name": "E4",
                    "midi": 64,
                    "time": 271.92564849999826,
                    "velocity": 0.2755905511811024,
                    "duration": 0.1574554999999691
                },
                {
                    "name": "F#3",
                    "midi": 54,
                    "time": 272.08310399999823,
                    "velocity": 0.3464566929133858,
                    "duration": 0.1889466000000084
                },
                {
                    "name": "D#4",
                    "midi": 63,
                    "time": 272.24055949999826,
                    "velocity": 0.2755905511811024,
                    "duration": 0.18894659999995156
                },
                {
                    "name": "E4",
                    "midi": 64,
                    "time": 272.3980149999982,
                    "velocity": 0.2755905511811024,
                    "duration": 0.1574554999999691
                },
                {
                    "name": "F#3",
                    "midi": 54,
                    "time": 272.5554704999982,
                    "velocity": 0.31496062992125984,
                    "duration": 0.1889466000000084
                },
                {
                    "name": "D#4",
                    "midi": 63,
                    "time": 272.7129259999982,
                    "velocity": 0.2755905511811024,
                    "duration": 0.18894659999995156
                },
                {
                    "name": "E4",
                    "midi": 64,
                    "time": 272.8703814999982,
                    "velocity": 0.2677165354330709,
                    "duration": 0.1574554999999691
                },
                {
                    "name": "F#3",
                    "midi": 54,
                    "time": 273.02783699999816,
                    "velocity": 0.31496062992125984,
                    "duration": 0.1889466000000084
                },
                {
                    "name": "D4",
                    "midi": 62,
                    "time": 273.1852924999982,
                    "velocity": 0.2755905511811024,
                    "duration": 0.18894659999995156
                },
                {
                    "name": "E4",
                    "midi": 64,
                    "time": 273.34274799999815,
                    "velocity": 0.2755905511811024,
                    "duration": 0.1574554999999691
                },
                {
                    "name": "A3",
                    "midi": 57,
                    "time": 273.5002034999981,
                    "velocity": 0.3464566929133858,
                    "duration": 0.1889466000000084
                },
                {
                    "name": "C#4",
                    "midi": 61,
                    "time": 273.65765899999815,
                    "velocity": 0.2755905511811024,
                    "duration": 0.18894659999995156
                },
                {
                    "name": "E4",
                    "midi": 64,
                    "time": 273.8151144999981,
                    "velocity": 0.25984251968503935,
                    "duration": 0.1574554999999691
                },
                {
                    "name": "A3",
                    "midi": 57,
                    "time": 273.9725699999981,
                    "velocity": 0.31496062992125984,
                    "duration": 0.1889466000000084
                },
                {
                    "name": "C#4",
                    "midi": 61,
                    "time": 274.1300254999981,
                    "velocity": 0.25984251968503935,
                    "duration": 0.18894659999995156
                },
                {
                    "name": "E4",
                    "midi": 64,
                    "time": 274.2874809999981,
                    "velocity": 0.25984251968503935,
                    "duration": 0.1574554999999691
                },
                {
                    "name": "D3",
                    "midi": 50,
                    "time": 274.44493649999805,
                    "velocity": 0.31496062992125984,
                    "duration": 0.1889466000000084
                },
                {
                    "name": "F#3",
                    "midi": 54,
                    "time": 274.6023919999981,
                    "velocity": 0.25984251968503935,
                    "duration": 0.18894659999995156
                },
                {
                    "name": "B3",
                    "midi": 59,
                    "time": 274.75984749999805,
                    "velocity": 0.25984251968503935,
                    "duration": 0.1574554999999691
                },
                {
                    "name": "E3",
                    "midi": 52,
                    "time": 274.917302999998,
                    "velocity": 0.3464566929133858,
                    "duration": 0.1889466000000084
                },
                {
                    "name": "A3",
                    "midi": 57,
                    "time": 275.07475849999804,
                    "velocity": 0.2755905511811024,
                    "duration": 0.18894659999995156
                },
                {
                    "name": "C#4",
                    "midi": 61,
                    "time": 275.232213999998,
                    "velocity": 0.25984251968503935,
                    "duration": 0.1574554999999691
                },
                {
                    "name": "E3",
                    "midi": 52,
                    "time": 275.389669499998,
                    "velocity": 0.31496062992125984,
                    "duration": 0.1889466000000084
                },
                {
                    "name": "A3",
                    "midi": 57,
                    "time": 275.547124999998,
                    "velocity": 0.2755905511811024,
                    "duration": 0.18894659999995156
                },
                {
                    "name": "C#4",
                    "midi": 61,
                    "time": 275.704580499998,
                    "velocity": 0.2755905511811024,
                    "duration": 0.1574554999999691
                },
                {
                    "name": "E3",
                    "midi": 52,
                    "time": 275.86203599999794,
                    "velocity": 0.31496062992125984,
                    "duration": 0.1889466000000084
                },
                {
                    "name": "G#3",
                    "midi": 56,
                    "time": 276.01949149999797,
                    "velocity": 0.2755905511811024,
                    "duration": 0.18894659999995156
                },
                {
                    "name": "D4",
                    "midi": 62,
                    "time": 276.17694699999794,
                    "velocity": 0.2755905511811024,
                    "duration": 0.1574554999999691
                },
                {
                    "name": "D4",
                    "midi": 62,
                    "time": 276.3344024999979,
                    "velocity": 0.31496062992125984,
                    "duration": 0.9447329999999852
                },
                {
                    "name": "A3",
                    "midi": 57,
                    "time": 276.3344024999979,
                    "velocity": 0.2677165354330709,
                    "duration": 1.4170995000000062
                },
                {
                    "name": "E4",
                    "midi": 64,
                    "time": 276.3344024999979,
                    "velocity": 0.2677165354330709,
                    "duration": 1.4170995000000062
                },
                {
                    "name": "C#4",
                    "midi": 61,
                    "time": 277.2791354999979,
                    "velocity": 0.3543307086614173,
                    "duration": 0.472366500000021
                },
                {
                    "name": "A2",
                    "midi": 45,
                    "time": 277.7515019999979,
                    "velocity": 0.5826771653543307,
                    "duration": 0.2361832500000105
                },
                {
                    "name": "G#3",
                    "midi": 56,
                    "time": 278.1057768749979,
                    "velocity": 0.4645669291338583,
                    "duration": 0.05904581250001684
                },
                {
                    "name": "A3",
                    "midi": 57,
                    "time": 278.22386849999793,
                    "velocity": 0.5354330708661418,
                    "duration": 0.2361832500000105
                },
                {
                    "name": "A#3",
                    "midi": 58,
                    "time": 278.5781433749979,
                    "velocity": 0.4881889763779528,
                    "duration": 0.11809162499997683
                },
                {
                    "name": "B3",
                    "midi": 59,
                    "time": 278.6962349999979,
                    "velocity": 0.5511811023622047,
                    "duration": 0.2361832500000105
                },
                {
                    "name": "E3",
                    "midi": 52,
                    "time": 279.1686014999979,
                    "velocity": 0.5826771653543307,
                    "duration": 0.2361832500000105
                },
                {
                    "name": "C4",
                    "midi": 60,
                    "time": 279.5228763749979,
                    "velocity": 0.49606299212598426,
                    "duration": 0.05904581250001684
                },
                {
                    "name": "C#4",
                    "midi": 61,
                    "time": 279.64096799999794,
                    "velocity": 0.5275590551181102,
                    "duration": 0.2361832500000105
                },
                {
                    "name": "C#4",
                    "midi": 61,
                    "time": 279.9952428749979,
                    "velocity": 0.49606299212598426,
                    "duration": 0.11809162499997683
                },
                {
                    "name": "D4",
                    "midi": 62,
                    "time": 280.1133344999979,
                    "velocity": 0.5433070866141733,
                    "duration": 0.2361832500000105
                },
                {
                    "name": "E2",
                    "midi": 40,
                    "time": 280.5857009999979,
                    "velocity": 0.5826771653543307,
                    "duration": 0.2361832500000105
                },
                {
                    "name": "D#3",
                    "midi": 51,
                    "time": 280.9399758749979,
                    "velocity": 0.4881889763779528,
                    "duration": 0.05904581250001684
                },
                {
                    "name": "E3",
                    "midi": 52,
                    "time": 281.05806749999795,
                    "velocity": 0.5275590551181102,
                    "duration": 0.2361832500000105
                },
                {
                    "name": "D#3",
                    "midi": 51,
                    "time": 281.41234237499793,
                    "velocity": 0.48031496062992124,
                    "duration": 0.11809162499997683
                },
                {
                    "name": "E3",
                    "midi": 52,
                    "time": 281.5304339999979,
                    "velocity": 0.5354330708661418,
                    "duration": 0.2361832500000105
                },
                {
                    "name": "A1",
                    "midi": 33,
                    "time": 282.00280049999793,
                    "velocity": 0.5826771653543307,
                    "duration": 0.2361832500000105
                },
                {
                    "name": "G#2",
                    "midi": 44,
                    "time": 282.3570753749979,
                    "velocity": 0.48031496062992124,
                    "duration": 0.05904581250001684
                },
                {
                    "name": "A2",
                    "midi": 45,
                    "time": 282.47516699999795,
                    "velocity": 0.5275590551181102,
                    "duration": 0.2361832500000105
                },
                {
                    "name": "A3",
                    "midi": 57,
                    "time": 283.41989999999794,
                    "velocity": 0.29133858267716534,
                    "duration": 0.1889466000000084
                },
                {
                    "name": "C#4",
                    "midi": 61,
                    "time": 283.57735549999796,
                    "velocity": 0.2440944881889764,
                    "duration": 0.1889466000000084
                },
                {
                    "name": "E4",
                    "midi": 64,
                    "time": 283.73677919374796,
                    "velocity": 0.25196850393700787,
                    "duration": 0.1574554999999691
                },
                {
                    "name": "A3",
                    "midi": 57,
                    "time": 283.89226649999796,
                    "velocity": 0.2992125984251969,
                    "duration": 0.18894659999995156
                },
                {
                    "name": "B3",
                    "midi": 59,
                    "time": 284.0497219999979,
                    "velocity": 0.23622047244094488,
                    "duration": 0.18894659999995156
                },
                {
                    "name": "D4",
                    "midi": 62,
                    "time": 284.2071774999979,
                    "velocity": 0.23622047244094488,
                    "duration": 0.1574554999999691
                },
                {
                    "name": "A3",
                    "midi": 57,
                    "time": 284.36463299999787,
                    "velocity": 0.2992125984251969,
                    "duration": 0.1889466000000084
                },
                {
                    "name": "C#4",
                    "midi": 61,
                    "time": 284.5220884999979,
                    "velocity": 0.23622047244094488,
                    "duration": 0.18894659999995156
                },
                {
                    "name": "E4",
                    "midi": 64,
                    "time": 284.67954399999786,
                    "velocity": 0.23622047244094488,
                    "duration": 0.1574554999999691
                },
                {
                    "name": "A3",
                    "midi": 57,
                    "time": 284.83699949999783,
                    "velocity": 0.2992125984251969,
                    "duration": 0.1889466000000084
                },
                {
                    "name": "D4",
                    "midi": 62,
                    "time": 284.99445499999786,
                    "velocity": 0.2125984251968504,
                    "duration": 0.18894659999995156
                },
                {
                    "name": "F#4",
                    "midi": 66,
                    "time": 285.1519104999978,
                    "velocity": 0.2125984251968504,
                    "duration": 0.1574554999999691
                },
                {
                    "name": "A3",
                    "midi": 57,
                    "time": 285.3093659999978,
                    "velocity": 0.2755905511811024,
                    "duration": 0.1889466000000084
                },
                {
                    "name": "D4",
                    "midi": 62,
                    "time": 285.4668214999978,
                    "velocity": 0.2204724409448819,
                    "duration": 0.18894659999995156
                },
                {
                    "name": "F#4",
                    "midi": 66,
                    "time": 285.6242769999978,
                    "velocity": 0.2047244094488189,
                    "duration": 0.1574554999999691
                },
                {
                    "name": "A3",
                    "midi": 57,
                    "time": 285.78173249999776,
                    "velocity": 0.2992125984251969,
                    "duration": 0.1889466000000084
                },
                {
                    "name": "D4",
                    "midi": 62,
                    "time": 285.9391879999978,
                    "velocity": 0.25196850393700787,
                    "duration": 0.18894659999995156
                },
                {
                    "name": "F#4",
                    "midi": 66,
                    "time": 286.09664349999775,
                    "velocity": 0.25196850393700787,
                    "duration": 0.1574554999999691
                },
                {
                    "name": "A3",
                    "midi": 57,
                    "time": 286.2540989999977,
                    "velocity": 0.29133858267716534,
                    "duration": 0.1889466000000084
                },
                {
                    "name": "F#4",
                    "midi": 66,
                    "time": 286.41155449999775,
                    "velocity": 0.2440944881889764,
                    "duration": 0.18894659999995156
                },
                {
                    "name": "A4",
                    "midi": 69,
                    "time": 286.5690099999977,
                    "velocity": 0.25196850393700787,
                    "duration": 0.1574554999999691
                },
                {
                    "name": "A3",
                    "midi": 57,
                    "time": 286.7264654999977,
                    "velocity": 0.2992125984251969,
                    "duration": 0.1889466000000084
                },
                {
                    "name": "E4",
                    "midi": 64,
                    "time": 286.8839209999977,
                    "velocity": 0.23622047244094488,
                    "duration": 0.18894659999995156
                },
                {
                    "name": "G#4",
                    "midi": 68,
                    "time": 287.0413764999977,
                    "velocity": 0.23622047244094488,
                    "duration": 0.1574554999999691
                },
                {
                    "name": "A3",
                    "midi": 57,
                    "time": 287.19883199999765,
                    "velocity": 0.2992125984251969,
                    "duration": 0.1889466000000084
                },
                {
                    "name": "D4",
                    "midi": 62,
                    "time": 287.3562874999977,
                    "velocity": 0.2677165354330709,
                    "duration": 0.18894659999995156
                },
                {
                    "name": "F#4",
                    "midi": 66,
                    "time": 287.51374299999765,
                    "velocity": 0.2440944881889764,
                    "duration": 0.1574554999999691
                },
                {
                    "name": "A3",
                    "midi": 57,
                    "time": 287.6711984999976,
                    "velocity": 0.28346456692913385,
                    "duration": 0.1889466000000084
                },
                {
                    "name": "C#4",
                    "midi": 61,
                    "time": 287.82865399999764,
                    "velocity": 0.2125984251968504,
                    "duration": 0.18894659999995156
                },
                {
                    "name": "E4",
                    "midi": 64,
                    "time": 287.9861094999976,
                    "velocity": 0.2125984251968504,
                    "duration": 0.1574554999999691
                },
                {
                    "name": "A3",
                    "midi": 57,
                    "time": 288.1435649999976,
                    "velocity": 0.2755905511811024,
                    "duration": 0.1889466000000084
                },
                {
                    "name": "C#4",
                    "midi": 61,
                    "time": 288.3010204999976,
                    "velocity": 0.2204724409448819,
                    "duration": 0.18894659999995156
                },
                {
                    "name": "E4",
                    "midi": 64,
                    "time": 288.4584759999976,
                    "velocity": 0.2204724409448819,
                    "duration": 0.1574554999999691
                },
                {
                    "name": "A3",
                    "midi": 57,
                    "time": 288.61593149999754,
                    "velocity": 0.2992125984251969,
                    "duration": 0.1889466000000084
                },
                {
                    "name": "C#4",
                    "midi": 61,
                    "time": 288.77338699999757,
                    "velocity": 0.25196850393700787,
                    "duration": 0.18894659999995156
                },
                {
                    "name": "E4",
                    "midi": 64,
                    "time": 288.93084249999754,
                    "velocity": 0.25196850393700787,
                    "duration": 0.1574554999999691
                },
                {
                    "name": "A3",
                    "midi": 57,
                    "time": 289.0882979999975,
                    "velocity": 0.33070866141732286,
                    "duration": 0.1889466000000084
                },
                {
                    "name": "C#4",
                    "midi": 61,
                    "time": 289.24575349999753,
                    "velocity": 0.25984251968503935,
                    "duration": 0.18894659999995156
                },
                {
                    "name": "E4",
                    "midi": 64,
                    "time": 289.4032089999975,
                    "velocity": 0.25984251968503935,
                    "duration": 0.1574554999999691
                },
                {
                    "name": "A3",
                    "midi": 57,
                    "time": 289.5606644999975,
                    "velocity": 0.2992125984251969,
                    "duration": 0.1889466000000084
                },
                {
                    "name": "C#4",
                    "midi": 61,
                    "time": 289.7181199999975,
                    "velocity": 0.25984251968503935,
                    "duration": 0.18894659999995156
                },
                {
                    "name": "E4",
                    "midi": 64,
                    "time": 289.87557549999747,
                    "velocity": 0.2440944881889764,
                    "duration": 0.1574554999999691
                },
                {
                    "name": "A3",
                    "midi": 57,
                    "time": 290.03303099999744,
                    "velocity": 0.2992125984251969,
                    "duration": 0.1889466000000084
                },
                {
                    "name": "C#4",
                    "midi": 61,
                    "time": 290.19048649999746,
                    "velocity": 0.2677165354330709,
                    "duration": 0.18894659999995156
                },
                {
                    "name": "E4",
                    "midi": 64,
                    "time": 290.34794199999743,
                    "velocity": 0.2755905511811024,
                    "duration": 0.1574554999999691
                },
                {
                    "name": "B3",
                    "midi": 59,
                    "time": 290.5053974999974,
                    "velocity": 0.3228346456692913,
                    "duration": 0.1889466000000084
                },
                {
                    "name": "D4",
                    "midi": 62,
                    "time": 290.6628529999974,
                    "velocity": 0.28346456692913385,
                    "duration": 0.18894659999995156
                },
                {
                    "name": "E4",
                    "midi": 64,
                    "time": 290.8203084999974,
                    "velocity": 0.29133858267716534,
                    "duration": 0.1574554999999691
                },
                {
                    "name": "B3",
                    "midi": 59,
                    "time": 290.97776399999736,
                    "velocity": 0.3464566929133858,
                    "duration": 0.1889466000000084
                },
                {
                    "name": "D4",
                    "midi": 62,
                    "time": 291.1352194999974,
                    "velocity": 0.29133858267716534,
                    "duration": 0.18894659999995156
                },
                {
                    "name": "E4",
                    "midi": 64,
                    "time": 291.29267499999736,
                    "velocity": 0.30708661417322836,
                    "duration": 0.1574554999999691
                },
                {
                    "name": "B3",
                    "midi": 59,
                    "time": 291.45013049999733,
                    "velocity": 0.36220472440944884,
                    "duration": 0.1889466000000084
                },
                {
                    "name": "D4",
                    "midi": 62,
                    "time": 291.60758599999735,
                    "velocity": 0.3228346456692913,
                    "duration": 0.18894659999995156
                },
                {
                    "name": "E4",
                    "midi": 64,
                    "time": 291.7650414999973,
                    "velocity": 0.33070866141732286,
                    "duration": 0.1574554999999691
                },
                {
                    "name": "A3",
                    "midi": 57,
                    "time": 291.9224969999973,
                    "velocity": 0.3700787401574803,
                    "duration": 0.1889466000000084
                },
                {
                    "name": "C#4",
                    "midi": 61,
                    "time": 292.0799524999973,
                    "velocity": 0.31496062992125984,
                    "duration": 0.18894659999995156
                },
                {
                    "name": "E4",
                    "midi": 64,
                    "time": 292.2374079999973,
                    "velocity": 0.31496062992125984,
                    "duration": 0.1574554999999691
                },
                {
                    "name": "A3",
                    "midi": 57,
                    "time": 292.39486349999726,
                    "velocity": 0.3700787401574803,
                    "duration": 0.1889466000000084
                },
                {
                    "name": "C#4",
                    "midi": 61,
                    "time": 292.5523189999973,
                    "velocity": 0.2992125984251969,
                    "duration": 0.18894659999995156
                },
                {
                    "name": "E4",
                    "midi": 64,
                    "time": 292.70977449999725,
                    "velocity": 0.25984251968503935,
                    "duration": 0.1574554999999691
                },
                {
                    "name": "F#3",
                    "midi": 54,
                    "time": 292.8672299999972,
                    "velocity": 0.2992125984251969,
                    "duration": 0.1889466000000084
                },
                {
                    "name": "A3",
                    "midi": 57,
                    "time": 293.02468549999725,
                    "velocity": 0.2283464566929134,
                    "duration": 0.18894659999995156
                },
                {
                    "name": "D#4",
                    "midi": 63,
                    "time": 293.1821409999972,
                    "velocity": 0.2283464566929134,
                    "duration": 0.1574554999999691
                },
                {
                    "name": "E3",
                    "midi": 52,
                    "time": 293.3395964999972,
                    "velocity": 0.18110236220472442,
                    "duration": 1.4170995000000062
                },
                {
                    "name": "E4",
                    "midi": 64,
                    "time": 293.3395964999972,
                    "velocity": 0.2283464566929134,
                    "duration": 1.4170995000000062
                },
                {
                    "name": "A3",
                    "midi": 57,
                    "time": 294.7566959999972,
                    "velocity": 0.3464566929133858,
                    "duration": 0.1889466000000084
                },
                {
                    "name": "D#4",
                    "midi": 63,
                    "time": 294.9141514999972,
                    "velocity": 0.25196850393700787,
                    "duration": 0.18894659999995156
                },
                {
                    "name": "E4",
                    "midi": 64,
                    "time": 295.0716069999972,
                    "velocity": 0.25196850393700787,
                    "duration": 0.1574554999999691
                },
                {
                    "name": "A3",
                    "midi": 57,
                    "time": 295.22906249999716,
                    "velocity": 0.31496062992125984,
                    "duration": 0.1889466000000084
                },
                {
                    "name": "D#4",
                    "midi": 63,
                    "time": 295.3865179999972,
                    "velocity": 0.25196850393700787,
                    "duration": 0.18894659999995156
                },
                {
                    "name": "E4",
                    "midi": 64,
                    "time": 295.54397349999715,
                    "velocity": 0.25196850393700787,
                    "duration": 0.1574554999999691
                },
                {
                    "name": "B3",
                    "midi": 59,
                    "time": 295.7014289999971,
                    "velocity": 0.31496062992125984,
                    "duration": 0.1889466000000084
                },
                {
                    "name": "D#4",
                    "midi": 63,
                    "time": 295.85888449999715,
                    "velocity": 0.2677165354330709,
                    "duration": 0.18894659999995156
                },
                {
                    "name": "E4",
                    "midi": 64,
                    "time": 296.0163399999971,
                    "velocity": 0.2677165354330709,
                    "duration": 0.1574554999999691
                },
                {
                    "name": "C#4",
                    "midi": 61,
                    "time": 296.1737954999971,
                    "velocity": 0.3228346456692913,
                    "duration": 0.1889466000000084
                },
                {
                    "name": "D#4",
                    "midi": 63,
                    "time": 296.3312509999971,
                    "velocity": 0.2440944881889764,
                    "duration": 0.18894659999995156
                },
                {
                    "name": "E4",
                    "midi": 64,
                    "time": 296.4887064999971,
                    "velocity": 0.2440944881889764,
                    "duration": 0.1574554999999691
                },
                {
                    "name": "C#4",
                    "midi": 61,
                    "time": 296.64616199999705,
                    "velocity": 0.31496062992125984,
                    "duration": 0.1889466000000084
                },
                {
                    "name": "D#4",
                    "midi": 63,
                    "time": 296.8036174999971,
                    "velocity": 0.23622047244094488,
                    "duration": 0.18894659999995156
                },
                {
                    "name": "E4",
                    "midi": 64,
                    "time": 296.96107299999704,
                    "velocity": 0.23622047244094488,
                    "duration": 0.1574554999999691
                },
                {
                    "name": "A3",
                    "midi": 57,
                    "time": 297.118528499997,
                    "velocity": 0.31496062992125984,
                    "duration": 0.1889466000000084
                },
                {
                    "name": "D#4",
                    "midi": 63,
                    "time": 297.27598399999704,
                    "velocity": 0.28346456692913385,
                    "duration": 0.18894659999995156
                },
                {
                    "name": "E4",
                    "midi": 64,
                    "time": 297.433439499997,
                    "velocity": 0.28346456692913385,
                    "duration": 0.1574554999999691
                },
                {
                    "name": "G#3",
                    "midi": 56,
                    "time": 297.590894999997,
                    "velocity": 0.3464566929133858,
                    "duration": 0.1889466000000084
                },
                {
                    "name": "D#4",
                    "midi": 63,
                    "time": 297.748350499997,
                    "velocity": 0.25984251968503935,
                    "duration": 0.18894659999995156
                },
                {
                    "name": "E4",
                    "midi": 64,
                    "time": 297.90580599999697,
                    "velocity": 0.25984251968503935,
                    "duration": 0.1574554999999691
                },
                {
                    "name": "G#3",
                    "midi": 56,
                    "time": 298.06326149999694,
                    "velocity": 0.31496062992125984,
                    "duration": 0.1889466000000084
                },
                {
                    "name": "D#4",
                    "midi": 63,
                    "time": 298.22071699999697,
                    "velocity": 0.25984251968503935,
                    "duration": 0.18894659999995156
                },
                {
                    "name": "E4",
                    "midi": 64,
                    "time": 298.37817249999694,
                    "velocity": 0.25984251968503935,
                    "duration": 0.1574554999999691
                },
                {
                    "name": "A3",
                    "midi": 57,
                    "time": 298.5356279999969,
                    "velocity": 0.31496062992125984,
                    "duration": 0.1889466000000084
                },
                {
                    "name": "D#4",
                    "midi": 63,
                    "time": 298.69308349999693,
                    "velocity": 0.25984251968503935,
                    "duration": 0.18894659999995156
                },
                {
                    "name": "E4",
                    "midi": 64,
                    "time": 298.8505389999969,
                    "velocity": 0.25984251968503935,
                    "duration": 0.1574554999999691
                },
                {
                    "name": "B3",
                    "midi": 59,
                    "time": 299.00799449999687,
                    "velocity": 0.3543307086614173,
                    "duration": 0.1889466000000084
                },
                {
                    "name": "D#4",
                    "midi": 63,
                    "time": 299.1654499999969,
                    "velocity": 0.25984251968503935,
                    "duration": 0.18894659999995156
                },
                {
                    "name": "E4",
                    "midi": 64,
                    "time": 299.32290549999686,
                    "velocity": 0.25984251968503935,
                    "duration": 0.1574554999999691
                },
                {
                    "name": "B3",
                    "midi": 59,
                    "time": 299.48036099999683,
                    "velocity": 0.2992125984251969,
                    "duration": 0.1889466000000084
                },
                {
                    "name": "D#4",
                    "midi": 63,
                    "time": 299.63781649999686,
                    "velocity": 0.2283464566929134,
                    "duration": 0.18894659999995156
                },
                {
                    "name": "E4",
                    "midi": 64,
                    "time": 299.7952719999968,
                    "velocity": 0.2283464566929134,
                    "duration": 0.1574554999999691
                },
                {
                    "name": "G#3",
                    "midi": 56,
                    "time": 299.9527274999968,
                    "velocity": 0.31496062992125984,
                    "duration": 0.1889466000000084
                },
                {
                    "name": "D#4",
                    "midi": 63,
                    "time": 300.1101829999968,
                    "velocity": 0.2755905511811024,
                    "duration": 0.18894659999995156
                },
                {
                    "name": "E4",
                    "midi": 64,
                    "time": 300.2676384999968,
                    "velocity": 0.28346456692913385,
                    "duration": 0.1574554999999691
                },
                {
                    "name": "F#3",
                    "midi": 54,
                    "time": 300.42509399999676,
                    "velocity": 0.3464566929133858,
                    "duration": 0.1889466000000084
                },
                {
                    "name": "D#4",
                    "midi": 63,
                    "time": 300.5825494999968,
                    "velocity": 0.2677165354330709,
                    "duration": 0.18894659999995156
                },
                {
                    "name": "E4",
                    "midi": 64,
                    "time": 300.74000499999676,
                    "velocity": 0.2677165354330709,
                    "duration": 0.1574554999999691
                },
                {
                    "name": "F#3",
                    "midi": 54,
                    "time": 300.8974604999967,
                    "velocity": 0.31496062992125984,
                    "duration": 0.1889466000000084
                },
                {
                    "name": "D#4",
                    "midi": 63,
                    "time": 301.05491599999675,
                    "velocity": 0.25984251968503935,
                    "duration": 0.18894659999995156
                },
                {
                    "name": "E4",
                    "midi": 64,
                    "time": 301.2123714999967,
                    "velocity": 0.25984251968503935,
                    "duration": 0.1574554999999691
                },
                {
                    "name": "F#3",
                    "midi": 54,
                    "time": 301.3698269999967,
                    "velocity": 0.31496062992125984,
                    "duration": 0.1889466000000084
                },
                {
                    "name": "D4",
                    "midi": 62,
                    "time": 301.5272824999967,
                    "velocity": 0.25984251968503935,
                    "duration": 0.18894659999995156
                },
                {
                    "name": "E4",
                    "midi": 64,
                    "time": 301.6847379999967,
                    "velocity": 0.25984251968503935,
                    "duration": 0.1574554999999691
                },
                {
                    "name": "A3",
                    "midi": 57,
                    "time": 301.84219349999665,
                    "velocity": 0.3464566929133858,
                    "duration": 0.1889466000000084
                },
                {
                    "name": "C#4",
                    "midi": 61,
                    "time": 301.9996489999967,
                    "velocity": 0.2755905511811024,
                    "duration": 0.18894659999995156
                },
                {
                    "name": "E4",
                    "midi": 64,
                    "time": 302.15710449999665,
                    "velocity": 0.25984251968503935,
                    "duration": 0.1574554999999691
                },
                {
                    "name": "A3",
                    "midi": 57,
                    "time": 302.3145599999966,
                    "velocity": 0.31496062992125984,
                    "duration": 0.1889466000000084
                },
                {
                    "name": "C#4",
                    "midi": 61,
                    "time": 302.47201549999664,
                    "velocity": 0.25984251968503935,
                    "duration": 0.18894659999995156
                },
                {
                    "name": "E4",
                    "midi": 64,
                    "time": 302.6294709999966,
                    "velocity": 0.25984251968503935,
                    "duration": 0.1574554999999691
                },
                {
                    "name": "D3",
                    "midi": 50,
                    "time": 302.7869264999966,
                    "velocity": 0.31496062992125984,
                    "duration": 0.1889466000000084
                },
                {
                    "name": "F#3",
                    "midi": 54,
                    "time": 302.9443819999966,
                    "velocity": 0.2440944881889764,
                    "duration": 0.18894659999995156
                },
                {
                    "name": "B3",
                    "midi": 59,
                    "time": 303.1018374999966,
                    "velocity": 0.2440944881889764,
                    "duration": 0.1574554999999691
                },
                {
                    "name": "E3",
                    "midi": 52,
                    "time": 303.25929299999655,
                    "velocity": 0.3464566929133858,
                    "duration": 0.1889466000000084
                },
                {
                    "name": "A3",
                    "midi": 57,
                    "time": 303.4167484999966,
                    "velocity": 0.25984251968503935,
                    "duration": 0.18894659999995156
                },
                {
                    "name": "C#4",
                    "midi": 61,
                    "time": 303.57420399999654,
                    "velocity": 0.25984251968503935,
                    "duration": 0.1574554999999691
                },
                {
                    "name": "E3",
                    "midi": 52,
                    "time": 303.7316594999965,
                    "velocity": 0.31496062992125984,
                    "duration": 0.1889466000000084
                },
                {
                    "name": "A3",
                    "midi": 57,
                    "time": 303.88911499999654,
                    "velocity": 0.2755905511811024,
                    "duration": 0.18894659999995156
                },
                {
                    "name": "C#4",
                    "midi": 61,
                    "time": 304.0465704999965,
                    "velocity": 0.2755905511811024,
                    "duration": 0.1574554999999691
                },
                {
                    "name": "E3",
                    "midi": 52,
                    "time": 304.2040259999965,
                    "velocity": 0.31496062992125984,
                    "duration": 0.1889466000000084
                },
                {
                    "name": "G#3",
                    "midi": 56,
                    "time": 304.3614814999965,
                    "velocity": 0.2755905511811024,
                    "duration": 0.18894659999995156
                },
                {
                    "name": "D4",
                    "midi": 62,
                    "time": 304.51893699999647,
                    "velocity": 0.2755905511811024,
                    "duration": 0.1574554999999691
                },
                {
                    "name": "D4",
                    "midi": 62,
                    "time": 304.67639249999644,
                    "velocity": 0.31496062992125984,
                    "duration": 0.9447329999999852
                },
                {
                    "name": "E4",
                    "midi": 64,
                    "time": 304.67639249999644,
                    "velocity": 0.2677165354330709,
                    "duration": 1.4170995000000062
                },
                {
                    "name": "A3",
                    "midi": 57,
                    "time": 304.67639249999644,
                    "velocity": 0.2677165354330709,
                    "duration": 1.4170995000000062
                },
                {
                    "name": "C#4",
                    "midi": 61,
                    "time": 305.6211254999964,
                    "velocity": 0.3543307086614173,
                    "duration": 0.472366500000021
                },
                {
                    "name": "A2",
                    "midi": 45,
                    "time": 306.09349199999644,
                    "velocity": 0.5826771653543307,
                    "duration": 0.2361832500000105
                },
                {
                    "name": "G#3",
                    "midi": 56,
                    "time": 306.44776687499643,
                    "velocity": 0.4645669291338583,
                    "duration": 0.05904581250001684
                },
                {
                    "name": "A3",
                    "midi": 57,
                    "time": 306.56585849999647,
                    "velocity": 0.5354330708661418,
                    "duration": 0.2361832500000105
                },
                {
                    "name": "A#3",
                    "midi": 58,
                    "time": 306.92013337499645,
                    "velocity": 0.4881889763779528,
                    "duration": 0.11809162499997683
                },
                {
                    "name": "B3",
                    "midi": 59,
                    "time": 307.03822499999643,
                    "velocity": 0.5511811023622047,
                    "duration": 0.2361832500000105
                },
                {
                    "name": "E3",
                    "midi": 52,
                    "time": 307.51059149999645,
                    "velocity": 0.5826771653543307,
                    "duration": 0.2361832500000105
                },
                {
                    "name": "C4",
                    "midi": 60,
                    "time": 307.86486637499644,
                    "velocity": 0.49606299212598426,
                    "duration": 0.05904581250001684
                },
                {
                    "name": "C#4",
                    "midi": 61,
                    "time": 307.9829579999965,
                    "velocity": 0.5275590551181102,
                    "duration": 0.2361832500000105
                },
                {
                    "name": "C#4",
                    "midi": 61,
                    "time": 308.33723287499646,
                    "velocity": 0.49606299212598426,
                    "duration": 0.11809162499997683
                },
                {
                    "name": "D4",
                    "midi": 62,
                    "time": 308.45532449999644,
                    "velocity": 0.5433070866141733,
                    "duration": 0.2361832500000105
                },
                {
                    "name": "E2",
                    "midi": 40,
                    "time": 308.92769099999646,
                    "velocity": 0.5826771653543307,
                    "duration": 0.2361832500000105
                },
                {
                    "name": "D#3",
                    "midi": 51,
                    "time": 309.28196587499644,
                    "velocity": 0.4881889763779528,
                    "duration": 0.05904581250001684
                },
                {
                    "name": "E3",
                    "midi": 52,
                    "time": 309.4000574999965,
                    "velocity": 0.5275590551181102,
                    "duration": 0.2361832500000105
                },
                {
                    "name": "D#3",
                    "midi": 51,
                    "time": 309.75433237499647,
                    "velocity": 0.48031496062992124,
                    "duration": 0.11809162499997683
                },
                {
                    "name": "E3",
                    "midi": 52,
                    "time": 309.87242399999644,
                    "velocity": 0.5354330708661418,
                    "duration": 0.2361832500000105
                },
                {
                    "name": "A1",
                    "midi": 33,
                    "time": 310.34479049999646,
                    "velocity": 0.5826771653543307,
                    "duration": 0.2361832500000105
                },
                {
                    "name": "G#2",
                    "midi": 44,
                    "time": 310.69906537499645,
                    "velocity": 0.48031496062992124,
                    "duration": 0.05904581250001684
                },
                {
                    "name": "A2",
                    "midi": 45,
                    "time": 310.8171569999965,
                    "velocity": 0.5275590551181102,
                    "duration": 0.2361832500000105
                },
                {
                    "name": "A3",
                    "midi": 57,
                    "time": 314.5960889999965,
                    "velocity": 0.33858267716535434,
                    "duration": 0.2361832500000105
                },
                {
                    "name": "E4",
                    "midi": 64,
                    "time": 314.8322722499965,
                    "velocity": 0.2677165354330709,
                    "duration": 0.2361832500000105
                },
                {
                    "name": "C4",
                    "midi": 60,
                    "time": 315.0684554999965,
                    "velocity": 0.31496062992125984,
                    "duration": 0.2361832500000105
                },
                {
                    "name": "E4",
                    "midi": 64,
                    "time": 315.3046387499965,
                    "velocity": 0.2755905511811024,
                    "duration": 0.2361832500000105
                },
                {
                    "name": "A3",
                    "midi": 57,
                    "time": 315.5408219999965,
                    "velocity": 0.3228346456692913,
                    "duration": 0.2361832500000105
                },
                {
                    "name": "E4",
                    "midi": 64,
                    "time": 315.77700524999653,
                    "velocity": 0.2677165354330709,
                    "duration": 0.2361832500000105
                },
                {
                    "name": "A3",
                    "midi": 57,
                    "time": 316.01318849999655,
                    "velocity": 0.33070866141732286,
                    "duration": 0.2361832500000105
                },
                {
                    "name": "E4",
                    "midi": 64,
                    "time": 316.24937174999656,
                    "velocity": 0.28346456692913385,
                    "duration": 0.2361832500000105
                },
                {
                    "name": "C4",
                    "midi": 60,
                    "time": 316.48555499999657,
                    "velocity": 0.3228346456692913,
                    "duration": 0.2361832500000105
                },
                {
                    "name": "E4",
                    "midi": 64,
                    "time": 316.7217382499966,
                    "velocity": 0.28346456692913385,
                    "duration": 0.2361832500000105
                },
                {
                    "name": "A3",
                    "midi": 57,
                    "time": 316.9579214999966,
                    "velocity": 0.3228346456692913,
                    "duration": 0.2361832500000105
                },
                {
                    "name": "E4",
                    "midi": 64,
                    "time": 317.1941047499966,
                    "velocity": 0.28346456692913385,
                    "duration": 0.2361832500000105
                },
                {
                    "name": "E3",
                    "midi": 52,
                    "time": 317.4302879999966,
                    "velocity": 0.33858267716535434,
                    "duration": 0.2361832500000105
                },
                {
                    "name": "E4",
                    "midi": 64,
                    "time": 317.6664712499966,
                    "velocity": 0.2677165354330709,
                    "duration": 0.2361832500000105
                },
                {
                    "name": "B3",
                    "midi": 59,
                    "time": 317.90265449999663,
                    "velocity": 0.31496062992125984,
                    "duration": 0.2361832500000105
                },
                {
                    "name": "E4",
                    "midi": 64,
                    "time": 318.13883774999664,
                    "velocity": 0.2755905511811024,
                    "duration": 0.2361832500000105
                },
                {
                    "name": "E3",
                    "midi": 52,
                    "time": 318.37502099999665,
                    "velocity": 0.3228346456692913,
                    "duration": 0.2361832500000105
                },
                {
                    "name": "E4",
                    "midi": 64,
                    "time": 318.61120424999666,
                    "velocity": 0.2677165354330709,
                    "duration": 0.2361832500000105
                },
                {
                    "name": "E3",
                    "midi": 52,
                    "time": 318.84738749999667,
                    "velocity": 0.33070866141732286,
                    "duration": 0.2361832500000105
                },
                {
                    "name": "E4",
                    "midi": 64,
                    "time": 319.0835707499967,
                    "velocity": 0.28346456692913385,
                    "duration": 0.2361832500000105
                },
                {
                    "name": "B3",
                    "midi": 59,
                    "time": 319.3197539999967,
                    "velocity": 0.3228346456692913,
                    "duration": 0.2361832500000105
                },
                {
                    "name": "E4",
                    "midi": 64,
                    "time": 319.5559372499967,
                    "velocity": 0.28346456692913385,
                    "duration": 0.2361832500000105
                },
                {
                    "name": "E3",
                    "midi": 52,
                    "time": 319.7921204999967,
                    "velocity": 0.3228346456692913,
                    "duration": 0.2361832500000105
                },
                {
                    "name": "E4",
                    "midi": 64,
                    "time": 320.0283037499967,
                    "velocity": 0.28346456692913385,
                    "duration": 0.2361832500000105
                },
                {
                    "name": "A3",
                    "midi": 57,
                    "time": 320.26448699999673,
                    "velocity": 0.33858267716535434,
                    "duration": 0.2361832500000105
                },
                {
                    "name": "E4",
                    "midi": 64,
                    "time": 320.50067024999674,
                    "velocity": 0.2677165354330709,
                    "duration": 0.2361832500000105
                },
                {
                    "name": "C4",
                    "midi": 60,
                    "time": 320.73685349999676,
                    "velocity": 0.31496062992125984,
                    "duration": 0.2361832500000105
                },
                {
                    "name": "E4",
                    "midi": 64,
                    "time": 320.97303674999677,
                    "velocity": 0.2755905511811024,
                    "duration": 0.2361832500000105
                },
                {
                    "name": "A3",
                    "midi": 57,
                    "time": 321.2092199999968,
                    "velocity": 0.3228346456692913,
                    "duration": 0.2361832500000105
                },
                {
                    "name": "E4",
                    "midi": 64,
                    "time": 321.4454032499968,
                    "velocity": 0.2677165354330709,
                    "duration": 0.2361832500000105
                },
                {
                    "name": "B3",
                    "midi": 59,
                    "time": 321.6815864999968,
                    "velocity": 0.33070866141732286,
                    "duration": 0.2361832500000105
                },
                {
                    "name": "E4",
                    "midi": 64,
                    "time": 321.9177697499968,
                    "velocity": 0.28346456692913385,
                    "duration": 0.2361832500000105
                },
                {
                    "name": "D4",
                    "midi": 62,
                    "time": 322.1539529999968,
                    "velocity": 0.3228346456692913,
                    "duration": 0.2361832500000105
                },
                {
                    "name": "E4",
                    "midi": 64,
                    "time": 322.39013624999683,
                    "velocity": 0.28346456692913385,
                    "duration": 0.2361832500000105
                },
                {
                    "name": "B3",
                    "midi": 59,
                    "time": 322.62631949999684,
                    "velocity": 0.3228346456692913,
                    "duration": 0.2361832500000105
                },
                {
                    "name": "E4",
                    "midi": 64,
                    "time": 322.86250274999685,
                    "velocity": 0.28346456692913385,
                    "duration": 0.2361832500000105
                },
                {
                    "name": "C4",
                    "midi": 60,
                    "time": 323.09868599999686,
                    "velocity": 0.33858267716535434,
                    "duration": 0.2361832500000105
                },
                {
                    "name": "E4",
                    "midi": 64,
                    "time": 323.33486924999687,
                    "velocity": 0.2677165354330709,
                    "duration": 0.2361832500000105
                },
                {
                    "name": "B3",
                    "midi": 59,
                    "time": 323.5710524999969,
                    "velocity": 0.31496062992125984,
                    "duration": 0.2361832500000105
                },
                {
                    "name": "E4",
                    "midi": 64,
                    "time": 323.8072357499969,
                    "velocity": 0.2755905511811024,
                    "duration": 0.2361832500000105
                },
                {
                    "name": "A3",
                    "midi": 57,
                    "time": 324.0434189999969,
                    "velocity": 0.3228346456692913,
                    "duration": 0.2361832500000105
                },
                {
                    "name": "E4",
                    "midi": 64,
                    "time": 324.2796022499969,
                    "velocity": 0.2677165354330709,
                    "duration": 0.2361832500000105
                },
                {
                    "name": "E3",
                    "midi": 52,
                    "time": 324.5157854999969,
                    "velocity": 0.33070866141732286,
                    "duration": 0.2361832500000105
                },
                {
                    "name": "E4",
                    "midi": 64,
                    "time": 324.75196874999693,
                    "velocity": 0.28346456692913385,
                    "duration": 0.2361832500000105
                },
                {
                    "name": "D#4",
                    "midi": 63,
                    "time": 324.98815199999694,
                    "velocity": 0.3228346456692913,
                    "duration": 0.2361832500000105
                },
                {
                    "name": "E4",
                    "midi": 64,
                    "time": 325.22433524999695,
                    "velocity": 0.28346456692913385,
                    "duration": 0.2361832500000105
                },
                {
                    "name": "E3",
                    "midi": 52,
                    "time": 325.46051849999697,
                    "velocity": 0.3228346456692913,
                    "duration": 0.2361832500000105
                },
                {
                    "name": "E4",
                    "midi": 64,
                    "time": 325.696701749997,
                    "velocity": 0.28346456692913385,
                    "duration": 0.2361832500000105
                },
                {
                    "name": "A3",
                    "midi": 57,
                    "time": 325.932884999997,
                    "velocity": 0.3228346456692913,
                    "duration": 0.2361832500000105
                },
                {
                    "name": "E4",
                    "midi": 64,
                    "time": 326.169068249997,
                    "velocity": 0.25984251968503935,
                    "duration": 0.2361832500000105
                },
                {
                    "name": "C4",
                    "midi": 60,
                    "time": 326.405251499997,
                    "velocity": 0.30708661417322836,
                    "duration": 0.2361832500000105
                },
                {
                    "name": "E4",
                    "midi": 64,
                    "time": 326.641434749997,
                    "velocity": 0.28346456692913385,
                    "duration": 0.2361832500000105
                },
                {
                    "name": "A3",
                    "midi": 57,
                    "time": 326.877617999997,
                    "velocity": 0.33858267716535434,
                    "duration": 0.2361832500000105
                },
                {
                    "name": "E4",
                    "midi": 64,
                    "time": 327.11380124999704,
                    "velocity": 0.28346456692913385,
                    "duration": 0.2361832500000105
                },
                {
                    "name": "A3",
                    "midi": 57,
                    "time": 327.34998449999705,
                    "velocity": 0.36220472440944884,
                    "duration": 0.2361832500000105
                },
                {
                    "name": "E4",
                    "midi": 64,
                    "time": 327.58616774999706,
                    "velocity": 0.30708661417322836,
                    "duration": 0.2361832500000105
                },
                {
                    "name": "C4",
                    "midi": 60,
                    "time": 327.82235099999707,
                    "velocity": 0.36220472440944884,
                    "duration": 0.2361832500000105
                },
                {
                    "name": "E4",
                    "midi": 64,
                    "time": 328.0585342499971,
                    "velocity": 0.31496062992125984,
                    "duration": 0.2361832500000105
                },
                {
                    "name": "A3",
                    "midi": 57,
                    "time": 328.2947174999971,
                    "velocity": 0.36220472440944884,
                    "duration": 0.2361832500000105
                },
                {
                    "name": "E4",
                    "midi": 64,
                    "time": 328.5309007499971,
                    "velocity": 0.31496062992125984,
                    "duration": 0.2361832500000105
                },
                {
                    "name": "E3",
                    "midi": 52,
                    "time": 328.7670839999971,
                    "velocity": 0.3858267716535433,
                    "duration": 0.2361832500000105
                },
                {
                    "name": "E4",
                    "midi": 64,
                    "time": 329.0032672499971,
                    "velocity": 0.30708661417322836,
                    "duration": 0.2361832500000105
                },
                {
                    "name": "B3",
                    "midi": 59,
                    "time": 329.23945049999713,
                    "velocity": 0.36220472440944884,
                    "duration": 0.2361832500000105
                },
                {
                    "name": "E4",
                    "midi": 64,
                    "time": 329.47563374999714,
                    "velocity": 0.31496062992125984,
                    "duration": 0.2361832500000105
                },
                {
                    "name": "E3",
                    "midi": 52,
                    "time": 329.71181699999715,
                    "velocity": 0.3700787401574803,
                    "duration": 0.2361832500000105
                },
                {
                    "name": "E4",
                    "midi": 64,
                    "time": 329.94800024999716,
                    "velocity": 0.30708661417322836,
                    "duration": 0.2361832500000105
                },
                {
                    "name": "E3",
                    "midi": 52,
                    "time": 330.1841834999972,
                    "velocity": 0.3779527559055118,
                    "duration": 0.2361832500000105
                },
                {
                    "name": "E4",
                    "midi": 64,
                    "time": 330.4203667499972,
                    "velocity": 0.3228346456692913,
                    "duration": 0.2361832500000105
                },
                {
                    "name": "B3",
                    "midi": 59,
                    "time": 330.6565499999972,
                    "velocity": 0.3700787401574803,
                    "duration": 0.2361832500000105
                },
                {
                    "name": "E4",
                    "midi": 64,
                    "time": 330.8927332499972,
                    "velocity": 0.3228346456692913,
                    "duration": 0.2361832500000105
                },
                {
                    "name": "E3",
                    "midi": 52,
                    "time": 331.1289164999972,
                    "velocity": 0.3700787401574803,
                    "duration": 0.2361832500000105
                },
                {
                    "name": "E4",
                    "midi": 64,
                    "time": 331.3650997499972,
                    "velocity": 0.3228346456692913,
                    "duration": 0.2361832500000105
                },
                {
                    "name": "A3",
                    "midi": 57,
                    "time": 331.60128299999724,
                    "velocity": 0.3858267716535433,
                    "duration": 0.2361832500000105
                },
                {
                    "name": "E4",
                    "midi": 64,
                    "time": 331.83746624999725,
                    "velocity": 0.30708661417322836,
                    "duration": 0.2361832500000105
                },
                {
                    "name": "C4",
                    "midi": 60,
                    "time": 332.07364949999726,
                    "velocity": 0.36220472440944884,
                    "duration": 0.2361832500000105
                },
                {
                    "name": "E4",
                    "midi": 64,
                    "time": 332.30983274999727,
                    "velocity": 0.31496062992125984,
                    "duration": 0.2361832500000105
                },
                {
                    "name": "G#3",
                    "midi": 56,
                    "time": 332.5460159999973,
                    "velocity": 0.3700787401574803,
                    "duration": 0.2361832500000105
                },
                {
                    "name": "E4",
                    "midi": 64,
                    "time": 332.7821992499973,
                    "velocity": 0.30708661417322836,
                    "duration": 0.2361832500000105
                },
                {
                    "name": "A3",
                    "midi": 57,
                    "time": 333.0183824999973,
                    "velocity": 0.3779527559055118,
                    "duration": 0.2361832500000105
                },
                {
                    "name": "E4",
                    "midi": 64,
                    "time": 333.2545657499973,
                    "velocity": 0.3228346456692913,
                    "duration": 0.2361832500000105
                },
                {
                    "name": "C4",
                    "midi": 60,
                    "time": 333.4907489999973,
                    "velocity": 0.3700787401574803,
                    "duration": 0.2361832500000105
                },
                {
                    "name": "E4",
                    "midi": 64,
                    "time": 333.72693224999733,
                    "velocity": 0.3228346456692913,
                    "duration": 0.2361832500000105
                },
                {
                    "name": "F3",
                    "midi": 53,
                    "time": 333.96311549999734,
                    "velocity": 0.3700787401574803,
                    "duration": 0.2361832500000105
                },
                {
                    "name": "D4",
                    "midi": 62,
                    "time": 334.19929874999735,
                    "velocity": 0.3228346456692913,
                    "duration": 0.2361832500000105
                },
                {
                    "name": "E3",
                    "midi": 52,
                    "time": 334.43548199999736,
                    "velocity": 0.3858267716535433,
                    "duration": 0.2361832500000105
                },
                {
                    "name": "C4",
                    "midi": 60,
                    "time": 334.6716652499974,
                    "velocity": 0.30708661417322836,
                    "duration": 0.2361832500000105
                },
                {
                    "name": "A3",
                    "midi": 57,
                    "time": 334.9078484999974,
                    "velocity": 0.36220472440944884,
                    "duration": 0.2361832500000105
                },
                {
                    "name": "C4",
                    "midi": 60,
                    "time": 335.1440317499974,
                    "velocity": 0.31496062992125984,
                    "duration": 0.2361832500000105
                },
                {
                    "name": "E3",
                    "midi": 52,
                    "time": 335.3802149999974,
                    "velocity": 0.3700787401574803,
                    "duration": 0.2361832500000105
                },
                {
                    "name": "B3",
                    "midi": 59,
                    "time": 335.6163982499974,
                    "velocity": 0.30708661417322836,
                    "duration": 0.2361832500000105
                },
                {
                    "name": "A2",
                    "midi": 45,
                    "time": 335.8525814999974,
                    "velocity": 0.4251968503937008,
                    "duration": 0.05904581250001684
                },
                {
                    "name": "C3",
                    "midi": 48,
                    "time": 336.08876474999744,
                    "velocity": 0.4094488188976378,
                    "duration": 0.05904581250001684
                },
                {
                    "name": "E3",
                    "midi": 52,
                    "time": 336.32494799999745,
                    "velocity": 0.44881889763779526,
                    "duration": 0.05904581250001684
                },
                {
                    "name": "A3",
                    "midi": 57,
                    "time": 336.56113124999746,
                    "velocity": 0.4251968503937008,
                    "duration": 0.05904581250001684
                },
                {
                    "name": "A2",
                    "midi": 45,
                    "time": 336.79731449999747,
                    "velocity": 0.47244094488188976,
                    "duration": 0.11809162499997683
                },
                {
                    "name": "A3",
                    "midi": 57,
                    "time": 337.26968099999743,
                    "velocity": 0.33858267716535434,
                    "duration": 0.2361832500000105
                },
                {
                    "name": "E4",
                    "midi": 64,
                    "time": 337.50586424999744,
                    "velocity": 0.2677165354330709,
                    "duration": 0.2361832500000105
                },
                {
                    "name": "C4",
                    "midi": 60,
                    "time": 337.74204749999745,
                    "velocity": 0.31496062992125984,
                    "duration": 0.2361832500000105
                },
                {
                    "name": "E4",
                    "midi": 64,
                    "time": 337.97823074999746,
                    "velocity": 0.2755905511811024,
                    "duration": 0.2361832500000105
                },
                {
                    "name": "A3",
                    "midi": 57,
                    "time": 338.2144139999975,
                    "velocity": 0.3228346456692913,
                    "duration": 0.2361832500000105
                },
                {
                    "name": "E4",
                    "midi": 64,
                    "time": 338.4505972499975,
                    "velocity": 0.2677165354330709,
                    "duration": 0.2361832500000105
                },
                {
                    "name": "A3",
                    "midi": 57,
                    "time": 338.6867804999975,
                    "velocity": 0.33070866141732286,
                    "duration": 0.2361832500000105
                },
                {
                    "name": "E4",
                    "midi": 64,
                    "time": 338.9229637499975,
                    "velocity": 0.28346456692913385,
                    "duration": 0.2361832500000105
                },
                {
                    "name": "C4",
                    "midi": 60,
                    "time": 339.1591469999975,
                    "velocity": 0.3228346456692913,
                    "duration": 0.2361832500000105
                },
                {
                    "name": "E4",
                    "midi": 64,
                    "time": 339.3953302499975,
                    "velocity": 0.28346456692913385,
                    "duration": 0.2361832500000105
                },
                {
                    "name": "A3",
                    "midi": 57,
                    "time": 339.63151349999754,
                    "velocity": 0.3228346456692913,
                    "duration": 0.2361832500000105
                },
                {
                    "name": "E4",
                    "midi": 64,
                    "time": 339.86769674999755,
                    "velocity": 0.28346456692913385,
                    "duration": 0.2361832500000105
                },
                {
                    "name": "E3",
                    "midi": 52,
                    "time": 340.10387999999756,
                    "velocity": 0.33858267716535434,
                    "duration": 0.2361832500000105
                },
                {
                    "name": "E4",
                    "midi": 64,
                    "time": 340.34006324999757,
                    "velocity": 0.2677165354330709,
                    "duration": 0.2361832500000105
                },
                {
                    "name": "B3",
                    "midi": 59,
                    "time": 340.5762464999976,
                    "velocity": 0.31496062992125984,
                    "duration": 0.2361832500000105
                },
                {
                    "name": "E4",
                    "midi": 64,
                    "time": 340.8124297499976,
                    "velocity": 0.2755905511811024,
                    "duration": 0.2361832500000105
                },
                {
                    "name": "E3",
                    "midi": 52,
                    "time": 341.0486129999976,
                    "velocity": 0.3228346456692913,
                    "duration": 0.2361832500000105
                },
                {
                    "name": "E4",
                    "midi": 64,
                    "time": 341.2847962499976,
                    "velocity": 0.2677165354330709,
                    "duration": 0.2361832500000105
                },
                {
                    "name": "E3",
                    "midi": 52,
                    "time": 341.5209794999976,
                    "velocity": 0.33070866141732286,
                    "duration": 0.2361832500000105
                },
                {
                    "name": "E4",
                    "midi": 64,
                    "time": 341.75716274999763,
                    "velocity": 0.28346456692913385,
                    "duration": 0.2361832500000105
                },
                {
                    "name": "B3",
                    "midi": 59,
                    "time": 341.99334599999764,
                    "velocity": 0.3228346456692913,
                    "duration": 0.2361832500000105
                },
                {
                    "name": "E4",
                    "midi": 64,
                    "time": 342.22952924999765,
                    "velocity": 0.28346456692913385,
                    "duration": 0.2361832500000105
                },
                {
                    "name": "E3",
                    "midi": 52,
                    "time": 342.46571249999766,
                    "velocity": 0.3228346456692913,
                    "duration": 0.2361832500000105
                },
                {
                    "name": "E4",
                    "midi": 64,
                    "time": 342.7018957499977,
                    "velocity": 0.28346456692913385,
                    "duration": 0.2361832500000105
                },
                {
                    "name": "A3",
                    "midi": 57,
                    "time": 342.9380789999977,
                    "velocity": 0.33858267716535434,
                    "duration": 0.2361832500000105
                },
                {
                    "name": "E4",
                    "midi": 64,
                    "time": 343.1742622499977,
                    "velocity": 0.2677165354330709,
                    "duration": 0.2361832500000105
                },
                {
                    "name": "C4",
                    "midi": 60,
                    "time": 343.4104454999977,
                    "velocity": 0.31496062992125984,
                    "duration": 0.2361832500000105
                },
                {
                    "name": "E4",
                    "midi": 64,
                    "time": 343.6466287499977,
                    "velocity": 0.2755905511811024,
                    "duration": 0.2361832500000105
                },
                {
                    "name": "A3",
                    "midi": 57,
                    "time": 343.8828119999977,
                    "velocity": 0.3228346456692913,
                    "duration": 0.2361832500000105
                },
                {
                    "name": "E4",
                    "midi": 64,
                    "time": 344.11899524999774,
                    "velocity": 0.2677165354330709,
                    "duration": 0.2361832500000105
                },
                {
                    "name": "B3",
                    "midi": 59,
                    "time": 344.35517849999775,
                    "velocity": 0.33070866141732286,
                    "duration": 0.2361832500000105
                },
                {
                    "name": "E4",
                    "midi": 64,
                    "time": 344.59136174999776,
                    "velocity": 0.28346456692913385,
                    "duration": 0.2361832500000105
                },
                {
                    "name": "D4",
                    "midi": 62,
                    "time": 344.82754499999777,
                    "velocity": 0.3228346456692913,
                    "duration": 0.2361832500000105
                },
                {
                    "name": "E4",
                    "midi": 64,
                    "time": 345.0637282499978,
                    "velocity": 0.28346456692913385,
                    "duration": 0.2361832500000105
                },
                {
                    "name": "B3",
                    "midi": 59,
                    "time": 345.2999114999978,
                    "velocity": 0.3228346456692913,
                    "duration": 0.2361832500000105
                },
                {
                    "name": "E4",
                    "midi": 64,
                    "time": 345.5360947499978,
                    "velocity": 0.28346456692913385,
                    "duration": 0.2361832500000105
                },
                {
                    "name": "C4",
                    "midi": 60,
                    "time": 345.7722779999978,
                    "velocity": 0.33858267716535434,
                    "duration": 0.2361832500000105
                },
                {
                    "name": "E4",
                    "midi": 64,
                    "time": 346.0084612499978,
                    "velocity": 0.2677165354330709,
                    "duration": 0.2361832500000105
                },
                {
                    "name": "B3",
                    "midi": 59,
                    "time": 346.24464449999783,
                    "velocity": 0.31496062992125984,
                    "duration": 0.2361832500000105
                },
                {
                    "name": "E4",
                    "midi": 64,
                    "time": 346.48082774999784,
                    "velocity": 0.2755905511811024,
                    "duration": 0.2361832500000105
                },
                {
                    "name": "A3",
                    "midi": 57,
                    "time": 346.71701099999785,
                    "velocity": 0.3228346456692913,
                    "duration": 0.2361832500000105
                },
                {
                    "name": "E4",
                    "midi": 64,
                    "time": 346.95319424999786,
                    "velocity": 0.2677165354330709,
                    "duration": 0.2361832500000105
                },
                {
                    "name": "E3",
                    "midi": 52,
                    "time": 347.1893774999979,
                    "velocity": 0.33070866141732286,
                    "duration": 0.2361832500000105
                },
                {
                    "name": "E4",
                    "midi": 64,
                    "time": 347.4255607499979,
                    "velocity": 0.28346456692913385,
                    "duration": 0.2361832500000105
                },
                {
                    "name": "D#4",
                    "midi": 63,
                    "time": 347.6617439999979,
                    "velocity": 0.3228346456692913,
                    "duration": 0.2361832500000105
                },
                {
                    "name": "E4",
                    "midi": 64,
                    "time": 347.8979272499979,
                    "velocity": 0.28346456692913385,
                    "duration": 0.2361832500000105
                },
                {
                    "name": "E3",
                    "midi": 52,
                    "time": 348.1341104999979,
                    "velocity": 0.3228346456692913,
                    "duration": 0.2361832500000105
                },
                {
                    "name": "E4",
                    "midi": 64,
                    "time": 348.3702937499979,
                    "velocity": 0.28346456692913385,
                    "duration": 0.2361832500000105
                },
                {
                    "name": "A3",
                    "midi": 57,
                    "time": 348.60647699999794,
                    "velocity": 0.3228346456692913,
                    "duration": 0.2361832500000105
                },
                {
                    "name": "E4",
                    "midi": 64,
                    "time": 348.84266024999795,
                    "velocity": 0.25984251968503935,
                    "duration": 0.2361832500000105
                },
                {
                    "name": "C4",
                    "midi": 60,
                    "time": 349.07884349999796,
                    "velocity": 0.30708661417322836,
                    "duration": 0.2361832500000105
                },
                {
                    "name": "E4",
                    "midi": 64,
                    "time": 349.31502674999797,
                    "velocity": 0.28346456692913385,
                    "duration": 0.2361832500000105
                },
                {
                    "name": "A3",
                    "midi": 57,
                    "time": 349.551209999998,
                    "velocity": 0.33858267716535434,
                    "duration": 0.2361832500000105
                },
                {
                    "name": "E4",
                    "midi": 64,
                    "time": 349.787393249998,
                    "velocity": 0.28346456692913385,
                    "duration": 0.2361832500000105
                },
                {
                    "name": "A3",
                    "midi": 57,
                    "time": 350.023576499998,
                    "velocity": 0.36220472440944884,
                    "duration": 0.2361832500000105
                },
                {
                    "name": "E4",
                    "midi": 64,
                    "time": 350.259759749998,
                    "velocity": 0.30708661417322836,
                    "duration": 0.2361832500000105
                },
                {
                    "name": "C4",
                    "midi": 60,
                    "time": 350.495942999998,
                    "velocity": 0.36220472440944884,
                    "duration": 0.2361832500000105
                },
                {
                    "name": "E4",
                    "midi": 64,
                    "time": 350.73212624999803,
                    "velocity": 0.31496062992125984,
                    "duration": 0.2361832500000105
                },
                {
                    "name": "A3",
                    "midi": 57,
                    "time": 350.96830949999804,
                    "velocity": 0.36220472440944884,
                    "duration": 0.2361832500000105
                },
                {
                    "name": "E4",
                    "midi": 64,
                    "time": 351.20449274999805,
                    "velocity": 0.31496062992125984,
                    "duration": 0.2361832500000105
                },
                {
                    "name": "E3",
                    "midi": 52,
                    "time": 351.44067599999806,
                    "velocity": 0.3858267716535433,
                    "duration": 0.2361832500000105
                },
                {
                    "name": "E4",
                    "midi": 64,
                    "time": 351.6768592499981,
                    "velocity": 0.30708661417322836,
                    "duration": 0.2361832500000105
                },
                {
                    "name": "B3",
                    "midi": 59,
                    "time": 351.9130424999981,
                    "velocity": 0.36220472440944884,
                    "duration": 0.2361832500000105
                },
                {
                    "name": "E4",
                    "midi": 64,
                    "time": 352.1492257499981,
                    "velocity": 0.31496062992125984,
                    "duration": 0.2361832500000105
                },
                {
                    "name": "E3",
                    "midi": 52,
                    "time": 352.3854089999981,
                    "velocity": 0.3700787401574803,
                    "duration": 0.2361832500000105
                },
                {
                    "name": "E4",
                    "midi": 64,
                    "time": 352.6215922499981,
                    "velocity": 0.30708661417322836,
                    "duration": 0.2361832500000105
                },
                {
                    "name": "E3",
                    "midi": 52,
                    "time": 352.8577754999981,
                    "velocity": 0.3779527559055118,
                    "duration": 0.2361832500000105
                },
                {
                    "name": "E4",
                    "midi": 64,
                    "time": 353.09395874999814,
                    "velocity": 0.3228346456692913,
                    "duration": 0.2361832500000105
                },
                {
                    "name": "B3",
                    "midi": 59,
                    "time": 353.33014199999815,
                    "velocity": 0.3700787401574803,
                    "duration": 0.2361832500000105
                },
                {
                    "name": "E4",
                    "midi": 64,
                    "time": 353.56632524999816,
                    "velocity": 0.3228346456692913,
                    "duration": 0.2361832500000105
                },
                {
                    "name": "E3",
                    "midi": 52,
                    "time": 353.80250849999817,
                    "velocity": 0.3700787401574803,
                    "duration": 0.2361832500000105
                },
                {
                    "name": "E4",
                    "midi": 64,
                    "time": 354.0386917499982,
                    "velocity": 0.3228346456692913,
                    "duration": 0.2361832500000105
                },
                {
                    "name": "A3",
                    "midi": 57,
                    "time": 354.2748749999982,
                    "velocity": 0.3858267716535433,
                    "duration": 0.2361832500000105
                },
                {
                    "name": "E4",
                    "midi": 64,
                    "time": 354.5110582499982,
                    "velocity": 0.30708661417322836,
                    "duration": 0.2361832500000105
                },
                {
                    "name": "C4",
                    "midi": 60,
                    "time": 354.7472414999982,
                    "velocity": 0.36220472440944884,
                    "duration": 0.2361832500000105
                },
                {
                    "name": "E4",
                    "midi": 64,
                    "time": 354.9834247499982,
                    "velocity": 0.31496062992125984,
                    "duration": 0.2361832500000105
                },
                {
                    "name": "G#3",
                    "midi": 56,
                    "time": 355.21960799999823,
                    "velocity": 0.3700787401574803,
                    "duration": 0.2361832500000105
                },
                {
                    "name": "E4",
                    "midi": 64,
                    "time": 355.45579124999824,
                    "velocity": 0.30708661417322836,
                    "duration": 0.2361832500000105
                },
                {
                    "name": "A3",
                    "midi": 57,
                    "time": 355.69197449999825,
                    "velocity": 0.3779527559055118,
                    "duration": 0.2361832500000105
                },
                {
                    "name": "E4",
                    "midi": 64,
                    "time": 355.92815774999826,
                    "velocity": 0.3228346456692913,
                    "duration": 0.2361832500000105
                },
                {
                    "name": "C4",
                    "midi": 60,
                    "time": 356.1643409999983,
                    "velocity": 0.3700787401574803,
                    "duration": 0.2361832500000105
                },
                {
                    "name": "E4",
                    "midi": 64,
                    "time": 356.4005242499983,
                    "velocity": 0.3228346456692913,
                    "duration": 0.2361832500000105
                },
                {
                    "name": "F3",
                    "midi": 53,
                    "time": 356.6367074999983,
                    "velocity": 0.3700787401574803,
                    "duration": 0.2361832500000105
                },
                {
                    "name": "D4",
                    "midi": 62,
                    "time": 356.8728907499983,
                    "velocity": 0.3228346456692913,
                    "duration": 0.2361832500000105
                },
                {
                    "name": "E3",
                    "midi": 52,
                    "time": 357.1090739999983,
                    "velocity": 0.3858267716535433,
                    "duration": 0.2361832500000105
                },
                {
                    "name": "C4",
                    "midi": 60,
                    "time": 357.3452572499983,
                    "velocity": 0.30708661417322836,
                    "duration": 0.2361832500000105
                },
                {
                    "name": "A3",
                    "midi": 57,
                    "time": 357.58144049999834,
                    "velocity": 0.36220472440944884,
                    "duration": 0.2361832500000105
                },
                {
                    "name": "C4",
                    "midi": 60,
                    "time": 357.81762374999835,
                    "velocity": 0.31496062992125984,
                    "duration": 0.2361832500000105
                },
                {
                    "name": "E3",
                    "midi": 52,
                    "time": 358.05380699999836,
                    "velocity": 0.3700787401574803,
                    "duration": 0.2361832500000105
                },
                {
                    "name": "B3",
                    "midi": 59,
                    "time": 358.28999024999837,
                    "velocity": 0.30708661417322836,
                    "duration": 0.2361832500000105
                },
                {
                    "name": "A2",
                    "midi": 45,
                    "time": 358.5261734999984,
                    "velocity": 0.4251968503937008,
                    "duration": 0.05904581250001684
                },
                {
                    "name": "C3",
                    "midi": 48,
                    "time": 358.7623567499984,
                    "velocity": 0.4094488188976378,
                    "duration": 0.05904581250001684
                },
                {
                    "name": "E3",
                    "midi": 52,
                    "time": 358.9985399999984,
                    "velocity": 0.44881889763779526,
                    "duration": 0.05904581250001684
                },
                {
                    "name": "A3",
                    "midi": 57,
                    "time": 359.2347232499984,
                    "velocity": 0.4251968503937008,
                    "duration": 0.05904581250001684
                },
                {
                    "name": "A2",
                    "midi": 45,
                    "time": 359.4709064999984,
                    "velocity": 0.47244094488188976,
                    "duration": 0.11809162499997683
                },
                {
                    "name": "A3",
                    "midi": 57,
                    "time": 359.9432729999984,
                    "velocity": 0.29133858267716534,
                    "duration": 1.4170995000000062
                },
                {
                    "name": "C4",
                    "midi": 60,
                    "time": 359.9432729999984,
                    "velocity": 0.3464566929133858,
                    "duration": 0.9447329999999852
                },
                {
                    "name": "C#4",
                    "midi": 61,
                    "time": 360.88800599999837,
                    "velocity": 0.3464566929133858,
                    "duration": 0.472366500000021
                },
                {
                    "name": "A3",
                    "midi": 57,
                    "time": 361.3603724999984,
                    "velocity": 0.29133858267716534,
                    "duration": 1.4170995000000062
                },
                {
                    "name": "D4",
                    "midi": 62,
                    "time": 361.3603724999984,
                    "velocity": 0.3464566929133858,
                    "duration": 1.4170995000000062
                },
                {
                    "name": "A3",
                    "midi": 57,
                    "time": 362.7774719999984,
                    "velocity": 0.2677165354330709,
                    "duration": 1.4170995000000062
                },
                {
                    "name": "F4",
                    "midi": 65,
                    "time": 362.7774719999984,
                    "velocity": 0.3228346456692913,
                    "duration": 0.2361832500000105
                },
                {
                    "name": "E4",
                    "midi": 64,
                    "time": 363.0136552499984,
                    "velocity": 0.30708661417322836,
                    "duration": 0.2361832500000105
                },
                {
                    "name": "F4",
                    "midi": 65,
                    "time": 363.2498384999984,
                    "velocity": 0.3228346456692913,
                    "duration": 0.2361832500000105
                },
                {
                    "name": "E4",
                    "midi": 64,
                    "time": 363.48602174999843,
                    "velocity": 0.29133858267716534,
                    "duration": 0.2361832500000105
                },
                {
                    "name": "F4",
                    "midi": 65,
                    "time": 363.72220499999844,
                    "velocity": 0.3228346456692913,
                    "duration": 0.2361832500000105
                },
                {
                    "name": "D4",
                    "midi": 62,
                    "time": 363.95838824999845,
                    "velocity": 0.2992125984251969,
                    "duration": 0.21256492499998103
                },
                {
                    "name": "A3",
                    "midi": 57,
                    "time": 364.1945714999984,
                    "velocity": 0.2677165354330709,
                    "duration": 1.4170995000000062
                },
                {
                    "name": "D4",
                    "midi": 62,
                    "time": 364.1945714999984,
                    "velocity": 0.3228346456692913,
                    "duration": 0.2361832500000105
                },
                {
                    "name": "C4",
                    "midi": 60,
                    "time": 364.4307547499984,
                    "velocity": 0.29133858267716534,
                    "duration": 0.2361832500000105
                },
                {
                    "name": "B3",
                    "midi": 59,
                    "time": 364.6669379999984,
                    "velocity": 0.3228346456692913,
                    "duration": 0.2361832500000105
                },
                {
                    "name": "C4",
                    "midi": 60,
                    "time": 364.90312124999843,
                    "velocity": 0.2992125984251969,
                    "duration": 0.2361832500000105
                },
                {
                    "name": "B3",
                    "midi": 59,
                    "time": 365.13930449999845,
                    "velocity": 0.3228346456692913,
                    "duration": 0.2361832500000105
                },
                {
                    "name": "C4",
                    "midi": 60,
                    "time": 365.37548774999846,
                    "velocity": 0.2992125984251969,
                    "duration": 0.21256492499998103
                },
                {
                    "name": "C4",
                    "midi": 60,
                    "time": 365.6116709999984,
                    "velocity": 0.3228346456692913,
                    "duration": 0.2361832500000105
                },
                {
                    "name": "A3",
                    "midi": 57,
                    "time": 365.6116709999984,
                    "velocity": 0.2677165354330709,
                    "duration": 1.417099500000063
                },
                {
                    "name": "D4",
                    "midi": 62,
                    "time": 365.8478542499984,
                    "velocity": 0.30708661417322836,
                    "duration": 0.2361832500000105
                },
                {
                    "name": "E4",
                    "midi": 64,
                    "time": 366.08403749999843,
                    "velocity": 0.30708661417322836,
                    "duration": 0.2361832500000105
                },
                {
                    "name": "D4",
                    "midi": 62,
                    "time": 366.32022074999844,
                    "velocity": 0.3228346456692913,
                    "duration": 0.2361832500000105
                },
                {
                    "name": "C4",
                    "midi": 60,
                    "time": 366.55640399999845,
                    "velocity": 0.30708661417322836,
                    "duration": 0.472366500000021
                },
                {
                    "name": "B3",
                    "midi": 59,
                    "time": 367.0287704999985,
                    "velocity": 0.2677165354330709,
                    "duration": 0.2361832500000105
                },
                {
                    "name": "G#3",
                    "midi": 56,
                    "time": 367.0287704999985,
                    "velocity": 0.2204724409448819,
                    "duration": 0.2361832500000105
                },
                {
                    "name": "A3",
                    "midi": 57,
                    "time": 367.2649537499985,
                    "velocity": 0.23622047244094488,
                    "duration": 0.2361832500000105
                },
                {
                    "name": "C4",
                    "midi": 60,
                    "time": 367.2649537499985,
                    "velocity": 0.28346456692913385,
                    "duration": 0.2361832500000105
                },
                {
                    "name": "B3",
                    "midi": 59,
                    "time": 367.5011369999985,
                    "velocity": 0.2440944881889764,
                    "duration": 0.2361832500000105
                },
                {
                    "name": "D4",
                    "midi": 62,
                    "time": 367.5011369999985,
                    "velocity": 0.29133858267716534,
                    "duration": 0.2361832500000105
                },
                {
                    "name": "E4",
                    "midi": 64,
                    "time": 367.7373202499985,
                    "velocity": 0.2992125984251969,
                    "duration": 0.2361832500000105
                },
                {
                    "name": "C4",
                    "midi": 60,
                    "time": 367.7373202499985,
                    "velocity": 0.25196850393700787,
                    "duration": 0.2361832500000105
                },
                {
                    "name": "D4",
                    "midi": 62,
                    "time": 367.9735034999985,
                    "velocity": 0.2677165354330709,
                    "duration": 0.472366500000021
                },
                {
                    "name": "F4",
                    "midi": 65,
                    "time": 367.9735034999985,
                    "velocity": 0.31496062992125984,
                    "duration": 0.472366500000021
                },
                {
                    "name": "E4",
                    "midi": 64,
                    "time": 368.44586999999854,
                    "velocity": 0.2992125984251969,
                    "duration": 0.472366500000021
                },
                {
                    "name": "C4",
                    "midi": 60,
                    "time": 368.44586999999854,
                    "velocity": 0.25196850393700787,
                    "duration": 0.472366500000021
                },
                {
                    "name": "G#3",
                    "midi": 56,
                    "time": 368.91823649999856,
                    "velocity": 0.2677165354330709,
                    "duration": 0.472366500000021
                },
                {
                    "name": "E4",
                    "midi": 64,
                    "time": 368.91823649999856,
                    "velocity": 0.3228346456692913,
                    "duration": 0.472366500000021
                },
                {
                    "name": "A3",
                    "midi": 57,
                    "time": 369.3906029999986,
                    "velocity": 0.29133858267716534,
                    "duration": 0.472366500000021
                },
                {
                    "name": "E4",
                    "midi": 64,
                    "time": 369.3906029999986,
                    "velocity": 0.3464566929133858,
                    "duration": 0.472366500000021
                },
                {
                    "name": "D#3",
                    "midi": 51,
                    "time": 370.0991527499986,
                    "velocity": 0.3858267716535433,
                    "duration": 0.7085497499999747
                },
                {
                    "name": "E3",
                    "midi": 52,
                    "time": 370.8077024999986,
                    "velocity": 0.25984251968503935,
                    "duration": 0.35427487499998733
                },
                {
                    "name": "A3",
                    "midi": 57,
                    "time": 371.28006899999855,
                    "velocity": 0.33858267716535434,
                    "duration": 0.2361832500000105
                },
                {
                    "name": "E4",
                    "midi": 64,
                    "time": 371.51625224999856,
                    "velocity": 0.2677165354330709,
                    "duration": 0.2361832500000105
                },
                {
                    "name": "C4",
                    "midi": 60,
                    "time": 371.75243549999857,
                    "velocity": 0.31496062992125984,
                    "duration": 0.2361832500000105
                },
                {
                    "name": "E4",
                    "midi": 64,
                    "time": 371.9886187499986,
                    "velocity": 0.2755905511811024,
                    "duration": 0.2361832500000105
                },
                {
                    "name": "A3",
                    "midi": 57,
                    "time": 372.2248019999986,
                    "velocity": 0.3228346456692913,
                    "duration": 0.2361832500000105
                },
                {
                    "name": "E4",
                    "midi": 64,
                    "time": 372.4609852499986,
                    "velocity": 0.2677165354330709,
                    "duration": 0.2361832500000105
                },
                {
                    "name": "A3",
                    "midi": 57,
                    "time": 372.6971684999986,
                    "velocity": 0.33070866141732286,
                    "duration": 0.2361832500000105
                },
                {
                    "name": "E4",
                    "midi": 64,
                    "time": 372.9333517499986,
                    "velocity": 0.28346456692913385,
                    "duration": 0.2361832500000105
                },
                {
                    "name": "C4",
                    "midi": 60,
                    "time": 373.16953499999863,
                    "velocity": 0.3228346456692913,
                    "duration": 0.2361832500000105
                },
                {
                    "name": "E4",
                    "midi": 64,
                    "time": 373.40571824999864,
                    "velocity": 0.28346456692913385,
                    "duration": 0.2361832500000105
                },
                {
                    "name": "A3",
                    "midi": 57,
                    "time": 373.64190149999865,
                    "velocity": 0.3228346456692913,
                    "duration": 0.2361832500000105
                },
                {
                    "name": "E4",
                    "midi": 64,
                    "time": 373.87808474999866,
                    "velocity": 0.28346456692913385,
                    "duration": 0.2361832500000105
                },
                {
                    "name": "E3",
                    "midi": 52,
                    "time": 374.1142679999987,
                    "velocity": 0.33858267716535434,
                    "duration": 0.2361832500000105
                },
                {
                    "name": "E4",
                    "midi": 64,
                    "time": 374.3504512499987,
                    "velocity": 0.2677165354330709,
                    "duration": 0.2361832500000105
                },
                {
                    "name": "B3",
                    "midi": 59,
                    "time": 374.5866344999987,
                    "velocity": 0.31496062992125984,
                    "duration": 0.2361832500000105
                },
                {
                    "name": "E4",
                    "midi": 64,
                    "time": 374.8228177499987,
                    "velocity": 0.2755905511811024,
                    "duration": 0.2361832500000105
                },
                {
                    "name": "E3",
                    "midi": 52,
                    "time": 375.0590009999987,
                    "velocity": 0.3228346456692913,
                    "duration": 0.2361832500000105
                },
                {
                    "name": "E4",
                    "midi": 64,
                    "time": 375.2951842499987,
                    "velocity": 0.2677165354330709,
                    "duration": 0.2361832500000105
                },
                {
                    "name": "E3",
                    "midi": 52,
                    "time": 375.53136749999874,
                    "velocity": 0.33070866141732286,
                    "duration": 0.2361832500000105
                },
                {
                    "name": "E4",
                    "midi": 64,
                    "time": 375.76755074999875,
                    "velocity": 0.28346456692913385,
                    "duration": 0.2361832500000105
                },
                {
                    "name": "B3",
                    "midi": 59,
                    "time": 376.00373399999876,
                    "velocity": 0.3228346456692913,
                    "duration": 0.2361832500000105
                },
                {
                    "name": "E4",
                    "midi": 64,
                    "time": 376.23991724999877,
                    "velocity": 0.28346456692913385,
                    "duration": 0.2361832500000105
                },
                {
                    "name": "E3",
                    "midi": 52,
                    "time": 376.4761004999988,
                    "velocity": 0.3228346456692913,
                    "duration": 0.2361832500000105
                },
                {
                    "name": "E4",
                    "midi": 64,
                    "time": 376.7122837499988,
                    "velocity": 0.28346456692913385,
                    "duration": 0.2361832500000105
                },
                {
                    "name": "A3",
                    "midi": 57,
                    "time": 376.9484669999988,
                    "velocity": 0.33858267716535434,
                    "duration": 0.2361832500000105
                },
                {
                    "name": "E4",
                    "midi": 64,
                    "time": 377.1846502499988,
                    "velocity": 0.2677165354330709,
                    "duration": 0.2361832500000105
                },
                {
                    "name": "C4",
                    "midi": 60,
                    "time": 377.4208334999988,
                    "velocity": 0.31496062992125984,
                    "duration": 0.2361832500000105
                },
                {
                    "name": "E4",
                    "midi": 64,
                    "time": 377.65701674999883,
                    "velocity": 0.2755905511811024,
                    "duration": 0.2361832500000105
                },
                {
                    "name": "G#3",
                    "midi": 56,
                    "time": 377.89319999999884,
                    "velocity": 0.3228346456692913,
                    "duration": 0.2361832500000105
                },
                {
                    "name": "E4",
                    "midi": 64,
                    "time": 378.12938324999885,
                    "velocity": 0.2677165354330709,
                    "duration": 0.2361832500000105
                },
                {
                    "name": "A3",
                    "midi": 57,
                    "time": 378.36556649999886,
                    "velocity": 0.33070866141732286,
                    "duration": 0.2361832500000105
                },
                {
                    "name": "E4",
                    "midi": 64,
                    "time": 378.6017497499989,
                    "velocity": 0.28346456692913385,
                    "duration": 0.2361832500000105
                },
                {
                    "name": "C4",
                    "midi": 60,
                    "time": 378.8379329999989,
                    "velocity": 0.3228346456692913,
                    "duration": 0.2361832500000105
                },
                {
                    "name": "E4",
                    "midi": 64,
                    "time": 379.0741162499989,
                    "velocity": 0.28346456692913385,
                    "duration": 0.2361832500000105
                },
                {
                    "name": "F3",
                    "midi": 53,
                    "time": 379.3102994999989,
                    "velocity": 0.3228346456692913,
                    "duration": 0.2361832500000105
                },
                {
                    "name": "D4",
                    "midi": 62,
                    "time": 379.5464827499989,
                    "velocity": 0.28346456692913385,
                    "duration": 0.2361832500000105
                },
                {
                    "name": "E3",
                    "midi": 52,
                    "time": 379.7826659999989,
                    "velocity": 0.33858267716535434,
                    "duration": 0.2361832500000105
                },
                {
                    "name": "C4",
                    "midi": 60,
                    "time": 380.01884924999894,
                    "velocity": 0.2677165354330709,
                    "duration": 0.2361832500000105
                },
                {
                    "name": "A3",
                    "midi": 57,
                    "time": 380.25503249999895,
                    "velocity": 0.31496062992125984,
                    "duration": 0.2361832500000105
                },
                {
                    "name": "C4",
                    "midi": 60,
                    "time": 380.49121574999896,
                    "velocity": 0.2755905511811024,
                    "duration": 0.2361832500000105
                },
                {
                    "name": "E3",
                    "midi": 52,
                    "time": 380.72739899999897,
                    "velocity": 0.3228346456692913,
                    "duration": 0.2361832500000105
                },
                {
                    "name": "B3",
                    "midi": 59,
                    "time": 380.963582249999,
                    "velocity": 0.2677165354330709,
                    "duration": 0.2361832500000105
                },
                {
                    "name": "A3",
                    "midi": 57,
                    "time": 381.199765499999,
                    "velocity": 0.36220472440944884,
                    "duration": 0.9447329999999852
                },
                {
                    "name": "A2",
                    "midi": 45,
                    "time": 381.199765499999,
                    "velocity": 0.33858267716535434,
                    "duration": 0.9447329999999852
                },
                {
                    "name": "A2",
                    "midi": 45,
                    "time": 382.616864999999,
                    "velocity": 0.3858267716535433,
                    "duration": 0.2361832500000105
                },
                {
                    "name": "E3",
                    "midi": 52,
                    "time": 382.853048249999,
                    "velocity": 0.30708661417322836,
                    "duration": 0.2361832500000105
                },
                {
                    "name": "C3",
                    "midi": 48,
                    "time": 383.089231499999,
                    "velocity": 0.36220472440944884,
                    "duration": 0.2361832500000105
                },
                {
                    "name": "E3",
                    "midi": 52,
                    "time": 383.325414749999,
                    "velocity": 0.31496062992125984,
                    "duration": 0.2361832500000105
                },
                {
                    "name": "G#2",
                    "midi": 44,
                    "time": 383.56159799999904,
                    "velocity": 0.3700787401574803,
                    "duration": 0.2361832500000105
                },
                {
                    "name": "E3",
                    "midi": 52,
                    "time": 383.79778124999905,
                    "velocity": 0.30708661417322836,
                    "duration": 0.2361832500000105
                },
                {
                    "name": "A2",
                    "midi": 45,
                    "time": 384.03396449999906,
                    "velocity": 0.3779527559055118,
                    "duration": 0.2361832500000105
                },
                {
                    "name": "E3",
                    "midi": 52,
                    "time": 384.27014774999907,
                    "velocity": 0.3228346456692913,
                    "duration": 0.2361832500000105
                },
                {
                    "name": "C3",
                    "midi": 48,
                    "time": 384.5063309999991,
                    "velocity": 0.3700787401574803,
                    "duration": 0.2361832500000105
                },
                {
                    "name": "E3",
                    "midi": 52,
                    "time": 384.7425142499991,
                    "velocity": 0.3228346456692913,
                    "duration": 0.2361832500000105
                },
                {
                    "name": "F2",
                    "midi": 41,
                    "time": 384.9786974999991,
                    "velocity": 0.3700787401574803,
                    "duration": 0.2361832500000105
                },
                {
                    "name": "D3",
                    "midi": 50,
                    "time": 385.2148807499991,
                    "velocity": 0.3228346456692913,
                    "duration": 0.2361832500000105
                },
                {
                    "name": "E2",
                    "midi": 40,
                    "time": 385.4510639999991,
                    "velocity": 0.3858267716535433,
                    "duration": 0.2361832500000105
                },
                {
                    "name": "C3",
                    "midi": 48,
                    "time": 385.68724724999913,
                    "velocity": 0.30708661417322836,
                    "duration": 0.2361832500000105
                },
                {
                    "name": "A2",
                    "midi": 45,
                    "time": 385.92343049999914,
                    "velocity": 0.36220472440944884,
                    "duration": 0.2361832500000105
                },
                {
                    "name": "C3",
                    "midi": 48,
                    "time": 386.15961374999915,
                    "velocity": 0.31496062992125984,
                    "duration": 0.2361832500000105
                },
                {
                    "name": "E2",
                    "midi": 40,
                    "time": 386.39579699999916,
                    "velocity": 0.3700787401574803,
                    "duration": 0.2361832500000105
                },
                {
                    "name": "B2",
                    "midi": 47,
                    "time": 386.6319802499992,
                    "velocity": 0.30708661417322836,
                    "duration": 0.2361832500000105
                },
                {
                    "name": "A1",
                    "midi": 33,
                    "time": 386.8681634999992,
                    "velocity": 0.4251968503937008,
                    "duration": 0.05904581250001684
                },
                {
                    "name": "C2",
                    "midi": 36,
                    "time": 387.1043467499992,
                    "velocity": 0.4094488188976378,
                    "duration": 0.05904581250001684
                },
                {
                    "name": "E2",
                    "midi": 40,
                    "time": 387.3405299999992,
                    "velocity": 0.44881889763779526,
                    "duration": 0.05904581250001684
                },
                {
                    "name": "A2",
                    "midi": 45,
                    "time": 387.5767132499992,
                    "velocity": 0.4251968503937008,
                    "duration": 0.05904581250001684
                },
                {
                    "name": "A1",
                    "midi": 33,
                    "time": 387.8128964999992,
                    "velocity": 0.47244094488188976,
                    "duration": 0.11809162499997683
                },
                {
                    "name": "A3",
                    "midi": 57,
                    "time": 388.2852629999992,
                    "velocity": 0.29133858267716534,
                    "duration": 1.4170995000000062
                },
                {
                    "name": "C4",
                    "midi": 60,
                    "time": 388.2852629999992,
                    "velocity": 0.3464566929133858,
                    "duration": 0.9447329999999852
                },
                {
                    "name": "C#4",
                    "midi": 61,
                    "time": 389.2299959999992,
                    "velocity": 0.3464566929133858,
                    "duration": 0.472366500000021
                },
                {
                    "name": "A3",
                    "midi": 57,
                    "time": 389.7023624999992,
                    "velocity": 0.29133858267716534,
                    "duration": 1.4170995000000062
                },
                {
                    "name": "D4",
                    "midi": 62,
                    "time": 389.7023624999992,
                    "velocity": 0.3464566929133858,
                    "duration": 1.4170995000000062
                },
                {
                    "name": "F4",
                    "midi": 65,
                    "time": 391.1194619999992,
                    "velocity": 0.3228346456692913,
                    "duration": 0.2361832500000105
                },
                {
                    "name": "A3",
                    "midi": 57,
                    "time": 391.1194619999992,
                    "velocity": 0.2677165354330709,
                    "duration": 1.4170995000000062
                },
                {
                    "name": "E4",
                    "midi": 64,
                    "time": 391.3556452499992,
                    "velocity": 0.30708661417322836,
                    "duration": 0.2361832500000105
                },
                {
                    "name": "F4",
                    "midi": 65,
                    "time": 391.5918284999992,
                    "velocity": 0.3228346456692913,
                    "duration": 0.2361832500000105
                },
                {
                    "name": "E4",
                    "midi": 64,
                    "time": 391.82801174999923,
                    "velocity": 0.29133858267716534,
                    "duration": 0.2361832500000105
                },
                {
                    "name": "F4",
                    "midi": 65,
                    "time": 392.06419499999924,
                    "velocity": 0.3228346456692913,
                    "duration": 0.2361832500000105
                },
                {
                    "name": "D4",
                    "midi": 62,
                    "time": 392.30037824999926,
                    "velocity": 0.2992125984251969,
                    "duration": 0.21256492499998103
                },
                {
                    "name": "D4",
                    "midi": 62,
                    "time": 392.5365614999992,
                    "velocity": 0.3228346456692913,
                    "duration": 0.2361832500000105
                },
                {
                    "name": "A3",
                    "midi": 57,
                    "time": 392.5365614999992,
                    "velocity": 0.2677165354330709,
                    "duration": 1.4170995000000062
                },
                {
                    "name": "C4",
                    "midi": 60,
                    "time": 392.7727447499992,
                    "velocity": 0.29133858267716534,
                    "duration": 0.2361832500000105
                },
                {
                    "name": "B3",
                    "midi": 59,
                    "time": 393.00892799999923,
                    "velocity": 0.3228346456692913,
                    "duration": 0.2361832500000105
                },
                {
                    "name": "C4",
                    "midi": 60,
                    "time": 393.24511124999924,
                    "velocity": 0.2992125984251969,
                    "duration": 0.2361832500000105
                },
                {
                    "name": "B3",
                    "midi": 59,
                    "time": 393.48129449999925,
                    "velocity": 0.3228346456692913,
                    "duration": 0.2361832500000105
                },
                {
                    "name": "C4",
                    "midi": 60,
                    "time": 393.71747774999926,
                    "velocity": 0.2992125984251969,
                    "duration": 0.21256492499998103
                },
                {
                    "name": "A3",
                    "midi": 57,
                    "time": 393.9536609999992,
                    "velocity": 0.2677165354330709,
                    "duration": 1.417099500000063
                },
                {
                    "name": "C4",
                    "midi": 60,
                    "time": 393.9536609999992,
                    "velocity": 0.3228346456692913,
                    "duration": 0.2361832500000105
                },
                {
                    "name": "D4",
                    "midi": 62,
                    "time": 394.1898442499992,
                    "velocity": 0.30708661417322836,
                    "duration": 0.2361832500000105
                },
                {
                    "name": "E4",
                    "midi": 64,
                    "time": 394.42602749999924,
                    "velocity": 0.30708661417322836,
                    "duration": 0.2361832500000105
                },
                {
                    "name": "D4",
                    "midi": 62,
                    "time": 394.66221074999925,
                    "velocity": 0.3228346456692913,
                    "duration": 0.2361832500000105
                },
                {
                    "name": "C4",
                    "midi": 60,
                    "time": 394.89839399999926,
                    "velocity": 0.30708661417322836,
                    "duration": 0.472366500000021
                },
                {
                    "name": "B3",
                    "midi": 59,
                    "time": 395.3707604999993,
                    "velocity": 0.2677165354330709,
                    "duration": 0.2361832500000105
                },
                {
                    "name": "G#3",
                    "midi": 56,
                    "time": 395.3707604999993,
                    "velocity": 0.2204724409448819,
                    "duration": 0.2361832500000105
                },
                {
                    "name": "A3",
                    "midi": 57,
                    "time": 395.6069437499993,
                    "velocity": 0.23622047244094488,
                    "duration": 0.2361832500000105
                },
                {
                    "name": "C4",
                    "midi": 60,
                    "time": 395.6069437499993,
                    "velocity": 0.28346456692913385,
                    "duration": 0.2361832500000105
                },
                {
                    "name": "B3",
                    "midi": 59,
                    "time": 395.8431269999993,
                    "velocity": 0.2440944881889764,
                    "duration": 0.2361832500000105
                },
                {
                    "name": "D4",
                    "midi": 62,
                    "time": 395.8431269999993,
                    "velocity": 0.29133858267716534,
                    "duration": 0.2361832500000105
                },
                {
                    "name": "C4",
                    "midi": 60,
                    "time": 396.0793102499993,
                    "velocity": 0.25196850393700787,
                    "duration": 0.2361832500000105
                },
                {
                    "name": "E4",
                    "midi": 64,
                    "time": 396.0793102499993,
                    "velocity": 0.2992125984251969,
                    "duration": 0.2361832500000105
                },
                {
                    "name": "D4",
                    "midi": 62,
                    "time": 396.3154934999993,
                    "velocity": 0.2677165354330709,
                    "duration": 0.472366500000021
                },
                {
                    "name": "F4",
                    "midi": 65,
                    "time": 396.3154934999993,
                    "velocity": 0.31496062992125984,
                    "duration": 0.472366500000021
                },
                {
                    "name": "C4",
                    "midi": 60,
                    "time": 396.78785999999934,
                    "velocity": 0.25196850393700787,
                    "duration": 0.472366500000021
                },
                {
                    "name": "E4",
                    "midi": 64,
                    "time": 396.78785999999934,
                    "velocity": 0.2992125984251969,
                    "duration": 0.472366500000021
                },
                {
                    "name": "G#3",
                    "midi": 56,
                    "time": 397.26022649999936,
                    "velocity": 0.2677165354330709,
                    "duration": 0.472366500000021
                },
                {
                    "name": "E4",
                    "midi": 64,
                    "time": 397.26022649999936,
                    "velocity": 0.3228346456692913,
                    "duration": 0.472366500000021
                },
                {
                    "name": "E4",
                    "midi": 64,
                    "time": 397.7325929999994,
                    "velocity": 0.3464566929133858,
                    "duration": 0.472366500000021
                },
                {
                    "name": "A3",
                    "midi": 57,
                    "time": 397.7325929999994,
                    "velocity": 0.29133858267716534,
                    "duration": 0.472366500000021
                },
                {
                    "name": "D#3",
                    "midi": 51,
                    "time": 398.4411427499994,
                    "velocity": 0.3858267716535433,
                    "duration": 0.7085497499999747
                },
                {
                    "name": "E3",
                    "midi": 52,
                    "time": 399.1496924999994,
                    "velocity": 0.25984251968503935,
                    "duration": 0.35427487499998733
                },
                {
                    "name": "A3",
                    "midi": 57,
                    "time": 399.62205899999935,
                    "velocity": 0.33858267716535434,
                    "duration": 0.2361832500000105
                },
                {
                    "name": "E4",
                    "midi": 64,
                    "time": 399.85824224999936,
                    "velocity": 0.2677165354330709,
                    "duration": 0.2361832500000105
                },
                {
                    "name": "C4",
                    "midi": 60,
                    "time": 400.0944254999994,
                    "velocity": 0.31496062992125984,
                    "duration": 0.2361832500000105
                },
                {
                    "name": "E4",
                    "midi": 64,
                    "time": 400.3306087499994,
                    "velocity": 0.2755905511811024,
                    "duration": 0.2361832500000105
                },
                {
                    "name": "A3",
                    "midi": 57,
                    "time": 400.5667919999994,
                    "velocity": 0.3228346456692913,
                    "duration": 0.2361832500000105
                },
                {
                    "name": "E4",
                    "midi": 64,
                    "time": 400.8029752499994,
                    "velocity": 0.2677165354330709,
                    "duration": 0.2361832500000105
                },
                {
                    "name": "A3",
                    "midi": 57,
                    "time": 401.0391584999994,
                    "velocity": 0.33070866141732286,
                    "duration": 0.2361832500000105
                },
                {
                    "name": "E4",
                    "midi": 64,
                    "time": 401.2753417499994,
                    "velocity": 0.28346456692913385,
                    "duration": 0.2361832500000105
                },
                {
                    "name": "C4",
                    "midi": 60,
                    "time": 401.51152499999944,
                    "velocity": 0.3228346456692913,
                    "duration": 0.2361832500000105
                },
                {
                    "name": "E4",
                    "midi": 64,
                    "time": 401.74770824999945,
                    "velocity": 0.28346456692913385,
                    "duration": 0.2361832500000105
                },
                {
                    "name": "A3",
                    "midi": 57,
                    "time": 401.98389149999946,
                    "velocity": 0.3228346456692913,
                    "duration": 0.2361832500000105
                },
                {
                    "name": "E4",
                    "midi": 64,
                    "time": 402.22007474999947,
                    "velocity": 0.28346456692913385,
                    "duration": 0.2361832500000105
                },
                {
                    "name": "E3",
                    "midi": 52,
                    "time": 402.4562579999995,
                    "velocity": 0.33858267716535434,
                    "duration": 0.2361832500000105
                },
                {
                    "name": "E4",
                    "midi": 64,
                    "time": 402.6924412499995,
                    "velocity": 0.2677165354330709,
                    "duration": 0.2361832500000105
                },
                {
                    "name": "B3",
                    "midi": 59,
                    "time": 402.9286244999995,
                    "velocity": 0.31496062992125984,
                    "duration": 0.2361832500000105
                },
                {
                    "name": "E4",
                    "midi": 64,
                    "time": 403.1648077499995,
                    "velocity": 0.2755905511811024,
                    "duration": 0.2361832500000105
                },
                {
                    "name": "E3",
                    "midi": 52,
                    "time": 403.4009909999995,
                    "velocity": 0.3228346456692913,
                    "duration": 0.2361832500000105
                },
                {
                    "name": "E4",
                    "midi": 64,
                    "time": 403.63717424999953,
                    "velocity": 0.2677165354330709,
                    "duration": 0.2361832500000105
                },
                {
                    "name": "E3",
                    "midi": 52,
                    "time": 403.87335749999954,
                    "velocity": 0.33070866141732286,
                    "duration": 0.2361832500000105
                },
                {
                    "name": "E4",
                    "midi": 64,
                    "time": 404.10954074999955,
                    "velocity": 0.28346456692913385,
                    "duration": 0.2361832500000105
                },
                {
                    "name": "B3",
                    "midi": 59,
                    "time": 404.34572399999956,
                    "velocity": 0.3228346456692913,
                    "duration": 0.2361832500000105
                },
                {
                    "name": "E4",
                    "midi": 64,
                    "time": 404.5819072499996,
                    "velocity": 0.28346456692913385,
                    "duration": 0.2361832500000105
                },
                {
                    "name": "E3",
                    "midi": 52,
                    "time": 404.8180904999996,
                    "velocity": 0.3228346456692913,
                    "duration": 0.2361832500000105
                },
                {
                    "name": "E4",
                    "midi": 64,
                    "time": 405.0542737499996,
                    "velocity": 0.28346456692913385,
                    "duration": 0.2361832500000105
                },
                {
                    "name": "A3",
                    "midi": 57,
                    "time": 405.2904569999996,
                    "velocity": 0.33858267716535434,
                    "duration": 0.2361832500000105
                },
                {
                    "name": "E4",
                    "midi": 64,
                    "time": 405.5266402499996,
                    "velocity": 0.2677165354330709,
                    "duration": 0.2361832500000105
                },
                {
                    "name": "C4",
                    "midi": 60,
                    "time": 405.7628234999996,
                    "velocity": 0.31496062992125984,
                    "duration": 0.2361832500000105
                },
                {
                    "name": "E4",
                    "midi": 64,
                    "time": 405.99900674999964,
                    "velocity": 0.2755905511811024,
                    "duration": 0.2361832500000105
                },
                {
                    "name": "G#3",
                    "midi": 56,
                    "time": 406.23518999999965,
                    "velocity": 0.3228346456692913,
                    "duration": 0.2361832500000105
                },
                {
                    "name": "E4",
                    "midi": 64,
                    "time": 406.47137324999966,
                    "velocity": 0.2677165354330709,
                    "duration": 0.2361832500000105
                },
                {
                    "name": "A3",
                    "midi": 57,
                    "time": 406.70755649999967,
                    "velocity": 0.33070866141732286,
                    "duration": 0.2361832500000105
                },
                {
                    "name": "E4",
                    "midi": 64,
                    "time": 406.9437397499997,
                    "velocity": 0.28346456692913385,
                    "duration": 0.2361832500000105
                },
                {
                    "name": "C4",
                    "midi": 60,
                    "time": 407.1799229999997,
                    "velocity": 0.3228346456692913,
                    "duration": 0.2361832500000105
                },
                {
                    "name": "E4",
                    "midi": 64,
                    "time": 407.4161062499997,
                    "velocity": 0.28346456692913385,
                    "duration": 0.2361832500000105
                },
                {
                    "name": "F3",
                    "midi": 53,
                    "time": 407.6522894999997,
                    "velocity": 0.3228346456692913,
                    "duration": 0.2361832500000105
                },
                {
                    "name": "D4",
                    "midi": 62,
                    "time": 407.8884727499997,
                    "velocity": 0.28346456692913385,
                    "duration": 0.2361832500000105
                },
                {
                    "name": "E3",
                    "midi": 52,
                    "time": 408.12465599999973,
                    "velocity": 0.33858267716535434,
                    "duration": 0.2361832500000105
                },
                {
                    "name": "C4",
                    "midi": 60,
                    "time": 408.36083924999974,
                    "velocity": 0.2677165354330709,
                    "duration": 0.2361832500000105
                },
                {
                    "name": "A3",
                    "midi": 57,
                    "time": 408.59702249999975,
                    "velocity": 0.31496062992125984,
                    "duration": 0.2361832500000105
                },
                {
                    "name": "C4",
                    "midi": 60,
                    "time": 408.83320574999976,
                    "velocity": 0.2755905511811024,
                    "duration": 0.2361832500000105
                },
                {
                    "name": "E3",
                    "midi": 52,
                    "time": 409.0693889999998,
                    "velocity": 0.3228346456692913,
                    "duration": 0.2361832500000105
                },
                {
                    "name": "B3",
                    "midi": 59,
                    "time": 409.3055722499998,
                    "velocity": 0.2677165354330709,
                    "duration": 0.2361832500000105
                },
                {
                    "name": "A3",
                    "midi": 57,
                    "time": 409.5417554999998,
                    "velocity": 0.36220472440944884,
                    "duration": 0.9447329999999852
                },
                {
                    "name": "A2",
                    "midi": 45,
                    "time": 409.5417554999998,
                    "velocity": 0.33858267716535434,
                    "duration": 0.9447329999999852
                },
                {
                    "name": "A2",
                    "midi": 45,
                    "time": 410.9588549999998,
                    "velocity": 0.3858267716535433,
                    "duration": 0.2361832500000105
                },
                {
                    "name": "E3",
                    "midi": 52,
                    "time": 411.1950382499998,
                    "velocity": 0.30708661417322836,
                    "duration": 0.2361832500000105
                },
                {
                    "name": "C3",
                    "midi": 48,
                    "time": 411.4312214999998,
                    "velocity": 0.36220472440944884,
                    "duration": 0.2361832500000105
                },
                {
                    "name": "E3",
                    "midi": 52,
                    "time": 411.66740474999983,
                    "velocity": 0.31496062992125984,
                    "duration": 0.2361832500000105
                },
                {
                    "name": "G#2",
                    "midi": 44,
                    "time": 411.90358799999984,
                    "velocity": 0.3700787401574803,
                    "duration": 0.2361832500000105
                },
                {
                    "name": "E3",
                    "midi": 52,
                    "time": 412.13977124999985,
                    "velocity": 0.30708661417322836,
                    "duration": 0.2361832500000105
                },
                {
                    "name": "A2",
                    "midi": 45,
                    "time": 412.37595449999986,
                    "velocity": 0.3779527559055118,
                    "duration": 0.2361832500000105
                },
                {
                    "name": "E3",
                    "midi": 52,
                    "time": 412.6121377499999,
                    "velocity": 0.3228346456692913,
                    "duration": 0.2361832500000105
                },
                {
                    "name": "C3",
                    "midi": 48,
                    "time": 412.8483209999999,
                    "velocity": 0.3700787401574803,
                    "duration": 0.2361832500000105
                },
                {
                    "name": "E3",
                    "midi": 52,
                    "time": 413.0845042499999,
                    "velocity": 0.3228346456692913,
                    "duration": 0.2361832500000105
                },
                {
                    "name": "F2",
                    "midi": 41,
                    "time": 413.3206874999999,
                    "velocity": 0.3700787401574803,
                    "duration": 0.2361832500000105
                },
                {
                    "name": "D3",
                    "midi": 50,
                    "time": 413.5568707499999,
                    "velocity": 0.3228346456692913,
                    "duration": 0.2361832500000105
                },
                {
                    "name": "E2",
                    "midi": 40,
                    "time": 413.7930539999999,
                    "velocity": 0.3858267716535433,
                    "duration": 0.2361832500000105
                },
                {
                    "name": "C3",
                    "midi": 48,
                    "time": 414.02923724999994,
                    "velocity": 0.30708661417322836,
                    "duration": 0.2361832500000105
                },
                {
                    "name": "A2",
                    "midi": 45,
                    "time": 414.26542049999995,
                    "velocity": 0.36220472440944884,
                    "duration": 0.2361832500000105
                },
                {
                    "name": "C3",
                    "midi": 48,
                    "time": 414.50160374999996,
                    "velocity": 0.31496062992125984,
                    "duration": 0.2361832500000105
                },
                {
                    "name": "E2",
                    "midi": 40,
                    "time": 414.73778699999997,
                    "velocity": 0.3700787401574803,
                    "duration": 0.2361832500000105
                },
                {
                    "name": "B2",
                    "midi": 47,
                    "time": 414.97397025,
                    "velocity": 0.30708661417322836,
                    "duration": 0.2361832500000105
                },
                {
                    "name": "A1",
                    "midi": 33,
                    "time": 415.2101535,
                    "velocity": 0.4094488188976378,
                    "duration": 0.05904581250001684
                },
                {
                    "name": "C2",
                    "midi": 36,
                    "time": 415.44633675,
                    "velocity": 0.3858267716535433,
                    "duration": 0.05904581250001684
                },
                {
                    "name": "E2",
                    "midi": 40,
                    "time": 415.68252,
                    "velocity": 0.4409448818897638,
                    "duration": 0.05904581250001684
                },
                {
                    "name": "A2",
                    "midi": 45,
                    "time": 415.91870325,
                    "velocity": 0.4015748031496063,
                    "duration": 0.05904581250001684
                },
                {
                    "name": "A1",
                    "midi": 33,
                    "time": 416.15488650000003,
                    "velocity": 0.4566929133858268,
                    "duration": 0.11809162499997683
                },
                {
                    "name": "A2",
                    "midi": 45,
                    "time": 419.461452,
                    "velocity": 0.30708661417322836,
                    "duration": 0.472366500000021
                },
                {
                    "name": "A3",
                    "midi": 57,
                    "time": 419.461452,
                    "velocity": 0.3700787401574803,
                    "duration": 0.472366500000021
                },
                {
                    "name": "E2",
                    "midi": 40,
                    "time": 422.295651,
                    "velocity": 0.30708661417322836,
                    "duration": 0.472366500000021
                },
                {
                    "name": "E3",
                    "midi": 52,
                    "time": 422.295651,
                    "velocity": 0.3700787401574803,
                    "duration": 0.472366500000021
                },
                {
                    "name": "A2",
                    "midi": 45,
                    "time": 425.12985000000003,
                    "velocity": 0.3464566929133858,
                    "duration": 0.472366500000021
                },
                {
                    "name": "A3",
                    "midi": 57,
                    "time": 425.12985000000003,
                    "velocity": 0.4094488188976378,
                    "duration": 0.472366500000021
                },
                {
                    "name": "A3",
                    "midi": 57,
                    "time": 426.0745830000001,
                    "velocity": 0.3700787401574803,
                    "duration": 0.472366500000021
                },
                {
                    "name": "A2",
                    "midi": 45,
                    "time": 426.0745830000001,
                    "velocity": 0.30708661417322836,
                    "duration": 0.472366500000021
                },
                {
                    "name": "E2",
                    "midi": 40,
                    "time": 426.5469495000001,
                    "velocity": 0.33858267716535434,
                    "duration": 0.472366500000021
                },
                {
                    "name": "E3",
                    "midi": 52,
                    "time": 426.5469495000001,
                    "velocity": 0.4015748031496063,
                    "duration": 0.472366500000021
                },
                {
                    "name": "E2",
                    "midi": 40,
                    "time": 427.49168250000014,
                    "velocity": 0.30708661417322836,
                    "duration": 0.472366500000021
                },
                {
                    "name": "E3",
                    "midi": 52,
                    "time": 427.49168250000014,
                    "velocity": 0.3700787401574803,
                    "duration": 0.472366500000021
                },
                {
                    "name": "E4",
                    "midi": 64,
                    "time": 429.8535150000002,
                    "velocity": 0.3779527559055118,
                    "duration": 0.2361832500000105
                },
                {
                    "name": "E3",
                    "midi": 52,
                    "time": 430.3258815000002,
                    "velocity": 0.33858267716535434,
                    "duration": 0.2361832500000105
                },
                {
                    "name": "A2",
                    "midi": 45,
                    "time": 430.7982480000002,
                    "velocity": 0.5118110236220472,
                    "duration": 0.472366500000021
                },
                {
                    "name": "A3",
                    "midi": 57,
                    "time": 430.7982480000002,
                    "velocity": 0.6299212598425197,
                    "duration": 0.472366500000021
                },
                {
                    "name": "E2",
                    "midi": 40,
                    "time": 433.63244700000024,
                    "velocity": 0.5118110236220472,
                    "duration": 0.472366500000021
                },
                {
                    "name": "E3",
                    "midi": 52,
                    "time": 433.63244700000024,
                    "velocity": 0.6299212598425197,
                    "duration": 0.472366500000021
                },
                {
                    "name": "A2",
                    "midi": 45,
                    "time": 436.46664600000025,
                    "velocity": 0.5118110236220472,
                    "duration": 0.472366500000021
                },
                {
                    "name": "A3",
                    "midi": 57,
                    "time": 436.46664600000025,
                    "velocity": 0.6062992125984252,
                    "duration": 0.472366500000021
                },
                {
                    "name": "F#2",
                    "midi": 42,
                    "time": 438.3561120000003,
                    "velocity": 0.49606299212598426,
                    "duration": 0.472366500000021
                },
                {
                    "name": "F#3",
                    "midi": 54,
                    "time": 438.3561120000003,
                    "velocity": 0.5984251968503937,
                    "duration": 0.472366500000021
                },
                {
                    "name": "D3",
                    "midi": 50,
                    "time": 438.8284785000003,
                    "velocity": 0.5511811023622047,
                    "duration": 0.472366500000021
                },
                {
                    "name": "D2",
                    "midi": 38,
                    "time": 438.8284785000003,
                    "velocity": 0.44881889763779526,
                    "duration": 0.472366500000021
                },
                {
                    "name": "E3",
                    "midi": 52,
                    "time": 439.3008450000003,
                    "velocity": 0.6614173228346457,
                    "duration": 0.472366500000021
                },
                {
                    "name": "E2",
                    "midi": 40,
                    "time": 439.3008450000003,
                    "velocity": 0.5590551181102362,
                    "duration": 0.472366500000021
                },
                {
                    "name": "A3",
                    "midi": 57,
                    "time": 441.19031100000035,
                    "velocity": 0.3858267716535433,
                    "duration": 0.2361832500000105
                },
                {
                    "name": "A2",
                    "midi": 45,
                    "time": 441.66267750000037,
                    "velocity": 0.3464566929133858,
                    "duration": 0.2361832500000105
                },
                {
                    "name": "A2",
                    "midi": 45,
                    "time": 442.1350440000004,
                    "velocity": 0.30708661417322836,
                    "duration": 0.472366500000021
                },
                {
                    "name": "A3",
                    "midi": 57,
                    "time": 442.1350440000004,
                    "velocity": 0.3700787401574803,
                    "duration": 0.472366500000021
                },
                {
                    "name": "E2",
                    "midi": 40,
                    "time": 444.9692430000004,
                    "velocity": 0.30708661417322836,
                    "duration": 0.472366500000021
                },
                {
                    "name": "E3",
                    "midi": 52,
                    "time": 444.9692430000004,
                    "velocity": 0.3700787401574803,
                    "duration": 0.472366500000021
                },
                {
                    "name": "A3",
                    "midi": 57,
                    "time": 447.8034420000004,
                    "velocity": 0.4094488188976378,
                    "duration": 0.472366500000021
                },
                {
                    "name": "A2",
                    "midi": 45,
                    "time": 447.8034420000004,
                    "velocity": 0.3464566929133858,
                    "duration": 0.472366500000021
                },
                {
                    "name": "A3",
                    "midi": 57,
                    "time": 448.74817500000046,
                    "velocity": 0.3700787401574803,
                    "duration": 0.472366500000021
                },
                {
                    "name": "A2",
                    "midi": 45,
                    "time": 448.74817500000046,
                    "velocity": 0.30708661417322836,
                    "duration": 0.472366500000021
                },
                {
                    "name": "E3",
                    "midi": 52,
                    "time": 449.2205415000005,
                    "velocity": 0.4015748031496063,
                    "duration": 0.472366500000021
                },
                {
                    "name": "E2",
                    "midi": 40,
                    "time": 449.2205415000005,
                    "velocity": 0.33858267716535434,
                    "duration": 0.472366500000021
                },
                {
                    "name": "E2",
                    "midi": 40,
                    "time": 450.1652745000005,
                    "velocity": 0.30708661417322836,
                    "duration": 0.472366500000021
                },
                {
                    "name": "E3",
                    "midi": 52,
                    "time": 450.1652745000005,
                    "velocity": 0.3700787401574803,
                    "duration": 0.472366500000021
                },
                {
                    "name": "E4",
                    "midi": 64,
                    "time": 452.52710700000057,
                    "velocity": 0.3779527559055118,
                    "duration": 0.2361832500000105
                },
                {
                    "name": "E3",
                    "midi": 52,
                    "time": 452.9994735000006,
                    "velocity": 0.33858267716535434,
                    "duration": 0.2361832500000105
                },
                {
                    "name": "A2",
                    "midi": 45,
                    "time": 453.4718400000006,
                    "velocity": 0.5118110236220472,
                    "duration": 0.472366500000021
                },
                {
                    "name": "A3",
                    "midi": 57,
                    "time": 453.4718400000006,
                    "velocity": 0.6299212598425197,
                    "duration": 0.472366500000021
                },
                {
                    "name": "E3",
                    "midi": 52,
                    "time": 456.3060390000006,
                    "velocity": 0.6299212598425197,
                    "duration": 0.472366500000021
                },
                {
                    "name": "E2",
                    "midi": 40,
                    "time": 456.3060390000006,
                    "velocity": 0.5118110236220472,
                    "duration": 0.472366500000021
                },
                {
                    "name": "A3",
                    "midi": 57,
                    "time": 459.14023800000064,
                    "velocity": 0.6062992125984252,
                    "duration": 0.472366500000021
                },
                {
                    "name": "A2",
                    "midi": 45,
                    "time": 459.14023800000064,
                    "velocity": 0.5118110236220472,
                    "duration": 0.472366500000021
                },
                {
                    "name": "F#2",
                    "midi": 42,
                    "time": 461.02970400000066,
                    "velocity": 0.49606299212598426,
                    "duration": 0.472366500000021
                },
                {
                    "name": "F#3",
                    "midi": 54,
                    "time": 461.02970400000066,
                    "velocity": 0.5984251968503937,
                    "duration": 0.472366500000021
                },
                {
                    "name": "D2",
                    "midi": 38,
                    "time": 461.5020705000007,
                    "velocity": 0.44881889763779526,
                    "duration": 0.472366500000021
                },
                {
                    "name": "D3",
                    "midi": 50,
                    "time": 461.5020705000007,
                    "velocity": 0.5511811023622047,
                    "duration": 0.472366500000021
                },
                {
                    "name": "E3",
                    "midi": 52,
                    "time": 461.9744370000007,
                    "velocity": 0.6614173228346457,
                    "duration": 0.472366500000021
                },
                {
                    "name": "E2",
                    "midi": 40,
                    "time": 461.9744370000007,
                    "velocity": 0.5590551181102362,
                    "duration": 0.472366500000021
                },
                {
                    "name": "A3",
                    "midi": 57,
                    "time": 463.86390300000073,
                    "velocity": 0.3858267716535433,
                    "duration": 0.2361832500000105
                },
                {
                    "name": "A2",
                    "midi": 45,
                    "time": 464.33626950000075,
                    "velocity": 0.3464566929133858,
                    "duration": 0.2361832500000105
                },
                {
                    "name": "A3",
                    "midi": 57,
                    "time": 464.8086360000008,
                    "velocity": 0.33070866141732286,
                    "duration": 0.2361832500000105
                },
                {
                    "name": "C#4",
                    "midi": 61,
                    "time": 465.0448192500008,
                    "velocity": 0.2440944881889764,
                    "duration": 0.2361832500000105
                },
                {
                    "name": "E4",
                    "midi": 64,
                    "time": 465.2810025000008,
                    "velocity": 0.2677165354330709,
                    "duration": 0.2361832500000105
                },
                {
                    "name": "C#4",
                    "midi": 61,
                    "time": 465.5171857500008,
                    "velocity": 0.25196850393700787,
                    "duration": 0.2361832500000105
                },
                {
                    "name": "E4",
                    "midi": 64,
                    "time": 465.7533690000008,
                    "velocity": 0.2677165354330709,
                    "duration": 0.2361832500000105
                },
                {
                    "name": "C#4",
                    "midi": 61,
                    "time": 465.9895522500008,
                    "velocity": 0.23622047244094488,
                    "duration": 0.2361832500000105
                },
                {
                    "name": "A3",
                    "midi": 57,
                    "time": 466.22573550000084,
                    "velocity": 0.31496062992125984,
                    "duration": 0.2361832500000105
                },
                {
                    "name": "D4",
                    "midi": 62,
                    "time": 466.46191875000085,
                    "velocity": 0.23622047244094488,
                    "duration": 0.2361832500000105
                },
                {
                    "name": "F#4",
                    "midi": 66,
                    "time": 466.69810200000086,
                    "velocity": 0.25984251968503935,
                    "duration": 0.2361832500000105
                },
                {
                    "name": "D4",
                    "midi": 62,
                    "time": 466.93428525000087,
                    "velocity": 0.2440944881889764,
                    "duration": 0.2361832500000105
                },
                {
                    "name": "F#4",
                    "midi": 66,
                    "time": 467.1704685000009,
                    "velocity": 0.25984251968503935,
                    "duration": 0.2361832500000105
                },
                {
                    "name": "D4",
                    "midi": 62,
                    "time": 467.4066517500009,
                    "velocity": 0.25196850393700787,
                    "duration": 0.2361832500000105
                },
                {
                    "name": "A3",
                    "midi": 57,
                    "time": 467.6428350000009,
                    "velocity": 0.31496062992125984,
                    "duration": 0.2361832500000105
                },
                {
                    "name": "D4",
                    "midi": 62,
                    "time": 467.8790182500009,
                    "velocity": 0.2440944881889764,
                    "duration": 0.2361832500000105
                },
                {
                    "name": "F#4",
                    "midi": 66,
                    "time": 468.1152015000009,
                    "velocity": 0.2677165354330709,
                    "duration": 0.2361832500000105
                },
                {
                    "name": "D4",
                    "midi": 62,
                    "time": 468.35138475000093,
                    "velocity": 0.2677165354330709,
                    "duration": 0.2361832500000105
                },
                {
                    "name": "F#4",
                    "midi": 66,
                    "time": 468.58756800000094,
                    "velocity": 0.30708661417322836,
                    "duration": 0.2361832500000105
                },
                {
                    "name": "D4",
                    "midi": 62,
                    "time": 468.82375125000095,
                    "velocity": 0.25984251968503935,
                    "duration": 0.2361832500000105
                },
                {
                    "name": "A3",
                    "midi": 57,
                    "time": 469.05993450000096,
                    "velocity": 0.33858267716535434,
                    "duration": 0.2361832500000105
                },
                {
                    "name": "C#4",
                    "midi": 61,
                    "time": 469.296117750001,
                    "velocity": 0.25984251968503935,
                    "duration": 0.2361832500000105
                },
                {
                    "name": "E4",
                    "midi": 64,
                    "time": 469.532301000001,
                    "velocity": 0.25984251968503935,
                    "duration": 0.2361832500000105
                },
                {
                    "name": "C#4",
                    "midi": 61,
                    "time": 469.768484250001,
                    "velocity": 0.2440944881889764,
                    "duration": 0.2361832500000105
                },
                {
                    "name": "E4",
                    "midi": 64,
                    "time": 470.004667500001,
                    "velocity": 0.25984251968503935,
                    "duration": 0.2361832500000105
                },
                {
                    "name": "C#4",
                    "midi": 61,
                    "time": 470.240850750001,
                    "velocity": 0.2440944881889764,
                    "duration": 0.2361832500000105
                },
                {
                    "name": "A2",
                    "midi": 45,
                    "time": 470.477034000001,
                    "velocity": 0.4094488188976378,
                    "duration": 0.2361832500000105
                },
                {
                    "name": "C#3",
                    "midi": 49,
                    "time": 470.477034000001,
                    "velocity": 0.4094488188976378,
                    "duration": 0.2361832500000105
                },
                {
                    "name": "C#4",
                    "midi": 61,
                    "time": 470.94940050000105,
                    "velocity": 0.3543307086614173,
                    "duration": 0.2361832500000105
                },
                {
                    "name": "A3",
                    "midi": 57,
                    "time": 470.94940050000105,
                    "velocity": 0.3543307086614173,
                    "duration": 0.2361832500000105
                },
                {
                    "name": "B2",
                    "midi": 47,
                    "time": 471.89413350000103,
                    "velocity": 0.4094488188976378,
                    "duration": 0.2361832500000105
                },
                {
                    "name": "D3",
                    "midi": 50,
                    "time": 471.89413350000103,
                    "velocity": 0.4094488188976378,
                    "duration": 0.2361832500000105
                },
                {
                    "name": "B3",
                    "midi": 59,
                    "time": 472.36650000000105,
                    "velocity": 0.3543307086614173,
                    "duration": 0.2361832500000105
                },
                {
                    "name": "D4",
                    "midi": 62,
                    "time": 472.36650000000105,
                    "velocity": 0.3543307086614173,
                    "duration": 0.2361832500000105
                },
                {
                    "name": "C#4",
                    "midi": 61,
                    "time": 473.31123300000104,
                    "velocity": 0.29133858267716534,
                    "duration": 0.472366500000021
                },
                {
                    "name": "E4",
                    "midi": 64,
                    "time": 473.31123300000104,
                    "velocity": 0.33858267716535434,
                    "duration": 0.472366500000021
                },
                {
                    "name": "D4",
                    "midi": 62,
                    "time": 473.78359950000106,
                    "velocity": 0.33070866141732286,
                    "duration": 0.472366500000021
                },
                {
                    "name": "B3",
                    "midi": 59,
                    "time": 473.78359950000106,
                    "velocity": 0.2755905511811024,
                    "duration": 0.472366500000021
                },
                {
                    "name": "A3",
                    "midi": 57,
                    "time": 474.2559660000011,
                    "velocity": 0.28346456692913385,
                    "duration": 0.472366500000021
                },
                {
                    "name": "C#4",
                    "midi": 61,
                    "time": 474.2559660000011,
                    "velocity": 0.33858267716535434,
                    "duration": 0.472366500000021
                },
                {
                    "name": "E3",
                    "midi": 52,
                    "time": 474.7283325000011,
                    "velocity": 0.33070866141732286,
                    "duration": 1.4170995000000062
                },
                {
                    "name": "A3",
                    "midi": 57,
                    "time": 474.7283325000011,
                    "velocity": 0.33070866141732286,
                    "duration": 0.9447329999999852
                },
                {
                    "name": "C#4",
                    "midi": 61,
                    "time": 474.7283325000011,
                    "velocity": 0.3937007874015748,
                    "duration": 0.9447329999999852
                },
                {
                    "name": "B3",
                    "midi": 59,
                    "time": 475.6730655000011,
                    "velocity": 0.2992125984251969,
                    "duration": 0.472366500000021
                },
                {
                    "name": "G#3",
                    "midi": 56,
                    "time": 475.6730655000011,
                    "velocity": 0.25196850393700787,
                    "duration": 0.472366500000021
                },
                {
                    "name": "A3",
                    "midi": 57,
                    "time": 476.1454320000011,
                    "velocity": 0.5196850393700787,
                    "duration": 0.472366500000021
                },
                {
                    "name": "A2",
                    "midi": 45,
                    "time": 476.1454320000011,
                    "velocity": 0.41732283464566927,
                    "duration": 0.472366500000021
                },
                {
                    "name": "E3",
                    "midi": 52,
                    "time": 478.9796310000011,
                    "velocity": 0.5196850393700787,
                    "duration": 0.472366500000021
                },
                {
                    "name": "E2",
                    "midi": 40,
                    "time": 478.9796310000011,
                    "velocity": 0.41732283464566927,
                    "duration": 0.472366500000021
                },
                {
                    "name": "A2",
                    "midi": 45,
                    "time": 481.81383000000113,
                    "velocity": 0.41732283464566927,
                    "duration": 0.472366500000021
                },
                {
                    "name": "A3",
                    "midi": 57,
                    "time": 481.81383000000113,
                    "velocity": 0.49606299212598426,
                    "duration": 0.472366500000021
                },
                {
                    "name": "F#3",
                    "midi": 54,
                    "time": 483.70329600000116,
                    "velocity": 0.49606299212598426,
                    "duration": 0.472366500000021
                },
                {
                    "name": "F#2",
                    "midi": 42,
                    "time": 483.70329600000116,
                    "velocity": 0.4094488188976378,
                    "duration": 0.472366500000021
                },
                {
                    "name": "D3",
                    "midi": 50,
                    "time": 484.1756625000012,
                    "velocity": 0.4566929133858268,
                    "duration": 0.472366500000021
                },
                {
                    "name": "D2",
                    "midi": 38,
                    "time": 484.1756625000012,
                    "velocity": 0.3700787401574803,
                    "duration": 0.472366500000021
                },
                {
                    "name": "E2",
                    "midi": 40,
                    "time": 484.6480290000012,
                    "velocity": 0.4566929133858268,
                    "duration": 0.472366500000021
                },
                {
                    "name": "E3",
                    "midi": 52,
                    "time": 484.6480290000012,
                    "velocity": 0.5433070866141733,
                    "duration": 0.472366500000021
                },
                {
                    "name": "A2",
                    "midi": 45,
                    "time": 487.4822280000012,
                    "velocity": 0.47244094488188976,
                    "duration": 0.472366500000021
                },
                {
                    "name": "A3",
                    "midi": 57,
                    "time": 487.4822280000012,
                    "velocity": 0.5669291338582677,
                    "duration": 0.472366500000021
                },
                {
                    "name": "A2",
                    "midi": 45,
                    "time": 489.37169400000124,
                    "velocity": 0.4645669291338583,
                    "duration": 0.472366500000021
                },
                {
                    "name": "A3",
                    "midi": 57,
                    "time": 489.37169400000124,
                    "velocity": 0.5669291338582677,
                    "duration": 0.472366500000021
                },
                {
                    "name": "D2",
                    "midi": 38,
                    "time": 489.84406050000126,
                    "velocity": 0.4251968503937008,
                    "duration": 0.472366500000021
                },
                {
                    "name": "D3",
                    "midi": 50,
                    "time": 489.84406050000126,
                    "velocity": 0.5196850393700787,
                    "duration": 0.472366500000021
                },
                {
                    "name": "E3",
                    "midi": 52,
                    "time": 490.3164270000013,
                    "velocity": 0.6220472440944882,
                    "duration": 0.472366500000021
                },
                {
                    "name": "E2",
                    "midi": 40,
                    "time": 490.3164270000013,
                    "velocity": 0.5196850393700787,
                    "duration": 0.472366500000021
                },
                {
                    "name": "A3",
                    "midi": 57,
                    "time": 492.2058930000013,
                    "velocity": 0.4566929133858268,
                    "duration": 0.2361832500000105
                },
                {
                    "name": "A2",
                    "midi": 45,
                    "time": 492.67825950000133,
                    "velocity": 0.4094488188976378,
                    "duration": 0.2361832500000105
                },
                {
                    "name": "A3",
                    "midi": 57,
                    "time": 493.15062600000135,
                    "velocity": 0.33070866141732286,
                    "duration": 0.2361832500000105
                },
                {
                    "name": "C#4",
                    "midi": 61,
                    "time": 493.38680925000136,
                    "velocity": 0.2440944881889764,
                    "duration": 0.2361832500000105
                },
                {
                    "name": "E4",
                    "midi": 64,
                    "time": 493.6229925000014,
                    "velocity": 0.2677165354330709,
                    "duration": 0.2361832500000105
                },
                {
                    "name": "C#4",
                    "midi": 61,
                    "time": 493.8591757500014,
                    "velocity": 0.25196850393700787,
                    "duration": 0.2361832500000105
                },
                {
                    "name": "E4",
                    "midi": 64,
                    "time": 494.0953590000014,
                    "velocity": 0.2677165354330709,
                    "duration": 0.2361832500000105
                },
                {
                    "name": "C#4",
                    "midi": 61,
                    "time": 494.3315422500014,
                    "velocity": 0.23622047244094488,
                    "duration": 0.2361832500000105
                },
                {
                    "name": "A3",
                    "midi": 57,
                    "time": 494.5677255000014,
                    "velocity": 0.31496062992125984,
                    "duration": 0.2361832500000105
                },
                {
                    "name": "D4",
                    "midi": 62,
                    "time": 494.8039087500014,
                    "velocity": 0.23622047244094488,
                    "duration": 0.2361832500000105
                },
                {
                    "name": "F#4",
                    "midi": 66,
                    "time": 495.04009200000144,
                    "velocity": 0.25984251968503935,
                    "duration": 0.2361832500000105
                },
                {
                    "name": "D4",
                    "midi": 62,
                    "time": 495.27627525000145,
                    "velocity": 0.2440944881889764,
                    "duration": 0.2361832500000105
                },
                {
                    "name": "F#4",
                    "midi": 66,
                    "time": 495.51245850000146,
                    "velocity": 0.25984251968503935,
                    "duration": 0.2361832500000105
                },
                {
                    "name": "D4",
                    "midi": 62,
                    "time": 495.74864175000147,
                    "velocity": 0.25196850393700787,
                    "duration": 0.2361832500000105
                },
                {
                    "name": "A3",
                    "midi": 57,
                    "time": 495.9848250000015,
                    "velocity": 0.31496062992125984,
                    "duration": 0.2361832500000105
                },
                {
                    "name": "D4",
                    "midi": 62,
                    "time": 496.2210082500015,
                    "velocity": 0.2440944881889764,
                    "duration": 0.2361832500000105
                },
                {
                    "name": "F#4",
                    "midi": 66,
                    "time": 496.4571915000015,
                    "velocity": 0.2677165354330709,
                    "duration": 0.2361832500000105
                },
                {
                    "name": "D4",
                    "midi": 62,
                    "time": 496.6933747500015,
                    "velocity": 0.2677165354330709,
                    "duration": 0.2361832500000105
                },
                {
                    "name": "F#4",
                    "midi": 66,
                    "time": 496.9295580000015,
                    "velocity": 0.30708661417322836,
                    "duration": 0.2361832500000105
                },
                {
                    "name": "D4",
                    "midi": 62,
                    "time": 497.16574125000153,
                    "velocity": 0.25984251968503935,
                    "duration": 0.2361832500000105
                },
                {
                    "name": "A3",
                    "midi": 57,
                    "time": 497.40192450000154,
                    "velocity": 0.33858267716535434,
                    "duration": 0.2361832500000105
                },
                {
                    "name": "C#4",
                    "midi": 61,
                    "time": 497.63810775000155,
                    "velocity": 0.25984251968503935,
                    "duration": 0.2361832500000105
                },
                {
                    "name": "E4",
                    "midi": 64,
                    "time": 497.87429100000156,
                    "velocity": 0.25984251968503935,
                    "duration": 0.2361832500000105
                },
                {
                    "name": "C#4",
                    "midi": 61,
                    "time": 498.1104742500016,
                    "velocity": 0.2440944881889764,
                    "duration": 0.2361832500000105
                },
                {
                    "name": "E4",
                    "midi": 64,
                    "time": 498.3466575000016,
                    "velocity": 0.25984251968503935,
                    "duration": 0.2361832500000105
                },
                {
                    "name": "C#4",
                    "midi": 61,
                    "time": 498.5828407500016,
                    "velocity": 0.2440944881889764,
                    "duration": 0.2361832500000105
                },
                {
                    "name": "C#3",
                    "midi": 49,
                    "time": 498.8190240000016,
                    "velocity": 0.4094488188976378,
                    "duration": 0.2361832500000105
                },
                {
                    "name": "A2",
                    "midi": 45,
                    "time": 498.8190240000016,
                    "velocity": 0.4094488188976378,
                    "duration": 0.2361832500000105
                },
                {
                    "name": "C#4",
                    "midi": 61,
                    "time": 499.2913905000016,
                    "velocity": 0.3543307086614173,
                    "duration": 0.2361832500000105
                },
                {
                    "name": "A3",
                    "midi": 57,
                    "time": 499.2913905000016,
                    "velocity": 0.3543307086614173,
                    "duration": 0.2361832500000105
                },
                {
                    "name": "D3",
                    "midi": 50,
                    "time": 500.2361235000016,
                    "velocity": 0.4094488188976378,
                    "duration": 0.2361832500000105
                },
                {
                    "name": "B2",
                    "midi": 47,
                    "time": 500.2361235000016,
                    "velocity": 0.4094488188976378,
                    "duration": 0.2361832500000105
                },
                {
                    "name": "D4",
                    "midi": 62,
                    "time": 500.70849000000163,
                    "velocity": 0.3543307086614173,
                    "duration": 0.2361832500000105
                },
                {
                    "name": "B3",
                    "midi": 59,
                    "time": 500.70849000000163,
                    "velocity": 0.3543307086614173,
                    "duration": 0.2361832500000105
                },
                {
                    "name": "C#4",
                    "midi": 61,
                    "time": 501.6532230000016,
                    "velocity": 0.29133858267716534,
                    "duration": 0.472366500000021
                },
                {
                    "name": "E4",
                    "midi": 64,
                    "time": 501.6532230000016,
                    "velocity": 0.33858267716535434,
                    "duration": 0.472366500000021
                },
                {
                    "name": "B3",
                    "midi": 59,
                    "time": 502.12558950000164,
                    "velocity": 0.2755905511811024,
                    "duration": 0.472366500000021
                },
                {
                    "name": "D4",
                    "midi": 62,
                    "time": 502.12558950000164,
                    "velocity": 0.33070866141732286,
                    "duration": 0.472366500000021
                },
                {
                    "name": "C#4",
                    "midi": 61,
                    "time": 502.59795600000166,
                    "velocity": 0.33858267716535434,
                    "duration": 0.472366500000021
                },
                {
                    "name": "A3",
                    "midi": 57,
                    "time": 502.59795600000166,
                    "velocity": 0.28346456692913385,
                    "duration": 0.472366500000021
                },
                {
                    "name": "E3",
                    "midi": 52,
                    "time": 503.0703225000017,
                    "velocity": 0.33070866141732286,
                    "duration": 1.4170995000000062
                },
                {
                    "name": "C#4",
                    "midi": 61,
                    "time": 503.0703225000017,
                    "velocity": 0.3937007874015748,
                    "duration": 0.9447329999999852
                },
                {
                    "name": "A3",
                    "midi": 57,
                    "time": 503.0703225000017,
                    "velocity": 0.33070866141732286,
                    "duration": 0.9447329999999852
                },
                {
                    "name": "B3",
                    "midi": 59,
                    "time": 504.01505550000167,
                    "velocity": 0.2992125984251969,
                    "duration": 0.472366500000021
                },
                {
                    "name": "G#3",
                    "midi": 56,
                    "time": 504.01505550000167,
                    "velocity": 0.25196850393700787,
                    "duration": 0.472366500000021
                },
                {
                    "name": "A3",
                    "midi": 57,
                    "time": 504.4874220000017,
                    "velocity": 0.5196850393700787,
                    "duration": 0.472366500000021
                },
                {
                    "name": "A2",
                    "midi": 45,
                    "time": 504.4874220000017,
                    "velocity": 0.41732283464566927,
                    "duration": 0.472366500000021
                },
                {
                    "name": "E2",
                    "midi": 40,
                    "time": 507.3216210000017,
                    "velocity": 0.41732283464566927,
                    "duration": 0.472366500000021
                },
                {
                    "name": "E3",
                    "midi": 52,
                    "time": 507.3216210000017,
                    "velocity": 0.5196850393700787,
                    "duration": 0.472366500000021
                },
                {
                    "name": "A3",
                    "midi": 57,
                    "time": 510.1558200000017,
                    "velocity": 0.49606299212598426,
                    "duration": 0.472366500000021
                },
                {
                    "name": "A2",
                    "midi": 45,
                    "time": 510.1558200000017,
                    "velocity": 0.41732283464566927,
                    "duration": 0.472366500000021
                },
                {
                    "name": "F#2",
                    "midi": 42,
                    "time": 512.0452860000017,
                    "velocity": 0.4094488188976378,
                    "duration": 0.472366500000021
                },
                {
                    "name": "F#3",
                    "midi": 54,
                    "time": 512.0452860000017,
                    "velocity": 0.49606299212598426,
                    "duration": 0.472366500000021
                },
                {
                    "name": "D2",
                    "midi": 38,
                    "time": 512.5176525000018,
                    "velocity": 0.3700787401574803,
                    "duration": 0.472366500000021
                },
                {
                    "name": "D3",
                    "midi": 50,
                    "time": 512.5176525000018,
                    "velocity": 0.4566929133858268,
                    "duration": 0.472366500000021
                },
                {
                    "name": "E3",
                    "midi": 52,
                    "time": 512.9900190000018,
                    "velocity": 0.5433070866141733,
                    "duration": 0.472366500000021
                },
                {
                    "name": "E2",
                    "midi": 40,
                    "time": 512.9900190000018,
                    "velocity": 0.4566929133858268,
                    "duration": 0.472366500000021
                },
                {
                    "name": "A2",
                    "midi": 45,
                    "time": 515.8242180000018,
                    "velocity": 0.47244094488188976,
                    "duration": 0.472366500000021
                },
                {
                    "name": "A3",
                    "midi": 57,
                    "time": 515.8242180000018,
                    "velocity": 0.5669291338582677,
                    "duration": 0.472366500000021
                },
                {
                    "name": "A2",
                    "midi": 45,
                    "time": 517.7136840000018,
                    "velocity": 0.4645669291338583,
                    "duration": 0.472366500000021
                },
                {
                    "name": "A3",
                    "midi": 57,
                    "time": 517.7136840000018,
                    "velocity": 0.5669291338582677,
                    "duration": 0.472366500000021
                },
                {
                    "name": "D3",
                    "midi": 50,
                    "time": 518.1860505000018,
                    "velocity": 0.5196850393700787,
                    "duration": 0.472366500000021
                },
                {
                    "name": "D2",
                    "midi": 38,
                    "time": 518.1860505000018,
                    "velocity": 0.4251968503937008,
                    "duration": 0.472366500000021
                },
                {
                    "name": "E3",
                    "midi": 52,
                    "time": 518.6584170000018,
                    "velocity": 0.6220472440944882,
                    "duration": 0.472366500000021
                },
                {
                    "name": "E2",
                    "midi": 40,
                    "time": 518.6584170000018,
                    "velocity": 0.5196850393700787,
                    "duration": 0.472366500000021
                },
                {
                    "name": "A3",
                    "midi": 57,
                    "time": 520.5478830000018,
                    "velocity": 0.4566929133858268,
                    "duration": 0.23618324999995366
                },
                {
                    "name": "A2",
                    "midi": 45,
                    "time": 521.0202495000017,
                    "velocity": 0.4094488188976378,
                    "duration": 0.23618324999995366
                },
                {
                    "name": "A3",
                    "midi": 57,
                    "time": 524.3268150000016,
                    "velocity": 0.33858267716535434,
                    "duration": 0.23618324999995366
                },
                {
                    "name": "E4",
                    "midi": 64,
                    "time": 524.5629982500016,
                    "velocity": 0.2047244094488189,
                    "duration": 0.23618324999995366
                },
                {
                    "name": "C#4",
                    "midi": 61,
                    "time": 524.7991815000015,
                    "velocity": 0.23622047244094488,
                    "duration": 0.23618324999995366
                },
                {
                    "name": "E4",
                    "midi": 64,
                    "time": 525.0353647500015,
                    "velocity": 0.16535433070866143,
                    "duration": 0.23618324999995366
                },
                {
                    "name": "A3",
                    "midi": 57,
                    "time": 525.2715480000014,
                    "velocity": 0.28346456692913385,
                    "duration": 0.23618324999995366
                },
                {
                    "name": "E4",
                    "midi": 64,
                    "time": 525.5077312500014,
                    "velocity": 0.2283464566929134,
                    "duration": 0.23618324999995366
                },
                {
                    "name": "C#4",
                    "midi": 61,
                    "time": 525.7439145000013,
                    "velocity": 0.23622047244094488,
                    "duration": 0.23618324999995366
                },
                {
                    "name": "E4",
                    "midi": 64,
                    "time": 525.9800977500013,
                    "velocity": 0.2204724409448819,
                    "duration": 0.23618324999995366
                },
                {
                    "name": "A3",
                    "midi": 57,
                    "time": 526.2162810000012,
                    "velocity": 0.2992125984251969,
                    "duration": 0.23618324999995366
                },
                {
                    "name": "E4",
                    "midi": 64,
                    "time": 526.4524642500012,
                    "velocity": 0.2440944881889764,
                    "duration": 0.23618324999995366
                },
                {
                    "name": "B3",
                    "midi": 59,
                    "time": 526.6886475000011,
                    "velocity": 0.25984251968503935,
                    "duration": 0.23618324999995366
                },
                {
                    "name": "E4",
                    "midi": 64,
                    "time": 526.9248307500011,
                    "velocity": 0.2755905511811024,
                    "duration": 0.23618324999995366
                },
                {
                    "name": "C#4",
                    "midi": 61,
                    "time": 527.161014000001,
                    "velocity": 0.3228346456692913,
                    "duration": 0.23618324999995366
                },
                {
                    "name": "E4",
                    "midi": 64,
                    "time": 527.397197250001,
                    "velocity": 0.23622047244094488,
                    "duration": 0.23618324999995366
                },
                {
                    "name": "A3",
                    "midi": 57,
                    "time": 527.633380500001,
                    "velocity": 0.23622047244094488,
                    "duration": 0.23618324999995366
                },
                {
                    "name": "E4",
                    "midi": 64,
                    "time": 527.8695637500009,
                    "velocity": 0.23622047244094488,
                    "duration": 0.23618324999995366
                },
                {
                    "name": "C#4",
                    "midi": 61,
                    "time": 528.1057470000009,
                    "velocity": 0.28346456692913385,
                    "duration": 0.23618324999995366
                },
                {
                    "name": "E4",
                    "midi": 64,
                    "time": 528.3419302500008,
                    "velocity": 0.1968503937007874,
                    "duration": 0.23618324999995366
                },
                {
                    "name": "A3",
                    "midi": 57,
                    "time": 528.5781135000008,
                    "velocity": 0.2283464566929134,
                    "duration": 0.23618324999995366
                },
                {
                    "name": "E4",
                    "midi": 64,
                    "time": 528.8142967500007,
                    "velocity": 0.2125984251968504,
                    "duration": 0.23618324999995366
                },
                {
                    "name": "C#4",
                    "midi": 61,
                    "time": 529.0504800000007,
                    "velocity": 0.28346456692913385,
                    "duration": 0.23618324999995366
                },
                {
                    "name": "E4",
                    "midi": 64,
                    "time": 529.2866632500006,
                    "velocity": 0.23622047244094488,
                    "duration": 0.23618324999995366
                },
                {
                    "name": "A3",
                    "midi": 57,
                    "time": 529.5228465000006,
                    "velocity": 0.23622047244094488,
                    "duration": 0.23618324999995366
                },
                {
                    "name": "E4",
                    "midi": 64,
                    "time": 529.7590297500005,
                    "velocity": 0.1889763779527559,
                    "duration": 0.23618324999995366
                },
                {
                    "name": "G#3",
                    "midi": 56,
                    "time": 529.9952130000005,
                    "velocity": 0.2992125984251969,
                    "duration": 0.23618324999995366
                },
                {
                    "name": "E4",
                    "midi": 64,
                    "time": 530.2313962500004,
                    "velocity": 0.18110236220472442,
                    "duration": 0.23618324999995366
                },
                {
                    "name": "D#4",
                    "midi": 63,
                    "time": 530.4675795000004,
                    "velocity": 0.1968503937007874,
                    "duration": 0.23618324999995366
                },
                {
                    "name": "E4",
                    "midi": 64,
                    "time": 530.7037627500004,
                    "velocity": 0.18110236220472442,
                    "duration": 0.23618324999995366
                },
                {
                    "name": "G#3",
                    "midi": 56,
                    "time": 530.9399460000003,
                    "velocity": 0.28346456692913385,
                    "duration": 0.23618324999995366
                },
                {
                    "name": "E4",
                    "midi": 64,
                    "time": 531.1761292500003,
                    "velocity": 0.1968503937007874,
                    "duration": 0.23618324999995366
                },
                {
                    "name": "D#4",
                    "midi": 63,
                    "time": 531.4123125000002,
                    "velocity": 0.2204724409448819,
                    "duration": 0.23618324999995366
                },
                {
                    "name": "E4",
                    "midi": 64,
                    "time": 531.6484957500002,
                    "velocity": 0.1968503937007874,
                    "duration": 0.23618324999995366
                },
                {
                    "name": "G#3",
                    "midi": 56,
                    "time": 531.8846790000001,
                    "velocity": 0.3228346456692913,
                    "duration": 0.23618324999995366
                },
                {
                    "name": "E4",
                    "midi": 64,
                    "time": 532.1208622500001,
                    "velocity": 0.2283464566929134,
                    "duration": 0.23618324999995366
                },
                {
                    "name": "A3",
                    "midi": 57,
                    "time": 532.3570455,
                    "velocity": 0.25196850393700787,
                    "duration": 0.23618324999995366
                },
                {
                    "name": "E4",
                    "midi": 64,
                    "time": 532.59322875,
                    "velocity": 0.2283464566929134,
                    "duration": 0.23618324999995366
                },
                {
                    "name": "A#3",
                    "midi": 58,
                    "time": 532.8294119999999,
                    "velocity": 0.31496062992125984,
                    "duration": 0.23618324999995366
                },
                {
                    "name": "E4",
                    "midi": 64,
                    "time": 533.0655952499999,
                    "velocity": 0.2204724409448819,
                    "duration": 0.23618324999995366
                },
                {
                    "name": "D#4",
                    "midi": 63,
                    "time": 533.3017784999998,
                    "velocity": 0.2440944881889764,
                    "duration": 0.23618324999995366
                },
                {
                    "name": "E4",
                    "midi": 64,
                    "time": 533.5379617499998,
                    "velocity": 0.2283464566929134,
                    "duration": 0.23618324999995366
                },
                {
                    "name": "B3",
                    "midi": 59,
                    "time": 533.7741449999997,
                    "velocity": 0.28346456692913385,
                    "duration": 0.23618324999995366
                },
                {
                    "name": "E4",
                    "midi": 64,
                    "time": 534.0103282499997,
                    "velocity": 0.1968503937007874,
                    "duration": 0.23618324999995366
                },
                {
                    "name": "D#4",
                    "midi": 63,
                    "time": 534.2465114999997,
                    "velocity": 0.2283464566929134,
                    "duration": 0.23618324999995366
                },
                {
                    "name": "E4",
                    "midi": 64,
                    "time": 534.4826947499996,
                    "velocity": 0.2047244094488189,
                    "duration": 0.23618324999995366
                },
                {
                    "name": "G#3",
                    "midi": 56,
                    "time": 534.7188779999996,
                    "velocity": 0.28346456692913385,
                    "duration": 0.23618324999995366
                },
                {
                    "name": "E4",
                    "midi": 64,
                    "time": 534.9550612499995,
                    "velocity": 0.2204724409448819,
                    "duration": 0.23618324999995366
                },
                {
                    "name": "E3",
                    "midi": 52,
                    "time": 535.1912444999995,
                    "velocity": 0.23622047244094488,
                    "duration": 0.23618324999995366
                },
                {
                    "name": "E4",
                    "midi": 64,
                    "time": 535.4274277499994,
                    "velocity": 0.2204724409448819,
                    "duration": 0.23618324999995366
                },
                {
                    "name": "F#3",
                    "midi": 54,
                    "time": 535.6636109999994,
                    "velocity": 0.2992125984251969,
                    "duration": 0.23618324999995366
                },
                {
                    "name": "E4",
                    "midi": 64,
                    "time": 535.8997942499993,
                    "velocity": 0.2204724409448819,
                    "duration": 0.23618324999995366
                },
                {
                    "name": "D#4",
                    "midi": 63,
                    "time": 536.1359774999993,
                    "velocity": 0.23622047244094488,
                    "duration": 0.23618324999995366
                },
                {
                    "name": "E4",
                    "midi": 64,
                    "time": 536.3721607499992,
                    "velocity": 0.2047244094488189,
                    "duration": 0.23618324999995366
                },
                {
                    "name": "F#3",
                    "midi": 54,
                    "time": 536.6083439999992,
                    "velocity": 0.31496062992125984,
                    "duration": 0.944733000000042
                },
                {
                    "name": "G#3",
                    "midi": 56,
                    "time": 538.4978099999993,
                    "velocity": 0.33858267716535434,
                    "duration": 0.23618324999995366
                },
                {
                    "name": "E4",
                    "midi": 64,
                    "time": 538.7339932499992,
                    "velocity": 0.2677165354330709,
                    "duration": 0.23618324999995366
                },
                {
                    "name": "D#4",
                    "midi": 63,
                    "time": 538.9701764999992,
                    "velocity": 0.2677165354330709,
                    "duration": 0.23618324999995366
                },
                {
                    "name": "E4",
                    "midi": 64,
                    "time": 539.2063597499991,
                    "velocity": 0.2677165354330709,
                    "duration": 0.23618324999995366
                },
                {
                    "name": "G#3",
                    "midi": 56,
                    "time": 539.4425429999991,
                    "velocity": 0.3700787401574803,
                    "duration": 0.944733000000042
                },
                {
                    "name": "E4",
                    "midi": 64,
                    "time": 541.3320089999992,
                    "velocity": 0.3700787401574803,
                    "duration": 0.944733000000042
                },
                {
                    "name": "A3",
                    "midi": 57,
                    "time": 541.3320089999992,
                    "velocity": 0.30708661417322836,
                    "duration": 0.944733000000042
                },
                {
                    "name": "F#3",
                    "midi": 54,
                    "time": 542.2767419999992,
                    "velocity": 0.31496062992125984,
                    "duration": 0.944733000000042
                },
                {
                    "name": "A3",
                    "midi": 57,
                    "time": 542.2767419999992,
                    "velocity": 0.3779527559055118,
                    "duration": 0.944733000000042
                },
                {
                    "name": "D3",
                    "midi": 50,
                    "time": 543.2214749999993,
                    "velocity": 0.33858267716535434,
                    "duration": 0.944733000000042
                },
                {
                    "name": "B3",
                    "midi": 59,
                    "time": 543.2214749999993,
                    "velocity": 0.4015748031496063,
                    "duration": 0.944733000000042
                },
                {
                    "name": "G#3",
                    "midi": 56,
                    "time": 544.1662079999993,
                    "velocity": 0.4094488188976378,
                    "duration": 0.944733000000042
                },
                {
                    "name": "E3",
                    "midi": 52,
                    "time": 544.1662079999993,
                    "velocity": 0.3464566929133858,
                    "duration": 0.944733000000042
                },
                {
                    "name": "A2",
                    "midi": 45,
                    "time": 547.0004069999993,
                    "velocity": 0.5039370078740157,
                    "duration": 0.23618324999995366
                },
                {
                    "name": "A3",
                    "midi": 57,
                    "time": 547.2365902499993,
                    "velocity": 0.3779527559055118,
                    "duration": 0.1771374375000505
                },
                {
                    "name": "A3",
                    "midi": 57,
                    "time": 547.4727734999993,
                    "velocity": 0.4015748031496063,
                    "duration": 0.1771374375000505
                },
                {
                    "name": "A3",
                    "midi": 57,
                    "time": 547.7089567499994,
                    "velocity": 0.3858267716535433,
                    "duration": 0.1771374375000505
                },
                {
                    "name": "A3",
                    "midi": 57,
                    "time": 547.9451399999995,
                    "velocity": 0.3937007874015748,
                    "duration": 0.1771374375000505
                },
                {
                    "name": "A3",
                    "midi": 57,
                    "time": 548.1813232499995,
                    "velocity": 0.2755905511811024,
                    "duration": 0.1771374375000505
                },
                {
                    "name": "A3",
                    "midi": 57,
                    "time": 548.4175064999996,
                    "velocity": 0.2992125984251969,
                    "duration": 0.1771374375000505
                },
                {
                    "name": "A3",
                    "midi": 57,
                    "time": 548.6536897499997,
                    "velocity": 0.29133858267716534,
                    "duration": 0.1771374375000505
                },
                {
                    "name": "A3",
                    "midi": 57,
                    "time": 548.8898729999997,
                    "velocity": 0.33070866141732286,
                    "duration": 0.1771374375000505
                },
                {
                    "name": "A3",
                    "midi": 57,
                    "time": 549.1260562499998,
                    "velocity": 0.29133858267716534,
                    "duration": 0.1771374375000505
                },
                {
                    "name": "A3",
                    "midi": 57,
                    "time": 549.3622394999999,
                    "velocity": 0.31496062992125984,
                    "duration": 0.1771374375000505
                },
                {
                    "name": "A3",
                    "midi": 57,
                    "time": 549.5984227499999,
                    "velocity": 0.29133858267716534,
                    "duration": 0.1771374375000505
                },
                {
                    "name": "A3",
                    "midi": 57,
                    "time": 549.834606,
                    "velocity": 0.3700787401574803,
                    "duration": 0.944733000000042
                },
                {
                    "name": "E2",
                    "midi": 40,
                    "time": 552.668805,
                    "velocity": 0.5039370078740157,
                    "duration": 0.23618324999995366
                },
                {
                    "name": "E3",
                    "midi": 52,
                    "time": 552.90498825,
                    "velocity": 0.36220472440944884,
                    "duration": 0.1771374375000505
                },
                {
                    "name": "E3",
                    "midi": 52,
                    "time": 553.1411715,
                    "velocity": 0.4015748031496063,
                    "duration": 0.1771374375000505
                },
                {
                    "name": "E3",
                    "midi": 52,
                    "time": 553.3773547500001,
                    "velocity": 0.3700787401574803,
                    "duration": 0.1771374375000505
                },
                {
                    "name": "E3",
                    "midi": 52,
                    "time": 553.6135380000002,
                    "velocity": 0.3937007874015748,
                    "duration": 0.1771374375000505
                },
                {
                    "name": "E3",
                    "midi": 52,
                    "time": 553.8497212500002,
                    "velocity": 0.28346456692913385,
                    "duration": 0.1771374375000505
                },
                {
                    "name": "E3",
                    "midi": 52,
                    "time": 554.0859045000003,
                    "velocity": 0.31496062992125984,
                    "duration": 0.1771374375000505
                },
                {
                    "name": "E3",
                    "midi": 52,
                    "time": 554.3220877500004,
                    "velocity": 0.28346456692913385,
                    "duration": 0.1771374375000505
                },
                {
                    "name": "E3",
                    "midi": 52,
                    "time": 554.5582710000004,
                    "velocity": 0.33070866141732286,
                    "duration": 0.1771374375000505
                },
                {
                    "name": "E3",
                    "midi": 52,
                    "time": 554.7944542500005,
                    "velocity": 0.2755905511811024,
                    "duration": 0.1771374375000505
                },
                {
                    "name": "E3",
                    "midi": 52,
                    "time": 555.0306375000006,
                    "velocity": 0.2992125984251969,
                    "duration": 0.1771374375000505
                },
                {
                    "name": "E3",
                    "midi": 52,
                    "time": 555.2668207500006,
                    "velocity": 0.2992125984251969,
                    "duration": 0.1771374375000505
                },
                {
                    "name": "E3",
                    "midi": 52,
                    "time": 555.5030040000007,
                    "velocity": 0.3700787401574803,
                    "duration": 0.944733000000042
                },
                {
                    "name": "E4",
                    "midi": 64,
                    "time": 559.2819360000008,
                    "velocity": 0.31496062992125984,
                    "duration": 0.944733000000042
                },
                {
                    "name": "F#3",
                    "midi": 54,
                    "time": 559.2819360000008,
                    "velocity": 0.31496062992125984,
                    "duration": 0.944733000000042
                },
                {
                    "name": "G#3",
                    "midi": 56,
                    "time": 560.2266690000008,
                    "velocity": 0.31496062992125984,
                    "duration": 0.944733000000042
                },
                {
                    "name": "E4",
                    "midi": 64,
                    "time": 560.2266690000008,
                    "velocity": 0.31496062992125984,
                    "duration": 0.944733000000042
                },
                {
                    "name": "A3",
                    "midi": 57,
                    "time": 561.1714020000009,
                    "velocity": 0.31496062992125984,
                    "duration": 0.944733000000042
                },
                {
                    "name": "E4",
                    "midi": 64,
                    "time": 561.1714020000009,
                    "velocity": 0.31496062992125984,
                    "duration": 0.944733000000042
                },
                {
                    "name": "B3",
                    "midi": 59,
                    "time": 563.0608680000009,
                    "velocity": 0.3700787401574803,
                    "duration": 0.944733000000042
                },
                {
                    "name": "D3",
                    "midi": 50,
                    "time": 563.0608680000009,
                    "velocity": 0.30708661417322836,
                    "duration": 0.944733000000042
                },
                {
                    "name": "F#3",
                    "midi": 54,
                    "time": 563.0608680000009,
                    "velocity": 0.30708661417322836,
                    "duration": 0.944733000000042
                },
                {
                    "name": "E3",
                    "midi": 52,
                    "time": 564.005601000001,
                    "velocity": 0.30708661417322836,
                    "duration": 2.8341990000000123
                },
                {
                    "name": "A3",
                    "midi": 57,
                    "time": 564.005601000001,
                    "velocity": 0.30708661417322836,
                    "duration": 1.8894659999999703
                },
                {
                    "name": "C#4",
                    "midi": 61,
                    "time": 564.005601000001,
                    "velocity": 0.3700787401574803,
                    "duration": 1.8894659999999703
                },
                {
                    "name": "D4",
                    "midi": 62,
                    "time": 565.895067000001,
                    "velocity": 0.31496062992125984,
                    "duration": 0.944733000000042
                },
                {
                    "name": "B3",
                    "midi": 59,
                    "time": 565.895067000001,
                    "velocity": 0.23622047244094488,
                    "duration": 0.944733000000042
                },
                {
                    "name": "A3",
                    "midi": 57,
                    "time": 566.839800000001,
                    "velocity": 0.2204724409448819,
                    "duration": 1.889466000000084
                },
                {
                    "name": "D4",
                    "midi": 62,
                    "time": 566.839800000001,
                    "velocity": 0.2677165354330709,
                    "duration": 0.944733000000042
                },
                {
                    "name": "C#4",
                    "midi": 61,
                    "time": 567.784533000001,
                    "velocity": 0.23622047244094488,
                    "duration": 0.944733000000042
                },
                {
                    "name": "A3",
                    "midi": 57,
                    "time": 569.6739990000011,
                    "velocity": 0.33858267716535434,
                    "duration": 0.23618324999995366
                },
                {
                    "name": "E4",
                    "midi": 64,
                    "time": 569.9101822500011,
                    "velocity": 0.2047244094488189,
                    "duration": 0.23618324999995366
                },
                {
                    "name": "C#4",
                    "midi": 61,
                    "time": 570.146365500001,
                    "velocity": 0.23622047244094488,
                    "duration": 0.23618324999995366
                },
                {
                    "name": "E4",
                    "midi": 64,
                    "time": 570.382548750001,
                    "velocity": 0.1968503937007874,
                    "duration": 0.23618324999995366
                },
                {
                    "name": "A3",
                    "midi": 57,
                    "time": 570.6187320000009,
                    "velocity": 0.33070866141732286,
                    "duration": 0.23618324999995366
                },
                {
                    "name": "E4",
                    "midi": 64,
                    "time": 570.8549152500009,
                    "velocity": 0.2283464566929134,
                    "duration": 0.23618324999995366
                },
                {
                    "name": "C#4",
                    "midi": 61,
                    "time": 571.0910985000008,
                    "velocity": 0.25196850393700787,
                    "duration": 0.23618324999995366
                },
                {
                    "name": "E4",
                    "midi": 64,
                    "time": 571.3272817500008,
                    "velocity": 0.2283464566929134,
                    "duration": 0.23618324999995366
                },
                {
                    "name": "A3",
                    "midi": 57,
                    "time": 571.5634650000007,
                    "velocity": 0.33858267716535434,
                    "duration": 0.23618324999995366
                },
                {
                    "name": "E4",
                    "midi": 64,
                    "time": 571.7996482500007,
                    "velocity": 0.2440944881889764,
                    "duration": 0.23618324999995366
                },
                {
                    "name": "B3",
                    "midi": 59,
                    "time": 572.0358315000007,
                    "velocity": 0.25984251968503935,
                    "duration": 0.23618324999995366
                },
                {
                    "name": "E4",
                    "midi": 64,
                    "time": 572.2720147500006,
                    "velocity": 0.23622047244094488,
                    "duration": 0.23618324999995366
                },
                {
                    "name": "C#4",
                    "midi": 61,
                    "time": 572.5081980000006,
                    "velocity": 0.33070866141732286,
                    "duration": 0.23618324999995366
                },
                {
                    "name": "E4",
                    "midi": 64,
                    "time": 572.7443812500005,
                    "velocity": 0.2283464566929134,
                    "duration": 0.23618324999995366
                },
                {
                    "name": "A3",
                    "midi": 57,
                    "time": 572.9805645000005,
                    "velocity": 0.2440944881889764,
                    "duration": 0.23618324999995366
                },
                {
                    "name": "E4",
                    "midi": 64,
                    "time": 573.2167477500004,
                    "velocity": 0.2204724409448819,
                    "duration": 0.23618324999995366
                },
                {
                    "name": "C#4",
                    "midi": 61,
                    "time": 573.4529310000004,
                    "velocity": 0.28346456692913385,
                    "duration": 0.23618324999995366
                },
                {
                    "name": "E4",
                    "midi": 64,
                    "time": 573.6891142500003,
                    "velocity": 0.2047244094488189,
                    "duration": 0.23618324999995366
                },
                {
                    "name": "A3",
                    "midi": 57,
                    "time": 573.9252975000003,
                    "velocity": 0.2283464566929134,
                    "duration": 0.23618324999995366
                },
                {
                    "name": "E4",
                    "midi": 64,
                    "time": 574.1614807500002,
                    "velocity": 0.2047244094488189,
                    "duration": 0.23618324999995366
                },
                {
                    "name": "C#4",
                    "midi": 61,
                    "time": 574.3976640000002,
                    "velocity": 0.28346456692913385,
                    "duration": 0.23618324999995366
                },
                {
                    "name": "E4",
                    "midi": 64,
                    "time": 574.6338472500001,
                    "velocity": 0.2204724409448819,
                    "duration": 0.23618324999995366
                },
                {
                    "name": "A3",
                    "midi": 57,
                    "time": 574.8700305000001,
                    "velocity": 0.23622047244094488,
                    "duration": 0.23618324999995366
                },
                {
                    "name": "E4",
                    "midi": 64,
                    "time": 575.10621375,
                    "velocity": 0.2047244094488189,
                    "duration": 0.23618324999995366
                },
                {
                    "name": "G#3",
                    "midi": 56,
                    "time": 575.342397,
                    "velocity": 0.2992125984251969,
                    "duration": 0.23618324999995366
                },
                {
                    "name": "E4",
                    "midi": 64,
                    "time": 575.57858025,
                    "velocity": 0.1732283464566929,
                    "duration": 0.23618324999995366
                },
                {
                    "name": "D#4",
                    "midi": 63,
                    "time": 575.8147634999999,
                    "velocity": 0.2125984251968504,
                    "duration": 0.23618324999995366
                },
                {
                    "name": "E4",
                    "midi": 64,
                    "time": 576.0509467499999,
                    "velocity": 0.18110236220472442,
                    "duration": 0.23618324999995366
                },
                {
                    "name": "G#3",
                    "midi": 56,
                    "time": 576.2871299999998,
                    "velocity": 0.28346456692913385,
                    "duration": 0.23618324999995366
                },
                {
                    "name": "E4",
                    "midi": 64,
                    "time": 576.5233132499998,
                    "velocity": 0.2047244094488189,
                    "duration": 0.23618324999995366
                },
                {
                    "name": "D#4",
                    "midi": 63,
                    "time": 576.7594964999997,
                    "velocity": 0.23622047244094488,
                    "duration": 0.23618324999995366
                },
                {
                    "name": "E4",
                    "midi": 64,
                    "time": 576.9956797499997,
                    "velocity": 0.2283464566929134,
                    "duration": 0.23618324999995366
                },
                {
                    "name": "G#3",
                    "midi": 56,
                    "time": 577.2318629999996,
                    "velocity": 0.30708661417322836,
                    "duration": 0.23618324999995366
                },
                {
                    "name": "E4",
                    "midi": 64,
                    "time": 577.4680462499996,
                    "velocity": 0.2440944881889764,
                    "duration": 0.23618324999995366
                },
                {
                    "name": "A3",
                    "midi": 57,
                    "time": 577.7042294999995,
                    "velocity": 0.25984251968503935,
                    "duration": 0.23618324999995366
                },
                {
                    "name": "E4",
                    "midi": 64,
                    "time": 577.9404127499995,
                    "velocity": 0.2992125984251969,
                    "duration": 0.23618324999995366
                },
                {
                    "name": "A#3",
                    "midi": 58,
                    "time": 578.1765959999994,
                    "velocity": 0.33070866141732286,
                    "duration": 0.23618324999995366
                },
                {
                    "name": "E4",
                    "midi": 64,
                    "time": 578.4127792499994,
                    "velocity": 0.2204724409448819,
                    "duration": 0.23618324999995366
                },
                {
                    "name": "D#4",
                    "midi": 63,
                    "time": 578.6489624999994,
                    "velocity": 0.2440944881889764,
                    "duration": 0.23618324999995366
                },
                {
                    "name": "E4",
                    "midi": 64,
                    "time": 578.8851457499993,
                    "velocity": 0.2204724409448819,
                    "duration": 0.23618324999995366
                },
                {
                    "name": "B3",
                    "midi": 59,
                    "time": 579.1213289999993,
                    "velocity": 0.28346456692913385,
                    "duration": 0.23618324999995366
                },
                {
                    "name": "E4",
                    "midi": 64,
                    "time": 579.3575122499992,
                    "velocity": 0.2125984251968504,
                    "duration": 0.23618324999995366
                },
                {
                    "name": "D#4",
                    "midi": 63,
                    "time": 579.5936954999992,
                    "velocity": 0.2283464566929134,
                    "duration": 0.23618324999995366
                },
                {
                    "name": "E4",
                    "midi": 64,
                    "time": 579.8298787499991,
                    "velocity": 0.2125984251968504,
                    "duration": 0.23618324999995366
                },
                {
                    "name": "G#3",
                    "midi": 56,
                    "time": 580.0660619999991,
                    "velocity": 0.28346456692913385,
                    "duration": 0.23618324999995366
                },
                {
                    "name": "E4",
                    "midi": 64,
                    "time": 580.302245249999,
                    "velocity": 0.2204724409448819,
                    "duration": 0.23618324999995366
                },
                {
                    "name": "E3",
                    "midi": 52,
                    "time": 580.538428499999,
                    "velocity": 0.23622047244094488,
                    "duration": 0.23618324999995366
                },
                {
                    "name": "E4",
                    "midi": 64,
                    "time": 580.7746117499989,
                    "velocity": 0.2204724409448819,
                    "duration": 0.23618324999995366
                },
                {
                    "name": "F#3",
                    "midi": 54,
                    "time": 581.0107949999989,
                    "velocity": 0.2992125984251969,
                    "duration": 0.23618324999995366
                },
                {
                    "name": "E4",
                    "midi": 64,
                    "time": 581.2469782499988,
                    "velocity": 0.2283464566929134,
                    "duration": 0.23618324999995366
                },
                {
                    "name": "D#4",
                    "midi": 63,
                    "time": 581.4831614999988,
                    "velocity": 0.23622047244094488,
                    "duration": 0.23618324999995366
                },
                {
                    "name": "E4",
                    "midi": 64,
                    "time": 581.7193447499988,
                    "velocity": 0.2204724409448819,
                    "duration": 0.23618324999995366
                },
                {
                    "name": "F#3",
                    "midi": 54,
                    "time": 581.9555279999987,
                    "velocity": 0.31496062992125984,
                    "duration": 0.944733000000042
                },
                {
                    "name": "G#3",
                    "midi": 56,
                    "time": 583.8449939999988,
                    "velocity": 0.33858267716535434,
                    "duration": 0.23618324999995366
                },
                {
                    "name": "E4",
                    "midi": 64,
                    "time": 584.0811772499987,
                    "velocity": 0.25196850393700787,
                    "duration": 0.23618324999995366
                },
                {
                    "name": "D#4",
                    "midi": 63,
                    "time": 584.3173604999987,
                    "velocity": 0.2677165354330709,
                    "duration": 0.23618324999995366
                },
                {
                    "name": "E4",
                    "midi": 64,
                    "time": 584.5535437499987,
                    "velocity": 0.23622047244094488,
                    "duration": 0.23618324999995366
                },
                {
                    "name": "G#3",
                    "midi": 56,
                    "time": 584.7897269999986,
                    "velocity": 0.3700787401574803,
                    "duration": 0.944733000000042
                },
                {
                    "name": "A3",
                    "midi": 57,
                    "time": 586.6791929999987,
                    "velocity": 0.2755905511811024,
                    "duration": 0.944733000000042
                },
                {
                    "name": "E4",
                    "midi": 64,
                    "time": 586.6791929999987,
                    "velocity": 0.33070866141732286,
                    "duration": 0.944733000000042
                },
                {
                    "name": "A3",
                    "midi": 57,
                    "time": 587.6239259999987,
                    "velocity": 0.33858267716535434,
                    "duration": 0.944733000000042
                },
                {
                    "name": "F#3",
                    "midi": 54,
                    "time": 587.6239259999987,
                    "velocity": 0.28346456692913385,
                    "duration": 0.944733000000042
                },
                {
                    "name": "B3",
                    "midi": 59,
                    "time": 588.5686589999988,
                    "velocity": 0.3543307086614173,
                    "duration": 0.944733000000042
                },
                {
                    "name": "D3",
                    "midi": 50,
                    "time": 588.5686589999988,
                    "velocity": 0.2992125984251969,
                    "duration": 0.944733000000042
                },
                {
                    "name": "E3",
                    "midi": 52,
                    "time": 589.5133919999988,
                    "velocity": 0.30708661417322836,
                    "duration": 0.944733000000042
                },
                {
                    "name": "G#3",
                    "midi": 56,
                    "time": 589.5133919999988,
                    "velocity": 0.36220472440944884,
                    "duration": 0.944733000000042
                },
                {
                    "name": "A2",
                    "midi": 45,
                    "time": 592.3475909999988,
                    "velocity": 0.5039370078740157,
                    "duration": 0.23618324999995366
                },
                {
                    "name": "A3",
                    "midi": 57,
                    "time": 592.5837742499988,
                    "velocity": 0.3700787401574803,
                    "duration": 0.1771374375000505
                },
                {
                    "name": "A3",
                    "midi": 57,
                    "time": 592.8199574999988,
                    "velocity": 0.4015748031496063,
                    "duration": 0.1771374375000505
                },
                {
                    "name": "A3",
                    "midi": 57,
                    "time": 593.0561407499989,
                    "velocity": 0.36220472440944884,
                    "duration": 0.1771374375000505
                },
                {
                    "name": "A3",
                    "midi": 57,
                    "time": 593.292323999999,
                    "velocity": 0.3937007874015748,
                    "duration": 0.1771374375000505
                },
                {
                    "name": "A3",
                    "midi": 57,
                    "time": 593.528507249999,
                    "velocity": 0.25196850393700787,
                    "duration": 0.1771374375000505
                },
                {
                    "name": "A3",
                    "midi": 57,
                    "time": 593.7646904999991,
                    "velocity": 0.29133858267716534,
                    "duration": 0.1771374375000505
                },
                {
                    "name": "A3",
                    "midi": 57,
                    "time": 594.0008737499992,
                    "velocity": 0.25984251968503935,
                    "duration": 0.1771374375000505
                },
                {
                    "name": "A3",
                    "midi": 57,
                    "time": 594.2370569999993,
                    "velocity": 0.33070866141732286,
                    "duration": 0.1771374375000505
                },
                {
                    "name": "A3",
                    "midi": 57,
                    "time": 594.4732402499993,
                    "velocity": 0.2755905511811024,
                    "duration": 0.1771374375000505
                },
                {
                    "name": "A3",
                    "midi": 57,
                    "time": 594.7094234999994,
                    "velocity": 0.30708661417322836,
                    "duration": 0.1771374375000505
                },
                {
                    "name": "A3",
                    "midi": 57,
                    "time": 594.9456067499995,
                    "velocity": 0.2677165354330709,
                    "duration": 0.1771374375000505
                },
                {
                    "name": "A3",
                    "midi": 57,
                    "time": 595.1817899999995,
                    "velocity": 0.3700787401574803,
                    "duration": 0.944733000000042
                },
                {
                    "name": "E2",
                    "midi": 40,
                    "time": 598.0159889999995,
                    "velocity": 0.5039370078740157,
                    "duration": 0.23618324999995366
                },
                {
                    "name": "E3",
                    "midi": 52,
                    "time": 598.2521722499995,
                    "velocity": 0.36220472440944884,
                    "duration": 0.1771374375000505
                },
                {
                    "name": "E3",
                    "midi": 52,
                    "time": 598.4883554999996,
                    "velocity": 0.4015748031496063,
                    "duration": 0.1771374375000505
                },
                {
                    "name": "E3",
                    "midi": 52,
                    "time": 598.7245387499996,
                    "velocity": 0.36220472440944884,
                    "duration": 0.1771374375000505
                },
                {
                    "name": "E3",
                    "midi": 52,
                    "time": 598.9607219999997,
                    "velocity": 0.3937007874015748,
                    "duration": 0.1771374375000505
                },
                {
                    "name": "E3",
                    "midi": 52,
                    "time": 599.1969052499998,
                    "velocity": 0.2677165354330709,
                    "duration": 0.1771374375000505
                },
                {
                    "name": "E3",
                    "midi": 52,
                    "time": 599.4330884999998,
                    "velocity": 0.2992125984251969,
                    "duration": 0.1771374375000505
                },
                {
                    "name": "E3",
                    "midi": 52,
                    "time": 599.6692717499999,
                    "velocity": 0.2677165354330709,
                    "duration": 0.1771374375000505
                },
                {
                    "name": "E3",
                    "midi": 52,
                    "time": 599.905455,
                    "velocity": 0.33070866141732286,
                    "duration": 0.1771374375000505
                },
                {
                    "name": "E3",
                    "midi": 52,
                    "time": 600.14163825,
                    "velocity": 0.2677165354330709,
                    "duration": 0.1771374375000505
                },
                {
                    "name": "E3",
                    "midi": 52,
                    "time": 600.3778215000001,
                    "velocity": 0.2992125984251969,
                    "duration": 0.1771374375000505
                },
                {
                    "name": "E3",
                    "midi": 52,
                    "time": 600.6140047500002,
                    "velocity": 0.2755905511811024,
                    "duration": 0.1771374375000505
                },
                {
                    "name": "E3",
                    "midi": 52,
                    "time": 600.8501880000002,
                    "velocity": 0.3700787401574803,
                    "duration": 0.944733000000042
                },
                {
                    "name": "E4",
                    "midi": 64,
                    "time": 604.6291200000003,
                    "velocity": 0.33858267716535434,
                    "duration": 0.944733000000042
                },
                {
                    "name": "F#3",
                    "midi": 54,
                    "time": 604.6291200000003,
                    "velocity": 0.33858267716535434,
                    "duration": 0.944733000000042
                },
                {
                    "name": "E4",
                    "midi": 64,
                    "time": 605.5738530000003,
                    "velocity": 0.33858267716535434,
                    "duration": 0.944733000000042
                },
                {
                    "name": "G#3",
                    "midi": 56,
                    "time": 605.5738530000003,
                    "velocity": 0.33858267716535434,
                    "duration": 0.944733000000042
                },
                {
                    "name": "E4",
                    "midi": 64,
                    "time": 606.5185860000004,
                    "velocity": 0.33858267716535434,
                    "duration": 0.944733000000042
                },
                {
                    "name": "A3",
                    "midi": 57,
                    "time": 606.5185860000004,
                    "velocity": 0.33858267716535434,
                    "duration": 0.944733000000042
                },
                {
                    "name": "D3",
                    "midi": 50,
                    "time": 608.4080520000005,
                    "velocity": 0.30708661417322836,
                    "duration": 0.944733000000042
                },
                {
                    "name": "B3",
                    "midi": 59,
                    "time": 608.4080520000005,
                    "velocity": 0.3700787401574803,
                    "duration": 0.944733000000042
                },
                {
                    "name": "F#3",
                    "midi": 54,
                    "time": 608.4080520000005,
                    "velocity": 0.30708661417322836,
                    "duration": 0.944733000000042
                },
                {
                    "name": "E3",
                    "midi": 52,
                    "time": 609.3527850000005,
                    "velocity": 0.30708661417322836,
                    "duration": 2.8341990000000123
                },
                {
                    "name": "A3",
                    "midi": 57,
                    "time": 609.3527850000005,
                    "velocity": 0.30708661417322836,
                    "duration": 1.8894659999999703
                },
                {
                    "name": "C#4",
                    "midi": 61,
                    "time": 609.3527850000005,
                    "velocity": 0.3700787401574803,
                    "duration": 1.8894659999999703
                },
                {
                    "name": "D4",
                    "midi": 62,
                    "time": 611.2422510000005,
                    "velocity": 0.31496062992125984,
                    "duration": 0.944733000000042
                },
                {
                    "name": "B3",
                    "midi": 59,
                    "time": 611.2422510000005,
                    "velocity": 0.23622047244094488,
                    "duration": 0.944733000000042
                },
                {
                    "name": "A3",
                    "midi": 57,
                    "time": 612.1869840000005,
                    "velocity": 0.2204724409448819,
                    "duration": 1.889466000000084
                },
                {
                    "name": "D4",
                    "midi": 62,
                    "time": 612.1869840000005,
                    "velocity": 0.2677165354330709,
                    "duration": 0.944733000000042
                },
                {
                    "name": "C#4",
                    "midi": 61,
                    "time": 613.1317170000005,
                    "velocity": 0.25984251968503935,
                    "duration": 0.944733000000042
                },
                {
                    "name": "A3",
                    "midi": 57,
                    "time": 615.0211830000006,
                    "velocity": 0.33858267716535434,
                    "duration": 0.23618324999995366
                },
                {
                    "name": "A4",
                    "midi": 69,
                    "time": 615.2573662500006,
                    "velocity": 0.25196850393700787,
                    "duration": 0.23618324999995366
                },
                {
                    "name": "C#4",
                    "midi": 61,
                    "time": 615.4935495000005,
                    "velocity": 0.29133858267716534,
                    "duration": 0.23618324999995366
                },
                {
                    "name": "A4",
                    "midi": 69,
                    "time": 615.7297327500005,
                    "velocity": 0.25196850393700787,
                    "duration": 0.23618324999995366
                },
                {
                    "name": "A3",
                    "midi": 57,
                    "time": 615.9659160000004,
                    "velocity": 0.3543307086614173,
                    "duration": 0.23618324999995366
                },
                {
                    "name": "G#4",
                    "midi": 68,
                    "time": 616.2020992500004,
                    "velocity": 0.2677165354330709,
                    "duration": 0.23618324999995366
                },
                {
                    "name": "B3",
                    "midi": 59,
                    "time": 616.4382825000004,
                    "velocity": 0.29133858267716534,
                    "duration": 0.23618324999995366
                },
                {
                    "name": "G#4",
                    "midi": 68,
                    "time": 616.6744657500003,
                    "velocity": 0.2677165354330709,
                    "duration": 0.23618324999995366
                },
                {
                    "name": "A3",
                    "midi": 57,
                    "time": 616.9106490000003,
                    "velocity": 0.3700787401574803,
                    "duration": 0.23618324999995366
                },
                {
                    "name": "G4",
                    "midi": 67,
                    "time": 617.1468322500002,
                    "velocity": 0.28346456692913385,
                    "duration": 0.23618324999995366
                },
                {
                    "name": "C#4",
                    "midi": 61,
                    "time": 617.3830155000002,
                    "velocity": 0.33070866141732286,
                    "duration": 0.23618324999995366
                },
                {
                    "name": "G4",
                    "midi": 67,
                    "time": 617.6191987500001,
                    "velocity": 0.2992125984251969,
                    "duration": 0.23618324999995366
                },
                {
                    "name": "A3",
                    "midi": 57,
                    "time": 617.8553820000001,
                    "velocity": 0.3937007874015748,
                    "duration": 0.23618324999995366
                },
                {
                    "name": "F#4",
                    "midi": 66,
                    "time": 618.09156525,
                    "velocity": 0.33858267716535434,
                    "duration": 0.23618324999995366
                },
                {
                    "name": "D4",
                    "midi": 62,
                    "time": 618.3277485,
                    "velocity": 0.36220472440944884,
                    "duration": 0.23618324999995366
                },
                {
                    "name": "F#4",
                    "midi": 66,
                    "time": 618.5639317499999,
                    "velocity": 0.33858267716535434,
                    "duration": 0.23618324999995366
                },
                {
                    "name": "F#3",
                    "midi": 54,
                    "time": 618.8001149999999,
                    "velocity": 0.4251968503937008,
                    "duration": 0.23618324999995366
                },
                {
                    "name": "D4",
                    "midi": 62,
                    "time": 619.0362982499998,
                    "velocity": 0.3464566929133858,
                    "duration": 0.23618324999995366
                },
                {
                    "name": "A3",
                    "midi": 57,
                    "time": 619.2724814999998,
                    "velocity": 0.3700787401574803,
                    "duration": 0.23618324999995366
                },
                {
                    "name": "D4",
                    "midi": 62,
                    "time": 619.5086647499998,
                    "velocity": 0.3464566929133858,
                    "duration": 0.2322468625000056
                },
                {
                    "name": "D3",
                    "midi": 50,
                    "time": 619.7448479999997,
                    "velocity": 0.4015748031496063,
                    "duration": 0.23618324999995366
                },
                {
                    "name": "A3",
                    "midi": 57,
                    "time": 619.9810312499997,
                    "velocity": 0.33858267716535434,
                    "duration": 0.23618324999995366
                },
                {
                    "name": "F#3",
                    "midi": 54,
                    "time": 620.2172144999996,
                    "velocity": 0.36220472440944884,
                    "duration": 0.23618324999995366
                },
                {
                    "name": "A3",
                    "midi": 57,
                    "time": 620.4533977499996,
                    "velocity": 0.33858267716535434,
                    "duration": 0.23618324999995366
                },
                {
                    "name": "A2",
                    "midi": 45,
                    "time": 620.6895809999995,
                    "velocity": 0.4409448818897638,
                    "duration": 0.23618324999995366
                },
                {
                    "name": "F#3",
                    "midi": 54,
                    "time": 620.9257642499995,
                    "velocity": 0.36220472440944884,
                    "duration": 0.23618324999995366
                },
                {
                    "name": "D3",
                    "midi": 50,
                    "time": 621.1619474999994,
                    "velocity": 0.3858267716535433,
                    "duration": 0.23618324999995366
                },
                {
                    "name": "F#3",
                    "midi": 54,
                    "time": 621.3981307499994,
                    "velocity": 0.3700787401574803,
                    "duration": 0.23618324999995366
                },
                {
                    "name": "A2",
                    "midi": 45,
                    "time": 621.6343139999993,
                    "velocity": 0.47244094488188976,
                    "duration": 0.23618324999995366
                },
                {
                    "name": "F#3",
                    "midi": 54,
                    "time": 621.8704972499993,
                    "velocity": 0.4094488188976378,
                    "duration": 0.23618324999995366
                },
                {
                    "name": "D3",
                    "midi": 50,
                    "time": 622.1066804999992,
                    "velocity": 0.4330708661417323,
                    "duration": 0.23618324999995366
                },
                {
                    "name": "F#3",
                    "midi": 54,
                    "time": 622.3428637499992,
                    "velocity": 0.4566929133858268,
                    "duration": 0.23618324999995366
                },
                {
                    "name": "A2",
                    "midi": 45,
                    "time": 622.5790469999992,
                    "velocity": 0.5511811023622047,
                    "duration": 0.23618324999995366
                },
                {
                    "name": "F#3",
                    "midi": 54,
                    "time": 622.8152302499991,
                    "velocity": 0.44881889763779526,
                    "duration": 0.23618324999995366
                },
                {
                    "name": "D3",
                    "midi": 50,
                    "time": 623.0514134999991,
                    "velocity": 0.48031496062992124,
                    "duration": 0.23618324999995366
                },
                {
                    "name": "F#3",
                    "midi": 54,
                    "time": 623.287596749999,
                    "velocity": 0.4645669291338583,
                    "duration": 0.23618324999995366
                },
                {
                    "name": "A2",
                    "midi": 45,
                    "time": 623.523779999999,
                    "velocity": 0.5511811023622047,
                    "duration": 0.944733000000042
                },
                {
                    "name": "D3",
                    "midi": 50,
                    "time": 623.523779999999,
                    "velocity": 0.5511811023622047,
                    "duration": 0.944733000000042
                },
                {
                    "name": "A2",
                    "midi": 45,
                    "time": 624.468512999999,
                    "velocity": 0.41732283464566927,
                    "duration": 0.944733000000042
                },
                {
                    "name": "C#3",
                    "midi": 49,
                    "time": 624.468512999999,
                    "velocity": 0.41732283464566927,
                    "duration": 0.944733000000042
                },
                {
                    "name": "C#4",
                    "midi": 61,
                    "time": 626.3579789999991,
                    "velocity": 0.33858267716535434,
                    "duration": 2.8341990000000123
                },
                {
                    "name": "A3",
                    "midi": 57,
                    "time": 626.3579789999991,
                    "velocity": 0.33858267716535434,
                    "duration": 2.8341990000000123
                },
                {
                    "name": "E4",
                    "midi": 64,
                    "time": 626.3579789999991,
                    "velocity": 0.4015748031496063,
                    "duration": 2.8341990000000123
                },
                {
                    "name": "B3",
                    "midi": 59,
                    "time": 629.1921779999991,
                    "velocity": 0.33858267716535434,
                    "duration": 2.8341990000000123
                },
                {
                    "name": "E4",
                    "midi": 64,
                    "time": 629.1921779999991,
                    "velocity": 0.4015748031496063,
                    "duration": 2.8341990000000123
                },
                {
                    "name": "D4",
                    "midi": 62,
                    "time": 629.1921779999991,
                    "velocity": 0.33858267716535434,
                    "duration": 2.8341990000000123
                },
                {
                    "name": "E4",
                    "midi": 64,
                    "time": 632.0263769999991,
                    "velocity": 0.4251968503937008,
                    "duration": 0.944733000000042
                },
                {
                    "name": "A3",
                    "midi": 57,
                    "time": 632.0263769999991,
                    "velocity": 0.3543307086614173,
                    "duration": 0.944733000000042
                },
                {
                    "name": "C#4",
                    "midi": 61,
                    "time": 632.0263769999991,
                    "velocity": 0.3543307086614173,
                    "duration": 0.944733000000042
                },
                {
                    "name": "G#3",
                    "midi": 56,
                    "time": 632.9711099999992,
                    "velocity": 0.3543307086614173,
                    "duration": 0.944733000000042
                },
                {
                    "name": "B3",
                    "midi": 59,
                    "time": 632.9711099999992,
                    "velocity": 0.3543307086614173,
                    "duration": 0.944733000000042
                },
                {
                    "name": "E4",
                    "midi": 64,
                    "time": 632.9711099999992,
                    "velocity": 0.41732283464566927,
                    "duration": 0.944733000000042
                },
                {
                    "name": "A3",
                    "midi": 57,
                    "time": 633.9158429999992,
                    "velocity": 0.3543307086614173,
                    "duration": 0.944733000000042
                },
                {
                    "name": "E4",
                    "midi": 64,
                    "time": 633.9158429999992,
                    "velocity": 0.41732283464566927,
                    "duration": 0.944733000000042
                },
                {
                    "name": "C#4",
                    "midi": 61,
                    "time": 633.9158429999992,
                    "velocity": 0.3543307086614173,
                    "duration": 0.944733000000042
                },
                {
                    "name": "C#4",
                    "midi": 61,
                    "time": 634.8605759999992,
                    "velocity": 0.44881889763779526,
                    "duration": 0.944733000000042
                },
                {
                    "name": "E3",
                    "midi": 52,
                    "time": 634.8605759999992,
                    "velocity": 0.33858267716535434,
                    "duration": 1.889466000000084
                },
                {
                    "name": "A3",
                    "midi": 57,
                    "time": 634.8605759999992,
                    "velocity": 0.3779527559055118,
                    "duration": 0.944733000000042
                },
                {
                    "name": "G#3",
                    "midi": 56,
                    "time": 635.8053089999993,
                    "velocity": 0.33858267716535434,
                    "duration": 0.944733000000042
                },
                {
                    "name": "B3",
                    "midi": 59,
                    "time": 635.8053089999993,
                    "velocity": 0.4015748031496063,
                    "duration": 0.944733000000042
                },
                {
                    "name": "A3",
                    "midi": 57,
                    "time": 637.6947749999994,
                    "velocity": 0.29133858267716534,
                    "duration": 0.23618324999995366
                },
                {
                    "name": "E4",
                    "midi": 64,
                    "time": 637.9309582499993,
                    "velocity": 0.2204724409448819,
                    "duration": 0.23618324999995366
                },
                {
                    "name": "C#4",
                    "midi": 61,
                    "time": 638.1671414999993,
                    "velocity": 0.25984251968503935,
                    "duration": 0.23618324999995366
                },
                {
                    "name": "E4",
                    "midi": 64,
                    "time": 638.4033247499992,
                    "velocity": 0.2204724409448819,
                    "duration": 0.23618324999995366
                },
                {
                    "name": "A3",
                    "midi": 57,
                    "time": 638.6395079999992,
                    "velocity": 0.33070866141732286,
                    "duration": 0.23618324999995366
                },
                {
                    "name": "E4",
                    "midi": 64,
                    "time": 638.8756912499991,
                    "velocity": 0.2440944881889764,
                    "duration": 0.23618324999995366
                },
                {
                    "name": "C#4",
                    "midi": 61,
                    "time": 639.1118744999991,
                    "velocity": 0.29133858267716534,
                    "duration": 0.23618324999995366
                },
                {
                    "name": "E4",
                    "midi": 64,
                    "time": 639.348057749999,
                    "velocity": 0.25984251968503935,
                    "duration": 0.23618324999995366
                },
                {
                    "name": "A3",
                    "midi": 57,
                    "time": 639.584240999999,
                    "velocity": 0.33070866141732286,
                    "duration": 0.23618324999995366
                },
                {
                    "name": "E4",
                    "midi": 64,
                    "time": 639.820424249999,
                    "velocity": 0.25196850393700787,
                    "duration": 0.23618324999995366
                },
                {
                    "name": "B3",
                    "midi": 59,
                    "time": 640.0566074999989,
                    "velocity": 0.29133858267716534,
                    "duration": 0.23618324999995366
                },
                {
                    "name": "E4",
                    "midi": 64,
                    "time": 640.2927907499989,
                    "velocity": 0.25196850393700787,
                    "duration": 0.23618324999995366
                },
                {
                    "name": "C#4",
                    "midi": 61,
                    "time": 640.5289739999988,
                    "velocity": 0.3464566929133858,
                    "duration": 0.23618324999995366
                },
                {
                    "name": "E4",
                    "midi": 64,
                    "time": 640.7651572499988,
                    "velocity": 0.2204724409448819,
                    "duration": 0.23618324999995366
                },
                {
                    "name": "A3",
                    "midi": 57,
                    "time": 641.0013404999987,
                    "velocity": 0.2440944881889764,
                    "duration": 0.23618324999995366
                },
                {
                    "name": "E4",
                    "midi": 64,
                    "time": 641.2375237499987,
                    "velocity": 0.2125984251968504,
                    "duration": 0.23618324999995366
                },
                {
                    "name": "C#4",
                    "midi": 61,
                    "time": 641.4737069999986,
                    "velocity": 0.2677165354330709,
                    "duration": 0.23618324999995366
                },
                {
                    "name": "E4",
                    "midi": 64,
                    "time": 641.7098902499986,
                    "velocity": 0.1732283464566929,
                    "duration": 0.23618324999995366
                },
                {
                    "name": "A3",
                    "midi": 57,
                    "time": 641.9460734999985,
                    "velocity": 0.2204724409448819,
                    "duration": 0.23618324999995366
                },
                {
                    "name": "E4",
                    "midi": 64,
                    "time": 642.1822567499985,
                    "velocity": 0.18110236220472442,
                    "duration": 0.23618324999995366
                },
                {
                    "name": "C#4",
                    "midi": 61,
                    "time": 642.4184399999984,
                    "velocity": 0.29133858267716534,
                    "duration": 0.23618324999995366
                },
                {
                    "name": "E4",
                    "midi": 64,
                    "time": 642.6546232499984,
                    "velocity": 0.2204724409448819,
                    "duration": 0.23618324999995366
                },
                {
                    "name": "A3",
                    "midi": 57,
                    "time": 642.8908064999983,
                    "velocity": 0.25196850393700787,
                    "duration": 0.23618324999995366
                },
                {
                    "name": "E4",
                    "midi": 64,
                    "time": 643.1269897499983,
                    "velocity": 0.2204724409448819,
                    "duration": 0.23618324999995366
                },
                {
                    "name": "G#3",
                    "midi": 56,
                    "time": 643.3631729999983,
                    "velocity": 0.29133858267716534,
                    "duration": 0.23618324999995366
                },
                {
                    "name": "E4",
                    "midi": 64,
                    "time": 643.5993562499982,
                    "velocity": 0.2283464566929134,
                    "duration": 0.23618324999995366
                },
                {
                    "name": "D#4",
                    "midi": 63,
                    "time": 643.8355394999982,
                    "velocity": 0.25984251968503935,
                    "duration": 0.23618324999995366
                },
                {
                    "name": "E4",
                    "midi": 64,
                    "time": 644.0717227499981,
                    "velocity": 0.23622047244094488,
                    "duration": 0.23618324999995366
                },
                {
                    "name": "G#3",
                    "midi": 56,
                    "time": 644.3079059999981,
                    "velocity": 0.29133858267716534,
                    "duration": 0.23618324999995366
                },
                {
                    "name": "E4",
                    "midi": 64,
                    "time": 644.544089249998,
                    "velocity": 0.2440944881889764,
                    "duration": 0.23618324999995366
                },
                {
                    "name": "D#4",
                    "midi": 63,
                    "time": 644.780272499998,
                    "velocity": 0.25984251968503935,
                    "duration": 0.23618324999995366
                },
                {
                    "name": "E4",
                    "midi": 64,
                    "time": 645.0164557499979,
                    "velocity": 0.23622047244094488,
                    "duration": 0.23618324999995366
                },
                {
                    "name": "G#3",
                    "midi": 56,
                    "time": 645.2526389999979,
                    "velocity": 0.29133858267716534,
                    "duration": 0.23618324999995366
                },
                {
                    "name": "E4",
                    "midi": 64,
                    "time": 645.4888222499978,
                    "velocity": 0.23622047244094488,
                    "duration": 0.23618324999995366
                },
                {
                    "name": "A3",
                    "midi": 57,
                    "time": 645.7250054999978,
                    "velocity": 0.25984251968503935,
                    "duration": 0.23618324999995366
                },
                {
                    "name": "E4",
                    "midi": 64,
                    "time": 645.9611887499977,
                    "velocity": 0.23622047244094488,
                    "duration": 0.23618324999995366
                },
                {
                    "name": "B3",
                    "midi": 59,
                    "time": 646.1973719999977,
                    "velocity": 0.29133858267716534,
                    "duration": 0.23618324999995366
                },
                {
                    "name": "E4",
                    "midi": 64,
                    "time": 646.4335552499977,
                    "velocity": 0.2283464566929134,
                    "duration": 0.23618324999995366
                },
                {
                    "name": "D#4",
                    "midi": 63,
                    "time": 646.6697384999976,
                    "velocity": 0.2440944881889764,
                    "duration": 0.23618324999995366
                },
                {
                    "name": "E4",
                    "midi": 64,
                    "time": 646.9059217499976,
                    "velocity": 0.2204724409448819,
                    "duration": 0.23618324999995366
                },
                {
                    "name": "G#3",
                    "midi": 56,
                    "time": 647.1421049999975,
                    "velocity": 0.2677165354330709,
                    "duration": 0.23618324999995366
                },
                {
                    "name": "E4",
                    "midi": 64,
                    "time": 647.3782882499975,
                    "velocity": 0.1968503937007874,
                    "duration": 0.23618324999995366
                },
                {
                    "name": "B3",
                    "midi": 59,
                    "time": 647.6144714999974,
                    "velocity": 0.2204724409448819,
                    "duration": 0.23618324999995366
                },
                {
                    "name": "E4",
                    "midi": 64,
                    "time": 647.8506547499974,
                    "velocity": 0.2047244094488189,
                    "duration": 0.23618324999995366
                },
                {
                    "name": "E3",
                    "midi": 52,
                    "time": 648.0868379999973,
                    "velocity": 0.31496062992125984,
                    "duration": 0.23618324999995366
                },
                {
                    "name": "E4",
                    "midi": 64,
                    "time": 648.3230212499973,
                    "velocity": 0.23622047244094488,
                    "duration": 0.23618324999995366
                },
                {
                    "name": "G#3",
                    "midi": 56,
                    "time": 648.5592044999972,
                    "velocity": 0.25984251968503935,
                    "duration": 0.23618324999995366
                },
                {
                    "name": "E4",
                    "midi": 64,
                    "time": 648.7953877499972,
                    "velocity": 0.23622047244094488,
                    "duration": 0.23618324999995366
                },
                {
                    "name": "F#3",
                    "midi": 54,
                    "time": 649.0315709999971,
                    "velocity": 0.30708661417322836,
                    "duration": 0.23618324999995366
                },
                {
                    "name": "E4",
                    "midi": 64,
                    "time": 649.2677542499971,
                    "velocity": 0.2204724409448819,
                    "duration": 0.23618324999995366
                },
                {
                    "name": "D#4",
                    "midi": 63,
                    "time": 649.503937499997,
                    "velocity": 0.2440944881889764,
                    "duration": 0.23618324999995366
                },
                {
                    "name": "E4",
                    "midi": 64,
                    "time": 649.740120749997,
                    "velocity": 0.2125984251968504,
                    "duration": 0.23618324999995366
                },
                {
                    "name": "F#3",
                    "midi": 54,
                    "time": 649.976303999997,
                    "velocity": 0.33070866141732286,
                    "duration": 0.23618324999995366
                },
                {
                    "name": "E4",
                    "midi": 64,
                    "time": 650.2124872499969,
                    "velocity": 0.25196850393700787,
                    "duration": 0.23618324999995366
                },
                {
                    "name": "D#4",
                    "midi": 63,
                    "time": 650.4486704999969,
                    "velocity": 0.28346456692913385,
                    "duration": 0.23618324999995366
                },
                {
                    "name": "E4",
                    "midi": 64,
                    "time": 650.6848537499968,
                    "velocity": 0.2677165354330709,
                    "duration": 0.23618324999995366
                },
                {
                    "name": "G#3",
                    "midi": 56,
                    "time": 650.9210369999968,
                    "velocity": 0.33070866141732286,
                    "duration": 0.23618324999995366
                },
                {
                    "name": "E4",
                    "midi": 64,
                    "time": 651.1572202499967,
                    "velocity": 0.2755905511811024,
                    "duration": 0.23618324999995366
                },
                {
                    "name": "D#4",
                    "midi": 63,
                    "time": 651.3934034999967,
                    "velocity": 0.28346456692913385,
                    "duration": 0.23618324999995366
                },
                {
                    "name": "E4",
                    "midi": 64,
                    "time": 651.6295867499966,
                    "velocity": 0.2677165354330709,
                    "duration": 0.23618324999995366
                },
                {
                    "name": "A3",
                    "midi": 57,
                    "time": 651.8657699999966,
                    "velocity": 0.33070866141732286,
                    "duration": 0.944733000000042
                },
                {
                    "name": "D3",
                    "midi": 50,
                    "time": 653.7552359999967,
                    "velocity": 0.29133858267716534,
                    "duration": 0.944733000000042
                },
                {
                    "name": "F#3",
                    "midi": 54,
                    "time": 653.7552359999967,
                    "velocity": 0.33858267716535434,
                    "duration": 0.944733000000042
                },
                {
                    "name": "B3",
                    "midi": 59,
                    "time": 653.7552359999967,
                    "velocity": 0.4015748031496063,
                    "duration": 0.944733000000042
                },
                {
                    "name": "E3",
                    "midi": 52,
                    "time": 654.6999689999967,
                    "velocity": 0.3464566929133858,
                    "duration": 2.8341990000000123
                },
                {
                    "name": "A3",
                    "midi": 57,
                    "time": 654.6999689999967,
                    "velocity": 0.3464566929133858,
                    "duration": 1.8894659999999703
                },
                {
                    "name": "C#4",
                    "midi": 61,
                    "time": 654.6999689999967,
                    "velocity": 0.4251968503937008,
                    "duration": 1.8894659999999703
                },
                {
                    "name": "D4",
                    "midi": 62,
                    "time": 656.5894349999967,
                    "velocity": 0.36220472440944884,
                    "duration": 0.944733000000042
                },
                {
                    "name": "B3",
                    "midi": 59,
                    "time": 656.5894349999967,
                    "velocity": 0.2677165354330709,
                    "duration": 0.944733000000042
                },
                {
                    "name": "D4",
                    "midi": 62,
                    "time": 657.5341679999967,
                    "velocity": 0.25984251968503935,
                    "duration": 1.8894659999999703
                },
                {
                    "name": "A3",
                    "midi": 57,
                    "time": 657.5341679999967,
                    "velocity": 0.25984251968503935,
                    "duration": 2.8341990000000123
                },
                {
                    "name": "E4",
                    "midi": 64,
                    "time": 657.5341679999967,
                    "velocity": 0.30708661417322836,
                    "duration": 2.8341990000000123
                },
                {
                    "name": "C#4",
                    "midi": 61,
                    "time": 659.4236339999967,
                    "velocity": 0.30708661417322836,
                    "duration": 0.944733000000042
                },
                {
                    "name": "A2",
                    "midi": 45,
                    "time": 660.3683669999967,
                    "velocity": 0.48031496062992124,
                    "duration": 0.23618324999995366
                },
                {
                    "name": "C#3",
                    "midi": 49,
                    "time": 660.6045502499967,
                    "velocity": 0.3937007874015748,
                    "duration": 0.23618324999995366
                },
                {
                    "name": "E3",
                    "midi": 52,
                    "time": 660.8407334999966,
                    "velocity": 0.4251968503937008,
                    "duration": 0.23618324999995366
                },
                {
                    "name": "A3",
                    "midi": 57,
                    "time": 661.0769167499966,
                    "velocity": 0.3937007874015748,
                    "duration": 0.23618324999995366
                },
                {
                    "name": "A2",
                    "midi": 45,
                    "time": 661.3130999999966,
                    "velocity": 0.48031496062992124,
                    "duration": 0.23618324999995366
                },
                {
                    "name": "C#3",
                    "midi": 49,
                    "time": 661.5492832499965,
                    "velocity": 0.3937007874015748,
                    "duration": 0.23618324999995366
                },
                {
                    "name": "E3",
                    "midi": 52,
                    "time": 661.7854664999965,
                    "velocity": 0.4251968503937008,
                    "duration": 0.23618324999995366
                },
                {
                    "name": "A3",
                    "midi": 57,
                    "time": 662.0216497499964,
                    "velocity": 0.3937007874015748,
                    "duration": 0.23618324999995366
                },
                {
                    "name": "B2",
                    "midi": 47,
                    "time": 662.2578329999964,
                    "velocity": 0.48031496062992124,
                    "duration": 0.23618324999995366
                },
                {
                    "name": "D3",
                    "midi": 50,
                    "time": 662.4940162499963,
                    "velocity": 0.4094488188976378,
                    "duration": 0.23618324999995366
                },
                {
                    "name": "G#3",
                    "midi": 56,
                    "time": 662.7301994999963,
                    "velocity": 0.4409448818897638,
                    "duration": 0.23618324999995366
                },
                {
                    "name": "B3",
                    "midi": 59,
                    "time": 662.9663827499962,
                    "velocity": 0.4094488188976378,
                    "duration": 0.23618324999995366
                },
                {
                    "name": "C#3",
                    "midi": 49,
                    "time": 663.2025659999962,
                    "velocity": 0.4015748031496063,
                    "duration": 1.8894659999999703
                },
                {
                    "name": "A3",
                    "midi": 57,
                    "time": 663.2025659999962,
                    "velocity": 0.48031496062992124,
                    "duration": 1.8894659999999703
                },
                {
                    "name": "D3",
                    "midi": 50,
                    "time": 665.0920319999962,
                    "velocity": 0.4409448818897638,
                    "duration": 0.944733000000042
                },
                {
                    "name": "A3",
                    "midi": 57,
                    "time": 665.0920319999962,
                    "velocity": 0.5196850393700787,
                    "duration": 0.944733000000042
                },
                {
                    "name": "E3",
                    "midi": 52,
                    "time": 666.0367649999962,
                    "velocity": 0.2755905511811024,
                    "duration": 0.944733000000042
                },
                {
                    "name": "C#4",
                    "midi": 61,
                    "time": 666.0367649999962,
                    "velocity": 0.33070866141732286,
                    "duration": 0.944733000000042
                },
                {
                    "name": "E3",
                    "midi": 52,
                    "time": 666.9814979999962,
                    "velocity": 0.2755905511811024,
                    "duration": 0.944733000000042
                },
                {
                    "name": "C#4",
                    "midi": 61,
                    "time": 666.9814979999962,
                    "velocity": 0.33070866141732286,
                    "duration": 0.944733000000042
                },
                {
                    "name": "E3",
                    "midi": 52,
                    "time": 667.9262309999963,
                    "velocity": 0.2440944881889764,
                    "duration": 0.944733000000042
                },
                {
                    "name": "G#3",
                    "midi": 56,
                    "time": 667.9262309999963,
                    "velocity": 0.2440944881889764,
                    "duration": 0.944733000000042
                },
                {
                    "name": "D4",
                    "midi": 62,
                    "time": 667.9262309999963,
                    "velocity": 0.29133858267716534,
                    "duration": 0.944733000000042
                },
                {
                    "name": "A3",
                    "midi": 57,
                    "time": 668.8709639999963,
                    "velocity": 0.2677165354330709,
                    "duration": 1.889466000000084
                },
                {
                    "name": "D4",
                    "midi": 62,
                    "time": 668.8709639999963,
                    "velocity": 0.3228346456692913,
                    "duration": 0.944733000000042
                },
                {
                    "name": "C#4",
                    "midi": 61,
                    "time": 669.8156969999964,
                    "velocity": 0.3228346456692913,
                    "duration": 0.944733000000042
                },
                {
                    "name": "A3",
                    "midi": 57,
                    "time": 671.7051629999964,
                    "velocity": 0.30708661417322836,
                    "duration": 0.23618324999995366
                },
                {
                    "name": "A4",
                    "midi": 69,
                    "time": 671.9413462499964,
                    "velocity": 0.2283464566929134,
                    "duration": 0.23618324999995366
                },
                {
                    "name": "C#4",
                    "midi": 61,
                    "time": 672.1775294999964,
                    "velocity": 0.28346456692913385,
                    "duration": 0.23618324999995366
                },
                {
                    "name": "A4",
                    "midi": 69,
                    "time": 672.4137127499963,
                    "velocity": 0.25196850393700787,
                    "duration": 0.23618324999995366
                },
                {
                    "name": "A3",
                    "midi": 57,
                    "time": 672.6498959999963,
                    "velocity": 0.3543307086614173,
                    "duration": 0.23618324999995366
                },
                {
                    "name": "G#4",
                    "midi": 68,
                    "time": 672.8860792499962,
                    "velocity": 0.2677165354330709,
                    "duration": 0.23618324999995366
                },
                {
                    "name": "B3",
                    "midi": 59,
                    "time": 673.1222624999962,
                    "velocity": 0.29133858267716534,
                    "duration": 0.23618324999995366
                },
                {
                    "name": "G#4",
                    "midi": 68,
                    "time": 673.3584457499961,
                    "velocity": 0.2677165354330709,
                    "duration": 0.23618324999995366
                },
                {
                    "name": "A3",
                    "midi": 57,
                    "time": 673.5946289999961,
                    "velocity": 0.3700787401574803,
                    "duration": 0.23618324999995366
                },
                {
                    "name": "G4",
                    "midi": 67,
                    "time": 673.830812249996,
                    "velocity": 0.28346456692913385,
                    "duration": 0.23618324999995366
                },
                {
                    "name": "C#4",
                    "midi": 61,
                    "time": 674.066995499996,
                    "velocity": 0.33070866141732286,
                    "duration": 0.23618324999995366
                },
                {
                    "name": "G4",
                    "midi": 67,
                    "time": 674.3031787499959,
                    "velocity": 0.2992125984251969,
                    "duration": 0.23618324999995366
                },
                {
                    "name": "A3",
                    "midi": 57,
                    "time": 674.5393619999959,
                    "velocity": 0.3779527559055118,
                    "duration": 0.23618324999995366
                },
                {
                    "name": "F#4",
                    "midi": 66,
                    "time": 674.7755452499958,
                    "velocity": 0.3228346456692913,
                    "duration": 0.23618324999995366
                },
                {
                    "name": "D4",
                    "midi": 62,
                    "time": 675.0117284999958,
                    "velocity": 0.3464566929133858,
                    "duration": 0.23618324999995366
                },
                {
                    "name": "F#4",
                    "midi": 66,
                    "time": 675.2479117499958,
                    "velocity": 0.3228346456692913,
                    "duration": 0.23618324999995366
                },
                {
                    "name": "F#3",
                    "midi": 54,
                    "time": 675.4840949999957,
                    "velocity": 0.4094488188976378,
                    "duration": 0.23618324999995366
                },
                {
                    "name": "D4",
                    "midi": 62,
                    "time": 675.7202782499957,
                    "velocity": 0.3228346456692913,
                    "duration": 0.23618324999995366
                },
                {
                    "name": "A3",
                    "midi": 57,
                    "time": 675.9564614999956,
                    "velocity": 0.3543307086614173,
                    "duration": 0.23618324999995366
                },
                {
                    "name": "D4",
                    "midi": 62,
                    "time": 676.1926447499956,
                    "velocity": 0.3228346456692913,
                    "duration": 0.2322468625000056
                },
                {
                    "name": "D3",
                    "midi": 50,
                    "time": 676.4288279999955,
                    "velocity": 0.4015748031496063,
                    "duration": 0.23618324999995366
                },
                {
                    "name": "A3",
                    "midi": 57,
                    "time": 676.6650112499955,
                    "velocity": 0.33858267716535434,
                    "duration": 0.23618324999995366
                },
                {
                    "name": "F#3",
                    "midi": 54,
                    "time": 676.9011944999954,
                    "velocity": 0.36220472440944884,
                    "duration": 0.23618324999995366
                },
                {
                    "name": "A3",
                    "midi": 57,
                    "time": 677.1373777499954,
                    "velocity": 0.33858267716535434,
                    "duration": 0.23618324999995366
                },
                {
                    "name": "A2",
                    "midi": 45,
                    "time": 677.3735609999953,
                    "velocity": 0.4409448818897638,
                    "duration": 0.23618324999995366
                },
                {
                    "name": "F#3",
                    "midi": 54,
                    "time": 677.6097442499953,
                    "velocity": 0.3700787401574803,
                    "duration": 0.23618324999995366
                },
                {
                    "name": "D3",
                    "midi": 50,
                    "time": 677.8459274999952,
                    "velocity": 0.3858267716535433,
                    "duration": 0.23618324999995366
                },
                {
                    "name": "F#3",
                    "midi": 54,
                    "time": 678.0821107499952,
                    "velocity": 0.3700787401574803,
                    "duration": 0.23618324999995366
                },
                {
                    "name": "A2",
                    "midi": 45,
                    "time": 678.3182939999951,
                    "velocity": 0.47244094488188976,
                    "duration": 0.23618324999995366
                },
                {
                    "name": "F#3",
                    "midi": 54,
                    "time": 678.5544772499951,
                    "velocity": 0.4094488188976378,
                    "duration": 0.23618324999995366
                },
                {
                    "name": "D3",
                    "midi": 50,
                    "time": 678.790660499995,
                    "velocity": 0.4330708661417323,
                    "duration": 0.23618324999995366
                },
                {
                    "name": "F#3",
                    "midi": 54,
                    "time": 679.026843749995,
                    "velocity": 0.4566929133858268,
                    "duration": 0.23618324999995366
                },
                {
                    "name": "A2",
                    "midi": 45,
                    "time": 679.263026999995,
                    "velocity": 0.5511811023622047,
                    "duration": 0.23618324999995366
                },
                {
                    "name": "F#3",
                    "midi": 54,
                    "time": 679.4992102499949,
                    "velocity": 0.4645669291338583,
                    "duration": 0.23618324999995366
                },
                {
                    "name": "D3",
                    "midi": 50,
                    "time": 679.7353934999949,
                    "velocity": 0.48031496062992124,
                    "duration": 0.23618324999995366
                },
                {
                    "name": "F#3",
                    "midi": 54,
                    "time": 679.9715767499948,
                    "velocity": 0.44881889763779526,
                    "duration": 0.23618324999995366
                },
                {
                    "name": "A2",
                    "midi": 45,
                    "time": 680.2077599999948,
                    "velocity": 0.5511811023622047,
                    "duration": 0.944733000000042
                },
                {
                    "name": "D3",
                    "midi": 50,
                    "time": 680.2077599999948,
                    "velocity": 0.5511811023622047,
                    "duration": 0.944733000000042
                },
                {
                    "name": "A2",
                    "midi": 45,
                    "time": 681.1524929999948,
                    "velocity": 0.41732283464566927,
                    "duration": 0.944733000000042
                },
                {
                    "name": "C#3",
                    "midi": 49,
                    "time": 681.1524929999948,
                    "velocity": 0.41732283464566927,
                    "duration": 0.944733000000042
                },
                {
                    "name": "C#4",
                    "midi": 61,
                    "time": 683.0419589999949,
                    "velocity": 0.33858267716535434,
                    "duration": 2.8341990000000123
                },
                {
                    "name": "A3",
                    "midi": 57,
                    "time": 683.0419589999949,
                    "velocity": 0.33858267716535434,
                    "duration": 2.8341990000000123
                },
                {
                    "name": "E4",
                    "midi": 64,
                    "time": 683.0419589999949,
                    "velocity": 0.4015748031496063,
                    "duration": 2.8341990000000123
                },
                {
                    "name": "B3",
                    "midi": 59,
                    "time": 685.8761579999949,
                    "velocity": 0.33858267716535434,
                    "duration": 2.8341990000000123
                },
                {
                    "name": "E4",
                    "midi": 64,
                    "time": 685.8761579999949,
                    "velocity": 0.4015748031496063,
                    "duration": 2.8341990000000123
                },
                {
                    "name": "D4",
                    "midi": 62,
                    "time": 685.8761579999949,
                    "velocity": 0.33858267716535434,
                    "duration": 2.8341990000000123
                },
                {
                    "name": "E4",
                    "midi": 64,
                    "time": 688.7103569999949,
                    "velocity": 0.4251968503937008,
                    "duration": 0.944733000000042
                },
                {
                    "name": "A3",
                    "midi": 57,
                    "time": 688.7103569999949,
                    "velocity": 0.3543307086614173,
                    "duration": 0.944733000000042
                },
                {
                    "name": "C#4",
                    "midi": 61,
                    "time": 688.7103569999949,
                    "velocity": 0.3543307086614173,
                    "duration": 0.944733000000042
                },
                {
                    "name": "G#3",
                    "midi": 56,
                    "time": 689.655089999995,
                    "velocity": 0.3543307086614173,
                    "duration": 0.944733000000042
                },
                {
                    "name": "B3",
                    "midi": 59,
                    "time": 689.655089999995,
                    "velocity": 0.3543307086614173,
                    "duration": 0.944733000000042
                },
                {
                    "name": "E4",
                    "midi": 64,
                    "time": 689.655089999995,
                    "velocity": 0.41732283464566927,
                    "duration": 0.944733000000042
                },
                {
                    "name": "A3",
                    "midi": 57,
                    "time": 690.599822999995,
                    "velocity": 0.3543307086614173,
                    "duration": 0.944733000000042
                },
                {
                    "name": "E4",
                    "midi": 64,
                    "time": 690.599822999995,
                    "velocity": 0.41732283464566927,
                    "duration": 0.944733000000042
                },
                {
                    "name": "C#4",
                    "midi": 61,
                    "time": 690.599822999995,
                    "velocity": 0.3543307086614173,
                    "duration": 0.944733000000042
                },
                {
                    "name": "C#4",
                    "midi": 61,
                    "time": 691.544555999995,
                    "velocity": 0.44881889763779526,
                    "duration": 0.944733000000042
                },
                {
                    "name": "E3",
                    "midi": 52,
                    "time": 691.544555999995,
                    "velocity": 0.33858267716535434,
                    "duration": 1.889466000000084
                },
                {
                    "name": "A3",
                    "midi": 57,
                    "time": 691.544555999995,
                    "velocity": 0.3779527559055118,
                    "duration": 0.944733000000042
                },
                {
                    "name": "G#3",
                    "midi": 56,
                    "time": 692.4892889999951,
                    "velocity": 0.33858267716535434,
                    "duration": 0.944733000000042
                },
                {
                    "name": "B3",
                    "midi": 59,
                    "time": 692.4892889999951,
                    "velocity": 0.4015748031496063,
                    "duration": 0.944733000000042
                },
                {
                    "name": "A3",
                    "midi": 57,
                    "time": 694.3787549999952,
                    "velocity": 0.29133858267716534,
                    "duration": 0.23618324999995366
                },
                {
                    "name": "E4",
                    "midi": 64,
                    "time": 694.6149382499951,
                    "velocity": 0.2283464566929134,
                    "duration": 0.23618324999995366
                },
                {
                    "name": "C#4",
                    "midi": 61,
                    "time": 694.8511214999951,
                    "velocity": 0.25984251968503935,
                    "duration": 0.23618324999995366
                },
                {
                    "name": "E4",
                    "midi": 64,
                    "time": 695.087304749995,
                    "velocity": 0.2204724409448819,
                    "duration": 0.23618324999995366
                },
                {
                    "name": "A3",
                    "midi": 57,
                    "time": 695.323487999995,
                    "velocity": 0.33070866141732286,
                    "duration": 0.23618324999995366
                },
                {
                    "name": "E4",
                    "midi": 64,
                    "time": 695.559671249995,
                    "velocity": 0.25984251968503935,
                    "duration": 0.23618324999995366
                },
                {
                    "name": "C#4",
                    "midi": 61,
                    "time": 695.7958544999949,
                    "velocity": 0.29133858267716534,
                    "duration": 0.23618324999995366
                },
                {
                    "name": "E4",
                    "midi": 64,
                    "time": 696.0320377499949,
                    "velocity": 0.2204724409448819,
                    "duration": 0.23618324999995366
                },
                {
                    "name": "A3",
                    "midi": 57,
                    "time": 696.2682209999948,
                    "velocity": 0.33070866141732286,
                    "duration": 0.23618324999995366
                },
                {
                    "name": "E4",
                    "midi": 64,
                    "time": 696.5044042499948,
                    "velocity": 0.23622047244094488,
                    "duration": 0.23618324999995366
                },
                {
                    "name": "B3",
                    "midi": 59,
                    "time": 696.7405874999947,
                    "velocity": 0.29133858267716534,
                    "duration": 0.23618324999995366
                },
                {
                    "name": "E4",
                    "midi": 64,
                    "time": 696.9767707499947,
                    "velocity": 0.23622047244094488,
                    "duration": 0.23618324999995366
                },
                {
                    "name": "C#4",
                    "midi": 61,
                    "time": 697.2129539999946,
                    "velocity": 0.3464566929133858,
                    "duration": 0.23618324999995366
                },
                {
                    "name": "E4",
                    "midi": 64,
                    "time": 697.4491372499946,
                    "velocity": 0.2125984251968504,
                    "duration": 0.23618324999995366
                },
                {
                    "name": "A3",
                    "midi": 57,
                    "time": 697.6853204999945,
                    "velocity": 0.2440944881889764,
                    "duration": 0.23618324999995366
                },
                {
                    "name": "E4",
                    "midi": 64,
                    "time": 697.9215037499945,
                    "velocity": 0.2125984251968504,
                    "duration": 0.23618324999995366
                },
                {
                    "name": "C#4",
                    "midi": 61,
                    "time": 698.1576869999944,
                    "velocity": 0.2677165354330709,
                    "duration": 0.23618324999995366
                },
                {
                    "name": "E4",
                    "midi": 64,
                    "time": 698.3938702499944,
                    "velocity": 0.2047244094488189,
                    "duration": 0.23618324999995366
                },
                {
                    "name": "A3",
                    "midi": 57,
                    "time": 698.6300534999943,
                    "velocity": 0.2204724409448819,
                    "duration": 0.23618324999995366
                },
                {
                    "name": "E4",
                    "midi": 64,
                    "time": 698.8662367499943,
                    "velocity": 0.2047244094488189,
                    "duration": 0.23618324999995366
                },
                {
                    "name": "C#4",
                    "midi": 61,
                    "time": 699.1024199999943,
                    "velocity": 0.29133858267716534,
                    "duration": 0.23618324999995366
                },
                {
                    "name": "E4",
                    "midi": 64,
                    "time": 699.3386032499942,
                    "velocity": 0.2283464566929134,
                    "duration": 0.23618324999995366
                },
                {
                    "name": "A3",
                    "midi": 57,
                    "time": 699.5747864999942,
                    "velocity": 0.25196850393700787,
                    "duration": 0.23618324999995366
                },
                {
                    "name": "E4",
                    "midi": 64,
                    "time": 699.8109697499941,
                    "velocity": 0.2204724409448819,
                    "duration": 0.23618324999995366
                },
                {
                    "name": "G#3",
                    "midi": 56,
                    "time": 700.0471529999941,
                    "velocity": 0.29133858267716534,
                    "duration": 0.23618324999995366
                },
                {
                    "name": "E4",
                    "midi": 64,
                    "time": 700.283336249994,
                    "velocity": 0.23622047244094488,
                    "duration": 0.23618324999995366
                },
                {
                    "name": "D#4",
                    "midi": 63,
                    "time": 700.519519499994,
                    "velocity": 0.25984251968503935,
                    "duration": 0.23618324999995366
                },
                {
                    "name": "E4",
                    "midi": 64,
                    "time": 700.7557027499939,
                    "velocity": 0.2283464566929134,
                    "duration": 0.23618324999995366
                },
                {
                    "name": "G#3",
                    "midi": 56,
                    "time": 700.9918859999939,
                    "velocity": 0.29133858267716534,
                    "duration": 0.23618324999995366
                },
                {
                    "name": "E4",
                    "midi": 64,
                    "time": 701.2280692499938,
                    "velocity": 0.23622047244094488,
                    "duration": 0.23618324999995366
                },
                {
                    "name": "D#4",
                    "midi": 63,
                    "time": 701.4642524999938,
                    "velocity": 0.25984251968503935,
                    "duration": 0.23618324999995366
                },
                {
                    "name": "E4",
                    "midi": 64,
                    "time": 701.7004357499937,
                    "velocity": 0.2204724409448819,
                    "duration": 0.23618324999995366
                },
                {
                    "name": "G#3",
                    "midi": 56,
                    "time": 701.9366189999937,
                    "velocity": 0.29133858267716534,
                    "duration": 0.23618324999995366
                },
                {
                    "name": "E4",
                    "midi": 64,
                    "time": 702.1728022499937,
                    "velocity": 0.23622047244094488,
                    "duration": 0.23618324999995366
                },
                {
                    "name": "A3",
                    "midi": 57,
                    "time": 702.4089854999936,
                    "velocity": 0.25984251968503935,
                    "duration": 0.23618324999995366
                },
                {
                    "name": "E4",
                    "midi": 64,
                    "time": 702.6451687499936,
                    "velocity": 0.2204724409448819,
                    "duration": 0.23618324999995366
                },
                {
                    "name": "B3",
                    "midi": 59,
                    "time": 702.8813519999935,
                    "velocity": 0.29133858267716534,
                    "duration": 0.23618324999995366
                },
                {
                    "name": "E4",
                    "midi": 64,
                    "time": 703.1175352499935,
                    "velocity": 0.2204724409448819,
                    "duration": 0.23618324999995366
                },
                {
                    "name": "D#4",
                    "midi": 63,
                    "time": 703.3537184999934,
                    "velocity": 0.2440944881889764,
                    "duration": 0.23618324999995366
                },
                {
                    "name": "E4",
                    "midi": 64,
                    "time": 703.5899017499934,
                    "velocity": 0.2125984251968504,
                    "duration": 0.23618324999995366
                },
                {
                    "name": "G#3",
                    "midi": 56,
                    "time": 703.8260849999933,
                    "velocity": 0.2677165354330709,
                    "duration": 0.23618324999995366
                },
                {
                    "name": "E4",
                    "midi": 64,
                    "time": 704.0622682499933,
                    "velocity": 0.1968503937007874,
                    "duration": 0.23618324999995366
                },
                {
                    "name": "B3",
                    "midi": 59,
                    "time": 704.2984514999932,
                    "velocity": 0.2204724409448819,
                    "duration": 0.23618324999995366
                },
                {
                    "name": "E4",
                    "midi": 64,
                    "time": 704.5346347499932,
                    "velocity": 0.1968503937007874,
                    "duration": 0.23618324999995366
                },
                {
                    "name": "E3",
                    "midi": 52,
                    "time": 704.7708179999931,
                    "velocity": 0.31496062992125984,
                    "duration": 0.23618324999995366
                },
                {
                    "name": "E4",
                    "midi": 64,
                    "time": 705.0070012499931,
                    "velocity": 0.23622047244094488,
                    "duration": 0.23618324999995366
                },
                {
                    "name": "G#3",
                    "midi": 56,
                    "time": 705.243184499993,
                    "velocity": 0.25984251968503935,
                    "duration": 0.23618324999995366
                },
                {
                    "name": "E4",
                    "midi": 64,
                    "time": 705.479367749993,
                    "velocity": 0.2283464566929134,
                    "duration": 0.23618324999995366
                },
                {
                    "name": "F#3",
                    "midi": 54,
                    "time": 705.715550999993,
                    "velocity": 0.30708661417322836,
                    "duration": 0.23618324999995366
                },
                {
                    "name": "E4",
                    "midi": 64,
                    "time": 705.9517342499929,
                    "velocity": 0.2204724409448819,
                    "duration": 0.23618324999995366
                },
                {
                    "name": "D#4",
                    "midi": 63,
                    "time": 706.1879174999929,
                    "velocity": 0.2440944881889764,
                    "duration": 0.23618324999995366
                },
                {
                    "name": "E4",
                    "midi": 64,
                    "time": 706.4241007499928,
                    "velocity": 0.23622047244094488,
                    "duration": 0.23618324999995366
                },
                {
                    "name": "F#3",
                    "midi": 54,
                    "time": 706.6602839999928,
                    "velocity": 0.33070866141732286,
                    "duration": 0.23618324999995366
                },
                {
                    "name": "E4",
                    "midi": 64,
                    "time": 706.8964672499927,
                    "velocity": 0.2677165354330709,
                    "duration": 0.23618324999995366
                },
                {
                    "name": "D#4",
                    "midi": 63,
                    "time": 707.1326504999927,
                    "velocity": 0.28346456692913385,
                    "duration": 0.23618324999995366
                },
                {
                    "name": "E4",
                    "midi": 64,
                    "time": 707.3688337499926,
                    "velocity": 0.25984251968503935,
                    "duration": 0.23618324999995366
                },
                {
                    "name": "G#3",
                    "midi": 56,
                    "time": 707.6050169999926,
                    "velocity": 0.33070866141732286,
                    "duration": 0.23618324999995366
                },
                {
                    "name": "E4",
                    "midi": 64,
                    "time": 707.8412002499925,
                    "velocity": 0.25984251968503935,
                    "duration": 0.23618324999995366
                },
                {
                    "name": "D#4",
                    "midi": 63,
                    "time": 708.0773834999925,
                    "velocity": 0.28346456692913385,
                    "duration": 0.23618324999995366
                },
                {
                    "name": "E4",
                    "midi": 64,
                    "time": 708.3135667499924,
                    "velocity": 0.2677165354330709,
                    "duration": 0.23618324999995366
                },
                {
                    "name": "A3",
                    "midi": 57,
                    "time": 708.5497499999924,
                    "velocity": 0.33070866141732286,
                    "duration": 0.944733000000042
                },
                {
                    "name": "D3",
                    "midi": 50,
                    "time": 710.4392159999925,
                    "velocity": 0.29133858267716534,
                    "duration": 0.944733000000042
                },
                {
                    "name": "F#3",
                    "midi": 54,
                    "time": 710.4392159999925,
                    "velocity": 0.33858267716535434,
                    "duration": 0.944733000000042
                },
                {
                    "name": "B3",
                    "midi": 59,
                    "time": 710.4392159999925,
                    "velocity": 0.4015748031496063,
                    "duration": 0.944733000000042
                },
                {
                    "name": "E3",
                    "midi": 52,
                    "time": 711.3839489999925,
                    "velocity": 0.3464566929133858,
                    "duration": 2.8341990000000123
                },
                {
                    "name": "A3",
                    "midi": 57,
                    "time": 711.3839489999925,
                    "velocity": 0.3464566929133858,
                    "duration": 1.8894659999999703
                },
                {
                    "name": "C#4",
                    "midi": 61,
                    "time": 711.3839489999925,
                    "velocity": 0.4251968503937008,
                    "duration": 1.8894659999999703
                },
                {
                    "name": "D4",
                    "midi": 62,
                    "time": 713.2734149999925,
                    "velocity": 0.36220472440944884,
                    "duration": 0.944733000000042
                },
                {
                    "name": "B3",
                    "midi": 59,
                    "time": 713.2734149999925,
                    "velocity": 0.2677165354330709,
                    "duration": 0.944733000000042
                },
                {
                    "name": "D4",
                    "midi": 62,
                    "time": 714.2181479999925,
                    "velocity": 0.25984251968503935,
                    "duration": 1.8894659999999703
                },
                {
                    "name": "A3",
                    "midi": 57,
                    "time": 714.2181479999925,
                    "velocity": 0.25984251968503935,
                    "duration": 2.8341990000000123
                },
                {
                    "name": "E4",
                    "midi": 64,
                    "time": 714.2181479999925,
                    "velocity": 0.30708661417322836,
                    "duration": 2.8341990000000123
                },
                {
                    "name": "C#4",
                    "midi": 61,
                    "time": 716.1076139999925,
                    "velocity": 0.30708661417322836,
                    "duration": 0.944733000000042
                },
                {
                    "name": "A2",
                    "midi": 45,
                    "time": 717.0523469999926,
                    "velocity": 0.48031496062992124,
                    "duration": 0.23618324999995366
                },
                {
                    "name": "C#3",
                    "midi": 49,
                    "time": 717.2885302499925,
                    "velocity": 0.4015748031496063,
                    "duration": 0.23618324999995366
                },
                {
                    "name": "E3",
                    "midi": 52,
                    "time": 717.5247134999925,
                    "velocity": 0.4251968503937008,
                    "duration": 0.23618324999995366
                },
                {
                    "name": "A3",
                    "midi": 57,
                    "time": 717.7608967499924,
                    "velocity": 0.4015748031496063,
                    "duration": 0.23618324999995366
                },
                {
                    "name": "A2",
                    "midi": 45,
                    "time": 717.9970799999924,
                    "velocity": 0.48031496062992124,
                    "duration": 0.23618324999995366
                },
                {
                    "name": "C#3",
                    "midi": 49,
                    "time": 718.2332632499923,
                    "velocity": 0.4015748031496063,
                    "duration": 0.23618324999995366
                },
                {
                    "name": "E3",
                    "midi": 52,
                    "time": 718.4694464999923,
                    "velocity": 0.4251968503937008,
                    "duration": 0.23618324999995366
                },
                {
                    "name": "A3",
                    "midi": 57,
                    "time": 718.7056297499922,
                    "velocity": 0.4015748031496063,
                    "duration": 0.23618324999995366
                },
                {
                    "name": "B2",
                    "midi": 47,
                    "time": 718.9418129999922,
                    "velocity": 0.48031496062992124,
                    "duration": 0.23618324999995366
                },
                {
                    "name": "D3",
                    "midi": 50,
                    "time": 719.1779962499921,
                    "velocity": 0.4094488188976378,
                    "duration": 0.23618324999995366
                },
                {
                    "name": "G#3",
                    "midi": 56,
                    "time": 719.4141794999921,
                    "velocity": 0.4409448818897638,
                    "duration": 0.23618324999995366
                },
                {
                    "name": "B3",
                    "midi": 59,
                    "time": 719.650362749992,
                    "velocity": 0.4015748031496063,
                    "duration": 0.23618324999995366
                },
                {
                    "name": "C#3",
                    "midi": 49,
                    "time": 719.886545999992,
                    "velocity": 0.4015748031496063,
                    "duration": 1.8894659999999703
                },
                {
                    "name": "A3",
                    "midi": 57,
                    "time": 719.886545999992,
                    "velocity": 0.48031496062992124,
                    "duration": 1.8894659999999703
                },
                {
                    "name": "D3",
                    "midi": 50,
                    "time": 721.776011999992,
                    "velocity": 0.4409448818897638,
                    "duration": 0.944733000000042
                },
                {
                    "name": "A3",
                    "midi": 57,
                    "time": 721.776011999992,
                    "velocity": 0.5196850393700787,
                    "duration": 0.944733000000042
                },
                {
                    "name": "E3",
                    "midi": 52,
                    "time": 722.720744999992,
                    "velocity": 0.2755905511811024,
                    "duration": 0.944733000000042
                },
                {
                    "name": "C#4",
                    "midi": 61,
                    "time": 722.720744999992,
                    "velocity": 0.33070866141732286,
                    "duration": 0.944733000000042
                },
                {
                    "name": "E3",
                    "midi": 52,
                    "time": 723.665477999992,
                    "velocity": 0.2755905511811024,
                    "duration": 0.944733000000042
                },
                {
                    "name": "C#4",
                    "midi": 61,
                    "time": 723.665477999992,
                    "velocity": 0.33070866141732286,
                    "duration": 0.944733000000042
                },
                {
                    "name": "E3",
                    "midi": 52,
                    "time": 724.6102109999921,
                    "velocity": 0.2440944881889764,
                    "duration": 0.944733000000042
                },
                {
                    "name": "G#3",
                    "midi": 56,
                    "time": 724.6102109999921,
                    "velocity": 0.2440944881889764,
                    "duration": 0.944733000000042
                },
                {
                    "name": "D4",
                    "midi": 62,
                    "time": 724.6102109999921,
                    "velocity": 0.29133858267716534,
                    "duration": 0.944733000000042
                },
                {
                    "name": "A3",
                    "midi": 57,
                    "time": 725.5549439999921,
                    "velocity": 0.1889763779527559,
                    "duration": 1.889466000000084
                },
                {
                    "name": "D4",
                    "midi": 62,
                    "time": 725.5549439999921,
                    "velocity": 0.2204724409448819,
                    "duration": 0.944733000000042
                },
                {
                    "name": "C#4",
                    "midi": 61,
                    "time": 726.4996769999922,
                    "velocity": 0.1732283464566929,
                    "duration": 0.944733000000042
                },
                {
                    "name": "A3",
                    "midi": 57,
                    "time": 734.0575409999922,
                    "velocity": 0.3228346456692913,
                    "duration": 0.472366500000021
                },
                {
                    "name": "E4",
                    "midi": 64,
                    "time": 734.5299074999922,
                    "velocity": 0.25196850393700787,
                    "duration": 0.472366500000021
                },
                {
                    "name": "B3",
                    "midi": 59,
                    "time": 735.0022739999922,
                    "velocity": 0.29133858267716534,
                    "duration": 0.472366500000021
                },
                {
                    "name": "E4",
                    "midi": 64,
                    "time": 735.4746404999922,
                    "velocity": 0.25196850393700787,
                    "duration": 0.472366500000021
                },
                {
                    "name": "C#4",
                    "midi": 61,
                    "time": 735.9470069999923,
                    "velocity": 0.33070866141732286,
                    "duration": 0.472366500000021
                },
                {
                    "name": "E4",
                    "midi": 64,
                    "time": 736.4193734999923,
                    "velocity": 0.25984251968503935,
                    "duration": 0.472366500000021
                },
                {
                    "name": "A3",
                    "midi": 57,
                    "time": 736.8917399999923,
                    "velocity": 0.28346456692913385,
                    "duration": 0.472366500000021
                },
                {
                    "name": "E4",
                    "midi": 64,
                    "time": 737.3641064999923,
                    "velocity": 0.25984251968503935,
                    "duration": 0.472366500000021
                },
                {
                    "name": "G#3",
                    "midi": 56,
                    "time": 737.8364729999923,
                    "velocity": 0.33070866141732286,
                    "duration": 0.472366500000021
                },
                {
                    "name": "E4",
                    "midi": 64,
                    "time": 738.3088394999924,
                    "velocity": 0.25984251968503935,
                    "duration": 0.472366500000021
                },
                {
                    "name": "A3",
                    "midi": 57,
                    "time": 738.7812059999924,
                    "velocity": 0.28346456692913385,
                    "duration": 0.472366500000021
                },
                {
                    "name": "E4",
                    "midi": 64,
                    "time": 739.2535724999924,
                    "velocity": 0.25984251968503935,
                    "duration": 0.472366500000021
                },
                {
                    "name": "B3",
                    "midi": 59,
                    "time": 739.7259389999924,
                    "velocity": 0.33070866141732286,
                    "duration": 0.472366500000021
                },
                {
                    "name": "E4",
                    "midi": 64,
                    "time": 740.1983054999924,
                    "velocity": 0.2440944881889764,
                    "duration": 0.472366500000021
                },
                {
                    "name": "D4",
                    "midi": 62,
                    "time": 740.6706719999925,
                    "velocity": 0.2755905511811024,
                    "duration": 0.472366500000021
                },
                {
                    "name": "E4",
                    "midi": 64,
                    "time": 741.1430384999925,
                    "velocity": 0.2440944881889764,
                    "duration": 0.472366500000021
                },
                {
                    "name": "C#4",
                    "midi": 61,
                    "time": 741.6154049999925,
                    "velocity": 0.31496062992125984,
                    "duration": 0.472366500000021
                },
                {
                    "name": "E4",
                    "midi": 64,
                    "time": 742.0877714999925,
                    "velocity": 0.2440944881889764,
                    "duration": 0.472366500000021
                },
                {
                    "name": "C#4",
                    "midi": 61,
                    "time": 742.5601379999925,
                    "velocity": 0.2677165354330709,
                    "duration": 0.472366500000021
                },
                {
                    "name": "E4",
                    "midi": 64,
                    "time": 743.0325044999926,
                    "velocity": 0.2440944881889764,
                    "duration": 0.472366500000021
                },
                {
                    "name": "G#3",
                    "midi": 56,
                    "time": 743.5048709999926,
                    "velocity": 0.30708661417322836,
                    "duration": 0.472366500000021
                },
                {
                    "name": "E4",
                    "midi": 64,
                    "time": 743.9772374999926,
                    "velocity": 0.2440944881889764,
                    "duration": 0.472366500000021
                },
                {
                    "name": "G#3",
                    "midi": 56,
                    "time": 744.4496039999926,
                    "velocity": 0.25984251968503935,
                    "duration": 0.472366500000021
                },
                {
                    "name": "E4",
                    "midi": 64,
                    "time": 744.9219704999927,
                    "velocity": 0.2440944881889764,
                    "duration": 0.472366500000021
                },
                {
                    "name": "A3",
                    "midi": 57,
                    "time": 745.3943369999927,
                    "velocity": 0.31496062992125984,
                    "duration": 0.472366500000021
                },
                {
                    "name": "E4",
                    "midi": 64,
                    "time": 745.8667034999927,
                    "velocity": 0.2440944881889764,
                    "duration": 0.472366500000021
                },
                {
                    "name": "B3",
                    "midi": 59,
                    "time": 746.3390699999927,
                    "velocity": 0.2677165354330709,
                    "duration": 0.472366500000021
                },
                {
                    "name": "E4",
                    "midi": 64,
                    "time": 746.8114364999927,
                    "velocity": 0.2440944881889764,
                    "duration": 0.472366500000021
                },
                {
                    "name": "A3",
                    "midi": 57,
                    "time": 747.2838029999928,
                    "velocity": 0.2992125984251969,
                    "duration": 0.944733000000042
                },
                {
                    "name": "E3",
                    "midi": 52,
                    "time": 747.2838029999928,
                    "velocity": 0.2440944881889764,
                    "duration": 1.417099500000063
                },
                {
                    "name": "G#3",
                    "midi": 56,
                    "time": 748.2285359999928,
                    "velocity": 0.3228346456692913,
                    "duration": 0.472366500000021
                },
                {
                    "name": "A1",
                    "midi": 33,
                    "time": 748.9961315624928,
                    "velocity": 0.5039370078740157,
                    "duration": 0.6495039375000715
                },
                {
                    "name": "C#2",
                    "midi": 37,
                    "time": 749.0551773749928,
                    "velocity": 0.5511811023622047,
                    "duration": 0.5904581250000547
                },
                {
                    "name": "E2",
                    "midi": 40,
                    "time": 749.1142231874928,
                    "velocity": 0.5905511811023622,
                    "duration": 0.5314123125000378
                },
                {
                    "name": "A2",
                    "midi": 45,
                    "time": 749.1732689999928,
                    "velocity": 0.6299212598425197,
                    "duration": 0.472366500000021
                },
                {
                    "name": "A3",
                    "midi": 57,
                    "time": 750.8855975624929,
                    "velocity": 0.4566929133858268,
                    "duration": 0.6495039375000715
                },
                {
                    "name": "C#4",
                    "midi": 61,
                    "time": 750.9446433749929,
                    "velocity": 0.4881889763779528,
                    "duration": 0.5904581250000547
                },
                {
                    "name": "E4",
                    "midi": 64,
                    "time": 751.0036891874929,
                    "velocity": 0.5354330708661418,
                    "duration": 0.5314123125000378
                },
                {
                    "name": "A4",
                    "midi": 69,
                    "time": 751.0627349999929,
                    "velocity": 0.5590551181102362,
                    "duration": 0.472366500000021
                },
                {
                    "name": "E2",
                    "midi": 40,
                    "time": 752.775063562493,
                    "velocity": 0.5511811023622047,
                    "duration": 0.6495039375000715
                },
                {
                    "name": "G#2",
                    "midi": 44,
                    "time": 752.834109374993,
                    "velocity": 0.5669291338582677,
                    "duration": 0.5904581250000547
                },
                {
                    "name": "B2",
                    "midi": 47,
                    "time": 752.893155187493,
                    "velocity": 0.6062992125984252,
                    "duration": 0.5314123125000378
                },
                {
                    "name": "E3",
                    "midi": 52,
                    "time": 752.952200999993,
                    "velocity": 0.6299212598425197,
                    "duration": 0.472366500000021
                },
                {
                    "name": "E3",
                    "midi": 52,
                    "time": 754.664529562493,
                    "velocity": 0.4566929133858268,
                    "duration": 0.6495039375000715
                },
                {
                    "name": "G#3",
                    "midi": 56,
                    "time": 754.7235753749931,
                    "velocity": 0.5354330708661418,
                    "duration": 0.5904581250000547
                },
                {
                    "name": "B3",
                    "midi": 59,
                    "time": 754.7826211874931,
                    "velocity": 0.4881889763779528,
                    "duration": 0.5314123125000378
                },
                {
                    "name": "E4",
                    "midi": 64,
                    "time": 754.8416669999931,
                    "velocity": 0.5590551181102362,
                    "duration": 0.472366500000021
                },
                {
                    "name": "F#2",
                    "midi": 42,
                    "time": 756.7311329999931,
                    "velocity": 0.6299212598425197,
                    "duration": 0.11809162500003367
                },
                {
                    "name": "F#3",
                    "midi": 54,
                    "time": 757.2034994999931,
                    "velocity": 0.5748031496062992,
                    "duration": 0.11809162500003367
                },
                {
                    "name": "G#2",
                    "midi": 44,
                    "time": 757.6758659999931,
                    "velocity": 0.6299212598425197,
                    "duration": 0.11809162500003367
                },
                {
                    "name": "G#3",
                    "midi": 56,
                    "time": 758.1482324999931,
                    "velocity": 0.5748031496062992,
                    "duration": 0.11809162500003367
                },
                {
                    "name": "A3",
                    "midi": 57,
                    "time": 758.6205989999931,
                    "velocity": 0.5905511811023622,
                    "duration": 0.11809162500003367
                },
                {
                    "name": "C#4",
                    "midi": 61,
                    "time": 759.0929654999932,
                    "velocity": 0.6062992125984252,
                    "duration": 0.11809162500003367
                },
                {
                    "name": "D4",
                    "midi": 62,
                    "time": 759.5653319999932,
                    "velocity": 0.6535433070866141,
                    "duration": 0.11809162500003367
                },
                {
                    "name": "G#3",
                    "midi": 56,
                    "time": 760.0376984999932,
                    "velocity": 0.6141732283464567,
                    "duration": 0.11809162500003367
                },
                {
                    "name": "A3",
                    "midi": 57,
                    "time": 760.5100649999932,
                    "velocity": 0.6614173228346457,
                    "duration": 0.11809162500003367
                },
                {
                    "name": "F#3",
                    "midi": 54,
                    "time": 760.9824314999933,
                    "velocity": 0.6062992125984252,
                    "duration": 0.11809162500003367
                },
                {
                    "name": "D3",
                    "midi": 50,
                    "time": 761.4547979999933,
                    "velocity": 0.6299212598425197,
                    "duration": 0.11809162500003367
                },
                {
                    "name": "E3",
                    "midi": 52,
                    "time": 761.9271644999933,
                    "velocity": 0.6220472440944882,
                    "duration": 0.11809162500003367
                },
                {
                    "name": "A2",
                    "midi": 45,
                    "time": 762.3995309999933,
                    "velocity": 0.5905511811023622,
                    "duration": 0.944733000000042
                },
                {
                    "name": "A1",
                    "midi": 33,
                    "time": 763.3442639999934,
                    "velocity": 0.48031496062992124,
                    "duration": 0.8266413750000083
                },
                {
                    "name": "C#2",
                    "midi": 37,
                    "time": 763.3442639999934,
                    "velocity": 0.48031496062992124,
                    "duration": 0.8266413750000083
                },
                {
                    "name": "E2",
                    "midi": 40,
                    "time": 763.3442639999934,
                    "velocity": 0.6141732283464567,
                    "duration": 0.8266413750000083
                },
                {
                    "name": "A3",
                    "midi": 57,
                    "time": 764.2889969999934,
                    "velocity": 0.3228346456692913,
                    "duration": 0.472366500000021
                },
                {
                    "name": "E4",
                    "midi": 64,
                    "time": 764.7613634999934,
                    "velocity": 0.25196850393700787,
                    "duration": 0.472366500000021
                },
                {
                    "name": "B3",
                    "midi": 59,
                    "time": 765.2337299999934,
                    "velocity": 0.29133858267716534,
                    "duration": 0.472366500000021
                },
                {
                    "name": "E4",
                    "midi": 64,
                    "time": 765.7060964999935,
                    "velocity": 0.25196850393700787,
                    "duration": 0.472366500000021
                },
                {
                    "name": "C#4",
                    "midi": 61,
                    "time": 766.1784629999935,
                    "velocity": 0.33070866141732286,
                    "duration": 0.472366500000021
                },
                {
                    "name": "E4",
                    "midi": 64,
                    "time": 766.6508294999935,
                    "velocity": 0.25984251968503935,
                    "duration": 0.472366500000021
                },
                {
                    "name": "A3",
                    "midi": 57,
                    "time": 767.1231959999935,
                    "velocity": 0.28346456692913385,
                    "duration": 0.472366500000021
                },
                {
                    "name": "E4",
                    "midi": 64,
                    "time": 767.5955624999935,
                    "velocity": 0.25984251968503935,
                    "duration": 0.472366500000021
                },
                {
                    "name": "G#3",
                    "midi": 56,
                    "time": 768.0679289999936,
                    "velocity": 0.33070866141732286,
                    "duration": 0.472366500000021
                },
                {
                    "name": "E4",
                    "midi": 64,
                    "time": 768.5402954999936,
                    "velocity": 0.25984251968503935,
                    "duration": 0.472366500000021
                },
                {
                    "name": "A3",
                    "midi": 57,
                    "time": 769.0126619999936,
                    "velocity": 0.28346456692913385,
                    "duration": 0.472366500000021
                },
                {
                    "name": "E4",
                    "midi": 64,
                    "time": 769.4850284999936,
                    "velocity": 0.25984251968503935,
                    "duration": 0.472366500000021
                },
                {
                    "name": "B3",
                    "midi": 59,
                    "time": 769.9573949999937,
                    "velocity": 0.33070866141732286,
                    "duration": 0.472366500000021
                },
                {
                    "name": "E4",
                    "midi": 64,
                    "time": 770.4297614999937,
                    "velocity": 0.2440944881889764,
                    "duration": 0.472366500000021
                },
                {
                    "name": "D4",
                    "midi": 62,
                    "time": 770.9021279999937,
                    "velocity": 0.2755905511811024,
                    "duration": 0.472366500000021
                },
                {
                    "name": "E4",
                    "midi": 64,
                    "time": 771.3744944999937,
                    "velocity": 0.2440944881889764,
                    "duration": 0.472366500000021
                },
                {
                    "name": "C#4",
                    "midi": 61,
                    "time": 771.8468609999937,
                    "velocity": 0.31496062992125984,
                    "duration": 0.472366500000021
                },
                {
                    "name": "E4",
                    "midi": 64,
                    "time": 772.3192274999938,
                    "velocity": 0.2440944881889764,
                    "duration": 0.472366500000021
                },
                {
                    "name": "C#4",
                    "midi": 61,
                    "time": 772.7915939999938,
                    "velocity": 0.2677165354330709,
                    "duration": 0.472366500000021
                },
                {
                    "name": "E4",
                    "midi": 64,
                    "time": 773.2639604999938,
                    "velocity": 0.2440944881889764,
                    "duration": 0.472366500000021
                },
                {
                    "name": "G#3",
                    "midi": 56,
                    "time": 773.7363269999938,
                    "velocity": 0.30708661417322836,
                    "duration": 0.472366500000021
                },
                {
                    "name": "E4",
                    "midi": 64,
                    "time": 774.2086934999938,
                    "velocity": 0.2440944881889764,
                    "duration": 0.472366500000021
                },
                {
                    "name": "G#3",
                    "midi": 56,
                    "time": 774.6810599999939,
                    "velocity": 0.25984251968503935,
                    "duration": 0.472366500000021
                },
                {
                    "name": "E4",
                    "midi": 64,
                    "time": 775.1534264999939,
                    "velocity": 0.2440944881889764,
                    "duration": 0.472366500000021
                },
                {
                    "name": "A3",
                    "midi": 57,
                    "time": 775.6257929999939,
                    "velocity": 0.31496062992125984,
                    "duration": 0.472366500000021
                },
                {
                    "name": "E4",
                    "midi": 64,
                    "time": 776.0981594999939,
                    "velocity": 0.2440944881889764,
                    "duration": 0.472366500000021
                },
                {
                    "name": "B3",
                    "midi": 59,
                    "time": 776.570525999994,
                    "velocity": 0.2677165354330709,
                    "duration": 0.472366500000021
                },
                {
                    "name": "E4",
                    "midi": 64,
                    "time": 777.042892499994,
                    "velocity": 0.2440944881889764,
                    "duration": 0.472366500000021
                },
                {
                    "name": "A3",
                    "midi": 57,
                    "time": 777.515258999994,
                    "velocity": 0.2992125984251969,
                    "duration": 0.944733000000042
                },
                {
                    "name": "E3",
                    "midi": 52,
                    "time": 777.515258999994,
                    "velocity": 0.2440944881889764,
                    "duration": 1.417099500000063
                },
                {
                    "name": "G#3",
                    "midi": 56,
                    "time": 778.459991999994,
                    "velocity": 0.3228346456692913,
                    "duration": 0.472366500000021
                },
                {
                    "name": "A1",
                    "midi": 33,
                    "time": 779.227587562494,
                    "velocity": 0.4645669291338583,
                    "duration": 0.6495039375000715
                },
                {
                    "name": "C#2",
                    "midi": 37,
                    "time": 779.286633374994,
                    "velocity": 0.5511811023622047,
                    "duration": 0.5904581250000547
                },
                {
                    "name": "E2",
                    "midi": 40,
                    "time": 779.345679187494,
                    "velocity": 0.5905511811023622,
                    "duration": 0.5314123125000378
                },
                {
                    "name": "A2",
                    "midi": 45,
                    "time": 779.4047249999941,
                    "velocity": 0.6299212598425197,
                    "duration": 0.472366500000021
                },
                {
                    "name": "A3",
                    "midi": 57,
                    "time": 781.1170535624941,
                    "velocity": 0.4566929133858268,
                    "duration": 0.6495039375000715
                },
                {
                    "name": "C#4",
                    "midi": 61,
                    "time": 781.1760993749941,
                    "velocity": 0.4881889763779528,
                    "duration": 0.5904581250000547
                },
                {
                    "name": "E4",
                    "midi": 64,
                    "time": 781.2351451874941,
                    "velocity": 0.5354330708661418,
                    "duration": 0.5314123125000378
                },
                {
                    "name": "A4",
                    "midi": 69,
                    "time": 781.2941909999942,
                    "velocity": 0.5590551181102362,
                    "duration": 0.472366500000021
                },
                {
                    "name": "E2",
                    "midi": 40,
                    "time": 783.0065195624942,
                    "velocity": 0.5511811023622047,
                    "duration": 0.6495039375000715
                },
                {
                    "name": "G#2",
                    "midi": 44,
                    "time": 783.0655653749942,
                    "velocity": 0.5669291338582677,
                    "duration": 0.5904581250000547
                },
                {
                    "name": "B2",
                    "midi": 47,
                    "time": 783.1246111874942,
                    "velocity": 0.6062992125984252,
                    "duration": 0.5314123125000378
                },
                {
                    "name": "E3",
                    "midi": 52,
                    "time": 783.1836569999942,
                    "velocity": 0.6299212598425197,
                    "duration": 0.472366500000021
                },
                {
                    "name": "E3",
                    "midi": 52,
                    "time": 784.8959855624943,
                    "velocity": 0.4566929133858268,
                    "duration": 0.6495039375000715
                },
                {
                    "name": "G#3",
                    "midi": 56,
                    "time": 784.9550313749943,
                    "velocity": 0.5354330708661418,
                    "duration": 0.5904581250000547
                },
                {
                    "name": "B3",
                    "midi": 59,
                    "time": 785.0140771874943,
                    "velocity": 0.4881889763779528,
                    "duration": 0.5314123125000378
                },
                {
                    "name": "E4",
                    "midi": 64,
                    "time": 785.0731229999943,
                    "velocity": 0.5590551181102362,
                    "duration": 0.472366500000021
                },
                {
                    "name": "F#2",
                    "midi": 42,
                    "time": 786.9625889999943,
                    "velocity": 0.6299212598425197,
                    "duration": 0.11809162500003367
                },
                {
                    "name": "F#3",
                    "midi": 54,
                    "time": 787.4349554999943,
                    "velocity": 0.5748031496062992,
                    "duration": 0.11809162500003367
                },
                {
                    "name": "G#2",
                    "midi": 44,
                    "time": 787.9073219999943,
                    "velocity": 0.6299212598425197,
                    "duration": 0.11809162500003367
                },
                {
                    "name": "G#3",
                    "midi": 56,
                    "time": 788.3796884999944,
                    "velocity": 0.5748031496062992,
                    "duration": 0.11809162500003367
                },
                {
                    "name": "A3",
                    "midi": 57,
                    "time": 788.8520549999944,
                    "velocity": 0.5905511811023622,
                    "duration": 0.11809162500003367
                },
                {
                    "name": "C#4",
                    "midi": 61,
                    "time": 789.3244214999944,
                    "velocity": 0.6062992125984252,
                    "duration": 0.11809162500003367
                },
                {
                    "name": "D4",
                    "midi": 62,
                    "time": 789.7967879999944,
                    "velocity": 0.6535433070866141,
                    "duration": 0.11809162500003367
                },
                {
                    "name": "G#3",
                    "midi": 56,
                    "time": 790.2691544999944,
                    "velocity": 0.6141732283464567,
                    "duration": 0.11809162500003367
                },
                {
                    "name": "A3",
                    "midi": 57,
                    "time": 790.7415209999945,
                    "velocity": 0.6614173228346457,
                    "duration": 0.11809162500003367
                },
                {
                    "name": "F#3",
                    "midi": 54,
                    "time": 791.2138874999945,
                    "velocity": 0.6062992125984252,
                    "duration": 0.11809162500003367
                },
                {
                    "name": "D3",
                    "midi": 50,
                    "time": 791.6862539999945,
                    "velocity": 0.6299212598425197,
                    "duration": 0.11809162500003367
                },
                {
                    "name": "E3",
                    "midi": 52,
                    "time": 792.1586204999945,
                    "velocity": 0.6220472440944882,
                    "duration": 0.11809162500003367
                },
                {
                    "name": "A2",
                    "midi": 45,
                    "time": 792.6309869999945,
                    "velocity": 0.5905511811023622,
                    "duration": 0.944733000000042
                },
                {
                    "name": "A1",
                    "midi": 33,
                    "time": 793.5757199999946,
                    "velocity": 0.48031496062992124,
                    "duration": 0.944733000000042
                },
                {
                    "name": "C#2",
                    "midi": 37,
                    "time": 793.5757199999946,
                    "velocity": 0.48031496062992124,
                    "duration": 0.944733000000042
                },
                {
                    "name": "E2",
                    "midi": 40,
                    "time": 793.5757199999946,
                    "velocity": 0.6141732283464567,
                    "duration": 0.944733000000042
                },
                {
                    "name": "A3",
                    "midi": 57,
                    "time": 794.5204529999946,
                    "velocity": 0.31496062992125984,
                    "duration": 0.472366500000021
                },
                {
                    "name": "E4",
                    "midi": 64,
                    "time": 794.9928194999947,
                    "velocity": 0.28346456692913385,
                    "duration": 0.472366500000021
                },
                {
                    "name": "C#4",
                    "midi": 61,
                    "time": 795.4651859999947,
                    "velocity": 0.28346456692913385,
                    "duration": 0.472366500000021
                },
                {
                    "name": "E4",
                    "midi": 64,
                    "time": 795.9375524999947,
                    "velocity": 0.28346456692913385,
                    "duration": 0.472366500000021
                },
                {
                    "name": "A3",
                    "midi": 57,
                    "time": 796.4099189999947,
                    "velocity": 0.33858267716535434,
                    "duration": 0.472366500000021
                },
                {
                    "name": "F#4",
                    "midi": 66,
                    "time": 796.8822854999947,
                    "velocity": 0.2755905511811024,
                    "duration": 0.472366500000021
                },
                {
                    "name": "D4",
                    "midi": 62,
                    "time": 797.3546519999948,
                    "velocity": 0.2755905511811024,
                    "duration": 0.472366500000021
                },
                {
                    "name": "F#4",
                    "midi": 66,
                    "time": 797.8270184999948,
                    "velocity": 0.2755905511811024,
                    "duration": 0.472366500000021
                },
                {
                    "name": "A3",
                    "midi": 57,
                    "time": 798.2993849999948,
                    "velocity": 0.33858267716535434,
                    "duration": 0.472366500000021
                },
                {
                    "name": "F#4",
                    "midi": 66,
                    "time": 798.7717514999948,
                    "velocity": 0.2755905511811024,
                    "duration": 0.472366500000021
                },
                {
                    "name": "D4",
                    "midi": 62,
                    "time": 799.2441179999948,
                    "velocity": 0.29133858267716534,
                    "duration": 0.472366500000021
                },
                {
                    "name": "F#4",
                    "midi": 66,
                    "time": 799.7164844999949,
                    "velocity": 0.30708661417322836,
                    "duration": 0.472366500000021
                },
                {
                    "name": "A3",
                    "midi": 57,
                    "time": 800.1888509999949,
                    "velocity": 0.3464566929133858,
                    "duration": 0.472366500000021
                },
                {
                    "name": "E4",
                    "midi": 64,
                    "time": 800.6612174999949,
                    "velocity": 0.2755905511811024,
                    "duration": 0.472366500000021
                },
                {
                    "name": "C#4",
                    "midi": 61,
                    "time": 801.1335839999949,
                    "velocity": 0.2755905511811024,
                    "duration": 0.472366500000021
                },
                {
                    "name": "E4",
                    "midi": 64,
                    "time": 801.605950499995,
                    "velocity": 0.2755905511811024,
                    "duration": 0.472366500000021
                },
                {
                    "name": "A2",
                    "midi": 45,
                    "time": 801.9011795624949,
                    "velocity": 0.4330708661417323,
                    "duration": 0.6495039375000715
                },
                {
                    "name": "C#3",
                    "midi": 49,
                    "time": 801.9602253749949,
                    "velocity": 0.4645669291338583,
                    "duration": 0.5904581250000547
                },
                {
                    "name": "E3",
                    "midi": 52,
                    "time": 802.019271187495,
                    "velocity": 0.5118110236220472,
                    "duration": 0.5314123125000378
                },
                {
                    "name": "A3",
                    "midi": 57,
                    "time": 802.078316999995,
                    "velocity": 0.5354330708661418,
                    "duration": 0.472366500000021
                },
                {
                    "name": "B2",
                    "midi": 47,
                    "time": 803.790645562495,
                    "velocity": 0.4330708661417323,
                    "duration": 0.6495039375000715
                },
                {
                    "name": "D3",
                    "midi": 50,
                    "time": 803.849691374995,
                    "velocity": 0.4645669291338583,
                    "duration": 0.5904581250000547
                },
                {
                    "name": "G#3",
                    "midi": 56,
                    "time": 803.908737187495,
                    "velocity": 0.5118110236220472,
                    "duration": 0.5314123125000378
                },
                {
                    "name": "B3",
                    "midi": 59,
                    "time": 803.967782999995,
                    "velocity": 0.5354330708661418,
                    "duration": 0.472366500000021
                },
                {
                    "name": "C#3",
                    "midi": 49,
                    "time": 805.6801115624951,
                    "velocity": 0.4645669291338583,
                    "duration": 0.6495039375000715
                },
                {
                    "name": "E3",
                    "midi": 52,
                    "time": 805.7391573749951,
                    "velocity": 0.48031496062992124,
                    "duration": 0.5904581250000547
                },
                {
                    "name": "A3",
                    "midi": 57,
                    "time": 805.7982031874951,
                    "velocity": 0.5196850393700787,
                    "duration": 0.5117303750000701
                },
                {
                    "name": "C#4",
                    "midi": 61,
                    "time": 805.8572489999951,
                    "velocity": 0.5354330708661418,
                    "duration": 0.472366500000021
                },
                {
                    "name": "D3",
                    "midi": 50,
                    "time": 806.6248445624951,
                    "velocity": 0.4645669291338583,
                    "duration": 0.6495039375000715
                },
                {
                    "name": "F#3",
                    "midi": 54,
                    "time": 806.6838903749951,
                    "velocity": 0.48031496062992124,
                    "duration": 0.5904581250000547
                },
                {
                    "name": "B3",
                    "midi": 59,
                    "time": 806.7429361874952,
                    "velocity": 0.5196850393700787,
                    "duration": 0.5117303750000701
                },
                {
                    "name": "D4",
                    "midi": 62,
                    "time": 806.8019819999952,
                    "velocity": 0.5354330708661418,
                    "duration": 0.472366500000021
                },
                {
                    "name": "E3",
                    "midi": 52,
                    "time": 807.5695775624952,
                    "velocity": 0.4330708661417323,
                    "duration": 0.6495039375000715
                },
                {
                    "name": "G#3",
                    "midi": 56,
                    "time": 807.6286233749952,
                    "velocity": 0.5118110236220472,
                    "duration": 0.5904581250000547
                },
                {
                    "name": "B3",
                    "midi": 59,
                    "time": 807.6876691874952,
                    "velocity": 0.4645669291338583,
                    "duration": 0.5314123125000378
                },
                {
                    "name": "E4",
                    "midi": 64,
                    "time": 807.7467149999952,
                    "velocity": 0.5354330708661418,
                    "duration": 0.472366500000021
                },
                {
                    "name": "D4",
                    "midi": 62,
                    "time": 808.9276312499952,
                    "velocity": 0.3700787401574803,
                    "duration": 0.23618324999995366
                },
                {
                    "name": "C#4",
                    "midi": 61,
                    "time": 809.1638144999952,
                    "velocity": 0.3464566929133858,
                    "duration": 0.23618324999995366
                },
                {
                    "name": "B3",
                    "midi": 59,
                    "time": 809.3999977499951,
                    "velocity": 0.3228346456692913,
                    "duration": 0.23618324999995366
                },
                {
                    "name": "A3",
                    "midi": 57,
                    "time": 809.6361809999951,
                    "velocity": 0.3228346456692913,
                    "duration": 0.472366500000021
                },
                {
                    "name": "E4",
                    "midi": 64,
                    "time": 810.1085474999951,
                    "velocity": 0.25196850393700787,
                    "duration": 0.472366500000021
                },
                {
                    "name": "B3",
                    "midi": 59,
                    "time": 810.5809139999951,
                    "velocity": 0.29133858267716534,
                    "duration": 0.472366500000021
                },
                {
                    "name": "E4",
                    "midi": 64,
                    "time": 811.0532804999951,
                    "velocity": 0.25196850393700787,
                    "duration": 0.472366500000021
                },
                {
                    "name": "C#4",
                    "midi": 61,
                    "time": 811.5256469999952,
                    "velocity": 0.33070866141732286,
                    "duration": 0.472366500000021
                },
                {
                    "name": "E4",
                    "midi": 64,
                    "time": 811.9980134999952,
                    "velocity": 0.25984251968503935,
                    "duration": 0.472366500000021
                },
                {
                    "name": "A3",
                    "midi": 57,
                    "time": 812.4703799999952,
                    "velocity": 0.28346456692913385,
                    "duration": 0.472366500000021
                },
                {
                    "name": "E4",
                    "midi": 64,
                    "time": 812.9427464999952,
                    "velocity": 0.25984251968503935,
                    "duration": 0.472366500000021
                },
                {
                    "name": "G#3",
                    "midi": 56,
                    "time": 813.4151129999952,
                    "velocity": 0.33070866141732286,
                    "duration": 0.472366500000021
                },
                {
                    "name": "E4",
                    "midi": 64,
                    "time": 813.8874794999953,
                    "velocity": 0.25984251968503935,
                    "duration": 0.472366500000021
                },
                {
                    "name": "A3",
                    "midi": 57,
                    "time": 814.3598459999953,
                    "velocity": 0.28346456692913385,
                    "duration": 0.472366500000021
                },
                {
                    "name": "E4",
                    "midi": 64,
                    "time": 814.8322124999953,
                    "velocity": 0.25984251968503935,
                    "duration": 0.472366500000021
                },
                {
                    "name": "B3",
                    "midi": 59,
                    "time": 815.3045789999953,
                    "velocity": 0.33070866141732286,
                    "duration": 0.472366500000021
                },
                {
                    "name": "E4",
                    "midi": 64,
                    "time": 815.7769454999953,
                    "velocity": 0.2440944881889764,
                    "duration": 0.472366500000021
                },
                {
                    "name": "G#3",
                    "midi": 56,
                    "time": 816.2493119999954,
                    "velocity": 0.2755905511811024,
                    "duration": 0.472366500000021
                },
                {
                    "name": "E4",
                    "midi": 64,
                    "time": 816.7216784999954,
                    "velocity": 0.2440944881889764,
                    "duration": 0.472366500000021
                },
                {
                    "name": "F#3",
                    "midi": 54,
                    "time": 817.1940449999954,
                    "velocity": 0.31496062992125984,
                    "duration": 0.472366500000021
                },
                {
                    "name": "E4",
                    "midi": 64,
                    "time": 817.6664114999954,
                    "velocity": 0.2440944881889764,
                    "duration": 0.472366500000021
                },
                {
                    "name": "G#3",
                    "midi": 56,
                    "time": 818.1387779999955,
                    "velocity": 0.2677165354330709,
                    "duration": 0.472366500000021
                },
                {
                    "name": "E4",
                    "midi": 64,
                    "time": 818.6111444999955,
                    "velocity": 0.2440944881889764,
                    "duration": 0.472366500000021
                },
                {
                    "name": "A3",
                    "midi": 57,
                    "time": 819.0835109999955,
                    "velocity": 0.30708661417322836,
                    "duration": 0.472366500000021
                },
                {
                    "name": "E4",
                    "midi": 64,
                    "time": 819.5558774999955,
                    "velocity": 0.2440944881889764,
                    "duration": 0.472366500000021
                },
                {
                    "name": "D3",
                    "midi": 50,
                    "time": 820.0282439999955,
                    "velocity": 0.25984251968503935,
                    "duration": 0.472366500000021
                },
                {
                    "name": "B3",
                    "midi": 59,
                    "time": 820.5006104999956,
                    "velocity": 0.2440944881889764,
                    "duration": 0.472366500000021
                },
                {
                    "name": "E3",
                    "midi": 52,
                    "time": 820.9729769999956,
                    "velocity": 0.31496062992125984,
                    "duration": 0.472366500000021
                },
                {
                    "name": "A3",
                    "midi": 57,
                    "time": 821.4453434999956,
                    "velocity": 0.2440944881889764,
                    "duration": 0.472366500000021
                },
                {
                    "name": "E3",
                    "midi": 52,
                    "time": 821.9177099999956,
                    "velocity": 0.2677165354330709,
                    "duration": 0.472366500000021
                },
                {
                    "name": "G#3",
                    "midi": 56,
                    "time": 822.3900764999956,
                    "velocity": 0.2440944881889764,
                    "duration": 0.472366500000021
                },
                {
                    "name": "E4",
                    "midi": 64,
                    "time": 822.8624429999957,
                    "velocity": 0.25196850393700787,
                    "duration": 1.417099500000063
                },
                {
                    "name": "D4",
                    "midi": 62,
                    "time": 822.8624429999957,
                    "velocity": 0.2992125984251969,
                    "duration": 0.944733000000042
                },
                {
                    "name": "A3",
                    "midi": 57,
                    "time": 822.8624429999957,
                    "velocity": 0.2047244094488189,
                    "duration": 1.417099500000063
                },
                {
                    "name": "C#4",
                    "midi": 61,
                    "time": 823.8071759999957,
                    "velocity": 0.2440944881889764,
                    "duration": 0.472366500000021
                },
                {
                    "name": "A2",
                    "midi": 45,
                    "time": 824.7519089999957,
                    "velocity": 0.5196850393700787,
                    "duration": 0.23618324999995366
                },
                {
                    "name": "C#3",
                    "midi": 49,
                    "time": 824.9880922499957,
                    "velocity": 0.4409448818897638,
                    "duration": 0.23618324999995366
                },
                {
                    "name": "E3",
                    "midi": 52,
                    "time": 825.2242754999957,
                    "velocity": 0.4330708661417323,
                    "duration": 0.23618324999995366
                },
                {
                    "name": "A3",
                    "midi": 57,
                    "time": 825.4604587499956,
                    "velocity": 0.4330708661417323,
                    "duration": 0.23618324999995366
                },
                {
                    "name": "B2",
                    "midi": 47,
                    "time": 825.6966419999956,
                    "velocity": 0.5196850393700787,
                    "duration": 0.23618324999995366
                },
                {
                    "name": "D3",
                    "midi": 50,
                    "time": 825.9328252499955,
                    "velocity": 0.4409448818897638,
                    "duration": 0.23618324999995366
                },
                {
                    "name": "G#3",
                    "midi": 56,
                    "time": 826.1690084999955,
                    "velocity": 0.4409448818897638,
                    "duration": 0.23618324999995366
                },
                {
                    "name": "B3",
                    "midi": 59,
                    "time": 826.4051917499954,
                    "velocity": 0.4409448818897638,
                    "duration": 0.23618324999995366
                },
                {
                    "name": "C#3",
                    "midi": 49,
                    "time": 826.6413749999954,
                    "velocity": 0.5196850393700787,
                    "duration": 0.23618324999995366
                },
                {
                    "name": "E3",
                    "midi": 52,
                    "time": 826.8775582499953,
                    "velocity": 0.4330708661417323,
                    "duration": 0.23618324999995366
                },
                {
                    "name": "A3",
                    "midi": 57,
                    "time": 827.1137414999953,
                    "velocity": 0.4330708661417323,
                    "duration": 0.23618324999995366
                },
                {
                    "name": "C#4",
                    "midi": 61,
                    "time": 827.3499247499952,
                    "velocity": 0.4330708661417323,
                    "duration": 0.23618324999995366
                },
                {
                    "name": "D3",
                    "midi": 50,
                    "time": 827.5861079999952,
                    "velocity": 0.5196850393700787,
                    "duration": 0.23618324999995366
                },
                {
                    "name": "F#3",
                    "midi": 54,
                    "time": 827.8222912499951,
                    "velocity": 0.41732283464566927,
                    "duration": 0.23618324999995366
                },
                {
                    "name": "B3",
                    "midi": 59,
                    "time": 828.0584744999951,
                    "velocity": 0.41732283464566927,
                    "duration": 0.23618324999995366
                },
                {
                    "name": "D4",
                    "midi": 62,
                    "time": 828.294657749995,
                    "velocity": 0.41732283464566927,
                    "duration": 0.23618324999995366
                },
                {
                    "name": "E3",
                    "midi": 52,
                    "time": 828.530840999995,
                    "velocity": 0.5196850393700787,
                    "duration": 0.23618324999995366
                },
                {
                    "name": "A3",
                    "midi": 57,
                    "time": 828.767024249995,
                    "velocity": 0.4409448818897638,
                    "duration": 0.23618324999995366
                },
                {
                    "name": "C#4",
                    "midi": 61,
                    "time": 829.0032074999949,
                    "velocity": 0.4330708661417323,
                    "duration": 0.23618324999995366
                },
                {
                    "name": "E4",
                    "midi": 64,
                    "time": 829.2393907499949,
                    "velocity": 0.4330708661417323,
                    "duration": 0.23618324999995366
                },
                {
                    "name": "E2",
                    "midi": 40,
                    "time": 829.4755739999948,
                    "velocity": 0.5275590551181102,
                    "duration": 0.23618324999995366
                },
                {
                    "name": "G#2",
                    "midi": 44,
                    "time": 829.7117572499948,
                    "velocity": 0.4409448818897638,
                    "duration": 0.23618324999995366
                },
                {
                    "name": "B2",
                    "midi": 47,
                    "time": 829.9479404999947,
                    "velocity": 0.4409448818897638,
                    "duration": 0.23618324999995366
                },
                {
                    "name": "E3",
                    "midi": 52,
                    "time": 830.1841237499947,
                    "velocity": 0.4409448818897638,
                    "duration": 0.23618324999995366
                },
                {
                    "name": "A2",
                    "midi": 45,
                    "time": 830.4203069999946,
                    "velocity": 0.5354330708661418,
                    "duration": 0.23618324999995366
                },
                {
                    "name": "C#3",
                    "midi": 49,
                    "time": 830.6564902499946,
                    "velocity": 0.44881889763779526,
                    "duration": 0.23618324999995366
                },
                {
                    "name": "E3",
                    "midi": 52,
                    "time": 830.8926734999945,
                    "velocity": 0.44881889763779526,
                    "duration": 0.23618324999995366
                },
                {
                    "name": "A3",
                    "midi": 57,
                    "time": 831.1288567499945,
                    "velocity": 0.44881889763779526,
                    "duration": 0.23618324999995366
                },
                {
                    "name": "A2",
                    "midi": 45,
                    "time": 831.3650399999945,
                    "velocity": 0.5275590551181102,
                    "duration": 0.8266413750000083
                },
                {
                    "name": "A3",
                    "midi": 57,
                    "time": 832.3097729999945,
                    "velocity": 0.31496062992125984,
                    "duration": 0.472366500000021
                },
                {
                    "name": "E4",
                    "midi": 64,
                    "time": 832.7821394999945,
                    "velocity": 0.28346456692913385,
                    "duration": 0.472366500000021
                },
                {
                    "name": "C#4",
                    "midi": 61,
                    "time": 833.2545059999945,
                    "velocity": 0.28346456692913385,
                    "duration": 0.472366500000021
                },
                {
                    "name": "E4",
                    "midi": 64,
                    "time": 833.7268724999946,
                    "velocity": 0.28346456692913385,
                    "duration": 0.472366500000021
                },
                {
                    "name": "A3",
                    "midi": 57,
                    "time": 834.1992389999946,
                    "velocity": 0.33858267716535434,
                    "duration": 0.472366500000021
                },
                {
                    "name": "F#4",
                    "midi": 66,
                    "time": 834.6716054999946,
                    "velocity": 0.2755905511811024,
                    "duration": 0.472366500000021
                },
                {
                    "name": "D4",
                    "midi": 62,
                    "time": 835.1439719999946,
                    "velocity": 0.2755905511811024,
                    "duration": 0.472366500000021
                },
                {
                    "name": "F#4",
                    "midi": 66,
                    "time": 835.6163384999946,
                    "velocity": 0.2755905511811024,
                    "duration": 0.472366500000021
                },
                {
                    "name": "A3",
                    "midi": 57,
                    "time": 836.0887049999947,
                    "velocity": 0.33858267716535434,
                    "duration": 0.472366500000021
                },
                {
                    "name": "F#4",
                    "midi": 66,
                    "time": 836.5610714999947,
                    "velocity": 0.2755905511811024,
                    "duration": 0.472366500000021
                },
                {
                    "name": "D4",
                    "midi": 62,
                    "time": 837.0334379999947,
                    "velocity": 0.29133858267716534,
                    "duration": 0.472366500000021
                },
                {
                    "name": "F#4",
                    "midi": 66,
                    "time": 837.5058044999947,
                    "velocity": 0.30708661417322836,
                    "duration": 0.472366500000021
                },
                {
                    "name": "A3",
                    "midi": 57,
                    "time": 837.9781709999947,
                    "velocity": 0.3464566929133858,
                    "duration": 0.472366500000021
                },
                {
                    "name": "E4",
                    "midi": 64,
                    "time": 838.4505374999948,
                    "velocity": 0.2755905511811024,
                    "duration": 0.472366500000021
                },
                {
                    "name": "C#4",
                    "midi": 61,
                    "time": 838.9229039999948,
                    "velocity": 0.2755905511811024,
                    "duration": 0.472366500000021
                },
                {
                    "name": "E4",
                    "midi": 64,
                    "time": 839.3952704999948,
                    "velocity": 0.2755905511811024,
                    "duration": 0.472366500000021
                },
                {
                    "name": "A2",
                    "midi": 45,
                    "time": 839.6904995624948,
                    "velocity": 0.4330708661417323,
                    "duration": 0.6495039375000715
                },
                {
                    "name": "C#3",
                    "midi": 49,
                    "time": 839.7495453749948,
                    "velocity": 0.4645669291338583,
                    "duration": 0.5904581250000547
                },
                {
                    "name": "E3",
                    "midi": 52,
                    "time": 839.8085911874948,
                    "velocity": 0.5118110236220472,
                    "duration": 0.5314123125000378
                },
                {
                    "name": "A3",
                    "midi": 57,
                    "time": 839.8676369999948,
                    "velocity": 0.5354330708661418,
                    "duration": 0.472366500000021
                },
                {
                    "name": "B2",
                    "midi": 47,
                    "time": 841.5799655624949,
                    "velocity": 0.4330708661417323,
                    "duration": 0.6495039375000715
                },
                {
                    "name": "D3",
                    "midi": 50,
                    "time": 841.6390113749949,
                    "velocity": 0.4645669291338583,
                    "duration": 0.5904581250000547
                },
                {
                    "name": "G#3",
                    "midi": 56,
                    "time": 841.6980571874949,
                    "velocity": 0.5118110236220472,
                    "duration": 0.5314123125000378
                },
                {
                    "name": "B3",
                    "midi": 59,
                    "time": 841.7571029999949,
                    "velocity": 0.5354330708661418,
                    "duration": 0.472366500000021
                },
                {
                    "name": "C#3",
                    "midi": 49,
                    "time": 843.469431562495,
                    "velocity": 0.41732283464566927,
                    "duration": 0.6495039375000715
                },
                {
                    "name": "E3",
                    "midi": 52,
                    "time": 843.528477374995,
                    "velocity": 0.4409448818897638,
                    "duration": 0.5904581250000547
                },
                {
                    "name": "A3",
                    "midi": 57,
                    "time": 843.587523187495,
                    "velocity": 0.4645669291338583,
                    "duration": 0.5117303750000701
                },
                {
                    "name": "C#4",
                    "midi": 61,
                    "time": 843.646568999995,
                    "velocity": 0.49606299212598426,
                    "duration": 0.472366500000021
                },
                {
                    "name": "D3",
                    "midi": 50,
                    "time": 844.414164562495,
                    "velocity": 0.4330708661417323,
                    "duration": 0.6495039375000715
                },
                {
                    "name": "F#3",
                    "midi": 54,
                    "time": 844.473210374995,
                    "velocity": 0.4566929133858268,
                    "duration": 0.5904581250000547
                },
                {
                    "name": "B3",
                    "midi": 59,
                    "time": 844.532256187495,
                    "velocity": 0.47244094488188976,
                    "duration": 0.5117303750000701
                },
                {
                    "name": "D4",
                    "midi": 62,
                    "time": 844.591301999995,
                    "velocity": 0.5039370078740157,
                    "duration": 0.472366500000021
                },
                {
                    "name": "E3",
                    "midi": 52,
                    "time": 845.358897562495,
                    "velocity": 0.4409448818897638,
                    "duration": 0.6495039375000715
                },
                {
                    "name": "G#3",
                    "midi": 56,
                    "time": 845.417943374995,
                    "velocity": 0.4645669291338583,
                    "duration": 0.5904581250000547
                },
                {
                    "name": "B3",
                    "midi": 59,
                    "time": 845.4769891874951,
                    "velocity": 0.49606299212598426,
                    "duration": 0.5314123125000378
                },
                {
                    "name": "E4",
                    "midi": 64,
                    "time": 845.5360349999951,
                    "velocity": 0.5196850393700787,
                    "duration": 0.472366500000021
                },
                {
                    "name": "D4",
                    "midi": 62,
                    "time": 846.7169512499951,
                    "velocity": 0.3700787401574803,
                    "duration": 0.23618324999995366
                },
                {
                    "name": "C#4",
                    "midi": 61,
                    "time": 846.953134499995,
                    "velocity": 0.3464566929133858,
                    "duration": 0.23618324999995366
                },
                {
                    "name": "B3",
                    "midi": 59,
                    "time": 847.189317749995,
                    "velocity": 0.3228346456692913,
                    "duration": 0.23618324999995366
                },
                {
                    "name": "A3",
                    "midi": 57,
                    "time": 847.4255009999949,
                    "velocity": 0.3228346456692913,
                    "duration": 0.472366500000021
                },
                {
                    "name": "E4",
                    "midi": 64,
                    "time": 847.897867499995,
                    "velocity": 0.25196850393700787,
                    "duration": 0.472366500000021
                },
                {
                    "name": "B3",
                    "midi": 59,
                    "time": 848.370233999995,
                    "velocity": 0.29133858267716534,
                    "duration": 0.472366500000021
                },
                {
                    "name": "E4",
                    "midi": 64,
                    "time": 848.842600499995,
                    "velocity": 0.25196850393700787,
                    "duration": 0.472366500000021
                },
                {
                    "name": "C#4",
                    "midi": 61,
                    "time": 849.314966999995,
                    "velocity": 0.33070866141732286,
                    "duration": 0.472366500000021
                },
                {
                    "name": "E4",
                    "midi": 64,
                    "time": 849.787333499995,
                    "velocity": 0.25984251968503935,
                    "duration": 0.472366500000021
                },
                {
                    "name": "A3",
                    "midi": 57,
                    "time": 850.2596999999951,
                    "velocity": 0.28346456692913385,
                    "duration": 0.472366500000021
                },
                {
                    "name": "E4",
                    "midi": 64,
                    "time": 850.7320664999951,
                    "velocity": 0.25984251968503935,
                    "duration": 0.472366500000021
                },
                {
                    "name": "G#3",
                    "midi": 56,
                    "time": 851.2044329999951,
                    "velocity": 0.33070866141732286,
                    "duration": 0.472366500000021
                },
                {
                    "name": "E4",
                    "midi": 64,
                    "time": 851.6767994999951,
                    "velocity": 0.25984251968503935,
                    "duration": 0.472366500000021
                },
                {
                    "name": "A3",
                    "midi": 57,
                    "time": 852.1491659999951,
                    "velocity": 0.28346456692913385,
                    "duration": 0.472366500000021
                },
                {
                    "name": "E4",
                    "midi": 64,
                    "time": 852.6215324999952,
                    "velocity": 0.25984251968503935,
                    "duration": 0.472366500000021
                },
                {
                    "name": "B3",
                    "midi": 59,
                    "time": 853.0938989999952,
                    "velocity": 0.33070866141732286,
                    "duration": 0.472366500000021
                },
                {
                    "name": "E4",
                    "midi": 64,
                    "time": 853.5662654999952,
                    "velocity": 0.2440944881889764,
                    "duration": 0.472366500000021
                },
                {
                    "name": "G#3",
                    "midi": 56,
                    "time": 854.0386319999952,
                    "velocity": 0.2755905511811024,
                    "duration": 0.472366500000021
                },
                {
                    "name": "E4",
                    "midi": 64,
                    "time": 854.5109984999953,
                    "velocity": 0.2440944881889764,
                    "duration": 0.472366500000021
                },
                {
                    "name": "F#3",
                    "midi": 54,
                    "time": 854.9833649999953,
                    "velocity": 0.31496062992125984,
                    "duration": 0.472366500000021
                },
                {
                    "name": "E4",
                    "midi": 64,
                    "time": 855.4557314999953,
                    "velocity": 0.2440944881889764,
                    "duration": 0.472366500000021
                },
                {
                    "name": "G#3",
                    "midi": 56,
                    "time": 855.9280979999953,
                    "velocity": 0.2677165354330709,
                    "duration": 0.472366500000021
                },
                {
                    "name": "E4",
                    "midi": 64,
                    "time": 856.4004644999953,
                    "velocity": 0.2440944881889764,
                    "duration": 0.472366500000021
                },
                {
                    "name": "A3",
                    "midi": 57,
                    "time": 856.8728309999954,
                    "velocity": 0.30708661417322836,
                    "duration": 0.472366500000021
                },
                {
                    "name": "E4",
                    "midi": 64,
                    "time": 857.3451974999954,
                    "velocity": 0.2440944881889764,
                    "duration": 0.472366500000021
                },
                {
                    "name": "D3",
                    "midi": 50,
                    "time": 857.8175639999954,
                    "velocity": 0.25984251968503935,
                    "duration": 0.472366500000021
                },
                {
                    "name": "B3",
                    "midi": 59,
                    "time": 858.2899304999954,
                    "velocity": 0.2440944881889764,
                    "duration": 0.472366500000021
                },
                {
                    "name": "E3",
                    "midi": 52,
                    "time": 858.7622969999954,
                    "velocity": 0.31496062992125984,
                    "duration": 0.472366500000021
                },
                {
                    "name": "A3",
                    "midi": 57,
                    "time": 859.2346634999955,
                    "velocity": 0.2440944881889764,
                    "duration": 0.472366500000021
                },
                {
                    "name": "E3",
                    "midi": 52,
                    "time": 859.7070299999955,
                    "velocity": 0.2677165354330709,
                    "duration": 0.472366500000021
                },
                {
                    "name": "G#3",
                    "midi": 56,
                    "time": 860.1793964999955,
                    "velocity": 0.2440944881889764,
                    "duration": 0.472366500000021
                },
                {
                    "name": "E4",
                    "midi": 64,
                    "time": 860.6517629999955,
                    "velocity": 0.25196850393700787,
                    "duration": 1.417099500000063
                },
                {
                    "name": "D4",
                    "midi": 62,
                    "time": 860.6517629999955,
                    "velocity": 0.2992125984251969,
                    "duration": 0.944733000000042
                },
                {
                    "name": "A3",
                    "midi": 57,
                    "time": 860.6517629999955,
                    "velocity": 0.2047244094488189,
                    "duration": 1.417099500000063
                },
                {
                    "name": "C#4",
                    "midi": 61,
                    "time": 861.5964959999956,
                    "velocity": 0.2440944881889764,
                    "duration": 0.472366500000021
                },
                {
                    "name": "A2",
                    "midi": 45,
                    "time": 862.5412289999956,
                    "velocity": 0.5196850393700787,
                    "duration": 0.23618324999995366
                },
                {
                    "name": "C#3",
                    "midi": 49,
                    "time": 862.7774122499956,
                    "velocity": 0.4409448818897638,
                    "duration": 0.23618324999995366
                },
                {
                    "name": "E3",
                    "midi": 52,
                    "time": 863.0135954999955,
                    "velocity": 0.4330708661417323,
                    "duration": 0.23618324999995366
                },
                {
                    "name": "A3",
                    "midi": 57,
                    "time": 863.2497787499955,
                    "velocity": 0.4330708661417323,
                    "duration": 0.23618324999995366
                },
                {
                    "name": "B2",
                    "midi": 47,
                    "time": 863.4859619999954,
                    "velocity": 0.5196850393700787,
                    "duration": 0.23618324999995366
                },
                {
                    "name": "D3",
                    "midi": 50,
                    "time": 863.7221452499954,
                    "velocity": 0.4409448818897638,
                    "duration": 0.23618324999995366
                },
                {
                    "name": "G#3",
                    "midi": 56,
                    "time": 863.9583284999953,
                    "velocity": 0.4409448818897638,
                    "duration": 0.23618324999995366
                },
                {
                    "name": "B3",
                    "midi": 59,
                    "time": 864.1945117499953,
                    "velocity": 0.4409448818897638,
                    "duration": 0.23618324999995366
                },
                {
                    "name": "C#3",
                    "midi": 49,
                    "time": 864.4306949999952,
                    "velocity": 0.5196850393700787,
                    "duration": 0.23618324999995366
                },
                {
                    "name": "E3",
                    "midi": 52,
                    "time": 864.6668782499952,
                    "velocity": 0.4330708661417323,
                    "duration": 0.23618324999995366
                },
                {
                    "name": "A3",
                    "midi": 57,
                    "time": 864.9030614999951,
                    "velocity": 0.4330708661417323,
                    "duration": 0.23618324999995366
                },
                {
                    "name": "C#4",
                    "midi": 61,
                    "time": 865.1392447499951,
                    "velocity": 0.4330708661417323,
                    "duration": 0.23618324999995366
                },
                {
                    "name": "D3",
                    "midi": 50,
                    "time": 865.375427999995,
                    "velocity": 0.5196850393700787,
                    "duration": 0.23618324999995366
                },
                {
                    "name": "F#3",
                    "midi": 54,
                    "time": 865.611611249995,
                    "velocity": 0.41732283464566927,
                    "duration": 0.23618324999995366
                },
                {
                    "name": "B3",
                    "midi": 59,
                    "time": 865.847794499995,
                    "velocity": 0.41732283464566927,
                    "duration": 0.23618324999995366
                },
                {
                    "name": "D4",
                    "midi": 62,
                    "time": 866.0839777499949,
                    "velocity": 0.41732283464566927,
                    "duration": 0.23618324999995366
                },
                {
                    "name": "E3",
                    "midi": 52,
                    "time": 866.3201609999949,
                    "velocity": 0.5196850393700787,
                    "duration": 0.23618324999995366
                },
                {
                    "name": "A3",
                    "midi": 57,
                    "time": 866.5563442499948,
                    "velocity": 0.4409448818897638,
                    "duration": 0.23618324999995366
                },
                {
                    "name": "C#4",
                    "midi": 61,
                    "time": 866.7925274999948,
                    "velocity": 0.4330708661417323,
                    "duration": 0.23618324999995366
                },
                {
                    "name": "E4",
                    "midi": 64,
                    "time": 867.0287107499947,
                    "velocity": 0.4330708661417323,
                    "duration": 0.23618324999995366
                },
                {
                    "name": "E3",
                    "midi": 52,
                    "time": 867.2648939999947,
                    "velocity": 0.5275590551181102,
                    "duration": 0.23618324999995366
                },
                {
                    "name": "G#3",
                    "midi": 56,
                    "time": 867.5010772499946,
                    "velocity": 0.4409448818897638,
                    "duration": 0.23618324999995366
                },
                {
                    "name": "B3",
                    "midi": 59,
                    "time": 867.7372604999946,
                    "velocity": 0.4409448818897638,
                    "duration": 0.23618324999995366
                },
                {
                    "name": "D4",
                    "midi": 62,
                    "time": 867.9734437499945,
                    "velocity": 0.4409448818897638,
                    "duration": 0.21650131249998594
                },
                {
                    "name": "A3",
                    "midi": 57,
                    "time": 868.2096269999945,
                    "velocity": 0.28346456692913385,
                    "duration": 0.472366500000021
                },
                {
                    "name": "C#4",
                    "midi": 61,
                    "time": 868.2096269999945,
                    "velocity": 0.33858267716535434,
                    "duration": 0.472366500000021
                },
                {
                    "name": "C#4",
                    "midi": 61,
                    "time": 868.6819934999945,
                    "velocity": 0.23622047244094488,
                    "duration": 0.44874817499999153
                },
                {
                    "name": "E4",
                    "midi": 64,
                    "time": 868.6819934999945,
                    "velocity": 0.28346456692913385,
                    "duration": 0.44874817499999153
                },
                {
                    "name": "C#4",
                    "midi": 61,
                    "time": 869.1543599999945,
                    "velocity": 0.23622047244094488,
                    "duration": 0.44874817499999153
                },
                {
                    "name": "E4",
                    "midi": 64,
                    "time": 869.1543599999945,
                    "velocity": 0.28346456692913385,
                    "duration": 0.44874817499999153
                },
                {
                    "name": "C#4",
                    "midi": 61,
                    "time": 869.6267264999946,
                    "velocity": 0.2204724409448819,
                    "duration": 0.4330026249999719
                },
                {
                    "name": "E4",
                    "midi": 64,
                    "time": 869.6267264999946,
                    "velocity": 0.2677165354330709,
                    "duration": 0.4330026249999719
                },
                {
                    "name": "A3",
                    "midi": 57,
                    "time": 870.0990929999946,
                    "velocity": 0.3228346456692913,
                    "duration": 0.472366500000021
                },
                {
                    "name": "D4",
                    "midi": 62,
                    "time": 870.5714594999946,
                    "velocity": 0.2204724409448819,
                    "duration": 0.44874817499999153
                },
                {
                    "name": "F#4",
                    "midi": 66,
                    "time": 870.5714594999946,
                    "velocity": 0.25984251968503935,
                    "duration": 0.44874817499999153
                },
                {
                    "name": "D4",
                    "midi": 62,
                    "time": 871.0438259999946,
                    "velocity": 0.2204724409448819,
                    "duration": 0.44874817499999153
                },
                {
                    "name": "F#4",
                    "midi": 66,
                    "time": 871.0438259999946,
                    "velocity": 0.25984251968503935,
                    "duration": 0.44874817499999153
                },
                {
                    "name": "D4",
                    "midi": 62,
                    "time": 871.5161924999946,
                    "velocity": 0.2204724409448819,
                    "duration": 0.472366500000021
                },
                {
                    "name": "F#4",
                    "midi": 66,
                    "time": 871.5161924999946,
                    "velocity": 0.25984251968503935,
                    "duration": 0.472366500000021
                },
                {
                    "name": "A3",
                    "midi": 57,
                    "time": 871.9885589999947,
                    "velocity": 0.29133858267716534,
                    "duration": 0.472366500000021
                },
                {
                    "name": "C#4",
                    "midi": 61,
                    "time": 872.4609254999947,
                    "velocity": 0.2125984251968504,
                    "duration": 0.44874817499999153
                },
                {
                    "name": "E4",
                    "midi": 64,
                    "time": 872.4609254999947,
                    "velocity": 0.25196850393700787,
                    "duration": 0.44874817499999153
                },
                {
                    "name": "C#4",
                    "midi": 61,
                    "time": 872.9332919999947,
                    "velocity": 0.2125984251968504,
                    "duration": 0.44874817499999153
                },
                {
                    "name": "E4",
                    "midi": 64,
                    "time": 872.9332919999947,
                    "velocity": 0.25196850393700787,
                    "duration": 0.44874817499999153
                },
                {
                    "name": "C#4",
                    "midi": 61,
                    "time": 873.4056584999947,
                    "velocity": 0.2125984251968504,
                    "duration": 0.472366500000021
                },
                {
                    "name": "E4",
                    "midi": 64,
                    "time": 873.4056584999947,
                    "velocity": 0.25196850393700787,
                    "duration": 0.472366500000021
                },
                {
                    "name": "A3",
                    "midi": 57,
                    "time": 873.8780249999948,
                    "velocity": 0.3228346456692913,
                    "duration": 0.472366500000021
                },
                {
                    "name": "D4",
                    "midi": 62,
                    "time": 874.3503914999948,
                    "velocity": 0.2204724409448819,
                    "duration": 0.44874817499999153
                },
                {
                    "name": "F#4",
                    "midi": 66,
                    "time": 874.3503914999948,
                    "velocity": 0.25984251968503935,
                    "duration": 0.44874817499999153
                },
                {
                    "name": "D4",
                    "midi": 62,
                    "time": 874.8227579999948,
                    "velocity": 0.2204724409448819,
                    "duration": 0.44874817499999153
                },
                {
                    "name": "F#4",
                    "midi": 66,
                    "time": 874.8227579999948,
                    "velocity": 0.25984251968503935,
                    "duration": 0.44874817499999153
                },
                {
                    "name": "D4",
                    "midi": 62,
                    "time": 875.2951244999948,
                    "velocity": 0.2204724409448819,
                    "duration": 0.472366500000021
                },
                {
                    "name": "F#4",
                    "midi": 66,
                    "time": 875.2951244999948,
                    "velocity": 0.25984251968503935,
                    "duration": 0.472366500000021
                },
                {
                    "name": "A3",
                    "midi": 57,
                    "time": 875.7674909999948,
                    "velocity": 0.3228346456692913,
                    "duration": 0.472366500000021
                },
                {
                    "name": "C#4",
                    "midi": 61,
                    "time": 875.7674909999948,
                    "velocity": 0.3228346456692913,
                    "duration": 0.472366500000021
                },
                {
                    "name": "E4",
                    "midi": 64,
                    "time": 875.7674909999948,
                    "velocity": 0.3228346456692913,
                    "duration": 0.472366500000021
                },
                {
                    "name": "D3",
                    "midi": 50,
                    "time": 877.6569569999948,
                    "velocity": 0.3228346456692913,
                    "duration": 0.472366500000021
                },
                {
                    "name": "B3",
                    "midi": 59,
                    "time": 877.6569569999948,
                    "velocity": 0.3228346456692913,
                    "duration": 0.472366500000021
                },
                {
                    "name": "E3",
                    "midi": 52,
                    "time": 879.5464229999948,
                    "velocity": 0.3228346456692913,
                    "duration": 0.472366500000021
                },
                {
                    "name": "A3",
                    "midi": 57,
                    "time": 879.5464229999948,
                    "velocity": 0.3228346456692913,
                    "duration": 0.472366500000021
                },
                {
                    "name": "D3",
                    "midi": 50,
                    "time": 881.4358889999947,
                    "velocity": 0.3228346456692913,
                    "duration": 0.472366500000021
                },
                {
                    "name": "G#3",
                    "midi": 56,
                    "time": 881.4358889999947,
                    "velocity": 0.3228346456692913,
                    "duration": 0.472366500000021
                },
                {
                    "name": "C#3",
                    "midi": 49,
                    "time": 883.3253549999947,
                    "velocity": 0.49606299212598426,
                    "duration": 0.472366500000021
                },
                {
                    "name": "A3",
                    "midi": 57,
                    "time": 883.3253549999947,
                    "velocity": 0.49606299212598426,
                    "duration": 0.472366500000021
                },
                {
                    "name": "D3",
                    "midi": 50,
                    "time": 885.2148209999947,
                    "velocity": 0.49606299212598426,
                    "duration": 0.472366500000021
                },
                {
                    "name": "B3",
                    "midi": 59,
                    "time": 885.2148209999947,
                    "velocity": 0.49606299212598426,
                    "duration": 0.472366500000021
                },
                {
                    "name": "E3",
                    "midi": 52,
                    "time": 887.1042869999947,
                    "velocity": 0.49606299212598426,
                    "duration": 0.472366500000021
                },
                {
                    "name": "A3",
                    "midi": 57,
                    "time": 887.1042869999947,
                    "velocity": 0.49606299212598426,
                    "duration": 0.472366500000021
                },
                {
                    "name": "E3",
                    "midi": 52,
                    "time": 888.9937529999946,
                    "velocity": 0.49606299212598426,
                    "duration": 0.472366500000021
                },
                {
                    "name": "G#3",
                    "midi": 56,
                    "time": 888.9937529999946,
                    "velocity": 0.49606299212598426,
                    "duration": 0.472366500000021
                },
                {
                    "name": "A3",
                    "midi": 57,
                    "time": 890.8832189999946,
                    "velocity": 0.49606299212598426,
                    "duration": 0.944733000000042
                },
                {
                    "name": "E3",
                    "midi": 52,
                    "time": 893.7174179999946,
                    "velocity": 0.48031496062992124,
                    "duration": 0.23618324999995366
                },
                {
                    "name": "G#3",
                    "midi": 56,
                    "time": 893.7174179999946,
                    "velocity": 0.48031496062992124,
                    "duration": 0.23618324999995366
                },
                {
                    "name": "B3",
                    "midi": 59,
                    "time": 893.7174179999946,
                    "velocity": 0.48031496062992124,
                    "duration": 0.23618324999995366
                },
                {
                    "name": "E4",
                    "midi": 64,
                    "time": 893.7174179999946,
                    "velocity": 0.5748031496062992,
                    "duration": 0.23618324999995366
                },
                {
                    "name": "A2",
                    "midi": 45,
                    "time": 894.6621509999945,
                    "velocity": 0.5275590551181102,
                    "duration": 0.23618324999995366
                },
                {
                    "name": "C#3",
                    "midi": 49,
                    "time": 894.6621509999945,
                    "velocity": 0.5275590551181102,
                    "duration": 0.23618324999995366
                },
                {
                    "name": "E3",
                    "midi": 52,
                    "time": 894.6621509999945,
                    "velocity": 0.5275590551181102,
                    "duration": 0.23618324999995366
                },
                {
                    "name": "A3",
                    "midi": 57,
                    "time": 894.6621509999945,
                    "velocity": 0.6220472440944882,
                    "duration": 0.23618324999995366
                },
                {
                    "name": "E3",
                    "midi": 52,
                    "time": 897.4963499999944,
                    "velocity": 0.49606299212598426,
                    "duration": 0.23618324999995366
                },
                {
                    "name": "G#3",
                    "midi": 56,
                    "time": 897.4963499999944,
                    "velocity": 0.49606299212598426,
                    "duration": 0.23618324999995366
                },
                {
                    "name": "B3",
                    "midi": 59,
                    "time": 897.4963499999944,
                    "velocity": 0.49606299212598426,
                    "duration": 0.23618324999995366
                },
                {
                    "name": "E4",
                    "midi": 64,
                    "time": 897.4963499999944,
                    "velocity": 0.5905511811023622,
                    "duration": 0.23618324999995366
                },
                {
                    "name": "A2",
                    "midi": 45,
                    "time": 898.4410829999944,
                    "velocity": 0.5511811023622047,
                    "duration": 0.23618324999995366
                },
                {
                    "name": "C#3",
                    "midi": 49,
                    "time": 898.4410829999944,
                    "velocity": 0.5511811023622047,
                    "duration": 0.23618324999995366
                },
                {
                    "name": "E3",
                    "midi": 52,
                    "time": 898.4410829999944,
                    "velocity": 0.5511811023622047,
                    "duration": 0.23618324999995366
                },
                {
                    "name": "A3",
                    "midi": 57,
                    "time": 898.4410829999944,
                    "velocity": 0.6456692913385826,
                    "duration": 0.23618324999995366
                }
            ],
            "controlChanges": {
                "7": [
                    {
                        "number": 7,
                        "time": 0,
                        "value": 0.7874015748031497
                    }
                ],
                "10": [
                    {
                        "number": 10,
                        "time": 0,
                        "value": 0.5039370078740157
                    }
                ]
            },
            "id": 2,
            "name": "Piano left",
            "instrumentNumber": 0,
            "instrument": "acoustic grand piano",
            "instrumentFamily": "piano",
            "channelNumber": 0,
            "isPercussion": false
        },
        {
            "startTime": 0,
            "duration": 0,
            "length": 0,
            "notes": [],
            "controlChanges": {
                "64": [
                    {
                        "number": 64,
                        "time": 0,
                        "value": 1
                    },
                    {
                        "number": 64,
                        "time": 0.96244674375,
                        "value": 0
                    },
                    {
                        "number": 64,
                        "time": 1.0844747562500001,
                        "value": 1
                    },
                    {
                        "number": 64,
                        "time": 1.43481324375,
                        "value": 0
                    },
                    {
                        "number": 64,
                        "time": 1.598173325,
                        "value": 1
                    },
                    {
                        "number": 64,
                        "time": 2.834199,
                        "value": 0
                    },
                    {
                        "number": 64,
                        "time": 2.9739407562499998,
                        "value": 1
                    },
                    {
                        "number": 64,
                        "time": 3.7927093562499996,
                        "value": 0
                    },
                    {
                        "number": 64,
                        "time": 3.9324511124999995,
                        "value": 1
                    },
                    {
                        "number": 64,
                        "time": 4.274916824999999,
                        "value": 0
                    },
                    {
                        "number": 64,
                        "time": 4.487481749999999,
                        "value": 1
                    },
                    {
                        "number": 64,
                        "time": 5.668397999999999,
                        "value": 0
                    },
                    {
                        "number": 64,
                        "time": 5.9321359624999985,
                        "value": 1
                    },
                    {
                        "number": 64,
                        "time": 7.105179437499999,
                        "value": 0
                    },
                    {
                        "number": 64,
                        "time": 7.427963212499998,
                        "value": 1
                    },
                    {
                        "number": 64,
                        "time": 8.510469774999997,
                        "value": 0
                    },
                    {
                        "number": 64,
                        "time": 8.766334962499997,
                        "value": 1
                    },
                    {
                        "number": 64,
                        "time": 9.463075549999997,
                        "value": 0
                    },
                    {
                        "number": 64,
                        "time": 9.600849112499997,
                        "value": 1
                    },
                    {
                        "number": 64,
                        "time": 9.943314824999996,
                        "value": 0
                    },
                    {
                        "number": 64,
                        "time": 10.210989174999996,
                        "value": 1
                    },
                    {
                        "number": 64,
                        "time": 10.891984212499997,
                        "value": 0
                    },
                    {
                        "number": 64,
                        "time": 11.517869824999996,
                        "value": 1
                    },
                    {
                        "number": 64,
                        "time": 12.299242743749996,
                        "value": 0
                    },
                    {
                        "number": 64,
                        "time": 12.421270756249996,
                        "value": 1
                    },
                    {
                        "number": 64,
                        "time": 12.775545631249996,
                        "value": 0
                    },
                    {
                        "number": 64,
                        "time": 12.934969324999996,
                        "value": 1
                    },
                    {
                        "number": 64,
                        "time": 14.178867774999995,
                        "value": 0
                    },
                    {
                        "number": 64,
                        "time": 14.310736756249995,
                        "value": 1
                    },
                    {
                        "number": 64,
                        "time": 15.129505356249995,
                        "value": 0
                    },
                    {
                        "number": 64,
                        "time": 15.269247112499995,
                        "value": 1
                    },
                    {
                        "number": 64,
                        "time": 15.611712824999994,
                        "value": 0
                    },
                    {
                        "number": 64,
                        "time": 15.824277749999995,
                        "value": 1
                    },
                    {
                        "number": 64,
                        "time": 17.015034968749994,
                        "value": 0
                    },
                    {
                        "number": 64,
                        "time": 17.268931962499995,
                        "value": 1
                    },
                    {
                        "number": 64,
                        "time": 18.440007243749996,
                        "value": 0
                    },
                    {
                        "number": 64,
                        "time": 18.764759212499996,
                        "value": 1
                    },
                    {
                        "number": 64,
                        "time": 19.384740243749995,
                        "value": 0
                    },
                    {
                        "number": 64,
                        "time": 19.526450193749994,
                        "value": 1
                    },
                    {
                        "number": 64,
                        "time": 19.853170356249993,
                        "value": 0
                    },
                    {
                        "number": 64,
                        "time": 20.089353606249993,
                        "value": 1
                    },
                    {
                        "number": 64,
                        "time": 20.805776131249992,
                        "value": 0
                    },
                    {
                        "number": 64,
                        "time": 21.034086606249993,
                        "value": 1
                    },
                    {
                        "number": 64,
                        "time": 21.27814263124999,
                        "value": 0
                    },
                    {
                        "number": 64,
                        "time": 21.530071431249993,
                        "value": 1
                    },
                    {
                        "number": 64,
                        "time": 21.978819606249992,
                        "value": 0
                    },
                    {
                        "number": 64,
                        "time": 22.673591999999992,
                        "value": 1
                    },
                    {
                        "number": 64,
                        "time": 23.636038743749992,
                        "value": 0
                    },
                    {
                        "number": 64,
                        "time": 23.758066756249992,
                        "value": 1
                    },
                    {
                        "number": 64,
                        "time": 24.11824621249999,
                        "value": 0
                    },
                    {
                        "number": 64,
                        "time": 24.27176532499999,
                        "value": 1
                    },
                    {
                        "number": 64,
                        "time": 25.51566377499999,
                        "value": 0
                    },
                    {
                        "number": 64,
                        "time": 25.64753275624999,
                        "value": 1
                    },
                    {
                        "number": 64,
                        "time": 26.46630135624999,
                        "value": 0
                    },
                    {
                        "number": 64,
                        "time": 26.60604311249999,
                        "value": 1
                    },
                    {
                        "number": 64,
                        "time": 26.94850882499999,
                        "value": 0
                    },
                    {
                        "number": 64,
                        "time": 27.16107374999999,
                        "value": 1
                    },
                    {
                        "number": 64,
                        "time": 28.34198999999999,
                        "value": 0
                    },
                    {
                        "number": 64,
                        "time": 28.605727962499987,
                        "value": 1
                    },
                    {
                        "number": 64,
                        "time": 29.778771437499987,
                        "value": 0
                    },
                    {
                        "number": 64,
                        "time": 30.10155521249999,
                        "value": 1
                    },
                    {
                        "number": 64,
                        "time": 31.18406177499999,
                        "value": 0
                    },
                    {
                        "number": 64,
                        "time": 31.32970811249999,
                        "value": 1
                    },
                    {
                        "number": 64,
                        "time": 32.13666754999999,
                        "value": 0
                    },
                    {
                        "number": 64,
                        "time": 32.27444111249999,
                        "value": 1
                    },
                    {
                        "number": 64,
                        "time": 32.67792083124999,
                        "value": 0
                    },
                    {
                        "number": 64,
                        "time": 32.80191703749999,
                        "value": 1
                    },
                    {
                        "number": 64,
                        "time": 33.57738537499999,
                        "value": 0
                    },
                    {
                        "number": 64,
                        "time": 34.19146182499999,
                        "value": 1
                    },
                    {
                        "number": 64,
                        "time": 34.97283474374999,
                        "value": 0
                    },
                    {
                        "number": 64,
                        "time": 35.094862756249995,
                        "value": 1
                    },
                    {
                        "number": 64,
                        "time": 35.447169437499994,
                        "value": 0
                    },
                    {
                        "number": 64,
                        "time": 35.608561325,
                        "value": 1
                    },
                    {
                        "number": 64,
                        "time": 36.854427968749995,
                        "value": 0
                    },
                    {
                        "number": 64,
                        "time": 36.984328756249994,
                        "value": 1
                    },
                    {
                        "number": 64,
                        "time": 37.80309735624999,
                        "value": 0
                    },
                    {
                        "number": 64,
                        "time": 37.94283911249999,
                        "value": 1
                    },
                    {
                        "number": 64,
                        "time": 38.28530482499999,
                        "value": 0
                    },
                    {
                        "number": 64,
                        "time": 38.49786974999999,
                        "value": 1
                    },
                    {
                        "number": 64,
                        "time": 39.684690581249995,
                        "value": 0
                    },
                    {
                        "number": 64,
                        "time": 39.9425239625,
                        "value": 1
                    },
                    {
                        "number": 64,
                        "time": 41.11753563125,
                        "value": 0
                    },
                    {
                        "number": 64,
                        "time": 41.4383512125,
                        "value": 1
                    },
                    {
                        "number": 64,
                        "time": 42.06226863125,
                        "value": 0
                    },
                    {
                        "number": 64,
                        "time": 42.21185135625,
                        "value": 1
                    },
                    {
                        "number": 64,
                        "time": 42.52676235625,
                        "value": 0
                    },
                    {
                        "number": 64,
                        "time": 42.76294560625001,
                        "value": 1
                    },
                    {
                        "number": 64,
                        "time": 43.479368131250006,
                        "value": 0
                    },
                    {
                        "number": 64,
                        "time": 43.707678606250006,
                        "value": 1
                    },
                    {
                        "number": 64,
                        "time": 43.951734631250005,
                        "value": 0
                    },
                    {
                        "number": 64,
                        "time": 44.20366343125001,
                        "value": 1
                    },
                    {
                        "number": 64,
                        "time": 44.652411606250006,
                        "value": 0
                    },
                    {
                        "number": 64,
                        "time": 45.47314840000001,
                        "value": 1
                    },
                    {
                        "number": 64,
                        "time": 46.787901825000006,
                        "value": 0
                    },
                    {
                        "number": 64,
                        "time": 46.945357325,
                        "value": 1
                    },
                    {
                        "number": 64,
                        "time": 48.181383000000004,
                        "value": 0
                    },
                    {
                        "number": 64,
                        "time": 48.307347400000005,
                        "value": 1
                    },
                    {
                        "number": 64,
                        "time": 48.32112475625001,
                        "value": 1
                    },
                    {
                        "number": 64,
                        "time": 49.139893356250006,
                        "value": 0
                    },
                    {
                        "number": 64,
                        "time": 49.2796351125,
                        "value": 1
                    },
                    {
                        "number": 64,
                        "time": 49.622100825000004,
                        "value": 0
                    },
                    {
                        "number": 64,
                        "time": 49.779556325,
                        "value": 1
                    },
                    {
                        "number": 64,
                        "time": 50.801048881250004,
                        "value": 0
                    },
                    {
                        "number": 64,
                        "time": 51.155323756250006,
                        "value": 1
                    },
                    {
                        "number": 64,
                        "time": 51.856000731250006,
                        "value": 0
                    },
                    {
                        "number": 64,
                        "time": 52.46614079375001,
                        "value": 1
                    },
                    {
                        "number": 64,
                        "time": 53.34395520625001,
                        "value": 0
                    },
                    {
                        "number": 64,
                        "time": 53.84978100000001,
                        "value": 1
                    },
                    {
                        "number": 64,
                        "time": 55.054315575000004,
                        "value": 0
                    },
                    {
                        "number": 64,
                        "time": 55.447954325000005,
                        "value": 1
                    },
                    {
                        "number": 64,
                        "time": 56.31002318750001,
                        "value": 0
                    },
                    {
                        "number": 64,
                        "time": 56.683980000000005,
                        "value": 0
                    },
                    {
                        "number": 64,
                        "time": 56.865053825000004,
                        "value": 1
                    },
                    {
                        "number": 64,
                        "time": 57.646426743750006,
                        "value": 0
                    },
                    {
                        "number": 64,
                        "time": 57.76845475625001,
                        "value": 1
                    },
                    {
                        "number": 64,
                        "time": 58.12272963125001,
                        "value": 0
                    },
                    {
                        "number": 64,
                        "time": 58.28215332500001,
                        "value": 1
                    },
                    {
                        "number": 64,
                        "time": 59.52408358125001,
                        "value": 0
                    },
                    {
                        "number": 64,
                        "time": 59.65792075625001,
                        "value": 1
                    },
                    {
                        "number": 64,
                        "time": 60.476689356250006,
                        "value": 0
                    },
                    {
                        "number": 64,
                        "time": 60.6164311125,
                        "value": 1
                    },
                    {
                        "number": 64,
                        "time": 60.958896825000004,
                        "value": 0
                    },
                    {
                        "number": 64,
                        "time": 61.171461750000006,
                        "value": 1
                    },
                    {
                        "number": 64,
                        "time": 62.35237800000001,
                        "value": 0
                    },
                    {
                        "number": 64,
                        "time": 62.61611596250001,
                        "value": 1
                    },
                    {
                        "number": 64,
                        "time": 63.79112763125001,
                        "value": 0
                    },
                    {
                        "number": 64,
                        "time": 64.11194321250001,
                        "value": 1
                    },
                    {
                        "number": 64,
                        "time": 64.73782882500001,
                        "value": 0
                    },
                    {
                        "number": 64,
                        "time": 64.8834751625,
                        "value": 1
                    },
                    {
                        "number": 64,
                        "time": 65.20035435625,
                        "value": 0
                    },
                    {
                        "number": 64,
                        "time": 65.43653760625,
                        "value": 1
                    },
                    {
                        "number": 64,
                        "time": 66.15296013125,
                        "value": 0
                    },
                    {
                        "number": 64,
                        "time": 66.38127060625,
                        "value": 1
                    },
                    {
                        "number": 64,
                        "time": 66.6233584375,
                        "value": 0
                    },
                    {
                        "number": 64,
                        "time": 66.87725543125,
                        "value": 1
                    },
                    {
                        "number": 64,
                        "time": 67.57596421250001,
                        "value": 0
                    },
                    {
                        "number": 64,
                        "time": 68.13886762500002,
                        "value": 1
                    },
                    {
                        "number": 64,
                        "time": 68.99306371250002,
                        "value": 0
                    },
                    {
                        "number": 64,
                        "time": 69.12493269375001,
                        "value": 1
                    },
                    {
                        "number": 64,
                        "time": 69.45952563125002,
                        "value": 0
                    },
                    {
                        "number": 64,
                        "time": 69.56383990000002,
                        "value": 1
                    },
                    {
                        "number": 64,
                        "time": 70.40819501875002,
                        "value": 0
                    },
                    {
                        "number": 64,
                        "time": 70.48101818750003,
                        "value": 1
                    },
                    {
                        "number": 64,
                        "time": 70.87465693750002,
                        "value": 0
                    },
                    {
                        "number": 64,
                        "time": 71.03408063125002,
                        "value": 1
                    },
                    {
                        "number": 64,
                        "time": 71.82726271250002,
                        "value": 0
                    },
                    {
                        "number": 64,
                        "time": 72.07722331875001,
                        "value": 1
                    },
                    {
                        "number": 64,
                        "time": 72.29175643750001,
                        "value": 0
                    },
                    {
                        "number": 64,
                        "time": 72.46692568125002,
                        "value": 1
                    },
                    {
                        "number": 64,
                        "time": 73.10658865000002,
                        "value": 0
                    },
                    {
                        "number": 64,
                        "time": 73.81513840000002,
                        "value": 1
                    },
                    {
                        "number": 64,
                        "time": 75.12595543750002,
                        "value": 0
                    },
                    {
                        "number": 64,
                        "time": 75.28734732500003,
                        "value": 1
                    },
                    {
                        "number": 64,
                        "time": 76.52337300000002,
                        "value": 0
                    },
                    {
                        "number": 64,
                        "time": 76.66311475625002,
                        "value": 1
                    },
                    {
                        "number": 64,
                        "time": 76.66705114375003,
                        "value": 1
                    },
                    {
                        "number": 64,
                        "time": 77.48188335625002,
                        "value": 0
                    },
                    {
                        "number": 64,
                        "time": 77.62162511250003,
                        "value": 1
                    },
                    {
                        "number": 64,
                        "time": 77.96802721250003,
                        "value": 0
                    },
                    {
                        "number": 64,
                        "time": 78.12154632500004,
                        "value": 1
                    },
                    {
                        "number": 64,
                        "time": 79.14303888125004,
                        "value": 0
                    },
                    {
                        "number": 64,
                        "time": 79.49731375625004,
                        "value": 1
                    },
                    {
                        "number": 64,
                        "time": 80.19799073125003,
                        "value": 0
                    },
                    {
                        "number": 64,
                        "time": 80.80813079375002,
                        "value": 1
                    },
                    {
                        "number": 64,
                        "time": 81.68594520625003,
                        "value": 0
                    },
                    {
                        "number": 64,
                        "time": 82.19177100000003,
                        "value": 1
                    },
                    {
                        "number": 64,
                        "time": 83.39433738125003,
                        "value": 0
                    },
                    {
                        "number": 64,
                        "time": 83.78994432500002,
                        "value": 1
                    },
                    {
                        "number": 64,
                        "time": 84.65201318750002,
                        "value": 0
                    },
                    {
                        "number": 64,
                        "time": 85.02597000000002,
                        "value": 0
                    },
                    {
                        "number": 64,
                        "time": 85.20704382500001,
                        "value": 1
                    },
                    {
                        "number": 64,
                        "time": 85.98841674375001,
                        "value": 0
                    },
                    {
                        "number": 64,
                        "time": 86.11044475625,
                        "value": 1
                    },
                    {
                        "number": 64,
                        "time": 86.4627514375,
                        "value": 0
                    },
                    {
                        "number": 64,
                        "time": 86.624143325,
                        "value": 1
                    },
                    {
                        "number": 64,
                        "time": 87.86804177500001,
                        "value": 0
                    },
                    {
                        "number": 64,
                        "time": 87.99991075625,
                        "value": 1
                    },
                    {
                        "number": 64,
                        "time": 88.81867935625,
                        "value": 0
                    },
                    {
                        "number": 64,
                        "time": 88.9584211125,
                        "value": 1
                    },
                    {
                        "number": 64,
                        "time": 89.300886825,
                        "value": 0
                    },
                    {
                        "number": 64,
                        "time": 89.51345175,
                        "value": 1
                    },
                    {
                        "number": 64,
                        "time": 90.694368,
                        "value": 0
                    },
                    {
                        "number": 64,
                        "time": 90.9581059625,
                        "value": 1
                    },
                    {
                        "number": 64,
                        "time": 92.1311494375,
                        "value": 0
                    },
                    {
                        "number": 64,
                        "time": 92.4539332125,
                        "value": 1
                    },
                    {
                        "number": 64,
                        "time": 93.0758824375,
                        "value": 0
                    },
                    {
                        "number": 64,
                        "time": 93.21562419375,
                        "value": 1
                    },
                    {
                        "number": 64,
                        "time": 93.54234435625,
                        "value": 0
                    },
                    {
                        "number": 64,
                        "time": 93.77852760625,
                        "value": 1
                    },
                    {
                        "number": 64,
                        "time": 94.49495013125,
                        "value": 0
                    },
                    {
                        "number": 64,
                        "time": 94.72326060625,
                        "value": 1
                    },
                    {
                        "number": 64,
                        "time": 94.97518940625,
                        "value": 0
                    },
                    {
                        "number": 64,
                        "time": 95.21924543125,
                        "value": 1
                    },
                    {
                        "number": 64,
                        "time": 95.914017825,
                        "value": 0
                    },
                    {
                        "number": 64,
                        "time": 96.37654335625,
                        "value": 1
                    },
                    {
                        "number": 64,
                        "time": 97.3350537125,
                        "value": 0
                    },
                    {
                        "number": 64,
                        "time": 97.46692269374999,
                        "value": 1
                    },
                    {
                        "number": 64,
                        "time": 97.80151563125,
                        "value": 0
                    },
                    {
                        "number": 64,
                        "time": 97.9058299,
                        "value": 1
                    },
                    {
                        "number": 64,
                        "time": 98.74624863125,
                        "value": 0
                    },
                    {
                        "number": 64,
                        "time": 98.8230081875,
                        "value": 1
                    },
                    {
                        "number": 64,
                        "time": 99.21664693749999,
                        "value": 0
                    },
                    {
                        "number": 64,
                        "time": 99.54533529374999,
                        "value": 1
                    },
                    {
                        "number": 64,
                        "time": 100.16925271249998,
                        "value": 0
                    },
                    {
                        "number": 64,
                        "time": 100.41921331874998,
                        "value": 1
                    },
                    {
                        "number": 64,
                        "time": 100.63374643749998,
                        "value": 0
                    },
                    {
                        "number": 64,
                        "time": 100.80891568124999,
                        "value": 1
                    },
                    {
                        "number": 64,
                        "time": 101.44857864999999,
                        "value": 0
                    },
                    {
                        "number": 64,
                        "time": 113.45849691249998,
                        "value": 1
                    },
                    {
                        "number": 64,
                        "time": 114.32843854999999,
                        "value": 0
                    },
                    {
                        "number": 64,
                        "time": 114.46030753124998,
                        "value": 1
                    },
                    {
                        "number": 64,
                        "time": 114.79883685624998,
                        "value": 0
                    },
                    {
                        "number": 64,
                        "time": 114.95432416249997,
                        "value": 1
                    },
                    {
                        "number": 64,
                        "time": 116.21396816249997,
                        "value": 0
                    },
                    {
                        "number": 64,
                        "time": 116.34190075624997,
                        "value": 1
                    },
                    {
                        "number": 64,
                        "time": 117.64287682499997,
                        "value": 0
                    },
                    {
                        "number": 64,
                        "time": 117.77277761249998,
                        "value": 1
                    },
                    {
                        "number": 64,
                        "time": 119.04226258124999,
                        "value": 0
                    },
                    {
                        "number": 64,
                        "time": 119.18987711249999,
                        "value": 1
                    },
                    {
                        "number": 64,
                        "time": 120.47313943749998,
                        "value": 0
                    },
                    {
                        "number": 64,
                        "time": 120.70341810624998,
                        "value": 1
                    },
                    {
                        "number": 64,
                        "time": 121.42574521249999,
                        "value": 0
                    },
                    {
                        "number": 64,
                        "time": 121.93944378124999,
                        "value": 1
                    },
                    {
                        "number": 64,
                        "time": 122.83890832499999,
                        "value": 0
                    },
                    {
                        "number": 64,
                        "time": 122.89992233125,
                        "value": 1
                    },
                    {
                        "number": 64,
                        "time": 123.30537024374999,
                        "value": 0
                    },
                    {
                        "number": 64,
                        "time": 123.44904838749999,
                        "value": 1
                    },
                    {
                        "number": 64,
                        "time": 124.25207143749998,
                        "value": 0
                    },
                    {
                        "number": 64,
                        "time": 124.31308544374998,
                        "value": 1
                    },
                    {
                        "number": 64,
                        "time": 124.71262877499998,
                        "value": 0
                    },
                    {
                        "number": 64,
                        "time": 124.87205246874998,
                        "value": 1
                    },
                    {
                        "number": 64,
                        "time": 125.66720274374998,
                        "value": 0
                    },
                    {
                        "number": 64,
                        "time": 125.81678546874998,
                        "value": 1
                    },
                    {
                        "number": 64,
                        "time": 126.16318756874999,
                        "value": 0
                    },
                    {
                        "number": 64,
                        "time": 126.34426139374999,
                        "value": 1
                    },
                    {
                        "number": 64,
                        "time": 126.66507697499999,
                        "value": 0
                    },
                    {
                        "number": 64,
                        "time": 136.08682045625,
                        "value": 1
                    },
                    {
                        "number": 64,
                        "time": 136.9980941625,
                        "value": 0
                    },
                    {
                        "number": 64,
                        "time": 137.167358825,
                        "value": 1
                    },
                    {
                        "number": 64,
                        "time": 137.47242885625002,
                        "value": 0
                    },
                    {
                        "number": 64,
                        "time": 137.62791616250001,
                        "value": 1
                    },
                    {
                        "number": 64,
                        "time": 138.88165558125002,
                        "value": 0
                    },
                    {
                        "number": 64,
                        "time": 139.01549275625,
                        "value": 1
                    },
                    {
                        "number": 64,
                        "time": 140.31450063125,
                        "value": 0
                    },
                    {
                        "number": 64,
                        "time": 140.4463696125,
                        "value": 1
                    },
                    {
                        "number": 64,
                        "time": 141.71585458125,
                        "value": 0
                    },
                    {
                        "number": 64,
                        "time": 141.8634691125,
                        "value": 1
                    },
                    {
                        "number": 64,
                        "time": 143.14673143750002,
                        "value": 0
                    },
                    {
                        "number": 64,
                        "time": 143.37701010625003,
                        "value": 1
                    },
                    {
                        "number": 64,
                        "time": 144.09933721250002,
                        "value": 0
                    },
                    {
                        "number": 64,
                        "time": 144.65633604375003,
                        "value": 1
                    },
                    {
                        "number": 64,
                        "time": 145.51250032500002,
                        "value": 0
                    },
                    {
                        "number": 64,
                        "time": 145.57351433125,
                        "value": 1
                    },
                    {
                        "number": 64,
                        "time": 145.97896224375,
                        "value": 0
                    },
                    {
                        "number": 64,
                        "time": 146.1226403875,
                        "value": 1
                    },
                    {
                        "number": 64,
                        "time": 146.92959982500003,
                        "value": 0
                    },
                    {
                        "number": 64,
                        "time": 146.98667744375,
                        "value": 1
                    },
                    {
                        "number": 64,
                        "time": 147.38425258125002,
                        "value": 0
                    },
                    {
                        "number": 64,
                        "time": 147.54564446875003,
                        "value": 1
                    },
                    {
                        "number": 64,
                        "time": 148.34079474375002,
                        "value": 0
                    },
                    {
                        "number": 64,
                        "time": 148.49037746875,
                        "value": 1
                    },
                    {
                        "number": 64,
                        "time": 148.81709763125002,
                        "value": 0
                    },
                    {
                        "number": 64,
                        "time": 149.01785339375002,
                        "value": 1
                    },
                    {
                        "number": 64,
                        "time": 149.33866897500002,
                        "value": 0
                    },
                    {
                        "number": 64,
                        "time": 155.88684958125003,
                        "value": 1
                    },
                    {
                        "number": 64,
                        "time": 156.60327210625005,
                        "value": 0
                    },
                    {
                        "number": 64,
                        "time": 157.43778625625004,
                        "value": 1
                    },
                    {
                        "number": 64,
                        "time": 158.11878129375003,
                        "value": 0
                    },
                    {
                        "number": 64,
                        "time": 158.72104858125005,
                        "value": 1
                    },
                    {
                        "number": 64,
                        "time": 159.68349532500005,
                        "value": 0
                    },
                    {
                        "number": 64,
                        "time": 159.85472818125004,
                        "value": 1
                    },
                    {
                        "number": 64,
                        "time": 160.15586182500004,
                        "value": 0
                    },
                    {
                        "number": 64,
                        "time": 160.60461000000004,
                        "value": 1
                    },
                    {
                        "number": 64,
                        "time": 161.21671825625003,
                        "value": 0
                    },
                    {
                        "number": 64,
                        "time": 172.94912120000004,
                        "value": 1
                    },
                    {
                        "number": 64,
                        "time": 173.84858574375005,
                        "value": 0
                    },
                    {
                        "number": 64,
                        "time": 173.90763155625004,
                        "value": 1
                    },
                    {
                        "number": 64,
                        "time": 174.32292043750004,
                        "value": 0
                    },
                    {
                        "number": 64,
                        "time": 174.43510748125004,
                        "value": 1
                    },
                    {
                        "number": 64,
                        "time": 175.30308092500005,
                        "value": 0
                    },
                    {
                        "number": 64,
                        "time": 175.88763446875004,
                        "value": 1
                    },
                    {
                        "number": 64,
                        "time": 176.68278474375003,
                        "value": 0
                    },
                    {
                        "number": 64,
                        "time": 176.83236746875002,
                        "value": 1
                    },
                    {
                        "number": 64,
                        "time": 177.15908763125003,
                        "value": 0
                    },
                    {
                        "number": 64,
                        "time": 177.35984339375003,
                        "value": 1
                    },
                    {
                        "number": 64,
                        "time": 177.68065897500003,
                        "value": 0
                    },
                    {
                        "number": 64,
                        "time": 184.22883958125004,
                        "value": 1
                    },
                    {
                        "number": 64,
                        "time": 184.94526210625006,
                        "value": 0
                    },
                    {
                        "number": 64,
                        "time": 185.77780806250004,
                        "value": 1
                    },
                    {
                        "number": 64,
                        "time": 186.46077129375004,
                        "value": 0
                    },
                    {
                        "number": 64,
                        "time": 187.09846606875004,
                        "value": 1
                    },
                    {
                        "number": 64,
                        "time": 188.02548532500003,
                        "value": 0
                    },
                    {
                        "number": 64,
                        "time": 188.19671818125002,
                        "value": 1
                    },
                    {
                        "number": 64,
                        "time": 188.49785182500003,
                        "value": 0
                    },
                    {
                        "number": 64,
                        "time": 188.76552617500002,
                        "value": 1
                    },
                    {
                        "number": 64,
                        "time": 189.55870825625001,
                        "value": 0
                    },
                    {
                        "number": 64,
                        "time": 201.27733384375,
                        "value": 1
                    },
                    {
                        "number": 64,
                        "time": 202.19057574375,
                        "value": 0
                    },
                    {
                        "number": 64,
                        "time": 202.24962155625,
                        "value": 1
                    },
                    {
                        "number": 64,
                        "time": 202.6649104375,
                        "value": 0
                    },
                    {
                        "number": 64,
                        "time": 202.77709748125,
                        "value": 1
                    },
                    {
                        "number": 64,
                        "time": 203.645070925,
                        "value": 0
                    },
                    {
                        "number": 64,
                        "time": 204.22962446875,
                        "value": 1
                    },
                    {
                        "number": 64,
                        "time": 205.02477474375,
                        "value": 0
                    },
                    {
                        "number": 64,
                        "time": 205.17435746874997,
                        "value": 1
                    },
                    {
                        "number": 64,
                        "time": 205.50107763124998,
                        "value": 0
                    },
                    {
                        "number": 64,
                        "time": 205.70183339374998,
                        "value": 1
                    },
                    {
                        "number": 64,
                        "time": 206.02264897499998,
                        "value": 0
                    },
                    {
                        "number": 64,
                        "time": 210.70498190624997,
                        "value": 1
                    },
                    {
                        "number": 64,
                        "time": 211.15569827499996,
                        "value": 0
                    },
                    {
                        "number": 64,
                        "time": 213.56083103749995,
                        "value": 1
                    },
                    {
                        "number": 64,
                        "time": 213.99777004999996,
                        "value": 0
                    },
                    {
                        "number": 64,
                        "time": 216.39503003749996,
                        "value": 1
                    },
                    {
                        "number": 64,
                        "time": 216.82606446874996,
                        "value": 0
                    },
                    {
                        "number": 64,
                        "time": 217.76686108124997,
                        "value": 1
                    },
                    {
                        "number": 64,
                        "time": 218.23332299999998,
                        "value": 0
                    },
                    {
                        "number": 64,
                        "time": 219.75473676874998,
                        "value": 1
                    },
                    {
                        "number": 64,
                        "time": 220.61680563124997,
                        "value": 0
                    },
                    {
                        "number": 64,
                        "time": 220.74867461249997,
                        "value": 1
                    },
                    {
                        "number": 64,
                        "time": 221.06752199999997,
                        "value": 0
                    },
                    {
                        "number": 64,
                        "time": 221.13050419999996,
                        "value": 1
                    },
                    {
                        "number": 64,
                        "time": 221.54972946874997,
                        "value": 0
                    },
                    {
                        "number": 64,
                        "time": 222.06145984375,
                        "value": 1
                    },
                    {
                        "number": 64,
                        "time": 222.50233524375,
                        "value": 0
                    },
                    {
                        "number": 64,
                        "time": 222.5751584125,
                        "value": 1
                    },
                    {
                        "number": 64,
                        "time": 222.97273355000002,
                        "value": 0
                    },
                    {
                        "number": 64,
                        "time": 223.56122348125,
                        "value": 1
                    },
                    {
                        "number": 64,
                        "time": 223.90959377500002,
                        "value": 0
                    },
                    {
                        "number": 64,
                        "time": 223.96470320000003,
                        "value": 1
                    },
                    {
                        "number": 64,
                        "time": 224.39180124375002,
                        "value": 0
                    },
                    {
                        "number": 64,
                        "time": 224.89565884375003,
                        "value": 1
                    },
                    {
                        "number": 64,
                        "time": 225.33850243750004,
                        "value": 0
                    },
                    {
                        "number": 64,
                        "time": 225.40935741250004,
                        "value": 1
                    },
                    {
                        "number": 64,
                        "time": 225.79512338750004,
                        "value": 0
                    },
                    {
                        "number": 64,
                        "time": 226.39542248125005,
                        "value": 1
                    },
                    {
                        "number": 64,
                        "time": 226.74182458125006,
                        "value": 0
                    },
                    {
                        "number": 64,
                        "time": 226.79890220000004,
                        "value": 1
                    },
                    {
                        "number": 64,
                        "time": 227.22796843750004,
                        "value": 0
                    },
                    {
                        "number": 64,
                        "time": 228.26520654375003,
                        "value": 1
                    },
                    {
                        "number": 64,
                        "time": 228.62932238750003,
                        "value": 0
                    },
                    {
                        "number": 64,
                        "time": 229.63310120000003,
                        "value": 1
                    },
                    {
                        "number": 64,
                        "time": 230.05823105000002,
                        "value": 0
                    },
                    {
                        "number": 64,
                        "time": 231.010836825,
                        "value": 1
                    },
                    {
                        "number": 64,
                        "time": 231.483203325,
                        "value": 0
                    },
                    {
                        "number": 64,
                        "time": 233.37857390625,
                        "value": 1
                    },
                    {
                        "number": 64,
                        "time": 233.83913124375002,
                        "value": 0
                    },
                    {
                        "number": 64,
                        "time": 236.23442303750002,
                        "value": 1
                    },
                    {
                        "number": 64,
                        "time": 236.67529843750003,
                        "value": 0
                    },
                    {
                        "number": 64,
                        "time": 239.06862203750003,
                        "value": 1
                    },
                    {
                        "number": 64,
                        "time": 239.50359285625004,
                        "value": 0
                    },
                    {
                        "number": 64,
                        "time": 240.44045308125004,
                        "value": 1
                    },
                    {
                        "number": 64,
                        "time": 240.90691500000005,
                        "value": 0
                    },
                    {
                        "number": 64,
                        "time": 242.42832876875005,
                        "value": 1
                    },
                    {
                        "number": 64,
                        "time": 243.29039763125004,
                        "value": 0
                    },
                    {
                        "number": 64,
                        "time": 243.42226661250004,
                        "value": 1
                    },
                    {
                        "number": 64,
                        "time": 243.74111400000004,
                        "value": 0
                    },
                    {
                        "number": 64,
                        "time": 243.80409620000003,
                        "value": 1
                    },
                    {
                        "number": 64,
                        "time": 244.23316243750003,
                        "value": 0
                    },
                    {
                        "number": 64,
                        "time": 244.73505184375003,
                        "value": 1
                    },
                    {
                        "number": 64,
                        "time": 245.17986363125002,
                        "value": 0
                    },
                    {
                        "number": 64,
                        "time": 245.24875041250002,
                        "value": 1
                    },
                    {
                        "number": 64,
                        "time": 245.6502619375,
                        "value": 0
                    },
                    {
                        "number": 64,
                        "time": 246.23481548125,
                        "value": 1
                    },
                    {
                        "number": 64,
                        "time": 246.58909035624998,
                        "value": 0
                    },
                    {
                        "number": 64,
                        "time": 246.6382952,
                        "value": 1
                    },
                    {
                        "number": 64,
                        "time": 247.06145685624998,
                        "value": 0
                    },
                    {
                        "number": 64,
                        "time": 247.56925084374998,
                        "value": 1
                    },
                    {
                        "number": 64,
                        "time": 248.00618985625,
                        "value": 0
                    },
                    {
                        "number": 64,
                        "time": 248.0829494125,
                        "value": 1
                    },
                    {
                        "number": 64,
                        "time": 248.4765881625,
                        "value": 0
                    },
                    {
                        "number": 64,
                        "time": 249.06901448125,
                        "value": 1
                    },
                    {
                        "number": 64,
                        "time": 249.41541658125,
                        "value": 0
                    },
                    {
                        "number": 64,
                        "time": 249.4724942,
                        "value": 1
                    },
                    {
                        "number": 64,
                        "time": 249.89171946875,
                        "value": 0
                    },
                    {
                        "number": 64,
                        "time": 250.93879854375,
                        "value": 1
                    },
                    {
                        "number": 64,
                        "time": 251.30488258125,
                        "value": 0
                    },
                    {
                        "number": 64,
                        "time": 252.3066932,
                        "value": 1
                    },
                    {
                        "number": 64,
                        "time": 252.72985485625,
                        "value": 0
                    },
                    {
                        "number": 64,
                        "time": 253.684428825,
                        "value": 1
                    },
                    {
                        "number": 64,
                        "time": 254.1449861625,
                        "value": 0
                    },
                    {
                        "number": 64,
                        "time": 257.4712336,
                        "value": 1
                    },
                    {
                        "number": 64,
                        "time": 257.912109,
                        "value": 0
                    },
                    {
                        "number": 64,
                        "time": 260.32314634375,
                        "value": 1
                    },
                    {
                        "number": 64,
                        "time": 260.746308,
                        "value": 0
                    },
                    {
                        "number": 64,
                        "time": 260.8289721375,
                        "value": 1
                    },
                    {
                        "number": 64,
                        "time": 261.23442005,
                        "value": 0
                    },
                    {
                        "number": 64,
                        "time": 261.39187555,
                        "value": 1
                    },
                    {
                        "number": 64,
                        "time": 261.70481835625003,
                        "value": 0
                    },
                    {
                        "number": 64,
                        "time": 262.19686679375,
                        "value": 1
                    },
                    {
                        "number": 64,
                        "time": 262.65348774375,
                        "value": 0
                    },
                    {
                        "number": 64,
                        "time": 262.82472060000003,
                        "value": 1
                    },
                    {
                        "number": 64,
                        "time": 263.1278224375,
                        "value": 0
                    },
                    {
                        "number": 64,
                        "time": 263.580507,
                        "value": 1
                    },
                    {
                        "number": 64,
                        "time": 264.564603875,
                        "value": 0
                    },
                    {
                        "number": 64,
                        "time": 264.643331625,
                        "value": 1
                    },
                    {
                        "number": 64,
                        "time": 265.01925663124996,
                        "value": 0
                    },
                    {
                        "number": 64,
                        "time": 265.18852129374994,
                        "value": 1
                    },
                    {
                        "number": 64,
                        "time": 265.99351253749995,
                        "value": 0
                    },
                    {
                        "number": 64,
                        "time": 267.38896190624996,
                        "value": 1
                    },
                    {
                        "number": 64,
                        "time": 267.84755104999994,
                        "value": 0
                    },
                    {
                        "number": 64,
                        "time": 270.2448110374999,
                        "value": 1
                    },
                    {
                        "number": 64,
                        "time": 270.6758454687499,
                        "value": 0
                    },
                    {
                        "number": 64,
                        "time": 273.0790100374999,
                        "value": 1
                    },
                    {
                        "number": 64,
                        "time": 273.5198854374999,
                        "value": 0
                    },
                    {
                        "number": 64,
                        "time": 274.4508410812499,
                        "value": 1
                    },
                    {
                        "number": 64,
                        "time": 274.9350167437499,
                        "value": 0
                    },
                    {
                        "number": 64,
                        "time": 275.9132090374999,
                        "value": 1
                    },
                    {
                        "number": 64,
                        "time": 276.3481798562499,
                        "value": 0
                    },
                    {
                        "number": 64,
                        "time": 277.7515019999999,
                        "value": 0
                    },
                    {
                        "number": 64,
                        "time": 277.8144841999999,
                        "value": 1
                    },
                    {
                        "number": 64,
                        "time": 278.2376458562499,
                        "value": 0
                    },
                    {
                        "number": 64,
                        "time": 279.2807885437499,
                        "value": 1
                    },
                    {
                        "number": 64,
                        "time": 279.6704909062499,
                        "value": 0
                    },
                    {
                        "number": 64,
                        "time": 280.6486831999999,
                        "value": 1
                    },
                    {
                        "number": 64,
                        "time": 281.06397208124986,
                        "value": 0
                    },
                    {
                        "number": 64,
                        "time": 282.02641882499984,
                        "value": 1
                    },
                    {
                        "number": 64,
                        "time": 282.50468990624984,
                        "value": 0
                    },
                    {
                        "number": 64,
                        "time": 285.73055946249985,
                        "value": 1
                    },
                    {
                        "number": 64,
                        "time": 286.2540989999999,
                        "value": 0
                    },
                    {
                        "number": 64,
                        "time": 288.6651363437499,
                        "value": 1
                    },
                    {
                        "number": 64,
                        "time": 289.0882979999999,
                        "value": 0
                    },
                    {
                        "number": 64,
                        "time": 289.1709621374999,
                        "value": 1
                    },
                    {
                        "number": 64,
                        "time": 289.5941237937499,
                        "value": 0
                    },
                    {
                        "number": 64,
                        "time": 289.72008819374986,
                        "value": 1
                    },
                    {
                        "number": 64,
                        "time": 290.05271293749985,
                        "value": 0
                    },
                    {
                        "number": 64,
                        "time": 290.53885679374986,
                        "value": 1
                    },
                    {
                        "number": 64,
                        "time": 290.99744593749983,
                        "value": 0
                    },
                    {
                        "number": 64,
                        "time": 291.1588378249998,
                        "value": 1
                    },
                    {
                        "number": 64,
                        "time": 291.4698124374998,
                        "value": 0
                    },
                    {
                        "number": 64,
                        "time": 291.9559562937498,
                        "value": 1
                    },
                    {
                        "number": 64,
                        "time": 292.9065938749998,
                        "value": 0
                    },
                    {
                        "number": 64,
                        "time": 292.9853216249998,
                        "value": 1
                    },
                    {
                        "number": 64,
                        "time": 293.3592784374998,
                        "value": 0
                    },
                    {
                        "number": 64,
                        "time": 293.53051129374984,
                        "value": 1
                    },
                    {
                        "number": 64,
                        "time": 294.33550253749985,
                        "value": 0
                    },
                    {
                        "number": 64,
                        "time": 295.73095190624986,
                        "value": 1
                    },
                    {
                        "number": 64,
                        "time": 296.19741382499984,
                        "value": 0
                    },
                    {
                        "number": 64,
                        "time": 298.58680103749987,
                        "value": 1
                    },
                    {
                        "number": 64,
                        "time": 299.01783546874987,
                        "value": 0
                    },
                    {
                        "number": 64,
                        "time": 301.4210000374999,
                        "value": 1
                    },
                    {
                        "number": 64,
                        "time": 301.8638436312499,
                        "value": 0
                    },
                    {
                        "number": 64,
                        "time": 302.7928310812499,
                        "value": 1
                    },
                    {
                        "number": 64,
                        "time": 303.2770067437499,
                        "value": 0
                    },
                    {
                        "number": 64,
                        "time": 304.2551990374999,
                        "value": 1
                    },
                    {
                        "number": 64,
                        "time": 304.7059154062499,
                        "value": 0
                    },
                    {
                        "number": 64,
                        "time": 306.0934919999999,
                        "value": 0
                    },
                    {
                        "number": 64,
                        "time": 306.15647419999993,
                        "value": 1
                    },
                    {
                        "number": 64,
                        "time": 306.58750863124993,
                        "value": 0
                    },
                    {
                        "number": 64,
                        "time": 307.6227785437499,
                        "value": 1
                    },
                    {
                        "number": 64,
                        "time": 308.0065763249999,
                        "value": 0
                    },
                    {
                        "number": 64,
                        "time": 308.9906731999999,
                        "value": 1
                    },
                    {
                        "number": 64,
                        "time": 309.4158030499999,
                        "value": 0
                    },
                    {
                        "number": 64,
                        "time": 310.3684088249999,
                        "value": 1
                    },
                    {
                        "number": 64,
                        "time": 310.8565208749999,
                        "value": 0
                    },
                    {
                        "number": 64,
                        "time": 314.5960889999999,
                        "value": 1
                    },
                    {
                        "number": 64,
                        "time": 316.03287043749987,
                        "value": 0
                    },
                    {
                        "number": 64,
                        "time": 316.11553457499986,
                        "value": 1
                    },
                    {
                        "number": 64,
                        "time": 316.50523693749983,
                        "value": 0
                    },
                    {
                        "number": 64,
                        "time": 316.6095512062498,
                        "value": 1
                    },
                    {
                        "number": 64,
                        "time": 317.45193813124985,
                        "value": 0
                    },
                    {
                        "number": 64,
                        "time": 317.52082491249985,
                        "value": 1
                    },
                    {
                        "number": 64,
                        "time": 318.85722846874984,
                        "value": 0
                    },
                    {
                        "number": 64,
                        "time": 319.0048429999998,
                        "value": 1
                    },
                    {
                        "number": 64,
                        "time": 319.3453405187498,
                        "value": 0
                    },
                    {
                        "number": 64,
                        "time": 319.4890186624998,
                        "value": 1
                    },
                    {
                        "number": 64,
                        "time": 320.2644869999998,
                        "value": 0
                    },
                    {
                        "number": 64,
                        "time": 320.3668330749998,
                        "value": 1
                    },
                    {
                        "number": 64,
                        "time": 321.2367747124998,
                        "value": 0
                    },
                    {
                        "number": 64,
                        "time": 321.3666754999998,
                        "value": 1
                    },
                    {
                        "number": 64,
                        "time": 321.6914274687498,
                        "value": 0
                    },
                    {
                        "number": 64,
                        "time": 321.8173918687498,
                        "value": 1
                    },
                    {
                        "number": 64,
                        "time": 322.1756031312498,
                        "value": 0
                    },
                    {
                        "number": 64,
                        "time": 322.2661400437498,
                        "value": 1
                    },
                    {
                        "number": 64,
                        "time": 323.1045905812498,
                        "value": 0
                    },
                    {
                        "number": 64,
                        "time": 323.2561414999998,
                        "value": 1
                    },
                    {
                        "number": 64,
                        "time": 323.5927026312498,
                        "value": 0
                    },
                    {
                        "number": 64,
                        "time": 323.7285079999998,
                        "value": 1
                    },
                    {
                        "number": 64,
                        "time": 324.5275946624998,
                        "value": 0
                    },
                    {
                        "number": 64,
                        "time": 324.69685932499976,
                        "value": 1
                    },
                    {
                        "number": 64,
                        "time": 325.47626404999977,
                        "value": 0
                    },
                    {
                        "number": 64,
                        "time": 325.57270554374975,
                        "value": 1
                    },
                    {
                        "number": 64,
                        "time": 325.95256693749974,
                        "value": 0
                    },
                    {
                        "number": 64,
                        "time": 326.1690682499997,
                        "value": 1
                    },
                    {
                        "number": 64,
                        "time": 327.36966643749975,
                        "value": 0
                    },
                    {
                        "number": 64,
                        "time": 327.45233057499973,
                        "value": 1
                    },
                    {
                        "number": 64,
                        "time": 327.8420329374997,
                        "value": 0
                    },
                    {
                        "number": 64,
                        "time": 327.9463472062497,
                        "value": 1
                    },
                    {
                        "number": 64,
                        "time": 328.7887341312497,
                        "value": 0
                    },
                    {
                        "number": 64,
                        "time": 328.8576209124997,
                        "value": 1
                    },
                    {
                        "number": 64,
                        "time": 330.1940244687497,
                        "value": 0
                    },
                    {
                        "number": 64,
                        "time": 330.3416389999997,
                        "value": 1
                    },
                    {
                        "number": 64,
                        "time": 330.6860729062497,
                        "value": 0
                    },
                    {
                        "number": 64,
                        "time": 330.8258146624997,
                        "value": 1
                    },
                    {
                        "number": 64,
                        "time": 331.61112396874967,
                        "value": 0
                    },
                    {
                        "number": 64,
                        "time": 331.70362907499964,
                        "value": 1
                    },
                    {
                        "number": 64,
                        "time": 332.57357071249965,
                        "value": 0
                    },
                    {
                        "number": 64,
                        "time": 332.70347149999964,
                        "value": 1
                    },
                    {
                        "number": 64,
                        "time": 333.04003263124963,
                        "value": 0
                    },
                    {
                        "number": 64,
                        "time": 333.12072857499965,
                        "value": 1
                    },
                    {
                        "number": 64,
                        "time": 333.98082924374967,
                        "value": 0
                    },
                    {
                        "number": 64,
                        "time": 334.0871117062497,
                        "value": 1
                    },
                    {
                        "number": 64,
                        "time": 334.4512275499997,
                        "value": 0
                    },
                    {
                        "number": 64,
                        "time": 334.5929374999997,
                        "value": 1
                    },
                    {
                        "number": 64,
                        "time": 335.3959605499997,
                        "value": 0
                    },
                    {
                        "number": 64,
                        "time": 335.4510699749997,
                        "value": 1
                    },
                    {
                        "number": 64,
                        "time": 335.89784995624973,
                        "value": 0
                    },
                    {
                        "number": 64,
                        "time": 337.2696809999997,
                        "value": 1
                    },
                    {
                        "number": 64,
                        "time": 338.7064624374997,
                        "value": 0
                    },
                    {
                        "number": 64,
                        "time": 338.78912657499967,
                        "value": 1
                    },
                    {
                        "number": 64,
                        "time": 339.17882893749965,
                        "value": 0
                    },
                    {
                        "number": 64,
                        "time": 339.28314320624963,
                        "value": 1
                    },
                    {
                        "number": 64,
                        "time": 340.12553013124966,
                        "value": 0
                    },
                    {
                        "number": 64,
                        "time": 340.19441691249966,
                        "value": 1
                    },
                    {
                        "number": 64,
                        "time": 341.53082046874965,
                        "value": 0
                    },
                    {
                        "number": 64,
                        "time": 341.67843499999964,
                        "value": 1
                    },
                    {
                        "number": 64,
                        "time": 342.01696432499966,
                        "value": 0
                    },
                    {
                        "number": 64,
                        "time": 342.24133841249966,
                        "value": 1
                    },
                    {
                        "number": 64,
                        "time": 342.94398358124965,
                        "value": 0
                    },
                    {
                        "number": 64,
                        "time": 343.04042507499963,
                        "value": 1
                    },
                    {
                        "number": 64,
                        "time": 343.91430309999964,
                        "value": 0
                    },
                    {
                        "number": 64,
                        "time": 344.04026749999963,
                        "value": 1
                    },
                    {
                        "number": 64,
                        "time": 344.3650194687496,
                        "value": 0
                    },
                    {
                        "number": 64,
                        "time": 344.4909838687496,
                        "value": 1
                    },
                    {
                        "number": 64,
                        "time": 344.8491951312496,
                        "value": 0
                    },
                    {
                        "number": 64,
                        "time": 344.9397320437496,
                        "value": 1
                    },
                    {
                        "number": 64,
                        "time": 345.7801507749996,
                        "value": 0
                    },
                    {
                        "number": 64,
                        "time": 345.9297334999996,
                        "value": 1
                    },
                    {
                        "number": 64,
                        "time": 346.2662946312496,
                        "value": 0
                    },
                    {
                        "number": 64,
                        "time": 346.4020999999996,
                        "value": 1
                    },
                    {
                        "number": 64,
                        "time": 347.2228367937496,
                        "value": 0
                    },
                    {
                        "number": 64,
                        "time": 347.3704513249996,
                        "value": 1
                    },
                    {
                        "number": 64,
                        "time": 348.1498560499996,
                        "value": 0
                    },
                    {
                        "number": 64,
                        "time": 348.24629754374956,
                        "value": 1
                    },
                    {
                        "number": 64,
                        "time": 348.62615893749955,
                        "value": 0
                    },
                    {
                        "number": 64,
                        "time": 348.84266024999954,
                        "value": 1
                    },
                    {
                        "number": 64,
                        "time": 350.04325843749956,
                        "value": 0
                    },
                    {
                        "number": 64,
                        "time": 350.12592257499955,
                        "value": 1
                    },
                    {
                        "number": 64,
                        "time": 350.5156249374995,
                        "value": 0
                    },
                    {
                        "number": 64,
                        "time": 350.6199392062495,
                        "value": 1
                    },
                    {
                        "number": 64,
                        "time": 351.46232613124954,
                        "value": 0
                    },
                    {
                        "number": 64,
                        "time": 351.53121291249954,
                        "value": 1
                    },
                    {
                        "number": 64,
                        "time": 352.86761646874953,
                        "value": 0
                    },
                    {
                        "number": 64,
                        "time": 353.0152309999995,
                        "value": 1
                    },
                    {
                        "number": 64,
                        "time": 353.3557285187495,
                        "value": 0
                    },
                    {
                        "number": 64,
                        "time": 353.4994066624995,
                        "value": 1
                    },
                    {
                        "number": 64,
                        "time": 354.2827477749995,
                        "value": 0
                    },
                    {
                        "number": 64,
                        "time": 354.3772210749995,
                        "value": 1
                    },
                    {
                        "number": 64,
                        "time": 355.2491309062495,
                        "value": 0
                    },
                    {
                        "number": 64,
                        "time": 355.3770634999995,
                        "value": 1
                    },
                    {
                        "number": 64,
                        "time": 355.7136246312495,
                        "value": 0
                    },
                    {
                        "number": 64,
                        "time": 355.8730483249995,
                        "value": 1
                    },
                    {
                        "number": 64,
                        "time": 356.6504848562495,
                        "value": 0
                    },
                    {
                        "number": 64,
                        "time": 356.7488945437495,
                        "value": 1
                    },
                    {
                        "number": 64,
                        "time": 357.11694677499946,
                        "value": 0
                    },
                    {
                        "number": 64,
                        "time": 357.2665294999995,
                        "value": 1
                    },
                    {
                        "number": 64,
                        "time": 358.0754571312495,
                        "value": 0
                    },
                    {
                        "number": 64,
                        "time": 358.1522166874995,
                        "value": 1
                    },
                    {
                        "number": 64,
                        "time": 358.5714419562495,
                        "value": 0
                    },
                    {
                        "number": 64,
                        "time": 359.94327299999946,
                        "value": 1
                    },
                    {
                        "number": 64,
                        "time": 360.9155607124995,
                        "value": 0
                    },
                    {
                        "number": 64,
                        "time": 361.10253911874946,
                        "value": 1
                    },
                    {
                        "number": 64,
                        "time": 361.38202263124947,
                        "value": 0
                    },
                    {
                        "number": 64,
                        "time": 361.49617786874944,
                        "value": 1
                    },
                    {
                        "number": 64,
                        "time": 362.78337658124946,
                        "value": 0
                    },
                    {
                        "number": 64,
                        "time": 362.91327736874945,
                        "value": 1
                    },
                    {
                        "number": 64,
                        "time": 363.7556642937495,
                        "value": 0
                    },
                    {
                        "number": 64,
                        "time": 363.86981953124945,
                        "value": 1
                    },
                    {
                        "number": 64,
                        "time": 364.22212621249946,
                        "value": 0
                    },
                    {
                        "number": 64,
                        "time": 364.3756453249995,
                        "value": 1
                    },
                    {
                        "number": 64,
                        "time": 364.6984290999995,
                        "value": 0
                    },
                    {
                        "number": 64,
                        "time": 364.8145525312495,
                        "value": 1
                    },
                    {
                        "number": 64,
                        "time": 365.6195437749995,
                        "value": 0
                    },
                    {
                        "number": 64,
                        "time": 365.7238580437495,
                        "value": 1
                    },
                    {
                        "number": 64,
                        "time": 366.5800223249995,
                        "value": 0
                    },
                    {
                        "number": 64,
                        "time": 366.7040185312495,
                        "value": 1
                    },
                    {
                        "number": 64,
                        "time": 367.03861146874954,
                        "value": 0
                    },
                    {
                        "number": 64,
                        "time": 367.1645758687495,
                        "value": 1
                    },
                    {
                        "number": 64,
                        "time": 367.52475532499955,
                        "value": 0
                    },
                    {
                        "number": 64,
                        "time": 367.61332404374957,
                        "value": 1
                    },
                    {
                        "number": 64,
                        "time": 367.9872808562496,
                        "value": 0
                    },
                    {
                        "number": 64,
                        "time": 368.0974997062496,
                        "value": 1
                    },
                    {
                        "number": 64,
                        "time": 368.4596473562496,
                        "value": 0
                    },
                    {
                        "number": 64,
                        "time": 368.5580570437496,
                        "value": 1
                    },
                    {
                        "number": 64,
                        "time": 368.9457912124996,
                        "value": 0
                    },
                    {
                        "number": 64,
                        "time": 369.0717556124996,
                        "value": 1
                    },
                    {
                        "number": 64,
                        "time": 369.4240622937496,
                        "value": 0
                    },
                    {
                        "number": 64,
                        "time": 369.59923153749963,
                        "value": 1
                    },
                    {
                        "number": 64,
                        "time": 369.9318562812496,
                        "value": 0
                    },
                    {
                        "number": 64,
                        "time": 370.1168664937496,
                        "value": 1
                    },
                    {
                        "number": 64,
                        "time": 370.82738443749963,
                        "value": 0
                    },
                    {
                        "number": 64,
                        "time": 371.32533745624966,
                        "value": 1
                    },
                    {
                        "number": 64,
                        "time": 372.71685043749966,
                        "value": 0
                    },
                    {
                        "number": 64,
                        "time": 372.79951457499965,
                        "value": 1
                    },
                    {
                        "number": 64,
                        "time": 373.1892169374996,
                        "value": 0
                    },
                    {
                        "number": 64,
                        "time": 373.2935312062496,
                        "value": 1
                    },
                    {
                        "number": 64,
                        "time": 374.13591813124964,
                        "value": 0
                    },
                    {
                        "number": 64,
                        "time": 374.2835326624996,
                        "value": 1
                    },
                    {
                        "number": 64,
                        "time": 375.54120846874963,
                        "value": 0
                    },
                    {
                        "number": 64,
                        "time": 375.6888229999996,
                        "value": 1
                    },
                    {
                        "number": 64,
                        "time": 376.02735232499964,
                        "value": 0
                    },
                    {
                        "number": 64,
                        "time": 376.17299866249965,
                        "value": 1
                    },
                    {
                        "number": 64,
                        "time": 376.96027616249967,
                        "value": 0
                    },
                    {
                        "number": 64,
                        "time": 377.05081307499967,
                        "value": 1
                    },
                    {
                        "number": 64,
                        "time": 377.91878651874964,
                        "value": 0
                    },
                    {
                        "number": 64,
                        "time": 378.05065549999966,
                        "value": 1
                    },
                    {
                        "number": 64,
                        "time": 378.38721663124966,
                        "value": 0
                    },
                    {
                        "number": 64,
                        "time": 378.50137186874963,
                        "value": 1
                    },
                    {
                        "number": 64,
                        "time": 379.3299814374996,
                        "value": 0
                    },
                    {
                        "number": 64,
                        "time": 379.4795641624996,
                        "value": 1
                    },
                    {
                        "number": 64,
                        "time": 379.7905387749996,
                        "value": 0
                    },
                    {
                        "number": 64,
                        "time": 379.94012149999963,
                        "value": 1
                    },
                    {
                        "number": 64,
                        "time": 380.75298551874965,
                        "value": 0
                    },
                    {
                        "number": 64,
                        "time": 380.8632043687497,
                        "value": 1
                    },
                    {
                        "number": 64,
                        "time": 381.2273202124997,
                        "value": 0
                    },
                    {
                        "number": 64,
                        "time": 381.4142986187497,
                        "value": 1
                    },
                    {
                        "number": 64,
                        "time": 382.1641804374997,
                        "value": 0
                    },
                    {
                        "number": 64,
                        "time": 382.3354132937497,
                        "value": 1
                    },
                    {
                        "number": 64,
                        "time": 382.6227695812497,
                        "value": 0
                    },
                    {
                        "number": 64,
                        "time": 382.79793882499973,
                        "value": 1
                    },
                    {
                        "number": 64,
                        "time": 383.5871845187497,
                        "value": 0
                    },
                    {
                        "number": 64,
                        "time": 383.71905349999975,
                        "value": 1
                    },
                    {
                        "number": 64,
                        "time": 384.05561463124974,
                        "value": 0
                    },
                    {
                        "number": 64,
                        "time": 384.1697698687497,
                        "value": 1
                    },
                    {
                        "number": 64,
                        "time": 384.9983794374997,
                        "value": 0
                    },
                    {
                        "number": 64,
                        "time": 385.0967891249997,
                        "value": 1
                    },
                    {
                        "number": 64,
                        "time": 385.4589367749997,
                        "value": 0
                    },
                    {
                        "number": 64,
                        "time": 385.5356963312497,
                        "value": 1
                    },
                    {
                        "number": 64,
                        "time": 386.4135107437497,
                        "value": 0
                    },
                    {
                        "number": 64,
                        "time": 386.5217613999997,
                        "value": 1
                    },
                    {
                        "number": 64,
                        "time": 386.9134319562497,
                        "value": 0
                    },
                    {
                        "number": 64,
                        "time": 388.2852629999997,
                        "value": 1
                    },
                    {
                        "number": 64,
                        "time": 389.2595189062497,
                        "value": 0
                    },
                    {
                        "number": 64,
                        "time": 389.4445291187497,
                        "value": 1
                    },
                    {
                        "number": 64,
                        "time": 389.7240126312497,
                        "value": 0
                    },
                    {
                        "number": 64,
                        "time": 389.8381678687497,
                        "value": 1
                    },
                    {
                        "number": 64,
                        "time": 391.12733477499967,
                        "value": 0
                    },
                    {
                        "number": 64,
                        "time": 391.2552673687497,
                        "value": 1
                    },
                    {
                        "number": 64,
                        "time": 392.0917497124997,
                        "value": 0
                    },
                    {
                        "number": 64,
                        "time": 392.2118095312497,
                        "value": 1
                    },
                    {
                        "number": 64,
                        "time": 392.5641162124997,
                        "value": 0
                    },
                    {
                        "number": 64,
                        "time": 392.6290666062497,
                        "value": 1
                    },
                    {
                        "number": 64,
                        "time": 393.0364827124997,
                        "value": 0
                    },
                    {
                        "number": 64,
                        "time": 393.1447333687497,
                        "value": 1
                    },
                    {
                        "number": 64,
                        "time": 393.96153377499974,
                        "value": 0
                    },
                    {
                        "number": 64,
                        "time": 394.0658480437497,
                        "value": 1
                    },
                    {
                        "number": 64,
                        "time": 394.92201232499974,
                        "value": 0
                    },
                    {
                        "number": 64,
                        "time": 395.05584949999974,
                        "value": 1
                    },
                    {
                        "number": 64,
                        "time": 395.3806014687497,
                        "value": 0
                    },
                    {
                        "number": 64,
                        "time": 395.5065658687497,
                        "value": 1
                    },
                    {
                        "number": 64,
                        "time": 395.8647771312497,
                        "value": 0
                    },
                    {
                        "number": 64,
                        "time": 395.9454730749997,
                        "value": 1
                    },
                    {
                        "number": 64,
                        "time": 396.3292708562497,
                        "value": 0
                    },
                    {
                        "number": 64,
                        "time": 396.41783957499973,
                        "value": 1
                    },
                    {
                        "number": 64,
                        "time": 396.8016373562497,
                        "value": 0
                    },
                    {
                        "number": 64,
                        "time": 396.90004704374974,
                        "value": 1
                    },
                    {
                        "number": 64,
                        "time": 397.28187663124976,
                        "value": 0
                    },
                    {
                        "number": 64,
                        "time": 397.3665089624998,
                        "value": 1
                    },
                    {
                        "number": 64,
                        "time": 397.7581795187498,
                        "value": 0
                    },
                    {
                        "number": 64,
                        "time": 397.94122153749976,
                        "value": 1
                    },
                    {
                        "number": 64,
                        "time": 398.27384628124975,
                        "value": 0
                    },
                    {
                        "number": 64,
                        "time": 398.45885649374975,
                        "value": 1
                    },
                    {
                        "number": 64,
                        "time": 399.16937443749976,
                        "value": 0
                    },
                    {
                        "number": 64,
                        "time": 399.62205899999975,
                        "value": 1
                    },
                    {
                        "number": 64,
                        "time": 401.0588404374997,
                        "value": 0
                    },
                    {
                        "number": 64,
                        "time": 401.1415045749997,
                        "value": 1
                    },
                    {
                        "number": 64,
                        "time": 401.5312069374997,
                        "value": 0
                    },
                    {
                        "number": 64,
                        "time": 401.6355212062497,
                        "value": 1
                    },
                    {
                        "number": 64,
                        "time": 402.4779081312497,
                        "value": 0
                    },
                    {
                        "number": 64,
                        "time": 402.5467949124997,
                        "value": 1
                    },
                    {
                        "number": 64,
                        "time": 403.8831984687497,
                        "value": 0
                    },
                    {
                        "number": 64,
                        "time": 404.0308129999997,
                        "value": 1
                    },
                    {
                        "number": 64,
                        "time": 404.3752469062497,
                        "value": 0
                    },
                    {
                        "number": 64,
                        "time": 404.51498866249966,
                        "value": 1
                    },
                    {
                        "number": 64,
                        "time": 405.29636158124964,
                        "value": 0
                    },
                    {
                        "number": 64,
                        "time": 405.3928030749996,
                        "value": 1
                    },
                    {
                        "number": 64,
                        "time": 406.2588083249996,
                        "value": 0
                    },
                    {
                        "number": 64,
                        "time": 406.3926454999996,
                        "value": 1
                    },
                    {
                        "number": 64,
                        "time": 406.7292066312496,
                        "value": 0
                    },
                    {
                        "number": 64,
                        "time": 406.8433618687496,
                        "value": 1
                    },
                    {
                        "number": 64,
                        "time": 407.66409866249955,
                        "value": 0
                    },
                    {
                        "number": 64,
                        "time": 407.72117628124954,
                        "value": 1
                    },
                    {
                        "number": 64,
                        "time": 408.13449696874954,
                        "value": 0
                    },
                    {
                        "number": 64,
                        "time": 408.28211149999953,
                        "value": 1
                    },
                    {
                        "number": 64,
                        "time": 409.08710274374954,
                        "value": 0
                    },
                    {
                        "number": 64,
                        "time": 409.19535339999953,
                        "value": 1
                    },
                    {
                        "number": 64,
                        "time": 409.5712784062495,
                        "value": 0
                    },
                    {
                        "number": 64,
                        "time": 409.7228293249995,
                        "value": 1
                    },
                    {
                        "number": 64,
                        "time": 410.5022340499995,
                        "value": 0
                    },
                    {
                        "number": 64,
                        "time": 410.5986755437495,
                        "value": 1
                    },
                    {
                        "number": 64,
                        "time": 410.9686959687495,
                        "value": 0
                    },
                    {
                        "number": 64,
                        "time": 411.0612010749995,
                        "value": 1
                    },
                    {
                        "number": 64,
                        "time": 411.93311090624945,
                        "value": 0
                    },
                    {
                        "number": 64,
                        "time": 412.06104349999947,
                        "value": 1
                    },
                    {
                        "number": 64,
                        "time": 412.39760463124946,
                        "value": 0
                    },
                    {
                        "number": 64,
                        "time": 412.5334099999995,
                        "value": 1
                    },
                    {
                        "number": 64,
                        "time": 413.3403694374995,
                        "value": 0
                    },
                    {
                        "number": 64,
                        "time": 413.4643656437495,
                        "value": 1
                    },
                    {
                        "number": 64,
                        "time": 413.8009267749995,
                        "value": 0
                    },
                    {
                        "number": 64,
                        "time": 413.8776863312495,
                        "value": 1
                    },
                    {
                        "number": 64,
                        "time": 414.7653417124995,
                        "value": 0
                    },
                    {
                        "number": 64,
                        "time": 414.8558786249995,
                        "value": 1
                    },
                    {
                        "number": 64,
                        "time": 415.2554219562495,
                        "value": 0
                    },
                    {
                        "number": 64,
                        "time": 419.5736390437495,
                        "value": 1
                    },
                    {
                        "number": 64,
                        "time": 422.3054919687495,
                        "value": 0
                    },
                    {
                        "number": 64,
                        "time": 422.4078380437495,
                        "value": 1
                    },
                    {
                        "number": 64,
                        "time": 425.1416591624995,
                        "value": 0
                    },
                    {
                        "number": 64,
                        "time": 425.3384785374995,
                        "value": 1
                    },
                    {
                        "number": 64,
                        "time": 426.56859963124947,
                        "value": 0
                    },
                    {
                        "number": 64,
                        "time": 426.74180068124946,
                        "value": 1
                    },
                    {
                        "number": 64,
                        "time": 427.97782635624947,
                        "value": 0
                    },
                    {
                        "number": 64,
                        "time": 428.0762360437495,
                        "value": 1
                    },
                    {
                        "number": 64,
                        "time": 428.4580656312495,
                        "value": 0
                    },
                    {
                        "number": 64,
                        "time": 428.57222086874947,
                        "value": 1
                    },
                    {
                        "number": 64,
                        "time": 428.9284639374995,
                        "value": 0
                    },
                    {
                        "number": 64,
                        "time": 428.99931891249946,
                        "value": 1
                    },
                    {
                        "number": 64,
                        "time": 429.4067350187495,
                        "value": 0
                    },
                    {
                        "number": 64,
                        "time": 429.4933355437495,
                        "value": 1
                    },
                    {
                        "number": 64,
                        "time": 429.8200557062495,
                        "value": 0
                    },
                    {
                        "number": 64,
                        "time": 430.9104350437495,
                        "value": 1
                    },
                    {
                        "number": 64,
                        "time": 433.64425616249946,
                        "value": 0
                    },
                    {
                        "number": 64,
                        "time": 433.81352082499944,
                        "value": 1
                    },
                    {
                        "number": 64,
                        "time": 436.4784551624995,
                        "value": 0
                    },
                    {
                        "number": 64,
                        "time": 436.66149718124944,
                        "value": 1
                    },
                    {
                        "number": 64,
                        "time": 437.90539563124946,
                        "value": 0
                    },
                    {
                        "number": 64,
                        "time": 438.09237403749944,
                        "value": 1
                    },
                    {
                        "number": 64,
                        "time": 439.31659054999943,
                        "value": 0
                    },
                    {
                        "number": 64,
                        "time": 439.4130320437494,
                        "value": 1
                    },
                    {
                        "number": 64,
                        "time": 439.79486163124943,
                        "value": 0
                    },
                    {
                        "number": 64,
                        "time": 439.9090168687494,
                        "value": 1
                    },
                    {
                        "number": 64,
                        "time": 440.2652599374994,
                        "value": 0
                    },
                    {
                        "number": 64,
                        "time": 440.38531975624943,
                        "value": 1
                    },
                    {
                        "number": 64,
                        "time": 440.73762643749944,
                        "value": 0
                    },
                    {
                        "number": 64,
                        "time": 440.8301315437494,
                        "value": 1
                    },
                    {
                        "number": 64,
                        "time": 441.1568517062494,
                        "value": 0
                    },
                    {
                        "number": 64,
                        "time": 442.2472310437494,
                        "value": 1
                    },
                    {
                        "number": 64,
                        "time": 444.9790839687494,
                        "value": 0
                    },
                    {
                        "number": 64,
                        "time": 445.1640941812494,
                        "value": 1
                    },
                    {
                        "number": 64,
                        "time": 447.8152511624994,
                        "value": 0
                    },
                    {
                        "number": 64,
                        "time": 447.9845158249994,
                        "value": 1
                    },
                    {
                        "number": 64,
                        "time": 449.2421916312494,
                        "value": 0
                    },
                    {
                        "number": 64,
                        "time": 449.4429473937494,
                        "value": 1
                    },
                    {
                        "number": 64,
                        "time": 450.64748196874945,
                        "value": 0
                    },
                    {
                        "number": 64,
                        "time": 450.74982804374946,
                        "value": 1
                    },
                    {
                        "number": 64,
                        "time": 451.1316576312495,
                        "value": 0
                    },
                    {
                        "number": 64,
                        "time": 451.24581286874945,
                        "value": 1
                    },
                    {
                        "number": 64,
                        "time": 451.6020559374995,
                        "value": 0
                    },
                    {
                        "number": 64,
                        "time": 451.7083383999995,
                        "value": 1
                    },
                    {
                        "number": 64,
                        "time": 452.0744224374995,
                        "value": 0
                    },
                    {
                        "number": 64,
                        "time": 452.16692754374947,
                        "value": 1
                    },
                    {
                        "number": 64,
                        "time": 452.4936477062495,
                        "value": 0
                    },
                    {
                        "number": 64,
                        "time": 453.5840270437495,
                        "value": 1
                    },
                    {
                        "number": 64,
                        "time": 456.31784816249944,
                        "value": 0
                    },
                    {
                        "number": 64,
                        "time": 456.47333546874944,
                        "value": 1
                    },
                    {
                        "number": 64,
                        "time": 459.1500789687494,
                        "value": 0
                    },
                    {
                        "number": 64,
                        "time": 459.30753446874945,
                        "value": 1
                    },
                    {
                        "number": 64,
                        "time": 460.57898763124945,
                        "value": 0
                    },
                    {
                        "number": 64,
                        "time": 460.75218868124944,
                        "value": 1
                    },
                    {
                        "number": 64,
                        "time": 461.98821435624944,
                        "value": 0
                    },
                    {
                        "number": 64,
                        "time": 462.08662404374945,
                        "value": 1
                    },
                    {
                        "number": 64,
                        "time": 462.4684536312495,
                        "value": 0
                    },
                    {
                        "number": 64,
                        "time": 462.5806406749995,
                        "value": 1
                    },
                    {
                        "number": 64,
                        "time": 462.94278832499947,
                        "value": 0
                    },
                    {
                        "number": 64,
                        "time": 463.03922981874945,
                        "value": 1
                    },
                    {
                        "number": 64,
                        "time": 463.41515482499943,
                        "value": 0
                    },
                    {
                        "number": 64,
                        "time": 463.5293100624994,
                        "value": 1
                    },
                    {
                        "number": 64,
                        "time": 463.8304437062494,
                        "value": 0
                    },
                    {
                        "number": 64,
                        "time": 464.8853955562494,
                        "value": 1
                    },
                    {
                        "number": 64,
                        "time": 465.4975038124994,
                        "value": 0
                    },
                    {
                        "number": 64,
                        "time": 466.2395128562494,
                        "value": 1
                    },
                    {
                        "number": 64,
                        "time": 466.4678233312494,
                        "value": 0
                    },
                    {
                        "number": 64,
                        "time": 466.5386783062494,
                        "value": 1
                    },
                    {
                        "number": 64,
                        "time": 467.6546441624994,
                        "value": 0
                    },
                    {
                        "number": 64,
                        "time": 467.73337191249936,
                        "value": 1
                    },
                    {
                        "number": 64,
                        "time": 468.1329152437494,
                        "value": 0
                    },
                    {
                        "number": 64,
                        "time": 468.2962753249994,
                        "value": 1
                    },
                    {
                        "number": 64,
                        "time": 469.0697754687494,
                        "value": 0
                    },
                    {
                        "number": 64,
                        "time": 469.1622805749994,
                        "value": 1
                    },
                    {
                        "number": 64,
                        "time": 469.5539511312494,
                        "value": 0
                    },
                    {
                        "number": 64,
                        "time": 469.6444880437494,
                        "value": 1
                    },
                    {
                        "number": 64,
                        "time": 470.49081135624937,
                        "value": 0
                    },
                    {
                        "number": 64,
                        "time": 470.58134826874937,
                        "value": 1
                    },
                    {
                        "number": 64,
                        "time": 471.2269158187494,
                        "value": 0
                    },
                    {
                        "number": 64,
                        "time": 471.9157836312494,
                        "value": 1
                    },
                    {
                        "number": 64,
                        "time": 472.5062417562494,
                        "value": 0
                    },
                    {
                        "number": 64,
                        "time": 473.3112329999994,
                        "value": 1
                    },
                    {
                        "number": 64,
                        "time": 473.8052496312494,
                        "value": 0
                    },
                    {
                        "number": 64,
                        "time": 473.94105499999944,
                        "value": 1
                    },
                    {
                        "number": 64,
                        "time": 474.27761613124943,
                        "value": 0
                    },
                    {
                        "number": 64,
                        "time": 474.54922686874943,
                        "value": 1
                    },
                    {
                        "number": 64,
                        "time": 474.7480144374994,
                        "value": 0
                    },
                    {
                        "number": 64,
                        "time": 474.9645157499994,
                        "value": 1
                    },
                    {
                        "number": 64,
                        "time": 475.6927474374994,
                        "value": 0
                    },
                    {
                        "number": 64,
                        "time": 476.2576190437494,
                        "value": 1
                    },
                    {
                        "number": 64,
                        "time": 478.9914401624994,
                        "value": 0
                    },
                    {
                        "number": 64,
                        "time": 479.14692746874937,
                        "value": 1
                    },
                    {
                        "number": 64,
                        "time": 481.8256391624994,
                        "value": 0
                    },
                    {
                        "number": 64,
                        "time": 481.99490382499937,
                        "value": 1
                    },
                    {
                        "number": 64,
                        "time": 483.2525796312494,
                        "value": 0
                    },
                    {
                        "number": 64,
                        "time": 483.4808901062494,
                        "value": 1
                    },
                    {
                        "number": 64,
                        "time": 484.6618063562494,
                        "value": 0
                    },
                    {
                        "number": 64,
                        "time": 484.7602160437494,
                        "value": 1
                    },
                    {
                        "number": 64,
                        "time": 485.1420456312494,
                        "value": 0
                    },
                    {
                        "number": 64,
                        "time": 485.2562008687494,
                        "value": 1
                    },
                    {
                        "number": 64,
                        "time": 485.6124439374994,
                        "value": 0
                    },
                    {
                        "number": 64,
                        "time": 485.70888543124937,
                        "value": 1
                    },
                    {
                        "number": 64,
                        "time": 486.0867786312494,
                        "value": 0
                    },
                    {
                        "number": 64,
                        "time": 486.1910928999994,
                        "value": 1
                    },
                    {
                        "number": 64,
                        "time": 486.5571769374994,
                        "value": 0
                    },
                    {
                        "number": 64,
                        "time": 486.6851095312494,
                        "value": 1
                    },
                    {
                        "number": 64,
                        "time": 487.0315116312494,
                        "value": 0
                    },
                    {
                        "number": 64,
                        "time": 487.17912616249936,
                        "value": 1
                    },
                    {
                        "number": 64,
                        "time": 487.49403716249935,
                        "value": 0
                    },
                    {
                        "number": 64,
                        "time": 487.6770791812493,
                        "value": 1
                    },
                    {
                        "number": 64,
                        "time": 488.92097763124934,
                        "value": 0
                    },
                    {
                        "number": 64,
                        "time": 489.19062017499937,
                        "value": 1
                    },
                    {
                        "number": 64,
                        "time": 490.32823616249937,
                        "value": 0
                    },
                    {
                        "number": 64,
                        "time": 490.42861404374935,
                        "value": 1
                    },
                    {
                        "number": 64,
                        "time": 490.81044363124937,
                        "value": 0
                    },
                    {
                        "number": 64,
                        "time": 490.92459886874934,
                        "value": 1
                    },
                    {
                        "number": 64,
                        "time": 491.28281013124933,
                        "value": 0
                    },
                    {
                        "number": 64,
                        "time": 491.42845646874935,
                        "value": 1
                    },
                    {
                        "number": 64,
                        "time": 491.75517663124936,
                        "value": 0
                    },
                    {
                        "number": 64,
                        "time": 491.84571354374935,
                        "value": 1
                    },
                    {
                        "number": 64,
                        "time": 492.17243370624936,
                        "value": 0
                    },
                    {
                        "number": 64,
                        "time": 493.2273855562494,
                        "value": 1
                    },
                    {
                        "number": 64,
                        "time": 493.83949381249937,
                        "value": 0
                    },
                    {
                        "number": 64,
                        "time": 494.58150285624936,
                        "value": 1
                    },
                    {
                        "number": 64,
                        "time": 494.80981333124936,
                        "value": 0
                    },
                    {
                        "number": 64,
                        "time": 494.88066830624933,
                        "value": 1
                    },
                    {
                        "number": 64,
                        "time": 495.99269777499933,
                        "value": 0
                    },
                    {
                        "number": 64,
                        "time": 496.08717107499933,
                        "value": 1
                    },
                    {
                        "number": 64,
                        "time": 496.4768734374993,
                        "value": 0
                    },
                    {
                        "number": 64,
                        "time": 496.5733149312493,
                        "value": 1
                    },
                    {
                        "number": 64,
                        "time": 497.4117654687493,
                        "value": 0
                    },
                    {
                        "number": 64,
                        "time": 497.5298570937493,
                        "value": 1
                    },
                    {
                        "number": 64,
                        "time": 497.8959411312493,
                        "value": 0
                    },
                    {
                        "number": 64,
                        "time": 498.0022235937493,
                        "value": 1
                    },
                    {
                        "number": 64,
                        "time": 498.8328013562493,
                        "value": 0
                    },
                    {
                        "number": 64,
                        "time": 498.9233382687493,
                        "value": 1
                    },
                    {
                        "number": 64,
                        "time": 499.56890581874933,
                        "value": 0
                    },
                    {
                        "number": 64,
                        "time": 500.25777363124934,
                        "value": 1
                    },
                    {
                        "number": 64,
                        "time": 500.84823175624933,
                        "value": 0
                    },
                    {
                        "number": 64,
                        "time": 501.65322299999934,
                        "value": 1
                    },
                    {
                        "number": 64,
                        "time": 502.14527143749933,
                        "value": 0
                    },
                    {
                        "number": 64,
                        "time": 502.28304499999933,
                        "value": 1
                    },
                    {
                        "number": 64,
                        "time": 502.61763793749935,
                        "value": 0
                    },
                    {
                        "number": 64,
                        "time": 502.8912168687493,
                        "value": 1
                    },
                    {
                        "number": 64,
                        "time": 503.0900044374993,
                        "value": 0
                    },
                    {
                        "number": 64,
                        "time": 503.46396124999933,
                        "value": 1
                    },
                    {
                        "number": 64,
                        "time": 504.0347374374993,
                        "value": 0
                    },
                    {
                        "number": 64,
                        "time": 504.5996090437493,
                        "value": 1
                    },
                    {
                        "number": 64,
                        "time": 507.3373665499993,
                        "value": 0
                    },
                    {
                        "number": 64,
                        "time": 507.5164721812493,
                        "value": 1
                    },
                    {
                        "number": 64,
                        "time": 510.1715655499993,
                        "value": 0
                    },
                    {
                        "number": 64,
                        "time": 510.3920032499993,
                        "value": 1
                    },
                    {
                        "number": 64,
                        "time": 511.5926014374993,
                        "value": 0
                    },
                    {
                        "number": 64,
                        "time": 511.8091027499993,
                        "value": 1
                    },
                    {
                        "number": 64,
                        "time": 513.0018281624992,
                        "value": 0
                    },
                    {
                        "number": 64,
                        "time": 513.1022060437492,
                        "value": 1
                    },
                    {
                        "number": 64,
                        "time": 513.4840356312492,
                        "value": 0
                    },
                    {
                        "number": 64,
                        "time": 513.5981908687492,
                        "value": 1
                    },
                    {
                        "number": 64,
                        "time": 513.9544339374992,
                        "value": 0
                    },
                    {
                        "number": 64,
                        "time": 514.0823665312491,
                        "value": 1
                    },
                    {
                        "number": 64,
                        "time": 514.4307368249991,
                        "value": 0
                    },
                    {
                        "number": 64,
                        "time": 514.5429238687492,
                        "value": 1
                    },
                    {
                        "number": 64,
                        "time": 514.8991669374992,
                        "value": 0
                    },
                    {
                        "number": 64,
                        "time": 515.0270995312492,
                        "value": 1
                    },
                    {
                        "number": 64,
                        "time": 515.3735016312492,
                        "value": 0
                    },
                    {
                        "number": 64,
                        "time": 515.5211161624992,
                        "value": 1
                    },
                    {
                        "number": 64,
                        "time": 515.8438999374991,
                        "value": 0
                    },
                    {
                        "number": 64,
                        "time": 516.0190691812492,
                        "value": 1
                    },
                    {
                        "number": 64,
                        "time": 517.2629676312491,
                        "value": 0
                    },
                    {
                        "number": 64,
                        "time": 517.4361686812491,
                        "value": 1
                    },
                    {
                        "number": 64,
                        "time": 518.6820353249991,
                        "value": 0
                    },
                    {
                        "number": 64,
                        "time": 518.8276816624991,
                        "value": 1
                    },
                    {
                        "number": 64,
                        "time": 519.1524336312491,
                        "value": 0
                    },
                    {
                        "number": 64,
                        "time": 519.2646206749992,
                        "value": 1
                    },
                    {
                        "number": 64,
                        "time": 519.6267683249991,
                        "value": 0
                    },
                    {
                        "number": 64,
                        "time": 519.7428917562492,
                        "value": 1
                    },
                    {
                        "number": 64,
                        "time": 520.1011030187492,
                        "value": 0
                    },
                    {
                        "number": 64,
                        "time": 520.2703676812492,
                        "value": 1
                    },
                    {
                        "number": 64,
                        "time": 520.5144237062492,
                        "value": 0
                    },
                    {
                        "number": 64,
                        "time": 524.3268149999992,
                        "value": 1
                    },
                    {
                        "number": 64,
                        "time": 527.1728231624992,
                        "value": 0
                    },
                    {
                        "number": 64,
                        "time": 527.2791056249991,
                        "value": 1
                    },
                    {
                        "number": 64,
                        "time": 527.6747125687491,
                        "value": 0
                    },
                    {
                        "number": 64,
                        "time": 528.2317113999991,
                        "value": 1
                    },
                    {
                        "number": 64,
                        "time": 529.070161937499,
                        "value": 0
                    },
                    {
                        "number": 64,
                        "time": 529.286663249999,
                        "value": 1
                    },
                    {
                        "number": 64,
                        "time": 530.0148949374991,
                        "value": 0
                    },
                    {
                        "number": 64,
                        "time": 530.1192092062491,
                        "value": 1
                    },
                    {
                        "number": 64,
                        "time": 530.4852932437491,
                        "value": 0
                    },
                    {
                        "number": 64,
                        "time": 530.6033848687491,
                        "value": 1
                    },
                    {
                        "number": 64,
                        "time": 530.9615961312492,
                        "value": 0
                    },
                    {
                        "number": 64,
                        "time": 531.0974014999991,
                        "value": 1
                    },
                    {
                        "number": 64,
                        "time": 532.8471257437492,
                        "value": 0
                    },
                    {
                        "number": 64,
                        "time": 532.9652173687492,
                        "value": 1
                    },
                    {
                        "number": 64,
                        "time": 533.3332695999992,
                        "value": 0
                    },
                    {
                        "number": 64,
                        "time": 533.9099503687492,
                        "value": 1
                    },
                    {
                        "number": 64,
                        "time": 534.7365917437492,
                        "value": 0
                    },
                    {
                        "number": 64,
                        "time": 534.8881426624991,
                        "value": 1
                    },
                    {
                        "number": 64,
                        "time": 535.6832929374991,
                        "value": 0
                    },
                    {
                        "number": 64,
                        "time": 535.7639888812491,
                        "value": 1
                    },
                    {
                        "number": 64,
                        "time": 536.1556594374991,
                        "value": 0
                    },
                    {
                        "number": 64,
                        "time": 536.2481645437491,
                        "value": 1
                    },
                    {
                        "number": 64,
                        "time": 536.6162167749991,
                        "value": 0
                    },
                    {
                        "number": 64,
                        "time": 538.511587356249,
                        "value": 1
                    },
                    {
                        "number": 64,
                        "time": 538.9839538562491,
                        "value": 0
                    },
                    {
                        "number": 64,
                        "time": 539.0941727062491,
                        "value": 1
                    },
                    {
                        "number": 64,
                        "time": 539.4425429999991,
                        "value": 0
                    },
                    {
                        "number": 64,
                        "time": 541.3556273249991,
                        "value": 1
                    },
                    {
                        "number": 64,
                        "time": 542.2865829687491,
                        "value": 0
                    },
                    {
                        "number": 64,
                        "time": 542.4341974999992,
                        "value": 1
                    },
                    {
                        "number": 64,
                        "time": 543.2431251312491,
                        "value": 0
                    },
                    {
                        "number": 64,
                        "time": 543.4576582499991,
                        "value": 1
                    },
                    {
                        "number": 64,
                        "time": 544.2232856187491,
                        "value": 0
                    },
                    {
                        "number": 64,
                        "time": 547.069293781249,
                        "value": 1
                    },
                    {
                        "number": 64,
                        "time": 548.429315662499,
                        "value": 0
                    },
                    {
                        "number": 64,
                        "time": 548.513947993749,
                        "value": 1
                    },
                    {
                        "number": 64,
                        "time": 548.9095549374989,
                        "value": 0
                    },
                    {
                        "number": 64,
                        "time": 548.992219074999,
                        "value": 1
                    },
                    {
                        "number": 64,
                        "time": 549.3799532437489,
                        "value": 0
                    },
                    {
                        "number": 64,
                        "time": 549.4980448687489,
                        "value": 1
                    },
                    {
                        "number": 64,
                        "time": 549.854287937499,
                        "value": 0
                    },
                    {
                        "number": 64,
                        "time": 552.7809920437489,
                        "value": 1
                    },
                    {
                        "number": 64,
                        "time": 554.572048356249,
                        "value": 0
                    },
                    {
                        "number": 64,
                        "time": 554.660617074999,
                        "value": 1
                    },
                    {
                        "number": 64,
                        "time": 555.0483512437489,
                        "value": 0
                    },
                    {
                        "number": 64,
                        "time": 555.166442868749,
                        "value": 1
                    },
                    {
                        "number": 64,
                        "time": 555.536463293749,
                        "value": 0
                    },
                    {
                        "number": 64,
                        "time": 559.372472912499,
                        "value": 1
                    },
                    {
                        "number": 64,
                        "time": 560.246350937499,
                        "value": 0
                    },
                    {
                        "number": 64,
                        "time": 560.3959336624989,
                        "value": 1
                    },
                    {
                        "number": 64,
                        "time": 561.181242968749,
                        "value": 0
                    },
                    {
                        "number": 64,
                        "time": 561.761860124999,
                        "value": 1
                    },
                    {
                        "number": 64,
                        "time": 564.025282937499,
                        "value": 0
                    },
                    {
                        "number": 64,
                        "time": 564.174865662499,
                        "value": 1
                    },
                    {
                        "number": 64,
                        "time": 564.971984131249,
                        "value": 0
                    },
                    {
                        "number": 64,
                        "time": 565.097948531249,
                        "value": 1
                    },
                    {
                        "number": 64,
                        "time": 566.849640968749,
                        "value": 0
                    },
                    {
                        "number": 64,
                        "time": 567.009064662499,
                        "value": 1
                    },
                    {
                        "number": 64,
                        "time": 567.806183131249,
                        "value": 0
                    },
                    {
                        "number": 64,
                        "time": 567.902624624999,
                        "value": 1
                    },
                    {
                        "number": 64,
                        "time": 568.402545837499,
                        "value": 0
                    },
                    {
                        "number": 64,
                        "time": 569.799963399999,
                        "value": 1
                    },
                    {
                        "number": 64,
                        "time": 572.520007162499,
                        "value": 0
                    },
                    {
                        "number": 64,
                        "time": 572.661717112499,
                        "value": 1
                    },
                    {
                        "number": 64,
                        "time": 573.002214631249,
                        "value": 0
                    },
                    {
                        "number": 64,
                        "time": 573.5788953999989,
                        "value": 1
                    },
                    {
                        "number": 64,
                        "time": 574.4173459374989,
                        "value": 0
                    },
                    {
                        "number": 64,
                        "time": 574.5787378249989,
                        "value": 1
                    },
                    {
                        "number": 64,
                        "time": 575.3660153249989,
                        "value": 0
                    },
                    {
                        "number": 64,
                        "time": 575.4900115312489,
                        "value": 1
                    },
                    {
                        "number": 64,
                        "time": 575.8305090499989,
                        "value": 0
                    },
                    {
                        "number": 64,
                        "time": 575.9505688687489,
                        "value": 1
                    },
                    {
                        "number": 64,
                        "time": 576.3087801312489,
                        "value": 0
                    },
                    {
                        "number": 64,
                        "time": 576.4445854999989,
                        "value": 1
                    },
                    {
                        "number": 64,
                        "time": 578.1884051624988,
                        "value": 0
                    },
                    {
                        "number": 64,
                        "time": 578.3124013687489,
                        "value": 1
                    },
                    {
                        "number": 64,
                        "time": 578.6588034687488,
                        "value": 0
                    },
                    {
                        "number": 64,
                        "time": 579.2571343687488,
                        "value": 1
                    },
                    {
                        "number": 64,
                        "time": 580.0877121312487,
                        "value": 0
                    },
                    {
                        "number": 64,
                        "time": 580.3140544124988,
                        "value": 1
                    },
                    {
                        "number": 64,
                        "time": 581.0304769374987,
                        "value": 0
                    },
                    {
                        "number": 64,
                        "time": 581.1111728812488,
                        "value": 1
                    },
                    {
                        "number": 64,
                        "time": 581.5008752437487,
                        "value": 0
                    },
                    {
                        "number": 64,
                        "time": 581.5953485437487,
                        "value": 1
                    },
                    {
                        "number": 64,
                        "time": 581.9634007749987,
                        "value": 0
                    },
                    {
                        "number": 64,
                        "time": 583.8587713562487,
                        "value": 1
                    },
                    {
                        "number": 64,
                        "time": 584.3331060499987,
                        "value": 0
                    },
                    {
                        "number": 64,
                        "time": 584.4197065749987,
                        "value": 1
                    },
                    {
                        "number": 64,
                        "time": 584.7897269999987,
                        "value": 0
                    },
                    {
                        "number": 64,
                        "time": 586.7480797812487,
                        "value": 1
                    },
                    {
                        "number": 64,
                        "time": 587.6337669687488,
                        "value": 0
                    },
                    {
                        "number": 64,
                        "time": 587.7813814999988,
                        "value": 1
                    },
                    {
                        "number": 64,
                        "time": 588.5903091312488,
                        "value": 0
                    },
                    {
                        "number": 64,
                        "time": 588.8048422499987,
                        "value": 1
                    },
                    {
                        "number": 64,
                        "time": 589.5330739374988,
                        "value": 0
                    },
                    {
                        "number": 64,
                        "time": 592.4145095874987,
                        "value": 1
                    },
                    {
                        "number": 64,
                        "time": 593.7784678562488,
                        "value": 0
                    },
                    {
                        "number": 64,
                        "time": 593.8729411562488,
                        "value": 1
                    },
                    {
                        "number": 64,
                        "time": 594.2606753249987,
                        "value": 0
                    },
                    {
                        "number": 64,
                        "time": 594.3394030749987,
                        "value": 1
                    },
                    {
                        "number": 64,
                        "time": 594.7271372437486,
                        "value": 0
                    },
                    {
                        "number": 64,
                        "time": 594.8452288687487,
                        "value": 1
                    },
                    {
                        "number": 64,
                        "time": 595.2034401312487,
                        "value": 0
                    },
                    {
                        "number": 64,
                        "time": 598.1006213312487,
                        "value": 1
                    },
                    {
                        "number": 64,
                        "time": 599.9271051312487,
                        "value": 0
                    },
                    {
                        "number": 64,
                        "time": 600.0078010749987,
                        "value": 1
                    },
                    {
                        "number": 64,
                        "time": 600.3955352437487,
                        "value": 0
                    },
                    {
                        "number": 64,
                        "time": 600.5136268687487,
                        "value": 1
                    },
                    {
                        "number": 64,
                        "time": 600.8679017437487,
                        "value": 0
                    },
                    {
                        "number": 64,
                        "time": 604.7176887187487,
                        "value": 1
                    },
                    {
                        "number": 64,
                        "time": 605.5915667437487,
                        "value": 0
                    },
                    {
                        "number": 64,
                        "time": 605.7883861187487,
                        "value": 1
                    },
                    {
                        "number": 64,
                        "time": 606.5284269687487,
                        "value": 0
                    },
                    {
                        "number": 64,
                        "time": 607.1090441249987,
                        "value": 1
                    },
                    {
                        "number": 64,
                        "time": 609.3665623562487,
                        "value": 0
                    },
                    {
                        "number": 64,
                        "time": 609.5220496624987,
                        "value": 1
                    },
                    {
                        "number": 64,
                        "time": 610.3152317437488,
                        "value": 0
                    },
                    {
                        "number": 64,
                        "time": 610.5337012499988,
                        "value": 1
                    },
                    {
                        "number": 64,
                        "time": 612.2027295499988,
                        "value": 0
                    },
                    {
                        "number": 64,
                        "time": 612.3562486624988,
                        "value": 1
                    },
                    {
                        "number": 64,
                        "time": 613.1533671312488,
                        "value": 0
                    },
                    {
                        "number": 64,
                        "time": 613.2498086249989,
                        "value": 1
                    },
                    {
                        "number": 64,
                        "time": 613.7221751249989,
                        "value": 0
                    },
                    {
                        "number": 64,
                        "time": 615.0329921624989,
                        "value": 1
                    },
                    {
                        "number": 64,
                        "time": 615.9796933562488,
                        "value": 0
                    },
                    {
                        "number": 64,
                        "time": 616.0840076249989,
                        "value": 1
                    },
                    {
                        "number": 64,
                        "time": 616.9224581624989,
                        "value": 0
                    },
                    {
                        "number": 64,
                        "time": 616.9952813312489,
                        "value": 1
                    },
                    {
                        "number": 64,
                        "time": 617.8750639374989,
                        "value": 0
                    },
                    {
                        "number": 64,
                        "time": 617.9734736249989,
                        "value": 1
                    },
                    {
                        "number": 64,
                        "time": 619.7448479999989,
                        "value": 0
                    },
                    {
                        "number": 64,
                        "time": 619.8845897562489,
                        "value": 1
                    },
                    {
                        "number": 64,
                        "time": 620.7013901624989,
                        "value": 0
                    },
                    {
                        "number": 64,
                        "time": 620.7584677812489,
                        "value": 1
                    },
                    {
                        "number": 64,
                        "time": 623.5434619374989,
                        "value": 0
                    },
                    {
                        "number": 64,
                        "time": 623.6595853687489,
                        "value": 1
                    },
                    {
                        "number": 64,
                        "time": 624.480322162499,
                        "value": 0
                    },
                    {
                        "number": 64,
                        "time": 624.580700043749,
                        "value": 1
                    },
                    {
                        "number": 64,
                        "time": 626.3756927437489,
                        "value": 0
                    },
                    {
                        "number": 64,
                        "time": 626.6650172249989,
                        "value": 1
                    },
                    {
                        "number": 64,
                        "time": 629.2098917437489,
                        "value": 0
                    },
                    {
                        "number": 64,
                        "time": 629.387029181249,
                        "value": 1
                    },
                    {
                        "number": 64,
                        "time": 632.038186162499,
                        "value": 0
                    },
                    {
                        "number": 64,
                        "time": 632.1739915312489,
                        "value": 1
                    },
                    {
                        "number": 64,
                        "time": 632.9907919374989,
                        "value": 0
                    },
                    {
                        "number": 64,
                        "time": 633.1521838249989,
                        "value": 1
                    },
                    {
                        "number": 64,
                        "time": 633.9256839687489,
                        "value": 0
                    },
                    {
                        "number": 64,
                        "time": 634.0732984999989,
                        "value": 1
                    },
                    {
                        "number": 64,
                        "time": 634.880257937499,
                        "value": 0
                    },
                    {
                        "number": 64,
                        "time": 635.130218543749,
                        "value": 1
                    },
                    {
                        "number": 64,
                        "time": 635.826959131249,
                        "value": 0
                    },
                    {
                        "number": 64,
                        "time": 635.9962237937491,
                        "value": 1
                    },
                    {
                        "number": 64,
                        "time": 637.7085523562491,
                        "value": 0
                    },
                    {
                        "number": 64,
                        "time": 637.8541986937491,
                        "value": 1
                    },
                    {
                        "number": 64,
                        "time": 640.5427513562491,
                        "value": 0
                    },
                    {
                        "number": 64,
                        "time": 640.6136063312491,
                        "value": 1
                    },
                    {
                        "number": 64,
                        "time": 641.4874843562491,
                        "value": 0
                    },
                    {
                        "number": 64,
                        "time": 641.5780212687491,
                        "value": 1
                    },
                    {
                        "number": 64,
                        "time": 642.4341855499991,
                        "value": 0
                    },
                    {
                        "number": 64,
                        "time": 642.4951995562492,
                        "value": 1
                    },
                    {
                        "number": 64,
                        "time": 643.3769503562492,
                        "value": 0
                    },
                    {
                        "number": 64,
                        "time": 643.4320597812491,
                        "value": 1
                    },
                    {
                        "number": 64,
                        "time": 643.8453804687491,
                        "value": 0
                    },
                    {
                        "number": 64,
                        "time": 643.9713448687492,
                        "value": 1
                    },
                    {
                        "number": 64,
                        "time": 646.2111493562492,
                        "value": 0
                    },
                    {
                        "number": 64,
                        "time": 646.2820043312491,
                        "value": 1
                    },
                    {
                        "number": 64,
                        "time": 647.1637551312491,
                        "value": 0
                    },
                    {
                        "number": 64,
                        "time": 647.2503556562491,
                        "value": 1
                    },
                    {
                        "number": 64,
                        "time": 648.1065199374991,
                        "value": 0
                    },
                    {
                        "number": 64,
                        "time": 648.2049296249991,
                        "value": 1
                    },
                    {
                        "number": 64,
                        "time": 649.0394437749991,
                        "value": 0
                    },
                    {
                        "number": 64,
                        "time": 649.167376368749,
                        "value": 1
                    },
                    {
                        "number": 64,
                        "time": 649.5236194374991,
                        "value": 0
                    },
                    {
                        "number": 64,
                        "time": 649.673202162499,
                        "value": 1
                    },
                    {
                        "number": 64,
                        "time": 650.9367825499991,
                        "value": 0
                    },
                    {
                        "number": 64,
                        "time": 651.123760956249,
                        "value": 1
                    },
                    {
                        "number": 64,
                        "time": 651.885451937499,
                        "value": 0
                    },
                    {
                        "number": 64,
                        "time": 652.013384531249,
                        "value": 1
                    },
                    {
                        "number": 64,
                        "time": 653.774917937499,
                        "value": 0
                    },
                    {
                        "number": 64,
                        "time": 653.991419249999,
                        "value": 1
                    },
                    {
                        "number": 64,
                        "time": 654.7196509374991,
                        "value": 0
                    },
                    {
                        "number": 64,
                        "time": 654.869233662499,
                        "value": 1
                    },
                    {
                        "number": 64,
                        "time": 655.664383937499,
                        "value": 0
                    },
                    {
                        "number": 64,
                        "time": 655.880885249999,
                        "value": 1
                    },
                    {
                        "number": 64,
                        "time": 656.609116937499,
                        "value": 0
                    },
                    {
                        "number": 64,
                        "time": 657.579436456249,
                        "value": 1
                    },
                    {
                        "number": 64,
                        "time": 658.970949437499,
                        "value": 0
                    },
                    {
                        "number": 64,
                        "time": 659.5318846562491,
                        "value": 1
                    },
                    {
                        "number": 64,
                        "time": 660.3900171312491,
                        "value": 0
                    },
                    {
                        "number": 64,
                        "time": 660.4372537812491,
                        "value": 1
                    },
                    {
                        "number": 64,
                        "time": 661.3308137437491,
                        "value": 0
                    },
                    {
                        "number": 64,
                        "time": 661.3819867812491,
                        "value": 1
                    },
                    {
                        "number": 64,
                        "time": 662.2637375812491,
                        "value": 0
                    },
                    {
                        "number": 64,
                        "time": 662.3208151999991,
                        "value": 1
                    },
                    {
                        "number": 64,
                        "time": 663.218311549999,
                        "value": 0
                    },
                    {
                        "number": 64,
                        "time": 663.275389168749,
                        "value": 1
                    },
                    {
                        "number": 64,
                        "time": 665.1117139374991,
                        "value": 0
                    },
                    {
                        "number": 64,
                        "time": 665.204219043749,
                        "value": 1
                    },
                    {
                        "number": 64,
                        "time": 666.048574162499,
                        "value": 0
                    },
                    {
                        "number": 64,
                        "time": 666.099747199999,
                        "value": 1
                    },
                    {
                        "number": 64,
                        "time": 667.941976549999,
                        "value": 0
                    },
                    {
                        "number": 64,
                        "time": 668.034481656249,
                        "value": 1
                    },
                    {
                        "number": 64,
                        "time": 668.878836774999,
                        "value": 0
                    },
                    {
                        "number": 64,
                        "time": 669.034324081249,
                        "value": 1
                    },
                    {
                        "number": 64,
                        "time": 669.835378937499,
                        "value": 0
                    },
                    {
                        "number": 64,
                        "time": 671.772081587499,
                        "value": 1
                    },
                    {
                        "number": 64,
                        "time": 672.6676097437489,
                        "value": 0
                    },
                    {
                        "number": 64,
                        "time": 672.7679876249989,
                        "value": 1
                    },
                    {
                        "number": 64,
                        "time": 673.6064381624989,
                        "value": 0
                    },
                    {
                        "number": 64,
                        "time": 673.6792613312489,
                        "value": 1
                    },
                    {
                        "number": 64,
                        "time": 674.5590439374989,
                        "value": 0
                    },
                    {
                        "number": 64,
                        "time": 674.6574536249989,
                        "value": 1
                    },
                    {
                        "number": 64,
                        "time": 676.4288279999989,
                        "value": 0
                    },
                    {
                        "number": 64,
                        "time": 676.568569756249,
                        "value": 1
                    },
                    {
                        "number": 64,
                        "time": 677.381433774999,
                        "value": 0
                    },
                    {
                        "number": 64,
                        "time": 677.442447781249,
                        "value": 1
                    },
                    {
                        "number": 64,
                        "time": 680.2274419374991,
                        "value": 0
                    },
                    {
                        "number": 64,
                        "time": 680.3435653687491,
                        "value": 1
                    },
                    {
                        "number": 64,
                        "time": 681.1702067437491,
                        "value": 0
                    },
                    {
                        "number": 64,
                        "time": 681.2646800437491,
                        "value": 1
                    },
                    {
                        "number": 64,
                        "time": 683.0616409374991,
                        "value": 0
                    },
                    {
                        "number": 64,
                        "time": 683.348997224999,
                        "value": 1
                    },
                    {
                        "number": 64,
                        "time": 685.8938717437491,
                        "value": 0
                    },
                    {
                        "number": 64,
                        "time": 686.0710091812491,
                        "value": 1
                    },
                    {
                        "number": 64,
                        "time": 688.7221661624991,
                        "value": 0
                    },
                    {
                        "number": 64,
                        "time": 688.8579715312491,
                        "value": 1
                    },
                    {
                        "number": 64,
                        "time": 689.666899162499,
                        "value": 0
                    },
                    {
                        "number": 64,
                        "time": 689.8361638249991,
                        "value": 1
                    },
                    {
                        "number": 64,
                        "time": 690.609663968749,
                        "value": 0
                    },
                    {
                        "number": 64,
                        "time": 690.7572784999991,
                        "value": 1
                    },
                    {
                        "number": 64,
                        "time": 691.5642379374991,
                        "value": 0
                    },
                    {
                        "number": 64,
                        "time": 691.8141985437492,
                        "value": 1
                    },
                    {
                        "number": 64,
                        "time": 692.5109391312492,
                        "value": 0
                    },
                    {
                        "number": 64,
                        "time": 692.6802037937492,
                        "value": 1
                    },
                    {
                        "number": 64,
                        "time": 694.3925323562493,
                        "value": 0
                    },
                    {
                        "number": 64,
                        "time": 694.5381786937493,
                        "value": 1
                    },
                    {
                        "number": 64,
                        "time": 697.2267313562493,
                        "value": 0
                    },
                    {
                        "number": 64,
                        "time": 697.2975863312492,
                        "value": 1
                    },
                    {
                        "number": 64,
                        "time": 698.1773689374993,
                        "value": 0
                    },
                    {
                        "number": 64,
                        "time": 698.2620012687493,
                        "value": 1
                    },
                    {
                        "number": 64,
                        "time": 699.1240701312493,
                        "value": 0
                    },
                    {
                        "number": 64,
                        "time": 699.2283843999993,
                        "value": 1
                    },
                    {
                        "number": 64,
                        "time": 700.0609303562493,
                        "value": 0
                    },
                    {
                        "number": 64,
                        "time": 700.1160397812492,
                        "value": 1
                    },
                    {
                        "number": 64,
                        "time": 700.5293604687492,
                        "value": 0
                    },
                    {
                        "number": 64,
                        "time": 700.6553248687493,
                        "value": 1
                    },
                    {
                        "number": 64,
                        "time": 702.8951293562493,
                        "value": 0
                    },
                    {
                        "number": 64,
                        "time": 702.9659843312493,
                        "value": 1
                    },
                    {
                        "number": 64,
                        "time": 703.8457669374993,
                        "value": 0
                    },
                    {
                        "number": 64,
                        "time": 703.9303992687493,
                        "value": 1
                    },
                    {
                        "number": 64,
                        "time": 704.7845953562493,
                        "value": 0
                    },
                    {
                        "number": 64,
                        "time": 704.8475775562492,
                        "value": 1
                    },
                    {
                        "number": 64,
                        "time": 705.7194873874993,
                        "value": 0
                    },
                    {
                        "number": 64,
                        "time": 705.8513563687493,
                        "value": 1
                    },
                    {
                        "number": 64,
                        "time": 706.2075994374993,
                        "value": 0
                    },
                    {
                        "number": 64,
                        "time": 706.3453729999993,
                        "value": 1
                    },
                    {
                        "number": 64,
                        "time": 707.6207625499993,
                        "value": 0
                    },
                    {
                        "number": 64,
                        "time": 707.8077409562493,
                        "value": 1
                    },
                    {
                        "number": 64,
                        "time": 708.5694319374993,
                        "value": 0
                    },
                    {
                        "number": 64,
                        "time": 708.6973645312493,
                        "value": 1
                    },
                    {
                        "number": 64,
                        "time": 710.4588979374993,
                        "value": 0
                    },
                    {
                        "number": 64,
                        "time": 710.6753992499993,
                        "value": 1
                    },
                    {
                        "number": 64,
                        "time": 711.4036309374993,
                        "value": 0
                    },
                    {
                        "number": 64,
                        "time": 711.5532136624993,
                        "value": 1
                    },
                    {
                        "number": 64,
                        "time": 712.3483639374992,
                        "value": 0
                    },
                    {
                        "number": 64,
                        "time": 712.5648652499992,
                        "value": 1
                    },
                    {
                        "number": 64,
                        "time": 713.2950651312492,
                        "value": 0
                    },
                    {
                        "number": 64,
                        "time": 714.3263986562492,
                        "value": 1
                    },
                    {
                        "number": 64,
                        "time": 715.6549294374993,
                        "value": 0
                    },
                    {
                        "number": 64,
                        "time": 716.2158646562493,
                        "value": 1
                    },
                    {
                        "number": 64,
                        "time": 717.0720289374993,
                        "value": 0
                    },
                    {
                        "number": 64,
                        "time": 717.1212337812493,
                        "value": 1
                    },
                    {
                        "number": 64,
                        "time": 718.0147937437494,
                        "value": 0
                    },
                    {
                        "number": 64,
                        "time": 718.0482530374993,
                        "value": 1
                    },
                    {
                        "number": 64,
                        "time": 718.9516539687493,
                        "value": 0
                    },
                    {
                        "number": 64,
                        "time": 719.0047951999993,
                        "value": 1
                    },
                    {
                        "number": 64,
                        "time": 719.9022915499993,
                        "value": 0
                    },
                    {
                        "number": 64,
                        "time": 719.9593691687493,
                        "value": 1
                    },
                    {
                        "number": 64,
                        "time": 721.7956939374993,
                        "value": 0
                    },
                    {
                        "number": 64,
                        "time": 721.8881990437493,
                        "value": 1
                    },
                    {
                        "number": 64,
                        "time": 722.7325541624992,
                        "value": 0
                    },
                    {
                        "number": 64,
                        "time": 722.8604867562492,
                        "value": 1
                    },
                    {
                        "number": 64,
                        "time": 724.6259565499992,
                        "value": 0
                    },
                    {
                        "number": 64,
                        "time": 724.7184616562491,
                        "value": 1
                    },
                    {
                        "number": 64,
                        "time": 725.5647849687491,
                        "value": 0
                    },
                    {
                        "number": 64,
                        "time": 725.7183040812491,
                        "value": 1
                    },
                    {
                        "number": 64,
                        "time": 726.5154225499991,
                        "value": 0
                    },
                    {
                        "number": 64,
                        "time": 734.0575409999991,
                        "value": 0
                    },
                    {
                        "number": 64,
                        "time": 749.2224738437491,
                        "value": 1
                    },
                    {
                        "number": 64,
                        "time": 750.1376839374991,
                        "value": 0
                    },
                    {
                        "number": 64,
                        "time": 750.2360936249991,
                        "value": 1
                    },
                    {
                        "number": 64,
                        "time": 750.812774393749,
                        "value": 0
                    },
                    {
                        "number": 64,
                        "time": 750.999752799999,
                        "value": 1
                    },
                    {
                        "number": 64,
                        "time": 752.031086324999,
                        "value": 0
                    },
                    {
                        "number": 64,
                        "time": 752.119655043749,
                        "value": 1
                    },
                    {
                        "number": 64,
                        "time": 752.7514452374991,
                        "value": 0
                    },
                    {
                        "number": 64,
                        "time": 752.979755712499,
                        "value": 1
                    },
                    {
                        "number": 64,
                        "time": 753.938266068749,
                        "value": 0
                    },
                    {
                        "number": 64,
                        "time": 754.0288029812491,
                        "value": 1
                    },
                    {
                        "number": 64,
                        "time": 754.6605931749991,
                        "value": 0
                    },
                    {
                        "number": 64,
                        "time": 754.8219850624992,
                        "value": 1
                    },
                    {
                        "number": 64,
                        "time": 755.8080501312492,
                        "value": 0
                    },
                    {
                        "number": 64,
                        "time": 755.8907142687492,
                        "value": 1
                    },
                    {
                        "number": 64,
                        "time": 756.7311329999992,
                        "value": 0
                    },
                    {
                        "number": 64,
                        "time": 762.4703859749992,
                        "value": 1
                    },
                    {
                        "number": 64,
                        "time": 763.3560731624992,
                        "value": 0
                    },
                    {
                        "number": 64,
                        "time": 763.4348009124992,
                        "value": 1
                    },
                    {
                        "number": 64,
                        "time": 764.0390363937493,
                        "value": 0
                    },
                    {
                        "number": 64,
                        "time": 779.4539298437493,
                        "value": 1
                    },
                    {
                        "number": 64,
                        "time": 780.3691399374993,
                        "value": 0
                    },
                    {
                        "number": 64,
                        "time": 780.4675496249993,
                        "value": 1
                    },
                    {
                        "number": 64,
                        "time": 781.0442303937492,
                        "value": 0
                    },
                    {
                        "number": 64,
                        "time": 781.2312087999992,
                        "value": 1
                    },
                    {
                        "number": 64,
                        "time": 782.2625423249992,
                        "value": 0
                    },
                    {
                        "number": 64,
                        "time": 782.3511110437493,
                        "value": 1
                    },
                    {
                        "number": 64,
                        "time": 782.9829012374993,
                        "value": 0
                    },
                    {
                        "number": 64,
                        "time": 783.2112117124992,
                        "value": 1
                    },
                    {
                        "number": 64,
                        "time": 784.1697220687493,
                        "value": 0
                    },
                    {
                        "number": 64,
                        "time": 784.2602589812493,
                        "value": 1
                    },
                    {
                        "number": 64,
                        "time": 784.8920491749993,
                        "value": 0
                    },
                    {
                        "number": 64,
                        "time": 785.0534410624994,
                        "value": 1
                    },
                    {
                        "number": 64,
                        "time": 786.0395061312494,
                        "value": 0
                    },
                    {
                        "number": 64,
                        "time": 786.1221702687494,
                        "value": 1
                    },
                    {
                        "number": 64,
                        "time": 786.9625889999994,
                        "value": 0
                    },
                    {
                        "number": 64,
                        "time": 792.7018419749994,
                        "value": 1
                    },
                    {
                        "number": 64,
                        "time": 793.5875291624994,
                        "value": 0
                    },
                    {
                        "number": 64,
                        "time": 793.6662569124994,
                        "value": 1
                    },
                    {
                        "number": 64,
                        "time": 794.5204529999994,
                        "value": 0
                    },
                    {
                        "number": 64,
                        "time": 794.7566362499994,
                        "value": 1
                    },
                    {
                        "number": 64,
                        "time": 796.4099189999994,
                        "value": 0
                    },
                    {
                        "number": 64,
                        "time": 798.3111941624994,
                        "value": 1
                    },
                    {
                        "number": 64,
                        "time": 799.2736409062494,
                        "value": 0
                    },
                    {
                        "number": 64,
                        "time": 799.4133826624994,
                        "value": 1
                    },
                    {
                        "number": 64,
                        "time": 800.2577377812494,
                        "value": 0
                    },
                    {
                        "number": 64,
                        "time": 800.7497862187494,
                        "value": 1
                    },
                    {
                        "number": 64,
                        "time": 801.1631069062494,
                        "value": 0
                    },
                    {
                        "number": 64,
                        "time": 801.3244987937494,
                        "value": 1
                    },
                    {
                        "number": 64,
                        "time": 801.6276006312494,
                        "value": 0
                    },
                    {
                        "number": 64,
                        "time": 801.7870243249994,
                        "value": 1
                    },
                    {
                        "number": 64,
                        "time": 801.9818755062494,
                        "value": 0
                    },
                    {
                        "number": 64,
                        "time": 802.1767266874994,
                        "value": 1
                    },
                    {
                        "number": 64,
                        "time": 803.0427319374993,
                        "value": 0
                    },
                    {
                        "number": 64,
                        "time": 803.9048007999993,
                        "value": 1
                    },
                    {
                        "number": 64,
                        "time": 804.9361343249993,
                        "value": 0
                    },
                    {
                        "number": 64,
                        "time": 824.7519089999994,
                        "value": 1
                    },
                    {
                        "number": 64,
                        "time": 825.7104193562494,
                        "value": 0
                    },
                    {
                        "number": 64,
                        "time": 825.8226063999995,
                        "value": 1
                    },
                    {
                        "number": 64,
                        "time": 826.6571205499995,
                        "value": 0
                    },
                    {
                        "number": 64,
                        "time": 826.7673393999995,
                        "value": 1
                    },
                    {
                        "number": 64,
                        "time": 827.6057899374995,
                        "value": 0
                    },
                    {
                        "number": 64,
                        "time": 827.7671818249995,
                        "value": 1
                    },
                    {
                        "number": 64,
                        "time": 828.5446183562495,
                        "value": 0
                    },
                    {
                        "number": 64,
                        "time": 828.6351552687496,
                        "value": 1
                    },
                    {
                        "number": 64,
                        "time": 829.4932877437496,
                        "value": 0
                    },
                    {
                        "number": 64,
                        "time": 829.6212203374996,
                        "value": 1
                    },
                    {
                        "number": 64,
                        "time": 830.4262115812496,
                        "value": 0
                    },
                    {
                        "number": 64,
                        "time": 830.5462713999996,
                        "value": 1
                    },
                    {
                        "number": 64,
                        "time": 831.4063720687495,
                        "value": 0
                    },
                    {
                        "number": 64,
                        "time": 831.5047817562495,
                        "value": 1
                    },
                    {
                        "number": 64,
                        "time": 832.1582220812495,
                        "value": 0
                    },
                    {
                        "number": 64,
                        "time": 832.3097729999995,
                        "value": 1
                    },
                    {
                        "number": 64,
                        "time": 834.1992389999995,
                        "value": 0
                    },
                    {
                        "number": 64,
                        "time": 836.1005141624995,
                        "value": 1
                    },
                    {
                        "number": 64,
                        "time": 837.0629609062495,
                        "value": 0
                    },
                    {
                        "number": 64,
                        "time": 837.2027026624995,
                        "value": 1
                    },
                    {
                        "number": 64,
                        "time": 838.0470577812495,
                        "value": 0
                    },
                    {
                        "number": 64,
                        "time": 838.5391062187495,
                        "value": 1
                    },
                    {
                        "number": 64,
                        "time": 838.9524269062495,
                        "value": 0
                    },
                    {
                        "number": 64,
                        "time": 839.1138187937495,
                        "value": 1
                    },
                    {
                        "number": 64,
                        "time": 839.4169206312495,
                        "value": 0
                    },
                    {
                        "number": 64,
                        "time": 839.5763443249995,
                        "value": 1
                    },
                    {
                        "number": 64,
                        "time": 839.7711955062495,
                        "value": 0
                    },
                    {
                        "number": 64,
                        "time": 839.9660466874994,
                        "value": 1
                    },
                    {
                        "number": 64,
                        "time": 840.8320519374994,
                        "value": 0
                    },
                    {
                        "number": 64,
                        "time": 841.6941207999994,
                        "value": 1
                    },
                    {
                        "number": 64,
                        "time": 842.7254543249994,
                        "value": 0
                    },
                    {
                        "number": 64,
                        "time": 862.5412289999995,
                        "value": 1
                    },
                    {
                        "number": 64,
                        "time": 863.4997393562495,
                        "value": 0
                    },
                    {
                        "number": 64,
                        "time": 863.6119263999996,
                        "value": 1
                    },
                    {
                        "number": 64,
                        "time": 864.4464405499996,
                        "value": 0
                    },
                    {
                        "number": 64,
                        "time": 864.5566593999996,
                        "value": 1
                    },
                    {
                        "number": 64,
                        "time": 865.3951099374996,
                        "value": 0
                    },
                    {
                        "number": 64,
                        "time": 865.5565018249996,
                        "value": 1
                    },
                    {
                        "number": 64,
                        "time": 866.3339383562496,
                        "value": 0
                    },
                    {
                        "number": 64,
                        "time": 866.4244752687497,
                        "value": 1
                    },
                    {
                        "number": 64,
                        "time": 867.2826077437497,
                        "value": 0
                    },
                    {
                        "number": 64,
                        "time": 867.3770810437497,
                        "value": 1
                    },
                    {
                        "number": 64,
                        "time": 868.0009984624998,
                        "value": 0
                    },
                    {
                        "number": 64,
                        "time": 868.3572415312498,
                        "value": 1
                    },
                    {
                        "number": 64,
                        "time": 869.1956920687497,
                        "value": 0
                    },
                    {
                        "number": 64,
                        "time": 869.2941017562497,
                        "value": 1
                    },
                    {
                        "number": 64,
                        "time": 869.9810013749997,
                        "value": 0
                    },
                    {
                        "number": 64,
                        "time": 870.1109021624997,
                        "value": 1
                    },
                    {
                        "number": 64,
                        "time": 871.0733489062496,
                        "value": 0
                    },
                    {
                        "number": 64,
                        "time": 871.2130906624997,
                        "value": 1
                    },
                    {
                        "number": 64,
                        "time": 871.5437472124996,
                        "value": 0
                    },
                    {
                        "number": 64,
                        "time": 872.0239864874997,
                        "value": 1
                    },
                    {
                        "number": 64,
                        "time": 872.4825756312497,
                        "value": 0
                    },
                    {
                        "number": 64,
                        "time": 872.5514624124996,
                        "value": 1
                    },
                    {
                        "number": 64,
                        "time": 872.9628149062496,
                        "value": 0
                    },
                    {
                        "number": 64,
                        "time": 873.1242067937496,
                        "value": 1
                    },
                    {
                        "number": 64,
                        "time": 873.4273086312496,
                        "value": 0
                    },
                    {
                        "number": 64,
                        "time": 873.5867323249996,
                        "value": 1
                    },
                    {
                        "number": 64,
                        "time": 873.7815835062496,
                        "value": 0
                    },
                    {
                        "number": 64,
                        "time": 873.8898341624996,
                        "value": 1
                    },
                    {
                        "number": 64,
                        "time": 874.8522809062496,
                        "value": 0
                    },
                    {
                        "number": 64,
                        "time": 874.9920226624996,
                        "value": 1
                    },
                    {
                        "number": 64,
                        "time": 875.3108700499996,
                        "value": 0
                    },
                    {
                        "number": 64,
                        "time": 883.3883371999996,
                        "value": 1
                    },
                    {
                        "number": 64,
                        "time": 884.2759925812496,
                        "value": 0
                    },
                    {
                        "number": 64,
                        "time": 884.3645612999997,
                        "value": 1
                    },
                    {
                        "number": 64,
                        "time": 885.1341250562497,
                        "value": 0
                    },
                    {
                        "number": 64,
                        "time": 885.3840856624997,
                        "value": 1
                    },
                    {
                        "number": 64,
                        "time": 886.1792359374997,
                        "value": 0
                    },
                    {
                        "number": 64,
                        "time": 886.3622779562497,
                        "value": 1
                    },
                    {
                        "number": 64,
                        "time": 887.0039091187497,
                        "value": 0
                    },
                    {
                        "number": 64,
                        "time": 887.3070109562497,
                        "value": 1
                    },
                    {
                        "number": 64,
                        "time": 888.0706701312497,
                        "value": 0
                    },
                    {
                        "number": 64,
                        "time": 888.2852032499997,
                        "value": 1
                    },
                    {
                        "number": 64,
                        "time": 888.8599158249997,
                        "value": 0
                    },
                    {
                        "number": 64,
                        "time": 889.1295583687497,
                        "value": 1
                    },
                    {
                        "number": 64,
                        "time": 889.9502951624997,
                        "value": 0
                    },
                    {
                        "number": 64,
                        "time": 890.0959414999998,
                        "value": 1
                    },
                    {
                        "number": 64,
                        "time": 890.8930599687498,
                        "value": 0
                    },
                    {
                        "number": 64,
                        "time": 891.4343132499997,
                        "value": 1
                    },
                    {
                        "number": 64,
                        "time": 891.8338565812497,
                        "value": 0
                    },
                    {
                        "number": 64,
                        "time": 891.9401390437497,
                        "value": 1
                    },
                    {
                        "number": 64,
                        "time": 892.7726849999997,
                        "value": 0
                    },
                    {
                        "number": 64,
                        "time": 893.8158276874997,
                        "value": 1
                    },
                    {
                        "number": 64,
                        "time": 894.0795656499997,
                        "value": 0
                    },
                    {
                        "number": 64,
                        "time": 894.8156701124997,
                        "value": 1
                    },
                    {
                        "number": 64,
                        "time": 895.0105212937497,
                        "value": 0
                    },
                    {
                        "number": 64,
                        "time": 895.6305023249996,
                        "value": 0
                    },
                    {
                        "number": 64,
                        "time": 895.8017351812496,
                        "value": 1
                    },
                    {
                        "number": 64,
                        "time": 896.5516169999996,
                        "value": 0
                    },
                    {
                        "number": 64,
                        "time": 897.6912011812497,
                        "value": 1
                    },
                    {
                        "number": 64,
                        "time": 897.8506248749997,
                        "value": 0
                    },
                    {
                        "number": 64,
                        "time": 898.6497115374997,
                        "value": 1
                    },
                    {
                        "number": 64,
                        "time": 899.0807459687497,
                        "value": 0
                    }
                ]
            },
            "id": 3,
            "name": "Pedal",
            "instrumentNumber": 0,
            "instrument": "acoustic grand piano",
            "instrumentFamily": "piano",
            "channelNumber": 0,
            "isPercussion": false
        },
        {
            "startTime": 0,
            "duration": 0,
            "length": 0,
            "notes": [],
            "controlChanges": {},
            "id": 4,
            "name": "Mozart: Sonate KV 331"
        },
        {
            "startTime": 0,
            "duration": 0,
            "length": 0,
            "notes": [],
            "controlChanges": {},
            "id": 5,
            "name": "Copyright  2005 by Bernd Krger"
        },
        {
            "startTime": 0,
            "duration": 0,
            "length": 0,
            "notes": [],
            "controlChanges": {},
            "id": 6,
            "name": "http://www.piano-midi.de"
        },
        {
            "startTime": 0,
            "duration": 0,
            "length": 0,
            "notes": [],
            "controlChanges": {},
            "id": 7,
            "name": "Edition: 2013-07-06"
        },
        {
            "startTime": 0,
            "duration": 0,
            "length": 0,
            "notes": [],
            "controlChanges": {},
            "id": 8,
            "name": "Spur 8"
        },
        {
            "startTime": 0,
            "duration": 0,
            "length": 0,
            "notes": [],
            "controlChanges": {},
            "id": 9,
            "name": "Spur 9"
        }
    ]
}