{
    "header": {
        "PPQ": 480,
        "timeSignature": [
            4,
            4
        ],
        "bpm": 206.99005412789916,
        "name": "3. Movement"
    },
    "startTime": 0,
    "duration": 243.77982900000234,
    "tracks": [
        {
            "startTime": 0,
            "duration": 0,
            "length": 0,
            "notes": [],
            "controlChanges": {},
            "id": 0,
            "name": "3. Movement"
        },
        {
            "startTime": 0.7246724999999999,
            "duration": 243.77982900000003,
            "length": 1291,
            "notes": [
                {
                    "name": "G4",
                    "midi": 67,
                    "time": 0.7246724999999999,
                    "velocity": 0.3779527559055118,
                    "duration": 0.07246724999999998
                },
                {
                    "name": "C5",
                    "midi": 72,
                    "time": 0.8696069999999999,
                    "velocity": 0.3858267716535433,
                    "duration": 0.07246724999999998
                },
                {
                    "name": "D5",
                    "midi": 74,
                    "time": 1.0145415,
                    "velocity": 0.4015748031496063,
                    "duration": 0.0724672500000001
                },
                {
                    "name": "D#5",
                    "midi": 75,
                    "time": 1.1594760000000002,
                    "velocity": 0.4094488188976378,
                    "duration": 0.4348035000000001
                },
                {
                    "name": "F5",
                    "midi": 77,
                    "time": 1.5942795000000003,
                    "velocity": 0.3937007874015748,
                    "duration": 0.14493449999999997
                },
                {
                    "name": "D5",
                    "midi": 74,
                    "time": 1.7392140000000003,
                    "velocity": 0.41732283464566927,
                    "duration": 0.4348034999999999
                },
                {
                    "name": "D#5",
                    "midi": 75,
                    "time": 2.1740175,
                    "velocity": 0.3937007874015748,
                    "duration": 0.1449345000000002
                },
                {
                    "name": "C5",
                    "midi": 72,
                    "time": 2.3189520000000003,
                    "velocity": 0.4094488188976378,
                    "duration": 0.5435043749999999
                },
                {
                    "name": "D5",
                    "midi": 74,
                    "time": 2.8624563750000003,
                    "velocity": 0.3779527559055118,
                    "duration": 0.036233624999999936
                },
                {
                    "name": "C5",
                    "midi": 72,
                    "time": 2.89869,
                    "velocity": 0.4094488188976378,
                    "duration": 0.1449345000000002
                },
                {
                    "name": "B4",
                    "midi": 71,
                    "time": 3.0436245000000004,
                    "velocity": 0.4015748031496063,
                    "duration": 0.1449345000000002
                },
                {
                    "name": "C5",
                    "midi": 72,
                    "time": 3.1885590000000006,
                    "velocity": 0.4015748031496063,
                    "duration": 0.1449345000000002
                },
                {
                    "name": "D5",
                    "midi": 74,
                    "time": 3.3334935000000008,
                    "velocity": 0.3937007874015748,
                    "duration": 0.10870087499999981
                },
                {
                    "name": "F5",
                    "midi": 77,
                    "time": 3.4421943750000006,
                    "velocity": 0.3858267716535433,
                    "duration": 0.036233624999999936
                },
                {
                    "name": "D#5",
                    "midi": 75,
                    "time": 3.4784280000000005,
                    "velocity": 0.4409448818897638,
                    "duration": 0.1449345000000002
                },
                {
                    "name": "D5",
                    "midi": 74,
                    "time": 3.6233625000000007,
                    "velocity": 0.4094488188976378,
                    "duration": 0.1449345000000002
                },
                {
                    "name": "D#5",
                    "midi": 75,
                    "time": 3.768297000000001,
                    "velocity": 0.4094488188976378,
                    "duration": 0.1449345000000002
                },
                {
                    "name": "F5",
                    "midi": 77,
                    "time": 3.913231500000001,
                    "velocity": 0.4094488188976378,
                    "duration": 0.14493449999999974
                },
                {
                    "name": "G5",
                    "midi": 79,
                    "time": 4.058166000000001,
                    "velocity": 0.4409448818897638,
                    "duration": 0.14493449999999974
                },
                {
                    "name": "G5",
                    "midi": 79,
                    "time": 4.348035,
                    "velocity": 0.4330708661417323,
                    "duration": 0.14493449999999974
                },
                {
                    "name": "G5",
                    "midi": 79,
                    "time": 4.637904,
                    "velocity": 0.44881889763779526,
                    "duration": 0.8696070000000002
                },
                {
                    "name": "F5",
                    "midi": 77,
                    "time": 5.507511,
                    "velocity": 0.4015748031496063,
                    "duration": 0.14493449999999974
                },
                {
                    "name": "G5",
                    "midi": 79,
                    "time": 5.6524455,
                    "velocity": 0.41732283464566927,
                    "duration": 0.07246724999999987
                },
                {
                    "name": "F5",
                    "midi": 77,
                    "time": 5.72491275,
                    "velocity": 0.3779527559055118,
                    "duration": 0.03623362500000038
                },
                {
                    "name": "G5",
                    "midi": 79,
                    "time": 5.761146375,
                    "velocity": 0.3779527559055118,
                    "duration": 0.03623362500000038
                },
                {
                    "name": "G#5",
                    "midi": 80,
                    "time": 5.79738,
                    "velocity": 0.4409448818897638,
                    "duration": 0.5797379999999999
                },
                {
                    "name": "D5",
                    "midi": 74,
                    "time": 6.377118,
                    "velocity": 0.4094488188976378,
                    "duration": 0.2898690000000004
                },
                {
                    "name": "D#5",
                    "midi": 75,
                    "time": 6.666987000000001,
                    "velocity": 0.4015748031496063,
                    "duration": 0.14493449999999974
                },
                {
                    "name": "F5",
                    "midi": 77,
                    "time": 6.8119215,
                    "velocity": 0.41732283464566927,
                    "duration": 0.07246724999999987
                },
                {
                    "name": "D#5",
                    "midi": 75,
                    "time": 6.88438875,
                    "velocity": 0.3937007874015748,
                    "duration": 0.03623362500000038
                },
                {
                    "name": "F5",
                    "midi": 77,
                    "time": 6.920622375000001,
                    "velocity": 0.3937007874015748,
                    "duration": 0.03623362500000038
                },
                {
                    "name": "G5",
                    "midi": 79,
                    "time": 6.956856000000001,
                    "velocity": 0.4409448818897638,
                    "duration": 0.5797379999999999
                },
                {
                    "name": "C5",
                    "midi": 72,
                    "time": 7.536594000000001,
                    "velocity": 0.4094488188976378,
                    "duration": 0.2862456375000004
                },
                {
                    "name": "C5",
                    "midi": 72,
                    "time": 7.826463000000001,
                    "velocity": 0.41732283464566927,
                    "duration": 0.14493449999999974
                },
                {
                    "name": "D5",
                    "midi": 74,
                    "time": 7.971397500000001,
                    "velocity": 0.4251968503937008,
                    "duration": 0.14493450000000063
                },
                {
                    "name": "D#5",
                    "midi": 75,
                    "time": 8.116332000000002,
                    "velocity": 0.44881889763779526,
                    "duration": 0.14493449999999974
                },
                {
                    "name": "D#5",
                    "midi": 75,
                    "time": 8.406201000000001,
                    "velocity": 0.41732283464566927,
                    "duration": 0.14493449999999974
                },
                {
                    "name": "F5",
                    "midi": 77,
                    "time": 8.551135500000001,
                    "velocity": 0.36220472440944884,
                    "duration": 0.14493449999999974
                },
                {
                    "name": "D5",
                    "midi": 74,
                    "time": 8.69607,
                    "velocity": 0.44881889763779526,
                    "duration": 0.14493449999999974
                },
                {
                    "name": "D5",
                    "midi": 74,
                    "time": 8.985939,
                    "velocity": 0.4015748031496063,
                    "duration": 0.14493449999999974
                },
                {
                    "name": "D#5",
                    "midi": 75,
                    "time": 9.1308735,
                    "velocity": 0.4251968503937008,
                    "duration": 0.14493449999999974
                },
                {
                    "name": "C5",
                    "midi": 72,
                    "time": 9.275808,
                    "velocity": 0.44881889763779526,
                    "duration": 0.2898689999999995
                },
                {
                    "name": "F5",
                    "midi": 77,
                    "time": 10.145415,
                    "velocity": 0.4409448818897638,
                    "duration": 0.14493449999999974
                },
                {
                    "name": "G5",
                    "midi": 79,
                    "time": 10.2903495,
                    "velocity": 0.4566929133858268,
                    "duration": 0.14493449999999974
                },
                {
                    "name": "G#4",
                    "midi": 68,
                    "time": 10.435284,
                    "velocity": 0.4015748031496063,
                    "duration": 0.5797380000000008
                },
                {
                    "name": "G#5",
                    "midi": 80,
                    "time": 10.435284,
                    "velocity": 0.48031496062992124,
                    "duration": 0.5797380000000008
                },
                {
                    "name": "D5",
                    "midi": 74,
                    "time": 11.015022,
                    "velocity": 0.44881889763779526,
                    "duration": 0.2898689999999995
                },
                {
                    "name": "D#5",
                    "midi": 75,
                    "time": 11.304891,
                    "velocity": 0.4409448818897638,
                    "duration": 0.14493449999999974
                },
                {
                    "name": "F5",
                    "midi": 77,
                    "time": 11.4498255,
                    "velocity": 0.4566929133858268,
                    "duration": 0.14493449999999974
                },
                {
                    "name": "G4",
                    "midi": 67,
                    "time": 11.594759999999999,
                    "velocity": 0.4015748031496063,
                    "duration": 0.5797380000000008
                },
                {
                    "name": "G5",
                    "midi": 79,
                    "time": 11.594759999999999,
                    "velocity": 0.48031496062992124,
                    "duration": 0.5797380000000008
                },
                {
                    "name": "C5",
                    "midi": 72,
                    "time": 12.174498,
                    "velocity": 0.44881889763779526,
                    "duration": 0.2898689999999995
                },
                {
                    "name": "C5",
                    "midi": 72,
                    "time": 12.464367,
                    "velocity": 0.4566929133858268,
                    "duration": 0.14493449999999974
                },
                {
                    "name": "D5",
                    "midi": 74,
                    "time": 12.609301499999999,
                    "velocity": 0.4645669291338583,
                    "duration": 0.14493449999999974
                },
                {
                    "name": "D#5",
                    "midi": 75,
                    "time": 12.754235999999999,
                    "velocity": 0.4881889763779528,
                    "duration": 0.14493449999999974
                },
                {
                    "name": "D#5",
                    "midi": 75,
                    "time": 13.044104999999998,
                    "velocity": 0.4566929133858268,
                    "duration": 0.14493449999999974
                },
                {
                    "name": "F5",
                    "midi": 77,
                    "time": 13.189039499999998,
                    "velocity": 0.47244094488188976,
                    "duration": 0.14493449999999974
                },
                {
                    "name": "D5",
                    "midi": 74,
                    "time": 13.333973999999998,
                    "velocity": 0.4881889763779528,
                    "duration": 0.14493449999999974
                },
                {
                    "name": "D5",
                    "midi": 74,
                    "time": 13.623842999999997,
                    "velocity": 0.4409448818897638,
                    "duration": 0.14493449999999974
                },
                {
                    "name": "D#5",
                    "midi": 75,
                    "time": 13.768777499999997,
                    "velocity": 0.4645669291338583,
                    "duration": 0.14493449999999974
                },
                {
                    "name": "C5",
                    "midi": 72,
                    "time": 13.913711999999997,
                    "velocity": 0.4881889763779528,
                    "duration": 0.14493449999999974
                },
                {
                    "name": "A#5",
                    "midi": 82,
                    "time": 14.203580999999996,
                    "velocity": 0.5826771653543307,
                    "duration": 0.5797380000000008
                },
                {
                    "name": "A#5",
                    "midi": 82,
                    "time": 14.783318999999997,
                    "velocity": 0.5748031496062992,
                    "duration": 0.43480349999999923
                },
                {
                    "name": "G#5",
                    "midi": 80,
                    "time": 15.218122499999996,
                    "velocity": 0.5590551181102362,
                    "duration": 0.14493449999999974
                },
                {
                    "name": "G5",
                    "midi": 79,
                    "time": 15.363056999999996,
                    "velocity": 0.5669291338582677,
                    "duration": 0.14493449999999974
                },
                {
                    "name": "F5",
                    "midi": 77,
                    "time": 15.507991499999996,
                    "velocity": 0.5669291338582677,
                    "duration": 0.14493449999999974
                },
                {
                    "name": "D#5",
                    "midi": 75,
                    "time": 15.652925999999995,
                    "velocity": 0.5590551181102362,
                    "duration": 0.14493449999999974
                },
                {
                    "name": "D5",
                    "midi": 74,
                    "time": 15.797860499999995,
                    "velocity": 0.5590551181102362,
                    "duration": 0.14493449999999974
                },
                {
                    "name": "C5",
                    "midi": 72,
                    "time": 15.942794999999995,
                    "velocity": 0.5590551181102362,
                    "duration": 0.14493449999999974
                },
                {
                    "name": "B4",
                    "midi": 71,
                    "time": 16.087729499999995,
                    "velocity": 0.5590551181102362,
                    "duration": 0.14493450000000152
                },
                {
                    "name": "C5",
                    "midi": 72,
                    "time": 16.232663999999996,
                    "velocity": 0.5748031496062992,
                    "duration": 0.14493450000000152
                },
                {
                    "name": "C5",
                    "midi": 72,
                    "time": 16.522533,
                    "velocity": 0.5275590551181102,
                    "duration": 0.579737999999999
                },
                {
                    "name": "C6",
                    "midi": 84,
                    "time": 16.522533,
                    "velocity": 0.6220472440944882,
                    "duration": 0.579737999999999
                },
                {
                    "name": "A#5",
                    "midi": 82,
                    "time": 17.102271,
                    "velocity": 0.6299212598425197,
                    "duration": 0.434803500000001
                },
                {
                    "name": "G#5",
                    "midi": 80,
                    "time": 17.5370745,
                    "velocity": 0.6377952755905512,
                    "duration": 0.14493450000000152
                },
                {
                    "name": "G5",
                    "midi": 79,
                    "time": 17.682009,
                    "velocity": 0.6456692913385826,
                    "duration": 0.14493450000000152
                },
                {
                    "name": "F5",
                    "midi": 77,
                    "time": 17.826943500000002,
                    "velocity": 0.6377952755905512,
                    "duration": 0.14493450000000152
                },
                {
                    "name": "D#5",
                    "midi": 75,
                    "time": 17.971878000000004,
                    "velocity": 0.6220472440944882,
                    "duration": 0.14493450000000152
                },
                {
                    "name": "D5",
                    "midi": 74,
                    "time": 18.116812500000005,
                    "velocity": 0.6220472440944882,
                    "duration": 0.14493450000000152
                },
                {
                    "name": "C5",
                    "midi": 72,
                    "time": 18.261747000000007,
                    "velocity": 0.6220472440944882,
                    "duration": 0.14493450000000152
                },
                {
                    "name": "B4",
                    "midi": 71,
                    "time": 18.40668150000001,
                    "velocity": 0.6141732283464567,
                    "duration": 0.14493450000000152
                },
                {
                    "name": "C5",
                    "midi": 72,
                    "time": 18.55161600000001,
                    "velocity": 0.7007874015748031,
                    "duration": 0.14493450000000152
                },
                {
                    "name": "D5",
                    "midi": 74,
                    "time": 18.841485000000013,
                    "velocity": 0.6377952755905512,
                    "duration": 0.04831150000000051
                },
                {
                    "name": "D#5",
                    "midi": 75,
                    "time": 18.889796500000013,
                    "velocity": 0.6377952755905512,
                    "duration": 0.04831150000000051
                },
                {
                    "name": "D5",
                    "midi": 74,
                    "time": 18.938108000000014,
                    "velocity": 0.6377952755905512,
                    "duration": 0.04831150000000051
                },
                {
                    "name": "D#5",
                    "midi": 75,
                    "time": 18.986419500000014,
                    "velocity": 0.6377952755905512,
                    "duration": 0.03623362500000127
                },
                {
                    "name": "D5",
                    "midi": 74,
                    "time": 19.022653125000016,
                    "velocity": 0.6377952755905512,
                    "duration": 0.03623362500000127
                },
                {
                    "name": "C5",
                    "midi": 72,
                    "time": 19.058886750000017,
                    "velocity": 0.6299212598425197,
                    "duration": 0.03623362500000127
                },
                {
                    "name": "D5",
                    "midi": 74,
                    "time": 19.09512037500002,
                    "velocity": 0.6299212598425197,
                    "duration": 0.03623362500000127
                },
                {
                    "name": "D#5",
                    "midi": 75,
                    "time": 19.13135400000002,
                    "velocity": 0.7244094488188977,
                    "duration": 0.14493450000000152
                },
                {
                    "name": "B4",
                    "midi": 71,
                    "time": 19.421223000000023,
                    "velocity": 0.7244094488188977,
                    "duration": 0.14493450000000152
                },
                {
                    "name": "D5",
                    "midi": 74,
                    "time": 19.421223000000023,
                    "velocity": 0.7244094488188977,
                    "duration": 0.14493450000000152
                },
                {
                    "name": "B5",
                    "midi": 83,
                    "time": 19.421223000000023,
                    "velocity": 0.7244094488188977,
                    "duration": 0.14493450000000152
                },
                {
                    "name": "C5",
                    "midi": 72,
                    "time": 19.711092000000026,
                    "velocity": 0.7244094488188977,
                    "duration": 0.14493450000000152
                },
                {
                    "name": "D#5",
                    "midi": 75,
                    "time": 19.711092000000026,
                    "velocity": 0.7244094488188977,
                    "duration": 0.14493450000000152
                },
                {
                    "name": "C6",
                    "midi": 84,
                    "time": 19.711092000000026,
                    "velocity": 0.7244094488188977,
                    "duration": 0.14493450000000152
                },
                {
                    "name": "G3",
                    "midi": 55,
                    "time": 20.870568000000027,
                    "velocity": 0.5748031496062992,
                    "duration": 1.1594760000000015
                },
                {
                    "name": "C4",
                    "midi": 60,
                    "time": 20.870568000000027,
                    "velocity": 0.5748031496062992,
                    "duration": 1.1594760000000015
                },
                {
                    "name": "E4",
                    "midi": 64,
                    "time": 20.870568000000027,
                    "velocity": 0.6771653543307087,
                    "duration": 1.1594760000000015
                },
                {
                    "name": "F4",
                    "midi": 65,
                    "time": 22.03004400000003,
                    "velocity": 0.3937007874015748,
                    "duration": 0.14493450000000152
                },
                {
                    "name": "C5",
                    "midi": 72,
                    "time": 22.17497850000003,
                    "velocity": 0.4015748031496063,
                    "duration": 0.14493450000000152
                },
                {
                    "name": "G#4",
                    "midi": 68,
                    "time": 22.31991300000003,
                    "velocity": 0.41732283464566927,
                    "duration": 0.14493450000000152
                },
                {
                    "name": "F5",
                    "midi": 77,
                    "time": 22.464847500000033,
                    "velocity": 0.4251968503937008,
                    "duration": 0.14493450000000152
                },
                {
                    "name": "C5",
                    "midi": 72,
                    "time": 22.609782000000035,
                    "velocity": 0.4330708661417323,
                    "duration": 0.14493450000000152
                },
                {
                    "name": "G#5",
                    "midi": 80,
                    "time": 22.754716500000036,
                    "velocity": 0.4409448818897638,
                    "duration": 0.14493450000000152
                },
                {
                    "name": "F5",
                    "midi": 77,
                    "time": 22.899651000000038,
                    "velocity": 0.44881889763779526,
                    "duration": 0.14493450000000152
                },
                {
                    "name": "C6",
                    "midi": 84,
                    "time": 23.04458550000004,
                    "velocity": 0.4645669291338583,
                    "duration": 0.14493450000000152
                },
                {
                    "name": "A#5",
                    "midi": 82,
                    "time": 23.18952000000004,
                    "velocity": 0.4645669291338583,
                    "duration": 0.14493450000000152
                },
                {
                    "name": "G5",
                    "midi": 79,
                    "time": 23.334454500000042,
                    "velocity": 0.4645669291338583,
                    "duration": 0.14493450000000152
                },
                {
                    "name": "E5",
                    "midi": 76,
                    "time": 23.479389000000044,
                    "velocity": 0.4566929133858268,
                    "duration": 0.14493450000000152
                },
                {
                    "name": "C5",
                    "midi": 72,
                    "time": 23.624323500000045,
                    "velocity": 0.44881889763779526,
                    "duration": 0.14493450000000152
                },
                {
                    "name": "A#4",
                    "midi": 70,
                    "time": 23.769258000000047,
                    "velocity": 0.4409448818897638,
                    "duration": 0.14493450000000152
                },
                {
                    "name": "B4",
                    "midi": 71,
                    "time": 23.91419250000005,
                    "velocity": 0.4330708661417323,
                    "duration": 0.14493450000000152
                },
                {
                    "name": "C5",
                    "midi": 72,
                    "time": 24.05912700000005,
                    "velocity": 0.4330708661417323,
                    "duration": 0.14493450000000152
                },
                {
                    "name": "G4",
                    "midi": 67,
                    "time": 24.20406150000005,
                    "velocity": 0.4251968503937008,
                    "duration": 0.14493450000000152
                },
                {
                    "name": "A#4",
                    "midi": 70,
                    "time": 24.348996000000053,
                    "velocity": 0.47244094488188976,
                    "duration": 0.579737999999999
                },
                {
                    "name": "G#4",
                    "midi": 68,
                    "time": 24.928734000000052,
                    "velocity": 0.4409448818897638,
                    "duration": 0.2898689999999995
                },
                {
                    "name": "F3",
                    "midi": 53,
                    "time": 25.50847200000005,
                    "velocity": 0.5748031496062992,
                    "duration": 1.1594760000000015
                },
                {
                    "name": "A#3",
                    "midi": 58,
                    "time": 25.50847200000005,
                    "velocity": 0.5748031496062992,
                    "duration": 1.1594760000000015
                },
                {
                    "name": "D4",
                    "midi": 62,
                    "time": 25.50847200000005,
                    "velocity": 0.6771653543307087,
                    "duration": 1.1594760000000015
                },
                {
                    "name": "D#4",
                    "midi": 63,
                    "time": 26.667948000000052,
                    "velocity": 0.3937007874015748,
                    "duration": 0.14493450000000152
                },
                {
                    "name": "A#4",
                    "midi": 70,
                    "time": 26.812882500000054,
                    "velocity": 0.4015748031496063,
                    "duration": 0.14493450000000152
                },
                {
                    "name": "G4",
                    "midi": 67,
                    "time": 26.957817000000055,
                    "velocity": 0.41732283464566927,
                    "duration": 0.14493450000000152
                },
                {
                    "name": "D#5",
                    "midi": 75,
                    "time": 27.102751500000057,
                    "velocity": 0.4251968503937008,
                    "duration": 0.14493450000000152
                },
                {
                    "name": "A#4",
                    "midi": 70,
                    "time": 27.24768600000006,
                    "velocity": 0.4330708661417323,
                    "duration": 0.14493450000000152
                },
                {
                    "name": "G5",
                    "midi": 79,
                    "time": 27.39262050000006,
                    "velocity": 0.4409448818897638,
                    "duration": 0.14493450000000152
                },
                {
                    "name": "D#5",
                    "midi": 75,
                    "time": 27.53755500000006,
                    "velocity": 0.44881889763779526,
                    "duration": 0.14493450000000152
                },
                {
                    "name": "A#5",
                    "midi": 82,
                    "time": 27.682489500000063,
                    "velocity": 0.4645669291338583,
                    "duration": 0.14493450000000152
                },
                {
                    "name": "G#5",
                    "midi": 80,
                    "time": 27.827424000000065,
                    "velocity": 0.4645669291338583,
                    "duration": 0.14493450000000152
                },
                {
                    "name": "G5",
                    "midi": 79,
                    "time": 27.972358500000066,
                    "velocity": 0.4645669291338583,
                    "duration": 0.14493450000000152
                },
                {
                    "name": "F5",
                    "midi": 77,
                    "time": 28.117293000000068,
                    "velocity": 0.4566929133858268,
                    "duration": 0.14493450000000152
                },
                {
                    "name": "D#5",
                    "midi": 75,
                    "time": 28.26222750000007,
                    "velocity": 0.44881889763779526,
                    "duration": 0.14493450000000152
                },
                {
                    "name": "D5",
                    "midi": 74,
                    "time": 28.40716200000007,
                    "velocity": 0.4409448818897638,
                    "duration": 0.14493450000000152
                },
                {
                    "name": "C5",
                    "midi": 72,
                    "time": 28.552096500000072,
                    "velocity": 0.4330708661417323,
                    "duration": 0.14493450000000152
                },
                {
                    "name": "A#4",
                    "midi": 70,
                    "time": 28.697031000000074,
                    "velocity": 0.4330708661417323,
                    "duration": 0.14493450000000152
                },
                {
                    "name": "G#4",
                    "midi": 68,
                    "time": 28.841965500000075,
                    "velocity": 0.4251968503937008,
                    "duration": 0.14493450000000152
                },
                {
                    "name": "G4",
                    "midi": 67,
                    "time": 28.986900000000077,
                    "velocity": 0.47244094488188976,
                    "duration": 0.14493450000000152
                },
                {
                    "name": "A#4",
                    "midi": 70,
                    "time": 29.27676900000008,
                    "velocity": 0.47244094488188976,
                    "duration": 0.579737999999999
                },
                {
                    "name": "A#4",
                    "midi": 70,
                    "time": 29.85650700000008,
                    "velocity": 0.4409448818897638,
                    "duration": 0.434803500000001
                },
                {
                    "name": "C5",
                    "midi": 72,
                    "time": 30.29131050000008,
                    "velocity": 0.4251968503937008,
                    "duration": 0.14493450000000152
                },
                {
                    "name": "D5",
                    "midi": 74,
                    "time": 30.43624500000008,
                    "velocity": 0.4330708661417323,
                    "duration": 0.14493450000000152
                },
                {
                    "name": "D#5",
                    "midi": 75,
                    "time": 30.581179500000083,
                    "velocity": 0.44881889763779526,
                    "duration": 0.14493450000000152
                },
                {
                    "name": "F5",
                    "midi": 77,
                    "time": 30.726114000000084,
                    "velocity": 0.4566929133858268,
                    "duration": 0.14493450000000152
                },
                {
                    "name": "G5",
                    "midi": 79,
                    "time": 30.871048500000086,
                    "velocity": 0.47244094488188976,
                    "duration": 0.14493450000000152
                },
                {
                    "name": "G#5",
                    "midi": 80,
                    "time": 31.015983000000087,
                    "velocity": 0.48031496062992124,
                    "duration": 0.14493450000000152
                },
                {
                    "name": "F5",
                    "midi": 77,
                    "time": 31.16091750000009,
                    "velocity": 0.4566929133858268,
                    "duration": 0.14493450000000152
                },
                {
                    "name": "G#5",
                    "midi": 80,
                    "time": 31.30585200000009,
                    "velocity": 0.48031496062992124,
                    "duration": 0.14493450000000152
                },
                {
                    "name": "G5",
                    "midi": 79,
                    "time": 31.450786500000092,
                    "velocity": 0.47244094488188976,
                    "duration": 0.14493450000000152
                },
                {
                    "name": "F5",
                    "midi": 77,
                    "time": 31.595721000000093,
                    "velocity": 0.4645669291338583,
                    "duration": 0.14493450000000152
                },
                {
                    "name": "D#5",
                    "midi": 75,
                    "time": 31.740655500000095,
                    "velocity": 0.4566929133858268,
                    "duration": 0.13285662499999873
                },
                {
                    "name": "D#5",
                    "midi": 75,
                    "time": 31.885590000000093,
                    "velocity": 0.47244094488188976,
                    "duration": 0.14493449999999797
                },
                {
                    "name": "D5",
                    "midi": 74,
                    "time": 32.03052450000009,
                    "velocity": 0.4566929133858268,
                    "duration": 0.14493449999999797
                },
                {
                    "name": "C5",
                    "midi": 72,
                    "time": 32.17545900000009,
                    "velocity": 0.4566929133858268,
                    "duration": 0.14493449999999797
                },
                {
                    "name": "D5",
                    "midi": 74,
                    "time": 32.32039350000009,
                    "velocity": 0.4566929133858268,
                    "duration": 0.14493449999999797
                },
                {
                    "name": "F5",
                    "midi": 77,
                    "time": 32.465328000000085,
                    "velocity": 0.49606299212598426,
                    "duration": 0.14493449999999797
                },
                {
                    "name": "D#5",
                    "midi": 75,
                    "time": 32.61026250000008,
                    "velocity": 0.44881889763779526,
                    "duration": 0.14493449999999797
                },
                {
                    "name": "D5",
                    "midi": 74,
                    "time": 32.75519700000008,
                    "velocity": 0.44881889763779526,
                    "duration": 0.14493449999999797
                },
                {
                    "name": "C5",
                    "midi": 72,
                    "time": 32.90013150000008,
                    "velocity": 0.44881889763779526,
                    "duration": 0.14493449999999797
                },
                {
                    "name": "G#4",
                    "midi": 68,
                    "time": 33.04506600000008,
                    "velocity": 0.47244094488188976,
                    "duration": 0.26088210000000345
                },
                {
                    "name": "A#4",
                    "midi": 70,
                    "time": 33.04506600000008,
                    "velocity": 0.47244094488188976,
                    "duration": 0.26088210000000345
                },
                {
                    "name": "G#4",
                    "midi": 68,
                    "time": 33.33493500000008,
                    "velocity": 0.47244094488188976,
                    "duration": 0.26088210000000345
                },
                {
                    "name": "A#4",
                    "midi": 70,
                    "time": 33.33493500000008,
                    "velocity": 0.47244094488188976,
                    "duration": 0.26088210000000345
                },
                {
                    "name": "G#4",
                    "midi": 68,
                    "time": 33.62480400000008,
                    "velocity": 0.47244094488188976,
                    "duration": 0.14493449999999797
                },
                {
                    "name": "A#4",
                    "midi": 70,
                    "time": 33.62480400000008,
                    "velocity": 0.47244094488188976,
                    "duration": 1.3044104999999888
                },
                {
                    "name": "G4",
                    "midi": 67,
                    "time": 33.76973850000008,
                    "velocity": 0.41732283464566927,
                    "duration": 0.14493449999999797
                },
                {
                    "name": "F4",
                    "midi": 65,
                    "time": 33.91467300000008,
                    "velocity": 0.41732283464566927,
                    "duration": 0.14493449999999797
                },
                {
                    "name": "D#4",
                    "midi": 63,
                    "time": 34.05960750000008,
                    "velocity": 0.41732283464566927,
                    "duration": 0.13285662500000228
                },
                {
                    "name": "D#4",
                    "midi": 63,
                    "time": 34.20454200000008,
                    "velocity": 0.44881889763779526,
                    "duration": 0.14493449999999797
                },
                {
                    "name": "D4",
                    "midi": 62,
                    "time": 34.34947650000008,
                    "velocity": 0.4094488188976378,
                    "duration": 0.14493449999999797
                },
                {
                    "name": "C4",
                    "midi": 60,
                    "time": 34.49441100000008,
                    "velocity": 0.4094488188976378,
                    "duration": 0.14493449999999797
                },
                {
                    "name": "D4",
                    "midi": 62,
                    "time": 34.639345500000076,
                    "velocity": 0.4094488188976378,
                    "duration": 0.14493449999999797
                },
                {
                    "name": "D#4",
                    "midi": 63,
                    "time": 34.784280000000074,
                    "velocity": 0.4330708661417323,
                    "duration": 0.14493449999999797
                },
                {
                    "name": "C5",
                    "midi": 72,
                    "time": 34.92921450000007,
                    "velocity": 0.4409448818897638,
                    "duration": 0.14493449999999797
                },
                {
                    "name": "D5",
                    "midi": 74,
                    "time": 35.07414900000007,
                    "velocity": 0.4566929133858268,
                    "duration": 0.14493449999999797
                },
                {
                    "name": "D#5",
                    "midi": 75,
                    "time": 35.21908350000007,
                    "velocity": 0.4645669291338583,
                    "duration": 0.14493449999999797
                },
                {
                    "name": "F5",
                    "midi": 77,
                    "time": 35.364018000000065,
                    "velocity": 0.48031496062992124,
                    "duration": 0.14493449999999797
                },
                {
                    "name": "F#5",
                    "midi": 78,
                    "time": 35.50895250000006,
                    "velocity": 0.49606299212598426,
                    "duration": 0.14493449999999797
                },
                {
                    "name": "G#5",
                    "midi": 80,
                    "time": 35.65388700000006,
                    "velocity": 0.5039370078740157,
                    "duration": 0.14493449999999797
                },
                {
                    "name": "F5",
                    "midi": 77,
                    "time": 35.79882150000006,
                    "velocity": 0.4881889763779528,
                    "duration": 0.14493449999999797
                },
                {
                    "name": "F#5",
                    "midi": 78,
                    "time": 35.94375600000006,
                    "velocity": 0.5118110236220472,
                    "duration": 0.28986900000000304
                },
                {
                    "name": "A#5",
                    "midi": 82,
                    "time": 36.23362500000006,
                    "velocity": 0.5669291338582677,
                    "duration": 0.5736990624999976
                },
                {
                    "name": "A#5",
                    "midi": 82,
                    "time": 36.81336300000006,
                    "velocity": 0.5826771653543307,
                    "duration": 0.579737999999999
                },
                {
                    "name": "D#6",
                    "midi": 87,
                    "time": 37.39310100000006,
                    "velocity": 0.7165354330708661,
                    "duration": 0.579737999999999
                },
                {
                    "name": "A5",
                    "midi": 81,
                    "time": 37.97283900000006,
                    "velocity": 0.6141732283464567,
                    "duration": 0.28986900000000304
                },
                {
                    "name": "A#5",
                    "midi": 82,
                    "time": 38.26270800000006,
                    "velocity": 0.47244094488188976,
                    "duration": 0.676361
                },
                {
                    "name": "A5",
                    "midi": 81,
                    "time": 38.93906900000006,
                    "velocity": 0.3858267716535433,
                    "duration": 0.09662300000000101
                },
                {
                    "name": "A#5",
                    "midi": 82,
                    "time": 39.03569200000006,
                    "velocity": 0.4015748031496063,
                    "duration": 0.09662300000000101
                },
                {
                    "name": "C6",
                    "midi": 84,
                    "time": 39.13231500000006,
                    "velocity": 0.41732283464566927,
                    "duration": 0.09662300000000101
                },
                {
                    "name": "A#5",
                    "midi": 82,
                    "time": 39.22893800000006,
                    "velocity": 0.3937007874015748,
                    "duration": 0.09662300000000101
                },
                {
                    "name": "A5",
                    "midi": 81,
                    "time": 39.325561000000064,
                    "velocity": 0.3937007874015748,
                    "duration": 0.09662300000000101
                },
                {
                    "name": "A#5",
                    "midi": 82,
                    "time": 39.422184000000065,
                    "velocity": 0.3937007874015748,
                    "duration": 0.676361
                },
                {
                    "name": "A5",
                    "midi": 81,
                    "time": 40.098545000000065,
                    "velocity": 0.3858267716535433,
                    "duration": 0.09662300000000101
                },
                {
                    "name": "A#5",
                    "midi": 82,
                    "time": 40.195168000000066,
                    "velocity": 0.4015748031496063,
                    "duration": 0.09662300000000101
                },
                {
                    "name": "C6",
                    "midi": 84,
                    "time": 40.29179100000007,
                    "velocity": 0.41732283464566927,
                    "duration": 0.09662300000000101
                },
                {
                    "name": "A#5",
                    "midi": 82,
                    "time": 40.38841400000007,
                    "velocity": 0.3937007874015748,
                    "duration": 0.09662300000000101
                },
                {
                    "name": "A5",
                    "midi": 81,
                    "time": 40.48503700000007,
                    "velocity": 0.3937007874015748,
                    "duration": 0.09662300000000101
                },
                {
                    "name": "A#5",
                    "midi": 82,
                    "time": 40.67828300000007,
                    "velocity": 0.4251968503937008,
                    "duration": 0.09662300000000101
                },
                {
                    "name": "C6",
                    "midi": 84,
                    "time": 40.77490600000007,
                    "velocity": 0.4409448818897638,
                    "duration": 0.09662300000000101
                },
                {
                    "name": "D6",
                    "midi": 86,
                    "time": 40.87152900000007,
                    "velocity": 0.4566929133858268,
                    "duration": 0.09662300000000101
                },
                {
                    "name": "C6",
                    "midi": 84,
                    "time": 40.968152000000075,
                    "velocity": 0.4330708661417323,
                    "duration": 0.09662300000000101
                },
                {
                    "name": "A#5",
                    "midi": 82,
                    "time": 41.064775000000076,
                    "velocity": 0.4094488188976378,
                    "duration": 0.09662300000000101
                },
                {
                    "name": "D6",
                    "midi": 86,
                    "time": 41.25802100000008,
                    "velocity": 0.4251968503937008,
                    "duration": 0.09662300000000101
                },
                {
                    "name": "D#6",
                    "midi": 87,
                    "time": 41.35464400000008,
                    "velocity": 0.44881889763779526,
                    "duration": 0.09662300000000101
                },
                {
                    "name": "F6",
                    "midi": 89,
                    "time": 41.45126700000008,
                    "velocity": 0.4645669291338583,
                    "duration": 0.09662300000000101
                },
                {
                    "name": "D#6",
                    "midi": 87,
                    "time": 41.54789000000008,
                    "velocity": 0.44881889763779526,
                    "duration": 0.09662300000000101
                },
                {
                    "name": "D6",
                    "midi": 86,
                    "time": 41.64451300000008,
                    "velocity": 0.4330708661417323,
                    "duration": 0.09662300000000101
                },
                {
                    "name": "F6",
                    "midi": 89,
                    "time": 41.74113600000008,
                    "velocity": 0.49606299212598426,
                    "duration": 0.09662300000000101
                },
                {
                    "name": "D#6",
                    "midi": 87,
                    "time": 41.837759000000084,
                    "velocity": 0.49606299212598426,
                    "duration": 0.09662300000000101
                },
                {
                    "name": "D6",
                    "midi": 86,
                    "time": 41.934382000000085,
                    "velocity": 0.4881889763779528,
                    "duration": 0.09662300000000101
                },
                {
                    "name": "C6",
                    "midi": 84,
                    "time": 42.031005000000086,
                    "velocity": 0.48031496062992124,
                    "duration": 0.09662300000000101
                },
                {
                    "name": "A#5",
                    "midi": 82,
                    "time": 42.12762800000009,
                    "velocity": 0.47244094488188976,
                    "duration": 0.09662300000000101
                },
                {
                    "name": "G#5",
                    "midi": 80,
                    "time": 42.22425100000009,
                    "velocity": 0.4645669291338583,
                    "duration": 0.09662300000000101
                },
                {
                    "name": "G5",
                    "midi": 79,
                    "time": 42.32087400000009,
                    "velocity": 0.4645669291338583,
                    "duration": 0.09662300000000101
                },
                {
                    "name": "F5",
                    "midi": 77,
                    "time": 42.41749700000009,
                    "velocity": 0.4566929133858268,
                    "duration": 0.09662300000000101
                },
                {
                    "name": "D#5",
                    "midi": 75,
                    "time": 42.51412000000009,
                    "velocity": 0.44881889763779526,
                    "duration": 0.09662300000000101
                },
                {
                    "name": "D5",
                    "midi": 74,
                    "time": 42.61074300000009,
                    "velocity": 0.4409448818897638,
                    "duration": 0.07246725000000254
                },
                {
                    "name": "C5",
                    "midi": 72,
                    "time": 42.683210250000094,
                    "velocity": 0.4409448818897638,
                    "duration": 0.07246725000000254
                },
                {
                    "name": "A#4",
                    "midi": 70,
                    "time": 42.7556775000001,
                    "velocity": 0.4330708661417323,
                    "duration": 0.07246725000000254
                },
                {
                    "name": "G#4",
                    "midi": 68,
                    "time": 42.8281447500001,
                    "velocity": 0.4251968503937008,
                    "duration": 0.07246725000000254
                },
                {
                    "name": "G4",
                    "midi": 67,
                    "time": 42.9006120000001,
                    "velocity": 0.4645669291338583,
                    "duration": 0.10266193750000241
                },
                {
                    "name": "D#4",
                    "midi": 63,
                    "time": 42.9972350000001,
                    "velocity": 0.4330708661417323,
                    "duration": 0.10266193750000241
                },
                {
                    "name": "F4",
                    "midi": 65,
                    "time": 43.093858000000104,
                    "velocity": 0.4330708661417323,
                    "duration": 0.10266193750000241
                },
                {
                    "name": "G4",
                    "midi": 67,
                    "time": 43.190481000000105,
                    "velocity": 0.4645669291338583,
                    "duration": 0.10266193750000241
                },
                {
                    "name": "F4",
                    "midi": 65,
                    "time": 43.287104000000106,
                    "velocity": 0.4330708661417323,
                    "duration": 0.10266193750000241
                },
                {
                    "name": "D#4",
                    "midi": 63,
                    "time": 43.38372700000011,
                    "velocity": 0.4330708661417323,
                    "duration": 0.10266193750000241
                },
                {
                    "name": "G#4",
                    "midi": 68,
                    "time": 43.48035000000011,
                    "velocity": 0.4645669291338583,
                    "duration": 0.579737999999999
                },
                {
                    "name": "G4",
                    "midi": 67,
                    "time": 44.06008800000011,
                    "velocity": 0.4645669291338583,
                    "duration": 0.10266193750000241
                },
                {
                    "name": "D#5",
                    "midi": 75,
                    "time": 44.15671100000011,
                    "velocity": 0.4330708661417323,
                    "duration": 0.10266193750000241
                },
                {
                    "name": "F5",
                    "midi": 77,
                    "time": 44.25333400000011,
                    "velocity": 0.4330708661417323,
                    "duration": 0.10266193750000241
                },
                {
                    "name": "G5",
                    "midi": 79,
                    "time": 44.34995700000011,
                    "velocity": 0.4645669291338583,
                    "duration": 0.10266193750000241
                },
                {
                    "name": "F5",
                    "midi": 77,
                    "time": 44.44658000000011,
                    "velocity": 0.4330708661417323,
                    "duration": 0.10266193750000241
                },
                {
                    "name": "D#5",
                    "midi": 75,
                    "time": 44.54320300000011,
                    "velocity": 0.4330708661417323,
                    "duration": 0.10266193750000241
                },
                {
                    "name": "G#5",
                    "midi": 80,
                    "time": 44.63982600000011,
                    "velocity": 0.4645669291338583,
                    "duration": 0.579737999999999
                },
                {
                    "name": "G5",
                    "midi": 79,
                    "time": 45.21956400000011,
                    "velocity": 0.4645669291338583,
                    "duration": 0.09662300000000101
                },
                {
                    "name": "D#5",
                    "midi": 75,
                    "time": 45.31618700000011,
                    "velocity": 0.4645669291338583,
                    "duration": 0.09662300000000101
                },
                {
                    "name": "F5",
                    "midi": 77,
                    "time": 45.412810000000114,
                    "velocity": 0.4645669291338583,
                    "duration": 0.09662300000000101
                },
                {
                    "name": "G5",
                    "midi": 79,
                    "time": 45.509433000000115,
                    "velocity": 0.5039370078740157,
                    "duration": 0.09662300000000101
                },
                {
                    "name": "F5",
                    "midi": 77,
                    "time": 45.606056000000116,
                    "velocity": 0.44881889763779526,
                    "duration": 0.09662300000000101
                },
                {
                    "name": "D#5",
                    "midi": 75,
                    "time": 45.70267900000012,
                    "velocity": 0.4566929133858268,
                    "duration": 0.09662300000000101
                },
                {
                    "name": "A#5",
                    "midi": 82,
                    "time": 45.79930200000012,
                    "velocity": 0.5275590551181102,
                    "duration": 0.09662300000000101
                },
                {
                    "name": "G5",
                    "midi": 79,
                    "time": 45.89592500000012,
                    "velocity": 0.4645669291338583,
                    "duration": 0.09662300000000101
                },
                {
                    "name": "G#5",
                    "midi": 80,
                    "time": 45.99254800000012,
                    "velocity": 0.4645669291338583,
                    "duration": 0.09662300000000101
                },
                {
                    "name": "A#5",
                    "midi": 82,
                    "time": 46.08917100000012,
                    "velocity": 0.4881889763779528,
                    "duration": 0.09662300000000101
                },
                {
                    "name": "G#5",
                    "midi": 80,
                    "time": 46.18579400000012,
                    "velocity": 0.5118110236220472,
                    "duration": 0.09662300000000101
                },
                {
                    "name": "G5",
                    "midi": 79,
                    "time": 46.28241700000012,
                    "velocity": 0.5275590551181102,
                    "duration": 0.09662300000000101
                },
                {
                    "name": "C#6",
                    "midi": 85,
                    "time": 46.379040000000124,
                    "velocity": 0.5433070866141733,
                    "duration": 0.10266193750000241
                },
                {
                    "name": "C6",
                    "midi": 84,
                    "time": 46.475663000000125,
                    "velocity": 0.5354330708661418,
                    "duration": 0.10266193750000241
                },
                {
                    "name": "A#5",
                    "midi": 82,
                    "time": 46.572286000000126,
                    "velocity": 0.5275590551181102,
                    "duration": 0.10266193750000241
                },
                {
                    "name": "G#5",
                    "midi": 80,
                    "time": 46.66890900000013,
                    "velocity": 0.5196850393700787,
                    "duration": 0.10266193750000241
                },
                {
                    "name": "G5",
                    "midi": 79,
                    "time": 46.76553200000013,
                    "velocity": 0.5118110236220472,
                    "duration": 0.10266193750000241
                },
                {
                    "name": "F5",
                    "midi": 77,
                    "time": 46.86215500000013,
                    "velocity": 0.49606299212598426,
                    "duration": 0.10266193750000241
                },
                {
                    "name": "D#5",
                    "midi": 75,
                    "time": 46.95877800000013,
                    "velocity": 0.4645669291338583,
                    "duration": 0.10266193750000241
                },
                {
                    "name": "D5",
                    "midi": 74,
                    "time": 47.05540100000013,
                    "velocity": 0.4330708661417323,
                    "duration": 0.10266193750000241
                },
                {
                    "name": "D#5",
                    "midi": 75,
                    "time": 47.15202400000013,
                    "velocity": 0.4330708661417323,
                    "duration": 0.10266193750000241
                },
                {
                    "name": "E5",
                    "midi": 76,
                    "time": 47.24864700000013,
                    "velocity": 0.4645669291338583,
                    "duration": 0.10266193750000241
                },
                {
                    "name": "F5",
                    "midi": 77,
                    "time": 47.345270000000134,
                    "velocity": 0.4409448818897638,
                    "duration": 0.10266193750000241
                },
                {
                    "name": "C#5",
                    "midi": 73,
                    "time": 47.441893000000135,
                    "velocity": 0.4409448818897638,
                    "duration": 0.10266193750000241
                },
                {
                    "name": "C4",
                    "midi": 60,
                    "time": 47.82838500000014,
                    "velocity": 0.44881889763779526,
                    "duration": 0.09662300000000101
                },
                {
                    "name": "D#4",
                    "midi": 63,
                    "time": 47.92500800000014,
                    "velocity": 0.4645669291338583,
                    "duration": 0.09662300000000101
                },
                {
                    "name": "G#4",
                    "midi": 68,
                    "time": 48.02163100000014,
                    "velocity": 0.4881889763779528,
                    "duration": 0.09662300000000101
                },
                {
                    "name": "C5",
                    "midi": 72,
                    "time": 48.11825400000014,
                    "velocity": 0.5039370078740157,
                    "duration": 0.09662300000000101
                },
                {
                    "name": "D#5",
                    "midi": 75,
                    "time": 48.21487700000014,
                    "velocity": 0.5196850393700787,
                    "duration": 0.09662300000000101
                },
                {
                    "name": "G#5",
                    "midi": 80,
                    "time": 48.311500000000144,
                    "velocity": 0.5354330708661418,
                    "duration": 0.09662300000000101
                },
                {
                    "name": "C6",
                    "midi": 84,
                    "time": 48.408123000000145,
                    "velocity": 0.5511811023622047,
                    "duration": 0.07246725000000254
                },
                {
                    "name": "C6",
                    "midi": 84,
                    "time": 48.55305750000015,
                    "velocity": 0.5511811023622047,
                    "duration": 0.07246725000000254
                },
                {
                    "name": "C6",
                    "midi": 84,
                    "time": 48.697992000000156,
                    "velocity": 0.5511811023622047,
                    "duration": 0.14493449999999797
                },
                {
                    "name": "A#5",
                    "midi": 82,
                    "time": 48.842926500000154,
                    "velocity": 0.5354330708661418,
                    "duration": 0.14493449999999797
                },
                {
                    "name": "G#5",
                    "midi": 80,
                    "time": 48.98786100000015,
                    "velocity": 0.5196850393700787,
                    "duration": 0.07246725000000254
                },
                {
                    "name": "G5",
                    "midi": 79,
                    "time": 49.13279550000016,
                    "velocity": 0.5039370078740157,
                    "duration": 0.07246725000000254
                },
                {
                    "name": "G5",
                    "midi": 79,
                    "time": 49.27773000000016,
                    "velocity": 0.5118110236220472,
                    "duration": 0.14493449999999797
                },
                {
                    "name": "F5",
                    "midi": 77,
                    "time": 49.42266450000016,
                    "velocity": 0.49606299212598426,
                    "duration": 0.14493449999999797
                },
                {
                    "name": "D#5",
                    "midi": 75,
                    "time": 49.56759900000016,
                    "velocity": 0.48031496062992124,
                    "duration": 0.07246725000000254
                },
                {
                    "name": "D5",
                    "midi": 74,
                    "time": 49.71253350000016,
                    "velocity": 0.4645669291338583,
                    "duration": 0.07246725000000254
                },
                {
                    "name": "D#5",
                    "midi": 75,
                    "time": 49.85746800000017,
                    "velocity": 0.49606299212598426,
                    "duration": 0.28986900000000304
                },
                {
                    "name": "A#3",
                    "midi": 58,
                    "time": 50.72707500000017,
                    "velocity": 0.3543307086614173,
                    "duration": 0.28383006250000165
                },
                {
                    "name": "D4",
                    "midi": 62,
                    "time": 51.01694400000017,
                    "velocity": 0.29133858267716534,
                    "duration": 0.14493449999999797
                },
                {
                    "name": "F4",
                    "midi": 65,
                    "time": 51.01694400000017,
                    "velocity": 0.3543307086614173,
                    "duration": 0.14493449999999797
                },
                {
                    "name": "D4",
                    "midi": 62,
                    "time": 51.30681300000017,
                    "velocity": 0.2992125984251969,
                    "duration": 0.14493449999999797
                },
                {
                    "name": "F4",
                    "midi": 65,
                    "time": 51.30681300000017,
                    "velocity": 0.3543307086614173,
                    "duration": 0.14493449999999797
                },
                {
                    "name": "D4",
                    "midi": 62,
                    "time": 51.596682000000165,
                    "velocity": 0.2992125984251969,
                    "duration": 0.14493449999999797
                },
                {
                    "name": "F4",
                    "midi": 65,
                    "time": 51.596682000000165,
                    "velocity": 0.3543307086614173,
                    "duration": 0.14493449999999797
                },
                {
                    "name": "D4",
                    "midi": 62,
                    "time": 51.88655100000016,
                    "velocity": 0.30708661417322836,
                    "duration": 0.14493449999999797
                },
                {
                    "name": "F4",
                    "midi": 65,
                    "time": 51.88655100000016,
                    "velocity": 0.36220472440944884,
                    "duration": 0.14493449999999797
                },
                {
                    "name": "D#4",
                    "midi": 63,
                    "time": 52.17642000000016,
                    "velocity": 0.31496062992125984,
                    "duration": 0.869607000000002
                },
                {
                    "name": "A#4",
                    "midi": 70,
                    "time": 52.17642000000016,
                    "velocity": 0.3700787401574803,
                    "duration": 0.869607000000002
                },
                {
                    "name": "D#4",
                    "midi": 63,
                    "time": 53.04602700000016,
                    "velocity": 0.36220472440944884,
                    "duration": 0.28986900000000304
                },
                {
                    "name": "A#4",
                    "midi": 70,
                    "time": 53.04602700000016,
                    "velocity": 0.36220472440944884,
                    "duration": 0.28986900000000304
                },
                {
                    "name": "D#4",
                    "midi": 63,
                    "time": 53.33589600000016,
                    "velocity": 0.31496062992125984,
                    "duration": 0.579737999999999
                },
                {
                    "name": "G#4",
                    "midi": 68,
                    "time": 53.33589600000016,
                    "velocity": 0.3779527559055118,
                    "duration": 0.579737999999999
                },
                {
                    "name": "F4",
                    "midi": 65,
                    "time": 53.91563400000016,
                    "velocity": 0.29133858267716534,
                    "duration": 0.579737999999999
                },
                {
                    "name": "D#4",
                    "midi": 63,
                    "time": 53.91563400000016,
                    "velocity": 0.29133858267716534,
                    "duration": 0.579737999999999
                },
                {
                    "name": "A4",
                    "midi": 69,
                    "time": 53.91563400000016,
                    "velocity": 0.3543307086614173,
                    "duration": 0.579737999999999
                },
                {
                    "name": "D4",
                    "midi": 62,
                    "time": 54.49537200000016,
                    "velocity": 0.30708661417322836,
                    "duration": 0.869607000000002
                },
                {
                    "name": "F4",
                    "midi": 65,
                    "time": 54.49537200000016,
                    "velocity": 0.30708661417322836,
                    "duration": 0.869607000000002
                },
                {
                    "name": "A#4",
                    "midi": 70,
                    "time": 54.49537200000016,
                    "velocity": 0.36220472440944884,
                    "duration": 0.869607000000002
                },
                {
                    "name": "A#4",
                    "midi": 70,
                    "time": 55.36497900000016,
                    "velocity": 0.3937007874015748,
                    "duration": 0.28383006250000165
                },
                {
                    "name": "A#4",
                    "midi": 70,
                    "time": 55.654848000000165,
                    "velocity": 0.33070866141732286,
                    "duration": 0.14493449999999797
                },
                {
                    "name": "F5",
                    "midi": 77,
                    "time": 55.654848000000165,
                    "velocity": 0.3937007874015748,
                    "duration": 0.14493449999999797
                },
                {
                    "name": "A#4",
                    "midi": 70,
                    "time": 55.94471700000016,
                    "velocity": 0.3543307086614173,
                    "duration": 0.14493449999999797
                },
                {
                    "name": "F5",
                    "midi": 77,
                    "time": 55.94471700000016,
                    "velocity": 0.41732283464566927,
                    "duration": 0.14493449999999797
                },
                {
                    "name": "A#4",
                    "midi": 70,
                    "time": 56.23458600000016,
                    "velocity": 0.3700787401574803,
                    "duration": 0.14493449999999797
                },
                {
                    "name": "F5",
                    "midi": 77,
                    "time": 56.23458600000016,
                    "velocity": 0.4409448818897638,
                    "duration": 0.14493449999999797
                },
                {
                    "name": "A#4",
                    "midi": 70,
                    "time": 56.52445500000015,
                    "velocity": 0.3937007874015748,
                    "duration": 0.14493449999999797
                },
                {
                    "name": "F5",
                    "midi": 77,
                    "time": 56.52445500000015,
                    "velocity": 0.4645669291338583,
                    "duration": 0.14493449999999797
                },
                {
                    "name": "A#4",
                    "midi": 70,
                    "time": 56.81432400000015,
                    "velocity": 0.5748031496062992,
                    "duration": 0.579737999999999
                },
                {
                    "name": "A#5",
                    "midi": 82,
                    "time": 56.81432400000015,
                    "velocity": 0.5748031496062992,
                    "duration": 0.869607000000002
                },
                {
                    "name": "C#5",
                    "midi": 73,
                    "time": 57.39406200000015,
                    "velocity": 0.6299212598425197,
                    "duration": 0.5797380000000061
                },
                {
                    "name": "B5",
                    "midi": 83,
                    "time": 57.68393100000015,
                    "velocity": 0.5669291338582677,
                    "duration": 0.28986900000000304
                },
                {
                    "name": "C5",
                    "midi": 72,
                    "time": 57.97380000000015,
                    "velocity": 0.5826771653543307,
                    "duration": 0.28986900000000304
                },
                {
                    "name": "C6",
                    "midi": 84,
                    "time": 57.97380000000015,
                    "velocity": 0.6850393700787402,
                    "duration": 0.28986900000000304
                },
                {
                    "name": "F4",
                    "midi": 65,
                    "time": 58.55353800000016,
                    "velocity": 0.5826771653543307,
                    "duration": 0.28986900000000304
                },
                {
                    "name": "G#4",
                    "midi": 68,
                    "time": 58.55353800000016,
                    "velocity": 0.5826771653543307,
                    "duration": 0.28986900000000304
                },
                {
                    "name": "D5",
                    "midi": 74,
                    "time": 58.55353800000016,
                    "velocity": 0.6850393700787402,
                    "duration": 0.28986900000000304
                },
                {
                    "name": "G4",
                    "midi": 67,
                    "time": 59.133276000000166,
                    "velocity": 0.3858267716535433,
                    "duration": 0.28986900000000304
                },
                {
                    "name": "D#5",
                    "midi": 75,
                    "time": 59.133276000000166,
                    "velocity": 0.4330708661417323,
                    "duration": 0.28986900000000304
                },
                {
                    "name": "A#4",
                    "midi": 70,
                    "time": 59.809637000000166,
                    "velocity": 0.4251968503937008,
                    "duration": 0.10266193750000241
                },
                {
                    "name": "C5",
                    "midi": 72,
                    "time": 59.90626000000017,
                    "velocity": 0.4409448818897638,
                    "duration": 0.10266193750000241
                },
                {
                    "name": "D5",
                    "midi": 74,
                    "time": 60.00288300000017,
                    "velocity": 0.44881889763779526,
                    "duration": 0.10266193750000241
                },
                {
                    "name": "C5",
                    "midi": 72,
                    "time": 60.09950600000017,
                    "velocity": 0.4251968503937008,
                    "duration": 0.10266193750000241
                },
                {
                    "name": "A#4",
                    "midi": 70,
                    "time": 60.19612900000017,
                    "velocity": 0.4015748031496063,
                    "duration": 0.10266193750000241
                },
                {
                    "name": "D#5",
                    "midi": 75,
                    "time": 60.29275200000017,
                    "velocity": 0.4330708661417323,
                    "duration": 0.28986900000000304
                },
                {
                    "name": "A#4",
                    "midi": 70,
                    "time": 60.96911300000017,
                    "velocity": 0.4251968503937008,
                    "duration": 0.10266193750000241
                },
                {
                    "name": "C5",
                    "midi": 72,
                    "time": 61.06573600000017,
                    "velocity": 0.4409448818897638,
                    "duration": 0.10266193750000241
                },
                {
                    "name": "D5",
                    "midi": 74,
                    "time": 61.16235900000017,
                    "velocity": 0.44881889763779526,
                    "duration": 0.10266193750000241
                },
                {
                    "name": "C5",
                    "midi": 72,
                    "time": 61.258982000000174,
                    "velocity": 0.4251968503937008,
                    "duration": 0.10266193750000241
                },
                {
                    "name": "A#4",
                    "midi": 70,
                    "time": 61.355605000000175,
                    "velocity": 0.4015748031496063,
                    "duration": 0.10266193750000241
                },
                {
                    "name": "D#5",
                    "midi": 75,
                    "time": 61.452228000000176,
                    "velocity": 0.4409448818897638,
                    "duration": 0.09662300000000101
                },
                {
                    "name": "G5",
                    "midi": 79,
                    "time": 61.54885100000018,
                    "velocity": 0.4645669291338583,
                    "duration": 0.09662300000000101
                },
                {
                    "name": "F5",
                    "midi": 77,
                    "time": 61.64547400000018,
                    "velocity": 0.4094488188976378,
                    "duration": 0.09662300000000101
                },
                {
                    "name": "D#5",
                    "midi": 75,
                    "time": 61.74209700000018,
                    "velocity": 0.4645669291338583,
                    "duration": 0.09662300000000101
                },
                {
                    "name": "D5",
                    "midi": 74,
                    "time": 61.83872000000018,
                    "velocity": 0.44881889763779526,
                    "duration": 0.09662300000000101
                },
                {
                    "name": "C5",
                    "midi": 72,
                    "time": 61.93534300000018,
                    "velocity": 0.4566929133858268,
                    "duration": 0.09662300000000101
                },
                {
                    "name": "B4",
                    "midi": 71,
                    "time": 62.03196600000018,
                    "velocity": 0.4251968503937008,
                    "duration": 0.09662300000000101
                },
                {
                    "name": "C5",
                    "midi": 72,
                    "time": 62.12858900000018,
                    "velocity": 0.4251968503937008,
                    "duration": 0.09662300000000101
                },
                {
                    "name": "A#4",
                    "midi": 70,
                    "time": 62.225212000000184,
                    "velocity": 0.41732283464566927,
                    "duration": 0.09662300000000101
                },
                {
                    "name": "G#4",
                    "midi": 68,
                    "time": 62.321835000000185,
                    "velocity": 0.41732283464566927,
                    "duration": 0.09662300000000101
                },
                {
                    "name": "G4",
                    "midi": 67,
                    "time": 62.418458000000186,
                    "velocity": 0.4094488188976378,
                    "duration": 0.09662300000000101
                },
                {
                    "name": "F4",
                    "midi": 65,
                    "time": 62.51508100000019,
                    "velocity": 0.4094488188976378,
                    "duration": 0.09662300000000101
                },
                {
                    "name": "D#4",
                    "midi": 63,
                    "time": 62.61170400000019,
                    "velocity": 0.4330708661417323,
                    "duration": 0.28986900000000304
                },
                {
                    "name": "A#3",
                    "midi": 58,
                    "time": 63.28806500000019,
                    "velocity": 0.4251968503937008,
                    "duration": 0.10266193750000241
                },
                {
                    "name": "C4",
                    "midi": 60,
                    "time": 63.38468800000019,
                    "velocity": 0.4409448818897638,
                    "duration": 0.10266193750000241
                },
                {
                    "name": "D4",
                    "midi": 62,
                    "time": 63.48131100000019,
                    "velocity": 0.44881889763779526,
                    "duration": 0.10266193750000241
                },
                {
                    "name": "C4",
                    "midi": 60,
                    "time": 63.57793400000019,
                    "velocity": 0.4251968503937008,
                    "duration": 0.10266193750000241
                },
                {
                    "name": "A#3",
                    "midi": 58,
                    "time": 63.67455700000019,
                    "velocity": 0.4015748031496063,
                    "duration": 0.10266193750000241
                },
                {
                    "name": "D#4",
                    "midi": 63,
                    "time": 63.77118000000019,
                    "velocity": 0.4330708661417323,
                    "duration": 0.28986900000000304
                },
                {
                    "name": "A#3",
                    "midi": 58,
                    "time": 64.4475410000002,
                    "velocity": 0.4251968503937008,
                    "duration": 0.1026619374999882
                },
                {
                    "name": "C4",
                    "midi": 60,
                    "time": 64.5441640000002,
                    "velocity": 0.4409448818897638,
                    "duration": 0.1026619374999882
                },
                {
                    "name": "D4",
                    "midi": 62,
                    "time": 64.64078700000019,
                    "velocity": 0.44881889763779526,
                    "duration": 0.1026619374999882
                },
                {
                    "name": "C4",
                    "midi": 60,
                    "time": 64.73741000000018,
                    "velocity": 0.4251968503937008,
                    "duration": 0.1026619374999882
                },
                {
                    "name": "A#3",
                    "midi": 58,
                    "time": 64.83403300000018,
                    "velocity": 0.4015748031496063,
                    "duration": 0.1026619374999882
                },
                {
                    "name": "D#4",
                    "midi": 63,
                    "time": 64.93065600000017,
                    "velocity": 0.4330708661417323,
                    "duration": 0.28986899999999594
                },
                {
                    "name": "B3",
                    "midi": 59,
                    "time": 65.60701700000017,
                    "velocity": 0.4251968503937008,
                    "duration": 0.1026619374999882
                },
                {
                    "name": "C4",
                    "midi": 60,
                    "time": 65.70364000000016,
                    "velocity": 0.4409448818897638,
                    "duration": 0.1026619374999882
                },
                {
                    "name": "D4",
                    "midi": 62,
                    "time": 65.80026300000016,
                    "velocity": 0.44881889763779526,
                    "duration": 0.1026619374999882
                },
                {
                    "name": "C4",
                    "midi": 60,
                    "time": 65.89688600000015,
                    "velocity": 0.4251968503937008,
                    "duration": 0.1026619374999882
                },
                {
                    "name": "B3",
                    "midi": 59,
                    "time": 65.99350900000015,
                    "velocity": 0.4015748031496063,
                    "duration": 0.1026619374999882
                },
                {
                    "name": "F4",
                    "midi": 65,
                    "time": 66.09013200000014,
                    "velocity": 0.5039370078740157,
                    "duration": 0.10266193750000241
                },
                {
                    "name": "D#4",
                    "midi": 63,
                    "time": 66.18796278750014,
                    "velocity": 0.4251968503937008,
                    "duration": 0.10266193750000241
                },
                {
                    "name": "D4",
                    "midi": 62,
                    "time": 66.28398189375014,
                    "velocity": 0.4566929133858268,
                    "duration": 0.09662300000000812
                },
                {
                    "name": "G#4",
                    "midi": 68,
                    "time": 66.37577374375014,
                    "velocity": 0.5196850393700787,
                    "duration": 0.10266193750000241
                },
                {
                    "name": "G4",
                    "midi": 67,
                    "time": 66.47783178750015,
                    "velocity": 0.4566929133858268,
                    "duration": 0.10266193750000241
                },
                {
                    "name": "F4",
                    "midi": 65,
                    "time": 66.57385089375015,
                    "velocity": 0.48031496062992124,
                    "duration": 0.09662300000000812
                },
                {
                    "name": "D5",
                    "midi": 74,
                    "time": 66.66987000000016,
                    "velocity": 0.5511811023622047,
                    "duration": 0.10266193750000241
                },
                {
                    "name": "C5",
                    "midi": 72,
                    "time": 66.76588910625016,
                    "velocity": 0.47244094488188976,
                    "duration": 0.10266193750000241
                },
                {
                    "name": "B4",
                    "midi": 71,
                    "time": 66.86371989375016,
                    "velocity": 0.5039370078740157,
                    "duration": 0.09662300000000812
                },
                {
                    "name": "F5",
                    "midi": 77,
                    "time": 66.96336236250016,
                    "velocity": 0.5826771653543307,
                    "duration": 0.10266193750000241
                },
                {
                    "name": "D#5",
                    "midi": 75,
                    "time": 67.05575810625017,
                    "velocity": 0.5039370078740157,
                    "duration": 0.10266193750000241
                },
                {
                    "name": "D5",
                    "midi": 74,
                    "time": 67.15358889375017,
                    "velocity": 0.5354330708661418,
                    "duration": 0.09662299999999391
                },
                {
                    "name": "F6",
                    "midi": 89,
                    "time": 67.24960800000017,
                    "velocity": 0.7874015748031497,
                    "duration": 0.869607000000002
                },
                {
                    "name": "D#6",
                    "midi": 87,
                    "time": 68.11921500000017,
                    "velocity": 0.6771653543307087,
                    "duration": 0.09662299999999391
                },
                {
                    "name": "D6",
                    "midi": 86,
                    "time": 68.21583800000016,
                    "velocity": 0.6692913385826772,
                    "duration": 0.09662299999999391
                },
                {
                    "name": "C6",
                    "midi": 84,
                    "time": 68.31246100000016,
                    "velocity": 0.6535433070866141,
                    "duration": 0.09662299999999391
                },
                {
                    "name": "B5",
                    "midi": 83,
                    "time": 68.40908400000015,
                    "velocity": 0.6456692913385826,
                    "duration": 0.09662299999999391
                },
                {
                    "name": "G#5",
                    "midi": 80,
                    "time": 68.50570700000014,
                    "velocity": 0.6377952755905512,
                    "duration": 0.09662299999999391
                },
                {
                    "name": "G5",
                    "midi": 79,
                    "time": 68.60233000000014,
                    "velocity": 0.6220472440944882,
                    "duration": 0.09662299999999391
                },
                {
                    "name": "F5",
                    "midi": 77,
                    "time": 68.69895300000013,
                    "velocity": 0.6141732283464567,
                    "duration": 0.09662299999999391
                },
                {
                    "name": "D#5",
                    "midi": 75,
                    "time": 68.79557600000012,
                    "velocity": 0.6062992125984252,
                    "duration": 0.09662299999999391
                },
                {
                    "name": "D5",
                    "midi": 74,
                    "time": 68.89219900000012,
                    "velocity": 0.5905511811023622,
                    "duration": 0.09662299999999391
                },
                {
                    "name": "C5",
                    "midi": 72,
                    "time": 68.98882200000011,
                    "velocity": 0.5826771653543307,
                    "duration": 0.09662299999999391
                },
                {
                    "name": "B4",
                    "midi": 71,
                    "time": 69.0854450000001,
                    "velocity": 0.5669291338582677,
                    "duration": 0.09662299999999391
                },
                {
                    "name": "G#4",
                    "midi": 68,
                    "time": 69.1820680000001,
                    "velocity": 0.5590551181102362,
                    "duration": 0.09662299999999391
                },
                {
                    "name": "G4",
                    "midi": 67,
                    "time": 69.2786910000001,
                    "velocity": 0.5511811023622047,
                    "duration": 0.05797379999999919
                },
                {
                    "name": "F4",
                    "midi": 65,
                    "time": 69.3366648000001,
                    "velocity": 0.5354330708661418,
                    "duration": 0.05797379999999919
                },
                {
                    "name": "D#4",
                    "midi": 63,
                    "time": 69.39463860000009,
                    "velocity": 0.5433070866141733,
                    "duration": 0.05797379999999919
                },
                {
                    "name": "D4",
                    "midi": 62,
                    "time": 69.45261240000009,
                    "velocity": 0.5511811023622047,
                    "duration": 0.05797379999999919
                },
                {
                    "name": "C4",
                    "midi": 60,
                    "time": 69.51058620000009,
                    "velocity": 0.5590551181102362,
                    "duration": 0.05797379999999919
                },
                {
                    "name": "B3",
                    "midi": 59,
                    "time": 69.56856000000009,
                    "velocity": 0.7322834645669292,
                    "duration": 1.739214000000004
                },
                {
                    "name": "G4",
                    "midi": 67,
                    "time": 71.4527085000001,
                    "velocity": 0.3779527559055118,
                    "duration": 0.07246725000000254
                },
                {
                    "name": "C5",
                    "midi": 72,
                    "time": 71.5976430000001,
                    "velocity": 0.3858267716535433,
                    "duration": 0.07246725000000254
                },
                {
                    "name": "D5",
                    "midi": 74,
                    "time": 71.74257750000011,
                    "velocity": 0.4015748031496063,
                    "duration": 0.07246725000000254
                },
                {
                    "name": "D#5",
                    "midi": 75,
                    "time": 71.88751200000011,
                    "velocity": 0.4094488188976378,
                    "duration": 0.434803500000001
                },
                {
                    "name": "F5",
                    "midi": 77,
                    "time": 72.32231550000012,
                    "velocity": 0.3937007874015748,
                    "duration": 0.14493450000000507
                },
                {
                    "name": "D5",
                    "midi": 74,
                    "time": 72.46725000000012,
                    "velocity": 0.41732283464566927,
                    "duration": 0.434803500000001
                },
                {
                    "name": "D#5",
                    "midi": 75,
                    "time": 72.90205350000012,
                    "velocity": 0.3937007874015748,
                    "duration": 0.14493450000000507
                },
                {
                    "name": "C5",
                    "midi": 72,
                    "time": 73.04698800000013,
                    "velocity": 0.4094488188976378,
                    "duration": 0.5435043749999977
                },
                {
                    "name": "D5",
                    "midi": 74,
                    "time": 73.59049237500012,
                    "velocity": 0.3779527559055118,
                    "duration": 0.03623362499999416
                },
                {
                    "name": "C5",
                    "midi": 72,
                    "time": 73.62672600000012,
                    "velocity": 0.4094488188976378,
                    "duration": 0.14493450000000507
                },
                {
                    "name": "B4",
                    "midi": 71,
                    "time": 73.77166050000012,
                    "velocity": 0.4015748031496063,
                    "duration": 0.14493450000000507
                },
                {
                    "name": "C5",
                    "midi": 72,
                    "time": 73.91659500000013,
                    "velocity": 0.4015748031496063,
                    "duration": 0.14493450000000507
                },
                {
                    "name": "D5",
                    "midi": 74,
                    "time": 74.06152950000013,
                    "velocity": 0.3937007874015748,
                    "duration": 0.1087008749999967
                },
                {
                    "name": "F5",
                    "midi": 77,
                    "time": 74.17023037500013,
                    "velocity": 0.3858267716535433,
                    "duration": 0.03623362499999416
                },
                {
                    "name": "D#5",
                    "midi": 75,
                    "time": 74.20646400000012,
                    "velocity": 0.4409448818897638,
                    "duration": 0.14493450000000507
                },
                {
                    "name": "D5",
                    "midi": 74,
                    "time": 74.35139850000013,
                    "velocity": 0.4094488188976378,
                    "duration": 0.14493450000000507
                },
                {
                    "name": "D#5",
                    "midi": 75,
                    "time": 74.49633300000013,
                    "velocity": 0.4094488188976378,
                    "duration": 0.14493450000000507
                },
                {
                    "name": "F5",
                    "midi": 77,
                    "time": 74.64126750000014,
                    "velocity": 0.4094488188976378,
                    "duration": 0.14493450000000507
                },
                {
                    "name": "G5",
                    "midi": 79,
                    "time": 74.78620200000015,
                    "velocity": 0.4409448818897638,
                    "duration": 0.14493450000000507
                },
                {
                    "name": "G5",
                    "midi": 79,
                    "time": 75.07607100000016,
                    "velocity": 0.4330708661417323,
                    "duration": 0.14493450000000507
                },
                {
                    "name": "G5",
                    "midi": 79,
                    "time": 75.36594000000017,
                    "velocity": 0.44881889763779526,
                    "duration": 0.869607000000002
                },
                {
                    "name": "F5",
                    "midi": 77,
                    "time": 76.23554700000017,
                    "velocity": 0.4015748031496063,
                    "duration": 0.14493450000000507
                },
                {
                    "name": "G5",
                    "midi": 79,
                    "time": 76.38048150000017,
                    "velocity": 0.41732283464566927,
                    "duration": 0.07246725000000254
                },
                {
                    "name": "F5",
                    "midi": 77,
                    "time": 76.45294875000017,
                    "velocity": 0.3779527559055118,
                    "duration": 0.03623362499999416
                },
                {
                    "name": "G5",
                    "midi": 79,
                    "time": 76.48918237500017,
                    "velocity": 0.3779527559055118,
                    "duration": 0.03623362499999416
                },
                {
                    "name": "G#5",
                    "midi": 80,
                    "time": 76.52541600000016,
                    "velocity": 0.4409448818897638,
                    "duration": 0.5797380000000061
                },
                {
                    "name": "D5",
                    "midi": 74,
                    "time": 77.10515400000017,
                    "velocity": 0.4094488188976378,
                    "duration": 0.28986899999999594
                },
                {
                    "name": "D#5",
                    "midi": 75,
                    "time": 77.39502300000017,
                    "velocity": 0.4015748031496063,
                    "duration": 0.14493450000000507
                },
                {
                    "name": "F5",
                    "midi": 77,
                    "time": 77.53995750000017,
                    "velocity": 0.41732283464566927,
                    "duration": 0.07246725000000254
                },
                {
                    "name": "D#5",
                    "midi": 75,
                    "time": 77.61242475000017,
                    "velocity": 0.3937007874015748,
                    "duration": 0.03623362499999416
                },
                {
                    "name": "F5",
                    "midi": 77,
                    "time": 77.64865837500017,
                    "velocity": 0.3937007874015748,
                    "duration": 0.03623362499999416
                },
                {
                    "name": "G5",
                    "midi": 79,
                    "time": 77.68489200000016,
                    "velocity": 0.4409448818897638,
                    "duration": 0.5797380000000061
                },
                {
                    "name": "C5",
                    "midi": 72,
                    "time": 78.26463000000017,
                    "velocity": 0.4094488188976378,
                    "duration": 0.28383006250000165
                },
                {
                    "name": "C5",
                    "midi": 72,
                    "time": 78.55449900000016,
                    "velocity": 0.41732283464566927,
                    "duration": 0.14493450000000507
                },
                {
                    "name": "D5",
                    "midi": 74,
                    "time": 78.69943350000017,
                    "velocity": 0.4251968503937008,
                    "duration": 0.14493450000000507
                },
                {
                    "name": "D#5",
                    "midi": 75,
                    "time": 78.84436800000017,
                    "velocity": 0.44881889763779526,
                    "duration": 0.14493450000000507
                },
                {
                    "name": "D#5",
                    "midi": 75,
                    "time": 79.13423700000018,
                    "velocity": 0.41732283464566927,
                    "duration": 0.14493450000000507
                },
                {
                    "name": "F5",
                    "midi": 77,
                    "time": 79.27917150000019,
                    "velocity": 0.4330708661417323,
                    "duration": 0.14493450000000507
                },
                {
                    "name": "D5",
                    "midi": 74,
                    "time": 79.4241060000002,
                    "velocity": 0.44881889763779526,
                    "duration": 0.14493450000000507
                },
                {
                    "name": "D5",
                    "midi": 74,
                    "time": 79.7139750000002,
                    "velocity": 0.4015748031496063,
                    "duration": 0.14493450000000507
                },
                {
                    "name": "D#5",
                    "midi": 75,
                    "time": 79.85890950000021,
                    "velocity": 0.4251968503937008,
                    "duration": 0.14493450000000507
                },
                {
                    "name": "C5",
                    "midi": 72,
                    "time": 80.00384400000021,
                    "velocity": 0.44881889763779526,
                    "duration": 0.28986899999999594
                },
                {
                    "name": "F5",
                    "midi": 77,
                    "time": 80.87345100000022,
                    "velocity": 0.4409448818897638,
                    "duration": 0.14493450000000507
                },
                {
                    "name": "G5",
                    "midi": 79,
                    "time": 81.01838550000022,
                    "velocity": 0.4566929133858268,
                    "duration": 0.14493450000000507
                },
                {
                    "name": "G#4",
                    "midi": 68,
                    "time": 81.16332000000023,
                    "velocity": 0.4015748031496063,
                    "duration": 0.5797380000000061
                },
                {
                    "name": "G#5",
                    "midi": 80,
                    "time": 81.16332000000023,
                    "velocity": 0.48031496062992124,
                    "duration": 0.5797380000000061
                },
                {
                    "name": "D5",
                    "midi": 74,
                    "time": 81.74305800000023,
                    "velocity": 0.44881889763779526,
                    "duration": 0.28986899999999594
                },
                {
                    "name": "D#5",
                    "midi": 75,
                    "time": 82.03292700000023,
                    "velocity": 0.4409448818897638,
                    "duration": 0.14493450000000507
                },
                {
                    "name": "F5",
                    "midi": 77,
                    "time": 82.17786150000023,
                    "velocity": 0.4566929133858268,
                    "duration": 0.14493450000000507
                },
                {
                    "name": "G4",
                    "midi": 67,
                    "time": 82.32279600000024,
                    "velocity": 0.4015748031496063,
                    "duration": 0.5797380000000061
                },
                {
                    "name": "G5",
                    "midi": 79,
                    "time": 82.32279600000024,
                    "velocity": 0.48031496062992124,
                    "duration": 0.5797380000000061
                },
                {
                    "name": "C5",
                    "midi": 72,
                    "time": 82.90253400000024,
                    "velocity": 0.44881889763779526,
                    "duration": 0.28383006250000165
                },
                {
                    "name": "C5",
                    "midi": 72,
                    "time": 83.19240300000024,
                    "velocity": 0.4566929133858268,
                    "duration": 0.14493450000000507
                },
                {
                    "name": "D5",
                    "midi": 74,
                    "time": 83.33733750000025,
                    "velocity": 0.4645669291338583,
                    "duration": 0.14493450000000507
                },
                {
                    "name": "D#5",
                    "midi": 75,
                    "time": 83.48227200000025,
                    "velocity": 0.4881889763779528,
                    "duration": 0.14493450000000507
                },
                {
                    "name": "D#5",
                    "midi": 75,
                    "time": 83.77214100000026,
                    "velocity": 0.4566929133858268,
                    "duration": 0.14493450000000507
                },
                {
                    "name": "F5",
                    "midi": 77,
                    "time": 83.91707550000027,
                    "velocity": 0.47244094488188976,
                    "duration": 0.14493450000000507
                },
                {
                    "name": "D5",
                    "midi": 74,
                    "time": 84.06201000000027,
                    "velocity": 0.4881889763779528,
                    "duration": 0.14493450000000507
                },
                {
                    "name": "D5",
                    "midi": 74,
                    "time": 84.35187900000028,
                    "velocity": 0.4409448818897638,
                    "duration": 0.14493450000000507
                },
                {
                    "name": "D#5",
                    "midi": 75,
                    "time": 84.49681350000029,
                    "velocity": 0.4645669291338583,
                    "duration": 0.14493450000000507
                },
                {
                    "name": "C5",
                    "midi": 72,
                    "time": 84.64174800000029,
                    "velocity": 0.4881889763779528,
                    "duration": 0.14493450000000507
                },
                {
                    "name": "A#5",
                    "midi": 82,
                    "time": 84.9316170000003,
                    "velocity": 0.5826771653543307,
                    "duration": 0.5797380000000061
                },
                {
                    "name": "A#5",
                    "midi": 82,
                    "time": 85.51135500000031,
                    "velocity": 0.5748031496062992,
                    "duration": 0.434803500000001
                },
                {
                    "name": "G#5",
                    "midi": 80,
                    "time": 85.94615850000031,
                    "velocity": 0.5590551181102362,
                    "duration": 0.14493450000000507
                },
                {
                    "name": "G5",
                    "midi": 79,
                    "time": 86.09109300000031,
                    "velocity": 0.5669291338582677,
                    "duration": 0.14493450000000507
                },
                {
                    "name": "F5",
                    "midi": 77,
                    "time": 86.23602750000032,
                    "velocity": 0.5669291338582677,
                    "duration": 0.14493450000000507
                },
                {
                    "name": "D#5",
                    "midi": 75,
                    "time": 86.38096200000032,
                    "velocity": 0.5590551181102362,
                    "duration": 0.14493450000000507
                },
                {
                    "name": "D5",
                    "midi": 74,
                    "time": 86.52589650000033,
                    "velocity": 0.5590551181102362,
                    "duration": 0.14493450000000507
                },
                {
                    "name": "C5",
                    "midi": 72,
                    "time": 86.67083100000033,
                    "velocity": 0.5590551181102362,
                    "duration": 0.14493450000000507
                },
                {
                    "name": "B4",
                    "midi": 71,
                    "time": 86.81576550000034,
                    "velocity": 0.5590551181102362,
                    "duration": 0.14493450000000507
                },
                {
                    "name": "C5",
                    "midi": 72,
                    "time": 86.96070000000034,
                    "velocity": 0.5748031496062992,
                    "duration": 0.14493450000000507
                },
                {
                    "name": "C5",
                    "midi": 72,
                    "time": 87.25056900000035,
                    "velocity": 0.5275590551181102,
                    "duration": 0.5797380000000061
                },
                {
                    "name": "C6",
                    "midi": 84,
                    "time": 87.25056900000035,
                    "velocity": 0.6220472440944882,
                    "duration": 0.5797380000000061
                },
                {
                    "name": "A#5",
                    "midi": 82,
                    "time": 87.83030700000036,
                    "velocity": 0.6299212598425197,
                    "duration": 0.434803500000001
                },
                {
                    "name": "G#5",
                    "midi": 80,
                    "time": 88.26511050000036,
                    "velocity": 0.6377952755905512,
                    "duration": 0.14493450000000507
                },
                {
                    "name": "G5",
                    "midi": 79,
                    "time": 88.41004500000037,
                    "velocity": 0.6456692913385826,
                    "duration": 0.14493450000000507
                },
                {
                    "name": "F5",
                    "midi": 77,
                    "time": 88.55497950000037,
                    "velocity": 0.6377952755905512,
                    "duration": 0.14493450000000507
                },
                {
                    "name": "D#5",
                    "midi": 75,
                    "time": 88.69991400000038,
                    "velocity": 0.6220472440944882,
                    "duration": 0.14493450000000507
                },
                {
                    "name": "D5",
                    "midi": 74,
                    "time": 88.84484850000038,
                    "velocity": 0.6220472440944882,
                    "duration": 0.14493450000000507
                },
                {
                    "name": "C5",
                    "midi": 72,
                    "time": 88.98978300000039,
                    "velocity": 0.6220472440944882,
                    "duration": 0.14493450000000507
                },
                {
                    "name": "B4",
                    "midi": 71,
                    "time": 89.13471750000039,
                    "velocity": 0.6141732283464567,
                    "duration": 0.14493450000000507
                },
                {
                    "name": "C5",
                    "midi": 72,
                    "time": 89.2796520000004,
                    "velocity": 0.7007874015748031,
                    "duration": 0.14493450000000507
                },
                {
                    "name": "D5",
                    "midi": 74,
                    "time": 89.5695210000004,
                    "velocity": 0.6377952755905512,
                    "duration": 0.048311499999996954
                },
                {
                    "name": "D#5",
                    "midi": 75,
                    "time": 89.6178325000004,
                    "velocity": 0.6377952755905512,
                    "duration": 0.048311499999996954
                },
                {
                    "name": "D5",
                    "midi": 74,
                    "time": 89.6661440000004,
                    "velocity": 0.6377952755905512,
                    "duration": 0.048311499999996954
                },
                {
                    "name": "D#5",
                    "midi": 75,
                    "time": 89.7144555000004,
                    "velocity": 0.6377952755905512,
                    "duration": 0.03623362499999416
                },
                {
                    "name": "D5",
                    "midi": 74,
                    "time": 89.75068912500039,
                    "velocity": 0.6377952755905512,
                    "duration": 0.03623362499999416
                },
                {
                    "name": "C5",
                    "midi": 72,
                    "time": 89.78692275000039,
                    "velocity": 0.6299212598425197,
                    "duration": 0.03623362499999416
                },
                {
                    "name": "D5",
                    "midi": 74,
                    "time": 89.82315637500038,
                    "velocity": 0.6299212598425197,
                    "duration": 0.03623362499999416
                },
                {
                    "name": "D#5",
                    "midi": 75,
                    "time": 89.85939000000037,
                    "velocity": 0.7244094488188977,
                    "duration": 0.14493450000000507
                },
                {
                    "name": "B4",
                    "midi": 71,
                    "time": 90.14925900000038,
                    "velocity": 0.7244094488188977,
                    "duration": 0.14493450000000507
                },
                {
                    "name": "D5",
                    "midi": 74,
                    "time": 90.14925900000038,
                    "velocity": 0.7244094488188977,
                    "duration": 0.14493450000000507
                },
                {
                    "name": "B5",
                    "midi": 83,
                    "time": 90.14925900000038,
                    "velocity": 0.7244094488188977,
                    "duration": 0.14493450000000507
                },
                {
                    "name": "C5",
                    "midi": 72,
                    "time": 90.4391280000004,
                    "velocity": 0.7244094488188977,
                    "duration": 0.14493450000000507
                },
                {
                    "name": "D#5",
                    "midi": 75,
                    "time": 90.4391280000004,
                    "velocity": 0.7244094488188977,
                    "duration": 0.14493450000000507
                },
                {
                    "name": "C6",
                    "midi": 84,
                    "time": 90.4391280000004,
                    "velocity": 0.7244094488188977,
                    "duration": 0.14493450000000507
                },
                {
                    "name": "C4",
                    "midi": 60,
                    "time": 91.59860400000039,
                    "velocity": 0.41732283464566927,
                    "duration": 0.5797380000000061
                },
                {
                    "name": "F4",
                    "midi": 65,
                    "time": 92.1783420000004,
                    "velocity": 0.3779527559055118,
                    "duration": 0.5797380000000061
                },
                {
                    "name": "A#3",
                    "midi": 58,
                    "time": 92.7580800000004,
                    "velocity": 0.4015748031496063,
                    "duration": 0.5797380000000061
                },
                {
                    "name": "D#4",
                    "midi": 63,
                    "time": 93.33781800000041,
                    "velocity": 0.3779527559055118,
                    "duration": 0.5797380000000061
                },
                {
                    "name": "G#3",
                    "midi": 56,
                    "time": 93.91755600000042,
                    "velocity": 0.4094488188976378,
                    "duration": 0.5797380000000061
                },
                {
                    "name": "C#4",
                    "midi": 61,
                    "time": 94.49729400000042,
                    "velocity": 0.3779527559055118,
                    "duration": 0.28986899999999594
                },
                {
                    "name": "C4",
                    "midi": 60,
                    "time": 94.78716300000042,
                    "velocity": 0.3779527559055118,
                    "duration": 0.28986899999999594
                },
                {
                    "name": "A#3",
                    "midi": 58,
                    "time": 95.07703200000041,
                    "velocity": 0.41732283464566927,
                    "duration": 0.28986899999999594
                },
                {
                    "name": "G#3",
                    "midi": 56,
                    "time": 95.36690100000041,
                    "velocity": 0.3779527559055118,
                    "duration": 0.28986899999999594
                },
                {
                    "name": "G3",
                    "midi": 55,
                    "time": 95.6567700000004,
                    "velocity": 0.3779527559055118,
                    "duration": 0.28986899999999594
                },
                {
                    "name": "C5",
                    "midi": 72,
                    "time": 96.52637700000041,
                    "velocity": 0.4330708661417323,
                    "duration": 0.5797380000000061
                },
                {
                    "name": "F4",
                    "midi": 65,
                    "time": 97.10611500000041,
                    "velocity": 0.41732283464566927,
                    "duration": 0.5797380000000061
                },
                {
                    "name": "A#4",
                    "midi": 70,
                    "time": 97.68585300000042,
                    "velocity": 0.4409448818897638,
                    "duration": 0.5797380000000061
                },
                {
                    "name": "D#4",
                    "midi": 63,
                    "time": 98.26559100000043,
                    "velocity": 0.41732283464566927,
                    "duration": 0.5797380000000061
                },
                {
                    "name": "G#4",
                    "midi": 68,
                    "time": 98.84532900000043,
                    "velocity": 0.41732283464566927,
                    "duration": 0.28986899999999594
                },
                {
                    "name": "G4",
                    "midi": 67,
                    "time": 99.13519800000043,
                    "velocity": 0.4015748031496063,
                    "duration": 0.28986899999999594
                },
                {
                    "name": "F4",
                    "midi": 65,
                    "time": 99.42506700000042,
                    "velocity": 0.4015748031496063,
                    "duration": 0.28986899999999594
                },
                {
                    "name": "D#4",
                    "midi": 63,
                    "time": 99.71493600000042,
                    "velocity": 0.41732283464566927,
                    "duration": 0.28986899999999594
                },
                {
                    "name": "D4",
                    "midi": 62,
                    "time": 100.00480500000042,
                    "velocity": 0.3858267716535433,
                    "duration": 0.28986899999999594
                },
                {
                    "name": "F4",
                    "midi": 65,
                    "time": 100.29467400000041,
                    "velocity": 0.41732283464566927,
                    "duration": 0.28986899999999594
                },
                {
                    "name": "D#4",
                    "midi": 63,
                    "time": 100.58454300000041,
                    "velocity": 0.3858267716535433,
                    "duration": 0.28986899999999594
                },
                {
                    "name": "C5",
                    "midi": 72,
                    "time": 100.8744120000004,
                    "velocity": 0.44881889763779526,
                    "duration": 0.5797380000000061
                },
                {
                    "name": "F4",
                    "midi": 65,
                    "time": 101.45415000000041,
                    "velocity": 0.31496062992125984,
                    "duration": 0.5797380000000061
                },
                {
                    "name": "F5",
                    "midi": 77,
                    "time": 101.45415000000041,
                    "velocity": 0.3779527559055118,
                    "duration": 0.5797380000000061
                },
                {
                    "name": "A#4",
                    "midi": 70,
                    "time": 102.03388800000042,
                    "velocity": 0.44881889763779526,
                    "duration": 0.5797380000000061
                },
                {
                    "name": "D#4",
                    "midi": 63,
                    "time": 102.61362600000042,
                    "velocity": 0.31496062992125984,
                    "duration": 0.869607000000002
                },
                {
                    "name": "D#5",
                    "midi": 75,
                    "time": 102.61362600000042,
                    "velocity": 0.3779527559055118,
                    "duration": 0.5797380000000061
                },
                {
                    "name": "G#4",
                    "midi": 68,
                    "time": 103.19336400000043,
                    "velocity": 0.4094488188976378,
                    "duration": 0.5797379999999919
                },
                {
                    "name": "C4",
                    "midi": 60,
                    "time": 103.48323300000042,
                    "velocity": 0.3779527559055118,
                    "duration": 0.28986899999999594
                },
                {
                    "name": "F4",
                    "midi": 65,
                    "time": 103.77310200000042,
                    "velocity": 0.3543307086614173,
                    "duration": 0.28986899999999594
                },
                {
                    "name": "C#5",
                    "midi": 73,
                    "time": 103.77310200000042,
                    "velocity": 0.41732283464566927,
                    "duration": 0.28986899999999594
                },
                {
                    "name": "D#4",
                    "midi": 63,
                    "time": 104.06297100000042,
                    "velocity": 0.31496062992125984,
                    "duration": 0.28986899999999594
                },
                {
                    "name": "C5",
                    "midi": 72,
                    "time": 104.06297100000042,
                    "velocity": 0.3779527559055118,
                    "duration": 0.28986899999999594
                },
                {
                    "name": "C#4",
                    "midi": 61,
                    "time": 104.35284000000041,
                    "velocity": 0.31496062992125984,
                    "duration": 0.28986899999999594
                },
                {
                    "name": "A#4",
                    "midi": 70,
                    "time": 104.35284000000041,
                    "velocity": 0.41732283464566927,
                    "duration": 0.28986899999999594
                },
                {
                    "name": "C4",
                    "midi": 60,
                    "time": 104.64270900000041,
                    "velocity": 0.31496062992125984,
                    "duration": 0.28986899999999594
                },
                {
                    "name": "G#4",
                    "midi": 68,
                    "time": 104.64270900000041,
                    "velocity": 0.3779527559055118,
                    "duration": 0.28986899999999594
                },
                {
                    "name": "A#3",
                    "midi": 58,
                    "time": 104.9325780000004,
                    "velocity": 0.31496062992125984,
                    "duration": 0.28986899999999594
                },
                {
                    "name": "G4",
                    "midi": 67,
                    "time": 104.9325780000004,
                    "velocity": 0.3779527559055118,
                    "duration": 0.28986899999999594
                },
                {
                    "name": "D#4",
                    "midi": 63,
                    "time": 105.2224470000004,
                    "velocity": 0.3779527559055118,
                    "duration": 0.28986899999999594
                },
                {
                    "name": "C5",
                    "midi": 72,
                    "time": 105.80218500000039,
                    "velocity": 0.36220472440944884,
                    "duration": 0.5797380000000061
                },
                {
                    "name": "C6",
                    "midi": 84,
                    "time": 105.80218500000039,
                    "velocity": 0.4330708661417323,
                    "duration": 0.5797380000000061
                },
                {
                    "name": "F5",
                    "midi": 77,
                    "time": 106.3819230000004,
                    "velocity": 0.4330708661417323,
                    "duration": 0.5797380000000061
                },
                {
                    "name": "A#4",
                    "midi": 70,
                    "time": 106.9616610000004,
                    "velocity": 0.4015748031496063,
                    "duration": 0.5797380000000061
                },
                {
                    "name": "A#5",
                    "midi": 82,
                    "time": 106.9616610000004,
                    "velocity": 0.48031496062992124,
                    "duration": 0.5797380000000061
                },
                {
                    "name": "D#5",
                    "midi": 75,
                    "time": 107.54139900000041,
                    "velocity": 0.4645669291338583,
                    "duration": 0.5797379999999919
                },
                {
                    "name": "C5",
                    "midi": 72,
                    "time": 107.8312680000004,
                    "velocity": 0.4015748031496063,
                    "duration": 0.5797379999999919
                },
                {
                    "name": "G#5",
                    "midi": 80,
                    "time": 108.1211370000004,
                    "velocity": 0.48031496062992124,
                    "duration": 0.28986899999999594
                },
                {
                    "name": "A#4",
                    "midi": 70,
                    "time": 108.4110060000004,
                    "velocity": 0.3937007874015748,
                    "duration": 0.28986899999999594
                },
                {
                    "name": "G5",
                    "midi": 79,
                    "time": 108.4110060000004,
                    "velocity": 0.47244094488188976,
                    "duration": 0.28986899999999594
                },
                {
                    "name": "G#4",
                    "midi": 68,
                    "time": 108.7008750000004,
                    "velocity": 0.4015748031496063,
                    "duration": 0.28986899999999594
                },
                {
                    "name": "F5",
                    "midi": 77,
                    "time": 108.7008750000004,
                    "velocity": 0.48031496062992124,
                    "duration": 0.28986899999999594
                },
                {
                    "name": "G4",
                    "midi": 67,
                    "time": 108.99074400000039,
                    "velocity": 0.4251968503937008,
                    "duration": 0.28986899999999594
                },
                {
                    "name": "D#5",
                    "midi": 75,
                    "time": 108.99074400000039,
                    "velocity": 0.5039370078740157,
                    "duration": 0.28986899999999594
                },
                {
                    "name": "F4",
                    "midi": 65,
                    "time": 109.28061300000039,
                    "velocity": 0.3937007874015748,
                    "duration": 0.28986899999999594
                },
                {
                    "name": "D5",
                    "midi": 74,
                    "time": 109.28061300000039,
                    "velocity": 0.47244094488188976,
                    "duration": 0.28986899999999594
                },
                {
                    "name": "G#4",
                    "midi": 68,
                    "time": 109.57048200000038,
                    "velocity": 0.4409448818897638,
                    "duration": 0.28986899999999594
                },
                {
                    "name": "F5",
                    "midi": 77,
                    "time": 109.57048200000038,
                    "velocity": 0.5196850393700787,
                    "duration": 0.28986899999999594
                },
                {
                    "name": "G4",
                    "midi": 67,
                    "time": 109.86035100000038,
                    "velocity": 0.4094488188976378,
                    "duration": 0.28986899999999594
                },
                {
                    "name": "D#5",
                    "midi": 75,
                    "time": 109.86035100000038,
                    "velocity": 0.4881889763779528,
                    "duration": 0.28986899999999594
                },
                {
                    "name": "D#5",
                    "midi": 75,
                    "time": 111.01982700000038,
                    "velocity": 0.5118110236220472,
                    "duration": 0.28986899999999594
                },
                {
                    "name": "C5",
                    "midi": 72,
                    "time": 111.30969600000037,
                    "velocity": 0.5354330708661418,
                    "duration": 0.28986899999999594
                },
                {
                    "name": "C#5",
                    "midi": 73,
                    "time": 111.59956500000037,
                    "velocity": 0.5118110236220472,
                    "duration": 0.28986899999999594
                },
                {
                    "name": "F5",
                    "midi": 77,
                    "time": 111.88943400000036,
                    "velocity": 0.5275590551181102,
                    "duration": 0.28986899999999594
                },
                {
                    "name": "G4",
                    "midi": 67,
                    "time": 112.17930300000036,
                    "velocity": 0.49606299212598426,
                    "duration": 0.28986899999999594
                },
                {
                    "name": "A#4",
                    "midi": 70,
                    "time": 112.46917200000036,
                    "velocity": 0.5354330708661418,
                    "duration": 0.28986899999999594
                },
                {
                    "name": "G#4",
                    "midi": 68,
                    "time": 112.75904100000035,
                    "velocity": 0.5118110236220472,
                    "duration": 0.28986899999999594
                },
                {
                    "name": "C5",
                    "midi": 72,
                    "time": 113.04891000000035,
                    "velocity": 0.5275590551181102,
                    "duration": 0.28986899999999594
                },
                {
                    "name": "D4",
                    "midi": 62,
                    "time": 113.33877900000034,
                    "velocity": 0.5118110236220472,
                    "duration": 0.28986899999999594
                },
                {
                    "name": "D#4",
                    "midi": 63,
                    "time": 113.62864800000034,
                    "velocity": 0.5118110236220472,
                    "duration": 0.14493450000000507
                },
                {
                    "name": "A#5",
                    "midi": 82,
                    "time": 113.91851700000035,
                    "velocity": 0.48031496062992124,
                    "duration": 0.28986899999999594
                },
                {
                    "name": "D#6",
                    "midi": 87,
                    "time": 114.20838600000035,
                    "velocity": 0.5196850393700787,
                    "duration": 0.28986899999999594
                },
                {
                    "name": "C#6",
                    "midi": 85,
                    "time": 114.49825500000034,
                    "velocity": 0.4881889763779528,
                    "duration": 0.28986899999999594
                },
                {
                    "name": "C6",
                    "midi": 84,
                    "time": 114.78812400000034,
                    "velocity": 0.5433070866141733,
                    "duration": 0.5797380000000061
                },
                {
                    "name": "F6",
                    "midi": 89,
                    "time": 115.36786200000034,
                    "velocity": 0.5511811023622047,
                    "duration": 0.5797380000000061
                },
                {
                    "name": "A#5",
                    "midi": 82,
                    "time": 115.94760000000035,
                    "velocity": 0.5511811023622047,
                    "duration": 0.5797380000000061
                },
                {
                    "name": "D#6",
                    "midi": 87,
                    "time": 116.52733800000036,
                    "velocity": 0.5275590551181102,
                    "duration": 0.5797380000000061
                },
                {
                    "name": "G#5",
                    "midi": 80,
                    "time": 117.10707600000036,
                    "velocity": 0.5511811023622047,
                    "duration": 0.5797380000000061
                },
                {
                    "name": "C#5",
                    "midi": 73,
                    "time": 117.68681400000037,
                    "velocity": 0.5669291338582677,
                    "duration": 0.14493450000000507
                },
                {
                    "name": "C#6",
                    "midi": 85,
                    "time": 117.68681400000037,
                    "velocity": 0.5669291338582677,
                    "duration": 0.14493450000000507
                },
                {
                    "name": "C6",
                    "midi": 84,
                    "time": 117.97668300000038,
                    "velocity": 0.5748031496062992,
                    "duration": 0.14493450000000507
                },
                {
                    "name": "C5",
                    "midi": 72,
                    "time": 117.97668300000038,
                    "velocity": 0.5748031496062992,
                    "duration": 0.14493450000000507
                },
                {
                    "name": "A#4",
                    "midi": 70,
                    "time": 118.26655200000039,
                    "velocity": 0.5905511811023622,
                    "duration": 0.14493450000000507
                },
                {
                    "name": "A#5",
                    "midi": 82,
                    "time": 118.26655200000039,
                    "velocity": 0.5905511811023622,
                    "duration": 0.14493450000000507
                },
                {
                    "name": "G#5",
                    "midi": 80,
                    "time": 118.5564210000004,
                    "velocity": 0.6062992125984252,
                    "duration": 0.14493450000000507
                },
                {
                    "name": "G#4",
                    "midi": 68,
                    "time": 118.5564210000004,
                    "velocity": 0.6062992125984252,
                    "duration": 0.14493450000000507
                },
                {
                    "name": "G4",
                    "midi": 67,
                    "time": 118.84629000000041,
                    "velocity": 0.6220472440944882,
                    "duration": 0.14493450000000507
                },
                {
                    "name": "G5",
                    "midi": 79,
                    "time": 118.84629000000041,
                    "velocity": 0.6220472440944882,
                    "duration": 0.14493450000000507
                },
                {
                    "name": "C#5",
                    "midi": 73,
                    "time": 119.13615900000042,
                    "velocity": 0.6299212598425197,
                    "duration": 0.14493450000000507
                },
                {
                    "name": "C6",
                    "midi": 84,
                    "time": 119.42602800000043,
                    "velocity": 0.6299212598425197,
                    "duration": 0.14493450000000507
                },
                {
                    "name": "A#5",
                    "midi": 82,
                    "time": 119.57096250000043,
                    "velocity": 0.6220472440944882,
                    "duration": 0.14493450000000507
                },
                {
                    "name": "G#5",
                    "midi": 80,
                    "time": 119.71589700000044,
                    "velocity": 0.6220472440944882,
                    "duration": 0.14493450000000507
                },
                {
                    "name": "G5",
                    "midi": 79,
                    "time": 119.86083150000044,
                    "velocity": 0.6141732283464567,
                    "duration": 0.14493450000000507
                },
                {
                    "name": "F5",
                    "midi": 77,
                    "time": 120.00576600000045,
                    "velocity": 0.6062992125984252,
                    "duration": 0.14493450000000507
                },
                {
                    "name": "D#5",
                    "midi": 75,
                    "time": 120.15070050000045,
                    "velocity": 0.5984251968503937,
                    "duration": 0.14493450000000507
                },
                {
                    "name": "C#5",
                    "midi": 73,
                    "time": 120.29563500000046,
                    "velocity": 0.5984251968503937,
                    "duration": 0.14493450000000507
                },
                {
                    "name": "C5",
                    "midi": 72,
                    "time": 120.44056950000046,
                    "velocity": 0.5984251968503937,
                    "duration": 0.14493450000000507
                },
                {
                    "name": "A#4",
                    "midi": 70,
                    "time": 120.58550400000047,
                    "velocity": 0.6062992125984252,
                    "duration": 0.14493450000000507
                },
                {
                    "name": "G#4",
                    "midi": 68,
                    "time": 120.73043850000047,
                    "velocity": 0.6062992125984252,
                    "duration": 0.14493450000000507
                },
                {
                    "name": "G4",
                    "midi": 67,
                    "time": 120.87537300000048,
                    "velocity": 0.6062992125984252,
                    "duration": 0.14493450000000507
                },
                {
                    "name": "F4",
                    "midi": 65,
                    "time": 121.02030750000048,
                    "velocity": 0.6062992125984252,
                    "duration": 0.14493450000000507
                },
                {
                    "name": "E4",
                    "midi": 64,
                    "time": 121.16524200000049,
                    "velocity": 0.6062992125984252,
                    "duration": 0.14493450000000507
                },
                {
                    "name": "C#4",
                    "midi": 61,
                    "time": 121.3101765000005,
                    "velocity": 0.5984251968503937,
                    "duration": 0.14493450000000507
                },
                {
                    "name": "C4",
                    "midi": 60,
                    "time": 121.4551110000005,
                    "velocity": 0.5984251968503937,
                    "duration": 0.14493450000000507
                },
                {
                    "name": "A#3",
                    "midi": 58,
                    "time": 121.6000455000005,
                    "velocity": 0.5905511811023622,
                    "duration": 0.14493450000000507
                },
                {
                    "name": "G#3",
                    "midi": 56,
                    "time": 121.74498000000051,
                    "velocity": 0.5905511811023622,
                    "duration": 0.14493450000000507
                },
                {
                    "name": "G3",
                    "midi": 55,
                    "time": 121.88991450000051,
                    "velocity": 0.5826771653543307,
                    "duration": 0.14493450000000507
                },
                {
                    "name": "F3",
                    "midi": 53,
                    "time": 122.03484900000052,
                    "velocity": 0.5748031496062992,
                    "duration": 0.14493450000000507
                },
                {
                    "name": "E3",
                    "midi": 52,
                    "time": 122.17978350000053,
                    "velocity": 0.5590551181102362,
                    "duration": 0.14493450000000507
                },
                {
                    "name": "F3",
                    "midi": 53,
                    "time": 122.32471800000053,
                    "velocity": 0.5511811023622047,
                    "duration": 0.14493450000000507
                },
                {
                    "name": "G3",
                    "midi": 55,
                    "time": 122.46965250000054,
                    "velocity": 0.5669291338582677,
                    "duration": 0.14493450000000507
                },
                {
                    "name": "G#3",
                    "midi": 56,
                    "time": 122.61458700000054,
                    "velocity": 0.5826771653543307,
                    "duration": 0.14493450000000507
                },
                {
                    "name": "G3",
                    "midi": 55,
                    "time": 122.75952150000055,
                    "velocity": 0.5590551181102362,
                    "duration": 0.14493450000000507
                },
                {
                    "name": "F3",
                    "midi": 53,
                    "time": 122.90445600000055,
                    "velocity": 0.5748031496062992,
                    "duration": 0.14493450000000507
                },
                {
                    "name": "D#3",
                    "midi": 51,
                    "time": 123.04939050000056,
                    "velocity": 0.5669291338582677,
                    "duration": 0.14493450000000507
                },
                {
                    "name": "D3",
                    "midi": 50,
                    "time": 123.19432500000056,
                    "velocity": 0.5590551181102362,
                    "duration": 0.14493450000000507
                },
                {
                    "name": "C3",
                    "midi": 48,
                    "time": 123.33925950000057,
                    "velocity": 0.5511811023622047,
                    "duration": 0.14493450000000507
                },
                {
                    "name": "B2",
                    "midi": 47,
                    "time": 123.48419400000057,
                    "velocity": 0.5275590551181102,
                    "duration": 0.14493450000000507
                },
                {
                    "name": "C3",
                    "midi": 48,
                    "time": 123.62912850000058,
                    "velocity": 0.5433070866141733,
                    "duration": 0.14493450000000507
                },
                {
                    "name": "D3",
                    "midi": 50,
                    "time": 123.77406300000058,
                    "velocity": 0.5590551181102362,
                    "duration": 0.14493450000000507
                },
                {
                    "name": "C3",
                    "midi": 48,
                    "time": 123.91899750000059,
                    "velocity": 0.5511811023622047,
                    "duration": 0.14493450000000507
                },
                {
                    "name": "G2",
                    "midi": 43,
                    "time": 124.1363992500006,
                    "velocity": 0.4409448818897638,
                    "duration": 0.07246725000000254
                },
                {
                    "name": "B2",
                    "midi": 47,
                    "time": 124.2088665000006,
                    "velocity": 0.4409448818897638,
                    "duration": 0.07246725000000254
                },
                {
                    "name": "D3",
                    "midi": 50,
                    "time": 124.2813337500006,
                    "velocity": 0.4409448818897638,
                    "duration": 0.07246725000000254
                },
                {
                    "name": "G3",
                    "midi": 55,
                    "time": 124.3538010000006,
                    "velocity": 0.5433070866141733,
                    "duration": 0.07246725000000254
                },
                {
                    "name": "G2",
                    "midi": 43,
                    "time": 124.7161372500006,
                    "velocity": 0.4566929133858268,
                    "duration": 0.07246725000000254
                },
                {
                    "name": "C3",
                    "midi": 48,
                    "time": 124.7886045000006,
                    "velocity": 0.4566929133858268,
                    "duration": 0.07246725000000254
                },
                {
                    "name": "D#3",
                    "midi": 51,
                    "time": 124.8610717500006,
                    "velocity": 0.4566929133858268,
                    "duration": 0.07246725000000254
                },
                {
                    "name": "G3",
                    "midi": 55,
                    "time": 124.93353900000061,
                    "velocity": 0.5511811023622047,
                    "duration": 0.07246725000000254
                },
                {
                    "name": "G2",
                    "midi": 43,
                    "time": 125.2958752500006,
                    "velocity": 0.47244094488188976,
                    "duration": 0.07246725000000254
                },
                {
                    "name": "D3",
                    "midi": 50,
                    "time": 125.36834250000061,
                    "velocity": 0.47244094488188976,
                    "duration": 0.07246725000000254
                },
                {
                    "name": "F3",
                    "midi": 53,
                    "time": 125.44080975000061,
                    "velocity": 0.47244094488188976,
                    "duration": 0.07246725000000254
                },
                {
                    "name": "G3",
                    "midi": 55,
                    "time": 125.51327700000061,
                    "velocity": 0.5590551181102362,
                    "duration": 0.07246725000000254
                },
                {
                    "name": "G2",
                    "midi": 43,
                    "time": 125.87561325000061,
                    "velocity": 0.48031496062992124,
                    "duration": 0.07246725000000254
                },
                {
                    "name": "C3",
                    "midi": 48,
                    "time": 125.94808050000061,
                    "velocity": 0.48031496062992124,
                    "duration": 0.07246725000000254
                },
                {
                    "name": "D#3",
                    "midi": 51,
                    "time": 126.02054775000062,
                    "velocity": 0.48031496062992124,
                    "duration": 0.07246725000000254
                },
                {
                    "name": "G3",
                    "midi": 55,
                    "time": 126.09301500000062,
                    "velocity": 0.5590551181102362,
                    "duration": 0.07246725000000254
                },
                {
                    "name": "G3",
                    "midi": 55,
                    "time": 126.45535125000062,
                    "velocity": 0.47244094488188976,
                    "duration": 0.07246725000000254
                },
                {
                    "name": "B3",
                    "midi": 59,
                    "time": 126.52781850000062,
                    "velocity": 0.47244094488188976,
                    "duration": 0.07246725000000254
                },
                {
                    "name": "D4",
                    "midi": 62,
                    "time": 126.60028575000062,
                    "velocity": 0.47244094488188976,
                    "duration": 0.07246725000000254
                },
                {
                    "name": "G4",
                    "midi": 67,
                    "time": 126.67275300000063,
                    "velocity": 0.5984251968503937,
                    "duration": 0.07246725000000254
                },
                {
                    "name": "G3",
                    "midi": 55,
                    "time": 127.03508925000062,
                    "velocity": 0.5039370078740157,
                    "duration": 0.07246725000000254
                },
                {
                    "name": "C4",
                    "midi": 60,
                    "time": 127.10755650000063,
                    "velocity": 0.5039370078740157,
                    "duration": 0.07246725000000254
                },
                {
                    "name": "D#4",
                    "midi": 63,
                    "time": 127.18002375000063,
                    "velocity": 0.5039370078740157,
                    "duration": 0.07246725000000254
                },
                {
                    "name": "G4",
                    "midi": 67,
                    "time": 127.25249100000063,
                    "velocity": 0.5984251968503937,
                    "duration": 0.07246725000000254
                },
                {
                    "name": "G3",
                    "midi": 55,
                    "time": 127.61482725000063,
                    "velocity": 0.5196850393700787,
                    "duration": 0.07246725000000254
                },
                {
                    "name": "D4",
                    "midi": 62,
                    "time": 127.68729450000063,
                    "velocity": 0.5196850393700787,
                    "duration": 0.07246725000000254
                },
                {
                    "name": "F4",
                    "midi": 65,
                    "time": 127.75976175000064,
                    "velocity": 0.5196850393700787,
                    "duration": 0.07246725000000254
                },
                {
                    "name": "G4",
                    "midi": 67,
                    "time": 127.83222900000064,
                    "velocity": 0.6062992125984252,
                    "duration": 0.07246725000000254
                },
                {
                    "name": "G3",
                    "midi": 55,
                    "time": 128.19456525000064,
                    "velocity": 0.5275590551181102,
                    "duration": 0.07246724999998833
                },
                {
                    "name": "C4",
                    "midi": 60,
                    "time": 128.26703250000062,
                    "velocity": 0.5275590551181102,
                    "duration": 0.07246724999998833
                },
                {
                    "name": "D#4",
                    "midi": 63,
                    "time": 128.3394997500006,
                    "velocity": 0.5275590551181102,
                    "duration": 0.07246724999998833
                },
                {
                    "name": "G4",
                    "midi": 67,
                    "time": 128.4119670000006,
                    "velocity": 0.6062992125984252,
                    "duration": 0.07246724999998833
                },
                {
                    "name": "G4",
                    "midi": 67,
                    "time": 128.7743032500006,
                    "velocity": 0.5669291338582677,
                    "duration": 0.07246724999998833
                },
                {
                    "name": "B4",
                    "midi": 71,
                    "time": 128.8467705000006,
                    "velocity": 0.5669291338582677,
                    "duration": 0.07246724999998833
                },
                {
                    "name": "D5",
                    "midi": 74,
                    "time": 128.91923775000058,
                    "velocity": 0.5669291338582677,
                    "duration": 0.07246724999998833
                },
                {
                    "name": "G5",
                    "midi": 79,
                    "time": 128.99170500000056,
                    "velocity": 0.7007874015748031,
                    "duration": 0.07246724999998833
                },
                {
                    "name": "G4",
                    "midi": 67,
                    "time": 129.35404125000056,
                    "velocity": 0.5905511811023622,
                    "duration": 0.07246724999998833
                },
                {
                    "name": "C5",
                    "midi": 72,
                    "time": 129.42650850000055,
                    "velocity": 0.5905511811023622,
                    "duration": 0.07246724999998833
                },
                {
                    "name": "D#5",
                    "midi": 75,
                    "time": 129.49897575000054,
                    "velocity": 0.5905511811023622,
                    "duration": 0.07246724999998833
                },
                {
                    "name": "G5",
                    "midi": 79,
                    "time": 129.57144300000053,
                    "velocity": 0.6929133858267716,
                    "duration": 0.07246724999998833
                },
                {
                    "name": "G4",
                    "midi": 67,
                    "time": 129.93377925000053,
                    "velocity": 0.5905511811023622,
                    "duration": 0.07246724999998833
                },
                {
                    "name": "D5",
                    "midi": 74,
                    "time": 130.00624650000051,
                    "velocity": 0.5905511811023622,
                    "duration": 0.07246724999998833
                },
                {
                    "name": "F5",
                    "midi": 77,
                    "time": 130.0787137500005,
                    "velocity": 0.5905511811023622,
                    "duration": 0.07246724999998833
                },
                {
                    "name": "G5",
                    "midi": 79,
                    "time": 130.1511810000005,
                    "velocity": 0.6850393700787402,
                    "duration": 0.07246724999998833
                },
                {
                    "name": "G4",
                    "midi": 67,
                    "time": 130.5135172500005,
                    "velocity": 0.5905511811023622,
                    "duration": 0.07246724999998833
                },
                {
                    "name": "C5",
                    "midi": 72,
                    "time": 130.58598450000048,
                    "velocity": 0.5905511811023622,
                    "duration": 0.07246724999998833
                },
                {
                    "name": "D#5",
                    "midi": 75,
                    "time": 130.65845175000047,
                    "velocity": 0.5905511811023622,
                    "duration": 0.07246724999998833
                },
                {
                    "name": "G5",
                    "midi": 79,
                    "time": 130.73091900000045,
                    "velocity": 0.6771653543307087,
                    "duration": 0.07246724999998833
                },
                {
                    "name": "G4",
                    "midi": 67,
                    "time": 131.11741100000043,
                    "velocity": 0.5196850393700787,
                    "duration": 0.09662299999999391
                },
                {
                    "name": "F#4",
                    "midi": 66,
                    "time": 131.21403400000042,
                    "velocity": 0.5354330708661418,
                    "duration": 0.09662299999999391
                },
                {
                    "name": "G4",
                    "midi": 67,
                    "time": 131.31065700000042,
                    "velocity": 0.5511811023622047,
                    "duration": 0.09662299999999391
                },
                {
                    "name": "B4",
                    "midi": 71,
                    "time": 131.4072800000004,
                    "velocity": 0.5669291338582677,
                    "duration": 0.09662299999999391
                },
                {
                    "name": "D5",
                    "midi": 74,
                    "time": 131.5039030000004,
                    "velocity": 0.5905511811023622,
                    "duration": 0.09662299999999391
                },
                {
                    "name": "G5",
                    "midi": 79,
                    "time": 131.6005260000004,
                    "velocity": 0.6614173228346457,
                    "duration": 0.09662299999999391
                },
                {
                    "name": "D5",
                    "midi": 74,
                    "time": 131.6971490000004,
                    "velocity": 0.5669291338582677,
                    "duration": 0.09662299999999391
                },
                {
                    "name": "B4",
                    "midi": 71,
                    "time": 131.7937720000004,
                    "velocity": 0.5039370078740157,
                    "duration": 0.09662299999999391
                },
                {
                    "name": "G4",
                    "midi": 67,
                    "time": 131.89039500000038,
                    "velocity": 0.5511811023622047,
                    "duration": 0.07246724999998833
                },
                {
                    "name": "B4",
                    "midi": 71,
                    "time": 132.27688700000036,
                    "velocity": 0.5196850393700787,
                    "duration": 0.09662299999999391
                },
                {
                    "name": "A#4",
                    "midi": 70,
                    "time": 132.37351000000035,
                    "velocity": 0.5354330708661418,
                    "duration": 0.09662299999999391
                },
                {
                    "name": "B4",
                    "midi": 71,
                    "time": 132.47013300000035,
                    "velocity": 0.5511811023622047,
                    "duration": 0.09662299999999391
                },
                {
                    "name": "D5",
                    "midi": 74,
                    "time": 132.56675600000034,
                    "velocity": 0.5669291338582677,
                    "duration": 0.09662299999999391
                },
                {
                    "name": "G5",
                    "midi": 79,
                    "time": 132.66337900000033,
                    "velocity": 0.5905511811023622,
                    "duration": 0.09662299999999391
                },
                {
                    "name": "B5",
                    "midi": 83,
                    "time": 132.76000200000033,
                    "velocity": 0.6614173228346457,
                    "duration": 0.09662299999999391
                },
                {
                    "name": "G5",
                    "midi": 79,
                    "time": 132.85662500000032,
                    "velocity": 0.5669291338582677,
                    "duration": 0.09662299999999391
                },
                {
                    "name": "D5",
                    "midi": 74,
                    "time": 132.95324800000031,
                    "velocity": 0.5039370078740157,
                    "duration": 0.09662299999999391
                },
                {
                    "name": "B4",
                    "midi": 71,
                    "time": 133.0498710000003,
                    "velocity": 0.5511811023622047,
                    "duration": 0.07246724999998833
                },
                {
                    "name": "D5",
                    "midi": 74,
                    "time": 133.43636300000028,
                    "velocity": 0.5196850393700787,
                    "duration": 0.09662299999999391
                },
                {
                    "name": "C#5",
                    "midi": 73,
                    "time": 133.53298600000028,
                    "velocity": 0.5354330708661418,
                    "duration": 0.09662299999999391
                },
                {
                    "name": "D5",
                    "midi": 74,
                    "time": 133.62960900000027,
                    "velocity": 0.5511811023622047,
                    "duration": 0.09662299999999391
                },
                {
                    "name": "F5",
                    "midi": 77,
                    "time": 133.72623200000027,
                    "velocity": 0.5669291338582677,
                    "duration": 0.09662299999999391
                },
                {
                    "name": "B5",
                    "midi": 83,
                    "time": 133.82285500000026,
                    "velocity": 0.5905511811023622,
                    "duration": 0.09662299999999391
                },
                {
                    "name": "D6",
                    "midi": 86,
                    "time": 133.91947800000025,
                    "velocity": 0.6614173228346457,
                    "duration": 0.09662299999999391
                },
                {
                    "name": "B5",
                    "midi": 83,
                    "time": 134.01610100000025,
                    "velocity": 0.5669291338582677,
                    "duration": 0.09662299999999391
                },
                {
                    "name": "F5",
                    "midi": 77,
                    "time": 134.11272400000024,
                    "velocity": 0.5039370078740157,
                    "duration": 0.09662299999999391
                },
                {
                    "name": "D5",
                    "midi": 74,
                    "time": 134.20934700000024,
                    "velocity": 0.5511811023622047,
                    "duration": 0.07246724999998833
                },
                {
                    "name": "F5",
                    "midi": 77,
                    "time": 134.5958390000002,
                    "velocity": 0.5196850393700787,
                    "duration": 0.09662299999999391
                },
                {
                    "name": "E5",
                    "midi": 76,
                    "time": 134.6924620000002,
                    "velocity": 0.5354330708661418,
                    "duration": 0.09662299999999391
                },
                {
                    "name": "F5",
                    "midi": 77,
                    "time": 134.7890850000002,
                    "velocity": 0.5511811023622047,
                    "duration": 0.09662299999999391
                },
                {
                    "name": "B5",
                    "midi": 83,
                    "time": 134.8857080000002,
                    "velocity": 0.5669291338582677,
                    "duration": 0.09662299999999391
                },
                {
                    "name": "D6",
                    "midi": 86,
                    "time": 134.9823310000002,
                    "velocity": 0.5905511811023622,
                    "duration": 0.09662299999999391
                },
                {
                    "name": "F6",
                    "midi": 89,
                    "time": 135.07895400000018,
                    "velocity": 0.6614173228346457,
                    "duration": 0.09662299999999391
                },
                {
                    "name": "D6",
                    "midi": 86,
                    "time": 135.17557700000017,
                    "velocity": 0.5669291338582677,
                    "duration": 0.09662299999999391
                },
                {
                    "name": "B5",
                    "midi": 83,
                    "time": 135.27220000000017,
                    "velocity": 0.5039370078740157,
                    "duration": 0.09662299999999391
                },
                {
                    "name": "F6",
                    "midi": 89,
                    "time": 135.36882300000016,
                    "velocity": 0.6614173228346457,
                    "duration": 0.09662299999999391
                },
                {
                    "name": "D6",
                    "midi": 86,
                    "time": 135.46544600000016,
                    "velocity": 0.5669291338582677,
                    "duration": 0.09662299999999391
                },
                {
                    "name": "B5",
                    "midi": 83,
                    "time": 135.56206900000015,
                    "velocity": 0.5039370078740157,
                    "duration": 0.09662299999999391
                },
                {
                    "name": "F6",
                    "midi": 89,
                    "time": 135.65869200000014,
                    "velocity": 0.7874015748031497,
                    "duration": 0.869607000000002
                },
                {
                    "name": "D#6",
                    "midi": 87,
                    "time": 136.52829900000015,
                    "velocity": 0.6771653543307087,
                    "duration": 0.09662299999999391
                },
                {
                    "name": "D6",
                    "midi": 86,
                    "time": 136.62492200000014,
                    "velocity": 0.6692913385826772,
                    "duration": 0.09662299999999391
                },
                {
                    "name": "C6",
                    "midi": 84,
                    "time": 136.72154500000013,
                    "velocity": 0.6535433070866141,
                    "duration": 0.09662299999999391
                },
                {
                    "name": "B5",
                    "midi": 83,
                    "time": 136.81816800000013,
                    "velocity": 0.6456692913385826,
                    "duration": 0.09662299999999391
                },
                {
                    "name": "G#5",
                    "midi": 80,
                    "time": 136.91479100000012,
                    "velocity": 0.6377952755905512,
                    "duration": 0.09662299999999391
                },
                {
                    "name": "G5",
                    "midi": 79,
                    "time": 137.01141400000012,
                    "velocity": 0.6220472440944882,
                    "duration": 0.09662299999999391
                },
                {
                    "name": "F5",
                    "midi": 77,
                    "time": 137.1080370000001,
                    "velocity": 0.6141732283464567,
                    "duration": 0.09662299999999391
                },
                {
                    "name": "D#5",
                    "midi": 75,
                    "time": 137.2046600000001,
                    "velocity": 0.6062992125984252,
                    "duration": 0.09662299999999391
                },
                {
                    "name": "D5",
                    "midi": 74,
                    "time": 137.3012830000001,
                    "velocity": 0.5905511811023622,
                    "duration": 0.09662299999999391
                },
                {
                    "name": "C5",
                    "midi": 72,
                    "time": 137.3979060000001,
                    "velocity": 0.5826771653543307,
                    "duration": 0.09662299999999391
                },
                {
                    "name": "B4",
                    "midi": 71,
                    "time": 137.49452900000009,
                    "velocity": 0.5669291338582677,
                    "duration": 0.09662299999999391
                },
                {
                    "name": "G#4",
                    "midi": 68,
                    "time": 137.59115200000008,
                    "velocity": 0.5590551181102362,
                    "duration": 0.09662299999999391
                },
                {
                    "name": "G4",
                    "midi": 67,
                    "time": 137.68777500000007,
                    "velocity": 0.5511811023622047,
                    "duration": 0.0579738000000134
                },
                {
                    "name": "F4",
                    "midi": 65,
                    "time": 137.7457488000001,
                    "velocity": 0.5354330708661418,
                    "duration": 0.0579738000000134
                },
                {
                    "name": "D#4",
                    "midi": 63,
                    "time": 137.8037226000001,
                    "velocity": 0.5433070866141733,
                    "duration": 0.0579738000000134
                },
                {
                    "name": "D4",
                    "midi": 62,
                    "time": 137.8616964000001,
                    "velocity": 0.5511811023622047,
                    "duration": 0.0579738000000134
                },
                {
                    "name": "C4",
                    "midi": 60,
                    "time": 137.91967020000013,
                    "velocity": 0.5590551181102362,
                    "duration": 0.0579738000000134
                },
                {
                    "name": "B3",
                    "midi": 59,
                    "time": 137.97764400000014,
                    "velocity": 0.7322834645669292,
                    "duration": 1.739214000000004
                },
                {
                    "name": "G4",
                    "midi": 67,
                    "time": 139.86179250000015,
                    "velocity": 0.3779527559055118,
                    "duration": 0.07246724999998833
                },
                {
                    "name": "C5",
                    "midi": 72,
                    "time": 140.00672700000013,
                    "velocity": 0.3858267716535433,
                    "duration": 0.07246724999998833
                },
                {
                    "name": "D5",
                    "midi": 74,
                    "time": 140.1516615000001,
                    "velocity": 0.4015748031496063,
                    "duration": 0.07246724999998833
                },
                {
                    "name": "D#5",
                    "midi": 75,
                    "time": 140.29659600000008,
                    "velocity": 0.4094488188976378,
                    "duration": 0.4348034999999868
                },
                {
                    "name": "F5",
                    "midi": 77,
                    "time": 140.73139950000007,
                    "velocity": 0.3937007874015748,
                    "duration": 0.14493450000000507
                },
                {
                    "name": "D5",
                    "midi": 74,
                    "time": 140.87633400000007,
                    "velocity": 0.41732283464566927,
                    "duration": 0.4348034999999868
                },
                {
                    "name": "D#5",
                    "midi": 75,
                    "time": 141.31113750000006,
                    "velocity": 0.3937007874015748,
                    "duration": 0.14493450000000507
                },
                {
                    "name": "C5",
                    "midi": 72,
                    "time": 141.45607200000006,
                    "velocity": 0.4094488188976378,
                    "duration": 0.5435043749999977
                },
                {
                    "name": "D5",
                    "midi": 74,
                    "time": 141.99957637500006,
                    "velocity": 0.3779527559055118,
                    "duration": 0.03623362499999416
                },
                {
                    "name": "C5",
                    "midi": 72,
                    "time": 142.03581000000005,
                    "velocity": 0.4094488188976378,
                    "duration": 0.14493450000000507
                },
                {
                    "name": "B4",
                    "midi": 71,
                    "time": 142.18074450000006,
                    "velocity": 0.4015748031496063,
                    "duration": 0.14493450000000507
                },
                {
                    "name": "C5",
                    "midi": 72,
                    "time": 142.32567900000006,
                    "velocity": 0.4015748031496063,
                    "duration": 0.14493450000000507
                },
                {
                    "name": "D5",
                    "midi": 74,
                    "time": 142.47061350000007,
                    "velocity": 0.3937007874015748,
                    "duration": 0.10870087500001091
                },
                {
                    "name": "F5",
                    "midi": 77,
                    "time": 142.57931437500008,
                    "velocity": 0.3858267716535433,
                    "duration": 0.03623362499999416
                },
                {
                    "name": "D#5",
                    "midi": 75,
                    "time": 142.61554800000008,
                    "velocity": 0.4409448818897638,
                    "duration": 0.14493450000000507
                },
                {
                    "name": "D5",
                    "midi": 74,
                    "time": 142.76048250000008,
                    "velocity": 0.4094488188976378,
                    "duration": 0.14493450000000507
                },
                {
                    "name": "D#5",
                    "midi": 75,
                    "time": 142.90541700000009,
                    "velocity": 0.4094488188976378,
                    "duration": 0.14493450000000507
                },
                {
                    "name": "F5",
                    "midi": 77,
                    "time": 143.0503515000001,
                    "velocity": 0.4094488188976378,
                    "duration": 0.14493450000000507
                },
                {
                    "name": "G5",
                    "midi": 79,
                    "time": 143.1952860000001,
                    "velocity": 0.4409448818897638,
                    "duration": 0.14493450000000507
                },
                {
                    "name": "G5",
                    "midi": 79,
                    "time": 143.4851550000001,
                    "velocity": 0.4330708661417323,
                    "duration": 0.14493450000000507
                },
                {
                    "name": "G5",
                    "midi": 79,
                    "time": 143.77502400000012,
                    "velocity": 0.44881889763779526,
                    "duration": 0.869607000000002
                },
                {
                    "name": "F5",
                    "midi": 77,
                    "time": 144.64463100000012,
                    "velocity": 0.4015748031496063,
                    "duration": 0.14493450000000507
                },
                {
                    "name": "G5",
                    "midi": 79,
                    "time": 144.78956550000012,
                    "velocity": 0.41732283464566927,
                    "duration": 0.07246724999998833
                },
                {
                    "name": "F5",
                    "midi": 77,
                    "time": 144.8620327500001,
                    "velocity": 0.3779527559055118,
                    "duration": 0.03623362499999416
                },
                {
                    "name": "G5",
                    "midi": 79,
                    "time": 144.8982663750001,
                    "velocity": 0.3779527559055118,
                    "duration": 0.03623362499999416
                },
                {
                    "name": "G#5",
                    "midi": 80,
                    "time": 144.9345000000001,
                    "velocity": 0.4409448818897638,
                    "duration": 0.5797379999999919
                },
                {
                    "name": "D5",
                    "midi": 74,
                    "time": 145.5142380000001,
                    "velocity": 0.4094488188976378,
                    "duration": 0.28986900000001015
                },
                {
                    "name": "D#5",
                    "midi": 75,
                    "time": 145.8041070000001,
                    "velocity": 0.4015748031496063,
                    "duration": 0.14493450000000507
                },
                {
                    "name": "F5",
                    "midi": 77,
                    "time": 145.9490415000001,
                    "velocity": 0.41732283464566927,
                    "duration": 0.07246724999998833
                },
                {
                    "name": "D#5",
                    "midi": 75,
                    "time": 146.0215087500001,
                    "velocity": 0.3937007874015748,
                    "duration": 0.03623362499999416
                },
                {
                    "name": "F5",
                    "midi": 77,
                    "time": 146.0577423750001,
                    "velocity": 0.3937007874015748,
                    "duration": 0.03623362499999416
                },
                {
                    "name": "G5",
                    "midi": 79,
                    "time": 146.09397600000008,
                    "velocity": 0.4409448818897638,
                    "duration": 0.5797379999999919
                },
                {
                    "name": "C5",
                    "midi": 72,
                    "time": 146.67371400000007,
                    "velocity": 0.4094488188976378,
                    "duration": 0.28383006249998743
                },
                {
                    "name": "C5",
                    "midi": 72,
                    "time": 146.96358300000006,
                    "velocity": 0.41732283464566927,
                    "duration": 0.14493450000000507
                },
                {
                    "name": "D5",
                    "midi": 74,
                    "time": 147.10851750000006,
                    "velocity": 0.4251968503937008,
                    "duration": 0.14493450000000507
                },
                {
                    "name": "D#5",
                    "midi": 75,
                    "time": 147.25345200000007,
                    "velocity": 0.44881889763779526,
                    "duration": 0.14493450000000507
                },
                {
                    "name": "D#5",
                    "midi": 75,
                    "time": 147.54332100000008,
                    "velocity": 0.41732283464566927,
                    "duration": 0.14493450000000507
                },
                {
                    "name": "F5",
                    "midi": 77,
                    "time": 147.68825550000008,
                    "velocity": 0.4330708661417323,
                    "duration": 0.14493450000000507
                },
                {
                    "name": "D5",
                    "midi": 74,
                    "time": 147.8331900000001,
                    "velocity": 0.44881889763779526,
                    "duration": 0.14493450000000507
                },
                {
                    "name": "D5",
                    "midi": 74,
                    "time": 148.1230590000001,
                    "velocity": 0.4015748031496063,
                    "duration": 0.14493450000000507
                },
                {
                    "name": "D#5",
                    "midi": 75,
                    "time": 148.2679935000001,
                    "velocity": 0.4251968503937008,
                    "duration": 0.14493450000000507
                },
                {
                    "name": "C5",
                    "midi": 72,
                    "time": 148.4129280000001,
                    "velocity": 0.44881889763779526,
                    "duration": 0.28986900000001015
                },
                {
                    "name": "B3",
                    "midi": 59,
                    "time": 149.71733850000012,
                    "velocity": 0.3700787401574803,
                    "duration": 0.14493450000000507
                },
                {
                    "name": "D4",
                    "midi": 62,
                    "time": 149.86227300000013,
                    "velocity": 0.3858267716535433,
                    "duration": 0.14493450000000507
                },
                {
                    "name": "F4",
                    "midi": 65,
                    "time": 150.00720750000013,
                    "velocity": 0.4015748031496063,
                    "duration": 0.14493450000000507
                },
                {
                    "name": "F5",
                    "midi": 77,
                    "time": 150.29707650000014,
                    "velocity": 0.4015748031496063,
                    "duration": 0.14493450000000507
                },
                {
                    "name": "D5",
                    "midi": 74,
                    "time": 150.44201100000015,
                    "velocity": 0.3937007874015748,
                    "duration": 0.14493450000000507
                },
                {
                    "name": "B4",
                    "midi": 71,
                    "time": 150.58694550000016,
                    "velocity": 0.3779527559055118,
                    "duration": 0.14493450000000507
                },
                {
                    "name": "C4",
                    "midi": 60,
                    "time": 150.87681450000017,
                    "velocity": 0.3464566929133858,
                    "duration": 0.14493450000000507
                },
                {
                    "name": "D#4",
                    "midi": 63,
                    "time": 151.02174900000017,
                    "velocity": 0.36220472440944884,
                    "duration": 0.14493450000000507
                },
                {
                    "name": "G4",
                    "midi": 67,
                    "time": 151.16668350000018,
                    "velocity": 0.3858267716535433,
                    "duration": 0.14493450000000507
                },
                {
                    "name": "G5",
                    "midi": 79,
                    "time": 151.45655250000019,
                    "velocity": 0.3779527559055118,
                    "duration": 0.14493450000000507
                },
                {
                    "name": "D#5",
                    "midi": 75,
                    "time": 151.6014870000002,
                    "velocity": 0.3700787401574803,
                    "duration": 0.14493450000000507
                },
                {
                    "name": "C5",
                    "midi": 72,
                    "time": 151.7464215000002,
                    "velocity": 0.3543307086614173,
                    "duration": 0.14493450000000507
                },
                {
                    "name": "E4",
                    "midi": 64,
                    "time": 152.0362905000002,
                    "velocity": 0.3700787401574803,
                    "duration": 0.14493450000000507
                },
                {
                    "name": "G4",
                    "midi": 67,
                    "time": 152.1812250000002,
                    "velocity": 0.3858267716535433,
                    "duration": 0.14493450000000507
                },
                {
                    "name": "A#4",
                    "midi": 70,
                    "time": 152.32615950000022,
                    "velocity": 0.4015748031496063,
                    "duration": 0.14493450000000507
                },
                {
                    "name": "A#5",
                    "midi": 82,
                    "time": 152.61602850000023,
                    "velocity": 0.4015748031496063,
                    "duration": 0.14493450000000507
                },
                {
                    "name": "G5",
                    "midi": 79,
                    "time": 152.76096300000023,
                    "velocity": 0.3937007874015748,
                    "duration": 0.14493450000000507
                },
                {
                    "name": "E5",
                    "midi": 76,
                    "time": 152.90589750000024,
                    "velocity": 0.3779527559055118,
                    "duration": 0.14493450000000507
                },
                {
                    "name": "F4",
                    "midi": 65,
                    "time": 153.19576650000025,
                    "velocity": 0.3779527559055118,
                    "duration": 0.14493450000000507
                },
                {
                    "name": "G#4",
                    "midi": 68,
                    "time": 153.34070100000025,
                    "velocity": 0.3937007874015748,
                    "duration": 0.14493450000000507
                },
                {
                    "name": "C5",
                    "midi": 72,
                    "time": 153.48563550000026,
                    "velocity": 0.41732283464566927,
                    "duration": 0.14493450000000507
                },
                {
                    "name": "F5",
                    "midi": 77,
                    "time": 153.63057000000026,
                    "velocity": 0.4330708661417323,
                    "duration": 0.14493450000000507
                },
                {
                    "name": "G#5",
                    "midi": 80,
                    "time": 153.77550450000027,
                    "velocity": 0.4566929133858268,
                    "duration": 0.14493450000000507
                },
                {
                    "name": "C6",
                    "midi": 84,
                    "time": 153.92043900000027,
                    "velocity": 0.47244094488188976,
                    "duration": 0.14493450000000507
                },
                {
                    "name": "F6",
                    "midi": 89,
                    "time": 154.06537350000028,
                    "velocity": 0.5433070866141733,
                    "duration": 0.4348034999999868
                },
                {
                    "name": "D#6",
                    "midi": 87,
                    "time": 154.50017700000026,
                    "velocity": 0.49606299212598426,
                    "duration": 0.28986900000001015
                },
                {
                    "name": "D6",
                    "midi": 86,
                    "time": 154.79004600000027,
                    "velocity": 0.48031496062992124,
                    "duration": 0.28986900000001015
                },
                {
                    "name": "C6",
                    "midi": 84,
                    "time": 155.07991500000028,
                    "velocity": 0.47244094488188976,
                    "duration": 0.28986900000001015
                },
                {
                    "name": "B5",
                    "midi": 83,
                    "time": 155.3697840000003,
                    "velocity": 0.47244094488188976,
                    "duration": 0.14493450000000507
                },
                {
                    "name": "G5",
                    "midi": 79,
                    "time": 155.6596530000003,
                    "velocity": 0.47244094488188976,
                    "duration": 0.5797379999999919
                },
                {
                    "name": "G5",
                    "midi": 79,
                    "time": 156.2393910000003,
                    "velocity": 0.4409448818897638,
                    "duration": 0.4348034999999868
                },
                {
                    "name": "A5",
                    "midi": 81,
                    "time": 156.67419450000028,
                    "velocity": 0.4251968503937008,
                    "duration": 0.14493450000000507
                },
                {
                    "name": "B5",
                    "midi": 83,
                    "time": 156.8191290000003,
                    "velocity": 0.4330708661417323,
                    "duration": 0.14493450000000507
                },
                {
                    "name": "C6",
                    "midi": 84,
                    "time": 156.9640635000003,
                    "velocity": 0.44881889763779526,
                    "duration": 0.14493450000000507
                },
                {
                    "name": "D6",
                    "midi": 86,
                    "time": 157.1089980000003,
                    "velocity": 0.4566929133858268,
                    "duration": 0.14493450000000507
                },
                {
                    "name": "E6",
                    "midi": 88,
                    "time": 157.2539325000003,
                    "velocity": 0.47244094488188976,
                    "duration": 0.14493450000000507
                },
                {
                    "name": "F6",
                    "midi": 89,
                    "time": 157.3988670000003,
                    "velocity": 0.48031496062992124,
                    "duration": 0.14493450000000507
                },
                {
                    "name": "D6",
                    "midi": 86,
                    "time": 157.5438015000003,
                    "velocity": 0.4566929133858268,
                    "duration": 0.14493450000000507
                },
                {
                    "name": "F6",
                    "midi": 89,
                    "time": 157.68873600000032,
                    "velocity": 0.48031496062992124,
                    "duration": 0.14493450000000507
                },
                {
                    "name": "E6",
                    "midi": 88,
                    "time": 157.83367050000032,
                    "velocity": 0.47244094488188976,
                    "duration": 0.14493450000000507
                },
                {
                    "name": "D6",
                    "midi": 86,
                    "time": 157.97860500000033,
                    "velocity": 0.4645669291338583,
                    "duration": 0.14493450000000507
                },
                {
                    "name": "C6",
                    "midi": 84,
                    "time": 158.12353950000033,
                    "velocity": 0.4566929133858268,
                    "duration": 0.13285662499998807
                },
                {
                    "name": "C6",
                    "midi": 84,
                    "time": 158.2684740000003,
                    "velocity": 0.47244094488188976,
                    "duration": 0.14493450000000507
                },
                {
                    "name": "B5",
                    "midi": 83,
                    "time": 158.41340850000032,
                    "velocity": 0.4566929133858268,
                    "duration": 0.14493450000000507
                },
                {
                    "name": "A5",
                    "midi": 81,
                    "time": 158.55834300000032,
                    "velocity": 0.4566929133858268,
                    "duration": 0.14493450000000507
                },
                {
                    "name": "B5",
                    "midi": 83,
                    "time": 158.70327750000033,
                    "velocity": 0.4566929133858268,
                    "duration": 0.14493450000000507
                },
                {
                    "name": "D6",
                    "midi": 86,
                    "time": 158.84821200000033,
                    "velocity": 0.49606299212598426,
                    "duration": 0.14493450000000507
                },
                {
                    "name": "C6",
                    "midi": 84,
                    "time": 158.99314650000034,
                    "velocity": 0.44881889763779526,
                    "duration": 0.14493450000000507
                },
                {
                    "name": "B5",
                    "midi": 83,
                    "time": 159.13808100000034,
                    "velocity": 0.44881889763779526,
                    "duration": 0.14493450000000507
                },
                {
                    "name": "A5",
                    "midi": 81,
                    "time": 159.28301550000035,
                    "velocity": 0.44881889763779526,
                    "duration": 0.14493450000000507
                },
                {
                    "name": "F5",
                    "midi": 77,
                    "time": 159.42795000000035,
                    "velocity": 0.3779527559055118,
                    "duration": 0.26088210000000345
                },
                {
                    "name": "G5",
                    "midi": 79,
                    "time": 159.42795000000035,
                    "velocity": 0.47244094488188976,
                    "duration": 0.26088210000000345
                },
                {
                    "name": "F5",
                    "midi": 77,
                    "time": 159.71781900000036,
                    "velocity": 0.3779527559055118,
                    "duration": 0.26088210000000345
                },
                {
                    "name": "G5",
                    "midi": 79,
                    "time": 159.71781900000036,
                    "velocity": 0.47244094488188976,
                    "duration": 0.26088210000000345
                },
                {
                    "name": "F5",
                    "midi": 77,
                    "time": 160.00768800000037,
                    "velocity": 0.47244094488188976,
                    "duration": 0.14493450000000507
                },
                {
                    "name": "G5",
                    "midi": 79,
                    "time": 160.00768800000037,
                    "velocity": 0.47244094488188976,
                    "duration": 1.3044105000000172
                },
                {
                    "name": "E5",
                    "midi": 76,
                    "time": 160.15262250000038,
                    "velocity": 0.41732283464566927,
                    "duration": 0.14493450000000507
                },
                {
                    "name": "D5",
                    "midi": 74,
                    "time": 160.29755700000038,
                    "velocity": 0.41732283464566927,
                    "duration": 0.14493450000000507
                },
                {
                    "name": "C5",
                    "midi": 72,
                    "time": 160.4424915000004,
                    "velocity": 0.41732283464566927,
                    "duration": 0.13285662499998807
                },
                {
                    "name": "C5",
                    "midi": 72,
                    "time": 160.58742600000036,
                    "velocity": 0.44881889763779526,
                    "duration": 0.14493450000000507
                },
                {
                    "name": "B4",
                    "midi": 71,
                    "time": 160.73236050000037,
                    "velocity": 0.4094488188976378,
                    "duration": 0.14493450000000507
                },
                {
                    "name": "A4",
                    "midi": 69,
                    "time": 160.87729500000037,
                    "velocity": 0.4094488188976378,
                    "duration": 0.14493450000000507
                },
                {
                    "name": "B4",
                    "midi": 71,
                    "time": 161.02222950000038,
                    "velocity": 0.4094488188976378,
                    "duration": 0.14493450000000507
                },
                {
                    "name": "C5",
                    "midi": 72,
                    "time": 161.16716400000038,
                    "velocity": 0.4094488188976378,
                    "duration": 0.28986900000001015
                },
                {
                    "name": "A5",
                    "midi": 81,
                    "time": 161.3120985000004,
                    "velocity": 0.4251968503937008,
                    "duration": 0.14493450000000507
                },
                {
                    "name": "B5",
                    "midi": 83,
                    "time": 161.4570330000004,
                    "velocity": 0.4330708661417323,
                    "duration": 0.14493450000000507
                },
                {
                    "name": "C6",
                    "midi": 84,
                    "time": 161.6019675000004,
                    "velocity": 0.44881889763779526,
                    "duration": 0.14493450000000507
                },
                {
                    "name": "D6",
                    "midi": 86,
                    "time": 161.7469020000004,
                    "velocity": 0.4566929133858268,
                    "duration": 0.14493450000000507
                },
                {
                    "name": "E6",
                    "midi": 88,
                    "time": 161.8918365000004,
                    "velocity": 0.47244094488188976,
                    "duration": 0.14493450000000507
                },
                {
                    "name": "F6",
                    "midi": 89,
                    "time": 162.0367710000004,
                    "velocity": 0.48031496062992124,
                    "duration": 0.14493450000000507
                },
                {
                    "name": "D6",
                    "midi": 86,
                    "time": 162.18170550000042,
                    "velocity": 0.4566929133858268,
                    "duration": 0.14493450000000507
                },
                {
                    "name": "F6",
                    "midi": 89,
                    "time": 162.32664000000042,
                    "velocity": 0.48031496062992124,
                    "duration": 0.14493450000000507
                },
                {
                    "name": "E6",
                    "midi": 88,
                    "time": 162.47157450000043,
                    "velocity": 0.47244094488188976,
                    "duration": 0.14493450000000507
                },
                {
                    "name": "D6",
                    "midi": 86,
                    "time": 162.61650900000043,
                    "velocity": 0.4645669291338583,
                    "duration": 0.14493450000000507
                },
                {
                    "name": "C6",
                    "midi": 84,
                    "time": 162.76144350000044,
                    "velocity": 0.4566929133858268,
                    "duration": 0.14493450000000507
                },
                {
                    "name": "B5",
                    "midi": 83,
                    "time": 162.90637800000044,
                    "velocity": 0.47244094488188976,
                    "duration": 0.14493450000000507
                },
                {
                    "name": "C6",
                    "midi": 84,
                    "time": 163.05131250000045,
                    "velocity": 0.4566929133858268,
                    "duration": 0.14493450000000507
                },
                {
                    "name": "E6",
                    "midi": 88,
                    "time": 163.19624700000045,
                    "velocity": 0.4645669291338583,
                    "duration": 0.14493450000000507
                },
                {
                    "name": "C6",
                    "midi": 84,
                    "time": 163.34118150000046,
                    "velocity": 0.4645669291338583,
                    "duration": 0.14493450000000507
                },
                {
                    "name": "B5",
                    "midi": 83,
                    "time": 163.48611600000046,
                    "velocity": 0.5196850393700787,
                    "duration": 0.14493450000000507
                },
                {
                    "name": "A5",
                    "midi": 81,
                    "time": 163.63105050000047,
                    "velocity": 0.44881889763779526,
                    "duration": 0.14493450000000507
                },
                {
                    "name": "C6",
                    "midi": 84,
                    "time": 163.77598500000047,
                    "velocity": 0.4566929133858268,
                    "duration": 0.14493450000000507
                },
                {
                    "name": "A5",
                    "midi": 81,
                    "time": 163.92091950000048,
                    "velocity": 0.4645669291338583,
                    "duration": 0.14493450000000507
                },
                {
                    "name": "G5",
                    "midi": 79,
                    "time": 164.06585400000048,
                    "velocity": 0.5433070866141733,
                    "duration": 0.14493450000000507
                },
                {
                    "name": "F5",
                    "midi": 77,
                    "time": 164.2107885000005,
                    "velocity": 0.49606299212598426,
                    "duration": 0.14493450000000507
                },
                {
                    "name": "A5",
                    "midi": 81,
                    "time": 164.3557230000005,
                    "velocity": 0.49606299212598426,
                    "duration": 0.14493450000000507
                },
                {
                    "name": "F5",
                    "midi": 77,
                    "time": 164.5006575000005,
                    "velocity": 0.5039370078740157,
                    "duration": 0.14493450000000507
                },
                {
                    "name": "E5",
                    "midi": 76,
                    "time": 164.6455920000005,
                    "velocity": 0.5669291338582677,
                    "duration": 0.14493450000000507
                },
                {
                    "name": "D5",
                    "midi": 74,
                    "time": 164.7905265000005,
                    "velocity": 0.4881889763779528,
                    "duration": 0.14493450000000507
                },
                {
                    "name": "F5",
                    "midi": 77,
                    "time": 164.93546100000052,
                    "velocity": 0.5039370078740157,
                    "duration": 0.14493450000000507
                },
                {
                    "name": "D5",
                    "midi": 74,
                    "time": 165.08039550000052,
                    "velocity": 0.5039370078740157,
                    "duration": 0.14493450000000507
                },
                {
                    "name": "A5",
                    "midi": 81,
                    "time": 165.22533000000053,
                    "velocity": 0.5905511811023622,
                    "duration": 0.14493450000000507
                },
                {
                    "name": "F5",
                    "midi": 77,
                    "time": 165.37026450000053,
                    "velocity": 0.5275590551181102,
                    "duration": 0.14493450000000507
                },
                {
                    "name": "D5",
                    "midi": 74,
                    "time": 165.51519900000054,
                    "velocity": 0.5275590551181102,
                    "duration": 0.14493450000000507
                },
                {
                    "name": "C5",
                    "midi": 72,
                    "time": 165.66013350000054,
                    "velocity": 0.5275590551181102,
                    "duration": 0.14493450000000507
                },
                {
                    "name": "B4",
                    "midi": 71,
                    "time": 165.80506800000055,
                    "velocity": 0.4645669291338583,
                    "duration": 0.1026619374999882
                },
                {
                    "name": "G4",
                    "midi": 67,
                    "time": 165.90169100000054,
                    "velocity": 0.4330708661417323,
                    "duration": 0.1026619374999882
                },
                {
                    "name": "A4",
                    "midi": 69,
                    "time": 165.99831400000053,
                    "velocity": 0.4330708661417323,
                    "duration": 0.1026619374999882
                },
                {
                    "name": "B4",
                    "midi": 71,
                    "time": 166.09493700000053,
                    "velocity": 0.4645669291338583,
                    "duration": 0.1026619374999882
                },
                {
                    "name": "A4",
                    "midi": 69,
                    "time": 166.19156000000052,
                    "velocity": 0.4330708661417323,
                    "duration": 0.1026619374999882
                },
                {
                    "name": "G4",
                    "midi": 67,
                    "time": 166.28818300000052,
                    "velocity": 0.4330708661417323,
                    "duration": 0.1026619374999882
                },
                {
                    "name": "C5",
                    "midi": 72,
                    "time": 166.3848060000005,
                    "velocity": 0.4645669291338583,
                    "duration": 0.5797379999999919
                },
                {
                    "name": "B4",
                    "midi": 71,
                    "time": 166.9645440000005,
                    "velocity": 0.4645669291338583,
                    "duration": 0.1026619374999882
                },
                {
                    "name": "G4",
                    "midi": 67,
                    "time": 167.0611670000005,
                    "velocity": 0.4330708661417323,
                    "duration": 0.1026619374999882
                },
                {
                    "name": "A4",
                    "midi": 69,
                    "time": 167.1577900000005,
                    "velocity": 0.4330708661417323,
                    "duration": 0.1026619374999882
                },
                {
                    "name": "B4",
                    "midi": 71,
                    "time": 167.25441300000048,
                    "velocity": 0.4645669291338583,
                    "duration": 0.1026619374999882
                },
                {
                    "name": "A4",
                    "midi": 69,
                    "time": 167.35103600000048,
                    "velocity": 0.4330708661417323,
                    "duration": 0.1026619374999882
                },
                {
                    "name": "G4",
                    "midi": 67,
                    "time": 167.44765900000047,
                    "velocity": 0.4330708661417323,
                    "duration": 0.1026619374999882
                },
                {
                    "name": "C5",
                    "midi": 72,
                    "time": 167.54428200000046,
                    "velocity": 0.4645669291338583,
                    "duration": 0.5797379999999919
                },
                {
                    "name": "B4",
                    "midi": 71,
                    "time": 168.12402000000046,
                    "velocity": 0.4645669291338583,
                    "duration": 0.09662299999999391
                },
                {
                    "name": "G4",
                    "midi": 67,
                    "time": 168.22064300000045,
                    "velocity": 0.4645669291338583,
                    "duration": 0.09662299999999391
                },
                {
                    "name": "A4",
                    "midi": 69,
                    "time": 168.31726600000044,
                    "velocity": 0.4645669291338583,
                    "duration": 0.09662299999999391
                },
                {
                    "name": "B4",
                    "midi": 71,
                    "time": 168.41388900000044,
                    "velocity": 0.5039370078740157,
                    "duration": 0.09662299999999391
                },
                {
                    "name": "A4",
                    "midi": 69,
                    "time": 168.51051200000043,
                    "velocity": 0.44881889763779526,
                    "duration": 0.09662299999999391
                },
                {
                    "name": "G4",
                    "midi": 67,
                    "time": 168.60713500000043,
                    "velocity": 0.4566929133858268,
                    "duration": 0.09662299999999391
                },
                {
                    "name": "D5",
                    "midi": 74,
                    "time": 168.70375800000042,
                    "velocity": 0.5275590551181102,
                    "duration": 0.09662299999999391
                },
                {
                    "name": "B4",
                    "midi": 71,
                    "time": 168.8003810000004,
                    "velocity": 0.4645669291338583,
                    "duration": 0.09662299999999391
                },
                {
                    "name": "C5",
                    "midi": 72,
                    "time": 168.8970040000004,
                    "velocity": 0.4645669291338583,
                    "duration": 0.09662299999999391
                },
                {
                    "name": "D5",
                    "midi": 74,
                    "time": 168.9936270000004,
                    "velocity": 0.4881889763779528,
                    "duration": 0.09662299999999391
                },
                {
                    "name": "C5",
                    "midi": 72,
                    "time": 169.0902500000004,
                    "velocity": 0.5118110236220472,
                    "duration": 0.09662299999999391
                },
                {
                    "name": "B4",
                    "midi": 71,
                    "time": 169.1868730000004,
                    "velocity": 0.5275590551181102,
                    "duration": 0.09662299999999391
                },
                {
                    "name": "F5",
                    "midi": 77,
                    "time": 169.28349600000038,
                    "velocity": 0.5433070866141733,
                    "duration": 0.1026619374999882
                },
                {
                    "name": "E5",
                    "midi": 76,
                    "time": 169.38011900000038,
                    "velocity": 0.5354330708661418,
                    "duration": 0.1026619374999882
                },
                {
                    "name": "D5",
                    "midi": 74,
                    "time": 169.47674200000037,
                    "velocity": 0.5275590551181102,
                    "duration": 0.1026619374999882
                },
                {
                    "name": "C5",
                    "midi": 72,
                    "time": 169.57336500000036,
                    "velocity": 0.5196850393700787,
                    "duration": 0.1026619374999882
                },
                {
                    "name": "B4",
                    "midi": 71,
                    "time": 169.66998800000036,
                    "velocity": 0.5118110236220472,
                    "duration": 0.1026619374999882
                },
                {
                    "name": "A4",
                    "midi": 69,
                    "time": 169.76661100000035,
                    "velocity": 0.49606299212598426,
                    "duration": 0.1026619374999882
                },
                {
                    "name": "G4",
                    "midi": 67,
                    "time": 169.86323400000035,
                    "velocity": 0.4645669291338583,
                    "duration": 0.1026619374999882
                },
                {
                    "name": "A4",
                    "midi": 69,
                    "time": 169.95985700000034,
                    "velocity": 0.4330708661417323,
                    "duration": 0.1026619374999882
                },
                {
                    "name": "G4",
                    "midi": 67,
                    "time": 170.05648000000033,
                    "velocity": 0.4330708661417323,
                    "duration": 0.1026619374999882
                },
                {
                    "name": "F4",
                    "midi": 65,
                    "time": 170.15310300000033,
                    "velocity": 0.4645669291338583,
                    "duration": 0.1026619374999882
                },
                {
                    "name": "E4",
                    "midi": 64,
                    "time": 170.24972600000032,
                    "velocity": 0.4409448818897638,
                    "duration": 0.1026619374999882
                },
                {
                    "name": "D4",
                    "midi": 62,
                    "time": 170.34634900000032,
                    "velocity": 0.4409448818897638,
                    "duration": 0.1026619374999882
                },
                {
                    "name": "E4",
                    "midi": 64,
                    "time": 170.4429720000003,
                    "velocity": 0.4645669291338583,
                    "duration": 0.1026619374999882
                },
                {
                    "name": "C4",
                    "midi": 60,
                    "time": 170.5395950000003,
                    "velocity": 0.4330708661417323,
                    "duration": 0.1026619374999882
                },
                {
                    "name": "D4",
                    "midi": 62,
                    "time": 170.6362180000003,
                    "velocity": 0.4330708661417323,
                    "duration": 0.1026619374999882
                },
                {
                    "name": "E4",
                    "midi": 64,
                    "time": 170.7328410000003,
                    "velocity": 0.4645669291338583,
                    "duration": 0.1026619374999882
                },
                {
                    "name": "D4",
                    "midi": 62,
                    "time": 170.82946400000029,
                    "velocity": 0.4330708661417323,
                    "duration": 0.1026619374999882
                },
                {
                    "name": "C4",
                    "midi": 60,
                    "time": 170.92608700000028,
                    "velocity": 0.4330708661417323,
                    "duration": 0.1026619374999882
                },
                {
                    "name": "F4",
                    "midi": 65,
                    "time": 171.02271000000027,
                    "velocity": 0.4645669291338583,
                    "duration": 0.5797379999999919
                },
                {
                    "name": "E4",
                    "midi": 64,
                    "time": 171.60244800000027,
                    "velocity": 0.4645669291338583,
                    "duration": 0.1026619374999882
                },
                {
                    "name": "C5",
                    "midi": 72,
                    "time": 171.69907100000026,
                    "velocity": 0.4330708661417323,
                    "duration": 0.1026619374999882
                },
                {
                    "name": "D5",
                    "midi": 74,
                    "time": 171.79569400000025,
                    "velocity": 0.4330708661417323,
                    "duration": 0.1026619374999882
                },
                {
                    "name": "E5",
                    "midi": 76,
                    "time": 171.89231700000025,
                    "velocity": 0.4645669291338583,
                    "duration": 0.1026619374999882
                },
                {
                    "name": "D5",
                    "midi": 74,
                    "time": 171.98894000000024,
                    "velocity": 0.4330708661417323,
                    "duration": 0.1026619374999882
                },
                {
                    "name": "C5",
                    "midi": 72,
                    "time": 172.08556300000023,
                    "velocity": 0.4330708661417323,
                    "duration": 0.1026619374999882
                },
                {
                    "name": "F5",
                    "midi": 77,
                    "time": 172.18218600000023,
                    "velocity": 0.4645669291338583,
                    "duration": 0.5797379999999919
                },
                {
                    "name": "E5",
                    "midi": 76,
                    "time": 172.76192400000022,
                    "velocity": 0.4645669291338583,
                    "duration": 0.09662299999999391
                },
                {
                    "name": "C5",
                    "midi": 72,
                    "time": 172.85854700000021,
                    "velocity": 0.4645669291338583,
                    "duration": 0.09662299999999391
                },
                {
                    "name": "D5",
                    "midi": 74,
                    "time": 172.9551700000002,
                    "velocity": 0.4645669291338583,
                    "duration": 0.09662299999999391
                },
                {
                    "name": "E5",
                    "midi": 76,
                    "time": 173.0517930000002,
                    "velocity": 0.5039370078740157,
                    "duration": 0.09662299999999391
                },
                {
                    "name": "D5",
                    "midi": 74,
                    "time": 173.1484160000002,
                    "velocity": 0.44881889763779526,
                    "duration": 0.09662299999999391
                },
                {
                    "name": "C5",
                    "midi": 72,
                    "time": 173.2450390000002,
                    "velocity": 0.4566929133858268,
                    "duration": 0.09662299999999391
                },
                {
                    "name": "G5",
                    "midi": 79,
                    "time": 173.34166200000018,
                    "velocity": 0.5275590551181102,
                    "duration": 0.09662299999999391
                },
                {
                    "name": "E5",
                    "midi": 76,
                    "time": 173.43828500000018,
                    "velocity": 0.4645669291338583,
                    "duration": 0.09662299999999391
                },
                {
                    "name": "F5",
                    "midi": 77,
                    "time": 173.53490800000017,
                    "velocity": 0.4645669291338583,
                    "duration": 0.09662299999999391
                },
                {
                    "name": "G5",
                    "midi": 79,
                    "time": 173.63153100000017,
                    "velocity": 0.4881889763779528,
                    "duration": 0.09662299999999391
                },
                {
                    "name": "F5",
                    "midi": 77,
                    "time": 173.72815400000016,
                    "velocity": 0.5118110236220472,
                    "duration": 0.09662299999999391
                },
                {
                    "name": "E5",
                    "midi": 76,
                    "time": 173.82477700000015,
                    "velocity": 0.5275590551181102,
                    "duration": 0.09662299999999391
                },
                {
                    "name": "A#5",
                    "midi": 82,
                    "time": 173.92140000000015,
                    "velocity": 0.5433070866141733,
                    "duration": 0.1026619374999882
                },
                {
                    "name": "A5",
                    "midi": 81,
                    "time": 174.01802300000014,
                    "velocity": 0.5354330708661418,
                    "duration": 0.1026619374999882
                },
                {
                    "name": "G5",
                    "midi": 79,
                    "time": 174.11464600000014,
                    "velocity": 0.5275590551181102,
                    "duration": 0.1026619374999882
                },
                {
                    "name": "F5",
                    "midi": 77,
                    "time": 174.21126900000013,
                    "velocity": 0.5196850393700787,
                    "duration": 0.1026619374999882
                },
                {
                    "name": "E5",
                    "midi": 76,
                    "time": 174.30789200000012,
                    "velocity": 0.5118110236220472,
                    "duration": 0.1026619374999882
                },
                {
                    "name": "D5",
                    "midi": 74,
                    "time": 174.40451500000012,
                    "velocity": 0.49606299212598426,
                    "duration": 0.1026619374999882
                },
                {
                    "name": "C5",
                    "midi": 72,
                    "time": 174.5011380000001,
                    "velocity": 0.4645669291338583,
                    "duration": 0.1026619374999882
                },
                {
                    "name": "B4",
                    "midi": 71,
                    "time": 174.5977610000001,
                    "velocity": 0.4330708661417323,
                    "duration": 0.1026619374999882
                },
                {
                    "name": "C5",
                    "midi": 72,
                    "time": 174.6943840000001,
                    "velocity": 0.4330708661417323,
                    "duration": 0.1026619374999882
                },
                {
                    "name": "C#5",
                    "midi": 73,
                    "time": 174.7910070000001,
                    "velocity": 0.4645669291338583,
                    "duration": 0.1026619374999882
                },
                {
                    "name": "D5",
                    "midi": 74,
                    "time": 174.8876300000001,
                    "velocity": 0.4409448818897638,
                    "duration": 0.1026619374999882
                },
                {
                    "name": "A#4",
                    "midi": 70,
                    "time": 174.98425300000008,
                    "velocity": 0.4409448818897638,
                    "duration": 0.1026619374999882
                },
                {
                    "name": "A3",
                    "midi": 57,
                    "time": 175.37074500000006,
                    "velocity": 0.44881889763779526,
                    "duration": 0.09662299999999391
                },
                {
                    "name": "C4",
                    "midi": 60,
                    "time": 175.46736800000005,
                    "velocity": 0.4645669291338583,
                    "duration": 0.09662299999999391
                },
                {
                    "name": "F4",
                    "midi": 65,
                    "time": 175.56399100000004,
                    "velocity": 0.4881889763779528,
                    "duration": 0.09662299999999391
                },
                {
                    "name": "A4",
                    "midi": 69,
                    "time": 175.66061400000004,
                    "velocity": 0.5039370078740157,
                    "duration": 0.09662299999999391
                },
                {
                    "name": "C5",
                    "midi": 72,
                    "time": 175.75723700000003,
                    "velocity": 0.5196850393700787,
                    "duration": 0.09662299999999391
                },
                {
                    "name": "F5",
                    "midi": 77,
                    "time": 175.85386000000003,
                    "velocity": 0.5354330708661418,
                    "duration": 0.09662299999999391
                },
                {
                    "name": "A5",
                    "midi": 81,
                    "time": 175.95048300000002,
                    "velocity": 0.5511811023622047,
                    "duration": 0.07246724999998833
                },
                {
                    "name": "A5",
                    "midi": 81,
                    "time": 176.0954175,
                    "velocity": 0.5511811023622047,
                    "duration": 0.07246724999998833
                },
                {
                    "name": "A5",
                    "midi": 81,
                    "time": 176.24035199999997,
                    "velocity": 0.5511811023622047,
                    "duration": 0.14493450000000507
                },
                {
                    "name": "G5",
                    "midi": 79,
                    "time": 176.38528649999998,
                    "velocity": 0.5354330708661418,
                    "duration": 0.14493450000000507
                },
                {
                    "name": "F5",
                    "midi": 77,
                    "time": 176.53022099999998,
                    "velocity": 0.5196850393700787,
                    "duration": 0.07246724999998833
                },
                {
                    "name": "E5",
                    "midi": 76,
                    "time": 176.67515549999996,
                    "velocity": 0.5039370078740157,
                    "duration": 0.07246724999998833
                },
                {
                    "name": "E5",
                    "midi": 76,
                    "time": 176.82008999999994,
                    "velocity": 0.5118110236220472,
                    "duration": 0.14493450000000507
                },
                {
                    "name": "D5",
                    "midi": 74,
                    "time": 176.96502449999994,
                    "velocity": 0.49606299212598426,
                    "duration": 0.14493450000000507
                },
                {
                    "name": "C5",
                    "midi": 72,
                    "time": 177.10995899999995,
                    "velocity": 0.48031496062992124,
                    "duration": 0.07246724999998833
                },
                {
                    "name": "B4",
                    "midi": 71,
                    "time": 177.25489349999992,
                    "velocity": 0.4645669291338583,
                    "duration": 0.07246724999998833
                },
                {
                    "name": "C5",
                    "midi": 72,
                    "time": 177.3998279999999,
                    "velocity": 0.49606299212598426,
                    "duration": 0.28986900000001015
                },
                {
                    "name": "G4",
                    "midi": 67,
                    "time": 178.2694349999999,
                    "velocity": 0.3543307086614173,
                    "duration": 0.28383006249998743
                },
                {
                    "name": "B4",
                    "midi": 71,
                    "time": 178.55930399999988,
                    "velocity": 0.29133858267716534,
                    "duration": 0.14493450000000507
                },
                {
                    "name": "D5",
                    "midi": 74,
                    "time": 178.55930399999988,
                    "velocity": 0.3543307086614173,
                    "duration": 0.14493450000000507
                },
                {
                    "name": "B4",
                    "midi": 71,
                    "time": 178.8491729999999,
                    "velocity": 0.2992125984251969,
                    "duration": 0.14493450000000507
                },
                {
                    "name": "D5",
                    "midi": 74,
                    "time": 178.8491729999999,
                    "velocity": 0.3543307086614173,
                    "duration": 0.14493450000000507
                },
                {
                    "name": "B4",
                    "midi": 71,
                    "time": 179.1390419999999,
                    "velocity": 0.2992125984251969,
                    "duration": 0.14493450000000507
                },
                {
                    "name": "D5",
                    "midi": 74,
                    "time": 179.1390419999999,
                    "velocity": 0.3543307086614173,
                    "duration": 0.14493450000000507
                },
                {
                    "name": "B4",
                    "midi": 71,
                    "time": 179.4289109999999,
                    "velocity": 0.30708661417322836,
                    "duration": 0.14493450000000507
                },
                {
                    "name": "D5",
                    "midi": 74,
                    "time": 179.4289109999999,
                    "velocity": 0.36220472440944884,
                    "duration": 0.14493450000000507
                },
                {
                    "name": "C5",
                    "midi": 72,
                    "time": 179.71877999999992,
                    "velocity": 0.31496062992125984,
                    "duration": 0.869607000000002
                },
                {
                    "name": "G5",
                    "midi": 79,
                    "time": 179.71877999999992,
                    "velocity": 0.3700787401574803,
                    "duration": 0.869607000000002
                },
                {
                    "name": "C5",
                    "midi": 72,
                    "time": 180.58838699999993,
                    "velocity": 0.36220472440944884,
                    "duration": 0.28986900000001015
                },
                {
                    "name": "G5",
                    "midi": 79,
                    "time": 180.58838699999993,
                    "velocity": 0.36220472440944884,
                    "duration": 0.28986900000001015
                },
                {
                    "name": "D#5",
                    "midi": 75,
                    "time": 180.87825599999994,
                    "velocity": 0.31496062992125984,
                    "duration": 0.5682640187499999
                },
                {
                    "name": "C5",
                    "midi": 72,
                    "time": 180.87825599999994,
                    "velocity": 0.31496062992125984,
                    "duration": 0.5682640187499999
                },
                {
                    "name": "F#5",
                    "midi": 78,
                    "time": 180.87825599999994,
                    "velocity": 0.3779527559055118,
                    "duration": 0.5682640187499999
                },
                {
                    "name": "D5",
                    "midi": 74,
                    "time": 181.45799399999993,
                    "velocity": 0.29133858267716534,
                    "duration": 0.5682640187499999
                },
                {
                    "name": "C5",
                    "midi": 72,
                    "time": 181.45799399999993,
                    "velocity": 0.29133858267716534,
                    "duration": 0.5682640187499999
                },
                {
                    "name": "F#5",
                    "midi": 78,
                    "time": 181.45799399999993,
                    "velocity": 0.3543307086614173,
                    "duration": 0.5682640187499999
                },
                {
                    "name": "B4",
                    "midi": 71,
                    "time": 182.03773199999992,
                    "velocity": 0.30708661417322836,
                    "duration": 0.28986900000001015
                },
                {
                    "name": "D5",
                    "midi": 74,
                    "time": 182.03773199999992,
                    "velocity": 0.30708661417322836,
                    "duration": 0.28986900000001015
                },
                {
                    "name": "G5",
                    "midi": 79,
                    "time": 182.03773199999992,
                    "velocity": 0.36220472440944884,
                    "duration": 0.28986900000001015
                },
                {
                    "name": "G3",
                    "midi": 55,
                    "time": 182.90733899999992,
                    "velocity": 0.3543307086614173,
                    "duration": 0.2862456375000022
                },
                {
                    "name": "B3",
                    "midi": 59,
                    "time": 183.19720799999993,
                    "velocity": 0.29133858267716534,
                    "duration": 0.14493450000000507
                },
                {
                    "name": "D4",
                    "midi": 62,
                    "time": 183.19720799999993,
                    "velocity": 0.3543307086614173,
                    "duration": 0.14493450000000507
                },
                {
                    "name": "B3",
                    "midi": 59,
                    "time": 183.48707699999994,
                    "velocity": 0.2992125984251969,
                    "duration": 0.14493450000000507
                },
                {
                    "name": "D4",
                    "midi": 62,
                    "time": 183.48707699999994,
                    "velocity": 0.3543307086614173,
                    "duration": 0.14493450000000507
                },
                {
                    "name": "B3",
                    "midi": 59,
                    "time": 183.77694599999995,
                    "velocity": 0.2992125984251969,
                    "duration": 0.14493450000000507
                },
                {
                    "name": "D4",
                    "midi": 62,
                    "time": 183.77694599999995,
                    "velocity": 0.3543307086614173,
                    "duration": 0.14493450000000507
                },
                {
                    "name": "B3",
                    "midi": 59,
                    "time": 184.06681499999996,
                    "velocity": 0.30708661417322836,
                    "duration": 0.14493450000000507
                },
                {
                    "name": "D4",
                    "midi": 62,
                    "time": 184.06681499999996,
                    "velocity": 0.36220472440944884,
                    "duration": 0.14493450000000507
                },
                {
                    "name": "G4",
                    "midi": 67,
                    "time": 184.35668399999997,
                    "velocity": 0.3700787401574803,
                    "duration": 0.8696070000000304
                },
                {
                    "name": "B3",
                    "midi": 59,
                    "time": 184.64655299999998,
                    "velocity": 0.31496062992125984,
                    "duration": 0.28986900000001015
                },
                {
                    "name": "C4",
                    "midi": 60,
                    "time": 184.936422,
                    "velocity": 0.31496062992125984,
                    "duration": 0.7246725000000254
                },
                {
                    "name": "G4",
                    "midi": 67,
                    "time": 185.226291,
                    "velocity": 0.3543307086614173,
                    "duration": 0.28986900000001015
                },
                {
                    "name": "F4",
                    "midi": 65,
                    "time": 185.51616,
                    "velocity": 0.3937007874015748,
                    "duration": 0.14493450000000507
                },
                {
                    "name": "C4",
                    "midi": 60,
                    "time": 185.80602900000002,
                    "velocity": 0.3858267716535433,
                    "duration": 0.14493450000000507
                },
                {
                    "name": "F4",
                    "midi": 65,
                    "time": 185.80602900000002,
                    "velocity": 0.3858267716535433,
                    "duration": 0.14493450000000507
                },
                {
                    "name": "D4",
                    "midi": 62,
                    "time": 186.09589800000003,
                    "velocity": 0.3858267716535433,
                    "duration": 0.14493450000000507
                },
                {
                    "name": "F4",
                    "midi": 65,
                    "time": 186.09589800000003,
                    "velocity": 0.3858267716535433,
                    "duration": 0.14493450000000507
                },
                {
                    "name": "D4",
                    "midi": 62,
                    "time": 186.38576700000004,
                    "velocity": 0.3858267716535433,
                    "duration": 0.5797380000000203
                },
                {
                    "name": "F4",
                    "midi": 65,
                    "time": 186.38576700000004,
                    "velocity": 0.3858267716535433,
                    "duration": 0.14493450000000507
                },
                {
                    "name": "A#4",
                    "midi": 70,
                    "time": 186.67563600000005,
                    "velocity": 0.4251968503937008,
                    "duration": 0.8696070000000304
                },
                {
                    "name": "D4",
                    "midi": 62,
                    "time": 186.96550500000006,
                    "velocity": 0.4015748031496063,
                    "duration": 0.28986900000001015
                },
                {
                    "name": "D#4",
                    "midi": 63,
                    "time": 187.25537400000007,
                    "velocity": 0.4015748031496063,
                    "duration": 0.8696070000000304
                },
                {
                    "name": "A#4",
                    "midi": 70,
                    "time": 187.54524300000008,
                    "velocity": 0.41732283464566927,
                    "duration": 0.28986900000001015
                },
                {
                    "name": "A4",
                    "midi": 69,
                    "time": 187.8351120000001,
                    "velocity": 0.4645669291338583,
                    "duration": 0.14493450000000507
                },
                {
                    "name": "F#4",
                    "midi": 66,
                    "time": 188.1249810000001,
                    "velocity": 0.4409448818897638,
                    "duration": 0.14493450000000507
                },
                {
                    "name": "A4",
                    "midi": 69,
                    "time": 188.1249810000001,
                    "velocity": 0.4409448818897638,
                    "duration": 0.14493450000000507
                },
                {
                    "name": "F#4",
                    "midi": 66,
                    "time": 188.41485000000011,
                    "velocity": 0.4409448818897638,
                    "duration": 0.14493450000000507
                },
                {
                    "name": "A4",
                    "midi": 69,
                    "time": 188.41485000000011,
                    "velocity": 0.4409448818897638,
                    "duration": 0.14493450000000507
                },
                {
                    "name": "F#4",
                    "midi": 66,
                    "time": 188.70471900000013,
                    "velocity": 0.4330708661417323,
                    "duration": 0.5797380000000203
                },
                {
                    "name": "A4",
                    "midi": 69,
                    "time": 188.70471900000013,
                    "velocity": 0.4330708661417323,
                    "duration": 0.14493450000000507
                },
                {
                    "name": "D5",
                    "midi": 74,
                    "time": 188.99458800000014,
                    "velocity": 0.48031496062992124,
                    "duration": 0.8696070000000304
                },
                {
                    "name": "F#4",
                    "midi": 66,
                    "time": 189.28445700000015,
                    "velocity": 0.4251968503937008,
                    "duration": 0.28986900000001015
                },
                {
                    "name": "G4",
                    "midi": 67,
                    "time": 189.57432600000016,
                    "velocity": 0.4251968503937008,
                    "duration": 0.28986900000001015
                },
                {
                    "name": "F#4",
                    "midi": 66,
                    "time": 189.86419500000017,
                    "velocity": 0.4881889763779528,
                    "duration": 0.5797380000000203
                },
                {
                    "name": "A4",
                    "midi": 69,
                    "time": 189.86419500000017,
                    "velocity": 0.4881889763779528,
                    "duration": 0.28986900000001015
                },
                {
                    "name": "D5",
                    "midi": 74,
                    "time": 190.15406400000018,
                    "velocity": 0.49606299212598426,
                    "duration": 0.8696070000000304
                },
                {
                    "name": "F#4",
                    "midi": 66,
                    "time": 190.4439330000002,
                    "velocity": 0.4330708661417323,
                    "duration": 0.28986900000001015
                },
                {
                    "name": "G4",
                    "midi": 67,
                    "time": 190.7338020000002,
                    "velocity": 0.3937007874015748,
                    "duration": 0.28986900000001015
                },
                {
                    "name": "B4",
                    "midi": 71,
                    "time": 191.0236710000002,
                    "velocity": 0.4251968503937008,
                    "duration": 0.5797380000000203
                },
                {
                    "name": "D5",
                    "midi": 74,
                    "time": 191.0236710000002,
                    "velocity": 0.4251968503937008,
                    "duration": 0.28986900000001015
                },
                {
                    "name": "G5",
                    "midi": 79,
                    "time": 191.31354000000022,
                    "velocity": 0.4566929133858268,
                    "duration": 0.8696070000000304
                },
                {
                    "name": "B4",
                    "midi": 71,
                    "time": 191.60340900000023,
                    "velocity": 0.4094488188976378,
                    "duration": 0.28986900000001015
                },
                {
                    "name": "C5",
                    "midi": 72,
                    "time": 191.89327800000024,
                    "velocity": 0.4330708661417323,
                    "duration": 0.28986900000001015
                },
                {
                    "name": "B4",
                    "midi": 71,
                    "time": 192.18314700000025,
                    "velocity": 0.44881889763779526,
                    "duration": 0.5797380000000203
                },
                {
                    "name": "D5",
                    "midi": 74,
                    "time": 192.18314700000025,
                    "velocity": 0.44881889763779526,
                    "duration": 0.28986900000001015
                },
                {
                    "name": "G5",
                    "midi": 79,
                    "time": 192.47301600000026,
                    "velocity": 0.49606299212598426,
                    "duration": 0.8696070000000304
                },
                {
                    "name": "B4",
                    "midi": 71,
                    "time": 192.76288500000027,
                    "velocity": 0.4330708661417323,
                    "duration": 0.28986900000001015
                },
                {
                    "name": "C5",
                    "midi": 72,
                    "time": 193.05275400000028,
                    "velocity": 0.4330708661417323,
                    "duration": 0.28986900000001015
                },
                {
                    "name": "B4",
                    "midi": 71,
                    "time": 193.3426230000003,
                    "velocity": 0.47244094488188976,
                    "duration": 0.5797380000000203
                },
                {
                    "name": "D5",
                    "midi": 74,
                    "time": 193.3426230000003,
                    "velocity": 0.47244094488188976,
                    "duration": 0.28986900000001015
                },
                {
                    "name": "G#5",
                    "midi": 80,
                    "time": 193.6324920000003,
                    "velocity": 0.5433070866141733,
                    "duration": 0.8696070000000304
                },
                {
                    "name": "A#4",
                    "midi": 70,
                    "time": 193.9223610000003,
                    "velocity": 0.3858267716535433,
                    "duration": 0.28986900000001015
                },
                {
                    "name": "B4",
                    "midi": 71,
                    "time": 194.21223000000032,
                    "velocity": 0.3858267716535433,
                    "duration": 0.28986900000001015
                },
                {
                    "name": "D5",
                    "midi": 74,
                    "time": 194.50209900000033,
                    "velocity": 0.4409448818897638,
                    "duration": 0.28986900000001015
                },
                {
                    "name": "G5",
                    "midi": 79,
                    "time": 194.79196800000034,
                    "velocity": 0.5118110236220472,
                    "duration": 0.8696070000000304
                },
                {
                    "name": "A#4",
                    "midi": 70,
                    "time": 195.08183700000035,
                    "velocity": 0.3700787401574803,
                    "duration": 0.28986900000001015
                },
                {
                    "name": "B4",
                    "midi": 71,
                    "time": 195.37170600000036,
                    "velocity": 0.3779527559055118,
                    "duration": 0.28986900000001015
                },
                {
                    "name": "D5",
                    "midi": 74,
                    "time": 195.66157500000037,
                    "velocity": 0.4251968503937008,
                    "duration": 0.28986900000001015
                },
                {
                    "name": "F#5",
                    "midi": 78,
                    "time": 195.95144400000038,
                    "velocity": 0.47244094488188976,
                    "duration": 0.8696070000000304
                },
                {
                    "name": "A#4",
                    "midi": 70,
                    "time": 196.2413130000004,
                    "velocity": 0.2992125984251969,
                    "duration": 0.28986900000001015
                },
                {
                    "name": "B4",
                    "midi": 71,
                    "time": 196.5311820000004,
                    "velocity": 0.2992125984251969,
                    "duration": 0.28986900000001015
                },
                {
                    "name": "D5",
                    "midi": 74,
                    "time": 196.8210510000004,
                    "velocity": 0.31496062992125984,
                    "duration": 0.5797380000000203
                },
                {
                    "name": "F5",
                    "midi": 77,
                    "time": 197.11092000000042,
                    "velocity": 0.3700787401574803,
                    "duration": 0.8696070000000304
                },
                {
                    "name": "A#4",
                    "midi": 70,
                    "time": 197.40078900000043,
                    "velocity": 0.29133858267716534,
                    "duration": 0.28986900000001015
                },
                {
                    "name": "B4",
                    "midi": 71,
                    "time": 197.69065800000044,
                    "velocity": 0.29133858267716534,
                    "duration": 0.5797380000000203
                },
                {
                    "name": "G4",
                    "midi": 67,
                    "time": 198.27039600000046,
                    "velocity": 0.3464566929133858,
                    "duration": 0.4348034999999868
                },
                {
                    "name": "C5",
                    "midi": 72,
                    "time": 198.27039600000046,
                    "velocity": 0.3464566929133858,
                    "duration": 0.4348034999999868
                },
                {
                    "name": "D#5",
                    "midi": 75,
                    "time": 198.27039600000046,
                    "velocity": 0.4094488188976378,
                    "duration": 0.4348034999999868
                },
                {
                    "name": "F5",
                    "midi": 77,
                    "time": 198.70519950000045,
                    "velocity": 0.3937007874015748,
                    "duration": 0.14493450000000507
                },
                {
                    "name": "D5",
                    "midi": 74,
                    "time": 198.85013400000045,
                    "velocity": 0.41732283464566927,
                    "duration": 0.4348034999999868
                },
                {
                    "name": "D#5",
                    "midi": 75,
                    "time": 199.28493750000044,
                    "velocity": 0.3937007874015748,
                    "duration": 0.14493450000000507
                },
                {
                    "name": "C5",
                    "midi": 72,
                    "time": 199.42987200000044,
                    "velocity": 0.4094488188976378,
                    "duration": 0.5435043749999977
                },
                {
                    "name": "D5",
                    "midi": 74,
                    "time": 199.97337637500044,
                    "velocity": 0.3779527559055118,
                    "duration": 0.03623362499999416
                },
                {
                    "name": "C5",
                    "midi": 72,
                    "time": 200.00961000000044,
                    "velocity": 0.4094488188976378,
                    "duration": 0.14493450000000507
                },
                {
                    "name": "B4",
                    "midi": 71,
                    "time": 200.15454450000044,
                    "velocity": 0.4015748031496063,
                    "duration": 0.14493450000000507
                },
                {
                    "name": "C5",
                    "midi": 72,
                    "time": 200.29947900000045,
                    "velocity": 0.4015748031496063,
                    "duration": 0.14493450000000507
                },
                {
                    "name": "D5",
                    "midi": 74,
                    "time": 200.44441350000045,
                    "velocity": 0.3937007874015748,
                    "duration": 0.10870087500001091
                },
                {
                    "name": "F5",
                    "midi": 77,
                    "time": 200.55311437500046,
                    "velocity": 0.3858267716535433,
                    "duration": 0.03623362499999416
                },
                {
                    "name": "D#5",
                    "midi": 75,
                    "time": 200.58934800000046,
                    "velocity": 0.4409448818897638,
                    "duration": 0.14493450000000507
                },
                {
                    "name": "D5",
                    "midi": 74,
                    "time": 200.73428250000046,
                    "velocity": 0.4094488188976378,
                    "duration": 0.14493450000000507
                },
                {
                    "name": "D#5",
                    "midi": 75,
                    "time": 200.87921700000047,
                    "velocity": 0.4094488188976378,
                    "duration": 0.14493450000000507
                },
                {
                    "name": "F5",
                    "midi": 77,
                    "time": 201.02415150000047,
                    "velocity": 0.4094488188976378,
                    "duration": 0.14493450000000507
                },
                {
                    "name": "G5",
                    "midi": 79,
                    "time": 201.16908600000048,
                    "velocity": 0.4409448818897638,
                    "duration": 0.14493450000000507
                },
                {
                    "name": "G5",
                    "midi": 79,
                    "time": 201.4589550000005,
                    "velocity": 0.4330708661417323,
                    "duration": 0.14493450000000507
                },
                {
                    "name": "G5",
                    "midi": 79,
                    "time": 201.7488240000005,
                    "velocity": 0.44881889763779526,
                    "duration": 0.869607000000002
                },
                {
                    "name": "F5",
                    "midi": 77,
                    "time": 202.6184310000005,
                    "velocity": 0.4015748031496063,
                    "duration": 0.14493450000000507
                },
                {
                    "name": "G5",
                    "midi": 79,
                    "time": 202.7633655000005,
                    "velocity": 0.41732283464566927,
                    "duration": 0.07246724999998833
                },
                {
                    "name": "F5",
                    "midi": 77,
                    "time": 202.8358327500005,
                    "velocity": 0.3779527559055118,
                    "duration": 0.03623362499999416
                },
                {
                    "name": "G5",
                    "midi": 79,
                    "time": 202.8720663750005,
                    "velocity": 0.3779527559055118,
                    "duration": 0.03623362499999416
                },
                {
                    "name": "G#5",
                    "midi": 80,
                    "time": 202.90830000000048,
                    "velocity": 0.4409448818897638,
                    "duration": 0.5797379999999919
                },
                {
                    "name": "D5",
                    "midi": 74,
                    "time": 203.48803800000047,
                    "velocity": 0.4094488188976378,
                    "duration": 0.28986900000001015
                },
                {
                    "name": "D#5",
                    "midi": 75,
                    "time": 203.77790700000048,
                    "velocity": 0.4015748031496063,
                    "duration": 0.14493450000000507
                },
                {
                    "name": "F5",
                    "midi": 77,
                    "time": 203.9228415000005,
                    "velocity": 0.41732283464566927,
                    "duration": 0.07246724999998833
                },
                {
                    "name": "D#5",
                    "midi": 75,
                    "time": 203.99530875000048,
                    "velocity": 0.3937007874015748,
                    "duration": 0.03623362499999416
                },
                {
                    "name": "F5",
                    "midi": 77,
                    "time": 204.03154237500047,
                    "velocity": 0.3937007874015748,
                    "duration": 0.03623362499999416
                },
                {
                    "name": "G5",
                    "midi": 79,
                    "time": 204.06777600000046,
                    "velocity": 0.4409448818897638,
                    "duration": 0.5797379999999919
                },
                {
                    "name": "C5",
                    "midi": 72,
                    "time": 204.64751400000046,
                    "velocity": 0.4094488188976378,
                    "duration": 0.28383006249998743
                },
                {
                    "name": "C5",
                    "midi": 72,
                    "time": 204.93738300000044,
                    "velocity": 0.41732283464566927,
                    "duration": 0.14493450000000507
                },
                {
                    "name": "D5",
                    "midi": 74,
                    "time": 205.08231750000044,
                    "velocity": 0.4251968503937008,
                    "duration": 0.14493450000000507
                },
                {
                    "name": "D#5",
                    "midi": 75,
                    "time": 205.22725200000045,
                    "velocity": 0.44881889763779526,
                    "duration": 0.14493450000000507
                },
                {
                    "name": "D#5",
                    "midi": 75,
                    "time": 205.51712100000046,
                    "velocity": 0.41732283464566927,
                    "duration": 0.14493450000000507
                },
                {
                    "name": "F5",
                    "midi": 77,
                    "time": 205.66205550000046,
                    "velocity": 0.4330708661417323,
                    "duration": 0.14493450000000507
                },
                {
                    "name": "D5",
                    "midi": 74,
                    "time": 205.80699000000047,
                    "velocity": 0.44881889763779526,
                    "duration": 0.14493450000000507
                },
                {
                    "name": "D5",
                    "midi": 74,
                    "time": 206.09685900000048,
                    "velocity": 0.4015748031496063,
                    "duration": 0.14493450000000507
                },
                {
                    "name": "D#5",
                    "midi": 75,
                    "time": 206.24179350000048,
                    "velocity": 0.4251968503937008,
                    "duration": 0.14493450000000507
                },
                {
                    "name": "C5",
                    "midi": 72,
                    "time": 206.3867280000005,
                    "velocity": 0.44881889763779526,
                    "duration": 0.14493450000000507
                },
                {
                    "name": "B4",
                    "midi": 71,
                    "time": 206.5316625000005,
                    "velocity": 0.4094488188976378,
                    "duration": 0.14493450000000507
                },
                {
                    "name": "C5",
                    "midi": 72,
                    "time": 206.6765970000005,
                    "velocity": 0.41732283464566927,
                    "duration": 0.14493450000000507
                },
                {
                    "name": "D5",
                    "midi": 74,
                    "time": 206.8215315000005,
                    "velocity": 0.4251968503937008,
                    "duration": 0.14493450000000507
                },
                {
                    "name": "D#5",
                    "midi": 75,
                    "time": 206.9664660000005,
                    "velocity": 0.4330708661417323,
                    "duration": 0.14493450000000507
                },
                {
                    "name": "E5",
                    "midi": 76,
                    "time": 207.1114005000005,
                    "velocity": 0.4409448818897638,
                    "duration": 0.14493450000000507
                },
                {
                    "name": "F5",
                    "midi": 77,
                    "time": 207.25633500000052,
                    "velocity": 0.4566929133858268,
                    "duration": 0.14493450000000507
                },
                {
                    "name": "G5",
                    "midi": 79,
                    "time": 207.40126950000052,
                    "velocity": 0.4645669291338583,
                    "duration": 0.14493450000000507
                },
                {
                    "name": "G#5",
                    "midi": 80,
                    "time": 207.54620400000053,
                    "velocity": 0.47244094488188976,
                    "duration": 0.14493450000000507
                },
                {
                    "name": "G5",
                    "midi": 79,
                    "time": 207.69113850000053,
                    "velocity": 0.44881889763779526,
                    "duration": 0.14493450000000507
                },
                {
                    "name": "A#5",
                    "midi": 82,
                    "time": 207.83607300000054,
                    "velocity": 0.49606299212598426,
                    "duration": 0.14493450000000507
                },
                {
                    "name": "G#5",
                    "midi": 80,
                    "time": 207.98100750000054,
                    "velocity": 0.4881889763779528,
                    "duration": 0.14493450000000507
                },
                {
                    "name": "G5",
                    "midi": 79,
                    "time": 208.12594200000055,
                    "velocity": 0.4881889763779528,
                    "duration": 0.14493450000000507
                },
                {
                    "name": "F5",
                    "midi": 77,
                    "time": 208.27087650000055,
                    "velocity": 0.48031496062992124,
                    "duration": 0.14493450000000507
                },
                {
                    "name": "D#5",
                    "midi": 75,
                    "time": 208.41581100000056,
                    "velocity": 0.47244094488188976,
                    "duration": 0.14493450000000507
                },
                {
                    "name": "D5",
                    "midi": 74,
                    "time": 208.56074550000056,
                    "velocity": 0.4566929133858268,
                    "duration": 0.14493450000000507
                },
                {
                    "name": "G5",
                    "midi": 79,
                    "time": 208.70568000000057,
                    "velocity": 0.5196850393700787,
                    "duration": 0.14493450000000507
                },
                {
                    "name": "F#5",
                    "midi": 78,
                    "time": 208.85061450000057,
                    "velocity": 0.47244094488188976,
                    "duration": 0.14493450000000507
                },
                {
                    "name": "G#5",
                    "midi": 80,
                    "time": 208.99554900000058,
                    "velocity": 0.5275590551181102,
                    "duration": 0.14493450000000507
                },
                {
                    "name": "G5",
                    "midi": 79,
                    "time": 209.14048350000058,
                    "velocity": 0.5196850393700787,
                    "duration": 0.14493450000000507
                },
                {
                    "name": "F5",
                    "midi": 77,
                    "time": 209.2854180000006,
                    "velocity": 0.5196850393700787,
                    "duration": 0.14493450000000507
                },
                {
                    "name": "D#5",
                    "midi": 75,
                    "time": 209.4303525000006,
                    "velocity": 0.5118110236220472,
                    "duration": 0.14493450000000507
                },
                {
                    "name": "D5",
                    "midi": 74,
                    "time": 209.5752870000006,
                    "velocity": 0.5118110236220472,
                    "duration": 0.14493450000000507
                },
                {
                    "name": "C5",
                    "midi": 72,
                    "time": 209.7202215000006,
                    "velocity": 0.5039370078740157,
                    "duration": 0.14493450000000507
                },
                {
                    "name": "D#5",
                    "midi": 75,
                    "time": 209.8651560000006,
                    "velocity": 0.5590551181102362,
                    "duration": 0.14493450000000507
                },
                {
                    "name": "D5",
                    "midi": 74,
                    "time": 210.01009050000062,
                    "velocity": 0.5039370078740157,
                    "duration": 0.14493450000000507
                },
                {
                    "name": "F5",
                    "midi": 77,
                    "time": 210.15502500000062,
                    "velocity": 0.5511811023622047,
                    "duration": 0.14493450000000507
                },
                {
                    "name": "D#5",
                    "midi": 75,
                    "time": 210.29995950000063,
                    "velocity": 0.4881889763779528,
                    "duration": 0.14493450000000507
                },
                {
                    "name": "D5",
                    "midi": 74,
                    "time": 210.44489400000063,
                    "velocity": 0.5433070866141733,
                    "duration": 0.14493450000000507
                },
                {
                    "name": "C#5",
                    "midi": 73,
                    "time": 210.58982850000064,
                    "velocity": 0.5196850393700787,
                    "duration": 0.14493450000000507
                },
                {
                    "name": "D#5",
                    "midi": 75,
                    "time": 210.73476300000064,
                    "velocity": 0.5039370078740157,
                    "duration": 0.14493450000000507
                },
                {
                    "name": "D5",
                    "midi": 74,
                    "time": 210.87969750000065,
                    "velocity": 0.47244094488188976,
                    "duration": 0.14493450000000507
                },
                {
                    "name": "C5",
                    "midi": 72,
                    "time": 211.02463200000065,
                    "velocity": 0.5196850393700787,
                    "duration": 0.28986900000001015
                },
                {
                    "name": "C6",
                    "midi": 84,
                    "time": 211.70099300000066,
                    "velocity": 0.5354330708661418,
                    "duration": 0.09662299999999391
                },
                {
                    "name": "D6",
                    "midi": 86,
                    "time": 211.79761600000066,
                    "velocity": 0.5511811023622047,
                    "duration": 0.09662299999999391
                },
                {
                    "name": "E6",
                    "midi": 88,
                    "time": 211.89423900000065,
                    "velocity": 0.5748031496062992,
                    "duration": 0.09662299999999391
                },
                {
                    "name": "D6",
                    "midi": 86,
                    "time": 211.99086200000065,
                    "velocity": 0.5511811023622047,
                    "duration": 0.09662299999999391
                },
                {
                    "name": "C6",
                    "midi": 84,
                    "time": 212.08748500000064,
                    "velocity": 0.5196850393700787,
                    "duration": 0.09662299999999391
                },
                {
                    "name": "F6",
                    "midi": 89,
                    "time": 212.18410800000063,
                    "velocity": 0.6062992125984252,
                    "duration": 0.14493450000000507
                },
                {
                    "name": "C6",
                    "midi": 84,
                    "time": 212.86046900000065,
                    "velocity": 0.5196850393700787,
                    "duration": 0.09662299999999391
                },
                {
                    "name": "D6",
                    "midi": 86,
                    "time": 212.95709200000064,
                    "velocity": 0.5433070866141733,
                    "duration": 0.09662299999999391
                },
                {
                    "name": "E6",
                    "midi": 88,
                    "time": 213.05371500000064,
                    "velocity": 0.5669291338582677,
                    "duration": 0.09662299999999391
                },
                {
                    "name": "D6",
                    "midi": 86,
                    "time": 213.15033800000063,
                    "velocity": 0.5511811023622047,
                    "duration": 0.09662299999999391
                },
                {
                    "name": "C6",
                    "midi": 84,
                    "time": 213.24696100000062,
                    "velocity": 0.5275590551181102,
                    "duration": 0.09662299999999391
                },
                {
                    "name": "F6",
                    "midi": 89,
                    "time": 213.34358400000062,
                    "velocity": 0.6062992125984252,
                    "duration": 0.14493450000000507
                },
                {
                    "name": "C6",
                    "midi": 84,
                    "time": 214.01994500000063,
                    "velocity": 0.5196850393700787,
                    "duration": 0.09662299999999391
                },
                {
                    "name": "D6",
                    "midi": 86,
                    "time": 214.11656800000063,
                    "velocity": 0.5433070866141733,
                    "duration": 0.09662299999999391
                },
                {
                    "name": "E6",
                    "midi": 88,
                    "time": 214.21319100000062,
                    "velocity": 0.5669291338582677,
                    "duration": 0.09662299999999391
                },
                {
                    "name": "D6",
                    "midi": 86,
                    "time": 214.3098140000006,
                    "velocity": 0.5511811023622047,
                    "duration": 0.09662299999999391
                },
                {
                    "name": "C6",
                    "midi": 84,
                    "time": 214.4064370000006,
                    "velocity": 0.5275590551181102,
                    "duration": 0.09662299999999391
                },
                {
                    "name": "F6",
                    "midi": 89,
                    "time": 214.5030600000006,
                    "velocity": 0.6771653543307087,
                    "duration": 0.14493450000000507
                },
                {
                    "name": "C5",
                    "midi": 72,
                    "time": 214.7929290000006,
                    "velocity": 0.5984251968503937,
                    "duration": 0.14493450000000507
                },
                {
                    "name": "D#5",
                    "midi": 75,
                    "time": 214.7929290000006,
                    "velocity": 0.5984251968503937,
                    "duration": 0.14493450000000507
                },
                {
                    "name": "F#5",
                    "midi": 78,
                    "time": 214.7929290000006,
                    "velocity": 0.5984251968503937,
                    "duration": 0.14493450000000507
                },
                {
                    "name": "C6",
                    "midi": 84,
                    "time": 214.7929290000006,
                    "velocity": 0.7086614173228346,
                    "duration": 0.14493450000000507
                },
                {
                    "name": "C5",
                    "midi": 72,
                    "time": 215.08279800000062,
                    "velocity": 0.5984251968503937,
                    "duration": 0.14493450000000507
                },
                {
                    "name": "D#5",
                    "midi": 75,
                    "time": 215.08279800000062,
                    "velocity": 0.5984251968503937,
                    "duration": 0.14493450000000507
                },
                {
                    "name": "G5",
                    "midi": 79,
                    "time": 215.08279800000062,
                    "velocity": 0.5984251968503937,
                    "duration": 0.14493450000000507
                },
                {
                    "name": "C6",
                    "midi": 84,
                    "time": 215.08279800000062,
                    "velocity": 0.7086614173228346,
                    "duration": 0.14493450000000507
                },
                {
                    "name": "B4",
                    "midi": 71,
                    "time": 215.37266700000063,
                    "velocity": 0.5984251968503937,
                    "duration": 0.14493450000000507
                },
                {
                    "name": "D5",
                    "midi": 74,
                    "time": 215.37266700000063,
                    "velocity": 0.5984251968503937,
                    "duration": 0.14493450000000507
                },
                {
                    "name": "G5",
                    "midi": 79,
                    "time": 215.37266700000063,
                    "velocity": 0.5984251968503937,
                    "duration": 0.14493450000000507
                },
                {
                    "name": "B5",
                    "midi": 83,
                    "time": 215.37266700000063,
                    "velocity": 0.7086614173228346,
                    "duration": 0.14493450000000507
                },
                {
                    "name": "C5",
                    "midi": 72,
                    "time": 215.66253600000064,
                    "velocity": 0.5984251968503937,
                    "duration": 0.14493450000000507
                },
                {
                    "name": "D#5",
                    "midi": 75,
                    "time": 215.66253600000064,
                    "velocity": 0.5984251968503937,
                    "duration": 0.14493450000000507
                },
                {
                    "name": "G5",
                    "midi": 79,
                    "time": 215.66253600000064,
                    "velocity": 0.5984251968503937,
                    "duration": 0.14493450000000507
                },
                {
                    "name": "C6",
                    "midi": 84,
                    "time": 215.66253600000064,
                    "velocity": 0.7086614173228346,
                    "duration": 0.14493450000000507
                },
                {
                    "name": "C5",
                    "midi": 72,
                    "time": 216.33889700000066,
                    "velocity": 0.5354330708661418,
                    "duration": 0.09662299999999391
                },
                {
                    "name": "D5",
                    "midi": 74,
                    "time": 216.43552000000065,
                    "velocity": 0.5511811023622047,
                    "duration": 0.09662299999999391
                },
                {
                    "name": "E5",
                    "midi": 76,
                    "time": 216.53214300000064,
                    "velocity": 0.5748031496062992,
                    "duration": 0.09662299999999391
                },
                {
                    "name": "D5",
                    "midi": 74,
                    "time": 216.62876600000064,
                    "velocity": 0.5511811023622047,
                    "duration": 0.09662299999999391
                },
                {
                    "name": "C5",
                    "midi": 72,
                    "time": 216.72538900000063,
                    "velocity": 0.5196850393700787,
                    "duration": 0.09662299999999391
                },
                {
                    "name": "F5",
                    "midi": 77,
                    "time": 216.82201200000063,
                    "velocity": 0.6062992125984252,
                    "duration": 0.14493450000000507
                },
                {
                    "name": "C5",
                    "midi": 72,
                    "time": 217.49837300000064,
                    "velocity": 0.5196850393700787,
                    "duration": 0.09662299999999391
                },
                {
                    "name": "D5",
                    "midi": 74,
                    "time": 217.59499600000063,
                    "velocity": 0.5433070866141733,
                    "duration": 0.09662299999999391
                },
                {
                    "name": "E5",
                    "midi": 76,
                    "time": 217.69161900000063,
                    "velocity": 0.5669291338582677,
                    "duration": 0.09662299999999391
                },
                {
                    "name": "D5",
                    "midi": 74,
                    "time": 217.78824200000062,
                    "velocity": 0.5511811023622047,
                    "duration": 0.09662299999999391
                },
                {
                    "name": "C5",
                    "midi": 72,
                    "time": 217.88486500000062,
                    "velocity": 0.5275590551181102,
                    "duration": 0.09662299999999391
                },
                {
                    "name": "F5",
                    "midi": 77,
                    "time": 217.9814880000006,
                    "velocity": 0.6062992125984252,
                    "duration": 0.14493450000000507
                },
                {
                    "name": "C4",
                    "midi": 60,
                    "time": 218.65784900000062,
                    "velocity": 0.5196850393700787,
                    "duration": 0.09662299999999391
                },
                {
                    "name": "D4",
                    "midi": 62,
                    "time": 218.75447200000062,
                    "velocity": 0.5433070866141733,
                    "duration": 0.09662299999999391
                },
                {
                    "name": "E4",
                    "midi": 64,
                    "time": 218.8510950000006,
                    "velocity": 0.5669291338582677,
                    "duration": 0.09662299999999391
                },
                {
                    "name": "D4",
                    "midi": 62,
                    "time": 218.9477180000006,
                    "velocity": 0.5511811023622047,
                    "duration": 0.09662299999999391
                },
                {
                    "name": "C4",
                    "midi": 60,
                    "time": 219.0443410000006,
                    "velocity": 0.5275590551181102,
                    "duration": 0.09662299999999391
                },
                {
                    "name": "F4",
                    "midi": 65,
                    "time": 219.1409640000006,
                    "velocity": 0.49606299212598426,
                    "duration": 0.09662299999999391
                },
                {
                    "name": "C4",
                    "midi": 60,
                    "time": 219.2375870000006,
                    "velocity": 0.3937007874015748,
                    "duration": 0.09662299999999391
                },
                {
                    "name": "D4",
                    "midi": 62,
                    "time": 219.33421000000058,
                    "velocity": 0.3937007874015748,
                    "duration": 0.09662299999999391
                },
                {
                    "name": "D#4",
                    "midi": 63,
                    "time": 219.43083300000058,
                    "velocity": 0.49606299212598426,
                    "duration": 0.09662299999999391
                },
                {
                    "name": "D4",
                    "midi": 62,
                    "time": 219.52745600000057,
                    "velocity": 0.3937007874015748,
                    "duration": 0.09662299999999391
                },
                {
                    "name": "C4",
                    "midi": 60,
                    "time": 219.62407900000056,
                    "velocity": 0.3937007874015748,
                    "duration": 0.09662299999999391
                },
                {
                    "name": "F#4",
                    "midi": 66,
                    "time": 219.72070200000056,
                    "velocity": 0.5354330708661418,
                    "duration": 0.09662299999999391
                },
                {
                    "name": "C4",
                    "midi": 60,
                    "time": 219.81732500000055,
                    "velocity": 0.4094488188976378,
                    "duration": 0.09662299999999391
                },
                {
                    "name": "D4",
                    "midi": 62,
                    "time": 219.91394800000054,
                    "velocity": 0.41732283464566927,
                    "duration": 0.09662299999999391
                },
                {
                    "name": "D#4",
                    "midi": 63,
                    "time": 220.01057100000054,
                    "velocity": 0.47244094488188976,
                    "duration": 0.09662299999999391
                },
                {
                    "name": "D4",
                    "midi": 62,
                    "time": 220.10719400000053,
                    "velocity": 0.3937007874015748,
                    "duration": 0.09662299999999391
                },
                {
                    "name": "C4",
                    "midi": 60,
                    "time": 220.20381700000053,
                    "velocity": 0.3937007874015748,
                    "duration": 0.09662299999999391
                },
                {
                    "name": "G4",
                    "midi": 67,
                    "time": 220.30044000000052,
                    "velocity": 0.5433070866141733,
                    "duration": 0.09662299999999391
                },
                {
                    "name": "C4",
                    "midi": 60,
                    "time": 220.39706300000051,
                    "velocity": 0.4015748031496063,
                    "duration": 0.09662299999999391
                },
                {
                    "name": "D4",
                    "midi": 62,
                    "time": 220.4936860000005,
                    "velocity": 0.4094488188976378,
                    "duration": 0.09662299999999391
                },
                {
                    "name": "D#4",
                    "midi": 63,
                    "time": 220.5903090000005,
                    "velocity": 0.4566929133858268,
                    "duration": 0.09662299999999391
                },
                {
                    "name": "D4",
                    "midi": 62,
                    "time": 220.6869320000005,
                    "velocity": 0.4015748031496063,
                    "duration": 0.09662299999999391
                },
                {
                    "name": "C4",
                    "midi": 60,
                    "time": 220.7835550000005,
                    "velocity": 0.4094488188976378,
                    "duration": 0.09662299999999391
                },
                {
                    "name": "A4",
                    "midi": 69,
                    "time": 220.88017800000048,
                    "velocity": 0.5433070866141733,
                    "duration": 0.09662299999999391
                },
                {
                    "name": "C4",
                    "midi": 60,
                    "time": 220.97680100000048,
                    "velocity": 0.4251968503937008,
                    "duration": 0.09662299999999391
                },
                {
                    "name": "D4",
                    "midi": 62,
                    "time": 221.07342400000047,
                    "velocity": 0.4330708661417323,
                    "duration": 0.09662299999999391
                },
                {
                    "name": "D#4",
                    "midi": 63,
                    "time": 221.17004700000047,
                    "velocity": 0.4881889763779528,
                    "duration": 0.09662299999999391
                },
                {
                    "name": "D4",
                    "midi": 62,
                    "time": 221.26667000000046,
                    "velocity": 0.4330708661417323,
                    "duration": 0.09662299999999391
                },
                {
                    "name": "C4",
                    "midi": 60,
                    "time": 221.36329300000045,
                    "velocity": 0.4330708661417323,
                    "duration": 0.09662299999999391
                },
                {
                    "name": "B4",
                    "midi": 71,
                    "time": 221.45991600000045,
                    "velocity": 0.5511811023622047,
                    "duration": 0.09662299999999391
                },
                {
                    "name": "B3",
                    "midi": 59,
                    "time": 221.55653900000044,
                    "velocity": 0.4330708661417323,
                    "duration": 0.09662299999999391
                },
                {
                    "name": "C4",
                    "midi": 60,
                    "time": 221.65316200000044,
                    "velocity": 0.4330708661417323,
                    "duration": 0.09662299999999391
                },
                {
                    "name": "D4",
                    "midi": 62,
                    "time": 221.74978500000043,
                    "velocity": 0.48031496062992124,
                    "duration": 0.09662299999999391
                },
                {
                    "name": "C4",
                    "midi": 60,
                    "time": 221.84640800000042,
                    "velocity": 0.4330708661417323,
                    "duration": 0.09662299999999391
                },
                {
                    "name": "B3",
                    "midi": 59,
                    "time": 221.94303100000042,
                    "velocity": 0.4251968503937008,
                    "duration": 0.09662299999999391
                },
                {
                    "name": "C5",
                    "midi": 72,
                    "time": 222.0396540000004,
                    "velocity": 0.5669291338582677,
                    "duration": 0.09662299999999391
                },
                {
                    "name": "C4",
                    "midi": 60,
                    "time": 222.1362770000004,
                    "velocity": 0.4330708661417323,
                    "duration": 0.09662299999999391
                },
                {
                    "name": "D4",
                    "midi": 62,
                    "time": 222.2329000000004,
                    "velocity": 0.4330708661417323,
                    "duration": 0.09662299999999391
                },
                {
                    "name": "D#4",
                    "midi": 63,
                    "time": 222.3295230000004,
                    "velocity": 0.49606299212598426,
                    "duration": 0.09662299999999391
                },
                {
                    "name": "D4",
                    "midi": 62,
                    "time": 222.4261460000004,
                    "velocity": 0.4409448818897638,
                    "duration": 0.09662299999999391
                },
                {
                    "name": "C4",
                    "midi": 60,
                    "time": 222.52276900000038,
                    "velocity": 0.4566929133858268,
                    "duration": 0.09662299999999391
                },
                {
                    "name": "D5",
                    "midi": 74,
                    "time": 222.61939200000037,
                    "velocity": 0.5826771653543307,
                    "duration": 0.09662299999999391
                },
                {
                    "name": "D4",
                    "midi": 62,
                    "time": 222.71601500000037,
                    "velocity": 0.4409448818897638,
                    "duration": 0.09662299999999391
                },
                {
                    "name": "D#4",
                    "midi": 63,
                    "time": 222.81263800000036,
                    "velocity": 0.4409448818897638,
                    "duration": 0.09662299999999391
                },
                {
                    "name": "F4",
                    "midi": 65,
                    "time": 222.90926100000036,
                    "velocity": 0.4881889763779528,
                    "duration": 0.09662299999999391
                },
                {
                    "name": "D#4",
                    "midi": 63,
                    "time": 223.00588400000035,
                    "velocity": 0.4251968503937008,
                    "duration": 0.09662299999999391
                },
                {
                    "name": "D4",
                    "midi": 62,
                    "time": 223.10250700000034,
                    "velocity": 0.4251968503937008,
                    "duration": 0.09662299999999391
                },
                {
                    "name": "B4",
                    "midi": 71,
                    "time": 223.19913000000034,
                    "velocity": 0.5905511811023622,
                    "duration": 0.09662299999999391
                },
                {
                    "name": "B3",
                    "midi": 59,
                    "time": 223.29575300000033,
                    "velocity": 0.41732283464566927,
                    "duration": 0.09662299999999391
                },
                {
                    "name": "C4",
                    "midi": 60,
                    "time": 223.39237600000033,
                    "velocity": 0.41732283464566927,
                    "duration": 0.09662299999999391
                },
                {
                    "name": "D4",
                    "midi": 62,
                    "time": 223.48899900000032,
                    "velocity": 0.5118110236220472,
                    "duration": 0.09662299999999391
                },
                {
                    "name": "C4",
                    "midi": 60,
                    "time": 223.5856220000003,
                    "velocity": 0.4330708661417323,
                    "duration": 0.09662299999999391
                },
                {
                    "name": "B3",
                    "midi": 59,
                    "time": 223.6822450000003,
                    "velocity": 0.4330708661417323,
                    "duration": 0.09662299999999391
                },
                {
                    "name": "C4",
                    "midi": 60,
                    "time": 223.7788680000003,
                    "velocity": 0.5275590551181102,
                    "duration": 0.28986900000001015
                },
                {
                    "name": "C5",
                    "midi": 72,
                    "time": 223.7788680000003,
                    "velocity": 0.6220472440944882,
                    "duration": 0.28986900000001015
                },
                {
                    "name": "G5",
                    "midi": 79,
                    "time": 224.35860600000032,
                    "velocity": 0.6614173228346457,
                    "duration": 0.28986900000001015
                },
                {
                    "name": "F5",
                    "midi": 77,
                    "time": 224.64847500000033,
                    "velocity": 0.6299212598425197,
                    "duration": 0.07246724999998833
                },
                {
                    "name": "D#5",
                    "midi": 75,
                    "time": 224.72094225000032,
                    "velocity": 0.6220472440944882,
                    "duration": 0.07246724999998833
                },
                {
                    "name": "D5",
                    "midi": 74,
                    "time": 224.7934095000003,
                    "velocity": 0.6141732283464567,
                    "duration": 0.07246724999998833
                },
                {
                    "name": "C5",
                    "midi": 72,
                    "time": 224.8658767500003,
                    "velocity": 0.6062992125984252,
                    "duration": 0.07246724999998833
                },
                {
                    "name": "D5",
                    "midi": 74,
                    "time": 224.93834400000028,
                    "velocity": 0.6220472440944882,
                    "duration": 0.14493450000000507
                },
                {
                    "name": "F5",
                    "midi": 77,
                    "time": 225.51808200000028,
                    "velocity": 0.6614173228346457,
                    "duration": 0.28986900000001015
                },
                {
                    "name": "D#5",
                    "midi": 75,
                    "time": 225.8079510000003,
                    "velocity": 0.6299212598425197,
                    "duration": 0.07246724999998833
                },
                {
                    "name": "D5",
                    "midi": 74,
                    "time": 225.88041825000028,
                    "velocity": 0.6220472440944882,
                    "duration": 0.07246724999998833
                },
                {
                    "name": "C5",
                    "midi": 72,
                    "time": 225.95288550000026,
                    "velocity": 0.6141732283464567,
                    "duration": 0.07246724999998833
                },
                {
                    "name": "B4",
                    "midi": 71,
                    "time": 226.02535275000025,
                    "velocity": 0.6062992125984252,
                    "duration": 0.07246724999998833
                },
                {
                    "name": "C5",
                    "midi": 72,
                    "time": 226.09782000000024,
                    "velocity": 0.6220472440944882,
                    "duration": 0.14493450000000507
                },
                {
                    "name": "G5",
                    "midi": 79,
                    "time": 226.67755800000023,
                    "velocity": 0.6614173228346457,
                    "duration": 0.28986900000001015
                },
                {
                    "name": "F5",
                    "midi": 77,
                    "time": 226.96742700000024,
                    "velocity": 0.6299212598425197,
                    "duration": 0.07246724999998833
                },
                {
                    "name": "D#5",
                    "midi": 75,
                    "time": 227.03989425000023,
                    "velocity": 0.6220472440944882,
                    "duration": 0.07246724999998833
                },
                {
                    "name": "D5",
                    "midi": 74,
                    "time": 227.11236150000022,
                    "velocity": 0.6141732283464567,
                    "duration": 0.07246724999998833
                },
                {
                    "name": "C5",
                    "midi": 72,
                    "time": 227.1848287500002,
                    "velocity": 0.6062992125984252,
                    "duration": 0.07246724999998833
                },
                {
                    "name": "D5",
                    "midi": 74,
                    "time": 227.2572960000002,
                    "velocity": 0.6220472440944882,
                    "duration": 0.14493450000000507
                },
                {
                    "name": "F5",
                    "midi": 77,
                    "time": 227.8370340000002,
                    "velocity": 0.6614173228346457,
                    "duration": 0.28986900000001015
                },
                {
                    "name": "D#5",
                    "midi": 75,
                    "time": 228.1269030000002,
                    "velocity": 0.6299212598425197,
                    "duration": 0.07246724999998833
                },
                {
                    "name": "D5",
                    "midi": 74,
                    "time": 228.1993702500002,
                    "velocity": 0.6220472440944882,
                    "duration": 0.07246724999998833
                },
                {
                    "name": "C5",
                    "midi": 72,
                    "time": 228.27183750000017,
                    "velocity": 0.6141732283464567,
                    "duration": 0.07246724999998833
                },
                {
                    "name": "B4",
                    "midi": 71,
                    "time": 228.34430475000016,
                    "velocity": 0.6062992125984252,
                    "duration": 0.07246724999998833
                },
                {
                    "name": "C5",
                    "midi": 72,
                    "time": 228.41677200000015,
                    "velocity": 0.6220472440944882,
                    "duration": 0.14493450000000507
                },
                {
                    "name": "G5",
                    "midi": 79,
                    "time": 228.99651000000014,
                    "velocity": 0.6614173228346457,
                    "duration": 0.28986900000001015
                },
                {
                    "name": "F5",
                    "midi": 77,
                    "time": 229.28637900000015,
                    "velocity": 0.6299212598425197,
                    "duration": 0.07246724999998833
                },
                {
                    "name": "D#5",
                    "midi": 75,
                    "time": 229.35884625000014,
                    "velocity": 0.6220472440944882,
                    "duration": 0.07246724999998833
                },
                {
                    "name": "D5",
                    "midi": 74,
                    "time": 229.43131350000013,
                    "velocity": 0.6141732283464567,
                    "duration": 0.07246724999998833
                },
                {
                    "name": "C5",
                    "midi": 72,
                    "time": 229.50378075000012,
                    "velocity": 0.6062992125984252,
                    "duration": 0.07246724999998833
                },
                {
                    "name": "C#5",
                    "midi": 73,
                    "time": 229.5762480000001,
                    "velocity": 0.6220472440944882,
                    "duration": 0.14493450000000507
                },
                {
                    "name": "F6",
                    "midi": 89,
                    "time": 230.1559860000001,
                    "velocity": 0.7874015748031497,
                    "duration": 1.4493449999999939
                },
                {
                    "name": "D#6",
                    "midi": 87,
                    "time": 231.6053310000001,
                    "velocity": 0.6771653543307087,
                    "duration": 0.09662299999999391
                },
                {
                    "name": "C#6",
                    "midi": 85,
                    "time": 231.7019540000001,
                    "velocity": 0.6692913385826772,
                    "duration": 0.09662299999999391
                },
                {
                    "name": "C6",
                    "midi": 84,
                    "time": 231.79857700000008,
                    "velocity": 0.6535433070866141,
                    "duration": 0.09662299999999391
                },
                {
                    "name": "A#5",
                    "midi": 82,
                    "time": 231.89520000000007,
                    "velocity": 0.6456692913385826,
                    "duration": 0.09662299999999391
                },
                {
                    "name": "G#5",
                    "midi": 80,
                    "time": 231.99182300000007,
                    "velocity": 0.6377952755905512,
                    "duration": 0.09662299999999391
                },
                {
                    "name": "G5",
                    "midi": 79,
                    "time": 232.08844600000006,
                    "velocity": 0.6220472440944882,
                    "duration": 0.09662299999999391
                },
                {
                    "name": "F5",
                    "midi": 77,
                    "time": 232.18506900000006,
                    "velocity": 0.6141732283464567,
                    "duration": 0.09662299999999391
                },
                {
                    "name": "D#5",
                    "midi": 75,
                    "time": 232.28169200000005,
                    "velocity": 0.6062992125984252,
                    "duration": 0.09662299999999391
                },
                {
                    "name": "C#5",
                    "midi": 73,
                    "time": 232.37831500000004,
                    "velocity": 0.5905511811023622,
                    "duration": 0.09662299999999391
                },
                {
                    "name": "C5",
                    "midi": 72,
                    "time": 232.47493800000004,
                    "velocity": 0.5826771653543307,
                    "duration": 0.048311500000011165
                },
                {
                    "name": "A#4",
                    "midi": 70,
                    "time": 232.52324950000005,
                    "velocity": 0.5669291338582677,
                    "duration": 0.048311500000011165
                },
                {
                    "name": "G#4",
                    "midi": 68,
                    "time": 232.57156100000006,
                    "velocity": 0.5590551181102362,
                    "duration": 0.048311500000011165
                },
                {
                    "name": "G4",
                    "midi": 67,
                    "time": 232.61987250000007,
                    "velocity": 0.5511811023622047,
                    "duration": 0.048311500000011165
                },
                {
                    "name": "F4",
                    "midi": 65,
                    "time": 232.66818400000008,
                    "velocity": 0.5354330708661418,
                    "duration": 0.048311500000011165
                },
                {
                    "name": "D#4",
                    "midi": 63,
                    "time": 232.7164955000001,
                    "velocity": 0.5433070866141733,
                    "duration": 0.048311500000011165
                },
                {
                    "name": "C#4",
                    "midi": 61,
                    "time": 232.7648070000001,
                    "velocity": 0.5511811023622047,
                    "duration": 0.04106477499999528
                },
                {
                    "name": "C4",
                    "midi": 60,
                    "time": 232.8058717750001,
                    "velocity": 0.5590551181102362,
                    "duration": 0.04106477499999528
                },
                {
                    "name": "A#3",
                    "midi": 58,
                    "time": 232.8469365500001,
                    "velocity": 0.5590551181102362,
                    "duration": 0.04106477499999528
                },
                {
                    "name": "G#3",
                    "midi": 56,
                    "time": 232.8880013250001,
                    "velocity": 0.5590551181102362,
                    "duration": 0.04106477499999528
                },
                {
                    "name": "G3",
                    "midi": 55,
                    "time": 232.92906610000009,
                    "velocity": 0.5590551181102362,
                    "duration": 0.04106477499999528
                },
                {
                    "name": "F3",
                    "midi": 53,
                    "time": 232.97013087500008,
                    "velocity": 0.5590551181102362,
                    "duration": 0.04106477499999528
                },
                {
                    "name": "D#3",
                    "midi": 51,
                    "time": 233.01119565000008,
                    "velocity": 0.5590551181102362,
                    "duration": 0.04348035000001005
                },
                {
                    "name": "C#3",
                    "midi": 49,
                    "time": 233.0546760000001,
                    "velocity": 0.7322834645669292,
                    "duration": 1.739214000000004
                },
                {
                    "name": "G#3",
                    "midi": 56,
                    "time": 235.0837590000001,
                    "velocity": 0.3858267716535433,
                    "duration": 0.14493450000000507
                },
                {
                    "name": "A#3",
                    "midi": 58,
                    "time": 235.2286935000001,
                    "velocity": 0.4015748031496063,
                    "duration": 0.14493450000000507
                },
                {
                    "name": "C4",
                    "midi": 60,
                    "time": 235.3736280000001,
                    "velocity": 0.4094488188976378,
                    "duration": 0.4348034999999868
                },
                {
                    "name": "C#4",
                    "midi": 61,
                    "time": 235.8084315000001,
                    "velocity": 0.3937007874015748,
                    "duration": 0.14493450000000507
                },
                {
                    "name": "A#3",
                    "midi": 58,
                    "time": 235.9533660000001,
                    "velocity": 0.41732283464566927,
                    "duration": 0.4348034999999868
                },
                {
                    "name": "C4",
                    "midi": 60,
                    "time": 236.3881695000001,
                    "velocity": 0.3937007874015748,
                    "duration": 0.14493450000000507
                },
                {
                    "name": "G#3",
                    "midi": 56,
                    "time": 236.5331040000001,
                    "velocity": 0.4094488188976378,
                    "duration": 0.28986900000001015
                },
                {
                    "name": "G#4",
                    "midi": 68,
                    "time": 237.4027110000001,
                    "velocity": 0.36220472440944884,
                    "duration": 0.14493450000000507
                },
                {
                    "name": "A#4",
                    "midi": 70,
                    "time": 237.5476455000001,
                    "velocity": 0.3779527559055118,
                    "duration": 0.14493450000000507
                },
                {
                    "name": "C5",
                    "midi": 72,
                    "time": 237.6925800000001,
                    "velocity": 0.3858267716535433,
                    "duration": 0.4348034999999868
                },
                {
                    "name": "C#5",
                    "midi": 73,
                    "time": 238.1273835000001,
                    "velocity": 0.3700787401574803,
                    "duration": 0.14493450000000507
                },
                {
                    "name": "A#4",
                    "midi": 70,
                    "time": 238.2723180000001,
                    "velocity": 0.3858267716535433,
                    "duration": 0.4348034999999868
                },
                {
                    "name": "C5",
                    "midi": 72,
                    "time": 238.70712150000008,
                    "velocity": 0.36220472440944884,
                    "duration": 0.14493450000000507
                },
                {
                    "name": "G#4",
                    "midi": 68,
                    "time": 238.8520560000001,
                    "velocity": 0.3700787401574803,
                    "duration": 0.28986900000001015
                },
                {
                    "name": "C5",
                    "midi": 72,
                    "time": 239.7216630000001,
                    "velocity": 0.31496062992125984,
                    "duration": 0.28986900000001015
                },
                {
                    "name": "F#5",
                    "midi": 78,
                    "time": 240.0115320000001,
                    "velocity": 0.31496062992125984,
                    "duration": 0.28986900000001015
                },
                {
                    "name": "D#5",
                    "midi": 75,
                    "time": 240.0115320000001,
                    "velocity": 0.31496062992125984,
                    "duration": 0.28986900000001015
                },
                {
                    "name": "C5",
                    "midi": 72,
                    "time": 240.8811390000001,
                    "velocity": 0.31496062992125984,
                    "duration": 0.28986900000001015
                },
                {
                    "name": "G5",
                    "midi": 79,
                    "time": 241.1710080000001,
                    "velocity": 0.31496062992125984,
                    "duration": 0.28986900000001015
                },
                {
                    "name": "D#5",
                    "midi": 75,
                    "time": 241.1710080000001,
                    "velocity": 0.31496062992125984,
                    "duration": 0.28986900000001015
                },
                {
                    "name": "D#6",
                    "midi": 87,
                    "time": 242.04061500000012,
                    "velocity": 0.7637795275590551,
                    "duration": 0.09662299999999391
                },
                {
                    "name": "D6",
                    "midi": 86,
                    "time": 242.1372380000001,
                    "velocity": 0.7086614173228346,
                    "duration": 0.09662299999999391
                },
                {
                    "name": "C6",
                    "midi": 84,
                    "time": 242.2338610000001,
                    "velocity": 0.7086614173228346,
                    "duration": 0.09662299999999391
                },
                {
                    "name": "F6",
                    "midi": 89,
                    "time": 242.3304840000001,
                    "velocity": 0.7559055118110236,
                    "duration": 0.09662299999999391
                },
                {
                    "name": "D#6",
                    "midi": 87,
                    "time": 242.4271070000001,
                    "velocity": 0.7007874015748031,
                    "duration": 0.09662299999999391
                },
                {
                    "name": "D6",
                    "midi": 86,
                    "time": 242.52373000000009,
                    "velocity": 0.7086614173228346,
                    "duration": 0.09662299999999391
                },
                {
                    "name": "C6",
                    "midi": 84,
                    "time": 242.62035300000008,
                    "velocity": 0.7637795275590551,
                    "duration": 0.09662299999999391
                },
                {
                    "name": "B5",
                    "midi": 83,
                    "time": 242.71697600000007,
                    "velocity": 0.7244094488188977,
                    "duration": 0.09662299999999391
                },
                {
                    "name": "G#5",
                    "midi": 80,
                    "time": 242.81359900000007,
                    "velocity": 0.7244094488188977,
                    "duration": 0.09662299999999391
                },
                {
                    "name": "G5",
                    "midi": 79,
                    "time": 242.91022200000006,
                    "velocity": 0.7086614173228346,
                    "duration": 0.09662299999999391
                },
                {
                    "name": "F5",
                    "midi": 77,
                    "time": 243.00684500000006,
                    "velocity": 0.7244094488188977,
                    "duration": 0.09662299999999391
                },
                {
                    "name": "D#5",
                    "midi": 75,
                    "time": 243.10346800000005,
                    "velocity": 0.7322834645669292,
                    "duration": 0.09662299999999391
                },
                {
                    "name": "D5",
                    "midi": 74,
                    "time": 243.20009100000004,
                    "velocity": 0.7480314960629921,
                    "duration": 0.09662299999999391
                },
                {
                    "name": "C5",
                    "midi": 72,
                    "time": 243.29671400000004,
                    "velocity": 0.7637795275590551,
                    "duration": 0.09662299999999391
                },
                {
                    "name": "B4",
                    "midi": 71,
                    "time": 243.39333700000003,
                    "velocity": 0.7795275590551181,
                    "duration": 0.09662299999999391
                },
                {
                    "name": "C5",
                    "midi": 72,
                    "time": 243.48996000000002,
                    "velocity": 0.7952755905511811,
                    "duration": 0.28986900000001015
                }
            ],
            "controlChanges": {
                "7": [
                    {
                        "number": 7,
                        "time": 0,
                        "value": 0.7874015748031497
                    }
                ],
                "10": [
                    {
                        "number": 10,
                        "time": 0,
                        "value": 0.5039370078740157
                    }
                ],
                "91": [
                    {
                        "number": 91,
                        "time": 0,
                        "value": 1
                    }
                ]
            },
            "id": 1,
            "name": "Piano right",
            "instrumentNumber": 1,
            "instrument": "bright acoustic piano",
            "instrumentFamily": "piano",
            "channelNumber": 0,
            "isPercussion": false
        },
        {
            "startTime": 1.159476,
            "duration": 243.77982900000234,
            "length": 1104,
            "notes": [
                {
                    "name": "C3",
                    "midi": 48,
                    "time": 1.159476,
                    "velocity": 0.31496062992125984,
                    "duration": 0.14493449999999997
                },
                {
                    "name": "D#3",
                    "midi": 51,
                    "time": 1.3044105,
                    "velocity": 0.28346456692913385,
                    "duration": 0.14493449999999997
                },
                {
                    "name": "G3",
                    "midi": 55,
                    "time": 1.4493449999999999,
                    "velocity": 0.28346456692913385,
                    "duration": 0.14493449999999997
                },
                {
                    "name": "C4",
                    "midi": 60,
                    "time": 1.5942794999999998,
                    "velocity": 0.28346456692913385,
                    "duration": 0.14493449999999997
                },
                {
                    "name": "C3",
                    "midi": 48,
                    "time": 1.7392139999999998,
                    "velocity": 0.31496062992125984,
                    "duration": 0.14493449999999997
                },
                {
                    "name": "F3",
                    "midi": 53,
                    "time": 1.8841484999999998,
                    "velocity": 0.31496062992125984,
                    "duration": 0.1449345000000002
                },
                {
                    "name": "G3",
                    "midi": 55,
                    "time": 2.029083,
                    "velocity": 0.28346456692913385,
                    "duration": 0.1449345000000002
                },
                {
                    "name": "B3",
                    "midi": 59,
                    "time": 2.1740175,
                    "velocity": 0.28346456692913385,
                    "duration": 0.1449345000000002
                },
                {
                    "name": "C3",
                    "midi": 48,
                    "time": 2.3189520000000003,
                    "velocity": 0.31496062992125984,
                    "duration": 0.1449345000000002
                },
                {
                    "name": "D#3",
                    "midi": 51,
                    "time": 2.4638865000000005,
                    "velocity": 0.31496062992125984,
                    "duration": 0.1449345000000002
                },
                {
                    "name": "G3",
                    "midi": 55,
                    "time": 2.6088210000000007,
                    "velocity": 0.28346456692913385,
                    "duration": 0.1449345000000002
                },
                {
                    "name": "C4",
                    "midi": 60,
                    "time": 2.753755500000001,
                    "velocity": 0.28346456692913385,
                    "duration": 0.1449345000000002
                },
                {
                    "name": "D#4",
                    "midi": 63,
                    "time": 2.898690000000001,
                    "velocity": 0.31496062992125984,
                    "duration": 0.1449345000000002
                },
                {
                    "name": "G4",
                    "midi": 67,
                    "time": 3.0436245000000013,
                    "velocity": 0.28346456692913385,
                    "duration": 0.1449345000000002
                },
                {
                    "name": "D#4",
                    "midi": 63,
                    "time": 3.1885590000000015,
                    "velocity": 0.28346456692913385,
                    "duration": 0.1449345000000002
                },
                {
                    "name": "D4",
                    "midi": 62,
                    "time": 3.3334935000000017,
                    "velocity": 0.28346456692913385,
                    "duration": 0.1449345000000002
                },
                {
                    "name": "C4",
                    "midi": 60,
                    "time": 3.478428000000002,
                    "velocity": 0.31496062992125984,
                    "duration": 0.1449345000000002
                },
                {
                    "name": "G4",
                    "midi": 67,
                    "time": 3.623362500000002,
                    "velocity": 0.28346456692913385,
                    "duration": 0.1449345000000002
                },
                {
                    "name": "C4",
                    "midi": 60,
                    "time": 3.7682970000000022,
                    "velocity": 0.28346456692913385,
                    "duration": 0.1449345000000002
                },
                {
                    "name": "D#4",
                    "midi": 63,
                    "time": 3.7682970000000022,
                    "velocity": 0.28346456692913385,
                    "duration": 0.1449345000000002
                },
                {
                    "name": "G4",
                    "midi": 67,
                    "time": 3.9132315000000024,
                    "velocity": 0.28346456692913385,
                    "duration": 0.1449345000000002
                },
                {
                    "name": "B3",
                    "midi": 59,
                    "time": 4.058166000000003,
                    "velocity": 0.3228346456692913,
                    "duration": 0.14493449999999974
                },
                {
                    "name": "D4",
                    "midi": 62,
                    "time": 4.058166000000003,
                    "velocity": 0.3228346456692913,
                    "duration": 0.14493449999999974
                },
                {
                    "name": "G4",
                    "midi": 67,
                    "time": 4.203100500000002,
                    "velocity": 0.28346456692913385,
                    "duration": 0.14493449999999974
                },
                {
                    "name": "C4",
                    "midi": 60,
                    "time": 4.348035000000002,
                    "velocity": 0.28346456692913385,
                    "duration": 0.14493449999999974
                },
                {
                    "name": "G#3",
                    "midi": 56,
                    "time": 4.348035000000002,
                    "velocity": 0.28346456692913385,
                    "duration": 0.14493449999999974
                },
                {
                    "name": "G4",
                    "midi": 67,
                    "time": 4.492969500000002,
                    "velocity": 0.28346456692913385,
                    "duration": 0.14493449999999974
                },
                {
                    "name": "G3",
                    "midi": 55,
                    "time": 4.637904000000002,
                    "velocity": 0.31496062992125984,
                    "duration": 0.14493449999999974
                },
                {
                    "name": "B3",
                    "midi": 59,
                    "time": 4.782838500000001,
                    "velocity": 0.2283464566929134,
                    "duration": 0.14493449999999974
                },
                {
                    "name": "D4",
                    "midi": 62,
                    "time": 4.927773000000001,
                    "velocity": 0.2204724409448819,
                    "duration": 0.14493449999999974
                },
                {
                    "name": "G4",
                    "midi": 67,
                    "time": 5.072707500000001,
                    "velocity": 0.2204724409448819,
                    "duration": 0.14493449999999974
                },
                {
                    "name": "G3",
                    "midi": 55,
                    "time": 5.217642000000001,
                    "velocity": 0.31496062992125984,
                    "duration": 0.14493449999999974
                },
                {
                    "name": "B3",
                    "midi": 59,
                    "time": 5.3625765,
                    "velocity": 0.2440944881889764,
                    "duration": 0.14493449999999974
                },
                {
                    "name": "D4",
                    "midi": 62,
                    "time": 5.507511,
                    "velocity": 0.2440944881889764,
                    "duration": 0.14493449999999974
                },
                {
                    "name": "G4",
                    "midi": 67,
                    "time": 5.6524455,
                    "velocity": 0.2440944881889764,
                    "duration": 0.14493449999999974
                },
                {
                    "name": "F3",
                    "midi": 53,
                    "time": 5.7973799999999995,
                    "velocity": 0.31496062992125984,
                    "duration": 0.14493449999999974
                },
                {
                    "name": "G#3",
                    "midi": 56,
                    "time": 5.942314499999999,
                    "velocity": 0.28346456692913385,
                    "duration": 0.14493449999999974
                },
                {
                    "name": "B3",
                    "midi": 59,
                    "time": 6.087248999999999,
                    "velocity": 0.29133858267716534,
                    "duration": 0.14493449999999974
                },
                {
                    "name": "D4",
                    "midi": 62,
                    "time": 6.232183499999999,
                    "velocity": 0.29133858267716534,
                    "duration": 0.14493449999999974
                },
                {
                    "name": "F3",
                    "midi": 53,
                    "time": 6.3771179999999985,
                    "velocity": 0.31496062992125984,
                    "duration": 0.14493449999999974
                },
                {
                    "name": "G#3",
                    "midi": 56,
                    "time": 6.522052499999998,
                    "velocity": 0.28346456692913385,
                    "duration": 0.14493449999999974
                },
                {
                    "name": "B3",
                    "midi": 59,
                    "time": 6.666986999999998,
                    "velocity": 0.28346456692913385,
                    "duration": 0.14493449999999974
                },
                {
                    "name": "D4",
                    "midi": 62,
                    "time": 6.811921499999998,
                    "velocity": 0.28346456692913385,
                    "duration": 0.14493449999999974
                },
                {
                    "name": "D#3",
                    "midi": 51,
                    "time": 6.9568559999999975,
                    "velocity": 0.31496062992125984,
                    "duration": 0.14493449999999974
                },
                {
                    "name": "G3",
                    "midi": 55,
                    "time": 7.101790499999997,
                    "velocity": 0.2677165354330709,
                    "duration": 0.14493449999999974
                },
                {
                    "name": "C4",
                    "midi": 60,
                    "time": 7.246724999999997,
                    "velocity": 0.2677165354330709,
                    "duration": 0.14493449999999974
                },
                {
                    "name": "D#4",
                    "midi": 63,
                    "time": 7.391659499999997,
                    "velocity": 0.25984251968503935,
                    "duration": 0.14493449999999974
                },
                {
                    "name": "G#3",
                    "midi": 56,
                    "time": 7.5365939999999965,
                    "velocity": 0.3228346456692913,
                    "duration": 0.14493449999999974
                },
                {
                    "name": "C4",
                    "midi": 60,
                    "time": 7.681528499999996,
                    "velocity": 0.2755905511811024,
                    "duration": 0.14493449999999974
                },
                {
                    "name": "D#4",
                    "midi": 63,
                    "time": 7.826462999999996,
                    "velocity": 0.2755905511811024,
                    "duration": 0.14493449999999974
                },
                {
                    "name": "F#4",
                    "midi": 66,
                    "time": 7.971397499999996,
                    "velocity": 0.2755905511811024,
                    "duration": 0.14493450000000063
                },
                {
                    "name": "G3",
                    "midi": 55,
                    "time": 8.116331999999996,
                    "velocity": 0.31496062992125984,
                    "duration": 0.14493449999999974
                },
                {
                    "name": "C4",
                    "midi": 60,
                    "time": 8.261266499999996,
                    "velocity": 0.31496062992125984,
                    "duration": 0.14493449999999974
                },
                {
                    "name": "D#4",
                    "midi": 63,
                    "time": 8.406200999999996,
                    "velocity": 0.2755905511811024,
                    "duration": 0.14493449999999974
                },
                {
                    "name": "G4",
                    "midi": 67,
                    "time": 8.551135499999996,
                    "velocity": 0.2755905511811024,
                    "duration": 0.14493449999999974
                },
                {
                    "name": "G3",
                    "midi": 55,
                    "time": 8.696069999999995,
                    "velocity": 0.31496062992125984,
                    "duration": 0.14493449999999974
                },
                {
                    "name": "B3",
                    "midi": 59,
                    "time": 8.841004499999995,
                    "velocity": 0.28346456692913385,
                    "duration": 0.14493449999999974
                },
                {
                    "name": "D4",
                    "midi": 62,
                    "time": 8.985938999999995,
                    "velocity": 0.28346456692913385,
                    "duration": 0.14493449999999974
                },
                {
                    "name": "G4",
                    "midi": 67,
                    "time": 9.130873499999995,
                    "velocity": 0.28346456692913385,
                    "duration": 0.14493449999999974
                },
                {
                    "name": "C3",
                    "midi": 48,
                    "time": 9.420742499999994,
                    "velocity": 0.2992125984251969,
                    "duration": 0.14493449999999974
                },
                {
                    "name": "D#3",
                    "midi": 51,
                    "time": 9.565676999999994,
                    "velocity": 0.33070866141732286,
                    "duration": 0.14493449999999974
                },
                {
                    "name": "G3",
                    "midi": 55,
                    "time": 9.710611499999994,
                    "velocity": 0.3543307086614173,
                    "duration": 0.14493449999999974
                },
                {
                    "name": "C4",
                    "midi": 60,
                    "time": 9.855545999999993,
                    "velocity": 0.3858267716535433,
                    "duration": 0.2898689999999995
                },
                {
                    "name": "F2",
                    "midi": 41,
                    "time": 10.580218499999992,
                    "velocity": 0.33858267716535434,
                    "duration": 0.14493449999999974
                },
                {
                    "name": "B2",
                    "midi": 47,
                    "time": 10.725152999999992,
                    "velocity": 0.3543307086614173,
                    "duration": 0.14493449999999974
                },
                {
                    "name": "D3",
                    "midi": 50,
                    "time": 10.870087499999991,
                    "velocity": 0.3700787401574803,
                    "duration": 0.14493449999999974
                },
                {
                    "name": "F3",
                    "midi": 53,
                    "time": 11.015021999999991,
                    "velocity": 0.3858267716535433,
                    "duration": 0.14493449999999974
                },
                {
                    "name": "G#3",
                    "midi": 56,
                    "time": 11.159956499999991,
                    "velocity": 0.33858267716535434,
                    "duration": 0.14493449999999974
                },
                {
                    "name": "G3",
                    "midi": 55,
                    "time": 11.30489099999999,
                    "velocity": 0.33858267716535434,
                    "duration": 0.14493449999999974
                },
                {
                    "name": "F3",
                    "midi": 53,
                    "time": 11.44982549999999,
                    "velocity": 0.33858267716535434,
                    "duration": 0.14493449999999974
                },
                {
                    "name": "D#2",
                    "midi": 39,
                    "time": 11.73969449999999,
                    "velocity": 0.31496062992125984,
                    "duration": 0.14493449999999974
                },
                {
                    "name": "G2",
                    "midi": 43,
                    "time": 11.88462899999999,
                    "velocity": 0.33070866141732286,
                    "duration": 0.14493449999999974
                },
                {
                    "name": "C3",
                    "midi": 48,
                    "time": 12.02956349999999,
                    "velocity": 0.3543307086614173,
                    "duration": 0.14493449999999974
                },
                {
                    "name": "D#3",
                    "midi": 51,
                    "time": 12.17449799999999,
                    "velocity": 0.3779527559055118,
                    "duration": 0.14493449999999974
                },
                {
                    "name": "G3",
                    "midi": 55,
                    "time": 12.319432499999989,
                    "velocity": 0.31496062992125984,
                    "duration": 0.14493449999999974
                },
                {
                    "name": "G#3",
                    "midi": 56,
                    "time": 12.464366999999989,
                    "velocity": 0.30708661417322836,
                    "duration": 0.14493449999999974
                },
                {
                    "name": "F#3",
                    "midi": 54,
                    "time": 12.609301499999988,
                    "velocity": 0.30708661417322836,
                    "duration": 0.14493449999999974
                },
                {
                    "name": "G2",
                    "midi": 43,
                    "time": 12.754235999999988,
                    "velocity": 0.3779527559055118,
                    "duration": 0.14493449999999974
                },
                {
                    "name": "G3",
                    "midi": 55,
                    "time": 12.899170499999988,
                    "velocity": 0.3464566929133858,
                    "duration": 0.14493449999999974
                },
                {
                    "name": "C4",
                    "midi": 60,
                    "time": 13.044104999999988,
                    "velocity": 0.2992125984251969,
                    "duration": 0.14493449999999974
                },
                {
                    "name": "G3",
                    "midi": 55,
                    "time": 13.189039499999987,
                    "velocity": 0.2992125984251969,
                    "duration": 0.14493449999999974
                },
                {
                    "name": "G2",
                    "midi": 43,
                    "time": 13.333973999999987,
                    "velocity": 0.3779527559055118,
                    "duration": 0.14493449999999974
                },
                {
                    "name": "G3",
                    "midi": 55,
                    "time": 13.478908499999987,
                    "velocity": 0.30708661417322836,
                    "duration": 0.14493449999999974
                },
                {
                    "name": "B3",
                    "midi": 59,
                    "time": 13.623842999999987,
                    "velocity": 0.30708661417322836,
                    "duration": 0.14493449999999974
                },
                {
                    "name": "G3",
                    "midi": 55,
                    "time": 13.768777499999986,
                    "velocity": 0.30708661417322836,
                    "duration": 0.14493449999999974
                },
                {
                    "name": "C3",
                    "midi": 48,
                    "time": 13.913711999999986,
                    "velocity": 0.4094488188976378,
                    "duration": 0.14493449999999974
                },
                {
                    "name": "C4",
                    "midi": 60,
                    "time": 14.058646499999986,
                    "velocity": 0.3543307086614173,
                    "duration": 0.14493449999999974
                },
                {
                    "name": "B3",
                    "midi": 59,
                    "time": 14.203580999999986,
                    "velocity": 0.3543307086614173,
                    "duration": 0.14493449999999974
                },
                {
                    "name": "C4",
                    "midi": 60,
                    "time": 14.348515499999985,
                    "velocity": 0.3543307086614173,
                    "duration": 0.14493449999999974
                },
                {
                    "name": "E3",
                    "midi": 52,
                    "time": 14.493449999999985,
                    "velocity": 0.4094488188976378,
                    "duration": 0.14493449999999974
                },
                {
                    "name": "C4",
                    "midi": 60,
                    "time": 14.638384499999985,
                    "velocity": 0.3779527559055118,
                    "duration": 0.14493449999999974
                },
                {
                    "name": "G3",
                    "midi": 55,
                    "time": 14.783318999999985,
                    "velocity": 0.3779527559055118,
                    "duration": 0.14493449999999974
                },
                {
                    "name": "C4",
                    "midi": 60,
                    "time": 14.928253499999984,
                    "velocity": 0.3779527559055118,
                    "duration": 0.14493449999999974
                },
                {
                    "name": "F3",
                    "midi": 53,
                    "time": 15.073187999999984,
                    "velocity": 0.41732283464566927,
                    "duration": 0.14493449999999974
                },
                {
                    "name": "C4",
                    "midi": 60,
                    "time": 15.218122499999984,
                    "velocity": 0.3858267716535433,
                    "duration": 0.14493449999999974
                },
                {
                    "name": "G#3",
                    "midi": 56,
                    "time": 15.363056999999984,
                    "velocity": 0.3937007874015748,
                    "duration": 0.14493449999999974
                },
                {
                    "name": "C4",
                    "midi": 60,
                    "time": 15.507991499999983,
                    "velocity": 0.3858267716535433,
                    "duration": 0.14493449999999974
                },
                {
                    "name": "G3",
                    "midi": 55,
                    "time": 15.652925999999983,
                    "velocity": 0.4251968503937008,
                    "duration": 0.14493449999999974
                },
                {
                    "name": "F4",
                    "midi": 65,
                    "time": 15.797860499999983,
                    "velocity": 0.4094488188976378,
                    "duration": 0.14493449999999974
                },
                {
                    "name": "B3",
                    "midi": 59,
                    "time": 15.942794999999983,
                    "velocity": 0.36220472440944884,
                    "duration": 0.14493450000000152
                },
                {
                    "name": "F4",
                    "midi": 65,
                    "time": 16.087729499999984,
                    "velocity": 0.3937007874015748,
                    "duration": 0.14493450000000152
                },
                {
                    "name": "G#3",
                    "midi": 56,
                    "time": 16.232663999999986,
                    "velocity": 0.4251968503937008,
                    "duration": 0.14493450000000152
                },
                {
                    "name": "D#4",
                    "midi": 63,
                    "time": 16.377598499999987,
                    "velocity": 0.3700787401574803,
                    "duration": 0.14493450000000152
                },
                {
                    "name": "C4",
                    "midi": 60,
                    "time": 16.52253299999999,
                    "velocity": 0.3700787401574803,
                    "duration": 0.14493450000000152
                },
                {
                    "name": "D#4",
                    "midi": 63,
                    "time": 16.66746749999999,
                    "velocity": 0.3700787401574803,
                    "duration": 0.14493450000000152
                },
                {
                    "name": "G3",
                    "midi": 55,
                    "time": 16.81240199999999,
                    "velocity": 0.4881889763779528,
                    "duration": 0.14493450000000152
                },
                {
                    "name": "E4",
                    "midi": 64,
                    "time": 16.957336499999993,
                    "velocity": 0.4251968503937008,
                    "duration": 0.14493450000000152
                },
                {
                    "name": "C4",
                    "midi": 60,
                    "time": 17.102270999999995,
                    "velocity": 0.4330708661417323,
                    "duration": 0.14493450000000152
                },
                {
                    "name": "E4",
                    "midi": 64,
                    "time": 17.247205499999996,
                    "velocity": 0.4330708661417323,
                    "duration": 0.14493450000000152
                },
                {
                    "name": "F3",
                    "midi": 53,
                    "time": 17.392139999999998,
                    "velocity": 0.5039370078740157,
                    "duration": 0.14493450000000152
                },
                {
                    "name": "F4",
                    "midi": 65,
                    "time": 17.5370745,
                    "velocity": 0.44881889763779526,
                    "duration": 0.14493450000000152
                },
                {
                    "name": "C4",
                    "midi": 60,
                    "time": 17.682009,
                    "velocity": 0.4566929133858268,
                    "duration": 0.14493450000000152
                },
                {
                    "name": "F4",
                    "midi": 65,
                    "time": 17.826943500000002,
                    "velocity": 0.44881889763779526,
                    "duration": 0.14493450000000152
                },
                {
                    "name": "G3",
                    "midi": 55,
                    "time": 17.971878000000004,
                    "velocity": 0.49606299212598426,
                    "duration": 0.14493450000000152
                },
                {
                    "name": "G4",
                    "midi": 67,
                    "time": 18.116812500000005,
                    "velocity": 0.44881889763779526,
                    "duration": 0.14493450000000152
                },
                {
                    "name": "G3",
                    "midi": 55,
                    "time": 18.261747000000007,
                    "velocity": 0.44881889763779526,
                    "duration": 0.14493450000000152
                },
                {
                    "name": "G4",
                    "midi": 67,
                    "time": 18.40668150000001,
                    "velocity": 0.4409448818897638,
                    "duration": 0.14493450000000152
                },
                {
                    "name": "C4",
                    "midi": 60,
                    "time": 18.55161600000001,
                    "velocity": 0.5354330708661418,
                    "duration": 0.14493450000000152
                },
                {
                    "name": "G3",
                    "midi": 55,
                    "time": 18.841485000000013,
                    "velocity": 0.4881889763779528,
                    "duration": 0.14493450000000152
                },
                {
                    "name": "B3",
                    "midi": 59,
                    "time": 18.841485000000013,
                    "velocity": 0.4881889763779528,
                    "duration": 0.14493450000000152
                },
                {
                    "name": "C3",
                    "midi": 48,
                    "time": 19.131354000000016,
                    "velocity": 0.4881889763779528,
                    "duration": 0.14493450000000152
                },
                {
                    "name": "C4",
                    "midi": 60,
                    "time": 19.131354000000016,
                    "velocity": 0.4881889763779528,
                    "duration": 0.14493450000000152
                },
                {
                    "name": "G2",
                    "midi": 43,
                    "time": 19.42122300000002,
                    "velocity": 0.4881889763779528,
                    "duration": 0.14493450000000152
                },
                {
                    "name": "G3",
                    "midi": 55,
                    "time": 19.42122300000002,
                    "velocity": 0.4881889763779528,
                    "duration": 0.14493450000000152
                },
                {
                    "name": "C2",
                    "midi": 36,
                    "time": 19.711092000000022,
                    "velocity": 0.5433070866141733,
                    "duration": 0.14493450000000152
                },
                {
                    "name": "C3",
                    "midi": 48,
                    "time": 19.711092000000022,
                    "velocity": 0.5433070866141733,
                    "duration": 0.14493450000000152
                },
                {
                    "name": "A#1",
                    "midi": 34,
                    "time": 20.870568000000024,
                    "velocity": 0.4566929133858268,
                    "duration": 1.1594760000000015
                },
                {
                    "name": "A#2",
                    "midi": 46,
                    "time": 20.870568000000024,
                    "velocity": 0.5433070866141733,
                    "duration": 1.1594760000000015
                },
                {
                    "name": "G#1",
                    "midi": 32,
                    "time": 22.030044000000025,
                    "velocity": 0.44881889763779526,
                    "duration": 0.2898689999999995
                },
                {
                    "name": "G#2",
                    "midi": 44,
                    "time": 22.030044000000025,
                    "velocity": 0.5354330708661418,
                    "duration": 0.2898689999999995
                },
                {
                    "name": "E3",
                    "midi": 52,
                    "time": 23.479389000000026,
                    "velocity": 0.36220472440944884,
                    "duration": 0.2898689999999995
                },
                {
                    "name": "C4",
                    "midi": 60,
                    "time": 23.479389000000026,
                    "velocity": 0.4330708661417323,
                    "duration": 0.2898689999999995
                },
                {
                    "name": "E3",
                    "midi": 52,
                    "time": 23.769258000000026,
                    "velocity": 0.36220472440944884,
                    "duration": 0.2898689999999995
                },
                {
                    "name": "C4",
                    "midi": 60,
                    "time": 23.769258000000026,
                    "velocity": 0.4330708661417323,
                    "duration": 0.2898689999999995
                },
                {
                    "name": "E3",
                    "midi": 52,
                    "time": 24.059127000000025,
                    "velocity": 0.36220472440944884,
                    "duration": 0.2898689999999995
                },
                {
                    "name": "C4",
                    "midi": 60,
                    "time": 24.059127000000025,
                    "velocity": 0.4330708661417323,
                    "duration": 0.2898689999999995
                },
                {
                    "name": "F3",
                    "midi": 53,
                    "time": 24.348996000000025,
                    "velocity": 0.36220472440944884,
                    "duration": 0.8696069999999985
                },
                {
                    "name": "C4",
                    "midi": 60,
                    "time": 24.348996000000025,
                    "velocity": 0.4330708661417323,
                    "duration": 0.8696069999999985
                },
                {
                    "name": "G#1",
                    "midi": 32,
                    "time": 25.508472000000022,
                    "velocity": 0.4566929133858268,
                    "duration": 1.1594760000000015
                },
                {
                    "name": "G#2",
                    "midi": 44,
                    "time": 25.508472000000022,
                    "velocity": 0.5433070866141733,
                    "duration": 1.1594760000000015
                },
                {
                    "name": "G1",
                    "midi": 31,
                    "time": 26.667948000000024,
                    "velocity": 0.44881889763779526,
                    "duration": 0.2898689999999995
                },
                {
                    "name": "G2",
                    "midi": 43,
                    "time": 26.667948000000024,
                    "velocity": 0.5354330708661418,
                    "duration": 0.2898689999999995
                },
                {
                    "name": "D3",
                    "midi": 50,
                    "time": 28.117293000000025,
                    "velocity": 0.36220472440944884,
                    "duration": 0.2898689999999995
                },
                {
                    "name": "A#3",
                    "midi": 58,
                    "time": 28.117293000000025,
                    "velocity": 0.4330708661417323,
                    "duration": 0.2898689999999995
                },
                {
                    "name": "D3",
                    "midi": 50,
                    "time": 28.407162000000024,
                    "velocity": 0.36220472440944884,
                    "duration": 0.2898689999999995
                },
                {
                    "name": "A#3",
                    "midi": 58,
                    "time": 28.407162000000024,
                    "velocity": 0.4330708661417323,
                    "duration": 0.2898689999999995
                },
                {
                    "name": "D3",
                    "midi": 50,
                    "time": 28.697031000000024,
                    "velocity": 0.36220472440944884,
                    "duration": 0.2898689999999995
                },
                {
                    "name": "A#3",
                    "midi": 58,
                    "time": 28.697031000000024,
                    "velocity": 0.4330708661417323,
                    "duration": 0.2898689999999995
                },
                {
                    "name": "D#3",
                    "midi": 51,
                    "time": 28.986900000000023,
                    "velocity": 0.36220472440944884,
                    "duration": 0.14493450000000152
                },
                {
                    "name": "A#3",
                    "midi": 58,
                    "time": 29.131834500000025,
                    "velocity": 0.2440944881889764,
                    "duration": 0.14493450000000152
                },
                {
                    "name": "D#4",
                    "midi": 63,
                    "time": 29.276769000000026,
                    "velocity": 0.2440944881889764,
                    "duration": 0.14493450000000152
                },
                {
                    "name": "A#3",
                    "midi": 58,
                    "time": 29.421703500000028,
                    "velocity": 0.2440944881889764,
                    "duration": 0.14493450000000152
                },
                {
                    "name": "G#3",
                    "midi": 56,
                    "time": 29.56663800000003,
                    "velocity": 0.33070866141732286,
                    "duration": 0.14493450000000152
                },
                {
                    "name": "A#3",
                    "midi": 58,
                    "time": 29.71157250000003,
                    "velocity": 0.23622047244094488,
                    "duration": 0.14493450000000152
                },
                {
                    "name": "D4",
                    "midi": 62,
                    "time": 29.856507000000033,
                    "velocity": 0.23622047244094488,
                    "duration": 0.14493450000000152
                },
                {
                    "name": "A#3",
                    "midi": 58,
                    "time": 30.001441500000034,
                    "velocity": 0.23622047244094488,
                    "duration": 0.14493450000000152
                },
                {
                    "name": "G3",
                    "midi": 55,
                    "time": 30.146376000000036,
                    "velocity": 0.33070866141732286,
                    "duration": 0.14493450000000152
                },
                {
                    "name": "A#3",
                    "midi": 58,
                    "time": 30.291310500000037,
                    "velocity": 0.25984251968503935,
                    "duration": 0.14493450000000152
                },
                {
                    "name": "D#4",
                    "midi": 63,
                    "time": 30.43624500000004,
                    "velocity": 0.25984251968503935,
                    "duration": 0.14493450000000152
                },
                {
                    "name": "A#3",
                    "midi": 58,
                    "time": 30.58117950000004,
                    "velocity": 0.2677165354330709,
                    "duration": 0.14493450000000152
                },
                {
                    "name": "D3",
                    "midi": 50,
                    "time": 30.72611400000004,
                    "velocity": 0.3228346456692913,
                    "duration": 0.14493450000000152
                },
                {
                    "name": "A#3",
                    "midi": 58,
                    "time": 30.871048500000043,
                    "velocity": 0.25984251968503935,
                    "duration": 0.14493450000000152
                },
                {
                    "name": "D4",
                    "midi": 62,
                    "time": 31.015983000000045,
                    "velocity": 0.25984251968503935,
                    "duration": 0.14493450000000152
                },
                {
                    "name": "A#3",
                    "midi": 58,
                    "time": 31.160917500000046,
                    "velocity": 0.25984251968503935,
                    "duration": 0.14493450000000152
                },
                {
                    "name": "D#3",
                    "midi": 51,
                    "time": 31.305852000000048,
                    "velocity": 0.31496062992125984,
                    "duration": 0.14493450000000152
                },
                {
                    "name": "A#3",
                    "midi": 58,
                    "time": 31.45078650000005,
                    "velocity": 0.2755905511811024,
                    "duration": 0.14493450000000152
                },
                {
                    "name": "D#4",
                    "midi": 63,
                    "time": 31.59572100000005,
                    "velocity": 0.2755905511811024,
                    "duration": 0.14493450000000152
                },
                {
                    "name": "A#3",
                    "midi": 58,
                    "time": 31.740655500000052,
                    "velocity": 0.2755905511811024,
                    "duration": 0.14493450000000152
                },
                {
                    "name": "G#3",
                    "midi": 56,
                    "time": 31.885590000000054,
                    "velocity": 0.31496062992125984,
                    "duration": 0.14493450000000152
                },
                {
                    "name": "A#3",
                    "midi": 58,
                    "time": 32.030524500000055,
                    "velocity": 0.2755905511811024,
                    "duration": 0.14493449999999797
                },
                {
                    "name": "F4",
                    "midi": 65,
                    "time": 32.17545900000005,
                    "velocity": 0.28346456692913385,
                    "duration": 0.14493449999999797
                },
                {
                    "name": "A#3",
                    "midi": 58,
                    "time": 32.32039350000005,
                    "velocity": 0.28346456692913385,
                    "duration": 0.14493449999999797
                },
                {
                    "name": "G3",
                    "midi": 55,
                    "time": 32.46532800000005,
                    "velocity": 0.31496062992125984,
                    "duration": 0.14493449999999797
                },
                {
                    "name": "A#3",
                    "midi": 58,
                    "time": 32.61026250000005,
                    "velocity": 0.2755905511811024,
                    "duration": 0.14493449999999797
                },
                {
                    "name": "D#4",
                    "midi": 63,
                    "time": 32.755197000000045,
                    "velocity": 0.28346456692913385,
                    "duration": 0.14493449999999797
                },
                {
                    "name": "A#3",
                    "midi": 58,
                    "time": 32.90013150000004,
                    "velocity": 0.28346456692913385,
                    "duration": 0.14493449999999797
                },
                {
                    "name": "D3",
                    "midi": 50,
                    "time": 33.04506600000004,
                    "velocity": 0.31496062992125984,
                    "duration": 0.14493449999999797
                },
                {
                    "name": "A#3",
                    "midi": 58,
                    "time": 33.19000050000004,
                    "velocity": 0.2677165354330709,
                    "duration": 0.14493449999999797
                },
                {
                    "name": "D3",
                    "midi": 50,
                    "time": 33.33493500000004,
                    "velocity": 0.2677165354330709,
                    "duration": 0.14493449999999797
                },
                {
                    "name": "A#3",
                    "midi": 58,
                    "time": 33.479869500000035,
                    "velocity": 0.2677165354330709,
                    "duration": 0.14493449999999797
                },
                {
                    "name": "D#3",
                    "midi": 51,
                    "time": 33.62480400000003,
                    "velocity": 0.3228346456692913,
                    "duration": 0.14493449999999797
                },
                {
                    "name": "A#3",
                    "midi": 58,
                    "time": 33.76973850000003,
                    "velocity": 0.2677165354330709,
                    "duration": 0.14493449999999797
                },
                {
                    "name": "D#3",
                    "midi": 51,
                    "time": 33.91467300000003,
                    "velocity": 0.2677165354330709,
                    "duration": 0.14493449999999797
                },
                {
                    "name": "A#3",
                    "midi": 58,
                    "time": 34.05960750000003,
                    "velocity": 0.2677165354330709,
                    "duration": 0.14493449999999797
                },
                {
                    "name": "G#3",
                    "midi": 56,
                    "time": 34.204542000000025,
                    "velocity": 0.31496062992125984,
                    "duration": 0.14493449999999797
                },
                {
                    "name": "A#3",
                    "midi": 58,
                    "time": 34.34947650000002,
                    "velocity": 0.2677165354330709,
                    "duration": 0.14493449999999797
                },
                {
                    "name": "G#3",
                    "midi": 56,
                    "time": 34.49441100000002,
                    "velocity": 0.2677165354330709,
                    "duration": 0.14493449999999797
                },
                {
                    "name": "A#3",
                    "midi": 58,
                    "time": 34.63934550000002,
                    "velocity": 0.2677165354330709,
                    "duration": 0.14493449999999797
                },
                {
                    "name": "F#3",
                    "midi": 54,
                    "time": 34.78428000000002,
                    "velocity": 0.31496062992125984,
                    "duration": 0.14493449999999797
                },
                {
                    "name": "A#3",
                    "midi": 58,
                    "time": 34.929214500000015,
                    "velocity": 0.28346456692913385,
                    "duration": 0.14493449999999797
                },
                {
                    "name": "F#3",
                    "midi": 54,
                    "time": 35.07414900000001,
                    "velocity": 0.29133858267716534,
                    "duration": 0.14493449999999797
                },
                {
                    "name": "A#3",
                    "midi": 58,
                    "time": 35.21908350000001,
                    "velocity": 0.29133858267716534,
                    "duration": 0.14493449999999797
                },
                {
                    "name": "D3",
                    "midi": 50,
                    "time": 35.36401800000001,
                    "velocity": 0.3228346456692913,
                    "duration": 0.14493449999999797
                },
                {
                    "name": "A#3",
                    "midi": 58,
                    "time": 35.50895250000001,
                    "velocity": 0.28346456692913385,
                    "duration": 0.14493449999999797
                },
                {
                    "name": "D3",
                    "midi": 50,
                    "time": 35.653887000000005,
                    "velocity": 0.28346456692913385,
                    "duration": 0.14493449999999797
                },
                {
                    "name": "A#3",
                    "midi": 58,
                    "time": 35.7988215,
                    "velocity": 0.28346456692913385,
                    "duration": 0.14493449999999797
                },
                {
                    "name": "D#3",
                    "midi": 51,
                    "time": 35.943756,
                    "velocity": 0.30708661417322836,
                    "duration": 0.14493449999999797
                },
                {
                    "name": "A#3",
                    "midi": 58,
                    "time": 36.0886905,
                    "velocity": 0.30708661417322836,
                    "duration": 0.14493449999999797
                },
                {
                    "name": "F#3",
                    "midi": 54,
                    "time": 36.233624999999996,
                    "velocity": 0.3228346456692913,
                    "duration": 0.14493449999999797
                },
                {
                    "name": "A#3",
                    "midi": 58,
                    "time": 36.378559499999994,
                    "velocity": 0.3228346456692913,
                    "duration": 0.14493449999999797
                },
                {
                    "name": "A#2",
                    "midi": 46,
                    "time": 36.52349399999999,
                    "velocity": 0.33070866141732286,
                    "duration": 0.14493449999999797
                },
                {
                    "name": "A#3",
                    "midi": 58,
                    "time": 36.66842849999999,
                    "velocity": 0.33858267716535434,
                    "duration": 0.14493449999999797
                },
                {
                    "name": "D3",
                    "midi": 50,
                    "time": 36.81336299999999,
                    "velocity": 0.3464566929133858,
                    "duration": 0.14493449999999797
                },
                {
                    "name": "A#3",
                    "midi": 58,
                    "time": 36.958297499999986,
                    "velocity": 0.3543307086614173,
                    "duration": 0.14493449999999797
                },
                {
                    "name": "B2",
                    "midi": 47,
                    "time": 37.103231999999984,
                    "velocity": 0.3543307086614173,
                    "duration": 0.14493449999999797
                },
                {
                    "name": "A#3",
                    "midi": 58,
                    "time": 37.24816649999998,
                    "velocity": 0.3700787401574803,
                    "duration": 0.14493449999999797
                },
                {
                    "name": "D#3",
                    "midi": 51,
                    "time": 37.39310099999998,
                    "velocity": 0.4015748031496063,
                    "duration": 0.14493449999999797
                },
                {
                    "name": "A#3",
                    "midi": 58,
                    "time": 37.53803549999998,
                    "velocity": 0.4251968503937008,
                    "duration": 0.14493449999999797
                },
                {
                    "name": "B2",
                    "midi": 47,
                    "time": 37.682969999999976,
                    "velocity": 0.4566929133858268,
                    "duration": 0.14493449999999797
                },
                {
                    "name": "A3",
                    "midi": 57,
                    "time": 37.827904499999974,
                    "velocity": 0.3858267716535433,
                    "duration": 0.14493449999999797
                },
                {
                    "name": "D#3",
                    "midi": 51,
                    "time": 37.97283899999997,
                    "velocity": 0.3858267716535433,
                    "duration": 0.14493449999999797
                },
                {
                    "name": "A3",
                    "midi": 57,
                    "time": 38.11777349999997,
                    "velocity": 0.3858267716535433,
                    "duration": 0.14493449999999797
                },
                {
                    "name": "A#2",
                    "midi": 46,
                    "time": 38.26270799999997,
                    "velocity": 0.47244094488188976,
                    "duration": 0.28986900000000304
                },
                {
                    "name": "A#3",
                    "midi": 58,
                    "time": 38.55257699999997,
                    "velocity": 0.36220472440944884,
                    "duration": 0.14493449999999797
                },
                {
                    "name": "D4",
                    "midi": 62,
                    "time": 38.55257699999997,
                    "velocity": 0.36220472440944884,
                    "duration": 0.14493449999999797
                },
                {
                    "name": "F4",
                    "midi": 65,
                    "time": 38.55257699999997,
                    "velocity": 0.4330708661417323,
                    "duration": 0.14493449999999797
                },
                {
                    "name": "A#3",
                    "midi": 58,
                    "time": 38.84244599999997,
                    "velocity": 0.4645669291338583,
                    "duration": 0.579737999999999
                },
                {
                    "name": "F#4",
                    "midi": 66,
                    "time": 38.84244599999997,
                    "velocity": 0.5511811023622047,
                    "duration": 0.579737999999999
                },
                {
                    "name": "D#4",
                    "midi": 63,
                    "time": 38.84244599999997,
                    "velocity": 0.4645669291338583,
                    "duration": 0.579737999999999
                },
                {
                    "name": "A#3",
                    "midi": 58,
                    "time": 39.71205299999997,
                    "velocity": 0.36220472440944884,
                    "duration": 0.14493449999999797
                },
                {
                    "name": "D4",
                    "midi": 62,
                    "time": 39.71205299999997,
                    "velocity": 0.36220472440944884,
                    "duration": 0.14493449999999797
                },
                {
                    "name": "F4",
                    "midi": 65,
                    "time": 39.71205299999997,
                    "velocity": 0.4330708661417323,
                    "duration": 0.14493449999999797
                },
                {
                    "name": "A#3",
                    "midi": 58,
                    "time": 40.001921999999965,
                    "velocity": 0.4645669291338583,
                    "duration": 0.579737999999999
                },
                {
                    "name": "F#4",
                    "midi": 66,
                    "time": 40.001921999999965,
                    "velocity": 0.5511811023622047,
                    "duration": 0.579737999999999
                },
                {
                    "name": "D#4",
                    "midi": 63,
                    "time": 40.001921999999965,
                    "velocity": 0.4645669291338583,
                    "duration": 0.579737999999999
                },
                {
                    "name": "A#3",
                    "midi": 58,
                    "time": 40.581659999999964,
                    "velocity": 0.36220472440944884,
                    "duration": 0.28986900000000304
                },
                {
                    "name": "D4",
                    "midi": 62,
                    "time": 40.581659999999964,
                    "velocity": 0.36220472440944884,
                    "duration": 0.28986900000000304
                },
                {
                    "name": "F4",
                    "midi": 65,
                    "time": 40.581659999999964,
                    "velocity": 0.4330708661417323,
                    "duration": 0.28986900000000304
                },
                {
                    "name": "A#3",
                    "midi": 58,
                    "time": 41.16139799999997,
                    "velocity": 0.36220472440944884,
                    "duration": 0.28986900000000304
                },
                {
                    "name": "F4",
                    "midi": 65,
                    "time": 41.16139799999997,
                    "velocity": 0.36220472440944884,
                    "duration": 0.28986900000000304
                },
                {
                    "name": "G#4",
                    "midi": 68,
                    "time": 41.16139799999997,
                    "velocity": 0.4330708661417323,
                    "duration": 0.28986900000000304
                },
                {
                    "name": "A#3",
                    "midi": 58,
                    "time": 41.741135999999976,
                    "velocity": 0.36220472440944884,
                    "duration": 0.28986900000000304
                },
                {
                    "name": "D4",
                    "midi": 62,
                    "time": 41.741135999999976,
                    "velocity": 0.36220472440944884,
                    "duration": 0.28986900000000304
                },
                {
                    "name": "F4",
                    "midi": 65,
                    "time": 41.741135999999976,
                    "velocity": 0.36220472440944884,
                    "duration": 0.28986900000000304
                },
                {
                    "name": "G#4",
                    "midi": 68,
                    "time": 41.741135999999976,
                    "velocity": 0.4330708661417323,
                    "duration": 0.28986900000000304
                },
                {
                    "name": "D#3",
                    "midi": 51,
                    "time": 42.90061199999998,
                    "velocity": 0.4330708661417323,
                    "duration": 0.28986900000000304
                },
                {
                    "name": "A#3",
                    "midi": 58,
                    "time": 43.57697299999998,
                    "velocity": 0.3543307086614173,
                    "duration": 0.10266193750000241
                },
                {
                    "name": "C4",
                    "midi": 60,
                    "time": 43.67359599999998,
                    "velocity": 0.3779527559055118,
                    "duration": 0.10266193750000241
                },
                {
                    "name": "D4",
                    "midi": 62,
                    "time": 43.77021899999998,
                    "velocity": 0.3937007874015748,
                    "duration": 0.10266193750000241
                },
                {
                    "name": "C4",
                    "midi": 60,
                    "time": 43.866841999999984,
                    "velocity": 0.3779527559055118,
                    "duration": 0.10266193750000241
                },
                {
                    "name": "A#3",
                    "midi": 58,
                    "time": 43.963464999999985,
                    "velocity": 0.3543307086614173,
                    "duration": 0.10266193750000241
                },
                {
                    "name": "D#4",
                    "midi": 63,
                    "time": 44.060087999999986,
                    "velocity": 0.4330708661417323,
                    "duration": 0.28986900000000304
                },
                {
                    "name": "A#3",
                    "midi": 58,
                    "time": 44.736448999999986,
                    "velocity": 0.33858267716535434,
                    "duration": 0.10266193750000241
                },
                {
                    "name": "C4",
                    "midi": 60,
                    "time": 44.83307199999999,
                    "velocity": 0.3700787401574803,
                    "duration": 0.10266193750000241
                },
                {
                    "name": "D4",
                    "midi": 62,
                    "time": 44.92969499999999,
                    "velocity": 0.3937007874015748,
                    "duration": 0.10266193750000241
                },
                {
                    "name": "C4",
                    "midi": 60,
                    "time": 45.02631799999999,
                    "velocity": 0.3779527559055118,
                    "duration": 0.10266193750000241
                },
                {
                    "name": "A#3",
                    "midi": 58,
                    "time": 45.12294099999999,
                    "velocity": 0.3543307086614173,
                    "duration": 0.10266193750000241
                },
                {
                    "name": "D#4",
                    "midi": 63,
                    "time": 45.21956399999999,
                    "velocity": 0.4330708661417323,
                    "duration": 0.28986900000000304
                },
                {
                    "name": "D#4",
                    "midi": 63,
                    "time": 45.799302,
                    "velocity": 0.4330708661417323,
                    "duration": 0.28986900000000304
                },
                {
                    "name": "C#4",
                    "midi": 61,
                    "time": 46.37904,
                    "velocity": 0.4330708661417323,
                    "duration": 0.28986900000000304
                },
                {
                    "name": "G3",
                    "midi": 55,
                    "time": 46.37904,
                    "velocity": 0.4330708661417323,
                    "duration": 0.28986900000000304
                },
                {
                    "name": "A#3",
                    "midi": 58,
                    "time": 46.37904,
                    "velocity": 0.4330708661417323,
                    "duration": 0.28986900000000304
                },
                {
                    "name": "D#4",
                    "midi": 63,
                    "time": 46.37904,
                    "velocity": 0.4330708661417323,
                    "duration": 0.28986900000000304
                },
                {
                    "name": "G#2",
                    "midi": 44,
                    "time": 47.53851600000001,
                    "velocity": 0.4094488188976378,
                    "duration": 0.09662300000000101
                },
                {
                    "name": "C3",
                    "midi": 48,
                    "time": 47.63513900000001,
                    "velocity": 0.4251968503937008,
                    "duration": 0.09662300000000101
                },
                {
                    "name": "D#3",
                    "midi": 51,
                    "time": 47.73176200000001,
                    "velocity": 0.4409448818897638,
                    "duration": 0.09662300000000101
                },
                {
                    "name": "G#3",
                    "midi": 56,
                    "time": 47.82838500000001,
                    "velocity": 0.4645669291338583,
                    "duration": 0.28986900000000304
                },
                {
                    "name": "A#3",
                    "midi": 58,
                    "time": 48.69799200000001,
                    "velocity": 0.3779527559055118,
                    "duration": 0.28986900000000304
                },
                {
                    "name": "D#4",
                    "midi": 63,
                    "time": 48.69799200000001,
                    "velocity": 0.3779527559055118,
                    "duration": 0.28986900000000304
                },
                {
                    "name": "G4",
                    "midi": 67,
                    "time": 48.69799200000001,
                    "velocity": 0.44881889763779526,
                    "duration": 0.28986900000000304
                },
                {
                    "name": "A#3",
                    "midi": 58,
                    "time": 49.27773000000002,
                    "velocity": 0.3858267716535433,
                    "duration": 0.28986900000000304
                },
                {
                    "name": "F4",
                    "midi": 65,
                    "time": 49.27773000000002,
                    "velocity": 0.3858267716535433,
                    "duration": 0.28986900000000304
                },
                {
                    "name": "G#4",
                    "midi": 68,
                    "time": 49.27773000000002,
                    "velocity": 0.4566929133858268,
                    "duration": 0.28986900000000304
                },
                {
                    "name": "D#4",
                    "midi": 63,
                    "time": 49.857468000000026,
                    "velocity": 0.3858267716535433,
                    "duration": 0.28986900000000304
                },
                {
                    "name": "G4",
                    "midi": 67,
                    "time": 49.857468000000026,
                    "velocity": 0.4566929133858268,
                    "duration": 0.28986900000000304
                },
                {
                    "name": "A#3",
                    "midi": 58,
                    "time": 51.01694400000003,
                    "velocity": 0.30708661417322836,
                    "duration": 0.14493449999999797
                },
                {
                    "name": "G#3",
                    "midi": 56,
                    "time": 51.01694400000003,
                    "velocity": 0.25984251968503935,
                    "duration": 0.14493449999999797
                },
                {
                    "name": "G#3",
                    "midi": 56,
                    "time": 51.30681300000003,
                    "velocity": 0.2677165354330709,
                    "duration": 0.14493449999999797
                },
                {
                    "name": "A#3",
                    "midi": 58,
                    "time": 51.30681300000003,
                    "velocity": 0.31496062992125984,
                    "duration": 0.14493449999999797
                },
                {
                    "name": "A#3",
                    "midi": 58,
                    "time": 51.59668200000002,
                    "velocity": 0.33070866141732286,
                    "duration": 0.14493449999999797
                },
                {
                    "name": "G#3",
                    "midi": 56,
                    "time": 51.59668200000002,
                    "velocity": 0.2755905511811024,
                    "duration": 0.14493449999999797
                },
                {
                    "name": "G#3",
                    "midi": 56,
                    "time": 51.88655100000002,
                    "velocity": 0.28346456692913385,
                    "duration": 0.14493449999999797
                },
                {
                    "name": "A#3",
                    "midi": 58,
                    "time": 51.88655100000002,
                    "velocity": 0.33858267716535434,
                    "duration": 0.14493449999999797
                },
                {
                    "name": "G3",
                    "midi": 55,
                    "time": 52.176420000000014,
                    "velocity": 0.29133858267716534,
                    "duration": 0.869607000000002
                },
                {
                    "name": "A#3",
                    "midi": 58,
                    "time": 52.176420000000014,
                    "velocity": 0.3543307086614173,
                    "duration": 0.869607000000002
                },
                {
                    "name": "G3",
                    "midi": 55,
                    "time": 53.04602700000002,
                    "velocity": 0.33070866141732286,
                    "duration": 0.28986900000000304
                },
                {
                    "name": "C4",
                    "midi": 60,
                    "time": 53.33589600000002,
                    "velocity": 0.3543307086614173,
                    "duration": 0.579737999999999
                },
                {
                    "name": "B3",
                    "midi": 59,
                    "time": 53.91563400000002,
                    "velocity": 0.33858267716535434,
                    "duration": 0.579737999999999
                },
                {
                    "name": "A#3",
                    "midi": 58,
                    "time": 54.49537200000002,
                    "velocity": 0.33858267716535434,
                    "duration": 0.869607000000002
                },
                {
                    "name": "D4",
                    "midi": 62,
                    "time": 55.65484800000002,
                    "velocity": 0.3464566929133858,
                    "duration": 0.14493449999999797
                },
                {
                    "name": "G#3",
                    "midi": 56,
                    "time": 55.65484800000002,
                    "velocity": 0.29133858267716534,
                    "duration": 0.14493449999999797
                },
                {
                    "name": "G#3",
                    "midi": 56,
                    "time": 55.94471700000002,
                    "velocity": 0.30708661417322836,
                    "duration": 0.14493449999999797
                },
                {
                    "name": "D4",
                    "midi": 62,
                    "time": 55.94471700000002,
                    "velocity": 0.3700787401574803,
                    "duration": 0.14493449999999797
                },
                {
                    "name": "D4",
                    "midi": 62,
                    "time": 56.234586000000014,
                    "velocity": 0.4015748031496063,
                    "duration": 0.14493449999999797
                },
                {
                    "name": "G#3",
                    "midi": 56,
                    "time": 56.234586000000014,
                    "velocity": 0.33070866141732286,
                    "duration": 0.14493449999999797
                },
                {
                    "name": "G#3",
                    "midi": 56,
                    "time": 56.52445500000001,
                    "velocity": 0.36220472440944884,
                    "duration": 0.14493449999999797
                },
                {
                    "name": "D4",
                    "midi": 62,
                    "time": 56.52445500000001,
                    "velocity": 0.4330708661417323,
                    "duration": 0.14493449999999797
                },
                {
                    "name": "G3",
                    "midi": 55,
                    "time": 56.814324000000006,
                    "velocity": 0.3937007874015748,
                    "duration": 1.159475999999998
                },
                {
                    "name": "D#4",
                    "midi": 63,
                    "time": 56.814324000000006,
                    "velocity": 0.47244094488188976,
                    "duration": 1.159475999999998
                },
                {
                    "name": "G#3",
                    "midi": 56,
                    "time": 57.973800000000004,
                    "velocity": 0.48031496062992124,
                    "duration": 0.28986900000000304
                },
                {
                    "name": "D#4",
                    "midi": 63,
                    "time": 57.973800000000004,
                    "velocity": 0.5669291338582677,
                    "duration": 0.28986900000000304
                },
                {
                    "name": "A#2",
                    "midi": 46,
                    "time": 58.55353800000001,
                    "velocity": 0.48031496062992124,
                    "duration": 0.28986900000000304
                },
                {
                    "name": "A#3",
                    "midi": 58,
                    "time": 58.55353800000001,
                    "velocity": 0.5669291338582677,
                    "duration": 0.28986900000000304
                },
                {
                    "name": "D#4",
                    "midi": 63,
                    "time": 59.22989900000001,
                    "velocity": 0.4330708661417323,
                    "duration": 0.10266193750000241
                },
                {
                    "name": "F4",
                    "midi": 65,
                    "time": 59.32652200000001,
                    "velocity": 0.4330708661417323,
                    "duration": 0.10266193750000241
                },
                {
                    "name": "G4",
                    "midi": 67,
                    "time": 59.42314500000001,
                    "velocity": 0.4645669291338583,
                    "duration": 0.10266193750000241
                },
                {
                    "name": "F4",
                    "midi": 65,
                    "time": 59.51976800000001,
                    "velocity": 0.4330708661417323,
                    "duration": 0.10266193750000241
                },
                {
                    "name": "D#4",
                    "midi": 63,
                    "time": 59.616391000000014,
                    "velocity": 0.4330708661417323,
                    "duration": 0.10266193750000241
                },
                {
                    "name": "G#4",
                    "midi": 68,
                    "time": 59.713014000000015,
                    "velocity": 0.4645669291338583,
                    "duration": 0.579737999999999
                },
                {
                    "name": "G4",
                    "midi": 67,
                    "time": 60.292752000000014,
                    "velocity": 0.4645669291338583,
                    "duration": 0.10266193750000241
                },
                {
                    "name": "D#4",
                    "midi": 63,
                    "time": 60.389375000000015,
                    "velocity": 0.4330708661417323,
                    "duration": 0.10266193750000241
                },
                {
                    "name": "F4",
                    "midi": 65,
                    "time": 60.485998000000016,
                    "velocity": 0.4330708661417323,
                    "duration": 0.10266193750000241
                },
                {
                    "name": "G4",
                    "midi": 67,
                    "time": 60.58262100000002,
                    "velocity": 0.4645669291338583,
                    "duration": 0.10266193750000241
                },
                {
                    "name": "F4",
                    "midi": 65,
                    "time": 60.67924400000002,
                    "velocity": 0.4330708661417323,
                    "duration": 0.10266193750000241
                },
                {
                    "name": "D#4",
                    "midi": 63,
                    "time": 60.77586700000002,
                    "velocity": 0.4330708661417323,
                    "duration": 0.10266193750000241
                },
                {
                    "name": "G#4",
                    "midi": 68,
                    "time": 60.87249000000002,
                    "velocity": 0.4645669291338583,
                    "duration": 0.579737999999999
                },
                {
                    "name": "G4",
                    "midi": 67,
                    "time": 61.45222800000002,
                    "velocity": 0.4330708661417323,
                    "duration": 0.14493449999999797
                },
                {
                    "name": "D#4",
                    "midi": 63,
                    "time": 61.45222800000002,
                    "velocity": 0.4330708661417323,
                    "duration": 0.14493449999999797
                },
                {
                    "name": "C4",
                    "midi": 60,
                    "time": 61.745720362500016,
                    "velocity": 0.4094488188976378,
                    "duration": 0.14493449999999797
                },
                {
                    "name": "G#3",
                    "midi": 56,
                    "time": 62.03196600000001,
                    "velocity": 0.4094488188976378,
                    "duration": 0.14493449999999797
                },
                {
                    "name": "A#3",
                    "midi": 58,
                    "time": 62.32183500000001,
                    "velocity": 0.4094488188976378,
                    "duration": 0.14493449999999797
                },
                {
                    "name": "D#2",
                    "midi": 39,
                    "time": 62.708327000000004,
                    "velocity": 0.3858267716535433,
                    "duration": 0.10266193750000241
                },
                {
                    "name": "F2",
                    "midi": 41,
                    "time": 62.804950000000005,
                    "velocity": 0.3858267716535433,
                    "duration": 0.10266193750000241
                },
                {
                    "name": "G2",
                    "midi": 43,
                    "time": 62.901573000000006,
                    "velocity": 0.41732283464566927,
                    "duration": 0.10266193750000241
                },
                {
                    "name": "F2",
                    "midi": 41,
                    "time": 62.99819600000001,
                    "velocity": 0.3858267716535433,
                    "duration": 0.10266193750000241
                },
                {
                    "name": "D#2",
                    "midi": 39,
                    "time": 63.09481900000001,
                    "velocity": 0.3858267716535433,
                    "duration": 0.10266193750000241
                },
                {
                    "name": "G#2",
                    "midi": 44,
                    "time": 63.19144200000001,
                    "velocity": 0.5511811023622047,
                    "duration": 0.579737999999999
                },
                {
                    "name": "G2",
                    "midi": 43,
                    "time": 63.77118000000001,
                    "velocity": 0.41732283464566927,
                    "duration": 0.10266193750000241
                },
                {
                    "name": "D#2",
                    "midi": 39,
                    "time": 63.86780300000001,
                    "velocity": 0.3858267716535433,
                    "duration": 0.10266193750000241
                },
                {
                    "name": "F2",
                    "midi": 41,
                    "time": 63.96442600000001,
                    "velocity": 0.3858267716535433,
                    "duration": 0.1026619374999953
                },
                {
                    "name": "G2",
                    "midi": 43,
                    "time": 64.06104900000001,
                    "velocity": 0.41732283464566927,
                    "duration": 0.1026619374999882
                },
                {
                    "name": "F2",
                    "midi": 41,
                    "time": 64.157672,
                    "velocity": 0.3858267716535433,
                    "duration": 0.1026619374999882
                },
                {
                    "name": "D#2",
                    "midi": 39,
                    "time": 64.254295,
                    "velocity": 0.3858267716535433,
                    "duration": 0.1026619374999882
                },
                {
                    "name": "G#2",
                    "midi": 44,
                    "time": 64.350918,
                    "velocity": 0.5511811023622047,
                    "duration": 0.5797379999999919
                },
                {
                    "name": "G2",
                    "midi": 43,
                    "time": 64.93065599999998,
                    "velocity": 0.41732283464566927,
                    "duration": 0.1026619374999882
                },
                {
                    "name": "D#2",
                    "midi": 39,
                    "time": 65.02727899999998,
                    "velocity": 0.3858267716535433,
                    "duration": 0.1026619374999882
                },
                {
                    "name": "F2",
                    "midi": 41,
                    "time": 65.12390199999997,
                    "velocity": 0.3858267716535433,
                    "duration": 0.1026619374999882
                },
                {
                    "name": "G2",
                    "midi": 43,
                    "time": 65.22052499999997,
                    "velocity": 0.41732283464566927,
                    "duration": 0.1026619374999882
                },
                {
                    "name": "F2",
                    "midi": 41,
                    "time": 65.31714799999996,
                    "velocity": 0.3858267716535433,
                    "duration": 0.1026619374999882
                },
                {
                    "name": "D#2",
                    "midi": 39,
                    "time": 65.41377099999995,
                    "velocity": 0.3858267716535433,
                    "duration": 0.1026619374999882
                },
                {
                    "name": "G#2",
                    "midi": 44,
                    "time": 65.51039399999995,
                    "velocity": 0.5511811023622047,
                    "duration": 1.7392139999999898
                },
                {
                    "name": "G1",
                    "midi": 31,
                    "time": 67.24960799999994,
                    "velocity": 0.5905511811023622,
                    "duration": 2.318951999999996
                },
                {
                    "name": "G2",
                    "midi": 43,
                    "time": 67.24960799999994,
                    "velocity": 0.6299212598425197,
                    "duration": 2.318951999999996
                },
                {
                    "name": "G2",
                    "midi": 43,
                    "time": 69.56855999999993,
                    "velocity": 0.5433070866141733,
                    "duration": 1.739214000000004
                },
                {
                    "name": "D3",
                    "midi": 50,
                    "time": 69.56855999999993,
                    "velocity": 0.5433070866141733,
                    "duration": 1.739214000000004
                },
                {
                    "name": "F3",
                    "midi": 53,
                    "time": 69.56855999999993,
                    "velocity": 0.6456692913385826,
                    "duration": 1.739214000000004
                },
                {
                    "name": "C3",
                    "midi": 48,
                    "time": 71.88751199999994,
                    "velocity": 0.31496062992125984,
                    "duration": 0.14493450000000507
                },
                {
                    "name": "D#3",
                    "midi": 51,
                    "time": 72.03244649999995,
                    "velocity": 0.28346456692913385,
                    "duration": 0.14493450000000507
                },
                {
                    "name": "G3",
                    "midi": 55,
                    "time": 72.17738099999995,
                    "velocity": 0.28346456692913385,
                    "duration": 0.14493450000000507
                },
                {
                    "name": "C4",
                    "midi": 60,
                    "time": 72.32231549999996,
                    "velocity": 0.28346456692913385,
                    "duration": 0.14493450000000507
                },
                {
                    "name": "C3",
                    "midi": 48,
                    "time": 72.46724999999996,
                    "velocity": 0.31496062992125984,
                    "duration": 0.14493450000000507
                },
                {
                    "name": "F3",
                    "midi": 53,
                    "time": 72.61218449999997,
                    "velocity": 0.31496062992125984,
                    "duration": 0.14493450000000507
                },
                {
                    "name": "G3",
                    "midi": 55,
                    "time": 72.75711899999997,
                    "velocity": 0.28346456692913385,
                    "duration": 0.14493450000000507
                },
                {
                    "name": "B3",
                    "midi": 59,
                    "time": 72.90205349999998,
                    "velocity": 0.28346456692913385,
                    "duration": 0.14493450000000507
                },
                {
                    "name": "C3",
                    "midi": 48,
                    "time": 73.04698799999998,
                    "velocity": 0.31496062992125984,
                    "duration": 0.14493450000000507
                },
                {
                    "name": "D#3",
                    "midi": 51,
                    "time": 73.19192249999999,
                    "velocity": 0.31496062992125984,
                    "duration": 0.14493450000000507
                },
                {
                    "name": "G3",
                    "midi": 55,
                    "time": 73.336857,
                    "velocity": 0.28346456692913385,
                    "duration": 0.14493450000000507
                },
                {
                    "name": "C4",
                    "midi": 60,
                    "time": 73.4817915,
                    "velocity": 0.28346456692913385,
                    "duration": 0.14493450000000507
                },
                {
                    "name": "D#4",
                    "midi": 63,
                    "time": 73.626726,
                    "velocity": 0.31496062992125984,
                    "duration": 0.14493450000000507
                },
                {
                    "name": "G4",
                    "midi": 67,
                    "time": 73.77166050000001,
                    "velocity": 0.28346456692913385,
                    "duration": 0.14493450000000507
                },
                {
                    "name": "D#4",
                    "midi": 63,
                    "time": 73.91659500000002,
                    "velocity": 0.28346456692913385,
                    "duration": 0.14493450000000507
                },
                {
                    "name": "D4",
                    "midi": 62,
                    "time": 74.06152950000002,
                    "velocity": 0.28346456692913385,
                    "duration": 0.14493450000000507
                },
                {
                    "name": "C4",
                    "midi": 60,
                    "time": 74.20646400000003,
                    "velocity": 0.31496062992125984,
                    "duration": 0.14493450000000507
                },
                {
                    "name": "G4",
                    "midi": 67,
                    "time": 74.35139850000003,
                    "velocity": 0.28346456692913385,
                    "duration": 0.14493450000000507
                },
                {
                    "name": "C4",
                    "midi": 60,
                    "time": 74.49633300000004,
                    "velocity": 0.28346456692913385,
                    "duration": 0.14493450000000507
                },
                {
                    "name": "D#4",
                    "midi": 63,
                    "time": 74.49633300000004,
                    "velocity": 0.28346456692913385,
                    "duration": 0.14493450000000507
                },
                {
                    "name": "G4",
                    "midi": 67,
                    "time": 74.64126750000004,
                    "velocity": 0.28346456692913385,
                    "duration": 0.14493450000000507
                },
                {
                    "name": "B3",
                    "midi": 59,
                    "time": 74.78620200000005,
                    "velocity": 0.3228346456692913,
                    "duration": 0.14493450000000507
                },
                {
                    "name": "D4",
                    "midi": 62,
                    "time": 74.78620200000005,
                    "velocity": 0.3228346456692913,
                    "duration": 0.14493450000000507
                },
                {
                    "name": "G4",
                    "midi": 67,
                    "time": 74.93113650000005,
                    "velocity": 0.28346456692913385,
                    "duration": 0.14493450000000507
                },
                {
                    "name": "C4",
                    "midi": 60,
                    "time": 75.07607100000006,
                    "velocity": 0.28346456692913385,
                    "duration": 0.14493450000000507
                },
                {
                    "name": "G#3",
                    "midi": 56,
                    "time": 75.07607100000006,
                    "velocity": 0.28346456692913385,
                    "duration": 0.14493450000000507
                },
                {
                    "name": "G4",
                    "midi": 67,
                    "time": 75.22100550000006,
                    "velocity": 0.28346456692913385,
                    "duration": 0.14493450000000507
                },
                {
                    "name": "G3",
                    "midi": 55,
                    "time": 75.36594000000007,
                    "velocity": 0.31496062992125984,
                    "duration": 0.14493450000000507
                },
                {
                    "name": "B3",
                    "midi": 59,
                    "time": 75.51087450000007,
                    "velocity": 0.2283464566929134,
                    "duration": 0.14493450000000507
                },
                {
                    "name": "D4",
                    "midi": 62,
                    "time": 75.65580900000008,
                    "velocity": 0.2204724409448819,
                    "duration": 0.14493450000000507
                },
                {
                    "name": "G4",
                    "midi": 67,
                    "time": 75.80074350000008,
                    "velocity": 0.2204724409448819,
                    "duration": 0.14493450000000507
                },
                {
                    "name": "G3",
                    "midi": 55,
                    "time": 75.94567800000009,
                    "velocity": 0.31496062992125984,
                    "duration": 0.14493450000000507
                },
                {
                    "name": "B3",
                    "midi": 59,
                    "time": 76.09061250000009,
                    "velocity": 0.2440944881889764,
                    "duration": 0.14493450000000507
                },
                {
                    "name": "D4",
                    "midi": 62,
                    "time": 76.2355470000001,
                    "velocity": 0.2440944881889764,
                    "duration": 0.14493450000000507
                },
                {
                    "name": "G4",
                    "midi": 67,
                    "time": 76.3804815000001,
                    "velocity": 0.2440944881889764,
                    "duration": 0.14493450000000507
                },
                {
                    "name": "F3",
                    "midi": 53,
                    "time": 76.5254160000001,
                    "velocity": 0.31496062992125984,
                    "duration": 0.14493450000000507
                },
                {
                    "name": "G#3",
                    "midi": 56,
                    "time": 76.67035050000011,
                    "velocity": 0.28346456692913385,
                    "duration": 0.14493450000000507
                },
                {
                    "name": "B3",
                    "midi": 59,
                    "time": 76.81528500000012,
                    "velocity": 0.29133858267716534,
                    "duration": 0.14493450000000507
                },
                {
                    "name": "D4",
                    "midi": 62,
                    "time": 76.96021950000012,
                    "velocity": 0.29133858267716534,
                    "duration": 0.14493450000000507
                },
                {
                    "name": "F3",
                    "midi": 53,
                    "time": 77.10515400000013,
                    "velocity": 0.31496062992125984,
                    "duration": 0.14493450000000507
                },
                {
                    "name": "G#3",
                    "midi": 56,
                    "time": 77.25008850000013,
                    "velocity": 0.28346456692913385,
                    "duration": 0.14493450000000507
                },
                {
                    "name": "B3",
                    "midi": 59,
                    "time": 77.39502300000014,
                    "velocity": 0.28346456692913385,
                    "duration": 0.14493450000000507
                },
                {
                    "name": "D4",
                    "midi": 62,
                    "time": 77.53995750000014,
                    "velocity": 0.28346456692913385,
                    "duration": 0.14493450000000507
                },
                {
                    "name": "D#3",
                    "midi": 51,
                    "time": 77.68489200000015,
                    "velocity": 0.31496062992125984,
                    "duration": 0.14493450000000507
                },
                {
                    "name": "G3",
                    "midi": 55,
                    "time": 77.82982650000015,
                    "velocity": 0.2677165354330709,
                    "duration": 0.14493450000000507
                },
                {
                    "name": "C4",
                    "midi": 60,
                    "time": 77.97476100000016,
                    "velocity": 0.2677165354330709,
                    "duration": 0.14493450000000507
                },
                {
                    "name": "D#4",
                    "midi": 63,
                    "time": 78.11969550000016,
                    "velocity": 0.25984251968503935,
                    "duration": 0.14493450000000507
                },
                {
                    "name": "G#3",
                    "midi": 56,
                    "time": 78.26463000000017,
                    "velocity": 0.3228346456692913,
                    "duration": 0.14493450000000507
                },
                {
                    "name": "C4",
                    "midi": 60,
                    "time": 78.40956450000017,
                    "velocity": 0.2755905511811024,
                    "duration": 0.14493450000000507
                },
                {
                    "name": "D#4",
                    "midi": 63,
                    "time": 78.55449900000018,
                    "velocity": 0.2755905511811024,
                    "duration": 0.14493450000000507
                },
                {
                    "name": "F#4",
                    "midi": 66,
                    "time": 78.69943350000018,
                    "velocity": 0.2755905511811024,
                    "duration": 0.14493450000000507
                },
                {
                    "name": "G3",
                    "midi": 55,
                    "time": 78.84436800000019,
                    "velocity": 0.31496062992125984,
                    "duration": 0.14493450000000507
                },
                {
                    "name": "C4",
                    "midi": 60,
                    "time": 78.98930250000019,
                    "velocity": 0.31496062992125984,
                    "duration": 0.14493450000000507
                },
                {
                    "name": "D#4",
                    "midi": 63,
                    "time": 79.1342370000002,
                    "velocity": 0.2755905511811024,
                    "duration": 0.14493450000000507
                },
                {
                    "name": "G4",
                    "midi": 67,
                    "time": 79.2791715000002,
                    "velocity": 0.2755905511811024,
                    "duration": 0.14493450000000507
                },
                {
                    "name": "G3",
                    "midi": 55,
                    "time": 79.42410600000021,
                    "velocity": 0.31496062992125984,
                    "duration": 0.14493450000000507
                },
                {
                    "name": "B3",
                    "midi": 59,
                    "time": 79.56904050000021,
                    "velocity": 0.28346456692913385,
                    "duration": 0.14493450000000507
                },
                {
                    "name": "D4",
                    "midi": 62,
                    "time": 79.71397500000022,
                    "velocity": 0.28346456692913385,
                    "duration": 0.14493450000000507
                },
                {
                    "name": "G4",
                    "midi": 67,
                    "time": 79.85890950000022,
                    "velocity": 0.28346456692913385,
                    "duration": 0.14493450000000507
                },
                {
                    "name": "C3",
                    "midi": 48,
                    "time": 80.14877850000023,
                    "velocity": 0.2992125984251969,
                    "duration": 0.14493450000000507
                },
                {
                    "name": "D#3",
                    "midi": 51,
                    "time": 80.29371300000024,
                    "velocity": 0.33070866141732286,
                    "duration": 0.14493450000000507
                },
                {
                    "name": "G3",
                    "midi": 55,
                    "time": 80.43864750000024,
                    "velocity": 0.3543307086614173,
                    "duration": 0.14493450000000507
                },
                {
                    "name": "C4",
                    "midi": 60,
                    "time": 80.58358200000025,
                    "velocity": 0.3858267716535433,
                    "duration": 0.28986899999999594
                },
                {
                    "name": "F2",
                    "midi": 41,
                    "time": 81.30825450000025,
                    "velocity": 0.33858267716535434,
                    "duration": 0.14493450000000507
                },
                {
                    "name": "B2",
                    "midi": 47,
                    "time": 81.45318900000025,
                    "velocity": 0.3543307086614173,
                    "duration": 0.14493450000000507
                },
                {
                    "name": "D3",
                    "midi": 50,
                    "time": 81.59812350000026,
                    "velocity": 0.3700787401574803,
                    "duration": 0.14493450000000507
                },
                {
                    "name": "F3",
                    "midi": 53,
                    "time": 81.74305800000026,
                    "velocity": 0.3858267716535433,
                    "duration": 0.14493450000000507
                },
                {
                    "name": "G#3",
                    "midi": 56,
                    "time": 81.88799250000027,
                    "velocity": 0.33858267716535434,
                    "duration": 0.14493450000000507
                },
                {
                    "name": "G3",
                    "midi": 55,
                    "time": 82.03292700000027,
                    "velocity": 0.33858267716535434,
                    "duration": 0.14493450000000507
                },
                {
                    "name": "F3",
                    "midi": 53,
                    "time": 82.17786150000028,
                    "velocity": 0.33858267716535434,
                    "duration": 0.14493450000000507
                },
                {
                    "name": "D#2",
                    "midi": 39,
                    "time": 82.46773050000029,
                    "velocity": 0.31496062992125984,
                    "duration": 0.14493450000000507
                },
                {
                    "name": "G2",
                    "midi": 43,
                    "time": 82.61266500000029,
                    "velocity": 0.33070866141732286,
                    "duration": 0.14493450000000507
                },
                {
                    "name": "C3",
                    "midi": 48,
                    "time": 82.7575995000003,
                    "velocity": 0.3543307086614173,
                    "duration": 0.14493450000000507
                },
                {
                    "name": "D#3",
                    "midi": 51,
                    "time": 82.9025340000003,
                    "velocity": 0.3779527559055118,
                    "duration": 0.14493450000000507
                },
                {
                    "name": "G3",
                    "midi": 55,
                    "time": 83.0474685000003,
                    "velocity": 0.31496062992125984,
                    "duration": 0.14493450000000507
                },
                {
                    "name": "G#3",
                    "midi": 56,
                    "time": 83.19240300000031,
                    "velocity": 0.30708661417322836,
                    "duration": 0.14493450000000507
                },
                {
                    "name": "F#3",
                    "midi": 54,
                    "time": 83.33733750000032,
                    "velocity": 0.30708661417322836,
                    "duration": 0.14493450000000507
                },
                {
                    "name": "G2",
                    "midi": 43,
                    "time": 83.48227200000032,
                    "velocity": 0.3779527559055118,
                    "duration": 0.14493450000000507
                },
                {
                    "name": "G3",
                    "midi": 55,
                    "time": 83.62720650000033,
                    "velocity": 0.3464566929133858,
                    "duration": 0.14493450000000507
                },
                {
                    "name": "C4",
                    "midi": 60,
                    "time": 83.77214100000033,
                    "velocity": 0.2992125984251969,
                    "duration": 0.14493450000000507
                },
                {
                    "name": "G3",
                    "midi": 55,
                    "time": 83.91707550000034,
                    "velocity": 0.2992125984251969,
                    "duration": 0.14493450000000507
                },
                {
                    "name": "G2",
                    "midi": 43,
                    "time": 84.06201000000034,
                    "velocity": 0.3779527559055118,
                    "duration": 0.14493450000000507
                },
                {
                    "name": "G3",
                    "midi": 55,
                    "time": 84.20694450000035,
                    "velocity": 0.30708661417322836,
                    "duration": 0.14493450000000507
                },
                {
                    "name": "B3",
                    "midi": 59,
                    "time": 84.35187900000035,
                    "velocity": 0.30708661417322836,
                    "duration": 0.14493450000000507
                },
                {
                    "name": "G3",
                    "midi": 55,
                    "time": 84.49681350000036,
                    "velocity": 0.30708661417322836,
                    "duration": 0.14493450000000507
                },
                {
                    "name": "C3",
                    "midi": 48,
                    "time": 84.64174800000036,
                    "velocity": 0.4094488188976378,
                    "duration": 0.14493450000000507
                },
                {
                    "name": "C4",
                    "midi": 60,
                    "time": 84.78668250000037,
                    "velocity": 0.3543307086614173,
                    "duration": 0.14493450000000507
                },
                {
                    "name": "B3",
                    "midi": 59,
                    "time": 84.93161700000037,
                    "velocity": 0.3543307086614173,
                    "duration": 0.14493450000000507
                },
                {
                    "name": "C4",
                    "midi": 60,
                    "time": 85.07655150000038,
                    "velocity": 0.3543307086614173,
                    "duration": 0.14493450000000507
                },
                {
                    "name": "E3",
                    "midi": 52,
                    "time": 85.22148600000038,
                    "velocity": 0.4094488188976378,
                    "duration": 0.14493450000000507
                },
                {
                    "name": "C4",
                    "midi": 60,
                    "time": 85.36642050000039,
                    "velocity": 0.3779527559055118,
                    "duration": 0.14493450000000507
                },
                {
                    "name": "G3",
                    "midi": 55,
                    "time": 85.51135500000039,
                    "velocity": 0.3779527559055118,
                    "duration": 0.14493450000000507
                },
                {
                    "name": "C4",
                    "midi": 60,
                    "time": 85.6562895000004,
                    "velocity": 0.3779527559055118,
                    "duration": 0.14493450000000507
                },
                {
                    "name": "F3",
                    "midi": 53,
                    "time": 85.8012240000004,
                    "velocity": 0.41732283464566927,
                    "duration": 0.14493450000000507
                },
                {
                    "name": "C4",
                    "midi": 60,
                    "time": 85.94615850000041,
                    "velocity": 0.3858267716535433,
                    "duration": 0.14493450000000507
                },
                {
                    "name": "G#3",
                    "midi": 56,
                    "time": 86.09109300000041,
                    "velocity": 0.3937007874015748,
                    "duration": 0.14493450000000507
                },
                {
                    "name": "C4",
                    "midi": 60,
                    "time": 86.23602750000042,
                    "velocity": 0.3858267716535433,
                    "duration": 0.14493450000000507
                },
                {
                    "name": "G3",
                    "midi": 55,
                    "time": 86.38096200000042,
                    "velocity": 0.4251968503937008,
                    "duration": 0.14493450000000507
                },
                {
                    "name": "F4",
                    "midi": 65,
                    "time": 86.52589650000043,
                    "velocity": 0.4094488188976378,
                    "duration": 0.14493450000000507
                },
                {
                    "name": "B3",
                    "midi": 59,
                    "time": 86.67083100000043,
                    "velocity": 0.33858267716535434,
                    "duration": 0.14493450000000507
                },
                {
                    "name": "F4",
                    "midi": 65,
                    "time": 86.81576550000044,
                    "velocity": 0.3937007874015748,
                    "duration": 0.14493450000000507
                },
                {
                    "name": "G#3",
                    "midi": 56,
                    "time": 86.96070000000044,
                    "velocity": 0.4251968503937008,
                    "duration": 0.14493450000000507
                },
                {
                    "name": "D#4",
                    "midi": 63,
                    "time": 87.10563450000045,
                    "velocity": 0.3700787401574803,
                    "duration": 0.14493450000000507
                },
                {
                    "name": "C4",
                    "midi": 60,
                    "time": 87.25056900000045,
                    "velocity": 0.3700787401574803,
                    "duration": 0.14493450000000507
                },
                {
                    "name": "D#4",
                    "midi": 63,
                    "time": 87.39550350000046,
                    "velocity": 0.3700787401574803,
                    "duration": 0.14493450000000507
                },
                {
                    "name": "G3",
                    "midi": 55,
                    "time": 87.54043800000046,
                    "velocity": 0.4881889763779528,
                    "duration": 0.14493450000000507
                },
                {
                    "name": "E4",
                    "midi": 64,
                    "time": 87.68537250000047,
                    "velocity": 0.4251968503937008,
                    "duration": 0.14493450000000507
                },
                {
                    "name": "C4",
                    "midi": 60,
                    "time": 87.83030700000047,
                    "velocity": 0.4330708661417323,
                    "duration": 0.14493450000000507
                },
                {
                    "name": "E4",
                    "midi": 64,
                    "time": 87.97524150000048,
                    "velocity": 0.4330708661417323,
                    "duration": 0.14493450000000507
                },
                {
                    "name": "F3",
                    "midi": 53,
                    "time": 88.12017600000048,
                    "velocity": 0.5039370078740157,
                    "duration": 0.14493450000000507
                },
                {
                    "name": "F4",
                    "midi": 65,
                    "time": 88.26511050000049,
                    "velocity": 0.44881889763779526,
                    "duration": 0.14493450000000507
                },
                {
                    "name": "C4",
                    "midi": 60,
                    "time": 88.4100450000005,
                    "velocity": 0.4566929133858268,
                    "duration": 0.14493450000000507
                },
                {
                    "name": "F4",
                    "midi": 65,
                    "time": 88.5549795000005,
                    "velocity": 0.44881889763779526,
                    "duration": 0.14493450000000507
                },
                {
                    "name": "G3",
                    "midi": 55,
                    "time": 88.6999140000005,
                    "velocity": 0.49606299212598426,
                    "duration": 0.14493450000000507
                },
                {
                    "name": "G4",
                    "midi": 67,
                    "time": 88.84484850000051,
                    "velocity": 0.44881889763779526,
                    "duration": 0.14493450000000507
                },
                {
                    "name": "G3",
                    "midi": 55,
                    "time": 88.98978300000051,
                    "velocity": 0.44881889763779526,
                    "duration": 0.14493450000000507
                },
                {
                    "name": "G4",
                    "midi": 67,
                    "time": 89.13471750000052,
                    "velocity": 0.4409448818897638,
                    "duration": 0.14493450000000507
                },
                {
                    "name": "C4",
                    "midi": 60,
                    "time": 89.27965200000052,
                    "velocity": 0.5354330708661418,
                    "duration": 0.14493450000000507
                },
                {
                    "name": "G3",
                    "midi": 55,
                    "time": 89.56952100000053,
                    "velocity": 0.4881889763779528,
                    "duration": 0.14493450000000507
                },
                {
                    "name": "B3",
                    "midi": 59,
                    "time": 89.56952100000053,
                    "velocity": 0.4881889763779528,
                    "duration": 0.14493450000000507
                },
                {
                    "name": "C3",
                    "midi": 48,
                    "time": 89.85939000000054,
                    "velocity": 0.4881889763779528,
                    "duration": 0.14493450000000507
                },
                {
                    "name": "C4",
                    "midi": 60,
                    "time": 89.85939000000054,
                    "velocity": 0.4881889763779528,
                    "duration": 0.14493450000000507
                },
                {
                    "name": "G2",
                    "midi": 43,
                    "time": 90.14925900000055,
                    "velocity": 0.4881889763779528,
                    "duration": 0.14493450000000507
                },
                {
                    "name": "G3",
                    "midi": 55,
                    "time": 90.14925900000055,
                    "velocity": 0.4881889763779528,
                    "duration": 0.14493450000000507
                },
                {
                    "name": "C2",
                    "midi": 36,
                    "time": 90.43912800000057,
                    "velocity": 0.5433070866141733,
                    "duration": 0.14493450000000507
                },
                {
                    "name": "C3",
                    "midi": 48,
                    "time": 90.43912800000057,
                    "velocity": 0.5433070866141733,
                    "duration": 0.14493450000000507
                },
                {
                    "name": "G#2",
                    "midi": 44,
                    "time": 91.16380050000058,
                    "velocity": 0.36220472440944884,
                    "duration": 0.14493450000000507
                },
                {
                    "name": "C3",
                    "midi": 48,
                    "time": 91.30873500000058,
                    "velocity": 0.3779527559055118,
                    "duration": 0.14493450000000507
                },
                {
                    "name": "D#3",
                    "midi": 51,
                    "time": 91.45366950000059,
                    "velocity": 0.3937007874015748,
                    "duration": 0.14493450000000507
                },
                {
                    "name": "G#3",
                    "midi": 56,
                    "time": 91.59860400000059,
                    "velocity": 0.4015748031496063,
                    "duration": 0.5797380000000061
                },
                {
                    "name": "C#3",
                    "midi": 49,
                    "time": 92.1783420000006,
                    "velocity": 0.3779527559055118,
                    "duration": 0.5797380000000061
                },
                {
                    "name": "G3",
                    "midi": 55,
                    "time": 92.7580800000006,
                    "velocity": 0.3779527559055118,
                    "duration": 0.5797380000000061
                },
                {
                    "name": "C3",
                    "midi": 48,
                    "time": 93.33781800000061,
                    "velocity": 0.3543307086614173,
                    "duration": 0.5797380000000061
                },
                {
                    "name": "F3",
                    "midi": 53,
                    "time": 93.91755600000062,
                    "velocity": 0.3779527559055118,
                    "duration": 0.28986899999999594
                },
                {
                    "name": "A#2",
                    "midi": 46,
                    "time": 94.20742500000061,
                    "velocity": 0.3779527559055118,
                    "duration": 0.5797380000000061
                },
                {
                    "name": "C3",
                    "midi": 48,
                    "time": 94.78716300000062,
                    "velocity": 0.3779527559055118,
                    "duration": 0.28986899999999594
                },
                {
                    "name": "C#3",
                    "midi": 49,
                    "time": 95.07703200000061,
                    "velocity": 0.4015748031496063,
                    "duration": 0.28986899999999594
                },
                {
                    "name": "D3",
                    "midi": 50,
                    "time": 95.36690100000061,
                    "velocity": 0.36220472440944884,
                    "duration": 0.28986899999999594
                },
                {
                    "name": "D#3",
                    "midi": 51,
                    "time": 95.6567700000006,
                    "velocity": 0.36220472440944884,
                    "duration": 0.28986899999999594
                },
                {
                    "name": "D#2",
                    "midi": 39,
                    "time": 95.9466390000006,
                    "velocity": 0.33070866141732286,
                    "duration": 0.28986899999999594
                },
                {
                    "name": "G#2",
                    "midi": 44,
                    "time": 96.2365080000006,
                    "velocity": 0.4015748031496063,
                    "duration": 0.5797380000000061
                },
                {
                    "name": "C#3",
                    "midi": 49,
                    "time": 96.8162460000006,
                    "velocity": 0.3858267716535433,
                    "duration": 0.5797380000000061
                },
                {
                    "name": "G2",
                    "midi": 43,
                    "time": 97.39598400000061,
                    "velocity": 0.4015748031496063,
                    "duration": 0.5797380000000061
                },
                {
                    "name": "C3",
                    "midi": 48,
                    "time": 97.97572200000062,
                    "velocity": 0.3858267716535433,
                    "duration": 0.5797380000000061
                },
                {
                    "name": "F2",
                    "midi": 41,
                    "time": 98.55546000000062,
                    "velocity": 0.4094488188976378,
                    "duration": 0.5797380000000061
                },
                {
                    "name": "G2",
                    "midi": 43,
                    "time": 99.13519800000063,
                    "velocity": 0.4015748031496063,
                    "duration": 0.28986899999999594
                },
                {
                    "name": "G#2",
                    "midi": 44,
                    "time": 99.42506700000062,
                    "velocity": 0.3858267716535433,
                    "duration": 0.28986899999999594
                },
                {
                    "name": "A2",
                    "midi": 45,
                    "time": 99.71493600000062,
                    "velocity": 0.41732283464566927,
                    "duration": 0.28986899999999594
                },
                {
                    "name": "A#2",
                    "midi": 46,
                    "time": 100.00480500000062,
                    "velocity": 0.3937007874015748,
                    "duration": 0.28986899999999594
                },
                {
                    "name": "D#2",
                    "midi": 39,
                    "time": 100.29467400000061,
                    "velocity": 0.3858267716535433,
                    "duration": 0.28986899999999594
                },
                {
                    "name": "G#3",
                    "midi": 56,
                    "time": 101.16428100000061,
                    "velocity": 0.33858267716535434,
                    "duration": 0.5797380000000061
                },
                {
                    "name": "C4",
                    "midi": 60,
                    "time": 101.16428100000061,
                    "velocity": 0.4015748031496063,
                    "duration": 0.5797380000000061
                },
                {
                    "name": "C#3",
                    "midi": 49,
                    "time": 101.74401900000062,
                    "velocity": 0.31496062992125984,
                    "duration": 0.5797380000000061
                },
                {
                    "name": "F3",
                    "midi": 53,
                    "time": 101.74401900000062,
                    "velocity": 0.3779527559055118,
                    "duration": 0.5797380000000061
                },
                {
                    "name": "G3",
                    "midi": 55,
                    "time": 102.32375700000063,
                    "velocity": 0.33858267716535434,
                    "duration": 0.5797380000000061
                },
                {
                    "name": "A#3",
                    "midi": 58,
                    "time": 102.32375700000063,
                    "velocity": 0.4015748031496063,
                    "duration": 0.5797380000000061
                },
                {
                    "name": "C3",
                    "midi": 48,
                    "time": 102.90349500000063,
                    "velocity": 0.31496062992125984,
                    "duration": 0.5797380000000061
                },
                {
                    "name": "D#3",
                    "midi": 51,
                    "time": 102.90349500000063,
                    "velocity": 0.3779527559055118,
                    "duration": 0.5797380000000061
                },
                {
                    "name": "F3",
                    "midi": 53,
                    "time": 103.48323300000064,
                    "velocity": 0.33858267716535434,
                    "duration": 0.28986899999999594
                },
                {
                    "name": "G#3",
                    "midi": 56,
                    "time": 103.48323300000064,
                    "velocity": 0.4015748031496063,
                    "duration": 0.28986899999999594
                },
                {
                    "name": "A#2",
                    "midi": 46,
                    "time": 103.77310200000063,
                    "velocity": 0.4015748031496063,
                    "duration": 0.28986899999999594
                },
                {
                    "name": "C3",
                    "midi": 48,
                    "time": 104.06297100000063,
                    "velocity": 0.4015748031496063,
                    "duration": 0.28986899999999594
                },
                {
                    "name": "C#3",
                    "midi": 49,
                    "time": 104.35284000000063,
                    "velocity": 0.3858267716535433,
                    "duration": 0.28986899999999594
                },
                {
                    "name": "D3",
                    "midi": 50,
                    "time": 104.64270900000062,
                    "velocity": 0.3858267716535433,
                    "duration": 0.28986899999999594
                },
                {
                    "name": "D#3",
                    "midi": 51,
                    "time": 104.93257800000062,
                    "velocity": 0.3858267716535433,
                    "duration": 0.28986899999999594
                },
                {
                    "name": "C4",
                    "midi": 60,
                    "time": 105.51231600000061,
                    "velocity": 0.4015748031496063,
                    "duration": 0.5797380000000061
                },
                {
                    "name": "G#3",
                    "midi": 56,
                    "time": 105.51231600000061,
                    "velocity": 0.33858267716535434,
                    "duration": 0.5797380000000061
                },
                {
                    "name": "F4",
                    "midi": 65,
                    "time": 106.09205400000062,
                    "velocity": 0.3937007874015748,
                    "duration": 0.5797380000000061
                },
                {
                    "name": "C#4",
                    "midi": 61,
                    "time": 106.09205400000062,
                    "velocity": 0.33070866141732286,
                    "duration": 0.5797380000000061
                },
                {
                    "name": "A#3",
                    "midi": 58,
                    "time": 106.67179200000062,
                    "velocity": 0.4251968503937008,
                    "duration": 0.5797380000000061
                },
                {
                    "name": "G3",
                    "midi": 55,
                    "time": 106.67179200000062,
                    "velocity": 0.36220472440944884,
                    "duration": 0.5797380000000061
                },
                {
                    "name": "D#4",
                    "midi": 63,
                    "time": 107.25153000000063,
                    "velocity": 0.4251968503937008,
                    "duration": 0.5797380000000061
                },
                {
                    "name": "C4",
                    "midi": 60,
                    "time": 107.25153000000063,
                    "velocity": 0.3543307086614173,
                    "duration": 0.5797380000000061
                },
                {
                    "name": "F3",
                    "midi": 53,
                    "time": 107.83126800000063,
                    "velocity": 0.4645669291338583,
                    "duration": 0.5797380000000061
                },
                {
                    "name": "G3",
                    "midi": 55,
                    "time": 108.41100600000064,
                    "velocity": 0.47244094488188976,
                    "duration": 0.28986899999999594
                },
                {
                    "name": "G#3",
                    "midi": 56,
                    "time": 108.70087500000064,
                    "velocity": 0.4566929133858268,
                    "duration": 0.28986899999999594
                },
                {
                    "name": "A3",
                    "midi": 57,
                    "time": 108.99074400000063,
                    "velocity": 0.5039370078740157,
                    "duration": 0.28986899999999594
                },
                {
                    "name": "A#3",
                    "midi": 58,
                    "time": 109.28061300000063,
                    "velocity": 0.4881889763779528,
                    "duration": 0.28986899999999594
                },
                {
                    "name": "D#3",
                    "midi": 51,
                    "time": 109.57048200000062,
                    "velocity": 0.48031496062992124,
                    "duration": 0.28986899999999594
                },
                {
                    "name": "D#4",
                    "midi": 63,
                    "time": 109.86035100000062,
                    "velocity": 0.5039370078740157,
                    "duration": 0.28986899999999594
                },
                {
                    "name": "D4",
                    "midi": 62,
                    "time": 110.15022000000062,
                    "velocity": 0.5118110236220472,
                    "duration": 0.28986899999999594
                },
                {
                    "name": "D#4",
                    "midi": 63,
                    "time": 110.44008900000061,
                    "velocity": 0.5118110236220472,
                    "duration": 0.28986899999999594
                },
                {
                    "name": "F#4",
                    "midi": 66,
                    "time": 110.72995800000061,
                    "velocity": 0.5118110236220472,
                    "duration": 0.28986899999999594
                },
                {
                    "name": "A3",
                    "midi": 57,
                    "time": 111.0198270000006,
                    "velocity": 0.48031496062992124,
                    "duration": 0.28986899999999594
                },
                {
                    "name": "A#3",
                    "midi": 58,
                    "time": 111.3096960000006,
                    "velocity": 0.4881889763779528,
                    "duration": 0.14493450000000507
                },
                {
                    "name": "C#4",
                    "midi": 61,
                    "time": 112.1793030000006,
                    "velocity": 0.5118110236220472,
                    "duration": 0.28986899999999594
                },
                {
                    "name": "D#3",
                    "midi": 51,
                    "time": 112.1793030000006,
                    "velocity": 0.4251968503937008,
                    "duration": 0.28986899999999594
                },
                {
                    "name": "C4",
                    "midi": 60,
                    "time": 112.4691720000006,
                    "velocity": 0.4881889763779528,
                    "duration": 0.28986899999999594
                },
                {
                    "name": "G#3",
                    "midi": 56,
                    "time": 112.4691720000006,
                    "velocity": 0.4881889763779528,
                    "duration": 0.28986899999999594
                },
                {
                    "name": "A#2",
                    "midi": 46,
                    "time": 113.3387790000006,
                    "velocity": 0.41732283464566927,
                    "duration": 0.28986899999999594
                },
                {
                    "name": "G#3",
                    "midi": 56,
                    "time": 113.3387790000006,
                    "velocity": 0.49606299212598426,
                    "duration": 0.28986899999999594
                },
                {
                    "name": "D#3",
                    "midi": 51,
                    "time": 113.6286480000006,
                    "velocity": 0.49606299212598426,
                    "duration": 0.28986899999999594
                },
                {
                    "name": "G3",
                    "midi": 55,
                    "time": 113.6286480000006,
                    "velocity": 0.49606299212598426,
                    "duration": 0.28986899999999594
                },
                {
                    "name": "D#5",
                    "midi": 75,
                    "time": 114.35332050000059,
                    "velocity": 0.3858267716535433,
                    "duration": 0.07246725000000254
                },
                {
                    "name": "F5",
                    "midi": 77,
                    "time": 114.4982550000006,
                    "velocity": 0.3858267716535433,
                    "duration": 0.07246725000000254
                },
                {
                    "name": "G5",
                    "midi": 79,
                    "time": 114.6431895000006,
                    "velocity": 0.3858267716535433,
                    "duration": 0.07246725000000254
                },
                {
                    "name": "G#5",
                    "midi": 80,
                    "time": 114.78812400000061,
                    "velocity": 0.3858267716535433,
                    "duration": 0.14493450000000507
                },
                {
                    "name": "G5",
                    "midi": 79,
                    "time": 114.93305850000061,
                    "velocity": 0.3858267716535433,
                    "duration": 0.14493450000000507
                },
                {
                    "name": "F5",
                    "midi": 77,
                    "time": 115.07799300000062,
                    "velocity": 0.3858267716535433,
                    "duration": 0.14493450000000507
                },
                {
                    "name": "D#5",
                    "midi": 75,
                    "time": 115.22292750000062,
                    "velocity": 0.3858267716535433,
                    "duration": 0.14493450000000507
                },
                {
                    "name": "C#5",
                    "midi": 73,
                    "time": 115.36786200000063,
                    "velocity": 0.3858267716535433,
                    "duration": 0.14493450000000507
                },
                {
                    "name": "C5",
                    "midi": 72,
                    "time": 115.51279650000063,
                    "velocity": 0.3858267716535433,
                    "duration": 0.14493450000000507
                },
                {
                    "name": "A#4",
                    "midi": 70,
                    "time": 115.65773100000064,
                    "velocity": 0.3858267716535433,
                    "duration": 0.14493450000000507
                },
                {
                    "name": "G#4",
                    "midi": 68,
                    "time": 115.80266550000064,
                    "velocity": 0.3858267716535433,
                    "duration": 0.14493450000000507
                },
                {
                    "name": "G4",
                    "midi": 67,
                    "time": 115.94760000000065,
                    "velocity": 0.3858267716535433,
                    "duration": 0.14493450000000507
                },
                {
                    "name": "F4",
                    "midi": 65,
                    "time": 116.09253450000065,
                    "velocity": 0.3858267716535433,
                    "duration": 0.14493450000000507
                },
                {
                    "name": "D#4",
                    "midi": 63,
                    "time": 116.23746900000066,
                    "velocity": 0.3858267716535433,
                    "duration": 0.14493450000000507
                },
                {
                    "name": "C#4",
                    "midi": 61,
                    "time": 116.38240350000066,
                    "velocity": 0.3858267716535433,
                    "duration": 0.14493450000000507
                },
                {
                    "name": "C4",
                    "midi": 60,
                    "time": 116.52733800000067,
                    "velocity": 0.3858267716535433,
                    "duration": 0.14493450000000507
                },
                {
                    "name": "A#3",
                    "midi": 58,
                    "time": 116.67227250000067,
                    "velocity": 0.3858267716535433,
                    "duration": 0.14493450000000507
                },
                {
                    "name": "G#3",
                    "midi": 56,
                    "time": 116.81720700000068,
                    "velocity": 0.3858267716535433,
                    "duration": 0.14493450000000507
                },
                {
                    "name": "G3",
                    "midi": 55,
                    "time": 116.96214150000068,
                    "velocity": 0.3858267716535433,
                    "duration": 0.14493450000000507
                },
                {
                    "name": "F3",
                    "midi": 53,
                    "time": 117.10707600000069,
                    "velocity": 0.4015748031496063,
                    "duration": 0.14493450000000507
                },
                {
                    "name": "D#3",
                    "midi": 51,
                    "time": 117.2520105000007,
                    "velocity": 0.4015748031496063,
                    "duration": 0.14493450000000507
                },
                {
                    "name": "C#3",
                    "midi": 49,
                    "time": 117.3969450000007,
                    "velocity": 0.4094488188976378,
                    "duration": 0.14493450000000507
                },
                {
                    "name": "C3",
                    "midi": 48,
                    "time": 117.5418795000007,
                    "velocity": 0.41732283464566927,
                    "duration": 0.14493450000000507
                },
                {
                    "name": "A#2",
                    "midi": 46,
                    "time": 117.68681400000071,
                    "velocity": 0.41732283464566927,
                    "duration": 0.14493450000000507
                },
                {
                    "name": "A2",
                    "midi": 45,
                    "time": 117.83174850000071,
                    "velocity": 0.4251968503937008,
                    "duration": 0.14493450000000507
                },
                {
                    "name": "A#2",
                    "midi": 46,
                    "time": 117.97668300000072,
                    "velocity": 0.4330708661417323,
                    "duration": 0.14493450000000507
                },
                {
                    "name": "C3",
                    "midi": 48,
                    "time": 118.12161750000072,
                    "velocity": 0.4330708661417323,
                    "duration": 0.14493450000000507
                },
                {
                    "name": "C#3",
                    "midi": 49,
                    "time": 118.26655200000073,
                    "velocity": 0.4330708661417323,
                    "duration": 0.14493450000000507
                },
                {
                    "name": "C3",
                    "midi": 48,
                    "time": 118.41148650000073,
                    "velocity": 0.4409448818897638,
                    "duration": 0.14493450000000507
                },
                {
                    "name": "C#3",
                    "midi": 49,
                    "time": 118.55642100000074,
                    "velocity": 0.44881889763779526,
                    "duration": 0.14493450000000507
                },
                {
                    "name": "D3",
                    "midi": 50,
                    "time": 118.70135550000074,
                    "velocity": 0.4566929133858268,
                    "duration": 0.14493450000000507
                },
                {
                    "name": "D#3",
                    "midi": 51,
                    "time": 118.84629000000075,
                    "velocity": 0.4645669291338583,
                    "duration": 0.14493450000000507
                },
                {
                    "name": "F3",
                    "midi": 53,
                    "time": 118.99122450000075,
                    "velocity": 0.47244094488188976,
                    "duration": 0.14493450000000507
                },
                {
                    "name": "F#3",
                    "midi": 54,
                    "time": 119.13615900000076,
                    "velocity": 0.48031496062992124,
                    "duration": 0.14493450000000507
                },
                {
                    "name": "G3",
                    "midi": 55,
                    "time": 119.28109350000076,
                    "velocity": 0.4881889763779528,
                    "duration": 0.14493450000000507
                },
                {
                    "name": "G#2",
                    "midi": 44,
                    "time": 119.42602800000077,
                    "velocity": 0.5984251968503937,
                    "duration": 0.5797380000000061
                },
                {
                    "name": "C#3",
                    "midi": 49,
                    "time": 120.00576600000078,
                    "velocity": 0.5669291338582677,
                    "duration": 0.5797380000000061
                },
                {
                    "name": "G2",
                    "midi": 43,
                    "time": 120.58550400000078,
                    "velocity": 0.6062992125984252,
                    "duration": 0.5797380000000061
                },
                {
                    "name": "C3",
                    "midi": 48,
                    "time": 121.16524200000079,
                    "velocity": 0.5590551181102362,
                    "duration": 0.5797380000000061
                },
                {
                    "name": "F2",
                    "midi": 41,
                    "time": 121.7449800000008,
                    "velocity": 0.5984251968503937,
                    "duration": 0.5797380000000061
                },
                {
                    "name": "F1",
                    "midi": 29,
                    "time": 122.3247180000008,
                    "velocity": 0.5984251968503937,
                    "duration": 1.159475999999998
                },
                {
                    "name": "F2",
                    "midi": 41,
                    "time": 122.3247180000008,
                    "velocity": 0.5984251968503937,
                    "duration": 1.159475999999998
                },
                {
                    "name": "F#1",
                    "midi": 30,
                    "time": 123.4841940000008,
                    "velocity": 0.5905511811023622,
                    "duration": 0.5797380000000061
                },
                {
                    "name": "F#2",
                    "midi": 42,
                    "time": 123.4841940000008,
                    "velocity": 0.5905511811023622,
                    "duration": 0.5797380000000061
                },
                {
                    "name": "G1",
                    "midi": 31,
                    "time": 124.0639320000008,
                    "velocity": 0.5905511811023622,
                    "duration": 0.28986899999999594
                },
                {
                    "name": "D2",
                    "midi": 38,
                    "time": 124.4987355000008,
                    "velocity": 0.4251968503937008,
                    "duration": 0.07246725000000254
                },
                {
                    "name": "B1",
                    "midi": 35,
                    "time": 124.57120275000081,
                    "velocity": 0.4330708661417323,
                    "duration": 0.07246725000000254
                },
                {
                    "name": "G1",
                    "midi": 31,
                    "time": 124.64367000000081,
                    "velocity": 0.5275590551181102,
                    "duration": 0.07246725000000254
                },
                {
                    "name": "D#2",
                    "midi": 39,
                    "time": 125.07847350000081,
                    "velocity": 0.4330708661417323,
                    "duration": 0.07246725000000254
                },
                {
                    "name": "C2",
                    "midi": 36,
                    "time": 125.15094075000081,
                    "velocity": 0.4330708661417323,
                    "duration": 0.07246725000000254
                },
                {
                    "name": "G1",
                    "midi": 31,
                    "time": 125.22340800000082,
                    "velocity": 0.5433070866141733,
                    "duration": 0.07246725000000254
                },
                {
                    "name": "F2",
                    "midi": 41,
                    "time": 125.65821150000082,
                    "velocity": 0.44881889763779526,
                    "duration": 0.07246725000000254
                },
                {
                    "name": "D2",
                    "midi": 38,
                    "time": 125.73067875000082,
                    "velocity": 0.44881889763779526,
                    "duration": 0.07246725000000254
                },
                {
                    "name": "G1",
                    "midi": 31,
                    "time": 125.80314600000082,
                    "velocity": 0.5511811023622047,
                    "duration": 0.07246725000000254
                },
                {
                    "name": "D#2",
                    "midi": 39,
                    "time": 126.23794950000082,
                    "velocity": 0.4645669291338583,
                    "duration": 0.07246725000000254
                },
                {
                    "name": "C2",
                    "midi": 36,
                    "time": 126.31041675000083,
                    "velocity": 0.4645669291338583,
                    "duration": 0.07246725000000254
                },
                {
                    "name": "G1",
                    "midi": 31,
                    "time": 126.38288400000083,
                    "velocity": 0.6377952755905512,
                    "duration": 0.07246725000000254
                },
                {
                    "name": "D3",
                    "midi": 50,
                    "time": 126.81768750000083,
                    "velocity": 0.4645669291338583,
                    "duration": 0.07246725000000254
                },
                {
                    "name": "B2",
                    "midi": 47,
                    "time": 126.89015475000083,
                    "velocity": 0.4645669291338583,
                    "duration": 0.07246725000000254
                },
                {
                    "name": "G2",
                    "midi": 43,
                    "time": 126.96262200000083,
                    "velocity": 0.5826771653543307,
                    "duration": 0.07246725000000254
                },
                {
                    "name": "D#3",
                    "midi": 51,
                    "time": 127.39742550000084,
                    "velocity": 0.4645669291338583,
                    "duration": 0.07246725000000254
                },
                {
                    "name": "C3",
                    "midi": 48,
                    "time": 127.46989275000084,
                    "velocity": 0.4645669291338583,
                    "duration": 0.07246725000000254
                },
                {
                    "name": "G2",
                    "midi": 43,
                    "time": 127.54236000000084,
                    "velocity": 0.5984251968503937,
                    "duration": 0.07246725000000254
                },
                {
                    "name": "F3",
                    "midi": 53,
                    "time": 127.97716350000084,
                    "velocity": 0.4881889763779528,
                    "duration": 0.07246724999998833
                },
                {
                    "name": "D3",
                    "midi": 50,
                    "time": 128.04963075000083,
                    "velocity": 0.4881889763779528,
                    "duration": 0.07246724999998833
                },
                {
                    "name": "G2",
                    "midi": 43,
                    "time": 128.12209800000082,
                    "velocity": 0.5984251968503937,
                    "duration": 0.07246724999998833
                },
                {
                    "name": "D#3",
                    "midi": 51,
                    "time": 128.5569015000008,
                    "velocity": 0.5118110236220472,
                    "duration": 0.07246724999998833
                },
                {
                    "name": "C3",
                    "midi": 48,
                    "time": 128.6293687500008,
                    "velocity": 0.5118110236220472,
                    "duration": 0.07246724999998833
                },
                {
                    "name": "G2",
                    "midi": 43,
                    "time": 128.70183600000078,
                    "velocity": 0.6929133858267716,
                    "duration": 0.07246724999998833
                },
                {
                    "name": "D4",
                    "midi": 62,
                    "time": 129.13663950000077,
                    "velocity": 0.5511811023622047,
                    "duration": 0.07246724999998833
                },
                {
                    "name": "B3",
                    "midi": 59,
                    "time": 129.20910675000076,
                    "velocity": 0.5511811023622047,
                    "duration": 0.07246724999998833
                },
                {
                    "name": "G3",
                    "midi": 55,
                    "time": 129.28157400000075,
                    "velocity": 0.6771653543307087,
                    "duration": 0.07246724999998833
                },
                {
                    "name": "D#4",
                    "midi": 63,
                    "time": 129.71637750000073,
                    "velocity": 0.5354330708661418,
                    "duration": 0.07246724999998833
                },
                {
                    "name": "C4",
                    "midi": 60,
                    "time": 129.78884475000072,
                    "velocity": 0.5354330708661418,
                    "duration": 0.07246724999998833
                },
                {
                    "name": "G3",
                    "midi": 55,
                    "time": 129.8613120000007,
                    "velocity": 0.6771653543307087,
                    "duration": 0.07246724999998833
                },
                {
                    "name": "F4",
                    "midi": 65,
                    "time": 130.2961155000007,
                    "velocity": 0.5511811023622047,
                    "duration": 0.07246724999998833
                },
                {
                    "name": "D4",
                    "midi": 62,
                    "time": 130.36858275000068,
                    "velocity": 0.5511811023622047,
                    "duration": 0.07246724999998833
                },
                {
                    "name": "G3",
                    "midi": 55,
                    "time": 130.44105000000067,
                    "velocity": 0.6771653543307087,
                    "duration": 0.07246724999998833
                },
                {
                    "name": "D#4",
                    "midi": 63,
                    "time": 130.87585350000066,
                    "velocity": 0.5590551181102362,
                    "duration": 0.07246724999998833
                },
                {
                    "name": "C4",
                    "midi": 60,
                    "time": 130.94832075000065,
                    "velocity": 0.5590551181102362,
                    "duration": 0.07246724999998833
                },
                {
                    "name": "G3",
                    "midi": 55,
                    "time": 131.02078800000064,
                    "velocity": 0.6299212598425197,
                    "duration": 0.07246724999998833
                },
                {
                    "name": "G3",
                    "midi": 55,
                    "time": 131.89039500000064,
                    "velocity": 0.5275590551181102,
                    "duration": 0.09662299999999391
                },
                {
                    "name": "D3",
                    "midi": 50,
                    "time": 131.98701800000063,
                    "velocity": 0.5275590551181102,
                    "duration": 0.09662299999999391
                },
                {
                    "name": "B2",
                    "midi": 47,
                    "time": 132.08364100000063,
                    "velocity": 0.5196850393700787,
                    "duration": 0.09662299999999391
                },
                {
                    "name": "G2",
                    "midi": 43,
                    "time": 132.18026400000062,
                    "velocity": 0.6299212598425197,
                    "duration": 0.28986900000001015
                },
                {
                    "name": "G3",
                    "midi": 55,
                    "time": 133.04987100000062,
                    "velocity": 0.5275590551181102,
                    "duration": 0.09662299999999391
                },
                {
                    "name": "D3",
                    "midi": 50,
                    "time": 133.14649400000062,
                    "velocity": 0.5275590551181102,
                    "duration": 0.09662299999999391
                },
                {
                    "name": "B2",
                    "midi": 47,
                    "time": 133.2431170000006,
                    "velocity": 0.5196850393700787,
                    "duration": 0.09662299999999391
                },
                {
                    "name": "G2",
                    "midi": 43,
                    "time": 133.3397400000006,
                    "velocity": 0.6299212598425197,
                    "duration": 0.28986900000001015
                },
                {
                    "name": "G2",
                    "midi": 43,
                    "time": 134.2093470000006,
                    "velocity": 0.5275590551181102,
                    "duration": 0.09662299999999391
                },
                {
                    "name": "D2",
                    "midi": 38,
                    "time": 134.3059700000006,
                    "velocity": 0.5275590551181102,
                    "duration": 0.09662299999999391
                },
                {
                    "name": "B1",
                    "midi": 35,
                    "time": 134.4025930000006,
                    "velocity": 0.5196850393700787,
                    "duration": 0.09662299999999391
                },
                {
                    "name": "G1",
                    "midi": 31,
                    "time": 134.4992160000006,
                    "velocity": 0.6299212598425197,
                    "duration": 0.28986900000001015
                },
                {
                    "name": "G1",
                    "midi": 31,
                    "time": 135.6586920000006,
                    "velocity": 0.5905511811023622,
                    "duration": 2.318951999999996
                },
                {
                    "name": "G2",
                    "midi": 43,
                    "time": 135.6586920000006,
                    "velocity": 0.6299212598425197,
                    "duration": 2.318951999999996
                },
                {
                    "name": "G2",
                    "midi": 43,
                    "time": 137.9776440000006,
                    "velocity": 0.5433070866141733,
                    "duration": 1.739214000000004
                },
                {
                    "name": "F3",
                    "midi": 53,
                    "time": 137.9776440000006,
                    "velocity": 0.6456692913385826,
                    "duration": 1.739214000000004
                },
                {
                    "name": "D3",
                    "midi": 50,
                    "time": 137.9776440000006,
                    "velocity": 0.5433070866141733,
                    "duration": 1.739214000000004
                },
                {
                    "name": "C3",
                    "midi": 48,
                    "time": 140.2965960000006,
                    "velocity": 0.31496062992125984,
                    "duration": 0.14493450000000507
                },
                {
                    "name": "D#3",
                    "midi": 51,
                    "time": 140.4415305000006,
                    "velocity": 0.28346456692913385,
                    "duration": 0.14493450000000507
                },
                {
                    "name": "G3",
                    "midi": 55,
                    "time": 140.5864650000006,
                    "velocity": 0.28346456692913385,
                    "duration": 0.14493450000000507
                },
                {
                    "name": "C4",
                    "midi": 60,
                    "time": 140.7313995000006,
                    "velocity": 0.28346456692913385,
                    "duration": 0.14493450000000507
                },
                {
                    "name": "C3",
                    "midi": 48,
                    "time": 140.8763340000006,
                    "velocity": 0.31496062992125984,
                    "duration": 0.14493450000000507
                },
                {
                    "name": "F3",
                    "midi": 53,
                    "time": 141.02126850000062,
                    "velocity": 0.31496062992125984,
                    "duration": 0.14493450000000507
                },
                {
                    "name": "G3",
                    "midi": 55,
                    "time": 141.16620300000062,
                    "velocity": 0.28346456692913385,
                    "duration": 0.14493450000000507
                },
                {
                    "name": "B3",
                    "midi": 59,
                    "time": 141.31113750000063,
                    "velocity": 0.28346456692913385,
                    "duration": 0.14493450000000507
                },
                {
                    "name": "C3",
                    "midi": 48,
                    "time": 141.45607200000063,
                    "velocity": 0.31496062992125984,
                    "duration": 0.14493450000000507
                },
                {
                    "name": "D#3",
                    "midi": 51,
                    "time": 141.60100650000064,
                    "velocity": 0.31496062992125984,
                    "duration": 0.14493450000000507
                },
                {
                    "name": "G3",
                    "midi": 55,
                    "time": 141.74594100000064,
                    "velocity": 0.28346456692913385,
                    "duration": 0.14493450000000507
                },
                {
                    "name": "C4",
                    "midi": 60,
                    "time": 141.89087550000065,
                    "velocity": 0.28346456692913385,
                    "duration": 0.14493450000000507
                },
                {
                    "name": "D#4",
                    "midi": 63,
                    "time": 142.03581000000065,
                    "velocity": 0.31496062992125984,
                    "duration": 0.14493450000000507
                },
                {
                    "name": "G4",
                    "midi": 67,
                    "time": 142.18074450000066,
                    "velocity": 0.28346456692913385,
                    "duration": 0.14493450000000507
                },
                {
                    "name": "D#4",
                    "midi": 63,
                    "time": 142.32567900000066,
                    "velocity": 0.28346456692913385,
                    "duration": 0.14493450000000507
                },
                {
                    "name": "D4",
                    "midi": 62,
                    "time": 142.47061350000067,
                    "velocity": 0.28346456692913385,
                    "duration": 0.14493450000000507
                },
                {
                    "name": "C4",
                    "midi": 60,
                    "time": 142.61554800000067,
                    "velocity": 0.31496062992125984,
                    "duration": 0.14493450000000507
                },
                {
                    "name": "G4",
                    "midi": 67,
                    "time": 142.76048250000068,
                    "velocity": 0.28346456692913385,
                    "duration": 0.14493450000000507
                },
                {
                    "name": "C4",
                    "midi": 60,
                    "time": 142.90541700000068,
                    "velocity": 0.28346456692913385,
                    "duration": 0.14493450000000507
                },
                {
                    "name": "D#4",
                    "midi": 63,
                    "time": 142.90541700000068,
                    "velocity": 0.28346456692913385,
                    "duration": 0.14493450000000507
                },
                {
                    "name": "G4",
                    "midi": 67,
                    "time": 143.0503515000007,
                    "velocity": 0.28346456692913385,
                    "duration": 0.14493450000000507
                },
                {
                    "name": "B3",
                    "midi": 59,
                    "time": 143.1952860000007,
                    "velocity": 0.3228346456692913,
                    "duration": 0.14493450000000507
                },
                {
                    "name": "D4",
                    "midi": 62,
                    "time": 143.1952860000007,
                    "velocity": 0.3228346456692913,
                    "duration": 0.14493450000000507
                },
                {
                    "name": "G4",
                    "midi": 67,
                    "time": 143.3402205000007,
                    "velocity": 0.28346456692913385,
                    "duration": 0.14493450000000507
                },
                {
                    "name": "C4",
                    "midi": 60,
                    "time": 143.4851550000007,
                    "velocity": 0.28346456692913385,
                    "duration": 0.14493450000000507
                },
                {
                    "name": "G#3",
                    "midi": 56,
                    "time": 143.4851550000007,
                    "velocity": 0.28346456692913385,
                    "duration": 0.14493450000000507
                },
                {
                    "name": "G4",
                    "midi": 67,
                    "time": 143.6300895000007,
                    "velocity": 0.28346456692913385,
                    "duration": 0.14493450000000507
                },
                {
                    "name": "G3",
                    "midi": 55,
                    "time": 143.7750240000007,
                    "velocity": 0.31496062992125984,
                    "duration": 0.14493450000000507
                },
                {
                    "name": "B3",
                    "midi": 59,
                    "time": 143.91995850000072,
                    "velocity": 0.2283464566929134,
                    "duration": 0.14493450000000507
                },
                {
                    "name": "D4",
                    "midi": 62,
                    "time": 144.06489300000072,
                    "velocity": 0.2204724409448819,
                    "duration": 0.14493450000000507
                },
                {
                    "name": "G4",
                    "midi": 67,
                    "time": 144.20982750000073,
                    "velocity": 0.2204724409448819,
                    "duration": 0.14493450000000507
                },
                {
                    "name": "G3",
                    "midi": 55,
                    "time": 144.35476200000073,
                    "velocity": 0.31496062992125984,
                    "duration": 0.14493450000000507
                },
                {
                    "name": "B3",
                    "midi": 59,
                    "time": 144.49969650000074,
                    "velocity": 0.2440944881889764,
                    "duration": 0.14493450000000507
                },
                {
                    "name": "D4",
                    "midi": 62,
                    "time": 144.64463100000074,
                    "velocity": 0.2440944881889764,
                    "duration": 0.14493450000000507
                },
                {
                    "name": "G4",
                    "midi": 67,
                    "time": 144.78956550000075,
                    "velocity": 0.2440944881889764,
                    "duration": 0.14493450000000507
                },
                {
                    "name": "F3",
                    "midi": 53,
                    "time": 144.93450000000075,
                    "velocity": 0.31496062992125984,
                    "duration": 0.14493450000000507
                },
                {
                    "name": "G#3",
                    "midi": 56,
                    "time": 145.07943450000076,
                    "velocity": 0.28346456692913385,
                    "duration": 0.14493450000000507
                },
                {
                    "name": "B3",
                    "midi": 59,
                    "time": 145.22436900000076,
                    "velocity": 0.29133858267716534,
                    "duration": 0.14493450000000507
                },
                {
                    "name": "D4",
                    "midi": 62,
                    "time": 145.36930350000077,
                    "velocity": 0.29133858267716534,
                    "duration": 0.14493450000000507
                },
                {
                    "name": "F3",
                    "midi": 53,
                    "time": 145.51423800000077,
                    "velocity": 0.31496062992125984,
                    "duration": 0.14493450000000507
                },
                {
                    "name": "G#3",
                    "midi": 56,
                    "time": 145.65917250000078,
                    "velocity": 0.28346456692913385,
                    "duration": 0.14493450000000507
                },
                {
                    "name": "B3",
                    "midi": 59,
                    "time": 145.80410700000078,
                    "velocity": 0.28346456692913385,
                    "duration": 0.14493450000000507
                },
                {
                    "name": "D4",
                    "midi": 62,
                    "time": 145.9490415000008,
                    "velocity": 0.28346456692913385,
                    "duration": 0.14493450000000507
                },
                {
                    "name": "D#3",
                    "midi": 51,
                    "time": 146.0939760000008,
                    "velocity": 0.31496062992125984,
                    "duration": 0.14493450000000507
                },
                {
                    "name": "G3",
                    "midi": 55,
                    "time": 146.2389105000008,
                    "velocity": 0.2677165354330709,
                    "duration": 0.14493450000000507
                },
                {
                    "name": "C4",
                    "midi": 60,
                    "time": 146.3838450000008,
                    "velocity": 0.2677165354330709,
                    "duration": 0.14493450000000507
                },
                {
                    "name": "D#4",
                    "midi": 63,
                    "time": 146.5287795000008,
                    "velocity": 0.25984251968503935,
                    "duration": 0.14493450000000507
                },
                {
                    "name": "G#3",
                    "midi": 56,
                    "time": 146.6737140000008,
                    "velocity": 0.3228346456692913,
                    "duration": 0.14493450000000507
                },
                {
                    "name": "C4",
                    "midi": 60,
                    "time": 146.81864850000082,
                    "velocity": 0.2755905511811024,
                    "duration": 0.14493450000000507
                },
                {
                    "name": "D#4",
                    "midi": 63,
                    "time": 146.96358300000082,
                    "velocity": 0.2755905511811024,
                    "duration": 0.14493450000000507
                },
                {
                    "name": "F#4",
                    "midi": 66,
                    "time": 147.10851750000083,
                    "velocity": 0.2755905511811024,
                    "duration": 0.14493450000000507
                },
                {
                    "name": "G3",
                    "midi": 55,
                    "time": 147.25345200000083,
                    "velocity": 0.31496062992125984,
                    "duration": 0.14493450000000507
                },
                {
                    "name": "C4",
                    "midi": 60,
                    "time": 147.39838650000084,
                    "velocity": 0.31496062992125984,
                    "duration": 0.14493450000000507
                },
                {
                    "name": "D#4",
                    "midi": 63,
                    "time": 147.54332100000084,
                    "velocity": 0.2755905511811024,
                    "duration": 0.14493450000000507
                },
                {
                    "name": "G4",
                    "midi": 67,
                    "time": 147.68825550000085,
                    "velocity": 0.2755905511811024,
                    "duration": 0.14493450000000507
                },
                {
                    "name": "G3",
                    "midi": 55,
                    "time": 147.83319000000085,
                    "velocity": 0.31496062992125984,
                    "duration": 0.14493450000000507
                },
                {
                    "name": "B3",
                    "midi": 59,
                    "time": 147.97812450000086,
                    "velocity": 0.28346456692913385,
                    "duration": 0.14493450000000507
                },
                {
                    "name": "D4",
                    "midi": 62,
                    "time": 148.12305900000086,
                    "velocity": 0.28346456692913385,
                    "duration": 0.14493450000000507
                },
                {
                    "name": "G4",
                    "midi": 67,
                    "time": 148.26799350000087,
                    "velocity": 0.28346456692913385,
                    "duration": 0.14493450000000507
                },
                {
                    "name": "C2",
                    "midi": 36,
                    "time": 148.55786250000088,
                    "velocity": 0.2992125984251969,
                    "duration": 0.14493450000000507
                },
                {
                    "name": "D#2",
                    "midi": 39,
                    "time": 148.70279700000088,
                    "velocity": 0.33070866141732286,
                    "duration": 0.14493450000000507
                },
                {
                    "name": "G2",
                    "midi": 43,
                    "time": 148.8477315000009,
                    "velocity": 0.3543307086614173,
                    "duration": 0.14493450000000507
                },
                {
                    "name": "C3",
                    "midi": 48,
                    "time": 148.9926660000009,
                    "velocity": 0.3543307086614173,
                    "duration": 0.14493450000000507
                },
                {
                    "name": "D#3",
                    "midi": 51,
                    "time": 149.1376005000009,
                    "velocity": 0.3543307086614173,
                    "duration": 0.14493450000000507
                },
                {
                    "name": "F3",
                    "midi": 53,
                    "time": 149.2825350000009,
                    "velocity": 0.3937007874015748,
                    "duration": 0.14493450000000507
                },
                {
                    "name": "G3",
                    "midi": 55,
                    "time": 149.4274695000009,
                    "velocity": 0.4094488188976378,
                    "duration": 0.14493450000000507
                },
                {
                    "name": "G#3",
                    "midi": 56,
                    "time": 149.57240400000092,
                    "velocity": 0.4251968503937008,
                    "duration": 0.5797379999999919
                },
                {
                    "name": "D3",
                    "midi": 50,
                    "time": 150.1521420000009,
                    "velocity": 0.4015748031496063,
                    "duration": 0.28986900000001015
                },
                {
                    "name": "D#3",
                    "midi": 51,
                    "time": 150.44201100000092,
                    "velocity": 0.3937007874015748,
                    "duration": 0.14493450000000507
                },
                {
                    "name": "F3",
                    "midi": 53,
                    "time": 150.58694550000092,
                    "velocity": 0.4094488188976378,
                    "duration": 0.14493450000000507
                },
                {
                    "name": "G3",
                    "midi": 55,
                    "time": 150.73188000000093,
                    "velocity": 0.4251968503937008,
                    "duration": 0.5797379999999919
                },
                {
                    "name": "C3",
                    "midi": 48,
                    "time": 151.31161800000092,
                    "velocity": 0.4015748031496063,
                    "duration": 0.28986900000001015
                },
                {
                    "name": "A#3",
                    "midi": 58,
                    "time": 151.60148700000093,
                    "velocity": 0.3937007874015748,
                    "duration": 0.14493450000000507
                },
                {
                    "name": "C4",
                    "midi": 60,
                    "time": 151.74642150000093,
                    "velocity": 0.4094488188976378,
                    "duration": 0.14493450000000507
                },
                {
                    "name": "C#4",
                    "midi": 61,
                    "time": 151.89135600000094,
                    "velocity": 0.4251968503937008,
                    "duration": 0.5797379999999919
                },
                {
                    "name": "G3",
                    "midi": 55,
                    "time": 152.47109400000093,
                    "velocity": 0.4015748031496063,
                    "duration": 0.28986900000001015
                },
                {
                    "name": "G#3",
                    "midi": 56,
                    "time": 152.76096300000094,
                    "velocity": 0.3937007874015748,
                    "duration": 0.14493450000000507
                },
                {
                    "name": "A#3",
                    "midi": 58,
                    "time": 152.90589750000095,
                    "velocity": 0.4094488188976378,
                    "duration": 0.14493450000000507
                },
                {
                    "name": "C4",
                    "midi": 60,
                    "time": 153.05083200000095,
                    "velocity": 0.4251968503937008,
                    "duration": 0.5797379999999919
                },
                {
                    "name": "F3",
                    "midi": 53,
                    "time": 153.63057000000094,
                    "velocity": 0.4015748031496063,
                    "duration": 0.28986900000001015
                },
                {
                    "name": "C4",
                    "midi": 60,
                    "time": 154.21030800000096,
                    "velocity": 0.4251968503937008,
                    "duration": 0.28986900000001015
                },
                {
                    "name": "G#3",
                    "midi": 56,
                    "time": 154.21030800000096,
                    "velocity": 0.4251968503937008,
                    "duration": 0.5797380000000203
                },
                {
                    "name": "F4",
                    "midi": 65,
                    "time": 154.50017700000097,
                    "velocity": 0.4251968503937008,
                    "duration": 0.28986900000001015
                },
                {
                    "name": "C4",
                    "midi": 60,
                    "time": 154.79004600000098,
                    "velocity": 0.4251968503937008,
                    "duration": 0.28986900000001015
                },
                {
                    "name": "G#3",
                    "midi": 56,
                    "time": 154.79004600000098,
                    "velocity": 0.4251968503937008,
                    "duration": 0.5797380000000203
                },
                {
                    "name": "F#4",
                    "midi": 66,
                    "time": 155.079915000001,
                    "velocity": 0.4251968503937008,
                    "duration": 0.28986900000001015
                },
                {
                    "name": "G3",
                    "midi": 55,
                    "time": 155.369784000001,
                    "velocity": 0.36220472440944884,
                    "duration": 0.28986900000001015
                },
                {
                    "name": "G4",
                    "midi": 67,
                    "time": 155.65965300000101,
                    "velocity": 0.2440944881889764,
                    "duration": 0.28986900000001015
                },
                {
                    "name": "F4",
                    "midi": 65,
                    "time": 155.94952200000102,
                    "velocity": 0.33070866141732286,
                    "duration": 0.28986900000001015
                },
                {
                    "name": "G4",
                    "midi": 67,
                    "time": 156.23939100000104,
                    "velocity": 0.23622047244094488,
                    "duration": 0.28986900000001015
                },
                {
                    "name": "E4",
                    "midi": 64,
                    "time": 156.52926000000105,
                    "velocity": 0.33070866141732286,
                    "duration": 0.28986900000001015
                },
                {
                    "name": "G4",
                    "midi": 67,
                    "time": 156.81912900000106,
                    "velocity": 0.25984251968503935,
                    "duration": 0.28986900000001015
                },
                {
                    "name": "B3",
                    "midi": 59,
                    "time": 157.10899800000107,
                    "velocity": 0.3228346456692913,
                    "duration": 0.28986900000001015
                },
                {
                    "name": "G4",
                    "midi": 67,
                    "time": 157.39886700000108,
                    "velocity": 0.25984251968503935,
                    "duration": 0.28986900000001015
                },
                {
                    "name": "C4",
                    "midi": 60,
                    "time": 157.6887360000011,
                    "velocity": 0.31496062992125984,
                    "duration": 0.28986900000001015
                },
                {
                    "name": "G4",
                    "midi": 67,
                    "time": 157.9786050000011,
                    "velocity": 0.2755905511811024,
                    "duration": 0.28986900000001015
                },
                {
                    "name": "D5",
                    "midi": 74,
                    "time": 158.2684740000011,
                    "velocity": 0.31496062992125984,
                    "duration": 0.5797380000000203
                },
                {
                    "name": "F4",
                    "midi": 65,
                    "time": 158.2684740000011,
                    "velocity": 0.31496062992125984,
                    "duration": 0.28986900000001015
                },
                {
                    "name": "G4",
                    "midi": 67,
                    "time": 158.55834300000112,
                    "velocity": 0.28346456692913385,
                    "duration": 0.28986900000001015
                },
                {
                    "name": "C5",
                    "midi": 72,
                    "time": 158.84821200000113,
                    "velocity": 0.31496062992125984,
                    "duration": 0.5797380000000203
                },
                {
                    "name": "E4",
                    "midi": 64,
                    "time": 158.84821200000113,
                    "velocity": 0.31496062992125984,
                    "duration": 0.28986900000001015
                },
                {
                    "name": "G4",
                    "midi": 67,
                    "time": 159.13808100000114,
                    "velocity": 0.28346456692913385,
                    "duration": 0.28986900000001015
                },
                {
                    "name": "B3",
                    "midi": 59,
                    "time": 159.42795000000115,
                    "velocity": 0.31496062992125984,
                    "duration": 0.28986900000001015
                },
                {
                    "name": "G4",
                    "midi": 67,
                    "time": 159.71781900000116,
                    "velocity": 0.2677165354330709,
                    "duration": 0.28986900000001015
                },
                {
                    "name": "C4",
                    "midi": 60,
                    "time": 160.00768800000117,
                    "velocity": 0.3228346456692913,
                    "duration": 0.28986900000001015
                },
                {
                    "name": "G4",
                    "midi": 67,
                    "time": 160.29755700000118,
                    "velocity": 0.2677165354330709,
                    "duration": 0.28986900000001015
                },
                {
                    "name": "F4",
                    "midi": 65,
                    "time": 160.5874260000012,
                    "velocity": 0.31496062992125984,
                    "duration": 0.28986900000001015
                },
                {
                    "name": "G4",
                    "midi": 67,
                    "time": 160.8772950000012,
                    "velocity": 0.2677165354330709,
                    "duration": 0.28986900000001015
                },
                {
                    "name": "E4",
                    "midi": 64,
                    "time": 161.1671640000012,
                    "velocity": 0.33070866141732286,
                    "duration": 0.28986900000001015
                },
                {
                    "name": "G4",
                    "midi": 67,
                    "time": 161.45703300000122,
                    "velocity": 0.25984251968503935,
                    "duration": 0.28986900000001015
                },
                {
                    "name": "B3",
                    "midi": 59,
                    "time": 161.74690200000123,
                    "velocity": 0.3228346456692913,
                    "duration": 0.28986900000001015
                },
                {
                    "name": "G4",
                    "midi": 67,
                    "time": 162.03677100000124,
                    "velocity": 0.25984251968503935,
                    "duration": 0.28986900000001015
                },
                {
                    "name": "C4",
                    "midi": 60,
                    "time": 162.32664000000125,
                    "velocity": 0.31496062992125984,
                    "duration": 0.28986900000001015
                },
                {
                    "name": "G4",
                    "midi": 67,
                    "time": 162.61650900000126,
                    "velocity": 0.2755905511811024,
                    "duration": 0.28986900000001015
                },
                {
                    "name": "E4",
                    "midi": 64,
                    "time": 162.90637800000127,
                    "velocity": 0.31496062992125984,
                    "duration": 0.5797380000000203
                },
                {
                    "name": "C5",
                    "midi": 72,
                    "time": 162.90637800000127,
                    "velocity": 0.31496062992125984,
                    "duration": 0.28986900000001015
                },
                {
                    "name": "G4",
                    "midi": 67,
                    "time": 163.19624700000128,
                    "velocity": 0.28346456692913385,
                    "duration": 0.28986900000001015
                },
                {
                    "name": "F4",
                    "midi": 65,
                    "time": 163.4861160000013,
                    "velocity": 0.2992125984251969,
                    "duration": 0.5736990624999976
                },
                {
                    "name": "C5",
                    "midi": 72,
                    "time": 163.4861160000013,
                    "velocity": 0.33070866141732286,
                    "duration": 0.28986900000001015
                },
                {
                    "name": "A4",
                    "midi": 69,
                    "time": 163.7759850000013,
                    "velocity": 0.2992125984251969,
                    "duration": 0.2898689999999817
                },
                {
                    "name": "F4",
                    "midi": 65,
                    "time": 164.06585400000128,
                    "velocity": 0.29133858267716534,
                    "duration": 0.5797380000000203
                },
                {
                    "name": "C#5",
                    "midi": 73,
                    "time": 164.06585400000128,
                    "velocity": 0.3464566929133858,
                    "duration": 0.28986900000001015
                },
                {
                    "name": "A4",
                    "midi": 69,
                    "time": 164.3557230000013,
                    "velocity": 0.2992125984251969,
                    "duration": 0.28986900000001015
                },
                {
                    "name": "F4",
                    "midi": 65,
                    "time": 164.6455920000013,
                    "velocity": 0.36220472440944884,
                    "duration": 0.28986900000001015
                },
                {
                    "name": "D5",
                    "midi": 74,
                    "time": 164.6455920000013,
                    "velocity": 0.36220472440944884,
                    "duration": 0.28986900000001015
                },
                {
                    "name": "A4",
                    "midi": 69,
                    "time": 164.9354610000013,
                    "velocity": 0.33070866141732286,
                    "duration": 0.28986900000001015
                },
                {
                    "name": "F4",
                    "midi": 65,
                    "time": 165.22533000000132,
                    "velocity": 0.3779527559055118,
                    "duration": 0.28986900000001015
                },
                {
                    "name": "F#4",
                    "midi": 66,
                    "time": 165.51519900000133,
                    "velocity": 0.3228346456692913,
                    "duration": 0.28986900000001015
                },
                {
                    "name": "G4",
                    "midi": 67,
                    "time": 165.80506800000134,
                    "velocity": 0.4330708661417323,
                    "duration": 0.09058406249999962
                },
                {
                    "name": "D4",
                    "midi": 62,
                    "time": 166.48142900000133,
                    "velocity": 0.3543307086614173,
                    "duration": 0.1026619374999882
                },
                {
                    "name": "E4",
                    "midi": 64,
                    "time": 166.57805200000132,
                    "velocity": 0.3779527559055118,
                    "duration": 0.1026619374999882
                },
                {
                    "name": "F#4",
                    "midi": 66,
                    "time": 166.67467500000132,
                    "velocity": 0.3937007874015748,
                    "duration": 0.1026619374999882
                },
                {
                    "name": "E4",
                    "midi": 64,
                    "time": 166.7712980000013,
                    "velocity": 0.3779527559055118,
                    "duration": 0.1026619374999882
                },
                {
                    "name": "D4",
                    "midi": 62,
                    "time": 166.8679210000013,
                    "velocity": 0.3543307086614173,
                    "duration": 0.1026619374999882
                },
                {
                    "name": "G4",
                    "midi": 67,
                    "time": 166.9645440000013,
                    "velocity": 0.4330708661417323,
                    "duration": 0.09058406249999962
                },
                {
                    "name": "D4",
                    "midi": 62,
                    "time": 167.64090500000128,
                    "velocity": 0.33858267716535434,
                    "duration": 0.1026619374999882
                },
                {
                    "name": "E4",
                    "midi": 64,
                    "time": 167.73752800000128,
                    "velocity": 0.3700787401574803,
                    "duration": 0.1026619374999882
                },
                {
                    "name": "F#4",
                    "midi": 66,
                    "time": 167.83415100000127,
                    "velocity": 0.3937007874015748,
                    "duration": 0.1026619374999882
                },
                {
                    "name": "E4",
                    "midi": 64,
                    "time": 167.93077400000126,
                    "velocity": 0.3779527559055118,
                    "duration": 0.1026619374999882
                },
                {
                    "name": "D4",
                    "midi": 62,
                    "time": 168.02739700000126,
                    "velocity": 0.3543307086614173,
                    "duration": 0.1026619374999882
                },
                {
                    "name": "G4",
                    "midi": 67,
                    "time": 168.12402000000125,
                    "velocity": 0.4330708661417323,
                    "duration": 0.09058406249999962
                },
                {
                    "name": "G4",
                    "midi": 67,
                    "time": 168.70375800000124,
                    "velocity": 0.4330708661417323,
                    "duration": 0.28986900000001015
                },
                {
                    "name": "D4",
                    "midi": 62,
                    "time": 169.28349600000126,
                    "velocity": 0.36220472440944884,
                    "duration": 0.28986900000001015
                },
                {
                    "name": "G3",
                    "midi": 55,
                    "time": 169.28349600000126,
                    "velocity": 0.36220472440944884,
                    "duration": 0.28986900000001015
                },
                {
                    "name": "B3",
                    "midi": 59,
                    "time": 169.28349600000126,
                    "velocity": 0.36220472440944884,
                    "duration": 0.28986900000001015
                },
                {
                    "name": "F4",
                    "midi": 65,
                    "time": 169.28349600000126,
                    "velocity": 0.4330708661417323,
                    "duration": 0.28986900000001015
                },
                {
                    "name": "C3",
                    "midi": 48,
                    "time": 170.44297200000128,
                    "velocity": 0.4330708661417323,
                    "duration": 0.28986900000001015
                },
                {
                    "name": "G3",
                    "midi": 55,
                    "time": 171.1193330000013,
                    "velocity": 0.3543307086614173,
                    "duration": 0.1026619374999882
                },
                {
                    "name": "A3",
                    "midi": 57,
                    "time": 171.21595600000128,
                    "velocity": 0.3779527559055118,
                    "duration": 0.1026619374999882
                },
                {
                    "name": "B3",
                    "midi": 59,
                    "time": 171.31257900000128,
                    "velocity": 0.3937007874015748,
                    "duration": 0.1026619374999882
                },
                {
                    "name": "A3",
                    "midi": 57,
                    "time": 171.40920200000127,
                    "velocity": 0.3779527559055118,
                    "duration": 0.1026619374999882
                },
                {
                    "name": "G3",
                    "midi": 55,
                    "time": 171.50582500000127,
                    "velocity": 0.3543307086614173,
                    "duration": 0.1026619374999882
                },
                {
                    "name": "C4",
                    "midi": 60,
                    "time": 171.60244800000126,
                    "velocity": 0.4330708661417323,
                    "duration": 0.2898689999999817
                },
                {
                    "name": "G3",
                    "midi": 55,
                    "time": 172.27880900000125,
                    "velocity": 0.33858267716535434,
                    "duration": 0.1026619374999882
                },
                {
                    "name": "A3",
                    "midi": 57,
                    "time": 172.37543200000124,
                    "velocity": 0.3700787401574803,
                    "duration": 0.1026619374999882
                },
                {
                    "name": "B3",
                    "midi": 59,
                    "time": 172.47205500000123,
                    "velocity": 0.3937007874015748,
                    "duration": 0.1026619374999882
                },
                {
                    "name": "A3",
                    "midi": 57,
                    "time": 172.56867800000123,
                    "velocity": 0.3779527559055118,
                    "duration": 0.1026619374999882
                },
                {
                    "name": "G3",
                    "midi": 55,
                    "time": 172.66530100000122,
                    "velocity": 0.3543307086614173,
                    "duration": 0.1026619374999882
                },
                {
                    "name": "C4",
                    "midi": 60,
                    "time": 172.76192400000122,
                    "velocity": 0.4330708661417323,
                    "duration": 0.2898689999999817
                },
                {
                    "name": "C4",
                    "midi": 60,
                    "time": 173.3416620000012,
                    "velocity": 0.4330708661417323,
                    "duration": 0.28986900000001015
                },
                {
                    "name": "A#3",
                    "midi": 58,
                    "time": 173.92140000000123,
                    "velocity": 0.36220472440944884,
                    "duration": 0.28986900000001015
                },
                {
                    "name": "E3",
                    "midi": 52,
                    "time": 173.92140000000123,
                    "velocity": 0.36220472440944884,
                    "duration": 0.28986900000001015
                },
                {
                    "name": "G3",
                    "midi": 55,
                    "time": 173.92140000000123,
                    "velocity": 0.36220472440944884,
                    "duration": 0.28986900000001015
                },
                {
                    "name": "C4",
                    "midi": 60,
                    "time": 173.92140000000123,
                    "velocity": 0.4330708661417323,
                    "duration": 0.28986900000001015
                },
                {
                    "name": "F2",
                    "midi": 41,
                    "time": 175.08087600000124,
                    "velocity": 0.4094488188976378,
                    "duration": 0.09662299999999391
                },
                {
                    "name": "A2",
                    "midi": 45,
                    "time": 175.17749900000123,
                    "velocity": 0.4251968503937008,
                    "duration": 0.09662299999999391
                },
                {
                    "name": "C3",
                    "midi": 48,
                    "time": 175.27412200000123,
                    "velocity": 0.4409448818897638,
                    "duration": 0.09662299999999391
                },
                {
                    "name": "F3",
                    "midi": 53,
                    "time": 175.37074500000122,
                    "velocity": 0.4645669291338583,
                    "duration": 0.28986900000001015
                },
                {
                    "name": "G3",
                    "midi": 55,
                    "time": 176.24035200000122,
                    "velocity": 0.3779527559055118,
                    "duration": 0.28986900000001015
                },
                {
                    "name": "C4",
                    "midi": 60,
                    "time": 176.24035200000122,
                    "velocity": 0.3779527559055118,
                    "duration": 0.28986900000001015
                },
                {
                    "name": "E4",
                    "midi": 64,
                    "time": 176.24035200000122,
                    "velocity": 0.44881889763779526,
                    "duration": 0.28986900000001015
                },
                {
                    "name": "G3",
                    "midi": 55,
                    "time": 176.82009000000124,
                    "velocity": 0.3858267716535433,
                    "duration": 0.28986900000001015
                },
                {
                    "name": "D4",
                    "midi": 62,
                    "time": 176.82009000000124,
                    "velocity": 0.3858267716535433,
                    "duration": 0.28986900000001015
                },
                {
                    "name": "F4",
                    "midi": 65,
                    "time": 176.82009000000124,
                    "velocity": 0.4566929133858268,
                    "duration": 0.28986900000001015
                },
                {
                    "name": "C4",
                    "midi": 60,
                    "time": 177.39982800000126,
                    "velocity": 0.3858267716535433,
                    "duration": 0.28986900000001015
                },
                {
                    "name": "E4",
                    "midi": 64,
                    "time": 177.39982800000126,
                    "velocity": 0.4566929133858268,
                    "duration": 0.28986900000001015
                },
                {
                    "name": "G4",
                    "midi": 67,
                    "time": 178.55930400000128,
                    "velocity": 0.30708661417322836,
                    "duration": 0.14493450000000507
                },
                {
                    "name": "F4",
                    "midi": 65,
                    "time": 178.55930400000128,
                    "velocity": 0.25984251968503935,
                    "duration": 0.14493450000000507
                },
                {
                    "name": "F4",
                    "midi": 65,
                    "time": 178.8491730000013,
                    "velocity": 0.2677165354330709,
                    "duration": 0.14493450000000507
                },
                {
                    "name": "G4",
                    "midi": 67,
                    "time": 178.8491730000013,
                    "velocity": 0.31496062992125984,
                    "duration": 0.14493450000000507
                },
                {
                    "name": "G4",
                    "midi": 67,
                    "time": 179.1390420000013,
                    "velocity": 0.33070866141732286,
                    "duration": 0.14493450000000507
                },
                {
                    "name": "F4",
                    "midi": 65,
                    "time": 179.1390420000013,
                    "velocity": 0.2755905511811024,
                    "duration": 0.14493450000000507
                },
                {
                    "name": "F4",
                    "midi": 65,
                    "time": 179.4289110000013,
                    "velocity": 0.28346456692913385,
                    "duration": 0.14493450000000507
                },
                {
                    "name": "G4",
                    "midi": 67,
                    "time": 179.4289110000013,
                    "velocity": 0.33858267716535434,
                    "duration": 0.14493450000000507
                },
                {
                    "name": "E4",
                    "midi": 64,
                    "time": 179.71878000000132,
                    "velocity": 0.29133858267716534,
                    "duration": 0.8635680625000077
                },
                {
                    "name": "G4",
                    "midi": 67,
                    "time": 179.71878000000132,
                    "velocity": 0.3543307086614173,
                    "duration": 0.8635680625000077
                },
                {
                    "name": "E4",
                    "midi": 64,
                    "time": 180.58838700000132,
                    "velocity": 0.33070866141732286,
                    "duration": 0.28986900000001015
                },
                {
                    "name": "A4",
                    "midi": 69,
                    "time": 180.87825600000133,
                    "velocity": 0.3543307086614173,
                    "duration": 0.5682640187499999
                },
                {
                    "name": "A4",
                    "midi": 69,
                    "time": 181.45799400000132,
                    "velocity": 0.33858267716535434,
                    "duration": 0.5682640187499999
                },
                {
                    "name": "G4",
                    "midi": 67,
                    "time": 182.0377320000013,
                    "velocity": 0.33858267716535434,
                    "duration": 0.28986900000001015
                },
                {
                    "name": "G3",
                    "midi": 55,
                    "time": 183.19720800000132,
                    "velocity": 0.30708661417322836,
                    "duration": 0.14493450000000507
                },
                {
                    "name": "F3",
                    "midi": 53,
                    "time": 183.19720800000132,
                    "velocity": 0.25984251968503935,
                    "duration": 0.14493450000000507
                },
                {
                    "name": "F3",
                    "midi": 53,
                    "time": 183.48707700000134,
                    "velocity": 0.2677165354330709,
                    "duration": 0.14493450000000507
                },
                {
                    "name": "G3",
                    "midi": 55,
                    "time": 183.48707700000134,
                    "velocity": 0.31496062992125984,
                    "duration": 0.14493450000000507
                },
                {
                    "name": "G3",
                    "midi": 55,
                    "time": 183.77694600000135,
                    "velocity": 0.33070866141732286,
                    "duration": 0.14493450000000507
                },
                {
                    "name": "F3",
                    "midi": 53,
                    "time": 183.77694600000135,
                    "velocity": 0.2755905511811024,
                    "duration": 0.14493450000000507
                },
                {
                    "name": "F3",
                    "midi": 53,
                    "time": 184.06681500000136,
                    "velocity": 0.28346456692913385,
                    "duration": 0.14493450000000507
                },
                {
                    "name": "G3",
                    "midi": 55,
                    "time": 184.06681500000136,
                    "velocity": 0.33858267716535434,
                    "duration": 0.14493450000000507
                },
                {
                    "name": "D#3",
                    "midi": 51,
                    "time": 184.35668400000137,
                    "velocity": 0.29133858267716534,
                    "duration": 0.869607000000002
                },
                {
                    "name": "G3",
                    "midi": 55,
                    "time": 184.35668400000137,
                    "velocity": 0.3543307086614173,
                    "duration": 0.869607000000002
                },
                {
                    "name": "D#3",
                    "midi": 51,
                    "time": 185.22629100000137,
                    "velocity": 0.3228346456692913,
                    "duration": 0.28986900000001015
                },
                {
                    "name": "G#3",
                    "midi": 56,
                    "time": 185.51616000000138,
                    "velocity": 0.30708661417322836,
                    "duration": 0.14493450000000507
                },
                {
                    "name": "G#3",
                    "midi": 56,
                    "time": 185.8060290000014,
                    "velocity": 0.3464566929133858,
                    "duration": 0.14493450000000507
                },
                {
                    "name": "A#3",
                    "midi": 58,
                    "time": 186.0958980000014,
                    "velocity": 0.3464566929133858,
                    "duration": 0.14493450000000507
                },
                {
                    "name": "G#3",
                    "midi": 56,
                    "time": 186.0958980000014,
                    "velocity": 0.3464566929133858,
                    "duration": 0.14493450000000507
                },
                {
                    "name": "G#3",
                    "midi": 56,
                    "time": 186.3857670000014,
                    "velocity": 0.36220472440944884,
                    "duration": 0.14493450000000507
                },
                {
                    "name": "A#3",
                    "midi": 58,
                    "time": 186.3857670000014,
                    "velocity": 0.36220472440944884,
                    "duration": 0.14493450000000507
                },
                {
                    "name": "G3",
                    "midi": 55,
                    "time": 186.67563600000142,
                    "velocity": 0.3937007874015748,
                    "duration": 0.869607000000002
                },
                {
                    "name": "A#3",
                    "midi": 58,
                    "time": 186.67563600000142,
                    "velocity": 0.3937007874015748,
                    "duration": 0.869607000000002
                },
                {
                    "name": "G3",
                    "midi": 55,
                    "time": 187.54524300000142,
                    "velocity": 0.4015748031496063,
                    "duration": 0.28986900000001015
                },
                {
                    "name": "C4",
                    "midi": 60,
                    "time": 187.83511200000143,
                    "velocity": 0.3700787401574803,
                    "duration": 0.14493450000000507
                },
                {
                    "name": "C4",
                    "midi": 60,
                    "time": 188.12498100000144,
                    "velocity": 0.3779527559055118,
                    "duration": 0.14493450000000507
                },
                {
                    "name": "D#4",
                    "midi": 63,
                    "time": 188.12498100000144,
                    "velocity": 0.3779527559055118,
                    "duration": 0.14493450000000507
                },
                {
                    "name": "D#4",
                    "midi": 63,
                    "time": 188.41485000000145,
                    "velocity": 0.3937007874015748,
                    "duration": 0.14493450000000507
                },
                {
                    "name": "C4",
                    "midi": 60,
                    "time": 188.41485000000145,
                    "velocity": 0.3937007874015748,
                    "duration": 0.14493450000000507
                },
                {
                    "name": "C4",
                    "midi": 60,
                    "time": 188.70471900000146,
                    "velocity": 0.4015748031496063,
                    "duration": 0.14493450000000507
                },
                {
                    "name": "D#4",
                    "midi": 63,
                    "time": 188.70471900000146,
                    "velocity": 0.4015748031496063,
                    "duration": 0.14493450000000507
                },
                {
                    "name": "B3",
                    "midi": 59,
                    "time": 188.99458800000147,
                    "velocity": 0.4251968503937008,
                    "duration": 0.869607000000002
                },
                {
                    "name": "D4",
                    "midi": 62,
                    "time": 188.99458800000147,
                    "velocity": 0.4251968503937008,
                    "duration": 0.869607000000002
                },
                {
                    "name": "C4",
                    "midi": 60,
                    "time": 189.86419500000147,
                    "velocity": 0.41732283464566927,
                    "duration": 0.28986900000001015
                },
                {
                    "name": "D#4",
                    "midi": 63,
                    "time": 189.86419500000147,
                    "velocity": 0.41732283464566927,
                    "duration": 0.28986900000001015
                },
                {
                    "name": "B3",
                    "midi": 59,
                    "time": 190.15406400000148,
                    "velocity": 0.4330708661417323,
                    "duration": 0.869607000000002
                },
                {
                    "name": "D4",
                    "midi": 62,
                    "time": 190.15406400000148,
                    "velocity": 0.4330708661417323,
                    "duration": 0.869607000000002
                },
                {
                    "name": "F4",
                    "midi": 65,
                    "time": 191.02367100000149,
                    "velocity": 0.4251968503937008,
                    "duration": 0.28986900000001015
                },
                {
                    "name": "G#4",
                    "midi": 68,
                    "time": 191.02367100000149,
                    "velocity": 0.4251968503937008,
                    "duration": 0.28986900000001015
                },
                {
                    "name": "D#4",
                    "midi": 63,
                    "time": 191.3135400000015,
                    "velocity": 0.4409448818897638,
                    "duration": 0.869607000000002
                },
                {
                    "name": "G4",
                    "midi": 67,
                    "time": 191.3135400000015,
                    "velocity": 0.4409448818897638,
                    "duration": 0.869607000000002
                },
                {
                    "name": "F4",
                    "midi": 65,
                    "time": 192.1831470000015,
                    "velocity": 0.3858267716535433,
                    "duration": 0.28986900000001015
                },
                {
                    "name": "G#4",
                    "midi": 68,
                    "time": 192.1831470000015,
                    "velocity": 0.3858267716535433,
                    "duration": 0.28986900000001015
                },
                {
                    "name": "D#4",
                    "midi": 63,
                    "time": 192.4730160000015,
                    "velocity": 0.4094488188976378,
                    "duration": 0.869607000000002
                },
                {
                    "name": "G4",
                    "midi": 67,
                    "time": 192.4730160000015,
                    "velocity": 0.4094488188976378,
                    "duration": 0.869607000000002
                },
                {
                    "name": "F4",
                    "midi": 65,
                    "time": 193.3426230000015,
                    "velocity": 0.28346456692913385,
                    "duration": 0.28986900000001015
                },
                {
                    "name": "G#4",
                    "midi": 68,
                    "time": 193.3426230000015,
                    "velocity": 0.33858267716535434,
                    "duration": 0.28986900000001015
                },
                {
                    "name": "G2",
                    "midi": 43,
                    "time": 197.98052700000153,
                    "velocity": 0.33070866141732286,
                    "duration": 0.28986900000001015
                },
                {
                    "name": "C3",
                    "midi": 48,
                    "time": 198.27039600000154,
                    "velocity": 0.31496062992125984,
                    "duration": 0.14493450000000507
                },
                {
                    "name": "D#3",
                    "midi": 51,
                    "time": 198.41533050000155,
                    "velocity": 0.28346456692913385,
                    "duration": 0.14493450000000507
                },
                {
                    "name": "G3",
                    "midi": 55,
                    "time": 198.56026500000155,
                    "velocity": 0.28346456692913385,
                    "duration": 0.14493450000000507
                },
                {
                    "name": "C4",
                    "midi": 60,
                    "time": 198.70519950000156,
                    "velocity": 0.28346456692913385,
                    "duration": 0.14493450000000507
                },
                {
                    "name": "C3",
                    "midi": 48,
                    "time": 198.85013400000156,
                    "velocity": 0.31496062992125984,
                    "duration": 0.14493450000000507
                },
                {
                    "name": "F3",
                    "midi": 53,
                    "time": 198.99506850000157,
                    "velocity": 0.31496062992125984,
                    "duration": 0.14493450000000507
                },
                {
                    "name": "G3",
                    "midi": 55,
                    "time": 199.14000300000157,
                    "velocity": 0.28346456692913385,
                    "duration": 0.14493450000000507
                },
                {
                    "name": "B3",
                    "midi": 59,
                    "time": 199.28493750000158,
                    "velocity": 0.28346456692913385,
                    "duration": 0.14493450000000507
                },
                {
                    "name": "C3",
                    "midi": 48,
                    "time": 199.42987200000158,
                    "velocity": 0.31496062992125984,
                    "duration": 0.14493450000000507
                },
                {
                    "name": "D#3",
                    "midi": 51,
                    "time": 199.57480650000159,
                    "velocity": 0.31496062992125984,
                    "duration": 0.14493450000000507
                },
                {
                    "name": "G3",
                    "midi": 55,
                    "time": 199.7197410000016,
                    "velocity": 0.28346456692913385,
                    "duration": 0.14493450000000507
                },
                {
                    "name": "C4",
                    "midi": 60,
                    "time": 199.8646755000016,
                    "velocity": 0.28346456692913385,
                    "duration": 0.14493450000000507
                },
                {
                    "name": "D#4",
                    "midi": 63,
                    "time": 200.0096100000016,
                    "velocity": 0.31496062992125984,
                    "duration": 0.14493450000000507
                },
                {
                    "name": "G4",
                    "midi": 67,
                    "time": 200.1545445000016,
                    "velocity": 0.28346456692913385,
                    "duration": 0.14493450000000507
                },
                {
                    "name": "D#4",
                    "midi": 63,
                    "time": 200.2994790000016,
                    "velocity": 0.28346456692913385,
                    "duration": 0.14493450000000507
                },
                {
                    "name": "D4",
                    "midi": 62,
                    "time": 200.44441350000162,
                    "velocity": 0.28346456692913385,
                    "duration": 0.14493450000000507
                },
                {
                    "name": "C4",
                    "midi": 60,
                    "time": 200.58934800000162,
                    "velocity": 0.31496062992125984,
                    "duration": 0.14493450000000507
                },
                {
                    "name": "G4",
                    "midi": 67,
                    "time": 200.73428250000163,
                    "velocity": 0.28346456692913385,
                    "duration": 0.14493450000000507
                },
                {
                    "name": "C4",
                    "midi": 60,
                    "time": 200.87921700000163,
                    "velocity": 0.28346456692913385,
                    "duration": 0.14493450000000507
                },
                {
                    "name": "D#4",
                    "midi": 63,
                    "time": 200.87921700000163,
                    "velocity": 0.28346456692913385,
                    "duration": 0.14493450000000507
                },
                {
                    "name": "G4",
                    "midi": 67,
                    "time": 201.02415150000164,
                    "velocity": 0.28346456692913385,
                    "duration": 0.14493450000000507
                },
                {
                    "name": "B3",
                    "midi": 59,
                    "time": 201.16908600000164,
                    "velocity": 0.3228346456692913,
                    "duration": 0.14493450000000507
                },
                {
                    "name": "D4",
                    "midi": 62,
                    "time": 201.16908600000164,
                    "velocity": 0.3228346456692913,
                    "duration": 0.14493450000000507
                },
                {
                    "name": "G4",
                    "midi": 67,
                    "time": 201.31402050000165,
                    "velocity": 0.28346456692913385,
                    "duration": 0.14493450000000507
                },
                {
                    "name": "C4",
                    "midi": 60,
                    "time": 201.45895500000165,
                    "velocity": 0.28346456692913385,
                    "duration": 0.14493450000000507
                },
                {
                    "name": "G#3",
                    "midi": 56,
                    "time": 201.45895500000165,
                    "velocity": 0.28346456692913385,
                    "duration": 0.14493450000000507
                },
                {
                    "name": "G4",
                    "midi": 67,
                    "time": 201.60388950000166,
                    "velocity": 0.28346456692913385,
                    "duration": 0.14493450000000507
                },
                {
                    "name": "G3",
                    "midi": 55,
                    "time": 201.74882400000166,
                    "velocity": 0.31496062992125984,
                    "duration": 0.14493450000000507
                },
                {
                    "name": "B3",
                    "midi": 59,
                    "time": 201.89375850000167,
                    "velocity": 0.2283464566929134,
                    "duration": 0.14493450000000507
                },
                {
                    "name": "D4",
                    "midi": 62,
                    "time": 202.03869300000167,
                    "velocity": 0.2204724409448819,
                    "duration": 0.14493450000000507
                },
                {
                    "name": "G4",
                    "midi": 67,
                    "time": 202.18362750000168,
                    "velocity": 0.2204724409448819,
                    "duration": 0.14493450000000507
                },
                {
                    "name": "G3",
                    "midi": 55,
                    "time": 202.32856200000168,
                    "velocity": 0.31496062992125984,
                    "duration": 0.14493450000000507
                },
                {
                    "name": "B3",
                    "midi": 59,
                    "time": 202.4734965000017,
                    "velocity": 0.2440944881889764,
                    "duration": 0.14493450000000507
                },
                {
                    "name": "D4",
                    "midi": 62,
                    "time": 202.6184310000017,
                    "velocity": 0.2440944881889764,
                    "duration": 0.14493450000000507
                },
                {
                    "name": "G4",
                    "midi": 67,
                    "time": 202.7633655000017,
                    "velocity": 0.2440944881889764,
                    "duration": 0.14493450000000507
                },
                {
                    "name": "F3",
                    "midi": 53,
                    "time": 202.9083000000017,
                    "velocity": 0.31496062992125984,
                    "duration": 0.14493450000000507
                },
                {
                    "name": "G#3",
                    "midi": 56,
                    "time": 203.0532345000017,
                    "velocity": 0.28346456692913385,
                    "duration": 0.14493450000000507
                },
                {
                    "name": "B3",
                    "midi": 59,
                    "time": 203.1981690000017,
                    "velocity": 0.29133858267716534,
                    "duration": 0.14493450000000507
                },
                {
                    "name": "D4",
                    "midi": 62,
                    "time": 203.34310350000172,
                    "velocity": 0.29133858267716534,
                    "duration": 0.14493450000000507
                },
                {
                    "name": "F3",
                    "midi": 53,
                    "time": 203.48803800000172,
                    "velocity": 0.31496062992125984,
                    "duration": 0.14493450000000507
                },
                {
                    "name": "G#3",
                    "midi": 56,
                    "time": 203.63297250000173,
                    "velocity": 0.28346456692913385,
                    "duration": 0.14493450000000507
                },
                {
                    "name": "B3",
                    "midi": 59,
                    "time": 203.77790700000173,
                    "velocity": 0.28346456692913385,
                    "duration": 0.14493450000000507
                },
                {
                    "name": "D4",
                    "midi": 62,
                    "time": 203.92284150000174,
                    "velocity": 0.28346456692913385,
                    "duration": 0.14493450000000507
                },
                {
                    "name": "D#3",
                    "midi": 51,
                    "time": 204.06777600000174,
                    "velocity": 0.31496062992125984,
                    "duration": 0.14493450000000507
                },
                {
                    "name": "G3",
                    "midi": 55,
                    "time": 204.21271050000175,
                    "velocity": 0.2677165354330709,
                    "duration": 0.14493450000000507
                },
                {
                    "name": "C4",
                    "midi": 60,
                    "time": 204.35764500000175,
                    "velocity": 0.2677165354330709,
                    "duration": 0.14493450000000507
                },
                {
                    "name": "D#4",
                    "midi": 63,
                    "time": 204.50257950000176,
                    "velocity": 0.25984251968503935,
                    "duration": 0.14493450000000507
                },
                {
                    "name": "G#3",
                    "midi": 56,
                    "time": 204.64751400000176,
                    "velocity": 0.3228346456692913,
                    "duration": 0.14493450000000507
                },
                {
                    "name": "C4",
                    "midi": 60,
                    "time": 204.79244850000177,
                    "velocity": 0.2755905511811024,
                    "duration": 0.14493450000000507
                },
                {
                    "name": "D#4",
                    "midi": 63,
                    "time": 204.93738300000177,
                    "velocity": 0.2755905511811024,
                    "duration": 0.14493450000000507
                },
                {
                    "name": "F#4",
                    "midi": 66,
                    "time": 205.08231750000178,
                    "velocity": 0.2755905511811024,
                    "duration": 0.14493450000000507
                },
                {
                    "name": "G3",
                    "midi": 55,
                    "time": 205.22725200000178,
                    "velocity": 0.31496062992125984,
                    "duration": 0.14493450000000507
                },
                {
                    "name": "C4",
                    "midi": 60,
                    "time": 205.3721865000018,
                    "velocity": 0.31496062992125984,
                    "duration": 0.14493450000000507
                },
                {
                    "name": "D#4",
                    "midi": 63,
                    "time": 205.5171210000018,
                    "velocity": 0.2755905511811024,
                    "duration": 0.14493450000000507
                },
                {
                    "name": "G4",
                    "midi": 67,
                    "time": 205.6620555000018,
                    "velocity": 0.2755905511811024,
                    "duration": 0.14493450000000507
                },
                {
                    "name": "G3",
                    "midi": 55,
                    "time": 205.8069900000018,
                    "velocity": 0.31496062992125984,
                    "duration": 0.14493450000000507
                },
                {
                    "name": "B3",
                    "midi": 59,
                    "time": 205.9519245000018,
                    "velocity": 0.28346456692913385,
                    "duration": 0.14493450000000507
                },
                {
                    "name": "D4",
                    "midi": 62,
                    "time": 206.0968590000018,
                    "velocity": 0.28346456692913385,
                    "duration": 0.14493450000000507
                },
                {
                    "name": "G4",
                    "midi": 67,
                    "time": 206.24179350000182,
                    "velocity": 0.28346456692913385,
                    "duration": 0.14493450000000507
                },
                {
                    "name": "C4",
                    "midi": 60,
                    "time": 206.38672800000182,
                    "velocity": 0.44881889763779526,
                    "duration": 0.28986900000001015
                },
                {
                    "name": "F2",
                    "midi": 41,
                    "time": 207.54620400000184,
                    "velocity": 0.4566929133858268,
                    "duration": 0.14493450000000507
                },
                {
                    "name": "G#2",
                    "midi": 44,
                    "time": 207.69113850000184,
                    "velocity": 0.3779527559055118,
                    "duration": 0.14493450000000507
                },
                {
                    "name": "B2",
                    "midi": 47,
                    "time": 207.83607300000185,
                    "velocity": 0.3858267716535433,
                    "duration": 0.14493450000000507
                },
                {
                    "name": "D3",
                    "midi": 50,
                    "time": 207.98100750000185,
                    "velocity": 0.4015748031496063,
                    "duration": 0.14493450000000507
                },
                {
                    "name": "F2",
                    "midi": 41,
                    "time": 208.12594200000186,
                    "velocity": 0.41732283464566927,
                    "duration": 0.14493450000000507
                },
                {
                    "name": "G#2",
                    "midi": 44,
                    "time": 208.27087650000186,
                    "velocity": 0.4251968503937008,
                    "duration": 0.14493450000000507
                },
                {
                    "name": "B2",
                    "midi": 47,
                    "time": 208.41581100000187,
                    "velocity": 0.4409448818897638,
                    "duration": 0.14493450000000507
                },
                {
                    "name": "D3",
                    "midi": 50,
                    "time": 208.56074550000187,
                    "velocity": 0.44881889763779526,
                    "duration": 0.14493450000000507
                },
                {
                    "name": "D#2",
                    "midi": 39,
                    "time": 208.70568000000188,
                    "velocity": 0.4566929133858268,
                    "duration": 0.14493450000000507
                },
                {
                    "name": "G2",
                    "midi": 43,
                    "time": 208.85061450000188,
                    "velocity": 0.44881889763779526,
                    "duration": 0.14493450000000507
                },
                {
                    "name": "C3",
                    "midi": 48,
                    "time": 208.9955490000019,
                    "velocity": 0.4330708661417323,
                    "duration": 0.14493450000000507
                },
                {
                    "name": "D#3",
                    "midi": 51,
                    "time": 209.1404835000019,
                    "velocity": 0.4409448818897638,
                    "duration": 0.14493450000000507
                },
                {
                    "name": "G#2",
                    "midi": 44,
                    "time": 209.2854180000019,
                    "velocity": 0.44881889763779526,
                    "duration": 0.14493450000000507
                },
                {
                    "name": "C3",
                    "midi": 48,
                    "time": 209.4303525000019,
                    "velocity": 0.44881889763779526,
                    "duration": 0.14493450000000507
                },
                {
                    "name": "D#3",
                    "midi": 51,
                    "time": 209.5752870000019,
                    "velocity": 0.4566929133858268,
                    "duration": 0.14493450000000507
                },
                {
                    "name": "F#3",
                    "midi": 54,
                    "time": 209.7202215000019,
                    "velocity": 0.47244094488188976,
                    "duration": 0.14493450000000507
                },
                {
                    "name": "G2",
                    "midi": 43,
                    "time": 209.86515600000192,
                    "velocity": 0.5039370078740157,
                    "duration": 0.14493450000000507
                },
                {
                    "name": "C3",
                    "midi": 48,
                    "time": 210.01009050000192,
                    "velocity": 0.4566929133858268,
                    "duration": 0.14493450000000507
                },
                {
                    "name": "D#3",
                    "midi": 51,
                    "time": 210.15502500000193,
                    "velocity": 0.49606299212598426,
                    "duration": 0.14493450000000507
                },
                {
                    "name": "G3",
                    "midi": 55,
                    "time": 210.29995950000193,
                    "velocity": 0.49606299212598426,
                    "duration": 0.14493450000000507
                },
                {
                    "name": "G2",
                    "midi": 43,
                    "time": 210.44489400000194,
                    "velocity": 0.4881889763779528,
                    "duration": 0.14493450000000507
                },
                {
                    "name": "G3",
                    "midi": 55,
                    "time": 210.58982850000194,
                    "velocity": 0.48031496062992124,
                    "duration": 0.14493450000000507
                },
                {
                    "name": "G2",
                    "midi": 43,
                    "time": 210.73476300000195,
                    "velocity": 0.4566929133858268,
                    "duration": 0.14493450000000507
                },
                {
                    "name": "G3",
                    "midi": 55,
                    "time": 210.87969750000195,
                    "velocity": 0.44881889763779526,
                    "duration": 0.14493450000000507
                },
                {
                    "name": "C3",
                    "midi": 48,
                    "time": 211.02463200000196,
                    "velocity": 0.5275590551181102,
                    "duration": 0.14493450000000507
                },
                {
                    "name": "C4",
                    "midi": 60,
                    "time": 211.16956650000196,
                    "velocity": 0.4094488188976378,
                    "duration": 0.14493450000000507
                },
                {
                    "name": "B3",
                    "midi": 59,
                    "time": 211.31450100000197,
                    "velocity": 0.47244094488188976,
                    "duration": 0.14493450000000507
                },
                {
                    "name": "C4",
                    "midi": 60,
                    "time": 211.45943550000197,
                    "velocity": 0.4094488188976378,
                    "duration": 0.14493450000000507
                },
                {
                    "name": "A#3",
                    "midi": 58,
                    "time": 211.60437000000198,
                    "velocity": 0.5039370078740157,
                    "duration": 0.14493450000000507
                },
                {
                    "name": "C4",
                    "midi": 60,
                    "time": 211.74930450000198,
                    "velocity": 0.4015748031496063,
                    "duration": 0.14493450000000507
                },
                {
                    "name": "G3",
                    "midi": 55,
                    "time": 211.894239000002,
                    "velocity": 0.44881889763779526,
                    "duration": 0.14493450000000507
                },
                {
                    "name": "C4",
                    "midi": 60,
                    "time": 212.039173500002,
                    "velocity": 0.3937007874015748,
                    "duration": 0.14493450000000507
                },
                {
                    "name": "G#3",
                    "midi": 56,
                    "time": 212.184108000002,
                    "velocity": 0.49606299212598426,
                    "duration": 0.14493450000000507
                },
                {
                    "name": "C4",
                    "midi": 60,
                    "time": 212.329042500002,
                    "velocity": 0.3937007874015748,
                    "duration": 0.14493450000000507
                },
                {
                    "name": "F3",
                    "midi": 53,
                    "time": 212.473977000002,
                    "velocity": 0.44881889763779526,
                    "duration": 0.14493450000000507
                },
                {
                    "name": "C4",
                    "midi": 60,
                    "time": 212.618911500002,
                    "velocity": 0.3937007874015748,
                    "duration": 0.14493450000000507
                },
                {
                    "name": "A#3",
                    "midi": 58,
                    "time": 212.76384600000202,
                    "velocity": 0.4645669291338583,
                    "duration": 0.14493450000000507
                },
                {
                    "name": "C4",
                    "midi": 60,
                    "time": 212.90878050000202,
                    "velocity": 0.3937007874015748,
                    "duration": 0.14493450000000507
                },
                {
                    "name": "G3",
                    "midi": 55,
                    "time": 213.05371500000203,
                    "velocity": 0.4330708661417323,
                    "duration": 0.14493450000000507
                },
                {
                    "name": "C4",
                    "midi": 60,
                    "time": 213.19864950000203,
                    "velocity": 0.3937007874015748,
                    "duration": 0.14493450000000507
                },
                {
                    "name": "G#3",
                    "midi": 56,
                    "time": 213.34358400000204,
                    "velocity": 0.49606299212598426,
                    "duration": 0.14493450000000507
                },
                {
                    "name": "C4",
                    "midi": 60,
                    "time": 213.48851850000204,
                    "velocity": 0.3937007874015748,
                    "duration": 0.14493450000000507
                },
                {
                    "name": "F3",
                    "midi": 53,
                    "time": 213.63345300000205,
                    "velocity": 0.44881889763779526,
                    "duration": 0.14493450000000507
                },
                {
                    "name": "C4",
                    "midi": 60,
                    "time": 213.77838750000205,
                    "velocity": 0.3937007874015748,
                    "duration": 0.14493450000000507
                },
                {
                    "name": "A#3",
                    "midi": 58,
                    "time": 213.92332200000206,
                    "velocity": 0.4645669291338583,
                    "duration": 0.14493450000000507
                },
                {
                    "name": "C4",
                    "midi": 60,
                    "time": 214.06825650000206,
                    "velocity": 0.3937007874015748,
                    "duration": 0.14493450000000507
                },
                {
                    "name": "G3",
                    "midi": 55,
                    "time": 214.21319100000207,
                    "velocity": 0.4330708661417323,
                    "duration": 0.14493450000000507
                },
                {
                    "name": "C4",
                    "midi": 60,
                    "time": 214.35812550000207,
                    "velocity": 0.3937007874015748,
                    "duration": 0.14493450000000507
                },
                {
                    "name": "G#3",
                    "midi": 56,
                    "time": 214.50306000000208,
                    "velocity": 0.6062992125984252,
                    "duration": 0.14493450000000507
                },
                {
                    "name": "G#2",
                    "midi": 44,
                    "time": 214.7929290000021,
                    "velocity": 0.4881889763779528,
                    "duration": 0.14493450000000507
                },
                {
                    "name": "C3",
                    "midi": 48,
                    "time": 214.7929290000021,
                    "velocity": 0.4881889763779528,
                    "duration": 0.14493450000000507
                },
                {
                    "name": "D#3",
                    "midi": 51,
                    "time": 214.7929290000021,
                    "velocity": 0.4881889763779528,
                    "duration": 0.14493450000000507
                },
                {
                    "name": "G#3",
                    "midi": 56,
                    "time": 214.7929290000021,
                    "velocity": 0.5748031496062992,
                    "duration": 0.14493450000000507
                },
                {
                    "name": "G2",
                    "midi": 43,
                    "time": 215.0827980000021,
                    "velocity": 0.4881889763779528,
                    "duration": 0.14493450000000507
                },
                {
                    "name": "C3",
                    "midi": 48,
                    "time": 215.0827980000021,
                    "velocity": 0.4881889763779528,
                    "duration": 0.14493450000000507
                },
                {
                    "name": "D#3",
                    "midi": 51,
                    "time": 215.0827980000021,
                    "velocity": 0.4881889763779528,
                    "duration": 0.14493450000000507
                },
                {
                    "name": "G3",
                    "midi": 55,
                    "time": 215.0827980000021,
                    "velocity": 0.5748031496062992,
                    "duration": 0.14493450000000507
                },
                {
                    "name": "G2",
                    "midi": 43,
                    "time": 215.3726670000021,
                    "velocity": 0.4881889763779528,
                    "duration": 0.14493450000000507
                },
                {
                    "name": "B2",
                    "midi": 47,
                    "time": 215.3726670000021,
                    "velocity": 0.4881889763779528,
                    "duration": 0.14493450000000507
                },
                {
                    "name": "D3",
                    "midi": 50,
                    "time": 215.3726670000021,
                    "velocity": 0.4881889763779528,
                    "duration": 0.14493450000000507
                },
                {
                    "name": "G3",
                    "midi": 55,
                    "time": 215.3726670000021,
                    "velocity": 0.5748031496062992,
                    "duration": 0.14493450000000507
                },
                {
                    "name": "C2",
                    "midi": 36,
                    "time": 215.66253600000212,
                    "velocity": 0.5984251968503937,
                    "duration": 0.14493450000000507
                },
                {
                    "name": "C3",
                    "midi": 48,
                    "time": 215.80747050000213,
                    "velocity": 0.4094488188976378,
                    "duration": 0.14493450000000507
                },
                {
                    "name": "B2",
                    "midi": 47,
                    "time": 215.95240500000213,
                    "velocity": 0.47244094488188976,
                    "duration": 0.14493450000000507
                },
                {
                    "name": "C3",
                    "midi": 48,
                    "time": 216.09733950000214,
                    "velocity": 0.4094488188976378,
                    "duration": 0.14493450000000507
                },
                {
                    "name": "A#2",
                    "midi": 46,
                    "time": 216.24227400000214,
                    "velocity": 0.5039370078740157,
                    "duration": 0.14493450000000507
                },
                {
                    "name": "C3",
                    "midi": 48,
                    "time": 216.38720850000215,
                    "velocity": 0.4015748031496063,
                    "duration": 0.14493450000000507
                },
                {
                    "name": "G2",
                    "midi": 43,
                    "time": 216.53214300000215,
                    "velocity": 0.44881889763779526,
                    "duration": 0.14493450000000507
                },
                {
                    "name": "C3",
                    "midi": 48,
                    "time": 216.67707750000216,
                    "velocity": 0.3937007874015748,
                    "duration": 0.14493450000000507
                },
                {
                    "name": "G#2",
                    "midi": 44,
                    "time": 216.82201200000216,
                    "velocity": 0.49606299212598426,
                    "duration": 0.14493450000000507
                },
                {
                    "name": "C3",
                    "midi": 48,
                    "time": 216.96694650000217,
                    "velocity": 0.3937007874015748,
                    "duration": 0.14493450000000507
                },
                {
                    "name": "F2",
                    "midi": 41,
                    "time": 217.11188100000217,
                    "velocity": 0.44881889763779526,
                    "duration": 0.14493450000000507
                },
                {
                    "name": "C3",
                    "midi": 48,
                    "time": 217.25681550000218,
                    "velocity": 0.3937007874015748,
                    "duration": 0.14493450000000507
                },
                {
                    "name": "A#2",
                    "midi": 46,
                    "time": 217.40175000000218,
                    "velocity": 0.4645669291338583,
                    "duration": 0.14493450000000507
                },
                {
                    "name": "C3",
                    "midi": 48,
                    "time": 217.5466845000022,
                    "velocity": 0.3937007874015748,
                    "duration": 0.14493450000000507
                },
                {
                    "name": "G2",
                    "midi": 43,
                    "time": 217.6916190000022,
                    "velocity": 0.4330708661417323,
                    "duration": 0.14493450000000507
                },
                {
                    "name": "C3",
                    "midi": 48,
                    "time": 217.8365535000022,
                    "velocity": 0.3937007874015748,
                    "duration": 0.14493450000000507
                },
                {
                    "name": "G#2",
                    "midi": 44,
                    "time": 217.9814880000022,
                    "velocity": 0.49606299212598426,
                    "duration": 0.14493450000000507
                },
                {
                    "name": "C3",
                    "midi": 48,
                    "time": 218.1264225000022,
                    "velocity": 0.3937007874015748,
                    "duration": 0.14493450000000507
                },
                {
                    "name": "F2",
                    "midi": 41,
                    "time": 218.2713570000022,
                    "velocity": 0.44881889763779526,
                    "duration": 0.14493450000000507
                },
                {
                    "name": "C3",
                    "midi": 48,
                    "time": 218.41629150000222,
                    "velocity": 0.3937007874015748,
                    "duration": 0.14493450000000507
                },
                {
                    "name": "A#2",
                    "midi": 46,
                    "time": 218.56122600000222,
                    "velocity": 0.4645669291338583,
                    "duration": 0.14493450000000507
                },
                {
                    "name": "C3",
                    "midi": 48,
                    "time": 218.70616050000223,
                    "velocity": 0.3937007874015748,
                    "duration": 0.14493450000000507
                },
                {
                    "name": "G2",
                    "midi": 43,
                    "time": 218.85109500000223,
                    "velocity": 0.4330708661417323,
                    "duration": 0.14493450000000507
                },
                {
                    "name": "C3",
                    "midi": 48,
                    "time": 218.99602950000224,
                    "velocity": 0.3937007874015748,
                    "duration": 0.14493450000000507
                },
                {
                    "name": "G#2",
                    "midi": 44,
                    "time": 219.14096400000224,
                    "velocity": 0.3543307086614173,
                    "duration": 0.28986900000001015
                },
                {
                    "name": "G#2",
                    "midi": 44,
                    "time": 219.43083300000225,
                    "velocity": 0.3543307086614173,
                    "duration": 0.28986900000001015
                },
                {
                    "name": "G#3",
                    "midi": 56,
                    "time": 219.43083300000225,
                    "velocity": 0.3543307086614173,
                    "duration": 0.28986900000001015
                },
                {
                    "name": "G#2",
                    "midi": 44,
                    "time": 220.01057100000227,
                    "velocity": 0.3228346456692913,
                    "duration": 0.14493450000000507
                },
                {
                    "name": "C3",
                    "midi": 48,
                    "time": 220.01057100000227,
                    "velocity": 0.3228346456692913,
                    "duration": 0.14493450000000507
                },
                {
                    "name": "D#3",
                    "midi": 51,
                    "time": 220.01057100000227,
                    "velocity": 0.3228346456692913,
                    "duration": 0.14493450000000507
                },
                {
                    "name": "G#3",
                    "midi": 56,
                    "time": 220.01057100000227,
                    "velocity": 0.3858267716535433,
                    "duration": 0.14493450000000507
                },
                {
                    "name": "G2",
                    "midi": 43,
                    "time": 220.59030900000226,
                    "velocity": 0.3464566929133858,
                    "duration": 0.14493450000000507
                },
                {
                    "name": "C3",
                    "midi": 48,
                    "time": 220.59030900000226,
                    "velocity": 0.3464566929133858,
                    "duration": 0.14493450000000507
                },
                {
                    "name": "D#3",
                    "midi": 51,
                    "time": 220.59030900000226,
                    "velocity": 0.3464566929133858,
                    "duration": 0.14493450000000507
                },
                {
                    "name": "G3",
                    "midi": 55,
                    "time": 220.59030900000226,
                    "velocity": 0.4094488188976378,
                    "duration": 0.14493450000000507
                },
                {
                    "name": "F#2",
                    "midi": 42,
                    "time": 221.17004700000226,
                    "velocity": 0.36220472440944884,
                    "duration": 0.14493450000000507
                },
                {
                    "name": "C3",
                    "midi": 48,
                    "time": 221.17004700000226,
                    "velocity": 0.36220472440944884,
                    "duration": 0.14493450000000507
                },
                {
                    "name": "D#3",
                    "midi": 51,
                    "time": 221.17004700000226,
                    "velocity": 0.36220472440944884,
                    "duration": 0.14493450000000507
                },
                {
                    "name": "F#3",
                    "midi": 54,
                    "time": 221.17004700000226,
                    "velocity": 0.4330708661417323,
                    "duration": 0.14493450000000507
                },
                {
                    "name": "F2",
                    "midi": 41,
                    "time": 221.74978500000225,
                    "velocity": 0.3779527559055118,
                    "duration": 0.14493450000000507
                },
                {
                    "name": "B2",
                    "midi": 47,
                    "time": 221.74978500000225,
                    "velocity": 0.3779527559055118,
                    "duration": 0.14493450000000507
                },
                {
                    "name": "D3",
                    "midi": 50,
                    "time": 221.74978500000225,
                    "velocity": 0.3779527559055118,
                    "duration": 0.14493450000000507
                },
                {
                    "name": "F3",
                    "midi": 53,
                    "time": 221.74978500000225,
                    "velocity": 0.44881889763779526,
                    "duration": 0.14493450000000507
                },
                {
                    "name": "D#2",
                    "midi": 39,
                    "time": 222.32952300000224,
                    "velocity": 0.4015748031496063,
                    "duration": 0.14493450000000507
                },
                {
                    "name": "G2",
                    "midi": 43,
                    "time": 222.32952300000224,
                    "velocity": 0.4015748031496063,
                    "duration": 0.14493450000000507
                },
                {
                    "name": "C3",
                    "midi": 48,
                    "time": 222.32952300000224,
                    "velocity": 0.4015748031496063,
                    "duration": 0.14493450000000507
                },
                {
                    "name": "D#3",
                    "midi": 51,
                    "time": 222.32952300000224,
                    "velocity": 0.47244094488188976,
                    "duration": 0.14493450000000507
                },
                {
                    "name": "F2",
                    "midi": 41,
                    "time": 222.90926100000223,
                    "velocity": 0.41732283464566927,
                    "duration": 0.14493450000000507
                },
                {
                    "name": "G#2",
                    "midi": 44,
                    "time": 222.90926100000223,
                    "velocity": 0.41732283464566927,
                    "duration": 0.14493450000000507
                },
                {
                    "name": "D3",
                    "midi": 50,
                    "time": 222.90926100000223,
                    "velocity": 0.41732283464566927,
                    "duration": 0.14493450000000507
                },
                {
                    "name": "F3",
                    "midi": 53,
                    "time": 222.90926100000223,
                    "velocity": 0.49606299212598426,
                    "duration": 0.14493450000000507
                },
                {
                    "name": "G2",
                    "midi": 43,
                    "time": 223.48899900000222,
                    "velocity": 0.4409448818897638,
                    "duration": 0.14493450000000507
                },
                {
                    "name": "B2",
                    "midi": 47,
                    "time": 223.48899900000222,
                    "velocity": 0.4409448818897638,
                    "duration": 0.14493450000000507
                },
                {
                    "name": "D3",
                    "midi": 50,
                    "time": 223.48899900000222,
                    "velocity": 0.4409448818897638,
                    "duration": 0.14493450000000507
                },
                {
                    "name": "G3",
                    "midi": 55,
                    "time": 223.48899900000222,
                    "velocity": 0.5196850393700787,
                    "duration": 0.14493450000000507
                },
                {
                    "name": "C2",
                    "midi": 36,
                    "time": 223.77886800000223,
                    "velocity": 0.5118110236220472,
                    "duration": 0.14493450000000507
                },
                {
                    "name": "C3",
                    "midi": 48,
                    "time": 223.77886800000223,
                    "velocity": 0.6062992125984252,
                    "duration": 0.14493450000000507
                },
                {
                    "name": "D#3",
                    "midi": 51,
                    "time": 224.06873700000224,
                    "velocity": 0.5511811023622047,
                    "duration": 0.869607000000002
                },
                {
                    "name": "G3",
                    "midi": 55,
                    "time": 224.06873700000224,
                    "velocity": 0.5511811023622047,
                    "duration": 0.869607000000002
                },
                {
                    "name": "C4",
                    "midi": 60,
                    "time": 224.06873700000224,
                    "velocity": 0.6535433070866141,
                    "duration": 0.869607000000002
                },
                {
                    "name": "F3",
                    "midi": 53,
                    "time": 224.93834400000225,
                    "velocity": 0.5118110236220472,
                    "duration": 0.14493450000000507
                },
                {
                    "name": "G#3",
                    "midi": 56,
                    "time": 224.93834400000225,
                    "velocity": 0.5118110236220472,
                    "duration": 0.14493450000000507
                },
                {
                    "name": "C4",
                    "midi": 60,
                    "time": 224.93834400000225,
                    "velocity": 0.5118110236220472,
                    "duration": 0.14493450000000507
                },
                {
                    "name": "D4",
                    "midi": 62,
                    "time": 224.93834400000225,
                    "velocity": 0.6062992125984252,
                    "duration": 0.14493450000000507
                },
                {
                    "name": "G3",
                    "midi": 55,
                    "time": 225.22821300000226,
                    "velocity": 0.5511811023622047,
                    "duration": 0.869607000000002
                },
                {
                    "name": "B3",
                    "midi": 59,
                    "time": 225.22821300000226,
                    "velocity": 0.5511811023622047,
                    "duration": 0.869607000000002
                },
                {
                    "name": "D4",
                    "midi": 62,
                    "time": 225.22821300000226,
                    "velocity": 0.6535433070866141,
                    "duration": 0.869607000000002
                },
                {
                    "name": "D#3",
                    "midi": 51,
                    "time": 226.09782000000226,
                    "velocity": 0.5118110236220472,
                    "duration": 0.14493450000000507
                },
                {
                    "name": "G3",
                    "midi": 55,
                    "time": 226.09782000000226,
                    "velocity": 0.5118110236220472,
                    "duration": 0.14493450000000507
                },
                {
                    "name": "C4",
                    "midi": 60,
                    "time": 226.09782000000226,
                    "velocity": 0.6062992125984252,
                    "duration": 0.14493450000000507
                },
                {
                    "name": "D#3",
                    "midi": 51,
                    "time": 226.38768900000227,
                    "velocity": 0.5511811023622047,
                    "duration": 0.869607000000002
                },
                {
                    "name": "G3",
                    "midi": 55,
                    "time": 226.38768900000227,
                    "velocity": 0.5511811023622047,
                    "duration": 0.869607000000002
                },
                {
                    "name": "C4",
                    "midi": 60,
                    "time": 226.38768900000227,
                    "velocity": 0.6535433070866141,
                    "duration": 0.869607000000002
                },
                {
                    "name": "F3",
                    "midi": 53,
                    "time": 227.25729600000227,
                    "velocity": 0.5118110236220472,
                    "duration": 0.14493450000000507
                },
                {
                    "name": "G#3",
                    "midi": 56,
                    "time": 227.25729600000227,
                    "velocity": 0.5118110236220472,
                    "duration": 0.14493450000000507
                },
                {
                    "name": "C4",
                    "midi": 60,
                    "time": 227.25729600000227,
                    "velocity": 0.5118110236220472,
                    "duration": 0.14493450000000507
                },
                {
                    "name": "D4",
                    "midi": 62,
                    "time": 227.25729600000227,
                    "velocity": 0.6062992125984252,
                    "duration": 0.14493450000000507
                },
                {
                    "name": "G3",
                    "midi": 55,
                    "time": 227.54716500000228,
                    "velocity": 0.5511811023622047,
                    "duration": 0.869607000000002
                },
                {
                    "name": "B3",
                    "midi": 59,
                    "time": 227.54716500000228,
                    "velocity": 0.5511811023622047,
                    "duration": 0.869607000000002
                },
                {
                    "name": "D4",
                    "midi": 62,
                    "time": 227.54716500000228,
                    "velocity": 0.6535433070866141,
                    "duration": 0.869607000000002
                },
                {
                    "name": "D#3",
                    "midi": 51,
                    "time": 228.41677200000228,
                    "velocity": 0.5118110236220472,
                    "duration": 0.14493450000000507
                },
                {
                    "name": "G3",
                    "midi": 55,
                    "time": 228.41677200000228,
                    "velocity": 0.5118110236220472,
                    "duration": 0.14493450000000507
                },
                {
                    "name": "C4",
                    "midi": 60,
                    "time": 228.41677200000228,
                    "velocity": 0.6062992125984252,
                    "duration": 0.14493450000000507
                },
                {
                    "name": "D#3",
                    "midi": 51,
                    "time": 228.7066410000023,
                    "velocity": 0.5511811023622047,
                    "duration": 0.869607000000002
                },
                {
                    "name": "G3",
                    "midi": 55,
                    "time": 228.7066410000023,
                    "velocity": 0.5511811023622047,
                    "duration": 0.869607000000002
                },
                {
                    "name": "C4",
                    "midi": 60,
                    "time": 228.7066410000023,
                    "velocity": 0.6535433070866141,
                    "duration": 0.869607000000002
                },
                {
                    "name": "F3",
                    "midi": 53,
                    "time": 229.5762480000023,
                    "velocity": 0.5118110236220472,
                    "duration": 0.14493450000000507
                },
                {
                    "name": "G#3",
                    "midi": 56,
                    "time": 229.5762480000023,
                    "velocity": 0.5118110236220472,
                    "duration": 0.14493450000000507
                },
                {
                    "name": "C#4",
                    "midi": 61,
                    "time": 229.5762480000023,
                    "velocity": 0.6062992125984252,
                    "duration": 0.14493450000000507
                },
                {
                    "name": "F3",
                    "midi": 53,
                    "time": 229.8661170000023,
                    "velocity": 0.5511811023622047,
                    "duration": 0.5797379999999919
                },
                {
                    "name": "G#3",
                    "midi": 56,
                    "time": 229.8661170000023,
                    "velocity": 0.5511811023622047,
                    "duration": 0.5797379999999919
                },
                {
                    "name": "C#4",
                    "midi": 61,
                    "time": 229.8661170000023,
                    "velocity": 0.6535433070866141,
                    "duration": 0.5797379999999919
                },
                {
                    "name": "F3",
                    "midi": 53,
                    "time": 230.4458550000023,
                    "velocity": 0.5590551181102362,
                    "duration": 0.14493450000000507
                },
                {
                    "name": "G#3",
                    "midi": 56,
                    "time": 230.4458550000023,
                    "velocity": 0.5590551181102362,
                    "duration": 0.14493450000000507
                },
                {
                    "name": "C#4",
                    "midi": 61,
                    "time": 230.4458550000023,
                    "velocity": 0.6614173228346457,
                    "duration": 0.14493450000000507
                },
                {
                    "name": "G3",
                    "midi": 55,
                    "time": 230.7357240000023,
                    "velocity": 0.6062992125984252,
                    "duration": 1.739214000000004
                },
                {
                    "name": "A#3",
                    "midi": 58,
                    "time": 230.7357240000023,
                    "velocity": 0.6062992125984252,
                    "duration": 1.739214000000004
                },
                {
                    "name": "C#4",
                    "midi": 61,
                    "time": 230.7357240000023,
                    "velocity": 0.6062992125984252,
                    "duration": 1.739214000000004
                },
                {
                    "name": "D#4",
                    "midi": 63,
                    "time": 230.7357240000023,
                    "velocity": 0.7165354330708661,
                    "duration": 1.739214000000004
                },
                {
                    "name": "G1",
                    "midi": 31,
                    "time": 233.0546760000023,
                    "velocity": 0.5433070866141733,
                    "duration": 1.739214000000004
                },
                {
                    "name": "D#2",
                    "midi": 39,
                    "time": 233.0546760000023,
                    "velocity": 0.5433070866141733,
                    "duration": 1.739214000000004
                },
                {
                    "name": "G2",
                    "midi": 43,
                    "time": 233.0546760000023,
                    "velocity": 0.6456692913385826,
                    "duration": 1.739214000000004
                },
                {
                    "name": "G#2",
                    "midi": 44,
                    "time": 235.3736280000023,
                    "velocity": 0.31496062992125984,
                    "duration": 1.1594759999999837
                },
                {
                    "name": "D#3",
                    "midi": 51,
                    "time": 235.3736280000023,
                    "velocity": 0.31496062992125984,
                    "duration": 0.5797379999999919
                },
                {
                    "name": "C#3",
                    "midi": 49,
                    "time": 235.9533660000023,
                    "velocity": 0.31496062992125984,
                    "duration": 0.5797379999999919
                },
                {
                    "name": "G#2",
                    "midi": 44,
                    "time": 236.53310400000228,
                    "velocity": 0.31496062992125984,
                    "duration": 0.28986900000001015
                },
                {
                    "name": "C3",
                    "midi": 48,
                    "time": 236.53310400000228,
                    "velocity": 0.31496062992125984,
                    "duration": 0.28986900000001015
                },
                {
                    "name": "G#3",
                    "midi": 56,
                    "time": 237.6925800000023,
                    "velocity": 0.2992125984251969,
                    "duration": 1.1594759999999837
                },
                {
                    "name": "D#4",
                    "midi": 63,
                    "time": 237.6925800000023,
                    "velocity": 0.2992125984251969,
                    "duration": 0.5797379999999919
                },
                {
                    "name": "C#4",
                    "midi": 61,
                    "time": 238.2723180000023,
                    "velocity": 0.29133858267716534,
                    "duration": 0.5797379999999919
                },
                {
                    "name": "G#3",
                    "midi": 56,
                    "time": 238.85205600000228,
                    "velocity": 0.28346456692913385,
                    "duration": 0.28986900000001015
                },
                {
                    "name": "C4",
                    "midi": 60,
                    "time": 238.85205600000228,
                    "velocity": 0.28346456692913385,
                    "duration": 0.28986900000001015
                },
                {
                    "name": "G#4",
                    "midi": 68,
                    "time": 240.0115320000023,
                    "velocity": 0.2755905511811024,
                    "duration": 0.28986900000001015
                },
                {
                    "name": "G4",
                    "midi": 67,
                    "time": 241.1710080000023,
                    "velocity": 0.2677165354330709,
                    "duration": 0.28986900000001015
                },
                {
                    "name": "G2",
                    "midi": 43,
                    "time": 242.33048400000231,
                    "velocity": 0.5275590551181102,
                    "duration": 0.28986900000001015
                },
                {
                    "name": "B2",
                    "midi": 47,
                    "time": 242.33048400000231,
                    "velocity": 0.5275590551181102,
                    "duration": 0.28986900000001015
                },
                {
                    "name": "D3",
                    "midi": 50,
                    "time": 242.33048400000231,
                    "velocity": 0.5275590551181102,
                    "duration": 0.28986900000001015
                },
                {
                    "name": "G3",
                    "midi": 55,
                    "time": 242.33048400000231,
                    "velocity": 0.6220472440944882,
                    "duration": 0.28986900000001015
                },
                {
                    "name": "C2",
                    "midi": 36,
                    "time": 243.48996000000233,
                    "velocity": 0.5433070866141733,
                    "duration": 0.28986900000001015
                },
                {
                    "name": "D#2",
                    "midi": 39,
                    "time": 243.48996000000233,
                    "velocity": 0.5433070866141733,
                    "duration": 0.28986900000001015
                },
                {
                    "name": "G2",
                    "midi": 43,
                    "time": 243.48996000000233,
                    "velocity": 0.5433070866141733,
                    "duration": 0.28986900000001015
                },
                {
                    "name": "C3",
                    "midi": 48,
                    "time": 243.48996000000233,
                    "velocity": 0.6456692913385826,
                    "duration": 0.28986900000001015
                }
            ],
            "controlChanges": {
                "7": [
                    {
                        "number": 7,
                        "time": 0,
                        "value": 0.7874015748031497
                    }
                ],
                "10": [
                    {
                        "number": 10,
                        "time": 0,
                        "value": 0.5039370078740157
                    }
                ]
            },
            "id": 2,
            "name": "Piano left",
            "instrumentNumber": 1,
            "instrument": "bright acoustic piano",
            "instrumentFamily": "piano",
            "channelNumber": 0,
            "isPercussion": false
        },
        {
            "startTime": 0,
            "duration": 0,
            "length": 0,
            "notes": [],
            "controlChanges": {
                "64": [
                    {
                        "number": 64,
                        "time": 0,
                        "value": 0
                    },
                    {
                        "number": 64,
                        "time": 35.9920675,
                        "value": 1
                    },
                    {
                        "number": 64,
                        "time": 36.53013683125,
                        "value": 0
                    },
                    {
                        "number": 64,
                        "time": 36.627363724999995,
                        "value": 1
                    },
                    {
                        "number": 64,
                        "time": 37.11168651249999,
                        "value": 0
                    },
                    {
                        "number": 64,
                        "time": 37.18596544374999,
                        "value": 1
                    },
                    {
                        "number": 64,
                        "time": 37.68780114999999,
                        "value": 0
                    },
                    {
                        "number": 64,
                        "time": 37.77959299999999,
                        "value": 1
                    },
                    {
                        "number": 64,
                        "time": 38.26753914999999,
                        "value": 0
                    },
                    {
                        "number": 64,
                        "time": 47.615210506249994,
                        "value": 1
                    },
                    {
                        "number": 64,
                        "time": 48.399668487499994,
                        "value": 0
                    },
                    {
                        "number": 64,
                        "time": 48.73241394375,
                        "value": 1
                    },
                    {
                        "number": 64,
                        "time": 49.00899728125,
                        "value": 0
                    },
                    {
                        "number": 64,
                        "time": 49.32906096875,
                        "value": 1
                    },
                    {
                        "number": 64,
                        "time": 49.58873528125,
                        "value": 0
                    },
                    {
                        "number": 64,
                        "time": 51.09363850625,
                        "value": 1
                    },
                    {
                        "number": 64,
                        "time": 52.181855043750005,
                        "value": 0
                    },
                    {
                        "number": 64,
                        "time": 52.466289,
                        "value": 1
                    },
                    {
                        "number": 64,
                        "time": 53.338311575000006,
                        "value": 0
                    },
                    {
                        "number": 64,
                        "time": 53.4808305,
                        "value": 1
                    },
                    {
                        "number": 64,
                        "time": 53.92227683125,
                        "value": 0
                    },
                    {
                        "number": 64,
                        "time": 54.1414902625,
                        "value": 1
                    },
                    {
                        "number": 64,
                        "time": 54.49718368125,
                        "value": 0
                    },
                    {
                        "number": 64,
                        "time": 54.688618,
                        "value": 1
                    },
                    {
                        "number": 64,
                        "time": 55.25205086875,
                        "value": 0
                    },
                    {
                        "number": 64,
                        "time": 55.71463348125,
                        "value": 1
                    },
                    {
                        "number": 64,
                        "time": 56.8203629375,
                        "value": 0
                    },
                    {
                        "number": 64,
                        "time": 57.104193,
                        "value": 1
                    },
                    {
                        "number": 64,
                        "time": 57.973800000000004,
                        "value": 0
                    },
                    {
                        "number": 64,
                        "time": 68.08962420625001,
                        "value": 1
                    },
                    {
                        "number": 64,
                        "time": 68.41572683125001,
                        "value": 0
                    },
                    {
                        "number": 64,
                        "time": 68.464642225,
                        "value": 1
                    },
                    {
                        "number": 64,
                        "time": 68.996068725,
                        "value": 0
                    },
                    {
                        "number": 64,
                        "time": 69.02505562500001,
                        "value": 1
                    },
                    {
                        "number": 64,
                        "time": 69.575806725,
                        "value": 0
                    },
                    {
                        "number": 64,
                        "time": 131.35232566875,
                        "value": 1
                    },
                    {
                        "number": 64,
                        "time": 132.18932240625,
                        "value": 0
                    },
                    {
                        "number": 64,
                        "time": 132.5462236125,
                        "value": 1
                    },
                    {
                        "number": 64,
                        "time": 133.34517504375,
                        "value": 0
                    },
                    {
                        "number": 64,
                        "time": 133.6501413875,
                        "value": 1
                    },
                    {
                        "number": 64,
                        "time": 134.21297036250002,
                        "value": 0
                    },
                    {
                        "number": 64,
                        "time": 134.25765850000002,
                        "value": 1
                    },
                    {
                        "number": 64,
                        "time": 134.50585883125,
                        "value": 0
                    },
                    {
                        "number": 64,
                        "time": 134.87181844375002,
                        "value": 1
                    },
                    {
                        "number": 64,
                        "time": 135.66533483125002,
                        "value": 0
                    },
                    {
                        "number": 64,
                        "time": 136.54520802500002,
                        "value": 1
                    },
                    {
                        "number": 64,
                        "time": 136.82239525625002,
                        "value": 0
                    },
                    {
                        "number": 64,
                        "time": 136.84594711250003,
                        "value": 1
                    },
                    {
                        "number": 64,
                        "time": 137.40575661875002,
                        "value": 0
                    },
                    {
                        "number": 64,
                        "time": 137.43413962500003,
                        "value": 1
                    },
                    {
                        "number": 64,
                        "time": 137.98368293750002,
                        "value": 0
                    },
                    {
                        "number": 64,
                        "time": 165.8243926,
                        "value": 1
                    },
                    {
                        "number": 64,
                        "time": 166.00797630000002,
                        "value": 0
                    },
                    {
                        "number": 64,
                        "time": 166.99655036875004,
                        "value": 1
                    },
                    {
                        "number": 64,
                        "time": 167.16262115000004,
                        "value": 0
                    },
                    {
                        "number": 64,
                        "time": 168.13489008750003,
                        "value": 1
                    },
                    {
                        "number": 64,
                        "time": 168.31907768125004,
                        "value": 0
                    },
                    {
                        "number": 64,
                        "time": 175.12616803125005,
                        "value": 1
                    },
                    {
                        "number": 64,
                        "time": 175.95712583125004,
                        "value": 0
                    },
                    {
                        "number": 64,
                        "time": 176.24880651250004,
                        "value": 1
                    },
                    {
                        "number": 64,
                        "time": 176.53746772500003,
                        "value": 0
                    },
                    {
                        "number": 64,
                        "time": 176.87142096875002,
                        "value": 1
                    },
                    {
                        "number": 64,
                        "time": 177.11599793750003,
                        "value": 0
                    },
                    {
                        "number": 64,
                        "time": 178.55930400000003,
                        "value": 1
                    },
                    {
                        "number": 64,
                        "time": 179.72300725625,
                        "value": 0
                    },
                    {
                        "number": 64,
                        "time": 180.00864900000002,
                        "value": 1
                    },
                    {
                        "number": 64,
                        "time": 180.88429493750002,
                        "value": 0
                    },
                    {
                        "number": 64,
                        "time": 181.02319050000003,
                        "value": 1
                    },
                    {
                        "number": 64,
                        "time": 181.46463683125003,
                        "value": 0
                    },
                    {
                        "number": 64,
                        "time": 181.69955150000004,
                        "value": 1
                    },
                    {
                        "number": 64,
                        "time": 182.04316704375003,
                        "value": 0
                    },
                    {
                        "number": 64,
                        "time": 183.24551950000003,
                        "value": 1
                    },
                    {
                        "number": 64,
                        "time": 184.36211904375003,
                        "value": 0
                    },
                    {
                        "number": 64,
                        "time": 185.57715326875004,
                        "value": 1
                    },
                    {
                        "number": 64,
                        "time": 186.68167493750005,
                        "value": 0
                    },
                    {
                        "number": 64,
                        "time": 187.88342350000005,
                        "value": 1
                    },
                    {
                        "number": 64,
                        "time": 189.00183472500004,
                        "value": 0
                    },
                    {
                        "number": 64,
                        "time": 231.89761557500003,
                        "value": 0
                    },
                    {
                        "number": 64,
                        "time": 231.91935575000002,
                        "value": 1
                    },
                    {
                        "number": 64,
                        "time": 232.48218472500002,
                        "value": 0
                    },
                    {
                        "number": 64,
                        "time": 232.50452879375,
                        "value": 1
                    },
                    {
                        "number": 64,
                        "time": 233.06373440625,
                        "value": 0
                    }
                ]
            },
            "id": 3,
            "name": "Pedale"
        },
        {
            "startTime": 0,
            "duration": 0,
            "length": 0,
            "notes": [],
            "controlChanges": {},
            "id": 4,
            "name": "Beethoven Sonata No. 8 C minor, Grand Sonate pathtique 3. Movement"
        },
        {
            "startTime": 0,
            "duration": 0,
            "length": 0,
            "notes": [],
            "controlChanges": {},
            "id": 5,
            "name": "Copyright  2003 by Bernd Krueger"
        },
        {
            "startTime": 0,
            "duration": 0,
            "length": 0,
            "notes": [],
            "controlChanges": {},
            "id": 6,
            "name": "http://www.piano-midi.de"
        },
        {
            "startTime": 0,
            "duration": 0,
            "length": 0,
            "notes": [],
            "controlChanges": {},
            "id": 7,
            "name": "Edition: 2012-05-21"
        },
        {
            "startTime": 0,
            "duration": 0,
            "length": 0,
            "notes": [],
            "controlChanges": {},
            "id": 8,
            "name": "Spur 8"
        }
    ]
}