{
    "header": {
        "PPQ": 480,
        "timeSignature": [
            9,
            4
        ],
        "bpm": 63.09997560134277,
        "name": "5. Reverei"
    },
    "startTime": 0,
    "duration": 99.84156000000004,
    "tracks": [
        {
            "startTime": 0,
            "duration": 0,
            "length": 0,
            "notes": [],
            "controlChanges": {},
            "id": 0,
            "name": "5. Reverei"
        },
        {
            "startTime": 0,
            "duration": 99.84156000000004,
            "length": 206,
            "notes": [
                {
                    "name": "F#4",
                    "midi": 66,
                    "time": 0,
                    "velocity": 0.36220472440944884,
                    "duration": 0.9508719999999999
                },
                {
                    "name": "A#4",
                    "midi": 70,
                    "time": 0,
                    "velocity": 0.36220472440944884,
                    "duration": 0.9508719999999999
                },
                {
                    "name": "C#5",
                    "midi": 73,
                    "time": 0,
                    "velocity": 0.4330708661417323,
                    "duration": 0.9508719999999999
                },
                {
                    "name": "C#4",
                    "midi": 61,
                    "time": 0.9508719999999999,
                    "velocity": 0.2755905511811024,
                    "duration": 0.9508719999999999
                },
                {
                    "name": "F#4",
                    "midi": 66,
                    "time": 1.9017439999999999,
                    "velocity": 0.36220472440944884,
                    "duration": 0.9508719999999999
                },
                {
                    "name": "A#4",
                    "midi": 70,
                    "time": 1.9017439999999999,
                    "velocity": 0.36220472440944884,
                    "duration": 0.9508719999999999
                },
                {
                    "name": "C#5",
                    "midi": 73,
                    "time": 1.9017439999999999,
                    "velocity": 0.4330708661417323,
                    "duration": 0.9508719999999999
                },
                {
                    "name": "C#4",
                    "midi": 61,
                    "time": 2.852616,
                    "velocity": 0.2755905511811024,
                    "duration": 2.496039
                },
                {
                    "name": "F#4",
                    "midi": 66,
                    "time": 3.8034879999999998,
                    "velocity": 0.3464566929133858,
                    "duration": 1.5451670000000002
                },
                {
                    "name": "A#4",
                    "midi": 70,
                    "time": 3.8034879999999998,
                    "velocity": 0.3464566929133858,
                    "duration": 0.9508720000000004
                },
                {
                    "name": "C#5",
                    "midi": 73,
                    "time": 3.8034879999999998,
                    "velocity": 0.4094488188976378,
                    "duration": 0.9508720000000004
                },
                {
                    "name": "C5",
                    "midi": 72,
                    "time": 4.75436,
                    "velocity": 0.3700787401574803,
                    "duration": 0.5942949999999998
                },
                {
                    "name": "D#5",
                    "midi": 75,
                    "time": 4.75436,
                    "velocity": 0.4409448818897638,
                    "duration": 0.5942949999999998
                },
                {
                    "name": "F4",
                    "midi": 65,
                    "time": 5.5269435,
                    "velocity": 0.30708661417322836,
                    "duration": 1.723455500000001
                },
                {
                    "name": "G#4",
                    "midi": 68,
                    "time": 5.586373,
                    "velocity": 0.3228346456692913,
                    "duration": 1.6640260000000007
                },
                {
                    "name": "C#5",
                    "midi": 73,
                    "time": 5.6458025,
                    "velocity": 0.36220472440944884,
                    "duration": 1.6045965000000004
                },
                {
                    "name": "F5",
                    "midi": 77,
                    "time": 5.7052320000000005,
                    "velocity": 0.4094488188976378,
                    "duration": 1.5451670000000002
                },
                {
                    "name": "A#3",
                    "midi": 58,
                    "time": 7.488117000000001,
                    "velocity": 0.2755905511811024,
                    "duration": 1.0697310000000009
                },
                {
                    "name": "C#4",
                    "midi": 61,
                    "time": 7.547546500000001,
                    "velocity": 0.31496062992125984,
                    "duration": 1.0103015000000006
                },
                {
                    "name": "D#4",
                    "midi": 63,
                    "time": 7.606976000000001,
                    "velocity": 0.36220472440944884,
                    "duration": 0.9508720000000004
                },
                {
                    "name": "A#4",
                    "midi": 70,
                    "time": 7.606976000000001,
                    "velocity": 0.36220472440944884,
                    "duration": 0.9508720000000004
                },
                {
                    "name": "A4",
                    "midi": 69,
                    "time": 8.557848000000002,
                    "velocity": 0.3858267716535433,
                    "duration": 0.9508720000000004
                },
                {
                    "name": "G#4",
                    "midi": 68,
                    "time": 9.508720000000002,
                    "velocity": 0.4015748031496063,
                    "duration": 2.852616000000001
                },
                {
                    "name": "D#5",
                    "midi": 75,
                    "time": 10.459592000000002,
                    "velocity": 0.4881889763779528,
                    "duration": 0.9508720000000004
                },
                {
                    "name": "C#5",
                    "midi": 73,
                    "time": 11.410464000000003,
                    "velocity": 0.48031496062992124,
                    "duration": 0.9508720000000004
                },
                {
                    "name": "C5",
                    "midi": 72,
                    "time": 12.361336000000003,
                    "velocity": 0.4645669291338583,
                    "duration": 0.7131539999999994
                },
                {
                    "name": "G#4",
                    "midi": 68,
                    "time": 12.361336000000003,
                    "velocity": 0.4094488188976378,
                    "duration": 0.9508720000000004
                },
                {
                    "name": "C#5",
                    "midi": 73,
                    "time": 13.074490000000003,
                    "velocity": 0.4566929133858268,
                    "duration": 0.11885900000000049
                },
                {
                    "name": "C5",
                    "midi": 72,
                    "time": 13.193349000000003,
                    "velocity": 0.41732283464566927,
                    "duration": 0.11885900000000049
                },
                {
                    "name": "F#4",
                    "midi": 66,
                    "time": 13.312208000000004,
                    "velocity": 0.3858267716535433,
                    "duration": 0.9508720000000004
                },
                {
                    "name": "A#4",
                    "midi": 70,
                    "time": 13.312208000000004,
                    "velocity": 0.4330708661417323,
                    "duration": 0.9508720000000004
                },
                {
                    "name": "D4",
                    "midi": 62,
                    "time": 14.263080000000004,
                    "velocity": 0.3858267716535433,
                    "duration": 0.9508720000000004
                },
                {
                    "name": "G#4",
                    "midi": 68,
                    "time": 14.263080000000004,
                    "velocity": 0.4330708661417323,
                    "duration": 0.9508720000000004
                },
                {
                    "name": "D#4",
                    "midi": 63,
                    "time": 15.213952000000004,
                    "velocity": 0.4094488188976378,
                    "duration": 0.9508719999999986
                },
                {
                    "name": "F#4",
                    "midi": 66,
                    "time": 15.213952000000004,
                    "velocity": 0.4645669291338583,
                    "duration": 0.9508719999999986
                },
                {
                    "name": "C4",
                    "midi": 60,
                    "time": 16.164824000000003,
                    "velocity": 0.3858267716535433,
                    "duration": 0.9508720000000004
                },
                {
                    "name": "A#4",
                    "midi": 70,
                    "time": 16.164824000000003,
                    "velocity": 0.4409448818897638,
                    "duration": 0.9508720000000004
                },
                {
                    "name": "C#4",
                    "midi": 61,
                    "time": 17.115696000000003,
                    "velocity": 0.3858267716535433,
                    "duration": 1.9017439999999972
                },
                {
                    "name": "G#4",
                    "midi": 68,
                    "time": 17.115696000000003,
                    "velocity": 0.4409448818897638,
                    "duration": 0.7131539999999994
                },
                {
                    "name": "F#4",
                    "midi": 66,
                    "time": 17.828850000000003,
                    "velocity": 0.3700787401574803,
                    "duration": 0.11885900000000049
                },
                {
                    "name": "G#4",
                    "midi": 68,
                    "time": 17.947709000000003,
                    "velocity": 0.33070866141732286,
                    "duration": 0.11885900000000049
                },
                {
                    "name": "F#4",
                    "midi": 66,
                    "time": 18.066568000000004,
                    "velocity": 0.4330708661417323,
                    "duration": 0.4754359999999984
                },
                {
                    "name": "F4",
                    "midi": 65,
                    "time": 18.542004000000002,
                    "velocity": 0.3700787401574803,
                    "duration": 0.4754359999999984
                },
                {
                    "name": "A#3",
                    "midi": 58,
                    "time": 19.01744,
                    "velocity": 0.3858267716535433,
                    "duration": 0.9508720000000004
                },
                {
                    "name": "C#4",
                    "midi": 61,
                    "time": 19.01744,
                    "velocity": 0.3700787401574803,
                    "duration": 1.9017440000000008
                },
                {
                    "name": "D#4",
                    "midi": 63,
                    "time": 19.01744,
                    "velocity": 0.4094488188976378,
                    "duration": 1.9017440000000008
                },
                {
                    "name": "A3",
                    "midi": 57,
                    "time": 19.968312,
                    "velocity": 0.30708661417322836,
                    "duration": 0.9508720000000004
                },
                {
                    "name": "C4",
                    "midi": 60,
                    "time": 20.919184,
                    "velocity": 0.33070866141732286,
                    "duration": 1.9017440000000008
                },
                {
                    "name": "G#4",
                    "midi": 68,
                    "time": 20.919184,
                    "velocity": 0.3779527559055118,
                    "duration": 1.9017440000000008
                },
                {
                    "name": "C#4",
                    "midi": 61,
                    "time": 22.820928000000002,
                    "velocity": 0.3858267716535433,
                    "duration": 0.9508720000000004
                },
                {
                    "name": "G#4",
                    "midi": 68,
                    "time": 22.820928000000002,
                    "velocity": 0.4409448818897638,
                    "duration": 0.9508720000000004
                },
                {
                    "name": "F5",
                    "midi": 77,
                    "time": 23.771800000000002,
                    "velocity": 0.4645669291338583,
                    "duration": 0.9508720000000004
                },
                {
                    "name": "F4",
                    "midi": 65,
                    "time": 23.771800000000002,
                    "velocity": 0.41732283464566927,
                    "duration": 0.9508720000000004
                },
                {
                    "name": "C#4",
                    "midi": 61,
                    "time": 24.722672000000003,
                    "velocity": 0.4330708661417323,
                    "duration": 1.9017439999999972
                },
                {
                    "name": "D#5",
                    "midi": 75,
                    "time": 24.722672000000003,
                    "velocity": 0.48031496062992124,
                    "duration": 0.7131539999999994
                },
                {
                    "name": "C#5",
                    "midi": 73,
                    "time": 25.435826000000002,
                    "velocity": 0.44881889763779526,
                    "duration": 0.11885900000000049
                },
                {
                    "name": "D#5",
                    "midi": 75,
                    "time": 25.554685000000003,
                    "velocity": 0.4094488188976378,
                    "duration": 0.11885900000000049
                },
                {
                    "name": "C#5",
                    "midi": 73,
                    "time": 25.673544000000003,
                    "velocity": 0.5039370078740157,
                    "duration": 0.4754359999999984
                },
                {
                    "name": "C5",
                    "midi": 72,
                    "time": 26.14898,
                    "velocity": 0.44881889763779526,
                    "duration": 0.4754359999999984
                },
                {
                    "name": "F4",
                    "midi": 65,
                    "time": 26.624416,
                    "velocity": 0.44881889763779526,
                    "duration": 1.9017440000000008
                },
                {
                    "name": "A#4",
                    "midi": 70,
                    "time": 26.624416,
                    "velocity": 0.49606299212598426,
                    "duration": 0.9508720000000004
                },
                {
                    "name": "F4",
                    "midi": 65,
                    "time": 27.575288,
                    "velocity": 0.4409448818897638,
                    "duration": 0.9508720000000004
                },
                {
                    "name": "A#3",
                    "midi": 58,
                    "time": 28.52616,
                    "velocity": 0.4094488188976378,
                    "duration": 1.9017440000000008
                },
                {
                    "name": "F#4",
                    "midi": 66,
                    "time": 28.52616,
                    "velocity": 0.4645669291338583,
                    "duration": 0.9508720000000004
                },
                {
                    "name": "F4",
                    "midi": 65,
                    "time": 29.477032,
                    "velocity": 0.4409448818897638,
                    "duration": 0.9508720000000004
                },
                {
                    "name": "D#4",
                    "midi": 63,
                    "time": 30.427904,
                    "velocity": 0.4645669291338583,
                    "duration": 0.4754359999999984
                },
                {
                    "name": "A#3",
                    "midi": 58,
                    "time": 30.427904,
                    "velocity": 0.4094488188976378,
                    "duration": 2.852615999999994
                },
                {
                    "name": "F4",
                    "midi": 65,
                    "time": 30.90334,
                    "velocity": 0.4409448818897638,
                    "duration": 0.4754359999999984
                },
                {
                    "name": "F#4",
                    "midi": 66,
                    "time": 31.378776,
                    "velocity": 0.4645669291338583,
                    "duration": 0.9508720000000004
                },
                {
                    "name": "D#4",
                    "midi": 63,
                    "time": 32.329648,
                    "velocity": 0.4330708661417323,
                    "duration": 1.9017439999999937
                },
                {
                    "name": "F4",
                    "midi": 65,
                    "time": 32.329648,
                    "velocity": 0.4330708661417323,
                    "duration": 1.9017439999999937
                },
                {
                    "name": "A3",
                    "midi": 57,
                    "time": 33.280519999999996,
                    "velocity": 0.30708661417322836,
                    "duration": 0.9508719999999968
                },
                {
                    "name": "D4",
                    "midi": 62,
                    "time": 34.23139199999999,
                    "velocity": 0.4094488188976378,
                    "duration": 3.8034879999999944
                },
                {
                    "name": "F4",
                    "midi": 65,
                    "time": 34.23139199999999,
                    "velocity": 0.4094488188976378,
                    "duration": 3.8034879999999944
                },
                {
                    "name": "B3",
                    "midi": 59,
                    "time": 35.18226399999999,
                    "velocity": 0.28346456692913385,
                    "duration": 0.9508719999999968
                },
                {
                    "name": "A#3",
                    "midi": 58,
                    "time": 36.133135999999986,
                    "velocity": 0.25984251968503935,
                    "duration": 1.9017440000000008
                },
                {
                    "name": "B4",
                    "midi": 71,
                    "time": 38.03487999999999,
                    "velocity": 0.4881889763779528,
                    "duration": 0.713154000000003
                },
                {
                    "name": "F4",
                    "midi": 65,
                    "time": 38.03487999999999,
                    "velocity": 0.3937007874015748,
                    "duration": 1.9017440000000079
                },
                {
                    "name": "G#4",
                    "midi": 68,
                    "time": 38.03487999999999,
                    "velocity": 0.3937007874015748,
                    "duration": 1.9017440000000079
                },
                {
                    "name": "A#4",
                    "midi": 70,
                    "time": 38.74803399999999,
                    "velocity": 0.44881889763779526,
                    "duration": 0.11885900000000049
                },
                {
                    "name": "B4",
                    "midi": 71,
                    "time": 38.86689299999999,
                    "velocity": 0.4094488188976378,
                    "duration": 0.11885900000000049
                },
                {
                    "name": "A#4",
                    "midi": 70,
                    "time": 38.98575199999999,
                    "velocity": 0.4881889763779528,
                    "duration": 0.47543600000000197
                },
                {
                    "name": "A4",
                    "midi": 69,
                    "time": 39.46118799999999,
                    "velocity": 0.4409448818897638,
                    "duration": 0.47543600000000197
                },
                {
                    "name": "F#4",
                    "midi": 66,
                    "time": 39.936623999999995,
                    "velocity": 0.3937007874015748,
                    "duration": 1.9017440000000079
                },
                {
                    "name": "A#4",
                    "midi": 70,
                    "time": 39.936623999999995,
                    "velocity": 0.4881889763779528,
                    "duration": 0.47543600000000197
                },
                {
                    "name": "D#5",
                    "midi": 75,
                    "time": 40.41206,
                    "velocity": 0.4566929133858268,
                    "duration": 0.47543600000000197
                },
                {
                    "name": "C#5",
                    "midi": 73,
                    "time": 40.887496,
                    "velocity": 0.49606299212598426,
                    "duration": 0.47543600000000197
                },
                {
                    "name": "C5",
                    "midi": 72,
                    "time": 41.362932,
                    "velocity": 0.47244094488188976,
                    "duration": 0.47543600000000197
                },
                {
                    "name": "D#4",
                    "midi": 63,
                    "time": 41.838368,
                    "velocity": 0.4094488188976378,
                    "duration": 1.9017439999999937
                },
                {
                    "name": "F#4",
                    "midi": 66,
                    "time": 41.838368,
                    "velocity": 0.4094488188976378,
                    "duration": 1.9017439999999937
                },
                {
                    "name": "A#4",
                    "midi": 70,
                    "time": 41.838368,
                    "velocity": 0.5039370078740157,
                    "duration": 0.9508719999999968
                },
                {
                    "name": "A4",
                    "midi": 69,
                    "time": 42.78924,
                    "velocity": 0.4645669291338583,
                    "duration": 0.9508719999999968
                },
                {
                    "name": "F4",
                    "midi": 65,
                    "time": 43.740111999999996,
                    "velocity": 0.4094488188976378,
                    "duration": 1.9017439999999937
                },
                {
                    "name": "G#4",
                    "midi": 68,
                    "time": 43.740111999999996,
                    "velocity": 0.5039370078740157,
                    "duration": 0.9508719999999968
                },
                {
                    "name": "C#5",
                    "midi": 73,
                    "time": 44.69098399999999,
                    "velocity": 0.5196850393700787,
                    "duration": 0.9508719999999968
                },
                {
                    "name": "F4",
                    "midi": 65,
                    "time": 45.64185599999999,
                    "velocity": 0.4094488188976378,
                    "duration": 1.9017440000000079
                },
                {
                    "name": "G#4",
                    "midi": 68,
                    "time": 45.64185599999999,
                    "velocity": 0.4094488188976378,
                    "duration": 1.9017440000000079
                },
                {
                    "name": "B4",
                    "midi": 71,
                    "time": 45.64185599999999,
                    "velocity": 0.5039370078740157,
                    "duration": 0.713154000000003
                },
                {
                    "name": "A#4",
                    "midi": 70,
                    "time": 46.35500999999999,
                    "velocity": 0.4409448818897638,
                    "duration": 0.11885900000000049
                },
                {
                    "name": "B4",
                    "midi": 71,
                    "time": 46.47386899999999,
                    "velocity": 0.44881889763779526,
                    "duration": 0.11885900000000049
                },
                {
                    "name": "A#4",
                    "midi": 70,
                    "time": 46.592727999999994,
                    "velocity": 0.4645669291338583,
                    "duration": 0.47543600000000197
                },
                {
                    "name": "A4",
                    "midi": 69,
                    "time": 47.068163999999996,
                    "velocity": 0.44881889763779526,
                    "duration": 0.47543600000000197
                },
                {
                    "name": "F#4",
                    "midi": 66,
                    "time": 47.5436,
                    "velocity": 0.3937007874015748,
                    "duration": 1.9017440000000079
                },
                {
                    "name": "A#4",
                    "midi": 70,
                    "time": 47.5436,
                    "velocity": 0.4881889763779528,
                    "duration": 0.19809833333333415
                },
                {
                    "name": "D#5",
                    "midi": 75,
                    "time": 47.86055733333333,
                    "velocity": 0.49606299212598426,
                    "duration": 0.19809833333333415
                },
                {
                    "name": "D5",
                    "midi": 74,
                    "time": 48.17751466666667,
                    "velocity": 0.4566929133858268,
                    "duration": 0.19809833333333415
                },
                {
                    "name": "C#5",
                    "midi": 73,
                    "time": 48.494472,
                    "velocity": 0.49606299212598426,
                    "duration": 0.19809833333333415
                },
                {
                    "name": "C5",
                    "midi": 72,
                    "time": 48.811429333333336,
                    "velocity": 0.48031496062992124,
                    "duration": 0.19809833333333415
                },
                {
                    "name": "B4",
                    "midi": 71,
                    "time": 49.12838666666667,
                    "velocity": 0.4566929133858268,
                    "duration": 0.19809833333333415
                },
                {
                    "name": "D#4",
                    "midi": 63,
                    "time": 49.445344000000006,
                    "velocity": 0.3700787401574803,
                    "duration": 1.9017439999999937
                },
                {
                    "name": "F#4",
                    "midi": 66,
                    "time": 49.445344000000006,
                    "velocity": 0.3700787401574803,
                    "duration": 1.9017439999999937
                },
                {
                    "name": "A#4",
                    "midi": 70,
                    "time": 49.445344000000006,
                    "velocity": 0.5039370078740157,
                    "duration": 0.9508719999999968
                },
                {
                    "name": "A4",
                    "midi": 69,
                    "time": 50.396216,
                    "velocity": 0.48031496062992124,
                    "duration": 0.9508719999999968
                },
                {
                    "name": "F4",
                    "midi": 65,
                    "time": 51.347088,
                    "velocity": 0.4094488188976378,
                    "duration": 1.9017439999999937
                },
                {
                    "name": "G#4",
                    "midi": 68,
                    "time": 51.347088,
                    "velocity": 0.5039370078740157,
                    "duration": 0.9508719999999968
                },
                {
                    "name": "F5",
                    "midi": 77,
                    "time": 52.297959999999996,
                    "velocity": 0.5275590551181102,
                    "duration": 0.9508719999999968
                },
                {
                    "name": "D#5",
                    "midi": 75,
                    "time": 53.24883199999999,
                    "velocity": 0.5590551181102362,
                    "duration": 0.713154000000003
                },
                {
                    "name": "F#4",
                    "midi": 66,
                    "time": 53.24883199999999,
                    "velocity": 0.49606299212598426,
                    "duration": 1.9017440000000079
                },
                {
                    "name": "C#5",
                    "midi": 73,
                    "time": 53.961985999999996,
                    "velocity": 0.5275590551181102,
                    "duration": 0.11885900000000049
                },
                {
                    "name": "D#5",
                    "midi": 75,
                    "time": 54.080845,
                    "velocity": 0.48031496062992124,
                    "duration": 0.11885900000000049
                },
                {
                    "name": "C#5",
                    "midi": 73,
                    "time": 54.199704,
                    "velocity": 0.5590551181102362,
                    "duration": 0.47543600000000197
                },
                {
                    "name": "C5",
                    "midi": 72,
                    "time": 54.67514,
                    "velocity": 0.5039370078740157,
                    "duration": 0.47543600000000197
                },
                {
                    "name": "F4",
                    "midi": 65,
                    "time": 55.150576,
                    "velocity": 0.4881889763779528,
                    "duration": 0.9508719999999968
                },
                {
                    "name": "A#4",
                    "midi": 70,
                    "time": 55.150576,
                    "velocity": 0.5511811023622047,
                    "duration": 0.9508719999999968
                },
                {
                    "name": "F4",
                    "midi": 65,
                    "time": 56.101448,
                    "velocity": 0.5039370078740157,
                    "duration": 0.9508719999999968
                },
                {
                    "name": "F4",
                    "midi": 65,
                    "time": 57.052319999999995,
                    "velocity": 0.4645669291338583,
                    "duration": 1.9017439999999937
                },
                {
                    "name": "A4",
                    "midi": 69,
                    "time": 57.052319999999995,
                    "velocity": 0.5275590551181102,
                    "duration": 1.9017439999999937
                },
                {
                    "name": "C#4",
                    "midi": 61,
                    "time": 58.00319199999999,
                    "velocity": 0.44881889763779526,
                    "duration": 0.9508719999999968
                },
                {
                    "name": "A#3",
                    "midi": 58,
                    "time": 58.83520499999999,
                    "velocity": 0.4015748031496063,
                    "duration": 1.0697309999999973
                },
                {
                    "name": "C#4",
                    "midi": 61,
                    "time": 58.89463449999999,
                    "velocity": 0.4409448818897638,
                    "duration": 1.010301499999997
                },
                {
                    "name": "D#4",
                    "midi": 63,
                    "time": 58.95406399999999,
                    "velocity": 0.47244094488188976,
                    "duration": 0.9508719999999968
                },
                {
                    "name": "A#4",
                    "midi": 70,
                    "time": 58.95406399999999,
                    "velocity": 0.47244094488188976,
                    "duration": 1.4263079999999988
                },
                {
                    "name": "D4",
                    "midi": 62,
                    "time": 60.38037199999999,
                    "velocity": 0.48031496062992124,
                    "duration": 0.3565770000000015
                },
                {
                    "name": "D#4",
                    "midi": 63,
                    "time": 60.61808999999999,
                    "velocity": 0.4881889763779528,
                    "duration": 0.11885900000000049
                },
                {
                    "name": "F4",
                    "midi": 65,
                    "time": 60.73694899999999,
                    "velocity": 0.4645669291338583,
                    "duration": 0.11885900000000049
                },
                {
                    "name": "D#4",
                    "midi": 63,
                    "time": 60.85580799999999,
                    "velocity": 0.5196850393700787,
                    "duration": 0.47543600000000197
                },
                {
                    "name": "D4",
                    "midi": 62,
                    "time": 61.33124399999999,
                    "velocity": 0.49606299212598426,
                    "duration": 0.47543600000000197
                },
                {
                    "name": "D#4",
                    "midi": 63,
                    "time": 61.80667999999999,
                    "velocity": 0.5275590551181102,
                    "duration": 1.4263079999999988
                },
                {
                    "name": "D4",
                    "midi": 62,
                    "time": 63.23298799999999,
                    "velocity": 0.44881889763779526,
                    "duration": 0.47543600000000197
                },
                {
                    "name": "D#4",
                    "midi": 63,
                    "time": 63.708423999999994,
                    "velocity": 0.48031496062992124,
                    "duration": 0.47543600000000197
                },
                {
                    "name": "F4",
                    "midi": 65,
                    "time": 64.18386,
                    "velocity": 0.4409448818897638,
                    "duration": 0.47543600000000197
                },
                {
                    "name": "C#4",
                    "midi": 61,
                    "time": 64.659296,
                    "velocity": 0.4409448818897638,
                    "duration": 0.9508720000000039
                },
                {
                    "name": "F#4",
                    "midi": 66,
                    "time": 64.659296,
                    "velocity": 0.4881889763779528,
                    "duration": 0.9508720000000039
                },
                {
                    "name": "F4",
                    "midi": 65,
                    "time": 65.610168,
                    "velocity": 0.4566929133858268,
                    "duration": 0.9508720000000039
                },
                {
                    "name": "C4",
                    "midi": 60,
                    "time": 65.610168,
                    "velocity": 0.4015748031496063,
                    "duration": 0.9508720000000039
                },
                {
                    "name": "G#3",
                    "midi": 56,
                    "time": 66.56104,
                    "velocity": 0.3700787401574803,
                    "duration": 1.9017439999999937
                },
                {
                    "name": "C#4",
                    "midi": 61,
                    "time": 66.56104,
                    "velocity": 0.4094488188976378,
                    "duration": 1.9017439999999937
                },
                {
                    "name": "A#3",
                    "midi": 58,
                    "time": 68.462784,
                    "velocity": 0.3700787401574803,
                    "duration": 0.47543600000000197
                },
                {
                    "name": "D#4",
                    "midi": 63,
                    "time": 68.462784,
                    "velocity": 0.4015748031496063,
                    "duration": 1.9017440000000079
                },
                {
                    "name": "F#4",
                    "midi": 66,
                    "time": 68.462784,
                    "velocity": 0.4015748031496063,
                    "duration": 1.9017440000000079
                },
                {
                    "name": "A3",
                    "midi": 57,
                    "time": 68.93822,
                    "velocity": 0.3228346456692913,
                    "duration": 0.47543600000000197
                },
                {
                    "name": "A#3",
                    "midi": 58,
                    "time": 69.413656,
                    "velocity": 0.36220472440944884,
                    "duration": 0.47543600000000197
                },
                {
                    "name": "A3",
                    "midi": 57,
                    "time": 69.889092,
                    "velocity": 0.30708661417322836,
                    "duration": 0.47543600000000197
                },
                {
                    "name": "G#3",
                    "midi": 56,
                    "time": 70.364528,
                    "velocity": 0.3543307086614173,
                    "duration": 0.47543600000000197
                },
                {
                    "name": "C#4",
                    "midi": 61,
                    "time": 70.364528,
                    "velocity": 0.3858267716535433,
                    "duration": 1.9017440000000079
                },
                {
                    "name": "F4",
                    "midi": 65,
                    "time": 70.364528,
                    "velocity": 0.3858267716535433,
                    "duration": 1.9017440000000079
                },
                {
                    "name": "G3",
                    "midi": 55,
                    "time": 70.83996400000001,
                    "velocity": 0.30708661417322836,
                    "duration": 0.47543600000000197
                },
                {
                    "name": "G#3",
                    "midi": 56,
                    "time": 71.31540000000001,
                    "velocity": 0.33070866141732286,
                    "duration": 0.9508720000000039
                },
                {
                    "name": "A#3",
                    "midi": 58,
                    "time": 72.26627200000001,
                    "velocity": 0.3700787401574803,
                    "duration": 0.47543600000000197
                },
                {
                    "name": "D#4",
                    "midi": 63,
                    "time": 72.26627200000001,
                    "velocity": 0.4015748031496063,
                    "duration": 1.9017440000000079
                },
                {
                    "name": "F#4",
                    "midi": 66,
                    "time": 72.26627200000001,
                    "velocity": 0.4015748031496063,
                    "duration": 1.9017440000000079
                },
                {
                    "name": "A3",
                    "midi": 57,
                    "time": 72.74170800000002,
                    "velocity": 0.3228346456692913,
                    "duration": 0.47543600000000197
                },
                {
                    "name": "A#3",
                    "midi": 58,
                    "time": 73.21714400000002,
                    "velocity": 0.36220472440944884,
                    "duration": 0.47543600000000197
                },
                {
                    "name": "A3",
                    "midi": 57,
                    "time": 73.69258000000002,
                    "velocity": 0.30708661417322836,
                    "duration": 0.47543600000000197
                },
                {
                    "name": "G#3",
                    "midi": 56,
                    "time": 74.16801600000002,
                    "velocity": 0.3543307086614173,
                    "duration": 0.47543600000000197
                },
                {
                    "name": "C#4",
                    "midi": 61,
                    "time": 74.16801600000002,
                    "velocity": 0.3858267716535433,
                    "duration": 1.9017440000000079
                },
                {
                    "name": "F4",
                    "midi": 65,
                    "time": 74.16801600000002,
                    "velocity": 0.3858267716535433,
                    "duration": 1.9017440000000079
                },
                {
                    "name": "G3",
                    "midi": 55,
                    "time": 74.64345200000002,
                    "velocity": 0.30708661417322836,
                    "duration": 0.47543600000000197
                },
                {
                    "name": "G#3",
                    "midi": 56,
                    "time": 75.11888800000003,
                    "velocity": 0.33070866141732286,
                    "duration": 0.9508720000000039
                },
                {
                    "name": "A#3",
                    "midi": 58,
                    "time": 76.06976000000003,
                    "velocity": 0.3858267716535433,
                    "duration": 1.9017440000000079
                },
                {
                    "name": "D#4",
                    "midi": 63,
                    "time": 76.06976000000003,
                    "velocity": 0.3858267716535433,
                    "duration": 1.9017440000000079
                },
                {
                    "name": "G3",
                    "midi": 55,
                    "time": 76.06976000000003,
                    "velocity": 0.3543307086614173,
                    "duration": 0.47543600000000197
                },
                {
                    "name": "F#3",
                    "midi": 54,
                    "time": 76.5669868166667,
                    "velocity": 0.30708661417322836,
                    "duration": 0.47543600000000197
                },
                {
                    "name": "G3",
                    "midi": 55,
                    "time": 77.02063200000003,
                    "velocity": 0.33070866141732286,
                    "duration": 0.9508720000000039
                },
                {
                    "name": "F#3",
                    "midi": 54,
                    "time": 77.97150400000004,
                    "velocity": 0.3543307086614173,
                    "duration": 0.47543600000000197
                },
                {
                    "name": "A#3",
                    "midi": 58,
                    "time": 77.97150400000004,
                    "velocity": 0.3858267716535433,
                    "duration": 1.9017440000000079
                },
                {
                    "name": "D#4",
                    "midi": 63,
                    "time": 77.97150400000004,
                    "velocity": 0.3858267716535433,
                    "duration": 1.9017440000000079
                },
                {
                    "name": "F3",
                    "midi": 53,
                    "time": 78.44694000000004,
                    "velocity": 0.30708661417322836,
                    "duration": 0.47543600000000197
                },
                {
                    "name": "F#3",
                    "midi": 54,
                    "time": 78.92237600000004,
                    "velocity": 0.33070866141732286,
                    "duration": 0.9508720000000039
                },
                {
                    "name": "F#3",
                    "midi": 54,
                    "time": 79.87324800000005,
                    "velocity": 0.33070866141732286,
                    "duration": 1.9017440000000079
                },
                {
                    "name": "A#3",
                    "midi": 58,
                    "time": 79.87324800000005,
                    "velocity": 0.3779527559055118,
                    "duration": 1.9017440000000079
                },
                {
                    "name": "F4",
                    "midi": 65,
                    "time": 79.87324800000005,
                    "velocity": 0.3779527559055118,
                    "duration": 0.9508720000000039
                },
                {
                    "name": "C4",
                    "midi": 60,
                    "time": 80.82412000000005,
                    "velocity": 0.33070866141732286,
                    "duration": 0.9508720000000039
                },
                {
                    "name": "F3",
                    "midi": 53,
                    "time": 81.77499200000005,
                    "velocity": 0.2677165354330709,
                    "duration": 1.9017439999999937
                },
                {
                    "name": "G#3",
                    "midi": 56,
                    "time": 81.77499200000005,
                    "velocity": 0.2677165354330709,
                    "duration": 1.9017439999999937
                },
                {
                    "name": "C#4",
                    "midi": 61,
                    "time": 81.77499200000005,
                    "velocity": 0.2992125984251969,
                    "duration": 1.9017439999999937
                },
                {
                    "name": "F#4",
                    "midi": 66,
                    "time": 83.67673600000005,
                    "velocity": 0.36220472440944884,
                    "duration": 0.9508720000000039
                },
                {
                    "name": "A#4",
                    "midi": 70,
                    "time": 83.67673600000005,
                    "velocity": 0.36220472440944884,
                    "duration": 0.9508720000000039
                },
                {
                    "name": "C#5",
                    "midi": 73,
                    "time": 83.67673600000005,
                    "velocity": 0.4330708661417323,
                    "duration": 0.9508720000000039
                },
                {
                    "name": "C#4",
                    "midi": 61,
                    "time": 84.62760800000005,
                    "velocity": 0.2755905511811024,
                    "duration": 0.9508720000000039
                },
                {
                    "name": "F#4",
                    "midi": 66,
                    "time": 85.57848000000006,
                    "velocity": 0.36220472440944884,
                    "duration": 0.9508720000000039
                },
                {
                    "name": "A#4",
                    "midi": 70,
                    "time": 85.57848000000006,
                    "velocity": 0.36220472440944884,
                    "duration": 0.9508720000000039
                },
                {
                    "name": "C#5",
                    "midi": 73,
                    "time": 85.57848000000006,
                    "velocity": 0.4330708661417323,
                    "duration": 0.9508720000000039
                },
                {
                    "name": "C#4",
                    "midi": 61,
                    "time": 86.52935200000006,
                    "velocity": 0.2755905511811024,
                    "duration": 2.4960390000000103
                },
                {
                    "name": "C#5",
                    "midi": 73,
                    "time": 87.48022400000006,
                    "velocity": 0.4094488188976378,
                    "duration": 0.9508720000000039
                },
                {
                    "name": "F#4",
                    "midi": 66,
                    "time": 87.48022400000006,
                    "velocity": 0.3464566929133858,
                    "duration": 1.5451670000000064
                },
                {
                    "name": "A#4",
                    "midi": 70,
                    "time": 87.48022400000006,
                    "velocity": 0.3464566929133858,
                    "duration": 0.9508720000000039
                },
                {
                    "name": "C5",
                    "midi": 72,
                    "time": 88.43109600000007,
                    "velocity": 0.3700787401574803,
                    "duration": 0.5942950000000025
                },
                {
                    "name": "D#5",
                    "midi": 75,
                    "time": 88.43109600000007,
                    "velocity": 0.4409448818897638,
                    "duration": 0.5942950000000025
                },
                {
                    "name": "F4",
                    "midi": 65,
                    "time": 89.20367950000006,
                    "velocity": 0.30708661417322836,
                    "duration": 2.080032499999973
                },
                {
                    "name": "G#4",
                    "midi": 68,
                    "time": 89.26310900000006,
                    "velocity": 0.3228346456692913,
                    "duration": 2.02060299999998
                },
                {
                    "name": "C#5",
                    "midi": 73,
                    "time": 89.32253850000005,
                    "velocity": 0.36220472440944884,
                    "duration": 1.9611734999999868
                },
                {
                    "name": "F5",
                    "midi": 77,
                    "time": 89.38196800000004,
                    "velocity": 0.4094488188976378,
                    "duration": 1.9017439999999937
                },
                {
                    "name": "G#4",
                    "midi": 68,
                    "time": 94.13632800000003,
                    "velocity": 0.28346456692913385,
                    "duration": 0.47543600000000197
                },
                {
                    "name": "C#5",
                    "midi": 73,
                    "time": 95.08720000000004,
                    "velocity": 0.28346456692913385,
                    "duration": 0.47543600000000197
                },
                {
                    "name": "G#5",
                    "midi": 80,
                    "time": 96.03807200000004,
                    "velocity": 0.29133858267716534,
                    "duration": 3.8034880000000015
                }
            ],
            "controlChanges": {
                "7": [
                    {
                        "number": 7,
                        "time": 0,
                        "value": 0.7874015748031497
                    }
                ],
                "91": [
                    {
                        "number": 91,
                        "time": 0,
                        "value": 1
                    }
                ]
            },
            "id": 1,
            "name": "Piano right",
            "instrumentNumber": 0,
            "instrument": "acoustic grand piano",
            "instrumentFamily": "piano",
            "channelNumber": 0,
            "isPercussion": false
        },
        {
            "startTime": 0,
            "duration": 93.66089199999999,
            "length": 121,
            "notes": [
                {
                    "name": "D#4",
                    "midi": 63,
                    "time": 0,
                    "velocity": 0.3543307086614173,
                    "duration": 0.9508719999999999
                },
                {
                    "name": "A#3",
                    "midi": 58,
                    "time": 0,
                    "velocity": 0.29133858267716534,
                    "duration": 0.9508719999999999
                },
                {
                    "name": "F#3",
                    "midi": 54,
                    "time": 0,
                    "velocity": 0.29133858267716534,
                    "duration": 0.9508719999999999
                },
                {
                    "name": "C#3",
                    "midi": 49,
                    "time": 0.9508719999999999,
                    "velocity": 0.2125984251968504,
                    "duration": 0.9508719999999999
                },
                {
                    "name": "F#3",
                    "midi": 54,
                    "time": 1.9017439999999999,
                    "velocity": 0.29133858267716534,
                    "duration": 0.9508719999999999
                },
                {
                    "name": "A#3",
                    "midi": 58,
                    "time": 1.9017439999999999,
                    "velocity": 0.29133858267716534,
                    "duration": 0.9508719999999999
                },
                {
                    "name": "D#4",
                    "midi": 63,
                    "time": 1.9017439999999999,
                    "velocity": 0.3464566929133858,
                    "duration": 0.9508719999999999
                },
                {
                    "name": "C#3",
                    "midi": 49,
                    "time": 2.852616,
                    "velocity": 0.2047244094488189,
                    "duration": 2.496039
                },
                {
                    "name": "A#3",
                    "midi": 58,
                    "time": 3.8034879999999998,
                    "velocity": 0.3543307086614173,
                    "duration": 0.9508720000000004
                },
                {
                    "name": "A3",
                    "midi": 57,
                    "time": 4.75436,
                    "velocity": 0.3779527559055118,
                    "duration": 0.5942949999999998
                },
                {
                    "name": "C#3",
                    "midi": 49,
                    "time": 5.348655,
                    "velocity": 0.2677165354330709,
                    "duration": 1.9017440000000017
                },
                {
                    "name": "G#3",
                    "midi": 56,
                    "time": 5.4080845,
                    "velocity": 0.28346456692913385,
                    "duration": 1.8423145000000014
                },
                {
                    "name": "C#4",
                    "midi": 61,
                    "time": 5.467514,
                    "velocity": 0.2992125984251969,
                    "duration": 1.7828850000000012
                },
                {
                    "name": "C#2",
                    "midi": 37,
                    "time": 6.656104000000001,
                    "velocity": 0.2992125984251969,
                    "duration": 0.5942950000000007
                },
                {
                    "name": "F#2",
                    "midi": 42,
                    "time": 7.250399000000002,
                    "velocity": 0.2047244094488189,
                    "duration": 1.307449
                },
                {
                    "name": "C#3",
                    "midi": 49,
                    "time": 7.309828500000002,
                    "velocity": 0.2283464566929134,
                    "duration": 1.2480194999999998
                },
                {
                    "name": "D#3",
                    "midi": 51,
                    "time": 7.369258000000002,
                    "velocity": 0.25984251968503935,
                    "duration": 1.1885899999999996
                },
                {
                    "name": "F#3",
                    "midi": 54,
                    "time": 7.428687500000002,
                    "velocity": 0.2755905511811024,
                    "duration": 1.1291604999999993
                },
                {
                    "name": "C#4",
                    "midi": 61,
                    "time": 8.557848000000002,
                    "velocity": 0.30708661417322836,
                    "duration": 0.9508720000000004
                },
                {
                    "name": "C4",
                    "midi": 60,
                    "time": 9.508720000000002,
                    "velocity": 0.29133858267716534,
                    "duration": 1.901743999999999
                },
                {
                    "name": "F#3",
                    "midi": 54,
                    "time": 10.459592,
                    "velocity": 0.3228346456692913,
                    "duration": 0.9508720000000004
                },
                {
                    "name": "C#4",
                    "midi": 61,
                    "time": 11.410464000000001,
                    "velocity": 0.3858267716535433,
                    "duration": 0.9508720000000004
                },
                {
                    "name": "F3",
                    "midi": 53,
                    "time": 11.410464000000001,
                    "velocity": 0.3464566929133858,
                    "duration": 1.9017440000000008
                },
                {
                    "name": "C#4",
                    "midi": 61,
                    "time": 12.361336000000001,
                    "velocity": 0.3228346456692913,
                    "duration": 1.9017440000000008
                },
                {
                    "name": "F#3",
                    "midi": 54,
                    "time": 13.312208000000002,
                    "velocity": 0.3543307086614173,
                    "duration": 0.9508720000000004
                },
                {
                    "name": "F3",
                    "midi": 53,
                    "time": 14.263080000000002,
                    "velocity": 0.28346456692913385,
                    "duration": 0.9508720000000022
                },
                {
                    "name": "A#3",
                    "midi": 58,
                    "time": 14.263080000000002,
                    "velocity": 0.31496062992125984,
                    "duration": 0.9508720000000022
                },
                {
                    "name": "D#3",
                    "midi": 51,
                    "time": 15.213952000000004,
                    "velocity": 0.33070866141732286,
                    "duration": 1.901743999999999
                },
                {
                    "name": "A#3",
                    "midi": 58,
                    "time": 15.213952000000004,
                    "velocity": 0.3779527559055118,
                    "duration": 0.9508719999999986
                },
                {
                    "name": "F#3",
                    "midi": 54,
                    "time": 16.164824000000003,
                    "velocity": 0.3228346456692913,
                    "duration": 0.9508720000000004
                },
                {
                    "name": "F3",
                    "midi": 53,
                    "time": 17.115696000000003,
                    "velocity": 0.31496062992125984,
                    "duration": 0.9508720000000004
                },
                {
                    "name": "G#3",
                    "midi": 56,
                    "time": 17.115696000000003,
                    "velocity": 0.36220472440944884,
                    "duration": 1.9017440000000008
                },
                {
                    "name": "C#3",
                    "midi": 49,
                    "time": 18.066568000000004,
                    "velocity": 0.28346456692913385,
                    "duration": 0.9508720000000004
                },
                {
                    "name": "F#2",
                    "midi": 42,
                    "time": 19.017440000000004,
                    "velocity": 0.3543307086614173,
                    "duration": 1.9017439999999972
                },
                {
                    "name": "G#2",
                    "midi": 44,
                    "time": 20.919184,
                    "velocity": 0.2755905511811024,
                    "duration": 1.9017440000000008
                },
                {
                    "name": "G#3",
                    "midi": 56,
                    "time": 20.919184,
                    "velocity": 0.30708661417322836,
                    "duration": 0.9508720000000004
                },
                {
                    "name": "F#3",
                    "midi": 54,
                    "time": 21.870056,
                    "velocity": 0.25984251968503935,
                    "duration": 0.9508720000000004
                },
                {
                    "name": "C#3",
                    "midi": 49,
                    "time": 22.820928000000002,
                    "velocity": 0.28346456692913385,
                    "duration": 2.852616000000001
                },
                {
                    "name": "F3",
                    "midi": 53,
                    "time": 22.820928000000002,
                    "velocity": 0.3543307086614173,
                    "duration": 0.9508720000000004
                },
                {
                    "name": "G#3",
                    "midi": 56,
                    "time": 23.771800000000002,
                    "velocity": 0.3228346456692913,
                    "duration": 0.9508720000000004
                },
                {
                    "name": "A3",
                    "midi": 57,
                    "time": 24.722672000000003,
                    "velocity": 0.36220472440944884,
                    "duration": 1.9017440000000008
                },
                {
                    "name": "C#3",
                    "midi": 49,
                    "time": 25.673544000000003,
                    "velocity": 0.2440944881889764,
                    "duration": 1.9017440000000008
                },
                {
                    "name": "A#3",
                    "midi": 58,
                    "time": 26.624416000000004,
                    "velocity": 0.3228346456692913,
                    "duration": 1.9017439999999972
                },
                {
                    "name": "C#3",
                    "midi": 49,
                    "time": 27.575288000000004,
                    "velocity": 0.29133858267716534,
                    "duration": 0.9508719999999968
                },
                {
                    "name": "D#3",
                    "midi": 51,
                    "time": 28.52616,
                    "velocity": 0.31496062992125984,
                    "duration": 0.9508719999999968
                },
                {
                    "name": "C#3",
                    "midi": 49,
                    "time": 29.477031999999998,
                    "velocity": 0.2440944881889764,
                    "duration": 0.9508719999999968
                },
                {
                    "name": "F3",
                    "midi": 53,
                    "time": 29.477031999999998,
                    "velocity": 0.28346456692913385,
                    "duration": 0.9508719999999968
                },
                {
                    "name": "F#3",
                    "midi": 54,
                    "time": 30.427903999999995,
                    "velocity": 0.36220472440944884,
                    "duration": 0.47543600000000197
                },
                {
                    "name": "C3",
                    "midi": 48,
                    "time": 30.427903999999995,
                    "velocity": 0.31496062992125984,
                    "duration": 1.9017439999999972
                },
                {
                    "name": "F3",
                    "midi": 53,
                    "time": 30.903339999999996,
                    "velocity": 0.29133858267716534,
                    "duration": 0.4754359999999984
                },
                {
                    "name": "D#3",
                    "midi": 51,
                    "time": 31.378775999999995,
                    "velocity": 0.33070866141732286,
                    "duration": 0.9508719999999968
                },
                {
                    "name": "F3",
                    "midi": 53,
                    "time": 32.32964799999999,
                    "velocity": 0.36220472440944884,
                    "duration": 0.9508720000000039
                },
                {
                    "name": "F2",
                    "midi": 41,
                    "time": 33.280519999999996,
                    "velocity": 0.30708661417322836,
                    "duration": 0.9508719999999968
                },
                {
                    "name": "A#1",
                    "midi": 34,
                    "time": 34.23139199999999,
                    "velocity": 0.30708661417322836,
                    "duration": 2.8526160000000047
                },
                {
                    "name": "A#2",
                    "midi": 46,
                    "time": 37.084008,
                    "velocity": 0.2125984251968504,
                    "duration": 0.9508719999999968
                },
                {
                    "name": "D4",
                    "midi": 62,
                    "time": 38.034879999999994,
                    "velocity": 0.36220472440944884,
                    "duration": 1.9017439999999937
                },
                {
                    "name": "C#3",
                    "midi": 49,
                    "time": 38.98575199999999,
                    "velocity": 0.2992125984251969,
                    "duration": 1.9017439999999937
                },
                {
                    "name": "D#4",
                    "midi": 63,
                    "time": 39.93662399999999,
                    "velocity": 0.36220472440944884,
                    "duration": 1.9017440000000008
                },
                {
                    "name": "C#3",
                    "midi": 49,
                    "time": 40.887495999999985,
                    "velocity": 0.2992125984251969,
                    "duration": 1.9017440000000079
                },
                {
                    "name": "C4",
                    "midi": 60,
                    "time": 41.83836799999999,
                    "velocity": 0.36220472440944884,
                    "duration": 1.9017440000000079
                },
                {
                    "name": "C#3",
                    "midi": 49,
                    "time": 42.78923999999999,
                    "velocity": 0.2677165354330709,
                    "duration": 1.9017440000000079
                },
                {
                    "name": "C#4",
                    "midi": 61,
                    "time": 43.740111999999996,
                    "velocity": 0.36220472440944884,
                    "duration": 1.9017440000000079
                },
                {
                    "name": "C#3",
                    "midi": 49,
                    "time": 44.690984,
                    "velocity": 0.29133858267716534,
                    "duration": 1.9017440000000008
                },
                {
                    "name": "D4",
                    "midi": 62,
                    "time": 45.641856000000004,
                    "velocity": 0.36220472440944884,
                    "duration": 1.9017439999999937
                },
                {
                    "name": "C#3",
                    "midi": 49,
                    "time": 46.592728,
                    "velocity": 0.29133858267716534,
                    "duration": 1.9017439999999937
                },
                {
                    "name": "D#4",
                    "midi": 63,
                    "time": 47.5436,
                    "velocity": 0.36220472440944884,
                    "duration": 1.9017439999999937
                },
                {
                    "name": "C#3",
                    "midi": 49,
                    "time": 48.494471999999995,
                    "velocity": 0.30708661417322836,
                    "duration": 0.9508719999999968
                },
                {
                    "name": "C#3",
                    "midi": 49,
                    "time": 49.44534399999999,
                    "velocity": 0.31496062992125984,
                    "duration": 0.9508720000000039
                },
                {
                    "name": "C4",
                    "midi": 60,
                    "time": 49.44534399999999,
                    "velocity": 0.31496062992125984,
                    "duration": 1.9017440000000079
                },
                {
                    "name": "C#3",
                    "midi": 49,
                    "time": 50.396215999999995,
                    "velocity": 0.29133858267716534,
                    "duration": 3.8034880000000086
                },
                {
                    "name": "C#4",
                    "midi": 61,
                    "time": 51.347088,
                    "velocity": 0.30708661417322836,
                    "duration": 0.9508719999999968
                },
                {
                    "name": "G#3",
                    "midi": 56,
                    "time": 52.297959999999996,
                    "velocity": 0.33070866141732286,
                    "duration": 0.9508720000000039
                },
                {
                    "name": "A3",
                    "midi": 57,
                    "time": 53.248832,
                    "velocity": 0.3858267716535433,
                    "duration": 1.9017440000000008
                },
                {
                    "name": "C#3",
                    "midi": 49,
                    "time": 54.199704000000004,
                    "velocity": 0.31496062992125984,
                    "duration": 1.9017440000000008
                },
                {
                    "name": "A#3",
                    "midi": 58,
                    "time": 55.150576,
                    "velocity": 0.36220472440944884,
                    "duration": 1.9017440000000008
                },
                {
                    "name": "C#3",
                    "midi": 49,
                    "time": 56.101448000000005,
                    "velocity": 0.31496062992125984,
                    "duration": 1.9017440000000008
                },
                {
                    "name": "B3",
                    "midi": 59,
                    "time": 57.05232,
                    "velocity": 0.4094488188976378,
                    "duration": 1.5451670000000064
                },
                {
                    "name": "C#3",
                    "midi": 49,
                    "time": 58.003192000000006,
                    "velocity": 0.3228346456692913,
                    "duration": 0.5942950000000025
                },
                {
                    "name": "F#2",
                    "midi": 42,
                    "time": 58.59748700000001,
                    "velocity": 0.29133858267716534,
                    "duration": 0.3565770000000015
                },
                {
                    "name": "C#3",
                    "midi": 49,
                    "time": 58.65691650000001,
                    "velocity": 0.31496062992125984,
                    "duration": 1.248019499999998
                },
                {
                    "name": "D#3",
                    "midi": 51,
                    "time": 58.71634600000001,
                    "velocity": 0.3464566929133858,
                    "duration": 1.1885899999999978
                },
                {
                    "name": "F#3",
                    "midi": 54,
                    "time": 58.77577550000001,
                    "velocity": 0.36220472440944884,
                    "duration": 1.1291604999999976
                },
                {
                    "name": "C#3",
                    "midi": 49,
                    "time": 59.904936000000006,
                    "velocity": 0.3858267716535433,
                    "duration": 1.9017440000000008
                },
                {
                    "name": "C#4",
                    "midi": 61,
                    "time": 59.904936000000006,
                    "velocity": 0.3858267716535433,
                    "duration": 1.9017440000000008
                },
                {
                    "name": "A#2",
                    "midi": 46,
                    "time": 60.85580800000001,
                    "velocity": 0.3464566929133858,
                    "duration": 1.9017440000000008
                },
                {
                    "name": "C#3",
                    "midi": 49,
                    "time": 61.80668000000001,
                    "velocity": 0.3937007874015748,
                    "duration": 1.9017440000000008
                },
                {
                    "name": "C#4",
                    "midi": 61,
                    "time": 61.80668000000001,
                    "velocity": 0.3937007874015748,
                    "duration": 1.9017440000000008
                },
                {
                    "name": "A2",
                    "midi": 45,
                    "time": 62.75755200000001,
                    "velocity": 0.36220472440944884,
                    "duration": 1.9017439999999866
                },
                {
                    "name": "C#3",
                    "midi": 49,
                    "time": 63.70842400000001,
                    "velocity": 0.3937007874015748,
                    "duration": 0.9508719999999897
                },
                {
                    "name": "C#4",
                    "midi": 61,
                    "time": 63.70842400000001,
                    "velocity": 0.3937007874015748,
                    "duration": 0.9508719999999897
                },
                {
                    "name": "A#3",
                    "midi": 58,
                    "time": 64.659296,
                    "velocity": 0.3937007874015748,
                    "duration": 0.9508720000000039
                },
                {
                    "name": "G#2",
                    "midi": 44,
                    "time": 64.659296,
                    "velocity": 0.3937007874015748,
                    "duration": 2.8526159999999976
                },
                {
                    "name": "G#3",
                    "midi": 56,
                    "time": 65.610168,
                    "velocity": 0.3779527559055118,
                    "duration": 0.47543599999998776
                },
                {
                    "name": "F#3",
                    "midi": 54,
                    "time": 66.08560399999999,
                    "velocity": 0.2992125984251969,
                    "duration": 0.47543600000000197
                },
                {
                    "name": "F3",
                    "midi": 53,
                    "time": 66.56103999999999,
                    "velocity": 0.3228346456692913,
                    "duration": 1.9017440000000079
                },
                {
                    "name": "G#2",
                    "midi": 44,
                    "time": 67.511912,
                    "velocity": 0.2755905511811024,
                    "duration": 0.9508720000000039
                },
                {
                    "name": "G#1",
                    "midi": 32,
                    "time": 69.41365599999999,
                    "velocity": 0.3700787401574803,
                    "duration": 1.9017439999999795
                },
                {
                    "name": "G#1",
                    "midi": 32,
                    "time": 71.31539999999997,
                    "velocity": 0.30708661417322836,
                    "duration": 1.9017440000000079
                },
                {
                    "name": "G#1",
                    "midi": 32,
                    "time": 73.21714399999998,
                    "velocity": 0.3700787401574803,
                    "duration": 1.9017439999999795
                },
                {
                    "name": "G#1",
                    "midi": 32,
                    "time": 75.11888799999996,
                    "velocity": 0.2992125984251969,
                    "duration": 1.9017440000000079
                },
                {
                    "name": "G#1",
                    "midi": 32,
                    "time": 77.02063199999996,
                    "velocity": 0.30708661417322836,
                    "duration": 1.9017439999999937
                },
                {
                    "name": "G#1",
                    "midi": 32,
                    "time": 78.92237599999996,
                    "velocity": 0.30708661417322836,
                    "duration": 1.9017439999999937
                },
                {
                    "name": "G#1",
                    "midi": 32,
                    "time": 80.82411999999995,
                    "velocity": 0.28346456692913385,
                    "duration": 0.9508720000000039
                },
                {
                    "name": "C#2",
                    "midi": 37,
                    "time": 81.77499199999995,
                    "velocity": 0.30708661417322836,
                    "duration": 1.9017439999999937
                },
                {
                    "name": "D#4",
                    "midi": 63,
                    "time": 83.67673599999995,
                    "velocity": 0.3543307086614173,
                    "duration": 0.9508720000000039
                },
                {
                    "name": "A#3",
                    "midi": 58,
                    "time": 83.67673599999995,
                    "velocity": 0.29133858267716534,
                    "duration": 0.9508720000000039
                },
                {
                    "name": "F#3",
                    "midi": 54,
                    "time": 83.67673599999995,
                    "velocity": 0.29133858267716534,
                    "duration": 0.9508720000000039
                },
                {
                    "name": "C#3",
                    "midi": 49,
                    "time": 84.62760799999995,
                    "velocity": 0.2125984251968504,
                    "duration": 0.9508720000000039
                },
                {
                    "name": "F#3",
                    "midi": 54,
                    "time": 85.57847999999996,
                    "velocity": 0.29133858267716534,
                    "duration": 0.9508720000000039
                },
                {
                    "name": "A#3",
                    "midi": 58,
                    "time": 85.57847999999996,
                    "velocity": 0.29133858267716534,
                    "duration": 0.9508720000000039
                },
                {
                    "name": "D#4",
                    "midi": 63,
                    "time": 85.57847999999996,
                    "velocity": 0.3464566929133858,
                    "duration": 0.9508720000000039
                },
                {
                    "name": "C#3",
                    "midi": 49,
                    "time": 86.52935199999996,
                    "velocity": 0.2047244094488189,
                    "duration": 2.4960390000000103
                },
                {
                    "name": "A#3",
                    "midi": 58,
                    "time": 87.48022399999996,
                    "velocity": 0.3543307086614173,
                    "duration": 0.9508720000000039
                },
                {
                    "name": "A3",
                    "midi": 57,
                    "time": 88.43109599999997,
                    "velocity": 0.3779527559055118,
                    "duration": 0.5942950000000025
                },
                {
                    "name": "C#3",
                    "midi": 49,
                    "time": 89.02539099999997,
                    "velocity": 0.2677165354330709,
                    "duration": 2.2583210000000093
                },
                {
                    "name": "G#3",
                    "midi": 56,
                    "time": 89.08482049999996,
                    "velocity": 0.28346456692913385,
                    "duration": 2.198891500000016
                },
                {
                    "name": "C#4",
                    "midi": 61,
                    "time": 89.14424999999997,
                    "velocity": 0.2992125984251969,
                    "duration": 2.139462000000009
                },
                {
                    "name": "C#2",
                    "midi": 37,
                    "time": 90.33283999999998,
                    "velocity": 0.2677165354330709,
                    "duration": 0.9508720000000039
                },
                {
                    "name": "F3",
                    "midi": 53,
                    "time": 91.28371199999998,
                    "velocity": 0.2440944881889764,
                    "duration": 0.47543600000000197
                },
                {
                    "name": "C#4",
                    "midi": 61,
                    "time": 92.23458399999998,
                    "velocity": 0.2677165354330709,
                    "duration": 0.47543600000000197
                },
                {
                    "name": "F4",
                    "midi": 65,
                    "time": 93.18545599999999,
                    "velocity": 0.2677165354330709,
                    "duration": 0.47543600000000197
                }
            ],
            "controlChanges": {
                "7": [
                    {
                        "number": 7,
                        "time": 0,
                        "value": 0.7874015748031497
                    }
                ],
                "64": [
                    {
                        "number": 64,
                        "time": 0,
                        "value": 1
                    },
                    {
                        "number": 64,
                        "time": 5.42591335,
                        "value": 0
                    },
                    {
                        "number": 64,
                        "time": 5.489304816666667,
                        "value": 1
                    },
                    {
                        "number": 64,
                        "time": 7.181064583333335,
                        "value": 0
                    },
                    {
                        "number": 64,
                        "time": 7.3415242333333355,
                        "value": 1
                    },
                    {
                        "number": 64,
                        "time": 9.469100333333335,
                        "value": 0
                    },
                    {
                        "number": 64,
                        "time": 9.786057666666668,
                        "value": 1
                    },
                    {
                        "number": 64,
                        "time": 10.974647666666668,
                        "value": 0
                    },
                    {
                        "number": 64,
                        "time": 11.473855466666668,
                        "value": 1
                    },
                    {
                        "number": 64,
                        "time": 13.375599466666669,
                        "value": 0
                    },
                    {
                        "number": 64,
                        "time": 13.423143066666668,
                        "value": 1
                    },
                    {
                        "number": 64,
                        "time": 14.45127341666667,
                        "value": 0
                    },
                    {
                        "number": 64,
                        "time": 14.514664883333337,
                        "value": 1
                    },
                    {
                        "number": 64,
                        "time": 15.095093000000004,
                        "value": 0
                    },
                    {
                        "number": 64,
                        "time": 15.465536883333337,
                        "value": 1
                    },
                    {
                        "number": 64,
                        "time": 16.975046183333337,
                        "value": 0
                    },
                    {
                        "number": 64,
                        "time": 17.367280883333336,
                        "value": 1
                    },
                    {
                        "number": 64,
                        "time": 18.821322650000003,
                        "value": 0
                    },
                    {
                        "number": 64,
                        "time": 19.53249566666667,
                        "value": 1
                    },
                    {
                        "number": 64,
                        "time": 20.443748000000003,
                        "value": 0
                    },
                    {
                        "number": 64,
                        "time": 21.31538066666667,
                        "value": 1
                    },
                    {
                        "number": 64,
                        "time": 22.14739366666667,
                        "value": 0
                    },
                    {
                        "number": 64,
                        "time": 23.072512883333335,
                        "value": 1
                    },
                    {
                        "number": 64,
                        "time": 24.582022183333336,
                        "value": 0
                    },
                    {
                        "number": 64,
                        "time": 24.974256883333336,
                        "value": 1
                    },
                    {
                        "number": 64,
                        "time": 26.428298650000002,
                        "value": 0
                    },
                    {
                        "number": 64,
                        "time": 26.994859883333337,
                        "value": 1
                    },
                    {
                        "number": 64,
                        "time": 28.050724000000002,
                        "value": 0
                    },
                    {
                        "number": 64,
                        "time": 28.631152116666666,
                        "value": 1
                    },
                    {
                        "number": 64,
                        "time": 29.213561216666665,
                        "value": 0
                    },
                    {
                        "number": 64,
                        "time": 29.582024116666663,
                        "value": 1
                    },
                    {
                        "number": 64,
                        "time": 30.164433216666662,
                        "value": 0
                    },
                    {
                        "number": 64,
                        "time": 30.624021349999996,
                        "value": 1
                    },
                    {
                        "number": 64,
                        "time": 31.378775999999995,
                        "value": 0
                    },
                    {
                        "number": 64,
                        "time": 31.54715958333333,
                        "value": 1
                    },
                    {
                        "number": 64,
                        "time": 32.16126441666666,
                        "value": 0
                    },
                    {
                        "number": 64,
                        "time": 32.52576534999999,
                        "value": 1
                    },
                    {
                        "number": 64,
                        "time": 34.090742183333326,
                        "value": 0
                    },
                    {
                        "number": 64,
                        "time": 34.72861881666666,
                        "value": 1
                    },
                    {
                        "number": 64,
                        "time": 36.08757338333333,
                        "value": 0
                    },
                    {
                        "number": 64,
                        "time": 36.3589681,
                        "value": 1
                    },
                    {
                        "number": 64,
                        "time": 37.672360049999995,
                        "value": 0
                    },
                    {
                        "number": 64,
                        "time": 38.08044261666666,
                        "value": 1
                    },
                    {
                        "number": 64,
                        "time": 39.98218661666665,
                        "value": 0
                    },
                    {
                        "number": 64,
                        "time": 40.14066528333332,
                        "value": 1
                    },
                    {
                        "number": 64,
                        "time": 41.67988933333332,
                        "value": 0
                    },
                    {
                        "number": 64,
                        "time": 42.15532533333332,
                        "value": 1
                    },
                    {
                        "number": 64,
                        "time": 43.54201366666666,
                        "value": 0
                    },
                    {
                        "number": 64,
                        "time": 43.97783,
                        "value": 1
                    },
                    {
                        "number": 64,
                        "time": 44.96832166666667,
                        "value": 0
                    },
                    {
                        "number": 64,
                        "time": 45.641856000000004,
                        "value": 1
                    },
                    {
                        "number": 64,
                        "time": 47.35738756666667,
                        "value": 0
                    },
                    {
                        "number": 64,
                        "time": 47.62878228333333,
                        "value": 1
                    },
                    {
                        "number": 64,
                        "time": 49.36016171666666,
                        "value": 0
                    },
                    {
                        "number": 64,
                        "time": 49.762301333333326,
                        "value": 1
                    },
                    {
                        "number": 64,
                        "time": 50.990511,
                        "value": 0
                    },
                    {
                        "number": 64,
                        "time": 51.42632733333333,
                        "value": 1
                    },
                    {
                        "number": 64,
                        "time": 52.97149433333333,
                        "value": 0
                    },
                    {
                        "number": 64,
                        "time": 53.2844897,
                        "value": 1
                    },
                    {
                        "number": 64,
                        "time": 54.98219241666667,
                        "value": 0
                    },
                    {
                        "number": 64,
                        "time": 55.26151106666667,
                        "value": 1
                    },
                    {
                        "number": 64,
                        "time": 56.90572723333334,
                        "value": 0
                    },
                    {
                        "number": 64,
                        "time": 57.0879777,
                        "value": 1
                    },
                    {
                        "number": 64,
                        "time": 58.442970300000006,
                        "value": 0
                    },
                    {
                        "number": 64,
                        "time": 58.619277816666674,
                        "value": 1
                    },
                    {
                        "number": 64,
                        "time": 60.521021816666675,
                        "value": 0
                    },
                    {
                        "number": 64,
                        "time": 60.70129130000001,
                        "value": 1
                    },
                    {
                        "number": 64,
                        "time": 62.60303530000001,
                        "value": 0
                    },
                    {
                        "number": 64,
                        "time": 62.937821483333344,
                        "value": 1
                    },
                    {
                        "number": 64,
                        "time": 64.38790128333333,
                        "value": 0
                    },
                    {
                        "number": 64,
                        "time": 64.71476353333333,
                        "value": 1
                    },
                    {
                        "number": 64,
                        "time": 65.49923293333333,
                        "value": 0
                    },
                    {
                        "number": 64,
                        "time": 65.66563553333333,
                        "value": 1
                    },
                    {
                        "number": 64,
                        "time": 66.42039018333332,
                        "value": 0
                    },
                    {
                        "number": 64,
                        "time": 67.036476,
                        "value": 1
                    },
                    {
                        "number": 64,
                        "time": 68.09828306666667,
                        "value": 0
                    },
                    {
                        "number": 64,
                        "time": 68.462784,
                        "value": 1
                    },
                    {
                        "number": 64,
                        "time": 69.31460683333333,
                        "value": 0
                    },
                    {
                        "number": 64,
                        "time": 69.47308549999998,
                        "value": 1
                    },
                    {
                        "number": 64,
                        "time": 70.48338699999998,
                        "value": 0
                    },
                    {
                        "number": 64,
                        "time": 70.60224599999998,
                        "value": 1
                    },
                    {
                        "number": 64,
                        "time": 71.21635083333331,
                        "value": 0
                    },
                    {
                        "number": 64,
                        "time": 71.47387866666664,
                        "value": 1
                    },
                    {
                        "number": 64,
                        "time": 72.1077933333333,
                        "value": 0
                    },
                    {
                        "number": 64,
                        "time": 72.26627199999997,
                        "value": 1
                    },
                    {
                        "number": 64,
                        "time": 73.09828499999998,
                        "value": 0
                    },
                    {
                        "number": 64,
                        "time": 73.27657349999997,
                        "value": 1
                    },
                    {
                        "number": 64,
                        "time": 74.16801599999997,
                        "value": 0
                    },
                    {
                        "number": 64,
                        "time": 74.2472553333333,
                        "value": 1
                    },
                    {
                        "number": 64,
                        "time": 74.9009798333333,
                        "value": 0
                    },
                    {
                        "number": 64,
                        "time": 75.19812733333329,
                        "value": 1
                    },
                    {
                        "number": 64,
                        "time": 75.91128133333329,
                        "value": 0
                    },
                    {
                        "number": 64,
                        "time": 76.20644784999996,
                        "value": 1
                    },
                    {
                        "number": 64,
                        "time": 76.92950676666663,
                        "value": 0
                    },
                    {
                        "number": 64,
                        "time": 78.0626292333333,
                        "value": 1
                    },
                    {
                        "number": 64,
                        "time": 78.83125076666663,
                        "value": 0
                    },
                    {
                        "number": 64,
                        "time": 84.04717988333329,
                        "value": 1
                    },
                    {
                        "number": 64,
                        "time": 89.10264934999996,
                        "value": 0
                    },
                    {
                        "number": 64,
                        "time": 89.16604081666664,
                        "value": 1
                    },
                    {
                        "number": 64,
                        "time": 98.89068799999998,
                        "value": 0
                    }
                ]
            },
            "id": 2,
            "name": "Piano left",
            "instrumentNumber": 0,
            "instrument": "acoustic grand piano",
            "instrumentFamily": "piano",
            "channelNumber": 0,
            "isPercussion": false
        },
        {
            "startTime": 0,
            "duration": 0,
            "length": 0,
            "notes": [],
            "controlChanges": {},
            "id": 3,
            "name": "Borodin: Petite Suite, Reverie"
        },
        {
            "startTime": 0,
            "duration": 0,
            "length": 0,
            "notes": [],
            "controlChanges": {},
            "id": 4,
            "name": "Copyright  2000 by Bernd Krger"
        },
        {
            "startTime": 0,
            "duration": 0,
            "length": 0,
            "notes": [],
            "controlChanges": {},
            "id": 5,
            "name": "email: bernd.krueger@piano-midi.de"
        },
        {
            "startTime": 0,
            "duration": 0,
            "length": 0,
            "notes": [],
            "controlChanges": {},
            "id": 6,
            "name": "http://www.piano-midi.de"
        },
        {
            "startTime": 0,
            "duration": 0,
            "length": 0,
            "notes": [],
            "controlChanges": {},
            "id": 7,
            "name": "Edition: 21.8.00"
        },
        {
            "startTime": 0,
            "duration": 0,
            "length": 0,
            "notes": [],
            "controlChanges": {},
            "id": 8
        }
    ]
}