{
    "header": {
        "PPQ": 480,
        "timeSignature": [
            3,
            4
        ],
        "bpm": 125.49990796673416,
        "name": "4. Mazurka"
    },
    "startTime": 0,
    "duration": 190.75711200000134,
    "tracks": [
        {
            "startTime": 0,
            "duration": 0,
            "length": 0,
            "notes": [],
            "controlChanges": {},
            "id": 0,
            "name": "4. Mazurka"
        },
        {
            "startTime": 0.478088,
            "duration": 190.75711200000134,
            "length": 784,
            "notes": [
                {
                    "name": "G#3",
                    "midi": 56,
                    "time": 0.478088,
                    "velocity": 0.2677165354330709,
                    "duration": 0.23904399999999998
                },
                {
                    "name": "F#3",
                    "midi": 54,
                    "time": 0.478088,
                    "velocity": 0.2204724409448819,
                    "duration": 0.23904399999999998
                },
                {
                    "name": "F#3",
                    "midi": 54,
                    "time": 0.956176,
                    "velocity": 0.2204724409448819,
                    "duration": 0.23904399999999992
                },
                {
                    "name": "G#3",
                    "midi": 56,
                    "time": 0.956176,
                    "velocity": 0.2677165354330709,
                    "duration": 0.23904399999999992
                },
                {
                    "name": "C#4",
                    "midi": 61,
                    "time": 1.9123519999999998,
                    "velocity": 0.25984251968503935,
                    "duration": 0.2390439999999998
                },
                {
                    "name": "F4",
                    "midi": 65,
                    "time": 1.9123519999999998,
                    "velocity": 0.30708661417322836,
                    "duration": 0.2390439999999998
                },
                {
                    "name": "C#4",
                    "midi": 61,
                    "time": 2.3904399999999995,
                    "velocity": 0.2755905511811024,
                    "duration": 0.2390439999999998
                },
                {
                    "name": "F4",
                    "midi": 65,
                    "time": 2.3904399999999995,
                    "velocity": 0.3228346456692913,
                    "duration": 0.2390439999999998
                },
                {
                    "name": "G#4",
                    "midi": 68,
                    "time": 3.346615999999999,
                    "velocity": 0.31496062992125984,
                    "duration": 0.2390439999999998
                },
                {
                    "name": "D#4",
                    "midi": 63,
                    "time": 3.346615999999999,
                    "velocity": 0.2677165354330709,
                    "duration": 0.2390439999999998
                },
                {
                    "name": "F#4",
                    "midi": 66,
                    "time": 3.346615999999999,
                    "velocity": 0.2677165354330709,
                    "duration": 0.2390439999999998
                },
                {
                    "name": "F#4",
                    "midi": 66,
                    "time": 3.8247039999999988,
                    "velocity": 0.2677165354330709,
                    "duration": 0.2390439999999998
                },
                {
                    "name": "G#4",
                    "midi": 68,
                    "time": 3.8247039999999988,
                    "velocity": 0.31496062992125984,
                    "duration": 0.2390439999999998
                },
                {
                    "name": "D#4",
                    "midi": 63,
                    "time": 3.8247039999999988,
                    "velocity": 0.2677165354330709,
                    "duration": 0.2390439999999998
                },
                {
                    "name": "F4",
                    "midi": 65,
                    "time": 4.780879999999999,
                    "velocity": 0.23622047244094488,
                    "duration": 0.2390439999999998
                },
                {
                    "name": "G#4",
                    "midi": 68,
                    "time": 4.780879999999999,
                    "velocity": 0.28346456692913385,
                    "duration": 0.2390439999999998
                },
                {
                    "name": "C#4",
                    "midi": 61,
                    "time": 4.780879999999999,
                    "velocity": 0.23622047244094488,
                    "duration": 0.2390439999999998
                },
                {
                    "name": "G#4",
                    "midi": 68,
                    "time": 5.2589679999999985,
                    "velocity": 0.2755905511811024,
                    "duration": 0.2390439999999998
                },
                {
                    "name": "F4",
                    "midi": 65,
                    "time": 5.2589679999999985,
                    "velocity": 0.2283464566929134,
                    "duration": 0.2390439999999998
                },
                {
                    "name": "C#4",
                    "midi": 61,
                    "time": 5.2589679999999985,
                    "velocity": 0.2283464566929134,
                    "duration": 0.2390439999999998
                },
                {
                    "name": "F#3",
                    "midi": 54,
                    "time": 6.215143999999999,
                    "velocity": 0.2204724409448819,
                    "duration": 0.2390439999999998
                },
                {
                    "name": "G#3",
                    "midi": 56,
                    "time": 6.215143999999999,
                    "velocity": 0.2677165354330709,
                    "duration": 0.2390439999999998
                },
                {
                    "name": "F#3",
                    "midi": 54,
                    "time": 6.693231999999998,
                    "velocity": 0.2204724409448819,
                    "duration": 0.2390439999999998
                },
                {
                    "name": "G#3",
                    "midi": 56,
                    "time": 6.693231999999998,
                    "velocity": 0.2677165354330709,
                    "duration": 0.2390439999999998
                },
                {
                    "name": "F4",
                    "midi": 65,
                    "time": 7.649407999999998,
                    "velocity": 0.30708661417322836,
                    "duration": 0.2390439999999998
                },
                {
                    "name": "C#4",
                    "midi": 61,
                    "time": 7.649407999999998,
                    "velocity": 0.25984251968503935,
                    "duration": 0.2390439999999998
                },
                {
                    "name": "F4",
                    "midi": 65,
                    "time": 8.127495999999999,
                    "velocity": 0.3228346456692913,
                    "duration": 0.2390439999999998
                },
                {
                    "name": "C#4",
                    "midi": 61,
                    "time": 8.127495999999999,
                    "velocity": 0.2755905511811024,
                    "duration": 0.2390439999999998
                },
                {
                    "name": "E4",
                    "midi": 64,
                    "time": 9.083671999999998,
                    "velocity": 0.2677165354330709,
                    "duration": 0.2390439999999998
                },
                {
                    "name": "G4",
                    "midi": 67,
                    "time": 9.083671999999998,
                    "velocity": 0.31496062992125984,
                    "duration": 0.2390439999999998
                },
                {
                    "name": "E4",
                    "midi": 64,
                    "time": 9.561759999999998,
                    "velocity": 0.2677165354330709,
                    "duration": 0.2390439999999998
                },
                {
                    "name": "G4",
                    "midi": 67,
                    "time": 9.561759999999998,
                    "velocity": 0.31496062992125984,
                    "duration": 0.2390439999999998
                },
                {
                    "name": "F4",
                    "midi": 65,
                    "time": 10.517935999999997,
                    "velocity": 0.23622047244094488,
                    "duration": 0.2390439999999998
                },
                {
                    "name": "A4",
                    "midi": 69,
                    "time": 10.517935999999997,
                    "velocity": 0.28346456692913385,
                    "duration": 0.2390439999999998
                },
                {
                    "name": "A4",
                    "midi": 69,
                    "time": 10.996023999999997,
                    "velocity": 0.2755905511811024,
                    "duration": 0.2390439999999998
                },
                {
                    "name": "F4",
                    "midi": 65,
                    "time": 10.996023999999997,
                    "velocity": 0.2283464566929134,
                    "duration": 0.2390439999999998
                },
                {
                    "name": "D4",
                    "midi": 62,
                    "time": 11.474111999999996,
                    "velocity": 0.4330708661417323,
                    "duration": 0.2390439999999998
                },
                {
                    "name": "A4",
                    "midi": 69,
                    "time": 11.952199999999996,
                    "velocity": 0.4881889763779528,
                    "duration": 0.7171319999999994
                },
                {
                    "name": "E4",
                    "midi": 64,
                    "time": 11.952199999999996,
                    "velocity": 0.3228346456692913,
                    "duration": 0.9561759999999992
                },
                {
                    "name": "G4",
                    "midi": 67,
                    "time": 12.669331999999995,
                    "velocity": 0.4330708661417323,
                    "duration": 0.2390439999999998
                },
                {
                    "name": "A4",
                    "midi": 69,
                    "time": 12.908375999999995,
                    "velocity": 0.49606299212598426,
                    "duration": 0.3585659999999997
                },
                {
                    "name": "F4",
                    "midi": 65,
                    "time": 12.908375999999995,
                    "velocity": 0.3228346456692913,
                    "duration": 0.9561759999999992
                },
                {
                    "name": "A#4",
                    "midi": 70,
                    "time": 13.266941999999995,
                    "velocity": 0.4881889763779528,
                    "duration": 0.1195219999999999
                },
                {
                    "name": "C5",
                    "midi": 72,
                    "time": 13.386463999999995,
                    "velocity": 0.47244094488188976,
                    "duration": 0.4780879999999996
                },
                {
                    "name": "D5",
                    "midi": 74,
                    "time": 13.864551999999994,
                    "velocity": 0.47244094488188976,
                    "duration": 0.2390439999999998
                },
                {
                    "name": "F4",
                    "midi": 65,
                    "time": 13.864551999999994,
                    "velocity": 0.3228346456692913,
                    "duration": 0.4780879999999996
                },
                {
                    "name": "F5",
                    "midi": 77,
                    "time": 14.103595999999994,
                    "velocity": 0.4409448818897638,
                    "duration": 0.2390439999999998
                },
                {
                    "name": "A#4",
                    "midi": 70,
                    "time": 14.342639999999994,
                    "velocity": 0.33858267716535434,
                    "duration": 0.4780879999999996
                },
                {
                    "name": "F5",
                    "midi": 77,
                    "time": 14.342639999999994,
                    "velocity": 0.4645669291338583,
                    "duration": 0.3585659999999997
                },
                {
                    "name": "E5",
                    "midi": 76,
                    "time": 14.701205999999994,
                    "velocity": 0.4409448818897638,
                    "duration": 0.05976099999999995
                },
                {
                    "name": "F5",
                    "midi": 77,
                    "time": 14.760966999999994,
                    "velocity": 0.4409448818897638,
                    "duration": 0.05976099999999995
                },
                {
                    "name": "A#4",
                    "midi": 70,
                    "time": 14.820727999999994,
                    "velocity": 0.33070866141732286,
                    "duration": 0.4780879999999996
                },
                {
                    "name": "E5",
                    "midi": 76,
                    "time": 14.820727999999994,
                    "velocity": 0.5118110236220472,
                    "duration": 0.2390439999999998
                },
                {
                    "name": "D5",
                    "midi": 74,
                    "time": 15.059771999999993,
                    "velocity": 0.47244094488188976,
                    "duration": 0.2390439999999998
                },
                {
                    "name": "E5",
                    "midi": 76,
                    "time": 15.298815999999993,
                    "velocity": 0.5118110236220472,
                    "duration": 0.2390439999999998
                },
                {
                    "name": "A#4",
                    "midi": 70,
                    "time": 15.298815999999993,
                    "velocity": 0.33858267716535434,
                    "duration": 0.4780879999999996
                },
                {
                    "name": "C5",
                    "midi": 72,
                    "time": 15.537859999999993,
                    "velocity": 0.4645669291338583,
                    "duration": 0.2390439999999998
                },
                {
                    "name": "D5",
                    "midi": 74,
                    "time": 15.776903999999993,
                    "velocity": 0.47244094488188976,
                    "duration": 0.3585660000000015
                },
                {
                    "name": "F4",
                    "midi": 65,
                    "time": 15.776903999999993,
                    "velocity": 0.3228346456692913,
                    "duration": 0.47808800000000495
                },
                {
                    "name": "C5",
                    "midi": 72,
                    "time": 16.135469999999994,
                    "velocity": 0.3858267716535433,
                    "duration": 0.05976100000000173
                },
                {
                    "name": "D5",
                    "midi": 74,
                    "time": 16.195230999999996,
                    "velocity": 0.3464566929133858,
                    "duration": 0.05976100000000173
                },
                {
                    "name": "C5",
                    "midi": 72,
                    "time": 16.254991999999998,
                    "velocity": 0.4566929133858268,
                    "duration": 0.2390439999999998
                },
                {
                    "name": "F4",
                    "midi": 65,
                    "time": 16.254991999999998,
                    "velocity": 0.3228346456692913,
                    "duration": 0.4780879999999996
                },
                {
                    "name": "A4",
                    "midi": 69,
                    "time": 16.494035999999998,
                    "velocity": 0.4094488188976378,
                    "duration": 0.2390439999999998
                },
                {
                    "name": "F4",
                    "midi": 65,
                    "time": 16.733079999999998,
                    "velocity": 0.4409448818897638,
                    "duration": 0.4780879999999996
                },
                {
                    "name": "A4",
                    "midi": 69,
                    "time": 16.972123999999997,
                    "velocity": 0.3937007874015748,
                    "duration": 0.2390439999999998
                },
                {
                    "name": "D4",
                    "midi": 62,
                    "time": 17.211167999999997,
                    "velocity": 0.4330708661417323,
                    "duration": 0.2390439999999998
                },
                {
                    "name": "A4",
                    "midi": 69,
                    "time": 17.689255999999997,
                    "velocity": 0.4881889763779528,
                    "duration": 0.7171319999999994
                },
                {
                    "name": "E4",
                    "midi": 64,
                    "time": 17.689255999999997,
                    "velocity": 0.3228346456692913,
                    "duration": 0.9561759999999992
                },
                {
                    "name": "G4",
                    "midi": 67,
                    "time": 18.406387999999996,
                    "velocity": 0.4566929133858268,
                    "duration": 0.2390439999999998
                },
                {
                    "name": "F4",
                    "midi": 65,
                    "time": 18.645431999999996,
                    "velocity": 0.3228346456692913,
                    "duration": 0.9561759999999992
                },
                {
                    "name": "A4",
                    "midi": 69,
                    "time": 18.645431999999996,
                    "velocity": 0.49606299212598426,
                    "duration": 0.3585659999999997
                },
                {
                    "name": "A#4",
                    "midi": 70,
                    "time": 19.003997999999996,
                    "velocity": 0.48031496062992124,
                    "duration": 0.1195219999999999
                },
                {
                    "name": "C5",
                    "midi": 72,
                    "time": 19.123519999999996,
                    "velocity": 0.4881889763779528,
                    "duration": 0.4780879999999996
                },
                {
                    "name": "D5",
                    "midi": 74,
                    "time": 19.601607999999995,
                    "velocity": 0.5039370078740157,
                    "duration": 0.29880500000000154
                },
                {
                    "name": "F4",
                    "midi": 65,
                    "time": 19.601607999999995,
                    "velocity": 0.3464566929133858,
                    "duration": 0.29880500000000154
                },
                {
                    "name": "E4",
                    "midi": 64,
                    "time": 19.960174,
                    "velocity": 0.4330708661417323,
                    "duration": 0.4780880000000032
                },
                {
                    "name": "A#4",
                    "midi": 70,
                    "time": 20.019935,
                    "velocity": 0.47244094488188976,
                    "duration": 0.41832700000000145
                },
                {
                    "name": "D5",
                    "midi": 74,
                    "time": 20.079696000000002,
                    "velocity": 0.5433070866141733,
                    "duration": 0.3585659999999997
                },
                {
                    "name": "C5",
                    "midi": 72,
                    "time": 20.438262,
                    "velocity": 0.41732283464566927,
                    "duration": 0.05976100000000173
                },
                {
                    "name": "D5",
                    "midi": 74,
                    "time": 20.498023000000003,
                    "velocity": 0.4330708661417323,
                    "duration": 0.05976100000000173
                },
                {
                    "name": "C5",
                    "midi": 72,
                    "time": 20.557784000000005,
                    "velocity": 0.4645669291338583,
                    "duration": 0.2390439999999998
                },
                {
                    "name": "A#4",
                    "midi": 70,
                    "time": 20.796828000000005,
                    "velocity": 0.4015748031496063,
                    "duration": 0.2390439999999998
                },
                {
                    "name": "A4",
                    "midi": 69,
                    "time": 21.035872000000005,
                    "velocity": 0.4330708661417323,
                    "duration": 0.2390439999999998
                },
                {
                    "name": "G4",
                    "midi": 67,
                    "time": 21.274916000000005,
                    "velocity": 0.3779527559055118,
                    "duration": 0.2390439999999998
                },
                {
                    "name": "C5",
                    "midi": 72,
                    "time": 21.513960000000004,
                    "velocity": 0.4881889763779528,
                    "duration": 0.3585659999999997
                },
                {
                    "name": "A4",
                    "midi": 69,
                    "time": 21.513960000000004,
                    "velocity": 0.3464566929133858,
                    "duration": 0.3585659999999997
                },
                {
                    "name": "E4",
                    "midi": 64,
                    "time": 21.513960000000004,
                    "velocity": 0.3464566929133858,
                    "duration": 0.3585659999999997
                },
                {
                    "name": "G4",
                    "midi": 67,
                    "time": 21.872526000000004,
                    "velocity": 0.4094488188976378,
                    "duration": 0.05976100000000173
                },
                {
                    "name": "A4",
                    "midi": 69,
                    "time": 21.932287000000006,
                    "velocity": 0.3700787401574803,
                    "duration": 0.05976100000000173
                },
                {
                    "name": "G4",
                    "midi": 67,
                    "time": 21.992048000000008,
                    "velocity": 0.4645669291338583,
                    "duration": 0.2390439999999998
                },
                {
                    "name": "F4",
                    "midi": 65,
                    "time": 22.231092000000007,
                    "velocity": 0.4330708661417323,
                    "duration": 0.2390439999999998
                },
                {
                    "name": "E4",
                    "midi": 64,
                    "time": 22.470136000000007,
                    "velocity": 0.44881889763779526,
                    "duration": 0.29880500000000154
                },
                {
                    "name": "A#3",
                    "midi": 58,
                    "time": 22.82870200000001,
                    "velocity": 0.36220472440944884,
                    "duration": 0.4780880000000032
                },
                {
                    "name": "D4",
                    "midi": 62,
                    "time": 22.888463000000012,
                    "velocity": 0.3937007874015748,
                    "duration": 0.41832700000000145
                },
                {
                    "name": "A4",
                    "midi": 69,
                    "time": 22.948224000000014,
                    "velocity": 0.44881889763779526,
                    "duration": 0.3585659999999997
                },
                {
                    "name": "G4",
                    "midi": 67,
                    "time": 23.306790000000014,
                    "velocity": 0.3228346456692913,
                    "duration": 0.05976100000000173
                },
                {
                    "name": "A4",
                    "midi": 69,
                    "time": 23.366551000000015,
                    "velocity": 0.31496062992125984,
                    "duration": 0.05976100000000173
                },
                {
                    "name": "G4",
                    "midi": 67,
                    "time": 23.426312000000017,
                    "velocity": 0.3700787401574803,
                    "duration": 0.2390439999999998
                },
                {
                    "name": "F4",
                    "midi": 65,
                    "time": 23.665356000000017,
                    "velocity": 0.31496062992125984,
                    "duration": 0.2390439999999998
                },
                {
                    "name": "E4",
                    "midi": 64,
                    "time": 23.904400000000017,
                    "velocity": 0.36220472440944884,
                    "duration": 0.2390439999999998
                },
                {
                    "name": "D4",
                    "midi": 62,
                    "time": 24.143444000000017,
                    "velocity": 0.31496062992125984,
                    "duration": 0.2390439999999998
                },
                {
                    "name": "A#3",
                    "midi": 58,
                    "time": 24.382488000000016,
                    "velocity": 0.2992125984251969,
                    "duration": 1.4342639999999989
                },
                {
                    "name": "C4",
                    "midi": 60,
                    "time": 24.382488000000016,
                    "velocity": 0.2992125984251969,
                    "duration": 1.4342639999999989
                },
                {
                    "name": "G#3",
                    "midi": 56,
                    "time": 26.294840000000015,
                    "velocity": 0.2677165354330709,
                    "duration": 0.2390439999999998
                },
                {
                    "name": "F#3",
                    "midi": 54,
                    "time": 26.294840000000015,
                    "velocity": 0.2204724409448819,
                    "duration": 0.2390439999999998
                },
                {
                    "name": "F#3",
                    "midi": 54,
                    "time": 26.772928000000014,
                    "velocity": 0.2204724409448819,
                    "duration": 0.2390439999999998
                },
                {
                    "name": "G#3",
                    "midi": 56,
                    "time": 26.772928000000014,
                    "velocity": 0.2677165354330709,
                    "duration": 0.2390439999999998
                },
                {
                    "name": "F4",
                    "midi": 65,
                    "time": 27.729104000000014,
                    "velocity": 0.30708661417322836,
                    "duration": 0.2390439999999998
                },
                {
                    "name": "C#4",
                    "midi": 61,
                    "time": 27.729104000000014,
                    "velocity": 0.25984251968503935,
                    "duration": 0.2390439999999998
                },
                {
                    "name": "C#4",
                    "midi": 61,
                    "time": 28.207192000000013,
                    "velocity": 0.2755905511811024,
                    "duration": 0.2390439999999998
                },
                {
                    "name": "F4",
                    "midi": 65,
                    "time": 28.207192000000013,
                    "velocity": 0.3228346456692913,
                    "duration": 0.2390439999999998
                },
                {
                    "name": "D#4",
                    "midi": 63,
                    "time": 29.163368000000013,
                    "velocity": 0.2677165354330709,
                    "duration": 0.2390439999999998
                },
                {
                    "name": "G#4",
                    "midi": 68,
                    "time": 29.163368000000013,
                    "velocity": 0.31496062992125984,
                    "duration": 0.2390439999999998
                },
                {
                    "name": "F#4",
                    "midi": 66,
                    "time": 29.163368000000013,
                    "velocity": 0.2677165354330709,
                    "duration": 0.2390439999999998
                },
                {
                    "name": "F#4",
                    "midi": 66,
                    "time": 29.641456000000012,
                    "velocity": 0.2677165354330709,
                    "duration": 0.2390439999999998
                },
                {
                    "name": "G#4",
                    "midi": 68,
                    "time": 29.641456000000012,
                    "velocity": 0.31496062992125984,
                    "duration": 0.2390439999999998
                },
                {
                    "name": "D#4",
                    "midi": 63,
                    "time": 29.641456000000012,
                    "velocity": 0.2677165354330709,
                    "duration": 0.2390439999999998
                },
                {
                    "name": "G#4",
                    "midi": 68,
                    "time": 30.59763200000001,
                    "velocity": 0.28346456692913385,
                    "duration": 0.2390439999999998
                },
                {
                    "name": "F4",
                    "midi": 65,
                    "time": 30.59763200000001,
                    "velocity": 0.23622047244094488,
                    "duration": 0.2390439999999998
                },
                {
                    "name": "C#4",
                    "midi": 61,
                    "time": 30.59763200000001,
                    "velocity": 0.23622047244094488,
                    "duration": 0.2390439999999998
                },
                {
                    "name": "F4",
                    "midi": 65,
                    "time": 31.07572000000001,
                    "velocity": 0.2283464566929134,
                    "duration": 0.2390439999999998
                },
                {
                    "name": "C#4",
                    "midi": 61,
                    "time": 31.07572000000001,
                    "velocity": 0.2283464566929134,
                    "duration": 0.2390439999999998
                },
                {
                    "name": "G#4",
                    "midi": 68,
                    "time": 31.07572000000001,
                    "velocity": 0.2755905511811024,
                    "duration": 0.2390439999999998
                },
                {
                    "name": "G#3",
                    "midi": 56,
                    "time": 32.03189600000001,
                    "velocity": 0.2677165354330709,
                    "duration": 0.2390439999999998
                },
                {
                    "name": "F#3",
                    "midi": 54,
                    "time": 32.03189600000001,
                    "velocity": 0.2204724409448819,
                    "duration": 0.2390439999999998
                },
                {
                    "name": "F#3",
                    "midi": 54,
                    "time": 32.50998400000001,
                    "velocity": 0.2204724409448819,
                    "duration": 0.2390439999999998
                },
                {
                    "name": "G#3",
                    "midi": 56,
                    "time": 32.50998400000001,
                    "velocity": 0.2677165354330709,
                    "duration": 0.2390439999999998
                },
                {
                    "name": "F4",
                    "midi": 65,
                    "time": 33.46616000000001,
                    "velocity": 0.30708661417322836,
                    "duration": 0.2390439999999998
                },
                {
                    "name": "C#4",
                    "midi": 61,
                    "time": 33.46616000000001,
                    "velocity": 0.25984251968503935,
                    "duration": 0.2390439999999998
                },
                {
                    "name": "F4",
                    "midi": 65,
                    "time": 33.94424800000001,
                    "velocity": 0.3228346456692913,
                    "duration": 0.2390439999999998
                },
                {
                    "name": "C#4",
                    "midi": 61,
                    "time": 33.94424800000001,
                    "velocity": 0.2755905511811024,
                    "duration": 0.2390439999999998
                },
                {
                    "name": "E4",
                    "midi": 64,
                    "time": 34.90042400000001,
                    "velocity": 0.2677165354330709,
                    "duration": 0.2390439999999998
                },
                {
                    "name": "G4",
                    "midi": 67,
                    "time": 34.90042400000001,
                    "velocity": 0.31496062992125984,
                    "duration": 0.2390439999999998
                },
                {
                    "name": "E4",
                    "midi": 64,
                    "time": 35.37851200000001,
                    "velocity": 0.2677165354330709,
                    "duration": 0.2390439999999998
                },
                {
                    "name": "G4",
                    "midi": 67,
                    "time": 35.37851200000001,
                    "velocity": 0.31496062992125984,
                    "duration": 0.2390439999999998
                },
                {
                    "name": "F4",
                    "midi": 65,
                    "time": 36.33468800000001,
                    "velocity": 0.23622047244094488,
                    "duration": 0.2390439999999998
                },
                {
                    "name": "G#4",
                    "midi": 68,
                    "time": 36.33468800000001,
                    "velocity": 0.28346456692913385,
                    "duration": 0.2390439999999998
                },
                {
                    "name": "G#4",
                    "midi": 68,
                    "time": 36.81277600000001,
                    "velocity": 0.2755905511811024,
                    "duration": 0.2390439999999998
                },
                {
                    "name": "F4",
                    "midi": 65,
                    "time": 36.81277600000001,
                    "velocity": 0.2283464566929134,
                    "duration": 0.2390439999999998
                },
                {
                    "name": "A#4",
                    "midi": 70,
                    "time": 37.290864000000006,
                    "velocity": 0.47244094488188976,
                    "duration": 0.2390439999999998
                },
                {
                    "name": "C5",
                    "midi": 72,
                    "time": 37.768952000000006,
                    "velocity": 0.36220472440944884,
                    "duration": 0.9561759999999992
                },
                {
                    "name": "F5",
                    "midi": 77,
                    "time": 37.768952000000006,
                    "velocity": 0.5511811023622047,
                    "duration": 0.7171319999999994
                },
                {
                    "name": "D#5",
                    "midi": 75,
                    "time": 38.486084000000005,
                    "velocity": 0.47244094488188976,
                    "duration": 0.2390439999999998
                },
                {
                    "name": "F5",
                    "midi": 77,
                    "time": 38.725128000000005,
                    "velocity": 0.5511811023622047,
                    "duration": 0.35856600000000327
                },
                {
                    "name": "C#5",
                    "midi": 73,
                    "time": 38.725128000000005,
                    "velocity": 0.36220472440944884,
                    "duration": 0.9561760000000064
                },
                {
                    "name": "F#5",
                    "midi": 78,
                    "time": 39.08369400000001,
                    "velocity": 0.5354330708661418,
                    "duration": 0.11952200000000346
                },
                {
                    "name": "G#5",
                    "midi": 80,
                    "time": 39.20321600000001,
                    "velocity": 0.5118110236220472,
                    "duration": 0.4780879999999996
                },
                {
                    "name": "C#5",
                    "midi": 73,
                    "time": 39.68130400000001,
                    "velocity": 0.31496062992125984,
                    "duration": 0.4780879999999996
                },
                {
                    "name": "G#5",
                    "midi": 80,
                    "time": 39.68130400000001,
                    "velocity": 0.31496062992125984,
                    "duration": 0.4780879999999996
                },
                {
                    "name": "A#5",
                    "midi": 82,
                    "time": 39.68130400000001,
                    "velocity": 0.5196850393700787,
                    "duration": 0.2390439999999998
                },
                {
                    "name": "C#6",
                    "midi": 85,
                    "time": 39.92034800000001,
                    "velocity": 0.4881889763779528,
                    "duration": 0.2390439999999998
                },
                {
                    "name": "F#5",
                    "midi": 78,
                    "time": 40.15939200000001,
                    "velocity": 0.3858267716535433,
                    "duration": 0.47808800000000673
                },
                {
                    "name": "C#5",
                    "midi": 73,
                    "time": 40.15939200000001,
                    "velocity": 0.3858267716535433,
                    "duration": 0.47808800000000673
                },
                {
                    "name": "C#6",
                    "midi": 85,
                    "time": 40.15939200000001,
                    "velocity": 0.5196850393700787,
                    "duration": 0.35856600000000327
                },
                {
                    "name": "C6",
                    "midi": 84,
                    "time": 40.517958000000014,
                    "velocity": 0.4645669291338583,
                    "duration": 0.05976100000000173
                },
                {
                    "name": "C#6",
                    "midi": 85,
                    "time": 40.577719000000016,
                    "velocity": 0.44881889763779526,
                    "duration": 0.05976100000000173
                },
                {
                    "name": "C6",
                    "midi": 84,
                    "time": 40.63748000000002,
                    "velocity": 0.5275590551181102,
                    "duration": 0.2390439999999998
                },
                {
                    "name": "C5",
                    "midi": 72,
                    "time": 40.63748000000002,
                    "velocity": 0.3228346456692913,
                    "duration": 0.4780879999999996
                },
                {
                    "name": "F#5",
                    "midi": 78,
                    "time": 40.63748000000002,
                    "velocity": 0.3228346456692913,
                    "duration": 0.4780879999999996
                },
                {
                    "name": "A#5",
                    "midi": 82,
                    "time": 40.87652400000002,
                    "velocity": 0.5039370078740157,
                    "duration": 0.2390439999999998
                },
                {
                    "name": "C5",
                    "midi": 72,
                    "time": 41.11556800000002,
                    "velocity": 0.33858267716535434,
                    "duration": 0.4780879999999996
                },
                {
                    "name": "C6",
                    "midi": 84,
                    "time": 41.11556800000002,
                    "velocity": 0.5275590551181102,
                    "duration": 0.2390439999999998
                },
                {
                    "name": "F#5",
                    "midi": 78,
                    "time": 41.11556800000002,
                    "velocity": 0.33858267716535434,
                    "duration": 0.4780879999999996
                },
                {
                    "name": "G#5",
                    "midi": 80,
                    "time": 41.35461200000002,
                    "velocity": 0.49606299212598426,
                    "duration": 0.2390439999999998
                },
                {
                    "name": "A#5",
                    "midi": 82,
                    "time": 41.59365600000002,
                    "velocity": 0.5196850393700787,
                    "duration": 0.35856600000000327
                },
                {
                    "name": "C#5",
                    "midi": 73,
                    "time": 41.59365600000002,
                    "velocity": 0.36220472440944884,
                    "duration": 0.47808800000000673
                },
                {
                    "name": "G#5",
                    "midi": 80,
                    "time": 41.95222200000002,
                    "velocity": 0.4330708661417323,
                    "duration": 0.05976100000000173
                },
                {
                    "name": "A#5",
                    "midi": 82,
                    "time": 42.01198300000002,
                    "velocity": 0.3937007874015748,
                    "duration": 0.05976100000000173
                },
                {
                    "name": "G#5",
                    "midi": 80,
                    "time": 42.071744000000024,
                    "velocity": 0.5196850393700787,
                    "duration": 0.2390439999999998
                },
                {
                    "name": "C#5",
                    "midi": 73,
                    "time": 42.071744000000024,
                    "velocity": 0.3464566929133858,
                    "duration": 0.4780879999999996
                },
                {
                    "name": "F5",
                    "midi": 77,
                    "time": 42.310788000000024,
                    "velocity": 0.44881889763779526,
                    "duration": 0.2390439999999998
                },
                {
                    "name": "C#5",
                    "midi": 73,
                    "time": 42.54983200000002,
                    "velocity": 0.49606299212598426,
                    "duration": 0.4780879999999996
                },
                {
                    "name": "F5",
                    "midi": 77,
                    "time": 42.78887600000002,
                    "velocity": 0.4409448818897638,
                    "duration": 0.2390439999999998
                },
                {
                    "name": "A#4",
                    "midi": 70,
                    "time": 43.02792000000002,
                    "velocity": 0.47244094488188976,
                    "duration": 0.2390439999999998
                },
                {
                    "name": "F5",
                    "midi": 77,
                    "time": 43.50600800000002,
                    "velocity": 0.5511811023622047,
                    "duration": 0.7171319999999994
                },
                {
                    "name": "C5",
                    "midi": 72,
                    "time": 43.50600800000002,
                    "velocity": 0.36220472440944884,
                    "duration": 0.9561759999999992
                },
                {
                    "name": "D#5",
                    "midi": 75,
                    "time": 44.22314000000002,
                    "velocity": 0.5118110236220472,
                    "duration": 0.2390439999999998
                },
                {
                    "name": "F5",
                    "midi": 77,
                    "time": 44.46218400000002,
                    "velocity": 0.5511811023622047,
                    "duration": 0.35856600000000327
                },
                {
                    "name": "C#5",
                    "midi": 73,
                    "time": 44.46218400000002,
                    "velocity": 0.36220472440944884,
                    "duration": 0.9561760000000064
                },
                {
                    "name": "F#5",
                    "midi": 78,
                    "time": 44.820750000000025,
                    "velocity": 0.5354330708661418,
                    "duration": 0.11952200000000346
                },
                {
                    "name": "G#5",
                    "midi": 80,
                    "time": 44.94027200000003,
                    "velocity": 0.5196850393700787,
                    "duration": 0.4780879999999996
                },
                {
                    "name": "G#5",
                    "midi": 80,
                    "time": 45.41836000000003,
                    "velocity": 0.3858267716535433,
                    "duration": 0.35856600000000327
                },
                {
                    "name": "A#5",
                    "midi": 82,
                    "time": 45.41836000000003,
                    "velocity": 0.5511811023622047,
                    "duration": 0.35856600000000327
                },
                {
                    "name": "C#5",
                    "midi": 73,
                    "time": 45.41836000000003,
                    "velocity": 0.3858267716535433,
                    "duration": 0.35856600000000327
                },
                {
                    "name": "C5",
                    "midi": 72,
                    "time": 45.77692600000003,
                    "velocity": 0.47244094488188976,
                    "duration": 0.47808800000000673
                },
                {
                    "name": "F#5",
                    "midi": 78,
                    "time": 45.83668700000003,
                    "velocity": 0.5354330708661418,
                    "duration": 0.418327000000005
                },
                {
                    "name": "A#5",
                    "midi": 82,
                    "time": 45.896448000000035,
                    "velocity": 0.5826771653543307,
                    "duration": 0.35856600000000327
                },
                {
                    "name": "G#5",
                    "midi": 80,
                    "time": 46.25501400000004,
                    "velocity": 0.4409448818897638,
                    "duration": 0.05976100000000173
                },
                {
                    "name": "A#5",
                    "midi": 82,
                    "time": 46.31477500000004,
                    "velocity": 0.4566929133858268,
                    "duration": 0.05976100000000173
                },
                {
                    "name": "G#5",
                    "midi": 80,
                    "time": 46.37453600000004,
                    "velocity": 0.5275590551181102,
                    "duration": 0.2390439999999998
                },
                {
                    "name": "F#5",
                    "midi": 78,
                    "time": 46.61358000000004,
                    "velocity": 0.44881889763779526,
                    "duration": 0.2390439999999998
                },
                {
                    "name": "F5",
                    "midi": 77,
                    "time": 46.85262400000004,
                    "velocity": 0.4566929133858268,
                    "duration": 0.2390439999999998
                },
                {
                    "name": "D#5",
                    "midi": 75,
                    "time": 47.09166800000004,
                    "velocity": 0.4330708661417323,
                    "duration": 0.11952200000000346
                },
                {
                    "name": "F#4",
                    "midi": 66,
                    "time": 47.211190000000045,
                    "velocity": 0.33858267716535434,
                    "duration": 0.47808800000000673
                },
                {
                    "name": "A#4",
                    "midi": 70,
                    "time": 47.270951000000046,
                    "velocity": 0.4409448818897638,
                    "duration": 0.418327000000005
                },
                {
                    "name": "F5",
                    "midi": 77,
                    "time": 47.33071200000005,
                    "velocity": 0.5354330708661418,
                    "duration": 0.35856600000000327
                },
                {
                    "name": "D#5",
                    "midi": 75,
                    "time": 47.68927800000005,
                    "velocity": 0.4094488188976378,
                    "duration": 0.05976100000000173
                },
                {
                    "name": "F5",
                    "midi": 77,
                    "time": 47.74903900000005,
                    "velocity": 0.4330708661417323,
                    "duration": 0.05976100000000173
                },
                {
                    "name": "D#5",
                    "midi": 75,
                    "time": 47.808800000000055,
                    "velocity": 0.4566929133858268,
                    "duration": 0.2390439999999998
                },
                {
                    "name": "C#5",
                    "midi": 73,
                    "time": 48.047844000000055,
                    "velocity": 0.4094488188976378,
                    "duration": 0.2390439999999998
                },
                {
                    "name": "C5",
                    "midi": 72,
                    "time": 48.286888000000054,
                    "velocity": 0.44881889763779526,
                    "duration": 0.2390439999999998
                },
                {
                    "name": "A#4",
                    "midi": 70,
                    "time": 48.525932000000054,
                    "velocity": 0.4094488188976378,
                    "duration": 0.2390439999999998
                },
                {
                    "name": "D#4",
                    "midi": 63,
                    "time": 48.764976000000054,
                    "velocity": 0.4251968503937008,
                    "duration": 0.35856600000000327
                },
                {
                    "name": "A#4",
                    "midi": 70,
                    "time": 48.764976000000054,
                    "velocity": 0.4645669291338583,
                    "duration": 0.35856600000000327
                },
                {
                    "name": "F#4",
                    "midi": 66,
                    "time": 48.764976000000054,
                    "velocity": 0.4251968503937008,
                    "duration": 0.35856600000000327
                },
                {
                    "name": "G#4",
                    "midi": 68,
                    "time": 49.12354200000006,
                    "velocity": 0.4251968503937008,
                    "duration": 0.05976100000000173
                },
                {
                    "name": "A#4",
                    "midi": 70,
                    "time": 49.18330300000006,
                    "velocity": 0.4251968503937008,
                    "duration": 0.05976100000000173
                },
                {
                    "name": "G#4",
                    "midi": 68,
                    "time": 49.24306400000006,
                    "velocity": 0.4645669291338583,
                    "duration": 0.2390439999999998
                },
                {
                    "name": "F#4",
                    "midi": 66,
                    "time": 49.48210800000006,
                    "velocity": 0.41732283464566927,
                    "duration": 0.2390439999999998
                },
                {
                    "name": "F4",
                    "midi": 65,
                    "time": 49.72115200000006,
                    "velocity": 0.4330708661417323,
                    "duration": 0.4780879999999996
                },
                {
                    "name": "D#4",
                    "midi": 63,
                    "time": 49.72115200000006,
                    "velocity": 0.3779527559055118,
                    "duration": 0.4780879999999996
                },
                {
                    "name": "G#4",
                    "midi": 68,
                    "time": 50.19924000000006,
                    "velocity": 0.4645669291338583,
                    "duration": 0.35856600000000327
                },
                {
                    "name": "C#4",
                    "midi": 61,
                    "time": 50.19924000000006,
                    "velocity": 0.4251968503937008,
                    "duration": 0.35856600000000327
                },
                {
                    "name": "F#4",
                    "midi": 66,
                    "time": 50.55780600000006,
                    "velocity": 0.36220472440944884,
                    "duration": 0.05976100000000173
                },
                {
                    "name": "G#4",
                    "midi": 68,
                    "time": 50.617567000000065,
                    "velocity": 0.4094488188976378,
                    "duration": 0.05976100000000173
                },
                {
                    "name": "F#4",
                    "midi": 66,
                    "time": 50.67732800000007,
                    "velocity": 0.4566929133858268,
                    "duration": 0.2390439999999998
                },
                {
                    "name": "F4",
                    "midi": 65,
                    "time": 50.91637200000007,
                    "velocity": 0.3858267716535433,
                    "duration": 0.2390439999999998
                },
                {
                    "name": "C#4",
                    "midi": 61,
                    "time": 51.155416000000066,
                    "velocity": 0.4251968503937008,
                    "duration": 0.4780879999999996
                },
                {
                    "name": "D#4",
                    "midi": 63,
                    "time": 51.155416000000066,
                    "velocity": 0.4645669291338583,
                    "duration": 0.2390439999999998
                },
                {
                    "name": "E4",
                    "midi": 64,
                    "time": 51.394460000000066,
                    "velocity": 0.4881889763779528,
                    "duration": 0.17928299999999808
                },
                {
                    "name": "C#4",
                    "midi": 61,
                    "time": 51.573743000000064,
                    "velocity": 0.44881889763779526,
                    "duration": 0.418327000000005
                },
                {
                    "name": "F4",
                    "midi": 65,
                    "time": 51.633504000000066,
                    "velocity": 0.5511811023622047,
                    "duration": 0.35856600000000327
                },
                {
                    "name": "D#4",
                    "midi": 63,
                    "time": 51.99207000000007,
                    "velocity": 0.4566929133858268,
                    "duration": 0.05976100000000173
                },
                {
                    "name": "F4",
                    "midi": 65,
                    "time": 52.05183100000007,
                    "velocity": 0.4645669291338583,
                    "duration": 0.05976100000000173
                },
                {
                    "name": "D#4",
                    "midi": 63,
                    "time": 52.11159200000007,
                    "velocity": 0.5039370078740157,
                    "duration": 0.2390439999999998
                },
                {
                    "name": "C#4",
                    "midi": 61,
                    "time": 52.35063600000007,
                    "velocity": 0.3779527559055118,
                    "duration": 0.2390439999999998
                },
                {
                    "name": "C4",
                    "midi": 60,
                    "time": 52.58968000000007,
                    "velocity": 0.48031496062992124,
                    "duration": 0.2390439999999998
                },
                {
                    "name": "A#3",
                    "midi": 58,
                    "time": 52.82872400000007,
                    "velocity": 0.4330708661417323,
                    "duration": 0.2390439999999998
                },
                {
                    "name": "G#3",
                    "midi": 56,
                    "time": 53.06776800000007,
                    "velocity": 0.3779527559055118,
                    "duration": 1.4342639999999989
                },
                {
                    "name": "F#3",
                    "midi": 54,
                    "time": 53.06776800000007,
                    "velocity": 0.3779527559055118,
                    "duration": 1.4342639999999989
                },
                {
                    "name": "F3",
                    "midi": 53,
                    "time": 54.98012000000007,
                    "velocity": 0.3858267716535433,
                    "duration": 0.9561759999999992
                },
                {
                    "name": "C#4",
                    "midi": 61,
                    "time": 54.98012000000007,
                    "velocity": 0.3858267716535433,
                    "duration": 0.9561759999999992
                },
                {
                    "name": "A#3",
                    "midi": 58,
                    "time": 55.93629600000007,
                    "velocity": 0.3858267716535433,
                    "duration": 0.17928299999999808
                },
                {
                    "name": "F#3",
                    "midi": 54,
                    "time": 55.93629600000007,
                    "velocity": 0.3858267716535433,
                    "duration": 0.17928299999999808
                },
                {
                    "name": "F4",
                    "midi": 65,
                    "time": 56.41438400000007,
                    "velocity": 0.4330708661417323,
                    "duration": 0.9561759999999992
                },
                {
                    "name": "B3",
                    "midi": 59,
                    "time": 57.37056000000007,
                    "velocity": 0.3858267716535433,
                    "duration": 0.17928299999999808
                },
                {
                    "name": "F#3",
                    "midi": 54,
                    "time": 57.37056000000007,
                    "velocity": 0.3858267716535433,
                    "duration": 0.17928299999999808
                },
                {
                    "name": "F4",
                    "midi": 65,
                    "time": 57.84864800000007,
                    "velocity": 0.4330708661417323,
                    "duration": 0.9561759999999992
                },
                {
                    "name": "F#3",
                    "midi": 54,
                    "time": 58.80482400000007,
                    "velocity": 0.3858267716535433,
                    "duration": 0.17928299999999808
                },
                {
                    "name": "C4",
                    "midi": 60,
                    "time": 58.80482400000007,
                    "velocity": 0.3858267716535433,
                    "duration": 0.17928299999999808
                },
                {
                    "name": "F4",
                    "midi": 65,
                    "time": 59.28291200000007,
                    "velocity": 0.4330708661417323,
                    "duration": 0.8964149999999975
                },
                {
                    "name": "G#3",
                    "midi": 56,
                    "time": 60.179327000000065,
                    "velocity": 0.36220472440944884,
                    "duration": 0.05976100000000173
                },
                {
                    "name": "C#4",
                    "midi": 61,
                    "time": 60.239088000000066,
                    "velocity": 0.36220472440944884,
                    "duration": 0.2390439999999998
                },
                {
                    "name": "F4",
                    "midi": 65,
                    "time": 60.239088000000066,
                    "velocity": 0.4015748031496063,
                    "duration": 0.2390439999999998
                },
                {
                    "name": "C4",
                    "midi": 60,
                    "time": 60.478132000000066,
                    "velocity": 0.3937007874015748,
                    "duration": 0.2390439999999998
                },
                {
                    "name": "B3",
                    "midi": 59,
                    "time": 60.717176000000066,
                    "velocity": 0.3858267716535433,
                    "duration": 0.2390439999999998
                },
                {
                    "name": "A#3",
                    "midi": 58,
                    "time": 60.956220000000066,
                    "velocity": 0.3779527559055118,
                    "duration": 0.1792830000000052
                },
                {
                    "name": "A3",
                    "midi": 57,
                    "time": 61.07574200000007,
                    "velocity": 0.3228346456692913,
                    "duration": 0.05976100000000173
                },
                {
                    "name": "A#3",
                    "midi": 58,
                    "time": 61.13550300000007,
                    "velocity": 0.29133858267716534,
                    "duration": 0.05976100000000173
                },
                {
                    "name": "A3",
                    "midi": 57,
                    "time": 61.19526400000007,
                    "velocity": 0.3700787401574803,
                    "duration": 0.2390439999999998
                },
                {
                    "name": "G#3",
                    "midi": 56,
                    "time": 61.43430800000007,
                    "velocity": 0.36220472440944884,
                    "duration": 0.2390439999999998
                },
                {
                    "name": "A#4",
                    "midi": 70,
                    "time": 61.67335200000007,
                    "velocity": 0.3858267716535433,
                    "duration": 0.17928299999999808
                },
                {
                    "name": "F#4",
                    "midi": 66,
                    "time": 61.67335200000007,
                    "velocity": 0.3858267716535433,
                    "duration": 0.17928299999999808
                },
                {
                    "name": "F5",
                    "midi": 77,
                    "time": 62.15144000000007,
                    "velocity": 0.44881889763779526,
                    "duration": 0.9561759999999992
                },
                {
                    "name": "F#4",
                    "midi": 66,
                    "time": 63.10761600000007,
                    "velocity": 0.3858267716535433,
                    "duration": 0.17928299999999808
                },
                {
                    "name": "B4",
                    "midi": 71,
                    "time": 63.10761600000007,
                    "velocity": 0.3858267716535433,
                    "duration": 0.17928299999999808
                },
                {
                    "name": "F5",
                    "midi": 77,
                    "time": 63.58570400000007,
                    "velocity": 0.44881889763779526,
                    "duration": 0.9561760000000064
                },
                {
                    "name": "C5",
                    "midi": 72,
                    "time": 64.54188000000008,
                    "velocity": 0.3858267716535433,
                    "duration": 0.17928299999999808
                },
                {
                    "name": "F#4",
                    "midi": 66,
                    "time": 64.54188000000008,
                    "velocity": 0.3858267716535433,
                    "duration": 0.17928299999999808
                },
                {
                    "name": "F5",
                    "midi": 77,
                    "time": 65.01996800000008,
                    "velocity": 0.4409448818897638,
                    "duration": 0.8964150000000046
                },
                {
                    "name": "G#4",
                    "midi": 68,
                    "time": 65.91638300000008,
                    "velocity": 0.3700787401574803,
                    "duration": 0.059760999999994624
                },
                {
                    "name": "F5",
                    "midi": 77,
                    "time": 65.97614400000008,
                    "velocity": 0.4015748031496063,
                    "duration": 0.23904400000000692
                },
                {
                    "name": "C#5",
                    "midi": 73,
                    "time": 65.97614400000008,
                    "velocity": 0.4015748031496063,
                    "duration": 0.23904400000000692
                },
                {
                    "name": "C5",
                    "midi": 72,
                    "time": 66.21518800000008,
                    "velocity": 0.3937007874015748,
                    "duration": 0.23904400000000692
                },
                {
                    "name": "B4",
                    "midi": 71,
                    "time": 66.45423200000009,
                    "velocity": 0.3858267716535433,
                    "duration": 0.23904400000000692
                },
                {
                    "name": "A#4",
                    "midi": 70,
                    "time": 66.6932760000001,
                    "velocity": 0.3779527559055118,
                    "duration": 0.17928299999999808
                },
                {
                    "name": "A4",
                    "midi": 69,
                    "time": 66.8127980000001,
                    "velocity": 0.3228346456692913,
                    "duration": 0.059760999999994624
                },
                {
                    "name": "A#4",
                    "midi": 70,
                    "time": 66.8725590000001,
                    "velocity": 0.29133858267716534,
                    "duration": 0.059760999999994624
                },
                {
                    "name": "A4",
                    "midi": 69,
                    "time": 66.93232000000009,
                    "velocity": 0.3700787401574803,
                    "duration": 0.23904400000000692
                },
                {
                    "name": "G#4",
                    "midi": 68,
                    "time": 67.1713640000001,
                    "velocity": 0.36220472440944884,
                    "duration": 0.23904400000000692
                },
                {
                    "name": "A4",
                    "midi": 69,
                    "time": 67.4104080000001,
                    "velocity": 0.33070866141732286,
                    "duration": 0.35856599999999617
                },
                {
                    "name": "C#5",
                    "midi": 73,
                    "time": 67.4104080000001,
                    "velocity": 0.3228346456692913,
                    "duration": 1.4342639999999847
                },
                {
                    "name": "G#4",
                    "midi": 68,
                    "time": 67.7689740000001,
                    "velocity": 0.29133858267716534,
                    "duration": 0.059760999999994624
                },
                {
                    "name": "A4",
                    "midi": 69,
                    "time": 67.8287350000001,
                    "velocity": 0.2677165354330709,
                    "duration": 0.059760999999994624
                },
                {
                    "name": "G#4",
                    "midi": 68,
                    "time": 67.88849600000009,
                    "velocity": 0.33070866141732286,
                    "duration": 0.23904400000000692
                },
                {
                    "name": "G4",
                    "midi": 67,
                    "time": 68.1275400000001,
                    "velocity": 0.2755905511811024,
                    "duration": 0.23904400000000692
                },
                {
                    "name": "G#4",
                    "midi": 68,
                    "time": 68.3665840000001,
                    "velocity": 0.2992125984251969,
                    "duration": 0.17928299999999808
                },
                {
                    "name": "G#4",
                    "midi": 68,
                    "time": 68.6056280000001,
                    "velocity": 0.2677165354330709,
                    "duration": 0.15936266666666654
                },
                {
                    "name": "G#4",
                    "midi": 68,
                    "time": 68.7251500000001,
                    "velocity": 0.28346456692913385,
                    "duration": 1.5537859999999881
                },
                {
                    "name": "C#5",
                    "midi": 73,
                    "time": 68.7849110000001,
                    "velocity": 0.2992125984251969,
                    "duration": 1.4940249999999935
                },
                {
                    "name": "G#5",
                    "midi": 80,
                    "time": 68.84467200000009,
                    "velocity": 0.31496062992125984,
                    "duration": 1.4342639999999989
                },
                {
                    "name": "C#4",
                    "midi": 61,
                    "time": 70.75702400000009,
                    "velocity": 0.2283464566929134,
                    "duration": 0.9561759999999992
                },
                {
                    "name": "A3",
                    "midi": 57,
                    "time": 71.71320000000009,
                    "velocity": 0.2677165354330709,
                    "duration": 1.4342639999999989
                },
                {
                    "name": "C#4",
                    "midi": 61,
                    "time": 71.71320000000009,
                    "velocity": 0.36220472440944884,
                    "duration": 0.35856599999999617
                },
                {
                    "name": "C#4",
                    "midi": 61,
                    "time": 72.07176600000008,
                    "velocity": 0.3464566929133858,
                    "duration": 0.059760999999994624
                },
                {
                    "name": "E4",
                    "midi": 64,
                    "time": 72.13152700000008,
                    "velocity": 0.29133858267716534,
                    "duration": 0.059760999999994624
                },
                {
                    "name": "D4",
                    "midi": 62,
                    "time": 72.19128800000007,
                    "velocity": 0.3858267716535433,
                    "duration": 0.7171320000000065
                },
                {
                    "name": "C#4",
                    "midi": 61,
                    "time": 72.90842000000008,
                    "velocity": 0.36220472440944884,
                    "duration": 0.23904400000000692
                },
                {
                    "name": "A3",
                    "midi": 57,
                    "time": 73.14746400000008,
                    "velocity": 0.28346456692913385,
                    "duration": 1.434264000000013
                },
                {
                    "name": "B3",
                    "midi": 59,
                    "time": 73.14746400000008,
                    "velocity": 0.3858267716535433,
                    "duration": 0.35856599999999617
                },
                {
                    "name": "C#4",
                    "midi": 61,
                    "time": 73.50603000000008,
                    "velocity": 0.3543307086614173,
                    "duration": 0.11952200000000346
                },
                {
                    "name": "D4",
                    "midi": 62,
                    "time": 73.62555200000008,
                    "velocity": 0.3858267716535433,
                    "duration": 0.7171320000000065
                },
                {
                    "name": "C#4",
                    "midi": 61,
                    "time": 74.34268400000009,
                    "velocity": 0.36220472440944884,
                    "duration": 0.23904400000000692
                },
                {
                    "name": "A3",
                    "midi": 57,
                    "time": 74.5817280000001,
                    "velocity": 0.28346456692913385,
                    "duration": 0.4780879999999996
                },
                {
                    "name": "B3",
                    "midi": 59,
                    "time": 74.5817280000001,
                    "velocity": 0.3858267716535433,
                    "duration": 0.23904400000000692
                },
                {
                    "name": "C#4",
                    "midi": 61,
                    "time": 74.8207720000001,
                    "velocity": 0.3543307086614173,
                    "duration": 0.17928299999999808
                },
                {
                    "name": "D4",
                    "midi": 62,
                    "time": 74.94029400000011,
                    "velocity": 0.30708661417322836,
                    "duration": 0.059760999999994624
                },
                {
                    "name": "E4",
                    "midi": 64,
                    "time": 75.0000550000001,
                    "velocity": 0.2755905511811024,
                    "duration": 0.059760999999994624
                },
                {
                    "name": "A3",
                    "midi": 57,
                    "time": 75.0598160000001,
                    "velocity": 0.28346456692913385,
                    "duration": 0.47808800000001384
                },
                {
                    "name": "B3",
                    "midi": 59,
                    "time": 75.0598160000001,
                    "velocity": 0.28346456692913385,
                    "duration": 0.47808800000001384
                },
                {
                    "name": "D4",
                    "midi": 62,
                    "time": 75.0598160000001,
                    "velocity": 0.3858267716535433,
                    "duration": 0.23904400000000692
                },
                {
                    "name": "C#4",
                    "midi": 61,
                    "time": 75.2988600000001,
                    "velocity": 0.3543307086614173,
                    "duration": 0.23904400000000692
                },
                {
                    "name": "A3",
                    "midi": 57,
                    "time": 75.53790400000011,
                    "velocity": 0.2755905511811024,
                    "duration": 0.4780879999999996
                },
                {
                    "name": "B3",
                    "midi": 59,
                    "time": 75.53790400000011,
                    "velocity": 0.2755905511811024,
                    "duration": 0.4780879999999996
                },
                {
                    "name": "D4",
                    "midi": 62,
                    "time": 75.53790400000011,
                    "velocity": 0.3779527559055118,
                    "duration": 0.4780879999999996
                },
                {
                    "name": "A3",
                    "midi": 57,
                    "time": 76.01599200000011,
                    "velocity": 0.3228346456692913,
                    "duration": 1.4342639999999989
                },
                {
                    "name": "C4",
                    "midi": 60,
                    "time": 76.01599200000011,
                    "velocity": 0.3228346456692913,
                    "duration": 1.4342639999999989
                },
                {
                    "name": "D#4",
                    "midi": 63,
                    "time": 76.01599200000011,
                    "velocity": 0.4409448818897638,
                    "duration": 0.4780879999999996
                },
                {
                    "name": "A4",
                    "midi": 69,
                    "time": 76.49408000000011,
                    "velocity": 0.4409448818897638,
                    "duration": 0.9561759999999992
                },
                {
                    "name": "B3",
                    "midi": 59,
                    "time": 77.45025600000011,
                    "velocity": 0.3228346456692913,
                    "duration": 0.7171320000000065
                },
                {
                    "name": "E4",
                    "midi": 64,
                    "time": 77.45025600000011,
                    "velocity": 0.4409448818897638,
                    "duration": 0.4780879999999996
                },
                {
                    "name": "B3",
                    "midi": 59,
                    "time": 77.92834400000011,
                    "velocity": 0.4015748031496063,
                    "duration": 0.47808800000001384
                },
                {
                    "name": "C#4",
                    "midi": 61,
                    "time": 78.16738800000012,
                    "velocity": 0.3858267716535433,
                    "duration": 0.23904400000000692
                },
                {
                    "name": "A#3",
                    "midi": 58,
                    "time": 78.40643200000012,
                    "velocity": 0.31496062992125984,
                    "duration": 0.47808800000001384
                },
                {
                    "name": "C#4",
                    "midi": 61,
                    "time": 78.40643200000012,
                    "velocity": 0.31496062992125984,
                    "duration": 0.47808800000001384
                },
                {
                    "name": "F#4",
                    "midi": 66,
                    "time": 78.40643200000012,
                    "velocity": 0.4330708661417323,
                    "duration": 0.23904400000000692
                },
                {
                    "name": "E4",
                    "midi": 64,
                    "time": 78.64547600000013,
                    "velocity": 0.4015748031496063,
                    "duration": 0.23904400000000692
                },
                {
                    "name": "A3",
                    "midi": 57,
                    "time": 78.88452000000014,
                    "velocity": 0.3228346456692913,
                    "duration": 0.4780879999999854
                },
                {
                    "name": "E4",
                    "midi": 64,
                    "time": 78.88452000000014,
                    "velocity": 0.4409448818897638,
                    "duration": 0.35856599999999617
                },
                {
                    "name": "D4",
                    "midi": 62,
                    "time": 79.24308600000013,
                    "velocity": 0.3858267716535433,
                    "duration": 0.059760999999994624
                },
                {
                    "name": "E4",
                    "midi": 64,
                    "time": 79.30284700000013,
                    "velocity": 0.3543307086614173,
                    "duration": 0.059760999999994624
                },
                {
                    "name": "A3",
                    "midi": 57,
                    "time": 79.36260800000012,
                    "velocity": 0.2755905511811024,
                    "duration": 0.47808800000001384
                },
                {
                    "name": "D4",
                    "midi": 62,
                    "time": 79.36260800000012,
                    "velocity": 0.4015748031496063,
                    "duration": 0.23904400000000692
                },
                {
                    "name": "C#4",
                    "midi": 61,
                    "time": 79.60165200000013,
                    "velocity": 0.3858267716535433,
                    "duration": 0.23904400000000692
                },
                {
                    "name": "A3",
                    "midi": 57,
                    "time": 79.84069600000014,
                    "velocity": 0.30708661417322836,
                    "duration": 0.4780879999999996
                },
                {
                    "name": "D4",
                    "midi": 62,
                    "time": 79.84069600000014,
                    "velocity": 0.41732283464566927,
                    "duration": 0.4780879999999996
                },
                {
                    "name": "F#3",
                    "midi": 54,
                    "time": 80.31878400000014,
                    "velocity": 0.33070866141732286,
                    "duration": 0.4780879999999996
                },
                {
                    "name": "C#4",
                    "midi": 61,
                    "time": 80.31878400000014,
                    "velocity": 0.3937007874015748,
                    "duration": 0.35856599999999617
                },
                {
                    "name": "C#4",
                    "midi": 61,
                    "time": 80.67735000000013,
                    "velocity": 0.3937007874015748,
                    "duration": 0.11952200000000346
                },
                {
                    "name": "F#3",
                    "midi": 54,
                    "time": 80.79687200000014,
                    "velocity": 0.31496062992125984,
                    "duration": 0.9561759999999992
                },
                {
                    "name": "B3",
                    "midi": 59,
                    "time": 80.79687200000014,
                    "velocity": 0.4015748031496063,
                    "duration": 0.9561759999999992
                },
                {
                    "name": "F#4",
                    "midi": 66,
                    "time": 81.27496000000014,
                    "velocity": 0.49606299212598426,
                    "duration": 0.4780879999999996
                },
                {
                    "name": "F#3",
                    "midi": 54,
                    "time": 81.75304800000013,
                    "velocity": 0.3464566929133858,
                    "duration": 0.4780879999999996
                },
                {
                    "name": "B3",
                    "midi": 59,
                    "time": 81.75304800000013,
                    "velocity": 0.3464566929133858,
                    "duration": 1.4342639999999989
                },
                {
                    "name": "G#4",
                    "midi": 68,
                    "time": 81.75304800000013,
                    "velocity": 0.5354330708661418,
                    "duration": 0.9561759999999992
                },
                {
                    "name": "C#4",
                    "midi": 61,
                    "time": 82.70922400000013,
                    "velocity": 0.47244094488188976,
                    "duration": 0.4780879999999996
                },
                {
                    "name": "A4",
                    "midi": 69,
                    "time": 83.18731200000013,
                    "velocity": 0.5669291338582677,
                    "duration": 0.9561759999999992
                },
                {
                    "name": "A3",
                    "midi": 57,
                    "time": 83.66540000000013,
                    "velocity": 0.36220472440944884,
                    "duration": 0.4780879999999996
                },
                {
                    "name": "D#4",
                    "midi": 63,
                    "time": 83.66540000000013,
                    "velocity": 0.36220472440944884,
                    "duration": 0.4780879999999996
                },
                {
                    "name": "A3",
                    "midi": 57,
                    "time": 84.14348800000013,
                    "velocity": 0.36220472440944884,
                    "duration": 0.47808800000001384
                },
                {
                    "name": "D#4",
                    "midi": 63,
                    "time": 84.14348800000013,
                    "velocity": 0.36220472440944884,
                    "duration": 0.47808800000001384
                },
                {
                    "name": "G#4",
                    "midi": 68,
                    "time": 84.14348800000013,
                    "velocity": 0.5433070866141733,
                    "duration": 0.23904400000000692
                },
                {
                    "name": "F#4",
                    "midi": 66,
                    "time": 84.38253200000014,
                    "velocity": 0.48031496062992124,
                    "duration": 0.23904400000000692
                },
                {
                    "name": "F#4",
                    "midi": 66,
                    "time": 84.62157600000015,
                    "velocity": 0.5039370078740157,
                    "duration": 0.4183269999999908
                },
                {
                    "name": "E4",
                    "midi": 64,
                    "time": 84.98014200000014,
                    "velocity": 0.4094488188976378,
                    "duration": 0.059760999999994624
                },
                {
                    "name": "F#4",
                    "midi": 66,
                    "time": 85.03990300000014,
                    "velocity": 0.4015748031496063,
                    "duration": 0.059760999999994624
                },
                {
                    "name": "A3",
                    "midi": 57,
                    "time": 85.09966400000013,
                    "velocity": 0.31496062992125984,
                    "duration": 0.47808800000001384
                },
                {
                    "name": "E4",
                    "midi": 64,
                    "time": 85.09966400000013,
                    "velocity": 0.4881889763779528,
                    "duration": 0.23904400000000692
                },
                {
                    "name": "D#4",
                    "midi": 63,
                    "time": 85.33870800000014,
                    "velocity": 0.4566929133858268,
                    "duration": 0.23904400000000692
                },
                {
                    "name": "A3",
                    "midi": 57,
                    "time": 85.57775200000015,
                    "velocity": 0.3543307086614173,
                    "duration": 0.4780879999999996
                },
                {
                    "name": "E4",
                    "midi": 64,
                    "time": 85.57775200000015,
                    "velocity": 0.5354330708661418,
                    "duration": 0.4780879999999996
                },
                {
                    "name": "A4",
                    "midi": 69,
                    "time": 86.05584000000015,
                    "velocity": 0.5511811023622047,
                    "duration": 0.9561759999999992
                },
                {
                    "name": "A3",
                    "midi": 57,
                    "time": 86.53392800000015,
                    "velocity": 0.3700787401574803,
                    "duration": 0.4780879999999996
                },
                {
                    "name": "E4",
                    "midi": 64,
                    "time": 86.53392800000015,
                    "velocity": 0.3700787401574803,
                    "duration": 0.4780879999999996
                },
                {
                    "name": "A3",
                    "midi": 57,
                    "time": 87.01201600000014,
                    "velocity": 0.36220472440944884,
                    "duration": 0.47808800000001384
                },
                {
                    "name": "E4",
                    "midi": 64,
                    "time": 87.01201600000014,
                    "velocity": 0.36220472440944884,
                    "duration": 0.47808800000001384
                },
                {
                    "name": "G#4",
                    "midi": 68,
                    "time": 87.01201600000014,
                    "velocity": 0.5433070866141733,
                    "duration": 0.23904400000000692
                },
                {
                    "name": "G4",
                    "midi": 67,
                    "time": 87.25106000000015,
                    "velocity": 0.48031496062992124,
                    "duration": 0.23904400000000692
                },
                {
                    "name": "G4",
                    "midi": 67,
                    "time": 87.49010400000016,
                    "velocity": 0.5196850393700787,
                    "duration": 0.4183269999999908
                },
                {
                    "name": "F#4",
                    "midi": 66,
                    "time": 87.84867000000015,
                    "velocity": 0.4566929133858268,
                    "duration": 0.059760999999994624
                },
                {
                    "name": "G4",
                    "midi": 67,
                    "time": 87.90843100000015,
                    "velocity": 0.41732283464566927,
                    "duration": 0.059760999999994624
                },
                {
                    "name": "A3",
                    "midi": 57,
                    "time": 87.96819200000014,
                    "velocity": 0.3228346456692913,
                    "duration": 0.47808800000001384
                },
                {
                    "name": "D4",
                    "midi": 62,
                    "time": 87.96819200000014,
                    "velocity": 0.3228346456692913,
                    "duration": 0.47808800000001384
                },
                {
                    "name": "F#4",
                    "midi": 66,
                    "time": 87.96819200000014,
                    "velocity": 0.49606299212598426,
                    "duration": 0.23904400000000692
                },
                {
                    "name": "F4",
                    "midi": 65,
                    "time": 88.20723600000015,
                    "velocity": 0.47244094488188976,
                    "duration": 0.23904400000000692
                },
                {
                    "name": "A3",
                    "midi": 57,
                    "time": 88.44628000000016,
                    "velocity": 0.33070866141732286,
                    "duration": 0.4780879999999996
                },
                {
                    "name": "D4",
                    "midi": 62,
                    "time": 88.44628000000016,
                    "velocity": 0.33070866141732286,
                    "duration": 0.4780879999999996
                },
                {
                    "name": "F#4",
                    "midi": 66,
                    "time": 88.44628000000016,
                    "velocity": 0.5039370078740157,
                    "duration": 0.4780879999999996
                },
                {
                    "name": "C#5",
                    "midi": 73,
                    "time": 88.92436800000016,
                    "velocity": 0.5826771653543307,
                    "duration": 0.9561759999999992
                },
                {
                    "name": "C#4",
                    "midi": 61,
                    "time": 89.40245600000016,
                    "velocity": 0.33070866141732286,
                    "duration": 0.4780879999999996
                },
                {
                    "name": "G#4",
                    "midi": 68,
                    "time": 89.40245600000016,
                    "velocity": 0.33070866141732286,
                    "duration": 0.4780879999999996
                },
                {
                    "name": "C#4",
                    "midi": 61,
                    "time": 89.88054400000016,
                    "velocity": 0.33070866141732286,
                    "duration": 0.47808800000001384
                },
                {
                    "name": "G#4",
                    "midi": 68,
                    "time": 89.88054400000016,
                    "velocity": 0.33070866141732286,
                    "duration": 0.47808800000001384
                },
                {
                    "name": "C5",
                    "midi": 72,
                    "time": 89.88054400000016,
                    "velocity": 0.5039370078740157,
                    "duration": 0.23904400000000692
                },
                {
                    "name": "B4",
                    "midi": 71,
                    "time": 90.11958800000016,
                    "velocity": 0.47244094488188976,
                    "duration": 0.23904400000000692
                },
                {
                    "name": "A4",
                    "midi": 69,
                    "time": 90.35863200000017,
                    "velocity": 0.5511811023622047,
                    "duration": 0.9561759999999992
                },
                {
                    "name": "A3",
                    "midi": 57,
                    "time": 90.83672000000017,
                    "velocity": 0.3228346456692913,
                    "duration": 0.4780879999999996
                },
                {
                    "name": "C#4",
                    "midi": 61,
                    "time": 90.83672000000017,
                    "velocity": 0.3228346456692913,
                    "duration": 0.4780879999999996
                },
                {
                    "name": "A3",
                    "midi": 57,
                    "time": 91.31480800000017,
                    "velocity": 0.3228346456692913,
                    "duration": 0.47808800000001384
                },
                {
                    "name": "C#4",
                    "midi": 61,
                    "time": 91.31480800000017,
                    "velocity": 0.3228346456692913,
                    "duration": 0.47808800000001384
                },
                {
                    "name": "G#4",
                    "midi": 68,
                    "time": 91.31480800000017,
                    "velocity": 0.5354330708661418,
                    "duration": 0.23904400000000692
                },
                {
                    "name": "F#4",
                    "midi": 66,
                    "time": 91.55385200000018,
                    "velocity": 0.4881889763779528,
                    "duration": 0.23904400000000692
                },
                {
                    "name": "F#4",
                    "midi": 66,
                    "time": 91.79289600000018,
                    "velocity": 0.5433070866141733,
                    "duration": 0.7171320000000065
                },
                {
                    "name": "A3",
                    "midi": 57,
                    "time": 92.27098400000018,
                    "velocity": 0.36220472440944884,
                    "duration": 0.47808800000001384
                },
                {
                    "name": "D#4",
                    "midi": 63,
                    "time": 92.27098400000018,
                    "velocity": 0.4015748031496063,
                    "duration": 0.47808800000001384
                },
                {
                    "name": "F#4",
                    "midi": 66,
                    "time": 92.51002800000019,
                    "velocity": 0.4881889763779528,
                    "duration": 0.23904400000000692
                },
                {
                    "name": "A3",
                    "midi": 57,
                    "time": 92.7490720000002,
                    "velocity": 0.31496062992125984,
                    "duration": 0.47808800000001384
                },
                {
                    "name": "D#4",
                    "midi": 63,
                    "time": 92.7490720000002,
                    "velocity": 0.31496062992125984,
                    "duration": 0.47808800000001384
                },
                {
                    "name": "G#4",
                    "midi": 68,
                    "time": 92.7490720000002,
                    "velocity": 0.5039370078740157,
                    "duration": 0.23904400000000692
                },
                {
                    "name": "F#4",
                    "midi": 66,
                    "time": 92.9881160000002,
                    "velocity": 0.4881889763779528,
                    "duration": 0.23904400000000692
                },
                {
                    "name": "F#4",
                    "midi": 66,
                    "time": 93.22716000000021,
                    "velocity": 0.5354330708661418,
                    "duration": 0.7171320000000065
                },
                {
                    "name": "G#3",
                    "midi": 56,
                    "time": 93.70524800000021,
                    "velocity": 0.3228346456692913,
                    "duration": 0.47808800000001384
                },
                {
                    "name": "D4",
                    "midi": 62,
                    "time": 93.70524800000021,
                    "velocity": 0.3700787401574803,
                    "duration": 0.47808800000001384
                },
                {
                    "name": "E4",
                    "midi": 64,
                    "time": 93.94429200000022,
                    "velocity": 0.4094488188976378,
                    "duration": 0.23904400000000692
                },
                {
                    "name": "A3",
                    "midi": 57,
                    "time": 94.18333600000022,
                    "velocity": 0.2677165354330709,
                    "duration": 0.23904400000000692
                },
                {
                    "name": "D#4",
                    "midi": 63,
                    "time": 94.18333600000022,
                    "velocity": 0.4094488188976378,
                    "duration": 0.23904400000000692
                },
                {
                    "name": "B3",
                    "midi": 59,
                    "time": 94.42238000000023,
                    "velocity": 0.2125984251968504,
                    "duration": 0.23904400000000692
                },
                {
                    "name": "D4",
                    "midi": 62,
                    "time": 94.42238000000023,
                    "velocity": 0.33070866141732286,
                    "duration": 0.23904400000000692
                },
                {
                    "name": "C#4",
                    "midi": 61,
                    "time": 94.66142400000024,
                    "velocity": 0.3858267716535433,
                    "duration": 0.35856599999999617
                },
                {
                    "name": "A4",
                    "midi": 69,
                    "time": 94.66142400000024,
                    "velocity": 0.3858267716535433,
                    "duration": 0.35856599999999617
                },
                {
                    "name": "C#5",
                    "midi": 73,
                    "time": 94.66142400000024,
                    "velocity": 0.5039370078740157,
                    "duration": 0.35856599999999617
                },
                {
                    "name": "C#5",
                    "midi": 73,
                    "time": 95.01999000000023,
                    "velocity": 0.4881889763779528,
                    "duration": 0.059760999999994624
                },
                {
                    "name": "E5",
                    "midi": 76,
                    "time": 95.07975100000023,
                    "velocity": 0.4094488188976378,
                    "duration": 0.059760999999994624
                },
                {
                    "name": "A4",
                    "midi": 69,
                    "time": 95.13951200000022,
                    "velocity": 0.3858267716535433,
                    "duration": 0.9561760000000135
                },
                {
                    "name": "D5",
                    "midi": 74,
                    "time": 95.13951200000022,
                    "velocity": 0.5669291338582677,
                    "duration": 0.7171320000000065
                },
                {
                    "name": "C#5",
                    "midi": 73,
                    "time": 95.85664400000023,
                    "velocity": 0.5039370078740157,
                    "duration": 0.23904400000000692
                },
                {
                    "name": "D4",
                    "midi": 62,
                    "time": 96.09568800000024,
                    "velocity": 0.30708661417322836,
                    "duration": 0.4780879999999996
                },
                {
                    "name": "A4",
                    "midi": 69,
                    "time": 96.09568800000024,
                    "velocity": 0.3543307086614173,
                    "duration": 0.4780879999999996
                },
                {
                    "name": "B4",
                    "midi": 71,
                    "time": 96.09568800000024,
                    "velocity": 0.5669291338582677,
                    "duration": 0.35856599999999617
                },
                {
                    "name": "C#5",
                    "midi": 73,
                    "time": 96.45425400000023,
                    "velocity": 0.49606299212598426,
                    "duration": 0.11952200000000346
                },
                {
                    "name": "B4",
                    "midi": 71,
                    "time": 96.57377600000024,
                    "velocity": 0.41732283464566927,
                    "duration": 0.9561760000000135
                },
                {
                    "name": "A4",
                    "midi": 69,
                    "time": 96.57377600000024,
                    "velocity": 0.3700787401574803,
                    "duration": 0.9561760000000135
                },
                {
                    "name": "D5",
                    "midi": 74,
                    "time": 96.57377600000024,
                    "velocity": 0.5669291338582677,
                    "duration": 0.7171320000000065
                },
                {
                    "name": "C#5",
                    "midi": 73,
                    "time": 97.29090800000024,
                    "velocity": 0.5039370078740157,
                    "duration": 0.23904400000000692
                },
                {
                    "name": "D4",
                    "midi": 62,
                    "time": 97.52995200000025,
                    "velocity": 0.28346456692913385,
                    "duration": 0.4780879999999996
                },
                {
                    "name": "A4",
                    "midi": 69,
                    "time": 97.52995200000025,
                    "velocity": 0.28346456692913385,
                    "duration": 0.4780879999999996
                },
                {
                    "name": "B4",
                    "midi": 71,
                    "time": 97.52995200000025,
                    "velocity": 0.5669291338582677,
                    "duration": 0.23904400000000692
                },
                {
                    "name": "C#5",
                    "midi": 73,
                    "time": 97.76899600000026,
                    "velocity": 0.49606299212598426,
                    "duration": 0.17928299999999808
                },
                {
                    "name": "D5",
                    "midi": 74,
                    "time": 97.88851800000026,
                    "velocity": 0.4015748031496063,
                    "duration": 0.059760999999994624
                },
                {
                    "name": "E5",
                    "midi": 76,
                    "time": 97.94827900000026,
                    "velocity": 0.3858267716535433,
                    "duration": 0.059760999999994624
                },
                {
                    "name": "A4",
                    "midi": 69,
                    "time": 98.00804000000025,
                    "velocity": 0.4015748031496063,
                    "duration": 0.47808800000001384
                },
                {
                    "name": "B4",
                    "midi": 71,
                    "time": 98.00804000000025,
                    "velocity": 0.4015748031496063,
                    "duration": 0.47808800000001384
                },
                {
                    "name": "D5",
                    "midi": 74,
                    "time": 98.00804000000025,
                    "velocity": 0.5669291338582677,
                    "duration": 0.23904400000000692
                },
                {
                    "name": "C#5",
                    "midi": 73,
                    "time": 98.24708400000026,
                    "velocity": 0.49606299212598426,
                    "duration": 0.23904400000000692
                },
                {
                    "name": "A4",
                    "midi": 69,
                    "time": 98.48612800000026,
                    "velocity": 0.4015748031496063,
                    "duration": 0.4780879999999996
                },
                {
                    "name": "B4",
                    "midi": 71,
                    "time": 98.48612800000026,
                    "velocity": 0.4015748031496063,
                    "duration": 0.4780879999999996
                },
                {
                    "name": "D5",
                    "midi": 74,
                    "time": 98.48612800000026,
                    "velocity": 0.5511811023622047,
                    "duration": 0.4780879999999996
                },
                {
                    "name": "A4",
                    "midi": 69,
                    "time": 98.96421600000026,
                    "velocity": 0.48031496062992124,
                    "duration": 1.4342639999999989
                },
                {
                    "name": "C5",
                    "midi": 72,
                    "time": 98.96421600000026,
                    "velocity": 0.48031496062992124,
                    "duration": 1.4342639999999989
                },
                {
                    "name": "D#5",
                    "midi": 75,
                    "time": 98.96421600000026,
                    "velocity": 0.6377952755905512,
                    "duration": 0.4780879999999996
                },
                {
                    "name": "A5",
                    "midi": 81,
                    "time": 99.44230400000026,
                    "velocity": 0.6220472440944882,
                    "duration": 0.9561759999999992
                },
                {
                    "name": "E5",
                    "midi": 76,
                    "time": 100.39848000000026,
                    "velocity": 0.6377952755905512,
                    "duration": 0.4780879999999996
                },
                {
                    "name": "E4",
                    "midi": 64,
                    "time": 100.87656800000026,
                    "velocity": 0.41732283464566927,
                    "duration": 0.47808800000001384
                },
                {
                    "name": "B4",
                    "midi": 71,
                    "time": 100.87656800000026,
                    "velocity": 0.5748031496062992,
                    "duration": 0.23904400000000692
                },
                {
                    "name": "C#5",
                    "midi": 73,
                    "time": 101.11561200000027,
                    "velocity": 0.5669291338582677,
                    "duration": 0.23904400000000692
                },
                {
                    "name": "A#4",
                    "midi": 70,
                    "time": 101.35465600000028,
                    "velocity": 0.4566929133858268,
                    "duration": 0.47808800000001384
                },
                {
                    "name": "C#5",
                    "midi": 73,
                    "time": 101.35465600000028,
                    "velocity": 0.4566929133858268,
                    "duration": 0.47808800000001384
                },
                {
                    "name": "F#5",
                    "midi": 78,
                    "time": 101.35465600000028,
                    "velocity": 0.6062992125984252,
                    "duration": 0.23904400000000692
                },
                {
                    "name": "E5",
                    "midi": 76,
                    "time": 101.59370000000028,
                    "velocity": 0.5748031496062992,
                    "duration": 0.23904400000000692
                },
                {
                    "name": "E5",
                    "midi": 76,
                    "time": 101.83274400000029,
                    "velocity": 0.6377952755905512,
                    "duration": 0.35856599999999617
                },
                {
                    "name": "D5",
                    "midi": 74,
                    "time": 102.19131000000029,
                    "velocity": 0.5669291338582677,
                    "duration": 0.059760999999994624
                },
                {
                    "name": "E5",
                    "midi": 76,
                    "time": 102.25107100000028,
                    "velocity": 0.49606299212598426,
                    "duration": 0.059760999999994624
                },
                {
                    "name": "A4",
                    "midi": 69,
                    "time": 102.31083200000027,
                    "velocity": 0.4409448818897638,
                    "duration": 0.47808800000001384
                },
                {
                    "name": "D5",
                    "midi": 74,
                    "time": 102.31083200000027,
                    "velocity": 0.5905511811023622,
                    "duration": 0.23904400000000692
                },
                {
                    "name": "C#5",
                    "midi": 73,
                    "time": 102.54987600000028,
                    "velocity": 0.5669291338582677,
                    "duration": 0.23904400000000692
                },
                {
                    "name": "D4",
                    "midi": 62,
                    "time": 102.78892000000029,
                    "velocity": 0.44881889763779526,
                    "duration": 0.4780879999999996
                },
                {
                    "name": "A4",
                    "midi": 69,
                    "time": 102.78892000000029,
                    "velocity": 0.44881889763779526,
                    "duration": 0.4780879999999996
                },
                {
                    "name": "D5",
                    "midi": 74,
                    "time": 102.78892000000029,
                    "velocity": 0.6062992125984252,
                    "duration": 0.4780879999999996
                },
                {
                    "name": "C#5",
                    "midi": 73,
                    "time": 103.26700800000029,
                    "velocity": 0.5826771653543307,
                    "duration": 0.4780879999999996
                },
                {
                    "name": "C#4",
                    "midi": 61,
                    "time": 103.74509600000029,
                    "velocity": 0.3937007874015748,
                    "duration": 0.47808800000001384
                },
                {
                    "name": "G#4",
                    "midi": 68,
                    "time": 103.74509600000029,
                    "velocity": 0.5275590551181102,
                    "duration": 0.23904400000000692
                },
                {
                    "name": "A#4",
                    "midi": 70,
                    "time": 103.9841400000003,
                    "velocity": 0.5196850393700787,
                    "duration": 0.23904400000000692
                },
                {
                    "name": "G4",
                    "midi": 67,
                    "time": 104.2231840000003,
                    "velocity": 0.4094488188976378,
                    "duration": 0.47808800000001384
                },
                {
                    "name": "A#4",
                    "midi": 70,
                    "time": 104.2231840000003,
                    "velocity": 0.4094488188976378,
                    "duration": 0.47808800000001384
                },
                {
                    "name": "D5",
                    "midi": 74,
                    "time": 104.2231840000003,
                    "velocity": 0.5748031496062992,
                    "duration": 0.23904400000000692
                },
                {
                    "name": "C#5",
                    "midi": 73,
                    "time": 104.46222800000031,
                    "velocity": 0.5275590551181102,
                    "duration": 0.23904400000000692
                },
                {
                    "name": "C#5",
                    "midi": 73,
                    "time": 104.70127200000032,
                    "velocity": 0.5826771653543307,
                    "duration": 0.35856599999999617
                },
                {
                    "name": "B4",
                    "midi": 71,
                    "time": 105.05983800000031,
                    "velocity": 0.4645669291338583,
                    "duration": 0.059760999999994624
                },
                {
                    "name": "C#5",
                    "midi": 73,
                    "time": 105.1195990000003,
                    "velocity": 0.4015748031496063,
                    "duration": 0.059760999999994624
                },
                {
                    "name": "F#4",
                    "midi": 66,
                    "time": 105.1793600000003,
                    "velocity": 0.36220472440944884,
                    "duration": 0.47808800000001384
                },
                {
                    "name": "B4",
                    "midi": 71,
                    "time": 105.1793600000003,
                    "velocity": 0.4881889763779528,
                    "duration": 0.23904400000000692
                },
                {
                    "name": "A#4",
                    "midi": 70,
                    "time": 105.41840400000031,
                    "velocity": 0.4645669291338583,
                    "duration": 0.23904400000000692
                },
                {
                    "name": "B3",
                    "midi": 59,
                    "time": 105.65744800000031,
                    "velocity": 0.36220472440944884,
                    "duration": 0.4780879999999996
                },
                {
                    "name": "F#4",
                    "midi": 66,
                    "time": 105.65744800000031,
                    "velocity": 0.36220472440944884,
                    "duration": 0.4780879999999996
                },
                {
                    "name": "B4",
                    "midi": 71,
                    "time": 105.65744800000031,
                    "velocity": 0.4881889763779528,
                    "duration": 0.4780879999999996
                },
                {
                    "name": "B4",
                    "midi": 71,
                    "time": 106.13553600000031,
                    "velocity": 0.5354330708661418,
                    "duration": 0.35856599999999617
                },
                {
                    "name": "B4",
                    "midi": 71,
                    "time": 106.49410200000031,
                    "velocity": 0.48031496062992124,
                    "duration": 0.11952200000000346
                },
                {
                    "name": "B3",
                    "midi": 59,
                    "time": 106.61362400000031,
                    "velocity": 0.4094488188976378,
                    "duration": 0.9561759999999992
                },
                {
                    "name": "F#4",
                    "midi": 66,
                    "time": 106.61362400000031,
                    "velocity": 0.5511811023622047,
                    "duration": 0.4780879999999996
                },
                {
                    "name": "G#4",
                    "midi": 68,
                    "time": 107.09171200000031,
                    "velocity": 0.48031496062992124,
                    "duration": 0.4780879999999996
                },
                {
                    "name": "F#4",
                    "midi": 66,
                    "time": 107.56980000000031,
                    "velocity": 0.3858267716535433,
                    "duration": 0.4780879999999996
                },
                {
                    "name": "G#4",
                    "midi": 68,
                    "time": 107.56980000000031,
                    "velocity": 0.5196850393700787,
                    "duration": 0.4780879999999996
                },
                {
                    "name": "F4",
                    "midi": 65,
                    "time": 108.04788800000031,
                    "velocity": 0.3464566929133858,
                    "duration": 0.9561759999999992
                },
                {
                    "name": "C#5",
                    "midi": 73,
                    "time": 108.04788800000031,
                    "velocity": 0.4645669291338583,
                    "duration": 0.9561759999999992
                },
                {
                    "name": "B4",
                    "midi": 71,
                    "time": 109.00406400000031,
                    "velocity": 0.49606299212598426,
                    "duration": 0.35856599999999617
                },
                {
                    "name": "B4",
                    "midi": 71,
                    "time": 109.36263000000031,
                    "velocity": 0.4566929133858268,
                    "duration": 0.11952200000000346
                },
                {
                    "name": "B3",
                    "midi": 59,
                    "time": 109.48215200000031,
                    "velocity": 0.3700787401574803,
                    "duration": 0.9561759999999992
                },
                {
                    "name": "F#4",
                    "midi": 66,
                    "time": 109.48215200000031,
                    "velocity": 0.4881889763779528,
                    "duration": 0.4780879999999996
                },
                {
                    "name": "G#4",
                    "midi": 68,
                    "time": 109.96024000000031,
                    "velocity": 0.4330708661417323,
                    "duration": 0.4780879999999996
                },
                {
                    "name": "F#4",
                    "midi": 66,
                    "time": 110.43832800000031,
                    "velocity": 0.3464566929133858,
                    "duration": 0.4780879999999996
                },
                {
                    "name": "G#4",
                    "midi": 68,
                    "time": 110.43832800000031,
                    "velocity": 0.4645669291338583,
                    "duration": 0.4780879999999996
                },
                {
                    "name": "F4",
                    "midi": 65,
                    "time": 110.91641600000031,
                    "velocity": 0.30708661417322836,
                    "duration": 0.9561759999999992
                },
                {
                    "name": "C#5",
                    "midi": 73,
                    "time": 110.91641600000031,
                    "velocity": 0.4094488188976378,
                    "duration": 0.9561759999999992
                },
                {
                    "name": "F#4",
                    "midi": 66,
                    "time": 111.87259200000031,
                    "velocity": 0.3464566929133858,
                    "duration": 0.4780879999999996
                },
                {
                    "name": "G#4",
                    "midi": 68,
                    "time": 111.87259200000031,
                    "velocity": 0.4645669291338583,
                    "duration": 0.4780879999999996
                },
                {
                    "name": "F4",
                    "midi": 65,
                    "time": 112.35068000000031,
                    "velocity": 0.30708661417322836,
                    "duration": 0.9561759999999992
                },
                {
                    "name": "C#5",
                    "midi": 73,
                    "time": 112.35068000000031,
                    "velocity": 0.4094488188976378,
                    "duration": 0.9561759999999992
                },
                {
                    "name": "F#4",
                    "midi": 66,
                    "time": 113.30685600000031,
                    "velocity": 0.3464566929133858,
                    "duration": 0.4780879999999996
                },
                {
                    "name": "G#4",
                    "midi": 68,
                    "time": 113.30685600000031,
                    "velocity": 0.4645669291338583,
                    "duration": 0.4780879999999996
                },
                {
                    "name": "F4",
                    "midi": 65,
                    "time": 113.78494400000031,
                    "velocity": 0.30708661417322836,
                    "duration": 0.9561759999999992
                },
                {
                    "name": "C#5",
                    "midi": 73,
                    "time": 113.78494400000031,
                    "velocity": 0.4094488188976378,
                    "duration": 0.9561759999999992
                },
                {
                    "name": "G#4",
                    "midi": 68,
                    "time": 115.21920800000031,
                    "velocity": 0.30708661417322836,
                    "duration": 0.9561759999999992
                },
                {
                    "name": "F#4",
                    "midi": 66,
                    "time": 115.21920800000031,
                    "velocity": 0.2755905511811024,
                    "duration": 0.9561759999999992
                },
                {
                    "name": "G#4",
                    "midi": 68,
                    "time": 116.6534720000003,
                    "velocity": 0.30708661417322836,
                    "duration": 0.9561759999999992
                },
                {
                    "name": "F#4",
                    "midi": 66,
                    "time": 116.6534720000003,
                    "velocity": 0.2755905511811024,
                    "duration": 0.9561759999999992
                },
                {
                    "name": "G#4",
                    "midi": 68,
                    "time": 118.0877360000003,
                    "velocity": 0.2992125984251969,
                    "duration": 0.9561759999999992
                },
                {
                    "name": "F#4",
                    "midi": 66,
                    "time": 118.0877360000003,
                    "velocity": 0.2677165354330709,
                    "duration": 0.9561759999999992
                },
                {
                    "name": "G#3",
                    "midi": 56,
                    "time": 119.5220000000003,
                    "velocity": 0.2677165354330709,
                    "duration": 0.23904400000000692
                },
                {
                    "name": "F#3",
                    "midi": 54,
                    "time": 119.5220000000003,
                    "velocity": 0.2204724409448819,
                    "duration": 0.23904400000000692
                },
                {
                    "name": "G#3",
                    "midi": 56,
                    "time": 120.00008800000032,
                    "velocity": 0.2677165354330709,
                    "duration": 0.23904400000000692
                },
                {
                    "name": "F#3",
                    "midi": 54,
                    "time": 120.00008800000032,
                    "velocity": 0.2204724409448819,
                    "duration": 0.23904400000000692
                },
                {
                    "name": "G#3",
                    "midi": 56,
                    "time": 120.95626400000033,
                    "velocity": 0.2677165354330709,
                    "duration": 0.23904400000000692
                },
                {
                    "name": "F#3",
                    "midi": 54,
                    "time": 120.95626400000033,
                    "velocity": 0.2204724409448819,
                    "duration": 0.23904400000000692
                },
                {
                    "name": "G#3",
                    "midi": 56,
                    "time": 121.43435200000035,
                    "velocity": 0.2677165354330709,
                    "duration": 0.23904400000000692
                },
                {
                    "name": "F#3",
                    "midi": 54,
                    "time": 121.43435200000035,
                    "velocity": 0.2204724409448819,
                    "duration": 0.23904400000000692
                },
                {
                    "name": "C#4",
                    "midi": 61,
                    "time": 122.39052800000036,
                    "velocity": 0.25984251968503935,
                    "duration": 0.23904400000000692
                },
                {
                    "name": "F4",
                    "midi": 65,
                    "time": 122.39052800000036,
                    "velocity": 0.30708661417322836,
                    "duration": 0.23904400000000692
                },
                {
                    "name": "C#4",
                    "midi": 61,
                    "time": 122.86861600000037,
                    "velocity": 0.2755905511811024,
                    "duration": 0.23904400000000692
                },
                {
                    "name": "F4",
                    "midi": 65,
                    "time": 122.86861600000037,
                    "velocity": 0.3228346456692913,
                    "duration": 0.23904400000000692
                },
                {
                    "name": "G#4",
                    "midi": 68,
                    "time": 123.82479200000039,
                    "velocity": 0.31496062992125984,
                    "duration": 0.23904400000000692
                },
                {
                    "name": "F#4",
                    "midi": 66,
                    "time": 123.82479200000039,
                    "velocity": 0.2677165354330709,
                    "duration": 0.23904400000000692
                },
                {
                    "name": "D#4",
                    "midi": 63,
                    "time": 123.82479200000039,
                    "velocity": 0.2677165354330709,
                    "duration": 0.23904400000000692
                },
                {
                    "name": "G#4",
                    "midi": 68,
                    "time": 124.3028800000004,
                    "velocity": 0.31496062992125984,
                    "duration": 0.23904400000000692
                },
                {
                    "name": "F#4",
                    "midi": 66,
                    "time": 124.3028800000004,
                    "velocity": 0.2677165354330709,
                    "duration": 0.23904400000000692
                },
                {
                    "name": "D#4",
                    "midi": 63,
                    "time": 124.3028800000004,
                    "velocity": 0.2677165354330709,
                    "duration": 0.23904400000000692
                },
                {
                    "name": "G#4",
                    "midi": 68,
                    "time": 125.25905600000041,
                    "velocity": 0.28346456692913385,
                    "duration": 0.23904400000000692
                },
                {
                    "name": "C#4",
                    "midi": 61,
                    "time": 125.25905600000041,
                    "velocity": 0.23622047244094488,
                    "duration": 0.23904400000000692
                },
                {
                    "name": "F4",
                    "midi": 65,
                    "time": 125.25905600000041,
                    "velocity": 0.23622047244094488,
                    "duration": 0.23904400000000692
                },
                {
                    "name": "C#4",
                    "midi": 61,
                    "time": 125.73714400000043,
                    "velocity": 0.2283464566929134,
                    "duration": 0.23904400000000692
                },
                {
                    "name": "F4",
                    "midi": 65,
                    "time": 125.73714400000043,
                    "velocity": 0.2283464566929134,
                    "duration": 0.23904400000000692
                },
                {
                    "name": "G#4",
                    "midi": 68,
                    "time": 125.73714400000043,
                    "velocity": 0.2755905511811024,
                    "duration": 0.23904400000000692
                },
                {
                    "name": "G#3",
                    "midi": 56,
                    "time": 126.69332000000044,
                    "velocity": 0.2677165354330709,
                    "duration": 0.23904400000000692
                },
                {
                    "name": "F#3",
                    "midi": 54,
                    "time": 126.69332000000044,
                    "velocity": 0.2204724409448819,
                    "duration": 0.23904400000000692
                },
                {
                    "name": "G#3",
                    "midi": 56,
                    "time": 127.17140800000045,
                    "velocity": 0.2677165354330709,
                    "duration": 0.23904400000000692
                },
                {
                    "name": "F#3",
                    "midi": 54,
                    "time": 127.17140800000045,
                    "velocity": 0.2204724409448819,
                    "duration": 0.23904400000000692
                },
                {
                    "name": "C#4",
                    "midi": 61,
                    "time": 128.12758400000047,
                    "velocity": 0.25984251968503935,
                    "duration": 0.23904400000000692
                },
                {
                    "name": "F4",
                    "midi": 65,
                    "time": 128.12758400000047,
                    "velocity": 0.30708661417322836,
                    "duration": 0.23904400000000692
                },
                {
                    "name": "C#4",
                    "midi": 61,
                    "time": 128.60567200000048,
                    "velocity": 0.2755905511811024,
                    "duration": 0.23904400000000692
                },
                {
                    "name": "F4",
                    "midi": 65,
                    "time": 128.60567200000048,
                    "velocity": 0.3228346456692913,
                    "duration": 0.23904400000000692
                },
                {
                    "name": "G4",
                    "midi": 67,
                    "time": 129.56184800000048,
                    "velocity": 0.31496062992125984,
                    "duration": 0.23904400000000692
                },
                {
                    "name": "E4",
                    "midi": 64,
                    "time": 129.56184800000048,
                    "velocity": 0.2677165354330709,
                    "duration": 0.23904400000000692
                },
                {
                    "name": "G4",
                    "midi": 67,
                    "time": 130.0399360000005,
                    "velocity": 0.31496062992125984,
                    "duration": 0.23904400000000692
                },
                {
                    "name": "E4",
                    "midi": 64,
                    "time": 130.0399360000005,
                    "velocity": 0.2677165354330709,
                    "duration": 0.23904400000000692
                },
                {
                    "name": "A4",
                    "midi": 69,
                    "time": 130.9961120000005,
                    "velocity": 0.28346456692913385,
                    "duration": 0.23904400000000692
                },
                {
                    "name": "F4",
                    "midi": 65,
                    "time": 130.9961120000005,
                    "velocity": 0.23622047244094488,
                    "duration": 0.23904400000000692
                },
                {
                    "name": "F4",
                    "midi": 65,
                    "time": 131.4742000000005,
                    "velocity": 0.2283464566929134,
                    "duration": 0.23904400000000692
                },
                {
                    "name": "A4",
                    "midi": 69,
                    "time": 131.4742000000005,
                    "velocity": 0.2755905511811024,
                    "duration": 0.23904400000000692
                },
                {
                    "name": "D4",
                    "midi": 62,
                    "time": 131.95228800000052,
                    "velocity": 0.4330708661417323,
                    "duration": 0.23904400000000692
                },
                {
                    "name": "E4",
                    "midi": 64,
                    "time": 132.43037600000054,
                    "velocity": 0.3228346456692913,
                    "duration": 0.9561759999999992
                },
                {
                    "name": "A4",
                    "midi": 69,
                    "time": 132.43037600000054,
                    "velocity": 0.4881889763779528,
                    "duration": 0.7171319999999923
                },
                {
                    "name": "G4",
                    "midi": 67,
                    "time": 133.14750800000053,
                    "velocity": 0.4330708661417323,
                    "duration": 0.23904400000000692
                },
                {
                    "name": "F4",
                    "midi": 65,
                    "time": 133.38655200000053,
                    "velocity": 0.3228346456692913,
                    "duration": 0.9561759999999992
                },
                {
                    "name": "A4",
                    "midi": 69,
                    "time": 133.38655200000053,
                    "velocity": 0.49606299212598426,
                    "duration": 0.35856599999999617
                },
                {
                    "name": "A#4",
                    "midi": 70,
                    "time": 133.74511800000053,
                    "velocity": 0.4645669291338583,
                    "duration": 0.11952199999998925
                },
                {
                    "name": "C5",
                    "midi": 72,
                    "time": 133.86464000000052,
                    "velocity": 0.48031496062992124,
                    "duration": 0.47808800000001384
                },
                {
                    "name": "F4",
                    "midi": 65,
                    "time": 134.34272800000053,
                    "velocity": 0.3228346456692913,
                    "duration": 0.47808800000001384
                },
                {
                    "name": "D5",
                    "midi": 74,
                    "time": 134.34272800000053,
                    "velocity": 0.47244094488188976,
                    "duration": 0.23904400000000692
                },
                {
                    "name": "F5",
                    "midi": 77,
                    "time": 134.58177200000054,
                    "velocity": 0.44881889763779526,
                    "duration": 0.23904400000000692
                },
                {
                    "name": "A#4",
                    "midi": 70,
                    "time": 134.82081600000055,
                    "velocity": 0.33858267716535434,
                    "duration": 0.47808800000001384
                },
                {
                    "name": "F5",
                    "midi": 77,
                    "time": 134.82081600000055,
                    "velocity": 0.48031496062992124,
                    "duration": 0.35856599999999617
                },
                {
                    "name": "E5",
                    "midi": 76,
                    "time": 135.17938200000054,
                    "velocity": 0.4409448818897638,
                    "duration": 0.059761000000008835
                },
                {
                    "name": "F5",
                    "midi": 77,
                    "time": 135.23914300000055,
                    "velocity": 0.4409448818897638,
                    "duration": 0.059761000000008835
                },
                {
                    "name": "A#4",
                    "midi": 70,
                    "time": 135.29890400000056,
                    "velocity": 0.33070866141732286,
                    "duration": 0.47808800000001384
                },
                {
                    "name": "E5",
                    "midi": 76,
                    "time": 135.29890400000056,
                    "velocity": 0.5118110236220472,
                    "duration": 0.23904400000000692
                },
                {
                    "name": "D5",
                    "midi": 74,
                    "time": 135.53794800000057,
                    "velocity": 0.47244094488188976,
                    "duration": 0.23904400000000692
                },
                {
                    "name": "A#4",
                    "midi": 70,
                    "time": 135.77699200000058,
                    "velocity": 0.33858267716535434,
                    "duration": 0.47808800000001384
                },
                {
                    "name": "E5",
                    "midi": 76,
                    "time": 135.77699200000058,
                    "velocity": 0.5118110236220472,
                    "duration": 0.23904400000000692
                },
                {
                    "name": "C5",
                    "midi": 72,
                    "time": 136.01603600000058,
                    "velocity": 0.4645669291338583,
                    "duration": 0.23904400000000692
                },
                {
                    "name": "F4",
                    "midi": 65,
                    "time": 136.2550800000006,
                    "velocity": 0.3228346456692913,
                    "duration": 0.47808800000001384
                },
                {
                    "name": "D5",
                    "midi": 74,
                    "time": 136.2550800000006,
                    "velocity": 0.47244094488188976,
                    "duration": 0.35856599999999617
                },
                {
                    "name": "C5",
                    "midi": 72,
                    "time": 136.61364600000059,
                    "velocity": 0.3858267716535433,
                    "duration": 0.059761000000008835
                },
                {
                    "name": "D5",
                    "midi": 74,
                    "time": 136.6734070000006,
                    "velocity": 0.3464566929133858,
                    "duration": 0.059761000000008835
                },
                {
                    "name": "F4",
                    "midi": 65,
                    "time": 136.7331680000006,
                    "velocity": 0.3228346456692913,
                    "duration": 0.47808800000001384
                },
                {
                    "name": "C5",
                    "midi": 72,
                    "time": 136.7331680000006,
                    "velocity": 0.4566929133858268,
                    "duration": 0.23904400000000692
                },
                {
                    "name": "A4",
                    "midi": 69,
                    "time": 136.9722120000006,
                    "velocity": 0.4094488188976378,
                    "duration": 0.23904400000000692
                },
                {
                    "name": "F4",
                    "midi": 65,
                    "time": 137.21125600000062,
                    "velocity": 0.4409448818897638,
                    "duration": 0.47808800000001384
                },
                {
                    "name": "A4",
                    "midi": 69,
                    "time": 137.45030000000062,
                    "velocity": 0.3937007874015748,
                    "duration": 0.23904400000000692
                },
                {
                    "name": "D4",
                    "midi": 62,
                    "time": 137.68934400000063,
                    "velocity": 0.4330708661417323,
                    "duration": 0.23904400000000692
                },
                {
                    "name": "E4",
                    "midi": 64,
                    "time": 138.16743200000064,
                    "velocity": 0.3228346456692913,
                    "duration": 0.9561759999999992
                },
                {
                    "name": "A4",
                    "midi": 69,
                    "time": 138.16743200000064,
                    "velocity": 0.4881889763779528,
                    "duration": 0.7171319999999923
                },
                {
                    "name": "G4",
                    "midi": 67,
                    "time": 138.88456400000064,
                    "velocity": 0.4566929133858268,
                    "duration": 0.23904400000000692
                },
                {
                    "name": "F4",
                    "midi": 65,
                    "time": 139.12360800000064,
                    "velocity": 0.3228346456692913,
                    "duration": 0.9561759999999992
                },
                {
                    "name": "A4",
                    "midi": 69,
                    "time": 139.12360800000064,
                    "velocity": 0.49606299212598426,
                    "duration": 0.35856599999999617
                },
                {
                    "name": "A#4",
                    "midi": 70,
                    "time": 139.48217400000064,
                    "velocity": 0.48031496062992124,
                    "duration": 0.11952199999998925
                },
                {
                    "name": "C5",
                    "midi": 72,
                    "time": 139.60169600000063,
                    "velocity": 0.5039370078740157,
                    "duration": 0.47808800000001384
                },
                {
                    "name": "F4",
                    "midi": 65,
                    "time": 140.07978400000064,
                    "velocity": 0.3464566929133858,
                    "duration": 0.29880499999998733
                },
                {
                    "name": "D5",
                    "midi": 74,
                    "time": 140.07978400000064,
                    "velocity": 0.5039370078740157,
                    "duration": 0.29880499999998733
                },
                {
                    "name": "E4",
                    "midi": 64,
                    "time": 140.43835000000064,
                    "velocity": 0.4330708661417323,
                    "duration": 0.47808800000001384
                },
                {
                    "name": "A#4",
                    "midi": 70,
                    "time": 140.49811100000065,
                    "velocity": 0.47244094488188976,
                    "duration": 0.418327000000005
                },
                {
                    "name": "D5",
                    "midi": 74,
                    "time": 140.55787200000066,
                    "velocity": 0.5433070866141733,
                    "duration": 0.35856599999999617
                },
                {
                    "name": "C5",
                    "midi": 72,
                    "time": 140.91643800000065,
                    "velocity": 0.41732283464566927,
                    "duration": 0.059761000000008835
                },
                {
                    "name": "D5",
                    "midi": 74,
                    "time": 140.97619900000066,
                    "velocity": 0.4330708661417323,
                    "duration": 0.059761000000008835
                },
                {
                    "name": "C5",
                    "midi": 72,
                    "time": 141.03596000000067,
                    "velocity": 0.4645669291338583,
                    "duration": 0.23904400000000692
                },
                {
                    "name": "A#4",
                    "midi": 70,
                    "time": 141.27500400000068,
                    "velocity": 0.4015748031496063,
                    "duration": 0.23904400000000692
                },
                {
                    "name": "A4",
                    "midi": 69,
                    "time": 141.51404800000068,
                    "velocity": 0.4330708661417323,
                    "duration": 0.23904400000000692
                },
                {
                    "name": "G4",
                    "midi": 67,
                    "time": 141.7530920000007,
                    "velocity": 0.4015748031496063,
                    "duration": 0.23904400000000692
                },
                {
                    "name": "A4",
                    "midi": 69,
                    "time": 141.9921360000007,
                    "velocity": 0.3464566929133858,
                    "duration": 0.35856599999999617
                },
                {
                    "name": "E4",
                    "midi": 64,
                    "time": 141.9921360000007,
                    "velocity": 0.3464566929133858,
                    "duration": 0.35856599999999617
                },
                {
                    "name": "C5",
                    "midi": 72,
                    "time": 141.9921360000007,
                    "velocity": 0.4881889763779528,
                    "duration": 0.35856599999999617
                },
                {
                    "name": "G4",
                    "midi": 67,
                    "time": 142.3507020000007,
                    "velocity": 0.4015748031496063,
                    "duration": 0.059761000000008835
                },
                {
                    "name": "A4",
                    "midi": 69,
                    "time": 142.4104630000007,
                    "velocity": 0.3700787401574803,
                    "duration": 0.059761000000008835
                },
                {
                    "name": "G4",
                    "midi": 67,
                    "time": 142.4702240000007,
                    "velocity": 0.4645669291338583,
                    "duration": 0.23904400000000692
                },
                {
                    "name": "F4",
                    "midi": 65,
                    "time": 142.70926800000072,
                    "velocity": 0.4330708661417323,
                    "duration": 0.23904400000000692
                },
                {
                    "name": "E4",
                    "midi": 64,
                    "time": 142.94831200000073,
                    "velocity": 0.4645669291338583,
                    "duration": 0.29880499999998733
                },
                {
                    "name": "A#3",
                    "midi": 58,
                    "time": 143.30687800000072,
                    "velocity": 0.36220472440944884,
                    "duration": 0.47808800000001384
                },
                {
                    "name": "D4",
                    "midi": 62,
                    "time": 143.36663900000073,
                    "velocity": 0.3937007874015748,
                    "duration": 0.418327000000005
                },
                {
                    "name": "A4",
                    "midi": 69,
                    "time": 143.42640000000074,
                    "velocity": 0.44881889763779526,
                    "duration": 0.35856599999999617
                },
                {
                    "name": "G4",
                    "midi": 67,
                    "time": 143.78496600000074,
                    "velocity": 0.3228346456692913,
                    "duration": 0.059761000000008835
                },
                {
                    "name": "A4",
                    "midi": 69,
                    "time": 143.84472700000074,
                    "velocity": 0.31496062992125984,
                    "duration": 0.059761000000008835
                },
                {
                    "name": "G4",
                    "midi": 67,
                    "time": 143.90448800000075,
                    "velocity": 0.3700787401574803,
                    "duration": 0.23904400000000692
                },
                {
                    "name": "F4",
                    "midi": 65,
                    "time": 144.14353200000076,
                    "velocity": 0.31496062992125984,
                    "duration": 0.23904400000000692
                },
                {
                    "name": "E4",
                    "midi": 64,
                    "time": 144.38257600000077,
                    "velocity": 0.36220472440944884,
                    "duration": 0.23904400000000692
                },
                {
                    "name": "D4",
                    "midi": 62,
                    "time": 144.62162000000077,
                    "velocity": 0.31496062992125984,
                    "duration": 0.23904400000000692
                },
                {
                    "name": "A#3",
                    "midi": 58,
                    "time": 144.86066400000078,
                    "velocity": 0.2992125984251969,
                    "duration": 1.434264000000013
                },
                {
                    "name": "C4",
                    "midi": 60,
                    "time": 144.86066400000078,
                    "velocity": 0.2992125984251969,
                    "duration": 1.434264000000013
                },
                {
                    "name": "G#3",
                    "midi": 56,
                    "time": 146.7730160000008,
                    "velocity": 0.2677165354330709,
                    "duration": 0.23904400000000692
                },
                {
                    "name": "F#3",
                    "midi": 54,
                    "time": 146.7730160000008,
                    "velocity": 0.2204724409448819,
                    "duration": 0.23904400000000692
                },
                {
                    "name": "G#3",
                    "midi": 56,
                    "time": 147.25110400000082,
                    "velocity": 0.2677165354330709,
                    "duration": 0.23904400000000692
                },
                {
                    "name": "F#3",
                    "midi": 54,
                    "time": 147.25110400000082,
                    "velocity": 0.2204724409448819,
                    "duration": 0.23904400000000692
                },
                {
                    "name": "C#4",
                    "midi": 61,
                    "time": 148.20728000000082,
                    "velocity": 0.25984251968503935,
                    "duration": 0.23904400000000692
                },
                {
                    "name": "F4",
                    "midi": 65,
                    "time": 148.20728000000082,
                    "velocity": 0.30708661417322836,
                    "duration": 0.23904400000000692
                },
                {
                    "name": "C#4",
                    "midi": 61,
                    "time": 148.68536800000084,
                    "velocity": 0.2755905511811024,
                    "duration": 0.23904400000000692
                },
                {
                    "name": "F4",
                    "midi": 65,
                    "time": 148.68536800000084,
                    "velocity": 0.3228346456692913,
                    "duration": 0.23904400000000692
                },
                {
                    "name": "G#4",
                    "midi": 68,
                    "time": 149.64154400000083,
                    "velocity": 0.31496062992125984,
                    "duration": 0.23904400000000692
                },
                {
                    "name": "F#4",
                    "midi": 66,
                    "time": 149.64154400000083,
                    "velocity": 0.2677165354330709,
                    "duration": 0.23904400000000692
                },
                {
                    "name": "D#4",
                    "midi": 63,
                    "time": 149.64154400000083,
                    "velocity": 0.2677165354330709,
                    "duration": 0.23904400000000692
                },
                {
                    "name": "G#4",
                    "midi": 68,
                    "time": 150.11963200000085,
                    "velocity": 0.31496062992125984,
                    "duration": 0.23904400000000692
                },
                {
                    "name": "F#4",
                    "midi": 66,
                    "time": 150.11963200000085,
                    "velocity": 0.2677165354330709,
                    "duration": 0.23904400000000692
                },
                {
                    "name": "D#4",
                    "midi": 63,
                    "time": 150.11963200000085,
                    "velocity": 0.2677165354330709,
                    "duration": 0.23904400000000692
                },
                {
                    "name": "G#4",
                    "midi": 68,
                    "time": 151.07580800000085,
                    "velocity": 0.28346456692913385,
                    "duration": 0.23904400000000692
                },
                {
                    "name": "C#4",
                    "midi": 61,
                    "time": 151.07580800000085,
                    "velocity": 0.23622047244094488,
                    "duration": 0.23904400000000692
                },
                {
                    "name": "F4",
                    "midi": 65,
                    "time": 151.07580800000085,
                    "velocity": 0.23622047244094488,
                    "duration": 0.23904400000000692
                },
                {
                    "name": "C#4",
                    "midi": 61,
                    "time": 151.55389600000086,
                    "velocity": 0.2283464566929134,
                    "duration": 0.23904400000000692
                },
                {
                    "name": "F4",
                    "midi": 65,
                    "time": 151.55389600000086,
                    "velocity": 0.2283464566929134,
                    "duration": 0.23904400000000692
                },
                {
                    "name": "G#4",
                    "midi": 68,
                    "time": 151.55389600000086,
                    "velocity": 0.2755905511811024,
                    "duration": 0.23904400000000692
                },
                {
                    "name": "G#3",
                    "midi": 56,
                    "time": 152.51007200000086,
                    "velocity": 0.2677165354330709,
                    "duration": 0.23904400000000692
                },
                {
                    "name": "F#3",
                    "midi": 54,
                    "time": 152.51007200000086,
                    "velocity": 0.2204724409448819,
                    "duration": 0.23904400000000692
                },
                {
                    "name": "G#3",
                    "midi": 56,
                    "time": 152.98816000000087,
                    "velocity": 0.2677165354330709,
                    "duration": 0.23904400000000692
                },
                {
                    "name": "F#3",
                    "midi": 54,
                    "time": 152.98816000000087,
                    "velocity": 0.2204724409448819,
                    "duration": 0.23904400000000692
                },
                {
                    "name": "C#4",
                    "midi": 61,
                    "time": 153.94433600000087,
                    "velocity": 0.25984251968503935,
                    "duration": 0.23904400000000692
                },
                {
                    "name": "F4",
                    "midi": 65,
                    "time": 153.94433600000087,
                    "velocity": 0.30708661417322836,
                    "duration": 0.23904400000000692
                },
                {
                    "name": "C#4",
                    "midi": 61,
                    "time": 154.4224240000009,
                    "velocity": 0.2755905511811024,
                    "duration": 0.23904400000000692
                },
                {
                    "name": "F4",
                    "midi": 65,
                    "time": 154.4224240000009,
                    "velocity": 0.3228346456692913,
                    "duration": 0.23904400000000692
                },
                {
                    "name": "G4",
                    "midi": 67,
                    "time": 155.3786000000009,
                    "velocity": 0.31496062992125984,
                    "duration": 0.23904400000000692
                },
                {
                    "name": "E4",
                    "midi": 64,
                    "time": 155.3786000000009,
                    "velocity": 0.2677165354330709,
                    "duration": 0.23904400000000692
                },
                {
                    "name": "G4",
                    "midi": 67,
                    "time": 155.8566880000009,
                    "velocity": 0.31496062992125984,
                    "duration": 0.23904400000000692
                },
                {
                    "name": "E4",
                    "midi": 64,
                    "time": 155.8566880000009,
                    "velocity": 0.2677165354330709,
                    "duration": 0.23904400000000692
                },
                {
                    "name": "G#4",
                    "midi": 68,
                    "time": 156.8128640000009,
                    "velocity": 0.28346456692913385,
                    "duration": 0.23904400000000692
                },
                {
                    "name": "F4",
                    "midi": 65,
                    "time": 156.8128640000009,
                    "velocity": 0.23622047244094488,
                    "duration": 0.23904400000000692
                },
                {
                    "name": "F4",
                    "midi": 65,
                    "time": 157.2909520000009,
                    "velocity": 0.2283464566929134,
                    "duration": 0.23904400000000692
                },
                {
                    "name": "G#4",
                    "midi": 68,
                    "time": 157.2909520000009,
                    "velocity": 0.2755905511811024,
                    "duration": 0.23904400000000692
                },
                {
                    "name": "A#4",
                    "midi": 70,
                    "time": 157.76904000000093,
                    "velocity": 0.47244094488188976,
                    "duration": 0.23904400000000692
                },
                {
                    "name": "C5",
                    "midi": 72,
                    "time": 158.24712800000094,
                    "velocity": 0.36220472440944884,
                    "duration": 0.9561759999999992
                },
                {
                    "name": "F5",
                    "midi": 77,
                    "time": 158.24712800000094,
                    "velocity": 0.5511811023622047,
                    "duration": 0.7171319999999923
                },
                {
                    "name": "D#5",
                    "midi": 75,
                    "time": 158.96426000000093,
                    "velocity": 0.47244094488188976,
                    "duration": 0.23904400000000692
                },
                {
                    "name": "C#5",
                    "midi": 73,
                    "time": 159.20330400000094,
                    "velocity": 0.36220472440944884,
                    "duration": 0.9561759999999992
                },
                {
                    "name": "F5",
                    "midi": 77,
                    "time": 159.20330400000094,
                    "velocity": 0.5511811023622047,
                    "duration": 0.35856599999999617
                },
                {
                    "name": "F#5",
                    "midi": 78,
                    "time": 159.56187000000094,
                    "velocity": 0.49606299212598426,
                    "duration": 0.11952199999998925
                },
                {
                    "name": "G#5",
                    "midi": 80,
                    "time": 159.68139200000093,
                    "velocity": 0.5275590551181102,
                    "duration": 0.47808800000001384
                },
                {
                    "name": "G#5",
                    "midi": 80,
                    "time": 160.15948000000094,
                    "velocity": 0.31496062992125984,
                    "duration": 0.47808800000001384
                },
                {
                    "name": "C#5",
                    "midi": 73,
                    "time": 160.15948000000094,
                    "velocity": 0.31496062992125984,
                    "duration": 0.47808800000001384
                },
                {
                    "name": "A#5",
                    "midi": 82,
                    "time": 160.15948000000094,
                    "velocity": 0.49606299212598426,
                    "duration": 0.23904400000000692
                },
                {
                    "name": "C#6",
                    "midi": 85,
                    "time": 160.39852400000095,
                    "velocity": 0.4881889763779528,
                    "duration": 0.23904400000000692
                },
                {
                    "name": "C#5",
                    "midi": 73,
                    "time": 160.63756800000095,
                    "velocity": 0.3858267716535433,
                    "duration": 0.47808800000001384
                },
                {
                    "name": "F#5",
                    "midi": 78,
                    "time": 160.63756800000095,
                    "velocity": 0.3858267716535433,
                    "duration": 0.47808800000001384
                },
                {
                    "name": "C#6",
                    "midi": 85,
                    "time": 160.63756800000095,
                    "velocity": 0.5196850393700787,
                    "duration": 0.35856599999999617
                },
                {
                    "name": "C6",
                    "midi": 84,
                    "time": 160.99613400000095,
                    "velocity": 0.4645669291338583,
                    "duration": 0.059761000000008835
                },
                {
                    "name": "C#6",
                    "midi": 85,
                    "time": 161.05589500000096,
                    "velocity": 0.44881889763779526,
                    "duration": 0.059761000000008835
                },
                {
                    "name": "C5",
                    "midi": 72,
                    "time": 161.11565600000097,
                    "velocity": 0.3228346456692913,
                    "duration": 0.47808800000001384
                },
                {
                    "name": "F#5",
                    "midi": 78,
                    "time": 161.11565600000097,
                    "velocity": 0.3228346456692913,
                    "duration": 0.47808800000001384
                },
                {
                    "name": "C6",
                    "midi": 84,
                    "time": 161.11565600000097,
                    "velocity": 0.5275590551181102,
                    "duration": 0.23904400000000692
                },
                {
                    "name": "A#5",
                    "midi": 82,
                    "time": 161.35470000000097,
                    "velocity": 0.5039370078740157,
                    "duration": 0.23904400000000692
                },
                {
                    "name": "C5",
                    "midi": 72,
                    "time": 161.59374400000098,
                    "velocity": 0.33858267716535434,
                    "duration": 0.47808800000001384
                },
                {
                    "name": "F#5",
                    "midi": 78,
                    "time": 161.59374400000098,
                    "velocity": 0.33858267716535434,
                    "duration": 0.47808800000001384
                },
                {
                    "name": "C6",
                    "midi": 84,
                    "time": 161.59374400000098,
                    "velocity": 0.5275590551181102,
                    "duration": 0.23904400000000692
                },
                {
                    "name": "G#5",
                    "midi": 80,
                    "time": 161.832788000001,
                    "velocity": 0.49606299212598426,
                    "duration": 0.23904400000000692
                },
                {
                    "name": "C#5",
                    "midi": 73,
                    "time": 162.071832000001,
                    "velocity": 0.36220472440944884,
                    "duration": 0.47808800000001384
                },
                {
                    "name": "A#5",
                    "midi": 82,
                    "time": 162.071832000001,
                    "velocity": 0.5196850393700787,
                    "duration": 0.35856599999999617
                },
                {
                    "name": "G#5",
                    "midi": 80,
                    "time": 162.430398000001,
                    "velocity": 0.4330708661417323,
                    "duration": 0.059761000000008835
                },
                {
                    "name": "A#5",
                    "midi": 82,
                    "time": 162.490159000001,
                    "velocity": 0.3937007874015748,
                    "duration": 0.059761000000008835
                },
                {
                    "name": "C#5",
                    "midi": 73,
                    "time": 162.549920000001,
                    "velocity": 0.36220472440944884,
                    "duration": 0.47808800000001384
                },
                {
                    "name": "G#5",
                    "midi": 80,
                    "time": 162.549920000001,
                    "velocity": 0.5196850393700787,
                    "duration": 0.23904400000000692
                },
                {
                    "name": "F5",
                    "midi": 77,
                    "time": 162.78896400000102,
                    "velocity": 0.44881889763779526,
                    "duration": 0.23904400000000692
                },
                {
                    "name": "C#5",
                    "midi": 73,
                    "time": 163.02800800000102,
                    "velocity": 0.49606299212598426,
                    "duration": 0.47808800000001384
                },
                {
                    "name": "F5",
                    "midi": 77,
                    "time": 163.26705200000103,
                    "velocity": 0.4409448818897638,
                    "duration": 0.23904400000000692
                },
                {
                    "name": "A#4",
                    "midi": 70,
                    "time": 163.50609600000104,
                    "velocity": 0.47244094488188976,
                    "duration": 0.23904400000000692
                },
                {
                    "name": "C5",
                    "midi": 72,
                    "time": 163.98418400000105,
                    "velocity": 0.36220472440944884,
                    "duration": 0.9561759999999992
                },
                {
                    "name": "F5",
                    "midi": 77,
                    "time": 163.98418400000105,
                    "velocity": 0.5511811023622047,
                    "duration": 0.7171319999999923
                },
                {
                    "name": "D#5",
                    "midi": 75,
                    "time": 164.70131600000104,
                    "velocity": 0.5118110236220472,
                    "duration": 0.23904400000000692
                },
                {
                    "name": "C#5",
                    "midi": 73,
                    "time": 164.94036000000105,
                    "velocity": 0.36220472440944884,
                    "duration": 0.9561759999999992
                },
                {
                    "name": "F5",
                    "midi": 77,
                    "time": 164.94036000000105,
                    "velocity": 0.5511811023622047,
                    "duration": 0.35856599999999617
                },
                {
                    "name": "F#5",
                    "midi": 78,
                    "time": 165.29892600000105,
                    "velocity": 0.5196850393700787,
                    "duration": 0.11952199999998925
                },
                {
                    "name": "G#5",
                    "midi": 80,
                    "time": 165.41844800000104,
                    "velocity": 0.5433070866141733,
                    "duration": 0.47808800000001384
                },
                {
                    "name": "G#5",
                    "midi": 80,
                    "time": 165.89653600000105,
                    "velocity": 0.3858267716535433,
                    "duration": 0.35856599999999617
                },
                {
                    "name": "C#5",
                    "midi": 73,
                    "time": 165.89653600000105,
                    "velocity": 0.3858267716535433,
                    "duration": 0.35856599999999617
                },
                {
                    "name": "A#5",
                    "midi": 82,
                    "time": 165.89653600000105,
                    "velocity": 0.5511811023622047,
                    "duration": 0.35856599999999617
                },
                {
                    "name": "C5",
                    "midi": 72,
                    "time": 166.25510200000105,
                    "velocity": 0.47244094488188976,
                    "duration": 0.47808800000001384
                },
                {
                    "name": "F#5",
                    "midi": 78,
                    "time": 166.31486300000105,
                    "velocity": 0.5354330708661418,
                    "duration": 0.418327000000005
                },
                {
                    "name": "A#5",
                    "midi": 82,
                    "time": 166.37462400000106,
                    "velocity": 0.5905511811023622,
                    "duration": 0.35856599999999617
                },
                {
                    "name": "G#5",
                    "midi": 80,
                    "time": 166.73319000000106,
                    "velocity": 0.44881889763779526,
                    "duration": 0.059761000000008835
                },
                {
                    "name": "A#5",
                    "midi": 82,
                    "time": 166.79295100000107,
                    "velocity": 0.4330708661417323,
                    "duration": 0.059761000000008835
                },
                {
                    "name": "G#5",
                    "midi": 80,
                    "time": 166.85271200000108,
                    "velocity": 0.5275590551181102,
                    "duration": 0.23904400000000692
                },
                {
                    "name": "F#5",
                    "midi": 78,
                    "time": 167.09175600000108,
                    "velocity": 0.44881889763779526,
                    "duration": 0.23904400000000692
                },
                {
                    "name": "F5",
                    "midi": 77,
                    "time": 167.3308000000011,
                    "velocity": 0.47244094488188976,
                    "duration": 0.23904400000000692
                },
                {
                    "name": "D#5",
                    "midi": 75,
                    "time": 167.5698440000011,
                    "velocity": 0.4330708661417323,
                    "duration": 0.11952199999998925
                },
                {
                    "name": "F#4",
                    "midi": 66,
                    "time": 167.6893660000011,
                    "velocity": 0.33858267716535434,
                    "duration": 0.47808800000001384
                },
                {
                    "name": "A#4",
                    "midi": 70,
                    "time": 167.7491270000011,
                    "velocity": 0.4409448818897638,
                    "duration": 0.418327000000005
                },
                {
                    "name": "F5",
                    "midi": 77,
                    "time": 167.8088880000011,
                    "velocity": 0.5354330708661418,
                    "duration": 0.35856599999999617
                },
                {
                    "name": "D#5",
                    "midi": 75,
                    "time": 168.1674540000011,
                    "velocity": 0.4094488188976378,
                    "duration": 0.059761000000008835
                },
                {
                    "name": "F5",
                    "midi": 77,
                    "time": 168.2272150000011,
                    "velocity": 0.4409448818897638,
                    "duration": 0.059761000000008835
                },
                {
                    "name": "D#5",
                    "midi": 75,
                    "time": 168.28697600000112,
                    "velocity": 0.47244094488188976,
                    "duration": 0.23904400000000692
                },
                {
                    "name": "C#5",
                    "midi": 73,
                    "time": 168.52602000000113,
                    "velocity": 0.4094488188976378,
                    "duration": 0.23904400000000692
                },
                {
                    "name": "C5",
                    "midi": 72,
                    "time": 168.76506400000113,
                    "velocity": 0.44881889763779526,
                    "duration": 0.23904400000000692
                },
                {
                    "name": "A#4",
                    "midi": 70,
                    "time": 169.00410800000114,
                    "velocity": 0.4094488188976378,
                    "duration": 0.23904400000000692
                },
                {
                    "name": "D#4",
                    "midi": 63,
                    "time": 169.24315200000115,
                    "velocity": 0.4251968503937008,
                    "duration": 0.35856599999999617
                },
                {
                    "name": "F#4",
                    "midi": 66,
                    "time": 169.24315200000115,
                    "velocity": 0.4251968503937008,
                    "duration": 0.35856599999999617
                },
                {
                    "name": "A#4",
                    "midi": 70,
                    "time": 169.24315200000115,
                    "velocity": 0.4645669291338583,
                    "duration": 0.35856599999999617
                },
                {
                    "name": "G#4",
                    "midi": 68,
                    "time": 169.60171800000114,
                    "velocity": 0.4251968503937008,
                    "duration": 0.059761000000008835
                },
                {
                    "name": "A#4",
                    "midi": 70,
                    "time": 169.66147900000115,
                    "velocity": 0.4251968503937008,
                    "duration": 0.059761000000008835
                },
                {
                    "name": "G#4",
                    "midi": 68,
                    "time": 169.72124000000116,
                    "velocity": 0.4645669291338583,
                    "duration": 0.23904400000000692
                },
                {
                    "name": "F#4",
                    "midi": 66,
                    "time": 169.96028400000117,
                    "velocity": 0.41732283464566927,
                    "duration": 0.23904400000000692
                },
                {
                    "name": "D#4",
                    "midi": 63,
                    "time": 170.19932800000117,
                    "velocity": 0.3779527559055118,
                    "duration": 0.47808800000001384
                },
                {
                    "name": "F4",
                    "midi": 65,
                    "time": 170.19932800000117,
                    "velocity": 0.4330708661417323,
                    "duration": 0.47808800000001384
                },
                {
                    "name": "C#4",
                    "midi": 61,
                    "time": 170.6774160000012,
                    "velocity": 0.4251968503937008,
                    "duration": 0.35856599999999617
                },
                {
                    "name": "G#4",
                    "midi": 68,
                    "time": 170.6774160000012,
                    "velocity": 0.4645669291338583,
                    "duration": 0.35856599999999617
                },
                {
                    "name": "F#4",
                    "midi": 66,
                    "time": 171.03598200000118,
                    "velocity": 0.36220472440944884,
                    "duration": 0.059761000000008835
                },
                {
                    "name": "G#4",
                    "midi": 68,
                    "time": 171.0957430000012,
                    "velocity": 0.4094488188976378,
                    "duration": 0.059761000000008835
                },
                {
                    "name": "F#4",
                    "midi": 66,
                    "time": 171.1555040000012,
                    "velocity": 0.4566929133858268,
                    "duration": 0.23904400000000692
                },
                {
                    "name": "F4",
                    "midi": 65,
                    "time": 171.3945480000012,
                    "velocity": 0.3858267716535433,
                    "duration": 0.23904400000000692
                },
                {
                    "name": "C#4",
                    "midi": 61,
                    "time": 171.63359200000122,
                    "velocity": 0.4251968503937008,
                    "duration": 0.47808800000001384
                },
                {
                    "name": "D#4",
                    "midi": 63,
                    "time": 171.63359200000122,
                    "velocity": 0.4645669291338583,
                    "duration": 0.23904400000000692
                },
                {
                    "name": "E4",
                    "midi": 64,
                    "time": 171.87263600000122,
                    "velocity": 0.4881889763779528,
                    "duration": 0.17928299999999808
                },
                {
                    "name": "C#4",
                    "midi": 61,
                    "time": 172.05191900000122,
                    "velocity": 0.44881889763779526,
                    "duration": 0.418327000000005
                },
                {
                    "name": "F4",
                    "midi": 65,
                    "time": 172.11168000000123,
                    "velocity": 0.5511811023622047,
                    "duration": 0.35856599999999617
                },
                {
                    "name": "D#4",
                    "midi": 63,
                    "time": 172.47024600000123,
                    "velocity": 0.4566929133858268,
                    "duration": 0.059761000000008835
                },
                {
                    "name": "F4",
                    "midi": 65,
                    "time": 172.53000700000123,
                    "velocity": 0.4645669291338583,
                    "duration": 0.059761000000008835
                },
                {
                    "name": "D#4",
                    "midi": 63,
                    "time": 172.58976800000124,
                    "velocity": 0.5039370078740157,
                    "duration": 0.23904400000000692
                },
                {
                    "name": "C#4",
                    "midi": 61,
                    "time": 172.82881200000125,
                    "velocity": 0.3779527559055118,
                    "duration": 0.23904400000000692
                },
                {
                    "name": "C4",
                    "midi": 60,
                    "time": 173.06785600000126,
                    "velocity": 0.48031496062992124,
                    "duration": 0.23904400000000692
                },
                {
                    "name": "A#3",
                    "midi": 58,
                    "time": 173.30690000000126,
                    "velocity": 0.4330708661417323,
                    "duration": 0.23904400000000692
                },
                {
                    "name": "F#3",
                    "midi": 54,
                    "time": 173.54594400000127,
                    "velocity": 0.3779527559055118,
                    "duration": 1.434264000000013
                },
                {
                    "name": "G#3",
                    "midi": 56,
                    "time": 173.54594400000127,
                    "velocity": 0.3779527559055118,
                    "duration": 1.434264000000013
                },
                {
                    "name": "F3",
                    "midi": 53,
                    "time": 175.4582960000013,
                    "velocity": 0.3858267716535433,
                    "duration": 0.9561759999999992
                },
                {
                    "name": "C#4",
                    "midi": 61,
                    "time": 175.4582960000013,
                    "velocity": 0.3858267716535433,
                    "duration": 0.9561759999999992
                },
                {
                    "name": "F#3",
                    "midi": 54,
                    "time": 176.4144720000013,
                    "velocity": 0.3858267716535433,
                    "duration": 0.17928299999999808
                },
                {
                    "name": "A#3",
                    "midi": 58,
                    "time": 176.4144720000013,
                    "velocity": 0.3858267716535433,
                    "duration": 0.17928299999999808
                },
                {
                    "name": "F4",
                    "midi": 65,
                    "time": 176.89256000000128,
                    "velocity": 0.4330708661417323,
                    "duration": 0.9561759999999992
                },
                {
                    "name": "F#3",
                    "midi": 54,
                    "time": 177.84873600000128,
                    "velocity": 0.3858267716535433,
                    "duration": 0.17928299999999808
                },
                {
                    "name": "B3",
                    "midi": 59,
                    "time": 177.84873600000128,
                    "velocity": 0.3858267716535433,
                    "duration": 0.17928299999999808
                },
                {
                    "name": "F4",
                    "midi": 65,
                    "time": 178.32682400000127,
                    "velocity": 0.4330708661417323,
                    "duration": 0.9561759999999992
                },
                {
                    "name": "F#3",
                    "midi": 54,
                    "time": 179.28300000000127,
                    "velocity": 0.3858267716535433,
                    "duration": 0.17928299999999808
                },
                {
                    "name": "C4",
                    "midi": 60,
                    "time": 179.28300000000127,
                    "velocity": 0.3858267716535433,
                    "duration": 0.17928299999999808
                },
                {
                    "name": "F4",
                    "midi": 65,
                    "time": 179.76108800000125,
                    "velocity": 0.4330708661417323,
                    "duration": 0.8964149999999904
                },
                {
                    "name": "G#3",
                    "midi": 56,
                    "time": 180.65750300000124,
                    "velocity": 0.36220472440944884,
                    "duration": 0.059761000000008835
                },
                {
                    "name": "C#4",
                    "midi": 61,
                    "time": 180.71726400000125,
                    "velocity": 0.36220472440944884,
                    "duration": 0.23904400000000692
                },
                {
                    "name": "F4",
                    "midi": 65,
                    "time": 180.71726400000125,
                    "velocity": 0.4015748031496063,
                    "duration": 0.23904400000000692
                },
                {
                    "name": "C4",
                    "midi": 60,
                    "time": 180.95630800000126,
                    "velocity": 0.3937007874015748,
                    "duration": 0.23904400000000692
                },
                {
                    "name": "B3",
                    "midi": 59,
                    "time": 181.19535200000126,
                    "velocity": 0.3858267716535433,
                    "duration": 0.23904400000000692
                },
                {
                    "name": "A#3",
                    "midi": 58,
                    "time": 181.43439600000127,
                    "velocity": 0.3779527559055118,
                    "duration": 0.17928299999999808
                },
                {
                    "name": "A3",
                    "midi": 57,
                    "time": 181.55391800000126,
                    "velocity": 0.3228346456692913,
                    "duration": 0.059761000000008835
                },
                {
                    "name": "A#3",
                    "midi": 58,
                    "time": 181.61367900000127,
                    "velocity": 0.29133858267716534,
                    "duration": 0.059761000000008835
                },
                {
                    "name": "A3",
                    "midi": 57,
                    "time": 181.67344000000128,
                    "velocity": 0.3700787401574803,
                    "duration": 0.23904400000000692
                },
                {
                    "name": "G#3",
                    "midi": 56,
                    "time": 181.91248400000129,
                    "velocity": 0.36220472440944884,
                    "duration": 0.23904400000000692
                },
                {
                    "name": "F#4",
                    "midi": 66,
                    "time": 182.1515280000013,
                    "velocity": 0.3858267716535433,
                    "duration": 0.17928299999999808
                },
                {
                    "name": "A#4",
                    "midi": 70,
                    "time": 182.1515280000013,
                    "velocity": 0.3858267716535433,
                    "duration": 0.17928299999999808
                },
                {
                    "name": "F5",
                    "midi": 77,
                    "time": 182.62961600000128,
                    "velocity": 0.44881889763779526,
                    "duration": 0.9561759999999992
                },
                {
                    "name": "F#4",
                    "midi": 66,
                    "time": 183.58579200000128,
                    "velocity": 0.3858267716535433,
                    "duration": 0.17928299999999808
                },
                {
                    "name": "B4",
                    "midi": 71,
                    "time": 183.58579200000128,
                    "velocity": 0.3858267716535433,
                    "duration": 0.17928299999999808
                },
                {
                    "name": "F5",
                    "midi": 77,
                    "time": 184.06388000000126,
                    "velocity": 0.44881889763779526,
                    "duration": 0.9561759999999992
                },
                {
                    "name": "F#4",
                    "midi": 66,
                    "time": 185.02005600000126,
                    "velocity": 0.3858267716535433,
                    "duration": 0.17928299999999808
                },
                {
                    "name": "C5",
                    "midi": 72,
                    "time": 185.02005600000126,
                    "velocity": 0.3858267716535433,
                    "duration": 0.17928299999999808
                },
                {
                    "name": "F5",
                    "midi": 77,
                    "time": 185.49814400000125,
                    "velocity": 0.4409448818897638,
                    "duration": 0.8964149999999904
                },
                {
                    "name": "G#4",
                    "midi": 68,
                    "time": 186.39455900000124,
                    "velocity": 0.3700787401574803,
                    "duration": 0.059761000000008835
                },
                {
                    "name": "C#5",
                    "midi": 73,
                    "time": 186.45432000000125,
                    "velocity": 0.4015748031496063,
                    "duration": 0.23904400000000692
                },
                {
                    "name": "F5",
                    "midi": 77,
                    "time": 186.45432000000125,
                    "velocity": 0.4015748031496063,
                    "duration": 0.23904400000000692
                },
                {
                    "name": "C5",
                    "midi": 72,
                    "time": 186.69336400000125,
                    "velocity": 0.3937007874015748,
                    "duration": 0.23904400000000692
                },
                {
                    "name": "B4",
                    "midi": 71,
                    "time": 186.93240800000126,
                    "velocity": 0.3858267716535433,
                    "duration": 0.23904400000000692
                },
                {
                    "name": "A#4",
                    "midi": 70,
                    "time": 187.17145200000127,
                    "velocity": 0.3779527559055118,
                    "duration": 0.17928299999999808
                },
                {
                    "name": "A4",
                    "midi": 69,
                    "time": 187.29097400000126,
                    "velocity": 0.3228346456692913,
                    "duration": 0.059761000000008835
                },
                {
                    "name": "A#4",
                    "midi": 70,
                    "time": 187.35073500000127,
                    "velocity": 0.29133858267716534,
                    "duration": 0.059761000000008835
                },
                {
                    "name": "A4",
                    "midi": 69,
                    "time": 187.41049600000127,
                    "velocity": 0.3700787401574803,
                    "duration": 0.23904400000000692
                },
                {
                    "name": "G#4",
                    "midi": 68,
                    "time": 187.64954000000128,
                    "velocity": 0.36220472440944884,
                    "duration": 0.23904400000000692
                },
                {
                    "name": "C#5",
                    "midi": 73,
                    "time": 187.8885840000013,
                    "velocity": 0.3228346456692913,
                    "duration": 1.4342640000000415
                },
                {
                    "name": "A4",
                    "midi": 69,
                    "time": 187.8885840000013,
                    "velocity": 0.33070866141732286,
                    "duration": 0.35856599999999617
                },
                {
                    "name": "G#4",
                    "midi": 68,
                    "time": 188.24715000000128,
                    "velocity": 0.29133858267716534,
                    "duration": 0.059761000000008835
                },
                {
                    "name": "A4",
                    "midi": 69,
                    "time": 188.3069110000013,
                    "velocity": 0.2677165354330709,
                    "duration": 0.059761000000008835
                },
                {
                    "name": "G#4",
                    "midi": 68,
                    "time": 188.3666720000013,
                    "velocity": 0.33070866141732286,
                    "duration": 0.23904400000000692
                },
                {
                    "name": "G4",
                    "midi": 67,
                    "time": 188.6057160000013,
                    "velocity": 0.2755905511811024,
                    "duration": 0.23904400000000692
                },
                {
                    "name": "G#4",
                    "midi": 68,
                    "time": 188.84476000000132,
                    "velocity": 0.2992125984251969,
                    "duration": 0.17928299999999808
                },
                {
                    "name": "G#4",
                    "midi": 68,
                    "time": 189.08380400000132,
                    "velocity": 0.2677165354330709,
                    "duration": 0.15936266666665233
                },
                {
                    "name": "G#4",
                    "midi": 68,
                    "time": 189.2033260000013,
                    "velocity": 0.28346456692913385,
                    "duration": 1.5537860000000308
                },
                {
                    "name": "C#5",
                    "midi": 73,
                    "time": 189.26308700000132,
                    "velocity": 0.2992125984251969,
                    "duration": 1.494025000000022
                },
                {
                    "name": "G#5",
                    "midi": 80,
                    "time": 189.32284800000133,
                    "velocity": 0.31496062992125984,
                    "duration": 1.434264000000013
                }
            ],
            "controlChanges": {
                "7": [
                    {
                        "number": 7,
                        "time": 0,
                        "value": 0.7874015748031497
                    }
                ],
                "64": [
                    {
                        "number": 64,
                        "time": 0,
                        "value": 0
                    }
                ],
                "91": [
                    {
                        "number": 91,
                        "time": 0,
                        "value": 1
                    }
                ]
            },
            "id": 1,
            "name": "Piano right",
            "instrumentNumber": 0,
            "instrument": "acoustic grand piano",
            "instrumentFamily": "piano",
            "channelNumber": 0,
            "isPercussion": false
        },
        {
            "startTime": 0,
            "duration": 190.75711200000035,
            "length": 509,
            "notes": [
                {
                    "name": "C3",
                    "midi": 48,
                    "time": 0,
                    "velocity": 0.3464566929133858,
                    "duration": 0.239044
                },
                {
                    "name": "F3",
                    "midi": 53,
                    "time": 0.47808799999999996,
                    "velocity": 0.3858267716535433,
                    "duration": 0.717132
                },
                {
                    "name": "D#3",
                    "midi": 51,
                    "time": 1.19522,
                    "velocity": 0.3464566929133858,
                    "duration": 0.23904400000000003
                },
                {
                    "name": "F3",
                    "midi": 53,
                    "time": 1.434264,
                    "velocity": 0.3858267716535433,
                    "duration": 0.35856599999999994
                },
                {
                    "name": "F#3",
                    "midi": 54,
                    "time": 1.79283,
                    "velocity": 0.3543307086614173,
                    "duration": 0.11952200000000013
                },
                {
                    "name": "G#3",
                    "midi": 56,
                    "time": 1.912352,
                    "velocity": 0.3779527559055118,
                    "duration": 0.47808799999999985
                },
                {
                    "name": "A#3",
                    "midi": 58,
                    "time": 2.39044,
                    "velocity": 0.3700787401574803,
                    "duration": 0.2390439999999998
                },
                {
                    "name": "C#4",
                    "midi": 61,
                    "time": 2.6294839999999997,
                    "velocity": 0.3858267716535433,
                    "duration": 0.2390439999999998
                },
                {
                    "name": "C#4",
                    "midi": 61,
                    "time": 2.8685279999999995,
                    "velocity": 0.41732283464566927,
                    "duration": 0.35856600000000016
                },
                {
                    "name": "C4",
                    "midi": 60,
                    "time": 3.2270939999999997,
                    "velocity": 0.3700787401574803,
                    "duration": 0.05976099999999995
                },
                {
                    "name": "C#4",
                    "midi": 61,
                    "time": 3.2868549999999996,
                    "velocity": 0.3937007874015748,
                    "duration": 0.05976099999999995
                },
                {
                    "name": "C4",
                    "midi": 60,
                    "time": 3.3466159999999996,
                    "velocity": 0.4330708661417323,
                    "duration": 0.2390439999999998
                },
                {
                    "name": "A#3",
                    "midi": 58,
                    "time": 3.5856599999999994,
                    "velocity": 0.3937007874015748,
                    "duration": 0.2390439999999998
                },
                {
                    "name": "C4",
                    "midi": 60,
                    "time": 3.824703999999999,
                    "velocity": 0.4251968503937008,
                    "duration": 0.23904400000000026
                },
                {
                    "name": "G#3",
                    "midi": 56,
                    "time": 4.0637479999999995,
                    "velocity": 0.3858267716535433,
                    "duration": 0.2390439999999998
                },
                {
                    "name": "A#3",
                    "midi": 58,
                    "time": 4.302791999999999,
                    "velocity": 0.4094488188976378,
                    "duration": 0.3585660000000006
                },
                {
                    "name": "G#3",
                    "midi": 56,
                    "time": 4.661358,
                    "velocity": 0.3464566929133858,
                    "duration": 0.05976099999999995
                },
                {
                    "name": "A#3",
                    "midi": 58,
                    "time": 4.721119,
                    "velocity": 0.3464566929133858,
                    "duration": 0.05976099999999995
                },
                {
                    "name": "G#3",
                    "midi": 56,
                    "time": 4.78088,
                    "velocity": 0.4094488188976378,
                    "duration": 0.2390440000000007
                },
                {
                    "name": "F3",
                    "midi": 53,
                    "time": 5.0199240000000005,
                    "velocity": 0.36220472440944884,
                    "duration": 0.2390439999999998
                },
                {
                    "name": "C#3",
                    "midi": 49,
                    "time": 5.258968,
                    "velocity": 0.3858267716535433,
                    "duration": 0.2390439999999998
                },
                {
                    "name": "F3",
                    "midi": 53,
                    "time": 5.498012,
                    "velocity": 0.3543307086614173,
                    "duration": 0.2390439999999998
                },
                {
                    "name": "C3",
                    "midi": 48,
                    "time": 5.737056,
                    "velocity": 0.3779527559055118,
                    "duration": 0.2390439999999998
                },
                {
                    "name": "F3",
                    "midi": 53,
                    "time": 6.215144,
                    "velocity": 0.4094488188976378,
                    "duration": 0.7171320000000003
                },
                {
                    "name": "D#3",
                    "midi": 51,
                    "time": 6.932276,
                    "velocity": 0.36220472440944884,
                    "duration": 0.2390439999999998
                },
                {
                    "name": "F3",
                    "midi": 53,
                    "time": 7.17132,
                    "velocity": 0.3937007874015748,
                    "duration": 0.3585659999999997
                },
                {
                    "name": "F#3",
                    "midi": 54,
                    "time": 7.529885999999999,
                    "velocity": 0.3700787401574803,
                    "duration": 0.1195219999999999
                },
                {
                    "name": "G#3",
                    "midi": 56,
                    "time": 7.649407999999999,
                    "velocity": 0.4094488188976378,
                    "duration": 0.4780879999999996
                },
                {
                    "name": "A#3",
                    "midi": 58,
                    "time": 8.127495999999999,
                    "velocity": 0.36220472440944884,
                    "duration": 0.2390439999999998
                },
                {
                    "name": "C#4",
                    "midi": 61,
                    "time": 8.366539999999999,
                    "velocity": 0.3858267716535433,
                    "duration": 0.2390439999999998
                },
                {
                    "name": "C#4",
                    "midi": 61,
                    "time": 8.605583999999999,
                    "velocity": 0.41732283464566927,
                    "duration": 0.4780879999999996
                },
                {
                    "name": "C4",
                    "midi": 60,
                    "time": 9.083671999999998,
                    "velocity": 0.4251968503937008,
                    "duration": 0.2390439999999998
                },
                {
                    "name": "C#4",
                    "midi": 61,
                    "time": 9.322715999999998,
                    "velocity": 0.3937007874015748,
                    "duration": 0.2390439999999998
                },
                {
                    "name": "C4",
                    "midi": 60,
                    "time": 9.561759999999998,
                    "velocity": 0.4251968503937008,
                    "duration": 0.2390439999999998
                },
                {
                    "name": "A#3",
                    "midi": 58,
                    "time": 9.800803999999998,
                    "velocity": 0.3858267716535433,
                    "duration": 0.2390439999999998
                },
                {
                    "name": "A3",
                    "midi": 57,
                    "time": 10.039847999999997,
                    "velocity": 0.4094488188976378,
                    "duration": 0.3585659999999997
                },
                {
                    "name": "A#3",
                    "midi": 58,
                    "time": 10.398413999999997,
                    "velocity": 0.3464566929133858,
                    "duration": 0.1195219999999999
                },
                {
                    "name": "C4",
                    "midi": 60,
                    "time": 10.517935999999997,
                    "velocity": 0.4094488188976378,
                    "duration": 0.4780879999999996
                },
                {
                    "name": "C3",
                    "midi": 48,
                    "time": 10.996023999999997,
                    "velocity": 0.3858267716535433,
                    "duration": 0.2390439999999998
                },
                {
                    "name": "B3",
                    "midi": 59,
                    "time": 11.474111999999996,
                    "velocity": 0.3228346456692913,
                    "duration": 0.956176000000001
                },
                {
                    "name": "C4",
                    "midi": 60,
                    "time": 11.952199999999998,
                    "velocity": 0.33858267716535434,
                    "duration": 0.9561759999999992
                },
                {
                    "name": "A#3",
                    "midi": 58,
                    "time": 12.430287999999997,
                    "velocity": 0.3228346456692913,
                    "duration": 0.4780879999999996
                },
                {
                    "name": "A3",
                    "midi": 57,
                    "time": 12.908375999999997,
                    "velocity": 0.3228346456692913,
                    "duration": 0.9561759999999992
                },
                {
                    "name": "C4",
                    "midi": 60,
                    "time": 13.386463999999997,
                    "velocity": 0.3543307086614173,
                    "duration": 0.9561759999999992
                },
                {
                    "name": "G#3",
                    "midi": 56,
                    "time": 13.864551999999996,
                    "velocity": 0.3464566929133858,
                    "duration": 0.4780879999999996
                },
                {
                    "name": "F#3",
                    "midi": 54,
                    "time": 14.342639999999996,
                    "velocity": 0.36220472440944884,
                    "duration": 0.956176000000001
                },
                {
                    "name": "C4",
                    "midi": 60,
                    "time": 14.820727999999995,
                    "velocity": 0.4015748031496063,
                    "duration": 2.3904400000000017
                },
                {
                    "name": "C3",
                    "midi": 48,
                    "time": 15.298815999999997,
                    "velocity": 0.3700787401574803,
                    "duration": 0.4780879999999996
                },
                {
                    "name": "G#3",
                    "midi": 56,
                    "time": 15.776903999999996,
                    "velocity": 0.3464566929133858,
                    "duration": 0.4780880000000014
                },
                {
                    "name": "A3",
                    "midi": 57,
                    "time": 16.254991999999998,
                    "velocity": 0.3464566929133858,
                    "duration": 0.4780879999999996
                },
                {
                    "name": "C3",
                    "midi": 48,
                    "time": 16.733079999999998,
                    "velocity": 0.28346456692913385,
                    "duration": 0.4780879999999996
                },
                {
                    "name": "B3",
                    "midi": 59,
                    "time": 17.211167999999997,
                    "velocity": 0.3228346456692913,
                    "duration": 0.9561760000000028
                },
                {
                    "name": "C4",
                    "midi": 60,
                    "time": 17.689255999999997,
                    "velocity": 0.36220472440944884,
                    "duration": 0.9561760000000028
                },
                {
                    "name": "A#3",
                    "midi": 58,
                    "time": 18.167344,
                    "velocity": 0.3228346456692913,
                    "duration": 0.4780879999999996
                },
                {
                    "name": "A3",
                    "midi": 57,
                    "time": 18.645432,
                    "velocity": 0.3228346456692913,
                    "duration": 0.9561760000000028
                },
                {
                    "name": "C4",
                    "midi": 60,
                    "time": 19.123520000000003,
                    "velocity": 0.3937007874015748,
                    "duration": 0.7768930000000012
                },
                {
                    "name": "G#3",
                    "midi": 56,
                    "time": 19.601608000000002,
                    "velocity": 0.3464566929133858,
                    "duration": 0.29880500000000154
                },
                {
                    "name": "G3",
                    "midi": 55,
                    "time": 19.900413000000004,
                    "velocity": 0.36220472440944884,
                    "duration": 0.6573710000000013
                },
                {
                    "name": "C4",
                    "midi": 60,
                    "time": 20.557784000000005,
                    "velocity": 0.4015748031496063,
                    "duration": 0.9561759999999992
                },
                {
                    "name": "A#3",
                    "midi": 58,
                    "time": 21.513960000000004,
                    "velocity": 0.3464566929133858,
                    "duration": 0.4780880000000032
                },
                {
                    "name": "C4",
                    "midi": 60,
                    "time": 21.992048000000008,
                    "velocity": 0.31496062992125984,
                    "duration": 0.7768930000000012
                },
                {
                    "name": "F3",
                    "midi": 53,
                    "time": 22.76894100000001,
                    "velocity": 0.36220472440944884,
                    "duration": 0.6573710000000013
                },
                {
                    "name": "A#3",
                    "midi": 58,
                    "time": 23.42631200000001,
                    "velocity": 0.2992125984251969,
                    "duration": 0.9561760000000028
                },
                {
                    "name": "F3",
                    "midi": 53,
                    "time": 24.382488000000013,
                    "velocity": 0.3543307086614173,
                    "duration": 0.3585659999999997
                },
                {
                    "name": "E3",
                    "midi": 52,
                    "time": 24.741054000000013,
                    "velocity": 0.2992125984251969,
                    "duration": 0.05976100000000173
                },
                {
                    "name": "F3",
                    "midi": 53,
                    "time": 24.800815000000014,
                    "velocity": 0.2677165354330709,
                    "duration": 0.05976099999999818
                },
                {
                    "name": "E3",
                    "midi": 52,
                    "time": 24.860576000000012,
                    "velocity": 0.33070866141732286,
                    "duration": 0.2390439999999998
                },
                {
                    "name": "D3",
                    "midi": 50,
                    "time": 25.099620000000012,
                    "velocity": 0.30708661417322836,
                    "duration": 0.2390439999999998
                },
                {
                    "name": "C3",
                    "midi": 48,
                    "time": 25.338664000000012,
                    "velocity": 0.29133858267716534,
                    "duration": 0.4780879999999996
                },
                {
                    "name": "C3",
                    "midi": 48,
                    "time": 25.81675200000001,
                    "velocity": 0.3228346456692913,
                    "duration": 0.2390439999999998
                },
                {
                    "name": "F3",
                    "midi": 53,
                    "time": 26.29484000000001,
                    "velocity": 0.4015748031496063,
                    "duration": 0.7171319999999994
                },
                {
                    "name": "D#3",
                    "midi": 51,
                    "time": 27.01197200000001,
                    "velocity": 0.36220472440944884,
                    "duration": 0.2390439999999998
                },
                {
                    "name": "F3",
                    "midi": 53,
                    "time": 27.25101600000001,
                    "velocity": 0.4015748031496063,
                    "duration": 0.3585659999999997
                },
                {
                    "name": "F#3",
                    "midi": 54,
                    "time": 27.60958200000001,
                    "velocity": 0.36220472440944884,
                    "duration": 0.1195219999999999
                },
                {
                    "name": "G#3",
                    "midi": 56,
                    "time": 27.72910400000001,
                    "velocity": 0.4015748031496063,
                    "duration": 0.4780879999999996
                },
                {
                    "name": "A#3",
                    "midi": 58,
                    "time": 28.20719200000001,
                    "velocity": 0.3700787401574803,
                    "duration": 0.2390439999999998
                },
                {
                    "name": "C#4",
                    "midi": 61,
                    "time": 28.44623600000001,
                    "velocity": 0.3937007874015748,
                    "duration": 0.2390439999999998
                },
                {
                    "name": "C#4",
                    "midi": 61,
                    "time": 28.68528000000001,
                    "velocity": 0.41732283464566927,
                    "duration": 0.3585659999999997
                },
                {
                    "name": "C4",
                    "midi": 60,
                    "time": 29.04384600000001,
                    "velocity": 0.3700787401574803,
                    "duration": 0.05976100000000173
                },
                {
                    "name": "C#4",
                    "midi": 61,
                    "time": 29.10360700000001,
                    "velocity": 0.4094488188976378,
                    "duration": 0.05976100000000173
                },
                {
                    "name": "C4",
                    "midi": 60,
                    "time": 29.163368000000013,
                    "velocity": 0.4251968503937008,
                    "duration": 0.23904400000000336
                },
                {
                    "name": "A#3",
                    "midi": 58,
                    "time": 29.402412000000016,
                    "velocity": 0.3937007874015748,
                    "duration": 0.2390439999999998
                },
                {
                    "name": "C4",
                    "midi": 60,
                    "time": 29.641456000000016,
                    "velocity": 0.4251968503937008,
                    "duration": 0.2390439999999998
                },
                {
                    "name": "G#3",
                    "midi": 56,
                    "time": 29.880500000000016,
                    "velocity": 0.3858267716535433,
                    "duration": 0.2390439999999998
                },
                {
                    "name": "A#3",
                    "midi": 58,
                    "time": 30.119544000000015,
                    "velocity": 0.4094488188976378,
                    "duration": 0.3585659999999997
                },
                {
                    "name": "G#3",
                    "midi": 56,
                    "time": 30.478110000000015,
                    "velocity": 0.3464566929133858,
                    "duration": 0.05976100000000173
                },
                {
                    "name": "A#3",
                    "midi": 58,
                    "time": 30.537871000000017,
                    "velocity": 0.3464566929133858,
                    "duration": 0.05976100000000173
                },
                {
                    "name": "G#3",
                    "midi": 56,
                    "time": 30.59763200000002,
                    "velocity": 0.4094488188976378,
                    "duration": 0.2390439999999998
                },
                {
                    "name": "F3",
                    "midi": 53,
                    "time": 30.83667600000002,
                    "velocity": 0.36220472440944884,
                    "duration": 0.2390439999999998
                },
                {
                    "name": "C#3",
                    "midi": 49,
                    "time": 31.075720000000018,
                    "velocity": 0.3858267716535433,
                    "duration": 0.2390439999999998
                },
                {
                    "name": "F3",
                    "midi": 53,
                    "time": 31.314764000000018,
                    "velocity": 0.3543307086614173,
                    "duration": 0.2390439999999998
                },
                {
                    "name": "C3",
                    "midi": 48,
                    "time": 31.553808000000018,
                    "velocity": 0.3700787401574803,
                    "duration": 0.2390439999999998
                },
                {
                    "name": "F3",
                    "midi": 53,
                    "time": 32.03189600000002,
                    "velocity": 0.4094488188976378,
                    "duration": 0.7171319999999994
                },
                {
                    "name": "D#3",
                    "midi": 51,
                    "time": 32.74902800000002,
                    "velocity": 0.3779527559055118,
                    "duration": 0.2390439999999998
                },
                {
                    "name": "F3",
                    "midi": 53,
                    "time": 32.98807200000002,
                    "velocity": 0.4094488188976378,
                    "duration": 0.35856600000000327
                },
                {
                    "name": "F#3",
                    "midi": 54,
                    "time": 33.34663800000002,
                    "velocity": 0.3700787401574803,
                    "duration": 0.11952200000000346
                },
                {
                    "name": "G#3",
                    "midi": 56,
                    "time": 33.46616000000002,
                    "velocity": 0.4094488188976378,
                    "duration": 0.4780879999999996
                },
                {
                    "name": "A#3",
                    "midi": 58,
                    "time": 33.94424800000002,
                    "velocity": 0.3700787401574803,
                    "duration": 0.2390439999999998
                },
                {
                    "name": "C#4",
                    "midi": 61,
                    "time": 34.18329200000002,
                    "velocity": 0.3937007874015748,
                    "duration": 0.2390439999999998
                },
                {
                    "name": "C#4",
                    "midi": 61,
                    "time": 34.42233600000002,
                    "velocity": 0.41732283464566927,
                    "duration": 0.4780879999999996
                },
                {
                    "name": "C4",
                    "midi": 60,
                    "time": 34.90042400000002,
                    "velocity": 0.4251968503937008,
                    "duration": 0.2390439999999998
                },
                {
                    "name": "C#4",
                    "midi": 61,
                    "time": 35.13946800000002,
                    "velocity": 0.3937007874015748,
                    "duration": 0.2390439999999998
                },
                {
                    "name": "C4",
                    "midi": 60,
                    "time": 35.37851200000002,
                    "velocity": 0.4251968503937008,
                    "duration": 0.2390439999999998
                },
                {
                    "name": "A#3",
                    "midi": 58,
                    "time": 35.61755600000002,
                    "velocity": 0.3858267716535433,
                    "duration": 0.2390439999999998
                },
                {
                    "name": "G#3",
                    "midi": 56,
                    "time": 35.85660000000002,
                    "velocity": 0.4094488188976378,
                    "duration": 0.35856600000000327
                },
                {
                    "name": "A#3",
                    "midi": 58,
                    "time": 36.215166000000025,
                    "velocity": 0.3464566929133858,
                    "duration": 0.11952200000000346
                },
                {
                    "name": "C4",
                    "midi": 60,
                    "time": 36.33468800000003,
                    "velocity": 0.4094488188976378,
                    "duration": 0.4780879999999996
                },
                {
                    "name": "C3",
                    "midi": 48,
                    "time": 36.81277600000003,
                    "velocity": 0.3858267716535433,
                    "duration": 0.2390439999999998
                },
                {
                    "name": "G2",
                    "midi": 43,
                    "time": 37.29086400000003,
                    "velocity": 0.2992125984251969,
                    "duration": 0.9561759999999992
                },
                {
                    "name": "G3",
                    "midi": 55,
                    "time": 37.29086400000003,
                    "velocity": 0.36220472440944884,
                    "duration": 0.9561759999999992
                },
                {
                    "name": "G#3",
                    "midi": 56,
                    "time": 37.76895200000003,
                    "velocity": 0.4015748031496063,
                    "duration": 0.9561759999999992
                },
                {
                    "name": "F#2",
                    "midi": 42,
                    "time": 38.24704000000003,
                    "velocity": 0.2992125984251969,
                    "duration": 0.4780879999999996
                },
                {
                    "name": "F#3",
                    "midi": 54,
                    "time": 38.24704000000003,
                    "velocity": 0.36220472440944884,
                    "duration": 0.4780879999999996
                },
                {
                    "name": "F2",
                    "midi": 41,
                    "time": 38.725128000000026,
                    "velocity": 0.2992125984251969,
                    "duration": 0.9561759999999992
                },
                {
                    "name": "F3",
                    "midi": 53,
                    "time": 38.725128000000026,
                    "velocity": 0.36220472440944884,
                    "duration": 0.9561759999999992
                },
                {
                    "name": "G#3",
                    "midi": 56,
                    "time": 39.203216000000026,
                    "velocity": 0.4409448818897638,
                    "duration": 0.9561759999999992
                },
                {
                    "name": "E2",
                    "midi": 40,
                    "time": 39.681304000000026,
                    "velocity": 0.3228346456692913,
                    "duration": 0.4780879999999996
                },
                {
                    "name": "E3",
                    "midi": 52,
                    "time": 39.681304000000026,
                    "velocity": 0.3858267716535433,
                    "duration": 0.4780879999999996
                },
                {
                    "name": "D#2",
                    "midi": 39,
                    "time": 40.159392000000025,
                    "velocity": 0.33858267716535434,
                    "duration": 0.9561759999999992
                },
                {
                    "name": "D#3",
                    "midi": 51,
                    "time": 40.159392000000025,
                    "velocity": 0.4094488188976378,
                    "duration": 0.9561759999999992
                },
                {
                    "name": "G#3",
                    "midi": 56,
                    "time": 40.637480000000025,
                    "velocity": 0.44881889763779526,
                    "duration": 0.9561759999999992
                },
                {
                    "name": "G#1",
                    "midi": 32,
                    "time": 41.115568000000025,
                    "velocity": 0.3464566929133858,
                    "duration": 0.4780879999999996
                },
                {
                    "name": "G#2",
                    "midi": 44,
                    "time": 41.115568000000025,
                    "velocity": 0.41732283464566927,
                    "duration": 0.4780879999999996
                },
                {
                    "name": "E2",
                    "midi": 40,
                    "time": 41.593656000000024,
                    "velocity": 0.3228346456692913,
                    "duration": 0.47808800000000673
                },
                {
                    "name": "E3",
                    "midi": 52,
                    "time": 41.593656000000024,
                    "velocity": 0.3858267716535433,
                    "duration": 0.47808800000000673
                },
                {
                    "name": "F2",
                    "midi": 41,
                    "time": 42.07174400000003,
                    "velocity": 0.3228346456692913,
                    "duration": 0.4780879999999996
                },
                {
                    "name": "F3",
                    "midi": 53,
                    "time": 42.07174400000003,
                    "velocity": 0.3858267716535433,
                    "duration": 0.4780879999999996
                },
                {
                    "name": "G#1",
                    "midi": 32,
                    "time": 42.54983200000003,
                    "velocity": 0.25984251968503935,
                    "duration": 0.4780879999999996
                },
                {
                    "name": "G#2",
                    "midi": 44,
                    "time": 42.54983200000003,
                    "velocity": 0.2992125984251969,
                    "duration": 0.4780879999999996
                },
                {
                    "name": "G2",
                    "midi": 43,
                    "time": 43.02792000000003,
                    "velocity": 0.2992125984251969,
                    "duration": 0.9561759999999992
                },
                {
                    "name": "G3",
                    "midi": 55,
                    "time": 43.02792000000003,
                    "velocity": 0.36220472440944884,
                    "duration": 0.9561759999999992
                },
                {
                    "name": "G#3",
                    "midi": 56,
                    "time": 43.50600800000003,
                    "velocity": 0.4015748031496063,
                    "duration": 0.9561759999999992
                },
                {
                    "name": "F#2",
                    "midi": 42,
                    "time": 43.98409600000003,
                    "velocity": 0.2992125984251969,
                    "duration": 0.4780879999999996
                },
                {
                    "name": "F#3",
                    "midi": 54,
                    "time": 43.98409600000003,
                    "velocity": 0.36220472440944884,
                    "duration": 0.4780879999999996
                },
                {
                    "name": "F2",
                    "midi": 41,
                    "time": 44.46218400000003,
                    "velocity": 0.2992125984251969,
                    "duration": 0.9561759999999992
                },
                {
                    "name": "F3",
                    "midi": 53,
                    "time": 44.46218400000003,
                    "velocity": 0.36220472440944884,
                    "duration": 0.9561759999999992
                },
                {
                    "name": "G#3",
                    "midi": 56,
                    "time": 44.94027200000003,
                    "velocity": 0.4409448818897638,
                    "duration": 0.8366540000000029
                },
                {
                    "name": "E2",
                    "midi": 40,
                    "time": 45.41836000000003,
                    "velocity": 0.3228346456692913,
                    "duration": 0.35856600000000327
                },
                {
                    "name": "E3",
                    "midi": 52,
                    "time": 45.41836000000003,
                    "velocity": 0.3858267716535433,
                    "duration": 0.35856600000000327
                },
                {
                    "name": "D#2",
                    "midi": 39,
                    "time": 45.896448000000035,
                    "velocity": 0.33858267716535434,
                    "duration": 0.4780879999999996
                },
                {
                    "name": "D#3",
                    "midi": 51,
                    "time": 45.896448000000035,
                    "velocity": 0.4094488188976378,
                    "duration": 0.4780879999999996
                },
                {
                    "name": "G#3",
                    "midi": 56,
                    "time": 46.374536000000035,
                    "velocity": 0.44881889763779526,
                    "duration": 0.9561760000000064
                },
                {
                    "name": "C#2",
                    "midi": 37,
                    "time": 47.33071200000004,
                    "velocity": 0.33858267716535434,
                    "duration": 0.4780879999999996
                },
                {
                    "name": "C#3",
                    "midi": 49,
                    "time": 47.33071200000004,
                    "velocity": 0.4094488188976378,
                    "duration": 0.4780879999999996
                },
                {
                    "name": "F#3",
                    "midi": 54,
                    "time": 47.80880000000004,
                    "velocity": 0.4330708661417323,
                    "duration": 0.9561759999999992
                },
                {
                    "name": "C2",
                    "midi": 36,
                    "time": 48.76497600000004,
                    "velocity": 0.33858267716535434,
                    "duration": 0.4780879999999996
                },
                {
                    "name": "C3",
                    "midi": 48,
                    "time": 48.76497600000004,
                    "velocity": 0.4094488188976378,
                    "duration": 0.4780879999999996
                },
                {
                    "name": "D#3",
                    "midi": 51,
                    "time": 49.24306400000004,
                    "velocity": 0.44881889763779526,
                    "duration": 0.4780879999999996
                },
                {
                    "name": "B1",
                    "midi": 35,
                    "time": 49.72115200000004,
                    "velocity": 0.3228346456692913,
                    "duration": 0.4780879999999996
                },
                {
                    "name": "B2",
                    "midi": 47,
                    "time": 49.72115200000004,
                    "velocity": 0.3779527559055118,
                    "duration": 0.4780879999999996
                },
                {
                    "name": "A#1",
                    "midi": 34,
                    "time": 50.19924000000004,
                    "velocity": 0.33858267716535434,
                    "duration": 0.4780879999999996
                },
                {
                    "name": "A#2",
                    "midi": 46,
                    "time": 50.19924000000004,
                    "velocity": 0.4094488188976378,
                    "duration": 0.4780879999999996
                },
                {
                    "name": "C#3",
                    "midi": 49,
                    "time": 50.67732800000004,
                    "velocity": 0.44881889763779526,
                    "duration": 0.4780879999999996
                },
                {
                    "name": "A1",
                    "midi": 33,
                    "time": 51.15541600000004,
                    "velocity": 0.33858267716535434,
                    "duration": 0.4780879999999996
                },
                {
                    "name": "A2",
                    "midi": 45,
                    "time": 51.15541600000004,
                    "velocity": 0.4094488188976378,
                    "duration": 0.4780879999999996
                },
                {
                    "name": "G#1",
                    "midi": 32,
                    "time": 51.63350400000004,
                    "velocity": 0.3858267716535433,
                    "duration": 0.4780879999999996
                },
                {
                    "name": "G#2",
                    "midi": 44,
                    "time": 51.63350400000004,
                    "velocity": 0.44881889763779526,
                    "duration": 0.4780879999999996
                },
                {
                    "name": "G#3",
                    "midi": 56,
                    "time": 52.11159200000004,
                    "velocity": 0.49606299212598426,
                    "duration": 0.9561759999999992
                },
                {
                    "name": "F3",
                    "midi": 53,
                    "time": 53.06776800000004,
                    "velocity": 0.44881889763779526,
                    "duration": 0.35856600000000327
                },
                {
                    "name": "D#3",
                    "midi": 51,
                    "time": 53.42633400000004,
                    "velocity": 0.3779527559055118,
                    "duration": 0.05976100000000173
                },
                {
                    "name": "F3",
                    "midi": 53,
                    "time": 53.48609500000004,
                    "velocity": 0.3228346456692913,
                    "duration": 0.05976100000000173
                },
                {
                    "name": "D#3",
                    "midi": 51,
                    "time": 53.54585600000004,
                    "velocity": 0.4094488188976378,
                    "duration": 0.2390439999999998
                },
                {
                    "name": "C#3",
                    "midi": 49,
                    "time": 53.78490000000004,
                    "velocity": 0.3858267716535433,
                    "duration": 0.2390439999999998
                },
                {
                    "name": "C3",
                    "midi": 48,
                    "time": 54.02394400000004,
                    "velocity": 0.36220472440944884,
                    "duration": 0.4780879999999996
                },
                {
                    "name": "C#3",
                    "midi": 49,
                    "time": 54.50203200000004,
                    "velocity": 0.3858267716535433,
                    "duration": 1.4342639999999989
                },
                {
                    "name": "G#2",
                    "midi": 44,
                    "time": 54.98012000000004,
                    "velocity": 0.3228346456692913,
                    "duration": 0.4780879999999996
                },
                {
                    "name": "C#2",
                    "midi": 37,
                    "time": 55.45820800000004,
                    "velocity": 0.2992125984251969,
                    "duration": 0.4780879999999996
                },
                {
                    "name": "D#3",
                    "midi": 51,
                    "time": 55.93629600000004,
                    "velocity": 0.3858267716535433,
                    "duration": 0.9561759999999992
                },
                {
                    "name": "C#2",
                    "midi": 37,
                    "time": 56.89247200000004,
                    "velocity": 0.2677165354330709,
                    "duration": 0.47808800000000673
                },
                {
                    "name": "D#3",
                    "midi": 51,
                    "time": 57.37056000000005,
                    "velocity": 0.3858267716535433,
                    "duration": 0.9561759999999992
                },
                {
                    "name": "C#2",
                    "midi": 37,
                    "time": 58.32673600000005,
                    "velocity": 0.2755905511811024,
                    "duration": 0.4780879999999996
                },
                {
                    "name": "D#3",
                    "midi": 51,
                    "time": 58.804824000000046,
                    "velocity": 0.3858267716535433,
                    "duration": 0.9561759999999992
                },
                {
                    "name": "C#2",
                    "midi": 37,
                    "time": 59.761000000000045,
                    "velocity": 0.2992125984251969,
                    "duration": 0.4780879999999996
                },
                {
                    "name": "F3",
                    "midi": 53,
                    "time": 60.239088000000045,
                    "velocity": 0.3858267716535433,
                    "duration": 0.9561759999999992
                },
                {
                    "name": "C#2",
                    "midi": 37,
                    "time": 61.195264000000044,
                    "velocity": 0.29133858267716534,
                    "duration": 0.4780879999999996
                },
                {
                    "name": "D#4",
                    "midi": 63,
                    "time": 61.673352000000044,
                    "velocity": 0.3858267716535433,
                    "duration": 0.9561759999999992
                },
                {
                    "name": "C#3",
                    "midi": 49,
                    "time": 62.62952800000004,
                    "velocity": 0.28346456692913385,
                    "duration": 0.47808800000000673
                },
                {
                    "name": "D#4",
                    "midi": 63,
                    "time": 63.10761600000005,
                    "velocity": 0.3858267716535433,
                    "duration": 0.9561759999999992
                },
                {
                    "name": "C#3",
                    "midi": 49,
                    "time": 64.06379200000005,
                    "velocity": 0.2677165354330709,
                    "duration": 0.4780879999999996
                },
                {
                    "name": "D#4",
                    "midi": 63,
                    "time": 64.54188000000005,
                    "velocity": 0.3858267716535433,
                    "duration": 0.9561759999999992
                },
                {
                    "name": "C#3",
                    "midi": 49,
                    "time": 65.49805600000005,
                    "velocity": 0.28346456692913385,
                    "duration": 0.4780879999999996
                },
                {
                    "name": "F4",
                    "midi": 65,
                    "time": 65.97614400000005,
                    "velocity": 0.3858267716535433,
                    "duration": 0.9561759999999992
                },
                {
                    "name": "C#3",
                    "midi": 49,
                    "time": 66.93232000000005,
                    "velocity": 0.2677165354330709,
                    "duration": 0.4780879999999996
                },
                {
                    "name": "F4",
                    "midi": 65,
                    "time": 67.41040800000005,
                    "velocity": 0.30708661417322836,
                    "duration": 1.9123519999999985
                },
                {
                    "name": "C#4",
                    "midi": 61,
                    "time": 69.32276000000005,
                    "velocity": 0.2440944881889764,
                    "duration": 1.4342639999999989
                },
                {
                    "name": "E3",
                    "midi": 52,
                    "time": 71.71320000000004,
                    "velocity": 0.2755905511811024,
                    "duration": 1.4342639999999989
                },
                {
                    "name": "A2",
                    "midi": 45,
                    "time": 72.19128800000004,
                    "velocity": 0.2283464566929134,
                    "duration": 0.4780879999999996
                },
                {
                    "name": "A2",
                    "midi": 45,
                    "time": 72.66937600000004,
                    "velocity": 0.2283464566929134,
                    "duration": 0.4780879999999996
                },
                {
                    "name": "F3",
                    "midi": 53,
                    "time": 73.14746400000004,
                    "velocity": 0.28346456692913385,
                    "duration": 1.434264000000013
                },
                {
                    "name": "A2",
                    "midi": 45,
                    "time": 73.62555200000004,
                    "velocity": 0.2283464566929134,
                    "duration": 0.4780879999999996
                },
                {
                    "name": "A2",
                    "midi": 45,
                    "time": 74.10364000000004,
                    "velocity": 0.2283464566929134,
                    "duration": 0.47808800000001384
                },
                {
                    "name": "F3",
                    "midi": 53,
                    "time": 74.58172800000006,
                    "velocity": 0.28346456692913385,
                    "duration": 1.4342639999999989
                },
                {
                    "name": "A2",
                    "midi": 45,
                    "time": 75.05981600000005,
                    "velocity": 0.23622047244094488,
                    "duration": 0.4780879999999996
                },
                {
                    "name": "A2",
                    "midi": 45,
                    "time": 75.53790400000005,
                    "velocity": 0.23622047244094488,
                    "duration": 0.4780879999999996
                },
                {
                    "name": "F#3",
                    "midi": 54,
                    "time": 76.01599200000005,
                    "velocity": 0.28346456692913385,
                    "duration": 1.4342639999999989
                },
                {
                    "name": "A2",
                    "midi": 45,
                    "time": 76.49408000000005,
                    "velocity": 0.23622047244094488,
                    "duration": 0.4780879999999996
                },
                {
                    "name": "A2",
                    "midi": 45,
                    "time": 76.97216800000005,
                    "velocity": 0.23622047244094488,
                    "duration": 0.4780879999999996
                },
                {
                    "name": "G#2",
                    "midi": 44,
                    "time": 77.45025600000005,
                    "velocity": 0.2992125984251969,
                    "duration": 0.9561759999999992
                },
                {
                    "name": "E3",
                    "midi": 52,
                    "time": 77.92834400000005,
                    "velocity": 0.28346456692913385,
                    "duration": 0.956175999999985
                },
                {
                    "name": "G2",
                    "midi": 43,
                    "time": 78.40643200000005,
                    "velocity": 0.25984251968503935,
                    "duration": 0.4780879999999854
                },
                {
                    "name": "F#2",
                    "midi": 42,
                    "time": 78.88452000000004,
                    "velocity": 0.30708661417322836,
                    "duration": 0.9561759999999992
                },
                {
                    "name": "D3",
                    "midi": 50,
                    "time": 79.36260800000004,
                    "velocity": 0.28346456692913385,
                    "duration": 0.9561759999999992
                },
                {
                    "name": "F#2",
                    "midi": 42,
                    "time": 79.84069600000004,
                    "velocity": 0.2440944881889764,
                    "duration": 0.4780879999999996
                },
                {
                    "name": "D2",
                    "midi": 38,
                    "time": 80.31878400000004,
                    "velocity": 0.30708661417322836,
                    "duration": 0.9561759999999992
                },
                {
                    "name": "B2",
                    "midi": 47,
                    "time": 80.79687200000004,
                    "velocity": 0.30708661417322836,
                    "duration": 0.9561759999999992
                },
                {
                    "name": "D2",
                    "midi": 38,
                    "time": 81.27496000000004,
                    "velocity": 0.36220472440944884,
                    "duration": 0.4780879999999996
                },
                {
                    "name": "C#2",
                    "midi": 37,
                    "time": 81.75304800000004,
                    "velocity": 0.3543307086614173,
                    "duration": 0.9561759999999992
                },
                {
                    "name": "F3",
                    "midi": 53,
                    "time": 82.23113600000003,
                    "velocity": 0.30708661417322836,
                    "duration": 0.9561759999999992
                },
                {
                    "name": "C#3",
                    "midi": 49,
                    "time": 82.70922400000003,
                    "velocity": 0.25984251968503935,
                    "duration": 0.4780879999999996
                },
                {
                    "name": "C2",
                    "midi": 36,
                    "time": 83.18731200000003,
                    "velocity": 0.30708661417322836,
                    "duration": 0.9561760000000135
                },
                {
                    "name": "C3",
                    "midi": 48,
                    "time": 83.18731200000003,
                    "velocity": 0.30708661417322836,
                    "duration": 0.9561760000000135
                },
                {
                    "name": "D#3",
                    "midi": 51,
                    "time": 83.66540000000003,
                    "velocity": 0.33070866141732286,
                    "duration": 0.47808800000001384
                },
                {
                    "name": "C2",
                    "midi": 36,
                    "time": 84.14348800000005,
                    "velocity": 0.28346456692913385,
                    "duration": 0.4780879999999996
                },
                {
                    "name": "C3",
                    "midi": 48,
                    "time": 84.14348800000005,
                    "velocity": 0.28346456692913385,
                    "duration": 0.4780879999999996
                },
                {
                    "name": "C#2",
                    "midi": 37,
                    "time": 84.62157600000005,
                    "velocity": 0.30708661417322836,
                    "duration": 0.9561759999999992
                },
                {
                    "name": "C#3",
                    "midi": 49,
                    "time": 84.62157600000005,
                    "velocity": 0.30708661417322836,
                    "duration": 0.9561759999999992
                },
                {
                    "name": "E3",
                    "midi": 52,
                    "time": 85.09966400000005,
                    "velocity": 0.33070866141732286,
                    "duration": 0.4780879999999996
                },
                {
                    "name": "C#2",
                    "midi": 37,
                    "time": 85.57775200000005,
                    "velocity": 0.28346456692913385,
                    "duration": 0.4780879999999996
                },
                {
                    "name": "C#3",
                    "midi": 49,
                    "time": 85.57775200000005,
                    "velocity": 0.28346456692913385,
                    "duration": 0.4780879999999996
                },
                {
                    "name": "C#2",
                    "midi": 37,
                    "time": 86.05584000000005,
                    "velocity": 0.30708661417322836,
                    "duration": 0.9561759999999992
                },
                {
                    "name": "C#3",
                    "midi": 49,
                    "time": 86.05584000000005,
                    "velocity": 0.30708661417322836,
                    "duration": 0.9561759999999992
                },
                {
                    "name": "E3",
                    "midi": 52,
                    "time": 86.53392800000005,
                    "velocity": 0.33070866141732286,
                    "duration": 0.4780879999999996
                },
                {
                    "name": "C#2",
                    "midi": 37,
                    "time": 87.01201600000005,
                    "velocity": 0.2755905511811024,
                    "duration": 0.4780879999999996
                },
                {
                    "name": "C#3",
                    "midi": 49,
                    "time": 87.01201600000005,
                    "velocity": 0.2755905511811024,
                    "duration": 0.4780879999999996
                },
                {
                    "name": "D2",
                    "midi": 38,
                    "time": 87.49010400000004,
                    "velocity": 0.30708661417322836,
                    "duration": 0.9561759999999992
                },
                {
                    "name": "D3",
                    "midi": 50,
                    "time": 87.49010400000004,
                    "velocity": 0.30708661417322836,
                    "duration": 0.9561759999999992
                },
                {
                    "name": "F#3",
                    "midi": 54,
                    "time": 87.96819200000004,
                    "velocity": 0.33070866141732286,
                    "duration": 0.4780879999999996
                },
                {
                    "name": "D2",
                    "midi": 38,
                    "time": 88.44628000000004,
                    "velocity": 0.28346456692913385,
                    "duration": 0.4780879999999996
                },
                {
                    "name": "D3",
                    "midi": 50,
                    "time": 88.44628000000004,
                    "velocity": 0.28346456692913385,
                    "duration": 0.4780879999999996
                },
                {
                    "name": "F2",
                    "midi": 41,
                    "time": 88.92436800000004,
                    "velocity": 0.36220472440944884,
                    "duration": 1.4342639999999989
                },
                {
                    "name": "C#3",
                    "midi": 49,
                    "time": 89.40245600000004,
                    "velocity": 0.29133858267716534,
                    "duration": 0.4780879999999996
                },
                {
                    "name": "G#3",
                    "midi": 56,
                    "time": 89.40245600000004,
                    "velocity": 0.29133858267716534,
                    "duration": 0.4780879999999996
                },
                {
                    "name": "C#3",
                    "midi": 49,
                    "time": 89.88054400000004,
                    "velocity": 0.3543307086614173,
                    "duration": 0.4780879999999996
                },
                {
                    "name": "G#3",
                    "midi": 56,
                    "time": 89.88054400000004,
                    "velocity": 0.3543307086614173,
                    "duration": 0.4780879999999996
                },
                {
                    "name": "F#2",
                    "midi": 42,
                    "time": 90.35863200000004,
                    "velocity": 0.3464566929133858,
                    "duration": 1.4342639999999989
                },
                {
                    "name": "C#3",
                    "midi": 49,
                    "time": 90.83672000000004,
                    "velocity": 0.2992125984251969,
                    "duration": 0.4780879999999996
                },
                {
                    "name": "F#3",
                    "midi": 54,
                    "time": 90.83672000000004,
                    "velocity": 0.2992125984251969,
                    "duration": 0.4780879999999996
                },
                {
                    "name": "C#3",
                    "midi": 49,
                    "time": 91.31480800000004,
                    "velocity": 0.29133858267716534,
                    "duration": 0.4780879999999996
                },
                {
                    "name": "F#3",
                    "midi": 54,
                    "time": 91.31480800000004,
                    "velocity": 0.29133858267716534,
                    "duration": 0.4780879999999996
                },
                {
                    "name": "B1",
                    "midi": 35,
                    "time": 91.79289600000004,
                    "velocity": 0.3464566929133858,
                    "duration": 0.9561759999999992
                },
                {
                    "name": "B2",
                    "midi": 47,
                    "time": 91.79289600000004,
                    "velocity": 0.3464566929133858,
                    "duration": 0.9561759999999992
                },
                {
                    "name": "D#3",
                    "midi": 51,
                    "time": 92.27098400000004,
                    "velocity": 0.30708661417322836,
                    "duration": 0.4780879999999996
                },
                {
                    "name": "B1",
                    "midi": 35,
                    "time": 92.74907200000004,
                    "velocity": 0.3464566929133858,
                    "duration": 0.4780879999999996
                },
                {
                    "name": "B2",
                    "midi": 47,
                    "time": 92.74907200000004,
                    "velocity": 0.3464566929133858,
                    "duration": 0.4780879999999996
                },
                {
                    "name": "E2",
                    "midi": 40,
                    "time": 93.22716000000004,
                    "velocity": 0.33070866141732286,
                    "duration": 1.434264000000013
                },
                {
                    "name": "E3",
                    "midi": 52,
                    "time": 93.70524800000004,
                    "velocity": 0.2992125984251969,
                    "duration": 0.4780879999999996
                },
                {
                    "name": "F#3",
                    "midi": 54,
                    "time": 94.18333600000004,
                    "velocity": 0.29133858267716534,
                    "duration": 0.23904400000000692
                },
                {
                    "name": "G#3",
                    "midi": 56,
                    "time": 94.42238000000005,
                    "velocity": 0.23622047244094488,
                    "duration": 0.23904400000000692
                },
                {
                    "name": "A2",
                    "midi": 45,
                    "time": 94.66142400000005,
                    "velocity": 0.31496062992125984,
                    "duration": 0.9561759999999992
                },
                {
                    "name": "E3",
                    "midi": 52,
                    "time": 94.66142400000005,
                    "velocity": 0.31496062992125984,
                    "duration": 0.9561759999999992
                },
                {
                    "name": "A3",
                    "midi": 57,
                    "time": 94.66142400000005,
                    "velocity": 0.4015748031496063,
                    "duration": 0.9561759999999992
                },
                {
                    "name": "E3",
                    "midi": 52,
                    "time": 95.13951200000005,
                    "velocity": 0.2992125984251969,
                    "duration": 0.9561759999999992
                },
                {
                    "name": "E4",
                    "midi": 64,
                    "time": 95.13951200000005,
                    "velocity": 0.3543307086614173,
                    "duration": 0.9561759999999992
                },
                {
                    "name": "A2",
                    "midi": 45,
                    "time": 95.61760000000005,
                    "velocity": 0.2755905511811024,
                    "duration": 0.4780879999999996
                },
                {
                    "name": "E3",
                    "midi": 52,
                    "time": 95.61760000000005,
                    "velocity": 0.2755905511811024,
                    "duration": 0.4780879999999996
                },
                {
                    "name": "A3",
                    "midi": 57,
                    "time": 95.61760000000005,
                    "velocity": 0.3228346456692913,
                    "duration": 0.4780879999999996
                },
                {
                    "name": "A2",
                    "midi": 45,
                    "time": 96.09568800000005,
                    "velocity": 0.23622047244094488,
                    "duration": 0.9561759999999992
                },
                {
                    "name": "F3",
                    "midi": 53,
                    "time": 96.09568800000005,
                    "velocity": 0.25196850393700787,
                    "duration": 0.4780879999999996
                },
                {
                    "name": "A3",
                    "midi": 57,
                    "time": 96.09568800000005,
                    "velocity": 0.2992125984251969,
                    "duration": 0.9561759999999992
                },
                {
                    "name": "F3",
                    "midi": 53,
                    "time": 96.57377600000005,
                    "velocity": 0.2440944881889764,
                    "duration": 0.9561760000000135
                },
                {
                    "name": "F4",
                    "midi": 65,
                    "time": 96.57377600000005,
                    "velocity": 0.33858267716535434,
                    "duration": 0.9561760000000135
                },
                {
                    "name": "A2",
                    "midi": 45,
                    "time": 97.05186400000005,
                    "velocity": 0.2755905511811024,
                    "duration": 0.47808800000001384
                },
                {
                    "name": "F3",
                    "midi": 53,
                    "time": 97.05186400000005,
                    "velocity": 0.2755905511811024,
                    "duration": 0.47808800000001384
                },
                {
                    "name": "A3",
                    "midi": 57,
                    "time": 97.05186400000005,
                    "velocity": 0.3228346456692913,
                    "duration": 0.47808800000001384
                },
                {
                    "name": "A2",
                    "midi": 45,
                    "time": 97.52995200000007,
                    "velocity": 0.28346456692913385,
                    "duration": 0.9561759999999992
                },
                {
                    "name": "F3",
                    "midi": 53,
                    "time": 97.52995200000007,
                    "velocity": 0.28346456692913385,
                    "duration": 0.9561759999999992
                },
                {
                    "name": "A3",
                    "midi": 57,
                    "time": 97.52995200000007,
                    "velocity": 0.3543307086614173,
                    "duration": 0.9561759999999992
                },
                {
                    "name": "F3",
                    "midi": 53,
                    "time": 98.00804000000007,
                    "velocity": 0.33070866141732286,
                    "duration": 0.4780879999999996
                },
                {
                    "name": "F4",
                    "midi": 65,
                    "time": 98.00804000000007,
                    "velocity": 0.4015748031496063,
                    "duration": 0.4780879999999996
                },
                {
                    "name": "A2",
                    "midi": 45,
                    "time": 98.48612800000006,
                    "velocity": 0.28346456692913385,
                    "duration": 0.4780879999999996
                },
                {
                    "name": "F3",
                    "midi": 53,
                    "time": 98.48612800000006,
                    "velocity": 0.28346456692913385,
                    "duration": 0.4780879999999996
                },
                {
                    "name": "A3",
                    "midi": 57,
                    "time": 98.48612800000006,
                    "velocity": 0.33070866141732286,
                    "duration": 0.4780879999999996
                },
                {
                    "name": "A2",
                    "midi": 45,
                    "time": 98.96421600000006,
                    "velocity": 0.3228346456692913,
                    "duration": 0.9561759999999992
                },
                {
                    "name": "F#3",
                    "midi": 54,
                    "time": 98.96421600000006,
                    "velocity": 0.3228346456692913,
                    "duration": 0.4780879999999996
                },
                {
                    "name": "A3",
                    "midi": 57,
                    "time": 98.96421600000006,
                    "velocity": 0.4015748031496063,
                    "duration": 0.9561759999999992
                },
                {
                    "name": "F#3",
                    "midi": 54,
                    "time": 99.44230400000006,
                    "velocity": 0.28346456692913385,
                    "duration": 0.9561759999999992
                },
                {
                    "name": "F#4",
                    "midi": 66,
                    "time": 99.44230400000006,
                    "velocity": 0.33070866141732286,
                    "duration": 0.9561759999999992
                },
                {
                    "name": "A2",
                    "midi": 45,
                    "time": 99.92039200000006,
                    "velocity": 0.28346456692913385,
                    "duration": 0.4780879999999996
                },
                {
                    "name": "F#3",
                    "midi": 54,
                    "time": 99.92039200000006,
                    "velocity": 0.28346456692913385,
                    "duration": 0.4780879999999996
                },
                {
                    "name": "A3",
                    "midi": 57,
                    "time": 99.92039200000006,
                    "velocity": 0.33070866141732286,
                    "duration": 0.4780879999999996
                },
                {
                    "name": "G#2",
                    "midi": 44,
                    "time": 100.39848000000006,
                    "velocity": 0.4330708661417323,
                    "duration": 0.9561759999999992
                },
                {
                    "name": "E3",
                    "midi": 52,
                    "time": 100.87656800000006,
                    "velocity": 0.3228346456692913,
                    "duration": 0.4780879999999996
                },
                {
                    "name": "B3",
                    "midi": 59,
                    "time": 100.87656800000006,
                    "velocity": 0.3937007874015748,
                    "duration": 0.4780879999999996
                },
                {
                    "name": "G2",
                    "midi": 43,
                    "time": 101.35465600000006,
                    "velocity": 0.29133858267716534,
                    "duration": 0.4780879999999854
                },
                {
                    "name": "C#4",
                    "midi": 61,
                    "time": 101.35465600000006,
                    "velocity": 0.3700787401574803,
                    "duration": 0.4780879999999854
                },
                {
                    "name": "F#2",
                    "midi": 42,
                    "time": 101.83274400000005,
                    "velocity": 0.44881889763779526,
                    "duration": 0.9561759999999992
                },
                {
                    "name": "D3",
                    "midi": 50,
                    "time": 102.31083200000005,
                    "velocity": 0.3228346456692913,
                    "duration": 0.4780879999999996
                },
                {
                    "name": "A3",
                    "midi": 57,
                    "time": 102.31083200000005,
                    "velocity": 0.4015748031496063,
                    "duration": 0.4780879999999996
                },
                {
                    "name": "D3",
                    "midi": 50,
                    "time": 102.78892000000005,
                    "velocity": 0.29133858267716534,
                    "duration": 0.4780879999999996
                },
                {
                    "name": "A3",
                    "midi": 57,
                    "time": 102.78892000000005,
                    "velocity": 0.36220472440944884,
                    "duration": 0.4780879999999996
                },
                {
                    "name": "F2",
                    "midi": 41,
                    "time": 103.26700800000005,
                    "velocity": 0.4015748031496063,
                    "duration": 0.9561760000000135
                },
                {
                    "name": "C#3",
                    "midi": 49,
                    "time": 103.74509600000005,
                    "velocity": 0.30708661417322836,
                    "duration": 0.47808800000001384
                },
                {
                    "name": "G#3",
                    "midi": 56,
                    "time": 103.74509600000005,
                    "velocity": 0.3779527559055118,
                    "duration": 0.47808800000001384
                },
                {
                    "name": "E2",
                    "midi": 40,
                    "time": 104.22318400000006,
                    "velocity": 0.25984251968503935,
                    "duration": 0.4780879999999854
                },
                {
                    "name": "A#3",
                    "midi": 58,
                    "time": 104.22318400000006,
                    "velocity": 0.3228346456692913,
                    "duration": 0.4780879999999854
                },
                {
                    "name": "D#2",
                    "midi": 39,
                    "time": 104.70127200000005,
                    "velocity": 0.4015748031496063,
                    "duration": 1.4342639999999989
                },
                {
                    "name": "B2",
                    "midi": 47,
                    "time": 105.17936000000005,
                    "velocity": 0.30708661417322836,
                    "duration": 0.4780879999999996
                },
                {
                    "name": "F#3",
                    "midi": 54,
                    "time": 105.17936000000005,
                    "velocity": 0.3779527559055118,
                    "duration": 0.4780879999999996
                },
                {
                    "name": "B2",
                    "midi": 47,
                    "time": 105.65744800000004,
                    "velocity": 0.25984251968503935,
                    "duration": 0.4780879999999996
                },
                {
                    "name": "F#3",
                    "midi": 54,
                    "time": 105.65744800000004,
                    "velocity": 0.31496062992125984,
                    "duration": 0.4780879999999996
                },
                {
                    "name": "D2",
                    "midi": 38,
                    "time": 106.13553600000004,
                    "velocity": 0.3858267716535433,
                    "duration": 1.4342639999999989
                },
                {
                    "name": "G#3",
                    "midi": 56,
                    "time": 106.61362400000004,
                    "velocity": 0.3937007874015748,
                    "duration": 0.4780879999999996
                },
                {
                    "name": "D3",
                    "midi": 50,
                    "time": 107.09171200000004,
                    "velocity": 0.3700787401574803,
                    "duration": 0.4780879999999996
                },
                {
                    "name": "C#2",
                    "midi": 37,
                    "time": 107.56980000000004,
                    "velocity": 0.36220472440944884,
                    "duration": 1.4342639999999989
                },
                {
                    "name": "B3",
                    "midi": 59,
                    "time": 108.04788800000004,
                    "velocity": 0.3937007874015748,
                    "duration": 0.4780879999999996
                },
                {
                    "name": "C#3",
                    "midi": 49,
                    "time": 108.52597600000004,
                    "velocity": 0.2677165354330709,
                    "duration": 0.4780879999999996
                },
                {
                    "name": "D2",
                    "midi": 38,
                    "time": 109.00406400000004,
                    "velocity": 0.3464566929133858,
                    "duration": 1.4342639999999989
                },
                {
                    "name": "G#3",
                    "midi": 56,
                    "time": 109.48215200000004,
                    "velocity": 0.3543307086614173,
                    "duration": 0.4780879999999996
                },
                {
                    "name": "D3",
                    "midi": 50,
                    "time": 109.96024000000004,
                    "velocity": 0.3228346456692913,
                    "duration": 0.4780879999999996
                },
                {
                    "name": "C#2",
                    "midi": 37,
                    "time": 110.43832800000004,
                    "velocity": 0.31496062992125984,
                    "duration": 1.4342639999999989
                },
                {
                    "name": "B3",
                    "midi": 59,
                    "time": 110.91641600000004,
                    "velocity": 0.3543307086614173,
                    "duration": 0.4780879999999996
                },
                {
                    "name": "C#3",
                    "midi": 49,
                    "time": 111.39450400000004,
                    "velocity": 0.2283464566929134,
                    "duration": 0.9561759999999992
                },
                {
                    "name": "B3",
                    "midi": 59,
                    "time": 112.35068000000004,
                    "velocity": 0.3543307086614173,
                    "duration": 0.4780879999999996
                },
                {
                    "name": "C#3",
                    "midi": 49,
                    "time": 112.82876800000004,
                    "velocity": 0.2283464566929134,
                    "duration": 0.9561759999999992
                },
                {
                    "name": "B3",
                    "midi": 59,
                    "time": 113.78494400000004,
                    "velocity": 0.3543307086614173,
                    "duration": 0.4780879999999996
                },
                {
                    "name": "C#3",
                    "midi": 49,
                    "time": 114.26303200000004,
                    "velocity": 0.2283464566929134,
                    "duration": 0.4780879999999996
                },
                {
                    "name": "C4",
                    "midi": 60,
                    "time": 114.74112000000004,
                    "velocity": 0.33070866141732286,
                    "duration": 0.9561759999999992
                },
                {
                    "name": "C#3",
                    "midi": 49,
                    "time": 115.69729600000004,
                    "velocity": 0.2125984251968504,
                    "duration": 0.4780879999999996
                },
                {
                    "name": "C4",
                    "midi": 60,
                    "time": 116.17538400000004,
                    "velocity": 0.33070866141732286,
                    "duration": 0.9561759999999992
                },
                {
                    "name": "C#3",
                    "midi": 49,
                    "time": 117.13156000000004,
                    "velocity": 0.2204724409448819,
                    "duration": 0.4780879999999996
                },
                {
                    "name": "C4",
                    "midi": 60,
                    "time": 117.60964800000004,
                    "velocity": 0.3543307086614173,
                    "duration": 0.9561759999999992
                },
                {
                    "name": "C#3",
                    "midi": 49,
                    "time": 118.56582400000003,
                    "velocity": 0.2125984251968504,
                    "duration": 0.4780879999999996
                },
                {
                    "name": "C4",
                    "midi": 60,
                    "time": 119.04391200000003,
                    "velocity": 0.3543307086614173,
                    "duration": 0.9561759999999992
                },
                {
                    "name": "C#3",
                    "midi": 49,
                    "time": 120.00008800000003,
                    "velocity": 0.2047244094488189,
                    "duration": 0.4780879999999996
                },
                {
                    "name": "C3",
                    "midi": 48,
                    "time": 120.47817600000003,
                    "velocity": 0.30708661417322836,
                    "duration": 0.23904400000000692
                },
                {
                    "name": "F3",
                    "midi": 53,
                    "time": 120.95626400000003,
                    "velocity": 0.3700787401574803,
                    "duration": 0.7171320000000065
                },
                {
                    "name": "D#3",
                    "midi": 51,
                    "time": 121.67339600000004,
                    "velocity": 0.3464566929133858,
                    "duration": 0.23904400000000692
                },
                {
                    "name": "F3",
                    "midi": 53,
                    "time": 121.91244000000005,
                    "velocity": 0.3937007874015748,
                    "duration": 0.35856599999999617
                },
                {
                    "name": "F#3",
                    "midi": 54,
                    "time": 122.27100600000004,
                    "velocity": 0.3700787401574803,
                    "duration": 0.11952200000000346
                },
                {
                    "name": "G#3",
                    "midi": 56,
                    "time": 122.39052800000005,
                    "velocity": 0.3937007874015748,
                    "duration": 0.4780879999999996
                },
                {
                    "name": "A#3",
                    "midi": 58,
                    "time": 122.86861600000005,
                    "velocity": 0.3700787401574803,
                    "duration": 0.23904400000000692
                },
                {
                    "name": "C#4",
                    "midi": 61,
                    "time": 123.10766000000005,
                    "velocity": 0.4094488188976378,
                    "duration": 0.23904400000000692
                },
                {
                    "name": "C#4",
                    "midi": 61,
                    "time": 123.34670400000006,
                    "velocity": 0.4330708661417323,
                    "duration": 0.35856599999999617
                },
                {
                    "name": "C4",
                    "midi": 60,
                    "time": 123.70527000000006,
                    "velocity": 0.3700787401574803,
                    "duration": 0.059760999999994624
                },
                {
                    "name": "C#4",
                    "midi": 61,
                    "time": 123.76503100000005,
                    "velocity": 0.4094488188976378,
                    "duration": 0.059760999999994624
                },
                {
                    "name": "C4",
                    "midi": 60,
                    "time": 123.82479200000004,
                    "velocity": 0.4251968503937008,
                    "duration": 0.23904400000000692
                },
                {
                    "name": "A#3",
                    "midi": 58,
                    "time": 124.06383600000005,
                    "velocity": 0.3937007874015748,
                    "duration": 0.23904400000000692
                },
                {
                    "name": "C4",
                    "midi": 60,
                    "time": 124.30288000000006,
                    "velocity": 0.4251968503937008,
                    "duration": 0.23904400000000692
                },
                {
                    "name": "G#3",
                    "midi": 56,
                    "time": 124.54192400000007,
                    "velocity": 0.3858267716535433,
                    "duration": 0.23904400000000692
                },
                {
                    "name": "A#3",
                    "midi": 58,
                    "time": 124.78096800000007,
                    "velocity": 0.4094488188976378,
                    "duration": 0.35856599999999617
                },
                {
                    "name": "G#3",
                    "midi": 56,
                    "time": 125.13953400000007,
                    "velocity": 0.3464566929133858,
                    "duration": 0.059760999999994624
                },
                {
                    "name": "A#3",
                    "midi": 58,
                    "time": 125.19929500000006,
                    "velocity": 0.3464566929133858,
                    "duration": 0.059760999999994624
                },
                {
                    "name": "G#3",
                    "midi": 56,
                    "time": 125.25905600000006,
                    "velocity": 0.4094488188976378,
                    "duration": 0.23904400000000692
                },
                {
                    "name": "F3",
                    "midi": 53,
                    "time": 125.49810000000006,
                    "velocity": 0.36220472440944884,
                    "duration": 0.23904400000000692
                },
                {
                    "name": "C#3",
                    "midi": 49,
                    "time": 125.73714400000007,
                    "velocity": 0.3858267716535433,
                    "duration": 0.23904400000000692
                },
                {
                    "name": "F3",
                    "midi": 53,
                    "time": 125.97618800000008,
                    "velocity": 0.3543307086614173,
                    "duration": 0.23904400000000692
                },
                {
                    "name": "C3",
                    "midi": 48,
                    "time": 126.21523200000009,
                    "velocity": 0.3858267716535433,
                    "duration": 0.23904400000000692
                },
                {
                    "name": "F3",
                    "midi": 53,
                    "time": 126.69332000000009,
                    "velocity": 0.4094488188976378,
                    "duration": 0.7171320000000065
                },
                {
                    "name": "D#3",
                    "midi": 51,
                    "time": 127.41045200000009,
                    "velocity": 0.3779527559055118,
                    "duration": 0.23904400000000692
                },
                {
                    "name": "F3",
                    "midi": 53,
                    "time": 127.6494960000001,
                    "velocity": 0.4330708661417323,
                    "duration": 0.3585660000000104
                },
                {
                    "name": "F#3",
                    "midi": 54,
                    "time": 128.0080620000001,
                    "velocity": 0.3937007874015748,
                    "duration": 0.11952199999998925
                },
                {
                    "name": "G#3",
                    "midi": 56,
                    "time": 128.1275840000001,
                    "velocity": 0.41732283464566927,
                    "duration": 0.47808800000001384
                },
                {
                    "name": "A#3",
                    "midi": 58,
                    "time": 128.6056720000001,
                    "velocity": 0.3700787401574803,
                    "duration": 0.23904400000000692
                },
                {
                    "name": "C#4",
                    "midi": 61,
                    "time": 128.84471600000012,
                    "velocity": 0.3858267716535433,
                    "duration": 0.23904400000000692
                },
                {
                    "name": "C#4",
                    "midi": 61,
                    "time": 129.08376000000013,
                    "velocity": 0.4251968503937008,
                    "duration": 0.47808800000001384
                },
                {
                    "name": "C4",
                    "midi": 60,
                    "time": 129.56184800000014,
                    "velocity": 0.4251968503937008,
                    "duration": 0.23904400000000692
                },
                {
                    "name": "C#4",
                    "midi": 61,
                    "time": 129.80089200000015,
                    "velocity": 0.3937007874015748,
                    "duration": 0.23904400000000692
                },
                {
                    "name": "C4",
                    "midi": 60,
                    "time": 130.03993600000015,
                    "velocity": 0.4251968503937008,
                    "duration": 0.23904400000000692
                },
                {
                    "name": "A#3",
                    "midi": 58,
                    "time": 130.27898000000016,
                    "velocity": 0.3858267716535433,
                    "duration": 0.23904400000000692
                },
                {
                    "name": "A3",
                    "midi": 57,
                    "time": 130.51802400000017,
                    "velocity": 0.4094488188976378,
                    "duration": 0.35856599999999617
                },
                {
                    "name": "A#3",
                    "midi": 58,
                    "time": 130.87659000000016,
                    "velocity": 0.3464566929133858,
                    "duration": 0.11952199999998925
                },
                {
                    "name": "C4",
                    "midi": 60,
                    "time": 130.99611200000015,
                    "velocity": 0.4094488188976378,
                    "duration": 0.47808800000001384
                },
                {
                    "name": "C3",
                    "midi": 48,
                    "time": 131.47420000000017,
                    "velocity": 0.3858267716535433,
                    "duration": 0.2390439999999785
                },
                {
                    "name": "B3",
                    "midi": 59,
                    "time": 131.95228800000015,
                    "velocity": 0.3228346456692913,
                    "duration": 0.9561759999999992
                },
                {
                    "name": "C4",
                    "midi": 60,
                    "time": 132.43037600000017,
                    "velocity": 0.3779527559055118,
                    "duration": 0.9561759999999992
                },
                {
                    "name": "A#3",
                    "midi": 58,
                    "time": 132.90846400000015,
                    "velocity": 0.3228346456692913,
                    "duration": 0.47808800000001384
                },
                {
                    "name": "A3",
                    "midi": 57,
                    "time": 133.38655200000017,
                    "velocity": 0.3228346456692913,
                    "duration": 0.9561759999999992
                },
                {
                    "name": "C4",
                    "midi": 60,
                    "time": 133.86464000000015,
                    "velocity": 0.3937007874015748,
                    "duration": 0.9561760000000277
                },
                {
                    "name": "G#3",
                    "midi": 56,
                    "time": 134.34272800000016,
                    "velocity": 0.3464566929133858,
                    "duration": 0.47808800000001384
                },
                {
                    "name": "F#3",
                    "midi": 54,
                    "time": 134.82081600000018,
                    "velocity": 0.36220472440944884,
                    "duration": 0.9561760000000277
                },
                {
                    "name": "C4",
                    "midi": 60,
                    "time": 135.2989040000002,
                    "velocity": 0.4015748031496063,
                    "duration": 2.390439999999984
                },
                {
                    "name": "C3",
                    "midi": 48,
                    "time": 135.7769920000002,
                    "velocity": 0.3700787401574803,
                    "duration": 0.47808800000001384
                },
                {
                    "name": "G#3",
                    "midi": 56,
                    "time": 136.25508000000022,
                    "velocity": 0.3464566929133858,
                    "duration": 0.4780879999999854
                },
                {
                    "name": "A3",
                    "midi": 57,
                    "time": 136.7331680000002,
                    "velocity": 0.3464566929133858,
                    "duration": 0.4780879999999854
                },
                {
                    "name": "C3",
                    "midi": 48,
                    "time": 137.2112560000002,
                    "velocity": 0.28346456692913385,
                    "duration": 0.4780879999999854
                },
                {
                    "name": "B3",
                    "midi": 59,
                    "time": 137.68934400000018,
                    "velocity": 0.3228346456692913,
                    "duration": 0.9561759999999708
                },
                {
                    "name": "C4",
                    "midi": 60,
                    "time": 138.16743200000016,
                    "velocity": 0.3779527559055118,
                    "duration": 0.9561759999999992
                },
                {
                    "name": "A#3",
                    "midi": 58,
                    "time": 138.64552000000015,
                    "velocity": 0.3228346456692913,
                    "duration": 0.47808800000001384
                },
                {
                    "name": "A3",
                    "midi": 57,
                    "time": 139.12360800000016,
                    "velocity": 0.3228346456692913,
                    "duration": 0.9561760000000277
                },
                {
                    "name": "C4",
                    "midi": 60,
                    "time": 139.60169600000017,
                    "velocity": 0.3937007874015748,
                    "duration": 0.7768930000000012
                },
                {
                    "name": "G#3",
                    "midi": 56,
                    "time": 140.0797840000002,
                    "velocity": 0.3464566929133858,
                    "duration": 0.29880499999998733
                },
                {
                    "name": "G3",
                    "midi": 55,
                    "time": 140.37858900000018,
                    "velocity": 0.36220472440944884,
                    "duration": 0.6573709999999835
                },
                {
                    "name": "C4",
                    "midi": 60,
                    "time": 141.03596000000016,
                    "velocity": 0.4015748031496063,
                    "duration": 0.9561759999999992
                },
                {
                    "name": "A#3",
                    "midi": 58,
                    "time": 141.99213600000016,
                    "velocity": 0.3464566929133858,
                    "duration": 0.4780879999999854
                },
                {
                    "name": "C4",
                    "midi": 60,
                    "time": 142.47022400000014,
                    "velocity": 0.31496062992125984,
                    "duration": 0.7768929999999727
                },
                {
                    "name": "F3",
                    "midi": 53,
                    "time": 143.24711700000012,
                    "velocity": 0.36220472440944884,
                    "duration": 0.6573710000000119
                },
                {
                    "name": "A#3",
                    "midi": 58,
                    "time": 143.90448800000013,
                    "velocity": 0.2992125984251969,
                    "duration": 0.9561759999999992
                },
                {
                    "name": "F3",
                    "midi": 53,
                    "time": 144.86066400000013,
                    "velocity": 0.3543307086614173,
                    "duration": 0.35856599999999617
                },
                {
                    "name": "E3",
                    "midi": 52,
                    "time": 145.21923000000012,
                    "velocity": 0.2992125984251969,
                    "duration": 0.059761000000008835
                },
                {
                    "name": "F3",
                    "midi": 53,
                    "time": 145.27899100000013,
                    "velocity": 0.2677165354330709,
                    "duration": 0.059761000000008835
                },
                {
                    "name": "E3",
                    "midi": 52,
                    "time": 145.33875200000014,
                    "velocity": 0.33070866141732286,
                    "duration": 0.23904400000000692
                },
                {
                    "name": "D3",
                    "midi": 50,
                    "time": 145.57779600000015,
                    "velocity": 0.30708661417322836,
                    "duration": 0.23904400000000692
                },
                {
                    "name": "C3",
                    "midi": 48,
                    "time": 145.81684000000016,
                    "velocity": 0.29133858267716534,
                    "duration": 0.47808800000001384
                },
                {
                    "name": "C3",
                    "midi": 48,
                    "time": 146.29492800000017,
                    "velocity": 0.3228346456692913,
                    "duration": 0.23904400000000692
                },
                {
                    "name": "F3",
                    "midi": 53,
                    "time": 146.77301600000018,
                    "velocity": 0.4094488188976378,
                    "duration": 0.7171319999999923
                },
                {
                    "name": "D#3",
                    "midi": 51,
                    "time": 147.49014800000018,
                    "velocity": 0.3700787401574803,
                    "duration": 0.23904400000000692
                },
                {
                    "name": "F3",
                    "midi": 53,
                    "time": 147.72919200000018,
                    "velocity": 0.4094488188976378,
                    "duration": 0.35856599999999617
                },
                {
                    "name": "F#3",
                    "midi": 54,
                    "time": 148.08775800000018,
                    "velocity": 0.3937007874015748,
                    "duration": 0.11952199999998925
                },
                {
                    "name": "G#3",
                    "midi": 56,
                    "time": 148.20728000000017,
                    "velocity": 0.41732283464566927,
                    "duration": 0.47808800000001384
                },
                {
                    "name": "A#3",
                    "midi": 58,
                    "time": 148.68536800000018,
                    "velocity": 0.36220472440944884,
                    "duration": 0.23904400000000692
                },
                {
                    "name": "C#4",
                    "midi": 61,
                    "time": 148.9244120000002,
                    "velocity": 0.3858267716535433,
                    "duration": 0.23904400000000692
                },
                {
                    "name": "C#4",
                    "midi": 61,
                    "time": 149.1634560000002,
                    "velocity": 0.41732283464566927,
                    "duration": 0.35856599999999617
                },
                {
                    "name": "C4",
                    "midi": 60,
                    "time": 149.5220220000002,
                    "velocity": 0.3700787401574803,
                    "duration": 0.059761000000008835
                },
                {
                    "name": "C#4",
                    "midi": 61,
                    "time": 149.5817830000002,
                    "velocity": 0.4094488188976378,
                    "duration": 0.059761000000008835
                },
                {
                    "name": "C4",
                    "midi": 60,
                    "time": 149.6415440000002,
                    "velocity": 0.4251968503937008,
                    "duration": 0.23904400000000692
                },
                {
                    "name": "A#3",
                    "midi": 58,
                    "time": 149.88058800000022,
                    "velocity": 0.3937007874015748,
                    "duration": 0.23904400000000692
                },
                {
                    "name": "C4",
                    "midi": 60,
                    "time": 150.11963200000022,
                    "velocity": 0.4251968503937008,
                    "duration": 0.23904400000000692
                },
                {
                    "name": "G#3",
                    "midi": 56,
                    "time": 150.35867600000023,
                    "velocity": 0.3858267716535433,
                    "duration": 0.23904400000000692
                },
                {
                    "name": "A#3",
                    "midi": 58,
                    "time": 150.59772000000024,
                    "velocity": 0.4094488188976378,
                    "duration": 0.35856599999999617
                },
                {
                    "name": "G#3",
                    "midi": 56,
                    "time": 150.95628600000023,
                    "velocity": 0.3464566929133858,
                    "duration": 0.059761000000008835
                },
                {
                    "name": "A#3",
                    "midi": 58,
                    "time": 151.01604700000024,
                    "velocity": 0.3464566929133858,
                    "duration": 0.059761000000008835
                },
                {
                    "name": "G#3",
                    "midi": 56,
                    "time": 151.07580800000025,
                    "velocity": 0.4094488188976378,
                    "duration": 0.23904400000000692
                },
                {
                    "name": "F3",
                    "midi": 53,
                    "time": 151.31485200000026,
                    "velocity": 0.36220472440944884,
                    "duration": 0.23904400000000692
                },
                {
                    "name": "C#3",
                    "midi": 49,
                    "time": 151.55389600000026,
                    "velocity": 0.3858267716535433,
                    "duration": 0.2390439999999785
                },
                {
                    "name": "F3",
                    "midi": 53,
                    "time": 151.79294000000024,
                    "velocity": 0.3543307086614173,
                    "duration": 0.23904400000000692
                },
                {
                    "name": "C3",
                    "midi": 48,
                    "time": 152.03198400000025,
                    "velocity": 0.3858267716535433,
                    "duration": 0.23904400000000692
                },
                {
                    "name": "F3",
                    "midi": 53,
                    "time": 152.51007200000026,
                    "velocity": 0.41732283464566927,
                    "duration": 0.7171319999999923
                },
                {
                    "name": "D#3",
                    "midi": 51,
                    "time": 153.22720400000026,
                    "velocity": 0.3700787401574803,
                    "duration": 0.23904400000000692
                },
                {
                    "name": "F3",
                    "midi": 53,
                    "time": 153.46624800000026,
                    "velocity": 0.4094488188976378,
                    "duration": 0.35856599999999617
                },
                {
                    "name": "F#3",
                    "midi": 54,
                    "time": 153.82481400000026,
                    "velocity": 0.3700787401574803,
                    "duration": 0.11952199999998925
                },
                {
                    "name": "G#3",
                    "midi": 56,
                    "time": 153.94433600000025,
                    "velocity": 0.41732283464566927,
                    "duration": 0.47808800000001384
                },
                {
                    "name": "A#3",
                    "midi": 58,
                    "time": 154.42242400000026,
                    "velocity": 0.36220472440944884,
                    "duration": 0.23904400000000692
                },
                {
                    "name": "C#4",
                    "midi": 61,
                    "time": 154.66146800000027,
                    "velocity": 0.4094488188976378,
                    "duration": 0.23904400000000692
                },
                {
                    "name": "C#4",
                    "midi": 61,
                    "time": 154.90051200000028,
                    "velocity": 0.4330708661417323,
                    "duration": 0.47808800000001384
                },
                {
                    "name": "C4",
                    "midi": 60,
                    "time": 155.3786000000003,
                    "velocity": 0.4251968503937008,
                    "duration": 0.23904400000000692
                },
                {
                    "name": "C#4",
                    "midi": 61,
                    "time": 155.6176440000003,
                    "velocity": 0.3937007874015748,
                    "duration": 0.23904400000000692
                },
                {
                    "name": "C4",
                    "midi": 60,
                    "time": 155.8566880000003,
                    "velocity": 0.4251968503937008,
                    "duration": 0.23904400000000692
                },
                {
                    "name": "A#3",
                    "midi": 58,
                    "time": 156.0957320000003,
                    "velocity": 0.3858267716535433,
                    "duration": 0.23904400000000692
                },
                {
                    "name": "G#3",
                    "midi": 56,
                    "time": 156.33477600000032,
                    "velocity": 0.4094488188976378,
                    "duration": 0.35856599999999617
                },
                {
                    "name": "A#3",
                    "midi": 58,
                    "time": 156.6933420000003,
                    "velocity": 0.3464566929133858,
                    "duration": 0.11952199999998925
                },
                {
                    "name": "C4",
                    "midi": 60,
                    "time": 156.8128640000003,
                    "velocity": 0.4094488188976378,
                    "duration": 0.47808800000001384
                },
                {
                    "name": "C3",
                    "midi": 48,
                    "time": 157.29095200000032,
                    "velocity": 0.3858267716535433,
                    "duration": 0.2390439999999785
                },
                {
                    "name": "G2",
                    "midi": 43,
                    "time": 157.7690400000003,
                    "velocity": 0.2992125984251969,
                    "duration": 0.9561759999999992
                },
                {
                    "name": "G3",
                    "midi": 55,
                    "time": 157.7690400000003,
                    "velocity": 0.36220472440944884,
                    "duration": 0.9561759999999992
                },
                {
                    "name": "G#3",
                    "midi": 56,
                    "time": 158.24712800000032,
                    "velocity": 0.3937007874015748,
                    "duration": 0.9561759999999992
                },
                {
                    "name": "F#2",
                    "midi": 42,
                    "time": 158.7252160000003,
                    "velocity": 0.2992125984251969,
                    "duration": 0.47808800000001384
                },
                {
                    "name": "F#3",
                    "midi": 54,
                    "time": 158.7252160000003,
                    "velocity": 0.36220472440944884,
                    "duration": 0.47808800000001384
                },
                {
                    "name": "F2",
                    "midi": 41,
                    "time": 159.20330400000032,
                    "velocity": 0.2992125984251969,
                    "duration": 0.9561759999999992
                },
                {
                    "name": "F3",
                    "midi": 53,
                    "time": 159.20330400000032,
                    "velocity": 0.36220472440944884,
                    "duration": 0.9561759999999992
                },
                {
                    "name": "G#3",
                    "midi": 56,
                    "time": 159.6813920000003,
                    "velocity": 0.4409448818897638,
                    "duration": 0.9561760000000277
                },
                {
                    "name": "E2",
                    "midi": 40,
                    "time": 160.15948000000031,
                    "velocity": 0.3228346456692913,
                    "duration": 0.47808800000001384
                },
                {
                    "name": "E3",
                    "midi": 52,
                    "time": 160.15948000000031,
                    "velocity": 0.3858267716535433,
                    "duration": 0.47808800000001384
                },
                {
                    "name": "D#2",
                    "midi": 39,
                    "time": 160.63756800000033,
                    "velocity": 0.33858267716535434,
                    "duration": 0.9561760000000277
                },
                {
                    "name": "D#3",
                    "midi": 51,
                    "time": 160.63756800000033,
                    "velocity": 0.4094488188976378,
                    "duration": 0.9561760000000277
                },
                {
                    "name": "G#3",
                    "midi": 56,
                    "time": 161.11565600000034,
                    "velocity": 0.44881889763779526,
                    "duration": 0.9561760000000277
                },
                {
                    "name": "G#1",
                    "midi": 32,
                    "time": 161.59374400000036,
                    "velocity": 0.3464566929133858,
                    "duration": 0.47808800000001384
                },
                {
                    "name": "G#2",
                    "midi": 44,
                    "time": 161.59374400000036,
                    "velocity": 0.41732283464566927,
                    "duration": 0.47808800000001384
                },
                {
                    "name": "E2",
                    "midi": 40,
                    "time": 162.07183200000037,
                    "velocity": 0.3228346456692913,
                    "duration": 0.4780879999999854
                },
                {
                    "name": "E3",
                    "midi": 52,
                    "time": 162.07183200000037,
                    "velocity": 0.3858267716535433,
                    "duration": 0.4780879999999854
                },
                {
                    "name": "F2",
                    "midi": 41,
                    "time": 162.54992000000036,
                    "velocity": 0.3228346456692913,
                    "duration": 0.4780879999999854
                },
                {
                    "name": "F3",
                    "midi": 53,
                    "time": 162.54992000000036,
                    "velocity": 0.3858267716535433,
                    "duration": 0.4780879999999854
                },
                {
                    "name": "G#1",
                    "midi": 32,
                    "time": 163.02800800000034,
                    "velocity": 0.25984251968503935,
                    "duration": 0.4780879999999854
                },
                {
                    "name": "G#2",
                    "midi": 44,
                    "time": 163.02800800000034,
                    "velocity": 0.2992125984251969,
                    "duration": 0.4780879999999854
                },
                {
                    "name": "G2",
                    "midi": 43,
                    "time": 163.50609600000033,
                    "velocity": 0.2992125984251969,
                    "duration": 0.9561759999999708
                },
                {
                    "name": "G3",
                    "midi": 55,
                    "time": 163.50609600000033,
                    "velocity": 0.36220472440944884,
                    "duration": 0.9561759999999708
                },
                {
                    "name": "G#3",
                    "midi": 56,
                    "time": 163.9841840000003,
                    "velocity": 0.4251968503937008,
                    "duration": 0.9561759999999992
                },
                {
                    "name": "F#2",
                    "midi": 42,
                    "time": 164.4622720000003,
                    "velocity": 0.2992125984251969,
                    "duration": 0.47808800000001384
                },
                {
                    "name": "F#3",
                    "midi": 54,
                    "time": 164.4622720000003,
                    "velocity": 0.36220472440944884,
                    "duration": 0.47808800000001384
                },
                {
                    "name": "F2",
                    "midi": 41,
                    "time": 164.9403600000003,
                    "velocity": 0.2992125984251969,
                    "duration": 0.9561760000000277
                },
                {
                    "name": "F3",
                    "midi": 53,
                    "time": 164.9403600000003,
                    "velocity": 0.36220472440944884,
                    "duration": 0.9561760000000277
                },
                {
                    "name": "G#3",
                    "midi": 56,
                    "time": 165.41844800000032,
                    "velocity": 0.4409448818897638,
                    "duration": 0.83665400000001
                },
                {
                    "name": "E2",
                    "midi": 40,
                    "time": 165.89653600000034,
                    "velocity": 0.3228346456692913,
                    "duration": 0.35856599999999617
                },
                {
                    "name": "E3",
                    "midi": 52,
                    "time": 165.89653600000034,
                    "velocity": 0.3858267716535433,
                    "duration": 0.35856599999999617
                },
                {
                    "name": "D#2",
                    "midi": 39,
                    "time": 166.37462400000032,
                    "velocity": 0.33858267716535434,
                    "duration": 0.47808800000001384
                },
                {
                    "name": "D#3",
                    "midi": 51,
                    "time": 166.37462400000032,
                    "velocity": 0.4094488188976378,
                    "duration": 0.47808800000001384
                },
                {
                    "name": "G#3",
                    "midi": 56,
                    "time": 166.85271200000034,
                    "velocity": 0.44881889763779526,
                    "duration": 0.9561759999999992
                },
                {
                    "name": "C#2",
                    "midi": 37,
                    "time": 167.80888800000034,
                    "velocity": 0.33858267716535434,
                    "duration": 0.47808800000001384
                },
                {
                    "name": "C#3",
                    "midi": 49,
                    "time": 167.80888800000034,
                    "velocity": 0.4094488188976378,
                    "duration": 0.47808800000001384
                },
                {
                    "name": "F#3",
                    "midi": 54,
                    "time": 168.28697600000035,
                    "velocity": 0.4330708661417323,
                    "duration": 0.9561759999999992
                },
                {
                    "name": "C2",
                    "midi": 36,
                    "time": 169.24315200000035,
                    "velocity": 0.33858267716535434,
                    "duration": 0.47808800000001384
                },
                {
                    "name": "C3",
                    "midi": 48,
                    "time": 169.24315200000035,
                    "velocity": 0.4094488188976378,
                    "duration": 0.47808800000001384
                },
                {
                    "name": "D#3",
                    "midi": 51,
                    "time": 169.72124000000036,
                    "velocity": 0.44881889763779526,
                    "duration": 0.4780879999999854
                },
                {
                    "name": "B1",
                    "midi": 35,
                    "time": 170.19932800000035,
                    "velocity": 0.3228346456692913,
                    "duration": 0.4780879999999854
                },
                {
                    "name": "B2",
                    "midi": 47,
                    "time": 170.19932800000035,
                    "velocity": 0.3779527559055118,
                    "duration": 0.4780879999999854
                },
                {
                    "name": "A#1",
                    "midi": 34,
                    "time": 170.67741600000033,
                    "velocity": 0.33858267716535434,
                    "duration": 0.47808800000001384
                },
                {
                    "name": "A#2",
                    "midi": 46,
                    "time": 170.67741600000033,
                    "velocity": 0.4094488188976378,
                    "duration": 0.47808800000001384
                },
                {
                    "name": "C#3",
                    "midi": 49,
                    "time": 171.15550400000035,
                    "velocity": 0.44881889763779526,
                    "duration": 0.4780879999999854
                },
                {
                    "name": "A1",
                    "midi": 33,
                    "time": 171.63359200000033,
                    "velocity": 0.33858267716535434,
                    "duration": 0.4780879999999854
                },
                {
                    "name": "A2",
                    "midi": 45,
                    "time": 171.63359200000033,
                    "velocity": 0.4094488188976378,
                    "duration": 0.4780879999999854
                },
                {
                    "name": "G#1",
                    "midi": 32,
                    "time": 172.11168000000032,
                    "velocity": 0.3858267716535433,
                    "duration": 0.47808800000001384
                },
                {
                    "name": "G#2",
                    "midi": 44,
                    "time": 172.11168000000032,
                    "velocity": 0.44881889763779526,
                    "duration": 0.47808800000001384
                },
                {
                    "name": "G#3",
                    "midi": 56,
                    "time": 172.58976800000033,
                    "velocity": 0.49606299212598426,
                    "duration": 0.9561759999999992
                },
                {
                    "name": "F3",
                    "midi": 53,
                    "time": 173.54594400000033,
                    "velocity": 0.47244094488188976,
                    "duration": 0.35856599999999617
                },
                {
                    "name": "D#3",
                    "midi": 51,
                    "time": 173.90451000000033,
                    "velocity": 0.3779527559055118,
                    "duration": 0.059761000000008835
                },
                {
                    "name": "F3",
                    "midi": 53,
                    "time": 173.96427100000034,
                    "velocity": 0.3228346456692913,
                    "duration": 0.059761000000008835
                },
                {
                    "name": "D#3",
                    "midi": 51,
                    "time": 174.02403200000035,
                    "velocity": 0.4094488188976378,
                    "duration": 0.23904400000000692
                },
                {
                    "name": "C#3",
                    "midi": 49,
                    "time": 174.26307600000035,
                    "velocity": 0.3858267716535433,
                    "duration": 0.23904400000000692
                },
                {
                    "name": "C3",
                    "midi": 48,
                    "time": 174.50212000000036,
                    "velocity": 0.36220472440944884,
                    "duration": 0.47808800000001384
                },
                {
                    "name": "C#3",
                    "midi": 49,
                    "time": 174.98020800000037,
                    "velocity": 0.3858267716535433,
                    "duration": 1.4342640000000415
                },
                {
                    "name": "G#2",
                    "midi": 44,
                    "time": 175.4582960000004,
                    "velocity": 0.3228346456692913,
                    "duration": 0.47808800000001384
                },
                {
                    "name": "C#2",
                    "midi": 37,
                    "time": 175.9363840000004,
                    "velocity": 0.25984251968503935,
                    "duration": 0.47808800000001384
                },
                {
                    "name": "D#3",
                    "midi": 51,
                    "time": 176.41447200000042,
                    "velocity": 0.3858267716535433,
                    "duration": 0.9561759999999992
                },
                {
                    "name": "C#2",
                    "midi": 37,
                    "time": 177.37064800000041,
                    "velocity": 0.25984251968503935,
                    "duration": 0.4780879999999854
                },
                {
                    "name": "D#3",
                    "midi": 51,
                    "time": 177.8487360000004,
                    "velocity": 0.3858267716535433,
                    "duration": 0.9561759999999992
                },
                {
                    "name": "C#2",
                    "midi": 37,
                    "time": 178.8049120000004,
                    "velocity": 0.2677165354330709,
                    "duration": 0.4780879999999854
                },
                {
                    "name": "D#3",
                    "midi": 51,
                    "time": 179.28300000000038,
                    "velocity": 0.3858267716535433,
                    "duration": 0.9561759999999992
                },
                {
                    "name": "C#2",
                    "midi": 37,
                    "time": 180.23917600000038,
                    "velocity": 0.2440944881889764,
                    "duration": 0.4780879999999854
                },
                {
                    "name": "F3",
                    "midi": 53,
                    "time": 180.71726400000037,
                    "velocity": 0.3858267716535433,
                    "duration": 0.9561759999999992
                },
                {
                    "name": "C#2",
                    "midi": 37,
                    "time": 181.67344000000037,
                    "velocity": 0.29133858267716534,
                    "duration": 0.4780879999999854
                },
                {
                    "name": "D#4",
                    "midi": 63,
                    "time": 182.15152800000035,
                    "velocity": 0.3858267716535433,
                    "duration": 0.9561759999999992
                },
                {
                    "name": "C#3",
                    "midi": 49,
                    "time": 183.10770400000035,
                    "velocity": 0.2440944881889764,
                    "duration": 0.4780879999999854
                },
                {
                    "name": "D#4",
                    "midi": 63,
                    "time": 183.58579200000034,
                    "velocity": 0.3858267716535433,
                    "duration": 0.9561759999999992
                },
                {
                    "name": "C#3",
                    "midi": 49,
                    "time": 184.54196800000034,
                    "velocity": 0.25984251968503935,
                    "duration": 0.4780879999999854
                },
                {
                    "name": "D#4",
                    "midi": 63,
                    "time": 185.02005600000032,
                    "velocity": 0.3858267716535433,
                    "duration": 0.9561759999999992
                },
                {
                    "name": "C#3",
                    "midi": 49,
                    "time": 185.97623200000032,
                    "velocity": 0.2677165354330709,
                    "duration": 0.4780879999999854
                },
                {
                    "name": "F4",
                    "midi": 65,
                    "time": 186.4543200000003,
                    "velocity": 0.3858267716535433,
                    "duration": 0.9561759999999992
                },
                {
                    "name": "C#3",
                    "midi": 49,
                    "time": 187.4104960000003,
                    "velocity": 0.2677165354330709,
                    "duration": 0.4780879999999854
                },
                {
                    "name": "F4",
                    "midi": 65,
                    "time": 187.8885840000003,
                    "velocity": 0.30708661417322836,
                    "duration": 1.912352000000027
                },
                {
                    "name": "C#4",
                    "midi": 61,
                    "time": 189.80093600000032,
                    "velocity": 0.2440944881889764,
                    "duration": 0.9561760000000277
                }
            ],
            "controlChanges": {
                "7": [
                    {
                        "number": 7,
                        "time": 0,
                        "value": 0.7874015748031497
                    }
                ],
                "64": [
                    {
                        "number": 64,
                        "time": 0.41533895,
                        "value": 1
                    },
                    {
                        "number": 64,
                        "time": 0.7679288499999999,
                        "value": 0
                    },
                    {
                        "number": 64,
                        "time": 1.4482082333333333,
                        "value": 1
                    },
                    {
                        "number": 64,
                        "time": 1.8705193,
                        "value": 0
                    },
                    {
                        "number": 64,
                        "time": 2.8685279999999995,
                        "value": 1
                    },
                    {
                        "number": 64,
                        "time": 3.572711783333333,
                        "value": 0
                    },
                    {
                        "number": 64,
                        "time": 4.373509183333333,
                        "value": 1
                    },
                    {
                        "number": 64,
                        "time": 4.725103066666667,
                        "value": 0
                    },
                    {
                        "number": 64,
                        "time": 4.808768466666667,
                        "value": 1
                    },
                    {
                        "number": 64,
                        "time": 5.4561793000000005,
                        "value": 0
                    },
                    {
                        "number": 64,
                        "time": 6.15239495,
                        "value": 1
                    },
                    {
                        "number": 64,
                        "time": 6.50498485,
                        "value": 0
                    },
                    {
                        "number": 64,
                        "time": 7.185264233333333,
                        "value": 1
                    },
                    {
                        "number": 64,
                        "time": 7.6075753,
                        "value": 0
                    },
                    {
                        "number": 64,
                        "time": 8.605583999999999,
                        "value": 1
                    },
                    {
                        "number": 64,
                        "time": 9.309767783333331,
                        "value": 0
                    },
                    {
                        "number": 64,
                        "time": 10.11056518333333,
                        "value": 1
                    },
                    {
                        "number": 64,
                        "time": 10.462159066666663,
                        "value": 0
                    },
                    {
                        "number": 64,
                        "time": 10.545824466666664,
                        "value": 1
                    },
                    {
                        "number": 64,
                        "time": 11.193235299999996,
                        "value": 0
                    },
                    {
                        "number": 64,
                        "time": 11.929291616666664,
                        "value": 1
                    },
                    {
                        "number": 64,
                        "time": 12.304789899999998,
                        "value": 0
                    },
                    {
                        "number": 64,
                        "time": 12.950208699999997,
                        "value": 1
                    },
                    {
                        "number": 64,
                        "time": 13.414352466666664,
                        "value": 0
                    },
                    {
                        "number": 64,
                        "time": 14.342639999999996,
                        "value": 1
                    },
                    {
                        "number": 64,
                        "time": 15.056783949999996,
                        "value": 0
                    },
                    {
                        "number": 64,
                        "time": 15.85060923333333,
                        "value": 1
                    },
                    {
                        "number": 64,
                        "time": 16.20917523333333,
                        "value": 0
                    },
                    {
                        "number": 64,
                        "time": 16.297820716666664,
                        "value": 1
                    },
                    {
                        "number": 64,
                        "time": 16.943239516666665,
                        "value": 0
                    },
                    {
                        "number": 64,
                        "time": 17.678299816666662,
                        "value": 1
                    },
                    {
                        "number": 64,
                        "time": 18.0418459,
                        "value": 0
                    },
                    {
                        "number": 64,
                        "time": 18.6633603,
                        "value": 1
                    },
                    {
                        "number": 64,
                        "time": 19.08865941666667,
                        "value": 0
                    },
                    {
                        "number": 64,
                        "time": 19.921329350000004,
                        "value": 1
                    },
                    {
                        "number": 64,
                        "time": 20.532883583333337,
                        "value": 0
                    },
                    {
                        "number": 64,
                        "time": 20.561768066666673,
                        "value": 1
                    },
                    {
                        "number": 64,
                        "time": 21.42232646666667,
                        "value": 0
                    },
                    {
                        "number": 64,
                        "time": 21.59961743333334,
                        "value": 1
                    },
                    {
                        "number": 64,
                        "time": 21.94623123333334,
                        "value": 0
                    },
                    {
                        "number": 64,
                        "time": 22.031888666666674,
                        "value": 1
                    },
                    {
                        "number": 64,
                        "time": 22.680295516666675,
                        "value": 0
                    },
                    {
                        "number": 64,
                        "time": 22.76894100000001,
                        "value": 1
                    },
                    {
                        "number": 64,
                        "time": 23.403403616666676,
                        "value": 0
                    },
                    {
                        "number": 64,
                        "time": 23.43527615000001,
                        "value": 1
                    },
                    {
                        "number": 64,
                        "time": 24.30579471666668,
                        "value": 0
                    },
                    {
                        "number": 64,
                        "time": 24.445237050000014,
                        "value": 1
                    },
                    {
                        "number": 64,
                        "time": 24.829699483333346,
                        "value": 0
                    },
                    {
                        "number": 64,
                        "time": 24.903404716666678,
                        "value": 1
                    },
                    {
                        "number": 64,
                        "time": 25.315755616666678,
                        "value": 0
                    },
                    {
                        "number": 64,
                        "time": 26.23209095000001,
                        "value": 1
                    },
                    {
                        "number": 64,
                        "time": 26.584680850000012,
                        "value": 0
                    },
                    {
                        "number": 64,
                        "time": 27.264960233333344,
                        "value": 1
                    },
                    {
                        "number": 64,
                        "time": 27.68727130000001,
                        "value": 0
                    },
                    {
                        "number": 64,
                        "time": 28.68528000000001,
                        "value": 1
                    },
                    {
                        "number": 64,
                        "time": 29.389463783333348,
                        "value": 0
                    },
                    {
                        "number": 64,
                        "time": 30.190261183333348,
                        "value": 1
                    },
                    {
                        "number": 64,
                        "time": 30.541855066666685,
                        "value": 0
                    },
                    {
                        "number": 64,
                        "time": 30.625520466666686,
                        "value": 1
                    },
                    {
                        "number": 64,
                        "time": 31.272931300000018,
                        "value": 0
                    },
                    {
                        "number": 64,
                        "time": 31.969146950000017,
                        "value": 1
                    },
                    {
                        "number": 64,
                        "time": 32.321736850000015,
                        "value": 0
                    },
                    {
                        "number": 64,
                        "time": 33.00201623333335,
                        "value": 1
                    },
                    {
                        "number": 64,
                        "time": 33.42432730000002,
                        "value": 0
                    },
                    {
                        "number": 64,
                        "time": 34.42233600000002,
                        "value": 1
                    },
                    {
                        "number": 64,
                        "time": 35.12651978333336,
                        "value": 0
                    },
                    {
                        "number": 64,
                        "time": 35.92731718333336,
                        "value": 1
                    },
                    {
                        "number": 64,
                        "time": 36.278911066666694,
                        "value": 0
                    },
                    {
                        "number": 64,
                        "time": 36.362576466666695,
                        "value": 1
                    },
                    {
                        "number": 64,
                        "time": 37.00998730000003,
                        "value": 0
                    },
                    {
                        "number": 64,
                        "time": 37.7460436166667,
                        "value": 1
                    },
                    {
                        "number": 64,
                        "time": 38.121541900000025,
                        "value": 0
                    },
                    {
                        "number": 64,
                        "time": 38.76696070000003,
                        "value": 1
                    },
                    {
                        "number": 64,
                        "time": 39.23110446666669,
                        "value": 0
                    },
                    {
                        "number": 64,
                        "time": 40.159392000000025,
                        "value": 1
                    },
                    {
                        "number": 64,
                        "time": 40.873535950000026,
                        "value": 0
                    },
                    {
                        "number": 64,
                        "time": 41.66736123333336,
                        "value": 1
                    },
                    {
                        "number": 64,
                        "time": 42.02592723333336,
                        "value": 0
                    },
                    {
                        "number": 64,
                        "time": 42.1145727166667,
                        "value": 1
                    },
                    {
                        "number": 64,
                        "time": 42.759991516666695,
                        "value": 0
                    },
                    {
                        "number": 64,
                        "time": 43.495051816666695,
                        "value": 1
                    },
                    {
                        "number": 64,
                        "time": 43.85859790000003,
                        "value": 0
                    },
                    {
                        "number": 64,
                        "time": 44.48011230000003,
                        "value": 1
                    },
                    {
                        "number": 64,
                        "time": 44.905411416666695,
                        "value": 0
                    },
                    {
                        "number": 64,
                        "time": 45.73808135000003,
                        "value": 1
                    },
                    {
                        "number": 64,
                        "time": 46.34963558333337,
                        "value": 0
                    },
                    {
                        "number": 64,
                        "time": 46.3785200666667,
                        "value": 1
                    },
                    {
                        "number": 64,
                        "time": 47.239078466666705,
                        "value": 0
                    },
                    {
                        "number": 64,
                        "time": 47.33071200000004,
                        "value": 1
                    },
                    {
                        "number": 64,
                        "time": 47.78589161666671,
                        "value": 0
                    },
                    {
                        "number": 64,
                        "time": 47.81776415000004,
                        "value": 1
                    },
                    {
                        "number": 64,
                        "time": 48.70123093333337,
                        "value": 0
                    },
                    {
                        "number": 64,
                        "time": 48.76497600000004,
                        "value": 1
                    },
                    {
                        "number": 64,
                        "time": 49.22015561666671,
                        "value": 0
                    },
                    {
                        "number": 64,
                        "time": 49.25202815000004,
                        "value": 1
                    },
                    {
                        "number": 64,
                        "time": 50.13549493333337,
                        "value": 0
                    },
                    {
                        "number": 64,
                        "time": 50.19924000000004,
                        "value": 1
                    },
                    {
                        "number": 64,
                        "time": 50.65441961666671,
                        "value": 0
                    },
                    {
                        "number": 64,
                        "time": 50.686292150000035,
                        "value": 1
                    },
                    {
                        "number": 64,
                        "time": 51.56975893333337,
                        "value": 0
                    },
                    {
                        "number": 64,
                        "time": 51.63350400000004,
                        "value": 1
                    },
                    {
                        "number": 64,
                        "time": 52.08868361666671,
                        "value": 0
                    },
                    {
                        "number": 64,
                        "time": 52.120556150000034,
                        "value": 1
                    },
                    {
                        "number": 64,
                        "time": 53.00402293333337,
                        "value": 0
                    },
                    {
                        "number": 64,
                        "time": 53.13051705000004,
                        "value": 1
                    },
                    {
                        "number": 64,
                        "time": 53.51497948333338,
                        "value": 0
                    },
                    {
                        "number": 64,
                        "time": 53.58868471666671,
                        "value": 1
                    },
                    {
                        "number": 64,
                        "time": 54.00103561666671,
                        "value": 0
                    },
                    {
                        "number": 64,
                        "time": 54.68828711666671,
                        "value": 1
                    },
                    {
                        "number": 64,
                        "time": 55.51099688333338,
                        "value": 0
                    },
                    {
                        "number": 64,
                        "time": 56.17534000000004,
                        "value": 1
                    },
                    {
                        "number": 64,
                        "time": 57.01896611666671,
                        "value": 0
                    },
                    {
                        "number": 64,
                        "time": 57.591675700000046,
                        "value": 1
                    },
                    {
                        "number": 64,
                        "time": 58.42135758333338,
                        "value": 0
                    },
                    {
                        "number": 64,
                        "time": 59.025939700000045,
                        "value": 1
                    },
                    {
                        "number": 64,
                        "time": 60.041876700000046,
                        "value": 0
                    },
                    {
                        "number": 64,
                        "time": 60.26896850000004,
                        "value": 1
                    },
                    {
                        "number": 64,
                        "time": 61.494069000000046,
                        "value": 0
                    },
                    {
                        "number": 64,
                        "time": 61.88450753333338,
                        "value": 1
                    },
                    {
                        "number": 64,
                        "time": 62.75602211666671,
                        "value": 0
                    },
                    {
                        "number": 64,
                        "time": 63.35064406666672,
                        "value": 1
                    },
                    {
                        "number": 64,
                        "time": 64.15841358333338,
                        "value": 0
                    },
                    {
                        "number": 64,
                        "time": 64.80881246666671,
                        "value": 1
                    },
                    {
                        "number": 64,
                        "time": 65.77893270000004,
                        "value": 0
                    },
                    {
                        "number": 64,
                        "time": 66.00602450000005,
                        "value": 1
                    },
                    {
                        "number": 64,
                        "time": 67.23112500000005,
                        "value": 0
                    },
                    {
                        "number": 64,
                        "time": 67.42833630000004,
                        "value": 1
                    },
                    {
                        "number": 64,
                        "time": 68.36658400000005,
                        "value": 1
                    },
                    {
                        "number": 64,
                        "time": 68.67634518333338,
                        "value": 0
                    },
                    {
                        "number": 64,
                        "time": 68.72116593333338,
                        "value": 1
                    },
                    {
                        "number": 64,
                        "time": 71.42136711666672,
                        "value": 0
                    },
                    {
                        "number": 64,
                        "time": 71.72714423333338,
                        "value": 1
                    },
                    {
                        "number": 64,
                        "time": 72.97913718333338,
                        "value": 0
                    },
                    {
                        "number": 64,
                        "time": 73.2739581166667,
                        "value": 1
                    },
                    {
                        "number": 64,
                        "time": 74.35662823333338,
                        "value": 0
                    },
                    {
                        "number": 64,
                        "time": 74.59567223333339,
                        "value": 1
                    },
                    {
                        "number": 64,
                        "time": 74.94726611666673,
                        "value": 0
                    },
                    {
                        "number": 64,
                        "time": 74.97913865000005,
                        "value": 1
                    },
                    {
                        "number": 64,
                        "time": 75.93531465000005,
                        "value": 0
                    },
                    {
                        "number": 64,
                        "time": 76.17535466666672,
                        "value": 1
                    },
                    {
                        "number": 64,
                        "time": 77.13153066666672,
                        "value": 0
                    },
                    {
                        "number": 64,
                        "time": 77.45025600000005,
                        "value": 1
                    },
                    {
                        "number": 64,
                        "time": 77.98013686666673,
                        "value": 0
                    },
                    {
                        "number": 64,
                        "time": 78.43232843333338,
                        "value": 1
                    },
                    {
                        "number": 64,
                        "time": 78.75503783333338,
                        "value": 0
                    },
                    {
                        "number": 64,
                        "time": 78.89846423333337,
                        "value": 1
                    },
                    {
                        "number": 64,
                        "time": 80.1853177666667,
                        "value": 0
                    },
                    {
                        "number": 64,
                        "time": 80.35364458333336,
                        "value": 1
                    },
                    {
                        "number": 64,
                        "time": 80.7829277666667,
                        "value": 0
                    },
                    {
                        "number": 64,
                        "time": 80.86758918333337,
                        "value": 1
                    },
                    {
                        "number": 64,
                        "time": 81.61260965000004,
                        "value": 0
                    },
                    {
                        "number": 64,
                        "time": 81.77994045000004,
                        "value": 1
                    },
                    {
                        "number": 64,
                        "time": 82.28392488333337,
                        "value": 0
                    },
                    {
                        "number": 64,
                        "time": 83.32775035000003,
                        "value": 1
                    },
                    {
                        "number": 64,
                        "time": 83.90444400000004,
                        "value": 0
                    },
                    {
                        "number": 64,
                        "time": 84.81480323333338,
                        "value": 1
                    },
                    {
                        "number": 64,
                        "time": 85.44129771666671,
                        "value": 0
                    },
                    {
                        "number": 64,
                        "time": 86.15842971666672,
                        "value": 1
                    },
                    {
                        "number": 64,
                        "time": 86.82974495000005,
                        "value": 0
                    },
                    {
                        "number": 64,
                        "time": 87.59269371666672,
                        "value": 1
                    },
                    {
                        "number": 64,
                        "time": 88.28691733333338,
                        "value": 0
                    },
                    {
                        "number": 64,
                        "time": 89.03791390000005,
                        "value": 1
                    },
                    {
                        "number": 64,
                        "time": 89.82377105000005,
                        "value": 0
                    },
                    {
                        "number": 64,
                        "time": 90.42934918333337,
                        "value": 1
                    },
                    {
                        "number": 64,
                        "time": 91.38552518333337,
                        "value": 0
                    },
                    {
                        "number": 64,
                        "time": 91.84867293333338,
                        "value": 1
                    },
                    {
                        "number": 64,
                        "time": 92.62257788333338,
                        "value": 0
                    },
                    {
                        "number": 64,
                        "time": 93.32974971666671,
                        "value": 1
                    },
                    {
                        "number": 64,
                        "time": 94.11461085000003,
                        "value": 0
                    },
                    {
                        "number": 64,
                        "time": 94.76700176666672,
                        "value": 1
                    },
                    {
                        "number": 64,
                        "time": 95.92736118333339,
                        "value": 0
                    },
                    {
                        "number": 64,
                        "time": 96.22218211666672,
                        "value": 1
                    },
                    {
                        "number": 64,
                        "time": 97.30485223333339,
                        "value": 0
                    },
                    {
                        "number": 64,
                        "time": 97.5438962333334,
                        "value": 1
                    },
                    {
                        "number": 64,
                        "time": 97.89549011666674,
                        "value": 0
                    },
                    {
                        "number": 64,
                        "time": 97.92736265000006,
                        "value": 1
                    },
                    {
                        "number": 64,
                        "time": 98.88353865000006,
                        "value": 0
                    },
                    {
                        "number": 64,
                        "time": 99.12357866666673,
                        "value": 1
                    },
                    {
                        "number": 64,
                        "time": 100.07975466666673,
                        "value": 0
                    },
                    {
                        "number": 64,
                        "time": 100.39848000000006,
                        "value": 1
                    },
                    {
                        "number": 64,
                        "time": 100.92836086666674,
                        "value": 0
                    },
                    {
                        "number": 64,
                        "time": 101.38055243333339,
                        "value": 1
                    },
                    {
                        "number": 64,
                        "time": 101.70326183333339,
                        "value": 0
                    },
                    {
                        "number": 64,
                        "time": 101.84668823333338,
                        "value": 1
                    },
                    {
                        "number": 64,
                        "time": 103.13354176666671,
                        "value": 0
                    },
                    {
                        "number": 64,
                        "time": 103.26700800000005,
                        "value": 1
                    },
                    {
                        "number": 64,
                        "time": 103.79688886666672,
                        "value": 0
                    },
                    {
                        "number": 64,
                        "time": 104.24908043333339,
                        "value": 1
                    },
                    {
                        "number": 64,
                        "time": 104.57178983333338,
                        "value": 0
                    },
                    {
                        "number": 64,
                        "time": 104.71521623333338,
                        "value": 1
                    },
                    {
                        "number": 64,
                        "time": 106.00206976666671,
                        "value": 0
                    },
                    {
                        "number": 64,
                        "time": 106.16342446666671,
                        "value": 1
                    },
                    {
                        "number": 64,
                        "time": 107.2182061166667,
                        "value": 0
                    },
                    {
                        "number": 64,
                        "time": 107.62059685000004,
                        "value": 1
                    },
                    {
                        "number": 64,
                        "time": 107.94729031666671,
                        "value": 0
                    },
                    {
                        "number": 64,
                        "time": 108.09868485000004,
                        "value": 1
                    },
                    {
                        "number": 64,
                        "time": 108.62657368333338,
                        "value": 0
                    },
                    {
                        "number": 64,
                        "time": 109.03195246666671,
                        "value": 1
                    },
                    {
                        "number": 64,
                        "time": 110.0867341166667,
                        "value": 0
                    },
                    {
                        "number": 64,
                        "time": 110.48912485000004,
                        "value": 1
                    },
                    {
                        "number": 64,
                        "time": 110.81581831666671,
                        "value": 0
                    },
                    {
                        "number": 64,
                        "time": 110.96721285000004,
                        "value": 1
                    },
                    {
                        "number": 64,
                        "time": 111.87259200000004,
                        "value": 0
                    },
                    {
                        "number": 64,
                        "time": 111.92338885000004,
                        "value": 1
                    },
                    {
                        "number": 64,
                        "time": 112.2500823166667,
                        "value": 0
                    },
                    {
                        "number": 64,
                        "time": 112.40147685000004,
                        "value": 1
                    },
                    {
                        "number": 64,
                        "time": 113.30685600000004,
                        "value": 0
                    },
                    {
                        "number": 64,
                        "time": 113.35765285000004,
                        "value": 1
                    },
                    {
                        "number": 64,
                        "time": 114.23813158333337,
                        "value": 0
                    },
                    {
                        "number": 64,
                        "time": 114.74112000000004,
                        "value": 1
                    },
                    {
                        "number": 64,
                        "time": 120.16343473333336,
                        "value": 0
                    },
                    {
                        "number": 64,
                        "time": 120.89351495000004,
                        "value": 1
                    },
                    {
                        "number": 64,
                        "time": 121.24610485000004,
                        "value": 0
                    },
                    {
                        "number": 64,
                        "time": 121.92638423333338,
                        "value": 1
                    },
                    {
                        "number": 64,
                        "time": 122.34869530000005,
                        "value": 0
                    },
                    {
                        "number": 64,
                        "time": 123.34670400000006,
                        "value": 1
                    },
                    {
                        "number": 64,
                        "time": 124.05088778333338,
                        "value": 0
                    },
                    {
                        "number": 64,
                        "time": 124.8516851833334,
                        "value": 1
                    },
                    {
                        "number": 64,
                        "time": 125.20327906666672,
                        "value": 0
                    },
                    {
                        "number": 64,
                        "time": 125.28694446666672,
                        "value": 1
                    },
                    {
                        "number": 64,
                        "time": 125.93435530000008,
                        "value": 0
                    },
                    {
                        "number": 64,
                        "time": 126.63057095000009,
                        "value": 1
                    },
                    {
                        "number": 64,
                        "time": 126.98316085000009,
                        "value": 0
                    },
                    {
                        "number": 64,
                        "time": 127.66344023333343,
                        "value": 1
                    },
                    {
                        "number": 64,
                        "time": 128.0857513000001,
                        "value": 0
                    },
                    {
                        "number": 64,
                        "time": 129.08376000000013,
                        "value": 1
                    },
                    {
                        "number": 64,
                        "time": 129.78794378333347,
                        "value": 0
                    },
                    {
                        "number": 64,
                        "time": 130.5887411833335,
                        "value": 1
                    },
                    {
                        "number": 64,
                        "time": 130.94033506666682,
                        "value": 0
                    },
                    {
                        "number": 64,
                        "time": 131.02400046666682,
                        "value": 1
                    },
                    {
                        "number": 64,
                        "time": 131.67141130000016,
                        "value": 0
                    },
                    {
                        "number": 64,
                        "time": 132.40746761666682,
                        "value": 1
                    },
                    {
                        "number": 64,
                        "time": 132.78296590000016,
                        "value": 0
                    },
                    {
                        "number": 64,
                        "time": 133.42838470000015,
                        "value": 1
                    },
                    {
                        "number": 64,
                        "time": 133.89252846666682,
                        "value": 0
                    },
                    {
                        "number": 64,
                        "time": 134.82081600000018,
                        "value": 1
                    },
                    {
                        "number": 64,
                        "time": 135.5349599500002,
                        "value": 0
                    },
                    {
                        "number": 64,
                        "time": 136.32878523333355,
                        "value": 1
                    },
                    {
                        "number": 64,
                        "time": 136.68735123333354,
                        "value": 0
                    },
                    {
                        "number": 64,
                        "time": 136.77599671666687,
                        "value": 1
                    },
                    {
                        "number": 64,
                        "time": 137.42141551666685,
                        "value": 0
                    },
                    {
                        "number": 64,
                        "time": 138.15647581666684,
                        "value": 1
                    },
                    {
                        "number": 64,
                        "time": 138.52002190000016,
                        "value": 0
                    },
                    {
                        "number": 64,
                        "time": 139.14153630000015,
                        "value": 1
                    },
                    {
                        "number": 64,
                        "time": 139.56683541666683,
                        "value": 0
                    },
                    {
                        "number": 64,
                        "time": 140.39950535000017,
                        "value": 1
                    },
                    {
                        "number": 64,
                        "time": 141.0110595833335,
                        "value": 0
                    },
                    {
                        "number": 64,
                        "time": 141.03994406666683,
                        "value": 1
                    },
                    {
                        "number": 64,
                        "time": 141.90050246666684,
                        "value": 0
                    },
                    {
                        "number": 64,
                        "time": 142.07779343333348,
                        "value": 1
                    },
                    {
                        "number": 64,
                        "time": 142.42440723333348,
                        "value": 0
                    },
                    {
                        "number": 64,
                        "time": 142.5100646666668,
                        "value": 1
                    },
                    {
                        "number": 64,
                        "time": 143.1584715166668,
                        "value": 0
                    },
                    {
                        "number": 64,
                        "time": 143.24711700000012,
                        "value": 1
                    },
                    {
                        "number": 64,
                        "time": 143.88157961666678,
                        "value": 0
                    },
                    {
                        "number": 64,
                        "time": 143.91345215000013,
                        "value": 1
                    },
                    {
                        "number": 64,
                        "time": 144.7839707166668,
                        "value": 0
                    },
                    {
                        "number": 64,
                        "time": 144.92341305000014,
                        "value": 1
                    },
                    {
                        "number": 64,
                        "time": 145.30787548333348,
                        "value": 0
                    },
                    {
                        "number": 64,
                        "time": 145.3815807166668,
                        "value": 1
                    },
                    {
                        "number": 64,
                        "time": 145.7939316166668,
                        "value": 0
                    },
                    {
                        "number": 64,
                        "time": 146.71026695000018,
                        "value": 1
                    },
                    {
                        "number": 64,
                        "time": 147.06285685000017,
                        "value": 0
                    },
                    {
                        "number": 64,
                        "time": 147.7431362333335,
                        "value": 1
                    },
                    {
                        "number": 64,
                        "time": 148.16544730000018,
                        "value": 0
                    },
                    {
                        "number": 64,
                        "time": 149.1634560000002,
                        "value": 1
                    },
                    {
                        "number": 64,
                        "time": 149.86763978333354,
                        "value": 0
                    },
                    {
                        "number": 64,
                        "time": 150.66843718333357,
                        "value": 1
                    },
                    {
                        "number": 64,
                        "time": 151.02003106666692,
                        "value": 0
                    },
                    {
                        "number": 64,
                        "time": 151.10369646666692,
                        "value": 1
                    },
                    {
                        "number": 64,
                        "time": 151.75110730000026,
                        "value": 0
                    },
                    {
                        "number": 64,
                        "time": 152.44732295000026,
                        "value": 1
                    },
                    {
                        "number": 64,
                        "time": 152.79991285000025,
                        "value": 0
                    },
                    {
                        "number": 64,
                        "time": 153.48019223333358,
                        "value": 1
                    },
                    {
                        "number": 64,
                        "time": 153.90250330000026,
                        "value": 0
                    },
                    {
                        "number": 64,
                        "time": 154.90051200000028,
                        "value": 1
                    },
                    {
                        "number": 64,
                        "time": 155.60469578333363,
                        "value": 0
                    },
                    {
                        "number": 64,
                        "time": 156.40549318333365,
                        "value": 1
                    },
                    {
                        "number": 64,
                        "time": 156.75708706666697,
                        "value": 0
                    },
                    {
                        "number": 64,
                        "time": 156.84075246666697,
                        "value": 1
                    },
                    {
                        "number": 64,
                        "time": 157.4881633000003,
                        "value": 0
                    },
                    {
                        "number": 64,
                        "time": 158.22421961666697,
                        "value": 1
                    },
                    {
                        "number": 64,
                        "time": 158.59971790000031,
                        "value": 0
                    },
                    {
                        "number": 64,
                        "time": 159.2451367000003,
                        "value": 1
                    },
                    {
                        "number": 64,
                        "time": 159.70928046666697,
                        "value": 0
                    },
                    {
                        "number": 64,
                        "time": 160.63756800000033,
                        "value": 1
                    },
                    {
                        "number": 64,
                        "time": 161.35171195000035,
                        "value": 0
                    },
                    {
                        "number": 64,
                        "time": 162.1455372333337,
                        "value": 1
                    },
                    {
                        "number": 64,
                        "time": 162.5041032333337,
                        "value": 0
                    },
                    {
                        "number": 64,
                        "time": 162.59274871666702,
                        "value": 1
                    },
                    {
                        "number": 64,
                        "time": 163.238167516667,
                        "value": 0
                    },
                    {
                        "number": 64,
                        "time": 163.973227816667,
                        "value": 1
                    },
                    {
                        "number": 64,
                        "time": 164.3367739000003,
                        "value": 0
                    },
                    {
                        "number": 64,
                        "time": 164.9582883000003,
                        "value": 1
                    },
                    {
                        "number": 64,
                        "time": 165.38358741666698,
                        "value": 0
                    },
                    {
                        "number": 64,
                        "time": 166.21625735000035,
                        "value": 1
                    },
                    {
                        "number": 64,
                        "time": 166.82781158333367,
                        "value": 0
                    },
                    {
                        "number": 64,
                        "time": 166.856696066667,
                        "value": 1
                    },
                    {
                        "number": 64,
                        "time": 167.71725446666701,
                        "value": 0
                    },
                    {
                        "number": 64,
                        "time": 167.80888800000034,
                        "value": 1
                    },
                    {
                        "number": 64,
                        "time": 168.264067616667,
                        "value": 0
                    },
                    {
                        "number": 64,
                        "time": 168.29594015000035,
                        "value": 1
                    },
                    {
                        "number": 64,
                        "time": 169.1794069333337,
                        "value": 0
                    },
                    {
                        "number": 64,
                        "time": 169.24315200000035,
                        "value": 1
                    },
                    {
                        "number": 64,
                        "time": 169.69833161666702,
                        "value": 0
                    },
                    {
                        "number": 64,
                        "time": 169.73020415000036,
                        "value": 1
                    },
                    {
                        "number": 64,
                        "time": 170.61367093333368,
                        "value": 0
                    },
                    {
                        "number": 64,
                        "time": 170.67741600000033,
                        "value": 1
                    },
                    {
                        "number": 64,
                        "time": 171.132595616667,
                        "value": 0
                    },
                    {
                        "number": 64,
                        "time": 171.16446815000035,
                        "value": 1
                    },
                    {
                        "number": 64,
                        "time": 172.04793493333366,
                        "value": 0
                    },
                    {
                        "number": 64,
                        "time": 172.11168000000032,
                        "value": 1
                    },
                    {
                        "number": 64,
                        "time": 172.566859616667,
                        "value": 0
                    },
                    {
                        "number": 64,
                        "time": 172.59873215000033,
                        "value": 1
                    },
                    {
                        "number": 64,
                        "time": 173.48219893333368,
                        "value": 0
                    },
                    {
                        "number": 64,
                        "time": 173.60869305000034,
                        "value": 1
                    },
                    {
                        "number": 64,
                        "time": 173.99315548333368,
                        "value": 0
                    },
                    {
                        "number": 64,
                        "time": 174.066860716667,
                        "value": 1
                    },
                    {
                        "number": 64,
                        "time": 174.47921161666702,
                        "value": 0
                    },
                    {
                        "number": 64,
                        "time": 175.16646311666705,
                        "value": 1
                    },
                    {
                        "number": 64,
                        "time": 175.98917288333374,
                        "value": 0
                    },
                    {
                        "number": 64,
                        "time": 176.65351600000042,
                        "value": 1
                    },
                    {
                        "number": 64,
                        "time": 177.49714211666708,
                        "value": 0
                    },
                    {
                        "number": 64,
                        "time": 178.0698517000004,
                        "value": 1
                    },
                    {
                        "number": 64,
                        "time": 178.89953358333372,
                        "value": 0
                    },
                    {
                        "number": 64,
                        "time": 179.5041157000004,
                        "value": 1
                    },
                    {
                        "number": 64,
                        "time": 180.52005270000038,
                        "value": 0
                    },
                    {
                        "number": 64,
                        "time": 180.74714450000036,
                        "value": 1
                    },
                    {
                        "number": 64,
                        "time": 181.97224500000036,
                        "value": 0
                    },
                    {
                        "number": 64,
                        "time": 182.3626835333337,
                        "value": 1
                    },
                    {
                        "number": 64,
                        "time": 183.23419811666702,
                        "value": 0
                    },
                    {
                        "number": 64,
                        "time": 183.828820066667,
                        "value": 1
                    },
                    {
                        "number": 64,
                        "time": 184.63658958333366,
                        "value": 0
                    },
                    {
                        "number": 64,
                        "time": 185.286988466667,
                        "value": 1
                    },
                    {
                        "number": 64,
                        "time": 186.25710870000032,
                        "value": 0
                    },
                    {
                        "number": 64,
                        "time": 186.4842005000003,
                        "value": 1
                    },
                    {
                        "number": 64,
                        "time": 187.7093010000003,
                        "value": 0
                    },
                    {
                        "number": 64,
                        "time": 187.9065123000003,
                        "value": 1
                    },
                    {
                        "number": 64,
                        "time": 188.8447600000003,
                        "value": 1
                    },
                    {
                        "number": 64,
                        "time": 189.15452118333363,
                        "value": 0
                    },
                    {
                        "number": 64,
                        "time": 189.19934193333364,
                        "value": 1
                    },
                    {
                        "number": 64,
                        "time": 190.59774933333367,
                        "value": 0
                    }
                ]
            },
            "id": 2,
            "name": "Piano left",
            "instrumentNumber": 0,
            "instrument": "acoustic grand piano",
            "instrumentFamily": "piano",
            "channelNumber": 0,
            "isPercussion": false
        },
        {
            "startTime": 0,
            "duration": 0,
            "length": 0,
            "notes": [],
            "controlChanges": {},
            "id": 3,
            "name": "Borodin: Petite Suite, Mazurka 2"
        },
        {
            "startTime": 0,
            "duration": 0,
            "length": 0,
            "notes": [],
            "controlChanges": {},
            "id": 4,
            "name": "Copyright  2000 by Bernd Krger"
        },
        {
            "startTime": 0,
            "duration": 0,
            "length": 0,
            "notes": [],
            "controlChanges": {},
            "id": 5,
            "name": "email: bernd.krueger@piano-midi.de"
        },
        {
            "startTime": 0,
            "duration": 0,
            "length": 0,
            "notes": [],
            "controlChanges": {},
            "id": 6,
            "name": "http://www.piano-midi.de"
        },
        {
            "startTime": 0,
            "duration": 0,
            "length": 0,
            "notes": [],
            "controlChanges": {},
            "id": 7,
            "name": "Edition: 21.8.00"
        },
        {
            "startTime": 0,
            "duration": 0,
            "length": 0,
            "notes": [],
            "controlChanges": {},
            "id": 8
        }
    ]
}