{
    "header": {
        "PPQ": 480,
        "timeSignature": [
            6,
            8
        ],
        "bpm": 145.5300446777237,
        "name": "Scherzo"
    },
    "startTime": 0,
    "duration": 442.8982354999974,
    "tracks": [
        {
            "startTime": 0,
            "duration": 0,
            "length": 0,
            "notes": [],
            "controlChanges": {},
            "id": 0,
            "name": "Scherzo"
        },
        {
            "startTime": 0,
            "duration": 442.89823549999556,
            "length": 3026,
            "notes": [
                {
                    "name": "E3",
                    "midi": 52,
                    "time": 0,
                    "velocity": 0.5984251968503937,
                    "duration": 0.20614300000000002
                },
                {
                    "name": "D5",
                    "midi": 74,
                    "time": 0.6184290000000001,
                    "velocity": 0.49606299212598426,
                    "duration": 0.6184290000000001
                },
                {
                    "name": "D6",
                    "midi": 86,
                    "time": 0.6184290000000001,
                    "velocity": 0.5905511811023622,
                    "duration": 0.6184290000000001
                },
                {
                    "name": "B5",
                    "midi": 83,
                    "time": 0.6184290000000001,
                    "velocity": 0.49606299212598426,
                    "duration": 0.6184290000000001
                },
                {
                    "name": "A5",
                    "midi": 81,
                    "time": 1.2368580000000002,
                    "velocity": 0.5748031496062992,
                    "duration": 0.6184290000000001
                },
                {
                    "name": "C6",
                    "midi": 84,
                    "time": 1.2368580000000002,
                    "velocity": 0.5748031496062992,
                    "duration": 0.6184290000000001
                },
                {
                    "name": "C5",
                    "midi": 72,
                    "time": 1.2368580000000002,
                    "velocity": 0.4881889763779528,
                    "duration": 0.6184290000000001
                },
                {
                    "name": "F#5",
                    "midi": 78,
                    "time": 1.8552870000000004,
                    "velocity": 0.49606299212598426,
                    "duration": 0.6184290000000001
                },
                {
                    "name": "A4",
                    "midi": 69,
                    "time": 1.8552870000000004,
                    "velocity": 0.49606299212598426,
                    "duration": 0.6184290000000001
                },
                {
                    "name": "A5",
                    "midi": 81,
                    "time": 1.8552870000000004,
                    "velocity": 0.5905511811023622,
                    "duration": 0.6184290000000001
                },
                {
                    "name": "B5",
                    "midi": 83,
                    "time": 2.4737160000000005,
                    "velocity": 0.5511811023622047,
                    "duration": 0.10307149999999998
                },
                {
                    "name": "B4",
                    "midi": 71,
                    "time": 2.4737160000000005,
                    "velocity": 0.4645669291338583,
                    "duration": 0.10307149999999998
                },
                {
                    "name": "G5",
                    "midi": 79,
                    "time": 2.4737160000000005,
                    "velocity": 0.4645669291338583,
                    "duration": 0.10307149999999998
                },
                {
                    "name": "G4",
                    "midi": 67,
                    "time": 2.6798590000000004,
                    "velocity": 0.4094488188976378,
                    "duration": 0.10307149999999998
                },
                {
                    "name": "E5",
                    "midi": 76,
                    "time": 2.6798590000000004,
                    "velocity": 0.4094488188976378,
                    "duration": 0.10307149999999998
                },
                {
                    "name": "G5",
                    "midi": 79,
                    "time": 2.6798590000000004,
                    "velocity": 0.4881889763779528,
                    "duration": 0.10307149999999998
                },
                {
                    "name": "A5",
                    "midi": 81,
                    "time": 2.8860020000000004,
                    "velocity": 0.5511811023622047,
                    "duration": 0.10307149999999998
                },
                {
                    "name": "F#5",
                    "midi": 78,
                    "time": 2.8860020000000004,
                    "velocity": 0.4251968503937008,
                    "duration": 0.10307149999999998
                },
                {
                    "name": "A4",
                    "midi": 69,
                    "time": 2.8860020000000004,
                    "velocity": 0.4330708661417323,
                    "duration": 0.10307149999999998
                },
                {
                    "name": "F#5",
                    "midi": 78,
                    "time": 3.0921450000000004,
                    "velocity": 0.49606299212598426,
                    "duration": 0.10307149999999998
                },
                {
                    "name": "D#5",
                    "midi": 75,
                    "time": 3.0921450000000004,
                    "velocity": 0.41732283464566927,
                    "duration": 0.10307149999999998
                },
                {
                    "name": "F#4",
                    "midi": 66,
                    "time": 3.0921450000000004,
                    "velocity": 0.41732283464566927,
                    "duration": 0.10307149999999998
                },
                {
                    "name": "G5",
                    "midi": 79,
                    "time": 3.2982880000000003,
                    "velocity": 0.5511811023622047,
                    "duration": 0.10307149999999998
                },
                {
                    "name": "E5",
                    "midi": 76,
                    "time": 3.2982880000000003,
                    "velocity": 0.4645669291338583,
                    "duration": 0.10307149999999998
                },
                {
                    "name": "G4",
                    "midi": 67,
                    "time": 3.2982880000000003,
                    "velocity": 0.4645669291338583,
                    "duration": 0.10307149999999998
                },
                {
                    "name": "E4",
                    "midi": 64,
                    "time": 3.5044310000000003,
                    "velocity": 0.4251968503937008,
                    "duration": 0.10307149999999998
                },
                {
                    "name": "E5",
                    "midi": 76,
                    "time": 3.5044310000000003,
                    "velocity": 0.5039370078740157,
                    "duration": 0.10307149999999998
                },
                {
                    "name": "C#5",
                    "midi": 73,
                    "time": 3.5044310000000003,
                    "velocity": 0.4251968503937008,
                    "duration": 0.10307149999999998
                },
                {
                    "name": "F#5",
                    "midi": 78,
                    "time": 3.7105740000000003,
                    "velocity": 0.5511811023622047,
                    "duration": 0.10307149999999998
                },
                {
                    "name": "F#4",
                    "midi": 66,
                    "time": 3.7105740000000003,
                    "velocity": 0.4645669291338583,
                    "duration": 0.10307149999999998
                },
                {
                    "name": "D#5",
                    "midi": 75,
                    "time": 3.7105740000000003,
                    "velocity": 0.4645669291338583,
                    "duration": 0.10307149999999998
                },
                {
                    "name": "F#4",
                    "midi": 66,
                    "time": 4.12286,
                    "velocity": 0.4566929133858268,
                    "duration": 0.10307150000000043
                },
                {
                    "name": "F#5",
                    "midi": 78,
                    "time": 4.12286,
                    "velocity": 0.5433070866141733,
                    "duration": 0.10307150000000043
                },
                {
                    "name": "D#5",
                    "midi": 75,
                    "time": 4.12286,
                    "velocity": 0.4566929133858268,
                    "duration": 0.10307150000000043
                },
                {
                    "name": "C#5",
                    "midi": 73,
                    "time": 5.153575000000001,
                    "velocity": 0.4881889763779528,
                    "duration": 0.10307150000000043
                },
                {
                    "name": "C#4",
                    "midi": 61,
                    "time": 5.153575000000001,
                    "velocity": 0.4094488188976378,
                    "duration": 0.10307150000000043
                },
                {
                    "name": "D#4",
                    "midi": 63,
                    "time": 5.359718000000002,
                    "velocity": 0.4251968503937008,
                    "duration": 0.10307150000000043
                },
                {
                    "name": "D#5",
                    "midi": 75,
                    "time": 5.359718000000002,
                    "velocity": 0.5039370078740157,
                    "duration": 0.10307150000000043
                },
                {
                    "name": "E4",
                    "midi": 64,
                    "time": 5.565861000000003,
                    "velocity": 0.4409448818897638,
                    "duration": 0.10307150000000043
                },
                {
                    "name": "E5",
                    "midi": 76,
                    "time": 5.565861000000003,
                    "velocity": 0.5196850393700787,
                    "duration": 0.10307150000000043
                },
                {
                    "name": "F#4",
                    "midi": 66,
                    "time": 5.7720040000000035,
                    "velocity": 0.4409448818897638,
                    "duration": 0.10307150000000043
                },
                {
                    "name": "F#5",
                    "midi": 78,
                    "time": 5.7720040000000035,
                    "velocity": 0.5275590551181102,
                    "duration": 0.10307150000000043
                },
                {
                    "name": "G4",
                    "midi": 67,
                    "time": 5.978147000000004,
                    "velocity": 0.4566929133858268,
                    "duration": 0.10307150000000043
                },
                {
                    "name": "G5",
                    "midi": 79,
                    "time": 5.978147000000004,
                    "velocity": 0.5433070866141733,
                    "duration": 0.10307150000000043
                },
                {
                    "name": "F#4",
                    "midi": 66,
                    "time": 6.184290000000005,
                    "velocity": 0.4645669291338583,
                    "duration": 0.10307150000000043
                },
                {
                    "name": "F#5",
                    "midi": 78,
                    "time": 6.184290000000005,
                    "velocity": 0.5511811023622047,
                    "duration": 0.10307150000000043
                },
                {
                    "name": "D#5",
                    "midi": 75,
                    "time": 6.184290000000005,
                    "velocity": 0.4645669291338583,
                    "duration": 0.10307150000000043
                },
                {
                    "name": "B4",
                    "midi": 71,
                    "time": 6.596576000000006,
                    "velocity": 0.4566929133858268,
                    "duration": 0.10307150000000043
                },
                {
                    "name": "B5",
                    "midi": 83,
                    "time": 6.596576000000006,
                    "velocity": 0.5433070866141733,
                    "duration": 0.10307150000000043
                },
                {
                    "name": "C#5",
                    "midi": 73,
                    "time": 7.627291000000007,
                    "velocity": 0.4881889763779528,
                    "duration": 0.10307150000000043
                },
                {
                    "name": "C#4",
                    "midi": 61,
                    "time": 7.627291000000007,
                    "velocity": 0.4094488188976378,
                    "duration": 0.10307150000000043
                },
                {
                    "name": "D#4",
                    "midi": 63,
                    "time": 7.833434000000008,
                    "velocity": 0.4251968503937008,
                    "duration": 0.10307150000000043
                },
                {
                    "name": "D#5",
                    "midi": 75,
                    "time": 7.833434000000008,
                    "velocity": 0.5039370078740157,
                    "duration": 0.10307150000000043
                },
                {
                    "name": "E4",
                    "midi": 64,
                    "time": 8.039577000000008,
                    "velocity": 0.4409448818897638,
                    "duration": 0.10307150000000043
                },
                {
                    "name": "E5",
                    "midi": 76,
                    "time": 8.039577000000008,
                    "velocity": 0.5196850393700787,
                    "duration": 0.10307150000000043
                },
                {
                    "name": "F#4",
                    "midi": 66,
                    "time": 8.24572000000001,
                    "velocity": 0.4409448818897638,
                    "duration": 0.10307150000000043
                },
                {
                    "name": "F#5",
                    "midi": 78,
                    "time": 8.24572000000001,
                    "velocity": 0.5275590551181102,
                    "duration": 0.10307150000000043
                },
                {
                    "name": "G4",
                    "midi": 67,
                    "time": 8.45186300000001,
                    "velocity": 0.4566929133858268,
                    "duration": 0.10307150000000043
                },
                {
                    "name": "G5",
                    "midi": 79,
                    "time": 8.45186300000001,
                    "velocity": 0.5433070866141733,
                    "duration": 0.10307150000000043
                },
                {
                    "name": "A4",
                    "midi": 69,
                    "time": 8.658006000000011,
                    "velocity": 0.4645669291338583,
                    "duration": 0.10307150000000043
                },
                {
                    "name": "A5",
                    "midi": 81,
                    "time": 8.658006000000011,
                    "velocity": 0.5511811023622047,
                    "duration": 0.10307150000000043
                },
                {
                    "name": "F#5",
                    "midi": 78,
                    "time": 8.658006000000011,
                    "velocity": 0.4645669291338583,
                    "duration": 0.10307150000000043
                },
                {
                    "name": "D5",
                    "midi": 74,
                    "time": 9.070292000000011,
                    "velocity": 0.4566929133858268,
                    "duration": 0.10307150000000043
                },
                {
                    "name": "D6",
                    "midi": 86,
                    "time": 9.070292000000011,
                    "velocity": 0.5433070866141733,
                    "duration": 0.10307150000000043
                },
                {
                    "name": "G3",
                    "midi": 55,
                    "time": 9.89486400000001,
                    "velocity": 0.5984251968503937,
                    "duration": 0.20614300000000085
                },
                {
                    "name": "F6",
                    "midi": 89,
                    "time": 10.513293000000012,
                    "velocity": 0.49606299212598426,
                    "duration": 0.6184290000000008
                },
                {
                    "name": "A6",
                    "midi": 93,
                    "time": 10.513293000000012,
                    "velocity": 0.5905511811023622,
                    "duration": 0.6184290000000008
                },
                {
                    "name": "A5",
                    "midi": 81,
                    "time": 10.513293000000012,
                    "velocity": 0.49606299212598426,
                    "duration": 0.6184290000000008
                },
                {
                    "name": "G6",
                    "midi": 91,
                    "time": 11.131722000000012,
                    "velocity": 0.5748031496062992,
                    "duration": 0.6184290000000008
                },
                {
                    "name": "E6",
                    "midi": 88,
                    "time": 11.131722000000012,
                    "velocity": 0.5748031496062992,
                    "duration": 0.6184290000000008
                },
                {
                    "name": "G5",
                    "midi": 79,
                    "time": 11.131722000000012,
                    "velocity": 0.4881889763779528,
                    "duration": 0.6184290000000008
                },
                {
                    "name": "C6",
                    "midi": 84,
                    "time": 11.750151000000013,
                    "velocity": 0.49606299212598426,
                    "duration": 0.6184290000000008
                },
                {
                    "name": "E5",
                    "midi": 76,
                    "time": 11.750151000000013,
                    "velocity": 0.49606299212598426,
                    "duration": 0.6184290000000008
                },
                {
                    "name": "E6",
                    "midi": 88,
                    "time": 11.750151000000013,
                    "velocity": 0.5905511811023622,
                    "duration": 0.6184290000000008
                },
                {
                    "name": "D6",
                    "midi": 86,
                    "time": 12.368580000000014,
                    "velocity": 0.4645669291338583,
                    "duration": 0.10307150000000043
                },
                {
                    "name": "F6",
                    "midi": 89,
                    "time": 12.368580000000014,
                    "velocity": 0.5511811023622047,
                    "duration": 0.10307150000000043
                },
                {
                    "name": "F5",
                    "midi": 77,
                    "time": 12.368580000000014,
                    "velocity": 0.4645669291338583,
                    "duration": 0.10307150000000043
                },
                {
                    "name": "D6",
                    "midi": 86,
                    "time": 12.574723000000015,
                    "velocity": 0.4881889763779528,
                    "duration": 0.10307150000000043
                },
                {
                    "name": "B5",
                    "midi": 83,
                    "time": 12.574723000000015,
                    "velocity": 0.4094488188976378,
                    "duration": 0.10307150000000043
                },
                {
                    "name": "D5",
                    "midi": 74,
                    "time": 12.574723000000015,
                    "velocity": 0.4094488188976378,
                    "duration": 0.10307150000000043
                },
                {
                    "name": "C6",
                    "midi": 84,
                    "time": 12.780866000000016,
                    "velocity": 0.4251968503937008,
                    "duration": 0.10307150000000043
                },
                {
                    "name": "E5",
                    "midi": 76,
                    "time": 12.780866000000016,
                    "velocity": 0.4330708661417323,
                    "duration": 0.10307150000000043
                },
                {
                    "name": "E6",
                    "midi": 88,
                    "time": 12.780866000000016,
                    "velocity": 0.5511811023622047,
                    "duration": 0.10307150000000043
                },
                {
                    "name": "A5",
                    "midi": 81,
                    "time": 12.987009000000016,
                    "velocity": 0.41732283464566927,
                    "duration": 0.10307150000000043
                },
                {
                    "name": "C6",
                    "midi": 84,
                    "time": 12.987009000000016,
                    "velocity": 0.49606299212598426,
                    "duration": 0.10307150000000043
                },
                {
                    "name": "C5",
                    "midi": 72,
                    "time": 12.987009000000016,
                    "velocity": 0.41732283464566927,
                    "duration": 0.10307150000000043
                },
                {
                    "name": "D5",
                    "midi": 74,
                    "time": 13.193152000000017,
                    "velocity": 0.4645669291338583,
                    "duration": 0.10307150000000043
                },
                {
                    "name": "D6",
                    "midi": 86,
                    "time": 13.193152000000017,
                    "velocity": 0.5511811023622047,
                    "duration": 0.10307150000000043
                },
                {
                    "name": "B5",
                    "midi": 83,
                    "time": 13.193152000000017,
                    "velocity": 0.4645669291338583,
                    "duration": 0.10307150000000043
                },
                {
                    "name": "B4",
                    "midi": 71,
                    "time": 13.399295000000018,
                    "velocity": 0.4251968503937008,
                    "duration": 0.10307150000000043
                },
                {
                    "name": "B5",
                    "midi": 83,
                    "time": 13.399295000000018,
                    "velocity": 0.5039370078740157,
                    "duration": 0.10307150000000043
                },
                {
                    "name": "G5",
                    "midi": 79,
                    "time": 13.399295000000018,
                    "velocity": 0.4251968503937008,
                    "duration": 0.10307150000000043
                },
                {
                    "name": "A5",
                    "midi": 81,
                    "time": 13.605438000000019,
                    "velocity": 0.4645669291338583,
                    "duration": 0.10307150000000043
                },
                {
                    "name": "C5",
                    "midi": 72,
                    "time": 13.605438000000019,
                    "velocity": 0.4645669291338583,
                    "duration": 0.10307150000000043
                },
                {
                    "name": "C6",
                    "midi": 84,
                    "time": 13.605438000000019,
                    "velocity": 0.5511811023622047,
                    "duration": 0.10307150000000043
                },
                {
                    "name": "A5",
                    "midi": 81,
                    "time": 14.017724000000019,
                    "velocity": 0.4566929133858268,
                    "duration": 0.10307150000000043
                },
                {
                    "name": "C5",
                    "midi": 72,
                    "time": 14.017724000000019,
                    "velocity": 0.4566929133858268,
                    "duration": 0.10307150000000043
                },
                {
                    "name": "C6",
                    "midi": 84,
                    "time": 14.017724000000019,
                    "velocity": 0.5433070866141733,
                    "duration": 0.10307150000000043
                },
                {
                    "name": "A4",
                    "midi": 69,
                    "time": 14.22386700000002,
                    "velocity": 0.4645669291338583,
                    "duration": 0.6184290000000008
                },
                {
                    "name": "A5",
                    "midi": 81,
                    "time": 14.22386700000002,
                    "velocity": 0.5511811023622047,
                    "duration": 0.6184290000000008
                },
                {
                    "name": "F5",
                    "midi": 77,
                    "time": 14.22386700000002,
                    "velocity": 0.4645669291338583,
                    "duration": 0.6184290000000008
                },
                {
                    "name": "G5",
                    "midi": 79,
                    "time": 15.048439000000021,
                    "velocity": 0.4409448818897638,
                    "duration": 0.10307150000000043
                },
                {
                    "name": "G4",
                    "midi": 67,
                    "time": 15.048439000000021,
                    "velocity": 0.3700787401574803,
                    "duration": 0.10307150000000043
                },
                {
                    "name": "B4",
                    "midi": 71,
                    "time": 15.254582000000022,
                    "velocity": 0.3858267716535433,
                    "duration": 0.10307150000000043
                },
                {
                    "name": "B5",
                    "midi": 83,
                    "time": 15.254582000000022,
                    "velocity": 0.4566929133858268,
                    "duration": 0.10307150000000043
                },
                {
                    "name": "C6",
                    "midi": 84,
                    "time": 15.460725000000023,
                    "velocity": 0.47244094488188976,
                    "duration": 0.10307150000000043
                },
                {
                    "name": "C5",
                    "midi": 72,
                    "time": 15.460725000000023,
                    "velocity": 0.4015748031496063,
                    "duration": 0.10307150000000043
                },
                {
                    "name": "D5",
                    "midi": 74,
                    "time": 15.666868000000024,
                    "velocity": 0.4094488188976378,
                    "duration": 0.10307150000000043
                },
                {
                    "name": "D6",
                    "midi": 86,
                    "time": 15.666868000000024,
                    "velocity": 0.4881889763779528,
                    "duration": 0.10307150000000043
                },
                {
                    "name": "E5",
                    "midi": 76,
                    "time": 15.873011000000025,
                    "velocity": 0.4251968503937008,
                    "duration": 0.10307150000000043
                },
                {
                    "name": "E6",
                    "midi": 88,
                    "time": 15.873011000000025,
                    "velocity": 0.5039370078740157,
                    "duration": 0.10307150000000043
                },
                {
                    "name": "G5",
                    "midi": 79,
                    "time": 16.027618250000025,
                    "velocity": 0.47244094488188976,
                    "duration": 0.15460724999999798
                },
                {
                    "name": "C6",
                    "midi": 84,
                    "time": 16.053386125000024,
                    "velocity": 0.47244094488188976,
                    "duration": 0.1288393749999983
                },
                {
                    "name": "G6",
                    "midi": 91,
                    "time": 16.079154000000024,
                    "velocity": 0.5511811023622047,
                    "duration": 0.10307149999999865
                },
                {
                    "name": "F5",
                    "midi": 77,
                    "time": 16.491440000000022,
                    "velocity": 0.3858267716535433,
                    "duration": 0.10307149999999865
                },
                {
                    "name": "F6",
                    "midi": 89,
                    "time": 16.491440000000022,
                    "velocity": 0.4566929133858268,
                    "duration": 0.10307149999999865
                },
                {
                    "name": "C6",
                    "midi": 84,
                    "time": 16.69758300000002,
                    "velocity": 0.44881889763779526,
                    "duration": 0.618428999999999
                },
                {
                    "name": "C5",
                    "midi": 72,
                    "time": 16.69758300000002,
                    "velocity": 0.3779527559055118,
                    "duration": 0.618428999999999
                },
                {
                    "name": "A5",
                    "midi": 81,
                    "time": 17.52215500000002,
                    "velocity": 0.4566929133858268,
                    "duration": 0.10307149999999865
                },
                {
                    "name": "A4",
                    "midi": 69,
                    "time": 17.52215500000002,
                    "velocity": 0.3779527559055118,
                    "duration": 0.10307149999999865
                },
                {
                    "name": "B4",
                    "midi": 71,
                    "time": 17.728298000000017,
                    "velocity": 0.41732283464566927,
                    "duration": 0.10307149999999865
                },
                {
                    "name": "B5",
                    "midi": 83,
                    "time": 17.728298000000017,
                    "velocity": 0.49606299212598426,
                    "duration": 0.10307149999999865
                },
                {
                    "name": "C6",
                    "midi": 84,
                    "time": 17.934441000000014,
                    "velocity": 0.5275590551181102,
                    "duration": 0.10307149999999865
                },
                {
                    "name": "C5",
                    "midi": 72,
                    "time": 17.934441000000014,
                    "velocity": 0.44881889763779526,
                    "duration": 0.10307149999999865
                },
                {
                    "name": "D6",
                    "midi": 86,
                    "time": 18.14058400000001,
                    "velocity": 0.5748031496062992,
                    "duration": 0.10307149999999865
                },
                {
                    "name": "D5",
                    "midi": 74,
                    "time": 18.14058400000001,
                    "velocity": 0.48031496062992124,
                    "duration": 0.10307149999999865
                },
                {
                    "name": "E5",
                    "midi": 76,
                    "time": 18.34672700000001,
                    "velocity": 0.5118110236220472,
                    "duration": 0.10307149999999865
                },
                {
                    "name": "E6",
                    "midi": 88,
                    "time": 18.34672700000001,
                    "velocity": 0.6141732283464567,
                    "duration": 0.10307149999999865
                },
                {
                    "name": "G5",
                    "midi": 79,
                    "time": 18.501334250000006,
                    "velocity": 0.5905511811023622,
                    "duration": 0.15460724999999798
                },
                {
                    "name": "D#6",
                    "midi": 87,
                    "time": 18.527102125000006,
                    "velocity": 0.5905511811023622,
                    "duration": 0.1288393749999983
                },
                {
                    "name": "G6",
                    "midi": 91,
                    "time": 18.552870000000006,
                    "velocity": 0.6850393700787402,
                    "duration": 0.10307149999999865
                },
                {
                    "name": "F#6",
                    "midi": 90,
                    "time": 18.965156000000004,
                    "velocity": 0.5433070866141733,
                    "duration": 0.10307149999999865
                },
                {
                    "name": "F#5",
                    "midi": 78,
                    "time": 18.965156000000004,
                    "velocity": 0.4566929133858268,
                    "duration": 0.10307149999999865
                },
                {
                    "name": "A4",
                    "midi": 69,
                    "time": 19.171299,
                    "velocity": 0.4409448818897638,
                    "duration": 0.618428999999999
                },
                {
                    "name": "A5",
                    "midi": 81,
                    "time": 19.171299,
                    "velocity": 0.5275590551181102,
                    "duration": 0.618428999999999
                },
                {
                    "name": "E3",
                    "midi": 52,
                    "time": 19.789728,
                    "velocity": 0.5984251968503937,
                    "duration": 0.20614300000000085
                },
                {
                    "name": "B5",
                    "midi": 83,
                    "time": 20.408157000000003,
                    "velocity": 0.49606299212598426,
                    "duration": 0.618428999999999
                },
                {
                    "name": "D6",
                    "midi": 86,
                    "time": 20.408157000000003,
                    "velocity": 0.5905511811023622,
                    "duration": 0.618428999999999
                },
                {
                    "name": "D5",
                    "midi": 74,
                    "time": 20.408157000000003,
                    "velocity": 0.49606299212598426,
                    "duration": 0.618428999999999
                },
                {
                    "name": "C5",
                    "midi": 72,
                    "time": 21.026586,
                    "velocity": 0.4881889763779528,
                    "duration": 0.618428999999999
                },
                {
                    "name": "C6",
                    "midi": 84,
                    "time": 21.026586,
                    "velocity": 0.5748031496062992,
                    "duration": 0.618428999999999
                },
                {
                    "name": "A5",
                    "midi": 81,
                    "time": 21.026586,
                    "velocity": 0.5748031496062992,
                    "duration": 0.618428999999999
                },
                {
                    "name": "F#5",
                    "midi": 78,
                    "time": 21.645015,
                    "velocity": 0.49606299212598426,
                    "duration": 0.618428999999999
                },
                {
                    "name": "A4",
                    "midi": 69,
                    "time": 21.645015,
                    "velocity": 0.49606299212598426,
                    "duration": 0.618428999999999
                },
                {
                    "name": "A5",
                    "midi": 81,
                    "time": 21.645015,
                    "velocity": 0.5905511811023622,
                    "duration": 0.618428999999999
                },
                {
                    "name": "B5",
                    "midi": 83,
                    "time": 22.263444,
                    "velocity": 0.5511811023622047,
                    "duration": 0.10307149999999865
                },
                {
                    "name": "B4",
                    "midi": 71,
                    "time": 22.263444,
                    "velocity": 0.4645669291338583,
                    "duration": 0.10307149999999865
                },
                {
                    "name": "G5",
                    "midi": 79,
                    "time": 22.263444,
                    "velocity": 0.4645669291338583,
                    "duration": 0.10307149999999865
                },
                {
                    "name": "E5",
                    "midi": 76,
                    "time": 22.469586999999997,
                    "velocity": 0.4094488188976378,
                    "duration": 0.10307149999999865
                },
                {
                    "name": "G5",
                    "midi": 79,
                    "time": 22.469586999999997,
                    "velocity": 0.4881889763779528,
                    "duration": 0.10307149999999865
                },
                {
                    "name": "G4",
                    "midi": 67,
                    "time": 22.469586999999997,
                    "velocity": 0.4094488188976378,
                    "duration": 0.10307149999999865
                },
                {
                    "name": "F#5",
                    "midi": 78,
                    "time": 22.675729999999994,
                    "velocity": 0.4251968503937008,
                    "duration": 0.10307149999999865
                },
                {
                    "name": "A4",
                    "midi": 69,
                    "time": 22.675729999999994,
                    "velocity": 0.4330708661417323,
                    "duration": 0.10307149999999865
                },
                {
                    "name": "A5",
                    "midi": 81,
                    "time": 22.675729999999994,
                    "velocity": 0.5511811023622047,
                    "duration": 0.10307149999999865
                },
                {
                    "name": "D#5",
                    "midi": 75,
                    "time": 22.88187299999999,
                    "velocity": 0.41732283464566927,
                    "duration": 0.10307149999999865
                },
                {
                    "name": "F#5",
                    "midi": 78,
                    "time": 22.88187299999999,
                    "velocity": 0.49606299212598426,
                    "duration": 0.10307149999999865
                },
                {
                    "name": "F#4",
                    "midi": 66,
                    "time": 22.88187299999999,
                    "velocity": 0.41732283464566927,
                    "duration": 0.10307149999999865
                },
                {
                    "name": "G5",
                    "midi": 79,
                    "time": 23.08801599999999,
                    "velocity": 0.5511811023622047,
                    "duration": 0.10307149999999865
                },
                {
                    "name": "G4",
                    "midi": 67,
                    "time": 23.08801599999999,
                    "velocity": 0.4645669291338583,
                    "duration": 0.10307149999999865
                },
                {
                    "name": "E5",
                    "midi": 76,
                    "time": 23.08801599999999,
                    "velocity": 0.4645669291338583,
                    "duration": 0.10307149999999865
                },
                {
                    "name": "E4",
                    "midi": 64,
                    "time": 23.294158999999986,
                    "velocity": 0.4251968503937008,
                    "duration": 0.10307149999999865
                },
                {
                    "name": "C#5",
                    "midi": 73,
                    "time": 23.294158999999986,
                    "velocity": 0.4251968503937008,
                    "duration": 0.10307149999999865
                },
                {
                    "name": "E5",
                    "midi": 76,
                    "time": 23.294158999999986,
                    "velocity": 0.5039370078740157,
                    "duration": 0.10307149999999865
                },
                {
                    "name": "D#5",
                    "midi": 75,
                    "time": 23.500301999999984,
                    "velocity": 0.4645669291338583,
                    "duration": 0.10307149999999865
                },
                {
                    "name": "F#4",
                    "midi": 66,
                    "time": 23.500301999999984,
                    "velocity": 0.4645669291338583,
                    "duration": 0.10307149999999865
                },
                {
                    "name": "F#5",
                    "midi": 78,
                    "time": 23.500301999999984,
                    "velocity": 0.5511811023622047,
                    "duration": 0.10307149999999865
                },
                {
                    "name": "F#4",
                    "midi": 66,
                    "time": 23.91258799999998,
                    "velocity": 0.4566929133858268,
                    "duration": 0.10307149999999865
                },
                {
                    "name": "D#5",
                    "midi": 75,
                    "time": 23.91258799999998,
                    "velocity": 0.4566929133858268,
                    "duration": 0.10307149999999865
                },
                {
                    "name": "F#5",
                    "midi": 78,
                    "time": 23.91258799999998,
                    "velocity": 0.5433070866141733,
                    "duration": 0.10307149999999865
                },
                {
                    "name": "C#4",
                    "midi": 61,
                    "time": 24.94330299999998,
                    "velocity": 0.4094488188976378,
                    "duration": 0.10307149999999865
                },
                {
                    "name": "C#5",
                    "midi": 73,
                    "time": 24.94330299999998,
                    "velocity": 0.4881889763779528,
                    "duration": 0.10307149999999865
                },
                {
                    "name": "D#5",
                    "midi": 75,
                    "time": 25.149445999999976,
                    "velocity": 0.5039370078740157,
                    "duration": 0.10307149999999865
                },
                {
                    "name": "D#4",
                    "midi": 63,
                    "time": 25.149445999999976,
                    "velocity": 0.4251968503937008,
                    "duration": 0.10307149999999865
                },
                {
                    "name": "E5",
                    "midi": 76,
                    "time": 25.355588999999974,
                    "velocity": 0.5196850393700787,
                    "duration": 0.10307149999999865
                },
                {
                    "name": "E4",
                    "midi": 64,
                    "time": 25.355588999999974,
                    "velocity": 0.4409448818897638,
                    "duration": 0.10307149999999865
                },
                {
                    "name": "F#4",
                    "midi": 66,
                    "time": 25.56173199999997,
                    "velocity": 0.4409448818897638,
                    "duration": 0.10307149999999865
                },
                {
                    "name": "F#5",
                    "midi": 78,
                    "time": 25.56173199999997,
                    "velocity": 0.5275590551181102,
                    "duration": 0.10307149999999865
                },
                {
                    "name": "G5",
                    "midi": 79,
                    "time": 25.767874999999968,
                    "velocity": 0.5433070866141733,
                    "duration": 0.10307149999999865
                },
                {
                    "name": "G4",
                    "midi": 67,
                    "time": 25.767874999999968,
                    "velocity": 0.4566929133858268,
                    "duration": 0.10307149999999865
                },
                {
                    "name": "F#5",
                    "midi": 78,
                    "time": 25.974017999999965,
                    "velocity": 0.5511811023622047,
                    "duration": 0.10307149999999865
                },
                {
                    "name": "D#5",
                    "midi": 75,
                    "time": 25.974017999999965,
                    "velocity": 0.4645669291338583,
                    "duration": 0.10307149999999865
                },
                {
                    "name": "F#4",
                    "midi": 66,
                    "time": 25.974017999999965,
                    "velocity": 0.4645669291338583,
                    "duration": 0.10307149999999865
                },
                {
                    "name": "B5",
                    "midi": 83,
                    "time": 26.386303999999964,
                    "velocity": 0.5433070866141733,
                    "duration": 0.10307149999999865
                },
                {
                    "name": "B4",
                    "midi": 71,
                    "time": 26.386303999999964,
                    "velocity": 0.4566929133858268,
                    "duration": 0.10307149999999865
                },
                {
                    "name": "C#4",
                    "midi": 61,
                    "time": 27.41701899999996,
                    "velocity": 0.4094488188976378,
                    "duration": 0.10307149999999865
                },
                {
                    "name": "C#5",
                    "midi": 73,
                    "time": 27.41701899999996,
                    "velocity": 0.4881889763779528,
                    "duration": 0.10307149999999865
                },
                {
                    "name": "D#5",
                    "midi": 75,
                    "time": 27.623161999999958,
                    "velocity": 0.5039370078740157,
                    "duration": 0.10307149999999865
                },
                {
                    "name": "D#4",
                    "midi": 63,
                    "time": 27.623161999999958,
                    "velocity": 0.4251968503937008,
                    "duration": 0.10307149999999865
                },
                {
                    "name": "E4",
                    "midi": 64,
                    "time": 27.829304999999955,
                    "velocity": 0.4409448818897638,
                    "duration": 0.10307149999999865
                },
                {
                    "name": "E5",
                    "midi": 76,
                    "time": 27.829304999999955,
                    "velocity": 0.5196850393700787,
                    "duration": 0.10307149999999865
                },
                {
                    "name": "F#5",
                    "midi": 78,
                    "time": 28.035447999999953,
                    "velocity": 0.5275590551181102,
                    "duration": 0.10307149999999865
                },
                {
                    "name": "F#4",
                    "midi": 66,
                    "time": 28.035447999999953,
                    "velocity": 0.4409448818897638,
                    "duration": 0.10307149999999865
                },
                {
                    "name": "G4",
                    "midi": 67,
                    "time": 28.24159099999995,
                    "velocity": 0.4566929133858268,
                    "duration": 0.10307149999999865
                },
                {
                    "name": "G5",
                    "midi": 79,
                    "time": 28.24159099999995,
                    "velocity": 0.5433070866141733,
                    "duration": 0.10307149999999865
                },
                {
                    "name": "A4",
                    "midi": 69,
                    "time": 28.447733999999947,
                    "velocity": 0.4645669291338583,
                    "duration": 0.10307149999999865
                },
                {
                    "name": "F#5",
                    "midi": 78,
                    "time": 28.447733999999947,
                    "velocity": 0.4645669291338583,
                    "duration": 0.10307149999999865
                },
                {
                    "name": "A5",
                    "midi": 81,
                    "time": 28.447733999999947,
                    "velocity": 0.5511811023622047,
                    "duration": 0.10307149999999865
                },
                {
                    "name": "D6",
                    "midi": 86,
                    "time": 28.860019999999945,
                    "velocity": 0.5433070866141733,
                    "duration": 0.10307149999999865
                },
                {
                    "name": "D5",
                    "midi": 74,
                    "time": 28.860019999999945,
                    "velocity": 0.4566929133858268,
                    "duration": 0.10307149999999865
                },
                {
                    "name": "G3",
                    "midi": 55,
                    "time": 29.684591999999945,
                    "velocity": 0.5984251968503937,
                    "duration": 0.20614300000000085
                },
                {
                    "name": "F6",
                    "midi": 89,
                    "time": 30.303020999999948,
                    "velocity": 0.49606299212598426,
                    "duration": 0.618428999999999
                },
                {
                    "name": "A5",
                    "midi": 81,
                    "time": 30.303020999999948,
                    "velocity": 0.49606299212598426,
                    "duration": 0.618428999999999
                },
                {
                    "name": "A6",
                    "midi": 93,
                    "time": 30.303020999999948,
                    "velocity": 0.5905511811023622,
                    "duration": 0.618428999999999
                },
                {
                    "name": "E6",
                    "midi": 88,
                    "time": 30.921449999999947,
                    "velocity": 0.5748031496062992,
                    "duration": 0.618428999999999
                },
                {
                    "name": "G6",
                    "midi": 91,
                    "time": 30.921449999999947,
                    "velocity": 0.5748031496062992,
                    "duration": 0.618428999999999
                },
                {
                    "name": "G5",
                    "midi": 79,
                    "time": 30.921449999999947,
                    "velocity": 0.4881889763779528,
                    "duration": 0.618428999999999
                },
                {
                    "name": "E6",
                    "midi": 88,
                    "time": 31.539878999999946,
                    "velocity": 0.5905511811023622,
                    "duration": 0.6184290000000026
                },
                {
                    "name": "E5",
                    "midi": 76,
                    "time": 31.539878999999946,
                    "velocity": 0.49606299212598426,
                    "duration": 0.6184290000000026
                },
                {
                    "name": "C6",
                    "midi": 84,
                    "time": 31.539878999999946,
                    "velocity": 0.49606299212598426,
                    "duration": 0.6184290000000026
                },
                {
                    "name": "F6",
                    "midi": 89,
                    "time": 32.15830799999995,
                    "velocity": 0.5511811023622047,
                    "duration": 0.10307149999999865
                },
                {
                    "name": "F5",
                    "midi": 77,
                    "time": 32.15830799999995,
                    "velocity": 0.4645669291338583,
                    "duration": 0.10307149999999865
                },
                {
                    "name": "D6",
                    "midi": 86,
                    "time": 32.15830799999995,
                    "velocity": 0.4645669291338583,
                    "duration": 0.10307149999999865
                },
                {
                    "name": "D5",
                    "midi": 74,
                    "time": 32.364450999999946,
                    "velocity": 0.4094488188976378,
                    "duration": 0.10307149999999865
                },
                {
                    "name": "D6",
                    "midi": 86,
                    "time": 32.364450999999946,
                    "velocity": 0.4881889763779528,
                    "duration": 0.10307149999999865
                },
                {
                    "name": "B5",
                    "midi": 83,
                    "time": 32.364450999999946,
                    "velocity": 0.4094488188976378,
                    "duration": 0.10307149999999865
                },
                {
                    "name": "E5",
                    "midi": 76,
                    "time": 32.57059399999994,
                    "velocity": 0.4330708661417323,
                    "duration": 0.10307149999999865
                },
                {
                    "name": "E6",
                    "midi": 88,
                    "time": 32.57059399999994,
                    "velocity": 0.5511811023622047,
                    "duration": 0.10307149999999865
                },
                {
                    "name": "C6",
                    "midi": 84,
                    "time": 32.57059399999994,
                    "velocity": 0.4251968503937008,
                    "duration": 0.10307149999999865
                },
                {
                    "name": "C6",
                    "midi": 84,
                    "time": 32.77673699999994,
                    "velocity": 0.49606299212598426,
                    "duration": 0.10307149999999865
                },
                {
                    "name": "C5",
                    "midi": 72,
                    "time": 32.77673699999994,
                    "velocity": 0.41732283464566927,
                    "duration": 0.10307149999999865
                },
                {
                    "name": "A5",
                    "midi": 81,
                    "time": 32.77673699999994,
                    "velocity": 0.41732283464566927,
                    "duration": 0.10307149999999865
                },
                {
                    "name": "B5",
                    "midi": 83,
                    "time": 32.98287999999994,
                    "velocity": 0.4645669291338583,
                    "duration": 0.10307149999999865
                },
                {
                    "name": "D6",
                    "midi": 86,
                    "time": 32.98287999999994,
                    "velocity": 0.5511811023622047,
                    "duration": 0.10307149999999865
                },
                {
                    "name": "D5",
                    "midi": 74,
                    "time": 32.98287999999994,
                    "velocity": 0.4645669291338583,
                    "duration": 0.10307149999999865
                },
                {
                    "name": "B5",
                    "midi": 83,
                    "time": 33.189022999999935,
                    "velocity": 0.5039370078740157,
                    "duration": 0.10307149999999865
                },
                {
                    "name": "B4",
                    "midi": 71,
                    "time": 33.189022999999935,
                    "velocity": 0.4251968503937008,
                    "duration": 0.10307149999999865
                },
                {
                    "name": "G5",
                    "midi": 79,
                    "time": 33.189022999999935,
                    "velocity": 0.4251968503937008,
                    "duration": 0.10307149999999865
                },
                {
                    "name": "A5",
                    "midi": 81,
                    "time": 33.39516599999993,
                    "velocity": 0.4645669291338583,
                    "duration": 0.10307149999999865
                },
                {
                    "name": "C5",
                    "midi": 72,
                    "time": 33.39516599999993,
                    "velocity": 0.4645669291338583,
                    "duration": 0.10307149999999865
                },
                {
                    "name": "C6",
                    "midi": 84,
                    "time": 33.39516599999993,
                    "velocity": 0.5511811023622047,
                    "duration": 0.10307149999999865
                },
                {
                    "name": "C6",
                    "midi": 84,
                    "time": 33.807451999999934,
                    "velocity": 0.5433070866141733,
                    "duration": 0.10307149999999865
                },
                {
                    "name": "C5",
                    "midi": 72,
                    "time": 33.807451999999934,
                    "velocity": 0.4566929133858268,
                    "duration": 0.10307149999999865
                },
                {
                    "name": "A5",
                    "midi": 81,
                    "time": 33.807451999999934,
                    "velocity": 0.4566929133858268,
                    "duration": 0.10307149999999865
                },
                {
                    "name": "F5",
                    "midi": 77,
                    "time": 34.01359499999993,
                    "velocity": 0.4645669291338583,
                    "duration": 0.618428999999999
                },
                {
                    "name": "A4",
                    "midi": 69,
                    "time": 34.01359499999993,
                    "velocity": 0.4645669291338583,
                    "duration": 0.618428999999999
                },
                {
                    "name": "A5",
                    "midi": 81,
                    "time": 34.01359499999993,
                    "velocity": 0.5511811023622047,
                    "duration": 0.618428999999999
                },
                {
                    "name": "G4",
                    "midi": 67,
                    "time": 34.83816699999993,
                    "velocity": 0.3700787401574803,
                    "duration": 0.10307149999999865
                },
                {
                    "name": "G5",
                    "midi": 79,
                    "time": 34.83816699999993,
                    "velocity": 0.4409448818897638,
                    "duration": 0.10307149999999865
                },
                {
                    "name": "B4",
                    "midi": 71,
                    "time": 35.044309999999925,
                    "velocity": 0.3858267716535433,
                    "duration": 0.10307149999999865
                },
                {
                    "name": "B5",
                    "midi": 83,
                    "time": 35.044309999999925,
                    "velocity": 0.4566929133858268,
                    "duration": 0.10307149999999865
                },
                {
                    "name": "C6",
                    "midi": 84,
                    "time": 35.25045299999992,
                    "velocity": 0.47244094488188976,
                    "duration": 0.10307149999999865
                },
                {
                    "name": "C5",
                    "midi": 72,
                    "time": 35.25045299999992,
                    "velocity": 0.4015748031496063,
                    "duration": 0.10307149999999865
                },
                {
                    "name": "D6",
                    "midi": 86,
                    "time": 35.45659599999992,
                    "velocity": 0.4881889763779528,
                    "duration": 0.10307149999999865
                },
                {
                    "name": "D5",
                    "midi": 74,
                    "time": 35.45659599999992,
                    "velocity": 0.4094488188976378,
                    "duration": 0.10307149999999865
                },
                {
                    "name": "E5",
                    "midi": 76,
                    "time": 35.66273899999992,
                    "velocity": 0.4251968503937008,
                    "duration": 0.10307149999999865
                },
                {
                    "name": "E6",
                    "midi": 88,
                    "time": 35.66273899999992,
                    "velocity": 0.5039370078740157,
                    "duration": 0.10307149999999865
                },
                {
                    "name": "G5",
                    "midi": 79,
                    "time": 35.817346249999915,
                    "velocity": 0.47244094488188976,
                    "duration": 0.15460724999999798
                },
                {
                    "name": "C6",
                    "midi": 84,
                    "time": 35.843114124999914,
                    "velocity": 0.47244094488188976,
                    "duration": 0.1288393749999983
                },
                {
                    "name": "G6",
                    "midi": 91,
                    "time": 35.868881999999914,
                    "velocity": 0.5511811023622047,
                    "duration": 0.10307149999999865
                },
                {
                    "name": "F6",
                    "midi": 89,
                    "time": 36.281167999999916,
                    "velocity": 0.4566929133858268,
                    "duration": 0.10307149999999865
                },
                {
                    "name": "F5",
                    "midi": 77,
                    "time": 36.281167999999916,
                    "velocity": 0.3858267716535433,
                    "duration": 0.10307149999999865
                },
                {
                    "name": "C6",
                    "midi": 84,
                    "time": 36.48731099999991,
                    "velocity": 0.44881889763779526,
                    "duration": 0.618428999999999
                },
                {
                    "name": "C5",
                    "midi": 72,
                    "time": 36.48731099999991,
                    "velocity": 0.3779527559055118,
                    "duration": 0.618428999999999
                },
                {
                    "name": "A4",
                    "midi": 69,
                    "time": 37.31188299999991,
                    "velocity": 0.3779527559055118,
                    "duration": 0.10307149999999865
                },
                {
                    "name": "A5",
                    "midi": 81,
                    "time": 37.31188299999991,
                    "velocity": 0.4566929133858268,
                    "duration": 0.10307149999999865
                },
                {
                    "name": "B5",
                    "midi": 83,
                    "time": 37.51802599999991,
                    "velocity": 0.49606299212598426,
                    "duration": 0.10307149999999865
                },
                {
                    "name": "B4",
                    "midi": 71,
                    "time": 37.51802599999991,
                    "velocity": 0.41732283464566927,
                    "duration": 0.10307149999999865
                },
                {
                    "name": "C5",
                    "midi": 72,
                    "time": 37.724168999999904,
                    "velocity": 0.44881889763779526,
                    "duration": 0.10307149999999865
                },
                {
                    "name": "C6",
                    "midi": 84,
                    "time": 37.724168999999904,
                    "velocity": 0.5275590551181102,
                    "duration": 0.10307149999999865
                },
                {
                    "name": "D6",
                    "midi": 86,
                    "time": 37.9303119999999,
                    "velocity": 0.5748031496062992,
                    "duration": 0.10307149999999865
                },
                {
                    "name": "D5",
                    "midi": 74,
                    "time": 37.9303119999999,
                    "velocity": 0.48031496062992124,
                    "duration": 0.10307149999999865
                },
                {
                    "name": "E6",
                    "midi": 88,
                    "time": 38.1364549999999,
                    "velocity": 0.6141732283464567,
                    "duration": 0.10307149999999865
                },
                {
                    "name": "E5",
                    "midi": 76,
                    "time": 38.1364549999999,
                    "velocity": 0.5118110236220472,
                    "duration": 0.10307149999999865
                },
                {
                    "name": "G5",
                    "midi": 79,
                    "time": 38.2910622499999,
                    "velocity": 0.5905511811023622,
                    "duration": 0.15460724999999798
                },
                {
                    "name": "D#6",
                    "midi": 87,
                    "time": 38.316830124999896,
                    "velocity": 0.5905511811023622,
                    "duration": 0.1288393749999983
                },
                {
                    "name": "G6",
                    "midi": 91,
                    "time": 38.342597999999896,
                    "velocity": 0.6850393700787402,
                    "duration": 0.10307149999999865
                },
                {
                    "name": "F#6",
                    "midi": 90,
                    "time": 38.7548839999999,
                    "velocity": 0.5433070866141733,
                    "duration": 0.10307149999999865
                },
                {
                    "name": "F#5",
                    "midi": 78,
                    "time": 38.7548839999999,
                    "velocity": 0.4566929133858268,
                    "duration": 0.10307149999999865
                },
                {
                    "name": "A4",
                    "midi": 69,
                    "time": 38.961026999999895,
                    "velocity": 0.4409448818897638,
                    "duration": 0.618428999999999
                },
                {
                    "name": "A5",
                    "midi": 81,
                    "time": 38.961026999999895,
                    "velocity": 0.5275590551181102,
                    "duration": 0.618428999999999
                },
                {
                    "name": "C3",
                    "midi": 48,
                    "time": 39.579455999999894,
                    "velocity": 0.5984251968503937,
                    "duration": 0.2061429999999973
                },
                {
                    "name": "G4",
                    "midi": 67,
                    "time": 40.19788499999989,
                    "velocity": 0.4645669291338583,
                    "duration": 0.618428999999999
                },
                {
                    "name": "A#4",
                    "midi": 70,
                    "time": 40.19788499999989,
                    "velocity": 0.5590551181102362,
                    "duration": 0.618428999999999
                },
                {
                    "name": "A#3",
                    "midi": 58,
                    "time": 40.19788499999989,
                    "velocity": 0.4645669291338583,
                    "duration": 0.618428999999999
                },
                {
                    "name": "A3",
                    "midi": 57,
                    "time": 40.81631399999989,
                    "velocity": 0.4566929133858268,
                    "duration": 0.618428999999999
                },
                {
                    "name": "A4",
                    "midi": 69,
                    "time": 40.81631399999989,
                    "velocity": 0.5433070866141733,
                    "duration": 0.618428999999999
                },
                {
                    "name": "F4",
                    "midi": 65,
                    "time": 40.81631399999989,
                    "velocity": 0.5433070866141733,
                    "duration": 0.618428999999999
                },
                {
                    "name": "D4",
                    "midi": 62,
                    "time": 41.43474299999989,
                    "velocity": 0.4645669291338583,
                    "duration": 0.618428999999999
                },
                {
                    "name": "F4",
                    "midi": 65,
                    "time": 41.43474299999989,
                    "velocity": 0.5590551181102362,
                    "duration": 0.618428999999999
                },
                {
                    "name": "F3",
                    "midi": 53,
                    "time": 41.43474299999989,
                    "velocity": 0.4645669291338583,
                    "duration": 0.618428999999999
                },
                {
                    "name": "G3",
                    "midi": 55,
                    "time": 42.05317199999989,
                    "velocity": 0.4409448818897638,
                    "duration": 0.10307149999999865
                },
                {
                    "name": "G4",
                    "midi": 67,
                    "time": 42.05317199999989,
                    "velocity": 0.5196850393700787,
                    "duration": 0.10307149999999865
                },
                {
                    "name": "E4",
                    "midi": 64,
                    "time": 42.05317199999989,
                    "velocity": 0.4409448818897638,
                    "duration": 0.10307149999999865
                },
                {
                    "name": "E4",
                    "midi": 64,
                    "time": 42.25931499999989,
                    "velocity": 0.4566929133858268,
                    "duration": 0.10307149999999865
                },
                {
                    "name": "E3",
                    "midi": 52,
                    "time": 42.25931499999989,
                    "velocity": 0.3858267716535433,
                    "duration": 0.10307149999999865
                },
                {
                    "name": "F4",
                    "midi": 65,
                    "time": 42.465457999999884,
                    "velocity": 0.5196850393700787,
                    "duration": 0.10307149999999865
                },
                {
                    "name": "F3",
                    "midi": 53,
                    "time": 42.465457999999884,
                    "velocity": 0.4094488188976378,
                    "duration": 0.10307149999999865
                },
                {
                    "name": "D4",
                    "midi": 62,
                    "time": 42.67160099999988,
                    "velocity": 0.4645669291338583,
                    "duration": 0.10307149999999865
                },
                {
                    "name": "D3",
                    "midi": 50,
                    "time": 42.67160099999988,
                    "velocity": 0.3937007874015748,
                    "duration": 0.10307149999999865
                },
                {
                    "name": "E4",
                    "midi": 64,
                    "time": 42.87774399999988,
                    "velocity": 0.5196850393700787,
                    "duration": 0.10307149999999865
                },
                {
                    "name": "E3",
                    "midi": 52,
                    "time": 42.87774399999988,
                    "velocity": 0.4409448818897638,
                    "duration": 0.10307149999999865
                },
                {
                    "name": "C#4",
                    "midi": 61,
                    "time": 43.083886999999876,
                    "velocity": 0.47244094488188976,
                    "duration": 0.10307149999999865
                },
                {
                    "name": "C#3",
                    "midi": 49,
                    "time": 43.083886999999876,
                    "velocity": 0.4015748031496063,
                    "duration": 0.10307149999999865
                },
                {
                    "name": "D4",
                    "midi": 62,
                    "time": 43.290029999999874,
                    "velocity": 0.5196850393700787,
                    "duration": 0.10307149999999865
                },
                {
                    "name": "D3",
                    "midi": 50,
                    "time": 43.290029999999874,
                    "velocity": 0.4409448818897638,
                    "duration": 0.10307149999999865
                },
                {
                    "name": "D3",
                    "midi": 50,
                    "time": 43.702315999999875,
                    "velocity": 0.4330708661417323,
                    "duration": 0.10307149999999865
                },
                {
                    "name": "D4",
                    "midi": 62,
                    "time": 43.702315999999875,
                    "velocity": 0.5118110236220472,
                    "duration": 0.10307149999999865
                },
                {
                    "name": "D#3",
                    "midi": 51,
                    "time": 44.52688799999987,
                    "velocity": 0.5984251968503937,
                    "duration": 0.2061429999999973
                },
                {
                    "name": "C#5",
                    "midi": 73,
                    "time": 45.14531699999987,
                    "velocity": 0.5590551181102362,
                    "duration": 0.618428999999999
                },
                {
                    "name": "A#4",
                    "midi": 70,
                    "time": 45.14531699999987,
                    "velocity": 0.4645669291338583,
                    "duration": 0.618428999999999
                },
                {
                    "name": "C#4",
                    "midi": 61,
                    "time": 45.14531699999987,
                    "velocity": 0.4645669291338583,
                    "duration": 0.618428999999999
                },
                {
                    "name": "C5",
                    "midi": 72,
                    "time": 45.76374599999987,
                    "velocity": 0.5433070866141733,
                    "duration": 0.618428999999999
                },
                {
                    "name": "G#4",
                    "midi": 68,
                    "time": 45.76374599999987,
                    "velocity": 0.5433070866141733,
                    "duration": 0.618428999999999
                },
                {
                    "name": "C4",
                    "midi": 60,
                    "time": 45.76374599999987,
                    "velocity": 0.4566929133858268,
                    "duration": 0.618428999999999
                },
                {
                    "name": "G#4",
                    "midi": 68,
                    "time": 46.38217499999987,
                    "velocity": 0.5590551181102362,
                    "duration": 0.618428999999999
                },
                {
                    "name": "F4",
                    "midi": 65,
                    "time": 46.38217499999987,
                    "velocity": 0.4645669291338583,
                    "duration": 0.618428999999999
                },
                {
                    "name": "G#3",
                    "midi": 56,
                    "time": 46.38217499999987,
                    "velocity": 0.4645669291338583,
                    "duration": 0.618428999999999
                },
                {
                    "name": "A#3",
                    "midi": 58,
                    "time": 47.00060399999987,
                    "velocity": 0.4409448818897638,
                    "duration": 0.10307149999999865
                },
                {
                    "name": "G4",
                    "midi": 67,
                    "time": 47.00060399999987,
                    "velocity": 0.4409448818897638,
                    "duration": 0.10307149999999865
                },
                {
                    "name": "A#4",
                    "midi": 70,
                    "time": 47.00060399999987,
                    "velocity": 0.5196850393700787,
                    "duration": 0.10307149999999865
                },
                {
                    "name": "G4",
                    "midi": 67,
                    "time": 47.206746999999865,
                    "velocity": 0.4566929133858268,
                    "duration": 0.10307149999999865
                },
                {
                    "name": "G3",
                    "midi": 55,
                    "time": 47.206746999999865,
                    "velocity": 0.3858267716535433,
                    "duration": 0.10307149999999865
                },
                {
                    "name": "G#4",
                    "midi": 68,
                    "time": 47.41288999999986,
                    "velocity": 0.5196850393700787,
                    "duration": 0.10307149999999865
                },
                {
                    "name": "G#3",
                    "midi": 56,
                    "time": 47.41288999999986,
                    "velocity": 0.4094488188976378,
                    "duration": 0.10307149999999865
                },
                {
                    "name": "F4",
                    "midi": 65,
                    "time": 47.61903299999986,
                    "velocity": 0.4645669291338583,
                    "duration": 0.10307149999999865
                },
                {
                    "name": "F3",
                    "midi": 53,
                    "time": 47.61903299999986,
                    "velocity": 0.3937007874015748,
                    "duration": 0.10307149999999865
                },
                {
                    "name": "G4",
                    "midi": 67,
                    "time": 47.82517599999986,
                    "velocity": 0.5196850393700787,
                    "duration": 0.10307149999999865
                },
                {
                    "name": "G3",
                    "midi": 55,
                    "time": 47.82517599999986,
                    "velocity": 0.4409448818897638,
                    "duration": 0.10307149999999865
                },
                {
                    "name": "E4",
                    "midi": 64,
                    "time": 48.031318999999854,
                    "velocity": 0.47244094488188976,
                    "duration": 0.10307149999999865
                },
                {
                    "name": "E3",
                    "midi": 52,
                    "time": 48.031318999999854,
                    "velocity": 0.4015748031496063,
                    "duration": 0.10307149999999865
                },
                {
                    "name": "F3",
                    "midi": 53,
                    "time": 48.23746199999985,
                    "velocity": 0.4409448818897638,
                    "duration": 0.10307149999999865
                },
                {
                    "name": "F4",
                    "midi": 65,
                    "time": 48.23746199999985,
                    "velocity": 0.5196850393700787,
                    "duration": 0.10307149999999865
                },
                {
                    "name": "F3",
                    "midi": 53,
                    "time": 48.64974799999985,
                    "velocity": 0.4330708661417323,
                    "duration": 0.10307149999999865
                },
                {
                    "name": "F4",
                    "midi": 65,
                    "time": 48.64974799999985,
                    "velocity": 0.5118110236220472,
                    "duration": 0.10307149999999865
                },
                {
                    "name": "F#3",
                    "midi": 54,
                    "time": 49.47431999999985,
                    "velocity": 0.5984251968503937,
                    "duration": 0.2061429999999973
                },
                {
                    "name": "E5",
                    "midi": 76,
                    "time": 50.09274899999985,
                    "velocity": 0.5275590551181102,
                    "duration": 0.618428999999999
                },
                {
                    "name": "E6",
                    "midi": 88,
                    "time": 50.09274899999985,
                    "velocity": 0.6377952755905512,
                    "duration": 0.618428999999999
                },
                {
                    "name": "C#6",
                    "midi": 85,
                    "time": 50.09274899999985,
                    "velocity": 0.5275590551181102,
                    "duration": 0.618428999999999
                },
                {
                    "name": "B5",
                    "midi": 83,
                    "time": 50.71117799999985,
                    "velocity": 0.6220472440944882,
                    "duration": 0.618428999999999
                },
                {
                    "name": "D#6",
                    "midi": 87,
                    "time": 50.71117799999985,
                    "velocity": 0.6220472440944882,
                    "duration": 0.618428999999999
                },
                {
                    "name": "D#5",
                    "midi": 75,
                    "time": 50.71117799999985,
                    "velocity": 0.5196850393700787,
                    "duration": 0.618428999999999
                },
                {
                    "name": "B4",
                    "midi": 71,
                    "time": 51.32960699999985,
                    "velocity": 0.5275590551181102,
                    "duration": 0.618428999999999
                },
                {
                    "name": "B5",
                    "midi": 83,
                    "time": 51.32960699999985,
                    "velocity": 0.6377952755905512,
                    "duration": 0.618428999999999
                },
                {
                    "name": "G#5",
                    "midi": 80,
                    "time": 51.32960699999985,
                    "velocity": 0.5275590551181102,
                    "duration": 0.618428999999999
                },
                {
                    "name": "E4",
                    "midi": 64,
                    "time": 52.566464999999845,
                    "velocity": 0.33070866141732286,
                    "duration": 0.618428999999999
                },
                {
                    "name": "D4",
                    "midi": 62,
                    "time": 53.184893999999844,
                    "velocity": 0.3228346456692913,
                    "duration": 0.618428999999999
                },
                {
                    "name": "B3",
                    "midi": 59,
                    "time": 53.80332299999984,
                    "velocity": 0.33070866141732286,
                    "duration": 0.618428999999999
                },
                {
                    "name": "F#3",
                    "midi": 54,
                    "time": 54.42175199999984,
                    "velocity": 0.7165354330708661,
                    "duration": 0.2061429999999973
                },
                {
                    "name": "E6",
                    "midi": 88,
                    "time": 54.834037999999836,
                    "velocity": 0.6141732283464567,
                    "duration": 0.2061429999999973
                },
                {
                    "name": "C#6",
                    "midi": 85,
                    "time": 54.834037999999836,
                    "velocity": 0.5039370078740157,
                    "duration": 0.2061429999999973
                },
                {
                    "name": "E5",
                    "midi": 76,
                    "time": 54.834037999999836,
                    "velocity": 0.5039370078740157,
                    "duration": 0.2061429999999973
                },
                {
                    "name": "B5",
                    "midi": 83,
                    "time": 55.04018099999983,
                    "velocity": 0.5905511811023622,
                    "duration": 0.4122860000000017
                },
                {
                    "name": "D#5",
                    "midi": 75,
                    "time": 55.04018099999983,
                    "velocity": 0.5905511811023622,
                    "duration": 0.4122860000000017
                },
                {
                    "name": "D#6",
                    "midi": 87,
                    "time": 55.04018099999983,
                    "velocity": 0.5905511811023622,
                    "duration": 0.4122860000000017
                },
                {
                    "name": "B4",
                    "midi": 71,
                    "time": 55.452466999999835,
                    "velocity": 0.5039370078740157,
                    "duration": 0.2061429999999973
                },
                {
                    "name": "B5",
                    "midi": 83,
                    "time": 55.452466999999835,
                    "velocity": 0.6141732283464567,
                    "duration": 0.2061429999999973
                },
                {
                    "name": "G#5",
                    "midi": 80,
                    "time": 55.452466999999835,
                    "velocity": 0.5039370078740157,
                    "duration": 0.2061429999999973
                },
                {
                    "name": "G#6",
                    "midi": 92,
                    "time": 56.070895999999834,
                    "velocity": 0.6141732283464567,
                    "duration": 0.2061429999999973
                },
                {
                    "name": "G#5",
                    "midi": 80,
                    "time": 56.070895999999834,
                    "velocity": 0.5039370078740157,
                    "duration": 0.2061429999999973
                },
                {
                    "name": "E6",
                    "midi": 88,
                    "time": 56.070895999999834,
                    "velocity": 0.5039370078740157,
                    "duration": 0.2061429999999973
                },
                {
                    "name": "F#6",
                    "midi": 90,
                    "time": 56.27703899999983,
                    "velocity": 0.5905511811023622,
                    "duration": 0.4122860000000017
                },
                {
                    "name": "D#6",
                    "midi": 87,
                    "time": 56.27703899999983,
                    "velocity": 0.5905511811023622,
                    "duration": 0.4122860000000017
                },
                {
                    "name": "F#5",
                    "midi": 78,
                    "time": 56.27703899999983,
                    "velocity": 0.5905511811023622,
                    "duration": 0.4122860000000017
                },
                {
                    "name": "D#5",
                    "midi": 75,
                    "time": 56.68932499999983,
                    "velocity": 0.5039370078740157,
                    "duration": 0.2061429999999973
                },
                {
                    "name": "D#6",
                    "midi": 87,
                    "time": 56.68932499999983,
                    "velocity": 0.6141732283464567,
                    "duration": 0.2061429999999973
                },
                {
                    "name": "B5",
                    "midi": 83,
                    "time": 56.68932499999983,
                    "velocity": 0.5039370078740157,
                    "duration": 0.2061429999999973
                },
                {
                    "name": "E4",
                    "midi": 64,
                    "time": 57.30775399999983,
                    "velocity": 0.33070866141732286,
                    "duration": 0.2061429999999973
                },
                {
                    "name": "D4",
                    "midi": 62,
                    "time": 57.51389699999983,
                    "velocity": 0.3228346456692913,
                    "duration": 0.4122860000000017
                },
                {
                    "name": "B3",
                    "midi": 59,
                    "time": 57.92618299999983,
                    "velocity": 0.33070866141732286,
                    "duration": 0.2061429999999973
                },
                {
                    "name": "C#4",
                    "midi": 61,
                    "time": 58.54461199999983,
                    "velocity": 0.33070866141732286,
                    "duration": 0.2061429999999973
                },
                {
                    "name": "B3",
                    "midi": 59,
                    "time": 58.75075499999983,
                    "velocity": 0.3228346456692913,
                    "duration": 0.4122860000000017
                },
                {
                    "name": "G3",
                    "midi": 55,
                    "time": 59.16304099999983,
                    "velocity": 0.33070866141732286,
                    "duration": 0.2061429999999973
                },
                {
                    "name": "F#3",
                    "midi": 54,
                    "time": 59.36918399999983,
                    "velocity": 0.3228346456692913,
                    "duration": 0.4122860000000017
                },
                {
                    "name": "F#4",
                    "midi": 66,
                    "time": 61.22447099999983,
                    "velocity": 0.2047244094488189,
                    "duration": 0.10307149999999865
                },
                {
                    "name": "E4",
                    "midi": 64,
                    "time": 61.22447099999983,
                    "velocity": 0.1732283464566929,
                    "duration": 0.10307149999999865
                },
                {
                    "name": "A#3",
                    "midi": 58,
                    "time": 61.22447099999983,
                    "velocity": 0.1732283464566929,
                    "duration": 0.10307149999999865
                },
                {
                    "name": "C#4",
                    "midi": 61,
                    "time": 61.22447099999983,
                    "velocity": 0.1732283464566929,
                    "duration": 0.10307149999999865
                },
                {
                    "name": "C#4",
                    "midi": 61,
                    "time": 61.43061399999983,
                    "velocity": 0.1968503937007874,
                    "duration": 0.10307149999999865
                },
                {
                    "name": "A#3",
                    "midi": 58,
                    "time": 61.43061399999983,
                    "velocity": 0.1968503937007874,
                    "duration": 0.10307149999999865
                },
                {
                    "name": "E4",
                    "midi": 64,
                    "time": 61.43061399999983,
                    "velocity": 0.1968503937007874,
                    "duration": 0.10307149999999865
                },
                {
                    "name": "F#4",
                    "midi": 66,
                    "time": 61.43061399999983,
                    "velocity": 0.23622047244094488,
                    "duration": 0.10307149999999865
                },
                {
                    "name": "A#3",
                    "midi": 58,
                    "time": 61.636756999999825,
                    "velocity": 0.1732283464566929,
                    "duration": 0.10307149999999865
                },
                {
                    "name": "F#4",
                    "midi": 66,
                    "time": 61.636756999999825,
                    "velocity": 0.2047244094488189,
                    "duration": 0.10307149999999865
                },
                {
                    "name": "C#4",
                    "midi": 61,
                    "time": 61.636756999999825,
                    "velocity": 0.1732283464566929,
                    "duration": 0.10307149999999865
                },
                {
                    "name": "E4",
                    "midi": 64,
                    "time": 61.636756999999825,
                    "velocity": 0.1732283464566929,
                    "duration": 0.10307149999999865
                },
                {
                    "name": "F#4",
                    "midi": 66,
                    "time": 61.84289999999982,
                    "velocity": 0.25984251968503935,
                    "duration": 0.10307149999999865
                },
                {
                    "name": "B3",
                    "midi": 59,
                    "time": 61.84289999999982,
                    "velocity": 0.2204724409448819,
                    "duration": 0.10307149999999865
                },
                {
                    "name": "D#4",
                    "midi": 63,
                    "time": 61.84289999999982,
                    "velocity": 0.2204724409448819,
                    "duration": 0.10307149999999865
                },
                {
                    "name": "C#4",
                    "midi": 61,
                    "time": 62.46132899999982,
                    "velocity": 0.2047244094488189,
                    "duration": 0.10307149999999865
                },
                {
                    "name": "E3",
                    "midi": 52,
                    "time": 62.46132899999982,
                    "velocity": 0.1732283464566929,
                    "duration": 0.10307149999999865
                },
                {
                    "name": "F#3",
                    "midi": 54,
                    "time": 62.46132899999982,
                    "velocity": 0.1732283464566929,
                    "duration": 0.10307149999999865
                },
                {
                    "name": "A#3",
                    "midi": 58,
                    "time": 62.46132899999982,
                    "velocity": 0.1732283464566929,
                    "duration": 0.10307149999999865
                },
                {
                    "name": "E3",
                    "midi": 52,
                    "time": 62.66747199999982,
                    "velocity": 0.1968503937007874,
                    "duration": 0.10307149999999865
                },
                {
                    "name": "F#3",
                    "midi": 54,
                    "time": 62.66747199999982,
                    "velocity": 0.1968503937007874,
                    "duration": 0.10307149999999865
                },
                {
                    "name": "A#3",
                    "midi": 58,
                    "time": 62.66747199999982,
                    "velocity": 0.1968503937007874,
                    "duration": 0.10307149999999865
                },
                {
                    "name": "D#4",
                    "midi": 63,
                    "time": 62.66747199999982,
                    "velocity": 0.23622047244094488,
                    "duration": 0.10307149999999865
                },
                {
                    "name": "E3",
                    "midi": 52,
                    "time": 62.873614999999816,
                    "velocity": 0.1732283464566929,
                    "duration": 0.10307149999999865
                },
                {
                    "name": "F#3",
                    "midi": 54,
                    "time": 62.873614999999816,
                    "velocity": 0.1732283464566929,
                    "duration": 0.10307149999999865
                },
                {
                    "name": "A#3",
                    "midi": 58,
                    "time": 62.873614999999816,
                    "velocity": 0.1732283464566929,
                    "duration": 0.10307149999999865
                },
                {
                    "name": "C#4",
                    "midi": 61,
                    "time": 62.873614999999816,
                    "velocity": 0.2047244094488189,
                    "duration": 0.10307149999999865
                },
                {
                    "name": "D#3",
                    "midi": 51,
                    "time": 63.07975799999981,
                    "velocity": 0.2204724409448819,
                    "duration": 0.10307149999999865
                },
                {
                    "name": "F#3",
                    "midi": 54,
                    "time": 63.07975799999981,
                    "velocity": 0.2204724409448819,
                    "duration": 0.10307149999999865
                },
                {
                    "name": "B3",
                    "midi": 59,
                    "time": 63.07975799999981,
                    "velocity": 0.25984251968503935,
                    "duration": 0.10307149999999865
                },
                {
                    "name": "A#3",
                    "midi": 58,
                    "time": 63.69818699999981,
                    "velocity": 0.1732283464566929,
                    "duration": 0.10307149999999865
                },
                {
                    "name": "F#4",
                    "midi": 66,
                    "time": 63.69818699999981,
                    "velocity": 0.2047244094488189,
                    "duration": 0.10307149999999865
                },
                {
                    "name": "C#4",
                    "midi": 61,
                    "time": 63.69818699999981,
                    "velocity": 0.1732283464566929,
                    "duration": 0.10307149999999865
                },
                {
                    "name": "E4",
                    "midi": 64,
                    "time": 63.69818699999981,
                    "velocity": 0.1732283464566929,
                    "duration": 0.10307149999999865
                },
                {
                    "name": "A#3",
                    "midi": 58,
                    "time": 63.90432999999981,
                    "velocity": 0.1968503937007874,
                    "duration": 0.10307150000000576
                },
                {
                    "name": "C#4",
                    "midi": 61,
                    "time": 63.90432999999981,
                    "velocity": 0.1968503937007874,
                    "duration": 0.10307150000000576
                },
                {
                    "name": "E4",
                    "midi": 64,
                    "time": 63.90432999999981,
                    "velocity": 0.1968503937007874,
                    "duration": 0.10307150000000576
                },
                {
                    "name": "F#4",
                    "midi": 66,
                    "time": 63.90432999999981,
                    "velocity": 0.23622047244094488,
                    "duration": 0.10307150000000576
                },
                {
                    "name": "C#4",
                    "midi": 61,
                    "time": 64.11047299999981,
                    "velocity": 0.1732283464566929,
                    "duration": 0.10307149999999865
                },
                {
                    "name": "F#4",
                    "midi": 66,
                    "time": 64.11047299999981,
                    "velocity": 0.2047244094488189,
                    "duration": 0.10307149999999865
                },
                {
                    "name": "E4",
                    "midi": 64,
                    "time": 64.11047299999981,
                    "velocity": 0.1732283464566929,
                    "duration": 0.10307149999999865
                },
                {
                    "name": "A#3",
                    "midi": 58,
                    "time": 64.11047299999981,
                    "velocity": 0.1732283464566929,
                    "duration": 0.10307149999999865
                },
                {
                    "name": "F#4",
                    "midi": 66,
                    "time": 64.31661599999981,
                    "velocity": 0.25984251968503935,
                    "duration": 0.10307149999999865
                },
                {
                    "name": "D#4",
                    "midi": 63,
                    "time": 64.31661599999981,
                    "velocity": 0.2204724409448819,
                    "duration": 0.10307149999999865
                },
                {
                    "name": "B3",
                    "midi": 59,
                    "time": 64.31661599999981,
                    "velocity": 0.2204724409448819,
                    "duration": 0.10307149999999865
                },
                {
                    "name": "A#3",
                    "midi": 58,
                    "time": 64.9350449999998,
                    "velocity": 0.1732283464566929,
                    "duration": 0.10307149999999865
                },
                {
                    "name": "C#4",
                    "midi": 61,
                    "time": 64.9350449999998,
                    "velocity": 0.2047244094488189,
                    "duration": 0.10307149999999865
                },
                {
                    "name": "E3",
                    "midi": 52,
                    "time": 64.9350449999998,
                    "velocity": 0.1732283464566929,
                    "duration": 0.10307149999999865
                },
                {
                    "name": "F#3",
                    "midi": 54,
                    "time": 64.9350449999998,
                    "velocity": 0.1732283464566929,
                    "duration": 0.10307149999999865
                },
                {
                    "name": "A#3",
                    "midi": 58,
                    "time": 65.1411879999998,
                    "velocity": 0.1968503937007874,
                    "duration": 0.10307149999999865
                },
                {
                    "name": "E3",
                    "midi": 52,
                    "time": 65.1411879999998,
                    "velocity": 0.1968503937007874,
                    "duration": 0.10307149999999865
                },
                {
                    "name": "F#3",
                    "midi": 54,
                    "time": 65.1411879999998,
                    "velocity": 0.1968503937007874,
                    "duration": 0.10307149999999865
                },
                {
                    "name": "D#4",
                    "midi": 63,
                    "time": 65.1411879999998,
                    "velocity": 0.23622047244094488,
                    "duration": 0.10307149999999865
                },
                {
                    "name": "A#3",
                    "midi": 58,
                    "time": 65.3473309999998,
                    "velocity": 0.1732283464566929,
                    "duration": 0.10307149999999865
                },
                {
                    "name": "E3",
                    "midi": 52,
                    "time": 65.3473309999998,
                    "velocity": 0.1732283464566929,
                    "duration": 0.10307149999999865
                },
                {
                    "name": "C#4",
                    "midi": 61,
                    "time": 65.3473309999998,
                    "velocity": 0.2047244094488189,
                    "duration": 0.10307149999999865
                },
                {
                    "name": "F#3",
                    "midi": 54,
                    "time": 65.3473309999998,
                    "velocity": 0.1732283464566929,
                    "duration": 0.10307149999999865
                },
                {
                    "name": "F#3",
                    "midi": 54,
                    "time": 65.5534739999998,
                    "velocity": 0.2204724409448819,
                    "duration": 0.10307149999999865
                },
                {
                    "name": "B3",
                    "midi": 59,
                    "time": 65.5534739999998,
                    "velocity": 0.25984251968503935,
                    "duration": 0.10307149999999865
                },
                {
                    "name": "D#3",
                    "midi": 51,
                    "time": 65.5534739999998,
                    "velocity": 0.2204724409448819,
                    "duration": 0.10307149999999865
                },
                {
                    "name": "F#4",
                    "midi": 66,
                    "time": 66.17190299999979,
                    "velocity": 0.18110236220472442,
                    "duration": 0.10307149999999865
                },
                {
                    "name": "C4",
                    "midi": 60,
                    "time": 66.17190299999979,
                    "velocity": 0.18110236220472442,
                    "duration": 0.10307149999999865
                },
                {
                    "name": "D#4",
                    "midi": 63,
                    "time": 66.17190299999979,
                    "velocity": 0.18110236220472442,
                    "duration": 0.10307149999999865
                },
                {
                    "name": "G#4",
                    "midi": 68,
                    "time": 66.17190299999979,
                    "velocity": 0.2204724409448819,
                    "duration": 0.10307149999999865
                },
                {
                    "name": "F#4",
                    "midi": 66,
                    "time": 66.37804599999978,
                    "velocity": 0.2125984251968504,
                    "duration": 0.10307149999999865
                },
                {
                    "name": "G#4",
                    "midi": 68,
                    "time": 66.37804599999978,
                    "velocity": 0.25984251968503935,
                    "duration": 0.10307149999999865
                },
                {
                    "name": "D#4",
                    "midi": 63,
                    "time": 66.37804599999978,
                    "velocity": 0.2125984251968504,
                    "duration": 0.10307149999999865
                },
                {
                    "name": "C4",
                    "midi": 60,
                    "time": 66.37804599999978,
                    "velocity": 0.2125984251968504,
                    "duration": 0.10307149999999865
                },
                {
                    "name": "D#4",
                    "midi": 63,
                    "time": 66.58418899999978,
                    "velocity": 0.1968503937007874,
                    "duration": 0.10307149999999865
                },
                {
                    "name": "C4",
                    "midi": 60,
                    "time": 66.58418899999978,
                    "velocity": 0.1968503937007874,
                    "duration": 0.10307149999999865
                },
                {
                    "name": "F#4",
                    "midi": 66,
                    "time": 66.58418899999978,
                    "velocity": 0.1968503937007874,
                    "duration": 0.10307149999999865
                },
                {
                    "name": "G#4",
                    "midi": 68,
                    "time": 66.58418899999978,
                    "velocity": 0.2283464566929134,
                    "duration": 0.10307149999999865
                },
                {
                    "name": "E4",
                    "midi": 64,
                    "time": 66.79033199999978,
                    "velocity": 0.25196850393700787,
                    "duration": 0.10307149999999865
                },
                {
                    "name": "C#4",
                    "midi": 61,
                    "time": 66.79033199999978,
                    "velocity": 0.25196850393700787,
                    "duration": 0.10307149999999865
                },
                {
                    "name": "G#4",
                    "midi": 68,
                    "time": 66.79033199999978,
                    "velocity": 0.2992125984251969,
                    "duration": 0.10307149999999865
                },
                {
                    "name": "A#3",
                    "midi": 58,
                    "time": 67.40876099999977,
                    "velocity": 0.2125984251968504,
                    "duration": 0.10307149999999865
                },
                {
                    "name": "C#4",
                    "midi": 61,
                    "time": 67.40876099999977,
                    "velocity": 0.2125984251968504,
                    "duration": 0.10307149999999865
                },
                {
                    "name": "E4",
                    "midi": 64,
                    "time": 67.40876099999977,
                    "velocity": 0.2125984251968504,
                    "duration": 0.10307149999999865
                },
                {
                    "name": "F#4",
                    "midi": 66,
                    "time": 67.40876099999977,
                    "velocity": 0.25196850393700787,
                    "duration": 0.10307149999999865
                },
                {
                    "name": "A#3",
                    "midi": 58,
                    "time": 67.61490399999977,
                    "velocity": 0.25196850393700787,
                    "duration": 0.10307149999999865
                },
                {
                    "name": "D#4",
                    "midi": 63,
                    "time": 67.61490399999977,
                    "velocity": 0.25196850393700787,
                    "duration": 0.10307149999999865
                },
                {
                    "name": "E4",
                    "midi": 64,
                    "time": 67.61490399999977,
                    "velocity": 0.25196850393700787,
                    "duration": 0.10307149999999865
                },
                {
                    "name": "F#4",
                    "midi": 66,
                    "time": 67.61490399999977,
                    "velocity": 0.2992125984251969,
                    "duration": 0.10307149999999865
                },
                {
                    "name": "E4",
                    "midi": 64,
                    "time": 67.82104699999977,
                    "velocity": 0.2204724409448819,
                    "duration": 0.10307149999999865
                },
                {
                    "name": "F#4",
                    "midi": 66,
                    "time": 67.82104699999977,
                    "velocity": 0.2677165354330709,
                    "duration": 0.10307149999999865
                },
                {
                    "name": "A#3",
                    "midi": 58,
                    "time": 67.82104699999977,
                    "velocity": 0.2204724409448819,
                    "duration": 0.10307149999999865
                },
                {
                    "name": "C#4",
                    "midi": 61,
                    "time": 67.82104699999977,
                    "velocity": 0.2204724409448819,
                    "duration": 0.10307149999999865
                },
                {
                    "name": "B3",
                    "midi": 59,
                    "time": 68.02718999999976,
                    "velocity": 0.29133858267716534,
                    "duration": 0.10307149999999865
                },
                {
                    "name": "D#4",
                    "midi": 63,
                    "time": 68.02718999999976,
                    "velocity": 0.29133858267716534,
                    "duration": 0.10307149999999865
                },
                {
                    "name": "F#4",
                    "midi": 66,
                    "time": 68.02718999999976,
                    "velocity": 0.33858267716535434,
                    "duration": 0.10307149999999865
                },
                {
                    "name": "D#4",
                    "midi": 63,
                    "time": 68.64561899999975,
                    "velocity": 0.2440944881889764,
                    "duration": 0.10307149999999865
                },
                {
                    "name": "A4",
                    "midi": 69,
                    "time": 68.64561899999975,
                    "velocity": 0.2440944881889764,
                    "duration": 0.10307149999999865
                },
                {
                    "name": "B4",
                    "midi": 71,
                    "time": 68.64561899999975,
                    "velocity": 0.28346456692913385,
                    "duration": 0.10307149999999865
                },
                {
                    "name": "F#4",
                    "midi": 66,
                    "time": 68.64561899999975,
                    "velocity": 0.2440944881889764,
                    "duration": 0.10307149999999865
                },
                {
                    "name": "D#4",
                    "midi": 63,
                    "time": 68.85176199999975,
                    "velocity": 0.28346456692913385,
                    "duration": 0.10307149999999865
                },
                {
                    "name": "F#4",
                    "midi": 66,
                    "time": 68.85176199999975,
                    "velocity": 0.28346456692913385,
                    "duration": 0.10307149999999865
                },
                {
                    "name": "A4",
                    "midi": 69,
                    "time": 68.85176199999975,
                    "velocity": 0.28346456692913385,
                    "duration": 0.10307149999999865
                },
                {
                    "name": "B4",
                    "midi": 71,
                    "time": 68.85176199999975,
                    "velocity": 0.33858267716535434,
                    "duration": 0.10307149999999865
                },
                {
                    "name": "D#4",
                    "midi": 63,
                    "time": 69.05790499999975,
                    "velocity": 0.25196850393700787,
                    "duration": 0.10307149999999865
                },
                {
                    "name": "F#4",
                    "midi": 66,
                    "time": 69.05790499999975,
                    "velocity": 0.25196850393700787,
                    "duration": 0.10307149999999865
                },
                {
                    "name": "A4",
                    "midi": 69,
                    "time": 69.05790499999975,
                    "velocity": 0.25196850393700787,
                    "duration": 0.10307149999999865
                },
                {
                    "name": "B4",
                    "midi": 71,
                    "time": 69.05790499999975,
                    "velocity": 0.2992125984251969,
                    "duration": 0.10307149999999865
                },
                {
                    "name": "E4",
                    "midi": 64,
                    "time": 69.26404799999975,
                    "velocity": 0.33070866141732286,
                    "duration": 0.10307149999999865
                },
                {
                    "name": "B4",
                    "midi": 71,
                    "time": 69.26404799999975,
                    "velocity": 0.3858267716535433,
                    "duration": 0.10307149999999865
                },
                {
                    "name": "G#4",
                    "midi": 68,
                    "time": 69.26404799999975,
                    "velocity": 0.33070866141732286,
                    "duration": 0.10307149999999865
                },
                {
                    "name": "C#5",
                    "midi": 73,
                    "time": 69.88247699999974,
                    "velocity": 0.3700787401574803,
                    "duration": 0.10307149999999865
                },
                {
                    "name": "F4",
                    "midi": 65,
                    "time": 69.88247699999974,
                    "velocity": 0.30708661417322836,
                    "duration": 0.10307149999999865
                },
                {
                    "name": "G#4",
                    "midi": 68,
                    "time": 69.88247699999974,
                    "velocity": 0.30708661417322836,
                    "duration": 0.10307149999999865
                },
                {
                    "name": "B4",
                    "midi": 71,
                    "time": 69.88247699999974,
                    "velocity": 0.30708661417322836,
                    "duration": 0.10307149999999865
                },
                {
                    "name": "C#5",
                    "midi": 73,
                    "time": 70.08861999999974,
                    "velocity": 0.4330708661417323,
                    "duration": 0.10307149999999865
                },
                {
                    "name": "B4",
                    "midi": 71,
                    "time": 70.08861999999974,
                    "velocity": 0.36220472440944884,
                    "duration": 0.10307149999999865
                },
                {
                    "name": "G#4",
                    "midi": 68,
                    "time": 70.08861999999974,
                    "velocity": 0.36220472440944884,
                    "duration": 0.10307149999999865
                },
                {
                    "name": "F4",
                    "midi": 65,
                    "time": 70.08861999999974,
                    "velocity": 0.36220472440944884,
                    "duration": 0.10307149999999865
                },
                {
                    "name": "G#4",
                    "midi": 68,
                    "time": 70.29476299999973,
                    "velocity": 0.3228346456692913,
                    "duration": 0.10307149999999865
                },
                {
                    "name": "F4",
                    "midi": 65,
                    "time": 70.29476299999973,
                    "velocity": 0.3228346456692913,
                    "duration": 0.10307149999999865
                },
                {
                    "name": "C#5",
                    "midi": 73,
                    "time": 70.29476299999973,
                    "velocity": 0.3779527559055118,
                    "duration": 0.10307149999999865
                },
                {
                    "name": "B4",
                    "midi": 71,
                    "time": 70.29476299999973,
                    "velocity": 0.3228346456692913,
                    "duration": 0.10307149999999865
                },
                {
                    "name": "A#4",
                    "midi": 70,
                    "time": 70.50090599999973,
                    "velocity": 0.4094488188976378,
                    "duration": 0.10307149999999865
                },
                {
                    "name": "F#4",
                    "midi": 66,
                    "time": 70.50090599999973,
                    "velocity": 0.4094488188976378,
                    "duration": 0.10307149999999865
                },
                {
                    "name": "C#5",
                    "midi": 73,
                    "time": 70.50090599999973,
                    "velocity": 0.49606299212598426,
                    "duration": 0.10307149999999865
                },
                {
                    "name": "C#6",
                    "midi": 85,
                    "time": 71.11933499999972,
                    "velocity": 0.4330708661417323,
                    "duration": 0.10307149999999865
                },
                {
                    "name": "F#6",
                    "midi": 90,
                    "time": 71.11933499999972,
                    "velocity": 0.5118110236220472,
                    "duration": 0.10307149999999865
                },
                {
                    "name": "A#5",
                    "midi": 82,
                    "time": 71.11933499999972,
                    "velocity": 0.4330708661417323,
                    "duration": 0.10307149999999865
                },
                {
                    "name": "E5",
                    "midi": 76,
                    "time": 71.11933499999972,
                    "velocity": 0.4330708661417323,
                    "duration": 0.10307149999999865
                },
                {
                    "name": "E5",
                    "midi": 76,
                    "time": 71.32547799999972,
                    "velocity": 0.4881889763779528,
                    "duration": 0.10307149999999865
                },
                {
                    "name": "F#6",
                    "midi": 90,
                    "time": 71.32547799999972,
                    "velocity": 0.5826771653543307,
                    "duration": 0.10307149999999865
                },
                {
                    "name": "C#6",
                    "midi": 85,
                    "time": 71.32547799999972,
                    "velocity": 0.4881889763779528,
                    "duration": 0.10307149999999865
                },
                {
                    "name": "A#5",
                    "midi": 82,
                    "time": 71.32547799999972,
                    "velocity": 0.4881889763779528,
                    "duration": 0.10307149999999865
                },
                {
                    "name": "A#5",
                    "midi": 82,
                    "time": 71.53162099999972,
                    "velocity": 0.44881889763779526,
                    "duration": 0.10307149999999865
                },
                {
                    "name": "E5",
                    "midi": 76,
                    "time": 71.53162099999972,
                    "velocity": 0.44881889763779526,
                    "duration": 0.10307149999999865
                },
                {
                    "name": "F#6",
                    "midi": 90,
                    "time": 71.53162099999972,
                    "velocity": 0.5354330708661418,
                    "duration": 0.10307149999999865
                },
                {
                    "name": "C#6",
                    "midi": 85,
                    "time": 71.53162099999972,
                    "velocity": 0.44881889763779526,
                    "duration": 0.10307149999999865
                },
                {
                    "name": "E5",
                    "midi": 76,
                    "time": 71.73776399999971,
                    "velocity": 0.4330708661417323,
                    "duration": 0.10307149999999865
                },
                {
                    "name": "C#6",
                    "midi": 85,
                    "time": 71.73776399999971,
                    "velocity": 0.4330708661417323,
                    "duration": 0.10307149999999865
                },
                {
                    "name": "A#5",
                    "midi": 82,
                    "time": 71.73776399999971,
                    "velocity": 0.4330708661417323,
                    "duration": 0.10307149999999865
                },
                {
                    "name": "F#6",
                    "midi": 90,
                    "time": 71.73776399999971,
                    "velocity": 0.5118110236220472,
                    "duration": 0.10307149999999865
                },
                {
                    "name": "E5",
                    "midi": 76,
                    "time": 71.94390699999971,
                    "velocity": 0.4881889763779528,
                    "duration": 0.10307149999999865
                },
                {
                    "name": "C#6",
                    "midi": 85,
                    "time": 71.94390699999971,
                    "velocity": 0.4881889763779528,
                    "duration": 0.10307149999999865
                },
                {
                    "name": "F#6",
                    "midi": 90,
                    "time": 71.94390699999971,
                    "velocity": 0.5826771653543307,
                    "duration": 0.10307149999999865
                },
                {
                    "name": "A#5",
                    "midi": 82,
                    "time": 71.94390699999971,
                    "velocity": 0.4881889763779528,
                    "duration": 0.10307149999999865
                },
                {
                    "name": "C#6",
                    "midi": 85,
                    "time": 72.15004999999971,
                    "velocity": 0.44881889763779526,
                    "duration": 0.10307149999999865
                },
                {
                    "name": "A#5",
                    "midi": 82,
                    "time": 72.15004999999971,
                    "velocity": 0.44881889763779526,
                    "duration": 0.10307149999999865
                },
                {
                    "name": "E5",
                    "midi": 76,
                    "time": 72.15004999999971,
                    "velocity": 0.44881889763779526,
                    "duration": 0.10307149999999865
                },
                {
                    "name": "F#6",
                    "midi": 90,
                    "time": 72.15004999999971,
                    "velocity": 0.5354330708661418,
                    "duration": 0.10307149999999865
                },
                {
                    "name": "C#6",
                    "midi": 85,
                    "time": 72.3561929999997,
                    "velocity": 0.4330708661417323,
                    "duration": 0.10307149999999865
                },
                {
                    "name": "E5",
                    "midi": 76,
                    "time": 72.3561929999997,
                    "velocity": 0.4330708661417323,
                    "duration": 0.10307149999999865
                },
                {
                    "name": "F#6",
                    "midi": 90,
                    "time": 72.3561929999997,
                    "velocity": 0.5118110236220472,
                    "duration": 0.10307149999999865
                },
                {
                    "name": "A#5",
                    "midi": 82,
                    "time": 72.3561929999997,
                    "velocity": 0.4330708661417323,
                    "duration": 0.10307149999999865
                },
                {
                    "name": "E5",
                    "midi": 76,
                    "time": 72.5623359999997,
                    "velocity": 0.4881889763779528,
                    "duration": 0.10307149999999865
                },
                {
                    "name": "A#5",
                    "midi": 82,
                    "time": 72.5623359999997,
                    "velocity": 0.4881889763779528,
                    "duration": 0.10307149999999865
                },
                {
                    "name": "F#6",
                    "midi": 90,
                    "time": 72.5623359999997,
                    "velocity": 0.5826771653543307,
                    "duration": 0.10307149999999865
                },
                {
                    "name": "C#6",
                    "midi": 85,
                    "time": 72.5623359999997,
                    "velocity": 0.4881889763779528,
                    "duration": 0.10307149999999865
                },
                {
                    "name": "A#5",
                    "midi": 82,
                    "time": 72.7684789999997,
                    "velocity": 0.44881889763779526,
                    "duration": 0.10307149999999865
                },
                {
                    "name": "F#6",
                    "midi": 90,
                    "time": 72.7684789999997,
                    "velocity": 0.5354330708661418,
                    "duration": 0.10307149999999865
                },
                {
                    "name": "E5",
                    "midi": 76,
                    "time": 72.7684789999997,
                    "velocity": 0.44881889763779526,
                    "duration": 0.10307149999999865
                },
                {
                    "name": "C#6",
                    "midi": 85,
                    "time": 72.7684789999997,
                    "velocity": 0.44881889763779526,
                    "duration": 0.10307149999999865
                },
                {
                    "name": "B5",
                    "midi": 83,
                    "time": 72.9746219999997,
                    "velocity": 0.5275590551181102,
                    "duration": 0.10307149999999865
                },
                {
                    "name": "D#5",
                    "midi": 75,
                    "time": 72.9746219999997,
                    "velocity": 0.5275590551181102,
                    "duration": 0.10307149999999865
                },
                {
                    "name": "D#6",
                    "midi": 87,
                    "time": 72.9746219999997,
                    "velocity": 0.6220472440944882,
                    "duration": 0.10307149999999865
                },
                {
                    "name": "B4",
                    "midi": 71,
                    "time": 73.38690799999969,
                    "velocity": 0.48031496062992124,
                    "duration": 0.10307149999999865
                },
                {
                    "name": "B5",
                    "midi": 83,
                    "time": 73.38690799999969,
                    "velocity": 0.5669291338582677,
                    "duration": 0.10307149999999865
                },
                {
                    "name": "F#5",
                    "midi": 78,
                    "time": 73.59305099999969,
                    "velocity": 0.6220472440944882,
                    "duration": 0.10307149999999865
                },
                {
                    "name": "F#4",
                    "midi": 66,
                    "time": 73.59305099999969,
                    "velocity": 0.5275590551181102,
                    "duration": 0.10307149999999865
                },
                {
                    "name": "D#5",
                    "midi": 75,
                    "time": 74.00533699999968,
                    "velocity": 0.5590551181102362,
                    "duration": 0.10307149999999865
                },
                {
                    "name": "D#4",
                    "midi": 63,
                    "time": 74.00533699999968,
                    "velocity": 0.47244094488188976,
                    "duration": 0.10307149999999865
                },
                {
                    "name": "B4",
                    "midi": 71,
                    "time": 74.21147999999968,
                    "velocity": 0.6220472440944882,
                    "duration": 0.10307149999999865
                },
                {
                    "name": "G4",
                    "midi": 67,
                    "time": 74.62376599999968,
                    "velocity": 0.5748031496062992,
                    "duration": 0.10307149999999865
                },
                {
                    "name": "A#5",
                    "midi": 82,
                    "time": 74.82990899999967,
                    "velocity": 0.4330708661417323,
                    "duration": 0.10307149999999865
                },
                {
                    "name": "C#6",
                    "midi": 85,
                    "time": 74.82990899999967,
                    "velocity": 0.4330708661417323,
                    "duration": 0.10307149999999865
                },
                {
                    "name": "E5",
                    "midi": 76,
                    "time": 74.82990899999967,
                    "velocity": 0.4330708661417323,
                    "duration": 0.10307149999999865
                },
                {
                    "name": "F#6",
                    "midi": 90,
                    "time": 74.82990899999967,
                    "velocity": 0.5118110236220472,
                    "duration": 0.10307149999999865
                },
                {
                    "name": "F#6",
                    "midi": 90,
                    "time": 75.03605199999967,
                    "velocity": 0.5826771653543307,
                    "duration": 0.10307149999999865
                },
                {
                    "name": "E5",
                    "midi": 76,
                    "time": 75.03605199999967,
                    "velocity": 0.4881889763779528,
                    "duration": 0.10307149999999865
                },
                {
                    "name": "A#5",
                    "midi": 82,
                    "time": 75.03605199999967,
                    "velocity": 0.4881889763779528,
                    "duration": 0.10307149999999865
                },
                {
                    "name": "C#6",
                    "midi": 85,
                    "time": 75.03605199999967,
                    "velocity": 0.4881889763779528,
                    "duration": 0.10307149999999865
                },
                {
                    "name": "E5",
                    "midi": 76,
                    "time": 75.24219499999967,
                    "velocity": 0.44881889763779526,
                    "duration": 0.10307149999999865
                },
                {
                    "name": "C#6",
                    "midi": 85,
                    "time": 75.24219499999967,
                    "velocity": 0.44881889763779526,
                    "duration": 0.10307149999999865
                },
                {
                    "name": "A#5",
                    "midi": 82,
                    "time": 75.24219499999967,
                    "velocity": 0.44881889763779526,
                    "duration": 0.10307149999999865
                },
                {
                    "name": "F#6",
                    "midi": 90,
                    "time": 75.24219499999967,
                    "velocity": 0.5354330708661418,
                    "duration": 0.10307149999999865
                },
                {
                    "name": "B5",
                    "midi": 83,
                    "time": 75.44833799999967,
                    "velocity": 0.5275590551181102,
                    "duration": 0.10307149999999865
                },
                {
                    "name": "D#5",
                    "midi": 75,
                    "time": 75.44833799999967,
                    "velocity": 0.5275590551181102,
                    "duration": 0.10307149999999865
                },
                {
                    "name": "D#6",
                    "midi": 87,
                    "time": 75.44833799999967,
                    "velocity": 0.6220472440944882,
                    "duration": 0.10307149999999865
                },
                {
                    "name": "B4",
                    "midi": 71,
                    "time": 75.86062399999966,
                    "velocity": 0.48031496062992124,
                    "duration": 0.10307149999999865
                },
                {
                    "name": "B5",
                    "midi": 83,
                    "time": 75.86062399999966,
                    "velocity": 0.5669291338582677,
                    "duration": 0.10307149999999865
                },
                {
                    "name": "F#4",
                    "midi": 66,
                    "time": 76.06676699999966,
                    "velocity": 0.5275590551181102,
                    "duration": 0.10307149999999865
                },
                {
                    "name": "F#5",
                    "midi": 78,
                    "time": 76.06676699999966,
                    "velocity": 0.6220472440944882,
                    "duration": 0.10307149999999865
                },
                {
                    "name": "D#4",
                    "midi": 63,
                    "time": 76.47905299999965,
                    "velocity": 0.47244094488188976,
                    "duration": 0.10307149999999865
                },
                {
                    "name": "D#5",
                    "midi": 75,
                    "time": 76.47905299999965,
                    "velocity": 0.5590551181102362,
                    "duration": 0.10307149999999865
                },
                {
                    "name": "B4",
                    "midi": 71,
                    "time": 76.68519599999965,
                    "velocity": 0.6220472440944882,
                    "duration": 0.10307149999999865
                },
                {
                    "name": "G4",
                    "midi": 67,
                    "time": 77.09748199999964,
                    "velocity": 0.5748031496062992,
                    "duration": 0.10307149999999865
                },
                {
                    "name": "E5",
                    "midi": 76,
                    "time": 77.30362499999964,
                    "velocity": 0.4330708661417323,
                    "duration": 0.10307149999999865
                },
                {
                    "name": "C#6",
                    "midi": 85,
                    "time": 77.30362499999964,
                    "velocity": 0.4330708661417323,
                    "duration": 0.10307149999999865
                },
                {
                    "name": "A#5",
                    "midi": 82,
                    "time": 77.30362499999964,
                    "velocity": 0.4330708661417323,
                    "duration": 0.10307149999999865
                },
                {
                    "name": "F#6",
                    "midi": 90,
                    "time": 77.30362499999964,
                    "velocity": 0.5118110236220472,
                    "duration": 0.10307149999999865
                },
                {
                    "name": "C#6",
                    "midi": 85,
                    "time": 77.50976799999964,
                    "velocity": 0.4881889763779528,
                    "duration": 0.10307149999999865
                },
                {
                    "name": "F#6",
                    "midi": 90,
                    "time": 77.50976799999964,
                    "velocity": 0.5826771653543307,
                    "duration": 0.10307149999999865
                },
                {
                    "name": "E5",
                    "midi": 76,
                    "time": 77.50976799999964,
                    "velocity": 0.4881889763779528,
                    "duration": 0.10307149999999865
                },
                {
                    "name": "A#5",
                    "midi": 82,
                    "time": 77.50976799999964,
                    "velocity": 0.4881889763779528,
                    "duration": 0.10307149999999865
                },
                {
                    "name": "C#6",
                    "midi": 85,
                    "time": 77.71591099999964,
                    "velocity": 0.44881889763779526,
                    "duration": 0.10307149999999865
                },
                {
                    "name": "E5",
                    "midi": 76,
                    "time": 77.71591099999964,
                    "velocity": 0.44881889763779526,
                    "duration": 0.10307149999999865
                },
                {
                    "name": "A#5",
                    "midi": 82,
                    "time": 77.71591099999964,
                    "velocity": 0.44881889763779526,
                    "duration": 0.10307149999999865
                },
                {
                    "name": "F#6",
                    "midi": 90,
                    "time": 77.71591099999964,
                    "velocity": 0.5354330708661418,
                    "duration": 0.10307149999999865
                },
                {
                    "name": "D#5",
                    "midi": 75,
                    "time": 77.92205399999963,
                    "velocity": 0.5275590551181102,
                    "duration": 0.10307149999999865
                },
                {
                    "name": "B5",
                    "midi": 83,
                    "time": 77.92205399999963,
                    "velocity": 0.5275590551181102,
                    "duration": 0.10307149999999865
                },
                {
                    "name": "D#6",
                    "midi": 87,
                    "time": 77.92205399999963,
                    "velocity": 0.6220472440944882,
                    "duration": 0.10307149999999865
                },
                {
                    "name": "B5",
                    "midi": 83,
                    "time": 78.33433999999963,
                    "velocity": 0.5669291338582677,
                    "duration": 0.10307149999999865
                },
                {
                    "name": "B4",
                    "midi": 71,
                    "time": 78.33433999999963,
                    "velocity": 0.48031496062992124,
                    "duration": 0.10307149999999865
                },
                {
                    "name": "G5",
                    "midi": 79,
                    "time": 78.54048299999963,
                    "velocity": 0.6220472440944882,
                    "duration": 0.10307149999999865
                },
                {
                    "name": "G4",
                    "midi": 67,
                    "time": 78.54048299999963,
                    "velocity": 0.5275590551181102,
                    "duration": 0.10307149999999865
                },
                {
                    "name": "E5",
                    "midi": 76,
                    "time": 78.95276899999962,
                    "velocity": 0.5039370078740157,
                    "duration": 0.10307149999999865
                },
                {
                    "name": "E4",
                    "midi": 64,
                    "time": 78.95276899999962,
                    "velocity": 0.5039370078740157,
                    "duration": 0.10307149999999865
                },
                {
                    "name": "C5",
                    "midi": 72,
                    "time": 79.15891199999962,
                    "velocity": 0.5433070866141733,
                    "duration": 0.10307149999999865
                },
                {
                    "name": "A4",
                    "midi": 69,
                    "time": 79.57119799999961,
                    "velocity": 0.4094488188976378,
                    "duration": 0.10307149999999865
                },
                {
                    "name": "F#4",
                    "midi": 66,
                    "time": 79.77734099999961,
                    "velocity": 0.4566929133858268,
                    "duration": 0.10307149999999865
                },
                {
                    "name": "D#4",
                    "midi": 63,
                    "time": 80.1896269999996,
                    "velocity": 0.33858267716535434,
                    "duration": 0.10307149999999865
                },
                {
                    "name": "B3",
                    "midi": 59,
                    "time": 80.3957699999996,
                    "velocity": 0.3543307086614173,
                    "duration": 0.10307149999999865
                },
                {
                    "name": "G3",
                    "midi": 55,
                    "time": 81.6326279999996,
                    "velocity": 0.28346456692913385,
                    "duration": 0.10307149999999865
                },
                {
                    "name": "E3",
                    "midi": 52,
                    "time": 82.8694859999996,
                    "velocity": 0.28346456692913385,
                    "duration": 0.10307149999999865
                },
                {
                    "name": "D6",
                    "midi": 86,
                    "time": 83.48791499999959,
                    "velocity": 0.29133858267716534,
                    "duration": 0.6184290000000061
                },
                {
                    "name": "B5",
                    "midi": 83,
                    "time": 83.48791499999959,
                    "velocity": 0.2440944881889764,
                    "duration": 0.6184290000000061
                },
                {
                    "name": "A5",
                    "midi": 81,
                    "time": 84.1063439999996,
                    "velocity": 0.28346456692913385,
                    "duration": 0.6098397083333396
                },
                {
                    "name": "C6",
                    "midi": 84,
                    "time": 84.1063439999996,
                    "velocity": 0.28346456692913385,
                    "duration": 0.6098397083333396
                },
                {
                    "name": "A5",
                    "midi": 81,
                    "time": 84.7247729999996,
                    "velocity": 0.29133858267716534,
                    "duration": 0.6184290000000061
                },
                {
                    "name": "F#5",
                    "midi": 78,
                    "time": 84.7247729999996,
                    "velocity": 0.2440944881889764,
                    "duration": 0.6184290000000061
                },
                {
                    "name": "B5",
                    "midi": 83,
                    "time": 85.34320199999961,
                    "velocity": 0.2755905511811024,
                    "duration": 0.10307149999999865
                },
                {
                    "name": "G5",
                    "midi": 79,
                    "time": 85.34320199999961,
                    "velocity": 0.2283464566929134,
                    "duration": 0.10307149999999865
                },
                {
                    "name": "E5",
                    "midi": 76,
                    "time": 85.5493449999996,
                    "velocity": 0.2047244094488189,
                    "duration": 0.10307149999999865
                },
                {
                    "name": "G5",
                    "midi": 79,
                    "time": 85.5493449999996,
                    "velocity": 0.2440944881889764,
                    "duration": 0.10307149999999865
                },
                {
                    "name": "F#5",
                    "midi": 78,
                    "time": 85.7554879999996,
                    "velocity": 0.2125984251968504,
                    "duration": 0.10307149999999865
                },
                {
                    "name": "A5",
                    "midi": 81,
                    "time": 85.7554879999996,
                    "velocity": 0.2755905511811024,
                    "duration": 0.10307149999999865
                },
                {
                    "name": "F#5",
                    "midi": 78,
                    "time": 85.9616309999996,
                    "velocity": 0.2440944881889764,
                    "duration": 0.10307149999999865
                },
                {
                    "name": "D#5",
                    "midi": 75,
                    "time": 85.9616309999996,
                    "velocity": 0.2047244094488189,
                    "duration": 0.10307149999999865
                },
                {
                    "name": "E5",
                    "midi": 76,
                    "time": 86.1677739999996,
                    "velocity": 0.2283464566929134,
                    "duration": 0.10307149999999865
                },
                {
                    "name": "G5",
                    "midi": 79,
                    "time": 86.1677739999996,
                    "velocity": 0.2755905511811024,
                    "duration": 0.10307149999999865
                },
                {
                    "name": "E5",
                    "midi": 76,
                    "time": 86.3739169999996,
                    "velocity": 0.25196850393700787,
                    "duration": 0.10307149999999865
                },
                {
                    "name": "C#5",
                    "midi": 73,
                    "time": 86.3739169999996,
                    "velocity": 0.2125984251968504,
                    "duration": 0.10307149999999865
                },
                {
                    "name": "F#5",
                    "midi": 78,
                    "time": 86.58005999999959,
                    "velocity": 0.2755905511811024,
                    "duration": 0.10307149999999865
                },
                {
                    "name": "D#5",
                    "midi": 75,
                    "time": 86.58005999999959,
                    "velocity": 0.2283464566929134,
                    "duration": 0.10307149999999865
                },
                {
                    "name": "F#5",
                    "midi": 78,
                    "time": 86.99234599999959,
                    "velocity": 0.2677165354330709,
                    "duration": 0.10307149999999865
                },
                {
                    "name": "D#5",
                    "midi": 75,
                    "time": 86.99234599999959,
                    "velocity": 0.2283464566929134,
                    "duration": 0.10307149999999865
                },
                {
                    "name": "B4",
                    "midi": 71,
                    "time": 87.19848899999958,
                    "velocity": 0.2677165354330709,
                    "duration": 0.8245720000000034
                },
                {
                    "name": "A#4",
                    "midi": 70,
                    "time": 88.02306099999959,
                    "velocity": 0.2047244094488189,
                    "duration": 0.10307149999999865
                },
                {
                    "name": "C#5",
                    "midi": 73,
                    "time": 88.02306099999959,
                    "velocity": 0.2440944881889764,
                    "duration": 0.10307149999999865
                },
                {
                    "name": "B4",
                    "midi": 71,
                    "time": 88.22920399999958,
                    "velocity": 0.2125984251968504,
                    "duration": 0.10307149999999865
                },
                {
                    "name": "D#5",
                    "midi": 75,
                    "time": 88.22920399999958,
                    "velocity": 0.25196850393700787,
                    "duration": 0.10307149999999865
                },
                {
                    "name": "C#5",
                    "midi": 73,
                    "time": 88.43534699999958,
                    "velocity": 0.2204724409448819,
                    "duration": 0.10307149999999865
                },
                {
                    "name": "E5",
                    "midi": 76,
                    "time": 88.43534699999958,
                    "velocity": 0.25984251968503935,
                    "duration": 0.10307149999999865
                },
                {
                    "name": "D#5",
                    "midi": 75,
                    "time": 88.64148999999958,
                    "velocity": 0.2204724409448819,
                    "duration": 0.10307149999999865
                },
                {
                    "name": "F#5",
                    "midi": 78,
                    "time": 88.64148999999958,
                    "velocity": 0.25984251968503935,
                    "duration": 0.10307149999999865
                },
                {
                    "name": "E5",
                    "midi": 76,
                    "time": 88.84763299999958,
                    "velocity": 0.2283464566929134,
                    "duration": 0.10307149999999865
                },
                {
                    "name": "G5",
                    "midi": 79,
                    "time": 88.84763299999958,
                    "velocity": 0.2677165354330709,
                    "duration": 0.10307149999999865
                },
                {
                    "name": "D#5",
                    "midi": 75,
                    "time": 89.05377599999957,
                    "velocity": 0.2283464566929134,
                    "duration": 0.10307149999999865
                },
                {
                    "name": "F#5",
                    "midi": 78,
                    "time": 89.05377599999957,
                    "velocity": 0.2755905511811024,
                    "duration": 0.10307149999999865
                },
                {
                    "name": "B5",
                    "midi": 83,
                    "time": 89.46606199999957,
                    "velocity": 0.2677165354330709,
                    "duration": 0.10307149999999865
                },
                {
                    "name": "B4",
                    "midi": 71,
                    "time": 89.67220499999956,
                    "velocity": 0.2677165354330709,
                    "duration": 0.8245720000000034
                },
                {
                    "name": "A#4",
                    "midi": 70,
                    "time": 90.49677699999957,
                    "velocity": 0.2047244094488189,
                    "duration": 0.10307149999999865
                },
                {
                    "name": "C#5",
                    "midi": 73,
                    "time": 90.49677699999957,
                    "velocity": 0.2440944881889764,
                    "duration": 0.10307149999999865
                },
                {
                    "name": "B4",
                    "midi": 71,
                    "time": 90.70291999999957,
                    "velocity": 0.2125984251968504,
                    "duration": 0.10307149999999865
                },
                {
                    "name": "D#5",
                    "midi": 75,
                    "time": 90.70291999999957,
                    "velocity": 0.25196850393700787,
                    "duration": 0.10307149999999865
                },
                {
                    "name": "C#5",
                    "midi": 73,
                    "time": 90.90906299999956,
                    "velocity": 0.2204724409448819,
                    "duration": 0.10307149999999865
                },
                {
                    "name": "E5",
                    "midi": 76,
                    "time": 90.90906299999956,
                    "velocity": 0.25984251968503935,
                    "duration": 0.10307149999999865
                },
                {
                    "name": "D#5",
                    "midi": 75,
                    "time": 91.11520599999956,
                    "velocity": 0.2204724409448819,
                    "duration": 0.10307149999999865
                },
                {
                    "name": "F#5",
                    "midi": 78,
                    "time": 91.11520599999956,
                    "velocity": 0.25984251968503935,
                    "duration": 0.10307149999999865
                },
                {
                    "name": "G5",
                    "midi": 79,
                    "time": 91.32134899999956,
                    "velocity": 0.2677165354330709,
                    "duration": 0.10307149999999865
                },
                {
                    "name": "E5",
                    "midi": 76,
                    "time": 91.32134899999956,
                    "velocity": 0.2283464566929134,
                    "duration": 0.10307149999999865
                },
                {
                    "name": "A#4",
                    "midi": 70,
                    "time": 91.47595624999956,
                    "velocity": 0.2283464566929134,
                    "duration": 0.15460724999999798
                },
                {
                    "name": "C#5",
                    "midi": 73,
                    "time": 91.50172412499955,
                    "velocity": 0.2283464566929134,
                    "duration": 0.1288393749999983
                },
                {
                    "name": "F#5",
                    "midi": 78,
                    "time": 91.52749199999955,
                    "velocity": 0.2755905511811024,
                    "duration": 0.10307149999999865
                },
                {
                    "name": "C#6",
                    "midi": 85,
                    "time": 91.93977799999955,
                    "velocity": 0.2677165354330709,
                    "duration": 0.10307149999999865
                },
                {
                    "name": "F#5",
                    "midi": 78,
                    "time": 92.14592099999955,
                    "velocity": 0.2677165354330709,
                    "duration": 0.6184290000000061
                },
                {
                    "name": "A#5",
                    "midi": 82,
                    "time": 92.14592099999955,
                    "velocity": 0.2677165354330709,
                    "duration": 0.6184290000000061
                },
                {
                    "name": "F#6",
                    "midi": 90,
                    "time": 92.14592099999955,
                    "velocity": 0.3228346456692913,
                    "duration": 0.6184290000000061
                },
                {
                    "name": "F#4",
                    "midi": 66,
                    "time": 92.76434999999955,
                    "velocity": 0.23622047244094488,
                    "duration": 0.10307149999999865
                },
                {
                    "name": "A#4",
                    "midi": 70,
                    "time": 92.76434999999955,
                    "velocity": 0.2755905511811024,
                    "duration": 0.10307149999999865
                },
                {
                    "name": "C#6",
                    "midi": 85,
                    "time": 93.17663599999955,
                    "velocity": 0.25196850393700787,
                    "duration": 0.10307149999999865
                },
                {
                    "name": "F#6",
                    "midi": 90,
                    "time": 93.38277899999954,
                    "velocity": 0.2992125984251969,
                    "duration": 0.6184290000000061
                },
                {
                    "name": "A#5",
                    "midi": 82,
                    "time": 93.38277899999954,
                    "velocity": 0.2440944881889764,
                    "duration": 0.6184290000000061
                },
                {
                    "name": "F#5",
                    "midi": 78,
                    "time": 93.38277899999954,
                    "velocity": 0.2440944881889764,
                    "duration": 0.6184290000000061
                },
                {
                    "name": "F#4",
                    "midi": 66,
                    "time": 94.00120799999955,
                    "velocity": 0.2047244094488189,
                    "duration": 0.10307149999999865
                },
                {
                    "name": "A#4",
                    "midi": 70,
                    "time": 94.00120799999955,
                    "velocity": 0.23622047244094488,
                    "duration": 0.10307149999999865
                },
                {
                    "name": "C#6",
                    "midi": 85,
                    "time": 94.41349399999955,
                    "velocity": 0.2204724409448819,
                    "duration": 0.10307149999999865
                },
                {
                    "name": "F#5",
                    "midi": 78,
                    "time": 94.61963699999954,
                    "velocity": 0.2125984251968504,
                    "duration": 1.8552870000000041
                },
                {
                    "name": "A#5",
                    "midi": 82,
                    "time": 94.61963699999954,
                    "velocity": 0.2125984251968504,
                    "duration": 1.8552870000000041
                },
                {
                    "name": "F#6",
                    "midi": 90,
                    "time": 94.61963699999954,
                    "velocity": 0.25984251968503935,
                    "duration": 1.8552870000000041
                },
                {
                    "name": "C#4",
                    "midi": 61,
                    "time": 96.68106699999954,
                    "velocity": 0.4881889763779528,
                    "duration": 0.10307149999999865
                },
                {
                    "name": "C#5",
                    "midi": 73,
                    "time": 96.68106699999954,
                    "velocity": 0.5748031496062992,
                    "duration": 0.10307149999999865
                },
                {
                    "name": "D#4",
                    "midi": 63,
                    "time": 96.88720999999954,
                    "velocity": 0.5039370078740157,
                    "duration": 0.10307149999999865
                },
                {
                    "name": "D#5",
                    "midi": 75,
                    "time": 96.88720999999954,
                    "velocity": 0.5984251968503937,
                    "duration": 0.10307149999999865
                },
                {
                    "name": "F5",
                    "midi": 77,
                    "time": 97.09335299999954,
                    "velocity": 0.6220472440944882,
                    "duration": 0.10307149999999865
                },
                {
                    "name": "F4",
                    "midi": 65,
                    "time": 97.09335299999954,
                    "velocity": 0.5275590551181102,
                    "duration": 0.10307149999999865
                },
                {
                    "name": "F#4",
                    "midi": 66,
                    "time": 97.29949599999954,
                    "velocity": 0.5433070866141733,
                    "duration": 0.10307149999999865
                },
                {
                    "name": "F#5",
                    "midi": 78,
                    "time": 97.29949599999954,
                    "velocity": 0.6456692913385826,
                    "duration": 0.10307149999999865
                },
                {
                    "name": "G#5",
                    "midi": 80,
                    "time": 97.50563899999953,
                    "velocity": 0.6692913385826772,
                    "duration": 0.10307149999999865
                },
                {
                    "name": "G#4",
                    "midi": 68,
                    "time": 97.50563899999953,
                    "velocity": 0.6692913385826772,
                    "duration": 0.10307149999999865
                },
                {
                    "name": "A#5",
                    "midi": 82,
                    "time": 97.71178199999953,
                    "velocity": 0.6929133858267716,
                    "duration": 0.10307149999999865
                },
                {
                    "name": "A#4",
                    "midi": 70,
                    "time": 97.71178199999953,
                    "velocity": 0.5826771653543307,
                    "duration": 0.10307149999999865
                },
                {
                    "name": "C#5",
                    "midi": 73,
                    "time": 97.71178199999953,
                    "velocity": 0.5826771653543307,
                    "duration": 0.10307149999999865
                },
                {
                    "name": "F#5",
                    "midi": 78,
                    "time": 97.71178199999953,
                    "velocity": 0.5826771653543307,
                    "duration": 0.10307149999999865
                },
                {
                    "name": "C#5",
                    "midi": 73,
                    "time": 98.12406799999953,
                    "velocity": 0.5826771653543307,
                    "duration": 0.10307149999999865
                },
                {
                    "name": "C#6",
                    "midi": 85,
                    "time": 98.12406799999953,
                    "velocity": 0.6929133858267716,
                    "duration": 0.10307149999999865
                },
                {
                    "name": "F#5",
                    "midi": 78,
                    "time": 98.33021099999952,
                    "velocity": 0.6299212598425197,
                    "duration": 0.10307149999999865
                },
                {
                    "name": "F#6",
                    "midi": 90,
                    "time": 98.33021099999952,
                    "velocity": 0.7480314960629921,
                    "duration": 0.10307149999999865
                },
                {
                    "name": "B3",
                    "midi": 59,
                    "time": 98.94863999999951,
                    "velocity": 0.6850393700787402,
                    "duration": 0.2061429999999973
                },
                {
                    "name": "C#6",
                    "midi": 85,
                    "time": 99.5670689999995,
                    "velocity": 0.5669291338582677,
                    "duration": 0.6184290000000061
                },
                {
                    "name": "C#7",
                    "midi": 97,
                    "time": 99.5670689999995,
                    "velocity": 0.6771653543307087,
                    "duration": 0.6184290000000061
                },
                {
                    "name": "A6",
                    "midi": 93,
                    "time": 99.5670689999995,
                    "velocity": 0.5669291338582677,
                    "duration": 0.6184290000000061
                },
                {
                    "name": "B6",
                    "midi": 95,
                    "time": 100.18549799999951,
                    "velocity": 0.6535433070866141,
                    "duration": 0.6184290000000061
                },
                {
                    "name": "B5",
                    "midi": 83,
                    "time": 100.18549799999951,
                    "velocity": 0.5590551181102362,
                    "duration": 0.6184290000000061
                },
                {
                    "name": "G#6",
                    "midi": 92,
                    "time": 100.18549799999951,
                    "velocity": 0.6535433070866141,
                    "duration": 0.6184290000000061
                },
                {
                    "name": "G#6",
                    "midi": 92,
                    "time": 100.80392699999952,
                    "velocity": 0.6771653543307087,
                    "duration": 0.6184290000000061
                },
                {
                    "name": "E6",
                    "midi": 88,
                    "time": 100.80392699999952,
                    "velocity": 0.5669291338582677,
                    "duration": 0.6184290000000061
                },
                {
                    "name": "G#5",
                    "midi": 80,
                    "time": 100.80392699999952,
                    "velocity": 0.5669291338582677,
                    "duration": 0.6184290000000061
                },
                {
                    "name": "A5",
                    "midi": 81,
                    "time": 101.42235599999952,
                    "velocity": 0.5039370078740157,
                    "duration": 0.10307149999999865
                },
                {
                    "name": "F#6",
                    "midi": 90,
                    "time": 101.42235599999952,
                    "velocity": 0.5039370078740157,
                    "duration": 0.10307149999999865
                },
                {
                    "name": "A6",
                    "midi": 93,
                    "time": 101.42235599999952,
                    "velocity": 0.6062992125984252,
                    "duration": 0.10307149999999865
                },
                {
                    "name": "D#6",
                    "midi": 87,
                    "time": 101.62849899999952,
                    "velocity": 0.44881889763779526,
                    "duration": 0.10307149999999865
                },
                {
                    "name": "F#6",
                    "midi": 90,
                    "time": 101.62849899999952,
                    "velocity": 0.5354330708661418,
                    "duration": 0.10307149999999865
                },
                {
                    "name": "F#5",
                    "midi": 78,
                    "time": 101.62849899999952,
                    "velocity": 0.44881889763779526,
                    "duration": 0.10307149999999865
                },
                {
                    "name": "G#5",
                    "midi": 80,
                    "time": 101.83464199999952,
                    "velocity": 0.47244094488188976,
                    "duration": 0.10307149999999865
                },
                {
                    "name": "G#6",
                    "midi": 92,
                    "time": 101.83464199999952,
                    "velocity": 0.6062992125984252,
                    "duration": 0.10307149999999865
                },
                {
                    "name": "E6",
                    "midi": 88,
                    "time": 101.83464199999952,
                    "velocity": 0.4645669291338583,
                    "duration": 0.10307149999999865
                },
                {
                    "name": "E5",
                    "midi": 76,
                    "time": 102.04078499999952,
                    "velocity": 0.4566929133858268,
                    "duration": 0.10307149999999865
                },
                {
                    "name": "C#6",
                    "midi": 85,
                    "time": 102.04078499999952,
                    "velocity": 0.4566929133858268,
                    "duration": 0.10307149999999865
                },
                {
                    "name": "E6",
                    "midi": 88,
                    "time": 102.04078499999952,
                    "velocity": 0.5433070866141733,
                    "duration": 0.10307149999999865
                },
                {
                    "name": "D#6",
                    "midi": 87,
                    "time": 102.24692799999951,
                    "velocity": 0.5039370078740157,
                    "duration": 0.10307149999999865
                },
                {
                    "name": "F#6",
                    "midi": 90,
                    "time": 102.24692799999951,
                    "velocity": 0.6062992125984252,
                    "duration": 0.10307149999999865
                },
                {
                    "name": "F#5",
                    "midi": 78,
                    "time": 102.24692799999951,
                    "velocity": 0.5039370078740157,
                    "duration": 0.10307149999999865
                },
                {
                    "name": "D#5",
                    "midi": 75,
                    "time": 102.45307099999951,
                    "velocity": 0.4645669291338583,
                    "duration": 0.10307149999999865
                },
                {
                    "name": "B5",
                    "midi": 83,
                    "time": 102.45307099999951,
                    "velocity": 0.4645669291338583,
                    "duration": 0.10307149999999865
                },
                {
                    "name": "D#6",
                    "midi": 87,
                    "time": 102.45307099999951,
                    "velocity": 0.5511811023622047,
                    "duration": 0.10307149999999865
                },
                {
                    "name": "C#6",
                    "midi": 85,
                    "time": 102.65921399999951,
                    "velocity": 0.5039370078740157,
                    "duration": 0.10307149999999865
                },
                {
                    "name": "E6",
                    "midi": 88,
                    "time": 102.65921399999951,
                    "velocity": 0.6062992125984252,
                    "duration": 0.10307149999999865
                },
                {
                    "name": "E5",
                    "midi": 76,
                    "time": 102.65921399999951,
                    "velocity": 0.5039370078740157,
                    "duration": 0.10307149999999865
                },
                {
                    "name": "E6",
                    "midi": 88,
                    "time": 103.0714999999995,
                    "velocity": 0.5905511811023622,
                    "duration": 0.10307149999999865
                },
                {
                    "name": "C#6",
                    "midi": 85,
                    "time": 103.0714999999995,
                    "velocity": 0.49606299212598426,
                    "duration": 0.10307149999999865
                },
                {
                    "name": "E5",
                    "midi": 76,
                    "time": 103.0714999999995,
                    "velocity": 0.49606299212598426,
                    "duration": 0.10307149999999865
                },
                {
                    "name": "C#5",
                    "midi": 73,
                    "time": 103.2776429999995,
                    "velocity": 0.5039370078740157,
                    "duration": 0.6184290000000061
                },
                {
                    "name": "A5",
                    "midi": 81,
                    "time": 103.2776429999995,
                    "velocity": 0.5039370078740157,
                    "duration": 0.6184290000000061
                },
                {
                    "name": "C#6",
                    "midi": 85,
                    "time": 103.2776429999995,
                    "velocity": 0.6062992125984252,
                    "duration": 0.6184290000000061
                },
                {
                    "name": "B4",
                    "midi": 71,
                    "time": 104.1022149999995,
                    "velocity": 0.3700787401574803,
                    "duration": 0.10307149999999865
                },
                {
                    "name": "B5",
                    "midi": 83,
                    "time": 104.1022149999995,
                    "velocity": 0.4409448818897638,
                    "duration": 0.10307149999999865
                },
                {
                    "name": "D#5",
                    "midi": 75,
                    "time": 104.3083579999995,
                    "velocity": 0.3858267716535433,
                    "duration": 0.10307149999999865
                },
                {
                    "name": "D#6",
                    "midi": 87,
                    "time": 104.3083579999995,
                    "velocity": 0.4566929133858268,
                    "duration": 0.10307149999999865
                },
                {
                    "name": "E6",
                    "midi": 88,
                    "time": 104.5145009999995,
                    "velocity": 0.47244094488188976,
                    "duration": 0.10307149999999865
                },
                {
                    "name": "E5",
                    "midi": 76,
                    "time": 104.5145009999995,
                    "velocity": 0.4015748031496063,
                    "duration": 0.10307149999999865
                },
                {
                    "name": "F#5",
                    "midi": 78,
                    "time": 104.7206439999995,
                    "velocity": 0.4094488188976378,
                    "duration": 0.10307149999999865
                },
                {
                    "name": "F#6",
                    "midi": 90,
                    "time": 104.7206439999995,
                    "velocity": 0.4881889763779528,
                    "duration": 0.10307149999999865
                },
                {
                    "name": "G#6",
                    "midi": 92,
                    "time": 104.92678699999949,
                    "velocity": 0.5039370078740157,
                    "duration": 0.10307149999999865
                },
                {
                    "name": "G#5",
                    "midi": 80,
                    "time": 104.92678699999949,
                    "velocity": 0.4251968503937008,
                    "duration": 0.10307149999999865
                },
                {
                    "name": "B5",
                    "midi": 83,
                    "time": 105.08139424999949,
                    "velocity": 0.47244094488188976,
                    "duration": 0.15460724999999798
                },
                {
                    "name": "E6",
                    "midi": 88,
                    "time": 105.10716212499949,
                    "velocity": 0.47244094488188976,
                    "duration": 0.1288393749999983
                },
                {
                    "name": "B6",
                    "midi": 95,
                    "time": 105.13292999999949,
                    "velocity": 0.5511811023622047,
                    "duration": 0.10307149999999865
                },
                {
                    "name": "A5",
                    "midi": 81,
                    "time": 105.54521599999948,
                    "velocity": 0.3858267716535433,
                    "duration": 0.10307149999999865
                },
                {
                    "name": "A6",
                    "midi": 93,
                    "time": 105.54521599999948,
                    "velocity": 0.4566929133858268,
                    "duration": 0.10307149999999865
                },
                {
                    "name": "E6",
                    "midi": 88,
                    "time": 105.75135899999948,
                    "velocity": 0.44881889763779526,
                    "duration": 0.6184290000000061
                },
                {
                    "name": "E5",
                    "midi": 76,
                    "time": 105.75135899999948,
                    "velocity": 0.3779527559055118,
                    "duration": 0.6184290000000061
                },
                {
                    "name": "C#6",
                    "midi": 85,
                    "time": 106.57593099999949,
                    "velocity": 0.4566929133858268,
                    "duration": 0.10307149999999865
                },
                {
                    "name": "C#5",
                    "midi": 73,
                    "time": 106.57593099999949,
                    "velocity": 0.3779527559055118,
                    "duration": 0.10307149999999865
                },
                {
                    "name": "D#5",
                    "midi": 75,
                    "time": 106.78207399999948,
                    "velocity": 0.41732283464566927,
                    "duration": 0.10307149999999865
                },
                {
                    "name": "D#6",
                    "midi": 87,
                    "time": 106.78207399999948,
                    "velocity": 0.49606299212598426,
                    "duration": 0.10307149999999865
                },
                {
                    "name": "E5",
                    "midi": 76,
                    "time": 106.98821699999948,
                    "velocity": 0.44881889763779526,
                    "duration": 0.10307149999999865
                },
                {
                    "name": "E6",
                    "midi": 88,
                    "time": 106.98821699999948,
                    "velocity": 0.5275590551181102,
                    "duration": 0.10307149999999865
                },
                {
                    "name": "F#6",
                    "midi": 90,
                    "time": 107.19435999999948,
                    "velocity": 0.5748031496062992,
                    "duration": 0.10307149999999865
                },
                {
                    "name": "F#5",
                    "midi": 78,
                    "time": 107.19435999999948,
                    "velocity": 0.48031496062992124,
                    "duration": 0.10307149999999865
                },
                {
                    "name": "G#5",
                    "midi": 80,
                    "time": 107.40050299999947,
                    "velocity": 0.5118110236220472,
                    "duration": 0.10307149999999865
                },
                {
                    "name": "G#6",
                    "midi": 92,
                    "time": 107.40050299999947,
                    "velocity": 0.6141732283464567,
                    "duration": 0.10307149999999865
                },
                {
                    "name": "B5",
                    "midi": 83,
                    "time": 107.55511024999947,
                    "velocity": 0.5905511811023622,
                    "duration": 0.15460724999999798
                },
                {
                    "name": "D#6",
                    "midi": 87,
                    "time": 107.58087812499947,
                    "velocity": 0.5905511811023622,
                    "duration": 0.1288393749999983
                },
                {
                    "name": "B6",
                    "midi": 95,
                    "time": 107.60664599999947,
                    "velocity": 0.6850393700787402,
                    "duration": 0.10307149999999865
                },
                {
                    "name": "A6",
                    "midi": 93,
                    "time": 108.01893199999947,
                    "velocity": 0.5433070866141733,
                    "duration": 0.10307149999999865
                },
                {
                    "name": "A5",
                    "midi": 81,
                    "time": 108.01893199999947,
                    "velocity": 0.4566929133858268,
                    "duration": 0.10307149999999865
                },
                {
                    "name": "D#5",
                    "midi": 75,
                    "time": 108.22507499999946,
                    "velocity": 0.4409448818897638,
                    "duration": 0.6184290000000061
                },
                {
                    "name": "D#6",
                    "midi": 87,
                    "time": 108.22507499999946,
                    "velocity": 0.5275590551181102,
                    "duration": 0.6184290000000061
                },
                {
                    "name": "E3",
                    "midi": 52,
                    "time": 108.84350399999947,
                    "velocity": 0.7165354330708661,
                    "duration": 0.2061429999999973
                },
                {
                    "name": "F6",
                    "midi": 89,
                    "time": 109.25578999999946,
                    "velocity": 0.6141732283464567,
                    "duration": 0.2061429999999973
                },
                {
                    "name": "F5",
                    "midi": 77,
                    "time": 109.25578999999946,
                    "velocity": 0.5039370078740157,
                    "duration": 0.2061429999999973
                },
                {
                    "name": "D6",
                    "midi": 86,
                    "time": 109.25578999999946,
                    "velocity": 0.5039370078740157,
                    "duration": 0.2061429999999973
                },
                {
                    "name": "E6",
                    "midi": 88,
                    "time": 109.46193299999946,
                    "velocity": 0.5905511811023622,
                    "duration": 0.4122859999999946
                },
                {
                    "name": "E5",
                    "midi": 76,
                    "time": 109.46193299999946,
                    "velocity": 0.5905511811023622,
                    "duration": 0.4122859999999946
                },
                {
                    "name": "C6",
                    "midi": 84,
                    "time": 109.46193299999946,
                    "velocity": 0.5905511811023622,
                    "duration": 0.4122859999999946
                },
                {
                    "name": "A5",
                    "midi": 81,
                    "time": 109.87421899999946,
                    "velocity": 0.5039370078740157,
                    "duration": 0.2061429999999973
                },
                {
                    "name": "C5",
                    "midi": 72,
                    "time": 109.87421899999946,
                    "velocity": 0.5039370078740157,
                    "duration": 0.2061429999999973
                },
                {
                    "name": "C6",
                    "midi": 84,
                    "time": 109.87421899999946,
                    "velocity": 0.6141732283464567,
                    "duration": 0.2061429999999973
                },
                {
                    "name": "B5",
                    "midi": 83,
                    "time": 110.08036199999945,
                    "velocity": 0.4645669291338583,
                    "duration": 0.10307149999999865
                },
                {
                    "name": "D5",
                    "midi": 74,
                    "time": 110.08036199999945,
                    "velocity": 0.4645669291338583,
                    "duration": 0.10307149999999865
                },
                {
                    "name": "D6",
                    "midi": 86,
                    "time": 110.08036199999945,
                    "velocity": 0.5511811023622047,
                    "duration": 0.10307149999999865
                },
                {
                    "name": "B5",
                    "midi": 83,
                    "time": 110.28650499999945,
                    "velocity": 0.4881889763779528,
                    "duration": 0.10307149999999865
                },
                {
                    "name": "B4",
                    "midi": 71,
                    "time": 110.28650499999945,
                    "velocity": 0.4094488188976378,
                    "duration": 0.10307149999999865
                },
                {
                    "name": "G#5",
                    "midi": 80,
                    "time": 110.28650499999945,
                    "velocity": 0.4094488188976378,
                    "duration": 0.10307149999999865
                },
                {
                    "name": "C5",
                    "midi": 72,
                    "time": 110.49264799999945,
                    "velocity": 0.4330708661417323,
                    "duration": 0.10307149999999865
                },
                {
                    "name": "A5",
                    "midi": 81,
                    "time": 110.49264799999945,
                    "velocity": 0.4251968503937008,
                    "duration": 0.10307149999999865
                },
                {
                    "name": "C6",
                    "midi": 84,
                    "time": 110.49264799999945,
                    "velocity": 0.5511811023622047,
                    "duration": 0.10307149999999865
                },
                {
                    "name": "F#5",
                    "midi": 78,
                    "time": 110.69879099999945,
                    "velocity": 0.41732283464566927,
                    "duration": 0.10307149999999865
                },
                {
                    "name": "A4",
                    "midi": 69,
                    "time": 110.69879099999945,
                    "velocity": 0.41732283464566927,
                    "duration": 0.10307149999999865
                },
                {
                    "name": "A5",
                    "midi": 81,
                    "time": 110.69879099999945,
                    "velocity": 0.49606299212598426,
                    "duration": 0.10307149999999865
                },
                {
                    "name": "B4",
                    "midi": 71,
                    "time": 110.90493399999944,
                    "velocity": 0.4645669291338583,
                    "duration": 0.10307149999999865
                },
                {
                    "name": "B5",
                    "midi": 83,
                    "time": 110.90493399999944,
                    "velocity": 0.5511811023622047,
                    "duration": 0.10307149999999865
                },
                {
                    "name": "G#5",
                    "midi": 80,
                    "time": 110.90493399999944,
                    "velocity": 0.4645669291338583,
                    "duration": 0.10307149999999865
                },
                {
                    "name": "G#4",
                    "midi": 68,
                    "time": 111.11107699999944,
                    "velocity": 0.4251968503937008,
                    "duration": 0.10307149999999865
                },
                {
                    "name": "E5",
                    "midi": 76,
                    "time": 111.11107699999944,
                    "velocity": 0.4251968503937008,
                    "duration": 0.10307149999999865
                },
                {
                    "name": "G#5",
                    "midi": 80,
                    "time": 111.11107699999944,
                    "velocity": 0.5039370078740157,
                    "duration": 0.10307149999999865
                },
                {
                    "name": "A#5",
                    "midi": 82,
                    "time": 111.31721999999944,
                    "velocity": 0.5511811023622047,
                    "duration": 0.10307149999999865
                },
                {
                    "name": "A#4",
                    "midi": 70,
                    "time": 111.31721999999944,
                    "velocity": 0.4645669291338583,
                    "duration": 0.10307149999999865
                },
                {
                    "name": "E5",
                    "midi": 76,
                    "time": 111.31721999999944,
                    "velocity": 0.4645669291338583,
                    "duration": 0.10307149999999865
                },
                {
                    "name": "G5",
                    "midi": 79,
                    "time": 111.72950599999943,
                    "velocity": 0.5039370078740157,
                    "duration": 0.2061429999999973
                },
                {
                    "name": "E6",
                    "midi": 88,
                    "time": 111.72950599999943,
                    "velocity": 0.5039370078740157,
                    "duration": 0.2061429999999973
                },
                {
                    "name": "G6",
                    "midi": 91,
                    "time": 111.72950599999943,
                    "velocity": 0.6141732283464567,
                    "duration": 0.2061429999999973
                },
                {
                    "name": "F#5",
                    "midi": 78,
                    "time": 111.93564899999943,
                    "velocity": 0.5905511811023622,
                    "duration": 0.4122859999999946
                },
                {
                    "name": "F#6",
                    "midi": 90,
                    "time": 111.93564899999943,
                    "velocity": 0.5905511811023622,
                    "duration": 0.4122859999999946
                },
                {
                    "name": "D#6",
                    "midi": 87,
                    "time": 111.93564899999943,
                    "velocity": 0.5905511811023622,
                    "duration": 0.4122859999999946
                },
                {
                    "name": "B5",
                    "midi": 83,
                    "time": 112.34793499999942,
                    "velocity": 0.5039370078740157,
                    "duration": 0.2061429999999973
                },
                {
                    "name": "D#5",
                    "midi": 75,
                    "time": 112.34793499999942,
                    "velocity": 0.5039370078740157,
                    "duration": 0.2061429999999973
                },
                {
                    "name": "D#6",
                    "midi": 87,
                    "time": 112.34793499999942,
                    "velocity": 0.6141732283464567,
                    "duration": 0.2061429999999973
                },
                {
                    "name": "E6",
                    "midi": 88,
                    "time": 112.55407799999942,
                    "velocity": 0.5511811023622047,
                    "duration": 0.10307149999999865
                },
                {
                    "name": "C#6",
                    "midi": 85,
                    "time": 112.55407799999942,
                    "velocity": 0.4645669291338583,
                    "duration": 0.10307149999999865
                },
                {
                    "name": "E5",
                    "midi": 76,
                    "time": 112.55407799999942,
                    "velocity": 0.4645669291338583,
                    "duration": 0.10307149999999865
                },
                {
                    "name": "C#5",
                    "midi": 73,
                    "time": 112.76022099999942,
                    "velocity": 0.4094488188976378,
                    "duration": 0.10307149999999865
                },
                {
                    "name": "A#5",
                    "midi": 82,
                    "time": 112.76022099999942,
                    "velocity": 0.4094488188976378,
                    "duration": 0.10307149999999865
                },
                {
                    "name": "C#6",
                    "midi": 85,
                    "time": 112.76022099999942,
                    "velocity": 0.4881889763779528,
                    "duration": 0.10307149999999865
                },
                {
                    "name": "B5",
                    "midi": 83,
                    "time": 112.96636399999942,
                    "velocity": 0.4251968503937008,
                    "duration": 0.10307149999999865
                },
                {
                    "name": "D#5",
                    "midi": 75,
                    "time": 112.96636399999942,
                    "velocity": 0.4330708661417323,
                    "duration": 0.10307149999999865
                },
                {
                    "name": "D#6",
                    "midi": 87,
                    "time": 112.96636399999942,
                    "velocity": 0.5511811023622047,
                    "duration": 0.10307149999999865
                },
                {
                    "name": "G#5",
                    "midi": 80,
                    "time": 113.17250699999941,
                    "velocity": 0.41732283464566927,
                    "duration": 0.10307149999999865
                },
                {
                    "name": "B5",
                    "midi": 83,
                    "time": 113.17250699999941,
                    "velocity": 0.49606299212598426,
                    "duration": 0.10307149999999865
                },
                {
                    "name": "B4",
                    "midi": 71,
                    "time": 113.17250699999941,
                    "velocity": 0.41732283464566927,
                    "duration": 0.10307149999999865
                },
                {
                    "name": "C5",
                    "midi": 72,
                    "time": 113.37864999999941,
                    "velocity": 0.4645669291338583,
                    "duration": 0.10307149999999865
                },
                {
                    "name": "C6",
                    "midi": 84,
                    "time": 113.37864999999941,
                    "velocity": 0.5511811023622047,
                    "duration": 0.10307149999999865
                },
                {
                    "name": "A5",
                    "midi": 81,
                    "time": 113.37864999999941,
                    "velocity": 0.4645669291338583,
                    "duration": 0.10307149999999865
                },
                {
                    "name": "A4",
                    "midi": 69,
                    "time": 113.58479299999941,
                    "velocity": 0.4251968503937008,
                    "duration": 0.10307149999999865
                },
                {
                    "name": "A5",
                    "midi": 81,
                    "time": 113.58479299999941,
                    "velocity": 0.5039370078740157,
                    "duration": 0.10307149999999865
                },
                {
                    "name": "F#5",
                    "midi": 78,
                    "time": 113.58479299999941,
                    "velocity": 0.4251968503937008,
                    "duration": 0.10307149999999865
                },
                {
                    "name": "B5",
                    "midi": 83,
                    "time": 113.7909359999994,
                    "velocity": 0.5511811023622047,
                    "duration": 0.10307149999999865
                },
                {
                    "name": "B4",
                    "midi": 71,
                    "time": 113.7909359999994,
                    "velocity": 0.4645669291338583,
                    "duration": 0.10307149999999865
                },
                {
                    "name": "F#5",
                    "midi": 78,
                    "time": 113.7909359999994,
                    "velocity": 0.4645669291338583,
                    "duration": 0.10307149999999865
                },
                {
                    "name": "C6",
                    "midi": 84,
                    "time": 114.2032219999994,
                    "velocity": 0.5039370078740157,
                    "duration": 0.2061429999999973
                },
                {
                    "name": "C7",
                    "midi": 96,
                    "time": 114.2032219999994,
                    "velocity": 0.6141732283464567,
                    "duration": 0.2061429999999973
                },
                {
                    "name": "A6",
                    "midi": 93,
                    "time": 114.2032219999994,
                    "velocity": 0.5039370078740157,
                    "duration": 0.2061429999999973
                },
                {
                    "name": "B6",
                    "midi": 95,
                    "time": 114.4093649999994,
                    "velocity": 0.5905511811023622,
                    "duration": 0.4122859999999946
                },
                {
                    "name": "B5",
                    "midi": 83,
                    "time": 114.4093649999994,
                    "velocity": 0.5905511811023622,
                    "duration": 0.4122859999999946
                },
                {
                    "name": "G6",
                    "midi": 91,
                    "time": 114.4093649999994,
                    "velocity": 0.5905511811023622,
                    "duration": 0.4122859999999946
                },
                {
                    "name": "G6",
                    "midi": 91,
                    "time": 114.82165099999939,
                    "velocity": 0.6141732283464567,
                    "duration": 0.2061429999999973
                },
                {
                    "name": "G5",
                    "midi": 79,
                    "time": 114.82165099999939,
                    "velocity": 0.5039370078740157,
                    "duration": 0.2061429999999973
                },
                {
                    "name": "E6",
                    "midi": 88,
                    "time": 114.82165099999939,
                    "velocity": 0.5039370078740157,
                    "duration": 0.2061429999999973
                },
                {
                    "name": "A6",
                    "midi": 93,
                    "time": 115.02779399999939,
                    "velocity": 0.5511811023622047,
                    "duration": 0.10307149999999865
                },
                {
                    "name": "F#6",
                    "midi": 90,
                    "time": 115.02779399999939,
                    "velocity": 0.4645669291338583,
                    "duration": 0.10307149999999865
                },
                {
                    "name": "A5",
                    "midi": 81,
                    "time": 115.02779399999939,
                    "velocity": 0.4645669291338583,
                    "duration": 0.10307149999999865
                },
                {
                    "name": "D#6",
                    "midi": 87,
                    "time": 115.23393699999939,
                    "velocity": 0.4094488188976378,
                    "duration": 0.10307149999999865
                },
                {
                    "name": "F#6",
                    "midi": 90,
                    "time": 115.23393699999939,
                    "velocity": 0.4881889763779528,
                    "duration": 0.10307149999999865
                },
                {
                    "name": "F#5",
                    "midi": 78,
                    "time": 115.23393699999939,
                    "velocity": 0.4094488188976378,
                    "duration": 0.10307149999999865
                },
                {
                    "name": "G5",
                    "midi": 79,
                    "time": 115.44007999999938,
                    "velocity": 0.4330708661417323,
                    "duration": 0.10307149999999865
                },
                {
                    "name": "G6",
                    "midi": 91,
                    "time": 115.44007999999938,
                    "velocity": 0.5511811023622047,
                    "duration": 0.10307149999999865
                },
                {
                    "name": "E6",
                    "midi": 88,
                    "time": 115.44007999999938,
                    "velocity": 0.4330708661417323,
                    "duration": 0.10307149999999865
                },
                {
                    "name": "E5",
                    "midi": 76,
                    "time": 115.64622299999938,
                    "velocity": 0.41732283464566927,
                    "duration": 0.10307149999999865
                },
                {
                    "name": "C6",
                    "midi": 84,
                    "time": 115.64622299999938,
                    "velocity": 0.41732283464566927,
                    "duration": 0.10307149999999865
                },
                {
                    "name": "E6",
                    "midi": 88,
                    "time": 115.64622299999938,
                    "velocity": 0.49606299212598426,
                    "duration": 0.10307149999999865
                },
                {
                    "name": "F#5",
                    "midi": 78,
                    "time": 115.85236599999938,
                    "velocity": 0.4645669291338583,
                    "duration": 0.10307149999999865
                },
                {
                    "name": "D6",
                    "midi": 86,
                    "time": 115.85236599999938,
                    "velocity": 0.4645669291338583,
                    "duration": 0.10307149999999865
                },
                {
                    "name": "F#6",
                    "midi": 90,
                    "time": 115.85236599999938,
                    "velocity": 0.5511811023622047,
                    "duration": 0.10307149999999865
                },
                {
                    "name": "D5",
                    "midi": 74,
                    "time": 116.05850899999938,
                    "velocity": 0.4251968503937008,
                    "duration": 0.10307149999999865
                },
                {
                    "name": "B5",
                    "midi": 83,
                    "time": 116.05850899999938,
                    "velocity": 0.4251968503937008,
                    "duration": 0.10307149999999865
                },
                {
                    "name": "D6",
                    "midi": 86,
                    "time": 116.05850899999938,
                    "velocity": 0.5039370078740157,
                    "duration": 0.10307149999999865
                },
                {
                    "name": "E5",
                    "midi": 76,
                    "time": 116.26465199999937,
                    "velocity": 0.4645669291338583,
                    "duration": 0.10307149999999865
                },
                {
                    "name": "E6",
                    "midi": 88,
                    "time": 116.26465199999937,
                    "velocity": 0.5511811023622047,
                    "duration": 0.10307149999999865
                },
                {
                    "name": "C6",
                    "midi": 84,
                    "time": 116.26465199999937,
                    "velocity": 0.4645669291338583,
                    "duration": 0.10307149999999865
                },
                {
                    "name": "C6",
                    "midi": 84,
                    "time": 116.47079499999937,
                    "velocity": 0.4881889763779528,
                    "duration": 0.10307149999999865
                },
                {
                    "name": "A5",
                    "midi": 81,
                    "time": 116.47079499999937,
                    "velocity": 0.4094488188976378,
                    "duration": 0.10307149999999865
                },
                {
                    "name": "C5",
                    "midi": 72,
                    "time": 116.47079499999937,
                    "velocity": 0.4094488188976378,
                    "duration": 0.10307149999999865
                },
                {
                    "name": "B5",
                    "midi": 83,
                    "time": 116.67693799999937,
                    "velocity": 0.4330708661417323,
                    "duration": 0.10307149999999865
                },
                {
                    "name": "D6",
                    "midi": 86,
                    "time": 116.67693799999937,
                    "velocity": 0.5511811023622047,
                    "duration": 0.10307149999999865
                },
                {
                    "name": "D5",
                    "midi": 74,
                    "time": 116.67693799999937,
                    "velocity": 0.4330708661417323,
                    "duration": 0.10307149999999865
                },
                {
                    "name": "G5",
                    "midi": 79,
                    "time": 116.88308099999936,
                    "velocity": 0.41732283464566927,
                    "duration": 0.10307149999999865
                },
                {
                    "name": "B4",
                    "midi": 71,
                    "time": 116.88308099999936,
                    "velocity": 0.41732283464566927,
                    "duration": 0.10307149999999865
                },
                {
                    "name": "B5",
                    "midi": 83,
                    "time": 116.88308099999936,
                    "velocity": 0.49606299212598426,
                    "duration": 0.10307149999999865
                },
                {
                    "name": "C5",
                    "midi": 72,
                    "time": 117.08922399999936,
                    "velocity": 0.4645669291338583,
                    "duration": 0.10307149999999865
                },
                {
                    "name": "C6",
                    "midi": 84,
                    "time": 117.08922399999936,
                    "velocity": 0.5511811023622047,
                    "duration": 0.10307149999999865
                },
                {
                    "name": "A5",
                    "midi": 81,
                    "time": 117.08922399999936,
                    "velocity": 0.4645669291338583,
                    "duration": 0.10307149999999865
                },
                {
                    "name": "F#5",
                    "midi": 78,
                    "time": 117.29536699999936,
                    "velocity": 0.4251968503937008,
                    "duration": 0.10307149999999865
                },
                {
                    "name": "A5",
                    "midi": 81,
                    "time": 117.29536699999936,
                    "velocity": 0.5039370078740157,
                    "duration": 0.10307149999999865
                },
                {
                    "name": "A4",
                    "midi": 69,
                    "time": 117.29536699999936,
                    "velocity": 0.4251968503937008,
                    "duration": 0.10307149999999865
                },
                {
                    "name": "B5",
                    "midi": 83,
                    "time": 117.50150999999936,
                    "velocity": 0.5511811023622047,
                    "duration": 0.10307149999999865
                },
                {
                    "name": "G5",
                    "midi": 79,
                    "time": 117.50150999999936,
                    "velocity": 0.4645669291338583,
                    "duration": 0.10307149999999865
                },
                {
                    "name": "B4",
                    "midi": 71,
                    "time": 117.50150999999936,
                    "velocity": 0.4645669291338583,
                    "duration": 0.10307149999999865
                },
                {
                    "name": "G4",
                    "midi": 67,
                    "time": 117.70765299999935,
                    "velocity": 0.41732283464566927,
                    "duration": 0.10307149999999865
                },
                {
                    "name": "G5",
                    "midi": 79,
                    "time": 117.70765299999935,
                    "velocity": 0.49606299212598426,
                    "duration": 0.10307149999999865
                },
                {
                    "name": "E5",
                    "midi": 76,
                    "time": 117.70765299999935,
                    "velocity": 0.41732283464566927,
                    "duration": 0.10307149999999865
                },
                {
                    "name": "A4",
                    "midi": 69,
                    "time": 117.91379599999935,
                    "velocity": 0.44881889763779526,
                    "duration": 0.10307149999999865
                },
                {
                    "name": "F#5",
                    "midi": 78,
                    "time": 117.91379599999935,
                    "velocity": 0.44881889763779526,
                    "duration": 0.10307149999999865
                },
                {
                    "name": "A5",
                    "midi": 81,
                    "time": 117.91379599999935,
                    "velocity": 0.5748031496062992,
                    "duration": 0.10307149999999865
                },
                {
                    "name": "F#5",
                    "midi": 78,
                    "time": 118.11993899999935,
                    "velocity": 0.5354330708661418,
                    "duration": 0.10307149999999865
                },
                {
                    "name": "F#4",
                    "midi": 66,
                    "time": 118.11993899999935,
                    "velocity": 0.44881889763779526,
                    "duration": 0.10307149999999865
                },
                {
                    "name": "D#5",
                    "midi": 75,
                    "time": 118.11993899999935,
                    "velocity": 0.44881889763779526,
                    "duration": 0.10307149999999865
                },
                {
                    "name": "E5",
                    "midi": 76,
                    "time": 118.32608199999935,
                    "velocity": 0.5118110236220472,
                    "duration": 0.10307149999999865
                },
                {
                    "name": "G5",
                    "midi": 79,
                    "time": 118.32608199999935,
                    "velocity": 0.6062992125984252,
                    "duration": 0.10307149999999865
                },
                {
                    "name": "G4",
                    "midi": 67,
                    "time": 118.32608199999935,
                    "velocity": 0.5118110236220472,
                    "duration": 0.10307149999999865
                },
                {
                    "name": "E5",
                    "midi": 76,
                    "time": 118.53222499999934,
                    "velocity": 0.5669291338582677,
                    "duration": 0.10307149999999865
                },
                {
                    "name": "C5",
                    "midi": 72,
                    "time": 118.53222499999934,
                    "velocity": 0.48031496062992124,
                    "duration": 0.10307149999999865
                },
                {
                    "name": "E4",
                    "midi": 64,
                    "time": 118.53222499999934,
                    "velocity": 0.48031496062992124,
                    "duration": 0.10307149999999865
                },
                {
                    "name": "G#6",
                    "midi": 92,
                    "time": 118.73836799999934,
                    "velocity": 0.7086614173228346,
                    "duration": 0.3916717000000034
                },
                {
                    "name": "E6",
                    "midi": 88,
                    "time": 118.73836799999934,
                    "velocity": 0.5984251968503937,
                    "duration": 0.3916717000000034
                },
                {
                    "name": "G#5",
                    "midi": 80,
                    "time": 118.73836799999934,
                    "velocity": 0.5984251968503937,
                    "duration": 0.3916717000000034
                },
                {
                    "name": "G5",
                    "midi": 79,
                    "time": 119.15065399999935,
                    "velocity": 0.5984251968503937,
                    "duration": 0.3916717000000034
                },
                {
                    "name": "E6",
                    "midi": 88,
                    "time": 119.15065399999935,
                    "velocity": 0.5984251968503937,
                    "duration": 0.3916717000000034
                },
                {
                    "name": "G6",
                    "midi": 91,
                    "time": 119.15065399999935,
                    "velocity": 0.7086614173228346,
                    "duration": 0.3916717000000034
                },
                {
                    "name": "D#6",
                    "midi": 87,
                    "time": 119.56293999999936,
                    "velocity": 0.5984251968503937,
                    "duration": 0.3916717000000034
                },
                {
                    "name": "F#6",
                    "midi": 90,
                    "time": 119.56293999999936,
                    "velocity": 0.7086614173228346,
                    "duration": 0.3916717000000034
                },
                {
                    "name": "F#5",
                    "midi": 78,
                    "time": 119.56293999999936,
                    "velocity": 0.5984251968503937,
                    "duration": 0.3916717000000034
                },
                {
                    "name": "F5",
                    "midi": 77,
                    "time": 119.97522599999937,
                    "velocity": 0.5984251968503937,
                    "duration": 0.3916717000000034
                },
                {
                    "name": "F6",
                    "midi": 89,
                    "time": 119.97522599999937,
                    "velocity": 0.7086614173228346,
                    "duration": 0.3916717000000034
                },
                {
                    "name": "D6",
                    "midi": 86,
                    "time": 119.97522599999937,
                    "velocity": 0.5984251968503937,
                    "duration": 0.3916717000000034
                },
                {
                    "name": "C#6",
                    "midi": 85,
                    "time": 120.38751199999938,
                    "velocity": 0.5905511811023622,
                    "duration": 0.3916717000000034
                },
                {
                    "name": "E6",
                    "midi": 88,
                    "time": 120.38751199999938,
                    "velocity": 0.7007874015748031,
                    "duration": 0.3916717000000034
                },
                {
                    "name": "E5",
                    "midi": 76,
                    "time": 120.38751199999938,
                    "velocity": 0.5905511811023622,
                    "duration": 0.3916717000000034
                },
                {
                    "name": "D#6",
                    "midi": 87,
                    "time": 120.79979799999938,
                    "velocity": 0.6850393700787402,
                    "duration": 0.3916717000000034
                },
                {
                    "name": "D#5",
                    "midi": 75,
                    "time": 120.79979799999938,
                    "velocity": 0.5748031496062992,
                    "duration": 0.3916717000000034
                },
                {
                    "name": "C6",
                    "midi": 84,
                    "time": 120.79979799999938,
                    "velocity": 0.5748031496062992,
                    "duration": 0.3916717000000034
                },
                {
                    "name": "D6",
                    "midi": 86,
                    "time": 121.2120839999994,
                    "velocity": 0.6692913385826772,
                    "duration": 0.3916717000000034
                },
                {
                    "name": "D5",
                    "midi": 74,
                    "time": 121.2120839999994,
                    "velocity": 0.5669291338582677,
                    "duration": 0.3916717000000034
                },
                {
                    "name": "B5",
                    "midi": 83,
                    "time": 121.2120839999994,
                    "velocity": 0.5669291338582677,
                    "duration": 0.3916717000000034
                },
                {
                    "name": "C#5",
                    "midi": 73,
                    "time": 121.6243699999994,
                    "velocity": 0.5590551181102362,
                    "duration": 0.3916717000000034
                },
                {
                    "name": "C#6",
                    "midi": 85,
                    "time": 121.6243699999994,
                    "velocity": 0.6614173228346457,
                    "duration": 0.3916717000000034
                },
                {
                    "name": "A#5",
                    "midi": 82,
                    "time": 121.6243699999994,
                    "velocity": 0.5590551181102362,
                    "duration": 0.3916717000000034
                },
                {
                    "name": "C6",
                    "midi": 84,
                    "time": 122.03665599999941,
                    "velocity": 0.6456692913385826,
                    "duration": 0.3916717000000034
                },
                {
                    "name": "A5",
                    "midi": 81,
                    "time": 122.03665599999941,
                    "velocity": 0.5433070866141733,
                    "duration": 0.3916717000000034
                },
                {
                    "name": "C5",
                    "midi": 72,
                    "time": 122.03665599999941,
                    "velocity": 0.5433070866141733,
                    "duration": 0.3916717000000034
                },
                {
                    "name": "B4",
                    "midi": 71,
                    "time": 122.44894199999942,
                    "velocity": 0.5354330708661418,
                    "duration": 0.3916717000000034
                },
                {
                    "name": "G#5",
                    "midi": 80,
                    "time": 122.44894199999942,
                    "velocity": 0.5354330708661418,
                    "duration": 0.3916717000000034
                },
                {
                    "name": "B5",
                    "midi": 83,
                    "time": 122.44894199999942,
                    "velocity": 0.6377952755905512,
                    "duration": 0.3916717000000034
                },
                {
                    "name": "G5",
                    "midi": 79,
                    "time": 122.86122799999943,
                    "velocity": 0.5275590551181102,
                    "duration": 0.3143680750000044
                },
                {
                    "name": "B5",
                    "midi": 83,
                    "time": 122.86122799999943,
                    "velocity": 0.6299212598425197,
                    "duration": 0.3143680750000044
                },
                {
                    "name": "B4",
                    "midi": 71,
                    "time": 122.86122799999943,
                    "velocity": 0.5275590551181102,
                    "duration": 0.3143680750000044
                },
                {
                    "name": "B5",
                    "midi": 83,
                    "time": 123.27351399999944,
                    "velocity": 0.6141732283464567,
                    "duration": 0.3916717000000034
                },
                {
                    "name": "D#5",
                    "midi": 75,
                    "time": 123.27351399999944,
                    "velocity": 0.5196850393700787,
                    "duration": 0.3916717000000034
                },
                {
                    "name": "B4",
                    "midi": 71,
                    "time": 123.27351399999944,
                    "velocity": 0.5196850393700787,
                    "duration": 0.3916717000000034
                },
                {
                    "name": "F#5",
                    "midi": 78,
                    "time": 123.27351399999944,
                    "velocity": 0.5196850393700787,
                    "duration": 0.3916717000000034
                },
                {
                    "name": "E4",
                    "midi": 64,
                    "time": 123.68579999999945,
                    "velocity": 0.4645669291338583,
                    "duration": 0.10307149999999865
                },
                {
                    "name": "E5",
                    "midi": 76,
                    "time": 123.68579999999945,
                    "velocity": 0.5511811023622047,
                    "duration": 0.10307149999999865
                },
                {
                    "name": "D5",
                    "midi": 74,
                    "time": 123.89194299999944,
                    "velocity": 0.4881889763779528,
                    "duration": 0.10307149999999865
                },
                {
                    "name": "B4",
                    "midi": 71,
                    "time": 123.89194299999944,
                    "velocity": 0.4094488188976378,
                    "duration": 0.10307149999999865
                },
                {
                    "name": "E5",
                    "midi": 76,
                    "time": 124.09808599999944,
                    "velocity": 0.5511811023622047,
                    "duration": 0.10307149999999865
                },
                {
                    "name": "E4",
                    "midi": 64,
                    "time": 124.09808599999944,
                    "velocity": 0.4330708661417323,
                    "duration": 0.10307149999999865
                },
                {
                    "name": "A4",
                    "midi": 69,
                    "time": 124.30422899999944,
                    "velocity": 0.41732283464566927,
                    "duration": 0.10307149999999865
                },
                {
                    "name": "C5",
                    "midi": 72,
                    "time": 124.30422899999944,
                    "velocity": 0.49606299212598426,
                    "duration": 0.10307149999999865
                },
                {
                    "name": "E5",
                    "midi": 76,
                    "time": 124.51037199999944,
                    "velocity": 0.5511811023622047,
                    "duration": 0.10307149999999865
                },
                {
                    "name": "E4",
                    "midi": 64,
                    "time": 124.51037199999944,
                    "velocity": 0.4645669291338583,
                    "duration": 0.10307149999999865
                },
                {
                    "name": "B4",
                    "midi": 71,
                    "time": 124.71651499999943,
                    "velocity": 0.5039370078740157,
                    "duration": 0.10307149999999865
                },
                {
                    "name": "G4",
                    "midi": 67,
                    "time": 124.71651499999943,
                    "velocity": 0.4251968503937008,
                    "duration": 0.10307149999999865
                },
                {
                    "name": "E4",
                    "midi": 64,
                    "time": 124.92265799999943,
                    "velocity": 0.4645669291338583,
                    "duration": 0.10307149999999865
                },
                {
                    "name": "E5",
                    "midi": 76,
                    "time": 124.92265799999943,
                    "velocity": 0.5511811023622047,
                    "duration": 0.10307149999999865
                },
                {
                    "name": "A4",
                    "midi": 69,
                    "time": 125.12880099999943,
                    "velocity": 0.4881889763779528,
                    "duration": 0.10307149999999865
                },
                {
                    "name": "F#4",
                    "midi": 66,
                    "time": 125.12880099999943,
                    "velocity": 0.4094488188976378,
                    "duration": 0.10307149999999865
                },
                {
                    "name": "E5",
                    "midi": 76,
                    "time": 125.33494399999942,
                    "velocity": 0.5511811023622047,
                    "duration": 0.10307149999999865
                },
                {
                    "name": "E4",
                    "midi": 64,
                    "time": 125.33494399999942,
                    "velocity": 0.4330708661417323,
                    "duration": 0.10307149999999865
                },
                {
                    "name": "G4",
                    "midi": 67,
                    "time": 125.54108699999942,
                    "velocity": 0.49606299212598426,
                    "duration": 0.10307149999999865
                },
                {
                    "name": "E5",
                    "midi": 76,
                    "time": 125.74722999999942,
                    "velocity": 0.5511811023622047,
                    "duration": 0.10307149999999865
                },
                {
                    "name": "E4",
                    "midi": 64,
                    "time": 125.74722999999942,
                    "velocity": 0.4645669291338583,
                    "duration": 0.10307149999999865
                },
                {
                    "name": "D4",
                    "midi": 62,
                    "time": 125.95337299999942,
                    "velocity": 0.4251968503937008,
                    "duration": 0.10307149999999865
                },
                {
                    "name": "F#4",
                    "midi": 66,
                    "time": 125.95337299999942,
                    "velocity": 0.5039370078740157,
                    "duration": 0.10307149999999865
                },
                {
                    "name": "E4",
                    "midi": 64,
                    "time": 126.15951599999941,
                    "velocity": 0.4645669291338583,
                    "duration": 0.10307149999999865
                },
                {
                    "name": "E5",
                    "midi": 76,
                    "time": 126.15951599999941,
                    "velocity": 0.5511811023622047,
                    "duration": 0.10307149999999865
                },
                {
                    "name": "E4",
                    "midi": 64,
                    "time": 126.36565899999941,
                    "velocity": 0.48031496062992124,
                    "duration": 0.10307149999999865
                },
                {
                    "name": "C4",
                    "midi": 60,
                    "time": 126.36565899999941,
                    "velocity": 0.4015748031496063,
                    "duration": 0.10307149999999865
                },
                {
                    "name": "E5",
                    "midi": 76,
                    "time": 126.57180199999941,
                    "velocity": 0.5354330708661418,
                    "duration": 0.10307149999999865
                },
                {
                    "name": "E4",
                    "midi": 64,
                    "time": 126.57180199999941,
                    "velocity": 0.41732283464566927,
                    "duration": 0.10307149999999865
                },
                {
                    "name": "D4",
                    "midi": 62,
                    "time": 126.7779449999994,
                    "velocity": 0.48031496062992124,
                    "duration": 0.10307149999999865
                },
                {
                    "name": "B3",
                    "midi": 59,
                    "time": 126.7779449999994,
                    "velocity": 0.4015748031496063,
                    "duration": 0.10307149999999865
                },
                {
                    "name": "E5",
                    "midi": 76,
                    "time": 126.9840879999994,
                    "velocity": 0.5196850393700787,
                    "duration": 0.10307149999999865
                },
                {
                    "name": "E4",
                    "midi": 64,
                    "time": 126.9840879999994,
                    "velocity": 0.4409448818897638,
                    "duration": 0.10307149999999865
                },
                {
                    "name": "A3",
                    "midi": 57,
                    "time": 127.1902309999994,
                    "velocity": 0.3937007874015748,
                    "duration": 0.10307149999999865
                },
                {
                    "name": "C4",
                    "midi": 60,
                    "time": 127.1902309999994,
                    "velocity": 0.47244094488188976,
                    "duration": 0.10307149999999865
                },
                {
                    "name": "E4",
                    "midi": 64,
                    "time": 127.3963739999994,
                    "velocity": 0.4251968503937008,
                    "duration": 0.10307149999999865
                },
                {
                    "name": "E5",
                    "midi": 76,
                    "time": 127.3963739999994,
                    "velocity": 0.5118110236220472,
                    "duration": 0.10307149999999865
                },
                {
                    "name": "B3",
                    "midi": 59,
                    "time": 127.6025169999994,
                    "velocity": 0.44881889763779526,
                    "duration": 0.10307149999999865
                },
                {
                    "name": "G3",
                    "midi": 55,
                    "time": 127.6025169999994,
                    "velocity": 0.3700787401574803,
                    "duration": 0.10307149999999865
                },
                {
                    "name": "E4",
                    "midi": 64,
                    "time": 127.80865999999939,
                    "velocity": 0.3858267716535433,
                    "duration": 0.10307149999999865
                },
                {
                    "name": "E5",
                    "midi": 76,
                    "time": 127.80865999999939,
                    "velocity": 0.49606299212598426,
                    "duration": 0.10307149999999865
                },
                {
                    "name": "F#3",
                    "midi": 54,
                    "time": 128.0148029999994,
                    "velocity": 0.3700787401574803,
                    "duration": 0.10307149999999865
                },
                {
                    "name": "A3",
                    "midi": 57,
                    "time": 128.0148029999994,
                    "velocity": 0.4409448818897638,
                    "duration": 0.10307149999999865
                },
                {
                    "name": "E5",
                    "midi": 76,
                    "time": 128.2209459999994,
                    "velocity": 0.48031496062992124,
                    "duration": 0.10307149999999865
                },
                {
                    "name": "E4",
                    "midi": 64,
                    "time": 128.2209459999994,
                    "velocity": 0.4015748031496063,
                    "duration": 0.10307149999999865
                },
                {
                    "name": "A3",
                    "midi": 57,
                    "time": 128.4270889999994,
                    "velocity": 0.4330708661417323,
                    "duration": 0.10307149999999865
                },
                {
                    "name": "F3",
                    "midi": 53,
                    "time": 128.4270889999994,
                    "velocity": 0.36220472440944884,
                    "duration": 0.10307149999999865
                },
                {
                    "name": "G3",
                    "midi": 55,
                    "time": 128.6332319999994,
                    "velocity": 0.48031496062992124,
                    "duration": 0.10307149999999865
                },
                {
                    "name": "E3",
                    "midi": 52,
                    "time": 128.6332319999994,
                    "velocity": 0.4015748031496063,
                    "duration": 0.10307149999999865
                },
                {
                    "name": "E3",
                    "midi": 52,
                    "time": 128.8393749999994,
                    "velocity": 0.4015748031496063,
                    "duration": 0.10307149999999865
                },
                {
                    "name": "G3",
                    "midi": 55,
                    "time": 128.8393749999994,
                    "velocity": 0.48031496062992124,
                    "duration": 0.10307149999999865
                },
                {
                    "name": "E3",
                    "midi": 52,
                    "time": 129.0455179999994,
                    "velocity": 0.4015748031496063,
                    "duration": 0.10307149999999865
                },
                {
                    "name": "G3",
                    "midi": 55,
                    "time": 129.0455179999994,
                    "velocity": 0.48031496062992124,
                    "duration": 0.10307149999999865
                },
                {
                    "name": "A3",
                    "midi": 57,
                    "time": 129.2516609999994,
                    "velocity": 0.5275590551181102,
                    "duration": 0.6184289999999919
                },
                {
                    "name": "F3",
                    "midi": 53,
                    "time": 129.2516609999994,
                    "velocity": 0.4409448818897638,
                    "duration": 0.6184289999999919
                },
                {
                    "name": "E3",
                    "midi": 52,
                    "time": 129.87008999999938,
                    "velocity": 0.4015748031496063,
                    "duration": 0.10307149999999865
                },
                {
                    "name": "G3",
                    "midi": 55,
                    "time": 129.87008999999938,
                    "velocity": 0.48031496062992124,
                    "duration": 0.10307149999999865
                },
                {
                    "name": "E3",
                    "midi": 52,
                    "time": 130.07623299999938,
                    "velocity": 0.4015748031496063,
                    "duration": 0.10307149999999865
                },
                {
                    "name": "G3",
                    "midi": 55,
                    "time": 130.07623299999938,
                    "velocity": 0.48031496062992124,
                    "duration": 0.10307149999999865
                },
                {
                    "name": "G3",
                    "midi": 55,
                    "time": 130.28237599999937,
                    "velocity": 0.48031496062992124,
                    "duration": 0.10307149999999865
                },
                {
                    "name": "E3",
                    "midi": 52,
                    "time": 130.28237599999937,
                    "velocity": 0.4015748031496063,
                    "duration": 0.10307149999999865
                },
                {
                    "name": "C4",
                    "midi": 60,
                    "time": 130.48851899999937,
                    "velocity": 0.48031496062992124,
                    "duration": 0.6184289999999919
                },
                {
                    "name": "A4",
                    "midi": 69,
                    "time": 130.48851899999937,
                    "velocity": 0.48031496062992124,
                    "duration": 0.6184289999999919
                },
                {
                    "name": "A3",
                    "midi": 57,
                    "time": 130.48851899999937,
                    "velocity": 0.48031496062992124,
                    "duration": 0.6184289999999919
                },
                {
                    "name": "G3",
                    "midi": 55,
                    "time": 131.10694799999936,
                    "velocity": 0.48031496062992124,
                    "duration": 0.10307149999999865
                },
                {
                    "name": "E3",
                    "midi": 52,
                    "time": 131.10694799999936,
                    "velocity": 0.4015748031496063,
                    "duration": 0.10307149999999865
                },
                {
                    "name": "E3",
                    "midi": 52,
                    "time": 131.31309099999936,
                    "velocity": 0.4015748031496063,
                    "duration": 0.10307149999999865
                },
                {
                    "name": "G3",
                    "midi": 55,
                    "time": 131.31309099999936,
                    "velocity": 0.48031496062992124,
                    "duration": 0.10307149999999865
                },
                {
                    "name": "E3",
                    "midi": 52,
                    "time": 131.51923399999936,
                    "velocity": 0.4015748031496063,
                    "duration": 0.10307149999999865
                },
                {
                    "name": "G3",
                    "midi": 55,
                    "time": 131.51923399999936,
                    "velocity": 0.48031496062992124,
                    "duration": 0.10307149999999865
                },
                {
                    "name": "C5",
                    "midi": 72,
                    "time": 131.72537699999936,
                    "velocity": 0.6062992125984252,
                    "duration": 0.8245719999999892
                },
                {
                    "name": "E5",
                    "midi": 76,
                    "time": 131.72537699999936,
                    "velocity": 0.6062992125984252,
                    "duration": 0.8245719999999892
                },
                {
                    "name": "G5",
                    "midi": 79,
                    "time": 131.72537699999936,
                    "velocity": 0.6062992125984252,
                    "duration": 0.8245719999999892
                },
                {
                    "name": "C6",
                    "midi": 84,
                    "time": 131.72537699999936,
                    "velocity": 0.7795275590551181,
                    "duration": 0.8245719999999892
                },
                {
                    "name": "E3",
                    "midi": 52,
                    "time": 132.96223499999934,
                    "velocity": 0.6220472440944882,
                    "duration": 0.10307149999999865
                },
                {
                    "name": "G3",
                    "midi": 55,
                    "time": 132.96223499999934,
                    "velocity": 0.7480314960629921,
                    "duration": 0.10307149999999865
                },
                {
                    "name": "G3",
                    "midi": 55,
                    "time": 133.58066399999933,
                    "velocity": 0.7480314960629921,
                    "duration": 0.10307149999999865
                },
                {
                    "name": "E3",
                    "midi": 52,
                    "time": 133.58066399999933,
                    "velocity": 0.6220472440944882,
                    "duration": 0.10307149999999865
                },
                {
                    "name": "E3",
                    "midi": 52,
                    "time": 134.19308049583267,
                    "velocity": 0.6220472440944882,
                    "duration": 0.10307149999999865
                },
                {
                    "name": "G3",
                    "midi": 55,
                    "time": 134.19308049583267,
                    "velocity": 0.7480314960629921,
                    "duration": 0.10307149999999865
                },
                {
                    "name": "F6",
                    "midi": 89,
                    "time": 134.81752199999934,
                    "velocity": 0.6614173228346457,
                    "duration": 1.4430010000000095
                },
                {
                    "name": "F7",
                    "midi": 101,
                    "time": 134.81752199999934,
                    "velocity": 0.7952755905511811,
                    "duration": 1.4430010000000095
                },
                {
                    "name": "C7",
                    "midi": 96,
                    "time": 134.81752199999934,
                    "velocity": 0.6614173228346457,
                    "duration": 1.4430010000000095
                },
                {
                    "name": "A6",
                    "midi": 93,
                    "time": 134.81752199999934,
                    "velocity": 0.6614173228346457,
                    "duration": 1.4430010000000095
                },
                {
                    "name": "C7",
                    "midi": 96,
                    "time": 136.36359449999935,
                    "velocity": 0.5511811023622047,
                    "duration": 0.10307149999999865
                },
                {
                    "name": "C6",
                    "midi": 84,
                    "time": 136.36359449999935,
                    "velocity": 0.4645669291338583,
                    "duration": 0.10307149999999865
                },
                {
                    "name": "A6",
                    "midi": 93,
                    "time": 136.56973749999935,
                    "velocity": 0.5590551181102362,
                    "duration": 0.10307149999999865
                },
                {
                    "name": "A5",
                    "midi": 81,
                    "time": 136.56973749999935,
                    "velocity": 0.47244094488188976,
                    "duration": 0.10307149999999865
                },
                {
                    "name": "F5",
                    "midi": 77,
                    "time": 136.77588049999935,
                    "velocity": 0.48031496062992124,
                    "duration": 0.10307149999999865
                },
                {
                    "name": "F6",
                    "midi": 89,
                    "time": 136.77588049999935,
                    "velocity": 0.5669291338582677,
                    "duration": 0.10307149999999865
                },
                {
                    "name": "C6",
                    "midi": 84,
                    "time": 136.98202349999934,
                    "velocity": 0.5433070866141733,
                    "duration": 0.10307149999999865
                },
                {
                    "name": "C5",
                    "midi": 72,
                    "time": 136.98202349999934,
                    "velocity": 0.4566929133858268,
                    "duration": 0.10307149999999865
                },
                {
                    "name": "A5",
                    "midi": 81,
                    "time": 137.18816649999934,
                    "velocity": 0.5511811023622047,
                    "duration": 0.10307149999999865
                },
                {
                    "name": "A4",
                    "midi": 69,
                    "time": 137.18816649999934,
                    "velocity": 0.4645669291338583,
                    "duration": 0.10307149999999865
                },
                {
                    "name": "F4",
                    "midi": 65,
                    "time": 137.39430949999934,
                    "velocity": 0.5118110236220472,
                    "duration": 0.10307149999999865
                },
                {
                    "name": "F5",
                    "midi": 77,
                    "time": 137.39430949999934,
                    "velocity": 0.6062992125984252,
                    "duration": 0.10307149999999865
                },
                {
                    "name": "C4",
                    "midi": 60,
                    "time": 137.60045249999934,
                    "velocity": 0.4881889763779528,
                    "duration": 0.10307149999999865
                },
                {
                    "name": "C5",
                    "midi": 72,
                    "time": 137.60045249999934,
                    "velocity": 0.5826771653543307,
                    "duration": 0.10307149999999865
                },
                {
                    "name": "A3",
                    "midi": 57,
                    "time": 137.80659549999933,
                    "velocity": 0.49606299212598426,
                    "duration": 0.10307149999999865
                },
                {
                    "name": "A4",
                    "midi": 69,
                    "time": 137.80659549999933,
                    "velocity": 0.5905511811023622,
                    "duration": 0.10307149999999865
                },
                {
                    "name": "F4",
                    "midi": 65,
                    "time": 138.01273849999933,
                    "velocity": 0.6535433070866141,
                    "duration": 0.10307149999999865
                },
                {
                    "name": "F3",
                    "midi": 53,
                    "time": 138.01273849999933,
                    "velocity": 0.5511811023622047,
                    "duration": 0.10307149999999865
                },
                {
                    "name": "C3",
                    "midi": 48,
                    "time": 138.21888149999933,
                    "velocity": 0.5118110236220472,
                    "duration": 0.10307149999999865
                },
                {
                    "name": "C4",
                    "midi": 60,
                    "time": 138.21888149999933,
                    "velocity": 0.6062992125984252,
                    "duration": 0.10307149999999865
                },
                {
                    "name": "D3",
                    "midi": 50,
                    "time": 138.42502449999932,
                    "velocity": 0.5196850393700787,
                    "duration": 0.10307149999999865
                },
                {
                    "name": "D4",
                    "midi": 62,
                    "time": 138.42502449999932,
                    "velocity": 0.6141732283464567,
                    "duration": 0.10307149999999865
                },
                {
                    "name": "C3",
                    "midi": 48,
                    "time": 138.52809599999932,
                    "velocity": 0.5354330708661418,
                    "duration": 0.10307149999999865
                },
                {
                    "name": "G3",
                    "midi": 55,
                    "time": 138.52809599999932,
                    "velocity": 0.5354330708661418,
                    "duration": 0.10307149999999865
                },
                {
                    "name": "C4",
                    "midi": 60,
                    "time": 138.52809599999932,
                    "velocity": 0.6299212598425197,
                    "duration": 0.10307149999999865
                },
                {
                    "name": "E3",
                    "midi": 52,
                    "time": 138.52809599999932,
                    "velocity": 0.5354330708661418,
                    "duration": 0.10307149999999865
                },
                {
                    "name": "G3",
                    "midi": 55,
                    "time": 139.76495399999934,
                    "velocity": 0.5354330708661418,
                    "duration": 0.10307149999999865
                },
                {
                    "name": "E3",
                    "midi": 52,
                    "time": 139.76495399999934,
                    "velocity": 0.5354330708661418,
                    "duration": 0.10307149999999865
                },
                {
                    "name": "C4",
                    "midi": 60,
                    "time": 139.76495399999934,
                    "velocity": 0.6299212598425197,
                    "duration": 0.10307149999999865
                },
                {
                    "name": "C3",
                    "midi": 48,
                    "time": 139.76495399999934,
                    "velocity": 0.5354330708661418,
                    "duration": 0.10307149999999865
                },
                {
                    "name": "E3",
                    "midi": 52,
                    "time": 141.00181199999935,
                    "velocity": 0.5354330708661418,
                    "duration": 0.10307149999999865
                },
                {
                    "name": "G3",
                    "midi": 55,
                    "time": 141.00181199999935,
                    "velocity": 0.5354330708661418,
                    "duration": 0.10307149999999865
                },
                {
                    "name": "C4",
                    "midi": 60,
                    "time": 141.00181199999935,
                    "velocity": 0.6299212598425197,
                    "duration": 0.10307149999999865
                },
                {
                    "name": "C3",
                    "midi": 48,
                    "time": 141.00181199999935,
                    "velocity": 0.5354330708661418,
                    "duration": 0.10307149999999865
                },
                {
                    "name": "E4",
                    "midi": 64,
                    "time": 143.47552799999934,
                    "velocity": 0.31496062992125984,
                    "duration": 2.4651267083333437
                },
                {
                    "name": "G3",
                    "midi": 55,
                    "time": 144.71238599999936,
                    "velocity": 0.31496062992125984,
                    "duration": 1.2368580000000122
                },
                {
                    "name": "C4",
                    "midi": 60,
                    "time": 145.94924399999937,
                    "velocity": 0.23622047244094488,
                    "duration": 0.2061429999999973
                },
                {
                    "name": "E4",
                    "midi": 64,
                    "time": 145.94924399999937,
                    "velocity": 0.31496062992125984,
                    "duration": 1.6491439999999784
                },
                {
                    "name": "G3",
                    "midi": 55,
                    "time": 146.15538699999937,
                    "velocity": 0.15748031496062992,
                    "duration": 0.2061429999999973
                },
                {
                    "name": "C4",
                    "midi": 60,
                    "time": 146.36152999999936,
                    "velocity": 0.23622047244094488,
                    "duration": 0.2061429999999973
                },
                {
                    "name": "G3",
                    "midi": 55,
                    "time": 146.56767299999936,
                    "velocity": 0.16535433070866143,
                    "duration": 0.2061429999999973
                },
                {
                    "name": "C4",
                    "midi": 60,
                    "time": 146.77381599999936,
                    "velocity": 0.23622047244094488,
                    "duration": 0.2061429999999973
                },
                {
                    "name": "G3",
                    "midi": 55,
                    "time": 146.97995899999935,
                    "velocity": 0.15748031496062992,
                    "duration": 0.2061429999999973
                },
                {
                    "name": "C4",
                    "midi": 60,
                    "time": 147.18610199999935,
                    "velocity": 0.23622047244094488,
                    "duration": 0.2061429999999973
                },
                {
                    "name": "G3",
                    "midi": 55,
                    "time": 147.39224499999935,
                    "velocity": 0.1732283464566929,
                    "duration": 0.2061429999999973
                },
                {
                    "name": "F4",
                    "midi": 65,
                    "time": 147.59838799999935,
                    "velocity": 0.31496062992125984,
                    "duration": 0.4122859999999946
                },
                {
                    "name": "D4",
                    "midi": 62,
                    "time": 147.59838799999935,
                    "velocity": 0.23622047244094488,
                    "duration": 0.2061429999999973
                },
                {
                    "name": "G3",
                    "midi": 55,
                    "time": 147.80453099999934,
                    "velocity": 0.16535433070866143,
                    "duration": 0.2061429999999973
                },
                {
                    "name": "D#4",
                    "midi": 63,
                    "time": 148.01067399999934,
                    "velocity": 0.23622047244094488,
                    "duration": 0.2061429999999973
                },
                {
                    "name": "F#4",
                    "midi": 66,
                    "time": 148.01067399999934,
                    "velocity": 0.2755905511811024,
                    "duration": 0.4122859999999946
                },
                {
                    "name": "G3",
                    "midi": 55,
                    "time": 148.21681699999934,
                    "velocity": 0.1732283464566929,
                    "duration": 0.2061429999999973
                },
                {
                    "name": "E4",
                    "midi": 64,
                    "time": 148.42295999999934,
                    "velocity": 0.23622047244094488,
                    "duration": 0.2061429999999973
                },
                {
                    "name": "G4",
                    "midi": 67,
                    "time": 148.42295999999934,
                    "velocity": 0.31496062992125984,
                    "duration": 0.4122859999999946
                },
                {
                    "name": "G3",
                    "midi": 55,
                    "time": 148.62910299999933,
                    "velocity": 0.18110236220472442,
                    "duration": 0.2061429999999973
                },
                {
                    "name": "A4",
                    "midi": 69,
                    "time": 148.83524599999933,
                    "velocity": 0.28346456692913385,
                    "duration": 0.4122859999999946
                },
                {
                    "name": "F4",
                    "midi": 65,
                    "time": 148.83524599999933,
                    "velocity": 0.23622047244094488,
                    "duration": 0.2061429999999973
                },
                {
                    "name": "G3",
                    "midi": 55,
                    "time": 149.04138899999933,
                    "velocity": 0.1889763779527559,
                    "duration": 0.2061429999999973
                },
                {
                    "name": "B4",
                    "midi": 71,
                    "time": 149.24753199999932,
                    "velocity": 0.31496062992125984,
                    "duration": 0.4122859999999946
                },
                {
                    "name": "D4",
                    "midi": 62,
                    "time": 149.24753199999932,
                    "velocity": 0.23622047244094488,
                    "duration": 0.2061429999999973
                },
                {
                    "name": "G3",
                    "midi": 55,
                    "time": 149.45367499999932,
                    "velocity": 0.1889763779527559,
                    "duration": 0.2061429999999973
                },
                {
                    "name": "E4",
                    "midi": 64,
                    "time": 149.65981799999932,
                    "velocity": 0.23622047244094488,
                    "duration": 0.2061429999999973
                },
                {
                    "name": "C5",
                    "midi": 72,
                    "time": 149.65981799999932,
                    "velocity": 0.3464566929133858,
                    "duration": 0.4122859999999946
                },
                {
                    "name": "C4",
                    "midi": 60,
                    "time": 149.86596099999932,
                    "velocity": 0.18110236220472442,
                    "duration": 0.2061429999999973
                },
                {
                    "name": "F4",
                    "midi": 65,
                    "time": 150.0721039999993,
                    "velocity": 0.23622047244094488,
                    "duration": 0.2061429999999973
                },
                {
                    "name": "D5",
                    "midi": 74,
                    "time": 150.0721039999993,
                    "velocity": 0.3858267716535433,
                    "duration": 0.4122859999999946
                },
                {
                    "name": "C4",
                    "midi": 60,
                    "time": 150.2782469999993,
                    "velocity": 0.23622047244094488,
                    "duration": 0.2061429999999973
                },
                {
                    "name": "G4",
                    "midi": 67,
                    "time": 150.4843899999993,
                    "velocity": 0.23622047244094488,
                    "duration": 0.2061429999999973
                },
                {
                    "name": "E5",
                    "midi": 76,
                    "time": 150.4843899999993,
                    "velocity": 0.44881889763779526,
                    "duration": 0.4122859999999946
                },
                {
                    "name": "C4",
                    "midi": 60,
                    "time": 150.6905329999993,
                    "velocity": 0.23622047244094488,
                    "duration": 0.2061429999999973
                },
                {
                    "name": "C#5",
                    "midi": 73,
                    "time": 150.8966759999993,
                    "velocity": 0.23622047244094488,
                    "duration": 0.2061429999999973
                },
                {
                    "name": "G5",
                    "midi": 79,
                    "time": 150.8966759999993,
                    "velocity": 0.4881889763779528,
                    "duration": 1.2368579999999838
                },
                {
                    "name": "A#4",
                    "midi": 70,
                    "time": 150.8966759999993,
                    "velocity": 0.23622047244094488,
                    "duration": 0.2061429999999973
                },
                {
                    "name": "E4",
                    "midi": 64,
                    "time": 151.1028189999993,
                    "velocity": 0.25984251968503935,
                    "duration": 0.2061429999999973
                },
                {
                    "name": "C#5",
                    "midi": 73,
                    "time": 151.3089619999993,
                    "velocity": 0.2992125984251969,
                    "duration": 0.2061429999999973
                },
                {
                    "name": "A#4",
                    "midi": 70,
                    "time": 151.3089619999993,
                    "velocity": 0.2992125984251969,
                    "duration": 0.2061429999999973
                },
                {
                    "name": "E4",
                    "midi": 64,
                    "time": 151.5151049999993,
                    "velocity": 0.25196850393700787,
                    "duration": 0.2061429999999973
                },
                {
                    "name": "A#4",
                    "midi": 70,
                    "time": 151.7212479999993,
                    "velocity": 0.2992125984251969,
                    "duration": 0.2061429999999973
                },
                {
                    "name": "C#5",
                    "midi": 73,
                    "time": 151.7212479999993,
                    "velocity": 0.2992125984251969,
                    "duration": 0.2061429999999973
                },
                {
                    "name": "E4",
                    "midi": 64,
                    "time": 151.9273909999993,
                    "velocity": 0.2677165354330709,
                    "duration": 0.2061429999999973
                },
                {
                    "name": "F5",
                    "midi": 77,
                    "time": 152.1335339999993,
                    "velocity": 0.44881889763779526,
                    "duration": 0.8245719999999892
                },
                {
                    "name": "A4",
                    "midi": 69,
                    "time": 152.1335339999993,
                    "velocity": 0.23622047244094488,
                    "duration": 0.2061429999999973
                },
                {
                    "name": "D5",
                    "midi": 74,
                    "time": 152.1335339999993,
                    "velocity": 0.23622047244094488,
                    "duration": 0.2061429999999973
                },
                {
                    "name": "F4",
                    "midi": 65,
                    "time": 152.33967699999928,
                    "velocity": 0.2125984251968504,
                    "duration": 0.2061429999999973
                },
                {
                    "name": "A4",
                    "midi": 69,
                    "time": 152.54581999999928,
                    "velocity": 0.2677165354330709,
                    "duration": 0.2061429999999973
                },
                {
                    "name": "D5",
                    "midi": 74,
                    "time": 152.54581999999928,
                    "velocity": 0.2677165354330709,
                    "duration": 0.2061429999999973
                },
                {
                    "name": "F4",
                    "midi": 65,
                    "time": 152.75196299999928,
                    "velocity": 0.2125984251968504,
                    "duration": 0.2061429999999973
                },
                {
                    "name": "A#4",
                    "midi": 70,
                    "time": 152.95810599999928,
                    "velocity": 0.29133858267716534,
                    "duration": 0.2061429999999973
                },
                {
                    "name": "E5",
                    "midi": 76,
                    "time": 152.95810599999928,
                    "velocity": 0.3937007874015748,
                    "duration": 0.4079913541666542
                },
                {
                    "name": "C#5",
                    "midi": 73,
                    "time": 152.95810599999928,
                    "velocity": 0.29133858267716534,
                    "duration": 0.2061429999999973
                },
                {
                    "name": "G4",
                    "midi": 67,
                    "time": 153.16424899999927,
                    "velocity": 0.2283464566929134,
                    "duration": 0.2061429999999973
                },
                {
                    "name": "A#4",
                    "midi": 70,
                    "time": 153.37039199999927,
                    "velocity": 0.2992125984251969,
                    "duration": 0.2061429999999973
                },
                {
                    "name": "E5",
                    "midi": 76,
                    "time": 153.37039199999927,
                    "velocity": 0.4015748031496063,
                    "duration": 0.8245719999999892
                },
                {
                    "name": "C#5",
                    "midi": 73,
                    "time": 153.37039199999927,
                    "velocity": 0.2992125984251969,
                    "duration": 0.2061429999999973
                },
                {
                    "name": "G4",
                    "midi": 67,
                    "time": 153.57653499999927,
                    "velocity": 0.2047244094488189,
                    "duration": 0.2061429999999973
                },
                {
                    "name": "A#4",
                    "midi": 70,
                    "time": 153.78267799999927,
                    "velocity": 0.2283464566929134,
                    "duration": 0.2061429999999973
                },
                {
                    "name": "C#5",
                    "midi": 73,
                    "time": 153.78267799999927,
                    "velocity": 0.2283464566929134,
                    "duration": 0.2061429999999973
                },
                {
                    "name": "G4",
                    "midi": 67,
                    "time": 153.98882099999926,
                    "velocity": 0.2047244094488189,
                    "duration": 0.2061429999999973
                },
                {
                    "name": "A4",
                    "midi": 69,
                    "time": 154.19496399999926,
                    "velocity": 0.2755905511811024,
                    "duration": 0.2061429999999973
                },
                {
                    "name": "D5",
                    "midi": 74,
                    "time": 154.19496399999926,
                    "velocity": 0.3700787401574803,
                    "duration": 0.4122859999999946
                },
                {
                    "name": "F4",
                    "midi": 65,
                    "time": 154.40110699999926,
                    "velocity": 0.2047244094488189,
                    "duration": 0.2061429999999973
                },
                {
                    "name": "C#5",
                    "midi": 73,
                    "time": 154.60724999999925,
                    "velocity": 0.25984251968503935,
                    "duration": 0.2061429999999973
                },
                {
                    "name": "E5",
                    "midi": 76,
                    "time": 154.60724999999925,
                    "velocity": 0.3464566929133858,
                    "duration": 0.8245719999999892
                },
                {
                    "name": "A4",
                    "midi": 69,
                    "time": 154.60724999999925,
                    "velocity": 0.25984251968503935,
                    "duration": 0.2061429999999973
                },
                {
                    "name": "E4",
                    "midi": 64,
                    "time": 154.81339299999925,
                    "velocity": 0.2047244094488189,
                    "duration": 0.2061429999999973
                },
                {
                    "name": "A4",
                    "midi": 69,
                    "time": 155.01953599999925,
                    "velocity": 0.2047244094488189,
                    "duration": 0.2061429999999973
                },
                {
                    "name": "C#5",
                    "midi": 73,
                    "time": 155.01953599999925,
                    "velocity": 0.2047244094488189,
                    "duration": 0.2061429999999973
                },
                {
                    "name": "E4",
                    "midi": 64,
                    "time": 155.22567899999925,
                    "velocity": 0.2047244094488189,
                    "duration": 0.2061429999999973
                },
                {
                    "name": "F5",
                    "midi": 77,
                    "time": 155.43182199999924,
                    "velocity": 0.3700787401574803,
                    "duration": 0.4122859999999946
                },
                {
                    "name": "A4",
                    "midi": 69,
                    "time": 155.43182199999924,
                    "velocity": 0.2755905511811024,
                    "duration": 0.2061429999999973
                },
                {
                    "name": "D5",
                    "midi": 74,
                    "time": 155.43182199999924,
                    "velocity": 0.2755905511811024,
                    "duration": 0.2061429999999973
                },
                {
                    "name": "F4",
                    "midi": 65,
                    "time": 155.63796499999924,
                    "velocity": 0.2204724409448819,
                    "duration": 0.2061429999999973
                },
                {
                    "name": "G4",
                    "midi": 67,
                    "time": 155.84410799999924,
                    "velocity": 0.23622047244094488,
                    "duration": 0.2061429999999973
                },
                {
                    "name": "C5",
                    "midi": 72,
                    "time": 155.84410799999924,
                    "velocity": 0.31496062992125984,
                    "duration": 2.4737159999999676
                },
                {
                    "name": "E4",
                    "midi": 64,
                    "time": 156.05025099999924,
                    "velocity": 0.15748031496062992,
                    "duration": 0.2061429999999973
                },
                {
                    "name": "G4",
                    "midi": 67,
                    "time": 156.25639399999923,
                    "velocity": 0.23622047244094488,
                    "duration": 0.2061429999999973
                },
                {
                    "name": "E4",
                    "midi": 64,
                    "time": 156.46253699999923,
                    "velocity": 0.16535433070866143,
                    "duration": 0.2061429999999973
                },
                {
                    "name": "G4",
                    "midi": 67,
                    "time": 156.66867999999923,
                    "velocity": 0.23622047244094488,
                    "duration": 0.2061429999999973
                },
                {
                    "name": "E4",
                    "midi": 64,
                    "time": 156.87482299999922,
                    "velocity": 0.15748031496062992,
                    "duration": 0.2061429999999973
                },
                {
                    "name": "G4",
                    "midi": 67,
                    "time": 157.08096599999922,
                    "velocity": 0.23622047244094488,
                    "duration": 0.2061429999999973
                },
                {
                    "name": "E4",
                    "midi": 64,
                    "time": 157.28710899999922,
                    "velocity": 0.1732283464566929,
                    "duration": 0.2061429999999973
                },
                {
                    "name": "G4",
                    "midi": 67,
                    "time": 157.49325199999922,
                    "velocity": 0.23622047244094488,
                    "duration": 0.2061429999999973
                },
                {
                    "name": "E4",
                    "midi": 64,
                    "time": 157.6993949999992,
                    "velocity": 0.16535433070866143,
                    "duration": 0.2061429999999973
                },
                {
                    "name": "A4",
                    "midi": 69,
                    "time": 157.9055379999992,
                    "velocity": 0.23622047244094488,
                    "duration": 0.2061429999999973
                },
                {
                    "name": "E4",
                    "midi": 64,
                    "time": 158.1116809999992,
                    "velocity": 0.1732283464566929,
                    "duration": 0.2061429999999973
                },
                {
                    "name": "G4",
                    "midi": 67,
                    "time": 158.3178239999992,
                    "velocity": 0.23622047244094488,
                    "duration": 0.2061429999999973
                },
                {
                    "name": "B4",
                    "midi": 71,
                    "time": 158.3178239999992,
                    "velocity": 0.31496062992125984,
                    "duration": 0.4122859999999946
                },
                {
                    "name": "D4",
                    "midi": 62,
                    "time": 158.5239669999992,
                    "velocity": 0.18110236220472442,
                    "duration": 0.2061429999999973
                },
                {
                    "name": "G4",
                    "midi": 67,
                    "time": 158.7301099999992,
                    "velocity": 0.23622047244094488,
                    "duration": 0.2061429999999973
                },
                {
                    "name": "C5",
                    "midi": 72,
                    "time": 158.7301099999992,
                    "velocity": 0.28346456692913385,
                    "duration": 0.4122859999999946
                },
                {
                    "name": "F4",
                    "midi": 65,
                    "time": 158.9362529999992,
                    "velocity": 0.1889763779527559,
                    "duration": 0.2061429999999973
                },
                {
                    "name": "D5",
                    "midi": 74,
                    "time": 159.1423959999992,
                    "velocity": 0.31496062992125984,
                    "duration": 0.4122859999999946
                },
                {
                    "name": "G4",
                    "midi": 67,
                    "time": 159.1423959999992,
                    "velocity": 0.23622047244094488,
                    "duration": 0.2061429999999973
                },
                {
                    "name": "F4",
                    "midi": 65,
                    "time": 159.3485389999992,
                    "velocity": 0.1889763779527559,
                    "duration": 0.2061429999999973
                },
                {
                    "name": "E5",
                    "midi": 76,
                    "time": 159.5546819999992,
                    "velocity": 0.3464566929133858,
                    "duration": 0.4122859999999946
                },
                {
                    "name": "G4",
                    "midi": 67,
                    "time": 159.5546819999992,
                    "velocity": 0.23622047244094488,
                    "duration": 0.2061429999999973
                },
                {
                    "name": "E4",
                    "midi": 64,
                    "time": 159.7608249999992,
                    "velocity": 0.18110236220472442,
                    "duration": 0.2061429999999973
                },
                {
                    "name": "F5",
                    "midi": 77,
                    "time": 159.96696799999918,
                    "velocity": 0.3858267716535433,
                    "duration": 0.4122859999999946
                },
                {
                    "name": "B4",
                    "midi": 71,
                    "time": 159.96696799999918,
                    "velocity": 0.23622047244094488,
                    "duration": 0.2061429999999973
                },
                {
                    "name": "G4",
                    "midi": 67,
                    "time": 160.17311099999918,
                    "velocity": 0.23622047244094488,
                    "duration": 0.2061429999999973
                },
                {
                    "name": "C5",
                    "midi": 72,
                    "time": 160.37925399999918,
                    "velocity": 0.23622047244094488,
                    "duration": 0.2061429999999973
                },
                {
                    "name": "G5",
                    "midi": 79,
                    "time": 160.37925399999918,
                    "velocity": 0.44881889763779526,
                    "duration": 0.4122859999999946
                },
                {
                    "name": "G4",
                    "midi": 67,
                    "time": 160.58539699999918,
                    "velocity": 0.23622047244094488,
                    "duration": 0.2061429999999973
                },
                {
                    "name": "A#5",
                    "midi": 82,
                    "time": 160.79153999999917,
                    "velocity": 0.4881889763779528,
                    "duration": 1.2368579999999838
                },
                {
                    "name": "C#5",
                    "midi": 73,
                    "time": 160.79153999999917,
                    "velocity": 0.2677165354330709,
                    "duration": 0.2061429999999973
                },
                {
                    "name": "A#4",
                    "midi": 70,
                    "time": 160.99768299999917,
                    "velocity": 0.29133858267716534,
                    "duration": 0.2061429999999973
                },
                {
                    "name": "C#5",
                    "midi": 73,
                    "time": 161.20382599999917,
                    "velocity": 0.33858267716535434,
                    "duration": 0.2061429999999973
                },
                {
                    "name": "A#4",
                    "midi": 70,
                    "time": 161.40996899999917,
                    "velocity": 0.28346456692913385,
                    "duration": 0.2061429999999973
                },
                {
                    "name": "C#5",
                    "midi": 73,
                    "time": 161.61611199999916,
                    "velocity": 0.33858267716535434,
                    "duration": 0.2061429999999973
                },
                {
                    "name": "A#4",
                    "midi": 70,
                    "time": 161.82225499999916,
                    "velocity": 0.2992125984251969,
                    "duration": 0.2061429999999973
                },
                {
                    "name": "D5",
                    "midi": 74,
                    "time": 162.02839799999916,
                    "velocity": 0.2677165354330709,
                    "duration": 0.2061429999999973
                },
                {
                    "name": "A5",
                    "midi": 81,
                    "time": 162.02839799999916,
                    "velocity": 0.44881889763779526,
                    "duration": 0.8245719999999892
                },
                {
                    "name": "A4",
                    "midi": 69,
                    "time": 162.23454099999915,
                    "velocity": 0.23622047244094488,
                    "duration": 0.2061429999999973
                },
                {
                    "name": "D5",
                    "midi": 74,
                    "time": 162.44068399999915,
                    "velocity": 0.28346456692913385,
                    "duration": 0.2061429999999973
                },
                {
                    "name": "A4",
                    "midi": 69,
                    "time": 162.64682699999915,
                    "velocity": 0.2283464566929134,
                    "duration": 0.2061429999999973
                },
                {
                    "name": "D5",
                    "midi": 74,
                    "time": 162.85296999999915,
                    "velocity": 0.2677165354330709,
                    "duration": 0.2061429999999973
                },
                {
                    "name": "G#5",
                    "midi": 80,
                    "time": 162.85296999999915,
                    "velocity": 0.33070866141732286,
                    "duration": 0.4079913541666542
                },
                {
                    "name": "B4",
                    "midi": 71,
                    "time": 163.05911299999914,
                    "velocity": 0.2047244094488189,
                    "duration": 0.2061429999999973
                },
                {
                    "name": "G5",
                    "midi": 79,
                    "time": 163.26525599999914,
                    "velocity": 0.3543307086614173,
                    "duration": 0.8245719999999892
                },
                {
                    "name": "C#5",
                    "midi": 73,
                    "time": 163.26525599999914,
                    "velocity": 0.2677165354330709,
                    "duration": 0.2061429999999973
                },
                {
                    "name": "A4",
                    "midi": 69,
                    "time": 163.47139899999914,
                    "velocity": 0.18110236220472442,
                    "duration": 0.2061429999999973
                },
                {
                    "name": "C#5",
                    "midi": 73,
                    "time": 163.67754199999914,
                    "velocity": 0.2047244094488189,
                    "duration": 0.2061429999999973
                },
                {
                    "name": "A4",
                    "midi": 69,
                    "time": 163.88368499999913,
                    "velocity": 0.18110236220472442,
                    "duration": 0.2061429999999973
                },
                {
                    "name": "F#5",
                    "midi": 78,
                    "time": 164.08982799999913,
                    "velocity": 0.33070866141732286,
                    "duration": 0.4122859999999946
                },
                {
                    "name": "C#5",
                    "midi": 73,
                    "time": 164.08982799999913,
                    "velocity": 0.2440944881889764,
                    "duration": 0.2061429999999973
                },
                {
                    "name": "A4",
                    "midi": 69,
                    "time": 164.29597099999913,
                    "velocity": 0.18110236220472442,
                    "duration": 0.2061429999999973
                },
                {
                    "name": "G5",
                    "midi": 79,
                    "time": 164.50211399999912,
                    "velocity": 0.30708661417322836,
                    "duration": 0.8245719999999892
                },
                {
                    "name": "C#5",
                    "midi": 73,
                    "time": 164.50211399999912,
                    "velocity": 0.2283464566929134,
                    "duration": 0.2061429999999973
                },
                {
                    "name": "A4",
                    "midi": 69,
                    "time": 164.70825699999912,
                    "velocity": 0.18110236220472442,
                    "duration": 0.2061429999999973
                },
                {
                    "name": "C#5",
                    "midi": 73,
                    "time": 164.91439999999912,
                    "velocity": 0.18110236220472442,
                    "duration": 0.2061429999999973
                },
                {
                    "name": "A4",
                    "midi": 69,
                    "time": 165.12054299999912,
                    "velocity": 0.18110236220472442,
                    "duration": 0.2061429999999973
                },
                {
                    "name": "A#5",
                    "midi": 82,
                    "time": 165.3266859999991,
                    "velocity": 0.33070866141732286,
                    "duration": 0.4122859999999946
                },
                {
                    "name": "C#5",
                    "midi": 73,
                    "time": 165.3266859999991,
                    "velocity": 0.2440944881889764,
                    "duration": 0.2061429999999973
                },
                {
                    "name": "A4",
                    "midi": 69,
                    "time": 165.5328289999991,
                    "velocity": 0.1968503937007874,
                    "duration": 0.2061429999999973
                },
                {
                    "name": "C#5",
                    "midi": 73,
                    "time": 165.7389719999991,
                    "velocity": 0.2125984251968504,
                    "duration": 0.2061429999999973
                },
                {
                    "name": "A5",
                    "midi": 81,
                    "time": 165.7389719999991,
                    "velocity": 0.4015748031496063,
                    "duration": 1.2368579999999838
                },
                {
                    "name": "A#4",
                    "midi": 70,
                    "time": 165.9451149999991,
                    "velocity": 0.1889763779527559,
                    "duration": 0.2061429999999973
                },
                {
                    "name": "C#5",
                    "midi": 73,
                    "time": 166.1512579999991,
                    "velocity": 0.23622047244094488,
                    "duration": 0.2061429999999973
                },
                {
                    "name": "A#4",
                    "midi": 70,
                    "time": 166.3574009999991,
                    "velocity": 0.1889763779527559,
                    "duration": 0.2061429999999973
                },
                {
                    "name": "C#5",
                    "midi": 73,
                    "time": 166.5635439999991,
                    "velocity": 0.2283464566929134,
                    "duration": 0.2061429999999973
                },
                {
                    "name": "A#4",
                    "midi": 70,
                    "time": 166.7696869999991,
                    "velocity": 0.18110236220472442,
                    "duration": 0.2061429999999973
                },
                {
                    "name": "C#5",
                    "midi": 73,
                    "time": 166.9758299999991,
                    "velocity": 0.2677165354330709,
                    "duration": 0.2061429999999973
                },
                {
                    "name": "G5",
                    "midi": 79,
                    "time": 166.9758299999991,
                    "velocity": 0.3543307086614173,
                    "duration": 0.4122859999999946
                },
                {
                    "name": "A#4",
                    "midi": 70,
                    "time": 167.1819729999991,
                    "velocity": 0.18110236220472442,
                    "duration": 0.2061429999999973
                },
                {
                    "name": "C#5",
                    "midi": 73,
                    "time": 167.3881159999991,
                    "velocity": 0.2047244094488189,
                    "duration": 0.2061429999999973
                },
                {
                    "name": "A#4",
                    "midi": 70,
                    "time": 167.59425899999908,
                    "velocity": 0.18110236220472442,
                    "duration": 0.2061429999999973
                },
                {
                    "name": "C#5",
                    "midi": 73,
                    "time": 167.80040199999908,
                    "velocity": 0.23622047244094488,
                    "duration": 0.2061429999999973
                },
                {
                    "name": "G5",
                    "midi": 79,
                    "time": 167.80040199999908,
                    "velocity": 0.33070866141732286,
                    "duration": 0.4079913541666542
                },
                {
                    "name": "A#4",
                    "midi": 70,
                    "time": 168.00654499999908,
                    "velocity": 0.18110236220472442,
                    "duration": 0.2061429999999973
                },
                {
                    "name": "E5",
                    "midi": 76,
                    "time": 168.21268799999908,
                    "velocity": 0.2677165354330709,
                    "duration": 0.2061429999999973
                },
                {
                    "name": "G5",
                    "midi": 79,
                    "time": 168.21268799999908,
                    "velocity": 0.3543307086614173,
                    "duration": 0.8245719999999892
                },
                {
                    "name": "B4",
                    "midi": 71,
                    "time": 168.41883099999907,
                    "velocity": 0.18110236220472442,
                    "duration": 0.2061429999999973
                },
                {
                    "name": "E5",
                    "midi": 76,
                    "time": 168.62497399999907,
                    "velocity": 0.2047244094488189,
                    "duration": 0.2061429999999973
                },
                {
                    "name": "B4",
                    "midi": 71,
                    "time": 168.83111699999907,
                    "velocity": 0.18110236220472442,
                    "duration": 0.2061429999999973
                },
                {
                    "name": "F#5",
                    "midi": 78,
                    "time": 169.03725999999907,
                    "velocity": 0.33070866141732286,
                    "duration": 0.4122859999999946
                },
                {
                    "name": "E5",
                    "midi": 76,
                    "time": 169.03725999999907,
                    "velocity": 0.2440944881889764,
                    "duration": 0.2061429999999973
                },
                {
                    "name": "B4",
                    "midi": 71,
                    "time": 169.24340299999906,
                    "velocity": 0.18110236220472442,
                    "duration": 0.2061429999999973
                },
                {
                    "name": "E5",
                    "midi": 76,
                    "time": 169.44954599999906,
                    "velocity": 0.2283464566929134,
                    "duration": 0.2061429999999973
                },
                {
                    "name": "G5",
                    "midi": 79,
                    "time": 169.44954599999906,
                    "velocity": 0.30708661417322836,
                    "duration": 0.8245719999999892
                },
                {
                    "name": "B4",
                    "midi": 71,
                    "time": 169.65568899999906,
                    "velocity": 0.18110236220472442,
                    "duration": 0.2061429999999973
                },
                {
                    "name": "E5",
                    "midi": 76,
                    "time": 169.86183199999905,
                    "velocity": 0.18110236220472442,
                    "duration": 0.2061429999999973
                },
                {
                    "name": "B4",
                    "midi": 71,
                    "time": 170.06797499999905,
                    "velocity": 0.18110236220472442,
                    "duration": 0.2061429999999973
                },
                {
                    "name": "B5",
                    "midi": 83,
                    "time": 170.27411799999905,
                    "velocity": 0.33070866141732286,
                    "duration": 0.4122859999999946
                },
                {
                    "name": "E5",
                    "midi": 76,
                    "time": 170.27411799999905,
                    "velocity": 0.2440944881889764,
                    "duration": 0.2061429999999973
                },
                {
                    "name": "B4",
                    "midi": 71,
                    "time": 170.48026099999905,
                    "velocity": 0.1968503937007874,
                    "duration": 0.2061429999999973
                },
                {
                    "name": "A5",
                    "midi": 81,
                    "time": 170.68640399999904,
                    "velocity": 0.4015748031496063,
                    "duration": 1.2368579999999838
                },
                {
                    "name": "E5",
                    "midi": 76,
                    "time": 170.68640399999904,
                    "velocity": 0.2125984251968504,
                    "duration": 0.2061429999999973
                },
                {
                    "name": "A#4",
                    "midi": 70,
                    "time": 170.89254699999904,
                    "velocity": 0.1889763779527559,
                    "duration": 0.2061429999999973
                },
                {
                    "name": "E5",
                    "midi": 76,
                    "time": 171.09868999999904,
                    "velocity": 0.23622047244094488,
                    "duration": 0.2061429999999973
                },
                {
                    "name": "A#4",
                    "midi": 70,
                    "time": 171.30483299999904,
                    "velocity": 0.1889763779527559,
                    "duration": 0.2061429999999973
                },
                {
                    "name": "E5",
                    "midi": 76,
                    "time": 171.51097599999903,
                    "velocity": 0.2283464566929134,
                    "duration": 0.2061429999999973
                },
                {
                    "name": "A#4",
                    "midi": 70,
                    "time": 171.71711899999903,
                    "velocity": 0.18110236220472442,
                    "duration": 0.2061429999999973
                },
                {
                    "name": "G5",
                    "midi": 79,
                    "time": 171.92326199999903,
                    "velocity": 0.3543307086614173,
                    "duration": 0.4122859999999946
                },
                {
                    "name": "E5",
                    "midi": 76,
                    "time": 171.92326199999903,
                    "velocity": 0.2677165354330709,
                    "duration": 0.2061429999999973
                },
                {
                    "name": "A#4",
                    "midi": 70,
                    "time": 172.12940499999902,
                    "velocity": 0.18110236220472442,
                    "duration": 0.2061429999999973
                },
                {
                    "name": "E5",
                    "midi": 76,
                    "time": 172.33554799999902,
                    "velocity": 0.2047244094488189,
                    "duration": 0.2061429999999973
                },
                {
                    "name": "A#4",
                    "midi": 70,
                    "time": 172.54169099999902,
                    "velocity": 0.18110236220472442,
                    "duration": 0.2061429999999973
                },
                {
                    "name": "G5",
                    "midi": 79,
                    "time": 172.74783399999902,
                    "velocity": 0.33070866141732286,
                    "duration": 0.4079913541666542
                },
                {
                    "name": "E5",
                    "midi": 76,
                    "time": 172.74783399999902,
                    "velocity": 0.23622047244094488,
                    "duration": 0.2061429999999973
                },
                {
                    "name": "A#4",
                    "midi": 70,
                    "time": 172.953976999999,
                    "velocity": 0.18110236220472442,
                    "duration": 0.2061429999999973
                },
                {
                    "name": "G5",
                    "midi": 79,
                    "time": 173.160119999999,
                    "velocity": 0.3543307086614173,
                    "duration": 0.8245719999999892
                },
                {
                    "name": "B4",
                    "midi": 71,
                    "time": 173.160119999999,
                    "velocity": 0.2677165354330709,
                    "duration": 0.2061429999999973
                },
                {
                    "name": "G4",
                    "midi": 67,
                    "time": 173.366262999999,
                    "velocity": 0.18110236220472442,
                    "duration": 0.2061429999999973
                },
                {
                    "name": "B4",
                    "midi": 71,
                    "time": 173.572405999999,
                    "velocity": 0.2047244094488189,
                    "duration": 0.2061429999999973
                },
                {
                    "name": "G4",
                    "midi": 67,
                    "time": 173.778548999999,
                    "velocity": 0.18110236220472442,
                    "duration": 0.2061429999999973
                },
                {
                    "name": "F#5",
                    "midi": 78,
                    "time": 173.984691999999,
                    "velocity": 0.33070866141732286,
                    "duration": 0.4122859999999946
                },
                {
                    "name": "B4",
                    "midi": 71,
                    "time": 173.984691999999,
                    "velocity": 0.2440944881889764,
                    "duration": 0.2061429999999973
                },
                {
                    "name": "G4",
                    "midi": 67,
                    "time": 174.190834999999,
                    "velocity": 0.18110236220472442,
                    "duration": 0.2061429999999973
                },
                {
                    "name": "G5",
                    "midi": 79,
                    "time": 174.396977999999,
                    "velocity": 0.30708661417322836,
                    "duration": 0.8245719999999892
                },
                {
                    "name": "B4",
                    "midi": 71,
                    "time": 174.396977999999,
                    "velocity": 0.2283464566929134,
                    "duration": 0.2061429999999973
                },
                {
                    "name": "G4",
                    "midi": 67,
                    "time": 174.603120999999,
                    "velocity": 0.18110236220472442,
                    "duration": 0.2061429999999973
                },
                {
                    "name": "B4",
                    "midi": 71,
                    "time": 174.809263999999,
                    "velocity": 0.18110236220472442,
                    "duration": 0.2061429999999973
                },
                {
                    "name": "G4",
                    "midi": 67,
                    "time": 175.015406999999,
                    "velocity": 0.18110236220472442,
                    "duration": 0.2061429999999973
                },
                {
                    "name": "D5",
                    "midi": 74,
                    "time": 175.22154999999898,
                    "velocity": 0.33070866141732286,
                    "duration": 0.4122859999999946
                },
                {
                    "name": "B4",
                    "midi": 71,
                    "time": 175.22154999999898,
                    "velocity": 0.2440944881889764,
                    "duration": 0.2061429999999973
                },
                {
                    "name": "G4",
                    "midi": 67,
                    "time": 175.42769299999898,
                    "velocity": 0.1968503937007874,
                    "duration": 0.2061429999999973
                },
                {
                    "name": "A#4",
                    "midi": 70,
                    "time": 175.63383599999898,
                    "velocity": 0.2677165354330709,
                    "duration": 0.2061429999999973
                },
                {
                    "name": "G4",
                    "midi": 67,
                    "time": 175.83997899999898,
                    "velocity": 0.18110236220472442,
                    "duration": 0.2061429999999973
                },
                {
                    "name": "A#4",
                    "midi": 70,
                    "time": 176.04612199999897,
                    "velocity": 0.2047244094488189,
                    "duration": 0.2061429999999973
                },
                {
                    "name": "G4",
                    "midi": 67,
                    "time": 176.25226499999897,
                    "velocity": 0.18110236220472442,
                    "duration": 0.2061429999999973
                },
                {
                    "name": "A#4",
                    "midi": 70,
                    "time": 176.45840799999897,
                    "velocity": 0.2440944881889764,
                    "duration": 0.2061429999999973
                },
                {
                    "name": "G4",
                    "midi": 67,
                    "time": 176.66455099999897,
                    "velocity": 0.18110236220472442,
                    "duration": 0.2061429999999973
                },
                {
                    "name": "A#4",
                    "midi": 70,
                    "time": 176.87069399999896,
                    "velocity": 0.2283464566929134,
                    "duration": 0.2061429999999973
                },
                {
                    "name": "G4",
                    "midi": 67,
                    "time": 177.07683699999896,
                    "velocity": 0.18110236220472442,
                    "duration": 0.2061429999999973
                },
                {
                    "name": "A#4",
                    "midi": 70,
                    "time": 177.28297999999896,
                    "velocity": 0.18110236220472442,
                    "duration": 0.2061429999999973
                },
                {
                    "name": "G4",
                    "midi": 67,
                    "time": 177.48912299999895,
                    "velocity": 0.18110236220472442,
                    "duration": 0.2061429999999973
                },
                {
                    "name": "A#4",
                    "midi": 70,
                    "time": 177.69526599999895,
                    "velocity": 0.2440944881889764,
                    "duration": 0.2061429999999973
                },
                {
                    "name": "G4",
                    "midi": 67,
                    "time": 177.90140899999895,
                    "velocity": 0.1968503937007874,
                    "duration": 0.2061429999999973
                },
                {
                    "name": "D5",
                    "midi": 74,
                    "time": 178.10755199999895,
                    "velocity": 0.3543307086614173,
                    "duration": 0.8245719999999892
                },
                {
                    "name": "F#4",
                    "midi": 66,
                    "time": 178.10755199999895,
                    "velocity": 0.2677165354330709,
                    "duration": 0.2061429999999973
                },
                {
                    "name": "D4",
                    "midi": 62,
                    "time": 178.31369499999894,
                    "velocity": 0.18110236220472442,
                    "duration": 0.2061429999999973
                },
                {
                    "name": "F#4",
                    "midi": 66,
                    "time": 178.51983799999894,
                    "velocity": 0.2047244094488189,
                    "duration": 0.2061429999999973
                },
                {
                    "name": "D4",
                    "midi": 62,
                    "time": 178.72598099999894,
                    "velocity": 0.18110236220472442,
                    "duration": 0.2061429999999973
                },
                {
                    "name": "C#5",
                    "midi": 73,
                    "time": 178.93212399999894,
                    "velocity": 0.33070866141732286,
                    "duration": 0.4122859999999946
                },
                {
                    "name": "F#4",
                    "midi": 66,
                    "time": 178.93212399999894,
                    "velocity": 0.2440944881889764,
                    "duration": 0.2061429999999973
                },
                {
                    "name": "D4",
                    "midi": 62,
                    "time": 179.13826699999893,
                    "velocity": 0.18110236220472442,
                    "duration": 0.2061429999999973
                },
                {
                    "name": "D5",
                    "midi": 74,
                    "time": 179.34440999999893,
                    "velocity": 0.30708661417322836,
                    "duration": 0.8245719999999892
                },
                {
                    "name": "F#4",
                    "midi": 66,
                    "time": 179.34440999999893,
                    "velocity": 0.2283464566929134,
                    "duration": 0.2061429999999973
                },
                {
                    "name": "D4",
                    "midi": 62,
                    "time": 179.55055299999893,
                    "velocity": 0.18110236220472442,
                    "duration": 0.2061429999999973
                },
                {
                    "name": "F#4",
                    "midi": 66,
                    "time": 179.75669599999893,
                    "velocity": 0.18110236220472442,
                    "duration": 0.2061429999999973
                },
                {
                    "name": "D4",
                    "midi": 62,
                    "time": 179.96283899999892,
                    "velocity": 0.18110236220472442,
                    "duration": 0.2061429999999973
                },
                {
                    "name": "F#4",
                    "midi": 66,
                    "time": 180.16898199999892,
                    "velocity": 0.2440944881889764,
                    "duration": 0.2061429999999973
                },
                {
                    "name": "A4",
                    "midi": 69,
                    "time": 180.16898199999892,
                    "velocity": 0.33070866141732286,
                    "duration": 0.4122859999999946
                },
                {
                    "name": "D4",
                    "midi": 62,
                    "time": 180.37512499999892,
                    "velocity": 0.1968503937007874,
                    "duration": 0.2061429999999973
                },
                {
                    "name": "F4",
                    "midi": 65,
                    "time": 180.58126799999891,
                    "velocity": 0.25196850393700787,
                    "duration": 0.2061429999999973
                },
                {
                    "name": "D4",
                    "midi": 62,
                    "time": 180.7874109999989,
                    "velocity": 0.16535433070866143,
                    "duration": 0.2061429999999973
                },
                {
                    "name": "F4",
                    "midi": 65,
                    "time": 180.9935539999989,
                    "velocity": 0.1889763779527559,
                    "duration": 0.2061429999999973
                },
                {
                    "name": "D4",
                    "midi": 62,
                    "time": 181.1996969999989,
                    "velocity": 0.16535433070866143,
                    "duration": 0.2061429999999973
                },
                {
                    "name": "F4",
                    "midi": 65,
                    "time": 181.4058399999989,
                    "velocity": 0.2204724409448819,
                    "duration": 0.2061429999999973
                },
                {
                    "name": "D4",
                    "midi": 62,
                    "time": 181.6119829999989,
                    "velocity": 0.16535433070866143,
                    "duration": 0.2061429999999973
                },
                {
                    "name": "F4",
                    "midi": 65,
                    "time": 181.8181259999989,
                    "velocity": 0.2125984251968504,
                    "duration": 0.2061429999999973
                },
                {
                    "name": "D4",
                    "midi": 62,
                    "time": 182.0242689999989,
                    "velocity": 0.15748031496062992,
                    "duration": 0.2061429999999973
                },
                {
                    "name": "F4",
                    "midi": 65,
                    "time": 182.2304119999989,
                    "velocity": 0.15748031496062992,
                    "duration": 0.2061429999999973
                },
                {
                    "name": "D4",
                    "midi": 62,
                    "time": 182.4365549999989,
                    "velocity": 0.15748031496062992,
                    "duration": 0.2061429999999973
                },
                {
                    "name": "F4",
                    "midi": 65,
                    "time": 182.6426979999989,
                    "velocity": 0.2125984251968504,
                    "duration": 0.2061429999999973
                },
                {
                    "name": "D4",
                    "midi": 62,
                    "time": 182.84884099999888,
                    "velocity": 0.16535433070866143,
                    "duration": 0.2061429999999973
                },
                {
                    "name": "F4",
                    "midi": 65,
                    "time": 183.05498399999888,
                    "velocity": 0.2047244094488189,
                    "duration": 0.2061429999999973
                },
                {
                    "name": "D5",
                    "midi": 74,
                    "time": 183.05498399999888,
                    "velocity": 0.2677165354330709,
                    "duration": 0.8245719999999892
                },
                {
                    "name": "D4",
                    "midi": 62,
                    "time": 183.26112699999888,
                    "velocity": 0.14960629921259844,
                    "duration": 0.2061429999999973
                },
                {
                    "name": "F4",
                    "midi": 65,
                    "time": 183.46726999999888,
                    "velocity": 0.14960629921259844,
                    "duration": 0.2061429999999973
                },
                {
                    "name": "D4",
                    "midi": 62,
                    "time": 183.67341299999887,
                    "velocity": 0.14960629921259844,
                    "duration": 0.2061429999999973
                },
                {
                    "name": "F4",
                    "midi": 65,
                    "time": 183.87955599999887,
                    "velocity": 0.2125984251968504,
                    "duration": 0.2061429999999973
                },
                {
                    "name": "C#5",
                    "midi": 73,
                    "time": 183.87955599999887,
                    "velocity": 0.28346456692913385,
                    "duration": 0.4122859999999946
                },
                {
                    "name": "D4",
                    "midi": 62,
                    "time": 184.08569899999887,
                    "velocity": 0.16535433070866143,
                    "duration": 0.2061429999999973
                },
                {
                    "name": "F4",
                    "midi": 65,
                    "time": 184.29184199999887,
                    "velocity": 0.2204724409448819,
                    "duration": 0.2061429999999973
                },
                {
                    "name": "D4",
                    "midi": 62,
                    "time": 184.49798499999886,
                    "velocity": 0.14960629921259844,
                    "duration": 0.2061429999999973
                },
                {
                    "name": "F4",
                    "midi": 65,
                    "time": 184.70412799999886,
                    "velocity": 0.16535433070866143,
                    "duration": 0.2061429999999973
                },
                {
                    "name": "D4",
                    "midi": 62,
                    "time": 184.91027099999886,
                    "velocity": 0.14173228346456693,
                    "duration": 0.2061429999999973
                },
                {
                    "name": "F4",
                    "midi": 65,
                    "time": 185.11641399999885,
                    "velocity": 0.2047244094488189,
                    "duration": 0.2061429999999973
                },
                {
                    "name": "D4",
                    "midi": 62,
                    "time": 185.32255699999885,
                    "velocity": 0.14173228346456693,
                    "duration": 0.2061429999999973
                },
                {
                    "name": "F4",
                    "midi": 65,
                    "time": 185.52869999999885,
                    "velocity": 0.1889763779527559,
                    "duration": 0.2061429999999973
                },
                {
                    "name": "D5",
                    "midi": 74,
                    "time": 185.52869999999885,
                    "velocity": 0.2440944881889764,
                    "duration": 2.061429999999973
                },
                {
                    "name": "D4",
                    "midi": 62,
                    "time": 185.73484299999885,
                    "velocity": 0.14173228346456693,
                    "duration": 0.2061429999999973
                },
                {
                    "name": "F4",
                    "midi": 65,
                    "time": 185.94098599999884,
                    "velocity": 0.14173228346456693,
                    "duration": 0.2061429999999973
                },
                {
                    "name": "D4",
                    "midi": 62,
                    "time": 186.14712899999884,
                    "velocity": 0.14173228346456693,
                    "duration": 0.2061429999999973
                },
                {
                    "name": "F4",
                    "midi": 65,
                    "time": 186.35327199999884,
                    "velocity": 0.1968503937007874,
                    "duration": 0.2061429999999973
                },
                {
                    "name": "D4",
                    "midi": 62,
                    "time": 186.55941499999884,
                    "velocity": 0.14960629921259844,
                    "duration": 0.2061429999999973
                },
                {
                    "name": "F4",
                    "midi": 65,
                    "time": 186.76555799999883,
                    "velocity": 0.2125984251968504,
                    "duration": 0.2061429999999973
                },
                {
                    "name": "D4",
                    "midi": 62,
                    "time": 186.97170099999883,
                    "velocity": 0.14173228346456693,
                    "duration": 0.2061429999999973
                },
                {
                    "name": "F4",
                    "midi": 65,
                    "time": 187.17784399999883,
                    "velocity": 0.14960629921259844,
                    "duration": 0.2061429999999973
                },
                {
                    "name": "D4",
                    "midi": 62,
                    "time": 187.38398699999883,
                    "velocity": 0.14173228346456693,
                    "duration": 0.2061429999999973
                },
                {
                    "name": "F4",
                    "midi": 65,
                    "time": 187.59012999999882,
                    "velocity": 0.14960629921259844,
                    "duration": 0.4122859999999946
                },
                {
                    "name": "B3",
                    "midi": 59,
                    "time": 187.59012999999882,
                    "velocity": 0.18110236220472442,
                    "duration": 0.2061429999999973
                },
                {
                    "name": "G3",
                    "midi": 55,
                    "time": 187.79627299999882,
                    "velocity": 0.13385826771653545,
                    "duration": 0.2061429999999973
                },
                {
                    "name": "C4",
                    "midi": 60,
                    "time": 188.00241599999882,
                    "velocity": 0.23622047244094488,
                    "duration": 0.2061429999999973
                },
                {
                    "name": "E4",
                    "midi": 64,
                    "time": 188.00241599999882,
                    "velocity": 0.31496062992125984,
                    "duration": 1.6491439999999784
                },
                {
                    "name": "G3",
                    "midi": 55,
                    "time": 188.20855899999881,
                    "velocity": 0.15748031496062992,
                    "duration": 0.2061429999999973
                },
                {
                    "name": "C4",
                    "midi": 60,
                    "time": 188.4147019999988,
                    "velocity": 0.23622047244094488,
                    "duration": 0.2061429999999973
                },
                {
                    "name": "G3",
                    "midi": 55,
                    "time": 188.6208449999988,
                    "velocity": 0.16535433070866143,
                    "duration": 0.2061429999999973
                },
                {
                    "name": "C4",
                    "midi": 60,
                    "time": 188.8269879999988,
                    "velocity": 0.23622047244094488,
                    "duration": 0.2061429999999973
                },
                {
                    "name": "G3",
                    "midi": 55,
                    "time": 189.0331309999988,
                    "velocity": 0.15748031496062992,
                    "duration": 0.2061429999999973
                },
                {
                    "name": "C4",
                    "midi": 60,
                    "time": 189.2392739999988,
                    "velocity": 0.23622047244094488,
                    "duration": 0.2061429999999973
                },
                {
                    "name": "G3",
                    "midi": 55,
                    "time": 189.4454169999988,
                    "velocity": 0.1732283464566929,
                    "duration": 0.2061429999999973
                },
                {
                    "name": "D4",
                    "midi": 62,
                    "time": 189.6515599999988,
                    "velocity": 0.23622047244094488,
                    "duration": 0.2061429999999973
                },
                {
                    "name": "F4",
                    "midi": 65,
                    "time": 189.6515599999988,
                    "velocity": 0.31496062992125984,
                    "duration": 0.4122859999999946
                },
                {
                    "name": "G3",
                    "midi": 55,
                    "time": 189.8577029999988,
                    "velocity": 0.16535433070866143,
                    "duration": 0.2061429999999973
                },
                {
                    "name": "D#4",
                    "midi": 63,
                    "time": 190.0638459999988,
                    "velocity": 0.23622047244094488,
                    "duration": 0.2061429999999973
                },
                {
                    "name": "F#4",
                    "midi": 66,
                    "time": 190.0638459999988,
                    "velocity": 0.2755905511811024,
                    "duration": 0.4122859999999946
                },
                {
                    "name": "G3",
                    "midi": 55,
                    "time": 190.2699889999988,
                    "velocity": 0.1732283464566929,
                    "duration": 0.2061429999999973
                },
                {
                    "name": "G4",
                    "midi": 67,
                    "time": 190.47613199999878,
                    "velocity": 0.31496062992125984,
                    "duration": 0.4122859999999946
                },
                {
                    "name": "E4",
                    "midi": 64,
                    "time": 190.47613199999878,
                    "velocity": 0.23622047244094488,
                    "duration": 0.2061429999999973
                },
                {
                    "name": "G3",
                    "midi": 55,
                    "time": 190.68227499999878,
                    "velocity": 0.18110236220472442,
                    "duration": 0.2061429999999973
                },
                {
                    "name": "F4",
                    "midi": 65,
                    "time": 190.88841799999878,
                    "velocity": 0.23622047244094488,
                    "duration": 0.2061429999999973
                },
                {
                    "name": "A4",
                    "midi": 69,
                    "time": 190.88841799999878,
                    "velocity": 0.28346456692913385,
                    "duration": 0.4122859999999946
                },
                {
                    "name": "G3",
                    "midi": 55,
                    "time": 191.09456099999878,
                    "velocity": 0.1889763779527559,
                    "duration": 0.2061429999999973
                },
                {
                    "name": "D4",
                    "midi": 62,
                    "time": 191.30070399999877,
                    "velocity": 0.23622047244094488,
                    "duration": 0.2061429999999973
                },
                {
                    "name": "B4",
                    "midi": 71,
                    "time": 191.30070399999877,
                    "velocity": 0.31496062992125984,
                    "duration": 0.4122859999999946
                },
                {
                    "name": "G3",
                    "midi": 55,
                    "time": 191.50684699999877,
                    "velocity": 0.1889763779527559,
                    "duration": 0.2061429999999973
                },
                {
                    "name": "E4",
                    "midi": 64,
                    "time": 191.71298999999877,
                    "velocity": 0.23622047244094488,
                    "duration": 0.2061429999999973
                },
                {
                    "name": "C5",
                    "midi": 72,
                    "time": 191.71298999999877,
                    "velocity": 0.3464566929133858,
                    "duration": 0.4122859999999946
                },
                {
                    "name": "C4",
                    "midi": 60,
                    "time": 191.91913299999877,
                    "velocity": 0.18110236220472442,
                    "duration": 0.2061429999999973
                },
                {
                    "name": "F4",
                    "midi": 65,
                    "time": 192.12527599999876,
                    "velocity": 0.23622047244094488,
                    "duration": 0.2061429999999973
                },
                {
                    "name": "D5",
                    "midi": 74,
                    "time": 192.12527599999876,
                    "velocity": 0.3858267716535433,
                    "duration": 0.4122859999999946
                },
                {
                    "name": "C4",
                    "midi": 60,
                    "time": 192.33141899999876,
                    "velocity": 0.23622047244094488,
                    "duration": 0.2061429999999973
                },
                {
                    "name": "G4",
                    "midi": 67,
                    "time": 192.53756199999876,
                    "velocity": 0.23622047244094488,
                    "duration": 0.2061429999999973
                },
                {
                    "name": "E5",
                    "midi": 76,
                    "time": 192.53756199999876,
                    "velocity": 0.44881889763779526,
                    "duration": 0.4122859999999946
                },
                {
                    "name": "C4",
                    "midi": 60,
                    "time": 192.74370499999876,
                    "velocity": 0.23622047244094488,
                    "duration": 0.2061429999999973
                },
                {
                    "name": "A#4",
                    "midi": 70,
                    "time": 192.94984799999875,
                    "velocity": 0.23622047244094488,
                    "duration": 0.2061429999999973
                },
                {
                    "name": "C#5",
                    "midi": 73,
                    "time": 192.94984799999875,
                    "velocity": 0.23622047244094488,
                    "duration": 0.2061429999999973
                },
                {
                    "name": "G5",
                    "midi": 79,
                    "time": 192.94984799999875,
                    "velocity": 0.4881889763779528,
                    "duration": 1.2368579999999838
                },
                {
                    "name": "E4",
                    "midi": 64,
                    "time": 193.15599099999875,
                    "velocity": 0.25984251968503935,
                    "duration": 0.2061429999999973
                },
                {
                    "name": "A#4",
                    "midi": 70,
                    "time": 193.36213399999875,
                    "velocity": 0.2992125984251969,
                    "duration": 0.2061429999999973
                },
                {
                    "name": "C#5",
                    "midi": 73,
                    "time": 193.36213399999875,
                    "velocity": 0.2992125984251969,
                    "duration": 0.2061429999999973
                },
                {
                    "name": "E4",
                    "midi": 64,
                    "time": 193.56827699999874,
                    "velocity": 0.25196850393700787,
                    "duration": 0.2061429999999973
                },
                {
                    "name": "A#4",
                    "midi": 70,
                    "time": 193.77441999999874,
                    "velocity": 0.2992125984251969,
                    "duration": 0.2061429999999973
                },
                {
                    "name": "C#5",
                    "midi": 73,
                    "time": 193.77441999999874,
                    "velocity": 0.2992125984251969,
                    "duration": 0.2061429999999973
                },
                {
                    "name": "E4",
                    "midi": 64,
                    "time": 193.98056299999874,
                    "velocity": 0.2677165354330709,
                    "duration": 0.2061429999999973
                },
                {
                    "name": "F5",
                    "midi": 77,
                    "time": 194.18670599999874,
                    "velocity": 0.44881889763779526,
                    "duration": 0.8245719999999892
                },
                {
                    "name": "D5",
                    "midi": 74,
                    "time": 194.18670599999874,
                    "velocity": 0.23622047244094488,
                    "duration": 0.2061429999999973
                },
                {
                    "name": "A4",
                    "midi": 69,
                    "time": 194.18670599999874,
                    "velocity": 0.23622047244094488,
                    "duration": 0.2061429999999973
                },
                {
                    "name": "F4",
                    "midi": 65,
                    "time": 194.39284899999873,
                    "velocity": 0.2125984251968504,
                    "duration": 0.2061429999999973
                },
                {
                    "name": "A4",
                    "midi": 69,
                    "time": 194.59899199999873,
                    "velocity": 0.2677165354330709,
                    "duration": 0.2061429999999973
                },
                {
                    "name": "D5",
                    "midi": 74,
                    "time": 194.59899199999873,
                    "velocity": 0.2677165354330709,
                    "duration": 0.2061429999999973
                },
                {
                    "name": "F4",
                    "midi": 65,
                    "time": 194.80513499999873,
                    "velocity": 0.2125984251968504,
                    "duration": 0.2061429999999973
                },
                {
                    "name": "A#4",
                    "midi": 70,
                    "time": 195.01127799999873,
                    "velocity": 0.29133858267716534,
                    "duration": 0.2061429999999973
                },
                {
                    "name": "E5",
                    "midi": 76,
                    "time": 195.01127799999873,
                    "velocity": 0.3937007874015748,
                    "duration": 0.4079913541666542
                },
                {
                    "name": "C#5",
                    "midi": 73,
                    "time": 195.01127799999873,
                    "velocity": 0.29133858267716534,
                    "duration": 0.2061429999999973
                },
                {
                    "name": "G4",
                    "midi": 67,
                    "time": 195.21742099999872,
                    "velocity": 0.2283464566929134,
                    "duration": 0.2061429999999973
                },
                {
                    "name": "C#5",
                    "midi": 73,
                    "time": 195.42356399999872,
                    "velocity": 0.33858267716535434,
                    "duration": 0.2061429999999973
                },
                {
                    "name": "E5",
                    "midi": 76,
                    "time": 195.42356399999872,
                    "velocity": 0.4015748031496063,
                    "duration": 0.8245719999999892
                },
                {
                    "name": "A#4",
                    "midi": 70,
                    "time": 195.42356399999872,
                    "velocity": 0.2992125984251969,
                    "duration": 0.2061429999999973
                },
                {
                    "name": "G4",
                    "midi": 67,
                    "time": 195.62970699999872,
                    "velocity": 0.2047244094488189,
                    "duration": 0.2061429999999973
                },
                {
                    "name": "C#5",
                    "midi": 73,
                    "time": 195.83584999999871,
                    "velocity": 0.25984251968503935,
                    "duration": 0.2061429999999973
                },
                {
                    "name": "A#4",
                    "midi": 70,
                    "time": 195.83584999999871,
                    "velocity": 0.2283464566929134,
                    "duration": 0.2061429999999973
                },
                {
                    "name": "G4",
                    "midi": 67,
                    "time": 196.0419929999987,
                    "velocity": 0.2047244094488189,
                    "duration": 0.2061429999999973
                },
                {
                    "name": "A4",
                    "midi": 69,
                    "time": 196.2481359999987,
                    "velocity": 0.2755905511811024,
                    "duration": 0.2061429999999973
                },
                {
                    "name": "D5",
                    "midi": 74,
                    "time": 196.2481359999987,
                    "velocity": 0.3700787401574803,
                    "duration": 0.4122859999999946
                },
                {
                    "name": "F4",
                    "midi": 65,
                    "time": 196.4542789999987,
                    "velocity": 0.2047244094488189,
                    "duration": 0.2061429999999973
                },
                {
                    "name": "A4",
                    "midi": 69,
                    "time": 196.6604219999987,
                    "velocity": 0.25984251968503935,
                    "duration": 0.2061429999999973
                },
                {
                    "name": "E5",
                    "midi": 76,
                    "time": 196.6604219999987,
                    "velocity": 0.3464566929133858,
                    "duration": 0.8245719999999892
                },
                {
                    "name": "C#5",
                    "midi": 73,
                    "time": 196.6604219999987,
                    "velocity": 0.25984251968503935,
                    "duration": 0.2061429999999973
                },
                {
                    "name": "E4",
                    "midi": 64,
                    "time": 196.8665649999987,
                    "velocity": 0.2047244094488189,
                    "duration": 0.2061429999999973
                },
                {
                    "name": "A4",
                    "midi": 69,
                    "time": 197.0727079999987,
                    "velocity": 0.2047244094488189,
                    "duration": 0.2061429999999973
                },
                {
                    "name": "C#5",
                    "midi": 73,
                    "time": 197.0727079999987,
                    "velocity": 0.2047244094488189,
                    "duration": 0.2061429999999973
                },
                {
                    "name": "E4",
                    "midi": 64,
                    "time": 197.2788509999987,
                    "velocity": 0.2047244094488189,
                    "duration": 0.2061429999999973
                },
                {
                    "name": "D5",
                    "midi": 74,
                    "time": 197.4849939999987,
                    "velocity": 0.2755905511811024,
                    "duration": 0.2061429999999973
                },
                {
                    "name": "F5",
                    "midi": 77,
                    "time": 197.4849939999987,
                    "velocity": 0.3700787401574803,
                    "duration": 0.4122859999999946
                },
                {
                    "name": "A4",
                    "midi": 69,
                    "time": 197.4849939999987,
                    "velocity": 0.2755905511811024,
                    "duration": 0.2061429999999973
                },
                {
                    "name": "F4",
                    "midi": 65,
                    "time": 197.6911369999987,
                    "velocity": 0.2204724409448819,
                    "duration": 0.2061429999999973
                },
                {
                    "name": "G4",
                    "midi": 67,
                    "time": 197.8972799999987,
                    "velocity": 0.23622047244094488,
                    "duration": 0.2061429999999973
                },
                {
                    "name": "C5",
                    "midi": 72,
                    "time": 197.8972799999987,
                    "velocity": 0.31496062992125984,
                    "duration": 2.4737159999999676
                },
                {
                    "name": "E4",
                    "midi": 64,
                    "time": 198.10342299999868,
                    "velocity": 0.15748031496062992,
                    "duration": 0.2061429999999973
                },
                {
                    "name": "G4",
                    "midi": 67,
                    "time": 198.30956599999868,
                    "velocity": 0.23622047244094488,
                    "duration": 0.2061429999999973
                },
                {
                    "name": "E4",
                    "midi": 64,
                    "time": 198.51570899999868,
                    "velocity": 0.16535433070866143,
                    "duration": 0.2061429999999973
                },
                {
                    "name": "G4",
                    "midi": 67,
                    "time": 198.72185199999868,
                    "velocity": 0.23622047244094488,
                    "duration": 0.2061429999999973
                },
                {
                    "name": "E4",
                    "midi": 64,
                    "time": 198.92799499999867,
                    "velocity": 0.15748031496062992,
                    "duration": 0.2061429999999973
                },
                {
                    "name": "G4",
                    "midi": 67,
                    "time": 199.13413799999867,
                    "velocity": 0.23622047244094488,
                    "duration": 0.2061429999999973
                },
                {
                    "name": "E4",
                    "midi": 64,
                    "time": 199.34028099999867,
                    "velocity": 0.1732283464566929,
                    "duration": 0.2061429999999973
                },
                {
                    "name": "G4",
                    "midi": 67,
                    "time": 199.54642399999867,
                    "velocity": 0.23622047244094488,
                    "duration": 0.2061429999999973
                },
                {
                    "name": "E4",
                    "midi": 64,
                    "time": 199.75256699999866,
                    "velocity": 0.16535433070866143,
                    "duration": 0.2061429999999973
                },
                {
                    "name": "A4",
                    "midi": 69,
                    "time": 199.95870999999866,
                    "velocity": 0.23622047244094488,
                    "duration": 0.2061429999999973
                },
                {
                    "name": "E4",
                    "midi": 64,
                    "time": 200.16485299999866,
                    "velocity": 0.1732283464566929,
                    "duration": 0.2061429999999973
                },
                {
                    "name": "G4",
                    "midi": 67,
                    "time": 200.37099599999866,
                    "velocity": 0.23622047244094488,
                    "duration": 0.2061429999999973
                },
                {
                    "name": "B4",
                    "midi": 71,
                    "time": 200.37099599999866,
                    "velocity": 0.31496062992125984,
                    "duration": 0.4122859999999946
                },
                {
                    "name": "D4",
                    "midi": 62,
                    "time": 200.57713899999865,
                    "velocity": 0.18110236220472442,
                    "duration": 0.2061429999999973
                },
                {
                    "name": "G4",
                    "midi": 67,
                    "time": 200.78328199999865,
                    "velocity": 0.23622047244094488,
                    "duration": 0.2061429999999973
                },
                {
                    "name": "C5",
                    "midi": 72,
                    "time": 200.78328199999865,
                    "velocity": 0.28346456692913385,
                    "duration": 0.4122859999999946
                },
                {
                    "name": "F4",
                    "midi": 65,
                    "time": 200.98942499999865,
                    "velocity": 0.1889763779527559,
                    "duration": 0.2061429999999973
                },
                {
                    "name": "G4",
                    "midi": 67,
                    "time": 201.19556799999864,
                    "velocity": 0.23622047244094488,
                    "duration": 0.2061429999999973
                },
                {
                    "name": "D5",
                    "midi": 74,
                    "time": 201.19556799999864,
                    "velocity": 0.31496062992125984,
                    "duration": 0.4122859999999946
                },
                {
                    "name": "F4",
                    "midi": 65,
                    "time": 201.40171099999864,
                    "velocity": 0.1889763779527559,
                    "duration": 0.2061429999999973
                },
                {
                    "name": "G4",
                    "midi": 67,
                    "time": 201.60785399999864,
                    "velocity": 0.23622047244094488,
                    "duration": 0.2061429999999973
                },
                {
                    "name": "E5",
                    "midi": 76,
                    "time": 201.60785399999864,
                    "velocity": 0.3464566929133858,
                    "duration": 0.4122859999999946
                },
                {
                    "name": "E4",
                    "midi": 64,
                    "time": 201.81399699999864,
                    "velocity": 0.18110236220472442,
                    "duration": 0.2061429999999973
                },
                {
                    "name": "F5",
                    "midi": 77,
                    "time": 202.02013999999863,
                    "velocity": 0.3858267716535433,
                    "duration": 0.4122859999999946
                },
                {
                    "name": "B4",
                    "midi": 71,
                    "time": 202.02013999999863,
                    "velocity": 0.23622047244094488,
                    "duration": 0.2061429999999973
                },
                {
                    "name": "G4",
                    "midi": 67,
                    "time": 202.22628299999863,
                    "velocity": 0.23622047244094488,
                    "duration": 0.2061429999999973
                },
                {
                    "name": "C5",
                    "midi": 72,
                    "time": 202.43242599999863,
                    "velocity": 0.23622047244094488,
                    "duration": 0.2061429999999973
                },
                {
                    "name": "G5",
                    "midi": 79,
                    "time": 202.43242599999863,
                    "velocity": 0.44881889763779526,
                    "duration": 0.4122859999999946
                },
                {
                    "name": "G4",
                    "midi": 67,
                    "time": 202.63856899999863,
                    "velocity": 0.23622047244094488,
                    "duration": 0.2061429999999973
                },
                {
                    "name": "A#5",
                    "midi": 82,
                    "time": 202.84471199999862,
                    "velocity": 0.4881889763779528,
                    "duration": 1.2368579999999838
                },
                {
                    "name": "C#5",
                    "midi": 73,
                    "time": 202.84471199999862,
                    "velocity": 0.2677165354330709,
                    "duration": 0.2061429999999973
                },
                {
                    "name": "A#4",
                    "midi": 70,
                    "time": 203.05085499999862,
                    "velocity": 0.29133858267716534,
                    "duration": 0.2061429999999973
                },
                {
                    "name": "C#5",
                    "midi": 73,
                    "time": 203.25699799999862,
                    "velocity": 0.33858267716535434,
                    "duration": 0.2061429999999973
                },
                {
                    "name": "A#4",
                    "midi": 70,
                    "time": 203.46314099999861,
                    "velocity": 0.28346456692913385,
                    "duration": 0.2061429999999973
                },
                {
                    "name": "C#5",
                    "midi": 73,
                    "time": 203.6692839999986,
                    "velocity": 0.33858267716535434,
                    "duration": 0.2061429999999973
                },
                {
                    "name": "A#4",
                    "midi": 70,
                    "time": 203.8754269999986,
                    "velocity": 0.2992125984251969,
                    "duration": 0.2061429999999973
                },
                {
                    "name": "A5",
                    "midi": 81,
                    "time": 204.0815699999986,
                    "velocity": 0.44881889763779526,
                    "duration": 0.8245719999999892
                },
                {
                    "name": "D5",
                    "midi": 74,
                    "time": 204.0815699999986,
                    "velocity": 0.2677165354330709,
                    "duration": 0.2061429999999973
                },
                {
                    "name": "A4",
                    "midi": 69,
                    "time": 204.2877129999986,
                    "velocity": 0.23622047244094488,
                    "duration": 0.2061429999999973
                },
                {
                    "name": "D5",
                    "midi": 74,
                    "time": 204.4938559999986,
                    "velocity": 0.28346456692913385,
                    "duration": 0.2061429999999973
                },
                {
                    "name": "A4",
                    "midi": 69,
                    "time": 204.6999989999986,
                    "velocity": 0.2283464566929134,
                    "duration": 0.2061429999999973
                },
                {
                    "name": "D5",
                    "midi": 74,
                    "time": 204.9061419999986,
                    "velocity": 0.2677165354330709,
                    "duration": 0.2061429999999973
                },
                {
                    "name": "G#5",
                    "midi": 80,
                    "time": 204.9061419999986,
                    "velocity": 0.33070866141732286,
                    "duration": 0.4079913541666542
                },
                {
                    "name": "B4",
                    "midi": 71,
                    "time": 205.1122849999986,
                    "velocity": 0.2047244094488189,
                    "duration": 0.2061429999999973
                },
                {
                    "name": "C#5",
                    "midi": 73,
                    "time": 205.3184279999986,
                    "velocity": 0.2677165354330709,
                    "duration": 0.2061429999999973
                },
                {
                    "name": "G5",
                    "midi": 79,
                    "time": 205.3184279999986,
                    "velocity": 0.3543307086614173,
                    "duration": 0.8245719999999892
                },
                {
                    "name": "A4",
                    "midi": 69,
                    "time": 205.5245709999986,
                    "velocity": 0.18110236220472442,
                    "duration": 0.2061429999999973
                },
                {
                    "name": "C#5",
                    "midi": 73,
                    "time": 205.73071399999858,
                    "velocity": 0.2047244094488189,
                    "duration": 0.2061429999999973
                },
                {
                    "name": "A4",
                    "midi": 69,
                    "time": 205.93685699999858,
                    "velocity": 0.18110236220472442,
                    "duration": 0.2061429999999973
                },
                {
                    "name": "F#5",
                    "midi": 78,
                    "time": 206.14299999999858,
                    "velocity": 0.33070866141732286,
                    "duration": 0.4122859999999946
                },
                {
                    "name": "C#5",
                    "midi": 73,
                    "time": 206.14299999999858,
                    "velocity": 0.2440944881889764,
                    "duration": 0.2061429999999973
                },
                {
                    "name": "A4",
                    "midi": 69,
                    "time": 206.34914299999858,
                    "velocity": 0.18110236220472442,
                    "duration": 0.2061429999999973
                },
                {
                    "name": "G5",
                    "midi": 79,
                    "time": 206.55528599999857,
                    "velocity": 0.30708661417322836,
                    "duration": 0.8245719999999892
                },
                {
                    "name": "C#5",
                    "midi": 73,
                    "time": 206.55528599999857,
                    "velocity": 0.2283464566929134,
                    "duration": 0.2061429999999973
                },
                {
                    "name": "A4",
                    "midi": 69,
                    "time": 206.76142899999857,
                    "velocity": 0.18110236220472442,
                    "duration": 0.2061429999999973
                },
                {
                    "name": "C#5",
                    "midi": 73,
                    "time": 206.96757199999857,
                    "velocity": 0.18110236220472442,
                    "duration": 0.2061429999999973
                },
                {
                    "name": "A4",
                    "midi": 69,
                    "time": 207.17371499999857,
                    "velocity": 0.18110236220472442,
                    "duration": 0.2061429999999973
                },
                {
                    "name": "C#5",
                    "midi": 73,
                    "time": 207.37985799999856,
                    "velocity": 0.2440944881889764,
                    "duration": 0.2061429999999973
                },
                {
                    "name": "A#5",
                    "midi": 82,
                    "time": 207.37985799999856,
                    "velocity": 0.33070866141732286,
                    "duration": 0.4122859999999946
                },
                {
                    "name": "A4",
                    "midi": 69,
                    "time": 207.58600099999856,
                    "velocity": 0.1968503937007874,
                    "duration": 0.2061429999999973
                },
                {
                    "name": "C#5",
                    "midi": 73,
                    "time": 207.79214399999856,
                    "velocity": 0.2125984251968504,
                    "duration": 0.2061429999999973
                },
                {
                    "name": "A5",
                    "midi": 81,
                    "time": 207.79214399999856,
                    "velocity": 0.4015748031496063,
                    "duration": 1.2368579999999838
                },
                {
                    "name": "A#4",
                    "midi": 70,
                    "time": 207.99828699999856,
                    "velocity": 0.1889763779527559,
                    "duration": 0.2061429999999973
                },
                {
                    "name": "C#5",
                    "midi": 73,
                    "time": 208.20442999999855,
                    "velocity": 0.23622047244094488,
                    "duration": 0.2061429999999973
                },
                {
                    "name": "A#4",
                    "midi": 70,
                    "time": 208.41057299999855,
                    "velocity": 0.1889763779527559,
                    "duration": 0.2061429999999973
                },
                {
                    "name": "C#5",
                    "midi": 73,
                    "time": 208.61671599999855,
                    "velocity": 0.2283464566929134,
                    "duration": 0.2061429999999973
                },
                {
                    "name": "A#4",
                    "midi": 70,
                    "time": 208.82285899999854,
                    "velocity": 0.18110236220472442,
                    "duration": 0.2061429999999973
                },
                {
                    "name": "C#5",
                    "midi": 73,
                    "time": 209.02900199999854,
                    "velocity": 0.2992125984251969,
                    "duration": 0.2061429999999973
                },
                {
                    "name": "G5",
                    "midi": 79,
                    "time": 209.02900199999854,
                    "velocity": 0.3543307086614173,
                    "duration": 0.4122859999999946
                },
                {
                    "name": "A#4",
                    "midi": 70,
                    "time": 209.23514499999854,
                    "velocity": 0.18110236220472442,
                    "duration": 0.2061429999999973
                },
                {
                    "name": "C#5",
                    "midi": 73,
                    "time": 209.44128799999854,
                    "velocity": 0.2047244094488189,
                    "duration": 0.2061429999999973
                },
                {
                    "name": "A#4",
                    "midi": 70,
                    "time": 209.64743099999853,
                    "velocity": 0.18110236220472442,
                    "duration": 0.2061429999999973
                },
                {
                    "name": "C#5",
                    "midi": 73,
                    "time": 209.85357399999853,
                    "velocity": 0.23622047244094488,
                    "duration": 0.2061429999999973
                },
                {
                    "name": "G5",
                    "midi": 79,
                    "time": 209.85357399999853,
                    "velocity": 0.33070866141732286,
                    "duration": 0.4079913541666542
                },
                {
                    "name": "A#4",
                    "midi": 70,
                    "time": 210.05971699999853,
                    "velocity": 0.18110236220472442,
                    "duration": 0.2061429999999973
                },
                {
                    "name": "E5",
                    "midi": 76,
                    "time": 210.26585999999853,
                    "velocity": 0.2677165354330709,
                    "duration": 0.2061429999999973
                },
                {
                    "name": "G5",
                    "midi": 79,
                    "time": 210.26585999999853,
                    "velocity": 0.3543307086614173,
                    "duration": 0.8245719999999892
                },
                {
                    "name": "B4",
                    "midi": 71,
                    "time": 210.47200299999852,
                    "velocity": 0.18110236220472442,
                    "duration": 0.2061429999999973
                },
                {
                    "name": "E5",
                    "midi": 76,
                    "time": 210.67814599999852,
                    "velocity": 0.2047244094488189,
                    "duration": 0.2061429999999973
                },
                {
                    "name": "B4",
                    "midi": 71,
                    "time": 210.88428899999852,
                    "velocity": 0.18110236220472442,
                    "duration": 0.2061429999999973
                },
                {
                    "name": "F#5",
                    "midi": 78,
                    "time": 211.09043199999851,
                    "velocity": 0.33070866141732286,
                    "duration": 0.4122859999999946
                },
                {
                    "name": "E5",
                    "midi": 76,
                    "time": 211.09043199999851,
                    "velocity": 0.2440944881889764,
                    "duration": 0.2061429999999973
                },
                {
                    "name": "B4",
                    "midi": 71,
                    "time": 211.2965749999985,
                    "velocity": 0.18110236220472442,
                    "duration": 0.2061429999999973
                },
                {
                    "name": "E5",
                    "midi": 76,
                    "time": 211.5027179999985,
                    "velocity": 0.2283464566929134,
                    "duration": 0.2061429999999973
                },
                {
                    "name": "G5",
                    "midi": 79,
                    "time": 211.5027179999985,
                    "velocity": 0.30708661417322836,
                    "duration": 0.8245719999999892
                },
                {
                    "name": "B4",
                    "midi": 71,
                    "time": 211.7088609999985,
                    "velocity": 0.18110236220472442,
                    "duration": 0.2061429999999973
                },
                {
                    "name": "E5",
                    "midi": 76,
                    "time": 211.9150039999985,
                    "velocity": 0.18110236220472442,
                    "duration": 0.2061429999999973
                },
                {
                    "name": "B4",
                    "midi": 71,
                    "time": 212.1211469999985,
                    "velocity": 0.18110236220472442,
                    "duration": 0.2061429999999973
                },
                {
                    "name": "E5",
                    "midi": 76,
                    "time": 212.3272899999985,
                    "velocity": 0.2440944881889764,
                    "duration": 0.2061429999999973
                },
                {
                    "name": "B5",
                    "midi": 83,
                    "time": 212.3272899999985,
                    "velocity": 0.33070866141732286,
                    "duration": 0.4122859999999946
                },
                {
                    "name": "B4",
                    "midi": 71,
                    "time": 212.5334329999985,
                    "velocity": 0.1968503937007874,
                    "duration": 0.2061429999999973
                },
                {
                    "name": "A5",
                    "midi": 81,
                    "time": 212.7395759999985,
                    "velocity": 0.4015748031496063,
                    "duration": 1.2368579999999838
                },
                {
                    "name": "E5",
                    "midi": 76,
                    "time": 212.7395759999985,
                    "velocity": 0.2125984251968504,
                    "duration": 0.2061429999999973
                },
                {
                    "name": "A#4",
                    "midi": 70,
                    "time": 212.9457189999985,
                    "velocity": 0.1889763779527559,
                    "duration": 0.2061429999999973
                },
                {
                    "name": "E5",
                    "midi": 76,
                    "time": 213.1518619999985,
                    "velocity": 0.23622047244094488,
                    "duration": 0.2061429999999973
                },
                {
                    "name": "A#4",
                    "midi": 70,
                    "time": 213.35800499999849,
                    "velocity": 0.1889763779527559,
                    "duration": 0.2061429999999973
                },
                {
                    "name": "E5",
                    "midi": 76,
                    "time": 213.56414799999848,
                    "velocity": 0.2283464566929134,
                    "duration": 0.2061429999999973
                },
                {
                    "name": "A#4",
                    "midi": 70,
                    "time": 213.77029099999848,
                    "velocity": 0.18110236220472442,
                    "duration": 0.2061429999999973
                },
                {
                    "name": "G5",
                    "midi": 79,
                    "time": 213.97643399999848,
                    "velocity": 0.3543307086614173,
                    "duration": 0.4122859999999946
                },
                {
                    "name": "E5",
                    "midi": 76,
                    "time": 213.97643399999848,
                    "velocity": 0.2677165354330709,
                    "duration": 0.2061429999999973
                },
                {
                    "name": "A#4",
                    "midi": 70,
                    "time": 214.18257699999847,
                    "velocity": 0.18110236220472442,
                    "duration": 0.2061429999999973
                },
                {
                    "name": "E5",
                    "midi": 76,
                    "time": 214.38871999999847,
                    "velocity": 0.2047244094488189,
                    "duration": 0.2061429999999973
                },
                {
                    "name": "A#4",
                    "midi": 70,
                    "time": 214.59486299999847,
                    "velocity": 0.18110236220472442,
                    "duration": 0.2061429999999973
                },
                {
                    "name": "G5",
                    "midi": 79,
                    "time": 214.80100599999847,
                    "velocity": 0.33070866141732286,
                    "duration": 0.4079913541666542
                },
                {
                    "name": "E5",
                    "midi": 76,
                    "time": 214.80100599999847,
                    "velocity": 0.23622047244094488,
                    "duration": 0.2061429999999973
                },
                {
                    "name": "A#4",
                    "midi": 70,
                    "time": 215.00714899999846,
                    "velocity": 0.18110236220472442,
                    "duration": 0.2061429999999973
                },
                {
                    "name": "B4",
                    "midi": 71,
                    "time": 215.21329199999846,
                    "velocity": 0.2677165354330709,
                    "duration": 0.2061429999999973
                },
                {
                    "name": "G5",
                    "midi": 79,
                    "time": 215.21329199999846,
                    "velocity": 0.3543307086614173,
                    "duration": 0.8245719999999892
                },
                {
                    "name": "G4",
                    "midi": 67,
                    "time": 215.41943499999846,
                    "velocity": 0.18110236220472442,
                    "duration": 0.2061429999999973
                },
                {
                    "name": "B4",
                    "midi": 71,
                    "time": 215.62557799999846,
                    "velocity": 0.2047244094488189,
                    "duration": 0.2061429999999973
                },
                {
                    "name": "G4",
                    "midi": 67,
                    "time": 215.83172099999845,
                    "velocity": 0.18110236220472442,
                    "duration": 0.2061429999999973
                },
                {
                    "name": "B4",
                    "midi": 71,
                    "time": 216.03786399999845,
                    "velocity": 0.2440944881889764,
                    "duration": 0.2061429999999973
                },
                {
                    "name": "F#5",
                    "midi": 78,
                    "time": 216.03786399999845,
                    "velocity": 0.33070866141732286,
                    "duration": 0.4122859999999946
                },
                {
                    "name": "G4",
                    "midi": 67,
                    "time": 216.24400699999845,
                    "velocity": 0.18110236220472442,
                    "duration": 0.2061429999999973
                },
                {
                    "name": "G5",
                    "midi": 79,
                    "time": 216.45014999999844,
                    "velocity": 0.30708661417322836,
                    "duration": 0.8245719999999892
                },
                {
                    "name": "B4",
                    "midi": 71,
                    "time": 216.45014999999844,
                    "velocity": 0.2283464566929134,
                    "duration": 0.2061429999999973
                },
                {
                    "name": "G4",
                    "midi": 67,
                    "time": 216.65629299999844,
                    "velocity": 0.18110236220472442,
                    "duration": 0.2061429999999973
                },
                {
                    "name": "B4",
                    "midi": 71,
                    "time": 216.86243599999844,
                    "velocity": 0.18110236220472442,
                    "duration": 0.2061429999999973
                },
                {
                    "name": "G4",
                    "midi": 67,
                    "time": 217.06857899999844,
                    "velocity": 0.18110236220472442,
                    "duration": 0.2061429999999973
                },
                {
                    "name": "D5",
                    "midi": 74,
                    "time": 217.27472199999843,
                    "velocity": 0.33070866141732286,
                    "duration": 0.4122859999999946
                },
                {
                    "name": "B4",
                    "midi": 71,
                    "time": 217.27472199999843,
                    "velocity": 0.2440944881889764,
                    "duration": 0.2061429999999973
                },
                {
                    "name": "G4",
                    "midi": 67,
                    "time": 217.48086499999843,
                    "velocity": 0.1968503937007874,
                    "duration": 0.2061429999999973
                },
                {
                    "name": "A#4",
                    "midi": 70,
                    "time": 217.68700799999843,
                    "velocity": 0.2677165354330709,
                    "duration": 0.2061429999999973
                },
                {
                    "name": "G4",
                    "midi": 67,
                    "time": 217.89315099999843,
                    "velocity": 0.18110236220472442,
                    "duration": 0.2061429999999973
                },
                {
                    "name": "A#4",
                    "midi": 70,
                    "time": 218.09929399999842,
                    "velocity": 0.2047244094488189,
                    "duration": 0.2061429999999973
                },
                {
                    "name": "G4",
                    "midi": 67,
                    "time": 218.30543699999842,
                    "velocity": 0.18110236220472442,
                    "duration": 0.2061429999999973
                },
                {
                    "name": "A#4",
                    "midi": 70,
                    "time": 218.51157999999842,
                    "velocity": 0.2440944881889764,
                    "duration": 0.2061429999999973
                },
                {
                    "name": "G4",
                    "midi": 67,
                    "time": 218.71772299999841,
                    "velocity": 0.18110236220472442,
                    "duration": 0.2061429999999973
                },
                {
                    "name": "A#4",
                    "midi": 70,
                    "time": 218.9238659999984,
                    "velocity": 0.2283464566929134,
                    "duration": 0.2061429999999973
                },
                {
                    "name": "G4",
                    "midi": 67,
                    "time": 219.1300089999984,
                    "velocity": 0.18110236220472442,
                    "duration": 0.2061429999999973
                },
                {
                    "name": "A#4",
                    "midi": 70,
                    "time": 219.3361519999984,
                    "velocity": 0.18110236220472442,
                    "duration": 0.2061429999999973
                },
                {
                    "name": "G4",
                    "midi": 67,
                    "time": 219.5422949999984,
                    "velocity": 0.18110236220472442,
                    "duration": 0.2061429999999973
                },
                {
                    "name": "A#4",
                    "midi": 70,
                    "time": 219.7484379999984,
                    "velocity": 0.2440944881889764,
                    "duration": 0.2061429999999973
                },
                {
                    "name": "G4",
                    "midi": 67,
                    "time": 219.9545809999984,
                    "velocity": 0.1968503937007874,
                    "duration": 0.2061429999999973
                },
                {
                    "name": "D5",
                    "midi": 74,
                    "time": 220.1607239999984,
                    "velocity": 0.3543307086614173,
                    "duration": 0.8245719999999892
                },
                {
                    "name": "F#4",
                    "midi": 66,
                    "time": 220.1607239999984,
                    "velocity": 0.2677165354330709,
                    "duration": 0.2061429999999973
                },
                {
                    "name": "D4",
                    "midi": 62,
                    "time": 220.3668669999984,
                    "velocity": 0.18110236220472442,
                    "duration": 0.2061429999999973
                },
                {
                    "name": "F#4",
                    "midi": 66,
                    "time": 220.5730099999984,
                    "velocity": 0.2047244094488189,
                    "duration": 0.2061429999999973
                },
                {
                    "name": "D4",
                    "midi": 62,
                    "time": 220.7791529999984,
                    "velocity": 0.18110236220472442,
                    "duration": 0.2061429999999973
                },
                {
                    "name": "F#4",
                    "midi": 66,
                    "time": 220.98529599999839,
                    "velocity": 0.2440944881889764,
                    "duration": 0.2061429999999973
                },
                {
                    "name": "C#5",
                    "midi": 73,
                    "time": 220.98529599999839,
                    "velocity": 0.33070866141732286,
                    "duration": 0.4122859999999946
                },
                {
                    "name": "D4",
                    "midi": 62,
                    "time": 221.19143899999838,
                    "velocity": 0.18110236220472442,
                    "duration": 0.2061429999999973
                },
                {
                    "name": "D5",
                    "midi": 74,
                    "time": 221.39758199999838,
                    "velocity": 0.30708661417322836,
                    "duration": 0.8245719999999892
                },
                {
                    "name": "F#4",
                    "midi": 66,
                    "time": 221.39758199999838,
                    "velocity": 0.2283464566929134,
                    "duration": 0.2061429999999973
                },
                {
                    "name": "D4",
                    "midi": 62,
                    "time": 221.60372499999838,
                    "velocity": 0.18110236220472442,
                    "duration": 0.2061429999999973
                },
                {
                    "name": "F#4",
                    "midi": 66,
                    "time": 221.80986799999837,
                    "velocity": 0.18110236220472442,
                    "duration": 0.2061429999999973
                },
                {
                    "name": "D4",
                    "midi": 62,
                    "time": 222.01601099999837,
                    "velocity": 0.18110236220472442,
                    "duration": 0.2061429999999973
                },
                {
                    "name": "A4",
                    "midi": 69,
                    "time": 222.22215399999837,
                    "velocity": 0.33070866141732286,
                    "duration": 0.4122859999999946
                },
                {
                    "name": "F#4",
                    "midi": 66,
                    "time": 222.22215399999837,
                    "velocity": 0.2440944881889764,
                    "duration": 0.2061429999999973
                },
                {
                    "name": "D4",
                    "midi": 62,
                    "time": 222.42829699999837,
                    "velocity": 0.1968503937007874,
                    "duration": 0.2061429999999973
                },
                {
                    "name": "F4",
                    "midi": 65,
                    "time": 222.63443999999836,
                    "velocity": 0.25196850393700787,
                    "duration": 0.2061429999999973
                },
                {
                    "name": "D4",
                    "midi": 62,
                    "time": 222.84058299999836,
                    "velocity": 0.16535433070866143,
                    "duration": 0.2061429999999973
                },
                {
                    "name": "F4",
                    "midi": 65,
                    "time": 223.04672599999836,
                    "velocity": 0.1889763779527559,
                    "duration": 0.2061429999999973
                },
                {
                    "name": "D4",
                    "midi": 62,
                    "time": 223.25286899999836,
                    "velocity": 0.16535433070866143,
                    "duration": 0.2061429999999973
                },
                {
                    "name": "F4",
                    "midi": 65,
                    "time": 223.45901199999835,
                    "velocity": 0.2204724409448819,
                    "duration": 0.2061429999999973
                },
                {
                    "name": "D4",
                    "midi": 62,
                    "time": 223.66515499999835,
                    "velocity": 0.16535433070866143,
                    "duration": 0.2061429999999973
                },
                {
                    "name": "F4",
                    "midi": 65,
                    "time": 223.87129799999835,
                    "velocity": 0.2125984251968504,
                    "duration": 0.2061429999999973
                },
                {
                    "name": "D4",
                    "midi": 62,
                    "time": 224.07744099999834,
                    "velocity": 0.15748031496062992,
                    "duration": 0.2061429999999973
                },
                {
                    "name": "F4",
                    "midi": 65,
                    "time": 224.28358399999834,
                    "velocity": 0.15748031496062992,
                    "duration": 0.2061429999999973
                },
                {
                    "name": "D4",
                    "midi": 62,
                    "time": 224.48972699999834,
                    "velocity": 0.15748031496062992,
                    "duration": 0.2061429999999973
                },
                {
                    "name": "F4",
                    "midi": 65,
                    "time": 224.69586999999834,
                    "velocity": 0.2125984251968504,
                    "duration": 0.2061429999999973
                },
                {
                    "name": "D4",
                    "midi": 62,
                    "time": 224.90201299999833,
                    "velocity": 0.16535433070866143,
                    "duration": 0.2061429999999973
                },
                {
                    "name": "D5",
                    "midi": 74,
                    "time": 225.10815599999833,
                    "velocity": 0.2677165354330709,
                    "duration": 0.8245719999999892
                },
                {
                    "name": "F4",
                    "midi": 65,
                    "time": 225.10815599999833,
                    "velocity": 0.2047244094488189,
                    "duration": 0.2061429999999973
                },
                {
                    "name": "D4",
                    "midi": 62,
                    "time": 225.31429899999833,
                    "velocity": 0.14960629921259844,
                    "duration": 0.2061429999999973
                },
                {
                    "name": "F4",
                    "midi": 65,
                    "time": 225.52044199999833,
                    "velocity": 0.14960629921259844,
                    "duration": 0.2061429999999973
                },
                {
                    "name": "D4",
                    "midi": 62,
                    "time": 225.72658499999832,
                    "velocity": 0.14960629921259844,
                    "duration": 0.2061429999999973
                },
                {
                    "name": "F4",
                    "midi": 65,
                    "time": 225.93272799999832,
                    "velocity": 0.2125984251968504,
                    "duration": 0.2061429999999973
                },
                {
                    "name": "C#5",
                    "midi": 73,
                    "time": 225.93272799999832,
                    "velocity": 0.28346456692913385,
                    "duration": 0.4122859999999946
                },
                {
                    "name": "D4",
                    "midi": 62,
                    "time": 226.13887099999832,
                    "velocity": 0.16535433070866143,
                    "duration": 0.2061429999999973
                },
                {
                    "name": "F4",
                    "midi": 65,
                    "time": 226.34501399999832,
                    "velocity": 0.2204724409448819,
                    "duration": 0.2061429999999973
                },
                {
                    "name": "D4",
                    "midi": 62,
                    "time": 226.5511569999983,
                    "velocity": 0.14960629921259844,
                    "duration": 0.2061429999999973
                },
                {
                    "name": "F4",
                    "midi": 65,
                    "time": 226.7572999999983,
                    "velocity": 0.16535433070866143,
                    "duration": 0.2061429999999973
                },
                {
                    "name": "D4",
                    "midi": 62,
                    "time": 226.9634429999983,
                    "velocity": 0.14173228346456693,
                    "duration": 0.2061429999999973
                },
                {
                    "name": "F4",
                    "midi": 65,
                    "time": 227.1695859999983,
                    "velocity": 0.2047244094488189,
                    "duration": 0.2061429999999973
                },
                {
                    "name": "D4",
                    "midi": 62,
                    "time": 227.3757289999983,
                    "velocity": 0.14173228346456693,
                    "duration": 0.2061429999999973
                },
                {
                    "name": "F4",
                    "midi": 65,
                    "time": 227.5818719999983,
                    "velocity": 0.1889763779527559,
                    "duration": 0.2061429999999973
                },
                {
                    "name": "D5",
                    "midi": 74,
                    "time": 227.5818719999983,
                    "velocity": 0.2440944881889764,
                    "duration": 2.061429999999973
                },
                {
                    "name": "D4",
                    "midi": 62,
                    "time": 227.7880149999983,
                    "velocity": 0.14173228346456693,
                    "duration": 0.2061429999999973
                },
                {
                    "name": "F4",
                    "midi": 65,
                    "time": 227.9941579999983,
                    "velocity": 0.14173228346456693,
                    "duration": 0.2061429999999973
                },
                {
                    "name": "D4",
                    "midi": 62,
                    "time": 228.2003009999983,
                    "velocity": 0.14173228346456693,
                    "duration": 0.2061429999999973
                },
                {
                    "name": "F4",
                    "midi": 65,
                    "time": 228.4064439999983,
                    "velocity": 0.1968503937007874,
                    "duration": 0.2061429999999973
                },
                {
                    "name": "D4",
                    "midi": 62,
                    "time": 228.61258699999829,
                    "velocity": 0.14960629921259844,
                    "duration": 0.2061429999999973
                },
                {
                    "name": "F4",
                    "midi": 65,
                    "time": 228.81872999999828,
                    "velocity": 0.2125984251968504,
                    "duration": 0.2061429999999973
                },
                {
                    "name": "D4",
                    "midi": 62,
                    "time": 229.02487299999828,
                    "velocity": 0.14173228346456693,
                    "duration": 0.2061429999999973
                },
                {
                    "name": "F4",
                    "midi": 65,
                    "time": 229.23101599999828,
                    "velocity": 0.14960629921259844,
                    "duration": 0.2061429999999973
                },
                {
                    "name": "D4",
                    "midi": 62,
                    "time": 229.43715899999827,
                    "velocity": 0.14173228346456693,
                    "duration": 0.2061429999999973
                },
                {
                    "name": "F4",
                    "midi": 65,
                    "time": 229.64330199999827,
                    "velocity": 0.14960629921259844,
                    "duration": 0.4122859999999946
                },
                {
                    "name": "B3",
                    "midi": 59,
                    "time": 229.64330199999827,
                    "velocity": 0.18110236220472442,
                    "duration": 0.2061429999999973
                },
                {
                    "name": "G3",
                    "midi": 55,
                    "time": 229.84944499999827,
                    "velocity": 0.13385826771653545,
                    "duration": 0.2061429999999973
                },
                {
                    "name": "C4",
                    "midi": 60,
                    "time": 230.05558799999827,
                    "velocity": 0.23622047244094488,
                    "duration": 0.2061429999999973
                },
                {
                    "name": "D#4",
                    "midi": 63,
                    "time": 230.05558799999827,
                    "velocity": 0.31496062992125984,
                    "duration": 1.6491439999999784
                },
                {
                    "name": "G3",
                    "midi": 55,
                    "time": 230.26173099999826,
                    "velocity": 0.15748031496062992,
                    "duration": 0.2061429999999973
                },
                {
                    "name": "C4",
                    "midi": 60,
                    "time": 230.46787399999826,
                    "velocity": 0.23622047244094488,
                    "duration": 0.2061429999999973
                },
                {
                    "name": "G3",
                    "midi": 55,
                    "time": 230.67401699999826,
                    "velocity": 0.16535433070866143,
                    "duration": 0.2061429999999973
                },
                {
                    "name": "C4",
                    "midi": 60,
                    "time": 230.88015999999826,
                    "velocity": 0.23622047244094488,
                    "duration": 0.2061429999999973
                },
                {
                    "name": "G3",
                    "midi": 55,
                    "time": 231.08630299999825,
                    "velocity": 0.15748031496062992,
                    "duration": 0.2061429999999973
                },
                {
                    "name": "C4",
                    "midi": 60,
                    "time": 231.29244599999825,
                    "velocity": 0.2677165354330709,
                    "duration": 0.2061429999999973
                },
                {
                    "name": "G3",
                    "midi": 55,
                    "time": 231.49858899999825,
                    "velocity": 0.1968503937007874,
                    "duration": 0.2061429999999973
                },
                {
                    "name": "D4",
                    "midi": 62,
                    "time": 231.70473199999824,
                    "velocity": 0.2677165354330709,
                    "duration": 0.2061429999999973
                },
                {
                    "name": "F4",
                    "midi": 65,
                    "time": 231.70473199999824,
                    "velocity": 0.31496062992125984,
                    "duration": 0.4122859999999946
                },
                {
                    "name": "G3",
                    "midi": 55,
                    "time": 231.91087499999824,
                    "velocity": 0.1889763779527559,
                    "duration": 0.2061429999999973
                },
                {
                    "name": "D4",
                    "midi": 62,
                    "time": 232.11701799999824,
                    "velocity": 0.2677165354330709,
                    "duration": 0.2061429999999973
                },
                {
                    "name": "F#4",
                    "midi": 66,
                    "time": 232.11701799999824,
                    "velocity": 0.2755905511811024,
                    "duration": 0.4122859999999946
                },
                {
                    "name": "G3",
                    "midi": 55,
                    "time": 232.32316099999824,
                    "velocity": 0.1968503937007874,
                    "duration": 0.2061429999999973
                },
                {
                    "name": "G4",
                    "midi": 67,
                    "time": 232.52930399999823,
                    "velocity": 0.31496062992125984,
                    "duration": 0.4122859999999946
                },
                {
                    "name": "D#4",
                    "midi": 63,
                    "time": 232.52930399999823,
                    "velocity": 0.2677165354330709,
                    "duration": 0.2061429999999973
                },
                {
                    "name": "G3",
                    "midi": 55,
                    "time": 232.73544699999823,
                    "velocity": 0.2047244094488189,
                    "duration": 0.2061429999999973
                },
                {
                    "name": "F4",
                    "midi": 65,
                    "time": 232.94158999999823,
                    "velocity": 0.2677165354330709,
                    "duration": 0.2061429999999973
                },
                {
                    "name": "A4",
                    "midi": 69,
                    "time": 232.94158999999823,
                    "velocity": 0.28346456692913385,
                    "duration": 0.4122859999999946
                },
                {
                    "name": "G3",
                    "midi": 55,
                    "time": 233.14773299999823,
                    "velocity": 0.2125984251968504,
                    "duration": 0.2061429999999973
                },
                {
                    "name": "D4",
                    "midi": 62,
                    "time": 233.35387599999822,
                    "velocity": 0.2677165354330709,
                    "duration": 0.2061429999999973
                },
                {
                    "name": "B4",
                    "midi": 71,
                    "time": 233.35387599999822,
                    "velocity": 0.31496062992125984,
                    "duration": 0.4122859999999946
                },
                {
                    "name": "G3",
                    "midi": 55,
                    "time": 233.56001899999822,
                    "velocity": 0.2125984251968504,
                    "duration": 0.2061429999999973
                },
                {
                    "name": "D#4",
                    "midi": 63,
                    "time": 233.76616199999822,
                    "velocity": 0.2677165354330709,
                    "duration": 0.2061429999999973
                },
                {
                    "name": "C5",
                    "midi": 72,
                    "time": 233.76616199999822,
                    "velocity": 0.3464566929133858,
                    "duration": 0.4122859999999946
                },
                {
                    "name": "C4",
                    "midi": 60,
                    "time": 233.97230499999822,
                    "velocity": 0.2047244094488189,
                    "duration": 0.2061429999999973
                },
                {
                    "name": "F4",
                    "midi": 65,
                    "time": 234.1784479999982,
                    "velocity": 0.2677165354330709,
                    "duration": 0.2061429999999973
                },
                {
                    "name": "D5",
                    "midi": 74,
                    "time": 234.1784479999982,
                    "velocity": 0.3858267716535433,
                    "duration": 0.4122859999999946
                },
                {
                    "name": "C4",
                    "midi": 60,
                    "time": 234.3845909999982,
                    "velocity": 0.2677165354330709,
                    "duration": 0.2061429999999973
                },
                {
                    "name": "G4",
                    "midi": 67,
                    "time": 234.5907339999982,
                    "velocity": 0.2677165354330709,
                    "duration": 0.2061429999999973
                },
                {
                    "name": "D#5",
                    "midi": 75,
                    "time": 234.5907339999982,
                    "velocity": 0.44881889763779526,
                    "duration": 0.4122859999999946
                },
                {
                    "name": "C4",
                    "midi": 60,
                    "time": 234.7968769999982,
                    "velocity": 0.2677165354330709,
                    "duration": 0.2061429999999973
                },
                {
                    "name": "G5",
                    "midi": 79,
                    "time": 235.0030199999982,
                    "velocity": 0.4881889763779528,
                    "duration": 1.2368579999999838
                },
                {
                    "name": "C#5",
                    "midi": 73,
                    "time": 235.0030199999982,
                    "velocity": 0.2677165354330709,
                    "duration": 0.2061429999999973
                },
                {
                    "name": "A#4",
                    "midi": 70,
                    "time": 235.0030199999982,
                    "velocity": 0.2677165354330709,
                    "duration": 0.2061429999999973
                },
                {
                    "name": "E4",
                    "midi": 64,
                    "time": 235.2091629999982,
                    "velocity": 0.29133858267716534,
                    "duration": 0.2061429999999973
                },
                {
                    "name": "A#4",
                    "midi": 70,
                    "time": 235.4153059999982,
                    "velocity": 0.33858267716535434,
                    "duration": 0.2061429999999973
                },
                {
                    "name": "C#5",
                    "midi": 73,
                    "time": 235.4153059999982,
                    "velocity": 0.33858267716535434,
                    "duration": 0.2061429999999973
                },
                {
                    "name": "E4",
                    "midi": 64,
                    "time": 235.6214489999982,
                    "velocity": 0.28346456692913385,
                    "duration": 0.2061429999999973
                },
                {
                    "name": "A#4",
                    "midi": 70,
                    "time": 235.8275919999982,
                    "velocity": 0.33858267716535434,
                    "duration": 0.2061429999999973
                },
                {
                    "name": "C#5",
                    "midi": 73,
                    "time": 235.8275919999982,
                    "velocity": 0.33858267716535434,
                    "duration": 0.2061429999999973
                },
                {
                    "name": "E4",
                    "midi": 64,
                    "time": 236.0337349999982,
                    "velocity": 0.2992125984251969,
                    "duration": 0.2061429999999973
                },
                {
                    "name": "G#4",
                    "midi": 68,
                    "time": 236.23987799999819,
                    "velocity": 0.2677165354330709,
                    "duration": 0.2061429999999973
                },
                {
                    "name": "F5",
                    "midi": 77,
                    "time": 236.23987799999819,
                    "velocity": 0.44881889763779526,
                    "duration": 0.8245719999999892
                },
                {
                    "name": "C#5",
                    "midi": 73,
                    "time": 236.23987799999819,
                    "velocity": 0.2677165354330709,
                    "duration": 0.2061429999999973
                },
                {
                    "name": "F4",
                    "midi": 65,
                    "time": 236.44602099999818,
                    "velocity": 0.2440944881889764,
                    "duration": 0.2061429999999973
                },
                {
                    "name": "C#5",
                    "midi": 73,
                    "time": 236.65216399999818,
                    "velocity": 0.2992125984251969,
                    "duration": 0.2061429999999973
                },
                {
                    "name": "G#4",
                    "midi": 68,
                    "time": 236.65216399999818,
                    "velocity": 0.2992125984251969,
                    "duration": 0.2061429999999973
                },
                {
                    "name": "F4",
                    "midi": 65,
                    "time": 236.85830699999818,
                    "velocity": 0.2440944881889764,
                    "duration": 0.2061429999999973
                },
                {
                    "name": "D#5",
                    "midi": 75,
                    "time": 237.06444999999817,
                    "velocity": 0.3937007874015748,
                    "duration": 0.4079913541666542
                },
                {
                    "name": "G#4",
                    "midi": 68,
                    "time": 237.06444999999817,
                    "velocity": 0.33070866141732286,
                    "duration": 0.2061429999999973
                },
                {
                    "name": "F4",
                    "midi": 65,
                    "time": 237.27059299999817,
                    "velocity": 0.25984251968503935,
                    "duration": 0.2061429999999973
                },
                {
                    "name": "D#5",
                    "midi": 75,
                    "time": 237.47673599999817,
                    "velocity": 0.4015748031496063,
                    "duration": 0.8245719999999892
                },
                {
                    "name": "G#4",
                    "midi": 68,
                    "time": 237.47673599999817,
                    "velocity": 0.33858267716535434,
                    "duration": 0.2061429999999973
                },
                {
                    "name": "F4",
                    "midi": 65,
                    "time": 237.68287899999817,
                    "velocity": 0.2283464566929134,
                    "duration": 0.2061429999999973
                },
                {
                    "name": "G#4",
                    "midi": 68,
                    "time": 237.88902199999816,
                    "velocity": 0.25984251968503935,
                    "duration": 0.2061429999999973
                },
                {
                    "name": "F4",
                    "midi": 65,
                    "time": 238.09516499999816,
                    "velocity": 0.2283464566929134,
                    "duration": 0.2061429999999973
                },
                {
                    "name": "G#4",
                    "midi": 68,
                    "time": 238.30130799999816,
                    "velocity": 0.30708661417322836,
                    "duration": 0.2061429999999973
                },
                {
                    "name": "C#5",
                    "midi": 73,
                    "time": 238.30130799999816,
                    "velocity": 0.3700787401574803,
                    "duration": 0.4122859999999946
                },
                {
                    "name": "F4",
                    "midi": 65,
                    "time": 238.50745099999816,
                    "velocity": 0.2283464566929134,
                    "duration": 0.2061429999999973
                },
                {
                    "name": "G#4",
                    "midi": 68,
                    "time": 238.71359399999815,
                    "velocity": 0.29133858267716534,
                    "duration": 0.2061429999999973
                },
                {
                    "name": "F5",
                    "midi": 77,
                    "time": 238.71359399999815,
                    "velocity": 0.3464566929133858,
                    "duration": 0.8245719999999892
                },
                {
                    "name": "F4",
                    "midi": 65,
                    "time": 238.91973699999815,
                    "velocity": 0.2283464566929134,
                    "duration": 0.2061429999999973
                },
                {
                    "name": "G#4",
                    "midi": 68,
                    "time": 239.12587999999815,
                    "velocity": 0.2283464566929134,
                    "duration": 0.2061429999999973
                },
                {
                    "name": "F4",
                    "midi": 65,
                    "time": 239.33202299999814,
                    "velocity": 0.2283464566929134,
                    "duration": 0.2061429999999973
                },
                {
                    "name": "G#4",
                    "midi": 68,
                    "time": 239.53816599999814,
                    "velocity": 0.30708661417322836,
                    "duration": 0.2061429999999973
                },
                {
                    "name": "C#5",
                    "midi": 73,
                    "time": 239.53816599999814,
                    "velocity": 0.3700787401574803,
                    "duration": 0.4122859999999946
                },
                {
                    "name": "F4",
                    "midi": 65,
                    "time": 239.74430899999814,
                    "velocity": 0.25196850393700787,
                    "duration": 0.2061429999999973
                },
                {
                    "name": "C5",
                    "midi": 72,
                    "time": 239.95045199999814,
                    "velocity": 0.31496062992125984,
                    "duration": 2.4737159999999676
                },
                {
                    "name": "G4",
                    "midi": 67,
                    "time": 239.95045199999814,
                    "velocity": 0.23622047244094488,
                    "duration": 0.2061429999999973
                },
                {
                    "name": "D#4",
                    "midi": 63,
                    "time": 240.15659499999813,
                    "velocity": 0.15748031496062992,
                    "duration": 0.2061429999999973
                },
                {
                    "name": "G4",
                    "midi": 67,
                    "time": 240.36273799999813,
                    "velocity": 0.23622047244094488,
                    "duration": 0.2061429999999973
                },
                {
                    "name": "D#4",
                    "midi": 63,
                    "time": 240.56888099999813,
                    "velocity": 0.16535433070866143,
                    "duration": 0.2061429999999973
                },
                {
                    "name": "G4",
                    "midi": 67,
                    "time": 240.77502399999813,
                    "velocity": 0.23622047244094488,
                    "duration": 0.2061429999999973
                },
                {
                    "name": "D#4",
                    "midi": 63,
                    "time": 240.98116699999812,
                    "velocity": 0.15748031496062992,
                    "duration": 0.2061429999999973
                },
                {
                    "name": "G4",
                    "midi": 67,
                    "time": 241.18730999999812,
                    "velocity": 0.23622047244094488,
                    "duration": 0.2061429999999973
                },
                {
                    "name": "D#4",
                    "midi": 63,
                    "time": 241.39345299999812,
                    "velocity": 0.1732283464566929,
                    "duration": 0.2061429999999973
                },
                {
                    "name": "G4",
                    "midi": 67,
                    "time": 241.59959599999812,
                    "velocity": 0.23622047244094488,
                    "duration": 0.2061429999999973
                },
                {
                    "name": "D#4",
                    "midi": 63,
                    "time": 241.8057389999981,
                    "velocity": 0.16535433070866143,
                    "duration": 0.2061429999999973
                },
                {
                    "name": "A4",
                    "midi": 69,
                    "time": 242.0118819999981,
                    "velocity": 0.23622047244094488,
                    "duration": 0.2061429999999973
                },
                {
                    "name": "D#4",
                    "midi": 63,
                    "time": 242.2180249999981,
                    "velocity": 0.1732283464566929,
                    "duration": 0.2061429999999973
                },
                {
                    "name": "B4",
                    "midi": 71,
                    "time": 242.4241679999981,
                    "velocity": 0.31496062992125984,
                    "duration": 0.4122859999999946
                },
                {
                    "name": "G4",
                    "midi": 67,
                    "time": 242.4241679999981,
                    "velocity": 0.2677165354330709,
                    "duration": 0.2061429999999973
                },
                {
                    "name": "D4",
                    "midi": 62,
                    "time": 242.6303109999981,
                    "velocity": 0.2047244094488189,
                    "duration": 0.2061429999999973
                },
                {
                    "name": "C5",
                    "midi": 72,
                    "time": 242.8364539999981,
                    "velocity": 0.28346456692913385,
                    "duration": 0.4122859999999946
                },
                {
                    "name": "G4",
                    "midi": 67,
                    "time": 242.8364539999981,
                    "velocity": 0.2677165354330709,
                    "duration": 0.2061429999999973
                },
                {
                    "name": "F4",
                    "midi": 65,
                    "time": 243.0425969999981,
                    "velocity": 0.2125984251968504,
                    "duration": 0.2061429999999973
                },
                {
                    "name": "D5",
                    "midi": 74,
                    "time": 243.2487399999981,
                    "velocity": 0.31496062992125984,
                    "duration": 0.4122859999999946
                },
                {
                    "name": "G4",
                    "midi": 67,
                    "time": 243.2487399999981,
                    "velocity": 0.2677165354330709,
                    "duration": 0.2061429999999973
                },
                {
                    "name": "F4",
                    "midi": 65,
                    "time": 243.4548829999981,
                    "velocity": 0.2125984251968504,
                    "duration": 0.2061429999999973
                },
                {
                    "name": "G4",
                    "midi": 67,
                    "time": 243.6610259999981,
                    "velocity": 0.2677165354330709,
                    "duration": 0.2061429999999973
                },
                {
                    "name": "D#5",
                    "midi": 75,
                    "time": 243.6610259999981,
                    "velocity": 0.3464566929133858,
                    "duration": 0.4122859999999946
                },
                {
                    "name": "D#4",
                    "midi": 63,
                    "time": 243.86716899999809,
                    "velocity": 0.2047244094488189,
                    "duration": 0.2061429999999973
                },
                {
                    "name": "B4",
                    "midi": 71,
                    "time": 244.07331199999808,
                    "velocity": 0.2677165354330709,
                    "duration": 0.2061429999999973
                },
                {
                    "name": "F5",
                    "midi": 77,
                    "time": 244.07331199999808,
                    "velocity": 0.3858267716535433,
                    "duration": 0.4122859999999946
                },
                {
                    "name": "G4",
                    "midi": 67,
                    "time": 244.27945499999808,
                    "velocity": 0.2677165354330709,
                    "duration": 0.2061429999999973
                },
                {
                    "name": "C5",
                    "midi": 72,
                    "time": 244.48559799999808,
                    "velocity": 0.2677165354330709,
                    "duration": 0.2061429999999973
                },
                {
                    "name": "G5",
                    "midi": 79,
                    "time": 244.48559799999808,
                    "velocity": 0.44881889763779526,
                    "duration": 0.3349823750000098
                },
                {
                    "name": "G4",
                    "midi": 67,
                    "time": 244.69174099999807,
                    "velocity": 0.2677165354330709,
                    "duration": 0.12883937500001252
                },
                {
                    "name": "A#5",
                    "midi": 82,
                    "time": 244.8978839999981,
                    "velocity": 0.4881889763779528,
                    "duration": 1.2368579999999838
                },
                {
                    "name": "C#5",
                    "midi": 73,
                    "time": 244.8978839999981,
                    "velocity": 0.2677165354330709,
                    "duration": 0.2061429999999973
                },
                {
                    "name": "A#4",
                    "midi": 70,
                    "time": 245.1040269999981,
                    "velocity": 0.29133858267716534,
                    "duration": 0.2061429999999973
                },
                {
                    "name": "C#5",
                    "midi": 73,
                    "time": 245.3101699999981,
                    "velocity": 0.33858267716535434,
                    "duration": 0.2061429999999973
                },
                {
                    "name": "A#4",
                    "midi": 70,
                    "time": 245.5163129999981,
                    "velocity": 0.28346456692913385,
                    "duration": 0.2061429999999973
                },
                {
                    "name": "C#5",
                    "midi": 73,
                    "time": 245.7224559999981,
                    "velocity": 0.33858267716535434,
                    "duration": 0.2061429999999973
                },
                {
                    "name": "A#4",
                    "midi": 70,
                    "time": 245.9285989999981,
                    "velocity": 0.2992125984251969,
                    "duration": 0.2061429999999973
                },
                {
                    "name": "G#5",
                    "midi": 80,
                    "time": 246.13474199999808,
                    "velocity": 0.44881889763779526,
                    "duration": 0.8245719999999892
                },
                {
                    "name": "C#5",
                    "midi": 73,
                    "time": 246.13474199999808,
                    "velocity": 0.2677165354330709,
                    "duration": 0.2061429999999973
                },
                {
                    "name": "G#4",
                    "midi": 68,
                    "time": 246.34088499999808,
                    "velocity": 0.23622047244094488,
                    "duration": 0.2061429999999973
                },
                {
                    "name": "C#5",
                    "midi": 73,
                    "time": 246.54702799999808,
                    "velocity": 0.28346456692913385,
                    "duration": 0.2061429999999973
                },
                {
                    "name": "G#4",
                    "midi": 68,
                    "time": 246.75317099999808,
                    "velocity": 0.2283464566929134,
                    "duration": 0.2061429999999973
                },
                {
                    "name": "G5",
                    "midi": 79,
                    "time": 246.95931399999807,
                    "velocity": 0.33070866141732286,
                    "duration": 0.4079913541666542
                },
                {
                    "name": "C#5",
                    "midi": 73,
                    "time": 246.95931399999807,
                    "velocity": 0.2677165354330709,
                    "duration": 0.2061429999999973
                },
                {
                    "name": "A#4",
                    "midi": 70,
                    "time": 247.16545699999807,
                    "velocity": 0.2047244094488189,
                    "duration": 0.2061429999999973
                },
                {
                    "name": "C#5",
                    "midi": 73,
                    "time": 247.37159999999807,
                    "velocity": 0.3464566929133858,
                    "duration": 0.2061429999999973
                },
                {
                    "name": "G5",
                    "midi": 79,
                    "time": 247.37159999999807,
                    "velocity": 0.4094488188976378,
                    "duration": 1.2368579999999838
                },
                {
                    "name": "A#4",
                    "midi": 70,
                    "time": 247.57774299999807,
                    "velocity": 0.25984251968503935,
                    "duration": 0.2061429999999973
                },
                {
                    "name": "C#5",
                    "midi": 73,
                    "time": 247.78388599999806,
                    "velocity": 0.31496062992125984,
                    "duration": 0.2061429999999973
                },
                {
                    "name": "A#4",
                    "midi": 70,
                    "time": 247.99002899999806,
                    "velocity": 0.2440944881889764,
                    "duration": 0.2061429999999973
                },
                {
                    "name": "C#5",
                    "midi": 73,
                    "time": 248.19617199999806,
                    "velocity": 0.30708661417322836,
                    "duration": 0.2061429999999973
                },
                {
                    "name": "A#4",
                    "midi": 70,
                    "time": 248.40231499999805,
                    "velocity": 0.2283464566929134,
                    "duration": 0.2061429999999973
                },
                {
                    "name": "C#5",
                    "midi": 73,
                    "time": 248.60845799999805,
                    "velocity": 0.30708661417322836,
                    "duration": 0.2061429999999973
                },
                {
                    "name": "F5",
                    "midi": 77,
                    "time": 248.60845799999805,
                    "velocity": 0.36220472440944884,
                    "duration": 0.8245719999999892
                },
                {
                    "name": "G#4",
                    "midi": 68,
                    "time": 248.81460099999805,
                    "velocity": 0.2047244094488189,
                    "duration": 0.2061429999999973
                },
                {
                    "name": "C#5",
                    "midi": 73,
                    "time": 249.02074399999805,
                    "velocity": 0.2755905511811024,
                    "duration": 0.2061429999999973
                },
                {
                    "name": "G#4",
                    "midi": 68,
                    "time": 249.22688699999804,
                    "velocity": 0.2125984251968504,
                    "duration": 0.2061429999999973
                },
                {
                    "name": "C#5",
                    "midi": 73,
                    "time": 249.43302999999804,
                    "velocity": 0.25196850393700787,
                    "duration": 0.2061429999999973
                },
                {
                    "name": "D#5",
                    "midi": 75,
                    "time": 249.43302999999804,
                    "velocity": 0.2992125984251969,
                    "duration": 0.4079913541666542
                },
                {
                    "name": "G4",
                    "midi": 67,
                    "time": 249.63917299999804,
                    "velocity": 0.2047244094488189,
                    "duration": 0.2061429999999973
                },
                {
                    "name": "D#5",
                    "midi": 75,
                    "time": 249.84531599999804,
                    "velocity": 0.3464566929133858,
                    "duration": 2.061429999999973
                },
                {
                    "name": "C#5",
                    "midi": 73,
                    "time": 249.84531599999804,
                    "velocity": 0.2677165354330709,
                    "duration": 0.2061429999999973
                },
                {
                    "name": "G4",
                    "midi": 67,
                    "time": 250.05145899999803,
                    "velocity": 0.18110236220472442,
                    "duration": 0.2061429999999973
                },
                {
                    "name": "C#5",
                    "midi": 73,
                    "time": 250.25760199999803,
                    "velocity": 0.2677165354330709,
                    "duration": 0.2061429999999973
                },
                {
                    "name": "G4",
                    "midi": 67,
                    "time": 250.46374499999803,
                    "velocity": 0.2125984251968504,
                    "duration": 0.2061429999999973
                },
                {
                    "name": "C#5",
                    "midi": 73,
                    "time": 250.66988799999802,
                    "velocity": 0.2755905511811024,
                    "duration": 0.2061429999999973
                },
                {
                    "name": "G4",
                    "midi": 67,
                    "time": 250.87603099999802,
                    "velocity": 0.2047244094488189,
                    "duration": 0.2061429999999973
                },
                {
                    "name": "C#5",
                    "midi": 73,
                    "time": 251.08217399999802,
                    "velocity": 0.2283464566929134,
                    "duration": 0.2061429999999973
                },
                {
                    "name": "G4",
                    "midi": 67,
                    "time": 251.28831699999802,
                    "velocity": 0.1889763779527559,
                    "duration": 0.2061429999999973
                },
                {
                    "name": "C#5",
                    "midi": 73,
                    "time": 251.494459999998,
                    "velocity": 0.28346456692913385,
                    "duration": 0.2061429999999973
                },
                {
                    "name": "G4",
                    "midi": 67,
                    "time": 251.700602999998,
                    "velocity": 0.2204724409448819,
                    "duration": 0.2061429999999973
                },
                {
                    "name": "F5",
                    "midi": 77,
                    "time": 251.906745999998,
                    "velocity": 0.4330708661417323,
                    "duration": 0.4079913541666542
                },
                {
                    "name": "C#5",
                    "midi": 73,
                    "time": 251.906745999998,
                    "velocity": 0.25196850393700787,
                    "duration": 0.2061429999999973
                },
                {
                    "name": "G#4",
                    "midi": 68,
                    "time": 252.112888999998,
                    "velocity": 0.2440944881889764,
                    "duration": 0.2061429999999973
                },
                {
                    "name": "C#5",
                    "midi": 73,
                    "time": 252.319031999998,
                    "velocity": 0.2677165354330709,
                    "duration": 0.2061429999999973
                },
                {
                    "name": "D#5",
                    "midi": 75,
                    "time": 252.319031999998,
                    "velocity": 0.3543307086614173,
                    "duration": 2.061429999999973
                },
                {
                    "name": "G4",
                    "midi": 67,
                    "time": 252.525174999998,
                    "velocity": 0.18110236220472442,
                    "duration": 0.2061429999999973
                },
                {
                    "name": "C#5",
                    "midi": 73,
                    "time": 252.731317999998,
                    "velocity": 0.2677165354330709,
                    "duration": 0.2061429999999973
                },
                {
                    "name": "G4",
                    "midi": 67,
                    "time": 252.937460999998,
                    "velocity": 0.2125984251968504,
                    "duration": 0.2061429999999973
                },
                {
                    "name": "C#5",
                    "midi": 73,
                    "time": 253.143603999998,
                    "velocity": 0.2755905511811024,
                    "duration": 0.2061429999999973
                },
                {
                    "name": "G4",
                    "midi": 67,
                    "time": 253.349746999998,
                    "velocity": 0.2047244094488189,
                    "duration": 0.2061429999999973
                },
                {
                    "name": "C#5",
                    "midi": 73,
                    "time": 253.555889999998,
                    "velocity": 0.2283464566929134,
                    "duration": 0.2061429999999973
                },
                {
                    "name": "G4",
                    "midi": 67,
                    "time": 253.76203299999798,
                    "velocity": 0.1889763779527559,
                    "duration": 0.2061429999999973
                },
                {
                    "name": "C#5",
                    "midi": 73,
                    "time": 253.96817599999798,
                    "velocity": 0.28346456692913385,
                    "duration": 0.2061429999999973
                },
                {
                    "name": "G4",
                    "midi": 67,
                    "time": 254.17431899999798,
                    "velocity": 0.2204724409448819,
                    "duration": 0.2061429999999973
                },
                {
                    "name": "C#5",
                    "midi": 73,
                    "time": 254.38046199999798,
                    "velocity": 0.25196850393700787,
                    "duration": 0.2061429999999973
                },
                {
                    "name": "F5",
                    "midi": 77,
                    "time": 254.38046199999798,
                    "velocity": 0.4330708661417323,
                    "duration": 0.4079913541666542
                },
                {
                    "name": "G#4",
                    "midi": 68,
                    "time": 254.58660499999797,
                    "velocity": 0.2440944881889764,
                    "duration": 0.2061429999999973
                },
                {
                    "name": "C#5",
                    "midi": 73,
                    "time": 254.79274799999797,
                    "velocity": 0.2992125984251969,
                    "duration": 0.2061429999999973
                },
                {
                    "name": "D#5",
                    "midi": 75,
                    "time": 254.79274799999797,
                    "velocity": 0.3543307086614173,
                    "duration": 2.061429999999973
                },
                {
                    "name": "G4",
                    "midi": 67,
                    "time": 254.99889099999797,
                    "velocity": 0.2047244094488189,
                    "duration": 0.2061429999999973
                },
                {
                    "name": "C#5",
                    "midi": 73,
                    "time": 255.20503399999797,
                    "velocity": 0.2992125984251969,
                    "duration": 0.2061429999999973
                },
                {
                    "name": "G4",
                    "midi": 67,
                    "time": 255.41117699999796,
                    "velocity": 0.2440944881889764,
                    "duration": 0.2061429999999973
                },
                {
                    "name": "C#5",
                    "midi": 73,
                    "time": 255.61731999999796,
                    "velocity": 0.30708661417322836,
                    "duration": 0.2061429999999973
                },
                {
                    "name": "G4",
                    "midi": 67,
                    "time": 255.82346299999796,
                    "velocity": 0.2283464566929134,
                    "duration": 0.2061429999999973
                },
                {
                    "name": "C#5",
                    "midi": 73,
                    "time": 256.02960599999795,
                    "velocity": 0.25984251968503935,
                    "duration": 0.2061429999999973
                },
                {
                    "name": "G4",
                    "midi": 67,
                    "time": 256.23574899999795,
                    "velocity": 0.2125984251968504,
                    "duration": 0.2061429999999973
                },
                {
                    "name": "C#5",
                    "midi": 73,
                    "time": 256.44189199999795,
                    "velocity": 0.31496062992125984,
                    "duration": 0.2061429999999973
                },
                {
                    "name": "G4",
                    "midi": 67,
                    "time": 256.64803499999795,
                    "velocity": 0.25196850393700787,
                    "duration": 0.2061429999999973
                },
                {
                    "name": "A#5",
                    "midi": 82,
                    "time": 256.85417799999794,
                    "velocity": 0.47244094488188976,
                    "duration": 0.4079913541666542
                },
                {
                    "name": "C#5",
                    "midi": 73,
                    "time": 256.85417799999794,
                    "velocity": 0.3700787401574803,
                    "duration": 0.2061429999999973
                },
                {
                    "name": "A#4",
                    "midi": 70,
                    "time": 257.06032099999794,
                    "velocity": 0.2755905511811024,
                    "duration": 0.2061429999999973
                },
                {
                    "name": "D#5",
                    "midi": 75,
                    "time": 257.26646399999794,
                    "velocity": 0.3543307086614173,
                    "duration": 2.061429999999973
                },
                {
                    "name": "C#5",
                    "midi": 73,
                    "time": 257.26646399999794,
                    "velocity": 0.2992125984251969,
                    "duration": 0.2061429999999973
                },
                {
                    "name": "A#4",
                    "midi": 70,
                    "time": 257.47260699999794,
                    "velocity": 0.2047244094488189,
                    "duration": 0.2061429999999973
                },
                {
                    "name": "C#5",
                    "midi": 73,
                    "time": 257.67874999999793,
                    "velocity": 0.2992125984251969,
                    "duration": 0.2061429999999973
                },
                {
                    "name": "A#4",
                    "midi": 70,
                    "time": 257.88489299999793,
                    "velocity": 0.2440944881889764,
                    "duration": 0.2061429999999973
                },
                {
                    "name": "C#5",
                    "midi": 73,
                    "time": 258.0910359999979,
                    "velocity": 0.30708661417322836,
                    "duration": 0.2061429999999973
                },
                {
                    "name": "A#4",
                    "midi": 70,
                    "time": 258.2971789999979,
                    "velocity": 0.2283464566929134,
                    "duration": 0.2061429999999973
                },
                {
                    "name": "C#5",
                    "midi": 73,
                    "time": 258.5033219999979,
                    "velocity": 0.25984251968503935,
                    "duration": 0.2061429999999973
                },
                {
                    "name": "A#4",
                    "midi": 70,
                    "time": 258.7094649999979,
                    "velocity": 0.2125984251968504,
                    "duration": 0.2061429999999973
                },
                {
                    "name": "C#5",
                    "midi": 73,
                    "time": 258.9156079999979,
                    "velocity": 0.31496062992125984,
                    "duration": 0.2061429999999973
                },
                {
                    "name": "A#4",
                    "midi": 70,
                    "time": 259.1217509999979,
                    "velocity": 0.25196850393700787,
                    "duration": 0.2061429999999973
                },
                {
                    "name": "C#5",
                    "midi": 73,
                    "time": 259.3278939999979,
                    "velocity": 0.3700787401574803,
                    "duration": 0.2061429999999973
                },
                {
                    "name": "A#5",
                    "midi": 82,
                    "time": 259.3278939999979,
                    "velocity": 0.47244094488188976,
                    "duration": 0.4079913541666542
                },
                {
                    "name": "A#4",
                    "midi": 70,
                    "time": 259.5340369999979,
                    "velocity": 0.2755905511811024,
                    "duration": 0.2061429999999973
                },
                {
                    "name": "C#5",
                    "midi": 73,
                    "time": 259.7401799999979,
                    "velocity": 0.2992125984251969,
                    "duration": 0.2061429999999973
                },
                {
                    "name": "D#5",
                    "midi": 75,
                    "time": 259.7401799999979,
                    "velocity": 0.3543307086614173,
                    "duration": 1.2368579999999838
                },
                {
                    "name": "A#4",
                    "midi": 70,
                    "time": 259.9463229999979,
                    "velocity": 0.2047244094488189,
                    "duration": 0.2061429999999973
                },
                {
                    "name": "C#5",
                    "midi": 73,
                    "time": 260.1524659999979,
                    "velocity": 0.2992125984251969,
                    "duration": 0.2061429999999973
                },
                {
                    "name": "A#4",
                    "midi": 70,
                    "time": 260.3586089999979,
                    "velocity": 0.2440944881889764,
                    "duration": 0.2061429999999973
                },
                {
                    "name": "C#5",
                    "midi": 73,
                    "time": 260.5647519999979,
                    "velocity": 0.30708661417322836,
                    "duration": 0.2061429999999973
                },
                {
                    "name": "A#4",
                    "midi": 70,
                    "time": 260.7708949999979,
                    "velocity": 0.2283464566929134,
                    "duration": 0.2061429999999973
                },
                {
                    "name": "C#5",
                    "midi": 73,
                    "time": 260.9770379999979,
                    "velocity": 0.2992125984251969,
                    "duration": 0.2061429999999973
                },
                {
                    "name": "E5",
                    "midi": 76,
                    "time": 260.9770379999979,
                    "velocity": 0.3543307086614173,
                    "duration": 2.4737159999999676
                },
                {
                    "name": "A#4",
                    "midi": 70,
                    "time": 261.1831809999979,
                    "velocity": 0.2047244094488189,
                    "duration": 0.2061429999999973
                },
                {
                    "name": "C#5",
                    "midi": 73,
                    "time": 261.3893239999979,
                    "velocity": 0.2992125984251969,
                    "duration": 0.2061429999999973
                },
                {
                    "name": "A#4",
                    "midi": 70,
                    "time": 261.5954669999979,
                    "velocity": 0.25196850393700787,
                    "duration": 0.2061429999999973
                },
                {
                    "name": "C#5",
                    "midi": 73,
                    "time": 261.8016099999979,
                    "velocity": 0.31496062992125984,
                    "duration": 0.2061429999999973
                },
                {
                    "name": "A#4",
                    "midi": 70,
                    "time": 262.0077529999979,
                    "velocity": 0.23622047244094488,
                    "duration": 0.2061429999999973
                },
                {
                    "name": "D5",
                    "midi": 74,
                    "time": 262.2138959999979,
                    "velocity": 0.3228346456692913,
                    "duration": 0.2061429999999973
                },
                {
                    "name": "B4",
                    "midi": 71,
                    "time": 262.40973184999785,
                    "velocity": 0.2204724409448819,
                    "duration": 0.2061429999999973
                },
                {
                    "name": "D5",
                    "midi": 74,
                    "time": 262.62618199999787,
                    "velocity": 0.3228346456692913,
                    "duration": 0.2061429999999973
                },
                {
                    "name": "B4",
                    "midi": 71,
                    "time": 262.83232499999787,
                    "velocity": 0.2677165354330709,
                    "duration": 0.2061429999999973
                },
                {
                    "name": "D5",
                    "midi": 74,
                    "time": 263.03846799999786,
                    "velocity": 0.3464566929133858,
                    "duration": 0.2061429999999973
                },
                {
                    "name": "B4",
                    "midi": 71,
                    "time": 263.24461099999786,
                    "velocity": 0.25984251968503935,
                    "duration": 0.2061429999999973
                },
                {
                    "name": "F5",
                    "midi": 77,
                    "time": 263.45075399999786,
                    "velocity": 0.4409448818897638,
                    "duration": 2.4737159999999676
                },
                {
                    "name": "D5",
                    "midi": 74,
                    "time": 263.45075399999786,
                    "velocity": 0.3464566929133858,
                    "duration": 0.2061429999999973
                },
                {
                    "name": "B4",
                    "midi": 71,
                    "time": 263.65689699999785,
                    "velocity": 0.23622047244094488,
                    "duration": 0.2061429999999973
                },
                {
                    "name": "D5",
                    "midi": 74,
                    "time": 263.86303999999785,
                    "velocity": 0.3464566929133858,
                    "duration": 0.2061429999999973
                },
                {
                    "name": "B4",
                    "midi": 71,
                    "time": 264.06918299999785,
                    "velocity": 0.29133858267716534,
                    "duration": 0.2061429999999973
                },
                {
                    "name": "D5",
                    "midi": 74,
                    "time": 264.27532599999785,
                    "velocity": 0.3700787401574803,
                    "duration": 0.2061429999999973
                },
                {
                    "name": "B4",
                    "midi": 71,
                    "time": 264.48146899999784,
                    "velocity": 0.2755905511811024,
                    "duration": 0.2061429999999973
                },
                {
                    "name": "D#5",
                    "midi": 75,
                    "time": 264.68761199999784,
                    "velocity": 0.5511811023622047,
                    "duration": 0.2061429999999973
                },
                {
                    "name": "C5",
                    "midi": 72,
                    "time": 264.89375499999784,
                    "velocity": 0.25196850393700787,
                    "duration": 0.2061429999999973
                },
                {
                    "name": "D#5",
                    "midi": 75,
                    "time": 265.09989799999784,
                    "velocity": 0.3700787401574803,
                    "duration": 0.2061429999999973
                },
                {
                    "name": "C5",
                    "midi": 72,
                    "time": 265.30604099999783,
                    "velocity": 0.30708661417322836,
                    "duration": 0.2061429999999973
                },
                {
                    "name": "D#5",
                    "midi": 75,
                    "time": 265.51218399999783,
                    "velocity": 0.3937007874015748,
                    "duration": 0.2061429999999973
                },
                {
                    "name": "C5",
                    "midi": 72,
                    "time": 265.7183269999978,
                    "velocity": 0.29133858267716534,
                    "duration": 0.2061429999999973
                },
                {
                    "name": "D#5",
                    "midi": 75,
                    "time": 265.9244699999978,
                    "velocity": 0.3937007874015748,
                    "duration": 0.2061429999999973
                },
                {
                    "name": "F#5",
                    "midi": 78,
                    "time": 265.9244699999978,
                    "velocity": 0.5354330708661418,
                    "duration": 1.2368579999999838
                },
                {
                    "name": "C5",
                    "midi": 72,
                    "time": 266.1306129999978,
                    "velocity": 0.2677165354330709,
                    "duration": 0.2061429999999973
                },
                {
                    "name": "D#5",
                    "midi": 75,
                    "time": 266.3367559999978,
                    "velocity": 0.3937007874015748,
                    "duration": 0.2061429999999973
                },
                {
                    "name": "C5",
                    "midi": 72,
                    "time": 266.5428989999978,
                    "velocity": 0.33070866141732286,
                    "duration": 0.2061429999999973
                },
                {
                    "name": "D#5",
                    "midi": 75,
                    "time": 266.7490419999978,
                    "velocity": 0.41732283464566927,
                    "duration": 0.2061429999999973
                },
                {
                    "name": "C5",
                    "midi": 72,
                    "time": 266.9551849999978,
                    "velocity": 0.31496062992125984,
                    "duration": 0.2061429999999973
                },
                {
                    "name": "F#5",
                    "midi": 78,
                    "time": 267.1613279999978,
                    "velocity": 0.4566929133858268,
                    "duration": 0.2061429999999973
                },
                {
                    "name": "C6",
                    "midi": 84,
                    "time": 267.1613279999978,
                    "velocity": 0.5433070866141733,
                    "duration": 1.2368579999999838
                },
                {
                    "name": "C5",
                    "midi": 72,
                    "time": 267.3674709999978,
                    "velocity": 0.33070866141732286,
                    "duration": 0.2061429999999973
                },
                {
                    "name": "F#5",
                    "midi": 78,
                    "time": 267.5736139999978,
                    "velocity": 0.4409448818897638,
                    "duration": 0.2061429999999973
                },
                {
                    "name": "C5",
                    "midi": 72,
                    "time": 267.7797569999978,
                    "velocity": 0.3937007874015748,
                    "duration": 0.2061429999999973
                },
                {
                    "name": "F#5",
                    "midi": 78,
                    "time": 267.9858999999978,
                    "velocity": 0.47244094488188976,
                    "duration": 0.2061429999999973
                },
                {
                    "name": "C5",
                    "midi": 72,
                    "time": 268.1920429999978,
                    "velocity": 0.3779527559055118,
                    "duration": 0.2061429999999973
                },
                {
                    "name": "F#5",
                    "midi": 78,
                    "time": 268.3981859999978,
                    "velocity": 0.33070866141732286,
                    "duration": 0.2061429999999973
                },
                {
                    "name": "C6",
                    "midi": 84,
                    "time": 268.3981859999978,
                    "velocity": 0.5433070866141733,
                    "duration": 0.2061429999999973
                },
                {
                    "name": "D6",
                    "midi": 86,
                    "time": 268.3981859999978,
                    "velocity": 0.5433070866141733,
                    "duration": 1.2368579999999838
                },
                {
                    "name": "D5",
                    "midi": 74,
                    "time": 268.6043289999978,
                    "velocity": 0.33070866141732286,
                    "duration": 0.2061429999999973
                },
                {
                    "name": "C6",
                    "midi": 84,
                    "time": 268.8104719999978,
                    "velocity": 0.4409448818897638,
                    "duration": 0.2061429999999973
                },
                {
                    "name": "F#5",
                    "midi": 78,
                    "time": 268.8104719999978,
                    "velocity": 0.3937007874015748,
                    "duration": 0.2061429999999973
                },
                {
                    "name": "D5",
                    "midi": 74,
                    "time": 269.0166149999978,
                    "velocity": 0.3937007874015748,
                    "duration": 0.2061429999999973
                },
                {
                    "name": "F#5",
                    "midi": 78,
                    "time": 269.2227579999978,
                    "velocity": 0.3779527559055118,
                    "duration": 0.2061429999999973
                },
                {
                    "name": "C6",
                    "midi": 84,
                    "time": 269.2227579999978,
                    "velocity": 0.47244094488188976,
                    "duration": 0.2061429999999973
                },
                {
                    "name": "D5",
                    "midi": 74,
                    "time": 269.4289009999978,
                    "velocity": 0.3779527559055118,
                    "duration": 0.10307149999999865
                },
                {
                    "name": "E6",
                    "midi": 88,
                    "time": 269.6350439999978,
                    "velocity": 0.7165354330708661,
                    "duration": 1.6491439999999784
                },
                {
                    "name": "G5",
                    "midi": 79,
                    "time": 269.6350439999978,
                    "velocity": 0.33070866141732286,
                    "duration": 0.2061429999999973
                },
                {
                    "name": "C6",
                    "midi": 84,
                    "time": 269.6350439999978,
                    "velocity": 0.33070866141732286,
                    "duration": 0.2061429999999973
                },
                {
                    "name": "E5",
                    "midi": 76,
                    "time": 269.8411869999978,
                    "velocity": 0.23622047244094488,
                    "duration": 0.2061429999999973
                },
                {
                    "name": "G5",
                    "midi": 79,
                    "time": 270.04732999999777,
                    "velocity": 0.25984251968503935,
                    "duration": 0.2061429999999973
                },
                {
                    "name": "C6",
                    "midi": 84,
                    "time": 270.04732999999777,
                    "velocity": 0.25984251968503935,
                    "duration": 0.2061429999999973
                },
                {
                    "name": "E5",
                    "midi": 76,
                    "time": 270.25347299999777,
                    "velocity": 0.2204724409448819,
                    "duration": 0.2061429999999973
                },
                {
                    "name": "G5",
                    "midi": 79,
                    "time": 270.45961599999777,
                    "velocity": 0.25984251968503935,
                    "duration": 0.2061429999999973
                },
                {
                    "name": "C6",
                    "midi": 84,
                    "time": 270.45961599999777,
                    "velocity": 0.25984251968503935,
                    "duration": 0.2061429999999973
                },
                {
                    "name": "E5",
                    "midi": 76,
                    "time": 270.66575899999776,
                    "velocity": 0.1968503937007874,
                    "duration": 0.2061429999999973
                },
                {
                    "name": "C6",
                    "midi": 84,
                    "time": 270.87190199999776,
                    "velocity": 0.2677165354330709,
                    "duration": 0.2061429999999973
                },
                {
                    "name": "G5",
                    "midi": 79,
                    "time": 270.87190199999776,
                    "velocity": 0.2677165354330709,
                    "duration": 0.2061429999999973
                },
                {
                    "name": "E5",
                    "midi": 76,
                    "time": 271.07804499999776,
                    "velocity": 0.2125984251968504,
                    "duration": 0.2061429999999973
                },
                {
                    "name": "F6",
                    "midi": 89,
                    "time": 271.28418799999776,
                    "velocity": 0.5275590551181102,
                    "duration": 0.4122859999999946
                },
                {
                    "name": "D6",
                    "midi": 86,
                    "time": 271.28418799999776,
                    "velocity": 0.4094488188976378,
                    "duration": 0.2061429999999973
                },
                {
                    "name": "F5",
                    "midi": 77,
                    "time": 271.49033099999775,
                    "velocity": 0.2204724409448819,
                    "duration": 0.2061429999999973
                },
                {
                    "name": "D#6",
                    "midi": 87,
                    "time": 271.69647399999775,
                    "velocity": 0.2440944881889764,
                    "duration": 0.2061429999999973
                },
                {
                    "name": "F#6",
                    "midi": 90,
                    "time": 271.69647399999775,
                    "velocity": 0.5275590551181102,
                    "duration": 0.4122859999999946
                },
                {
                    "name": "F#5",
                    "midi": 78,
                    "time": 271.90261699999775,
                    "velocity": 0.25196850393700787,
                    "duration": 0.2061429999999973
                },
                {
                    "name": "E6",
                    "midi": 88,
                    "time": 272.10875999999774,
                    "velocity": 0.48031496062992124,
                    "duration": 0.2061429999999973
                },
                {
                    "name": "G6",
                    "midi": 91,
                    "time": 272.10875999999774,
                    "velocity": 0.6220472440944882,
                    "duration": 0.2061429999999973
                },
                {
                    "name": "G5",
                    "midi": 79,
                    "time": 272.31490299999774,
                    "velocity": 0.30708661417322836,
                    "duration": 0.2061429999999973
                },
                {
                    "name": "G6",
                    "midi": 91,
                    "time": 272.52104599999774,
                    "velocity": 0.5826771653543307,
                    "duration": 0.2061429999999973
                },
                {
                    "name": "A5",
                    "midi": 81,
                    "time": 272.52104599999774,
                    "velocity": 0.44881889763779526,
                    "duration": 0.2061429999999973
                },
                {
                    "name": "G5",
                    "midi": 79,
                    "time": 272.72718899999774,
                    "velocity": 0.31496062992125984,
                    "duration": 0.2061429999999973
                },
                {
                    "name": "G6",
                    "midi": 91,
                    "time": 272.93333199999773,
                    "velocity": 0.5905511811023622,
                    "duration": 0.2061429999999973
                },
                {
                    "name": "B5",
                    "midi": 83,
                    "time": 272.93333199999773,
                    "velocity": 0.4566929133858268,
                    "duration": 0.2061429999999973
                },
                {
                    "name": "G5",
                    "midi": 79,
                    "time": 273.13947499999773,
                    "velocity": 0.3464566929133858,
                    "duration": 0.2061429999999973
                },
                {
                    "name": "G6",
                    "midi": 91,
                    "time": 273.3456179999977,
                    "velocity": 0.5984251968503937,
                    "duration": 0.2061429999999973
                },
                {
                    "name": "C6",
                    "midi": 84,
                    "time": 273.3456179999977,
                    "velocity": 0.4645669291338583,
                    "duration": 0.2061429999999973
                },
                {
                    "name": "G5",
                    "midi": 79,
                    "time": 273.5517609999977,
                    "velocity": 0.30708661417322836,
                    "duration": 0.2061429999999973
                },
                {
                    "name": "G6",
                    "midi": 91,
                    "time": 273.7579039999977,
                    "velocity": 0.5826771653543307,
                    "duration": 0.2061429999999973
                },
                {
                    "name": "D6",
                    "midi": 86,
                    "time": 273.7579039999977,
                    "velocity": 0.44881889763779526,
                    "duration": 0.2061429999999973
                },
                {
                    "name": "G5",
                    "midi": 79,
                    "time": 273.9640469999977,
                    "velocity": 0.3464566929133858,
                    "duration": 0.2061429999999973
                },
                {
                    "name": "G6",
                    "midi": 91,
                    "time": 274.1701899999977,
                    "velocity": 0.6377952755905512,
                    "duration": 0.2061429999999973
                },
                {
                    "name": "E6",
                    "midi": 88,
                    "time": 274.1701899999977,
                    "velocity": 0.49606299212598426,
                    "duration": 0.2061429999999973
                },
                {
                    "name": "G5",
                    "midi": 79,
                    "time": 274.3763329999977,
                    "velocity": 0.2677165354330709,
                    "duration": 0.2061429999999973
                },
                {
                    "name": "A#5",
                    "midi": 82,
                    "time": 274.5824759999977,
                    "velocity": 0.4409448818897638,
                    "duration": 0.2061429999999973
                },
                {
                    "name": "G6",
                    "midi": 91,
                    "time": 274.5824759999977,
                    "velocity": 0.6692913385826772,
                    "duration": 1.2368579999999838
                },
                {
                    "name": "E6",
                    "midi": 88,
                    "time": 274.5824759999977,
                    "velocity": 0.4409448818897638,
                    "duration": 0.2061429999999973
                },
                {
                    "name": "C#6",
                    "midi": 85,
                    "time": 274.5824759999977,
                    "velocity": 0.4409448818897638,
                    "duration": 0.2061429999999973
                },
                {
                    "name": "G5",
                    "midi": 79,
                    "time": 274.7886189999977,
                    "velocity": 0.33070866141732286,
                    "duration": 0.2061429999999973
                },
                {
                    "name": "C#6",
                    "midi": 85,
                    "time": 274.9947619999977,
                    "velocity": 0.4015748031496063,
                    "duration": 0.2061429999999973
                },
                {
                    "name": "A#5",
                    "midi": 82,
                    "time": 274.9947619999977,
                    "velocity": 0.4015748031496063,
                    "duration": 0.2061429999999973
                },
                {
                    "name": "E6",
                    "midi": 88,
                    "time": 274.9947619999977,
                    "velocity": 0.4015748031496063,
                    "duration": 0.2061429999999973
                },
                {
                    "name": "G5",
                    "midi": 79,
                    "time": 275.2009049999977,
                    "velocity": 0.2992125984251969,
                    "duration": 0.2061429999999973
                },
                {
                    "name": "E6",
                    "midi": 88,
                    "time": 275.4070479999977,
                    "velocity": 0.3700787401574803,
                    "duration": 0.2061429999999973
                },
                {
                    "name": "C#6",
                    "midi": 85,
                    "time": 275.4070479999977,
                    "velocity": 0.3700787401574803,
                    "duration": 0.2061429999999973
                },
                {
                    "name": "A#5",
                    "midi": 82,
                    "time": 275.4070479999977,
                    "velocity": 0.3700787401574803,
                    "duration": 0.2061429999999973
                },
                {
                    "name": "G5",
                    "midi": 79,
                    "time": 275.6131909999977,
                    "velocity": 0.2992125984251969,
                    "duration": 0.2061429999999973
                },
                {
                    "name": "F6",
                    "midi": 89,
                    "time": 275.8193339999977,
                    "velocity": 0.5826771653543307,
                    "duration": 0.8245719999999892
                },
                {
                    "name": "D6",
                    "midi": 86,
                    "time": 275.8193339999977,
                    "velocity": 0.2677165354330709,
                    "duration": 0.2061429999999973
                },
                {
                    "name": "A5",
                    "midi": 81,
                    "time": 275.8193339999977,
                    "velocity": 0.2677165354330709,
                    "duration": 0.2061429999999973
                },
                {
                    "name": "F5",
                    "midi": 77,
                    "time": 276.0254769999977,
                    "velocity": 0.2440944881889764,
                    "duration": 0.2061429999999973
                },
                {
                    "name": "D6",
                    "midi": 86,
                    "time": 276.2316199999977,
                    "velocity": 0.2992125984251969,
                    "duration": 0.2061429999999973
                },
                {
                    "name": "A5",
                    "midi": 81,
                    "time": 276.2316199999977,
                    "velocity": 0.2992125984251969,
                    "duration": 0.2061429999999973
                },
                {
                    "name": "F5",
                    "midi": 77,
                    "time": 276.4377629999977,
                    "velocity": 0.2440944881889764,
                    "duration": 0.2061429999999973
                },
                {
                    "name": "A#5",
                    "midi": 82,
                    "time": 276.6439059999977,
                    "velocity": 0.33070866141732286,
                    "duration": 0.2061429999999973
                },
                {
                    "name": "C#6",
                    "midi": 85,
                    "time": 276.6439059999977,
                    "velocity": 0.33070866141732286,
                    "duration": 0.2061429999999973
                },
                {
                    "name": "E6",
                    "midi": 88,
                    "time": 276.6439059999977,
                    "velocity": 0.5748031496062992,
                    "duration": 0.4079913541666542
                },
                {
                    "name": "G5",
                    "midi": 79,
                    "time": 276.8500489999977,
                    "velocity": 0.25984251968503935,
                    "duration": 0.2061429999999973
                },
                {
                    "name": "A#5",
                    "midi": 82,
                    "time": 277.0561919999977,
                    "velocity": 0.3779527559055118,
                    "duration": 0.2061429999999973
                },
                {
                    "name": "C#6",
                    "midi": 85,
                    "time": 277.0561919999977,
                    "velocity": 0.3779527559055118,
                    "duration": 0.2061429999999973
                },
                {
                    "name": "E6",
                    "midi": 88,
                    "time": 277.0561919999977,
                    "velocity": 0.6062992125984252,
                    "duration": 0.8245719999999892
                },
                {
                    "name": "E5",
                    "midi": 76,
                    "time": 277.2623349999977,
                    "velocity": 0.2283464566929134,
                    "duration": 0.2061429999999973
                },
                {
                    "name": "A#5",
                    "midi": 82,
                    "time": 277.4684779999977,
                    "velocity": 0.29133858267716534,
                    "duration": 0.2061429999999973
                },
                {
                    "name": "C#6",
                    "midi": 85,
                    "time": 277.4684779999977,
                    "velocity": 0.29133858267716534,
                    "duration": 0.2061429999999973
                },
                {
                    "name": "E5",
                    "midi": 76,
                    "time": 277.67462099999767,
                    "velocity": 0.2283464566929134,
                    "duration": 0.2061429999999973
                },
                {
                    "name": "D6",
                    "midi": 86,
                    "time": 277.88076399999767,
                    "velocity": 0.5196850393700787,
                    "duration": 0.4122859999999946
                },
                {
                    "name": "A5",
                    "midi": 81,
                    "time": 277.88076399999767,
                    "velocity": 0.4015748031496063,
                    "duration": 0.2061429999999973
                },
                {
                    "name": "D5",
                    "midi": 74,
                    "time": 278.08690699999767,
                    "velocity": 0.2283464566929134,
                    "duration": 0.2061429999999973
                },
                {
                    "name": "C#6",
                    "midi": 85,
                    "time": 278.29304999999766,
                    "velocity": 0.3700787401574803,
                    "duration": 0.2061429999999973
                },
                {
                    "name": "E6",
                    "midi": 88,
                    "time": 278.29304999999766,
                    "velocity": 0.5669291338582677,
                    "duration": 0.8245719999999892
                },
                {
                    "name": "A5",
                    "midi": 81,
                    "time": 278.29304999999766,
                    "velocity": 0.3700787401574803,
                    "duration": 0.2061429999999973
                },
                {
                    "name": "E5",
                    "midi": 76,
                    "time": 278.49919299999766,
                    "velocity": 0.2677165354330709,
                    "duration": 0.2061429999999973
                },
                {
                    "name": "C#6",
                    "midi": 85,
                    "time": 278.70533599999766,
                    "velocity": 0.33070866141732286,
                    "duration": 0.2061429999999973
                },
                {
                    "name": "A5",
                    "midi": 81,
                    "time": 278.70533599999766,
                    "velocity": 0.33070866141732286,
                    "duration": 0.2061429999999973
                },
                {
                    "name": "E5",
                    "midi": 76,
                    "time": 278.91147899999766,
                    "velocity": 0.23622047244094488,
                    "duration": 0.2061429999999973
                },
                {
                    "name": "A5",
                    "midi": 81,
                    "time": 279.11762199999765,
                    "velocity": 0.3779527559055118,
                    "duration": 0.2061429999999973
                },
                {
                    "name": "D6",
                    "midi": 86,
                    "time": 279.11762199999765,
                    "velocity": 0.3779527559055118,
                    "duration": 0.2061429999999973
                },
                {
                    "name": "F6",
                    "midi": 89,
                    "time": 279.11762199999765,
                    "velocity": 0.5826771653543307,
                    "duration": 0.4122859999999946
                },
                {
                    "name": "F5",
                    "midi": 77,
                    "time": 279.32376499999765,
                    "velocity": 0.25196850393700787,
                    "duration": 0.2061429999999973
                },
                {
                    "name": "C6",
                    "midi": 84,
                    "time": 279.52990799999765,
                    "velocity": 0.5511811023622047,
                    "duration": 1.2368579999999838
                },
                {
                    "name": "G5",
                    "midi": 79,
                    "time": 279.52990799999765,
                    "velocity": 0.3543307086614173,
                    "duration": 0.2061429999999973
                },
                {
                    "name": "E5",
                    "midi": 76,
                    "time": 279.52990799999765,
                    "velocity": 0.3543307086614173,
                    "duration": 0.2061429999999973
                },
                {
                    "name": "C5",
                    "midi": 72,
                    "time": 279.73605099999764,
                    "velocity": 0.1968503937007874,
                    "duration": 0.2061429999999973
                },
                {
                    "name": "G5",
                    "midi": 79,
                    "time": 279.94219399999764,
                    "velocity": 0.33070866141732286,
                    "duration": 0.2061429999999973
                },
                {
                    "name": "E5",
                    "midi": 76,
                    "time": 279.94219399999764,
                    "velocity": 0.33070866141732286,
                    "duration": 0.2061429999999973
                },
                {
                    "name": "C5",
                    "midi": 72,
                    "time": 280.14833699999764,
                    "velocity": 0.2125984251968504,
                    "duration": 0.2061429999999973
                },
                {
                    "name": "E5",
                    "midi": 76,
                    "time": 280.35447999999764,
                    "velocity": 0.31496062992125984,
                    "duration": 0.2061429999999973
                },
                {
                    "name": "G5",
                    "midi": 79,
                    "time": 280.35447999999764,
                    "velocity": 0.31496062992125984,
                    "duration": 0.2061429999999973
                },
                {
                    "name": "C5",
                    "midi": 72,
                    "time": 280.56062299999763,
                    "velocity": 0.18110236220472442,
                    "duration": 0.2061429999999973
                },
                {
                    "name": "D5",
                    "midi": 74,
                    "time": 280.76676599999763,
                    "velocity": 0.3700787401574803,
                    "duration": 0.2061429999999973
                },
                {
                    "name": "B5",
                    "midi": 83,
                    "time": 280.76676599999763,
                    "velocity": 0.5669291338582677,
                    "duration": 0.8245719999999892
                },
                {
                    "name": "G5",
                    "midi": 79,
                    "time": 280.76676599999763,
                    "velocity": 0.3700787401574803,
                    "duration": 0.2061429999999973
                },
                {
                    "name": "B4",
                    "midi": 71,
                    "time": 280.9729089999976,
                    "velocity": 0.28346456692913385,
                    "duration": 0.2061429999999973
                },
                {
                    "name": "D5",
                    "midi": 74,
                    "time": 281.1790519999976,
                    "velocity": 0.44881889763779526,
                    "duration": 0.2061429999999973
                },
                {
                    "name": "G5",
                    "midi": 79,
                    "time": 281.1790519999976,
                    "velocity": 0.44881889763779526,
                    "duration": 0.2061429999999973
                },
                {
                    "name": "B4",
                    "midi": 71,
                    "time": 281.3851949999976,
                    "velocity": 0.30708661417322836,
                    "duration": 0.2061429999999973
                },
                {
                    "name": "A5",
                    "midi": 81,
                    "time": 281.5913379999976,
                    "velocity": 0.5039370078740157,
                    "duration": 0.4122859999999946
                },
                {
                    "name": "D5",
                    "midi": 74,
                    "time": 281.5913379999976,
                    "velocity": 0.4645669291338583,
                    "duration": 0.2061429999999973
                },
                {
                    "name": "A4",
                    "midi": 69,
                    "time": 281.7974809999976,
                    "velocity": 0.3228346456692913,
                    "duration": 0.2061429999999973
                },
                {
                    "name": "G5",
                    "midi": 79,
                    "time": 282.0036239999976,
                    "velocity": 0.4251968503937008,
                    "duration": 0.2061429999999973
                },
                {
                    "name": "B5",
                    "midi": 83,
                    "time": 282.0036239999976,
                    "velocity": 0.5511811023622047,
                    "duration": 0.4122859999999946
                },
                {
                    "name": "D5",
                    "midi": 74,
                    "time": 282.2097669999976,
                    "velocity": 0.3464566929133858,
                    "duration": 0.2061429999999973
                },
                {
                    "name": "C6",
                    "midi": 84,
                    "time": 282.4159099999976,
                    "velocity": 0.5511811023622047,
                    "duration": 0.4122859999999946
                },
                {
                    "name": "G5",
                    "midi": 79,
                    "time": 282.4159099999976,
                    "velocity": 0.4251968503937008,
                    "duration": 0.2061429999999973
                },
                {
                    "name": "C5",
                    "midi": 72,
                    "time": 282.6220529999976,
                    "velocity": 0.3464566929133858,
                    "duration": 0.2061429999999973
                },
                {
                    "name": "D6",
                    "midi": 86,
                    "time": 282.8281959999976,
                    "velocity": 0.5669291338582677,
                    "duration": 0.4122859999999946
                },
                {
                    "name": "G5",
                    "midi": 79,
                    "time": 282.8281959999976,
                    "velocity": 0.4409448818897638,
                    "duration": 0.2061429999999973
                },
                {
                    "name": "D5",
                    "midi": 74,
                    "time": 283.0343389999976,
                    "velocity": 0.3700787401574803,
                    "duration": 0.2061429999999973
                },
                {
                    "name": "G5",
                    "midi": 79,
                    "time": 283.2404819999976,
                    "velocity": 0.4566929133858268,
                    "duration": 0.2061429999999973
                },
                {
                    "name": "E6",
                    "midi": 88,
                    "time": 283.2404819999976,
                    "velocity": 0.5905511811023622,
                    "duration": 0.4122859999999946
                },
                {
                    "name": "E5",
                    "midi": 76,
                    "time": 283.4466249999976,
                    "velocity": 0.3700787401574803,
                    "duration": 0.2061429999999973
                },
                {
                    "name": "F6",
                    "midi": 89,
                    "time": 283.6527679999976,
                    "velocity": 0.5905511811023622,
                    "duration": 0.4122859999999946
                },
                {
                    "name": "B5",
                    "midi": 83,
                    "time": 283.6527679999976,
                    "velocity": 0.4566929133858268,
                    "duration": 0.2061429999999973
                },
                {
                    "name": "F5",
                    "midi": 77,
                    "time": 283.8589109999976,
                    "velocity": 0.4015748031496063,
                    "duration": 0.2061429999999973
                },
                {
                    "name": "C6",
                    "midi": 84,
                    "time": 284.0650539999976,
                    "velocity": 0.4881889763779528,
                    "duration": 0.2061429999999973
                },
                {
                    "name": "G6",
                    "midi": 91,
                    "time": 284.0650539999976,
                    "velocity": 0.6299212598425197,
                    "duration": 0.4122859999999946
                },
                {
                    "name": "G5",
                    "midi": 79,
                    "time": 284.2711969999976,
                    "velocity": 0.4330708661417323,
                    "duration": 0.2061429999999973
                },
                {
                    "name": "G6",
                    "midi": 91,
                    "time": 284.4773399999976,
                    "velocity": 0.5433070866141733,
                    "duration": 0.8245719999999892
                },
                {
                    "name": "C#6",
                    "midi": 85,
                    "time": 284.4773399999976,
                    "velocity": 0.5433070866141733,
                    "duration": 0.2061429999999973
                },
                {
                    "name": "A#6",
                    "midi": 94,
                    "time": 284.4773399999976,
                    "velocity": 0.6456692913385826,
                    "duration": 0.8245719999999892
                },
                {
                    "name": "A#5",
                    "midi": 82,
                    "time": 284.6834829999976,
                    "velocity": 0.4409448818897638,
                    "duration": 0.2061429999999973
                },
                {
                    "name": "C#6",
                    "midi": 85,
                    "time": 284.8896259999976,
                    "velocity": 0.5039370078740157,
                    "duration": 0.2061429999999973
                },
                {
                    "name": "A#5",
                    "midi": 82,
                    "time": 285.0957689999976,
                    "velocity": 0.41732283464566927,
                    "duration": 0.2061429999999973
                },
                {
                    "name": "F6",
                    "midi": 89,
                    "time": 285.30191199999757,
                    "velocity": 0.5433070866141733,
                    "duration": 0.8245719999999892
                },
                {
                    "name": "A6",
                    "midi": 93,
                    "time": 285.30191199999757,
                    "velocity": 0.6456692913385826,
                    "duration": 0.8245719999999892
                },
                {
                    "name": "C6",
                    "midi": 84,
                    "time": 285.30191199999757,
                    "velocity": 0.5433070866141733,
                    "duration": 0.2061429999999973
                },
                {
                    "name": "A5",
                    "midi": 81,
                    "time": 285.50805499999757,
                    "velocity": 0.4409448818897638,
                    "duration": 0.2061429999999973
                },
                {
                    "name": "C6",
                    "midi": 84,
                    "time": 285.71419799999757,
                    "velocity": 0.5039370078740157,
                    "duration": 0.2061429999999973
                },
                {
                    "name": "A5",
                    "midi": 81,
                    "time": 285.92034099999756,
                    "velocity": 0.41732283464566927,
                    "duration": 0.2061429999999973
                },
                {
                    "name": "G#6",
                    "midi": 92,
                    "time": 286.12648399999756,
                    "velocity": 0.6456692913385826,
                    "duration": 0.8245719999999892
                },
                {
                    "name": "C6",
                    "midi": 84,
                    "time": 286.12648399999756,
                    "velocity": 0.5433070866141733,
                    "duration": 0.2061429999999973
                },
                {
                    "name": "D#6",
                    "midi": 87,
                    "time": 286.12648399999756,
                    "velocity": 0.5433070866141733,
                    "duration": 0.8245719999999892
                },
                {
                    "name": "G#5",
                    "midi": 80,
                    "time": 286.33262699999756,
                    "velocity": 0.4409448818897638,
                    "duration": 0.2061429999999973
                },
                {
                    "name": "C6",
                    "midi": 84,
                    "time": 286.53876999999756,
                    "velocity": 0.5039370078740157,
                    "duration": 0.2061429999999973
                },
                {
                    "name": "G#5",
                    "midi": 80,
                    "time": 286.74491299999755,
                    "velocity": 0.41732283464566927,
                    "duration": 0.2061429999999973
                },
                {
                    "name": "G6",
                    "midi": 91,
                    "time": 286.95105599999755,
                    "velocity": 0.6456692913385826,
                    "duration": 0.8245719999999892
                },
                {
                    "name": "D#6",
                    "midi": 87,
                    "time": 286.95105599999755,
                    "velocity": 0.5433070866141733,
                    "duration": 0.8245719999999892
                },
                {
                    "name": "C6",
                    "midi": 84,
                    "time": 286.95105599999755,
                    "velocity": 0.5433070866141733,
                    "duration": 0.2061429999999973
                },
                {
                    "name": "G5",
                    "midi": 79,
                    "time": 287.15719899999755,
                    "velocity": 0.4409448818897638,
                    "duration": 0.2061429999999973
                },
                {
                    "name": "C6",
                    "midi": 84,
                    "time": 287.36334199999754,
                    "velocity": 0.5039370078740157,
                    "duration": 0.2061429999999973
                },
                {
                    "name": "G5",
                    "midi": 79,
                    "time": 287.56948499999754,
                    "velocity": 0.41732283464566927,
                    "duration": 0.2061429999999973
                },
                {
                    "name": "C6",
                    "midi": 84,
                    "time": 287.77562799999754,
                    "velocity": 0.5433070866141733,
                    "duration": 0.2061429999999973
                },
                {
                    "name": "D#6",
                    "midi": 87,
                    "time": 287.77562799999754,
                    "velocity": 0.5433070866141733,
                    "duration": 0.8245719999999892
                },
                {
                    "name": "F#6",
                    "midi": 90,
                    "time": 287.77562799999754,
                    "velocity": 0.6456692913385826,
                    "duration": 0.8245719999999892
                },
                {
                    "name": "F#5",
                    "midi": 78,
                    "time": 287.98177099999754,
                    "velocity": 0.4409448818897638,
                    "duration": 0.2061429999999973
                },
                {
                    "name": "C6",
                    "midi": 84,
                    "time": 288.18791399999753,
                    "velocity": 0.5039370078740157,
                    "duration": 0.2061429999999973
                },
                {
                    "name": "F#5",
                    "midi": 78,
                    "time": 288.39405699999753,
                    "velocity": 0.41732283464566927,
                    "duration": 0.2061429999999973
                },
                {
                    "name": "F6",
                    "midi": 89,
                    "time": 288.6001999999975,
                    "velocity": 0.6456692913385826,
                    "duration": 0.8245719999999892
                },
                {
                    "name": "D6",
                    "midi": 86,
                    "time": 288.6001999999975,
                    "velocity": 0.5433070866141733,
                    "duration": 0.2061429999999973
                },
                {
                    "name": "F5",
                    "midi": 77,
                    "time": 288.8063429999975,
                    "velocity": 0.4409448818897638,
                    "duration": 0.2061429999999973
                },
                {
                    "name": "D6",
                    "midi": 86,
                    "time": 289.0124859999975,
                    "velocity": 0.5039370078740157,
                    "duration": 0.2061429999999973
                },
                {
                    "name": "F5",
                    "midi": 77,
                    "time": 289.2186289999975,
                    "velocity": 0.41732283464566927,
                    "duration": 0.2061429999999973
                },
                {
                    "name": "C6",
                    "midi": 84,
                    "time": 289.4247719999975,
                    "velocity": 0.5433070866141733,
                    "duration": 0.2061429999999973
                },
                {
                    "name": "G5",
                    "midi": 79,
                    "time": 289.4247719999975,
                    "velocity": 0.4409448818897638,
                    "duration": 0.2061429999999973
                },
                {
                    "name": "E6",
                    "midi": 88,
                    "time": 289.4247719999975,
                    "velocity": 0.6456692913385826,
                    "duration": 0.8245719999999892
                },
                {
                    "name": "E5",
                    "midi": 76,
                    "time": 289.6309149999975,
                    "velocity": 0.4409448818897638,
                    "duration": 0.2061429999999973
                },
                {
                    "name": "C6",
                    "midi": 84,
                    "time": 289.8370579999975,
                    "velocity": 0.5039370078740157,
                    "duration": 0.2061429999999973
                },
                {
                    "name": "G5",
                    "midi": 79,
                    "time": 289.8370579999975,
                    "velocity": 0.41732283464566927,
                    "duration": 0.2061429999999973
                },
                {
                    "name": "E5",
                    "midi": 76,
                    "time": 290.0432009999975,
                    "velocity": 0.41732283464566927,
                    "duration": 0.2061429999999973
                },
                {
                    "name": "E6",
                    "midi": 88,
                    "time": 290.2493439999975,
                    "velocity": 0.5433070866141733,
                    "duration": 0.2061429999999973
                },
                {
                    "name": "G6",
                    "midi": 91,
                    "time": 290.2493439999975,
                    "velocity": 0.6456692913385826,
                    "duration": 0.4122859999999946
                },
                {
                    "name": "A#5",
                    "midi": 82,
                    "time": 290.2493439999975,
                    "velocity": 0.4409448818897638,
                    "duration": 0.2061429999999973
                },
                {
                    "name": "G5",
                    "midi": 79,
                    "time": 290.4554869999975,
                    "velocity": 0.4409448818897638,
                    "duration": 0.2061429999999973
                },
                {
                    "name": "F6",
                    "midi": 89,
                    "time": 290.6616299999975,
                    "velocity": 0.6456692913385826,
                    "duration": 0.8245719999999892
                },
                {
                    "name": "D6",
                    "midi": 86,
                    "time": 290.6616299999975,
                    "velocity": 0.5433070866141733,
                    "duration": 0.2061429999999973
                },
                {
                    "name": "A5",
                    "midi": 81,
                    "time": 290.6616299999975,
                    "velocity": 0.4409448818897638,
                    "duration": 0.2061429999999973
                },
                {
                    "name": "F5",
                    "midi": 77,
                    "time": 290.8677729999975,
                    "velocity": 0.4409448818897638,
                    "duration": 0.2061429999999973
                },
                {
                    "name": "D6",
                    "midi": 86,
                    "time": 291.0739159999975,
                    "velocity": 0.5039370078740157,
                    "duration": 0.2061429999999973
                },
                {
                    "name": "A5",
                    "midi": 81,
                    "time": 291.0739159999975,
                    "velocity": 0.41732283464566927,
                    "duration": 0.2061429999999973
                },
                {
                    "name": "F5",
                    "midi": 77,
                    "time": 291.2800589999975,
                    "velocity": 0.41732283464566927,
                    "duration": 0.2061429999999973
                },
                {
                    "name": "D6",
                    "midi": 86,
                    "time": 291.4862019999975,
                    "velocity": 0.6456692913385826,
                    "duration": 0.4122859999999946
                },
                {
                    "name": "A5",
                    "midi": 81,
                    "time": 291.4862019999975,
                    "velocity": 0.4409448818897638,
                    "duration": 0.2061429999999973
                },
                {
                    "name": "D5",
                    "midi": 74,
                    "time": 291.6923449999975,
                    "velocity": 0.4409448818897638,
                    "duration": 0.2061429999999973
                },
                {
                    "name": "C6",
                    "midi": 84,
                    "time": 291.8984879999975,
                    "velocity": 0.6456692913385826,
                    "duration": 1.2368579999999838
                },
                {
                    "name": "G5",
                    "midi": 79,
                    "time": 291.8984879999975,
                    "velocity": 0.5433070866141733,
                    "duration": 0.2061429999999973
                },
                {
                    "name": "E5",
                    "midi": 76,
                    "time": 291.8984879999975,
                    "velocity": 0.4409448818897638,
                    "duration": 0.2061429999999973
                },
                {
                    "name": "C5",
                    "midi": 72,
                    "time": 292.1046309999975,
                    "velocity": 0.4409448818897638,
                    "duration": 0.2061429999999973
                },
                {
                    "name": "G5",
                    "midi": 79,
                    "time": 292.3107739999975,
                    "velocity": 0.5039370078740157,
                    "duration": 0.2061429999999973
                },
                {
                    "name": "E5",
                    "midi": 76,
                    "time": 292.3107739999975,
                    "velocity": 0.41732283464566927,
                    "duration": 0.2061429999999973
                },
                {
                    "name": "C5",
                    "midi": 72,
                    "time": 292.5169169999975,
                    "velocity": 0.41732283464566927,
                    "duration": 0.2061429999999973
                },
                {
                    "name": "G5",
                    "midi": 79,
                    "time": 292.7230599999975,
                    "velocity": 0.4409448818897638,
                    "duration": 0.2061429999999973
                },
                {
                    "name": "E5",
                    "midi": 76,
                    "time": 292.7230599999975,
                    "velocity": 0.41732283464566927,
                    "duration": 0.2061429999999973
                },
                {
                    "name": "C5",
                    "midi": 72,
                    "time": 292.9292029999975,
                    "velocity": 0.4409448818897638,
                    "duration": 0.1546072500000264
                },
                {
                    "name": "F5",
                    "midi": 77,
                    "time": 293.0838102499975,
                    "velocity": 0.3937007874015748,
                    "duration": 0.2576787499999682
                },
                {
                    "name": "B5",
                    "midi": 83,
                    "time": 293.1095781249975,
                    "velocity": 0.4881889763779528,
                    "duration": 0.23191087499998275
                },
                {
                    "name": "E6",
                    "midi": 88,
                    "time": 293.13534599999747,
                    "velocity": 0.5748031496062992,
                    "duration": 0.8245719999999892
                },
                {
                    "name": "E5",
                    "midi": 76,
                    "time": 293.34148899999747,
                    "velocity": 0.3937007874015748,
                    "duration": 0.2061429999999973
                },
                {
                    "name": "B5",
                    "midi": 83,
                    "time": 293.54763199999746,
                    "velocity": 0.44881889763779526,
                    "duration": 0.2061429999999973
                },
                {
                    "name": "F5",
                    "midi": 77,
                    "time": 293.54763199999746,
                    "velocity": 0.3700787401574803,
                    "duration": 0.2061429999999973
                },
                {
                    "name": "E5",
                    "midi": 76,
                    "time": 293.75377499999746,
                    "velocity": 0.3700787401574803,
                    "duration": 0.2061429999999973
                },
                {
                    "name": "F5",
                    "midi": 77,
                    "time": 293.95991799999746,
                    "velocity": 0.3700787401574803,
                    "duration": 0.2061429999999973
                },
                {
                    "name": "B5",
                    "midi": 83,
                    "time": 293.95991799999746,
                    "velocity": 0.3937007874015748,
                    "duration": 0.2061429999999973
                },
                {
                    "name": "D6",
                    "midi": 86,
                    "time": 293.95991799999746,
                    "velocity": 0.5748031496062992,
                    "duration": 0.4122859999999946
                },
                {
                    "name": "E5",
                    "midi": 76,
                    "time": 294.16606099999746,
                    "velocity": 0.3937007874015748,
                    "duration": 0.2061429999999973
                },
                {
                    "name": "C6",
                    "midi": 84,
                    "time": 294.37220399999745,
                    "velocity": 0.5748031496062992,
                    "duration": 1.2368579999999838
                },
                {
                    "name": "E5",
                    "midi": 76,
                    "time": 294.37220399999745,
                    "velocity": 0.3937007874015748,
                    "duration": 0.2061429999999973
                },
                {
                    "name": "G5",
                    "midi": 79,
                    "time": 294.37220399999745,
                    "velocity": 0.4881889763779528,
                    "duration": 0.2061429999999973
                },
                {
                    "name": "C5",
                    "midi": 72,
                    "time": 294.57834699999745,
                    "velocity": 0.3937007874015748,
                    "duration": 0.2061429999999973
                },
                {
                    "name": "G5",
                    "midi": 79,
                    "time": 294.78448999999745,
                    "velocity": 0.44881889763779526,
                    "duration": 0.2061429999999973
                },
                {
                    "name": "E5",
                    "midi": 76,
                    "time": 294.78448999999745,
                    "velocity": 0.3700787401574803,
                    "duration": 0.2061429999999973
                },
                {
                    "name": "C5",
                    "midi": 72,
                    "time": 294.99063299999744,
                    "velocity": 0.3700787401574803,
                    "duration": 0.2061429999999973
                },
                {
                    "name": "E5",
                    "midi": 76,
                    "time": 295.19677599999744,
                    "velocity": 0.3700787401574803,
                    "duration": 0.2061429999999973
                },
                {
                    "name": "G5",
                    "midi": 79,
                    "time": 295.19677599999744,
                    "velocity": 0.3937007874015748,
                    "duration": 0.2061429999999973
                },
                {
                    "name": "C5",
                    "midi": 72,
                    "time": 295.40291899999744,
                    "velocity": 0.3937007874015748,
                    "duration": 0.2061429999999973
                },
                {
                    "name": "G5",
                    "midi": 79,
                    "time": 295.60906199999744,
                    "velocity": 0.3937007874015748,
                    "duration": 0.2061429999999973
                },
                {
                    "name": "A#5",
                    "midi": 82,
                    "time": 295.60906199999744,
                    "velocity": 0.4881889763779528,
                    "duration": 0.2061429999999973
                },
                {
                    "name": "C6",
                    "midi": 84,
                    "time": 295.60906199999744,
                    "velocity": 0.5748031496062992,
                    "duration": 4.947431999999935
                },
                {
                    "name": "C5",
                    "midi": 72,
                    "time": 295.81520499999743,
                    "velocity": 0.3937007874015748,
                    "duration": 0.2061429999999973
                },
                {
                    "name": "G5",
                    "midi": 79,
                    "time": 296.02134799999743,
                    "velocity": 0.3700787401574803,
                    "duration": 0.2061429999999973
                },
                {
                    "name": "A#5",
                    "midi": 82,
                    "time": 296.02134799999743,
                    "velocity": 0.44881889763779526,
                    "duration": 0.2061429999999973
                },
                {
                    "name": "C5",
                    "midi": 72,
                    "time": 296.2274909999974,
                    "velocity": 0.3700787401574803,
                    "duration": 0.2061429999999973
                },
                {
                    "name": "G5",
                    "midi": 79,
                    "time": 296.4336339999974,
                    "velocity": 0.3700787401574803,
                    "duration": 0.2061429999999973
                },
                {
                    "name": "A#5",
                    "midi": 82,
                    "time": 296.4336339999974,
                    "velocity": 0.3937007874015748,
                    "duration": 0.2061429999999973
                },
                {
                    "name": "C5",
                    "midi": 72,
                    "time": 296.6397769999974,
                    "velocity": 0.3937007874015748,
                    "duration": 0.2061429999999973
                },
                {
                    "name": "F5",
                    "midi": 77,
                    "time": 296.8459199999974,
                    "velocity": 0.3937007874015748,
                    "duration": 0.2061429999999973
                },
                {
                    "name": "A5",
                    "midi": 81,
                    "time": 296.8459199999974,
                    "velocity": 0.4881889763779528,
                    "duration": 0.2061429999999973
                },
                {
                    "name": "C5",
                    "midi": 72,
                    "time": 297.0520629999974,
                    "velocity": 0.3937007874015748,
                    "duration": 0.2061429999999973
                },
                {
                    "name": "F5",
                    "midi": 77,
                    "time": 297.2582059999974,
                    "velocity": 0.3700787401574803,
                    "duration": 0.2061429999999973
                },
                {
                    "name": "A5",
                    "midi": 81,
                    "time": 297.2582059999974,
                    "velocity": 0.44881889763779526,
                    "duration": 0.2061429999999973
                },
                {
                    "name": "C5",
                    "midi": 72,
                    "time": 297.4643489999974,
                    "velocity": 0.3700787401574803,
                    "duration": 0.2061429999999973
                },
                {
                    "name": "F5",
                    "midi": 77,
                    "time": 297.6704919999974,
                    "velocity": 0.3700787401574803,
                    "duration": 0.2061429999999973
                },
                {
                    "name": "A5",
                    "midi": 81,
                    "time": 297.6704919999974,
                    "velocity": 0.3937007874015748,
                    "duration": 0.2061429999999973
                },
                {
                    "name": "C5",
                    "midi": 72,
                    "time": 297.8766349999974,
                    "velocity": 0.3937007874015748,
                    "duration": 0.2061429999999973
                },
                {
                    "name": "D5",
                    "midi": 74,
                    "time": 298.0827779999974,
                    "velocity": 0.3937007874015748,
                    "duration": 0.2061429999999973
                },
                {
                    "name": "F5",
                    "midi": 77,
                    "time": 298.0827779999974,
                    "velocity": 0.4881889763779528,
                    "duration": 0.2061429999999973
                },
                {
                    "name": "C5",
                    "midi": 72,
                    "time": 298.2889209999974,
                    "velocity": 0.3937007874015748,
                    "duration": 0.2061429999999973
                },
                {
                    "name": "D5",
                    "midi": 74,
                    "time": 298.4950639999974,
                    "velocity": 0.3700787401574803,
                    "duration": 0.2061429999999973
                },
                {
                    "name": "F5",
                    "midi": 77,
                    "time": 298.4950639999974,
                    "velocity": 0.44881889763779526,
                    "duration": 0.2061429999999973
                },
                {
                    "name": "C5",
                    "midi": 72,
                    "time": 298.7012069999974,
                    "velocity": 0.3700787401574803,
                    "duration": 0.2061429999999973
                },
                {
                    "name": "D5",
                    "midi": 74,
                    "time": 298.9073499999974,
                    "velocity": 0.3700787401574803,
                    "duration": 0.2061429999999973
                },
                {
                    "name": "F5",
                    "midi": 77,
                    "time": 298.9073499999974,
                    "velocity": 0.3937007874015748,
                    "duration": 0.2061429999999973
                },
                {
                    "name": "C5",
                    "midi": 72,
                    "time": 299.1134929999974,
                    "velocity": 0.3937007874015748,
                    "duration": 0.2061429999999973
                },
                {
                    "name": "E5",
                    "midi": 76,
                    "time": 299.3196359999974,
                    "velocity": 0.3937007874015748,
                    "duration": 0.2061429999999973
                },
                {
                    "name": "G5",
                    "midi": 79,
                    "time": 299.3196359999974,
                    "velocity": 0.4881889763779528,
                    "duration": 0.2061429999999973
                },
                {
                    "name": "C5",
                    "midi": 72,
                    "time": 299.5257789999974,
                    "velocity": 0.3937007874015748,
                    "duration": 0.2061429999999973
                },
                {
                    "name": "E5",
                    "midi": 76,
                    "time": 299.7319219999974,
                    "velocity": 0.3700787401574803,
                    "duration": 0.2061429999999973
                },
                {
                    "name": "G5",
                    "midi": 79,
                    "time": 299.7319219999974,
                    "velocity": 0.44881889763779526,
                    "duration": 0.2061429999999973
                },
                {
                    "name": "C5",
                    "midi": 72,
                    "time": 299.9380649999974,
                    "velocity": 0.3700787401574803,
                    "duration": 0.2061429999999973
                },
                {
                    "name": "E5",
                    "midi": 76,
                    "time": 300.1442079999974,
                    "velocity": 0.3700787401574803,
                    "duration": 0.2061429999999973
                },
                {
                    "name": "G5",
                    "midi": 79,
                    "time": 300.1442079999974,
                    "velocity": 0.3937007874015748,
                    "duration": 0.2061429999999973
                },
                {
                    "name": "C5",
                    "midi": 72,
                    "time": 300.3503509999974,
                    "velocity": 0.3937007874015748,
                    "duration": 0.2061429999999973
                },
                {
                    "name": "G4",
                    "midi": 67,
                    "time": 300.5564939999974,
                    "velocity": 0.28346456692913385,
                    "duration": 0.2061429999999973
                },
                {
                    "name": "A#4",
                    "midi": 70,
                    "time": 300.5564939999974,
                    "velocity": 0.3464566929133858,
                    "duration": 0.2061429999999973
                },
                {
                    "name": "C5",
                    "midi": 72,
                    "time": 300.5564939999974,
                    "velocity": 0.5118110236220472,
                    "duration": 8.658005999999887
                },
                {
                    "name": "C4",
                    "midi": 60,
                    "time": 300.76263699999737,
                    "velocity": 0.28346456692913385,
                    "duration": 0.2061429999999973
                },
                {
                    "name": "G4",
                    "midi": 67,
                    "time": 300.96877999999737,
                    "velocity": 0.25984251968503935,
                    "duration": 0.2061429999999973
                },
                {
                    "name": "A#4",
                    "midi": 70,
                    "time": 300.96877999999737,
                    "velocity": 0.31496062992125984,
                    "duration": 0.2061429999999973
                },
                {
                    "name": "C4",
                    "midi": 60,
                    "time": 301.17492299999736,
                    "velocity": 0.25196850393700787,
                    "duration": 0.2061429999999973
                },
                {
                    "name": "G4",
                    "midi": 67,
                    "time": 301.38106599999736,
                    "velocity": 0.25196850393700787,
                    "duration": 0.2061429999999973
                },
                {
                    "name": "A#4",
                    "midi": 70,
                    "time": 301.38106599999736,
                    "velocity": 0.2755905511811024,
                    "duration": 0.2061429999999973
                },
                {
                    "name": "C4",
                    "midi": 60,
                    "time": 301.58720899999736,
                    "velocity": 0.2755905511811024,
                    "duration": 0.2061429999999973
                },
                {
                    "name": "F4",
                    "midi": 65,
                    "time": 301.79335199999736,
                    "velocity": 0.2755905511811024,
                    "duration": 0.2061429999999973
                },
                {
                    "name": "A4",
                    "midi": 69,
                    "time": 301.79335199999736,
                    "velocity": 0.33858267716535434,
                    "duration": 0.2061429999999973
                },
                {
                    "name": "C4",
                    "midi": 60,
                    "time": 301.99949499999735,
                    "velocity": 0.2677165354330709,
                    "duration": 0.2061429999999973
                },
                {
                    "name": "F4",
                    "midi": 65,
                    "time": 302.20563799999735,
                    "velocity": 0.25196850393700787,
                    "duration": 0.2061429999999973
                },
                {
                    "name": "A4",
                    "midi": 69,
                    "time": 302.20563799999735,
                    "velocity": 0.30708661417322836,
                    "duration": 0.2061429999999973
                },
                {
                    "name": "C4",
                    "midi": 60,
                    "time": 302.41178099999735,
                    "velocity": 0.25196850393700787,
                    "duration": 0.2061429999999973
                },
                {
                    "name": "F4",
                    "midi": 65,
                    "time": 302.61792399999734,
                    "velocity": 0.25196850393700787,
                    "duration": 0.2061429999999973
                },
                {
                    "name": "A4",
                    "midi": 69,
                    "time": 302.61792399999734,
                    "velocity": 0.2677165354330709,
                    "duration": 0.2061429999999973
                },
                {
                    "name": "C4",
                    "midi": 60,
                    "time": 302.82406699999734,
                    "velocity": 0.25984251968503935,
                    "duration": 0.2061429999999973
                },
                {
                    "name": "D4",
                    "midi": 62,
                    "time": 303.03020999999734,
                    "velocity": 0.25984251968503935,
                    "duration": 0.2061429999999973
                },
                {
                    "name": "F4",
                    "midi": 65,
                    "time": 303.03020999999734,
                    "velocity": 0.3228346456692913,
                    "duration": 0.2061429999999973
                },
                {
                    "name": "C4",
                    "midi": 60,
                    "time": 303.23635299999734,
                    "velocity": 0.25984251968503935,
                    "duration": 0.2061429999999973
                },
                {
                    "name": "D4",
                    "midi": 62,
                    "time": 303.44249599999733,
                    "velocity": 0.2440944881889764,
                    "duration": 0.2061429999999973
                },
                {
                    "name": "F4",
                    "midi": 65,
                    "time": 303.44249599999733,
                    "velocity": 0.29133858267716534,
                    "duration": 0.2061429999999973
                },
                {
                    "name": "C4",
                    "midi": 60,
                    "time": 303.64863899999733,
                    "velocity": 0.2440944881889764,
                    "duration": 0.2061429999999973
                },
                {
                    "name": "D4",
                    "midi": 62,
                    "time": 303.85478199999733,
                    "velocity": 0.2440944881889764,
                    "duration": 0.2061429999999973
                },
                {
                    "name": "F4",
                    "midi": 65,
                    "time": 303.85478199999733,
                    "velocity": 0.25196850393700787,
                    "duration": 0.2061429999999973
                },
                {
                    "name": "C4",
                    "midi": 60,
                    "time": 304.0609249999973,
                    "velocity": 0.25196850393700787,
                    "duration": 0.2061429999999973
                },
                {
                    "name": "E4",
                    "midi": 64,
                    "time": 304.2670679999973,
                    "velocity": 0.25196850393700787,
                    "duration": 0.2061429999999973
                },
                {
                    "name": "G4",
                    "midi": 67,
                    "time": 304.2670679999973,
                    "velocity": 0.31496062992125984,
                    "duration": 0.2061429999999973
                },
                {
                    "name": "C4",
                    "midi": 60,
                    "time": 304.4732109999973,
                    "velocity": 0.25196850393700787,
                    "duration": 0.2061429999999973
                },
                {
                    "name": "E4",
                    "midi": 64,
                    "time": 304.6793539999973,
                    "velocity": 0.23622047244094488,
                    "duration": 0.2061429999999973
                },
                {
                    "name": "G4",
                    "midi": 67,
                    "time": 304.6793539999973,
                    "velocity": 0.28346456692913385,
                    "duration": 0.2061429999999973
                },
                {
                    "name": "C4",
                    "midi": 60,
                    "time": 304.8854969999973,
                    "velocity": 0.2283464566929134,
                    "duration": 0.2061429999999973
                },
                {
                    "name": "E4",
                    "midi": 64,
                    "time": 305.0916399999973,
                    "velocity": 0.2283464566929134,
                    "duration": 0.2061429999999973
                },
                {
                    "name": "G4",
                    "midi": 67,
                    "time": 305.0916399999973,
                    "velocity": 0.25196850393700787,
                    "duration": 0.2061429999999973
                },
                {
                    "name": "C4",
                    "midi": 60,
                    "time": 305.2977829999973,
                    "velocity": 0.25196850393700787,
                    "duration": 0.2061429999999973
                },
                {
                    "name": "E4",
                    "midi": 64,
                    "time": 305.5039259999973,
                    "velocity": 0.2992125984251969,
                    "duration": 0.2061429999999973
                },
                {
                    "name": "C4",
                    "midi": 60,
                    "time": 305.7100689999973,
                    "velocity": 0.2440944881889764,
                    "duration": 0.2061429999999973
                },
                {
                    "name": "E4",
                    "midi": 64,
                    "time": 305.9162119999973,
                    "velocity": 0.2755905511811024,
                    "duration": 0.2061429999999973
                },
                {
                    "name": "C4",
                    "midi": 60,
                    "time": 306.1223549999973,
                    "velocity": 0.2204724409448819,
                    "duration": 0.2061429999999973
                },
                {
                    "name": "E4",
                    "midi": 64,
                    "time": 306.3284979999973,
                    "velocity": 0.23622047244094488,
                    "duration": 0.2061429999999973
                },
                {
                    "name": "C4",
                    "midi": 60,
                    "time": 306.5346409999973,
                    "velocity": 0.23622047244094488,
                    "duration": 0.2061429999999973
                },
                {
                    "name": "E4",
                    "midi": 64,
                    "time": 306.7407839999973,
                    "velocity": 0.29133858267716534,
                    "duration": 0.2061429999999973
                },
                {
                    "name": "C4",
                    "midi": 60,
                    "time": 306.9469269999973,
                    "velocity": 0.23622047244094488,
                    "duration": 0.2061429999999973
                },
                {
                    "name": "E4",
                    "midi": 64,
                    "time": 307.1530699999973,
                    "velocity": 0.25984251968503935,
                    "duration": 0.2061429999999973
                },
                {
                    "name": "C4",
                    "midi": 60,
                    "time": 307.3592129999973,
                    "velocity": 0.2125984251968504,
                    "duration": 0.2061429999999973
                },
                {
                    "name": "E4",
                    "midi": 64,
                    "time": 307.5653559999973,
                    "velocity": 0.2204724409448819,
                    "duration": 0.2061429999999973
                },
                {
                    "name": "C4",
                    "midi": 60,
                    "time": 307.7714989999973,
                    "velocity": 0.2204724409448819,
                    "duration": 0.2061429999999973
                },
                {
                    "name": "E4",
                    "midi": 64,
                    "time": 307.9776419999973,
                    "velocity": 0.2755905511811024,
                    "duration": 0.2061429999999973
                },
                {
                    "name": "C4",
                    "midi": 60,
                    "time": 308.1837849999973,
                    "velocity": 0.2125984251968504,
                    "duration": 0.2061429999999973
                },
                {
                    "name": "E4",
                    "midi": 64,
                    "time": 308.38992799999727,
                    "velocity": 0.2440944881889764,
                    "duration": 0.2061429999999973
                },
                {
                    "name": "C4",
                    "midi": 60,
                    "time": 308.59607099999727,
                    "velocity": 0.1889763779527559,
                    "duration": 0.2061429999999973
                },
                {
                    "name": "E4",
                    "midi": 64,
                    "time": 308.80221399999726,
                    "velocity": 0.2047244094488189,
                    "duration": 0.2061429999999973
                },
                {
                    "name": "C4",
                    "midi": 60,
                    "time": 309.00835699999726,
                    "velocity": 0.2047244094488189,
                    "duration": 0.2061429999999973
                },
                {
                    "name": "E4",
                    "midi": 64,
                    "time": 309.21449999999726,
                    "velocity": 0.2677165354330709,
                    "duration": 0.2061429999999973
                },
                {
                    "name": "C4",
                    "midi": 60,
                    "time": 309.42064299999726,
                    "velocity": 0.2047244094488189,
                    "duration": 0.2061429999999973
                },
                {
                    "name": "E4",
                    "midi": 64,
                    "time": 309.62678599999725,
                    "velocity": 0.23622047244094488,
                    "duration": 0.2061429999999973
                },
                {
                    "name": "C4",
                    "midi": 60,
                    "time": 309.83292899999725,
                    "velocity": 0.1889763779527559,
                    "duration": 0.2061429999999973
                },
                {
                    "name": "E4",
                    "midi": 64,
                    "time": 310.03907199999725,
                    "velocity": 0.2047244094488189,
                    "duration": 0.2061429999999973
                },
                {
                    "name": "C4",
                    "midi": 60,
                    "time": 310.24521499999724,
                    "velocity": 0.2047244094488189,
                    "duration": 0.2061429999999973
                },
                {
                    "name": "E4",
                    "midi": 64,
                    "time": 310.45135799999724,
                    "velocity": 0.25984251968503935,
                    "duration": 0.2061429999999973
                },
                {
                    "name": "C4",
                    "midi": 60,
                    "time": 310.65750099999724,
                    "velocity": 0.1968503937007874,
                    "duration": 0.2061429999999973
                },
                {
                    "name": "E4",
                    "midi": 64,
                    "time": 310.86364399999724,
                    "velocity": 0.2283464566929134,
                    "duration": 0.2061429999999973
                },
                {
                    "name": "C4",
                    "midi": 60,
                    "time": 311.06978699999723,
                    "velocity": 0.18110236220472442,
                    "duration": 0.2061429999999973
                },
                {
                    "name": "E4",
                    "midi": 64,
                    "time": 311.27592999999723,
                    "velocity": 0.1968503937007874,
                    "duration": 0.2061429999999973
                },
                {
                    "name": "C4",
                    "midi": 60,
                    "time": 311.48207299999723,
                    "velocity": 0.1968503937007874,
                    "duration": 0.2061429999999973
                },
                {
                    "name": "E4",
                    "midi": 64,
                    "time": 311.6882159999972,
                    "velocity": 0.25196850393700787,
                    "duration": 0.2061429999999973
                },
                {
                    "name": "C4",
                    "midi": 60,
                    "time": 311.8943589999972,
                    "velocity": 0.1889763779527559,
                    "duration": 0.2061429999999973
                },
                {
                    "name": "E4",
                    "midi": 64,
                    "time": 312.1005019999972,
                    "velocity": 0.2204724409448819,
                    "duration": 0.2061429999999973
                },
                {
                    "name": "C4",
                    "midi": 60,
                    "time": 312.3066449999972,
                    "velocity": 0.1732283464566929,
                    "duration": 0.2061429999999973
                },
                {
                    "name": "E4",
                    "midi": 64,
                    "time": 312.5127879999972,
                    "velocity": 0.1889763779527559,
                    "duration": 0.2061429999999973
                },
                {
                    "name": "C4",
                    "midi": 60,
                    "time": 312.7189309999972,
                    "velocity": 0.1889763779527559,
                    "duration": 0.2061429999999973
                },
                {
                    "name": "E4",
                    "midi": 64,
                    "time": 312.9250739999972,
                    "velocity": 0.2440944881889764,
                    "duration": 0.2061429999999973
                },
                {
                    "name": "C4",
                    "midi": 60,
                    "time": 313.1312169999972,
                    "velocity": 0.1889763779527559,
                    "duration": 0.2061429999999973
                },
                {
                    "name": "E4",
                    "midi": 64,
                    "time": 313.3373599999972,
                    "velocity": 0.2125984251968504,
                    "duration": 0.2061429999999973
                },
                {
                    "name": "C4",
                    "midi": 60,
                    "time": 313.5435029999972,
                    "velocity": 0.1732283464566929,
                    "duration": 0.2061429999999973
                },
                {
                    "name": "E4",
                    "midi": 64,
                    "time": 313.7496459999972,
                    "velocity": 0.18110236220472442,
                    "duration": 0.2061429999999973
                },
                {
                    "name": "C4",
                    "midi": 60,
                    "time": 313.9557889999972,
                    "velocity": 0.18110236220472442,
                    "duration": 0.2061429999999973
                },
                {
                    "name": "E4",
                    "midi": 64,
                    "time": 314.1619319999972,
                    "velocity": 0.23622047244094488,
                    "duration": 0.2061429999999973
                },
                {
                    "name": "C4",
                    "midi": 60,
                    "time": 314.3680749999972,
                    "velocity": 0.18110236220472442,
                    "duration": 0.2061429999999973
                },
                {
                    "name": "E4",
                    "midi": 64,
                    "time": 314.5742179999972,
                    "velocity": 0.2047244094488189,
                    "duration": 0.2061429999999973
                },
                {
                    "name": "C4",
                    "midi": 60,
                    "time": 314.7803609999972,
                    "velocity": 0.16535433070866143,
                    "duration": 0.2061429999999973
                },
                {
                    "name": "E4",
                    "midi": 64,
                    "time": 314.9865039999972,
                    "velocity": 0.1732283464566929,
                    "duration": 0.2061429999999973
                },
                {
                    "name": "C4",
                    "midi": 60,
                    "time": 315.1926469999972,
                    "velocity": 0.1732283464566929,
                    "duration": 0.2061429999999973
                },
                {
                    "name": "E4",
                    "midi": 64,
                    "time": 315.3987899999972,
                    "velocity": 0.2283464566929134,
                    "duration": 0.2061429999999973
                },
                {
                    "name": "C4",
                    "midi": 60,
                    "time": 315.6049329999972,
                    "velocity": 0.1732283464566929,
                    "duration": 0.2061429999999973
                },
                {
                    "name": "E4",
                    "midi": 64,
                    "time": 315.8110759999972,
                    "velocity": 0.1968503937007874,
                    "duration": 0.2061429999999973
                },
                {
                    "name": "C4",
                    "midi": 60,
                    "time": 316.01721899999717,
                    "velocity": 0.15748031496062992,
                    "duration": 0.2061429999999973
                },
                {
                    "name": "E4",
                    "midi": 64,
                    "time": 316.22336199999717,
                    "velocity": 0.1732283464566929,
                    "duration": 0.2061429999999973
                },
                {
                    "name": "C4",
                    "midi": 60,
                    "time": 316.42950499999716,
                    "velocity": 0.1732283464566929,
                    "duration": 0.2061429999999973
                },
                {
                    "name": "E4",
                    "midi": 64,
                    "time": 316.63564799999716,
                    "velocity": 0.2204724409448819,
                    "duration": 0.30921449999999595
                },
                {
                    "name": "C4",
                    "midi": 60,
                    "time": 316.94486249999716,
                    "velocity": 0.1732283464566929,
                    "duration": 0.30921449999999595
                },
                {
                    "name": "E4",
                    "midi": 64,
                    "time": 317.25407699999715,
                    "velocity": 0.2125984251968504,
                    "duration": 0.30921449999999595
                },
                {
                    "name": "C4",
                    "midi": 60,
                    "time": 317.56329149999715,
                    "velocity": 0.1732283464566929,
                    "duration": 0.30921449999999595
                },
                {
                    "name": "E4",
                    "midi": 64,
                    "time": 317.87250599999714,
                    "velocity": 0.2125984251968504,
                    "duration": 0.4122859999999946
                },
                {
                    "name": "C4",
                    "midi": 60,
                    "time": 318.28479199999714,
                    "velocity": 0.1732283464566929,
                    "duration": 0.4122859999999946
                },
                {
                    "name": "E4",
                    "midi": 64,
                    "time": 318.69707799999713,
                    "velocity": 0.2047244094488189,
                    "duration": 0.4122859999999946
                },
                {
                    "name": "C4",
                    "midi": 60,
                    "time": 319.10936399999713,
                    "velocity": 0.15748031496062992,
                    "duration": 0.4122859999999946
                },
                {
                    "name": "E4",
                    "midi": 64,
                    "time": 319.5216499999971,
                    "velocity": 0.1968503937007874,
                    "duration": 0.4122859999999946
                },
                {
                    "name": "C4",
                    "midi": 60,
                    "time": 319.9339359999971,
                    "velocity": 0.15748031496062992,
                    "duration": 0.4122859999999946
                },
                {
                    "name": "E4",
                    "midi": 64,
                    "time": 320.3462219999971,
                    "velocity": 0.47244094488188976,
                    "duration": 0.17693940833333954
                },
                {
                    "name": "D4",
                    "midi": 62,
                    "time": 320.52316140833045,
                    "velocity": 0.4881889763779528,
                    "duration": 0.17779833750000762
                },
                {
                    "name": "C4",
                    "midi": 60,
                    "time": 320.70095974583046,
                    "velocity": 0.5039370078740157,
                    "duration": 0.17693940833333954
                },
                {
                    "name": "B3",
                    "midi": 59,
                    "time": 320.8778991541638,
                    "velocity": 0.5196850393700787,
                    "duration": 0.17693940833333954
                },
                {
                    "name": "A3",
                    "midi": 57,
                    "time": 321.05483856249714,
                    "velocity": 0.5433070866141733,
                    "duration": 0.17779833750000762
                },
                {
                    "name": "G3",
                    "midi": 55,
                    "time": 321.23263689999715,
                    "velocity": 0.5590551181102362,
                    "duration": 0.17693940833333954
                },
                {
                    "name": "F3",
                    "midi": 53,
                    "time": 321.4095763083305,
                    "velocity": 0.5748031496062992,
                    "duration": 0.17350369166666724
                },
                {
                    "name": "E3",
                    "midi": 52,
                    "time": 321.58307999999715,
                    "velocity": 0.6456692913385826,
                    "duration": 0.2061429999999973
                },
                {
                    "name": "B5",
                    "midi": 83,
                    "time": 322.20150899999715,
                    "velocity": 0.49606299212598426,
                    "duration": 0.6184289999999919
                },
                {
                    "name": "D6",
                    "midi": 86,
                    "time": 322.20150899999715,
                    "velocity": 0.5905511811023622,
                    "duration": 0.6184289999999919
                },
                {
                    "name": "D5",
                    "midi": 74,
                    "time": 322.20150899999715,
                    "velocity": 0.49606299212598426,
                    "duration": 0.6184289999999919
                },
                {
                    "name": "C5",
                    "midi": 72,
                    "time": 322.81993799999714,
                    "velocity": 0.4881889763779528,
                    "duration": 0.6184289999999919
                },
                {
                    "name": "C6",
                    "midi": 84,
                    "time": 322.81993799999714,
                    "velocity": 0.5748031496062992,
                    "duration": 0.6184289999999919
                },
                {
                    "name": "A5",
                    "midi": 81,
                    "time": 322.81993799999714,
                    "velocity": 0.5748031496062992,
                    "duration": 0.6184289999999919
                },
                {
                    "name": "F#5",
                    "midi": 78,
                    "time": 323.43836699999713,
                    "velocity": 0.49606299212598426,
                    "duration": 0.6184289999999919
                },
                {
                    "name": "A4",
                    "midi": 69,
                    "time": 323.43836699999713,
                    "velocity": 0.49606299212598426,
                    "duration": 0.6184289999999919
                },
                {
                    "name": "A5",
                    "midi": 81,
                    "time": 323.43836699999713,
                    "velocity": 0.5905511811023622,
                    "duration": 0.6184289999999919
                },
                {
                    "name": "B5",
                    "midi": 83,
                    "time": 324.0567959999971,
                    "velocity": 0.5511811023622047,
                    "duration": 0.10307149999999865
                },
                {
                    "name": "B4",
                    "midi": 71,
                    "time": 324.0567959999971,
                    "velocity": 0.4645669291338583,
                    "duration": 0.10307149999999865
                },
                {
                    "name": "G5",
                    "midi": 79,
                    "time": 324.0567959999971,
                    "velocity": 0.4645669291338583,
                    "duration": 0.10307149999999865
                },
                {
                    "name": "E5",
                    "midi": 76,
                    "time": 324.2629389999971,
                    "velocity": 0.4094488188976378,
                    "duration": 0.10307149999999865
                },
                {
                    "name": "G5",
                    "midi": 79,
                    "time": 324.2629389999971,
                    "velocity": 0.4881889763779528,
                    "duration": 0.10307149999999865
                },
                {
                    "name": "G4",
                    "midi": 67,
                    "time": 324.2629389999971,
                    "velocity": 0.4094488188976378,
                    "duration": 0.10307149999999865
                },
                {
                    "name": "F#5",
                    "midi": 78,
                    "time": 324.4690819999971,
                    "velocity": 0.4251968503937008,
                    "duration": 0.10307149999999865
                },
                {
                    "name": "A4",
                    "midi": 69,
                    "time": 324.4690819999971,
                    "velocity": 0.4330708661417323,
                    "duration": 0.10307149999999865
                },
                {
                    "name": "A5",
                    "midi": 81,
                    "time": 324.4690819999971,
                    "velocity": 0.5511811023622047,
                    "duration": 0.10307149999999865
                },
                {
                    "name": "D#5",
                    "midi": 75,
                    "time": 324.6752249999971,
                    "velocity": 0.41732283464566927,
                    "duration": 0.10307149999999865
                },
                {
                    "name": "F#5",
                    "midi": 78,
                    "time": 324.6752249999971,
                    "velocity": 0.49606299212598426,
                    "duration": 0.10307149999999865
                },
                {
                    "name": "F#4",
                    "midi": 66,
                    "time": 324.6752249999971,
                    "velocity": 0.41732283464566927,
                    "duration": 0.10307149999999865
                },
                {
                    "name": "G5",
                    "midi": 79,
                    "time": 324.8813679999971,
                    "velocity": 0.5511811023622047,
                    "duration": 0.10307149999999865
                },
                {
                    "name": "G4",
                    "midi": 67,
                    "time": 324.8813679999971,
                    "velocity": 0.4645669291338583,
                    "duration": 0.10307149999999865
                },
                {
                    "name": "E5",
                    "midi": 76,
                    "time": 324.8813679999971,
                    "velocity": 0.4645669291338583,
                    "duration": 0.10307149999999865
                },
                {
                    "name": "E4",
                    "midi": 64,
                    "time": 325.0875109999971,
                    "velocity": 0.4251968503937008,
                    "duration": 0.10307149999999865
                },
                {
                    "name": "C#5",
                    "midi": 73,
                    "time": 325.0875109999971,
                    "velocity": 0.4251968503937008,
                    "duration": 0.10307149999999865
                },
                {
                    "name": "E5",
                    "midi": 76,
                    "time": 325.0875109999971,
                    "velocity": 0.5039370078740157,
                    "duration": 0.10307149999999865
                },
                {
                    "name": "D#5",
                    "midi": 75,
                    "time": 325.2936539999971,
                    "velocity": 0.4645669291338583,
                    "duration": 0.10307149999999865
                },
                {
                    "name": "F#4",
                    "midi": 66,
                    "time": 325.2936539999971,
                    "velocity": 0.4645669291338583,
                    "duration": 0.10307149999999865
                },
                {
                    "name": "F#5",
                    "midi": 78,
                    "time": 325.2936539999971,
                    "velocity": 0.5511811023622047,
                    "duration": 0.10307149999999865
                },
                {
                    "name": "F#4",
                    "midi": 66,
                    "time": 325.7059399999971,
                    "velocity": 0.4566929133858268,
                    "duration": 0.10307149999999865
                },
                {
                    "name": "D#5",
                    "midi": 75,
                    "time": 325.7059399999971,
                    "velocity": 0.4566929133858268,
                    "duration": 0.10307149999999865
                },
                {
                    "name": "F#5",
                    "midi": 78,
                    "time": 325.7059399999971,
                    "velocity": 0.5433070866141733,
                    "duration": 0.10307149999999865
                },
                {
                    "name": "C#4",
                    "midi": 61,
                    "time": 326.7366549999971,
                    "velocity": 0.4094488188976378,
                    "duration": 0.10307149999999865
                },
                {
                    "name": "C#5",
                    "midi": 73,
                    "time": 326.7366549999971,
                    "velocity": 0.4881889763779528,
                    "duration": 0.10307149999999865
                },
                {
                    "name": "D#5",
                    "midi": 75,
                    "time": 326.9427979999971,
                    "velocity": 0.5039370078740157,
                    "duration": 0.10307149999999865
                },
                {
                    "name": "D#4",
                    "midi": 63,
                    "time": 326.9427979999971,
                    "velocity": 0.4251968503937008,
                    "duration": 0.10307149999999865
                },
                {
                    "name": "E5",
                    "midi": 76,
                    "time": 327.1489409999971,
                    "velocity": 0.5196850393700787,
                    "duration": 0.10307149999999865
                },
                {
                    "name": "E4",
                    "midi": 64,
                    "time": 327.1489409999971,
                    "velocity": 0.4409448818897638,
                    "duration": 0.10307149999999865
                },
                {
                    "name": "F#4",
                    "midi": 66,
                    "time": 327.3550839999971,
                    "velocity": 0.4409448818897638,
                    "duration": 0.10307149999999865
                },
                {
                    "name": "F#5",
                    "midi": 78,
                    "time": 327.3550839999971,
                    "velocity": 0.5275590551181102,
                    "duration": 0.10307149999999865
                },
                {
                    "name": "G5",
                    "midi": 79,
                    "time": 327.5612269999971,
                    "velocity": 0.5433070866141733,
                    "duration": 0.10307149999999865
                },
                {
                    "name": "G4",
                    "midi": 67,
                    "time": 327.5612269999971,
                    "velocity": 0.4566929133858268,
                    "duration": 0.10307149999999865
                },
                {
                    "name": "F#5",
                    "midi": 78,
                    "time": 327.7673699999971,
                    "velocity": 0.5511811023622047,
                    "duration": 0.10307149999999865
                },
                {
                    "name": "D#5",
                    "midi": 75,
                    "time": 327.7673699999971,
                    "velocity": 0.4645669291338583,
                    "duration": 0.10307149999999865
                },
                {
                    "name": "F#4",
                    "midi": 66,
                    "time": 327.7673699999971,
                    "velocity": 0.4645669291338583,
                    "duration": 0.10307149999999865
                },
                {
                    "name": "B5",
                    "midi": 83,
                    "time": 328.17965599999707,
                    "velocity": 0.5433070866141733,
                    "duration": 0.10307149999999865
                },
                {
                    "name": "B4",
                    "midi": 71,
                    "time": 328.17965599999707,
                    "velocity": 0.4566929133858268,
                    "duration": 0.10307149999999865
                },
                {
                    "name": "C#4",
                    "midi": 61,
                    "time": 329.21037099999705,
                    "velocity": 0.4094488188976378,
                    "duration": 0.10307149999999865
                },
                {
                    "name": "C#5",
                    "midi": 73,
                    "time": 329.21037099999705,
                    "velocity": 0.4881889763779528,
                    "duration": 0.10307149999999865
                },
                {
                    "name": "D#5",
                    "midi": 75,
                    "time": 329.41651399999705,
                    "velocity": 0.5039370078740157,
                    "duration": 0.10307149999999865
                },
                {
                    "name": "D#4",
                    "midi": 63,
                    "time": 329.41651399999705,
                    "velocity": 0.4251968503937008,
                    "duration": 0.10307149999999865
                },
                {
                    "name": "E4",
                    "midi": 64,
                    "time": 329.62265699999705,
                    "velocity": 0.4409448818897638,
                    "duration": 0.10307149999999865
                },
                {
                    "name": "E5",
                    "midi": 76,
                    "time": 329.62265699999705,
                    "velocity": 0.5196850393700787,
                    "duration": 0.10307149999999865
                },
                {
                    "name": "F#5",
                    "midi": 78,
                    "time": 329.82879999999705,
                    "velocity": 0.5275590551181102,
                    "duration": 0.10307149999999865
                },
                {
                    "name": "F#4",
                    "midi": 66,
                    "time": 329.82879999999705,
                    "velocity": 0.4409448818897638,
                    "duration": 0.10307149999999865
                },
                {
                    "name": "G4",
                    "midi": 67,
                    "time": 330.03494299999704,
                    "velocity": 0.4566929133858268,
                    "duration": 0.10307149999999865
                },
                {
                    "name": "G5",
                    "midi": 79,
                    "time": 330.03494299999704,
                    "velocity": 0.5433070866141733,
                    "duration": 0.10307149999999865
                },
                {
                    "name": "A4",
                    "midi": 69,
                    "time": 330.24108599999704,
                    "velocity": 0.4645669291338583,
                    "duration": 0.10307149999999865
                },
                {
                    "name": "F#5",
                    "midi": 78,
                    "time": 330.24108599999704,
                    "velocity": 0.4645669291338583,
                    "duration": 0.10307149999999865
                },
                {
                    "name": "A5",
                    "midi": 81,
                    "time": 330.24108599999704,
                    "velocity": 0.5511811023622047,
                    "duration": 0.10307149999999865
                },
                {
                    "name": "D6",
                    "midi": 86,
                    "time": 330.65337199999703,
                    "velocity": 0.5433070866141733,
                    "duration": 0.10307149999999865
                },
                {
                    "name": "D5",
                    "midi": 74,
                    "time": 330.65337199999703,
                    "velocity": 0.4566929133858268,
                    "duration": 0.10307149999999865
                },
                {
                    "name": "G3",
                    "midi": 55,
                    "time": 331.477943999997,
                    "velocity": 0.5984251968503937,
                    "duration": 0.2061429999999973
                },
                {
                    "name": "F6",
                    "midi": 89,
                    "time": 332.096372999997,
                    "velocity": 0.49606299212598426,
                    "duration": 0.6184289999999919
                },
                {
                    "name": "A5",
                    "midi": 81,
                    "time": 332.096372999997,
                    "velocity": 0.49606299212598426,
                    "duration": 0.6184289999999919
                },
                {
                    "name": "A6",
                    "midi": 93,
                    "time": 332.096372999997,
                    "velocity": 0.5905511811023622,
                    "duration": 0.6184289999999919
                },
                {
                    "name": "E6",
                    "midi": 88,
                    "time": 332.714801999997,
                    "velocity": 0.5748031496062992,
                    "duration": 0.6184289999999919
                },
                {
                    "name": "G6",
                    "midi": 91,
                    "time": 332.714801999997,
                    "velocity": 0.5748031496062992,
                    "duration": 0.6184289999999919
                },
                {
                    "name": "G5",
                    "midi": 79,
                    "time": 332.714801999997,
                    "velocity": 0.4881889763779528,
                    "duration": 0.6184289999999919
                },
                {
                    "name": "E6",
                    "midi": 88,
                    "time": 333.333230999997,
                    "velocity": 0.5905511811023622,
                    "duration": 0.6184289999999919
                },
                {
                    "name": "E5",
                    "midi": 76,
                    "time": 333.333230999997,
                    "velocity": 0.49606299212598426,
                    "duration": 0.6184289999999919
                },
                {
                    "name": "C6",
                    "midi": 84,
                    "time": 333.333230999997,
                    "velocity": 0.49606299212598426,
                    "duration": 0.6184289999999919
                },
                {
                    "name": "F6",
                    "midi": 89,
                    "time": 333.951659999997,
                    "velocity": 0.5511811023622047,
                    "duration": 0.10307149999999865
                },
                {
                    "name": "F5",
                    "midi": 77,
                    "time": 333.951659999997,
                    "velocity": 0.4645669291338583,
                    "duration": 0.10307149999999865
                },
                {
                    "name": "D6",
                    "midi": 86,
                    "time": 333.951659999997,
                    "velocity": 0.4645669291338583,
                    "duration": 0.10307149999999865
                },
                {
                    "name": "D5",
                    "midi": 74,
                    "time": 334.157802999997,
                    "velocity": 0.4094488188976378,
                    "duration": 0.10307149999999865
                },
                {
                    "name": "D6",
                    "midi": 86,
                    "time": 334.157802999997,
                    "velocity": 0.4881889763779528,
                    "duration": 0.10307149999999865
                },
                {
                    "name": "B5",
                    "midi": 83,
                    "time": 334.157802999997,
                    "velocity": 0.4094488188976378,
                    "duration": 0.10307149999999865
                },
                {
                    "name": "E5",
                    "midi": 76,
                    "time": 334.363945999997,
                    "velocity": 0.4330708661417323,
                    "duration": 0.10307149999999865
                },
                {
                    "name": "E6",
                    "midi": 88,
                    "time": 334.363945999997,
                    "velocity": 0.5511811023622047,
                    "duration": 0.10307149999999865
                },
                {
                    "name": "C6",
                    "midi": 84,
                    "time": 334.363945999997,
                    "velocity": 0.4251968503937008,
                    "duration": 0.10307149999999865
                },
                {
                    "name": "C6",
                    "midi": 84,
                    "time": 334.570088999997,
                    "velocity": 0.49606299212598426,
                    "duration": 0.10307149999999865
                },
                {
                    "name": "C5",
                    "midi": 72,
                    "time": 334.570088999997,
                    "velocity": 0.41732283464566927,
                    "duration": 0.10307149999999865
                },
                {
                    "name": "A5",
                    "midi": 81,
                    "time": 334.570088999997,
                    "velocity": 0.41732283464566927,
                    "duration": 0.10307149999999865
                },
                {
                    "name": "B5",
                    "midi": 83,
                    "time": 334.776231999997,
                    "velocity": 0.4645669291338583,
                    "duration": 0.10307149999999865
                },
                {
                    "name": "D6",
                    "midi": 86,
                    "time": 334.776231999997,
                    "velocity": 0.5511811023622047,
                    "duration": 0.10307149999999865
                },
                {
                    "name": "D5",
                    "midi": 74,
                    "time": 334.776231999997,
                    "velocity": 0.4645669291338583,
                    "duration": 0.10307149999999865
                },
                {
                    "name": "B5",
                    "midi": 83,
                    "time": 334.982374999997,
                    "velocity": 0.5039370078740157,
                    "duration": 0.10307149999999865
                },
                {
                    "name": "B4",
                    "midi": 71,
                    "time": 334.982374999997,
                    "velocity": 0.4251968503937008,
                    "duration": 0.10307149999999865
                },
                {
                    "name": "G5",
                    "midi": 79,
                    "time": 334.982374999997,
                    "velocity": 0.4251968503937008,
                    "duration": 0.10307149999999865
                },
                {
                    "name": "A5",
                    "midi": 81,
                    "time": 335.188517999997,
                    "velocity": 0.4645669291338583,
                    "duration": 0.10307149999999865
                },
                {
                    "name": "C5",
                    "midi": 72,
                    "time": 335.188517999997,
                    "velocity": 0.4645669291338583,
                    "duration": 0.10307149999999865
                },
                {
                    "name": "C6",
                    "midi": 84,
                    "time": 335.188517999997,
                    "velocity": 0.5511811023622047,
                    "duration": 0.10307149999999865
                },
                {
                    "name": "C6",
                    "midi": 84,
                    "time": 335.60080399999697,
                    "velocity": 0.5433070866141733,
                    "duration": 0.10307149999999865
                },
                {
                    "name": "C5",
                    "midi": 72,
                    "time": 335.60080399999697,
                    "velocity": 0.4566929133858268,
                    "duration": 0.10307149999999865
                },
                {
                    "name": "A5",
                    "midi": 81,
                    "time": 335.60080399999697,
                    "velocity": 0.4566929133858268,
                    "duration": 0.10307149999999865
                },
                {
                    "name": "F5",
                    "midi": 77,
                    "time": 335.80694699999697,
                    "velocity": 0.4645669291338583,
                    "duration": 0.6184289999999919
                },
                {
                    "name": "A4",
                    "midi": 69,
                    "time": 335.80694699999697,
                    "velocity": 0.4645669291338583,
                    "duration": 0.6184289999999919
                },
                {
                    "name": "A5",
                    "midi": 81,
                    "time": 335.80694699999697,
                    "velocity": 0.5511811023622047,
                    "duration": 0.6184289999999919
                },
                {
                    "name": "G4",
                    "midi": 67,
                    "time": 336.63151899999696,
                    "velocity": 0.3700787401574803,
                    "duration": 0.10307149999999865
                },
                {
                    "name": "G5",
                    "midi": 79,
                    "time": 336.63151899999696,
                    "velocity": 0.4409448818897638,
                    "duration": 0.10307149999999865
                },
                {
                    "name": "B4",
                    "midi": 71,
                    "time": 336.83766199999695,
                    "velocity": 0.3858267716535433,
                    "duration": 0.10307149999999865
                },
                {
                    "name": "B5",
                    "midi": 83,
                    "time": 336.83766199999695,
                    "velocity": 0.4566929133858268,
                    "duration": 0.10307149999999865
                },
                {
                    "name": "C6",
                    "midi": 84,
                    "time": 337.04380499999695,
                    "velocity": 0.47244094488188976,
                    "duration": 0.10307149999999865
                },
                {
                    "name": "C5",
                    "midi": 72,
                    "time": 337.04380499999695,
                    "velocity": 0.4015748031496063,
                    "duration": 0.10307149999999865
                },
                {
                    "name": "D6",
                    "midi": 86,
                    "time": 337.24994799999695,
                    "velocity": 0.4881889763779528,
                    "duration": 0.10307149999999865
                },
                {
                    "name": "D5",
                    "midi": 74,
                    "time": 337.24994799999695,
                    "velocity": 0.4094488188976378,
                    "duration": 0.10307149999999865
                },
                {
                    "name": "E5",
                    "midi": 76,
                    "time": 337.45609099999695,
                    "velocity": 0.4251968503937008,
                    "duration": 0.10307149999999865
                },
                {
                    "name": "E6",
                    "midi": 88,
                    "time": 337.45609099999695,
                    "velocity": 0.5039370078740157,
                    "duration": 0.10307149999999865
                },
                {
                    "name": "G5",
                    "midi": 79,
                    "time": 337.610698249997,
                    "velocity": 0.47244094488188976,
                    "duration": 0.15460724999996955
                },
                {
                    "name": "C6",
                    "midi": 84,
                    "time": 337.63646612499696,
                    "velocity": 0.47244094488188976,
                    "duration": 0.1288393749999841
                },
                {
                    "name": "G6",
                    "midi": 91,
                    "time": 337.66223399999694,
                    "velocity": 0.5511811023622047,
                    "duration": 0.10307149999999865
                },
                {
                    "name": "F6",
                    "midi": 89,
                    "time": 338.07451999999694,
                    "velocity": 0.4566929133858268,
                    "duration": 0.10307149999999865
                },
                {
                    "name": "F5",
                    "midi": 77,
                    "time": 338.07451999999694,
                    "velocity": 0.3858267716535433,
                    "duration": 0.10307149999999865
                },
                {
                    "name": "C6",
                    "midi": 84,
                    "time": 338.28066299999693,
                    "velocity": 0.44881889763779526,
                    "duration": 0.6184289999999919
                },
                {
                    "name": "C5",
                    "midi": 72,
                    "time": 338.28066299999693,
                    "velocity": 0.3779527559055118,
                    "duration": 0.6184289999999919
                },
                {
                    "name": "A4",
                    "midi": 69,
                    "time": 339.1052349999969,
                    "velocity": 0.3779527559055118,
                    "duration": 0.10307149999999865
                },
                {
                    "name": "A5",
                    "midi": 81,
                    "time": 339.1052349999969,
                    "velocity": 0.4566929133858268,
                    "duration": 0.10307149999999865
                },
                {
                    "name": "B5",
                    "midi": 83,
                    "time": 339.3113779999969,
                    "velocity": 0.49606299212598426,
                    "duration": 0.10307149999999865
                },
                {
                    "name": "B4",
                    "midi": 71,
                    "time": 339.3113779999969,
                    "velocity": 0.41732283464566927,
                    "duration": 0.10307149999999865
                },
                {
                    "name": "C5",
                    "midi": 72,
                    "time": 339.5175209999969,
                    "velocity": 0.44881889763779526,
                    "duration": 0.10307149999999865
                },
                {
                    "name": "C6",
                    "midi": 84,
                    "time": 339.5175209999969,
                    "velocity": 0.5275590551181102,
                    "duration": 0.10307149999999865
                },
                {
                    "name": "D6",
                    "midi": 86,
                    "time": 339.7236639999969,
                    "velocity": 0.5748031496062992,
                    "duration": 0.10307149999999865
                },
                {
                    "name": "D5",
                    "midi": 74,
                    "time": 339.7236639999969,
                    "velocity": 0.48031496062992124,
                    "duration": 0.10307149999999865
                },
                {
                    "name": "E6",
                    "midi": 88,
                    "time": 339.9298069999969,
                    "velocity": 0.6141732283464567,
                    "duration": 0.10307149999999865
                },
                {
                    "name": "E5",
                    "midi": 76,
                    "time": 339.9298069999969,
                    "velocity": 0.5118110236220472,
                    "duration": 0.10307149999999865
                },
                {
                    "name": "G5",
                    "midi": 79,
                    "time": 340.08441424999694,
                    "velocity": 0.5905511811023622,
                    "duration": 0.15460724999996955
                },
                {
                    "name": "D#6",
                    "midi": 87,
                    "time": 340.1101821249969,
                    "velocity": 0.5905511811023622,
                    "duration": 0.1288393749999841
                },
                {
                    "name": "G6",
                    "midi": 91,
                    "time": 340.1359499999969,
                    "velocity": 0.6850393700787402,
                    "duration": 0.10307149999999865
                },
                {
                    "name": "F#6",
                    "midi": 90,
                    "time": 340.5482359999969,
                    "velocity": 0.5433070866141733,
                    "duration": 0.10307149999999865
                },
                {
                    "name": "F#5",
                    "midi": 78,
                    "time": 340.5482359999969,
                    "velocity": 0.4566929133858268,
                    "duration": 0.10307149999999865
                },
                {
                    "name": "A4",
                    "midi": 69,
                    "time": 340.7543789999969,
                    "velocity": 0.4409448818897638,
                    "duration": 0.6184289999999919
                },
                {
                    "name": "A5",
                    "midi": 81,
                    "time": 340.7543789999969,
                    "velocity": 0.5275590551181102,
                    "duration": 0.6184289999999919
                },
                {
                    "name": "C3",
                    "midi": 48,
                    "time": 341.3728079999969,
                    "velocity": 0.5984251968503937,
                    "duration": 0.2061429999999973
                },
                {
                    "name": "G4",
                    "midi": 67,
                    "time": 341.9912369999969,
                    "velocity": 0.4645669291338583,
                    "duration": 0.6184289999999919
                },
                {
                    "name": "A#4",
                    "midi": 70,
                    "time": 341.9912369999969,
                    "velocity": 0.5590551181102362,
                    "duration": 0.6184289999999919
                },
                {
                    "name": "A#3",
                    "midi": 58,
                    "time": 341.9912369999969,
                    "velocity": 0.4645669291338583,
                    "duration": 0.6184289999999919
                },
                {
                    "name": "A3",
                    "midi": 57,
                    "time": 342.6096659999969,
                    "velocity": 0.4566929133858268,
                    "duration": 0.6184289999999919
                },
                {
                    "name": "A4",
                    "midi": 69,
                    "time": 342.6096659999969,
                    "velocity": 0.5433070866141733,
                    "duration": 0.6184289999999919
                },
                {
                    "name": "F4",
                    "midi": 65,
                    "time": 342.6096659999969,
                    "velocity": 0.5433070866141733,
                    "duration": 0.6184289999999919
                },
                {
                    "name": "D4",
                    "midi": 62,
                    "time": 343.22809499999687,
                    "velocity": 0.4645669291338583,
                    "duration": 0.6184289999999919
                },
                {
                    "name": "F4",
                    "midi": 65,
                    "time": 343.22809499999687,
                    "velocity": 0.5590551181102362,
                    "duration": 0.6184289999999919
                },
                {
                    "name": "F3",
                    "midi": 53,
                    "time": 343.22809499999687,
                    "velocity": 0.4645669291338583,
                    "duration": 0.6184289999999919
                },
                {
                    "name": "G3",
                    "midi": 55,
                    "time": 343.84652399999686,
                    "velocity": 0.4409448818897638,
                    "duration": 0.10307149999999865
                },
                {
                    "name": "G4",
                    "midi": 67,
                    "time": 343.84652399999686,
                    "velocity": 0.5196850393700787,
                    "duration": 0.10307149999999865
                },
                {
                    "name": "E4",
                    "midi": 64,
                    "time": 343.84652399999686,
                    "velocity": 0.4409448818897638,
                    "duration": 0.10307149999999865
                },
                {
                    "name": "E4",
                    "midi": 64,
                    "time": 344.05266699999686,
                    "velocity": 0.4566929133858268,
                    "duration": 0.10307149999999865
                },
                {
                    "name": "E3",
                    "midi": 52,
                    "time": 344.05266699999686,
                    "velocity": 0.3858267716535433,
                    "duration": 0.10307149999999865
                },
                {
                    "name": "F4",
                    "midi": 65,
                    "time": 344.25880999999686,
                    "velocity": 0.5196850393700787,
                    "duration": 0.10307149999999865
                },
                {
                    "name": "F3",
                    "midi": 53,
                    "time": 344.25880999999686,
                    "velocity": 0.4094488188976378,
                    "duration": 0.10307149999999865
                },
                {
                    "name": "D4",
                    "midi": 62,
                    "time": 344.46495299999685,
                    "velocity": 0.4645669291338583,
                    "duration": 0.10307149999999865
                },
                {
                    "name": "D3",
                    "midi": 50,
                    "time": 344.46495299999685,
                    "velocity": 0.3937007874015748,
                    "duration": 0.10307149999999865
                },
                {
                    "name": "E4",
                    "midi": 64,
                    "time": 344.67109599999685,
                    "velocity": 0.5196850393700787,
                    "duration": 0.10307149999999865
                },
                {
                    "name": "E3",
                    "midi": 52,
                    "time": 344.67109599999685,
                    "velocity": 0.4409448818897638,
                    "duration": 0.10307149999999865
                },
                {
                    "name": "C#4",
                    "midi": 61,
                    "time": 344.87723899999685,
                    "velocity": 0.47244094488188976,
                    "duration": 0.10307149999999865
                },
                {
                    "name": "C#3",
                    "midi": 49,
                    "time": 344.87723899999685,
                    "velocity": 0.4015748031496063,
                    "duration": 0.10307149999999865
                },
                {
                    "name": "D4",
                    "midi": 62,
                    "time": 345.08338199999685,
                    "velocity": 0.5196850393700787,
                    "duration": 0.10307149999999865
                },
                {
                    "name": "D3",
                    "midi": 50,
                    "time": 345.08338199999685,
                    "velocity": 0.4409448818897638,
                    "duration": 0.10307149999999865
                },
                {
                    "name": "D3",
                    "midi": 50,
                    "time": 345.49566799999684,
                    "velocity": 0.4330708661417323,
                    "duration": 0.10307149999999865
                },
                {
                    "name": "D4",
                    "midi": 62,
                    "time": 345.49566799999684,
                    "velocity": 0.5118110236220472,
                    "duration": 0.10307149999999865
                },
                {
                    "name": "D#3",
                    "midi": 51,
                    "time": 346.32023999999683,
                    "velocity": 0.5984251968503937,
                    "duration": 0.2061429999999973
                },
                {
                    "name": "C#5",
                    "midi": 73,
                    "time": 346.9386689999968,
                    "velocity": 0.5590551181102362,
                    "duration": 0.6184289999999919
                },
                {
                    "name": "A#4",
                    "midi": 70,
                    "time": 346.9386689999968,
                    "velocity": 0.4645669291338583,
                    "duration": 0.6184289999999919
                },
                {
                    "name": "C#4",
                    "midi": 61,
                    "time": 346.9386689999968,
                    "velocity": 0.4645669291338583,
                    "duration": 0.6184289999999919
                },
                {
                    "name": "C5",
                    "midi": 72,
                    "time": 347.5570979999968,
                    "velocity": 0.5433070866141733,
                    "duration": 0.6184289999999919
                },
                {
                    "name": "G#4",
                    "midi": 68,
                    "time": 347.5570979999968,
                    "velocity": 0.5433070866141733,
                    "duration": 0.6184289999999919
                },
                {
                    "name": "C4",
                    "midi": 60,
                    "time": 347.5570979999968,
                    "velocity": 0.4566929133858268,
                    "duration": 0.6184289999999919
                },
                {
                    "name": "G#4",
                    "midi": 68,
                    "time": 348.1755269999968,
                    "velocity": 0.5590551181102362,
                    "duration": 0.6184289999999919
                },
                {
                    "name": "F4",
                    "midi": 65,
                    "time": 348.1755269999968,
                    "velocity": 0.4645669291338583,
                    "duration": 0.6184289999999919
                },
                {
                    "name": "G#3",
                    "midi": 56,
                    "time": 348.1755269999968,
                    "velocity": 0.4645669291338583,
                    "duration": 0.6184289999999919
                },
                {
                    "name": "A#3",
                    "midi": 58,
                    "time": 348.7939559999968,
                    "velocity": 0.4409448818897638,
                    "duration": 0.10307149999999865
                },
                {
                    "name": "G4",
                    "midi": 67,
                    "time": 348.7939559999968,
                    "velocity": 0.4409448818897638,
                    "duration": 0.10307149999999865
                },
                {
                    "name": "A#4",
                    "midi": 70,
                    "time": 348.7939559999968,
                    "velocity": 0.5196850393700787,
                    "duration": 0.10307149999999865
                },
                {
                    "name": "G4",
                    "midi": 67,
                    "time": 349.0000989999968,
                    "velocity": 0.4566929133858268,
                    "duration": 0.10307149999999865
                },
                {
                    "name": "G3",
                    "midi": 55,
                    "time": 349.0000989999968,
                    "velocity": 0.3858267716535433,
                    "duration": 0.10307149999999865
                },
                {
                    "name": "G#4",
                    "midi": 68,
                    "time": 349.2062419999968,
                    "velocity": 0.5196850393700787,
                    "duration": 0.10307149999999865
                },
                {
                    "name": "G#3",
                    "midi": 56,
                    "time": 349.2062419999968,
                    "velocity": 0.4094488188976378,
                    "duration": 0.10307149999999865
                },
                {
                    "name": "F4",
                    "midi": 65,
                    "time": 349.4123849999968,
                    "velocity": 0.4645669291338583,
                    "duration": 0.10307149999999865
                },
                {
                    "name": "F3",
                    "midi": 53,
                    "time": 349.4123849999968,
                    "velocity": 0.3937007874015748,
                    "duration": 0.10307149999999865
                },
                {
                    "name": "G4",
                    "midi": 67,
                    "time": 349.6185279999968,
                    "velocity": 0.5196850393700787,
                    "duration": 0.10307149999999865
                },
                {
                    "name": "G3",
                    "midi": 55,
                    "time": 349.6185279999968,
                    "velocity": 0.4409448818897638,
                    "duration": 0.10307149999999865
                },
                {
                    "name": "E4",
                    "midi": 64,
                    "time": 349.8246709999968,
                    "velocity": 0.47244094488188976,
                    "duration": 0.10307149999999865
                },
                {
                    "name": "E3",
                    "midi": 52,
                    "time": 349.8246709999968,
                    "velocity": 0.4015748031496063,
                    "duration": 0.10307149999999865
                },
                {
                    "name": "F3",
                    "midi": 53,
                    "time": 350.0308139999968,
                    "velocity": 0.4409448818897638,
                    "duration": 0.10307149999999865
                },
                {
                    "name": "F4",
                    "midi": 65,
                    "time": 350.0308139999968,
                    "velocity": 0.5196850393700787,
                    "duration": 0.10307149999999865
                },
                {
                    "name": "F3",
                    "midi": 53,
                    "time": 350.4430999999968,
                    "velocity": 0.4330708661417323,
                    "duration": 0.10307149999999865
                },
                {
                    "name": "F4",
                    "midi": 65,
                    "time": 350.4430999999968,
                    "velocity": 0.5118110236220472,
                    "duration": 0.10307149999999865
                },
                {
                    "name": "F#3",
                    "midi": 54,
                    "time": 351.26767199999676,
                    "velocity": 0.5984251968503937,
                    "duration": 0.2061429999999973
                },
                {
                    "name": "E5",
                    "midi": 76,
                    "time": 351.88610099999676,
                    "velocity": 0.5275590551181102,
                    "duration": 0.6184289999999919
                },
                {
                    "name": "E6",
                    "midi": 88,
                    "time": 351.88610099999676,
                    "velocity": 0.6377952755905512,
                    "duration": 0.6184289999999919
                },
                {
                    "name": "C#6",
                    "midi": 85,
                    "time": 351.88610099999676,
                    "velocity": 0.5275590551181102,
                    "duration": 0.6184289999999919
                },
                {
                    "name": "B5",
                    "midi": 83,
                    "time": 352.50452999999675,
                    "velocity": 0.6220472440944882,
                    "duration": 0.6184289999999919
                },
                {
                    "name": "D#6",
                    "midi": 87,
                    "time": 352.50452999999675,
                    "velocity": 0.6220472440944882,
                    "duration": 0.6184289999999919
                },
                {
                    "name": "D#5",
                    "midi": 75,
                    "time": 352.50452999999675,
                    "velocity": 0.5196850393700787,
                    "duration": 0.6184289999999919
                },
                {
                    "name": "B4",
                    "midi": 71,
                    "time": 353.12295899999674,
                    "velocity": 0.5275590551181102,
                    "duration": 0.6184289999999919
                },
                {
                    "name": "B5",
                    "midi": 83,
                    "time": 353.12295899999674,
                    "velocity": 0.6377952755905512,
                    "duration": 0.6184289999999919
                },
                {
                    "name": "G#5",
                    "midi": 80,
                    "time": 353.12295899999674,
                    "velocity": 0.5275590551181102,
                    "duration": 0.6184289999999919
                },
                {
                    "name": "E4",
                    "midi": 64,
                    "time": 354.3598169999967,
                    "velocity": 0.33070866141732286,
                    "duration": 0.6184289999999919
                },
                {
                    "name": "D4",
                    "midi": 62,
                    "time": 354.9782459999967,
                    "velocity": 0.3228346456692913,
                    "duration": 0.6184289999999919
                },
                {
                    "name": "B3",
                    "midi": 59,
                    "time": 355.5966749999967,
                    "velocity": 0.33070866141732286,
                    "duration": 0.6184289999999919
                },
                {
                    "name": "F#3",
                    "midi": 54,
                    "time": 356.2151039999967,
                    "velocity": 0.7165354330708661,
                    "duration": 0.2061429999999973
                },
                {
                    "name": "E6",
                    "midi": 88,
                    "time": 356.6273899999967,
                    "velocity": 0.6141732283464567,
                    "duration": 0.2061429999999973
                },
                {
                    "name": "C#6",
                    "midi": 85,
                    "time": 356.6273899999967,
                    "velocity": 0.5039370078740157,
                    "duration": 0.2061429999999973
                },
                {
                    "name": "E5",
                    "midi": 76,
                    "time": 356.6273899999967,
                    "velocity": 0.5039370078740157,
                    "duration": 0.2061429999999973
                },
                {
                    "name": "B5",
                    "midi": 83,
                    "time": 356.8335329999967,
                    "velocity": 0.5905511811023622,
                    "duration": 0.4122859999999946
                },
                {
                    "name": "D#5",
                    "midi": 75,
                    "time": 356.8335329999967,
                    "velocity": 0.5905511811023622,
                    "duration": 0.4122859999999946
                },
                {
                    "name": "D#6",
                    "midi": 87,
                    "time": 356.8335329999967,
                    "velocity": 0.5905511811023622,
                    "duration": 0.4122859999999946
                },
                {
                    "name": "B4",
                    "midi": 71,
                    "time": 357.2458189999967,
                    "velocity": 0.5039370078740157,
                    "duration": 0.2061429999999973
                },
                {
                    "name": "B5",
                    "midi": 83,
                    "time": 357.2458189999967,
                    "velocity": 0.6141732283464567,
                    "duration": 0.2061429999999973
                },
                {
                    "name": "G#5",
                    "midi": 80,
                    "time": 357.2458189999967,
                    "velocity": 0.5039370078740157,
                    "duration": 0.2061429999999973
                },
                {
                    "name": "G#6",
                    "midi": 92,
                    "time": 357.8642479999967,
                    "velocity": 0.6141732283464567,
                    "duration": 0.2061429999999973
                },
                {
                    "name": "G#5",
                    "midi": 80,
                    "time": 357.8642479999967,
                    "velocity": 0.5039370078740157,
                    "duration": 0.2061429999999973
                },
                {
                    "name": "E6",
                    "midi": 88,
                    "time": 357.8642479999967,
                    "velocity": 0.5039370078740157,
                    "duration": 0.2061429999999973
                },
                {
                    "name": "F#6",
                    "midi": 90,
                    "time": 358.0703909999967,
                    "velocity": 0.5905511811023622,
                    "duration": 0.4122859999999946
                },
                {
                    "name": "D#6",
                    "midi": 87,
                    "time": 358.0703909999967,
                    "velocity": 0.5905511811023622,
                    "duration": 0.4122859999999946
                },
                {
                    "name": "F#5",
                    "midi": 78,
                    "time": 358.0703909999967,
                    "velocity": 0.5905511811023622,
                    "duration": 0.4122859999999946
                },
                {
                    "name": "D#5",
                    "midi": 75,
                    "time": 358.48267699999667,
                    "velocity": 0.5039370078740157,
                    "duration": 0.2061429999999973
                },
                {
                    "name": "D#6",
                    "midi": 87,
                    "time": 358.48267699999667,
                    "velocity": 0.6141732283464567,
                    "duration": 0.2061429999999973
                },
                {
                    "name": "B5",
                    "midi": 83,
                    "time": 358.48267699999667,
                    "velocity": 0.5039370078740157,
                    "duration": 0.2061429999999973
                },
                {
                    "name": "E4",
                    "midi": 64,
                    "time": 359.10110599999666,
                    "velocity": 0.33070866141732286,
                    "duration": 0.2061429999999973
                },
                {
                    "name": "D4",
                    "midi": 62,
                    "time": 359.30724899999666,
                    "velocity": 0.3228346456692913,
                    "duration": 0.4122859999999946
                },
                {
                    "name": "B3",
                    "midi": 59,
                    "time": 359.71953499999665,
                    "velocity": 0.33070866141732286,
                    "duration": 0.2061429999999973
                },
                {
                    "name": "C#4",
                    "midi": 61,
                    "time": 360.33796399999665,
                    "velocity": 0.33070866141732286,
                    "duration": 0.2061429999999973
                },
                {
                    "name": "B3",
                    "midi": 59,
                    "time": 360.54410699999664,
                    "velocity": 0.3228346456692913,
                    "duration": 0.4122859999999946
                },
                {
                    "name": "G3",
                    "midi": 55,
                    "time": 360.95639299999664,
                    "velocity": 0.33070866141732286,
                    "duration": 0.2061429999999973
                },
                {
                    "name": "F#3",
                    "midi": 54,
                    "time": 361.16253599999663,
                    "velocity": 0.3228346456692913,
                    "duration": 0.4122859999999946
                },
                {
                    "name": "F#4",
                    "midi": 66,
                    "time": 363.0178229999966,
                    "velocity": 0.2047244094488189,
                    "duration": 0.10307149999999865
                },
                {
                    "name": "E4",
                    "midi": 64,
                    "time": 363.0178229999966,
                    "velocity": 0.1732283464566929,
                    "duration": 0.10307149999999865
                },
                {
                    "name": "A#3",
                    "midi": 58,
                    "time": 363.0178229999966,
                    "velocity": 0.1732283464566929,
                    "duration": 0.10307149999999865
                },
                {
                    "name": "C#4",
                    "midi": 61,
                    "time": 363.0178229999966,
                    "velocity": 0.1732283464566929,
                    "duration": 0.10307149999999865
                },
                {
                    "name": "C#4",
                    "midi": 61,
                    "time": 363.2239659999966,
                    "velocity": 0.1968503937007874,
                    "duration": 0.10307149999999865
                },
                {
                    "name": "A#3",
                    "midi": 58,
                    "time": 363.2239659999966,
                    "velocity": 0.1968503937007874,
                    "duration": 0.10307149999999865
                },
                {
                    "name": "E4",
                    "midi": 64,
                    "time": 363.2239659999966,
                    "velocity": 0.1968503937007874,
                    "duration": 0.10307149999999865
                },
                {
                    "name": "F#4",
                    "midi": 66,
                    "time": 363.2239659999966,
                    "velocity": 0.23622047244094488,
                    "duration": 0.10307149999999865
                },
                {
                    "name": "A#3",
                    "midi": 58,
                    "time": 363.4301089999966,
                    "velocity": 0.1732283464566929,
                    "duration": 0.10307149999999865
                },
                {
                    "name": "F#4",
                    "midi": 66,
                    "time": 363.4301089999966,
                    "velocity": 0.2047244094488189,
                    "duration": 0.10307149999999865
                },
                {
                    "name": "C#4",
                    "midi": 61,
                    "time": 363.4301089999966,
                    "velocity": 0.1732283464566929,
                    "duration": 0.10307149999999865
                },
                {
                    "name": "E4",
                    "midi": 64,
                    "time": 363.4301089999966,
                    "velocity": 0.1732283464566929,
                    "duration": 0.10307149999999865
                },
                {
                    "name": "F#4",
                    "midi": 66,
                    "time": 363.6362519999966,
                    "velocity": 0.25984251968503935,
                    "duration": 0.10307149999999865
                },
                {
                    "name": "B3",
                    "midi": 59,
                    "time": 363.6362519999966,
                    "velocity": 0.2204724409448819,
                    "duration": 0.10307149999999865
                },
                {
                    "name": "D#4",
                    "midi": 63,
                    "time": 363.6362519999966,
                    "velocity": 0.2204724409448819,
                    "duration": 0.10307149999999865
                },
                {
                    "name": "C#4",
                    "midi": 61,
                    "time": 364.2546809999966,
                    "velocity": 0.2047244094488189,
                    "duration": 0.10307149999999865
                },
                {
                    "name": "E3",
                    "midi": 52,
                    "time": 364.2546809999966,
                    "velocity": 0.1732283464566929,
                    "duration": 0.10307149999999865
                },
                {
                    "name": "F#3",
                    "midi": 54,
                    "time": 364.2546809999966,
                    "velocity": 0.1732283464566929,
                    "duration": 0.10307149999999865
                },
                {
                    "name": "A#3",
                    "midi": 58,
                    "time": 364.2546809999966,
                    "velocity": 0.1732283464566929,
                    "duration": 0.10307149999999865
                },
                {
                    "name": "E3",
                    "midi": 52,
                    "time": 364.4608239999966,
                    "velocity": 0.1968503937007874,
                    "duration": 0.10307149999999865
                },
                {
                    "name": "F#3",
                    "midi": 54,
                    "time": 364.4608239999966,
                    "velocity": 0.1968503937007874,
                    "duration": 0.10307149999999865
                },
                {
                    "name": "A#3",
                    "midi": 58,
                    "time": 364.4608239999966,
                    "velocity": 0.1968503937007874,
                    "duration": 0.10307149999999865
                },
                {
                    "name": "D#4",
                    "midi": 63,
                    "time": 364.4608239999966,
                    "velocity": 0.23622047244094488,
                    "duration": 0.10307149999999865
                },
                {
                    "name": "E3",
                    "midi": 52,
                    "time": 364.6669669999966,
                    "velocity": 0.1732283464566929,
                    "duration": 0.10307149999999865
                },
                {
                    "name": "F#3",
                    "midi": 54,
                    "time": 364.6669669999966,
                    "velocity": 0.1732283464566929,
                    "duration": 0.10307149999999865
                },
                {
                    "name": "A#3",
                    "midi": 58,
                    "time": 364.6669669999966,
                    "velocity": 0.1732283464566929,
                    "duration": 0.10307149999999865
                },
                {
                    "name": "C#4",
                    "midi": 61,
                    "time": 364.6669669999966,
                    "velocity": 0.2047244094488189,
                    "duration": 0.10307149999999865
                },
                {
                    "name": "D#3",
                    "midi": 51,
                    "time": 364.8731099999966,
                    "velocity": 0.2204724409448819,
                    "duration": 0.10307149999999865
                },
                {
                    "name": "F#3",
                    "midi": 54,
                    "time": 364.8731099999966,
                    "velocity": 0.2204724409448819,
                    "duration": 0.10307149999999865
                },
                {
                    "name": "B3",
                    "midi": 59,
                    "time": 364.8731099999966,
                    "velocity": 0.25984251968503935,
                    "duration": 0.10307149999999865
                },
                {
                    "name": "A#3",
                    "midi": 58,
                    "time": 365.4915389999966,
                    "velocity": 0.1732283464566929,
                    "duration": 0.10307149999999865
                },
                {
                    "name": "F#4",
                    "midi": 66,
                    "time": 365.4915389999966,
                    "velocity": 0.2047244094488189,
                    "duration": 0.10307149999999865
                },
                {
                    "name": "C#4",
                    "midi": 61,
                    "time": 365.4915389999966,
                    "velocity": 0.1732283464566929,
                    "duration": 0.10307149999999865
                },
                {
                    "name": "E4",
                    "midi": 64,
                    "time": 365.4915389999966,
                    "velocity": 0.1732283464566929,
                    "duration": 0.10307149999999865
                },
                {
                    "name": "A#3",
                    "midi": 58,
                    "time": 365.6976819999966,
                    "velocity": 0.1968503937007874,
                    "duration": 0.10307149999999865
                },
                {
                    "name": "C#4",
                    "midi": 61,
                    "time": 365.6976819999966,
                    "velocity": 0.1968503937007874,
                    "duration": 0.10307149999999865
                },
                {
                    "name": "E4",
                    "midi": 64,
                    "time": 365.6976819999966,
                    "velocity": 0.1968503937007874,
                    "duration": 0.10307149999999865
                },
                {
                    "name": "F#4",
                    "midi": 66,
                    "time": 365.6976819999966,
                    "velocity": 0.23622047244094488,
                    "duration": 0.10307149999999865
                },
                {
                    "name": "C#4",
                    "midi": 61,
                    "time": 365.9038249999966,
                    "velocity": 0.1732283464566929,
                    "duration": 0.10307149999999865
                },
                {
                    "name": "F#4",
                    "midi": 66,
                    "time": 365.9038249999966,
                    "velocity": 0.2047244094488189,
                    "duration": 0.10307149999999865
                },
                {
                    "name": "E4",
                    "midi": 64,
                    "time": 365.9038249999966,
                    "velocity": 0.1732283464566929,
                    "duration": 0.10307149999999865
                },
                {
                    "name": "A#3",
                    "midi": 58,
                    "time": 365.9038249999966,
                    "velocity": 0.1732283464566929,
                    "duration": 0.10307149999999865
                },
                {
                    "name": "F#4",
                    "midi": 66,
                    "time": 366.10996799999657,
                    "velocity": 0.25984251968503935,
                    "duration": 0.10307149999999865
                },
                {
                    "name": "D#4",
                    "midi": 63,
                    "time": 366.10996799999657,
                    "velocity": 0.2204724409448819,
                    "duration": 0.10307149999999865
                },
                {
                    "name": "B3",
                    "midi": 59,
                    "time": 366.10996799999657,
                    "velocity": 0.2204724409448819,
                    "duration": 0.10307149999999865
                },
                {
                    "name": "A#3",
                    "midi": 58,
                    "time": 366.72839699999656,
                    "velocity": 0.1732283464566929,
                    "duration": 0.10307149999999865
                },
                {
                    "name": "C#4",
                    "midi": 61,
                    "time": 366.72839699999656,
                    "velocity": 0.2047244094488189,
                    "duration": 0.10307149999999865
                },
                {
                    "name": "E3",
                    "midi": 52,
                    "time": 366.72839699999656,
                    "velocity": 0.1732283464566929,
                    "duration": 0.10307149999999865
                },
                {
                    "name": "F#3",
                    "midi": 54,
                    "time": 366.72839699999656,
                    "velocity": 0.1732283464566929,
                    "duration": 0.10307149999999865
                },
                {
                    "name": "A#3",
                    "midi": 58,
                    "time": 366.93453999999656,
                    "velocity": 0.1968503937007874,
                    "duration": 0.10307149999999865
                },
                {
                    "name": "E3",
                    "midi": 52,
                    "time": 366.93453999999656,
                    "velocity": 0.1968503937007874,
                    "duration": 0.10307149999999865
                },
                {
                    "name": "F#3",
                    "midi": 54,
                    "time": 366.93453999999656,
                    "velocity": 0.1968503937007874,
                    "duration": 0.10307149999999865
                },
                {
                    "name": "D#4",
                    "midi": 63,
                    "time": 366.93453999999656,
                    "velocity": 0.23622047244094488,
                    "duration": 0.10307149999999865
                },
                {
                    "name": "A#3",
                    "midi": 58,
                    "time": 367.14068299999656,
                    "velocity": 0.1732283464566929,
                    "duration": 0.10307149999999865
                },
                {
                    "name": "E3",
                    "midi": 52,
                    "time": 367.14068299999656,
                    "velocity": 0.1732283464566929,
                    "duration": 0.10307149999999865
                },
                {
                    "name": "C#4",
                    "midi": 61,
                    "time": 367.14068299999656,
                    "velocity": 0.2047244094488189,
                    "duration": 0.10307149999999865
                },
                {
                    "name": "F#3",
                    "midi": 54,
                    "time": 367.14068299999656,
                    "velocity": 0.1732283464566929,
                    "duration": 0.10307149999999865
                },
                {
                    "name": "F#3",
                    "midi": 54,
                    "time": 367.34682599999655,
                    "velocity": 0.2204724409448819,
                    "duration": 0.10307149999999865
                },
                {
                    "name": "B3",
                    "midi": 59,
                    "time": 367.34682599999655,
                    "velocity": 0.25984251968503935,
                    "duration": 0.10307149999999865
                },
                {
                    "name": "D#3",
                    "midi": 51,
                    "time": 367.34682599999655,
                    "velocity": 0.2204724409448819,
                    "duration": 0.10307149999999865
                },
                {
                    "name": "F#4",
                    "midi": 66,
                    "time": 367.96525499999655,
                    "velocity": 0.18110236220472442,
                    "duration": 0.10307149999999865
                },
                {
                    "name": "C4",
                    "midi": 60,
                    "time": 367.96525499999655,
                    "velocity": 0.18110236220472442,
                    "duration": 0.10307149999999865
                },
                {
                    "name": "D#4",
                    "midi": 63,
                    "time": 367.96525499999655,
                    "velocity": 0.18110236220472442,
                    "duration": 0.10307149999999865
                },
                {
                    "name": "G#4",
                    "midi": 68,
                    "time": 367.96525499999655,
                    "velocity": 0.2204724409448819,
                    "duration": 0.10307149999999865
                },
                {
                    "name": "F#4",
                    "midi": 66,
                    "time": 368.17139799999654,
                    "velocity": 0.2125984251968504,
                    "duration": 0.10307149999999865
                },
                {
                    "name": "G#4",
                    "midi": 68,
                    "time": 368.17139799999654,
                    "velocity": 0.25984251968503935,
                    "duration": 0.10307149999999865
                },
                {
                    "name": "D#4",
                    "midi": 63,
                    "time": 368.17139799999654,
                    "velocity": 0.2125984251968504,
                    "duration": 0.10307149999999865
                },
                {
                    "name": "C4",
                    "midi": 60,
                    "time": 368.17139799999654,
                    "velocity": 0.2125984251968504,
                    "duration": 0.10307149999999865
                },
                {
                    "name": "D#4",
                    "midi": 63,
                    "time": 368.37754099999654,
                    "velocity": 0.1968503937007874,
                    "duration": 0.10307149999999865
                },
                {
                    "name": "C4",
                    "midi": 60,
                    "time": 368.37754099999654,
                    "velocity": 0.1968503937007874,
                    "duration": 0.10307149999999865
                },
                {
                    "name": "F#4",
                    "midi": 66,
                    "time": 368.37754099999654,
                    "velocity": 0.1968503937007874,
                    "duration": 0.10307149999999865
                },
                {
                    "name": "G#4",
                    "midi": 68,
                    "time": 368.37754099999654,
                    "velocity": 0.2283464566929134,
                    "duration": 0.10307149999999865
                },
                {
                    "name": "E4",
                    "midi": 64,
                    "time": 368.58368399999654,
                    "velocity": 0.25196850393700787,
                    "duration": 0.10307149999999865
                },
                {
                    "name": "C#4",
                    "midi": 61,
                    "time": 368.58368399999654,
                    "velocity": 0.25196850393700787,
                    "duration": 0.10307149999999865
                },
                {
                    "name": "G#4",
                    "midi": 68,
                    "time": 368.58368399999654,
                    "velocity": 0.2992125984251969,
                    "duration": 0.10307149999999865
                },
                {
                    "name": "A#3",
                    "midi": 58,
                    "time": 369.20211299999653,
                    "velocity": 0.2125984251968504,
                    "duration": 0.10307149999999865
                },
                {
                    "name": "C#4",
                    "midi": 61,
                    "time": 369.20211299999653,
                    "velocity": 0.2125984251968504,
                    "duration": 0.10307149999999865
                },
                {
                    "name": "E4",
                    "midi": 64,
                    "time": 369.20211299999653,
                    "velocity": 0.2125984251968504,
                    "duration": 0.10307149999999865
                },
                {
                    "name": "F#4",
                    "midi": 66,
                    "time": 369.20211299999653,
                    "velocity": 0.25196850393700787,
                    "duration": 0.10307149999999865
                },
                {
                    "name": "A#3",
                    "midi": 58,
                    "time": 369.4082559999965,
                    "velocity": 0.25196850393700787,
                    "duration": 0.10307149999999865
                },
                {
                    "name": "D#4",
                    "midi": 63,
                    "time": 369.4082559999965,
                    "velocity": 0.25196850393700787,
                    "duration": 0.10307149999999865
                },
                {
                    "name": "E4",
                    "midi": 64,
                    "time": 369.4082559999965,
                    "velocity": 0.25196850393700787,
                    "duration": 0.10307149999999865
                },
                {
                    "name": "F#4",
                    "midi": 66,
                    "time": 369.4082559999965,
                    "velocity": 0.2992125984251969,
                    "duration": 0.10307149999999865
                },
                {
                    "name": "E4",
                    "midi": 64,
                    "time": 369.6143989999965,
                    "velocity": 0.2204724409448819,
                    "duration": 0.10307149999999865
                },
                {
                    "name": "F#4",
                    "midi": 66,
                    "time": 369.6143989999965,
                    "velocity": 0.2677165354330709,
                    "duration": 0.10307149999999865
                },
                {
                    "name": "A#3",
                    "midi": 58,
                    "time": 369.6143989999965,
                    "velocity": 0.2204724409448819,
                    "duration": 0.10307149999999865
                },
                {
                    "name": "C#4",
                    "midi": 61,
                    "time": 369.6143989999965,
                    "velocity": 0.2204724409448819,
                    "duration": 0.10307149999999865
                },
                {
                    "name": "B3",
                    "midi": 59,
                    "time": 369.8205419999965,
                    "velocity": 0.29133858267716534,
                    "duration": 0.10307149999999865
                },
                {
                    "name": "D#4",
                    "midi": 63,
                    "time": 369.8205419999965,
                    "velocity": 0.29133858267716534,
                    "duration": 0.10307149999999865
                },
                {
                    "name": "F#4",
                    "midi": 66,
                    "time": 369.8205419999965,
                    "velocity": 0.33858267716535434,
                    "duration": 0.10307149999999865
                },
                {
                    "name": "D#4",
                    "midi": 63,
                    "time": 370.4389709999965,
                    "velocity": 0.2440944881889764,
                    "duration": 0.10307149999999865
                },
                {
                    "name": "A4",
                    "midi": 69,
                    "time": 370.4389709999965,
                    "velocity": 0.2440944881889764,
                    "duration": 0.10307149999999865
                },
                {
                    "name": "B4",
                    "midi": 71,
                    "time": 370.4389709999965,
                    "velocity": 0.28346456692913385,
                    "duration": 0.10307149999999865
                },
                {
                    "name": "F#4",
                    "midi": 66,
                    "time": 370.4389709999965,
                    "velocity": 0.2440944881889764,
                    "duration": 0.10307149999999865
                },
                {
                    "name": "D#4",
                    "midi": 63,
                    "time": 370.6451139999965,
                    "velocity": 0.28346456692913385,
                    "duration": 0.10307149999999865
                },
                {
                    "name": "F#4",
                    "midi": 66,
                    "time": 370.6451139999965,
                    "velocity": 0.28346456692913385,
                    "duration": 0.10307149999999865
                },
                {
                    "name": "A4",
                    "midi": 69,
                    "time": 370.6451139999965,
                    "velocity": 0.28346456692913385,
                    "duration": 0.10307149999999865
                },
                {
                    "name": "B4",
                    "midi": 71,
                    "time": 370.6451139999965,
                    "velocity": 0.33858267716535434,
                    "duration": 0.10307149999999865
                },
                {
                    "name": "D#4",
                    "midi": 63,
                    "time": 370.8512569999965,
                    "velocity": 0.25196850393700787,
                    "duration": 0.10307149999999865
                },
                {
                    "name": "F#4",
                    "midi": 66,
                    "time": 370.8512569999965,
                    "velocity": 0.25196850393700787,
                    "duration": 0.10307149999999865
                },
                {
                    "name": "A4",
                    "midi": 69,
                    "time": 370.8512569999965,
                    "velocity": 0.25196850393700787,
                    "duration": 0.10307149999999865
                },
                {
                    "name": "B4",
                    "midi": 71,
                    "time": 370.8512569999965,
                    "velocity": 0.2992125984251969,
                    "duration": 0.10307149999999865
                },
                {
                    "name": "E4",
                    "midi": 64,
                    "time": 371.0573999999965,
                    "velocity": 0.33070866141732286,
                    "duration": 0.10307149999999865
                },
                {
                    "name": "B4",
                    "midi": 71,
                    "time": 371.0573999999965,
                    "velocity": 0.3858267716535433,
                    "duration": 0.10307149999999865
                },
                {
                    "name": "G#4",
                    "midi": 68,
                    "time": 371.0573999999965,
                    "velocity": 0.33070866141732286,
                    "duration": 0.10307149999999865
                },
                {
                    "name": "C#5",
                    "midi": 73,
                    "time": 371.6758289999965,
                    "velocity": 0.3700787401574803,
                    "duration": 0.10307149999999865
                },
                {
                    "name": "F4",
                    "midi": 65,
                    "time": 371.6758289999965,
                    "velocity": 0.30708661417322836,
                    "duration": 0.10307149999999865
                },
                {
                    "name": "G#4",
                    "midi": 68,
                    "time": 371.6758289999965,
                    "velocity": 0.30708661417322836,
                    "duration": 0.10307149999999865
                },
                {
                    "name": "B4",
                    "midi": 71,
                    "time": 371.6758289999965,
                    "velocity": 0.30708661417322836,
                    "duration": 0.10307149999999865
                },
                {
                    "name": "C#5",
                    "midi": 73,
                    "time": 371.8819719999965,
                    "velocity": 0.4330708661417323,
                    "duration": 0.10307149999999865
                },
                {
                    "name": "B4",
                    "midi": 71,
                    "time": 371.8819719999965,
                    "velocity": 0.36220472440944884,
                    "duration": 0.10307149999999865
                },
                {
                    "name": "G#4",
                    "midi": 68,
                    "time": 371.8819719999965,
                    "velocity": 0.36220472440944884,
                    "duration": 0.10307149999999865
                },
                {
                    "name": "F4",
                    "midi": 65,
                    "time": 371.8819719999965,
                    "velocity": 0.36220472440944884,
                    "duration": 0.10307149999999865
                },
                {
                    "name": "G#4",
                    "midi": 68,
                    "time": 372.0881149999965,
                    "velocity": 0.3228346456692913,
                    "duration": 0.10307149999999865
                },
                {
                    "name": "F4",
                    "midi": 65,
                    "time": 372.0881149999965,
                    "velocity": 0.3228346456692913,
                    "duration": 0.10307149999999865
                },
                {
                    "name": "C#5",
                    "midi": 73,
                    "time": 372.0881149999965,
                    "velocity": 0.3779527559055118,
                    "duration": 0.10307149999999865
                },
                {
                    "name": "B4",
                    "midi": 71,
                    "time": 372.0881149999965,
                    "velocity": 0.3228346456692913,
                    "duration": 0.10307149999999865
                },
                {
                    "name": "A#4",
                    "midi": 70,
                    "time": 372.2942579999965,
                    "velocity": 0.4094488188976378,
                    "duration": 0.10307149999999865
                },
                {
                    "name": "F#4",
                    "midi": 66,
                    "time": 372.2942579999965,
                    "velocity": 0.4094488188976378,
                    "duration": 0.10307149999999865
                },
                {
                    "name": "C#5",
                    "midi": 73,
                    "time": 372.2942579999965,
                    "velocity": 0.49606299212598426,
                    "duration": 0.10307149999999865
                },
                {
                    "name": "C#6",
                    "midi": 85,
                    "time": 372.9126869999965,
                    "velocity": 0.4330708661417323,
                    "duration": 0.10307149999999865
                },
                {
                    "name": "F#6",
                    "midi": 90,
                    "time": 372.9126869999965,
                    "velocity": 0.5118110236220472,
                    "duration": 0.10307149999999865
                },
                {
                    "name": "A#5",
                    "midi": 82,
                    "time": 372.9126869999965,
                    "velocity": 0.4330708661417323,
                    "duration": 0.10307149999999865
                },
                {
                    "name": "E5",
                    "midi": 76,
                    "time": 372.9126869999965,
                    "velocity": 0.4330708661417323,
                    "duration": 0.10307149999999865
                },
                {
                    "name": "E5",
                    "midi": 76,
                    "time": 373.1188299999965,
                    "velocity": 0.4881889763779528,
                    "duration": 0.10307149999999865
                },
                {
                    "name": "F#6",
                    "midi": 90,
                    "time": 373.1188299999965,
                    "velocity": 0.5826771653543307,
                    "duration": 0.10307149999999865
                },
                {
                    "name": "C#6",
                    "midi": 85,
                    "time": 373.1188299999965,
                    "velocity": 0.4881889763779528,
                    "duration": 0.10307149999999865
                },
                {
                    "name": "A#5",
                    "midi": 82,
                    "time": 373.1188299999965,
                    "velocity": 0.4881889763779528,
                    "duration": 0.10307149999999865
                },
                {
                    "name": "A#5",
                    "midi": 82,
                    "time": 373.3249729999965,
                    "velocity": 0.44881889763779526,
                    "duration": 0.10307149999999865
                },
                {
                    "name": "E5",
                    "midi": 76,
                    "time": 373.3249729999965,
                    "velocity": 0.44881889763779526,
                    "duration": 0.10307149999999865
                },
                {
                    "name": "F#6",
                    "midi": 90,
                    "time": 373.3249729999965,
                    "velocity": 0.5354330708661418,
                    "duration": 0.10307149999999865
                },
                {
                    "name": "C#6",
                    "midi": 85,
                    "time": 373.3249729999965,
                    "velocity": 0.44881889763779526,
                    "duration": 0.10307149999999865
                },
                {
                    "name": "E5",
                    "midi": 76,
                    "time": 373.5311159999965,
                    "velocity": 0.4330708661417323,
                    "duration": 0.10307149999999865
                },
                {
                    "name": "C#6",
                    "midi": 85,
                    "time": 373.5311159999965,
                    "velocity": 0.4330708661417323,
                    "duration": 0.10307149999999865
                },
                {
                    "name": "A#5",
                    "midi": 82,
                    "time": 373.5311159999965,
                    "velocity": 0.4330708661417323,
                    "duration": 0.10307149999999865
                },
                {
                    "name": "F#6",
                    "midi": 90,
                    "time": 373.5311159999965,
                    "velocity": 0.5118110236220472,
                    "duration": 0.10307149999999865
                },
                {
                    "name": "E5",
                    "midi": 76,
                    "time": 373.73725899999647,
                    "velocity": 0.4881889763779528,
                    "duration": 0.10307149999999865
                },
                {
                    "name": "C#6",
                    "midi": 85,
                    "time": 373.73725899999647,
                    "velocity": 0.4881889763779528,
                    "duration": 0.10307149999999865
                },
                {
                    "name": "F#6",
                    "midi": 90,
                    "time": 373.73725899999647,
                    "velocity": 0.5826771653543307,
                    "duration": 0.10307149999999865
                },
                {
                    "name": "A#5",
                    "midi": 82,
                    "time": 373.73725899999647,
                    "velocity": 0.4881889763779528,
                    "duration": 0.10307149999999865
                },
                {
                    "name": "C#6",
                    "midi": 85,
                    "time": 373.94340199999647,
                    "velocity": 0.44881889763779526,
                    "duration": 0.10307149999999865
                },
                {
                    "name": "A#5",
                    "midi": 82,
                    "time": 373.94340199999647,
                    "velocity": 0.44881889763779526,
                    "duration": 0.10307149999999865
                },
                {
                    "name": "E5",
                    "midi": 76,
                    "time": 373.94340199999647,
                    "velocity": 0.44881889763779526,
                    "duration": 0.10307149999999865
                },
                {
                    "name": "F#6",
                    "midi": 90,
                    "time": 373.94340199999647,
                    "velocity": 0.5354330708661418,
                    "duration": 0.10307149999999865
                },
                {
                    "name": "C#6",
                    "midi": 85,
                    "time": 374.14954499999646,
                    "velocity": 0.4330708661417323,
                    "duration": 0.10307149999999865
                },
                {
                    "name": "E5",
                    "midi": 76,
                    "time": 374.14954499999646,
                    "velocity": 0.4330708661417323,
                    "duration": 0.10307149999999865
                },
                {
                    "name": "F#6",
                    "midi": 90,
                    "time": 374.14954499999646,
                    "velocity": 0.5118110236220472,
                    "duration": 0.10307149999999865
                },
                {
                    "name": "A#5",
                    "midi": 82,
                    "time": 374.14954499999646,
                    "velocity": 0.4330708661417323,
                    "duration": 0.10307149999999865
                },
                {
                    "name": "E5",
                    "midi": 76,
                    "time": 374.35568799999646,
                    "velocity": 0.4881889763779528,
                    "duration": 0.10307149999999865
                },
                {
                    "name": "A#5",
                    "midi": 82,
                    "time": 374.35568799999646,
                    "velocity": 0.4881889763779528,
                    "duration": 0.10307149999999865
                },
                {
                    "name": "F#6",
                    "midi": 90,
                    "time": 374.35568799999646,
                    "velocity": 0.5826771653543307,
                    "duration": 0.10307149999999865
                },
                {
                    "name": "C#6",
                    "midi": 85,
                    "time": 374.35568799999646,
                    "velocity": 0.4881889763779528,
                    "duration": 0.10307149999999865
                },
                {
                    "name": "A#5",
                    "midi": 82,
                    "time": 374.56183099999646,
                    "velocity": 0.44881889763779526,
                    "duration": 0.10307149999999865
                },
                {
                    "name": "F#6",
                    "midi": 90,
                    "time": 374.56183099999646,
                    "velocity": 0.5354330708661418,
                    "duration": 0.10307149999999865
                },
                {
                    "name": "E5",
                    "midi": 76,
                    "time": 374.56183099999646,
                    "velocity": 0.44881889763779526,
                    "duration": 0.10307149999999865
                },
                {
                    "name": "C#6",
                    "midi": 85,
                    "time": 374.56183099999646,
                    "velocity": 0.44881889763779526,
                    "duration": 0.10307149999999865
                },
                {
                    "name": "B5",
                    "midi": 83,
                    "time": 374.76797399999646,
                    "velocity": 0.5275590551181102,
                    "duration": 0.10307149999999865
                },
                {
                    "name": "D#5",
                    "midi": 75,
                    "time": 374.76797399999646,
                    "velocity": 0.5275590551181102,
                    "duration": 0.10307149999999865
                },
                {
                    "name": "D#6",
                    "midi": 87,
                    "time": 374.76797399999646,
                    "velocity": 0.6220472440944882,
                    "duration": 0.10307149999999865
                },
                {
                    "name": "B4",
                    "midi": 71,
                    "time": 375.18025999999645,
                    "velocity": 0.48031496062992124,
                    "duration": 0.10307149999999865
                },
                {
                    "name": "B5",
                    "midi": 83,
                    "time": 375.18025999999645,
                    "velocity": 0.5669291338582677,
                    "duration": 0.10307149999999865
                },
                {
                    "name": "F#5",
                    "midi": 78,
                    "time": 375.38640299999645,
                    "velocity": 0.6220472440944882,
                    "duration": 0.10307149999999865
                },
                {
                    "name": "F#4",
                    "midi": 66,
                    "time": 375.38640299999645,
                    "velocity": 0.5275590551181102,
                    "duration": 0.10307149999999865
                },
                {
                    "name": "D#5",
                    "midi": 75,
                    "time": 375.79868899999644,
                    "velocity": 0.5590551181102362,
                    "duration": 0.10307149999999865
                },
                {
                    "name": "D#4",
                    "midi": 63,
                    "time": 375.79868899999644,
                    "velocity": 0.47244094488188976,
                    "duration": 0.10307149999999865
                },
                {
                    "name": "B4",
                    "midi": 71,
                    "time": 376.00483199999644,
                    "velocity": 0.6220472440944882,
                    "duration": 0.10307149999999865
                },
                {
                    "name": "G4",
                    "midi": 67,
                    "time": 376.41711799999644,
                    "velocity": 0.5748031496062992,
                    "duration": 0.10307149999999865
                },
                {
                    "name": "A#5",
                    "midi": 82,
                    "time": 376.62326099999643,
                    "velocity": 0.4330708661417323,
                    "duration": 0.10307149999999865
                },
                {
                    "name": "C#6",
                    "midi": 85,
                    "time": 376.62326099999643,
                    "velocity": 0.4330708661417323,
                    "duration": 0.10307149999999865
                },
                {
                    "name": "E5",
                    "midi": 76,
                    "time": 376.62326099999643,
                    "velocity": 0.4330708661417323,
                    "duration": 0.10307149999999865
                },
                {
                    "name": "F#6",
                    "midi": 90,
                    "time": 376.62326099999643,
                    "velocity": 0.5118110236220472,
                    "duration": 0.10307149999999865
                },
                {
                    "name": "F#6",
                    "midi": 90,
                    "time": 376.82940399999643,
                    "velocity": 0.5826771653543307,
                    "duration": 0.10307149999999865
                },
                {
                    "name": "E5",
                    "midi": 76,
                    "time": 376.82940399999643,
                    "velocity": 0.4881889763779528,
                    "duration": 0.10307149999999865
                },
                {
                    "name": "A#5",
                    "midi": 82,
                    "time": 376.82940399999643,
                    "velocity": 0.4881889763779528,
                    "duration": 0.10307149999999865
                },
                {
                    "name": "C#6",
                    "midi": 85,
                    "time": 376.82940399999643,
                    "velocity": 0.4881889763779528,
                    "duration": 0.10307149999999865
                },
                {
                    "name": "E5",
                    "midi": 76,
                    "time": 377.0355469999964,
                    "velocity": 0.44881889763779526,
                    "duration": 0.10307149999999865
                },
                {
                    "name": "C#6",
                    "midi": 85,
                    "time": 377.0355469999964,
                    "velocity": 0.44881889763779526,
                    "duration": 0.10307149999999865
                },
                {
                    "name": "A#5",
                    "midi": 82,
                    "time": 377.0355469999964,
                    "velocity": 0.44881889763779526,
                    "duration": 0.10307149999999865
                },
                {
                    "name": "F#6",
                    "midi": 90,
                    "time": 377.0355469999964,
                    "velocity": 0.5354330708661418,
                    "duration": 0.10307149999999865
                },
                {
                    "name": "B5",
                    "midi": 83,
                    "time": 377.2416899999964,
                    "velocity": 0.5275590551181102,
                    "duration": 0.10307149999999865
                },
                {
                    "name": "D#5",
                    "midi": 75,
                    "time": 377.2416899999964,
                    "velocity": 0.5275590551181102,
                    "duration": 0.10307149999999865
                },
                {
                    "name": "D#6",
                    "midi": 87,
                    "time": 377.2416899999964,
                    "velocity": 0.6220472440944882,
                    "duration": 0.10307149999999865
                },
                {
                    "name": "B4",
                    "midi": 71,
                    "time": 377.6539759999964,
                    "velocity": 0.48031496062992124,
                    "duration": 0.10307149999999865
                },
                {
                    "name": "B5",
                    "midi": 83,
                    "time": 377.6539759999964,
                    "velocity": 0.5669291338582677,
                    "duration": 0.10307149999999865
                },
                {
                    "name": "F#4",
                    "midi": 66,
                    "time": 377.8601189999964,
                    "velocity": 0.5275590551181102,
                    "duration": 0.10307149999999865
                },
                {
                    "name": "F#5",
                    "midi": 78,
                    "time": 377.8601189999964,
                    "velocity": 0.6220472440944882,
                    "duration": 0.10307149999999865
                },
                {
                    "name": "D#4",
                    "midi": 63,
                    "time": 378.2724049999964,
                    "velocity": 0.47244094488188976,
                    "duration": 0.10307149999999865
                },
                {
                    "name": "D#5",
                    "midi": 75,
                    "time": 378.2724049999964,
                    "velocity": 0.5590551181102362,
                    "duration": 0.10307149999999865
                },
                {
                    "name": "B4",
                    "midi": 71,
                    "time": 378.4785479999964,
                    "velocity": 0.6220472440944882,
                    "duration": 0.10307149999999865
                },
                {
                    "name": "G4",
                    "midi": 67,
                    "time": 378.8908339999964,
                    "velocity": 0.5748031496062992,
                    "duration": 0.10307149999999865
                },
                {
                    "name": "E5",
                    "midi": 76,
                    "time": 379.0969769999964,
                    "velocity": 0.4330708661417323,
                    "duration": 0.10307149999999865
                },
                {
                    "name": "C#6",
                    "midi": 85,
                    "time": 379.0969769999964,
                    "velocity": 0.4330708661417323,
                    "duration": 0.10307149999999865
                },
                {
                    "name": "A#5",
                    "midi": 82,
                    "time": 379.0969769999964,
                    "velocity": 0.4330708661417323,
                    "duration": 0.10307149999999865
                },
                {
                    "name": "F#6",
                    "midi": 90,
                    "time": 379.0969769999964,
                    "velocity": 0.5118110236220472,
                    "duration": 0.10307149999999865
                },
                {
                    "name": "C#6",
                    "midi": 85,
                    "time": 379.3031199999964,
                    "velocity": 0.4881889763779528,
                    "duration": 0.10307149999999865
                },
                {
                    "name": "F#6",
                    "midi": 90,
                    "time": 379.3031199999964,
                    "velocity": 0.5826771653543307,
                    "duration": 0.10307149999999865
                },
                {
                    "name": "E5",
                    "midi": 76,
                    "time": 379.3031199999964,
                    "velocity": 0.4881889763779528,
                    "duration": 0.10307149999999865
                },
                {
                    "name": "A#5",
                    "midi": 82,
                    "time": 379.3031199999964,
                    "velocity": 0.4881889763779528,
                    "duration": 0.10307149999999865
                },
                {
                    "name": "C#6",
                    "midi": 85,
                    "time": 379.5092629999964,
                    "velocity": 0.44881889763779526,
                    "duration": 0.10307149999999865
                },
                {
                    "name": "E5",
                    "midi": 76,
                    "time": 379.5092629999964,
                    "velocity": 0.44881889763779526,
                    "duration": 0.10307149999999865
                },
                {
                    "name": "A#5",
                    "midi": 82,
                    "time": 379.5092629999964,
                    "velocity": 0.44881889763779526,
                    "duration": 0.10307149999999865
                },
                {
                    "name": "F#6",
                    "midi": 90,
                    "time": 379.5092629999964,
                    "velocity": 0.5354330708661418,
                    "duration": 0.10307149999999865
                },
                {
                    "name": "D#5",
                    "midi": 75,
                    "time": 379.7154059999964,
                    "velocity": 0.5275590551181102,
                    "duration": 0.10307149999999865
                },
                {
                    "name": "B5",
                    "midi": 83,
                    "time": 379.7154059999964,
                    "velocity": 0.5275590551181102,
                    "duration": 0.10307149999999865
                },
                {
                    "name": "D#6",
                    "midi": 87,
                    "time": 379.7154059999964,
                    "velocity": 0.6220472440944882,
                    "duration": 0.10307149999999865
                },
                {
                    "name": "B5",
                    "midi": 83,
                    "time": 380.1276919999964,
                    "velocity": 0.5669291338582677,
                    "duration": 0.10307149999999865
                },
                {
                    "name": "B4",
                    "midi": 71,
                    "time": 380.1276919999964,
                    "velocity": 0.48031496062992124,
                    "duration": 0.10307149999999865
                },
                {
                    "name": "G5",
                    "midi": 79,
                    "time": 380.3338349999964,
                    "velocity": 0.6220472440944882,
                    "duration": 0.10307149999999865
                },
                {
                    "name": "G4",
                    "midi": 67,
                    "time": 380.3338349999964,
                    "velocity": 0.5275590551181102,
                    "duration": 0.10307149999999865
                },
                {
                    "name": "E5",
                    "midi": 76,
                    "time": 380.7461209999964,
                    "velocity": 0.5039370078740157,
                    "duration": 0.10307149999999865
                },
                {
                    "name": "E4",
                    "midi": 64,
                    "time": 380.7461209999964,
                    "velocity": 0.5039370078740157,
                    "duration": 0.10307149999999865
                },
                {
                    "name": "C5",
                    "midi": 72,
                    "time": 380.9522639999964,
                    "velocity": 0.5433070866141733,
                    "duration": 0.10307149999999865
                },
                {
                    "name": "A4",
                    "midi": 69,
                    "time": 381.36454999999637,
                    "velocity": 0.4094488188976378,
                    "duration": 0.10307149999999865
                },
                {
                    "name": "F#4",
                    "midi": 66,
                    "time": 381.57069299999637,
                    "velocity": 0.4566929133858268,
                    "duration": 0.10307149999999865
                },
                {
                    "name": "D#4",
                    "midi": 63,
                    "time": 381.98297899999636,
                    "velocity": 0.33858267716535434,
                    "duration": 0.10307149999999865
                },
                {
                    "name": "B3",
                    "midi": 59,
                    "time": 382.18912199999636,
                    "velocity": 0.3543307086614173,
                    "duration": 0.10307149999999865
                },
                {
                    "name": "G3",
                    "midi": 55,
                    "time": 383.42597999999634,
                    "velocity": 0.28346456692913385,
                    "duration": 0.10307149999999865
                },
                {
                    "name": "E3",
                    "midi": 52,
                    "time": 384.6628379999963,
                    "velocity": 0.28346456692913385,
                    "duration": 0.10307149999999865
                },
                {
                    "name": "D6",
                    "midi": 86,
                    "time": 385.2812669999963,
                    "velocity": 0.29133858267716534,
                    "duration": 0.6184289999999919
                },
                {
                    "name": "B5",
                    "midi": 83,
                    "time": 385.2812669999963,
                    "velocity": 0.2440944881889764,
                    "duration": 0.6184289999999919
                },
                {
                    "name": "A5",
                    "midi": 81,
                    "time": 385.8996959999963,
                    "velocity": 0.28346456692913385,
                    "duration": 0.6098397083333111
                },
                {
                    "name": "C6",
                    "midi": 84,
                    "time": 385.8996959999963,
                    "velocity": 0.28346456692913385,
                    "duration": 0.6098397083333111
                },
                {
                    "name": "A5",
                    "midi": 81,
                    "time": 386.5181249999963,
                    "velocity": 0.29133858267716534,
                    "duration": 0.6184289999999919
                },
                {
                    "name": "F#5",
                    "midi": 78,
                    "time": 386.5181249999963,
                    "velocity": 0.2440944881889764,
                    "duration": 0.6184289999999919
                },
                {
                    "name": "B5",
                    "midi": 83,
                    "time": 387.1365539999963,
                    "velocity": 0.2755905511811024,
                    "duration": 0.10307149999999865
                },
                {
                    "name": "G5",
                    "midi": 79,
                    "time": 387.1365539999963,
                    "velocity": 0.2283464566929134,
                    "duration": 0.10307149999999865
                },
                {
                    "name": "E5",
                    "midi": 76,
                    "time": 387.3426969999963,
                    "velocity": 0.2047244094488189,
                    "duration": 0.10307149999999865
                },
                {
                    "name": "G5",
                    "midi": 79,
                    "time": 387.3426969999963,
                    "velocity": 0.2440944881889764,
                    "duration": 0.10307149999999865
                },
                {
                    "name": "F#5",
                    "midi": 78,
                    "time": 387.5488399999963,
                    "velocity": 0.2125984251968504,
                    "duration": 0.10307149999999865
                },
                {
                    "name": "A5",
                    "midi": 81,
                    "time": 387.5488399999963,
                    "velocity": 0.2755905511811024,
                    "duration": 0.10307149999999865
                },
                {
                    "name": "F#5",
                    "midi": 78,
                    "time": 387.7549829999963,
                    "velocity": 0.2440944881889764,
                    "duration": 0.10307149999999865
                },
                {
                    "name": "D#5",
                    "midi": 75,
                    "time": 387.7549829999963,
                    "velocity": 0.2047244094488189,
                    "duration": 0.10307149999999865
                },
                {
                    "name": "E5",
                    "midi": 76,
                    "time": 387.9611259999963,
                    "velocity": 0.2283464566929134,
                    "duration": 0.10307149999999865
                },
                {
                    "name": "G5",
                    "midi": 79,
                    "time": 387.9611259999963,
                    "velocity": 0.2755905511811024,
                    "duration": 0.10307149999999865
                },
                {
                    "name": "E5",
                    "midi": 76,
                    "time": 388.1672689999963,
                    "velocity": 0.25196850393700787,
                    "duration": 0.10307149999999865
                },
                {
                    "name": "C#5",
                    "midi": 73,
                    "time": 388.1672689999963,
                    "velocity": 0.2125984251968504,
                    "duration": 0.10307149999999865
                },
                {
                    "name": "F#5",
                    "midi": 78,
                    "time": 388.3734119999963,
                    "velocity": 0.2755905511811024,
                    "duration": 0.10307149999999865
                },
                {
                    "name": "D#5",
                    "midi": 75,
                    "time": 388.3734119999963,
                    "velocity": 0.2283464566929134,
                    "duration": 0.10307149999999865
                },
                {
                    "name": "F#5",
                    "midi": 78,
                    "time": 388.7856979999963,
                    "velocity": 0.2677165354330709,
                    "duration": 0.10307149999999865
                },
                {
                    "name": "D#5",
                    "midi": 75,
                    "time": 388.7856979999963,
                    "velocity": 0.2283464566929134,
                    "duration": 0.10307149999999865
                },
                {
                    "name": "B4",
                    "midi": 71,
                    "time": 388.99184099999627,
                    "velocity": 0.2677165354330709,
                    "duration": 0.8245719999999892
                },
                {
                    "name": "A#4",
                    "midi": 70,
                    "time": 389.81641299999626,
                    "velocity": 0.2047244094488189,
                    "duration": 0.10307149999999865
                },
                {
                    "name": "C#5",
                    "midi": 73,
                    "time": 389.81641299999626,
                    "velocity": 0.2440944881889764,
                    "duration": 0.10307149999999865
                },
                {
                    "name": "B4",
                    "midi": 71,
                    "time": 390.02255599999626,
                    "velocity": 0.2125984251968504,
                    "duration": 0.10307149999999865
                },
                {
                    "name": "D#5",
                    "midi": 75,
                    "time": 390.02255599999626,
                    "velocity": 0.25196850393700787,
                    "duration": 0.10307149999999865
                },
                {
                    "name": "C#5",
                    "midi": 73,
                    "time": 390.22869899999625,
                    "velocity": 0.2204724409448819,
                    "duration": 0.10307149999999865
                },
                {
                    "name": "E5",
                    "midi": 76,
                    "time": 390.22869899999625,
                    "velocity": 0.25984251968503935,
                    "duration": 0.10307149999999865
                },
                {
                    "name": "D#5",
                    "midi": 75,
                    "time": 390.43484199999625,
                    "velocity": 0.2204724409448819,
                    "duration": 0.10307149999999865
                },
                {
                    "name": "F#5",
                    "midi": 78,
                    "time": 390.43484199999625,
                    "velocity": 0.25984251968503935,
                    "duration": 0.10307149999999865
                },
                {
                    "name": "E5",
                    "midi": 76,
                    "time": 390.64098499999625,
                    "velocity": 0.2283464566929134,
                    "duration": 0.10307149999999865
                },
                {
                    "name": "G5",
                    "midi": 79,
                    "time": 390.64098499999625,
                    "velocity": 0.2677165354330709,
                    "duration": 0.10307149999999865
                },
                {
                    "name": "D#5",
                    "midi": 75,
                    "time": 390.84712799999625,
                    "velocity": 0.2283464566929134,
                    "duration": 0.10307149999999865
                },
                {
                    "name": "F#5",
                    "midi": 78,
                    "time": 390.84712799999625,
                    "velocity": 0.2755905511811024,
                    "duration": 0.10307149999999865
                },
                {
                    "name": "B5",
                    "midi": 83,
                    "time": 391.25941399999624,
                    "velocity": 0.2677165354330709,
                    "duration": 0.10307149999999865
                },
                {
                    "name": "B4",
                    "midi": 71,
                    "time": 391.46555699999624,
                    "velocity": 0.2677165354330709,
                    "duration": 0.8245719999999892
                },
                {
                    "name": "A#4",
                    "midi": 70,
                    "time": 392.2901289999962,
                    "velocity": 0.2047244094488189,
                    "duration": 0.10307149999999865
                },
                {
                    "name": "C#5",
                    "midi": 73,
                    "time": 392.2901289999962,
                    "velocity": 0.2440944881889764,
                    "duration": 0.10307149999999865
                },
                {
                    "name": "B4",
                    "midi": 71,
                    "time": 392.4962719999962,
                    "velocity": 0.2125984251968504,
                    "duration": 0.10307149999999865
                },
                {
                    "name": "D#5",
                    "midi": 75,
                    "time": 392.4962719999962,
                    "velocity": 0.25196850393700787,
                    "duration": 0.10307149999999865
                },
                {
                    "name": "C#5",
                    "midi": 73,
                    "time": 392.7024149999962,
                    "velocity": 0.2204724409448819,
                    "duration": 0.10307149999999865
                },
                {
                    "name": "E5",
                    "midi": 76,
                    "time": 392.7024149999962,
                    "velocity": 0.25984251968503935,
                    "duration": 0.10307149999999865
                },
                {
                    "name": "D#5",
                    "midi": 75,
                    "time": 392.9085579999962,
                    "velocity": 0.2204724409448819,
                    "duration": 0.10307149999999865
                },
                {
                    "name": "F#5",
                    "midi": 78,
                    "time": 392.9085579999962,
                    "velocity": 0.25984251968503935,
                    "duration": 0.10307149999999865
                },
                {
                    "name": "G5",
                    "midi": 79,
                    "time": 393.1147009999962,
                    "velocity": 0.2677165354330709,
                    "duration": 0.10307149999999865
                },
                {
                    "name": "E5",
                    "midi": 76,
                    "time": 393.1147009999962,
                    "velocity": 0.2283464566929134,
                    "duration": 0.10307149999999865
                },
                {
                    "name": "A#4",
                    "midi": 70,
                    "time": 393.26930824999624,
                    "velocity": 0.2283464566929134,
                    "duration": 0.15460724999996955
                },
                {
                    "name": "C#5",
                    "midi": 73,
                    "time": 393.2950761249962,
                    "velocity": 0.2283464566929134,
                    "duration": 0.1288393749999841
                },
                {
                    "name": "F#5",
                    "midi": 78,
                    "time": 393.3208439999962,
                    "velocity": 0.2755905511811024,
                    "duration": 0.10307149999999865
                },
                {
                    "name": "C#6",
                    "midi": 85,
                    "time": 393.7331299999962,
                    "velocity": 0.2677165354330709,
                    "duration": 0.10307149999999865
                },
                {
                    "name": "F#5",
                    "midi": 78,
                    "time": 393.9392729999962,
                    "velocity": 0.2677165354330709,
                    "duration": 0.6184289999999919
                },
                {
                    "name": "A#5",
                    "midi": 82,
                    "time": 393.9392729999962,
                    "velocity": 0.2677165354330709,
                    "duration": 0.6184289999999919
                },
                {
                    "name": "F#6",
                    "midi": 90,
                    "time": 393.9392729999962,
                    "velocity": 0.3228346456692913,
                    "duration": 0.6184289999999919
                },
                {
                    "name": "F#4",
                    "midi": 66,
                    "time": 394.5577019999962,
                    "velocity": 0.23622047244094488,
                    "duration": 0.10307149999999865
                },
                {
                    "name": "A#4",
                    "midi": 70,
                    "time": 394.5577019999962,
                    "velocity": 0.2755905511811024,
                    "duration": 0.10307149999999865
                },
                {
                    "name": "C#6",
                    "midi": 85,
                    "time": 394.9699879999962,
                    "velocity": 0.25196850393700787,
                    "duration": 0.10307149999999865
                },
                {
                    "name": "F#6",
                    "midi": 90,
                    "time": 395.1761309999962,
                    "velocity": 0.2992125984251969,
                    "duration": 0.6184289999999919
                },
                {
                    "name": "A#5",
                    "midi": 82,
                    "time": 395.1761309999962,
                    "velocity": 0.2440944881889764,
                    "duration": 0.6184289999999919
                },
                {
                    "name": "F#5",
                    "midi": 78,
                    "time": 395.1761309999962,
                    "velocity": 0.2440944881889764,
                    "duration": 0.6184289999999919
                },
                {
                    "name": "F#4",
                    "midi": 66,
                    "time": 395.7945599999962,
                    "velocity": 0.2047244094488189,
                    "duration": 0.10307149999999865
                },
                {
                    "name": "A#4",
                    "midi": 70,
                    "time": 395.7945599999962,
                    "velocity": 0.23622047244094488,
                    "duration": 0.10307149999999865
                },
                {
                    "name": "C#6",
                    "midi": 85,
                    "time": 396.2068459999962,
                    "velocity": 0.2204724409448819,
                    "duration": 0.10307149999999865
                },
                {
                    "name": "F#5",
                    "midi": 78,
                    "time": 396.4129889999962,
                    "velocity": 0.2125984251968504,
                    "duration": 1.8552869999999757
                },
                {
                    "name": "A#5",
                    "midi": 82,
                    "time": 396.4129889999962,
                    "velocity": 0.2125984251968504,
                    "duration": 1.8552869999999757
                },
                {
                    "name": "F#6",
                    "midi": 90,
                    "time": 396.4129889999962,
                    "velocity": 0.25984251968503935,
                    "duration": 1.8552869999999757
                },
                {
                    "name": "C#4",
                    "midi": 61,
                    "time": 398.47441899999615,
                    "velocity": 0.4881889763779528,
                    "duration": 0.10307149999999865
                },
                {
                    "name": "C#5",
                    "midi": 73,
                    "time": 398.47441899999615,
                    "velocity": 0.5748031496062992,
                    "duration": 0.10307149999999865
                },
                {
                    "name": "D#4",
                    "midi": 63,
                    "time": 398.68056199999614,
                    "velocity": 0.5039370078740157,
                    "duration": 0.10307149999999865
                },
                {
                    "name": "D#5",
                    "midi": 75,
                    "time": 398.68056199999614,
                    "velocity": 0.5984251968503937,
                    "duration": 0.10307149999999865
                },
                {
                    "name": "F5",
                    "midi": 77,
                    "time": 398.88670499999614,
                    "velocity": 0.6220472440944882,
                    "duration": 0.10307149999999865
                },
                {
                    "name": "F4",
                    "midi": 65,
                    "time": 398.88670499999614,
                    "velocity": 0.5275590551181102,
                    "duration": 0.10307149999999865
                },
                {
                    "name": "F#4",
                    "midi": 66,
                    "time": 399.09284799999614,
                    "velocity": 0.5433070866141733,
                    "duration": 0.10307149999999865
                },
                {
                    "name": "F#5",
                    "midi": 78,
                    "time": 399.09284799999614,
                    "velocity": 0.6456692913385826,
                    "duration": 0.10307149999999865
                },
                {
                    "name": "G#5",
                    "midi": 80,
                    "time": 399.29899099999614,
                    "velocity": 0.6692913385826772,
                    "duration": 0.10307149999999865
                },
                {
                    "name": "G#4",
                    "midi": 68,
                    "time": 399.29899099999614,
                    "velocity": 0.6692913385826772,
                    "duration": 0.10307149999999865
                },
                {
                    "name": "A#5",
                    "midi": 82,
                    "time": 399.50513399999613,
                    "velocity": 0.6929133858267716,
                    "duration": 0.10307149999999865
                },
                {
                    "name": "A#4",
                    "midi": 70,
                    "time": 399.50513399999613,
                    "velocity": 0.5826771653543307,
                    "duration": 0.10307149999999865
                },
                {
                    "name": "C#5",
                    "midi": 73,
                    "time": 399.50513399999613,
                    "velocity": 0.5826771653543307,
                    "duration": 0.10307149999999865
                },
                {
                    "name": "F#5",
                    "midi": 78,
                    "time": 399.50513399999613,
                    "velocity": 0.5826771653543307,
                    "duration": 0.10307149999999865
                },
                {
                    "name": "C#5",
                    "midi": 73,
                    "time": 399.9174199999961,
                    "velocity": 0.5826771653543307,
                    "duration": 0.10307149999999865
                },
                {
                    "name": "C#6",
                    "midi": 85,
                    "time": 399.9174199999961,
                    "velocity": 0.6929133858267716,
                    "duration": 0.10307149999999865
                },
                {
                    "name": "F#5",
                    "midi": 78,
                    "time": 400.1235629999961,
                    "velocity": 0.6299212598425197,
                    "duration": 0.10307149999999865
                },
                {
                    "name": "F#6",
                    "midi": 90,
                    "time": 400.1235629999961,
                    "velocity": 0.7480314960629921,
                    "duration": 0.10307149999999865
                },
                {
                    "name": "B3",
                    "midi": 59,
                    "time": 400.7419919999961,
                    "velocity": 0.6850393700787402,
                    "duration": 0.2061429999999973
                },
                {
                    "name": "C#6",
                    "midi": 85,
                    "time": 401.3604209999961,
                    "velocity": 0.5669291338582677,
                    "duration": 0.6184289999999919
                },
                {
                    "name": "C#7",
                    "midi": 97,
                    "time": 401.3604209999961,
                    "velocity": 0.6771653543307087,
                    "duration": 0.6184289999999919
                },
                {
                    "name": "A6",
                    "midi": 93,
                    "time": 401.3604209999961,
                    "velocity": 0.5669291338582677,
                    "duration": 0.6184289999999919
                },
                {
                    "name": "B6",
                    "midi": 95,
                    "time": 401.9788499999961,
                    "velocity": 0.6535433070866141,
                    "duration": 0.6184289999999919
                },
                {
                    "name": "B5",
                    "midi": 83,
                    "time": 401.9788499999961,
                    "velocity": 0.5590551181102362,
                    "duration": 0.6184289999999919
                },
                {
                    "name": "G#6",
                    "midi": 92,
                    "time": 401.9788499999961,
                    "velocity": 0.6535433070866141,
                    "duration": 0.6184289999999919
                },
                {
                    "name": "G#6",
                    "midi": 92,
                    "time": 402.5972789999961,
                    "velocity": 0.6771653543307087,
                    "duration": 0.6184289999999919
                },
                {
                    "name": "E6",
                    "midi": 88,
                    "time": 402.5972789999961,
                    "velocity": 0.5669291338582677,
                    "duration": 0.6184289999999919
                },
                {
                    "name": "G#5",
                    "midi": 80,
                    "time": 402.5972789999961,
                    "velocity": 0.5669291338582677,
                    "duration": 0.6184289999999919
                },
                {
                    "name": "A5",
                    "midi": 81,
                    "time": 403.2157079999961,
                    "velocity": 0.5039370078740157,
                    "duration": 0.10307149999999865
                },
                {
                    "name": "F#6",
                    "midi": 90,
                    "time": 403.2157079999961,
                    "velocity": 0.5039370078740157,
                    "duration": 0.10307149999999865
                },
                {
                    "name": "A6",
                    "midi": 93,
                    "time": 403.2157079999961,
                    "velocity": 0.6062992125984252,
                    "duration": 0.10307149999999865
                },
                {
                    "name": "D#6",
                    "midi": 87,
                    "time": 403.4218509999961,
                    "velocity": 0.44881889763779526,
                    "duration": 0.10307149999999865
                },
                {
                    "name": "F#6",
                    "midi": 90,
                    "time": 403.4218509999961,
                    "velocity": 0.5354330708661418,
                    "duration": 0.10307149999999865
                },
                {
                    "name": "F#5",
                    "midi": 78,
                    "time": 403.4218509999961,
                    "velocity": 0.44881889763779526,
                    "duration": 0.10307149999999865
                },
                {
                    "name": "G#5",
                    "midi": 80,
                    "time": 403.6279939999961,
                    "velocity": 0.47244094488188976,
                    "duration": 0.10307149999999865
                },
                {
                    "name": "G#6",
                    "midi": 92,
                    "time": 403.6279939999961,
                    "velocity": 0.6062992125984252,
                    "duration": 0.10307149999999865
                },
                {
                    "name": "E6",
                    "midi": 88,
                    "time": 403.6279939999961,
                    "velocity": 0.4645669291338583,
                    "duration": 0.10307149999999865
                },
                {
                    "name": "E5",
                    "midi": 76,
                    "time": 403.8341369999961,
                    "velocity": 0.4566929133858268,
                    "duration": 0.10307149999999865
                },
                {
                    "name": "C#6",
                    "midi": 85,
                    "time": 403.8341369999961,
                    "velocity": 0.4566929133858268,
                    "duration": 0.10307149999999865
                },
                {
                    "name": "E6",
                    "midi": 88,
                    "time": 403.8341369999961,
                    "velocity": 0.5433070866141733,
                    "duration": 0.10307149999999865
                },
                {
                    "name": "D#6",
                    "midi": 87,
                    "time": 404.0402799999961,
                    "velocity": 0.5039370078740157,
                    "duration": 0.10307149999999865
                },
                {
                    "name": "F#6",
                    "midi": 90,
                    "time": 404.0402799999961,
                    "velocity": 0.6062992125984252,
                    "duration": 0.10307149999999865
                },
                {
                    "name": "F#5",
                    "midi": 78,
                    "time": 404.0402799999961,
                    "velocity": 0.5039370078740157,
                    "duration": 0.10307149999999865
                },
                {
                    "name": "D#5",
                    "midi": 75,
                    "time": 404.24642299999607,
                    "velocity": 0.4645669291338583,
                    "duration": 0.10307149999999865
                },
                {
                    "name": "B5",
                    "midi": 83,
                    "time": 404.24642299999607,
                    "velocity": 0.4645669291338583,
                    "duration": 0.10307149999999865
                },
                {
                    "name": "D#6",
                    "midi": 87,
                    "time": 404.24642299999607,
                    "velocity": 0.5511811023622047,
                    "duration": 0.10307149999999865
                },
                {
                    "name": "C#6",
                    "midi": 85,
                    "time": 404.45256599999607,
                    "velocity": 0.5039370078740157,
                    "duration": 0.10307149999999865
                },
                {
                    "name": "E6",
                    "midi": 88,
                    "time": 404.45256599999607,
                    "velocity": 0.6062992125984252,
                    "duration": 0.10307149999999865
                },
                {
                    "name": "E5",
                    "midi": 76,
                    "time": 404.45256599999607,
                    "velocity": 0.5039370078740157,
                    "duration": 0.10307149999999865
                },
                {
                    "name": "E6",
                    "midi": 88,
                    "time": 404.86485199999606,
                    "velocity": 0.5905511811023622,
                    "duration": 0.10307149999999865
                },
                {
                    "name": "C#6",
                    "midi": 85,
                    "time": 404.86485199999606,
                    "velocity": 0.49606299212598426,
                    "duration": 0.10307149999999865
                },
                {
                    "name": "E5",
                    "midi": 76,
                    "time": 404.86485199999606,
                    "velocity": 0.49606299212598426,
                    "duration": 0.10307149999999865
                },
                {
                    "name": "C#5",
                    "midi": 73,
                    "time": 405.07099499999606,
                    "velocity": 0.5039370078740157,
                    "duration": 0.6184289999999919
                },
                {
                    "name": "A5",
                    "midi": 81,
                    "time": 405.07099499999606,
                    "velocity": 0.5039370078740157,
                    "duration": 0.6184289999999919
                },
                {
                    "name": "C#6",
                    "midi": 85,
                    "time": 405.07099499999606,
                    "velocity": 0.6062992125984252,
                    "duration": 0.6184289999999919
                },
                {
                    "name": "B4",
                    "midi": 71,
                    "time": 405.89556699999605,
                    "velocity": 0.3700787401574803,
                    "duration": 0.10307149999999865
                },
                {
                    "name": "B5",
                    "midi": 83,
                    "time": 405.89556699999605,
                    "velocity": 0.4409448818897638,
                    "duration": 0.10307149999999865
                },
                {
                    "name": "D#5",
                    "midi": 75,
                    "time": 406.10170999999605,
                    "velocity": 0.3858267716535433,
                    "duration": 0.10307149999999865
                },
                {
                    "name": "D#6",
                    "midi": 87,
                    "time": 406.10170999999605,
                    "velocity": 0.4566929133858268,
                    "duration": 0.10307149999999865
                },
                {
                    "name": "E6",
                    "midi": 88,
                    "time": 406.30785299999604,
                    "velocity": 0.47244094488188976,
                    "duration": 0.10307149999999865
                },
                {
                    "name": "E5",
                    "midi": 76,
                    "time": 406.30785299999604,
                    "velocity": 0.4015748031496063,
                    "duration": 0.10307149999999865
                },
                {
                    "name": "F#5",
                    "midi": 78,
                    "time": 406.51399599999604,
                    "velocity": 0.4094488188976378,
                    "duration": 0.10307149999999865
                },
                {
                    "name": "F#6",
                    "midi": 90,
                    "time": 406.51399599999604,
                    "velocity": 0.4881889763779528,
                    "duration": 0.10307149999999865
                },
                {
                    "name": "G#6",
                    "midi": 92,
                    "time": 406.72013899999604,
                    "velocity": 0.5039370078740157,
                    "duration": 0.10307149999999865
                },
                {
                    "name": "G#5",
                    "midi": 80,
                    "time": 406.72013899999604,
                    "velocity": 0.4251968503937008,
                    "duration": 0.10307149999999865
                },
                {
                    "name": "B5",
                    "midi": 83,
                    "time": 406.87474624999606,
                    "velocity": 0.47244094488188976,
                    "duration": 0.15460724999996955
                },
                {
                    "name": "E6",
                    "midi": 88,
                    "time": 406.90051412499605,
                    "velocity": 0.47244094488188976,
                    "duration": 0.1288393749999841
                },
                {
                    "name": "B6",
                    "midi": 95,
                    "time": 406.92628199999604,
                    "velocity": 0.5511811023622047,
                    "duration": 0.10307149999999865
                },
                {
                    "name": "A5",
                    "midi": 81,
                    "time": 407.33856799999603,
                    "velocity": 0.3858267716535433,
                    "duration": 0.10307149999999865
                },
                {
                    "name": "A6",
                    "midi": 93,
                    "time": 407.33856799999603,
                    "velocity": 0.4566929133858268,
                    "duration": 0.10307149999999865
                },
                {
                    "name": "E6",
                    "midi": 88,
                    "time": 407.544710999996,
                    "velocity": 0.44881889763779526,
                    "duration": 0.6184289999999919
                },
                {
                    "name": "E5",
                    "midi": 76,
                    "time": 407.544710999996,
                    "velocity": 0.3779527559055118,
                    "duration": 0.6184289999999919
                },
                {
                    "name": "C#6",
                    "midi": 85,
                    "time": 408.369282999996,
                    "velocity": 0.4566929133858268,
                    "duration": 0.10307149999999865
                },
                {
                    "name": "C#5",
                    "midi": 73,
                    "time": 408.369282999996,
                    "velocity": 0.3779527559055118,
                    "duration": 0.10307149999999865
                },
                {
                    "name": "D#5",
                    "midi": 75,
                    "time": 408.575425999996,
                    "velocity": 0.41732283464566927,
                    "duration": 0.10307149999999865
                },
                {
                    "name": "D#6",
                    "midi": 87,
                    "time": 408.575425999996,
                    "velocity": 0.49606299212598426,
                    "duration": 0.10307149999999865
                },
                {
                    "name": "E5",
                    "midi": 76,
                    "time": 408.781568999996,
                    "velocity": 0.44881889763779526,
                    "duration": 0.10307149999999865
                },
                {
                    "name": "E6",
                    "midi": 88,
                    "time": 408.781568999996,
                    "velocity": 0.5275590551181102,
                    "duration": 0.10307149999999865
                },
                {
                    "name": "F#6",
                    "midi": 90,
                    "time": 408.987711999996,
                    "velocity": 0.5748031496062992,
                    "duration": 0.10307149999999865
                },
                {
                    "name": "F#5",
                    "midi": 78,
                    "time": 408.987711999996,
                    "velocity": 0.48031496062992124,
                    "duration": 0.10307149999999865
                },
                {
                    "name": "G#5",
                    "midi": 80,
                    "time": 409.193854999996,
                    "velocity": 0.5118110236220472,
                    "duration": 0.10307149999999865
                },
                {
                    "name": "G#6",
                    "midi": 92,
                    "time": 409.193854999996,
                    "velocity": 0.6141732283464567,
                    "duration": 0.10307149999999865
                },
                {
                    "name": "B5",
                    "midi": 83,
                    "time": 409.34846224999603,
                    "velocity": 0.5905511811023622,
                    "duration": 0.15460724999996955
                },
                {
                    "name": "D#6",
                    "midi": 87,
                    "time": 409.374230124996,
                    "velocity": 0.5905511811023622,
                    "duration": 0.1288393749999841
                },
                {
                    "name": "B6",
                    "midi": 95,
                    "time": 409.399997999996,
                    "velocity": 0.6850393700787402,
                    "duration": 0.10307149999999865
                },
                {
                    "name": "A6",
                    "midi": 93,
                    "time": 409.812283999996,
                    "velocity": 0.5433070866141733,
                    "duration": 0.10307149999999865
                },
                {
                    "name": "A5",
                    "midi": 81,
                    "time": 409.812283999996,
                    "velocity": 0.4566929133858268,
                    "duration": 0.10307149999999865
                },
                {
                    "name": "D#5",
                    "midi": 75,
                    "time": 410.018426999996,
                    "velocity": 0.4409448818897638,
                    "duration": 0.6184289999999919
                },
                {
                    "name": "D#6",
                    "midi": 87,
                    "time": 410.018426999996,
                    "velocity": 0.5275590551181102,
                    "duration": 0.6184289999999919
                },
                {
                    "name": "E3",
                    "midi": 52,
                    "time": 410.636855999996,
                    "velocity": 0.7165354330708661,
                    "duration": 0.2061429999999973
                },
                {
                    "name": "F6",
                    "midi": 89,
                    "time": 411.049141999996,
                    "velocity": 0.6141732283464567,
                    "duration": 0.2061429999999973
                },
                {
                    "name": "F5",
                    "midi": 77,
                    "time": 411.049141999996,
                    "velocity": 0.5039370078740157,
                    "duration": 0.2061429999999973
                },
                {
                    "name": "D6",
                    "midi": 86,
                    "time": 411.049141999996,
                    "velocity": 0.5039370078740157,
                    "duration": 0.2061429999999973
                },
                {
                    "name": "E6",
                    "midi": 88,
                    "time": 411.255284999996,
                    "velocity": 0.5905511811023622,
                    "duration": 0.4122859999999946
                },
                {
                    "name": "E5",
                    "midi": 76,
                    "time": 411.255284999996,
                    "velocity": 0.5905511811023622,
                    "duration": 0.4122859999999946
                },
                {
                    "name": "C6",
                    "midi": 84,
                    "time": 411.255284999996,
                    "velocity": 0.5905511811023622,
                    "duration": 0.4122859999999946
                },
                {
                    "name": "A5",
                    "midi": 81,
                    "time": 411.667570999996,
                    "velocity": 0.5039370078740157,
                    "duration": 0.2061429999999973
                },
                {
                    "name": "C5",
                    "midi": 72,
                    "time": 411.667570999996,
                    "velocity": 0.5039370078740157,
                    "duration": 0.2061429999999973
                },
                {
                    "name": "C6",
                    "midi": 84,
                    "time": 411.667570999996,
                    "velocity": 0.6141732283464567,
                    "duration": 0.2061429999999973
                },
                {
                    "name": "B5",
                    "midi": 83,
                    "time": 411.87371399999597,
                    "velocity": 0.4645669291338583,
                    "duration": 0.10307149999999865
                },
                {
                    "name": "D5",
                    "midi": 74,
                    "time": 411.87371399999597,
                    "velocity": 0.4645669291338583,
                    "duration": 0.10307149999999865
                },
                {
                    "name": "D6",
                    "midi": 86,
                    "time": 411.87371399999597,
                    "velocity": 0.5511811023622047,
                    "duration": 0.10307149999999865
                },
                {
                    "name": "B5",
                    "midi": 83,
                    "time": 412.07985699999597,
                    "velocity": 0.4881889763779528,
                    "duration": 0.10307149999999865
                },
                {
                    "name": "B4",
                    "midi": 71,
                    "time": 412.07985699999597,
                    "velocity": 0.4094488188976378,
                    "duration": 0.10307149999999865
                },
                {
                    "name": "G#5",
                    "midi": 80,
                    "time": 412.07985699999597,
                    "velocity": 0.4094488188976378,
                    "duration": 0.10307149999999865
                },
                {
                    "name": "C5",
                    "midi": 72,
                    "time": 412.28599999999597,
                    "velocity": 0.4330708661417323,
                    "duration": 0.10307149999999865
                },
                {
                    "name": "A5",
                    "midi": 81,
                    "time": 412.28599999999597,
                    "velocity": 0.4251968503937008,
                    "duration": 0.10307149999999865
                },
                {
                    "name": "C6",
                    "midi": 84,
                    "time": 412.28599999999597,
                    "velocity": 0.5511811023622047,
                    "duration": 0.10307149999999865
                },
                {
                    "name": "F#5",
                    "midi": 78,
                    "time": 412.49214299999596,
                    "velocity": 0.41732283464566927,
                    "duration": 0.10307149999999865
                },
                {
                    "name": "A4",
                    "midi": 69,
                    "time": 412.49214299999596,
                    "velocity": 0.41732283464566927,
                    "duration": 0.10307149999999865
                },
                {
                    "name": "A5",
                    "midi": 81,
                    "time": 412.49214299999596,
                    "velocity": 0.49606299212598426,
                    "duration": 0.10307149999999865
                },
                {
                    "name": "B4",
                    "midi": 71,
                    "time": 412.69828599999596,
                    "velocity": 0.4645669291338583,
                    "duration": 0.10307149999999865
                },
                {
                    "name": "B5",
                    "midi": 83,
                    "time": 412.69828599999596,
                    "velocity": 0.5511811023622047,
                    "duration": 0.10307149999999865
                },
                {
                    "name": "G#5",
                    "midi": 80,
                    "time": 412.69828599999596,
                    "velocity": 0.4645669291338583,
                    "duration": 0.10307149999999865
                },
                {
                    "name": "G#4",
                    "midi": 68,
                    "time": 412.90442899999596,
                    "velocity": 0.4251968503937008,
                    "duration": 0.10307149999999865
                },
                {
                    "name": "E5",
                    "midi": 76,
                    "time": 412.90442899999596,
                    "velocity": 0.4251968503937008,
                    "duration": 0.10307149999999865
                },
                {
                    "name": "G#5",
                    "midi": 80,
                    "time": 412.90442899999596,
                    "velocity": 0.5039370078740157,
                    "duration": 0.10307149999999865
                },
                {
                    "name": "A#5",
                    "midi": 82,
                    "time": 413.11057199999595,
                    "velocity": 0.5511811023622047,
                    "duration": 0.10307149999999865
                },
                {
                    "name": "A#4",
                    "midi": 70,
                    "time": 413.11057199999595,
                    "velocity": 0.4645669291338583,
                    "duration": 0.10307149999999865
                },
                {
                    "name": "E5",
                    "midi": 76,
                    "time": 413.11057199999595,
                    "velocity": 0.4645669291338583,
                    "duration": 0.10307149999999865
                },
                {
                    "name": "G5",
                    "midi": 79,
                    "time": 413.52285799999595,
                    "velocity": 0.5039370078740157,
                    "duration": 0.2061429999999973
                },
                {
                    "name": "E6",
                    "midi": 88,
                    "time": 413.52285799999595,
                    "velocity": 0.5039370078740157,
                    "duration": 0.2061429999999973
                },
                {
                    "name": "G6",
                    "midi": 91,
                    "time": 413.52285799999595,
                    "velocity": 0.6141732283464567,
                    "duration": 0.2061429999999973
                },
                {
                    "name": "F#5",
                    "midi": 78,
                    "time": 413.72900099999595,
                    "velocity": 0.5905511811023622,
                    "duration": 0.4122859999999946
                },
                {
                    "name": "F#6",
                    "midi": 90,
                    "time": 413.72900099999595,
                    "velocity": 0.5905511811023622,
                    "duration": 0.4122859999999946
                },
                {
                    "name": "D#6",
                    "midi": 87,
                    "time": 413.72900099999595,
                    "velocity": 0.5905511811023622,
                    "duration": 0.4122859999999946
                },
                {
                    "name": "B5",
                    "midi": 83,
                    "time": 414.14128699999594,
                    "velocity": 0.5039370078740157,
                    "duration": 0.2061429999999973
                },
                {
                    "name": "D#5",
                    "midi": 75,
                    "time": 414.14128699999594,
                    "velocity": 0.5039370078740157,
                    "duration": 0.2061429999999973
                },
                {
                    "name": "D#6",
                    "midi": 87,
                    "time": 414.14128699999594,
                    "velocity": 0.6141732283464567,
                    "duration": 0.2061429999999973
                },
                {
                    "name": "E6",
                    "midi": 88,
                    "time": 414.34742999999594,
                    "velocity": 0.5511811023622047,
                    "duration": 0.10307149999999865
                },
                {
                    "name": "C#6",
                    "midi": 85,
                    "time": 414.34742999999594,
                    "velocity": 0.4645669291338583,
                    "duration": 0.10307149999999865
                },
                {
                    "name": "E5",
                    "midi": 76,
                    "time": 414.34742999999594,
                    "velocity": 0.4645669291338583,
                    "duration": 0.10307149999999865
                },
                {
                    "name": "C#5",
                    "midi": 73,
                    "time": 414.55357299999594,
                    "velocity": 0.4094488188976378,
                    "duration": 0.10307149999999865
                },
                {
                    "name": "A#5",
                    "midi": 82,
                    "time": 414.55357299999594,
                    "velocity": 0.4094488188976378,
                    "duration": 0.10307149999999865
                },
                {
                    "name": "C#6",
                    "midi": 85,
                    "time": 414.55357299999594,
                    "velocity": 0.4881889763779528,
                    "duration": 0.10307149999999865
                },
                {
                    "name": "B5",
                    "midi": 83,
                    "time": 414.75971599999593,
                    "velocity": 0.4251968503937008,
                    "duration": 0.10307149999999865
                },
                {
                    "name": "D#5",
                    "midi": 75,
                    "time": 414.75971599999593,
                    "velocity": 0.4330708661417323,
                    "duration": 0.10307149999999865
                },
                {
                    "name": "D#6",
                    "midi": 87,
                    "time": 414.75971599999593,
                    "velocity": 0.5511811023622047,
                    "duration": 0.10307149999999865
                },
                {
                    "name": "G#5",
                    "midi": 80,
                    "time": 414.96585899999593,
                    "velocity": 0.41732283464566927,
                    "duration": 0.10307149999999865
                },
                {
                    "name": "B5",
                    "midi": 83,
                    "time": 414.96585899999593,
                    "velocity": 0.49606299212598426,
                    "duration": 0.10307149999999865
                },
                {
                    "name": "B4",
                    "midi": 71,
                    "time": 414.96585899999593,
                    "velocity": 0.41732283464566927,
                    "duration": 0.10307149999999865
                },
                {
                    "name": "C5",
                    "midi": 72,
                    "time": 415.1720019999959,
                    "velocity": 0.4645669291338583,
                    "duration": 0.10307149999999865
                },
                {
                    "name": "C6",
                    "midi": 84,
                    "time": 415.1720019999959,
                    "velocity": 0.5511811023622047,
                    "duration": 0.10307149999999865
                },
                {
                    "name": "A5",
                    "midi": 81,
                    "time": 415.1720019999959,
                    "velocity": 0.4645669291338583,
                    "duration": 0.10307149999999865
                },
                {
                    "name": "A4",
                    "midi": 69,
                    "time": 415.3781449999959,
                    "velocity": 0.4251968503937008,
                    "duration": 0.10307149999999865
                },
                {
                    "name": "A5",
                    "midi": 81,
                    "time": 415.3781449999959,
                    "velocity": 0.5039370078740157,
                    "duration": 0.10307149999999865
                },
                {
                    "name": "F#5",
                    "midi": 78,
                    "time": 415.3781449999959,
                    "velocity": 0.4251968503937008,
                    "duration": 0.10307149999999865
                },
                {
                    "name": "B5",
                    "midi": 83,
                    "time": 415.5842879999959,
                    "velocity": 0.5511811023622047,
                    "duration": 0.10307149999999865
                },
                {
                    "name": "B4",
                    "midi": 71,
                    "time": 415.5842879999959,
                    "velocity": 0.4645669291338583,
                    "duration": 0.10307149999999865
                },
                {
                    "name": "F#5",
                    "midi": 78,
                    "time": 415.5842879999959,
                    "velocity": 0.4645669291338583,
                    "duration": 0.10307149999999865
                },
                {
                    "name": "C6",
                    "midi": 84,
                    "time": 415.9965739999959,
                    "velocity": 0.5039370078740157,
                    "duration": 0.2061429999999973
                },
                {
                    "name": "C7",
                    "midi": 96,
                    "time": 415.9965739999959,
                    "velocity": 0.6141732283464567,
                    "duration": 0.2061429999999973
                },
                {
                    "name": "A6",
                    "midi": 93,
                    "time": 415.9965739999959,
                    "velocity": 0.5039370078740157,
                    "duration": 0.2061429999999973
                },
                {
                    "name": "B6",
                    "midi": 95,
                    "time": 416.2027169999959,
                    "velocity": 0.5905511811023622,
                    "duration": 0.4122859999999946
                },
                {
                    "name": "B5",
                    "midi": 83,
                    "time": 416.2027169999959,
                    "velocity": 0.5905511811023622,
                    "duration": 0.4122859999999946
                },
                {
                    "name": "G6",
                    "midi": 91,
                    "time": 416.2027169999959,
                    "velocity": 0.5905511811023622,
                    "duration": 0.4122859999999946
                },
                {
                    "name": "G6",
                    "midi": 91,
                    "time": 416.6150029999959,
                    "velocity": 0.6141732283464567,
                    "duration": 0.2061429999999973
                },
                {
                    "name": "G5",
                    "midi": 79,
                    "time": 416.6150029999959,
                    "velocity": 0.5039370078740157,
                    "duration": 0.2061429999999973
                },
                {
                    "name": "E6",
                    "midi": 88,
                    "time": 416.6150029999959,
                    "velocity": 0.5039370078740157,
                    "duration": 0.2061429999999973
                },
                {
                    "name": "A6",
                    "midi": 93,
                    "time": 416.8211459999959,
                    "velocity": 0.5511811023622047,
                    "duration": 0.10307149999999865
                },
                {
                    "name": "F#6",
                    "midi": 90,
                    "time": 416.8211459999959,
                    "velocity": 0.4645669291338583,
                    "duration": 0.10307149999999865
                },
                {
                    "name": "A5",
                    "midi": 81,
                    "time": 416.8211459999959,
                    "velocity": 0.4645669291338583,
                    "duration": 0.10307149999999865
                },
                {
                    "name": "D#6",
                    "midi": 87,
                    "time": 417.0272889999959,
                    "velocity": 0.4094488188976378,
                    "duration": 0.10307149999999865
                },
                {
                    "name": "F#6",
                    "midi": 90,
                    "time": 417.0272889999959,
                    "velocity": 0.4881889763779528,
                    "duration": 0.10307149999999865
                },
                {
                    "name": "F#5",
                    "midi": 78,
                    "time": 417.0272889999959,
                    "velocity": 0.4094488188976378,
                    "duration": 0.10307149999999865
                },
                {
                    "name": "G5",
                    "midi": 79,
                    "time": 417.2334319999959,
                    "velocity": 0.4330708661417323,
                    "duration": 0.10307149999999865
                },
                {
                    "name": "G6",
                    "midi": 91,
                    "time": 417.2334319999959,
                    "velocity": 0.5511811023622047,
                    "duration": 0.10307149999999865
                },
                {
                    "name": "E6",
                    "midi": 88,
                    "time": 417.2334319999959,
                    "velocity": 0.4330708661417323,
                    "duration": 0.10307149999999865
                },
                {
                    "name": "E5",
                    "midi": 76,
                    "time": 417.4395749999959,
                    "velocity": 0.41732283464566927,
                    "duration": 0.10307149999999865
                },
                {
                    "name": "C6",
                    "midi": 84,
                    "time": 417.4395749999959,
                    "velocity": 0.41732283464566927,
                    "duration": 0.10307149999999865
                },
                {
                    "name": "E6",
                    "midi": 88,
                    "time": 417.4395749999959,
                    "velocity": 0.49606299212598426,
                    "duration": 0.10307149999999865
                },
                {
                    "name": "F#5",
                    "midi": 78,
                    "time": 417.6457179999959,
                    "velocity": 0.4645669291338583,
                    "duration": 0.10307149999999865
                },
                {
                    "name": "D6",
                    "midi": 86,
                    "time": 417.6457179999959,
                    "velocity": 0.4645669291338583,
                    "duration": 0.10307149999999865
                },
                {
                    "name": "F#6",
                    "midi": 90,
                    "time": 417.6457179999959,
                    "velocity": 0.5511811023622047,
                    "duration": 0.10307149999999865
                },
                {
                    "name": "D5",
                    "midi": 74,
                    "time": 417.8518609999959,
                    "velocity": 0.4251968503937008,
                    "duration": 0.10307149999999865
                },
                {
                    "name": "B5",
                    "midi": 83,
                    "time": 417.8518609999959,
                    "velocity": 0.4251968503937008,
                    "duration": 0.10307149999999865
                },
                {
                    "name": "D6",
                    "midi": 86,
                    "time": 417.8518609999959,
                    "velocity": 0.5039370078740157,
                    "duration": 0.10307149999999865
                },
                {
                    "name": "E5",
                    "midi": 76,
                    "time": 418.0580039999959,
                    "velocity": 0.4645669291338583,
                    "duration": 0.10307149999999865
                },
                {
                    "name": "E6",
                    "midi": 88,
                    "time": 418.0580039999959,
                    "velocity": 0.5511811023622047,
                    "duration": 0.10307149999999865
                },
                {
                    "name": "C6",
                    "midi": 84,
                    "time": 418.0580039999959,
                    "velocity": 0.4645669291338583,
                    "duration": 0.10307149999999865
                },
                {
                    "name": "C6",
                    "midi": 84,
                    "time": 418.2641469999959,
                    "velocity": 0.4881889763779528,
                    "duration": 0.10307149999999865
                },
                {
                    "name": "A5",
                    "midi": 81,
                    "time": 418.2641469999959,
                    "velocity": 0.4094488188976378,
                    "duration": 0.10307149999999865
                },
                {
                    "name": "C5",
                    "midi": 72,
                    "time": 418.2641469999959,
                    "velocity": 0.4094488188976378,
                    "duration": 0.10307149999999865
                },
                {
                    "name": "B5",
                    "midi": 83,
                    "time": 418.4702899999959,
                    "velocity": 0.4330708661417323,
                    "duration": 0.10307149999999865
                },
                {
                    "name": "D6",
                    "midi": 86,
                    "time": 418.4702899999959,
                    "velocity": 0.5511811023622047,
                    "duration": 0.10307149999999865
                },
                {
                    "name": "D5",
                    "midi": 74,
                    "time": 418.4702899999959,
                    "velocity": 0.4330708661417323,
                    "duration": 0.10307149999999865
                },
                {
                    "name": "G5",
                    "midi": 79,
                    "time": 418.6764329999959,
                    "velocity": 0.41732283464566927,
                    "duration": 0.10307149999999865
                },
                {
                    "name": "B4",
                    "midi": 71,
                    "time": 418.6764329999959,
                    "velocity": 0.41732283464566927,
                    "duration": 0.10307149999999865
                },
                {
                    "name": "B5",
                    "midi": 83,
                    "time": 418.6764329999959,
                    "velocity": 0.49606299212598426,
                    "duration": 0.10307149999999865
                },
                {
                    "name": "C5",
                    "midi": 72,
                    "time": 418.8825759999959,
                    "velocity": 0.4645669291338583,
                    "duration": 0.10307149999999865
                },
                {
                    "name": "C6",
                    "midi": 84,
                    "time": 418.8825759999959,
                    "velocity": 0.5511811023622047,
                    "duration": 0.10307149999999865
                },
                {
                    "name": "A5",
                    "midi": 81,
                    "time": 418.8825759999959,
                    "velocity": 0.4645669291338583,
                    "duration": 0.10307149999999865
                },
                {
                    "name": "F#5",
                    "midi": 78,
                    "time": 419.0887189999959,
                    "velocity": 0.4251968503937008,
                    "duration": 0.10307149999999865
                },
                {
                    "name": "A5",
                    "midi": 81,
                    "time": 419.0887189999959,
                    "velocity": 0.5039370078740157,
                    "duration": 0.10307149999999865
                },
                {
                    "name": "A4",
                    "midi": 69,
                    "time": 419.0887189999959,
                    "velocity": 0.4251968503937008,
                    "duration": 0.10307149999999865
                },
                {
                    "name": "B5",
                    "midi": 83,
                    "time": 419.2948619999959,
                    "velocity": 0.5511811023622047,
                    "duration": 0.10307149999999865
                },
                {
                    "name": "G5",
                    "midi": 79,
                    "time": 419.2948619999959,
                    "velocity": 0.4645669291338583,
                    "duration": 0.10307149999999865
                },
                {
                    "name": "B4",
                    "midi": 71,
                    "time": 419.2948619999959,
                    "velocity": 0.4645669291338583,
                    "duration": 0.10307149999999865
                },
                {
                    "name": "G4",
                    "midi": 67,
                    "time": 419.50100499999587,
                    "velocity": 0.41732283464566927,
                    "duration": 0.10307149999999865
                },
                {
                    "name": "G5",
                    "midi": 79,
                    "time": 419.50100499999587,
                    "velocity": 0.49606299212598426,
                    "duration": 0.10307149999999865
                },
                {
                    "name": "E5",
                    "midi": 76,
                    "time": 419.50100499999587,
                    "velocity": 0.41732283464566927,
                    "duration": 0.10307149999999865
                },
                {
                    "name": "A4",
                    "midi": 69,
                    "time": 419.70714799999587,
                    "velocity": 0.44881889763779526,
                    "duration": 0.10307149999999865
                },
                {
                    "name": "F#5",
                    "midi": 78,
                    "time": 419.70714799999587,
                    "velocity": 0.44881889763779526,
                    "duration": 0.10307149999999865
                },
                {
                    "name": "A5",
                    "midi": 81,
                    "time": 419.70714799999587,
                    "velocity": 0.5748031496062992,
                    "duration": 0.10307149999999865
                },
                {
                    "name": "F#5",
                    "midi": 78,
                    "time": 419.91329099999587,
                    "velocity": 0.5354330708661418,
                    "duration": 0.10307149999999865
                },
                {
                    "name": "F#4",
                    "midi": 66,
                    "time": 419.91329099999587,
                    "velocity": 0.44881889763779526,
                    "duration": 0.10307149999999865
                },
                {
                    "name": "D#5",
                    "midi": 75,
                    "time": 419.91329099999587,
                    "velocity": 0.44881889763779526,
                    "duration": 0.10307149999999865
                },
                {
                    "name": "E5",
                    "midi": 76,
                    "time": 420.11943399999586,
                    "velocity": 0.5118110236220472,
                    "duration": 0.10307149999999865
                },
                {
                    "name": "G5",
                    "midi": 79,
                    "time": 420.11943399999586,
                    "velocity": 0.6062992125984252,
                    "duration": 0.10307149999999865
                },
                {
                    "name": "G4",
                    "midi": 67,
                    "time": 420.11943399999586,
                    "velocity": 0.5118110236220472,
                    "duration": 0.10307149999999865
                },
                {
                    "name": "E5",
                    "midi": 76,
                    "time": 420.32557699999586,
                    "velocity": 0.5669291338582677,
                    "duration": 0.10307149999999865
                },
                {
                    "name": "C5",
                    "midi": 72,
                    "time": 420.32557699999586,
                    "velocity": 0.48031496062992124,
                    "duration": 0.10307149999999865
                },
                {
                    "name": "E4",
                    "midi": 64,
                    "time": 420.32557699999586,
                    "velocity": 0.48031496062992124,
                    "duration": 0.10307149999999865
                },
                {
                    "name": "G#6",
                    "midi": 92,
                    "time": 420.53171999999586,
                    "velocity": 0.7086614173228346,
                    "duration": 0.3916717000000176
                },
                {
                    "name": "E6",
                    "midi": 88,
                    "time": 420.53171999999586,
                    "velocity": 0.5984251968503937,
                    "duration": 0.3916717000000176
                },
                {
                    "name": "G#5",
                    "midi": 80,
                    "time": 420.53171999999586,
                    "velocity": 0.5984251968503937,
                    "duration": 0.3916717000000176
                },
                {
                    "name": "G5",
                    "midi": 79,
                    "time": 420.94400599999585,
                    "velocity": 0.5984251968503937,
                    "duration": 0.3916717000000176
                },
                {
                    "name": "E6",
                    "midi": 88,
                    "time": 420.94400599999585,
                    "velocity": 0.5984251968503937,
                    "duration": 0.3916717000000176
                },
                {
                    "name": "G6",
                    "midi": 91,
                    "time": 420.94400599999585,
                    "velocity": 0.7086614173228346,
                    "duration": 0.3916717000000176
                },
                {
                    "name": "D#6",
                    "midi": 87,
                    "time": 421.35629199999585,
                    "velocity": 0.5984251968503937,
                    "duration": 0.3916717000000176
                },
                {
                    "name": "F#6",
                    "midi": 90,
                    "time": 421.35629199999585,
                    "velocity": 0.7086614173228346,
                    "duration": 0.3916717000000176
                },
                {
                    "name": "F#5",
                    "midi": 78,
                    "time": 421.35629199999585,
                    "velocity": 0.5984251968503937,
                    "duration": 0.3916717000000176
                },
                {
                    "name": "F5",
                    "midi": 77,
                    "time": 421.76857799999584,
                    "velocity": 0.5984251968503937,
                    "duration": 0.3916717000000176
                },
                {
                    "name": "F6",
                    "midi": 89,
                    "time": 421.76857799999584,
                    "velocity": 0.7086614173228346,
                    "duration": 0.3916717000000176
                },
                {
                    "name": "D6",
                    "midi": 86,
                    "time": 421.76857799999584,
                    "velocity": 0.5984251968503937,
                    "duration": 0.3916717000000176
                },
                {
                    "name": "C#6",
                    "midi": 85,
                    "time": 422.18086399999584,
                    "velocity": 0.5905511811023622,
                    "duration": 0.3916717000000176
                },
                {
                    "name": "E6",
                    "midi": 88,
                    "time": 422.18086399999584,
                    "velocity": 0.7007874015748031,
                    "duration": 0.3916717000000176
                },
                {
                    "name": "E5",
                    "midi": 76,
                    "time": 422.18086399999584,
                    "velocity": 0.5905511811023622,
                    "duration": 0.3916717000000176
                },
                {
                    "name": "D#6",
                    "midi": 87,
                    "time": 422.59314999999583,
                    "velocity": 0.6850393700787402,
                    "duration": 0.3916717000000176
                },
                {
                    "name": "D#5",
                    "midi": 75,
                    "time": 422.59314999999583,
                    "velocity": 0.5748031496062992,
                    "duration": 0.3916717000000176
                },
                {
                    "name": "C6",
                    "midi": 84,
                    "time": 422.59314999999583,
                    "velocity": 0.5748031496062992,
                    "duration": 0.3916717000000176
                },
                {
                    "name": "D6",
                    "midi": 86,
                    "time": 423.0054359999958,
                    "velocity": 0.6692913385826772,
                    "duration": 0.3916717000000176
                },
                {
                    "name": "D5",
                    "midi": 74,
                    "time": 423.0054359999958,
                    "velocity": 0.5669291338582677,
                    "duration": 0.3916717000000176
                },
                {
                    "name": "B5",
                    "midi": 83,
                    "time": 423.0054359999958,
                    "velocity": 0.5669291338582677,
                    "duration": 0.3916717000000176
                },
                {
                    "name": "C#5",
                    "midi": 73,
                    "time": 423.4177219999958,
                    "velocity": 0.5590551181102362,
                    "duration": 0.3916717000000176
                },
                {
                    "name": "C#6",
                    "midi": 85,
                    "time": 423.4177219999958,
                    "velocity": 0.6614173228346457,
                    "duration": 0.3916717000000176
                },
                {
                    "name": "A#5",
                    "midi": 82,
                    "time": 423.4177219999958,
                    "velocity": 0.5590551181102362,
                    "duration": 0.3916717000000176
                },
                {
                    "name": "C6",
                    "midi": 84,
                    "time": 423.8300079999958,
                    "velocity": 0.6456692913385826,
                    "duration": 0.3916717000000176
                },
                {
                    "name": "A5",
                    "midi": 81,
                    "time": 423.8300079999958,
                    "velocity": 0.5433070866141733,
                    "duration": 0.3916717000000176
                },
                {
                    "name": "C5",
                    "midi": 72,
                    "time": 423.8300079999958,
                    "velocity": 0.5433070866141733,
                    "duration": 0.3916717000000176
                },
                {
                    "name": "B4",
                    "midi": 71,
                    "time": 424.2422939999958,
                    "velocity": 0.5354330708661418,
                    "duration": 0.3916717000000176
                },
                {
                    "name": "G#5",
                    "midi": 80,
                    "time": 424.2422939999958,
                    "velocity": 0.5354330708661418,
                    "duration": 0.3916717000000176
                },
                {
                    "name": "B5",
                    "midi": 83,
                    "time": 424.2422939999958,
                    "velocity": 0.6377952755905512,
                    "duration": 0.3916717000000176
                },
                {
                    "name": "G5",
                    "midi": 79,
                    "time": 424.6545799999958,
                    "velocity": 0.5275590551181102,
                    "duration": 0.3143680750000044
                },
                {
                    "name": "B5",
                    "midi": 83,
                    "time": 424.6545799999958,
                    "velocity": 0.6299212598425197,
                    "duration": 0.3143680750000044
                },
                {
                    "name": "B4",
                    "midi": 71,
                    "time": 424.6545799999958,
                    "velocity": 0.5275590551181102,
                    "duration": 0.3143680750000044
                },
                {
                    "name": "B5",
                    "midi": 83,
                    "time": 425.0668659999958,
                    "velocity": 0.6141732283464567,
                    "duration": 0.3916717000000176
                },
                {
                    "name": "D#5",
                    "midi": 75,
                    "time": 425.0668659999958,
                    "velocity": 0.5196850393700787,
                    "duration": 0.3916717000000176
                },
                {
                    "name": "B4",
                    "midi": 71,
                    "time": 425.0668659999958,
                    "velocity": 0.5196850393700787,
                    "duration": 0.3916717000000176
                },
                {
                    "name": "F#5",
                    "midi": 78,
                    "time": 425.0668659999958,
                    "velocity": 0.5196850393700787,
                    "duration": 0.3916717000000176
                },
                {
                    "name": "E4",
                    "midi": 64,
                    "time": 425.4791519999958,
                    "velocity": 0.4645669291338583,
                    "duration": 0.10307149999999865
                },
                {
                    "name": "E5",
                    "midi": 76,
                    "time": 425.4791519999958,
                    "velocity": 0.5511811023622047,
                    "duration": 0.10307149999999865
                },
                {
                    "name": "D5",
                    "midi": 74,
                    "time": 425.6852949999958,
                    "velocity": 0.4881889763779528,
                    "duration": 0.10307149999999865
                },
                {
                    "name": "B4",
                    "midi": 71,
                    "time": 425.6852949999958,
                    "velocity": 0.4094488188976378,
                    "duration": 0.10307149999999865
                },
                {
                    "name": "E5",
                    "midi": 76,
                    "time": 425.8914379999958,
                    "velocity": 0.5511811023622047,
                    "duration": 0.10307149999999865
                },
                {
                    "name": "E4",
                    "midi": 64,
                    "time": 425.8914379999958,
                    "velocity": 0.4330708661417323,
                    "duration": 0.10307149999999865
                },
                {
                    "name": "A4",
                    "midi": 69,
                    "time": 426.0975809999958,
                    "velocity": 0.41732283464566927,
                    "duration": 0.10307149999999865
                },
                {
                    "name": "C5",
                    "midi": 72,
                    "time": 426.0975809999958,
                    "velocity": 0.49606299212598426,
                    "duration": 0.10307149999999865
                },
                {
                    "name": "E5",
                    "midi": 76,
                    "time": 426.3037239999958,
                    "velocity": 0.5511811023622047,
                    "duration": 0.10307149999999865
                },
                {
                    "name": "E4",
                    "midi": 64,
                    "time": 426.3037239999958,
                    "velocity": 0.4645669291338583,
                    "duration": 0.10307149999999865
                },
                {
                    "name": "B4",
                    "midi": 71,
                    "time": 426.5098669999958,
                    "velocity": 0.5039370078740157,
                    "duration": 0.10307149999999865
                },
                {
                    "name": "G4",
                    "midi": 67,
                    "time": 426.5098669999958,
                    "velocity": 0.4251968503937008,
                    "duration": 0.10307149999999865
                },
                {
                    "name": "E4",
                    "midi": 64,
                    "time": 426.7160099999958,
                    "velocity": 0.4645669291338583,
                    "duration": 0.10307149999999865
                },
                {
                    "name": "E5",
                    "midi": 76,
                    "time": 426.7160099999958,
                    "velocity": 0.5511811023622047,
                    "duration": 0.10307149999999865
                },
                {
                    "name": "A4",
                    "midi": 69,
                    "time": 426.9221529999958,
                    "velocity": 0.4881889763779528,
                    "duration": 0.10307149999999865
                },
                {
                    "name": "F#4",
                    "midi": 66,
                    "time": 426.9221529999958,
                    "velocity": 0.4094488188976378,
                    "duration": 0.10307149999999865
                },
                {
                    "name": "E5",
                    "midi": 76,
                    "time": 427.12829599999577,
                    "velocity": 0.5511811023622047,
                    "duration": 0.10307149999999865
                },
                {
                    "name": "E4",
                    "midi": 64,
                    "time": 427.12829599999577,
                    "velocity": 0.4330708661417323,
                    "duration": 0.10307149999999865
                },
                {
                    "name": "G4",
                    "midi": 67,
                    "time": 427.33443899999577,
                    "velocity": 0.49606299212598426,
                    "duration": 0.10307149999999865
                },
                {
                    "name": "E5",
                    "midi": 76,
                    "time": 427.54058199999577,
                    "velocity": 0.5511811023622047,
                    "duration": 0.10307149999999865
                },
                {
                    "name": "E4",
                    "midi": 64,
                    "time": 427.54058199999577,
                    "velocity": 0.4645669291338583,
                    "duration": 0.10307149999999865
                },
                {
                    "name": "D4",
                    "midi": 62,
                    "time": 427.74672499999576,
                    "velocity": 0.4251968503937008,
                    "duration": 0.10307149999999865
                },
                {
                    "name": "F#4",
                    "midi": 66,
                    "time": 427.74672499999576,
                    "velocity": 0.5039370078740157,
                    "duration": 0.10307149999999865
                },
                {
                    "name": "E4",
                    "midi": 64,
                    "time": 427.95286799999576,
                    "velocity": 0.4645669291338583,
                    "duration": 0.10307149999999865
                },
                {
                    "name": "E5",
                    "midi": 76,
                    "time": 427.95286799999576,
                    "velocity": 0.5511811023622047,
                    "duration": 0.10307149999999865
                },
                {
                    "name": "E4",
                    "midi": 64,
                    "time": 428.15901099999576,
                    "velocity": 0.48031496062992124,
                    "duration": 0.10307149999999865
                },
                {
                    "name": "C4",
                    "midi": 60,
                    "time": 428.15901099999576,
                    "velocity": 0.4015748031496063,
                    "duration": 0.10307149999999865
                },
                {
                    "name": "E5",
                    "midi": 76,
                    "time": 428.36515399999575,
                    "velocity": 0.5354330708661418,
                    "duration": 0.10307149999999865
                },
                {
                    "name": "E4",
                    "midi": 64,
                    "time": 428.36515399999575,
                    "velocity": 0.41732283464566927,
                    "duration": 0.10307149999999865
                },
                {
                    "name": "D4",
                    "midi": 62,
                    "time": 428.57129699999575,
                    "velocity": 0.48031496062992124,
                    "duration": 0.10307149999999865
                },
                {
                    "name": "B3",
                    "midi": 59,
                    "time": 428.57129699999575,
                    "velocity": 0.4015748031496063,
                    "duration": 0.10307149999999865
                },
                {
                    "name": "E5",
                    "midi": 76,
                    "time": 428.77743999999575,
                    "velocity": 0.5196850393700787,
                    "duration": 0.10307149999999865
                },
                {
                    "name": "E4",
                    "midi": 64,
                    "time": 428.77743999999575,
                    "velocity": 0.4409448818897638,
                    "duration": 0.10307149999999865
                },
                {
                    "name": "A3",
                    "midi": 57,
                    "time": 428.98358299999575,
                    "velocity": 0.3937007874015748,
                    "duration": 0.10307149999999865
                },
                {
                    "name": "C4",
                    "midi": 60,
                    "time": 428.98358299999575,
                    "velocity": 0.47244094488188976,
                    "duration": 0.10307149999999865
                },
                {
                    "name": "E4",
                    "midi": 64,
                    "time": 429.18972599999574,
                    "velocity": 0.4251968503937008,
                    "duration": 0.10307149999999865
                },
                {
                    "name": "E5",
                    "midi": 76,
                    "time": 429.18972599999574,
                    "velocity": 0.5118110236220472,
                    "duration": 0.10307149999999865
                },
                {
                    "name": "B3",
                    "midi": 59,
                    "time": 429.39586899999574,
                    "velocity": 0.44881889763779526,
                    "duration": 0.10307149999999865
                },
                {
                    "name": "G3",
                    "midi": 55,
                    "time": 429.39586899999574,
                    "velocity": 0.3700787401574803,
                    "duration": 0.10307149999999865
                },
                {
                    "name": "E4",
                    "midi": 64,
                    "time": 429.60201199999574,
                    "velocity": 0.3858267716535433,
                    "duration": 0.10307149999999865
                },
                {
                    "name": "E5",
                    "midi": 76,
                    "time": 429.60201199999574,
                    "velocity": 0.49606299212598426,
                    "duration": 0.10307149999999865
                },
                {
                    "name": "F#3",
                    "midi": 54,
                    "time": 429.80815499999574,
                    "velocity": 0.3700787401574803,
                    "duration": 0.10307149999999865
                },
                {
                    "name": "A3",
                    "midi": 57,
                    "time": 429.80815499999574,
                    "velocity": 0.4409448818897638,
                    "duration": 0.10307149999999865
                },
                {
                    "name": "E5",
                    "midi": 76,
                    "time": 430.01429799999573,
                    "velocity": 0.48031496062992124,
                    "duration": 0.10307149999999865
                },
                {
                    "name": "E4",
                    "midi": 64,
                    "time": 430.01429799999573,
                    "velocity": 0.4015748031496063,
                    "duration": 0.10307149999999865
                },
                {
                    "name": "A3",
                    "midi": 57,
                    "time": 430.22044099999573,
                    "velocity": 0.4330708661417323,
                    "duration": 0.10307149999999865
                },
                {
                    "name": "F3",
                    "midi": 53,
                    "time": 430.22044099999573,
                    "velocity": 0.36220472440944884,
                    "duration": 0.10307149999999865
                },
                {
                    "name": "G3",
                    "midi": 55,
                    "time": 430.4265839999957,
                    "velocity": 0.48031496062992124,
                    "duration": 0.10307149999999865
                },
                {
                    "name": "E3",
                    "midi": 52,
                    "time": 430.4265839999957,
                    "velocity": 0.4015748031496063,
                    "duration": 0.10307149999999865
                },
                {
                    "name": "E3",
                    "midi": 52,
                    "time": 430.6327269999957,
                    "velocity": 0.4015748031496063,
                    "duration": 0.10307149999999865
                },
                {
                    "name": "G3",
                    "midi": 55,
                    "time": 430.6327269999957,
                    "velocity": 0.48031496062992124,
                    "duration": 0.10307149999999865
                },
                {
                    "name": "E3",
                    "midi": 52,
                    "time": 430.8388699999957,
                    "velocity": 0.4015748031496063,
                    "duration": 0.10307149999999865
                },
                {
                    "name": "G3",
                    "midi": 55,
                    "time": 430.8388699999957,
                    "velocity": 0.48031496062992124,
                    "duration": 0.10307149999999865
                },
                {
                    "name": "A3",
                    "midi": 57,
                    "time": 431.0450129999957,
                    "velocity": 0.5275590551181102,
                    "duration": 0.6184289999999919
                },
                {
                    "name": "F3",
                    "midi": 53,
                    "time": 431.0450129999957,
                    "velocity": 0.4409448818897638,
                    "duration": 0.6184289999999919
                },
                {
                    "name": "E3",
                    "midi": 52,
                    "time": 431.6634419999957,
                    "velocity": 0.4015748031496063,
                    "duration": 0.10307149999999865
                },
                {
                    "name": "G3",
                    "midi": 55,
                    "time": 431.6634419999957,
                    "velocity": 0.48031496062992124,
                    "duration": 0.10307149999999865
                },
                {
                    "name": "E3",
                    "midi": 52,
                    "time": 431.8695849999957,
                    "velocity": 0.4015748031496063,
                    "duration": 0.10307149999999865
                },
                {
                    "name": "G3",
                    "midi": 55,
                    "time": 431.8695849999957,
                    "velocity": 0.48031496062992124,
                    "duration": 0.10307149999999865
                },
                {
                    "name": "G3",
                    "midi": 55,
                    "time": 432.0757279999957,
                    "velocity": 0.48031496062992124,
                    "duration": 0.10307149999999865
                },
                {
                    "name": "E3",
                    "midi": 52,
                    "time": 432.0757279999957,
                    "velocity": 0.4015748031496063,
                    "duration": 0.10307149999999865
                },
                {
                    "name": "C4",
                    "midi": 60,
                    "time": 432.2818709999957,
                    "velocity": 0.48031496062992124,
                    "duration": 0.6184289999999919
                },
                {
                    "name": "A4",
                    "midi": 69,
                    "time": 432.2818709999957,
                    "velocity": 0.48031496062992124,
                    "duration": 0.6184289999999919
                },
                {
                    "name": "A3",
                    "midi": 57,
                    "time": 432.2818709999957,
                    "velocity": 0.48031496062992124,
                    "duration": 0.6184289999999919
                },
                {
                    "name": "G3",
                    "midi": 55,
                    "time": 432.9002999999957,
                    "velocity": 0.48031496062992124,
                    "duration": 0.10307149999999865
                },
                {
                    "name": "E3",
                    "midi": 52,
                    "time": 432.9002999999957,
                    "velocity": 0.4015748031496063,
                    "duration": 0.10307149999999865
                },
                {
                    "name": "E3",
                    "midi": 52,
                    "time": 433.1064429999957,
                    "velocity": 0.4015748031496063,
                    "duration": 0.10307149999999865
                },
                {
                    "name": "G3",
                    "midi": 55,
                    "time": 433.1064429999957,
                    "velocity": 0.48031496062992124,
                    "duration": 0.10307149999999865
                },
                {
                    "name": "E3",
                    "midi": 52,
                    "time": 433.3125859999957,
                    "velocity": 0.4015748031496063,
                    "duration": 0.10307149999999865
                },
                {
                    "name": "G3",
                    "midi": 55,
                    "time": 433.3125859999957,
                    "velocity": 0.48031496062992124,
                    "duration": 0.10307149999999865
                },
                {
                    "name": "C5",
                    "midi": 72,
                    "time": 433.5187289999957,
                    "velocity": 0.6062992125984252,
                    "duration": 0.8245719999999892
                },
                {
                    "name": "E5",
                    "midi": 76,
                    "time": 433.5187289999957,
                    "velocity": 0.6062992125984252,
                    "duration": 0.8245719999999892
                },
                {
                    "name": "G5",
                    "midi": 79,
                    "time": 433.5187289999957,
                    "velocity": 0.6062992125984252,
                    "duration": 0.8245719999999892
                },
                {
                    "name": "C6",
                    "midi": 84,
                    "time": 433.5187289999957,
                    "velocity": 0.7795275590551181,
                    "duration": 0.8245719999999892
                },
                {
                    "name": "E3",
                    "midi": 52,
                    "time": 434.75558699999567,
                    "velocity": 0.6220472440944882,
                    "duration": 0.10307149999999865
                },
                {
                    "name": "G3",
                    "midi": 55,
                    "time": 434.75558699999567,
                    "velocity": 0.7480314960629921,
                    "duration": 0.10307149999999865
                },
                {
                    "name": "G3",
                    "midi": 55,
                    "time": 435.37401599999566,
                    "velocity": 0.7480314960629921,
                    "duration": 0.10307149999999865
                },
                {
                    "name": "E3",
                    "midi": 52,
                    "time": 435.37401599999566,
                    "velocity": 0.6220472440944882,
                    "duration": 0.10307149999999865
                },
                {
                    "name": "E3",
                    "midi": 52,
                    "time": 435.986432495829,
                    "velocity": 0.6220472440944882,
                    "duration": 0.10307149999999865
                },
                {
                    "name": "G3",
                    "midi": 55,
                    "time": 435.986432495829,
                    "velocity": 0.7480314960629921,
                    "duration": 0.10307149999999865
                },
                {
                    "name": "F6",
                    "midi": 89,
                    "time": 436.61087399999565,
                    "velocity": 0.6614173228346457,
                    "duration": 1.443000999999981
                },
                {
                    "name": "F7",
                    "midi": 101,
                    "time": 436.61087399999565,
                    "velocity": 0.7952755905511811,
                    "duration": 1.443000999999981
                },
                {
                    "name": "C7",
                    "midi": 96,
                    "time": 436.61087399999565,
                    "velocity": 0.6614173228346457,
                    "duration": 1.443000999999981
                },
                {
                    "name": "A6",
                    "midi": 93,
                    "time": 436.61087399999565,
                    "velocity": 0.6614173228346457,
                    "duration": 1.443000999999981
                },
                {
                    "name": "C7",
                    "midi": 96,
                    "time": 438.1569464999956,
                    "velocity": 0.5511811023622047,
                    "duration": 0.10307149999999865
                },
                {
                    "name": "C6",
                    "midi": 84,
                    "time": 438.1569464999956,
                    "velocity": 0.4645669291338583,
                    "duration": 0.10307149999999865
                },
                {
                    "name": "A6",
                    "midi": 93,
                    "time": 438.3630894999956,
                    "velocity": 0.5590551181102362,
                    "duration": 0.10307149999999865
                },
                {
                    "name": "A5",
                    "midi": 81,
                    "time": 438.3630894999956,
                    "velocity": 0.47244094488188976,
                    "duration": 0.10307149999999865
                },
                {
                    "name": "F5",
                    "midi": 77,
                    "time": 438.5692324999956,
                    "velocity": 0.48031496062992124,
                    "duration": 0.10307149999999865
                },
                {
                    "name": "F6",
                    "midi": 89,
                    "time": 438.5692324999956,
                    "velocity": 0.5669291338582677,
                    "duration": 0.10307149999999865
                },
                {
                    "name": "C6",
                    "midi": 84,
                    "time": 438.7753754999956,
                    "velocity": 0.5433070866141733,
                    "duration": 0.10307149999999865
                },
                {
                    "name": "C5",
                    "midi": 72,
                    "time": 438.7753754999956,
                    "velocity": 0.4566929133858268,
                    "duration": 0.10307149999999865
                },
                {
                    "name": "A5",
                    "midi": 81,
                    "time": 438.9815184999956,
                    "velocity": 0.5511811023622047,
                    "duration": 0.10307149999999865
                },
                {
                    "name": "A4",
                    "midi": 69,
                    "time": 438.9815184999956,
                    "velocity": 0.4645669291338583,
                    "duration": 0.10307149999999865
                },
                {
                    "name": "F4",
                    "midi": 65,
                    "time": 439.1876614999956,
                    "velocity": 0.5118110236220472,
                    "duration": 0.10307149999999865
                },
                {
                    "name": "F5",
                    "midi": 77,
                    "time": 439.1876614999956,
                    "velocity": 0.6062992125984252,
                    "duration": 0.10307149999999865
                },
                {
                    "name": "C4",
                    "midi": 60,
                    "time": 439.3938044999956,
                    "velocity": 0.4881889763779528,
                    "duration": 0.10307149999999865
                },
                {
                    "name": "C5",
                    "midi": 72,
                    "time": 439.3938044999956,
                    "velocity": 0.5826771653543307,
                    "duration": 0.10307149999999865
                },
                {
                    "name": "A3",
                    "midi": 57,
                    "time": 439.5999474999956,
                    "velocity": 0.49606299212598426,
                    "duration": 0.10307149999999865
                },
                {
                    "name": "A4",
                    "midi": 69,
                    "time": 439.5999474999956,
                    "velocity": 0.5905511811023622,
                    "duration": 0.10307149999999865
                },
                {
                    "name": "F4",
                    "midi": 65,
                    "time": 439.8060904999956,
                    "velocity": 0.6535433070866141,
                    "duration": 0.10307149999999865
                },
                {
                    "name": "F3",
                    "midi": 53,
                    "time": 439.8060904999956,
                    "velocity": 0.5511811023622047,
                    "duration": 0.10307149999999865
                },
                {
                    "name": "C3",
                    "midi": 48,
                    "time": 440.0122334999956,
                    "velocity": 0.5118110236220472,
                    "duration": 0.10307149999999865
                },
                {
                    "name": "C4",
                    "midi": 60,
                    "time": 440.0122334999956,
                    "velocity": 0.6062992125984252,
                    "duration": 0.10307149999999865
                },
                {
                    "name": "D3",
                    "midi": 50,
                    "time": 440.2183764999956,
                    "velocity": 0.5196850393700787,
                    "duration": 0.10307149999999865
                },
                {
                    "name": "D4",
                    "midi": 62,
                    "time": 440.2183764999956,
                    "velocity": 0.6141732283464567,
                    "duration": 0.10307149999999865
                },
                {
                    "name": "C3",
                    "midi": 48,
                    "time": 440.3214479999956,
                    "velocity": 0.5354330708661418,
                    "duration": 0.10307149999999865
                },
                {
                    "name": "G3",
                    "midi": 55,
                    "time": 440.3214479999956,
                    "velocity": 0.5354330708661418,
                    "duration": 0.10307149999999865
                },
                {
                    "name": "C4",
                    "midi": 60,
                    "time": 440.3214479999956,
                    "velocity": 0.6299212598425197,
                    "duration": 0.10307149999999865
                },
                {
                    "name": "E3",
                    "midi": 52,
                    "time": 440.3214479999956,
                    "velocity": 0.5354330708661418,
                    "duration": 0.10307149999999865
                },
                {
                    "name": "G3",
                    "midi": 55,
                    "time": 441.5583059999956,
                    "velocity": 0.5354330708661418,
                    "duration": 0.10307149999999865
                },
                {
                    "name": "E3",
                    "midi": 52,
                    "time": 441.5583059999956,
                    "velocity": 0.5354330708661418,
                    "duration": 0.10307149999999865
                },
                {
                    "name": "C4",
                    "midi": 60,
                    "time": 441.5583059999956,
                    "velocity": 0.6299212598425197,
                    "duration": 0.10307149999999865
                },
                {
                    "name": "C3",
                    "midi": 48,
                    "time": 441.5583059999956,
                    "velocity": 0.5354330708661418,
                    "duration": 0.10307149999999865
                },
                {
                    "name": "E3",
                    "midi": 52,
                    "time": 442.79516399999557,
                    "velocity": 0.5354330708661418,
                    "duration": 0.10307149999999865
                },
                {
                    "name": "G3",
                    "midi": 55,
                    "time": 442.79516399999557,
                    "velocity": 0.5354330708661418,
                    "duration": 0.10307149999999865
                },
                {
                    "name": "C4",
                    "midi": 60,
                    "time": 442.79516399999557,
                    "velocity": 0.6299212598425197,
                    "duration": 0.10307149999999865
                },
                {
                    "name": "C3",
                    "midi": 48,
                    "time": 442.79516399999557,
                    "velocity": 0.5354330708661418,
                    "duration": 0.10307149999999865
                }
            ],
            "controlChanges": {},
            "id": 1,
            "name": "Piano right",
            "instrumentNumber": 0,
            "instrument": "acoustic grand piano",
            "instrumentFamily": "piano",
            "channelNumber": 0,
            "isPercussion": false
        },
        {
            "startTime": 0,
            "duration": 442.8982354999974,
            "length": 1553,
            "notes": [
                {
                    "name": "E2",
                    "midi": 40,
                    "time": 0,
                    "velocity": 0.48031496062992124,
                    "duration": 0.20614300000000002
                },
                {
                    "name": "E1",
                    "midi": 28,
                    "time": 0,
                    "velocity": 0.4015748031496063,
                    "duration": 0.20614300000000002
                },
                {
                    "name": "E3",
                    "midi": 52,
                    "time": 0.6184290000000001,
                    "velocity": 0.3700787401574803,
                    "duration": 2.0442514166666674
                },
                {
                    "name": "B3",
                    "midi": 59,
                    "time": 0.6184290000000001,
                    "velocity": 0.3700787401574803,
                    "duration": 0.6184290000000001
                },
                {
                    "name": "D4",
                    "midi": 62,
                    "time": 0.6184290000000001,
                    "velocity": 0.4409448818897638,
                    "duration": 0.6184290000000001
                },
                {
                    "name": "C4",
                    "midi": 60,
                    "time": 1.2368580000000002,
                    "velocity": 0.4409448818897638,
                    "duration": 0.6184290000000001
                },
                {
                    "name": "A3",
                    "midi": 57,
                    "time": 1.2368580000000002,
                    "velocity": 0.3700787401574803,
                    "duration": 0.6184290000000001
                },
                {
                    "name": "A3",
                    "midi": 57,
                    "time": 1.8552870000000004,
                    "velocity": 0.4409448818897638,
                    "duration": 0.6184290000000001
                },
                {
                    "name": "F#3",
                    "midi": 54,
                    "time": 1.8552870000000004,
                    "velocity": 0.3700787401574803,
                    "duration": 0.6184290000000001
                },
                {
                    "name": "B3",
                    "midi": 59,
                    "time": 2.4737160000000005,
                    "velocity": 0.4409448818897638,
                    "duration": 0.10307149999999998
                },
                {
                    "name": "G3",
                    "midi": 55,
                    "time": 2.4737160000000005,
                    "velocity": 0.3700787401574803,
                    "duration": 0.10307149999999998
                },
                {
                    "name": "G3",
                    "midi": 55,
                    "time": 2.679859000000001,
                    "velocity": 0.4094488188976378,
                    "duration": 0.10307149999999998
                },
                {
                    "name": "E3",
                    "midi": 52,
                    "time": 2.679859000000001,
                    "velocity": 0.3464566929133858,
                    "duration": 0.10307149999999998
                },
                {
                    "name": "A3",
                    "midi": 57,
                    "time": 2.886002000000001,
                    "velocity": 0.4409448818897638,
                    "duration": 0.10307149999999998
                },
                {
                    "name": "F#3",
                    "midi": 54,
                    "time": 2.886002000000001,
                    "velocity": 0.3700787401574803,
                    "duration": 0.10307149999999998
                },
                {
                    "name": "D#3",
                    "midi": 51,
                    "time": 3.092145000000001,
                    "velocity": 0.33070866141732286,
                    "duration": 0.10307149999999998
                },
                {
                    "name": "F#3",
                    "midi": 54,
                    "time": 3.092145000000001,
                    "velocity": 0.3937007874015748,
                    "duration": 0.10307149999999998
                },
                {
                    "name": "E3",
                    "midi": 52,
                    "time": 3.2982880000000008,
                    "velocity": 0.3700787401574803,
                    "duration": 0.10307149999999998
                },
                {
                    "name": "G3",
                    "midi": 55,
                    "time": 3.2982880000000008,
                    "velocity": 0.4409448818897638,
                    "duration": 0.10307149999999998
                },
                {
                    "name": "E3",
                    "midi": 52,
                    "time": 3.5044310000000007,
                    "velocity": 0.4094488188976378,
                    "duration": 0.10307149999999998
                },
                {
                    "name": "C#3",
                    "midi": 49,
                    "time": 3.5044310000000007,
                    "velocity": 0.3464566929133858,
                    "duration": 0.10307149999999998
                },
                {
                    "name": "D#3",
                    "midi": 51,
                    "time": 3.7105740000000007,
                    "velocity": 0.3700787401574803,
                    "duration": 0.10307149999999998
                },
                {
                    "name": "F#3",
                    "midi": 54,
                    "time": 3.7105740000000007,
                    "velocity": 0.4409448818897638,
                    "duration": 0.10307149999999998
                },
                {
                    "name": "B3",
                    "midi": 59,
                    "time": 4.329003000000001,
                    "velocity": 0.5354330708661418,
                    "duration": 0.8245719999999999
                },
                {
                    "name": "B2",
                    "midi": 47,
                    "time": 4.329003000000001,
                    "velocity": 0.4330708661417323,
                    "duration": 0.8245719999999999
                },
                {
                    "name": "C#3",
                    "midi": 49,
                    "time": 5.153575000000001,
                    "velocity": 0.3858267716535433,
                    "duration": 0.10307150000000043
                },
                {
                    "name": "D#3",
                    "midi": 51,
                    "time": 5.359718000000002,
                    "velocity": 0.3937007874015748,
                    "duration": 0.10307150000000043
                },
                {
                    "name": "E3",
                    "midi": 52,
                    "time": 5.565861000000003,
                    "velocity": 0.4094488188976378,
                    "duration": 0.10307150000000043
                },
                {
                    "name": "F#3",
                    "midi": 54,
                    "time": 5.7720040000000035,
                    "velocity": 0.41732283464566927,
                    "duration": 0.10307150000000043
                },
                {
                    "name": "G3",
                    "midi": 55,
                    "time": 5.978147000000004,
                    "velocity": 0.4251968503937008,
                    "duration": 0.10307150000000043
                },
                {
                    "name": "D#3",
                    "midi": 51,
                    "time": 6.184290000000005,
                    "velocity": 0.3700787401574803,
                    "duration": 0.10307150000000043
                },
                {
                    "name": "F#3",
                    "midi": 54,
                    "time": 6.184290000000005,
                    "velocity": 0.4409448818897638,
                    "duration": 0.10307150000000043
                },
                {
                    "name": "B2",
                    "midi": 47,
                    "time": 6.802719000000006,
                    "velocity": 0.4330708661417323,
                    "duration": 0.8245719999999999
                },
                {
                    "name": "B3",
                    "midi": 59,
                    "time": 6.802719000000006,
                    "velocity": 0.5354330708661418,
                    "duration": 0.8245719999999999
                },
                {
                    "name": "C#3",
                    "midi": 49,
                    "time": 7.627291000000006,
                    "velocity": 0.3858267716535433,
                    "duration": 0.10307150000000043
                },
                {
                    "name": "D#3",
                    "midi": 51,
                    "time": 7.833434000000007,
                    "velocity": 0.3937007874015748,
                    "duration": 0.10307150000000043
                },
                {
                    "name": "E3",
                    "midi": 52,
                    "time": 8.039577000000007,
                    "velocity": 0.4094488188976378,
                    "duration": 0.10307150000000043
                },
                {
                    "name": "F#3",
                    "midi": 54,
                    "time": 8.245720000000007,
                    "velocity": 0.41732283464566927,
                    "duration": 0.10307150000000043
                },
                {
                    "name": "G3",
                    "midi": 55,
                    "time": 8.451863000000008,
                    "velocity": 0.4251968503937008,
                    "duration": 0.10307150000000043
                },
                {
                    "name": "F#3",
                    "midi": 54,
                    "time": 8.65800600000001,
                    "velocity": 0.3700787401574803,
                    "duration": 0.10307150000000043
                },
                {
                    "name": "A3",
                    "midi": 57,
                    "time": 8.65800600000001,
                    "velocity": 0.4409448818897638,
                    "duration": 0.10307150000000043
                },
                {
                    "name": "D3",
                    "midi": 50,
                    "time": 9.27643500000001,
                    "velocity": 0.4330708661417323,
                    "duration": 0.41228599999999993
                },
                {
                    "name": "D4",
                    "midi": 62,
                    "time": 9.27643500000001,
                    "velocity": 0.5354330708661418,
                    "duration": 0.41228599999999993
                },
                {
                    "name": "G1",
                    "midi": 31,
                    "time": 9.89486400000001,
                    "velocity": 0.4015748031496063,
                    "duration": 0.20614300000000085
                },
                {
                    "name": "G2",
                    "midi": 43,
                    "time": 9.89486400000001,
                    "velocity": 0.48031496062992124,
                    "duration": 0.20614300000000085
                },
                {
                    "name": "A4",
                    "midi": 69,
                    "time": 10.513293000000012,
                    "velocity": 0.4409448818897638,
                    "duration": 0.6184290000000008
                },
                {
                    "name": "F4",
                    "midi": 65,
                    "time": 10.513293000000012,
                    "velocity": 0.3700787401574803,
                    "duration": 0.6184290000000008
                },
                {
                    "name": "G3",
                    "midi": 55,
                    "time": 10.513293000000012,
                    "velocity": 0.3700787401574803,
                    "duration": 2.04425141666667
                },
                {
                    "name": "E4",
                    "midi": 64,
                    "time": 11.131722000000012,
                    "velocity": 0.3700787401574803,
                    "duration": 0.6184290000000008
                },
                {
                    "name": "G4",
                    "midi": 67,
                    "time": 11.131722000000012,
                    "velocity": 0.4409448818897638,
                    "duration": 0.6184290000000008
                },
                {
                    "name": "C4",
                    "midi": 60,
                    "time": 11.750151000000013,
                    "velocity": 0.3700787401574803,
                    "duration": 0.6184290000000008
                },
                {
                    "name": "E4",
                    "midi": 64,
                    "time": 11.750151000000013,
                    "velocity": 0.4409448818897638,
                    "duration": 0.6184290000000008
                },
                {
                    "name": "F4",
                    "midi": 65,
                    "time": 12.368580000000014,
                    "velocity": 0.4409448818897638,
                    "duration": 0.10307150000000043
                },
                {
                    "name": "D4",
                    "midi": 62,
                    "time": 12.368580000000014,
                    "velocity": 0.3700787401574803,
                    "duration": 0.10307150000000043
                },
                {
                    "name": "B3",
                    "midi": 59,
                    "time": 12.574723000000015,
                    "velocity": 0.3464566929133858,
                    "duration": 0.10307150000000043
                },
                {
                    "name": "D4",
                    "midi": 62,
                    "time": 12.574723000000015,
                    "velocity": 0.4094488188976378,
                    "duration": 0.10307150000000043
                },
                {
                    "name": "C4",
                    "midi": 60,
                    "time": 12.780866000000016,
                    "velocity": 0.3700787401574803,
                    "duration": 0.10307150000000043
                },
                {
                    "name": "E4",
                    "midi": 64,
                    "time": 12.780866000000016,
                    "velocity": 0.4409448818897638,
                    "duration": 0.10307150000000043
                },
                {
                    "name": "C4",
                    "midi": 60,
                    "time": 12.987009000000016,
                    "velocity": 0.3937007874015748,
                    "duration": 0.10307150000000043
                },
                {
                    "name": "A3",
                    "midi": 57,
                    "time": 12.987009000000016,
                    "velocity": 0.33070866141732286,
                    "duration": 0.10307150000000043
                },
                {
                    "name": "B3",
                    "midi": 59,
                    "time": 13.193152000000017,
                    "velocity": 0.3700787401574803,
                    "duration": 0.10307150000000043
                },
                {
                    "name": "D4",
                    "midi": 62,
                    "time": 13.193152000000017,
                    "velocity": 0.4409448818897638,
                    "duration": 0.10307150000000043
                },
                {
                    "name": "B3",
                    "midi": 59,
                    "time": 13.399295000000018,
                    "velocity": 0.4094488188976378,
                    "duration": 0.10307150000000043
                },
                {
                    "name": "G3",
                    "midi": 55,
                    "time": 13.399295000000018,
                    "velocity": 0.3464566929133858,
                    "duration": 0.10307150000000043
                },
                {
                    "name": "A3",
                    "midi": 57,
                    "time": 13.605438000000019,
                    "velocity": 0.3700787401574803,
                    "duration": 0.10307150000000043
                },
                {
                    "name": "C4",
                    "midi": 60,
                    "time": 13.605438000000019,
                    "velocity": 0.4409448818897638,
                    "duration": 0.10307150000000043
                },
                {
                    "name": "C4",
                    "midi": 60,
                    "time": 14.017724000000019,
                    "velocity": 0.41732283464566927,
                    "duration": 0.10307150000000043
                },
                {
                    "name": "A3",
                    "midi": 57,
                    "time": 14.017724000000019,
                    "velocity": 0.3464566929133858,
                    "duration": 0.10307150000000043
                },
                {
                    "name": "A3",
                    "midi": 57,
                    "time": 14.22386700000002,
                    "velocity": 0.5354330708661418,
                    "duration": 0.6184290000000008
                },
                {
                    "name": "F3",
                    "midi": 53,
                    "time": 14.22386700000002,
                    "velocity": 0.4330708661417323,
                    "duration": 0.6184290000000008
                },
                {
                    "name": "E2",
                    "midi": 40,
                    "time": 14.84229600000002,
                    "velocity": 0.31496062992125984,
                    "duration": 0.41228599999999993
                },
                {
                    "name": "E3",
                    "midi": 52,
                    "time": 14.84229600000002,
                    "velocity": 0.36220472440944884,
                    "duration": 0.41228599999999993
                },
                {
                    "name": "G3",
                    "midi": 55,
                    "time": 15.460725000000021,
                    "velocity": 0.2677165354330709,
                    "duration": 0.41228599999999993
                },
                {
                    "name": "C4",
                    "midi": 60,
                    "time": 15.460725000000021,
                    "velocity": 0.30708661417322836,
                    "duration": 0.41228599999999993
                },
                {
                    "name": "E3",
                    "midi": 52,
                    "time": 15.460725000000021,
                    "velocity": 0.2677165354330709,
                    "duration": 0.41228599999999993
                },
                {
                    "name": "D3",
                    "midi": 50,
                    "time": 16.07915400000002,
                    "velocity": 0.36220472440944884,
                    "duration": 0.4122860000000017
                },
                {
                    "name": "D2",
                    "midi": 38,
                    "time": 16.07915400000002,
                    "velocity": 0.31496062992125984,
                    "duration": 0.4122860000000017
                },
                {
                    "name": "D3",
                    "midi": 50,
                    "time": 16.697583000000023,
                    "velocity": 0.2677165354330709,
                    "duration": 0.4122860000000017
                },
                {
                    "name": "F3",
                    "midi": 53,
                    "time": 16.697583000000023,
                    "velocity": 0.2677165354330709,
                    "duration": 0.4122860000000017
                },
                {
                    "name": "A3",
                    "midi": 57,
                    "time": 16.697583000000023,
                    "velocity": 0.2677165354330709,
                    "duration": 0.4122860000000017
                },
                {
                    "name": "C4",
                    "midi": 60,
                    "time": 16.697583000000023,
                    "velocity": 0.30708661417322836,
                    "duration": 0.4122860000000017
                },
                {
                    "name": "C3",
                    "midi": 48,
                    "time": 17.316012000000025,
                    "velocity": 0.36220472440944884,
                    "duration": 0.4122860000000017
                },
                {
                    "name": "C2",
                    "midi": 36,
                    "time": 17.316012000000025,
                    "velocity": 0.31496062992125984,
                    "duration": 0.4122860000000017
                },
                {
                    "name": "C3",
                    "midi": 48,
                    "time": 17.934441000000028,
                    "velocity": 0.2992125984251969,
                    "duration": 0.4122860000000017
                },
                {
                    "name": "E3",
                    "midi": 52,
                    "time": 17.934441000000028,
                    "velocity": 0.2992125984251969,
                    "duration": 0.4122860000000017
                },
                {
                    "name": "C4",
                    "midi": 60,
                    "time": 17.934441000000028,
                    "velocity": 0.3464566929133858,
                    "duration": 0.4122860000000017
                },
                {
                    "name": "A3",
                    "midi": 57,
                    "time": 17.934441000000028,
                    "velocity": 0.2992125984251969,
                    "duration": 0.4122860000000017
                },
                {
                    "name": "B2",
                    "midi": 47,
                    "time": 18.55287000000003,
                    "velocity": 0.44881889763779526,
                    "duration": 0.4122860000000017
                },
                {
                    "name": "B1",
                    "midi": 35,
                    "time": 18.55287000000003,
                    "velocity": 0.3937007874015748,
                    "duration": 0.4122860000000017
                },
                {
                    "name": "B3",
                    "midi": 59,
                    "time": 19.171299000000033,
                    "velocity": 0.31496062992125984,
                    "duration": 0.4122860000000017
                },
                {
                    "name": "F#3",
                    "midi": 54,
                    "time": 19.171299000000033,
                    "velocity": 0.31496062992125984,
                    "duration": 0.4122860000000017
                },
                {
                    "name": "D#4",
                    "midi": 63,
                    "time": 19.171299000000033,
                    "velocity": 0.36220472440944884,
                    "duration": 0.4122860000000017
                },
                {
                    "name": "E1",
                    "midi": 28,
                    "time": 19.789728000000036,
                    "velocity": 0.4015748031496063,
                    "duration": 0.20614300000000085
                },
                {
                    "name": "E2",
                    "midi": 40,
                    "time": 19.789728000000036,
                    "velocity": 0.48031496062992124,
                    "duration": 0.20614300000000085
                },
                {
                    "name": "D4",
                    "midi": 62,
                    "time": 20.40815700000004,
                    "velocity": 0.4409448818897638,
                    "duration": 0.618428999999999
                },
                {
                    "name": "B3",
                    "midi": 59,
                    "time": 20.40815700000004,
                    "velocity": 0.3700787401574803,
                    "duration": 0.618428999999999
                },
                {
                    "name": "E3",
                    "midi": 52,
                    "time": 20.40815700000004,
                    "velocity": 0.3700787401574803,
                    "duration": 2.044251416666661
                },
                {
                    "name": "A3",
                    "midi": 57,
                    "time": 21.026586000000037,
                    "velocity": 0.3700787401574803,
                    "duration": 0.618428999999999
                },
                {
                    "name": "C4",
                    "midi": 60,
                    "time": 21.026586000000037,
                    "velocity": 0.4409448818897638,
                    "duration": 0.618428999999999
                },
                {
                    "name": "A3",
                    "midi": 57,
                    "time": 21.645015000000036,
                    "velocity": 0.4409448818897638,
                    "duration": 0.618428999999999
                },
                {
                    "name": "F#3",
                    "midi": 54,
                    "time": 21.645015000000036,
                    "velocity": 0.3700787401574803,
                    "duration": 0.618428999999999
                },
                {
                    "name": "B3",
                    "midi": 59,
                    "time": 22.263444000000035,
                    "velocity": 0.4409448818897638,
                    "duration": 0.10307149999999865
                },
                {
                    "name": "G3",
                    "midi": 55,
                    "time": 22.263444000000035,
                    "velocity": 0.3700787401574803,
                    "duration": 0.10307149999999865
                },
                {
                    "name": "E3",
                    "midi": 52,
                    "time": 22.469587000000033,
                    "velocity": 0.3464566929133858,
                    "duration": 0.10307149999999865
                },
                {
                    "name": "G3",
                    "midi": 55,
                    "time": 22.469587000000033,
                    "velocity": 0.4094488188976378,
                    "duration": 0.10307149999999865
                },
                {
                    "name": "F#3",
                    "midi": 54,
                    "time": 22.67573000000003,
                    "velocity": 0.3700787401574803,
                    "duration": 0.10307149999999865
                },
                {
                    "name": "A3",
                    "midi": 57,
                    "time": 22.67573000000003,
                    "velocity": 0.4409448818897638,
                    "duration": 0.10307149999999865
                },
                {
                    "name": "F#3",
                    "midi": 54,
                    "time": 22.881873000000027,
                    "velocity": 0.3937007874015748,
                    "duration": 0.10307149999999865
                },
                {
                    "name": "D#3",
                    "midi": 51,
                    "time": 22.881873000000027,
                    "velocity": 0.33070866141732286,
                    "duration": 0.10307149999999865
                },
                {
                    "name": "G3",
                    "midi": 55,
                    "time": 23.088016000000025,
                    "velocity": 0.4409448818897638,
                    "duration": 0.10307149999999865
                },
                {
                    "name": "E3",
                    "midi": 52,
                    "time": 23.088016000000025,
                    "velocity": 0.3700787401574803,
                    "duration": 0.10307149999999865
                },
                {
                    "name": "C#3",
                    "midi": 49,
                    "time": 23.294159000000022,
                    "velocity": 0.3464566929133858,
                    "duration": 0.10307149999999865
                },
                {
                    "name": "E3",
                    "midi": 52,
                    "time": 23.294159000000022,
                    "velocity": 0.4094488188976378,
                    "duration": 0.10307149999999865
                },
                {
                    "name": "F#3",
                    "midi": 54,
                    "time": 23.50030200000002,
                    "velocity": 0.4409448818897638,
                    "duration": 0.10307149999999865
                },
                {
                    "name": "D#3",
                    "midi": 51,
                    "time": 23.50030200000002,
                    "velocity": 0.3700787401574803,
                    "duration": 0.10307149999999865
                },
                {
                    "name": "B2",
                    "midi": 47,
                    "time": 24.118731000000018,
                    "velocity": 0.4330708661417323,
                    "duration": 0.8245719999999999
                },
                {
                    "name": "B3",
                    "midi": 59,
                    "time": 24.118731000000018,
                    "velocity": 0.5354330708661418,
                    "duration": 0.8245719999999999
                },
                {
                    "name": "C#3",
                    "midi": 49,
                    "time": 24.943303000000018,
                    "velocity": 0.3858267716535433,
                    "duration": 0.10307149999999865
                },
                {
                    "name": "D#3",
                    "midi": 51,
                    "time": 25.149446000000015,
                    "velocity": 0.3937007874015748,
                    "duration": 0.10307149999999865
                },
                {
                    "name": "E3",
                    "midi": 52,
                    "time": 25.355589000000013,
                    "velocity": 0.4094488188976378,
                    "duration": 0.10307149999999865
                },
                {
                    "name": "F#3",
                    "midi": 54,
                    "time": 25.56173200000001,
                    "velocity": 0.41732283464566927,
                    "duration": 0.10307149999999865
                },
                {
                    "name": "G3",
                    "midi": 55,
                    "time": 25.767875000000007,
                    "velocity": 0.4251968503937008,
                    "duration": 0.10307149999999865
                },
                {
                    "name": "F#3",
                    "midi": 54,
                    "time": 25.974018000000004,
                    "velocity": 0.4409448818897638,
                    "duration": 0.10307149999999865
                },
                {
                    "name": "D#3",
                    "midi": 51,
                    "time": 25.974018000000004,
                    "velocity": 0.3700787401574803,
                    "duration": 0.10307149999999865
                },
                {
                    "name": "B2",
                    "midi": 47,
                    "time": 26.592447000000003,
                    "velocity": 0.4330708661417323,
                    "duration": 0.8245719999999999
                },
                {
                    "name": "B3",
                    "midi": 59,
                    "time": 26.592447000000003,
                    "velocity": 0.5354330708661418,
                    "duration": 0.8245719999999999
                },
                {
                    "name": "C#3",
                    "midi": 49,
                    "time": 27.417019000000003,
                    "velocity": 0.3858267716535433,
                    "duration": 0.10307149999999865
                },
                {
                    "name": "D#3",
                    "midi": 51,
                    "time": 27.623162,
                    "velocity": 0.3937007874015748,
                    "duration": 0.10307149999999865
                },
                {
                    "name": "E3",
                    "midi": 52,
                    "time": 27.829304999999998,
                    "velocity": 0.4094488188976378,
                    "duration": 0.10307149999999865
                },
                {
                    "name": "F#3",
                    "midi": 54,
                    "time": 28.035447999999995,
                    "velocity": 0.41732283464566927,
                    "duration": 0.10307149999999865
                },
                {
                    "name": "G3",
                    "midi": 55,
                    "time": 28.241590999999993,
                    "velocity": 0.4251968503937008,
                    "duration": 0.10307149999999865
                },
                {
                    "name": "F#3",
                    "midi": 54,
                    "time": 28.44773399999999,
                    "velocity": 0.3700787401574803,
                    "duration": 0.10307149999999865
                },
                {
                    "name": "A3",
                    "midi": 57,
                    "time": 28.44773399999999,
                    "velocity": 0.4409448818897638,
                    "duration": 0.10307149999999865
                },
                {
                    "name": "D4",
                    "midi": 62,
                    "time": 29.06616299999999,
                    "velocity": 0.5354330708661418,
                    "duration": 0.4122860000000017
                },
                {
                    "name": "D3",
                    "midi": 50,
                    "time": 29.06616299999999,
                    "velocity": 0.4330708661417323,
                    "duration": 0.4122860000000017
                },
                {
                    "name": "G1",
                    "midi": 31,
                    "time": 29.68459199999999,
                    "velocity": 0.4015748031496063,
                    "duration": 0.20614300000000085
                },
                {
                    "name": "G2",
                    "midi": 43,
                    "time": 29.68459199999999,
                    "velocity": 0.48031496062992124,
                    "duration": 0.20614300000000085
                },
                {
                    "name": "G3",
                    "midi": 55,
                    "time": 30.303020999999994,
                    "velocity": 0.3700787401574803,
                    "duration": 2.044251416666661
                },
                {
                    "name": "A4",
                    "midi": 69,
                    "time": 30.303020999999994,
                    "velocity": 0.4409448818897638,
                    "duration": 0.618428999999999
                },
                {
                    "name": "F4",
                    "midi": 65,
                    "time": 30.303020999999994,
                    "velocity": 0.3700787401574803,
                    "duration": 0.618428999999999
                },
                {
                    "name": "E4",
                    "midi": 64,
                    "time": 30.921449999999993,
                    "velocity": 0.3700787401574803,
                    "duration": 0.618428999999999
                },
                {
                    "name": "G4",
                    "midi": 67,
                    "time": 30.921449999999993,
                    "velocity": 0.4409448818897638,
                    "duration": 0.618428999999999
                },
                {
                    "name": "E4",
                    "midi": 64,
                    "time": 31.539878999999992,
                    "velocity": 0.4409448818897638,
                    "duration": 0.618428999999999
                },
                {
                    "name": "C4",
                    "midi": 60,
                    "time": 31.539878999999992,
                    "velocity": 0.3700787401574803,
                    "duration": 0.618428999999999
                },
                {
                    "name": "D4",
                    "midi": 62,
                    "time": 32.15830799999999,
                    "velocity": 0.3700787401574803,
                    "duration": 0.10307149999999865
                },
                {
                    "name": "F4",
                    "midi": 65,
                    "time": 32.15830799999999,
                    "velocity": 0.4409448818897638,
                    "duration": 0.10307149999999865
                },
                {
                    "name": "D4",
                    "midi": 62,
                    "time": 32.36445099999999,
                    "velocity": 0.4094488188976378,
                    "duration": 0.10307149999999865
                },
                {
                    "name": "B3",
                    "midi": 59,
                    "time": 32.36445099999999,
                    "velocity": 0.3464566929133858,
                    "duration": 0.10307149999999865
                },
                {
                    "name": "C4",
                    "midi": 60,
                    "time": 32.570593999999986,
                    "velocity": 0.3700787401574803,
                    "duration": 0.10307149999999865
                },
                {
                    "name": "E4",
                    "midi": 64,
                    "time": 32.570593999999986,
                    "velocity": 0.4409448818897638,
                    "duration": 0.10307149999999865
                },
                {
                    "name": "A3",
                    "midi": 57,
                    "time": 32.77673699999998,
                    "velocity": 0.33070866141732286,
                    "duration": 0.10307149999999865
                },
                {
                    "name": "C4",
                    "midi": 60,
                    "time": 32.77673699999998,
                    "velocity": 0.3937007874015748,
                    "duration": 0.10307149999999865
                },
                {
                    "name": "B3",
                    "midi": 59,
                    "time": 32.98287999999998,
                    "velocity": 0.3700787401574803,
                    "duration": 0.10307149999999865
                },
                {
                    "name": "D4",
                    "midi": 62,
                    "time": 32.98287999999998,
                    "velocity": 0.4409448818897638,
                    "duration": 0.10307149999999865
                },
                {
                    "name": "B3",
                    "midi": 59,
                    "time": 33.18902299999998,
                    "velocity": 0.4094488188976378,
                    "duration": 0.10307149999999865
                },
                {
                    "name": "G3",
                    "midi": 55,
                    "time": 33.18902299999998,
                    "velocity": 0.3464566929133858,
                    "duration": 0.10307149999999865
                },
                {
                    "name": "A3",
                    "midi": 57,
                    "time": 33.395165999999975,
                    "velocity": 0.3700787401574803,
                    "duration": 0.10307149999999865
                },
                {
                    "name": "C4",
                    "midi": 60,
                    "time": 33.395165999999975,
                    "velocity": 0.4409448818897638,
                    "duration": 0.10307149999999865
                },
                {
                    "name": "A3",
                    "midi": 57,
                    "time": 33.80745199999998,
                    "velocity": 0.3464566929133858,
                    "duration": 0.10307149999999865
                },
                {
                    "name": "C4",
                    "midi": 60,
                    "time": 33.80745199999998,
                    "velocity": 0.41732283464566927,
                    "duration": 0.10307149999999865
                },
                {
                    "name": "F3",
                    "midi": 53,
                    "time": 34.013594999999974,
                    "velocity": 0.4330708661417323,
                    "duration": 0.618428999999999
                },
                {
                    "name": "A3",
                    "midi": 57,
                    "time": 34.013594999999974,
                    "velocity": 0.5354330708661418,
                    "duration": 0.618428999999999
                },
                {
                    "name": "E2",
                    "midi": 40,
                    "time": 34.63202399999997,
                    "velocity": 0.31496062992125984,
                    "duration": 0.4122860000000017
                },
                {
                    "name": "E3",
                    "midi": 52,
                    "time": 34.63202399999997,
                    "velocity": 0.36220472440944884,
                    "duration": 0.4122860000000017
                },
                {
                    "name": "G3",
                    "midi": 55,
                    "time": 35.25045299999997,
                    "velocity": 0.2677165354330709,
                    "duration": 0.4122860000000017
                },
                {
                    "name": "C4",
                    "midi": 60,
                    "time": 35.25045299999997,
                    "velocity": 0.30708661417322836,
                    "duration": 0.4122860000000017
                },
                {
                    "name": "E3",
                    "midi": 52,
                    "time": 35.25045299999997,
                    "velocity": 0.2677165354330709,
                    "duration": 0.4122860000000017
                },
                {
                    "name": "D3",
                    "midi": 50,
                    "time": 35.86888199999997,
                    "velocity": 0.36220472440944884,
                    "duration": 0.4122860000000017
                },
                {
                    "name": "D2",
                    "midi": 38,
                    "time": 35.86888199999997,
                    "velocity": 0.31496062992125984,
                    "duration": 0.4122860000000017
                },
                {
                    "name": "F3",
                    "midi": 53,
                    "time": 36.48731099999997,
                    "velocity": 0.2677165354330709,
                    "duration": 0.4122860000000017
                },
                {
                    "name": "A3",
                    "midi": 57,
                    "time": 36.48731099999997,
                    "velocity": 0.2677165354330709,
                    "duration": 0.4122860000000017
                },
                {
                    "name": "D3",
                    "midi": 50,
                    "time": 36.48731099999997,
                    "velocity": 0.2677165354330709,
                    "duration": 0.4122860000000017
                },
                {
                    "name": "C4",
                    "midi": 60,
                    "time": 36.48731099999997,
                    "velocity": 0.30708661417322836,
                    "duration": 0.4122860000000017
                },
                {
                    "name": "C2",
                    "midi": 36,
                    "time": 37.10573999999997,
                    "velocity": 0.31496062992125984,
                    "duration": 0.4122860000000017
                },
                {
                    "name": "C3",
                    "midi": 48,
                    "time": 37.10573999999997,
                    "velocity": 0.36220472440944884,
                    "duration": 0.4122860000000017
                },
                {
                    "name": "A3",
                    "midi": 57,
                    "time": 37.72416899999997,
                    "velocity": 0.2992125984251969,
                    "duration": 0.4122860000000017
                },
                {
                    "name": "E3",
                    "midi": 52,
                    "time": 37.72416899999997,
                    "velocity": 0.2992125984251969,
                    "duration": 0.4122860000000017
                },
                {
                    "name": "C3",
                    "midi": 48,
                    "time": 37.72416899999997,
                    "velocity": 0.2992125984251969,
                    "duration": 0.4122860000000017
                },
                {
                    "name": "C4",
                    "midi": 60,
                    "time": 37.72416899999997,
                    "velocity": 0.3464566929133858,
                    "duration": 0.4122860000000017
                },
                {
                    "name": "B2",
                    "midi": 47,
                    "time": 38.34259799999997,
                    "velocity": 0.44881889763779526,
                    "duration": 0.4122860000000017
                },
                {
                    "name": "B1",
                    "midi": 35,
                    "time": 38.34259799999997,
                    "velocity": 0.3937007874015748,
                    "duration": 0.4122860000000017
                },
                {
                    "name": "F#3",
                    "midi": 54,
                    "time": 38.961026999999966,
                    "velocity": 0.31496062992125984,
                    "duration": 0.4122860000000017
                },
                {
                    "name": "D#4",
                    "midi": 63,
                    "time": 38.961026999999966,
                    "velocity": 0.36220472440944884,
                    "duration": 0.4122860000000017
                },
                {
                    "name": "B3",
                    "midi": 59,
                    "time": 38.961026999999966,
                    "velocity": 0.31496062992125984,
                    "duration": 0.4122860000000017
                },
                {
                    "name": "C1",
                    "midi": 24,
                    "time": 39.579455999999965,
                    "velocity": 0.4015748031496063,
                    "duration": 0.2061429999999973
                },
                {
                    "name": "C2",
                    "midi": 36,
                    "time": 39.579455999999965,
                    "velocity": 0.48031496062992124,
                    "duration": 0.2061429999999973
                },
                {
                    "name": "C2",
                    "midi": 36,
                    "time": 40.197884999999964,
                    "velocity": 0.3464566929133858,
                    "duration": 1.6491439999999997
                },
                {
                    "name": "A#2",
                    "midi": 46,
                    "time": 40.197884999999964,
                    "velocity": 0.41732283464566927,
                    "duration": 0.618428999999999
                },
                {
                    "name": "G2",
                    "midi": 43,
                    "time": 40.197884999999964,
                    "velocity": 0.3464566929133858,
                    "duration": 0.618428999999999
                },
                {
                    "name": "A2",
                    "midi": 45,
                    "time": 40.81631399999996,
                    "velocity": 0.41732283464566927,
                    "duration": 0.618428999999999
                },
                {
                    "name": "F2",
                    "midi": 41,
                    "time": 40.81631399999996,
                    "velocity": 0.3464566929133858,
                    "duration": 0.618428999999999
                },
                {
                    "name": "F2",
                    "midi": 41,
                    "time": 41.43474299999996,
                    "velocity": 0.41732283464566927,
                    "duration": 0.618428999999999
                },
                {
                    "name": "D2",
                    "midi": 38,
                    "time": 41.43474299999996,
                    "velocity": 0.3464566929133858,
                    "duration": 0.618428999999999
                },
                {
                    "name": "E2",
                    "midi": 40,
                    "time": 42.05317199999996,
                    "velocity": 0.3464566929133858,
                    "duration": 0.10307149999999865
                },
                {
                    "name": "G2",
                    "midi": 43,
                    "time": 42.05317199999996,
                    "velocity": 0.41732283464566927,
                    "duration": 0.10307149999999865
                },
                {
                    "name": "C#2",
                    "midi": 37,
                    "time": 42.25931499999996,
                    "velocity": 0.3858267716535433,
                    "duration": 0.10307149999999865
                },
                {
                    "name": "D2",
                    "midi": 38,
                    "time": 42.465457999999956,
                    "velocity": 0.41732283464566927,
                    "duration": 0.10307149999999865
                },
                {
                    "name": "B1",
                    "midi": 35,
                    "time": 42.67160099999995,
                    "velocity": 0.3700787401574803,
                    "duration": 0.10307149999999865
                },
                {
                    "name": "C#2",
                    "midi": 37,
                    "time": 42.87774399999995,
                    "velocity": 0.41732283464566927,
                    "duration": 0.10307149999999865
                },
                {
                    "name": "A1",
                    "midi": 33,
                    "time": 43.08388699999995,
                    "velocity": 0.3858267716535433,
                    "duration": 0.10307149999999865
                },
                {
                    "name": "D2",
                    "midi": 38,
                    "time": 43.290029999999945,
                    "velocity": 0.41732283464566927,
                    "duration": 0.10307149999999865
                },
                {
                    "name": "D2",
                    "midi": 38,
                    "time": 43.908458999999944,
                    "velocity": 0.5039370078740157,
                    "duration": 0.618428999999999
                },
                {
                    "name": "D1",
                    "midi": 26,
                    "time": 43.908458999999944,
                    "velocity": 0.4094488188976378,
                    "duration": 0.618428999999999
                },
                {
                    "name": "D#2",
                    "midi": 39,
                    "time": 44.52688799999994,
                    "velocity": 0.48031496062992124,
                    "duration": 0.2061429999999973
                },
                {
                    "name": "D#1",
                    "midi": 27,
                    "time": 44.52688799999994,
                    "velocity": 0.4015748031496063,
                    "duration": 0.2061429999999973
                },
                {
                    "name": "A#2",
                    "midi": 46,
                    "time": 45.14531699999994,
                    "velocity": 0.3464566929133858,
                    "duration": 0.618428999999999
                },
                {
                    "name": "D#2",
                    "midi": 39,
                    "time": 45.14531699999994,
                    "velocity": 0.3464566929133858,
                    "duration": 1.6491439999999997
                },
                {
                    "name": "C#3",
                    "midi": 49,
                    "time": 45.14531699999994,
                    "velocity": 0.41732283464566927,
                    "duration": 0.618428999999999
                },
                {
                    "name": "C3",
                    "midi": 48,
                    "time": 45.76374599999994,
                    "velocity": 0.41732283464566927,
                    "duration": 0.618428999999999
                },
                {
                    "name": "G#2",
                    "midi": 44,
                    "time": 45.76374599999994,
                    "velocity": 0.3464566929133858,
                    "duration": 0.618428999999999
                },
                {
                    "name": "G#2",
                    "midi": 44,
                    "time": 46.38217499999994,
                    "velocity": 0.41732283464566927,
                    "duration": 0.618428999999999
                },
                {
                    "name": "F2",
                    "midi": 41,
                    "time": 46.38217499999994,
                    "velocity": 0.3464566929133858,
                    "duration": 0.618428999999999
                },
                {
                    "name": "A#2",
                    "midi": 46,
                    "time": 47.00060399999994,
                    "velocity": 0.41732283464566927,
                    "duration": 0.10307149999999865
                },
                {
                    "name": "G2",
                    "midi": 43,
                    "time": 47.00060399999994,
                    "velocity": 0.3464566929133858,
                    "duration": 0.10307149999999865
                },
                {
                    "name": "E2",
                    "midi": 40,
                    "time": 47.206746999999936,
                    "velocity": 0.3858267716535433,
                    "duration": 0.10307149999999865
                },
                {
                    "name": "F2",
                    "midi": 41,
                    "time": 47.41288999999993,
                    "velocity": 0.41732283464566927,
                    "duration": 0.10307149999999865
                },
                {
                    "name": "D2",
                    "midi": 38,
                    "time": 47.61903299999993,
                    "velocity": 0.3700787401574803,
                    "duration": 0.10307149999999865
                },
                {
                    "name": "E2",
                    "midi": 40,
                    "time": 47.82517599999993,
                    "velocity": 0.41732283464566927,
                    "duration": 0.10307149999999865
                },
                {
                    "name": "C2",
                    "midi": 36,
                    "time": 48.031318999999925,
                    "velocity": 0.3858267716535433,
                    "duration": 0.10307149999999865
                },
                {
                    "name": "F2",
                    "midi": 41,
                    "time": 48.23746199999992,
                    "velocity": 0.41732283464566927,
                    "duration": 0.10307149999999865
                },
                {
                    "name": "F2",
                    "midi": 41,
                    "time": 48.85589099999992,
                    "velocity": 0.5039370078740157,
                    "duration": 0.618428999999999
                },
                {
                    "name": "F1",
                    "midi": 29,
                    "time": 48.85589099999992,
                    "velocity": 0.4094488188976378,
                    "duration": 0.618428999999999
                },
                {
                    "name": "F#2",
                    "midi": 42,
                    "time": 49.47431999999992,
                    "velocity": 0.48031496062992124,
                    "duration": 0.2061429999999973
                },
                {
                    "name": "F#1",
                    "midi": 30,
                    "time": 49.47431999999992,
                    "velocity": 0.4015748031496063,
                    "duration": 0.2061429999999973
                },
                {
                    "name": "F#3",
                    "midi": 54,
                    "time": 50.09274899999992,
                    "velocity": 0.3937007874015748,
                    "duration": 1.6491439999999997
                },
                {
                    "name": "C#4",
                    "midi": 61,
                    "time": 50.09274899999992,
                    "velocity": 0.3937007874015748,
                    "duration": 0.618428999999999
                },
                {
                    "name": "E4",
                    "midi": 64,
                    "time": 50.09274899999992,
                    "velocity": 0.47244094488188976,
                    "duration": 0.618428999999999
                },
                {
                    "name": "D#4",
                    "midi": 63,
                    "time": 50.71117799999992,
                    "velocity": 0.47244094488188976,
                    "duration": 0.618428999999999
                },
                {
                    "name": "B3",
                    "midi": 59,
                    "time": 50.71117799999992,
                    "velocity": 0.3937007874015748,
                    "duration": 0.618428999999999
                },
                {
                    "name": "B3",
                    "midi": 59,
                    "time": 51.32960699999992,
                    "velocity": 0.47244094488188976,
                    "duration": 0.618428999999999
                },
                {
                    "name": "G#3",
                    "midi": 56,
                    "time": 51.32960699999992,
                    "velocity": 0.3937007874015748,
                    "duration": 0.618428999999999
                },
                {
                    "name": "F#2",
                    "midi": 42,
                    "time": 51.94803599999992,
                    "velocity": 0.28346456692913385,
                    "duration": 2.473715999999996
                },
                {
                    "name": "G3",
                    "midi": 55,
                    "time": 52.566464999999916,
                    "velocity": 0.2440944881889764,
                    "duration": 0.618428999999999
                },
                {
                    "name": "F#3",
                    "midi": 54,
                    "time": 53.184893999999915,
                    "velocity": 0.2440944881889764,
                    "duration": 0.618428999999999
                },
                {
                    "name": "D3",
                    "midi": 50,
                    "time": 53.803322999999914,
                    "velocity": 0.2440944881889764,
                    "duration": 0.618428999999999
                },
                {
                    "name": "F#1",
                    "midi": 30,
                    "time": 54.42175199999991,
                    "velocity": 0.48031496062992124,
                    "duration": 0.2061429999999973
                },
                {
                    "name": "F#2",
                    "midi": 42,
                    "time": 54.432918079166576,
                    "velocity": 0.5748031496062992,
                    "duration": 0.2061429999999973
                },
                {
                    "name": "F#3",
                    "midi": 54,
                    "time": 54.83403799999991,
                    "velocity": 0.30708661417322836,
                    "duration": 0.8159827083333298
                },
                {
                    "name": "C#4",
                    "midi": 61,
                    "time": 54.83403799999991,
                    "velocity": 0.3779527559055118,
                    "duration": 0.2061429999999973
                },
                {
                    "name": "E4",
                    "midi": 64,
                    "time": 54.83403799999991,
                    "velocity": 0.4566929133858268,
                    "duration": 0.2061429999999973
                },
                {
                    "name": "D#4",
                    "midi": 63,
                    "time": 55.040180999999905,
                    "velocity": 0.4566929133858268,
                    "duration": 0.4122860000000017
                },
                {
                    "name": "B3",
                    "midi": 59,
                    "time": 55.040180999999905,
                    "velocity": 0.3779527559055118,
                    "duration": 0.4122860000000017
                },
                {
                    "name": "B3",
                    "midi": 59,
                    "time": 55.452466999999906,
                    "velocity": 0.4566929133858268,
                    "duration": 0.2061429999999973
                },
                {
                    "name": "G#3",
                    "midi": 56,
                    "time": 55.452466999999906,
                    "velocity": 0.3779527559055118,
                    "duration": 0.2061429999999973
                },
                {
                    "name": "F#3",
                    "midi": 54,
                    "time": 55.6586099999999,
                    "velocity": 0.5748031496062992,
                    "duration": 1.236857999999998
                },
                {
                    "name": "E4",
                    "midi": 64,
                    "time": 56.070895999999905,
                    "velocity": 0.3779527559055118,
                    "duration": 0.2061429999999973
                },
                {
                    "name": "G#4",
                    "midi": 68,
                    "time": 56.070895999999905,
                    "velocity": 0.4566929133858268,
                    "duration": 0.2061429999999973
                },
                {
                    "name": "F#4",
                    "midi": 66,
                    "time": 56.2770389999999,
                    "velocity": 0.4566929133858268,
                    "duration": 0.4122860000000017
                },
                {
                    "name": "D#4",
                    "midi": 63,
                    "time": 56.2770389999999,
                    "velocity": 0.3779527559055118,
                    "duration": 0.4122860000000017
                },
                {
                    "name": "D#4",
                    "midi": 63,
                    "time": 56.689324999999904,
                    "velocity": 0.4566929133858268,
                    "duration": 0.2061429999999973
                },
                {
                    "name": "B3",
                    "midi": 59,
                    "time": 56.689324999999904,
                    "velocity": 0.3779527559055118,
                    "duration": 0.2061429999999973
                },
                {
                    "name": "F#2",
                    "midi": 42,
                    "time": 56.8954679999999,
                    "velocity": 0.3464566929133858,
                    "duration": 1.236857999999998
                },
                {
                    "name": "G3",
                    "midi": 55,
                    "time": 57.3077539999999,
                    "velocity": 0.2440944881889764,
                    "duration": 0.2061429999999973
                },
                {
                    "name": "F#3",
                    "midi": 54,
                    "time": 57.5138969999999,
                    "velocity": 0.2440944881889764,
                    "duration": 0.4122860000000017
                },
                {
                    "name": "D3",
                    "midi": 50,
                    "time": 57.9261829999999,
                    "velocity": 0.2440944881889764,
                    "duration": 0.2061429999999973
                },
                {
                    "name": "F#2",
                    "midi": 42,
                    "time": 58.1323259999999,
                    "velocity": 0.28346456692913385,
                    "duration": 1.236857999999998
                },
                {
                    "name": "E3",
                    "midi": 52,
                    "time": 58.5446119999999,
                    "velocity": 0.2440944881889764,
                    "duration": 0.2061429999999973
                },
                {
                    "name": "D3",
                    "midi": 50,
                    "time": 58.7507549999999,
                    "velocity": 0.2125984251968504,
                    "duration": 0.4122860000000017
                },
                {
                    "name": "B2",
                    "midi": 47,
                    "time": 59.1630409999999,
                    "velocity": 0.2283464566929134,
                    "duration": 0.2061429999999973
                },
                {
                    "name": "F#2",
                    "midi": 42,
                    "time": 59.3691839999999,
                    "velocity": 0.25984251968503935,
                    "duration": 0.10307149999999865
                },
                {
                    "name": "B1",
                    "midi": 35,
                    "time": 59.575326999999895,
                    "velocity": 0.2125984251968504,
                    "duration": 0.10307149999999865
                },
                {
                    "name": "F#2",
                    "midi": 42,
                    "time": 59.78146999999989,
                    "velocity": 0.25196850393700787,
                    "duration": 0.10307149999999865
                },
                {
                    "name": "B1",
                    "midi": 35,
                    "time": 59.98761299999989,
                    "velocity": 0.2047244094488189,
                    "duration": 0.10307149999999865
                },
                {
                    "name": "F#2",
                    "midi": 42,
                    "time": 60.19375599999989,
                    "velocity": 0.2440944881889764,
                    "duration": 0.10307149999999865
                },
                {
                    "name": "B1",
                    "midi": 35,
                    "time": 60.399898999999884,
                    "velocity": 0.2125984251968504,
                    "duration": 0.10307149999999865
                },
                {
                    "name": "F#2",
                    "midi": 42,
                    "time": 60.60604199999988,
                    "velocity": 0.2283464566929134,
                    "duration": 0.10307149999999865
                },
                {
                    "name": "B1",
                    "midi": 35,
                    "time": 60.81218499999988,
                    "velocity": 0.2047244094488189,
                    "duration": 0.10307149999999865
                },
                {
                    "name": "F#2",
                    "midi": 42,
                    "time": 61.018327999999876,
                    "velocity": 0.2440944881889764,
                    "duration": 0.10307149999999865
                },
                {
                    "name": "F#2",
                    "midi": 42,
                    "time": 61.84289999999987,
                    "velocity": 0.25196850393700787,
                    "duration": 0.10307149999999865
                },
                {
                    "name": "B1",
                    "midi": 35,
                    "time": 62.04904299999987,
                    "velocity": 0.1968503937007874,
                    "duration": 0.10307149999999865
                },
                {
                    "name": "F#2",
                    "midi": 42,
                    "time": 62.25518599999987,
                    "velocity": 0.2283464566929134,
                    "duration": 0.10307149999999865
                },
                {
                    "name": "F#2",
                    "midi": 42,
                    "time": 63.07975799999986,
                    "velocity": 0.25196850393700787,
                    "duration": 0.10307149999999865
                },
                {
                    "name": "B1",
                    "midi": 35,
                    "time": 63.28590099999986,
                    "velocity": 0.1889763779527559,
                    "duration": 0.10307149999999865
                },
                {
                    "name": "F#2",
                    "midi": 42,
                    "time": 63.49204399999986,
                    "velocity": 0.23622047244094488,
                    "duration": 0.10307149999999865
                },
                {
                    "name": "F#2",
                    "midi": 42,
                    "time": 64.31661599999985,
                    "velocity": 0.25984251968503935,
                    "duration": 0.10307149999999865
                },
                {
                    "name": "B1",
                    "midi": 35,
                    "time": 64.52275899999985,
                    "velocity": 0.2125984251968504,
                    "duration": 0.10307149999999865
                },
                {
                    "name": "F#2",
                    "midi": 42,
                    "time": 64.72890199999985,
                    "velocity": 0.25196850393700787,
                    "duration": 0.10307149999999865
                },
                {
                    "name": "F#2",
                    "midi": 42,
                    "time": 65.55347399999985,
                    "velocity": 0.25196850393700787,
                    "duration": 0.10307149999999865
                },
                {
                    "name": "B1",
                    "midi": 35,
                    "time": 65.75961699999985,
                    "velocity": 0.2204724409448819,
                    "duration": 0.10307149999999865
                },
                {
                    "name": "F#2",
                    "midi": 42,
                    "time": 65.96575999999985,
                    "velocity": 0.2677165354330709,
                    "duration": 0.10307149999999865
                },
                {
                    "name": "F#2",
                    "midi": 42,
                    "time": 66.79033199999985,
                    "velocity": 0.29133858267716534,
                    "duration": 0.10307149999999865
                },
                {
                    "name": "B1",
                    "midi": 35,
                    "time": 66.99647499999985,
                    "velocity": 0.23622047244094488,
                    "duration": 0.10307149999999865
                },
                {
                    "name": "F#2",
                    "midi": 42,
                    "time": 67.20261799999984,
                    "velocity": 0.30708661417322836,
                    "duration": 0.10307149999999865
                },
                {
                    "name": "B1",
                    "midi": 35,
                    "time": 68.02718999999985,
                    "velocity": 0.3543307086614173,
                    "duration": 0.10307149999999865
                },
                {
                    "name": "F#2",
                    "midi": 42,
                    "time": 68.23333299999985,
                    "velocity": 0.2755905511811024,
                    "duration": 0.10307149999999865
                },
                {
                    "name": "B1",
                    "midi": 35,
                    "time": 68.43947599999984,
                    "velocity": 0.3543307086614173,
                    "duration": 0.10307149999999865
                },
                {
                    "name": "F#2",
                    "midi": 42,
                    "time": 68.64561899999984,
                    "velocity": 0.3228346456692913,
                    "duration": 0.10307149999999865
                },
                {
                    "name": "B1",
                    "midi": 35,
                    "time": 69.26404799999983,
                    "velocity": 0.4015748031496063,
                    "duration": 0.10307149999999865
                },
                {
                    "name": "F#2",
                    "midi": 42,
                    "time": 69.47019099999983,
                    "velocity": 0.30708661417322836,
                    "duration": 0.10307149999999865
                },
                {
                    "name": "B1",
                    "midi": 35,
                    "time": 69.67633399999983,
                    "velocity": 0.4015748031496063,
                    "duration": 0.10307149999999865
                },
                {
                    "name": "F#2",
                    "midi": 42,
                    "time": 69.88247699999982,
                    "velocity": 0.36220472440944884,
                    "duration": 0.10307149999999865
                },
                {
                    "name": "B1",
                    "midi": 35,
                    "time": 70.50090599999982,
                    "velocity": 0.5039370078740157,
                    "duration": 0.10307149999999865
                },
                {
                    "name": "F#2",
                    "midi": 42,
                    "time": 70.70704899999981,
                    "velocity": 0.41732283464566927,
                    "duration": 0.10307149999999865
                },
                {
                    "name": "B1",
                    "midi": 35,
                    "time": 70.91319199999981,
                    "velocity": 0.4566929133858268,
                    "duration": 0.10307149999999865
                },
                {
                    "name": "F#2",
                    "midi": 42,
                    "time": 71.11933499999981,
                    "velocity": 0.41732283464566927,
                    "duration": 0.10307149999999865
                },
                {
                    "name": "B1",
                    "midi": 35,
                    "time": 71.7377639999998,
                    "velocity": 0.4015748031496063,
                    "duration": 0.10307149999999865
                },
                {
                    "name": "B2",
                    "midi": 47,
                    "time": 71.7377639999998,
                    "velocity": 0.48031496062992124,
                    "duration": 0.10307149999999865
                },
                {
                    "name": "F#3",
                    "midi": 54,
                    "time": 71.9439069999998,
                    "velocity": 0.41732283464566927,
                    "duration": 0.10307149999999865
                },
                {
                    "name": "F#2",
                    "midi": 42,
                    "time": 71.9439069999998,
                    "velocity": 0.3543307086614173,
                    "duration": 0.10307149999999865
                },
                {
                    "name": "B2",
                    "midi": 47,
                    "time": 72.1500499999998,
                    "velocity": 0.47244094488188976,
                    "duration": 0.10307149999999865
                },
                {
                    "name": "B1",
                    "midi": 35,
                    "time": 72.1500499999998,
                    "velocity": 0.4015748031496063,
                    "duration": 0.10307149999999865
                },
                {
                    "name": "F#3",
                    "midi": 54,
                    "time": 72.35619299999979,
                    "velocity": 0.41732283464566927,
                    "duration": 0.10307149999999865
                },
                {
                    "name": "F#2",
                    "midi": 42,
                    "time": 72.35619299999979,
                    "velocity": 0.3543307086614173,
                    "duration": 0.10307149999999865
                },
                {
                    "name": "B1",
                    "midi": 35,
                    "time": 72.56233599999979,
                    "velocity": 0.4094488188976378,
                    "duration": 0.10307149999999865
                },
                {
                    "name": "B2",
                    "midi": 47,
                    "time": 72.56233599999979,
                    "velocity": 0.4881889763779528,
                    "duration": 0.10307149999999865
                },
                {
                    "name": "F#2",
                    "midi": 42,
                    "time": 72.76847899999979,
                    "velocity": 0.3543307086614173,
                    "duration": 0.10307149999999865
                },
                {
                    "name": "F#3",
                    "midi": 54,
                    "time": 72.76847899999979,
                    "velocity": 0.41732283464566927,
                    "duration": 0.10307149999999865
                },
                {
                    "name": "B2",
                    "midi": 47,
                    "time": 72.97462199999978,
                    "velocity": 0.4881889763779528,
                    "duration": 0.10307149999999865
                },
                {
                    "name": "B1",
                    "midi": 35,
                    "time": 72.97462199999978,
                    "velocity": 0.4094488188976378,
                    "duration": 0.10307149999999865
                },
                {
                    "name": "B3",
                    "midi": 59,
                    "time": 73.38690799999978,
                    "velocity": 0.4251968503937008,
                    "duration": 0.10307149999999865
                },
                {
                    "name": "F#3",
                    "midi": 54,
                    "time": 73.59305099999978,
                    "velocity": 0.4566929133858268,
                    "duration": 0.10307149999999865
                },
                {
                    "name": "D#3",
                    "midi": 51,
                    "time": 74.00533699999977,
                    "velocity": 0.4251968503937008,
                    "duration": 0.10307149999999865
                },
                {
                    "name": "B3",
                    "midi": 59,
                    "time": 74.21147999999977,
                    "velocity": 0.47244094488188976,
                    "duration": 0.10307149999999865
                },
                {
                    "name": "B2",
                    "midi": 47,
                    "time": 74.21147999999977,
                    "velocity": 0.4015748031496063,
                    "duration": 0.10307149999999865
                },
                {
                    "name": "G3",
                    "midi": 55,
                    "time": 74.62376599999976,
                    "velocity": 0.4251968503937008,
                    "duration": 0.10307149999999865
                },
                {
                    "name": "G2",
                    "midi": 43,
                    "time": 74.62376599999976,
                    "velocity": 0.3543307086614173,
                    "duration": 0.10307149999999865
                },
                {
                    "name": "F#3",
                    "midi": 54,
                    "time": 74.82990899999976,
                    "velocity": 0.41732283464566927,
                    "duration": 0.10307149999999865
                },
                {
                    "name": "F#2",
                    "midi": 42,
                    "time": 74.82990899999976,
                    "velocity": 0.3543307086614173,
                    "duration": 0.10307149999999865
                },
                {
                    "name": "B2",
                    "midi": 47,
                    "time": 75.03605199999976,
                    "velocity": 0.4881889763779528,
                    "duration": 0.10307149999999865
                },
                {
                    "name": "B1",
                    "midi": 35,
                    "time": 75.03605199999976,
                    "velocity": 0.4094488188976378,
                    "duration": 0.10307149999999865
                },
                {
                    "name": "F#2",
                    "midi": 42,
                    "time": 75.24219499999975,
                    "velocity": 0.3543307086614173,
                    "duration": 0.10307149999999865
                },
                {
                    "name": "F#3",
                    "midi": 54,
                    "time": 75.24219499999975,
                    "velocity": 0.41732283464566927,
                    "duration": 0.10307149999999865
                },
                {
                    "name": "B2",
                    "midi": 47,
                    "time": 75.44833799999975,
                    "velocity": 0.4881889763779528,
                    "duration": 0.10307149999999865
                },
                {
                    "name": "B1",
                    "midi": 35,
                    "time": 75.44833799999975,
                    "velocity": 0.4094488188976378,
                    "duration": 0.10307149999999865
                },
                {
                    "name": "B3",
                    "midi": 59,
                    "time": 75.86062399999975,
                    "velocity": 0.4251968503937008,
                    "duration": 0.10307149999999865
                },
                {
                    "name": "F#3",
                    "midi": 54,
                    "time": 76.06676699999974,
                    "velocity": 0.4566929133858268,
                    "duration": 0.10307149999999865
                },
                {
                    "name": "D#3",
                    "midi": 51,
                    "time": 76.47905299999974,
                    "velocity": 0.4251968503937008,
                    "duration": 0.10307149999999865
                },
                {
                    "name": "B2",
                    "midi": 47,
                    "time": 76.68519599999973,
                    "velocity": 0.4015748031496063,
                    "duration": 0.10307149999999865
                },
                {
                    "name": "B3",
                    "midi": 59,
                    "time": 76.68519599999973,
                    "velocity": 0.47244094488188976,
                    "duration": 0.10307149999999865
                },
                {
                    "name": "G2",
                    "midi": 43,
                    "time": 77.09748199999973,
                    "velocity": 0.3543307086614173,
                    "duration": 0.10307149999999865
                },
                {
                    "name": "G3",
                    "midi": 55,
                    "time": 77.09748199999973,
                    "velocity": 0.4251968503937008,
                    "duration": 0.10307149999999865
                },
                {
                    "name": "F#3",
                    "midi": 54,
                    "time": 77.30362499999973,
                    "velocity": 0.41732283464566927,
                    "duration": 0.10307149999999865
                },
                {
                    "name": "F#2",
                    "midi": 42,
                    "time": 77.30362499999973,
                    "velocity": 0.3543307086614173,
                    "duration": 0.10307149999999865
                },
                {
                    "name": "B2",
                    "midi": 47,
                    "time": 77.50976799999972,
                    "velocity": 0.4881889763779528,
                    "duration": 0.10307149999999865
                },
                {
                    "name": "B1",
                    "midi": 35,
                    "time": 77.50976799999972,
                    "velocity": 0.4094488188976378,
                    "duration": 0.10307149999999865
                },
                {
                    "name": "F#2",
                    "midi": 42,
                    "time": 77.71591099999972,
                    "velocity": 0.3543307086614173,
                    "duration": 0.10307149999999865
                },
                {
                    "name": "F#3",
                    "midi": 54,
                    "time": 77.71591099999972,
                    "velocity": 0.41732283464566927,
                    "duration": 0.10307149999999865
                },
                {
                    "name": "B2",
                    "midi": 47,
                    "time": 77.92205399999972,
                    "velocity": 0.4881889763779528,
                    "duration": 0.10307149999999865
                },
                {
                    "name": "B1",
                    "midi": 35,
                    "time": 77.92205399999972,
                    "velocity": 0.4094488188976378,
                    "duration": 0.10307149999999865
                },
                {
                    "name": "B3",
                    "midi": 59,
                    "time": 78.33433999999971,
                    "velocity": 0.4251968503937008,
                    "duration": 0.10307149999999865
                },
                {
                    "name": "G3",
                    "midi": 55,
                    "time": 78.54048299999971,
                    "velocity": 0.4566929133858268,
                    "duration": 0.10307149999999865
                },
                {
                    "name": "E3",
                    "midi": 52,
                    "time": 78.9527689999997,
                    "velocity": 0.36220472440944884,
                    "duration": 0.10307149999999865
                },
                {
                    "name": "C3",
                    "midi": 48,
                    "time": 79.1589119999997,
                    "velocity": 0.33858267716535434,
                    "duration": 0.10307149999999865
                },
                {
                    "name": "C4",
                    "midi": 60,
                    "time": 79.1589119999997,
                    "velocity": 0.4094488188976378,
                    "duration": 0.10307149999999865
                },
                {
                    "name": "A2",
                    "midi": 45,
                    "time": 79.5711979999997,
                    "velocity": 0.25196850393700787,
                    "duration": 0.10307149999999865
                },
                {
                    "name": "A3",
                    "midi": 57,
                    "time": 79.5711979999997,
                    "velocity": 0.30708661417322836,
                    "duration": 0.10307149999999865
                },
                {
                    "name": "F#3",
                    "midi": 54,
                    "time": 79.7773409999997,
                    "velocity": 0.3464566929133858,
                    "duration": 0.10307149999999865
                },
                {
                    "name": "F#2",
                    "midi": 42,
                    "time": 79.7773409999997,
                    "velocity": 0.29133858267716534,
                    "duration": 0.10307149999999865
                },
                {
                    "name": "D#2",
                    "midi": 39,
                    "time": 80.18962699999969,
                    "velocity": 0.2047244094488189,
                    "duration": 0.10307149999999865
                },
                {
                    "name": "D#3",
                    "midi": 51,
                    "time": 80.18962699999969,
                    "velocity": 0.2440944881889764,
                    "duration": 0.10307149999999865
                },
                {
                    "name": "B2",
                    "midi": 47,
                    "time": 80.39576999999969,
                    "velocity": 0.2677165354330709,
                    "duration": 0.10307149999999865
                },
                {
                    "name": "B1",
                    "midi": 35,
                    "time": 80.39576999999969,
                    "velocity": 0.2283464566929134,
                    "duration": 0.10307149999999865
                },
                {
                    "name": "G1",
                    "midi": 31,
                    "time": 81.63262799999968,
                    "velocity": 0.18110236220472442,
                    "duration": 0.10307149999999865
                },
                {
                    "name": "G2",
                    "midi": 43,
                    "time": 81.63262799999968,
                    "velocity": 0.2125984251968504,
                    "duration": 0.10307149999999865
                },
                {
                    "name": "E1",
                    "midi": 28,
                    "time": 82.86948599999968,
                    "velocity": 0.18110236220472442,
                    "duration": 0.6184289999999919
                },
                {
                    "name": "E2",
                    "midi": 40,
                    "time": 82.86948599999968,
                    "velocity": 0.2125984251968504,
                    "duration": 0.2061429999999973
                },
                {
                    "name": "G#1",
                    "midi": 32,
                    "time": 83.48791499999967,
                    "velocity": 0.18110236220472442,
                    "duration": 0.6184290000000061
                },
                {
                    "name": "A1",
                    "midi": 33,
                    "time": 84.10634399999968,
                    "velocity": 0.2047244094488189,
                    "duration": 0.6184290000000061
                },
                {
                    "name": "C2",
                    "midi": 36,
                    "time": 84.72477299999969,
                    "velocity": 0.1732283464566929,
                    "duration": 0.6184290000000061
                },
                {
                    "name": "E2",
                    "midi": 40,
                    "time": 85.34320199999969,
                    "velocity": 0.2047244094488189,
                    "duration": 0.6184290000000061
                },
                {
                    "name": "A#1",
                    "midi": 34,
                    "time": 85.9616309999997,
                    "velocity": 0.16535433070866143,
                    "duration": 0.6184290000000061
                },
                {
                    "name": "B1",
                    "midi": 35,
                    "time": 86.5800599999997,
                    "velocity": 0.2047244094488189,
                    "duration": 0.6184290000000061
                },
                {
                    "name": "B2",
                    "midi": 47,
                    "time": 87.19848899999971,
                    "velocity": 0.16535433070866143,
                    "duration": 0.6184290000000061
                },
                {
                    "name": "G2",
                    "midi": 43,
                    "time": 87.81691799999972,
                    "velocity": 0.2047244094488189,
                    "duration": 0.6184290000000061
                },
                {
                    "name": "E2",
                    "midi": 40,
                    "time": 88.43534699999972,
                    "velocity": 0.16535433070866143,
                    "duration": 0.6184290000000061
                },
                {
                    "name": "B1",
                    "midi": 35,
                    "time": 89.05377599999973,
                    "velocity": 0.2047244094488189,
                    "duration": 0.6184290000000061
                },
                {
                    "name": "B2",
                    "midi": 47,
                    "time": 89.67220499999974,
                    "velocity": 0.16535433070866143,
                    "duration": 0.6184290000000061
                },
                {
                    "name": "G2",
                    "midi": 43,
                    "time": 90.29063399999974,
                    "velocity": 0.2047244094488189,
                    "duration": 0.6184290000000061
                },
                {
                    "name": "E2",
                    "midi": 40,
                    "time": 90.90906299999975,
                    "velocity": 0.16535433070866143,
                    "duration": 0.6184290000000061
                },
                {
                    "name": "F#2",
                    "midi": 42,
                    "time": 91.52749199999975,
                    "velocity": 0.2047244094488189,
                    "duration": 0.6184290000000061
                },
                {
                    "name": "C#2",
                    "midi": 37,
                    "time": 92.14592099999976,
                    "velocity": 0.16535433070866143,
                    "duration": 0.6184290000000061
                },
                {
                    "name": "A#3",
                    "midi": 58,
                    "time": 92.76434999999977,
                    "velocity": 0.14173228346456693,
                    "duration": 0.2061429999999973
                },
                {
                    "name": "C#4",
                    "midi": 61,
                    "time": 92.76434999999977,
                    "velocity": 0.18110236220472442,
                    "duration": 0.2061429999999973
                },
                {
                    "name": "F#3",
                    "midi": 54,
                    "time": 92.76434999999977,
                    "velocity": 0.14173228346456693,
                    "duration": 0.2061429999999973
                },
                {
                    "name": "C#2",
                    "midi": 37,
                    "time": 93.38277899999976,
                    "velocity": 0.14960629921259844,
                    "duration": 0.6184290000000061
                },
                {
                    "name": "C#4",
                    "midi": 61,
                    "time": 94.00120799999976,
                    "velocity": 0.15748031496062992,
                    "duration": 0.2061429999999973
                },
                {
                    "name": "F#3",
                    "midi": 54,
                    "time": 94.00120799999976,
                    "velocity": 0.11811023622047244,
                    "duration": 0.2061429999999973
                },
                {
                    "name": "A#3",
                    "midi": 58,
                    "time": 94.00120799999976,
                    "velocity": 0.11811023622047244,
                    "duration": 0.2061429999999973
                },
                {
                    "name": "C#2",
                    "midi": 37,
                    "time": 94.61963699999976,
                    "velocity": 0.13385826771653545,
                    "duration": 1.8552870000000041
                },
                {
                    "name": "C#3",
                    "midi": 49,
                    "time": 96.68106699999976,
                    "velocity": 0.4409448818897638,
                    "duration": 0.10307149999999865
                },
                {
                    "name": "C#2",
                    "midi": 37,
                    "time": 96.68106699999976,
                    "velocity": 0.3700787401574803,
                    "duration": 0.10307149999999865
                },
                {
                    "name": "D#2",
                    "midi": 39,
                    "time": 96.88720999999975,
                    "velocity": 0.3779527559055118,
                    "duration": 0.10307149999999865
                },
                {
                    "name": "D#3",
                    "midi": 51,
                    "time": 96.88720999999975,
                    "velocity": 0.44881889763779526,
                    "duration": 0.10307149999999865
                },
                {
                    "name": "F2",
                    "midi": 41,
                    "time": 97.09335299999975,
                    "velocity": 0.3858267716535433,
                    "duration": 0.10307149999999865
                },
                {
                    "name": "F3",
                    "midi": 53,
                    "time": 97.09335299999975,
                    "velocity": 0.4566929133858268,
                    "duration": 0.10307149999999865
                },
                {
                    "name": "F#3",
                    "midi": 54,
                    "time": 97.29949599999975,
                    "velocity": 0.48031496062992124,
                    "duration": 0.10307149999999865
                },
                {
                    "name": "F#2",
                    "midi": 42,
                    "time": 97.29949599999975,
                    "velocity": 0.4015748031496063,
                    "duration": 0.10307149999999865
                },
                {
                    "name": "G#2",
                    "midi": 44,
                    "time": 97.50563899999975,
                    "velocity": 0.41732283464566927,
                    "duration": 0.10307149999999865
                },
                {
                    "name": "G#3",
                    "midi": 56,
                    "time": 97.50563899999975,
                    "velocity": 0.49606299212598426,
                    "duration": 0.10307149999999865
                },
                {
                    "name": "A#3",
                    "midi": 58,
                    "time": 97.71178199999974,
                    "velocity": 0.5118110236220472,
                    "duration": 0.10307149999999865
                },
                {
                    "name": "A#2",
                    "midi": 46,
                    "time": 97.71178199999974,
                    "velocity": 0.4330708661417323,
                    "duration": 0.10307149999999865
                },
                {
                    "name": "C#2",
                    "midi": 37,
                    "time": 98.12406799999974,
                    "velocity": 0.4094488188976378,
                    "duration": 0.10307149999999865
                },
                {
                    "name": "C#3",
                    "midi": 49,
                    "time": 98.12406799999974,
                    "velocity": 0.4881889763779528,
                    "duration": 0.10307149999999865
                },
                {
                    "name": "F#1",
                    "midi": 30,
                    "time": 98.33021099999974,
                    "velocity": 0.49606299212598426,
                    "duration": 0.10307149999999865
                },
                {
                    "name": "F#2",
                    "midi": 42,
                    "time": 98.33021099999974,
                    "velocity": 0.5905511811023622,
                    "duration": 0.10307149999999865
                },
                {
                    "name": "B2",
                    "midi": 47,
                    "time": 98.94863999999973,
                    "velocity": 0.5511811023622047,
                    "duration": 0.2061429999999973
                },
                {
                    "name": "B1",
                    "midi": 35,
                    "time": 98.94863999999973,
                    "velocity": 0.4566929133858268,
                    "duration": 0.2061429999999973
                },
                {
                    "name": "B3",
                    "midi": 59,
                    "time": 99.56706899999972,
                    "velocity": 0.4251968503937008,
                    "duration": 2.0442514166666825
                },
                {
                    "name": "A4",
                    "midi": 69,
                    "time": 99.56706899999972,
                    "velocity": 0.4251968503937008,
                    "duration": 0.6184290000000061
                },
                {
                    "name": "C#5",
                    "midi": 73,
                    "time": 99.56706899999972,
                    "velocity": 0.5039370078740157,
                    "duration": 0.6184290000000061
                },
                {
                    "name": "G#4",
                    "midi": 68,
                    "time": 100.18549799999973,
                    "velocity": 0.4251968503937008,
                    "duration": 0.6184290000000061
                },
                {
                    "name": "B4",
                    "midi": 71,
                    "time": 100.18549799999973,
                    "velocity": 0.5039370078740157,
                    "duration": 0.6184290000000061
                },
                {
                    "name": "E4",
                    "midi": 64,
                    "time": 100.80392699999973,
                    "velocity": 0.4251968503937008,
                    "duration": 0.6184290000000061
                },
                {
                    "name": "G#4",
                    "midi": 68,
                    "time": 100.80392699999973,
                    "velocity": 0.5039370078740157,
                    "duration": 0.6184290000000061
                },
                {
                    "name": "F#4",
                    "midi": 66,
                    "time": 101.42235599999974,
                    "velocity": 0.4015748031496063,
                    "duration": 0.10307149999999865
                },
                {
                    "name": "A4",
                    "midi": 69,
                    "time": 101.42235599999974,
                    "velocity": 0.48031496062992124,
                    "duration": 0.10307149999999865
                },
                {
                    "name": "D#4",
                    "midi": 63,
                    "time": 101.62849899999974,
                    "velocity": 0.3779527559055118,
                    "duration": 0.10307149999999865
                },
                {
                    "name": "F#4",
                    "midi": 66,
                    "time": 101.62849899999974,
                    "velocity": 0.44881889763779526,
                    "duration": 0.10307149999999865
                },
                {
                    "name": "E4",
                    "midi": 64,
                    "time": 101.83464199999973,
                    "velocity": 0.4015748031496063,
                    "duration": 0.10307149999999865
                },
                {
                    "name": "G#4",
                    "midi": 68,
                    "time": 101.83464199999973,
                    "velocity": 0.48031496062992124,
                    "duration": 0.10307149999999865
                },
                {
                    "name": "C#4",
                    "midi": 61,
                    "time": 102.04078499999973,
                    "velocity": 0.36220472440944884,
                    "duration": 0.10307149999999865
                },
                {
                    "name": "E4",
                    "midi": 64,
                    "time": 102.04078499999973,
                    "velocity": 0.4330708661417323,
                    "duration": 0.10307149999999865
                },
                {
                    "name": "F#4",
                    "midi": 66,
                    "time": 102.24692799999973,
                    "velocity": 0.48031496062992124,
                    "duration": 0.10307149999999865
                },
                {
                    "name": "D#4",
                    "midi": 63,
                    "time": 102.24692799999973,
                    "velocity": 0.4015748031496063,
                    "duration": 0.10307149999999865
                },
                {
                    "name": "D#4",
                    "midi": 63,
                    "time": 102.45307099999972,
                    "velocity": 0.44881889763779526,
                    "duration": 0.10307149999999865
                },
                {
                    "name": "B3",
                    "midi": 59,
                    "time": 102.45307099999972,
                    "velocity": 0.3779527559055118,
                    "duration": 0.10307149999999865
                },
                {
                    "name": "C#4",
                    "midi": 61,
                    "time": 102.65921399999972,
                    "velocity": 0.4015748031496063,
                    "duration": 0.10307149999999865
                },
                {
                    "name": "E4",
                    "midi": 64,
                    "time": 102.65921399999972,
                    "velocity": 0.48031496062992124,
                    "duration": 0.10307149999999865
                },
                {
                    "name": "E4",
                    "midi": 64,
                    "time": 103.07149999999972,
                    "velocity": 0.4566929133858268,
                    "duration": 0.10307149999999865
                },
                {
                    "name": "C#4",
                    "midi": 61,
                    "time": 103.07149999999972,
                    "velocity": 0.3779527559055118,
                    "duration": 0.10307149999999865
                },
                {
                    "name": "C#4",
                    "midi": 61,
                    "time": 103.27764299999971,
                    "velocity": 0.5826771653543307,
                    "duration": 0.6184290000000061
                },
                {
                    "name": "A3",
                    "midi": 57,
                    "time": 103.27764299999971,
                    "velocity": 0.47244094488188976,
                    "duration": 0.6184290000000061
                },
                {
                    "name": "G#2",
                    "midi": 44,
                    "time": 103.89607199999972,
                    "velocity": 0.31496062992125984,
                    "duration": 0.4122859999999946
                },
                {
                    "name": "G#3",
                    "midi": 56,
                    "time": 103.89607199999972,
                    "velocity": 0.36220472440944884,
                    "duration": 0.4122859999999946
                },
                {
                    "name": "B3",
                    "midi": 59,
                    "time": 104.51450099999971,
                    "velocity": 0.2677165354330709,
                    "duration": 0.4122859999999946
                },
                {
                    "name": "G#3",
                    "midi": 56,
                    "time": 104.51450099999971,
                    "velocity": 0.2677165354330709,
                    "duration": 0.4122859999999946
                },
                {
                    "name": "E4",
                    "midi": 64,
                    "time": 104.51450099999971,
                    "velocity": 0.30708661417322836,
                    "duration": 0.4122859999999946
                },
                {
                    "name": "F#2",
                    "midi": 42,
                    "time": 105.1329299999997,
                    "velocity": 0.31496062992125984,
                    "duration": 0.4122859999999946
                },
                {
                    "name": "F#3",
                    "midi": 54,
                    "time": 105.1329299999997,
                    "velocity": 0.36220472440944884,
                    "duration": 0.4122859999999946
                },
                {
                    "name": "C#4",
                    "midi": 61,
                    "time": 105.7513589999997,
                    "velocity": 0.2677165354330709,
                    "duration": 0.4122859999999946
                },
                {
                    "name": "E4",
                    "midi": 64,
                    "time": 105.7513589999997,
                    "velocity": 0.30708661417322836,
                    "duration": 0.4122859999999946
                },
                {
                    "name": "F#3",
                    "midi": 54,
                    "time": 105.7513589999997,
                    "velocity": 0.2677165354330709,
                    "duration": 0.4122859999999946
                },
                {
                    "name": "A3",
                    "midi": 57,
                    "time": 105.7513589999997,
                    "velocity": 0.2677165354330709,
                    "duration": 0.4122859999999946
                },
                {
                    "name": "E3",
                    "midi": 52,
                    "time": 106.36978799999969,
                    "velocity": 0.36220472440944884,
                    "duration": 0.4122859999999946
                },
                {
                    "name": "E2",
                    "midi": 40,
                    "time": 106.36978799999969,
                    "velocity": 0.31496062992125984,
                    "duration": 0.4122859999999946
                },
                {
                    "name": "E4",
                    "midi": 64,
                    "time": 106.98821699999968,
                    "velocity": 0.3464566929133858,
                    "duration": 0.4122859999999946
                },
                {
                    "name": "G#3",
                    "midi": 56,
                    "time": 106.98821699999968,
                    "velocity": 0.2992125984251969,
                    "duration": 0.4122859999999946
                },
                {
                    "name": "E3",
                    "midi": 52,
                    "time": 106.98821699999968,
                    "velocity": 0.2992125984251969,
                    "duration": 0.4122859999999946
                },
                {
                    "name": "C#4",
                    "midi": 61,
                    "time": 106.98821699999968,
                    "velocity": 0.2992125984251969,
                    "duration": 0.4122859999999946
                },
                {
                    "name": "B2",
                    "midi": 47,
                    "time": 107.60664599999967,
                    "velocity": 0.44881889763779526,
                    "duration": 0.4122859999999946
                },
                {
                    "name": "B1",
                    "midi": 35,
                    "time": 107.60664599999967,
                    "velocity": 0.3937007874015748,
                    "duration": 0.4122859999999946
                },
                {
                    "name": "A3",
                    "midi": 57,
                    "time": 108.22507499999966,
                    "velocity": 0.31496062992125984,
                    "duration": 0.4122859999999946
                },
                {
                    "name": "F#3",
                    "midi": 54,
                    "time": 108.22507499999966,
                    "velocity": 0.31496062992125984,
                    "duration": 0.4122859999999946
                },
                {
                    "name": "B3",
                    "midi": 59,
                    "time": 108.22507499999966,
                    "velocity": 0.31496062992125984,
                    "duration": 0.4122859999999946
                },
                {
                    "name": "D#4",
                    "midi": 63,
                    "time": 108.22507499999966,
                    "velocity": 0.36220472440944884,
                    "duration": 0.4122859999999946
                },
                {
                    "name": "E2",
                    "midi": 40,
                    "time": 108.84350399999965,
                    "velocity": 0.5748031496062992,
                    "duration": 0.2061429999999973
                },
                {
                    "name": "E1",
                    "midi": 28,
                    "time": 108.84350399999965,
                    "velocity": 0.48031496062992124,
                    "duration": 0.2061429999999973
                },
                {
                    "name": "E3",
                    "midi": 52,
                    "time": 109.46193299999965,
                    "velocity": 0.4566929133858268,
                    "duration": 1.8552869999999757
                },
                {
                    "name": "F4",
                    "midi": 65,
                    "time": 109.87421899999964,
                    "velocity": 0.4566929133858268,
                    "duration": 0.2061429999999973
                },
                {
                    "name": "E4",
                    "midi": 64,
                    "time": 110.08036199999964,
                    "velocity": 0.4881889763779528,
                    "duration": 0.4122859999999946
                },
                {
                    "name": "C4",
                    "midi": 60,
                    "time": 110.49264799999963,
                    "velocity": 0.4566929133858268,
                    "duration": 0.2061429999999973
                },
                {
                    "name": "D4",
                    "midi": 62,
                    "time": 110.69879099999963,
                    "velocity": 0.49606299212598426,
                    "duration": 0.4122859999999946
                },
                {
                    "name": "B3",
                    "midi": 59,
                    "time": 111.11107699999963,
                    "velocity": 0.4566929133858268,
                    "duration": 0.2061429999999973
                },
                {
                    "name": "C#4",
                    "midi": 61,
                    "time": 111.31721999999962,
                    "velocity": 0.5275590551181102,
                    "duration": 0.2061429999999973
                },
                {
                    "name": "E3",
                    "midi": 52,
                    "time": 111.31721999999962,
                    "velocity": 0.5275590551181102,
                    "duration": 0.2061429999999973
                },
                {
                    "name": "E2",
                    "midi": 40,
                    "time": 111.93564899999961,
                    "velocity": 0.5748031496062992,
                    "duration": 0.2061429999999973
                },
                {
                    "name": "E1",
                    "midi": 28,
                    "time": 111.93564899999961,
                    "velocity": 0.48031496062992124,
                    "duration": 0.2061429999999973
                },
                {
                    "name": "G4",
                    "midi": 67,
                    "time": 112.34793499999961,
                    "velocity": 0.4566929133858268,
                    "duration": 0.2061429999999973
                },
                {
                    "name": "E3",
                    "midi": 52,
                    "time": 112.5540779999996,
                    "velocity": 0.4566929133858268,
                    "duration": 1.2368579999999838
                },
                {
                    "name": "F#4",
                    "midi": 66,
                    "time": 112.5540779999996,
                    "velocity": 0.4881889763779528,
                    "duration": 0.4122859999999946
                },
                {
                    "name": "D#4",
                    "midi": 63,
                    "time": 112.9663639999996,
                    "velocity": 0.4566929133858268,
                    "duration": 0.2061429999999973
                },
                {
                    "name": "E4",
                    "midi": 64,
                    "time": 113.1725069999996,
                    "velocity": 0.49606299212598426,
                    "duration": 0.4122859999999946
                },
                {
                    "name": "C#4",
                    "midi": 61,
                    "time": 113.58479299999959,
                    "velocity": 0.4566929133858268,
                    "duration": 0.2061429999999973
                },
                {
                    "name": "E3",
                    "midi": 52,
                    "time": 113.79093599999959,
                    "velocity": 0.5275590551181102,
                    "duration": 0.2061429999999973
                },
                {
                    "name": "D#4",
                    "midi": 63,
                    "time": 113.79093599999959,
                    "velocity": 0.5275590551181102,
                    "duration": 0.2061429999999973
                },
                {
                    "name": "E2",
                    "midi": 40,
                    "time": 114.40936499999958,
                    "velocity": 0.5748031496062992,
                    "duration": 0.2061429999999973
                },
                {
                    "name": "E1",
                    "midi": 28,
                    "time": 114.40936499999958,
                    "velocity": 0.48031496062992124,
                    "duration": 0.2061429999999973
                },
                {
                    "name": "C4",
                    "midi": 60,
                    "time": 114.82165099999958,
                    "velocity": 0.3858267716535433,
                    "duration": 0.2061429999999973
                },
                {
                    "name": "C5",
                    "midi": 72,
                    "time": 114.82165099999958,
                    "velocity": 0.4566929133858268,
                    "duration": 0.2061429999999973
                },
                {
                    "name": "B4",
                    "midi": 71,
                    "time": 115.02779399999957,
                    "velocity": 0.4881889763779528,
                    "duration": 0.4122859999999946
                },
                {
                    "name": "B3",
                    "midi": 59,
                    "time": 115.02779399999957,
                    "velocity": 0.4094488188976378,
                    "duration": 0.4122859999999946
                },
                {
                    "name": "G3",
                    "midi": 55,
                    "time": 115.44007999999957,
                    "velocity": 0.3858267716535433,
                    "duration": 0.10307149999999865
                },
                {
                    "name": "G4",
                    "midi": 67,
                    "time": 115.44007999999957,
                    "velocity": 0.4566929133858268,
                    "duration": 0.10307149999999865
                },
                {
                    "name": "A3",
                    "midi": 57,
                    "time": 115.64622299999957,
                    "velocity": 0.30708661417322836,
                    "duration": 0.10307149999999865
                },
                {
                    "name": "A4",
                    "midi": 69,
                    "time": 115.64622299999957,
                    "velocity": 0.3700787401574803,
                    "duration": 0.10307149999999865
                },
                {
                    "name": "F#4",
                    "midi": 66,
                    "time": 115.85236599999956,
                    "velocity": 0.41732283464566927,
                    "duration": 0.10307149999999865
                },
                {
                    "name": "F#3",
                    "midi": 54,
                    "time": 115.85236599999956,
                    "velocity": 0.3543307086614173,
                    "duration": 0.10307149999999865
                },
                {
                    "name": "G3",
                    "midi": 55,
                    "time": 116.05850899999956,
                    "velocity": 0.31496062992125984,
                    "duration": 0.10307149999999865
                },
                {
                    "name": "G4",
                    "midi": 67,
                    "time": 116.05850899999956,
                    "velocity": 0.3779527559055118,
                    "duration": 0.10307149999999865
                },
                {
                    "name": "E3",
                    "midi": 52,
                    "time": 116.26465199999956,
                    "velocity": 0.5275590551181102,
                    "duration": 0.10307149999999865
                },
                {
                    "name": "E4",
                    "midi": 64,
                    "time": 116.26465199999956,
                    "velocity": 0.5275590551181102,
                    "duration": 0.10307149999999865
                },
                {
                    "name": "F#4",
                    "midi": 66,
                    "time": 116.47079499999955,
                    "velocity": 0.3779527559055118,
                    "duration": 0.10307149999999865
                },
                {
                    "name": "F#3",
                    "midi": 54,
                    "time": 116.47079499999955,
                    "velocity": 0.31496062992125984,
                    "duration": 0.10307149999999865
                },
                {
                    "name": "D3",
                    "midi": 50,
                    "time": 116.67693799999955,
                    "velocity": 0.3858267716535433,
                    "duration": 0.10307149999999865
                },
                {
                    "name": "D4",
                    "midi": 62,
                    "time": 116.67693799999955,
                    "velocity": 0.4566929133858268,
                    "duration": 0.10307149999999865
                },
                {
                    "name": "E4",
                    "midi": 64,
                    "time": 116.88308099999955,
                    "velocity": 0.3700787401574803,
                    "duration": 0.10307149999999865
                },
                {
                    "name": "E3",
                    "midi": 52,
                    "time": 116.88308099999955,
                    "velocity": 0.30708661417322836,
                    "duration": 0.10307149999999865
                },
                {
                    "name": "C3",
                    "midi": 48,
                    "time": 117.08922399999955,
                    "velocity": 0.3543307086614173,
                    "duration": 0.10307149999999865
                },
                {
                    "name": "C4",
                    "midi": 60,
                    "time": 117.08922399999955,
                    "velocity": 0.41732283464566927,
                    "duration": 0.10307149999999865
                },
                {
                    "name": "D3",
                    "midi": 50,
                    "time": 117.29536699999954,
                    "velocity": 0.31496062992125984,
                    "duration": 0.10307149999999865
                },
                {
                    "name": "D4",
                    "midi": 62,
                    "time": 117.29536699999954,
                    "velocity": 0.3779527559055118,
                    "duration": 0.10307149999999865
                },
                {
                    "name": "B2",
                    "midi": 47,
                    "time": 117.50150999999954,
                    "velocity": 0.5275590551181102,
                    "duration": 0.10307149999999865
                },
                {
                    "name": "B3",
                    "midi": 59,
                    "time": 117.50150999999954,
                    "velocity": 0.5275590551181102,
                    "duration": 0.10307149999999865
                },
                {
                    "name": "C3",
                    "midi": 48,
                    "time": 117.70765299999954,
                    "velocity": 0.31496062992125984,
                    "duration": 0.10307149999999865
                },
                {
                    "name": "C4",
                    "midi": 60,
                    "time": 117.70765299999954,
                    "velocity": 0.3779527559055118,
                    "duration": 0.10307149999999865
                },
                {
                    "name": "A2",
                    "midi": 45,
                    "time": 117.91379599999954,
                    "velocity": 0.4015748031496063,
                    "duration": 0.10307149999999865
                },
                {
                    "name": "A3",
                    "midi": 57,
                    "time": 117.91379599999954,
                    "velocity": 0.47244094488188976,
                    "duration": 0.10307149999999865
                },
                {
                    "name": "B2",
                    "midi": 47,
                    "time": 118.11993899999953,
                    "velocity": 0.33070866141732286,
                    "duration": 0.10307149999999865
                },
                {
                    "name": "B3",
                    "midi": 59,
                    "time": 118.11993899999953,
                    "velocity": 0.3937007874015748,
                    "duration": 0.10307149999999865
                },
                {
                    "name": "G2",
                    "midi": 43,
                    "time": 118.32608199999953,
                    "velocity": 0.3858267716535433,
                    "duration": 0.10307149999999865
                },
                {
                    "name": "G3",
                    "midi": 55,
                    "time": 118.32608199999953,
                    "velocity": 0.4566929133858268,
                    "duration": 0.10307149999999865
                },
                {
                    "name": "A3",
                    "midi": 57,
                    "time": 118.53222499999953,
                    "velocity": 0.4251968503937008,
                    "duration": 0.10307149999999865
                },
                {
                    "name": "A2",
                    "midi": 45,
                    "time": 118.53222499999953,
                    "velocity": 0.3543307086614173,
                    "duration": 0.10307149999999865
                },
                {
                    "name": "B1",
                    "midi": 35,
                    "time": 118.63529649999953,
                    "velocity": 0.4881889763779528,
                    "duration": 0.051535749999999325
                },
                {
                    "name": "B2",
                    "midi": 47,
                    "time": 118.68683224999953,
                    "velocity": 0.49606299212598426,
                    "duration": 0.051535749999999325
                },
                {
                    "name": "B4",
                    "midi": 71,
                    "time": 118.73836799999953,
                    "velocity": 0.5511811023622047,
                    "duration": 0.3916717000000034
                },
                {
                    "name": "E4",
                    "midi": 64,
                    "time": 118.73836799999953,
                    "velocity": 0.4645669291338583,
                    "duration": 0.3916717000000034
                },
                {
                    "name": "B3",
                    "midi": 59,
                    "time": 118.73836799999953,
                    "velocity": 0.4645669291338583,
                    "duration": 0.3916717000000034
                },
                {
                    "name": "G#4",
                    "midi": 68,
                    "time": 118.73836799999953,
                    "velocity": 0.5511811023622047,
                    "duration": 0.3916717000000034
                },
                {
                    "name": "E4",
                    "midi": 64,
                    "time": 119.15065399999953,
                    "velocity": 0.4645669291338583,
                    "duration": 0.3916717000000034
                },
                {
                    "name": "B3",
                    "midi": 59,
                    "time": 119.15065399999953,
                    "velocity": 0.4645669291338583,
                    "duration": 0.3916717000000034
                },
                {
                    "name": "B4",
                    "midi": 71,
                    "time": 119.15065399999953,
                    "velocity": 0.5511811023622047,
                    "duration": 0.3916717000000034
                },
                {
                    "name": "G4",
                    "midi": 67,
                    "time": 119.15065399999953,
                    "velocity": 0.4645669291338583,
                    "duration": 0.3916717000000034
                },
                {
                    "name": "B4",
                    "midi": 71,
                    "time": 119.56293999999954,
                    "velocity": 0.5511811023622047,
                    "duration": 0.3916717000000034
                },
                {
                    "name": "F#4",
                    "midi": 66,
                    "time": 119.56293999999954,
                    "velocity": 0.4645669291338583,
                    "duration": 0.3916717000000034
                },
                {
                    "name": "B3",
                    "midi": 59,
                    "time": 119.56293999999954,
                    "velocity": 0.4645669291338583,
                    "duration": 0.3916717000000034
                },
                {
                    "name": "D#4",
                    "midi": 63,
                    "time": 119.56293999999954,
                    "velocity": 0.4645669291338583,
                    "duration": 0.3916717000000034
                },
                {
                    "name": "D4",
                    "midi": 62,
                    "time": 119.97522599999955,
                    "velocity": 0.4645669291338583,
                    "duration": 0.3916717000000034
                },
                {
                    "name": "F4",
                    "midi": 65,
                    "time": 119.97522599999955,
                    "velocity": 0.5511811023622047,
                    "duration": 0.3916717000000034
                },
                {
                    "name": "B3",
                    "midi": 59,
                    "time": 119.97522599999955,
                    "velocity": 0.4645669291338583,
                    "duration": 0.3916717000000034
                },
                {
                    "name": "B4",
                    "midi": 71,
                    "time": 119.97522599999955,
                    "velocity": 0.5511811023622047,
                    "duration": 0.3916717000000034
                },
                {
                    "name": "C#4",
                    "midi": 61,
                    "time": 120.38751199999956,
                    "velocity": 0.4566929133858268,
                    "duration": 0.3916717000000034
                },
                {
                    "name": "E4",
                    "midi": 64,
                    "time": 120.38751199999956,
                    "velocity": 0.4566929133858268,
                    "duration": 0.3916717000000034
                },
                {
                    "name": "B3",
                    "midi": 59,
                    "time": 120.38751199999956,
                    "velocity": 0.4566929133858268,
                    "duration": 0.3916717000000034
                },
                {
                    "name": "B4",
                    "midi": 71,
                    "time": 120.38751199999956,
                    "velocity": 0.5433070866141733,
                    "duration": 0.3916717000000034
                },
                {
                    "name": "B3",
                    "midi": 59,
                    "time": 120.79979799999957,
                    "velocity": 0.44881889763779526,
                    "duration": 0.3916717000000034
                },
                {
                    "name": "D#4",
                    "midi": 63,
                    "time": 120.79979799999957,
                    "velocity": 0.44881889763779526,
                    "duration": 0.3916717000000034
                },
                {
                    "name": "C4",
                    "midi": 60,
                    "time": 120.79979799999957,
                    "velocity": 0.44881889763779526,
                    "duration": 0.3916717000000034
                },
                {
                    "name": "B4",
                    "midi": 71,
                    "time": 120.79979799999957,
                    "velocity": 0.5275590551181102,
                    "duration": 0.3916717000000034
                },
                {
                    "name": "D4",
                    "midi": 62,
                    "time": 121.21208399999958,
                    "velocity": 0.4409448818897638,
                    "duration": 0.3916717000000034
                },
                {
                    "name": "B4",
                    "midi": 71,
                    "time": 121.21208399999958,
                    "velocity": 0.5196850393700787,
                    "duration": 0.3916717000000034
                },
                {
                    "name": "B3",
                    "midi": 59,
                    "time": 121.21208399999958,
                    "velocity": 0.4409448818897638,
                    "duration": 0.3916717000000034
                },
                {
                    "name": "C#4",
                    "midi": 61,
                    "time": 121.62436999999959,
                    "velocity": 0.4330708661417323,
                    "duration": 0.3916717000000034
                },
                {
                    "name": "B4",
                    "midi": 71,
                    "time": 121.62436999999959,
                    "velocity": 0.5118110236220472,
                    "duration": 0.3916717000000034
                },
                {
                    "name": "A#3",
                    "midi": 58,
                    "time": 121.62436999999959,
                    "velocity": 0.4330708661417323,
                    "duration": 0.3916717000000034
                },
                {
                    "name": "B4",
                    "midi": 71,
                    "time": 122.0366559999996,
                    "velocity": 0.5039370078740157,
                    "duration": 0.3916717000000034
                },
                {
                    "name": "A3",
                    "midi": 57,
                    "time": 122.0366559999996,
                    "velocity": 0.4251968503937008,
                    "duration": 0.3916717000000034
                },
                {
                    "name": "C4",
                    "midi": 60,
                    "time": 122.0366559999996,
                    "velocity": 0.4251968503937008,
                    "duration": 0.3916717000000034
                },
                {
                    "name": "G#3",
                    "midi": 56,
                    "time": 122.4489419999996,
                    "velocity": 0.41732283464566927,
                    "duration": 0.3916717000000034
                },
                {
                    "name": "G#4",
                    "midi": 68,
                    "time": 122.4489419999996,
                    "velocity": 0.49606299212598426,
                    "duration": 0.3916717000000034
                },
                {
                    "name": "B3",
                    "midi": 59,
                    "time": 122.4489419999996,
                    "velocity": 0.41732283464566927,
                    "duration": 0.3916717000000034
                },
                {
                    "name": "G3",
                    "midi": 55,
                    "time": 122.86122799999961,
                    "velocity": 0.4094488188976378,
                    "duration": 0.3143680750000044
                },
                {
                    "name": "B3",
                    "midi": 59,
                    "time": 122.86122799999961,
                    "velocity": 0.4094488188976378,
                    "duration": 0.3143680750000044
                },
                {
                    "name": "G4",
                    "midi": 67,
                    "time": 122.86122799999961,
                    "velocity": 0.4881889763779528,
                    "duration": 0.3143680750000044
                },
                {
                    "name": "B2",
                    "midi": 47,
                    "time": 123.19621037499962,
                    "velocity": 0.4015748031496063,
                    "duration": 0.4689753250000024
                },
                {
                    "name": "F#3",
                    "midi": 54,
                    "time": 123.22197824999962,
                    "velocity": 0.4015748031496063,
                    "duration": 0.4432074500000027
                },
                {
                    "name": "A3",
                    "midi": 57,
                    "time": 123.24774612499962,
                    "velocity": 0.4015748031496063,
                    "duration": 0.41743957500000306
                },
                {
                    "name": "F#4",
                    "midi": 66,
                    "time": 123.27351399999962,
                    "velocity": 0.47244094488188976,
                    "duration": 0.3916717000000034
                },
                {
                    "name": "E3",
                    "midi": 52,
                    "time": 123.68579999999963,
                    "velocity": 0.5275590551181102,
                    "duration": 0.10307149999999865
                },
                {
                    "name": "E2",
                    "midi": 40,
                    "time": 123.68579999999963,
                    "velocity": 0.5275590551181102,
                    "duration": 0.10307149999999865
                },
                {
                    "name": "D3",
                    "midi": 50,
                    "time": 123.89194299999963,
                    "velocity": 0.3779527559055118,
                    "duration": 0.10307149999999865
                },
                {
                    "name": "B2",
                    "midi": 47,
                    "time": 123.89194299999963,
                    "velocity": 0.31496062992125984,
                    "duration": 0.10307149999999865
                },
                {
                    "name": "E3",
                    "midi": 52,
                    "time": 124.09808599999963,
                    "velocity": 0.4566929133858268,
                    "duration": 0.10307149999999865
                },
                {
                    "name": "E2",
                    "midi": 40,
                    "time": 124.09808599999963,
                    "velocity": 0.3858267716535433,
                    "duration": 0.10307149999999865
                },
                {
                    "name": "A2",
                    "midi": 45,
                    "time": 124.30422899999962,
                    "velocity": 0.30708661417322836,
                    "duration": 0.10307149999999865
                },
                {
                    "name": "C3",
                    "midi": 48,
                    "time": 124.30422899999962,
                    "velocity": 0.3700787401574803,
                    "duration": 0.10307149999999865
                },
                {
                    "name": "E3",
                    "midi": 52,
                    "time": 124.51037199999962,
                    "velocity": 0.41732283464566927,
                    "duration": 0.10307149999999865
                },
                {
                    "name": "E2",
                    "midi": 40,
                    "time": 124.51037199999962,
                    "velocity": 0.3543307086614173,
                    "duration": 0.10307149999999865
                },
                {
                    "name": "B2",
                    "midi": 47,
                    "time": 124.71651499999962,
                    "velocity": 0.3779527559055118,
                    "duration": 0.10307149999999865
                },
                {
                    "name": "G2",
                    "midi": 43,
                    "time": 124.71651499999962,
                    "velocity": 0.31496062992125984,
                    "duration": 0.10307149999999865
                },
                {
                    "name": "E3",
                    "midi": 52,
                    "time": 124.92265799999961,
                    "velocity": 0.5275590551181102,
                    "duration": 0.10307149999999865
                },
                {
                    "name": "E2",
                    "midi": 40,
                    "time": 124.92265799999961,
                    "velocity": 0.5275590551181102,
                    "duration": 0.10307149999999865
                },
                {
                    "name": "F#2",
                    "midi": 42,
                    "time": 125.12880099999961,
                    "velocity": 0.31496062992125984,
                    "duration": 0.10307149999999865
                },
                {
                    "name": "A2",
                    "midi": 45,
                    "time": 125.13481350416627,
                    "velocity": 0.3779527559055118,
                    "duration": 0.10307149999999865
                },
                {
                    "name": "E3",
                    "midi": 52,
                    "time": 125.33494399999961,
                    "velocity": 0.4566929133858268,
                    "duration": 0.10307149999999865
                },
                {
                    "name": "E2",
                    "midi": 40,
                    "time": 125.33494399999961,
                    "velocity": 0.3858267716535433,
                    "duration": 0.10307149999999865
                },
                {
                    "name": "G2",
                    "midi": 43,
                    "time": 125.5410869999996,
                    "velocity": 0.3700787401574803,
                    "duration": 0.10307149999999865
                },
                {
                    "name": "E3",
                    "midi": 52,
                    "time": 125.7472299999996,
                    "velocity": 0.41732283464566927,
                    "duration": 0.10307149999999865
                },
                {
                    "name": "F#2",
                    "midi": 42,
                    "time": 125.9533729999996,
                    "velocity": 0.3779527559055118,
                    "duration": 0.10307149999999865
                },
                {
                    "name": "D2",
                    "midi": 38,
                    "time": 125.9533729999996,
                    "velocity": 0.31496062992125984,
                    "duration": 0.10307149999999865
                },
                {
                    "name": "E3",
                    "midi": 52,
                    "time": 126.1595159999996,
                    "velocity": 0.5275590551181102,
                    "duration": 0.10307149999999865
                },
                {
                    "name": "C2",
                    "midi": 36,
                    "time": 126.3656589999996,
                    "velocity": 0.30708661417322836,
                    "duration": 0.10307149999999865
                },
                {
                    "name": "E2",
                    "midi": 40,
                    "time": 126.3656589999996,
                    "velocity": 0.3700787401574803,
                    "duration": 0.10307149999999865
                },
                {
                    "name": "E2",
                    "midi": 40,
                    "time": 126.5718019999996,
                    "velocity": 0.4409448818897638,
                    "duration": 0.10307149999999865
                },
                {
                    "name": "B1",
                    "midi": 35,
                    "time": 126.77794499999959,
                    "velocity": 0.29133858267716534,
                    "duration": 0.10307149999999865
                },
                {
                    "name": "D2",
                    "midi": 38,
                    "time": 126.77794499999959,
                    "velocity": 0.3543307086614173,
                    "duration": 0.10307149999999865
                },
                {
                    "name": "E2",
                    "midi": 40,
                    "time": 126.98408799999959,
                    "velocity": 0.3937007874015748,
                    "duration": 0.10307149999999865
                },
                {
                    "name": "C2",
                    "midi": 36,
                    "time": 127.19023099999959,
                    "velocity": 0.3543307086614173,
                    "duration": 0.10307149999999865
                },
                {
                    "name": "A1",
                    "midi": 33,
                    "time": 127.19023099999959,
                    "velocity": 0.29133858267716534,
                    "duration": 0.10307149999999865
                },
                {
                    "name": "E2",
                    "midi": 40,
                    "time": 127.39637399999958,
                    "velocity": 0.4881889763779528,
                    "duration": 0.10307149999999865
                },
                {
                    "name": "G1",
                    "midi": 31,
                    "time": 127.60251699999958,
                    "velocity": 0.28346456692913385,
                    "duration": 0.10307149999999865
                },
                {
                    "name": "B1",
                    "midi": 35,
                    "time": 127.60251699999958,
                    "velocity": 0.3464566929133858,
                    "duration": 0.10307149999999865
                },
                {
                    "name": "E2",
                    "midi": 40,
                    "time": 127.80865999999958,
                    "velocity": 0.4094488188976378,
                    "duration": 0.10307149999999865
                },
                {
                    "name": "F#1",
                    "midi": 30,
                    "time": 128.01480299999957,
                    "velocity": 0.2677165354330709,
                    "duration": 0.10307149999999865
                },
                {
                    "name": "A1",
                    "midi": 33,
                    "time": 128.01480299999957,
                    "velocity": 0.3228346456692913,
                    "duration": 0.10307149999999865
                },
                {
                    "name": "E2",
                    "midi": 40,
                    "time": 128.22094599999957,
                    "velocity": 0.36220472440944884,
                    "duration": 0.10307149999999865
                },
                {
                    "name": "F1",
                    "midi": 29,
                    "time": 128.42708899999957,
                    "velocity": 0.2677165354330709,
                    "duration": 0.10307149999999865
                },
                {
                    "name": "A1",
                    "midi": 33,
                    "time": 128.42708899999957,
                    "velocity": 0.3228346456692913,
                    "duration": 0.10307149999999865
                },
                {
                    "name": "E1",
                    "midi": 28,
                    "time": 128.63323199999957,
                    "velocity": 0.29133858267716534,
                    "duration": 0.10307149999999865
                },
                {
                    "name": "E2",
                    "midi": 40,
                    "time": 128.63323199999957,
                    "velocity": 0.3464566929133858,
                    "duration": 0.10307149999999865
                },
                {
                    "name": "E1",
                    "midi": 28,
                    "time": 128.83937499999956,
                    "velocity": 0.29133858267716534,
                    "duration": 0.10307149999999865
                },
                {
                    "name": "E2",
                    "midi": 40,
                    "time": 128.83937499999956,
                    "velocity": 0.3464566929133858,
                    "duration": 0.10307149999999865
                },
                {
                    "name": "E2",
                    "midi": 40,
                    "time": 129.04551799999956,
                    "velocity": 0.3464566929133858,
                    "duration": 0.10307149999999865
                },
                {
                    "name": "E1",
                    "midi": 28,
                    "time": 129.04551799999956,
                    "velocity": 0.29133858267716534,
                    "duration": 0.10307149999999865
                },
                {
                    "name": "A2",
                    "midi": 45,
                    "time": 129.25166099999956,
                    "velocity": 0.3464566929133858,
                    "duration": 0.6184289999999919
                },
                {
                    "name": "C3",
                    "midi": 48,
                    "time": 129.25166099999956,
                    "velocity": 0.4094488188976378,
                    "duration": 0.6184289999999919
                },
                {
                    "name": "E1",
                    "midi": 28,
                    "time": 129.87008999999955,
                    "velocity": 0.29133858267716534,
                    "duration": 0.10307149999999865
                },
                {
                    "name": "E2",
                    "midi": 40,
                    "time": 129.87008999999955,
                    "velocity": 0.3464566929133858,
                    "duration": 0.10307149999999865
                },
                {
                    "name": "E2",
                    "midi": 40,
                    "time": 130.07623299999955,
                    "velocity": 0.3464566929133858,
                    "duration": 0.10307149999999865
                },
                {
                    "name": "E1",
                    "midi": 28,
                    "time": 130.07623299999955,
                    "velocity": 0.29133858267716534,
                    "duration": 0.10307149999999865
                },
                {
                    "name": "E2",
                    "midi": 40,
                    "time": 130.28237599999954,
                    "velocity": 0.3464566929133858,
                    "duration": 0.10307149999999865
                },
                {
                    "name": "E1",
                    "midi": 28,
                    "time": 130.28237599999954,
                    "velocity": 0.29133858267716534,
                    "duration": 0.10307149999999865
                },
                {
                    "name": "F3",
                    "midi": 53,
                    "time": 130.48851899999954,
                    "velocity": 0.44881889763779526,
                    "duration": 0.6184289999999919
                },
                {
                    "name": "A2",
                    "midi": 45,
                    "time": 130.48851899999954,
                    "velocity": 0.3779527559055118,
                    "duration": 0.6184289999999919
                },
                {
                    "name": "E1",
                    "midi": 28,
                    "time": 131.10694799999953,
                    "velocity": 0.29133858267716534,
                    "duration": 0.10307149999999865
                },
                {
                    "name": "E2",
                    "midi": 40,
                    "time": 131.10694799999953,
                    "velocity": 0.3464566929133858,
                    "duration": 0.10307149999999865
                },
                {
                    "name": "E1",
                    "midi": 28,
                    "time": 131.31309099999953,
                    "velocity": 0.29133858267716534,
                    "duration": 0.10307149999999865
                },
                {
                    "name": "E2",
                    "midi": 40,
                    "time": 131.31309099999953,
                    "velocity": 0.3464566929133858,
                    "duration": 0.10307149999999865
                },
                {
                    "name": "E1",
                    "midi": 28,
                    "time": 131.51923399999953,
                    "velocity": 0.29133858267716534,
                    "duration": 0.10307149999999865
                },
                {
                    "name": "E2",
                    "midi": 40,
                    "time": 131.51923399999953,
                    "velocity": 0.3464566929133858,
                    "duration": 0.10307149999999865
                },
                {
                    "name": "E3",
                    "midi": 52,
                    "time": 131.72537699999953,
                    "velocity": 0.47244094488188976,
                    "duration": 0.8245719999999892
                },
                {
                    "name": "G3",
                    "midi": 55,
                    "time": 131.72537699999953,
                    "velocity": 0.47244094488188976,
                    "duration": 0.8245719999999892
                },
                {
                    "name": "A#2",
                    "midi": 46,
                    "time": 131.72537699999953,
                    "velocity": 0.47244094488188976,
                    "duration": 0.8245719999999892
                },
                {
                    "name": "C4",
                    "midi": 60,
                    "time": 131.72537699999953,
                    "velocity": 0.5590551181102362,
                    "duration": 0.8245719999999892
                },
                {
                    "name": "E2",
                    "midi": 40,
                    "time": 132.9622349999995,
                    "velocity": 0.5433070866141733,
                    "duration": 0.10307149999999865
                },
                {
                    "name": "E1",
                    "midi": 28,
                    "time": 132.9622349999995,
                    "velocity": 0.44881889763779526,
                    "duration": 0.10307149999999865
                },
                {
                    "name": "E1",
                    "midi": 28,
                    "time": 133.5806639999995,
                    "velocity": 0.44881889763779526,
                    "duration": 0.10307149999999865
                },
                {
                    "name": "E2",
                    "midi": 40,
                    "time": 133.5806639999995,
                    "velocity": 0.5433070866141733,
                    "duration": 0.10307149999999865
                },
                {
                    "name": "E2",
                    "midi": 40,
                    "time": 134.19308049583285,
                    "velocity": 0.5433070866141733,
                    "duration": 0.10307149999999865
                },
                {
                    "name": "E1",
                    "midi": 28,
                    "time": 134.19308049583285,
                    "velocity": 0.44881889763779526,
                    "duration": 0.10307149999999865
                },
                {
                    "name": "C3",
                    "midi": 48,
                    "time": 134.8175219999995,
                    "velocity": 0.5039370078740157,
                    "duration": 1.4430010000000095
                },
                {
                    "name": "C4",
                    "midi": 60,
                    "time": 134.8175219999995,
                    "velocity": 0.6062992125984252,
                    "duration": 1.4430010000000095
                },
                {
                    "name": "F3",
                    "midi": 53,
                    "time": 134.8175219999995,
                    "velocity": 0.5039370078740157,
                    "duration": 1.4430010000000095
                },
                {
                    "name": "A2",
                    "midi": 45,
                    "time": 134.8175219999995,
                    "velocity": 0.5039370078740157,
                    "duration": 1.4430010000000095
                },
                {
                    "name": "C5",
                    "midi": 72,
                    "time": 136.26052299999952,
                    "velocity": 0.5511811023622047,
                    "duration": 0.10307149999999865
                },
                {
                    "name": "C4",
                    "midi": 60,
                    "time": 136.26052299999952,
                    "velocity": 0.4645669291338583,
                    "duration": 0.10307149999999865
                },
                {
                    "name": "A3",
                    "midi": 57,
                    "time": 136.46666599999952,
                    "velocity": 0.4251968503937008,
                    "duration": 0.10307149999999865
                },
                {
                    "name": "A4",
                    "midi": 69,
                    "time": 136.46666599999952,
                    "velocity": 0.5039370078740157,
                    "duration": 0.10307149999999865
                },
                {
                    "name": "F4",
                    "midi": 65,
                    "time": 136.67280899999952,
                    "velocity": 0.5669291338582677,
                    "duration": 0.10307149999999865
                },
                {
                    "name": "F3",
                    "midi": 53,
                    "time": 136.67280899999952,
                    "velocity": 0.47244094488188976,
                    "duration": 0.10307149999999865
                },
                {
                    "name": "C3",
                    "midi": 48,
                    "time": 136.87895199999952,
                    "velocity": 0.44881889763779526,
                    "duration": 0.10307149999999865
                },
                {
                    "name": "C4",
                    "midi": 60,
                    "time": 136.87895199999952,
                    "velocity": 0.5354330708661418,
                    "duration": 0.10307149999999865
                },
                {
                    "name": "A3",
                    "midi": 57,
                    "time": 137.0850949999995,
                    "velocity": 0.5511811023622047,
                    "duration": 0.10307149999999865
                },
                {
                    "name": "A2",
                    "midi": 45,
                    "time": 137.0850949999995,
                    "velocity": 0.4645669291338583,
                    "duration": 0.10307149999999865
                },
                {
                    "name": "F2",
                    "midi": 41,
                    "time": 137.2912379999995,
                    "velocity": 0.5039370078740157,
                    "duration": 0.10307149999999865
                },
                {
                    "name": "F3",
                    "midi": 53,
                    "time": 137.2912379999995,
                    "velocity": 0.6062992125984252,
                    "duration": 0.10307149999999865
                },
                {
                    "name": "C2",
                    "midi": 36,
                    "time": 137.4973809999995,
                    "velocity": 0.4645669291338583,
                    "duration": 0.10307149999999865
                },
                {
                    "name": "C3",
                    "midi": 48,
                    "time": 137.4973809999995,
                    "velocity": 0.5590551181102362,
                    "duration": 0.10307149999999865
                },
                {
                    "name": "A2",
                    "midi": 45,
                    "time": 137.7035239999995,
                    "velocity": 0.5669291338582677,
                    "duration": 0.10307149999999865
                },
                {
                    "name": "A1",
                    "midi": 33,
                    "time": 137.7035239999995,
                    "velocity": 0.47244094488188976,
                    "duration": 0.10307149999999865
                },
                {
                    "name": "F2",
                    "midi": 41,
                    "time": 137.9096669999995,
                    "velocity": 0.6377952755905512,
                    "duration": 0.10307149999999865
                },
                {
                    "name": "F1",
                    "midi": 29,
                    "time": 137.9096669999995,
                    "velocity": 0.5433070866141733,
                    "duration": 0.10307149999999865
                },
                {
                    "name": "C2",
                    "midi": 36,
                    "time": 138.1158099999995,
                    "velocity": 0.5905511811023622,
                    "duration": 0.10307149999999865
                },
                {
                    "name": "C1",
                    "midi": 24,
                    "time": 138.1158099999995,
                    "velocity": 0.49606299212598426,
                    "duration": 0.10307149999999865
                },
                {
                    "name": "D1",
                    "midi": 26,
                    "time": 138.3219529999995,
                    "velocity": 0.5118110236220472,
                    "duration": 0.10307149999999865
                },
                {
                    "name": "D2",
                    "midi": 38,
                    "time": 138.3219529999995,
                    "velocity": 0.6141732283464567,
                    "duration": 0.10307149999999865
                },
                {
                    "name": "C1",
                    "midi": 24,
                    "time": 138.5280959999995,
                    "velocity": 0.5196850393700787,
                    "duration": 0.10307149999999865
                },
                {
                    "name": "C2",
                    "midi": 36,
                    "time": 138.5280959999995,
                    "velocity": 0.6141732283464567,
                    "duration": 0.10307149999999865
                },
                {
                    "name": "C2",
                    "midi": 36,
                    "time": 139.7649539999995,
                    "velocity": 0.6141732283464567,
                    "duration": 0.10307149999999865
                },
                {
                    "name": "C1",
                    "midi": 24,
                    "time": 139.7649539999995,
                    "velocity": 0.5196850393700787,
                    "duration": 0.10307149999999865
                },
                {
                    "name": "C1",
                    "midi": 24,
                    "time": 141.00181199999952,
                    "velocity": 0.5196850393700787,
                    "duration": 0.10307149999999865
                },
                {
                    "name": "C2",
                    "midi": 36,
                    "time": 141.00181199999952,
                    "velocity": 0.6141732283464567,
                    "duration": 0.10307149999999865
                },
                {
                    "name": "C2",
                    "midi": 36,
                    "time": 145.9492439999995,
                    "velocity": 0.2283464566929134,
                    "duration": 4.947431999999992
                },
                {
                    "name": "G2",
                    "midi": 43,
                    "time": 145.9492439999995,
                    "velocity": 0.2755905511811024,
                    "duration": 4.947431999999992
                },
                {
                    "name": "F1",
                    "midi": 29,
                    "time": 150.8966759999995,
                    "velocity": 0.2677165354330709,
                    "duration": 2.4651267083333437
                },
                {
                    "name": "F2",
                    "midi": 41,
                    "time": 150.8966759999995,
                    "velocity": 0.31496062992125984,
                    "duration": 2.4651267083333437
                },
                {
                    "name": "F1",
                    "midi": 29,
                    "time": 153.37039199999953,
                    "velocity": 0.2677165354330709,
                    "duration": 2.473715999999996
                },
                {
                    "name": "F2",
                    "midi": 41,
                    "time": 153.37039199999953,
                    "velocity": 0.31496062992125984,
                    "duration": 2.473715999999996
                },
                {
                    "name": "E3",
                    "midi": 52,
                    "time": 155.84410799999952,
                    "velocity": 0.2755905511811024,
                    "duration": 1.6491440000000068
                },
                {
                    "name": "G2",
                    "midi": 43,
                    "time": 155.84410799999952,
                    "velocity": 0.2283464566929134,
                    "duration": 2.473715999999996
                },
                {
                    "name": "F3",
                    "midi": 53,
                    "time": 157.49325199999953,
                    "velocity": 0.31496062992125984,
                    "duration": 0.4122859999999946
                },
                {
                    "name": "F#3",
                    "midi": 54,
                    "time": 157.90553799999952,
                    "velocity": 0.2755905511811024,
                    "duration": 0.4122859999999946
                },
                {
                    "name": "G3",
                    "midi": 55,
                    "time": 158.31782399999952,
                    "velocity": 0.31496062992125984,
                    "duration": 0.40369670833334226
                },
                {
                    "name": "A3",
                    "midi": 57,
                    "time": 158.73010999999954,
                    "velocity": 0.28346456692913385,
                    "duration": 0.4122859999999946
                },
                {
                    "name": "G3",
                    "midi": 55,
                    "time": 158.73010999999954,
                    "velocity": 0.2283464566929134,
                    "duration": 1.6491439999999784
                },
                {
                    "name": "B3",
                    "midi": 59,
                    "time": 159.14239599999954,
                    "velocity": 0.31496062992125984,
                    "duration": 0.4122859999999946
                },
                {
                    "name": "C4",
                    "midi": 60,
                    "time": 159.55468199999953,
                    "velocity": 0.29133858267716534,
                    "duration": 0.4122859999999946
                },
                {
                    "name": "D4",
                    "midi": 62,
                    "time": 159.96696799999953,
                    "velocity": 0.3228346456692913,
                    "duration": 0.4122859999999946
                },
                {
                    "name": "E4",
                    "midi": 64,
                    "time": 160.37925399999952,
                    "velocity": 0.3779527559055118,
                    "duration": 0.4122859999999946
                },
                {
                    "name": "G4",
                    "midi": 67,
                    "time": 160.79153999999951,
                    "velocity": 0.31496062992125984,
                    "duration": 1.2368580000000122
                },
                {
                    "name": "A#3",
                    "midi": 58,
                    "time": 160.79153999999951,
                    "velocity": 0.2677165354330709,
                    "duration": 1.2368580000000122
                },
                {
                    "name": "C#4",
                    "midi": 61,
                    "time": 160.79153999999951,
                    "velocity": 0.2677165354330709,
                    "duration": 1.2368580000000122
                },
                {
                    "name": "E3",
                    "midi": 52,
                    "time": 160.79153999999951,
                    "velocity": 0.2677165354330709,
                    "duration": 1.2368580000000122
                },
                {
                    "name": "F#3",
                    "midi": 54,
                    "time": 162.02839799999953,
                    "velocity": 0.2677165354330709,
                    "duration": 0.8245719999999892
                },
                {
                    "name": "F#4",
                    "midi": 66,
                    "time": 162.02839799999953,
                    "velocity": 0.31496062992125984,
                    "duration": 0.8245719999999892
                },
                {
                    "name": "A3",
                    "midi": 57,
                    "time": 162.02839799999953,
                    "velocity": 0.2677165354330709,
                    "duration": 0.8245719999999892
                },
                {
                    "name": "D4",
                    "midi": 62,
                    "time": 162.02839799999953,
                    "velocity": 0.2677165354330709,
                    "duration": 0.8245719999999892
                },
                {
                    "name": "G#3",
                    "midi": 56,
                    "time": 162.85296999999952,
                    "velocity": 0.2204724409448819,
                    "duration": 0.4122859999999946
                },
                {
                    "name": "F4",
                    "midi": 65,
                    "time": 162.85296999999952,
                    "velocity": 0.25984251968503935,
                    "duration": 0.4122859999999946
                },
                {
                    "name": "A3",
                    "midi": 57,
                    "time": 163.2652559999995,
                    "velocity": 0.23622047244094488,
                    "duration": 2.4737159999999676
                },
                {
                    "name": "E4",
                    "midi": 64,
                    "time": 163.2652559999995,
                    "velocity": 0.28346456692913385,
                    "duration": 0.8245719999999892
                },
                {
                    "name": "D#4",
                    "midi": 63,
                    "time": 164.0898279999995,
                    "velocity": 0.25196850393700787,
                    "duration": 0.4122859999999946
                },
                {
                    "name": "E4",
                    "midi": 64,
                    "time": 164.5021139999995,
                    "velocity": 0.28346456692913385,
                    "duration": 0.8245719999999892
                },
                {
                    "name": "G4",
                    "midi": 67,
                    "time": 165.32668599999948,
                    "velocity": 0.25984251968503935,
                    "duration": 0.4122859999999946
                },
                {
                    "name": "A#3",
                    "midi": 58,
                    "time": 165.73897199999948,
                    "velocity": 0.23622047244094488,
                    "duration": 2.473716000000053
                },
                {
                    "name": "F4",
                    "midi": 65,
                    "time": 165.73897199999948,
                    "velocity": 0.28346456692913385,
                    "duration": 1.2368580000000122
                },
                {
                    "name": "E4",
                    "midi": 64,
                    "time": 166.9758299999995,
                    "velocity": 0.28346456692913385,
                    "duration": 0.8159827083333369
                },
                {
                    "name": "E4",
                    "midi": 64,
                    "time": 167.8004019999995,
                    "velocity": 0.25984251968503935,
                    "duration": 0.40369670833334226
                },
                {
                    "name": "B3",
                    "midi": 59,
                    "time": 168.21268799999953,
                    "velocity": 0.23622047244094488,
                    "duration": 2.4737159999999676
                },
                {
                    "name": "E4",
                    "midi": 64,
                    "time": 168.21268799999953,
                    "velocity": 0.28346456692913385,
                    "duration": 0.8245719999999892
                },
                {
                    "name": "D#4",
                    "midi": 63,
                    "time": 169.03725999999952,
                    "velocity": 0.25196850393700787,
                    "duration": 0.4122859999999946
                },
                {
                    "name": "E4",
                    "midi": 64,
                    "time": 169.44954599999951,
                    "velocity": 0.28346456692913385,
                    "duration": 0.8245719999999892
                },
                {
                    "name": "G4",
                    "midi": 67,
                    "time": 170.2741179999995,
                    "velocity": 0.25984251968503935,
                    "duration": 0.4122859999999946
                },
                {
                    "name": "F#4",
                    "midi": 66,
                    "time": 170.6864039999995,
                    "velocity": 0.28346456692913385,
                    "duration": 1.2368580000000122
                },
                {
                    "name": "C4",
                    "midi": 60,
                    "time": 170.6864039999995,
                    "velocity": 0.23622047244094488,
                    "duration": 1.2368580000000122
                },
                {
                    "name": "E4",
                    "midi": 64,
                    "time": 171.9232619999995,
                    "velocity": 0.28346456692913385,
                    "duration": 1.2368580000000122
                },
                {
                    "name": "C#4",
                    "midi": 61,
                    "time": 171.9232619999995,
                    "velocity": 0.23622047244094488,
                    "duration": 1.2368580000000122
                },
                {
                    "name": "D4",
                    "midi": 62,
                    "time": 173.16011999999952,
                    "velocity": 0.28346456692913385,
                    "duration": 0.8245719999999892
                },
                {
                    "name": "G3",
                    "midi": 55,
                    "time": 175.63383599999952,
                    "velocity": 0.3543307086614173,
                    "duration": 0.8245719999999892
                },
                {
                    "name": "F#3",
                    "midi": 54,
                    "time": 176.4584079999995,
                    "velocity": 0.33070866141732286,
                    "duration": 0.4122859999999946
                },
                {
                    "name": "G3",
                    "midi": 55,
                    "time": 176.8706939999995,
                    "velocity": 0.30708661417322836,
                    "duration": 0.8245719999999892
                },
                {
                    "name": "D3",
                    "midi": 50,
                    "time": 177.6952659999995,
                    "velocity": 0.33070866141732286,
                    "duration": 0.4122859999999946
                },
                {
                    "name": "D3",
                    "midi": 50,
                    "time": 180.58126799999948,
                    "velocity": 0.33070866141732286,
                    "duration": 0.8245719999999892
                },
                {
                    "name": "C#3",
                    "midi": 49,
                    "time": 181.40583999999947,
                    "velocity": 0.30708661417322836,
                    "duration": 0.4122859999999946
                },
                {
                    "name": "D3",
                    "midi": 50,
                    "time": 181.81812599999947,
                    "velocity": 0.2755905511811024,
                    "duration": 0.8245719999999892
                },
                {
                    "name": "A2",
                    "midi": 45,
                    "time": 182.64269799999946,
                    "velocity": 0.29133858267716534,
                    "duration": 0.4122859999999946
                },
                {
                    "name": "D3",
                    "midi": 50,
                    "time": 184.29184199999946,
                    "velocity": 0.2992125984251969,
                    "duration": 0.8245719999999892
                },
                {
                    "name": "G#2",
                    "midi": 44,
                    "time": 185.11641399999945,
                    "velocity": 0.2677165354330709,
                    "duration": 0.4122859999999946
                },
                {
                    "name": "D3",
                    "midi": 50,
                    "time": 186.76555799999946,
                    "velocity": 0.2755905511811024,
                    "duration": 0.8245719999999892
                },
                {
                    "name": "G2",
                    "midi": 43,
                    "time": 187.59012999999945,
                    "velocity": 0.25196850393700787,
                    "duration": 0.4122859999999946
                },
                {
                    "name": "C2",
                    "midi": 36,
                    "time": 188.00241599999944,
                    "velocity": 0.2283464566929134,
                    "duration": 4.947431999999992
                },
                {
                    "name": "G2",
                    "midi": 43,
                    "time": 188.00241599999944,
                    "velocity": 0.2755905511811024,
                    "duration": 4.947431999999992
                },
                {
                    "name": "F2",
                    "midi": 41,
                    "time": 192.94984799999943,
                    "velocity": 0.31496062992125984,
                    "duration": 2.4651267083333437
                },
                {
                    "name": "F1",
                    "midi": 29,
                    "time": 192.94984799999943,
                    "velocity": 0.2677165354330709,
                    "duration": 2.4651267083333437
                },
                {
                    "name": "F1",
                    "midi": 29,
                    "time": 195.42356399999946,
                    "velocity": 0.2677165354330709,
                    "duration": 2.473715999999996
                },
                {
                    "name": "F2",
                    "midi": 41,
                    "time": 195.42356399999946,
                    "velocity": 0.31496062992125984,
                    "duration": 2.473715999999996
                },
                {
                    "name": "E3",
                    "midi": 52,
                    "time": 197.89727999999945,
                    "velocity": 0.2755905511811024,
                    "duration": 1.6491440000000068
                },
                {
                    "name": "G2",
                    "midi": 43,
                    "time": 197.89727999999945,
                    "velocity": 0.2283464566929134,
                    "duration": 2.473715999999996
                },
                {
                    "name": "F3",
                    "midi": 53,
                    "time": 199.54642399999946,
                    "velocity": 0.31496062992125984,
                    "duration": 0.4122859999999946
                },
                {
                    "name": "F#3",
                    "midi": 54,
                    "time": 199.95870999999946,
                    "velocity": 0.2755905511811024,
                    "duration": 0.4122859999999946
                },
                {
                    "name": "G3",
                    "midi": 55,
                    "time": 200.37099599999945,
                    "velocity": 0.31496062992125984,
                    "duration": 0.40369670833334226
                },
                {
                    "name": "G3",
                    "midi": 55,
                    "time": 200.78328199999947,
                    "velocity": 0.2283464566929134,
                    "duration": 1.6491439999999784
                },
                {
                    "name": "A3",
                    "midi": 57,
                    "time": 200.78328199999947,
                    "velocity": 0.28346456692913385,
                    "duration": 0.4122859999999946
                },
                {
                    "name": "B3",
                    "midi": 59,
                    "time": 201.19556799999947,
                    "velocity": 0.31496062992125984,
                    "duration": 0.4122859999999946
                },
                {
                    "name": "C4",
                    "midi": 60,
                    "time": 201.60785399999946,
                    "velocity": 0.29133858267716534,
                    "duration": 0.4122859999999946
                },
                {
                    "name": "D4",
                    "midi": 62,
                    "time": 202.02013999999946,
                    "velocity": 0.3228346456692913,
                    "duration": 0.4122859999999946
                },
                {
                    "name": "E4",
                    "midi": 64,
                    "time": 202.43242599999945,
                    "velocity": 0.3779527559055118,
                    "duration": 0.4122859999999946
                },
                {
                    "name": "E3",
                    "midi": 52,
                    "time": 202.84471199999945,
                    "velocity": 0.2677165354330709,
                    "duration": 1.2368580000000122
                },
                {
                    "name": "G4",
                    "midi": 67,
                    "time": 202.84471199999945,
                    "velocity": 0.31496062992125984,
                    "duration": 1.2368580000000122
                },
                {
                    "name": "A#3",
                    "midi": 58,
                    "time": 202.84471199999945,
                    "velocity": 0.2677165354330709,
                    "duration": 1.2368580000000122
                },
                {
                    "name": "C#4",
                    "midi": 61,
                    "time": 202.84471199999945,
                    "velocity": 0.2677165354330709,
                    "duration": 1.2368580000000122
                },
                {
                    "name": "F#3",
                    "midi": 54,
                    "time": 204.08156999999946,
                    "velocity": 0.2677165354330709,
                    "duration": 0.8245719999999892
                },
                {
                    "name": "D4",
                    "midi": 62,
                    "time": 204.08156999999946,
                    "velocity": 0.2677165354330709,
                    "duration": 0.8245719999999892
                },
                {
                    "name": "F#4",
                    "midi": 66,
                    "time": 204.08156999999946,
                    "velocity": 0.31496062992125984,
                    "duration": 0.8245719999999892
                },
                {
                    "name": "A3",
                    "midi": 57,
                    "time": 204.08156999999946,
                    "velocity": 0.2677165354330709,
                    "duration": 0.8245719999999892
                },
                {
                    "name": "F4",
                    "midi": 65,
                    "time": 204.90614199999945,
                    "velocity": 0.25984251968503935,
                    "duration": 0.4122859999999946
                },
                {
                    "name": "G#3",
                    "midi": 56,
                    "time": 204.90614199999945,
                    "velocity": 0.2204724409448819,
                    "duration": 0.4122859999999946
                },
                {
                    "name": "A3",
                    "midi": 57,
                    "time": 205.31842799999944,
                    "velocity": 0.23622047244094488,
                    "duration": 2.4737159999999676
                },
                {
                    "name": "E4",
                    "midi": 64,
                    "time": 205.31842799999944,
                    "velocity": 0.28346456692913385,
                    "duration": 0.8245719999999892
                },
                {
                    "name": "D#4",
                    "midi": 63,
                    "time": 206.14299999999943,
                    "velocity": 0.25196850393700787,
                    "duration": 0.4122859999999946
                },
                {
                    "name": "E4",
                    "midi": 64,
                    "time": 206.55528599999943,
                    "velocity": 0.28346456692913385,
                    "duration": 0.8245719999999892
                },
                {
                    "name": "G4",
                    "midi": 67,
                    "time": 207.37985799999942,
                    "velocity": 0.25984251968503935,
                    "duration": 0.4122859999999946
                },
                {
                    "name": "F4",
                    "midi": 65,
                    "time": 207.7921439999994,
                    "velocity": 0.28346456692913385,
                    "duration": 1.2368580000000122
                },
                {
                    "name": "A#3",
                    "midi": 58,
                    "time": 207.7921439999994,
                    "velocity": 0.23622047244094488,
                    "duration": 2.473716000000053
                },
                {
                    "name": "E4",
                    "midi": 64,
                    "time": 209.02900199999942,
                    "velocity": 0.28346456692913385,
                    "duration": 0.8159827083333369
                },
                {
                    "name": "E4",
                    "midi": 64,
                    "time": 209.85357399999944,
                    "velocity": 0.25984251968503935,
                    "duration": 0.40369670833334226
                },
                {
                    "name": "B3",
                    "midi": 59,
                    "time": 210.26585999999946,
                    "velocity": 0.23622047244094488,
                    "duration": 2.4737159999999676
                },
                {
                    "name": "E4",
                    "midi": 64,
                    "time": 210.26585999999946,
                    "velocity": 0.28346456692913385,
                    "duration": 0.8245719999999892
                },
                {
                    "name": "D#4",
                    "midi": 63,
                    "time": 211.09043199999945,
                    "velocity": 0.25196850393700787,
                    "duration": 0.4122859999999946
                },
                {
                    "name": "E4",
                    "midi": 64,
                    "time": 211.50271799999945,
                    "velocity": 0.28346456692913385,
                    "duration": 0.8245719999999892
                },
                {
                    "name": "G4",
                    "midi": 67,
                    "time": 212.32728999999944,
                    "velocity": 0.25984251968503935,
                    "duration": 0.4122859999999946
                },
                {
                    "name": "F#4",
                    "midi": 66,
                    "time": 212.73957599999943,
                    "velocity": 0.28346456692913385,
                    "duration": 1.2368580000000122
                },
                {
                    "name": "C4",
                    "midi": 60,
                    "time": 212.73957599999943,
                    "velocity": 0.23622047244094488,
                    "duration": 1.2368580000000122
                },
                {
                    "name": "C#4",
                    "midi": 61,
                    "time": 213.97643399999944,
                    "velocity": 0.23622047244094488,
                    "duration": 1.2368580000000122
                },
                {
                    "name": "E4",
                    "midi": 64,
                    "time": 213.97643399999944,
                    "velocity": 0.28346456692913385,
                    "duration": 1.2282687083333315
                },
                {
                    "name": "D4",
                    "midi": 62,
                    "time": 215.21329199999946,
                    "velocity": 0.28346456692913385,
                    "duration": 0.8245719999999892
                },
                {
                    "name": "G3",
                    "midi": 55,
                    "time": 217.68700799999945,
                    "velocity": 0.3543307086614173,
                    "duration": 0.8245719999999892
                },
                {
                    "name": "F#3",
                    "midi": 54,
                    "time": 218.51157999999944,
                    "velocity": 0.33070866141732286,
                    "duration": 0.4122859999999946
                },
                {
                    "name": "G3",
                    "midi": 55,
                    "time": 218.92386599999944,
                    "velocity": 0.30708661417322836,
                    "duration": 0.8245719999999892
                },
                {
                    "name": "D3",
                    "midi": 50,
                    "time": 219.74843799999942,
                    "velocity": 0.33070866141732286,
                    "duration": 0.4122859999999946
                },
                {
                    "name": "D3",
                    "midi": 50,
                    "time": 222.63443999999942,
                    "velocity": 0.33070866141732286,
                    "duration": 0.8245719999999892
                },
                {
                    "name": "C#3",
                    "midi": 49,
                    "time": 223.4590119999994,
                    "velocity": 0.30708661417322836,
                    "duration": 0.4122859999999946
                },
                {
                    "name": "D3",
                    "midi": 50,
                    "time": 223.8712979999994,
                    "velocity": 0.2755905511811024,
                    "duration": 0.8245719999999892
                },
                {
                    "name": "A2",
                    "midi": 45,
                    "time": 224.6958699999994,
                    "velocity": 0.29133858267716534,
                    "duration": 0.4122859999999946
                },
                {
                    "name": "D3",
                    "midi": 50,
                    "time": 226.3450139999994,
                    "velocity": 0.2992125984251969,
                    "duration": 0.8245719999999892
                },
                {
                    "name": "G#2",
                    "midi": 44,
                    "time": 227.16958599999938,
                    "velocity": 0.2677165354330709,
                    "duration": 0.4122859999999946
                },
                {
                    "name": "D3",
                    "midi": 50,
                    "time": 228.8187299999994,
                    "velocity": 0.2755905511811024,
                    "duration": 0.8245719999999892
                },
                {
                    "name": "G2",
                    "midi": 43,
                    "time": 229.64330199999938,
                    "velocity": 0.25196850393700787,
                    "duration": 0.4122859999999946
                },
                {
                    "name": "G2",
                    "midi": 43,
                    "time": 230.05558799999937,
                    "velocity": 0.2755905511811024,
                    "duration": 4.947431999999992
                },
                {
                    "name": "C2",
                    "midi": 36,
                    "time": 230.05558799999937,
                    "velocity": 0.2283464566929134,
                    "duration": 4.947431999999992
                },
                {
                    "name": "F2",
                    "midi": 41,
                    "time": 235.00301999999937,
                    "velocity": 0.31496062992125984,
                    "duration": 2.4651267083333437
                },
                {
                    "name": "F1",
                    "midi": 29,
                    "time": 235.00301999999937,
                    "velocity": 0.2677165354330709,
                    "duration": 2.4651267083333437
                },
                {
                    "name": "F2",
                    "midi": 41,
                    "time": 237.4767359999994,
                    "velocity": 0.31496062992125984,
                    "duration": 2.473715999999996
                },
                {
                    "name": "F1",
                    "midi": 29,
                    "time": 237.4767359999994,
                    "velocity": 0.2677165354330709,
                    "duration": 2.473715999999996
                },
                {
                    "name": "G2",
                    "midi": 43,
                    "time": 239.9504519999994,
                    "velocity": 0.2283464566929134,
                    "duration": 2.473715999999996
                },
                {
                    "name": "D#3",
                    "midi": 51,
                    "time": 239.9504519999994,
                    "velocity": 0.2755905511811024,
                    "duration": 1.6491440000000068
                },
                {
                    "name": "F3",
                    "midi": 53,
                    "time": 241.5995959999994,
                    "velocity": 0.31496062992125984,
                    "duration": 0.4122859999999946
                },
                {
                    "name": "F#3",
                    "midi": 54,
                    "time": 242.0118819999994,
                    "velocity": 0.2755905511811024,
                    "duration": 0.4122859999999946
                },
                {
                    "name": "G3",
                    "midi": 55,
                    "time": 242.42416799999938,
                    "velocity": 0.31496062992125984,
                    "duration": 0.40369670833334226
                },
                {
                    "name": "A3",
                    "midi": 57,
                    "time": 242.8364539999994,
                    "velocity": 0.28346456692913385,
                    "duration": 0.4122859999999946
                },
                {
                    "name": "G3",
                    "midi": 55,
                    "time": 242.8364539999994,
                    "velocity": 0.2283464566929134,
                    "duration": 1.6491439999999784
                },
                {
                    "name": "B3",
                    "midi": 59,
                    "time": 243.2487399999994,
                    "velocity": 0.31496062992125984,
                    "duration": 0.4122859999999946
                },
                {
                    "name": "C4",
                    "midi": 60,
                    "time": 243.6610259999994,
                    "velocity": 0.29133858267716534,
                    "duration": 0.4122859999999946
                },
                {
                    "name": "D4",
                    "midi": 62,
                    "time": 244.0733119999994,
                    "velocity": 0.3228346456692913,
                    "duration": 0.4122859999999946
                },
                {
                    "name": "D#4",
                    "midi": 63,
                    "time": 244.48559799999938,
                    "velocity": 0.3779527559055118,
                    "duration": 0.3349823750000098
                },
                {
                    "name": "E3",
                    "midi": 52,
                    "time": 244.8205803749994,
                    "velocity": 0.2677165354330709,
                    "duration": 1.3141616250000538
                },
                {
                    "name": "A#3",
                    "midi": 58,
                    "time": 244.8463482499994,
                    "velocity": 0.2677165354330709,
                    "duration": 1.28839375000004
                },
                {
                    "name": "C#4",
                    "midi": 61,
                    "time": 244.87211612499942,
                    "velocity": 0.2677165354330709,
                    "duration": 1.262625875000026
                },
                {
                    "name": "G4",
                    "midi": 67,
                    "time": 244.89788399999944,
                    "velocity": 0.31496062992125984,
                    "duration": 1.2368580000000122
                },
                {
                    "name": "G#3",
                    "midi": 56,
                    "time": 246.13474199999945,
                    "velocity": 0.2677165354330709,
                    "duration": 0.8245719999999892
                },
                {
                    "name": "C#4",
                    "midi": 61,
                    "time": 246.13474199999945,
                    "velocity": 0.2677165354330709,
                    "duration": 0.8245719999999892
                },
                {
                    "name": "F4",
                    "midi": 65,
                    "time": 246.13474199999945,
                    "velocity": 0.31496062992125984,
                    "duration": 0.8245719999999892
                },
                {
                    "name": "F3",
                    "midi": 53,
                    "time": 246.13474199999945,
                    "velocity": 0.2677165354330709,
                    "duration": 0.8245719999999892
                },
                {
                    "name": "C#4",
                    "midi": 61,
                    "time": 246.95931399999944,
                    "velocity": 0.2204724409448819,
                    "duration": 0.4079913541666542
                },
                {
                    "name": "G3",
                    "midi": 55,
                    "time": 246.95931399999944,
                    "velocity": 0.2204724409448819,
                    "duration": 0.4079913541666542
                },
                {
                    "name": "D#4",
                    "midi": 63,
                    "time": 246.95931399999944,
                    "velocity": 0.25984251968503935,
                    "duration": 0.4079913541666542
                },
                {
                    "name": "G3",
                    "midi": 55,
                    "time": 247.37159999999943,
                    "velocity": 0.2677165354330709,
                    "duration": 1.2368580000000122
                },
                {
                    "name": "D#4",
                    "midi": 63,
                    "time": 247.37159999999943,
                    "velocity": 0.31496062992125984,
                    "duration": 1.2368580000000122
                },
                {
                    "name": "C#4",
                    "midi": 61,
                    "time": 247.37159999999943,
                    "velocity": 0.2677165354330709,
                    "duration": 1.2368580000000122
                },
                {
                    "name": "F4",
                    "midi": 65,
                    "time": 248.60845799999944,
                    "velocity": 0.31496062992125984,
                    "duration": 0.8245719999999892
                },
                {
                    "name": "G#3",
                    "midi": 56,
                    "time": 248.60845799999944,
                    "velocity": 0.2204724409448819,
                    "duration": 0.8245719999999892
                },
                {
                    "name": "C#4",
                    "midi": 61,
                    "time": 248.60845799999944,
                    "velocity": 0.2204724409448819,
                    "duration": 0.8245719999999892
                },
                {
                    "name": "C#4",
                    "midi": 61,
                    "time": 249.43302999999943,
                    "velocity": 0.18110236220472442,
                    "duration": 0.4079913541666542
                },
                {
                    "name": "A#3",
                    "midi": 58,
                    "time": 249.43302999999943,
                    "velocity": 0.18110236220472442,
                    "duration": 0.4079913541666542
                },
                {
                    "name": "D#4",
                    "midi": 63,
                    "time": 249.43302999999943,
                    "velocity": 0.25984251968503935,
                    "duration": 0.4079913541666542
                },
                {
                    "name": "D#4",
                    "midi": 63,
                    "time": 249.84531599999943,
                    "velocity": 0.29133858267716534,
                    "duration": 2.0614300000000014
                },
                {
                    "name": "A#3",
                    "midi": 58,
                    "time": 249.84531599999943,
                    "velocity": 0.2440944881889764,
                    "duration": 2.0614300000000014
                },
                {
                    "name": "C#4",
                    "midi": 61,
                    "time": 249.84531599999943,
                    "velocity": 0.2440944881889764,
                    "duration": 2.0614300000000014
                },
                {
                    "name": "G#3",
                    "midi": 56,
                    "time": 251.90674599999943,
                    "velocity": 0.2755905511811024,
                    "duration": 0.4079913541666542
                },
                {
                    "name": "F4",
                    "midi": 65,
                    "time": 251.90674599999943,
                    "velocity": 0.3228346456692913,
                    "duration": 0.4079913541666542
                },
                {
                    "name": "C#4",
                    "midi": 61,
                    "time": 251.90674599999943,
                    "velocity": 0.2755905511811024,
                    "duration": 0.4079913541666542
                },
                {
                    "name": "A#3",
                    "midi": 58,
                    "time": 252.31903199999942,
                    "velocity": 0.2440944881889764,
                    "duration": 2.0614300000000014
                },
                {
                    "name": "D#4",
                    "midi": 63,
                    "time": 252.31903199999942,
                    "velocity": 0.29133858267716534,
                    "duration": 2.0614300000000014
                },
                {
                    "name": "C#4",
                    "midi": 61,
                    "time": 252.31903199999942,
                    "velocity": 0.2440944881889764,
                    "duration": 2.0614300000000014
                },
                {
                    "name": "C#4",
                    "midi": 61,
                    "time": 254.38046199999943,
                    "velocity": 0.2755905511811024,
                    "duration": 0.4079913541666542
                },
                {
                    "name": "F4",
                    "midi": 65,
                    "time": 254.38046199999943,
                    "velocity": 0.3228346456692913,
                    "duration": 0.4079913541666542
                },
                {
                    "name": "G#3",
                    "midi": 56,
                    "time": 254.38046199999943,
                    "velocity": 0.2755905511811024,
                    "duration": 0.4079913541666542
                },
                {
                    "name": "A#3",
                    "midi": 58,
                    "time": 254.79274799999942,
                    "velocity": 0.2440944881889764,
                    "duration": 1.9841263749999882
                },
                {
                    "name": "D#4",
                    "midi": 63,
                    "time": 254.79274799999942,
                    "velocity": 0.29133858267716534,
                    "duration": 1.9841263749999882
                },
                {
                    "name": "C#4",
                    "midi": 61,
                    "time": 254.79274799999942,
                    "velocity": 0.2440944881889764,
                    "duration": 1.9841263749999882
                },
                {
                    "name": "F3",
                    "midi": 53,
                    "time": 256.7768743749994,
                    "velocity": 0.2755905511811024,
                    "duration": 0.48958962499995096
                },
                {
                    "name": "G#3",
                    "midi": 56,
                    "time": 256.8026422499994,
                    "velocity": 0.2755905511811024,
                    "duration": 0.4595271041666251
                },
                {
                    "name": "C#4",
                    "midi": 61,
                    "time": 256.8284101249994,
                    "velocity": 0.2755905511811024,
                    "duration": 0.43375922916663967
                },
                {
                    "name": "F4",
                    "midi": 65,
                    "time": 256.85417799999937,
                    "velocity": 0.3228346456692913,
                    "duration": 0.4079913541666542
                },
                {
                    "name": "G3",
                    "midi": 55,
                    "time": 257.26646399999936,
                    "velocity": 0.2440944881889764,
                    "duration": 1.9841263750000167
                },
                {
                    "name": "D#4",
                    "midi": 63,
                    "time": 257.26646399999936,
                    "velocity": 0.29133858267716534,
                    "duration": 1.9841263750000167
                },
                {
                    "name": "C#4",
                    "midi": 61,
                    "time": 257.26646399999936,
                    "velocity": 0.2440944881889764,
                    "duration": 1.9841263750000167
                },
                {
                    "name": "F3",
                    "midi": 53,
                    "time": 259.2505903749994,
                    "velocity": 0.2755905511811024,
                    "duration": 0.48958962499995096
                },
                {
                    "name": "G#3",
                    "midi": 56,
                    "time": 259.27635824999936,
                    "velocity": 0.2755905511811024,
                    "duration": 0.4595271041666251
                },
                {
                    "name": "C#4",
                    "midi": 61,
                    "time": 259.30212612499935,
                    "velocity": 0.2755905511811024,
                    "duration": 0.43375922916663967
                },
                {
                    "name": "F4",
                    "midi": 65,
                    "time": 259.32789399999933,
                    "velocity": 0.3228346456692913,
                    "duration": 0.4079913541666542
                },
                {
                    "name": "D#4",
                    "midi": 63,
                    "time": 259.7401799999993,
                    "velocity": 0.29133858267716534,
                    "duration": 1.2368579999999838
                },
                {
                    "name": "G3",
                    "midi": 55,
                    "time": 259.7401799999993,
                    "velocity": 0.2440944881889764,
                    "duration": 2.4737159999999676
                },
                {
                    "name": "C#4",
                    "midi": 61,
                    "time": 259.7401799999993,
                    "velocity": 0.2440944881889764,
                    "duration": 2.4737159999999676
                },
                {
                    "name": "E4",
                    "midi": 64,
                    "time": 260.9770379999993,
                    "velocity": 0.29133858267716534,
                    "duration": 2.4737159999999676
                },
                {
                    "name": "D4",
                    "midi": 62,
                    "time": 262.2138959999993,
                    "velocity": 0.25984251968503935,
                    "duration": 2.4737159999999676
                },
                {
                    "name": "G#3",
                    "midi": 56,
                    "time": 262.2138959999993,
                    "velocity": 0.25984251968503935,
                    "duration": 2.4737159999999676
                },
                {
                    "name": "F4",
                    "midi": 65,
                    "time": 263.4507539999993,
                    "velocity": 0.33070866141732286,
                    "duration": 2.4737159999999676
                },
                {
                    "name": "A3",
                    "midi": 57,
                    "time": 264.68761199999926,
                    "velocity": 0.2992125984251969,
                    "duration": 2.4737159999999676
                },
                {
                    "name": "D#4",
                    "midi": 63,
                    "time": 264.68761199999926,
                    "velocity": 0.3937007874015748,
                    "duration": 2.4737159999999676
                },
                {
                    "name": "F#4",
                    "midi": 66,
                    "time": 265.92446999999925,
                    "velocity": 0.44881889763779526,
                    "duration": 1.2368579999999838
                },
                {
                    "name": "D#3",
                    "midi": 51,
                    "time": 267.16132799999923,
                    "velocity": 0.4094488188976378,
                    "duration": 1.2368579999999838
                },
                {
                    "name": "A3",
                    "midi": 57,
                    "time": 267.16132799999923,
                    "velocity": 0.5118110236220472,
                    "duration": 1.2368579999999838
                },
                {
                    "name": "A2",
                    "midi": 45,
                    "time": 267.16132799999923,
                    "velocity": 0.4094488188976378,
                    "duration": 1.2368579999999838
                },
                {
                    "name": "A2",
                    "midi": 45,
                    "time": 268.3981859999992,
                    "velocity": 0.4881889763779528,
                    "duration": 1.2368579999999838
                },
                {
                    "name": "C2",
                    "midi": 36,
                    "time": 268.3981859999992,
                    "velocity": 0.4094488188976378,
                    "duration": 1.2025008333333176
                },
                {
                    "name": "A1",
                    "midi": 33,
                    "time": 268.3981859999992,
                    "velocity": 0.5275590551181102,
                    "duration": 1.2368579999999838
                },
                {
                    "name": "G1",
                    "midi": 31,
                    "time": 269.5319724999992,
                    "velocity": 0.4251968503937008,
                    "duration": 0.03435716666666622
                },
                {
                    "name": "C2",
                    "midi": 36,
                    "time": 269.56632966666587,
                    "velocity": 0.4645669291338583,
                    "duration": 0.06871433333333243
                },
                {
                    "name": "G2",
                    "midi": 43,
                    "time": 269.60068683333253,
                    "velocity": 0.49606299212598426,
                    "duration": 0.03435716666666622
                },
                {
                    "name": "G3",
                    "midi": 55,
                    "time": 269.6350439999992,
                    "velocity": 0.48031496062992124,
                    "duration": 2.465126708333287
                },
                {
                    "name": "G4",
                    "midi": 67,
                    "time": 269.6350439999992,
                    "velocity": 0.5669291338582677,
                    "duration": 1.6491439999999784
                },
                {
                    "name": "E4",
                    "midi": 64,
                    "time": 269.6350439999992,
                    "velocity": 0.48031496062992124,
                    "duration": 1.6491439999999784
                },
                {
                    "name": "D4",
                    "midi": 62,
                    "time": 271.2841879999992,
                    "velocity": 0.3937007874015748,
                    "duration": 0.4122859999999946
                },
                {
                    "name": "F4",
                    "midi": 65,
                    "time": 271.2841879999992,
                    "velocity": 0.4645669291338583,
                    "duration": 0.4122859999999946
                },
                {
                    "name": "D#4",
                    "midi": 63,
                    "time": 271.69647399999917,
                    "velocity": 0.3937007874015748,
                    "duration": 0.4122859999999946
                },
                {
                    "name": "F#4",
                    "midi": 66,
                    "time": 271.69647399999917,
                    "velocity": 0.4645669291338583,
                    "duration": 0.4122859999999946
                },
                {
                    "name": "G3",
                    "midi": 55,
                    "time": 272.10875999999917,
                    "velocity": 0.4094488188976378,
                    "duration": 1.0307149999999865
                },
                {
                    "name": "E4",
                    "midi": 64,
                    "time": 272.10875999999917,
                    "velocity": 0.4094488188976378,
                    "duration": 0.4122859999999946
                },
                {
                    "name": "G4",
                    "midi": 67,
                    "time": 272.10875999999917,
                    "velocity": 0.4881889763779528,
                    "duration": 0.4122859999999946
                },
                {
                    "name": "C4",
                    "midi": 60,
                    "time": 272.52104599999916,
                    "velocity": 0.3700787401574803,
                    "duration": 0.4122859999999946
                },
                {
                    "name": "A4",
                    "midi": 69,
                    "time": 272.52104599999916,
                    "velocity": 0.4409448818897638,
                    "duration": 0.4122859999999946
                },
                {
                    "name": "B4",
                    "midi": 71,
                    "time": 272.93333199999915,
                    "velocity": 0.4409448818897638,
                    "duration": 0.3607502500000237
                },
                {
                    "name": "D4",
                    "midi": 62,
                    "time": 272.93333199999915,
                    "velocity": 0.3700787401574803,
                    "duration": 0.3607502500000237
                },
                {
                    "name": "G3",
                    "midi": 55,
                    "time": 273.2940822499992,
                    "velocity": 0.4330708661417323,
                    "duration": 0.4638217499999655
                },
                {
                    "name": "E4",
                    "midi": 64,
                    "time": 273.31985012499916,
                    "velocity": 0.4330708661417323,
                    "duration": 0.43805387499998005
                },
                {
                    "name": "C5",
                    "midi": 72,
                    "time": 273.34561799999915,
                    "velocity": 0.5118110236220472,
                    "duration": 0.4122859999999946
                },
                {
                    "name": "F4",
                    "midi": 65,
                    "time": 273.75790399999914,
                    "velocity": 0.3543307086614173,
                    "duration": 0.4122859999999946
                },
                {
                    "name": "D5",
                    "midi": 74,
                    "time": 273.75790399999914,
                    "velocity": 0.4251968503937008,
                    "duration": 0.4122859999999946
                },
                {
                    "name": "G4",
                    "midi": 67,
                    "time": 274.17018999999914,
                    "velocity": 0.3543307086614173,
                    "duration": 0.41228600000005144
                },
                {
                    "name": "E5",
                    "midi": 76,
                    "time": 274.17018999999914,
                    "velocity": 0.4251968503937008,
                    "duration": 0.41228600000005144
                },
                {
                    "name": "F1",
                    "midi": 29,
                    "time": 274.47940449999913,
                    "velocity": 0.4251968503937008,
                    "duration": 0.05153575000002775
                },
                {
                    "name": "F2",
                    "midi": 41,
                    "time": 274.53094024999916,
                    "velocity": 0.4330708661417323,
                    "duration": 0.05153575000002775
                },
                {
                    "name": "C#4",
                    "midi": 61,
                    "time": 274.5824759999992,
                    "velocity": 0.4645669291338583,
                    "duration": 1.2368579999999838
                },
                {
                    "name": "A#3",
                    "midi": 58,
                    "time": 274.5824759999992,
                    "velocity": 0.4645669291338583,
                    "duration": 1.2368579999999838
                },
                {
                    "name": "E4",
                    "midi": 64,
                    "time": 274.5824759999992,
                    "velocity": 0.5511811023622047,
                    "duration": 1.2368579999999838
                },
                {
                    "name": "F3",
                    "midi": 53,
                    "time": 274.5824759999992,
                    "velocity": 0.4645669291338583,
                    "duration": 2.061429999999973
                },
                {
                    "name": "D4",
                    "midi": 62,
                    "time": 275.8193339999992,
                    "velocity": 0.4645669291338583,
                    "duration": 0.8245719999999892
                },
                {
                    "name": "F4",
                    "midi": 65,
                    "time": 275.8193339999992,
                    "velocity": 0.5511811023622047,
                    "duration": 0.8245719999999892
                },
                {
                    "name": "A3",
                    "midi": 57,
                    "time": 275.8193339999992,
                    "velocity": 0.4645669291338583,
                    "duration": 0.8245719999999892
                },
                {
                    "name": "G3",
                    "midi": 55,
                    "time": 276.64390599999916,
                    "velocity": 0.4645669291338583,
                    "duration": 0.4122859999999946
                },
                {
                    "name": "F2",
                    "midi": 41,
                    "time": 277.05619199999916,
                    "velocity": 0.48031496062992124,
                    "duration": 2.4737159999999676
                },
                {
                    "name": "G3",
                    "midi": 55,
                    "time": 277.05619199999916,
                    "velocity": 0.5669291338582677,
                    "duration": 0.8245719999999892
                },
                {
                    "name": "F3",
                    "midi": 53,
                    "time": 277.88076399999915,
                    "velocity": 0.48031496062992124,
                    "duration": 0.4122859999999946
                },
                {
                    "name": "E3",
                    "midi": 52,
                    "time": 278.29304999999914,
                    "velocity": 0.5354330708661418,
                    "duration": 0.8245719999999892
                },
                {
                    "name": "D3",
                    "midi": 50,
                    "time": 279.11762199999913,
                    "velocity": 0.4566929133858268,
                    "duration": 0.4122859999999946
                },
                {
                    "name": "G2",
                    "midi": 43,
                    "time": 279.5299079999991,
                    "velocity": 0.4409448818897638,
                    "duration": 2.4737159999999676
                },
                {
                    "name": "E3",
                    "midi": 52,
                    "time": 279.5299079999991,
                    "velocity": 0.5275590551181102,
                    "duration": 1.6491439999999784
                },
                {
                    "name": "F3",
                    "midi": 53,
                    "time": 281.1790519999991,
                    "velocity": 0.5039370078740157,
                    "duration": 0.4122859999999946
                },
                {
                    "name": "F#3",
                    "midi": 54,
                    "time": 281.5913379999991,
                    "velocity": 0.4409448818897638,
                    "duration": 0.4122859999999946
                },
                {
                    "name": "G3",
                    "midi": 55,
                    "time": 282.0036239999991,
                    "velocity": 0.5039370078740157,
                    "duration": 2.4737159999999676
                },
                {
                    "name": "A3",
                    "midi": 57,
                    "time": 282.4159099999991,
                    "velocity": 0.44881889763779526,
                    "duration": 0.4122859999999946
                },
                {
                    "name": "B3",
                    "midi": 59,
                    "time": 282.8281959999991,
                    "velocity": 0.5039370078740157,
                    "duration": 0.4122859999999946
                },
                {
                    "name": "C4",
                    "midi": 60,
                    "time": 283.2404819999991,
                    "velocity": 0.4645669291338583,
                    "duration": 0.4122859999999946
                },
                {
                    "name": "D4",
                    "midi": 62,
                    "time": 283.65276799999907,
                    "velocity": 0.5118110236220472,
                    "duration": 0.4122859999999946
                },
                {
                    "name": "E4",
                    "midi": 64,
                    "time": 284.06505399999907,
                    "velocity": 0.5984251968503937,
                    "duration": 0.4122859999999946
                },
                {
                    "name": "C#3",
                    "midi": 49,
                    "time": 284.47733999999906,
                    "velocity": 0.3543307086614173,
                    "duration": 0.8245719999999892
                },
                {
                    "name": "A#2",
                    "midi": 46,
                    "time": 284.47733999999906,
                    "velocity": 0.3543307086614173,
                    "duration": 0.8245719999999892
                },
                {
                    "name": "E2",
                    "midi": 40,
                    "time": 284.47733999999906,
                    "velocity": 0.3543307086614173,
                    "duration": 0.8245719999999892
                },
                {
                    "name": "E3",
                    "midi": 52,
                    "time": 284.47733999999906,
                    "velocity": 0.41732283464566927,
                    "duration": 0.8245719999999892
                },
                {
                    "name": "F3",
                    "midi": 53,
                    "time": 285.30191199999905,
                    "velocity": 0.41732283464566927,
                    "duration": 0.8245719999999892
                },
                {
                    "name": "F2",
                    "midi": 41,
                    "time": 285.30191199999905,
                    "velocity": 0.3543307086614173,
                    "duration": 0.8245719999999892
                },
                {
                    "name": "C3",
                    "midi": 48,
                    "time": 285.30191199999905,
                    "velocity": 0.3543307086614173,
                    "duration": 0.8245719999999892
                },
                {
                    "name": "D#3",
                    "midi": 51,
                    "time": 286.12648399999904,
                    "velocity": 0.3543307086614173,
                    "duration": 0.8245719999999892
                },
                {
                    "name": "C3",
                    "midi": 48,
                    "time": 286.12648399999904,
                    "velocity": 0.3543307086614173,
                    "duration": 0.8245719999999892
                },
                {
                    "name": "F#2",
                    "midi": 42,
                    "time": 286.12648399999904,
                    "velocity": 0.3543307086614173,
                    "duration": 0.8245719999999892
                },
                {
                    "name": "F#3",
                    "midi": 54,
                    "time": 286.12648399999904,
                    "velocity": 0.41732283464566927,
                    "duration": 0.8245719999999892
                },
                {
                    "name": "G2",
                    "midi": 43,
                    "time": 286.951055999999,
                    "velocity": 0.3543307086614173,
                    "duration": 0.8245719999999892
                },
                {
                    "name": "C3",
                    "midi": 48,
                    "time": 286.951055999999,
                    "velocity": 0.3543307086614173,
                    "duration": 0.8245719999999892
                },
                {
                    "name": "D#3",
                    "midi": 51,
                    "time": 286.951055999999,
                    "velocity": 0.3543307086614173,
                    "duration": 0.8245719999999892
                },
                {
                    "name": "G3",
                    "midi": 55,
                    "time": 286.951055999999,
                    "velocity": 0.41732283464566927,
                    "duration": 0.8245719999999892
                },
                {
                    "name": "C3",
                    "midi": 48,
                    "time": 287.775627999999,
                    "velocity": 0.3543307086614173,
                    "duration": 0.8245719999999892
                },
                {
                    "name": "A2",
                    "midi": 45,
                    "time": 287.775627999999,
                    "velocity": 0.3543307086614173,
                    "duration": 0.8245719999999892
                },
                {
                    "name": "D#3",
                    "midi": 51,
                    "time": 287.775627999999,
                    "velocity": 0.3543307086614173,
                    "duration": 0.8245719999999892
                },
                {
                    "name": "A3",
                    "midi": 57,
                    "time": 287.775627999999,
                    "velocity": 0.41732283464566927,
                    "duration": 0.8245719999999892
                },
                {
                    "name": "D3",
                    "midi": 50,
                    "time": 288.600199999999,
                    "velocity": 0.3543307086614173,
                    "duration": 0.8245719999999892
                },
                {
                    "name": "B2",
                    "midi": 47,
                    "time": 288.600199999999,
                    "velocity": 0.3543307086614173,
                    "duration": 0.8245719999999892
                },
                {
                    "name": "G3",
                    "midi": 55,
                    "time": 288.600199999999,
                    "velocity": 0.3543307086614173,
                    "duration": 0.8245719999999892
                },
                {
                    "name": "B3",
                    "midi": 59,
                    "time": 288.600199999999,
                    "velocity": 0.41732283464566927,
                    "duration": 0.8245719999999892
                },
                {
                    "name": "E3",
                    "midi": 52,
                    "time": 289.424771999999,
                    "velocity": 0.3543307086614173,
                    "duration": 0.8245719999999892
                },
                {
                    "name": "C3",
                    "midi": 48,
                    "time": 289.424771999999,
                    "velocity": 0.3543307086614173,
                    "duration": 0.8245719999999892
                },
                {
                    "name": "G3",
                    "midi": 55,
                    "time": 289.424771999999,
                    "velocity": 0.3543307086614173,
                    "duration": 0.8245719999999892
                },
                {
                    "name": "C4",
                    "midi": 60,
                    "time": 289.424771999999,
                    "velocity": 0.41732283464566927,
                    "duration": 0.8245719999999892
                },
                {
                    "name": "G3",
                    "midi": 55,
                    "time": 290.249343999999,
                    "velocity": 0.3543307086614173,
                    "duration": 0.4122859999999946
                },
                {
                    "name": "C#3",
                    "midi": 49,
                    "time": 290.249343999999,
                    "velocity": 0.3543307086614173,
                    "duration": 0.4122859999999946
                },
                {
                    "name": "A#3",
                    "midi": 58,
                    "time": 290.249343999999,
                    "velocity": 0.3543307086614173,
                    "duration": 0.4122859999999946
                },
                {
                    "name": "C#4",
                    "midi": 61,
                    "time": 290.249343999999,
                    "velocity": 0.41732283464566927,
                    "duration": 0.4122859999999946
                },
                {
                    "name": "F3",
                    "midi": 53,
                    "time": 290.661629999999,
                    "velocity": 0.3543307086614173,
                    "duration": 0.8245719999999892
                },
                {
                    "name": "D3",
                    "midi": 50,
                    "time": 290.661629999999,
                    "velocity": 0.3543307086614173,
                    "duration": 0.8245719999999892
                },
                {
                    "name": "A3",
                    "midi": 57,
                    "time": 290.661629999999,
                    "velocity": 0.3543307086614173,
                    "duration": 0.8245719999999892
                },
                {
                    "name": "D4",
                    "midi": 62,
                    "time": 290.661629999999,
                    "velocity": 0.41732283464566927,
                    "duration": 0.8245719999999892
                },
                {
                    "name": "A3",
                    "midi": 57,
                    "time": 291.48620199999897,
                    "velocity": 0.3543307086614173,
                    "duration": 0.4122859999999946
                },
                {
                    "name": "F3",
                    "midi": 53,
                    "time": 291.48620199999897,
                    "velocity": 0.3543307086614173,
                    "duration": 0.4122859999999946
                },
                {
                    "name": "D4",
                    "midi": 62,
                    "time": 291.48620199999897,
                    "velocity": 0.3543307086614173,
                    "duration": 0.4122859999999946
                },
                {
                    "name": "F4",
                    "midi": 65,
                    "time": 291.48620199999897,
                    "velocity": 0.41732283464566927,
                    "duration": 0.4122859999999946
                },
                {
                    "name": "C4",
                    "midi": 60,
                    "time": 291.89848799999896,
                    "velocity": 0.3543307086614173,
                    "duration": 1.2368579999999838
                },
                {
                    "name": "G3",
                    "midi": 55,
                    "time": 291.89848799999896,
                    "velocity": 0.3543307086614173,
                    "duration": 1.2368579999999838
                },
                {
                    "name": "E4",
                    "midi": 64,
                    "time": 291.89848799999896,
                    "velocity": 0.3543307086614173,
                    "duration": 1.2368579999999838
                },
                {
                    "name": "G4",
                    "midi": 67,
                    "time": 291.89848799999896,
                    "velocity": 0.41732283464566927,
                    "duration": 1.2368579999999838
                },
                {
                    "name": "G1",
                    "midi": 31,
                    "time": 293.13534599999895,
                    "velocity": 0.31496062992125984,
                    "duration": 1.2368579999999838
                },
                {
                    "name": "G2",
                    "midi": 43,
                    "time": 293.13534599999895,
                    "velocity": 0.3700787401574803,
                    "duration": 1.2368579999999838
                },
                {
                    "name": "G2",
                    "midi": 43,
                    "time": 294.37220399999893,
                    "velocity": 0.31496062992125984,
                    "duration": 1.2368579999999838
                },
                {
                    "name": "C2",
                    "midi": 36,
                    "time": 294.37220399999893,
                    "velocity": 0.31496062992125984,
                    "duration": 1.2368579999999838
                },
                {
                    "name": "C3",
                    "midi": 48,
                    "time": 294.37220399999893,
                    "velocity": 0.3700787401574803,
                    "duration": 1.2368579999999838
                },
                {
                    "name": "G3",
                    "midi": 55,
                    "time": 295.6090619999989,
                    "velocity": 0.31496062992125984,
                    "duration": 1.2368579999999838
                },
                {
                    "name": "A#3",
                    "midi": 58,
                    "time": 295.6090619999989,
                    "velocity": 0.31496062992125984,
                    "duration": 1.2368579999999838
                },
                {
                    "name": "C3",
                    "midi": 48,
                    "time": 295.6090619999989,
                    "velocity": 0.31496062992125984,
                    "duration": 4.122859999999946
                },
                {
                    "name": "C4",
                    "midi": 60,
                    "time": 295.6090619999989,
                    "velocity": 0.3700787401574803,
                    "duration": 4.122859999999946
                },
                {
                    "name": "F3",
                    "midi": 53,
                    "time": 296.8459199999989,
                    "velocity": 0.31496062992125984,
                    "duration": 1.2368579999999838
                },
                {
                    "name": "A3",
                    "midi": 57,
                    "time": 296.8459199999989,
                    "velocity": 0.31496062992125984,
                    "duration": 1.2368579999999838
                },
                {
                    "name": "D3",
                    "midi": 50,
                    "time": 298.0827779999989,
                    "velocity": 0.31496062992125984,
                    "duration": 1.2368579999999838
                },
                {
                    "name": "F3",
                    "midi": 53,
                    "time": 298.0827779999989,
                    "velocity": 0.31496062992125984,
                    "duration": 1.2368579999999838
                },
                {
                    "name": "E3",
                    "midi": 52,
                    "time": 299.31963599999887,
                    "velocity": 0.3700787401574803,
                    "duration": 0.4122859999999946
                },
                {
                    "name": "G3",
                    "midi": 55,
                    "time": 299.31963599999887,
                    "velocity": 0.3700787401574803,
                    "duration": 0.4122859999999946
                },
                {
                    "name": "E2",
                    "midi": 40,
                    "time": 299.73192199999886,
                    "velocity": 0.31496062992125984,
                    "duration": 0.2061429999999973
                },
                {
                    "name": "E3",
                    "midi": 52,
                    "time": 299.73192199999886,
                    "velocity": 0.31496062992125984,
                    "duration": 0.2061429999999973
                },
                {
                    "name": "F2",
                    "midi": 41,
                    "time": 300.14420799999886,
                    "velocity": 0.31496062992125984,
                    "duration": 0.2061429999999973
                },
                {
                    "name": "F3",
                    "midi": 53,
                    "time": 300.14420799999886,
                    "velocity": 0.31496062992125984,
                    "duration": 0.2061429999999973
                },
                {
                    "name": "A#2",
                    "midi": 46,
                    "time": 300.55649399999885,
                    "velocity": 0.4015748031496063,
                    "duration": 1.2368579999999838
                },
                {
                    "name": "D2",
                    "midi": 38,
                    "time": 300.55649399999885,
                    "velocity": 0.4015748031496063,
                    "duration": 0.2061429999999973
                },
                {
                    "name": "D3",
                    "midi": 50,
                    "time": 300.55649399999885,
                    "velocity": 0.4015748031496063,
                    "duration": 0.2061429999999973
                },
                {
                    "name": "E2",
                    "midi": 40,
                    "time": 300.96877999999884,
                    "velocity": 0.33070866141732286,
                    "duration": 0.2061429999999973
                },
                {
                    "name": "E3",
                    "midi": 52,
                    "time": 300.96877999999884,
                    "velocity": 0.33070866141732286,
                    "duration": 0.2061429999999973
                },
                {
                    "name": "C2",
                    "midi": 36,
                    "time": 301.38106599999884,
                    "velocity": 0.33070866141732286,
                    "duration": 2.886001999999962
                },
                {
                    "name": "C3",
                    "midi": 48,
                    "time": 301.38106599999884,
                    "velocity": 0.33070866141732286,
                    "duration": 2.886001999999962
                },
                {
                    "name": "F2",
                    "midi": 41,
                    "time": 301.79335199999883,
                    "velocity": 0.3700787401574803,
                    "duration": 1.2368579999999838
                },
                {
                    "name": "A2",
                    "midi": 45,
                    "time": 301.79335199999883,
                    "velocity": 0.3700787401574803,
                    "duration": 1.2368579999999838
                },
                {
                    "name": "D2",
                    "midi": 38,
                    "time": 303.0302099999988,
                    "velocity": 0.33858267716535434,
                    "duration": 1.2368579999999838
                },
                {
                    "name": "F2",
                    "midi": 41,
                    "time": 303.0302099999988,
                    "velocity": 0.33858267716535434,
                    "duration": 1.2368579999999838
                },
                {
                    "name": "E2",
                    "midi": 40,
                    "time": 304.2670679999988,
                    "velocity": 0.33070866141732286,
                    "duration": 0.2061429999999973
                },
                {
                    "name": "G2",
                    "midi": 43,
                    "time": 304.2670679999988,
                    "velocity": 0.33070866141732286,
                    "duration": 0.2061429999999973
                },
                {
                    "name": "E2",
                    "midi": 40,
                    "time": 304.6793539999988,
                    "velocity": 0.2755905511811024,
                    "duration": 0.2061429999999973
                },
                {
                    "name": "F2",
                    "midi": 41,
                    "time": 305.0916399999988,
                    "velocity": 0.25196850393700787,
                    "duration": 0.2061429999999973
                },
                {
                    "name": "D2",
                    "midi": 38,
                    "time": 305.5039259999988,
                    "velocity": 0.2992125984251969,
                    "duration": 0.2061429999999973
                },
                {
                    "name": "E2",
                    "midi": 40,
                    "time": 305.9162119999988,
                    "velocity": 0.2440944881889764,
                    "duration": 0.2061429999999973
                },
                {
                    "name": "C2",
                    "midi": 36,
                    "time": 306.3284979999988,
                    "velocity": 0.23622047244094488,
                    "duration": 3.2982880000000137
                },
                {
                    "name": "C2",
                    "midi": 36,
                    "time": 309.6267859999988,
                    "velocity": 0.23622047244094488,
                    "duration": 0.2061429999999973
                },
                {
                    "name": "D2",
                    "midi": 38,
                    "time": 310.0390719999988,
                    "velocity": 0.2283464566929134,
                    "duration": 0.2061429999999973
                },
                {
                    "name": "B1",
                    "midi": 35,
                    "time": 310.4513579999988,
                    "velocity": 0.2677165354330709,
                    "duration": 0.2061429999999973
                },
                {
                    "name": "C2",
                    "midi": 36,
                    "time": 310.86364399999877,
                    "velocity": 0.2204724409448819,
                    "duration": 0.2061429999999973
                },
                {
                    "name": "A1",
                    "midi": 33,
                    "time": 311.27592999999877,
                    "velocity": 0.2125984251968504,
                    "duration": 3.2982880000000137
                },
                {
                    "name": "A1",
                    "midi": 33,
                    "time": 314.5742179999988,
                    "velocity": 0.2047244094488189,
                    "duration": 0.2061429999999973
                },
                {
                    "name": "B1",
                    "midi": 35,
                    "time": 314.9865039999988,
                    "velocity": 0.2047244094488189,
                    "duration": 0.2061429999999973
                },
                {
                    "name": "G1",
                    "midi": 31,
                    "time": 315.39878999999877,
                    "velocity": 0.23622047244094488,
                    "duration": 0.2061429999999973
                },
                {
                    "name": "A1",
                    "midi": 33,
                    "time": 315.81107599999876,
                    "velocity": 0.1889763779527559,
                    "duration": 0.2061429999999973
                },
                {
                    "name": "F1",
                    "midi": 29,
                    "time": 316.22336199999876,
                    "velocity": 0.1889763779527559,
                    "duration": 4.122860000000003
                },
                {
                    "name": "E2",
                    "midi": 40,
                    "time": 320.34622199999876,
                    "velocity": 0.3700787401574803,
                    "duration": 0.17693940833333954
                },
                {
                    "name": "D2",
                    "midi": 38,
                    "time": 320.5231614083321,
                    "velocity": 0.3858267716535433,
                    "duration": 0.17779833750000762
                },
                {
                    "name": "C2",
                    "midi": 36,
                    "time": 320.7009597458321,
                    "velocity": 0.4094488188976378,
                    "duration": 0.17693940833333954
                },
                {
                    "name": "B1",
                    "midi": 35,
                    "time": 320.87789915416545,
                    "velocity": 0.4251968503937008,
                    "duration": 0.17693940833333954
                },
                {
                    "name": "A1",
                    "midi": 33,
                    "time": 321.0548385624988,
                    "velocity": 0.44881889763779526,
                    "duration": 0.17779833750000762
                },
                {
                    "name": "G1",
                    "midi": 31,
                    "time": 321.2326368999988,
                    "velocity": 0.4645669291338583,
                    "duration": 0.17693940833333954
                },
                {
                    "name": "F1",
                    "midi": 29,
                    "time": 321.40957630833213,
                    "velocity": 0.4881889763779528,
                    "duration": 0.17350369166666724
                },
                {
                    "name": "E1",
                    "midi": 28,
                    "time": 321.5830799999988,
                    "velocity": 0.5748031496062992,
                    "duration": 0.2061429999999973
                },
                {
                    "name": "E2",
                    "midi": 40,
                    "time": 321.5830799999988,
                    "velocity": 0.5748031496062992,
                    "duration": 0.2061429999999973
                },
                {
                    "name": "D4",
                    "midi": 62,
                    "time": 322.2015089999988,
                    "velocity": 0.4409448818897638,
                    "duration": 0.6184289999999919
                },
                {
                    "name": "B3",
                    "midi": 59,
                    "time": 322.2015089999988,
                    "velocity": 0.3700787401574803,
                    "duration": 0.6184289999999919
                },
                {
                    "name": "E3",
                    "midi": 52,
                    "time": 322.2015089999988,
                    "velocity": 0.3700787401574803,
                    "duration": 2.0442514166666683
                },
                {
                    "name": "A3",
                    "midi": 57,
                    "time": 322.8199379999988,
                    "velocity": 0.3700787401574803,
                    "duration": 0.6184289999999919
                },
                {
                    "name": "C4",
                    "midi": 60,
                    "time": 322.8199379999988,
                    "velocity": 0.4409448818897638,
                    "duration": 0.6184289999999919
                },
                {
                    "name": "A3",
                    "midi": 57,
                    "time": 323.4383669999988,
                    "velocity": 0.4409448818897638,
                    "duration": 0.6184289999999919
                },
                {
                    "name": "F#3",
                    "midi": 54,
                    "time": 323.4383669999988,
                    "velocity": 0.3700787401574803,
                    "duration": 0.6184289999999919
                },
                {
                    "name": "B3",
                    "midi": 59,
                    "time": 324.05679599999877,
                    "velocity": 0.4409448818897638,
                    "duration": 0.10307149999999865
                },
                {
                    "name": "G3",
                    "midi": 55,
                    "time": 324.05679599999877,
                    "velocity": 0.3700787401574803,
                    "duration": 0.10307149999999865
                },
                {
                    "name": "E3",
                    "midi": 52,
                    "time": 324.2629389999988,
                    "velocity": 0.3464566929133858,
                    "duration": 0.10307149999999865
                },
                {
                    "name": "G3",
                    "midi": 55,
                    "time": 324.2629389999988,
                    "velocity": 0.4094488188976378,
                    "duration": 0.10307149999999865
                },
                {
                    "name": "F#3",
                    "midi": 54,
                    "time": 324.4690819999988,
                    "velocity": 0.3700787401574803,
                    "duration": 0.10307149999999865
                },
                {
                    "name": "A3",
                    "midi": 57,
                    "time": 324.4690819999988,
                    "velocity": 0.4409448818897638,
                    "duration": 0.10307149999999865
                },
                {
                    "name": "F#3",
                    "midi": 54,
                    "time": 324.6752249999988,
                    "velocity": 0.3937007874015748,
                    "duration": 0.10307149999999865
                },
                {
                    "name": "D#3",
                    "midi": 51,
                    "time": 324.6752249999988,
                    "velocity": 0.33070866141732286,
                    "duration": 0.10307149999999865
                },
                {
                    "name": "G3",
                    "midi": 55,
                    "time": 324.8813679999988,
                    "velocity": 0.4409448818897638,
                    "duration": 0.10307149999999865
                },
                {
                    "name": "E3",
                    "midi": 52,
                    "time": 324.8813679999988,
                    "velocity": 0.3700787401574803,
                    "duration": 0.10307149999999865
                },
                {
                    "name": "C#3",
                    "midi": 49,
                    "time": 325.0875109999988,
                    "velocity": 0.3464566929133858,
                    "duration": 0.10307149999999865
                },
                {
                    "name": "E3",
                    "midi": 52,
                    "time": 325.0875109999988,
                    "velocity": 0.4094488188976378,
                    "duration": 0.10307149999999865
                },
                {
                    "name": "F#3",
                    "midi": 54,
                    "time": 325.2936539999988,
                    "velocity": 0.4409448818897638,
                    "duration": 0.10307149999999865
                },
                {
                    "name": "D#3",
                    "midi": 51,
                    "time": 325.2936539999988,
                    "velocity": 0.3700787401574803,
                    "duration": 0.10307149999999865
                },
                {
                    "name": "B2",
                    "midi": 47,
                    "time": 325.9120829999988,
                    "velocity": 0.4330708661417323,
                    "duration": 0.8245719999999892
                },
                {
                    "name": "B3",
                    "midi": 59,
                    "time": 325.9120829999988,
                    "velocity": 0.5354330708661418,
                    "duration": 0.8245719999999892
                },
                {
                    "name": "C#3",
                    "midi": 49,
                    "time": 326.7366549999988,
                    "velocity": 0.3858267716535433,
                    "duration": 0.10307149999999865
                },
                {
                    "name": "D#3",
                    "midi": 51,
                    "time": 326.9427979999988,
                    "velocity": 0.3937007874015748,
                    "duration": 0.10307149999999865
                },
                {
                    "name": "E3",
                    "midi": 52,
                    "time": 327.1489409999988,
                    "velocity": 0.4094488188976378,
                    "duration": 0.10307149999999865
                },
                {
                    "name": "F#3",
                    "midi": 54,
                    "time": 327.3550839999988,
                    "velocity": 0.41732283464566927,
                    "duration": 0.10307149999999865
                },
                {
                    "name": "G3",
                    "midi": 55,
                    "time": 327.5612269999988,
                    "velocity": 0.4251968503937008,
                    "duration": 0.10307149999999865
                },
                {
                    "name": "F#3",
                    "midi": 54,
                    "time": 327.7673699999988,
                    "velocity": 0.4409448818897638,
                    "duration": 0.10307149999999865
                },
                {
                    "name": "D#3",
                    "midi": 51,
                    "time": 327.7673699999988,
                    "velocity": 0.3700787401574803,
                    "duration": 0.10307149999999865
                },
                {
                    "name": "B2",
                    "midi": 47,
                    "time": 328.38579899999877,
                    "velocity": 0.4330708661417323,
                    "duration": 0.8245719999999892
                },
                {
                    "name": "B3",
                    "midi": 59,
                    "time": 328.38579899999877,
                    "velocity": 0.5354330708661418,
                    "duration": 0.8245719999999892
                },
                {
                    "name": "C#3",
                    "midi": 49,
                    "time": 329.21037099999876,
                    "velocity": 0.3858267716535433,
                    "duration": 0.10307149999999865
                },
                {
                    "name": "D#3",
                    "midi": 51,
                    "time": 329.41651399999876,
                    "velocity": 0.3937007874015748,
                    "duration": 0.10307149999999865
                },
                {
                    "name": "E3",
                    "midi": 52,
                    "time": 329.62265699999875,
                    "velocity": 0.4094488188976378,
                    "duration": 0.10307149999999865
                },
                {
                    "name": "F#3",
                    "midi": 54,
                    "time": 329.82879999999875,
                    "velocity": 0.41732283464566927,
                    "duration": 0.10307149999999865
                },
                {
                    "name": "G3",
                    "midi": 55,
                    "time": 330.03494299999875,
                    "velocity": 0.4251968503937008,
                    "duration": 0.10307149999999865
                },
                {
                    "name": "F#3",
                    "midi": 54,
                    "time": 330.24108599999875,
                    "velocity": 0.3700787401574803,
                    "duration": 0.10307149999999865
                },
                {
                    "name": "A3",
                    "midi": 57,
                    "time": 330.24108599999875,
                    "velocity": 0.4409448818897638,
                    "duration": 0.10307149999999865
                },
                {
                    "name": "D4",
                    "midi": 62,
                    "time": 330.85951499999874,
                    "velocity": 0.5354330708661418,
                    "duration": 0.4122859999999946
                },
                {
                    "name": "D3",
                    "midi": 50,
                    "time": 330.85951499999874,
                    "velocity": 0.4330708661417323,
                    "duration": 0.4122859999999946
                },
                {
                    "name": "G1",
                    "midi": 31,
                    "time": 331.47794399999873,
                    "velocity": 0.4015748031496063,
                    "duration": 0.2061429999999973
                },
                {
                    "name": "G2",
                    "midi": 43,
                    "time": 331.47794399999873,
                    "velocity": 0.48031496062992124,
                    "duration": 0.2061429999999973
                },
                {
                    "name": "G3",
                    "midi": 55,
                    "time": 332.0963729999987,
                    "velocity": 0.3700787401574803,
                    "duration": 2.0442514166666683
                },
                {
                    "name": "A4",
                    "midi": 69,
                    "time": 332.0963729999987,
                    "velocity": 0.4409448818897638,
                    "duration": 0.6184289999999919
                },
                {
                    "name": "F4",
                    "midi": 65,
                    "time": 332.0963729999987,
                    "velocity": 0.3700787401574803,
                    "duration": 0.6184289999999919
                },
                {
                    "name": "E4",
                    "midi": 64,
                    "time": 332.7148019999987,
                    "velocity": 0.3700787401574803,
                    "duration": 0.6184289999999919
                },
                {
                    "name": "G4",
                    "midi": 67,
                    "time": 332.7148019999987,
                    "velocity": 0.4409448818897638,
                    "duration": 0.6184289999999919
                },
                {
                    "name": "E4",
                    "midi": 64,
                    "time": 333.3332309999987,
                    "velocity": 0.4409448818897638,
                    "duration": 0.6184289999999919
                },
                {
                    "name": "C4",
                    "midi": 60,
                    "time": 333.3332309999987,
                    "velocity": 0.3700787401574803,
                    "duration": 0.6184289999999919
                },
                {
                    "name": "D4",
                    "midi": 62,
                    "time": 333.9516599999987,
                    "velocity": 0.3700787401574803,
                    "duration": 0.10307149999999865
                },
                {
                    "name": "F4",
                    "midi": 65,
                    "time": 333.9516599999987,
                    "velocity": 0.4409448818897638,
                    "duration": 0.10307149999999865
                },
                {
                    "name": "D4",
                    "midi": 62,
                    "time": 334.15780299999875,
                    "velocity": 0.4094488188976378,
                    "duration": 0.10307149999999865
                },
                {
                    "name": "B3",
                    "midi": 59,
                    "time": 334.15780299999875,
                    "velocity": 0.3464566929133858,
                    "duration": 0.10307149999999865
                },
                {
                    "name": "C4",
                    "midi": 60,
                    "time": 334.36394599999875,
                    "velocity": 0.3700787401574803,
                    "duration": 0.10307149999999865
                },
                {
                    "name": "E4",
                    "midi": 64,
                    "time": 334.36394599999875,
                    "velocity": 0.4409448818897638,
                    "duration": 0.10307149999999865
                },
                {
                    "name": "A3",
                    "midi": 57,
                    "time": 334.57008899999875,
                    "velocity": 0.33070866141732286,
                    "duration": 0.10307149999999865
                },
                {
                    "name": "C4",
                    "midi": 60,
                    "time": 334.57008899999875,
                    "velocity": 0.3937007874015748,
                    "duration": 0.10307149999999865
                },
                {
                    "name": "B3",
                    "midi": 59,
                    "time": 334.77623199999874,
                    "velocity": 0.3700787401574803,
                    "duration": 0.10307149999999865
                },
                {
                    "name": "D4",
                    "midi": 62,
                    "time": 334.77623199999874,
                    "velocity": 0.4409448818897638,
                    "duration": 0.10307149999999865
                },
                {
                    "name": "B3",
                    "midi": 59,
                    "time": 334.98237499999874,
                    "velocity": 0.4094488188976378,
                    "duration": 0.10307149999999865
                },
                {
                    "name": "G3",
                    "midi": 55,
                    "time": 334.98237499999874,
                    "velocity": 0.3464566929133858,
                    "duration": 0.10307149999999865
                },
                {
                    "name": "A3",
                    "midi": 57,
                    "time": 335.18851799999874,
                    "velocity": 0.3700787401574803,
                    "duration": 0.10307149999999865
                },
                {
                    "name": "C4",
                    "midi": 60,
                    "time": 335.18851799999874,
                    "velocity": 0.4409448818897638,
                    "duration": 0.10307149999999865
                },
                {
                    "name": "A3",
                    "midi": 57,
                    "time": 335.60080399999873,
                    "velocity": 0.3464566929133858,
                    "duration": 0.10307149999999865
                },
                {
                    "name": "C4",
                    "midi": 60,
                    "time": 335.60080399999873,
                    "velocity": 0.41732283464566927,
                    "duration": 0.10307149999999865
                },
                {
                    "name": "F3",
                    "midi": 53,
                    "time": 335.80694699999873,
                    "velocity": 0.4330708661417323,
                    "duration": 0.6184289999999919
                },
                {
                    "name": "A3",
                    "midi": 57,
                    "time": 335.80694699999873,
                    "velocity": 0.5354330708661418,
                    "duration": 0.6184289999999919
                },
                {
                    "name": "E2",
                    "midi": 40,
                    "time": 336.4253759999987,
                    "velocity": 0.31496062992125984,
                    "duration": 0.4122859999999946
                },
                {
                    "name": "E3",
                    "midi": 52,
                    "time": 336.4253759999987,
                    "velocity": 0.36220472440944884,
                    "duration": 0.4122859999999946
                },
                {
                    "name": "G3",
                    "midi": 55,
                    "time": 337.0438049999987,
                    "velocity": 0.2677165354330709,
                    "duration": 0.4122859999999946
                },
                {
                    "name": "C4",
                    "midi": 60,
                    "time": 337.0438049999987,
                    "velocity": 0.30708661417322836,
                    "duration": 0.4122859999999946
                },
                {
                    "name": "E3",
                    "midi": 52,
                    "time": 337.0438049999987,
                    "velocity": 0.2677165354330709,
                    "duration": 0.4122859999999946
                },
                {
                    "name": "D3",
                    "midi": 50,
                    "time": 337.6622339999987,
                    "velocity": 0.36220472440944884,
                    "duration": 0.4122859999999946
                },
                {
                    "name": "D2",
                    "midi": 38,
                    "time": 337.6622339999987,
                    "velocity": 0.31496062992125984,
                    "duration": 0.4122859999999946
                },
                {
                    "name": "F3",
                    "midi": 53,
                    "time": 338.2806629999987,
                    "velocity": 0.2677165354330709,
                    "duration": 0.4122859999999946
                },
                {
                    "name": "A3",
                    "midi": 57,
                    "time": 338.2806629999987,
                    "velocity": 0.2677165354330709,
                    "duration": 0.4122859999999946
                },
                {
                    "name": "D3",
                    "midi": 50,
                    "time": 338.2806629999987,
                    "velocity": 0.2677165354330709,
                    "duration": 0.4122859999999946
                },
                {
                    "name": "C4",
                    "midi": 60,
                    "time": 338.2806629999987,
                    "velocity": 0.30708661417322836,
                    "duration": 0.4122859999999946
                },
                {
                    "name": "C2",
                    "midi": 36,
                    "time": 338.8990919999987,
                    "velocity": 0.31496062992125984,
                    "duration": 0.4122859999999946
                },
                {
                    "name": "C3",
                    "midi": 48,
                    "time": 338.8990919999987,
                    "velocity": 0.36220472440944884,
                    "duration": 0.4122859999999946
                },
                {
                    "name": "A3",
                    "midi": 57,
                    "time": 339.5175209999987,
                    "velocity": 0.2992125984251969,
                    "duration": 0.4122859999999946
                },
                {
                    "name": "E3",
                    "midi": 52,
                    "time": 339.5175209999987,
                    "velocity": 0.2992125984251969,
                    "duration": 0.4122859999999946
                },
                {
                    "name": "C3",
                    "midi": 48,
                    "time": 339.5175209999987,
                    "velocity": 0.2992125984251969,
                    "duration": 0.4122859999999946
                },
                {
                    "name": "C4",
                    "midi": 60,
                    "time": 339.5175209999987,
                    "velocity": 0.3464566929133858,
                    "duration": 0.4122859999999946
                },
                {
                    "name": "B2",
                    "midi": 47,
                    "time": 340.1359499999987,
                    "velocity": 0.44881889763779526,
                    "duration": 0.4122859999999946
                },
                {
                    "name": "B1",
                    "midi": 35,
                    "time": 340.1359499999987,
                    "velocity": 0.3937007874015748,
                    "duration": 0.4122859999999946
                },
                {
                    "name": "F#3",
                    "midi": 54,
                    "time": 340.75437899999866,
                    "velocity": 0.31496062992125984,
                    "duration": 0.4122859999999946
                },
                {
                    "name": "D#4",
                    "midi": 63,
                    "time": 340.75437899999866,
                    "velocity": 0.36220472440944884,
                    "duration": 0.4122859999999946
                },
                {
                    "name": "B3",
                    "midi": 59,
                    "time": 340.75437899999866,
                    "velocity": 0.31496062992125984,
                    "duration": 0.4122859999999946
                },
                {
                    "name": "C1",
                    "midi": 24,
                    "time": 341.37280799999866,
                    "velocity": 0.4015748031496063,
                    "duration": 0.2061429999999973
                },
                {
                    "name": "C2",
                    "midi": 36,
                    "time": 341.37280799999866,
                    "velocity": 0.48031496062992124,
                    "duration": 0.2061429999999973
                },
                {
                    "name": "C2",
                    "midi": 36,
                    "time": 341.99123699999865,
                    "velocity": 0.3464566929133858,
                    "duration": 1.6491439999999784
                },
                {
                    "name": "A#2",
                    "midi": 46,
                    "time": 341.99123699999865,
                    "velocity": 0.41732283464566927,
                    "duration": 0.6184289999999919
                },
                {
                    "name": "G2",
                    "midi": 43,
                    "time": 341.99123699999865,
                    "velocity": 0.3464566929133858,
                    "duration": 0.6184289999999919
                },
                {
                    "name": "A2",
                    "midi": 45,
                    "time": 342.60966599999864,
                    "velocity": 0.41732283464566927,
                    "duration": 0.6184289999999919
                },
                {
                    "name": "F2",
                    "midi": 41,
                    "time": 342.60966599999864,
                    "velocity": 0.3464566929133858,
                    "duration": 0.6184289999999919
                },
                {
                    "name": "F2",
                    "midi": 41,
                    "time": 343.22809499999863,
                    "velocity": 0.41732283464566927,
                    "duration": 0.6184289999999919
                },
                {
                    "name": "D2",
                    "midi": 38,
                    "time": 343.22809499999863,
                    "velocity": 0.3464566929133858,
                    "duration": 0.6184289999999919
                },
                {
                    "name": "E2",
                    "midi": 40,
                    "time": 343.8465239999986,
                    "velocity": 0.3464566929133858,
                    "duration": 0.10307149999999865
                },
                {
                    "name": "G2",
                    "midi": 43,
                    "time": 343.8465239999986,
                    "velocity": 0.41732283464566927,
                    "duration": 0.10307149999999865
                },
                {
                    "name": "C#2",
                    "midi": 37,
                    "time": 344.0526669999986,
                    "velocity": 0.3858267716535433,
                    "duration": 0.10307149999999865
                },
                {
                    "name": "D2",
                    "midi": 38,
                    "time": 344.2588099999986,
                    "velocity": 0.41732283464566927,
                    "duration": 0.10307149999999865
                },
                {
                    "name": "B1",
                    "midi": 35,
                    "time": 344.4649529999986,
                    "velocity": 0.3700787401574803,
                    "duration": 0.10307149999999865
                },
                {
                    "name": "C#2",
                    "midi": 37,
                    "time": 344.6710959999986,
                    "velocity": 0.41732283464566927,
                    "duration": 0.10307149999999865
                },
                {
                    "name": "A1",
                    "midi": 33,
                    "time": 344.8772389999986,
                    "velocity": 0.3858267716535433,
                    "duration": 0.10307149999999865
                },
                {
                    "name": "D2",
                    "midi": 38,
                    "time": 345.0833819999986,
                    "velocity": 0.41732283464566927,
                    "duration": 0.10307149999999865
                },
                {
                    "name": "D2",
                    "midi": 38,
                    "time": 345.7018109999986,
                    "velocity": 0.5039370078740157,
                    "duration": 0.6184289999999919
                },
                {
                    "name": "D1",
                    "midi": 26,
                    "time": 345.7018109999986,
                    "velocity": 0.4094488188976378,
                    "duration": 0.6184289999999919
                },
                {
                    "name": "D#2",
                    "midi": 39,
                    "time": 346.3202399999986,
                    "velocity": 0.48031496062992124,
                    "duration": 0.2061429999999973
                },
                {
                    "name": "D#1",
                    "midi": 27,
                    "time": 346.3202399999986,
                    "velocity": 0.4015748031496063,
                    "duration": 0.2061429999999973
                },
                {
                    "name": "A#2",
                    "midi": 46,
                    "time": 346.9386689999986,
                    "velocity": 0.3464566929133858,
                    "duration": 0.6184289999999919
                },
                {
                    "name": "D#2",
                    "midi": 39,
                    "time": 346.9386689999986,
                    "velocity": 0.3464566929133858,
                    "duration": 1.6491439999999784
                },
                {
                    "name": "C#3",
                    "midi": 49,
                    "time": 346.9386689999986,
                    "velocity": 0.41732283464566927,
                    "duration": 0.6184289999999919
                },
                {
                    "name": "C3",
                    "midi": 48,
                    "time": 347.5570979999986,
                    "velocity": 0.41732283464566927,
                    "duration": 0.6184289999999919
                },
                {
                    "name": "G#2",
                    "midi": 44,
                    "time": 347.5570979999986,
                    "velocity": 0.3464566929133858,
                    "duration": 0.6184289999999919
                },
                {
                    "name": "G#2",
                    "midi": 44,
                    "time": 348.17552699999857,
                    "velocity": 0.41732283464566927,
                    "duration": 0.6184289999999919
                },
                {
                    "name": "F2",
                    "midi": 41,
                    "time": 348.17552699999857,
                    "velocity": 0.3464566929133858,
                    "duration": 0.6184289999999919
                },
                {
                    "name": "A#2",
                    "midi": 46,
                    "time": 348.79395599999856,
                    "velocity": 0.41732283464566927,
                    "duration": 0.10307149999999865
                },
                {
                    "name": "G2",
                    "midi": 43,
                    "time": 348.79395599999856,
                    "velocity": 0.3464566929133858,
                    "duration": 0.10307149999999865
                },
                {
                    "name": "E2",
                    "midi": 40,
                    "time": 349.00009899999856,
                    "velocity": 0.3858267716535433,
                    "duration": 0.10307149999999865
                },
                {
                    "name": "F2",
                    "midi": 41,
                    "time": 349.20624199999855,
                    "velocity": 0.41732283464566927,
                    "duration": 0.10307149999999865
                },
                {
                    "name": "D2",
                    "midi": 38,
                    "time": 349.41238499999855,
                    "velocity": 0.3700787401574803,
                    "duration": 0.10307149999999865
                },
                {
                    "name": "E2",
                    "midi": 40,
                    "time": 349.61852799999855,
                    "velocity": 0.41732283464566927,
                    "duration": 0.10307149999999865
                },
                {
                    "name": "C2",
                    "midi": 36,
                    "time": 349.82467099999855,
                    "velocity": 0.3858267716535433,
                    "duration": 0.10307149999999865
                },
                {
                    "name": "F2",
                    "midi": 41,
                    "time": 350.03081399999854,
                    "velocity": 0.41732283464566927,
                    "duration": 0.10307149999999865
                },
                {
                    "name": "F2",
                    "midi": 41,
                    "time": 350.64924299999853,
                    "velocity": 0.5039370078740157,
                    "duration": 0.6184289999999919
                },
                {
                    "name": "F1",
                    "midi": 29,
                    "time": 350.64924299999853,
                    "velocity": 0.4094488188976378,
                    "duration": 0.6184289999999919
                },
                {
                    "name": "F#2",
                    "midi": 42,
                    "time": 351.2676719999985,
                    "velocity": 0.48031496062992124,
                    "duration": 0.2061429999999973
                },
                {
                    "name": "F#1",
                    "midi": 30,
                    "time": 351.2676719999985,
                    "velocity": 0.4015748031496063,
                    "duration": 0.2061429999999973
                },
                {
                    "name": "F#3",
                    "midi": 54,
                    "time": 351.8861009999985,
                    "velocity": 0.3937007874015748,
                    "duration": 1.6491439999999784
                },
                {
                    "name": "C#4",
                    "midi": 61,
                    "time": 351.8861009999985,
                    "velocity": 0.3937007874015748,
                    "duration": 0.6184289999999919
                },
                {
                    "name": "E4",
                    "midi": 64,
                    "time": 351.8861009999985,
                    "velocity": 0.47244094488188976,
                    "duration": 0.6184289999999919
                },
                {
                    "name": "D#4",
                    "midi": 63,
                    "time": 352.5045299999985,
                    "velocity": 0.47244094488188976,
                    "duration": 0.6184289999999919
                },
                {
                    "name": "B3",
                    "midi": 59,
                    "time": 352.5045299999985,
                    "velocity": 0.3937007874015748,
                    "duration": 0.6184289999999919
                },
                {
                    "name": "B3",
                    "midi": 59,
                    "time": 353.1229589999985,
                    "velocity": 0.47244094488188976,
                    "duration": 0.6184289999999919
                },
                {
                    "name": "G#3",
                    "midi": 56,
                    "time": 353.1229589999985,
                    "velocity": 0.3937007874015748,
                    "duration": 0.6184289999999919
                },
                {
                    "name": "F#2",
                    "midi": 42,
                    "time": 353.7413879999985,
                    "velocity": 0.28346456692913385,
                    "duration": 2.4737159999999676
                },
                {
                    "name": "G3",
                    "midi": 55,
                    "time": 354.3598169999985,
                    "velocity": 0.2440944881889764,
                    "duration": 0.6184289999999919
                },
                {
                    "name": "F#3",
                    "midi": 54,
                    "time": 354.9782459999985,
                    "velocity": 0.2440944881889764,
                    "duration": 0.6184289999999919
                },
                {
                    "name": "D3",
                    "midi": 50,
                    "time": 355.59667499999847,
                    "velocity": 0.2440944881889764,
                    "duration": 0.6184289999999919
                },
                {
                    "name": "F#1",
                    "midi": 30,
                    "time": 356.21510399999846,
                    "velocity": 0.48031496062992124,
                    "duration": 0.2061429999999973
                },
                {
                    "name": "F#2",
                    "midi": 42,
                    "time": 356.22627007916515,
                    "velocity": 0.5748031496062992,
                    "duration": 0.2061429999999973
                },
                {
                    "name": "F#3",
                    "midi": 54,
                    "time": 356.62738999999846,
                    "velocity": 0.30708661417322836,
                    "duration": 0.8159827083333084
                },
                {
                    "name": "C#4",
                    "midi": 61,
                    "time": 356.62738999999846,
                    "velocity": 0.3779527559055118,
                    "duration": 0.2061429999999973
                },
                {
                    "name": "E4",
                    "midi": 64,
                    "time": 356.62738999999846,
                    "velocity": 0.4566929133858268,
                    "duration": 0.2061429999999973
                },
                {
                    "name": "D#4",
                    "midi": 63,
                    "time": 356.83353299999845,
                    "velocity": 0.4566929133858268,
                    "duration": 0.4122859999999946
                },
                {
                    "name": "B3",
                    "midi": 59,
                    "time": 356.83353299999845,
                    "velocity": 0.3779527559055118,
                    "duration": 0.4122859999999946
                },
                {
                    "name": "B3",
                    "midi": 59,
                    "time": 357.24581899999845,
                    "velocity": 0.4566929133858268,
                    "duration": 0.2061429999999973
                },
                {
                    "name": "G#3",
                    "midi": 56,
                    "time": 357.24581899999845,
                    "velocity": 0.3779527559055118,
                    "duration": 0.2061429999999973
                },
                {
                    "name": "F#3",
                    "midi": 54,
                    "time": 357.45196199999845,
                    "velocity": 0.5748031496062992,
                    "duration": 1.2368579999999838
                },
                {
                    "name": "E4",
                    "midi": 64,
                    "time": 357.86424799999844,
                    "velocity": 0.3779527559055118,
                    "duration": 0.2061429999999973
                },
                {
                    "name": "G#4",
                    "midi": 68,
                    "time": 357.86424799999844,
                    "velocity": 0.4566929133858268,
                    "duration": 0.2061429999999973
                },
                {
                    "name": "F#4",
                    "midi": 66,
                    "time": 358.07039099999844,
                    "velocity": 0.4566929133858268,
                    "duration": 0.4122859999999946
                },
                {
                    "name": "D#4",
                    "midi": 63,
                    "time": 358.07039099999844,
                    "velocity": 0.3779527559055118,
                    "duration": 0.4122859999999946
                },
                {
                    "name": "D#4",
                    "midi": 63,
                    "time": 358.48267699999843,
                    "velocity": 0.4566929133858268,
                    "duration": 0.2061429999999973
                },
                {
                    "name": "B3",
                    "midi": 59,
                    "time": 358.48267699999843,
                    "velocity": 0.3779527559055118,
                    "duration": 0.2061429999999973
                },
                {
                    "name": "F#2",
                    "midi": 42,
                    "time": 358.68881999999843,
                    "velocity": 0.28346456692913385,
                    "duration": 1.2368579999999838
                },
                {
                    "name": "G3",
                    "midi": 55,
                    "time": 359.1011059999984,
                    "velocity": 0.2440944881889764,
                    "duration": 0.2061429999999973
                },
                {
                    "name": "F#3",
                    "midi": 54,
                    "time": 359.3072489999984,
                    "velocity": 0.2440944881889764,
                    "duration": 0.4122859999999946
                },
                {
                    "name": "D3",
                    "midi": 50,
                    "time": 359.7195349999984,
                    "velocity": 0.2440944881889764,
                    "duration": 0.2061429999999973
                },
                {
                    "name": "F#2",
                    "midi": 42,
                    "time": 359.9256779999984,
                    "velocity": 0.28346456692913385,
                    "duration": 1.2368579999999838
                },
                {
                    "name": "E3",
                    "midi": 52,
                    "time": 360.3379639999984,
                    "velocity": 0.2440944881889764,
                    "duration": 0.2061429999999973
                },
                {
                    "name": "D3",
                    "midi": 50,
                    "time": 360.5441069999984,
                    "velocity": 0.2125984251968504,
                    "duration": 0.4122859999999946
                },
                {
                    "name": "B2",
                    "midi": 47,
                    "time": 360.9563929999984,
                    "velocity": 0.2283464566929134,
                    "duration": 0.2061429999999973
                },
                {
                    "name": "F#2",
                    "midi": 42,
                    "time": 361.1625359999984,
                    "velocity": 0.25984251968503935,
                    "duration": 0.10307149999999865
                },
                {
                    "name": "B1",
                    "midi": 35,
                    "time": 361.3686789999984,
                    "velocity": 0.2125984251968504,
                    "duration": 0.10307149999999865
                },
                {
                    "name": "F#2",
                    "midi": 42,
                    "time": 361.5748219999984,
                    "velocity": 0.25196850393700787,
                    "duration": 0.10307149999999865
                },
                {
                    "name": "B1",
                    "midi": 35,
                    "time": 361.7809649999984,
                    "velocity": 0.2047244094488189,
                    "duration": 0.10307149999999865
                },
                {
                    "name": "F#2",
                    "midi": 42,
                    "time": 361.9871079999984,
                    "velocity": 0.2440944881889764,
                    "duration": 0.10307149999999865
                },
                {
                    "name": "B1",
                    "midi": 35,
                    "time": 362.1932509999984,
                    "velocity": 0.2125984251968504,
                    "duration": 0.10307149999999865
                },
                {
                    "name": "F#2",
                    "midi": 42,
                    "time": 362.3993939999984,
                    "velocity": 0.2283464566929134,
                    "duration": 0.10307149999999865
                },
                {
                    "name": "B1",
                    "midi": 35,
                    "time": 362.6055369999984,
                    "velocity": 0.2047244094488189,
                    "duration": 0.10307149999999865
                },
                {
                    "name": "F#2",
                    "midi": 42,
                    "time": 362.8116799999984,
                    "velocity": 0.2440944881889764,
                    "duration": 0.10307149999999865
                },
                {
                    "name": "F#2",
                    "midi": 42,
                    "time": 363.63625199999836,
                    "velocity": 0.25196850393700787,
                    "duration": 0.10307149999999865
                },
                {
                    "name": "B1",
                    "midi": 35,
                    "time": 363.84239499999836,
                    "velocity": 0.1968503937007874,
                    "duration": 0.10307149999999865
                },
                {
                    "name": "F#2",
                    "midi": 42,
                    "time": 364.04853799999836,
                    "velocity": 0.2283464566929134,
                    "duration": 0.10307149999999865
                },
                {
                    "name": "F#2",
                    "midi": 42,
                    "time": 364.87310999999835,
                    "velocity": 0.25196850393700787,
                    "duration": 0.10307149999999865
                },
                {
                    "name": "B1",
                    "midi": 35,
                    "time": 365.07925299999835,
                    "velocity": 0.1889763779527559,
                    "duration": 0.10307149999999865
                },
                {
                    "name": "F#2",
                    "midi": 42,
                    "time": 365.28539599999834,
                    "velocity": 0.23622047244094488,
                    "duration": 0.10307149999999865
                },
                {
                    "name": "F#2",
                    "midi": 42,
                    "time": 366.10996799999833,
                    "velocity": 0.25984251968503935,
                    "duration": 0.10307149999999865
                },
                {
                    "name": "B1",
                    "midi": 35,
                    "time": 366.31611099999833,
                    "velocity": 0.2125984251968504,
                    "duration": 0.10307149999999865
                },
                {
                    "name": "F#2",
                    "midi": 42,
                    "time": 366.5222539999983,
                    "velocity": 0.25196850393700787,
                    "duration": 0.10307149999999865
                },
                {
                    "name": "F#2",
                    "midi": 42,
                    "time": 367.3468259999983,
                    "velocity": 0.25196850393700787,
                    "duration": 0.10307149999999865
                },
                {
                    "name": "B1",
                    "midi": 35,
                    "time": 367.5529689999983,
                    "velocity": 0.2204724409448819,
                    "duration": 0.10307149999999865
                },
                {
                    "name": "F#2",
                    "midi": 42,
                    "time": 367.7591119999983,
                    "velocity": 0.2677165354330709,
                    "duration": 0.10307149999999865
                },
                {
                    "name": "F#2",
                    "midi": 42,
                    "time": 368.5836839999983,
                    "velocity": 0.29133858267716534,
                    "duration": 0.10307149999999865
                },
                {
                    "name": "B1",
                    "midi": 35,
                    "time": 368.7898269999983,
                    "velocity": 0.23622047244094488,
                    "duration": 0.10307149999999865
                },
                {
                    "name": "F#2",
                    "midi": 42,
                    "time": 368.9959699999983,
                    "velocity": 0.30708661417322836,
                    "duration": 0.10307149999999865
                },
                {
                    "name": "B1",
                    "midi": 35,
                    "time": 369.8205419999983,
                    "velocity": 0.3543307086614173,
                    "duration": 0.10307149999999865
                },
                {
                    "name": "F#2",
                    "midi": 42,
                    "time": 370.0266849999983,
                    "velocity": 0.2755905511811024,
                    "duration": 0.10307149999999865
                },
                {
                    "name": "B1",
                    "midi": 35,
                    "time": 370.2328279999983,
                    "velocity": 0.3543307086614173,
                    "duration": 0.10307149999999865
                },
                {
                    "name": "F#2",
                    "midi": 42,
                    "time": 370.4389709999983,
                    "velocity": 0.3228346456692913,
                    "duration": 0.10307149999999865
                },
                {
                    "name": "B1",
                    "midi": 35,
                    "time": 371.05739999999827,
                    "velocity": 0.4015748031496063,
                    "duration": 0.10307149999999865
                },
                {
                    "name": "F#2",
                    "midi": 42,
                    "time": 371.26354299999826,
                    "velocity": 0.30708661417322836,
                    "duration": 0.10307149999999865
                },
                {
                    "name": "B1",
                    "midi": 35,
                    "time": 371.46968599999826,
                    "velocity": 0.4015748031496063,
                    "duration": 0.10307149999999865
                },
                {
                    "name": "F#2",
                    "midi": 42,
                    "time": 371.67582899999826,
                    "velocity": 0.36220472440944884,
                    "duration": 0.10307149999999865
                },
                {
                    "name": "B1",
                    "midi": 35,
                    "time": 372.29425799999825,
                    "velocity": 0.5039370078740157,
                    "duration": 0.10307149999999865
                },
                {
                    "name": "F#2",
                    "midi": 42,
                    "time": 372.50040099999825,
                    "velocity": 0.41732283464566927,
                    "duration": 0.10307149999999865
                },
                {
                    "name": "B1",
                    "midi": 35,
                    "time": 372.70654399999825,
                    "velocity": 0.4566929133858268,
                    "duration": 0.10307149999999865
                },
                {
                    "name": "F#2",
                    "midi": 42,
                    "time": 372.91268699999824,
                    "velocity": 0.41732283464566927,
                    "duration": 0.10307149999999865
                },
                {
                    "name": "B1",
                    "midi": 35,
                    "time": 373.53111599999824,
                    "velocity": 0.4015748031496063,
                    "duration": 0.10307149999999865
                },
                {
                    "name": "B2",
                    "midi": 47,
                    "time": 373.53111599999824,
                    "velocity": 0.48031496062992124,
                    "duration": 0.10307149999999865
                },
                {
                    "name": "F#3",
                    "midi": 54,
                    "time": 373.73725899999823,
                    "velocity": 0.41732283464566927,
                    "duration": 0.10307149999999865
                },
                {
                    "name": "F#2",
                    "midi": 42,
                    "time": 373.73725899999823,
                    "velocity": 0.3543307086614173,
                    "duration": 0.10307149999999865
                },
                {
                    "name": "B2",
                    "midi": 47,
                    "time": 373.94340199999823,
                    "velocity": 0.47244094488188976,
                    "duration": 0.10307149999999865
                },
                {
                    "name": "B1",
                    "midi": 35,
                    "time": 373.94340199999823,
                    "velocity": 0.4015748031496063,
                    "duration": 0.10307149999999865
                },
                {
                    "name": "F#3",
                    "midi": 54,
                    "time": 374.1495449999982,
                    "velocity": 0.41732283464566927,
                    "duration": 0.10307149999999865
                },
                {
                    "name": "F#2",
                    "midi": 42,
                    "time": 374.1495449999982,
                    "velocity": 0.3543307086614173,
                    "duration": 0.10307149999999865
                },
                {
                    "name": "B1",
                    "midi": 35,
                    "time": 374.3556879999982,
                    "velocity": 0.4094488188976378,
                    "duration": 0.10307149999999865
                },
                {
                    "name": "B2",
                    "midi": 47,
                    "time": 374.3556879999982,
                    "velocity": 0.4881889763779528,
                    "duration": 0.10307149999999865
                },
                {
                    "name": "F#2",
                    "midi": 42,
                    "time": 374.5618309999982,
                    "velocity": 0.3543307086614173,
                    "duration": 0.10307149999999865
                },
                {
                    "name": "F#3",
                    "midi": 54,
                    "time": 374.5618309999982,
                    "velocity": 0.41732283464566927,
                    "duration": 0.10307149999999865
                },
                {
                    "name": "B2",
                    "midi": 47,
                    "time": 374.7679739999982,
                    "velocity": 0.4881889763779528,
                    "duration": 0.10307149999999865
                },
                {
                    "name": "B1",
                    "midi": 35,
                    "time": 374.7679739999982,
                    "velocity": 0.4094488188976378,
                    "duration": 0.10307149999999865
                },
                {
                    "name": "B3",
                    "midi": 59,
                    "time": 375.1802599999982,
                    "velocity": 0.4251968503937008,
                    "duration": 0.10307149999999865
                },
                {
                    "name": "F#3",
                    "midi": 54,
                    "time": 375.3864029999982,
                    "velocity": 0.4566929133858268,
                    "duration": 0.10307149999999865
                },
                {
                    "name": "D#3",
                    "midi": 51,
                    "time": 375.7986889999982,
                    "velocity": 0.4251968503937008,
                    "duration": 0.10307149999999865
                },
                {
                    "name": "B3",
                    "midi": 59,
                    "time": 376.0048319999982,
                    "velocity": 0.47244094488188976,
                    "duration": 0.10307149999999865
                },
                {
                    "name": "B2",
                    "midi": 47,
                    "time": 376.0048319999982,
                    "velocity": 0.4015748031496063,
                    "duration": 0.10307149999999865
                },
                {
                    "name": "G3",
                    "midi": 55,
                    "time": 376.4171179999982,
                    "velocity": 0.4251968503937008,
                    "duration": 0.10307149999999865
                },
                {
                    "name": "G2",
                    "midi": 43,
                    "time": 376.4171179999982,
                    "velocity": 0.3543307086614173,
                    "duration": 0.10307149999999865
                },
                {
                    "name": "F#3",
                    "midi": 54,
                    "time": 376.6232609999982,
                    "velocity": 0.41732283464566927,
                    "duration": 0.10307149999999865
                },
                {
                    "name": "F#2",
                    "midi": 42,
                    "time": 376.6232609999982,
                    "velocity": 0.3543307086614173,
                    "duration": 0.10307149999999865
                },
                {
                    "name": "B2",
                    "midi": 47,
                    "time": 376.8294039999982,
                    "velocity": 0.4881889763779528,
                    "duration": 0.10307149999999865
                },
                {
                    "name": "B1",
                    "midi": 35,
                    "time": 376.8294039999982,
                    "velocity": 0.4094488188976378,
                    "duration": 0.10307149999999865
                },
                {
                    "name": "F#2",
                    "midi": 42,
                    "time": 377.0355469999982,
                    "velocity": 0.3543307086614173,
                    "duration": 0.10307149999999865
                },
                {
                    "name": "F#3",
                    "midi": 54,
                    "time": 377.0355469999982,
                    "velocity": 0.41732283464566927,
                    "duration": 0.10307149999999865
                },
                {
                    "name": "B2",
                    "midi": 47,
                    "time": 377.2416899999982,
                    "velocity": 0.4881889763779528,
                    "duration": 0.10307149999999865
                },
                {
                    "name": "B1",
                    "midi": 35,
                    "time": 377.2416899999982,
                    "velocity": 0.4094488188976378,
                    "duration": 0.10307149999999865
                },
                {
                    "name": "B3",
                    "midi": 59,
                    "time": 377.6539759999982,
                    "velocity": 0.4251968503937008,
                    "duration": 0.10307149999999865
                },
                {
                    "name": "F#3",
                    "midi": 54,
                    "time": 377.8601189999982,
                    "velocity": 0.4566929133858268,
                    "duration": 0.10307149999999865
                },
                {
                    "name": "D#3",
                    "midi": 51,
                    "time": 378.2724049999982,
                    "velocity": 0.4251968503937008,
                    "duration": 0.10307149999999865
                },
                {
                    "name": "B2",
                    "midi": 47,
                    "time": 378.47854799999817,
                    "velocity": 0.4015748031496063,
                    "duration": 0.10307149999999865
                },
                {
                    "name": "B3",
                    "midi": 59,
                    "time": 378.47854799999817,
                    "velocity": 0.47244094488188976,
                    "duration": 0.10307149999999865
                },
                {
                    "name": "G2",
                    "midi": 43,
                    "time": 378.89083399999816,
                    "velocity": 0.3543307086614173,
                    "duration": 0.10307149999999865
                },
                {
                    "name": "G3",
                    "midi": 55,
                    "time": 378.89083399999816,
                    "velocity": 0.4251968503937008,
                    "duration": 0.10307149999999865
                },
                {
                    "name": "F#3",
                    "midi": 54,
                    "time": 379.09697699999816,
                    "velocity": 0.41732283464566927,
                    "duration": 0.10307149999999865
                },
                {
                    "name": "F#2",
                    "midi": 42,
                    "time": 379.09697699999816,
                    "velocity": 0.3543307086614173,
                    "duration": 0.10307149999999865
                },
                {
                    "name": "B2",
                    "midi": 47,
                    "time": 379.30311999999816,
                    "velocity": 0.4881889763779528,
                    "duration": 0.10307149999999865
                },
                {
                    "name": "B1",
                    "midi": 35,
                    "time": 379.30311999999816,
                    "velocity": 0.4094488188976378,
                    "duration": 0.10307149999999865
                },
                {
                    "name": "F#2",
                    "midi": 42,
                    "time": 379.50926299999816,
                    "velocity": 0.3543307086614173,
                    "duration": 0.10307149999999865
                },
                {
                    "name": "F#3",
                    "midi": 54,
                    "time": 379.50926299999816,
                    "velocity": 0.41732283464566927,
                    "duration": 0.10307149999999865
                },
                {
                    "name": "B2",
                    "midi": 47,
                    "time": 379.71540599999815,
                    "velocity": 0.4881889763779528,
                    "duration": 0.10307149999999865
                },
                {
                    "name": "B1",
                    "midi": 35,
                    "time": 379.71540599999815,
                    "velocity": 0.4094488188976378,
                    "duration": 0.10307149999999865
                },
                {
                    "name": "B3",
                    "midi": 59,
                    "time": 380.12769199999815,
                    "velocity": 0.4251968503937008,
                    "duration": 0.10307149999999865
                },
                {
                    "name": "G3",
                    "midi": 55,
                    "time": 380.33383499999815,
                    "velocity": 0.4566929133858268,
                    "duration": 0.10307149999999865
                },
                {
                    "name": "E3",
                    "midi": 52,
                    "time": 380.74612099999814,
                    "velocity": 0.36220472440944884,
                    "duration": 0.10307149999999865
                },
                {
                    "name": "C3",
                    "midi": 48,
                    "time": 380.95226399999814,
                    "velocity": 0.33858267716535434,
                    "duration": 0.10307149999999865
                },
                {
                    "name": "C4",
                    "midi": 60,
                    "time": 380.95226399999814,
                    "velocity": 0.4094488188976378,
                    "duration": 0.10307149999999865
                },
                {
                    "name": "A2",
                    "midi": 45,
                    "time": 381.36454999999813,
                    "velocity": 0.25196850393700787,
                    "duration": 0.10307149999999865
                },
                {
                    "name": "A3",
                    "midi": 57,
                    "time": 381.36454999999813,
                    "velocity": 0.30708661417322836,
                    "duration": 0.10307149999999865
                },
                {
                    "name": "F#3",
                    "midi": 54,
                    "time": 381.57069299999813,
                    "velocity": 0.3464566929133858,
                    "duration": 0.10307149999999865
                },
                {
                    "name": "F#2",
                    "midi": 42,
                    "time": 381.57069299999813,
                    "velocity": 0.29133858267716534,
                    "duration": 0.10307149999999865
                },
                {
                    "name": "D#2",
                    "midi": 39,
                    "time": 381.9829789999981,
                    "velocity": 0.2047244094488189,
                    "duration": 0.10307149999999865
                },
                {
                    "name": "D#3",
                    "midi": 51,
                    "time": 381.9829789999981,
                    "velocity": 0.2440944881889764,
                    "duration": 0.10307149999999865
                },
                {
                    "name": "B2",
                    "midi": 47,
                    "time": 382.1891219999981,
                    "velocity": 0.2677165354330709,
                    "duration": 0.10307149999999865
                },
                {
                    "name": "B1",
                    "midi": 35,
                    "time": 382.1891219999981,
                    "velocity": 0.2283464566929134,
                    "duration": 0.10307149999999865
                },
                {
                    "name": "G1",
                    "midi": 31,
                    "time": 383.4259799999981,
                    "velocity": 0.18110236220472442,
                    "duration": 0.10307149999999865
                },
                {
                    "name": "G2",
                    "midi": 43,
                    "time": 383.4259799999981,
                    "velocity": 0.2125984251968504,
                    "duration": 0.10307149999999865
                },
                {
                    "name": "E1",
                    "midi": 28,
                    "time": 384.6628379999981,
                    "velocity": 0.18110236220472442,
                    "duration": 0.6184289999999919
                },
                {
                    "name": "E2",
                    "midi": 40,
                    "time": 384.6628379999981,
                    "velocity": 0.2125984251968504,
                    "duration": 0.2061429999999973
                },
                {
                    "name": "G#1",
                    "midi": 32,
                    "time": 385.2812669999981,
                    "velocity": 0.18110236220472442,
                    "duration": 0.6184289999999919
                },
                {
                    "name": "A1",
                    "midi": 33,
                    "time": 385.8996959999981,
                    "velocity": 0.2047244094488189,
                    "duration": 0.6184289999999919
                },
                {
                    "name": "C2",
                    "midi": 36,
                    "time": 386.51812499999807,
                    "velocity": 0.1732283464566929,
                    "duration": 0.6184289999999919
                },
                {
                    "name": "E2",
                    "midi": 40,
                    "time": 387.13655399999806,
                    "velocity": 0.2047244094488189,
                    "duration": 0.6184289999999919
                },
                {
                    "name": "A#1",
                    "midi": 34,
                    "time": 387.75498299999805,
                    "velocity": 0.16535433070866143,
                    "duration": 0.6184289999999919
                },
                {
                    "name": "B1",
                    "midi": 35,
                    "time": 388.37341199999804,
                    "velocity": 0.2047244094488189,
                    "duration": 0.6184289999999919
                },
                {
                    "name": "B2",
                    "midi": 47,
                    "time": 388.99184099999803,
                    "velocity": 0.16535433070866143,
                    "duration": 0.6184289999999919
                },
                {
                    "name": "G2",
                    "midi": 43,
                    "time": 389.610269999998,
                    "velocity": 0.2047244094488189,
                    "duration": 0.6184289999999919
                },
                {
                    "name": "E2",
                    "midi": 40,
                    "time": 390.228698999998,
                    "velocity": 0.16535433070866143,
                    "duration": 0.6184289999999919
                },
                {
                    "name": "B1",
                    "midi": 35,
                    "time": 390.847127999998,
                    "velocity": 0.2047244094488189,
                    "duration": 0.6184289999999919
                },
                {
                    "name": "B2",
                    "midi": 47,
                    "time": 391.465556999998,
                    "velocity": 0.16535433070866143,
                    "duration": 0.6184289999999919
                },
                {
                    "name": "G2",
                    "midi": 43,
                    "time": 392.083985999998,
                    "velocity": 0.2047244094488189,
                    "duration": 0.6184289999999919
                },
                {
                    "name": "E2",
                    "midi": 40,
                    "time": 392.702414999998,
                    "velocity": 0.16535433070866143,
                    "duration": 0.6184289999999919
                },
                {
                    "name": "F#2",
                    "midi": 42,
                    "time": 393.320843999998,
                    "velocity": 0.2047244094488189,
                    "duration": 0.6184289999999919
                },
                {
                    "name": "C#2",
                    "midi": 37,
                    "time": 393.93927299999797,
                    "velocity": 0.16535433070866143,
                    "duration": 0.6184289999999919
                },
                {
                    "name": "A#3",
                    "midi": 58,
                    "time": 394.55770199999796,
                    "velocity": 0.14173228346456693,
                    "duration": 0.2061429999999973
                },
                {
                    "name": "C#4",
                    "midi": 61,
                    "time": 394.55770199999796,
                    "velocity": 0.18110236220472442,
                    "duration": 0.2061429999999973
                },
                {
                    "name": "F#3",
                    "midi": 54,
                    "time": 394.55770199999796,
                    "velocity": 0.14173228346456693,
                    "duration": 0.2061429999999973
                },
                {
                    "name": "C#2",
                    "midi": 37,
                    "time": 395.17613099999795,
                    "velocity": 0.14960629921259844,
                    "duration": 0.6184289999999919
                },
                {
                    "name": "C#4",
                    "midi": 61,
                    "time": 395.79455999999794,
                    "velocity": 0.15748031496062992,
                    "duration": 0.2061429999999973
                },
                {
                    "name": "F#3",
                    "midi": 54,
                    "time": 395.79455999999794,
                    "velocity": 0.11811023622047244,
                    "duration": 0.2061429999999973
                },
                {
                    "name": "A#3",
                    "midi": 58,
                    "time": 395.79455999999794,
                    "velocity": 0.11811023622047244,
                    "duration": 0.2061429999999973
                },
                {
                    "name": "C#2",
                    "midi": 37,
                    "time": 396.41298899999794,
                    "velocity": 0.13385826771653545,
                    "duration": 1.8552869999999757
                },
                {
                    "name": "C#3",
                    "midi": 49,
                    "time": 398.4744189999979,
                    "velocity": 0.4409448818897638,
                    "duration": 0.10307149999999865
                },
                {
                    "name": "C#2",
                    "midi": 37,
                    "time": 398.4744189999979,
                    "velocity": 0.3700787401574803,
                    "duration": 0.10307149999999865
                },
                {
                    "name": "D#2",
                    "midi": 39,
                    "time": 398.6805619999979,
                    "velocity": 0.3779527559055118,
                    "duration": 0.10307149999999865
                },
                {
                    "name": "D#3",
                    "midi": 51,
                    "time": 398.6805619999979,
                    "velocity": 0.44881889763779526,
                    "duration": 0.10307149999999865
                },
                {
                    "name": "F2",
                    "midi": 41,
                    "time": 398.8867049999979,
                    "velocity": 0.3858267716535433,
                    "duration": 0.10307149999999865
                },
                {
                    "name": "F3",
                    "midi": 53,
                    "time": 398.8867049999979,
                    "velocity": 0.4566929133858268,
                    "duration": 0.10307149999999865
                },
                {
                    "name": "F#3",
                    "midi": 54,
                    "time": 399.0928479999979,
                    "velocity": 0.48031496062992124,
                    "duration": 0.10307149999999865
                },
                {
                    "name": "F#2",
                    "midi": 42,
                    "time": 399.0928479999979,
                    "velocity": 0.4015748031496063,
                    "duration": 0.10307149999999865
                },
                {
                    "name": "G#2",
                    "midi": 44,
                    "time": 399.2989909999979,
                    "velocity": 0.41732283464566927,
                    "duration": 0.10307149999999865
                },
                {
                    "name": "G#3",
                    "midi": 56,
                    "time": 399.2989909999979,
                    "velocity": 0.49606299212598426,
                    "duration": 0.10307149999999865
                },
                {
                    "name": "A#3",
                    "midi": 58,
                    "time": 399.5051339999979,
                    "velocity": 0.5118110236220472,
                    "duration": 0.10307149999999865
                },
                {
                    "name": "A#2",
                    "midi": 46,
                    "time": 399.5051339999979,
                    "velocity": 0.4330708661417323,
                    "duration": 0.10307149999999865
                },
                {
                    "name": "C#2",
                    "midi": 37,
                    "time": 399.9174199999979,
                    "velocity": 0.4094488188976378,
                    "duration": 0.10307149999999865
                },
                {
                    "name": "C#3",
                    "midi": 49,
                    "time": 399.9174199999979,
                    "velocity": 0.4881889763779528,
                    "duration": 0.10307149999999865
                },
                {
                    "name": "F#1",
                    "midi": 30,
                    "time": 400.1235629999979,
                    "velocity": 0.49606299212598426,
                    "duration": 0.10307149999999865
                },
                {
                    "name": "F#2",
                    "midi": 42,
                    "time": 400.1235629999979,
                    "velocity": 0.5905511811023622,
                    "duration": 0.10307149999999865
                },
                {
                    "name": "B2",
                    "midi": 47,
                    "time": 400.7419919999979,
                    "velocity": 0.5511811023622047,
                    "duration": 0.2061429999999973
                },
                {
                    "name": "B1",
                    "midi": 35,
                    "time": 400.7419919999979,
                    "velocity": 0.4566929133858268,
                    "duration": 0.2061429999999973
                },
                {
                    "name": "B3",
                    "midi": 59,
                    "time": 401.36042099999787,
                    "velocity": 0.4251968503937008,
                    "duration": 2.0442514166666683
                },
                {
                    "name": "A4",
                    "midi": 69,
                    "time": 401.36042099999787,
                    "velocity": 0.4251968503937008,
                    "duration": 0.6184289999999919
                },
                {
                    "name": "C#5",
                    "midi": 73,
                    "time": 401.36042099999787,
                    "velocity": 0.5039370078740157,
                    "duration": 0.6184289999999919
                },
                {
                    "name": "G#4",
                    "midi": 68,
                    "time": 401.97884999999786,
                    "velocity": 0.4251968503937008,
                    "duration": 0.6184289999999919
                },
                {
                    "name": "B4",
                    "midi": 71,
                    "time": 401.97884999999786,
                    "velocity": 0.5039370078740157,
                    "duration": 0.6184289999999919
                },
                {
                    "name": "E4",
                    "midi": 64,
                    "time": 402.59727899999785,
                    "velocity": 0.4251968503937008,
                    "duration": 0.6184289999999919
                },
                {
                    "name": "G#4",
                    "midi": 68,
                    "time": 402.59727899999785,
                    "velocity": 0.5039370078740157,
                    "duration": 0.6184289999999919
                },
                {
                    "name": "F#4",
                    "midi": 66,
                    "time": 403.21570799999785,
                    "velocity": 0.4015748031496063,
                    "duration": 0.10307149999999865
                },
                {
                    "name": "A4",
                    "midi": 69,
                    "time": 403.21570799999785,
                    "velocity": 0.48031496062992124,
                    "duration": 0.10307149999999865
                },
                {
                    "name": "D#4",
                    "midi": 63,
                    "time": 403.4218509999979,
                    "velocity": 0.3779527559055118,
                    "duration": 0.10307149999999865
                },
                {
                    "name": "F#4",
                    "midi": 66,
                    "time": 403.4218509999979,
                    "velocity": 0.44881889763779526,
                    "duration": 0.10307149999999865
                },
                {
                    "name": "E4",
                    "midi": 64,
                    "time": 403.6279939999979,
                    "velocity": 0.4015748031496063,
                    "duration": 0.10307149999999865
                },
                {
                    "name": "G#4",
                    "midi": 68,
                    "time": 403.6279939999979,
                    "velocity": 0.48031496062992124,
                    "duration": 0.10307149999999865
                },
                {
                    "name": "C#4",
                    "midi": 61,
                    "time": 403.8341369999979,
                    "velocity": 0.36220472440944884,
                    "duration": 0.10307149999999865
                },
                {
                    "name": "E4",
                    "midi": 64,
                    "time": 403.8341369999979,
                    "velocity": 0.4330708661417323,
                    "duration": 0.10307149999999865
                },
                {
                    "name": "F#4",
                    "midi": 66,
                    "time": 404.0402799999979,
                    "velocity": 0.48031496062992124,
                    "duration": 0.10307149999999865
                },
                {
                    "name": "D#4",
                    "midi": 63,
                    "time": 404.0402799999979,
                    "velocity": 0.4015748031496063,
                    "duration": 0.10307149999999865
                },
                {
                    "name": "D#4",
                    "midi": 63,
                    "time": 404.2464229999979,
                    "velocity": 0.44881889763779526,
                    "duration": 0.10307149999999865
                },
                {
                    "name": "B3",
                    "midi": 59,
                    "time": 404.2464229999979,
                    "velocity": 0.3779527559055118,
                    "duration": 0.10307149999999865
                },
                {
                    "name": "C#4",
                    "midi": 61,
                    "time": 404.4525659999979,
                    "velocity": 0.4015748031496063,
                    "duration": 0.10307149999999865
                },
                {
                    "name": "E4",
                    "midi": 64,
                    "time": 404.4525659999979,
                    "velocity": 0.48031496062992124,
                    "duration": 0.10307149999999865
                },
                {
                    "name": "E4",
                    "midi": 64,
                    "time": 404.8648519999979,
                    "velocity": 0.4566929133858268,
                    "duration": 0.10307149999999865
                },
                {
                    "name": "C#4",
                    "midi": 61,
                    "time": 404.8648519999979,
                    "velocity": 0.3779527559055118,
                    "duration": 0.10307149999999865
                },
                {
                    "name": "C#4",
                    "midi": 61,
                    "time": 405.0709949999979,
                    "velocity": 0.5826771653543307,
                    "duration": 0.6184289999999919
                },
                {
                    "name": "A3",
                    "midi": 57,
                    "time": 405.0709949999979,
                    "velocity": 0.47244094488188976,
                    "duration": 0.6184289999999919
                },
                {
                    "name": "G#2",
                    "midi": 44,
                    "time": 405.68942399999787,
                    "velocity": 0.31496062992125984,
                    "duration": 0.4122859999999946
                },
                {
                    "name": "G#3",
                    "midi": 56,
                    "time": 405.68942399999787,
                    "velocity": 0.36220472440944884,
                    "duration": 0.4122859999999946
                },
                {
                    "name": "B3",
                    "midi": 59,
                    "time": 406.30785299999786,
                    "velocity": 0.2677165354330709,
                    "duration": 0.4122859999999946
                },
                {
                    "name": "G#3",
                    "midi": 56,
                    "time": 406.30785299999786,
                    "velocity": 0.2677165354330709,
                    "duration": 0.4122859999999946
                },
                {
                    "name": "E4",
                    "midi": 64,
                    "time": 406.30785299999786,
                    "velocity": 0.30708661417322836,
                    "duration": 0.4122859999999946
                },
                {
                    "name": "F#2",
                    "midi": 42,
                    "time": 406.92628199999785,
                    "velocity": 0.31496062992125984,
                    "duration": 0.4122859999999946
                },
                {
                    "name": "F#3",
                    "midi": 54,
                    "time": 406.92628199999785,
                    "velocity": 0.36220472440944884,
                    "duration": 0.4122859999999946
                },
                {
                    "name": "C#4",
                    "midi": 61,
                    "time": 407.54471099999785,
                    "velocity": 0.2677165354330709,
                    "duration": 0.4122859999999946
                },
                {
                    "name": "E4",
                    "midi": 64,
                    "time": 407.54471099999785,
                    "velocity": 0.30708661417322836,
                    "duration": 0.4122859999999946
                },
                {
                    "name": "F#3",
                    "midi": 54,
                    "time": 407.54471099999785,
                    "velocity": 0.2677165354330709,
                    "duration": 0.4122859999999946
                },
                {
                    "name": "A3",
                    "midi": 57,
                    "time": 407.54471099999785,
                    "velocity": 0.2677165354330709,
                    "duration": 0.4122859999999946
                },
                {
                    "name": "E3",
                    "midi": 52,
                    "time": 408.16313999999784,
                    "velocity": 0.36220472440944884,
                    "duration": 0.4122859999999946
                },
                {
                    "name": "E2",
                    "midi": 40,
                    "time": 408.16313999999784,
                    "velocity": 0.31496062992125984,
                    "duration": 0.4122859999999946
                },
                {
                    "name": "E4",
                    "midi": 64,
                    "time": 408.78156899999783,
                    "velocity": 0.3464566929133858,
                    "duration": 0.4122859999999946
                },
                {
                    "name": "G#3",
                    "midi": 56,
                    "time": 408.78156899999783,
                    "velocity": 0.2992125984251969,
                    "duration": 0.4122859999999946
                },
                {
                    "name": "E3",
                    "midi": 52,
                    "time": 408.78156899999783,
                    "velocity": 0.2992125984251969,
                    "duration": 0.4122859999999946
                },
                {
                    "name": "C#4",
                    "midi": 61,
                    "time": 408.78156899999783,
                    "velocity": 0.2992125984251969,
                    "duration": 0.4122859999999946
                },
                {
                    "name": "B2",
                    "midi": 47,
                    "time": 409.3999979999978,
                    "velocity": 0.44881889763779526,
                    "duration": 0.4122859999999946
                },
                {
                    "name": "B1",
                    "midi": 35,
                    "time": 409.3999979999978,
                    "velocity": 0.3937007874015748,
                    "duration": 0.4122859999999946
                },
                {
                    "name": "A3",
                    "midi": 57,
                    "time": 410.0184269999978,
                    "velocity": 0.31496062992125984,
                    "duration": 0.4122859999999946
                },
                {
                    "name": "F#3",
                    "midi": 54,
                    "time": 410.0184269999978,
                    "velocity": 0.31496062992125984,
                    "duration": 0.4122859999999946
                },
                {
                    "name": "B3",
                    "midi": 59,
                    "time": 410.0184269999978,
                    "velocity": 0.31496062992125984,
                    "duration": 0.4122859999999946
                },
                {
                    "name": "D#4",
                    "midi": 63,
                    "time": 410.0184269999978,
                    "velocity": 0.36220472440944884,
                    "duration": 0.4122859999999946
                },
                {
                    "name": "E2",
                    "midi": 40,
                    "time": 410.6368559999978,
                    "velocity": 0.5748031496062992,
                    "duration": 0.2061429999999973
                },
                {
                    "name": "E1",
                    "midi": 28,
                    "time": 410.6368559999978,
                    "velocity": 0.48031496062992124,
                    "duration": 0.2061429999999973
                },
                {
                    "name": "E3",
                    "midi": 52,
                    "time": 411.2552849999978,
                    "velocity": 0.4566929133858268,
                    "duration": 1.8552869999999757
                },
                {
                    "name": "F4",
                    "midi": 65,
                    "time": 411.6675709999978,
                    "velocity": 0.4566929133858268,
                    "duration": 0.2061429999999973
                },
                {
                    "name": "E4",
                    "midi": 64,
                    "time": 411.8737139999978,
                    "velocity": 0.4881889763779528,
                    "duration": 0.4122859999999946
                },
                {
                    "name": "C4",
                    "midi": 60,
                    "time": 412.2859999999978,
                    "velocity": 0.4566929133858268,
                    "duration": 0.2061429999999973
                },
                {
                    "name": "D4",
                    "midi": 62,
                    "time": 412.4921429999978,
                    "velocity": 0.49606299212598426,
                    "duration": 0.4122859999999946
                },
                {
                    "name": "B3",
                    "midi": 59,
                    "time": 412.9044289999978,
                    "velocity": 0.4566929133858268,
                    "duration": 0.2061429999999973
                },
                {
                    "name": "C#4",
                    "midi": 61,
                    "time": 413.1105719999978,
                    "velocity": 0.5275590551181102,
                    "duration": 0.2061429999999973
                },
                {
                    "name": "E3",
                    "midi": 52,
                    "time": 413.1105719999978,
                    "velocity": 0.5275590551181102,
                    "duration": 0.2061429999999973
                },
                {
                    "name": "E2",
                    "midi": 40,
                    "time": 413.72900099999777,
                    "velocity": 0.5748031496062992,
                    "duration": 0.2061429999999973
                },
                {
                    "name": "E1",
                    "midi": 28,
                    "time": 413.72900099999777,
                    "velocity": 0.48031496062992124,
                    "duration": 0.2061429999999973
                },
                {
                    "name": "G4",
                    "midi": 67,
                    "time": 414.14128699999776,
                    "velocity": 0.4566929133858268,
                    "duration": 0.2061429999999973
                },
                {
                    "name": "E3",
                    "midi": 52,
                    "time": 414.34742999999776,
                    "velocity": 0.4566929133858268,
                    "duration": 1.2368579999999838
                },
                {
                    "name": "F#4",
                    "midi": 66,
                    "time": 414.34742999999776,
                    "velocity": 0.4881889763779528,
                    "duration": 0.4122859999999946
                },
                {
                    "name": "D#4",
                    "midi": 63,
                    "time": 414.75971599999775,
                    "velocity": 0.4566929133858268,
                    "duration": 0.2061429999999973
                },
                {
                    "name": "E4",
                    "midi": 64,
                    "time": 414.96585899999775,
                    "velocity": 0.49606299212598426,
                    "duration": 0.4122859999999946
                },
                {
                    "name": "C#4",
                    "midi": 61,
                    "time": 415.37814499999774,
                    "velocity": 0.4566929133858268,
                    "duration": 0.2061429999999973
                },
                {
                    "name": "E3",
                    "midi": 52,
                    "time": 415.58428799999774,
                    "velocity": 0.5275590551181102,
                    "duration": 0.2061429999999973
                },
                {
                    "name": "D#4",
                    "midi": 63,
                    "time": 415.58428799999774,
                    "velocity": 0.5275590551181102,
                    "duration": 0.2061429999999973
                },
                {
                    "name": "E2",
                    "midi": 40,
                    "time": 416.20271699999773,
                    "velocity": 0.5748031496062992,
                    "duration": 0.2061429999999973
                },
                {
                    "name": "E1",
                    "midi": 28,
                    "time": 416.20271699999773,
                    "velocity": 0.48031496062992124,
                    "duration": 0.2061429999999973
                },
                {
                    "name": "C4",
                    "midi": 60,
                    "time": 416.6150029999977,
                    "velocity": 0.3858267716535433,
                    "duration": 0.2061429999999973
                },
                {
                    "name": "C5",
                    "midi": 72,
                    "time": 416.6150029999977,
                    "velocity": 0.4566929133858268,
                    "duration": 0.2061429999999973
                },
                {
                    "name": "B4",
                    "midi": 71,
                    "time": 416.8211459999977,
                    "velocity": 0.4881889763779528,
                    "duration": 0.4122859999999946
                },
                {
                    "name": "B3",
                    "midi": 59,
                    "time": 416.8211459999977,
                    "velocity": 0.4094488188976378,
                    "duration": 0.4122859999999946
                },
                {
                    "name": "G3",
                    "midi": 55,
                    "time": 417.2334319999977,
                    "velocity": 0.3858267716535433,
                    "duration": 0.10307149999999865
                },
                {
                    "name": "G4",
                    "midi": 67,
                    "time": 417.2334319999977,
                    "velocity": 0.4566929133858268,
                    "duration": 0.10307149999999865
                },
                {
                    "name": "A3",
                    "midi": 57,
                    "time": 417.4395749999977,
                    "velocity": 0.30708661417322836,
                    "duration": 0.10307149999999865
                },
                {
                    "name": "A4",
                    "midi": 69,
                    "time": 417.4395749999977,
                    "velocity": 0.3700787401574803,
                    "duration": 0.10307149999999865
                },
                {
                    "name": "F#4",
                    "midi": 66,
                    "time": 417.6457179999977,
                    "velocity": 0.41732283464566927,
                    "duration": 0.10307149999999865
                },
                {
                    "name": "F#3",
                    "midi": 54,
                    "time": 417.6457179999977,
                    "velocity": 0.3543307086614173,
                    "duration": 0.10307149999999865
                },
                {
                    "name": "G3",
                    "midi": 55,
                    "time": 417.8518609999977,
                    "velocity": 0.31496062992125984,
                    "duration": 0.10307149999999865
                },
                {
                    "name": "G4",
                    "midi": 67,
                    "time": 417.8518609999977,
                    "velocity": 0.3779527559055118,
                    "duration": 0.10307149999999865
                },
                {
                    "name": "E3",
                    "midi": 52,
                    "time": 418.0580039999977,
                    "velocity": 0.5275590551181102,
                    "duration": 0.10307149999999865
                },
                {
                    "name": "E4",
                    "midi": 64,
                    "time": 418.0580039999977,
                    "velocity": 0.5275590551181102,
                    "duration": 0.10307149999999865
                },
                {
                    "name": "F#4",
                    "midi": 66,
                    "time": 418.2641469999977,
                    "velocity": 0.3779527559055118,
                    "duration": 0.10307149999999865
                },
                {
                    "name": "F#3",
                    "midi": 54,
                    "time": 418.2641469999977,
                    "velocity": 0.31496062992125984,
                    "duration": 0.10307149999999865
                },
                {
                    "name": "D3",
                    "midi": 50,
                    "time": 418.4702899999977,
                    "velocity": 0.3858267716535433,
                    "duration": 0.10307149999999865
                },
                {
                    "name": "D4",
                    "midi": 62,
                    "time": 418.4702899999977,
                    "velocity": 0.4566929133858268,
                    "duration": 0.10307149999999865
                },
                {
                    "name": "E4",
                    "midi": 64,
                    "time": 418.6764329999977,
                    "velocity": 0.3700787401574803,
                    "duration": 0.10307149999999865
                },
                {
                    "name": "E3",
                    "midi": 52,
                    "time": 418.6764329999977,
                    "velocity": 0.30708661417322836,
                    "duration": 0.10307149999999865
                },
                {
                    "name": "C3",
                    "midi": 48,
                    "time": 418.8825759999977,
                    "velocity": 0.3543307086614173,
                    "duration": 0.10307149999999865
                },
                {
                    "name": "C4",
                    "midi": 60,
                    "time": 418.8825759999977,
                    "velocity": 0.41732283464566927,
                    "duration": 0.10307149999999865
                },
                {
                    "name": "D3",
                    "midi": 50,
                    "time": 419.0887189999977,
                    "velocity": 0.31496062992125984,
                    "duration": 0.10307149999999865
                },
                {
                    "name": "D4",
                    "midi": 62,
                    "time": 419.0887189999977,
                    "velocity": 0.3779527559055118,
                    "duration": 0.10307149999999865
                },
                {
                    "name": "B2",
                    "midi": 47,
                    "time": 419.2948619999977,
                    "velocity": 0.5275590551181102,
                    "duration": 0.10307149999999865
                },
                {
                    "name": "B3",
                    "midi": 59,
                    "time": 419.2948619999977,
                    "velocity": 0.5275590551181102,
                    "duration": 0.10307149999999865
                },
                {
                    "name": "C3",
                    "midi": 48,
                    "time": 419.5010049999977,
                    "velocity": 0.31496062992125984,
                    "duration": 0.10307149999999865
                },
                {
                    "name": "C4",
                    "midi": 60,
                    "time": 419.5010049999977,
                    "velocity": 0.3779527559055118,
                    "duration": 0.10307149999999865
                },
                {
                    "name": "A2",
                    "midi": 45,
                    "time": 419.7071479999977,
                    "velocity": 0.4015748031496063,
                    "duration": 0.10307149999999865
                },
                {
                    "name": "A3",
                    "midi": 57,
                    "time": 419.7071479999977,
                    "velocity": 0.47244094488188976,
                    "duration": 0.10307149999999865
                },
                {
                    "name": "B2",
                    "midi": 47,
                    "time": 419.9132909999977,
                    "velocity": 0.33070866141732286,
                    "duration": 0.10307149999999865
                },
                {
                    "name": "B3",
                    "midi": 59,
                    "time": 419.9132909999977,
                    "velocity": 0.3937007874015748,
                    "duration": 0.10307149999999865
                },
                {
                    "name": "G2",
                    "midi": 43,
                    "time": 420.1194339999977,
                    "velocity": 0.3858267716535433,
                    "duration": 0.10307149999999865
                },
                {
                    "name": "G3",
                    "midi": 55,
                    "time": 420.1194339999977,
                    "velocity": 0.4566929133858268,
                    "duration": 0.10307149999999865
                },
                {
                    "name": "A3",
                    "midi": 57,
                    "time": 420.3255769999977,
                    "velocity": 0.4251968503937008,
                    "duration": 0.10307149999999865
                },
                {
                    "name": "A2",
                    "midi": 45,
                    "time": 420.3255769999977,
                    "velocity": 0.3543307086614173,
                    "duration": 0.10307149999999865
                },
                {
                    "name": "B1",
                    "midi": 35,
                    "time": 420.4286484999977,
                    "velocity": 0.4881889763779528,
                    "duration": 0.05153575000002775
                },
                {
                    "name": "B2",
                    "midi": 47,
                    "time": 420.4801842499977,
                    "velocity": 0.49606299212598426,
                    "duration": 0.05153575000002775
                },
                {
                    "name": "B4",
                    "midi": 71,
                    "time": 420.53171999999773,
                    "velocity": 0.5511811023622047,
                    "duration": 0.3916717000000176
                },
                {
                    "name": "E4",
                    "midi": 64,
                    "time": 420.53171999999773,
                    "velocity": 0.4645669291338583,
                    "duration": 0.3916717000000176
                },
                {
                    "name": "B3",
                    "midi": 59,
                    "time": 420.53171999999773,
                    "velocity": 0.4645669291338583,
                    "duration": 0.3916717000000176
                },
                {
                    "name": "G#4",
                    "midi": 68,
                    "time": 420.53171999999773,
                    "velocity": 0.5511811023622047,
                    "duration": 0.3916717000000176
                },
                {
                    "name": "E4",
                    "midi": 64,
                    "time": 420.9440059999977,
                    "velocity": 0.4645669291338583,
                    "duration": 0.3916717000000176
                },
                {
                    "name": "B3",
                    "midi": 59,
                    "time": 420.9440059999977,
                    "velocity": 0.4645669291338583,
                    "duration": 0.3916717000000176
                },
                {
                    "name": "B4",
                    "midi": 71,
                    "time": 420.9440059999977,
                    "velocity": 0.5511811023622047,
                    "duration": 0.3916717000000176
                },
                {
                    "name": "G4",
                    "midi": 67,
                    "time": 420.9440059999977,
                    "velocity": 0.4645669291338583,
                    "duration": 0.3916717000000176
                },
                {
                    "name": "B4",
                    "midi": 71,
                    "time": 421.3562919999977,
                    "velocity": 0.5511811023622047,
                    "duration": 0.3916717000000176
                },
                {
                    "name": "F#4",
                    "midi": 66,
                    "time": 421.3562919999977,
                    "velocity": 0.4645669291338583,
                    "duration": 0.3916717000000176
                },
                {
                    "name": "B3",
                    "midi": 59,
                    "time": 421.3562919999977,
                    "velocity": 0.4645669291338583,
                    "duration": 0.3916717000000176
                },
                {
                    "name": "D#4",
                    "midi": 63,
                    "time": 421.3562919999977,
                    "velocity": 0.4645669291338583,
                    "duration": 0.3916717000000176
                },
                {
                    "name": "D4",
                    "midi": 62,
                    "time": 421.7685779999977,
                    "velocity": 0.4645669291338583,
                    "duration": 0.3916717000000176
                },
                {
                    "name": "F4",
                    "midi": 65,
                    "time": 421.7685779999977,
                    "velocity": 0.5511811023622047,
                    "duration": 0.3916717000000176
                },
                {
                    "name": "B3",
                    "midi": 59,
                    "time": 421.7685779999977,
                    "velocity": 0.4645669291338583,
                    "duration": 0.3916717000000176
                },
                {
                    "name": "B4",
                    "midi": 71,
                    "time": 421.7685779999977,
                    "velocity": 0.5511811023622047,
                    "duration": 0.3916717000000176
                },
                {
                    "name": "C#4",
                    "midi": 61,
                    "time": 422.1808639999977,
                    "velocity": 0.4566929133858268,
                    "duration": 0.3916717000000176
                },
                {
                    "name": "E4",
                    "midi": 64,
                    "time": 422.1808639999977,
                    "velocity": 0.4566929133858268,
                    "duration": 0.3916717000000176
                },
                {
                    "name": "B3",
                    "midi": 59,
                    "time": 422.1808639999977,
                    "velocity": 0.4566929133858268,
                    "duration": 0.3916717000000176
                },
                {
                    "name": "B4",
                    "midi": 71,
                    "time": 422.1808639999977,
                    "velocity": 0.5433070866141733,
                    "duration": 0.3916717000000176
                },
                {
                    "name": "B3",
                    "midi": 59,
                    "time": 422.5931499999977,
                    "velocity": 0.44881889763779526,
                    "duration": 0.3916717000000176
                },
                {
                    "name": "D#4",
                    "midi": 63,
                    "time": 422.5931499999977,
                    "velocity": 0.44881889763779526,
                    "duration": 0.3916717000000176
                },
                {
                    "name": "C4",
                    "midi": 60,
                    "time": 422.5931499999977,
                    "velocity": 0.44881889763779526,
                    "duration": 0.3916717000000176
                },
                {
                    "name": "B4",
                    "midi": 71,
                    "time": 422.5931499999977,
                    "velocity": 0.5275590551181102,
                    "duration": 0.3916717000000176
                },
                {
                    "name": "D4",
                    "midi": 62,
                    "time": 423.0054359999977,
                    "velocity": 0.4409448818897638,
                    "duration": 0.3916717000000176
                },
                {
                    "name": "B4",
                    "midi": 71,
                    "time": 423.0054359999977,
                    "velocity": 0.5196850393700787,
                    "duration": 0.3916717000000176
                },
                {
                    "name": "B3",
                    "midi": 59,
                    "time": 423.0054359999977,
                    "velocity": 0.4409448818897638,
                    "duration": 0.3916717000000176
                },
                {
                    "name": "C#4",
                    "midi": 61,
                    "time": 423.4177219999977,
                    "velocity": 0.4330708661417323,
                    "duration": 0.3916717000000176
                },
                {
                    "name": "B4",
                    "midi": 71,
                    "time": 423.4177219999977,
                    "velocity": 0.5118110236220472,
                    "duration": 0.3916717000000176
                },
                {
                    "name": "A#3",
                    "midi": 58,
                    "time": 423.4177219999977,
                    "velocity": 0.4330708661417323,
                    "duration": 0.3916717000000176
                },
                {
                    "name": "B4",
                    "midi": 71,
                    "time": 423.8300079999977,
                    "velocity": 0.5039370078740157,
                    "duration": 0.3916717000000176
                },
                {
                    "name": "A3",
                    "midi": 57,
                    "time": 423.8300079999977,
                    "velocity": 0.4251968503937008,
                    "duration": 0.3916717000000176
                },
                {
                    "name": "C4",
                    "midi": 60,
                    "time": 423.8300079999977,
                    "velocity": 0.4251968503937008,
                    "duration": 0.3916717000000176
                },
                {
                    "name": "G#3",
                    "midi": 56,
                    "time": 424.2422939999977,
                    "velocity": 0.41732283464566927,
                    "duration": 0.3916717000000176
                },
                {
                    "name": "G#4",
                    "midi": 68,
                    "time": 424.2422939999977,
                    "velocity": 0.49606299212598426,
                    "duration": 0.3916717000000176
                },
                {
                    "name": "B3",
                    "midi": 59,
                    "time": 424.2422939999977,
                    "velocity": 0.41732283464566927,
                    "duration": 0.3916717000000176
                },
                {
                    "name": "G3",
                    "midi": 55,
                    "time": 424.6545799999977,
                    "velocity": 0.4094488188976378,
                    "duration": 0.3143680750000044
                },
                {
                    "name": "B3",
                    "midi": 59,
                    "time": 424.6545799999977,
                    "velocity": 0.4094488188976378,
                    "duration": 0.3143680750000044
                },
                {
                    "name": "G4",
                    "midi": 67,
                    "time": 424.6545799999977,
                    "velocity": 0.4881889763779528,
                    "duration": 0.3143680750000044
                },
                {
                    "name": "B2",
                    "midi": 47,
                    "time": 424.98956237499766,
                    "velocity": 0.4015748031496063,
                    "duration": 0.46897532499997396
                },
                {
                    "name": "F#3",
                    "midi": 54,
                    "time": 425.01533024999765,
                    "velocity": 0.4015748031496063,
                    "duration": 0.4432074499999885
                },
                {
                    "name": "A3",
                    "midi": 57,
                    "time": 425.04109812499763,
                    "velocity": 0.4015748031496063,
                    "duration": 0.41743957500000306
                },
                {
                    "name": "F#4",
                    "midi": 66,
                    "time": 425.0668659999976,
                    "velocity": 0.47244094488188976,
                    "duration": 0.3916717000000176
                },
                {
                    "name": "E3",
                    "midi": 52,
                    "time": 425.4791519999976,
                    "velocity": 0.5275590551181102,
                    "duration": 0.10307149999999865
                },
                {
                    "name": "E2",
                    "midi": 40,
                    "time": 425.4791519999976,
                    "velocity": 0.5275590551181102,
                    "duration": 0.10307149999999865
                },
                {
                    "name": "D3",
                    "midi": 50,
                    "time": 425.6852949999976,
                    "velocity": 0.3779527559055118,
                    "duration": 0.10307149999999865
                },
                {
                    "name": "B2",
                    "midi": 47,
                    "time": 425.6852949999976,
                    "velocity": 0.31496062992125984,
                    "duration": 0.10307149999999865
                },
                {
                    "name": "E3",
                    "midi": 52,
                    "time": 425.8914379999976,
                    "velocity": 0.4566929133858268,
                    "duration": 0.10307149999999865
                },
                {
                    "name": "E2",
                    "midi": 40,
                    "time": 425.8914379999976,
                    "velocity": 0.3858267716535433,
                    "duration": 0.10307149999999865
                },
                {
                    "name": "A2",
                    "midi": 45,
                    "time": 426.0975809999976,
                    "velocity": 0.30708661417322836,
                    "duration": 0.10307149999999865
                },
                {
                    "name": "C3",
                    "midi": 48,
                    "time": 426.0975809999976,
                    "velocity": 0.3700787401574803,
                    "duration": 0.10307149999999865
                },
                {
                    "name": "E3",
                    "midi": 52,
                    "time": 426.3037239999976,
                    "velocity": 0.41732283464566927,
                    "duration": 0.10307149999999865
                },
                {
                    "name": "E2",
                    "midi": 40,
                    "time": 426.3037239999976,
                    "velocity": 0.3543307086614173,
                    "duration": 0.10307149999999865
                },
                {
                    "name": "B2",
                    "midi": 47,
                    "time": 426.5098669999976,
                    "velocity": 0.3779527559055118,
                    "duration": 0.10307149999999865
                },
                {
                    "name": "G2",
                    "midi": 43,
                    "time": 426.5098669999976,
                    "velocity": 0.31496062992125984,
                    "duration": 0.10307149999999865
                },
                {
                    "name": "E3",
                    "midi": 52,
                    "time": 426.7160099999976,
                    "velocity": 0.5275590551181102,
                    "duration": 0.10307149999999865
                },
                {
                    "name": "E2",
                    "midi": 40,
                    "time": 426.7160099999976,
                    "velocity": 0.5275590551181102,
                    "duration": 0.10307149999999865
                },
                {
                    "name": "F#2",
                    "midi": 42,
                    "time": 426.9221529999976,
                    "velocity": 0.31496062992125984,
                    "duration": 0.10307149999999865
                },
                {
                    "name": "A2",
                    "midi": 45,
                    "time": 426.92816550416427,
                    "velocity": 0.3779527559055118,
                    "duration": 0.10307149999999865
                },
                {
                    "name": "E3",
                    "midi": 52,
                    "time": 427.1282959999976,
                    "velocity": 0.4566929133858268,
                    "duration": 0.10307149999999865
                },
                {
                    "name": "E2",
                    "midi": 40,
                    "time": 427.1282959999976,
                    "velocity": 0.3858267716535433,
                    "duration": 0.10307149999999865
                },
                {
                    "name": "G2",
                    "midi": 43,
                    "time": 427.3344389999976,
                    "velocity": 0.3700787401574803,
                    "duration": 0.10307149999999865
                },
                {
                    "name": "E3",
                    "midi": 52,
                    "time": 427.5405819999976,
                    "velocity": 0.41732283464566927,
                    "duration": 0.10307149999999865
                },
                {
                    "name": "F#2",
                    "midi": 42,
                    "time": 427.7467249999976,
                    "velocity": 0.3779527559055118,
                    "duration": 0.10307149999999865
                },
                {
                    "name": "D2",
                    "midi": 38,
                    "time": 427.7467249999976,
                    "velocity": 0.31496062992125984,
                    "duration": 0.10307149999999865
                },
                {
                    "name": "E3",
                    "midi": 52,
                    "time": 427.9528679999976,
                    "velocity": 0.5275590551181102,
                    "duration": 0.10307149999999865
                },
                {
                    "name": "C2",
                    "midi": 36,
                    "time": 428.1590109999976,
                    "velocity": 0.30708661417322836,
                    "duration": 0.10307149999999865
                },
                {
                    "name": "E2",
                    "midi": 40,
                    "time": 428.1590109999976,
                    "velocity": 0.3700787401574803,
                    "duration": 0.10307149999999865
                },
                {
                    "name": "E2",
                    "midi": 40,
                    "time": 428.3651539999976,
                    "velocity": 0.4409448818897638,
                    "duration": 0.10307149999999865
                },
                {
                    "name": "B1",
                    "midi": 35,
                    "time": 428.57129699999757,
                    "velocity": 0.29133858267716534,
                    "duration": 0.10307149999999865
                },
                {
                    "name": "D2",
                    "midi": 38,
                    "time": 428.57129699999757,
                    "velocity": 0.3543307086614173,
                    "duration": 0.10307149999999865
                },
                {
                    "name": "E2",
                    "midi": 40,
                    "time": 428.77743999999757,
                    "velocity": 0.3937007874015748,
                    "duration": 0.10307149999999865
                },
                {
                    "name": "C2",
                    "midi": 36,
                    "time": 428.98358299999757,
                    "velocity": 0.3543307086614173,
                    "duration": 0.10307149999999865
                },
                {
                    "name": "A1",
                    "midi": 33,
                    "time": 428.98358299999757,
                    "velocity": 0.29133858267716534,
                    "duration": 0.10307149999999865
                },
                {
                    "name": "E2",
                    "midi": 40,
                    "time": 429.18972599999756,
                    "velocity": 0.4881889763779528,
                    "duration": 0.10307149999999865
                },
                {
                    "name": "G1",
                    "midi": 31,
                    "time": 429.39586899999756,
                    "velocity": 0.28346456692913385,
                    "duration": 0.10307149999999865
                },
                {
                    "name": "B1",
                    "midi": 35,
                    "time": 429.39586899999756,
                    "velocity": 0.3464566929133858,
                    "duration": 0.10307149999999865
                },
                {
                    "name": "E2",
                    "midi": 40,
                    "time": 429.60201199999756,
                    "velocity": 0.4094488188976378,
                    "duration": 0.10307149999999865
                },
                {
                    "name": "F#1",
                    "midi": 30,
                    "time": 429.80815499999756,
                    "velocity": 0.2677165354330709,
                    "duration": 0.10307149999999865
                },
                {
                    "name": "A1",
                    "midi": 33,
                    "time": 429.80815499999756,
                    "velocity": 0.3228346456692913,
                    "duration": 0.10307149999999865
                },
                {
                    "name": "E2",
                    "midi": 40,
                    "time": 430.01429799999755,
                    "velocity": 0.36220472440944884,
                    "duration": 0.10307149999999865
                },
                {
                    "name": "F1",
                    "midi": 29,
                    "time": 430.22044099999755,
                    "velocity": 0.2677165354330709,
                    "duration": 0.10307149999999865
                },
                {
                    "name": "A1",
                    "midi": 33,
                    "time": 430.22044099999755,
                    "velocity": 0.3228346456692913,
                    "duration": 0.10307149999999865
                },
                {
                    "name": "E1",
                    "midi": 28,
                    "time": 430.42658399999755,
                    "velocity": 0.29133858267716534,
                    "duration": 0.10307149999999865
                },
                {
                    "name": "E2",
                    "midi": 40,
                    "time": 430.42658399999755,
                    "velocity": 0.3464566929133858,
                    "duration": 0.10307149999999865
                },
                {
                    "name": "E1",
                    "midi": 28,
                    "time": 430.63272699999754,
                    "velocity": 0.29133858267716534,
                    "duration": 0.10307149999999865
                },
                {
                    "name": "E2",
                    "midi": 40,
                    "time": 430.63272699999754,
                    "velocity": 0.3464566929133858,
                    "duration": 0.10307149999999865
                },
                {
                    "name": "E2",
                    "midi": 40,
                    "time": 430.83886999999754,
                    "velocity": 0.3464566929133858,
                    "duration": 0.10307149999999865
                },
                {
                    "name": "E1",
                    "midi": 28,
                    "time": 430.83886999999754,
                    "velocity": 0.29133858267716534,
                    "duration": 0.10307149999999865
                },
                {
                    "name": "A2",
                    "midi": 45,
                    "time": 431.04501299999754,
                    "velocity": 0.3464566929133858,
                    "duration": 0.6184289999999919
                },
                {
                    "name": "C3",
                    "midi": 48,
                    "time": 431.04501299999754,
                    "velocity": 0.4094488188976378,
                    "duration": 0.6184289999999919
                },
                {
                    "name": "E1",
                    "midi": 28,
                    "time": 431.66344199999753,
                    "velocity": 0.29133858267716534,
                    "duration": 0.10307149999999865
                },
                {
                    "name": "E2",
                    "midi": 40,
                    "time": 431.66344199999753,
                    "velocity": 0.3464566929133858,
                    "duration": 0.10307149999999865
                },
                {
                    "name": "E2",
                    "midi": 40,
                    "time": 431.8695849999975,
                    "velocity": 0.3464566929133858,
                    "duration": 0.10307149999999865
                },
                {
                    "name": "E1",
                    "midi": 28,
                    "time": 431.8695849999975,
                    "velocity": 0.29133858267716534,
                    "duration": 0.10307149999999865
                },
                {
                    "name": "E2",
                    "midi": 40,
                    "time": 432.0757279999975,
                    "velocity": 0.3464566929133858,
                    "duration": 0.10307149999999865
                },
                {
                    "name": "E1",
                    "midi": 28,
                    "time": 432.0757279999975,
                    "velocity": 0.29133858267716534,
                    "duration": 0.10307149999999865
                },
                {
                    "name": "F3",
                    "midi": 53,
                    "time": 432.2818709999975,
                    "velocity": 0.44881889763779526,
                    "duration": 0.6184289999999919
                },
                {
                    "name": "A2",
                    "midi": 45,
                    "time": 432.2818709999975,
                    "velocity": 0.3779527559055118,
                    "duration": 0.6184289999999919
                },
                {
                    "name": "E1",
                    "midi": 28,
                    "time": 432.9002999999975,
                    "velocity": 0.29133858267716534,
                    "duration": 0.10307149999999865
                },
                {
                    "name": "E2",
                    "midi": 40,
                    "time": 432.9002999999975,
                    "velocity": 0.3464566929133858,
                    "duration": 0.10307149999999865
                },
                {
                    "name": "E1",
                    "midi": 28,
                    "time": 433.1064429999975,
                    "velocity": 0.29133858267716534,
                    "duration": 0.10307149999999865
                },
                {
                    "name": "E2",
                    "midi": 40,
                    "time": 433.1064429999975,
                    "velocity": 0.3464566929133858,
                    "duration": 0.10307149999999865
                },
                {
                    "name": "E1",
                    "midi": 28,
                    "time": 433.3125859999975,
                    "velocity": 0.29133858267716534,
                    "duration": 0.10307149999999865
                },
                {
                    "name": "E2",
                    "midi": 40,
                    "time": 433.3125859999975,
                    "velocity": 0.3464566929133858,
                    "duration": 0.10307149999999865
                },
                {
                    "name": "E3",
                    "midi": 52,
                    "time": 433.5187289999975,
                    "velocity": 0.47244094488188976,
                    "duration": 0.8245719999999892
                },
                {
                    "name": "G3",
                    "midi": 55,
                    "time": 433.5187289999975,
                    "velocity": 0.47244094488188976,
                    "duration": 0.8245719999999892
                },
                {
                    "name": "A#2",
                    "midi": 46,
                    "time": 433.5187289999975,
                    "velocity": 0.47244094488188976,
                    "duration": 0.8245719999999892
                },
                {
                    "name": "C4",
                    "midi": 60,
                    "time": 433.5187289999975,
                    "velocity": 0.5590551181102362,
                    "duration": 0.8245719999999892
                },
                {
                    "name": "E2",
                    "midi": 40,
                    "time": 434.7555869999975,
                    "velocity": 0.5433070866141733,
                    "duration": 0.10307149999999865
                },
                {
                    "name": "E1",
                    "midi": 28,
                    "time": 434.7555869999975,
                    "velocity": 0.44881889763779526,
                    "duration": 0.10307149999999865
                },
                {
                    "name": "E1",
                    "midi": 28,
                    "time": 435.3740159999975,
                    "velocity": 0.44881889763779526,
                    "duration": 0.10307149999999865
                },
                {
                    "name": "E2",
                    "midi": 40,
                    "time": 435.3740159999975,
                    "velocity": 0.5433070866141733,
                    "duration": 0.10307149999999865
                },
                {
                    "name": "E2",
                    "midi": 40,
                    "time": 435.9864324958308,
                    "velocity": 0.5433070866141733,
                    "duration": 0.10307149999999865
                },
                {
                    "name": "E1",
                    "midi": 28,
                    "time": 435.9864324958308,
                    "velocity": 0.44881889763779526,
                    "duration": 0.10307149999999865
                },
                {
                    "name": "C3",
                    "midi": 48,
                    "time": 436.61087399999747,
                    "velocity": 0.5039370078740157,
                    "duration": 1.443000999999981
                },
                {
                    "name": "C4",
                    "midi": 60,
                    "time": 436.61087399999747,
                    "velocity": 0.6062992125984252,
                    "duration": 1.443000999999981
                },
                {
                    "name": "F3",
                    "midi": 53,
                    "time": 436.61087399999747,
                    "velocity": 0.5039370078740157,
                    "duration": 1.443000999999981
                },
                {
                    "name": "A2",
                    "midi": 45,
                    "time": 436.61087399999747,
                    "velocity": 0.5039370078740157,
                    "duration": 1.443000999999981
                },
                {
                    "name": "C5",
                    "midi": 72,
                    "time": 438.05387499999745,
                    "velocity": 0.5511811023622047,
                    "duration": 0.10307149999999865
                },
                {
                    "name": "C4",
                    "midi": 60,
                    "time": 438.05387499999745,
                    "velocity": 0.4645669291338583,
                    "duration": 0.10307149999999865
                },
                {
                    "name": "A3",
                    "midi": 57,
                    "time": 438.26001799999744,
                    "velocity": 0.4251968503937008,
                    "duration": 0.10307149999999865
                },
                {
                    "name": "A4",
                    "midi": 69,
                    "time": 438.26001799999744,
                    "velocity": 0.5039370078740157,
                    "duration": 0.10307149999999865
                },
                {
                    "name": "F4",
                    "midi": 65,
                    "time": 438.46616099999744,
                    "velocity": 0.5669291338582677,
                    "duration": 0.10307149999999865
                },
                {
                    "name": "F3",
                    "midi": 53,
                    "time": 438.46616099999744,
                    "velocity": 0.47244094488188976,
                    "duration": 0.10307149999999865
                },
                {
                    "name": "C3",
                    "midi": 48,
                    "time": 438.67230399999744,
                    "velocity": 0.44881889763779526,
                    "duration": 0.10307149999999865
                },
                {
                    "name": "C4",
                    "midi": 60,
                    "time": 438.67230399999744,
                    "velocity": 0.5354330708661418,
                    "duration": 0.10307149999999865
                },
                {
                    "name": "A3",
                    "midi": 57,
                    "time": 438.87844699999744,
                    "velocity": 0.5511811023622047,
                    "duration": 0.10307149999999865
                },
                {
                    "name": "A2",
                    "midi": 45,
                    "time": 438.87844699999744,
                    "velocity": 0.4645669291338583,
                    "duration": 0.10307149999999865
                },
                {
                    "name": "F2",
                    "midi": 41,
                    "time": 439.08458999999743,
                    "velocity": 0.5039370078740157,
                    "duration": 0.10307149999999865
                },
                {
                    "name": "F3",
                    "midi": 53,
                    "time": 439.08458999999743,
                    "velocity": 0.6062992125984252,
                    "duration": 0.10307149999999865
                },
                {
                    "name": "C2",
                    "midi": 36,
                    "time": 439.29073299999743,
                    "velocity": 0.4645669291338583,
                    "duration": 0.10307149999999865
                },
                {
                    "name": "C3",
                    "midi": 48,
                    "time": 439.29073299999743,
                    "velocity": 0.5590551181102362,
                    "duration": 0.10307149999999865
                },
                {
                    "name": "A2",
                    "midi": 45,
                    "time": 439.4968759999974,
                    "velocity": 0.5669291338582677,
                    "duration": 0.10307149999999865
                },
                {
                    "name": "A1",
                    "midi": 33,
                    "time": 439.4968759999974,
                    "velocity": 0.47244094488188976,
                    "duration": 0.10307149999999865
                },
                {
                    "name": "F2",
                    "midi": 41,
                    "time": 439.7030189999974,
                    "velocity": 0.6377952755905512,
                    "duration": 0.10307149999999865
                },
                {
                    "name": "F1",
                    "midi": 29,
                    "time": 439.7030189999974,
                    "velocity": 0.5433070866141733,
                    "duration": 0.10307149999999865
                },
                {
                    "name": "C2",
                    "midi": 36,
                    "time": 439.9091619999974,
                    "velocity": 0.5905511811023622,
                    "duration": 0.10307149999999865
                },
                {
                    "name": "C1",
                    "midi": 24,
                    "time": 439.9091619999974,
                    "velocity": 0.49606299212598426,
                    "duration": 0.10307149999999865
                },
                {
                    "name": "D1",
                    "midi": 26,
                    "time": 440.1153049999974,
                    "velocity": 0.5118110236220472,
                    "duration": 0.10307149999999865
                },
                {
                    "name": "D2",
                    "midi": 38,
                    "time": 440.1153049999974,
                    "velocity": 0.6141732283464567,
                    "duration": 0.10307149999999865
                },
                {
                    "name": "C1",
                    "midi": 24,
                    "time": 440.3214479999974,
                    "velocity": 0.5196850393700787,
                    "duration": 0.10307149999999865
                },
                {
                    "name": "C2",
                    "midi": 36,
                    "time": 440.3214479999974,
                    "velocity": 0.6141732283464567,
                    "duration": 0.10307149999999865
                },
                {
                    "name": "C2",
                    "midi": 36,
                    "time": 441.5583059999974,
                    "velocity": 0.6141732283464567,
                    "duration": 0.10307149999999865
                },
                {
                    "name": "C1",
                    "midi": 24,
                    "time": 441.5583059999974,
                    "velocity": 0.5196850393700787,
                    "duration": 0.10307149999999865
                },
                {
                    "name": "C1",
                    "midi": 24,
                    "time": 442.7951639999974,
                    "velocity": 0.5196850393700787,
                    "duration": 0.10307149999999865
                },
                {
                    "name": "C2",
                    "midi": 36,
                    "time": 442.7951639999974,
                    "velocity": 0.6141732283464567,
                    "duration": 0.10307149999999865
                }
            ],
            "controlChanges": {},
            "id": 2,
            "name": "Piano left",
            "instrumentNumber": 0,
            "instrument": "acoustic grand piano",
            "instrumentFamily": "piano",
            "channelNumber": 0,
            "isPercussion": false
        },
        {
            "startTime": 0,
            "duration": 0,
            "length": 0,
            "notes": [],
            "controlChanges": {
                "64": [
                    {
                        "number": 64,
                        "time": 0,
                        "value": 1
                    },
                    {
                        "number": 64,
                        "time": 0.19411799166666668,
                        "value": 0
                    },
                    {
                        "number": 64,
                        "time": 0.6871433333333334,
                        "value": 1
                    },
                    {
                        "number": 64,
                        "time": 1.2428705041666668,
                        "value": 0
                    },
                    {
                        "number": 64,
                        "time": 1.3622616583333336,
                        "value": 1
                    },
                    {
                        "number": 64,
                        "time": 1.8724655833333337,
                        "value": 0
                    },
                    {
                        "number": 64,
                        "time": 2.0382389125,
                        "value": 1
                    },
                    {
                        "number": 64,
                        "time": 2.4737160000000005,
                        "value": 0
                    },
                    {
                        "number": 64,
                        "time": 4.181267183333334,
                        "value": 1
                    },
                    {
                        "number": 64,
                        "time": 4.947432000000001,
                        "value": 0
                    },
                    {
                        "number": 64,
                        "time": 6.689340350000001,
                        "value": 1
                    },
                    {
                        "number": 64,
                        "time": 7.421148000000001,
                        "value": 0
                    },
                    {
                        "number": 64,
                        "time": 9.163056350000002,
                        "value": 1
                    },
                    {
                        "number": 64,
                        "time": 9.779767491666668,
                        "value": 0
                    },
                    {
                        "number": 64,
                        "time": 9.894864000000002,
                        "value": 1
                    },
                    {
                        "number": 64,
                        "time": 10.08898199166667,
                        "value": 0
                    },
                    {
                        "number": 64,
                        "time": 10.582007333333335,
                        "value": 1
                    },
                    {
                        "number": 64,
                        "time": 11.13773450416667,
                        "value": 0
                    },
                    {
                        "number": 64,
                        "time": 11.257125658333337,
                        "value": 1
                    },
                    {
                        "number": 64,
                        "time": 11.767329583333337,
                        "value": 0
                    },
                    {
                        "number": 64,
                        "time": 11.933102912500004,
                        "value": 1
                    },
                    {
                        "number": 64,
                        "time": 12.368580000000005,
                        "value": 0
                    },
                    {
                        "number": 64,
                        "time": 14.076131183333338,
                        "value": 1
                    },
                    {
                        "number": 64,
                        "time": 14.842296000000005,
                        "value": 0
                    },
                    {
                        "number": 64,
                        "time": 16.018170029166672,
                        "value": 1
                    },
                    {
                        "number": 64,
                        "time": 16.20971123333334,
                        "value": 0
                    },
                    {
                        "number": 64,
                        "time": 16.584204350000007,
                        "value": 1
                    },
                    {
                        "number": 64,
                        "time": 17.316012000000008,
                        "value": 0
                    },
                    {
                        "number": 64,
                        "time": 18.491886029166675,
                        "value": 1
                    },
                    {
                        "number": 64,
                        "time": 18.683427233333344,
                        "value": 0
                    },
                    {
                        "number": 64,
                        "time": 19.05792035000001,
                        "value": 1
                    },
                    {
                        "number": 64,
                        "time": 19.794022645833344,
                        "value": 0
                    },
                    {
                        "number": 64,
                        "time": 19.86960841250001,
                        "value": 1
                    },
                    {
                        "number": 64,
                        "time": 19.983845991666676,
                        "value": 0
                    },
                    {
                        "number": 64,
                        "time": 20.476871333333342,
                        "value": 1
                    },
                    {
                        "number": 64,
                        "time": 21.032598504166675,
                        "value": 0
                    },
                    {
                        "number": 64,
                        "time": 21.151989658333342,
                        "value": 1
                    },
                    {
                        "number": 64,
                        "time": 21.66219358333334,
                        "value": 0
                    },
                    {
                        "number": 64,
                        "time": 21.827966912500006,
                        "value": 1
                    },
                    {
                        "number": 64,
                        "time": 22.263444000000007,
                        "value": 0
                    },
                    {
                        "number": 64,
                        "time": 23.97099518333334,
                        "value": 1
                    },
                    {
                        "number": 64,
                        "time": 24.737160000000006,
                        "value": 0
                    },
                    {
                        "number": 64,
                        "time": 26.479068350000006,
                        "value": 1
                    },
                    {
                        "number": 64,
                        "time": 27.210876000000006,
                        "value": 0
                    },
                    {
                        "number": 64,
                        "time": 28.952784350000005,
                        "value": 1
                    },
                    {
                        "number": 64,
                        "time": 29.56949549166667,
                        "value": 0
                    },
                    {
                        "number": 64,
                        "time": 29.684592000000006,
                        "value": 1
                    },
                    {
                        "number": 64,
                        "time": 29.87870999166667,
                        "value": 0
                    },
                    {
                        "number": 64,
                        "time": 30.371735333333337,
                        "value": 1
                    },
                    {
                        "number": 64,
                        "time": 30.92746250416667,
                        "value": 0
                    },
                    {
                        "number": 64,
                        "time": 31.046853658333337,
                        "value": 1
                    },
                    {
                        "number": 64,
                        "time": 31.557057583333336,
                        "value": 0
                    },
                    {
                        "number": 64,
                        "time": 31.7228309125,
                        "value": 1
                    },
                    {
                        "number": 64,
                        "time": 32.158308,
                        "value": 0
                    },
                    {
                        "number": 64,
                        "time": 33.865859183333335,
                        "value": 1
                    },
                    {
                        "number": 64,
                        "time": 34.632024,
                        "value": 0
                    },
                    {
                        "number": 64,
                        "time": 35.807898029166665,
                        "value": 1
                    },
                    {
                        "number": 64,
                        "time": 35.999439233333334,
                        "value": 0
                    },
                    {
                        "number": 64,
                        "time": 36.37393235,
                        "value": 1
                    },
                    {
                        "number": 64,
                        "time": 37.10574,
                        "value": 0
                    },
                    {
                        "number": 64,
                        "time": 38.28161402916666,
                        "value": 1
                    },
                    {
                        "number": 64,
                        "time": 38.47315523333333,
                        "value": 0
                    },
                    {
                        "number": 64,
                        "time": 38.84764834999999,
                        "value": 1
                    },
                    {
                        "number": 64,
                        "time": 39.4428862625,
                        "value": 0
                    },
                    {
                        "number": 64,
                        "time": 39.636145324999994,
                        "value": 1
                    },
                    {
                        "number": 64,
                        "time": 40.20647429166666,
                        "value": 0
                    },
                    {
                        "number": 64,
                        "time": 40.323288658333325,
                        "value": 1
                    },
                    {
                        "number": 64,
                        "time": 40.82232650416666,
                        "value": 0
                    },
                    {
                        "number": 64,
                        "time": 40.941717658333324,
                        "value": 1
                    },
                    {
                        "number": 64,
                        "time": 41.45192158333332,
                        "value": 0
                    },
                    {
                        "number": 64,
                        "time": 41.61769491249999,
                        "value": 1
                    },
                    {
                        "number": 64,
                        "time": 42.05317199999999,
                        "value": 0
                    },
                    {
                        "number": 64,
                        "time": 43.760723183333326,
                        "value": 1
                    },
                    {
                        "number": 64,
                        "time": 44.423816499999994,
                        "value": 0
                    },
                    {
                        "number": 64,
                        "time": 44.58357732499999,
                        "value": 1
                    },
                    {
                        "number": 64,
                        "time": 45.154765220833326,
                        "value": 0
                    },
                    {
                        "number": 64,
                        "time": 45.31194925833333,
                        "value": 1
                    },
                    {
                        "number": 64,
                        "time": 45.76975850416666,
                        "value": 0
                    },
                    {
                        "number": 64,
                        "time": 45.889149658333324,
                        "value": 1
                    },
                    {
                        "number": 64,
                        "time": 46.39935358333332,
                        "value": 0
                    },
                    {
                        "number": 64,
                        "time": 46.56512691249999,
                        "value": 1
                    },
                    {
                        "number": 64,
                        "time": 47.00060399999999,
                        "value": 0
                    },
                    {
                        "number": 64,
                        "time": 48.708155183333325,
                        "value": 1
                    },
                    {
                        "number": 64,
                        "time": 49.37124849999999,
                        "value": 0
                    },
                    {
                        "number": 64,
                        "time": 49.53100932499999,
                        "value": 1
                    },
                    {
                        "number": 64,
                        "time": 50.10305614999999,
                        "value": 0
                    },
                    {
                        "number": 64,
                        "time": 50.218152658333324,
                        "value": 1
                    },
                    {
                        "number": 64,
                        "time": 50.71719050416666,
                        "value": 0
                    },
                    {
                        "number": 64,
                        "time": 50.83658165833332,
                        "value": 1
                    },
                    {
                        "number": 64,
                        "time": 51.34678558333332,
                        "value": 0
                    },
                    {
                        "number": 64,
                        "time": 51.51255891249999,
                        "value": 1
                    },
                    {
                        "number": 64,
                        "time": 51.94803599999999,
                        "value": 0
                    },
                    {
                        "number": 64,
                        "time": 52.11982183333332,
                        "value": 1
                    },
                    {
                        "number": 64,
                        "time": 52.57677214999998,
                        "value": 0
                    },
                    {
                        "number": 64,
                        "time": 52.87567949999998,
                        "value": 1
                    },
                    {
                        "number": 64,
                        "time": 53.19090650416665,
                        "value": 0
                    },
                    {
                        "number": 64,
                        "time": 53.31029765833331,
                        "value": 1
                    },
                    {
                        "number": 64,
                        "time": 53.82050158333331,
                        "value": 0
                    },
                    {
                        "number": 64,
                        "time": 53.98627491249998,
                        "value": 1
                    },
                    {
                        "number": 64,
                        "time": 54.42175199999998,
                        "value": 0
                    },
                    {
                        "number": 64,
                        "time": 54.53942529583331,
                        "value": 1
                    },
                    {
                        "number": 64,
                        "time": 54.84176836249998,
                        "value": 0
                    },
                    {
                        "number": 64,
                        "time": 54.912200554166645,
                        "value": 1
                    },
                    {
                        "number": 64,
                        "time": 55.046193504166645,
                        "value": 0
                    },
                    {
                        "number": 64,
                        "time": 55.13809892499998,
                        "value": 1
                    },
                    {
                        "number": 64,
                        "time": 55.65860999999998,
                        "value": 0
                    },
                    {
                        "number": 64,
                        "time": 55.776283295833316,
                        "value": 1
                    },
                    {
                        "number": 64,
                        "time": 56.07862636249998,
                        "value": 0
                    },
                    {
                        "number": 64,
                        "time": 56.14905855416665,
                        "value": 1
                    },
                    {
                        "number": 64,
                        "time": 56.28305150416665,
                        "value": 0
                    },
                    {
                        "number": 64,
                        "time": 56.374956924999985,
                        "value": 1
                    },
                    {
                        "number": 64,
                        "time": 56.89546799999999,
                        "value": 0
                    },
                    {
                        "number": 64,
                        "time": 57.02087165833332,
                        "value": 1
                    },
                    {
                        "number": 64,
                        "time": 57.52506307916666,
                        "value": 0
                    },
                    {
                        "number": 64,
                        "time": 57.61696849999999,
                        "value": 1
                    },
                    {
                        "number": 64,
                        "time": 57.93133657499999,
                        "value": 0
                    },
                    {
                        "number": 64,
                        "time": 58.029254499999986,
                        "value": 1
                    },
                    {
                        "number": 64,
                        "time": 58.132325999999985,
                        "value": 0
                    },
                    {
                        "number": 64,
                        "time": 58.25772965833332,
                        "value": 1
                    },
                    {
                        "number": 64,
                        "time": 58.761921079166655,
                        "value": 0
                    },
                    {
                        "number": 64,
                        "time": 58.85382649999999,
                        "value": 1
                    },
                    {
                        "number": 64,
                        "time": 59.16819457499999,
                        "value": 0
                    },
                    {
                        "number": 64,
                        "time": 59.266112499999984,
                        "value": 1
                    },
                    {
                        "number": 64,
                        "time": 59.36918399999998,
                        "value": 0
                    },
                    {
                        "number": 64,
                        "time": 91.56700274166664,
                        "value": 1
                    },
                    {
                        "number": 64,
                        "time": 96.47492399999997,
                        "value": 0
                    },
                    {
                        "number": 64,
                        "time": 98.3886181833333,
                        "value": 1
                    },
                    {
                        "number": 64,
                        "time": 98.72274162916663,
                        "value": 0
                    },
                    {
                        "number": 64,
                        "time": 98.94863999999997,
                        "value": 1
                    },
                    {
                        "number": 64,
                        "time": 99.14275799166664,
                        "value": 0
                    },
                    {
                        "number": 64,
                        "time": 99.63578333333331,
                        "value": 1
                    },
                    {
                        "number": 64,
                        "time": 100.19151050416664,
                        "value": 0
                    },
                    {
                        "number": 64,
                        "time": 100.31090165833331,
                        "value": 1
                    },
                    {
                        "number": 64,
                        "time": 100.8211055833333,
                        "value": 0
                    },
                    {
                        "number": 64,
                        "time": 100.98687891249998,
                        "value": 1
                    },
                    {
                        "number": 64,
                        "time": 101.42235599999998,
                        "value": 0
                    },
                    {
                        "number": 64,
                        "time": 103.12990718333332,
                        "value": 1
                    },
                    {
                        "number": 64,
                        "time": 103.89607199999999,
                        "value": 0
                    },
                    {
                        "number": 64,
                        "time": 105.07194602916665,
                        "value": 1
                    },
                    {
                        "number": 64,
                        "time": 105.26348723333332,
                        "value": 0
                    },
                    {
                        "number": 64,
                        "time": 105.63798034999999,
                        "value": 1
                    },
                    {
                        "number": 64,
                        "time": 106.36978799999999,
                        "value": 0
                    },
                    {
                        "number": 64,
                        "time": 107.54566202916665,
                        "value": 1
                    },
                    {
                        "number": 64,
                        "time": 107.73720323333332,
                        "value": 0
                    },
                    {
                        "number": 64,
                        "time": 108.11169634999999,
                        "value": 1
                    },
                    {
                        "number": 64,
                        "time": 108.84350399999998,
                        "value": 0
                    },
                    {
                        "number": 64,
                        "time": 108.96117729583331,
                        "value": 1
                    },
                    {
                        "number": 64,
                        "time": 109.26352036249997,
                        "value": 0
                    },
                    {
                        "number": 64,
                        "time": 109.33395255416664,
                        "value": 1
                    },
                    {
                        "number": 64,
                        "time": 109.46794550416665,
                        "value": 0
                    },
                    {
                        "number": 64,
                        "time": 109.55985092499998,
                        "value": 1
                    },
                    {
                        "number": 64,
                        "time": 110.08036199999998,
                        "value": 0
                    },
                    {
                        "number": 64,
                        "time": 111.73723636249998,
                        "value": 0
                    },
                    {
                        "number": 64,
                        "time": 111.80766855416665,
                        "value": 1
                    },
                    {
                        "number": 64,
                        "time": 111.94166150416666,
                        "value": 0
                    },
                    {
                        "number": 64,
                        "time": 112.03356692499999,
                        "value": 1
                    },
                    {
                        "number": 64,
                        "time": 112.55407799999999,
                        "value": 0
                    },
                    {
                        "number": 64,
                        "time": 114.2109523625,
                        "value": 0
                    },
                    {
                        "number": 64,
                        "time": 114.28138455416666,
                        "value": 1
                    },
                    {
                        "number": 64,
                        "time": 114.41537750416667,
                        "value": 0
                    },
                    {
                        "number": 64,
                        "time": 114.507282925,
                        "value": 1
                    },
                    {
                        "number": 64,
                        "time": 115.027794,
                        "value": 0
                    },
                    {
                        "number": 64,
                        "time": 118.67738402916666,
                        "value": 1
                    },
                    {
                        "number": 64,
                        "time": 119.15838436249999,
                        "value": 0
                    },
                    {
                        "number": 64,
                        "time": 119.28808266666665,
                        "value": 1
                    },
                    {
                        "number": 64,
                        "time": 119.57754179583333,
                        "value": 0
                    },
                    {
                        "number": 64,
                        "time": 119.67030614583332,
                        "value": 1
                    },
                    {
                        "number": 64,
                        "time": 119.97952064583332,
                        "value": 0
                    },
                    {
                        "number": 64,
                        "time": 120.07486178333332,
                        "value": 1
                    },
                    {
                        "number": 64,
                        "time": 120.39781914999999,
                        "value": 0
                    },
                    {
                        "number": 64,
                        "time": 120.47941742083333,
                        "value": 1
                    },
                    {
                        "number": 64,
                        "time": 120.80838729166666,
                        "value": 0
                    },
                    {
                        "number": 64,
                        "time": 120.89943378333332,
                        "value": 1
                    },
                    {
                        "number": 64,
                        "time": 121.21723757499998,
                        "value": 0
                    },
                    {
                        "number": 64,
                        "time": 121.34951266666666,
                        "value": 1
                    },
                    {
                        "number": 64,
                        "time": 121.63038250416666,
                        "value": 0
                    },
                    {
                        "number": 64,
                        "time": 121.76179866666666,
                        "value": 1
                    },
                    {
                        "number": 64,
                        "time": 122.04352743333332,
                        "value": 0
                    },
                    {
                        "number": 64,
                        "time": 122.15432929583332,
                        "value": 1
                    },
                    {
                        "number": 64,
                        "time": 122.45667236249999,
                        "value": 0
                    },
                    {
                        "number": 64,
                        "time": 122.49102952916665,
                        "value": 1
                    },
                    {
                        "number": 64,
                        "time": 122.87411193749999,
                        "value": 0
                    },
                    {
                        "number": 64,
                        "time": 122.91877625416666,
                        "value": 1
                    },
                    {
                        "number": 64,
                        "time": 123.206517525,
                        "value": 0
                    },
                    {
                        "number": 64,
                        "time": 123.25204077083333,
                        "value": 1
                    },
                    {
                        "number": 64,
                        "time": 123.69782500833334,
                        "value": 0
                    },
                    {
                        "number": 64,
                        "time": 129.3427074916667,
                        "value": 1
                    },
                    {
                        "number": 64,
                        "time": 129.89242215833335,
                        "value": 0
                    },
                    {
                        "number": 64,
                        "time": 130.57956549166667,
                        "value": 1
                    },
                    {
                        "number": 64,
                        "time": 131.12928015833333,
                        "value": 0
                    },
                    {
                        "number": 64,
                        "time": 131.12928015833333,
                        "value": 0
                    },
                    {
                        "number": 64,
                        "time": 131.90746998333333,
                        "value": 1
                    },
                    {
                        "number": 64,
                        "time": 132.78529559166665,
                        "value": 0
                    },
                    {
                        "number": 64,
                        "time": 134.98930783333333,
                        "value": 1
                    },
                    {
                        "number": 64,
                        "time": 138.12525822083333,
                        "value": 0
                    },
                    {
                        "number": 64,
                        "time": 138.17421718333333,
                        "value": 1
                    },
                    {
                        "number": 64,
                        "time": 138.33827265416667,
                        "value": 0
                    },
                    {
                        "number": 64,
                        "time": 138.40011555416666,
                        "value": 1
                    },
                    {
                        "number": 64,
                        "time": 138.528096,
                        "value": 0
                    },
                    {
                        "number": 64,
                        "time": 138.60711748333333,
                        "value": 1
                    },
                    {
                        "number": 64,
                        "time": 138.79436404166665,
                        "value": 0
                    },
                    {
                        "number": 64,
                        "time": 139.8439754833333,
                        "value": 1
                    },
                    {
                        "number": 64,
                        "time": 140.03122204166664,
                        "value": 0
                    },
                    {
                        "number": 64,
                        "time": 141.0808334833333,
                        "value": 1
                    },
                    {
                        "number": 64,
                        "time": 141.26808004166662,
                        "value": 0
                    },
                    {
                        "number": 64,
                        "time": 143.5210512458333,
                        "value": 1
                    },
                    {
                        "number": 64,
                        "time": 145.94924399999996,
                        "value": 0
                    },
                    {
                        "number": 64,
                        "time": 146.0823780208333,
                        "value": 1
                    },
                    {
                        "number": 64,
                        "time": 147.60869514999996,
                        "value": 0
                    },
                    {
                        "number": 64,
                        "time": 147.7160612958333,
                        "value": 1
                    },
                    {
                        "number": 64,
                        "time": 148.0149686458333,
                        "value": 0
                    },
                    {
                        "number": 64,
                        "time": 148.13779551666664,
                        "value": 1
                    },
                    {
                        "number": 64,
                        "time": 148.42296,
                        "value": 0
                    },
                    {
                        "number": 64,
                        "time": 148.5560940208333,
                        "value": 1
                    },
                    {
                        "number": 64,
                        "time": 148.84641207916664,
                        "value": 0
                    },
                    {
                        "number": 64,
                        "time": 148.94433000416663,
                        "value": 1
                    },
                    {
                        "number": 64,
                        "time": 149.25869807916663,
                        "value": 0
                    },
                    {
                        "number": 64,
                        "time": 149.3445909958333,
                        "value": 1
                    },
                    {
                        "number": 64,
                        "time": 149.65981799999997,
                        "value": 0
                    },
                    {
                        "number": 64,
                        "time": 149.8419109833333,
                        "value": 1
                    },
                    {
                        "number": 64,
                        "time": 150.08327007916662,
                        "value": 0
                    },
                    {
                        "number": 64,
                        "time": 150.22928803749997,
                        "value": 1
                    },
                    {
                        "number": 64,
                        "time": 150.49297929166664,
                        "value": 0
                    },
                    {
                        "number": 64,
                        "time": 150.64157403749996,
                        "value": 1
                    },
                    {
                        "number": 64,
                        "time": 150.90268850416663,
                        "value": 0
                    },
                    {
                        "number": 64,
                        "time": 150.9576599708333,
                        "value": 1
                    },
                    {
                        "number": 64,
                        "time": 152.13353399999997,
                        "value": 0
                    },
                    {
                        "number": 64,
                        "time": 152.24261800416664,
                        "value": 1
                    },
                    {
                        "number": 64,
                        "time": 152.958106,
                        "value": 0
                    },
                    {
                        "number": 64,
                        "time": 153.03626855416664,
                        "value": 1
                    },
                    {
                        "number": 64,
                        "time": 154.20011757499998,
                        "value": 0
                    },
                    {
                        "number": 64,
                        "time": 154.27828012916663,
                        "value": 1
                    },
                    {
                        "number": 64,
                        "time": 154.60724999999996,
                        "value": 0
                    },
                    {
                        "number": 64,
                        "time": 154.7738822583333,
                        "value": 1
                    },
                    {
                        "number": 64,
                        "time": 155.4429880791666,
                        "value": 0
                    },
                    {
                        "number": 64,
                        "time": 155.54949529583328,
                        "value": 1
                    },
                    {
                        "number": 64,
                        "time": 155.84410799999995,
                        "value": 0
                    },
                    {
                        "number": 64,
                        "time": 156.05025099999995,
                        "value": 1
                    },
                    {
                        "number": 64,
                        "time": 157.50355914999994,
                        "value": 0
                    },
                    {
                        "number": 64,
                        "time": 157.61092529583328,
                        "value": 1
                    },
                    {
                        "number": 64,
                        "time": 157.9098326458333,
                        "value": 0
                    },
                    {
                        "number": 64,
                        "time": 158.03265951666663,
                        "value": 1
                    },
                    {
                        "number": 64,
                        "time": 158.31782399999997,
                        "value": 0
                    },
                    {
                        "number": 64,
                        "time": 158.4509580208333,
                        "value": 1
                    },
                    {
                        "number": 64,
                        "time": 158.74127607916662,
                        "value": 0
                    },
                    {
                        "number": 64,
                        "time": 158.83919400416661,
                        "value": 1
                    },
                    {
                        "number": 64,
                        "time": 159.15356207916662,
                        "value": 0
                    },
                    {
                        "number": 64,
                        "time": 159.23945499583328,
                        "value": 1
                    },
                    {
                        "number": 64,
                        "time": 159.55468199999996,
                        "value": 0
                    },
                    {
                        "number": 64,
                        "time": 159.73677498333328,
                        "value": 1
                    },
                    {
                        "number": 64,
                        "time": 159.9781340791666,
                        "value": 0
                    },
                    {
                        "number": 64,
                        "time": 160.12415203749995,
                        "value": 1
                    },
                    {
                        "number": 64,
                        "time": 160.38784329166663,
                        "value": 0
                    },
                    {
                        "number": 64,
                        "time": 160.53643803749995,
                        "value": 1
                    },
                    {
                        "number": 64,
                        "time": 160.79755250416662,
                        "value": 0
                    },
                    {
                        "number": 64,
                        "time": 160.8525239708333,
                        "value": 1
                    },
                    {
                        "number": 64,
                        "time": 162.02839799999995,
                        "value": 0
                    },
                    {
                        "number": 64,
                        "time": 162.13748200416663,
                        "value": 1
                    },
                    {
                        "number": 64,
                        "time": 162.85296999999997,
                        "value": 0
                    },
                    {
                        "number": 64,
                        "time": 162.93113255416662,
                        "value": 1
                    },
                    {
                        "number": 64,
                        "time": 163.26525599999997,
                        "value": 0
                    },
                    {
                        "number": 64,
                        "time": 163.36575071249996,
                        "value": 1
                    },
                    {
                        "number": 64,
                        "time": 164.09498157499996,
                        "value": 0
                    },
                    {
                        "number": 64,
                        "time": 164.17314412916662,
                        "value": 1
                    },
                    {
                        "number": 64,
                        "time": 164.50211399999995,
                        "value": 0
                    },
                    {
                        "number": 64,
                        "time": 164.66874625833327,
                        "value": 1
                    },
                    {
                        "number": 64,
                        "time": 165.3378520791666,
                        "value": 0
                    },
                    {
                        "number": 64,
                        "time": 165.44435929583327,
                        "value": 1
                    },
                    {
                        "number": 64,
                        "time": 165.73897199999993,
                        "value": 0
                    },
                    {
                        "number": 64,
                        "time": 165.8480560041666,
                        "value": 1
                    },
                    {
                        "number": 64,
                        "time": 166.56354399999995,
                        "value": 0
                    },
                    {
                        "number": 64,
                        "time": 166.6417065541666,
                        "value": 1
                    },
                    {
                        "number": 64,
                        "time": 166.97582999999995,
                        "value": 0
                    },
                    {
                        "number": 64,
                        "time": 167.07632471249994,
                        "value": 1
                    },
                    {
                        "number": 64,
                        "time": 167.80040199999993,
                        "value": 0
                    },
                    {
                        "number": 64,
                        "time": 167.8785645541666,
                        "value": 1
                    },
                    {
                        "number": 64,
                        "time": 168.21268799999993,
                        "value": 0
                    },
                    {
                        "number": 64,
                        "time": 168.31318271249992,
                        "value": 1
                    },
                    {
                        "number": 64,
                        "time": 169.04241357499993,
                        "value": 0
                    },
                    {
                        "number": 64,
                        "time": 169.12057612916658,
                        "value": 1
                    },
                    {
                        "number": 64,
                        "time": 169.4495459999999,
                        "value": 0
                    },
                    {
                        "number": 64,
                        "time": 169.61617825833324,
                        "value": 1
                    },
                    {
                        "number": 64,
                        "time": 170.28528407916656,
                        "value": 0
                    },
                    {
                        "number": 64,
                        "time": 170.39179129583323,
                        "value": 1
                    },
                    {
                        "number": 64,
                        "time": 170.6864039999999,
                        "value": 0
                    },
                    {
                        "number": 64,
                        "time": 170.79548800416657,
                        "value": 1
                    },
                    {
                        "number": 64,
                        "time": 171.5109759999999,
                        "value": 0
                    },
                    {
                        "number": 64,
                        "time": 171.58913855416657,
                        "value": 1
                    },
                    {
                        "number": 64,
                        "time": 171.9232619999999,
                        "value": 0
                    },
                    {
                        "number": 64,
                        "time": 172.0237567124999,
                        "value": 1
                    },
                    {
                        "number": 64,
                        "time": 172.7478339999999,
                        "value": 0
                    },
                    {
                        "number": 64,
                        "time": 172.82599655416655,
                        "value": 1
                    },
                    {
                        "number": 64,
                        "time": 173.1601199999999,
                        "value": 0
                    },
                    {
                        "number": 64,
                        "time": 173.2606147124999,
                        "value": 1
                    },
                    {
                        "number": 64,
                        "time": 173.9898455749999,
                        "value": 0
                    },
                    {
                        "number": 64,
                        "time": 174.06800812916654,
                        "value": 1
                    },
                    {
                        "number": 64,
                        "time": 174.39697799999988,
                        "value": 0
                    },
                    {
                        "number": 64,
                        "time": 174.5636102583332,
                        "value": 1
                    },
                    {
                        "number": 64,
                        "time": 175.23271607916652,
                        "value": 0
                    },
                    {
                        "number": 64,
                        "time": 175.3392232958332,
                        "value": 1
                    },
                    {
                        "number": 64,
                        "time": 175.63383599999986,
                        "value": 0
                    },
                    {
                        "number": 64,
                        "time": 175.73433071249985,
                        "value": 1
                    },
                    {
                        "number": 64,
                        "time": 176.46356157499986,
                        "value": 0
                    },
                    {
                        "number": 64,
                        "time": 176.5417241291665,
                        "value": 1
                    },
                    {
                        "number": 64,
                        "time": 176.87069399999984,
                        "value": 0
                    },
                    {
                        "number": 64,
                        "time": 177.03732625833317,
                        "value": 1
                    },
                    {
                        "number": 64,
                        "time": 177.7064320791665,
                        "value": 0
                    },
                    {
                        "number": 64,
                        "time": 177.81293929583316,
                        "value": 1
                    },
                    {
                        "number": 64,
                        "time": 178.10755199999983,
                        "value": 0
                    },
                    {
                        "number": 64,
                        "time": 178.20804671249982,
                        "value": 1
                    },
                    {
                        "number": 64,
                        "time": 178.93727757499983,
                        "value": 0
                    },
                    {
                        "number": 64,
                        "time": 179.01544012916648,
                        "value": 1
                    },
                    {
                        "number": 64,
                        "time": 179.3444099999998,
                        "value": 0
                    },
                    {
                        "number": 64,
                        "time": 179.51104225833313,
                        "value": 1
                    },
                    {
                        "number": 64,
                        "time": 180.18014807916646,
                        "value": 0
                    },
                    {
                        "number": 64,
                        "time": 180.28665529583313,
                        "value": 1
                    },
                    {
                        "number": 64,
                        "time": 180.5812679999998,
                        "value": 0
                    },
                    {
                        "number": 64,
                        "time": 180.6817627124998,
                        "value": 1
                    },
                    {
                        "number": 64,
                        "time": 181.4109935749998,
                        "value": 0
                    },
                    {
                        "number": 64,
                        "time": 181.48915612916645,
                        "value": 1
                    },
                    {
                        "number": 64,
                        "time": 181.81812599999978,
                        "value": 0
                    },
                    {
                        "number": 64,
                        "time": 181.9847582583331,
                        "value": 1
                    },
                    {
                        "number": 64,
                        "time": 182.65386407916642,
                        "value": 0
                    },
                    {
                        "number": 64,
                        "time": 182.7603712958331,
                        "value": 1
                    },
                    {
                        "number": 64,
                        "time": 183.05498399999976,
                        "value": 0
                    },
                    {
                        "number": 64,
                        "time": 183.22161625833309,
                        "value": 1
                    },
                    {
                        "number": 64,
                        "time": 183.8907220791664,
                        "value": 0
                    },
                    {
                        "number": 64,
                        "time": 183.99722929583308,
                        "value": 1
                    },
                    {
                        "number": 64,
                        "time": 184.29184199999975,
                        "value": 0
                    },
                    {
                        "number": 64,
                        "time": 184.39233671249974,
                        "value": 1
                    },
                    {
                        "number": 64,
                        "time": 185.12156757499974,
                        "value": 0
                    },
                    {
                        "number": 64,
                        "time": 185.1997301291664,
                        "value": 1
                    },
                    {
                        "number": 64,
                        "time": 185.52869999999973,
                        "value": 0
                    },
                    {
                        "number": 64,
                        "time": 185.69533225833305,
                        "value": 1
                    },
                    {
                        "number": 64,
                        "time": 188.00241599999973,
                        "value": 0
                    },
                    {
                        "number": 64,
                        "time": 188.1965339916664,
                        "value": 1
                    },
                    {
                        "number": 64,
                        "time": 189.66186714999972,
                        "value": 0
                    },
                    {
                        "number": 64,
                        "time": 189.76923329583306,
                        "value": 1
                    },
                    {
                        "number": 64,
                        "time": 190.06814064583307,
                        "value": 0
                    },
                    {
                        "number": 64,
                        "time": 190.1909675166664,
                        "value": 1
                    },
                    {
                        "number": 64,
                        "time": 190.47613199999975,
                        "value": 0
                    },
                    {
                        "number": 64,
                        "time": 190.60926602083308,
                        "value": 1
                    },
                    {
                        "number": 64,
                        "time": 190.8995840791664,
                        "value": 0
                    },
                    {
                        "number": 64,
                        "time": 190.9975020041664,
                        "value": 1
                    },
                    {
                        "number": 64,
                        "time": 191.3118700791664,
                        "value": 0
                    },
                    {
                        "number": 64,
                        "time": 191.39776299583306,
                        "value": 1
                    },
                    {
                        "number": 64,
                        "time": 191.71298999999973,
                        "value": 0
                    },
                    {
                        "number": 64,
                        "time": 191.89508298333305,
                        "value": 1
                    },
                    {
                        "number": 64,
                        "time": 192.1364420791664,
                        "value": 0
                    },
                    {
                        "number": 64,
                        "time": 192.28246003749973,
                        "value": 1
                    },
                    {
                        "number": 64,
                        "time": 192.5461512916664,
                        "value": 0
                    },
                    {
                        "number": 64,
                        "time": 192.69474603749973,
                        "value": 1
                    },
                    {
                        "number": 64,
                        "time": 192.9558605041664,
                        "value": 0
                    },
                    {
                        "number": 64,
                        "time": 193.01083197083307,
                        "value": 1
                    },
                    {
                        "number": 64,
                        "time": 194.18670599999973,
                        "value": 0
                    },
                    {
                        "number": 64,
                        "time": 194.2957900041664,
                        "value": 1
                    },
                    {
                        "number": 64,
                        "time": 195.01127799999975,
                        "value": 0
                    },
                    {
                        "number": 64,
                        "time": 195.0894405541664,
                        "value": 1
                    },
                    {
                        "number": 64,
                        "time": 196.25328957499974,
                        "value": 0
                    },
                    {
                        "number": 64,
                        "time": 196.3314521291664,
                        "value": 1
                    },
                    {
                        "number": 64,
                        "time": 196.66042199999973,
                        "value": 0
                    },
                    {
                        "number": 64,
                        "time": 196.82705425833305,
                        "value": 1
                    },
                    {
                        "number": 64,
                        "time": 197.49616007916637,
                        "value": 0
                    },
                    {
                        "number": 64,
                        "time": 197.60266729583304,
                        "value": 1
                    },
                    {
                        "number": 64,
                        "time": 197.8972799999997,
                        "value": 0
                    },
                    {
                        "number": 64,
                        "time": 198.1034229999997,
                        "value": 1
                    },
                    {
                        "number": 64,
                        "time": 199.5567311499997,
                        "value": 0
                    },
                    {
                        "number": 64,
                        "time": 199.66409729583305,
                        "value": 1
                    },
                    {
                        "number": 64,
                        "time": 199.96300464583305,
                        "value": 0
                    },
                    {
                        "number": 64,
                        "time": 200.0858315166664,
                        "value": 1
                    },
                    {
                        "number": 64,
                        "time": 200.37099599999974,
                        "value": 0
                    },
                    {
                        "number": 64,
                        "time": 200.50413002083306,
                        "value": 1
                    },
                    {
                        "number": 64,
                        "time": 200.7944480791664,
                        "value": 0
                    },
                    {
                        "number": 64,
                        "time": 200.89236600416638,
                        "value": 1
                    },
                    {
                        "number": 64,
                        "time": 201.20673407916638,
                        "value": 0
                    },
                    {
                        "number": 64,
                        "time": 201.29262699583305,
                        "value": 1
                    },
                    {
                        "number": 64,
                        "time": 201.60785399999972,
                        "value": 0
                    },
                    {
                        "number": 64,
                        "time": 201.78994698333304,
                        "value": 1
                    },
                    {
                        "number": 64,
                        "time": 202.03130607916637,
                        "value": 0
                    },
                    {
                        "number": 64,
                        "time": 202.17732403749972,
                        "value": 1
                    },
                    {
                        "number": 64,
                        "time": 202.4410152916664,
                        "value": 0
                    },
                    {
                        "number": 64,
                        "time": 202.5896100374997,
                        "value": 1
                    },
                    {
                        "number": 64,
                        "time": 202.85072450416638,
                        "value": 0
                    },
                    {
                        "number": 64,
                        "time": 202.90569597083305,
                        "value": 1
                    },
                    {
                        "number": 64,
                        "time": 204.08156999999972,
                        "value": 0
                    },
                    {
                        "number": 64,
                        "time": 204.1906540041664,
                        "value": 1
                    },
                    {
                        "number": 64,
                        "time": 204.90614199999973,
                        "value": 0
                    },
                    {
                        "number": 64,
                        "time": 204.98430455416639,
                        "value": 1
                    },
                    {
                        "number": 64,
                        "time": 205.31842799999973,
                        "value": 0
                    },
                    {
                        "number": 64,
                        "time": 205.41892271249972,
                        "value": 1
                    },
                    {
                        "number": 64,
                        "time": 206.14815357499972,
                        "value": 0
                    },
                    {
                        "number": 64,
                        "time": 206.22631612916638,
                        "value": 1
                    },
                    {
                        "number": 64,
                        "time": 206.5552859999997,
                        "value": 0
                    },
                    {
                        "number": 64,
                        "time": 206.72191825833303,
                        "value": 1
                    },
                    {
                        "number": 64,
                        "time": 207.39102407916636,
                        "value": 0
                    },
                    {
                        "number": 64,
                        "time": 207.49753129583303,
                        "value": 1
                    },
                    {
                        "number": 64,
                        "time": 207.7921439999997,
                        "value": 0
                    },
                    {
                        "number": 64,
                        "time": 207.90122800416637,
                        "value": 1
                    },
                    {
                        "number": 64,
                        "time": 208.6167159999997,
                        "value": 0
                    },
                    {
                        "number": 64,
                        "time": 208.69487855416637,
                        "value": 1
                    },
                    {
                        "number": 64,
                        "time": 209.0290019999997,
                        "value": 0
                    },
                    {
                        "number": 64,
                        "time": 209.1294967124997,
                        "value": 1
                    },
                    {
                        "number": 64,
                        "time": 209.8535739999997,
                        "value": 0
                    },
                    {
                        "number": 64,
                        "time": 209.93173655416635,
                        "value": 1
                    },
                    {
                        "number": 64,
                        "time": 210.2658599999997,
                        "value": 0
                    },
                    {
                        "number": 64,
                        "time": 210.36635471249969,
                        "value": 1
                    },
                    {
                        "number": 64,
                        "time": 211.0955855749997,
                        "value": 0
                    },
                    {
                        "number": 64,
                        "time": 211.17374812916634,
                        "value": 1
                    },
                    {
                        "number": 64,
                        "time": 211.50271799999967,
                        "value": 0
                    },
                    {
                        "number": 64,
                        "time": 211.669350258333,
                        "value": 1
                    },
                    {
                        "number": 64,
                        "time": 212.33845607916632,
                        "value": 0
                    },
                    {
                        "number": 64,
                        "time": 212.444963295833,
                        "value": 1
                    },
                    {
                        "number": 64,
                        "time": 212.73957599999966,
                        "value": 0
                    },
                    {
                        "number": 64,
                        "time": 212.84866000416633,
                        "value": 1
                    },
                    {
                        "number": 64,
                        "time": 213.56414799999968,
                        "value": 0
                    },
                    {
                        "number": 64,
                        "time": 213.64231055416633,
                        "value": 1
                    },
                    {
                        "number": 64,
                        "time": 213.97643399999967,
                        "value": 0
                    },
                    {
                        "number": 64,
                        "time": 214.07692871249967,
                        "value": 1
                    },
                    {
                        "number": 64,
                        "time": 214.80100599999966,
                        "value": 0
                    },
                    {
                        "number": 64,
                        "time": 214.8791685541663,
                        "value": 1
                    },
                    {
                        "number": 64,
                        "time": 215.21329199999965,
                        "value": 0
                    },
                    {
                        "number": 64,
                        "time": 215.31378671249965,
                        "value": 1
                    },
                    {
                        "number": 64,
                        "time": 216.04301757499965,
                        "value": 0
                    },
                    {
                        "number": 64,
                        "time": 216.1211801291663,
                        "value": 1
                    },
                    {
                        "number": 64,
                        "time": 216.45014999999964,
                        "value": 0
                    },
                    {
                        "number": 64,
                        "time": 216.61678225833296,
                        "value": 1
                    },
                    {
                        "number": 64,
                        "time": 217.28588807916628,
                        "value": 0
                    },
                    {
                        "number": 64,
                        "time": 217.39239529583296,
                        "value": 1
                    },
                    {
                        "number": 64,
                        "time": 217.68700799999962,
                        "value": 0
                    },
                    {
                        "number": 64,
                        "time": 217.78750271249962,
                        "value": 1
                    },
                    {
                        "number": 64,
                        "time": 218.51673357499962,
                        "value": 0
                    },
                    {
                        "number": 64,
                        "time": 218.59489612916627,
                        "value": 1
                    },
                    {
                        "number": 64,
                        "time": 218.9238659999996,
                        "value": 0
                    },
                    {
                        "number": 64,
                        "time": 219.09049825833293,
                        "value": 1
                    },
                    {
                        "number": 64,
                        "time": 219.75960407916625,
                        "value": 0
                    },
                    {
                        "number": 64,
                        "time": 219.86611129583292,
                        "value": 1
                    },
                    {
                        "number": 64,
                        "time": 220.1607239999996,
                        "value": 0
                    },
                    {
                        "number": 64,
                        "time": 220.26121871249958,
                        "value": 1
                    },
                    {
                        "number": 64,
                        "time": 220.9904495749996,
                        "value": 0
                    },
                    {
                        "number": 64,
                        "time": 221.06861212916624,
                        "value": 1
                    },
                    {
                        "number": 64,
                        "time": 221.39758199999957,
                        "value": 0
                    },
                    {
                        "number": 64,
                        "time": 221.5642142583329,
                        "value": 1
                    },
                    {
                        "number": 64,
                        "time": 222.23332007916622,
                        "value": 0
                    },
                    {
                        "number": 64,
                        "time": 222.3398272958329,
                        "value": 1
                    },
                    {
                        "number": 64,
                        "time": 222.63443999999956,
                        "value": 0
                    },
                    {
                        "number": 64,
                        "time": 222.73493471249955,
                        "value": 1
                    },
                    {
                        "number": 64,
                        "time": 223.46416557499956,
                        "value": 0
                    },
                    {
                        "number": 64,
                        "time": 223.5423281291662,
                        "value": 1
                    },
                    {
                        "number": 64,
                        "time": 223.87129799999954,
                        "value": 0
                    },
                    {
                        "number": 64,
                        "time": 224.03793025833286,
                        "value": 1
                    },
                    {
                        "number": 64,
                        "time": 224.7070360791662,
                        "value": 0
                    },
                    {
                        "number": 64,
                        "time": 224.81354329583286,
                        "value": 1
                    },
                    {
                        "number": 64,
                        "time": 225.10815599999952,
                        "value": 0
                    },
                    {
                        "number": 64,
                        "time": 225.27478825833285,
                        "value": 1
                    },
                    {
                        "number": 64,
                        "time": 225.94389407916617,
                        "value": 0
                    },
                    {
                        "number": 64,
                        "time": 226.05040129583284,
                        "value": 1
                    },
                    {
                        "number": 64,
                        "time": 226.3450139999995,
                        "value": 0
                    },
                    {
                        "number": 64,
                        "time": 226.4455087124995,
                        "value": 1
                    },
                    {
                        "number": 64,
                        "time": 227.1747395749995,
                        "value": 0
                    },
                    {
                        "number": 64,
                        "time": 227.25290212916616,
                        "value": 1
                    },
                    {
                        "number": 64,
                        "time": 227.5818719999995,
                        "value": 0
                    },
                    {
                        "number": 64,
                        "time": 227.74850425833282,
                        "value": 1
                    },
                    {
                        "number": 64,
                        "time": 230.0555879999995,
                        "value": 0
                    },
                    {
                        "number": 64,
                        "time": 230.24970599166616,
                        "value": 1
                    },
                    {
                        "number": 64,
                        "time": 231.71503914999948,
                        "value": 0
                    },
                    {
                        "number": 64,
                        "time": 231.82240529583282,
                        "value": 1
                    },
                    {
                        "number": 64,
                        "time": 232.12131264583283,
                        "value": 0
                    },
                    {
                        "number": 64,
                        "time": 232.24413951666617,
                        "value": 1
                    },
                    {
                        "number": 64,
                        "time": 232.5293039999995,
                        "value": 0
                    },
                    {
                        "number": 64,
                        "time": 232.66243802083284,
                        "value": 1
                    },
                    {
                        "number": 64,
                        "time": 232.95275607916616,
                        "value": 0
                    },
                    {
                        "number": 64,
                        "time": 233.05067400416615,
                        "value": 1
                    },
                    {
                        "number": 64,
                        "time": 233.36504207916616,
                        "value": 0
                    },
                    {
                        "number": 64,
                        "time": 233.45093499583282,
                        "value": 1
                    },
                    {
                        "number": 64,
                        "time": 233.7661619999995,
                        "value": 0
                    },
                    {
                        "number": 64,
                        "time": 233.94825498333282,
                        "value": 1
                    },
                    {
                        "number": 64,
                        "time": 234.18961407916615,
                        "value": 0
                    },
                    {
                        "number": 64,
                        "time": 234.3356320374995,
                        "value": 1
                    },
                    {
                        "number": 64,
                        "time": 234.59932329166617,
                        "value": 0
                    },
                    {
                        "number": 64,
                        "time": 234.7479180374995,
                        "value": 1
                    },
                    {
                        "number": 64,
                        "time": 235.00903250416616,
                        "value": 0
                    },
                    {
                        "number": 64,
                        "time": 235.06400397083283,
                        "value": 1
                    },
                    {
                        "number": 64,
                        "time": 236.2398779999995,
                        "value": 0
                    },
                    {
                        "number": 64,
                        "time": 236.34896200416617,
                        "value": 1
                    },
                    {
                        "number": 64,
                        "time": 237.0644499999995,
                        "value": 0
                    },
                    {
                        "number": 64,
                        "time": 237.14261255416616,
                        "value": 1
                    },
                    {
                        "number": 64,
                        "time": 238.3064615749995,
                        "value": 0
                    },
                    {
                        "number": 64,
                        "time": 238.38462412916616,
                        "value": 1
                    },
                    {
                        "number": 64,
                        "time": 238.7135939999995,
                        "value": 0
                    },
                    {
                        "number": 64,
                        "time": 238.8802262583328,
                        "value": 1
                    },
                    {
                        "number": 64,
                        "time": 239.54933207916613,
                        "value": 0
                    },
                    {
                        "number": 64,
                        "time": 239.6558392958328,
                        "value": 1
                    },
                    {
                        "number": 64,
                        "time": 239.95045199999947,
                        "value": 0
                    },
                    {
                        "number": 64,
                        "time": 240.15659499999947,
                        "value": 1
                    },
                    {
                        "number": 64,
                        "time": 241.60990314999947,
                        "value": 0
                    },
                    {
                        "number": 64,
                        "time": 241.7172692958328,
                        "value": 1
                    },
                    {
                        "number": 64,
                        "time": 242.01617664583281,
                        "value": 0
                    },
                    {
                        "number": 64,
                        "time": 242.13900351666615,
                        "value": 1
                    },
                    {
                        "number": 64,
                        "time": 242.4241679999995,
                        "value": 0
                    },
                    {
                        "number": 64,
                        "time": 242.55730202083282,
                        "value": 1
                    },
                    {
                        "number": 64,
                        "time": 242.84762007916615,
                        "value": 0
                    },
                    {
                        "number": 64,
                        "time": 242.94553800416614,
                        "value": 1
                    },
                    {
                        "number": 64,
                        "time": 243.25990607916614,
                        "value": 0
                    },
                    {
                        "number": 64,
                        "time": 243.3457989958328,
                        "value": 1
                    },
                    {
                        "number": 64,
                        "time": 243.66102599999948,
                        "value": 0
                    },
                    {
                        "number": 64,
                        "time": 243.8431189833328,
                        "value": 1
                    },
                    {
                        "number": 64,
                        "time": 244.08447807916613,
                        "value": 0
                    },
                    {
                        "number": 64,
                        "time": 244.23049603749948,
                        "value": 1
                    },
                    {
                        "number": 64,
                        "time": 244.49418729166615,
                        "value": 0
                    },
                    {
                        "number": 64,
                        "time": 244.64278203749947,
                        "value": 1
                    },
                    {
                        "number": 64,
                        "time": 244.88328220416614,
                        "value": 0
                    },
                    {
                        "number": 64,
                        "time": 244.9588679708328,
                        "value": 1
                    },
                    {
                        "number": 64,
                        "time": 246.13474199999948,
                        "value": 0
                    },
                    {
                        "number": 64,
                        "time": 246.24382600416615,
                        "value": 1
                    },
                    {
                        "number": 64,
                        "time": 246.9593139999995,
                        "value": 0
                    },
                    {
                        "number": 64,
                        "time": 247.03747655416615,
                        "value": 1
                    },
                    {
                        "number": 64,
                        "time": 247.4325839708328,
                        "value": 1
                    },
                    {
                        "number": 64,
                        "time": 248.60845799999947,
                        "value": 0
                    },
                    {
                        "number": 64,
                        "time": 248.71754200416615,
                        "value": 1
                    },
                    {
                        "number": 64,
                        "time": 249.4330299999995,
                        "value": 0
                    },
                    {
                        "number": 64,
                        "time": 249.51119255416614,
                        "value": 1
                    },
                    {
                        "number": 64,
                        "time": 249.84531599999949,
                        "value": 0
                    },
                    {
                        "number": 64,
                        "time": 250.0025000374995,
                        "value": 1
                    },
                    {
                        "number": 64,
                        "time": 251.9067459999995,
                        "value": 0
                    },
                    {
                        "number": 64,
                        "time": 251.98490855416614,
                        "value": 1
                    },
                    {
                        "number": 64,
                        "time": 252.31903199999948,
                        "value": 0
                    },
                    {
                        "number": 64,
                        "time": 252.47621603749948,
                        "value": 1
                    },
                    {
                        "number": 64,
                        "time": 254.38046199999948,
                        "value": 0
                    },
                    {
                        "number": 64,
                        "time": 254.45862455416614,
                        "value": 1
                    },
                    {
                        "number": 64,
                        "time": 254.79274799999948,
                        "value": 0
                    },
                    {
                        "number": 64,
                        "time": 254.94993203749948,
                        "value": 1
                    },
                    {
                        "number": 64,
                        "time": 256.8541779999995,
                        "value": 0
                    },
                    {
                        "number": 64,
                        "time": 256.93234055416616,
                        "value": 1
                    },
                    {
                        "number": 64,
                        "time": 257.2664639999995,
                        "value": 0
                    },
                    {
                        "number": 64,
                        "time": 257.42364803749945,
                        "value": 1
                    },
                    {
                        "number": 64,
                        "time": 259.32789399999945,
                        "value": 0
                    },
                    {
                        "number": 64,
                        "time": 259.4060565541661,
                        "value": 1
                    },
                    {
                        "number": 64,
                        "time": 259.74017999999944,
                        "value": 0
                    },
                    {
                        "number": 64,
                        "time": 259.8973640374994,
                        "value": 1
                    },
                    {
                        "number": 64,
                        "time": 260.9804737166661,
                        "value": 0
                    },
                    {
                        "number": 64,
                        "time": 261.12391488749944,
                        "value": 1
                    },
                    {
                        "number": 64,
                        "time": 262.21389599999947,
                        "value": 0
                    },
                    {
                        "number": 64,
                        "time": 262.37108003749944,
                        "value": 1
                    },
                    {
                        "number": 64,
                        "time": 263.4541897166661,
                        "value": 0
                    },
                    {
                        "number": 64,
                        "time": 263.59763088749946,
                        "value": 1
                    },
                    {
                        "number": 64,
                        "time": 264.6876119999995,
                        "value": 0
                    },
                    {
                        "number": 64,
                        "time": 264.77608170416613,
                        "value": 1
                    },
                    {
                        "number": 64,
                        "time": 265.92790571666615,
                        "value": 0
                    },
                    {
                        "number": 64,
                        "time": 266.0713468874995,
                        "value": 1
                    },
                    {
                        "number": 64,
                        "time": 267.16476371666613,
                        "value": 0
                    },
                    {
                        "number": 64,
                        "time": 267.30820488749947,
                        "value": 1
                    },
                    {
                        "number": 64,
                        "time": 268.4016217166661,
                        "value": 0
                    },
                    {
                        "number": 64,
                        "time": 268.54506288749945,
                        "value": 1
                    },
                    {
                        "number": 64,
                        "time": 269.5594582333328,
                        "value": 0
                    },
                    {
                        "number": 64,
                        "time": 269.7321029958328,
                        "value": 1
                    },
                    {
                        "number": 64,
                        "time": 271.2944951499995,
                        "value": 0
                    },
                    {
                        "number": 64,
                        "time": 271.4018612958328,
                        "value": 1
                    },
                    {
                        "number": 64,
                        "time": 271.7007686458328,
                        "value": 0
                    },
                    {
                        "number": 64,
                        "time": 271.8235955166661,
                        "value": 1
                    },
                    {
                        "number": 64,
                        "time": 272.10875999999945,
                        "value": 0
                    },
                    {
                        "number": 64,
                        "time": 272.2418940208328,
                        "value": 1
                    },
                    {
                        "number": 64,
                        "time": 272.53221207916613,
                        "value": 0
                    },
                    {
                        "number": 64,
                        "time": 272.6301300041661,
                        "value": 1
                    },
                    {
                        "number": 64,
                        "time": 272.9444980791661,
                        "value": 0
                    },
                    {
                        "number": 64,
                        "time": 273.0303909958328,
                        "value": 1
                    },
                    {
                        "number": 64,
                        "time": 273.3456179999995,
                        "value": 0
                    },
                    {
                        "number": 64,
                        "time": 273.52771098333284,
                        "value": 1
                    },
                    {
                        "number": 64,
                        "time": 273.76907007916617,
                        "value": 0
                    },
                    {
                        "number": 64,
                        "time": 273.9150880374995,
                        "value": 1
                    },
                    {
                        "number": 64,
                        "time": 274.17877929166616,
                        "value": 0
                    },
                    {
                        "number": 64,
                        "time": 274.3273740374995,
                        "value": 1
                    },
                    {
                        "number": 64,
                        "time": 274.58848850416615,
                        "value": 0
                    },
                    {
                        "number": 64,
                        "time": 274.6434599708328,
                        "value": 1
                    },
                    {
                        "number": 64,
                        "time": 275.81933399999946,
                        "value": 0
                    },
                    {
                        "number": 64,
                        "time": 275.92841800416613,
                        "value": 1
                    },
                    {
                        "number": 64,
                        "time": 276.64390599999945,
                        "value": 0
                    },
                    {
                        "number": 64,
                        "time": 276.7220685541661,
                        "value": 1
                    },
                    {
                        "number": 64,
                        "time": 277.88591757499944,
                        "value": 0
                    },
                    {
                        "number": 64,
                        "time": 277.9640801291661,
                        "value": 1
                    },
                    {
                        "number": 64,
                        "time": 278.2930499999995,
                        "value": 0
                    },
                    {
                        "number": 64,
                        "time": 278.4596822583328,
                        "value": 1
                    },
                    {
                        "number": 64,
                        "time": 279.12878807916616,
                        "value": 0
                    },
                    {
                        "number": 64,
                        "time": 279.2352952958328,
                        "value": 1
                    },
                    {
                        "number": 64,
                        "time": 279.52990799999947,
                        "value": 0
                    },
                    {
                        "number": 64,
                        "time": 279.73605099999946,
                        "value": 1
                    },
                    {
                        "number": 64,
                        "time": 281.18935914999946,
                        "value": 0
                    },
                    {
                        "number": 64,
                        "time": 281.2967252958328,
                        "value": 1
                    },
                    {
                        "number": 64,
                        "time": 281.5956326458328,
                        "value": 0
                    },
                    {
                        "number": 64,
                        "time": 281.7184595166661,
                        "value": 1
                    },
                    {
                        "number": 64,
                        "time": 282.00362399999943,
                        "value": 0
                    },
                    {
                        "number": 64,
                        "time": 282.13675802083276,
                        "value": 1
                    },
                    {
                        "number": 64,
                        "time": 282.4270760791661,
                        "value": 0
                    },
                    {
                        "number": 64,
                        "time": 282.5249940041661,
                        "value": 1
                    },
                    {
                        "number": 64,
                        "time": 282.8393620791661,
                        "value": 0
                    },
                    {
                        "number": 64,
                        "time": 282.9252549958328,
                        "value": 1
                    },
                    {
                        "number": 64,
                        "time": 283.2404819999995,
                        "value": 0
                    },
                    {
                        "number": 64,
                        "time": 283.4225749833328,
                        "value": 1
                    },
                    {
                        "number": 64,
                        "time": 283.66393407916615,
                        "value": 0
                    },
                    {
                        "number": 64,
                        "time": 283.8099520374995,
                        "value": 1
                    },
                    {
                        "number": 64,
                        "time": 284.07364329166614,
                        "value": 0
                    },
                    {
                        "number": 64,
                        "time": 284.2222380374995,
                        "value": 1
                    },
                    {
                        "number": 64,
                        "time": 284.4867882208328,
                        "value": 0
                    },
                    {
                        "number": 64,
                        "time": 284.6242168874995,
                        "value": 1
                    },
                    {
                        "number": 64,
                        "time": 285.31307807916613,
                        "value": 0
                    },
                    {
                        "number": 64,
                        "time": 285.4393406666661,
                        "value": 1
                    },
                    {
                        "number": 64,
                        "time": 286.1376500791661,
                        "value": 0
                    },
                    {
                        "number": 64,
                        "time": 286.25360551666614,
                        "value": 1
                    },
                    {
                        "number": 64,
                        "time": 286.96222207916617,
                        "value": 0
                    },
                    {
                        "number": 64,
                        "time": 287.0781775166662,
                        "value": 1
                    },
                    {
                        "number": 64,
                        "time": 287.7867940791662,
                        "value": 0
                    },
                    {
                        "number": 64,
                        "time": 287.93281203749956,
                        "value": 1
                    },
                    {
                        "number": 64,
                        "time": 288.6113660791662,
                        "value": 0
                    },
                    {
                        "number": 64,
                        "time": 288.7273215166662,
                        "value": 1
                    },
                    {
                        "number": 64,
                        "time": 289.43593807916625,
                        "value": 0
                    },
                    {
                        "number": 64,
                        "time": 289.5793792499996,
                        "value": 1
                    },
                    {
                        "number": 64,
                        "time": 290.26051007916624,
                        "value": 0
                    },
                    {
                        "number": 64,
                        "time": 290.4039512499996,
                        "value": 1
                    },
                    {
                        "number": 64,
                        "time": 290.67279607916623,
                        "value": 0
                    },
                    {
                        "number": 64,
                        "time": 290.8162372499996,
                        "value": 1
                    },
                    {
                        "number": 64,
                        "time": 291.4973680791662,
                        "value": 0
                    },
                    {
                        "number": 64,
                        "time": 291.64080924999956,
                        "value": 1
                    },
                    {
                        "number": 64,
                        "time": 291.9096540791662,
                        "value": 0
                    },
                    {
                        "number": 64,
                        "time": 292.06769704583286,
                        "value": 1
                    },
                    {
                        "number": 64,
                        "time": 293.1465120791662,
                        "value": 0
                    },
                    {
                        "number": 64,
                        "time": 293.22295677499955,
                        "value": 1
                    },
                    {
                        "number": 64,
                        "time": 294.3833700791662,
                        "value": 0
                    },
                    {
                        "number": 64,
                        "time": 294.5414130458328,
                        "value": 1
                    },
                    {
                        "number": 64,
                        "time": 295.62022807916617,
                        "value": 0
                    },
                    {
                        "number": 64,
                        "time": 295.7782710458328,
                        "value": 1
                    },
                    {
                        "number": 64,
                        "time": 296.8510735749995,
                        "value": 0
                    },
                    {
                        "number": 64,
                        "time": 297.0151290458328,
                        "value": 1
                    },
                    {
                        "number": 64,
                        "time": 298.09136729166613,
                        "value": 0
                    },
                    {
                        "number": 64,
                        "time": 298.2519870458328,
                        "value": 1
                    },
                    {
                        "number": 64,
                        "time": 299.31963599999943,
                        "value": 0
                    },
                    {
                        "number": 64,
                        "time": 299.44074501249946,
                        "value": 1
                    },
                    {
                        "number": 64,
                        "time": 299.7439470083328,
                        "value": 0
                    },
                    {
                        "number": 64,
                        "time": 299.88910603749946,
                        "value": 1
                    },
                    {
                        "number": 64,
                        "time": 300.1321829916661,
                        "value": 0
                    },
                    {
                        "number": 64,
                        "time": 300.22924198749945,
                        "value": 1
                    },
                    {
                        "number": 64,
                        "time": 300.56851900833277,
                        "value": 0
                    },
                    {
                        "number": 64,
                        "time": 300.7626369999994,
                        "value": 1
                    },
                    {
                        "number": 64,
                        "time": 300.9584728499994,
                        "value": 0
                    },
                    {
                        "number": 64,
                        "time": 301.44978033333274,
                        "value": 1
                    },
                    {
                        "number": 64,
                        "time": 301.7933519999994,
                        "value": 0
                    },
                    {
                        "number": 64,
                        "time": 301.9385110291661,
                        "value": 1
                    },
                    {
                        "number": 64,
                        "time": 303.03622250416606,
                        "value": 0
                    },
                    {
                        "number": 64,
                        "time": 303.21230298333273,
                        "value": 1
                    },
                    {
                        "number": 64,
                        "time": 304.27823407916605,
                        "value": 0
                    },
                    {
                        "number": 64,
                        "time": 306.4616320208327,
                        "value": 1
                    },
                    {
                        "number": 64,
                        "time": 309.2144999999994,
                        "value": 0
                    },
                    {
                        "number": 64,
                        "time": 311.3480800499994,
                        "value": 1
                    },
                    {
                        "number": 64,
                        "time": 314.5845251499994,
                        "value": 0
                    },
                    {
                        "number": 64,
                        "time": 316.39257104583277,
                        "value": 1
                    },
                    {
                        "number": 64,
                        "time": 320.34622199999944,
                        "value": 0
                    },
                    {
                        "number": 64,
                        "time": 321.58737464583277,
                        "value": 0
                    },
                    {
                        "number": 64,
                        "time": 321.66296041249944,
                        "value": 1
                    },
                    {
                        "number": 64,
                        "time": 321.7771979916661,
                        "value": 0
                    },
                    {
                        "number": 64,
                        "time": 322.2702233333328,
                        "value": 1
                    },
                    {
                        "number": 64,
                        "time": 322.82595050416614,
                        "value": 0
                    },
                    {
                        "number": 64,
                        "time": 322.94534165833284,
                        "value": 1
                    },
                    {
                        "number": 64,
                        "time": 323.4555455833328,
                        "value": 0
                    },
                    {
                        "number": 64,
                        "time": 323.6213189124995,
                        "value": 1
                    },
                    {
                        "number": 64,
                        "time": 324.05679599999945,
                        "value": 0
                    },
                    {
                        "number": 64,
                        "time": 325.7643471833328,
                        "value": 1
                    },
                    {
                        "number": 64,
                        "time": 326.5305119999995,
                        "value": 0
                    },
                    {
                        "number": 64,
                        "time": 328.2724203499995,
                        "value": 1
                    },
                    {
                        "number": 64,
                        "time": 329.0042279999995,
                        "value": 0
                    },
                    {
                        "number": 64,
                        "time": 330.7461363499995,
                        "value": 1
                    },
                    {
                        "number": 64,
                        "time": 331.3628474916662,
                        "value": 0
                    },
                    {
                        "number": 64,
                        "time": 331.4779439999995,
                        "value": 1
                    },
                    {
                        "number": 64,
                        "time": 331.67206199166617,
                        "value": 0
                    },
                    {
                        "number": 64,
                        "time": 332.16508733333285,
                        "value": 1
                    },
                    {
                        "number": 64,
                        "time": 332.7208145041662,
                        "value": 0
                    },
                    {
                        "number": 64,
                        "time": 332.8402056583329,
                        "value": 1
                    },
                    {
                        "number": 64,
                        "time": 333.35040958333286,
                        "value": 0
                    },
                    {
                        "number": 64,
                        "time": 333.5161829124995,
                        "value": 1
                    },
                    {
                        "number": 64,
                        "time": 333.9516599999995,
                        "value": 0
                    },
                    {
                        "number": 64,
                        "time": 335.65921118333284,
                        "value": 1
                    },
                    {
                        "number": 64,
                        "time": 336.4253759999995,
                        "value": 0
                    },
                    {
                        "number": 64,
                        "time": 337.6012500291662,
                        "value": 1
                    },
                    {
                        "number": 64,
                        "time": 337.7927912333328,
                        "value": 0
                    },
                    {
                        "number": 64,
                        "time": 338.1672843499995,
                        "value": 1
                    },
                    {
                        "number": 64,
                        "time": 338.8990919999995,
                        "value": 0
                    },
                    {
                        "number": 64,
                        "time": 340.07496602916615,
                        "value": 1
                    },
                    {
                        "number": 64,
                        "time": 340.2665072333328,
                        "value": 0
                    },
                    {
                        "number": 64,
                        "time": 340.64100034999944,
                        "value": 1
                    },
                    {
                        "number": 64,
                        "time": 341.23623826249946,
                        "value": 0
                    },
                    {
                        "number": 64,
                        "time": 341.42949732499943,
                        "value": 1
                    },
                    {
                        "number": 64,
                        "time": 341.9998262916661,
                        "value": 0
                    },
                    {
                        "number": 64,
                        "time": 342.1166406583328,
                        "value": 1
                    },
                    {
                        "number": 64,
                        "time": 342.61567850416617,
                        "value": 0
                    },
                    {
                        "number": 64,
                        "time": 342.73506965833286,
                        "value": 1
                    },
                    {
                        "number": 64,
                        "time": 343.24527358333285,
                        "value": 0
                    },
                    {
                        "number": 64,
                        "time": 343.4110469124995,
                        "value": 1
                    },
                    {
                        "number": 64,
                        "time": 343.8465239999995,
                        "value": 0
                    },
                    {
                        "number": 64,
                        "time": 345.5540751833328,
                        "value": 1
                    },
                    {
                        "number": 64,
                        "time": 346.2171684999995,
                        "value": 0
                    },
                    {
                        "number": 64,
                        "time": 346.3769293249995,
                        "value": 1
                    },
                    {
                        "number": 64,
                        "time": 346.94811722083284,
                        "value": 0
                    },
                    {
                        "number": 64,
                        "time": 347.1053012583328,
                        "value": 1
                    },
                    {
                        "number": 64,
                        "time": 347.56311050416616,
                        "value": 0
                    },
                    {
                        "number": 64,
                        "time": 347.68250165833285,
                        "value": 1
                    },
                    {
                        "number": 64,
                        "time": 348.19270558333284,
                        "value": 0
                    },
                    {
                        "number": 64,
                        "time": 348.3584789124995,
                        "value": 1
                    },
                    {
                        "number": 64,
                        "time": 348.79395599999947,
                        "value": 0
                    },
                    {
                        "number": 64,
                        "time": 350.5015071833328,
                        "value": 1
                    },
                    {
                        "number": 64,
                        "time": 351.1646004999995,
                        "value": 0
                    },
                    {
                        "number": 64,
                        "time": 351.3243613249995,
                        "value": 1
                    },
                    {
                        "number": 64,
                        "time": 351.89640814999944,
                        "value": 0
                    },
                    {
                        "number": 64,
                        "time": 352.0115046583328,
                        "value": 1
                    },
                    {
                        "number": 64,
                        "time": 352.51054250416615,
                        "value": 0
                    },
                    {
                        "number": 64,
                        "time": 352.62993365833285,
                        "value": 1
                    },
                    {
                        "number": 64,
                        "time": 353.14013758333283,
                        "value": 0
                    },
                    {
                        "number": 64,
                        "time": 353.3059109124995,
                        "value": 1
                    },
                    {
                        "number": 64,
                        "time": 353.74138799999946,
                        "value": 0
                    },
                    {
                        "number": 64,
                        "time": 353.9131738333328,
                        "value": 1
                    },
                    {
                        "number": 64,
                        "time": 354.37012414999947,
                        "value": 0
                    },
                    {
                        "number": 64,
                        "time": 354.66903149999945,
                        "value": 1
                    },
                    {
                        "number": 64,
                        "time": 354.9842585041661,
                        "value": 0
                    },
                    {
                        "number": 64,
                        "time": 355.1036496583328,
                        "value": 1
                    },
                    {
                        "number": 64,
                        "time": 355.6138535833328,
                        "value": 0
                    },
                    {
                        "number": 64,
                        "time": 355.77962691249945,
                        "value": 1
                    },
                    {
                        "number": 64,
                        "time": 356.2151039999994,
                        "value": 0
                    },
                    {
                        "number": 64,
                        "time": 356.3327772958328,
                        "value": 1
                    },
                    {
                        "number": 64,
                        "time": 356.63512036249944,
                        "value": 0
                    },
                    {
                        "number": 64,
                        "time": 356.7055525541661,
                        "value": 1
                    },
                    {
                        "number": 64,
                        "time": 356.8395455041661,
                        "value": 0
                    },
                    {
                        "number": 64,
                        "time": 356.9314509249994,
                        "value": 1
                    },
                    {
                        "number": 64,
                        "time": 357.4519619999994,
                        "value": 0
                    },
                    {
                        "number": 64,
                        "time": 357.56963529583277,
                        "value": 1
                    },
                    {
                        "number": 64,
                        "time": 357.8719783624994,
                        "value": 0
                    },
                    {
                        "number": 64,
                        "time": 357.9424105541661,
                        "value": 1
                    },
                    {
                        "number": 64,
                        "time": 358.0764035041661,
                        "value": 0
                    },
                    {
                        "number": 64,
                        "time": 358.1683089249994,
                        "value": 1
                    },
                    {
                        "number": 64,
                        "time": 358.6888199999994,
                        "value": 0
                    },
                    {
                        "number": 64,
                        "time": 358.8142236583327,
                        "value": 1
                    },
                    {
                        "number": 64,
                        "time": 359.318415079166,
                        "value": 0
                    },
                    {
                        "number": 64,
                        "time": 359.41032049999933,
                        "value": 1
                    },
                    {
                        "number": 64,
                        "time": 359.72468857499933,
                        "value": 0
                    },
                    {
                        "number": 64,
                        "time": 359.8226064999993,
                        "value": 1
                    },
                    {
                        "number": 64,
                        "time": 359.9256779999993,
                        "value": 0
                    },
                    {
                        "number": 64,
                        "time": 360.05108165833263,
                        "value": 1
                    },
                    {
                        "number": 64,
                        "time": 360.55527307916594,
                        "value": 0
                    },
                    {
                        "number": 64,
                        "time": 360.64717849999926,
                        "value": 1
                    },
                    {
                        "number": 64,
                        "time": 360.96154657499926,
                        "value": 0
                    },
                    {
                        "number": 64,
                        "time": 361.05946449999925,
                        "value": 1
                    },
                    {
                        "number": 64,
                        "time": 361.16253599999925,
                        "value": 0
                    },
                    {
                        "number": 64,
                        "time": 393.3603547416659,
                        "value": 1
                    },
                    {
                        "number": 64,
                        "time": 398.2682759999992,
                        "value": 0
                    },
                    {
                        "number": 64,
                        "time": 400.18197018333257,
                        "value": 1
                    },
                    {
                        "number": 64,
                        "time": 400.5160936291659,
                        "value": 0
                    },
                    {
                        "number": 64,
                        "time": 400.7419919999992,
                        "value": 1
                    },
                    {
                        "number": 64,
                        "time": 400.93610999166583,
                        "value": 0
                    },
                    {
                        "number": 64,
                        "time": 401.4291353333325,
                        "value": 1
                    },
                    {
                        "number": 64,
                        "time": 401.98486250416585,
                        "value": 0
                    },
                    {
                        "number": 64,
                        "time": 402.10425365833254,
                        "value": 1
                    },
                    {
                        "number": 64,
                        "time": 402.6144575833325,
                        "value": 0
                    },
                    {
                        "number": 64,
                        "time": 402.7802309124992,
                        "value": 1
                    },
                    {
                        "number": 64,
                        "time": 403.21570799999915,
                        "value": 0
                    },
                    {
                        "number": 64,
                        "time": 404.9232591833325,
                        "value": 1
                    },
                    {
                        "number": 64,
                        "time": 405.6894239999992,
                        "value": 0
                    },
                    {
                        "number": 64,
                        "time": 406.86529802916584,
                        "value": 1
                    },
                    {
                        "number": 64,
                        "time": 407.0568392333325,
                        "value": 0
                    },
                    {
                        "number": 64,
                        "time": 407.43133234999914,
                        "value": 1
                    },
                    {
                        "number": 64,
                        "time": 408.16313999999915,
                        "value": 0
                    },
                    {
                        "number": 64,
                        "time": 409.3390140291658,
                        "value": 1
                    },
                    {
                        "number": 64,
                        "time": 409.53055523333245,
                        "value": 0
                    },
                    {
                        "number": 64,
                        "time": 409.9050483499991,
                        "value": 1
                    },
                    {
                        "number": 64,
                        "time": 410.6368559999991,
                        "value": 0
                    },
                    {
                        "number": 64,
                        "time": 410.75452929583247,
                        "value": 1
                    },
                    {
                        "number": 64,
                        "time": 411.0568723624991,
                        "value": 0
                    },
                    {
                        "number": 64,
                        "time": 411.1273045541658,
                        "value": 1
                    },
                    {
                        "number": 64,
                        "time": 411.2612975041658,
                        "value": 0
                    },
                    {
                        "number": 64,
                        "time": 411.3532029249991,
                        "value": 1
                    },
                    {
                        "number": 64,
                        "time": 411.8737139999991,
                        "value": 0
                    },
                    {
                        "number": 64,
                        "time": 413.5305883624991,
                        "value": 0
                    },
                    {
                        "number": 64,
                        "time": 413.60102055416576,
                        "value": 1
                    },
                    {
                        "number": 64,
                        "time": 413.73501350416575,
                        "value": 0
                    },
                    {
                        "number": 64,
                        "time": 413.82691892499906,
                        "value": 1
                    },
                    {
                        "number": 64,
                        "time": 414.34742999999906,
                        "value": 0
                    },
                    {
                        "number": 64,
                        "time": 416.00430436249906,
                        "value": 0
                    },
                    {
                        "number": 64,
                        "time": 416.0747365541657,
                        "value": 1
                    },
                    {
                        "number": 64,
                        "time": 416.2087295041657,
                        "value": 0
                    },
                    {
                        "number": 64,
                        "time": 416.30063492499903,
                        "value": 1
                    },
                    {
                        "number": 64,
                        "time": 416.82114599999903,
                        "value": 0
                    },
                    {
                        "number": 64,
                        "time": 420.4707360291657,
                        "value": 1
                    },
                    {
                        "number": 64,
                        "time": 420.95173636249905,
                        "value": 0
                    },
                    {
                        "number": 64,
                        "time": 421.0814346666657,
                        "value": 1
                    },
                    {
                        "number": 64,
                        "time": 421.3708937958324,
                        "value": 0
                    },
                    {
                        "number": 64,
                        "time": 421.46365814583237,
                        "value": 1
                    },
                    {
                        "number": 64,
                        "time": 421.77287264583236,
                        "value": 0
                    },
                    {
                        "number": 64,
                        "time": 421.86821378333235,
                        "value": 1
                    },
                    {
                        "number": 64,
                        "time": 422.19117114999904,
                        "value": 0
                    },
                    {
                        "number": 64,
                        "time": 422.2727694208324,
                        "value": 1
                    },
                    {
                        "number": 64,
                        "time": 422.60173929166575,
                        "value": 0
                    },
                    {
                        "number": 64,
                        "time": 422.6927857833324,
                        "value": 1
                    },
                    {
                        "number": 64,
                        "time": 423.0105895749991,
                        "value": 0
                    },
                    {
                        "number": 64,
                        "time": 423.14286466666573,
                        "value": 1
                    },
                    {
                        "number": 64,
                        "time": 423.42373450416574,
                        "value": 0
                    },
                    {
                        "number": 64,
                        "time": 423.5551506666657,
                        "value": 1
                    },
                    {
                        "number": 64,
                        "time": 423.8368794333324,
                        "value": 0
                    },
                    {
                        "number": 64,
                        "time": 423.9476812958324,
                        "value": 1
                    },
                    {
                        "number": 64,
                        "time": 424.25002436249906,
                        "value": 0
                    },
                    {
                        "number": 64,
                        "time": 424.2843815291657,
                        "value": 1
                    },
                    {
                        "number": 64,
                        "time": 424.66746393749906,
                        "value": 0
                    },
                    {
                        "number": 64,
                        "time": 424.71212825416575,
                        "value": 1
                    },
                    {
                        "number": 64,
                        "time": 424.9998695249991,
                        "value": 0
                    },
                    {
                        "number": 64,
                        "time": 425.04539277083245,
                        "value": 1
                    },
                    {
                        "number": 64,
                        "time": 425.49117700833244,
                        "value": 0
                    },
                    {
                        "number": 64,
                        "time": 431.1360594916658,
                        "value": 1
                    },
                    {
                        "number": 64,
                        "time": 431.68577415833244,
                        "value": 0
                    },
                    {
                        "number": 64,
                        "time": 432.37291749166576,
                        "value": 1
                    },
                    {
                        "number": 64,
                        "time": 432.9226321583324,
                        "value": 0
                    },
                    {
                        "number": 64,
                        "time": 432.9226321583324,
                        "value": 0
                    },
                    {
                        "number": 64,
                        "time": 433.70082198333245,
                        "value": 1
                    },
                    {
                        "number": 64,
                        "time": 434.5786475916658,
                        "value": 0
                    },
                    {
                        "number": 64,
                        "time": 436.78265983333245,
                        "value": 1
                    },
                    {
                        "number": 64,
                        "time": 439.9186102208324,
                        "value": 0
                    },
                    {
                        "number": 64,
                        "time": 439.96756918333244,
                        "value": 1
                    },
                    {
                        "number": 64,
                        "time": 440.13162465416576,
                        "value": 0
                    },
                    {
                        "number": 64,
                        "time": 440.19346755416575,
                        "value": 1
                    },
                    {
                        "number": 64,
                        "time": 440.32144799999907,
                        "value": 0
                    },
                    {
                        "number": 64,
                        "time": 440.4004694833324,
                        "value": 1
                    },
                    {
                        "number": 64,
                        "time": 440.5877160416658,
                        "value": 0
                    },
                    {
                        "number": 64,
                        "time": 441.63732748333246,
                        "value": 1
                    },
                    {
                        "number": 64,
                        "time": 441.8245740416658,
                        "value": 0
                    },
                    {
                        "number": 64,
                        "time": 442.8741854833325,
                        "value": 1
                    },
                    {
                        "number": 64,
                        "time": 443.06143204166585,
                        "value": 0
                    }
                ]
            },
            "id": 3,
            "name": "Pedale",
            "instrumentNumber": 0,
            "instrument": "acoustic grand piano",
            "instrumentFamily": "piano",
            "channelNumber": 0,
            "isPercussion": false
        },
        {
            "startTime": 0,
            "duration": 0,
            "length": 0,
            "notes": [],
            "controlChanges": {},
            "id": 4,
            "name": "Brahms: Sonata in C 3. movement"
        },
        {
            "startTime": 0,
            "duration": 0,
            "length": 0,
            "notes": [],
            "controlChanges": {},
            "id": 5,
            "name": "Copyright  2009 by Bernd Krueger"
        },
        {
            "startTime": 0,
            "duration": 0,
            "length": 0,
            "notes": [],
            "controlChanges": {},
            "id": 6,
            "name": "http://www.piano-midi.de/"
        },
        {
            "startTime": 0,
            "duration": 0,
            "length": 0,
            "notes": [],
            "controlChanges": {},
            "id": 7,
            "name": "Edition: 2009-05-21"
        },
        {
            "startTime": 0,
            "duration": 0,
            "length": 0,
            "notes": [],
            "controlChanges": {},
            "id": 8
        },
        {
            "startTime": 0,
            "duration": 0,
            "length": 0,
            "notes": [],
            "controlChanges": {},
            "id": 9
        },
        {
            "startTime": 0,
            "duration": 0,
            "length": 0,
            "notes": [],
            "controlChanges": {},
            "id": 10
        },
        {
            "startTime": 0,
            "duration": 0,
            "length": 0,
            "notes": [],
            "controlChanges": {},
            "id": 11
        },
        {
            "startTime": 0,
            "duration": 0,
            "length": 0,
            "notes": [],
            "controlChanges": {},
            "id": 12
        },
        {
            "startTime": 0,
            "duration": 0,
            "length": 0,
            "notes": [],
            "controlChanges": {},
            "id": 13
        },
        {
            "startTime": 0,
            "duration": 0,
            "length": 0,
            "notes": [],
            "controlChanges": {},
            "id": 14
        },
        {
            "startTime": 0,
            "duration": 0,
            "length": 0,
            "notes": [],
            "controlChanges": {},
            "id": 15
        },
        {
            "startTime": 0,
            "duration": 0,
            "length": 0,
            "notes": [],
            "controlChanges": {},
            "id": 16
        }
    ]
}