{
    "header": {
        "PPQ": 480,
        "timeSignature": [
            6,
            8
        ],
        "bpm": 103.02993878304471,
        "name": "Chopin Prelude  No. 17, Opus 28"
    },
    "startTime": 0,
    "duration": 157.23585000000105,
    "tracks": [
        {
            "startTime": 0,
            "duration": 0,
            "length": 0,
            "notes": [],
            "controlChanges": {},
            "id": 0,
            "name": "Chopin Prelude  No. 17, Opus 28"
        },
        {
            "startTime": 0,
            "duration": 157.2358500000007,
            "length": 1032,
            "notes": [
                {
                    "name": "C4",
                    "midi": 60,
                    "time": 0,
                    "velocity": 0.2677165354330709,
                    "duration": 0.27661862499999995
                },
                {
                    "name": "C4",
                    "midi": 60,
                    "time": 0.2911775,
                    "velocity": 0.2755905511811024,
                    "duration": 0.2766186249999999
                },
                {
                    "name": "C4",
                    "midi": 60,
                    "time": 0.5823549999999998,
                    "velocity": 0.29133858267716534,
                    "duration": 0.2766186249999999
                },
                {
                    "name": "C4",
                    "midi": 60,
                    "time": 0.8735324999999997,
                    "velocity": 0.2992125984251969,
                    "duration": 0.2766186249999999
                },
                {
                    "name": "C4",
                    "midi": 60,
                    "time": 1.1647099999999997,
                    "velocity": 0.30708661417322836,
                    "duration": 0.276618625
                },
                {
                    "name": "C4",
                    "midi": 60,
                    "time": 1.4558874999999998,
                    "velocity": 0.3228346456692913,
                    "duration": 0.276618625
                },
                {
                    "name": "C4",
                    "midi": 60,
                    "time": 1.7470649999999999,
                    "velocity": 0.33858267716535434,
                    "duration": 0.276618625
                },
                {
                    "name": "C4",
                    "midi": 60,
                    "time": 2.0382425,
                    "velocity": 0.3543307086614173,
                    "duration": 0.2766186249999998
                },
                {
                    "name": "C4",
                    "midi": 60,
                    "time": 2.32942,
                    "velocity": 0.3700787401574803,
                    "duration": 0.2766186249999998
                },
                {
                    "name": "C4",
                    "midi": 60,
                    "time": 2.6205974999999997,
                    "velocity": 0.3700787401574803,
                    "duration": 0.2766186249999998
                },
                {
                    "name": "C4",
                    "midi": 60,
                    "time": 2.9117749999999996,
                    "velocity": 0.3543307086614173,
                    "duration": 0.2766186249999998
                },
                {
                    "name": "C4",
                    "midi": 60,
                    "time": 3.2029524999999994,
                    "velocity": 0.31496062992125984,
                    "duration": 0.2766186249999998
                },
                {
                    "name": "C#4",
                    "midi": 61,
                    "time": 3.4941299999999993,
                    "velocity": 0.3779527559055118,
                    "duration": 0.2766186249999998
                },
                {
                    "name": "G4",
                    "midi": 67,
                    "time": 3.785307499999999,
                    "velocity": 0.4330708661417323,
                    "duration": 0.27661862500000023
                },
                {
                    "name": "C#4",
                    "midi": 61,
                    "time": 3.785307499999999,
                    "velocity": 0.33070866141732286,
                    "duration": 0.27661862500000023
                },
                {
                    "name": "C5",
                    "midi": 72,
                    "time": 4.076484999999999,
                    "velocity": 0.44881889763779526,
                    "duration": 0.27661862500000023
                },
                {
                    "name": "C#4",
                    "midi": 61,
                    "time": 4.076484999999999,
                    "velocity": 0.3464566929133858,
                    "duration": 0.27661862500000023
                },
                {
                    "name": "C#5",
                    "midi": 73,
                    "time": 4.367662499999999,
                    "velocity": 0.4645669291338583,
                    "duration": 0.27661862500000023
                },
                {
                    "name": "C#4",
                    "midi": 61,
                    "time": 4.367662499999999,
                    "velocity": 0.3543307086614173,
                    "duration": 0.27661862500000023
                },
                {
                    "name": "F4",
                    "midi": 65,
                    "time": 4.658839999999999,
                    "velocity": 0.4409448818897638,
                    "duration": 0.27661862500000023
                },
                {
                    "name": "C#4",
                    "midi": 61,
                    "time": 4.658839999999999,
                    "velocity": 0.33858267716535434,
                    "duration": 0.27661862500000023
                },
                {
                    "name": "G4",
                    "midi": 67,
                    "time": 4.950017499999999,
                    "velocity": 0.4330708661417323,
                    "duration": 0.27661862500000023
                },
                {
                    "name": "C#4",
                    "midi": 61,
                    "time": 4.950017499999999,
                    "velocity": 0.33070866141732286,
                    "duration": 0.27661862500000023
                },
                {
                    "name": "A#4",
                    "midi": 70,
                    "time": 5.2411949999999985,
                    "velocity": 0.48031496062992124,
                    "duration": 0.8735324999999996
                },
                {
                    "name": "C4",
                    "midi": 60,
                    "time": 5.532372499999998,
                    "velocity": 0.2047244094488189,
                    "duration": 0.27661862500000023
                },
                {
                    "name": "F#4",
                    "midi": 66,
                    "time": 5.532372499999998,
                    "velocity": 0.2440944881889764,
                    "duration": 0.27661862500000023
                },
                {
                    "name": "C4",
                    "midi": 60,
                    "time": 5.823549999999998,
                    "velocity": 0.2047244094488189,
                    "duration": 0.27661862500000023
                },
                {
                    "name": "F#4",
                    "midi": 66,
                    "time": 5.823549999999998,
                    "velocity": 0.2440944881889764,
                    "duration": 0.27661862500000023
                },
                {
                    "name": "G#4",
                    "midi": 68,
                    "time": 6.114727499999998,
                    "velocity": 0.4094488188976378,
                    "duration": 1.1647100000000004
                },
                {
                    "name": "C4",
                    "midi": 60,
                    "time": 6.114727499999998,
                    "velocity": 0.23622047244094488,
                    "duration": 0.27661862500000023
                },
                {
                    "name": "F#4",
                    "midi": 66,
                    "time": 6.114727499999998,
                    "velocity": 0.28346456692913385,
                    "duration": 0.27661862500000023
                },
                {
                    "name": "F#4",
                    "midi": 66,
                    "time": 6.405904999999998,
                    "velocity": 0.2440944881889764,
                    "duration": 0.27661862500000023
                },
                {
                    "name": "C4",
                    "midi": 60,
                    "time": 6.405904999999998,
                    "velocity": 0.2047244094488189,
                    "duration": 0.27661862500000023
                },
                {
                    "name": "F#4",
                    "midi": 66,
                    "time": 6.697082499999998,
                    "velocity": 0.2440944881889764,
                    "duration": 0.27661862500000023
                },
                {
                    "name": "C4",
                    "midi": 60,
                    "time": 6.697082499999998,
                    "velocity": 0.2047244094488189,
                    "duration": 0.27661862500000023
                },
                {
                    "name": "C#5",
                    "midi": 73,
                    "time": 7.2794374999999985,
                    "velocity": 0.4645669291338583,
                    "duration": 0.27661862500000023
                },
                {
                    "name": "G#4",
                    "midi": 68,
                    "time": 7.2794374999999985,
                    "velocity": 0.3543307086614173,
                    "duration": 0.27661862500000023
                },
                {
                    "name": "G5",
                    "midi": 79,
                    "time": 7.570614999999998,
                    "velocity": 0.49606299212598426,
                    "duration": 0.27661862500000023
                },
                {
                    "name": "G#4",
                    "midi": 68,
                    "time": 7.570614999999998,
                    "velocity": 0.3858267716535433,
                    "duration": 0.27661862500000023
                },
                {
                    "name": "A#5",
                    "midi": 82,
                    "time": 7.861792499999998,
                    "velocity": 0.5354330708661418,
                    "duration": 0.27661862499999934
                },
                {
                    "name": "G#4",
                    "midi": 68,
                    "time": 7.861792499999998,
                    "velocity": 0.4094488188976378,
                    "duration": 0.27661862499999934
                },
                {
                    "name": "G#5",
                    "midi": 80,
                    "time": 8.152969999999998,
                    "velocity": 0.48031496062992124,
                    "duration": 0.27661862499999934
                },
                {
                    "name": "G#4",
                    "midi": 68,
                    "time": 8.152969999999998,
                    "velocity": 0.3700787401574803,
                    "duration": 0.27661862499999934
                },
                {
                    "name": "F5",
                    "midi": 77,
                    "time": 8.444147499999998,
                    "velocity": 0.48031496062992124,
                    "duration": 0.27661862499999934
                },
                {
                    "name": "G#4",
                    "midi": 68,
                    "time": 8.444147499999998,
                    "velocity": 0.3700787401574803,
                    "duration": 0.27661862499999934
                },
                {
                    "name": "D#5",
                    "midi": 75,
                    "time": 8.735324999999998,
                    "velocity": 0.5590551181102362,
                    "duration": 0.8735324999999996
                },
                {
                    "name": "D#4",
                    "midi": 63,
                    "time": 9.026502499999998,
                    "velocity": 0.33070866141732286,
                    "duration": 0.27661862499999934
                },
                {
                    "name": "A#4",
                    "midi": 70,
                    "time": 9.026502499999998,
                    "velocity": 0.3937007874015748,
                    "duration": 0.27661862499999934
                },
                {
                    "name": "D#4",
                    "midi": 63,
                    "time": 9.317679999999998,
                    "velocity": 0.33070866141732286,
                    "duration": 0.27661862499999934
                },
                {
                    "name": "A#4",
                    "midi": 70,
                    "time": 9.317679999999998,
                    "velocity": 0.3937007874015748,
                    "duration": 0.27661862499999934
                },
                {
                    "name": "F5",
                    "midi": 77,
                    "time": 9.608857499999997,
                    "velocity": 0.5433070866141733,
                    "duration": 1.1647099999999995
                },
                {
                    "name": "C#5",
                    "midi": 73,
                    "time": 9.900034999999997,
                    "velocity": 0.3937007874015748,
                    "duration": 0.27661862499999934
                },
                {
                    "name": "F4",
                    "midi": 65,
                    "time": 9.900034999999997,
                    "velocity": 0.33070866141732286,
                    "duration": 0.27661862499999934
                },
                {
                    "name": "C#5",
                    "midi": 73,
                    "time": 10.191212499999997,
                    "velocity": 0.3779527559055118,
                    "duration": 0.27661862499999934
                },
                {
                    "name": "F4",
                    "midi": 65,
                    "time": 10.191212499999997,
                    "velocity": 0.31496062992125984,
                    "duration": 0.27661862499999934
                },
                {
                    "name": "A#4",
                    "midi": 70,
                    "time": 10.773567499999997,
                    "velocity": 0.4645669291338583,
                    "duration": 0.27661862499999934
                },
                {
                    "name": "D#5",
                    "midi": 75,
                    "time": 11.064744999999997,
                    "velocity": 0.49606299212598426,
                    "duration": 0.27661862499999934
                },
                {
                    "name": "D#4",
                    "midi": 63,
                    "time": 11.064744999999997,
                    "velocity": 0.3858267716535433,
                    "duration": 0.27661862499999934
                },
                {
                    "name": "A#4",
                    "midi": 70,
                    "time": 11.064744999999997,
                    "velocity": 0.3858267716535433,
                    "duration": 0.27661862499999934
                },
                {
                    "name": "G5",
                    "midi": 79,
                    "time": 11.355922499999997,
                    "velocity": 0.5039370078740157,
                    "duration": 0.27661862499999934
                },
                {
                    "name": "A#4",
                    "midi": 70,
                    "time": 11.355922499999997,
                    "velocity": 0.4094488188976378,
                    "duration": 0.27661862499999934
                },
                {
                    "name": "F5",
                    "midi": 77,
                    "time": 11.647099999999996,
                    "velocity": 0.48031496062992124,
                    "duration": 0.27661862499999934
                },
                {
                    "name": "A#4",
                    "midi": 70,
                    "time": 11.647099999999996,
                    "velocity": 0.3700787401574803,
                    "duration": 0.27661862499999934
                },
                {
                    "name": "C#5",
                    "midi": 73,
                    "time": 11.938277499999996,
                    "velocity": 0.48031496062992124,
                    "duration": 0.27661862499999934
                },
                {
                    "name": "A#4",
                    "midi": 70,
                    "time": 11.938277499999996,
                    "velocity": 0.3700787401574803,
                    "duration": 0.27661862499999934
                },
                {
                    "name": "C5",
                    "midi": 72,
                    "time": 12.229454999999996,
                    "velocity": 0.5511811023622047,
                    "duration": 0.8735324999999996
                },
                {
                    "name": "D#4",
                    "midi": 63,
                    "time": 12.520632499999996,
                    "velocity": 0.29133858267716534,
                    "duration": 0.27661862499999934
                },
                {
                    "name": "A4",
                    "midi": 69,
                    "time": 12.520632499999996,
                    "velocity": 0.3543307086614173,
                    "duration": 0.27661862499999934
                },
                {
                    "name": "D#4",
                    "midi": 63,
                    "time": 12.811809999999996,
                    "velocity": 0.29133858267716534,
                    "duration": 0.27661862499999934
                },
                {
                    "name": "A4",
                    "midi": 69,
                    "time": 12.811809999999996,
                    "velocity": 0.3543307086614173,
                    "duration": 0.27661862499999934
                },
                {
                    "name": "C#5",
                    "midi": 73,
                    "time": 13.102987499999996,
                    "velocity": 0.4566929133858268,
                    "duration": 1.1647099999999995
                },
                {
                    "name": "G#4",
                    "midi": 68,
                    "time": 13.394164999999996,
                    "velocity": 0.2755905511811024,
                    "duration": 0.27661862499999934
                },
                {
                    "name": "C#4",
                    "midi": 61,
                    "time": 13.394164999999996,
                    "velocity": 0.2283464566929134,
                    "duration": 0.27661862499999934
                },
                {
                    "name": "G#4",
                    "midi": 68,
                    "time": 13.685342499999996,
                    "velocity": 0.2677165354330709,
                    "duration": 0.27661862499999934
                },
                {
                    "name": "C#4",
                    "midi": 61,
                    "time": 13.685342499999996,
                    "velocity": 0.2204724409448819,
                    "duration": 0.27661862499999934
                },
                {
                    "name": "G#4",
                    "midi": 68,
                    "time": 14.267697499999995,
                    "velocity": 0.3937007874015748,
                    "duration": 0.27661862499999934
                },
                {
                    "name": "C#4",
                    "midi": 61,
                    "time": 14.267697499999995,
                    "velocity": 0.3228346456692913,
                    "duration": 0.27661862499999934
                },
                {
                    "name": "G4",
                    "midi": 67,
                    "time": 14.558874999999995,
                    "velocity": 0.3228346456692913,
                    "duration": 0.27661862499999934
                },
                {
                    "name": "C#4",
                    "midi": 61,
                    "time": 14.558874999999995,
                    "velocity": 0.2677165354330709,
                    "duration": 0.27661862499999934
                },
                {
                    "name": "A#4",
                    "midi": 70,
                    "time": 14.558874999999995,
                    "velocity": 0.41732283464566927,
                    "duration": 0.27661862499999934
                },
                {
                    "name": "C#5",
                    "midi": 73,
                    "time": 14.850052499999995,
                    "velocity": 0.44881889763779526,
                    "duration": 0.27661862499999934
                },
                {
                    "name": "G#4",
                    "midi": 68,
                    "time": 15.141229999999995,
                    "velocity": 0.30708661417322836,
                    "duration": 0.27661862499999934
                },
                {
                    "name": "C4",
                    "midi": 60,
                    "time": 15.141229999999995,
                    "velocity": 0.25984251968503935,
                    "duration": 0.27661862499999934
                },
                {
                    "name": "C5",
                    "midi": 72,
                    "time": 15.141229999999995,
                    "velocity": 0.4015748031496063,
                    "duration": 0.27661862499999934
                },
                {
                    "name": "G#4",
                    "midi": 68,
                    "time": 15.432407499999995,
                    "velocity": 0.36220472440944884,
                    "duration": 0.27661862499999934
                },
                {
                    "name": "C4",
                    "midi": 60,
                    "time": 15.432407499999995,
                    "velocity": 0.2283464566929134,
                    "duration": 0.27661862499999934
                },
                {
                    "name": "F4",
                    "midi": 65,
                    "time": 15.432407499999995,
                    "velocity": 0.2755905511811024,
                    "duration": 0.27661862499999934
                },
                {
                    "name": "A#4",
                    "midi": 70,
                    "time": 15.723584999999995,
                    "velocity": 0.4330708661417323,
                    "duration": 2.038242500000001
                },
                {
                    "name": "A#3",
                    "midi": 58,
                    "time": 16.014762499999996,
                    "velocity": 0.2677165354330709,
                    "duration": 0.2766186250000011
                },
                {
                    "name": "G4",
                    "midi": 67,
                    "time": 16.014762499999996,
                    "velocity": 0.31496062992125984,
                    "duration": 0.2766186250000011
                },
                {
                    "name": "A#3",
                    "midi": 58,
                    "time": 16.305939999999996,
                    "velocity": 0.25984251968503935,
                    "duration": 0.2766186250000011
                },
                {
                    "name": "G4",
                    "midi": 67,
                    "time": 16.305939999999996,
                    "velocity": 0.30708661417322836,
                    "duration": 0.2766186250000011
                },
                {
                    "name": "A#3",
                    "midi": 58,
                    "time": 16.597117499999996,
                    "velocity": 0.2677165354330709,
                    "duration": 0.2766186250000011
                },
                {
                    "name": "G4",
                    "midi": 67,
                    "time": 16.597117499999996,
                    "velocity": 0.31496062992125984,
                    "duration": 0.2766186250000011
                },
                {
                    "name": "A#3",
                    "midi": 58,
                    "time": 16.888294999999996,
                    "velocity": 0.25196850393700787,
                    "duration": 0.2766186250000011
                },
                {
                    "name": "G4",
                    "midi": 67,
                    "time": 16.888294999999996,
                    "velocity": 0.2992125984251969,
                    "duration": 0.2766186250000011
                },
                {
                    "name": "A#3",
                    "midi": 58,
                    "time": 17.179472499999996,
                    "velocity": 0.25196850393700787,
                    "duration": 0.2766186250000011
                },
                {
                    "name": "G4",
                    "midi": 67,
                    "time": 17.179472499999996,
                    "velocity": 0.2992125984251969,
                    "duration": 0.2766186250000011
                },
                {
                    "name": "C#4",
                    "midi": 61,
                    "time": 17.470649999999996,
                    "velocity": 0.5039370078740157,
                    "duration": 0.2766186250000011
                },
                {
                    "name": "G4",
                    "midi": 67,
                    "time": 17.761827499999995,
                    "velocity": 0.5354330708661418,
                    "duration": 0.2766186250000011
                },
                {
                    "name": "C#4",
                    "midi": 61,
                    "time": 17.761827499999995,
                    "velocity": 0.4094488188976378,
                    "duration": 0.2766186250000011
                },
                {
                    "name": "C#4",
                    "midi": 61,
                    "time": 18.053004999999995,
                    "velocity": 0.4251968503937008,
                    "duration": 0.2766186250000011
                },
                {
                    "name": "G4",
                    "midi": 67,
                    "time": 18.053004999999995,
                    "velocity": 0.4251968503937008,
                    "duration": 0.2766186250000011
                },
                {
                    "name": "C5",
                    "midi": 72,
                    "time": 18.053004999999995,
                    "velocity": 0.5511811023622047,
                    "duration": 0.2766186250000011
                },
                {
                    "name": "C#5",
                    "midi": 73,
                    "time": 18.344182499999995,
                    "velocity": 0.5669291338582677,
                    "duration": 0.2766186250000011
                },
                {
                    "name": "G4",
                    "midi": 67,
                    "time": 18.344182499999995,
                    "velocity": 0.4330708661417323,
                    "duration": 0.2766186250000011
                },
                {
                    "name": "C#4",
                    "midi": 61,
                    "time": 18.344182499999995,
                    "velocity": 0.4330708661417323,
                    "duration": 0.2766186250000011
                },
                {
                    "name": "F4",
                    "midi": 65,
                    "time": 18.635359999999995,
                    "velocity": 0.5433070866141733,
                    "duration": 0.2766186250000011
                },
                {
                    "name": "C#4",
                    "midi": 61,
                    "time": 18.635359999999995,
                    "velocity": 0.41732283464566927,
                    "duration": 0.2766186250000011
                },
                {
                    "name": "G4",
                    "midi": 67,
                    "time": 18.926537499999995,
                    "velocity": 0.5354330708661418,
                    "duration": 0.2766186250000011
                },
                {
                    "name": "C#4",
                    "midi": 61,
                    "time": 18.926537499999995,
                    "velocity": 0.4094488188976378,
                    "duration": 0.2766186250000011
                },
                {
                    "name": "A#4",
                    "midi": 70,
                    "time": 19.217714999999995,
                    "velocity": 0.5669291338582677,
                    "duration": 0.8735324999999996
                },
                {
                    "name": "C4",
                    "midi": 60,
                    "time": 19.508892499999995,
                    "velocity": 0.29133858267716534,
                    "duration": 0.2766186250000011
                },
                {
                    "name": "F#4",
                    "midi": 66,
                    "time": 19.508892499999995,
                    "velocity": 0.3464566929133858,
                    "duration": 0.2766186250000011
                },
                {
                    "name": "C4",
                    "midi": 60,
                    "time": 19.800069999999995,
                    "velocity": 0.29133858267716534,
                    "duration": 0.2766186250000011
                },
                {
                    "name": "F#4",
                    "midi": 66,
                    "time": 19.800069999999995,
                    "velocity": 0.3464566929133858,
                    "duration": 0.2766186250000011
                },
                {
                    "name": "G#4",
                    "midi": 68,
                    "time": 20.091247499999994,
                    "velocity": 0.5748031496062992,
                    "duration": 1.1647099999999995
                },
                {
                    "name": "C4",
                    "midi": 60,
                    "time": 20.091247499999994,
                    "velocity": 0.33858267716535434,
                    "duration": 0.2766186250000011
                },
                {
                    "name": "F#4",
                    "midi": 66,
                    "time": 20.091247499999994,
                    "velocity": 0.4094488188976378,
                    "duration": 0.2766186250000011
                },
                {
                    "name": "F#4",
                    "midi": 66,
                    "time": 20.382424999999994,
                    "velocity": 0.3464566929133858,
                    "duration": 0.2766186250000011
                },
                {
                    "name": "C4",
                    "midi": 60,
                    "time": 20.382424999999994,
                    "velocity": 0.29133858267716534,
                    "duration": 0.2766186250000011
                },
                {
                    "name": "F#4",
                    "midi": 66,
                    "time": 20.673602499999994,
                    "velocity": 0.3464566929133858,
                    "duration": 0.2766186250000011
                },
                {
                    "name": "C4",
                    "midi": 60,
                    "time": 20.673602499999994,
                    "velocity": 0.29133858267716534,
                    "duration": 0.2766186250000011
                },
                {
                    "name": "C#5",
                    "midi": 73,
                    "time": 21.255957499999994,
                    "velocity": 0.5669291338582677,
                    "duration": 0.2766186250000011
                },
                {
                    "name": "G#4",
                    "midi": 68,
                    "time": 21.255957499999994,
                    "velocity": 0.4330708661417323,
                    "duration": 0.2766186250000011
                },
                {
                    "name": "G#4",
                    "midi": 68,
                    "time": 21.547134999999994,
                    "velocity": 0.3937007874015748,
                    "duration": 0.2766186250000011
                },
                {
                    "name": "C#5",
                    "midi": 73,
                    "time": 21.547134999999994,
                    "velocity": 0.4645669291338583,
                    "duration": 0.2766186250000011
                },
                {
                    "name": "G5",
                    "midi": 79,
                    "time": 21.547134999999994,
                    "velocity": 0.5905511811023622,
                    "duration": 0.2766186250000011
                },
                {
                    "name": "C#5",
                    "midi": 73,
                    "time": 21.838312499999994,
                    "velocity": 0.4881889763779528,
                    "duration": 0.2766186250000011
                },
                {
                    "name": "A#5",
                    "midi": 82,
                    "time": 21.838312499999994,
                    "velocity": 0.6299212598425197,
                    "duration": 0.2766186250000011
                },
                {
                    "name": "G#4",
                    "midi": 68,
                    "time": 21.838312499999994,
                    "velocity": 0.4094488188976378,
                    "duration": 0.2766186250000011
                },
                {
                    "name": "C#5",
                    "midi": 73,
                    "time": 22.129489999999993,
                    "velocity": 0.44881889763779526,
                    "duration": 0.2766186250000011
                },
                {
                    "name": "G#5",
                    "midi": 80,
                    "time": 22.129489999999993,
                    "velocity": 0.5905511811023622,
                    "duration": 0.2766186250000011
                },
                {
                    "name": "G#4",
                    "midi": 68,
                    "time": 22.129489999999993,
                    "velocity": 0.3779527559055118,
                    "duration": 0.2766186250000011
                },
                {
                    "name": "G#4",
                    "midi": 68,
                    "time": 22.420667499999993,
                    "velocity": 0.3779527559055118,
                    "duration": 0.2766186250000011
                },
                {
                    "name": "C#5",
                    "midi": 73,
                    "time": 22.420667499999993,
                    "velocity": 0.44881889763779526,
                    "duration": 0.2766186250000011
                },
                {
                    "name": "F5",
                    "midi": 77,
                    "time": 22.420667499999993,
                    "velocity": 0.5905511811023622,
                    "duration": 0.2766186250000011
                },
                {
                    "name": "D#5",
                    "midi": 75,
                    "time": 22.711844999999993,
                    "velocity": 0.6929133858267716,
                    "duration": 0.8735324999999996
                },
                {
                    "name": "A#4",
                    "midi": 70,
                    "time": 23.003022499999993,
                    "velocity": 0.5118110236220472,
                    "duration": 0.2766186250000011
                },
                {
                    "name": "D#4",
                    "midi": 63,
                    "time": 23.003022499999993,
                    "velocity": 0.4251968503937008,
                    "duration": 0.2766186250000011
                },
                {
                    "name": "A#4",
                    "midi": 70,
                    "time": 23.294199999999993,
                    "velocity": 0.5118110236220472,
                    "duration": 0.2766186250000011
                },
                {
                    "name": "D#4",
                    "midi": 63,
                    "time": 23.294199999999993,
                    "velocity": 0.4251968503937008,
                    "duration": 0.2766186250000011
                },
                {
                    "name": "F5",
                    "midi": 77,
                    "time": 23.585377499999993,
                    "velocity": 0.6614173228346457,
                    "duration": 1.1647099999999995
                },
                {
                    "name": "F4",
                    "midi": 65,
                    "time": 23.876554999999993,
                    "velocity": 0.4251968503937008,
                    "duration": 0.2766186250000011
                },
                {
                    "name": "C#5",
                    "midi": 73,
                    "time": 23.876554999999993,
                    "velocity": 0.5118110236220472,
                    "duration": 0.2766186250000011
                },
                {
                    "name": "F4",
                    "midi": 65,
                    "time": 24.167732499999993,
                    "velocity": 0.4094488188976378,
                    "duration": 0.2766186250000011
                },
                {
                    "name": "C#5",
                    "midi": 73,
                    "time": 24.167732499999993,
                    "velocity": 0.4881889763779528,
                    "duration": 0.2766186250000011
                },
                {
                    "name": "A#4",
                    "midi": 70,
                    "time": 24.750087499999992,
                    "velocity": 0.5669291338582677,
                    "duration": 0.2766186250000011
                },
                {
                    "name": "A#4",
                    "midi": 70,
                    "time": 25.041264999999992,
                    "velocity": 0.4645669291338583,
                    "duration": 0.2766186250000011
                },
                {
                    "name": "D#4",
                    "midi": 63,
                    "time": 25.041264999999992,
                    "velocity": 0.4015748031496063,
                    "duration": 0.2766186250000011
                },
                {
                    "name": "D#5",
                    "midi": 75,
                    "time": 25.041264999999992,
                    "velocity": 0.5905511811023622,
                    "duration": 0.2766186250000011
                },
                {
                    "name": "A#4",
                    "midi": 70,
                    "time": 25.332442499999992,
                    "velocity": 0.5039370078740157,
                    "duration": 0.2766186250000011
                },
                {
                    "name": "G5",
                    "midi": 79,
                    "time": 25.332442499999992,
                    "velocity": 0.6299212598425197,
                    "duration": 0.2766186250000011
                },
                {
                    "name": "A#4",
                    "midi": 70,
                    "time": 25.623619999999992,
                    "velocity": 0.44881889763779526,
                    "duration": 0.2766186250000011
                },
                {
                    "name": "F5",
                    "midi": 77,
                    "time": 25.623619999999992,
                    "velocity": 0.5905511811023622,
                    "duration": 0.2766186250000011
                },
                {
                    "name": "D#4",
                    "midi": 63,
                    "time": 25.91479749999999,
                    "velocity": 0.4015748031496063,
                    "duration": 0.2766186250000011
                },
                {
                    "name": "C#5",
                    "midi": 73,
                    "time": 25.91479749999999,
                    "velocity": 0.5905511811023622,
                    "duration": 0.2766186250000011
                },
                {
                    "name": "A#4",
                    "midi": 70,
                    "time": 25.91479749999999,
                    "velocity": 0.44881889763779526,
                    "duration": 0.2766186250000011
                },
                {
                    "name": "C5",
                    "midi": 72,
                    "time": 26.20597499999999,
                    "velocity": 0.6377952755905512,
                    "duration": 0.8735324999999996
                },
                {
                    "name": "D#4",
                    "midi": 63,
                    "time": 26.49715249999999,
                    "velocity": 0.3858267716535433,
                    "duration": 0.2766186250000011
                },
                {
                    "name": "A4",
                    "midi": 69,
                    "time": 26.49715249999999,
                    "velocity": 0.4566929133858268,
                    "duration": 0.2766186250000011
                },
                {
                    "name": "D#4",
                    "midi": 63,
                    "time": 26.78832999999999,
                    "velocity": 0.3858267716535433,
                    "duration": 0.2766186250000011
                },
                {
                    "name": "A4",
                    "midi": 69,
                    "time": 26.78832999999999,
                    "velocity": 0.4566929133858268,
                    "duration": 0.2766186250000011
                },
                {
                    "name": "C#5",
                    "midi": 73,
                    "time": 27.07950749999999,
                    "velocity": 0.6377952755905512,
                    "duration": 1.1647099999999995
                },
                {
                    "name": "G#4",
                    "midi": 68,
                    "time": 27.37068499999999,
                    "velocity": 0.4409448818897638,
                    "duration": 0.2766186250000011
                },
                {
                    "name": "C#4",
                    "midi": 61,
                    "time": 27.37068499999999,
                    "velocity": 0.3700787401574803,
                    "duration": 0.2766186250000011
                },
                {
                    "name": "G#4",
                    "midi": 68,
                    "time": 27.66186249999999,
                    "velocity": 0.41732283464566927,
                    "duration": 0.2766186250000011
                },
                {
                    "name": "C#4",
                    "midi": 61,
                    "time": 27.66186249999999,
                    "velocity": 0.3464566929133858,
                    "duration": 0.2766186250000011
                },
                {
                    "name": "C#4",
                    "midi": 61,
                    "time": 28.24421749999999,
                    "velocity": 0.5039370078740157,
                    "duration": 0.2766186250000011
                },
                {
                    "name": "C#4",
                    "midi": 61,
                    "time": 28.53539499999999,
                    "velocity": 0.3543307086614173,
                    "duration": 0.2766186250000011
                },
                {
                    "name": "G#4",
                    "midi": 68,
                    "time": 28.53539499999999,
                    "velocity": 0.5354330708661418,
                    "duration": 0.2766186250000011
                },
                {
                    "name": "C5",
                    "midi": 72,
                    "time": 28.82657249999999,
                    "velocity": 0.44881889763779526,
                    "duration": 0.2766186250000011
                },
                {
                    "name": "G4",
                    "midi": 67,
                    "time": 29.11774999999999,
                    "velocity": 0.33858267716535434,
                    "duration": 0.2766186250000011
                },
                {
                    "name": "C#4",
                    "midi": 61,
                    "time": 29.11774999999999,
                    "velocity": 0.2755905511811024,
                    "duration": 0.2766186250000011
                },
                {
                    "name": "A#4",
                    "midi": 70,
                    "time": 29.11774999999999,
                    "velocity": 0.44881889763779526,
                    "duration": 0.4367662500000016
                },
                {
                    "name": "C#4",
                    "midi": 61,
                    "time": 29.40892749999999,
                    "velocity": 0.2204724409448819,
                    "duration": 0.2766186250000011
                },
                {
                    "name": "G4",
                    "midi": 67,
                    "time": 29.40892749999999,
                    "velocity": 0.2677165354330709,
                    "duration": 0.2766186250000011
                },
                {
                    "name": "G#4",
                    "midi": 68,
                    "time": 29.554516249999992,
                    "velocity": 0.4015748031496063,
                    "duration": 0.14558874999999816
                },
                {
                    "name": "G#4",
                    "midi": 68,
                    "time": 29.70010499999999,
                    "velocity": 0.4409448818897638,
                    "duration": 1.7470649999999992
                },
                {
                    "name": "C4",
                    "midi": 60,
                    "time": 29.99128249999999,
                    "velocity": 0.30708661417322836,
                    "duration": 0.2766186250000011
                },
                {
                    "name": "C4",
                    "midi": 60,
                    "time": 30.28245999999999,
                    "velocity": 0.2992125984251969,
                    "duration": 0.2766186250000011
                },
                {
                    "name": "C4",
                    "midi": 60,
                    "time": 30.57363749999999,
                    "velocity": 0.30708661417322836,
                    "duration": 0.2766186250000011
                },
                {
                    "name": "C4",
                    "midi": 60,
                    "time": 30.86481499999999,
                    "velocity": 0.29133858267716534,
                    "duration": 0.2766186250000011
                },
                {
                    "name": "C4",
                    "midi": 60,
                    "time": 31.15599249999999,
                    "velocity": 0.29133858267716534,
                    "duration": 0.2766186250000011
                },
                {
                    "name": "G#4",
                    "midi": 68,
                    "time": 31.44716999999999,
                    "velocity": 0.4094488188976378,
                    "duration": 0.8735324999999925
                },
                {
                    "name": "G#3",
                    "midi": 56,
                    "time": 31.73834749999999,
                    "velocity": 0.2047244094488189,
                    "duration": 0.27661862499999756
                },
                {
                    "name": "D4",
                    "midi": 62,
                    "time": 31.73834749999999,
                    "velocity": 0.2677165354330709,
                    "duration": 0.27661862499999756
                },
                {
                    "name": "G#3",
                    "midi": 56,
                    "time": 32.029524999999985,
                    "velocity": 0.2047244094488189,
                    "duration": 0.27661862499999756
                },
                {
                    "name": "D4",
                    "midi": 62,
                    "time": 32.029524999999985,
                    "velocity": 0.2677165354330709,
                    "duration": 0.27661862499999756
                },
                {
                    "name": "G#4",
                    "midi": 68,
                    "time": 32.32070249999998,
                    "velocity": 0.4015748031496063,
                    "duration": 0.27661862499999756
                },
                {
                    "name": "G#3",
                    "midi": 56,
                    "time": 32.32070249999998,
                    "velocity": 0.2047244094488189,
                    "duration": 0.27661862499999756
                },
                {
                    "name": "D4",
                    "midi": 62,
                    "time": 32.32070249999998,
                    "velocity": 0.2677165354330709,
                    "duration": 0.27661862499999756
                },
                {
                    "name": "D4",
                    "midi": 62,
                    "time": 32.61187999999998,
                    "velocity": 0.2677165354330709,
                    "duration": 0.27661862499999756
                },
                {
                    "name": "G#3",
                    "midi": 56,
                    "time": 32.61187999999998,
                    "velocity": 0.2047244094488189,
                    "duration": 0.27661862499999756
                },
                {
                    "name": "F#4",
                    "midi": 66,
                    "time": 32.61187999999998,
                    "velocity": 0.3858267716535433,
                    "duration": 0.27661862499999756
                },
                {
                    "name": "G#3",
                    "midi": 56,
                    "time": 32.903057499999974,
                    "velocity": 0.1732283464566929,
                    "duration": 0.27661862499999756
                },
                {
                    "name": "E4",
                    "midi": 64,
                    "time": 32.903057499999974,
                    "velocity": 0.3858267716535433,
                    "duration": 0.27661862499999756
                },
                {
                    "name": "D4",
                    "midi": 62,
                    "time": 32.903057499999974,
                    "velocity": 0.2204724409448819,
                    "duration": 0.27661862499999756
                },
                {
                    "name": "C#5",
                    "midi": 73,
                    "time": 33.19423499999997,
                    "velocity": 0.4881889763779528,
                    "duration": 1.747064999999985
                },
                {
                    "name": "C#4",
                    "midi": 61,
                    "time": 33.485412499999974,
                    "velocity": 0.31496062992125984,
                    "duration": 0.27661862499999756
                },
                {
                    "name": "A4",
                    "midi": 69,
                    "time": 33.485412499999974,
                    "velocity": 0.3779527559055118,
                    "duration": 0.27661862499999756
                },
                {
                    "name": "C#4",
                    "midi": 61,
                    "time": 33.77658999999997,
                    "velocity": 0.33070866141732286,
                    "duration": 0.27661862499999756
                },
                {
                    "name": "A4",
                    "midi": 69,
                    "time": 33.77658999999997,
                    "velocity": 0.3937007874015748,
                    "duration": 0.27661862499999756
                },
                {
                    "name": "C#4",
                    "midi": 61,
                    "time": 34.06776749999997,
                    "velocity": 0.3464566929133858,
                    "duration": 0.27661862499999756
                },
                {
                    "name": "A4",
                    "midi": 69,
                    "time": 34.06776749999997,
                    "velocity": 0.41732283464566927,
                    "duration": 0.27661862499999756
                },
                {
                    "name": "C#4",
                    "midi": 61,
                    "time": 34.35894499999996,
                    "velocity": 0.3700787401574803,
                    "duration": 0.27661862499999756
                },
                {
                    "name": "A4",
                    "midi": 69,
                    "time": 34.35894499999996,
                    "velocity": 0.4409448818897638,
                    "duration": 0.27661862499999756
                },
                {
                    "name": "C#4",
                    "midi": 61,
                    "time": 34.65012249999996,
                    "velocity": 0.3858267716535433,
                    "duration": 0.27661862499999756
                },
                {
                    "name": "A4",
                    "midi": 69,
                    "time": 34.65012249999996,
                    "velocity": 0.4645669291338583,
                    "duration": 0.27661862499999756
                },
                {
                    "name": "C#5",
                    "midi": 73,
                    "time": 34.941299999999956,
                    "velocity": 0.6220472440944882,
                    "duration": 0.873532499999996
                },
                {
                    "name": "G#4",
                    "midi": 68,
                    "time": 35.23247749999996,
                    "velocity": 0.4015748031496063,
                    "duration": 0.27661862499999756
                },
                {
                    "name": "C#4",
                    "midi": 61,
                    "time": 35.23247749999996,
                    "velocity": 0.30708661417322836,
                    "duration": 0.27661862499999756
                },
                {
                    "name": "C4",
                    "midi": 60,
                    "time": 35.523654999999955,
                    "velocity": 0.25984251968503935,
                    "duration": 0.27661862499999756
                },
                {
                    "name": "C5",
                    "midi": 72,
                    "time": 35.523654999999955,
                    "velocity": 0.5275590551181102,
                    "duration": 0.27661862499999756
                },
                {
                    "name": "G#4",
                    "midi": 68,
                    "time": 35.523654999999955,
                    "velocity": 0.33070866141732286,
                    "duration": 0.27661862499999756
                },
                {
                    "name": "C4",
                    "midi": 60,
                    "time": 35.81483249999995,
                    "velocity": 0.30708661417322836,
                    "duration": 0.27661862499999756
                },
                {
                    "name": "C5",
                    "midi": 72,
                    "time": 35.81483249999995,
                    "velocity": 0.5511811023622047,
                    "duration": 0.27661862499999756
                },
                {
                    "name": "G#4",
                    "midi": 68,
                    "time": 35.81483249999995,
                    "velocity": 0.3779527559055118,
                    "duration": 0.27661862499999756
                },
                {
                    "name": "A#4",
                    "midi": 70,
                    "time": 36.10600999999995,
                    "velocity": 0.5433070866141733,
                    "duration": 0.27661862499999756
                },
                {
                    "name": "C4",
                    "midi": 60,
                    "time": 36.10600999999995,
                    "velocity": 0.3858267716535433,
                    "duration": 0.27661862499999756
                },
                {
                    "name": "G#4",
                    "midi": 68,
                    "time": 36.397187499999944,
                    "velocity": 0.5511811023622047,
                    "duration": 0.27661862499999756
                },
                {
                    "name": "C4",
                    "midi": 60,
                    "time": 36.397187499999944,
                    "velocity": 0.30708661417322836,
                    "duration": 0.27661862499999756
                },
                {
                    "name": "E5",
                    "midi": 76,
                    "time": 36.68836499999994,
                    "velocity": 0.5669291338582677,
                    "duration": 1.747064999999985
                },
                {
                    "name": "E4",
                    "midi": 64,
                    "time": 36.979542499999944,
                    "velocity": 0.3464566929133858,
                    "duration": 0.27661862499999756
                },
                {
                    "name": "C#5",
                    "midi": 73,
                    "time": 36.979542499999944,
                    "velocity": 0.4094488188976378,
                    "duration": 0.27661862499999756
                },
                {
                    "name": "E4",
                    "midi": 64,
                    "time": 37.27071999999994,
                    "velocity": 0.3543307086614173,
                    "duration": 0.27661862499999756
                },
                {
                    "name": "C#5",
                    "midi": 73,
                    "time": 37.27071999999994,
                    "velocity": 0.4251968503937008,
                    "duration": 0.27661862499999756
                },
                {
                    "name": "E4",
                    "midi": 64,
                    "time": 37.56189749999994,
                    "velocity": 0.3700787401574803,
                    "duration": 0.27661862499999756
                },
                {
                    "name": "C#5",
                    "midi": 73,
                    "time": 37.56189749999994,
                    "velocity": 0.4566929133858268,
                    "duration": 0.27661862499999756
                },
                {
                    "name": "E4",
                    "midi": 64,
                    "time": 37.85307499999993,
                    "velocity": 0.4094488188976378,
                    "duration": 0.27661862499999756
                },
                {
                    "name": "C#5",
                    "midi": 73,
                    "time": 37.85307499999993,
                    "velocity": 0.48031496062992124,
                    "duration": 0.27661862499999756
                },
                {
                    "name": "E4",
                    "midi": 64,
                    "time": 38.14425249999993,
                    "velocity": 0.4251968503937008,
                    "duration": 0.27661862499999756
                },
                {
                    "name": "C5",
                    "midi": 72,
                    "time": 38.14425249999993,
                    "velocity": 0.5039370078740157,
                    "duration": 0.27661862499999756
                },
                {
                    "name": "E5",
                    "midi": 76,
                    "time": 38.435429999999926,
                    "velocity": 0.6456692913385826,
                    "duration": 0.873532499999996
                },
                {
                    "name": "B4",
                    "midi": 71,
                    "time": 38.72660749999993,
                    "velocity": 0.41732283464566927,
                    "duration": 0.27661862499999756
                },
                {
                    "name": "E4",
                    "midi": 64,
                    "time": 38.72660749999993,
                    "velocity": 0.31496062992125984,
                    "duration": 0.27661862499999756
                },
                {
                    "name": "B4",
                    "midi": 71,
                    "time": 39.017784999999925,
                    "velocity": 0.41732283464566927,
                    "duration": 0.27661862499999756
                },
                {
                    "name": "D#5",
                    "midi": 75,
                    "time": 39.017784999999925,
                    "velocity": 0.5905511811023622,
                    "duration": 0.27661862499999756
                },
                {
                    "name": "D#5",
                    "midi": 75,
                    "time": 39.30896249999992,
                    "velocity": 0.6299212598425197,
                    "duration": 0.27661862499999756
                },
                {
                    "name": "B4",
                    "midi": 71,
                    "time": 39.30896249999992,
                    "velocity": 0.41732283464566927,
                    "duration": 0.27661862499999756
                },
                {
                    "name": "C#5",
                    "midi": 73,
                    "time": 39.60013999999992,
                    "velocity": 0.6062992125984252,
                    "duration": 0.27661862499999756
                },
                {
                    "name": "B4",
                    "midi": 71,
                    "time": 39.60013999999992,
                    "velocity": 0.41732283464566927,
                    "duration": 0.27661862499999756
                },
                {
                    "name": "B4",
                    "midi": 71,
                    "time": 39.891317499999914,
                    "velocity": 0.6062992125984252,
                    "duration": 0.27661862499999756
                },
                {
                    "name": "G#5",
                    "midi": 80,
                    "time": 40.18249499999991,
                    "velocity": 0.6614173228346457,
                    "duration": 0.5823549999999997
                },
                {
                    "name": "D5",
                    "midi": 74,
                    "time": 40.473672499999914,
                    "velocity": 0.4409448818897638,
                    "duration": 0.27661862499999756
                },
                {
                    "name": "G#4",
                    "midi": 68,
                    "time": 40.473672499999914,
                    "velocity": 0.33070866141732286,
                    "duration": 0.27661862499999756
                },
                {
                    "name": "D5",
                    "midi": 74,
                    "time": 40.76484999999991,
                    "velocity": 0.44881889763779526,
                    "duration": 0.27661862499999756
                },
                {
                    "name": "G#5",
                    "midi": 80,
                    "time": 40.76484999999991,
                    "velocity": 0.5748031496062992,
                    "duration": 0.27661862499999756
                },
                {
                    "name": "G#4",
                    "midi": 68,
                    "time": 40.76484999999991,
                    "velocity": 0.36220472440944884,
                    "duration": 0.27661862499999756
                },
                {
                    "name": "G#5",
                    "midi": 80,
                    "time": 41.05602749999991,
                    "velocity": 0.6062992125984252,
                    "duration": 0.27661862499999756
                },
                {
                    "name": "D#5",
                    "midi": 75,
                    "time": 41.3472049999999,
                    "velocity": 0.36220472440944884,
                    "duration": 0.27661862499999756
                },
                {
                    "name": "G4",
                    "midi": 67,
                    "time": 41.3472049999999,
                    "velocity": 0.3543307086614173,
                    "duration": 0.27661862499999756
                },
                {
                    "name": "G5",
                    "midi": 79,
                    "time": 41.3472049999999,
                    "velocity": 0.5511811023622047,
                    "duration": 0.27661862499999756
                },
                {
                    "name": "G4",
                    "midi": 67,
                    "time": 41.6383824999999,
                    "velocity": 0.3700787401574803,
                    "duration": 0.27661862499999756
                },
                {
                    "name": "D#5",
                    "midi": 75,
                    "time": 41.6383824999999,
                    "velocity": 0.5354330708661418,
                    "duration": 0.27661862499999756
                },
                {
                    "name": "F#5",
                    "midi": 78,
                    "time": 41.929559999999896,
                    "velocity": 0.48031496062992124,
                    "duration": 0.5823549999999997
                },
                {
                    "name": "C5",
                    "midi": 72,
                    "time": 42.2207374999999,
                    "velocity": 0.30708661417322836,
                    "duration": 0.27661862499999756
                },
                {
                    "name": "F#4",
                    "midi": 66,
                    "time": 42.2207374999999,
                    "velocity": 0.23622047244094488,
                    "duration": 0.27661862499999756
                },
                {
                    "name": "C5",
                    "midi": 72,
                    "time": 42.511914999999895,
                    "velocity": 0.3543307086614173,
                    "duration": 0.27661862499999756
                },
                {
                    "name": "F#4",
                    "midi": 66,
                    "time": 42.511914999999895,
                    "velocity": 0.28346456692913385,
                    "duration": 0.27661862499999756
                },
                {
                    "name": "F#5",
                    "midi": 78,
                    "time": 42.511914999999895,
                    "velocity": 0.4330708661417323,
                    "duration": 0.27661862499999756
                },
                {
                    "name": "F#5",
                    "midi": 78,
                    "time": 42.80309249999989,
                    "velocity": 0.4645669291338583,
                    "duration": 0.27661862499999756
                },
                {
                    "name": "C#5",
                    "midi": 73,
                    "time": 43.09426999999989,
                    "velocity": 0.28346456692913385,
                    "duration": 0.27661862499999756
                },
                {
                    "name": "F4",
                    "midi": 65,
                    "time": 43.09426999999989,
                    "velocity": 0.28346456692913385,
                    "duration": 0.27661862499999756
                },
                {
                    "name": "F5",
                    "midi": 77,
                    "time": 43.09426999999989,
                    "velocity": 0.4251968503937008,
                    "duration": 0.27661862499999756
                },
                {
                    "name": "F4",
                    "midi": 65,
                    "time": 43.385447499999884,
                    "velocity": 0.28346456692913385,
                    "duration": 0.27661862499999756
                },
                {
                    "name": "C#5",
                    "midi": 73,
                    "time": 43.385447499999884,
                    "velocity": 0.4094488188976378,
                    "duration": 0.27661862499999756
                },
                {
                    "name": "E5",
                    "midi": 76,
                    "time": 43.67662499999988,
                    "velocity": 0.4566929133858268,
                    "duration": 0.27661862499999756
                },
                {
                    "name": "D#4",
                    "midi": 63,
                    "time": 43.96780249999988,
                    "velocity": 0.2204724409448819,
                    "duration": 0.27661862499999756
                },
                {
                    "name": "D#5",
                    "midi": 75,
                    "time": 43.96780249999988,
                    "velocity": 0.41732283464566927,
                    "duration": 0.27661862499999756
                },
                {
                    "name": "A#4",
                    "midi": 70,
                    "time": 43.96780249999988,
                    "velocity": 0.2755905511811024,
                    "duration": 0.27661862499999756
                },
                {
                    "name": "E4",
                    "midi": 64,
                    "time": 44.25897999999987,
                    "velocity": 0.2755905511811024,
                    "duration": 0.27661862499999756
                },
                {
                    "name": "E5",
                    "midi": 76,
                    "time": 44.25897999999987,
                    "velocity": 0.41732283464566927,
                    "duration": 0.27661862499999756
                },
                {
                    "name": "A#4",
                    "midi": 70,
                    "time": 44.25897999999987,
                    "velocity": 0.3464566929133858,
                    "duration": 0.27661862499999756
                },
                {
                    "name": "G#5",
                    "midi": 80,
                    "time": 44.55015749999987,
                    "velocity": 0.4409448818897638,
                    "duration": 0.5823549999999997
                },
                {
                    "name": "G#4",
                    "midi": 68,
                    "time": 44.84133499999987,
                    "velocity": 0.28346456692913385,
                    "duration": 0.27661862499999756
                },
                {
                    "name": "E5",
                    "midi": 76,
                    "time": 44.84133499999987,
                    "velocity": 0.28346456692913385,
                    "duration": 0.27661862499999756
                },
                {
                    "name": "F#5",
                    "midi": 78,
                    "time": 45.13251249999987,
                    "velocity": 0.4094488188976378,
                    "duration": 0.27661862499999756
                },
                {
                    "name": "B4",
                    "midi": 71,
                    "time": 45.13251249999987,
                    "velocity": 0.3464566929133858,
                    "duration": 0.27661862499999756
                },
                {
                    "name": "F#4",
                    "midi": 66,
                    "time": 45.13251249999987,
                    "velocity": 0.28346456692913385,
                    "duration": 0.27661862499999756
                },
                {
                    "name": "E5",
                    "midi": 76,
                    "time": 45.423689999999866,
                    "velocity": 0.4330708661417323,
                    "duration": 2.0382424999999884
                },
                {
                    "name": "E4",
                    "midi": 64,
                    "time": 45.71486749999987,
                    "velocity": 0.2283464566929134,
                    "duration": 0.27661862499999756
                },
                {
                    "name": "B4",
                    "midi": 71,
                    "time": 45.71486749999987,
                    "velocity": 0.2755905511811024,
                    "duration": 0.27661862499999756
                },
                {
                    "name": "E4",
                    "midi": 64,
                    "time": 46.006044999999865,
                    "velocity": 0.23622047244094488,
                    "duration": 0.27661862499999756
                },
                {
                    "name": "B4",
                    "midi": 71,
                    "time": 46.006044999999865,
                    "velocity": 0.28346456692913385,
                    "duration": 0.27661862499999756
                },
                {
                    "name": "E4",
                    "midi": 64,
                    "time": 46.29722249999986,
                    "velocity": 0.2440944881889764,
                    "duration": 0.27661862499999756
                },
                {
                    "name": "B4",
                    "midi": 71,
                    "time": 46.29722249999986,
                    "velocity": 0.29133858267716534,
                    "duration": 0.27661862499999756
                },
                {
                    "name": "E4",
                    "midi": 64,
                    "time": 46.58839999999986,
                    "velocity": 0.25196850393700787,
                    "duration": 0.27661862499999756
                },
                {
                    "name": "B4",
                    "midi": 71,
                    "time": 46.58839999999986,
                    "velocity": 0.30708661417322836,
                    "duration": 0.27661862499999756
                },
                {
                    "name": "E4",
                    "midi": 64,
                    "time": 46.879577499999854,
                    "velocity": 0.25984251968503935,
                    "duration": 0.27661862499999756
                },
                {
                    "name": "B4",
                    "midi": 71,
                    "time": 46.879577499999854,
                    "velocity": 0.31496062992125984,
                    "duration": 0.27661862499999756
                },
                {
                    "name": "E5",
                    "midi": 76,
                    "time": 47.461932499999854,
                    "velocity": 0.47244094488188976,
                    "duration": 0.27661862499999756
                },
                {
                    "name": "C5",
                    "midi": 72,
                    "time": 47.461932499999854,
                    "velocity": 0.36220472440944884,
                    "duration": 0.27661862499999756
                },
                {
                    "name": "E4",
                    "midi": 64,
                    "time": 47.461932499999854,
                    "velocity": 0.36220472440944884,
                    "duration": 0.27661862499999756
                },
                {
                    "name": "D#4",
                    "midi": 63,
                    "time": 47.75310999999985,
                    "velocity": 0.3464566929133858,
                    "duration": 0.27661862499999756
                },
                {
                    "name": "D#5",
                    "midi": 75,
                    "time": 47.75310999999985,
                    "velocity": 0.44881889763779526,
                    "duration": 0.27661862499999756
                },
                {
                    "name": "C5",
                    "midi": 72,
                    "time": 47.75310999999985,
                    "velocity": 0.3464566929133858,
                    "duration": 0.27661862499999756
                },
                {
                    "name": "F#4",
                    "midi": 66,
                    "time": 48.04428749999985,
                    "velocity": 0.3937007874015748,
                    "duration": 0.27661862499999756
                },
                {
                    "name": "F#5",
                    "midi": 78,
                    "time": 48.04428749999985,
                    "velocity": 0.5039370078740157,
                    "duration": 0.27661862499999756
                },
                {
                    "name": "C5",
                    "midi": 72,
                    "time": 48.04428749999985,
                    "velocity": 0.3937007874015748,
                    "duration": 0.27661862499999756
                },
                {
                    "name": "E4",
                    "midi": 64,
                    "time": 48.33546499999984,
                    "velocity": 0.3543307086614173,
                    "duration": 0.27661862499999756
                },
                {
                    "name": "C5",
                    "midi": 72,
                    "time": 48.33546499999984,
                    "velocity": 0.3543307086614173,
                    "duration": 0.27661862499999756
                },
                {
                    "name": "E5",
                    "midi": 76,
                    "time": 48.33546499999984,
                    "velocity": 0.4566929133858268,
                    "duration": 0.27661862499999756
                },
                {
                    "name": "E4",
                    "midi": 64,
                    "time": 48.62664249999984,
                    "velocity": 0.3543307086614173,
                    "duration": 0.27661862499999756
                },
                {
                    "name": "C5",
                    "midi": 72,
                    "time": 48.62664249999984,
                    "velocity": 0.4645669291338583,
                    "duration": 0.27661862499999756
                },
                {
                    "name": "E5",
                    "midi": 76,
                    "time": 48.917819999999836,
                    "velocity": 0.4881889763779528,
                    "duration": 2.0382424999999884
                },
                {
                    "name": "B4",
                    "midi": 71,
                    "time": 49.20899749999984,
                    "velocity": 0.30708661417322836,
                    "duration": 0.27661862499999756
                },
                {
                    "name": "E4",
                    "midi": 64,
                    "time": 49.20899749999984,
                    "velocity": 0.25984251968503935,
                    "duration": 0.27661862499999756
                },
                {
                    "name": "B4",
                    "midi": 71,
                    "time": 49.500174999999835,
                    "velocity": 0.31496062992125984,
                    "duration": 0.27661862499999756
                },
                {
                    "name": "E4",
                    "midi": 64,
                    "time": 49.500174999999835,
                    "velocity": 0.2677165354330709,
                    "duration": 0.27661862499999756
                },
                {
                    "name": "B4",
                    "midi": 71,
                    "time": 49.79135249999983,
                    "velocity": 0.33070866141732286,
                    "duration": 0.27661862499999756
                },
                {
                    "name": "E4",
                    "midi": 64,
                    "time": 49.79135249999983,
                    "velocity": 0.2755905511811024,
                    "duration": 0.27661862499999756
                },
                {
                    "name": "B4",
                    "midi": 71,
                    "time": 50.08252999999983,
                    "velocity": 0.3464566929133858,
                    "duration": 0.27661862499999756
                },
                {
                    "name": "E4",
                    "midi": 64,
                    "time": 50.08252999999983,
                    "velocity": 0.28346456692913385,
                    "duration": 0.27661862499999756
                },
                {
                    "name": "B4",
                    "midi": 71,
                    "time": 50.373707499999824,
                    "velocity": 0.3543307086614173,
                    "duration": 0.27661862499999756
                },
                {
                    "name": "E4",
                    "midi": 64,
                    "time": 50.373707499999824,
                    "velocity": 0.29133858267716534,
                    "duration": 0.27661862499999756
                },
                {
                    "name": "E4",
                    "midi": 64,
                    "time": 50.956062499999824,
                    "velocity": 0.36220472440944884,
                    "duration": 0.27661862499999756
                },
                {
                    "name": "C5",
                    "midi": 72,
                    "time": 50.956062499999824,
                    "velocity": 0.36220472440944884,
                    "duration": 0.27661862499999756
                },
                {
                    "name": "E5",
                    "midi": 76,
                    "time": 50.956062499999824,
                    "velocity": 0.47244094488188976,
                    "duration": 0.27661862499999756
                },
                {
                    "name": "C5",
                    "midi": 72,
                    "time": 51.24723999999982,
                    "velocity": 0.3464566929133858,
                    "duration": 0.27661862499999756
                },
                {
                    "name": "D#5",
                    "midi": 75,
                    "time": 51.24723999999982,
                    "velocity": 0.44881889763779526,
                    "duration": 0.27661862499999756
                },
                {
                    "name": "D#4",
                    "midi": 63,
                    "time": 51.24723999999982,
                    "velocity": 0.3464566929133858,
                    "duration": 0.27661862499999756
                },
                {
                    "name": "C5",
                    "midi": 72,
                    "time": 51.53841749999982,
                    "velocity": 0.3937007874015748,
                    "duration": 0.27661862499999756
                },
                {
                    "name": "F#4",
                    "midi": 66,
                    "time": 51.53841749999982,
                    "velocity": 0.3937007874015748,
                    "duration": 0.27661862499999756
                },
                {
                    "name": "F#5",
                    "midi": 78,
                    "time": 51.53841749999982,
                    "velocity": 0.5039370078740157,
                    "duration": 0.27661862499999756
                },
                {
                    "name": "C5",
                    "midi": 72,
                    "time": 51.82959499999981,
                    "velocity": 0.3543307086614173,
                    "duration": 0.27661862499999756
                },
                {
                    "name": "E5",
                    "midi": 76,
                    "time": 51.82959499999981,
                    "velocity": 0.4566929133858268,
                    "duration": 0.27661862499999756
                },
                {
                    "name": "E4",
                    "midi": 64,
                    "time": 51.82959499999981,
                    "velocity": 0.3543307086614173,
                    "duration": 0.27661862499999756
                },
                {
                    "name": "C5",
                    "midi": 72,
                    "time": 52.12077249999981,
                    "velocity": 0.4645669291338583,
                    "duration": 0.27661862499999756
                },
                {
                    "name": "E4",
                    "midi": 64,
                    "time": 52.12077249999981,
                    "velocity": 0.3543307086614173,
                    "duration": 0.27661862499999756
                },
                {
                    "name": "E5",
                    "midi": 76,
                    "time": 52.411949999999806,
                    "velocity": 0.4881889763779528,
                    "duration": 2.620597499999974
                },
                {
                    "name": "E4",
                    "midi": 64,
                    "time": 52.70312749999981,
                    "velocity": 0.25984251968503935,
                    "duration": 0.27661862499999756
                },
                {
                    "name": "B4",
                    "midi": 71,
                    "time": 52.70312749999981,
                    "velocity": 0.30708661417322836,
                    "duration": 0.27661862499999756
                },
                {
                    "name": "E4",
                    "midi": 64,
                    "time": 52.994304999999805,
                    "velocity": 0.2677165354330709,
                    "duration": 0.27661862499999756
                },
                {
                    "name": "B4",
                    "midi": 71,
                    "time": 52.994304999999805,
                    "velocity": 0.31496062992125984,
                    "duration": 0.27661862499999756
                },
                {
                    "name": "E4",
                    "midi": 64,
                    "time": 53.2854824999998,
                    "velocity": 0.2755905511811024,
                    "duration": 0.27661862499999756
                },
                {
                    "name": "B4",
                    "midi": 71,
                    "time": 53.2854824999998,
                    "velocity": 0.33070866141732286,
                    "duration": 0.27661862499999756
                },
                {
                    "name": "E4",
                    "midi": 64,
                    "time": 53.5766599999998,
                    "velocity": 0.28346456692913385,
                    "duration": 0.27661862499999756
                },
                {
                    "name": "B4",
                    "midi": 71,
                    "time": 53.5766599999998,
                    "velocity": 0.3464566929133858,
                    "duration": 0.27661862499999756
                },
                {
                    "name": "E4",
                    "midi": 64,
                    "time": 53.867837499999794,
                    "velocity": 0.29133858267716534,
                    "duration": 0.27661862499999756
                },
                {
                    "name": "B4",
                    "midi": 71,
                    "time": 53.867837499999794,
                    "velocity": 0.3543307086614173,
                    "duration": 0.27661862499999756
                },
                {
                    "name": "E4",
                    "midi": 64,
                    "time": 54.15901499999979,
                    "velocity": 0.2755905511811024,
                    "duration": 0.27661862499999756
                },
                {
                    "name": "B4",
                    "midi": 71,
                    "time": 54.15901499999979,
                    "velocity": 0.33070866141732286,
                    "duration": 0.27661862499999756
                },
                {
                    "name": "E4",
                    "midi": 64,
                    "time": 54.45019249999979,
                    "velocity": 0.25984251968503935,
                    "duration": 0.27661862499999756
                },
                {
                    "name": "B4",
                    "midi": 71,
                    "time": 54.45019249999979,
                    "velocity": 0.30708661417322836,
                    "duration": 0.27661862499999756
                },
                {
                    "name": "E4",
                    "midi": 64,
                    "time": 54.74136999999978,
                    "velocity": 0.2755905511811024,
                    "duration": 0.27661862499999756
                },
                {
                    "name": "B4",
                    "midi": 71,
                    "time": 54.74136999999978,
                    "velocity": 0.3228346456692913,
                    "duration": 0.27661862499999756
                },
                {
                    "name": "B4",
                    "midi": 71,
                    "time": 55.03254749999978,
                    "velocity": 0.3858267716535433,
                    "duration": 0.27661862499999756
                },
                {
                    "name": "D#5",
                    "midi": 75,
                    "time": 55.03254749999978,
                    "velocity": 0.5039370078740157,
                    "duration": 0.5823549999999926
                },
                {
                    "name": "D#4",
                    "midi": 63,
                    "time": 55.03254749999978,
                    "velocity": 0.31496062992125984,
                    "duration": 0.27661862499999756
                },
                {
                    "name": "B4",
                    "midi": 71,
                    "time": 55.323724999999776,
                    "velocity": 0.4015748031496063,
                    "duration": 0.27661862499999756
                },
                {
                    "name": "D#4",
                    "midi": 63,
                    "time": 55.323724999999776,
                    "velocity": 0.33858267716535434,
                    "duration": 0.27661862499999756
                },
                {
                    "name": "D#4",
                    "midi": 63,
                    "time": 55.61490249999977,
                    "velocity": 0.3543307086614173,
                    "duration": 0.27661862499999756
                },
                {
                    "name": "D#5",
                    "midi": 75,
                    "time": 55.61490249999977,
                    "velocity": 0.5275590551181102,
                    "duration": 0.27661862499999756
                },
                {
                    "name": "B4",
                    "midi": 71,
                    "time": 55.61490249999977,
                    "velocity": 0.4251968503937008,
                    "duration": 0.27661862499999756
                },
                {
                    "name": "B4",
                    "midi": 71,
                    "time": 55.90607999999977,
                    "velocity": 0.4015748031496063,
                    "duration": 0.27661862499999756
                },
                {
                    "name": "D#5",
                    "midi": 75,
                    "time": 55.90607999999977,
                    "velocity": 0.5590551181102362,
                    "duration": 1.7470649999999779
                },
                {
                    "name": "D#4",
                    "midi": 63,
                    "time": 55.90607999999977,
                    "velocity": 0.33070866141732286,
                    "duration": 0.27661862499999756
                },
                {
                    "name": "B4",
                    "midi": 71,
                    "time": 56.197257499999765,
                    "velocity": 0.3779527559055118,
                    "duration": 0.27661862499999756
                },
                {
                    "name": "D#4",
                    "midi": 63,
                    "time": 56.197257499999765,
                    "velocity": 0.31496062992125984,
                    "duration": 0.27661862499999756
                },
                {
                    "name": "B4",
                    "midi": 71,
                    "time": 56.48843499999976,
                    "velocity": 0.3937007874015748,
                    "duration": 0.27661862499999756
                },
                {
                    "name": "D#4",
                    "midi": 63,
                    "time": 56.48843499999976,
                    "velocity": 0.33070866141732286,
                    "duration": 0.27661862499999756
                },
                {
                    "name": "B4",
                    "midi": 71,
                    "time": 56.77961249999976,
                    "velocity": 0.41732283464566927,
                    "duration": 0.27661862499999756
                },
                {
                    "name": "D#4",
                    "midi": 63,
                    "time": 56.77961249999976,
                    "velocity": 0.3464566929133858,
                    "duration": 0.27661862499999756
                },
                {
                    "name": "B4",
                    "midi": 71,
                    "time": 57.070789999999754,
                    "velocity": 0.4409448818897638,
                    "duration": 0.27661862499999756
                },
                {
                    "name": "D#4",
                    "midi": 63,
                    "time": 57.070789999999754,
                    "velocity": 0.3700787401574803,
                    "duration": 0.27661862499999756
                },
                {
                    "name": "B4",
                    "midi": 71,
                    "time": 57.36196749999975,
                    "velocity": 0.4645669291338583,
                    "duration": 0.27661862499999756
                },
                {
                    "name": "D#4",
                    "midi": 63,
                    "time": 57.36196749999975,
                    "velocity": 0.3858267716535433,
                    "duration": 0.27661862499999756
                },
                {
                    "name": "D4",
                    "midi": 62,
                    "time": 57.653144999999746,
                    "velocity": 0.30708661417322836,
                    "duration": 0.27661862499999756
                },
                {
                    "name": "D5",
                    "midi": 74,
                    "time": 57.653144999999746,
                    "velocity": 0.6141732283464567,
                    "duration": 1.7470649999999779
                },
                {
                    "name": "B4",
                    "midi": 71,
                    "time": 57.653144999999746,
                    "velocity": 0.4409448818897638,
                    "duration": 0.27661862499999756
                },
                {
                    "name": "B4",
                    "midi": 71,
                    "time": 57.94432249999974,
                    "velocity": 0.47244094488188976,
                    "duration": 0.27661862499999756
                },
                {
                    "name": "G#4",
                    "midi": 68,
                    "time": 57.94432249999974,
                    "velocity": 0.47244094488188976,
                    "duration": 0.27661862499999756
                },
                {
                    "name": "D4",
                    "midi": 62,
                    "time": 57.94432249999974,
                    "velocity": 0.4015748031496063,
                    "duration": 0.27661862499999756
                },
                {
                    "name": "D4",
                    "midi": 62,
                    "time": 58.23549999999974,
                    "velocity": 0.41732283464566927,
                    "duration": 0.27661862499999756
                },
                {
                    "name": "G#4",
                    "midi": 68,
                    "time": 58.23549999999974,
                    "velocity": 0.49606299212598426,
                    "duration": 0.27661862499999756
                },
                {
                    "name": "B4",
                    "midi": 71,
                    "time": 58.23549999999974,
                    "velocity": 0.49606299212598426,
                    "duration": 0.27661862499999756
                },
                {
                    "name": "G#4",
                    "midi": 68,
                    "time": 58.526677499999735,
                    "velocity": 0.5275590551181102,
                    "duration": 0.27661862499999756
                },
                {
                    "name": "B4",
                    "midi": 71,
                    "time": 58.526677499999735,
                    "velocity": 0.5275590551181102,
                    "duration": 0.27661862499999756
                },
                {
                    "name": "D4",
                    "midi": 62,
                    "time": 58.526677499999735,
                    "velocity": 0.4409448818897638,
                    "duration": 0.27661862499999756
                },
                {
                    "name": "D4",
                    "midi": 62,
                    "time": 58.81785499999973,
                    "velocity": 0.4645669291338583,
                    "duration": 0.27661862499999756
                },
                {
                    "name": "G#4",
                    "midi": 68,
                    "time": 58.81785499999973,
                    "velocity": 0.5433070866141733,
                    "duration": 0.27661862499999756
                },
                {
                    "name": "B4",
                    "midi": 71,
                    "time": 58.81785499999973,
                    "velocity": 0.5433070866141733,
                    "duration": 0.27661862499999756
                },
                {
                    "name": "B4",
                    "midi": 71,
                    "time": 59.10903249999973,
                    "velocity": 0.5748031496062992,
                    "duration": 0.27661862499999756
                },
                {
                    "name": "G#4",
                    "midi": 68,
                    "time": 59.10903249999973,
                    "velocity": 0.5748031496062992,
                    "duration": 0.27661862499999756
                },
                {
                    "name": "D4",
                    "midi": 62,
                    "time": 59.10903249999973,
                    "velocity": 0.48031496062992124,
                    "duration": 0.27661862499999756
                },
                {
                    "name": "G4",
                    "midi": 67,
                    "time": 59.400209999999724,
                    "velocity": 0.6377952755905512,
                    "duration": 0.27661862499999756
                },
                {
                    "name": "C#4",
                    "midi": 61,
                    "time": 59.400209999999724,
                    "velocity": 0.5826771653543307,
                    "duration": 0.27661862499999756
                },
                {
                    "name": "G4",
                    "midi": 67,
                    "time": 59.69138749999972,
                    "velocity": 0.6141732283464567,
                    "duration": 0.27661862499999756
                },
                {
                    "name": "C#4",
                    "midi": 61,
                    "time": 59.69138749999972,
                    "velocity": 0.4645669291338583,
                    "duration": 0.27661862499999756
                },
                {
                    "name": "G4",
                    "midi": 67,
                    "time": 59.98256499999972,
                    "velocity": 0.4881889763779528,
                    "duration": 0.27661862499999756
                },
                {
                    "name": "C5",
                    "midi": 72,
                    "time": 59.98256499999972,
                    "velocity": 0.6299212598425197,
                    "duration": 0.27661862499999756
                },
                {
                    "name": "C#4",
                    "midi": 61,
                    "time": 59.98256499999972,
                    "velocity": 0.4881889763779528,
                    "duration": 0.27661862499999756
                },
                {
                    "name": "C#4",
                    "midi": 61,
                    "time": 60.27374249999971,
                    "velocity": 0.49606299212598426,
                    "duration": 0.27661862499999756
                },
                {
                    "name": "G4",
                    "midi": 67,
                    "time": 60.27374249999971,
                    "velocity": 0.49606299212598426,
                    "duration": 0.27661862499999756
                },
                {
                    "name": "C#5",
                    "midi": 73,
                    "time": 60.27374249999971,
                    "velocity": 0.6456692913385826,
                    "duration": 0.27661862499999756
                },
                {
                    "name": "C#4",
                    "midi": 61,
                    "time": 60.56491999999971,
                    "velocity": 0.47244094488188976,
                    "duration": 0.27661862499999756
                },
                {
                    "name": "F4",
                    "midi": 65,
                    "time": 60.56491999999971,
                    "velocity": 0.6220472440944882,
                    "duration": 0.27661862499999756
                },
                {
                    "name": "C#4",
                    "midi": 61,
                    "time": 60.856097499999706,
                    "velocity": 0.4645669291338583,
                    "duration": 0.27661862499999756
                },
                {
                    "name": "G4",
                    "midi": 67,
                    "time": 60.856097499999706,
                    "velocity": 0.6141732283464567,
                    "duration": 0.27661862499999756
                },
                {
                    "name": "A#4",
                    "midi": 70,
                    "time": 61.1472749999997,
                    "velocity": 0.6771653543307087,
                    "duration": 0.873532499999996
                },
                {
                    "name": "F#4",
                    "midi": 66,
                    "time": 61.438452499999705,
                    "velocity": 0.3937007874015748,
                    "duration": 0.27661862499999756
                },
                {
                    "name": "C4",
                    "midi": 60,
                    "time": 61.438452499999705,
                    "velocity": 0.33070866141732286,
                    "duration": 0.27661862499999756
                },
                {
                    "name": "F#4",
                    "midi": 66,
                    "time": 61.7296299999997,
                    "velocity": 0.3937007874015748,
                    "duration": 0.27661862499999756
                },
                {
                    "name": "C4",
                    "midi": 60,
                    "time": 61.7296299999997,
                    "velocity": 0.33070866141732286,
                    "duration": 0.27661862499999756
                },
                {
                    "name": "F#4",
                    "midi": 66,
                    "time": 62.0208074999997,
                    "velocity": 0.4645669291338583,
                    "duration": 0.27661862499999756
                },
                {
                    "name": "C4",
                    "midi": 60,
                    "time": 62.0208074999997,
                    "velocity": 0.3858267716535433,
                    "duration": 0.27661862499999756
                },
                {
                    "name": "G#4",
                    "midi": 68,
                    "time": 62.0208074999997,
                    "velocity": 0.6614173228346457,
                    "duration": 1.1647099999999924
                },
                {
                    "name": "C4",
                    "midi": 60,
                    "time": 62.311984999999694,
                    "velocity": 0.33070866141732286,
                    "duration": 0.27661862499999756
                },
                {
                    "name": "F#4",
                    "midi": 66,
                    "time": 62.311984999999694,
                    "velocity": 0.3937007874015748,
                    "duration": 0.27661862499999756
                },
                {
                    "name": "C4",
                    "midi": 60,
                    "time": 62.60316249999969,
                    "velocity": 0.33070866141732286,
                    "duration": 0.27661862499999756
                },
                {
                    "name": "F#4",
                    "midi": 66,
                    "time": 62.60316249999969,
                    "velocity": 0.3937007874015748,
                    "duration": 0.27661862499999756
                },
                {
                    "name": "G#4",
                    "midi": 68,
                    "time": 63.18551749999969,
                    "velocity": 0.49606299212598426,
                    "duration": 0.27661862499999756
                },
                {
                    "name": "C#5",
                    "midi": 73,
                    "time": 63.18551749999969,
                    "velocity": 0.6456692913385826,
                    "duration": 0.27661862499999756
                },
                {
                    "name": "C#5",
                    "midi": 73,
                    "time": 63.47669499999969,
                    "velocity": 0.5275590551181102,
                    "duration": 0.27661862499999756
                },
                {
                    "name": "G5",
                    "midi": 79,
                    "time": 63.47669499999969,
                    "velocity": 0.6771653543307087,
                    "duration": 0.27661862499999756
                },
                {
                    "name": "G#4",
                    "midi": 68,
                    "time": 63.47669499999969,
                    "velocity": 0.44881889763779526,
                    "duration": 0.27661862499999756
                },
                {
                    "name": "G#4",
                    "midi": 68,
                    "time": 63.76787249999968,
                    "velocity": 0.4645669291338583,
                    "duration": 0.27661862499999756
                },
                {
                    "name": "C#5",
                    "midi": 73,
                    "time": 63.76787249999968,
                    "velocity": 0.5590551181102362,
                    "duration": 0.27661862499999756
                },
                {
                    "name": "A#5",
                    "midi": 82,
                    "time": 63.76787249999968,
                    "velocity": 0.7165354330708661,
                    "duration": 0.27661862499999756
                },
                {
                    "name": "G#5",
                    "midi": 80,
                    "time": 64.05904999999969,
                    "velocity": 0.6771653543307087,
                    "duration": 0.27661862499999756
                },
                {
                    "name": "C#5",
                    "midi": 73,
                    "time": 64.05904999999969,
                    "velocity": 0.5118110236220472,
                    "duration": 0.27661862499999756
                },
                {
                    "name": "G#4",
                    "midi": 68,
                    "time": 64.05904999999969,
                    "velocity": 0.4330708661417323,
                    "duration": 0.27661862499999756
                },
                {
                    "name": "G#4",
                    "midi": 68,
                    "time": 64.35022749999969,
                    "velocity": 0.4330708661417323,
                    "duration": 0.27661862499999756
                },
                {
                    "name": "C#5",
                    "midi": 73,
                    "time": 64.35022749999969,
                    "velocity": 0.5118110236220472,
                    "duration": 0.27661862499999756
                },
                {
                    "name": "F5",
                    "midi": 77,
                    "time": 64.35022749999969,
                    "velocity": 0.6771653543307087,
                    "duration": 0.27661862499999756
                },
                {
                    "name": "D#5",
                    "midi": 75,
                    "time": 64.6414049999997,
                    "velocity": 0.7952755905511811,
                    "duration": 0.8735325000000103
                },
                {
                    "name": "A#4",
                    "midi": 70,
                    "time": 64.9325824999997,
                    "velocity": 0.5826771653543307,
                    "duration": 0.27661862499999756
                },
                {
                    "name": "D#4",
                    "midi": 63,
                    "time": 64.9325824999997,
                    "velocity": 0.4881889763779528,
                    "duration": 0.27661862499999756
                },
                {
                    "name": "A#4",
                    "midi": 70,
                    "time": 65.2237599999997,
                    "velocity": 0.5826771653543307,
                    "duration": 0.27661862499999756
                },
                {
                    "name": "D#4",
                    "midi": 63,
                    "time": 65.2237599999997,
                    "velocity": 0.4881889763779528,
                    "duration": 0.27661862499999756
                },
                {
                    "name": "F5",
                    "midi": 77,
                    "time": 65.5149374999997,
                    "velocity": 0.7559055118110236,
                    "duration": 1.1647099999999995
                },
                {
                    "name": "F4",
                    "midi": 65,
                    "time": 65.8061149999997,
                    "velocity": 0.4881889763779528,
                    "duration": 0.27661862499999756
                },
                {
                    "name": "C#5",
                    "midi": 73,
                    "time": 65.8061149999997,
                    "velocity": 0.5826771653543307,
                    "duration": 0.27661862499999756
                },
                {
                    "name": "F4",
                    "midi": 65,
                    "time": 66.09729249999971,
                    "velocity": 0.4645669291338583,
                    "duration": 0.27661862499999756
                },
                {
                    "name": "C#5",
                    "midi": 73,
                    "time": 66.09729249999971,
                    "velocity": 0.5590551181102362,
                    "duration": 0.27661862499999756
                },
                {
                    "name": "A#4",
                    "midi": 70,
                    "time": 66.6796474999997,
                    "velocity": 0.6456692913385826,
                    "duration": 0.27661862499999756
                },
                {
                    "name": "A#4",
                    "midi": 70,
                    "time": 66.9708249999997,
                    "velocity": 0.5275590551181102,
                    "duration": 0.27661862499999756
                },
                {
                    "name": "D#4",
                    "midi": 63,
                    "time": 66.9708249999997,
                    "velocity": 0.4566929133858268,
                    "duration": 0.27661862499999756
                },
                {
                    "name": "D#5",
                    "midi": 75,
                    "time": 66.9708249999997,
                    "velocity": 0.6771653543307087,
                    "duration": 0.27661862499999756
                },
                {
                    "name": "A#4",
                    "midi": 70,
                    "time": 67.26200249999971,
                    "velocity": 0.5433070866141733,
                    "duration": 0.27661862499999756
                },
                {
                    "name": "G5",
                    "midi": 79,
                    "time": 67.26200249999971,
                    "velocity": 0.7007874015748031,
                    "duration": 0.27661862499999756
                },
                {
                    "name": "A#4",
                    "midi": 70,
                    "time": 67.55317999999971,
                    "velocity": 0.5118110236220472,
                    "duration": 0.27661862499999756
                },
                {
                    "name": "F5",
                    "midi": 77,
                    "time": 67.55317999999971,
                    "velocity": 0.6771653543307087,
                    "duration": 0.27661862499999756
                },
                {
                    "name": "C#5",
                    "midi": 73,
                    "time": 67.84435749999972,
                    "velocity": 0.6771653543307087,
                    "duration": 0.27661862499999756
                },
                {
                    "name": "D#4",
                    "midi": 63,
                    "time": 67.84435749999972,
                    "velocity": 0.2992125984251969,
                    "duration": 0.27661862499999756
                },
                {
                    "name": "A#4",
                    "midi": 70,
                    "time": 67.84435749999972,
                    "velocity": 0.5118110236220472,
                    "duration": 0.27661862499999756
                },
                {
                    "name": "C5",
                    "midi": 72,
                    "time": 68.13553499999972,
                    "velocity": 0.7559055118110236,
                    "duration": 0.8735325000000103
                },
                {
                    "name": "D#4",
                    "midi": 63,
                    "time": 68.42671249999972,
                    "velocity": 0.4409448818897638,
                    "duration": 0.27661862499999756
                },
                {
                    "name": "A4",
                    "midi": 69,
                    "time": 68.42671249999972,
                    "velocity": 0.5196850393700787,
                    "duration": 0.27661862499999756
                },
                {
                    "name": "D#4",
                    "midi": 63,
                    "time": 68.71788999999973,
                    "velocity": 0.4409448818897638,
                    "duration": 0.27661862499999756
                },
                {
                    "name": "A4",
                    "midi": 69,
                    "time": 68.71788999999973,
                    "velocity": 0.5196850393700787,
                    "duration": 0.27661862499999756
                },
                {
                    "name": "C#5",
                    "midi": 73,
                    "time": 69.00906749999973,
                    "velocity": 0.7480314960629921,
                    "duration": 1.1647099999999995
                },
                {
                    "name": "G#4",
                    "midi": 68,
                    "time": 69.30024499999973,
                    "velocity": 0.5039370078740157,
                    "duration": 0.27661862499999756
                },
                {
                    "name": "C#4",
                    "midi": 61,
                    "time": 69.30024499999973,
                    "velocity": 0.4251968503937008,
                    "duration": 0.27661862499999756
                },
                {
                    "name": "G#4",
                    "midi": 68,
                    "time": 69.59142249999974,
                    "velocity": 0.48031496062992124,
                    "duration": 0.27661862499999756
                },
                {
                    "name": "C#4",
                    "midi": 61,
                    "time": 69.59142249999974,
                    "velocity": 0.3937007874015748,
                    "duration": 0.27661862499999756
                },
                {
                    "name": "G#4",
                    "midi": 68,
                    "time": 70.17377749999973,
                    "velocity": 0.5196850393700787,
                    "duration": 0.27661862499999756
                },
                {
                    "name": "C#4",
                    "midi": 61,
                    "time": 70.17377749999973,
                    "velocity": 0.4251968503937008,
                    "duration": 0.27661862499999756
                },
                {
                    "name": "C#4",
                    "midi": 61,
                    "time": 70.46495499999973,
                    "velocity": 0.3543307086614173,
                    "duration": 0.27661862499999756
                },
                {
                    "name": "G4",
                    "midi": 67,
                    "time": 70.46495499999973,
                    "velocity": 0.3543307086614173,
                    "duration": 0.27661862499999756
                },
                {
                    "name": "A#4",
                    "midi": 70,
                    "time": 70.46495499999973,
                    "velocity": 0.5433070866141733,
                    "duration": 0.27661862499999756
                },
                {
                    "name": "C#4",
                    "midi": 61,
                    "time": 70.75613249999974,
                    "velocity": 0.4251968503937008,
                    "duration": 0.27661862499999756
                },
                {
                    "name": "C#5",
                    "midi": 73,
                    "time": 70.75613249999974,
                    "velocity": 0.5433070866141733,
                    "duration": 0.27661862499999756
                },
                {
                    "name": "G#4",
                    "midi": 68,
                    "time": 70.75613249999974,
                    "velocity": 0.4251968503937008,
                    "duration": 0.27661862499999756
                },
                {
                    "name": "G#4",
                    "midi": 68,
                    "time": 71.04730999999974,
                    "velocity": 0.4094488188976378,
                    "duration": 0.27661862499999756
                },
                {
                    "name": "C4",
                    "midi": 60,
                    "time": 71.04730999999974,
                    "velocity": 0.33858267716535434,
                    "duration": 0.27661862499999756
                },
                {
                    "name": "C5",
                    "midi": 72,
                    "time": 71.04730999999974,
                    "velocity": 0.5433070866141733,
                    "duration": 0.27661862499999756
                },
                {
                    "name": "F4",
                    "midi": 65,
                    "time": 71.33848749999974,
                    "velocity": 0.36220472440944884,
                    "duration": 0.27661862499999756
                },
                {
                    "name": "G#4",
                    "midi": 68,
                    "time": 71.33848749999974,
                    "velocity": 0.48031496062992124,
                    "duration": 0.27661862499999756
                },
                {
                    "name": "C4",
                    "midi": 60,
                    "time": 71.33848749999974,
                    "velocity": 0.29133858267716534,
                    "duration": 0.27661862499999756
                },
                {
                    "name": "A#4",
                    "midi": 70,
                    "time": 71.62966499999975,
                    "velocity": 0.5511811023622047,
                    "duration": 1.7470650000000205
                },
                {
                    "name": "A#3",
                    "midi": 58,
                    "time": 71.92084249999975,
                    "velocity": 0.29133858267716534,
                    "duration": 0.27661862499999756
                },
                {
                    "name": "G4",
                    "midi": 67,
                    "time": 71.92084249999975,
                    "velocity": 0.33858267716535434,
                    "duration": 0.27661862499999756
                },
                {
                    "name": "A#3",
                    "midi": 58,
                    "time": 72.21201999999975,
                    "velocity": 0.28346456692913385,
                    "duration": 0.27661862499999756
                },
                {
                    "name": "G4",
                    "midi": 67,
                    "time": 72.21201999999975,
                    "velocity": 0.33070866141732286,
                    "duration": 0.27661862499999756
                },
                {
                    "name": "A#3",
                    "midi": 58,
                    "time": 72.50319749999976,
                    "velocity": 0.29133858267716534,
                    "duration": 0.27661862499999756
                },
                {
                    "name": "G4",
                    "midi": 67,
                    "time": 72.50319749999976,
                    "velocity": 0.33858267716535434,
                    "duration": 0.27661862499999756
                },
                {
                    "name": "A#3",
                    "midi": 58,
                    "time": 72.79437499999976,
                    "velocity": 0.25984251968503935,
                    "duration": 0.27661862499999756
                },
                {
                    "name": "G4",
                    "midi": 67,
                    "time": 72.79437499999976,
                    "velocity": 0.30708661417322836,
                    "duration": 0.27661862499999756
                },
                {
                    "name": "A#3",
                    "midi": 58,
                    "time": 73.08555249999976,
                    "velocity": 0.2440944881889764,
                    "duration": 0.27661862499999756
                },
                {
                    "name": "G4",
                    "midi": 67,
                    "time": 73.08555249999976,
                    "velocity": 0.29133858267716534,
                    "duration": 0.27661862499999756
                },
                {
                    "name": "B4",
                    "midi": 71,
                    "time": 73.37672999999977,
                    "velocity": 0.4094488188976378,
                    "duration": 0.7279437500000085
                },
                {
                    "name": "F#4",
                    "midi": 66,
                    "time": 73.66790749999977,
                    "velocity": 0.2677165354330709,
                    "duration": 0.27661862499999756
                },
                {
                    "name": "B3",
                    "midi": 59,
                    "time": 73.66790749999977,
                    "velocity": 0.2047244094488189,
                    "duration": 0.27661862499999756
                },
                {
                    "name": "F#4",
                    "midi": 66,
                    "time": 73.95908499999977,
                    "velocity": 0.2677165354330709,
                    "duration": 0.27661862499999756
                },
                {
                    "name": "B3",
                    "midi": 59,
                    "time": 73.95908499999977,
                    "velocity": 0.2047244094488189,
                    "duration": 0.27661862499999756
                },
                {
                    "name": "B4",
                    "midi": 71,
                    "time": 74.10467374999978,
                    "velocity": 0.2677165354330709,
                    "duration": 0.07279437500000085
                },
                {
                    "name": "C#5",
                    "midi": 73,
                    "time": 74.17746812499978,
                    "velocity": 0.2677165354330709,
                    "duration": 0.07279437500000085
                },
                {
                    "name": "F#4",
                    "midi": 66,
                    "time": 74.25026249999978,
                    "velocity": 0.2677165354330709,
                    "duration": 0.27661862499999756
                },
                {
                    "name": "B3",
                    "midi": 59,
                    "time": 74.25026249999978,
                    "velocity": 0.2047244094488189,
                    "duration": 0.27661862499999756
                },
                {
                    "name": "B4",
                    "midi": 71,
                    "time": 74.25026249999978,
                    "velocity": 0.4015748031496063,
                    "duration": 0.27661862499999756
                },
                {
                    "name": "A#4",
                    "midi": 70,
                    "time": 74.54143999999978,
                    "velocity": 0.3858267716535433,
                    "duration": 0.27661862499999756
                },
                {
                    "name": "A#3",
                    "midi": 58,
                    "time": 74.54143999999978,
                    "velocity": 0.2047244094488189,
                    "duration": 0.27661862499999756
                },
                {
                    "name": "F#4",
                    "midi": 66,
                    "time": 74.54143999999978,
                    "velocity": 0.2677165354330709,
                    "duration": 0.27661862499999756
                },
                {
                    "name": "F#4",
                    "midi": 66,
                    "time": 74.83261749999978,
                    "velocity": 0.2204724409448819,
                    "duration": 0.27661862499999756
                },
                {
                    "name": "B3",
                    "midi": 59,
                    "time": 74.83261749999978,
                    "velocity": 0.1732283464566929,
                    "duration": 0.27661862499999756
                },
                {
                    "name": "B4",
                    "midi": 71,
                    "time": 74.83261749999978,
                    "velocity": 0.3858267716535433,
                    "duration": 0.27661862499999756
                },
                {
                    "name": "C#5",
                    "midi": 73,
                    "time": 75.12379499999979,
                    "velocity": 0.4094488188976378,
                    "duration": 0.8735325000000103
                },
                {
                    "name": "G#4",
                    "midi": 68,
                    "time": 75.41497249999979,
                    "velocity": 0.25984251968503935,
                    "duration": 0.27661862499999756
                },
                {
                    "name": "C#4",
                    "midi": 61,
                    "time": 75.41497249999979,
                    "velocity": 0.2204724409448819,
                    "duration": 0.27661862499999756
                },
                {
                    "name": "G#4",
                    "midi": 68,
                    "time": 75.7061499999998,
                    "velocity": 0.2677165354330709,
                    "duration": 0.27661862499999756
                },
                {
                    "name": "C#4",
                    "midi": 61,
                    "time": 75.7061499999998,
                    "velocity": 0.2204724409448819,
                    "duration": 0.27661862499999756
                },
                {
                    "name": "B3",
                    "midi": 59,
                    "time": 75.9973274999998,
                    "velocity": 0.2125984251968504,
                    "duration": 0.27661862499999756
                },
                {
                    "name": "B4",
                    "midi": 71,
                    "time": 75.9973274999998,
                    "velocity": 0.4015748031496063,
                    "duration": 0.5823550000000068
                },
                {
                    "name": "G#4",
                    "midi": 68,
                    "time": 75.9973274999998,
                    "velocity": 0.25196850393700787,
                    "duration": 0.27661862499999756
                },
                {
                    "name": "G#4",
                    "midi": 68,
                    "time": 76.2885049999998,
                    "velocity": 0.29133858267716534,
                    "duration": 0.27661862499999756
                },
                {
                    "name": "G#4",
                    "midi": 68,
                    "time": 76.5796824999998,
                    "velocity": 0.2992125984251969,
                    "duration": 0.27661862499999756
                },
                {
                    "name": "B4",
                    "midi": 71,
                    "time": 76.87085999999981,
                    "velocity": 0.4409448818897638,
                    "duration": 0.27661862499999756
                },
                {
                    "name": "B4",
                    "midi": 71,
                    "time": 77.16203749999981,
                    "velocity": 0.3700787401574803,
                    "duration": 0.27661862499999756
                },
                {
                    "name": "F#4",
                    "midi": 66,
                    "time": 77.16203749999981,
                    "velocity": 0.28346456692913385,
                    "duration": 0.27661862499999756
                },
                {
                    "name": "C#5",
                    "midi": 73,
                    "time": 77.45321499999982,
                    "velocity": 0.47244094488188976,
                    "duration": 0.27661862499999756
                },
                {
                    "name": "B4",
                    "midi": 71,
                    "time": 77.45321499999982,
                    "velocity": 0.3700787401574803,
                    "duration": 0.27661862499999756
                },
                {
                    "name": "F#4",
                    "midi": 66,
                    "time": 77.45321499999982,
                    "velocity": 0.3700787401574803,
                    "duration": 0.27661862499999756
                },
                {
                    "name": "F#4",
                    "midi": 66,
                    "time": 77.74439249999982,
                    "velocity": 0.28346456692913385,
                    "duration": 0.27661862499999756
                },
                {
                    "name": "D#5",
                    "midi": 75,
                    "time": 77.74439249999982,
                    "velocity": 0.49606299212598426,
                    "duration": 0.27661862499999756
                },
                {
                    "name": "B4",
                    "midi": 71,
                    "time": 77.74439249999982,
                    "velocity": 0.3700787401574803,
                    "duration": 0.27661862499999756
                },
                {
                    "name": "F#4",
                    "midi": 66,
                    "time": 78.03556999999982,
                    "velocity": 0.3700787401574803,
                    "duration": 0.27661862499999756
                },
                {
                    "name": "E5",
                    "midi": 76,
                    "time": 78.03556999999982,
                    "velocity": 0.5275590551181102,
                    "duration": 0.27661862499999756
                },
                {
                    "name": "B4",
                    "midi": 71,
                    "time": 78.03556999999982,
                    "velocity": 0.3700787401574803,
                    "duration": 0.27661862499999756
                },
                {
                    "name": "B4",
                    "midi": 71,
                    "time": 78.32674749999983,
                    "velocity": 0.3700787401574803,
                    "duration": 0.27661862499999756
                },
                {
                    "name": "F#5",
                    "midi": 78,
                    "time": 78.32674749999983,
                    "velocity": 0.5275590551181102,
                    "duration": 0.27661862499999756
                },
                {
                    "name": "F#4",
                    "midi": 66,
                    "time": 78.32674749999983,
                    "velocity": 0.2992125984251969,
                    "duration": 0.27661862499999756
                },
                {
                    "name": "G#5",
                    "midi": 80,
                    "time": 78.61792499999983,
                    "velocity": 0.5669291338582677,
                    "duration": 2.0382425000000097
                },
                {
                    "name": "G#4",
                    "midi": 68,
                    "time": 78.90910249999983,
                    "velocity": 0.31496062992125984,
                    "duration": 0.27661862499999756
                },
                {
                    "name": "E5",
                    "midi": 76,
                    "time": 78.90910249999983,
                    "velocity": 0.3779527559055118,
                    "duration": 0.27661862499999756
                },
                {
                    "name": "G#4",
                    "midi": 68,
                    "time": 79.20027999999984,
                    "velocity": 0.3228346456692913,
                    "duration": 0.27661862499999756
                },
                {
                    "name": "E5",
                    "midi": 76,
                    "time": 79.20027999999984,
                    "velocity": 0.3858267716535433,
                    "duration": 0.27661862499999756
                },
                {
                    "name": "G#4",
                    "midi": 68,
                    "time": 79.49145749999984,
                    "velocity": 0.33070866141732286,
                    "duration": 0.27661862499999756
                },
                {
                    "name": "E5",
                    "midi": 76,
                    "time": 79.49145749999984,
                    "velocity": 0.4015748031496063,
                    "duration": 0.27661862499999756
                },
                {
                    "name": "E5",
                    "midi": 76,
                    "time": 79.78263499999984,
                    "velocity": 0.41732283464566927,
                    "duration": 0.27661862499999756
                },
                {
                    "name": "B4",
                    "midi": 71,
                    "time": 79.78263499999984,
                    "velocity": 0.3543307086614173,
                    "duration": 0.27661862499999756
                },
                {
                    "name": "G#4",
                    "midi": 68,
                    "time": 79.78263499999984,
                    "velocity": 0.3543307086614173,
                    "duration": 0.27661862499999756
                },
                {
                    "name": "G#4",
                    "midi": 68,
                    "time": 80.07381249999985,
                    "velocity": 0.36220472440944884,
                    "duration": 0.27661862499999756
                },
                {
                    "name": "B4",
                    "midi": 71,
                    "time": 80.07381249999985,
                    "velocity": 0.3543307086614173,
                    "duration": 0.27661862499999756
                },
                {
                    "name": "E5",
                    "midi": 76,
                    "time": 80.07381249999985,
                    "velocity": 0.4330708661417323,
                    "duration": 0.27661862499999756
                },
                {
                    "name": "C#4",
                    "midi": 61,
                    "time": 80.65616749999984,
                    "velocity": 0.2440944881889764,
                    "duration": 0.27661862499999756
                },
                {
                    "name": "C#4",
                    "midi": 61,
                    "time": 80.94734499999984,
                    "velocity": 0.2440944881889764,
                    "duration": 0.27661862499999756
                },
                {
                    "name": "G#4",
                    "midi": 68,
                    "time": 80.94734499999984,
                    "velocity": 0.2440944881889764,
                    "duration": 0.27661862499999756
                },
                {
                    "name": "C#5",
                    "midi": 73,
                    "time": 80.94734499999984,
                    "velocity": 0.31496062992125984,
                    "duration": 0.14437551041666552
                },
                {
                    "name": "C#5",
                    "midi": 73,
                    "time": 81.09293374999984,
                    "velocity": 0.31496062992125984,
                    "duration": 0.07279437500000085
                },
                {
                    "name": "D#5",
                    "midi": 75,
                    "time": 81.16572812499984,
                    "velocity": 0.31496062992125984,
                    "duration": 0.07279437500000085
                },
                {
                    "name": "C#5",
                    "midi": 73,
                    "time": 81.23852249999985,
                    "velocity": 0.48031496062992124,
                    "duration": 0.27661862499999756
                },
                {
                    "name": "C#4",
                    "midi": 61,
                    "time": 81.23852249999985,
                    "velocity": 0.2440944881889764,
                    "duration": 0.27661862499999756
                },
                {
                    "name": "G#4",
                    "midi": 68,
                    "time": 81.23852249999985,
                    "velocity": 0.31496062992125984,
                    "duration": 0.27661862499999756
                },
                {
                    "name": "G#4",
                    "midi": 68,
                    "time": 81.52969999999985,
                    "velocity": 0.2992125984251969,
                    "duration": 0.27661862499999756
                },
                {
                    "name": "C4",
                    "midi": 60,
                    "time": 81.52969999999985,
                    "velocity": 0.2440944881889764,
                    "duration": 0.27661862499999756
                },
                {
                    "name": "C5",
                    "midi": 72,
                    "time": 81.52969999999985,
                    "velocity": 0.4409448818897638,
                    "duration": 0.27661862499999756
                },
                {
                    "name": "C#4",
                    "midi": 61,
                    "time": 81.82087749999985,
                    "velocity": 0.2125984251968504,
                    "duration": 0.27661862499999756
                },
                {
                    "name": "C#5",
                    "midi": 73,
                    "time": 81.82087749999985,
                    "velocity": 0.4566929133858268,
                    "duration": 0.27661862499999756
                },
                {
                    "name": "G#4",
                    "midi": 68,
                    "time": 81.82087749999985,
                    "velocity": 0.25984251968503935,
                    "duration": 0.27661862499999756
                },
                {
                    "name": "D#5",
                    "midi": 75,
                    "time": 82.11205499999986,
                    "velocity": 0.4881889763779528,
                    "duration": 0.8735325000000103
                },
                {
                    "name": "C#4",
                    "midi": 61,
                    "time": 82.40323249999986,
                    "velocity": 0.25984251968503935,
                    "duration": 0.27661862499999756
                },
                {
                    "name": "A#4",
                    "midi": 70,
                    "time": 82.40323249999986,
                    "velocity": 0.30708661417322836,
                    "duration": 0.27661862499999756
                },
                {
                    "name": "C#4",
                    "midi": 61,
                    "time": 82.69440999999986,
                    "velocity": 0.2677165354330709,
                    "duration": 0.27661862499999756
                },
                {
                    "name": "A#4",
                    "midi": 70,
                    "time": 82.69440999999986,
                    "velocity": 0.31496062992125984,
                    "duration": 0.27661862499999756
                },
                {
                    "name": "C#5",
                    "midi": 73,
                    "time": 82.98558749999987,
                    "velocity": 0.47244094488188976,
                    "duration": 0.8735325000000103
                },
                {
                    "name": "A#4",
                    "midi": 70,
                    "time": 82.98558749999987,
                    "velocity": 0.2992125984251969,
                    "duration": 0.27661862499999756
                },
                {
                    "name": "C#4",
                    "midi": 61,
                    "time": 82.98558749999987,
                    "velocity": 0.25196850393700787,
                    "duration": 0.27661862499999756
                },
                {
                    "name": "A#4",
                    "midi": 70,
                    "time": 83.27676499999987,
                    "velocity": 0.3464566929133858,
                    "duration": 0.27661862499999756
                },
                {
                    "name": "C#4",
                    "midi": 61,
                    "time": 83.27676499999987,
                    "velocity": 0.25196850393700787,
                    "duration": 0.27661862499999756
                },
                {
                    "name": "A#4",
                    "midi": 70,
                    "time": 83.56794249999987,
                    "velocity": 0.3543307086614173,
                    "duration": 0.27661862499999756
                },
                {
                    "name": "C#4",
                    "midi": 61,
                    "time": 83.56794249999987,
                    "velocity": 0.25196850393700787,
                    "duration": 0.27661862499999756
                },
                {
                    "name": "C#5",
                    "midi": 73,
                    "time": 83.85911999999988,
                    "velocity": 0.4409448818897638,
                    "duration": 0.27661862499999756
                },
                {
                    "name": "F4",
                    "midi": 65,
                    "time": 84.15029749999988,
                    "velocity": 0.28346456692913385,
                    "duration": 0.27661862499999756
                },
                {
                    "name": "C#5",
                    "midi": 73,
                    "time": 84.15029749999988,
                    "velocity": 0.3700787401574803,
                    "duration": 0.27661862499999756
                },
                {
                    "name": "B4",
                    "midi": 71,
                    "time": 84.15029749999988,
                    "velocity": 0.28346456692913385,
                    "duration": 0.27661862499999756
                },
                {
                    "name": "D#5",
                    "midi": 75,
                    "time": 84.44147499999988,
                    "velocity": 0.47244094488188976,
                    "duration": 0.27661862499999756
                },
                {
                    "name": "B4",
                    "midi": 71,
                    "time": 84.44147499999988,
                    "velocity": 0.3700787401574803,
                    "duration": 0.27661862499999756
                },
                {
                    "name": "F4",
                    "midi": 65,
                    "time": 84.44147499999988,
                    "velocity": 0.3700787401574803,
                    "duration": 0.27661862499999756
                },
                {
                    "name": "F5",
                    "midi": 77,
                    "time": 84.73265249999989,
                    "velocity": 0.49606299212598426,
                    "duration": 0.27661862499999756
                },
                {
                    "name": "F4",
                    "midi": 65,
                    "time": 84.73265249999989,
                    "velocity": 0.28346456692913385,
                    "duration": 0.27661862499999756
                },
                {
                    "name": "B4",
                    "midi": 71,
                    "time": 84.73265249999989,
                    "velocity": 0.3700787401574803,
                    "duration": 0.27661862499999756
                },
                {
                    "name": "F#5",
                    "midi": 78,
                    "time": 85.02382999999989,
                    "velocity": 0.5275590551181102,
                    "duration": 0.27661862499999756
                },
                {
                    "name": "B4",
                    "midi": 71,
                    "time": 85.02382999999989,
                    "velocity": 0.3700787401574803,
                    "duration": 0.27661862499999756
                },
                {
                    "name": "C#5",
                    "midi": 73,
                    "time": 85.02382999999989,
                    "velocity": 0.3700787401574803,
                    "duration": 0.27661862499999756
                },
                {
                    "name": "F#4",
                    "midi": 66,
                    "time": 85.02382999999989,
                    "velocity": 0.3700787401574803,
                    "duration": 0.27661862499999756
                },
                {
                    "name": "G#5",
                    "midi": 80,
                    "time": 85.3150074999999,
                    "velocity": 0.5275590551181102,
                    "duration": 0.27661862499999756
                },
                {
                    "name": "B4",
                    "midi": 71,
                    "time": 85.3150074999999,
                    "velocity": 0.3700787401574803,
                    "duration": 0.27661862499999756
                },
                {
                    "name": "C#5",
                    "midi": 73,
                    "time": 85.3150074999999,
                    "velocity": 0.3700787401574803,
                    "duration": 0.27661862499999756
                },
                {
                    "name": "G#4",
                    "midi": 68,
                    "time": 85.3150074999999,
                    "velocity": 0.2992125984251969,
                    "duration": 0.27661862499999756
                },
                {
                    "name": "A#5",
                    "midi": 82,
                    "time": 85.6061849999999,
                    "velocity": 0.5669291338582677,
                    "duration": 1.7470650000000205
                },
                {
                    "name": "A#4",
                    "midi": 70,
                    "time": 85.8973624999999,
                    "velocity": 0.3937007874015748,
                    "duration": 0.27661862499999756
                },
                {
                    "name": "F#5",
                    "midi": 78,
                    "time": 85.8973624999999,
                    "velocity": 0.4645669291338583,
                    "duration": 0.27661862499999756
                },
                {
                    "name": "A#4",
                    "midi": 70,
                    "time": 86.1885399999999,
                    "velocity": 0.36220472440944884,
                    "duration": 0.27661862499999756
                },
                {
                    "name": "F#5",
                    "midi": 78,
                    "time": 86.1885399999999,
                    "velocity": 0.4330708661417323,
                    "duration": 0.27661862499999756
                },
                {
                    "name": "F#5",
                    "midi": 78,
                    "time": 86.47971749999991,
                    "velocity": 0.4881889763779528,
                    "duration": 0.27661862499999756
                },
                {
                    "name": "C#5",
                    "midi": 73,
                    "time": 86.47971749999991,
                    "velocity": 0.4094488188976378,
                    "duration": 0.27661862499999756
                },
                {
                    "name": "A#4",
                    "midi": 70,
                    "time": 86.47971749999991,
                    "velocity": 0.4094488188976378,
                    "duration": 0.27661862499999756
                },
                {
                    "name": "A#4",
                    "midi": 70,
                    "time": 86.77089499999991,
                    "velocity": 0.4409448818897638,
                    "duration": 0.27661862499999756
                },
                {
                    "name": "C#5",
                    "midi": 73,
                    "time": 86.77089499999991,
                    "velocity": 0.4409448818897638,
                    "duration": 0.27661862499999756
                },
                {
                    "name": "F#5",
                    "midi": 78,
                    "time": 86.77089499999991,
                    "velocity": 0.5196850393700787,
                    "duration": 0.27661862499999756
                },
                {
                    "name": "C#5",
                    "midi": 73,
                    "time": 87.06207249999991,
                    "velocity": 0.4645669291338583,
                    "duration": 0.27661862499999756
                },
                {
                    "name": "F#5",
                    "midi": 78,
                    "time": 87.06207249999991,
                    "velocity": 0.5511811023622047,
                    "duration": 0.27661862499999756
                },
                {
                    "name": "A#4",
                    "midi": 70,
                    "time": 87.06207249999991,
                    "velocity": 0.4645669291338583,
                    "duration": 0.27661862499999756
                },
                {
                    "name": "B5",
                    "midi": 83,
                    "time": 87.35324999999992,
                    "velocity": 0.6141732283464567,
                    "duration": 0.8735325000000103
                },
                {
                    "name": "A4",
                    "midi": 69,
                    "time": 87.64442749999992,
                    "velocity": 0.3779527559055118,
                    "duration": 0.27661862499999756
                },
                {
                    "name": "F#5",
                    "midi": 78,
                    "time": 87.64442749999992,
                    "velocity": 0.4566929133858268,
                    "duration": 0.27661862499999756
                },
                {
                    "name": "B4",
                    "midi": 71,
                    "time": 87.64442749999992,
                    "velocity": 0.3779527559055118,
                    "duration": 0.27661862499999756
                },
                {
                    "name": "B4",
                    "midi": 71,
                    "time": 87.93560499999992,
                    "velocity": 0.3779527559055118,
                    "duration": 0.27661862499999756
                },
                {
                    "name": "A4",
                    "midi": 69,
                    "time": 87.93560499999992,
                    "velocity": 0.3779527559055118,
                    "duration": 0.27661862499999756
                },
                {
                    "name": "F#5",
                    "midi": 78,
                    "time": 87.93560499999992,
                    "velocity": 0.4566929133858268,
                    "duration": 0.27661862499999756
                },
                {
                    "name": "G#5",
                    "midi": 80,
                    "time": 88.22678249999993,
                    "velocity": 0.5826771653543307,
                    "duration": 0.8735325000000103
                },
                {
                    "name": "E5",
                    "midi": 76,
                    "time": 88.51795999999993,
                    "velocity": 0.44881889763779526,
                    "duration": 0.27661862499999756
                },
                {
                    "name": "G#4",
                    "midi": 68,
                    "time": 88.51795999999993,
                    "velocity": 0.3779527559055118,
                    "duration": 0.27661862499999756
                },
                {
                    "name": "E5",
                    "midi": 76,
                    "time": 88.80913749999993,
                    "velocity": 0.44881889763779526,
                    "duration": 0.27661862499999756
                },
                {
                    "name": "G#4",
                    "midi": 68,
                    "time": 88.80913749999993,
                    "velocity": 0.3779527559055118,
                    "duration": 0.27661862499999756
                },
                {
                    "name": "A#5",
                    "midi": 82,
                    "time": 89.10031499999994,
                    "velocity": 0.5826771653543307,
                    "duration": 0.8735325000000103
                },
                {
                    "name": "G#4",
                    "midi": 68,
                    "time": 89.39149249999994,
                    "velocity": 0.3464566929133858,
                    "duration": 0.27661862499999756
                },
                {
                    "name": "F5",
                    "midi": 77,
                    "time": 89.39149249999994,
                    "velocity": 0.4330708661417323,
                    "duration": 0.27661862499999756
                },
                {
                    "name": "G#4",
                    "midi": 68,
                    "time": 89.68266999999994,
                    "velocity": 0.3464566929133858,
                    "duration": 0.27661862499999756
                },
                {
                    "name": "F5",
                    "midi": 77,
                    "time": 89.68266999999994,
                    "velocity": 0.4330708661417323,
                    "duration": 0.27661862499999756
                },
                {
                    "name": "G5",
                    "midi": 79,
                    "time": 89.97384749999995,
                    "velocity": 0.5511811023622047,
                    "duration": 0.8735325000000103
                },
                {
                    "name": "D#5",
                    "midi": 75,
                    "time": 90.26502499999995,
                    "velocity": 0.4094488188976378,
                    "duration": 0.27661862499999756
                },
                {
                    "name": "G4",
                    "midi": 67,
                    "time": 90.26502499999995,
                    "velocity": 0.33858267716535434,
                    "duration": 0.27661862499999756
                },
                {
                    "name": "D#5",
                    "midi": 75,
                    "time": 90.55620249999996,
                    "velocity": 0.4094488188976378,
                    "duration": 0.27661862499999756
                },
                {
                    "name": "G4",
                    "midi": 67,
                    "time": 90.55620249999996,
                    "velocity": 0.33858267716535434,
                    "duration": 0.27661862499999756
                },
                {
                    "name": "A5",
                    "midi": 81,
                    "time": 90.84737999999996,
                    "velocity": 0.5196850393700787,
                    "duration": 0.8735325000000103
                },
                {
                    "name": "G4",
                    "midi": 67,
                    "time": 91.13855749999996,
                    "velocity": 0.33070866141732286,
                    "duration": 0.27661862499999756
                },
                {
                    "name": "E5",
                    "midi": 76,
                    "time": 91.13855749999996,
                    "velocity": 0.4015748031496063,
                    "duration": 0.27661862499999756
                },
                {
                    "name": "G4",
                    "midi": 67,
                    "time": 91.42973499999997,
                    "velocity": 0.33070866141732286,
                    "duration": 0.27661862499999756
                },
                {
                    "name": "E5",
                    "midi": 76,
                    "time": 91.42973499999997,
                    "velocity": 0.4015748031496063,
                    "duration": 0.27661862499999756
                },
                {
                    "name": "F#5",
                    "midi": 78,
                    "time": 91.72091249999997,
                    "velocity": 0.49606299212598426,
                    "duration": 2.6205975000000308
                },
                {
                    "name": "D5",
                    "midi": 74,
                    "time": 92.01208999999997,
                    "velocity": 0.3779527559055118,
                    "duration": 0.27661862499999756
                },
                {
                    "name": "F#4",
                    "midi": 66,
                    "time": 92.01208999999997,
                    "velocity": 0.31496062992125984,
                    "duration": 0.27661862499999756
                },
                {
                    "name": "C#5",
                    "midi": 73,
                    "time": 92.30326749999998,
                    "velocity": 0.3779527559055118,
                    "duration": 0.27661862499999756
                },
                {
                    "name": "F#4",
                    "midi": 66,
                    "time": 92.30326749999998,
                    "velocity": 0.31496062992125984,
                    "duration": 0.27661862499999756
                },
                {
                    "name": "C5",
                    "midi": 72,
                    "time": 92.59444499999998,
                    "velocity": 0.4409448818897638,
                    "duration": 0.27661862499999756
                },
                {
                    "name": "F#4",
                    "midi": 66,
                    "time": 92.59444499999998,
                    "velocity": 0.3700787401574803,
                    "duration": 0.27661862499999756
                },
                {
                    "name": "A4",
                    "midi": 69,
                    "time": 92.88562249999998,
                    "velocity": 0.3858267716535433,
                    "duration": 0.27661862499999756
                },
                {
                    "name": "F#4",
                    "midi": 66,
                    "time": 92.88562249999998,
                    "velocity": 0.3858267716535433,
                    "duration": 0.27661862499999756
                },
                {
                    "name": "C5",
                    "midi": 72,
                    "time": 92.88562249999998,
                    "velocity": 0.4566929133858268,
                    "duration": 0.27661862499999756
                },
                {
                    "name": "F#4",
                    "midi": 66,
                    "time": 93.17679999999999,
                    "velocity": 0.4015748031496063,
                    "duration": 0.27661862499999756
                },
                {
                    "name": "C#5",
                    "midi": 73,
                    "time": 93.17679999999999,
                    "velocity": 0.47244094488188976,
                    "duration": 0.27661862499999756
                },
                {
                    "name": "A4",
                    "midi": 69,
                    "time": 93.17679999999999,
                    "velocity": 0.4015748031496063,
                    "duration": 0.27661862499999756
                },
                {
                    "name": "A4",
                    "midi": 69,
                    "time": 93.46797749999999,
                    "velocity": 0.4094488188976378,
                    "duration": 0.27661862499999756
                },
                {
                    "name": "F#4",
                    "midi": 66,
                    "time": 93.46797749999999,
                    "velocity": 0.4094488188976378,
                    "duration": 0.27661862499999756
                },
                {
                    "name": "D5",
                    "midi": 74,
                    "time": 93.46797749999999,
                    "velocity": 0.4881889763779528,
                    "duration": 0.27661862499999756
                },
                {
                    "name": "D5",
                    "midi": 74,
                    "time": 93.75915499999999,
                    "velocity": 0.5039370078740157,
                    "duration": 0.27661862499999756
                },
                {
                    "name": "F#4",
                    "midi": 66,
                    "time": 93.75915499999999,
                    "velocity": 0.4251968503937008,
                    "duration": 0.27661862499999756
                },
                {
                    "name": "A4",
                    "midi": 69,
                    "time": 93.75915499999999,
                    "velocity": 0.4251968503937008,
                    "duration": 0.27661862499999756
                },
                {
                    "name": "A4",
                    "midi": 69,
                    "time": 94.0503325,
                    "velocity": 0.4409448818897638,
                    "duration": 0.27661862499999756
                },
                {
                    "name": "F#4",
                    "midi": 66,
                    "time": 94.0503325,
                    "velocity": 0.4409448818897638,
                    "duration": 0.27661862499999756
                },
                {
                    "name": "D#5",
                    "midi": 75,
                    "time": 94.0503325,
                    "velocity": 0.5196850393700787,
                    "duration": 0.27661862499999756
                },
                {
                    "name": "G5",
                    "midi": 79,
                    "time": 94.34151,
                    "velocity": 0.6062992125984252,
                    "duration": 1.1647100000000137
                },
                {
                    "name": "G4",
                    "midi": 67,
                    "time": 94.6326875,
                    "velocity": 0.30708661417322836,
                    "duration": 0.27661862499999756
                },
                {
                    "name": "D#5",
                    "midi": 75,
                    "time": 94.6326875,
                    "velocity": 0.4015748031496063,
                    "duration": 0.27661862499999756
                },
                {
                    "name": "G4",
                    "midi": 67,
                    "time": 94.923865,
                    "velocity": 0.3543307086614173,
                    "duration": 0.27661862499999756
                },
                {
                    "name": "D#5",
                    "midi": 75,
                    "time": 94.923865,
                    "velocity": 0.4330708661417323,
                    "duration": 0.27661862499999756
                },
                {
                    "name": "G4",
                    "midi": 67,
                    "time": 95.21504250000001,
                    "velocity": 0.3779527559055118,
                    "duration": 0.27661862499999756
                },
                {
                    "name": "C#5",
                    "midi": 73,
                    "time": 95.21504250000001,
                    "velocity": 0.3779527559055118,
                    "duration": 0.27661862499999756
                },
                {
                    "name": "C#5",
                    "midi": 73,
                    "time": 95.50622000000001,
                    "velocity": 0.4409448818897638,
                    "duration": 0.27661862499999756
                },
                {
                    "name": "G#5",
                    "midi": 80,
                    "time": 95.50622000000001,
                    "velocity": 0.5196850393700787,
                    "duration": 0.27661862499999756
                },
                {
                    "name": "G4",
                    "midi": 67,
                    "time": 95.50622000000001,
                    "velocity": 0.3779527559055118,
                    "duration": 0.27661862499999756
                },
                {
                    "name": "C#5",
                    "midi": 73,
                    "time": 95.79739750000002,
                    "velocity": 0.3858267716535433,
                    "duration": 0.27661862499999756
                },
                {
                    "name": "G4",
                    "midi": 67,
                    "time": 95.79739750000002,
                    "velocity": 0.3858267716535433,
                    "duration": 0.27661862499999756
                },
                {
                    "name": "E5",
                    "midi": 76,
                    "time": 95.79739750000002,
                    "velocity": 0.5039370078740157,
                    "duration": 0.27661862499999756
                },
                {
                    "name": "G5",
                    "midi": 79,
                    "time": 96.08857500000002,
                    "velocity": 0.5433070866141733,
                    "duration": 0.1455887500000017
                },
                {
                    "name": "F5",
                    "midi": 77,
                    "time": 96.23416375000002,
                    "velocity": 0.4251968503937008,
                    "duration": 0.07279437500000085
                },
                {
                    "name": "G5",
                    "midi": 79,
                    "time": 96.30695812500002,
                    "velocity": 0.3858267716535433,
                    "duration": 0.07279437500000085
                },
                {
                    "name": "G#4",
                    "midi": 68,
                    "time": 96.37975250000002,
                    "velocity": 0.41732283464566927,
                    "duration": 0.27661862499999756
                },
                {
                    "name": "F5",
                    "midi": 77,
                    "time": 96.37975250000002,
                    "velocity": 0.4881889763779528,
                    "duration": 0.27661862499999756
                },
                {
                    "name": "D5",
                    "midi": 74,
                    "time": 96.37975250000002,
                    "velocity": 0.4015748031496063,
                    "duration": 0.27661862499999756
                },
                {
                    "name": "G#4",
                    "midi": 68,
                    "time": 96.67093000000003,
                    "velocity": 0.2755905511811024,
                    "duration": 0.27661862499999756
                },
                {
                    "name": "E5",
                    "midi": 76,
                    "time": 96.67093000000003,
                    "velocity": 0.5039370078740157,
                    "duration": 0.27661862499999756
                },
                {
                    "name": "D5",
                    "midi": 74,
                    "time": 96.67093000000003,
                    "velocity": 0.3464566929133858,
                    "duration": 0.27661862499999756
                },
                {
                    "name": "D5",
                    "midi": 74,
                    "time": 96.96210750000003,
                    "velocity": 0.4330708661417323,
                    "duration": 0.27661862499999756
                },
                {
                    "name": "G#4",
                    "midi": 68,
                    "time": 96.96210750000003,
                    "velocity": 0.44881889763779526,
                    "duration": 0.27661862499999756
                },
                {
                    "name": "F5",
                    "midi": 77,
                    "time": 96.96210750000003,
                    "velocity": 0.5039370078740157,
                    "duration": 0.27661862499999756
                },
                {
                    "name": "G#4",
                    "midi": 68,
                    "time": 97.25328500000003,
                    "velocity": 0.4015748031496063,
                    "duration": 0.27661862499999756
                },
                {
                    "name": "G5",
                    "midi": 79,
                    "time": 97.25328500000003,
                    "velocity": 0.47244094488188976,
                    "duration": 0.27661862499999756
                },
                {
                    "name": "D5",
                    "midi": 74,
                    "time": 97.25328500000003,
                    "velocity": 0.4015748031496063,
                    "duration": 0.27661862499999756
                },
                {
                    "name": "D5",
                    "midi": 74,
                    "time": 97.54446250000004,
                    "velocity": 0.49606299212598426,
                    "duration": 0.27661862499999756
                },
                {
                    "name": "G#4",
                    "midi": 68,
                    "time": 97.54446250000004,
                    "velocity": 0.4015748031496063,
                    "duration": 0.27661862499999756
                },
                {
                    "name": "D#5",
                    "midi": 75,
                    "time": 97.83564000000004,
                    "velocity": 0.4881889763779528,
                    "duration": 2.038242500000024
                },
                {
                    "name": "D#4",
                    "midi": 63,
                    "time": 98.12681750000004,
                    "velocity": 0.2755905511811024,
                    "duration": 0.27661862499999756
                },
                {
                    "name": "A#4",
                    "midi": 70,
                    "time": 98.12681750000004,
                    "velocity": 0.3228346456692913,
                    "duration": 0.27661862499999756
                },
                {
                    "name": "D#4",
                    "midi": 63,
                    "time": 98.41799500000005,
                    "velocity": 0.28346456692913385,
                    "duration": 0.27661862499999756
                },
                {
                    "name": "A#4",
                    "midi": 70,
                    "time": 98.41799500000005,
                    "velocity": 0.33070866141732286,
                    "duration": 0.27661862499999756
                },
                {
                    "name": "D#4",
                    "midi": 63,
                    "time": 98.70917250000005,
                    "velocity": 0.29133858267716534,
                    "duration": 0.27661862499999756
                },
                {
                    "name": "A#4",
                    "midi": 70,
                    "time": 98.70917250000005,
                    "velocity": 0.3464566929133858,
                    "duration": 0.27661862499999756
                },
                {
                    "name": "D#4",
                    "midi": 63,
                    "time": 99.00035000000005,
                    "velocity": 0.2992125984251969,
                    "duration": 0.27661862499999756
                },
                {
                    "name": "A#4",
                    "midi": 70,
                    "time": 99.00035000000005,
                    "velocity": 0.36220472440944884,
                    "duration": 0.27661862499999756
                },
                {
                    "name": "D#4",
                    "midi": 63,
                    "time": 99.29152750000006,
                    "velocity": 0.30708661417322836,
                    "duration": 0.27661862499999756
                },
                {
                    "name": "A#4",
                    "midi": 70,
                    "time": 99.29152750000006,
                    "velocity": 0.3700787401574803,
                    "duration": 0.27661862499999756
                },
                {
                    "name": "D#4",
                    "midi": 63,
                    "time": 99.58270500000006,
                    "velocity": 0.3543307086614173,
                    "duration": 0.27661862499999756
                },
                {
                    "name": "B4",
                    "midi": 71,
                    "time": 99.58270500000006,
                    "velocity": 0.3779527559055118,
                    "duration": 0.27661862499999756
                },
                {
                    "name": "D#5",
                    "midi": 75,
                    "time": 99.87388250000006,
                    "velocity": 0.47244094488188976,
                    "duration": 0.27661862499999756
                },
                {
                    "name": "B4",
                    "midi": 71,
                    "time": 99.87388250000006,
                    "velocity": 0.36220472440944884,
                    "duration": 0.27661862499999756
                },
                {
                    "name": "D#4",
                    "midi": 63,
                    "time": 99.87388250000006,
                    "velocity": 0.36220472440944884,
                    "duration": 0.27661862499999756
                },
                {
                    "name": "D4",
                    "midi": 62,
                    "time": 100.16506000000007,
                    "velocity": 0.3464566929133858,
                    "duration": 0.27661862499999756
                },
                {
                    "name": "D5",
                    "midi": 74,
                    "time": 100.16506000000007,
                    "velocity": 0.44881889763779526,
                    "duration": 0.27661862499999756
                },
                {
                    "name": "B4",
                    "midi": 71,
                    "time": 100.16506000000007,
                    "velocity": 0.3464566929133858,
                    "duration": 0.27661862499999756
                },
                {
                    "name": "F4",
                    "midi": 65,
                    "time": 100.45623750000007,
                    "velocity": 0.3779527559055118,
                    "duration": 0.27661862499999756
                },
                {
                    "name": "F5",
                    "midi": 77,
                    "time": 100.45623750000007,
                    "velocity": 0.4881889763779528,
                    "duration": 0.27661862499999756
                },
                {
                    "name": "B4",
                    "midi": 71,
                    "time": 100.45623750000007,
                    "velocity": 0.3779527559055118,
                    "duration": 0.27661862499999756
                },
                {
                    "name": "D#4",
                    "midi": 63,
                    "time": 100.74741500000007,
                    "velocity": 0.3543307086614173,
                    "duration": 0.27661862499999756
                },
                {
                    "name": "B4",
                    "midi": 71,
                    "time": 100.74741500000007,
                    "velocity": 0.3543307086614173,
                    "duration": 0.27661862499999756
                },
                {
                    "name": "D#5",
                    "midi": 75,
                    "time": 100.74741500000007,
                    "velocity": 0.4566929133858268,
                    "duration": 0.27661862499999756
                },
                {
                    "name": "D#4",
                    "midi": 63,
                    "time": 101.03859250000008,
                    "velocity": 0.3543307086614173,
                    "duration": 0.27661862499999756
                },
                {
                    "name": "B4",
                    "midi": 71,
                    "time": 101.03859250000008,
                    "velocity": 0.4645669291338583,
                    "duration": 0.27661862499999756
                },
                {
                    "name": "D#5",
                    "midi": 75,
                    "time": 101.32977000000008,
                    "velocity": 0.4881889763779528,
                    "duration": 2.038242500000024
                },
                {
                    "name": "A#4",
                    "midi": 70,
                    "time": 101.62094750000009,
                    "velocity": 0.3228346456692913,
                    "duration": 0.27661862499999756
                },
                {
                    "name": "D#4",
                    "midi": 63,
                    "time": 101.62094750000009,
                    "velocity": 0.2755905511811024,
                    "duration": 0.27661862499999756
                },
                {
                    "name": "A#4",
                    "midi": 70,
                    "time": 101.91212500000009,
                    "velocity": 0.33070866141732286,
                    "duration": 0.27661862499999756
                },
                {
                    "name": "D#4",
                    "midi": 63,
                    "time": 101.91212500000009,
                    "velocity": 0.28346456692913385,
                    "duration": 0.27661862499999756
                },
                {
                    "name": "A#4",
                    "midi": 70,
                    "time": 102.20330250000009,
                    "velocity": 0.3464566929133858,
                    "duration": 0.27661862499999756
                },
                {
                    "name": "D#4",
                    "midi": 63,
                    "time": 102.20330250000009,
                    "velocity": 0.29133858267716534,
                    "duration": 0.27661862499999756
                },
                {
                    "name": "A#4",
                    "midi": 70,
                    "time": 102.4944800000001,
                    "velocity": 0.36220472440944884,
                    "duration": 0.27661862499999756
                },
                {
                    "name": "D#4",
                    "midi": 63,
                    "time": 102.4944800000001,
                    "velocity": 0.2992125984251969,
                    "duration": 0.27661862499999756
                },
                {
                    "name": "A#4",
                    "midi": 70,
                    "time": 102.7856575000001,
                    "velocity": 0.3700787401574803,
                    "duration": 0.27661862499999756
                },
                {
                    "name": "D#4",
                    "midi": 63,
                    "time": 102.7856575000001,
                    "velocity": 0.30708661417322836,
                    "duration": 0.27661862499999756
                },
                {
                    "name": "B4",
                    "midi": 71,
                    "time": 103.0768350000001,
                    "velocity": 0.3779527559055118,
                    "duration": 0.27661862499999756
                },
                {
                    "name": "D#4",
                    "midi": 63,
                    "time": 103.0768350000001,
                    "velocity": 0.3543307086614173,
                    "duration": 0.27661862499999756
                },
                {
                    "name": "D#4",
                    "midi": 63,
                    "time": 103.3680125000001,
                    "velocity": 0.30708661417322836,
                    "duration": 0.27661862499999756
                },
                {
                    "name": "B4",
                    "midi": 71,
                    "time": 103.3680125000001,
                    "velocity": 0.30708661417322836,
                    "duration": 0.27661862499999756
                },
                {
                    "name": "D#5",
                    "midi": 75,
                    "time": 103.3680125000001,
                    "velocity": 0.4015748031496063,
                    "duration": 0.27661862499999756
                },
                {
                    "name": "D5",
                    "midi": 74,
                    "time": 103.65919000000011,
                    "velocity": 0.3779527559055118,
                    "duration": 0.27661862499999756
                },
                {
                    "name": "B4",
                    "midi": 71,
                    "time": 103.65919000000011,
                    "velocity": 0.29133858267716534,
                    "duration": 0.27661862499999756
                },
                {
                    "name": "D4",
                    "midi": 62,
                    "time": 103.65919000000011,
                    "velocity": 0.29133858267716534,
                    "duration": 0.27661862499999756
                },
                {
                    "name": "B4",
                    "midi": 71,
                    "time": 103.95036750000011,
                    "velocity": 0.31496062992125984,
                    "duration": 0.27661862499999756
                },
                {
                    "name": "F4",
                    "midi": 65,
                    "time": 103.95036750000011,
                    "velocity": 0.31496062992125984,
                    "duration": 0.27661862499999756
                },
                {
                    "name": "F5",
                    "midi": 77,
                    "time": 103.95036750000011,
                    "velocity": 0.4094488188976378,
                    "duration": 0.27661862499999756
                },
                {
                    "name": "D#5",
                    "midi": 75,
                    "time": 104.24154500000012,
                    "velocity": 0.3858267716535433,
                    "duration": 0.27661862499999756
                },
                {
                    "name": "B4",
                    "midi": 71,
                    "time": 104.24154500000012,
                    "velocity": 0.2992125984251969,
                    "duration": 0.27661862499999756
                },
                {
                    "name": "D#4",
                    "midi": 63,
                    "time": 104.24154500000012,
                    "velocity": 0.2992125984251969,
                    "duration": 0.27661862499999756
                },
                {
                    "name": "B4",
                    "midi": 71,
                    "time": 104.53272250000012,
                    "velocity": 0.3937007874015748,
                    "duration": 0.27661862499999756
                },
                {
                    "name": "D#4",
                    "midi": 63,
                    "time": 104.53272250000012,
                    "velocity": 0.2992125984251969,
                    "duration": 0.27661862499999756
                },
                {
                    "name": "D#5",
                    "midi": 75,
                    "time": 104.82390000000012,
                    "velocity": 0.3700787401574803,
                    "duration": 3.494130000000041
                },
                {
                    "name": "D#4",
                    "midi": 63,
                    "time": 105.11507750000013,
                    "velocity": 0.18110236220472442,
                    "duration": 0.27661862499999756
                },
                {
                    "name": "A#4",
                    "midi": 70,
                    "time": 105.11507750000013,
                    "velocity": 0.2204724409448819,
                    "duration": 0.27661862499999756
                },
                {
                    "name": "D#4",
                    "midi": 63,
                    "time": 105.40625500000013,
                    "velocity": 0.1889763779527559,
                    "duration": 0.27661862499999756
                },
                {
                    "name": "A#4",
                    "midi": 70,
                    "time": 105.40625500000013,
                    "velocity": 0.2283464566929134,
                    "duration": 0.27661862499999756
                },
                {
                    "name": "D#4",
                    "midi": 63,
                    "time": 105.69743250000013,
                    "velocity": 0.1968503937007874,
                    "duration": 0.27661862499999756
                },
                {
                    "name": "A#4",
                    "midi": 70,
                    "time": 105.69743250000013,
                    "velocity": 0.23622047244094488,
                    "duration": 0.27661862499999756
                },
                {
                    "name": "D#4",
                    "midi": 63,
                    "time": 105.98861000000014,
                    "velocity": 0.2047244094488189,
                    "duration": 0.27661862499999756
                },
                {
                    "name": "A#4",
                    "midi": 70,
                    "time": 105.98861000000014,
                    "velocity": 0.2440944881889764,
                    "duration": 0.27661862499999756
                },
                {
                    "name": "D#4",
                    "midi": 63,
                    "time": 106.27978750000014,
                    "velocity": 0.2204724409448819,
                    "duration": 0.27661862499999756
                },
                {
                    "name": "A#4",
                    "midi": 70,
                    "time": 106.27978750000014,
                    "velocity": 0.25984251968503935,
                    "duration": 0.27661862499999756
                },
                {
                    "name": "D#4",
                    "midi": 63,
                    "time": 106.57096500000014,
                    "velocity": 0.2204724409448819,
                    "duration": 0.27661862499999756
                },
                {
                    "name": "A#4",
                    "midi": 70,
                    "time": 106.57096500000014,
                    "velocity": 0.2677165354330709,
                    "duration": 0.27661862499999756
                },
                {
                    "name": "D#4",
                    "midi": 63,
                    "time": 106.86214250000015,
                    "velocity": 0.2204724409448819,
                    "duration": 0.27661862499999756
                },
                {
                    "name": "A#4",
                    "midi": 70,
                    "time": 106.86214250000015,
                    "velocity": 0.2677165354330709,
                    "duration": 0.27661862499999756
                },
                {
                    "name": "D#4",
                    "midi": 63,
                    "time": 107.15332000000015,
                    "velocity": 0.2440944881889764,
                    "duration": 0.27661862499999756
                },
                {
                    "name": "A#4",
                    "midi": 70,
                    "time": 107.15332000000015,
                    "velocity": 0.29133858267716534,
                    "duration": 0.27661862499999756
                },
                {
                    "name": "D#4",
                    "midi": 63,
                    "time": 107.44449750000015,
                    "velocity": 0.25196850393700787,
                    "duration": 0.27661862499999756
                },
                {
                    "name": "A#4",
                    "midi": 70,
                    "time": 107.44449750000015,
                    "velocity": 0.30708661417322836,
                    "duration": 0.27661862499999756
                },
                {
                    "name": "D#4",
                    "midi": 63,
                    "time": 107.73567500000016,
                    "velocity": 0.2677165354330709,
                    "duration": 0.27661862499999756
                },
                {
                    "name": "A#4",
                    "midi": 70,
                    "time": 107.73567500000016,
                    "velocity": 0.30708661417322836,
                    "duration": 0.27661862499999756
                },
                {
                    "name": "D#4",
                    "midi": 63,
                    "time": 108.02685250000016,
                    "velocity": 0.2755905511811024,
                    "duration": 0.27661862499999756
                },
                {
                    "name": "A#4",
                    "midi": 70,
                    "time": 108.02685250000016,
                    "velocity": 0.33070866141732286,
                    "duration": 0.27661862499999756
                },
                {
                    "name": "D#4",
                    "midi": 63,
                    "time": 108.31803000000016,
                    "velocity": 0.2755905511811024,
                    "duration": 0.27661862499999756
                },
                {
                    "name": "A#4",
                    "midi": 70,
                    "time": 108.31803000000016,
                    "velocity": 0.33858267716535434,
                    "duration": 0.27661862499999756
                },
                {
                    "name": "D#4",
                    "midi": 63,
                    "time": 108.60920750000017,
                    "velocity": 0.2755905511811024,
                    "duration": 0.27661862499999756
                },
                {
                    "name": "A#4",
                    "midi": 70,
                    "time": 108.60920750000017,
                    "velocity": 0.33070866141732286,
                    "duration": 0.27661862499999756
                },
                {
                    "name": "D#4",
                    "midi": 63,
                    "time": 108.90038500000017,
                    "velocity": 0.2677165354330709,
                    "duration": 0.27661862499999756
                },
                {
                    "name": "A#4",
                    "midi": 70,
                    "time": 108.90038500000017,
                    "velocity": 0.3228346456692913,
                    "duration": 0.27661862499999756
                },
                {
                    "name": "D#4",
                    "midi": 63,
                    "time": 109.19156250000017,
                    "velocity": 0.25984251968503935,
                    "duration": 0.27661862499999756
                },
                {
                    "name": "A#4",
                    "midi": 70,
                    "time": 109.19156250000017,
                    "velocity": 0.30708661417322836,
                    "duration": 0.27661862499999756
                },
                {
                    "name": "D#4",
                    "midi": 63,
                    "time": 109.48274000000018,
                    "velocity": 0.25196850393700787,
                    "duration": 0.27661862499999756
                },
                {
                    "name": "A#4",
                    "midi": 70,
                    "time": 109.48274000000018,
                    "velocity": 0.30708661417322836,
                    "duration": 0.27661862499999756
                },
                {
                    "name": "D#4",
                    "midi": 63,
                    "time": 109.77391750000018,
                    "velocity": 0.23622047244094488,
                    "duration": 0.27661862499999756
                },
                {
                    "name": "A#4",
                    "midi": 70,
                    "time": 109.77391750000018,
                    "velocity": 0.28346456692913385,
                    "duration": 0.27661862499999756
                },
                {
                    "name": "D#4",
                    "midi": 63,
                    "time": 110.06509500000018,
                    "velocity": 0.2283464566929134,
                    "duration": 0.27661862499999756
                },
                {
                    "name": "A#4",
                    "midi": 70,
                    "time": 110.06509500000018,
                    "velocity": 0.2755905511811024,
                    "duration": 0.27661862499999756
                },
                {
                    "name": "D#4",
                    "midi": 63,
                    "time": 110.35627250000019,
                    "velocity": 0.2204724409448819,
                    "duration": 0.27661862499999756
                },
                {
                    "name": "A#4",
                    "midi": 70,
                    "time": 110.35627250000019,
                    "velocity": 0.2677165354330709,
                    "duration": 0.27661862499999756
                },
                {
                    "name": "D#4",
                    "midi": 63,
                    "time": 110.64745000000019,
                    "velocity": 0.2204724409448819,
                    "duration": 0.27661862499999756
                },
                {
                    "name": "A#4",
                    "midi": 70,
                    "time": 110.64745000000019,
                    "velocity": 0.25984251968503935,
                    "duration": 0.27661862499999756
                },
                {
                    "name": "D#4",
                    "midi": 63,
                    "time": 110.9386275000002,
                    "velocity": 0.2047244094488189,
                    "duration": 0.27661862499999756
                },
                {
                    "name": "A#4",
                    "midi": 70,
                    "time": 110.9386275000002,
                    "velocity": 0.25196850393700787,
                    "duration": 0.27661862499999756
                },
                {
                    "name": "D#4",
                    "midi": 63,
                    "time": 111.2298050000002,
                    "velocity": 0.1889763779527559,
                    "duration": 0.27661862499999756
                },
                {
                    "name": "A#4",
                    "midi": 70,
                    "time": 111.2298050000002,
                    "velocity": 0.2283464566929134,
                    "duration": 0.27661862499999756
                },
                {
                    "name": "D#4",
                    "midi": 63,
                    "time": 111.5209825000002,
                    "velocity": 0.18110236220472442,
                    "duration": 0.5823550000000068
                },
                {
                    "name": "A#4",
                    "midi": 70,
                    "time": 111.5209825000002,
                    "velocity": 0.2204724409448819,
                    "duration": 0.5823550000000068
                },
                {
                    "name": "A#4",
                    "midi": 70,
                    "time": 112.10333750000021,
                    "velocity": 0.30708661417322836,
                    "duration": 0.27661862499999756
                },
                {
                    "name": "D#4",
                    "midi": 63,
                    "time": 112.10333750000021,
                    "velocity": 0.2204724409448819,
                    "duration": 0.27661862499999756
                },
                {
                    "name": "C5",
                    "midi": 72,
                    "time": 112.39451500000021,
                    "velocity": 0.30708661417322836,
                    "duration": 0.27661862499999756
                },
                {
                    "name": "D#4",
                    "midi": 63,
                    "time": 112.39451500000021,
                    "velocity": 0.2283464566929134,
                    "duration": 0.27661862499999756
                },
                {
                    "name": "D#4",
                    "midi": 63,
                    "time": 112.68569250000021,
                    "velocity": 0.23622047244094488,
                    "duration": 0.27661862499999756
                },
                {
                    "name": "C#5",
                    "midi": 73,
                    "time": 112.68569250000021,
                    "velocity": 0.3228346456692913,
                    "duration": 0.27661862499999756
                },
                {
                    "name": "C#4",
                    "midi": 61,
                    "time": 112.97687000000022,
                    "velocity": 0.2204724409448819,
                    "duration": 0.27661862499999756
                },
                {
                    "name": "F4",
                    "midi": 65,
                    "time": 112.97687000000022,
                    "velocity": 0.30708661417322836,
                    "duration": 0.27661862499999756
                },
                {
                    "name": "C#4",
                    "midi": 61,
                    "time": 113.26804750000022,
                    "velocity": 0.2204724409448819,
                    "duration": 0.27661862499999756
                },
                {
                    "name": "G4",
                    "midi": 67,
                    "time": 113.26804750000022,
                    "velocity": 0.30708661417322836,
                    "duration": 0.27661862499999756
                },
                {
                    "name": "C4",
                    "midi": 60,
                    "time": 113.55922500000023,
                    "velocity": 0.14960629921259844,
                    "duration": 0.27661862499999756
                },
                {
                    "name": "A#4",
                    "midi": 70,
                    "time": 113.55922500000023,
                    "velocity": 0.33070866141732286,
                    "duration": 0.8735325000000103
                },
                {
                    "name": "C4",
                    "midi": 60,
                    "time": 113.85040250000023,
                    "velocity": 0.14960629921259844,
                    "duration": 0.27661862499999756
                },
                {
                    "name": "C4",
                    "midi": 60,
                    "time": 114.14158000000023,
                    "velocity": 0.14960629921259844,
                    "duration": 0.27661862499999756
                },
                {
                    "name": "C4",
                    "midi": 60,
                    "time": 114.43275750000024,
                    "velocity": 0.1732283464566929,
                    "duration": 0.27661862499999756
                },
                {
                    "name": "G#4",
                    "midi": 68,
                    "time": 114.43275750000024,
                    "velocity": 0.31496062992125984,
                    "duration": 0.8735325000000103
                },
                {
                    "name": "C4",
                    "midi": 60,
                    "time": 114.72393500000024,
                    "velocity": 0.14960629921259844,
                    "duration": 0.27661862499999756
                },
                {
                    "name": "C4",
                    "midi": 60,
                    "time": 115.01511250000024,
                    "velocity": 0.14960629921259844,
                    "duration": 0.27661862499999756
                },
                {
                    "name": "G#4",
                    "midi": 68,
                    "time": 115.59746750000025,
                    "velocity": 0.23622047244094488,
                    "duration": 0.27661862499999756
                },
                {
                    "name": "C#5",
                    "midi": 73,
                    "time": 115.59746750000025,
                    "velocity": 0.3228346456692913,
                    "duration": 0.27661862499999756
                },
                {
                    "name": "C#5",
                    "midi": 73,
                    "time": 115.88864500000025,
                    "velocity": 0.25984251968503935,
                    "duration": 0.27661862499999756
                },
                {
                    "name": "G5",
                    "midi": 79,
                    "time": 115.88864500000025,
                    "velocity": 0.3464566929133858,
                    "duration": 0.27661862499999756
                },
                {
                    "name": "G#4",
                    "midi": 68,
                    "time": 115.88864500000025,
                    "velocity": 0.25984251968503935,
                    "duration": 0.27661862499999756
                },
                {
                    "name": "G#4",
                    "midi": 68,
                    "time": 116.17982250000026,
                    "velocity": 0.2677165354330709,
                    "duration": 0.27661862499999756
                },
                {
                    "name": "C#5",
                    "midi": 73,
                    "time": 116.17982250000026,
                    "velocity": 0.2677165354330709,
                    "duration": 0.27661862499999756
                },
                {
                    "name": "A#5",
                    "midi": 82,
                    "time": 116.17982250000026,
                    "velocity": 0.3700787401574803,
                    "duration": 0.27661862499999756
                },
                {
                    "name": "G#5",
                    "midi": 80,
                    "time": 116.47100000000026,
                    "velocity": 0.33070866141732286,
                    "duration": 0.27661862499999756
                },
                {
                    "name": "C#5",
                    "midi": 73,
                    "time": 116.47100000000026,
                    "velocity": 0.2440944881889764,
                    "duration": 0.27661862499999756
                },
                {
                    "name": "G#4",
                    "midi": 68,
                    "time": 116.47100000000026,
                    "velocity": 0.2440944881889764,
                    "duration": 0.27661862499999756
                },
                {
                    "name": "G#4",
                    "midi": 68,
                    "time": 116.76217750000026,
                    "velocity": 0.2440944881889764,
                    "duration": 0.27661862499999756
                },
                {
                    "name": "C#5",
                    "midi": 73,
                    "time": 116.76217750000026,
                    "velocity": 0.2440944881889764,
                    "duration": 0.27661862499999756
                },
                {
                    "name": "F5",
                    "midi": 77,
                    "time": 116.76217750000026,
                    "velocity": 0.33070866141732286,
                    "duration": 0.27661862499999756
                },
                {
                    "name": "D#4",
                    "midi": 63,
                    "time": 117.05335500000027,
                    "velocity": 0.2440944881889764,
                    "duration": 0.27661862499999756
                },
                {
                    "name": "D#5",
                    "midi": 75,
                    "time": 117.05335500000027,
                    "velocity": 0.3858267716535433,
                    "duration": 0.8735325000000103
                },
                {
                    "name": "A#4",
                    "midi": 70,
                    "time": 117.05335500000027,
                    "velocity": 0.29133858267716534,
                    "duration": 0.27661862499999756
                },
                {
                    "name": "A#4",
                    "midi": 70,
                    "time": 117.34453250000027,
                    "velocity": 0.29133858267716534,
                    "duration": 0.27661862499999756
                },
                {
                    "name": "D#4",
                    "midi": 63,
                    "time": 117.34453250000027,
                    "velocity": 0.2440944881889764,
                    "duration": 0.27661862499999756
                },
                {
                    "name": "A#4",
                    "midi": 70,
                    "time": 117.63571000000027,
                    "velocity": 0.29133858267716534,
                    "duration": 0.27661862499999756
                },
                {
                    "name": "D#4",
                    "midi": 63,
                    "time": 117.63571000000027,
                    "velocity": 0.2440944881889764,
                    "duration": 0.27661862499999756
                },
                {
                    "name": "C#5",
                    "midi": 73,
                    "time": 117.92688750000028,
                    "velocity": 0.29133858267716534,
                    "duration": 0.27661862499999756
                },
                {
                    "name": "F4",
                    "midi": 65,
                    "time": 117.92688750000028,
                    "velocity": 0.2440944881889764,
                    "duration": 0.27661862499999756
                },
                {
                    "name": "F5",
                    "midi": 77,
                    "time": 117.92688750000028,
                    "velocity": 0.3779527559055118,
                    "duration": 0.8735325000000103
                },
                {
                    "name": "F4",
                    "midi": 65,
                    "time": 118.21806500000028,
                    "velocity": 0.2440944881889764,
                    "duration": 0.27661862499999756
                },
                {
                    "name": "C#5",
                    "midi": 73,
                    "time": 118.21806500000028,
                    "velocity": 0.29133858267716534,
                    "duration": 0.27661862499999756
                },
                {
                    "name": "F4",
                    "midi": 65,
                    "time": 118.50924250000028,
                    "velocity": 0.23622047244094488,
                    "duration": 0.27661862499999756
                },
                {
                    "name": "C#5",
                    "midi": 73,
                    "time": 118.50924250000028,
                    "velocity": 0.28346456692913385,
                    "duration": 0.27661862499999756
                },
                {
                    "name": "D#4",
                    "midi": 63,
                    "time": 119.09159750000029,
                    "velocity": 0.25984251968503935,
                    "duration": 0.27661862499999756
                },
                {
                    "name": "A#4",
                    "midi": 70,
                    "time": 119.09159750000029,
                    "velocity": 0.3228346456692913,
                    "duration": 0.27661862499999756
                },
                {
                    "name": "D#5",
                    "midi": 75,
                    "time": 119.3827750000003,
                    "velocity": 0.3464566929133858,
                    "duration": 0.27661862499999756
                },
                {
                    "name": "A#4",
                    "midi": 70,
                    "time": 119.3827750000003,
                    "velocity": 0.25984251968503935,
                    "duration": 0.27661862499999756
                },
                {
                    "name": "G5",
                    "midi": 79,
                    "time": 119.6739525000003,
                    "velocity": 0.3700787401574803,
                    "duration": 0.27661862499999756
                },
                {
                    "name": "A#4",
                    "midi": 70,
                    "time": 119.6739525000003,
                    "velocity": 0.2677165354330709,
                    "duration": 0.27661862499999756
                },
                {
                    "name": "F5",
                    "midi": 77,
                    "time": 119.9651300000003,
                    "velocity": 0.33070866141732286,
                    "duration": 0.27661862499999756
                },
                {
                    "name": "A#4",
                    "midi": 70,
                    "time": 119.9651300000003,
                    "velocity": 0.2440944881889764,
                    "duration": 0.27661862499999756
                },
                {
                    "name": "C#5",
                    "midi": 73,
                    "time": 120.2563075000003,
                    "velocity": 0.33070866141732286,
                    "duration": 0.27661862499999756
                },
                {
                    "name": "A#4",
                    "midi": 70,
                    "time": 120.2563075000003,
                    "velocity": 0.2440944881889764,
                    "duration": 0.27661862499999756
                },
                {
                    "name": "G#4",
                    "midi": 68,
                    "time": 120.54748500000031,
                    "velocity": 0.2677165354330709,
                    "duration": 0.27661862499999756
                },
                {
                    "name": "D#4",
                    "midi": 63,
                    "time": 120.54748500000031,
                    "velocity": 0.2204724409448819,
                    "duration": 0.27661862499999756
                },
                {
                    "name": "C5",
                    "midi": 72,
                    "time": 120.54748500000031,
                    "velocity": 0.3858267716535433,
                    "duration": 0.8735325000000103
                },
                {
                    "name": "D#4",
                    "midi": 63,
                    "time": 120.83866250000031,
                    "velocity": 0.2204724409448819,
                    "duration": 0.27661862499999756
                },
                {
                    "name": "G#4",
                    "midi": 68,
                    "time": 120.83866250000031,
                    "velocity": 0.2677165354330709,
                    "duration": 0.27661862499999756
                },
                {
                    "name": "D#4",
                    "midi": 63,
                    "time": 121.12984000000031,
                    "velocity": 0.2204724409448819,
                    "duration": 0.27661862499999756
                },
                {
                    "name": "G#4",
                    "midi": 68,
                    "time": 121.12984000000031,
                    "velocity": 0.2677165354330709,
                    "duration": 0.27661862499999756
                },
                {
                    "name": "C#4",
                    "midi": 61,
                    "time": 121.42101750000032,
                    "velocity": 0.2204724409448819,
                    "duration": 0.27661862499999756
                },
                {
                    "name": "C#5",
                    "midi": 73,
                    "time": 121.42101750000032,
                    "velocity": 0.3779527559055118,
                    "duration": 0.8735325000000103
                },
                {
                    "name": "G#4",
                    "midi": 68,
                    "time": 121.42101750000032,
                    "velocity": 0.2677165354330709,
                    "duration": 0.27661862499999756
                },
                {
                    "name": "G#4",
                    "midi": 68,
                    "time": 121.71219500000032,
                    "velocity": 0.2677165354330709,
                    "duration": 0.27661862499999756
                },
                {
                    "name": "C#4",
                    "midi": 61,
                    "time": 121.71219500000032,
                    "velocity": 0.2204724409448819,
                    "duration": 0.27661862499999756
                },
                {
                    "name": "G#4",
                    "midi": 68,
                    "time": 122.00337250000032,
                    "velocity": 0.25196850393700787,
                    "duration": 0.27661862499999756
                },
                {
                    "name": "C#4",
                    "midi": 61,
                    "time": 122.00337250000032,
                    "velocity": 0.2125984251968504,
                    "duration": 0.27661862499999756
                },
                {
                    "name": "C#4",
                    "midi": 61,
                    "time": 122.58572750000033,
                    "velocity": 0.2677165354330709,
                    "duration": 0.27661862499999756
                },
                {
                    "name": "C#4",
                    "midi": 61,
                    "time": 122.87690500000033,
                    "velocity": 0.2125984251968504,
                    "duration": 0.27661862499999756
                },
                {
                    "name": "A#4",
                    "midi": 70,
                    "time": 122.87690500000033,
                    "velocity": 0.3464566929133858,
                    "duration": 0.27661862499999756
                },
                {
                    "name": "C#5",
                    "midi": 73,
                    "time": 123.16808250000034,
                    "velocity": 0.3700787401574803,
                    "duration": 0.27661862499999756
                },
                {
                    "name": "C4",
                    "midi": 60,
                    "time": 123.16808250000034,
                    "velocity": 0.2047244094488189,
                    "duration": 0.27661862499999756
                },
                {
                    "name": "G#4",
                    "midi": 68,
                    "time": 123.16808250000034,
                    "velocity": 0.2440944881889764,
                    "duration": 0.27661862499999756
                },
                {
                    "name": "G#4",
                    "midi": 68,
                    "time": 123.45926000000034,
                    "velocity": 0.2440944881889764,
                    "duration": 0.27661862499999756
                },
                {
                    "name": "C4",
                    "midi": 60,
                    "time": 123.45926000000034,
                    "velocity": 0.2047244094488189,
                    "duration": 0.27661862499999756
                },
                {
                    "name": "C5",
                    "midi": 72,
                    "time": 123.45926000000034,
                    "velocity": 0.33070866141732286,
                    "duration": 0.27661862499999756
                },
                {
                    "name": "C4",
                    "midi": 60,
                    "time": 123.75043750000034,
                    "velocity": 0.18110236220472442,
                    "duration": 0.27661862499999756
                },
                {
                    "name": "G#4",
                    "midi": 68,
                    "time": 123.75043750000034,
                    "velocity": 0.30708661417322836,
                    "duration": 0.27661862499999756
                },
                {
                    "name": "F4",
                    "midi": 65,
                    "time": 123.75043750000034,
                    "velocity": 0.2204724409448819,
                    "duration": 0.27661862499999756
                },
                {
                    "name": "G4",
                    "midi": 67,
                    "time": 124.04161500000035,
                    "velocity": 0.25196850393700787,
                    "duration": 0.27661862499999756
                },
                {
                    "name": "A#3",
                    "midi": 58,
                    "time": 124.04161500000035,
                    "velocity": 0.2125984251968504,
                    "duration": 0.27661862499999756
                },
                {
                    "name": "A#4",
                    "midi": 70,
                    "time": 124.04161500000035,
                    "velocity": 0.3543307086614173,
                    "duration": 1.7470650000000205
                },
                {
                    "name": "A#3",
                    "midi": 58,
                    "time": 124.33279250000035,
                    "velocity": 0.2125984251968504,
                    "duration": 0.27661862499999756
                },
                {
                    "name": "G4",
                    "midi": 67,
                    "time": 124.33279250000035,
                    "velocity": 0.25196850393700787,
                    "duration": 0.27661862499999756
                },
                {
                    "name": "A#3",
                    "midi": 58,
                    "time": 124.62397000000036,
                    "velocity": 0.2047244094488189,
                    "duration": 0.27661862499999756
                },
                {
                    "name": "G4",
                    "midi": 67,
                    "time": 124.62397000000036,
                    "velocity": 0.23622047244094488,
                    "duration": 0.27661862499999756
                },
                {
                    "name": "A#3",
                    "midi": 58,
                    "time": 124.91514750000036,
                    "velocity": 0.2125984251968504,
                    "duration": 0.27661862499999756
                },
                {
                    "name": "G4",
                    "midi": 67,
                    "time": 124.91514750000036,
                    "velocity": 0.25196850393700787,
                    "duration": 0.27661862499999756
                },
                {
                    "name": "A#3",
                    "midi": 58,
                    "time": 125.20632500000036,
                    "velocity": 0.1968503937007874,
                    "duration": 0.27661862499999756
                },
                {
                    "name": "G4",
                    "midi": 67,
                    "time": 125.20632500000036,
                    "velocity": 0.23622047244094488,
                    "duration": 0.27661862499999756
                },
                {
                    "name": "A#3",
                    "midi": 58,
                    "time": 125.49750250000037,
                    "velocity": 0.1968503937007874,
                    "duration": 0.27661862499999756
                },
                {
                    "name": "G4",
                    "midi": 67,
                    "time": 125.49750250000037,
                    "velocity": 0.23622047244094488,
                    "duration": 0.27661862499999756
                },
                {
                    "name": "A#4",
                    "midi": 70,
                    "time": 126.07985750000037,
                    "velocity": 0.30708661417322836,
                    "duration": 0.27661862499999756
                },
                {
                    "name": "G4",
                    "midi": 67,
                    "time": 126.07985750000037,
                    "velocity": 0.2992125984251969,
                    "duration": 0.27661862499999756
                },
                {
                    "name": "C#4",
                    "midi": 61,
                    "time": 126.07985750000037,
                    "velocity": 0.2204724409448819,
                    "duration": 0.27661862499999756
                },
                {
                    "name": "C#4",
                    "midi": 61,
                    "time": 126.37103500000038,
                    "velocity": 0.23622047244094488,
                    "duration": 0.27661862499999756
                },
                {
                    "name": "G4",
                    "midi": 67,
                    "time": 126.37103500000038,
                    "velocity": 0.23622047244094488,
                    "duration": 0.27661862499999756
                },
                {
                    "name": "C5",
                    "midi": 72,
                    "time": 126.37103500000038,
                    "velocity": 0.3228346456692913,
                    "duration": 0.27661862499999756
                },
                {
                    "name": "C#5",
                    "midi": 73,
                    "time": 126.66221250000038,
                    "velocity": 0.33070866141732286,
                    "duration": 0.27661862499999756
                },
                {
                    "name": "G4",
                    "midi": 67,
                    "time": 126.66221250000038,
                    "velocity": 0.2440944881889764,
                    "duration": 0.27661862499999756
                },
                {
                    "name": "C#4",
                    "midi": 61,
                    "time": 126.66221250000038,
                    "velocity": 0.2440944881889764,
                    "duration": 0.27661862499999756
                },
                {
                    "name": "F4",
                    "midi": 65,
                    "time": 126.95339000000038,
                    "velocity": 0.31496062992125984,
                    "duration": 0.27661862499999756
                },
                {
                    "name": "C#4",
                    "midi": 61,
                    "time": 126.95339000000038,
                    "velocity": 0.2283464566929134,
                    "duration": 0.27661862499999756
                },
                {
                    "name": "G4",
                    "midi": 67,
                    "time": 127.24456750000039,
                    "velocity": 0.30708661417322836,
                    "duration": 0.27661862499999756
                },
                {
                    "name": "C#4",
                    "midi": 61,
                    "time": 127.24456750000039,
                    "velocity": 0.2204724409448819,
                    "duration": 0.27661862499999756
                },
                {
                    "name": "F#4",
                    "midi": 66,
                    "time": 127.53574500000039,
                    "velocity": 0.1889763779527559,
                    "duration": 0.27661862499999756
                },
                {
                    "name": "C#4",
                    "midi": 61,
                    "time": 127.53574500000039,
                    "velocity": 0.15748031496062992,
                    "duration": 0.27661862499999756
                },
                {
                    "name": "A#4",
                    "midi": 70,
                    "time": 127.53574500000039,
                    "velocity": 0.33070866141732286,
                    "duration": 0.8735325000000103
                },
                {
                    "name": "C#4",
                    "midi": 61,
                    "time": 127.82692250000039,
                    "velocity": 0.15748031496062992,
                    "duration": 0.27661862499999756
                },
                {
                    "name": "F#4",
                    "midi": 66,
                    "time": 127.82692250000039,
                    "velocity": 0.1889763779527559,
                    "duration": 0.27661862499999756
                },
                {
                    "name": "C#4",
                    "midi": 61,
                    "time": 128.1181000000004,
                    "velocity": 0.15748031496062992,
                    "duration": 0.27661862499999756
                },
                {
                    "name": "F#4",
                    "midi": 66,
                    "time": 128.1181000000004,
                    "velocity": 0.1889763779527559,
                    "duration": 0.27661862499999756
                },
                {
                    "name": "C4",
                    "midi": 60,
                    "time": 128.4092775000004,
                    "velocity": 0.18110236220472442,
                    "duration": 0.27661862499999756
                },
                {
                    "name": "G#4",
                    "midi": 68,
                    "time": 128.4092775000004,
                    "velocity": 0.33858267716535434,
                    "duration": 0.8735325000000103
                },
                {
                    "name": "F#4",
                    "midi": 66,
                    "time": 128.4092775000004,
                    "velocity": 0.2204724409448819,
                    "duration": 0.27661862499999756
                },
                {
                    "name": "F#4",
                    "midi": 66,
                    "time": 128.7004550000004,
                    "velocity": 0.1889763779527559,
                    "duration": 0.27661862499999756
                },
                {
                    "name": "C4",
                    "midi": 60,
                    "time": 128.7004550000004,
                    "velocity": 0.15748031496062992,
                    "duration": 0.27661862499999756
                },
                {
                    "name": "F#4",
                    "midi": 66,
                    "time": 128.9916325000004,
                    "velocity": 0.1889763779527559,
                    "duration": 0.27661862499999756
                },
                {
                    "name": "C4",
                    "midi": 60,
                    "time": 128.9916325000004,
                    "velocity": 0.15748031496062992,
                    "duration": 0.27661862499999756
                },
                {
                    "name": "C#5",
                    "midi": 73,
                    "time": 129.5739875000004,
                    "velocity": 0.33070866141732286,
                    "duration": 0.27661862499999756
                },
                {
                    "name": "G#4",
                    "midi": 68,
                    "time": 129.5739875000004,
                    "velocity": 0.2440944881889764,
                    "duration": 0.27661862499999756
                },
                {
                    "name": "G#4",
                    "midi": 68,
                    "time": 129.86516500000042,
                    "velocity": 0.2204724409448819,
                    "duration": 0.27661862499999756
                },
                {
                    "name": "C#5",
                    "midi": 73,
                    "time": 129.86516500000042,
                    "velocity": 0.25984251968503935,
                    "duration": 0.27661862499999756
                },
                {
                    "name": "G5",
                    "midi": 79,
                    "time": 129.86516500000042,
                    "velocity": 0.3543307086614173,
                    "duration": 0.27661862499999756
                },
                {
                    "name": "C#5",
                    "midi": 73,
                    "time": 130.15634250000042,
                    "velocity": 0.2677165354330709,
                    "duration": 0.27661862499999756
                },
                {
                    "name": "G#4",
                    "midi": 68,
                    "time": 130.15634250000042,
                    "velocity": 0.2204724409448819,
                    "duration": 0.27661862499999756
                },
                {
                    "name": "A#5",
                    "midi": 82,
                    "time": 130.15634250000042,
                    "velocity": 0.3700787401574803,
                    "duration": 0.27661862499999756
                },
                {
                    "name": "G#4",
                    "midi": 68,
                    "time": 130.44752000000042,
                    "velocity": 0.2125984251968504,
                    "duration": 0.27661862499999756
                },
                {
                    "name": "G#5",
                    "midi": 80,
                    "time": 130.44752000000042,
                    "velocity": 0.3543307086614173,
                    "duration": 0.27661862499999756
                },
                {
                    "name": "C#5",
                    "midi": 73,
                    "time": 130.44752000000042,
                    "velocity": 0.25196850393700787,
                    "duration": 0.27661862499999756
                },
                {
                    "name": "G#4",
                    "midi": 68,
                    "time": 130.73869750000043,
                    "velocity": 0.2125984251968504,
                    "duration": 0.27661862499999756
                },
                {
                    "name": "C#5",
                    "midi": 73,
                    "time": 130.73869750000043,
                    "velocity": 0.25196850393700787,
                    "duration": 0.27661862499999756
                },
                {
                    "name": "F5",
                    "midi": 77,
                    "time": 130.73869750000043,
                    "velocity": 0.3543307086614173,
                    "duration": 0.27661862499999756
                },
                {
                    "name": "D#4",
                    "midi": 63,
                    "time": 131.02987500000043,
                    "velocity": 0.23622047244094488,
                    "duration": 0.27661862499999756
                },
                {
                    "name": "D#5",
                    "midi": 75,
                    "time": 131.02987500000043,
                    "velocity": 0.4015748031496063,
                    "duration": 0.8735325000000103
                },
                {
                    "name": "A#4",
                    "midi": 70,
                    "time": 131.02987500000043,
                    "velocity": 0.29133858267716534,
                    "duration": 0.27661862499999756
                },
                {
                    "name": "A#4",
                    "midi": 70,
                    "time": 131.32105250000043,
                    "velocity": 0.29133858267716534,
                    "duration": 0.27661862499999756
                },
                {
                    "name": "D#4",
                    "midi": 63,
                    "time": 131.32105250000043,
                    "velocity": 0.23622047244094488,
                    "duration": 0.27661862499999756
                },
                {
                    "name": "A#4",
                    "midi": 70,
                    "time": 131.61223000000044,
                    "velocity": 0.29133858267716534,
                    "duration": 0.27661862499999756
                },
                {
                    "name": "D#4",
                    "midi": 63,
                    "time": 131.61223000000044,
                    "velocity": 0.23622047244094488,
                    "duration": 0.27661862499999756
                },
                {
                    "name": "C#5",
                    "midi": 73,
                    "time": 131.90340750000044,
                    "velocity": 0.29133858267716534,
                    "duration": 0.27661862499999756
                },
                {
                    "name": "F4",
                    "midi": 65,
                    "time": 131.90340750000044,
                    "velocity": 0.23622047244094488,
                    "duration": 0.27661862499999756
                },
                {
                    "name": "F5",
                    "midi": 77,
                    "time": 131.90340750000044,
                    "velocity": 0.3858267716535433,
                    "duration": 0.8735325000000103
                },
                {
                    "name": "F4",
                    "midi": 65,
                    "time": 132.19458500000044,
                    "velocity": 0.23622047244094488,
                    "duration": 0.27661862499999756
                },
                {
                    "name": "C#5",
                    "midi": 73,
                    "time": 132.19458500000044,
                    "velocity": 0.29133858267716534,
                    "duration": 0.27661862499999756
                },
                {
                    "name": "F4",
                    "midi": 65,
                    "time": 132.48576250000045,
                    "velocity": 0.2204724409448819,
                    "duration": 0.27661862499999756
                },
                {
                    "name": "C#5",
                    "midi": 73,
                    "time": 132.48576250000045,
                    "velocity": 0.2677165354330709,
                    "duration": 0.27661862499999756
                },
                {
                    "name": "D#4",
                    "midi": 63,
                    "time": 133.06811750000045,
                    "velocity": 0.2204724409448819,
                    "duration": 0.27661862499999756
                },
                {
                    "name": "A#4",
                    "midi": 70,
                    "time": 133.06811750000045,
                    "velocity": 0.33070866141732286,
                    "duration": 0.27661862499999756
                },
                {
                    "name": "D#4",
                    "midi": 63,
                    "time": 133.35929500000046,
                    "velocity": 0.2204724409448819,
                    "duration": 0.27661862499999756
                },
                {
                    "name": "D#5",
                    "midi": 75,
                    "time": 133.35929500000046,
                    "velocity": 0.3543307086614173,
                    "duration": 0.27661862499999756
                },
                {
                    "name": "A#4",
                    "midi": 70,
                    "time": 133.35929500000046,
                    "velocity": 0.25984251968503935,
                    "duration": 0.27661862499999756
                },
                {
                    "name": "G5",
                    "midi": 79,
                    "time": 133.65047250000046,
                    "velocity": 0.3779527559055118,
                    "duration": 0.27661862499999756
                },
                {
                    "name": "A#4",
                    "midi": 70,
                    "time": 133.65047250000046,
                    "velocity": 0.28346456692913385,
                    "duration": 0.27661862499999756
                },
                {
                    "name": "F5",
                    "midi": 77,
                    "time": 133.94165000000046,
                    "velocity": 0.3543307086614173,
                    "duration": 0.27661862499999756
                },
                {
                    "name": "A#4",
                    "midi": 70,
                    "time": 133.94165000000046,
                    "velocity": 0.25196850393700787,
                    "duration": 0.27661862499999756
                },
                {
                    "name": "C#5",
                    "midi": 73,
                    "time": 134.23282750000047,
                    "velocity": 0.3543307086614173,
                    "duration": 0.27661862499999756
                },
                {
                    "name": "A#4",
                    "midi": 70,
                    "time": 134.23282750000047,
                    "velocity": 0.25196850393700787,
                    "duration": 0.27661862499999756
                },
                {
                    "name": "G#4",
                    "midi": 68,
                    "time": 134.52400500000047,
                    "velocity": 0.25984251968503935,
                    "duration": 0.27661862499999756
                },
                {
                    "name": "D#4",
                    "midi": 63,
                    "time": 134.52400500000047,
                    "velocity": 0.2204724409448819,
                    "duration": 0.27661862499999756
                },
                {
                    "name": "C5",
                    "midi": 72,
                    "time": 134.52400500000047,
                    "velocity": 0.3700787401574803,
                    "duration": 0.8735325000000103
                },
                {
                    "name": "D#4",
                    "midi": 63,
                    "time": 134.81518250000047,
                    "velocity": 0.2204724409448819,
                    "duration": 0.27661862499999756
                },
                {
                    "name": "G#4",
                    "midi": 68,
                    "time": 134.81518250000047,
                    "velocity": 0.25984251968503935,
                    "duration": 0.27661862499999756
                },
                {
                    "name": "D#4",
                    "midi": 63,
                    "time": 135.10636000000048,
                    "velocity": 0.2204724409448819,
                    "duration": 0.27661862499999756
                },
                {
                    "name": "G#4",
                    "midi": 68,
                    "time": 135.10636000000048,
                    "velocity": 0.25984251968503935,
                    "duration": 0.27661862499999756
                },
                {
                    "name": "C#4",
                    "midi": 61,
                    "time": 135.39753750000048,
                    "velocity": 0.2204724409448819,
                    "duration": 0.27661862499999756
                },
                {
                    "name": "C#5",
                    "midi": 73,
                    "time": 135.39753750000048,
                    "velocity": 0.3700787401574803,
                    "duration": 0.8735325000000103
                },
                {
                    "name": "G#4",
                    "midi": 68,
                    "time": 135.39753750000048,
                    "velocity": 0.25984251968503935,
                    "duration": 0.27661862499999756
                },
                {
                    "name": "G#4",
                    "midi": 68,
                    "time": 135.68871500000049,
                    "velocity": 0.2440944881889764,
                    "duration": 0.27661862499999756
                },
                {
                    "name": "C#4",
                    "midi": 61,
                    "time": 135.68871500000049,
                    "velocity": 0.2047244094488189,
                    "duration": 0.27661862499999756
                },
                {
                    "name": "G#4",
                    "midi": 68,
                    "time": 135.9798925000005,
                    "velocity": 0.2125984251968504,
                    "duration": 0.27661862499999756
                },
                {
                    "name": "C#4",
                    "midi": 61,
                    "time": 135.9798925000005,
                    "velocity": 0.1732283464566929,
                    "duration": 0.27661862499999756
                },
                {
                    "name": "C#4",
                    "midi": 61,
                    "time": 136.5622475000005,
                    "velocity": 0.2992125984251969,
                    "duration": 0.27661862499999756
                },
                {
                    "name": "C#4",
                    "midi": 61,
                    "time": 136.8534250000005,
                    "velocity": 0.1968503937007874,
                    "duration": 0.27661862499999756
                },
                {
                    "name": "G#4",
                    "midi": 68,
                    "time": 136.8534250000005,
                    "velocity": 0.30708661417322836,
                    "duration": 0.27661862499999756
                },
                {
                    "name": "C#4",
                    "midi": 61,
                    "time": 137.1446025000005,
                    "velocity": 0.18110236220472442,
                    "duration": 0.27661862499999756
                },
                {
                    "name": "C5",
                    "midi": 72,
                    "time": 137.1446025000005,
                    "velocity": 0.30708661417322836,
                    "duration": 0.27661862499999756
                },
                {
                    "name": "C#4",
                    "midi": 61,
                    "time": 137.4357800000005,
                    "velocity": 0.18110236220472442,
                    "duration": 0.27661862499999756
                },
                {
                    "name": "A#4",
                    "midi": 70,
                    "time": 137.4357800000005,
                    "velocity": 0.30708661417322836,
                    "duration": 0.27661862499999756
                },
                {
                    "name": "G#4",
                    "midi": 68,
                    "time": 137.7269575000005,
                    "velocity": 0.2755905511811024,
                    "duration": 0.27661862499999756
                },
                {
                    "name": "C#4",
                    "midi": 61,
                    "time": 137.7269575000005,
                    "velocity": 0.15748031496062992,
                    "duration": 0.27661862499999756
                },
                {
                    "name": "C4",
                    "midi": 60,
                    "time": 138.0181350000005,
                    "velocity": 0.23622047244094488,
                    "duration": 0.27661862499999756
                },
                {
                    "name": "C5",
                    "midi": 72,
                    "time": 138.0181350000005,
                    "velocity": 0.36220472440944884,
                    "duration": 2.3294200000000274
                },
                {
                    "name": "C4",
                    "midi": 60,
                    "time": 138.30931250000052,
                    "velocity": 0.23622047244094488,
                    "duration": 0.27661862499999756
                },
                {
                    "name": "C4",
                    "midi": 60,
                    "time": 138.60049000000052,
                    "velocity": 0.23622047244094488,
                    "duration": 0.27661862499999756
                },
                {
                    "name": "C4",
                    "midi": 60,
                    "time": 138.89166750000052,
                    "velocity": 0.23622047244094488,
                    "duration": 0.27661862499999756
                },
                {
                    "name": "C4",
                    "midi": 60,
                    "time": 139.18284500000053,
                    "velocity": 0.2283464566929134,
                    "duration": 0.27661862499999756
                },
                {
                    "name": "C4",
                    "midi": 60,
                    "time": 139.47402250000053,
                    "velocity": 0.2283464566929134,
                    "duration": 0.27661862499999756
                },
                {
                    "name": "C#4",
                    "midi": 61,
                    "time": 139.76520000000053,
                    "velocity": 0.28346456692913385,
                    "duration": 0.27661862499999756
                },
                {
                    "name": "C#4",
                    "midi": 61,
                    "time": 140.05637750000054,
                    "velocity": 0.2992125984251969,
                    "duration": 0.27661862499999756
                },
                {
                    "name": "G#4",
                    "midi": 68,
                    "time": 140.34755500000054,
                    "velocity": 0.30708661417322836,
                    "duration": 0.27661862499999756
                },
                {
                    "name": "C#4",
                    "midi": 61,
                    "time": 140.34755500000054,
                    "velocity": 0.1968503937007874,
                    "duration": 0.27661862499999756
                },
                {
                    "name": "C5",
                    "midi": 72,
                    "time": 140.63873250000054,
                    "velocity": 0.30708661417322836,
                    "duration": 0.27661862499999756
                },
                {
                    "name": "C#4",
                    "midi": 61,
                    "time": 140.63873250000054,
                    "velocity": 0.18110236220472442,
                    "duration": 0.27661862499999756
                },
                {
                    "name": "A#4",
                    "midi": 70,
                    "time": 140.92991000000055,
                    "velocity": 0.30708661417322836,
                    "duration": 0.27661862499999756
                },
                {
                    "name": "C#4",
                    "midi": 61,
                    "time": 140.92991000000055,
                    "velocity": 0.18110236220472442,
                    "duration": 0.27661862499999756
                },
                {
                    "name": "C#4",
                    "midi": 61,
                    "time": 141.22108750000055,
                    "velocity": 0.15748031496062992,
                    "duration": 0.27661862499999756
                },
                {
                    "name": "G#4",
                    "midi": 68,
                    "time": 141.22108750000055,
                    "velocity": 0.2755905511811024,
                    "duration": 0.27661862499999756
                },
                {
                    "name": "C5",
                    "midi": 72,
                    "time": 141.51226500000055,
                    "velocity": 0.36220472440944884,
                    "duration": 1.1647100000000137
                },
                {
                    "name": "C4",
                    "midi": 60,
                    "time": 141.51226500000055,
                    "velocity": 0.23622047244094488,
                    "duration": 0.27661862499999756
                },
                {
                    "name": "C4",
                    "midi": 60,
                    "time": 141.80344250000056,
                    "velocity": 0.23622047244094488,
                    "duration": 0.27661862499999756
                },
                {
                    "name": "C4",
                    "midi": 60,
                    "time": 142.09462000000056,
                    "velocity": 0.23622047244094488,
                    "duration": 0.27661862499999756
                },
                {
                    "name": "C#4",
                    "midi": 61,
                    "time": 142.38579750000056,
                    "velocity": 0.1889763779527559,
                    "duration": 0.27661862499999756
                },
                {
                    "name": "C#4",
                    "midi": 61,
                    "time": 142.67697500000057,
                    "velocity": 0.18110236220472442,
                    "duration": 0.27661862499999756
                },
                {
                    "name": "A#4",
                    "midi": 70,
                    "time": 142.67697500000057,
                    "velocity": 0.30708661417322836,
                    "duration": 0.27661862499999756
                },
                {
                    "name": "G#4",
                    "midi": 68,
                    "time": 142.96815250000057,
                    "velocity": 0.2755905511811024,
                    "duration": 0.27661862499999756
                },
                {
                    "name": "C#4",
                    "midi": 61,
                    "time": 142.96815250000057,
                    "velocity": 0.15748031496062992,
                    "duration": 0.27661862499999756
                },
                {
                    "name": "C4",
                    "midi": 60,
                    "time": 143.25933000000057,
                    "velocity": 0.23622047244094488,
                    "duration": 0.27661862499999756
                },
                {
                    "name": "C5",
                    "midi": 72,
                    "time": 143.25933000000057,
                    "velocity": 0.36220472440944884,
                    "duration": 1.1647100000000137
                },
                {
                    "name": "C4",
                    "midi": 60,
                    "time": 143.55050750000058,
                    "velocity": 0.23622047244094488,
                    "duration": 0.27661862499999756
                },
                {
                    "name": "C4",
                    "midi": 60,
                    "time": 143.84168500000058,
                    "velocity": 0.23622047244094488,
                    "duration": 0.27661862499999756
                },
                {
                    "name": "C4",
                    "midi": 60,
                    "time": 144.13286250000058,
                    "velocity": 0.18110236220472442,
                    "duration": 0.27661862499999756
                },
                {
                    "name": "A#4",
                    "midi": 70,
                    "time": 144.4240400000006,
                    "velocity": 0.30708661417322836,
                    "duration": 0.27661862499999756
                },
                {
                    "name": "C4",
                    "midi": 60,
                    "time": 144.4240400000006,
                    "velocity": 0.18110236220472442,
                    "duration": 0.27661862499999756
                },
                {
                    "name": "C4",
                    "midi": 60,
                    "time": 144.7152175000006,
                    "velocity": 0.15748031496062992,
                    "duration": 0.27661862499999756
                },
                {
                    "name": "G#4",
                    "midi": 68,
                    "time": 144.7152175000006,
                    "velocity": 0.2755905511811024,
                    "duration": 0.27661862499999756
                },
                {
                    "name": "G#4",
                    "midi": 68,
                    "time": 145.0063950000006,
                    "velocity": 0.3543307086614173,
                    "duration": 1.7470650000000205
                },
                {
                    "name": "C4",
                    "midi": 60,
                    "time": 145.2975725000006,
                    "velocity": 0.23622047244094488,
                    "duration": 0.27661862499999756
                },
                {
                    "name": "C4",
                    "midi": 60,
                    "time": 145.5887500000006,
                    "velocity": 0.23622047244094488,
                    "duration": 0.27661862499999756
                },
                {
                    "name": "C4",
                    "midi": 60,
                    "time": 145.8799275000006,
                    "velocity": 0.18110236220472442,
                    "duration": 0.27661862499999756
                },
                {
                    "name": "A#3",
                    "midi": 58,
                    "time": 146.1711050000006,
                    "velocity": 0.18110236220472442,
                    "duration": 0.27661862499999756
                },
                {
                    "name": "F4",
                    "midi": 65,
                    "time": 146.4622825000006,
                    "velocity": 0.15748031496062992,
                    "duration": 0.27661862499999756
                },
                {
                    "name": "G#4",
                    "midi": 68,
                    "time": 146.75346000000062,
                    "velocity": 0.3543307086614173,
                    "duration": 1.7470650000000205
                },
                {
                    "name": "C4",
                    "midi": 60,
                    "time": 146.75346000000062,
                    "velocity": 0.23622047244094488,
                    "duration": 0.27661862499999756
                },
                {
                    "name": "C4",
                    "midi": 60,
                    "time": 147.04463750000062,
                    "velocity": 0.23622047244094488,
                    "duration": 0.27661862499999756
                },
                {
                    "name": "C4",
                    "midi": 60,
                    "time": 147.33581500000062,
                    "velocity": 0.23622047244094488,
                    "duration": 0.27661862499999756
                },
                {
                    "name": "C4",
                    "midi": 60,
                    "time": 147.62699250000063,
                    "velocity": 0.18110236220472442,
                    "duration": 0.27661862499999756
                },
                {
                    "name": "A#3",
                    "midi": 58,
                    "time": 147.91817000000063,
                    "velocity": 0.18110236220472442,
                    "duration": 0.27661862499999756
                },
                {
                    "name": "F4",
                    "midi": 65,
                    "time": 148.20934750000063,
                    "velocity": 0.15748031496062992,
                    "duration": 0.27661862499999756
                },
                {
                    "name": "C4",
                    "midi": 60,
                    "time": 148.50052500000064,
                    "velocity": 0.23622047244094488,
                    "duration": 0.5823550000000068
                },
                {
                    "name": "G#4",
                    "midi": 68,
                    "time": 148.50052500000064,
                    "velocity": 0.3543307086614173,
                    "duration": 0.5823550000000068
                },
                {
                    "name": "A#3",
                    "midi": 58,
                    "time": 149.08288000000064,
                    "velocity": 0.23622047244094488,
                    "duration": 0.27661862499999756
                },
                {
                    "name": "C4",
                    "midi": 60,
                    "time": 149.37405750000065,
                    "velocity": 0.18110236220472442,
                    "duration": 0.5823550000000068
                },
                {
                    "name": "G#4",
                    "midi": 68,
                    "time": 149.37405750000065,
                    "velocity": 0.3543307086614173,
                    "duration": 0.5823550000000068
                },
                {
                    "name": "A#3",
                    "midi": 58,
                    "time": 149.95641250000065,
                    "velocity": 0.15748031496062992,
                    "duration": 0.27661862499999756
                },
                {
                    "name": "C4",
                    "midi": 60,
                    "time": 150.24759000000066,
                    "velocity": 0.23622047244094488,
                    "duration": 0.5823550000000068
                },
                {
                    "name": "G#4",
                    "midi": 68,
                    "time": 150.24759000000066,
                    "velocity": 0.3543307086614173,
                    "duration": 0.5823550000000068
                },
                {
                    "name": "A#3",
                    "midi": 58,
                    "time": 150.82994500000066,
                    "velocity": 0.23622047244094488,
                    "duration": 0.27661862499999756
                },
                {
                    "name": "C4",
                    "midi": 60,
                    "time": 151.12112250000067,
                    "velocity": 0.18110236220472442,
                    "duration": 0.5823550000000068
                },
                {
                    "name": "G#4",
                    "midi": 68,
                    "time": 151.12112250000067,
                    "velocity": 0.3543307086614173,
                    "duration": 0.5823550000000068
                },
                {
                    "name": "A#3",
                    "midi": 58,
                    "time": 151.70347750000067,
                    "velocity": 0.15748031496062992,
                    "duration": 0.27661862499999756
                },
                {
                    "name": "C4",
                    "midi": 60,
                    "time": 152.28583250000068,
                    "velocity": 0.23622047244094488,
                    "duration": 0.27661862499999756
                },
                {
                    "name": "C4",
                    "midi": 60,
                    "time": 152.57701000000068,
                    "velocity": 0.23622047244094488,
                    "duration": 0.27661862499999756
                },
                {
                    "name": "C4",
                    "midi": 60,
                    "time": 152.8681875000007,
                    "velocity": 0.18110236220472442,
                    "duration": 0.27661862499999756
                },
                {
                    "name": "C4",
                    "midi": 60,
                    "time": 153.1593650000007,
                    "velocity": 0.18110236220472442,
                    "duration": 0.27661862499999756
                },
                {
                    "name": "C4",
                    "midi": 60,
                    "time": 153.4505425000007,
                    "velocity": 0.15748031496062992,
                    "duration": 0.27661862499999756
                },
                {
                    "name": "C4",
                    "midi": 60,
                    "time": 153.7417200000007,
                    "velocity": 0.18110236220472442,
                    "duration": 0.27661862499999756
                },
                {
                    "name": "C4",
                    "midi": 60,
                    "time": 154.0328975000007,
                    "velocity": 0.23622047244094488,
                    "duration": 0.27661862499999756
                },
                {
                    "name": "C4",
                    "midi": 60,
                    "time": 154.3240750000007,
                    "velocity": 0.23622047244094488,
                    "duration": 0.27661862499999756
                },
                {
                    "name": "C4",
                    "midi": 60,
                    "time": 154.6152525000007,
                    "velocity": 0.18110236220472442,
                    "duration": 0.21838312500000256
                },
                {
                    "name": "D#4",
                    "midi": 63,
                    "time": 154.8336356250007,
                    "velocity": 0.18110236220472442,
                    "duration": 0.07279437500000085
                },
                {
                    "name": "C#4",
                    "midi": 61,
                    "time": 154.9064300000007,
                    "velocity": 0.18110236220472442,
                    "duration": 0.27661862499999756
                },
                {
                    "name": "C4",
                    "midi": 60,
                    "time": 155.19760750000071,
                    "velocity": 0.15748031496062992,
                    "duration": 0.27661862499999756
                },
                {
                    "name": "C4",
                    "midi": 60,
                    "time": 155.48878500000072,
                    "velocity": 0.13385826771653545,
                    "duration": 1.747064999999992
                }
            ],
            "controlChanges": {
                "7": [
                    {
                        "number": 7,
                        "time": 0,
                        "value": 0.7874015748031497
                    }
                ],
                "10": [
                    {
                        "number": 10,
                        "time": 0,
                        "value": 0.5039370078740157
                    }
                ],
                "91": [
                    {
                        "number": 91,
                        "time": 0,
                        "value": 1
                    }
                ]
            },
            "id": 1,
            "name": "Piano right",
            "instrumentNumber": 0,
            "instrument": "acoustic grand piano",
            "instrumentFamily": "piano",
            "channelNumber": 0,
            "isPercussion": false
        },
        {
            "startTime": 0,
            "duration": 157.23585000000105,
            "length": 1463,
            "notes": [
                {
                    "name": "D#3",
                    "midi": 51,
                    "time": 0,
                    "velocity": 0.13385826771653545,
                    "duration": 0.27661862499999995
                },
                {
                    "name": "G#3",
                    "midi": 56,
                    "time": 0,
                    "velocity": 0.18110236220472442,
                    "duration": 0.27661862499999995
                },
                {
                    "name": "D#4",
                    "midi": 63,
                    "time": 0,
                    "velocity": 0.2204724409448819,
                    "duration": 0.27661862499999995
                },
                {
                    "name": "D#3",
                    "midi": 51,
                    "time": 0.2911775,
                    "velocity": 0.13385826771653545,
                    "duration": 0.2766186249999999
                },
                {
                    "name": "G#3",
                    "midi": 56,
                    "time": 0.2911775,
                    "velocity": 0.1889763779527559,
                    "duration": 0.2766186249999999
                },
                {
                    "name": "D#4",
                    "midi": 63,
                    "time": 0.2911775,
                    "velocity": 0.2283464566929134,
                    "duration": 0.2766186249999999
                },
                {
                    "name": "D#3",
                    "midi": 51,
                    "time": 0.5823549999999998,
                    "velocity": 0.14173228346456693,
                    "duration": 0.2766186249999999
                },
                {
                    "name": "G#3",
                    "midi": 56,
                    "time": 0.5823549999999998,
                    "velocity": 0.1968503937007874,
                    "duration": 0.2766186249999999
                },
                {
                    "name": "D#4",
                    "midi": 63,
                    "time": 0.5823549999999998,
                    "velocity": 0.23622047244094488,
                    "duration": 0.2766186249999999
                },
                {
                    "name": "D#3",
                    "midi": 51,
                    "time": 0.8735324999999997,
                    "velocity": 0.14173228346456693,
                    "duration": 0.2766186249999999
                },
                {
                    "name": "G#3",
                    "midi": 56,
                    "time": 0.8735324999999997,
                    "velocity": 0.1968503937007874,
                    "duration": 0.2766186249999999
                },
                {
                    "name": "D#4",
                    "midi": 63,
                    "time": 0.8735324999999997,
                    "velocity": 0.23622047244094488,
                    "duration": 0.2766186249999999
                },
                {
                    "name": "D#3",
                    "midi": 51,
                    "time": 1.1647099999999997,
                    "velocity": 0.15748031496062992,
                    "duration": 0.276618625
                },
                {
                    "name": "G#3",
                    "midi": 56,
                    "time": 1.1647099999999997,
                    "velocity": 0.2125984251968504,
                    "duration": 0.276618625
                },
                {
                    "name": "D#4",
                    "midi": 63,
                    "time": 1.1647099999999997,
                    "velocity": 0.25984251968503935,
                    "duration": 0.276618625
                },
                {
                    "name": "D#3",
                    "midi": 51,
                    "time": 1.4558874999999998,
                    "velocity": 0.16535433070866143,
                    "duration": 0.276618625
                },
                {
                    "name": "G#3",
                    "midi": 56,
                    "time": 1.4558874999999998,
                    "velocity": 0.2204724409448819,
                    "duration": 0.276618625
                },
                {
                    "name": "D#4",
                    "midi": 63,
                    "time": 1.4558874999999998,
                    "velocity": 0.2677165354330709,
                    "duration": 0.276618625
                },
                {
                    "name": "D#3",
                    "midi": 51,
                    "time": 1.7470649999999999,
                    "velocity": 0.1732283464566929,
                    "duration": 0.276618625
                },
                {
                    "name": "G#3",
                    "midi": 56,
                    "time": 1.7470649999999999,
                    "velocity": 0.2283464566929134,
                    "duration": 0.276618625
                },
                {
                    "name": "D#4",
                    "midi": 63,
                    "time": 1.7470649999999999,
                    "velocity": 0.2755905511811024,
                    "duration": 0.276618625
                },
                {
                    "name": "D#3",
                    "midi": 51,
                    "time": 2.0382425,
                    "velocity": 0.1732283464566929,
                    "duration": 0.2766186249999998
                },
                {
                    "name": "G#3",
                    "midi": 56,
                    "time": 2.0382425,
                    "velocity": 0.2440944881889764,
                    "duration": 0.2766186249999998
                },
                {
                    "name": "D#4",
                    "midi": 63,
                    "time": 2.0382425,
                    "velocity": 0.2992125984251969,
                    "duration": 0.2766186249999998
                },
                {
                    "name": "D#3",
                    "midi": 51,
                    "time": 2.32942,
                    "velocity": 0.1889763779527559,
                    "duration": 0.2766186249999998
                },
                {
                    "name": "G#3",
                    "midi": 56,
                    "time": 2.32942,
                    "velocity": 0.25984251968503935,
                    "duration": 0.2766186249999998
                },
                {
                    "name": "D#4",
                    "midi": 63,
                    "time": 2.32942,
                    "velocity": 0.30708661417322836,
                    "duration": 0.2766186249999998
                },
                {
                    "name": "D#3",
                    "midi": 51,
                    "time": 2.6205974999999997,
                    "velocity": 0.1889763779527559,
                    "duration": 0.2766186249999998
                },
                {
                    "name": "G#3",
                    "midi": 56,
                    "time": 2.6205974999999997,
                    "velocity": 0.25984251968503935,
                    "duration": 0.2766186249999998
                },
                {
                    "name": "D#4",
                    "midi": 63,
                    "time": 2.6205974999999997,
                    "velocity": 0.30708661417322836,
                    "duration": 0.2766186249999998
                },
                {
                    "name": "D#3",
                    "midi": 51,
                    "time": 2.9117749999999996,
                    "velocity": 0.1732283464566929,
                    "duration": 0.2766186249999998
                },
                {
                    "name": "G#3",
                    "midi": 56,
                    "time": 2.9117749999999996,
                    "velocity": 0.2440944881889764,
                    "duration": 0.2766186249999998
                },
                {
                    "name": "D#4",
                    "midi": 63,
                    "time": 2.9117749999999996,
                    "velocity": 0.29133858267716534,
                    "duration": 0.2766186249999998
                },
                {
                    "name": "D#3",
                    "midi": 51,
                    "time": 3.2029524999999994,
                    "velocity": 0.16535433070866143,
                    "duration": 0.2766186249999998
                },
                {
                    "name": "G#3",
                    "midi": 56,
                    "time": 3.2029524999999994,
                    "velocity": 0.2204724409448819,
                    "duration": 0.2766186249999998
                },
                {
                    "name": "D#4",
                    "midi": 63,
                    "time": 3.2029524999999994,
                    "velocity": 0.2677165354330709,
                    "duration": 0.2766186249999998
                },
                {
                    "name": "D#2",
                    "midi": 39,
                    "time": 3.4941299999999993,
                    "velocity": 0.36220472440944884,
                    "duration": 0.27661862500000023
                },
                {
                    "name": "D#3",
                    "midi": 51,
                    "time": 3.7853074999999996,
                    "velocity": 0.1889763779527559,
                    "duration": 0.2766186249999998
                },
                {
                    "name": "A#3",
                    "midi": 58,
                    "time": 3.7853074999999996,
                    "velocity": 0.25196850393700787,
                    "duration": 0.2766186249999998
                },
                {
                    "name": "D#4",
                    "midi": 63,
                    "time": 3.7853074999999996,
                    "velocity": 0.25196850393700787,
                    "duration": 0.2766186249999998
                },
                {
                    "name": "D#3",
                    "midi": 51,
                    "time": 4.076484999999999,
                    "velocity": 0.1968503937007874,
                    "duration": 0.27661862500000023
                },
                {
                    "name": "A#3",
                    "midi": 58,
                    "time": 4.076484999999999,
                    "velocity": 0.2677165354330709,
                    "duration": 0.27661862500000023
                },
                {
                    "name": "D#4",
                    "midi": 63,
                    "time": 4.076484999999999,
                    "velocity": 0.2677165354330709,
                    "duration": 0.27661862500000023
                },
                {
                    "name": "D#3",
                    "midi": 51,
                    "time": 4.367662499999999,
                    "velocity": 0.2125984251968504,
                    "duration": 0.27661862500000023
                },
                {
                    "name": "A#3",
                    "midi": 58,
                    "time": 4.367662499999999,
                    "velocity": 0.28346456692913385,
                    "duration": 0.27661862500000023
                },
                {
                    "name": "D#4",
                    "midi": 63,
                    "time": 4.367662499999999,
                    "velocity": 0.28346456692913385,
                    "duration": 0.27661862500000023
                },
                {
                    "name": "D#3",
                    "midi": 51,
                    "time": 4.658839999999999,
                    "velocity": 0.1968503937007874,
                    "duration": 0.27661862500000023
                },
                {
                    "name": "A#3",
                    "midi": 58,
                    "time": 4.658839999999999,
                    "velocity": 0.2677165354330709,
                    "duration": 0.27661862500000023
                },
                {
                    "name": "D#4",
                    "midi": 63,
                    "time": 4.658839999999999,
                    "velocity": 0.2677165354330709,
                    "duration": 0.27661862500000023
                },
                {
                    "name": "D#3",
                    "midi": 51,
                    "time": 4.950017499999999,
                    "velocity": 0.1968503937007874,
                    "duration": 0.27661862500000023
                },
                {
                    "name": "A#3",
                    "midi": 58,
                    "time": 4.950017499999999,
                    "velocity": 0.2677165354330709,
                    "duration": 0.27661862500000023
                },
                {
                    "name": "D#4",
                    "midi": 63,
                    "time": 4.950017499999999,
                    "velocity": 0.2677165354330709,
                    "duration": 0.27661862500000023
                },
                {
                    "name": "G#2",
                    "midi": 44,
                    "time": 5.2411949999999985,
                    "velocity": 0.3700787401574803,
                    "duration": 0.27661862500000023
                },
                {
                    "name": "G#3",
                    "midi": 56,
                    "time": 5.532372499999998,
                    "velocity": 0.1732283464566929,
                    "duration": 0.27661862500000023
                },
                {
                    "name": "D#4",
                    "midi": 63,
                    "time": 5.532372499999998,
                    "velocity": 0.23622047244094488,
                    "duration": 0.27661862500000023
                },
                {
                    "name": "G#3",
                    "midi": 56,
                    "time": 5.823549999999998,
                    "velocity": 0.16535433070866143,
                    "duration": 0.27661862500000023
                },
                {
                    "name": "D#4",
                    "midi": 63,
                    "time": 5.823549999999998,
                    "velocity": 0.2283464566929134,
                    "duration": 0.27661862500000023
                },
                {
                    "name": "G#3",
                    "midi": 56,
                    "time": 6.114727499999998,
                    "velocity": 0.1968503937007874,
                    "duration": 0.27661862500000023
                },
                {
                    "name": "D#4",
                    "midi": 63,
                    "time": 6.114727499999998,
                    "velocity": 0.2677165354330709,
                    "duration": 0.27661862500000023
                },
                {
                    "name": "G#3",
                    "midi": 56,
                    "time": 6.405904999999998,
                    "velocity": 0.1732283464566929,
                    "duration": 0.27661862500000023
                },
                {
                    "name": "D#4",
                    "midi": 63,
                    "time": 6.405904999999998,
                    "velocity": 0.23622047244094488,
                    "duration": 0.27661862500000023
                },
                {
                    "name": "G#3",
                    "midi": 56,
                    "time": 6.697082499999998,
                    "velocity": 0.1732283464566929,
                    "duration": 0.27661862500000023
                },
                {
                    "name": "D#4",
                    "midi": 63,
                    "time": 6.697082499999998,
                    "velocity": 0.23622047244094488,
                    "duration": 0.27661862500000023
                },
                {
                    "name": "C#3",
                    "midi": 49,
                    "time": 6.988259999999998,
                    "velocity": 0.3700787401574803,
                    "duration": 0.27661862500000023
                },
                {
                    "name": "G#3",
                    "midi": 56,
                    "time": 7.279437499999998,
                    "velocity": 0.16535433070866143,
                    "duration": 0.27661862500000023
                },
                {
                    "name": "C#4",
                    "midi": 61,
                    "time": 7.279437499999998,
                    "velocity": 0.2204724409448819,
                    "duration": 0.27661862500000023
                },
                {
                    "name": "F4",
                    "midi": 65,
                    "time": 7.279437499999998,
                    "velocity": 0.2677165354330709,
                    "duration": 0.27661862500000023
                },
                {
                    "name": "G#3",
                    "midi": 56,
                    "time": 7.570614999999997,
                    "velocity": 0.16535433070866143,
                    "duration": 0.27661862500000023
                },
                {
                    "name": "C#4",
                    "midi": 61,
                    "time": 7.570614999999997,
                    "velocity": 0.2204724409448819,
                    "duration": 0.27661862500000023
                },
                {
                    "name": "F4",
                    "midi": 65,
                    "time": 7.570614999999997,
                    "velocity": 0.2677165354330709,
                    "duration": 0.27661862500000023
                },
                {
                    "name": "G#3",
                    "midi": 56,
                    "time": 7.861792499999997,
                    "velocity": 0.1732283464566929,
                    "duration": 0.27661862500000023
                },
                {
                    "name": "C#4",
                    "midi": 61,
                    "time": 7.861792499999997,
                    "velocity": 0.23622047244094488,
                    "duration": 0.27661862500000023
                },
                {
                    "name": "F4",
                    "midi": 65,
                    "time": 7.861792499999997,
                    "velocity": 0.28346456692913385,
                    "duration": 0.27661862500000023
                },
                {
                    "name": "G#3",
                    "midi": 56,
                    "time": 8.152969999999998,
                    "velocity": 0.16535433070866143,
                    "duration": 0.27661862499999934
                },
                {
                    "name": "C#4",
                    "midi": 61,
                    "time": 8.152969999999998,
                    "velocity": 0.2204724409448819,
                    "duration": 0.27661862499999934
                },
                {
                    "name": "F4",
                    "midi": 65,
                    "time": 8.152969999999998,
                    "velocity": 0.2677165354330709,
                    "duration": 0.27661862499999934
                },
                {
                    "name": "G#3",
                    "midi": 56,
                    "time": 8.444147499999998,
                    "velocity": 0.16535433070866143,
                    "duration": 0.27661862499999934
                },
                {
                    "name": "C#4",
                    "midi": 61,
                    "time": 8.444147499999998,
                    "velocity": 0.2204724409448819,
                    "duration": 0.27661862499999934
                },
                {
                    "name": "F4",
                    "midi": 65,
                    "time": 8.444147499999998,
                    "velocity": 0.2677165354330709,
                    "duration": 0.27661862499999934
                },
                {
                    "name": "D#3",
                    "midi": 51,
                    "time": 8.735324999999998,
                    "velocity": 0.3700787401574803,
                    "duration": 0.2766186250000011
                },
                {
                    "name": "A#3",
                    "midi": 58,
                    "time": 9.0265025,
                    "velocity": 0.14173228346456693,
                    "duration": 0.27661862499999934
                },
                {
                    "name": "C#4",
                    "midi": 61,
                    "time": 9.0265025,
                    "velocity": 0.1889763779527559,
                    "duration": 0.27661862499999934
                },
                {
                    "name": "G4",
                    "midi": 67,
                    "time": 9.0265025,
                    "velocity": 0.2283464566929134,
                    "duration": 0.27661862499999934
                },
                {
                    "name": "A#3",
                    "midi": 58,
                    "time": 9.31768,
                    "velocity": 0.14173228346456693,
                    "duration": 0.27661862499999934
                },
                {
                    "name": "C#4",
                    "midi": 61,
                    "time": 9.31768,
                    "velocity": 0.1968503937007874,
                    "duration": 0.27661862499999934
                },
                {
                    "name": "G4",
                    "midi": 67,
                    "time": 9.31768,
                    "velocity": 0.23622047244094488,
                    "duration": 0.27661862499999934
                },
                {
                    "name": "C#3",
                    "midi": 49,
                    "time": 9.6088575,
                    "velocity": 0.3700787401574803,
                    "duration": 0.27661862499999934
                },
                {
                    "name": "G#3",
                    "midi": 56,
                    "time": 9.900034999999999,
                    "velocity": 0.12598425196850394,
                    "duration": 0.27661862499999934
                },
                {
                    "name": "C#4",
                    "midi": 61,
                    "time": 9.900034999999999,
                    "velocity": 0.1732283464566929,
                    "duration": 0.27661862499999934
                },
                {
                    "name": "G#4",
                    "midi": 68,
                    "time": 9.900034999999999,
                    "velocity": 0.2125984251968504,
                    "duration": 0.27661862499999934
                },
                {
                    "name": "G#3",
                    "midi": 56,
                    "time": 10.191212499999999,
                    "velocity": 0.12598425196850394,
                    "duration": 0.27661862499999934
                },
                {
                    "name": "C#4",
                    "midi": 61,
                    "time": 10.191212499999999,
                    "velocity": 0.1732283464566929,
                    "duration": 0.27661862499999934
                },
                {
                    "name": "G#4",
                    "midi": 68,
                    "time": 10.191212499999999,
                    "velocity": 0.2125984251968504,
                    "duration": 0.27661862499999934
                },
                {
                    "name": "D#3",
                    "midi": 51,
                    "time": 10.482389999999999,
                    "velocity": 0.3700787401574803,
                    "duration": 0.2766186250000011
                },
                {
                    "name": "A#3",
                    "midi": 58,
                    "time": 10.7735675,
                    "velocity": 0.16535433070866143,
                    "duration": 0.27661862499999934
                },
                {
                    "name": "C#4",
                    "midi": 61,
                    "time": 10.7735675,
                    "velocity": 0.2204724409448819,
                    "duration": 0.27661862499999934
                },
                {
                    "name": "G4",
                    "midi": 67,
                    "time": 10.7735675,
                    "velocity": 0.2677165354330709,
                    "duration": 0.27661862499999934
                },
                {
                    "name": "A#3",
                    "midi": 58,
                    "time": 11.064745,
                    "velocity": 0.16535433070866143,
                    "duration": 0.27661862499999934
                },
                {
                    "name": "C#4",
                    "midi": 61,
                    "time": 11.064745,
                    "velocity": 0.2204724409448819,
                    "duration": 0.27661862499999934
                },
                {
                    "name": "G4",
                    "midi": 67,
                    "time": 11.064745,
                    "velocity": 0.2677165354330709,
                    "duration": 0.27661862499999934
                },
                {
                    "name": "A#3",
                    "midi": 58,
                    "time": 11.3559225,
                    "velocity": 0.1732283464566929,
                    "duration": 0.27661862499999934
                },
                {
                    "name": "C#4",
                    "midi": 61,
                    "time": 11.3559225,
                    "velocity": 0.23622047244094488,
                    "duration": 0.27661862499999934
                },
                {
                    "name": "G4",
                    "midi": 67,
                    "time": 11.3559225,
                    "velocity": 0.28346456692913385,
                    "duration": 0.27661862499999934
                },
                {
                    "name": "A#3",
                    "midi": 58,
                    "time": 11.6471,
                    "velocity": 0.16535433070866143,
                    "duration": 0.27661862499999934
                },
                {
                    "name": "C#4",
                    "midi": 61,
                    "time": 11.6471,
                    "velocity": 0.2204724409448819,
                    "duration": 0.27661862499999934
                },
                {
                    "name": "G4",
                    "midi": 67,
                    "time": 11.6471,
                    "velocity": 0.2677165354330709,
                    "duration": 0.27661862499999934
                },
                {
                    "name": "A#3",
                    "midi": 58,
                    "time": 11.9382775,
                    "velocity": 0.16535433070866143,
                    "duration": 0.27661862499999934
                },
                {
                    "name": "C#4",
                    "midi": 61,
                    "time": 11.9382775,
                    "velocity": 0.2204724409448819,
                    "duration": 0.27661862499999934
                },
                {
                    "name": "G4",
                    "midi": 67,
                    "time": 11.9382775,
                    "velocity": 0.2677165354330709,
                    "duration": 0.27661862499999934
                },
                {
                    "name": "F3",
                    "midi": 53,
                    "time": 12.229455,
                    "velocity": 0.3700787401574803,
                    "duration": 0.8735324999999996
                },
                {
                    "name": "C4",
                    "midi": 60,
                    "time": 12.5206325,
                    "velocity": 0.16535433070866143,
                    "duration": 0.27661862499999934
                },
                {
                    "name": "F4",
                    "midi": 65,
                    "time": 12.5206325,
                    "velocity": 0.2283464566929134,
                    "duration": 0.27661862499999934
                },
                {
                    "name": "C4",
                    "midi": 60,
                    "time": 12.81181,
                    "velocity": 0.1732283464566929,
                    "duration": 0.27661862499999934
                },
                {
                    "name": "F4",
                    "midi": 65,
                    "time": 12.81181,
                    "velocity": 0.23622047244094488,
                    "duration": 0.27661862499999934
                },
                {
                    "name": "A#2",
                    "midi": 46,
                    "time": 13.1029875,
                    "velocity": 0.30708661417322836,
                    "duration": 0.27661862499999934
                },
                {
                    "name": "F3",
                    "midi": 53,
                    "time": 13.394165,
                    "velocity": 0.10236220472440945,
                    "duration": 0.27661862499999934
                },
                {
                    "name": "A#3",
                    "midi": 58,
                    "time": 13.394165,
                    "velocity": 0.11811023622047244,
                    "duration": 0.27661862499999934
                },
                {
                    "name": "F4",
                    "midi": 65,
                    "time": 13.394165,
                    "velocity": 0.14173228346456693,
                    "duration": 0.27661862499999934
                },
                {
                    "name": "F3",
                    "midi": 53,
                    "time": 13.685342499999999,
                    "velocity": 0.10236220472440945,
                    "duration": 0.27661862499999934
                },
                {
                    "name": "A#3",
                    "midi": 58,
                    "time": 13.685342499999999,
                    "velocity": 0.11811023622047244,
                    "duration": 0.27661862499999934
                },
                {
                    "name": "F4",
                    "midi": 65,
                    "time": 13.685342499999999,
                    "velocity": 0.14173228346456693,
                    "duration": 0.27661862499999934
                },
                {
                    "name": "D#3",
                    "midi": 51,
                    "time": 13.976519999999999,
                    "velocity": 0.30708661417322836,
                    "duration": 0.8735324999999996
                },
                {
                    "name": "A#3",
                    "midi": 58,
                    "time": 14.267697499999999,
                    "velocity": 0.16535433070866143,
                    "duration": 0.27661862499999934
                },
                {
                    "name": "F4",
                    "midi": 65,
                    "time": 14.267697499999999,
                    "velocity": 0.2204724409448819,
                    "duration": 0.27661862499999934
                },
                {
                    "name": "A#3",
                    "midi": 58,
                    "time": 14.558874999999999,
                    "velocity": 0.16535433070866143,
                    "duration": 0.27661862499999934
                },
                {
                    "name": "D#4",
                    "midi": 63,
                    "time": 14.558874999999999,
                    "velocity": 0.2204724409448819,
                    "duration": 0.27661862499999934
                },
                {
                    "name": "G#2",
                    "midi": 44,
                    "time": 14.850052499999999,
                    "velocity": 0.30708661417322836,
                    "duration": 0.27661862499999934
                },
                {
                    "name": "D#3",
                    "midi": 51,
                    "time": 15.141229999999998,
                    "velocity": 0.13385826771653545,
                    "duration": 0.27661862499999934
                },
                {
                    "name": "G#3",
                    "midi": 56,
                    "time": 15.141229999999998,
                    "velocity": 0.18110236220472442,
                    "duration": 0.27661862499999934
                },
                {
                    "name": "D#4",
                    "midi": 63,
                    "time": 15.141229999999998,
                    "velocity": 0.2204724409448819,
                    "duration": 0.27661862499999934
                },
                {
                    "name": "D#3",
                    "midi": 51,
                    "time": 15.432407499999998,
                    "velocity": 0.11811023622047244,
                    "duration": 0.27661862499999934
                },
                {
                    "name": "G#3",
                    "midi": 56,
                    "time": 15.432407499999998,
                    "velocity": 0.16535433070866143,
                    "duration": 0.27661862499999934
                },
                {
                    "name": "D#4",
                    "midi": 63,
                    "time": 15.432407499999998,
                    "velocity": 0.1968503937007874,
                    "duration": 0.27661862499999934
                },
                {
                    "name": "D#2",
                    "midi": 39,
                    "time": 15.723584999999998,
                    "velocity": 0.30708661417322836,
                    "duration": 0.27661862499999934
                },
                {
                    "name": "D#3",
                    "midi": 51,
                    "time": 16.014762499999996,
                    "velocity": 0.14173228346456693,
                    "duration": 0.2766186250000011
                },
                {
                    "name": "D#4",
                    "midi": 63,
                    "time": 16.014762499999996,
                    "velocity": 0.1968503937007874,
                    "duration": 0.2766186250000011
                },
                {
                    "name": "D#3",
                    "midi": 51,
                    "time": 16.305939999999996,
                    "velocity": 0.13385826771653545,
                    "duration": 0.2766186250000011
                },
                {
                    "name": "D#4",
                    "midi": 63,
                    "time": 16.305939999999996,
                    "velocity": 0.18110236220472442,
                    "duration": 0.2766186250000011
                },
                {
                    "name": "D#3",
                    "midi": 51,
                    "time": 16.597117499999996,
                    "velocity": 0.14173228346456693,
                    "duration": 0.2766186250000011
                },
                {
                    "name": "D#4",
                    "midi": 63,
                    "time": 16.597117499999996,
                    "velocity": 0.1968503937007874,
                    "duration": 0.2766186250000011
                },
                {
                    "name": "D#3",
                    "midi": 51,
                    "time": 16.888294999999996,
                    "velocity": 0.13385826771653545,
                    "duration": 0.2766186250000011
                },
                {
                    "name": "D#4",
                    "midi": 63,
                    "time": 16.888294999999996,
                    "velocity": 0.18110236220472442,
                    "duration": 0.2766186250000011
                },
                {
                    "name": "D#3",
                    "midi": 51,
                    "time": 17.179472499999996,
                    "velocity": 0.13385826771653545,
                    "duration": 0.2766186250000011
                },
                {
                    "name": "D#4",
                    "midi": 63,
                    "time": 17.179472499999996,
                    "velocity": 0.18110236220472442,
                    "duration": 0.2766186250000011
                },
                {
                    "name": "D#2",
                    "midi": 39,
                    "time": 17.470649999999996,
                    "velocity": 0.5433070866141733,
                    "duration": 0.2766186250000011
                },
                {
                    "name": "D#3",
                    "midi": 51,
                    "time": 17.761827499999995,
                    "velocity": 0.2204724409448819,
                    "duration": 0.2766186250000011
                },
                {
                    "name": "A#3",
                    "midi": 58,
                    "time": 17.761827499999995,
                    "velocity": 0.30708661417322836,
                    "duration": 0.2766186250000011
                },
                {
                    "name": "D#4",
                    "midi": 63,
                    "time": 17.761827499999995,
                    "velocity": 0.30708661417322836,
                    "duration": 0.2766186250000011
                },
                {
                    "name": "D#3",
                    "midi": 51,
                    "time": 18.053004999999995,
                    "velocity": 0.23622047244094488,
                    "duration": 0.2766186250000011
                },
                {
                    "name": "A#3",
                    "midi": 58,
                    "time": 18.053004999999995,
                    "velocity": 0.33070866141732286,
                    "duration": 0.2766186250000011
                },
                {
                    "name": "D#4",
                    "midi": 63,
                    "time": 18.053004999999995,
                    "velocity": 0.33070866141732286,
                    "duration": 0.2766186250000011
                },
                {
                    "name": "D#3",
                    "midi": 51,
                    "time": 18.344182499999995,
                    "velocity": 0.25196850393700787,
                    "duration": 0.2766186250000011
                },
                {
                    "name": "A#3",
                    "midi": 58,
                    "time": 18.344182499999995,
                    "velocity": 0.3464566929133858,
                    "duration": 0.2766186250000011
                },
                {
                    "name": "D#4",
                    "midi": 63,
                    "time": 18.344182499999995,
                    "velocity": 0.3464566929133858,
                    "duration": 0.2766186250000011
                },
                {
                    "name": "D#3",
                    "midi": 51,
                    "time": 18.635359999999995,
                    "velocity": 0.23622047244094488,
                    "duration": 0.2766186250000011
                },
                {
                    "name": "A#3",
                    "midi": 58,
                    "time": 18.635359999999995,
                    "velocity": 0.33070866141732286,
                    "duration": 0.2766186250000011
                },
                {
                    "name": "D#4",
                    "midi": 63,
                    "time": 18.635359999999995,
                    "velocity": 0.33070866141732286,
                    "duration": 0.2766186250000011
                },
                {
                    "name": "D#3",
                    "midi": 51,
                    "time": 18.926537499999995,
                    "velocity": 0.23622047244094488,
                    "duration": 0.2766186250000011
                },
                {
                    "name": "A#3",
                    "midi": 58,
                    "time": 18.926537499999995,
                    "velocity": 0.33070866141732286,
                    "duration": 0.2766186250000011
                },
                {
                    "name": "D#4",
                    "midi": 63,
                    "time": 18.926537499999995,
                    "velocity": 0.33070866141732286,
                    "duration": 0.2766186250000011
                },
                {
                    "name": "G#2",
                    "midi": 44,
                    "time": 19.217714999999995,
                    "velocity": 0.5196850393700787,
                    "duration": 0.2766186250000011
                },
                {
                    "name": "D#3",
                    "midi": 51,
                    "time": 19.508892499999995,
                    "velocity": 0.25196850393700787,
                    "duration": 0.2766186250000011
                },
                {
                    "name": "G#3",
                    "midi": 56,
                    "time": 19.508892499999995,
                    "velocity": 0.25196850393700787,
                    "duration": 0.2766186250000011
                },
                {
                    "name": "D#4",
                    "midi": 63,
                    "time": 19.508892499999995,
                    "velocity": 0.33858267716535434,
                    "duration": 0.2766186250000011
                },
                {
                    "name": "D#3",
                    "midi": 51,
                    "time": 19.800069999999995,
                    "velocity": 0.25196850393700787,
                    "duration": 0.2766186250000011
                },
                {
                    "name": "G#3",
                    "midi": 56,
                    "time": 19.800069999999995,
                    "velocity": 0.25196850393700787,
                    "duration": 0.2766186250000011
                },
                {
                    "name": "D#4",
                    "midi": 63,
                    "time": 19.800069999999995,
                    "velocity": 0.33070866141732286,
                    "duration": 0.2766186250000011
                },
                {
                    "name": "D#3",
                    "midi": 51,
                    "time": 20.091247499999994,
                    "velocity": 0.28346456692913385,
                    "duration": 0.27661862499999756
                },
                {
                    "name": "G#3",
                    "midi": 56,
                    "time": 20.091247499999994,
                    "velocity": 0.28346456692913385,
                    "duration": 0.27661862499999756
                },
                {
                    "name": "D#4",
                    "midi": 63,
                    "time": 20.091247499999994,
                    "velocity": 0.3937007874015748,
                    "duration": 0.27661862499999756
                },
                {
                    "name": "D#3",
                    "midi": 51,
                    "time": 20.38242499999999,
                    "velocity": 0.25196850393700787,
                    "duration": 0.2766186250000011
                },
                {
                    "name": "G#3",
                    "midi": 56,
                    "time": 20.38242499999999,
                    "velocity": 0.25196850393700787,
                    "duration": 0.2766186250000011
                },
                {
                    "name": "D#4",
                    "midi": 63,
                    "time": 20.38242499999999,
                    "velocity": 0.33858267716535434,
                    "duration": 0.2766186250000011
                },
                {
                    "name": "D#3",
                    "midi": 51,
                    "time": 20.67360249999999,
                    "velocity": 0.25196850393700787,
                    "duration": 0.2766186250000011
                },
                {
                    "name": "G#3",
                    "midi": 56,
                    "time": 20.67360249999999,
                    "velocity": 0.25196850393700787,
                    "duration": 0.2766186250000011
                },
                {
                    "name": "D#4",
                    "midi": 63,
                    "time": 20.67360249999999,
                    "velocity": 0.33858267716535434,
                    "duration": 0.2766186250000011
                },
                {
                    "name": "C#2",
                    "midi": 37,
                    "time": 20.96477999999999,
                    "velocity": 0.5590551181102362,
                    "duration": 0.27661862499999756
                },
                {
                    "name": "F3",
                    "midi": 53,
                    "time": 21.255957499999987,
                    "velocity": 0.15748031496062992,
                    "duration": 0.2766186250000011
                },
                {
                    "name": "G#3",
                    "midi": 56,
                    "time": 21.255957499999987,
                    "velocity": 0.15748031496062992,
                    "duration": 0.2766186250000011
                },
                {
                    "name": "C#4",
                    "midi": 61,
                    "time": 21.255957499999987,
                    "velocity": 0.2677165354330709,
                    "duration": 0.2766186250000011
                },
                {
                    "name": "F4",
                    "midi": 65,
                    "time": 21.255957499999987,
                    "velocity": 0.3228346456692913,
                    "duration": 0.2766186250000011
                },
                {
                    "name": "F3",
                    "midi": 53,
                    "time": 21.547134999999987,
                    "velocity": 0.15748031496062992,
                    "duration": 0.2766186250000011
                },
                {
                    "name": "G#3",
                    "midi": 56,
                    "time": 21.547134999999987,
                    "velocity": 0.15748031496062992,
                    "duration": 0.2766186250000011
                },
                {
                    "name": "C#4",
                    "midi": 61,
                    "time": 21.547134999999987,
                    "velocity": 0.2677165354330709,
                    "duration": 0.2766186250000011
                },
                {
                    "name": "F4",
                    "midi": 65,
                    "time": 21.547134999999987,
                    "velocity": 0.3228346456692913,
                    "duration": 0.2766186250000011
                },
                {
                    "name": "F3",
                    "midi": 53,
                    "time": 21.838312499999986,
                    "velocity": 0.1732283464566929,
                    "duration": 0.2766186250000011
                },
                {
                    "name": "G#3",
                    "midi": 56,
                    "time": 21.838312499999986,
                    "velocity": 0.1732283464566929,
                    "duration": 0.2766186250000011
                },
                {
                    "name": "C#4",
                    "midi": 61,
                    "time": 21.838312499999986,
                    "velocity": 0.28346456692913385,
                    "duration": 0.2766186250000011
                },
                {
                    "name": "F4",
                    "midi": 65,
                    "time": 21.838312499999986,
                    "velocity": 0.3543307086614173,
                    "duration": 0.2766186250000011
                },
                {
                    "name": "F3",
                    "midi": 53,
                    "time": 22.129489999999986,
                    "velocity": 0.15748031496062992,
                    "duration": 0.2766186250000011
                },
                {
                    "name": "G#3",
                    "midi": 56,
                    "time": 22.129489999999986,
                    "velocity": 0.15748031496062992,
                    "duration": 0.2766186250000011
                },
                {
                    "name": "C#4",
                    "midi": 61,
                    "time": 22.129489999999986,
                    "velocity": 0.2677165354330709,
                    "duration": 0.2766186250000011
                },
                {
                    "name": "F4",
                    "midi": 65,
                    "time": 22.129489999999986,
                    "velocity": 0.3228346456692913,
                    "duration": 0.2766186250000011
                },
                {
                    "name": "F3",
                    "midi": 53,
                    "time": 22.420667499999986,
                    "velocity": 0.15748031496062992,
                    "duration": 0.2766186250000011
                },
                {
                    "name": "G#3",
                    "midi": 56,
                    "time": 22.420667499999986,
                    "velocity": 0.15748031496062992,
                    "duration": 0.2766186250000011
                },
                {
                    "name": "C#4",
                    "midi": 61,
                    "time": 22.420667499999986,
                    "velocity": 0.2677165354330709,
                    "duration": 0.2766186250000011
                },
                {
                    "name": "F4",
                    "midi": 65,
                    "time": 22.420667499999986,
                    "velocity": 0.3228346456692913,
                    "duration": 0.2766186250000011
                },
                {
                    "name": "D#3",
                    "midi": 51,
                    "time": 22.711844999999986,
                    "velocity": 0.5118110236220472,
                    "duration": 0.2766186250000011
                },
                {
                    "name": "A#3",
                    "midi": 58,
                    "time": 23.003022499999986,
                    "velocity": 0.14960629921259844,
                    "duration": 0.2766186250000011
                },
                {
                    "name": "C#4",
                    "midi": 61,
                    "time": 23.003022499999986,
                    "velocity": 0.2125984251968504,
                    "duration": 0.2766186250000011
                },
                {
                    "name": "G4",
                    "midi": 67,
                    "time": 23.003022499999986,
                    "velocity": 0.25984251968503935,
                    "duration": 0.2766186250000011
                },
                {
                    "name": "A#3",
                    "midi": 58,
                    "time": 23.294199999999986,
                    "velocity": 0.15748031496062992,
                    "duration": 0.2766186250000011
                },
                {
                    "name": "C#4",
                    "midi": 61,
                    "time": 23.294199999999986,
                    "velocity": 0.2204724409448819,
                    "duration": 0.2766186250000011
                },
                {
                    "name": "G4",
                    "midi": 67,
                    "time": 23.294199999999986,
                    "velocity": 0.2677165354330709,
                    "duration": 0.2766186250000011
                },
                {
                    "name": "C#3",
                    "midi": 49,
                    "time": 23.585377499999986,
                    "velocity": 0.44881889763779526,
                    "duration": 0.2766186250000011
                },
                {
                    "name": "G#3",
                    "midi": 56,
                    "time": 23.876554999999986,
                    "velocity": 0.14173228346456693,
                    "duration": 0.2766186250000011
                },
                {
                    "name": "C#4",
                    "midi": 61,
                    "time": 23.876554999999986,
                    "velocity": 0.1968503937007874,
                    "duration": 0.2766186250000011
                },
                {
                    "name": "G#4",
                    "midi": 68,
                    "time": 23.876554999999986,
                    "velocity": 0.23622047244094488,
                    "duration": 0.2766186250000011
                },
                {
                    "name": "G#3",
                    "midi": 56,
                    "time": 24.167732499999985,
                    "velocity": 0.14173228346456693,
                    "duration": 0.2766186250000011
                },
                {
                    "name": "C#4",
                    "midi": 61,
                    "time": 24.167732499999985,
                    "velocity": 0.1968503937007874,
                    "duration": 0.2766186250000011
                },
                {
                    "name": "G#4",
                    "midi": 68,
                    "time": 24.167732499999985,
                    "velocity": 0.23622047244094488,
                    "duration": 0.2766186250000011
                },
                {
                    "name": "D#3",
                    "midi": 51,
                    "time": 24.458909999999985,
                    "velocity": 0.5433070866141733,
                    "duration": 0.2766186250000011
                },
                {
                    "name": "A#3",
                    "midi": 58,
                    "time": 24.750087499999985,
                    "velocity": 0.1968503937007874,
                    "duration": 0.2766186250000011
                },
                {
                    "name": "C#4",
                    "midi": 61,
                    "time": 24.750087499999985,
                    "velocity": 0.2677165354330709,
                    "duration": 0.2766186250000011
                },
                {
                    "name": "G4",
                    "midi": 67,
                    "time": 24.750087499999985,
                    "velocity": 0.3228346456692913,
                    "duration": 0.2766186250000011
                },
                {
                    "name": "A#3",
                    "midi": 58,
                    "time": 25.041264999999985,
                    "velocity": 0.1968503937007874,
                    "duration": 0.2766186250000011
                },
                {
                    "name": "C#4",
                    "midi": 61,
                    "time": 25.041264999999985,
                    "velocity": 0.2677165354330709,
                    "duration": 0.2766186250000011
                },
                {
                    "name": "G4",
                    "midi": 67,
                    "time": 25.041264999999985,
                    "velocity": 0.3228346456692913,
                    "duration": 0.2766186250000011
                },
                {
                    "name": "D#4",
                    "midi": 63,
                    "time": 25.332442499999985,
                    "velocity": 0.28346456692913385,
                    "duration": 0.2766186250000011
                },
                {
                    "name": "A#3",
                    "midi": 58,
                    "time": 25.332442499999985,
                    "velocity": 0.2125984251968504,
                    "duration": 0.2766186250000011
                },
                {
                    "name": "C#4",
                    "midi": 61,
                    "time": 25.332442499999985,
                    "velocity": 0.28346456692913385,
                    "duration": 0.2766186250000011
                },
                {
                    "name": "G4",
                    "midi": 67,
                    "time": 25.332442499999985,
                    "velocity": 0.3543307086614173,
                    "duration": 0.2766186250000011
                },
                {
                    "name": "D#4",
                    "midi": 63,
                    "time": 25.623619999999985,
                    "velocity": 0.2677165354330709,
                    "duration": 0.2766186250000011
                },
                {
                    "name": "A#3",
                    "midi": 58,
                    "time": 25.623619999999985,
                    "velocity": 0.1968503937007874,
                    "duration": 0.2766186250000011
                },
                {
                    "name": "C#4",
                    "midi": 61,
                    "time": 25.623619999999985,
                    "velocity": 0.2677165354330709,
                    "duration": 0.2766186250000011
                },
                {
                    "name": "G4",
                    "midi": 67,
                    "time": 25.623619999999985,
                    "velocity": 0.3228346456692913,
                    "duration": 0.2766186250000011
                },
                {
                    "name": "A#3",
                    "midi": 58,
                    "time": 25.914797499999985,
                    "velocity": 0.1968503937007874,
                    "duration": 0.2766186250000011
                },
                {
                    "name": "C#4",
                    "midi": 61,
                    "time": 25.914797499999985,
                    "velocity": 0.2677165354330709,
                    "duration": 0.2766186250000011
                },
                {
                    "name": "G4",
                    "midi": 67,
                    "time": 25.914797499999985,
                    "velocity": 0.3228346456692913,
                    "duration": 0.2766186250000011
                },
                {
                    "name": "F2",
                    "midi": 41,
                    "time": 26.205974999999984,
                    "velocity": 0.5354330708661418,
                    "duration": 0.2766186250000011
                },
                {
                    "name": "F3",
                    "midi": 53,
                    "time": 26.497152499999984,
                    "velocity": 0.1889763779527559,
                    "duration": 0.2766186250000011
                },
                {
                    "name": "C4",
                    "midi": 60,
                    "time": 26.497152499999984,
                    "velocity": 0.1889763779527559,
                    "duration": 0.2766186250000011
                },
                {
                    "name": "F4",
                    "midi": 65,
                    "time": 26.497152499999984,
                    "velocity": 0.25984251968503935,
                    "duration": 0.2766186250000011
                },
                {
                    "name": "F3",
                    "midi": 53,
                    "time": 26.788329999999984,
                    "velocity": 0.1968503937007874,
                    "duration": 0.2766186250000011
                },
                {
                    "name": "C4",
                    "midi": 60,
                    "time": 26.788329999999984,
                    "velocity": 0.1968503937007874,
                    "duration": 0.2766186250000011
                },
                {
                    "name": "F4",
                    "midi": 65,
                    "time": 26.788329999999984,
                    "velocity": 0.2677165354330709,
                    "duration": 0.2766186250000011
                },
                {
                    "name": "A#2",
                    "midi": 46,
                    "time": 27.079507499999984,
                    "velocity": 0.44881889763779526,
                    "duration": 0.2766186250000011
                },
                {
                    "name": "F3",
                    "midi": 53,
                    "time": 27.370684999999984,
                    "velocity": 0.16535433070866143,
                    "duration": 0.2766186250000011
                },
                {
                    "name": "A#3",
                    "midi": 58,
                    "time": 27.370684999999984,
                    "velocity": 0.1889763779527559,
                    "duration": 0.2766186250000011
                },
                {
                    "name": "F4",
                    "midi": 65,
                    "time": 27.370684999999984,
                    "velocity": 0.2283464566929134,
                    "duration": 0.2766186250000011
                },
                {
                    "name": "F3",
                    "midi": 53,
                    "time": 27.661862499999984,
                    "velocity": 0.16535433070866143,
                    "duration": 0.2766186250000011
                },
                {
                    "name": "A#3",
                    "midi": 58,
                    "time": 27.661862499999984,
                    "velocity": 0.1889763779527559,
                    "duration": 0.2766186250000011
                },
                {
                    "name": "F4",
                    "midi": 65,
                    "time": 27.661862499999984,
                    "velocity": 0.2283464566929134,
                    "duration": 0.2766186250000011
                },
                {
                    "name": "D#3",
                    "midi": 51,
                    "time": 27.953039999999984,
                    "velocity": 0.44881889763779526,
                    "duration": 0.2766186250000011
                },
                {
                    "name": "F3",
                    "midi": 53,
                    "time": 28.244217499999984,
                    "velocity": 0.2125984251968504,
                    "duration": 0.2766186250000011
                },
                {
                    "name": "A#3",
                    "midi": 58,
                    "time": 28.244217499999984,
                    "velocity": 0.23622047244094488,
                    "duration": 0.2766186250000011
                },
                {
                    "name": "F4",
                    "midi": 65,
                    "time": 28.244217499999984,
                    "velocity": 0.28346456692913385,
                    "duration": 0.2766186250000011
                },
                {
                    "name": "F3",
                    "midi": 53,
                    "time": 28.535394999999983,
                    "velocity": 0.2125984251968504,
                    "duration": 0.2766186250000011
                },
                {
                    "name": "A#3",
                    "midi": 58,
                    "time": 28.535394999999983,
                    "velocity": 0.23622047244094488,
                    "duration": 0.2766186250000011
                },
                {
                    "name": "F4",
                    "midi": 65,
                    "time": 28.535394999999983,
                    "velocity": 0.28346456692913385,
                    "duration": 0.2766186250000011
                },
                {
                    "name": "D#2",
                    "midi": 39,
                    "time": 28.826572499999983,
                    "velocity": 0.30708661417322836,
                    "duration": 0.2766186250000011
                },
                {
                    "name": "D#3",
                    "midi": 51,
                    "time": 29.117749999999983,
                    "velocity": 0.14173228346456693,
                    "duration": 0.2766186250000011
                },
                {
                    "name": "A#3",
                    "midi": 58,
                    "time": 29.117749999999983,
                    "velocity": 0.1968503937007874,
                    "duration": 0.2766186250000011
                },
                {
                    "name": "D#4",
                    "midi": 63,
                    "time": 29.117749999999983,
                    "velocity": 0.23622047244094488,
                    "duration": 0.2766186250000011
                },
                {
                    "name": "D#3",
                    "midi": 51,
                    "time": 29.408927499999983,
                    "velocity": 0.11023622047244094,
                    "duration": 0.2766186250000011
                },
                {
                    "name": "A#3",
                    "midi": 58,
                    "time": 29.408927499999983,
                    "velocity": 0.15748031496062992,
                    "duration": 0.2766186250000011
                },
                {
                    "name": "D#4",
                    "midi": 63,
                    "time": 29.408927499999983,
                    "velocity": 0.18110236220472442,
                    "duration": 0.2766186250000011
                },
                {
                    "name": "G#2",
                    "midi": 44,
                    "time": 29.700104999999983,
                    "velocity": 0.30708661417322836,
                    "duration": 0.2766186250000011
                },
                {
                    "name": "G#3",
                    "midi": 56,
                    "time": 29.991282499999983,
                    "velocity": 0.15748031496062992,
                    "duration": 0.2766186250000011
                },
                {
                    "name": "D#3",
                    "midi": 51,
                    "time": 29.991282499999983,
                    "velocity": 0.10236220472440945,
                    "duration": 0.2766186250000011
                },
                {
                    "name": "D#4",
                    "midi": 63,
                    "time": 29.991282499999983,
                    "velocity": 0.18110236220472442,
                    "duration": 0.2766186250000011
                },
                {
                    "name": "G#3",
                    "midi": 56,
                    "time": 30.282459999999983,
                    "velocity": 0.14173228346456693,
                    "duration": 0.2766186250000011
                },
                {
                    "name": "D#3",
                    "midi": 51,
                    "time": 30.282459999999983,
                    "velocity": 0.09448818897637795,
                    "duration": 0.2766186250000011
                },
                {
                    "name": "D#4",
                    "midi": 63,
                    "time": 30.282459999999983,
                    "velocity": 0.1732283464566929,
                    "duration": 0.2766186250000011
                },
                {
                    "name": "G#3",
                    "midi": 56,
                    "time": 30.573637499999982,
                    "velocity": 0.15748031496062992,
                    "duration": 0.2766186250000011
                },
                {
                    "name": "D#3",
                    "midi": 51,
                    "time": 30.573637499999982,
                    "velocity": 0.10236220472440945,
                    "duration": 0.2766186250000011
                },
                {
                    "name": "D#4",
                    "midi": 63,
                    "time": 30.573637499999982,
                    "velocity": 0.18110236220472442,
                    "duration": 0.2766186250000011
                },
                {
                    "name": "G#3",
                    "midi": 56,
                    "time": 30.864814999999982,
                    "velocity": 0.14173228346456693,
                    "duration": 0.2766186250000011
                },
                {
                    "name": "D#3",
                    "midi": 51,
                    "time": 30.864814999999982,
                    "velocity": 0.09448818897637795,
                    "duration": 0.2766186250000011
                },
                {
                    "name": "D#4",
                    "midi": 63,
                    "time": 30.864814999999982,
                    "velocity": 0.1732283464566929,
                    "duration": 0.2766186250000011
                },
                {
                    "name": "G#3",
                    "midi": 56,
                    "time": 31.155992499999982,
                    "velocity": 0.14173228346456693,
                    "duration": 0.2766186250000011
                },
                {
                    "name": "D#3",
                    "midi": 51,
                    "time": 31.155992499999982,
                    "velocity": 0.09448818897637795,
                    "duration": 0.2766186250000011
                },
                {
                    "name": "D#4",
                    "midi": 63,
                    "time": 31.155992499999982,
                    "velocity": 0.1732283464566929,
                    "duration": 0.2766186250000011
                },
                {
                    "name": "E2",
                    "midi": 40,
                    "time": 31.447169999999982,
                    "velocity": 0.2204724409448819,
                    "duration": 0.2766186250000011
                },
                {
                    "name": "E3",
                    "midi": 52,
                    "time": 31.738347499999982,
                    "velocity": 0.14173228346456693,
                    "duration": 0.27661862499999756
                },
                {
                    "name": "B3",
                    "midi": 59,
                    "time": 31.738347499999982,
                    "velocity": 0.16535433070866143,
                    "duration": 0.27661862499999756
                },
                {
                    "name": "E4",
                    "midi": 64,
                    "time": 31.738347499999982,
                    "velocity": 0.1968503937007874,
                    "duration": 0.27661862499999756
                },
                {
                    "name": "E3",
                    "midi": 52,
                    "time": 32.02952499999998,
                    "velocity": 0.14173228346456693,
                    "duration": 0.27661862499999756
                },
                {
                    "name": "B3",
                    "midi": 59,
                    "time": 32.02952499999998,
                    "velocity": 0.16535433070866143,
                    "duration": 0.27661862499999756
                },
                {
                    "name": "E4",
                    "midi": 64,
                    "time": 32.02952499999998,
                    "velocity": 0.1968503937007874,
                    "duration": 0.27661862499999756
                },
                {
                    "name": "E3",
                    "midi": 52,
                    "time": 32.320702499999975,
                    "velocity": 0.14173228346456693,
                    "duration": 0.27661862499999756
                },
                {
                    "name": "B3",
                    "midi": 59,
                    "time": 32.320702499999975,
                    "velocity": 0.16535433070866143,
                    "duration": 0.27661862499999756
                },
                {
                    "name": "E4",
                    "midi": 64,
                    "time": 32.320702499999975,
                    "velocity": 0.1968503937007874,
                    "duration": 0.27661862499999756
                },
                {
                    "name": "E3",
                    "midi": 52,
                    "time": 32.61187999999997,
                    "velocity": 0.14173228346456693,
                    "duration": 0.27661862499999756
                },
                {
                    "name": "B3",
                    "midi": 59,
                    "time": 32.61187999999997,
                    "velocity": 0.16535433070866143,
                    "duration": 0.27661862499999756
                },
                {
                    "name": "E4",
                    "midi": 64,
                    "time": 32.61187999999997,
                    "velocity": 0.1968503937007874,
                    "duration": 0.2851113020833296
                },
                {
                    "name": "E3",
                    "midi": 52,
                    "time": 32.90305749999997,
                    "velocity": 0.12598425196850394,
                    "duration": 0.27661862499999756
                },
                {
                    "name": "B3",
                    "midi": 59,
                    "time": 32.90305749999997,
                    "velocity": 0.1732283464566929,
                    "duration": 0.27661862499999756
                },
                {
                    "name": "A2",
                    "midi": 45,
                    "time": 33.19423499999996,
                    "velocity": 0.2677165354330709,
                    "duration": 0.27661862499999756
                },
                {
                    "name": "E3",
                    "midi": 52,
                    "time": 33.48541249999996,
                    "velocity": 0.15748031496062992,
                    "duration": 0.27661862499999756
                },
                {
                    "name": "A3",
                    "midi": 57,
                    "time": 33.48541249999996,
                    "velocity": 0.2283464566929134,
                    "duration": 0.27661862499999756
                },
                {
                    "name": "E4",
                    "midi": 64,
                    "time": 33.48541249999996,
                    "velocity": 0.30708661417322836,
                    "duration": 0.27661862499999756
                },
                {
                    "name": "F3",
                    "midi": 53,
                    "time": 33.776589999999956,
                    "velocity": 0.18110236220472442,
                    "duration": 0.27661862499999756
                },
                {
                    "name": "A3",
                    "midi": 57,
                    "time": 33.776589999999956,
                    "velocity": 0.2440944881889764,
                    "duration": 0.27661862499999756
                },
                {
                    "name": "F4",
                    "midi": 65,
                    "time": 33.776589999999956,
                    "velocity": 0.33070866141732286,
                    "duration": 0.27661862499999756
                },
                {
                    "name": "F3",
                    "midi": 53,
                    "time": 34.06776749999995,
                    "velocity": 0.1968503937007874,
                    "duration": 0.27661862499999756
                },
                {
                    "name": "A3",
                    "midi": 57,
                    "time": 34.06776749999995,
                    "velocity": 0.2677165354330709,
                    "duration": 0.27661862499999756
                },
                {
                    "name": "F4",
                    "midi": 65,
                    "time": 34.06776749999995,
                    "velocity": 0.3543307086614173,
                    "duration": 0.27661862499999756
                },
                {
                    "name": "F#3",
                    "midi": 54,
                    "time": 34.35894499999995,
                    "velocity": 0.2047244094488189,
                    "duration": 0.27661862499999756
                },
                {
                    "name": "A3",
                    "midi": 57,
                    "time": 34.35894499999995,
                    "velocity": 0.2755905511811024,
                    "duration": 0.27661862499999756
                },
                {
                    "name": "F#4",
                    "midi": 66,
                    "time": 34.35894499999995,
                    "velocity": 0.3779527559055118,
                    "duration": 0.27661862499999756
                },
                {
                    "name": "A3",
                    "midi": 57,
                    "time": 34.650122499999945,
                    "velocity": 0.2992125984251969,
                    "duration": 0.27661862499999756
                },
                {
                    "name": "G3",
                    "midi": 55,
                    "time": 34.650122499999945,
                    "velocity": 0.2204724409448819,
                    "duration": 0.27661862499999756
                },
                {
                    "name": "G4",
                    "midi": 67,
                    "time": 34.650122499999945,
                    "velocity": 0.4015748031496063,
                    "duration": 0.27661862499999756
                },
                {
                    "name": "G#2",
                    "midi": 44,
                    "time": 34.94129999999994,
                    "velocity": 0.33070866141732286,
                    "duration": 0.27661862500000467
                },
                {
                    "name": "G#3",
                    "midi": 56,
                    "time": 35.232477499999945,
                    "velocity": 0.2204724409448819,
                    "duration": 0.27661862499999756
                },
                {
                    "name": "D#4",
                    "midi": 63,
                    "time": 35.232477499999945,
                    "velocity": 0.2440944881889764,
                    "duration": 0.27661862499999756
                },
                {
                    "name": "F#4",
                    "midi": 66,
                    "time": 35.232477499999945,
                    "velocity": 0.2992125984251969,
                    "duration": 0.27661862499999756
                },
                {
                    "name": "G#3",
                    "midi": 56,
                    "time": 35.52365499999994,
                    "velocity": 0.2204724409448819,
                    "duration": 0.27661862500000467
                },
                {
                    "name": "D#4",
                    "midi": 63,
                    "time": 35.52365499999994,
                    "velocity": 0.2440944881889764,
                    "duration": 0.27661862500000467
                },
                {
                    "name": "F#4",
                    "midi": 66,
                    "time": 35.52365499999994,
                    "velocity": 0.2992125984251969,
                    "duration": 0.27661862500000467
                },
                {
                    "name": "G#3",
                    "midi": 56,
                    "time": 35.814832499999945,
                    "velocity": 0.2204724409448819,
                    "duration": 0.27661862499999756
                },
                {
                    "name": "D#4",
                    "midi": 63,
                    "time": 35.814832499999945,
                    "velocity": 0.2440944881889764,
                    "duration": 0.27661862499999756
                },
                {
                    "name": "F#4",
                    "midi": 66,
                    "time": 35.814832499999945,
                    "velocity": 0.2992125984251969,
                    "duration": 0.27661862499999756
                },
                {
                    "name": "G#3",
                    "midi": 56,
                    "time": 36.10600999999994,
                    "velocity": 0.2047244094488189,
                    "duration": 0.27661862499999756
                },
                {
                    "name": "D#4",
                    "midi": 63,
                    "time": 36.10600999999994,
                    "velocity": 0.2283464566929134,
                    "duration": 0.27661862499999756
                },
                {
                    "name": "F#4",
                    "midi": 66,
                    "time": 36.10600999999994,
                    "velocity": 0.28346456692913385,
                    "duration": 0.27661862499999756
                },
                {
                    "name": "F#4",
                    "midi": 66,
                    "time": 36.39718749999994,
                    "velocity": 0.28346456692913385,
                    "duration": 0.27661862499999756
                },
                {
                    "name": "G#3",
                    "midi": 56,
                    "time": 36.39718749999994,
                    "velocity": 0.18110236220472442,
                    "duration": 0.27661862499999756
                },
                {
                    "name": "D#4",
                    "midi": 63,
                    "time": 36.39718749999994,
                    "velocity": 0.25196850393700787,
                    "duration": 0.27661862499999756
                },
                {
                    "name": "C#3",
                    "midi": 49,
                    "time": 36.68836499999993,
                    "velocity": 0.30708661417322836,
                    "duration": 0.27661862499999756
                },
                {
                    "name": "G3",
                    "midi": 55,
                    "time": 36.97954249999993,
                    "velocity": 0.18110236220472442,
                    "duration": 0.27661862499999756
                },
                {
                    "name": "C#4",
                    "midi": 61,
                    "time": 36.97954249999993,
                    "velocity": 0.2440944881889764,
                    "duration": 0.27661862499999756
                },
                {
                    "name": "G4",
                    "midi": 67,
                    "time": 36.97954249999993,
                    "velocity": 0.33070866141732286,
                    "duration": 0.27661862499999756
                },
                {
                    "name": "G#3",
                    "midi": 56,
                    "time": 37.270719999999926,
                    "velocity": 0.1968503937007874,
                    "duration": 0.27661862499999756
                },
                {
                    "name": "C#4",
                    "midi": 61,
                    "time": 37.270719999999926,
                    "velocity": 0.2677165354330709,
                    "duration": 0.27661862499999756
                },
                {
                    "name": "G#4",
                    "midi": 68,
                    "time": 37.270719999999926,
                    "velocity": 0.3543307086614173,
                    "duration": 0.27661862499999756
                },
                {
                    "name": "G#3",
                    "midi": 56,
                    "time": 37.56189749999992,
                    "velocity": 0.2125984251968504,
                    "duration": 0.27661862499999756
                },
                {
                    "name": "C#4",
                    "midi": 61,
                    "time": 37.56189749999992,
                    "velocity": 0.29133858267716534,
                    "duration": 0.27661862499999756
                },
                {
                    "name": "G#4",
                    "midi": 68,
                    "time": 37.56189749999992,
                    "velocity": 0.3937007874015748,
                    "duration": 0.27661862499999756
                },
                {
                    "name": "A3",
                    "midi": 57,
                    "time": 37.85307499999992,
                    "velocity": 0.2125984251968504,
                    "duration": 0.27661862499999756
                },
                {
                    "name": "C#4",
                    "midi": 61,
                    "time": 37.85307499999992,
                    "velocity": 0.30708661417322836,
                    "duration": 0.27661862499999756
                },
                {
                    "name": "A4",
                    "midi": 69,
                    "time": 37.85307499999992,
                    "velocity": 0.41732283464566927,
                    "duration": 0.27661862499999756
                },
                {
                    "name": "C4",
                    "midi": 60,
                    "time": 38.144252499999915,
                    "velocity": 0.33070866141732286,
                    "duration": 0.27661862499999756
                },
                {
                    "name": "A#3",
                    "midi": 58,
                    "time": 38.144252499999915,
                    "velocity": 0.2440944881889764,
                    "duration": 0.27661862499999756
                },
                {
                    "name": "A#4",
                    "midi": 70,
                    "time": 38.144252499999915,
                    "velocity": 0.4409448818897638,
                    "duration": 0.27661862499999756
                },
                {
                    "name": "B2",
                    "midi": 47,
                    "time": 38.43542999999991,
                    "velocity": 0.5275590551181102,
                    "duration": 0.27661862499999756
                },
                {
                    "name": "B3",
                    "midi": 59,
                    "time": 38.72660749999991,
                    "velocity": 0.2283464566929134,
                    "duration": 0.27661862499999756
                },
                {
                    "name": "F#4",
                    "midi": 66,
                    "time": 38.72660749999991,
                    "velocity": 0.25984251968503935,
                    "duration": 0.27661862499999756
                },
                {
                    "name": "A4",
                    "midi": 69,
                    "time": 38.72660749999991,
                    "velocity": 0.30708661417322836,
                    "duration": 0.27661862499999756
                },
                {
                    "name": "D#4",
                    "midi": 63,
                    "time": 39.017784999999904,
                    "velocity": 0.25984251968503935,
                    "duration": 0.27661862499999756
                },
                {
                    "name": "B3",
                    "midi": 59,
                    "time": 39.017784999999904,
                    "velocity": 0.2283464566929134,
                    "duration": 0.27661862499999756
                },
                {
                    "name": "F#4",
                    "midi": 66,
                    "time": 39.017784999999904,
                    "velocity": 0.25984251968503935,
                    "duration": 0.27661862499999756
                },
                {
                    "name": "A4",
                    "midi": 69,
                    "time": 39.017784999999904,
                    "velocity": 0.30708661417322836,
                    "duration": 0.27661862499999756
                },
                {
                    "name": "D#4",
                    "midi": 63,
                    "time": 39.3089624999999,
                    "velocity": 0.25984251968503935,
                    "duration": 0.27661862500000467
                },
                {
                    "name": "B3",
                    "midi": 59,
                    "time": 39.3089624999999,
                    "velocity": 0.2283464566929134,
                    "duration": 0.27661862500000467
                },
                {
                    "name": "F#4",
                    "midi": 66,
                    "time": 39.3089624999999,
                    "velocity": 0.25984251968503935,
                    "duration": 0.27661862500000467
                },
                {
                    "name": "A4",
                    "midi": 69,
                    "time": 39.3089624999999,
                    "velocity": 0.30708661417322836,
                    "duration": 0.27661862500000467
                },
                {
                    "name": "C#4",
                    "midi": 61,
                    "time": 39.600139999999904,
                    "velocity": 0.25984251968503935,
                    "duration": 0.27661862499999756
                },
                {
                    "name": "B3",
                    "midi": 59,
                    "time": 39.600139999999904,
                    "velocity": 0.2283464566929134,
                    "duration": 0.27661862499999756
                },
                {
                    "name": "F#4",
                    "midi": 66,
                    "time": 39.600139999999904,
                    "velocity": 0.25984251968503935,
                    "duration": 0.27661862499999756
                },
                {
                    "name": "A4",
                    "midi": 69,
                    "time": 39.600139999999904,
                    "velocity": 0.30708661417322836,
                    "duration": 0.27661862499999756
                },
                {
                    "name": "D#4",
                    "midi": 63,
                    "time": 39.8913174999999,
                    "velocity": 0.2283464566929134,
                    "duration": 0.27661862499999756
                },
                {
                    "name": "A4",
                    "midi": 69,
                    "time": 39.8913174999999,
                    "velocity": 0.30708661417322836,
                    "duration": 0.27661862499999756
                },
                {
                    "name": "B3",
                    "midi": 59,
                    "time": 39.8913174999999,
                    "velocity": 0.2047244094488189,
                    "duration": 0.27661862499999756
                },
                {
                    "name": "F#4",
                    "midi": 66,
                    "time": 39.8913174999999,
                    "velocity": 0.2755905511811024,
                    "duration": 0.27661862499999756
                },
                {
                    "name": "E3",
                    "midi": 52,
                    "time": 40.182494999999896,
                    "velocity": 0.4094488188976378,
                    "duration": 0.27661862500000467
                },
                {
                    "name": "B3",
                    "midi": 59,
                    "time": 40.4736724999999,
                    "velocity": 0.2755905511811024,
                    "duration": 0.27661862499999756
                },
                {
                    "name": "E4",
                    "midi": 64,
                    "time": 40.4736724999999,
                    "velocity": 0.2755905511811024,
                    "duration": 0.27661862499999756
                },
                {
                    "name": "B4",
                    "midi": 71,
                    "time": 40.4736724999999,
                    "velocity": 0.3228346456692913,
                    "duration": 0.27661862499999756
                },
                {
                    "name": "A#3",
                    "midi": 58,
                    "time": 40.764849999999896,
                    "velocity": 0.2283464566929134,
                    "duration": 0.27661862499999756
                },
                {
                    "name": "E4",
                    "midi": 64,
                    "time": 40.764849999999896,
                    "velocity": 0.25984251968503935,
                    "duration": 0.27661862499999756
                },
                {
                    "name": "A#4",
                    "midi": 70,
                    "time": 40.764849999999896,
                    "velocity": 0.31496062992125984,
                    "duration": 0.27661862499999756
                },
                {
                    "name": "D#3",
                    "midi": 51,
                    "time": 41.05602749999989,
                    "velocity": 0.4094488188976378,
                    "duration": 0.27661862500000467
                },
                {
                    "name": "A#3",
                    "midi": 58,
                    "time": 41.347204999999896,
                    "velocity": 0.2125984251968504,
                    "duration": 0.27661862499999756
                },
                {
                    "name": "D#4",
                    "midi": 63,
                    "time": 41.347204999999896,
                    "velocity": 0.2440944881889764,
                    "duration": 0.27661862499999756
                },
                {
                    "name": "A#4",
                    "midi": 70,
                    "time": 41.347204999999896,
                    "velocity": 0.28346456692913385,
                    "duration": 0.27661862499999756
                },
                {
                    "name": "A#3",
                    "midi": 58,
                    "time": 41.63838249999989,
                    "velocity": 0.18110236220472442,
                    "duration": 0.27661862499999756
                },
                {
                    "name": "A#4",
                    "midi": 70,
                    "time": 41.63838249999989,
                    "velocity": 0.2755905511811024,
                    "duration": 0.27661862499999756
                },
                {
                    "name": "D#4",
                    "midi": 63,
                    "time": 41.63838249999989,
                    "velocity": 0.2440944881889764,
                    "duration": 0.27661862499999756
                },
                {
                    "name": "D3",
                    "midi": 50,
                    "time": 41.92955999999989,
                    "velocity": 0.2992125984251969,
                    "duration": 0.27661862500000467
                },
                {
                    "name": "A3",
                    "midi": 57,
                    "time": 42.22073749999989,
                    "velocity": 0.15748031496062992,
                    "duration": 0.27661862499999756
                },
                {
                    "name": "D4",
                    "midi": 62,
                    "time": 42.22073749999989,
                    "velocity": 0.1732283464566929,
                    "duration": 0.27661862499999756
                },
                {
                    "name": "A4",
                    "midi": 69,
                    "time": 42.22073749999989,
                    "velocity": 0.2204724409448819,
                    "duration": 0.27661862499999756
                },
                {
                    "name": "G#3",
                    "midi": 56,
                    "time": 42.51191499999989,
                    "velocity": 0.15748031496062992,
                    "duration": 0.27661862499999756
                },
                {
                    "name": "D4",
                    "midi": 62,
                    "time": 42.51191499999989,
                    "velocity": 0.18110236220472442,
                    "duration": 0.27661862499999756
                },
                {
                    "name": "G#4",
                    "midi": 68,
                    "time": 42.51191499999989,
                    "velocity": 0.2204724409448819,
                    "duration": 0.27661862499999756
                },
                {
                    "name": "C#3",
                    "midi": 49,
                    "time": 42.803092499999885,
                    "velocity": 0.2992125984251969,
                    "duration": 0.27661862499999756
                },
                {
                    "name": "G#3",
                    "midi": 56,
                    "time": 43.09426999999988,
                    "velocity": 0.13385826771653545,
                    "duration": 0.27661862499999756
                },
                {
                    "name": "C#4",
                    "midi": 61,
                    "time": 43.09426999999988,
                    "velocity": 0.15748031496062992,
                    "duration": 0.27661862499999756
                },
                {
                    "name": "G#4",
                    "midi": 68,
                    "time": 43.09426999999988,
                    "velocity": 0.18110236220472442,
                    "duration": 0.27661862499999756
                },
                {
                    "name": "G#3",
                    "midi": 56,
                    "time": 43.38544749999988,
                    "velocity": 0.11811023622047244,
                    "duration": 0.27661862499999756
                },
                {
                    "name": "G#4",
                    "midi": 68,
                    "time": 43.38544749999988,
                    "velocity": 0.18110236220472442,
                    "duration": 0.27661862499999756
                },
                {
                    "name": "C#4",
                    "midi": 61,
                    "time": 43.38544749999988,
                    "velocity": 0.16535433070866143,
                    "duration": 0.27661862499999756
                },
                {
                    "name": "C3",
                    "midi": 48,
                    "time": 43.67662499999987,
                    "velocity": 0.28346456692913385,
                    "duration": 0.27661862500000467
                },
                {
                    "name": "G3",
                    "midi": 55,
                    "time": 43.96780249999988,
                    "velocity": 0.15748031496062992,
                    "duration": 0.27661862499999756
                },
                {
                    "name": "C4",
                    "midi": 60,
                    "time": 43.96780249999988,
                    "velocity": 0.1732283464566929,
                    "duration": 0.27661862499999756
                },
                {
                    "name": "G4",
                    "midi": 67,
                    "time": 43.96780249999988,
                    "velocity": 0.2125984251968504,
                    "duration": 0.27661862499999756
                },
                {
                    "name": "F#3",
                    "midi": 54,
                    "time": 44.25897999999987,
                    "velocity": 0.15748031496062992,
                    "duration": 0.27661862499999756
                },
                {
                    "name": "C4",
                    "midi": 60,
                    "time": 44.25897999999987,
                    "velocity": 0.1732283464566929,
                    "duration": 0.27661862499999756
                },
                {
                    "name": "F#4",
                    "midi": 66,
                    "time": 44.25897999999987,
                    "velocity": 0.2125984251968504,
                    "duration": 0.27661862499999756
                },
                {
                    "name": "B2",
                    "midi": 47,
                    "time": 44.55015749999987,
                    "velocity": 0.29133858267716534,
                    "duration": 0.27661862500000467
                },
                {
                    "name": "B3",
                    "midi": 59,
                    "time": 44.84133499999987,
                    "velocity": 0.15748031496062992,
                    "duration": 0.27661862499999756
                },
                {
                    "name": "E4",
                    "midi": 64,
                    "time": 44.84133499999987,
                    "velocity": 0.1732283464566929,
                    "duration": 0.27661862499999756
                },
                {
                    "name": "B4",
                    "midi": 71,
                    "time": 44.84133499999987,
                    "velocity": 0.2125984251968504,
                    "duration": 0.27661862499999756
                },
                {
                    "name": "B3",
                    "midi": 59,
                    "time": 45.13251249999987,
                    "velocity": 0.13385826771653545,
                    "duration": 0.27661862499999756
                },
                {
                    "name": "A4",
                    "midi": 69,
                    "time": 45.13251249999987,
                    "velocity": 0.2125984251968504,
                    "duration": 0.27661862499999756
                },
                {
                    "name": "D#4",
                    "midi": 63,
                    "time": 45.13251249999987,
                    "velocity": 0.18110236220472442,
                    "duration": 0.27661862499999756
                },
                {
                    "name": "E2",
                    "midi": 40,
                    "time": 45.423689999999866,
                    "velocity": 0.30708661417322836,
                    "duration": 0.27661862499999756
                },
                {
                    "name": "G#3",
                    "midi": 56,
                    "time": 45.71486749999986,
                    "velocity": 0.10236220472440945,
                    "duration": 0.27661862499999756
                },
                {
                    "name": "B3",
                    "midi": 59,
                    "time": 45.71486749999986,
                    "velocity": 0.14173228346456693,
                    "duration": 0.27661862499999756
                },
                {
                    "name": "G#4",
                    "midi": 68,
                    "time": 45.71486749999986,
                    "velocity": 0.1732283464566929,
                    "duration": 0.27661862499999756
                },
                {
                    "name": "G#3",
                    "midi": 56,
                    "time": 46.00604499999986,
                    "velocity": 0.11023622047244094,
                    "duration": 0.27661862499999756
                },
                {
                    "name": "B3",
                    "midi": 59,
                    "time": 46.00604499999986,
                    "velocity": 0.14960629921259844,
                    "duration": 0.27661862499999756
                },
                {
                    "name": "G#4",
                    "midi": 68,
                    "time": 46.00604499999986,
                    "velocity": 0.1889763779527559,
                    "duration": 0.27661862499999756
                },
                {
                    "name": "G#3",
                    "midi": 56,
                    "time": 46.297222499999855,
                    "velocity": 0.11811023622047244,
                    "duration": 0.27661862499999756
                },
                {
                    "name": "B3",
                    "midi": 59,
                    "time": 46.297222499999855,
                    "velocity": 0.16535433070866143,
                    "duration": 0.27661862499999756
                },
                {
                    "name": "G#4",
                    "midi": 68,
                    "time": 46.297222499999855,
                    "velocity": 0.1968503937007874,
                    "duration": 0.27661862499999756
                },
                {
                    "name": "G#3",
                    "midi": 56,
                    "time": 46.58839999999985,
                    "velocity": 0.12598425196850394,
                    "duration": 0.27661862499999756
                },
                {
                    "name": "B3",
                    "midi": 59,
                    "time": 46.58839999999985,
                    "velocity": 0.16535433070866143,
                    "duration": 0.27661862499999756
                },
                {
                    "name": "G#4",
                    "midi": 68,
                    "time": 46.58839999999985,
                    "velocity": 0.2047244094488189,
                    "duration": 0.27661862499999756
                },
                {
                    "name": "B3",
                    "midi": 59,
                    "time": 46.87957749999985,
                    "velocity": 0.18110236220472442,
                    "duration": 0.27661862499999756
                },
                {
                    "name": "G#3",
                    "midi": 56,
                    "time": 46.87957749999985,
                    "velocity": 0.12598425196850394,
                    "duration": 0.27661862499999756
                },
                {
                    "name": "G#4",
                    "midi": 68,
                    "time": 46.87957749999985,
                    "velocity": 0.2125984251968504,
                    "duration": 0.27661862499999756
                },
                {
                    "name": "E3",
                    "midi": 52,
                    "time": 47.17075499999984,
                    "velocity": 0.41732283464566927,
                    "duration": 0.27661862500000467
                },
                {
                    "name": "A3",
                    "midi": 57,
                    "time": 47.46193249999985,
                    "velocity": 0.1732283464566929,
                    "duration": 0.27661862499999756
                },
                {
                    "name": "C4",
                    "midi": 60,
                    "time": 47.46193249999985,
                    "velocity": 0.1968503937007874,
                    "duration": 0.27661862499999756
                },
                {
                    "name": "A4",
                    "midi": 69,
                    "time": 47.46193249999985,
                    "velocity": 0.2755905511811024,
                    "duration": 0.27661862499999756
                },
                {
                    "name": "A3",
                    "midi": 57,
                    "time": 47.75310999999984,
                    "velocity": 0.18110236220472442,
                    "duration": 0.27661862499999756
                },
                {
                    "name": "C4",
                    "midi": 60,
                    "time": 47.75310999999984,
                    "velocity": 0.2047244094488189,
                    "duration": 0.27661862499999756
                },
                {
                    "name": "A4",
                    "midi": 69,
                    "time": 47.75310999999984,
                    "velocity": 0.2440944881889764,
                    "duration": 0.27661862499999756
                },
                {
                    "name": "A3",
                    "midi": 57,
                    "time": 48.04428749999984,
                    "velocity": 0.1732283464566929,
                    "duration": 0.27661862499999756
                },
                {
                    "name": "C4",
                    "midi": 60,
                    "time": 48.04428749999984,
                    "velocity": 0.1968503937007874,
                    "duration": 0.27661862499999756
                },
                {
                    "name": "A4",
                    "midi": 69,
                    "time": 48.04428749999984,
                    "velocity": 0.2755905511811024,
                    "duration": 0.27661862499999756
                },
                {
                    "name": "A3",
                    "midi": 57,
                    "time": 48.335464999999836,
                    "velocity": 0.1889763779527559,
                    "duration": 0.27661862499999756
                },
                {
                    "name": "C4",
                    "midi": 60,
                    "time": 48.335464999999836,
                    "velocity": 0.2125984251968504,
                    "duration": 0.27661862499999756
                },
                {
                    "name": "A4",
                    "midi": 69,
                    "time": 48.335464999999836,
                    "velocity": 0.25196850393700787,
                    "duration": 0.27661862499999756
                },
                {
                    "name": "A4",
                    "midi": 69,
                    "time": 48.62664249999983,
                    "velocity": 0.25196850393700787,
                    "duration": 0.27661862499999756
                },
                {
                    "name": "A3",
                    "midi": 57,
                    "time": 48.62664249999983,
                    "velocity": 0.1889763779527559,
                    "duration": 0.27661862499999756
                },
                {
                    "name": "C4",
                    "midi": 60,
                    "time": 48.62664249999983,
                    "velocity": 0.2125984251968504,
                    "duration": 0.27661862499999756
                },
                {
                    "name": "E2",
                    "midi": 40,
                    "time": 48.91781999999983,
                    "velocity": 0.3464566929133858,
                    "duration": 0.27661862500000467
                },
                {
                    "name": "G#3",
                    "midi": 56,
                    "time": 49.20899749999983,
                    "velocity": 0.11811023622047244,
                    "duration": 0.27661862499999756
                },
                {
                    "name": "B3",
                    "midi": 59,
                    "time": 49.20899749999983,
                    "velocity": 0.16535433070866143,
                    "duration": 0.27661862499999756
                },
                {
                    "name": "G#4",
                    "midi": 68,
                    "time": 49.20899749999983,
                    "velocity": 0.1968503937007874,
                    "duration": 0.27661862499999756
                },
                {
                    "name": "G#3",
                    "midi": 56,
                    "time": 49.50017499999983,
                    "velocity": 0.12598425196850394,
                    "duration": 0.27661862499999756
                },
                {
                    "name": "B3",
                    "midi": 59,
                    "time": 49.50017499999983,
                    "velocity": 0.1732283464566929,
                    "duration": 0.27661862499999756
                },
                {
                    "name": "G#4",
                    "midi": 68,
                    "time": 49.50017499999983,
                    "velocity": 0.2125984251968504,
                    "duration": 0.27661862499999756
                },
                {
                    "name": "G#3",
                    "midi": 56,
                    "time": 49.791352499999824,
                    "velocity": 0.13385826771653545,
                    "duration": 0.27661862499999756
                },
                {
                    "name": "B3",
                    "midi": 59,
                    "time": 49.791352499999824,
                    "velocity": 0.1889763779527559,
                    "duration": 0.27661862499999756
                },
                {
                    "name": "G#4",
                    "midi": 68,
                    "time": 49.791352499999824,
                    "velocity": 0.2204724409448819,
                    "duration": 0.27661862499999756
                },
                {
                    "name": "G#3",
                    "midi": 56,
                    "time": 50.08252999999982,
                    "velocity": 0.14173228346456693,
                    "duration": 0.27661862499999756
                },
                {
                    "name": "B3",
                    "midi": 59,
                    "time": 50.08252999999982,
                    "velocity": 0.1889763779527559,
                    "duration": 0.27661862499999756
                },
                {
                    "name": "G#4",
                    "midi": 68,
                    "time": 50.08252999999982,
                    "velocity": 0.2283464566929134,
                    "duration": 0.27661862499999756
                },
                {
                    "name": "B3",
                    "midi": 59,
                    "time": 50.37370749999982,
                    "velocity": 0.2047244094488189,
                    "duration": 0.27661862499999756
                },
                {
                    "name": "G#3",
                    "midi": 56,
                    "time": 50.37370749999982,
                    "velocity": 0.14173228346456693,
                    "duration": 0.27661862499999756
                },
                {
                    "name": "G#4",
                    "midi": 68,
                    "time": 50.37370749999982,
                    "velocity": 0.2440944881889764,
                    "duration": 0.27661862499999756
                },
                {
                    "name": "E3",
                    "midi": 52,
                    "time": 50.66488499999981,
                    "velocity": 0.41732283464566927,
                    "duration": 0.27661862499999756
                },
                {
                    "name": "A3",
                    "midi": 57,
                    "time": 50.95606249999981,
                    "velocity": 0.1732283464566929,
                    "duration": 0.27661862499999756
                },
                {
                    "name": "C4",
                    "midi": 60,
                    "time": 50.95606249999981,
                    "velocity": 0.1968503937007874,
                    "duration": 0.27661862499999756
                },
                {
                    "name": "A4",
                    "midi": 69,
                    "time": 50.95606249999981,
                    "velocity": 0.2755905511811024,
                    "duration": 0.27661862499999756
                },
                {
                    "name": "A3",
                    "midi": 57,
                    "time": 51.247239999999806,
                    "velocity": 0.18110236220472442,
                    "duration": 0.27661862499999756
                },
                {
                    "name": "C4",
                    "midi": 60,
                    "time": 51.247239999999806,
                    "velocity": 0.2047244094488189,
                    "duration": 0.27661862499999756
                },
                {
                    "name": "A4",
                    "midi": 69,
                    "time": 51.247239999999806,
                    "velocity": 0.2440944881889764,
                    "duration": 0.27661862499999756
                },
                {
                    "name": "A3",
                    "midi": 57,
                    "time": 51.5384174999998,
                    "velocity": 0.1732283464566929,
                    "duration": 0.27661862499999756
                },
                {
                    "name": "C4",
                    "midi": 60,
                    "time": 51.5384174999998,
                    "velocity": 0.1968503937007874,
                    "duration": 0.27661862499999756
                },
                {
                    "name": "A4",
                    "midi": 69,
                    "time": 51.5384174999998,
                    "velocity": 0.2755905511811024,
                    "duration": 0.27661862499999756
                },
                {
                    "name": "A3",
                    "midi": 57,
                    "time": 51.8295949999998,
                    "velocity": 0.1889763779527559,
                    "duration": 0.27661862499999756
                },
                {
                    "name": "C4",
                    "midi": 60,
                    "time": 51.8295949999998,
                    "velocity": 0.2125984251968504,
                    "duration": 0.27661862499999756
                },
                {
                    "name": "A4",
                    "midi": 69,
                    "time": 51.8295949999998,
                    "velocity": 0.25196850393700787,
                    "duration": 0.27661862499999756
                },
                {
                    "name": "A4",
                    "midi": 69,
                    "time": 52.120772499999795,
                    "velocity": 0.25196850393700787,
                    "duration": 0.27661862499999756
                },
                {
                    "name": "A3",
                    "midi": 57,
                    "time": 52.120772499999795,
                    "velocity": 0.1889763779527559,
                    "duration": 0.27661862499999756
                },
                {
                    "name": "C4",
                    "midi": 60,
                    "time": 52.120772499999795,
                    "velocity": 0.2125984251968504,
                    "duration": 0.27661862499999756
                },
                {
                    "name": "E2",
                    "midi": 40,
                    "time": 52.41194999999979,
                    "velocity": 0.3464566929133858,
                    "duration": 0.27661862500000467
                },
                {
                    "name": "G#3",
                    "midi": 56,
                    "time": 52.703127499999795,
                    "velocity": 0.11811023622047244,
                    "duration": 0.27661862499999756
                },
                {
                    "name": "B3",
                    "midi": 59,
                    "time": 52.703127499999795,
                    "velocity": 0.16535433070866143,
                    "duration": 0.27661862499999756
                },
                {
                    "name": "G#4",
                    "midi": 68,
                    "time": 52.703127499999795,
                    "velocity": 0.1968503937007874,
                    "duration": 0.27661862499999756
                },
                {
                    "name": "G#3",
                    "midi": 56,
                    "time": 52.99430499999979,
                    "velocity": 0.12598425196850394,
                    "duration": 0.27661862499999756
                },
                {
                    "name": "B3",
                    "midi": 59,
                    "time": 52.99430499999979,
                    "velocity": 0.1732283464566929,
                    "duration": 0.27661862499999756
                },
                {
                    "name": "G#4",
                    "midi": 68,
                    "time": 52.99430499999979,
                    "velocity": 0.2125984251968504,
                    "duration": 0.27661862499999756
                },
                {
                    "name": "G#3",
                    "midi": 56,
                    "time": 53.28548249999979,
                    "velocity": 0.13385826771653545,
                    "duration": 0.27661862499999756
                },
                {
                    "name": "B3",
                    "midi": 59,
                    "time": 53.28548249999979,
                    "velocity": 0.1889763779527559,
                    "duration": 0.27661862499999756
                },
                {
                    "name": "G#4",
                    "midi": 68,
                    "time": 53.28548249999979,
                    "velocity": 0.2204724409448819,
                    "duration": 0.27661862499999756
                },
                {
                    "name": "G#3",
                    "midi": 56,
                    "time": 53.576659999999784,
                    "velocity": 0.14173228346456693,
                    "duration": 0.27661862499999756
                },
                {
                    "name": "B3",
                    "midi": 59,
                    "time": 53.576659999999784,
                    "velocity": 0.1889763779527559,
                    "duration": 0.27661862499999756
                },
                {
                    "name": "G#4",
                    "midi": 68,
                    "time": 53.576659999999784,
                    "velocity": 0.2283464566929134,
                    "duration": 0.27661862499999756
                },
                {
                    "name": "B3",
                    "midi": 59,
                    "time": 53.86783749999978,
                    "velocity": 0.2047244094488189,
                    "duration": 0.27661862499999756
                },
                {
                    "name": "G#3",
                    "midi": 56,
                    "time": 53.86783749999978,
                    "velocity": 0.14173228346456693,
                    "duration": 0.27661862499999756
                },
                {
                    "name": "G#4",
                    "midi": 68,
                    "time": 53.86783749999978,
                    "velocity": 0.2440944881889764,
                    "duration": 0.27661862499999756
                },
                {
                    "name": "G#3",
                    "midi": 56,
                    "time": 54.159014999999776,
                    "velocity": 0.13385826771653545,
                    "duration": 0.27661862499999756
                },
                {
                    "name": "B3",
                    "midi": 59,
                    "time": 54.159014999999776,
                    "velocity": 0.1889763779527559,
                    "duration": 0.27661862499999756
                },
                {
                    "name": "G#4",
                    "midi": 68,
                    "time": 54.159014999999776,
                    "velocity": 0.2204724409448819,
                    "duration": 0.27661862499999756
                },
                {
                    "name": "G#3",
                    "midi": 56,
                    "time": 54.45019249999977,
                    "velocity": 0.11811023622047244,
                    "duration": 0.27661862499999756
                },
                {
                    "name": "B3",
                    "midi": 59,
                    "time": 54.45019249999977,
                    "velocity": 0.16535433070866143,
                    "duration": 0.27661862499999756
                },
                {
                    "name": "G#4",
                    "midi": 68,
                    "time": 54.45019249999977,
                    "velocity": 0.1968503937007874,
                    "duration": 0.27661862499999756
                },
                {
                    "name": "G#3",
                    "midi": 56,
                    "time": 54.74136999999977,
                    "velocity": 0.12598425196850394,
                    "duration": 0.27661862499999756
                },
                {
                    "name": "B3",
                    "midi": 59,
                    "time": 54.74136999999977,
                    "velocity": 0.1732283464566929,
                    "duration": 0.27661862499999756
                },
                {
                    "name": "G#4",
                    "midi": 68,
                    "time": 54.74136999999977,
                    "velocity": 0.2125984251968504,
                    "duration": 0.27661862499999756
                },
                {
                    "name": "G#3",
                    "midi": 56,
                    "time": 55.032547499999765,
                    "velocity": 0.15748031496062992,
                    "duration": 0.27661862499999756
                },
                {
                    "name": "B3",
                    "midi": 59,
                    "time": 55.032547499999765,
                    "velocity": 0.2125984251968504,
                    "duration": 0.27661862499999756
                },
                {
                    "name": "G#4",
                    "midi": 68,
                    "time": 55.032547499999765,
                    "velocity": 0.25984251968503935,
                    "duration": 0.27661862499999756
                },
                {
                    "name": "G#3",
                    "midi": 56,
                    "time": 55.32372499999976,
                    "velocity": 0.16535433070866143,
                    "duration": 0.27661862499999756
                },
                {
                    "name": "B3",
                    "midi": 59,
                    "time": 55.32372499999976,
                    "velocity": 0.2204724409448819,
                    "duration": 0.27661862499999756
                },
                {
                    "name": "G#4",
                    "midi": 68,
                    "time": 55.32372499999976,
                    "velocity": 0.2755905511811024,
                    "duration": 0.27661862499999756
                },
                {
                    "name": "B3",
                    "midi": 59,
                    "time": 55.61490249999976,
                    "velocity": 0.2440944881889764,
                    "duration": 0.27661862499999756
                },
                {
                    "name": "G#3",
                    "midi": 56,
                    "time": 55.61490249999976,
                    "velocity": 0.18110236220472442,
                    "duration": 0.27661862499999756
                },
                {
                    "name": "G#4",
                    "midi": 68,
                    "time": 55.61490249999976,
                    "velocity": 0.29133858267716534,
                    "duration": 0.27661862499999756
                },
                {
                    "name": "G#3",
                    "midi": 56,
                    "time": 55.906079999999754,
                    "velocity": 0.16535433070866143,
                    "duration": 0.27661862500000467
                },
                {
                    "name": "B3",
                    "midi": 59,
                    "time": 55.906079999999754,
                    "velocity": 0.2283464566929134,
                    "duration": 0.27661862500000467
                },
                {
                    "name": "G#4",
                    "midi": 68,
                    "time": 55.906079999999754,
                    "velocity": 0.2755905511811024,
                    "duration": 0.27661862500000467
                },
                {
                    "name": "G#3",
                    "midi": 56,
                    "time": 56.19725749999976,
                    "velocity": 0.14173228346456693,
                    "duration": 0.27661862499999756
                },
                {
                    "name": "B3",
                    "midi": 59,
                    "time": 56.19725749999976,
                    "velocity": 0.2047244094488189,
                    "duration": 0.27661862499999756
                },
                {
                    "name": "G#4",
                    "midi": 68,
                    "time": 56.19725749999976,
                    "velocity": 0.2440944881889764,
                    "duration": 0.27661862499999756
                },
                {
                    "name": "G#3",
                    "midi": 56,
                    "time": 56.488434999999754,
                    "velocity": 0.15748031496062992,
                    "duration": 0.27661862499999756
                },
                {
                    "name": "B3",
                    "midi": 59,
                    "time": 56.488434999999754,
                    "velocity": 0.2125984251968504,
                    "duration": 0.27661862499999756
                },
                {
                    "name": "G#4",
                    "midi": 68,
                    "time": 56.488434999999754,
                    "velocity": 0.2677165354330709,
                    "duration": 0.27661862499999756
                },
                {
                    "name": "G#3",
                    "midi": 56,
                    "time": 56.77961249999975,
                    "velocity": 0.1732283464566929,
                    "duration": 0.27661862499999756
                },
                {
                    "name": "B3",
                    "midi": 59,
                    "time": 56.77961249999975,
                    "velocity": 0.23622047244094488,
                    "duration": 0.27661862499999756
                },
                {
                    "name": "G#4",
                    "midi": 68,
                    "time": 56.77961249999975,
                    "velocity": 0.28346456692913385,
                    "duration": 0.27661862499999756
                },
                {
                    "name": "G#3",
                    "midi": 56,
                    "time": 57.07078999999975,
                    "velocity": 0.18110236220472442,
                    "duration": 0.27661862499999756
                },
                {
                    "name": "B3",
                    "midi": 59,
                    "time": 57.07078999999975,
                    "velocity": 0.2440944881889764,
                    "duration": 0.27661862499999756
                },
                {
                    "name": "G#4",
                    "midi": 68,
                    "time": 57.07078999999975,
                    "velocity": 0.29133858267716534,
                    "duration": 0.27661862499999756
                },
                {
                    "name": "B3",
                    "midi": 59,
                    "time": 57.36196749999974,
                    "velocity": 0.2677165354330709,
                    "duration": 0.27661862499999756
                },
                {
                    "name": "G#3",
                    "midi": 56,
                    "time": 57.36196749999974,
                    "velocity": 0.1889763779527559,
                    "duration": 0.27661862499999756
                },
                {
                    "name": "G#4",
                    "midi": 68,
                    "time": 57.36196749999974,
                    "velocity": 0.3228346456692913,
                    "duration": 0.27661862499999756
                },
                {
                    "name": "G#3",
                    "midi": 56,
                    "time": 57.65314499999974,
                    "velocity": 0.33070866141732286,
                    "duration": 0.27661862499999756
                },
                {
                    "name": "B3",
                    "midi": 59,
                    "time": 57.65314499999974,
                    "velocity": 0.33070866141732286,
                    "duration": 0.27661862499999756
                },
                {
                    "name": "G#4",
                    "midi": 68,
                    "time": 57.65314499999974,
                    "velocity": 0.3937007874015748,
                    "duration": 0.27661862499999756
                },
                {
                    "name": "F2",
                    "midi": 41,
                    "time": 57.944322499999735,
                    "velocity": 0.31496062992125984,
                    "duration": 0.27661862499999756
                },
                {
                    "name": "F3",
                    "midi": 53,
                    "time": 57.944322499999735,
                    "velocity": 0.3779527559055118,
                    "duration": 0.27661862499999756
                },
                {
                    "name": "D2",
                    "midi": 38,
                    "time": 58.23549999999973,
                    "velocity": 0.3543307086614173,
                    "duration": 0.27661862499999756
                },
                {
                    "name": "D3",
                    "midi": 50,
                    "time": 58.23549999999973,
                    "velocity": 0.41732283464566927,
                    "duration": 0.27661862499999756
                },
                {
                    "name": "B1",
                    "midi": 35,
                    "time": 58.52667749999973,
                    "velocity": 0.3858267716535433,
                    "duration": 0.27661862499999756
                },
                {
                    "name": "B2",
                    "midi": 47,
                    "time": 58.52667749999973,
                    "velocity": 0.4566929133858268,
                    "duration": 0.27661862499999756
                },
                {
                    "name": "G#1",
                    "midi": 32,
                    "time": 58.817854999999724,
                    "velocity": 0.4251968503937008,
                    "duration": 0.27661862499999756
                },
                {
                    "name": "G#2",
                    "midi": 44,
                    "time": 58.817854999999724,
                    "velocity": 0.49606299212598426,
                    "duration": 0.27661862499999756
                },
                {
                    "name": "F1",
                    "midi": 29,
                    "time": 59.10903249999972,
                    "velocity": 0.4566929133858268,
                    "duration": 0.27661862499999756
                },
                {
                    "name": "F2",
                    "midi": 41,
                    "time": 59.10903249999972,
                    "velocity": 0.5433070866141733,
                    "duration": 0.27661862499999756
                },
                {
                    "name": "D#1",
                    "midi": 27,
                    "time": 59.40020999999972,
                    "velocity": 0.6062992125984252,
                    "duration": 0.27661862499999756
                },
                {
                    "name": "D#2",
                    "midi": 39,
                    "time": 59.40020999999972,
                    "velocity": 0.6771653543307087,
                    "duration": 0.27661862499999756
                },
                {
                    "name": "D#3",
                    "midi": 51,
                    "time": 59.69138749999971,
                    "velocity": 0.25196850393700787,
                    "duration": 0.27661862499999756
                },
                {
                    "name": "A#3",
                    "midi": 58,
                    "time": 59.69138749999971,
                    "velocity": 0.3543307086614173,
                    "duration": 0.27661862499999756
                },
                {
                    "name": "D#4",
                    "midi": 63,
                    "time": 59.69138749999971,
                    "velocity": 0.3543307086614173,
                    "duration": 0.27661862499999756
                },
                {
                    "name": "D#3",
                    "midi": 51,
                    "time": 59.98256499999971,
                    "velocity": 0.2677165354330709,
                    "duration": 0.27661862499999756
                },
                {
                    "name": "A#3",
                    "midi": 58,
                    "time": 59.98256499999971,
                    "velocity": 0.3779527559055118,
                    "duration": 0.27661862499999756
                },
                {
                    "name": "D#4",
                    "midi": 63,
                    "time": 59.98256499999971,
                    "velocity": 0.3779527559055118,
                    "duration": 0.27661862499999756
                },
                {
                    "name": "D#3",
                    "midi": 51,
                    "time": 60.273742499999706,
                    "velocity": 0.29133858267716534,
                    "duration": 0.27661862499999756
                },
                {
                    "name": "A#3",
                    "midi": 58,
                    "time": 60.273742499999706,
                    "velocity": 0.3937007874015748,
                    "duration": 0.27661862499999756
                },
                {
                    "name": "D#4",
                    "midi": 63,
                    "time": 60.273742499999706,
                    "velocity": 0.3937007874015748,
                    "duration": 0.27661862499999756
                },
                {
                    "name": "D#3",
                    "midi": 51,
                    "time": 60.5649199999997,
                    "velocity": 0.2677165354330709,
                    "duration": 0.27661862499999756
                },
                {
                    "name": "A#3",
                    "midi": 58,
                    "time": 60.5649199999997,
                    "velocity": 0.3779527559055118,
                    "duration": 0.27661862499999756
                },
                {
                    "name": "D#4",
                    "midi": 63,
                    "time": 60.5649199999997,
                    "velocity": 0.3779527559055118,
                    "duration": 0.27661862499999756
                },
                {
                    "name": "D#3",
                    "midi": 51,
                    "time": 60.8560974999997,
                    "velocity": 0.2677165354330709,
                    "duration": 0.27661862499999756
                },
                {
                    "name": "A#3",
                    "midi": 58,
                    "time": 60.8560974999997,
                    "velocity": 0.3779527559055118,
                    "duration": 0.27661862499999756
                },
                {
                    "name": "D#4",
                    "midi": 63,
                    "time": 60.8560974999997,
                    "velocity": 0.3779527559055118,
                    "duration": 0.27661862499999756
                },
                {
                    "name": "G#1",
                    "midi": 32,
                    "time": 61.147274999999695,
                    "velocity": 0.5590551181102362,
                    "duration": 0.27661862499999756
                },
                {
                    "name": "G#2",
                    "midi": 44,
                    "time": 61.147274999999695,
                    "velocity": 0.6062992125984252,
                    "duration": 0.27661862499999756
                },
                {
                    "name": "D#3",
                    "midi": 51,
                    "time": 61.43845249999969,
                    "velocity": 0.28346456692913385,
                    "duration": 0.27661862499999756
                },
                {
                    "name": "G#3",
                    "midi": 56,
                    "time": 61.43845249999969,
                    "velocity": 0.3228346456692913,
                    "duration": 0.27661862499999756
                },
                {
                    "name": "D#4",
                    "midi": 63,
                    "time": 61.43845249999969,
                    "velocity": 0.3858267716535433,
                    "duration": 0.27661862499999756
                },
                {
                    "name": "D#3",
                    "midi": 51,
                    "time": 61.72962999999969,
                    "velocity": 0.28346456692913385,
                    "duration": 0.27661862499999756
                },
                {
                    "name": "G#3",
                    "midi": 56,
                    "time": 61.72962999999969,
                    "velocity": 0.3228346456692913,
                    "duration": 0.27661862499999756
                },
                {
                    "name": "D#4",
                    "midi": 63,
                    "time": 61.72962999999969,
                    "velocity": 0.3779527559055118,
                    "duration": 0.27661862499999756
                },
                {
                    "name": "D#3",
                    "midi": 51,
                    "time": 62.020807499999684,
                    "velocity": 0.3228346456692913,
                    "duration": 0.27661862499999756
                },
                {
                    "name": "G#3",
                    "midi": 56,
                    "time": 62.020807499999684,
                    "velocity": 0.36220472440944884,
                    "duration": 0.27661862499999756
                },
                {
                    "name": "D#4",
                    "midi": 63,
                    "time": 62.020807499999684,
                    "velocity": 0.44881889763779526,
                    "duration": 0.27661862499999756
                },
                {
                    "name": "D#3",
                    "midi": 51,
                    "time": 62.31198499999968,
                    "velocity": 0.28346456692913385,
                    "duration": 0.27661862499999756
                },
                {
                    "name": "G#3",
                    "midi": 56,
                    "time": 62.31198499999968,
                    "velocity": 0.3228346456692913,
                    "duration": 0.27661862499999756
                },
                {
                    "name": "D#4",
                    "midi": 63,
                    "time": 62.31198499999968,
                    "velocity": 0.3858267716535433,
                    "duration": 0.27661862499999756
                },
                {
                    "name": "D#3",
                    "midi": 51,
                    "time": 62.60316249999968,
                    "velocity": 0.28346456692913385,
                    "duration": 0.27661862499999756
                },
                {
                    "name": "G#3",
                    "midi": 56,
                    "time": 62.60316249999968,
                    "velocity": 0.3228346456692913,
                    "duration": 0.27661862499999756
                },
                {
                    "name": "D#4",
                    "midi": 63,
                    "time": 62.60316249999968,
                    "velocity": 0.3858267716535433,
                    "duration": 0.27661862499999756
                },
                {
                    "name": "C#1",
                    "midi": 25,
                    "time": 62.89433999999967,
                    "velocity": 0.5433070866141733,
                    "duration": 0.27661862500000467
                },
                {
                    "name": "C#2",
                    "midi": 37,
                    "time": 62.89433999999967,
                    "velocity": 0.6456692913385826,
                    "duration": 0.27661862500000467
                },
                {
                    "name": "F3",
                    "midi": 53,
                    "time": 63.185517499999676,
                    "velocity": 0.18110236220472442,
                    "duration": 0.27661862499999756
                },
                {
                    "name": "G#3",
                    "midi": 56,
                    "time": 63.185517499999676,
                    "velocity": 0.2047244094488189,
                    "duration": 0.27661862499999756
                },
                {
                    "name": "C#4",
                    "midi": 61,
                    "time": 63.185517499999676,
                    "velocity": 0.2992125984251969,
                    "duration": 0.27661862499999756
                },
                {
                    "name": "F4",
                    "midi": 65,
                    "time": 63.185517499999676,
                    "velocity": 0.36220472440944884,
                    "duration": 0.27661862499999756
                },
                {
                    "name": "F3",
                    "midi": 53,
                    "time": 63.47669499999967,
                    "velocity": 0.18110236220472442,
                    "duration": 0.27661862499999756
                },
                {
                    "name": "G#3",
                    "midi": 56,
                    "time": 63.47669499999967,
                    "velocity": 0.2047244094488189,
                    "duration": 0.27661862499999756
                },
                {
                    "name": "C#4",
                    "midi": 61,
                    "time": 63.47669499999967,
                    "velocity": 0.2992125984251969,
                    "duration": 0.27661862499999756
                },
                {
                    "name": "F4",
                    "midi": 65,
                    "time": 63.47669499999967,
                    "velocity": 0.36220472440944884,
                    "duration": 0.27661862499999756
                },
                {
                    "name": "F3",
                    "midi": 53,
                    "time": 63.76787249999967,
                    "velocity": 0.1968503937007874,
                    "duration": 0.27661862499999756
                },
                {
                    "name": "G#3",
                    "midi": 56,
                    "time": 63.76787249999967,
                    "velocity": 0.2204724409448819,
                    "duration": 0.27661862499999756
                },
                {
                    "name": "C#4",
                    "midi": 61,
                    "time": 63.76787249999967,
                    "velocity": 0.33070866141732286,
                    "duration": 0.27661862499999756
                },
                {
                    "name": "F4",
                    "midi": 65,
                    "time": 63.76787249999967,
                    "velocity": 0.4015748031496063,
                    "duration": 0.27661862499999756
                },
                {
                    "name": "F3",
                    "midi": 53,
                    "time": 64.05904999999967,
                    "velocity": 0.18110236220472442,
                    "duration": 0.27661862499999756
                },
                {
                    "name": "G#3",
                    "midi": 56,
                    "time": 64.05904999999967,
                    "velocity": 0.2047244094488189,
                    "duration": 0.27661862499999756
                },
                {
                    "name": "C#4",
                    "midi": 61,
                    "time": 64.05904999999967,
                    "velocity": 0.2992125984251969,
                    "duration": 0.27661862499999756
                },
                {
                    "name": "F4",
                    "midi": 65,
                    "time": 64.05904999999967,
                    "velocity": 0.36220472440944884,
                    "duration": 0.27661862499999756
                },
                {
                    "name": "F3",
                    "midi": 53,
                    "time": 64.35022749999968,
                    "velocity": 0.18110236220472442,
                    "duration": 0.27661862499999756
                },
                {
                    "name": "G#3",
                    "midi": 56,
                    "time": 64.35022749999968,
                    "velocity": 0.2047244094488189,
                    "duration": 0.27661862499999756
                },
                {
                    "name": "C#4",
                    "midi": 61,
                    "time": 64.35022749999968,
                    "velocity": 0.2992125984251969,
                    "duration": 0.27661862499999756
                },
                {
                    "name": "F4",
                    "midi": 65,
                    "time": 64.35022749999968,
                    "velocity": 0.36220472440944884,
                    "duration": 0.27661862499999756
                },
                {
                    "name": "D#1",
                    "midi": 27,
                    "time": 64.64140499999968,
                    "velocity": 0.47244094488188976,
                    "duration": 0.27661862499999756
                },
                {
                    "name": "D#2",
                    "midi": 39,
                    "time": 64.64140499999968,
                    "velocity": 0.5590551181102362,
                    "duration": 0.27661862499999756
                },
                {
                    "name": "G3",
                    "midi": 55,
                    "time": 64.93258249999968,
                    "velocity": 0.1732283464566929,
                    "duration": 0.27661862499999756
                },
                {
                    "name": "A#3",
                    "midi": 58,
                    "time": 64.93258249999968,
                    "velocity": 0.23622047244094488,
                    "duration": 0.27661862499999756
                },
                {
                    "name": "G4",
                    "midi": 67,
                    "time": 64.93258249999968,
                    "velocity": 0.29133858267716534,
                    "duration": 0.27661862499999756
                },
                {
                    "name": "G3",
                    "midi": 55,
                    "time": 65.22375999999969,
                    "velocity": 0.18110236220472442,
                    "duration": 0.27661862499999756
                },
                {
                    "name": "A#3",
                    "midi": 58,
                    "time": 65.22375999999969,
                    "velocity": 0.25196850393700787,
                    "duration": 0.27661862499999756
                },
                {
                    "name": "G4",
                    "midi": 67,
                    "time": 65.22375999999969,
                    "velocity": 0.2992125984251969,
                    "duration": 0.27661862499999756
                },
                {
                    "name": "F1",
                    "midi": 29,
                    "time": 65.51493749999969,
                    "velocity": 0.4330708661417323,
                    "duration": 0.2766186250000118
                },
                {
                    "name": "F2",
                    "midi": 41,
                    "time": 65.51493749999969,
                    "velocity": 0.5118110236220472,
                    "duration": 0.2766186250000118
                },
                {
                    "name": "F3",
                    "midi": 53,
                    "time": 65.8061149999997,
                    "velocity": 0.18110236220472442,
                    "duration": 0.27661862499999756
                },
                {
                    "name": "G#3",
                    "midi": 56,
                    "time": 65.8061149999997,
                    "velocity": 0.18110236220472442,
                    "duration": 0.27661862499999756
                },
                {
                    "name": "C#4",
                    "midi": 61,
                    "time": 65.8061149999997,
                    "velocity": 0.25196850393700787,
                    "duration": 0.27661862499999756
                },
                {
                    "name": "G#4",
                    "midi": 68,
                    "time": 65.8061149999997,
                    "velocity": 0.2992125984251969,
                    "duration": 0.27661862499999756
                },
                {
                    "name": "F3",
                    "midi": 53,
                    "time": 66.09729249999971,
                    "velocity": 0.18110236220472442,
                    "duration": 0.27661862499999756
                },
                {
                    "name": "G#3",
                    "midi": 56,
                    "time": 66.09729249999971,
                    "velocity": 0.18110236220472442,
                    "duration": 0.27661862499999756
                },
                {
                    "name": "C#4",
                    "midi": 61,
                    "time": 66.09729249999971,
                    "velocity": 0.25196850393700787,
                    "duration": 0.27661862499999756
                },
                {
                    "name": "G#4",
                    "midi": 68,
                    "time": 66.09729249999971,
                    "velocity": 0.2992125984251969,
                    "duration": 0.27661862499999756
                },
                {
                    "name": "D#1",
                    "midi": 27,
                    "time": 66.38846999999971,
                    "velocity": 0.5039370078740157,
                    "duration": 0.27661862499999756
                },
                {
                    "name": "D#2",
                    "midi": 39,
                    "time": 66.38846999999971,
                    "velocity": 0.5590551181102362,
                    "duration": 0.27661862499999756
                },
                {
                    "name": "G3",
                    "midi": 55,
                    "time": 66.67964749999972,
                    "velocity": 0.2204724409448819,
                    "duration": 0.27661862499999756
                },
                {
                    "name": "A#3",
                    "midi": 58,
                    "time": 66.67964749999972,
                    "velocity": 0.25196850393700787,
                    "duration": 0.27661862499999756
                },
                {
                    "name": "C#4",
                    "midi": 61,
                    "time": 66.67964749999972,
                    "velocity": 0.2992125984251969,
                    "duration": 0.27661862499999756
                },
                {
                    "name": "G4",
                    "midi": 67,
                    "time": 66.67964749999972,
                    "velocity": 0.36220472440944884,
                    "duration": 0.27661862499999756
                },
                {
                    "name": "G3",
                    "midi": 55,
                    "time": 66.97082499999972,
                    "velocity": 0.2204724409448819,
                    "duration": 0.27661862499999756
                },
                {
                    "name": "A#3",
                    "midi": 58,
                    "time": 66.97082499999972,
                    "velocity": 0.25196850393700787,
                    "duration": 0.27661862499999756
                },
                {
                    "name": "C#4",
                    "midi": 61,
                    "time": 66.97082499999972,
                    "velocity": 0.2992125984251969,
                    "duration": 0.27661862499999756
                },
                {
                    "name": "G4",
                    "midi": 67,
                    "time": 66.97082499999972,
                    "velocity": 0.36220472440944884,
                    "duration": 0.27661862499999756
                },
                {
                    "name": "D#4",
                    "midi": 63,
                    "time": 67.26200249999972,
                    "velocity": 0.33070866141732286,
                    "duration": 0.27661862499999756
                },
                {
                    "name": "G3",
                    "midi": 55,
                    "time": 67.26200249999972,
                    "velocity": 0.2440944881889764,
                    "duration": 0.27661862499999756
                },
                {
                    "name": "A#3",
                    "midi": 58,
                    "time": 67.26200249999972,
                    "velocity": 0.2755905511811024,
                    "duration": 0.27661862499999756
                },
                {
                    "name": "C#4",
                    "midi": 61,
                    "time": 67.26200249999972,
                    "velocity": 0.33070866141732286,
                    "duration": 0.27661862499999756
                },
                {
                    "name": "G4",
                    "midi": 67,
                    "time": 67.26200249999972,
                    "velocity": 0.4015748031496063,
                    "duration": 0.27661862499999756
                },
                {
                    "name": "D#4",
                    "midi": 63,
                    "time": 67.55317999999973,
                    "velocity": 0.2992125984251969,
                    "duration": 0.27661862499999756
                },
                {
                    "name": "G3",
                    "midi": 55,
                    "time": 67.55317999999973,
                    "velocity": 0.2204724409448819,
                    "duration": 0.27661862499999756
                },
                {
                    "name": "A#3",
                    "midi": 58,
                    "time": 67.55317999999973,
                    "velocity": 0.25196850393700787,
                    "duration": 0.27661862499999756
                },
                {
                    "name": "C#4",
                    "midi": 61,
                    "time": 67.55317999999973,
                    "velocity": 0.2992125984251969,
                    "duration": 0.27661862499999756
                },
                {
                    "name": "G4",
                    "midi": 67,
                    "time": 67.55317999999973,
                    "velocity": 0.36220472440944884,
                    "duration": 0.27661862499999756
                },
                {
                    "name": "G3",
                    "midi": 55,
                    "time": 67.84435749999973,
                    "velocity": 0.2204724409448819,
                    "duration": 0.27661862499999756
                },
                {
                    "name": "A#3",
                    "midi": 58,
                    "time": 67.84435749999973,
                    "velocity": 0.25196850393700787,
                    "duration": 0.27661862499999756
                },
                {
                    "name": "C#4",
                    "midi": 61,
                    "time": 67.84435749999973,
                    "velocity": 0.2992125984251969,
                    "duration": 0.27661862499999756
                },
                {
                    "name": "G4",
                    "midi": 67,
                    "time": 67.84435749999973,
                    "velocity": 0.36220472440944884,
                    "duration": 0.27661862499999756
                },
                {
                    "name": "F1",
                    "midi": 29,
                    "time": 68.13553499999973,
                    "velocity": 0.49606299212598426,
                    "duration": 0.27661862499999756
                },
                {
                    "name": "F2",
                    "midi": 41,
                    "time": 68.13553499999973,
                    "velocity": 0.5590551181102362,
                    "duration": 0.27661862499999756
                },
                {
                    "name": "F3",
                    "midi": 53,
                    "time": 68.42671249999974,
                    "velocity": 0.2125984251968504,
                    "duration": 0.27661862499999756
                },
                {
                    "name": "C4",
                    "midi": 60,
                    "time": 68.42671249999974,
                    "velocity": 0.23622047244094488,
                    "duration": 0.27661862499999756
                },
                {
                    "name": "F4",
                    "midi": 65,
                    "time": 68.42671249999974,
                    "velocity": 0.29133858267716534,
                    "duration": 0.27661862499999756
                },
                {
                    "name": "F3",
                    "midi": 53,
                    "time": 68.71788999999974,
                    "velocity": 0.2204724409448819,
                    "duration": 0.27661862499999756
                },
                {
                    "name": "C4",
                    "midi": 60,
                    "time": 68.71788999999974,
                    "velocity": 0.25196850393700787,
                    "duration": 0.27661862499999756
                },
                {
                    "name": "F4",
                    "midi": 65,
                    "time": 68.71788999999974,
                    "velocity": 0.2992125984251969,
                    "duration": 0.27661862499999756
                },
                {
                    "name": "A#1",
                    "midi": 34,
                    "time": 69.00906749999974,
                    "velocity": 0.4645669291338583,
                    "duration": 0.27661862499999756
                },
                {
                    "name": "A#2",
                    "midi": 46,
                    "time": 69.00906749999974,
                    "velocity": 0.5118110236220472,
                    "duration": 0.27661862499999756
                },
                {
                    "name": "F3",
                    "midi": 53,
                    "time": 69.30024499999975,
                    "velocity": 0.2125984251968504,
                    "duration": 0.27661862499999756
                },
                {
                    "name": "A#3",
                    "midi": 58,
                    "time": 69.30024499999975,
                    "velocity": 0.2440944881889764,
                    "duration": 0.27661862499999756
                },
                {
                    "name": "F4",
                    "midi": 65,
                    "time": 69.30024499999975,
                    "velocity": 0.28346456692913385,
                    "duration": 0.27661862499999756
                },
                {
                    "name": "F3",
                    "midi": 53,
                    "time": 69.59142249999975,
                    "velocity": 0.2125984251968504,
                    "duration": 0.27661862499999756
                },
                {
                    "name": "A#3",
                    "midi": 58,
                    "time": 69.59142249999975,
                    "velocity": 0.2440944881889764,
                    "duration": 0.27661862499999756
                },
                {
                    "name": "F4",
                    "midi": 65,
                    "time": 69.59142249999975,
                    "velocity": 0.28346456692913385,
                    "duration": 0.27661862499999756
                },
                {
                    "name": "D#2",
                    "midi": 39,
                    "time": 69.88259999999975,
                    "velocity": 0.5118110236220472,
                    "duration": 0.27661862499999756
                },
                {
                    "name": "D#3",
                    "midi": 51,
                    "time": 69.88259999999975,
                    "velocity": 0.5118110236220472,
                    "duration": 0.27661862499999756
                },
                {
                    "name": "F3",
                    "midi": 53,
                    "time": 70.17377749999976,
                    "velocity": 0.2125984251968504,
                    "duration": 0.27661862499999756
                },
                {
                    "name": "A#3",
                    "midi": 58,
                    "time": 70.17377749999976,
                    "velocity": 0.2440944881889764,
                    "duration": 0.27661862499999756
                },
                {
                    "name": "F4",
                    "midi": 65,
                    "time": 70.17377749999976,
                    "velocity": 0.29133858267716534,
                    "duration": 0.27661862499999756
                },
                {
                    "name": "D#3",
                    "midi": 51,
                    "time": 70.46495499999976,
                    "velocity": 0.2125984251968504,
                    "duration": 0.27661862499999756
                },
                {
                    "name": "A#3",
                    "midi": 58,
                    "time": 70.46495499999976,
                    "velocity": 0.2440944881889764,
                    "duration": 0.27661862499999756
                },
                {
                    "name": "D#4",
                    "midi": 63,
                    "time": 70.46495499999976,
                    "velocity": 0.29133858267716534,
                    "duration": 0.27661862499999756
                },
                {
                    "name": "G#2",
                    "midi": 44,
                    "time": 70.75613249999977,
                    "velocity": 0.3779527559055118,
                    "duration": 0.2766186250000118
                },
                {
                    "name": "D#3",
                    "midi": 51,
                    "time": 71.04730999999978,
                    "velocity": 0.1732283464566929,
                    "duration": 0.27661862499999756
                },
                {
                    "name": "G#3",
                    "midi": 56,
                    "time": 71.04730999999978,
                    "velocity": 0.2440944881889764,
                    "duration": 0.27661862499999756
                },
                {
                    "name": "D#4",
                    "midi": 63,
                    "time": 71.04730999999978,
                    "velocity": 0.29133858267716534,
                    "duration": 0.27661862499999756
                },
                {
                    "name": "D#3",
                    "midi": 51,
                    "time": 71.33848749999979,
                    "velocity": 0.14960629921259844,
                    "duration": 0.27661862499999756
                },
                {
                    "name": "G#3",
                    "midi": 56,
                    "time": 71.33848749999979,
                    "velocity": 0.2125984251968504,
                    "duration": 0.27661862499999756
                },
                {
                    "name": "D#4",
                    "midi": 63,
                    "time": 71.33848749999979,
                    "velocity": 0.25196850393700787,
                    "duration": 0.27661862499999756
                },
                {
                    "name": "D#2",
                    "midi": 39,
                    "time": 71.62966499999979,
                    "velocity": 0.3779527559055118,
                    "duration": 0.27661862499999756
                },
                {
                    "name": "D#3",
                    "midi": 51,
                    "time": 71.9208424999998,
                    "velocity": 0.11811023622047244,
                    "duration": 0.27661862499999756
                },
                {
                    "name": "D#4",
                    "midi": 63,
                    "time": 71.9208424999998,
                    "velocity": 0.2047244094488189,
                    "duration": 0.27661862499999756
                },
                {
                    "name": "D#3",
                    "midi": 51,
                    "time": 72.2120199999998,
                    "velocity": 0.10236220472440945,
                    "duration": 0.27661862499999756
                },
                {
                    "name": "D#4",
                    "midi": 63,
                    "time": 72.2120199999998,
                    "velocity": 0.1968503937007874,
                    "duration": 0.27661862499999756
                },
                {
                    "name": "D#3",
                    "midi": 51,
                    "time": 72.5031974999998,
                    "velocity": 0.11811023622047244,
                    "duration": 0.27661862499999756
                },
                {
                    "name": "D#4",
                    "midi": 63,
                    "time": 72.5031974999998,
                    "velocity": 0.2047244094488189,
                    "duration": 0.27661862499999756
                },
                {
                    "name": "D#3",
                    "midi": 51,
                    "time": 72.7943749999998,
                    "velocity": 0.09448818897637795,
                    "duration": 0.27661862499999756
                },
                {
                    "name": "D#4",
                    "midi": 63,
                    "time": 72.7943749999998,
                    "velocity": 0.18110236220472442,
                    "duration": 0.27661862499999756
                },
                {
                    "name": "D#3",
                    "midi": 51,
                    "time": 73.0855524999998,
                    "velocity": 0.08661417322834646,
                    "duration": 0.27661862499999756
                },
                {
                    "name": "D#4",
                    "midi": 63,
                    "time": 73.0855524999998,
                    "velocity": 0.1732283464566929,
                    "duration": 0.27661862499999756
                },
                {
                    "name": "D#2",
                    "midi": 39,
                    "time": 73.37672999999981,
                    "velocity": 0.2204724409448819,
                    "duration": 0.27661862499999756
                },
                {
                    "name": "D#3",
                    "midi": 51,
                    "time": 73.66790749999981,
                    "velocity": 0.14173228346456693,
                    "duration": 0.27661862499999756
                },
                {
                    "name": "A3",
                    "midi": 57,
                    "time": 73.66790749999981,
                    "velocity": 0.16535433070866143,
                    "duration": 0.27661862499999756
                },
                {
                    "name": "D#4",
                    "midi": 63,
                    "time": 73.66790749999981,
                    "velocity": 0.1968503937007874,
                    "duration": 0.27661862499999756
                },
                {
                    "name": "D#3",
                    "midi": 51,
                    "time": 73.95908499999982,
                    "velocity": 0.14173228346456693,
                    "duration": 0.27661862499999756
                },
                {
                    "name": "A3",
                    "midi": 57,
                    "time": 73.95908499999982,
                    "velocity": 0.16535433070866143,
                    "duration": 0.27661862499999756
                },
                {
                    "name": "D#4",
                    "midi": 63,
                    "time": 73.95908499999982,
                    "velocity": 0.1968503937007874,
                    "duration": 0.27661862499999756
                },
                {
                    "name": "D#3",
                    "midi": 51,
                    "time": 74.25026249999982,
                    "velocity": 0.14173228346456693,
                    "duration": 0.27661862499999756
                },
                {
                    "name": "A3",
                    "midi": 57,
                    "time": 74.25026249999982,
                    "velocity": 0.16535433070866143,
                    "duration": 0.27661862499999756
                },
                {
                    "name": "D#4",
                    "midi": 63,
                    "time": 74.25026249999982,
                    "velocity": 0.1968503937007874,
                    "duration": 0.27661862499999756
                },
                {
                    "name": "D#3",
                    "midi": 51,
                    "time": 74.54143999999982,
                    "velocity": 0.14173228346456693,
                    "duration": 0.27661862499999756
                },
                {
                    "name": "A3",
                    "midi": 57,
                    "time": 74.54143999999982,
                    "velocity": 0.16535433070866143,
                    "duration": 0.27661862499999756
                },
                {
                    "name": "D#4",
                    "midi": 63,
                    "time": 74.54143999999982,
                    "velocity": 0.1968503937007874,
                    "duration": 0.27661862499999756
                },
                {
                    "name": "D#4",
                    "midi": 63,
                    "time": 74.83261749999983,
                    "velocity": 0.1968503937007874,
                    "duration": 0.27661862499999756
                },
                {
                    "name": "D#3",
                    "midi": 51,
                    "time": 74.83261749999983,
                    "velocity": 0.12598425196850394,
                    "duration": 0.27661862499999756
                },
                {
                    "name": "A3",
                    "midi": 57,
                    "time": 74.83261749999983,
                    "velocity": 0.1732283464566929,
                    "duration": 0.27661862499999756
                },
                {
                    "name": "E2",
                    "midi": 40,
                    "time": 75.12379499999983,
                    "velocity": 0.2204724409448819,
                    "duration": 0.27661862499999756
                },
                {
                    "name": "E3",
                    "midi": 52,
                    "time": 75.41497249999983,
                    "velocity": 0.11023622047244094,
                    "duration": 0.27661862499999756
                },
                {
                    "name": "G#3",
                    "midi": 56,
                    "time": 75.41497249999983,
                    "velocity": 0.15748031496062992,
                    "duration": 0.27661862499999756
                },
                {
                    "name": "E4",
                    "midi": 64,
                    "time": 75.41497249999983,
                    "velocity": 0.18110236220472442,
                    "duration": 0.27661862499999756
                },
                {
                    "name": "E3",
                    "midi": 52,
                    "time": 75.70614999999984,
                    "velocity": 0.11811023622047244,
                    "duration": 0.27661862499999756
                },
                {
                    "name": "G#3",
                    "midi": 56,
                    "time": 75.70614999999984,
                    "velocity": 0.16535433070866143,
                    "duration": 0.27661862499999756
                },
                {
                    "name": "E4",
                    "midi": 64,
                    "time": 75.70614999999984,
                    "velocity": 0.1968503937007874,
                    "duration": 0.27661862499999756
                },
                {
                    "name": "E3",
                    "midi": 52,
                    "time": 75.99732749999984,
                    "velocity": 0.12598425196850394,
                    "duration": 0.27661862499999756
                },
                {
                    "name": "G#3",
                    "midi": 56,
                    "time": 75.99732749999984,
                    "velocity": 0.1732283464566929,
                    "duration": 0.27661862499999756
                },
                {
                    "name": "E4",
                    "midi": 64,
                    "time": 75.99732749999984,
                    "velocity": 0.2125984251968504,
                    "duration": 0.27661862499999756
                },
                {
                    "name": "E3",
                    "midi": 52,
                    "time": 76.28850499999984,
                    "velocity": 0.13385826771653545,
                    "duration": 0.27661862499999756
                },
                {
                    "name": "G#3",
                    "midi": 56,
                    "time": 76.28850499999984,
                    "velocity": 0.1732283464566929,
                    "duration": 0.27661862499999756
                },
                {
                    "name": "D#4",
                    "midi": 63,
                    "time": 76.28850499999984,
                    "velocity": 0.2204724409448819,
                    "duration": 0.27661862499999756
                },
                {
                    "name": "G#3",
                    "midi": 56,
                    "time": 76.57968249999985,
                    "velocity": 0.1889763779527559,
                    "duration": 0.27661862499999756
                },
                {
                    "name": "E3",
                    "midi": 52,
                    "time": 76.57968249999985,
                    "velocity": 0.13385826771653545,
                    "duration": 0.27661862499999756
                },
                {
                    "name": "C#4",
                    "midi": 61,
                    "time": 76.57968249999985,
                    "velocity": 0.2283464566929134,
                    "duration": 0.27661862499999756
                },
                {
                    "name": "B1",
                    "midi": 35,
                    "time": 76.87085999999985,
                    "velocity": 0.30708661417322836,
                    "duration": 0.27661862499999756
                },
                {
                    "name": "B2",
                    "midi": 47,
                    "time": 76.87085999999985,
                    "velocity": 0.30708661417322836,
                    "duration": 0.27661862499999756
                },
                {
                    "name": "B3",
                    "midi": 59,
                    "time": 77.16203749999985,
                    "velocity": 0.2047244094488189,
                    "duration": 0.27661862499999756
                },
                {
                    "name": "D#4",
                    "midi": 63,
                    "time": 77.16203749999985,
                    "velocity": 0.2283464566929134,
                    "duration": 0.27661862499999756
                },
                {
                    "name": "A4",
                    "midi": 69,
                    "time": 77.16203749999985,
                    "velocity": 0.2755905511811024,
                    "duration": 0.27661862499999756
                },
                {
                    "name": "B3",
                    "midi": 59,
                    "time": 77.45321499999986,
                    "velocity": 0.2047244094488189,
                    "duration": 0.27661862499999756
                },
                {
                    "name": "D#4",
                    "midi": 63,
                    "time": 77.45321499999986,
                    "velocity": 0.2283464566929134,
                    "duration": 0.27661862499999756
                },
                {
                    "name": "A4",
                    "midi": 69,
                    "time": 77.45321499999986,
                    "velocity": 0.2755905511811024,
                    "duration": 0.27661862499999756
                },
                {
                    "name": "B3",
                    "midi": 59,
                    "time": 77.74439249999986,
                    "velocity": 0.2047244094488189,
                    "duration": 0.27661862499999756
                },
                {
                    "name": "D#4",
                    "midi": 63,
                    "time": 77.74439249999986,
                    "velocity": 0.2283464566929134,
                    "duration": 0.27661862499999756
                },
                {
                    "name": "A4",
                    "midi": 69,
                    "time": 77.74439249999986,
                    "velocity": 0.2755905511811024,
                    "duration": 0.27661862499999756
                },
                {
                    "name": "B3",
                    "midi": 59,
                    "time": 78.03556999999986,
                    "velocity": 0.2047244094488189,
                    "duration": 0.27661862499999756
                },
                {
                    "name": "C#4",
                    "midi": 61,
                    "time": 78.03556999999986,
                    "velocity": 0.2283464566929134,
                    "duration": 0.27661862499999756
                },
                {
                    "name": "A4",
                    "midi": 69,
                    "time": 78.03556999999986,
                    "velocity": 0.2755905511811024,
                    "duration": 0.27661862499999756
                },
                {
                    "name": "A4",
                    "midi": 69,
                    "time": 78.32674749999987,
                    "velocity": 0.2755905511811024,
                    "duration": 0.27661862499999756
                },
                {
                    "name": "B3",
                    "midi": 59,
                    "time": 78.32674749999987,
                    "velocity": 0.18110236220472442,
                    "duration": 0.27661862499999756
                },
                {
                    "name": "D#4",
                    "midi": 63,
                    "time": 78.32674749999987,
                    "velocity": 0.2440944881889764,
                    "duration": 0.27661862499999756
                },
                {
                    "name": "E2",
                    "midi": 40,
                    "time": 78.61792499999987,
                    "velocity": 0.30708661417322836,
                    "duration": 0.27661862499999756
                },
                {
                    "name": "E3",
                    "midi": 52,
                    "time": 78.61792499999987,
                    "velocity": 0.3937007874015748,
                    "duration": 0.27661862499999756
                },
                {
                    "name": "B3",
                    "midi": 59,
                    "time": 78.90910249999988,
                    "velocity": 0.16535433070866143,
                    "duration": 0.27661862499999756
                },
                {
                    "name": "E4",
                    "midi": 64,
                    "time": 78.90910249999988,
                    "velocity": 0.2283464566929134,
                    "duration": 0.27661862499999756
                },
                {
                    "name": "B4",
                    "midi": 71,
                    "time": 78.90910249999988,
                    "velocity": 0.2755905511811024,
                    "duration": 0.27661862499999756
                },
                {
                    "name": "B3",
                    "midi": 59,
                    "time": 79.20027999999988,
                    "velocity": 0.18110236220472442,
                    "duration": 0.27661862499999756
                },
                {
                    "name": "E4",
                    "midi": 64,
                    "time": 79.20027999999988,
                    "velocity": 0.2440944881889764,
                    "duration": 0.27661862499999756
                },
                {
                    "name": "B4",
                    "midi": 71,
                    "time": 79.20027999999988,
                    "velocity": 0.28346456692913385,
                    "duration": 0.27661862499999756
                },
                {
                    "name": "B3",
                    "midi": 59,
                    "time": 79.49145749999988,
                    "velocity": 0.1889763779527559,
                    "duration": 0.27661862499999756
                },
                {
                    "name": "E4",
                    "midi": 64,
                    "time": 79.49145749999988,
                    "velocity": 0.25984251968503935,
                    "duration": 0.27661862499999756
                },
                {
                    "name": "B4",
                    "midi": 71,
                    "time": 79.49145749999988,
                    "velocity": 0.30708661417322836,
                    "duration": 0.27661862499999756
                },
                {
                    "name": "D#2",
                    "midi": 39,
                    "time": 79.78263499999989,
                    "velocity": 0.31496062992125984,
                    "duration": 0.27661862499999756
                },
                {
                    "name": "D#3",
                    "midi": 51,
                    "time": 79.78263499999989,
                    "velocity": 0.3858267716535433,
                    "duration": 0.27661862499999756
                },
                {
                    "name": "D3",
                    "midi": 50,
                    "time": 80.07381249999989,
                    "velocity": 0.4330708661417323,
                    "duration": 0.27661862499999756
                },
                {
                    "name": "D2",
                    "midi": 38,
                    "time": 80.07381249999989,
                    "velocity": 0.36220472440944884,
                    "duration": 0.27661862499999756
                },
                {
                    "name": "C#2",
                    "midi": 37,
                    "time": 80.36498999999989,
                    "velocity": 0.3779527559055118,
                    "duration": 0.2766186250000118
                },
                {
                    "name": "C#3",
                    "midi": 49,
                    "time": 80.36498999999989,
                    "velocity": 0.47244094488188976,
                    "duration": 0.2766186250000118
                },
                {
                    "name": "F3",
                    "midi": 53,
                    "time": 80.65616749999991,
                    "velocity": 0.1732283464566929,
                    "duration": 0.27661862499999756
                },
                {
                    "name": "B3",
                    "midi": 59,
                    "time": 80.65616749999991,
                    "velocity": 0.1968503937007874,
                    "duration": 0.27661862499999756
                },
                {
                    "name": "F4",
                    "midi": 65,
                    "time": 80.65616749999991,
                    "velocity": 0.23622047244094488,
                    "duration": 0.27661862499999756
                },
                {
                    "name": "F3",
                    "midi": 53,
                    "time": 80.94734499999991,
                    "velocity": 0.1732283464566929,
                    "duration": 0.27661862499999756
                },
                {
                    "name": "B3",
                    "midi": 59,
                    "time": 80.94734499999991,
                    "velocity": 0.1968503937007874,
                    "duration": 0.27661862499999756
                },
                {
                    "name": "F4",
                    "midi": 65,
                    "time": 80.94734499999991,
                    "velocity": 0.23622047244094488,
                    "duration": 0.27661862499999756
                },
                {
                    "name": "F3",
                    "midi": 53,
                    "time": 81.23852249999992,
                    "velocity": 0.1732283464566929,
                    "duration": 0.27661862499999756
                },
                {
                    "name": "B3",
                    "midi": 59,
                    "time": 81.23852249999992,
                    "velocity": 0.1968503937007874,
                    "duration": 0.27661862499999756
                },
                {
                    "name": "F4",
                    "midi": 65,
                    "time": 81.23852249999992,
                    "velocity": 0.23622047244094488,
                    "duration": 0.27661862499999756
                },
                {
                    "name": "F3",
                    "midi": 53,
                    "time": 81.52969999999992,
                    "velocity": 0.1732283464566929,
                    "duration": 0.2766186250000118
                },
                {
                    "name": "B3",
                    "midi": 59,
                    "time": 81.52969999999992,
                    "velocity": 0.1968503937007874,
                    "duration": 0.2766186250000118
                },
                {
                    "name": "F4",
                    "midi": 65,
                    "time": 81.52969999999992,
                    "velocity": 0.23622047244094488,
                    "duration": 0.2766186250000118
                },
                {
                    "name": "F4",
                    "midi": 65,
                    "time": 81.82087749999994,
                    "velocity": 0.23622047244094488,
                    "duration": 0.27661862499999756
                },
                {
                    "name": "F3",
                    "midi": 53,
                    "time": 81.82087749999994,
                    "velocity": 0.14960629921259844,
                    "duration": 0.27661862499999756
                },
                {
                    "name": "B3",
                    "midi": 59,
                    "time": 81.82087749999994,
                    "velocity": 0.2125984251968504,
                    "duration": 0.27661862499999756
                },
                {
                    "name": "F#2",
                    "midi": 42,
                    "time": 82.11205499999994,
                    "velocity": 0.2677165354330709,
                    "duration": 0.27661862499999756
                },
                {
                    "name": "F#3",
                    "midi": 54,
                    "time": 82.40323249999994,
                    "velocity": 0.13385826771653545,
                    "duration": 0.27661862499999756
                },
                {
                    "name": "A#3",
                    "midi": 58,
                    "time": 82.40323249999994,
                    "velocity": 0.1889763779527559,
                    "duration": 0.27661862499999756
                },
                {
                    "name": "F#4",
                    "midi": 66,
                    "time": 82.40323249999994,
                    "velocity": 0.2204724409448819,
                    "duration": 0.27661862499999756
                },
                {
                    "name": "F#3",
                    "midi": 54,
                    "time": 82.69440999999995,
                    "velocity": 0.14173228346456693,
                    "duration": 0.27661862499999756
                },
                {
                    "name": "A#3",
                    "midi": 58,
                    "time": 82.69440999999995,
                    "velocity": 0.1968503937007874,
                    "duration": 0.27661862499999756
                },
                {
                    "name": "F#4",
                    "midi": 66,
                    "time": 82.69440999999995,
                    "velocity": 0.23622047244094488,
                    "duration": 0.27661862499999756
                },
                {
                    "name": "F#3",
                    "midi": 54,
                    "time": 82.98558749999995,
                    "velocity": 0.14960629921259844,
                    "duration": 0.2766186250000118
                },
                {
                    "name": "A#3",
                    "midi": 58,
                    "time": 82.98558749999995,
                    "velocity": 0.2125984251968504,
                    "duration": 0.2766186250000118
                },
                {
                    "name": "F#4",
                    "midi": 66,
                    "time": 82.98558749999995,
                    "velocity": 0.25196850393700787,
                    "duration": 0.2766186250000118
                },
                {
                    "name": "F#3",
                    "midi": 54,
                    "time": 83.27676499999997,
                    "velocity": 0.15748031496062992,
                    "duration": 0.27661862499999756
                },
                {
                    "name": "A#3",
                    "midi": 58,
                    "time": 83.27676499999997,
                    "velocity": 0.2125984251968504,
                    "duration": 0.27661862499999756
                },
                {
                    "name": "F4",
                    "midi": 65,
                    "time": 83.27676499999997,
                    "velocity": 0.25984251968503935,
                    "duration": 0.27661862499999756
                },
                {
                    "name": "A#3",
                    "midi": 58,
                    "time": 83.56794249999997,
                    "velocity": 0.2283464566929134,
                    "duration": 0.27661862499999756
                },
                {
                    "name": "F#3",
                    "midi": 54,
                    "time": 83.56794249999997,
                    "velocity": 0.16535433070866143,
                    "duration": 0.27661862499999756
                },
                {
                    "name": "D#4",
                    "midi": 63,
                    "time": 83.56794249999997,
                    "velocity": 0.2755905511811024,
                    "duration": 0.27661862499999756
                },
                {
                    "name": "C#2",
                    "midi": 37,
                    "time": 83.85911999999998,
                    "velocity": 0.30708661417322836,
                    "duration": 0.27661862499999756
                },
                {
                    "name": "C#3",
                    "midi": 49,
                    "time": 83.85911999999998,
                    "velocity": 0.30708661417322836,
                    "duration": 0.27661862499999756
                },
                {
                    "name": "C#4",
                    "midi": 61,
                    "time": 84.15029749999998,
                    "velocity": 0.2283464566929134,
                    "duration": 0.27661862499999756
                },
                {
                    "name": "G#3",
                    "midi": 56,
                    "time": 84.15029749999998,
                    "velocity": 0.2047244094488189,
                    "duration": 0.27661862499999756
                },
                {
                    "name": "B3",
                    "midi": 59,
                    "time": 84.15029749999998,
                    "velocity": 0.2283464566929134,
                    "duration": 0.27661862499999756
                },
                {
                    "name": "G#4",
                    "midi": 68,
                    "time": 84.15029749999998,
                    "velocity": 0.2755905511811024,
                    "duration": 0.27661862499999756
                },
                {
                    "name": "C#4",
                    "midi": 61,
                    "time": 84.44147499999998,
                    "velocity": 0.2283464566929134,
                    "duration": 0.27661862499999756
                },
                {
                    "name": "G#3",
                    "midi": 56,
                    "time": 84.44147499999998,
                    "velocity": 0.2047244094488189,
                    "duration": 0.27661862499999756
                },
                {
                    "name": "B3",
                    "midi": 59,
                    "time": 84.44147499999998,
                    "velocity": 0.2283464566929134,
                    "duration": 0.27661862499999756
                },
                {
                    "name": "G#4",
                    "midi": 68,
                    "time": 84.44147499999998,
                    "velocity": 0.2755905511811024,
                    "duration": 0.27661862499999756
                },
                {
                    "name": "C#4",
                    "midi": 61,
                    "time": 84.73265249999999,
                    "velocity": 0.2283464566929134,
                    "duration": 0.27661862499999756
                },
                {
                    "name": "G#3",
                    "midi": 56,
                    "time": 84.73265249999999,
                    "velocity": 0.2047244094488189,
                    "duration": 0.27661862499999756
                },
                {
                    "name": "B3",
                    "midi": 59,
                    "time": 84.73265249999999,
                    "velocity": 0.2283464566929134,
                    "duration": 0.27661862499999756
                },
                {
                    "name": "G#4",
                    "midi": 68,
                    "time": 84.73265249999999,
                    "velocity": 0.2755905511811024,
                    "duration": 0.27661862499999756
                },
                {
                    "name": "C#4",
                    "midi": 61,
                    "time": 85.02382999999999,
                    "velocity": 0.2283464566929134,
                    "duration": 0.27661862499999756
                },
                {
                    "name": "G#3",
                    "midi": 56,
                    "time": 85.02382999999999,
                    "velocity": 0.2047244094488189,
                    "duration": 0.27661862499999756
                },
                {
                    "name": "B3",
                    "midi": 59,
                    "time": 85.02382999999999,
                    "velocity": 0.2283464566929134,
                    "duration": 0.27661862499999756
                },
                {
                    "name": "D#4",
                    "midi": 63,
                    "time": 85.02382999999999,
                    "velocity": 0.2755905511811024,
                    "duration": 0.27661862499999756
                },
                {
                    "name": "C#4",
                    "midi": 61,
                    "time": 85.3150075,
                    "velocity": 0.2440944881889764,
                    "duration": 0.27661862499999756
                },
                {
                    "name": "F4",
                    "midi": 65,
                    "time": 85.3150075,
                    "velocity": 0.2755905511811024,
                    "duration": 0.27661862499999756
                },
                {
                    "name": "G#3",
                    "midi": 56,
                    "time": 85.3150075,
                    "velocity": 0.18110236220472442,
                    "duration": 0.27661862499999756
                },
                {
                    "name": "B3",
                    "midi": 59,
                    "time": 85.3150075,
                    "velocity": 0.2440944881889764,
                    "duration": 0.27661862499999756
                },
                {
                    "name": "F#2",
                    "midi": 42,
                    "time": 85.606185,
                    "velocity": 0.3543307086614173,
                    "duration": 0.27661862499999756
                },
                {
                    "name": "F#3",
                    "midi": 54,
                    "time": 85.8973625,
                    "velocity": 0.16535433070866143,
                    "duration": 0.27661862499999756
                },
                {
                    "name": "C#4",
                    "midi": 61,
                    "time": 85.8973625,
                    "velocity": 0.2283464566929134,
                    "duration": 0.27661862499999756
                },
                {
                    "name": "F#4",
                    "midi": 66,
                    "time": 85.8973625,
                    "velocity": 0.2755905511811024,
                    "duration": 0.27661862499999756
                },
                {
                    "name": "F#3",
                    "midi": 54,
                    "time": 86.18854,
                    "velocity": 0.18110236220472442,
                    "duration": 0.27661862499999756
                },
                {
                    "name": "C#4",
                    "midi": 61,
                    "time": 86.18854,
                    "velocity": 0.2440944881889764,
                    "duration": 0.27661862499999756
                },
                {
                    "name": "F#4",
                    "midi": 66,
                    "time": 86.18854,
                    "velocity": 0.28346456692913385,
                    "duration": 0.27661862499999756
                },
                {
                    "name": "F#2",
                    "midi": 42,
                    "time": 86.4797175,
                    "velocity": 0.33070866141732286,
                    "duration": 0.27661862499999756
                },
                {
                    "name": "F#3",
                    "midi": 54,
                    "time": 86.4797175,
                    "velocity": 0.3937007874015748,
                    "duration": 0.27661862499999756
                },
                {
                    "name": "F2",
                    "midi": 41,
                    "time": 86.77089500000001,
                    "velocity": 0.3543307086614173,
                    "duration": 0.27661862499999756
                },
                {
                    "name": "F3",
                    "midi": 53,
                    "time": 86.77089500000001,
                    "velocity": 0.41732283464566927,
                    "duration": 0.27661862499999756
                },
                {
                    "name": "E3",
                    "midi": 52,
                    "time": 87.06207250000001,
                    "velocity": 0.4409448818897638,
                    "duration": 0.27661862499999756
                },
                {
                    "name": "E2",
                    "midi": 40,
                    "time": 87.06207250000001,
                    "velocity": 0.3700787401574803,
                    "duration": 0.27661862499999756
                },
                {
                    "name": "D#2",
                    "midi": 39,
                    "time": 87.35325000000002,
                    "velocity": 0.49606299212598426,
                    "duration": 0.2766186250000118
                },
                {
                    "name": "D#3",
                    "midi": 51,
                    "time": 87.35325000000002,
                    "velocity": 0.49606299212598426,
                    "duration": 0.2766186250000118
                },
                {
                    "name": "B3",
                    "midi": 59,
                    "time": 87.64442750000003,
                    "velocity": 0.2677165354330709,
                    "duration": 0.27661862499999756
                },
                {
                    "name": "F#4",
                    "midi": 66,
                    "time": 87.64442750000003,
                    "velocity": 0.3228346456692913,
                    "duration": 0.27661862499999756
                },
                {
                    "name": "B3",
                    "midi": 59,
                    "time": 87.93560500000004,
                    "velocity": 0.2677165354330709,
                    "duration": 0.27661862499999756
                },
                {
                    "name": "F#4",
                    "midi": 66,
                    "time": 87.93560500000004,
                    "velocity": 0.3228346456692913,
                    "duration": 0.27661862499999756
                },
                {
                    "name": "E3",
                    "midi": 52,
                    "time": 88.22678250000004,
                    "velocity": 0.4645669291338583,
                    "duration": 0.2766186250000118
                },
                {
                    "name": "B3",
                    "midi": 59,
                    "time": 88.51796000000006,
                    "velocity": 0.2677165354330709,
                    "duration": 0.27661862499999756
                },
                {
                    "name": "E4",
                    "midi": 64,
                    "time": 88.51796000000006,
                    "velocity": 0.2677165354330709,
                    "duration": 0.27661862499999756
                },
                {
                    "name": "B4",
                    "midi": 71,
                    "time": 88.51796000000006,
                    "velocity": 0.31496062992125984,
                    "duration": 0.27661862499999756
                },
                {
                    "name": "B3",
                    "midi": 59,
                    "time": 88.80913750000006,
                    "velocity": 0.2677165354330709,
                    "duration": 0.27661862499999756
                },
                {
                    "name": "E4",
                    "midi": 64,
                    "time": 88.80913750000006,
                    "velocity": 0.2677165354330709,
                    "duration": 0.27661862499999756
                },
                {
                    "name": "B4",
                    "midi": 71,
                    "time": 88.80913750000006,
                    "velocity": 0.31496062992125984,
                    "duration": 0.27661862499999756
                },
                {
                    "name": "D3",
                    "midi": 50,
                    "time": 89.10031500000007,
                    "velocity": 0.4645669291338583,
                    "duration": 0.2766186250000118
                },
                {
                    "name": "A#4",
                    "midi": 70,
                    "time": 89.39149250000008,
                    "velocity": 0.30708661417322836,
                    "duration": 0.27661862499999756
                },
                {
                    "name": "A#3",
                    "midi": 58,
                    "time": 89.39149250000008,
                    "velocity": 0.2204724409448819,
                    "duration": 0.27661862499999756
                },
                {
                    "name": "F4",
                    "midi": 65,
                    "time": 89.39149250000008,
                    "velocity": 0.2677165354330709,
                    "duration": 0.27661862499999756
                },
                {
                    "name": "A#4",
                    "midi": 70,
                    "time": 89.68267000000009,
                    "velocity": 0.30708661417322836,
                    "duration": 0.27661862499999756
                },
                {
                    "name": "A#3",
                    "midi": 58,
                    "time": 89.68267000000009,
                    "velocity": 0.2204724409448819,
                    "duration": 0.27661862499999756
                },
                {
                    "name": "F4",
                    "midi": 65,
                    "time": 89.68267000000009,
                    "velocity": 0.2677165354330709,
                    "duration": 0.27661862499999756
                },
                {
                    "name": "D#3",
                    "midi": 51,
                    "time": 89.97384750000009,
                    "velocity": 0.4409448818897638,
                    "duration": 0.2766186250000118
                },
                {
                    "name": "A#3",
                    "midi": 58,
                    "time": 90.26502500000011,
                    "velocity": 0.2125984251968504,
                    "duration": 0.27661862499999756
                },
                {
                    "name": "D#4",
                    "midi": 63,
                    "time": 90.26502500000011,
                    "velocity": 0.2125984251968504,
                    "duration": 0.27661862499999756
                },
                {
                    "name": "A#4",
                    "midi": 70,
                    "time": 90.26502500000011,
                    "velocity": 0.25196850393700787,
                    "duration": 0.27661862499999756
                },
                {
                    "name": "A#3",
                    "midi": 58,
                    "time": 90.55620250000011,
                    "velocity": 0.2125984251968504,
                    "duration": 0.27661862499999756
                },
                {
                    "name": "D#4",
                    "midi": 63,
                    "time": 90.55620250000011,
                    "velocity": 0.2125984251968504,
                    "duration": 0.27661862499999756
                },
                {
                    "name": "A#4",
                    "midi": 70,
                    "time": 90.55620250000011,
                    "velocity": 0.25196850393700787,
                    "duration": 0.27661862499999756
                },
                {
                    "name": "C#3",
                    "midi": 49,
                    "time": 90.84738000000011,
                    "velocity": 0.41732283464566927,
                    "duration": 0.2766186250000118
                },
                {
                    "name": "A4",
                    "midi": 69,
                    "time": 91.13855750000013,
                    "velocity": 0.28346456692913385,
                    "duration": 0.27661862499999756
                },
                {
                    "name": "A3",
                    "midi": 57,
                    "time": 91.13855750000013,
                    "velocity": 0.23622047244094488,
                    "duration": 0.27661862499999756
                },
                {
                    "name": "E4",
                    "midi": 64,
                    "time": 91.13855750000013,
                    "velocity": 0.28346456692913385,
                    "duration": 0.27661862499999756
                },
                {
                    "name": "A4",
                    "midi": 69,
                    "time": 91.42973500000014,
                    "velocity": 0.28346456692913385,
                    "duration": 0.27661862499999756
                },
                {
                    "name": "A3",
                    "midi": 57,
                    "time": 91.42973500000014,
                    "velocity": 0.23622047244094488,
                    "duration": 0.27661862499999756
                },
                {
                    "name": "E4",
                    "midi": 64,
                    "time": 91.42973500000014,
                    "velocity": 0.28346456692913385,
                    "duration": 0.27661862499999756
                },
                {
                    "name": "D3",
                    "midi": 50,
                    "time": 91.72091250000014,
                    "velocity": 0.3937007874015748,
                    "duration": 0.2766186250000118
                },
                {
                    "name": "A3",
                    "midi": 57,
                    "time": 92.01209000000016,
                    "velocity": 0.2204724409448819,
                    "duration": 0.27661862499999756
                },
                {
                    "name": "D4",
                    "midi": 62,
                    "time": 92.01209000000016,
                    "velocity": 0.2204724409448819,
                    "duration": 0.27661862499999756
                },
                {
                    "name": "A4",
                    "midi": 69,
                    "time": 92.01209000000016,
                    "velocity": 0.2677165354330709,
                    "duration": 0.27661862499999756
                },
                {
                    "name": "A3",
                    "midi": 57,
                    "time": 92.30326750000016,
                    "velocity": 0.2204724409448819,
                    "duration": 0.27661862499999756
                },
                {
                    "name": "D4",
                    "midi": 62,
                    "time": 92.30326750000016,
                    "velocity": 0.2204724409448819,
                    "duration": 0.27661862499999756
                },
                {
                    "name": "A4",
                    "midi": 69,
                    "time": 92.30326750000016,
                    "velocity": 0.2677165354330709,
                    "duration": 0.27661862499999756
                },
                {
                    "name": "A3",
                    "midi": 57,
                    "time": 92.59444500000016,
                    "velocity": 0.33858267716535434,
                    "duration": 0.27661862499999756
                },
                {
                    "name": "D4",
                    "midi": 62,
                    "time": 92.59444500000016,
                    "velocity": 0.33858267716535434,
                    "duration": 0.27661862499999756
                },
                {
                    "name": "A4",
                    "midi": 69,
                    "time": 92.59444500000016,
                    "velocity": 0.33858267716535434,
                    "duration": 0.27661862499999756
                },
                {
                    "name": "D2",
                    "midi": 38,
                    "time": 92.88562250000017,
                    "velocity": 0.2755905511811024,
                    "duration": 0.27661862499999756
                },
                {
                    "name": "D3",
                    "midi": 50,
                    "time": 92.88562250000017,
                    "velocity": 0.33070866141732286,
                    "duration": 0.27661862499999756
                },
                {
                    "name": "C#2",
                    "midi": 37,
                    "time": 93.17680000000017,
                    "velocity": 0.2992125984251969,
                    "duration": 0.27661862499999756
                },
                {
                    "name": "C#3",
                    "midi": 49,
                    "time": 93.17680000000017,
                    "velocity": 0.3543307086614173,
                    "duration": 0.27661862499999756
                },
                {
                    "name": "C2",
                    "midi": 36,
                    "time": 93.46797750000017,
                    "velocity": 0.30708661417322836,
                    "duration": 0.27661862499999756
                },
                {
                    "name": "C3",
                    "midi": 48,
                    "time": 93.46797750000017,
                    "velocity": 0.3700787401574803,
                    "duration": 0.27661862499999756
                },
                {
                    "name": "C2",
                    "midi": 36,
                    "time": 93.75915500000018,
                    "velocity": 0.33070866141732286,
                    "duration": 0.27661862499999756
                },
                {
                    "name": "C3",
                    "midi": 48,
                    "time": 93.75915500000018,
                    "velocity": 0.3937007874015748,
                    "duration": 0.27661862499999756
                },
                {
                    "name": "B1",
                    "midi": 35,
                    "time": 94.05033250000018,
                    "velocity": 0.3464566929133858,
                    "duration": 0.2766186250000118
                },
                {
                    "name": "B2",
                    "midi": 47,
                    "time": 94.05033250000018,
                    "velocity": 0.4094488188976378,
                    "duration": 0.2766186250000118
                },
                {
                    "name": "A#1",
                    "midi": 34,
                    "time": 94.3415100000002,
                    "velocity": 0.3779527559055118,
                    "duration": 0.2766186250000118
                },
                {
                    "name": "A#2",
                    "midi": 46,
                    "time": 94.3415100000002,
                    "velocity": 0.3779527559055118,
                    "duration": 0.2766186250000118
                },
                {
                    "name": "A#3",
                    "midi": 58,
                    "time": 94.63268750000022,
                    "velocity": 0.2125984251968504,
                    "duration": 0.27661862499999756
                },
                {
                    "name": "D#4",
                    "midi": 63,
                    "time": 94.63268750000022,
                    "velocity": 0.2440944881889764,
                    "duration": 0.27661862499999756
                },
                {
                    "name": "A#4",
                    "midi": 70,
                    "time": 94.63268750000022,
                    "velocity": 0.29133858267716534,
                    "duration": 0.27661862499999756
                },
                {
                    "name": "A#3",
                    "midi": 58,
                    "time": 94.92386500000022,
                    "velocity": 0.2204724409448819,
                    "duration": 0.27661862499999756
                },
                {
                    "name": "D#4",
                    "midi": 63,
                    "time": 94.92386500000022,
                    "velocity": 0.25196850393700787,
                    "duration": 0.27661862499999756
                },
                {
                    "name": "A#4",
                    "midi": 70,
                    "time": 94.92386500000022,
                    "velocity": 0.2992125984251969,
                    "duration": 0.27661862499999756
                },
                {
                    "name": "A#3",
                    "midi": 58,
                    "time": 95.21504250000022,
                    "velocity": 0.2440944881889764,
                    "duration": 0.27661862499999756
                },
                {
                    "name": "E4",
                    "midi": 64,
                    "time": 95.21504250000022,
                    "velocity": 0.2755905511811024,
                    "duration": 0.27661862499999756
                },
                {
                    "name": "A#4",
                    "midi": 70,
                    "time": 95.21504250000022,
                    "velocity": 0.33070866141732286,
                    "duration": 0.27661862499999756
                },
                {
                    "name": "A#3",
                    "midi": 58,
                    "time": 95.50622000000023,
                    "velocity": 0.23622047244094488,
                    "duration": 0.27661862499999756
                },
                {
                    "name": "E4",
                    "midi": 64,
                    "time": 95.50622000000023,
                    "velocity": 0.2677165354330709,
                    "duration": 0.27661862499999756
                },
                {
                    "name": "A#4",
                    "midi": 70,
                    "time": 95.50622000000023,
                    "velocity": 0.3228346456692913,
                    "duration": 0.27661862499999756
                },
                {
                    "name": "A#3",
                    "midi": 58,
                    "time": 95.79739750000023,
                    "velocity": 0.14173228346456693,
                    "duration": 0.27661862499999756
                },
                {
                    "name": "A#4",
                    "midi": 70,
                    "time": 95.79739750000023,
                    "velocity": 0.2755905511811024,
                    "duration": 0.27661862499999756
                },
                {
                    "name": "E4",
                    "midi": 64,
                    "time": 95.79739750000023,
                    "velocity": 0.2047244094488189,
                    "duration": 0.27661862499999756
                },
                {
                    "name": "A#2",
                    "midi": 46,
                    "time": 96.08857500000023,
                    "velocity": 0.36220472440944884,
                    "duration": 0.27661862499999756
                },
                {
                    "name": "A#3",
                    "midi": 58,
                    "time": 96.37975250000024,
                    "velocity": 0.2125984251968504,
                    "duration": 0.27661862499999756
                },
                {
                    "name": "F4",
                    "midi": 65,
                    "time": 96.37975250000024,
                    "velocity": 0.23622047244094488,
                    "duration": 0.27661862499999756
                },
                {
                    "name": "A#4",
                    "midi": 70,
                    "time": 96.37975250000024,
                    "velocity": 0.28346456692913385,
                    "duration": 0.27661862499999756
                },
                {
                    "name": "A#3",
                    "midi": 58,
                    "time": 96.67093000000024,
                    "velocity": 0.2125984251968504,
                    "duration": 0.27661862499999756
                },
                {
                    "name": "F4",
                    "midi": 65,
                    "time": 96.67093000000024,
                    "velocity": 0.23622047244094488,
                    "duration": 0.27661862499999756
                },
                {
                    "name": "A#4",
                    "midi": 70,
                    "time": 96.67093000000024,
                    "velocity": 0.28346456692913385,
                    "duration": 0.27661862499999756
                },
                {
                    "name": "A#3",
                    "midi": 58,
                    "time": 96.96210750000024,
                    "velocity": 0.2283464566929134,
                    "duration": 0.27661862499999756
                },
                {
                    "name": "F4",
                    "midi": 65,
                    "time": 96.96210750000024,
                    "velocity": 0.25984251968503935,
                    "duration": 0.27661862499999756
                },
                {
                    "name": "A#4",
                    "midi": 70,
                    "time": 96.96210750000024,
                    "velocity": 0.30708661417322836,
                    "duration": 0.27661862499999756
                },
                {
                    "name": "A#3",
                    "midi": 58,
                    "time": 97.25328500000025,
                    "velocity": 0.1889763779527559,
                    "duration": 0.27661862499999756
                },
                {
                    "name": "F4",
                    "midi": 65,
                    "time": 97.25328500000025,
                    "velocity": 0.2125984251968504,
                    "duration": 0.27661862499999756
                },
                {
                    "name": "A#4",
                    "midi": 70,
                    "time": 97.25328500000025,
                    "velocity": 0.25984251968503935,
                    "duration": 0.27661862499999756
                },
                {
                    "name": "A#3",
                    "midi": 58,
                    "time": 97.54446250000025,
                    "velocity": 0.1889763779527559,
                    "duration": 0.27661862499999756
                },
                {
                    "name": "A#4",
                    "midi": 70,
                    "time": 97.54446250000025,
                    "velocity": 0.25984251968503935,
                    "duration": 0.27661862499999756
                },
                {
                    "name": "F4",
                    "midi": 65,
                    "time": 97.54446250000025,
                    "velocity": 0.2125984251968504,
                    "duration": 0.27661862499999756
                },
                {
                    "name": "D#2",
                    "midi": 39,
                    "time": 97.83564000000025,
                    "velocity": 0.3464566929133858,
                    "duration": 0.2766186250000118
                },
                {
                    "name": "G3",
                    "midi": 55,
                    "time": 98.12681750000027,
                    "velocity": 0.12598425196850394,
                    "duration": 0.27661862499999756
                },
                {
                    "name": "A#3",
                    "midi": 58,
                    "time": 98.12681750000027,
                    "velocity": 0.1732283464566929,
                    "duration": 0.27661862499999756
                },
                {
                    "name": "G4",
                    "midi": 67,
                    "time": 98.12681750000027,
                    "velocity": 0.2047244094488189,
                    "duration": 0.27661862499999756
                },
                {
                    "name": "G3",
                    "midi": 55,
                    "time": 98.41799500000027,
                    "velocity": 0.13385826771653545,
                    "duration": 0.27661862499999756
                },
                {
                    "name": "A#3",
                    "midi": 58,
                    "time": 98.41799500000027,
                    "velocity": 0.18110236220472442,
                    "duration": 0.27661862499999756
                },
                {
                    "name": "G4",
                    "midi": 67,
                    "time": 98.41799500000027,
                    "velocity": 0.2204724409448819,
                    "duration": 0.27661862499999756
                },
                {
                    "name": "G3",
                    "midi": 55,
                    "time": 98.70917250000028,
                    "velocity": 0.14173228346456693,
                    "duration": 0.27661862499999756
                },
                {
                    "name": "A#3",
                    "midi": 58,
                    "time": 98.70917250000028,
                    "velocity": 0.1968503937007874,
                    "duration": 0.27661862499999756
                },
                {
                    "name": "G4",
                    "midi": 67,
                    "time": 98.70917250000028,
                    "velocity": 0.23622047244094488,
                    "duration": 0.27661862499999756
                },
                {
                    "name": "G3",
                    "midi": 55,
                    "time": 99.00035000000028,
                    "velocity": 0.14960629921259844,
                    "duration": 0.27661862499999756
                },
                {
                    "name": "A#3",
                    "midi": 58,
                    "time": 99.00035000000028,
                    "velocity": 0.1968503937007874,
                    "duration": 0.27661862499999756
                },
                {
                    "name": "G4",
                    "midi": 67,
                    "time": 99.00035000000028,
                    "velocity": 0.2440944881889764,
                    "duration": 0.27661862499999756
                },
                {
                    "name": "A#3",
                    "midi": 58,
                    "time": 99.29152750000029,
                    "velocity": 0.2125984251968504,
                    "duration": 0.27661862499999756
                },
                {
                    "name": "G3",
                    "midi": 55,
                    "time": 99.29152750000029,
                    "velocity": 0.14960629921259844,
                    "duration": 0.27661862499999756
                },
                {
                    "name": "G4",
                    "midi": 67,
                    "time": 99.29152750000029,
                    "velocity": 0.25984251968503935,
                    "duration": 0.27661862499999756
                },
                {
                    "name": "D#3",
                    "midi": 51,
                    "time": 99.58270500000029,
                    "velocity": 0.41732283464566927,
                    "duration": 0.2766186250000118
                },
                {
                    "name": "G#3",
                    "midi": 56,
                    "time": 99.8738825000003,
                    "velocity": 0.1732283464566929,
                    "duration": 0.27661862499999756
                },
                {
                    "name": "B3",
                    "midi": 59,
                    "time": 99.8738825000003,
                    "velocity": 0.1968503937007874,
                    "duration": 0.27661862499999756
                },
                {
                    "name": "G#4",
                    "midi": 68,
                    "time": 99.8738825000003,
                    "velocity": 0.2755905511811024,
                    "duration": 0.27661862499999756
                },
                {
                    "name": "G#3",
                    "midi": 56,
                    "time": 100.16506000000031,
                    "velocity": 0.18110236220472442,
                    "duration": 0.27661862499999756
                },
                {
                    "name": "B3",
                    "midi": 59,
                    "time": 100.16506000000031,
                    "velocity": 0.2047244094488189,
                    "duration": 0.27661862499999756
                },
                {
                    "name": "G#4",
                    "midi": 68,
                    "time": 100.16506000000031,
                    "velocity": 0.2440944881889764,
                    "duration": 0.27661862499999756
                },
                {
                    "name": "G#3",
                    "midi": 56,
                    "time": 100.45623750000031,
                    "velocity": 0.1732283464566929,
                    "duration": 0.27661862499999756
                },
                {
                    "name": "B3",
                    "midi": 59,
                    "time": 100.45623750000031,
                    "velocity": 0.1968503937007874,
                    "duration": 0.27661862499999756
                },
                {
                    "name": "G#4",
                    "midi": 68,
                    "time": 100.45623750000031,
                    "velocity": 0.2755905511811024,
                    "duration": 0.27661862499999756
                },
                {
                    "name": "G#3",
                    "midi": 56,
                    "time": 100.74741500000032,
                    "velocity": 0.1889763779527559,
                    "duration": 0.27661862499999756
                },
                {
                    "name": "B3",
                    "midi": 59,
                    "time": 100.74741500000032,
                    "velocity": 0.2125984251968504,
                    "duration": 0.27661862499999756
                },
                {
                    "name": "G#4",
                    "midi": 68,
                    "time": 100.74741500000032,
                    "velocity": 0.25196850393700787,
                    "duration": 0.27661862499999756
                },
                {
                    "name": "G#4",
                    "midi": 68,
                    "time": 101.03859250000032,
                    "velocity": 0.25196850393700787,
                    "duration": 0.27661862499999756
                },
                {
                    "name": "G#3",
                    "midi": 56,
                    "time": 101.03859250000032,
                    "velocity": 0.1889763779527559,
                    "duration": 0.27661862499999756
                },
                {
                    "name": "B3",
                    "midi": 59,
                    "time": 101.03859250000032,
                    "velocity": 0.2125984251968504,
                    "duration": 0.27661862499999756
                },
                {
                    "name": "D#2",
                    "midi": 39,
                    "time": 101.32977000000032,
                    "velocity": 0.3464566929133858,
                    "duration": 0.27661862499999756
                },
                {
                    "name": "G3",
                    "midi": 55,
                    "time": 101.62094750000033,
                    "velocity": 0.12598425196850394,
                    "duration": 0.27661862499999756
                },
                {
                    "name": "A#3",
                    "midi": 58,
                    "time": 101.62094750000033,
                    "velocity": 0.1732283464566929,
                    "duration": 0.27661862499999756
                },
                {
                    "name": "G4",
                    "midi": 67,
                    "time": 101.62094750000033,
                    "velocity": 0.2047244094488189,
                    "duration": 0.27661862499999756
                },
                {
                    "name": "G3",
                    "midi": 55,
                    "time": 101.91212500000033,
                    "velocity": 0.13385826771653545,
                    "duration": 0.27661862499999756
                },
                {
                    "name": "A#3",
                    "midi": 58,
                    "time": 101.91212500000033,
                    "velocity": 0.18110236220472442,
                    "duration": 0.27661862499999756
                },
                {
                    "name": "G4",
                    "midi": 67,
                    "time": 101.91212500000033,
                    "velocity": 0.2204724409448819,
                    "duration": 0.27661862499999756
                },
                {
                    "name": "G3",
                    "midi": 55,
                    "time": 102.20330250000033,
                    "velocity": 0.14173228346456693,
                    "duration": 0.27661862499999756
                },
                {
                    "name": "A#3",
                    "midi": 58,
                    "time": 102.20330250000033,
                    "velocity": 0.1968503937007874,
                    "duration": 0.27661862499999756
                },
                {
                    "name": "G4",
                    "midi": 67,
                    "time": 102.20330250000033,
                    "velocity": 0.23622047244094488,
                    "duration": 0.27661862499999756
                },
                {
                    "name": "G3",
                    "midi": 55,
                    "time": 102.49448000000034,
                    "velocity": 0.14960629921259844,
                    "duration": 0.27661862499999756
                },
                {
                    "name": "A#3",
                    "midi": 58,
                    "time": 102.49448000000034,
                    "velocity": 0.1968503937007874,
                    "duration": 0.27661862499999756
                },
                {
                    "name": "G4",
                    "midi": 67,
                    "time": 102.49448000000034,
                    "velocity": 0.2440944881889764,
                    "duration": 0.27661862499999756
                },
                {
                    "name": "A#3",
                    "midi": 58,
                    "time": 102.78565750000034,
                    "velocity": 0.2125984251968504,
                    "duration": 0.27661862499999756
                },
                {
                    "name": "G3",
                    "midi": 55,
                    "time": 102.78565750000034,
                    "velocity": 0.14960629921259844,
                    "duration": 0.27661862499999756
                },
                {
                    "name": "G4",
                    "midi": 67,
                    "time": 102.78565750000034,
                    "velocity": 0.25984251968503935,
                    "duration": 0.27661862499999756
                },
                {
                    "name": "D#3",
                    "midi": 51,
                    "time": 103.07683500000034,
                    "velocity": 0.41732283464566927,
                    "duration": 0.2766186250000118
                },
                {
                    "name": "G#3",
                    "midi": 56,
                    "time": 103.36801250000036,
                    "velocity": 0.14173228346456693,
                    "duration": 0.27661862499999756
                },
                {
                    "name": "B3",
                    "midi": 59,
                    "time": 103.36801250000036,
                    "velocity": 0.16535433070866143,
                    "duration": 0.27661862499999756
                },
                {
                    "name": "G#4",
                    "midi": 68,
                    "time": 103.36801250000036,
                    "velocity": 0.2283464566929134,
                    "duration": 0.27661862499999756
                },
                {
                    "name": "G#3",
                    "midi": 56,
                    "time": 103.65919000000036,
                    "velocity": 0.14960629921259844,
                    "duration": 0.27661862499999756
                },
                {
                    "name": "B3",
                    "midi": 59,
                    "time": 103.65919000000036,
                    "velocity": 0.1732283464566929,
                    "duration": 0.27661862499999756
                },
                {
                    "name": "G#4",
                    "midi": 68,
                    "time": 103.65919000000036,
                    "velocity": 0.2047244094488189,
                    "duration": 0.27661862499999756
                },
                {
                    "name": "G#3",
                    "midi": 56,
                    "time": 103.95036750000037,
                    "velocity": 0.14173228346456693,
                    "duration": 0.27661862499999756
                },
                {
                    "name": "B3",
                    "midi": 59,
                    "time": 103.95036750000037,
                    "velocity": 0.16535433070866143,
                    "duration": 0.27661862499999756
                },
                {
                    "name": "G#4",
                    "midi": 68,
                    "time": 103.95036750000037,
                    "velocity": 0.2283464566929134,
                    "duration": 0.27661862499999756
                },
                {
                    "name": "G#3",
                    "midi": 56,
                    "time": 104.24154500000037,
                    "velocity": 0.15748031496062992,
                    "duration": 0.27661862499999756
                },
                {
                    "name": "B3",
                    "midi": 59,
                    "time": 104.24154500000037,
                    "velocity": 0.1732283464566929,
                    "duration": 0.27661862499999756
                },
                {
                    "name": "G#4",
                    "midi": 68,
                    "time": 104.24154500000037,
                    "velocity": 0.2125984251968504,
                    "duration": 0.27661862499999756
                },
                {
                    "name": "G#4",
                    "midi": 68,
                    "time": 104.53272250000038,
                    "velocity": 0.2125984251968504,
                    "duration": 0.27661862499999756
                },
                {
                    "name": "G#3",
                    "midi": 56,
                    "time": 104.53272250000038,
                    "velocity": 0.15748031496062992,
                    "duration": 0.27661862499999756
                },
                {
                    "name": "B3",
                    "midi": 59,
                    "time": 104.53272250000038,
                    "velocity": 0.1732283464566929,
                    "duration": 0.27661862499999756
                },
                {
                    "name": "D#2",
                    "midi": 39,
                    "time": 104.82390000000038,
                    "velocity": 0.25984251968503935,
                    "duration": 0.2766186250000118
                },
                {
                    "name": "G3",
                    "midi": 55,
                    "time": 105.1150775000004,
                    "velocity": 0.10236220472440945,
                    "duration": 0.27661862499999756
                },
                {
                    "name": "A#3",
                    "midi": 58,
                    "time": 105.1150775000004,
                    "velocity": 0.11811023622047244,
                    "duration": 0.27661862499999756
                },
                {
                    "name": "G4",
                    "midi": 67,
                    "time": 105.1150775000004,
                    "velocity": 0.13385826771653545,
                    "duration": 0.27661862499999756
                },
                {
                    "name": "G3",
                    "midi": 55,
                    "time": 105.4062550000004,
                    "velocity": 0.10236220472440945,
                    "duration": 0.27661862499999756
                },
                {
                    "name": "A#3",
                    "midi": 58,
                    "time": 105.4062550000004,
                    "velocity": 0.11811023622047244,
                    "duration": 0.27661862499999756
                },
                {
                    "name": "G4",
                    "midi": 67,
                    "time": 105.4062550000004,
                    "velocity": 0.13385826771653545,
                    "duration": 0.27661862499999756
                },
                {
                    "name": "G3",
                    "midi": 55,
                    "time": 105.6974325000004,
                    "velocity": 0.10236220472440945,
                    "duration": 0.27661862499999756
                },
                {
                    "name": "A#3",
                    "midi": 58,
                    "time": 105.6974325000004,
                    "velocity": 0.11811023622047244,
                    "duration": 0.27661862499999756
                },
                {
                    "name": "G4",
                    "midi": 67,
                    "time": 105.6974325000004,
                    "velocity": 0.14173228346456693,
                    "duration": 0.27661862499999756
                },
                {
                    "name": "G3",
                    "midi": 55,
                    "time": 105.9886100000004,
                    "velocity": 0.11023622047244094,
                    "duration": 0.27661862499999756
                },
                {
                    "name": "A#3",
                    "midi": 58,
                    "time": 105.9886100000004,
                    "velocity": 0.12598425196850394,
                    "duration": 0.27661862499999756
                },
                {
                    "name": "G4",
                    "midi": 67,
                    "time": 105.9886100000004,
                    "velocity": 0.14960629921259844,
                    "duration": 0.27661862499999756
                },
                {
                    "name": "A#3",
                    "midi": 58,
                    "time": 106.27978750000041,
                    "velocity": 0.12598425196850394,
                    "duration": 0.27661862499999756
                },
                {
                    "name": "G3",
                    "midi": 55,
                    "time": 106.27978750000041,
                    "velocity": 0.11023622047244094,
                    "duration": 0.27661862499999756
                },
                {
                    "name": "G4",
                    "midi": 67,
                    "time": 106.27978750000041,
                    "velocity": 0.15748031496062992,
                    "duration": 0.27661862499999756
                },
                {
                    "name": "G3",
                    "midi": 55,
                    "time": 106.57096500000041,
                    "velocity": 0.11811023622047244,
                    "duration": 0.27661862499999756
                },
                {
                    "name": "A#3",
                    "midi": 58,
                    "time": 106.57096500000041,
                    "velocity": 0.13385826771653545,
                    "duration": 0.27661862499999756
                },
                {
                    "name": "G4",
                    "midi": 67,
                    "time": 106.57096500000041,
                    "velocity": 0.16535433070866143,
                    "duration": 0.27661862499999756
                },
                {
                    "name": "G3",
                    "midi": 55,
                    "time": 106.86214250000042,
                    "velocity": 0.11811023622047244,
                    "duration": 0.27661862499999756
                },
                {
                    "name": "A#3",
                    "midi": 58,
                    "time": 106.86214250000042,
                    "velocity": 0.13385826771653545,
                    "duration": 0.27661862499999756
                },
                {
                    "name": "G4",
                    "midi": 67,
                    "time": 106.86214250000042,
                    "velocity": 0.1732283464566929,
                    "duration": 0.27661862499999756
                },
                {
                    "name": "G3",
                    "midi": 55,
                    "time": 107.15332000000042,
                    "velocity": 0.12598425196850394,
                    "duration": 0.27661862499999756
                },
                {
                    "name": "A#3",
                    "midi": 58,
                    "time": 107.15332000000042,
                    "velocity": 0.14173228346456693,
                    "duration": 0.27661862499999756
                },
                {
                    "name": "G4",
                    "midi": 67,
                    "time": 107.15332000000042,
                    "velocity": 0.1732283464566929,
                    "duration": 0.27661862499999756
                },
                {
                    "name": "G3",
                    "midi": 55,
                    "time": 107.44449750000042,
                    "velocity": 0.13385826771653545,
                    "duration": 0.27661862499999756
                },
                {
                    "name": "A#3",
                    "midi": 58,
                    "time": 107.44449750000042,
                    "velocity": 0.15748031496062992,
                    "duration": 0.27661862499999756
                },
                {
                    "name": "G4",
                    "midi": 67,
                    "time": 107.44449750000042,
                    "velocity": 0.18110236220472442,
                    "duration": 0.27661862499999756
                },
                {
                    "name": "G3",
                    "midi": 55,
                    "time": 107.73567500000043,
                    "velocity": 0.14173228346456693,
                    "duration": 0.27661862499999756
                },
                {
                    "name": "A#3",
                    "midi": 58,
                    "time": 107.73567500000043,
                    "velocity": 0.16535433070866143,
                    "duration": 0.27661862499999756
                },
                {
                    "name": "G4",
                    "midi": 67,
                    "time": 107.73567500000043,
                    "velocity": 0.1889763779527559,
                    "duration": 0.27661862499999756
                },
                {
                    "name": "A#3",
                    "midi": 58,
                    "time": 108.02685250000043,
                    "velocity": 0.1732283464566929,
                    "duration": 0.27661862499999756
                },
                {
                    "name": "G3",
                    "midi": 55,
                    "time": 108.02685250000043,
                    "velocity": 0.14960629921259844,
                    "duration": 0.27661862499999756
                },
                {
                    "name": "G4",
                    "midi": 67,
                    "time": 108.02685250000043,
                    "velocity": 0.2047244094488189,
                    "duration": 0.27661862499999756
                },
                {
                    "name": "G3",
                    "midi": 55,
                    "time": 108.31803000000043,
                    "velocity": 0.15748031496062992,
                    "duration": 0.27661862499999756
                },
                {
                    "name": "A#3",
                    "midi": 58,
                    "time": 108.31803000000043,
                    "velocity": 0.1732283464566929,
                    "duration": 0.27661862499999756
                },
                {
                    "name": "G4",
                    "midi": 67,
                    "time": 108.31803000000043,
                    "velocity": 0.2204724409448819,
                    "duration": 0.27661862499999756
                },
                {
                    "name": "G3",
                    "midi": 55,
                    "time": 108.60920750000044,
                    "velocity": 0.15748031496062992,
                    "duration": 0.27661862499999756
                },
                {
                    "name": "A#3",
                    "midi": 58,
                    "time": 108.60920750000044,
                    "velocity": 0.1732283464566929,
                    "duration": 0.27661862499999756
                },
                {
                    "name": "G4",
                    "midi": 67,
                    "time": 108.60920750000044,
                    "velocity": 0.2204724409448819,
                    "duration": 0.27661862499999756
                },
                {
                    "name": "G3",
                    "midi": 55,
                    "time": 108.90038500000044,
                    "velocity": 0.14960629921259844,
                    "duration": 0.27661862499999756
                },
                {
                    "name": "A#3",
                    "midi": 58,
                    "time": 108.90038500000044,
                    "velocity": 0.1732283464566929,
                    "duration": 0.27661862499999756
                },
                {
                    "name": "G4",
                    "midi": 67,
                    "time": 108.90038500000044,
                    "velocity": 0.2047244094488189,
                    "duration": 0.27661862499999756
                },
                {
                    "name": "G3",
                    "midi": 55,
                    "time": 109.19156250000044,
                    "velocity": 0.14960629921259844,
                    "duration": 0.27661862499999756
                },
                {
                    "name": "A#3",
                    "midi": 58,
                    "time": 109.19156250000044,
                    "velocity": 0.1732283464566929,
                    "duration": 0.27661862499999756
                },
                {
                    "name": "G4",
                    "midi": 67,
                    "time": 109.19156250000044,
                    "velocity": 0.2047244094488189,
                    "duration": 0.27661862499999756
                },
                {
                    "name": "G3",
                    "midi": 55,
                    "time": 109.48274000000045,
                    "velocity": 0.14173228346456693,
                    "duration": 0.27661862499999756
                },
                {
                    "name": "A#3",
                    "midi": 58,
                    "time": 109.48274000000045,
                    "velocity": 0.16535433070866143,
                    "duration": 0.27661862499999756
                },
                {
                    "name": "G4",
                    "midi": 67,
                    "time": 109.48274000000045,
                    "velocity": 0.1889763779527559,
                    "duration": 0.27661862499999756
                },
                {
                    "name": "A#3",
                    "midi": 58,
                    "time": 109.77391750000045,
                    "velocity": 0.16535433070866143,
                    "duration": 0.27661862499999756
                },
                {
                    "name": "G3",
                    "midi": 55,
                    "time": 109.77391750000045,
                    "velocity": 0.14173228346456693,
                    "duration": 0.27661862499999756
                },
                {
                    "name": "G4",
                    "midi": 67,
                    "time": 109.77391750000045,
                    "velocity": 0.1889763779527559,
                    "duration": 0.27661862499999756
                },
                {
                    "name": "G3",
                    "midi": 55,
                    "time": 110.06509500000045,
                    "velocity": 0.13385826771653545,
                    "duration": 0.27661862499999756
                },
                {
                    "name": "A#3",
                    "midi": 58,
                    "time": 110.06509500000045,
                    "velocity": 0.15748031496062992,
                    "duration": 0.27661862499999756
                },
                {
                    "name": "G4",
                    "midi": 67,
                    "time": 110.06509500000045,
                    "velocity": 0.18110236220472442,
                    "duration": 0.27661862499999756
                },
                {
                    "name": "G3",
                    "midi": 55,
                    "time": 110.35627250000046,
                    "velocity": 0.13385826771653545,
                    "duration": 0.27661862499999756
                },
                {
                    "name": "A#3",
                    "midi": 58,
                    "time": 110.35627250000046,
                    "velocity": 0.15748031496062992,
                    "duration": 0.27661862499999756
                },
                {
                    "name": "G4",
                    "midi": 67,
                    "time": 110.35627250000046,
                    "velocity": 0.18110236220472442,
                    "duration": 0.27661862499999756
                },
                {
                    "name": "G3",
                    "midi": 55,
                    "time": 110.64745000000046,
                    "velocity": 0.12598425196850394,
                    "duration": 0.27661862499999756
                },
                {
                    "name": "A#3",
                    "midi": 58,
                    "time": 110.64745000000046,
                    "velocity": 0.14173228346456693,
                    "duration": 0.27661862499999756
                },
                {
                    "name": "G4",
                    "midi": 67,
                    "time": 110.64745000000046,
                    "velocity": 0.18110236220472442,
                    "duration": 0.27661862499999756
                },
                {
                    "name": "G3",
                    "midi": 55,
                    "time": 110.93862750000046,
                    "velocity": 0.12598425196850394,
                    "duration": 0.27661862499999756
                },
                {
                    "name": "A#3",
                    "midi": 58,
                    "time": 110.93862750000046,
                    "velocity": 0.14173228346456693,
                    "duration": 0.27661862499999756
                },
                {
                    "name": "G4",
                    "midi": 67,
                    "time": 110.93862750000046,
                    "velocity": 0.1732283464566929,
                    "duration": 0.27661862499999756
                },
                {
                    "name": "G3",
                    "midi": 55,
                    "time": 111.22980500000047,
                    "velocity": 0.11811023622047244,
                    "duration": 0.27661862499999756
                },
                {
                    "name": "A#3",
                    "midi": 58,
                    "time": 111.22980500000047,
                    "velocity": 0.13385826771653545,
                    "duration": 0.27661862499999756
                },
                {
                    "name": "G4",
                    "midi": 67,
                    "time": 111.22980500000047,
                    "velocity": 0.1732283464566929,
                    "duration": 0.27661862499999756
                },
                {
                    "name": "A#3",
                    "midi": 58,
                    "time": 111.52098250000047,
                    "velocity": 0.13385826771653545,
                    "duration": 0.27661862499999756
                },
                {
                    "name": "G3",
                    "midi": 55,
                    "time": 111.52098250000047,
                    "velocity": 0.11811023622047244,
                    "duration": 0.27661862499999756
                },
                {
                    "name": "G4",
                    "midi": 67,
                    "time": 111.52098250000047,
                    "velocity": 0.1732283464566929,
                    "duration": 0.27661862499999756
                },
                {
                    "name": "G#1",
                    "midi": 32,
                    "time": 111.81216000000047,
                    "velocity": 0.48031496062992124,
                    "duration": 1.7470650000000205
                },
                {
                    "name": "G#2",
                    "midi": 44,
                    "time": 112.10333750000048,
                    "velocity": 0.13385826771653545,
                    "duration": 0.27661862499999756
                },
                {
                    "name": "D#3",
                    "midi": 51,
                    "time": 112.10333750000048,
                    "velocity": 0.16535433070866143,
                    "duration": 0.27661862499999756
                },
                {
                    "name": "G#2",
                    "midi": 44,
                    "time": 112.39451500000048,
                    "velocity": 0.14173228346456693,
                    "duration": 0.27661862499999756
                },
                {
                    "name": "D#3",
                    "midi": 51,
                    "time": 112.39451500000048,
                    "velocity": 0.1732283464566929,
                    "duration": 0.27661862499999756
                },
                {
                    "name": "G#2",
                    "midi": 44,
                    "time": 112.68569250000048,
                    "velocity": 0.15748031496062992,
                    "duration": 0.27661862499999756
                },
                {
                    "name": "D#3",
                    "midi": 51,
                    "time": 112.68569250000048,
                    "velocity": 0.18110236220472442,
                    "duration": 0.27661862499999756
                },
                {
                    "name": "A#3",
                    "midi": 58,
                    "time": 112.68569250000048,
                    "velocity": 0.18110236220472442,
                    "duration": 0.27661862499999756
                },
                {
                    "name": "D#3",
                    "midi": 51,
                    "time": 112.97687000000049,
                    "velocity": 0.14173228346456693,
                    "duration": 0.27661862499999756
                },
                {
                    "name": "A#3",
                    "midi": 58,
                    "time": 112.97687000000049,
                    "velocity": 0.1732283464566929,
                    "duration": 0.27661862499999756
                },
                {
                    "name": "D#3",
                    "midi": 51,
                    "time": 113.26804750000049,
                    "velocity": 0.14173228346456693,
                    "duration": 0.27661862499999756
                },
                {
                    "name": "A#3",
                    "midi": 58,
                    "time": 113.26804750000049,
                    "velocity": 0.1732283464566929,
                    "duration": 0.27661862499999756
                },
                {
                    "name": "D#3",
                    "midi": 51,
                    "time": 113.5592250000005,
                    "velocity": 0.12598425196850394,
                    "duration": 0.27661862499999756
                },
                {
                    "name": "G#3",
                    "midi": 56,
                    "time": 113.5592250000005,
                    "velocity": 0.14173228346456693,
                    "duration": 0.27661862499999756
                },
                {
                    "name": "D#4",
                    "midi": 63,
                    "time": 113.5592250000005,
                    "velocity": 0.1732283464566929,
                    "duration": 0.27661862499999756
                },
                {
                    "name": "D#3",
                    "midi": 51,
                    "time": 113.8504025000005,
                    "velocity": 0.11023622047244094,
                    "duration": 0.27661862499999756
                },
                {
                    "name": "G#3",
                    "midi": 56,
                    "time": 113.8504025000005,
                    "velocity": 0.12598425196850394,
                    "duration": 0.27661862499999756
                },
                {
                    "name": "D#4",
                    "midi": 63,
                    "time": 113.8504025000005,
                    "velocity": 0.15748031496062992,
                    "duration": 0.27661862499999756
                },
                {
                    "name": "D#3",
                    "midi": 51,
                    "time": 114.1415800000005,
                    "velocity": 0.10236220472440945,
                    "duration": 0.27661862499999756
                },
                {
                    "name": "G#3",
                    "midi": 56,
                    "time": 114.1415800000005,
                    "velocity": 0.11811023622047244,
                    "duration": 0.27661862499999756
                },
                {
                    "name": "D#4",
                    "midi": 63,
                    "time": 114.1415800000005,
                    "velocity": 0.14960629921259844,
                    "duration": 0.27661862499999756
                },
                {
                    "name": "D#3",
                    "midi": 51,
                    "time": 114.4327575000005,
                    "velocity": 0.12598425196850394,
                    "duration": 0.27661862499999756
                },
                {
                    "name": "G#3",
                    "midi": 56,
                    "time": 114.4327575000005,
                    "velocity": 0.14173228346456693,
                    "duration": 0.27661862499999756
                },
                {
                    "name": "D#4",
                    "midi": 63,
                    "time": 114.4327575000005,
                    "velocity": 0.1732283464566929,
                    "duration": 0.27661862499999756
                },
                {
                    "name": "D#3",
                    "midi": 51,
                    "time": 114.72393500000051,
                    "velocity": 0.11023622047244094,
                    "duration": 0.27661862499999756
                },
                {
                    "name": "G#3",
                    "midi": 56,
                    "time": 114.72393500000051,
                    "velocity": 0.12598425196850394,
                    "duration": 0.27661862499999756
                },
                {
                    "name": "D#4",
                    "midi": 63,
                    "time": 114.72393500000051,
                    "velocity": 0.15748031496062992,
                    "duration": 0.27661862499999756
                },
                {
                    "name": "D#3",
                    "midi": 51,
                    "time": 115.01511250000051,
                    "velocity": 0.11023622047244094,
                    "duration": 0.27661862499999756
                },
                {
                    "name": "G#3",
                    "midi": 56,
                    "time": 115.01511250000051,
                    "velocity": 0.12598425196850394,
                    "duration": 0.27661862499999756
                },
                {
                    "name": "D#4",
                    "midi": 63,
                    "time": 115.01511250000051,
                    "velocity": 0.15748031496062992,
                    "duration": 0.27661862499999756
                },
                {
                    "name": "G#1",
                    "midi": 32,
                    "time": 115.30629000000052,
                    "velocity": 0.44881889763779526,
                    "duration": 1.7470650000000205
                },
                {
                    "name": "F3",
                    "midi": 53,
                    "time": 115.59746750000052,
                    "velocity": 0.10236220472440945,
                    "duration": 0.27661862499999756
                },
                {
                    "name": "G#3",
                    "midi": 56,
                    "time": 115.59746750000052,
                    "velocity": 0.11811023622047244,
                    "duration": 0.27661862499999756
                },
                {
                    "name": "C#4",
                    "midi": 61,
                    "time": 115.59746750000052,
                    "velocity": 0.14173228346456693,
                    "duration": 0.27661862499999756
                },
                {
                    "name": "F4",
                    "midi": 65,
                    "time": 115.59746750000052,
                    "velocity": 0.1732283464566929,
                    "duration": 0.27661862499999756
                },
                {
                    "name": "F3",
                    "midi": 53,
                    "time": 115.88864500000052,
                    "velocity": 0.10236220472440945,
                    "duration": 0.27661862499999756
                },
                {
                    "name": "G#3",
                    "midi": 56,
                    "time": 115.88864500000052,
                    "velocity": 0.11811023622047244,
                    "duration": 0.27661862499999756
                },
                {
                    "name": "C#4",
                    "midi": 61,
                    "time": 115.88864500000052,
                    "velocity": 0.14173228346456693,
                    "duration": 0.27661862499999756
                },
                {
                    "name": "F4",
                    "midi": 65,
                    "time": 115.88864500000052,
                    "velocity": 0.1732283464566929,
                    "duration": 0.27661862499999756
                },
                {
                    "name": "F3",
                    "midi": 53,
                    "time": 116.17982250000053,
                    "velocity": 0.11023622047244094,
                    "duration": 0.27661862499999756
                },
                {
                    "name": "G#3",
                    "midi": 56,
                    "time": 116.17982250000053,
                    "velocity": 0.12598425196850394,
                    "duration": 0.27661862499999756
                },
                {
                    "name": "C#4",
                    "midi": 61,
                    "time": 116.17982250000053,
                    "velocity": 0.15748031496062992,
                    "duration": 0.27661862499999756
                },
                {
                    "name": "F4",
                    "midi": 65,
                    "time": 116.17982250000053,
                    "velocity": 0.18110236220472442,
                    "duration": 0.27661862499999756
                },
                {
                    "name": "F3",
                    "midi": 53,
                    "time": 116.47100000000053,
                    "velocity": 0.10236220472440945,
                    "duration": 0.27661862499999756
                },
                {
                    "name": "G#3",
                    "midi": 56,
                    "time": 116.47100000000053,
                    "velocity": 0.11811023622047244,
                    "duration": 0.27661862499999756
                },
                {
                    "name": "C#4",
                    "midi": 61,
                    "time": 116.47100000000053,
                    "velocity": 0.14173228346456693,
                    "duration": 0.27661862499999756
                },
                {
                    "name": "F4",
                    "midi": 65,
                    "time": 116.47100000000053,
                    "velocity": 0.1732283464566929,
                    "duration": 0.27661862499999756
                },
                {
                    "name": "F3",
                    "midi": 53,
                    "time": 116.76217750000053,
                    "velocity": 0.10236220472440945,
                    "duration": 0.27661862499999756
                },
                {
                    "name": "G#3",
                    "midi": 56,
                    "time": 116.76217750000053,
                    "velocity": 0.11811023622047244,
                    "duration": 0.27661862499999756
                },
                {
                    "name": "C#4",
                    "midi": 61,
                    "time": 116.76217750000053,
                    "velocity": 0.14173228346456693,
                    "duration": 0.27661862499999756
                },
                {
                    "name": "F4",
                    "midi": 65,
                    "time": 116.76217750000053,
                    "velocity": 0.1732283464566929,
                    "duration": 0.27661862499999756
                },
                {
                    "name": "G3",
                    "midi": 55,
                    "time": 117.05335500000054,
                    "velocity": 0.08661417322834646,
                    "duration": 0.27661862499999756
                },
                {
                    "name": "A#3",
                    "midi": 58,
                    "time": 117.05335500000054,
                    "velocity": 0.10236220472440945,
                    "duration": 0.27661862499999756
                },
                {
                    "name": "C#4",
                    "midi": 61,
                    "time": 117.05335500000054,
                    "velocity": 0.11811023622047244,
                    "duration": 0.27661862499999756
                },
                {
                    "name": "G4",
                    "midi": 67,
                    "time": 117.05335500000054,
                    "velocity": 0.14960629921259844,
                    "duration": 0.27661862499999756
                },
                {
                    "name": "G3",
                    "midi": 55,
                    "time": 117.34453250000054,
                    "velocity": 0.08661417322834646,
                    "duration": 0.27661862499999756
                },
                {
                    "name": "A#3",
                    "midi": 58,
                    "time": 117.34453250000054,
                    "velocity": 0.10236220472440945,
                    "duration": 0.27661862499999756
                },
                {
                    "name": "C#4",
                    "midi": 61,
                    "time": 117.34453250000054,
                    "velocity": 0.11811023622047244,
                    "duration": 0.27661862499999756
                },
                {
                    "name": "G4",
                    "midi": 67,
                    "time": 117.34453250000054,
                    "velocity": 0.14960629921259844,
                    "duration": 0.27661862499999756
                },
                {
                    "name": "G3",
                    "midi": 55,
                    "time": 117.63571000000054,
                    "velocity": 0.09448818897637795,
                    "duration": 0.27661862499999756
                },
                {
                    "name": "A#3",
                    "midi": 58,
                    "time": 117.63571000000054,
                    "velocity": 0.11023622047244094,
                    "duration": 0.27661862499999756
                },
                {
                    "name": "C#4",
                    "midi": 61,
                    "time": 117.63571000000054,
                    "velocity": 0.12598425196850394,
                    "duration": 0.27661862499999756
                },
                {
                    "name": "G4",
                    "midi": 67,
                    "time": 117.63571000000054,
                    "velocity": 0.15748031496062992,
                    "duration": 0.27661862499999756
                },
                {
                    "name": "G#3",
                    "midi": 56,
                    "time": 117.92688750000055,
                    "velocity": 0.09448818897637795,
                    "duration": 0.2766186250000118
                },
                {
                    "name": "C#4",
                    "midi": 61,
                    "time": 117.92688750000055,
                    "velocity": 0.12598425196850394,
                    "duration": 0.2766186250000118
                },
                {
                    "name": "G#4",
                    "midi": 68,
                    "time": 117.92688750000055,
                    "velocity": 0.15748031496062992,
                    "duration": 0.2766186250000118
                },
                {
                    "name": "G#3",
                    "midi": 56,
                    "time": 118.21806500000056,
                    "velocity": 0.09448818897637795,
                    "duration": 0.27661862499999756
                },
                {
                    "name": "C#4",
                    "midi": 61,
                    "time": 118.21806500000056,
                    "velocity": 0.12598425196850394,
                    "duration": 0.27661862499999756
                },
                {
                    "name": "G#4",
                    "midi": 68,
                    "time": 118.21806500000056,
                    "velocity": 0.15748031496062992,
                    "duration": 0.27661862499999756
                },
                {
                    "name": "G#3",
                    "midi": 56,
                    "time": 118.50924250000057,
                    "velocity": 0.09448818897637795,
                    "duration": 0.27661862499999756
                },
                {
                    "name": "C#4",
                    "midi": 61,
                    "time": 118.50924250000057,
                    "velocity": 0.12598425196850394,
                    "duration": 0.27661862499999756
                },
                {
                    "name": "G#4",
                    "midi": 68,
                    "time": 118.50924250000057,
                    "velocity": 0.15748031496062992,
                    "duration": 0.27661862499999756
                },
                {
                    "name": "G#1",
                    "midi": 32,
                    "time": 118.80042000000057,
                    "velocity": 0.44881889763779526,
                    "duration": 1.7470650000000205
                },
                {
                    "name": "G3",
                    "midi": 55,
                    "time": 119.09159750000057,
                    "velocity": 0.10236220472440945,
                    "duration": 0.27661862499999756
                },
                {
                    "name": "A#3",
                    "midi": 58,
                    "time": 119.09159750000057,
                    "velocity": 0.14173228346456693,
                    "duration": 0.27661862499999756
                },
                {
                    "name": "G4",
                    "midi": 67,
                    "time": 119.09159750000057,
                    "velocity": 0.1732283464566929,
                    "duration": 0.27661862499999756
                },
                {
                    "name": "G3",
                    "midi": 55,
                    "time": 119.38277500000058,
                    "velocity": 0.10236220472440945,
                    "duration": 0.27661862499999756
                },
                {
                    "name": "A#3",
                    "midi": 58,
                    "time": 119.38277500000058,
                    "velocity": 0.14173228346456693,
                    "duration": 0.27661862499999756
                },
                {
                    "name": "G4",
                    "midi": 67,
                    "time": 119.38277500000058,
                    "velocity": 0.1732283464566929,
                    "duration": 0.27661862499999756
                },
                {
                    "name": "D#4",
                    "midi": 63,
                    "time": 119.67395250000058,
                    "velocity": 0.15748031496062992,
                    "duration": 0.27661862499999756
                },
                {
                    "name": "G3",
                    "midi": 55,
                    "time": 119.67395250000058,
                    "velocity": 0.11023622047244094,
                    "duration": 0.27661862499999756
                },
                {
                    "name": "A#3",
                    "midi": 58,
                    "time": 119.67395250000058,
                    "velocity": 0.11023622047244094,
                    "duration": 0.27661862499999756
                },
                {
                    "name": "C#4",
                    "midi": 61,
                    "time": 119.67395250000058,
                    "velocity": 0.15748031496062992,
                    "duration": 0.27661862499999756
                },
                {
                    "name": "G4",
                    "midi": 67,
                    "time": 119.67395250000058,
                    "velocity": 0.18110236220472442,
                    "duration": 0.27661862499999756
                },
                {
                    "name": "D#4",
                    "midi": 63,
                    "time": 119.96513000000058,
                    "velocity": 0.14173228346456693,
                    "duration": 0.27661862499999756
                },
                {
                    "name": "G3",
                    "midi": 55,
                    "time": 119.96513000000058,
                    "velocity": 0.10236220472440945,
                    "duration": 0.27661862499999756
                },
                {
                    "name": "A#3",
                    "midi": 58,
                    "time": 119.96513000000058,
                    "velocity": 0.10236220472440945,
                    "duration": 0.27661862499999756
                },
                {
                    "name": "C#4",
                    "midi": 61,
                    "time": 119.96513000000058,
                    "velocity": 0.14173228346456693,
                    "duration": 0.27661862499999756
                },
                {
                    "name": "G4",
                    "midi": 67,
                    "time": 119.96513000000058,
                    "velocity": 0.1732283464566929,
                    "duration": 0.27661862499999756
                },
                {
                    "name": "D#4",
                    "midi": 63,
                    "time": 120.25630750000059,
                    "velocity": 0.14173228346456693,
                    "duration": 0.27661862499999756
                },
                {
                    "name": "G3",
                    "midi": 55,
                    "time": 120.25630750000059,
                    "velocity": 0.10236220472440945,
                    "duration": 0.27661862499999756
                },
                {
                    "name": "A#3",
                    "midi": 58,
                    "time": 120.25630750000059,
                    "velocity": 0.10236220472440945,
                    "duration": 0.27661862499999756
                },
                {
                    "name": "C#4",
                    "midi": 61,
                    "time": 120.25630750000059,
                    "velocity": 0.14173228346456693,
                    "duration": 0.27661862499999756
                },
                {
                    "name": "G4",
                    "midi": 67,
                    "time": 120.25630750000059,
                    "velocity": 0.1732283464566929,
                    "duration": 0.27661862499999756
                },
                {
                    "name": "G#3",
                    "midi": 56,
                    "time": 120.54748500000059,
                    "velocity": 0.10236220472440945,
                    "duration": 0.27661862499999756
                },
                {
                    "name": "C4",
                    "midi": 60,
                    "time": 120.54748500000059,
                    "velocity": 0.11811023622047244,
                    "duration": 0.27661862499999756
                },
                {
                    "name": "F#4",
                    "midi": 66,
                    "time": 120.54748500000059,
                    "velocity": 0.14960629921259844,
                    "duration": 0.27661862499999756
                },
                {
                    "name": "G#3",
                    "midi": 56,
                    "time": 120.8386625000006,
                    "velocity": 0.10236220472440945,
                    "duration": 0.27661862499999756
                },
                {
                    "name": "C4",
                    "midi": 60,
                    "time": 120.8386625000006,
                    "velocity": 0.11811023622047244,
                    "duration": 0.27661862499999756
                },
                {
                    "name": "F#4",
                    "midi": 66,
                    "time": 120.8386625000006,
                    "velocity": 0.14960629921259844,
                    "duration": 0.27661862499999756
                },
                {
                    "name": "G#3",
                    "midi": 56,
                    "time": 121.1298400000006,
                    "velocity": 0.10236220472440945,
                    "duration": 0.27661862499999756
                },
                {
                    "name": "C4",
                    "midi": 60,
                    "time": 121.1298400000006,
                    "velocity": 0.12598425196850394,
                    "duration": 0.27661862499999756
                },
                {
                    "name": "F#4",
                    "midi": 66,
                    "time": 121.1298400000006,
                    "velocity": 0.15748031496062992,
                    "duration": 0.27661862499999756
                },
                {
                    "name": "F3",
                    "midi": 53,
                    "time": 121.4210175000006,
                    "velocity": 0.10236220472440945,
                    "duration": 0.2766186250000118
                },
                {
                    "name": "G#3",
                    "midi": 56,
                    "time": 121.4210175000006,
                    "velocity": 0.11811023622047244,
                    "duration": 0.2766186250000118
                },
                {
                    "name": "F4",
                    "midi": 65,
                    "time": 121.4210175000006,
                    "velocity": 0.13385826771653545,
                    "duration": 0.2766186250000118
                },
                {
                    "name": "F3",
                    "midi": 53,
                    "time": 121.71219500000062,
                    "velocity": 0.10236220472440945,
                    "duration": 0.27661862499999756
                },
                {
                    "name": "G#3",
                    "midi": 56,
                    "time": 121.71219500000062,
                    "velocity": 0.11811023622047244,
                    "duration": 0.27661862499999756
                },
                {
                    "name": "F4",
                    "midi": 65,
                    "time": 121.71219500000062,
                    "velocity": 0.13385826771653545,
                    "duration": 0.27661862499999756
                },
                {
                    "name": "F3",
                    "midi": 53,
                    "time": 122.00337250000062,
                    "velocity": 0.10236220472440945,
                    "duration": 0.27661862499999756
                },
                {
                    "name": "G#3",
                    "midi": 56,
                    "time": 122.00337250000062,
                    "velocity": 0.11811023622047244,
                    "duration": 0.27661862499999756
                },
                {
                    "name": "F4",
                    "midi": 65,
                    "time": 122.00337250000062,
                    "velocity": 0.13385826771653545,
                    "duration": 0.27661862499999756
                },
                {
                    "name": "G#1",
                    "midi": 32,
                    "time": 122.29455000000063,
                    "velocity": 0.4566929133858268,
                    "duration": 1.7470650000000205
                },
                {
                    "name": "D#3",
                    "midi": 51,
                    "time": 122.58572750000063,
                    "velocity": 0.14173228346456693,
                    "duration": 0.27661862499999756
                },
                {
                    "name": "G#3",
                    "midi": 56,
                    "time": 122.58572750000063,
                    "velocity": 0.14173228346456693,
                    "duration": 0.27661862499999756
                },
                {
                    "name": "D#4",
                    "midi": 63,
                    "time": 122.58572750000063,
                    "velocity": 0.1732283464566929,
                    "duration": 0.27661862499999756
                },
                {
                    "name": "D#3",
                    "midi": 51,
                    "time": 122.87690500000063,
                    "velocity": 0.14173228346456693,
                    "duration": 0.27661862499999756
                },
                {
                    "name": "G#3",
                    "midi": 56,
                    "time": 122.87690500000063,
                    "velocity": 0.14173228346456693,
                    "duration": 0.27661862499999756
                },
                {
                    "name": "D#4",
                    "midi": 63,
                    "time": 122.87690500000063,
                    "velocity": 0.1732283464566929,
                    "duration": 0.27661862499999756
                },
                {
                    "name": "D#3",
                    "midi": 51,
                    "time": 123.16808250000064,
                    "velocity": 0.11811023622047244,
                    "duration": 0.27661862499999756
                },
                {
                    "name": "G#3",
                    "midi": 56,
                    "time": 123.16808250000064,
                    "velocity": 0.14173228346456693,
                    "duration": 0.27661862499999756
                },
                {
                    "name": "D#4",
                    "midi": 63,
                    "time": 123.16808250000064,
                    "velocity": 0.1732283464566929,
                    "duration": 0.27661862499999756
                },
                {
                    "name": "D#3",
                    "midi": 51,
                    "time": 123.45926000000064,
                    "velocity": 0.11811023622047244,
                    "duration": 0.27661862499999756
                },
                {
                    "name": "G#3",
                    "midi": 56,
                    "time": 123.45926000000064,
                    "velocity": 0.14173228346456693,
                    "duration": 0.27661862499999756
                },
                {
                    "name": "D#4",
                    "midi": 63,
                    "time": 123.45926000000064,
                    "velocity": 0.1732283464566929,
                    "duration": 0.27661862499999756
                },
                {
                    "name": "D#3",
                    "midi": 51,
                    "time": 123.75043750000064,
                    "velocity": 0.11023622047244094,
                    "duration": 0.27661862499999756
                },
                {
                    "name": "G#3",
                    "midi": 56,
                    "time": 123.75043750000064,
                    "velocity": 0.12598425196850394,
                    "duration": 0.27661862499999756
                },
                {
                    "name": "D#4",
                    "midi": 63,
                    "time": 123.75043750000064,
                    "velocity": 0.15748031496062992,
                    "duration": 0.27661862499999756
                },
                {
                    "name": "D#3",
                    "midi": 51,
                    "time": 124.04161500000065,
                    "velocity": 0.12598425196850394,
                    "duration": 0.27661862499999756
                },
                {
                    "name": "D#4",
                    "midi": 63,
                    "time": 124.04161500000065,
                    "velocity": 0.15748031496062992,
                    "duration": 0.27661862499999756
                },
                {
                    "name": "D#3",
                    "midi": 51,
                    "time": 124.33279250000065,
                    "velocity": 0.12598425196850394,
                    "duration": 0.27661862499999756
                },
                {
                    "name": "D#4",
                    "midi": 63,
                    "time": 124.33279250000065,
                    "velocity": 0.15748031496062992,
                    "duration": 0.27661862499999756
                },
                {
                    "name": "D#3",
                    "midi": 51,
                    "time": 124.62397000000065,
                    "velocity": 0.11811023622047244,
                    "duration": 0.27661862499999756
                },
                {
                    "name": "D#4",
                    "midi": 63,
                    "time": 124.62397000000065,
                    "velocity": 0.14173228346456693,
                    "duration": 0.27661862499999756
                },
                {
                    "name": "D#3",
                    "midi": 51,
                    "time": 124.91514750000066,
                    "velocity": 0.12598425196850394,
                    "duration": 0.27661862499999756
                },
                {
                    "name": "D#4",
                    "midi": 63,
                    "time": 124.91514750000066,
                    "velocity": 0.15748031496062992,
                    "duration": 0.27661862499999756
                },
                {
                    "name": "D#3",
                    "midi": 51,
                    "time": 125.20632500000066,
                    "velocity": 0.11811023622047244,
                    "duration": 0.27661862499999756
                },
                {
                    "name": "D#4",
                    "midi": 63,
                    "time": 125.20632500000066,
                    "velocity": 0.14173228346456693,
                    "duration": 0.27661862499999756
                },
                {
                    "name": "D#3",
                    "midi": 51,
                    "time": 125.49750250000066,
                    "velocity": 0.11811023622047244,
                    "duration": 0.27661862499999756
                },
                {
                    "name": "D#4",
                    "midi": 63,
                    "time": 125.49750250000066,
                    "velocity": 0.14173228346456693,
                    "duration": 0.27661862499999756
                },
                {
                    "name": "G#1",
                    "midi": 32,
                    "time": 125.78868000000067,
                    "velocity": 0.4881889763779528,
                    "duration": 1.7470650000000205
                },
                {
                    "name": "D#3",
                    "midi": 51,
                    "time": 126.07985750000067,
                    "velocity": 0.13385826771653545,
                    "duration": 0.27661862499999756
                },
                {
                    "name": "D#4",
                    "midi": 63,
                    "time": 126.07985750000067,
                    "velocity": 0.1732283464566929,
                    "duration": 0.27661862499999756
                },
                {
                    "name": "D#3",
                    "midi": 51,
                    "time": 126.37103500000067,
                    "velocity": 0.14173228346456693,
                    "duration": 0.27661862499999756
                },
                {
                    "name": "D#4",
                    "midi": 63,
                    "time": 126.37103500000067,
                    "velocity": 0.1732283464566929,
                    "duration": 0.27661862499999756
                },
                {
                    "name": "D#3",
                    "midi": 51,
                    "time": 126.66221250000068,
                    "velocity": 0.15748031496062992,
                    "duration": 0.27661862499999756
                },
                {
                    "name": "D#4",
                    "midi": 63,
                    "time": 126.66221250000068,
                    "velocity": 0.1889763779527559,
                    "duration": 0.27661862499999756
                },
                {
                    "name": "D#3",
                    "midi": 51,
                    "time": 126.95339000000068,
                    "velocity": 0.14173228346456693,
                    "duration": 0.27661862499999756
                },
                {
                    "name": "D#4",
                    "midi": 63,
                    "time": 126.95339000000068,
                    "velocity": 0.1732283464566929,
                    "duration": 0.27661862499999756
                },
                {
                    "name": "D#3",
                    "midi": 51,
                    "time": 127.24456750000068,
                    "velocity": 0.14173228346456693,
                    "duration": 0.27661862499999756
                },
                {
                    "name": "D#4",
                    "midi": 63,
                    "time": 127.24456750000068,
                    "velocity": 0.1732283464566929,
                    "duration": 0.27661862499999756
                },
                {
                    "name": "D#3",
                    "midi": 51,
                    "time": 127.53574500000069,
                    "velocity": 0.11811023622047244,
                    "duration": 0.27661862499999756
                },
                {
                    "name": "G#3",
                    "midi": 56,
                    "time": 127.53574500000069,
                    "velocity": 0.13385826771653545,
                    "duration": 0.27661862499999756
                },
                {
                    "name": "D#4",
                    "midi": 63,
                    "time": 127.53574500000069,
                    "velocity": 0.16535433070866143,
                    "duration": 0.27661862499999756
                },
                {
                    "name": "D#3",
                    "midi": 51,
                    "time": 127.82692250000069,
                    "velocity": 0.11811023622047244,
                    "duration": 0.2766186250000118
                },
                {
                    "name": "G#3",
                    "midi": 56,
                    "time": 127.82692250000069,
                    "velocity": 0.13385826771653545,
                    "duration": 0.2766186250000118
                },
                {
                    "name": "D#4",
                    "midi": 63,
                    "time": 127.82692250000069,
                    "velocity": 0.16535433070866143,
                    "duration": 0.2766186250000118
                },
                {
                    "name": "D#3",
                    "midi": 51,
                    "time": 128.1181000000007,
                    "velocity": 0.11811023622047244,
                    "duration": 0.27661862499999756
                },
                {
                    "name": "G#3",
                    "midi": 56,
                    "time": 128.1181000000007,
                    "velocity": 0.13385826771653545,
                    "duration": 0.27661862499999756
                },
                {
                    "name": "D#4",
                    "midi": 63,
                    "time": 128.1181000000007,
                    "velocity": 0.16535433070866143,
                    "duration": 0.27661862499999756
                },
                {
                    "name": "D#3",
                    "midi": 51,
                    "time": 128.4092775000007,
                    "velocity": 0.11811023622047244,
                    "duration": 0.27661862499999756
                },
                {
                    "name": "G#3",
                    "midi": 56,
                    "time": 128.4092775000007,
                    "velocity": 0.15748031496062992,
                    "duration": 0.27661862499999756
                },
                {
                    "name": "D#4",
                    "midi": 63,
                    "time": 128.4092775000007,
                    "velocity": 0.1968503937007874,
                    "duration": 0.27661862499999756
                },
                {
                    "name": "D#3",
                    "midi": 51,
                    "time": 128.70045500000072,
                    "velocity": 0.11811023622047244,
                    "duration": 0.27661862499999756
                },
                {
                    "name": "G#3",
                    "midi": 56,
                    "time": 128.70045500000072,
                    "velocity": 0.13385826771653545,
                    "duration": 0.27661862499999756
                },
                {
                    "name": "D#4",
                    "midi": 63,
                    "time": 128.70045500000072,
                    "velocity": 0.16535433070866143,
                    "duration": 0.27661862499999756
                },
                {
                    "name": "D#3",
                    "midi": 51,
                    "time": 128.99163250000072,
                    "velocity": 0.11811023622047244,
                    "duration": 0.27661862499999756
                },
                {
                    "name": "G#3",
                    "midi": 56,
                    "time": 128.99163250000072,
                    "velocity": 0.13385826771653545,
                    "duration": 0.27661862499999756
                },
                {
                    "name": "D#4",
                    "midi": 63,
                    "time": 128.99163250000072,
                    "velocity": 0.16535433070866143,
                    "duration": 0.27661862499999756
                },
                {
                    "name": "G#1",
                    "midi": 32,
                    "time": 129.28281000000072,
                    "velocity": 0.4409448818897638,
                    "duration": 1.7470650000000205
                },
                {
                    "name": "F3",
                    "midi": 53,
                    "time": 129.57398750000073,
                    "velocity": 0.08661417322834646,
                    "duration": 0.27661862499999756
                },
                {
                    "name": "G#3",
                    "midi": 56,
                    "time": 129.57398750000073,
                    "velocity": 0.09448818897637795,
                    "duration": 0.27661862499999756
                },
                {
                    "name": "C#4",
                    "midi": 61,
                    "time": 129.57398750000073,
                    "velocity": 0.14173228346456693,
                    "duration": 0.27661862499999756
                },
                {
                    "name": "F4",
                    "midi": 65,
                    "time": 129.57398750000073,
                    "velocity": 0.1732283464566929,
                    "duration": 0.27661862499999756
                },
                {
                    "name": "F3",
                    "midi": 53,
                    "time": 129.86516500000073,
                    "velocity": 0.08661417322834646,
                    "duration": 0.27661862499999756
                },
                {
                    "name": "G#3",
                    "midi": 56,
                    "time": 129.86516500000073,
                    "velocity": 0.09448818897637795,
                    "duration": 0.27661862499999756
                },
                {
                    "name": "C#4",
                    "midi": 61,
                    "time": 129.86516500000073,
                    "velocity": 0.14173228346456693,
                    "duration": 0.27661862499999756
                },
                {
                    "name": "F4",
                    "midi": 65,
                    "time": 129.86516500000073,
                    "velocity": 0.1732283464566929,
                    "duration": 0.27661862499999756
                },
                {
                    "name": "F3",
                    "midi": 53,
                    "time": 130.15634250000073,
                    "velocity": 0.08661417322834646,
                    "duration": 0.27661862499999756
                },
                {
                    "name": "G#3",
                    "midi": 56,
                    "time": 130.15634250000073,
                    "velocity": 0.10236220472440945,
                    "duration": 0.27661862499999756
                },
                {
                    "name": "C#4",
                    "midi": 61,
                    "time": 130.15634250000073,
                    "velocity": 0.15748031496062992,
                    "duration": 0.27661862499999756
                },
                {
                    "name": "F4",
                    "midi": 65,
                    "time": 130.15634250000073,
                    "velocity": 0.1968503937007874,
                    "duration": 0.27661862499999756
                },
                {
                    "name": "F3",
                    "midi": 53,
                    "time": 130.44752000000074,
                    "velocity": 0.08661417322834646,
                    "duration": 0.27661862499999756
                },
                {
                    "name": "G#3",
                    "midi": 56,
                    "time": 130.44752000000074,
                    "velocity": 0.09448818897637795,
                    "duration": 0.27661862499999756
                },
                {
                    "name": "C#4",
                    "midi": 61,
                    "time": 130.44752000000074,
                    "velocity": 0.14173228346456693,
                    "duration": 0.27661862499999756
                },
                {
                    "name": "F4",
                    "midi": 65,
                    "time": 130.44752000000074,
                    "velocity": 0.1732283464566929,
                    "duration": 0.27661862499999756
                },
                {
                    "name": "F3",
                    "midi": 53,
                    "time": 130.73869750000074,
                    "velocity": 0.08661417322834646,
                    "duration": 0.27661862499999756
                },
                {
                    "name": "G#3",
                    "midi": 56,
                    "time": 130.73869750000074,
                    "velocity": 0.09448818897637795,
                    "duration": 0.27661862499999756
                },
                {
                    "name": "C#4",
                    "midi": 61,
                    "time": 130.73869750000074,
                    "velocity": 0.14173228346456693,
                    "duration": 0.27661862499999756
                },
                {
                    "name": "F4",
                    "midi": 65,
                    "time": 130.73869750000074,
                    "velocity": 0.1732283464566929,
                    "duration": 0.27661862499999756
                },
                {
                    "name": "G3",
                    "midi": 55,
                    "time": 131.02987500000074,
                    "velocity": 0.08661417322834646,
                    "duration": 0.276618625000026
                },
                {
                    "name": "A#3",
                    "midi": 58,
                    "time": 131.02987500000074,
                    "velocity": 0.09448818897637795,
                    "duration": 0.276618625000026
                },
                {
                    "name": "C#4",
                    "midi": 61,
                    "time": 131.02987500000074,
                    "velocity": 0.11811023622047244,
                    "duration": 0.276618625000026
                },
                {
                    "name": "G4",
                    "midi": 67,
                    "time": 131.02987500000074,
                    "velocity": 0.13385826771653545,
                    "duration": 0.276618625000026
                },
                {
                    "name": "G3",
                    "midi": 55,
                    "time": 131.32105250000077,
                    "velocity": 0.08661417322834646,
                    "duration": 0.27661862499999756
                },
                {
                    "name": "A#3",
                    "midi": 58,
                    "time": 131.32105250000077,
                    "velocity": 0.09448818897637795,
                    "duration": 0.27661862499999756
                },
                {
                    "name": "C#4",
                    "midi": 61,
                    "time": 131.32105250000077,
                    "velocity": 0.11811023622047244,
                    "duration": 0.27661862499999756
                },
                {
                    "name": "G4",
                    "midi": 67,
                    "time": 131.32105250000077,
                    "velocity": 0.13385826771653545,
                    "duration": 0.27661862499999756
                },
                {
                    "name": "G3",
                    "midi": 55,
                    "time": 131.61223000000078,
                    "velocity": 0.08661417322834646,
                    "duration": 0.27661862499999756
                },
                {
                    "name": "A#3",
                    "midi": 58,
                    "time": 131.61223000000078,
                    "velocity": 0.09448818897637795,
                    "duration": 0.27661862499999756
                },
                {
                    "name": "C#4",
                    "midi": 61,
                    "time": 131.61223000000078,
                    "velocity": 0.11811023622047244,
                    "duration": 0.27661862499999756
                },
                {
                    "name": "G4",
                    "midi": 67,
                    "time": 131.61223000000078,
                    "velocity": 0.14173228346456693,
                    "duration": 0.27661862499999756
                },
                {
                    "name": "G#3",
                    "midi": 56,
                    "time": 131.90340750000078,
                    "velocity": 0.10236220472440945,
                    "duration": 0.27661862499999756
                },
                {
                    "name": "C#4",
                    "midi": 61,
                    "time": 131.90340750000078,
                    "velocity": 0.11811023622047244,
                    "duration": 0.27661862499999756
                },
                {
                    "name": "G#4",
                    "midi": 68,
                    "time": 131.90340750000078,
                    "velocity": 0.14173228346456693,
                    "duration": 0.27661862499999756
                },
                {
                    "name": "G#3",
                    "midi": 56,
                    "time": 132.19458500000079,
                    "velocity": 0.08661417322834646,
                    "duration": 0.27661862499999756
                },
                {
                    "name": "C#4",
                    "midi": 61,
                    "time": 132.19458500000079,
                    "velocity": 0.11811023622047244,
                    "duration": 0.27661862499999756
                },
                {
                    "name": "G#4",
                    "midi": 68,
                    "time": 132.19458500000079,
                    "velocity": 0.14173228346456693,
                    "duration": 0.27661862499999756
                },
                {
                    "name": "G#3",
                    "midi": 56,
                    "time": 132.4857625000008,
                    "velocity": 0.08661417322834646,
                    "duration": 0.27661862499999756
                },
                {
                    "name": "C#4",
                    "midi": 61,
                    "time": 132.4857625000008,
                    "velocity": 0.11811023622047244,
                    "duration": 0.27661862499999756
                },
                {
                    "name": "G#4",
                    "midi": 68,
                    "time": 132.4857625000008,
                    "velocity": 0.14173228346456693,
                    "duration": 0.27661862499999756
                },
                {
                    "name": "G#1",
                    "midi": 32,
                    "time": 132.7769400000008,
                    "velocity": 0.44881889763779526,
                    "duration": 1.7470650000000205
                },
                {
                    "name": "G3",
                    "midi": 55,
                    "time": 133.0681175000008,
                    "velocity": 0.10236220472440945,
                    "duration": 0.27661862499999756
                },
                {
                    "name": "A#3",
                    "midi": 58,
                    "time": 133.0681175000008,
                    "velocity": 0.14173228346456693,
                    "duration": 0.27661862499999756
                },
                {
                    "name": "G4",
                    "midi": 67,
                    "time": 133.0681175000008,
                    "velocity": 0.1732283464566929,
                    "duration": 0.27661862499999756
                },
                {
                    "name": "G3",
                    "midi": 55,
                    "time": 133.3592950000008,
                    "velocity": 0.10236220472440945,
                    "duration": 0.27661862499999756
                },
                {
                    "name": "A#3",
                    "midi": 58,
                    "time": 133.3592950000008,
                    "velocity": 0.14173228346456693,
                    "duration": 0.27661862499999756
                },
                {
                    "name": "G4",
                    "midi": 67,
                    "time": 133.3592950000008,
                    "velocity": 0.1732283464566929,
                    "duration": 0.27661862499999756
                },
                {
                    "name": "C#4",
                    "midi": 61,
                    "time": 133.6504725000008,
                    "velocity": 0.14173228346456693,
                    "duration": 0.27661862499999756
                },
                {
                    "name": "D#4",
                    "midi": 63,
                    "time": 133.6504725000008,
                    "velocity": 0.14173228346456693,
                    "duration": 0.27661862499999756
                },
                {
                    "name": "G3",
                    "midi": 55,
                    "time": 133.6504725000008,
                    "velocity": 0.11023622047244094,
                    "duration": 0.27661862499999756
                },
                {
                    "name": "A#3",
                    "midi": 58,
                    "time": 133.6504725000008,
                    "velocity": 0.15748031496062992,
                    "duration": 0.27661862499999756
                },
                {
                    "name": "G4",
                    "midi": 67,
                    "time": 133.6504725000008,
                    "velocity": 0.1968503937007874,
                    "duration": 0.27661862499999756
                },
                {
                    "name": "C#4",
                    "midi": 61,
                    "time": 133.9416500000008,
                    "velocity": 0.14173228346456693,
                    "duration": 0.27661862499999756
                },
                {
                    "name": "D#4",
                    "midi": 63,
                    "time": 133.9416500000008,
                    "velocity": 0.14173228346456693,
                    "duration": 0.27661862499999756
                },
                {
                    "name": "G3",
                    "midi": 55,
                    "time": 133.9416500000008,
                    "velocity": 0.10236220472440945,
                    "duration": 0.27661862499999756
                },
                {
                    "name": "A#3",
                    "midi": 58,
                    "time": 133.9416500000008,
                    "velocity": 0.14173228346456693,
                    "duration": 0.27661862499999756
                },
                {
                    "name": "G4",
                    "midi": 67,
                    "time": 133.9416500000008,
                    "velocity": 0.1732283464566929,
                    "duration": 0.27661862499999756
                },
                {
                    "name": "C#4",
                    "midi": 61,
                    "time": 134.2328275000008,
                    "velocity": 0.14173228346456693,
                    "duration": 0.27661862499999756
                },
                {
                    "name": "D#4",
                    "midi": 63,
                    "time": 134.2328275000008,
                    "velocity": 0.14173228346456693,
                    "duration": 0.27661862499999756
                },
                {
                    "name": "G3",
                    "midi": 55,
                    "time": 134.2328275000008,
                    "velocity": 0.10236220472440945,
                    "duration": 0.27661862499999756
                },
                {
                    "name": "A#3",
                    "midi": 58,
                    "time": 134.2328275000008,
                    "velocity": 0.14173228346456693,
                    "duration": 0.27661862499999756
                },
                {
                    "name": "G4",
                    "midi": 67,
                    "time": 134.2328275000008,
                    "velocity": 0.1732283464566929,
                    "duration": 0.27661862499999756
                },
                {
                    "name": "G#3",
                    "midi": 56,
                    "time": 134.5240050000008,
                    "velocity": 0.10236220472440945,
                    "duration": 0.276618625000026
                },
                {
                    "name": "C4",
                    "midi": 60,
                    "time": 134.5240050000008,
                    "velocity": 0.11811023622047244,
                    "duration": 0.276618625000026
                },
                {
                    "name": "F#4",
                    "midi": 66,
                    "time": 134.5240050000008,
                    "velocity": 0.13385826771653545,
                    "duration": 0.276618625000026
                },
                {
                    "name": "G#3",
                    "midi": 56,
                    "time": 134.81518250000084,
                    "velocity": 0.10236220472440945,
                    "duration": 0.27661862499999756
                },
                {
                    "name": "C4",
                    "midi": 60,
                    "time": 134.81518250000084,
                    "velocity": 0.11811023622047244,
                    "duration": 0.27661862499999756
                },
                {
                    "name": "F#4",
                    "midi": 66,
                    "time": 134.81518250000084,
                    "velocity": 0.13385826771653545,
                    "duration": 0.27661862499999756
                },
                {
                    "name": "G#3",
                    "midi": 56,
                    "time": 135.10636000000085,
                    "velocity": 0.10236220472440945,
                    "duration": 0.27661862499999756
                },
                {
                    "name": "C4",
                    "midi": 60,
                    "time": 135.10636000000085,
                    "velocity": 0.11811023622047244,
                    "duration": 0.27661862499999756
                },
                {
                    "name": "F#4",
                    "midi": 66,
                    "time": 135.10636000000085,
                    "velocity": 0.14173228346456693,
                    "duration": 0.27661862499999756
                },
                {
                    "name": "F3",
                    "midi": 53,
                    "time": 135.39753750000085,
                    "velocity": 0.10236220472440945,
                    "duration": 0.27661862499996914
                },
                {
                    "name": "G#3",
                    "midi": 56,
                    "time": 135.39753750000085,
                    "velocity": 0.11811023622047244,
                    "duration": 0.27661862499996914
                },
                {
                    "name": "F4",
                    "midi": 65,
                    "time": 135.39753750000085,
                    "velocity": 0.14173228346456693,
                    "duration": 0.27661862499996914
                },
                {
                    "name": "F3",
                    "midi": 53,
                    "time": 135.68871500000083,
                    "velocity": 0.09448818897637795,
                    "duration": 0.27661862499999756
                },
                {
                    "name": "G#3",
                    "midi": 56,
                    "time": 135.68871500000083,
                    "velocity": 0.11023622047244094,
                    "duration": 0.27661862499999756
                },
                {
                    "name": "F4",
                    "midi": 65,
                    "time": 135.68871500000083,
                    "velocity": 0.13385826771653545,
                    "duration": 0.27661862499999756
                },
                {
                    "name": "F3",
                    "midi": 53,
                    "time": 135.97989250000083,
                    "velocity": 0.08661417322834646,
                    "duration": 0.27661862499999756
                },
                {
                    "name": "G#3",
                    "midi": 56,
                    "time": 135.97989250000083,
                    "velocity": 0.10236220472440945,
                    "duration": 0.27661862499999756
                },
                {
                    "name": "F4",
                    "midi": 65,
                    "time": 135.97989250000083,
                    "velocity": 0.12598425196850394,
                    "duration": 0.27661862499999756
                },
                {
                    "name": "G#1",
                    "midi": 32,
                    "time": 136.27107000000083,
                    "velocity": 0.4409448818897638,
                    "duration": 1.7470650000000205
                },
                {
                    "name": "E3",
                    "midi": 52,
                    "time": 136.56224750000084,
                    "velocity": 0.11023622047244094,
                    "duration": 0.27661862499999756
                },
                {
                    "name": "G#3",
                    "midi": 56,
                    "time": 136.56224750000084,
                    "velocity": 0.12598425196850394,
                    "duration": 0.27661862499999756
                },
                {
                    "name": "E4",
                    "midi": 64,
                    "time": 136.56224750000084,
                    "velocity": 0.15748031496062992,
                    "duration": 0.27661862499999756
                },
                {
                    "name": "E3",
                    "midi": 52,
                    "time": 136.85342500000084,
                    "velocity": 0.11023622047244094,
                    "duration": 0.27661862499999756
                },
                {
                    "name": "G#3",
                    "midi": 56,
                    "time": 136.85342500000084,
                    "velocity": 0.12598425196850394,
                    "duration": 0.27661862499999756
                },
                {
                    "name": "E4",
                    "midi": 64,
                    "time": 136.85342500000084,
                    "velocity": 0.15748031496062992,
                    "duration": 0.27661862499999756
                },
                {
                    "name": "E3",
                    "midi": 52,
                    "time": 137.14460250000084,
                    "velocity": 0.11023622047244094,
                    "duration": 0.27661862499999756
                },
                {
                    "name": "G#3",
                    "midi": 56,
                    "time": 137.14460250000084,
                    "velocity": 0.12598425196850394,
                    "duration": 0.27661862499999756
                },
                {
                    "name": "E4",
                    "midi": 64,
                    "time": 137.14460250000084,
                    "velocity": 0.15748031496062992,
                    "duration": 0.27661862499999756
                },
                {
                    "name": "E3",
                    "midi": 52,
                    "time": 137.43578000000085,
                    "velocity": 0.08661417322834646,
                    "duration": 0.27661862499999756
                },
                {
                    "name": "G#3",
                    "midi": 56,
                    "time": 137.43578000000085,
                    "velocity": 0.12598425196850394,
                    "duration": 0.27661862499999756
                },
                {
                    "name": "E4",
                    "midi": 64,
                    "time": 137.43578000000085,
                    "velocity": 0.15748031496062992,
                    "duration": 0.27661862499999756
                },
                {
                    "name": "E3",
                    "midi": 52,
                    "time": 137.72695750000085,
                    "velocity": 0.08661417322834646,
                    "duration": 0.27661862499999756
                },
                {
                    "name": "G#3",
                    "midi": 56,
                    "time": 137.72695750000085,
                    "velocity": 0.11811023622047244,
                    "duration": 0.27661862499999756
                },
                {
                    "name": "E4",
                    "midi": 64,
                    "time": 137.72695750000085,
                    "velocity": 0.13385826771653545,
                    "duration": 0.27661862499999756
                },
                {
                    "name": "D#3",
                    "midi": 51,
                    "time": 138.01813500000085,
                    "velocity": 0.07874015748031496,
                    "duration": 0.27661862499996914
                },
                {
                    "name": "G#3",
                    "midi": 56,
                    "time": 138.01813500000085,
                    "velocity": 0.11811023622047244,
                    "duration": 0.27661862499996914
                },
                {
                    "name": "D#4",
                    "midi": 63,
                    "time": 138.01813500000085,
                    "velocity": 0.14173228346456693,
                    "duration": 0.27661862499996914
                },
                {
                    "name": "G#3",
                    "midi": 56,
                    "time": 138.30931250000083,
                    "velocity": 0.11811023622047244,
                    "duration": 0.27661862499999756
                },
                {
                    "name": "D#3",
                    "midi": 51,
                    "time": 138.30931250000083,
                    "velocity": 0.07874015748031496,
                    "duration": 0.27661862499999756
                },
                {
                    "name": "D#4",
                    "midi": 63,
                    "time": 138.30931250000083,
                    "velocity": 0.14173228346456693,
                    "duration": 0.27661862499999756
                },
                {
                    "name": "G#3",
                    "midi": 56,
                    "time": 138.60049000000083,
                    "velocity": 0.11811023622047244,
                    "duration": 0.27661862499999756
                },
                {
                    "name": "D#3",
                    "midi": 51,
                    "time": 138.60049000000083,
                    "velocity": 0.07086614173228346,
                    "duration": 0.27661862499999756
                },
                {
                    "name": "D#4",
                    "midi": 63,
                    "time": 138.60049000000083,
                    "velocity": 0.13385826771653545,
                    "duration": 0.27661862499999756
                },
                {
                    "name": "G#3",
                    "midi": 56,
                    "time": 138.89166750000084,
                    "velocity": 0.11811023622047244,
                    "duration": 0.27661862499999756
                },
                {
                    "name": "D#3",
                    "midi": 51,
                    "time": 138.89166750000084,
                    "velocity": 0.07874015748031496,
                    "duration": 0.27661862499999756
                },
                {
                    "name": "D#4",
                    "midi": 63,
                    "time": 138.89166750000084,
                    "velocity": 0.14173228346456693,
                    "duration": 0.27661862499999756
                },
                {
                    "name": "G#3",
                    "midi": 56,
                    "time": 139.18284500000084,
                    "velocity": 0.11811023622047244,
                    "duration": 0.27661862499999756
                },
                {
                    "name": "D#3",
                    "midi": 51,
                    "time": 139.18284500000084,
                    "velocity": 0.07086614173228346,
                    "duration": 0.27661862499999756
                },
                {
                    "name": "D#4",
                    "midi": 63,
                    "time": 139.18284500000084,
                    "velocity": 0.13385826771653545,
                    "duration": 0.27661862499999756
                },
                {
                    "name": "G#3",
                    "midi": 56,
                    "time": 139.47402250000084,
                    "velocity": 0.11811023622047244,
                    "duration": 0.27661862499999756
                },
                {
                    "name": "D#3",
                    "midi": 51,
                    "time": 139.47402250000084,
                    "velocity": 0.07086614173228346,
                    "duration": 0.27661862499999756
                },
                {
                    "name": "D#4",
                    "midi": 63,
                    "time": 139.47402250000084,
                    "velocity": 0.13385826771653545,
                    "duration": 0.27661862499999756
                },
                {
                    "name": "G#1",
                    "midi": 32,
                    "time": 139.76520000000085,
                    "velocity": 0.4409448818897638,
                    "duration": 1.7470650000000205
                },
                {
                    "name": "E3",
                    "midi": 52,
                    "time": 140.05637750000085,
                    "velocity": 0.11023622047244094,
                    "duration": 0.27661862499999756
                },
                {
                    "name": "G#3",
                    "midi": 56,
                    "time": 140.05637750000085,
                    "velocity": 0.12598425196850394,
                    "duration": 0.27661862499999756
                },
                {
                    "name": "E4",
                    "midi": 64,
                    "time": 140.05637750000085,
                    "velocity": 0.15748031496062992,
                    "duration": 0.27661862499999756
                },
                {
                    "name": "E3",
                    "midi": 52,
                    "time": 140.34755500000085,
                    "velocity": 0.11023622047244094,
                    "duration": 0.27661862499999756
                },
                {
                    "name": "G#3",
                    "midi": 56,
                    "time": 140.34755500000085,
                    "velocity": 0.12598425196850394,
                    "duration": 0.27661862499999756
                },
                {
                    "name": "E4",
                    "midi": 64,
                    "time": 140.34755500000085,
                    "velocity": 0.15748031496062992,
                    "duration": 0.27661862499999756
                },
                {
                    "name": "E3",
                    "midi": 52,
                    "time": 140.63873250000086,
                    "velocity": 0.11023622047244094,
                    "duration": 0.27661862499999756
                },
                {
                    "name": "G#3",
                    "midi": 56,
                    "time": 140.63873250000086,
                    "velocity": 0.12598425196850394,
                    "duration": 0.27661862499999756
                },
                {
                    "name": "E4",
                    "midi": 64,
                    "time": 140.63873250000086,
                    "velocity": 0.15748031496062992,
                    "duration": 0.27661862499999756
                },
                {
                    "name": "E3",
                    "midi": 52,
                    "time": 140.92991000000086,
                    "velocity": 0.08661417322834646,
                    "duration": 0.27661862499999756
                },
                {
                    "name": "G#3",
                    "midi": 56,
                    "time": 140.92991000000086,
                    "velocity": 0.12598425196850394,
                    "duration": 0.27661862499999756
                },
                {
                    "name": "E4",
                    "midi": 64,
                    "time": 140.92991000000086,
                    "velocity": 0.15748031496062992,
                    "duration": 0.27661862499999756
                },
                {
                    "name": "E3",
                    "midi": 52,
                    "time": 141.22108750000086,
                    "velocity": 0.08661417322834646,
                    "duration": 0.27661862499999756
                },
                {
                    "name": "G#3",
                    "midi": 56,
                    "time": 141.22108750000086,
                    "velocity": 0.11811023622047244,
                    "duration": 0.27661862499999756
                },
                {
                    "name": "E4",
                    "midi": 64,
                    "time": 141.22108750000086,
                    "velocity": 0.13385826771653545,
                    "duration": 0.27661862499999756
                },
                {
                    "name": "D#3",
                    "midi": 51,
                    "time": 141.51226500000087,
                    "velocity": 0.07874015748031496,
                    "duration": 0.27661862499996914
                },
                {
                    "name": "G#3",
                    "midi": 56,
                    "time": 141.51226500000087,
                    "velocity": 0.11811023622047244,
                    "duration": 0.27661862499996914
                },
                {
                    "name": "D#4",
                    "midi": 63,
                    "time": 141.51226500000087,
                    "velocity": 0.14173228346456693,
                    "duration": 0.27661862499996914
                },
                {
                    "name": "G#3",
                    "midi": 56,
                    "time": 141.80344250000084,
                    "velocity": 0.11811023622047244,
                    "duration": 0.27661862499999756
                },
                {
                    "name": "D#3",
                    "midi": 51,
                    "time": 141.80344250000084,
                    "velocity": 0.07874015748031496,
                    "duration": 0.27661862499999756
                },
                {
                    "name": "D#4",
                    "midi": 63,
                    "time": 141.80344250000084,
                    "velocity": 0.14173228346456693,
                    "duration": 0.27661862499999756
                },
                {
                    "name": "G#3",
                    "midi": 56,
                    "time": 142.09462000000084,
                    "velocity": 0.11811023622047244,
                    "duration": 0.27661862499999756
                },
                {
                    "name": "D#3",
                    "midi": 51,
                    "time": 142.09462000000084,
                    "velocity": 0.07086614173228346,
                    "duration": 0.27661862499999756
                },
                {
                    "name": "D#4",
                    "midi": 63,
                    "time": 142.09462000000084,
                    "velocity": 0.13385826771653545,
                    "duration": 0.27661862499999756
                },
                {
                    "name": "E3",
                    "midi": 52,
                    "time": 142.38579750000085,
                    "velocity": 0.11023622047244094,
                    "duration": 0.27661862499999756
                },
                {
                    "name": "G#3",
                    "midi": 56,
                    "time": 142.38579750000085,
                    "velocity": 0.12598425196850394,
                    "duration": 0.27661862499999756
                },
                {
                    "name": "E4",
                    "midi": 64,
                    "time": 142.38579750000085,
                    "velocity": 0.15748031496062992,
                    "duration": 0.27661862499999756
                },
                {
                    "name": "E3",
                    "midi": 52,
                    "time": 142.67697500000085,
                    "velocity": 0.08661417322834646,
                    "duration": 0.27661862499999756
                },
                {
                    "name": "G#3",
                    "midi": 56,
                    "time": 142.67697500000085,
                    "velocity": 0.12598425196850394,
                    "duration": 0.27661862499999756
                },
                {
                    "name": "E4",
                    "midi": 64,
                    "time": 142.67697500000085,
                    "velocity": 0.15748031496062992,
                    "duration": 0.27661862499999756
                },
                {
                    "name": "E3",
                    "midi": 52,
                    "time": 142.96815250000085,
                    "velocity": 0.08661417322834646,
                    "duration": 0.27661862499999756
                },
                {
                    "name": "G#3",
                    "midi": 56,
                    "time": 142.96815250000085,
                    "velocity": 0.11811023622047244,
                    "duration": 0.27661862499999756
                },
                {
                    "name": "E4",
                    "midi": 64,
                    "time": 142.96815250000085,
                    "velocity": 0.13385826771653545,
                    "duration": 0.27661862499999756
                },
                {
                    "name": "D#3",
                    "midi": 51,
                    "time": 143.25933000000086,
                    "velocity": 0.07874015748031496,
                    "duration": 0.27661862499999756
                },
                {
                    "name": "G#3",
                    "midi": 56,
                    "time": 143.25933000000086,
                    "velocity": 0.11811023622047244,
                    "duration": 0.27661862499999756
                },
                {
                    "name": "D#4",
                    "midi": 63,
                    "time": 143.25933000000086,
                    "velocity": 0.14173228346456693,
                    "duration": 0.27661862499999756
                },
                {
                    "name": "G#3",
                    "midi": 56,
                    "time": 143.55050750000086,
                    "velocity": 0.11811023622047244,
                    "duration": 0.27661862499999756
                },
                {
                    "name": "D#3",
                    "midi": 51,
                    "time": 143.55050750000086,
                    "velocity": 0.07874015748031496,
                    "duration": 0.27661862499999756
                },
                {
                    "name": "D#4",
                    "midi": 63,
                    "time": 143.55050750000086,
                    "velocity": 0.14173228346456693,
                    "duration": 0.27661862499999756
                },
                {
                    "name": "G#3",
                    "midi": 56,
                    "time": 143.84168500000087,
                    "velocity": 0.11811023622047244,
                    "duration": 0.27661862499999756
                },
                {
                    "name": "D#3",
                    "midi": 51,
                    "time": 143.84168500000087,
                    "velocity": 0.07086614173228346,
                    "duration": 0.27661862499999756
                },
                {
                    "name": "D#4",
                    "midi": 63,
                    "time": 143.84168500000087,
                    "velocity": 0.13385826771653545,
                    "duration": 0.27661862499999756
                },
                {
                    "name": "D#3",
                    "midi": 51,
                    "time": 144.13286250000087,
                    "velocity": 0.11023622047244094,
                    "duration": 0.27661862499999756
                },
                {
                    "name": "G#3",
                    "midi": 56,
                    "time": 144.13286250000087,
                    "velocity": 0.12598425196850394,
                    "duration": 0.27661862499999756
                },
                {
                    "name": "D#4",
                    "midi": 63,
                    "time": 144.13286250000087,
                    "velocity": 0.15748031496062992,
                    "duration": 0.27661862499999756
                },
                {
                    "name": "D#3",
                    "midi": 51,
                    "time": 144.42404000000087,
                    "velocity": 0.08661417322834646,
                    "duration": 0.27661862499999756
                },
                {
                    "name": "G#3",
                    "midi": 56,
                    "time": 144.42404000000087,
                    "velocity": 0.12598425196850394,
                    "duration": 0.27661862499999756
                },
                {
                    "name": "D#4",
                    "midi": 63,
                    "time": 144.42404000000087,
                    "velocity": 0.15748031496062992,
                    "duration": 0.27661862499999756
                },
                {
                    "name": "D#3",
                    "midi": 51,
                    "time": 144.71521750000088,
                    "velocity": 0.08661417322834646,
                    "duration": 0.27661862499999756
                },
                {
                    "name": "G#3",
                    "midi": 56,
                    "time": 144.71521750000088,
                    "velocity": 0.11811023622047244,
                    "duration": 0.27661862499999756
                },
                {
                    "name": "D#4",
                    "midi": 63,
                    "time": 144.71521750000088,
                    "velocity": 0.13385826771653545,
                    "duration": 0.27661862499999756
                },
                {
                    "name": "G#1",
                    "midi": 32,
                    "time": 145.00639500000088,
                    "velocity": 0.4330708661417323,
                    "duration": 1.7470650000000205
                },
                {
                    "name": "G#3",
                    "midi": 56,
                    "time": 145.29757250000088,
                    "velocity": 0.11811023622047244,
                    "duration": 0.27661862499999756
                },
                {
                    "name": "D#3",
                    "midi": 51,
                    "time": 145.29757250000088,
                    "velocity": 0.07874015748031496,
                    "duration": 0.27661862499999756
                },
                {
                    "name": "D#4",
                    "midi": 63,
                    "time": 145.29757250000088,
                    "velocity": 0.14173228346456693,
                    "duration": 0.27661862499999756
                },
                {
                    "name": "G#3",
                    "midi": 56,
                    "time": 145.58875000000089,
                    "velocity": 0.11811023622047244,
                    "duration": 0.27661862499999756
                },
                {
                    "name": "D#3",
                    "midi": 51,
                    "time": 145.58875000000089,
                    "velocity": 0.07086614173228346,
                    "duration": 0.27661862499999756
                },
                {
                    "name": "D#4",
                    "midi": 63,
                    "time": 145.58875000000089,
                    "velocity": 0.13385826771653545,
                    "duration": 0.27661862499999756
                },
                {
                    "name": "D#3",
                    "midi": 51,
                    "time": 145.8799275000009,
                    "velocity": 0.11023622047244094,
                    "duration": 0.27661862499999756
                },
                {
                    "name": "G#3",
                    "midi": 56,
                    "time": 145.8799275000009,
                    "velocity": 0.12598425196850394,
                    "duration": 0.27661862499999756
                },
                {
                    "name": "D#4",
                    "midi": 63,
                    "time": 145.8799275000009,
                    "velocity": 0.15748031496062992,
                    "duration": 0.27661862499999756
                },
                {
                    "name": "D#3",
                    "midi": 51,
                    "time": 146.1711050000009,
                    "velocity": 0.08661417322834646,
                    "duration": 0.27661862499999756
                },
                {
                    "name": "G#3",
                    "midi": 56,
                    "time": 146.1711050000009,
                    "velocity": 0.12598425196850394,
                    "duration": 0.27661862499999756
                },
                {
                    "name": "C#4",
                    "midi": 61,
                    "time": 146.1711050000009,
                    "velocity": 0.15748031496062992,
                    "duration": 0.27661862499999756
                },
                {
                    "name": "D#3",
                    "midi": 51,
                    "time": 146.4622825000009,
                    "velocity": 0.08661417322834646,
                    "duration": 0.27661862499999756
                },
                {
                    "name": "G#3",
                    "midi": 56,
                    "time": 146.4622825000009,
                    "velocity": 0.11811023622047244,
                    "duration": 0.27661862499999756
                },
                {
                    "name": "C#4",
                    "midi": 61,
                    "time": 146.4622825000009,
                    "velocity": 0.13385826771653545,
                    "duration": 0.27661862499999756
                },
                {
                    "name": "D#3",
                    "midi": 51,
                    "time": 146.7534600000009,
                    "velocity": 0.10236220472440945,
                    "duration": 0.27661862499999756
                },
                {
                    "name": "G#3",
                    "midi": 56,
                    "time": 146.7534600000009,
                    "velocity": 0.11811023622047244,
                    "duration": 0.27661862499999756
                },
                {
                    "name": "D#4",
                    "midi": 63,
                    "time": 146.7534600000009,
                    "velocity": 0.14173228346456693,
                    "duration": 0.27661862499999756
                },
                {
                    "name": "G#3",
                    "midi": 56,
                    "time": 147.0446375000009,
                    "velocity": 0.11811023622047244,
                    "duration": 0.27661862499999756
                },
                {
                    "name": "D#3",
                    "midi": 51,
                    "time": 147.0446375000009,
                    "velocity": 0.07874015748031496,
                    "duration": 0.27661862499999756
                },
                {
                    "name": "D#4",
                    "midi": 63,
                    "time": 147.0446375000009,
                    "velocity": 0.14173228346456693,
                    "duration": 0.27661862499999756
                },
                {
                    "name": "G#3",
                    "midi": 56,
                    "time": 147.3358150000009,
                    "velocity": 0.11811023622047244,
                    "duration": 0.27661862499999756
                },
                {
                    "name": "D#3",
                    "midi": 51,
                    "time": 147.3358150000009,
                    "velocity": 0.07086614173228346,
                    "duration": 0.27661862499999756
                },
                {
                    "name": "D#4",
                    "midi": 63,
                    "time": 147.3358150000009,
                    "velocity": 0.13385826771653545,
                    "duration": 0.27661862499999756
                },
                {
                    "name": "D#3",
                    "midi": 51,
                    "time": 147.6269925000009,
                    "velocity": 0.11023622047244094,
                    "duration": 0.27661862499999756
                },
                {
                    "name": "G#3",
                    "midi": 56,
                    "time": 147.6269925000009,
                    "velocity": 0.12598425196850394,
                    "duration": 0.27661862499999756
                },
                {
                    "name": "D#4",
                    "midi": 63,
                    "time": 147.6269925000009,
                    "velocity": 0.15748031496062992,
                    "duration": 0.27661862499999756
                },
                {
                    "name": "D#3",
                    "midi": 51,
                    "time": 147.9181700000009,
                    "velocity": 0.08661417322834646,
                    "duration": 0.27661862499999756
                },
                {
                    "name": "G#3",
                    "midi": 56,
                    "time": 147.9181700000009,
                    "velocity": 0.12598425196850394,
                    "duration": 0.27661862499999756
                },
                {
                    "name": "C#4",
                    "midi": 61,
                    "time": 147.9181700000009,
                    "velocity": 0.15748031496062992,
                    "duration": 0.27661862499999756
                },
                {
                    "name": "D#3",
                    "midi": 51,
                    "time": 148.20934750000092,
                    "velocity": 0.08661417322834646,
                    "duration": 0.27661862499999756
                },
                {
                    "name": "G#3",
                    "midi": 56,
                    "time": 148.20934750000092,
                    "velocity": 0.11811023622047244,
                    "duration": 0.27661862499999756
                },
                {
                    "name": "C#4",
                    "midi": 61,
                    "time": 148.20934750000092,
                    "velocity": 0.13385826771653545,
                    "duration": 0.27661862499999756
                },
                {
                    "name": "D#3",
                    "midi": 51,
                    "time": 148.50052500000092,
                    "velocity": 0.10236220472440945,
                    "duration": 0.27661862499999756
                },
                {
                    "name": "G#3",
                    "midi": 56,
                    "time": 148.50052500000092,
                    "velocity": 0.11811023622047244,
                    "duration": 0.27661862499999756
                },
                {
                    "name": "D#4",
                    "midi": 63,
                    "time": 148.50052500000092,
                    "velocity": 0.14173228346456693,
                    "duration": 0.27661862499999756
                },
                {
                    "name": "G#3",
                    "midi": 56,
                    "time": 148.79170250000092,
                    "velocity": 0.11811023622047244,
                    "duration": 0.27661862499999756
                },
                {
                    "name": "D#3",
                    "midi": 51,
                    "time": 148.79170250000092,
                    "velocity": 0.07874015748031496,
                    "duration": 0.27661862499999756
                },
                {
                    "name": "D#4",
                    "midi": 63,
                    "time": 148.79170250000092,
                    "velocity": 0.14173228346456693,
                    "duration": 0.27661862499999756
                },
                {
                    "name": "G3",
                    "midi": 55,
                    "time": 149.08288000000093,
                    "velocity": 0.11811023622047244,
                    "duration": 0.27661862499999756
                },
                {
                    "name": "D#3",
                    "midi": 51,
                    "time": 149.08288000000093,
                    "velocity": 0.07086614173228346,
                    "duration": 0.27661862499999756
                },
                {
                    "name": "D#4",
                    "midi": 63,
                    "time": 149.08288000000093,
                    "velocity": 0.13385826771653545,
                    "duration": 0.27661862499999756
                },
                {
                    "name": "D#3",
                    "midi": 51,
                    "time": 149.37405750000093,
                    "velocity": 0.11023622047244094,
                    "duration": 0.276618625000026
                },
                {
                    "name": "G#3",
                    "midi": 56,
                    "time": 149.37405750000093,
                    "velocity": 0.12598425196850394,
                    "duration": 0.276618625000026
                },
                {
                    "name": "D#4",
                    "midi": 63,
                    "time": 149.37405750000093,
                    "velocity": 0.15748031496062992,
                    "duration": 0.276618625000026
                },
                {
                    "name": "D#3",
                    "midi": 51,
                    "time": 149.66523500000096,
                    "velocity": 0.08661417322834646,
                    "duration": 0.27661862499999756
                },
                {
                    "name": "G#3",
                    "midi": 56,
                    "time": 149.66523500000096,
                    "velocity": 0.12598425196850394,
                    "duration": 0.27661862499999756
                },
                {
                    "name": "D#4",
                    "midi": 63,
                    "time": 149.66523500000096,
                    "velocity": 0.15748031496062992,
                    "duration": 0.27661862499999756
                },
                {
                    "name": "D#3",
                    "midi": 51,
                    "time": 149.95641250000097,
                    "velocity": 0.08661417322834646,
                    "duration": 0.27661862499999756
                },
                {
                    "name": "G3",
                    "midi": 55,
                    "time": 149.95641250000097,
                    "velocity": 0.11811023622047244,
                    "duration": 0.27661862499999756
                },
                {
                    "name": "D#4",
                    "midi": 63,
                    "time": 149.95641250000097,
                    "velocity": 0.13385826771653545,
                    "duration": 0.27661862499999756
                },
                {
                    "name": "D#3",
                    "midi": 51,
                    "time": 150.24759000000097,
                    "velocity": 0.10236220472440945,
                    "duration": 0.27661862499999756
                },
                {
                    "name": "G#3",
                    "midi": 56,
                    "time": 150.24759000000097,
                    "velocity": 0.11811023622047244,
                    "duration": 0.27661862499999756
                },
                {
                    "name": "D#4",
                    "midi": 63,
                    "time": 150.24759000000097,
                    "velocity": 0.14173228346456693,
                    "duration": 0.27661862499999756
                },
                {
                    "name": "G#3",
                    "midi": 56,
                    "time": 150.53876750000097,
                    "velocity": 0.11811023622047244,
                    "duration": 0.27661862499999756
                },
                {
                    "name": "D#3",
                    "midi": 51,
                    "time": 150.53876750000097,
                    "velocity": 0.07874015748031496,
                    "duration": 0.27661862499999756
                },
                {
                    "name": "D#4",
                    "midi": 63,
                    "time": 150.53876750000097,
                    "velocity": 0.14173228346456693,
                    "duration": 0.27661862499999756
                },
                {
                    "name": "G3",
                    "midi": 55,
                    "time": 150.82994500000098,
                    "velocity": 0.11811023622047244,
                    "duration": 0.27661862499999756
                },
                {
                    "name": "D#3",
                    "midi": 51,
                    "time": 150.82994500000098,
                    "velocity": 0.07086614173228346,
                    "duration": 0.27661862499999756
                },
                {
                    "name": "D#4",
                    "midi": 63,
                    "time": 150.82994500000098,
                    "velocity": 0.13385826771653545,
                    "duration": 0.27661862499999756
                },
                {
                    "name": "D#3",
                    "midi": 51,
                    "time": 151.12112250000098,
                    "velocity": 0.11023622047244094,
                    "duration": 0.276618625000026
                },
                {
                    "name": "G#3",
                    "midi": 56,
                    "time": 151.12112250000098,
                    "velocity": 0.12598425196850394,
                    "duration": 0.276618625000026
                },
                {
                    "name": "D#4",
                    "midi": 63,
                    "time": 151.12112250000098,
                    "velocity": 0.15748031496062992,
                    "duration": 0.276618625000026
                },
                {
                    "name": "D#3",
                    "midi": 51,
                    "time": 151.412300000001,
                    "velocity": 0.08661417322834646,
                    "duration": 0.27661862499999756
                },
                {
                    "name": "G#3",
                    "midi": 56,
                    "time": 151.412300000001,
                    "velocity": 0.12598425196850394,
                    "duration": 0.27661862499999756
                },
                {
                    "name": "D#4",
                    "midi": 63,
                    "time": 151.412300000001,
                    "velocity": 0.15748031496062992,
                    "duration": 0.27661862499999756
                },
                {
                    "name": "D#3",
                    "midi": 51,
                    "time": 151.70347750000101,
                    "velocity": 0.08661417322834646,
                    "duration": 0.27661862499999756
                },
                {
                    "name": "G3",
                    "midi": 55,
                    "time": 151.70347750000101,
                    "velocity": 0.11811023622047244,
                    "duration": 0.27661862499999756
                },
                {
                    "name": "D#4",
                    "midi": 63,
                    "time": 151.70347750000101,
                    "velocity": 0.13385826771653545,
                    "duration": 0.27661862499999756
                },
                {
                    "name": "G#1",
                    "midi": 32,
                    "time": 151.99465500000102,
                    "velocity": 0.41732283464566927,
                    "duration": 1.7470650000000205
                },
                {
                    "name": "G#3",
                    "midi": 56,
                    "time": 152.28583250000102,
                    "velocity": 0.11811023622047244,
                    "duration": 0.27661862499999756
                },
                {
                    "name": "D#3",
                    "midi": 51,
                    "time": 152.28583250000102,
                    "velocity": 0.07874015748031496,
                    "duration": 0.27661862499999756
                },
                {
                    "name": "D#4",
                    "midi": 63,
                    "time": 152.28583250000102,
                    "velocity": 0.14173228346456693,
                    "duration": 0.27661862499999756
                },
                {
                    "name": "G#3",
                    "midi": 56,
                    "time": 152.57701000000102,
                    "velocity": 0.11811023622047244,
                    "duration": 0.27661862499999756
                },
                {
                    "name": "D#3",
                    "midi": 51,
                    "time": 152.57701000000102,
                    "velocity": 0.07086614173228346,
                    "duration": 0.27661862499999756
                },
                {
                    "name": "D#4",
                    "midi": 63,
                    "time": 152.57701000000102,
                    "velocity": 0.13385826771653545,
                    "duration": 0.27661862499999756
                },
                {
                    "name": "D#3",
                    "midi": 51,
                    "time": 152.86818750000103,
                    "velocity": 0.11023622047244094,
                    "duration": 0.27661862499999756
                },
                {
                    "name": "G#3",
                    "midi": 56,
                    "time": 152.86818750000103,
                    "velocity": 0.12598425196850394,
                    "duration": 0.27661862499999756
                },
                {
                    "name": "D#4",
                    "midi": 63,
                    "time": 152.86818750000103,
                    "velocity": 0.15748031496062992,
                    "duration": 0.27661862499999756
                },
                {
                    "name": "D#3",
                    "midi": 51,
                    "time": 153.15936500000103,
                    "velocity": 0.08661417322834646,
                    "duration": 0.27661862499999756
                },
                {
                    "name": "G#3",
                    "midi": 56,
                    "time": 153.15936500000103,
                    "velocity": 0.12598425196850394,
                    "duration": 0.27661862499999756
                },
                {
                    "name": "D#4",
                    "midi": 63,
                    "time": 153.15936500000103,
                    "velocity": 0.15748031496062992,
                    "duration": 0.27661862499999756
                },
                {
                    "name": "D#3",
                    "midi": 51,
                    "time": 153.45054250000103,
                    "velocity": 0.08661417322834646,
                    "duration": 0.27661862499999756
                },
                {
                    "name": "G#3",
                    "midi": 56,
                    "time": 153.45054250000103,
                    "velocity": 0.11811023622047244,
                    "duration": 0.27661862499999756
                },
                {
                    "name": "D#4",
                    "midi": 63,
                    "time": 153.45054250000103,
                    "velocity": 0.13385826771653545,
                    "duration": 0.27661862499999756
                },
                {
                    "name": "D#3",
                    "midi": 51,
                    "time": 153.74172000000104,
                    "velocity": 0.10236220472440945,
                    "duration": 0.27661862499999756
                },
                {
                    "name": "G#3",
                    "midi": 56,
                    "time": 153.74172000000104,
                    "velocity": 0.11811023622047244,
                    "duration": 0.27661862499999756
                },
                {
                    "name": "D#4",
                    "midi": 63,
                    "time": 153.74172000000104,
                    "velocity": 0.14173228346456693,
                    "duration": 0.27661862499999756
                },
                {
                    "name": "G#3",
                    "midi": 56,
                    "time": 154.03289750000104,
                    "velocity": 0.11811023622047244,
                    "duration": 0.27661862499999756
                },
                {
                    "name": "D#3",
                    "midi": 51,
                    "time": 154.03289750000104,
                    "velocity": 0.07874015748031496,
                    "duration": 0.27661862499999756
                },
                {
                    "name": "D#4",
                    "midi": 63,
                    "time": 154.03289750000104,
                    "velocity": 0.14173228346456693,
                    "duration": 0.27661862499999756
                },
                {
                    "name": "G#3",
                    "midi": 56,
                    "time": 154.32407500000105,
                    "velocity": 0.11811023622047244,
                    "duration": 0.27661862499999756
                },
                {
                    "name": "D#3",
                    "midi": 51,
                    "time": 154.32407500000105,
                    "velocity": 0.07086614173228346,
                    "duration": 0.27661862499999756
                },
                {
                    "name": "D#4",
                    "midi": 63,
                    "time": 154.32407500000105,
                    "velocity": 0.13385826771653545,
                    "duration": 0.27661862499999756
                },
                {
                    "name": "D#3",
                    "midi": 51,
                    "time": 154.61525250000105,
                    "velocity": 0.11023622047244094,
                    "duration": 0.27661862499999756
                },
                {
                    "name": "G#3",
                    "midi": 56,
                    "time": 154.61525250000105,
                    "velocity": 0.12598425196850394,
                    "duration": 0.27661862499999756
                },
                {
                    "name": "D#4",
                    "midi": 63,
                    "time": 154.61525250000105,
                    "velocity": 0.15748031496062992,
                    "duration": 0.27661862499999756
                },
                {
                    "name": "D#3",
                    "midi": 51,
                    "time": 154.90643000000105,
                    "velocity": 0.08661417322834646,
                    "duration": 0.27661862499999756
                },
                {
                    "name": "G#3",
                    "midi": 56,
                    "time": 154.90643000000105,
                    "velocity": 0.12598425196850394,
                    "duration": 0.27661862499999756
                },
                {
                    "name": "D#3",
                    "midi": 51,
                    "time": 155.19760750000106,
                    "velocity": 0.08661417322834646,
                    "duration": 0.27661862499999756
                },
                {
                    "name": "G#3",
                    "midi": 56,
                    "time": 155.19760750000106,
                    "velocity": 0.11811023622047244,
                    "duration": 0.27661862499999756
                },
                {
                    "name": "D#4",
                    "midi": 63,
                    "time": 155.19760750000106,
                    "velocity": 0.13385826771653545,
                    "duration": 0.27661862499999756
                },
                {
                    "name": "D#3",
                    "midi": 51,
                    "time": 155.48878500000106,
                    "velocity": 0.08661417322834646,
                    "duration": 1.747064999999992
                },
                {
                    "name": "G#3",
                    "midi": 56,
                    "time": 155.48878500000106,
                    "velocity": 0.10236220472440945,
                    "duration": 1.747064999999992
                },
                {
                    "name": "D#4",
                    "midi": 63,
                    "time": 155.48878500000106,
                    "velocity": 0.11811023622047244,
                    "duration": 1.747064999999992
                }
            ],
            "controlChanges": {
                "7": [
                    {
                        "number": 7,
                        "time": 0,
                        "value": 0.7874015748031497
                    }
                ],
                "10": [
                    {
                        "number": 10,
                        "time": 0,
                        "value": 0.5039370078740157
                    }
                ],
                "64": [
                    {
                        "number": 64,
                        "time": 0,
                        "value": 1
                    },
                    {
                        "number": 64,
                        "time": 3.507475635416666,
                        "value": 0
                    },
                    {
                        "number": 64,
                        "time": 3.623946635416666,
                        "value": 1
                    },
                    {
                        "number": 64,
                        "time": 5.2545406354166655,
                        "value": 0
                    },
                    {
                        "number": 64,
                        "time": 5.351599802083332,
                        "value": 1
                    },
                    {
                        "number": 64,
                        "time": 6.132926093749998,
                        "value": 0
                    },
                    {
                        "number": 64,
                        "time": 6.295500197916665,
                        "value": 1
                    },
                    {
                        "number": 64,
                        "time": 6.997965916666664,
                        "value": 0
                    },
                    {
                        "number": 64,
                        "time": 7.133848749999998,
                        "value": 1
                    },
                    {
                        "number": 64,
                        "time": 8.751097114583331,
                        "value": 0
                    },
                    {
                        "number": 64,
                        "time": 8.913671218749998,
                        "value": 1
                    },
                    {
                        "number": 64,
                        "time": 9.620989895833333,
                        "value": 0
                    },
                    {
                        "number": 64,
                        "time": 9.770218364583332,
                        "value": 1
                    },
                    {
                        "number": 64,
                        "time": 10.482389999999999,
                        "value": 0
                    },
                    {
                        "number": 64,
                        "time": 10.49330915625,
                        "value": 0
                    },
                    {
                        "number": 64,
                        "time": 10.62797875,
                        "value": 1
                    },
                    {
                        "number": 64,
                        "time": 12.245227114583333,
                        "value": 0
                    },
                    {
                        "number": 64,
                        "time": 12.40780121875,
                        "value": 1
                    },
                    {
                        "number": 64,
                        "time": 13.115119895833333,
                        "value": 0
                    },
                    {
                        "number": 64,
                        "time": 13.264348364583332,
                        "value": 1
                    },
                    {
                        "number": 64,
                        "time": 13.976519999999999,
                        "value": 0
                    },
                    {
                        "number": 64,
                        "time": 13.989865635416665,
                        "value": 0
                    },
                    {
                        "number": 64,
                        "time": 14.122108749999999,
                        "value": 1
                    },
                    {
                        "number": 64,
                        "time": 14.867037854166664,
                        "value": 0
                    },
                    {
                        "number": 64,
                        "time": 14.96409702083333,
                        "value": 1
                    },
                    {
                        "number": 64,
                        "time": 15.739357114583331,
                        "value": 0
                    },
                    {
                        "number": 64,
                        "time": 15.933475447916665,
                        "value": 1
                    },
                    {
                        "number": 64,
                        "time": 17.481569156249996,
                        "value": 0
                    },
                    {
                        "number": 64,
                        "time": 17.600466635416662,
                        "value": 1
                    },
                    {
                        "number": 64,
                        "time": 19.23106063541666,
                        "value": 0
                    },
                    {
                        "number": 64,
                        "time": 19.32811980208333,
                        "value": 1
                    },
                    {
                        "number": 64,
                        "time": 20.109446093749995,
                        "value": 0
                    },
                    {
                        "number": 64,
                        "time": 20.27202019791666,
                        "value": 1
                    },
                    {
                        "number": 64,
                        "time": 20.978125635416657,
                        "value": 0
                    },
                    {
                        "number": 64,
                        "time": 21.11036874999999,
                        "value": 1
                    },
                    {
                        "number": 64,
                        "time": 22.72761711458332,
                        "value": 0
                    },
                    {
                        "number": 64,
                        "time": 22.890191218749987,
                        "value": 1
                    },
                    {
                        "number": 64,
                        "time": 23.60478933333332,
                        "value": 0
                    },
                    {
                        "number": 64,
                        "time": 23.74673836458332,
                        "value": 1
                    },
                    {
                        "number": 64,
                        "time": 24.458909999999985,
                        "value": 0
                    },
                    {
                        "number": 64,
                        "time": 24.47104239583332,
                        "value": 0
                    },
                    {
                        "number": 64,
                        "time": 24.604498749999987,
                        "value": 1
                    },
                    {
                        "number": 64,
                        "time": 26.22174711458332,
                        "value": 0
                    },
                    {
                        "number": 64,
                        "time": 26.384321218749985,
                        "value": 1
                    },
                    {
                        "number": 64,
                        "time": 27.09649285416665,
                        "value": 0
                    },
                    {
                        "number": 64,
                        "time": 27.240868364583317,
                        "value": 1
                    },
                    {
                        "number": 64,
                        "time": 27.953039999999984,
                        "value": 0
                    },
                    {
                        "number": 64,
                        "time": 27.965172395833317,
                        "value": 0
                    },
                    {
                        "number": 64,
                        "time": 28.098628749999985,
                        "value": 1
                    },
                    {
                        "number": 64,
                        "time": 28.84355785416665,
                        "value": 0
                    },
                    {
                        "number": 64,
                        "time": 28.946683218749985,
                        "value": 1
                    },
                    {
                        "number": 64,
                        "time": 29.718303593749983,
                        "value": 0
                    },
                    {
                        "number": 64,
                        "time": 29.90999544791665,
                        "value": 1
                    },
                    {
                        "number": 64,
                        "time": 31.459302395833316,
                        "value": 0
                    },
                    {
                        "number": 64,
                        "time": 31.572133677083315,
                        "value": 1
                    },
                    {
                        "number": 64,
                        "time": 32.338901093749975,
                        "value": 0
                    },
                    {
                        "number": 64,
                        "time": 33.304639802083294,
                        "value": 1
                    },
                    {
                        "number": 64,
                        "time": 33.791148874999955,
                        "value": 0
                    },
                    {
                        "number": 64,
                        "time": 35.06626367708328,
                        "value": 1
                    },
                    {
                        "number": 64,
                        "time": 35.53700063541661,
                        "value": 0
                    },
                    {
                        "number": 64,
                        "time": 36.798769802083264,
                        "value": 1
                    },
                    {
                        "number": 64,
                        "time": 37.285278874999925,
                        "value": 0
                    },
                    {
                        "number": 64,
                        "time": 38.51550381249991,
                        "value": 1
                    },
                    {
                        "number": 64,
                        "time": 39.31866841666657,
                        "value": 0
                    },
                    {
                        "number": 64,
                        "time": 40.30745867708323,
                        "value": 1
                    },
                    {
                        "number": 64,
                        "time": 41.06573341666656,
                        "value": 0
                    },
                    {
                        "number": 64,
                        "time": 41.15308666666656,
                        "value": 1
                    },
                    {
                        "number": 64,
                        "time": 41.94290563541656,
                        "value": 0
                    },
                    {
                        "number": 64,
                        "time": 42.067869312499894,
                        "value": 1
                    },
                    {
                        "number": 64,
                        "time": 42.81522489583322,
                        "value": 0
                    },
                    {
                        "number": 64,
                        "time": 42.95596068749988,
                        "value": 1
                    },
                    {
                        "number": 64,
                        "time": 43.68997063541654,
                        "value": 0
                    },
                    {
                        "number": 64,
                        "time": 43.81493431249988,
                        "value": 1
                    },
                    {
                        "number": 64,
                        "time": 44.5586501770832,
                        "value": 0
                    },
                    {
                        "number": 64,
                        "time": 44.64721666666654,
                        "value": 1
                    },
                    {
                        "number": 64,
                        "time": 45.148284614583204,
                        "value": 0
                    },
                    {
                        "number": 64,
                        "time": 45.244130541666536,
                        "value": 1
                    },
                    {
                        "number": 64,
                        "time": 45.441888593749866,
                        "value": 0
                    },
                    {
                        "number": 64,
                        "time": 45.58990382291653,
                        "value": 1
                    },
                    {
                        "number": 64,
                        "time": 47.19016683333318,
                        "value": 0
                    },
                    {
                        "number": 64,
                        "time": 47.29571867708318,
                        "value": 1
                    },
                    {
                        "number": 64,
                        "time": 48.93601859374983,
                        "value": 0
                    },
                    {
                        "number": 64,
                        "time": 49.05734255208316,
                        "value": 1
                    },
                    {
                        "number": 64,
                        "time": 50.68551007291648,
                        "value": 0
                    },
                    {
                        "number": 64,
                        "time": 50.78984867708314,
                        "value": 1
                    },
                    {
                        "number": 64,
                        "time": 52.43136183333313,
                        "value": 0
                    },
                    {
                        "number": 64,
                        "time": 52.6194139687498,
                        "value": 1
                    },
                    {
                        "number": 64,
                        "time": 55.055599052083096,
                        "value": 0
                    },
                    {
                        "number": 64,
                        "time": 55.17813624999976,
                        "value": 1
                    },
                    {
                        "number": 64,
                        "time": 55.919425635416424,
                        "value": 0
                    },
                    {
                        "number": 64,
                        "time": 56.01648480208309,
                        "value": 1
                    },
                    {
                        "number": 64,
                        "time": 57.66163767708307,
                        "value": 0
                    },
                    {
                        "number": 64,
                        "time": 57.76354980208307,
                        "value": 1
                    },
                    {
                        "number": 64,
                        "time": 59.411129156249714,
                        "value": 0
                    },
                    {
                        "number": 64,
                        "time": 59.530026635416384,
                        "value": 1
                    },
                    {
                        "number": 64,
                        "time": 61.15940739583303,
                        "value": 0
                    },
                    {
                        "number": 64,
                        "time": 61.257679802083025,
                        "value": 1
                    },
                    {
                        "number": 64,
                        "time": 62.04143257291635,
                        "value": 0
                    },
                    {
                        "number": 64,
                        "time": 62.20158019791635,
                        "value": 1
                    },
                    {
                        "number": 64,
                        "time": 62.906472395833006,
                        "value": 0
                    },
                    {
                        "number": 64,
                        "time": 63.039928749999675,
                        "value": 1
                    },
                    {
                        "number": 64,
                        "time": 64.657177114583,
                        "value": 0
                    },
                    {
                        "number": 64,
                        "time": 64.81975121874967,
                        "value": 1
                    },
                    {
                        "number": 64,
                        "time": 65.53556257291636,
                        "value": 0
                    },
                    {
                        "number": 64,
                        "time": 65.67629836458303,
                        "value": 1
                    },
                    {
                        "number": 64,
                        "time": 66.38846999999971,
                        "value": 0
                    },
                    {
                        "number": 64,
                        "time": 66.39938915624971,
                        "value": 0
                    },
                    {
                        "number": 64,
                        "time": 66.53405874999972,
                        "value": 1
                    },
                    {
                        "number": 64,
                        "time": 68.15130711458306,
                        "value": 0
                    },
                    {
                        "number": 64,
                        "time": 68.31388121874973,
                        "value": 1
                    },
                    {
                        "number": 64,
                        "time": 69.02726609374974,
                        "value": 0
                    },
                    {
                        "number": 64,
                        "time": 69.17042836458307,
                        "value": 1
                    },
                    {
                        "number": 64,
                        "time": 69.89473239583309,
                        "value": 0
                    },
                    {
                        "number": 64,
                        "time": 69.89594563541642,
                        "value": 0
                    },
                    {
                        "number": 64,
                        "time": 70.02818874999976,
                        "value": 1
                    },
                    {
                        "number": 64,
                        "time": 70.7682648958331,
                        "value": 0
                    },
                    {
                        "number": 64,
                        "time": 70.88594913541644,
                        "value": 1
                    },
                    {
                        "number": 64,
                        "time": 71.65271655208312,
                        "value": 0
                    },
                    {
                        "number": 64,
                        "time": 71.83955544791645,
                        "value": 1
                    },
                    {
                        "number": 64,
                        "time": 73.38886239583314,
                        "value": 0
                    },
                    {
                        "number": 64,
                        "time": 73.50169367708314,
                        "value": 1
                    },
                    {
                        "number": 64,
                        "time": 74.26118165624982,
                        "value": 0
                    },
                    {
                        "number": 64,
                        "time": 75.23419980208317,
                        "value": 1
                    },
                    {
                        "number": 64,
                        "time": 76.00945989583317,
                        "value": 0
                    },
                    {
                        "number": 64,
                        "time": 76.99582367708318,
                        "value": 1
                    },
                    {
                        "number": 64,
                        "time": 77.76016461458319,
                        "value": 0
                    },
                    {
                        "number": 64,
                        "time": 78.72832980208321,
                        "value": 1
                    },
                    {
                        "number": 64,
                        "time": 79.79840711458321,
                        "value": 0
                    },
                    {
                        "number": 64,
                        "time": 80.4523432499999,
                        "value": 1
                    },
                    {
                        "number": 64,
                        "time": 81.54425887499993,
                        "value": 0
                    },
                    {
                        "number": 64,
                        "time": 82.22245980208328,
                        "value": 1
                    },
                    {
                        "number": 64,
                        "time": 83.00014637499996,
                        "value": 0
                    },
                    {
                        "number": 64,
                        "time": 83.96224536458331,
                        "value": 1
                    },
                    {
                        "number": 64,
                        "time": 84.74842461458331,
                        "value": 0
                    },
                    {
                        "number": 64,
                        "time": 85.71658980208333,
                        "value": 1
                    },
                    {
                        "number": 64,
                        "time": 86.85460853125001,
                        "value": 0
                    },
                    {
                        "number": 64,
                        "time": 87.47093423958336,
                        "value": 1
                    },
                    {
                        "number": 64,
                        "time": 88.24134137500005,
                        "value": 0
                    },
                    {
                        "number": 64,
                        "time": 88.37601096875005,
                        "value": 1
                    },
                    {
                        "number": 64,
                        "time": 89.12094007291674,
                        "value": 0
                    },
                    {
                        "number": 64,
                        "time": 89.2179992395834,
                        "value": 1
                    },
                    {
                        "number": 64,
                        "time": 89.9884063750001,
                        "value": 0
                    },
                    {
                        "number": 64,
                        "time": 90.1230759687501,
                        "value": 1
                    },
                    {
                        "number": 64,
                        "time": 90.86800507291679,
                        "value": 0
                    },
                    {
                        "number": 64,
                        "time": 90.96506423958346,
                        "value": 1
                    },
                    {
                        "number": 64,
                        "time": 91.73547137500015,
                        "value": 0
                    },
                    {
                        "number": 64,
                        "time": 91.87014096875015,
                        "value": 1
                    },
                    {
                        "number": 64,
                        "time": 92.9050343333335,
                        "value": 0
                    },
                    {
                        "number": 64,
                        "time": 92.96448307291683,
                        "value": 1
                    },
                    {
                        "number": 64,
                        "time": 93.1962118333335,
                        "value": 0
                    },
                    {
                        "number": 64,
                        "time": 93.26294001041684,
                        "value": 1
                    },
                    {
                        "number": 64,
                        "time": 93.48738933333351,
                        "value": 0
                    },
                    {
                        "number": 64,
                        "time": 93.57838230208351,
                        "value": 1
                    },
                    {
                        "number": 64,
                        "time": 94.05882517708352,
                        "value": 0
                    },
                    {
                        "number": 64,
                        "time": 94.16922997916686,
                        "value": 1
                    },
                    {
                        "number": 64,
                        "time": 94.35485563541687,
                        "value": 0
                    },
                    {
                        "number": 64,
                        "time": 94.46647367708354,
                        "value": 1
                    },
                    {
                        "number": 64,
                        "time": 95.22717489583356,
                        "value": 0
                    },
                    {
                        "number": 64,
                        "time": 95.39581519791689,
                        "value": 1
                    },
                    {
                        "number": 64,
                        "time": 96.1019206354169,
                        "value": 0
                    },
                    {
                        "number": 64,
                        "time": 96.14438402083357,
                        "value": 1
                    },
                    {
                        "number": 64,
                        "time": 97.85505183333359,
                        "value": 0
                    },
                    {
                        "number": 64,
                        "time": 98.04310396875026,
                        "value": 1
                    },
                    {
                        "number": 64,
                        "time": 99.60333007291696,
                        "value": 0
                    },
                    {
                        "number": 64,
                        "time": 99.70766867708363,
                        "value": 1
                    },
                    {
                        "number": 64,
                        "time": 101.35160831250032,
                        "value": 0
                    },
                    {
                        "number": 64,
                        "time": 101.53723396875031,
                        "value": 1
                    },
                    {
                        "number": 64,
                        "time": 103.09746007291702,
                        "value": 0
                    },
                    {
                        "number": 64,
                        "time": 103.20179867708369,
                        "value": 1
                    },
                    {
                        "number": 64,
                        "time": 104.84452507291705,
                        "value": 0
                    },
                    {
                        "number": 64,
                        "time": 105.03136396875038,
                        "value": 1
                    },
                    {
                        "number": 64,
                        "time": 111.82550563541714,
                        "value": 0
                    },
                    {
                        "number": 64,
                        "time": 111.94197663541715,
                        "value": 1
                    },
                    {
                        "number": 64,
                        "time": 113.57499711458382,
                        "value": 0
                    },
                    {
                        "number": 64,
                        "time": 113.72179910416716,
                        "value": 1
                    },
                    {
                        "number": 64,
                        "time": 114.45338257291718,
                        "value": 0
                    },
                    {
                        "number": 64,
                        "time": 114.61353019791717,
                        "value": 1
                    },
                    {
                        "number": 64,
                        "time": 115.31842239583385,
                        "value": 0
                    },
                    {
                        "number": 64,
                        "time": 115.45187875000052,
                        "value": 1
                    },
                    {
                        "number": 64,
                        "time": 117.06912711458386,
                        "value": 0
                    },
                    {
                        "number": 64,
                        "time": 117.23170121875053,
                        "value": 1
                    },
                    {
                        "number": 64,
                        "time": 117.94751257291722,
                        "value": 0
                    },
                    {
                        "number": 64,
                        "time": 118.08824836458389,
                        "value": 1
                    },
                    {
                        "number": 64,
                        "time": 118.80042000000057,
                        "value": 0
                    },
                    {
                        "number": 64,
                        "time": 118.81133915625057,
                        "value": 0
                    },
                    {
                        "number": 64,
                        "time": 118.94600875000057,
                        "value": 1
                    },
                    {
                        "number": 64,
                        "time": 120.56325711458392,
                        "value": 0
                    },
                    {
                        "number": 64,
                        "time": 120.72583121875059,
                        "value": 1
                    },
                    {
                        "number": 64,
                        "time": 121.44164257291727,
                        "value": 0
                    },
                    {
                        "number": 64,
                        "time": 121.58237836458395,
                        "value": 1
                    },
                    {
                        "number": 64,
                        "time": 122.29455000000063,
                        "value": 0
                    },
                    {
                        "number": 64,
                        "time": 122.30910887500063,
                        "value": 0
                    },
                    {
                        "number": 64,
                        "time": 122.44013875000063,
                        "value": 1
                    },
                    {
                        "number": 64,
                        "time": 123.1850678541673,
                        "value": 0
                    },
                    {
                        "number": 64,
                        "time": 123.36220083333397,
                        "value": 1
                    },
                    {
                        "number": 64,
                        "time": 124.05374739583398,
                        "value": 0
                    },
                    {
                        "number": 64,
                        "time": 124.18720375000065,
                        "value": 1
                    },
                    {
                        "number": 64,
                        "time": 125.80202563541734,
                        "value": 0
                    },
                    {
                        "number": 64,
                        "time": 125.982798333334,
                        "value": 1
                    },
                    {
                        "number": 64,
                        "time": 127.54909063541736,
                        "value": 0
                    },
                    {
                        "number": 64,
                        "time": 127.64614980208403,
                        "value": 1
                    },
                    {
                        "number": 64,
                        "time": 128.42990257291737,
                        "value": 0
                    },
                    {
                        "number": 64,
                        "time": 128.59005019791738,
                        "value": 1
                    },
                    {
                        "number": 64,
                        "time": 129.29494239583406,
                        "value": 0
                    },
                    {
                        "number": 64,
                        "time": 129.42839875000072,
                        "value": 1
                    },
                    {
                        "number": 64,
                        "time": 131.04564711458409,
                        "value": 0
                    },
                    {
                        "number": 64,
                        "time": 131.20822121875077,
                        "value": 1
                    },
                    {
                        "number": 64,
                        "time": 131.9264590520841,
                        "value": 0
                    },
                    {
                        "number": 64,
                        "time": 132.06476836458413,
                        "value": 1
                    },
                    {
                        "number": 64,
                        "time": 132.7769400000008,
                        "value": 0
                    },
                    {
                        "number": 64,
                        "time": 132.79271211458413,
                        "value": 0
                    },
                    {
                        "number": 64,
                        "time": 132.9225287500008,
                        "value": 1
                    },
                    {
                        "number": 64,
                        "time": 134.53977711458415,
                        "value": 0
                    },
                    {
                        "number": 64,
                        "time": 134.70235121875083,
                        "value": 1
                    },
                    {
                        "number": 64,
                        "time": 135.41937581250085,
                        "value": 0
                    },
                    {
                        "number": 64,
                        "time": 135.55889836458417,
                        "value": 1
                    },
                    {
                        "number": 64,
                        "time": 136.27107000000083,
                        "value": 0
                    },
                    {
                        "number": 64,
                        "time": 136.28684211458418,
                        "value": 0
                    },
                    {
                        "number": 64,
                        "time": 136.41665875000083,
                        "value": 1
                    },
                    {
                        "number": 64,
                        "time": 138.0387600729175,
                        "value": 0
                    },
                    {
                        "number": 64,
                        "time": 138.2280254479175,
                        "value": 1
                    },
                    {
                        "number": 64,
                        "time": 139.76520000000085,
                        "value": 0
                    },
                    {
                        "number": 64,
                        "time": 139.77975887500085,
                        "value": 0
                    },
                    {
                        "number": 64,
                        "time": 139.91078875000085,
                        "value": 1
                    },
                    {
                        "number": 64,
                        "time": 141.53410331250086,
                        "value": 0
                    },
                    {
                        "number": 64,
                        "time": 141.72215544791752,
                        "value": 1
                    },
                    {
                        "number": 64,
                        "time": 142.40399609375083,
                        "value": 0
                    },
                    {
                        "number": 64,
                        "time": 142.53866568750084,
                        "value": 1
                    },
                    {
                        "number": 64,
                        "time": 143.27995507291752,
                        "value": 0
                    },
                    {
                        "number": 64,
                        "time": 143.42554382291752,
                        "value": 1
                    },
                    {
                        "number": 64,
                        "time": 145.0549245833342,
                        "value": 0
                    },
                    {
                        "number": 64,
                        "time": 145.17260882291754,
                        "value": 1
                    },
                    {
                        "number": 64,
                        "time": 146.18687711458423,
                        "value": 0
                    },
                    {
                        "number": 64,
                        "time": 146.26816416666756,
                        "value": 1
                    },
                    {
                        "number": 64,
                        "time": 146.80198958333423,
                        "value": 0
                    },
                    {
                        "number": 64,
                        "time": 146.91967382291756,
                        "value": 1
                    },
                    {
                        "number": 64,
                        "time": 147.93758183333424,
                        "value": 0
                    },
                    {
                        "number": 64,
                        "time": 148.03221452083423,
                        "value": 1
                    },
                    {
                        "number": 64,
                        "time": 148.52236331250091,
                        "value": 0
                    },
                    {
                        "number": 64,
                        "time": 148.66673882291758,
                        "value": 1
                    },
                    {
                        "number": 64,
                        "time": 149.3910428541676,
                        "value": 0
                    },
                    {
                        "number": 64,
                        "time": 149.50387413541762,
                        "value": 1
                    },
                    {
                        "number": 64,
                        "time": 150.2670018333343,
                        "value": 0
                    },
                    {
                        "number": 64,
                        "time": 150.41380382291763,
                        "value": 1
                    },
                    {
                        "number": 64,
                        "time": 151.13568137500098,
                        "value": 0
                    },
                    {
                        "number": 64,
                        "time": 151.28369660416766,
                        "value": 1
                    },
                    {
                        "number": 64,
                        "time": 152.016493312501,
                        "value": 0
                    },
                    {
                        "number": 64,
                        "time": 152.16086882291768,
                        "value": 1
                    },
                    {
                        "number": 64,
                        "time": 155.21459285416773,
                        "value": 0
                    },
                    {
                        "number": 64,
                        "time": 155.26190919791773,
                        "value": 1
                    },
                    {
                        "number": 64,
                        "time": 158.7887966666677,
                        "value": 0
                    }
                ]
            },
            "id": 2,
            "name": "Piano left",
            "instrumentNumber": 0,
            "instrument": "acoustic grand piano",
            "instrumentFamily": "piano",
            "channelNumber": 0,
            "isPercussion": false
        },
        {
            "startTime": 0,
            "duration": 0,
            "length": 0,
            "notes": [],
            "controlChanges": {},
            "id": 3,
            "name": "Chopin: Prelude No.17 in Ab Major Op. 28"
        },
        {
            "startTime": 0,
            "duration": 0,
            "length": 0,
            "notes": [],
            "controlChanges": {},
            "id": 4,
            "name": "Copyright  2002 by Bernd Krueger"
        },
        {
            "startTime": 0,
            "duration": 0,
            "length": 0,
            "notes": [],
            "controlChanges": {},
            "id": 5,
            "name": "http://www.piano-midi.de"
        },
        {
            "startTime": 0,
            "duration": 0,
            "length": 0,
            "notes": [],
            "controlChanges": {},
            "id": 6,
            "name": "Edition: 2014-02-21"
        },
        {
            "startTime": 0,
            "duration": 0,
            "length": 0,
            "notes": [],
            "controlChanges": {},
            "id": 7,
            "name": "Spur 7"
        }
    ]
}