{
    "header": {
        "PPQ": 480,
        "timeSignature": [
            4,
            4
        ],
        "bpm": 89.9999550000225,
        "name": "Prelude No. 8"
    },
    "startTime": 0,
    "duration": 90.66671199999999,
    "tracks": [
        {
            "startTime": 0,
            "duration": 0,
            "length": 0,
            "notes": [],
            "controlChanges": {},
            "id": 0,
            "name": "Prelude No. 8"
        },
        {
            "startTime": 0.083333375,
            "duration": 85.3333759999994,
            "length": 768,
            "notes": [
                {
                    "name": "C#5",
                    "midi": 73,
                    "time": 0.083333375,
                    "velocity": 0.41732283464566927,
                    "duration": 0.083333375
                },
                {
                    "name": "G#4",
                    "midi": 68,
                    "time": 0.16666675,
                    "velocity": 0.48031496062992124,
                    "duration": 0.08333337500000002
                },
                {
                    "name": "B4",
                    "midi": 71,
                    "time": 0.250000125,
                    "velocity": 0.4015748031496063,
                    "duration": 0.08333337499999999
                },
                {
                    "name": "A4",
                    "midi": 69,
                    "time": 0.3333335,
                    "velocity": 0.4330708661417323,
                    "duration": 0.08333337499999999
                },
                {
                    "name": "F#4",
                    "midi": 66,
                    "time": 0.416666875,
                    "velocity": 0.36220472440944884,
                    "duration": 0.08333337500000004
                },
                {
                    "name": "D5",
                    "midi": 74,
                    "time": 0.5833336250000001,
                    "velocity": 0.3779527559055118,
                    "duration": 0.08333337500000004
                },
                {
                    "name": "C#5",
                    "midi": 73,
                    "time": 0.7500003750000002,
                    "velocity": 0.3937007874015748,
                    "duration": 0.08333337500000004
                },
                {
                    "name": "G#4",
                    "midi": 68,
                    "time": 0.8333337500000002,
                    "velocity": 0.49606299212598426,
                    "duration": 0.08333337500000004
                },
                {
                    "name": "B4",
                    "midi": 71,
                    "time": 0.9166671250000002,
                    "velocity": 0.41732283464566927,
                    "duration": 0.08333337500000004
                },
                {
                    "name": "A4",
                    "midi": 69,
                    "time": 1.0000005000000003,
                    "velocity": 0.44881889763779526,
                    "duration": 0.08333337500000004
                },
                {
                    "name": "G#4",
                    "midi": 68,
                    "time": 1.0833338750000003,
                    "velocity": 0.3464566929133858,
                    "duration": 0.08333337500000004
                },
                {
                    "name": "F#5",
                    "midi": 78,
                    "time": 1.2500006250000004,
                    "velocity": 0.41732283464566927,
                    "duration": 0.08333337500000004
                },
                {
                    "name": "F#5",
                    "midi": 78,
                    "time": 1.4166673750000005,
                    "velocity": 0.41732283464566927,
                    "duration": 0.08333337500000004
                },
                {
                    "name": "A#4",
                    "midi": 70,
                    "time": 1.5000007500000005,
                    "velocity": 0.5039370078740157,
                    "duration": 0.08333337500000004
                },
                {
                    "name": "C#5",
                    "midi": 73,
                    "time": 1.5833341250000006,
                    "velocity": 0.4094488188976378,
                    "duration": 0.08333337500000004
                },
                {
                    "name": "B4",
                    "midi": 71,
                    "time": 1.6666675000000006,
                    "velocity": 0.4566929133858268,
                    "duration": 0.08333337500000004
                },
                {
                    "name": "G#4",
                    "midi": 68,
                    "time": 1.7500008750000007,
                    "velocity": 0.36220472440944884,
                    "duration": 0.08333337500000004
                },
                {
                    "name": "F5",
                    "midi": 77,
                    "time": 1.9166676250000008,
                    "velocity": 0.3937007874015748,
                    "duration": 0.08333337499999982
                },
                {
                    "name": "A5",
                    "midi": 81,
                    "time": 2.0833343750000006,
                    "velocity": 0.3543307086614173,
                    "duration": 0.08333337500000004
                },
                {
                    "name": "C5",
                    "midi": 72,
                    "time": 2.1666677500000007,
                    "velocity": 0.47244094488188976,
                    "duration": 0.08333337500000004
                },
                {
                    "name": "D5",
                    "midi": 74,
                    "time": 2.2500011250000007,
                    "velocity": 0.3543307086614173,
                    "duration": 0.08333337500000004
                },
                {
                    "name": "C#5",
                    "midi": 73,
                    "time": 2.3333345000000008,
                    "velocity": 0.4094488188976378,
                    "duration": 0.08333337500000004
                },
                {
                    "name": "B4",
                    "midi": 71,
                    "time": 2.416667875000001,
                    "velocity": 0.3464566929133858,
                    "duration": 0.08333337500000004
                },
                {
                    "name": "G#5",
                    "midi": 80,
                    "time": 2.583334625000001,
                    "velocity": 0.3779527559055118,
                    "duration": 0.08333337500000004
                },
                {
                    "name": "C#5",
                    "midi": 73,
                    "time": 2.750001375000001,
                    "velocity": 0.4409448818897638,
                    "duration": 0.08333337500000004
                },
                {
                    "name": "G#4",
                    "midi": 68,
                    "time": 2.833334750000001,
                    "velocity": 0.5118110236220472,
                    "duration": 0.08333337500000004
                },
                {
                    "name": "B4",
                    "midi": 71,
                    "time": 2.916668125000001,
                    "velocity": 0.3464566929133858,
                    "duration": 0.08333337500000004
                },
                {
                    "name": "A4",
                    "midi": 69,
                    "time": 3.000001500000001,
                    "velocity": 0.4409448818897638,
                    "duration": 0.08333337500000004
                },
                {
                    "name": "F#4",
                    "midi": 66,
                    "time": 3.083334875000001,
                    "velocity": 0.3543307086614173,
                    "duration": 0.08333337500000004
                },
                {
                    "name": "D5",
                    "midi": 74,
                    "time": 3.2500016250000012,
                    "velocity": 0.3779527559055118,
                    "duration": 0.08333337500000004
                },
                {
                    "name": "C#5",
                    "midi": 73,
                    "time": 3.4166683750000013,
                    "velocity": 0.41732283464566927,
                    "duration": 0.08333337500000004
                },
                {
                    "name": "G#4",
                    "midi": 68,
                    "time": 3.5000017500000014,
                    "velocity": 0.5118110236220472,
                    "duration": 0.08333337500000004
                },
                {
                    "name": "B4",
                    "midi": 71,
                    "time": 3.5833351250000014,
                    "velocity": 0.4094488188976378,
                    "duration": 0.08333337500000004
                },
                {
                    "name": "A4",
                    "midi": 69,
                    "time": 3.6666685000000014,
                    "velocity": 0.4645669291338583,
                    "duration": 0.08333337500000004
                },
                {
                    "name": "G#4",
                    "midi": 68,
                    "time": 3.7500018750000015,
                    "velocity": 0.4094488188976378,
                    "duration": 0.08333337500000004
                },
                {
                    "name": "F#5",
                    "midi": 78,
                    "time": 3.9166686250000016,
                    "velocity": 0.4094488188976378,
                    "duration": 0.0833333749999996
                },
                {
                    "name": "F#5",
                    "midi": 78,
                    "time": 4.083335375000001,
                    "velocity": 0.47244094488188976,
                    "duration": 0.0833333749999996
                },
                {
                    "name": "A#4",
                    "midi": 70,
                    "time": 4.16666875,
                    "velocity": 0.5433070866141733,
                    "duration": 0.0833333749999996
                },
                {
                    "name": "C#5",
                    "midi": 73,
                    "time": 4.250002125,
                    "velocity": 0.3779527559055118,
                    "duration": 0.0833333749999996
                },
                {
                    "name": "B4",
                    "midi": 71,
                    "time": 4.3333355,
                    "velocity": 0.4881889763779528,
                    "duration": 0.0833333749999996
                },
                {
                    "name": "G#4",
                    "midi": 68,
                    "time": 4.416668874999999,
                    "velocity": 0.36220472440944884,
                    "duration": 0.0833333749999996
                },
                {
                    "name": "F5",
                    "midi": 77,
                    "time": 4.583335624999998,
                    "velocity": 0.4330708661417323,
                    "duration": 0.0833333749999996
                },
                {
                    "name": "A5",
                    "midi": 81,
                    "time": 4.750002374999998,
                    "velocity": 0.4330708661417323,
                    "duration": 0.0833333749999996
                },
                {
                    "name": "C5",
                    "midi": 72,
                    "time": 4.833335749999997,
                    "velocity": 0.5118110236220472,
                    "duration": 0.0833333749999996
                },
                {
                    "name": "D5",
                    "midi": 74,
                    "time": 4.916669124999997,
                    "velocity": 0.41732283464566927,
                    "duration": 0.0833333749999996
                },
                {
                    "name": "C#5",
                    "midi": 73,
                    "time": 5.000002499999996,
                    "velocity": 0.47244094488188976,
                    "duration": 0.0833333749999996
                },
                {
                    "name": "B4",
                    "midi": 71,
                    "time": 5.083335874999996,
                    "velocity": 0.36220472440944884,
                    "duration": 0.0833333749999996
                },
                {
                    "name": "G#5",
                    "midi": 80,
                    "time": 5.250002624999995,
                    "velocity": 0.4094488188976378,
                    "duration": 0.0833333749999996
                },
                {
                    "name": "C#6",
                    "midi": 85,
                    "time": 5.416669374999994,
                    "velocity": 0.4330708661417323,
                    "duration": 0.0833333749999996
                },
                {
                    "name": "G#5",
                    "midi": 80,
                    "time": 5.500002749999994,
                    "velocity": 0.49606299212598426,
                    "duration": 0.0833333749999996
                },
                {
                    "name": "B5",
                    "midi": 83,
                    "time": 5.5833361249999935,
                    "velocity": 0.41732283464566927,
                    "duration": 0.0833333749999996
                },
                {
                    "name": "A5",
                    "midi": 81,
                    "time": 5.666669499999993,
                    "velocity": 0.4881889763779528,
                    "duration": 0.0833333749999996
                },
                {
                    "name": "F#5",
                    "midi": 78,
                    "time": 5.750002874999993,
                    "velocity": 0.41732283464566927,
                    "duration": 0.0833333749999996
                },
                {
                    "name": "D#6",
                    "midi": 87,
                    "time": 5.916669624999992,
                    "velocity": 0.44881889763779526,
                    "duration": 0.0833333749999996
                },
                {
                    "name": "C#6",
                    "midi": 85,
                    "time": 6.083336374999991,
                    "velocity": 0.4015748031496063,
                    "duration": 0.0833333749999996
                },
                {
                    "name": "F5",
                    "midi": 77,
                    "time": 6.166669749999991,
                    "velocity": 0.47244094488188976,
                    "duration": 0.0833333749999996
                },
                {
                    "name": "G#5",
                    "midi": 80,
                    "time": 6.25000312499999,
                    "velocity": 0.4094488188976378,
                    "duration": 0.0833333749999996
                },
                {
                    "name": "F#5",
                    "midi": 78,
                    "time": 6.33333649999999,
                    "velocity": 0.4645669291338583,
                    "duration": 0.0833333749999996
                },
                {
                    "name": "D5",
                    "midi": 74,
                    "time": 6.4166698749999895,
                    "velocity": 0.3779527559055118,
                    "duration": 0.0833333749999996
                },
                {
                    "name": "C6",
                    "midi": 84,
                    "time": 6.583336624999989,
                    "velocity": 0.4330708661417323,
                    "duration": 0.0833333749999996
                },
                {
                    "name": "B5",
                    "midi": 83,
                    "time": 6.750003374999988,
                    "velocity": 0.36220472440944884,
                    "duration": 0.0833333749999996
                },
                {
                    "name": "F#5",
                    "midi": 78,
                    "time": 6.8333367499999875,
                    "velocity": 0.47244094488188976,
                    "duration": 0.0833333749999996
                },
                {
                    "name": "A5",
                    "midi": 81,
                    "time": 6.916670124999987,
                    "velocity": 0.3700787401574803,
                    "duration": 0.0833333749999996
                },
                {
                    "name": "G5",
                    "midi": 79,
                    "time": 7.000003499999987,
                    "velocity": 0.4409448818897638,
                    "duration": 0.0833333749999996
                },
                {
                    "name": "E5",
                    "midi": 76,
                    "time": 7.083336874999986,
                    "velocity": 0.3700787401574803,
                    "duration": 0.0833333749999996
                },
                {
                    "name": "C#6",
                    "midi": 85,
                    "time": 7.2500036249999855,
                    "velocity": 0.4330708661417323,
                    "duration": 0.0833333749999996
                },
                {
                    "name": "B5",
                    "midi": 83,
                    "time": 7.416670374999985,
                    "velocity": 0.3543307086614173,
                    "duration": 0.0833333749999996
                },
                {
                    "name": "D#5",
                    "midi": 75,
                    "time": 7.500003749999984,
                    "velocity": 0.4015748031496063,
                    "duration": 0.0833333749999996
                },
                {
                    "name": "F#5",
                    "midi": 78,
                    "time": 7.583337124999984,
                    "velocity": 0.3543307086614173,
                    "duration": 0.0833333749999996
                },
                {
                    "name": "E5",
                    "midi": 76,
                    "time": 7.6666704999999835,
                    "velocity": 0.4094488188976378,
                    "duration": 0.0833333749999996
                },
                {
                    "name": "C#5",
                    "midi": 73,
                    "time": 7.750003874999983,
                    "velocity": 0.3700787401574803,
                    "duration": 0.0833333749999996
                },
                {
                    "name": "A#5",
                    "midi": 82,
                    "time": 7.916670624999982,
                    "velocity": 0.3937007874015748,
                    "duration": 0.08333337500000049
                },
                {
                    "name": "A5",
                    "midi": 81,
                    "time": 8.083337374999983,
                    "velocity": 0.4015748031496063,
                    "duration": 0.08333337500000049
                },
                {
                    "name": "D5",
                    "midi": 74,
                    "time": 8.166670749999984,
                    "velocity": 0.47244094488188976,
                    "duration": 0.08333337500000049
                },
                {
                    "name": "F5",
                    "midi": 77,
                    "time": 8.250004124999984,
                    "velocity": 0.3464566929133858,
                    "duration": 0.08333337500000049
                },
                {
                    "name": "D#5",
                    "midi": 75,
                    "time": 8.333337499999985,
                    "velocity": 0.4015748031496063,
                    "duration": 0.08333337500000049
                },
                {
                    "name": "C5",
                    "midi": 72,
                    "time": 8.416670874999985,
                    "velocity": 0.3464566929133858,
                    "duration": 0.08333337500000049
                },
                {
                    "name": "B5",
                    "midi": 83,
                    "time": 8.583337624999986,
                    "velocity": 0.3779527559055118,
                    "duration": 0.08333337500000049
                },
                {
                    "name": "A5",
                    "midi": 81,
                    "time": 8.750004374999987,
                    "velocity": 0.3543307086614173,
                    "duration": 0.08333337500000049
                },
                {
                    "name": "C#5",
                    "midi": 73,
                    "time": 8.833337749999988,
                    "velocity": 0.3937007874015748,
                    "duration": 0.08333337500000049
                },
                {
                    "name": "E5",
                    "midi": 76,
                    "time": 8.916671124999988,
                    "velocity": 0.33070866141732286,
                    "duration": 0.08333337500000049
                },
                {
                    "name": "D5",
                    "midi": 74,
                    "time": 9.000004499999989,
                    "velocity": 0.3779527559055118,
                    "duration": 0.08333337500000049
                },
                {
                    "name": "B4",
                    "midi": 71,
                    "time": 9.08333787499999,
                    "velocity": 0.33070866141732286,
                    "duration": 0.08333337500000049
                },
                {
                    "name": "G#5",
                    "midi": 80,
                    "time": 9.25000462499999,
                    "velocity": 0.3700787401574803,
                    "duration": 0.08333337500000049
                },
                {
                    "name": "F#5",
                    "midi": 78,
                    "time": 9.416671374999991,
                    "velocity": 0.33070866141732286,
                    "duration": 0.08333337500000049
                },
                {
                    "name": "A#4",
                    "midi": 70,
                    "time": 9.500004749999992,
                    "velocity": 0.3779527559055118,
                    "duration": 0.08333337500000049
                },
                {
                    "name": "C#5",
                    "midi": 73,
                    "time": 9.583338124999992,
                    "velocity": 0.33070866141732286,
                    "duration": 0.08333337500000049
                },
                {
                    "name": "B4",
                    "midi": 71,
                    "time": 9.666671499999993,
                    "velocity": 0.3700787401574803,
                    "duration": 0.08333337500000049
                },
                {
                    "name": "G#4",
                    "midi": 68,
                    "time": 9.750004874999993,
                    "velocity": 0.2992125984251969,
                    "duration": 0.08333337500000049
                },
                {
                    "name": "F5",
                    "midi": 77,
                    "time": 9.916671624999994,
                    "velocity": 0.3543307086614173,
                    "duration": 0.08333337500000049
                },
                {
                    "name": "D5",
                    "midi": 74,
                    "time": 10.083338374999995,
                    "velocity": 0.29133858267716534,
                    "duration": 0.08333337500000049
                },
                {
                    "name": "G4",
                    "midi": 67,
                    "time": 10.166671749999995,
                    "velocity": 0.3700787401574803,
                    "duration": 0.08333337500000049
                },
                {
                    "name": "A4",
                    "midi": 69,
                    "time": 10.250005124999996,
                    "velocity": 0.29133858267716534,
                    "duration": 0.08333337500000049
                },
                {
                    "name": "G#4",
                    "midi": 68,
                    "time": 10.333338499999996,
                    "velocity": 0.36220472440944884,
                    "duration": 0.08333337500000049
                },
                {
                    "name": "F4",
                    "midi": 65,
                    "time": 10.416671874999997,
                    "velocity": 0.28346456692913385,
                    "duration": 0.08333337500000049
                },
                {
                    "name": "C#5",
                    "midi": 73,
                    "time": 10.583338624999998,
                    "velocity": 0.33070866141732286,
                    "duration": 0.08333337500000049
                },
                {
                    "name": "C#5",
                    "midi": 73,
                    "time": 10.750005374999999,
                    "velocity": 0.4251968503937008,
                    "duration": 0.08333337500000049
                },
                {
                    "name": "G#4",
                    "midi": 68,
                    "time": 10.83333875,
                    "velocity": 0.4881889763779528,
                    "duration": 0.08333337500000049
                },
                {
                    "name": "B4",
                    "midi": 71,
                    "time": 10.916672125,
                    "velocity": 0.36220472440944884,
                    "duration": 0.08333337500000049
                },
                {
                    "name": "A4",
                    "midi": 69,
                    "time": 11.0000055,
                    "velocity": 0.41732283464566927,
                    "duration": 0.08333337500000049
                },
                {
                    "name": "F#4",
                    "midi": 66,
                    "time": 11.083338875,
                    "velocity": 0.29133858267716534,
                    "duration": 0.08333337500000049
                },
                {
                    "name": "D5",
                    "midi": 74,
                    "time": 11.250005625000002,
                    "velocity": 0.31496062992125984,
                    "duration": 0.08333337500000049
                },
                {
                    "name": "C#5",
                    "midi": 73,
                    "time": 11.416672375000003,
                    "velocity": 0.36220472440944884,
                    "duration": 0.08333337500000049
                },
                {
                    "name": "G#4",
                    "midi": 68,
                    "time": 11.500005750000003,
                    "velocity": 0.44881889763779526,
                    "duration": 0.08333337500000049
                },
                {
                    "name": "B4",
                    "midi": 71,
                    "time": 11.583339125000004,
                    "velocity": 0.2992125984251969,
                    "duration": 0.08333337500000049
                },
                {
                    "name": "A4",
                    "midi": 69,
                    "time": 11.666672500000004,
                    "velocity": 0.3700787401574803,
                    "duration": 0.08333337500000049
                },
                {
                    "name": "G#4",
                    "midi": 68,
                    "time": 11.750005875000005,
                    "velocity": 0.2992125984251969,
                    "duration": 0.08333337500000049
                },
                {
                    "name": "F#5",
                    "midi": 78,
                    "time": 11.916672625000006,
                    "velocity": 0.36220472440944884,
                    "duration": 0.08333337500000049
                },
                {
                    "name": "F#5",
                    "midi": 78,
                    "time": 12.083339375000007,
                    "velocity": 0.4330708661417323,
                    "duration": 0.08333337500000049
                },
                {
                    "name": "A#4",
                    "midi": 70,
                    "time": 12.166672750000007,
                    "velocity": 0.5039370078740157,
                    "duration": 0.08333337500000049
                },
                {
                    "name": "C#5",
                    "midi": 73,
                    "time": 12.250006125000008,
                    "velocity": 0.3464566929133858,
                    "duration": 0.08333337500000049
                },
                {
                    "name": "B4",
                    "midi": 71,
                    "time": 12.333339500000008,
                    "velocity": 0.4015748031496063,
                    "duration": 0.08333337500000049
                },
                {
                    "name": "G#4",
                    "midi": 68,
                    "time": 12.416672875000009,
                    "velocity": 0.33070866141732286,
                    "duration": 0.08333337500000049
                },
                {
                    "name": "F5",
                    "midi": 77,
                    "time": 12.58333962500001,
                    "velocity": 0.3779527559055118,
                    "duration": 0.08333337500000049
                },
                {
                    "name": "A5",
                    "midi": 81,
                    "time": 12.75000637500001,
                    "velocity": 0.3858267716535433,
                    "duration": 0.08333337500000049
                },
                {
                    "name": "C5",
                    "midi": 72,
                    "time": 12.833339750000011,
                    "velocity": 0.4409448818897638,
                    "duration": 0.08333337500000049
                },
                {
                    "name": "D5",
                    "midi": 74,
                    "time": 12.916673125000012,
                    "velocity": 0.3464566929133858,
                    "duration": 0.08333337500000049
                },
                {
                    "name": "C#5",
                    "midi": 73,
                    "time": 13.000006500000012,
                    "velocity": 0.3779527559055118,
                    "duration": 0.08333337500000049
                },
                {
                    "name": "B4",
                    "midi": 71,
                    "time": 13.083339875000012,
                    "velocity": 0.2992125984251969,
                    "duration": 0.08333337500000049
                },
                {
                    "name": "G#5",
                    "midi": 80,
                    "time": 13.250006625000013,
                    "velocity": 0.3543307086614173,
                    "duration": 0.08333337500000049
                },
                {
                    "name": "C#5",
                    "midi": 73,
                    "time": 13.416673375000014,
                    "velocity": 0.4094488188976378,
                    "duration": 0.08333337500000049
                },
                {
                    "name": "G#4",
                    "midi": 68,
                    "time": 13.500006750000015,
                    "velocity": 0.4645669291338583,
                    "duration": 0.08333337500000049
                },
                {
                    "name": "B4",
                    "midi": 71,
                    "time": 13.583340125000015,
                    "velocity": 0.29133858267716534,
                    "duration": 0.08333337500000049
                },
                {
                    "name": "A4",
                    "midi": 69,
                    "time": 13.666673500000016,
                    "velocity": 0.41732283464566927,
                    "duration": 0.08333337500000049
                },
                {
                    "name": "F#4",
                    "midi": 66,
                    "time": 13.750006875000016,
                    "velocity": 0.31496062992125984,
                    "duration": 0.08333337500000049
                },
                {
                    "name": "D5",
                    "midi": 74,
                    "time": 13.916673625000017,
                    "velocity": 0.3543307086614173,
                    "duration": 0.08333337500000049
                },
                {
                    "name": "C#5",
                    "midi": 73,
                    "time": 14.083340375000018,
                    "velocity": 0.33070866141732286,
                    "duration": 0.08333337500000049
                },
                {
                    "name": "G#4",
                    "midi": 68,
                    "time": 14.166673750000019,
                    "velocity": 0.3779527559055118,
                    "duration": 0.08333337500000049
                },
                {
                    "name": "B4",
                    "midi": 71,
                    "time": 14.25000712500002,
                    "velocity": 0.33070866141732286,
                    "duration": 0.08333337500000049
                },
                {
                    "name": "A4",
                    "midi": 69,
                    "time": 14.33334050000002,
                    "velocity": 0.3779527559055118,
                    "duration": 0.08333337500000049
                },
                {
                    "name": "G#4",
                    "midi": 68,
                    "time": 14.41667387500002,
                    "velocity": 0.33070866141732286,
                    "duration": 0.08333337500000049
                },
                {
                    "name": "A5",
                    "midi": 81,
                    "time": 14.583340625000021,
                    "velocity": 0.3779527559055118,
                    "duration": 0.08333337500000049
                },
                {
                    "name": "A5",
                    "midi": 81,
                    "time": 14.750007375000022,
                    "velocity": 0.3937007874015748,
                    "duration": 0.08333337500000049
                },
                {
                    "name": "C#5",
                    "midi": 73,
                    "time": 14.833340750000023,
                    "velocity": 0.4645669291338583,
                    "duration": 0.08333337500000049
                },
                {
                    "name": "E5",
                    "midi": 76,
                    "time": 14.916674125000023,
                    "velocity": 0.36220472440944884,
                    "duration": 0.08333337500000049
                },
                {
                    "name": "D5",
                    "midi": 74,
                    "time": 15.000007500000024,
                    "velocity": 0.4015748031496063,
                    "duration": 0.08333337500000049
                },
                {
                    "name": "B4",
                    "midi": 71,
                    "time": 15.083340875000024,
                    "velocity": 0.33070866141732286,
                    "duration": 0.08333337500000049
                },
                {
                    "name": "G#5",
                    "midi": 80,
                    "time": 15.250007625000025,
                    "velocity": 0.3779527559055118,
                    "duration": 0.08333337500000049
                },
                {
                    "name": "C#6",
                    "midi": 85,
                    "time": 15.416674375000026,
                    "velocity": 0.36220472440944884,
                    "duration": 0.08333337500000049
                },
                {
                    "name": "D#5",
                    "midi": 75,
                    "time": 15.500007750000027,
                    "velocity": 0.4330708661417323,
                    "duration": 0.08333337500000049
                },
                {
                    "name": "F#5",
                    "midi": 78,
                    "time": 15.583341125000027,
                    "velocity": 0.3700787401574803,
                    "duration": 0.08333337500000049
                },
                {
                    "name": "E5",
                    "midi": 76,
                    "time": 15.666674500000028,
                    "velocity": 0.4330708661417323,
                    "duration": 0.08333337500000049
                },
                {
                    "name": "D5",
                    "midi": 74,
                    "time": 15.750007875000028,
                    "velocity": 0.3700787401574803,
                    "duration": 0.08333337500000049
                },
                {
                    "name": "B5",
                    "midi": 83,
                    "time": 15.916674625000029,
                    "velocity": 0.4015748031496063,
                    "duration": 0.08333337500000049
                },
                {
                    "name": "E6",
                    "midi": 88,
                    "time": 16.08334137500003,
                    "velocity": 0.4409448818897638,
                    "duration": 0.08333337499999871
                },
                {
                    "name": "B5",
                    "midi": 83,
                    "time": 16.166674750000027,
                    "velocity": 0.4881889763779528,
                    "duration": 0.08333337499999871
                },
                {
                    "name": "D6",
                    "midi": 86,
                    "time": 16.250008125000026,
                    "velocity": 0.3700787401574803,
                    "duration": 0.08333337499999871
                },
                {
                    "name": "C6",
                    "midi": 84,
                    "time": 16.333341500000024,
                    "velocity": 0.4330708661417323,
                    "duration": 0.08333337499999871
                },
                {
                    "name": "A5",
                    "midi": 81,
                    "time": 16.416674875000023,
                    "velocity": 0.3700787401574803,
                    "duration": 0.08333337499999871
                },
                {
                    "name": "F#6",
                    "midi": 90,
                    "time": 16.58334162500002,
                    "velocity": 0.4015748031496063,
                    "duration": 0.08333337499999871
                },
                {
                    "name": "E6",
                    "midi": 88,
                    "time": 16.750008375000018,
                    "velocity": 0.4015748031496063,
                    "duration": 0.08333337499999871
                },
                {
                    "name": "G#5",
                    "midi": 80,
                    "time": 16.833341750000017,
                    "velocity": 0.44881889763779526,
                    "duration": 0.08333337499999871
                },
                {
                    "name": "B5",
                    "midi": 83,
                    "time": 16.916675125000015,
                    "velocity": 0.3464566929133858,
                    "duration": 0.08333337499999871
                },
                {
                    "name": "A5",
                    "midi": 81,
                    "time": 17.000008500000014,
                    "velocity": 0.4094488188976378,
                    "duration": 0.08333337499999871
                },
                {
                    "name": "F#5",
                    "midi": 78,
                    "time": 17.083341875000013,
                    "velocity": 0.36220472440944884,
                    "duration": 0.08333337499999871
                },
                {
                    "name": "D#6",
                    "midi": 87,
                    "time": 17.25000862500001,
                    "velocity": 0.3937007874015748,
                    "duration": 0.08333337499999871
                },
                {
                    "name": "D6",
                    "midi": 86,
                    "time": 17.416675375000008,
                    "velocity": 0.3464566929133858,
                    "duration": 0.08333337499999871
                },
                {
                    "name": "G5",
                    "midi": 79,
                    "time": 17.500008750000006,
                    "velocity": 0.41732283464566927,
                    "duration": 0.08333337499999871
                },
                {
                    "name": "A#5",
                    "midi": 82,
                    "time": 17.583342125000005,
                    "velocity": 0.3779527559055118,
                    "duration": 0.08333337499999871
                },
                {
                    "name": "G#5",
                    "midi": 80,
                    "time": 17.666675500000004,
                    "velocity": 0.3937007874015748,
                    "duration": 0.08333337499999871
                },
                {
                    "name": "F5",
                    "midi": 77,
                    "time": 17.750008875000002,
                    "velocity": 0.3700787401574803,
                    "duration": 0.08333337499999871
                },
                {
                    "name": "E6",
                    "midi": 88,
                    "time": 17.916675625,
                    "velocity": 0.3700787401574803,
                    "duration": 0.08333337499999871
                },
                {
                    "name": "D6",
                    "midi": 86,
                    "time": 18.083342374999997,
                    "velocity": 0.33070866141732286,
                    "duration": 0.08333337499999871
                },
                {
                    "name": "F#5",
                    "midi": 78,
                    "time": 18.166675749999996,
                    "velocity": 0.3700787401574803,
                    "duration": 0.08333337499999871
                },
                {
                    "name": "A5",
                    "midi": 81,
                    "time": 18.250009124999995,
                    "velocity": 0.33070866141732286,
                    "duration": 0.08333337499999871
                },
                {
                    "name": "G5",
                    "midi": 79,
                    "time": 18.333342499999993,
                    "velocity": 0.3700787401574803,
                    "duration": 0.08333337499999871
                },
                {
                    "name": "E5",
                    "midi": 76,
                    "time": 18.416675874999992,
                    "velocity": 0.31496062992125984,
                    "duration": 0.08333337499999871
                },
                {
                    "name": "C#6",
                    "midi": 85,
                    "time": 18.58334262499999,
                    "velocity": 0.3543307086614173,
                    "duration": 0.08333337499999871
                },
                {
                    "name": "C6",
                    "midi": 84,
                    "time": 18.750009374999987,
                    "velocity": 0.3464566929133858,
                    "duration": 0.08333337499999871
                },
                {
                    "name": "F5",
                    "midi": 77,
                    "time": 18.833342749999986,
                    "velocity": 0.4094488188976378,
                    "duration": 0.08333337499999871
                },
                {
                    "name": "G#5",
                    "midi": 80,
                    "time": 18.916676124999984,
                    "velocity": 0.33070866141732286,
                    "duration": 0.08333337499999871
                },
                {
                    "name": "F#5",
                    "midi": 78,
                    "time": 19.000009499999983,
                    "velocity": 0.3779527559055118,
                    "duration": 0.08333337499999871
                },
                {
                    "name": "D#5",
                    "midi": 75,
                    "time": 19.083342874999982,
                    "velocity": 0.31496062992125984,
                    "duration": 0.08333337499999871
                },
                {
                    "name": "D6",
                    "midi": 86,
                    "time": 19.25000962499998,
                    "velocity": 0.31496062992125984,
                    "duration": 0.08333337499999871
                },
                {
                    "name": "C6",
                    "midi": 84,
                    "time": 19.416676374999977,
                    "velocity": 0.33070866141732286,
                    "duration": 0.08333337499999871
                },
                {
                    "name": "E5",
                    "midi": 76,
                    "time": 19.500009749999975,
                    "velocity": 0.3700787401574803,
                    "duration": 0.08333337499999871
                },
                {
                    "name": "G5",
                    "midi": 79,
                    "time": 19.583343124999974,
                    "velocity": 0.31496062992125984,
                    "duration": 0.08333337499999871
                },
                {
                    "name": "F5",
                    "midi": 77,
                    "time": 19.666676499999973,
                    "velocity": 0.3700787401574803,
                    "duration": 0.08333337499999871
                },
                {
                    "name": "D5",
                    "midi": 74,
                    "time": 19.75000987499997,
                    "velocity": 0.31496062992125984,
                    "duration": 0.08333337499999871
                },
                {
                    "name": "B5",
                    "midi": 83,
                    "time": 19.91667662499997,
                    "velocity": 0.31496062992125984,
                    "duration": 0.08333337499999871
                },
                {
                    "name": "B5",
                    "midi": 83,
                    "time": 20.083343374999966,
                    "velocity": 0.29133858267716534,
                    "duration": 0.08333337499999871
                },
                {
                    "name": "D#5",
                    "midi": 75,
                    "time": 20.166676749999965,
                    "velocity": 0.36220472440944884,
                    "duration": 0.08333337499999871
                },
                {
                    "name": "F#5",
                    "midi": 78,
                    "time": 20.250010124999964,
                    "velocity": 0.28346456692913385,
                    "duration": 0.08333337499999871
                },
                {
                    "name": "E5",
                    "midi": 76,
                    "time": 20.333343499999962,
                    "velocity": 0.3543307086614173,
                    "duration": 0.08333337499999871
                },
                {
                    "name": "C#5",
                    "midi": 73,
                    "time": 20.41667687499996,
                    "velocity": 0.29133858267716534,
                    "duration": 0.08333337499999871
                },
                {
                    "name": "A#5",
                    "midi": 82,
                    "time": 20.58334362499996,
                    "velocity": 0.33070866141732286,
                    "duration": 0.08333337499999871
                },
                {
                    "name": "A#5",
                    "midi": 82,
                    "time": 20.750010374999956,
                    "velocity": 0.29133858267716534,
                    "duration": 0.08333337499999871
                },
                {
                    "name": "D#5",
                    "midi": 75,
                    "time": 20.833343749999955,
                    "velocity": 0.3464566929133858,
                    "duration": 0.08333337499999871
                },
                {
                    "name": "F#5",
                    "midi": 78,
                    "time": 20.916677124999953,
                    "velocity": 0.29133858267716534,
                    "duration": 0.08333337499999871
                },
                {
                    "name": "E5",
                    "midi": 76,
                    "time": 21.000010499999952,
                    "velocity": 0.3464566929133858,
                    "duration": 0.08333337499999871
                },
                {
                    "name": "C#5",
                    "midi": 73,
                    "time": 21.08334387499995,
                    "velocity": 0.29133858267716534,
                    "duration": 0.08333337499999871
                },
                {
                    "name": "A#5",
                    "midi": 82,
                    "time": 21.25001062499995,
                    "velocity": 0.33070866141732286,
                    "duration": 0.08333337499999871
                },
                {
                    "name": "B5",
                    "midi": 83,
                    "time": 21.416677374999946,
                    "velocity": 0.4251968503937008,
                    "duration": 0.08333337499999871
                },
                {
                    "name": "E5",
                    "midi": 76,
                    "time": 21.500010749999944,
                    "velocity": 0.4645669291338583,
                    "duration": 0.08333337499999871
                },
                {
                    "name": "G5",
                    "midi": 79,
                    "time": 21.583344124999943,
                    "velocity": 0.2992125984251969,
                    "duration": 0.08333337499999871
                },
                {
                    "name": "F5",
                    "midi": 77,
                    "time": 21.666677499999942,
                    "velocity": 0.4251968503937008,
                    "duration": 0.08333337499999871
                },
                {
                    "name": "D5",
                    "midi": 74,
                    "time": 21.75001087499994,
                    "velocity": 0.3464566929133858,
                    "duration": 0.08333337499999871
                },
                {
                    "name": "A5",
                    "midi": 81,
                    "time": 21.916677624999938,
                    "velocity": 0.3464566929133858,
                    "duration": 0.08333337499999871
                },
                {
                    "name": "A5",
                    "midi": 81,
                    "time": 22.083344374999935,
                    "velocity": 0.36220472440944884,
                    "duration": 0.08333337499999871
                },
                {
                    "name": "C#5",
                    "midi": 73,
                    "time": 22.166677749999934,
                    "velocity": 0.4409448818897638,
                    "duration": 0.08333337499999871
                },
                {
                    "name": "E5",
                    "midi": 76,
                    "time": 22.250011124999933,
                    "velocity": 0.29133858267716534,
                    "duration": 0.08333337499999871
                },
                {
                    "name": "D5",
                    "midi": 74,
                    "time": 22.33334449999993,
                    "velocity": 0.3937007874015748,
                    "duration": 0.08333337499999871
                },
                {
                    "name": "B4",
                    "midi": 71,
                    "time": 22.41667787499993,
                    "velocity": 0.3464566929133858,
                    "duration": 0.08333337499999871
                },
                {
                    "name": "G#5",
                    "midi": 80,
                    "time": 22.583344624999928,
                    "velocity": 0.3464566929133858,
                    "duration": 0.08333337499999871
                },
                {
                    "name": "G#5",
                    "midi": 80,
                    "time": 22.750011374999925,
                    "velocity": 0.2992125984251969,
                    "duration": 0.08333337499999871
                },
                {
                    "name": "C#5",
                    "midi": 73,
                    "time": 22.833344749999924,
                    "velocity": 0.3937007874015748,
                    "duration": 0.08333337499999871
                },
                {
                    "name": "D#5",
                    "midi": 75,
                    "time": 22.916678124999923,
                    "velocity": 0.2992125984251969,
                    "duration": 0.08333337499999871
                },
                {
                    "name": "D5",
                    "midi": 74,
                    "time": 23.00001149999992,
                    "velocity": 0.3543307086614173,
                    "duration": 0.08333337499999871
                },
                {
                    "name": "B4",
                    "midi": 71,
                    "time": 23.08334487499992,
                    "velocity": 0.31496062992125984,
                    "duration": 0.08333337499999871
                },
                {
                    "name": "G5",
                    "midi": 79,
                    "time": 23.250011624999917,
                    "velocity": 0.36220472440944884,
                    "duration": 0.08333337499999871
                },
                {
                    "name": "G5",
                    "midi": 79,
                    "time": 23.416678374999915,
                    "velocity": 0.33070866141732286,
                    "duration": 0.08333337499999871
                },
                {
                    "name": "D5",
                    "midi": 74,
                    "time": 23.500011749999913,
                    "velocity": 0.36220472440944884,
                    "duration": 0.08333337499999871
                },
                {
                    "name": "E5",
                    "midi": 76,
                    "time": 23.583345124999912,
                    "velocity": 0.33070866141732286,
                    "duration": 0.08333337499999871
                },
                {
                    "name": "D#5",
                    "midi": 75,
                    "time": 23.66667849999991,
                    "velocity": 0.3700787401574803,
                    "duration": 0.08333337499999871
                },
                {
                    "name": "D5",
                    "midi": 74,
                    "time": 23.75001187499991,
                    "velocity": 0.36220472440944884,
                    "duration": 0.08333337499999871
                },
                {
                    "name": "C6",
                    "midi": 84,
                    "time": 23.916678624999907,
                    "velocity": 0.36220472440944884,
                    "duration": 0.08333337499999871
                },
                {
                    "name": "C6",
                    "midi": 84,
                    "time": 24.083345374999904,
                    "velocity": 0.41732283464566927,
                    "duration": 0.08333337499999871
                },
                {
                    "name": "F#5",
                    "midi": 78,
                    "time": 24.166678749999903,
                    "velocity": 0.48031496062992124,
                    "duration": 0.08333337499999871
                },
                {
                    "name": "G#5",
                    "midi": 80,
                    "time": 24.250012124999902,
                    "velocity": 0.33070866141732286,
                    "duration": 0.08333337499999871
                },
                {
                    "name": "G5",
                    "midi": 79,
                    "time": 24.3333454999999,
                    "velocity": 0.3779527559055118,
                    "duration": 0.08333337499999871
                },
                {
                    "name": "D#5",
                    "midi": 75,
                    "time": 24.4166788749999,
                    "velocity": 0.3464566929133858,
                    "duration": 0.08333337499999871
                },
                {
                    "name": "B5",
                    "midi": 83,
                    "time": 24.583345624999897,
                    "velocity": 0.3779527559055118,
                    "duration": 0.08333337499999871
                },
                {
                    "name": "B5",
                    "midi": 83,
                    "time": 24.750012374999894,
                    "velocity": 0.4015748031496063,
                    "duration": 0.08333337499999871
                },
                {
                    "name": "D#5",
                    "midi": 75,
                    "time": 24.833345749999893,
                    "velocity": 0.4881889763779528,
                    "duration": 0.08333337499999871
                },
                {
                    "name": "F#5",
                    "midi": 78,
                    "time": 24.91667912499989,
                    "velocity": 0.3543307086614173,
                    "duration": 0.08333337499999871
                },
                {
                    "name": "E5",
                    "midi": 76,
                    "time": 25.00001249999989,
                    "velocity": 0.4094488188976378,
                    "duration": 0.08333337499999871
                },
                {
                    "name": "C#5",
                    "midi": 73,
                    "time": 25.08334587499989,
                    "velocity": 0.3543307086614173,
                    "duration": 0.08333337499999871
                },
                {
                    "name": "A#5",
                    "midi": 82,
                    "time": 25.250012624999886,
                    "velocity": 0.3937007874015748,
                    "duration": 0.08333337499999871
                },
                {
                    "name": "A#5",
                    "midi": 82,
                    "time": 25.416679374999884,
                    "velocity": 0.36220472440944884,
                    "duration": 0.08333337499999871
                },
                {
                    "name": "D#5",
                    "midi": 75,
                    "time": 25.500012749999883,
                    "velocity": 0.4330708661417323,
                    "duration": 0.08333337499999871
                },
                {
                    "name": "F5",
                    "midi": 77,
                    "time": 25.58334612499988,
                    "velocity": 0.3779527559055118,
                    "duration": 0.08333337499999871
                },
                {
                    "name": "E5",
                    "midi": 76,
                    "time": 25.66667949999988,
                    "velocity": 0.4330708661417323,
                    "duration": 0.08333337499999871
                },
                {
                    "name": "C#5",
                    "midi": 73,
                    "time": 25.75001287499988,
                    "velocity": 0.3700787401574803,
                    "duration": 0.08333337499999871
                },
                {
                    "name": "A5",
                    "midi": 81,
                    "time": 25.916679624999876,
                    "velocity": 0.4015748031496063,
                    "duration": 0.08333337499999871
                },
                {
                    "name": "A5",
                    "midi": 81,
                    "time": 26.083346374999874,
                    "velocity": 0.3700787401574803,
                    "duration": 0.08333337499999871
                },
                {
                    "name": "E5",
                    "midi": 76,
                    "time": 26.166679749999872,
                    "velocity": 0.4645669291338583,
                    "duration": 0.08333337499999871
                },
                {
                    "name": "G5",
                    "midi": 79,
                    "time": 26.25001312499987,
                    "velocity": 0.3937007874015748,
                    "duration": 0.08333337499999871
                },
                {
                    "name": "F5",
                    "midi": 77,
                    "time": 26.33334649999987,
                    "velocity": 0.4409448818897638,
                    "duration": 0.08333337499999871
                },
                {
                    "name": "E5",
                    "midi": 76,
                    "time": 26.41667987499987,
                    "velocity": 0.3779527559055118,
                    "duration": 0.08333337499999871
                },
                {
                    "name": "D6",
                    "midi": 86,
                    "time": 26.583346624999866,
                    "velocity": 0.4094488188976378,
                    "duration": 0.08333337499999871
                },
                {
                    "name": "D6",
                    "midi": 86,
                    "time": 26.750013374999863,
                    "velocity": 0.4566929133858268,
                    "duration": 0.08333337499999871
                },
                {
                    "name": "E5",
                    "midi": 76,
                    "time": 26.833346749999862,
                    "velocity": 0.5354330708661418,
                    "duration": 0.08333337499999871
                },
                {
                    "name": "G5",
                    "midi": 79,
                    "time": 26.91668012499986,
                    "velocity": 0.3700787401574803,
                    "duration": 0.08333337499999871
                },
                {
                    "name": "F5",
                    "midi": 77,
                    "time": 27.00001349999986,
                    "velocity": 0.4409448818897638,
                    "duration": 0.08333337499999871
                },
                {
                    "name": "D#5",
                    "midi": 75,
                    "time": 27.083346874999858,
                    "velocity": 0.3700787401574803,
                    "duration": 0.08333337499999871
                },
                {
                    "name": "C6",
                    "midi": 84,
                    "time": 27.250013624999855,
                    "velocity": 0.4330708661417323,
                    "duration": 0.08333337499999871
                },
                {
                    "name": "C6",
                    "midi": 84,
                    "time": 27.416680374999853,
                    "velocity": 0.4330708661417323,
                    "duration": 0.08333337499999871
                },
                {
                    "name": "E5",
                    "midi": 76,
                    "time": 27.50001374999985,
                    "velocity": 0.5196850393700787,
                    "duration": 0.08333337499999871
                },
                {
                    "name": "G5",
                    "midi": 79,
                    "time": 27.58334712499985,
                    "velocity": 0.3937007874015748,
                    "duration": 0.08333337499999871
                },
                {
                    "name": "F5",
                    "midi": 77,
                    "time": 27.66668049999985,
                    "velocity": 0.4409448818897638,
                    "duration": 0.08333337499999871
                },
                {
                    "name": "D5",
                    "midi": 74,
                    "time": 27.750013874999848,
                    "velocity": 0.3700787401574803,
                    "duration": 0.08333337499999871
                },
                {
                    "name": "A#5",
                    "midi": 82,
                    "time": 27.916680624999845,
                    "velocity": 0.4330708661417323,
                    "duration": 0.08333337499999871
                },
                {
                    "name": "A#5",
                    "midi": 82,
                    "time": 28.083347374999843,
                    "velocity": 0.3937007874015748,
                    "duration": 0.08333337499999871
                },
                {
                    "name": "C#5",
                    "midi": 73,
                    "time": 28.16668074999984,
                    "velocity": 0.47244094488188976,
                    "duration": 0.08333337499999871
                },
                {
                    "name": "D#5",
                    "midi": 75,
                    "time": 28.25001412499984,
                    "velocity": 0.3779527559055118,
                    "duration": 0.08333337499999871
                },
                {
                    "name": "D5",
                    "midi": 74,
                    "time": 28.33334749999984,
                    "velocity": 0.44881889763779526,
                    "duration": 0.08333337499999871
                },
                {
                    "name": "C5",
                    "midi": 72,
                    "time": 28.416680874999837,
                    "velocity": 0.36220472440944884,
                    "duration": 0.08333337499999871
                },
                {
                    "name": "A5",
                    "midi": 81,
                    "time": 28.583347624999835,
                    "velocity": 0.4330708661417323,
                    "duration": 0.08333337499999871
                },
                {
                    "name": "A5",
                    "midi": 81,
                    "time": 28.750014374999832,
                    "velocity": 0.3937007874015748,
                    "duration": 0.08333337499999871
                },
                {
                    "name": "C#5",
                    "midi": 73,
                    "time": 28.83334774999983,
                    "velocity": 0.4645669291338583,
                    "duration": 0.08333337499999871
                },
                {
                    "name": "D#5",
                    "midi": 75,
                    "time": 28.91668112499983,
                    "velocity": 0.3937007874015748,
                    "duration": 0.08333337499999871
                },
                {
                    "name": "D5",
                    "midi": 74,
                    "time": 29.00001449999983,
                    "velocity": 0.47244094488188976,
                    "duration": 0.08333337499999871
                },
                {
                    "name": "B4",
                    "midi": 71,
                    "time": 29.083347874999827,
                    "velocity": 0.3937007874015748,
                    "duration": 0.08333337499999871
                },
                {
                    "name": "G5",
                    "midi": 79,
                    "time": 29.250014624999825,
                    "velocity": 0.44881889763779526,
                    "duration": 0.08333337499999871
                },
                {
                    "name": "G5",
                    "midi": 79,
                    "time": 29.416681374999822,
                    "velocity": 0.4015748031496063,
                    "duration": 0.08333337499999871
                },
                {
                    "name": "A4",
                    "midi": 69,
                    "time": 29.50001474999982,
                    "velocity": 0.5354330708661418,
                    "duration": 0.08333337499999871
                },
                {
                    "name": "C5",
                    "midi": 72,
                    "time": 29.58334812499982,
                    "velocity": 0.4015748031496063,
                    "duration": 0.08333337499999871
                },
                {
                    "name": "A#4",
                    "midi": 70,
                    "time": 29.666681499999818,
                    "velocity": 0.47244094488188976,
                    "duration": 0.08333337499999871
                },
                {
                    "name": "G#4",
                    "midi": 68,
                    "time": 29.750014874999817,
                    "velocity": 0.4015748031496063,
                    "duration": 0.08333337499999871
                },
                {
                    "name": "F5",
                    "midi": 77,
                    "time": 29.916681624999814,
                    "velocity": 0.4645669291338583,
                    "duration": 0.08333337499999871
                },
                {
                    "name": "E5",
                    "midi": 76,
                    "time": 30.08334837499981,
                    "velocity": 0.3937007874015748,
                    "duration": 0.08333337499999871
                },
                {
                    "name": "A4",
                    "midi": 69,
                    "time": 30.16668174999981,
                    "velocity": 0.5275590551181102,
                    "duration": 0.08333337499999871
                },
                {
                    "name": "C5",
                    "midi": 72,
                    "time": 30.25001512499981,
                    "velocity": 0.4094488188976378,
                    "duration": 0.08333337499999871
                },
                {
                    "name": "A#4",
                    "midi": 70,
                    "time": 30.333348499999808,
                    "velocity": 0.48031496062992124,
                    "duration": 0.08333337499999871
                },
                {
                    "name": "G#4",
                    "midi": 68,
                    "time": 30.416681874999806,
                    "velocity": 0.4094488188976378,
                    "duration": 0.08333337499999871
                },
                {
                    "name": "F5",
                    "midi": 77,
                    "time": 30.583348624999804,
                    "velocity": 0.47244094488188976,
                    "duration": 0.08333337499999871
                },
                {
                    "name": "F5",
                    "midi": 77,
                    "time": 30.7500153749998,
                    "velocity": 0.4330708661417323,
                    "duration": 0.08333337499999871
                },
                {
                    "name": "A4",
                    "midi": 69,
                    "time": 30.8333487499998,
                    "velocity": 0.4881889763779528,
                    "duration": 0.08333337499999871
                },
                {
                    "name": "B4",
                    "midi": 71,
                    "time": 30.9166821249998,
                    "velocity": 0.4094488188976378,
                    "duration": 0.08333337499999871
                },
                {
                    "name": "A#4",
                    "midi": 70,
                    "time": 31.000015499999797,
                    "velocity": 0.49606299212598426,
                    "duration": 0.08333337499999871
                },
                {
                    "name": "G#4",
                    "midi": 68,
                    "time": 31.083348874999796,
                    "velocity": 0.4094488188976378,
                    "duration": 0.08333337499999871
                },
                {
                    "name": "F5",
                    "midi": 77,
                    "time": 31.250015624999794,
                    "velocity": 0.48031496062992124,
                    "duration": 0.08333337499999871
                },
                {
                    "name": "F#5",
                    "midi": 78,
                    "time": 31.41668237499979,
                    "velocity": 0.4409448818897638,
                    "duration": 0.08333337499999871
                },
                {
                    "name": "D5",
                    "midi": 74,
                    "time": 31.50001574999979,
                    "velocity": 0.5039370078740157,
                    "duration": 0.08333337499999871
                },
                {
                    "name": "F5",
                    "midi": 77,
                    "time": 31.58334912499979,
                    "velocity": 0.44881889763779526,
                    "duration": 0.08333337499999871
                },
                {
                    "name": "D#5",
                    "midi": 75,
                    "time": 31.666682499999787,
                    "velocity": 0.5039370078740157,
                    "duration": 0.08333337499999871
                },
                {
                    "name": "A#4",
                    "midi": 70,
                    "time": 31.750015874999786,
                    "velocity": 0.4330708661417323,
                    "duration": 0.08333337499999871
                },
                {
                    "name": "F#5",
                    "midi": 78,
                    "time": 31.916682624999783,
                    "velocity": 0.4881889763779528,
                    "duration": 0.08333337499999871
                },
                {
                    "name": "F#5",
                    "midi": 78,
                    "time": 32.083349374999784,
                    "velocity": 0.4881889763779528,
                    "duration": 0.08333337500000226
                },
                {
                    "name": "G4",
                    "midi": 67,
                    "time": 32.16668274999979,
                    "velocity": 0.6220472440944882,
                    "duration": 0.08333337500000226
                },
                {
                    "name": "A#4",
                    "midi": 70,
                    "time": 32.25001612499979,
                    "velocity": 0.5196850393700787,
                    "duration": 0.08333337500000226
                },
                {
                    "name": "G#4",
                    "midi": 68,
                    "time": 32.33334949999979,
                    "velocity": 0.5748031496062992,
                    "duration": 0.08333337500000226
                },
                {
                    "name": "F#4",
                    "midi": 66,
                    "time": 32.41668287499979,
                    "velocity": 0.5590551181102362,
                    "duration": 0.08333337500000226
                },
                {
                    "name": "E5",
                    "midi": 76,
                    "time": 32.5833496249998,
                    "velocity": 0.5039370078740157,
                    "duration": 0.08333337500000226
                },
                {
                    "name": "E5",
                    "midi": 76,
                    "time": 32.7500163749998,
                    "velocity": 0.4645669291338583,
                    "duration": 0.08333337500000226
                },
                {
                    "name": "G4",
                    "midi": 67,
                    "time": 32.833349749999805,
                    "velocity": 0.5196850393700787,
                    "duration": 0.08333337500000226
                },
                {
                    "name": "A#4",
                    "midi": 70,
                    "time": 32.91668312499981,
                    "velocity": 0.48031496062992124,
                    "duration": 0.08333337500000226
                },
                {
                    "name": "G#4",
                    "midi": 68,
                    "time": 33.00001649999981,
                    "velocity": 0.5511811023622047,
                    "duration": 0.08333337500000226
                },
                {
                    "name": "E4",
                    "midi": 64,
                    "time": 33.08334987499981,
                    "velocity": 0.4881889763779528,
                    "duration": 0.08333337500000226
                },
                {
                    "name": "G#4",
                    "midi": 68,
                    "time": 33.250016624999816,
                    "velocity": 0.5039370078740157,
                    "duration": 0.08333337500000226
                },
                {
                    "name": "B4",
                    "midi": 71,
                    "time": 33.41668337499982,
                    "velocity": 0.48031496062992124,
                    "duration": 0.08333337500000226
                },
                {
                    "name": "F4",
                    "midi": 65,
                    "time": 33.50001674999982,
                    "velocity": 0.5196850393700787,
                    "duration": 0.08333337500000226
                },
                {
                    "name": "G#4",
                    "midi": 68,
                    "time": 33.583350124999825,
                    "velocity": 0.49606299212598426,
                    "duration": 0.08333337500000226
                },
                {
                    "name": "F#4",
                    "midi": 66,
                    "time": 33.66668349999983,
                    "velocity": 0.5590551181102362,
                    "duration": 0.08333337500000226
                },
                {
                    "name": "D#4",
                    "midi": 63,
                    "time": 33.75001687499983,
                    "velocity": 0.4881889763779528,
                    "duration": 0.08333337500000226
                },
                {
                    "name": "B4",
                    "midi": 71,
                    "time": 33.916683624999834,
                    "velocity": 0.5196850393700787,
                    "duration": 0.08333337500000226
                },
                {
                    "name": "A#4",
                    "midi": 70,
                    "time": 34.08335037499984,
                    "velocity": 0.4881889763779528,
                    "duration": 0.08333337500000226
                },
                {
                    "name": "F4",
                    "midi": 65,
                    "time": 34.16668374999984,
                    "velocity": 0.5433070866141733,
                    "duration": 0.08333337500000226
                },
                {
                    "name": "G#4",
                    "midi": 68,
                    "time": 34.25001712499984,
                    "velocity": 0.48031496062992124,
                    "duration": 0.08333337500000226
                },
                {
                    "name": "F#4",
                    "midi": 66,
                    "time": 34.333350499999845,
                    "velocity": 0.5590551181102362,
                    "duration": 0.08333337500000226
                },
                {
                    "name": "D#4",
                    "midi": 63,
                    "time": 34.41668387499985,
                    "velocity": 0.49606299212598426,
                    "duration": 0.08333337500000226
                },
                {
                    "name": "B4",
                    "midi": 71,
                    "time": 34.58335062499985,
                    "velocity": 0.5433070866141733,
                    "duration": 0.08333337500000226
                },
                {
                    "name": "C5",
                    "midi": 72,
                    "time": 34.75001737499986,
                    "velocity": 0.5196850393700787,
                    "duration": 0.08333337500000226
                },
                {
                    "name": "F4",
                    "midi": 65,
                    "time": 34.83335074999986,
                    "velocity": 0.5748031496062992,
                    "duration": 0.08333337500000226
                },
                {
                    "name": "G#4",
                    "midi": 68,
                    "time": 34.91668412499986,
                    "velocity": 0.5511811023622047,
                    "duration": 0.08333337500000226
                },
                {
                    "name": "F#4",
                    "midi": 66,
                    "time": 35.00001749999986,
                    "velocity": 0.6141732283464567,
                    "duration": 0.08333337500000226
                },
                {
                    "name": "E4",
                    "midi": 64,
                    "time": 35.083350874999866,
                    "velocity": 0.6062992125984252,
                    "duration": 0.08333337500000226
                },
                {
                    "name": "C5",
                    "midi": 72,
                    "time": 35.25001762499987,
                    "velocity": 0.5511811023622047,
                    "duration": 0.08333337500000226
                },
                {
                    "name": "C#5",
                    "midi": 73,
                    "time": 35.416684374999875,
                    "velocity": 0.5039370078740157,
                    "duration": 0.08333337500000226
                },
                {
                    "name": "F4",
                    "midi": 65,
                    "time": 35.50001774999988,
                    "velocity": 0.5748031496062992,
                    "duration": 0.08333337500000226
                },
                {
                    "name": "G#4",
                    "midi": 68,
                    "time": 35.58335112499988,
                    "velocity": 0.5039370078740157,
                    "duration": 0.08333337500000226
                },
                {
                    "name": "F#4",
                    "midi": 66,
                    "time": 35.66668449999988,
                    "velocity": 0.5669291338582677,
                    "duration": 0.08333337500000226
                },
                {
                    "name": "E4",
                    "midi": 64,
                    "time": 35.750017874999884,
                    "velocity": 0.49606299212598426,
                    "duration": 0.08333337500000226
                },
                {
                    "name": "D5",
                    "midi": 74,
                    "time": 35.91668462499989,
                    "velocity": 0.5590551181102362,
                    "duration": 0.08333337500000226
                },
                {
                    "name": "D5",
                    "midi": 74,
                    "time": 36.08335137499989,
                    "velocity": 0.5433070866141733,
                    "duration": 0.08333337500000226
                },
                {
                    "name": "F4",
                    "midi": 65,
                    "time": 36.166684749999895,
                    "velocity": 0.6062992125984252,
                    "duration": 0.08333337500000226
                },
                {
                    "name": "G#4",
                    "midi": 68,
                    "time": 36.2500181249999,
                    "velocity": 0.5590551181102362,
                    "duration": 0.08333337500000226
                },
                {
                    "name": "F#4",
                    "midi": 66,
                    "time": 36.3333514999999,
                    "velocity": 0.6062992125984252,
                    "duration": 0.08333337500000226
                },
                {
                    "name": "E4",
                    "midi": 64,
                    "time": 36.4166848749999,
                    "velocity": 0.5433070866141733,
                    "duration": 0.08333337500000226
                },
                {
                    "name": "D5",
                    "midi": 74,
                    "time": 36.58335162499991,
                    "velocity": 0.5669291338582677,
                    "duration": 0.08333337500000226
                },
                {
                    "name": "D#5",
                    "midi": 75,
                    "time": 36.75001837499991,
                    "velocity": 0.5433070866141733,
                    "duration": 0.08333337500000226
                },
                {
                    "name": "A#4",
                    "midi": 70,
                    "time": 36.83335174999991,
                    "velocity": 0.6062992125984252,
                    "duration": 0.08333337500000226
                },
                {
                    "name": "C#5",
                    "midi": 73,
                    "time": 36.916685124999916,
                    "velocity": 0.5590551181102362,
                    "duration": 0.08333337500000226
                },
                {
                    "name": "B4",
                    "midi": 71,
                    "time": 37.00001849999992,
                    "velocity": 0.6062992125984252,
                    "duration": 0.08333337500000226
                },
                {
                    "name": "F#4",
                    "midi": 66,
                    "time": 37.08335187499992,
                    "velocity": 0.5669291338582677,
                    "duration": 0.08333337500000226
                },
                {
                    "name": "D#5",
                    "midi": 75,
                    "time": 37.250018624999925,
                    "velocity": 0.5748031496062992,
                    "duration": 0.08333337500000226
                },
                {
                    "name": "D#5",
                    "midi": 75,
                    "time": 37.41668537499993,
                    "velocity": 0.5196850393700787,
                    "duration": 0.08333337500000226
                },
                {
                    "name": "G#4",
                    "midi": 68,
                    "time": 37.50001874999993,
                    "velocity": 0.5748031496062992,
                    "duration": 0.08333337500000226
                },
                {
                    "name": "C#5",
                    "midi": 73,
                    "time": 37.583352124999934,
                    "velocity": 0.5511811023622047,
                    "duration": 0.08333337500000226
                },
                {
                    "name": "B4",
                    "midi": 71,
                    "time": 37.666685499999936,
                    "velocity": 0.6062992125984252,
                    "duration": 0.08333337500000226
                },
                {
                    "name": "G#4",
                    "midi": 68,
                    "time": 37.75001887499994,
                    "velocity": 0.5196850393700787,
                    "duration": 0.08333337500000226
                },
                {
                    "name": "D#5",
                    "midi": 75,
                    "time": 37.91668562499994,
                    "velocity": 0.5511811023622047,
                    "duration": 0.08333337500000226
                },
                {
                    "name": "D5",
                    "midi": 74,
                    "time": 38.08335237499995,
                    "velocity": 0.5196850393700787,
                    "duration": 0.08333337500000226
                },
                {
                    "name": "G#4",
                    "midi": 68,
                    "time": 38.16668574999995,
                    "velocity": 0.5905511811023622,
                    "duration": 0.08333337500000226
                },
                {
                    "name": "C#5",
                    "midi": 73,
                    "time": 38.25001912499995,
                    "velocity": 0.5590551181102362,
                    "duration": 0.08333337500000226
                },
                {
                    "name": "B4",
                    "midi": 71,
                    "time": 38.333352499999954,
                    "velocity": 0.6062992125984252,
                    "duration": 0.08333337500000226
                },
                {
                    "name": "G#4",
                    "midi": 68,
                    "time": 38.416685874999956,
                    "velocity": 0.5590551181102362,
                    "duration": 0.08333337500000226
                },
                {
                    "name": "D#5",
                    "midi": 75,
                    "time": 38.58335262499996,
                    "velocity": 0.5669291338582677,
                    "duration": 0.08333337500000226
                },
                {
                    "name": "F5",
                    "midi": 77,
                    "time": 38.750019374999965,
                    "velocity": 0.5669291338582677,
                    "duration": 0.08333337500000226
                },
                {
                    "name": "A#4",
                    "midi": 70,
                    "time": 38.83335274999997,
                    "velocity": 0.6299212598425197,
                    "duration": 0.08333337500000226
                },
                {
                    "name": "D#5",
                    "midi": 75,
                    "time": 38.91668612499997,
                    "velocity": 0.5511811023622047,
                    "duration": 0.08333337500000226
                },
                {
                    "name": "D5",
                    "midi": 74,
                    "time": 39.00001949999997,
                    "velocity": 0.6062992125984252,
                    "duration": 0.08333337500000226
                },
                {
                    "name": "A#4",
                    "midi": 70,
                    "time": 39.083352874999974,
                    "velocity": 0.5590551181102362,
                    "duration": 0.08333337500000226
                },
                {
                    "name": "F5",
                    "midi": 77,
                    "time": 39.25001962499998,
                    "velocity": 0.5905511811023622,
                    "duration": 0.08333337500000226
                },
                {
                    "name": "F#5",
                    "midi": 78,
                    "time": 39.41668637499998,
                    "velocity": 0.5433070866141733,
                    "duration": 0.08333337500000226
                },
                {
                    "name": "A#4",
                    "midi": 70,
                    "time": 39.500019749999986,
                    "velocity": 0.5748031496062992,
                    "duration": 0.08333337500000226
                },
                {
                    "name": "D#5",
                    "midi": 75,
                    "time": 39.58335312499999,
                    "velocity": 0.5196850393700787,
                    "duration": 0.08333337500000226
                },
                {
                    "name": "D5",
                    "midi": 74,
                    "time": 39.66668649999999,
                    "velocity": 0.5669291338582677,
                    "duration": 0.08333337500000226
                },
                {
                    "name": "A#4",
                    "midi": 70,
                    "time": 39.75001987499999,
                    "velocity": 0.5196850393700787,
                    "duration": 0.08333337500000226
                },
                {
                    "name": "F5",
                    "midi": 77,
                    "time": 39.916686625,
                    "velocity": 0.5590551181102362,
                    "duration": 0.08333337500000226
                },
                {
                    "name": "D#5",
                    "midi": 75,
                    "time": 40.083353375,
                    "velocity": 0.5590551181102362,
                    "duration": 0.08333337500000226
                },
                {
                    "name": "G#4",
                    "midi": 68,
                    "time": 40.166686750000004,
                    "velocity": 0.6299212598425197,
                    "duration": 0.08333337500000226
                },
                {
                    "name": "C#5",
                    "midi": 73,
                    "time": 40.250020125000006,
                    "velocity": 0.5039370078740157,
                    "duration": 0.08333337500000226
                },
                {
                    "name": "B4",
                    "midi": 71,
                    "time": 40.33335350000001,
                    "velocity": 0.5590551181102362,
                    "duration": 0.08333337500000226
                },
                {
                    "name": "G#4",
                    "midi": 68,
                    "time": 40.41668687500001,
                    "velocity": 0.49606299212598426,
                    "duration": 0.08333337500000226
                },
                {
                    "name": "D#5",
                    "midi": 75,
                    "time": 40.583353625000015,
                    "velocity": 0.5511811023622047,
                    "duration": 0.08333337500000226
                },
                {
                    "name": "D5",
                    "midi": 74,
                    "time": 40.75002037500002,
                    "velocity": 0.5039370078740157,
                    "duration": 0.08333337500000226
                },
                {
                    "name": "G#4",
                    "midi": 68,
                    "time": 40.83335375000002,
                    "velocity": 0.5590551181102362,
                    "duration": 0.08333337500000226
                },
                {
                    "name": "C#5",
                    "midi": 73,
                    "time": 40.916687125000024,
                    "velocity": 0.49606299212598426,
                    "duration": 0.08333337500000226
                },
                {
                    "name": "B4",
                    "midi": 71,
                    "time": 41.000020500000026,
                    "velocity": 0.5590551181102362,
                    "duration": 0.08333337500000226
                },
                {
                    "name": "G#4",
                    "midi": 68,
                    "time": 41.08335387500003,
                    "velocity": 0.5196850393700787,
                    "duration": 0.08333337500000226
                },
                {
                    "name": "D#5",
                    "midi": 75,
                    "time": 41.25002062500003,
                    "velocity": 0.5590551181102362,
                    "duration": 0.08333337500000226
                },
                {
                    "name": "F5",
                    "midi": 77,
                    "time": 41.41668737500004,
                    "velocity": 0.5433070866141733,
                    "duration": 0.08333337500000226
                },
                {
                    "name": "A#4",
                    "midi": 70,
                    "time": 41.50002075000004,
                    "velocity": 0.5748031496062992,
                    "duration": 0.08333337500000226
                },
                {
                    "name": "D#5",
                    "midi": 75,
                    "time": 41.58335412500004,
                    "velocity": 0.5196850393700787,
                    "duration": 0.08333337500000226
                },
                {
                    "name": "D5",
                    "midi": 74,
                    "time": 41.666687500000045,
                    "velocity": 0.5905511811023622,
                    "duration": 0.08333337500000226
                },
                {
                    "name": "A#4",
                    "midi": 70,
                    "time": 41.75002087500005,
                    "velocity": 0.5433070866141733,
                    "duration": 0.08333337500000226
                },
                {
                    "name": "F5",
                    "midi": 77,
                    "time": 41.91668762500005,
                    "velocity": 0.5669291338582677,
                    "duration": 0.08333337500000226
                },
                {
                    "name": "A#5",
                    "midi": 82,
                    "time": 42.083354375000056,
                    "velocity": 0.44881889763779526,
                    "duration": 0.08333337500000226
                },
                {
                    "name": "E5",
                    "midi": 76,
                    "time": 42.16668775000006,
                    "velocity": 0.5039370078740157,
                    "duration": 0.08333337500000226
                },
                {
                    "name": "F#5",
                    "midi": 78,
                    "time": 42.25002112500006,
                    "velocity": 0.47244094488188976,
                    "duration": 0.08333337500000226
                },
                {
                    "name": "F5",
                    "midi": 77,
                    "time": 42.33335450000006,
                    "velocity": 0.44881889763779526,
                    "duration": 0.08333337500000226
                },
                {
                    "name": "D5",
                    "midi": 74,
                    "time": 42.416687875000065,
                    "velocity": 0.4094488188976378,
                    "duration": 0.08333337500000226
                },
                {
                    "name": "A#5",
                    "midi": 82,
                    "time": 42.58335462500007,
                    "velocity": 0.3543307086614173,
                    "duration": 0.08333337500000226
                },
                {
                    "name": "D#5",
                    "midi": 75,
                    "time": 42.750021375000074,
                    "velocity": 0.2992125984251969,
                    "duration": 0.08333337500000226
                },
                {
                    "name": "G#4",
                    "midi": 68,
                    "time": 42.833354750000076,
                    "velocity": 0.3700787401574803,
                    "duration": 0.08333337500000226
                },
                {
                    "name": "C#5",
                    "midi": 73,
                    "time": 42.91668812500008,
                    "velocity": 0.31496062992125984,
                    "duration": 0.08333337500000226
                },
                {
                    "name": "B4",
                    "midi": 71,
                    "time": 43.00002150000008,
                    "velocity": 0.3700787401574803,
                    "duration": 0.08333337500000226
                },
                {
                    "name": "G#4",
                    "midi": 68,
                    "time": 43.08335487500008,
                    "velocity": 0.31496062992125984,
                    "duration": 0.08333337500000226
                },
                {
                    "name": "D#5",
                    "midi": 75,
                    "time": 43.25002162500009,
                    "velocity": 0.3464566929133858,
                    "duration": 0.08333337500000226
                },
                {
                    "name": "D5",
                    "midi": 74,
                    "time": 43.41668837500009,
                    "velocity": 0.31496062992125984,
                    "duration": 0.08333337500000226
                },
                {
                    "name": "G#4",
                    "midi": 68,
                    "time": 43.500021750000094,
                    "velocity": 0.3779527559055118,
                    "duration": 0.08333337500000226
                },
                {
                    "name": "C#5",
                    "midi": 73,
                    "time": 43.5833551250001,
                    "velocity": 0.31496062992125984,
                    "duration": 0.08333337500000226
                },
                {
                    "name": "B4",
                    "midi": 71,
                    "time": 43.6666885000001,
                    "velocity": 0.36220472440944884,
                    "duration": 0.08333337500000226
                },
                {
                    "name": "G#4",
                    "midi": 68,
                    "time": 43.7500218750001,
                    "velocity": 0.29133858267716534,
                    "duration": 0.08333337500000226
                },
                {
                    "name": "D#5",
                    "midi": 75,
                    "time": 43.916688625000106,
                    "velocity": 0.3464566929133858,
                    "duration": 0.08333337500000226
                },
                {
                    "name": "F5",
                    "midi": 77,
                    "time": 44.08335537500011,
                    "velocity": 0.2992125984251969,
                    "duration": 0.08333337500000226
                },
                {
                    "name": "A#4",
                    "midi": 70,
                    "time": 44.16668875000011,
                    "velocity": 0.3543307086614173,
                    "duration": 0.08333337500000226
                },
                {
                    "name": "D#5",
                    "midi": 75,
                    "time": 44.250022125000115,
                    "velocity": 0.2992125984251969,
                    "duration": 0.08333337500000226
                },
                {
                    "name": "D5",
                    "midi": 74,
                    "time": 44.33335550000012,
                    "velocity": 0.3700787401574803,
                    "duration": 0.08333337500000226
                },
                {
                    "name": "A#4",
                    "midi": 70,
                    "time": 44.41668887500012,
                    "velocity": 0.2992125984251969,
                    "duration": 0.08333337500000226
                },
                {
                    "name": "F5",
                    "midi": 77,
                    "time": 44.583355625000124,
                    "velocity": 0.3464566929133858,
                    "duration": 0.08333337500000226
                },
                {
                    "name": "F#5",
                    "midi": 78,
                    "time": 44.75002237500013,
                    "velocity": 0.2992125984251969,
                    "duration": 0.08333337500000226
                },
                {
                    "name": "A#4",
                    "midi": 70,
                    "time": 44.83335575000013,
                    "velocity": 0.3700787401574803,
                    "duration": 0.08333337500000226
                },
                {
                    "name": "D#5",
                    "midi": 75,
                    "time": 44.91668912500013,
                    "velocity": 0.2992125984251969,
                    "duration": 0.08333337500000226
                },
                {
                    "name": "D5",
                    "midi": 74,
                    "time": 45.000022500000135,
                    "velocity": 0.36220472440944884,
                    "duration": 0.08333337500000226
                },
                {
                    "name": "A#4",
                    "midi": 70,
                    "time": 45.08335587500014,
                    "velocity": 0.2992125984251969,
                    "duration": 0.08333337500000226
                },
                {
                    "name": "F5",
                    "midi": 77,
                    "time": 45.25002262500014,
                    "velocity": 0.3464566929133858,
                    "duration": 0.08333337500000226
                },
                {
                    "name": "D#5",
                    "midi": 75,
                    "time": 45.416689375000146,
                    "velocity": 0.31496062992125984,
                    "duration": 0.08333337500000226
                },
                {
                    "name": "G#4",
                    "midi": 68,
                    "time": 45.50002275000015,
                    "velocity": 0.36220472440944884,
                    "duration": 0.08333337500000226
                },
                {
                    "name": "C#5",
                    "midi": 73,
                    "time": 45.58335612500015,
                    "velocity": 0.31496062992125984,
                    "duration": 0.08333337500000226
                },
                {
                    "name": "B4",
                    "midi": 71,
                    "time": 45.66668950000015,
                    "velocity": 0.3700787401574803,
                    "duration": 0.08333337500000226
                },
                {
                    "name": "G#4",
                    "midi": 68,
                    "time": 45.750022875000155,
                    "velocity": 0.31496062992125984,
                    "duration": 0.08333337500000226
                },
                {
                    "name": "D#5",
                    "midi": 75,
                    "time": 45.91668962500016,
                    "velocity": 0.36220472440944884,
                    "duration": 0.08333337500000226
                },
                {
                    "name": "D5",
                    "midi": 74,
                    "time": 46.083356375000164,
                    "velocity": 0.31496062992125984,
                    "duration": 0.08333337500000226
                },
                {
                    "name": "G#4",
                    "midi": 68,
                    "time": 46.16668975000017,
                    "velocity": 0.36220472440944884,
                    "duration": 0.08333337500000226
                },
                {
                    "name": "C#5",
                    "midi": 73,
                    "time": 46.25002312500017,
                    "velocity": 0.31496062992125984,
                    "duration": 0.08333337500000226
                },
                {
                    "name": "B4",
                    "midi": 71,
                    "time": 46.33335650000017,
                    "velocity": 0.3779527559055118,
                    "duration": 0.08333337500000226
                },
                {
                    "name": "G#4",
                    "midi": 68,
                    "time": 46.41668987500017,
                    "velocity": 0.31496062992125984,
                    "duration": 0.08333337500000226
                },
                {
                    "name": "D#5",
                    "midi": 75,
                    "time": 46.58335662500018,
                    "velocity": 0.3700787401574803,
                    "duration": 0.08333337500000226
                },
                {
                    "name": "F5",
                    "midi": 77,
                    "time": 46.75002337500018,
                    "velocity": 0.3464566929133858,
                    "duration": 0.08333337500000226
                },
                {
                    "name": "A#4",
                    "midi": 70,
                    "time": 46.833356750000185,
                    "velocity": 0.3779527559055118,
                    "duration": 0.08333337500000226
                },
                {
                    "name": "D#5",
                    "midi": 75,
                    "time": 46.91669012500019,
                    "velocity": 0.3543307086614173,
                    "duration": 0.08333337500000226
                },
                {
                    "name": "D5",
                    "midi": 74,
                    "time": 47.00002350000019,
                    "velocity": 0.3937007874015748,
                    "duration": 0.08333337500000226
                },
                {
                    "name": "A#4",
                    "midi": 70,
                    "time": 47.08335687500019,
                    "velocity": 0.3543307086614173,
                    "duration": 0.08333337500000226
                },
                {
                    "name": "F5",
                    "midi": 77,
                    "time": 47.250023625000196,
                    "velocity": 0.3779527559055118,
                    "duration": 0.08333337500000226
                },
                {
                    "name": "F5",
                    "midi": 77,
                    "time": 47.4166903750002,
                    "velocity": 0.3464566929133858,
                    "duration": 0.08333337500000226
                },
                {
                    "name": "C5",
                    "midi": 72,
                    "time": 47.5000237500002,
                    "velocity": 0.4015748031496063,
                    "duration": 0.08333337500000226
                },
                {
                    "name": "D5",
                    "midi": 74,
                    "time": 47.583357125000205,
                    "velocity": 0.3543307086614173,
                    "duration": 0.08333337500000226
                },
                {
                    "name": "C#5",
                    "midi": 73,
                    "time": 47.66669050000021,
                    "velocity": 0.4015748031496063,
                    "duration": 0.08333337500000226
                },
                {
                    "name": "B4",
                    "midi": 71,
                    "time": 47.75002387500021,
                    "velocity": 0.3543307086614173,
                    "duration": 0.08333337500000226
                },
                {
                    "name": "C#5",
                    "midi": 73,
                    "time": 47.916690625000214,
                    "velocity": 0.36220472440944884,
                    "duration": 0.08333337500000226
                },
                {
                    "name": "C#5",
                    "midi": 73,
                    "time": 48.08335737500022,
                    "velocity": 0.3700787401574803,
                    "duration": 0.08333337500000226
                },
                {
                    "name": "G#4",
                    "midi": 68,
                    "time": 48.16669075000022,
                    "velocity": 0.44881889763779526,
                    "duration": 0.08333337500000226
                },
                {
                    "name": "B4",
                    "midi": 71,
                    "time": 48.25002412500022,
                    "velocity": 0.3937007874015748,
                    "duration": 0.08333337500000226
                },
                {
                    "name": "A4",
                    "midi": 69,
                    "time": 48.333357500000226,
                    "velocity": 0.4645669291338583,
                    "duration": 0.08333337500000226
                },
                {
                    "name": "F#4",
                    "midi": 66,
                    "time": 48.41669087500023,
                    "velocity": 0.3937007874015748,
                    "duration": 0.08333337500000226
                },
                {
                    "name": "D5",
                    "midi": 74,
                    "time": 48.58335762500023,
                    "velocity": 0.4330708661417323,
                    "duration": 0.08333337500000226
                },
                {
                    "name": "C#5",
                    "midi": 73,
                    "time": 48.75002437500024,
                    "velocity": 0.3700787401574803,
                    "duration": 0.08333337500000226
                },
                {
                    "name": "G#4",
                    "midi": 68,
                    "time": 48.83335775000024,
                    "velocity": 0.4409448818897638,
                    "duration": 0.08333337500000226
                },
                {
                    "name": "B4",
                    "midi": 71,
                    "time": 48.91669112500024,
                    "velocity": 0.3779527559055118,
                    "duration": 0.08333337500000226
                },
                {
                    "name": "A4",
                    "midi": 69,
                    "time": 49.000024500000244,
                    "velocity": 0.44881889763779526,
                    "duration": 0.08333337500000226
                },
                {
                    "name": "G#4",
                    "midi": 68,
                    "time": 49.083357875000246,
                    "velocity": 0.3700787401574803,
                    "duration": 0.08333337500000226
                },
                {
                    "name": "F#5",
                    "midi": 78,
                    "time": 49.25002462500025,
                    "velocity": 0.4409448818897638,
                    "duration": 0.08333337500000226
                },
                {
                    "name": "F#5",
                    "midi": 78,
                    "time": 49.416691375000255,
                    "velocity": 0.3779527559055118,
                    "duration": 0.08333337500000226
                },
                {
                    "name": "A#4",
                    "midi": 70,
                    "time": 49.50002475000026,
                    "velocity": 0.47244094488188976,
                    "duration": 0.08333337500000226
                },
                {
                    "name": "C#5",
                    "midi": 73,
                    "time": 49.58335812500026,
                    "velocity": 0.3779527559055118,
                    "duration": 0.08333337500000226
                },
                {
                    "name": "B4",
                    "midi": 71,
                    "time": 49.66669150000026,
                    "velocity": 0.48031496062992124,
                    "duration": 0.08333337500000226
                },
                {
                    "name": "G#4",
                    "midi": 68,
                    "time": 49.750024875000264,
                    "velocity": 0.4015748031496063,
                    "duration": 0.08333337500000226
                },
                {
                    "name": "F5",
                    "midi": 77,
                    "time": 49.91669162500027,
                    "velocity": 0.4645669291338583,
                    "duration": 0.08333337500000226
                },
                {
                    "name": "A5",
                    "midi": 81,
                    "time": 50.08335837500027,
                    "velocity": 0.4015748031496063,
                    "duration": 0.08333337500000226
                },
                {
                    "name": "C5",
                    "midi": 72,
                    "time": 50.166691750000275,
                    "velocity": 0.49606299212598426,
                    "duration": 0.08333337500000226
                },
                {
                    "name": "D5",
                    "midi": 74,
                    "time": 50.25002512500028,
                    "velocity": 0.4330708661417323,
                    "duration": 0.08333337500000226
                },
                {
                    "name": "C#5",
                    "midi": 73,
                    "time": 50.33335850000028,
                    "velocity": 0.49606299212598426,
                    "duration": 0.08333337500000226
                },
                {
                    "name": "B4",
                    "midi": 71,
                    "time": 50.41669187500028,
                    "velocity": 0.47244094488188976,
                    "duration": 0.08333337500000226
                },
                {
                    "name": "G#5",
                    "midi": 80,
                    "time": 50.58335862500029,
                    "velocity": 0.47244094488188976,
                    "duration": 0.08333337500000226
                },
                {
                    "name": "C#5",
                    "midi": 73,
                    "time": 50.75002537500029,
                    "velocity": 0.4094488188976378,
                    "duration": 0.08333337500000226
                },
                {
                    "name": "G#4",
                    "midi": 68,
                    "time": 50.83335875000029,
                    "velocity": 0.47244094488188976,
                    "duration": 0.08333337500000226
                },
                {
                    "name": "B4",
                    "midi": 71,
                    "time": 50.916692125000296,
                    "velocity": 0.4015748031496063,
                    "duration": 0.08333337500000226
                },
                {
                    "name": "A4",
                    "midi": 69,
                    "time": 51.0000255000003,
                    "velocity": 0.48031496062992124,
                    "duration": 0.08333337500000226
                },
                {
                    "name": "F#4",
                    "midi": 66,
                    "time": 51.0833588750003,
                    "velocity": 0.4015748031496063,
                    "duration": 0.08333337500000226
                },
                {
                    "name": "D5",
                    "midi": 74,
                    "time": 51.250025625000305,
                    "velocity": 0.47244094488188976,
                    "duration": 0.08333337500000226
                },
                {
                    "name": "C#5",
                    "midi": 73,
                    "time": 51.41669237500031,
                    "velocity": 0.4330708661417323,
                    "duration": 0.08333337500000226
                },
                {
                    "name": "G#4",
                    "midi": 68,
                    "time": 51.50002575000031,
                    "velocity": 0.49606299212598426,
                    "duration": 0.08333337500000226
                },
                {
                    "name": "B4",
                    "midi": 71,
                    "time": 51.583359125000314,
                    "velocity": 0.4094488188976378,
                    "duration": 0.08333337500000226
                },
                {
                    "name": "A4",
                    "midi": 69,
                    "time": 51.666692500000316,
                    "velocity": 0.49606299212598426,
                    "duration": 0.08333337500000226
                },
                {
                    "name": "G#4",
                    "midi": 68,
                    "time": 51.75002587500032,
                    "velocity": 0.4094488188976378,
                    "duration": 0.08333337500000226
                },
                {
                    "name": "A5",
                    "midi": 81,
                    "time": 51.91669262500032,
                    "velocity": 0.4881889763779528,
                    "duration": 0.08333337500000226
                },
                {
                    "name": "A5",
                    "midi": 81,
                    "time": 52.08335937500033,
                    "velocity": 0.4409448818897638,
                    "duration": 0.08333337500000226
                },
                {
                    "name": "C#5",
                    "midi": 73,
                    "time": 52.16669275000033,
                    "velocity": 0.5039370078740157,
                    "duration": 0.08333337500000226
                },
                {
                    "name": "E5",
                    "midi": 76,
                    "time": 52.25002612500033,
                    "velocity": 0.4094488188976378,
                    "duration": 0.08333337500000226
                },
                {
                    "name": "D5",
                    "midi": 74,
                    "time": 52.333359500000334,
                    "velocity": 0.5039370078740157,
                    "duration": 0.08333337500000226
                },
                {
                    "name": "B4",
                    "midi": 71,
                    "time": 52.41669287500034,
                    "velocity": 0.4330708661417323,
                    "duration": 0.08333337500000226
                },
                {
                    "name": "G#5",
                    "midi": 80,
                    "time": 52.58335962500034,
                    "velocity": 0.4881889763779528,
                    "duration": 0.08333337500000226
                },
                {
                    "name": "C#6",
                    "midi": 85,
                    "time": 52.750026375000346,
                    "velocity": 0.4409448818897638,
                    "duration": 0.08333337500000226
                },
                {
                    "name": "D#5",
                    "midi": 75,
                    "time": 52.83335975000035,
                    "velocity": 0.5196850393700787,
                    "duration": 0.08333337500000226
                },
                {
                    "name": "F#5",
                    "midi": 78,
                    "time": 52.91669312500035,
                    "velocity": 0.4645669291338583,
                    "duration": 0.08333337500000226
                },
                {
                    "name": "E5",
                    "midi": 76,
                    "time": 53.00002650000035,
                    "velocity": 0.5433070866141733,
                    "duration": 0.08333337500000226
                },
                {
                    "name": "D5",
                    "midi": 74,
                    "time": 53.083359875000355,
                    "velocity": 0.4645669291338583,
                    "duration": 0.08333337500000226
                },
                {
                    "name": "B5",
                    "midi": 83,
                    "time": 53.25002662500036,
                    "velocity": 0.5433070866141733,
                    "duration": 0.08333337500000226
                },
                {
                    "name": "B5",
                    "midi": 83,
                    "time": 53.416693375000364,
                    "velocity": 0.48031496062992124,
                    "duration": 0.08333337500000226
                },
                {
                    "name": "D#5",
                    "midi": 75,
                    "time": 53.500026750000366,
                    "velocity": 0.5511811023622047,
                    "duration": 0.08333337500000226
                },
                {
                    "name": "F#5",
                    "midi": 78,
                    "time": 53.58336012500037,
                    "velocity": 0.47244094488188976,
                    "duration": 0.08333337500000226
                },
                {
                    "name": "E5",
                    "midi": 76,
                    "time": 53.66669350000037,
                    "velocity": 0.5511811023622047,
                    "duration": 0.08333337500000226
                },
                {
                    "name": "C#5",
                    "midi": 73,
                    "time": 53.75002687500037,
                    "velocity": 0.47244094488188976,
                    "duration": 0.08333337500000226
                },
                {
                    "name": "A#5",
                    "midi": 82,
                    "time": 53.91669362500038,
                    "velocity": 0.5590551181102362,
                    "duration": 0.08333337500000226
                },
                {
                    "name": "D6",
                    "midi": 86,
                    "time": 54.08336037500038,
                    "velocity": 0.4881889763779528,
                    "duration": 0.08333337500000226
                },
                {
                    "name": "F5",
                    "midi": 77,
                    "time": 54.166693750000384,
                    "velocity": 0.5590551181102362,
                    "duration": 0.08333337500000226
                },
                {
                    "name": "G5",
                    "midi": 79,
                    "time": 54.250027125000386,
                    "velocity": 0.49606299212598426,
                    "duration": 0.08333337500000226
                },
                {
                    "name": "F#5",
                    "midi": 78,
                    "time": 54.33336050000039,
                    "velocity": 0.5590551181102362,
                    "duration": 0.08333337500000226
                },
                {
                    "name": "E5",
                    "midi": 76,
                    "time": 54.41669387500039,
                    "velocity": 0.49606299212598426,
                    "duration": 0.08333337500000226
                },
                {
                    "name": "C#6",
                    "midi": 85,
                    "time": 54.583360625000395,
                    "velocity": 0.5669291338582677,
                    "duration": 0.08333337500000226
                },
                {
                    "name": "C#6",
                    "midi": 85,
                    "time": 54.7500273750004,
                    "velocity": 0.49606299212598426,
                    "duration": 0.08333337500000226
                },
                {
                    "name": "F5",
                    "midi": 77,
                    "time": 54.8333607500004,
                    "velocity": 0.5748031496062992,
                    "duration": 0.08333337500000226
                },
                {
                    "name": "G#5",
                    "midi": 80,
                    "time": 54.916694125000404,
                    "velocity": 0.5196850393700787,
                    "duration": 0.08333337500000226
                },
                {
                    "name": "F#5",
                    "midi": 78,
                    "time": 55.00002750000041,
                    "velocity": 0.5748031496062992,
                    "duration": 0.08333337500000226
                },
                {
                    "name": "D#5",
                    "midi": 75,
                    "time": 55.08336087500041,
                    "velocity": 0.49606299212598426,
                    "duration": 0.08333337500000226
                },
                {
                    "name": "C6",
                    "midi": 84,
                    "time": 55.25002762500041,
                    "velocity": 0.5748031496062992,
                    "duration": 0.08333337500000226
                },
                {
                    "name": "F6",
                    "midi": 89,
                    "time": 55.41669437500042,
                    "velocity": 0.5039370078740157,
                    "duration": 0.08333337500000226
                },
                {
                    "name": "G#5",
                    "midi": 80,
                    "time": 55.50002775000042,
                    "velocity": 0.5905511811023622,
                    "duration": 0.08333337500000226
                },
                {
                    "name": "B5",
                    "midi": 83,
                    "time": 55.58336112500042,
                    "velocity": 0.5433070866141733,
                    "duration": 0.08333337500000226
                },
                {
                    "name": "A5",
                    "midi": 81,
                    "time": 55.666694500000425,
                    "velocity": 0.5905511811023622,
                    "duration": 0.08333337500000226
                },
                {
                    "name": "G#5",
                    "midi": 80,
                    "time": 55.75002787500043,
                    "velocity": 0.5433070866141733,
                    "duration": 0.08333337500000226
                },
                {
                    "name": "F#6",
                    "midi": 90,
                    "time": 55.91669462500043,
                    "velocity": 0.6062992125984252,
                    "duration": 0.08333337500000226
                },
                {
                    "name": "G#6",
                    "midi": 92,
                    "time": 56.083361375000436,
                    "velocity": 0.5511811023622047,
                    "duration": 0.08333337500000226
                },
                {
                    "name": "D6",
                    "midi": 86,
                    "time": 56.16669475000044,
                    "velocity": 0.6377952755905512,
                    "duration": 0.08333337500000226
                },
                {
                    "name": "F6",
                    "midi": 89,
                    "time": 56.25002812500044,
                    "velocity": 0.5590551181102362,
                    "duration": 0.08333337500000226
                },
                {
                    "name": "D#6",
                    "midi": 87,
                    "time": 56.33336150000044,
                    "velocity": 0.6141732283464567,
                    "duration": 0.08333337500000226
                },
                {
                    "name": "C6",
                    "midi": 84,
                    "time": 56.416694875000445,
                    "velocity": 0.5669291338582677,
                    "duration": 0.08333337500000226
                },
                {
                    "name": "A6",
                    "midi": 93,
                    "time": 56.58336162500045,
                    "velocity": 0.6062992125984252,
                    "duration": 0.08333337500000226
                },
                {
                    "name": "G#6",
                    "midi": 92,
                    "time": 56.750028375000454,
                    "velocity": 0.5590551181102362,
                    "duration": 0.08333337500000226
                },
                {
                    "name": "D6",
                    "midi": 86,
                    "time": 56.833361750000456,
                    "velocity": 0.6062992125984252,
                    "duration": 0.08333337500000226
                },
                {
                    "name": "F6",
                    "midi": 89,
                    "time": 56.91669512500046,
                    "velocity": 0.5905511811023622,
                    "duration": 0.08333337500000226
                },
                {
                    "name": "D#6",
                    "midi": 87,
                    "time": 57.00002850000046,
                    "velocity": 0.5590551181102362,
                    "duration": 0.08333337500000226
                },
                {
                    "name": "C6",
                    "midi": 84,
                    "time": 57.08336187500046,
                    "velocity": 0.5433070866141733,
                    "duration": 0.08333337500000226
                },
                {
                    "name": "A6",
                    "midi": 93,
                    "time": 57.25002862500047,
                    "velocity": 0.6062992125984252,
                    "duration": 0.08333337500000226
                },
                {
                    "name": "G#6",
                    "midi": 92,
                    "time": 57.41669537500047,
                    "velocity": 0.5511811023622047,
                    "duration": 0.08333337500000226
                },
                {
                    "name": "C#6",
                    "midi": 85,
                    "time": 57.500028750000475,
                    "velocity": 0.6062992125984252,
                    "duration": 0.08333337500000226
                },
                {
                    "name": "E6",
                    "midi": 88,
                    "time": 57.58336212500048,
                    "velocity": 0.5669291338582677,
                    "duration": 0.08333337500000226
                },
                {
                    "name": "D6",
                    "midi": 86,
                    "time": 57.66669550000048,
                    "velocity": 0.6141732283464567,
                    "duration": 0.08333337500000226
                },
                {
                    "name": "C6",
                    "midi": 84,
                    "time": 57.75002887500048,
                    "velocity": 0.5590551181102362,
                    "duration": 0.08333337500000226
                },
                {
                    "name": "A6",
                    "midi": 93,
                    "time": 57.916695625000486,
                    "velocity": 0.6062992125984252,
                    "duration": 0.08333337500000226
                },
                {
                    "name": "G#6",
                    "midi": 92,
                    "time": 58.08336237500049,
                    "velocity": 0.5905511811023622,
                    "duration": 0.08333337500000226
                },
                {
                    "name": "C#6",
                    "midi": 85,
                    "time": 58.16669575000049,
                    "velocity": 0.6456692913385826,
                    "duration": 0.08333337500000226
                },
                {
                    "name": "E6",
                    "midi": 88,
                    "time": 58.250029125000495,
                    "velocity": 0.5905511811023622,
                    "duration": 0.08333337500000226
                },
                {
                    "name": "D6",
                    "midi": 86,
                    "time": 58.3333625000005,
                    "velocity": 0.6141732283464567,
                    "duration": 0.08333337500000226
                },
                {
                    "name": "C6",
                    "midi": 84,
                    "time": 58.4166958750005,
                    "velocity": 0.5590551181102362,
                    "duration": 0.08333337500000226
                },
                {
                    "name": "A6",
                    "midi": 93,
                    "time": 58.583362625000504,
                    "velocity": 0.6062992125984252,
                    "duration": 0.08333337500000226
                },
                {
                    "name": "A6",
                    "midi": 93,
                    "time": 58.75002937500051,
                    "velocity": 0.5511811023622047,
                    "duration": 0.08333337500000226
                },
                {
                    "name": "F6",
                    "midi": 89,
                    "time": 58.83336275000051,
                    "velocity": 0.6062992125984252,
                    "duration": 0.08333337500000226
                },
                {
                    "name": "G#6",
                    "midi": 92,
                    "time": 58.91669612500051,
                    "velocity": 0.5511811023622047,
                    "duration": 0.08333337500000226
                },
                {
                    "name": "F#6",
                    "midi": 90,
                    "time": 59.000029500000515,
                    "velocity": 0.6062992125984252,
                    "duration": 0.08333337500000226
                },
                {
                    "name": "C#6",
                    "midi": 85,
                    "time": 59.08336287500052,
                    "velocity": 0.5196850393700787,
                    "duration": 0.08333337500000226
                },
                {
                    "name": "A6",
                    "midi": 93,
                    "time": 59.25002962500052,
                    "velocity": 0.5511811023622047,
                    "duration": 0.08333337500000226
                },
                {
                    "name": "G#6",
                    "midi": 92,
                    "time": 59.41669637500053,
                    "velocity": 0.5433070866141733,
                    "duration": 0.08333337500000226
                },
                {
                    "name": "D#6",
                    "midi": 87,
                    "time": 59.50002975000053,
                    "velocity": 0.6141732283464567,
                    "duration": 0.08333337500000226
                },
                {
                    "name": "F#6",
                    "midi": 90,
                    "time": 59.58336312500053,
                    "velocity": 0.5590551181102362,
                    "duration": 0.08333337500000226
                },
                {
                    "name": "E6",
                    "midi": 88,
                    "time": 59.66669650000053,
                    "velocity": 0.6062992125984252,
                    "duration": 0.08333337500000226
                },
                {
                    "name": "C#6",
                    "midi": 85,
                    "time": 59.750029875000536,
                    "velocity": 0.5433070866141733,
                    "duration": 0.08333337500000226
                },
                {
                    "name": "G#6",
                    "midi": 92,
                    "time": 59.91669662500054,
                    "velocity": 0.5669291338582677,
                    "duration": 0.08333337500000226
                },
                {
                    "name": "E6",
                    "midi": 88,
                    "time": 60.083363375000545,
                    "velocity": 0.5039370078740157,
                    "duration": 0.08333337500000226
                },
                {
                    "name": "B5",
                    "midi": 83,
                    "time": 60.16669675000055,
                    "velocity": 0.5748031496062992,
                    "duration": 0.08333337500000226
                },
                {
                    "name": "D6",
                    "midi": 86,
                    "time": 60.25003012500055,
                    "velocity": 0.5196850393700787,
                    "duration": 0.08333337500000226
                },
                {
                    "name": "C#6",
                    "midi": 85,
                    "time": 60.33336350000055,
                    "velocity": 0.5590551181102362,
                    "duration": 0.08333337500000226
                },
                {
                    "name": "A5",
                    "midi": 81,
                    "time": 60.416696875000554,
                    "velocity": 0.49606299212598426,
                    "duration": 0.08333337500000226
                },
                {
                    "name": "E6",
                    "midi": 88,
                    "time": 60.58336362500056,
                    "velocity": 0.5590551181102362,
                    "duration": 0.08333337500000226
                },
                {
                    "name": "C#6",
                    "midi": 85,
                    "time": 60.75003037500056,
                    "velocity": 0.5039370078740157,
                    "duration": 0.08333337500000226
                },
                {
                    "name": "G#5",
                    "midi": 80,
                    "time": 60.833363750000565,
                    "velocity": 0.5590551181102362,
                    "duration": 0.08333337500000226
                },
                {
                    "name": "B5",
                    "midi": 83,
                    "time": 60.91669712500057,
                    "velocity": 0.5039370078740157,
                    "duration": 0.08333337500000226
                },
                {
                    "name": "A5",
                    "midi": 81,
                    "time": 61.00003050000057,
                    "velocity": 0.5511811023622047,
                    "duration": 0.08333337500000226
                },
                {
                    "name": "F#5",
                    "midi": 78,
                    "time": 61.08336387500057,
                    "velocity": 0.4881889763779528,
                    "duration": 0.08333337500000226
                },
                {
                    "name": "C#6",
                    "midi": 85,
                    "time": 61.250030625000576,
                    "velocity": 0.49606299212598426,
                    "duration": 0.08333337500000226
                },
                {
                    "name": "G#5",
                    "midi": 80,
                    "time": 61.41669737500058,
                    "velocity": 0.4645669291338583,
                    "duration": 0.08333337500000226
                },
                {
                    "name": "D#5",
                    "midi": 75,
                    "time": 61.50003075000058,
                    "velocity": 0.5433070866141733,
                    "duration": 0.08333337500000226
                },
                {
                    "name": "F#5",
                    "midi": 78,
                    "time": 61.583364125000585,
                    "velocity": 0.48031496062992124,
                    "duration": 0.08333337500000226
                },
                {
                    "name": "E5",
                    "midi": 76,
                    "time": 61.66669750000059,
                    "velocity": 0.5196850393700787,
                    "duration": 0.08333337500000226
                },
                {
                    "name": "C#5",
                    "midi": 73,
                    "time": 61.75003087500059,
                    "velocity": 0.4881889763779528,
                    "duration": 0.08333337500000226
                },
                {
                    "name": "G#5",
                    "midi": 80,
                    "time": 61.916697625000594,
                    "velocity": 0.4881889763779528,
                    "duration": 0.08333337500000226
                },
                {
                    "name": "F#5",
                    "midi": 78,
                    "time": 62.0833643750006,
                    "velocity": 0.44881889763779526,
                    "duration": 0.08333337500000226
                },
                {
                    "name": "C#5",
                    "midi": 73,
                    "time": 62.1666977500006,
                    "velocity": 0.5039370078740157,
                    "duration": 0.08333337500000226
                },
                {
                    "name": "E5",
                    "midi": 76,
                    "time": 62.2500311250006,
                    "velocity": 0.44881889763779526,
                    "duration": 0.08333337500000226
                },
                {
                    "name": "D5",
                    "midi": 74,
                    "time": 62.333364500000606,
                    "velocity": 0.5039370078740157,
                    "duration": 0.08333337500000226
                },
                {
                    "name": "A4",
                    "midi": 69,
                    "time": 62.41669787500061,
                    "velocity": 0.4094488188976378,
                    "duration": 0.08333337500000226
                },
                {
                    "name": "F#5",
                    "midi": 78,
                    "time": 62.58336462500061,
                    "velocity": 0.48031496062992124,
                    "duration": 0.08333337500000226
                },
                {
                    "name": "E5",
                    "midi": 76,
                    "time": 62.75003137500062,
                    "velocity": 0.4330708661417323,
                    "duration": 0.08333337500000226
                },
                {
                    "name": "B4",
                    "midi": 71,
                    "time": 62.83336475000062,
                    "velocity": 0.5039370078740157,
                    "duration": 0.08333337500000226
                },
                {
                    "name": "D5",
                    "midi": 74,
                    "time": 62.91669812500062,
                    "velocity": 0.4645669291338583,
                    "duration": 0.08333337500000226
                },
                {
                    "name": "C#5",
                    "midi": 73,
                    "time": 63.000031500000624,
                    "velocity": 0.49606299212598426,
                    "duration": 0.08333337500000226
                },
                {
                    "name": "A4",
                    "midi": 69,
                    "time": 63.083364875000626,
                    "velocity": 0.4409448818897638,
                    "duration": 0.08333337500000226
                },
                {
                    "name": "E5",
                    "midi": 76,
                    "time": 63.25003162500063,
                    "velocity": 0.47244094488188976,
                    "duration": 0.08333337500000226
                },
                {
                    "name": "D5",
                    "midi": 74,
                    "time": 63.416698375000635,
                    "velocity": 0.4094488188976378,
                    "duration": 0.08333337500000226
                },
                {
                    "name": "A4",
                    "midi": 69,
                    "time": 63.50003175000064,
                    "velocity": 0.4881889763779528,
                    "duration": 0.08333337500000226
                },
                {
                    "name": "C#5",
                    "midi": 73,
                    "time": 63.58336512500064,
                    "velocity": 0.4094488188976378,
                    "duration": 0.08333337500000226
                },
                {
                    "name": "B4",
                    "midi": 71,
                    "time": 63.66669850000064,
                    "velocity": 0.48031496062992124,
                    "duration": 0.08333337500000226
                },
                {
                    "name": "G4",
                    "midi": 67,
                    "time": 63.750031875000644,
                    "velocity": 0.4330708661417323,
                    "duration": 0.08333337500000226
                },
                {
                    "name": "D5",
                    "midi": 74,
                    "time": 63.91669862500065,
                    "velocity": 0.47244094488188976,
                    "duration": 0.08333337499999516
                },
                {
                    "name": "C#5",
                    "midi": 73,
                    "time": 64.08336537500064,
                    "velocity": 0.47244094488188976,
                    "duration": 0.08333337499999516
                },
                {
                    "name": "G#4",
                    "midi": 68,
                    "time": 64.16669875000063,
                    "velocity": 0.5511811023622047,
                    "duration": 0.08333337499999516
                },
                {
                    "name": "B4",
                    "midi": 71,
                    "time": 64.25003212500063,
                    "velocity": 0.4645669291338583,
                    "duration": 0.08333337499999516
                },
                {
                    "name": "A4",
                    "midi": 69,
                    "time": 64.33336550000062,
                    "velocity": 0.5039370078740157,
                    "duration": 0.08333337499999516
                },
                {
                    "name": "F#4",
                    "midi": 66,
                    "time": 64.41669887500062,
                    "velocity": 0.48031496062992124,
                    "duration": 0.08333337499999516
                },
                {
                    "name": "C#5",
                    "midi": 73,
                    "time": 64.58336562500061,
                    "velocity": 0.47244094488188976,
                    "duration": 0.08333337499999516
                },
                {
                    "name": "C#5",
                    "midi": 73,
                    "time": 64.7500323750006,
                    "velocity": 0.4015748031496063,
                    "duration": 0.08333337499999516
                },
                {
                    "name": "G#4",
                    "midi": 68,
                    "time": 64.8333657500006,
                    "velocity": 0.47244094488188976,
                    "duration": 0.08333337499999516
                },
                {
                    "name": "B4",
                    "midi": 71,
                    "time": 64.91669912500059,
                    "velocity": 0.4015748031496063,
                    "duration": 0.08333337499999516
                },
                {
                    "name": "A4",
                    "midi": 69,
                    "time": 65.00003250000059,
                    "velocity": 0.4645669291338583,
                    "duration": 0.08333337499999516
                },
                {
                    "name": "F#4",
                    "midi": 66,
                    "time": 65.08336587500058,
                    "velocity": 0.4015748031496063,
                    "duration": 0.08333337499999516
                },
                {
                    "name": "C#5",
                    "midi": 73,
                    "time": 65.25003262500057,
                    "velocity": 0.44881889763779526,
                    "duration": 0.08333337499999516
                },
                {
                    "name": "C#5",
                    "midi": 73,
                    "time": 65.41669937500056,
                    "velocity": 0.4094488188976378,
                    "duration": 0.08333337499999516
                },
                {
                    "name": "G#4",
                    "midi": 68,
                    "time": 65.50003275000056,
                    "velocity": 0.4881889763779528,
                    "duration": 0.08333337499999516
                },
                {
                    "name": "B4",
                    "midi": 71,
                    "time": 65.58336612500055,
                    "velocity": 0.4094488188976378,
                    "duration": 0.08333337499999516
                },
                {
                    "name": "A4",
                    "midi": 69,
                    "time": 65.66669950000055,
                    "velocity": 0.47244094488188976,
                    "duration": 0.08333337499999516
                },
                {
                    "name": "F#4",
                    "midi": 66,
                    "time": 65.75003287500054,
                    "velocity": 0.4094488188976378,
                    "duration": 0.08333337499999516
                },
                {
                    "name": "C#5",
                    "midi": 73,
                    "time": 65.91669962500053,
                    "velocity": 0.4409448818897638,
                    "duration": 0.08333337499999516
                },
                {
                    "name": "C#5",
                    "midi": 73,
                    "time": 66.08336637500052,
                    "velocity": 0.4015748031496063,
                    "duration": 0.08333337499999516
                },
                {
                    "name": "G#4",
                    "midi": 68,
                    "time": 66.16669975000052,
                    "velocity": 0.47244094488188976,
                    "duration": 0.08333337499999516
                },
                {
                    "name": "B4",
                    "midi": 71,
                    "time": 66.25003312500051,
                    "velocity": 0.4094488188976378,
                    "duration": 0.08333337499999516
                },
                {
                    "name": "A4",
                    "midi": 69,
                    "time": 66.33336650000051,
                    "velocity": 0.4645669291338583,
                    "duration": 0.08333337499999516
                },
                {
                    "name": "F#4",
                    "midi": 66,
                    "time": 66.4166998750005,
                    "velocity": 0.3779527559055118,
                    "duration": 0.08333337499999516
                },
                {
                    "name": "C#5",
                    "midi": 73,
                    "time": 66.5833666250005,
                    "velocity": 0.4330708661417323,
                    "duration": 0.08333337499999516
                },
                {
                    "name": "C#5",
                    "midi": 73,
                    "time": 66.75003337500048,
                    "velocity": 0.3779527559055118,
                    "duration": 0.08333337499999516
                },
                {
                    "name": "G4",
                    "midi": 67,
                    "time": 66.83336675000048,
                    "velocity": 0.47244094488188976,
                    "duration": 0.08333337499999516
                },
                {
                    "name": "A4",
                    "midi": 69,
                    "time": 66.91670012500047,
                    "velocity": 0.3700787401574803,
                    "duration": 0.08333337499999516
                },
                {
                    "name": "G#4",
                    "midi": 68,
                    "time": 67.00003350000047,
                    "velocity": 0.4330708661417323,
                    "duration": 0.08333337499999516
                },
                {
                    "name": "F#4",
                    "midi": 66,
                    "time": 67.08336687500046,
                    "velocity": 0.3700787401574803,
                    "duration": 0.08333337499999516
                },
                {
                    "name": "C#5",
                    "midi": 73,
                    "time": 67.25003362500046,
                    "velocity": 0.4015748031496063,
                    "duration": 0.08333337499999516
                },
                {
                    "name": "C#5",
                    "midi": 73,
                    "time": 67.41670037500045,
                    "velocity": 0.3937007874015748,
                    "duration": 0.08333337499999516
                },
                {
                    "name": "G4",
                    "midi": 67,
                    "time": 67.50003375000044,
                    "velocity": 0.44881889763779526,
                    "duration": 0.08333337499999516
                },
                {
                    "name": "A4",
                    "midi": 69,
                    "time": 67.58336712500044,
                    "velocity": 0.3779527559055118,
                    "duration": 0.08333337499999516
                },
                {
                    "name": "G#4",
                    "midi": 68,
                    "time": 67.66670050000043,
                    "velocity": 0.4330708661417323,
                    "duration": 0.08333337499999516
                },
                {
                    "name": "F#4",
                    "midi": 66,
                    "time": 67.75003387500043,
                    "velocity": 0.36220472440944884,
                    "duration": 0.08333337499999516
                },
                {
                    "name": "C#5",
                    "midi": 73,
                    "time": 67.91670062500042,
                    "velocity": 0.3937007874015748,
                    "duration": 0.08333337499999516
                },
                {
                    "name": "C#5",
                    "midi": 73,
                    "time": 68.0833673750004,
                    "velocity": 0.3543307086614173,
                    "duration": 0.08333337499999516
                },
                {
                    "name": "G4",
                    "midi": 67,
                    "time": 68.1667007500004,
                    "velocity": 0.3937007874015748,
                    "duration": 0.08333337499999516
                },
                {
                    "name": "A4",
                    "midi": 69,
                    "time": 68.2500341250004,
                    "velocity": 0.33070866141732286,
                    "duration": 0.08333337499999516
                },
                {
                    "name": "G#4",
                    "midi": 68,
                    "time": 68.33336750000039,
                    "velocity": 0.3779527559055118,
                    "duration": 0.08333337499999516
                },
                {
                    "name": "F4",
                    "midi": 65,
                    "time": 68.41670087500039,
                    "velocity": 0.33070866141732286,
                    "duration": 0.08333337499999516
                },
                {
                    "name": "C#5",
                    "midi": 73,
                    "time": 68.58336762500038,
                    "velocity": 0.36220472440944884,
                    "duration": 0.08333337499999516
                },
                {
                    "name": "C#5",
                    "midi": 73,
                    "time": 68.75003437500037,
                    "velocity": 0.2992125984251969,
                    "duration": 0.08333337499999516
                },
                {
                    "name": "G4",
                    "midi": 67,
                    "time": 68.83336775000036,
                    "velocity": 0.3464566929133858,
                    "duration": 0.08333337499999516
                },
                {
                    "name": "A4",
                    "midi": 69,
                    "time": 68.91670112500036,
                    "velocity": 0.28346456692913385,
                    "duration": 0.08333337499999516
                },
                {
                    "name": "G#4",
                    "midi": 68,
                    "time": 69.00003450000035,
                    "velocity": 0.3464566929133858,
                    "duration": 0.08333337499999516
                },
                {
                    "name": "F4",
                    "midi": 65,
                    "time": 69.08336787500035,
                    "velocity": 0.2992125984251969,
                    "duration": 0.08333337499999516
                },
                {
                    "name": "C#5",
                    "midi": 73,
                    "time": 69.25003462500034,
                    "velocity": 0.2992125984251969,
                    "duration": 0.08333337499999516
                },
                {
                    "name": "C#5",
                    "midi": 73,
                    "time": 69.41670137500033,
                    "velocity": 0.2755905511811024,
                    "duration": 0.08333337499999516
                },
                {
                    "name": "G#4",
                    "midi": 68,
                    "time": 69.50003475000032,
                    "velocity": 0.31496062992125984,
                    "duration": 0.08333337499999516
                },
                {
                    "name": "B4",
                    "midi": 71,
                    "time": 69.58336812500032,
                    "velocity": 0.2755905511811024,
                    "duration": 0.08333337499999516
                },
                {
                    "name": "A4",
                    "midi": 69,
                    "time": 69.66670150000031,
                    "velocity": 0.31496062992125984,
                    "duration": 0.08333337499999516
                },
                {
                    "name": "F#4",
                    "midi": 66,
                    "time": 69.75003487500031,
                    "velocity": 0.2755905511811024,
                    "duration": 0.08333337499999516
                },
                {
                    "name": "C#5",
                    "midi": 73,
                    "time": 69.9167016250003,
                    "velocity": 0.2992125984251969,
                    "duration": 0.08333337499999516
                },
                {
                    "name": "C#5",
                    "midi": 73,
                    "time": 70.08336837500029,
                    "velocity": 0.2677165354330709,
                    "duration": 0.08333337499999516
                },
                {
                    "name": "G#4",
                    "midi": 68,
                    "time": 70.16670175000029,
                    "velocity": 0.29133858267716534,
                    "duration": 0.08333337499999516
                },
                {
                    "name": "B4",
                    "midi": 71,
                    "time": 70.25003512500028,
                    "velocity": 0.2440944881889764,
                    "duration": 0.08333337499999516
                },
                {
                    "name": "A4",
                    "midi": 69,
                    "time": 70.33336850000028,
                    "velocity": 0.29133858267716534,
                    "duration": 0.08333337499999516
                },
                {
                    "name": "F#4",
                    "midi": 66,
                    "time": 70.41670187500027,
                    "velocity": 0.23622047244094488,
                    "duration": 0.08333337499999516
                },
                {
                    "name": "C#5",
                    "midi": 73,
                    "time": 70.58336862500026,
                    "velocity": 0.29133858267716534,
                    "duration": 0.08333337499999516
                },
                {
                    "name": "C#5",
                    "midi": 73,
                    "time": 70.75003537500025,
                    "velocity": 0.2440944881889764,
                    "duration": 0.08333337499999516
                },
                {
                    "name": "G#4",
                    "midi": 68,
                    "time": 70.83336875000025,
                    "velocity": 0.29133858267716534,
                    "duration": 0.08333337499999516
                },
                {
                    "name": "B4",
                    "midi": 71,
                    "time": 70.91670212500024,
                    "velocity": 0.2440944881889764,
                    "duration": 0.08333337499999516
                },
                {
                    "name": "A4",
                    "midi": 69,
                    "time": 71.00003550000024,
                    "velocity": 0.29133858267716534,
                    "duration": 0.08333337499999516
                },
                {
                    "name": "F#4",
                    "midi": 66,
                    "time": 71.08336887500023,
                    "velocity": 0.28346456692913385,
                    "duration": 0.08333337499999516
                },
                {
                    "name": "C#5",
                    "midi": 73,
                    "time": 71.25003562500022,
                    "velocity": 0.2992125984251969,
                    "duration": 0.08333337499999516
                },
                {
                    "name": "C#5",
                    "midi": 73,
                    "time": 71.41670237500021,
                    "velocity": 0.2677165354330709,
                    "duration": 0.08333337499999516
                },
                {
                    "name": "G#4",
                    "midi": 68,
                    "time": 71.50003575000021,
                    "velocity": 0.2992125984251969,
                    "duration": 0.08333337499999516
                },
                {
                    "name": "B4",
                    "midi": 71,
                    "time": 71.5833691250002,
                    "velocity": 0.2677165354330709,
                    "duration": 0.08333337499999516
                },
                {
                    "name": "A4",
                    "midi": 69,
                    "time": 71.6667025000002,
                    "velocity": 0.2992125984251969,
                    "duration": 0.08333337499999516
                },
                {
                    "name": "F#4",
                    "midi": 66,
                    "time": 71.7500358750002,
                    "velocity": 0.2677165354330709,
                    "duration": 0.08333337499999516
                },
                {
                    "name": "C#5",
                    "midi": 73,
                    "time": 71.91670262500018,
                    "velocity": 0.2992125984251969,
                    "duration": 0.08333337499999516
                },
                {
                    "name": "D5",
                    "midi": 74,
                    "time": 72.08336937500017,
                    "velocity": 0.2677165354330709,
                    "duration": 0.08333337499999516
                },
                {
                    "name": "A#4",
                    "midi": 70,
                    "time": 72.16670275000017,
                    "velocity": 0.29133858267716534,
                    "duration": 0.08333337499999516
                },
                {
                    "name": "C#5",
                    "midi": 73,
                    "time": 72.25003612500016,
                    "velocity": 0.2440944881889764,
                    "duration": 0.08333337499999516
                },
                {
                    "name": "B4",
                    "midi": 71,
                    "time": 72.33336950000016,
                    "velocity": 0.29133858267716534,
                    "duration": 0.08333337499999516
                },
                {
                    "name": "F#4",
                    "midi": 66,
                    "time": 72.41670287500015,
                    "velocity": 0.2440944881889764,
                    "duration": 0.08333337499999516
                },
                {
                    "name": "D5",
                    "midi": 74,
                    "time": 72.58336962500015,
                    "velocity": 0.2992125984251969,
                    "duration": 0.08333337499999516
                },
                {
                    "name": "D5",
                    "midi": 74,
                    "time": 72.75003637500014,
                    "velocity": 0.2677165354330709,
                    "duration": 0.08333337499999516
                },
                {
                    "name": "A#4",
                    "midi": 70,
                    "time": 72.83336975000013,
                    "velocity": 0.2992125984251969,
                    "duration": 0.08333337499999516
                },
                {
                    "name": "C#5",
                    "midi": 73,
                    "time": 72.91670312500013,
                    "velocity": 0.2677165354330709,
                    "duration": 0.08333337499999516
                },
                {
                    "name": "B4",
                    "midi": 71,
                    "time": 73.00003650000012,
                    "velocity": 0.31496062992125984,
                    "duration": 0.08333337499999516
                },
                {
                    "name": "F#4",
                    "midi": 66,
                    "time": 73.08336987500012,
                    "velocity": 0.2755905511811024,
                    "duration": 0.08333337499999516
                },
                {
                    "name": "D5",
                    "midi": 74,
                    "time": 73.2500366250001,
                    "velocity": 0.33070866141732286,
                    "duration": 0.08333337499999516
                },
                {
                    "name": "D5",
                    "midi": 74,
                    "time": 73.4167033750001,
                    "velocity": 0.29133858267716534,
                    "duration": 0.08333337499999516
                },
                {
                    "name": "A#4",
                    "midi": 70,
                    "time": 73.50003675000009,
                    "velocity": 0.3464566929133858,
                    "duration": 0.08333337499999516
                },
                {
                    "name": "C#5",
                    "midi": 73,
                    "time": 73.58337012500009,
                    "velocity": 0.28346456692913385,
                    "duration": 0.08333337499999516
                },
                {
                    "name": "B4",
                    "midi": 71,
                    "time": 73.66670350000008,
                    "velocity": 0.3464566929133858,
                    "duration": 0.08333337499999516
                },
                {
                    "name": "F#4",
                    "midi": 66,
                    "time": 73.75003687500008,
                    "velocity": 0.2755905511811024,
                    "duration": 0.08333337499999516
                },
                {
                    "name": "D5",
                    "midi": 74,
                    "time": 73.91670362500007,
                    "velocity": 0.3464566929133858,
                    "duration": 0.08333337499999516
                },
                {
                    "name": "F#5",
                    "midi": 78,
                    "time": 74.08337037500006,
                    "velocity": 0.36220472440944884,
                    "duration": 0.08333337499999516
                },
                {
                    "name": "A#4",
                    "midi": 70,
                    "time": 74.16670375000005,
                    "velocity": 0.4015748031496063,
                    "duration": 0.08333337499999516
                },
                {
                    "name": "C#5",
                    "midi": 73,
                    "time": 74.25003712500005,
                    "velocity": 0.3543307086614173,
                    "duration": 0.08333337499999516
                },
                {
                    "name": "B4",
                    "midi": 71,
                    "time": 74.33337050000004,
                    "velocity": 0.3779527559055118,
                    "duration": 0.08333337499999516
                },
                {
                    "name": "F#4",
                    "midi": 66,
                    "time": 74.41670387500004,
                    "velocity": 0.33070866141732286,
                    "duration": 0.08333337499999516
                },
                {
                    "name": "D5",
                    "midi": 74,
                    "time": 74.58337062500003,
                    "velocity": 0.28346456692913385,
                    "duration": 0.08333337499999516
                },
                {
                    "name": "C#5",
                    "midi": 73,
                    "time": 74.75003737500002,
                    "velocity": 0.2204724409448819,
                    "duration": 0.08333337499999516
                },
                {
                    "name": "G#4",
                    "midi": 68,
                    "time": 74.83337075000001,
                    "velocity": 0.28346456692913385,
                    "duration": 0.08333337499999516
                },
                {
                    "name": "B4",
                    "midi": 71,
                    "time": 74.91670412500001,
                    "velocity": 0.2283464566929134,
                    "duration": 0.08333337499999516
                },
                {
                    "name": "A#4",
                    "midi": 70,
                    "time": 75.0000375,
                    "velocity": 0.2755905511811024,
                    "duration": 0.08333337499999516
                },
                {
                    "name": "F#4",
                    "midi": 66,
                    "time": 75.083370875,
                    "velocity": 0.23622047244094488,
                    "duration": 0.08333337499999516
                },
                {
                    "name": "C#5",
                    "midi": 73,
                    "time": 75.25003762499999,
                    "velocity": 0.2755905511811024,
                    "duration": 0.08333337499999516
                },
                {
                    "name": "C#5",
                    "midi": 73,
                    "time": 75.41670437499998,
                    "velocity": 0.2125984251968504,
                    "duration": 0.08333337499999516
                },
                {
                    "name": "G#4",
                    "midi": 68,
                    "time": 75.50003774999998,
                    "velocity": 0.2677165354330709,
                    "duration": 0.08333337499999516
                },
                {
                    "name": "B4",
                    "midi": 71,
                    "time": 75.58337112499997,
                    "velocity": 0.2125984251968504,
                    "duration": 0.08333337499999516
                },
                {
                    "name": "A#4",
                    "midi": 70,
                    "time": 75.66670449999997,
                    "velocity": 0.2677165354330709,
                    "duration": 0.08333337499999516
                },
                {
                    "name": "F#4",
                    "midi": 66,
                    "time": 75.75003787499996,
                    "velocity": 0.2204724409448819,
                    "duration": 0.08333337499999516
                },
                {
                    "name": "C#5",
                    "midi": 73,
                    "time": 75.91670462499995,
                    "velocity": 0.2677165354330709,
                    "duration": 0.08333337499999516
                },
                {
                    "name": "C#5",
                    "midi": 73,
                    "time": 76.08337137499994,
                    "velocity": 0.2204724409448819,
                    "duration": 0.08333337499999516
                },
                {
                    "name": "G#4",
                    "midi": 68,
                    "time": 76.16670474999994,
                    "velocity": 0.2677165354330709,
                    "duration": 0.08333337499999516
                },
                {
                    "name": "B4",
                    "midi": 71,
                    "time": 76.25003812499993,
                    "velocity": 0.2204724409448819,
                    "duration": 0.08333337499999516
                },
                {
                    "name": "A#4",
                    "midi": 70,
                    "time": 76.33337149999993,
                    "velocity": 0.2677165354330709,
                    "duration": 0.08333337499999516
                },
                {
                    "name": "F#4",
                    "midi": 66,
                    "time": 76.41670487499992,
                    "velocity": 0.2204724409448819,
                    "duration": 0.08333337499999516
                },
                {
                    "name": "C#5",
                    "midi": 73,
                    "time": 76.58337162499991,
                    "velocity": 0.2440944881889764,
                    "duration": 0.08333337499999516
                },
                {
                    "name": "C#5",
                    "midi": 73,
                    "time": 76.7500383749999,
                    "velocity": 0.2204724409448819,
                    "duration": 0.08333337499999516
                },
                {
                    "name": "G#4",
                    "midi": 68,
                    "time": 76.8333717499999,
                    "velocity": 0.2440944881889764,
                    "duration": 0.08333337499999516
                },
                {
                    "name": "B4",
                    "midi": 71,
                    "time": 76.9167051249999,
                    "velocity": 0.2125984251968504,
                    "duration": 0.08333337499999516
                },
                {
                    "name": "A#4",
                    "midi": 70,
                    "time": 77.00003849999989,
                    "velocity": 0.2440944881889764,
                    "duration": 0.08333337499999516
                },
                {
                    "name": "F#4",
                    "midi": 66,
                    "time": 77.08337187499988,
                    "velocity": 0.1968503937007874,
                    "duration": 0.08333337499999516
                },
                {
                    "name": "C#5",
                    "midi": 73,
                    "time": 77.25003862499987,
                    "velocity": 0.2440944881889764,
                    "duration": 0.08333337499999516
                },
                {
                    "name": "D#5",
                    "midi": 75,
                    "time": 77.41670537499986,
                    "velocity": 0.1732283464566929,
                    "duration": 0.08333337499999516
                },
                {
                    "name": "A#4",
                    "midi": 70,
                    "time": 77.50003874999986,
                    "velocity": 0.2204724409448819,
                    "duration": 0.08333337499999516
                },
                {
                    "name": "C#5",
                    "midi": 73,
                    "time": 77.58337212499985,
                    "velocity": 0.1732283464566929,
                    "duration": 0.08333337499999516
                },
                {
                    "name": "B4",
                    "midi": 71,
                    "time": 77.66670549999985,
                    "velocity": 0.2283464566929134,
                    "duration": 0.08333337499999516
                },
                {
                    "name": "F#4",
                    "midi": 66,
                    "time": 77.75003887499985,
                    "velocity": 0.18110236220472442,
                    "duration": 0.08333337499999516
                },
                {
                    "name": "D#5",
                    "midi": 75,
                    "time": 77.91670562499984,
                    "velocity": 0.2283464566929134,
                    "duration": 0.08333337499999516
                },
                {
                    "name": "D#5",
                    "midi": 75,
                    "time": 78.08337237499983,
                    "velocity": 0.18110236220472442,
                    "duration": 0.08333337499999516
                },
                {
                    "name": "A#4",
                    "midi": 70,
                    "time": 78.16670574999982,
                    "velocity": 0.2283464566929134,
                    "duration": 0.08333337499999516
                },
                {
                    "name": "C#5",
                    "midi": 73,
                    "time": 78.25003912499982,
                    "velocity": 0.18110236220472442,
                    "duration": 0.08333337499999516
                },
                {
                    "name": "B4",
                    "midi": 71,
                    "time": 78.33337249999981,
                    "velocity": 0.23622047244094488,
                    "duration": 0.08333337499999516
                },
                {
                    "name": "F#4",
                    "midi": 66,
                    "time": 78.4167058749998,
                    "velocity": 0.18110236220472442,
                    "duration": 0.08333337499999516
                },
                {
                    "name": "D#5",
                    "midi": 75,
                    "time": 78.5833726249998,
                    "velocity": 0.23622047244094488,
                    "duration": 0.08333337499999516
                },
                {
                    "name": "D#5",
                    "midi": 75,
                    "time": 78.75003937499979,
                    "velocity": 0.2125984251968504,
                    "duration": 0.08333337499999516
                },
                {
                    "name": "A#4",
                    "midi": 70,
                    "time": 78.83337274999978,
                    "velocity": 0.2440944881889764,
                    "duration": 0.08333337499999516
                },
                {
                    "name": "C#5",
                    "midi": 73,
                    "time": 78.91670612499978,
                    "velocity": 0.2125984251968504,
                    "duration": 0.08333337499999516
                },
                {
                    "name": "B4",
                    "midi": 71,
                    "time": 79.00003949999977,
                    "velocity": 0.2440944881889764,
                    "duration": 0.08333337499999516
                },
                {
                    "name": "F#4",
                    "midi": 66,
                    "time": 79.08337287499977,
                    "velocity": 0.23622047244094488,
                    "duration": 0.08333337499999516
                },
                {
                    "name": "D#5",
                    "midi": 75,
                    "time": 79.25003962499976,
                    "velocity": 0.2677165354330709,
                    "duration": 0.08333337499999516
                },
                {
                    "name": "F#5",
                    "midi": 78,
                    "time": 79.41670637499975,
                    "velocity": 0.29133858267716534,
                    "duration": 0.08333337499999516
                },
                {
                    "name": "A#4",
                    "midi": 70,
                    "time": 79.50003974999974,
                    "velocity": 0.2992125984251969,
                    "duration": 0.08333337499999516
                },
                {
                    "name": "C#5",
                    "midi": 73,
                    "time": 79.58337312499974,
                    "velocity": 0.28346456692913385,
                    "duration": 0.08333337499999516
                },
                {
                    "name": "B4",
                    "midi": 71,
                    "time": 79.66670649999973,
                    "velocity": 0.28346456692913385,
                    "duration": 0.08333337499999516
                },
                {
                    "name": "F#4",
                    "midi": 66,
                    "time": 79.75003987499973,
                    "velocity": 0.2677165354330709,
                    "duration": 0.08333337499999516
                },
                {
                    "name": "D#5",
                    "midi": 75,
                    "time": 79.91670662499972,
                    "velocity": 0.2125984251968504,
                    "duration": 0.08333337499999516
                },
                {
                    "name": "C#5",
                    "midi": 73,
                    "time": 80.08337337499971,
                    "velocity": 0.15748031496062992,
                    "duration": 0.08333337499999516
                },
                {
                    "name": "G#4",
                    "midi": 68,
                    "time": 80.1667067499997,
                    "velocity": 0.2125984251968504,
                    "duration": 0.08333337499999516
                },
                {
                    "name": "B4",
                    "midi": 71,
                    "time": 80.2500401249997,
                    "velocity": 0.1732283464566929,
                    "duration": 0.08333337499999516
                },
                {
                    "name": "A#4",
                    "midi": 70,
                    "time": 80.3333734999997,
                    "velocity": 0.2125984251968504,
                    "duration": 0.08333337499999516
                },
                {
                    "name": "F#4",
                    "midi": 66,
                    "time": 80.41670687499969,
                    "velocity": 0.18110236220472442,
                    "duration": 0.08333337499999516
                },
                {
                    "name": "C#5",
                    "midi": 73,
                    "time": 80.58337362499968,
                    "velocity": 0.2125984251968504,
                    "duration": 0.08333337499999516
                },
                {
                    "name": "C#5",
                    "midi": 73,
                    "time": 80.75004037499967,
                    "velocity": 0.18110236220472442,
                    "duration": 0.08333337499999516
                },
                {
                    "name": "G#4",
                    "midi": 68,
                    "time": 80.83337374999967,
                    "velocity": 0.2204724409448819,
                    "duration": 0.08333337499999516
                },
                {
                    "name": "B4",
                    "midi": 71,
                    "time": 80.91670712499966,
                    "velocity": 0.18110236220472442,
                    "duration": 0.08333337499999516
                },
                {
                    "name": "A#4",
                    "midi": 70,
                    "time": 81.00004049999966,
                    "velocity": 0.2204724409448819,
                    "duration": 0.08333337499999516
                },
                {
                    "name": "F#4",
                    "midi": 66,
                    "time": 81.08337387499965,
                    "velocity": 0.1732283464566929,
                    "duration": 0.08333337499999516
                },
                {
                    "name": "C#5",
                    "midi": 73,
                    "time": 81.25004062499964,
                    "velocity": 0.2283464566929134,
                    "duration": 0.08333337499999516
                },
                {
                    "name": "C#5",
                    "midi": 73,
                    "time": 81.41670737499963,
                    "velocity": 0.1968503937007874,
                    "duration": 0.08333337499999516
                },
                {
                    "name": "G#4",
                    "midi": 68,
                    "time": 81.50004074999963,
                    "velocity": 0.2283464566929134,
                    "duration": 0.08333337499999516
                },
                {
                    "name": "B4",
                    "midi": 71,
                    "time": 81.58337412499962,
                    "velocity": 0.18110236220472442,
                    "duration": 0.08333337499999516
                },
                {
                    "name": "A#4",
                    "midi": 70,
                    "time": 81.66670749999962,
                    "velocity": 0.2283464566929134,
                    "duration": 0.08333337499999516
                },
                {
                    "name": "F#4",
                    "midi": 66,
                    "time": 81.75004087499961,
                    "velocity": 0.18110236220472442,
                    "duration": 0.08333337499999516
                },
                {
                    "name": "C#5",
                    "midi": 73,
                    "time": 81.9167076249996,
                    "velocity": 0.2283464566929134,
                    "duration": 0.08333337499999516
                },
                {
                    "name": "C#5",
                    "midi": 73,
                    "time": 82.0833743749996,
                    "velocity": 0.18110236220472442,
                    "duration": 0.08333337499999516
                },
                {
                    "name": "G#4",
                    "midi": 68,
                    "time": 82.16670774999959,
                    "velocity": 0.23622047244094488,
                    "duration": 0.08333337499999516
                },
                {
                    "name": "B4",
                    "midi": 71,
                    "time": 82.25004112499958,
                    "velocity": 0.18110236220472442,
                    "duration": 0.08333337499999516
                },
                {
                    "name": "A#4",
                    "midi": 70,
                    "time": 82.33337449999958,
                    "velocity": 0.23622047244094488,
                    "duration": 0.08333337499999516
                },
                {
                    "name": "F#4",
                    "midi": 66,
                    "time": 82.41670787499957,
                    "velocity": 0.18110236220472442,
                    "duration": 0.08333337499999516
                },
                {
                    "name": "C#5",
                    "midi": 73,
                    "time": 82.58337462499956,
                    "velocity": 0.2283464566929134,
                    "duration": 0.08333337499999516
                },
                {
                    "name": "C#5",
                    "midi": 73,
                    "time": 82.75004137499955,
                    "velocity": 0.18110236220472442,
                    "duration": 0.08333337499999516
                },
                {
                    "name": "G#4",
                    "midi": 68,
                    "time": 82.83337474999955,
                    "velocity": 0.2283464566929134,
                    "duration": 0.08333337499999516
                },
                {
                    "name": "B4",
                    "midi": 71,
                    "time": 82.91670812499954,
                    "velocity": 0.18110236220472442,
                    "duration": 0.08333337499999516
                },
                {
                    "name": "A4",
                    "midi": 69,
                    "time": 83.00004149999954,
                    "velocity": 0.2283464566929134,
                    "duration": 0.08333337499999516
                },
                {
                    "name": "F#4",
                    "midi": 66,
                    "time": 83.08337487499954,
                    "velocity": 0.1968503937007874,
                    "duration": 0.08333337499999516
                },
                {
                    "name": "C#5",
                    "midi": 73,
                    "time": 83.25004162499953,
                    "velocity": 0.2283464566929134,
                    "duration": 0.08333337499999516
                },
                {
                    "name": "C#5",
                    "midi": 73,
                    "time": 83.41670837499952,
                    "velocity": 0.1732283464566929,
                    "duration": 0.08333337499999516
                },
                {
                    "name": "G#4",
                    "midi": 68,
                    "time": 83.50004174999951,
                    "velocity": 0.2283464566929134,
                    "duration": 0.08333337499999516
                },
                {
                    "name": "B4",
                    "midi": 71,
                    "time": 83.5833751249995,
                    "velocity": 0.18110236220472442,
                    "duration": 0.08333337499999516
                },
                {
                    "name": "A4",
                    "midi": 69,
                    "time": 83.6667084999995,
                    "velocity": 0.2204724409448819,
                    "duration": 0.08333337499999516
                },
                {
                    "name": "F#4",
                    "midi": 66,
                    "time": 83.7500418749995,
                    "velocity": 0.18110236220472442,
                    "duration": 0.08333337499999516
                },
                {
                    "name": "C#5",
                    "midi": 73,
                    "time": 83.91670862499949,
                    "velocity": 0.2204724409448819,
                    "duration": 0.08333337499999516
                },
                {
                    "name": "C#5",
                    "midi": 73,
                    "time": 84.08337537499948,
                    "velocity": 0.1732283464566929,
                    "duration": 0.08333337499999516
                },
                {
                    "name": "G#4",
                    "midi": 68,
                    "time": 84.16670874999947,
                    "velocity": 0.2204724409448819,
                    "duration": 0.08333337499999516
                },
                {
                    "name": "B4",
                    "midi": 71,
                    "time": 84.25004212499947,
                    "velocity": 0.18110236220472442,
                    "duration": 0.08333337499999516
                },
                {
                    "name": "A4",
                    "midi": 69,
                    "time": 84.33337549999946,
                    "velocity": 0.2125984251968504,
                    "duration": 0.08333337499999516
                },
                {
                    "name": "F#4",
                    "midi": 66,
                    "time": 84.41670887499946,
                    "velocity": 0.1732283464566929,
                    "duration": 0.08333337499999516
                },
                {
                    "name": "C#5",
                    "midi": 73,
                    "time": 84.58337562499945,
                    "velocity": 0.2125984251968504,
                    "duration": 0.08333337499999516
                },
                {
                    "name": "C#5",
                    "midi": 73,
                    "time": 84.75004237499944,
                    "velocity": 0.1732283464566929,
                    "duration": 0.08333337499999516
                },
                {
                    "name": "G#4",
                    "midi": 68,
                    "time": 84.83337574999943,
                    "velocity": 0.2125984251968504,
                    "duration": 0.08333337499999516
                },
                {
                    "name": "B4",
                    "midi": 71,
                    "time": 84.91670912499943,
                    "velocity": 0.1732283464566929,
                    "duration": 0.08333337499999516
                },
                {
                    "name": "A4",
                    "midi": 69,
                    "time": 85.00004249999942,
                    "velocity": 0.2125984251968504,
                    "duration": 0.08333337499999516
                },
                {
                    "name": "F#4",
                    "midi": 66,
                    "time": 85.08337587499942,
                    "velocity": 0.18110236220472442,
                    "duration": 0.08333337499999516
                },
                {
                    "name": "C#5",
                    "midi": 73,
                    "time": 85.25004262499941,
                    "velocity": 0.2125984251968504,
                    "duration": 0.08333337499999516
                }
            ],
            "controlChanges": {
                "7": [
                    {
                        "number": 7,
                        "time": 0,
                        "value": 0.7874015748031497
                    }
                ],
                "10": [
                    {
                        "number": 10,
                        "time": 0,
                        "value": 0.5039370078740157
                    }
                ],
                "91": [
                    {
                        "number": 91,
                        "time": 0,
                        "value": 1
                    },
                    {
                        "number": 91,
                        "time": 0,
                        "value": 1
                    }
                ]
            },
            "id": 1,
            "name": "Piano right",
            "instrumentNumber": 0,
            "instrument": "acoustic grand piano",
            "instrumentFamily": "piano",
            "channelNumber": 0,
            "isPercussion": false
        },
        {
            "startTime": 0,
            "duration": 90.66671199999999,
            "length": 268,
            "notes": [
                {
                    "name": "C#4",
                    "midi": 61,
                    "time": 0,
                    "velocity": 0.6062992125984252,
                    "duration": 0.50000025
                },
                {
                    "name": "D4",
                    "midi": 62,
                    "time": 0.50000025,
                    "velocity": 0.4645669291338583,
                    "duration": 0.16666674999999997
                },
                {
                    "name": "C#4",
                    "midi": 61,
                    "time": 0.666667,
                    "velocity": 0.5748031496062992,
                    "duration": 0.5000002500000001
                },
                {
                    "name": "F#4",
                    "midi": 66,
                    "time": 1.1666672500000002,
                    "velocity": 0.5826771653543307,
                    "duration": 0.16666675000000009
                },
                {
                    "name": "F#4",
                    "midi": 66,
                    "time": 1.3333340000000002,
                    "velocity": 0.7007874015748031,
                    "duration": 0.50000025
                },
                {
                    "name": "F4",
                    "midi": 65,
                    "time": 1.8333342500000003,
                    "velocity": 0.4881889763779528,
                    "duration": 0.16666674999999986
                },
                {
                    "name": "A4",
                    "midi": 69,
                    "time": 2.000001,
                    "velocity": 0.6456692913385826,
                    "duration": 0.5000002500000003
                },
                {
                    "name": "G#4",
                    "midi": 68,
                    "time": 2.5000012500000004,
                    "velocity": 0.4094488188976378,
                    "duration": 0.16666675000000009
                },
                {
                    "name": "C#4",
                    "midi": 61,
                    "time": 2.6666680000000005,
                    "velocity": 0.6299212598425197,
                    "duration": 0.5000002500000003
                },
                {
                    "name": "D4",
                    "midi": 62,
                    "time": 3.1666682500000007,
                    "velocity": 0.4094488188976378,
                    "duration": 0.16666675000000009
                },
                {
                    "name": "C#4",
                    "midi": 61,
                    "time": 3.333335000000001,
                    "velocity": 0.5905511811023622,
                    "duration": 0.5000002500000003
                },
                {
                    "name": "F#4",
                    "midi": 66,
                    "time": 3.833335250000001,
                    "velocity": 0.5748031496062992,
                    "duration": 0.16666675000000009
                },
                {
                    "name": "F#4",
                    "midi": 66,
                    "time": 4.000002000000001,
                    "velocity": 0.6535433070866141,
                    "duration": 0.5000002500000003
                },
                {
                    "name": "F4",
                    "midi": 65,
                    "time": 4.500002250000001,
                    "velocity": 0.5748031496062992,
                    "duration": 0.16666675000000009
                },
                {
                    "name": "A4",
                    "midi": 69,
                    "time": 4.6666690000000015,
                    "velocity": 0.6535433070866141,
                    "duration": 0.5000002500000003
                },
                {
                    "name": "G#4",
                    "midi": 68,
                    "time": 5.166669250000002,
                    "velocity": 0.4330708661417323,
                    "duration": 0.16666675000000009
                },
                {
                    "name": "C#5",
                    "midi": 73,
                    "time": 5.333336000000002,
                    "velocity": 0.6535433070866141,
                    "duration": 0.5000002500000003
                },
                {
                    "name": "D#5",
                    "midi": 75,
                    "time": 5.833336250000002,
                    "velocity": 0.4881889763779528,
                    "duration": 0.16666675000000009
                },
                {
                    "name": "C#5",
                    "midi": 73,
                    "time": 6.000003000000002,
                    "velocity": 0.6299212598425197,
                    "duration": 0.5000002500000003
                },
                {
                    "name": "C5",
                    "midi": 72,
                    "time": 6.5000032500000025,
                    "velocity": 0.47244094488188976,
                    "duration": 0.16666675000000009
                },
                {
                    "name": "B4",
                    "midi": 71,
                    "time": 6.6666700000000025,
                    "velocity": 0.6062992125984252,
                    "duration": 0.5000002500000003
                },
                {
                    "name": "C#5",
                    "midi": 73,
                    "time": 7.166670250000003,
                    "velocity": 0.44881889763779526,
                    "duration": 0.16666675000000009
                },
                {
                    "name": "B4",
                    "midi": 71,
                    "time": 7.333337000000003,
                    "velocity": 0.5748031496062992,
                    "duration": 0.5000002500000003
                },
                {
                    "name": "A#4",
                    "midi": 70,
                    "time": 7.833337250000003,
                    "velocity": 0.44881889763779526,
                    "duration": 0.1666667499999992
                },
                {
                    "name": "A4",
                    "midi": 69,
                    "time": 8.000004000000002,
                    "velocity": 0.5905511811023622,
                    "duration": 0.5000002499999994
                },
                {
                    "name": "B4",
                    "midi": 71,
                    "time": 8.500004250000002,
                    "velocity": 0.4645669291338583,
                    "duration": 0.1666667499999992
                },
                {
                    "name": "A4",
                    "midi": 69,
                    "time": 8.666671000000001,
                    "velocity": 0.5748031496062992,
                    "duration": 0.5000002499999994
                },
                {
                    "name": "G#4",
                    "midi": 68,
                    "time": 9.16667125,
                    "velocity": 0.4645669291338583,
                    "duration": 0.1666667499999992
                },
                {
                    "name": "F#4",
                    "midi": 66,
                    "time": 9.333338,
                    "velocity": 0.5826771653543307,
                    "duration": 0.5000002499999994
                },
                {
                    "name": "F4",
                    "midi": 65,
                    "time": 9.833338249999999,
                    "velocity": 0.44881889763779526,
                    "duration": 0.1666667499999992
                },
                {
                    "name": "D4",
                    "midi": 62,
                    "time": 10.000004999999998,
                    "velocity": 0.5669291338582677,
                    "duration": 0.5000002499999994
                },
                {
                    "name": "C#4",
                    "midi": 61,
                    "time": 10.500005249999997,
                    "velocity": 0.49606299212598426,
                    "duration": 0.1666667499999992
                },
                {
                    "name": "C#4",
                    "midi": 61,
                    "time": 10.666671999999997,
                    "velocity": 0.6614173228346457,
                    "duration": 0.5000002499999994
                },
                {
                    "name": "D4",
                    "midi": 62,
                    "time": 11.166672249999996,
                    "velocity": 0.49606299212598426,
                    "duration": 0.1666667499999992
                },
                {
                    "name": "C#4",
                    "midi": 61,
                    "time": 11.333338999999995,
                    "velocity": 0.5905511811023622,
                    "duration": 0.5000002499999994
                },
                {
                    "name": "F#4",
                    "midi": 66,
                    "time": 11.833339249999995,
                    "velocity": 0.5590551181102362,
                    "duration": 0.1666667499999992
                },
                {
                    "name": "F#4",
                    "midi": 66,
                    "time": 12.000005999999994,
                    "velocity": 0.6614173228346457,
                    "duration": 0.5000002499999994
                },
                {
                    "name": "F4",
                    "midi": 65,
                    "time": 12.500006249999993,
                    "velocity": 0.4645669291338583,
                    "duration": 0.1666667499999992
                },
                {
                    "name": "A4",
                    "midi": 69,
                    "time": 12.666672999999992,
                    "velocity": 0.6062992125984252,
                    "duration": 0.5000002499999994
                },
                {
                    "name": "G#4",
                    "midi": 68,
                    "time": 13.166673249999992,
                    "velocity": 0.4409448818897638,
                    "duration": 0.1666667499999992
                },
                {
                    "name": "C#4",
                    "midi": 61,
                    "time": 13.33333999999999,
                    "velocity": 0.6377952755905512,
                    "duration": 0.5000002499999994
                },
                {
                    "name": "D4",
                    "midi": 62,
                    "time": 13.83334024999999,
                    "velocity": 0.4566929133858268,
                    "duration": 0.1666667499999992
                },
                {
                    "name": "C#4",
                    "midi": 61,
                    "time": 14.00000699999999,
                    "velocity": 0.5905511811023622,
                    "duration": 0.5000002499999994
                },
                {
                    "name": "F#4",
                    "midi": 66,
                    "time": 14.500007249999989,
                    "velocity": 0.5590551181102362,
                    "duration": 0.1666667499999992
                },
                {
                    "name": "A4",
                    "midi": 69,
                    "time": 14.666673999999988,
                    "velocity": 0.6692913385826772,
                    "duration": 0.5000002499999994
                },
                {
                    "name": "G#4",
                    "midi": 68,
                    "time": 15.166674249999987,
                    "velocity": 0.4566929133858268,
                    "duration": 0.1666667499999992
                },
                {
                    "name": "C#5",
                    "midi": 73,
                    "time": 15.333340999999987,
                    "velocity": 0.6535433070866141,
                    "duration": 0.5000002499999994
                },
                {
                    "name": "B4",
                    "midi": 71,
                    "time": 15.833341249999986,
                    "velocity": 0.5196850393700787,
                    "duration": 0.16666675000000097
                },
                {
                    "name": "E5",
                    "midi": 76,
                    "time": 16.000007999999987,
                    "velocity": 0.6220472440944882,
                    "duration": 0.5000002499999994
                },
                {
                    "name": "F#5",
                    "midi": 78,
                    "time": 16.500008249999986,
                    "velocity": 0.4645669291338583,
                    "duration": 0.16666675000000097
                },
                {
                    "name": "E5",
                    "midi": 76,
                    "time": 16.666674999999987,
                    "velocity": 0.5905511811023622,
                    "duration": 0.5000002499999994
                },
                {
                    "name": "D#5",
                    "midi": 75,
                    "time": 17.166675249999987,
                    "velocity": 0.47244094488188976,
                    "duration": 0.16666675000000097
                },
                {
                    "name": "D5",
                    "midi": 74,
                    "time": 17.333341999999988,
                    "velocity": 0.5905511811023622,
                    "duration": 0.5000002499999994
                },
                {
                    "name": "E5",
                    "midi": 76,
                    "time": 17.833342249999987,
                    "velocity": 0.4330708661417323,
                    "duration": 0.16666675000000097
                },
                {
                    "name": "D5",
                    "midi": 74,
                    "time": 18.000008999999988,
                    "velocity": 0.5748031496062992,
                    "duration": 0.5000002499999994
                },
                {
                    "name": "C#5",
                    "midi": 73,
                    "time": 18.500009249999987,
                    "velocity": 0.4330708661417323,
                    "duration": 0.16666675000000097
                },
                {
                    "name": "C5",
                    "midi": 72,
                    "time": 18.66667599999999,
                    "velocity": 0.5984251968503937,
                    "duration": 0.5000002499999994
                },
                {
                    "name": "D5",
                    "midi": 74,
                    "time": 19.166676249999988,
                    "velocity": 0.4330708661417323,
                    "duration": 0.16666675000000097
                },
                {
                    "name": "C5",
                    "midi": 72,
                    "time": 19.33334299999999,
                    "velocity": 0.5748031496062992,
                    "duration": 0.5000002499999994
                },
                {
                    "name": "B4",
                    "midi": 71,
                    "time": 19.833343249999988,
                    "velocity": 0.4330708661417323,
                    "duration": 0.16666675000000097
                },
                {
                    "name": "B4",
                    "midi": 71,
                    "time": 20.00000999999999,
                    "velocity": 0.5748031496062992,
                    "duration": 0.5000002499999994
                },
                {
                    "name": "A#4",
                    "midi": 70,
                    "time": 20.50001024999999,
                    "velocity": 0.41732283464566927,
                    "duration": 0.16666675000000097
                },
                {
                    "name": "A#4",
                    "midi": 70,
                    "time": 20.66667699999999,
                    "velocity": 0.5275590551181102,
                    "duration": 0.5000002499999994
                },
                {
                    "name": "A#4",
                    "midi": 70,
                    "time": 21.16667724999999,
                    "velocity": 0.4566929133858268,
                    "duration": 0.16666675000000097
                },
                {
                    "name": "A#4",
                    "midi": 70,
                    "time": 21.33334399999999,
                    "velocity": 0.6377952755905512,
                    "duration": 0.5000002499999994
                },
                {
                    "name": "A4",
                    "midi": 69,
                    "time": 21.83334424999999,
                    "velocity": 0.4566929133858268,
                    "duration": 0.16666675000000097
                },
                {
                    "name": "A4",
                    "midi": 69,
                    "time": 22.00001099999999,
                    "velocity": 0.6141732283464567,
                    "duration": 0.5000002499999994
                },
                {
                    "name": "G#4",
                    "midi": 68,
                    "time": 22.50001124999999,
                    "velocity": 0.4566929133858268,
                    "duration": 0.16666675000000097
                },
                {
                    "name": "G#4",
                    "midi": 68,
                    "time": 22.66667799999999,
                    "velocity": 0.6535433070866141,
                    "duration": 0.5000002499999994
                },
                {
                    "name": "G4",
                    "midi": 67,
                    "time": 23.16667824999999,
                    "velocity": 0.4881889763779528,
                    "duration": 0.16666675000000097
                },
                {
                    "name": "G4",
                    "midi": 67,
                    "time": 23.33334499999999,
                    "velocity": 0.6299212598425197,
                    "duration": 0.5000002499999994
                },
                {
                    "name": "C5",
                    "midi": 72,
                    "time": 23.83334524999999,
                    "velocity": 0.4881889763779528,
                    "duration": 0.16666675000000097
                },
                {
                    "name": "C5",
                    "midi": 72,
                    "time": 24.00001199999999,
                    "velocity": 0.6692913385826772,
                    "duration": 0.5000002499999994
                },
                {
                    "name": "B4",
                    "midi": 71,
                    "time": 24.50001224999999,
                    "velocity": 0.5196850393700787,
                    "duration": 0.16666675000000097
                },
                {
                    "name": "B4",
                    "midi": 71,
                    "time": 24.66667899999999,
                    "velocity": 0.6456692913385826,
                    "duration": 0.5000002499999994
                },
                {
                    "name": "A#4",
                    "midi": 70,
                    "time": 25.16667924999999,
                    "velocity": 0.48031496062992124,
                    "duration": 0.16666675000000097
                },
                {
                    "name": "A#4",
                    "midi": 70,
                    "time": 25.33334599999999,
                    "velocity": 0.6614173228346457,
                    "duration": 0.5000002499999994
                },
                {
                    "name": "A4",
                    "midi": 69,
                    "time": 25.83334624999999,
                    "velocity": 0.4881889763779528,
                    "duration": 0.16666675000000097
                },
                {
                    "name": "A4",
                    "midi": 69,
                    "time": 26.000012999999992,
                    "velocity": 0.6456692913385826,
                    "duration": 0.5000002499999994
                },
                {
                    "name": "D5",
                    "midi": 74,
                    "time": 26.50001324999999,
                    "velocity": 0.5511811023622047,
                    "duration": 0.16666675000000097
                },
                {
                    "name": "D5",
                    "midi": 74,
                    "time": 26.666679999999992,
                    "velocity": 0.7086614173228346,
                    "duration": 0.5000002499999994
                },
                {
                    "name": "C5",
                    "midi": 72,
                    "time": 27.16668024999999,
                    "velocity": 0.5511811023622047,
                    "duration": 0.16666675000000097
                },
                {
                    "name": "C5",
                    "midi": 72,
                    "time": 27.333346999999993,
                    "velocity": 0.6535433070866141,
                    "duration": 0.5000002499999994
                },
                {
                    "name": "A#4",
                    "midi": 70,
                    "time": 27.833347249999992,
                    "velocity": 0.5196850393700787,
                    "duration": 0.16666675000000097
                },
                {
                    "name": "A#4",
                    "midi": 70,
                    "time": 28.000013999999993,
                    "velocity": 0.7322834645669292,
                    "duration": 0.5000002499999994
                },
                {
                    "name": "A4",
                    "midi": 69,
                    "time": 28.500014249999992,
                    "velocity": 0.5511811023622047,
                    "duration": 0.16666675000000097
                },
                {
                    "name": "A4",
                    "midi": 69,
                    "time": 28.666680999999993,
                    "velocity": 0.6929133858267716,
                    "duration": 0.5000002499999994
                },
                {
                    "name": "G4",
                    "midi": 67,
                    "time": 29.166681249999993,
                    "velocity": 0.5669291338582677,
                    "duration": 0.16666675000000097
                },
                {
                    "name": "G4",
                    "midi": 67,
                    "time": 29.333347999999994,
                    "velocity": 0.7322834645669292,
                    "duration": 0.5000002499999994
                },
                {
                    "name": "F4",
                    "midi": 65,
                    "time": 29.833348249999993,
                    "velocity": 0.6062992125984252,
                    "duration": 0.16666675000000097
                },
                {
                    "name": "E4",
                    "midi": 64,
                    "time": 30.000014999999994,
                    "velocity": 0.7086614173228346,
                    "duration": 0.5000002499999994
                },
                {
                    "name": "F4",
                    "midi": 65,
                    "time": 30.500015249999993,
                    "velocity": 0.6141732283464567,
                    "duration": 0.16666675000000097
                },
                {
                    "name": "F4",
                    "midi": 65,
                    "time": 30.666681999999994,
                    "velocity": 0.7637795275590551,
                    "duration": 0.5000002499999994
                },
                {
                    "name": "F4",
                    "midi": 65,
                    "time": 31.166682249999994,
                    "velocity": 0.6141732283464567,
                    "duration": 0.16666675000000097
                },
                {
                    "name": "F#4",
                    "midi": 66,
                    "time": 31.333348999999995,
                    "velocity": 0.7322834645669292,
                    "duration": 0.5000002499999994
                },
                {
                    "name": "F#4",
                    "midi": 66,
                    "time": 31.833349249999994,
                    "velocity": 0.6062992125984252,
                    "duration": 0.16666675000000097
                },
                {
                    "name": "F#4",
                    "midi": 66,
                    "time": 32.000015999999995,
                    "velocity": 0.7795275590551181,
                    "duration": 0.5000002499999994
                },
                {
                    "name": "E4",
                    "midi": 64,
                    "time": 32.500016249999994,
                    "velocity": 0.6141732283464567,
                    "duration": 0.16666674999999742
                },
                {
                    "name": "E4",
                    "midi": 64,
                    "time": 32.66668299999999,
                    "velocity": 0.7322834645669292,
                    "duration": 0.5000002499999994
                },
                {
                    "name": "G#3",
                    "midi": 56,
                    "time": 33.16668324999999,
                    "velocity": 0.6141732283464567,
                    "duration": 0.16666674999999742
                },
                {
                    "name": "B3",
                    "midi": 59,
                    "time": 33.33334999999999,
                    "velocity": 0.7401574803149606,
                    "duration": 0.5000002499999994
                },
                {
                    "name": "B3",
                    "midi": 59,
                    "time": 33.83335024999999,
                    "velocity": 0.5748031496062992,
                    "duration": 0.16666674999999742
                },
                {
                    "name": "A#3",
                    "midi": 58,
                    "time": 34.000016999999986,
                    "velocity": 0.7244094488188977,
                    "duration": 0.5000002499999994
                },
                {
                    "name": "B3",
                    "midi": 59,
                    "time": 34.500017249999985,
                    "velocity": 0.5669291338582677,
                    "duration": 0.16666674999999742
                },
                {
                    "name": "C4",
                    "midi": 60,
                    "time": 34.66668399999998,
                    "velocity": 0.7559055118110236,
                    "duration": 0.5000002499999994
                },
                {
                    "name": "C4",
                    "midi": 60,
                    "time": 35.16668424999998,
                    "velocity": 0.6141732283464567,
                    "duration": 0.16666674999999742
                },
                {
                    "name": "C#4",
                    "midi": 61,
                    "time": 35.33335099999998,
                    "velocity": 0.7244094488188977,
                    "duration": 0.5000002499999994
                },
                {
                    "name": "D4",
                    "midi": 62,
                    "time": 35.83335124999998,
                    "velocity": 0.6614173228346457,
                    "duration": 0.16666674999999742
                },
                {
                    "name": "D4",
                    "midi": 62,
                    "time": 36.000017999999976,
                    "velocity": 0.7559055118110236,
                    "duration": 0.5000002499999994
                },
                {
                    "name": "D4",
                    "midi": 62,
                    "time": 36.500018249999975,
                    "velocity": 0.6456692913385826,
                    "duration": 0.16666674999999742
                },
                {
                    "name": "D#4",
                    "midi": 63,
                    "time": 36.66668499999997,
                    "velocity": 0.7716535433070866,
                    "duration": 0.5000002499999994
                },
                {
                    "name": "D#4",
                    "midi": 63,
                    "time": 37.16668524999997,
                    "velocity": 0.6299212598425197,
                    "duration": 0.16666674999999742
                },
                {
                    "name": "D#4",
                    "midi": 63,
                    "time": 37.33335199999997,
                    "velocity": 0.8110236220472441,
                    "duration": 0.5000002499999994
                },
                {
                    "name": "D#4",
                    "midi": 63,
                    "time": 37.83335224999997,
                    "velocity": 0.6692913385826772,
                    "duration": 0.16666674999999742
                },
                {
                    "name": "D4",
                    "midi": 62,
                    "time": 38.000018999999966,
                    "velocity": 0.7637795275590551,
                    "duration": 0.5000002499999994
                },
                {
                    "name": "D#4",
                    "midi": 63,
                    "time": 38.500019249999966,
                    "velocity": 0.6141732283464567,
                    "duration": 0.16666674999999742
                },
                {
                    "name": "F4",
                    "midi": 65,
                    "time": 38.66668599999996,
                    "velocity": 0.7874015748031497,
                    "duration": 0.5000002499999994
                },
                {
                    "name": "F4",
                    "midi": 65,
                    "time": 39.16668624999996,
                    "velocity": 0.6456692913385826,
                    "duration": 0.16666674999999742
                },
                {
                    "name": "F#4",
                    "midi": 66,
                    "time": 39.33335299999996,
                    "velocity": 0.7480314960629921,
                    "duration": 0.5000002499999994
                },
                {
                    "name": "F4",
                    "midi": 65,
                    "time": 39.83335324999996,
                    "velocity": 0.6299212598425197,
                    "duration": 0.16666674999999742
                },
                {
                    "name": "D#4",
                    "midi": 63,
                    "time": 40.00001999999996,
                    "velocity": 0.8031496062992126,
                    "duration": 0.5000002499999994
                },
                {
                    "name": "D#4",
                    "midi": 63,
                    "time": 40.500020249999956,
                    "velocity": 0.6535433070866141,
                    "duration": 0.16666674999999742
                },
                {
                    "name": "D4",
                    "midi": 62,
                    "time": 40.66668699999995,
                    "velocity": 0.7559055118110236,
                    "duration": 0.5000002499999994
                },
                {
                    "name": "D#4",
                    "midi": 63,
                    "time": 41.16668724999995,
                    "velocity": 0.6614173228346457,
                    "duration": 0.16666674999999742
                },
                {
                    "name": "F4",
                    "midi": 65,
                    "time": 41.33335399999995,
                    "velocity": 0.7637795275590551,
                    "duration": 0.5000002499999994
                },
                {
                    "name": "F4",
                    "midi": 65,
                    "time": 41.83335424999995,
                    "velocity": 0.6220472440944882,
                    "duration": 0.16666674999999742
                },
                {
                    "name": "A#4",
                    "midi": 70,
                    "time": 42.00002099999995,
                    "velocity": 0.7322834645669292,
                    "duration": 0.5000002499999994
                },
                {
                    "name": "A#4",
                    "midi": 70,
                    "time": 42.500021249999946,
                    "velocity": 0.6377952755905512,
                    "duration": 0.16666674999999742
                },
                {
                    "name": "D#4",
                    "midi": 63,
                    "time": 42.666687999999944,
                    "velocity": 0.6299212598425197,
                    "duration": 0.5000002499999994
                },
                {
                    "name": "D#4",
                    "midi": 63,
                    "time": 43.16668824999994,
                    "velocity": 0.4881889763779528,
                    "duration": 0.16666674999999742
                },
                {
                    "name": "D4",
                    "midi": 62,
                    "time": 43.33335499999994,
                    "velocity": 0.6062992125984252,
                    "duration": 0.5000002499999994
                },
                {
                    "name": "D#4",
                    "midi": 63,
                    "time": 43.83335524999994,
                    "velocity": 0.5039370078740157,
                    "duration": 0.16666674999999742
                },
                {
                    "name": "F4",
                    "midi": 65,
                    "time": 44.00002199999994,
                    "velocity": 0.6377952755905512,
                    "duration": 0.5000002499999994
                },
                {
                    "name": "F4",
                    "midi": 65,
                    "time": 44.50002224999994,
                    "velocity": 0.5275590551181102,
                    "duration": 0.16666674999999742
                },
                {
                    "name": "F#4",
                    "midi": 66,
                    "time": 44.666688999999934,
                    "velocity": 0.6692913385826772,
                    "duration": 0.5000002499999994
                },
                {
                    "name": "F4",
                    "midi": 65,
                    "time": 45.16668924999993,
                    "velocity": 0.4881889763779528,
                    "duration": 0.16666674999999742
                },
                {
                    "name": "D#4",
                    "midi": 63,
                    "time": 45.33335599999993,
                    "velocity": 0.6377952755905512,
                    "duration": 0.5000002499999994
                },
                {
                    "name": "D#4",
                    "midi": 63,
                    "time": 45.83335624999993,
                    "velocity": 0.5196850393700787,
                    "duration": 0.16666674999999742
                },
                {
                    "name": "D4",
                    "midi": 62,
                    "time": 46.00002299999993,
                    "velocity": 0.6141732283464567,
                    "duration": 0.5000002499999994
                },
                {
                    "name": "D#4",
                    "midi": 63,
                    "time": 46.50002324999993,
                    "velocity": 0.5196850393700787,
                    "duration": 0.16666674999999742
                },
                {
                    "name": "F4",
                    "midi": 65,
                    "time": 46.666689999999925,
                    "velocity": 0.6614173228346457,
                    "duration": 0.5000002499999994
                },
                {
                    "name": "F4",
                    "midi": 65,
                    "time": 47.166690249999924,
                    "velocity": 0.5275590551181102,
                    "duration": 0.16666674999999742
                },
                {
                    "name": "F4",
                    "midi": 65,
                    "time": 47.33335699999992,
                    "velocity": 0.6771653543307087,
                    "duration": 0.5000002499999994
                },
                {
                    "name": "C#4",
                    "midi": 61,
                    "time": 47.83335724999992,
                    "velocity": 0.6062992125984252,
                    "duration": 0.16666674999999742
                },
                {
                    "name": "C#4",
                    "midi": 61,
                    "time": 48.00002399999992,
                    "velocity": 0.7244094488188977,
                    "duration": 0.5000002499999994
                },
                {
                    "name": "D4",
                    "midi": 62,
                    "time": 48.50002424999992,
                    "velocity": 0.5590551181102362,
                    "duration": 0.16666674999999742
                },
                {
                    "name": "C#4",
                    "midi": 61,
                    "time": 48.666690999999915,
                    "velocity": 0.6535433070866141,
                    "duration": 0.5000002499999994
                },
                {
                    "name": "F#4",
                    "midi": 66,
                    "time": 49.166691249999914,
                    "velocity": 0.5905511811023622,
                    "duration": 0.16666674999999742
                },
                {
                    "name": "F#4",
                    "midi": 66,
                    "time": 49.33335799999991,
                    "velocity": 0.7322834645669292,
                    "duration": 0.5000002499999994
                },
                {
                    "name": "F4",
                    "midi": 65,
                    "time": 49.83335824999991,
                    "velocity": 0.5511811023622047,
                    "duration": 0.16666674999999742
                },
                {
                    "name": "A4",
                    "midi": 69,
                    "time": 50.00002499999991,
                    "velocity": 0.6614173228346457,
                    "duration": 0.5000002499999994
                },
                {
                    "name": "G#4",
                    "midi": 68,
                    "time": 50.50002524999991,
                    "velocity": 0.5275590551181102,
                    "duration": 0.16666674999999742
                },
                {
                    "name": "C#4",
                    "midi": 61,
                    "time": 50.666691999999905,
                    "velocity": 0.7322834645669292,
                    "duration": 0.5000002499999994
                },
                {
                    "name": "D4",
                    "midi": 62,
                    "time": 51.166692249999905,
                    "velocity": 0.5511811023622047,
                    "duration": 0.16666674999999742
                },
                {
                    "name": "C#4",
                    "midi": 61,
                    "time": 51.3333589999999,
                    "velocity": 0.6771653543307087,
                    "duration": 0.5000002499999994
                },
                {
                    "name": "F#4",
                    "midi": 66,
                    "time": 51.8333592499999,
                    "velocity": 0.6220472440944882,
                    "duration": 0.16666674999999742
                },
                {
                    "name": "A4",
                    "midi": 69,
                    "time": 52.0000259999999,
                    "velocity": 0.7165354330708661,
                    "duration": 0.5000002499999994
                },
                {
                    "name": "G#4",
                    "midi": 68,
                    "time": 52.5000262499999,
                    "velocity": 0.5905511811023622,
                    "duration": 0.16666674999999742
                },
                {
                    "name": "C#5",
                    "midi": 73,
                    "time": 52.666692999999896,
                    "velocity": 0.7874015748031497,
                    "duration": 0.5000002499999994
                },
                {
                    "name": "B4",
                    "midi": 71,
                    "time": 53.166693249999895,
                    "velocity": 0.6141732283464567,
                    "duration": 0.16666674999999742
                },
                {
                    "name": "B4",
                    "midi": 71,
                    "time": 53.33335999999989,
                    "velocity": 0.7952755905511811,
                    "duration": 0.5000002499999994
                },
                {
                    "name": "A#4",
                    "midi": 70,
                    "time": 53.83336024999989,
                    "velocity": 0.6614173228346457,
                    "duration": 0.16666674999999742
                },
                {
                    "name": "D5",
                    "midi": 74,
                    "time": 54.00002699999989,
                    "velocity": 0.7716535433070866,
                    "duration": 0.5000002499999994
                },
                {
                    "name": "C#5",
                    "midi": 73,
                    "time": 54.50002724999989,
                    "velocity": 0.6220472440944882,
                    "duration": 0.16666674999999742
                },
                {
                    "name": "C#5",
                    "midi": 73,
                    "time": 54.666693999999886,
                    "velocity": 0.84251968503937,
                    "duration": 0.5000002499999994
                },
                {
                    "name": "C5",
                    "midi": 72,
                    "time": 55.166694249999885,
                    "velocity": 0.6614173228346457,
                    "duration": 0.16666674999999742
                },
                {
                    "name": "F5",
                    "midi": 77,
                    "time": 55.33336099999988,
                    "velocity": 0.8267716535433071,
                    "duration": 0.5000002499999994
                },
                {
                    "name": "F#5",
                    "midi": 78,
                    "time": 55.83336124999988,
                    "velocity": 0.6614173228346457,
                    "duration": 0.16666674999999742
                },
                {
                    "name": "G#5",
                    "midi": 80,
                    "time": 56.00002799999988,
                    "velocity": 0.8503937007874016,
                    "duration": 0.5000002499999994
                },
                {
                    "name": "A5",
                    "midi": 81,
                    "time": 56.50002824999988,
                    "velocity": 0.7480314960629921,
                    "duration": 0.16666674999999742
                },
                {
                    "name": "G#5",
                    "midi": 80,
                    "time": 56.666694999999876,
                    "velocity": 0.8346456692913385,
                    "duration": 0.5000002499999994
                },
                {
                    "name": "A5",
                    "midi": 81,
                    "time": 57.166695249999876,
                    "velocity": 0.7007874015748031,
                    "duration": 0.16666674999999742
                },
                {
                    "name": "G#5",
                    "midi": 80,
                    "time": 57.33336199999987,
                    "velocity": 0.8582677165354331,
                    "duration": 0.5000002499999994
                },
                {
                    "name": "A5",
                    "midi": 81,
                    "time": 57.83336224999987,
                    "velocity": 0.7244094488188977,
                    "duration": 0.16666674999999742
                },
                {
                    "name": "G#5",
                    "midi": 80,
                    "time": 58.00002899999987,
                    "velocity": 0.8188976377952756,
                    "duration": 0.5000002499999994
                },
                {
                    "name": "A5",
                    "midi": 81,
                    "time": 58.50002924999987,
                    "velocity": 0.6771653543307087,
                    "duration": 0.16666674999999742
                },
                {
                    "name": "A5",
                    "midi": 81,
                    "time": 58.66669599999987,
                    "velocity": 0.8582677165354331,
                    "duration": 0.5000002499999994
                },
                {
                    "name": "A5",
                    "midi": 81,
                    "time": 59.166696249999866,
                    "velocity": 0.7086614173228346,
                    "duration": 0.16666674999999742
                },
                {
                    "name": "G#5",
                    "midi": 80,
                    "time": 59.33336299999986,
                    "velocity": 0.8267716535433071,
                    "duration": 0.5000002499999994
                },
                {
                    "name": "G#5",
                    "midi": 80,
                    "time": 59.83336324999986,
                    "velocity": 0.6771653543307087,
                    "duration": 0.16666674999999742
                },
                {
                    "name": "E5",
                    "midi": 76,
                    "time": 60.00002999999986,
                    "velocity": 0.8346456692913385,
                    "duration": 0.5000002499999994
                },
                {
                    "name": "E5",
                    "midi": 76,
                    "time": 60.50003024999986,
                    "velocity": 0.7401574803149606,
                    "duration": 0.16666674999999742
                },
                {
                    "name": "C#5",
                    "midi": 73,
                    "time": 60.66669699999986,
                    "velocity": 0.7874015748031497,
                    "duration": 0.5000002499999994
                },
                {
                    "name": "C#5",
                    "midi": 73,
                    "time": 61.16669724999986,
                    "velocity": 0.6771653543307087,
                    "duration": 0.16666674999999742
                },
                {
                    "name": "G#4",
                    "midi": 68,
                    "time": 61.333363999999854,
                    "velocity": 0.7874015748031497,
                    "duration": 0.5000002499999994
                },
                {
                    "name": "G#4",
                    "midi": 68,
                    "time": 61.83336424999985,
                    "velocity": 0.6614173228346457,
                    "duration": 0.16666674999999742
                },
                {
                    "name": "F#4",
                    "midi": 66,
                    "time": 62.00003099999985,
                    "velocity": 0.7559055118110236,
                    "duration": 0.5000002499999994
                },
                {
                    "name": "F#4",
                    "midi": 66,
                    "time": 62.50003124999985,
                    "velocity": 0.6535433070866141,
                    "duration": 0.16666674999999742
                },
                {
                    "name": "E4",
                    "midi": 64,
                    "time": 62.66669799999985,
                    "velocity": 0.7874015748031497,
                    "duration": 0.5000002499999994
                },
                {
                    "name": "E4",
                    "midi": 64,
                    "time": 63.16669824999985,
                    "velocity": 0.6220472440944882,
                    "duration": 0.16666674999999742
                },
                {
                    "name": "D4",
                    "midi": 62,
                    "time": 63.333364999999844,
                    "velocity": 0.7086614173228346,
                    "duration": 0.5000002499999994
                },
                {
                    "name": "D4",
                    "midi": 62,
                    "time": 63.833365249999844,
                    "velocity": 0.5984251968503937,
                    "duration": 0.16666675000000453
                },
                {
                    "name": "C#4",
                    "midi": 61,
                    "time": 64.00003199999985,
                    "velocity": 0.7007874015748031,
                    "duration": 0.5000002499999994
                },
                {
                    "name": "C#4",
                    "midi": 61,
                    "time": 64.50003224999985,
                    "velocity": 0.5748031496062992,
                    "duration": 0.16666675000000453
                },
                {
                    "name": "C#4",
                    "midi": 61,
                    "time": 64.66669899999985,
                    "velocity": 0.6850393700787402,
                    "duration": 0.5000002499999994
                },
                {
                    "name": "C#4",
                    "midi": 61,
                    "time": 65.16669924999985,
                    "velocity": 0.5748031496062992,
                    "duration": 0.16666675000000453
                },
                {
                    "name": "C#4",
                    "midi": 61,
                    "time": 65.33336599999986,
                    "velocity": 0.7007874015748031,
                    "duration": 0.5000002499999994
                },
                {
                    "name": "C#4",
                    "midi": 61,
                    "time": 65.83336624999986,
                    "velocity": 0.5669291338582677,
                    "duration": 0.16666675000000453
                },
                {
                    "name": "C#4",
                    "midi": 61,
                    "time": 66.00003299999986,
                    "velocity": 0.6692913385826772,
                    "duration": 0.5000002499999994
                },
                {
                    "name": "C#4",
                    "midi": 61,
                    "time": 66.50003324999986,
                    "velocity": 0.48031496062992124,
                    "duration": 0.16666675000000453
                },
                {
                    "name": "C#4",
                    "midi": 61,
                    "time": 66.66669999999986,
                    "velocity": 0.7007874015748031,
                    "duration": 0.5000002499999994
                },
                {
                    "name": "C#4",
                    "midi": 61,
                    "time": 67.16670024999986,
                    "velocity": 0.4566929133858268,
                    "duration": 0.16666675000000453
                },
                {
                    "name": "C#4",
                    "midi": 61,
                    "time": 67.33336699999987,
                    "velocity": 0.6220472440944882,
                    "duration": 0.5000002499999994
                },
                {
                    "name": "C#4",
                    "midi": 61,
                    "time": 67.83336724999987,
                    "velocity": 0.4566929133858268,
                    "duration": 0.16666675000000453
                },
                {
                    "name": "C#4",
                    "midi": 61,
                    "time": 68.00003399999987,
                    "velocity": 0.6220472440944882,
                    "duration": 0.5000002499999994
                },
                {
                    "name": "C#4",
                    "midi": 61,
                    "time": 68.50003424999987,
                    "velocity": 0.4330708661417323,
                    "duration": 0.16666675000000453
                },
                {
                    "name": "C#4",
                    "midi": 61,
                    "time": 68.66670099999988,
                    "velocity": 0.5748031496062992,
                    "duration": 0.5000002499999994
                },
                {
                    "name": "C#4",
                    "midi": 61,
                    "time": 69.16670124999987,
                    "velocity": 0.3937007874015748,
                    "duration": 0.16666675000000453
                },
                {
                    "name": "C#4",
                    "midi": 61,
                    "time": 69.33336799999988,
                    "velocity": 0.5433070866141733,
                    "duration": 0.5000002499999994
                },
                {
                    "name": "C#4",
                    "midi": 61,
                    "time": 69.83336824999988,
                    "velocity": 0.4094488188976378,
                    "duration": 0.16666675000000453
                },
                {
                    "name": "C#4",
                    "midi": 61,
                    "time": 70.00003499999988,
                    "velocity": 0.5354330708661418,
                    "duration": 0.5000002499999994
                },
                {
                    "name": "C#4",
                    "midi": 61,
                    "time": 70.50003524999988,
                    "velocity": 0.3937007874015748,
                    "duration": 0.16666675000000453
                },
                {
                    "name": "C#4",
                    "midi": 61,
                    "time": 70.66670199999989,
                    "velocity": 0.5433070866141733,
                    "duration": 0.5000002499999994
                },
                {
                    "name": "C#4",
                    "midi": 61,
                    "time": 71.16670224999989,
                    "velocity": 0.3858267716535433,
                    "duration": 0.16666675000000453
                },
                {
                    "name": "C#4",
                    "midi": 61,
                    "time": 71.33336899999989,
                    "velocity": 0.5590551181102362,
                    "duration": 0.5000002499999994
                },
                {
                    "name": "C#4",
                    "midi": 61,
                    "time": 71.83336924999989,
                    "velocity": 0.3858267716535433,
                    "duration": 0.16666675000000453
                },
                {
                    "name": "D4",
                    "midi": 62,
                    "time": 72.0000359999999,
                    "velocity": 0.5196850393700787,
                    "duration": 0.5000002499999994
                },
                {
                    "name": "D4",
                    "midi": 62,
                    "time": 72.5000362499999,
                    "velocity": 0.3858267716535433,
                    "duration": 0.16666675000000453
                },
                {
                    "name": "D4",
                    "midi": 62,
                    "time": 72.6667029999999,
                    "velocity": 0.49606299212598426,
                    "duration": 0.5000002499999994
                },
                {
                    "name": "D4",
                    "midi": 62,
                    "time": 73.1667032499999,
                    "velocity": 0.3858267716535433,
                    "duration": 0.16666675000000453
                },
                {
                    "name": "D4",
                    "midi": 62,
                    "time": 73.3333699999999,
                    "velocity": 0.5433070866141733,
                    "duration": 0.5000002499999994
                },
                {
                    "name": "D4",
                    "midi": 62,
                    "time": 73.8333702499999,
                    "velocity": 0.3937007874015748,
                    "duration": 0.16666675000000453
                },
                {
                    "name": "F#4",
                    "midi": 66,
                    "time": 74.0000369999999,
                    "velocity": 0.5590551181102362,
                    "duration": 0.5000002499999994
                },
                {
                    "name": "D4",
                    "midi": 62,
                    "time": 74.5000372499999,
                    "velocity": 0.3700787401574803,
                    "duration": 0.16666675000000453
                },
                {
                    "name": "C#4",
                    "midi": 61,
                    "time": 74.66670399999991,
                    "velocity": 0.4645669291338583,
                    "duration": 0.5000002499999994
                },
                {
                    "name": "C#4",
                    "midi": 61,
                    "time": 75.16670424999991,
                    "velocity": 0.3228346456692913,
                    "duration": 0.16666675000000453
                },
                {
                    "name": "C#4",
                    "midi": 61,
                    "time": 75.33337099999991,
                    "velocity": 0.4566929133858268,
                    "duration": 0.5000002499999994
                },
                {
                    "name": "C#4",
                    "midi": 61,
                    "time": 75.83337124999991,
                    "velocity": 0.3228346456692913,
                    "duration": 0.16666675000000453
                },
                {
                    "name": "C#4",
                    "midi": 61,
                    "time": 76.00003799999992,
                    "velocity": 0.4566929133858268,
                    "duration": 0.5000002499999994
                },
                {
                    "name": "C#4",
                    "midi": 61,
                    "time": 76.50003824999992,
                    "velocity": 0.31496062992125984,
                    "duration": 0.16666675000000453
                },
                {
                    "name": "C#4",
                    "midi": 61,
                    "time": 76.66670499999992,
                    "velocity": 0.4566929133858268,
                    "duration": 0.5000002499999994
                },
                {
                    "name": "C#4",
                    "midi": 61,
                    "time": 77.16670524999992,
                    "velocity": 0.28346456692913385,
                    "duration": 0.16666675000000453
                },
                {
                    "name": "D#4",
                    "midi": 63,
                    "time": 77.33337199999993,
                    "velocity": 0.4409448818897638,
                    "duration": 0.5000002499999994
                },
                {
                    "name": "D#4",
                    "midi": 63,
                    "time": 77.83337224999993,
                    "velocity": 0.2992125984251969,
                    "duration": 0.16666675000000453
                },
                {
                    "name": "D#4",
                    "midi": 63,
                    "time": 78.00003899999993,
                    "velocity": 0.4566929133858268,
                    "duration": 0.5000002499999994
                },
                {
                    "name": "D#4",
                    "midi": 63,
                    "time": 78.50003924999993,
                    "velocity": 0.31496062992125984,
                    "duration": 0.16666675000000453
                },
                {
                    "name": "D#4",
                    "midi": 63,
                    "time": 78.66670599999993,
                    "velocity": 0.48031496062992124,
                    "duration": 0.5000002499999994
                },
                {
                    "name": "D#4",
                    "midi": 63,
                    "time": 79.16670624999993,
                    "velocity": 0.3228346456692913,
                    "duration": 0.16666675000000453
                },
                {
                    "name": "F#4",
                    "midi": 66,
                    "time": 79.33337299999994,
                    "velocity": 0.49606299212598426,
                    "duration": 0.5000002499999994
                },
                {
                    "name": "D#4",
                    "midi": 63,
                    "time": 79.83337324999994,
                    "velocity": 0.29133858267716534,
                    "duration": 0.16666675000000453
                },
                {
                    "name": "C#4",
                    "midi": 61,
                    "time": 80.00003999999994,
                    "velocity": 0.44881889763779526,
                    "duration": 0.5000002499999994
                },
                {
                    "name": "C#4",
                    "midi": 61,
                    "time": 80.50004024999994,
                    "velocity": 0.29133858267716534,
                    "duration": 0.16666675000000453
                },
                {
                    "name": "C#4",
                    "midi": 61,
                    "time": 80.66670699999995,
                    "velocity": 0.4409448818897638,
                    "duration": 0.5000002499999994
                },
                {
                    "name": "C#4",
                    "midi": 61,
                    "time": 81.16670724999994,
                    "velocity": 0.29133858267716534,
                    "duration": 0.16666675000000453
                },
                {
                    "name": "C#4",
                    "midi": 61,
                    "time": 81.33337399999995,
                    "velocity": 0.44881889763779526,
                    "duration": 0.5000002499999994
                },
                {
                    "name": "C#4",
                    "midi": 61,
                    "time": 81.83337424999995,
                    "velocity": 0.3228346456692913,
                    "duration": 0.16666675000000453
                },
                {
                    "name": "C#4",
                    "midi": 61,
                    "time": 82.00004099999995,
                    "velocity": 0.48031496062992124,
                    "duration": 0.5000002499999994
                },
                {
                    "name": "C#4",
                    "midi": 61,
                    "time": 82.50004124999995,
                    "velocity": 0.2992125984251969,
                    "duration": 0.16666675000000453
                },
                {
                    "name": "C#4",
                    "midi": 61,
                    "time": 82.66670799999996,
                    "velocity": 0.4566929133858268,
                    "duration": 0.5000002499999994
                },
                {
                    "name": "C#4",
                    "midi": 61,
                    "time": 83.16670824999996,
                    "velocity": 0.2992125984251969,
                    "duration": 0.16666675000000453
                },
                {
                    "name": "C#4",
                    "midi": 61,
                    "time": 83.33337499999996,
                    "velocity": 0.4330708661417323,
                    "duration": 0.5000002499999994
                },
                {
                    "name": "C#4",
                    "midi": 61,
                    "time": 83.83337524999996,
                    "velocity": 0.2677165354330709,
                    "duration": 0.16666675000000453
                },
                {
                    "name": "C#4",
                    "midi": 61,
                    "time": 84.00004199999997,
                    "velocity": 0.3858267716535433,
                    "duration": 0.5000002499999994
                },
                {
                    "name": "C#4",
                    "midi": 61,
                    "time": 84.50004224999996,
                    "velocity": 0.2677165354330709,
                    "duration": 0.16666675000000453
                },
                {
                    "name": "C#4",
                    "midi": 61,
                    "time": 84.66670899999997,
                    "velocity": 0.3464566929133858,
                    "duration": 0.5000002499999994
                },
                {
                    "name": "C#4",
                    "midi": 61,
                    "time": 85.16670924999997,
                    "velocity": 0.28346456692913385,
                    "duration": 0.16666675000000453
                },
                {
                    "name": "C#5",
                    "midi": 73,
                    "time": 85.33337599999997,
                    "velocity": 0.36220472440944884,
                    "duration": 1.3333339999999936
                },
                {
                    "name": "E4",
                    "midi": 64,
                    "time": 85.33337599999997,
                    "velocity": 0.30708661417322836,
                    "duration": 1.3333339999999936
                },
                {
                    "name": "C#4",
                    "midi": 61,
                    "time": 85.33337599999997,
                    "velocity": 0.30708661417322836,
                    "duration": 1.3333339999999936
                },
                {
                    "name": "D4",
                    "midi": 62,
                    "time": 86.66670999999997,
                    "velocity": 0.28346456692913385,
                    "duration": 0.6666670000000039
                },
                {
                    "name": "G4",
                    "midi": 67,
                    "time": 86.66670999999997,
                    "velocity": 0.28346456692913385,
                    "duration": 0.6666670000000039
                },
                {
                    "name": "B4",
                    "midi": 71,
                    "time": 86.66670999999997,
                    "velocity": 0.33858267716535434,
                    "duration": 0.6666670000000039
                },
                {
                    "name": "B3",
                    "midi": 59,
                    "time": 87.33337699999997,
                    "velocity": 0.25984251968503935,
                    "duration": 0.6666670000000039
                },
                {
                    "name": "C#4",
                    "midi": 61,
                    "time": 87.33337699999997,
                    "velocity": 0.25984251968503935,
                    "duration": 0.6666670000000039
                },
                {
                    "name": "F4",
                    "midi": 65,
                    "time": 87.33337699999997,
                    "velocity": 0.30708661417322836,
                    "duration": 0.6666670000000039
                },
                {
                    "name": "F4",
                    "midi": 65,
                    "time": 88.00004399999997,
                    "velocity": 0.2283464566929134,
                    "duration": 0.16666675000000453
                },
                {
                    "name": "C#4",
                    "midi": 61,
                    "time": 88.66671099999998,
                    "velocity": 0.1968503937007874,
                    "duration": 2.0000010000000117
                },
                {
                    "name": "F#4",
                    "midi": 66,
                    "time": 88.83337774999998,
                    "velocity": 0.1732283464566929,
                    "duration": 1.8333342500000072
                }
            ],
            "controlChanges": {
                "7": [
                    {
                        "number": 7,
                        "time": 0,
                        "value": 0.7874015748031497
                    }
                ],
                "10": [
                    {
                        "number": 10,
                        "time": 0,
                        "value": 0.5039370078740157
                    }
                ],
                "91": [
                    {
                        "number": 91,
                        "time": 0,
                        "value": 1
                    }
                ]
            },
            "id": 2,
            "name": "Piano right Main",
            "instrumentNumber": 0,
            "instrument": "acoustic grand piano",
            "instrumentFamily": "piano",
            "channelNumber": 0,
            "isPercussion": false
        },
        {
            "startTime": 0,
            "duration": 90.66671199999942,
            "length": 522,
            "notes": [
                {
                    "name": "A3",
                    "midi": 57,
                    "time": 0,
                    "velocity": 0.3464566929133858,
                    "duration": 0.11111116666666666
                },
                {
                    "name": "C#3",
                    "midi": 49,
                    "time": 0.11111116666666666,
                    "velocity": 0.29133858267716534,
                    "duration": 0.11111116666666666
                },
                {
                    "name": "F#3",
                    "midi": 54,
                    "time": 0.22222233333333333,
                    "velocity": 0.30708661417322836,
                    "duration": 0.11111116666666668
                },
                {
                    "name": "F#2",
                    "midi": 42,
                    "time": 0.3333335,
                    "velocity": 0.2677165354330709,
                    "duration": 0.3333335
                },
                {
                    "name": "A3",
                    "midi": 57,
                    "time": 0.666667,
                    "velocity": 0.3700787401574803,
                    "duration": 0.11111116666666665
                },
                {
                    "name": "C#3",
                    "midi": 49,
                    "time": 0.7777781666666667,
                    "velocity": 0.31496062992125984,
                    "duration": 0.11111116666666665
                },
                {
                    "name": "F#3",
                    "midi": 54,
                    "time": 0.8888893333333333,
                    "velocity": 0.3464566929133858,
                    "duration": 0.11111116666666676
                },
                {
                    "name": "A2",
                    "midi": 45,
                    "time": 1.0000005,
                    "velocity": 0.29133858267716534,
                    "duration": 0.33333349999999995
                },
                {
                    "name": "D4",
                    "midi": 62,
                    "time": 1.333334,
                    "velocity": 0.44881889763779526,
                    "duration": 0.11111116666666665
                },
                {
                    "name": "G#3",
                    "midi": 56,
                    "time": 1.4444451666666667,
                    "velocity": 0.3858267716535433,
                    "duration": 0.11111116666666665
                },
                {
                    "name": "B3",
                    "midi": 59,
                    "time": 1.5555563333333333,
                    "velocity": 0.4094488188976378,
                    "duration": 0.11111116666666665
                },
                {
                    "name": "D3",
                    "midi": 50,
                    "time": 1.6666675,
                    "velocity": 0.3543307086614173,
                    "duration": 0.33333350000000017
                },
                {
                    "name": "C#4",
                    "midi": 61,
                    "time": 2.000001,
                    "velocity": 0.41732283464566927,
                    "duration": 0.11111116666666643
                },
                {
                    "name": "F3",
                    "midi": 53,
                    "time": 2.1111121666666666,
                    "velocity": 0.33070866141732286,
                    "duration": 0.11111116666666687
                },
                {
                    "name": "B3",
                    "midi": 59,
                    "time": 2.2222233333333334,
                    "velocity": 0.3937007874015748,
                    "duration": 0.11111116666666687
                },
                {
                    "name": "C#3",
                    "midi": 49,
                    "time": 2.3333345000000003,
                    "velocity": 0.30708661417322836,
                    "duration": 0.33333350000000017
                },
                {
                    "name": "A3",
                    "midi": 57,
                    "time": 2.6666680000000005,
                    "velocity": 0.41732283464566927,
                    "duration": 0.11111116666666687
                },
                {
                    "name": "C#3",
                    "midi": 49,
                    "time": 2.7777791666666674,
                    "velocity": 0.30708661417322836,
                    "duration": 0.11111116666666687
                },
                {
                    "name": "F#3",
                    "midi": 54,
                    "time": 2.8888903333333342,
                    "velocity": 0.3779527559055118,
                    "duration": 0.11111116666666687
                },
                {
                    "name": "F#2",
                    "midi": 42,
                    "time": 3.000001500000001,
                    "velocity": 0.28346456692913385,
                    "duration": 0.33333350000000017
                },
                {
                    "name": "A3",
                    "midi": 57,
                    "time": 3.3333350000000013,
                    "velocity": 0.4015748031496063,
                    "duration": 0.11111116666666687
                },
                {
                    "name": "C#3",
                    "midi": 49,
                    "time": 3.444446166666668,
                    "velocity": 0.2992125984251969,
                    "duration": 0.11111116666666687
                },
                {
                    "name": "F#3",
                    "midi": 54,
                    "time": 3.555557333333335,
                    "velocity": 0.36220472440944884,
                    "duration": 0.11111116666666687
                },
                {
                    "name": "A2",
                    "midi": 45,
                    "time": 3.666668500000002,
                    "velocity": 0.28346456692913385,
                    "duration": 0.33333350000000017
                },
                {
                    "name": "D4",
                    "midi": 62,
                    "time": 4.000002000000002,
                    "velocity": 0.44881889763779526,
                    "duration": 0.11111116666666643
                },
                {
                    "name": "G#3",
                    "midi": 56,
                    "time": 4.1111131666666685,
                    "velocity": 0.3543307086614173,
                    "duration": 0.11111116666666643
                },
                {
                    "name": "B3",
                    "midi": 59,
                    "time": 4.222224333333335,
                    "velocity": 0.4015748031496063,
                    "duration": 0.11111116666666643
                },
                {
                    "name": "D3",
                    "midi": 50,
                    "time": 4.333335500000001,
                    "velocity": 0.3228346456692913,
                    "duration": 0.33333350000000017
                },
                {
                    "name": "C#4",
                    "midi": 61,
                    "time": 4.6666690000000015,
                    "velocity": 0.3937007874015748,
                    "duration": 0.11111116666666643
                },
                {
                    "name": "F3",
                    "midi": 53,
                    "time": 4.777780166666668,
                    "velocity": 0.3228346456692913,
                    "duration": 0.11111116666666643
                },
                {
                    "name": "B3",
                    "midi": 59,
                    "time": 4.888891333333334,
                    "velocity": 0.3464566929133858,
                    "duration": 0.11111116666666643
                },
                {
                    "name": "C#3",
                    "midi": 49,
                    "time": 5.000002500000001,
                    "velocity": 0.29133858267716534,
                    "duration": 0.33333350000000017
                },
                {
                    "name": "A4",
                    "midi": 69,
                    "time": 5.333336000000001,
                    "velocity": 0.44881889763779526,
                    "duration": 0.11111116666666732
                },
                {
                    "name": "D#4",
                    "midi": 63,
                    "time": 5.444447166666668,
                    "velocity": 0.36220472440944884,
                    "duration": 0.11111116666666643
                },
                {
                    "name": "F#4",
                    "midi": 66,
                    "time": 5.555558333333335,
                    "velocity": 0.4330708661417323,
                    "duration": 0.11111116666666643
                },
                {
                    "name": "A3",
                    "midi": 57,
                    "time": 5.666669500000001,
                    "velocity": 0.3858267716535433,
                    "duration": 0.33333350000000017
                },
                {
                    "name": "G#4",
                    "midi": 68,
                    "time": 6.000003000000001,
                    "velocity": 0.44881889763779526,
                    "duration": 0.11111116666666643
                },
                {
                    "name": "D#4",
                    "midi": 63,
                    "time": 6.111114166666668,
                    "velocity": 0.3937007874015748,
                    "duration": 0.11111116666666643
                },
                {
                    "name": "F#4",
                    "midi": 66,
                    "time": 6.222225333333334,
                    "velocity": 0.44881889763779526,
                    "duration": 0.11111116666666643
                },
                {
                    "name": "G#3",
                    "midi": 56,
                    "time": 6.333336500000001,
                    "velocity": 0.36220472440944884,
                    "duration": 0.33333350000000017
                },
                {
                    "name": "G4",
                    "midi": 67,
                    "time": 6.666670000000001,
                    "velocity": 0.4645669291338583,
                    "duration": 0.11111116666666643
                },
                {
                    "name": "C#4",
                    "midi": 61,
                    "time": 6.777781166666667,
                    "velocity": 0.3858267716535433,
                    "duration": 0.11111116666666643
                },
                {
                    "name": "E4",
                    "midi": 64,
                    "time": 6.888892333333334,
                    "velocity": 0.44881889763779526,
                    "duration": 0.11111116666666643
                },
                {
                    "name": "G3",
                    "midi": 55,
                    "time": 7.0000035,
                    "velocity": 0.3464566929133858,
                    "duration": 0.33333350000000017
                },
                {
                    "name": "F#4",
                    "midi": 66,
                    "time": 7.333337,
                    "velocity": 0.44881889763779526,
                    "duration": 0.11111116666666643
                },
                {
                    "name": "C#4",
                    "midi": 61,
                    "time": 7.444448166666667,
                    "velocity": 0.3700787401574803,
                    "duration": 0.11111116666666643
                },
                {
                    "name": "E4",
                    "midi": 64,
                    "time": 7.555559333333333,
                    "velocity": 0.41732283464566927,
                    "duration": 0.11111116666666643
                },
                {
                    "name": "F#3",
                    "midi": 54,
                    "time": 7.6666704999999995,
                    "velocity": 0.36220472440944884,
                    "duration": 0.3333334999999993
                },
                {
                    "name": "F4",
                    "midi": 65,
                    "time": 8.000003999999999,
                    "velocity": 0.4566929133858268,
                    "duration": 0.11111116666666732
                },
                {
                    "name": "C4",
                    "midi": 60,
                    "time": 8.111115166666666,
                    "velocity": 0.3858267716535433,
                    "duration": 0.11111116666666732
                },
                {
                    "name": "D#4",
                    "midi": 63,
                    "time": 8.222226333333333,
                    "velocity": 0.4330708661417323,
                    "duration": 0.11111116666666732
                },
                {
                    "name": "F3",
                    "midi": 53,
                    "time": 8.3333375,
                    "velocity": 0.3543307086614173,
                    "duration": 0.33333350000000017
                },
                {
                    "name": "F4",
                    "midi": 65,
                    "time": 8.666671000000001,
                    "velocity": 0.4330708661417323,
                    "duration": 0.11111116666666554
                },
                {
                    "name": "B3",
                    "midi": 59,
                    "time": 8.777782166666666,
                    "velocity": 0.3779527559055118,
                    "duration": 0.11111116666666732
                },
                {
                    "name": "D4",
                    "midi": 62,
                    "time": 8.888893333333334,
                    "velocity": 0.4094488188976378,
                    "duration": 0.11111116666666732
                },
                {
                    "name": "F3",
                    "midi": 53,
                    "time": 9.000004500000001,
                    "velocity": 0.36220472440944884,
                    "duration": 0.33333350000000017
                },
                {
                    "name": "D4",
                    "midi": 62,
                    "time": 9.333338000000001,
                    "velocity": 0.44881889763779526,
                    "duration": 0.11111116666666554
                },
                {
                    "name": "G#3",
                    "midi": 56,
                    "time": 9.444449166666667,
                    "velocity": 0.4015748031496063,
                    "duration": 0.11111116666666732
                },
                {
                    "name": "B3",
                    "midi": 59,
                    "time": 9.555560333333334,
                    "velocity": 0.41732283464566927,
                    "duration": 0.11111116666666732
                },
                {
                    "name": "D3",
                    "midi": 50,
                    "time": 9.666671500000001,
                    "velocity": 0.3779527559055118,
                    "duration": 0.33333350000000017
                },
                {
                    "name": "B3",
                    "midi": 59,
                    "time": 10.000005000000002,
                    "velocity": 0.4566929133858268,
                    "duration": 0.11111116666666732
                },
                {
                    "name": "C#3",
                    "midi": 49,
                    "time": 10.111116166666669,
                    "velocity": 0.36220472440944884,
                    "duration": 0.11111116666666732
                },
                {
                    "name": "F3",
                    "midi": 53,
                    "time": 10.222227333333336,
                    "velocity": 0.4015748031496063,
                    "duration": 0.11111116666666732
                },
                {
                    "name": "C#2",
                    "midi": 37,
                    "time": 10.333338500000004,
                    "velocity": 0.33070866141732286,
                    "duration": 0.33333350000000017
                },
                {
                    "name": "A3",
                    "midi": 57,
                    "time": 10.666672000000004,
                    "velocity": 0.4409448818897638,
                    "duration": 0.11111116666666732
                },
                {
                    "name": "C#3",
                    "midi": 49,
                    "time": 10.777783166666671,
                    "velocity": 0.3464566929133858,
                    "duration": 0.11111116666666732
                },
                {
                    "name": "F#3",
                    "midi": 54,
                    "time": 10.888894333333338,
                    "velocity": 0.3937007874015748,
                    "duration": 0.11111116666666732
                },
                {
                    "name": "F#2",
                    "midi": 42,
                    "time": 11.000005500000006,
                    "velocity": 0.2992125984251969,
                    "duration": 0.33333350000000017
                },
                {
                    "name": "A3",
                    "midi": 57,
                    "time": 11.333339000000006,
                    "velocity": 0.4645669291338583,
                    "duration": 0.11111116666666732
                },
                {
                    "name": "C#3",
                    "midi": 49,
                    "time": 11.444450166666673,
                    "velocity": 0.3858267716535433,
                    "duration": 0.11111116666666732
                },
                {
                    "name": "F#3",
                    "midi": 54,
                    "time": 11.55556133333334,
                    "velocity": 0.41732283464566927,
                    "duration": 0.11111116666666732
                },
                {
                    "name": "A2",
                    "midi": 45,
                    "time": 11.666672500000008,
                    "velocity": 0.3543307086614173,
                    "duration": 0.33333350000000017
                },
                {
                    "name": "D4",
                    "midi": 62,
                    "time": 12.000006000000008,
                    "velocity": 0.47244094488188976,
                    "duration": 0.11111116666666554
                },
                {
                    "name": "G#3",
                    "midi": 56,
                    "time": 12.111117166666673,
                    "velocity": 0.3858267716535433,
                    "duration": 0.11111116666666732
                },
                {
                    "name": "B3",
                    "midi": 59,
                    "time": 12.22222833333334,
                    "velocity": 0.4330708661417323,
                    "duration": 0.11111116666666732
                },
                {
                    "name": "D3",
                    "midi": 50,
                    "time": 12.333339500000008,
                    "velocity": 0.3464566929133858,
                    "duration": 0.33333350000000017
                },
                {
                    "name": "C#4",
                    "midi": 61,
                    "time": 12.666673000000008,
                    "velocity": 0.4409448818897638,
                    "duration": 0.11111116666666732
                },
                {
                    "name": "F3",
                    "midi": 53,
                    "time": 12.777784166666676,
                    "velocity": 0.30708661417322836,
                    "duration": 0.11111116666666732
                },
                {
                    "name": "B3",
                    "midi": 59,
                    "time": 12.888895333333343,
                    "velocity": 0.3779527559055118,
                    "duration": 0.11111116666666732
                },
                {
                    "name": "C#3",
                    "midi": 49,
                    "time": 13.00000650000001,
                    "velocity": 0.29133858267716534,
                    "duration": 0.33333350000000017
                },
                {
                    "name": "A3",
                    "midi": 57,
                    "time": 13.33334000000001,
                    "velocity": 0.4566929133858268,
                    "duration": 0.11111116666666732
                },
                {
                    "name": "C#3",
                    "midi": 49,
                    "time": 13.444451166666678,
                    "velocity": 0.31496062992125984,
                    "duration": 0.11111116666666732
                },
                {
                    "name": "F#3",
                    "midi": 54,
                    "time": 13.555562333333345,
                    "velocity": 0.3937007874015748,
                    "duration": 0.11111116666666732
                },
                {
                    "name": "F#2",
                    "midi": 42,
                    "time": 13.666673500000012,
                    "velocity": 0.31496062992125984,
                    "duration": 0.33333350000000017
                },
                {
                    "name": "A3",
                    "midi": 57,
                    "time": 14.000007000000013,
                    "velocity": 0.44881889763779526,
                    "duration": 0.11111116666666554
                },
                {
                    "name": "C#3",
                    "midi": 49,
                    "time": 14.111118166666678,
                    "velocity": 0.31496062992125984,
                    "duration": 0.11111116666666732
                },
                {
                    "name": "F#3",
                    "midi": 54,
                    "time": 14.222229333333345,
                    "velocity": 0.3779527559055118,
                    "duration": 0.11111116666666732
                },
                {
                    "name": "A2",
                    "midi": 45,
                    "time": 14.333340500000013,
                    "velocity": 0.30708661417322836,
                    "duration": 0.33333350000000017
                },
                {
                    "name": "F4",
                    "midi": 65,
                    "time": 14.666674000000013,
                    "velocity": 0.47244094488188976,
                    "duration": 0.11111116666666732
                },
                {
                    "name": "B3",
                    "midi": 59,
                    "time": 14.77778516666668,
                    "velocity": 0.33070866141732286,
                    "duration": 0.11111116666666732
                },
                {
                    "name": "D4",
                    "midi": 62,
                    "time": 14.888896333333347,
                    "velocity": 0.3858267716535433,
                    "duration": 0.11111116666666732
                },
                {
                    "name": "F3",
                    "midi": 53,
                    "time": 15.000007500000015,
                    "velocity": 0.3228346456692913,
                    "duration": 0.33333350000000017
                },
                {
                    "name": "E4",
                    "midi": 64,
                    "time": 15.333341000000015,
                    "velocity": 0.4566929133858268,
                    "duration": 0.11111116666666732
                },
                {
                    "name": "G#3",
                    "midi": 56,
                    "time": 15.444452166666682,
                    "velocity": 0.3464566929133858,
                    "duration": 0.11111116666666732
                },
                {
                    "name": "D4",
                    "midi": 62,
                    "time": 15.55556333333335,
                    "velocity": 0.3937007874015748,
                    "duration": 0.11111116666666732
                },
                {
                    "name": "E3",
                    "midi": 52,
                    "time": 15.666674500000017,
                    "velocity": 0.33070866141732286,
                    "duration": 0.3333334999999984
                },
                {
                    "name": "C5",
                    "midi": 72,
                    "time": 16.000008000000015,
                    "velocity": 0.4566929133858268,
                    "duration": 0.11111116666667087
                },
                {
                    "name": "F#4",
                    "midi": 66,
                    "time": 16.111119166666686,
                    "velocity": 0.36220472440944884,
                    "duration": 0.11111116666666732
                },
                {
                    "name": "A4",
                    "midi": 69,
                    "time": 16.222230333333354,
                    "velocity": 0.3937007874015748,
                    "duration": 0.11111116666666732
                },
                {
                    "name": "C4",
                    "midi": 60,
                    "time": 16.33334150000002,
                    "velocity": 0.33070866141732286,
                    "duration": 0.3333334999999984
                },
                {
                    "name": "B4",
                    "midi": 71,
                    "time": 16.66667500000002,
                    "velocity": 0.4645669291338583,
                    "duration": 0.11111116666666732
                },
                {
                    "name": "F#4",
                    "midi": 66,
                    "time": 16.777786166666687,
                    "velocity": 0.36220472440944884,
                    "duration": 0.11111116666666732
                },
                {
                    "name": "A4",
                    "midi": 69,
                    "time": 16.888897333333354,
                    "velocity": 0.3937007874015748,
                    "duration": 0.11111116666666732
                },
                {
                    "name": "B3",
                    "midi": 59,
                    "time": 17.00000850000002,
                    "velocity": 0.3228346456692913,
                    "duration": 0.3333334999999984
                },
                {
                    "name": "A#4",
                    "midi": 70,
                    "time": 17.33334200000002,
                    "velocity": 0.44881889763779526,
                    "duration": 0.11111116666666732
                },
                {
                    "name": "F4",
                    "midi": 65,
                    "time": 17.444453166666687,
                    "velocity": 0.36220472440944884,
                    "duration": 0.11111116666666732
                },
                {
                    "name": "G#4",
                    "midi": 68,
                    "time": 17.555564333333354,
                    "velocity": 0.4015748031496063,
                    "duration": 0.11111116666666732
                },
                {
                    "name": "A#3",
                    "midi": 58,
                    "time": 17.66667550000002,
                    "velocity": 0.3464566929133858,
                    "duration": 0.3333334999999984
                },
                {
                    "name": "A4",
                    "midi": 69,
                    "time": 18.00000900000002,
                    "velocity": 0.44881889763779526,
                    "duration": 0.11111116666666732
                },
                {
                    "name": "E4",
                    "midi": 64,
                    "time": 18.111120166666687,
                    "velocity": 0.3543307086614173,
                    "duration": 0.11111116666666732
                },
                {
                    "name": "G4",
                    "midi": 67,
                    "time": 18.222231333333355,
                    "velocity": 0.4015748031496063,
                    "duration": 0.11111116666666732
                },
                {
                    "name": "A3",
                    "midi": 57,
                    "time": 18.333342500000022,
                    "velocity": 0.31496062992125984,
                    "duration": 0.3333334999999984
                },
                {
                    "name": "G#4",
                    "midi": 68,
                    "time": 18.66667600000002,
                    "velocity": 0.4094488188976378,
                    "duration": 0.11111116666666732
                },
                {
                    "name": "D#4",
                    "midi": 63,
                    "time": 18.777787166666688,
                    "velocity": 0.36220472440944884,
                    "duration": 0.11111116666666732
                },
                {
                    "name": "F#4",
                    "midi": 66,
                    "time": 18.888898333333355,
                    "velocity": 0.4015748031496063,
                    "duration": 0.11111116666666732
                },
                {
                    "name": "G#3",
                    "midi": 56,
                    "time": 19.000009500000022,
                    "velocity": 0.33070866141732286,
                    "duration": 0.3333334999999984
                },
                {
                    "name": "G4",
                    "midi": 67,
                    "time": 19.33334300000002,
                    "velocity": 0.4330708661417323,
                    "duration": 0.11111116666666732
                },
                {
                    "name": "D4",
                    "midi": 62,
                    "time": 19.444454166666688,
                    "velocity": 0.3543307086614173,
                    "duration": 0.11111116666666732
                },
                {
                    "name": "F4",
                    "midi": 65,
                    "time": 19.555565333333355,
                    "velocity": 0.3858267716535433,
                    "duration": 0.11111116666666732
                },
                {
                    "name": "G3",
                    "midi": 55,
                    "time": 19.666676500000023,
                    "velocity": 0.31496062992125984,
                    "duration": 0.3333334999999984
                },
                {
                    "name": "G4",
                    "midi": 67,
                    "time": 20.00001000000002,
                    "velocity": 0.4330708661417323,
                    "duration": 0.11111116666666376
                },
                {
                    "name": "C#4",
                    "midi": 61,
                    "time": 20.111121166666685,
                    "velocity": 0.33070866141732286,
                    "duration": 0.11111116666666732
                },
                {
                    "name": "E4",
                    "midi": 64,
                    "time": 20.222232333333352,
                    "velocity": 0.3858267716535433,
                    "duration": 0.11111116666666732
                },
                {
                    "name": "G3",
                    "midi": 55,
                    "time": 20.33334350000002,
                    "velocity": 0.33070866141732286,
                    "duration": 0.3333334999999984
                },
                {
                    "name": "F#4",
                    "midi": 66,
                    "time": 20.666677000000018,
                    "velocity": 0.41732283464566927,
                    "duration": 0.11111116666666376
                },
                {
                    "name": "C#4",
                    "midi": 61,
                    "time": 20.77778816666668,
                    "velocity": 0.31496062992125984,
                    "duration": 0.11111116666666732
                },
                {
                    "name": "E4",
                    "midi": 64,
                    "time": 20.88889933333335,
                    "velocity": 0.3700787401574803,
                    "duration": 0.11111116666666732
                },
                {
                    "name": "F#3",
                    "midi": 54,
                    "time": 21.000010500000016,
                    "velocity": 0.31496062992125984,
                    "duration": 0.3333334999999984
                },
                {
                    "name": "F4",
                    "midi": 65,
                    "time": 21.333344000000015,
                    "velocity": 0.4094488188976378,
                    "duration": 0.11111116666666732
                },
                {
                    "name": "A#3",
                    "midi": 58,
                    "time": 21.444455166666682,
                    "velocity": 0.31496062992125984,
                    "duration": 0.11111116666666732
                },
                {
                    "name": "D4",
                    "midi": 62,
                    "time": 21.55556633333335,
                    "velocity": 0.3858267716535433,
                    "duration": 0.11111116666666732
                },
                {
                    "name": "F3",
                    "midi": 53,
                    "time": 21.666677500000016,
                    "velocity": 0.30708661417322836,
                    "duration": 0.3333334999999984
                },
                {
                    "name": "F4",
                    "midi": 65,
                    "time": 22.000011000000015,
                    "velocity": 0.4015748031496063,
                    "duration": 0.11111116666666732
                },
                {
                    "name": "B3",
                    "midi": 59,
                    "time": 22.111122166666682,
                    "velocity": 0.3228346456692913,
                    "duration": 0.11111116666666732
                },
                {
                    "name": "D4",
                    "midi": 62,
                    "time": 22.22223333333335,
                    "velocity": 0.3779527559055118,
                    "duration": 0.11111116666666732
                },
                {
                    "name": "F3",
                    "midi": 53,
                    "time": 22.333344500000017,
                    "velocity": 0.3228346456692913,
                    "duration": 0.3333334999999984
                },
                {
                    "name": "F4",
                    "midi": 65,
                    "time": 22.666678000000015,
                    "velocity": 0.41732283464566927,
                    "duration": 0.11111116666666732
                },
                {
                    "name": "G3",
                    "midi": 55,
                    "time": 22.777789166666683,
                    "velocity": 0.33070866141732286,
                    "duration": 0.11111116666666732
                },
                {
                    "name": "B3",
                    "midi": 59,
                    "time": 22.88890033333335,
                    "velocity": 0.3858267716535433,
                    "duration": 0.11111116666666732
                },
                {
                    "name": "F3",
                    "midi": 53,
                    "time": 23.000011500000017,
                    "velocity": 0.3228346456692913,
                    "duration": 0.3333334999999984
                },
                {
                    "name": "D#4",
                    "midi": 63,
                    "time": 23.333345000000016,
                    "velocity": 0.41732283464566927,
                    "duration": 0.11111116666667087
                },
                {
                    "name": "G3",
                    "midi": 55,
                    "time": 23.444456166666686,
                    "velocity": 0.3543307086614173,
                    "duration": 0.11111116666666732
                },
                {
                    "name": "C4",
                    "midi": 60,
                    "time": 23.555567333333354,
                    "velocity": 0.3937007874015748,
                    "duration": 0.11111116666666732
                },
                {
                    "name": "F3",
                    "midi": 53,
                    "time": 23.66667850000002,
                    "velocity": 0.3228346456692913,
                    "duration": 0.3333334999999984
                },
                {
                    "name": "G4",
                    "midi": 67,
                    "time": 24.00001200000002,
                    "velocity": 0.4409448818897638,
                    "duration": 0.11111116666666732
                },
                {
                    "name": "C4",
                    "midi": 60,
                    "time": 24.111123166666687,
                    "velocity": 0.36220472440944884,
                    "duration": 0.11111116666666732
                },
                {
                    "name": "D#4",
                    "midi": 63,
                    "time": 24.222234333333354,
                    "velocity": 0.3937007874015748,
                    "duration": 0.11111116666666732
                },
                {
                    "name": "F3",
                    "midi": 53,
                    "time": 24.33334550000002,
                    "velocity": 0.31496062992125984,
                    "duration": 0.3333334999999984
                },
                {
                    "name": "G4",
                    "midi": 67,
                    "time": 24.66667900000002,
                    "velocity": 0.4330708661417323,
                    "duration": 0.11111116666666376
                },
                {
                    "name": "C#4",
                    "midi": 61,
                    "time": 24.777790166666684,
                    "velocity": 0.3543307086614173,
                    "duration": 0.11111116666666732
                },
                {
                    "name": "E4",
                    "midi": 64,
                    "time": 24.88890133333335,
                    "velocity": 0.4015748031496063,
                    "duration": 0.11111116666666732
                },
                {
                    "name": "F3",
                    "midi": 53,
                    "time": 25.000012500000018,
                    "velocity": 0.30708661417322836,
                    "duration": 0.3333334999999984
                },
                {
                    "name": "G4",
                    "midi": 67,
                    "time": 25.333346000000017,
                    "velocity": 0.4330708661417323,
                    "duration": 0.11111116666666376
                },
                {
                    "name": "A3",
                    "midi": 57,
                    "time": 25.44445716666668,
                    "velocity": 0.3779527559055118,
                    "duration": 0.11111116666666732
                },
                {
                    "name": "C#4",
                    "midi": 61,
                    "time": 25.555568333333348,
                    "velocity": 0.4094488188976378,
                    "duration": 0.11111116666666732
                },
                {
                    "name": "F3",
                    "midi": 53,
                    "time": 25.666679500000015,
                    "velocity": 0.31496062992125984,
                    "duration": 0.3333334999999984
                },
                {
                    "name": "F4",
                    "midi": 65,
                    "time": 26.000013000000013,
                    "velocity": 0.4409448818897638,
                    "duration": 0.11111116666666732
                },
                {
                    "name": "A3",
                    "midi": 57,
                    "time": 26.11112416666668,
                    "velocity": 0.3937007874015748,
                    "duration": 0.11111116666666732
                },
                {
                    "name": "D4",
                    "midi": 62,
                    "time": 26.222235333333348,
                    "velocity": 0.4094488188976378,
                    "duration": 0.11111116666666732
                },
                {
                    "name": "F3",
                    "midi": 53,
                    "time": 26.333346500000015,
                    "velocity": 0.3700787401574803,
                    "duration": 0.3333334999999984
                },
                {
                    "name": "F4",
                    "midi": 65,
                    "time": 26.666680000000014,
                    "velocity": 0.48031496062992124,
                    "duration": 0.11111116666666732
                },
                {
                    "name": "A3",
                    "midi": 57,
                    "time": 26.77779116666668,
                    "velocity": 0.4015748031496063,
                    "duration": 0.11111116666666732
                },
                {
                    "name": "D#4",
                    "midi": 63,
                    "time": 26.88890233333335,
                    "velocity": 0.44881889763779526,
                    "duration": 0.11111116666666732
                },
                {
                    "name": "F3",
                    "midi": 53,
                    "time": 27.000013500000016,
                    "velocity": 0.3779527559055118,
                    "duration": 0.3333334999999984
                },
                {
                    "name": "D4",
                    "midi": 62,
                    "time": 27.333347000000014,
                    "velocity": 0.4881889763779528,
                    "duration": 0.11111116666666732
                },
                {
                    "name": "F3",
                    "midi": 53,
                    "time": 27.44445816666668,
                    "velocity": 0.3858267716535433,
                    "duration": 0.11111116666666732
                },
                {
                    "name": "A#3",
                    "midi": 58,
                    "time": 27.55556933333335,
                    "velocity": 0.44881889763779526,
                    "duration": 0.11111116666666732
                },
                {
                    "name": "A#2",
                    "midi": 46,
                    "time": 27.666680500000016,
                    "velocity": 0.3700787401574803,
                    "duration": 0.3333334999999984
                },
                {
                    "name": "D4",
                    "midi": 62,
                    "time": 28.000014000000014,
                    "velocity": 0.4566929133858268,
                    "duration": 0.11111116666666732
                },
                {
                    "name": "F#3",
                    "midi": 54,
                    "time": 28.11112516666668,
                    "velocity": 0.4015748031496063,
                    "duration": 0.11111116666666732
                },
                {
                    "name": "C4",
                    "midi": 60,
                    "time": 28.22223633333335,
                    "velocity": 0.4566929133858268,
                    "duration": 0.11111116666666732
                },
                {
                    "name": "D3",
                    "midi": 50,
                    "time": 28.333347500000016,
                    "velocity": 0.3858267716535433,
                    "duration": 0.3333334999999984
                },
                {
                    "name": "A#3",
                    "midi": 58,
                    "time": 28.666681000000015,
                    "velocity": 0.48031496062992124,
                    "duration": 0.11111116666666732
                },
                {
                    "name": "D3",
                    "midi": 50,
                    "time": 28.777792166666682,
                    "velocity": 0.3937007874015748,
                    "duration": 0.11111116666666732
                },
                {
                    "name": "G3",
                    "midi": 55,
                    "time": 28.88890333333335,
                    "velocity": 0.4409448818897638,
                    "duration": 0.11111116666666732
                },
                {
                    "name": "G2",
                    "midi": 43,
                    "time": 29.000014500000017,
                    "velocity": 0.3543307086614173,
                    "duration": 0.3333334999999984
                },
                {
                    "name": "A#3",
                    "midi": 58,
                    "time": 29.333348000000015,
                    "velocity": 0.4881889763779528,
                    "duration": 0.11111116666666732
                },
                {
                    "name": "D3",
                    "midi": 50,
                    "time": 29.444459166666682,
                    "velocity": 0.4409448818897638,
                    "duration": 0.11111116666666732
                },
                {
                    "name": "G#3",
                    "midi": 56,
                    "time": 29.55557033333335,
                    "velocity": 0.49606299212598426,
                    "duration": 0.11111116666666732
                },
                {
                    "name": "A#2",
                    "midi": 46,
                    "time": 29.666681500000017,
                    "velocity": 0.41732283464566927,
                    "duration": 0.3333334999999984
                },
                {
                    "name": "A#3",
                    "midi": 58,
                    "time": 30.000015000000015,
                    "velocity": 0.4881889763779528,
                    "duration": 0.11111116666666732
                },
                {
                    "name": "D3",
                    "midi": 50,
                    "time": 30.111126166666683,
                    "velocity": 0.4566929133858268,
                    "duration": 0.11111116666666732
                },
                {
                    "name": "G#3",
                    "midi": 56,
                    "time": 30.22223733333335,
                    "velocity": 0.49606299212598426,
                    "duration": 0.11111116666666732
                },
                {
                    "name": "A#2",
                    "midi": 46,
                    "time": 30.333348500000017,
                    "velocity": 0.4409448818897638,
                    "duration": 0.3333334999999984
                },
                {
                    "name": "G#3",
                    "midi": 56,
                    "time": 30.666682000000016,
                    "velocity": 0.5039370078740157,
                    "duration": 0.11111116666666732
                },
                {
                    "name": "A#2",
                    "midi": 46,
                    "time": 30.777793166666683,
                    "velocity": 0.4566929133858268,
                    "duration": 0.11111116666666732
                },
                {
                    "name": "D3",
                    "midi": 50,
                    "time": 30.88890433333335,
                    "velocity": 0.5039370078740157,
                    "duration": 0.11111116666666732
                },
                {
                    "name": "D#2",
                    "midi": 39,
                    "time": 31.000015500000018,
                    "velocity": 0.4566929133858268,
                    "duration": 0.3333334999999984
                },
                {
                    "name": "F#3",
                    "midi": 54,
                    "time": 31.333349000000016,
                    "velocity": 0.5275590551181102,
                    "duration": 0.11111116666666376
                },
                {
                    "name": "A#2",
                    "midi": 46,
                    "time": 31.44446016666668,
                    "velocity": 0.47244094488188976,
                    "duration": 0.11111116666666732
                },
                {
                    "name": "D#3",
                    "midi": 51,
                    "time": 31.555571333333347,
                    "velocity": 0.49606299212598426,
                    "duration": 0.11111116666666732
                },
                {
                    "name": "D#2",
                    "midi": 39,
                    "time": 31.666682500000014,
                    "velocity": 0.44881889763779526,
                    "duration": 0.33333350000000195
                },
                {
                    "name": "G#3",
                    "midi": 56,
                    "time": 32.00001600000002,
                    "velocity": 0.5118110236220472,
                    "duration": 0.11111116666666732
                },
                {
                    "name": "G#2",
                    "midi": 44,
                    "time": 32.111127166666684,
                    "velocity": 0.4409448818897638,
                    "duration": 0.11111116666666732
                },
                {
                    "name": "C#3",
                    "midi": 49,
                    "time": 32.22223833333335,
                    "velocity": 0.5039370078740157,
                    "duration": 0.11111116666666732
                },
                {
                    "name": "E2",
                    "midi": 40,
                    "time": 32.33334950000002,
                    "velocity": 0.4409448818897638,
                    "duration": 0.33333350000000195
                },
                {
                    "name": "G#3",
                    "midi": 56,
                    "time": 32.66668300000002,
                    "velocity": 0.5118110236220472,
                    "duration": 0.11111116666666732
                },
                {
                    "name": "G#2",
                    "midi": 44,
                    "time": 32.77779416666669,
                    "velocity": 0.49606299212598426,
                    "duration": 0.11111116666666732
                },
                {
                    "name": "C#3",
                    "midi": 49,
                    "time": 32.888905333333355,
                    "velocity": 0.5196850393700787,
                    "duration": 0.11111116666666732
                },
                {
                    "name": "E2",
                    "midi": 40,
                    "time": 33.00001650000002,
                    "velocity": 0.47244094488188976,
                    "duration": 0.33333350000000195
                },
                {
                    "name": "F#3",
                    "midi": 54,
                    "time": 33.333350000000024,
                    "velocity": 0.5433070866141733,
                    "duration": 0.11111116666666732
                },
                {
                    "name": "B2",
                    "midi": 47,
                    "time": 33.44446116666669,
                    "velocity": 0.49606299212598426,
                    "duration": 0.11111116666666732
                },
                {
                    "name": "D#3",
                    "midi": 51,
                    "time": 33.55557233333336,
                    "velocity": 0.5196850393700787,
                    "duration": 0.11111116666666732
                },
                {
                    "name": "F#2",
                    "midi": 42,
                    "time": 33.666683500000026,
                    "velocity": 0.44881889763779526,
                    "duration": 0.33333350000000195
                },
                {
                    "name": "F#3",
                    "midi": 54,
                    "time": 34.00001700000003,
                    "velocity": 0.5511811023622047,
                    "duration": 0.11111116666666732
                },
                {
                    "name": "B2",
                    "midi": 47,
                    "time": 34.111128166666695,
                    "velocity": 0.49606299212598426,
                    "duration": 0.11111116666666732
                },
                {
                    "name": "D#3",
                    "midi": 51,
                    "time": 34.22223933333336,
                    "velocity": 0.5433070866141733,
                    "duration": 0.11111116666666732
                },
                {
                    "name": "F#2",
                    "midi": 42,
                    "time": 34.33335050000003,
                    "velocity": 0.49606299212598426,
                    "duration": 0.33333350000000195
                },
                {
                    "name": "F#3",
                    "midi": 54,
                    "time": 34.66668400000003,
                    "velocity": 0.6062992125984252,
                    "duration": 0.11111116666666021
                },
                {
                    "name": "A#2",
                    "midi": 46,
                    "time": 34.77779516666669,
                    "velocity": 0.5118110236220472,
                    "duration": 0.11111116666666732
                },
                {
                    "name": "E3",
                    "midi": 52,
                    "time": 34.88890633333336,
                    "velocity": 0.5669291338582677,
                    "duration": 0.11111116666666732
                },
                {
                    "name": "F#2",
                    "midi": 42,
                    "time": 35.00001750000003,
                    "velocity": 0.5039370078740157,
                    "duration": 0.33333350000000195
                },
                {
                    "name": "F#3",
                    "midi": 54,
                    "time": 35.33335100000003,
                    "velocity": 0.5905511811023622,
                    "duration": 0.11111116666666732
                },
                {
                    "name": "A#2",
                    "midi": 46,
                    "time": 35.444462166666696,
                    "velocity": 0.49606299212598426,
                    "duration": 0.11111116666666732
                },
                {
                    "name": "E3",
                    "midi": 52,
                    "time": 35.55557333333336,
                    "velocity": 0.5669291338582677,
                    "duration": 0.11111116666666732
                },
                {
                    "name": "F#2",
                    "midi": 42,
                    "time": 35.66668450000003,
                    "velocity": 0.5039370078740157,
                    "duration": 0.33333350000000195
                },
                {
                    "name": "E3",
                    "midi": 52,
                    "time": 36.00001800000003,
                    "velocity": 0.6377952755905512,
                    "duration": 0.11111116666666732
                },
                {
                    "name": "F#2",
                    "midi": 42,
                    "time": 36.1111291666667,
                    "velocity": 0.5118110236220472,
                    "duration": 0.11111116666666732
                },
                {
                    "name": "A#2",
                    "midi": 46,
                    "time": 36.22224033333337,
                    "velocity": 0.5669291338582677,
                    "duration": 0.11111116666666732
                },
                {
                    "name": "B1",
                    "midi": 35,
                    "time": 36.333351500000035,
                    "velocity": 0.5118110236220472,
                    "duration": 0.33333350000000195
                },
                {
                    "name": "D#3",
                    "midi": 51,
                    "time": 36.66668500000004,
                    "velocity": 0.5905511811023622,
                    "duration": 0.11111116666666732
                },
                {
                    "name": "F#2",
                    "midi": 42,
                    "time": 36.777796166666704,
                    "velocity": 0.5039370078740157,
                    "duration": 0.11111116666666732
                },
                {
                    "name": "B2",
                    "midi": 47,
                    "time": 36.88890733333337,
                    "velocity": 0.5511811023622047,
                    "duration": 0.11111116666666732
                },
                {
                    "name": "B1",
                    "midi": 35,
                    "time": 37.00001850000004,
                    "velocity": 0.48031496062992124,
                    "duration": 0.33333350000000195
                },
                {
                    "name": "G#3",
                    "midi": 56,
                    "time": 37.33335200000004,
                    "velocity": 0.6062992125984252,
                    "duration": 0.11111116666666021
                },
                {
                    "name": "B2",
                    "midi": 47,
                    "time": 37.4444631666667,
                    "velocity": 0.5196850393700787,
                    "duration": 0.11111116666666732
                },
                {
                    "name": "D#3",
                    "midi": 51,
                    "time": 37.55557433333337,
                    "velocity": 0.5748031496062992,
                    "duration": 0.11111116666666732
                },
                {
                    "name": "F2",
                    "midi": 41,
                    "time": 37.666685500000035,
                    "velocity": 0.5275590551181102,
                    "duration": 0.33333350000000195
                },
                {
                    "name": "G#3",
                    "midi": 56,
                    "time": 38.00001900000004,
                    "velocity": 0.5984251968503937,
                    "duration": 0.11111116666666021
                },
                {
                    "name": "B2",
                    "midi": 47,
                    "time": 38.1111301666667,
                    "velocity": 0.5511811023622047,
                    "duration": 0.11111116666666732
                },
                {
                    "name": "D#3",
                    "midi": 51,
                    "time": 38.222241333333365,
                    "velocity": 0.6062992125984252,
                    "duration": 0.11111116666666732
                },
                {
                    "name": "F2",
                    "midi": 41,
                    "time": 38.33335250000003,
                    "velocity": 0.5669291338582677,
                    "duration": 0.33333350000000195
                },
                {
                    "name": "D4",
                    "midi": 62,
                    "time": 38.666686000000034,
                    "velocity": 0.6535433070866141,
                    "duration": 0.11111116666666732
                },
                {
                    "name": "F3",
                    "midi": 53,
                    "time": 38.7777971666667,
                    "velocity": 0.5590551181102362,
                    "duration": 0.11111116666666732
                },
                {
                    "name": "A#3",
                    "midi": 58,
                    "time": 38.88890833333337,
                    "velocity": 0.6062992125984252,
                    "duration": 0.11111116666666732
                },
                {
                    "name": "A#2",
                    "midi": 46,
                    "time": 39.000019500000036,
                    "velocity": 0.5590551181102362,
                    "duration": 0.33333350000000195
                },
                {
                    "name": "D4",
                    "midi": 62,
                    "time": 39.33335300000004,
                    "velocity": 0.6220472440944882,
                    "duration": 0.11111116666666732
                },
                {
                    "name": "F3",
                    "midi": 53,
                    "time": 39.444464166666705,
                    "velocity": 0.5669291338582677,
                    "duration": 0.11111116666666732
                },
                {
                    "name": "A#3",
                    "midi": 58,
                    "time": 39.55557533333337,
                    "velocity": 0.5984251968503937,
                    "duration": 0.11111116666666732
                },
                {
                    "name": "A#2",
                    "midi": 46,
                    "time": 39.66668650000004,
                    "velocity": 0.5590551181102362,
                    "duration": 0.33333350000000195
                },
                {
                    "name": "G#3",
                    "midi": 56,
                    "time": 40.00002000000004,
                    "velocity": 0.6456692913385826,
                    "duration": 0.11111116666666021
                },
                {
                    "name": "B2",
                    "midi": 47,
                    "time": 40.1111311666667,
                    "velocity": 0.5669291338582677,
                    "duration": 0.11111116666666732
                },
                {
                    "name": "D#3",
                    "midi": 51,
                    "time": 40.22224233333337,
                    "velocity": 0.5984251968503937,
                    "duration": 0.11111116666666732
                },
                {
                    "name": "F2",
                    "midi": 41,
                    "time": 40.33335350000004,
                    "velocity": 0.5669291338582677,
                    "duration": 0.33333350000000195
                },
                {
                    "name": "G#3",
                    "midi": 56,
                    "time": 40.66668700000004,
                    "velocity": 0.6062992125984252,
                    "duration": 0.11111116666666732
                },
                {
                    "name": "B2",
                    "midi": 47,
                    "time": 40.777798166666706,
                    "velocity": 0.5354330708661418,
                    "duration": 0.11111116666666732
                },
                {
                    "name": "D#3",
                    "midi": 51,
                    "time": 40.88890933333337,
                    "velocity": 0.5748031496062992,
                    "duration": 0.11111116666666732
                },
                {
                    "name": "F2",
                    "midi": 41,
                    "time": 41.00002050000004,
                    "velocity": 0.5118110236220472,
                    "duration": 0.33333350000000195
                },
                {
                    "name": "D4",
                    "midi": 62,
                    "time": 41.33335400000004,
                    "velocity": 0.6456692913385826,
                    "duration": 0.11111116666666021
                },
                {
                    "name": "F3",
                    "midi": 53,
                    "time": 41.4444651666667,
                    "velocity": 0.5590551181102362,
                    "duration": 0.11111116666666732
                },
                {
                    "name": "A#3",
                    "midi": 58,
                    "time": 41.55557633333337,
                    "velocity": 0.6062992125984252,
                    "duration": 0.11111116666666732
                },
                {
                    "name": "A#2",
                    "midi": 46,
                    "time": 41.66668750000004,
                    "velocity": 0.5511811023622047,
                    "duration": 0.33333350000000195
                },
                {
                    "name": "D4",
                    "midi": 62,
                    "time": 42.00002100000004,
                    "velocity": 0.5905511811023622,
                    "duration": 0.11111116666666732
                },
                {
                    "name": "F3",
                    "midi": 53,
                    "time": 42.11113216666671,
                    "velocity": 0.5196850393700787,
                    "duration": 0.11111116666666732
                },
                {
                    "name": "A#3",
                    "midi": 58,
                    "time": 42.222243333333374,
                    "velocity": 0.5669291338582677,
                    "duration": 0.11111116666666732
                },
                {
                    "name": "A#2",
                    "midi": 46,
                    "time": 42.33335450000004,
                    "velocity": 0.5196850393700787,
                    "duration": 0.33333350000000195
                },
                {
                    "name": "G#3",
                    "midi": 56,
                    "time": 42.66668800000004,
                    "velocity": 0.4645669291338583,
                    "duration": 0.11111116666666732
                },
                {
                    "name": "B2",
                    "midi": 47,
                    "time": 42.77779916666671,
                    "velocity": 0.3779527559055118,
                    "duration": 0.11111116666666732
                },
                {
                    "name": "D#3",
                    "midi": 51,
                    "time": 42.88891033333338,
                    "velocity": 0.4330708661417323,
                    "duration": 0.11111116666666732
                },
                {
                    "name": "F2",
                    "midi": 41,
                    "time": 43.000021500000045,
                    "velocity": 0.33070866141732286,
                    "duration": 0.33333350000000195
                },
                {
                    "name": "G#3",
                    "midi": 56,
                    "time": 43.33335500000005,
                    "velocity": 0.4409448818897638,
                    "duration": 0.11111116666666732
                },
                {
                    "name": "B2",
                    "midi": 47,
                    "time": 43.444466166666714,
                    "velocity": 0.3779527559055118,
                    "duration": 0.11111116666666732
                },
                {
                    "name": "D#3",
                    "midi": 51,
                    "time": 43.55557733333338,
                    "velocity": 0.41732283464566927,
                    "duration": 0.11111116666666732
                },
                {
                    "name": "F2",
                    "midi": 41,
                    "time": 43.66668850000005,
                    "velocity": 0.3228346456692913,
                    "duration": 0.33333350000000195
                },
                {
                    "name": "D4",
                    "midi": 62,
                    "time": 44.00002200000005,
                    "velocity": 0.4409448818897638,
                    "duration": 0.11111116666666732
                },
                {
                    "name": "F3",
                    "midi": 53,
                    "time": 44.11113316666672,
                    "velocity": 0.3464566929133858,
                    "duration": 0.11111116666666732
                },
                {
                    "name": "A#3",
                    "midi": 58,
                    "time": 44.222244333333386,
                    "velocity": 0.4094488188976378,
                    "duration": 0.11111116666666732
                },
                {
                    "name": "A#2",
                    "midi": 46,
                    "time": 44.33335550000005,
                    "velocity": 0.33070866141732286,
                    "duration": 0.33333350000000195
                },
                {
                    "name": "D4",
                    "midi": 62,
                    "time": 44.666689000000055,
                    "velocity": 0.4409448818897638,
                    "duration": 0.11111116666666732
                },
                {
                    "name": "F3",
                    "midi": 53,
                    "time": 44.77780016666672,
                    "velocity": 0.3779527559055118,
                    "duration": 0.11111116666666732
                },
                {
                    "name": "A#3",
                    "midi": 58,
                    "time": 44.88891133333339,
                    "velocity": 0.41732283464566927,
                    "duration": 0.11111116666666732
                },
                {
                    "name": "A#2",
                    "midi": 46,
                    "time": 45.00002250000006,
                    "velocity": 0.3543307086614173,
                    "duration": 0.33333350000000195
                },
                {
                    "name": "G#3",
                    "midi": 56,
                    "time": 45.33335600000006,
                    "velocity": 0.4566929133858268,
                    "duration": 0.11111116666666732
                },
                {
                    "name": "B2",
                    "midi": 47,
                    "time": 45.444467166666726,
                    "velocity": 0.3858267716535433,
                    "duration": 0.11111116666666732
                },
                {
                    "name": "D#3",
                    "midi": 51,
                    "time": 45.55557833333339,
                    "velocity": 0.4094488188976378,
                    "duration": 0.11111116666666732
                },
                {
                    "name": "F2",
                    "midi": 41,
                    "time": 45.66668950000006,
                    "velocity": 0.3543307086614173,
                    "duration": 0.33333350000000195
                },
                {
                    "name": "G#3",
                    "midi": 56,
                    "time": 46.00002300000006,
                    "velocity": 0.44881889763779526,
                    "duration": 0.11111116666666732
                },
                {
                    "name": "B2",
                    "midi": 47,
                    "time": 46.11113416666673,
                    "velocity": 0.3700787401574803,
                    "duration": 0.11111116666666732
                },
                {
                    "name": "D#3",
                    "midi": 51,
                    "time": 46.2222453333334,
                    "velocity": 0.41732283464566927,
                    "duration": 0.11111116666666732
                },
                {
                    "name": "F2",
                    "midi": 41,
                    "time": 46.333356500000065,
                    "velocity": 0.3700787401574803,
                    "duration": 0.33333350000000195
                },
                {
                    "name": "D4",
                    "midi": 62,
                    "time": 46.66669000000007,
                    "velocity": 0.47244094488188976,
                    "duration": 0.11111116666666021
                },
                {
                    "name": "F3",
                    "midi": 53,
                    "time": 46.77780116666673,
                    "velocity": 0.41732283464566927,
                    "duration": 0.11111116666666732
                },
                {
                    "name": "A#3",
                    "midi": 58,
                    "time": 46.888912333333394,
                    "velocity": 0.4566929133858268,
                    "duration": 0.11111116666666732
                },
                {
                    "name": "A#2",
                    "midi": 46,
                    "time": 47.00002350000006,
                    "velocity": 0.3937007874015748,
                    "duration": 0.33333350000000195
                },
                {
                    "name": "B3",
                    "midi": 59,
                    "time": 47.33335700000006,
                    "velocity": 0.48031496062992124,
                    "duration": 0.11111116666666021
                },
                {
                    "name": "C#3",
                    "midi": 49,
                    "time": 47.444468166666724,
                    "velocity": 0.41732283464566927,
                    "duration": 0.11111116666666732
                },
                {
                    "name": "F3",
                    "midi": 53,
                    "time": 47.55557933333339,
                    "velocity": 0.4881889763779528,
                    "duration": 0.11111116666666732
                },
                {
                    "name": "G#2",
                    "midi": 44,
                    "time": 47.66669050000006,
                    "velocity": 0.4330708661417323,
                    "duration": 0.33333350000000195
                },
                {
                    "name": "A3",
                    "midi": 57,
                    "time": 48.00002400000006,
                    "velocity": 0.5039370078740157,
                    "duration": 0.11111116666666732
                },
                {
                    "name": "C#3",
                    "midi": 49,
                    "time": 48.11113516666673,
                    "velocity": 0.4330708661417323,
                    "duration": 0.11111116666666732
                },
                {
                    "name": "F#3",
                    "midi": 54,
                    "time": 48.222246333333395,
                    "velocity": 0.4645669291338583,
                    "duration": 0.11111116666666732
                },
                {
                    "name": "F#2",
                    "midi": 42,
                    "time": 48.33335750000006,
                    "velocity": 0.44881889763779526,
                    "duration": 0.33333350000000195
                },
                {
                    "name": "A3",
                    "midi": 57,
                    "time": 48.666691000000064,
                    "velocity": 0.5196850393700787,
                    "duration": 0.11111116666666732
                },
                {
                    "name": "C#3",
                    "midi": 49,
                    "time": 48.77780216666673,
                    "velocity": 0.4330708661417323,
                    "duration": 0.11111116666666732
                },
                {
                    "name": "F#3",
                    "midi": 54,
                    "time": 48.8889133333334,
                    "velocity": 0.48031496062992124,
                    "duration": 0.11111116666666732
                },
                {
                    "name": "A2",
                    "midi": 45,
                    "time": 49.000024500000066,
                    "velocity": 0.4409448818897638,
                    "duration": 0.33333350000000195
                },
                {
                    "name": "D4",
                    "midi": 62,
                    "time": 49.33335800000007,
                    "velocity": 0.5511811023622047,
                    "duration": 0.11111116666667442
                },
                {
                    "name": "G#3",
                    "midi": 56,
                    "time": 49.44446916666674,
                    "velocity": 0.4645669291338583,
                    "duration": 0.11111116666666732
                },
                {
                    "name": "B3",
                    "midi": 59,
                    "time": 49.55558033333341,
                    "velocity": 0.5039370078740157,
                    "duration": 0.11111116666666732
                },
                {
                    "name": "F#3",
                    "midi": 54,
                    "time": 49.66669150000008,
                    "velocity": 0.4645669291338583,
                    "duration": 0.33333350000000195
                },
                {
                    "name": "C#4",
                    "midi": 61,
                    "time": 50.00002500000008,
                    "velocity": 0.5511811023622047,
                    "duration": 0.11111116666666732
                },
                {
                    "name": "F3",
                    "midi": 53,
                    "time": 50.111136166666746,
                    "velocity": 0.4645669291338583,
                    "duration": 0.11111116666666732
                },
                {
                    "name": "B3",
                    "midi": 59,
                    "time": 50.222247333333414,
                    "velocity": 0.5196850393700787,
                    "duration": 0.11111116666666732
                },
                {
                    "name": "C#3",
                    "midi": 49,
                    "time": 50.33335850000008,
                    "velocity": 0.4566929133858268,
                    "duration": 0.33333350000000195
                },
                {
                    "name": "A3",
                    "midi": 57,
                    "time": 50.66669200000008,
                    "velocity": 0.5748031496062992,
                    "duration": 0.11111116666666732
                },
                {
                    "name": "C#3",
                    "midi": 49,
                    "time": 50.77780316666675,
                    "velocity": 0.47244094488188976,
                    "duration": 0.11111116666666732
                },
                {
                    "name": "F#3",
                    "midi": 54,
                    "time": 50.88891433333342,
                    "velocity": 0.5354330708661418,
                    "duration": 0.11111116666666732
                },
                {
                    "name": "F#2",
                    "midi": 42,
                    "time": 51.000025500000085,
                    "velocity": 0.4566929133858268,
                    "duration": 0.33333350000000195
                },
                {
                    "name": "A3",
                    "midi": 57,
                    "time": 51.33335900000009,
                    "velocity": 0.5748031496062992,
                    "duration": 0.11111116666666732
                },
                {
                    "name": "C#3",
                    "midi": 49,
                    "time": 51.444470166666754,
                    "velocity": 0.47244094488188976,
                    "duration": 0.11111116666666732
                },
                {
                    "name": "F#3",
                    "midi": 54,
                    "time": 51.55558133333342,
                    "velocity": 0.5039370078740157,
                    "duration": 0.11111116666666732
                },
                {
                    "name": "A2",
                    "midi": 45,
                    "time": 51.66669250000009,
                    "velocity": 0.4566929133858268,
                    "duration": 0.33333350000000195
                },
                {
                    "name": "F4",
                    "midi": 65,
                    "time": 52.00002600000009,
                    "velocity": 0.5669291338582677,
                    "duration": 0.11111116666666732
                },
                {
                    "name": "B3",
                    "midi": 59,
                    "time": 52.11113716666676,
                    "velocity": 0.47244094488188976,
                    "duration": 0.11111116666666732
                },
                {
                    "name": "D4",
                    "midi": 62,
                    "time": 52.222248333333425,
                    "velocity": 0.5196850393700787,
                    "duration": 0.11111116666666732
                },
                {
                    "name": "F3",
                    "midi": 53,
                    "time": 52.33335950000009,
                    "velocity": 0.4566929133858268,
                    "duration": 0.33333350000000195
                },
                {
                    "name": "E4",
                    "midi": 64,
                    "time": 52.666693000000095,
                    "velocity": 0.5826771653543307,
                    "duration": 0.11111116666667442
                },
                {
                    "name": "G#3",
                    "midi": 56,
                    "time": 52.77780416666677,
                    "velocity": 0.4645669291338583,
                    "duration": 0.11111116666666732
                },
                {
                    "name": "D4",
                    "midi": 62,
                    "time": 52.888915333333436,
                    "velocity": 0.5196850393700787,
                    "duration": 0.11111116666666732
                },
                {
                    "name": "E3",
                    "midi": 52,
                    "time": 53.000026500000104,
                    "velocity": 0.47244094488188976,
                    "duration": 0.33333350000000195
                },
                {
                    "name": "G4",
                    "midi": 67,
                    "time": 53.333360000000106,
                    "velocity": 0.6141732283464567,
                    "duration": 0.11111116666667442
                },
                {
                    "name": "C#4",
                    "midi": 61,
                    "time": 53.44447116666678,
                    "velocity": 0.5196850393700787,
                    "duration": 0.11111116666666732
                },
                {
                    "name": "E4",
                    "midi": 64,
                    "time": 53.55558233333345,
                    "velocity": 0.5748031496062992,
                    "duration": 0.11111116666666732
                },
                {
                    "name": "G3",
                    "midi": 55,
                    "time": 53.666693500000115,
                    "velocity": 0.4881889763779528,
                    "duration": 0.33333350000000195
                },
                {
                    "name": "F#4",
                    "midi": 66,
                    "time": 54.00002700000012,
                    "velocity": 0.6456692913385826,
                    "duration": 0.11111116666666732
                },
                {
                    "name": "A#3",
                    "midi": 58,
                    "time": 54.111138166666784,
                    "velocity": 0.5511811023622047,
                    "duration": 0.11111116666666732
                },
                {
                    "name": "E4",
                    "midi": 64,
                    "time": 54.22224933333345,
                    "velocity": 0.6062992125984252,
                    "duration": 0.11111116666666732
                },
                {
                    "name": "F#3",
                    "midi": 54,
                    "time": 54.33336050000012,
                    "velocity": 0.5354330708661418,
                    "duration": 0.33333350000000195
                },
                {
                    "name": "A4",
                    "midi": 69,
                    "time": 54.66669400000012,
                    "velocity": 0.6771653543307087,
                    "duration": 0.11111116666666732
                },
                {
                    "name": "D#4",
                    "midi": 63,
                    "time": 54.77780516666679,
                    "velocity": 0.5669291338582677,
                    "duration": 0.11111116666666732
                },
                {
                    "name": "F#4",
                    "midi": 66,
                    "time": 54.888916333333455,
                    "velocity": 0.6220472440944882,
                    "duration": 0.11111116666666732
                },
                {
                    "name": "A3",
                    "midi": 57,
                    "time": 55.00002750000012,
                    "velocity": 0.5748031496062992,
                    "duration": 0.33333350000000195
                },
                {
                    "name": "C5",
                    "midi": 72,
                    "time": 55.333361000000124,
                    "velocity": 0.6771653543307087,
                    "duration": 0.11111116666666732
                },
                {
                    "name": "F#4",
                    "midi": 66,
                    "time": 55.44447216666679,
                    "velocity": 0.5826771653543307,
                    "duration": 0.11111116666666732
                },
                {
                    "name": "A4",
                    "midi": 69,
                    "time": 55.55558333333346,
                    "velocity": 0.6220472440944882,
                    "duration": 0.11111116666666732
                },
                {
                    "name": "C4",
                    "midi": 60,
                    "time": 55.666694500000126,
                    "velocity": 0.5826771653543307,
                    "duration": 0.33333350000000195
                },
                {
                    "name": "F#5",
                    "midi": 78,
                    "time": 56.00002800000013,
                    "velocity": 0.7007874015748031,
                    "duration": 0.11111116666666732
                },
                {
                    "name": "A4",
                    "midi": 69,
                    "time": 56.111139166666796,
                    "velocity": 0.5984251968503937,
                    "duration": 0.11111116666666732
                },
                {
                    "name": "C5",
                    "midi": 72,
                    "time": 56.22225033333346,
                    "velocity": 0.6614173228346457,
                    "duration": 0.11111116666666732
                },
                {
                    "name": "D#4",
                    "midi": 63,
                    "time": 56.33336150000013,
                    "velocity": 0.5984251968503937,
                    "duration": 0.33333350000000195
                },
                {
                    "name": "F#5",
                    "midi": 78,
                    "time": 56.66669500000013,
                    "velocity": 0.6692913385826772,
                    "duration": 0.11111116666666732
                },
                {
                    "name": "A4",
                    "midi": 69,
                    "time": 56.7778061666668,
                    "velocity": 0.6141732283464567,
                    "duration": 0.11111116666666732
                },
                {
                    "name": "C5",
                    "midi": 72,
                    "time": 56.88891733333347,
                    "velocity": 0.6850393700787402,
                    "duration": 0.11111116666666732
                },
                {
                    "name": "D#4",
                    "midi": 63,
                    "time": 57.000028500000134,
                    "velocity": 0.6141732283464567,
                    "duration": 0.33333350000000195
                },
                {
                    "name": "F#5",
                    "midi": 78,
                    "time": 57.333362000000136,
                    "velocity": 0.6929133858267716,
                    "duration": 0.11111116666666732
                },
                {
                    "name": "A4",
                    "midi": 69,
                    "time": 57.4444731666668,
                    "velocity": 0.6141732283464567,
                    "duration": 0.11111116666666732
                },
                {
                    "name": "C5",
                    "midi": 72,
                    "time": 57.55558433333347,
                    "velocity": 0.6850393700787402,
                    "duration": 0.11111116666666732
                },
                {
                    "name": "D4",
                    "midi": 62,
                    "time": 57.66669550000014,
                    "velocity": 0.6062992125984252,
                    "duration": 0.33333350000000195
                },
                {
                    "name": "F#5",
                    "midi": 78,
                    "time": 58.00002900000014,
                    "velocity": 0.7086614173228346,
                    "duration": 0.11111116666666732
                },
                {
                    "name": "A4",
                    "midi": 69,
                    "time": 58.11114016666681,
                    "velocity": 0.6377952755905512,
                    "duration": 0.11111116666666732
                },
                {
                    "name": "C5",
                    "midi": 72,
                    "time": 58.222251333333475,
                    "velocity": 0.6850393700787402,
                    "duration": 0.11111116666666732
                },
                {
                    "name": "D4",
                    "midi": 62,
                    "time": 58.33336250000014,
                    "velocity": 0.6062992125984252,
                    "duration": 0.33333350000000195
                },
                {
                    "name": "F#5",
                    "midi": 78,
                    "time": 58.666696000000144,
                    "velocity": 0.7007874015748031,
                    "duration": 0.11111116666666732
                },
                {
                    "name": "A4",
                    "midi": 69,
                    "time": 58.77780716666681,
                    "velocity": 0.5984251968503937,
                    "duration": 0.11111116666666732
                },
                {
                    "name": "C#5",
                    "midi": 73,
                    "time": 58.88891833333348,
                    "velocity": 0.6535433070866141,
                    "duration": 0.11111116666666732
                },
                {
                    "name": "C#4",
                    "midi": 61,
                    "time": 59.000029500000146,
                    "velocity": 0.5905511811023622,
                    "duration": 0.33333350000000195
                },
                {
                    "name": "E5",
                    "midi": 76,
                    "time": 59.33336300000015,
                    "velocity": 0.6850393700787402,
                    "duration": 0.11111116666666732
                },
                {
                    "name": "G#4",
                    "midi": 68,
                    "time": 59.444474166666815,
                    "velocity": 0.6062992125984252,
                    "duration": 0.11111116666666732
                },
                {
                    "name": "C#5",
                    "midi": 73,
                    "time": 59.55558533333348,
                    "velocity": 0.6535433070866141,
                    "duration": 0.11111116666666732
                },
                {
                    "name": "C#4",
                    "midi": 61,
                    "time": 59.66669650000015,
                    "velocity": 0.5826771653543307,
                    "duration": 0.33333350000000195
                },
                {
                    "name": "C#5",
                    "midi": 73,
                    "time": 60.00003000000015,
                    "velocity": 0.6850393700787402,
                    "duration": 0.11111116666666732
                },
                {
                    "name": "E4",
                    "midi": 64,
                    "time": 60.11114116666682,
                    "velocity": 0.6062992125984252,
                    "duration": 0.11111116666666732
                },
                {
                    "name": "A4",
                    "midi": 69,
                    "time": 60.222252333333486,
                    "velocity": 0.6614173228346457,
                    "duration": 0.11111116666666732
                },
                {
                    "name": "A3",
                    "midi": 57,
                    "time": 60.333363500000154,
                    "velocity": 0.5984251968503937,
                    "duration": 0.33333350000000195
                },
                {
                    "name": "A4",
                    "midi": 69,
                    "time": 60.666697000000156,
                    "velocity": 0.6299212598425197,
                    "duration": 0.11111116666666732
                },
                {
                    "name": "C#4",
                    "midi": 61,
                    "time": 60.77780816666682,
                    "velocity": 0.5748031496062992,
                    "duration": 0.11111116666666732
                },
                {
                    "name": "F#4",
                    "midi": 66,
                    "time": 60.88891933333349,
                    "velocity": 0.6220472440944882,
                    "duration": 0.11111116666666732
                },
                {
                    "name": "F#3",
                    "midi": 54,
                    "time": 61.00003050000016,
                    "velocity": 0.5826771653543307,
                    "duration": 0.33333350000000195
                },
                {
                    "name": "E4",
                    "midi": 64,
                    "time": 61.33336400000016,
                    "velocity": 0.6614173228346457,
                    "duration": 0.11111116666666021
                },
                {
                    "name": "G#3",
                    "midi": 56,
                    "time": 61.44447516666682,
                    "velocity": 0.5354330708661418,
                    "duration": 0.11111116666666732
                },
                {
                    "name": "C#4",
                    "midi": 61,
                    "time": 61.55558633333349,
                    "velocity": 0.6141732283464567,
                    "duration": 0.11111116666666732
                },
                {
                    "name": "C#3",
                    "midi": 49,
                    "time": 61.666697500000154,
                    "velocity": 0.5275590551181102,
                    "duration": 0.33333350000000195
                },
                {
                    "name": "D4",
                    "midi": 62,
                    "time": 62.000031000000156,
                    "velocity": 0.6141732283464567,
                    "duration": 0.11111116666667442
                },
                {
                    "name": "F#3",
                    "midi": 54,
                    "time": 62.11114216666683,
                    "velocity": 0.5275590551181102,
                    "duration": 0.11111116666666732
                },
                {
                    "name": "A3",
                    "midi": 57,
                    "time": 62.2222533333335,
                    "velocity": 0.5826771653543307,
                    "duration": 0.11111116666666732
                },
                {
                    "name": "D3",
                    "midi": 50,
                    "time": 62.333364500000165,
                    "velocity": 0.5354330708661418,
                    "duration": 0.33333350000000195
                },
                {
                    "name": "C#4",
                    "midi": 61,
                    "time": 62.66669800000017,
                    "velocity": 0.6141732283464567,
                    "duration": 0.11111116666666732
                },
                {
                    "name": "E3",
                    "midi": 52,
                    "time": 62.777809166666835,
                    "velocity": 0.5511811023622047,
                    "duration": 0.11111116666666732
                },
                {
                    "name": "A3",
                    "midi": 57,
                    "time": 62.8889203333335,
                    "velocity": 0.6220472440944882,
                    "duration": 0.11111116666666732
                },
                {
                    "name": "A2",
                    "midi": 45,
                    "time": 63.00003150000017,
                    "velocity": 0.5275590551181102,
                    "duration": 0.33333350000000195
                },
                {
                    "name": "B3",
                    "midi": 59,
                    "time": 63.33336500000017,
                    "velocity": 0.6062992125984252,
                    "duration": 0.11111116666666732
                },
                {
                    "name": "D3",
                    "midi": 50,
                    "time": 63.44447616666684,
                    "velocity": 0.5275590551181102,
                    "duration": 0.11111116666666732
                },
                {
                    "name": "G3",
                    "midi": 55,
                    "time": 63.555587333333506,
                    "velocity": 0.6062992125984252,
                    "duration": 0.11111116666666732
                },
                {
                    "name": "B2",
                    "midi": 47,
                    "time": 63.66669850000017,
                    "velocity": 0.5433070866141733,
                    "duration": 0.33333350000000195
                },
                {
                    "name": "A3",
                    "midi": 57,
                    "time": 64.00003200000018,
                    "velocity": 0.6377952755905512,
                    "duration": 0.11111116666666021
                },
                {
                    "name": "A2",
                    "midi": 45,
                    "time": 64.11114316666684,
                    "velocity": 0.5275590551181102,
                    "duration": 0.11111116666666021
                },
                {
                    "name": "C#3",
                    "midi": 49,
                    "time": 64.2222543333335,
                    "velocity": 0.5905511811023622,
                    "duration": 0.11111116666666021
                },
                {
                    "name": "C#2",
                    "midi": 37,
                    "time": 64.33336550000016,
                    "velocity": 0.5196850393700787,
                    "duration": 0.33333349999999484
                },
                {
                    "name": "A3",
                    "midi": 57,
                    "time": 64.66669900000015,
                    "velocity": 0.6456692913385826,
                    "duration": 0.11111116666666021
                },
                {
                    "name": "A2",
                    "midi": 45,
                    "time": 64.77781016666681,
                    "velocity": 0.5196850393700787,
                    "duration": 0.11111116666666021
                },
                {
                    "name": "C#3",
                    "midi": 49,
                    "time": 64.88892133333347,
                    "velocity": 0.5984251968503937,
                    "duration": 0.11111116666666021
                },
                {
                    "name": "C#2",
                    "midi": 37,
                    "time": 65.00003250000013,
                    "velocity": 0.5354330708661418,
                    "duration": 0.33333349999999484
                },
                {
                    "name": "G#3",
                    "midi": 56,
                    "time": 65.33336600000013,
                    "velocity": 0.6299212598425197,
                    "duration": 0.11111116666666021
                },
                {
                    "name": "A2",
                    "midi": 45,
                    "time": 65.44447716666679,
                    "velocity": 0.5275590551181102,
                    "duration": 0.11111116666666021
                },
                {
                    "name": "C#3",
                    "midi": 49,
                    "time": 65.55558833333345,
                    "velocity": 0.5748031496062992,
                    "duration": 0.11111116666666021
                },
                {
                    "name": "C#2",
                    "midi": 37,
                    "time": 65.6666995000001,
                    "velocity": 0.5354330708661418,
                    "duration": 0.33333349999999484
                },
                {
                    "name": "F#3",
                    "midi": 54,
                    "time": 66.0000330000001,
                    "velocity": 0.6141732283464567,
                    "duration": 0.11111116666666021
                },
                {
                    "name": "A2",
                    "midi": 45,
                    "time": 66.11114416666676,
                    "velocity": 0.5354330708661418,
                    "duration": 0.11111116666666021
                },
                {
                    "name": "C#3",
                    "midi": 49,
                    "time": 66.22225533333342,
                    "velocity": 0.6062992125984252,
                    "duration": 0.11111116666666021
                },
                {
                    "name": "C#2",
                    "midi": 37,
                    "time": 66.33336650000008,
                    "velocity": 0.5511811023622047,
                    "duration": 0.33333349999999484
                },
                {
                    "name": "F#3",
                    "midi": 54,
                    "time": 66.66670000000008,
                    "velocity": 0.5905511811023622,
                    "duration": 0.11111116666667442
                },
                {
                    "name": "G#2",
                    "midi": 44,
                    "time": 66.77781116666675,
                    "velocity": 0.49606299212598426,
                    "duration": 0.11111116666666021
                },
                {
                    "name": "C#3",
                    "midi": 49,
                    "time": 66.88892233333341,
                    "velocity": 0.5039370078740157,
                    "duration": 0.11111116666666021
                },
                {
                    "name": "C#2",
                    "midi": 37,
                    "time": 67.00003350000007,
                    "velocity": 0.44881889763779526,
                    "duration": 0.33333349999999484
                },
                {
                    "name": "F#3",
                    "midi": 54,
                    "time": 67.33336700000007,
                    "velocity": 0.5748031496062992,
                    "duration": 0.11111116666666021
                },
                {
                    "name": "G#2",
                    "midi": 44,
                    "time": 67.44447816666673,
                    "velocity": 0.48031496062992124,
                    "duration": 0.11111116666666021
                },
                {
                    "name": "C#3",
                    "midi": 49,
                    "time": 67.55558933333339,
                    "velocity": 0.5196850393700787,
                    "duration": 0.11111116666666021
                },
                {
                    "name": "C#2",
                    "midi": 37,
                    "time": 67.66670050000005,
                    "velocity": 0.4566929133858268,
                    "duration": 0.33333349999999484
                },
                {
                    "name": "F3",
                    "midi": 53,
                    "time": 68.00003400000004,
                    "velocity": 0.5905511811023622,
                    "duration": 0.11111116666666021
                },
                {
                    "name": "G#2",
                    "midi": 44,
                    "time": 68.1111451666667,
                    "velocity": 0.5039370078740157,
                    "duration": 0.11111116666666021
                },
                {
                    "name": "C#3",
                    "midi": 49,
                    "time": 68.22225633333336,
                    "velocity": 0.5433070866141733,
                    "duration": 0.11111116666666021
                },
                {
                    "name": "C#2",
                    "midi": 37,
                    "time": 68.33336750000002,
                    "velocity": 0.4409448818897638,
                    "duration": 0.33333349999999484
                },
                {
                    "name": "F3",
                    "midi": 53,
                    "time": 68.66670100000002,
                    "velocity": 0.5826771653543307,
                    "duration": 0.11111116666666021
                },
                {
                    "name": "G#2",
                    "midi": 44,
                    "time": 68.77781216666668,
                    "velocity": 0.4251968503937008,
                    "duration": 0.11111116666666021
                },
                {
                    "name": "C#3",
                    "midi": 49,
                    "time": 68.88892333333334,
                    "velocity": 0.47244094488188976,
                    "duration": 0.11111116666666021
                },
                {
                    "name": "C#2",
                    "midi": 37,
                    "time": 69.0000345,
                    "velocity": 0.3858267716535433,
                    "duration": 0.33333349999999484
                },
                {
                    "name": "A3",
                    "midi": 57,
                    "time": 69.333368,
                    "velocity": 0.3858267716535433,
                    "duration": 0.11111116666667442
                },
                {
                    "name": "C#3",
                    "midi": 49,
                    "time": 69.44447916666667,
                    "velocity": 0.30708661417322836,
                    "duration": 0.11111116666666021
                },
                {
                    "name": "F#3",
                    "midi": 54,
                    "time": 69.55559033333333,
                    "velocity": 0.3543307086614173,
                    "duration": 0.11111116666666021
                },
                {
                    "name": "F#2",
                    "midi": 42,
                    "time": 69.66670149999999,
                    "velocity": 0.2992125984251969,
                    "duration": 0.33333349999999484
                },
                {
                    "name": "A3",
                    "midi": 57,
                    "time": 70.00003499999998,
                    "velocity": 0.3858267716535433,
                    "duration": 0.11111116666666021
                },
                {
                    "name": "C#3",
                    "midi": 49,
                    "time": 70.11114616666664,
                    "velocity": 0.30708661417322836,
                    "duration": 0.11111116666666021
                },
                {
                    "name": "F#3",
                    "midi": 54,
                    "time": 70.2222573333333,
                    "velocity": 0.3464566929133858,
                    "duration": 0.11111116666666021
                },
                {
                    "name": "F#2",
                    "midi": 42,
                    "time": 70.33336849999996,
                    "velocity": 0.29133858267716534,
                    "duration": 0.33333349999999484
                },
                {
                    "name": "A3",
                    "midi": 57,
                    "time": 70.66670199999996,
                    "velocity": 0.3858267716535433,
                    "duration": 0.11111116666666021
                },
                {
                    "name": "C#3",
                    "midi": 49,
                    "time": 70.77781316666662,
                    "velocity": 0.30708661417322836,
                    "duration": 0.11111116666666021
                },
                {
                    "name": "F#3",
                    "midi": 54,
                    "time": 70.88892433333328,
                    "velocity": 0.3543307086614173,
                    "duration": 0.11111116666666021
                },
                {
                    "name": "F#2",
                    "midi": 42,
                    "time": 71.00003549999994,
                    "velocity": 0.2992125984251969,
                    "duration": 0.33333349999999484
                },
                {
                    "name": "A3",
                    "midi": 57,
                    "time": 71.33336899999993,
                    "velocity": 0.3858267716535433,
                    "duration": 0.11111116666666021
                },
                {
                    "name": "C#3",
                    "midi": 49,
                    "time": 71.4444801666666,
                    "velocity": 0.30708661417322836,
                    "duration": 0.11111116666666021
                },
                {
                    "name": "F#3",
                    "midi": 54,
                    "time": 71.55559133333325,
                    "velocity": 0.3858267716535433,
                    "duration": 0.11111116666666021
                },
                {
                    "name": "F#2",
                    "midi": 42,
                    "time": 71.66670249999991,
                    "velocity": 0.3543307086614173,
                    "duration": 0.33333349999999484
                },
                {
                    "name": "F#3",
                    "midi": 54,
                    "time": 72.00003599999991,
                    "velocity": 0.3858267716535433,
                    "duration": 0.11111116666666021
                },
                {
                    "name": "F#2",
                    "midi": 42,
                    "time": 72.11114716666657,
                    "velocity": 0.3228346456692913,
                    "duration": 0.11111116666666021
                },
                {
                    "name": "B2",
                    "midi": 47,
                    "time": 72.22225833333323,
                    "velocity": 0.3858267716535433,
                    "duration": 0.11111116666666021
                },
                {
                    "name": "B1",
                    "midi": 35,
                    "time": 72.33336949999989,
                    "velocity": 0.30708661417322836,
                    "duration": 0.33333349999999484
                },
                {
                    "name": "F#3",
                    "midi": 54,
                    "time": 72.66670299999988,
                    "velocity": 0.3858267716535433,
                    "duration": 0.11111116666666021
                },
                {
                    "name": "F#2",
                    "midi": 42,
                    "time": 72.77781416666654,
                    "velocity": 0.31496062992125984,
                    "duration": 0.11111116666666021
                },
                {
                    "name": "B2",
                    "midi": 47,
                    "time": 72.8889253333332,
                    "velocity": 0.3543307086614173,
                    "duration": 0.11111116666666021
                },
                {
                    "name": "B1",
                    "midi": 35,
                    "time": 73.00003649999987,
                    "velocity": 0.30708661417322836,
                    "duration": 0.33333349999999484
                },
                {
                    "name": "F#3",
                    "midi": 54,
                    "time": 73.33336999999986,
                    "velocity": 0.3858267716535433,
                    "duration": 0.11111116666666021
                },
                {
                    "name": "F#2",
                    "midi": 42,
                    "time": 73.44448116666652,
                    "velocity": 0.3228346456692913,
                    "duration": 0.11111116666666021
                },
                {
                    "name": "B2",
                    "midi": 47,
                    "time": 73.55559233333318,
                    "velocity": 0.3858267716535433,
                    "duration": 0.11111116666666021
                },
                {
                    "name": "B1",
                    "midi": 35,
                    "time": 73.66670349999984,
                    "velocity": 0.30708661417322836,
                    "duration": 0.33333349999999484
                },
                {
                    "name": "F#3",
                    "midi": 54,
                    "time": 74.00003699999984,
                    "velocity": 0.3937007874015748,
                    "duration": 0.11111116666666021
                },
                {
                    "name": "F#2",
                    "midi": 42,
                    "time": 74.1111481666665,
                    "velocity": 0.3228346456692913,
                    "duration": 0.11111116666666021
                },
                {
                    "name": "B2",
                    "midi": 47,
                    "time": 74.22225933333316,
                    "velocity": 0.36220472440944884,
                    "duration": 0.11111116666666021
                },
                {
                    "name": "B1",
                    "midi": 35,
                    "time": 74.33337049999982,
                    "velocity": 0.31496062992125984,
                    "duration": 0.33333349999999484
                },
                {
                    "name": "A#3",
                    "midi": 58,
                    "time": 74.66670399999981,
                    "velocity": 0.30708661417322836,
                    "duration": 0.11111116666666021
                },
                {
                    "name": "C#3",
                    "midi": 49,
                    "time": 74.77781516666647,
                    "velocity": 0.28346456692913385,
                    "duration": 0.11111116666666021
                },
                {
                    "name": "F#3",
                    "midi": 54,
                    "time": 74.88892633333313,
                    "velocity": 0.29133858267716534,
                    "duration": 0.11111116666666021
                },
                {
                    "name": "F#2",
                    "midi": 42,
                    "time": 75.00003749999979,
                    "velocity": 0.2755905511811024,
                    "duration": 0.33333349999999484
                },
                {
                    "name": "A#3",
                    "midi": 58,
                    "time": 75.33337099999979,
                    "velocity": 0.30708661417322836,
                    "duration": 0.11111116666666021
                },
                {
                    "name": "C#3",
                    "midi": 49,
                    "time": 75.44448216666645,
                    "velocity": 0.2755905511811024,
                    "duration": 0.11111116666666021
                },
                {
                    "name": "F#3",
                    "midi": 54,
                    "time": 75.5555933333331,
                    "velocity": 0.28346456692913385,
                    "duration": 0.11111116666666021
                },
                {
                    "name": "F#2",
                    "midi": 42,
                    "time": 75.66670449999977,
                    "velocity": 0.2677165354330709,
                    "duration": 0.33333349999999484
                },
                {
                    "name": "A#3",
                    "midi": 58,
                    "time": 76.00003799999976,
                    "velocity": 0.30708661417322836,
                    "duration": 0.11111116666666021
                },
                {
                    "name": "C#3",
                    "midi": 49,
                    "time": 76.11114916666642,
                    "velocity": 0.2677165354330709,
                    "duration": 0.11111116666666021
                },
                {
                    "name": "F#3",
                    "midi": 54,
                    "time": 76.22226033333308,
                    "velocity": 0.29133858267716534,
                    "duration": 0.11111116666666021
                },
                {
                    "name": "F#2",
                    "midi": 42,
                    "time": 76.33337149999974,
                    "velocity": 0.2440944881889764,
                    "duration": 0.33333349999999484
                },
                {
                    "name": "A#3",
                    "midi": 58,
                    "time": 76.66670499999974,
                    "velocity": 0.30708661417322836,
                    "duration": 0.11111116666666021
                },
                {
                    "name": "C#3",
                    "midi": 49,
                    "time": 76.7778161666664,
                    "velocity": 0.2440944881889764,
                    "duration": 0.11111116666666021
                },
                {
                    "name": "F#3",
                    "midi": 54,
                    "time": 76.88892733333306,
                    "velocity": 0.2992125984251969,
                    "duration": 0.11111116666666021
                },
                {
                    "name": "F#2",
                    "midi": 42,
                    "time": 77.00003849999972,
                    "velocity": 0.25984251968503935,
                    "duration": 0.33333349999999484
                },
                {
                    "name": "F#3",
                    "midi": 54,
                    "time": 77.33337199999971,
                    "velocity": 0.30708661417322836,
                    "duration": 0.11111116666667442
                },
                {
                    "name": "F#2",
                    "midi": 42,
                    "time": 77.44448316666639,
                    "velocity": 0.2677165354330709,
                    "duration": 0.11111116666666021
                },
                {
                    "name": "B2",
                    "midi": 47,
                    "time": 77.55559433333305,
                    "velocity": 0.28346456692913385,
                    "duration": 0.11111116666666021
                },
                {
                    "name": "B1",
                    "midi": 35,
                    "time": 77.66670549999971,
                    "velocity": 0.25984251968503935,
                    "duration": 0.33333349999999484
                },
                {
                    "name": "F#3",
                    "midi": 54,
                    "time": 78.0000389999997,
                    "velocity": 0.30708661417322836,
                    "duration": 0.11111116666666021
                },
                {
                    "name": "F#2",
                    "midi": 42,
                    "time": 78.11115016666636,
                    "velocity": 0.2677165354330709,
                    "duration": 0.11111116666666021
                },
                {
                    "name": "B2",
                    "midi": 47,
                    "time": 78.22226133333302,
                    "velocity": 0.29133858267716534,
                    "duration": 0.11111116666666021
                },
                {
                    "name": "B1",
                    "midi": 35,
                    "time": 78.33337249999968,
                    "velocity": 0.25984251968503935,
                    "duration": 0.33333349999999484
                },
                {
                    "name": "F#3",
                    "midi": 54,
                    "time": 78.66670599999968,
                    "velocity": 0.2992125984251969,
                    "duration": 0.11111116666666021
                },
                {
                    "name": "F#2",
                    "midi": 42,
                    "time": 78.77781716666634,
                    "velocity": 0.28346456692913385,
                    "duration": 0.11111116666666021
                },
                {
                    "name": "B2",
                    "midi": 47,
                    "time": 78.888928333333,
                    "velocity": 0.2992125984251969,
                    "duration": 0.11111116666666021
                },
                {
                    "name": "B1",
                    "midi": 35,
                    "time": 79.00003949999966,
                    "velocity": 0.2677165354330709,
                    "duration": 0.33333349999999484
                },
                {
                    "name": "F#3",
                    "midi": 54,
                    "time": 79.33337299999965,
                    "velocity": 0.31496062992125984,
                    "duration": 0.11111116666666021
                },
                {
                    "name": "F#2",
                    "midi": 42,
                    "time": 79.44448416666631,
                    "velocity": 0.2677165354330709,
                    "duration": 0.11111116666666021
                },
                {
                    "name": "B2",
                    "midi": 47,
                    "time": 79.55559533333297,
                    "velocity": 0.30708661417322836,
                    "duration": 0.11111116666666021
                },
                {
                    "name": "B1",
                    "midi": 35,
                    "time": 79.66670649999963,
                    "velocity": 0.28346456692913385,
                    "duration": 0.33333349999999484
                },
                {
                    "name": "A#3",
                    "midi": 58,
                    "time": 80.00003999999963,
                    "velocity": 0.30708661417322836,
                    "duration": 0.111111166666646
                },
                {
                    "name": "C#3",
                    "midi": 49,
                    "time": 80.11115116666628,
                    "velocity": 0.2677165354330709,
                    "duration": 0.11111116666666021
                },
                {
                    "name": "F#3",
                    "midi": 54,
                    "time": 80.22226233333294,
                    "velocity": 0.2992125984251969,
                    "duration": 0.11111116666666021
                },
                {
                    "name": "F#2",
                    "midi": 42,
                    "time": 80.3333734999996,
                    "velocity": 0.2677165354330709,
                    "duration": 0.33333349999999484
                },
                {
                    "name": "A#3",
                    "midi": 58,
                    "time": 80.66670699999959,
                    "velocity": 0.30708661417322836,
                    "duration": 0.11111116666666021
                },
                {
                    "name": "C#3",
                    "midi": 49,
                    "time": 80.77781816666625,
                    "velocity": 0.2440944881889764,
                    "duration": 0.11111116666666021
                },
                {
                    "name": "F#3",
                    "midi": 54,
                    "time": 80.88892933333291,
                    "velocity": 0.29133858267716534,
                    "duration": 0.11111116666666021
                },
                {
                    "name": "F#2",
                    "midi": 42,
                    "time": 81.00004049999957,
                    "velocity": 0.2440944881889764,
                    "duration": 0.33333349999999484
                },
                {
                    "name": "A#3",
                    "midi": 58,
                    "time": 81.33337399999957,
                    "velocity": 0.30708661417322836,
                    "duration": 0.11111116666666021
                },
                {
                    "name": "C#3",
                    "midi": 49,
                    "time": 81.44448516666623,
                    "velocity": 0.2677165354330709,
                    "duration": 0.11111116666666021
                },
                {
                    "name": "F#3",
                    "midi": 54,
                    "time": 81.55559633333289,
                    "velocity": 0.30708661417322836,
                    "duration": 0.11111116666666021
                },
                {
                    "name": "F#2",
                    "midi": 42,
                    "time": 81.66670749999955,
                    "velocity": 0.2755905511811024,
                    "duration": 0.33333349999999484
                },
                {
                    "name": "A#3",
                    "midi": 58,
                    "time": 82.00004099999954,
                    "velocity": 0.30708661417322836,
                    "duration": 0.11111116666666021
                },
                {
                    "name": "C#3",
                    "midi": 49,
                    "time": 82.1111521666662,
                    "velocity": 0.2677165354330709,
                    "duration": 0.11111116666666021
                },
                {
                    "name": "F#3",
                    "midi": 54,
                    "time": 82.22226333333286,
                    "velocity": 0.2992125984251969,
                    "duration": 0.11111116666666021
                },
                {
                    "name": "F#2",
                    "midi": 42,
                    "time": 82.33337449999952,
                    "velocity": 0.2677165354330709,
                    "duration": 0.33333349999999484
                },
                {
                    "name": "A3",
                    "midi": 57,
                    "time": 82.66670799999952,
                    "velocity": 0.30708661417322836,
                    "duration": 0.11111116666667442
                },
                {
                    "name": "C#3",
                    "midi": 49,
                    "time": 82.77781916666619,
                    "velocity": 0.25984251968503935,
                    "duration": 0.11111116666666021
                },
                {
                    "name": "F#3",
                    "midi": 54,
                    "time": 82.88893033333285,
                    "velocity": 0.29133858267716534,
                    "duration": 0.11111116666666021
                },
                {
                    "name": "F#2",
                    "midi": 42,
                    "time": 83.00004149999951,
                    "velocity": 0.2755905511811024,
                    "duration": 0.33333349999999484
                },
                {
                    "name": "A3",
                    "midi": 57,
                    "time": 83.3333749999995,
                    "velocity": 0.30708661417322836,
                    "duration": 0.11111116666666021
                },
                {
                    "name": "C#3",
                    "midi": 49,
                    "time": 83.44448616666617,
                    "velocity": 0.2755905511811024,
                    "duration": 0.11111116666666021
                },
                {
                    "name": "F#3",
                    "midi": 54,
                    "time": 83.55559733333283,
                    "velocity": 0.30708661417322836,
                    "duration": 0.11111116666666021
                },
                {
                    "name": "F#2",
                    "midi": 42,
                    "time": 83.66670849999949,
                    "velocity": 0.28346456692913385,
                    "duration": 0.33333349999999484
                },
                {
                    "name": "A3",
                    "midi": 57,
                    "time": 84.00004199999948,
                    "velocity": 0.29133858267716534,
                    "duration": 0.11111116666666021
                },
                {
                    "name": "C#3",
                    "midi": 49,
                    "time": 84.11115316666614,
                    "velocity": 0.2677165354330709,
                    "duration": 0.11111116666666021
                },
                {
                    "name": "F#3",
                    "midi": 54,
                    "time": 84.2222643333328,
                    "velocity": 0.29133858267716534,
                    "duration": 0.11111116666666021
                },
                {
                    "name": "F#2",
                    "midi": 42,
                    "time": 84.33337549999946,
                    "velocity": 0.25984251968503935,
                    "duration": 0.33333349999999484
                },
                {
                    "name": "A3",
                    "midi": 57,
                    "time": 84.66670899999946,
                    "velocity": 0.2755905511811024,
                    "duration": 0.11111116666666021
                },
                {
                    "name": "C#3",
                    "midi": 49,
                    "time": 84.77782016666612,
                    "velocity": 0.23622047244094488,
                    "duration": 0.11111116666666021
                },
                {
                    "name": "F#3",
                    "midi": 54,
                    "time": 84.88893133333278,
                    "velocity": 0.2677165354330709,
                    "duration": 0.11111116666666021
                },
                {
                    "name": "F#2",
                    "midi": 42,
                    "time": 85.00004249999944,
                    "velocity": 0.2440944881889764,
                    "duration": 0.33333349999999484
                },
                {
                    "name": "A2",
                    "midi": 45,
                    "time": 85.33337599999943,
                    "velocity": 0.2440944881889764,
                    "duration": 1.3333340000000078
                },
                {
                    "name": "E3",
                    "midi": 52,
                    "time": 85.33337599999943,
                    "velocity": 0.2440944881889764,
                    "duration": 1.3333340000000078
                },
                {
                    "name": "A3",
                    "midi": 57,
                    "time": 85.33337599999943,
                    "velocity": 0.29133858267716534,
                    "duration": 1.3333340000000078
                },
                {
                    "name": "B2",
                    "midi": 47,
                    "time": 86.66670999999944,
                    "velocity": 0.2125984251968504,
                    "duration": 0.6666669999999897
                },
                {
                    "name": "G3",
                    "midi": 55,
                    "time": 86.66670999999944,
                    "velocity": 0.25196850393700787,
                    "duration": 0.6666669999999897
                },
                {
                    "name": "C#3",
                    "midi": 49,
                    "time": 87.33337699999943,
                    "velocity": 0.18110236220472442,
                    "duration": 0.6666669999999897
                },
                {
                    "name": "G#3",
                    "midi": 56,
                    "time": 87.33337699999943,
                    "velocity": 0.2204724409448819,
                    "duration": 0.6666669999999897
                },
                {
                    "name": "F#2",
                    "midi": 42,
                    "time": 88.16671074999941,
                    "velocity": 0.2440944881889764,
                    "duration": 2.500001250000011
                },
                {
                    "name": "C#3",
                    "midi": 49,
                    "time": 88.33337749999941,
                    "velocity": 0.2440944881889764,
                    "duration": 2.3333345000000065
                },
                {
                    "name": "A3",
                    "midi": 57,
                    "time": 88.50004424999942,
                    "velocity": 0.2440944881889764,
                    "duration": 2.166667750000002
                }
            ],
            "controlChanges": {
                "7": [
                    {
                        "number": 7,
                        "time": 0,
                        "value": 0.7874015748031497
                    }
                ],
                "10": [
                    {
                        "number": 10,
                        "time": 0,
                        "value": 0.5039370078740157
                    }
                ],
                "64": [
                    {
                        "number": 64,
                        "time": 0,
                        "value": 1
                    },
                    {
                        "number": 64,
                        "time": 0.6805558958333333,
                        "value": 0
                    },
                    {
                        "number": 64,
                        "time": 0.7111114666666667,
                        "value": 1
                    },
                    {
                        "number": 64,
                        "time": 1.3513895645833334,
                        "value": 0
                    },
                    {
                        "number": 64,
                        "time": 1.4097229270833334,
                        "value": 1
                    },
                    {
                        "number": 64,
                        "time": 2.01250100625,
                        "value": 0
                    },
                    {
                        "number": 64,
                        "time": 2.072223258333333,
                        "value": 1
                    },
                    {
                        "number": 64,
                        "time": 2.672223558333334,
                        "value": 0
                    },
                    {
                        "number": 64,
                        "time": 2.726390252083334,
                        "value": 1
                    },
                    {
                        "number": 64,
                        "time": 3.344446116666668,
                        "value": 0
                    },
                    {
                        "number": 64,
                        "time": 3.4013905895833347,
                        "value": 1
                    },
                    {
                        "number": 64,
                        "time": 4.0097242270833355,
                        "value": 0
                    },
                    {
                        "number": 64,
                        "time": 4.044446466666669,
                        "value": 1
                    },
                    {
                        "number": 64,
                        "time": 4.6819467854166685,
                        "value": 0
                    },
                    {
                        "number": 64,
                        "time": 4.734724589583335,
                        "value": 1
                    },
                    {
                        "number": 64,
                        "time": 5.348613785416668,
                        "value": 0
                    },
                    {
                        "number": 64,
                        "time": 5.393058252083335,
                        "value": 1
                    },
                    {
                        "number": 64,
                        "time": 6.016669675000001,
                        "value": 0
                    },
                    {
                        "number": 64,
                        "time": 6.068058589583335,
                        "value": 1
                    },
                    {
                        "number": 64,
                        "time": 6.675003337500001,
                        "value": 0
                    },
                    {
                        "number": 64,
                        "time": 6.7222255833333335,
                        "value": 1
                    },
                    {
                        "number": 64,
                        "time": 7.351392564583334,
                        "value": 0
                    },
                    {
                        "number": 64,
                        "time": 7.4097259270833336,
                        "value": 1
                    },
                    {
                        "number": 64,
                        "time": 8.01250400625,
                        "value": 0
                    },
                    {
                        "number": 64,
                        "time": 8.063892920833332,
                        "value": 1
                    },
                    {
                        "number": 64,
                        "time": 8.672226558333334,
                        "value": 0
                    },
                    {
                        "number": 64,
                        "time": 8.74583770625,
                        "value": 1
                    },
                    {
                        "number": 64,
                        "time": 9.350004675000001,
                        "value": 0
                    },
                    {
                        "number": 64,
                        "time": 9.401393589583334,
                        "value": 1
                    },
                    {
                        "number": 64,
                        "time": 10.016671675000001,
                        "value": 0
                    },
                    {
                        "number": 64,
                        "time": 10.055560583333335,
                        "value": 1
                    },
                    {
                        "number": 64,
                        "time": 10.679172006250004,
                        "value": 0
                    },
                    {
                        "number": 64,
                        "time": 10.734727589583338,
                        "value": 1
                    },
                    {
                        "number": 64,
                        "time": 11.337505668750007,
                        "value": 0
                    },
                    {
                        "number": 64,
                        "time": 11.39306125208334,
                        "value": 1
                    },
                    {
                        "number": 64,
                        "time": 12.008339337500008,
                        "value": 0
                    },
                    {
                        "number": 64,
                        "time": 12.07639492708334,
                        "value": 1
                    },
                    {
                        "number": 64,
                        "time": 12.676395227083342,
                        "value": 0
                    },
                    {
                        "number": 64,
                        "time": 12.734728589583343,
                        "value": 1
                    },
                    {
                        "number": 64,
                        "time": 13.340284447916677,
                        "value": 0
                    },
                    {
                        "number": 64,
                        "time": 13.397228920833344,
                        "value": 1
                    },
                    {
                        "number": 64,
                        "time": 14.016673675000012,
                        "value": 0
                    },
                    {
                        "number": 64,
                        "time": 14.068062589583345,
                        "value": 1
                    },
                    {
                        "number": 64,
                        "time": 14.679174006250014,
                        "value": 0
                    },
                    {
                        "number": 64,
                        "time": 14.734729589583347,
                        "value": 1
                    },
                    {
                        "number": 64,
                        "time": 15.354174343750016,
                        "value": 0
                    },
                    {
                        "number": 64,
                        "time": 15.412507706250016,
                        "value": 1
                    },
                    {
                        "number": 64,
                        "time": 16.008341337500017,
                        "value": 0
                    },
                    {
                        "number": 64,
                        "time": 16.05973025208335,
                        "value": 1
                    },
                    {
                        "number": 64,
                        "time": 16.67500833750002,
                        "value": 0
                    },
                    {
                        "number": 64,
                        "time": 16.718063914583354,
                        "value": 1
                    },
                    {
                        "number": 64,
                        "time": 17.347230895833352,
                        "value": 0
                    },
                    {
                        "number": 64,
                        "time": 17.409730927083352,
                        "value": 1
                    },
                    {
                        "number": 64,
                        "time": 18.015286785416688,
                        "value": 0
                    },
                    {
                        "number": 64,
                        "time": 18.063897920833355,
                        "value": 1
                    },
                    {
                        "number": 64,
                        "time": 18.676398227083354,
                        "value": 0
                    },
                    {
                        "number": 64,
                        "time": 18.722231583333354,
                        "value": 1
                    },
                    {
                        "number": 64,
                        "time": 19.34584300625002,
                        "value": 0
                    },
                    {
                        "number": 64,
                        "time": 19.393065252083353,
                        "value": 1
                    },
                    {
                        "number": 64,
                        "time": 20.011121116666686,
                        "value": 0
                    },
                    {
                        "number": 64,
                        "time": 20.06806558958335,
                        "value": 1
                    },
                    {
                        "number": 64,
                        "time": 20.687510343750017,
                        "value": 0
                    },
                    {
                        "number": 64,
                        "time": 20.750010375000016,
                        "value": 1
                    },
                    {
                        "number": 64,
                        "time": 21.341677337500016,
                        "value": 0
                    },
                    {
                        "number": 64,
                        "time": 21.38056624583335,
                        "value": 1
                    },
                    {
                        "number": 64,
                        "time": 22.00973322708335,
                        "value": 0
                    },
                    {
                        "number": 64,
                        "time": 22.054177693750017,
                        "value": 1
                    },
                    {
                        "number": 64,
                        "time": 22.680566895833348,
                        "value": 0
                    },
                    {
                        "number": 64,
                        "time": 22.733344700000014,
                        "value": 1
                    },
                    {
                        "number": 64,
                        "time": 23.33890055833335,
                        "value": 0
                    },
                    {
                        "number": 64,
                        "time": 23.400011700000018,
                        "value": 1
                    },
                    {
                        "number": 64,
                        "time": 24.015289785416687,
                        "value": 0
                    },
                    {
                        "number": 64,
                        "time": 24.055567583333353,
                        "value": 1
                    },
                    {
                        "number": 64,
                        "time": 24.677790116666685,
                        "value": 0
                    },
                    {
                        "number": 64,
                        "time": 24.73473458958335,
                        "value": 1
                    },
                    {
                        "number": 64,
                        "time": 25.344457116666682,
                        "value": 0
                    },
                    {
                        "number": 64,
                        "time": 25.401401589583347,
                        "value": 1
                    },
                    {
                        "number": 64,
                        "time": 26.012513006250014,
                        "value": 0
                    },
                    {
                        "number": 64,
                        "time": 26.072235258333347,
                        "value": 1
                    },
                    {
                        "number": 64,
                        "time": 26.683346675000013,
                        "value": 0
                    },
                    {
                        "number": 64,
                        "time": 26.738902258333347,
                        "value": 1
                    },
                    {
                        "number": 64,
                        "time": 27.345847006250015,
                        "value": 0
                    },
                    {
                        "number": 64,
                        "time": 27.38473591458335,
                        "value": 1
                    },
                    {
                        "number": 64,
                        "time": 28.012514006250015,
                        "value": 0
                    },
                    {
                        "number": 64,
                        "time": 28.055569583333348,
                        "value": 1
                    },
                    {
                        "number": 64,
                        "time": 28.675014337500016,
                        "value": 0
                    },
                    {
                        "number": 64,
                        "time": 28.750014375000017,
                        "value": 1
                    },
                    {
                        "number": 64,
                        "time": 29.345848006250016,
                        "value": 0
                    },
                    {
                        "number": 64,
                        "time": 29.393070252083348,
                        "value": 1
                    },
                    {
                        "number": 64,
                        "time": 30.00973722708335,
                        "value": 0
                    },
                    {
                        "number": 64,
                        "time": 30.076403927083348,
                        "value": 1
                    },
                    {
                        "number": 64,
                        "time": 30.683348675000016,
                        "value": 0
                    },
                    {
                        "number": 64,
                        "time": 30.743070927083348,
                        "value": 1
                    },
                    {
                        "number": 64,
                        "time": 31.354182343750015,
                        "value": 0
                    },
                    {
                        "number": 64,
                        "time": 31.401404589583347,
                        "value": 1
                    },
                    {
                        "number": 64,
                        "time": 32.00696044791668,
                        "value": 0
                    },
                    {
                        "number": 64,
                        "time": 32.05973825208335,
                        "value": 1
                    },
                    {
                        "number": 64,
                        "time": 32.683349675000024,
                        "value": 0
                    },
                    {
                        "number": 64,
                        "time": 32.730571920833356,
                        "value": 1
                    },
                    {
                        "number": 64,
                        "time": 33.35001667500003,
                        "value": 0
                    },
                    {
                        "number": 64,
                        "time": 33.41668337500003,
                        "value": 1
                    },
                    {
                        "number": 64,
                        "time": 34.01251700625003,
                        "value": 0
                    },
                    {
                        "number": 64,
                        "time": 34.07223925833336,
                        "value": 1
                    },
                    {
                        "number": 64,
                        "time": 34.67640622708336,
                        "value": 0
                    },
                    {
                        "number": 64,
                        "time": 34.71807291458336,
                        "value": 1
                    },
                    {
                        "number": 64,
                        "time": 35.34168433750003,
                        "value": 0
                    },
                    {
                        "number": 64,
                        "time": 35.40140658958336,
                        "value": 1
                    },
                    {
                        "number": 64,
                        "time": 36.0111291166667,
                        "value": 0
                    },
                    {
                        "number": 64,
                        "time": 36.06390692083337,
                        "value": 1
                    },
                    {
                        "number": 64,
                        "time": 36.675018337500035,
                        "value": 0
                    },
                    {
                        "number": 64,
                        "time": 36.71807391458337,
                        "value": 1
                    },
                    {
                        "number": 64,
                        "time": 37.34168533750004,
                        "value": 0
                    },
                    {
                        "number": 64,
                        "time": 37.39724092083337,
                        "value": 1
                    },
                    {
                        "number": 64,
                        "time": 38.00974122708337,
                        "value": 0
                    },
                    {
                        "number": 64,
                        "time": 38.076407927083366,
                        "value": 1
                    },
                    {
                        "number": 64,
                        "time": 38.68751934375003,
                        "value": 0
                    },
                    {
                        "number": 64,
                        "time": 38.72640825208337,
                        "value": 1
                    },
                    {
                        "number": 64,
                        "time": 39.34585300625004,
                        "value": 0
                    },
                    {
                        "number": 64,
                        "time": 39.40140858958337,
                        "value": 1
                    },
                    {
                        "number": 64,
                        "time": 40.015297785416706,
                        "value": 0
                    },
                    {
                        "number": 64,
                        "time": 40.05140891458337,
                        "value": 0.7480314960629921
                    },
                    {
                        "number": 64,
                        "time": 40.68335367500004,
                        "value": 0
                    },
                    {
                        "number": 64,
                        "time": 40.743075927083375,
                        "value": 1
                    },
                    {
                        "number": 64,
                        "time": 41.34307622708337,
                        "value": 0
                    },
                    {
                        "number": 64,
                        "time": 41.39724292083337,
                        "value": 1
                    },
                    {
                        "number": 64,
                        "time": 42.02085434375004,
                        "value": 0
                    },
                    {
                        "number": 64,
                        "time": 42.05974325208337,
                        "value": 1
                    },
                    {
                        "number": 64,
                        "time": 42.680576895833376,
                        "value": 0
                    },
                    {
                        "number": 64,
                        "time": 42.726410252083376,
                        "value": 1
                    },
                    {
                        "number": 64,
                        "time": 43.34585500625005,
                        "value": 0
                    },
                    {
                        "number": 64,
                        "time": 43.40141058958338,
                        "value": 1
                    },
                    {
                        "number": 64,
                        "time": 44.02085534375005,
                        "value": 0
                    },
                    {
                        "number": 64,
                        "time": 44.08335537500005,
                        "value": 1
                    },
                    {
                        "number": 64,
                        "time": 44.68057789583339,
                        "value": 0
                    },
                    {
                        "number": 64,
                        "time": 44.734744589583386,
                        "value": 1
                    },
                    {
                        "number": 64,
                        "time": 45.34724489583339,
                        "value": 0
                    },
                    {
                        "number": 64,
                        "time": 45.39307825208339,
                        "value": 1
                    },
                    {
                        "number": 64,
                        "time": 46.00835633750006,
                        "value": 0
                    },
                    {
                        "number": 64,
                        "time": 46.0514119145834,
                        "value": 1
                    },
                    {
                        "number": 64,
                        "time": 46.687523343750065,
                        "value": 0
                    },
                    {
                        "number": 64,
                        "time": 46.743078927083396,
                        "value": 1
                    },
                    {
                        "number": 64,
                        "time": 47.34863478541673,
                        "value": 0
                    },
                    {
                        "number": 64,
                        "time": 47.39724592083339,
                        "value": 1
                    },
                    {
                        "number": 64,
                        "time": 48.01113511666673,
                        "value": 0
                    },
                    {
                        "number": 64,
                        "time": 48.072246258333394,
                        "value": 1
                    },
                    {
                        "number": 64,
                        "time": 48.67780211666673,
                        "value": 0
                    },
                    {
                        "number": 64,
                        "time": 48.7264132520834,
                        "value": 1
                    },
                    {
                        "number": 64,
                        "time": 49.35002467500007,
                        "value": 0
                    },
                    {
                        "number": 64,
                        "time": 49.401413589583406,
                        "value": 1
                    },
                    {
                        "number": 64,
                        "time": 50.00835833750008,
                        "value": 0
                    },
                    {
                        "number": 64,
                        "time": 50.07224725833341,
                        "value": 1
                    },
                    {
                        "number": 64,
                        "time": 50.67502533750008,
                        "value": 0
                    },
                    {
                        "number": 64,
                        "time": 50.734747589583414,
                        "value": 1
                    },
                    {
                        "number": 64,
                        "time": 51.34863678541675,
                        "value": 0
                    },
                    {
                        "number": 64,
                        "time": 51.38197013541675,
                        "value": 1
                    },
                    {
                        "number": 64,
                        "time": 52.01252600625009,
                        "value": 0
                    },
                    {
                        "number": 64,
                        "time": 52.06808158958342,
                        "value": 1
                    },
                    {
                        "number": 64,
                        "time": 52.6833596750001,
                        "value": 0
                    },
                    {
                        "number": 64,
                        "time": 52.726415252083434,
                        "value": 1
                    },
                    {
                        "number": 64,
                        "time": 53.35141556458344,
                        "value": 0
                    },
                    {
                        "number": 64,
                        "time": 53.40141558958344,
                        "value": 1
                    },
                    {
                        "number": 64,
                        "time": 54.01252700625012,
                        "value": 0
                    },
                    {
                        "number": 64,
                        "time": 54.07641592708345,
                        "value": 1
                    },
                    {
                        "number": 64,
                        "time": 54.67641622708345,
                        "value": 0
                    },
                    {
                        "number": 64,
                        "time": 54.738916258333454,
                        "value": 1
                    },
                    {
                        "number": 64,
                        "time": 55.35002767500013,
                        "value": 0
                    },
                    {
                        "number": 64,
                        "time": 55.40558325833346,
                        "value": 1
                    },
                    {
                        "number": 64,
                        "time": 56.01391689583346,
                        "value": 0
                    },
                    {
                        "number": 64,
                        "time": 56.06808358958346,
                        "value": 1
                    },
                    {
                        "number": 64,
                        "time": 57.35002867500014,
                        "value": 0
                    },
                    {
                        "number": 64,
                        "time": 57.41669537500014,
                        "value": 1
                    },
                    {
                        "number": 64,
                        "time": 58.679196006250145,
                        "value": 0
                    },
                    {
                        "number": 64,
                        "time": 58.71530713541681,
                        "value": 1
                    },
                    {
                        "number": 64,
                        "time": 59.34447411666682,
                        "value": 0
                    },
                    {
                        "number": 64,
                        "time": 59.388918583333485,
                        "value": 1
                    },
                    {
                        "number": 64,
                        "time": 60.016696675000155,
                        "value": 0
                    },
                    {
                        "number": 64,
                        "time": 60.06391892083349,
                        "value": 1
                    },
                    {
                        "number": 64,
                        "time": 60.68614145416682,
                        "value": 0
                    },
                    {
                        "number": 64,
                        "time": 60.73891925833349,
                        "value": 1
                    },
                    {
                        "number": 64,
                        "time": 61.34308622708349,
                        "value": 0
                    },
                    {
                        "number": 64,
                        "time": 61.39725292083349,
                        "value": 1
                    },
                    {
                        "number": 64,
                        "time": 62.01669767500016,
                        "value": 0
                    },
                    {
                        "number": 64,
                        "time": 62.059753252083496,
                        "value": 1
                    },
                    {
                        "number": 64,
                        "time": 62.68336467500017,
                        "value": 0
                    },
                    {
                        "number": 64,
                        "time": 62.7389202583335,
                        "value": 1
                    },
                    {
                        "number": 64,
                        "time": 63.34586500625017,
                        "value": 0
                    },
                    {
                        "number": 64,
                        "time": 63.4014205895835,
                        "value": 1
                    },
                    {
                        "number": 64,
                        "time": 64.01808756458351,
                        "value": 0
                    },
                    {
                        "number": 64,
                        "time": 64.06947647916684,
                        "value": 1
                    },
                    {
                        "number": 64,
                        "time": 65.34308822708346,
                        "value": 0
                    },
                    {
                        "number": 64,
                        "time": 65.39308825208346,
                        "value": 1
                    },
                    {
                        "number": 64,
                        "time": 66.01947745416676,
                        "value": 0
                    },
                    {
                        "number": 64,
                        "time": 66.06947747916676,
                        "value": 1
                    },
                    {
                        "number": 64,
                        "time": 66.6764222270834,
                        "value": 0
                    },
                    {
                        "number": 64,
                        "time": 66.73058892083341,
                        "value": 1
                    },
                    {
                        "number": 64,
                        "time": 68.00975622708337,
                        "value": 0
                    },
                    {
                        "number": 64,
                        "time": 68.05142291458337,
                        "value": 1
                    },
                    {
                        "number": 64,
                        "time": 68.67920100625001,
                        "value": 0
                    },
                    {
                        "number": 64,
                        "time": 68.73475658958334,
                        "value": 1
                    },
                    {
                        "number": 64,
                        "time": 69.3417013375,
                        "value": 0
                    },
                    {
                        "number": 64,
                        "time": 69.40281247916667,
                        "value": 1
                    },
                    {
                        "number": 64,
                        "time": 72.0125360062499,
                        "value": 0
                    },
                    {
                        "number": 64,
                        "time": 72.07225825833324,
                        "value": 1
                    },
                    {
                        "number": 64,
                        "time": 74.68337067499981,
                        "value": 0
                    },
                    {
                        "number": 64,
                        "time": 74.73892625833314,
                        "value": 1
                    },
                    {
                        "number": 64,
                        "time": 77.34864978541638,
                        "value": 0
                    },
                    {
                        "number": 64,
                        "time": 77.38476091458305,
                        "value": 1
                    },
                    {
                        "number": 64,
                        "time": 80.01948445416629,
                        "value": 0
                    },
                    {
                        "number": 64,
                        "time": 80.09170671249962,
                        "value": 1
                    },
                    {
                        "number": 64,
                        "time": 82.68198578541619,
                        "value": 0
                    },
                    {
                        "number": 64,
                        "time": 82.75559693333285,
                        "value": 1
                    },
                    {
                        "number": 64,
                        "time": 85.3444871166661,
                        "value": 0
                    },
                    {
                        "number": 64,
                        "time": 85.74726509583277,
                        "value": 1
                    },
                    {
                        "number": 64,
                        "time": 86.68337667499944,
                        "value": 0
                    },
                    {
                        "number": 64,
                        "time": 86.89726567083277,
                        "value": 1
                    },
                    {
                        "number": 64,
                        "time": 87.34726589583276,
                        "value": 0
                    },
                    {
                        "number": 64,
                        "time": 87.5403215479161,
                        "value": 1
                    },
                    {
                        "number": 64,
                        "time": 88.00559955833275,
                        "value": 0
                    },
                    {
                        "number": 64,
                        "time": 88.09587738124941,
                        "value": 1
                    },
                    {
                        "number": 64,
                        "time": 92.85282420416608,
                        "value": 0
                    }
                ],
                "91": [
                    {
                        "number": 91,
                        "time": 0,
                        "value": 1
                    }
                ]
            },
            "id": 3,
            "name": "Piano left",
            "instrumentNumber": 0,
            "instrument": "acoustic grand piano",
            "instrumentFamily": "piano",
            "channelNumber": 0,
            "isPercussion": false
        },
        {
            "startTime": 0,
            "duration": 0,
            "length": 0,
            "notes": [],
            "controlChanges": {},
            "id": 4,
            "name": "Chopin: Prelude No.8 in F#-, Op. 28"
        },
        {
            "startTime": 0,
            "duration": 0,
            "length": 0,
            "notes": [],
            "controlChanges": {},
            "id": 5,
            "name": "Copyright  1997 by Bernd Krueger"
        },
        {
            "startTime": 0,
            "duration": 0,
            "length": 0,
            "notes": [],
            "controlChanges": {},
            "id": 6,
            "name": "http://www.piano-midi.de"
        },
        {
            "startTime": 0,
            "duration": 0,
            "length": 0,
            "notes": [],
            "controlChanges": {},
            "id": 7,
            "name": "Edition: 2014-02-20"
        }
    ]
}