{
    "header": {
        "PPQ": 480,
        "timeSignature": [
            2,
            8
        ],
        "bpm": 69.00001725000432,
        "name": "Chopin Prelude  No. 1, Opus 28"
    },
    "startTime": 0,
    "duration": 29.565210000000064,
    "tracks": [
        {
            "startTime": 0,
            "duration": 0,
            "length": 0,
            "notes": [],
            "controlChanges": {},
            "id": 0,
            "name": "Chopin Prelude  No. 1, Opus 28"
        },
        {
            "startTime": 0.289855,
            "duration": 29.565210000000064,
            "length": 204,
            "notes": [
                {
                    "name": "C4",
                    "midi": 60,
                    "time": 0.289855,
                    "velocity": 0.3858267716535433,
                    "duration": 0.1449275
                },
                {
                    "name": "G4",
                    "midi": 67,
                    "time": 0.43478249999999996,
                    "velocity": 0.41732283464566927,
                    "duration": 0.289855
                },
                {
                    "name": "E4",
                    "midi": 64,
                    "time": 0.43478249999999996,
                    "velocity": 0.25984251968503935,
                    "duration": 0.1449275
                },
                {
                    "name": "C4",
                    "midi": 60,
                    "time": 0.57971,
                    "velocity": 0.33858267716535434,
                    "duration": 0.1449275
                },
                {
                    "name": "A4",
                    "midi": 69,
                    "time": 0.7246374999999999,
                    "velocity": 0.33858267716535434,
                    "duration": 0.1449275
                },
                {
                    "name": "D4",
                    "midi": 62,
                    "time": 1.15942,
                    "velocity": 0.4015748031496063,
                    "duration": 0.1449275000000001
                },
                {
                    "name": "G4",
                    "midi": 67,
                    "time": 1.3043475,
                    "velocity": 0.4645669291338583,
                    "duration": 0.2898550000000002
                },
                {
                    "name": "F4",
                    "midi": 65,
                    "time": 1.3043475,
                    "velocity": 0.31496062992125984,
                    "duration": 0.1449275000000001
                },
                {
                    "name": "D4",
                    "midi": 62,
                    "time": 1.449275,
                    "velocity": 0.3700787401574803,
                    "duration": 0.1449275000000001
                },
                {
                    "name": "A4",
                    "midi": 69,
                    "time": 1.5942025000000002,
                    "velocity": 0.3543307086614173,
                    "duration": 0.1449275000000001
                },
                {
                    "name": "C4",
                    "midi": 60,
                    "time": 2.0289850000000005,
                    "velocity": 0.4645669291338583,
                    "duration": 0.1449275000000001
                },
                {
                    "name": "G4",
                    "midi": 67,
                    "time": 2.1739125000000006,
                    "velocity": 0.5275590551181102,
                    "duration": 0.2898550000000002
                },
                {
                    "name": "E4",
                    "midi": 64,
                    "time": 2.1739125000000006,
                    "velocity": 0.36220472440944884,
                    "duration": 0.1449275000000001
                },
                {
                    "name": "C4",
                    "midi": 60,
                    "time": 2.3188400000000007,
                    "velocity": 0.48031496062992124,
                    "duration": 0.1449275000000001
                },
                {
                    "name": "A4",
                    "midi": 69,
                    "time": 2.4637675000000008,
                    "velocity": 0.5118110236220472,
                    "duration": 0.1449275000000001
                },
                {
                    "name": "E4",
                    "midi": 64,
                    "time": 2.898550000000001,
                    "velocity": 0.5511811023622047,
                    "duration": 0.1449275000000001
                },
                {
                    "name": "B4",
                    "midi": 71,
                    "time": 3.043477500000001,
                    "velocity": 0.5905511811023622,
                    "duration": 0.2898550000000002
                },
                {
                    "name": "G4",
                    "midi": 67,
                    "time": 3.043477500000001,
                    "velocity": 0.4094488188976378,
                    "duration": 0.1449275000000001
                },
                {
                    "name": "E4",
                    "midi": 64,
                    "time": 3.1884050000000013,
                    "velocity": 0.5511811023622047,
                    "duration": 0.1449275000000001
                },
                {
                    "name": "C5",
                    "midi": 72,
                    "time": 3.3333325000000014,
                    "velocity": 0.6141732283464567,
                    "duration": 0.1449275000000001
                },
                {
                    "name": "E4",
                    "midi": 64,
                    "time": 3.6231875000000016,
                    "velocity": 0.6220472440944882,
                    "duration": 0.57971
                },
                {
                    "name": "A4",
                    "midi": 69,
                    "time": 3.7681150000000017,
                    "velocity": 0.5905511811023622,
                    "duration": 0.1449275000000001
                },
                {
                    "name": "E5",
                    "midi": 76,
                    "time": 3.9130425000000018,
                    "velocity": 0.6299212598425197,
                    "duration": 0.28985499999999975
                },
                {
                    "name": "C5",
                    "midi": 72,
                    "time": 3.9130425000000018,
                    "velocity": 0.4566929133858268,
                    "duration": 0.1449275000000001
                },
                {
                    "name": "A4",
                    "midi": 69,
                    "time": 4.057970000000002,
                    "velocity": 0.5905511811023622,
                    "duration": 0.14492749999999965
                },
                {
                    "name": "D4",
                    "midi": 62,
                    "time": 4.2028975000000015,
                    "velocity": 0.6299212598425197,
                    "duration": 0.14492749999999965
                },
                {
                    "name": "D5",
                    "midi": 74,
                    "time": 4.2028975000000015,
                    "velocity": 0.6299212598425197,
                    "duration": 0.14492749999999965
                },
                {
                    "name": "E4",
                    "midi": 64,
                    "time": 4.492752500000001,
                    "velocity": 0.6771653543307087,
                    "duration": 0.5797099999999986
                },
                {
                    "name": "A4",
                    "midi": 69,
                    "time": 4.6376800000000005,
                    "velocity": 0.6456692913385826,
                    "duration": 0.14492749999999965
                },
                {
                    "name": "E5",
                    "midi": 76,
                    "time": 4.7826075,
                    "velocity": 0.6929133858267716,
                    "duration": 0.2898549999999993
                },
                {
                    "name": "C5",
                    "midi": 72,
                    "time": 4.7826075,
                    "velocity": 0.48031496062992124,
                    "duration": 0.14492749999999965
                },
                {
                    "name": "A4",
                    "midi": 69,
                    "time": 4.927535,
                    "velocity": 0.6456692913385826,
                    "duration": 0.14492749999999965
                },
                {
                    "name": "D4",
                    "midi": 62,
                    "time": 5.072462499999999,
                    "velocity": 0.6614173228346457,
                    "duration": 0.14492749999999965
                },
                {
                    "name": "D5",
                    "midi": 74,
                    "time": 5.072462499999999,
                    "velocity": 0.6614173228346457,
                    "duration": 0.14492749999999965
                },
                {
                    "name": "E4",
                    "midi": 64,
                    "time": 5.362317499999999,
                    "velocity": 0.6771653543307087,
                    "duration": 0.5797099999999986
                },
                {
                    "name": "G4",
                    "midi": 67,
                    "time": 5.507244999999998,
                    "velocity": 0.6456692913385826,
                    "duration": 0.14492749999999965
                },
                {
                    "name": "E5",
                    "midi": 76,
                    "time": 5.652172499999998,
                    "velocity": 0.6929133858267716,
                    "duration": 0.2898549999999993
                },
                {
                    "name": "B4",
                    "midi": 71,
                    "time": 5.652172499999998,
                    "velocity": 0.4330708661417323,
                    "duration": 0.14492749999999965
                },
                {
                    "name": "G4",
                    "midi": 67,
                    "time": 5.797099999999998,
                    "velocity": 0.5826771653543307,
                    "duration": 0.14492749999999965
                },
                {
                    "name": "D4",
                    "midi": 62,
                    "time": 5.942027499999997,
                    "velocity": 0.5275590551181102,
                    "duration": 0.14492749999999965
                },
                {
                    "name": "D5",
                    "midi": 74,
                    "time": 5.942027499999997,
                    "velocity": 0.6456692913385826,
                    "duration": 0.14492749999999965
                },
                {
                    "name": "D4",
                    "midi": 62,
                    "time": 6.376809999999997,
                    "velocity": 0.4409448818897638,
                    "duration": 0.14492749999999965
                },
                {
                    "name": "B4",
                    "midi": 71,
                    "time": 6.521737499999997,
                    "velocity": 0.4645669291338583,
                    "duration": 0.2898549999999993
                },
                {
                    "name": "F4",
                    "midi": 65,
                    "time": 6.521737499999997,
                    "velocity": 0.3228346456692913,
                    "duration": 0.14492749999999965
                },
                {
                    "name": "D4",
                    "midi": 62,
                    "time": 6.6666649999999965,
                    "velocity": 0.3937007874015748,
                    "duration": 0.14492749999999965
                },
                {
                    "name": "A4",
                    "midi": 69,
                    "time": 6.811592499999996,
                    "velocity": 0.3700787401574803,
                    "duration": 0.14492749999999965
                },
                {
                    "name": "C4",
                    "midi": 60,
                    "time": 7.246374999999996,
                    "velocity": 0.41732283464566927,
                    "duration": 0.14492749999999965
                },
                {
                    "name": "G4",
                    "midi": 67,
                    "time": 7.391302499999996,
                    "velocity": 0.47244094488188976,
                    "duration": 0.2898549999999993
                },
                {
                    "name": "E4",
                    "midi": 64,
                    "time": 7.391302499999996,
                    "velocity": 0.28346456692913385,
                    "duration": 0.14492749999999965
                },
                {
                    "name": "C4",
                    "midi": 60,
                    "time": 7.536229999999995,
                    "velocity": 0.4015748031496063,
                    "duration": 0.14492749999999965
                },
                {
                    "name": "A4",
                    "midi": 69,
                    "time": 7.681157499999995,
                    "velocity": 0.3543307086614173,
                    "duration": 0.14492749999999965
                },
                {
                    "name": "D4",
                    "midi": 62,
                    "time": 8.115939999999995,
                    "velocity": 0.4566929133858268,
                    "duration": 0.14492749999999965
                },
                {
                    "name": "G4",
                    "midi": 67,
                    "time": 8.260867499999994,
                    "velocity": 0.48031496062992124,
                    "duration": 0.2898549999999993
                },
                {
                    "name": "F4",
                    "midi": 65,
                    "time": 8.260867499999994,
                    "velocity": 0.3543307086614173,
                    "duration": 0.14492749999999965
                },
                {
                    "name": "D4",
                    "midi": 62,
                    "time": 8.405794999999994,
                    "velocity": 0.4566929133858268,
                    "duration": 0.14492749999999965
                },
                {
                    "name": "A4",
                    "midi": 69,
                    "time": 8.550722499999994,
                    "velocity": 0.4015748031496063,
                    "duration": 0.14492749999999965
                },
                {
                    "name": "C4",
                    "midi": 60,
                    "time": 8.985504999999993,
                    "velocity": 0.5039370078740157,
                    "duration": 0.14492749999999965
                },
                {
                    "name": "G4",
                    "midi": 67,
                    "time": 9.130432499999992,
                    "velocity": 0.5669291338582677,
                    "duration": 0.2898549999999993
                },
                {
                    "name": "E4",
                    "midi": 64,
                    "time": 9.130432499999992,
                    "velocity": 0.3858267716535433,
                    "duration": 0.14492749999999965
                },
                {
                    "name": "C4",
                    "midi": 60,
                    "time": 9.275359999999992,
                    "velocity": 0.5196850393700787,
                    "duration": 0.14492749999999965
                },
                {
                    "name": "A4",
                    "midi": 69,
                    "time": 9.420287499999992,
                    "velocity": 0.4881889763779528,
                    "duration": 0.14492749999999965
                },
                {
                    "name": "E4",
                    "midi": 64,
                    "time": 9.85506999999999,
                    "velocity": 0.5511811023622047,
                    "duration": 0.14492749999999965
                },
                {
                    "name": "B4",
                    "midi": 71,
                    "time": 9.99999749999999,
                    "velocity": 0.5905511811023622,
                    "duration": 0.2898549999999993
                },
                {
                    "name": "G4",
                    "midi": 67,
                    "time": 9.99999749999999,
                    "velocity": 0.4094488188976378,
                    "duration": 0.14492749999999965
                },
                {
                    "name": "E4",
                    "midi": 64,
                    "time": 10.14492499999999,
                    "velocity": 0.5511811023622047,
                    "duration": 0.14492749999999965
                },
                {
                    "name": "C5",
                    "midi": 72,
                    "time": 10.28985249999999,
                    "velocity": 0.5433070866141733,
                    "duration": 0.14492749999999965
                },
                {
                    "name": "C#4",
                    "midi": 61,
                    "time": 10.579707499999989,
                    "velocity": 0.5433070866141733,
                    "duration": 0.5797099999999986
                },
                {
                    "name": "F4",
                    "midi": 65,
                    "time": 10.724634999999989,
                    "velocity": 0.5905511811023622,
                    "duration": 0.14492749999999965
                },
                {
                    "name": "C#5",
                    "midi": 73,
                    "time": 10.869562499999988,
                    "velocity": 0.6299212598425197,
                    "duration": 0.2898549999999993
                },
                {
                    "name": "A4",
                    "midi": 69,
                    "time": 10.869562499999988,
                    "velocity": 0.4330708661417323,
                    "duration": 0.14492749999999965
                },
                {
                    "name": "F4",
                    "midi": 65,
                    "time": 11.014489999999988,
                    "velocity": 0.5905511811023622,
                    "duration": 0.14492749999999965
                },
                {
                    "name": "D4",
                    "midi": 62,
                    "time": 11.159417499999988,
                    "velocity": 0.4566929133858268,
                    "duration": 0.14492749999999965
                },
                {
                    "name": "D5",
                    "midi": 74,
                    "time": 11.159417499999988,
                    "velocity": 0.5748031496062992,
                    "duration": 0.14492749999999965
                },
                {
                    "name": "D#4",
                    "midi": 63,
                    "time": 11.449272499999987,
                    "velocity": 0.5669291338582677,
                    "duration": 0.5797099999999986
                },
                {
                    "name": "G4",
                    "midi": 67,
                    "time": 11.594199999999987,
                    "velocity": 0.6141732283464567,
                    "duration": 0.14492749999999965
                },
                {
                    "name": "D#5",
                    "midi": 75,
                    "time": 11.739127499999986,
                    "velocity": 0.6456692913385826,
                    "duration": 0.2898549999999993
                },
                {
                    "name": "C5",
                    "midi": 72,
                    "time": 11.739127499999986,
                    "velocity": 0.44881889763779526,
                    "duration": 0.14492749999999965
                },
                {
                    "name": "G4",
                    "midi": 67,
                    "time": 11.884054999999986,
                    "velocity": 0.6141732283464567,
                    "duration": 0.14492749999999965
                },
                {
                    "name": "E5",
                    "midi": 76,
                    "time": 12.028982499999985,
                    "velocity": 0.6141732283464567,
                    "duration": 0.14492749999999965
                },
                {
                    "name": "E4",
                    "midi": 64,
                    "time": 12.028982499999985,
                    "velocity": 0.48031496062992124,
                    "duration": 0.14492749999999965
                },
                {
                    "name": "G4",
                    "midi": 67,
                    "time": 12.318837499999985,
                    "velocity": 0.5905511811023622,
                    "duration": 0.5797099999999986
                },
                {
                    "name": "A4",
                    "midi": 69,
                    "time": 12.463764999999984,
                    "velocity": 0.6299212598425197,
                    "duration": 0.14492749999999965
                },
                {
                    "name": "G5",
                    "midi": 79,
                    "time": 12.608692499999984,
                    "velocity": 0.6771653543307087,
                    "duration": 0.2898549999999993
                },
                {
                    "name": "C5",
                    "midi": 72,
                    "time": 12.608692499999984,
                    "velocity": 0.47244094488188976,
                    "duration": 0.14492749999999965
                },
                {
                    "name": "A4",
                    "midi": 69,
                    "time": 12.753619999999984,
                    "velocity": 0.5905511811023622,
                    "duration": 0.14492749999999965
                },
                {
                    "name": "F4",
                    "midi": 65,
                    "time": 12.898547499999983,
                    "velocity": 0.49606299212598426,
                    "duration": 0.14492749999999965
                },
                {
                    "name": "F5",
                    "midi": 77,
                    "time": 12.898547499999983,
                    "velocity": 0.6377952755905512,
                    "duration": 0.14492749999999965
                },
                {
                    "name": "D#4",
                    "midi": 63,
                    "time": 13.188402499999983,
                    "velocity": 0.7165354330708661,
                    "duration": 0.5797099999999986
                },
                {
                    "name": "G4",
                    "midi": 67,
                    "time": 13.333329999999982,
                    "velocity": 0.6456692913385826,
                    "duration": 0.14492749999999965
                },
                {
                    "name": "D#5",
                    "midi": 75,
                    "time": 13.478257499999982,
                    "velocity": 0.7165354330708661,
                    "duration": 0.2898549999999993
                },
                {
                    "name": "C5",
                    "midi": 72,
                    "time": 13.478257499999982,
                    "velocity": 0.48031496062992124,
                    "duration": 0.14492749999999965
                },
                {
                    "name": "G4",
                    "midi": 67,
                    "time": 13.623184999999982,
                    "velocity": 0.6220472440944882,
                    "duration": 0.14492749999999965
                },
                {
                    "name": "E4",
                    "midi": 64,
                    "time": 13.768112499999981,
                    "velocity": 0.5196850393700787,
                    "duration": 0.14492749999999965
                },
                {
                    "name": "E5",
                    "midi": 76,
                    "time": 13.768112499999981,
                    "velocity": 0.6771653543307087,
                    "duration": 0.14492749999999965
                },
                {
                    "name": "E4",
                    "midi": 64,
                    "time": 14.05796749999998,
                    "velocity": 0.7244094488188977,
                    "duration": 0.5797099999999986
                },
                {
                    "name": "A4",
                    "midi": 69,
                    "time": 14.20289499999998,
                    "velocity": 0.6771653543307087,
                    "duration": 0.14492749999999965
                },
                {
                    "name": "E5",
                    "midi": 76,
                    "time": 14.34782249999998,
                    "velocity": 0.7559055118110236,
                    "duration": 0.2898549999999993
                },
                {
                    "name": "C5",
                    "midi": 72,
                    "time": 14.34782249999998,
                    "velocity": 0.49606299212598426,
                    "duration": 0.14492749999999965
                },
                {
                    "name": "A4",
                    "midi": 69,
                    "time": 14.49274999999998,
                    "velocity": 0.6456692913385826,
                    "duration": 0.14492749999999965
                },
                {
                    "name": "F4",
                    "midi": 65,
                    "time": 14.63767749999998,
                    "velocity": 0.6692913385826772,
                    "duration": 0.14492749999999965
                },
                {
                    "name": "F5",
                    "midi": 77,
                    "time": 14.63767749999998,
                    "velocity": 0.6692913385826772,
                    "duration": 0.14492749999999965
                },
                {
                    "name": "F#4",
                    "midi": 66,
                    "time": 14.782604999999979,
                    "velocity": 0.7637795275590551,
                    "duration": 0.7246375
                },
                {
                    "name": "B4",
                    "midi": 71,
                    "time": 14.99999624999998,
                    "velocity": 0.6377952755905512,
                    "duration": 0.21739125000000037
                },
                {
                    "name": "F#5",
                    "midi": 78,
                    "time": 15.21738749999998,
                    "velocity": 0.7007874015748031,
                    "duration": 0.2898549999999993
                },
                {
                    "name": "D5",
                    "midi": 74,
                    "time": 15.21738749999998,
                    "velocity": 0.5511811023622047,
                    "duration": 0.14492749999999965
                },
                {
                    "name": "B4",
                    "midi": 71,
                    "time": 15.36231499999998,
                    "velocity": 0.6614173228346457,
                    "duration": 0.14492749999999965
                },
                {
                    "name": "G4",
                    "midi": 67,
                    "time": 15.507242499999979,
                    "velocity": 0.4881889763779528,
                    "duration": 0.14492749999999965
                },
                {
                    "name": "G5",
                    "midi": 79,
                    "time": 15.507242499999979,
                    "velocity": 0.6377952755905512,
                    "duration": 0.14492749999999965
                },
                {
                    "name": "G#4",
                    "midi": 68,
                    "time": 15.652169999999979,
                    "velocity": 0.7795275590551181,
                    "duration": 0.7246375000000018
                },
                {
                    "name": "C5",
                    "midi": 72,
                    "time": 15.869561249999979,
                    "velocity": 0.6456692913385826,
                    "duration": 0.2173912499999986
                },
                {
                    "name": "G#5",
                    "midi": 80,
                    "time": 16.086952499999978,
                    "velocity": 0.7165354330708661,
                    "duration": 0.28985500000000286
                },
                {
                    "name": "E5",
                    "midi": 76,
                    "time": 16.086952499999978,
                    "velocity": 0.5669291338582677,
                    "duration": 0.14492750000000143
                },
                {
                    "name": "C5",
                    "midi": 72,
                    "time": 16.23187999999998,
                    "velocity": 0.6456692913385826,
                    "duration": 0.14492750000000143
                },
                {
                    "name": "A4",
                    "midi": 69,
                    "time": 16.37680749999998,
                    "velocity": 0.5039370078740157,
                    "duration": 0.14492750000000143
                },
                {
                    "name": "A5",
                    "midi": 81,
                    "time": 16.37680749999998,
                    "velocity": 0.6692913385826772,
                    "duration": 0.14492750000000143
                },
                {
                    "name": "A#4",
                    "midi": 70,
                    "time": 16.521734999999982,
                    "velocity": 0.7874015748031497,
                    "duration": 0.7246375
                },
                {
                    "name": "D5",
                    "midi": 74,
                    "time": 16.73912624999998,
                    "velocity": 0.6456692913385826,
                    "duration": 0.2173912499999986
                },
                {
                    "name": "A#5",
                    "midi": 82,
                    "time": 16.95651749999998,
                    "velocity": 0.7874015748031497,
                    "duration": 0.28985500000000286
                },
                {
                    "name": "G5",
                    "midi": 79,
                    "time": 16.95651749999998,
                    "velocity": 0.48031496062992124,
                    "duration": 0.14492750000000143
                },
                {
                    "name": "D5",
                    "midi": 74,
                    "time": 17.10144499999998,
                    "velocity": 0.7637795275590551,
                    "duration": 0.14492750000000143
                },
                {
                    "name": "B4",
                    "midi": 71,
                    "time": 17.246372499999982,
                    "velocity": 0.5275590551181102,
                    "duration": 0.14492750000000143
                },
                {
                    "name": "B5",
                    "midi": 83,
                    "time": 17.246372499999982,
                    "velocity": 0.7322834645669292,
                    "duration": 0.14492750000000143
                },
                {
                    "name": "D5",
                    "midi": 74,
                    "time": 17.536227499999985,
                    "velocity": 0.8110236220472441,
                    "duration": 0.5797100000000057
                },
                {
                    "name": "E5",
                    "midi": 76,
                    "time": 17.681154999999986,
                    "velocity": 0.7637795275590551,
                    "duration": 0.14492750000000143
                },
                {
                    "name": "D6",
                    "midi": 86,
                    "time": 17.826082499999988,
                    "velocity": 0.8503937007874016,
                    "duration": 0.28985500000000286
                },
                {
                    "name": "G5",
                    "midi": 79,
                    "time": 17.826082499999988,
                    "velocity": 0.6456692913385826,
                    "duration": 0.14492750000000143
                },
                {
                    "name": "E5",
                    "midi": 76,
                    "time": 17.97100999999999,
                    "velocity": 0.5748031496062992,
                    "duration": 0.14492750000000143
                },
                {
                    "name": "C5",
                    "midi": 72,
                    "time": 18.11593749999999,
                    "velocity": 0.4251968503937008,
                    "duration": 0.14492750000000143
                },
                {
                    "name": "C6",
                    "midi": 84,
                    "time": 18.11593749999999,
                    "velocity": 0.5905511811023622,
                    "duration": 0.14492750000000143
                },
                {
                    "name": "B4",
                    "midi": 71,
                    "time": 18.405792499999993,
                    "velocity": 0.5196850393700787,
                    "duration": 0.5797100000000057
                },
                {
                    "name": "C5",
                    "midi": 72,
                    "time": 18.550719999999995,
                    "velocity": 0.5275590551181102,
                    "duration": 0.14492750000000143
                },
                {
                    "name": "B5",
                    "midi": 83,
                    "time": 18.695647499999996,
                    "velocity": 0.5669291338582677,
                    "duration": 0.28985500000000286
                },
                {
                    "name": "D#5",
                    "midi": 75,
                    "time": 18.695647499999996,
                    "velocity": 0.3858267716535433,
                    "duration": 0.14492750000000143
                },
                {
                    "name": "C5",
                    "midi": 72,
                    "time": 18.840574999999998,
                    "velocity": 0.49606299212598426,
                    "duration": 0.14492750000000143
                },
                {
                    "name": "A4",
                    "midi": 69,
                    "time": 18.9855025,
                    "velocity": 0.3937007874015748,
                    "duration": 0.14492750000000143
                },
                {
                    "name": "A5",
                    "midi": 81,
                    "time": 18.9855025,
                    "velocity": 0.4881889763779528,
                    "duration": 0.14492750000000143
                },
                {
                    "name": "A4",
                    "midi": 69,
                    "time": 19.13043,
                    "velocity": 0.48031496062992124,
                    "duration": 0.7246375
                },
                {
                    "name": "C5",
                    "midi": 72,
                    "time": 19.34782125,
                    "velocity": 0.4645669291338583,
                    "duration": 0.2173912499999986
                },
                {
                    "name": "A5",
                    "midi": 81,
                    "time": 19.565212499999998,
                    "velocity": 0.49606299212598426,
                    "duration": 0.28985500000000286
                },
                {
                    "name": "E5",
                    "midi": 76,
                    "time": 19.565212499999998,
                    "velocity": 0.3228346456692913,
                    "duration": 0.14492750000000143
                },
                {
                    "name": "C5",
                    "midi": 72,
                    "time": 19.71014,
                    "velocity": 0.48031496062992124,
                    "duration": 0.14492750000000143
                },
                {
                    "name": "G4",
                    "midi": 67,
                    "time": 19.8550675,
                    "velocity": 0.3700787401574803,
                    "duration": 0.14492750000000143
                },
                {
                    "name": "G5",
                    "midi": 79,
                    "time": 19.8550675,
                    "velocity": 0.47244094488188976,
                    "duration": 0.14492750000000143
                },
                {
                    "name": "E4",
                    "midi": 64,
                    "time": 20.144922500000003,
                    "velocity": 0.4409448818897638,
                    "duration": 0.5797100000000057
                },
                {
                    "name": "G4",
                    "midi": 67,
                    "time": 20.289850000000005,
                    "velocity": 0.4330708661417323,
                    "duration": 0.14492750000000143
                },
                {
                    "name": "E5",
                    "midi": 76,
                    "time": 20.434777500000006,
                    "velocity": 0.44881889763779526,
                    "duration": 0.28985500000000286
                },
                {
                    "name": "B4",
                    "midi": 71,
                    "time": 20.434777500000006,
                    "velocity": 0.28346456692913385,
                    "duration": 0.14492750000000143
                },
                {
                    "name": "G4",
                    "midi": 67,
                    "time": 20.579705000000008,
                    "velocity": 0.3858267716535433,
                    "duration": 0.14492750000000143
                },
                {
                    "name": "D4",
                    "midi": 62,
                    "time": 20.72463250000001,
                    "velocity": 0.3858267716535433,
                    "duration": 0.14492750000000143
                },
                {
                    "name": "D5",
                    "midi": 74,
                    "time": 20.72463250000001,
                    "velocity": 0.3858267716535433,
                    "duration": 0.14492750000000143
                },
                {
                    "name": "C4",
                    "midi": 60,
                    "time": 21.08695125000001,
                    "velocity": 0.4015748031496063,
                    "duration": 0.2173912499999986
                },
                {
                    "name": "G4",
                    "midi": 67,
                    "time": 21.304342500000008,
                    "velocity": 0.4409448818897638,
                    "duration": 0.28985500000000286
                },
                {
                    "name": "E4",
                    "midi": 64,
                    "time": 21.304342500000008,
                    "velocity": 0.2755905511811024,
                    "duration": 0.14492750000000143
                },
                {
                    "name": "C4",
                    "midi": 60,
                    "time": 21.44927000000001,
                    "velocity": 0.3779527559055118,
                    "duration": 0.14492750000000143
                },
                {
                    "name": "A4",
                    "midi": 69,
                    "time": 21.59419750000001,
                    "velocity": 0.3779527559055118,
                    "duration": 0.14492750000000143
                },
                {
                    "name": "E4",
                    "midi": 64,
                    "time": 21.739125000000012,
                    "velocity": 0.3228346456692913,
                    "duration": 0.7246375
                },
                {
                    "name": "G4",
                    "midi": 67,
                    "time": 21.95651625000001,
                    "velocity": 0.4330708661417323,
                    "duration": 0.2173912499999986
                },
                {
                    "name": "E5",
                    "midi": 76,
                    "time": 22.17390750000001,
                    "velocity": 0.48031496062992124,
                    "duration": 0.28985500000000286
                },
                {
                    "name": "B4",
                    "midi": 71,
                    "time": 22.17390750000001,
                    "velocity": 0.2992125984251969,
                    "duration": 0.14492750000000143
                },
                {
                    "name": "G4",
                    "midi": 67,
                    "time": 22.31883500000001,
                    "velocity": 0.3779527559055118,
                    "duration": 0.14492750000000143
                },
                {
                    "name": "D4",
                    "midi": 62,
                    "time": 22.463762500000012,
                    "velocity": 0.3228346456692913,
                    "duration": 0.14492750000000143
                },
                {
                    "name": "D5",
                    "midi": 74,
                    "time": 22.463762500000012,
                    "velocity": 0.3779527559055118,
                    "duration": 0.14492750000000143
                },
                {
                    "name": "C4",
                    "midi": 60,
                    "time": 22.898545000000013,
                    "velocity": 0.4015748031496063,
                    "duration": 0.14492750000000143
                },
                {
                    "name": "G4",
                    "midi": 67,
                    "time": 23.043472500000014,
                    "velocity": 0.4409448818897638,
                    "duration": 0.28985500000000286
                },
                {
                    "name": "E4",
                    "midi": 64,
                    "time": 23.043472500000014,
                    "velocity": 0.2755905511811024,
                    "duration": 0.14492750000000143
                },
                {
                    "name": "C4",
                    "midi": 60,
                    "time": 23.188400000000016,
                    "velocity": 0.3779527559055118,
                    "duration": 0.14492750000000143
                },
                {
                    "name": "A4",
                    "midi": 69,
                    "time": 23.333327500000017,
                    "velocity": 0.3779527559055118,
                    "duration": 0.14492750000000143
                },
                {
                    "name": "E4",
                    "midi": 64,
                    "time": 23.62318250000002,
                    "velocity": 0.3228346456692913,
                    "duration": 0.5797100000000057
                },
                {
                    "name": "G4",
                    "midi": 67,
                    "time": 23.76811000000002,
                    "velocity": 0.4330708661417323,
                    "duration": 0.14492750000000143
                },
                {
                    "name": "E5",
                    "midi": 76,
                    "time": 23.913037500000023,
                    "velocity": 0.48031496062992124,
                    "duration": 0.28985500000000286
                },
                {
                    "name": "B4",
                    "midi": 71,
                    "time": 23.913037500000023,
                    "velocity": 0.2992125984251969,
                    "duration": 0.14492750000000143
                },
                {
                    "name": "G4",
                    "midi": 67,
                    "time": 24.057965000000024,
                    "velocity": 0.3779527559055118,
                    "duration": 0.14492750000000143
                },
                {
                    "name": "D4",
                    "midi": 62,
                    "time": 24.202892500000026,
                    "velocity": 0.3228346456692913,
                    "duration": 0.14492750000000143
                },
                {
                    "name": "D5",
                    "midi": 74,
                    "time": 24.202892500000026,
                    "velocity": 0.3779527559055118,
                    "duration": 0.14492750000000143
                },
                {
                    "name": "C4",
                    "midi": 60,
                    "time": 24.49274750000003,
                    "velocity": 0.3228346456692913,
                    "duration": 0.28985500000000286
                },
                {
                    "name": "F4",
                    "midi": 65,
                    "time": 24.63767500000003,
                    "velocity": 0.4015748031496063,
                    "duration": 0.14492750000000143
                },
                {
                    "name": "C5",
                    "midi": 72,
                    "time": 24.78260250000003,
                    "velocity": 0.4409448818897638,
                    "duration": 0.8695650000000086
                },
                {
                    "name": "A4",
                    "midi": 69,
                    "time": 24.78260250000003,
                    "velocity": 0.2755905511811024,
                    "duration": 0.14492750000000143
                },
                {
                    "name": "F4",
                    "midi": 65,
                    "time": 24.927530000000033,
                    "velocity": 0.3543307086614173,
                    "duration": 0.14492750000000143
                },
                {
                    "name": "E4",
                    "midi": 64,
                    "time": 25.072457500000034,
                    "velocity": 0.3228346456692913,
                    "duration": 0.14492750000000143
                },
                {
                    "name": "G4",
                    "midi": 67,
                    "time": 25.072457500000034,
                    "velocity": 0.3228346456692913,
                    "duration": 0.14492750000000143
                },
                {
                    "name": "C4",
                    "midi": 60,
                    "time": 25.362312500000037,
                    "velocity": 0.33070866141732286,
                    "duration": 0.28985500000000286
                },
                {
                    "name": "F4",
                    "midi": 65,
                    "time": 25.50724000000004,
                    "velocity": 0.4409448818897638,
                    "duration": 0.14492750000000143
                },
                {
                    "name": "C5",
                    "midi": 72,
                    "time": 25.65216750000004,
                    "velocity": 0.5039370078740157,
                    "duration": 0.8695650000000086
                },
                {
                    "name": "A4",
                    "midi": 69,
                    "time": 25.65216750000004,
                    "velocity": 0.30708661417322836,
                    "duration": 0.14492750000000143
                },
                {
                    "name": "F4",
                    "midi": 65,
                    "time": 25.79709500000004,
                    "velocity": 0.3543307086614173,
                    "duration": 0.14492750000000143
                },
                {
                    "name": "E4",
                    "midi": 64,
                    "time": 25.942022500000043,
                    "velocity": 0.3228346456692913,
                    "duration": 0.14492750000000143
                },
                {
                    "name": "G4",
                    "midi": 67,
                    "time": 25.942022500000043,
                    "velocity": 0.3228346456692913,
                    "duration": 0.14492750000000143
                },
                {
                    "name": "C4",
                    "midi": 60,
                    "time": 26.231877500000046,
                    "velocity": 0.31496062992125984,
                    "duration": 0.28985500000000286
                },
                {
                    "name": "F4",
                    "midi": 65,
                    "time": 26.376805000000047,
                    "velocity": 0.3858267716535433,
                    "duration": 0.14492750000000143
                },
                {
                    "name": "C5",
                    "midi": 72,
                    "time": 26.52173250000005,
                    "velocity": 0.4094488188976378,
                    "duration": 0.8695650000000086
                },
                {
                    "name": "A4",
                    "midi": 69,
                    "time": 26.52173250000005,
                    "velocity": 0.25984251968503935,
                    "duration": 0.14492750000000143
                },
                {
                    "name": "F4",
                    "midi": 65,
                    "time": 26.66666000000005,
                    "velocity": 0.3228346456692913,
                    "duration": 0.14492750000000143
                },
                {
                    "name": "E4",
                    "midi": 64,
                    "time": 26.81158750000005,
                    "velocity": 0.2992125984251969,
                    "duration": 0.14492750000000143
                },
                {
                    "name": "G4",
                    "midi": 67,
                    "time": 26.81158750000005,
                    "velocity": 0.2992125984251969,
                    "duration": 0.14492750000000143
                },
                {
                    "name": "C4",
                    "midi": 60,
                    "time": 27.101442500000054,
                    "velocity": 0.29133858267716534,
                    "duration": 0.28985500000000286
                },
                {
                    "name": "F4",
                    "midi": 65,
                    "time": 27.246370000000056,
                    "velocity": 0.3464566929133858,
                    "duration": 0.14492750000000143
                },
                {
                    "name": "C5",
                    "midi": 72,
                    "time": 27.391297500000057,
                    "velocity": 0.36220472440944884,
                    "duration": 0.4347825000000043
                },
                {
                    "name": "A4",
                    "midi": 69,
                    "time": 27.391297500000057,
                    "velocity": 0.2283464566929134,
                    "duration": 0.14492750000000143
                },
                {
                    "name": "F4",
                    "midi": 65,
                    "time": 27.53622500000006,
                    "velocity": 0.28346456692913385,
                    "duration": 0.14492750000000143
                },
                {
                    "name": "E4",
                    "midi": 64,
                    "time": 27.68115250000006,
                    "velocity": 0.25984251968503935,
                    "duration": 0.14492750000000143
                },
                {
                    "name": "G4",
                    "midi": 67,
                    "time": 27.68115250000006,
                    "velocity": 0.25984251968503935,
                    "duration": 0.14492750000000143
                },
                {
                    "name": "C4",
                    "midi": 60,
                    "time": 28.55071750000006,
                    "velocity": 0.25984251968503935,
                    "duration": 1.014492500000003
                },
                {
                    "name": "E4",
                    "midi": 64,
                    "time": 28.695645000000063,
                    "velocity": 0.25984251968503935,
                    "duration": 0.8695650000000015
                }
            ],
            "controlChanges": {
                "7": [
                    {
                        "number": 7,
                        "time": 0,
                        "value": 0.7874015748031497
                    }
                ],
                "10": [
                    {
                        "number": 10,
                        "time": 0,
                        "value": 0.5039370078740157
                    }
                ],
                "91": [
                    {
                        "number": 91,
                        "time": 0,
                        "value": 1
                    }
                ]
            },
            "id": 1,
            "name": "Piano right",
            "instrumentNumber": 0,
            "instrument": "acoustic grand piano",
            "instrumentFamily": "piano",
            "channelNumber": 0,
            "isPercussion": false
        },
        {
            "startTime": 0.0018115937499999998,
            "duration": 29.565210000000043,
            "length": 123,
            "notes": [
                {
                    "name": "C2",
                    "midi": 36,
                    "time": 0.0018115937499999998,
                    "velocity": 0.36220472440944884,
                    "duration": 0.14311590624999998
                },
                {
                    "name": "G3",
                    "midi": 55,
                    "time": 0.1449275,
                    "velocity": 0.28346456692913385,
                    "duration": 0.57971
                },
                {
                    "name": "G2",
                    "midi": 43,
                    "time": 0.1449275,
                    "velocity": 0.23622047244094488,
                    "duration": 0.1449275
                },
                {
                    "name": "E3",
                    "midi": 52,
                    "time": 0.289855,
                    "velocity": 0.28346456692913385,
                    "duration": 0.1449275
                },
                {
                    "name": "A3",
                    "midi": 57,
                    "time": 0.7246374999999999,
                    "velocity": 0.2125984251968504,
                    "duration": 0.1449275
                },
                {
                    "name": "B1",
                    "midi": 35,
                    "time": 0.8695649999999999,
                    "velocity": 0.4015748031496063,
                    "duration": 0.14492749999999988
                },
                {
                    "name": "G3",
                    "midi": 55,
                    "time": 1.0144924999999998,
                    "velocity": 0.3700787401574803,
                    "duration": 0.5797100000000002
                },
                {
                    "name": "G2",
                    "midi": 43,
                    "time": 1.0144924999999998,
                    "velocity": 0.2992125984251969,
                    "duration": 0.1449275000000001
                },
                {
                    "name": "F3",
                    "midi": 53,
                    "time": 1.15942,
                    "velocity": 0.28346456692913385,
                    "duration": 0.1449275000000001
                },
                {
                    "name": "A3",
                    "midi": 57,
                    "time": 1.5942025,
                    "velocity": 0.25984251968503935,
                    "duration": 0.14492749999999988
                },
                {
                    "name": "C2",
                    "midi": 36,
                    "time": 1.7391299999999998,
                    "velocity": 0.41732283464566927,
                    "duration": 0.14492749999999988
                },
                {
                    "name": "G3",
                    "midi": 55,
                    "time": 1.8840574999999997,
                    "velocity": 0.4409448818897638,
                    "duration": 0.5797099999999997
                },
                {
                    "name": "G2",
                    "midi": 43,
                    "time": 1.8840574999999997,
                    "velocity": 0.3700787401574803,
                    "duration": 0.14492749999999988
                },
                {
                    "name": "E3",
                    "midi": 52,
                    "time": 2.0289849999999996,
                    "velocity": 0.3700787401574803,
                    "duration": 0.1449275000000001
                },
                {
                    "name": "A3",
                    "midi": 57,
                    "time": 2.4637674999999994,
                    "velocity": 0.4094488188976378,
                    "duration": 0.1449275000000001
                },
                {
                    "name": "E2",
                    "midi": 40,
                    "time": 2.6086949999999995,
                    "velocity": 0.6220472440944882,
                    "duration": 0.1449275000000001
                },
                {
                    "name": "B3",
                    "midi": 59,
                    "time": 2.7536224999999996,
                    "velocity": 0.5196850393700787,
                    "duration": 0.5797100000000004
                },
                {
                    "name": "E3",
                    "midi": 52,
                    "time": 2.7536224999999996,
                    "velocity": 0.4330708661417323,
                    "duration": 0.1449275000000001
                },
                {
                    "name": "G3",
                    "midi": 55,
                    "time": 2.8985499999999997,
                    "velocity": 0.4409448818897638,
                    "duration": 0.1449275000000001
                },
                {
                    "name": "C4",
                    "midi": 60,
                    "time": 3.3333325,
                    "velocity": 0.4881889763779528,
                    "duration": 0.1449275000000001
                },
                {
                    "name": "F2",
                    "midi": 41,
                    "time": 3.47826,
                    "velocity": 0.6614173228346457,
                    "duration": 0.14492749999999965
                },
                {
                    "name": "E3",
                    "midi": 52,
                    "time": 3.6231875,
                    "velocity": 0.5354330708661418,
                    "duration": 0.1449275000000001
                },
                {
                    "name": "A3",
                    "midi": 57,
                    "time": 3.768115,
                    "velocity": 0.4645669291338583,
                    "duration": 0.1449275000000001
                },
                {
                    "name": "F#2",
                    "midi": 42,
                    "time": 4.347825,
                    "velocity": 0.7165354330708661,
                    "duration": 0.14492750000000054
                },
                {
                    "name": "D3",
                    "midi": 50,
                    "time": 4.492752500000001,
                    "velocity": 0.5905511811023622,
                    "duration": 0.14492749999999965
                },
                {
                    "name": "C4",
                    "midi": 60,
                    "time": 4.6376800000000005,
                    "velocity": 0.5039370078740157,
                    "duration": 0.14492749999999965
                },
                {
                    "name": "G2",
                    "midi": 43,
                    "time": 5.21739,
                    "velocity": 0.7637795275590551,
                    "duration": 0.14492749999999965
                },
                {
                    "name": "F3",
                    "midi": 53,
                    "time": 5.3623175,
                    "velocity": 0.6220472440944882,
                    "duration": 0.14492749999999965
                },
                {
                    "name": "B3",
                    "midi": 59,
                    "time": 5.507244999999999,
                    "velocity": 0.5275590551181102,
                    "duration": 0.14492749999999965
                },
                {
                    "name": "G1",
                    "midi": 31,
                    "time": 6.086954999999999,
                    "velocity": 0.4566929133858268,
                    "duration": 0.14492749999999965
                },
                {
                    "name": "B3",
                    "midi": 59,
                    "time": 6.231882499999998,
                    "velocity": 0.3937007874015748,
                    "duration": 0.5797099999999995
                },
                {
                    "name": "G2",
                    "midi": 43,
                    "time": 6.231882499999998,
                    "velocity": 0.33070866141732286,
                    "duration": 0.14492749999999965
                },
                {
                    "name": "F3",
                    "midi": 53,
                    "time": 6.376809999999998,
                    "velocity": 0.2992125984251969,
                    "duration": 0.14492749999999965
                },
                {
                    "name": "A3",
                    "midi": 57,
                    "time": 6.811592499999998,
                    "velocity": 0.30708661417322836,
                    "duration": 0.14492749999999965
                },
                {
                    "name": "C2",
                    "midi": 36,
                    "time": 6.956519999999998,
                    "velocity": 0.4015748031496063,
                    "duration": 0.14492750000000054
                },
                {
                    "name": "G3",
                    "midi": 55,
                    "time": 7.101447499999998,
                    "velocity": 0.3464566929133858,
                    "duration": 0.5797099999999995
                },
                {
                    "name": "G2",
                    "midi": 43,
                    "time": 7.101447499999998,
                    "velocity": 0.29133858267716534,
                    "duration": 0.14492749999999965
                },
                {
                    "name": "E3",
                    "midi": 52,
                    "time": 7.246374999999998,
                    "velocity": 0.30708661417322836,
                    "duration": 0.14492749999999965
                },
                {
                    "name": "A3",
                    "midi": 57,
                    "time": 7.681157499999998,
                    "velocity": 0.2992125984251969,
                    "duration": 0.14492749999999965
                },
                {
                    "name": "B1",
                    "midi": 35,
                    "time": 7.826084999999997,
                    "velocity": 0.41732283464566927,
                    "duration": 0.14492750000000054
                },
                {
                    "name": "G3",
                    "midi": 55,
                    "time": 7.971012499999998,
                    "velocity": 0.4015748031496063,
                    "duration": 0.5797099999999995
                },
                {
                    "name": "G2",
                    "midi": 43,
                    "time": 7.971012499999998,
                    "velocity": 0.33070866141732286,
                    "duration": 0.14492750000000054
                },
                {
                    "name": "F3",
                    "midi": 53,
                    "time": 8.115939999999998,
                    "velocity": 0.3464566929133858,
                    "duration": 0.14492749999999965
                },
                {
                    "name": "A3",
                    "midi": 57,
                    "time": 8.550722499999997,
                    "velocity": 0.3464566929133858,
                    "duration": 0.14492749999999965
                },
                {
                    "name": "C2",
                    "midi": 36,
                    "time": 8.695649999999997,
                    "velocity": 0.49606299212598426,
                    "duration": 0.14492749999999965
                },
                {
                    "name": "G3",
                    "midi": 55,
                    "time": 8.840577499999997,
                    "velocity": 0.47244094488188976,
                    "duration": 0.5797099999999986
                },
                {
                    "name": "G2",
                    "midi": 43,
                    "time": 8.840577499999997,
                    "velocity": 0.3937007874015748,
                    "duration": 0.14492749999999965
                },
                {
                    "name": "E3",
                    "midi": 52,
                    "time": 8.985504999999996,
                    "velocity": 0.49606299212598426,
                    "duration": 0.14492749999999965
                },
                {
                    "name": "A3",
                    "midi": 57,
                    "time": 9.420287499999995,
                    "velocity": 0.3937007874015748,
                    "duration": 0.14492749999999965
                },
                {
                    "name": "E2",
                    "midi": 40,
                    "time": 9.565214999999995,
                    "velocity": 0.6220472440944882,
                    "duration": 0.14492749999999965
                },
                {
                    "name": "B3",
                    "midi": 59,
                    "time": 9.710142499999995,
                    "velocity": 0.5196850393700787,
                    "duration": 0.5797099999999986
                },
                {
                    "name": "E3",
                    "midi": 52,
                    "time": 9.710142499999995,
                    "velocity": 0.5196850393700787,
                    "duration": 0.14492749999999965
                },
                {
                    "name": "G3",
                    "midi": 55,
                    "time": 9.855069999999994,
                    "velocity": 0.4409448818897638,
                    "duration": 0.14492749999999965
                },
                {
                    "name": "C4",
                    "midi": 60,
                    "time": 10.289852499999993,
                    "velocity": 0.4330708661417323,
                    "duration": 0.14492749999999965
                },
                {
                    "name": "F2",
                    "midi": 41,
                    "time": 10.434779999999993,
                    "velocity": 0.6614173228346457,
                    "duration": 0.14492750000000143
                },
                {
                    "name": "C3",
                    "midi": 48,
                    "time": 10.579707499999994,
                    "velocity": 0.5433070866141733,
                    "duration": 0.14492749999999965
                },
                {
                    "name": "A3",
                    "midi": 57,
                    "time": 10.724634999999994,
                    "velocity": 0.47244094488188976,
                    "duration": 0.14492749999999965
                },
                {
                    "name": "G2",
                    "midi": 43,
                    "time": 11.304344999999994,
                    "velocity": 0.7007874015748031,
                    "duration": 0.14492749999999965
                },
                {
                    "name": "C3",
                    "midi": 48,
                    "time": 11.449272499999994,
                    "velocity": 0.5669291338582677,
                    "duration": 0.14492749999999965
                },
                {
                    "name": "A#3",
                    "midi": 58,
                    "time": 11.594199999999994,
                    "velocity": 0.48031496062992124,
                    "duration": 0.14492749999999965
                },
                {
                    "name": "A2",
                    "midi": 45,
                    "time": 12.173909999999994,
                    "velocity": 0.7165354330708661,
                    "duration": 0.14492749999999965
                },
                {
                    "name": "F3",
                    "midi": 53,
                    "time": 12.318837499999994,
                    "velocity": 0.5905511811023622,
                    "duration": 0.14492749999999965
                },
                {
                    "name": "C4",
                    "midi": 60,
                    "time": 12.463764999999993,
                    "velocity": 0.4566929133858268,
                    "duration": 0.14492749999999965
                },
                {
                    "name": "G2",
                    "midi": 43,
                    "time": 13.043474999999994,
                    "velocity": 0.7165354330708661,
                    "duration": 0.14492749999999965
                },
                {
                    "name": "C3",
                    "midi": 48,
                    "time": 13.188402499999993,
                    "velocity": 0.6141732283464567,
                    "duration": 0.14492749999999965
                },
                {
                    "name": "C4",
                    "midi": 60,
                    "time": 13.333329999999993,
                    "velocity": 0.48031496062992124,
                    "duration": 0.14492749999999965
                },
                {
                    "name": "A2",
                    "midi": 45,
                    "time": 13.913039999999993,
                    "velocity": 0.7244094488188977,
                    "duration": 0.14492750000000143
                },
                {
                    "name": "F3",
                    "midi": 53,
                    "time": 14.057967499999995,
                    "velocity": 0.6062992125984252,
                    "duration": 0.14492749999999965
                },
                {
                    "name": "C4",
                    "midi": 60,
                    "time": 14.202894999999994,
                    "velocity": 0.48031496062992124,
                    "duration": 0.14492749999999965
                },
                {
                    "name": "B2",
                    "midi": 47,
                    "time": 14.782604999999995,
                    "velocity": 0.5275590551181102,
                    "duration": 0.14492749999999965
                },
                {
                    "name": "G3",
                    "midi": 55,
                    "time": 14.927532499999995,
                    "velocity": 0.5669291338582677,
                    "duration": 0.14492749999999965
                },
                {
                    "name": "D4",
                    "midi": 62,
                    "time": 15.072459999999994,
                    "velocity": 0.5826771653543307,
                    "duration": 0.14492749999999965
                },
                {
                    "name": "C3",
                    "midi": 48,
                    "time": 15.652169999999995,
                    "velocity": 0.5748031496062992,
                    "duration": 0.14492750000000143
                },
                {
                    "name": "G3",
                    "midi": 55,
                    "time": 15.797097499999996,
                    "velocity": 0.6299212598425197,
                    "duration": 0.14492749999999965
                },
                {
                    "name": "E4",
                    "midi": 64,
                    "time": 15.942024999999996,
                    "velocity": 0.6299212598425197,
                    "duration": 0.14492749999999965
                },
                {
                    "name": "D3",
                    "midi": 50,
                    "time": 16.521734999999996,
                    "velocity": 0.6062992125984252,
                    "duration": 0.14492750000000143
                },
                {
                    "name": "G3",
                    "midi": 55,
                    "time": 16.666662499999997,
                    "velocity": 0.6614173228346457,
                    "duration": 0.14492750000000143
                },
                {
                    "name": "F4",
                    "midi": 65,
                    "time": 16.81159,
                    "velocity": 0.6614173228346457,
                    "duration": 0.14492750000000143
                },
                {
                    "name": "E3",
                    "midi": 52,
                    "time": 17.3913,
                    "velocity": 0.8031496062992126,
                    "duration": 0.14492750000000143
                },
                {
                    "name": "C4",
                    "midi": 60,
                    "time": 17.536227500000003,
                    "velocity": 0.7086614173228346,
                    "duration": 0.14492750000000143
                },
                {
                    "name": "G4",
                    "midi": 67,
                    "time": 17.681155000000004,
                    "velocity": 0.5590551181102362,
                    "duration": 0.14492750000000143
                },
                {
                    "name": "F#2",
                    "midi": 42,
                    "time": 18.260865000000006,
                    "velocity": 0.5826771653543307,
                    "duration": 0.14492749999999788
                },
                {
                    "name": "D#3",
                    "midi": 51,
                    "time": 18.405792500000004,
                    "velocity": 0.49606299212598426,
                    "duration": 0.14492750000000143
                },
                {
                    "name": "C4",
                    "midi": 60,
                    "time": 18.550720000000005,
                    "velocity": 0.3937007874015748,
                    "duration": 0.14492750000000143
                },
                {
                    "name": "G2",
                    "midi": 43,
                    "time": 19.130430000000008,
                    "velocity": 0.44881889763779526,
                    "duration": 0.14492749999999788
                },
                {
                    "name": "E3",
                    "midi": 52,
                    "time": 19.275357500000005,
                    "velocity": 0.48031496062992124,
                    "duration": 0.14492750000000143
                },
                {
                    "name": "C4",
                    "midi": 60,
                    "time": 19.420285000000007,
                    "velocity": 0.4409448818897638,
                    "duration": 0.14492750000000143
                },
                {
                    "name": "G2",
                    "midi": 43,
                    "time": 19.99999500000001,
                    "velocity": 0.4645669291338583,
                    "duration": 0.14492750000000143
                },
                {
                    "name": "F3",
                    "midi": 53,
                    "time": 20.14492250000001,
                    "velocity": 0.41732283464566927,
                    "duration": 0.14492750000000143
                },
                {
                    "name": "B3",
                    "midi": 59,
                    "time": 20.289850000000012,
                    "velocity": 0.3228346456692913,
                    "duration": 0.14492750000000143
                },
                {
                    "name": "G3",
                    "midi": 55,
                    "time": 20.869560000000014,
                    "velocity": 0.3228346456692913,
                    "duration": 0.7246375
                },
                {
                    "name": "C2",
                    "midi": 36,
                    "time": 20.869560000000014,
                    "velocity": 0.3779527559055118,
                    "duration": 0.14492749999999788
                },
                {
                    "name": "G2",
                    "midi": 43,
                    "time": 21.014487500000012,
                    "velocity": 0.3228346456692913,
                    "duration": 0.14492750000000143
                },
                {
                    "name": "E3",
                    "midi": 52,
                    "time": 21.159415000000013,
                    "velocity": 0.28346456692913385,
                    "duration": 0.14492750000000143
                },
                {
                    "name": "A3",
                    "midi": 57,
                    "time": 21.594197500000014,
                    "velocity": 0.3228346456692913,
                    "duration": 0.14492750000000143
                },
                {
                    "name": "C2",
                    "midi": 36,
                    "time": 21.739125000000016,
                    "velocity": 0.3779527559055118,
                    "duration": 0.14492750000000143
                },
                {
                    "name": "G2",
                    "midi": 43,
                    "time": 21.884052500000017,
                    "velocity": 0.3228346456692913,
                    "duration": 0.14492750000000143
                },
                {
                    "name": "F3",
                    "midi": 53,
                    "time": 22.02898000000002,
                    "velocity": 0.36220472440944884,
                    "duration": 0.14492750000000143
                },
                {
                    "name": "C2",
                    "midi": 36,
                    "time": 22.60869000000002,
                    "velocity": 0.3779527559055118,
                    "duration": 0.14492749999999788
                },
                {
                    "name": "G3",
                    "midi": 55,
                    "time": 22.75361750000002,
                    "velocity": 0.3228346456692913,
                    "duration": 0.5797100000000022
                },
                {
                    "name": "G2",
                    "midi": 43,
                    "time": 22.75361750000002,
                    "velocity": 0.3228346456692913,
                    "duration": 0.14492750000000143
                },
                {
                    "name": "E3",
                    "midi": 52,
                    "time": 22.89854500000002,
                    "velocity": 0.28346456692913385,
                    "duration": 0.14492750000000143
                },
                {
                    "name": "A3",
                    "midi": 57,
                    "time": 23.33332750000002,
                    "velocity": 0.3228346456692913,
                    "duration": 0.14492750000000143
                },
                {
                    "name": "C2",
                    "midi": 36,
                    "time": 23.478255000000022,
                    "velocity": 0.3779527559055118,
                    "duration": 0.14492749999999788
                },
                {
                    "name": "G2",
                    "midi": 43,
                    "time": 23.62318250000002,
                    "velocity": 0.3228346456692913,
                    "duration": 0.14492750000000143
                },
                {
                    "name": "F3",
                    "midi": 53,
                    "time": 23.76811000000002,
                    "velocity": 0.28346456692913385,
                    "duration": 0.14492750000000143
                },
                {
                    "name": "C2",
                    "midi": 36,
                    "time": 24.347820000000024,
                    "velocity": 0.3779527559055118,
                    "duration": 0.14492750000000143
                },
                {
                    "name": "G2",
                    "midi": 43,
                    "time": 24.492747500000025,
                    "velocity": 0.3228346456692913,
                    "duration": 0.14492750000000143
                },
                {
                    "name": "G3",
                    "midi": 55,
                    "time": 24.637675000000026,
                    "velocity": 0.28346456692913385,
                    "duration": 0.14492750000000143
                },
                {
                    "name": "C2",
                    "midi": 36,
                    "time": 25.21738500000003,
                    "velocity": 0.3779527559055118,
                    "duration": 0.14492749999999788
                },
                {
                    "name": "G2",
                    "midi": 43,
                    "time": 25.362312500000026,
                    "velocity": 0.33070866141732286,
                    "duration": 0.14492750000000143
                },
                {
                    "name": "G3",
                    "midi": 55,
                    "time": 25.507240000000028,
                    "velocity": 0.30708661417322836,
                    "duration": 0.14492750000000143
                },
                {
                    "name": "C2",
                    "midi": 36,
                    "time": 26.08695000000003,
                    "velocity": 0.3779527559055118,
                    "duration": 0.14492749999999788
                },
                {
                    "name": "G2",
                    "midi": 43,
                    "time": 26.231877500000028,
                    "velocity": 0.31496062992125984,
                    "duration": 0.14492750000000143
                },
                {
                    "name": "G3",
                    "midi": 55,
                    "time": 26.37680500000003,
                    "velocity": 0.2755905511811024,
                    "duration": 0.14492750000000143
                },
                {
                    "name": "C2",
                    "midi": 36,
                    "time": 26.95651500000003,
                    "velocity": 0.33070866141732286,
                    "duration": 0.14492750000000143
                },
                {
                    "name": "G2",
                    "midi": 43,
                    "time": 27.101442500000033,
                    "velocity": 0.29133858267716534,
                    "duration": 0.14492750000000143
                },
                {
                    "name": "G3",
                    "midi": 55,
                    "time": 27.246370000000034,
                    "velocity": 0.23622047244094488,
                    "duration": 0.14492750000000143
                },
                {
                    "name": "C2",
                    "midi": 36,
                    "time": 27.826080000000037,
                    "velocity": 0.2992125984251969,
                    "duration": 1.7391300000000065
                },
                {
                    "name": "G2",
                    "midi": 43,
                    "time": 27.971007500000038,
                    "velocity": 0.25984251968503935,
                    "duration": 1.594202500000005
                },
                {
                    "name": "C3",
                    "midi": 48,
                    "time": 28.11593500000004,
                    "velocity": 0.29133858267716534,
                    "duration": 1.4492750000000036
                },
                {
                    "name": "E3",
                    "midi": 52,
                    "time": 28.26086250000004,
                    "velocity": 0.2677165354330709,
                    "duration": 1.3043475000000022
                },
                {
                    "name": "G3",
                    "midi": 55,
                    "time": 28.405790000000042,
                    "velocity": 0.2992125984251969,
                    "duration": 1.1594200000000008
                }
            ],
            "controlChanges": {
                "7": [
                    {
                        "number": 7,
                        "time": 0,
                        "value": 0.7874015748031497
                    }
                ],
                "10": [
                    {
                        "number": 10,
                        "time": 0,
                        "value": 0.5039370078740157
                    }
                ],
                "64": [
                    {
                        "number": 64,
                        "time": 0,
                        "value": 1
                    },
                    {
                        "number": 64,
                        "time": 0.8876809374999999,
                        "value": 0
                    },
                    {
                        "number": 64,
                        "time": 0.9329707812499999,
                        "value": 1
                    },
                    {
                        "number": 64,
                        "time": 1.7590575312499999,
                        "value": 0
                    },
                    {
                        "number": 64,
                        "time": 1.8025357812499998,
                        "value": 1
                    },
                    {
                        "number": 64,
                        "time": 2.6268109374999997,
                        "value": 0
                    },
                    {
                        "number": 64,
                        "time": 2.6721007812499997,
                        "value": 1
                    },
                    {
                        "number": 64,
                        "time": 3.50905709375,
                        "value": 0
                    },
                    {
                        "number": 64,
                        "time": 3.54166578125,
                        "value": 1
                    },
                    {
                        "number": 64,
                        "time": 4.37137571875,
                        "value": 0
                    },
                    {
                        "number": 64,
                        "time": 4.4112307812500005,
                        "value": 1
                    },
                    {
                        "number": 64,
                        "time": 5.22644796875,
                        "value": 0
                    },
                    {
                        "number": 64,
                        "time": 5.27354940625,
                        "value": 1
                    },
                    {
                        "number": 64,
                        "time": 6.106882531249998,
                        "value": 0
                    },
                    {
                        "number": 64,
                        "time": 6.190215843749998,
                        "value": 1
                    },
                    {
                        "number": 64,
                        "time": 6.8260852499999976,
                        "value": 0
                    },
                    {
                        "number": 64,
                        "time": 7.014490999999998,
                        "value": 1
                    },
                    {
                        "number": 64,
                        "time": 7.8387661562499975,
                        "value": 0
                    },
                    {
                        "number": 64,
                        "time": 7.8894907812499975,
                        "value": 1
                    },
                    {
                        "number": 64,
                        "time": 8.706519562499997,
                        "value": 0
                    },
                    {
                        "number": 64,
                        "time": 8.759055781249996,
                        "value": 1
                    },
                    {
                        "number": 64,
                        "time": 9.576084562499995,
                        "value": 0
                    },
                    {
                        "number": 64,
                        "time": 9.628620781249994,
                        "value": 1
                    },
                    {
                        "number": 64,
                        "time": 10.460142312499993,
                        "value": 0
                    },
                    {
                        "number": 64,
                        "time": 10.498185781249994,
                        "value": 1
                    },
                    {
                        "number": 64,
                        "time": 11.313402968749994,
                        "value": 0
                    },
                    {
                        "number": 64,
                        "time": 11.376808749999993,
                        "value": 1
                    },
                    {
                        "number": 64,
                        "time": 12.192025937499993,
                        "value": 0
                    },
                    {
                        "number": 64,
                        "time": 12.237315781249993,
                        "value": 1
                    },
                    {
                        "number": 64,
                        "time": 13.061590937499993,
                        "value": 0
                    },
                    {
                        "number": 64,
                        "time": 13.126808312499993,
                        "value": 1
                    },
                    {
                        "number": 64,
                        "time": 13.940213906249994,
                        "value": 0
                    },
                    {
                        "number": 64,
                        "time": 13.976445781249994,
                        "value": 1
                    },
                    {
                        "number": 64,
                        "time": 14.802532531249994,
                        "value": 0
                    },
                    {
                        "number": 64,
                        "time": 14.846010781249994,
                        "value": 1
                    },
                    {
                        "number": 64,
                        "time": 15.679343906249995,
                        "value": 0
                    },
                    {
                        "number": 64,
                        "time": 15.715575781249996,
                        "value": 1
                    },
                    {
                        "number": 64,
                        "time": 16.547097312499996,
                        "value": 0
                    },
                    {
                        "number": 64,
                        "time": 16.585140781249997,
                        "value": 1
                    },
                    {
                        "number": 64,
                        "time": 17.411227531250002,
                        "value": 0
                    },
                    {
                        "number": 64,
                        "time": 17.454705781250002,
                        "value": 1
                    },
                    {
                        "number": 64,
                        "time": 18.288038906250005,
                        "value": 0
                    },
                    {
                        "number": 64,
                        "time": 18.324270781250004,
                        "value": 1
                    },
                    {
                        "number": 64,
                        "time": 19.157603906250007,
                        "value": 0
                    },
                    {
                        "number": 64,
                        "time": 19.193835781250005,
                        "value": 1
                    },
                    {
                        "number": 64,
                        "time": 20.02898050000001,
                        "value": 0
                    },
                    {
                        "number": 64,
                        "time": 20.06340078125001,
                        "value": 1
                    },
                    {
                        "number": 64,
                        "time": 20.896733906250013,
                        "value": 0
                    },
                    {
                        "number": 64,
                        "time": 20.945646937500012,
                        "value": 1
                    },
                    {
                        "number": 64,
                        "time": 21.771733687500017,
                        "value": 0
                    },
                    {
                        "number": 64,
                        "time": 21.797096000000018,
                        "value": 1
                    },
                    {
                        "number": 64,
                        "time": 22.62680593750002,
                        "value": 0
                    },
                    {
                        "number": 64,
                        "time": 22.672095781250018,
                        "value": 1
                    },
                    {
                        "number": 64,
                        "time": 23.512675281250022,
                        "value": 0
                    },
                    {
                        "number": 64,
                        "time": 23.53622600000002,
                        "value": 1
                    },
                    {
                        "number": 64,
                        "time": 24.378617093750023,
                        "value": 0
                    },
                    {
                        "number": 64,
                        "time": 24.411225781250025,
                        "value": 1
                    },
                    {
                        "number": 64,
                        "time": 25.248182093750028,
                        "value": 0
                    },
                    {
                        "number": 64,
                        "time": 25.278979187500028,
                        "value": 1
                    },
                    {
                        "number": 64,
                        "time": 26.11774709375003,
                        "value": 0
                    },
                    {
                        "number": 64,
                        "time": 26.15760215625003,
                        "value": 1
                    },
                    {
                        "number": 64,
                        "time": 26.985500500000033,
                        "value": 0
                    },
                    {
                        "number": 64,
                        "time": 27.019920781250033,
                        "value": 1
                    },
                    {
                        "number": 64,
                        "time": 27.842384343750037,
                        "value": 0
                    },
                    {
                        "number": 64,
                        "time": 27.88405100000004,
                        "value": 1
                    },
                    {
                        "number": 64,
                        "time": 30.121369281250043,
                        "value": 0
                    }
                ],
                "91": [
                    {
                        "number": 91,
                        "time": 0,
                        "value": 1
                    },
                    {
                        "number": 91,
                        "time": 0,
                        "value": 1
                    }
                ]
            },
            "id": 2,
            "name": "Piano left",
            "instrumentNumber": 0,
            "instrument": "acoustic grand piano",
            "instrumentFamily": "piano",
            "channelNumber": 0,
            "isPercussion": false
        },
        {
            "startTime": 0,
            "duration": 0,
            "length": 0,
            "notes": [],
            "controlChanges": {},
            "id": 3,
            "name": "Chopin: Prelude No.1 in C, Op. 28"
        },
        {
            "startTime": 0,
            "duration": 0,
            "length": 0,
            "notes": [],
            "controlChanges": {},
            "id": 4,
            "name": "Copyright  2002 by Bernd Krueger"
        },
        {
            "startTime": 0,
            "duration": 0,
            "length": 0,
            "notes": [],
            "controlChanges": {},
            "id": 5,
            "name": "http://www.piano-midi.de"
        },
        {
            "startTime": 0,
            "duration": 0,
            "length": 0,
            "notes": [],
            "controlChanges": {},
            "id": 6,
            "name": "Edition: 2014-02-20"
        }
    ]
}