{
    "header": {
        "PPQ": 480,
        "timeSignature": [
            3,
            4
        ],
        "bpm": 46.99999060000188,
        "name": "Chopin Prelude  No. 6, Opus 28"
    },
    "startTime": 0,
    "duration": 97.02129600000022,
    "tracks": [
        {
            "startTime": 0,
            "duration": 0,
            "length": 0,
            "notes": [],
            "controlChanges": {},
            "id": 0,
            "name": "Chopin Prelude  No. 6, Opus 28"
        },
        {
            "startTime": 0.002659575,
            "duration": 97.02129600000022,
            "length": 281,
            "notes": [
                {
                    "name": "F#4",
                    "midi": 66,
                    "time": 0.002659575,
                    "velocity": 0.2204724409448819,
                    "duration": 1.273936425
                },
                {
                    "name": "D4",
                    "midi": 62,
                    "time": 0.002659575,
                    "velocity": 0.2204724409448819,
                    "duration": 1.273936425
                },
                {
                    "name": "B4",
                    "midi": 71,
                    "time": 0.002659575,
                    "velocity": 0.2755905511811024,
                    "duration": 0.635638425
                },
                {
                    "name": "B4",
                    "midi": 71,
                    "time": 0.638298,
                    "velocity": 0.25196850393700787,
                    "duration": 0.638298
                },
                {
                    "name": "F#4",
                    "midi": 66,
                    "time": 1.276596,
                    "velocity": 0.2204724409448819,
                    "duration": 1.276596
                },
                {
                    "name": "B4",
                    "midi": 71,
                    "time": 1.276596,
                    "velocity": 0.2755905511811024,
                    "duration": 0.638298
                },
                {
                    "name": "B4",
                    "midi": 71,
                    "time": 1.914894,
                    "velocity": 0.25984251968503935,
                    "duration": 0.638298
                },
                {
                    "name": "B4",
                    "midi": 71,
                    "time": 2.553192,
                    "velocity": 0.2755905511811024,
                    "duration": 0.6382979999999998
                },
                {
                    "name": "F#4",
                    "midi": 66,
                    "time": 2.553192,
                    "velocity": 0.2204724409448819,
                    "duration": 1.2765959999999996
                },
                {
                    "name": "B4",
                    "midi": 71,
                    "time": 3.19149,
                    "velocity": 0.25196850393700787,
                    "duration": 0.6382979999999998
                },
                {
                    "name": "D4",
                    "midi": 62,
                    "time": 3.8297879999999997,
                    "velocity": 0.2204724409448819,
                    "duration": 1.2765959999999996
                },
                {
                    "name": "B4",
                    "midi": 71,
                    "time": 3.8297879999999997,
                    "velocity": 0.2755905511811024,
                    "duration": 0.6382979999999998
                },
                {
                    "name": "F#4",
                    "midi": 66,
                    "time": 3.8297879999999997,
                    "velocity": 0.2204724409448819,
                    "duration": 1.2765959999999996
                },
                {
                    "name": "B4",
                    "midi": 71,
                    "time": 4.468086,
                    "velocity": 0.25984251968503935,
                    "duration": 0.6382979999999998
                },
                {
                    "name": "D4",
                    "midi": 62,
                    "time": 5.106383999999999,
                    "velocity": 0.2204724409448819,
                    "duration": 1.2765959999999996
                },
                {
                    "name": "F#4",
                    "midi": 66,
                    "time": 5.106383999999999,
                    "velocity": 0.2204724409448819,
                    "duration": 1.2765959999999996
                },
                {
                    "name": "B4",
                    "midi": 71,
                    "time": 5.106383999999999,
                    "velocity": 0.2755905511811024,
                    "duration": 0.6382979999999998
                },
                {
                    "name": "B4",
                    "midi": 71,
                    "time": 5.744681999999999,
                    "velocity": 0.25196850393700787,
                    "duration": 0.6382979999999998
                },
                {
                    "name": "F#4",
                    "midi": 66,
                    "time": 6.382979999999999,
                    "velocity": 0.2125984251968504,
                    "duration": 1.2765959999999996
                },
                {
                    "name": "D4",
                    "midi": 62,
                    "time": 6.382979999999999,
                    "velocity": 0.2125984251968504,
                    "duration": 1.2765959999999996
                },
                {
                    "name": "B4",
                    "midi": 71,
                    "time": 6.382979999999999,
                    "velocity": 0.25984251968503935,
                    "duration": 0.6382979999999998
                },
                {
                    "name": "B4",
                    "midi": 71,
                    "time": 7.021277999999999,
                    "velocity": 0.25196850393700787,
                    "duration": 0.6382979999999998
                },
                {
                    "name": "F#4",
                    "midi": 66,
                    "time": 7.659575999999999,
                    "velocity": 0.2204724409448819,
                    "duration": 1.2765960000000005
                },
                {
                    "name": "D4",
                    "midi": 62,
                    "time": 7.659575999999999,
                    "velocity": 0.2204724409448819,
                    "duration": 1.2765960000000005
                },
                {
                    "name": "B4",
                    "midi": 71,
                    "time": 7.659575999999999,
                    "velocity": 0.2755905511811024,
                    "duration": 0.6382979999999998
                },
                {
                    "name": "B4",
                    "midi": 71,
                    "time": 8.297873999999998,
                    "velocity": 0.2755905511811024,
                    "duration": 0.6382980000000007
                },
                {
                    "name": "D5",
                    "midi": 74,
                    "time": 8.936172,
                    "velocity": 0.28346456692913385,
                    "duration": 0.6382980000000007
                },
                {
                    "name": "B4",
                    "midi": 71,
                    "time": 8.936172,
                    "velocity": 0.2204724409448819,
                    "duration": 1.2765960000000014
                },
                {
                    "name": "D5",
                    "midi": 74,
                    "time": 9.57447,
                    "velocity": 0.2755905511811024,
                    "duration": 0.6382980000000007
                },
                {
                    "name": "B4",
                    "midi": 71,
                    "time": 10.212768,
                    "velocity": 0.2204724409448819,
                    "duration": 1.2765960000000014
                },
                {
                    "name": "D5",
                    "midi": 74,
                    "time": 10.212768,
                    "velocity": 0.28346456692913385,
                    "duration": 0.6382980000000007
                },
                {
                    "name": "D5",
                    "midi": 74,
                    "time": 10.851066000000001,
                    "velocity": 0.2755905511811024,
                    "duration": 0.6382980000000007
                },
                {
                    "name": "D5",
                    "midi": 74,
                    "time": 11.489364000000002,
                    "velocity": 0.2755905511811024,
                    "duration": 0.6382980000000007
                },
                {
                    "name": "F#4",
                    "midi": 66,
                    "time": 11.489364000000002,
                    "velocity": 0.2204724409448819,
                    "duration": 1.2765960000000014
                },
                {
                    "name": "B4",
                    "midi": 71,
                    "time": 11.489364000000002,
                    "velocity": 0.2204724409448819,
                    "duration": 1.2765960000000014
                },
                {
                    "name": "D5",
                    "midi": 74,
                    "time": 12.127662000000003,
                    "velocity": 0.2755905511811024,
                    "duration": 0.6382980000000007
                },
                {
                    "name": "B4",
                    "midi": 71,
                    "time": 12.765960000000003,
                    "velocity": 0.2204724409448819,
                    "duration": 1.2765960000000014
                },
                {
                    "name": "F#4",
                    "midi": 66,
                    "time": 12.765960000000003,
                    "velocity": 0.2204724409448819,
                    "duration": 1.2765960000000014
                },
                {
                    "name": "D5",
                    "midi": 74,
                    "time": 12.765960000000003,
                    "velocity": 0.2755905511811024,
                    "duration": 0.6382980000000007
                },
                {
                    "name": "D5",
                    "midi": 74,
                    "time": 13.404258000000004,
                    "velocity": 0.2440944881889764,
                    "duration": 0.6382980000000007
                },
                {
                    "name": "B4",
                    "midi": 71,
                    "time": 14.042556000000005,
                    "velocity": 0.2047244094488189,
                    "duration": 1.2765960000000014
                },
                {
                    "name": "F#4",
                    "midi": 66,
                    "time": 14.042556000000005,
                    "velocity": 0.2047244094488189,
                    "duration": 1.2765960000000014
                },
                {
                    "name": "D5",
                    "midi": 74,
                    "time": 14.042556000000005,
                    "velocity": 0.25196850393700787,
                    "duration": 0.6382980000000007
                },
                {
                    "name": "D5",
                    "midi": 74,
                    "time": 14.680854000000005,
                    "velocity": 0.25196850393700787,
                    "duration": 0.6382980000000007
                },
                {
                    "name": "B4",
                    "midi": 71,
                    "time": 15.319152000000006,
                    "velocity": 0.2204724409448819,
                    "duration": 1.2765960000000014
                },
                {
                    "name": "G4",
                    "midi": 67,
                    "time": 15.319152000000006,
                    "velocity": 0.2204724409448819,
                    "duration": 1.2765960000000014
                },
                {
                    "name": "D5",
                    "midi": 74,
                    "time": 15.319152000000006,
                    "velocity": 0.2755905511811024,
                    "duration": 0.6382980000000007
                },
                {
                    "name": "D5",
                    "midi": 74,
                    "time": 15.957450000000007,
                    "velocity": 0.28346456692913385,
                    "duration": 0.6382980000000007
                },
                {
                    "name": "D5",
                    "midi": 74,
                    "time": 16.595748000000007,
                    "velocity": 0.31496062992125984,
                    "duration": 0.6382979999999989
                },
                {
                    "name": "B4",
                    "midi": 71,
                    "time": 16.595748000000007,
                    "velocity": 0.2440944881889764,
                    "duration": 1.2765959999999978
                },
                {
                    "name": "D5",
                    "midi": 74,
                    "time": 17.234046000000006,
                    "velocity": 0.2992125984251969,
                    "duration": 0.6382979999999989
                },
                {
                    "name": "B4",
                    "midi": 71,
                    "time": 17.872344000000005,
                    "velocity": 0.2440944881889764,
                    "duration": 1.2765959999999978
                },
                {
                    "name": "D5",
                    "midi": 74,
                    "time": 17.872344000000005,
                    "velocity": 0.31496062992125984,
                    "duration": 0.6382979999999989
                },
                {
                    "name": "D5",
                    "midi": 74,
                    "time": 18.510642000000004,
                    "velocity": 0.2992125984251969,
                    "duration": 0.6382979999999989
                },
                {
                    "name": "G#4",
                    "midi": 68,
                    "time": 19.148940000000003,
                    "velocity": 0.23622047244094488,
                    "duration": 1.2765959999999978
                },
                {
                    "name": "D5",
                    "midi": 74,
                    "time": 19.148940000000003,
                    "velocity": 0.2992125984251969,
                    "duration": 0.6382979999999989
                },
                {
                    "name": "B4",
                    "midi": 71,
                    "time": 19.148940000000003,
                    "velocity": 0.23622047244094488,
                    "duration": 1.2765959999999978
                },
                {
                    "name": "D5",
                    "midi": 74,
                    "time": 19.787238000000002,
                    "velocity": 0.25196850393700787,
                    "duration": 0.6382979999999989
                },
                {
                    "name": "G#4",
                    "midi": 68,
                    "time": 20.425536,
                    "velocity": 0.2204724409448819,
                    "duration": 1.2765959999999978
                },
                {
                    "name": "C#5",
                    "midi": 73,
                    "time": 20.425536,
                    "velocity": 0.28346456692913385,
                    "duration": 0.6382979999999989
                },
                {
                    "name": "B4",
                    "midi": 71,
                    "time": 20.425536,
                    "velocity": 0.2204724409448819,
                    "duration": 1.2765959999999978
                },
                {
                    "name": "C#5",
                    "midi": 73,
                    "time": 21.063834,
                    "velocity": 0.2440944881889764,
                    "duration": 0.6382979999999989
                },
                {
                    "name": "A#4",
                    "midi": 70,
                    "time": 21.702132,
                    "velocity": 0.2440944881889764,
                    "duration": 0.6382979999999989
                },
                {
                    "name": "C#5",
                    "midi": 73,
                    "time": 21.702132,
                    "velocity": 0.29133858267716534,
                    "duration": 0.6382979999999989
                },
                {
                    "name": "G4",
                    "midi": 67,
                    "time": 21.702132,
                    "velocity": 0.2283464566929134,
                    "duration": 1.2765959999999978
                },
                {
                    "name": "D5",
                    "midi": 74,
                    "time": 22.340429999999998,
                    "velocity": 0.33070866141732286,
                    "duration": 0.6382979999999989
                },
                {
                    "name": "B4",
                    "midi": 71,
                    "time": 22.340429999999998,
                    "velocity": 0.28346456692913385,
                    "duration": 0.6382979999999989
                },
                {
                    "name": "E5",
                    "midi": 76,
                    "time": 22.978727999999997,
                    "velocity": 0.3700787401574803,
                    "duration": 1.9148939999999968
                },
                {
                    "name": "G4",
                    "midi": 67,
                    "time": 22.978727999999997,
                    "velocity": 0.2755905511811024,
                    "duration": 0.6382979999999989
                },
                {
                    "name": "A#4",
                    "midi": 70,
                    "time": 22.978727999999997,
                    "velocity": 0.31496062992125984,
                    "duration": 0.6382979999999989
                },
                {
                    "name": "G4",
                    "midi": 67,
                    "time": 23.617025999999996,
                    "velocity": 0.2755905511811024,
                    "duration": 0.6382979999999989
                },
                {
                    "name": "B4",
                    "midi": 71,
                    "time": 23.617025999999996,
                    "velocity": 0.31496062992125984,
                    "duration": 0.6382979999999989
                },
                {
                    "name": "G4",
                    "midi": 67,
                    "time": 24.255323999999995,
                    "velocity": 0.28346456692913385,
                    "duration": 0.6382979999999989
                },
                {
                    "name": "A#4",
                    "midi": 70,
                    "time": 24.255323999999995,
                    "velocity": 0.31496062992125984,
                    "duration": 0.6382979999999989
                },
                {
                    "name": "C#5",
                    "midi": 73,
                    "time": 24.893621999999993,
                    "velocity": 0.3543307086614173,
                    "duration": 0.6382979999999989
                },
                {
                    "name": "F#4",
                    "midi": 66,
                    "time": 24.893621999999993,
                    "velocity": 0.3543307086614173,
                    "duration": 0.6382979999999989
                },
                {
                    "name": "F#5",
                    "midi": 78,
                    "time": 24.893621999999993,
                    "velocity": 0.4251968503937008,
                    "duration": 0.6382979999999989
                },
                {
                    "name": "F#4",
                    "midi": 66,
                    "time": 25.531919999999992,
                    "velocity": 0.3228346456692913,
                    "duration": 0.6382979999999954
                },
                {
                    "name": "E5",
                    "midi": 76,
                    "time": 25.531919999999992,
                    "velocity": 0.3858267716535433,
                    "duration": 0.31914899999999946
                },
                {
                    "name": "B4",
                    "midi": 71,
                    "time": 25.531919999999992,
                    "velocity": 0.3228346456692913,
                    "duration": 0.6382979999999954
                },
                {
                    "name": "D5",
                    "midi": 74,
                    "time": 25.851068999999992,
                    "velocity": 0.3543307086614173,
                    "duration": 0.21276599999999846
                },
                {
                    "name": "D5",
                    "midi": 74,
                    "time": 26.09043074999999,
                    "velocity": 0.33070866141732286,
                    "duration": 0.07978724999999898
                },
                {
                    "name": "C#5",
                    "midi": 73,
                    "time": 26.170217999999988,
                    "velocity": 0.3937007874015748,
                    "duration": 0.31914899999999946
                },
                {
                    "name": "F#4",
                    "midi": 66,
                    "time": 26.170217999999988,
                    "velocity": 0.33070866141732286,
                    "duration": 0.6382979999999989
                },
                {
                    "name": "B4",
                    "midi": 71,
                    "time": 26.489366999999987,
                    "velocity": 0.3464566929133858,
                    "duration": 0.31914899999999946
                },
                {
                    "name": "C#4",
                    "midi": 61,
                    "time": 26.808515999999987,
                    "velocity": 0.31496062992125984,
                    "duration": 0.6382979999999989
                },
                {
                    "name": "G4",
                    "midi": 67,
                    "time": 26.808515999999987,
                    "velocity": 0.31496062992125984,
                    "duration": 0.6382979999999989
                },
                {
                    "name": "A#4",
                    "midi": 70,
                    "time": 26.808515999999987,
                    "velocity": 0.3779527559055118,
                    "duration": 0.6382979999999989
                },
                {
                    "name": "G#4",
                    "midi": 68,
                    "time": 27.446813999999986,
                    "velocity": 0.3228346456692913,
                    "duration": 0.6382979999999989
                },
                {
                    "name": "B4",
                    "midi": 71,
                    "time": 27.446813999999986,
                    "velocity": 0.3779527559055118,
                    "duration": 0.6382979999999989
                },
                {
                    "name": "D4",
                    "midi": 62,
                    "time": 27.446813999999986,
                    "velocity": 0.3228346456692913,
                    "duration": 0.6382979999999989
                },
                {
                    "name": "B4",
                    "midi": 71,
                    "time": 28.085111999999985,
                    "velocity": 0.3464566929133858,
                    "duration": 0.6382979999999989
                },
                {
                    "name": "D4",
                    "midi": 62,
                    "time": 28.085111999999985,
                    "velocity": 0.3464566929133858,
                    "duration": 0.6382979999999989
                },
                {
                    "name": "D5",
                    "midi": 74,
                    "time": 28.085111999999985,
                    "velocity": 0.41732283464566927,
                    "duration": 0.6382979999999989
                },
                {
                    "name": "C#4",
                    "midi": 61,
                    "time": 28.723409999999983,
                    "velocity": 0.31496062992125984,
                    "duration": 0.6382979999999989
                },
                {
                    "name": "C#5",
                    "midi": 73,
                    "time": 28.723409999999983,
                    "velocity": 0.3779527559055118,
                    "duration": 0.6382979999999989
                },
                {
                    "name": "A#4",
                    "midi": 70,
                    "time": 28.723409999999983,
                    "velocity": 0.31496062992125984,
                    "duration": 0.6382979999999989
                },
                {
                    "name": "F#4",
                    "midi": 66,
                    "time": 30.638303999999984,
                    "velocity": 0.2204724409448819,
                    "duration": 1.2765959999999978
                },
                {
                    "name": "D4",
                    "midi": 62,
                    "time": 30.638303999999984,
                    "velocity": 0.2204724409448819,
                    "duration": 1.2765959999999978
                },
                {
                    "name": "B4",
                    "midi": 71,
                    "time": 30.638303999999984,
                    "velocity": 0.2755905511811024,
                    "duration": 0.6382979999999989
                },
                {
                    "name": "B4",
                    "midi": 71,
                    "time": 31.276601999999983,
                    "velocity": 0.25196850393700787,
                    "duration": 0.6382979999999989
                },
                {
                    "name": "B4",
                    "midi": 71,
                    "time": 31.91489999999998,
                    "velocity": 0.2755905511811024,
                    "duration": 0.6382979999999989
                },
                {
                    "name": "F#4",
                    "midi": 66,
                    "time": 31.91489999999998,
                    "velocity": 0.2204724409448819,
                    "duration": 1.2765959999999978
                },
                {
                    "name": "B4",
                    "midi": 71,
                    "time": 32.55319799999998,
                    "velocity": 0.25984251968503935,
                    "duration": 0.6382979999999989
                },
                {
                    "name": "B4",
                    "midi": 71,
                    "time": 33.19149599999998,
                    "velocity": 0.2755905511811024,
                    "duration": 0.6382979999999989
                },
                {
                    "name": "F#4",
                    "midi": 66,
                    "time": 33.19149599999998,
                    "velocity": 0.2204724409448819,
                    "duration": 1.2765959999999978
                },
                {
                    "name": "B4",
                    "midi": 71,
                    "time": 33.82979399999998,
                    "velocity": 0.25196850393700787,
                    "duration": 0.6382979999999989
                },
                {
                    "name": "F#4",
                    "midi": 66,
                    "time": 34.46809199999998,
                    "velocity": 0.2204724409448819,
                    "duration": 1.2765959999999978
                },
                {
                    "name": "D4",
                    "midi": 62,
                    "time": 34.46809199999998,
                    "velocity": 0.2204724409448819,
                    "duration": 1.2765959999999978
                },
                {
                    "name": "B4",
                    "midi": 71,
                    "time": 34.46809199999998,
                    "velocity": 0.2755905511811024,
                    "duration": 0.6382979999999989
                },
                {
                    "name": "B4",
                    "midi": 71,
                    "time": 35.106389999999976,
                    "velocity": 0.25984251968503935,
                    "duration": 0.6382979999999989
                },
                {
                    "name": "F#4",
                    "midi": 66,
                    "time": 35.744687999999975,
                    "velocity": 0.2204724409448819,
                    "duration": 1.2765959999999978
                },
                {
                    "name": "D4",
                    "midi": 62,
                    "time": 35.744687999999975,
                    "velocity": 0.2204724409448819,
                    "duration": 1.2765959999999978
                },
                {
                    "name": "B4",
                    "midi": 71,
                    "time": 35.744687999999975,
                    "velocity": 0.2755905511811024,
                    "duration": 0.6382979999999989
                },
                {
                    "name": "B4",
                    "midi": 71,
                    "time": 36.382985999999974,
                    "velocity": 0.25196850393700787,
                    "duration": 0.6382979999999989
                },
                {
                    "name": "F#4",
                    "midi": 66,
                    "time": 37.02128399999997,
                    "velocity": 0.2125984251968504,
                    "duration": 1.2765959999999978
                },
                {
                    "name": "D4",
                    "midi": 62,
                    "time": 37.02128399999997,
                    "velocity": 0.2125984251968504,
                    "duration": 1.2765959999999978
                },
                {
                    "name": "B4",
                    "midi": 71,
                    "time": 37.02128399999997,
                    "velocity": 0.25984251968503935,
                    "duration": 0.6382979999999989
                },
                {
                    "name": "B4",
                    "midi": 71,
                    "time": 37.65958199999997,
                    "velocity": 0.25196850393700787,
                    "duration": 0.6382979999999989
                },
                {
                    "name": "G4",
                    "midi": 67,
                    "time": 38.29787999999997,
                    "velocity": 0.25196850393700787,
                    "duration": 1.2765959999999978
                },
                {
                    "name": "D4",
                    "midi": 62,
                    "time": 38.29787999999997,
                    "velocity": 0.25196850393700787,
                    "duration": 1.2765959999999978
                },
                {
                    "name": "B4",
                    "midi": 71,
                    "time": 38.29787999999997,
                    "velocity": 0.3228346456692913,
                    "duration": 0.6382979999999989
                },
                {
                    "name": "B4",
                    "midi": 71,
                    "time": 38.93617799999997,
                    "velocity": 0.3228346456692913,
                    "duration": 0.6382979999999989
                },
                {
                    "name": "B4",
                    "midi": 71,
                    "time": 39.57447599999997,
                    "velocity": 0.3464566929133858,
                    "duration": 0.6382979999999989
                },
                {
                    "name": "G4",
                    "midi": 67,
                    "time": 39.57447599999997,
                    "velocity": 0.25984251968503935,
                    "duration": 1.2765959999999978
                },
                {
                    "name": "B4",
                    "midi": 71,
                    "time": 40.21277399999997,
                    "velocity": 0.3228346456692913,
                    "duration": 0.6382979999999989
                },
                {
                    "name": "B4",
                    "midi": 71,
                    "time": 40.85107199999997,
                    "velocity": 0.3779527559055118,
                    "duration": 0.6382979999999989
                },
                {
                    "name": "G4",
                    "midi": 67,
                    "time": 40.85107199999997,
                    "velocity": 0.28346456692913385,
                    "duration": 1.2765959999999978
                },
                {
                    "name": "B4",
                    "midi": 71,
                    "time": 41.489369999999965,
                    "velocity": 0.3543307086614173,
                    "duration": 0.6382979999999989
                },
                {
                    "name": "G4",
                    "midi": 67,
                    "time": 42.127667999999964,
                    "velocity": 0.30708661417322836,
                    "duration": 1.2765959999999978
                },
                {
                    "name": "C5",
                    "midi": 72,
                    "time": 42.127667999999964,
                    "velocity": 0.3858267716535433,
                    "duration": 0.6382979999999989
                },
                {
                    "name": "C5",
                    "midi": 72,
                    "time": 42.76596599999996,
                    "velocity": 0.3858267716535433,
                    "duration": 0.6382979999999989
                },
                {
                    "name": "G4",
                    "midi": 67,
                    "time": 43.40426399999996,
                    "velocity": 0.30708661417322836,
                    "duration": 1.2765959999999978
                },
                {
                    "name": "E4",
                    "midi": 64,
                    "time": 43.40426399999996,
                    "velocity": 0.30708661417322836,
                    "duration": 1.2765959999999978
                },
                {
                    "name": "C5",
                    "midi": 72,
                    "time": 43.40426399999996,
                    "velocity": 0.3858267716535433,
                    "duration": 0.6382979999999989
                },
                {
                    "name": "C5",
                    "midi": 72,
                    "time": 44.04256199999996,
                    "velocity": 0.3464566929133858,
                    "duration": 0.6382979999999989
                },
                {
                    "name": "G4",
                    "midi": 67,
                    "time": 44.68085999999996,
                    "velocity": 0.28346456692913385,
                    "duration": 1.2765959999999978
                },
                {
                    "name": "E4",
                    "midi": 64,
                    "time": 44.68085999999996,
                    "velocity": 0.28346456692913385,
                    "duration": 1.2765959999999978
                },
                {
                    "name": "C5",
                    "midi": 72,
                    "time": 44.68085999999996,
                    "velocity": 0.36220472440944884,
                    "duration": 0.6382979999999989
                },
                {
                    "name": "C5",
                    "midi": 72,
                    "time": 45.31915799999996,
                    "velocity": 0.3543307086614173,
                    "duration": 0.6382979999999989
                },
                {
                    "name": "E4",
                    "midi": 64,
                    "time": 45.95745599999996,
                    "velocity": 0.28346456692913385,
                    "duration": 1.2765959999999978
                },
                {
                    "name": "C5",
                    "midi": 72,
                    "time": 45.95745599999996,
                    "velocity": 0.3543307086614173,
                    "duration": 0.6382979999999989
                },
                {
                    "name": "G4",
                    "midi": 67,
                    "time": 45.95745599999996,
                    "velocity": 0.28346456692913385,
                    "duration": 1.2765959999999978
                },
                {
                    "name": "C5",
                    "midi": 72,
                    "time": 46.59575399999996,
                    "velocity": 0.3543307086614173,
                    "duration": 0.6382979999999989
                },
                {
                    "name": "C5",
                    "midi": 72,
                    "time": 47.234051999999956,
                    "velocity": 0.3779527559055118,
                    "duration": 0.6382979999999989
                },
                {
                    "name": "G4",
                    "midi": 67,
                    "time": 47.234051999999956,
                    "velocity": 0.28346456692913385,
                    "duration": 1.2765959999999978
                },
                {
                    "name": "C5",
                    "midi": 72,
                    "time": 47.872349999999955,
                    "velocity": 0.3543307086614173,
                    "duration": 0.6382979999999989
                },
                {
                    "name": "C5",
                    "midi": 72,
                    "time": 48.510647999999954,
                    "velocity": 0.3543307086614173,
                    "duration": 0.6382979999999989
                },
                {
                    "name": "E4",
                    "midi": 64,
                    "time": 48.510647999999954,
                    "velocity": 0.28346456692913385,
                    "duration": 1.2765959999999978
                },
                {
                    "name": "G4",
                    "midi": 67,
                    "time": 48.510647999999954,
                    "velocity": 0.28346456692913385,
                    "duration": 1.2765959999999978
                },
                {
                    "name": "C5",
                    "midi": 72,
                    "time": 49.14894599999995,
                    "velocity": 0.3543307086614173,
                    "duration": 0.6382979999999989
                },
                {
                    "name": "G4",
                    "midi": 67,
                    "time": 49.78724399999995,
                    "velocity": 0.28346456692913385,
                    "duration": 1.2765959999999978
                },
                {
                    "name": "C5",
                    "midi": 72,
                    "time": 49.78724399999995,
                    "velocity": 0.3779527559055118,
                    "duration": 0.6382979999999989
                },
                {
                    "name": "C5",
                    "midi": 72,
                    "time": 50.42554199999995,
                    "velocity": 0.3464566929133858,
                    "duration": 0.6382979999999989
                },
                {
                    "name": "G4",
                    "midi": 67,
                    "time": 51.06383999999995,
                    "velocity": 0.25196850393700787,
                    "duration": 1.2765959999999978
                },
                {
                    "name": "C5",
                    "midi": 72,
                    "time": 51.06383999999995,
                    "velocity": 0.31496062992125984,
                    "duration": 0.6382979999999989
                },
                {
                    "name": "C5",
                    "midi": 72,
                    "time": 51.70213799999995,
                    "velocity": 0.31496062992125984,
                    "duration": 0.6382979999999989
                },
                {
                    "name": "B4",
                    "midi": 71,
                    "time": 52.34043599999995,
                    "velocity": 0.2992125984251969,
                    "duration": 0.6382979999999989
                },
                {
                    "name": "G4",
                    "midi": 67,
                    "time": 52.34043599999995,
                    "velocity": 0.23622047244094488,
                    "duration": 1.2765959999999978
                },
                {
                    "name": "B4",
                    "midi": 71,
                    "time": 52.978733999999946,
                    "velocity": 0.25196850393700787,
                    "duration": 0.6382979999999989
                },
                {
                    "name": "G4",
                    "midi": 67,
                    "time": 53.617031999999945,
                    "velocity": 0.2204724409448819,
                    "duration": 1.2765959999999978
                },
                {
                    "name": "A#4",
                    "midi": 70,
                    "time": 53.617031999999945,
                    "velocity": 0.28346456692913385,
                    "duration": 0.6382979999999989
                },
                {
                    "name": "C#4",
                    "midi": 61,
                    "time": 53.617031999999945,
                    "velocity": 0.2204724409448819,
                    "duration": 1.2765959999999978
                },
                {
                    "name": "A#4",
                    "midi": 70,
                    "time": 54.255329999999944,
                    "velocity": 0.2755905511811024,
                    "duration": 0.6382979999999989
                },
                {
                    "name": "A#4",
                    "midi": 70,
                    "time": 54.89362799999994,
                    "velocity": 0.28346456692913385,
                    "duration": 0.6382979999999989
                },
                {
                    "name": "C#4",
                    "midi": 61,
                    "time": 54.89362799999994,
                    "velocity": 0.2204724409448819,
                    "duration": 1.2765959999999978
                },
                {
                    "name": "F#4",
                    "midi": 66,
                    "time": 54.89362799999994,
                    "velocity": 0.2204724409448819,
                    "duration": 1.2765959999999978
                },
                {
                    "name": "A#4",
                    "midi": 70,
                    "time": 55.53192599999994,
                    "velocity": 0.28346456692913385,
                    "duration": 0.6382979999999989
                },
                {
                    "name": "F#4",
                    "midi": 66,
                    "time": 56.17022399999994,
                    "velocity": 0.2204724409448819,
                    "duration": 1.2765959999999978
                },
                {
                    "name": "D4",
                    "midi": 62,
                    "time": 56.17022399999994,
                    "velocity": 0.1889763779527559,
                    "duration": 1.2765959999999978
                },
                {
                    "name": "B4",
                    "midi": 71,
                    "time": 56.17022399999994,
                    "velocity": 0.28346456692913385,
                    "duration": 0.6382979999999989
                },
                {
                    "name": "B4",
                    "midi": 71,
                    "time": 56.80852199999994,
                    "velocity": 0.25196850393700787,
                    "duration": 0.6382979999999989
                },
                {
                    "name": "B4",
                    "midi": 71,
                    "time": 57.44681999999994,
                    "velocity": 0.28346456692913385,
                    "duration": 0.6382979999999989
                },
                {
                    "name": "C#4",
                    "midi": 61,
                    "time": 57.44681999999994,
                    "velocity": 0.2204724409448819,
                    "duration": 1.2765959999999978
                },
                {
                    "name": "G4",
                    "midi": 67,
                    "time": 57.44681999999994,
                    "velocity": 0.2204724409448819,
                    "duration": 1.2765959999999978
                },
                {
                    "name": "B4",
                    "midi": 71,
                    "time": 58.08511799999994,
                    "velocity": 0.2755905511811024,
                    "duration": 0.6382979999999989
                },
                {
                    "name": "A#4",
                    "midi": 70,
                    "time": 58.723415999999936,
                    "velocity": 0.28346456692913385,
                    "duration": 0.6382979999999989
                },
                {
                    "name": "C#4",
                    "midi": 61,
                    "time": 58.723415999999936,
                    "velocity": 0.2204724409448819,
                    "duration": 1.2765959999999978
                },
                {
                    "name": "G4",
                    "midi": 67,
                    "time": 58.723415999999936,
                    "velocity": 0.2204724409448819,
                    "duration": 1.2765959999999978
                },
                {
                    "name": "A#4",
                    "midi": 70,
                    "time": 59.361713999999935,
                    "velocity": 0.28346456692913385,
                    "duration": 0.6382979999999989
                },
                {
                    "name": "D4",
                    "midi": 62,
                    "time": 60.000011999999934,
                    "velocity": 0.2047244094488189,
                    "duration": 1.2765959999999978
                },
                {
                    "name": "G4",
                    "midi": 67,
                    "time": 60.000011999999934,
                    "velocity": 0.2204724409448819,
                    "duration": 1.2765959999999978
                },
                {
                    "name": "B4",
                    "midi": 71,
                    "time": 60.000011999999934,
                    "velocity": 0.28346456692913385,
                    "duration": 0.6382979999999989
                },
                {
                    "name": "B4",
                    "midi": 71,
                    "time": 60.63830999999993,
                    "velocity": 0.25196850393700787,
                    "duration": 0.6382979999999989
                },
                {
                    "name": "D4",
                    "midi": 62,
                    "time": 61.27660799999993,
                    "velocity": 0.2047244094488189,
                    "duration": 1.2765959999999978
                },
                {
                    "name": "B4",
                    "midi": 71,
                    "time": 61.27660799999993,
                    "velocity": 0.28346456692913385,
                    "duration": 0.6382979999999989
                },
                {
                    "name": "G4",
                    "midi": 67,
                    "time": 61.27660799999993,
                    "velocity": 0.2204724409448819,
                    "duration": 1.2765959999999978
                },
                {
                    "name": "B4",
                    "midi": 71,
                    "time": 61.91490599999993,
                    "velocity": 0.25196850393700787,
                    "duration": 0.6382979999999989
                },
                {
                    "name": "C#4",
                    "midi": 61,
                    "time": 62.55320399999993,
                    "velocity": 0.2204724409448819,
                    "duration": 1.2765959999999978
                },
                {
                    "name": "B4",
                    "midi": 71,
                    "time": 62.55320399999993,
                    "velocity": 0.28346456692913385,
                    "duration": 0.6382979999999989
                },
                {
                    "name": "F#4",
                    "midi": 66,
                    "time": 62.55320399999993,
                    "velocity": 0.2204724409448819,
                    "duration": 1.2765959999999978
                },
                {
                    "name": "B4",
                    "midi": 71,
                    "time": 63.19150199999993,
                    "velocity": 0.2440944881889764,
                    "duration": 0.6382979999999989
                },
                {
                    "name": "C#4",
                    "midi": 61,
                    "time": 63.82979999999993,
                    "velocity": 0.2047244094488189,
                    "duration": 1.276596000000005
                },
                {
                    "name": "A#4",
                    "midi": 70,
                    "time": 63.82979999999993,
                    "velocity": 0.28346456692913385,
                    "duration": 0.6382979999999989
                },
                {
                    "name": "E4",
                    "midi": 64,
                    "time": 63.82979999999993,
                    "velocity": 0.2204724409448819,
                    "duration": 1.276596000000005
                },
                {
                    "name": "A#4",
                    "midi": 70,
                    "time": 64.46809799999993,
                    "velocity": 0.25196850393700787,
                    "duration": 0.638298000000006
                },
                {
                    "name": "E4",
                    "midi": 64,
                    "time": 65.10639599999993,
                    "velocity": 0.2204724409448819,
                    "duration": 1.276596000000012
                },
                {
                    "name": "C#4",
                    "midi": 61,
                    "time": 65.10639599999993,
                    "velocity": 0.2204724409448819,
                    "duration": 1.276596000000012
                },
                {
                    "name": "A#4",
                    "midi": 70,
                    "time": 65.10639599999993,
                    "velocity": 0.28346456692913385,
                    "duration": 0.638298000000006
                },
                {
                    "name": "A#4",
                    "midi": 70,
                    "time": 65.74469399999994,
                    "velocity": 0.2440944881889764,
                    "duration": 0.638298000000006
                },
                {
                    "name": "B4",
                    "midi": 71,
                    "time": 66.38299199999994,
                    "velocity": 0.28346456692913385,
                    "duration": 0.638298000000006
                },
                {
                    "name": "B3",
                    "midi": 59,
                    "time": 66.38299199999994,
                    "velocity": 0.2047244094488189,
                    "duration": 1.276596000000012
                },
                {
                    "name": "D4",
                    "midi": 62,
                    "time": 66.38299199999994,
                    "velocity": 0.2204724409448819,
                    "duration": 1.276596000000012
                },
                {
                    "name": "B4",
                    "midi": 71,
                    "time": 67.02128999999995,
                    "velocity": 0.25196850393700787,
                    "duration": 0.638298000000006
                },
                {
                    "name": "B4",
                    "midi": 71,
                    "time": 67.65958799999996,
                    "velocity": 0.28346456692913385,
                    "duration": 0.638298000000006
                },
                {
                    "name": "D4",
                    "midi": 62,
                    "time": 67.65958799999996,
                    "velocity": 0.2125984251968504,
                    "duration": 1.276596000000012
                },
                {
                    "name": "G4",
                    "midi": 67,
                    "time": 67.65958799999996,
                    "velocity": 0.2204724409448819,
                    "duration": 1.276596000000012
                },
                {
                    "name": "B4",
                    "midi": 71,
                    "time": 68.29788599999996,
                    "velocity": 0.25196850393700787,
                    "duration": 0.638298000000006
                },
                {
                    "name": "G4",
                    "midi": 67,
                    "time": 68.93618399999997,
                    "velocity": 0.2204724409448819,
                    "duration": 1.276596000000012
                },
                {
                    "name": "C#4",
                    "midi": 61,
                    "time": 68.93618399999997,
                    "velocity": 0.2204724409448819,
                    "duration": 1.276596000000012
                },
                {
                    "name": "B4",
                    "midi": 71,
                    "time": 68.93618399999997,
                    "velocity": 0.28346456692913385,
                    "duration": 0.638298000000006
                },
                {
                    "name": "B4",
                    "midi": 71,
                    "time": 69.57448199999997,
                    "velocity": 0.2755905511811024,
                    "duration": 0.638298000000006
                },
                {
                    "name": "A#4",
                    "midi": 70,
                    "time": 70.21277999999998,
                    "velocity": 0.28346456692913385,
                    "duration": 0.638298000000006
                },
                {
                    "name": "G4",
                    "midi": 67,
                    "time": 70.21277999999998,
                    "velocity": 0.2204724409448819,
                    "duration": 1.276596000000012
                },
                {
                    "name": "C#4",
                    "midi": 61,
                    "time": 70.21277999999998,
                    "velocity": 0.2204724409448819,
                    "duration": 1.276596000000012
                },
                {
                    "name": "A#4",
                    "midi": 70,
                    "time": 70.85107799999999,
                    "velocity": 0.28346456692913385,
                    "duration": 0.638298000000006
                },
                {
                    "name": "D4",
                    "midi": 62,
                    "time": 71.489376,
                    "velocity": 0.1889763779527559,
                    "duration": 1.276596000000012
                },
                {
                    "name": "F#4",
                    "midi": 66,
                    "time": 71.489376,
                    "velocity": 0.2204724409448819,
                    "duration": 1.276596000000012
                },
                {
                    "name": "B4",
                    "midi": 71,
                    "time": 71.489376,
                    "velocity": 0.28346456692913385,
                    "duration": 0.638298000000006
                },
                {
                    "name": "B4",
                    "midi": 71,
                    "time": 72.127674,
                    "velocity": 0.25196850393700787,
                    "duration": 0.638298000000006
                },
                {
                    "name": "C#4",
                    "midi": 61,
                    "time": 72.765972,
                    "velocity": 0.2204724409448819,
                    "duration": 1.276596000000012
                },
                {
                    "name": "B4",
                    "midi": 71,
                    "time": 72.765972,
                    "velocity": 0.28346456692913385,
                    "duration": 0.638298000000006
                },
                {
                    "name": "G4",
                    "midi": 67,
                    "time": 72.765972,
                    "velocity": 0.2204724409448819,
                    "duration": 1.276596000000012
                },
                {
                    "name": "B4",
                    "midi": 71,
                    "time": 73.40427000000001,
                    "velocity": 0.2755905511811024,
                    "duration": 0.638298000000006
                },
                {
                    "name": "C#4",
                    "midi": 61,
                    "time": 74.04256800000002,
                    "velocity": 0.2204724409448819,
                    "duration": 1.276596000000012
                },
                {
                    "name": "A#4",
                    "midi": 70,
                    "time": 74.04256800000002,
                    "velocity": 0.28346456692913385,
                    "duration": 0.638298000000006
                },
                {
                    "name": "G4",
                    "midi": 67,
                    "time": 74.04256800000002,
                    "velocity": 0.2204724409448819,
                    "duration": 1.276596000000012
                },
                {
                    "name": "A#4",
                    "midi": 70,
                    "time": 74.68086600000002,
                    "velocity": 0.28346456692913385,
                    "duration": 0.638298000000006
                },
                {
                    "name": "D4",
                    "midi": 62,
                    "time": 75.31916400000003,
                    "velocity": 0.2047244094488189,
                    "duration": 1.276596000000012
                },
                {
                    "name": "B4",
                    "midi": 71,
                    "time": 75.31916400000003,
                    "velocity": 0.28346456692913385,
                    "duration": 0.638298000000006
                },
                {
                    "name": "G4",
                    "midi": 67,
                    "time": 75.31916400000003,
                    "velocity": 0.2204724409448819,
                    "duration": 1.276596000000012
                },
                {
                    "name": "B4",
                    "midi": 71,
                    "time": 75.95746200000004,
                    "velocity": 0.25196850393700787,
                    "duration": 0.638298000000006
                },
                {
                    "name": "G4",
                    "midi": 67,
                    "time": 76.59576000000004,
                    "velocity": 0.2204724409448819,
                    "duration": 1.276596000000012
                },
                {
                    "name": "D4",
                    "midi": 62,
                    "time": 76.59576000000004,
                    "velocity": 0.2047244094488189,
                    "duration": 1.276596000000012
                },
                {
                    "name": "B4",
                    "midi": 71,
                    "time": 76.59576000000004,
                    "velocity": 0.28346456692913385,
                    "duration": 0.638298000000006
                },
                {
                    "name": "B4",
                    "midi": 71,
                    "time": 77.23405800000005,
                    "velocity": 0.25196850393700787,
                    "duration": 0.638298000000006
                },
                {
                    "name": "F#4",
                    "midi": 66,
                    "time": 77.87235600000005,
                    "velocity": 0.2204724409448819,
                    "duration": 1.276596000000012
                },
                {
                    "name": "C#4",
                    "midi": 61,
                    "time": 77.87235600000005,
                    "velocity": 0.2204724409448819,
                    "duration": 1.276596000000012
                },
                {
                    "name": "B4",
                    "midi": 71,
                    "time": 77.87235600000005,
                    "velocity": 0.28346456692913385,
                    "duration": 0.638298000000006
                },
                {
                    "name": "B4",
                    "midi": 71,
                    "time": 78.51065400000006,
                    "velocity": 0.2440944881889764,
                    "duration": 0.638298000000006
                },
                {
                    "name": "A#4",
                    "midi": 70,
                    "time": 79.14895200000007,
                    "velocity": 0.25196850393700787,
                    "duration": 0.638298000000006
                },
                {
                    "name": "C#4",
                    "midi": 61,
                    "time": 79.14895200000007,
                    "velocity": 0.18110236220472442,
                    "duration": 1.276596000000012
                },
                {
                    "name": "F#4",
                    "midi": 66,
                    "time": 79.14895200000007,
                    "velocity": 0.1889763779527559,
                    "duration": 1.276596000000012
                },
                {
                    "name": "A#4",
                    "midi": 70,
                    "time": 79.78725000000007,
                    "velocity": 0.2204724409448819,
                    "duration": 0.638298000000006
                },
                {
                    "name": "F#4",
                    "midi": 66,
                    "time": 80.42554800000008,
                    "velocity": 0.1889763779527559,
                    "duration": 1.276596000000012
                },
                {
                    "name": "D4",
                    "midi": 62,
                    "time": 80.42554800000008,
                    "velocity": 0.1889763779527559,
                    "duration": 1.276596000000012
                },
                {
                    "name": "B4",
                    "midi": 71,
                    "time": 80.42554800000008,
                    "velocity": 0.23622047244094488,
                    "duration": 0.638298000000006
                },
                {
                    "name": "B4",
                    "midi": 71,
                    "time": 81.06384600000008,
                    "velocity": 0.2047244094488189,
                    "duration": 0.638298000000006
                },
                {
                    "name": "B4",
                    "midi": 71,
                    "time": 81.70214400000009,
                    "velocity": 0.23622047244094488,
                    "duration": 0.638298000000006
                },
                {
                    "name": "F#4",
                    "midi": 66,
                    "time": 81.70214400000009,
                    "velocity": 0.1889763779527559,
                    "duration": 1.276596000000012
                },
                {
                    "name": "D4",
                    "midi": 62,
                    "time": 81.70214400000009,
                    "velocity": 0.16535433070866143,
                    "duration": 1.276596000000012
                },
                {
                    "name": "B4",
                    "midi": 71,
                    "time": 82.3404420000001,
                    "velocity": 0.2125984251968504,
                    "duration": 0.638298000000006
                },
                {
                    "name": "A4",
                    "midi": 69,
                    "time": 82.9787400000001,
                    "velocity": 0.23622047244094488,
                    "duration": 0.638298000000006
                },
                {
                    "name": "D4",
                    "midi": 62,
                    "time": 82.9787400000001,
                    "velocity": 0.16535433070866143,
                    "duration": 1.276596000000012
                },
                {
                    "name": "F#4",
                    "midi": 66,
                    "time": 82.9787400000001,
                    "velocity": 0.1889763779527559,
                    "duration": 1.276596000000012
                },
                {
                    "name": "A4",
                    "midi": 69,
                    "time": 83.61703800000011,
                    "velocity": 0.2125984251968504,
                    "duration": 0.638298000000006
                },
                {
                    "name": "F#4",
                    "midi": 66,
                    "time": 84.25533600000011,
                    "velocity": 0.2283464566929134,
                    "duration": 0.638298000000006
                },
                {
                    "name": "D4",
                    "midi": 62,
                    "time": 84.25533600000011,
                    "velocity": 0.18110236220472442,
                    "duration": 1.276596000000012
                },
                {
                    "name": "F#4",
                    "midi": 66,
                    "time": 84.89363400000012,
                    "velocity": 0.2125984251968504,
                    "duration": 0.638298000000006
                },
                {
                    "name": "F#4",
                    "midi": 66,
                    "time": 85.53193200000013,
                    "velocity": 0.2283464566929134,
                    "duration": 0.638298000000006
                },
                {
                    "name": "F#4",
                    "midi": 66,
                    "time": 86.17023000000013,
                    "velocity": 0.2204724409448819,
                    "duration": 0.638298000000006
                },
                {
                    "name": "F#4",
                    "midi": 66,
                    "time": 86.80852800000014,
                    "velocity": 0.2283464566929134,
                    "duration": 0.638298000000006
                },
                {
                    "name": "F#4",
                    "midi": 66,
                    "time": 87.44682600000014,
                    "velocity": 0.2204724409448819,
                    "duration": 0.638298000000006
                },
                {
                    "name": "D4",
                    "midi": 62,
                    "time": 88.08512400000015,
                    "velocity": 0.18110236220472442,
                    "duration": 1.276596000000012
                },
                {
                    "name": "F#4",
                    "midi": 66,
                    "time": 88.08512400000015,
                    "velocity": 0.2283464566929134,
                    "duration": 0.638298000000006
                },
                {
                    "name": "F#4",
                    "midi": 66,
                    "time": 88.72342200000016,
                    "velocity": 0.2125984251968504,
                    "duration": 0.638298000000006
                },
                {
                    "name": "F#4",
                    "midi": 66,
                    "time": 89.36172000000016,
                    "velocity": 0.2125984251968504,
                    "duration": 0.638298000000006
                },
                {
                    "name": "D4",
                    "midi": 62,
                    "time": 89.36172000000016,
                    "velocity": 0.16535433070866143,
                    "duration": 1.276596000000012
                },
                {
                    "name": "F#4",
                    "midi": 66,
                    "time": 90.00001800000017,
                    "velocity": 0.1968503937007874,
                    "duration": 0.638298000000006
                },
                {
                    "name": "F#4",
                    "midi": 66,
                    "time": 90.63831600000017,
                    "velocity": 0.1889763779527559,
                    "duration": 0.638298000000006
                },
                {
                    "name": "D4",
                    "midi": 62,
                    "time": 90.63831600000017,
                    "velocity": 0.14960629921259844,
                    "duration": 1.276596000000012
                },
                {
                    "name": "F#4",
                    "midi": 66,
                    "time": 91.27661400000018,
                    "velocity": 0.1732283464566929,
                    "duration": 0.638298000000006
                },
                {
                    "name": "D4",
                    "midi": 62,
                    "time": 91.91491200000019,
                    "velocity": 0.12598425196850394,
                    "duration": 1.276596000000012
                },
                {
                    "name": "F#4",
                    "midi": 66,
                    "time": 91.91491200000019,
                    "velocity": 0.15748031496062992,
                    "duration": 0.638298000000006
                },
                {
                    "name": "F#4",
                    "midi": 66,
                    "time": 92.55321000000019,
                    "velocity": 0.14960629921259844,
                    "duration": 0.638298000000006
                },
                {
                    "name": "F#4",
                    "midi": 66,
                    "time": 94.4681040000002,
                    "velocity": 0.14960629921259844,
                    "duration": 0.638298000000006
                },
                {
                    "name": "D4",
                    "midi": 62,
                    "time": 94.4681040000002,
                    "velocity": 0.11811023622047244,
                    "duration": 1.276596000000012
                },
                {
                    "name": "F#4",
                    "midi": 66,
                    "time": 95.1064020000002,
                    "velocity": 0.13385826771653545,
                    "duration": 0.638298000000006
                },
                {
                    "name": "D4",
                    "midi": 62,
                    "time": 95.74470000000021,
                    "velocity": 0.11811023622047244,
                    "duration": 1.276596000000012
                },
                {
                    "name": "F#4",
                    "midi": 66,
                    "time": 95.74470000000021,
                    "velocity": 0.14960629921259844,
                    "duration": 0.638298000000006
                },
                {
                    "name": "F#4",
                    "midi": 66,
                    "time": 96.38299800000021,
                    "velocity": 0.13385826771653545,
                    "duration": 0.638298000000006
                }
            ],
            "controlChanges": {
                "7": [
                    {
                        "number": 7,
                        "time": 0,
                        "value": 0.7874015748031497
                    }
                ],
                "10": [
                    {
                        "number": 10,
                        "time": 0,
                        "value": 0.5039370078740157
                    }
                ],
                "91": [
                    {
                        "number": 91,
                        "time": 0,
                        "value": 1
                    },
                    {
                        "number": 91,
                        "time": 0,
                        "value": 1
                    },
                    {
                        "number": 91,
                        "time": 0,
                        "value": 1
                    }
                ]
            },
            "id": 1,
            "name": "Piano right",
            "instrumentNumber": 0,
            "instrument": "acoustic grand piano",
            "instrumentFamily": "piano",
            "channelNumber": 0,
            "isPercussion": false
        },
        {
            "startTime": 0.002659575,
            "duration": 97.021296,
            "length": 124,
            "notes": [
                {
                    "name": "B2",
                    "midi": 47,
                    "time": 0.002659575,
                    "velocity": 0.2992125984251969,
                    "duration": 0.31648942500000005
                },
                {
                    "name": "D3",
                    "midi": 50,
                    "time": 0.31914900000000007,
                    "velocity": 0.25196850393700787,
                    "duration": 0.31914899999999996
                },
                {
                    "name": "F#3",
                    "midi": 54,
                    "time": 0.638298,
                    "velocity": 0.28346456692913385,
                    "duration": 0.319149
                },
                {
                    "name": "B3",
                    "midi": 59,
                    "time": 0.957447,
                    "velocity": 0.3228346456692913,
                    "duration": 0.319149
                },
                {
                    "name": "D4",
                    "midi": 62,
                    "time": 1.276596,
                    "velocity": 0.36220472440944884,
                    "duration": 1.276596
                },
                {
                    "name": "C#4",
                    "midi": 61,
                    "time": 2.553192,
                    "velocity": 0.3543307086614173,
                    "duration": 0.9574469999999997
                },
                {
                    "name": "D4",
                    "midi": 62,
                    "time": 3.510639,
                    "velocity": 0.2755905511811024,
                    "duration": 0.31382984999999985
                },
                {
                    "name": "B3",
                    "midi": 59,
                    "time": 3.8297879999999997,
                    "velocity": 0.3464566929133858,
                    "duration": 1.9148939999999994
                },
                {
                    "name": "F#3",
                    "midi": 54,
                    "time": 5.744681999999999,
                    "velocity": 0.31496062992125984,
                    "duration": 0.6382979999999998
                },
                {
                    "name": "D3",
                    "midi": 50,
                    "time": 6.382979999999999,
                    "velocity": 0.2755905511811024,
                    "duration": 0.6382979999999998
                },
                {
                    "name": "C#3",
                    "midi": 49,
                    "time": 7.021277999999999,
                    "velocity": 0.2440944881889764,
                    "duration": 0.6382979999999998
                },
                {
                    "name": "B2",
                    "midi": 47,
                    "time": 7.659575999999999,
                    "velocity": 0.2992125984251969,
                    "duration": 0.31914899999999946
                },
                {
                    "name": "F#3",
                    "midi": 54,
                    "time": 7.978724999999998,
                    "velocity": 0.25196850393700787,
                    "duration": 0.31914900000000035
                },
                {
                    "name": "B3",
                    "midi": 59,
                    "time": 8.297873999999998,
                    "velocity": 0.28346456692913385,
                    "duration": 0.31914899999999946
                },
                {
                    "name": "D4",
                    "midi": 62,
                    "time": 8.617022999999998,
                    "velocity": 0.3228346456692913,
                    "duration": 0.31914899999999946
                },
                {
                    "name": "F#4",
                    "midi": 66,
                    "time": 8.936171999999997,
                    "velocity": 0.36220472440944884,
                    "duration": 1.2765959999999996
                },
                {
                    "name": "E4",
                    "midi": 64,
                    "time": 10.212767999999997,
                    "velocity": 0.36220472440944884,
                    "duration": 0.9574470000000002
                },
                {
                    "name": "F#4",
                    "midi": 66,
                    "time": 11.170214999999997,
                    "velocity": 0.3228346456692913,
                    "duration": 0.3138298499999994
                },
                {
                    "name": "D4",
                    "midi": 62,
                    "time": 11.489363999999997,
                    "velocity": 0.3464566929133858,
                    "duration": 1.9148939999999985
                },
                {
                    "name": "B3",
                    "midi": 59,
                    "time": 13.404257999999995,
                    "velocity": 0.3464566929133858,
                    "duration": 0.6382980000000007
                },
                {
                    "name": "F#3",
                    "midi": 54,
                    "time": 14.042555999999996,
                    "velocity": 0.30708661417322836,
                    "duration": 0.6382980000000007
                },
                {
                    "name": "D3",
                    "midi": 50,
                    "time": 14.680853999999997,
                    "velocity": 0.2992125984251969,
                    "duration": 0.6382980000000007
                },
                {
                    "name": "G2",
                    "midi": 43,
                    "time": 15.319151999999997,
                    "velocity": 0.3543307086614173,
                    "duration": 0.31914899999999946
                },
                {
                    "name": "D3",
                    "midi": 50,
                    "time": 15.638300999999997,
                    "velocity": 0.30708661417322836,
                    "duration": 0.31914899999999946
                },
                {
                    "name": "B3",
                    "midi": 59,
                    "time": 15.957449999999996,
                    "velocity": 0.33070866141732286,
                    "duration": 0.31914900000000124
                },
                {
                    "name": "D4",
                    "midi": 62,
                    "time": 16.276598999999997,
                    "velocity": 0.3543307086614173,
                    "duration": 0.31914899999999946
                },
                {
                    "name": "G4",
                    "midi": 67,
                    "time": 16.595747999999997,
                    "velocity": 0.3858267716535433,
                    "duration": 1.2765960000000014
                },
                {
                    "name": "F#4",
                    "midi": 66,
                    "time": 17.872344,
                    "velocity": 0.3779527559055118,
                    "duration": 1.2765959999999978
                },
                {
                    "name": "F#4",
                    "midi": 66,
                    "time": 19.148939999999996,
                    "velocity": 0.3858267716535433,
                    "duration": 1.2765959999999978
                },
                {
                    "name": "F4",
                    "midi": 65,
                    "time": 20.425535999999994,
                    "velocity": 0.3779527559055118,
                    "duration": 1.2765960000000014
                },
                {
                    "name": "E4",
                    "midi": 64,
                    "time": 21.702131999999995,
                    "velocity": 0.3858267716535433,
                    "duration": 0.6382979999999954
                },
                {
                    "name": "D4",
                    "midi": 62,
                    "time": 22.34042999999999,
                    "velocity": 0.3464566929133858,
                    "duration": 0.6382979999999989
                },
                {
                    "name": "C#4",
                    "midi": 61,
                    "time": 22.97872799999999,
                    "velocity": 0.3858267716535433,
                    "duration": 0.5319150000000015
                },
                {
                    "name": "E4",
                    "midi": 64,
                    "time": 23.51064299999999,
                    "velocity": 0.2204724409448819,
                    "duration": 0.106383000000001
                },
                {
                    "name": "D4",
                    "midi": 62,
                    "time": 23.617025999999992,
                    "velocity": 0.3228346456692913,
                    "duration": 0.6382979999999989
                },
                {
                    "name": "C#4",
                    "midi": 61,
                    "time": 24.25532399999999,
                    "velocity": 0.3858267716535433,
                    "duration": 0.6382980000000025
                },
                {
                    "name": "A#3",
                    "midi": 58,
                    "time": 24.893621999999993,
                    "velocity": 0.31496062992125984,
                    "duration": 0.6382980000000025
                },
                {
                    "name": "B3",
                    "midi": 59,
                    "time": 25.531919999999996,
                    "velocity": 0.3700787401574803,
                    "duration": 0.6382980000000025
                },
                {
                    "name": "D3",
                    "midi": 50,
                    "time": 26.170218,
                    "velocity": 0.33070866141732286,
                    "duration": 0.6382980000000025
                },
                {
                    "name": "E3",
                    "midi": 52,
                    "time": 26.808516,
                    "velocity": 0.3779527559055118,
                    "duration": 0.6382979999999989
                },
                {
                    "name": "F3",
                    "midi": 53,
                    "time": 27.446814,
                    "velocity": 0.30708661417322836,
                    "duration": 0.6382979999999989
                },
                {
                    "name": "F#3",
                    "midi": 54,
                    "time": 28.085112,
                    "velocity": 0.36220472440944884,
                    "duration": 1.2765960000000014
                },
                {
                    "name": "D3",
                    "midi": 50,
                    "time": 29.361708,
                    "velocity": 0.3228346456692913,
                    "duration": 0.6382979999999989
                },
                {
                    "name": "C#3",
                    "midi": 49,
                    "time": 30.000006,
                    "velocity": 0.2755905511811024,
                    "duration": 0.6382979999999989
                },
                {
                    "name": "B2",
                    "midi": 47,
                    "time": 30.638303999999998,
                    "velocity": 0.2992125984251969,
                    "duration": 0.31914899999999946
                },
                {
                    "name": "D3",
                    "midi": 50,
                    "time": 30.957452999999997,
                    "velocity": 0.25196850393700787,
                    "duration": 0.31914899999999946
                },
                {
                    "name": "F#3",
                    "midi": 54,
                    "time": 31.276601999999997,
                    "velocity": 0.28346456692913385,
                    "duration": 0.31914899999999946
                },
                {
                    "name": "B3",
                    "midi": 59,
                    "time": 31.595750999999996,
                    "velocity": 0.3228346456692913,
                    "duration": 0.31914899999999946
                },
                {
                    "name": "D4",
                    "midi": 62,
                    "time": 31.914899999999996,
                    "velocity": 0.36220472440944884,
                    "duration": 1.2765959999999978
                },
                {
                    "name": "C#4",
                    "midi": 61,
                    "time": 33.191495999999994,
                    "velocity": 0.3543307086614173,
                    "duration": 0.9574469999999948
                },
                {
                    "name": "D4",
                    "midi": 62,
                    "time": 34.14894299999999,
                    "velocity": 0.25984251968503935,
                    "duration": 0.31382984999999763
                },
                {
                    "name": "B3",
                    "midi": 59,
                    "time": 34.468091999999984,
                    "velocity": 0.3464566929133858,
                    "duration": 1.9148940000000039
                },
                {
                    "name": "F#3",
                    "midi": 54,
                    "time": 36.38298599999999,
                    "velocity": 0.3228346456692913,
                    "duration": 0.6382979999999989
                },
                {
                    "name": "D3",
                    "midi": 50,
                    "time": 37.02128399999999,
                    "velocity": 0.2755905511811024,
                    "duration": 0.6382979999999989
                },
                {
                    "name": "B2",
                    "midi": 47,
                    "time": 37.659581999999986,
                    "velocity": 0.25196850393700787,
                    "duration": 0.6382979999999989
                },
                {
                    "name": "G2",
                    "midi": 43,
                    "time": 38.297879999999985,
                    "velocity": 0.4015748031496063,
                    "duration": 0.3191489999999959
                },
                {
                    "name": "D3",
                    "midi": 50,
                    "time": 38.61702899999998,
                    "velocity": 0.36220472440944884,
                    "duration": 0.319149000000003
                },
                {
                    "name": "G3",
                    "midi": 55,
                    "time": 38.936177999999984,
                    "velocity": 0.3779527559055118,
                    "duration": 0.319149000000003
                },
                {
                    "name": "B3",
                    "midi": 59,
                    "time": 39.25532699999999,
                    "velocity": 0.3858267716535433,
                    "duration": 0.319149000000003
                },
                {
                    "name": "D4",
                    "midi": 62,
                    "time": 39.57447599999999,
                    "velocity": 0.3937007874015748,
                    "duration": 1.2765959999999978
                },
                {
                    "name": "E4",
                    "midi": 64,
                    "time": 40.85107199999999,
                    "velocity": 0.4409448818897638,
                    "duration": 0.6382979999999989
                },
                {
                    "name": "F4",
                    "midi": 65,
                    "time": 41.48936999999999,
                    "velocity": 0.4094488188976378,
                    "duration": 0.6382979999999989
                },
                {
                    "name": "E4",
                    "midi": 64,
                    "time": 42.127667999999986,
                    "velocity": 0.4409448818897638,
                    "duration": 1.2712768499999996
                },
                {
                    "name": "C4",
                    "midi": 60,
                    "time": 44.04256199999998,
                    "velocity": 0.4251968503937008,
                    "duration": 0.6382979999999989
                },
                {
                    "name": "G3",
                    "midi": 55,
                    "time": 44.68085999999998,
                    "velocity": 0.3937007874015748,
                    "duration": 0.638298000000006
                },
                {
                    "name": "C3",
                    "midi": 48,
                    "time": 45.31915799999999,
                    "velocity": 0.3779527559055118,
                    "duration": 0.6382979999999989
                },
                {
                    "name": "C2",
                    "midi": 36,
                    "time": 45.957455999999986,
                    "velocity": 0.44881889763779526,
                    "duration": 0.319149000000003
                },
                {
                    "name": "G2",
                    "midi": 43,
                    "time": 46.27660499999999,
                    "velocity": 0.3937007874015748,
                    "duration": 0.319149000000003
                },
                {
                    "name": "E3",
                    "midi": 52,
                    "time": 46.59575399999999,
                    "velocity": 0.41732283464566927,
                    "duration": 0.319149000000003
                },
                {
                    "name": "G3",
                    "midi": 55,
                    "time": 46.914902999999995,
                    "velocity": 0.4409448818897638,
                    "duration": 0.319149000000003
                },
                {
                    "name": "E4",
                    "midi": 64,
                    "time": 47.234052,
                    "velocity": 0.4566929133858268,
                    "duration": 1.2712768499999996
                },
                {
                    "name": "C2",
                    "midi": 36,
                    "time": 48.510647999999996,
                    "velocity": 0.4645669291338583,
                    "duration": 0.319149000000003
                },
                {
                    "name": "G2",
                    "midi": 43,
                    "time": 48.829797,
                    "velocity": 0.3700787401574803,
                    "duration": 0.319149000000003
                },
                {
                    "name": "E3",
                    "midi": 52,
                    "time": 49.148946,
                    "velocity": 0.4015748031496063,
                    "duration": 0.319149000000003
                },
                {
                    "name": "G3",
                    "midi": 55,
                    "time": 49.468095000000005,
                    "velocity": 0.4330708661417323,
                    "duration": 0.319149000000003
                },
                {
                    "name": "E4",
                    "midi": 64,
                    "time": 49.78724400000001,
                    "velocity": 0.4645669291338583,
                    "duration": 2.553192000000003
                },
                {
                    "name": "E3",
                    "midi": 52,
                    "time": 53.61703200000001,
                    "velocity": 0.3779527559055118,
                    "duration": 1.9148939999999968
                },
                {
                    "name": "F#3",
                    "midi": 54,
                    "time": 55.531926000000006,
                    "velocity": 0.2992125984251969,
                    "duration": 0.6382979999999989
                },
                {
                    "name": "E3",
                    "midi": 52,
                    "time": 56.170224000000005,
                    "velocity": 0.3779527559055118,
                    "duration": 0.319149000000003
                },
                {
                    "name": "D3",
                    "midi": 50,
                    "time": 56.48937300000001,
                    "velocity": 0.31496062992125984,
                    "duration": 0.319149000000003
                },
                {
                    "name": "C#3",
                    "midi": 49,
                    "time": 56.80852200000001,
                    "velocity": 0.3228346456692913,
                    "duration": 0.319149000000003
                },
                {
                    "name": "B2",
                    "midi": 47,
                    "time": 57.127671000000014,
                    "velocity": 0.28346456692913385,
                    "duration": 0.319149000000003
                },
                {
                    "name": "E3",
                    "midi": 52,
                    "time": 57.44682000000002,
                    "velocity": 0.3779527559055118,
                    "duration": 1.9148939999999897
                },
                {
                    "name": "F#3",
                    "midi": 54,
                    "time": 59.361714000000006,
                    "velocity": 0.2992125984251969,
                    "duration": 0.6382979999999989
                },
                {
                    "name": "E3",
                    "midi": 52,
                    "time": 60.000012000000005,
                    "velocity": 0.3779527559055118,
                    "duration": 0.319149000000003
                },
                {
                    "name": "D3",
                    "midi": 50,
                    "time": 60.31916100000001,
                    "velocity": 0.31496062992125984,
                    "duration": 0.319149000000003
                },
                {
                    "name": "C#3",
                    "midi": 49,
                    "time": 60.63831000000001,
                    "velocity": 0.3228346456692913,
                    "duration": 0.319149000000003
                },
                {
                    "name": "B2",
                    "midi": 47,
                    "time": 60.957459000000014,
                    "velocity": 0.28346456692913385,
                    "duration": 0.319149000000003
                },
                {
                    "name": "A2",
                    "midi": 45,
                    "time": 61.27660800000002,
                    "velocity": 0.3543307086614173,
                    "duration": 0.3191489999999959
                },
                {
                    "name": "G2",
                    "midi": 43,
                    "time": 61.59575700000001,
                    "velocity": 0.31496062992125984,
                    "duration": 0.319149000000003
                },
                {
                    "name": "D2",
                    "midi": 38,
                    "time": 61.914906000000016,
                    "velocity": 0.3228346456692913,
                    "duration": 0.3191489999999959
                },
                {
                    "name": "E2",
                    "midi": 40,
                    "time": 62.23405500000001,
                    "velocity": 0.28346456692913385,
                    "duration": 0.319149000000003
                },
                {
                    "name": "F#2",
                    "midi": 42,
                    "time": 62.553204000000015,
                    "velocity": 0.3779527559055118,
                    "duration": 2.553192000000003
                },
                {
                    "name": "G2",
                    "midi": 43,
                    "time": 65.10639600000002,
                    "velocity": 0.28346456692913385,
                    "duration": 2.553192000000024
                },
                {
                    "name": "G3",
                    "midi": 55,
                    "time": 67.65958800000004,
                    "velocity": 0.2755905511811024,
                    "duration": 1.276596000000012
                },
                {
                    "name": "E3",
                    "midi": 52,
                    "time": 68.93618400000005,
                    "velocity": 0.3779527559055118,
                    "duration": 1.9148940000000039
                },
                {
                    "name": "F#3",
                    "midi": 54,
                    "time": 70.85107800000006,
                    "velocity": 0.2992125984251969,
                    "duration": 0.638298000000006
                },
                {
                    "name": "E3",
                    "midi": 52,
                    "time": 71.48937600000006,
                    "velocity": 0.3700787401574803,
                    "duration": 0.3191489999999959
                },
                {
                    "name": "D3",
                    "midi": 50,
                    "time": 71.80852500000006,
                    "velocity": 0.31496062992125984,
                    "duration": 0.3191489999999959
                },
                {
                    "name": "C#3",
                    "midi": 49,
                    "time": 72.12767400000006,
                    "velocity": 0.3228346456692913,
                    "duration": 0.3191489999999959
                },
                {
                    "name": "B2",
                    "midi": 47,
                    "time": 72.44682300000005,
                    "velocity": 0.28346456692913385,
                    "duration": 0.3191489999999959
                },
                {
                    "name": "E3",
                    "midi": 52,
                    "time": 72.76597200000005,
                    "velocity": 0.3779527559055118,
                    "duration": 1.9148939999999897
                },
                {
                    "name": "F#3",
                    "midi": 54,
                    "time": 74.68086600000004,
                    "velocity": 0.2992125984251969,
                    "duration": 0.638298000000006
                },
                {
                    "name": "E3",
                    "midi": 52,
                    "time": 75.31916400000004,
                    "velocity": 0.3779527559055118,
                    "duration": 0.3191489999999959
                },
                {
                    "name": "D3",
                    "midi": 50,
                    "time": 75.63831300000004,
                    "velocity": 0.31496062992125984,
                    "duration": 0.3191489999999959
                },
                {
                    "name": "C#3",
                    "midi": 49,
                    "time": 75.95746200000004,
                    "velocity": 0.3228346456692913,
                    "duration": 0.3191489999999959
                },
                {
                    "name": "B2",
                    "midi": 47,
                    "time": 76.27661100000003,
                    "velocity": 0.28346456692913385,
                    "duration": 0.3191489999999959
                },
                {
                    "name": "A2",
                    "midi": 45,
                    "time": 76.59576000000003,
                    "velocity": 0.3543307086614173,
                    "duration": 0.3191489999999959
                },
                {
                    "name": "G2",
                    "midi": 43,
                    "time": 76.91490900000002,
                    "velocity": 0.31496062992125984,
                    "duration": 0.3191489999999959
                },
                {
                    "name": "D2",
                    "midi": 38,
                    "time": 77.23405800000002,
                    "velocity": 0.3228346456692913,
                    "duration": 0.3191490000000101
                },
                {
                    "name": "E2",
                    "midi": 40,
                    "time": 77.55320700000003,
                    "velocity": 0.28346456692913385,
                    "duration": 0.3191489999999959
                },
                {
                    "name": "F#2",
                    "midi": 42,
                    "time": 77.87235600000002,
                    "velocity": 0.3779527559055118,
                    "duration": 2.55319200000001
                },
                {
                    "name": "B1",
                    "midi": 35,
                    "time": 80.42554800000003,
                    "velocity": 0.2440944881889764,
                    "duration": 4.148936999999989
                },
                {
                    "name": "D3",
                    "midi": 50,
                    "time": 84.57448500000002,
                    "velocity": 0.2125984251968504,
                    "duration": 0.3191489999999959
                },
                {
                    "name": "F#3",
                    "midi": 54,
                    "time": 84.89363400000002,
                    "velocity": 0.2440944881889764,
                    "duration": 0.3191489999999959
                },
                {
                    "name": "B3",
                    "midi": 59,
                    "time": 85.21278300000002,
                    "velocity": 0.2755905511811024,
                    "duration": 0.3191489999999959
                },
                {
                    "name": "D4",
                    "midi": 62,
                    "time": 85.53193200000001,
                    "velocity": 0.31496062992125984,
                    "duration": 1.2765959999999978
                },
                {
                    "name": "C#4",
                    "midi": 61,
                    "time": 86.80852800000001,
                    "velocity": 0.2992125984251969,
                    "duration": 0.9574469999999877
                },
                {
                    "name": "D4",
                    "midi": 62,
                    "time": 87.765975,
                    "velocity": 0.25984251968503935,
                    "duration": 0.31382985000000474
                },
                {
                    "name": "B3",
                    "midi": 59,
                    "time": 88.08512400000001,
                    "velocity": 0.28346456692913385,
                    "duration": 1.9148940000000039
                },
                {
                    "name": "F#3",
                    "midi": 54,
                    "time": 90.00001800000001,
                    "velocity": 0.2204724409448819,
                    "duration": 0.638298000000006
                },
                {
                    "name": "D3",
                    "midi": 50,
                    "time": 90.63831600000002,
                    "velocity": 0.1968503937007874,
                    "duration": 0.6382979999999918
                },
                {
                    "name": "C#3",
                    "midi": 49,
                    "time": 91.27661400000001,
                    "velocity": 0.16535433070866143,
                    "duration": 0.638298000000006
                },
                {
                    "name": "B2",
                    "midi": 47,
                    "time": 91.91491200000002,
                    "velocity": 0.16535433070866143,
                    "duration": 5.106383999999991
                }
            ],
            "controlChanges": {
                "7": [
                    {
                        "number": 7,
                        "time": 0,
                        "value": 0.7874015748031497
                    }
                ],
                "10": [
                    {
                        "number": 10,
                        "time": 0,
                        "value": 0.5039370078740157
                    }
                ],
                "64": [
                    {
                        "number": 64,
                        "time": 0,
                        "value": 1
                    },
                    {
                        "number": 64,
                        "time": 2.582447325,
                        "value": 0
                    },
                    {
                        "number": 64,
                        "time": 2.816489925,
                        "value": 1
                    },
                    {
                        "number": 64,
                        "time": 3.8590433249999996,
                        "value": 0
                    },
                    {
                        "number": 64,
                        "time": 4.167554024999999,
                        "value": 1
                    },
                    {
                        "number": 64,
                        "time": 6.422873624999999,
                        "value": 0
                    },
                    {
                        "number": 64,
                        "time": 6.872341799999999,
                        "value": 1
                    },
                    {
                        "number": 64,
                        "time": 7.675533449999999,
                        "value": 0
                    },
                    {
                        "number": 64,
                        "time": 7.829788799999998,
                        "value": 1
                    },
                    {
                        "number": 64,
                        "time": 10.252661624999996,
                        "value": 0
                    },
                    {
                        "number": 64,
                        "time": 10.513299974999997,
                        "value": 1
                    },
                    {
                        "number": 64,
                        "time": 11.510640599999997,
                        "value": 0
                    },
                    {
                        "number": 64,
                        "time": 11.901598124999996,
                        "value": 1
                    },
                    {
                        "number": 64,
                        "time": 14.074470899999996,
                        "value": 0
                    },
                    {
                        "number": 64,
                        "time": 14.380322024999996,
                        "value": 1
                    },
                    {
                        "number": 64,
                        "time": 15.348407324999997,
                        "value": 0
                    },
                    {
                        "number": 64,
                        "time": 15.489364799999997,
                        "value": 1
                    },
                    {
                        "number": 64,
                        "time": 17.909578049999997,
                        "value": 0
                    },
                    {
                        "number": 64,
                        "time": 18.154258949999996,
                        "value": 1
                    },
                    {
                        "number": 64,
                        "time": 19.172876174999995,
                        "value": 0
                    },
                    {
                        "number": 64,
                        "time": 19.561174124999994,
                        "value": 1
                    },
                    {
                        "number": 64,
                        "time": 20.457450899999994,
                        "value": 0
                    },
                    {
                        "number": 64,
                        "time": 20.851067999999994,
                        "value": 1
                    },
                    {
                        "number": 64,
                        "time": 21.718089449999994,
                        "value": 0
                    },
                    {
                        "number": 64,
                        "time": 22.127663999999992,
                        "value": 1
                    },
                    {
                        "number": 64,
                        "time": 22.99734502499999,
                        "value": 0
                    },
                    {
                        "number": 64,
                        "time": 23.17553654999999,
                        "value": 1
                    },
                    {
                        "number": 64,
                        "time": 23.63298344999999,
                        "value": 0
                    },
                    {
                        "number": 64,
                        "time": 23.77660049999999,
                        "value": 1
                    },
                    {
                        "number": 64,
                        "time": 24.295217624999992,
                        "value": 0
                    },
                    {
                        "number": 64,
                        "time": 24.574472999999994,
                        "value": 1
                    },
                    {
                        "number": 64,
                        "time": 24.925536899999994,
                        "value": 0
                    },
                    {
                        "number": 64,
                        "time": 25.053196499999995,
                        "value": 1
                    },
                    {
                        "number": 64,
                        "time": 25.571813624999997,
                        "value": 0
                    },
                    {
                        "number": 64,
                        "time": 25.702132799999998,
                        "value": 1
                    },
                    {
                        "number": 64,
                        "time": 26.199473325,
                        "value": 0
                    },
                    {
                        "number": 64,
                        "time": 26.3404308,
                        "value": 1
                    },
                    {
                        "number": 64,
                        "time": 26.82447345,
                        "value": 0
                    },
                    {
                        "number": 64,
                        "time": 27.082452225,
                        "value": 1
                    },
                    {
                        "number": 64,
                        "time": 27.470750175,
                        "value": 0
                    },
                    {
                        "number": 64,
                        "time": 27.752665125,
                        "value": 1
                    },
                    {
                        "number": 64,
                        "time": 28.1276652,
                        "value": 0
                    },
                    {
                        "number": 64,
                        "time": 28.42021845,
                        "value": 1
                    },
                    {
                        "number": 64,
                        "time": 28.75000575,
                        "value": 0
                    },
                    {
                        "number": 64,
                        "time": 29.178197325,
                        "value": 1
                    },
                    {
                        "number": 64,
                        "time": 29.38830375,
                        "value": 0
                    },
                    {
                        "number": 64,
                        "time": 30.771282749999997,
                        "value": 1
                    },
                    {
                        "number": 64,
                        "time": 33.21809174999999,
                        "value": 0
                    },
                    {
                        "number": 64,
                        "time": 33.49202797499999,
                        "value": 1
                    },
                    {
                        "number": 64,
                        "time": 34.497347324999986,
                        "value": 0
                    },
                    {
                        "number": 64,
                        "time": 34.805858024999985,
                        "value": 1
                    },
                    {
                        "number": 64,
                        "time": 37.05851804999999,
                        "value": 0
                    },
                    {
                        "number": 64,
                        "time": 37.35905002499999,
                        "value": 1
                    },
                    {
                        "number": 64,
                        "time": 38.32979489999998,
                        "value": 0
                    },
                    {
                        "number": 64,
                        "time": 38.46809279999998,
                        "value": 1
                    },
                    {
                        "number": 64,
                        "time": 40.890965624999986,
                        "value": 0
                    },
                    {
                        "number": 64,
                        "time": 41.207455049999986,
                        "value": 1
                    },
                    {
                        "number": 64,
                        "time": 42.14628502499998,
                        "value": 0
                    },
                    {
                        "number": 64,
                        "time": 42.53990212499998,
                        "value": 1
                    },
                    {
                        "number": 64,
                        "time": 44.69681744999998,
                        "value": 0
                    },
                    {
                        "number": 64,
                        "time": 45.077136674999984,
                        "value": 1
                    },
                    {
                        "number": 64,
                        "time": 45.97873259999999,
                        "value": 0
                    },
                    {
                        "number": 64,
                        "time": 46.12766879999999,
                        "value": 1
                    },
                    {
                        "number": 64,
                        "time": 48.534584175,
                        "value": 0
                    },
                    {
                        "number": 64,
                        "time": 48.6808608,
                        "value": 1
                    },
                    {
                        "number": 64,
                        "time": 52.36703175000001,
                        "value": 0
                    },
                    {
                        "number": 64,
                        "time": 52.73671267500001,
                        "value": 1
                    },
                    {
                        "number": 64,
                        "time": 53.635649025000006,
                        "value": 0
                    },
                    {
                        "number": 64,
                        "time": 53.86171290000001,
                        "value": 1
                    },
                    {
                        "number": 64,
                        "time": 54.933521625000004,
                        "value": 0
                    },
                    {
                        "number": 64,
                        "time": 55.138308900000006,
                        "value": 1
                    },
                    {
                        "number": 64,
                        "time": 56.210117625,
                        "value": 0
                    },
                    {
                        "number": 64,
                        "time": 56.452138950000005,
                        "value": 1
                    },
                    {
                        "number": 64,
                        "time": 56.84575605000001,
                        "value": 0
                    },
                    {
                        "number": 64,
                        "time": 57.03458587500001,
                        "value": 1
                    },
                    {
                        "number": 64,
                        "time": 57.465437025000014,
                        "value": 0
                    },
                    {
                        "number": 64,
                        "time": 57.76596900000001,
                        "value": 1
                    },
                    {
                        "number": 64,
                        "time": 58.76065005000001,
                        "value": 0
                    },
                    {
                        "number": 64,
                        "time": 58.968096900000006,
                        "value": 1
                    },
                    {
                        "number": 64,
                        "time": 60.039905625,
                        "value": 0
                    },
                    {
                        "number": 64,
                        "time": 60.281926950000006,
                        "value": 1
                    },
                    {
                        "number": 64,
                        "time": 60.66490575000001,
                        "value": 0
                    },
                    {
                        "number": 64,
                        "time": 60.86437387500001,
                        "value": 1
                    },
                    {
                        "number": 64,
                        "time": 61.31118247500002,
                        "value": 0
                    },
                    {
                        "number": 64,
                        "time": 61.577139975000016,
                        "value": 1
                    },
                    {
                        "number": 64,
                        "time": 61.94682090000001,
                        "value": 0
                    },
                    {
                        "number": 64,
                        "time": 62.159586900000015,
                        "value": 1
                    },
                    {
                        "number": 64,
                        "time": 62.59309762500001,
                        "value": 0
                    },
                    {
                        "number": 64,
                        "time": 62.90958705000001,
                        "value": 1
                    },
                    {
                        "number": 64,
                        "time": 63.867034050000015,
                        "value": 0
                    },
                    {
                        "number": 64,
                        "time": 64.24469370000001,
                        "value": 1
                    },
                    {
                        "number": 64,
                        "time": 65.15426835000002,
                        "value": 0
                    },
                    {
                        "number": 64,
                        "time": 65.44150245000003,
                        "value": 1
                    },
                    {
                        "number": 64,
                        "time": 66.42288562500003,
                        "value": 0
                    },
                    {
                        "number": 64,
                        "time": 66.74735377500004,
                        "value": 1
                    },
                    {
                        "number": 64,
                        "time": 67.69948162500005,
                        "value": 0
                    },
                    {
                        "number": 64,
                        "time": 68.26863067500005,
                        "value": 1
                    },
                    {
                        "number": 64,
                        "time": 68.95480102500005,
                        "value": 0
                    },
                    {
                        "number": 64,
                        "time": 69.21809895000005,
                        "value": 1
                    },
                    {
                        "number": 64,
                        "time": 70.25001405000006,
                        "value": 0
                    },
                    {
                        "number": 64,
                        "time": 70.45746090000006,
                        "value": 1
                    },
                    {
                        "number": 64,
                        "time": 71.52926962500007,
                        "value": 0
                    },
                    {
                        "number": 64,
                        "time": 71.77129095000006,
                        "value": 1
                    },
                    {
                        "number": 64,
                        "time": 72.16490805000005,
                        "value": 0
                    },
                    {
                        "number": 64,
                        "time": 72.35373787500005,
                        "value": 1
                    },
                    {
                        "number": 64,
                        "time": 72.78458902500005,
                        "value": 0
                    },
                    {
                        "number": 64,
                        "time": 73.10373802500004,
                        "value": 1
                    },
                    {
                        "number": 64,
                        "time": 74.07980205000004,
                        "value": 0
                    },
                    {
                        "number": 64,
                        "time": 74.28724890000004,
                        "value": 1
                    },
                    {
                        "number": 64,
                        "time": 75.35905762500005,
                        "value": 0
                    },
                    {
                        "number": 64,
                        "time": 75.60107895000004,
                        "value": 1
                    },
                    {
                        "number": 64,
                        "time": 75.99203647500003,
                        "value": 0
                    },
                    {
                        "number": 64,
                        "time": 76.18352587500003,
                        "value": 1
                    },
                    {
                        "number": 64,
                        "time": 76.63299405000002,
                        "value": 0
                    },
                    {
                        "number": 64,
                        "time": 76.74469620000002,
                        "value": 1
                    },
                    {
                        "number": 64,
                        "time": 77.27395162500002,
                        "value": 0
                    },
                    {
                        "number": 64,
                        "time": 77.44150485000003,
                        "value": 1
                    },
                    {
                        "number": 64,
                        "time": 77.91224962500003,
                        "value": 0
                    },
                    {
                        "number": 64,
                        "time": 78.21012202500003,
                        "value": 1
                    },
                    {
                        "number": 64,
                        "time": 79.17288817500003,
                        "value": 0
                    },
                    {
                        "number": 64,
                        "time": 79.48671802500003,
                        "value": 1
                    },
                    {
                        "number": 64,
                        "time": 80.46544162500004,
                        "value": 0
                    },
                    {
                        "number": 64,
                        "time": 80.80054807500004,
                        "value": 1
                    },
                    {
                        "number": 64,
                        "time": 83.01331447500004,
                        "value": 0
                    },
                    {
                        "number": 64,
                        "time": 83.39363370000004,
                        "value": 1
                    },
                    {
                        "number": 64,
                        "time": 84.27661260000004,
                        "value": 0
                    },
                    {
                        "number": 64,
                        "time": 84.53725095000003,
                        "value": 1
                    },
                    {
                        "number": 64,
                        "time": 86.83512375000001,
                        "value": 0
                    },
                    {
                        "number": 64,
                        "time": 87.146294025,
                        "value": 1
                    },
                    {
                        "number": 64,
                        "time": 88.11703890000001,
                        "value": 0
                    },
                    {
                        "number": 64,
                        "time": 88.64895390000001,
                        "value": 1
                    },
                    {
                        "number": 64,
                        "time": 90.67555005000001,
                        "value": 0
                    },
                    {
                        "number": 64,
                        "time": 91.16491185000001,
                        "value": 1
                    },
                    {
                        "number": 64,
                        "time": 91.91491200000002,
                        "value": 0
                    },
                    {
                        "number": 64,
                        "time": 92.21544397500001,
                        "value": 1
                    },
                    {
                        "number": 64,
                        "time": 93.22874205000001,
                        "value": 0
                    },
                    {
                        "number": 64,
                        "time": 94.5425721,
                        "value": 1
                    },
                    {
                        "number": 64,
                        "time": 97.77129615000001,
                        "value": 0
                    }
                ],
                "67": [
                    {
                        "number": 67,
                        "time": 0,
                        "value": 1
                    }
                ]
            },
            "id": 2,
            "name": "Piano left",
            "instrumentNumber": 0,
            "instrument": "acoustic grand piano",
            "instrumentFamily": "piano",
            "channelNumber": 0,
            "isPercussion": false
        },
        {
            "startTime": 0,
            "duration": 0,
            "length": 0,
            "notes": [],
            "controlChanges": {},
            "id": 3,
            "name": "Chopin: Prelude No.6 in B Minor, Op. 28"
        },
        {
            "startTime": 0,
            "duration": 0,
            "length": 0,
            "notes": [],
            "controlChanges": {},
            "id": 4,
            "name": "Copyright  2002 by Bernd Krueger"
        },
        {
            "startTime": 0,
            "duration": 0,
            "length": 0,
            "notes": [],
            "controlChanges": {},
            "id": 5,
            "name": "http://www.piano-midi.de"
        },
        {
            "startTime": 0,
            "duration": 0,
            "length": 0,
            "notes": [],
            "controlChanges": {},
            "id": 6,
            "name": "Edition: 2014-02-20"
        },
        {
            "startTime": 0,
            "duration": 0,
            "length": 0,
            "notes": [],
            "controlChanges": {
                "7": [
                    {
                        "number": 7,
                        "time": 0,
                        "value": 1
                    }
                ],
                "10": [
                    {
                        "number": 10,
                        "time": 0,
                        "value": 0.5039370078740157
                    }
                ]
            },
            "id": 7,
            "name": "Spur 7"
        },
        {
            "startTime": 0,
            "duration": 0,
            "length": 0,
            "notes": [],
            "controlChanges": {
                "7": [
                    {
                        "number": 7,
                        "time": 0,
                        "value": 1
                    }
                ],
                "10": [
                    {
                        "number": 10,
                        "time": 0,
                        "value": 0.5039370078740157
                    }
                ]
            },
            "id": 8,
            "name": "Spur 8"
        }
    ]
}