{
    "header": {
        "PPQ": 480,
        "timeSignature": [
            4,
            4
        ],
        "bpm": 54.00000540000054,
        "name": "Chopin Nocturne Opus 27 Nr. 1"
    },
    "startTime": 0,
    "duration": 410.5555144999987,
    "tracks": [
        {
            "startTime": 0,
            "duration": 0,
            "length": 0,
            "notes": [],
            "controlChanges": {},
            "id": 0,
            "name": "Chopin Nocturne Opus 27 Nr. 1"
        },
        {
            "startTime": 8.888888,
            "duration": 410.5555144999987,
            "length": 567,
            "notes": [
                {
                    "name": "E5",
                    "midi": 76,
                    "time": 8.888888,
                    "velocity": 0.4094488188976378,
                    "duration": 2.2222220000000004
                },
                {
                    "name": "F5",
                    "midi": 77,
                    "time": 11.11111,
                    "velocity": 0.4015748031496063,
                    "duration": 1.1111109999999993
                },
                {
                    "name": "F5",
                    "midi": 77,
                    "time": 12.222221,
                    "velocity": 0.4251968503937008,
                    "duration": 1.1111109999999993
                },
                {
                    "name": "F5",
                    "midi": 77,
                    "time": 13.333331999999999,
                    "velocity": 0.4409448818897638,
                    "duration": 2.2222220000000004
                },
                {
                    "name": "F#5",
                    "midi": 78,
                    "time": 15.555553999999999,
                    "velocity": 0.4330708661417323,
                    "duration": 3.333332999999998
                },
                {
                    "name": "E5",
                    "midi": 76,
                    "time": 18.888886999999997,
                    "velocity": 0.4330708661417323,
                    "duration": 0.833333249999999
                },
                {
                    "name": "D5",
                    "midi": 74,
                    "time": 19.722220249999996,
                    "velocity": 0.4015748031496063,
                    "duration": 0.2777777499999985
                },
                {
                    "name": "C#5",
                    "midi": 73,
                    "time": 19.999997999999994,
                    "velocity": 0.4015748031496063,
                    "duration": 1.111111000000001
                },
                {
                    "name": "C5",
                    "midi": 72,
                    "time": 21.111108999999995,
                    "velocity": 0.4015748031496063,
                    "duration": 1.111111000000001
                },
                {
                    "name": "C#5",
                    "midi": 73,
                    "time": 22.222219999999997,
                    "velocity": 0.41732283464566927,
                    "duration": 1.111111000000001
                },
                {
                    "name": "G#5",
                    "midi": 80,
                    "time": 23.333330999999998,
                    "velocity": 0.4409448818897638,
                    "duration": 2.2222219999999986
                },
                {
                    "name": "G#5",
                    "midi": 80,
                    "time": 25.555552999999996,
                    "velocity": 0.4251968503937008,
                    "duration": 0.3703703333333337
                },
                {
                    "name": "F#5",
                    "midi": 78,
                    "time": 25.92592333333333,
                    "velocity": 0.4015748031496063,
                    "duration": 0.5555555000000005
                },
                {
                    "name": "E5",
                    "midi": 76,
                    "time": 26.48147883333333,
                    "velocity": 0.3858267716535433,
                    "duration": 0.18518516666666685
                },
                {
                    "name": "E5",
                    "midi": 76,
                    "time": 26.666663999999997,
                    "velocity": 0.41732283464566927,
                    "duration": 2.2222219999999986
                },
                {
                    "name": "E5",
                    "midi": 76,
                    "time": 28.888885999999996,
                    "velocity": 0.4094488188976378,
                    "duration": 1.111111000000001
                },
                {
                    "name": "E5",
                    "midi": 76,
                    "time": 29.999996999999997,
                    "velocity": 0.4409448818897638,
                    "duration": 1.111111000000001
                },
                {
                    "name": "F5",
                    "midi": 77,
                    "time": 31.111107999999998,
                    "velocity": 0.49606299212598426,
                    "duration": 2.2222219999999986
                },
                {
                    "name": "F#5",
                    "midi": 78,
                    "time": 33.33333,
                    "velocity": 0.49606299212598426,
                    "duration": 3.333333000000003
                },
                {
                    "name": "E5",
                    "midi": 76,
                    "time": 36.666663,
                    "velocity": 0.3779527559055118,
                    "duration": 0.8333332500000026
                },
                {
                    "name": "D5",
                    "midi": 74,
                    "time": 37.49999625,
                    "velocity": 0.3543307086614173,
                    "duration": 0.2777777499999985
                },
                {
                    "name": "C#5",
                    "midi": 73,
                    "time": 37.777774,
                    "velocity": 0.33858267716535434,
                    "duration": 1.111111000000001
                },
                {
                    "name": "C5",
                    "midi": 72,
                    "time": 38.888885,
                    "velocity": 0.33070866141732286,
                    "duration": 1.111111000000001
                },
                {
                    "name": "C#5",
                    "midi": 73,
                    "time": 44.44444,
                    "velocity": 0.44881889763779526,
                    "duration": 1.111111000000001
                },
                {
                    "name": "C#6",
                    "midi": 85,
                    "time": 44.44444,
                    "velocity": 0.44881889763779526,
                    "duration": 1.111111000000001
                },
                {
                    "name": "G#5",
                    "midi": 80,
                    "time": 45.555551,
                    "velocity": 0.47244094488188976,
                    "duration": 1.111111000000001
                },
                {
                    "name": "F#5",
                    "midi": 78,
                    "time": 46.666662,
                    "velocity": 0.4645669291338583,
                    "duration": 0.3703703333333337
                },
                {
                    "name": "G#5",
                    "midi": 80,
                    "time": 47.037032333333336,
                    "velocity": 0.4094488188976378,
                    "duration": 0.3703703333333337
                },
                {
                    "name": "F#5",
                    "midi": 78,
                    "time": 47.40740266666667,
                    "velocity": 0.4094488188976378,
                    "duration": 0.3703703333333337
                },
                {
                    "name": "E5",
                    "midi": 76,
                    "time": 47.777773,
                    "velocity": 0.4409448818897638,
                    "duration": 0.8333332500000026
                },
                {
                    "name": "D#5",
                    "midi": 75,
                    "time": 48.611106250000006,
                    "velocity": 0.4251968503937008,
                    "duration": 0.2777777499999985
                },
                {
                    "name": "C#5",
                    "midi": 73,
                    "time": 48.888884000000004,
                    "velocity": 0.4881889763779528,
                    "duration": 2.222222000000002
                },
                {
                    "name": "D#5",
                    "midi": 75,
                    "time": 51.11110600000001,
                    "velocity": 0.44881889763779526,
                    "duration": 2.222222000000002
                },
                {
                    "name": "E5",
                    "midi": 76,
                    "time": 53.33332800000001,
                    "velocity": 0.4881889763779528,
                    "duration": 0.8333332500000026
                },
                {
                    "name": "F#5",
                    "midi": 78,
                    "time": 54.16666125000001,
                    "velocity": 0.49606299212598426,
                    "duration": 0.2777777499999985
                },
                {
                    "name": "G#5",
                    "midi": 80,
                    "time": 54.44443900000001,
                    "velocity": 0.5118110236220472,
                    "duration": 1.111111000000001
                },
                {
                    "name": "F#5",
                    "midi": 78,
                    "time": 55.55555000000001,
                    "velocity": 0.4566929133858268,
                    "duration": 1.111111000000001
                },
                {
                    "name": "D5",
                    "midi": 74,
                    "time": 56.66666100000001,
                    "velocity": 0.4409448818897638,
                    "duration": 1.111111000000001
                },
                {
                    "name": "C#5",
                    "midi": 73,
                    "time": 57.77777200000001,
                    "velocity": 0.4645669291338583,
                    "duration": 2.222222000000002
                },
                {
                    "name": "G#4",
                    "midi": 68,
                    "time": 59.999994000000015,
                    "velocity": 0.4015748031496063,
                    "duration": 1.111111000000001
                },
                {
                    "name": "G#5",
                    "midi": 80,
                    "time": 61.111105000000016,
                    "velocity": 0.4645669291338583,
                    "duration": 1.111111000000001
                },
                {
                    "name": "C#6",
                    "midi": 85,
                    "time": 62.22221600000002,
                    "velocity": 0.47244094488188976,
                    "duration": 1.111111000000001
                },
                {
                    "name": "G#5",
                    "midi": 80,
                    "time": 63.33332700000002,
                    "velocity": 0.4645669291338583,
                    "duration": 1.111111000000001
                },
                {
                    "name": "F#5",
                    "midi": 78,
                    "time": 64.44443800000002,
                    "velocity": 0.4566929133858268,
                    "duration": 0.3703703333333266
                },
                {
                    "name": "G#5",
                    "midi": 80,
                    "time": 64.81480833333335,
                    "velocity": 0.4094488188976378,
                    "duration": 0.3703703333333266
                },
                {
                    "name": "F#5",
                    "midi": 78,
                    "time": 65.18517866666667,
                    "velocity": 0.4094488188976378,
                    "duration": 0.3703703333333266
                },
                {
                    "name": "E5",
                    "midi": 76,
                    "time": 65.555549,
                    "velocity": 0.4409448818897638,
                    "duration": 0.8333332499999955
                },
                {
                    "name": "D#5",
                    "midi": 75,
                    "time": 66.38888225,
                    "velocity": 0.4251968503937008,
                    "duration": 0.2777777499999985
                },
                {
                    "name": "C#5",
                    "midi": 73,
                    "time": 66.66666,
                    "velocity": 0.4881889763779528,
                    "duration": 2.222222000000002
                },
                {
                    "name": "D#5",
                    "midi": 75,
                    "time": 68.888882,
                    "velocity": 0.44881889763779526,
                    "duration": 2.222222000000002
                },
                {
                    "name": "E5",
                    "midi": 76,
                    "time": 71.111104,
                    "velocity": 0.4881889763779528,
                    "duration": 0.8333332499999955
                },
                {
                    "name": "F#5",
                    "midi": 78,
                    "time": 71.94443725,
                    "velocity": 0.49606299212598426,
                    "duration": 0.2777777499999985
                },
                {
                    "name": "G#5",
                    "midi": 80,
                    "time": 72.22221499999999,
                    "velocity": 0.5118110236220472,
                    "duration": 1.111110999999994
                },
                {
                    "name": "F#5",
                    "midi": 78,
                    "time": 73.33332599999999,
                    "velocity": 0.4566929133858268,
                    "duration": 1.111110999999994
                },
                {
                    "name": "D5",
                    "midi": 74,
                    "time": 74.44443699999998,
                    "velocity": 0.4409448818897638,
                    "duration": 1.111110999999994
                },
                {
                    "name": "C#5",
                    "midi": 73,
                    "time": 75.55554799999997,
                    "velocity": 0.4881889763779528,
                    "duration": 4.444444000000004
                },
                {
                    "name": "E5",
                    "midi": 76,
                    "time": 79.99999199999998,
                    "velocity": 0.4251968503937008,
                    "duration": 2.222222000000002
                },
                {
                    "name": "E5",
                    "midi": 76,
                    "time": 82.22221399999998,
                    "velocity": 0.4015748031496063,
                    "duration": 1.111110999999994
                },
                {
                    "name": "E5",
                    "midi": 76,
                    "time": 83.33332499999997,
                    "velocity": 0.4251968503937008,
                    "duration": 1.111110999999994
                },
                {
                    "name": "B4",
                    "midi": 71,
                    "time": 84.44443599999997,
                    "velocity": 0.3779527559055118,
                    "duration": 1.111110999999994
                },
                {
                    "name": "F5",
                    "midi": 77,
                    "time": 84.44443599999997,
                    "velocity": 0.4409448818897638,
                    "duration": 2.222221999999988
                },
                {
                    "name": "C#5",
                    "midi": 73,
                    "time": 85.55554699999996,
                    "velocity": 0.41732283464566927,
                    "duration": 0.8333332499999955
                },
                {
                    "name": "B4",
                    "midi": 71,
                    "time": 86.38888024999996,
                    "velocity": 0.3858267716535433,
                    "duration": 0.2777777499999985
                },
                {
                    "name": "B4",
                    "midi": 71,
                    "time": 86.66665799999996,
                    "velocity": 0.3937007874015748,
                    "duration": 1.111110999999994
                },
                {
                    "name": "F#5",
                    "midi": 78,
                    "time": 86.66665799999996,
                    "velocity": 0.4330708661417323,
                    "duration": 3.333332999999982
                },
                {
                    "name": "A4",
                    "midi": 69,
                    "time": 87.77776899999995,
                    "velocity": 0.4015748031496063,
                    "duration": 0.8333332499999955
                },
                {
                    "name": "G#4",
                    "midi": 68,
                    "time": 88.61110224999995,
                    "velocity": 0.3779527559055118,
                    "duration": 0.2777777499999985
                },
                {
                    "name": "F#4",
                    "midi": 66,
                    "time": 88.88887999999994,
                    "velocity": 0.3937007874015748,
                    "duration": 4.444443999999976
                },
                {
                    "name": "E5",
                    "midi": 76,
                    "time": 89.99999099999994,
                    "velocity": 0.4409448818897638,
                    "duration": 0.8333332499999955
                },
                {
                    "name": "D5",
                    "midi": 74,
                    "time": 90.83332424999993,
                    "velocity": 0.4330708661417323,
                    "duration": 0.2777777499999985
                },
                {
                    "name": "C#5",
                    "midi": 73,
                    "time": 91.11110199999993,
                    "velocity": 0.4251968503937008,
                    "duration": 1.111110999999994
                },
                {
                    "name": "C5",
                    "midi": 72,
                    "time": 92.22221299999993,
                    "velocity": 0.4015748031496063,
                    "duration": 1.111110999999994
                },
                {
                    "name": "E4",
                    "midi": 64,
                    "time": 93.33332399999992,
                    "velocity": 0.3543307086614173,
                    "duration": 1.111110999999994
                },
                {
                    "name": "C#5",
                    "midi": 73,
                    "time": 93.33332399999992,
                    "velocity": 0.4251968503937008,
                    "duration": 1.111110999999994
                },
                {
                    "name": "G#5",
                    "midi": 80,
                    "time": 94.44443499999991,
                    "velocity": 0.47244094488188976,
                    "duration": 2.2222220000000164
                },
                {
                    "name": "A4",
                    "midi": 69,
                    "time": 95.55554599999991,
                    "velocity": 0.3228346456692913,
                    "duration": 0.1851851666666704
                },
                {
                    "name": "B4",
                    "midi": 71,
                    "time": 95.77776819999991,
                    "velocity": 0.30708661417322836,
                    "duration": 0.1851851666666704
                },
                {
                    "name": "A4",
                    "midi": 69,
                    "time": 95.99999039999992,
                    "velocity": 0.30708661417322836,
                    "duration": 0.1851851666666704
                },
                {
                    "name": "G#4",
                    "midi": 68,
                    "time": 96.22221259999992,
                    "velocity": 0.3228346456692913,
                    "duration": 0.1851851666666704
                },
                {
                    "name": "A4",
                    "midi": 69,
                    "time": 96.44443479999993,
                    "velocity": 0.30708661417322836,
                    "duration": 0.1851851666666704
                },
                {
                    "name": "F#5",
                    "midi": 78,
                    "time": 96.66665699999993,
                    "velocity": 0.4251968503937008,
                    "duration": 1.111110999999994
                },
                {
                    "name": "B4",
                    "midi": 71,
                    "time": 96.66665699999993,
                    "velocity": 0.33070866141732286,
                    "duration": 0.8333332499999955
                },
                {
                    "name": "F#4",
                    "midi": 66,
                    "time": 97.49999024999993,
                    "velocity": 0.31496062992125984,
                    "duration": 0.2777777499999985
                },
                {
                    "name": "G#4",
                    "midi": 68,
                    "time": 97.77776799999992,
                    "velocity": 0.36220472440944884,
                    "duration": 4.44444399999999
                },
                {
                    "name": "E5",
                    "midi": 76,
                    "time": 97.77776799999992,
                    "velocity": 0.4251968503937008,
                    "duration": 2.222222000000002
                },
                {
                    "name": "E5",
                    "midi": 76,
                    "time": 99.99998999999993,
                    "velocity": 0.4251968503937008,
                    "duration": 1.111110999999994
                },
                {
                    "name": "E5",
                    "midi": 76,
                    "time": 101.11110099999992,
                    "velocity": 0.4566929133858268,
                    "duration": 1.111110999999994
                },
                {
                    "name": "B4",
                    "midi": 71,
                    "time": 102.22221199999991,
                    "velocity": 0.4330708661417323,
                    "duration": 1.111110999999994
                },
                {
                    "name": "F5",
                    "midi": 77,
                    "time": 102.22221199999991,
                    "velocity": 0.4881889763779528,
                    "duration": 2.222221999999988
                },
                {
                    "name": "C#5",
                    "midi": 73,
                    "time": 103.33332299999991,
                    "velocity": 0.4409448818897638,
                    "duration": 0.8333332499999955
                },
                {
                    "name": "B4",
                    "midi": 71,
                    "time": 104.1666562499999,
                    "velocity": 0.4015748031496063,
                    "duration": 0.2777777499999985
                },
                {
                    "name": "B4",
                    "midi": 71,
                    "time": 104.4444339999999,
                    "velocity": 0.4251968503937008,
                    "duration": 1.111110999999994
                },
                {
                    "name": "F#5",
                    "midi": 78,
                    "time": 104.4444339999999,
                    "velocity": 0.47244094488188976,
                    "duration": 3.333332999999982
                },
                {
                    "name": "A4",
                    "midi": 69,
                    "time": 105.5555449999999,
                    "velocity": 0.44881889763779526,
                    "duration": 0.8333332499999955
                },
                {
                    "name": "G#4",
                    "midi": 68,
                    "time": 106.38887824999989,
                    "velocity": 0.4094488188976378,
                    "duration": 0.2777777499999985
                },
                {
                    "name": "F#4",
                    "midi": 66,
                    "time": 106.66665599999989,
                    "velocity": 0.41732283464566927,
                    "duration": 4.444443999999976
                },
                {
                    "name": "E5",
                    "midi": 76,
                    "time": 107.77776699999988,
                    "velocity": 0.4409448818897638,
                    "duration": 0.8333332499999955
                },
                {
                    "name": "D5",
                    "midi": 74,
                    "time": 108.61110024999988,
                    "velocity": 0.4330708661417323,
                    "duration": 0.2777777499999985
                },
                {
                    "name": "C#5",
                    "midi": 73,
                    "time": 108.88887799999988,
                    "velocity": 0.4251968503937008,
                    "duration": 1.111110999999994
                },
                {
                    "name": "C5",
                    "midi": 72,
                    "time": 109.99998899999987,
                    "velocity": 0.4094488188976378,
                    "duration": 3.333332999999982
                },
                {
                    "name": "F#4",
                    "midi": 66,
                    "time": 111.11109999999987,
                    "velocity": 0.3228346456692913,
                    "duration": 1.111110999999994
                },
                {
                    "name": "E4",
                    "midi": 64,
                    "time": 112.22221099999986,
                    "velocity": 0.3543307086614173,
                    "duration": 0.8333332499999955
                },
                {
                    "name": "D4",
                    "midi": 62,
                    "time": 113.05554424999985,
                    "velocity": 0.2677165354330709,
                    "duration": 0.2777777499999985
                },
                {
                    "name": "C#4",
                    "midi": 61,
                    "time": 113.33332199999985,
                    "velocity": 0.31496062992125984,
                    "duration": 1.111110999999994
                },
                {
                    "name": "C4",
                    "midi": 60,
                    "time": 114.44443299999985,
                    "velocity": 0.28346456692913385,
                    "duration": 1.111110999999994
                },
                {
                    "name": "G#3",
                    "midi": 56,
                    "time": 124.44443199999984,
                    "velocity": 0.25196850393700787,
                    "duration": 1.6666665000000052
                },
                {
                    "name": "D#4",
                    "midi": 63,
                    "time": 124.44443199999984,
                    "velocity": 0.25196850393700787,
                    "duration": 3.333332999999996
                },
                {
                    "name": "F#4",
                    "midi": 66,
                    "time": 124.44443199999984,
                    "velocity": 0.25196850393700787,
                    "duration": 3.333332999999996
                },
                {
                    "name": "G#4",
                    "midi": 68,
                    "time": 124.44443199999984,
                    "velocity": 0.2992125984251969,
                    "duration": 1.6666665000000052
                },
                {
                    "name": "G#3",
                    "midi": 56,
                    "time": 126.11109849999984,
                    "velocity": 0.25984251968503935,
                    "duration": 0.555555499999997
                },
                {
                    "name": "G#4",
                    "midi": 68,
                    "time": 126.11109849999984,
                    "velocity": 0.2992125984251969,
                    "duration": 0.555555499999997
                },
                {
                    "name": "G#3",
                    "midi": 56,
                    "time": 126.66665399999984,
                    "velocity": 0.2677165354330709,
                    "duration": 1.111110999999994
                },
                {
                    "name": "G#4",
                    "midi": 68,
                    "time": 126.66665399999984,
                    "velocity": 0.3228346456692913,
                    "duration": 1.111110999999994
                },
                {
                    "name": "G#3",
                    "midi": 56,
                    "time": 127.77776499999983,
                    "velocity": 0.2677165354330709,
                    "duration": 3.333332999999996
                },
                {
                    "name": "C#4",
                    "midi": 61,
                    "time": 127.77776499999983,
                    "velocity": 0.3228346456692913,
                    "duration": 1.6666665000000052
                },
                {
                    "name": "G#4",
                    "midi": 68,
                    "time": 127.77776499999983,
                    "velocity": 0.3228346456692913,
                    "duration": 3.333332999999996
                },
                {
                    "name": "E4",
                    "midi": 64,
                    "time": 129.44443149999984,
                    "velocity": 0.2992125984251969,
                    "duration": 0.555555499999997
                },
                {
                    "name": "C#4",
                    "midi": 61,
                    "time": 129.99998699999983,
                    "velocity": 0.30708661417322836,
                    "duration": 1.111110999999994
                },
                {
                    "name": "G#3",
                    "midi": 56,
                    "time": 131.11109799999983,
                    "velocity": 0.30708661417322836,
                    "duration": 1.666666499999991
                },
                {
                    "name": "C4",
                    "midi": 60,
                    "time": 131.11109799999983,
                    "velocity": 0.30708661417322836,
                    "duration": 3.333332999999982
                },
                {
                    "name": "G#4",
                    "midi": 68,
                    "time": 131.11109799999983,
                    "velocity": 0.3700787401574803,
                    "duration": 1.666666499999991
                },
                {
                    "name": "G#3",
                    "midi": 56,
                    "time": 132.77776449999982,
                    "velocity": 0.2992125984251969,
                    "duration": 0.555555499999997
                },
                {
                    "name": "G#4",
                    "midi": 68,
                    "time": 132.77776449999982,
                    "velocity": 0.3543307086614173,
                    "duration": 0.555555499999997
                },
                {
                    "name": "G#3",
                    "midi": 56,
                    "time": 133.33331999999982,
                    "velocity": 0.31496062992125984,
                    "duration": 1.111110999999994
                },
                {
                    "name": "G#4",
                    "midi": 68,
                    "time": 133.33331999999982,
                    "velocity": 0.3779527559055118,
                    "duration": 1.111110999999994
                },
                {
                    "name": "G#3",
                    "midi": 56,
                    "time": 134.4444309999998,
                    "velocity": 0.31496062992125984,
                    "duration": 3.333332999999982
                },
                {
                    "name": "C#4",
                    "midi": 61,
                    "time": 134.4444309999998,
                    "velocity": 0.3779527559055118,
                    "duration": 1.666666499999991
                },
                {
                    "name": "G#4",
                    "midi": 68,
                    "time": 134.4444309999998,
                    "velocity": 0.3779527559055118,
                    "duration": 3.333332999999982
                },
                {
                    "name": "E4",
                    "midi": 64,
                    "time": 136.1110974999998,
                    "velocity": 0.3543307086614173,
                    "duration": 0.555555499999997
                },
                {
                    "name": "C#4",
                    "midi": 61,
                    "time": 136.6666529999998,
                    "velocity": 0.3543307086614173,
                    "duration": 1.111110999999994
                },
                {
                    "name": "C#4",
                    "midi": 61,
                    "time": 137.7777639999998,
                    "velocity": 0.3543307086614173,
                    "duration": 1.666666499999991
                },
                {
                    "name": "G#4",
                    "midi": 68,
                    "time": 137.7777639999998,
                    "velocity": 0.3543307086614173,
                    "duration": 3.333332999999982
                },
                {
                    "name": "B4",
                    "midi": 71,
                    "time": 137.7777639999998,
                    "velocity": 0.3543307086614173,
                    "duration": 3.333332999999982
                },
                {
                    "name": "C#5",
                    "midi": 73,
                    "time": 137.7777639999998,
                    "velocity": 0.4330708661417323,
                    "duration": 1.666666499999991
                },
                {
                    "name": "C#4",
                    "midi": 61,
                    "time": 139.44443049999978,
                    "velocity": 0.3543307086614173,
                    "duration": 0.555555499999997
                },
                {
                    "name": "C#5",
                    "midi": 73,
                    "time": 139.44443049999978,
                    "velocity": 0.41732283464566927,
                    "duration": 0.555555499999997
                },
                {
                    "name": "C#4",
                    "midi": 61,
                    "time": 139.99998599999978,
                    "velocity": 0.36220472440944884,
                    "duration": 1.111110999999994
                },
                {
                    "name": "C#5",
                    "midi": 73,
                    "time": 139.99998599999978,
                    "velocity": 0.4330708661417323,
                    "duration": 1.111110999999994
                },
                {
                    "name": "C#4",
                    "midi": 61,
                    "time": 141.11109699999977,
                    "velocity": 0.36220472440944884,
                    "duration": 3.333332999999982
                },
                {
                    "name": "F#4",
                    "midi": 66,
                    "time": 141.11109699999977,
                    "velocity": 0.44881889763779526,
                    "duration": 1.666666499999991
                },
                {
                    "name": "C#5",
                    "midi": 73,
                    "time": 141.11109699999977,
                    "velocity": 0.44881889763779526,
                    "duration": 3.333332999999982
                },
                {
                    "name": "A4",
                    "midi": 69,
                    "time": 142.77776349999976,
                    "velocity": 0.4409448818897638,
                    "duration": 0.555555499999997
                },
                {
                    "name": "F#4",
                    "midi": 66,
                    "time": 143.33331899999976,
                    "velocity": 0.44881889763779526,
                    "duration": 1.111110999999994
                },
                {
                    "name": "C#4",
                    "midi": 61,
                    "time": 144.44442999999976,
                    "velocity": 0.4409448818897638,
                    "duration": 1.666666499999991
                },
                {
                    "name": "F4",
                    "midi": 65,
                    "time": 144.44442999999976,
                    "velocity": 0.4409448818897638,
                    "duration": 3.333332999999982
                },
                {
                    "name": "C#5",
                    "midi": 73,
                    "time": 144.44442999999976,
                    "velocity": 0.5196850393700787,
                    "duration": 1.666666499999991
                },
                {
                    "name": "C#4",
                    "midi": 61,
                    "time": 146.11109649999975,
                    "velocity": 0.4251968503937008,
                    "duration": 0.555555499999997
                },
                {
                    "name": "C#5",
                    "midi": 73,
                    "time": 146.11109649999975,
                    "velocity": 0.5118110236220472,
                    "duration": 0.555555499999997
                },
                {
                    "name": "C#4",
                    "midi": 61,
                    "time": 146.66665199999974,
                    "velocity": 0.44881889763779526,
                    "duration": 1.111110999999994
                },
                {
                    "name": "C#5",
                    "midi": 73,
                    "time": 146.66665199999974,
                    "velocity": 0.5275590551181102,
                    "duration": 1.111110999999994
                },
                {
                    "name": "C#4",
                    "midi": 61,
                    "time": 147.77776299999974,
                    "velocity": 0.4566929133858268,
                    "duration": 3.333332999999982
                },
                {
                    "name": "F#4",
                    "midi": 66,
                    "time": 147.77776299999974,
                    "velocity": 0.5433070866141733,
                    "duration": 1.666666499999991
                },
                {
                    "name": "C#5",
                    "midi": 73,
                    "time": 147.77776299999974,
                    "velocity": 0.5433070866141733,
                    "duration": 3.333332999999982
                },
                {
                    "name": "A4",
                    "midi": 69,
                    "time": 149.44442949999973,
                    "velocity": 0.5590551181102362,
                    "duration": 0.555555499999997
                },
                {
                    "name": "F#4",
                    "midi": 66,
                    "time": 149.99998499999973,
                    "velocity": 0.5748031496062992,
                    "duration": 1.111110999999994
                },
                {
                    "name": "G#4",
                    "midi": 68,
                    "time": 151.11109599999972,
                    "velocity": 0.5196850393700787,
                    "duration": 1.9444442500000036
                },
                {
                    "name": "D#5",
                    "midi": 75,
                    "time": 151.11109599999972,
                    "velocity": 0.5196850393700787,
                    "duration": 3.3333330000000103
                },
                {
                    "name": "F#5",
                    "midi": 78,
                    "time": 151.11109599999972,
                    "velocity": 0.5196850393700787,
                    "duration": 3.3333330000000103
                },
                {
                    "name": "G#5",
                    "midi": 80,
                    "time": 151.11109599999972,
                    "velocity": 0.6141732283464567,
                    "duration": 1.9444442500000036
                },
                {
                    "name": "G#4",
                    "midi": 68,
                    "time": 153.05554024999972,
                    "velocity": 0.48031496062992124,
                    "duration": 0.2777777500000127
                },
                {
                    "name": "G#5",
                    "midi": 80,
                    "time": 153.05554024999972,
                    "velocity": 0.5826771653543307,
                    "duration": 0.2777777500000127
                },
                {
                    "name": "G#4",
                    "midi": 68,
                    "time": 153.33331799999974,
                    "velocity": 0.5196850393700787,
                    "duration": 1.111110999999994
                },
                {
                    "name": "G#5",
                    "midi": 80,
                    "time": 153.33331799999974,
                    "velocity": 0.6141732283464567,
                    "duration": 1.111110999999994
                },
                {
                    "name": "G#4",
                    "midi": 68,
                    "time": 154.44442899999973,
                    "velocity": 0.5196850393700787,
                    "duration": 3.3333330000000103
                },
                {
                    "name": "C#5",
                    "midi": 73,
                    "time": 154.44442899999973,
                    "velocity": 0.5196850393700787,
                    "duration": 1.9444442500000036
                },
                {
                    "name": "G#5",
                    "midi": 80,
                    "time": 154.44442899999973,
                    "velocity": 0.6141732283464567,
                    "duration": 3.3333330000000103
                },
                {
                    "name": "E5",
                    "midi": 76,
                    "time": 156.38887324999973,
                    "velocity": 0.6220472440944882,
                    "duration": 0.2777777500000127
                },
                {
                    "name": "C#5",
                    "midi": 73,
                    "time": 156.66665099999975,
                    "velocity": 0.6220472440944882,
                    "duration": 1.111110999999994
                },
                {
                    "name": "G#4",
                    "midi": 68,
                    "time": 157.77776199999974,
                    "velocity": 0.5196850393700787,
                    "duration": 1.9444442500000036
                },
                {
                    "name": "C5",
                    "midi": 72,
                    "time": 157.77776199999974,
                    "velocity": 0.5196850393700787,
                    "duration": 3.3333330000000103
                },
                {
                    "name": "G#5",
                    "midi": 80,
                    "time": 157.77776199999974,
                    "velocity": 0.6141732283464567,
                    "duration": 1.9444442500000036
                },
                {
                    "name": "G#4",
                    "midi": 68,
                    "time": 159.72220624999974,
                    "velocity": 0.48031496062992124,
                    "duration": 0.2777777500000127
                },
                {
                    "name": "G#5",
                    "midi": 80,
                    "time": 159.72220624999974,
                    "velocity": 0.5826771653543307,
                    "duration": 0.2777777500000127
                },
                {
                    "name": "G#4",
                    "midi": 68,
                    "time": 159.99998399999976,
                    "velocity": 0.5196850393700787,
                    "duration": 1.111110999999994
                },
                {
                    "name": "G#5",
                    "midi": 80,
                    "time": 159.99998399999976,
                    "velocity": 0.6141732283464567,
                    "duration": 1.111110999999994
                },
                {
                    "name": "G#4",
                    "midi": 68,
                    "time": 161.11109499999975,
                    "velocity": 0.5196850393700787,
                    "duration": 3.3333330000000103
                },
                {
                    "name": "C#5",
                    "midi": 73,
                    "time": 161.11109499999975,
                    "velocity": 0.6141732283464567,
                    "duration": 1.9444442500000036
                },
                {
                    "name": "G#5",
                    "midi": 80,
                    "time": 161.11109499999975,
                    "velocity": 0.6141732283464567,
                    "duration": 3.3333330000000103
                },
                {
                    "name": "E5",
                    "midi": 76,
                    "time": 163.05553924999975,
                    "velocity": 0.6220472440944882,
                    "duration": 0.2777777500000127
                },
                {
                    "name": "C#5",
                    "midi": 73,
                    "time": 163.33331699999977,
                    "velocity": 0.6220472440944882,
                    "duration": 1.111110999999994
                },
                {
                    "name": "C#5",
                    "midi": 73,
                    "time": 164.44442799999976,
                    "velocity": 0.5433070866141733,
                    "duration": 1.9444442500000036
                },
                {
                    "name": "G#5",
                    "midi": 80,
                    "time": 164.44442799999976,
                    "velocity": 0.5433070866141733,
                    "duration": 3.3333330000000387
                },
                {
                    "name": "B5",
                    "midi": 83,
                    "time": 164.44442799999976,
                    "velocity": 0.5433070866141733,
                    "duration": 3.3333330000000387
                },
                {
                    "name": "C#6",
                    "midi": 85,
                    "time": 164.44442799999976,
                    "velocity": 0.6299212598425197,
                    "duration": 1.9444442500000036
                },
                {
                    "name": "C#5",
                    "midi": 73,
                    "time": 166.38887224999976,
                    "velocity": 0.41732283464566927,
                    "duration": 0.2777777500000127
                },
                {
                    "name": "C#6",
                    "midi": 85,
                    "time": 166.38887224999976,
                    "velocity": 0.6141732283464567,
                    "duration": 0.2777777500000127
                },
                {
                    "name": "C#5",
                    "midi": 73,
                    "time": 166.66664999999978,
                    "velocity": 0.4645669291338583,
                    "duration": 0.32407404166667675
                },
                {
                    "name": "C#6",
                    "midi": 85,
                    "time": 166.66664999999978,
                    "velocity": 0.5590551181102362,
                    "duration": 0.32407404166667675
                },
                {
                    "name": "C#5",
                    "midi": 73,
                    "time": 167.03702033333312,
                    "velocity": 0.4881889763779528,
                    "duration": 0.32407404166667675
                },
                {
                    "name": "C#6",
                    "midi": 85,
                    "time": 167.03702033333312,
                    "velocity": 0.5748031496062992,
                    "duration": 0.32407404166667675
                },
                {
                    "name": "C#5",
                    "midi": 73,
                    "time": 167.40739066666646,
                    "velocity": 0.5354330708661418,
                    "duration": 0.32407404166667675
                },
                {
                    "name": "C#6",
                    "midi": 85,
                    "time": 167.40739066666646,
                    "velocity": 0.6299212598425197,
                    "duration": 0.32407404166667675
                },
                {
                    "name": "C#5",
                    "midi": 73,
                    "time": 167.7777609999998,
                    "velocity": 0.5590551181102362,
                    "duration": 3.3333330000000103
                },
                {
                    "name": "F#5",
                    "midi": 78,
                    "time": 167.7777609999998,
                    "velocity": 0.5905511811023622,
                    "duration": 1.9444442500000036
                },
                {
                    "name": "C#6",
                    "midi": 85,
                    "time": 167.7777609999998,
                    "velocity": 0.6456692913385826,
                    "duration": 3.3333330000000103
                },
                {
                    "name": "A5",
                    "midi": 81,
                    "time": 169.7222052499998,
                    "velocity": 0.6614173228346457,
                    "duration": 0.2777777500000127
                },
                {
                    "name": "F#5",
                    "midi": 78,
                    "time": 169.99998299999982,
                    "velocity": 0.6614173228346457,
                    "duration": 1.111110999999994
                },
                {
                    "name": "C#5",
                    "midi": 73,
                    "time": 171.1110939999998,
                    "velocity": 0.6220472440944882,
                    "duration": 1.4814813333333348
                },
                {
                    "name": "F5",
                    "midi": 77,
                    "time": 171.1110939999998,
                    "velocity": 0.6220472440944882,
                    "duration": 3.3333329999998966
                },
                {
                    "name": "C#6",
                    "midi": 85,
                    "time": 171.1110939999998,
                    "velocity": 0.7322834645669292,
                    "duration": 1.4814813333333348
                },
                {
                    "name": "C#5",
                    "midi": 73,
                    "time": 172.59257533333314,
                    "velocity": 0.4645669291338583,
                    "duration": 0.1851851666666562
                },
                {
                    "name": "C#6",
                    "midi": 85,
                    "time": 172.59257533333314,
                    "velocity": 0.5590551181102362,
                    "duration": 0.1851851666666562
                },
                {
                    "name": "C#5",
                    "midi": 73,
                    "time": 172.96294566666646,
                    "velocity": 0.48031496062992124,
                    "duration": 0.1851851666666562
                },
                {
                    "name": "C#6",
                    "midi": 85,
                    "time": 172.96294566666646,
                    "velocity": 0.5590551181102362,
                    "duration": 0.1851851666666562
                },
                {
                    "name": "C#5",
                    "midi": 73,
                    "time": 173.33331599999977,
                    "velocity": 0.49606299212598426,
                    "duration": 0.1851851666666562
                },
                {
                    "name": "C#6",
                    "midi": 85,
                    "time": 173.33331599999977,
                    "velocity": 0.5748031496062992,
                    "duration": 0.1851851666666562
                },
                {
                    "name": "C#5",
                    "midi": 73,
                    "time": 173.70368633333308,
                    "velocity": 0.49606299212598426,
                    "duration": 0.1851851666666562
                },
                {
                    "name": "C#6",
                    "midi": 85,
                    "time": 173.70368633333308,
                    "velocity": 0.5905511811023622,
                    "duration": 0.1851851666666562
                },
                {
                    "name": "C#5",
                    "midi": 73,
                    "time": 174.0740566666664,
                    "velocity": 0.5039370078740157,
                    "duration": 0.1851851666666562
                },
                {
                    "name": "C#6",
                    "midi": 85,
                    "time": 174.0740566666664,
                    "velocity": 0.6141732283464567,
                    "duration": 0.1851851666666562
                },
                {
                    "name": "C#5",
                    "midi": 73,
                    "time": 174.4444269999997,
                    "velocity": 0.6220472440944882,
                    "duration": 3.3333330000000103
                },
                {
                    "name": "F#5",
                    "midi": 78,
                    "time": 174.4444269999997,
                    "velocity": 0.7322834645669292,
                    "duration": 1.9444442500000036
                },
                {
                    "name": "C#6",
                    "midi": 85,
                    "time": 174.4444269999997,
                    "velocity": 0.7322834645669292,
                    "duration": 3.3333330000000103
                },
                {
                    "name": "A5",
                    "midi": 81,
                    "time": 176.3888712499997,
                    "velocity": 0.7086614173228346,
                    "duration": 0.2777777500000127
                },
                {
                    "name": "F#5",
                    "midi": 78,
                    "time": 176.66664899999972,
                    "velocity": 0.7086614173228346,
                    "duration": 1.111110999999994
                },
                {
                    "name": "G5",
                    "midi": 79,
                    "time": 177.77775999999972,
                    "velocity": 0.6929133858267716,
                    "duration": 1.9444442500000036
                },
                {
                    "name": "E5",
                    "midi": 76,
                    "time": 177.77775999999972,
                    "velocity": 0.6929133858267716,
                    "duration": 1.9444442500000036
                },
                {
                    "name": "C#6",
                    "midi": 85,
                    "time": 177.77775999999972,
                    "velocity": 0.6929133858267716,
                    "duration": 1.9444442500000036
                },
                {
                    "name": "E6",
                    "midi": 88,
                    "time": 177.77775999999972,
                    "velocity": 0.8110236220472441,
                    "duration": 1.9444442500000036
                },
                {
                    "name": "E5",
                    "midi": 76,
                    "time": 179.72220424999972,
                    "velocity": 0.6377952755905512,
                    "duration": 0.2777777500000127
                },
                {
                    "name": "G5",
                    "midi": 79,
                    "time": 179.72220424999972,
                    "velocity": 0.6377952755905512,
                    "duration": 0.2777777500000127
                },
                {
                    "name": "C#6",
                    "midi": 85,
                    "time": 179.72220424999972,
                    "velocity": 0.6614173228346457,
                    "duration": 0.2777777500000127
                },
                {
                    "name": "E6",
                    "midi": 88,
                    "time": 179.72220424999972,
                    "velocity": 0.7795275590551181,
                    "duration": 0.2777777500000127
                },
                {
                    "name": "E5",
                    "midi": 76,
                    "time": 179.99998199999973,
                    "velocity": 0.6850393700787402,
                    "duration": 1.111110999999994
                },
                {
                    "name": "G5",
                    "midi": 79,
                    "time": 179.99998199999973,
                    "velocity": 0.6850393700787402,
                    "duration": 1.111110999999994
                },
                {
                    "name": "C#6",
                    "midi": 85,
                    "time": 179.99998199999973,
                    "velocity": 0.6850393700787402,
                    "duration": 1.111110999999994
                },
                {
                    "name": "E6",
                    "midi": 88,
                    "time": 179.99998199999973,
                    "velocity": 0.8031496062992126,
                    "duration": 1.111110999999994
                },
                {
                    "name": "E5",
                    "midi": 76,
                    "time": 181.11109299999973,
                    "velocity": 0.6299212598425197,
                    "duration": 1.111110999999994
                },
                {
                    "name": "G#5",
                    "midi": 80,
                    "time": 181.11109299999973,
                    "velocity": 0.7480314960629921,
                    "duration": 1.111110999999994
                },
                {
                    "name": "E6",
                    "midi": 88,
                    "time": 181.11109299999973,
                    "velocity": 0.7480314960629921,
                    "duration": 1.111110999999994
                },
                {
                    "name": "B5",
                    "midi": 83,
                    "time": 182.22220399999972,
                    "velocity": 0.7165354330708661,
                    "duration": 1.111110999999994
                },
                {
                    "name": "G#5",
                    "midi": 80,
                    "time": 182.22220399999972,
                    "velocity": 0.7165354330708661,
                    "duration": 1.111110999999994
                },
                {
                    "name": "E5",
                    "midi": 76,
                    "time": 182.22220399999972,
                    "velocity": 0.5984251968503937,
                    "duration": 1.111110999999994
                },
                {
                    "name": "B4",
                    "midi": 71,
                    "time": 183.33331499999971,
                    "velocity": 0.5748031496062992,
                    "duration": 0.9722221250000018
                },
                {
                    "name": "E5",
                    "midi": 76,
                    "time": 183.33331499999971,
                    "velocity": 0.6771653543307087,
                    "duration": 0.9722221250000018
                },
                {
                    "name": "G#5",
                    "midi": 80,
                    "time": 183.33331499999971,
                    "velocity": 0.6771653543307087,
                    "duration": 0.9722221250000018
                },
                {
                    "name": "G#5",
                    "midi": 80,
                    "time": 184.30553712499972,
                    "velocity": 0.6220472440944882,
                    "duration": 0.13888887499999214
                },
                {
                    "name": "A4",
                    "midi": 69,
                    "time": 184.4444259999997,
                    "velocity": 0.5826771653543307,
                    "duration": 1.111110999999994
                },
                {
                    "name": "B4",
                    "midi": 71,
                    "time": 184.4444259999997,
                    "velocity": 0.5826771653543307,
                    "duration": 1.111110999999994
                },
                {
                    "name": "D#5",
                    "midi": 75,
                    "time": 184.4444259999997,
                    "velocity": 0.6850393700787402,
                    "duration": 1.111110999999994
                },
                {
                    "name": "F#5",
                    "midi": 78,
                    "time": 184.4444259999997,
                    "velocity": 0.6850393700787402,
                    "duration": 1.111110999999994
                },
                {
                    "name": "B4",
                    "midi": 71,
                    "time": 185.5555369999997,
                    "velocity": 0.5905511811023622,
                    "duration": 1.111110999999994
                },
                {
                    "name": "A4",
                    "midi": 69,
                    "time": 185.5555369999997,
                    "velocity": 0.5905511811023622,
                    "duration": 1.111110999999994
                },
                {
                    "name": "C#5",
                    "midi": 73,
                    "time": 185.5555369999997,
                    "velocity": 0.5905511811023622,
                    "duration": 1.111110999999994
                },
                {
                    "name": "E5",
                    "midi": 76,
                    "time": 185.5555369999997,
                    "velocity": 0.6929133858267716,
                    "duration": 1.111110999999994
                },
                {
                    "name": "A4",
                    "midi": 69,
                    "time": 186.6666479999997,
                    "velocity": 0.5905511811023622,
                    "duration": 1.111110999999994
                },
                {
                    "name": "B4",
                    "midi": 71,
                    "time": 186.6666479999997,
                    "velocity": 0.5905511811023622,
                    "duration": 1.111110999999994
                },
                {
                    "name": "D#5",
                    "midi": 75,
                    "time": 186.6666479999997,
                    "velocity": 0.7007874015748031,
                    "duration": 1.111110999999994
                },
                {
                    "name": "F#5",
                    "midi": 78,
                    "time": 186.6666479999997,
                    "velocity": 0.7007874015748031,
                    "duration": 1.111110999999994
                },
                {
                    "name": "E5",
                    "midi": 76,
                    "time": 187.7777589999997,
                    "velocity": 0.7086614173228346,
                    "duration": 1.666666499999991
                },
                {
                    "name": "G#4",
                    "midi": 68,
                    "time": 187.7777589999997,
                    "velocity": 0.5905511811023622,
                    "duration": 3.333332999999982
                },
                {
                    "name": "G#5",
                    "midi": 80,
                    "time": 187.7777589999997,
                    "velocity": 0.7086614173228346,
                    "duration": 3.333332999999982
                },
                {
                    "name": "D#5",
                    "midi": 75,
                    "time": 189.44442549999968,
                    "velocity": 0.7165354330708661,
                    "duration": 0.555555499999997
                },
                {
                    "name": "D5",
                    "midi": 74,
                    "time": 189.99998099999968,
                    "velocity": 0.7401574803149606,
                    "duration": 1.111110999999994
                },
                {
                    "name": "C5",
                    "midi": 72,
                    "time": 191.11109199999967,
                    "velocity": 0.6929133858267716,
                    "duration": 1.9444442500000036
                },
                {
                    "name": "G#4",
                    "midi": 68,
                    "time": 191.11109199999967,
                    "velocity": 0.6929133858267716,
                    "duration": 1.9444442500000036
                },
                {
                    "name": "D#5",
                    "midi": 75,
                    "time": 191.11109199999967,
                    "velocity": 0.6929133858267716,
                    "duration": 1.9444442500000036
                },
                {
                    "name": "G#5",
                    "midi": 80,
                    "time": 191.11109199999967,
                    "velocity": 0.8110236220472441,
                    "duration": 1.9444442500000036
                },
                {
                    "name": "G#4",
                    "midi": 68,
                    "time": 193.05553624999968,
                    "velocity": 0.6377952755905512,
                    "duration": 0.2777777500000127
                },
                {
                    "name": "C5",
                    "midi": 72,
                    "time": 193.05553624999968,
                    "velocity": 0.6377952755905512,
                    "duration": 0.2777777500000127
                },
                {
                    "name": "D#5",
                    "midi": 75,
                    "time": 193.05553624999968,
                    "velocity": 0.6614173228346457,
                    "duration": 0.2777777500000127
                },
                {
                    "name": "G#5",
                    "midi": 80,
                    "time": 193.05553624999968,
                    "velocity": 0.7795275590551181,
                    "duration": 0.2777777500000127
                },
                {
                    "name": "G#4",
                    "midi": 68,
                    "time": 193.3333139999997,
                    "velocity": 0.6850393700787402,
                    "duration": 1.111110999999994
                },
                {
                    "name": "C5",
                    "midi": 72,
                    "time": 193.3333139999997,
                    "velocity": 0.6850393700787402,
                    "duration": 1.111110999999994
                },
                {
                    "name": "D#5",
                    "midi": 75,
                    "time": 193.3333139999997,
                    "velocity": 0.6850393700787402,
                    "duration": 1.111110999999994
                },
                {
                    "name": "G#5",
                    "midi": 80,
                    "time": 193.3333139999997,
                    "velocity": 0.8031496062992126,
                    "duration": 1.111110999999994
                },
                {
                    "name": "C5",
                    "midi": 72,
                    "time": 194.44442499999968,
                    "velocity": 0.6692913385826772,
                    "duration": 1.666666499999991
                },
                {
                    "name": "D#5",
                    "midi": 75,
                    "time": 194.44442499999968,
                    "velocity": 0.6692913385826772,
                    "duration": 1.666666499999991
                },
                {
                    "name": "G#5",
                    "midi": 80,
                    "time": 194.44442499999968,
                    "velocity": 0.7874015748031497,
                    "duration": 1.666666499999991
                },
                {
                    "name": "G#4",
                    "midi": 68,
                    "time": 196.11109149999967,
                    "velocity": 0.5669291338582677,
                    "duration": 0.555555499999997
                },
                {
                    "name": "C5",
                    "midi": 72,
                    "time": 196.11109149999967,
                    "velocity": 0.6771653543307087,
                    "duration": 0.555555499999997
                },
                {
                    "name": "D#5",
                    "midi": 75,
                    "time": 196.11109149999967,
                    "velocity": 0.6771653543307087,
                    "duration": 0.555555499999997
                },
                {
                    "name": "D#4",
                    "midi": 63,
                    "time": 196.66664699999967,
                    "velocity": 0.5433070866141733,
                    "duration": 1.111110999999994
                },
                {
                    "name": "G#4",
                    "midi": 68,
                    "time": 196.66664699999967,
                    "velocity": 0.6377952755905512,
                    "duration": 1.111110999999994
                },
                {
                    "name": "C5",
                    "midi": 72,
                    "time": 196.66664699999967,
                    "velocity": 0.6377952755905512,
                    "duration": 1.111110999999994
                },
                {
                    "name": "C5",
                    "midi": 72,
                    "time": 197.77775799999966,
                    "velocity": 0.6692913385826772,
                    "duration": 1.666666499999991
                },
                {
                    "name": "C#4",
                    "midi": 61,
                    "time": 197.77775799999966,
                    "velocity": 0.5669291338582677,
                    "duration": 2.222221999999988
                },
                {
                    "name": "D#4",
                    "midi": 63,
                    "time": 197.77775799999966,
                    "velocity": 0.5669291338582677,
                    "duration": 2.222221999999988
                },
                {
                    "name": "G4",
                    "midi": 67,
                    "time": 197.77775799999966,
                    "velocity": 0.6692913385826772,
                    "duration": 2.222221999999988
                },
                {
                    "name": "D#5",
                    "midi": 75,
                    "time": 197.77775799999966,
                    "velocity": 0.6692913385826772,
                    "duration": 2.222221999999988
                },
                {
                    "name": "A#4",
                    "midi": 70,
                    "time": 199.44442449999966,
                    "velocity": 0.5984251968503937,
                    "duration": 0.555555499999997
                },
                {
                    "name": "G4",
                    "midi": 67,
                    "time": 199.99997999999965,
                    "velocity": 0.49606299212598426,
                    "duration": 1.1111110000000224
                },
                {
                    "name": "C#4",
                    "midi": 61,
                    "time": 199.99997999999965,
                    "velocity": 0.49606299212598426,
                    "duration": 1.1111110000000224
                },
                {
                    "name": "C#5",
                    "midi": 73,
                    "time": 199.99997999999965,
                    "velocity": 0.5905511811023622,
                    "duration": 0.8333332500000097
                },
                {
                    "name": "C5",
                    "midi": 72,
                    "time": 200.83331324999966,
                    "velocity": 0.5590551181102362,
                    "duration": 0.2777777500000127
                },
                {
                    "name": "G#4",
                    "midi": 68,
                    "time": 201.11109099999967,
                    "velocity": 0.4645669291338583,
                    "duration": 3.3333330000000103
                },
                {
                    "name": "C4",
                    "midi": 60,
                    "time": 201.11109099999967,
                    "velocity": 0.3937007874015748,
                    "duration": 3.3333330000000103
                },
                {
                    "name": "C#4",
                    "midi": 61,
                    "time": 204.44442399999969,
                    "velocity": 0.3464566929133858,
                    "duration": 3.333332999999982
                },
                {
                    "name": "A4",
                    "midi": 69,
                    "time": 204.44442399999969,
                    "velocity": 0.4251968503937008,
                    "duration": 1.666666499999991
                },
                {
                    "name": "A4",
                    "midi": 69,
                    "time": 206.11109049999968,
                    "velocity": 0.41732283464566927,
                    "duration": 0.555555499999997
                },
                {
                    "name": "A4",
                    "midi": 69,
                    "time": 206.66664599999967,
                    "velocity": 0.41732283464566927,
                    "duration": 1.111110999999994
                },
                {
                    "name": "C4",
                    "midi": 60,
                    "time": 207.77775699999967,
                    "velocity": 0.3543307086614173,
                    "duration": 3.333332999999982
                },
                {
                    "name": "A4",
                    "midi": 69,
                    "time": 207.77775699999967,
                    "velocity": 0.4409448818897638,
                    "duration": 1.666666499999991
                },
                {
                    "name": "G#4",
                    "midi": 68,
                    "time": 209.44442349999966,
                    "velocity": 0.4330708661417323,
                    "duration": 0.555555499999997
                },
                {
                    "name": "D#4",
                    "midi": 63,
                    "time": 209.99997899999966,
                    "velocity": 0.4409448818897638,
                    "duration": 1.111110999999994
                },
                {
                    "name": "D4",
                    "midi": 62,
                    "time": 211.11108999999965,
                    "velocity": 0.3779527559055118,
                    "duration": 3.333332999999982
                },
                {
                    "name": "B4",
                    "midi": 71,
                    "time": 211.11108999999965,
                    "velocity": 0.4645669291338583,
                    "duration": 1.666666499999991
                },
                {
                    "name": "B4",
                    "midi": 71,
                    "time": 212.77775649999964,
                    "velocity": 0.4566929133858268,
                    "duration": 0.555555499999997
                },
                {
                    "name": "B4",
                    "midi": 71,
                    "time": 213.33331199999964,
                    "velocity": 0.4566929133858268,
                    "duration": 1.111110999999994
                },
                {
                    "name": "D#4",
                    "midi": 63,
                    "time": 214.44442299999963,
                    "velocity": 0.3937007874015748,
                    "duration": 3.333332999999982
                },
                {
                    "name": "B4",
                    "midi": 71,
                    "time": 214.44442299999963,
                    "velocity": 0.48031496062992124,
                    "duration": 1.666666499999991
                },
                {
                    "name": "A#4",
                    "midi": 70,
                    "time": 216.11108949999962,
                    "velocity": 0.47244094488188976,
                    "duration": 0.555555499999997
                },
                {
                    "name": "D#5",
                    "midi": 75,
                    "time": 216.66664499999962,
                    "velocity": 0.48031496062992124,
                    "duration": 1.111110999999994
                },
                {
                    "name": "D4",
                    "midi": 62,
                    "time": 217.7777559999996,
                    "velocity": 0.4094488188976378,
                    "duration": 3.333332999999982
                },
                {
                    "name": "B4",
                    "midi": 71,
                    "time": 217.7777559999996,
                    "velocity": 0.5118110236220472,
                    "duration": 1.666666499999991
                },
                {
                    "name": "B4",
                    "midi": 71,
                    "time": 219.4444224999996,
                    "velocity": 0.49606299212598426,
                    "duration": 0.555555499999997
                },
                {
                    "name": "B4",
                    "midi": 71,
                    "time": 219.9999779999996,
                    "velocity": 0.49606299212598426,
                    "duration": 1.111110999999994
                },
                {
                    "name": "D#4",
                    "midi": 63,
                    "time": 221.1110889999996,
                    "velocity": 0.4409448818897638,
                    "duration": 2.222221999999988
                },
                {
                    "name": "B4",
                    "midi": 71,
                    "time": 221.1110889999996,
                    "velocity": 0.5433070866141733,
                    "duration": 1.666666499999991
                },
                {
                    "name": "A#4",
                    "midi": 70,
                    "time": 222.77775549999959,
                    "velocity": 0.5275590551181102,
                    "duration": 0.555555499999997
                },
                {
                    "name": "D#4",
                    "midi": 63,
                    "time": 223.33331099999958,
                    "velocity": 0.5275590551181102,
                    "duration": 1.111110999999994
                },
                {
                    "name": "E4",
                    "midi": 64,
                    "time": 224.44442199999958,
                    "velocity": 0.44881889763779526,
                    "duration": 3.333332999999982
                },
                {
                    "name": "C#5",
                    "midi": 73,
                    "time": 224.44442199999958,
                    "velocity": 0.5590551181102362,
                    "duration": 1.666666499999991
                },
                {
                    "name": "C#5",
                    "midi": 73,
                    "time": 226.11108849999957,
                    "velocity": 0.5433070866141733,
                    "duration": 0.555555499999997
                },
                {
                    "name": "C#5",
                    "midi": 73,
                    "time": 226.66664399999956,
                    "velocity": 0.5511811023622047,
                    "duration": 1.111110999999994
                },
                {
                    "name": "F4",
                    "midi": 65,
                    "time": 227.77775499999956,
                    "velocity": 0.47244094488188976,
                    "duration": 3.333332999999982
                },
                {
                    "name": "C#5",
                    "midi": 73,
                    "time": 227.77775499999956,
                    "velocity": 0.5826771653543307,
                    "duration": 1.666666499999991
                },
                {
                    "name": "C5",
                    "midi": 72,
                    "time": 229.44442149999955,
                    "velocity": 0.5748031496062992,
                    "duration": 0.555555499999997
                },
                {
                    "name": "F5",
                    "midi": 77,
                    "time": 229.99997699999955,
                    "velocity": 0.5748031496062992,
                    "duration": 1.111110999999994
                },
                {
                    "name": "E4",
                    "midi": 64,
                    "time": 231.11108799999954,
                    "velocity": 0.4881889763779528,
                    "duration": 3.333332999999982
                },
                {
                    "name": "C#5",
                    "midi": 73,
                    "time": 231.11108799999954,
                    "velocity": 0.6062992125984252,
                    "duration": 1.666666499999991
                },
                {
                    "name": "C#5",
                    "midi": 73,
                    "time": 232.77775449999953,
                    "velocity": 0.5905511811023622,
                    "duration": 0.555555499999997
                },
                {
                    "name": "C#5",
                    "midi": 73,
                    "time": 233.33330999999953,
                    "velocity": 0.5984251968503937,
                    "duration": 1.111110999999994
                },
                {
                    "name": "F4",
                    "midi": 65,
                    "time": 234.44442099999952,
                    "velocity": 0.5039370078740157,
                    "duration": 2.222221999999988
                },
                {
                    "name": "C#5",
                    "midi": 73,
                    "time": 234.44442099999952,
                    "velocity": 0.6299212598425197,
                    "duration": 1.666666499999991
                },
                {
                    "name": "C5",
                    "midi": 72,
                    "time": 236.1110874999995,
                    "velocity": 0.6141732283464567,
                    "duration": 0.555555499999997
                },
                {
                    "name": "F4",
                    "midi": 65,
                    "time": 236.6666429999995,
                    "velocity": 0.6220472440944882,
                    "duration": 1.111110999999994
                },
                {
                    "name": "F#4",
                    "midi": 66,
                    "time": 237.7777539999995,
                    "velocity": 0.5275590551181102,
                    "duration": 1.111110999999994
                },
                {
                    "name": "C5",
                    "midi": 72,
                    "time": 237.7777539999995,
                    "velocity": 0.5275590551181102,
                    "duration": 1.111110999999994
                },
                {
                    "name": "D#5",
                    "midi": 75,
                    "time": 237.7777539999995,
                    "velocity": 0.6299212598425197,
                    "duration": 1.111110999999994
                },
                {
                    "name": "F#4",
                    "midi": 66,
                    "time": 238.8888649999995,
                    "velocity": 0.5275590551181102,
                    "duration": 1.111110999999994
                },
                {
                    "name": "C5",
                    "midi": 72,
                    "time": 238.8888649999995,
                    "velocity": 0.5275590551181102,
                    "duration": 1.111110999999994
                },
                {
                    "name": "D#5",
                    "midi": 75,
                    "time": 238.8888649999995,
                    "velocity": 0.6299212598425197,
                    "duration": 1.111110999999994
                },
                {
                    "name": "F#4",
                    "midi": 66,
                    "time": 239.9999759999995,
                    "velocity": 0.5354330708661418,
                    "duration": 1.111110999999994
                },
                {
                    "name": "C5",
                    "midi": 72,
                    "time": 239.9999759999995,
                    "velocity": 0.5354330708661418,
                    "duration": 1.111110999999994
                },
                {
                    "name": "D#5",
                    "midi": 75,
                    "time": 239.9999759999995,
                    "velocity": 0.6456692913385826,
                    "duration": 1.111110999999994
                },
                {
                    "name": "F#4",
                    "midi": 66,
                    "time": 241.1110869999995,
                    "velocity": 0.5511811023622047,
                    "duration": 1.099536927083335
                },
                {
                    "name": "C5",
                    "midi": 72,
                    "time": 241.1110869999995,
                    "velocity": 0.5511811023622047,
                    "duration": 1.099536927083335
                },
                {
                    "name": "D#5",
                    "midi": 75,
                    "time": 241.1110869999995,
                    "velocity": 0.6535433070866141,
                    "duration": 1.099536927083335
                },
                {
                    "name": "F#4",
                    "midi": 66,
                    "time": 242.22219799999948,
                    "velocity": 0.5748031496062992,
                    "duration": 1.099536927083335
                },
                {
                    "name": "C5",
                    "midi": 72,
                    "time": 242.22219799999948,
                    "velocity": 0.5748031496062992,
                    "duration": 1.099536927083335
                },
                {
                    "name": "D#5",
                    "midi": 75,
                    "time": 242.22219799999948,
                    "velocity": 0.6771653543307087,
                    "duration": 1.099536927083335
                },
                {
                    "name": "F#4",
                    "midi": 66,
                    "time": 243.33330899999947,
                    "velocity": 0.5984251968503937,
                    "duration": 1.111110999999994
                },
                {
                    "name": "C5",
                    "midi": 72,
                    "time": 243.33330899999947,
                    "velocity": 0.5984251968503937,
                    "duration": 1.111110999999994
                },
                {
                    "name": "E5",
                    "midi": 76,
                    "time": 243.33330899999947,
                    "velocity": 0.7165354330708661,
                    "duration": 1.111110999999994
                },
                {
                    "name": "G#4",
                    "midi": 68,
                    "time": 244.44441999999947,
                    "velocity": 0.5748031496062992,
                    "duration": 1.099536927083335
                },
                {
                    "name": "C#5",
                    "midi": 73,
                    "time": 244.44441999999947,
                    "velocity": 0.6141732283464567,
                    "duration": 1.099536927083335
                },
                {
                    "name": "F5",
                    "midi": 77,
                    "time": 244.44441999999947,
                    "velocity": 0.7244094488188977,
                    "duration": 1.099536927083335
                },
                {
                    "name": "F4",
                    "midi": 65,
                    "time": 245.55553099999946,
                    "velocity": 0.5590551181102362,
                    "duration": 1.099536927083335
                },
                {
                    "name": "C#5",
                    "midi": 73,
                    "time": 245.55553099999946,
                    "velocity": 0.6692913385826772,
                    "duration": 1.099536927083335
                },
                {
                    "name": "F4",
                    "midi": 65,
                    "time": 246.66664199999946,
                    "velocity": 0.5354330708661418,
                    "duration": 1.099536927083335
                },
                {
                    "name": "G#4",
                    "midi": 68,
                    "time": 246.66664199999946,
                    "velocity": 0.6299212598425197,
                    "duration": 1.099536927083335
                },
                {
                    "name": "F#4",
                    "midi": 66,
                    "time": 247.77775299999945,
                    "velocity": 0.5590551181102362,
                    "duration": 3.3333330000000103
                },
                {
                    "name": "A#4",
                    "midi": 70,
                    "time": 247.77775299999945,
                    "velocity": 0.6692913385826772,
                    "duration": 3.3333330000000103
                },
                {
                    "name": "F4",
                    "midi": 65,
                    "time": 251.11108599999946,
                    "velocity": 0.4645669291338583,
                    "duration": 1.111110999999994
                },
                {
                    "name": "G#4",
                    "midi": 68,
                    "time": 251.11108599999946,
                    "velocity": 0.5196850393700787,
                    "duration": 0.13888887499999214
                },
                {
                    "name": "A#4",
                    "midi": 70,
                    "time": 251.24997487499945,
                    "velocity": 0.5196850393700787,
                    "duration": 0.13888887499999214
                },
                {
                    "name": "G#4",
                    "midi": 68,
                    "time": 251.38886374999944,
                    "velocity": 0.5118110236220472,
                    "duration": 0.2777777500000127
                },
                {
                    "name": "G4",
                    "midi": 67,
                    "time": 251.66664149999946,
                    "velocity": 0.5433070866141733,
                    "duration": 0.555555499999997
                },
                {
                    "name": "F4",
                    "midi": 65,
                    "time": 252.22219699999945,
                    "velocity": 0.4566929133858268,
                    "duration": 0.2777777500000127
                },
                {
                    "name": "G#4",
                    "midi": 68,
                    "time": 252.22219699999945,
                    "velocity": 0.5511811023622047,
                    "duration": 0.2777777500000127
                },
                {
                    "name": "F4",
                    "midi": 65,
                    "time": 252.77775249999948,
                    "velocity": 0.47244094488188976,
                    "duration": 0.2777777500000127
                },
                {
                    "name": "A#4",
                    "midi": 70,
                    "time": 252.77775249999948,
                    "velocity": 0.5748031496062992,
                    "duration": 0.2777777500000127
                },
                {
                    "name": "F4",
                    "midi": 65,
                    "time": 253.3333079999995,
                    "velocity": 0.4881889763779528,
                    "duration": 0.2777777500000127
                },
                {
                    "name": "C5",
                    "midi": 72,
                    "time": 253.3333079999995,
                    "velocity": 0.5826771653543307,
                    "duration": 0.2777777500000127
                },
                {
                    "name": "F4",
                    "midi": 65,
                    "time": 253.88886349999953,
                    "velocity": 0.5039370078740157,
                    "duration": 0.2777777500000127
                },
                {
                    "name": "C#5",
                    "midi": 73,
                    "time": 253.88886349999953,
                    "velocity": 0.5984251968503937,
                    "duration": 0.2777777500000127
                },
                {
                    "name": "F#4",
                    "midi": 66,
                    "time": 254.44441899999956,
                    "velocity": 0.5275590551181102,
                    "duration": 1.111110999999994
                },
                {
                    "name": "D5",
                    "midi": 74,
                    "time": 254.44441899999956,
                    "velocity": 0.6299212598425197,
                    "duration": 1.111110999999994
                },
                {
                    "name": "F#4",
                    "midi": 66,
                    "time": 255.55552999999955,
                    "velocity": 0.5511811023622047,
                    "duration": 1.1111110000000224
                },
                {
                    "name": "D#5",
                    "midi": 75,
                    "time": 255.55552999999955,
                    "velocity": 0.6535433070866141,
                    "duration": 1.1111110000000224
                },
                {
                    "name": "F#4",
                    "midi": 66,
                    "time": 256.6666409999996,
                    "velocity": 0.5748031496062992,
                    "duration": 1.111110999999994
                },
                {
                    "name": "E5",
                    "midi": 76,
                    "time": 256.6666409999996,
                    "velocity": 0.6850393700787402,
                    "duration": 1.111110999999994
                },
                {
                    "name": "G#4",
                    "midi": 68,
                    "time": 257.77775199999957,
                    "velocity": 0.5984251968503937,
                    "duration": 1.0995369270833066
                },
                {
                    "name": "C#5",
                    "midi": 73,
                    "time": 257.77775199999957,
                    "velocity": 0.5984251968503937,
                    "duration": 1.0995369270833066
                },
                {
                    "name": "F5",
                    "midi": 77,
                    "time": 257.77775199999957,
                    "velocity": 0.7007874015748031,
                    "duration": 1.0995369270833066
                },
                {
                    "name": "F4",
                    "midi": 65,
                    "time": 258.88886299999956,
                    "velocity": 0.5590551181102362,
                    "duration": 1.0995369270833066
                },
                {
                    "name": "C#5",
                    "midi": 73,
                    "time": 258.88886299999956,
                    "velocity": 0.6692913385826772,
                    "duration": 1.0995369270833066
                },
                {
                    "name": "F4",
                    "midi": 65,
                    "time": 259.99997399999955,
                    "velocity": 0.5354330708661418,
                    "duration": 1.0995369270833066
                },
                {
                    "name": "G#4",
                    "midi": 68,
                    "time": 259.99997399999955,
                    "velocity": 0.6299212598425197,
                    "duration": 1.0995369270833066
                },
                {
                    "name": "F#4",
                    "midi": 66,
                    "time": 261.11108499999955,
                    "velocity": 0.5590551181102362,
                    "duration": 3.333332999999982
                },
                {
                    "name": "A#4",
                    "midi": 70,
                    "time": 261.11108499999955,
                    "velocity": 0.6692913385826772,
                    "duration": 3.333332999999982
                },
                {
                    "name": "F4",
                    "midi": 65,
                    "time": 264.44441799999953,
                    "velocity": 0.4645669291338583,
                    "duration": 1.1111110000000508
                },
                {
                    "name": "G#4",
                    "midi": 68,
                    "time": 264.44441799999953,
                    "velocity": 0.5196850393700787,
                    "duration": 0.13888887500002056
                },
                {
                    "name": "A#4",
                    "midi": 70,
                    "time": 264.58330687499955,
                    "velocity": 0.5196850393700787,
                    "duration": 0.13888887500002056
                },
                {
                    "name": "G#4",
                    "midi": 68,
                    "time": 264.72219574999957,
                    "velocity": 0.5118110236220472,
                    "duration": 0.2777777499999843
                },
                {
                    "name": "G4",
                    "midi": 67,
                    "time": 264.99997349999956,
                    "velocity": 0.48031496062992124,
                    "duration": 0.5555555000000254
                },
                {
                    "name": "F4",
                    "midi": 65,
                    "time": 265.5555289999996,
                    "velocity": 0.4566929133858268,
                    "duration": 0.2777777499999843
                },
                {
                    "name": "G#4",
                    "midi": 68,
                    "time": 265.5555289999996,
                    "velocity": 0.5511811023622047,
                    "duration": 0.2777777499999843
                },
                {
                    "name": "F4",
                    "midi": 65,
                    "time": 266.11108449999955,
                    "velocity": 0.47244094488188976,
                    "duration": 0.2777777499999843
                },
                {
                    "name": "A#4",
                    "midi": 70,
                    "time": 266.11108449999955,
                    "velocity": 0.5748031496062992,
                    "duration": 0.2777777499999843
                },
                {
                    "name": "F4",
                    "midi": 65,
                    "time": 266.6666399999995,
                    "velocity": 0.4881889763779528,
                    "duration": 0.2777777499999843
                },
                {
                    "name": "C5",
                    "midi": 72,
                    "time": 266.6666399999995,
                    "velocity": 0.5826771653543307,
                    "duration": 0.2777777499999843
                },
                {
                    "name": "F4",
                    "midi": 65,
                    "time": 267.2221954999995,
                    "velocity": 0.5039370078740157,
                    "duration": 0.2777777499999843
                },
                {
                    "name": "C#5",
                    "midi": 73,
                    "time": 267.2221954999995,
                    "velocity": 0.5984251968503937,
                    "duration": 0.2777777499999843
                },
                {
                    "name": "F4",
                    "midi": 65,
                    "time": 267.77775099999945,
                    "velocity": 0.4330708661417323,
                    "duration": 1.111110999999994
                },
                {
                    "name": "B4",
                    "midi": 71,
                    "time": 267.77775099999945,
                    "velocity": 0.5275590551181102,
                    "duration": 1.111110999999994
                },
                {
                    "name": "E4",
                    "midi": 64,
                    "time": 268.88886199999945,
                    "velocity": 0.4566929133858268,
                    "duration": 1.111110999999994
                },
                {
                    "name": "C5",
                    "midi": 72,
                    "time": 268.88886199999945,
                    "velocity": 0.5433070866141733,
                    "duration": 1.111110999999994
                },
                {
                    "name": "F4",
                    "midi": 65,
                    "time": 269.99997299999944,
                    "velocity": 0.41732283464566927,
                    "duration": 1.111110999999994
                },
                {
                    "name": "D5",
                    "midi": 74,
                    "time": 269.99997299999944,
                    "velocity": 0.49606299212598426,
                    "duration": 1.111110999999994
                },
                {
                    "name": "E4",
                    "midi": 64,
                    "time": 271.11108399999944,
                    "velocity": 0.2755905511811024,
                    "duration": 1.0995369270833066
                },
                {
                    "name": "E5",
                    "midi": 76,
                    "time": 271.11108399999944,
                    "velocity": 0.33070866141732286,
                    "duration": 1.0995369270833066
                },
                {
                    "name": "E4",
                    "midi": 64,
                    "time": 272.22219499999943,
                    "velocity": 0.25984251968503935,
                    "duration": 1.0995369270833066
                },
                {
                    "name": "C5",
                    "midi": 72,
                    "time": 272.22219499999943,
                    "velocity": 0.30708661417322836,
                    "duration": 1.0995369270833066
                },
                {
                    "name": "E4",
                    "midi": 64,
                    "time": 273.3333059999994,
                    "velocity": 0.2440944881889764,
                    "duration": 1.0995369270833066
                },
                {
                    "name": "G4",
                    "midi": 67,
                    "time": 273.3333059999994,
                    "velocity": 0.29133858267716534,
                    "duration": 1.0995369270833066
                },
                {
                    "name": "F4",
                    "midi": 65,
                    "time": 274.4444169999994,
                    "velocity": 0.25984251968503935,
                    "duration": 3.333332999999982
                },
                {
                    "name": "A4",
                    "midi": 69,
                    "time": 274.4444169999994,
                    "velocity": 0.30708661417322836,
                    "duration": 3.333332999999982
                },
                {
                    "name": "E4",
                    "midi": 64,
                    "time": 277.7777499999994,
                    "velocity": 0.2755905511811024,
                    "duration": 1.1111110000000508
                },
                {
                    "name": "G4",
                    "midi": 67,
                    "time": 277.7777499999994,
                    "velocity": 0.30708661417322836,
                    "duration": 0.13888887500002056
                },
                {
                    "name": "A4",
                    "midi": 69,
                    "time": 277.9166388749994,
                    "velocity": 0.30708661417322836,
                    "duration": 0.13888887500002056
                },
                {
                    "name": "G4",
                    "midi": 67,
                    "time": 278.05552774999944,
                    "velocity": 0.2992125984251969,
                    "duration": 0.2777777499999843
                },
                {
                    "name": "F#4",
                    "midi": 66,
                    "time": 278.3333054999994,
                    "velocity": 0.29133858267716534,
                    "duration": 0.5555555000000254
                },
                {
                    "name": "E4",
                    "midi": 64,
                    "time": 278.88886099999945,
                    "velocity": 0.2755905511811024,
                    "duration": 0.2777777499999843
                },
                {
                    "name": "G4",
                    "midi": 67,
                    "time": 278.88886099999945,
                    "velocity": 0.33070866141732286,
                    "duration": 0.2777777499999843
                },
                {
                    "name": "E4",
                    "midi": 64,
                    "time": 279.4444164999994,
                    "velocity": 0.28346456692913385,
                    "duration": 0.2777777499999843
                },
                {
                    "name": "A4",
                    "midi": 69,
                    "time": 279.4444164999994,
                    "velocity": 0.3464566929133858,
                    "duration": 0.2777777499999843
                },
                {
                    "name": "E4",
                    "midi": 64,
                    "time": 279.9999719999994,
                    "velocity": 0.29133858267716534,
                    "duration": 0.2777777499999843
                },
                {
                    "name": "B4",
                    "midi": 71,
                    "time": 279.9999719999994,
                    "velocity": 0.3464566929133858,
                    "duration": 0.2777777499999843
                },
                {
                    "name": "E4",
                    "midi": 64,
                    "time": 280.55552749999936,
                    "velocity": 0.30708661417322836,
                    "duration": 0.2777777499999843
                },
                {
                    "name": "C5",
                    "midi": 72,
                    "time": 280.55552749999936,
                    "velocity": 0.36220472440944884,
                    "duration": 0.2777777499999843
                },
                {
                    "name": "F4",
                    "midi": 65,
                    "time": 281.1110829999993,
                    "velocity": 0.30708661417322836,
                    "duration": 1.111110999999994
                },
                {
                    "name": "C#5",
                    "midi": 73,
                    "time": 281.1110829999993,
                    "velocity": 0.3700787401574803,
                    "duration": 1.111110999999994
                },
                {
                    "name": "F4",
                    "midi": 65,
                    "time": 282.2221939999993,
                    "velocity": 0.33070866141732286,
                    "duration": 1.111110999999994
                },
                {
                    "name": "D5",
                    "midi": 74,
                    "time": 282.2221939999993,
                    "velocity": 0.3937007874015748,
                    "duration": 1.111110999999994
                },
                {
                    "name": "F4",
                    "midi": 65,
                    "time": 283.3333049999993,
                    "velocity": 0.3543307086614173,
                    "duration": 1.111110999999994
                },
                {
                    "name": "D#5",
                    "midi": 75,
                    "time": 283.3333049999993,
                    "velocity": 0.4251968503937008,
                    "duration": 1.111110999999994
                },
                {
                    "name": "E4",
                    "midi": 64,
                    "time": 284.4444159999993,
                    "velocity": 0.3779527559055118,
                    "duration": 1.0995369270833066
                },
                {
                    "name": "E5",
                    "midi": 76,
                    "time": 284.4444159999993,
                    "velocity": 0.44881889763779526,
                    "duration": 1.0995369270833066
                },
                {
                    "name": "E4",
                    "midi": 64,
                    "time": 285.5555269999993,
                    "velocity": 0.36220472440944884,
                    "duration": 1.0995369270833066
                },
                {
                    "name": "C5",
                    "midi": 72,
                    "time": 285.5555269999993,
                    "velocity": 0.4330708661417323,
                    "duration": 1.0995369270833066
                },
                {
                    "name": "E4",
                    "midi": 64,
                    "time": 286.6666379999993,
                    "velocity": 0.33070866141732286,
                    "duration": 1.0995369270833066
                },
                {
                    "name": "G4",
                    "midi": 67,
                    "time": 286.6666379999993,
                    "velocity": 0.4015748031496063,
                    "duration": 1.0995369270833066
                },
                {
                    "name": "F4",
                    "midi": 65,
                    "time": 287.7777489999993,
                    "velocity": 0.3779527559055118,
                    "duration": 1.111110999999994
                },
                {
                    "name": "D5",
                    "midi": 74,
                    "time": 287.7777489999993,
                    "velocity": 0.4645669291338583,
                    "duration": 1.111110999999994
                },
                {
                    "name": "F#4",
                    "midi": 66,
                    "time": 288.8888599999993,
                    "velocity": 0.4094488188976378,
                    "duration": 1.111110999999994
                },
                {
                    "name": "D#5",
                    "midi": 75,
                    "time": 288.8888599999993,
                    "velocity": 0.49606299212598426,
                    "duration": 1.111110999999994
                },
                {
                    "name": "G#4",
                    "midi": 68,
                    "time": 289.9999709999993,
                    "velocity": 0.44881889763779526,
                    "duration": 1.111110999999994
                },
                {
                    "name": "F5",
                    "midi": 77,
                    "time": 289.9999709999993,
                    "velocity": 0.5354330708661418,
                    "duration": 1.111110999999994
                },
                {
                    "name": "A4",
                    "midi": 69,
                    "time": 291.11108199999927,
                    "velocity": 0.48031496062992124,
                    "duration": 1.0995369270833066
                },
                {
                    "name": "F#5",
                    "midi": 78,
                    "time": 291.11108199999927,
                    "velocity": 0.5669291338582677,
                    "duration": 1.0995369270833066
                },
                {
                    "name": "A4",
                    "midi": 69,
                    "time": 292.22219299999927,
                    "velocity": 0.4645669291338583,
                    "duration": 1.0995369270833066
                },
                {
                    "name": "D#5",
                    "midi": 75,
                    "time": 292.22219299999927,
                    "velocity": 0.5669291338582677,
                    "duration": 1.0995369270833066
                },
                {
                    "name": "A4",
                    "midi": 69,
                    "time": 293.33330399999926,
                    "velocity": 0.6062992125984252,
                    "duration": 1.0995369270833066
                },
                {
                    "name": "G#4",
                    "midi": 68,
                    "time": 294.44441499999925,
                    "velocity": 0.5196850393700787,
                    "duration": 1.111110999999994
                },
                {
                    "name": "F5",
                    "midi": 77,
                    "time": 294.44441499999925,
                    "velocity": 0.6141732283464567,
                    "duration": 1.111110999999994
                },
                {
                    "name": "A4",
                    "midi": 69,
                    "time": 295.55552599999925,
                    "velocity": 0.5433070866141733,
                    "duration": 1.111110999999994
                },
                {
                    "name": "F#5",
                    "midi": 78,
                    "time": 295.55552599999925,
                    "velocity": 0.6456692913385826,
                    "duration": 1.111110999999994
                },
                {
                    "name": "B4",
                    "midi": 71,
                    "time": 296.66663699999924,
                    "velocity": 0.5748031496062992,
                    "duration": 1.111110999999994
                },
                {
                    "name": "G#5",
                    "midi": 80,
                    "time": 296.66663699999924,
                    "velocity": 0.6771653543307087,
                    "duration": 1.111110999999994
                },
                {
                    "name": "C5",
                    "midi": 72,
                    "time": 297.77774799999924,
                    "velocity": 0.5826771653543307,
                    "duration": 1.0995369270833066
                },
                {
                    "name": "A5",
                    "midi": 81,
                    "time": 297.77774799999924,
                    "velocity": 0.6850393700787402,
                    "duration": 1.0995369270833066
                },
                {
                    "name": "A4",
                    "midi": 69,
                    "time": 298.88885899999923,
                    "velocity": 0.5905511811023622,
                    "duration": 1.0995369270833066
                },
                {
                    "name": "C5",
                    "midi": 72,
                    "time": 298.88885899999923,
                    "velocity": 0.5905511811023622,
                    "duration": 1.0995369270833066
                },
                {
                    "name": "A5",
                    "midi": 81,
                    "time": 298.88885899999923,
                    "velocity": 0.7007874015748031,
                    "duration": 1.0995369270833066
                },
                {
                    "name": "A4",
                    "midi": 69,
                    "time": 299.9999699999992,
                    "velocity": 0.5984251968503937,
                    "duration": 1.0995369270833066
                },
                {
                    "name": "C5",
                    "midi": 72,
                    "time": 299.9999699999992,
                    "velocity": 0.5984251968503937,
                    "duration": 1.0995369270833066
                },
                {
                    "name": "A5",
                    "midi": 81,
                    "time": 299.9999699999992,
                    "velocity": 0.7165354330708661,
                    "duration": 1.0995369270833066
                },
                {
                    "name": "A4",
                    "midi": 69,
                    "time": 301.1110809999992,
                    "velocity": 0.6141732283464567,
                    "duration": 1.0995369270833066
                },
                {
                    "name": "C5",
                    "midi": 72,
                    "time": 301.1110809999992,
                    "velocity": 0.6141732283464567,
                    "duration": 1.0995369270833066
                },
                {
                    "name": "A5",
                    "midi": 81,
                    "time": 301.1110809999992,
                    "velocity": 0.7322834645669292,
                    "duration": 1.0995369270833066
                },
                {
                    "name": "A4",
                    "midi": 69,
                    "time": 302.2221919999992,
                    "velocity": 0.6299212598425197,
                    "duration": 1.0995369270833066
                },
                {
                    "name": "C5",
                    "midi": 72,
                    "time": 302.2221919999992,
                    "velocity": 0.6299212598425197,
                    "duration": 1.0995369270833066
                },
                {
                    "name": "A5",
                    "midi": 81,
                    "time": 302.2221919999992,
                    "velocity": 0.7480314960629921,
                    "duration": 1.0995369270833066
                },
                {
                    "name": "A4",
                    "midi": 69,
                    "time": 303.3333029999992,
                    "velocity": 0.6377952755905512,
                    "duration": 1.0995369270833066
                },
                {
                    "name": "C#5",
                    "midi": 73,
                    "time": 303.3333029999992,
                    "velocity": 0.6377952755905512,
                    "duration": 1.0995369270833066
                },
                {
                    "name": "A5",
                    "midi": 81,
                    "time": 303.3333029999992,
                    "velocity": 0.7559055118110236,
                    "duration": 1.0995369270833066
                },
                {
                    "name": "E5",
                    "midi": 76,
                    "time": 304.4444139999992,
                    "velocity": 0.6614173228346457,
                    "duration": 1.111110999999994
                },
                {
                    "name": "A4",
                    "midi": 69,
                    "time": 304.4444139999992,
                    "velocity": 0.6614173228346457,
                    "duration": 2.222221999999988
                },
                {
                    "name": "A5",
                    "midi": 81,
                    "time": 304.4444139999992,
                    "velocity": 0.7795275590551181,
                    "duration": 2.222221999999988
                },
                {
                    "name": "D#5",
                    "midi": 75,
                    "time": 305.5555249999992,
                    "velocity": 0.7007874015748031,
                    "duration": 2.222221999999988
                },
                {
                    "name": "G#4",
                    "midi": 68,
                    "time": 306.6666359999992,
                    "velocity": 0.4645669291338583,
                    "duration": 1.111110999999994
                },
                {
                    "name": "F#5",
                    "midi": 78,
                    "time": 306.6666359999992,
                    "velocity": 0.6692913385826772,
                    "duration": 1.111110999999994
                },
                {
                    "name": "G#5",
                    "midi": 80,
                    "time": 306.6666359999992,
                    "velocity": 0.6692913385826772,
                    "duration": 1.111110999999994
                },
                {
                    "name": "E5",
                    "midi": 76,
                    "time": 339.4444104999992,
                    "velocity": 0.4094488188976378,
                    "duration": 2.222221999999988
                },
                {
                    "name": "F5",
                    "midi": 77,
                    "time": 341.6666324999992,
                    "velocity": 0.4015748031496063,
                    "duration": 1.111110999999994
                },
                {
                    "name": "F5",
                    "midi": 77,
                    "time": 342.7777434999992,
                    "velocity": 0.4251968503937008,
                    "duration": 1.111110999999994
                },
                {
                    "name": "F5",
                    "midi": 77,
                    "time": 343.8888544999992,
                    "velocity": 0.4409448818897638,
                    "duration": 2.222221999999988
                },
                {
                    "name": "F#5",
                    "midi": 78,
                    "time": 346.11107649999917,
                    "velocity": 0.4330708661417323,
                    "duration": 3.333332999999982
                },
                {
                    "name": "E5",
                    "midi": 76,
                    "time": 349.44440949999915,
                    "velocity": 0.4330708661417323,
                    "duration": 0.8333332500000097
                },
                {
                    "name": "D5",
                    "midi": 74,
                    "time": 350.27774274999916,
                    "velocity": 0.4015748031496063,
                    "duration": 0.2777777499999843
                },
                {
                    "name": "C#5",
                    "midi": 73,
                    "time": 350.55552049999915,
                    "velocity": 0.4015748031496063,
                    "duration": 1.111110999999994
                },
                {
                    "name": "C5",
                    "midi": 72,
                    "time": 351.66663149999914,
                    "velocity": 0.4015748031496063,
                    "duration": 1.111110999999994
                },
                {
                    "name": "C#5",
                    "midi": 73,
                    "time": 352.77774249999914,
                    "velocity": 0.4251968503937008,
                    "duration": 1.111110999999994
                },
                {
                    "name": "G#5",
                    "midi": 80,
                    "time": 353.88885349999913,
                    "velocity": 0.47244094488188976,
                    "duration": 2.2222219999998742
                },
                {
                    "name": "A4",
                    "midi": 69,
                    "time": 354.72218674999914,
                    "velocity": 0.28346456692913385,
                    "duration": 0.2777777499999843
                },
                {
                    "name": "A4",
                    "midi": 69,
                    "time": 354.9999644999991,
                    "velocity": 0.3228346456692913,
                    "duration": 0.1851851666666562
                },
                {
                    "name": "B4",
                    "midi": 71,
                    "time": 355.2221866999991,
                    "velocity": 0.30708661417322836,
                    "duration": 0.1851851666666562
                },
                {
                    "name": "A4",
                    "midi": 69,
                    "time": 355.4444088999991,
                    "velocity": 0.30708661417322836,
                    "duration": 0.1851851666666562
                },
                {
                    "name": "G#4",
                    "midi": 68,
                    "time": 355.66663109999905,
                    "velocity": 0.3228346456692913,
                    "duration": 0.1851851666666562
                },
                {
                    "name": "A4",
                    "midi": 69,
                    "time": 355.888853299999,
                    "velocity": 0.30708661417322836,
                    "duration": 0.1851851666666562
                },
                {
                    "name": "F#5",
                    "midi": 78,
                    "time": 356.111075499999,
                    "velocity": 0.4251968503937008,
                    "duration": 1.111110999999994
                },
                {
                    "name": "B4",
                    "midi": 71,
                    "time": 356.111075499999,
                    "velocity": 0.31496062992125984,
                    "duration": 0.8333332500000097
                },
                {
                    "name": "F#4",
                    "midi": 66,
                    "time": 356.944408749999,
                    "velocity": 0.31496062992125984,
                    "duration": 0.2777777499999843
                },
                {
                    "name": "G#4",
                    "midi": 68,
                    "time": 357.222186499999,
                    "velocity": 0.36220472440944884,
                    "duration": 4.444443999999976
                },
                {
                    "name": "E5",
                    "midi": 76,
                    "time": 357.222186499999,
                    "velocity": 0.4251968503937008,
                    "duration": 2.222221999999988
                },
                {
                    "name": "E5",
                    "midi": 76,
                    "time": 359.444408499999,
                    "velocity": 0.4251968503937008,
                    "duration": 1.111110999999994
                },
                {
                    "name": "E5",
                    "midi": 76,
                    "time": 360.555519499999,
                    "velocity": 0.4566929133858268,
                    "duration": 1.111110999999994
                },
                {
                    "name": "B4",
                    "midi": 71,
                    "time": 361.666630499999,
                    "velocity": 0.4330708661417323,
                    "duration": 1.111110999999994
                },
                {
                    "name": "F5",
                    "midi": 77,
                    "time": 361.666630499999,
                    "velocity": 0.4881889763779528,
                    "duration": 2.222221999999988
                },
                {
                    "name": "C#5",
                    "midi": 73,
                    "time": 362.77774149999897,
                    "velocity": 0.4409448818897638,
                    "duration": 0.8333332500000097
                },
                {
                    "name": "B4",
                    "midi": 71,
                    "time": 363.611074749999,
                    "velocity": 0.4015748031496063,
                    "duration": 0.2777777499999843
                },
                {
                    "name": "B4",
                    "midi": 71,
                    "time": 363.88885249999896,
                    "velocity": 0.4330708661417323,
                    "duration": 1.111110999999994
                },
                {
                    "name": "F#5",
                    "midi": 78,
                    "time": 363.88885249999896,
                    "velocity": 0.47244094488188976,
                    "duration": 3.333332999999982
                },
                {
                    "name": "A4",
                    "midi": 69,
                    "time": 364.99996349999896,
                    "velocity": 0.44881889763779526,
                    "duration": 0.8333332500000097
                },
                {
                    "name": "G#4",
                    "midi": 68,
                    "time": 365.83329674999896,
                    "velocity": 0.4094488188976378,
                    "duration": 0.2777777499999843
                },
                {
                    "name": "F#4",
                    "midi": 66,
                    "time": 366.11107449999895,
                    "velocity": 0.41732283464566927,
                    "duration": 4.444443999999976
                },
                {
                    "name": "E5",
                    "midi": 76,
                    "time": 367.22218549999894,
                    "velocity": 0.4409448818897638,
                    "duration": 0.8333332500000097
                },
                {
                    "name": "D5",
                    "midi": 74,
                    "time": 368.05551874999895,
                    "velocity": 0.4330708661417323,
                    "duration": 0.2777777499999843
                },
                {
                    "name": "C#5",
                    "midi": 73,
                    "time": 368.33329649999894,
                    "velocity": 0.4251968503937008,
                    "duration": 1.111110999999994
                },
                {
                    "name": "C5",
                    "midi": 72,
                    "time": 369.44440749999893,
                    "velocity": 0.4094488188976378,
                    "duration": 3.333332999999982
                },
                {
                    "name": "F#4",
                    "midi": 66,
                    "time": 370.5555184999989,
                    "velocity": 0.47244094488188976,
                    "duration": 1.111110999999994
                },
                {
                    "name": "E4",
                    "midi": 64,
                    "time": 371.6666294999989,
                    "velocity": 0.4566929133858268,
                    "duration": 0.8333332500000097
                },
                {
                    "name": "D4",
                    "midi": 62,
                    "time": 372.49996274999893,
                    "velocity": 0.3700787401574803,
                    "duration": 0.2777777499999843
                },
                {
                    "name": "C#4",
                    "midi": 61,
                    "time": 372.7777404999989,
                    "velocity": 0.44881889763779526,
                    "duration": 1.111110999999994
                },
                {
                    "name": "C4",
                    "midi": 60,
                    "time": 373.8888514999989,
                    "velocity": 0.4409448818897638,
                    "duration": 1.111110999999994
                },
                {
                    "name": "C#4",
                    "midi": 61,
                    "time": 374.9999624999989,
                    "velocity": 0.48031496062992124,
                    "duration": 1.111110999999994
                },
                {
                    "name": "C#5",
                    "midi": 73,
                    "time": 376.1110734999989,
                    "velocity": 0.3543307086614173,
                    "duration": 1.111110999999994
                },
                {
                    "name": "F5",
                    "midi": 77,
                    "time": 376.1110734999989,
                    "velocity": 0.4251968503937008,
                    "duration": 1.111110999999994
                },
                {
                    "name": "F#4",
                    "midi": 66,
                    "time": 377.2221844999989,
                    "velocity": 0.31496062992125984,
                    "duration": 1.111110999999994
                },
                {
                    "name": "A#4",
                    "midi": 70,
                    "time": 377.2221844999989,
                    "velocity": 0.3779527559055118,
                    "duration": 1.111110999999994
                },
                {
                    "name": "C5",
                    "midi": 72,
                    "time": 378.3332954999989,
                    "velocity": 0.4251968503937008,
                    "duration": 0.8333332500000097
                },
                {
                    "name": "D#5",
                    "midi": 75,
                    "time": 378.3332954999989,
                    "velocity": 0.4251968503937008,
                    "duration": 1.111110999999994
                },
                {
                    "name": "A#4",
                    "midi": 70,
                    "time": 379.1666287499989,
                    "velocity": 0.3700787401574803,
                    "duration": 0.2777777499999843
                },
                {
                    "name": "F4",
                    "midi": 65,
                    "time": 379.4444064999989,
                    "velocity": 0.33070866141732286,
                    "duration": 1.111110999999994
                },
                {
                    "name": "G#4",
                    "midi": 68,
                    "time": 379.4444064999989,
                    "velocity": 0.3937007874015748,
                    "duration": 1.111110999999994
                },
                {
                    "name": "A#4",
                    "midi": 70,
                    "time": 380.55551749999887,
                    "velocity": 0.33858267716535434,
                    "duration": 1.111110999999994
                },
                {
                    "name": "C#5",
                    "midi": 73,
                    "time": 380.55551749999887,
                    "velocity": 0.4015748031496063,
                    "duration": 1.111110999999994
                },
                {
                    "name": "D#4",
                    "midi": 63,
                    "time": 381.66662849999886,
                    "velocity": 0.31496062992125984,
                    "duration": 1.111110999999994
                },
                {
                    "name": "F#4",
                    "midi": 66,
                    "time": 381.66662849999886,
                    "velocity": 0.3779527559055118,
                    "duration": 1.111110999999994
                },
                {
                    "name": "G#4",
                    "midi": 68,
                    "time": 382.77773949999886,
                    "velocity": 0.33070866141732286,
                    "duration": 0.8333332500000097
                },
                {
                    "name": "C5",
                    "midi": 72,
                    "time": 382.77773949999886,
                    "velocity": 0.3937007874015748,
                    "duration": 0.8333332500000097
                },
                {
                    "name": "F#4",
                    "midi": 66,
                    "time": 383.61107274999887,
                    "velocity": 0.2755905511811024,
                    "duration": 0.2777777499999843
                },
                {
                    "name": "A#4",
                    "midi": 70,
                    "time": 383.61107274999887,
                    "velocity": 0.33070866141732286,
                    "duration": 0.2777777499999843
                },
                {
                    "name": "F4",
                    "midi": 65,
                    "time": 383.88885049999885,
                    "velocity": 0.31496062992125984,
                    "duration": 2.222221999999988
                },
                {
                    "name": "G#4",
                    "midi": 68,
                    "time": 383.88885049999885,
                    "velocity": 0.3700787401574803,
                    "duration": 2.222221999999988
                },
                {
                    "name": "C#5",
                    "midi": 73,
                    "time": 384.99996149999885,
                    "velocity": 0.31496062992125984,
                    "duration": 2.222221999999988
                },
                {
                    "name": "F5",
                    "midi": 77,
                    "time": 384.99996149999885,
                    "velocity": 0.3700787401574803,
                    "duration": 2.222221999999988
                },
                {
                    "name": "F#4",
                    "midi": 66,
                    "time": 386.11107249999884,
                    "velocity": 0.28346456692913385,
                    "duration": 2.222221999999988
                },
                {
                    "name": "A#4",
                    "midi": 70,
                    "time": 386.11107249999884,
                    "velocity": 0.3464566929133858,
                    "duration": 2.222221999999988
                },
                {
                    "name": "C5",
                    "midi": 72,
                    "time": 387.22218349999883,
                    "velocity": 0.2992125984251969,
                    "duration": 2.222221999999988
                },
                {
                    "name": "D#5",
                    "midi": 75,
                    "time": 387.22218349999883,
                    "velocity": 0.3543307086614173,
                    "duration": 2.222221999999988
                },
                {
                    "name": "F4",
                    "midi": 65,
                    "time": 388.33329449999883,
                    "velocity": 0.28346456692913385,
                    "duration": 2.222221999999988
                },
                {
                    "name": "G#4",
                    "midi": 68,
                    "time": 388.33329449999883,
                    "velocity": 0.33858267716535434,
                    "duration": 2.222221999999988
                },
                {
                    "name": "A#4",
                    "midi": 70,
                    "time": 389.4444054999988,
                    "velocity": 0.29133858267716534,
                    "duration": 2.222221999999988
                },
                {
                    "name": "C#5",
                    "midi": 73,
                    "time": 389.4444054999988,
                    "velocity": 0.3543307086614173,
                    "duration": 2.222221999999988
                },
                {
                    "name": "F#4",
                    "midi": 66,
                    "time": 390.5555164999988,
                    "velocity": 0.33070866141732286,
                    "duration": 1.111110999999994
                },
                {
                    "name": "D#4",
                    "midi": 63,
                    "time": 390.5555164999988,
                    "velocity": 0.2755905511811024,
                    "duration": 2.222221999999988
                },
                {
                    "name": "G#4",
                    "midi": 68,
                    "time": 391.6666274999988,
                    "velocity": 0.28346456692913385,
                    "duration": 0.8333332500000097
                },
                {
                    "name": "C5",
                    "midi": 72,
                    "time": 391.6666274999988,
                    "velocity": 0.33858267716535434,
                    "duration": 0.8333332500000097
                },
                {
                    "name": "F#4",
                    "midi": 66,
                    "time": 392.4999607499988,
                    "velocity": 0.2677165354330709,
                    "duration": 0.2777777499999843
                },
                {
                    "name": "A#4",
                    "midi": 70,
                    "time": 392.4999607499988,
                    "velocity": 0.31496062992125984,
                    "duration": 0.2777777499999843
                },
                {
                    "name": "F4",
                    "midi": 65,
                    "time": 392.7777384999988,
                    "velocity": 0.2755905511811024,
                    "duration": 4.444443999999976
                },
                {
                    "name": "G#4",
                    "midi": 68,
                    "time": 392.7777384999988,
                    "velocity": 0.33070866141732286,
                    "duration": 4.444443999999976
                },
                {
                    "name": "C#4",
                    "midi": 61,
                    "time": 397.2221824999988,
                    "velocity": 0.3937007874015748,
                    "duration": 2.222221999999988
                },
                {
                    "name": "G#4",
                    "midi": 68,
                    "time": 397.2221824999988,
                    "velocity": 0.3937007874015748,
                    "duration": 2.222221999999988
                },
                {
                    "name": "A#4",
                    "midi": 70,
                    "time": 397.2221824999988,
                    "velocity": 0.4645669291338583,
                    "duration": 2.222221999999988
                },
                {
                    "name": "C#4",
                    "midi": 61,
                    "time": 399.44440449999877,
                    "velocity": 0.4409448818897638,
                    "duration": 2.222221999999988
                },
                {
                    "name": "F#4",
                    "midi": 66,
                    "time": 399.44440449999877,
                    "velocity": 0.4409448818897638,
                    "duration": 2.222221999999988
                },
                {
                    "name": "A#4",
                    "midi": 70,
                    "time": 399.44440449999877,
                    "velocity": 0.5196850393700787,
                    "duration": 2.222221999999988
                },
                {
                    "name": "F#4",
                    "midi": 66,
                    "time": 401.66662649999876,
                    "velocity": 0.4409448818897638,
                    "duration": 2.222221999999988
                },
                {
                    "name": "G#4",
                    "midi": 68,
                    "time": 401.66662649999876,
                    "velocity": 0.4409448818897638,
                    "duration": 3.333332999999982
                },
                {
                    "name": "C#5",
                    "midi": 73,
                    "time": 401.66662649999876,
                    "velocity": 0.5196850393700787,
                    "duration": 3.333332999999982
                },
                {
                    "name": "F4",
                    "midi": 65,
                    "time": 403.88884849999874,
                    "velocity": 0.4566929133858268,
                    "duration": 1.111110999999994
                },
                {
                    "name": "F4",
                    "midi": 65,
                    "time": 406.11107049999873,
                    "velocity": 0.25984251968503935,
                    "duration": 4.444443999999976
                },
                {
                    "name": "C#4",
                    "midi": 61,
                    "time": 406.11107049999873,
                    "velocity": 0.2125984251968504,
                    "duration": 4.444443999999976
                }
            ],
            "controlChanges": {
                "7": [
                    {
                        "number": 7,
                        "time": 0,
                        "value": 0.7874015748031497
                    }
                ],
                "10": [
                    {
                        "number": 10,
                        "time": 0,
                        "value": 0.5039370078740157
                    }
                ],
                "91": [
                    {
                        "number": 91,
                        "time": 0,
                        "value": 1
                    },
                    {
                        "number": 91,
                        "time": 330.5555224999992,
                        "value": 1
                    }
                ]
            },
            "id": 1,
            "name": "Piano right",
            "instrumentNumber": 0,
            "instrument": "acoustic grand piano",
            "instrumentFamily": "piano",
            "channelNumber": 0,
            "isPercussion": false
        },
        {
            "startTime": 0,
            "duration": 410.5555144999968,
            "length": 1066,
            "notes": [
                {
                    "name": "C#2",
                    "midi": 37,
                    "time": 0,
                    "velocity": 0.15748031496062992,
                    "duration": 0.3703703333333333
                },
                {
                    "name": "G#2",
                    "midi": 44,
                    "time": 0.3703703333333333,
                    "velocity": 0.16535433070866143,
                    "duration": 0.3703703333333333
                },
                {
                    "name": "G#3",
                    "midi": 56,
                    "time": 0.7407406666666666,
                    "velocity": 0.1732283464566929,
                    "duration": 0.37037033333333336
                },
                {
                    "name": "C#3",
                    "midi": 49,
                    "time": 1.111111,
                    "velocity": 0.18110236220472442,
                    "duration": 0.37037033333333325
                },
                {
                    "name": "G#2",
                    "midi": 44,
                    "time": 1.4814813333333332,
                    "velocity": 0.1889763779527559,
                    "duration": 0.37037033333333325
                },
                {
                    "name": "C#2",
                    "midi": 37,
                    "time": 1.8518516666666665,
                    "velocity": 0.2047244094488189,
                    "duration": 0.37037033333333347
                },
                {
                    "name": "G#2",
                    "midi": 44,
                    "time": 2.222222,
                    "velocity": 0.2125984251968504,
                    "duration": 0.37037033333333325
                },
                {
                    "name": "C#3",
                    "midi": 49,
                    "time": 2.592592333333333,
                    "velocity": 0.2204724409448819,
                    "duration": 0.37037033333333325
                },
                {
                    "name": "G#3",
                    "midi": 56,
                    "time": 2.9629626666666664,
                    "velocity": 0.2283464566929134,
                    "duration": 0.37037033333333325
                },
                {
                    "name": "C#3",
                    "midi": 49,
                    "time": 3.3333329999999997,
                    "velocity": 0.2440944881889764,
                    "duration": 0.37037033333333325
                },
                {
                    "name": "G#2",
                    "midi": 44,
                    "time": 3.703703333333333,
                    "velocity": 0.25196850393700787,
                    "duration": 0.37037033333333325
                },
                {
                    "name": "C#2",
                    "midi": 37,
                    "time": 4.074073666666666,
                    "velocity": 0.25984251968503935,
                    "duration": 0.3703703333333337
                },
                {
                    "name": "G#2",
                    "midi": 44,
                    "time": 4.444444,
                    "velocity": 0.2677165354330709,
                    "duration": 0.3703703333333337
                },
                {
                    "name": "C#3",
                    "midi": 49,
                    "time": 4.8148143333333335,
                    "velocity": 0.2677165354330709,
                    "duration": 0.3703703333333337
                },
                {
                    "name": "G#3",
                    "midi": 56,
                    "time": 5.185184666666667,
                    "velocity": 0.25984251968503935,
                    "duration": 0.3703703333333337
                },
                {
                    "name": "C#3",
                    "midi": 49,
                    "time": 5.555555000000001,
                    "velocity": 0.25196850393700787,
                    "duration": 0.3703703333333337
                },
                {
                    "name": "G#2",
                    "midi": 44,
                    "time": 5.925925333333335,
                    "velocity": 0.2440944881889764,
                    "duration": 0.3703703333333337
                },
                {
                    "name": "C#2",
                    "midi": 37,
                    "time": 6.296295666666668,
                    "velocity": 0.23622047244094488,
                    "duration": 0.3703703333333337
                },
                {
                    "name": "G#2",
                    "midi": 44,
                    "time": 6.666666000000002,
                    "velocity": 0.23622047244094488,
                    "duration": 0.3703703333333337
                },
                {
                    "name": "C#3",
                    "midi": 49,
                    "time": 7.037036333333336,
                    "velocity": 0.2283464566929134,
                    "duration": 0.3703703333333337
                },
                {
                    "name": "G#3",
                    "midi": 56,
                    "time": 7.407406666666669,
                    "velocity": 0.2204724409448819,
                    "duration": 0.3703703333333337
                },
                {
                    "name": "C#3",
                    "midi": 49,
                    "time": 7.777777000000003,
                    "velocity": 0.2125984251968504,
                    "duration": 0.3703703333333328
                },
                {
                    "name": "G#2",
                    "midi": 44,
                    "time": 8.148147333333336,
                    "velocity": 0.2047244094488189,
                    "duration": 0.3703703333333337
                },
                {
                    "name": "C#2",
                    "midi": 37,
                    "time": 8.51851766666667,
                    "velocity": 0.1968503937007874,
                    "duration": 0.3703703333333337
                },
                {
                    "name": "G#2",
                    "midi": 44,
                    "time": 8.888888000000003,
                    "velocity": 0.2047244094488189,
                    "duration": 0.3703703333333337
                },
                {
                    "name": "C#3",
                    "midi": 49,
                    "time": 9.259258333333337,
                    "velocity": 0.1968503937007874,
                    "duration": 0.3703703333333337
                },
                {
                    "name": "G#3",
                    "midi": 56,
                    "time": 9.62962866666667,
                    "velocity": 0.2047244094488189,
                    "duration": 0.3703703333333337
                },
                {
                    "name": "C#3",
                    "midi": 49,
                    "time": 9.999999000000004,
                    "velocity": 0.2125984251968504,
                    "duration": 0.3703703333333337
                },
                {
                    "name": "G#2",
                    "midi": 44,
                    "time": 10.370369333333338,
                    "velocity": 0.2204724409448819,
                    "duration": 0.3703703333333337
                },
                {
                    "name": "C#2",
                    "midi": 37,
                    "time": 10.740739666666672,
                    "velocity": 0.2283464566929134,
                    "duration": 0.3703703333333337
                },
                {
                    "name": "G#2",
                    "midi": 44,
                    "time": 11.111110000000005,
                    "velocity": 0.2204724409448819,
                    "duration": 0.3703703333333337
                },
                {
                    "name": "C#3",
                    "midi": 49,
                    "time": 11.481480333333339,
                    "velocity": 0.2283464566929134,
                    "duration": 0.3703703333333337
                },
                {
                    "name": "B3",
                    "midi": 59,
                    "time": 11.851850666666673,
                    "velocity": 0.23622047244094488,
                    "duration": 0.3703703333333337
                },
                {
                    "name": "C#3",
                    "midi": 49,
                    "time": 12.222221000000006,
                    "velocity": 0.23622047244094488,
                    "duration": 0.3703703333333337
                },
                {
                    "name": "G#2",
                    "midi": 44,
                    "time": 12.59259133333334,
                    "velocity": 0.2440944881889764,
                    "duration": 0.3703703333333337
                },
                {
                    "name": "C#2",
                    "midi": 37,
                    "time": 12.962961666666674,
                    "velocity": 0.25196850393700787,
                    "duration": 0.3703703333333337
                },
                {
                    "name": "G#2",
                    "midi": 44,
                    "time": 13.333332000000008,
                    "velocity": 0.25984251968503935,
                    "duration": 0.3703703333333337
                },
                {
                    "name": "C#3",
                    "midi": 49,
                    "time": 13.703702333333341,
                    "velocity": 0.2440944881889764,
                    "duration": 0.3703703333333337
                },
                {
                    "name": "B3",
                    "midi": 59,
                    "time": 14.074072666666675,
                    "velocity": 0.23622047244094488,
                    "duration": 0.3703703333333337
                },
                {
                    "name": "C#3",
                    "midi": 49,
                    "time": 14.444443000000009,
                    "velocity": 0.23622047244094488,
                    "duration": 0.3703703333333337
                },
                {
                    "name": "G#2",
                    "midi": 44,
                    "time": 14.814813333333342,
                    "velocity": 0.2283464566929134,
                    "duration": 0.3703703333333337
                },
                {
                    "name": "C#2",
                    "midi": 37,
                    "time": 15.185183666666676,
                    "velocity": 0.2204724409448819,
                    "duration": 0.3703703333333337
                },
                {
                    "name": "A2",
                    "midi": 45,
                    "time": 15.55555400000001,
                    "velocity": 0.2204724409448819,
                    "duration": 0.3703703333333319
                },
                {
                    "name": "C#3",
                    "midi": 49,
                    "time": 15.925924333333342,
                    "velocity": 0.2204724409448819,
                    "duration": 0.3703703333333337
                },
                {
                    "name": "A3",
                    "midi": 57,
                    "time": 16.296294666666675,
                    "velocity": 0.2204724409448819,
                    "duration": 0.3703703333333337
                },
                {
                    "name": "C#3",
                    "midi": 49,
                    "time": 16.66666500000001,
                    "velocity": 0.2204724409448819,
                    "duration": 0.3703703333333337
                },
                {
                    "name": "A2",
                    "midi": 45,
                    "time": 17.037035333333343,
                    "velocity": 0.2204724409448819,
                    "duration": 0.3703703333333337
                },
                {
                    "name": "C#2",
                    "midi": 37,
                    "time": 17.407405666666676,
                    "velocity": 0.2204724409448819,
                    "duration": 0.3703703333333337
                },
                {
                    "name": "A2",
                    "midi": 45,
                    "time": 17.77777600000001,
                    "velocity": 0.25196850393700787,
                    "duration": 0.3703703333333337
                },
                {
                    "name": "D3",
                    "midi": 50,
                    "time": 18.148146333333344,
                    "velocity": 0.2283464566929134,
                    "duration": 0.3703703333333337
                },
                {
                    "name": "A3",
                    "midi": 57,
                    "time": 18.518516666666677,
                    "velocity": 0.2283464566929134,
                    "duration": 0.3703703333333337
                },
                {
                    "name": "D3",
                    "midi": 50,
                    "time": 18.88888700000001,
                    "velocity": 0.2204724409448819,
                    "duration": 0.3703703333333337
                },
                {
                    "name": "A2",
                    "midi": 45,
                    "time": 19.259257333333345,
                    "velocity": 0.2125984251968504,
                    "duration": 0.3703703333333337
                },
                {
                    "name": "C#2",
                    "midi": 37,
                    "time": 19.62962766666668,
                    "velocity": 0.2047244094488189,
                    "duration": 0.3703703333333337
                },
                {
                    "name": "A2",
                    "midi": 45,
                    "time": 19.999998000000012,
                    "velocity": 0.1968503937007874,
                    "duration": 0.3703703333333337
                },
                {
                    "name": "D3",
                    "midi": 50,
                    "time": 20.370368333333346,
                    "velocity": 0.1889763779527559,
                    "duration": 0.3703703333333337
                },
                {
                    "name": "A3",
                    "midi": 57,
                    "time": 20.74073866666668,
                    "velocity": 0.1889763779527559,
                    "duration": 0.3703703333333337
                },
                {
                    "name": "D3",
                    "midi": 50,
                    "time": 21.111109000000013,
                    "velocity": 0.1889763779527559,
                    "duration": 0.3703703333333337
                },
                {
                    "name": "A2",
                    "midi": 45,
                    "time": 21.481479333333347,
                    "velocity": 0.1889763779527559,
                    "duration": 0.3703703333333337
                },
                {
                    "name": "C#2",
                    "midi": 37,
                    "time": 21.85184966666668,
                    "velocity": 0.1889763779527559,
                    "duration": 0.3703703333333337
                },
                {
                    "name": "G#2",
                    "midi": 44,
                    "time": 22.222220000000014,
                    "velocity": 0.2047244094488189,
                    "duration": 0.3703703333333337
                },
                {
                    "name": "E3",
                    "midi": 52,
                    "time": 22.592590333333348,
                    "velocity": 0.1889763779527559,
                    "duration": 0.3703703333333337
                },
                {
                    "name": "C#4",
                    "midi": 61,
                    "time": 22.96296066666668,
                    "velocity": 0.18110236220472442,
                    "duration": 0.3703703333333337
                },
                {
                    "name": "E3",
                    "midi": 52,
                    "time": 23.333331000000015,
                    "velocity": 0.18110236220472442,
                    "duration": 0.3703703333333337
                },
                {
                    "name": "G#2",
                    "midi": 44,
                    "time": 23.70370133333335,
                    "velocity": 0.18110236220472442,
                    "duration": 0.3703703333333337
                },
                {
                    "name": "C#2",
                    "midi": 37,
                    "time": 24.074071666666683,
                    "velocity": 0.18110236220472442,
                    "duration": 0.3703703333333337
                },
                {
                    "name": "B1",
                    "midi": 35,
                    "time": 24.444442000000016,
                    "velocity": 0.2047244094488189,
                    "duration": 0.37037033333333724
                },
                {
                    "name": "B2",
                    "midi": 47,
                    "time": 24.814812333333354,
                    "velocity": 0.1889763779527559,
                    "duration": 0.3703703333333337
                },
                {
                    "name": "D#4",
                    "midi": 63,
                    "time": 25.185182666666687,
                    "velocity": 0.1889763779527559,
                    "duration": 0.3703703333333337
                },
                {
                    "name": "A3",
                    "midi": 57,
                    "time": 25.55555300000002,
                    "velocity": 0.1889763779527559,
                    "duration": 0.3703703333333337
                },
                {
                    "name": "B2",
                    "midi": 47,
                    "time": 25.925923333333355,
                    "velocity": 0.1889763779527559,
                    "duration": 0.3703703333333337
                },
                {
                    "name": "B1",
                    "midi": 35,
                    "time": 26.29629366666669,
                    "velocity": 0.1889763779527559,
                    "duration": 0.3703703333333337
                },
                {
                    "name": "E2",
                    "midi": 40,
                    "time": 26.666664000000022,
                    "velocity": 0.2047244094488189,
                    "duration": 0.3703703333333337
                },
                {
                    "name": "B2",
                    "midi": 47,
                    "time": 27.037034333333356,
                    "velocity": 0.2125984251968504,
                    "duration": 0.3703703333333337
                },
                {
                    "name": "E4",
                    "midi": 64,
                    "time": 27.40740466666669,
                    "velocity": 0.2204724409448819,
                    "duration": 0.3703703333333337
                },
                {
                    "name": "G#3",
                    "midi": 56,
                    "time": 27.777775000000023,
                    "velocity": 0.2204724409448819,
                    "duration": 0.3703703333333337
                },
                {
                    "name": "B2",
                    "midi": 47,
                    "time": 28.148145333333357,
                    "velocity": 0.2283464566929134,
                    "duration": 0.3703703333333337
                },
                {
                    "name": "D#2",
                    "midi": 39,
                    "time": 28.51851566666669,
                    "velocity": 0.23622047244094488,
                    "duration": 0.3703703333333337
                },
                {
                    "name": "C#2",
                    "midi": 37,
                    "time": 28.888886000000024,
                    "velocity": 0.2440944881889764,
                    "duration": 0.3703703333333337
                },
                {
                    "name": "G#2",
                    "midi": 44,
                    "time": 29.259256333333358,
                    "velocity": 0.25196850393700787,
                    "duration": 0.3703703333333337
                },
                {
                    "name": "G#3",
                    "midi": 56,
                    "time": 29.62962666666669,
                    "velocity": 0.25984251968503935,
                    "duration": 0.3703703333333337
                },
                {
                    "name": "C#3",
                    "midi": 49,
                    "time": 29.999997000000025,
                    "velocity": 0.2677165354330709,
                    "duration": 0.3703703333333337
                },
                {
                    "name": "G#2",
                    "midi": 44,
                    "time": 30.37036733333336,
                    "velocity": 0.2755905511811024,
                    "duration": 0.3703703333333337
                },
                {
                    "name": "C#2",
                    "midi": 37,
                    "time": 30.740737666666693,
                    "velocity": 0.28346456692913385,
                    "duration": 0.3703703333333337
                },
                {
                    "name": "G#2",
                    "midi": 44,
                    "time": 31.111108000000026,
                    "velocity": 0.30708661417322836,
                    "duration": 0.3703703333333337
                },
                {
                    "name": "C#3",
                    "midi": 49,
                    "time": 31.48147833333336,
                    "velocity": 0.30708661417322836,
                    "duration": 0.3703703333333337
                },
                {
                    "name": "B3",
                    "midi": 59,
                    "time": 31.851848666666694,
                    "velocity": 0.2992125984251969,
                    "duration": 0.37037033333333014
                },
                {
                    "name": "C#3",
                    "midi": 49,
                    "time": 32.222219000000024,
                    "velocity": 0.2992125984251969,
                    "duration": 0.3703703333333337
                },
                {
                    "name": "G#2",
                    "midi": 44,
                    "time": 32.59258933333336,
                    "velocity": 0.29133858267716534,
                    "duration": 0.3703703333333337
                },
                {
                    "name": "C#2",
                    "midi": 37,
                    "time": 32.96295966666669,
                    "velocity": 0.29133858267716534,
                    "duration": 0.3703703333333337
                },
                {
                    "name": "A2",
                    "midi": 45,
                    "time": 33.333330000000025,
                    "velocity": 0.28346456692913385,
                    "duration": 0.3703703333333337
                },
                {
                    "name": "C#3",
                    "midi": 49,
                    "time": 33.70370033333336,
                    "velocity": 0.28346456692913385,
                    "duration": 0.3703703333333337
                },
                {
                    "name": "A3",
                    "midi": 57,
                    "time": 34.07407066666669,
                    "velocity": 0.2755905511811024,
                    "duration": 0.3703703333333337
                },
                {
                    "name": "C#3",
                    "midi": 49,
                    "time": 34.444441000000026,
                    "velocity": 0.2677165354330709,
                    "duration": 0.3703703333333337
                },
                {
                    "name": "A2",
                    "midi": 45,
                    "time": 34.81481133333336,
                    "velocity": 0.2677165354330709,
                    "duration": 0.3703703333333337
                },
                {
                    "name": "C#2",
                    "midi": 37,
                    "time": 35.18518166666669,
                    "velocity": 0.25984251968503935,
                    "duration": 0.3703703333333337
                },
                {
                    "name": "A2",
                    "midi": 45,
                    "time": 35.55555200000003,
                    "velocity": 0.23622047244094488,
                    "duration": 0.3703703333333337
                },
                {
                    "name": "D3",
                    "midi": 50,
                    "time": 35.92592233333336,
                    "velocity": 0.2204724409448819,
                    "duration": 0.3703703333333337
                },
                {
                    "name": "A3",
                    "midi": 57,
                    "time": 36.296292666666695,
                    "velocity": 0.2047244094488189,
                    "duration": 0.3703703333333337
                },
                {
                    "name": "D3",
                    "midi": 50,
                    "time": 36.66666300000003,
                    "velocity": 0.2125984251968504,
                    "duration": 0.3703703333333337
                },
                {
                    "name": "A2",
                    "midi": 45,
                    "time": 37.03703333333336,
                    "velocity": 0.1968503937007874,
                    "duration": 0.3703703333333337
                },
                {
                    "name": "C#2",
                    "midi": 37,
                    "time": 37.407403666666696,
                    "velocity": 0.1968503937007874,
                    "duration": 0.3703703333333337
                },
                {
                    "name": "A2",
                    "midi": 45,
                    "time": 37.77777400000003,
                    "velocity": 0.1968503937007874,
                    "duration": 0.3703703333333337
                },
                {
                    "name": "D3",
                    "midi": 50,
                    "time": 38.14814433333336,
                    "velocity": 0.1889763779527559,
                    "duration": 0.3703703333333337
                },
                {
                    "name": "A3",
                    "midi": 57,
                    "time": 38.5185146666667,
                    "velocity": 0.1889763779527559,
                    "duration": 0.3703703333333337
                },
                {
                    "name": "D3",
                    "midi": 50,
                    "time": 38.88888500000003,
                    "velocity": 0.1889763779527559,
                    "duration": 0.3703703333333337
                },
                {
                    "name": "A2",
                    "midi": 45,
                    "time": 39.259255333333364,
                    "velocity": 0.1889763779527559,
                    "duration": 0.3703703333333337
                },
                {
                    "name": "C#2",
                    "midi": 37,
                    "time": 39.6296256666667,
                    "velocity": 0.1889763779527559,
                    "duration": 0.3703703333333337
                },
                {
                    "name": "A2",
                    "midi": 45,
                    "time": 39.99999600000003,
                    "velocity": 0.2047244094488189,
                    "duration": 0.3703703333333337
                },
                {
                    "name": "D3",
                    "midi": 50,
                    "time": 40.370366333333365,
                    "velocity": 0.1889763779527559,
                    "duration": 0.3703703333333337
                },
                {
                    "name": "A3",
                    "midi": 57,
                    "time": 40.7407366666667,
                    "velocity": 0.18110236220472442,
                    "duration": 0.3703703333333337
                },
                {
                    "name": "D3",
                    "midi": 50,
                    "time": 41.11110700000003,
                    "velocity": 0.18110236220472442,
                    "duration": 0.3703703333333337
                },
                {
                    "name": "A2",
                    "midi": 45,
                    "time": 41.481477333333366,
                    "velocity": 0.18110236220472442,
                    "duration": 0.3703703333333337
                },
                {
                    "name": "C#2",
                    "midi": 37,
                    "time": 41.8518476666667,
                    "velocity": 0.18110236220472442,
                    "duration": 0.3703703333333337
                },
                {
                    "name": "A2",
                    "midi": 45,
                    "time": 42.222218000000034,
                    "velocity": 0.2047244094488189,
                    "duration": 0.3703703333333337
                },
                {
                    "name": "D3",
                    "midi": 50,
                    "time": 42.59258833333337,
                    "velocity": 0.1889763779527559,
                    "duration": 0.3703703333333337
                },
                {
                    "name": "A3",
                    "midi": 57,
                    "time": 42.9629586666667,
                    "velocity": 0.1889763779527559,
                    "duration": 0.3703703333333337
                },
                {
                    "name": "D3",
                    "midi": 50,
                    "time": 43.333329000000035,
                    "velocity": 0.1889763779527559,
                    "duration": 0.3703703333333337
                },
                {
                    "name": "A2",
                    "midi": 45,
                    "time": 43.70369933333337,
                    "velocity": 0.1889763779527559,
                    "duration": 0.3703703333333337
                },
                {
                    "name": "C#2",
                    "midi": 37,
                    "time": 44.0740696666667,
                    "velocity": 0.1889763779527559,
                    "duration": 0.3703703333333337
                },
                {
                    "name": "G#2",
                    "midi": 44,
                    "time": 44.444440000000036,
                    "velocity": 0.2677165354330709,
                    "duration": 0.3703703333333337
                },
                {
                    "name": "G#3",
                    "midi": 56,
                    "time": 44.81481033333337,
                    "velocity": 0.2204724409448819,
                    "duration": 0.3703703333333337
                },
                {
                    "name": "C#4",
                    "midi": 61,
                    "time": 45.1851806666667,
                    "velocity": 0.2204724409448819,
                    "duration": 0.3703703333333337
                },
                {
                    "name": "E3",
                    "midi": 52,
                    "time": 45.55555100000004,
                    "velocity": 0.2204724409448819,
                    "duration": 0.3703703333333337
                },
                {
                    "name": "G#2",
                    "midi": 44,
                    "time": 45.92592133333337,
                    "velocity": 0.2283464566929134,
                    "duration": 0.3703703333333337
                },
                {
                    "name": "C#2",
                    "midi": 37,
                    "time": 46.296291666666704,
                    "velocity": 0.2283464566929134,
                    "duration": 0.3703703333333337
                },
                {
                    "name": "C#2",
                    "midi": 37,
                    "time": 46.66666200000004,
                    "velocity": 0.2440944881889764,
                    "duration": 0.3703703333333337
                },
                {
                    "name": "G#2",
                    "midi": 44,
                    "time": 47.03703233333337,
                    "velocity": 0.1889763779527559,
                    "duration": 0.3703703333333337
                },
                {
                    "name": "C4",
                    "midi": 60,
                    "time": 47.407402666666705,
                    "velocity": 0.1889763779527559,
                    "duration": 0.3703703333333337
                },
                {
                    "name": "F#3",
                    "midi": 54,
                    "time": 47.77777300000004,
                    "velocity": 0.1889763779527559,
                    "duration": 0.3703703333333337
                },
                {
                    "name": "G#2",
                    "midi": 44,
                    "time": 48.14814333333337,
                    "velocity": 0.1889763779527559,
                    "duration": 0.3703703333333337
                },
                {
                    "name": "C#2",
                    "midi": 37,
                    "time": 48.518513666666706,
                    "velocity": 0.1889763779527559,
                    "duration": 0.3703703333333337
                },
                {
                    "name": "C#2",
                    "midi": 37,
                    "time": 48.88888400000004,
                    "velocity": 0.2125984251968504,
                    "duration": 0.3703703333333337
                },
                {
                    "name": "G#2",
                    "midi": 44,
                    "time": 49.259254333333374,
                    "velocity": 0.2125984251968504,
                    "duration": 0.3703703333333337
                },
                {
                    "name": "C#4",
                    "midi": 61,
                    "time": 49.62962466666671,
                    "velocity": 0.2204724409448819,
                    "duration": 0.3703703333333337
                },
                {
                    "name": "E3",
                    "midi": 52,
                    "time": 49.99999500000004,
                    "velocity": 0.2283464566929134,
                    "duration": 0.3703703333333337
                },
                {
                    "name": "G#2",
                    "midi": 44,
                    "time": 50.370365333333375,
                    "velocity": 0.2283464566929134,
                    "duration": 0.3703703333333337
                },
                {
                    "name": "C#2",
                    "midi": 37,
                    "time": 50.74073566666671,
                    "velocity": 0.23622047244094488,
                    "duration": 0.3703703333333337
                },
                {
                    "name": "C#2",
                    "midi": 37,
                    "time": 51.11110600000004,
                    "velocity": 0.23622047244094488,
                    "duration": 0.3703703333333337
                },
                {
                    "name": "G#2",
                    "midi": 44,
                    "time": 51.481476333333376,
                    "velocity": 0.2440944881889764,
                    "duration": 0.3703703333333337
                },
                {
                    "name": "C4",
                    "midi": 60,
                    "time": 51.85184666666671,
                    "velocity": 0.25196850393700787,
                    "duration": 0.3703703333333337
                },
                {
                    "name": "F#3",
                    "midi": 54,
                    "time": 52.22221700000004,
                    "velocity": 0.25196850393700787,
                    "duration": 0.3703703333333337
                },
                {
                    "name": "G#2",
                    "midi": 44,
                    "time": 52.59258733333338,
                    "velocity": 0.25984251968503935,
                    "duration": 0.3703703333333337
                },
                {
                    "name": "C#2",
                    "midi": 37,
                    "time": 52.96295766666671,
                    "velocity": 0.25984251968503935,
                    "duration": 0.3703703333333337
                },
                {
                    "name": "C#2",
                    "midi": 37,
                    "time": 53.333328000000044,
                    "velocity": 0.2677165354330709,
                    "duration": 0.3703703333333337
                },
                {
                    "name": "G#2",
                    "midi": 44,
                    "time": 53.70369833333338,
                    "velocity": 0.2283464566929134,
                    "duration": 0.3703703333333337
                },
                {
                    "name": "C#4",
                    "midi": 61,
                    "time": 54.07406866666671,
                    "velocity": 0.23622047244094488,
                    "duration": 0.3703703333333337
                },
                {
                    "name": "E3",
                    "midi": 52,
                    "time": 54.444439000000045,
                    "velocity": 0.23622047244094488,
                    "duration": 0.3703703333333337
                },
                {
                    "name": "G#2",
                    "midi": 44,
                    "time": 54.81480933333338,
                    "velocity": 0.23622047244094488,
                    "duration": 0.3703703333333337
                },
                {
                    "name": "C#2",
                    "midi": 37,
                    "time": 55.18517966666671,
                    "velocity": 0.23622047244094488,
                    "duration": 0.3703703333333337
                },
                {
                    "name": "G#1",
                    "midi": 32,
                    "time": 55.555550000000046,
                    "velocity": 0.2047244094488189,
                    "duration": 0.3703703333333337
                },
                {
                    "name": "G#2",
                    "midi": 44,
                    "time": 55.92592033333338,
                    "velocity": 0.1889763779527559,
                    "duration": 0.3703703333333337
                },
                {
                    "name": "C4",
                    "midi": 60,
                    "time": 56.296290666666714,
                    "velocity": 0.1889763779527559,
                    "duration": 0.3703703333333337
                },
                {
                    "name": "F#3",
                    "midi": 54,
                    "time": 56.66666100000005,
                    "velocity": 0.1889763779527559,
                    "duration": 0.3703703333333337
                },
                {
                    "name": "G#2",
                    "midi": 44,
                    "time": 57.03703133333338,
                    "velocity": 0.1889763779527559,
                    "duration": 0.3703703333333337
                },
                {
                    "name": "G#1",
                    "midi": 32,
                    "time": 57.407401666666715,
                    "velocity": 0.1889763779527559,
                    "duration": 0.3703703333333337
                },
                {
                    "name": "C#2",
                    "midi": 37,
                    "time": 57.77777200000005,
                    "velocity": 0.2047244094488189,
                    "duration": 0.3703703333333337
                },
                {
                    "name": "G#2",
                    "midi": 44,
                    "time": 58.14814233333338,
                    "velocity": 0.18110236220472442,
                    "duration": 0.3703703333333337
                },
                {
                    "name": "C#4",
                    "midi": 61,
                    "time": 58.518512666666716,
                    "velocity": 0.1889763779527559,
                    "duration": 0.3703703333333337
                },
                {
                    "name": "E3",
                    "midi": 52,
                    "time": 58.88888300000005,
                    "velocity": 0.1889763779527559,
                    "duration": 0.3703703333333337
                },
                {
                    "name": "G#2",
                    "midi": 44,
                    "time": 59.25925333333338,
                    "velocity": 0.1889763779527559,
                    "duration": 0.3703703333333337
                },
                {
                    "name": "C#2",
                    "midi": 37,
                    "time": 59.62962366666672,
                    "velocity": 0.1889763779527559,
                    "duration": 0.3703703333333337
                },
                {
                    "name": "C#2",
                    "midi": 37,
                    "time": 59.99999400000005,
                    "velocity": 0.2047244094488189,
                    "duration": 0.3703703333333337
                },
                {
                    "name": "G#2",
                    "midi": 44,
                    "time": 60.370364333333384,
                    "velocity": 0.1889763779527559,
                    "duration": 0.3703703333333337
                },
                {
                    "name": "C4",
                    "midi": 60,
                    "time": 60.74073466666672,
                    "velocity": 0.1889763779527559,
                    "duration": 0.3703703333333337
                },
                {
                    "name": "F#3",
                    "midi": 54,
                    "time": 61.11110500000005,
                    "velocity": 0.1889763779527559,
                    "duration": 0.3703703333333337
                },
                {
                    "name": "G#2",
                    "midi": 44,
                    "time": 61.481475333333385,
                    "velocity": 0.1889763779527559,
                    "duration": 0.3703703333333337
                },
                {
                    "name": "C#2",
                    "midi": 37,
                    "time": 61.85184566666672,
                    "velocity": 0.1889763779527559,
                    "duration": 0.3703703333333337
                },
                {
                    "name": "C#2",
                    "midi": 37,
                    "time": 62.22221600000005,
                    "velocity": 0.2677165354330709,
                    "duration": 0.3703703333333337
                },
                {
                    "name": "G#2",
                    "midi": 44,
                    "time": 62.59258633333339,
                    "velocity": 0.25196850393700787,
                    "duration": 0.3703703333333337
                },
                {
                    "name": "C#4",
                    "midi": 61,
                    "time": 62.96295666666672,
                    "velocity": 0.25196850393700787,
                    "duration": 0.3703703333333337
                },
                {
                    "name": "E3",
                    "midi": 52,
                    "time": 63.333327000000054,
                    "velocity": 0.25196850393700787,
                    "duration": 0.3703703333333337
                },
                {
                    "name": "G#2",
                    "midi": 44,
                    "time": 63.70369733333339,
                    "velocity": 0.2440944881889764,
                    "duration": 0.3703703333333337
                },
                {
                    "name": "C#2",
                    "midi": 37,
                    "time": 64.07406766666672,
                    "velocity": 0.2440944881889764,
                    "duration": 0.3703703333333266
                },
                {
                    "name": "C#2",
                    "midi": 37,
                    "time": 64.44443800000005,
                    "velocity": 0.2047244094488189,
                    "duration": 0.3703703333333408
                },
                {
                    "name": "G#2",
                    "midi": 44,
                    "time": 64.81480833333339,
                    "velocity": 0.1889763779527559,
                    "duration": 0.3703703333333266
                },
                {
                    "name": "C4",
                    "midi": 60,
                    "time": 65.18517866666672,
                    "velocity": 0.1889763779527559,
                    "duration": 0.3703703333333266
                },
                {
                    "name": "F#3",
                    "midi": 54,
                    "time": 65.55554900000004,
                    "velocity": 0.1889763779527559,
                    "duration": 0.3703703333333266
                },
                {
                    "name": "G#2",
                    "midi": 44,
                    "time": 65.92591933333337,
                    "velocity": 0.1889763779527559,
                    "duration": 0.3703703333333266
                },
                {
                    "name": "C#2",
                    "midi": 37,
                    "time": 66.2962896666667,
                    "velocity": 0.1889763779527559,
                    "duration": 0.3703703333333266
                },
                {
                    "name": "C#2",
                    "midi": 37,
                    "time": 66.66666000000002,
                    "velocity": 0.2047244094488189,
                    "duration": 0.3703703333333266
                },
                {
                    "name": "G#2",
                    "midi": 44,
                    "time": 67.03703033333335,
                    "velocity": 0.2047244094488189,
                    "duration": 0.3703703333333266
                },
                {
                    "name": "C#4",
                    "midi": 61,
                    "time": 67.40740066666667,
                    "velocity": 0.2125984251968504,
                    "duration": 0.3703703333333266
                },
                {
                    "name": "E3",
                    "midi": 52,
                    "time": 67.777771,
                    "velocity": 0.2125984251968504,
                    "duration": 0.3703703333333266
                },
                {
                    "name": "G#2",
                    "midi": 44,
                    "time": 68.14814133333333,
                    "velocity": 0.2204724409448819,
                    "duration": 0.3703703333333266
                },
                {
                    "name": "C#2",
                    "midi": 37,
                    "time": 68.51851166666665,
                    "velocity": 0.2283464566929134,
                    "duration": 0.3703703333333266
                },
                {
                    "name": "G#1",
                    "midi": 32,
                    "time": 68.88888199999998,
                    "velocity": 0.2283464566929134,
                    "duration": 0.3703703333333408
                },
                {
                    "name": "G#2",
                    "midi": 44,
                    "time": 69.25925233333332,
                    "velocity": 0.23622047244094488,
                    "duration": 0.3703703333333266
                },
                {
                    "name": "C4",
                    "midi": 60,
                    "time": 69.62962266666665,
                    "velocity": 0.23622047244094488,
                    "duration": 0.3703703333333266
                },
                {
                    "name": "F#3",
                    "midi": 54,
                    "time": 69.99999299999998,
                    "velocity": 0.2440944881889764,
                    "duration": 0.3703703333333266
                },
                {
                    "name": "G#2",
                    "midi": 44,
                    "time": 70.3703633333333,
                    "velocity": 0.25196850393700787,
                    "duration": 0.3703703333333266
                },
                {
                    "name": "G#1",
                    "midi": 32,
                    "time": 70.74073366666663,
                    "velocity": 0.25196850393700787,
                    "duration": 0.3703703333333266
                },
                {
                    "name": "C#2",
                    "midi": 37,
                    "time": 71.11110399999995,
                    "velocity": 0.2755905511811024,
                    "duration": 0.3703703333333266
                },
                {
                    "name": "G#2",
                    "midi": 44,
                    "time": 71.48147433333328,
                    "velocity": 0.2677165354330709,
                    "duration": 0.3703703333333266
                },
                {
                    "name": "C#4",
                    "midi": 61,
                    "time": 71.85184466666661,
                    "velocity": 0.25984251968503935,
                    "duration": 0.3703703333333266
                },
                {
                    "name": "E3",
                    "midi": 52,
                    "time": 72.22221499999993,
                    "velocity": 0.25196850393700787,
                    "duration": 0.3703703333333266
                },
                {
                    "name": "G#2",
                    "midi": 44,
                    "time": 72.59258533333326,
                    "velocity": 0.2440944881889764,
                    "duration": 0.3703703333333266
                },
                {
                    "name": "C#2",
                    "midi": 37,
                    "time": 72.96295566666659,
                    "velocity": 0.2283464566929134,
                    "duration": 0.3703703333333266
                },
                {
                    "name": "F#2",
                    "midi": 42,
                    "time": 73.33332599999991,
                    "velocity": 0.2047244094488189,
                    "duration": 0.3703703333333266
                },
                {
                    "name": "D3",
                    "midi": 50,
                    "time": 73.70369633333324,
                    "velocity": 0.1889763779527559,
                    "duration": 0.3703703333333266
                },
                {
                    "name": "A3",
                    "midi": 57,
                    "time": 74.07406666666657,
                    "velocity": 0.1889763779527559,
                    "duration": 0.3703703333333266
                },
                {
                    "name": "G#2",
                    "midi": 44,
                    "time": 74.4444369999999,
                    "velocity": 0.1889763779527559,
                    "duration": 0.3703703333333266
                },
                {
                    "name": "F#3",
                    "midi": 54,
                    "time": 74.81480733333322,
                    "velocity": 0.1889763779527559,
                    "duration": 0.3703703333333266
                },
                {
                    "name": "C4",
                    "midi": 60,
                    "time": 75.18517766666655,
                    "velocity": 0.1889763779527559,
                    "duration": 0.3703703333333266
                },
                {
                    "name": "C#2",
                    "midi": 37,
                    "time": 75.55554799999987,
                    "velocity": 0.2047244094488189,
                    "duration": 0.3703703333333266
                },
                {
                    "name": "G#2",
                    "midi": 44,
                    "time": 75.9259183333332,
                    "velocity": 0.18110236220472442,
                    "duration": 0.3703703333333266
                },
                {
                    "name": "C#4",
                    "midi": 61,
                    "time": 76.29628866666653,
                    "velocity": 0.1889763779527559,
                    "duration": 0.3703703333333266
                },
                {
                    "name": "E3",
                    "midi": 52,
                    "time": 76.66665899999985,
                    "velocity": 0.1889763779527559,
                    "duration": 0.3703703333333266
                },
                {
                    "name": "G#2",
                    "midi": 44,
                    "time": 77.03702933333318,
                    "velocity": 0.1889763779527559,
                    "duration": 0.3703703333333266
                },
                {
                    "name": "C#2",
                    "midi": 37,
                    "time": 77.4073996666665,
                    "velocity": 0.1889763779527559,
                    "duration": 0.36342588958333977
                },
                {
                    "name": "C#2",
                    "midi": 37,
                    "time": 77.77776999999985,
                    "velocity": 0.2047244094488189,
                    "duration": 0.3703703333333408
                },
                {
                    "name": "G#2",
                    "midi": 44,
                    "time": 78.14814033333319,
                    "velocity": 0.1889763779527559,
                    "duration": 0.3703703333333266
                },
                {
                    "name": "G#3",
                    "midi": 56,
                    "time": 78.51851066666651,
                    "velocity": 0.1889763779527559,
                    "duration": 0.3703703333333266
                },
                {
                    "name": "C#3",
                    "midi": 49,
                    "time": 78.88888099999984,
                    "velocity": 0.1889763779527559,
                    "duration": 0.3703703333333266
                },
                {
                    "name": "G#2",
                    "midi": 44,
                    "time": 79.25925133333317,
                    "velocity": 0.1889763779527559,
                    "duration": 0.3703703333333266
                },
                {
                    "name": "C#2",
                    "midi": 37,
                    "time": 79.6296216666665,
                    "velocity": 0.1889763779527559,
                    "duration": 0.3703703333333266
                },
                {
                    "name": "G#2",
                    "midi": 44,
                    "time": 79.99999199999982,
                    "velocity": 0.2047244094488189,
                    "duration": 0.3703703333333266
                },
                {
                    "name": "C#3",
                    "midi": 49,
                    "time": 80.37036233333315,
                    "velocity": 0.2047244094488189,
                    "duration": 0.3703703333333266
                },
                {
                    "name": "G#3",
                    "midi": 56,
                    "time": 80.74073266666647,
                    "velocity": 0.2047244094488189,
                    "duration": 0.3703703333333266
                },
                {
                    "name": "C#3",
                    "midi": 49,
                    "time": 81.1111029999998,
                    "velocity": 0.2125984251968504,
                    "duration": 0.3703703333333266
                },
                {
                    "name": "G#2",
                    "midi": 44,
                    "time": 81.48147333333313,
                    "velocity": 0.2204724409448819,
                    "duration": 0.3703703333333266
                },
                {
                    "name": "C#2",
                    "midi": 37,
                    "time": 81.85184366666645,
                    "velocity": 0.2204724409448819,
                    "duration": 0.3703703333333266
                },
                {
                    "name": "G#2",
                    "midi": 44,
                    "time": 82.22221399999978,
                    "velocity": 0.2283464566929134,
                    "duration": 0.3703703333333408
                },
                {
                    "name": "C#3",
                    "midi": 49,
                    "time": 82.59258433333312,
                    "velocity": 0.2283464566929134,
                    "duration": 0.3703703333333266
                },
                {
                    "name": "G#3",
                    "midi": 56,
                    "time": 82.96295466666645,
                    "velocity": 0.23622047244094488,
                    "duration": 0.3703703333333266
                },
                {
                    "name": "C#3",
                    "midi": 49,
                    "time": 83.33332499999977,
                    "velocity": 0.23622047244094488,
                    "duration": 0.3703703333333266
                },
                {
                    "name": "G#2",
                    "midi": 44,
                    "time": 83.7036953333331,
                    "velocity": 0.2440944881889764,
                    "duration": 0.3703703333333266
                },
                {
                    "name": "C#2",
                    "midi": 37,
                    "time": 84.07406566666643,
                    "velocity": 0.25196850393700787,
                    "duration": 0.3703703333333266
                },
                {
                    "name": "G#2",
                    "midi": 44,
                    "time": 84.44443599999975,
                    "velocity": 0.25196850393700787,
                    "duration": 0.3703703333333266
                },
                {
                    "name": "C#3",
                    "midi": 49,
                    "time": 84.81480633333308,
                    "velocity": 0.25196850393700787,
                    "duration": 0.3703703333333266
                },
                {
                    "name": "G#3",
                    "midi": 56,
                    "time": 85.18517666666641,
                    "velocity": 0.2440944881889764,
                    "duration": 0.3703703333333266
                },
                {
                    "name": "C#3",
                    "midi": 49,
                    "time": 85.55554699999973,
                    "velocity": 0.23622047244094488,
                    "duration": 0.3703703333333266
                },
                {
                    "name": "G#2",
                    "midi": 44,
                    "time": 85.92591733333306,
                    "velocity": 0.23622047244094488,
                    "duration": 0.3703703333333266
                },
                {
                    "name": "C#2",
                    "midi": 37,
                    "time": 86.29628766666639,
                    "velocity": 0.2283464566929134,
                    "duration": 0.3703703333333266
                },
                {
                    "name": "F#2",
                    "midi": 42,
                    "time": 86.66665799999971,
                    "velocity": 0.2204724409448819,
                    "duration": 0.3703703333333266
                },
                {
                    "name": "C#3",
                    "midi": 49,
                    "time": 87.03702833333304,
                    "velocity": 0.2125984251968504,
                    "duration": 0.3703703333333266
                },
                {
                    "name": "C#4",
                    "midi": 61,
                    "time": 87.40739866666637,
                    "velocity": 0.2125984251968504,
                    "duration": 0.3703703333333266
                },
                {
                    "name": "F#3",
                    "midi": 54,
                    "time": 87.7777689999997,
                    "velocity": 0.2047244094488189,
                    "duration": 0.3703703333333266
                },
                {
                    "name": "C#3",
                    "midi": 49,
                    "time": 88.14813933333302,
                    "velocity": 0.1968503937007874,
                    "duration": 0.3703703333333266
                },
                {
                    "name": "F#2",
                    "midi": 42,
                    "time": 88.51850966666635,
                    "velocity": 0.18110236220472442,
                    "duration": 0.3703703333333266
                },
                {
                    "name": "F#1",
                    "midi": 30,
                    "time": 88.88887999999967,
                    "velocity": 0.2047244094488189,
                    "duration": 0.3703703333333266
                },
                {
                    "name": "F#2",
                    "midi": 42,
                    "time": 89.259250333333,
                    "velocity": 0.1889763779527559,
                    "duration": 0.3703703333333266
                },
                {
                    "name": "A3",
                    "midi": 57,
                    "time": 89.62962066666633,
                    "velocity": 0.1889763779527559,
                    "duration": 0.3703703333333266
                },
                {
                    "name": "D3",
                    "midi": 50,
                    "time": 89.99999099999965,
                    "velocity": 0.1889763779527559,
                    "duration": 0.3703703333333266
                },
                {
                    "name": "F#2",
                    "midi": 42,
                    "time": 90.37036133333298,
                    "velocity": 0.1889763779527559,
                    "duration": 0.3703703333333266
                },
                {
                    "name": "F#1",
                    "midi": 30,
                    "time": 90.7407316666663,
                    "velocity": 0.1889763779527559,
                    "duration": 0.3703703333333266
                },
                {
                    "name": "G#1",
                    "midi": 32,
                    "time": 91.11110199999963,
                    "velocity": 0.2047244094488189,
                    "duration": 0.3703703333333266
                },
                {
                    "name": "G#2",
                    "midi": 44,
                    "time": 91.48147233333296,
                    "velocity": 0.1889763779527559,
                    "duration": 0.3703703333333266
                },
                {
                    "name": "G#3",
                    "midi": 56,
                    "time": 91.85184266666629,
                    "velocity": 0.1889763779527559,
                    "duration": 0.3703703333333266
                },
                {
                    "name": "D#3",
                    "midi": 51,
                    "time": 92.22221299999961,
                    "velocity": 0.1889763779527559,
                    "duration": 0.3703703333333266
                },
                {
                    "name": "G#2",
                    "midi": 44,
                    "time": 92.59258333333294,
                    "velocity": 0.1889763779527559,
                    "duration": 0.3703703333333266
                },
                {
                    "name": "G#1",
                    "midi": 32,
                    "time": 92.96295366666627,
                    "velocity": 0.1889763779527559,
                    "duration": 0.3703703333333266
                },
                {
                    "name": "C#2",
                    "midi": 37,
                    "time": 93.34258325833292,
                    "velocity": 0.2047244094488189,
                    "duration": 0.3703703333333266
                },
                {
                    "name": "G#2",
                    "midi": 44,
                    "time": 93.70832396249958,
                    "velocity": 0.1889763779527559,
                    "duration": 0.3703703333333408
                },
                {
                    "name": "C#4",
                    "midi": 61,
                    "time": 94.07406466666625,
                    "velocity": 0.18110236220472442,
                    "duration": 0.3703703333333408
                },
                {
                    "name": "E3",
                    "midi": 52,
                    "time": 94.44443499999959,
                    "velocity": 0.18110236220472442,
                    "duration": 0.3703703333333266
                },
                {
                    "name": "G#2",
                    "midi": 44,
                    "time": 94.81480533333291,
                    "velocity": 0.18110236220472442,
                    "duration": 0.3703703333333266
                },
                {
                    "name": "C#2",
                    "midi": 37,
                    "time": 95.18517566666624,
                    "velocity": 0.18110236220472442,
                    "duration": 0.3703703333333266
                },
                {
                    "name": "B1",
                    "midi": 35,
                    "time": 95.55554599999957,
                    "velocity": 0.2047244094488189,
                    "duration": 0.3703703333333408
                },
                {
                    "name": "B2",
                    "midi": 47,
                    "time": 95.9259163333329,
                    "velocity": 0.1889763779527559,
                    "duration": 0.3703703333333266
                },
                {
                    "name": "D#4",
                    "midi": 63,
                    "time": 96.29628666666623,
                    "velocity": 0.1889763779527559,
                    "duration": 0.3703703333333266
                },
                {
                    "name": "A3",
                    "midi": 57,
                    "time": 96.66665699999956,
                    "velocity": 0.1889763779527559,
                    "duration": 0.3703703333333266
                },
                {
                    "name": "B2",
                    "midi": 47,
                    "time": 97.03702733333289,
                    "velocity": 0.1889763779527559,
                    "duration": 0.3703703333333266
                },
                {
                    "name": "B1",
                    "midi": 35,
                    "time": 97.40739766666621,
                    "velocity": 0.1889763779527559,
                    "duration": 0.3703703333333266
                },
                {
                    "name": "E2",
                    "midi": 40,
                    "time": 97.77776799999954,
                    "velocity": 0.23622047244094488,
                    "duration": 0.3703703333333266
                },
                {
                    "name": "B2",
                    "midi": 47,
                    "time": 98.14813833333287,
                    "velocity": 0.2440944881889764,
                    "duration": 0.3703703333333266
                },
                {
                    "name": "E4",
                    "midi": 64,
                    "time": 98.5185086666662,
                    "velocity": 0.2440944881889764,
                    "duration": 0.3703703333333266
                },
                {
                    "name": "G#3",
                    "midi": 56,
                    "time": 98.88887899999952,
                    "velocity": 0.25196850393700787,
                    "duration": 0.3703703333333266
                },
                {
                    "name": "B2",
                    "midi": 47,
                    "time": 99.25924933333285,
                    "velocity": 0.25196850393700787,
                    "duration": 0.3703703333333266
                },
                {
                    "name": "D#2",
                    "midi": 39,
                    "time": 99.62961966666617,
                    "velocity": 0.25984251968503935,
                    "duration": 0.3703703333333266
                },
                {
                    "name": "C#2",
                    "midi": 37,
                    "time": 99.9999899999995,
                    "velocity": 0.2677165354330709,
                    "duration": 0.3703703333333266
                },
                {
                    "name": "G#2",
                    "midi": 44,
                    "time": 100.37036033333283,
                    "velocity": 0.2677165354330709,
                    "duration": 0.3703703333333266
                },
                {
                    "name": "G#3",
                    "midi": 56,
                    "time": 100.74073066666615,
                    "velocity": 0.2755905511811024,
                    "duration": 0.3703703333333266
                },
                {
                    "name": "C#3",
                    "midi": 49,
                    "time": 101.11110099999948,
                    "velocity": 0.2755905511811024,
                    "duration": 0.3703703333333266
                },
                {
                    "name": "G#2",
                    "midi": 44,
                    "time": 101.4814713333328,
                    "velocity": 0.28346456692913385,
                    "duration": 0.3703703333333266
                },
                {
                    "name": "C#2",
                    "midi": 37,
                    "time": 101.85184166666613,
                    "velocity": 0.28346456692913385,
                    "duration": 0.3703703333333266
                },
                {
                    "name": "C#2",
                    "midi": 37,
                    "time": 102.22221199999946,
                    "velocity": 0.29133858267716534,
                    "duration": 0.3703703333333266
                },
                {
                    "name": "G#2",
                    "midi": 44,
                    "time": 102.59258233333279,
                    "velocity": 0.29133858267716534,
                    "duration": 0.3703703333333266
                },
                {
                    "name": "C#4",
                    "midi": 61,
                    "time": 102.96295266666611,
                    "velocity": 0.28346456692913385,
                    "duration": 0.3703703333333266
                },
                {
                    "name": "F3",
                    "midi": 53,
                    "time": 103.33332299999944,
                    "velocity": 0.2755905511811024,
                    "duration": 0.3703703333333266
                },
                {
                    "name": "G#2",
                    "midi": 44,
                    "time": 103.70369333333277,
                    "velocity": 0.2677165354330709,
                    "duration": 0.3703703333333266
                },
                {
                    "name": "C#2",
                    "midi": 37,
                    "time": 104.07406366666609,
                    "velocity": 0.25984251968503935,
                    "duration": 0.3703703333333266
                },
                {
                    "name": "C#2",
                    "midi": 37,
                    "time": 104.44443399999942,
                    "velocity": 0.25196850393700787,
                    "duration": 0.3703703333333266
                },
                {
                    "name": "A2",
                    "midi": 45,
                    "time": 104.81480433333275,
                    "velocity": 0.2440944881889764,
                    "duration": 0.3703703333333266
                },
                {
                    "name": "C#4",
                    "midi": 61,
                    "time": 105.18517466666607,
                    "velocity": 0.23622047244094488,
                    "duration": 0.3703703333333266
                },
                {
                    "name": "F#3",
                    "midi": 54,
                    "time": 105.5555449999994,
                    "velocity": 0.2283464566929134,
                    "duration": 0.3703703333333266
                },
                {
                    "name": "A2",
                    "midi": 45,
                    "time": 105.92591533333272,
                    "velocity": 0.2283464566929134,
                    "duration": 0.3703703333333266
                },
                {
                    "name": "C#2",
                    "midi": 37,
                    "time": 106.29628566666605,
                    "velocity": 0.2204724409448819,
                    "duration": 0.3703703333333266
                },
                {
                    "name": "C#2",
                    "midi": 37,
                    "time": 106.66665599999938,
                    "velocity": 0.2047244094488189,
                    "duration": 0.3703703333333408
                },
                {
                    "name": "A2",
                    "midi": 45,
                    "time": 107.03702633333272,
                    "velocity": 0.1889763779527559,
                    "duration": 0.3703703333333266
                },
                {
                    "name": "A3",
                    "midi": 57,
                    "time": 107.40739666666605,
                    "velocity": 0.1889763779527559,
                    "duration": 0.3703703333333266
                },
                {
                    "name": "D3",
                    "midi": 50,
                    "time": 107.77776699999937,
                    "velocity": 0.1889763779527559,
                    "duration": 0.3703703333333266
                },
                {
                    "name": "A2",
                    "midi": 45,
                    "time": 108.1481373333327,
                    "velocity": 0.1889763779527559,
                    "duration": 0.3703703333333266
                },
                {
                    "name": "C#2",
                    "midi": 37,
                    "time": 108.51850766666603,
                    "velocity": 0.1889763779527559,
                    "duration": 0.3703703333333266
                },
                {
                    "name": "C#2",
                    "midi": 37,
                    "time": 108.88887799999935,
                    "velocity": 0.2047244094488189,
                    "duration": 0.3703703333333408
                },
                {
                    "name": "A2",
                    "midi": 45,
                    "time": 109.25924833333269,
                    "velocity": 0.1889763779527559,
                    "duration": 0.3703703333333266
                },
                {
                    "name": "A3",
                    "midi": 57,
                    "time": 109.62961866666602,
                    "velocity": 0.1889763779527559,
                    "duration": 0.3703703333333266
                },
                {
                    "name": "D3",
                    "midi": 50,
                    "time": 109.99998899999935,
                    "velocity": 0.1889763779527559,
                    "duration": 0.3703703333333266
                },
                {
                    "name": "A2",
                    "midi": 45,
                    "time": 110.37035933333267,
                    "velocity": 0.1889763779527559,
                    "duration": 0.3703703333333266
                },
                {
                    "name": "C#2",
                    "midi": 37,
                    "time": 110.740729666666,
                    "velocity": 0.1889763779527559,
                    "duration": 0.3703703333333266
                },
                {
                    "name": "C#2",
                    "midi": 37,
                    "time": 111.11109999999933,
                    "velocity": 0.2047244094488189,
                    "duration": 0.3703703333333266
                },
                {
                    "name": "A2",
                    "midi": 45,
                    "time": 111.48147033333265,
                    "velocity": 0.1732283464566929,
                    "duration": 0.3703703333333266
                },
                {
                    "name": "A3",
                    "midi": 57,
                    "time": 111.85184066666598,
                    "velocity": 0.1889763779527559,
                    "duration": 0.3703703333333266
                },
                {
                    "name": "D3",
                    "midi": 50,
                    "time": 112.2222109999993,
                    "velocity": 0.2125984251968504,
                    "duration": 0.3703703333333266
                },
                {
                    "name": "A2",
                    "midi": 45,
                    "time": 112.59258133333263,
                    "velocity": 0.18110236220472442,
                    "duration": 0.3703703333333266
                },
                {
                    "name": "C#2",
                    "midi": 37,
                    "time": 112.96295166666596,
                    "velocity": 0.18110236220472442,
                    "duration": 0.3703703333333266
                },
                {
                    "name": "C#2",
                    "midi": 37,
                    "time": 113.33332199999928,
                    "velocity": 0.2047244094488189,
                    "duration": 0.3703703333333266
                },
                {
                    "name": "A2",
                    "midi": 45,
                    "time": 113.70369233333261,
                    "velocity": 0.1889763779527559,
                    "duration": 0.3703703333333266
                },
                {
                    "name": "A3",
                    "midi": 57,
                    "time": 114.07406266666594,
                    "velocity": 0.1889763779527559,
                    "duration": 0.3703703333333266
                },
                {
                    "name": "D3",
                    "midi": 50,
                    "time": 114.44443299999926,
                    "velocity": 0.1889763779527559,
                    "duration": 0.3703703333333266
                },
                {
                    "name": "A2",
                    "midi": 45,
                    "time": 114.81480333333259,
                    "velocity": 0.1889763779527559,
                    "duration": 0.3703703333333266
                },
                {
                    "name": "C#2",
                    "midi": 37,
                    "time": 115.18517366666592,
                    "velocity": 0.1889763779527559,
                    "duration": 0.3703703333333266
                },
                {
                    "name": "A2",
                    "midi": 45,
                    "time": 115.55554399999924,
                    "velocity": 0.2047244094488189,
                    "duration": 0.3703703333333266
                },
                {
                    "name": "D3",
                    "midi": 50,
                    "time": 115.92591433333257,
                    "velocity": 0.1732283464566929,
                    "duration": 0.3703703333333266
                },
                {
                    "name": "A3",
                    "midi": 57,
                    "time": 116.2962846666659,
                    "velocity": 0.1889763779527559,
                    "duration": 0.3703703333333266
                },
                {
                    "name": "D4",
                    "midi": 62,
                    "time": 116.66665499999922,
                    "velocity": 0.2125984251968504,
                    "duration": 0.3703703333333266
                },
                {
                    "name": "A3",
                    "midi": 57,
                    "time": 117.03702533333255,
                    "velocity": 0.18110236220472442,
                    "duration": 0.3703703333333266
                },
                {
                    "name": "D3",
                    "midi": 50,
                    "time": 117.40739566666588,
                    "velocity": 0.18110236220472442,
                    "duration": 0.3703703333333266
                },
                {
                    "name": "A2",
                    "midi": 45,
                    "time": 117.7777659999992,
                    "velocity": 0.2047244094488189,
                    "duration": 0.3703703333333266
                },
                {
                    "name": "D3",
                    "midi": 50,
                    "time": 118.14813633333253,
                    "velocity": 0.1889763779527559,
                    "duration": 0.3703703333333266
                },
                {
                    "name": "A3",
                    "midi": 57,
                    "time": 118.51850666666586,
                    "velocity": 0.1968503937007874,
                    "duration": 0.3703703333333266
                },
                {
                    "name": "D3",
                    "midi": 50,
                    "time": 118.88887699999918,
                    "velocity": 0.1889763779527559,
                    "duration": 0.3703703333333266
                },
                {
                    "name": "A2",
                    "midi": 45,
                    "time": 119.25924733333251,
                    "velocity": 0.1889763779527559,
                    "duration": 0.3703703333333266
                },
                {
                    "name": "C#2",
                    "midi": 37,
                    "time": 119.62961766666584,
                    "velocity": 0.1889763779527559,
                    "duration": 0.3703703333333266
                },
                {
                    "name": "D3",
                    "midi": 50,
                    "time": 119.99998799999916,
                    "velocity": 0.2047244094488189,
                    "duration": 0.3703703333333266
                },
                {
                    "name": "A3",
                    "midi": 57,
                    "time": 120.37035833333249,
                    "velocity": 0.18110236220472442,
                    "duration": 0.3703703333333266
                },
                {
                    "name": "D4",
                    "midi": 62,
                    "time": 120.74072866666582,
                    "velocity": 0.1968503937007874,
                    "duration": 0.3703703333333266
                },
                {
                    "name": "F#4",
                    "midi": 66,
                    "time": 121.11109899999914,
                    "velocity": 0.2125984251968504,
                    "duration": 0.3703703333333266
                },
                {
                    "name": "D4",
                    "midi": 62,
                    "time": 121.48146933333247,
                    "velocity": 0.18110236220472442,
                    "duration": 0.3703703333333266
                },
                {
                    "name": "A3",
                    "midi": 57,
                    "time": 121.8518396666658,
                    "velocity": 0.18110236220472442,
                    "duration": 0.3703703333333266
                },
                {
                    "name": "A2",
                    "midi": 45,
                    "time": 122.22220999999912,
                    "velocity": 0.2047244094488189,
                    "duration": 0.3703703333333266
                },
                {
                    "name": "D3",
                    "midi": 50,
                    "time": 122.59258033333245,
                    "velocity": 0.1889763779527559,
                    "duration": 0.3703703333333266
                },
                {
                    "name": "A3",
                    "midi": 57,
                    "time": 122.96295066666578,
                    "velocity": 0.1889763779527559,
                    "duration": 0.3703703333333266
                },
                {
                    "name": "D3",
                    "midi": 50,
                    "time": 123.3333209999991,
                    "velocity": 0.2047244094488189,
                    "duration": 0.3703703333333266
                },
                {
                    "name": "A2",
                    "midi": 45,
                    "time": 123.70369133333243,
                    "velocity": 0.1889763779527559,
                    "duration": 0.3703703333333266
                },
                {
                    "name": "C#2",
                    "midi": 37,
                    "time": 124.07406166666576,
                    "velocity": 0.1889763779527559,
                    "duration": 0.3703703333333266
                },
                {
                    "name": "C2",
                    "midi": 36,
                    "time": 124.44443199999908,
                    "velocity": 0.2440944881889764,
                    "duration": 3.3333329999999535
                },
                {
                    "name": "G2",
                    "midi": 43,
                    "time": 124.81480233333242,
                    "velocity": 0.2047244094488189,
                    "duration": 0.3935184791666586
                },
                {
                    "name": "G#2",
                    "midi": 44,
                    "time": 125.18517266666575,
                    "velocity": 0.2047244094488189,
                    "duration": 0.3935184791666586
                },
                {
                    "name": "A2",
                    "midi": 45,
                    "time": 125.55554299999908,
                    "velocity": 0.2047244094488189,
                    "duration": 0.3935184791666586
                },
                {
                    "name": "G#2",
                    "midi": 44,
                    "time": 125.9259133333324,
                    "velocity": 0.2047244094488189,
                    "duration": 0.3935184791666586
                },
                {
                    "name": "A2",
                    "midi": 45,
                    "time": 126.29628366666573,
                    "velocity": 0.2047244094488189,
                    "duration": 0.3935184791666586
                },
                {
                    "name": "G#2",
                    "midi": 44,
                    "time": 126.66665399999906,
                    "velocity": 0.2047244094488189,
                    "duration": 0.3935184791666586
                },
                {
                    "name": "A2",
                    "midi": 45,
                    "time": 127.03702433333238,
                    "velocity": 0.2047244094488189,
                    "duration": 0.3935184791666586
                },
                {
                    "name": "G#2",
                    "midi": 44,
                    "time": 127.40739466666571,
                    "velocity": 0.2047244094488189,
                    "duration": 0.3703703333333266
                },
                {
                    "name": "C#2",
                    "midi": 37,
                    "time": 127.77776499999904,
                    "velocity": 0.23622047244094488,
                    "duration": 3.333333000000053
                },
                {
                    "name": "G2",
                    "midi": 43,
                    "time": 128.14813533333236,
                    "velocity": 0.2047244094488189,
                    "duration": 0.39351847916668703
                },
                {
                    "name": "G#2",
                    "midi": 44,
                    "time": 128.5185056666657,
                    "velocity": 0.2125984251968504,
                    "duration": 0.39351847916668703
                },
                {
                    "name": "A2",
                    "midi": 45,
                    "time": 128.88887599999904,
                    "velocity": 0.2125984251968504,
                    "duration": 0.39351847916668703
                },
                {
                    "name": "G#2",
                    "midi": 44,
                    "time": 129.25924633333238,
                    "velocity": 0.2125984251968504,
                    "duration": 0.39351847916668703
                },
                {
                    "name": "A2",
                    "midi": 45,
                    "time": 129.62961666666573,
                    "velocity": 0.2125984251968504,
                    "duration": 0.39351847916668703
                },
                {
                    "name": "G#2",
                    "midi": 44,
                    "time": 129.99998699999907,
                    "velocity": 0.2125984251968504,
                    "duration": 0.39351847916668703
                },
                {
                    "name": "A2",
                    "midi": 45,
                    "time": 130.3703573333324,
                    "velocity": 0.2125984251968504,
                    "duration": 0.39351847916668703
                },
                {
                    "name": "G#2",
                    "midi": 44,
                    "time": 130.74072766666575,
                    "velocity": 0.2125984251968504,
                    "duration": 0.3703703333333408
                },
                {
                    "name": "D#2",
                    "midi": 39,
                    "time": 131.1110979999991,
                    "velocity": 0.25984251968503935,
                    "duration": 3.333333000000067
                },
                {
                    "name": "G2",
                    "midi": 43,
                    "time": 131.48146833333243,
                    "velocity": 0.25984251968503935,
                    "duration": 0.39351847916668703
                },
                {
                    "name": "G#2",
                    "midi": 44,
                    "time": 131.85183866666577,
                    "velocity": 0.2283464566929134,
                    "duration": 0.39351847916668703
                },
                {
                    "name": "A2",
                    "midi": 45,
                    "time": 132.2222089999991,
                    "velocity": 0.2283464566929134,
                    "duration": 0.39351847916668703
                },
                {
                    "name": "G#2",
                    "midi": 44,
                    "time": 132.59257933333245,
                    "velocity": 0.2283464566929134,
                    "duration": 0.39351847916668703
                },
                {
                    "name": "A2",
                    "midi": 45,
                    "time": 132.9629496666658,
                    "velocity": 0.2283464566929134,
                    "duration": 0.39351847916668703
                },
                {
                    "name": "G#2",
                    "midi": 44,
                    "time": 133.33331999999913,
                    "velocity": 0.23622047244094488,
                    "duration": 0.39351847916668703
                },
                {
                    "name": "A2",
                    "midi": 45,
                    "time": 133.70369033333247,
                    "velocity": 0.23622047244094488,
                    "duration": 0.39351847916668703
                },
                {
                    "name": "G#2",
                    "midi": 44,
                    "time": 134.07406066666582,
                    "velocity": 0.2283464566929134,
                    "duration": 0.3703703333333408
                },
                {
                    "name": "E2",
                    "midi": 40,
                    "time": 134.44443099999916,
                    "velocity": 0.2677165354330709,
                    "duration": 3.333333000000067
                },
                {
                    "name": "G2",
                    "midi": 43,
                    "time": 134.8148013333325,
                    "velocity": 0.23622047244094488,
                    "duration": 0.39351847916668703
                },
                {
                    "name": "G#2",
                    "midi": 44,
                    "time": 135.18517166666584,
                    "velocity": 0.23622047244094488,
                    "duration": 0.39351847916668703
                },
                {
                    "name": "A2",
                    "midi": 45,
                    "time": 135.55554199999918,
                    "velocity": 0.23622047244094488,
                    "duration": 0.39351847916668703
                },
                {
                    "name": "G#2",
                    "midi": 44,
                    "time": 135.92591233333252,
                    "velocity": 0.23622047244094488,
                    "duration": 0.39351847916668703
                },
                {
                    "name": "A2",
                    "midi": 45,
                    "time": 136.29628266666586,
                    "velocity": 0.23622047244094488,
                    "duration": 0.39351847916668703
                },
                {
                    "name": "G#2",
                    "midi": 44,
                    "time": 136.6666529999992,
                    "velocity": 0.23622047244094488,
                    "duration": 0.39351847916668703
                },
                {
                    "name": "A2",
                    "midi": 45,
                    "time": 137.03702333333254,
                    "velocity": 0.23622047244094488,
                    "duration": 0.39351847916668703
                },
                {
                    "name": "G#2",
                    "midi": 44,
                    "time": 137.40739366666588,
                    "velocity": 0.23622047244094488,
                    "duration": 0.3703703333333408
                },
                {
                    "name": "F2",
                    "midi": 41,
                    "time": 137.77776399999922,
                    "velocity": 0.3543307086614173,
                    "duration": 3.333333000000067
                },
                {
                    "name": "C3",
                    "midi": 48,
                    "time": 138.14813433333256,
                    "velocity": 0.3543307086614173,
                    "duration": 0.39351847916668703
                },
                {
                    "name": "C#3",
                    "midi": 49,
                    "time": 138.5185046666659,
                    "velocity": 0.31496062992125984,
                    "duration": 0.39351847916668703
                },
                {
                    "name": "D3",
                    "midi": 50,
                    "time": 138.88887499999925,
                    "velocity": 0.3228346456692913,
                    "duration": 0.39351847916668703
                },
                {
                    "name": "C#3",
                    "midi": 49,
                    "time": 139.2592453333326,
                    "velocity": 0.3228346456692913,
                    "duration": 0.39351847916668703
                },
                {
                    "name": "D3",
                    "midi": 50,
                    "time": 139.62961566666593,
                    "velocity": 0.3228346456692913,
                    "duration": 0.39351847916668703
                },
                {
                    "name": "C#3",
                    "midi": 49,
                    "time": 139.99998599999927,
                    "velocity": 0.3228346456692913,
                    "duration": 0.39351847916668703
                },
                {
                    "name": "D3",
                    "midi": 50,
                    "time": 140.3703563333326,
                    "velocity": 0.3228346456692913,
                    "duration": 0.39351847916668703
                },
                {
                    "name": "C#3",
                    "midi": 49,
                    "time": 140.74072666666595,
                    "velocity": 0.31496062992125984,
                    "duration": 0.3703703333333408
                },
                {
                    "name": "F#2",
                    "midi": 42,
                    "time": 141.1110969999993,
                    "velocity": 0.36220472440944884,
                    "duration": 3.333333000000067
                },
                {
                    "name": "C3",
                    "midi": 48,
                    "time": 141.48146733333263,
                    "velocity": 0.3228346456692913,
                    "duration": 0.39351847916668703
                },
                {
                    "name": "C#3",
                    "midi": 49,
                    "time": 141.85183766666597,
                    "velocity": 0.33858267716535434,
                    "duration": 0.39351847916668703
                },
                {
                    "name": "D3",
                    "midi": 50,
                    "time": 142.2222079999993,
                    "velocity": 0.3464566929133858,
                    "duration": 0.39351847916668703
                },
                {
                    "name": "C#3",
                    "midi": 49,
                    "time": 142.59257833333265,
                    "velocity": 0.3464566929133858,
                    "duration": 0.39351847916668703
                },
                {
                    "name": "D3",
                    "midi": 50,
                    "time": 142.962948666666,
                    "velocity": 0.3464566929133858,
                    "duration": 0.39351847916668703
                },
                {
                    "name": "C#3",
                    "midi": 49,
                    "time": 143.33331899999934,
                    "velocity": 0.3464566929133858,
                    "duration": 0.39351847916668703
                },
                {
                    "name": "D3",
                    "midi": 50,
                    "time": 143.70368933333268,
                    "velocity": 0.3464566929133858,
                    "duration": 0.39351847916668703
                },
                {
                    "name": "C#3",
                    "midi": 49,
                    "time": 144.07405966666602,
                    "velocity": 0.3464566929133858,
                    "duration": 0.3703703333333408
                },
                {
                    "name": "G#2",
                    "midi": 44,
                    "time": 144.44442999999936,
                    "velocity": 0.4330708661417323,
                    "duration": 3.333333000000067
                },
                {
                    "name": "C3",
                    "midi": 48,
                    "time": 144.8148003333327,
                    "velocity": 0.4330708661417323,
                    "duration": 0.39351847916668703
                },
                {
                    "name": "C#3",
                    "midi": 49,
                    "time": 145.18517066666604,
                    "velocity": 0.3858267716535433,
                    "duration": 0.39351847916668703
                },
                {
                    "name": "D3",
                    "midi": 50,
                    "time": 145.55554099999938,
                    "velocity": 0.3858267716535433,
                    "duration": 0.39351847916668703
                },
                {
                    "name": "C#3",
                    "midi": 49,
                    "time": 145.92591133333272,
                    "velocity": 0.3937007874015748,
                    "duration": 0.39351847916668703
                },
                {
                    "name": "D3",
                    "midi": 50,
                    "time": 146.29628166666606,
                    "velocity": 0.3937007874015748,
                    "duration": 0.39351847916668703
                },
                {
                    "name": "C#3",
                    "midi": 49,
                    "time": 146.6666519999994,
                    "velocity": 0.3937007874015748,
                    "duration": 0.39351847916668703
                },
                {
                    "name": "D3",
                    "midi": 50,
                    "time": 147.03702233333274,
                    "velocity": 0.3937007874015748,
                    "duration": 0.39351847916668703
                },
                {
                    "name": "C#3",
                    "midi": 49,
                    "time": 147.40739266666608,
                    "velocity": 0.3937007874015748,
                    "duration": 0.3703703333333408
                },
                {
                    "name": "A2",
                    "midi": 45,
                    "time": 147.77776299999942,
                    "velocity": 0.4566929133858268,
                    "duration": 3.333333000000067
                },
                {
                    "name": "C3",
                    "midi": 48,
                    "time": 148.14813333333277,
                    "velocity": 0.4015748031496063,
                    "duration": 0.39351847916668703
                },
                {
                    "name": "C#3",
                    "midi": 49,
                    "time": 148.5185036666661,
                    "velocity": 0.4094488188976378,
                    "duration": 0.39351847916668703
                },
                {
                    "name": "D3",
                    "midi": 50,
                    "time": 148.88887399999945,
                    "velocity": 0.4094488188976378,
                    "duration": 0.39351847916668703
                },
                {
                    "name": "C#3",
                    "midi": 49,
                    "time": 149.2592443333328,
                    "velocity": 0.4094488188976378,
                    "duration": 0.39351847916668703
                },
                {
                    "name": "D3",
                    "midi": 50,
                    "time": 149.62961466666613,
                    "velocity": 0.41732283464566927,
                    "duration": 0.39351847916668703
                },
                {
                    "name": "C#3",
                    "midi": 49,
                    "time": 149.99998499999947,
                    "velocity": 0.4251968503937008,
                    "duration": 0.39351847916668703
                },
                {
                    "name": "D3",
                    "midi": 50,
                    "time": 150.3703553333328,
                    "velocity": 0.4251968503937008,
                    "duration": 0.39351847916668703
                },
                {
                    "name": "C#3",
                    "midi": 49,
                    "time": 150.74072566666615,
                    "velocity": 0.4251968503937008,
                    "duration": 0.3703703333333408
                },
                {
                    "name": "C2",
                    "midi": 36,
                    "time": 151.1110959999995,
                    "velocity": 0.5118110236220472,
                    "duration": 0.3703703333333124
                },
                {
                    "name": "C3",
                    "midi": 48,
                    "time": 151.1110959999995,
                    "velocity": 0.5118110236220472,
                    "duration": 0.3703703333333124
                },
                {
                    "name": "G3",
                    "midi": 55,
                    "time": 151.4814663333328,
                    "velocity": 0.5118110236220472,
                    "duration": 0.3703703333333408
                },
                {
                    "name": "G#3",
                    "midi": 56,
                    "time": 151.85183666666614,
                    "velocity": 0.4566929133858268,
                    "duration": 0.3703703333333408
                },
                {
                    "name": "A3",
                    "midi": 57,
                    "time": 152.22220699999949,
                    "velocity": 0.4566929133858268,
                    "duration": 0.3703703333333408
                },
                {
                    "name": "G#3",
                    "midi": 56,
                    "time": 152.59257733333283,
                    "velocity": 0.4566929133858268,
                    "duration": 0.3703703333333408
                },
                {
                    "name": "A3",
                    "midi": 57,
                    "time": 152.96294766666617,
                    "velocity": 0.4566929133858268,
                    "duration": 0.3703703333333408
                },
                {
                    "name": "G#3",
                    "midi": 56,
                    "time": 153.3333179999995,
                    "velocity": 0.4566929133858268,
                    "duration": 0.3703703333333408
                },
                {
                    "name": "D#4",
                    "midi": 63,
                    "time": 153.70368833333285,
                    "velocity": 0.4566929133858268,
                    "duration": 0.3703703333333408
                },
                {
                    "name": "G#3",
                    "midi": 56,
                    "time": 154.0740586666662,
                    "velocity": 0.4409448818897638,
                    "duration": 0.3703703333333408
                },
                {
                    "name": "C#2",
                    "midi": 37,
                    "time": 154.44442899999953,
                    "velocity": 0.5196850393700787,
                    "duration": 0.3703703333333408
                },
                {
                    "name": "C#3",
                    "midi": 49,
                    "time": 154.44442899999953,
                    "velocity": 0.5196850393700787,
                    "duration": 0.3703703333333408
                },
                {
                    "name": "G3",
                    "midi": 55,
                    "time": 154.81479933333287,
                    "velocity": 0.4566929133858268,
                    "duration": 0.3703703333333408
                },
                {
                    "name": "G#3",
                    "midi": 56,
                    "time": 155.1851696666662,
                    "velocity": 0.4645669291338583,
                    "duration": 0.3703703333333408
                },
                {
                    "name": "A3",
                    "midi": 57,
                    "time": 155.55553999999955,
                    "velocity": 0.4645669291338583,
                    "duration": 0.3703703333333408
                },
                {
                    "name": "G#3",
                    "midi": 56,
                    "time": 155.9259103333329,
                    "velocity": 0.4645669291338583,
                    "duration": 0.3703703333333408
                },
                {
                    "name": "A3",
                    "midi": 57,
                    "time": 156.29628066666623,
                    "velocity": 0.4645669291338583,
                    "duration": 0.3703703333333408
                },
                {
                    "name": "G#3",
                    "midi": 56,
                    "time": 156.66665099999958,
                    "velocity": 0.4645669291338583,
                    "duration": 0.3703703333333408
                },
                {
                    "name": "E4",
                    "midi": 64,
                    "time": 157.03702133333292,
                    "velocity": 0.4645669291338583,
                    "duration": 0.3703703333333408
                },
                {
                    "name": "G#3",
                    "midi": 56,
                    "time": 157.40739166666626,
                    "velocity": 0.4645669291338583,
                    "duration": 0.3703703333333408
                },
                {
                    "name": "D#2",
                    "midi": 39,
                    "time": 157.7777619999996,
                    "velocity": 0.5118110236220472,
                    "duration": 0.3703703333333408
                },
                {
                    "name": "D#3",
                    "midi": 51,
                    "time": 157.7777619999996,
                    "velocity": 0.5118110236220472,
                    "duration": 0.3703703333333408
                },
                {
                    "name": "G3",
                    "midi": 55,
                    "time": 158.14813233333294,
                    "velocity": 0.5118110236220472,
                    "duration": 0.3703703333333408
                },
                {
                    "name": "G#3",
                    "midi": 56,
                    "time": 158.51850266666628,
                    "velocity": 0.4566929133858268,
                    "duration": 0.3703703333333408
                },
                {
                    "name": "A3",
                    "midi": 57,
                    "time": 158.88887299999962,
                    "velocity": 0.4566929133858268,
                    "duration": 0.3703703333333408
                },
                {
                    "name": "G#3",
                    "midi": 56,
                    "time": 159.25924333333296,
                    "velocity": 0.4566929133858268,
                    "duration": 0.3703703333333408
                },
                {
                    "name": "A3",
                    "midi": 57,
                    "time": 159.6296136666663,
                    "velocity": 0.4566929133858268,
                    "duration": 0.3703703333333408
                },
                {
                    "name": "G#3",
                    "midi": 56,
                    "time": 159.99998399999964,
                    "velocity": 0.4566929133858268,
                    "duration": 0.3703703333333408
                },
                {
                    "name": "F#4",
                    "midi": 66,
                    "time": 160.37035433333298,
                    "velocity": 0.4566929133858268,
                    "duration": 0.3703703333333408
                },
                {
                    "name": "G#3",
                    "midi": 56,
                    "time": 160.74072466666632,
                    "velocity": 0.4409448818897638,
                    "duration": 0.3703703333333408
                },
                {
                    "name": "E2",
                    "midi": 40,
                    "time": 161.11109499999966,
                    "velocity": 0.5196850393700787,
                    "duration": 0.3703703333333124
                },
                {
                    "name": "E3",
                    "midi": 52,
                    "time": 161.11109499999966,
                    "velocity": 0.5196850393700787,
                    "duration": 0.3703703333333124
                },
                {
                    "name": "G3",
                    "midi": 55,
                    "time": 161.48146533333298,
                    "velocity": 0.4566929133858268,
                    "duration": 0.3703703333333408
                },
                {
                    "name": "G#3",
                    "midi": 56,
                    "time": 161.85183566666632,
                    "velocity": 0.4645669291338583,
                    "duration": 0.3703703333333408
                },
                {
                    "name": "A3",
                    "midi": 57,
                    "time": 162.22220599999966,
                    "velocity": 0.4645669291338583,
                    "duration": 0.3703703333333408
                },
                {
                    "name": "G#3",
                    "midi": 56,
                    "time": 162.592576333333,
                    "velocity": 0.4645669291338583,
                    "duration": 0.3703703333333408
                },
                {
                    "name": "A3",
                    "midi": 57,
                    "time": 162.96294666666634,
                    "velocity": 0.4645669291338583,
                    "duration": 0.3703703333333408
                },
                {
                    "name": "G#3",
                    "midi": 56,
                    "time": 163.33331699999968,
                    "velocity": 0.4645669291338583,
                    "duration": 0.3703703333333408
                },
                {
                    "name": "G#4",
                    "midi": 68,
                    "time": 163.70368733333302,
                    "velocity": 0.4645669291338583,
                    "duration": 0.3703703333333408
                },
                {
                    "name": "G#3",
                    "midi": 56,
                    "time": 164.07405766666636,
                    "velocity": 0.4645669291338583,
                    "duration": 0.3703703333333408
                },
                {
                    "name": "F2",
                    "midi": 41,
                    "time": 164.4444279999997,
                    "velocity": 0.5354330708661418,
                    "duration": 0.3703703333333408
                },
                {
                    "name": "F3",
                    "midi": 53,
                    "time": 164.4444279999997,
                    "velocity": 0.5354330708661418,
                    "duration": 0.3703703333333408
                },
                {
                    "name": "C4",
                    "midi": 60,
                    "time": 164.81479833333304,
                    "velocity": 0.5354330708661418,
                    "duration": 0.3703703333333408
                },
                {
                    "name": "C#4",
                    "midi": 61,
                    "time": 165.18516866666639,
                    "velocity": 0.4645669291338583,
                    "duration": 0.3703703333333408
                },
                {
                    "name": "D4",
                    "midi": 62,
                    "time": 165.55553899999973,
                    "velocity": 0.4645669291338583,
                    "duration": 0.3703703333333408
                },
                {
                    "name": "C#4",
                    "midi": 61,
                    "time": 165.92590933333307,
                    "velocity": 0.47244094488188976,
                    "duration": 0.3703703333333408
                },
                {
                    "name": "D4",
                    "midi": 62,
                    "time": 166.2962796666664,
                    "velocity": 0.47244094488188976,
                    "duration": 0.3703703333333408
                },
                {
                    "name": "C#4",
                    "midi": 61,
                    "time": 166.66664999999975,
                    "velocity": 0.47244094488188976,
                    "duration": 0.3703703333333408
                },
                {
                    "name": "B4",
                    "midi": 71,
                    "time": 167.0370203333331,
                    "velocity": 0.47244094488188976,
                    "duration": 0.3703703333333408
                },
                {
                    "name": "C#4",
                    "midi": 61,
                    "time": 167.40739066666643,
                    "velocity": 0.4645669291338583,
                    "duration": 0.3703703333333408
                },
                {
                    "name": "F#2",
                    "midi": 42,
                    "time": 167.77776099999977,
                    "velocity": 0.5669291338582677,
                    "duration": 0.3703703333333408
                },
                {
                    "name": "F#3",
                    "midi": 54,
                    "time": 167.77776099999977,
                    "velocity": 0.5669291338582677,
                    "duration": 0.3703703333333408
                },
                {
                    "name": "C4",
                    "midi": 60,
                    "time": 168.1481313333331,
                    "velocity": 0.48031496062992124,
                    "duration": 0.3703703333333408
                },
                {
                    "name": "C#4",
                    "midi": 61,
                    "time": 168.51850166666645,
                    "velocity": 0.5118110236220472,
                    "duration": 0.3703703333333408
                },
                {
                    "name": "D4",
                    "midi": 62,
                    "time": 168.8888719999998,
                    "velocity": 0.5118110236220472,
                    "duration": 0.3703703333333408
                },
                {
                    "name": "C#4",
                    "midi": 61,
                    "time": 169.25924233333313,
                    "velocity": 0.5118110236220472,
                    "duration": 0.3703703333333408
                },
                {
                    "name": "D4",
                    "midi": 62,
                    "time": 169.62961266666647,
                    "velocity": 0.5118110236220472,
                    "duration": 0.3703703333333408
                },
                {
                    "name": "C#4",
                    "midi": 61,
                    "time": 169.99998299999982,
                    "velocity": 0.5196850393700787,
                    "duration": 0.3703703333333408
                },
                {
                    "name": "A4",
                    "midi": 69,
                    "time": 170.37035333333316,
                    "velocity": 0.5196850393700787,
                    "duration": 0.3703703333333408
                },
                {
                    "name": "C#4",
                    "midi": 61,
                    "time": 170.7407236666665,
                    "velocity": 0.5196850393700787,
                    "duration": 0.3703703333333408
                },
                {
                    "name": "G#2",
                    "midi": 44,
                    "time": 171.11109399999984,
                    "velocity": 0.5826771653543307,
                    "duration": 0.3703703333333408
                },
                {
                    "name": "G#3",
                    "midi": 56,
                    "time": 171.11109399999984,
                    "velocity": 0.5826771653543307,
                    "duration": 0.3703703333333408
                },
                {
                    "name": "C4",
                    "midi": 60,
                    "time": 171.48146433333318,
                    "velocity": 0.5826771653543307,
                    "duration": 0.3703703333333408
                },
                {
                    "name": "C#4",
                    "midi": 61,
                    "time": 171.85183466666652,
                    "velocity": 0.5196850393700787,
                    "duration": 0.3703703333333408
                },
                {
                    "name": "D4",
                    "midi": 62,
                    "time": 172.22220499999986,
                    "velocity": 0.5196850393700787,
                    "duration": 0.3703703333333408
                },
                {
                    "name": "C#4",
                    "midi": 61,
                    "time": 172.5925753333332,
                    "velocity": 0.5354330708661418,
                    "duration": 0.3703703333333408
                },
                {
                    "name": "D4",
                    "midi": 62,
                    "time": 172.96294566666654,
                    "velocity": 0.5354330708661418,
                    "duration": 0.3703703333333408
                },
                {
                    "name": "C#4",
                    "midi": 61,
                    "time": 173.33331599999988,
                    "velocity": 0.5433070866141733,
                    "duration": 0.3703703333333408
                },
                {
                    "name": "G#4",
                    "midi": 68,
                    "time": 173.70368633333322,
                    "velocity": 0.5433070866141733,
                    "duration": 0.3703703333333408
                },
                {
                    "name": "C#4",
                    "midi": 61,
                    "time": 174.07405666666656,
                    "velocity": 0.5196850393700787,
                    "duration": 0.3703703333333408
                },
                {
                    "name": "A2",
                    "midi": 45,
                    "time": 174.4444269999999,
                    "velocity": 0.6220472440944882,
                    "duration": 0.3703703333333124
                },
                {
                    "name": "A3",
                    "midi": 57,
                    "time": 174.4444269999999,
                    "velocity": 0.6220472440944882,
                    "duration": 0.3703703333333124
                },
                {
                    "name": "C4",
                    "midi": 60,
                    "time": 174.81479733333322,
                    "velocity": 0.5511811023622047,
                    "duration": 0.3703703333333408
                },
                {
                    "name": "C#4",
                    "midi": 61,
                    "time": 175.18516766666656,
                    "velocity": 0.5590551181102362,
                    "duration": 0.3703703333333408
                },
                {
                    "name": "D4",
                    "midi": 62,
                    "time": 175.5555379999999,
                    "velocity": 0.5590551181102362,
                    "duration": 0.3703703333333408
                },
                {
                    "name": "C#4",
                    "midi": 61,
                    "time": 175.92590833333324,
                    "velocity": 0.5669291338582677,
                    "duration": 0.3703703333333408
                },
                {
                    "name": "D4",
                    "midi": 62,
                    "time": 176.29627866666658,
                    "velocity": 0.5669291338582677,
                    "duration": 0.3703703333333408
                },
                {
                    "name": "C#4",
                    "midi": 61,
                    "time": 176.66664899999992,
                    "velocity": 0.5669291338582677,
                    "duration": 0.3703703333333408
                },
                {
                    "name": "C#5",
                    "midi": 73,
                    "time": 177.03701933333326,
                    "velocity": 0.5669291338582677,
                    "duration": 0.3703703333333408
                },
                {
                    "name": "C#4",
                    "midi": 61,
                    "time": 177.4073896666666,
                    "velocity": 0.5748031496062992,
                    "duration": 0.3703703333333408
                },
                {
                    "name": "A#1",
                    "midi": 34,
                    "time": 177.77775999999994,
                    "velocity": 0.6220472440944882,
                    "duration": 0.1851851666666562
                },
                {
                    "name": "C#3",
                    "midi": 49,
                    "time": 178.14813033333326,
                    "velocity": 0.5433070866141733,
                    "duration": 0.1851851666666562
                },
                {
                    "name": "C#2",
                    "midi": 37,
                    "time": 178.51850066666657,
                    "velocity": 0.5433070866141733,
                    "duration": 0.1851851666666562
                },
                {
                    "name": "E3",
                    "midi": 52,
                    "time": 178.88887099999988,
                    "velocity": 0.5433070866141733,
                    "duration": 0.1851851666666562
                },
                {
                    "name": "E2",
                    "midi": 40,
                    "time": 179.30553762499986,
                    "velocity": 0.5433070866141733,
                    "duration": 0.1851851666666562
                },
                {
                    "name": "G3",
                    "midi": 55,
                    "time": 179.6296116666665,
                    "velocity": 0.5433070866141733,
                    "duration": 0.1851851666666562
                },
                {
                    "name": "G2",
                    "midi": 43,
                    "time": 179.99998199999982,
                    "velocity": 0.5511811023622047,
                    "duration": 0.1851851666666562
                },
                {
                    "name": "A#3",
                    "midi": 58,
                    "time": 180.37035233333313,
                    "velocity": 0.5433070866141733,
                    "duration": 0.1851851666666562
                },
                {
                    "name": "A#2",
                    "midi": 46,
                    "time": 180.74072266666644,
                    "velocity": 0.5433070866141733,
                    "duration": 0.1851851666666562
                },
                {
                    "name": "B2",
                    "midi": 47,
                    "time": 181.11109299999976,
                    "velocity": 0.5669291338582677,
                    "duration": 0.1851851666666846
                },
                {
                    "name": "B3",
                    "midi": 59,
                    "time": 181.4814633333331,
                    "velocity": 0.5511811023622047,
                    "duration": 0.3703703333333408
                },
                {
                    "name": "G#3",
                    "midi": 56,
                    "time": 181.85183366666644,
                    "velocity": 0.5433070866141733,
                    "duration": 0.3703703333333408
                },
                {
                    "name": "E4",
                    "midi": 64,
                    "time": 182.22220399999978,
                    "velocity": 0.5354330708661418,
                    "duration": 0.3703703333333408
                },
                {
                    "name": "B3",
                    "midi": 59,
                    "time": 182.59257433333312,
                    "velocity": 0.5196850393700787,
                    "duration": 0.3703703333333408
                },
                {
                    "name": "G#4",
                    "midi": 68,
                    "time": 182.96294466666646,
                    "velocity": 0.5118110236220472,
                    "duration": 0.3703703333333408
                },
                {
                    "name": "E4",
                    "midi": 64,
                    "time": 183.3333149999998,
                    "velocity": 0.49606299212598426,
                    "duration": 0.3703703333333408
                },
                {
                    "name": "B3",
                    "midi": 59,
                    "time": 183.70368533333314,
                    "velocity": 0.47244094488188976,
                    "duration": 0.3703703333333408
                },
                {
                    "name": "G#3",
                    "midi": 56,
                    "time": 184.07405566666648,
                    "velocity": 0.4645669291338583,
                    "duration": 0.3703703333333408
                },
                {
                    "name": "B1",
                    "midi": 35,
                    "time": 184.44442599999982,
                    "velocity": 0.47244094488188976,
                    "duration": 0.1851851666666846
                },
                {
                    "name": "B2",
                    "midi": 47,
                    "time": 184.81479633333316,
                    "velocity": 0.48031496062992124,
                    "duration": 0.3703703333333408
                },
                {
                    "name": "F#3",
                    "midi": 54,
                    "time": 185.1851666666665,
                    "velocity": 0.49606299212598426,
                    "duration": 0.3703703333333408
                },
                {
                    "name": "B3",
                    "midi": 59,
                    "time": 185.55553699999984,
                    "velocity": 0.5118110236220472,
                    "duration": 0.3703703333333408
                },
                {
                    "name": "F#3",
                    "midi": 54,
                    "time": 185.92590733333319,
                    "velocity": 0.5196850393700787,
                    "duration": 0.3703703333333408
                },
                {
                    "name": "D#4",
                    "midi": 63,
                    "time": 186.29627766666653,
                    "velocity": 0.5275590551181102,
                    "duration": 0.3703703333333408
                },
                {
                    "name": "B3",
                    "midi": 59,
                    "time": 186.66664799999987,
                    "velocity": 0.5354330708661418,
                    "duration": 0.3703703333333408
                },
                {
                    "name": "F#3",
                    "midi": 54,
                    "time": 187.0370183333332,
                    "velocity": 0.5433070866141733,
                    "duration": 0.3703703333333408
                },
                {
                    "name": "B2",
                    "midi": 47,
                    "time": 187.40738866666655,
                    "velocity": 0.5511811023622047,
                    "duration": 0.3703703333333408
                },
                {
                    "name": "E2",
                    "midi": 40,
                    "time": 187.7777589999999,
                    "velocity": 0.5590551181102362,
                    "duration": 0.3703703333333124
                },
                {
                    "name": "E3",
                    "midi": 52,
                    "time": 188.1481293333332,
                    "velocity": 0.5196850393700787,
                    "duration": 0.3703703333333408
                },
                {
                    "name": "B2",
                    "midi": 47,
                    "time": 188.51849966666654,
                    "velocity": 0.5196850393700787,
                    "duration": 0.3703703333333408
                },
                {
                    "name": "E2",
                    "midi": 40,
                    "time": 188.88886999999988,
                    "velocity": 0.5826771653543307,
                    "duration": 0.3703703333333408
                },
                {
                    "name": "G#3",
                    "midi": 56,
                    "time": 189.25924033333322,
                    "velocity": 0.5354330708661418,
                    "duration": 0.3703703333333408
                },
                {
                    "name": "B2",
                    "midi": 47,
                    "time": 189.62961066666657,
                    "velocity": 0.5511811023622047,
                    "duration": 0.3703703333333408
                },
                {
                    "name": "E2",
                    "midi": 40,
                    "time": 189.9999809999999,
                    "velocity": 0.6141732283464567,
                    "duration": 0.3703703333333408
                },
                {
                    "name": "B3",
                    "midi": 59,
                    "time": 190.37035133333325,
                    "velocity": 0.5590551181102362,
                    "duration": 0.3703703333333408
                },
                {
                    "name": "B2",
                    "midi": 47,
                    "time": 190.7407216666666,
                    "velocity": 0.5748031496062992,
                    "duration": 0.3703703333333408
                },
                {
                    "name": "D#2",
                    "midi": 39,
                    "time": 191.11109199999993,
                    "velocity": 0.6220472440944882,
                    "duration": 0.1851851666666562
                },
                {
                    "name": "D#3",
                    "midi": 51,
                    "time": 191.48146233333324,
                    "velocity": 0.5433070866141733,
                    "duration": 0.1851851666666562
                },
                {
                    "name": "D#2",
                    "midi": 39,
                    "time": 191.85183266666655,
                    "velocity": 0.5433070866141733,
                    "duration": 0.1851851666666562
                },
                {
                    "name": "G#3",
                    "midi": 56,
                    "time": 192.22220299999987,
                    "velocity": 0.5433070866141733,
                    "duration": 0.1851851666666562
                },
                {
                    "name": "D#2",
                    "midi": 39,
                    "time": 192.59257333333318,
                    "velocity": 0.5433070866141733,
                    "duration": 0.1851851666666562
                },
                {
                    "name": "C4",
                    "midi": 60,
                    "time": 192.9629436666665,
                    "velocity": 0.5433070866141733,
                    "duration": 0.1851851666666562
                },
                {
                    "name": "D#2",
                    "midi": 39,
                    "time": 193.3333139999998,
                    "velocity": 0.5511811023622047,
                    "duration": 0.1851851666666562
                },
                {
                    "name": "D#4",
                    "midi": 63,
                    "time": 193.70368433333311,
                    "velocity": 0.5433070866141733,
                    "duration": 0.1851851666666562
                },
                {
                    "name": "D#2",
                    "midi": 39,
                    "time": 194.07405466666643,
                    "velocity": 0.5433070866141733,
                    "duration": 0.1851851666666562
                },
                {
                    "name": "G#4",
                    "midi": 68,
                    "time": 194.44442499999974,
                    "velocity": 0.5669291338582677,
                    "duration": 0.1851851666666562
                },
                {
                    "name": "D#4",
                    "midi": 63,
                    "time": 194.81479533333305,
                    "velocity": 0.5511811023622047,
                    "duration": 0.1851851666666562
                },
                {
                    "name": "C5",
                    "midi": 72,
                    "time": 195.18516566666636,
                    "velocity": 0.5433070866141733,
                    "duration": 0.1851851666666562
                },
                {
                    "name": "G#4",
                    "midi": 68,
                    "time": 195.55553599999968,
                    "velocity": 0.5354330708661418,
                    "duration": 0.1851851666666562
                },
                {
                    "name": "D#4",
                    "midi": 63,
                    "time": 195.925906333333,
                    "velocity": 0.5196850393700787,
                    "duration": 0.1851851666666562
                },
                {
                    "name": "C4",
                    "midi": 60,
                    "time": 196.2962766666663,
                    "velocity": 0.5118110236220472,
                    "duration": 0.1851851666666562
                },
                {
                    "name": "G#3",
                    "midi": 56,
                    "time": 196.6666469999996,
                    "velocity": 0.49606299212598426,
                    "duration": 0.1851851666666562
                },
                {
                    "name": "D#3",
                    "midi": 51,
                    "time": 197.03701733333293,
                    "velocity": 0.47244094488188976,
                    "duration": 0.1851851666666562
                },
                {
                    "name": "D#2",
                    "midi": 39,
                    "time": 197.40738766666624,
                    "velocity": 0.4645669291338583,
                    "duration": 0.3703703333333408
                },
                {
                    "name": "D#1",
                    "midi": 27,
                    "time": 197.77775799999958,
                    "velocity": 0.44881889763779526,
                    "duration": 0.3703703333333408
                },
                {
                    "name": "D#2",
                    "midi": 39,
                    "time": 198.14812833333292,
                    "velocity": 0.4409448818897638,
                    "duration": 0.3703703333333408
                },
                {
                    "name": "A#2",
                    "midi": 46,
                    "time": 198.51849866666626,
                    "velocity": 0.4409448818897638,
                    "duration": 0.3703703333333408
                },
                {
                    "name": "G3",
                    "midi": 55,
                    "time": 198.8888689999996,
                    "velocity": 0.4409448818897638,
                    "duration": 0.3703703333333408
                },
                {
                    "name": "D#3",
                    "midi": 51,
                    "time": 199.25923933333294,
                    "velocity": 0.4409448818897638,
                    "duration": 0.3703703333333408
                },
                {
                    "name": "A#2",
                    "midi": 46,
                    "time": 199.62960966666628,
                    "velocity": 0.4330708661417323,
                    "duration": 0.3703703333333408
                },
                {
                    "name": "D#2",
                    "midi": 39,
                    "time": 199.99997999999962,
                    "velocity": 0.4251968503937008,
                    "duration": 0.3703703333333408
                },
                {
                    "name": "D#3",
                    "midi": 51,
                    "time": 200.37035033333296,
                    "velocity": 0.4251968503937008,
                    "duration": 0.3703703333333408
                },
                {
                    "name": "D#4",
                    "midi": 63,
                    "time": 200.7407206666663,
                    "velocity": 0.41732283464566927,
                    "duration": 0.3703703333333408
                },
                {
                    "name": "G#1",
                    "midi": 32,
                    "time": 201.11109099999965,
                    "velocity": 0.4094488188976378,
                    "duration": 0.3703703333333408
                },
                {
                    "name": "D#3",
                    "midi": 51,
                    "time": 201.481461333333,
                    "velocity": 0.3700787401574803,
                    "duration": 0.3703703333333408
                },
                {
                    "name": "G#2",
                    "midi": 44,
                    "time": 201.85183166666633,
                    "velocity": 0.36220472440944884,
                    "duration": 0.3703703333333408
                },
                {
                    "name": "D#3",
                    "midi": 51,
                    "time": 202.22220199999967,
                    "velocity": 0.3543307086614173,
                    "duration": 0.3703703333333408
                },
                {
                    "name": "G#2",
                    "midi": 44,
                    "time": 202.592572333333,
                    "velocity": 0.3464566929133858,
                    "duration": 0.3703703333333408
                },
                {
                    "name": "D#3",
                    "midi": 51,
                    "time": 202.96294266666635,
                    "velocity": 0.33070866141732286,
                    "duration": 0.3703703333333408
                },
                {
                    "name": "G#2",
                    "midi": 44,
                    "time": 203.3333129999997,
                    "velocity": 0.36220472440944884,
                    "duration": 0.3703703333333408
                },
                {
                    "name": "D#3",
                    "midi": 51,
                    "time": 203.70368333333303,
                    "velocity": 0.31496062992125984,
                    "duration": 0.3703703333333408
                },
                {
                    "name": "G#2",
                    "midi": 44,
                    "time": 204.07405366666637,
                    "velocity": 0.30708661417322836,
                    "duration": 0.3703703333333408
                },
                {
                    "name": "E3",
                    "midi": 52,
                    "time": 204.4444239999997,
                    "velocity": 0.4094488188976378,
                    "duration": 0.3703703333333124
                },
                {
                    "name": "G#2",
                    "midi": 44,
                    "time": 204.81479433333303,
                    "velocity": 0.2755905511811024,
                    "duration": 0.3703703333333408
                },
                {
                    "name": "E3",
                    "midi": 52,
                    "time": 205.18516466666637,
                    "velocity": 0.2755905511811024,
                    "duration": 0.3703703333333408
                },
                {
                    "name": "G#2",
                    "midi": 44,
                    "time": 205.5555349999997,
                    "velocity": 0.2755905511811024,
                    "duration": 0.3703703333333408
                },
                {
                    "name": "E3",
                    "midi": 52,
                    "time": 205.92590533333305,
                    "velocity": 0.2755905511811024,
                    "duration": 0.3703703333333408
                },
                {
                    "name": "G#2",
                    "midi": 44,
                    "time": 206.2962756666664,
                    "velocity": 0.2755905511811024,
                    "duration": 0.3703703333333408
                },
                {
                    "name": "E3",
                    "midi": 52,
                    "time": 206.66664599999973,
                    "velocity": 0.28346456692913385,
                    "duration": 0.3703703333333408
                },
                {
                    "name": "G#2",
                    "midi": 44,
                    "time": 207.03701633333307,
                    "velocity": 0.28346456692913385,
                    "duration": 0.3703703333333408
                },
                {
                    "name": "E3",
                    "midi": 52,
                    "time": 207.4073866666664,
                    "velocity": 0.28346456692913385,
                    "duration": 0.3703703333333408
                },
                {
                    "name": "G#2",
                    "midi": 44,
                    "time": 207.77775699999975,
                    "velocity": 0.3464566929133858,
                    "duration": 0.3703703333333408
                },
                {
                    "name": "D#3",
                    "midi": 51,
                    "time": 208.1481273333331,
                    "velocity": 0.3779527559055118,
                    "duration": 0.3703703333333408
                },
                {
                    "name": "G#2",
                    "midi": 44,
                    "time": 208.51849766666643,
                    "velocity": 0.29133858267716534,
                    "duration": 0.3703703333333408
                },
                {
                    "name": "D#3",
                    "midi": 51,
                    "time": 208.88886799999977,
                    "velocity": 0.29133858267716534,
                    "duration": 0.3703703333333408
                },
                {
                    "name": "G#2",
                    "midi": 44,
                    "time": 209.25923833333312,
                    "velocity": 0.29133858267716534,
                    "duration": 0.3703703333333408
                },
                {
                    "name": "D#3",
                    "midi": 51,
                    "time": 209.62960866666646,
                    "velocity": 0.29133858267716534,
                    "duration": 0.3703703333333408
                },
                {
                    "name": "G#2",
                    "midi": 44,
                    "time": 209.9999789999998,
                    "velocity": 0.29133858267716534,
                    "duration": 0.3703703333333408
                },
                {
                    "name": "D#3",
                    "midi": 51,
                    "time": 210.37034933333314,
                    "velocity": 0.29133858267716534,
                    "duration": 0.3703703333333408
                },
                {
                    "name": "G#2",
                    "midi": 44,
                    "time": 210.74071966666648,
                    "velocity": 0.2992125984251969,
                    "duration": 0.3703703333333408
                },
                {
                    "name": "F3",
                    "midi": 53,
                    "time": 211.11108999999982,
                    "velocity": 0.4409448818897638,
                    "duration": 0.3703703333333408
                },
                {
                    "name": "G#2",
                    "midi": 44,
                    "time": 211.48146033333316,
                    "velocity": 0.2992125984251969,
                    "duration": 0.3703703333333408
                },
                {
                    "name": "F3",
                    "midi": 53,
                    "time": 211.8518306666665,
                    "velocity": 0.2992125984251969,
                    "duration": 0.3703703333333408
                },
                {
                    "name": "G#2",
                    "midi": 44,
                    "time": 212.22220099999984,
                    "velocity": 0.2992125984251969,
                    "duration": 0.3703703333333408
                },
                {
                    "name": "F3",
                    "midi": 53,
                    "time": 212.59257133333318,
                    "velocity": 0.30708661417322836,
                    "duration": 0.3703703333333408
                },
                {
                    "name": "G#2",
                    "midi": 44,
                    "time": 212.96294166666652,
                    "velocity": 0.30708661417322836,
                    "duration": 0.3703703333333408
                },
                {
                    "name": "F3",
                    "midi": 53,
                    "time": 213.33331199999986,
                    "velocity": 0.30708661417322836,
                    "duration": 0.3703703333333408
                },
                {
                    "name": "G#2",
                    "midi": 44,
                    "time": 213.7036823333332,
                    "velocity": 0.30708661417322836,
                    "duration": 0.3703703333333408
                },
                {
                    "name": "F3",
                    "midi": 53,
                    "time": 214.07405266666655,
                    "velocity": 0.30708661417322836,
                    "duration": 0.3703703333333408
                },
                {
                    "name": "G#2",
                    "midi": 44,
                    "time": 214.4444229999999,
                    "velocity": 0.3779527559055118,
                    "duration": 0.3703703333333408
                },
                {
                    "name": "F#3",
                    "midi": 54,
                    "time": 214.81479333333323,
                    "velocity": 0.3937007874015748,
                    "duration": 0.3703703333333408
                },
                {
                    "name": "G#2",
                    "midi": 44,
                    "time": 215.18516366666657,
                    "velocity": 0.31496062992125984,
                    "duration": 0.3703703333333408
                },
                {
                    "name": "F#3",
                    "midi": 54,
                    "time": 215.5555339999999,
                    "velocity": 0.31496062992125984,
                    "duration": 0.3703703333333408
                },
                {
                    "name": "G#2",
                    "midi": 44,
                    "time": 215.92590433333325,
                    "velocity": 0.31496062992125984,
                    "duration": 0.3703703333333408
                },
                {
                    "name": "F#3",
                    "midi": 54,
                    "time": 216.2962746666666,
                    "velocity": 0.31496062992125984,
                    "duration": 0.3703703333333408
                },
                {
                    "name": "G#2",
                    "midi": 44,
                    "time": 216.66664499999993,
                    "velocity": 0.3228346456692913,
                    "duration": 0.3703703333333408
                },
                {
                    "name": "F#3",
                    "midi": 54,
                    "time": 217.03701533333327,
                    "velocity": 0.3228346456692913,
                    "duration": 0.3703703333333408
                },
                {
                    "name": "G#2",
                    "midi": 44,
                    "time": 217.4073856666666,
                    "velocity": 0.3228346456692913,
                    "duration": 0.3703703333333408
                },
                {
                    "name": "F3",
                    "midi": 53,
                    "time": 217.77775599999995,
                    "velocity": 0.4330708661417323,
                    "duration": 0.3703703333333408
                },
                {
                    "name": "G#2",
                    "midi": 44,
                    "time": 218.1481263333333,
                    "velocity": 0.33070866141732286,
                    "duration": 0.3703703333333408
                },
                {
                    "name": "F3",
                    "midi": 53,
                    "time": 218.51849666666664,
                    "velocity": 0.33070866141732286,
                    "duration": 0.3703703333333408
                },
                {
                    "name": "G#2",
                    "midi": 44,
                    "time": 218.88886699999998,
                    "velocity": 0.33070866141732286,
                    "duration": 0.3703703333333408
                },
                {
                    "name": "F3",
                    "midi": 53,
                    "time": 219.25923733333332,
                    "velocity": 0.33070866141732286,
                    "duration": 0.3703703333333408
                },
                {
                    "name": "G#2",
                    "midi": 44,
                    "time": 219.62960766666666,
                    "velocity": 0.33070866141732286,
                    "duration": 0.3703703333333408
                },
                {
                    "name": "F3",
                    "midi": 53,
                    "time": 219.999978,
                    "velocity": 0.33858267716535434,
                    "duration": 0.3703703333333408
                },
                {
                    "name": "G#2",
                    "midi": 44,
                    "time": 220.37034833333334,
                    "velocity": 0.33858267716535434,
                    "duration": 0.3703703333333408
                },
                {
                    "name": "F3",
                    "midi": 53,
                    "time": 220.74071866666668,
                    "velocity": 0.33858267716535434,
                    "duration": 0.3703703333333408
                },
                {
                    "name": "G#2",
                    "midi": 44,
                    "time": 221.11108900000002,
                    "velocity": 0.36220472440944884,
                    "duration": 0.3703703333333124
                },
                {
                    "name": "F#3",
                    "midi": 54,
                    "time": 221.48145933333333,
                    "velocity": 0.4330708661417323,
                    "duration": 0.3703703333333408
                },
                {
                    "name": "G#2",
                    "midi": 44,
                    "time": 221.85182966666667,
                    "velocity": 0.3464566929133858,
                    "duration": 0.3703703333333408
                },
                {
                    "name": "F#3",
                    "midi": 54,
                    "time": 222.22220000000002,
                    "velocity": 0.3464566929133858,
                    "duration": 0.3703703333333408
                },
                {
                    "name": "G#2",
                    "midi": 44,
                    "time": 222.59257033333336,
                    "velocity": 0.3464566929133858,
                    "duration": 0.3703703333333408
                },
                {
                    "name": "F#3",
                    "midi": 54,
                    "time": 222.9629406666667,
                    "velocity": 0.3464566929133858,
                    "duration": 0.3703703333333408
                },
                {
                    "name": "G#2",
                    "midi": 44,
                    "time": 223.33331100000004,
                    "velocity": 0.3464566929133858,
                    "duration": 0.3703703333333408
                },
                {
                    "name": "F#3",
                    "midi": 54,
                    "time": 223.70368133333338,
                    "velocity": 0.3464566929133858,
                    "duration": 0.3703703333333408
                },
                {
                    "name": "G#2",
                    "midi": 44,
                    "time": 224.07405166666672,
                    "velocity": 0.3543307086614173,
                    "duration": 0.3703703333333408
                },
                {
                    "name": "G3",
                    "midi": 55,
                    "time": 224.44442200000006,
                    "velocity": 0.4645669291338583,
                    "duration": 0.3703703333333408
                },
                {
                    "name": "G#2",
                    "midi": 44,
                    "time": 224.8147923333334,
                    "velocity": 0.3543307086614173,
                    "duration": 0.3703703333333408
                },
                {
                    "name": "G3",
                    "midi": 55,
                    "time": 225.18516266666674,
                    "velocity": 0.3543307086614173,
                    "duration": 0.3703703333333408
                },
                {
                    "name": "G#2",
                    "midi": 44,
                    "time": 225.55553300000008,
                    "velocity": 0.3543307086614173,
                    "duration": 0.3703703333333408
                },
                {
                    "name": "G3",
                    "midi": 55,
                    "time": 225.92590333333342,
                    "velocity": 0.36220472440944884,
                    "duration": 0.3703703333333408
                },
                {
                    "name": "G#2",
                    "midi": 44,
                    "time": 226.29627366666676,
                    "velocity": 0.36220472440944884,
                    "duration": 0.3703703333333408
                },
                {
                    "name": "G3",
                    "midi": 55,
                    "time": 226.6666440000001,
                    "velocity": 0.36220472440944884,
                    "duration": 0.3703703333333408
                },
                {
                    "name": "G#2",
                    "midi": 44,
                    "time": 227.03701433333345,
                    "velocity": 0.36220472440944884,
                    "duration": 0.3703703333333408
                },
                {
                    "name": "G3",
                    "midi": 55,
                    "time": 227.4073846666668,
                    "velocity": 0.36220472440944884,
                    "duration": 0.3703703333333408
                },
                {
                    "name": "G#2",
                    "midi": 44,
                    "time": 227.77775500000013,
                    "velocity": 0.4015748031496063,
                    "duration": 0.3703703333333408
                },
                {
                    "name": "G#3",
                    "midi": 56,
                    "time": 228.14812533333347,
                    "velocity": 0.4881889763779528,
                    "duration": 0.3703703333333408
                },
                {
                    "name": "G#2",
                    "midi": 44,
                    "time": 228.5184956666668,
                    "velocity": 0.3858267716535433,
                    "duration": 0.3703703333333408
                },
                {
                    "name": "G#3",
                    "midi": 56,
                    "time": 228.88886600000015,
                    "velocity": 0.3779527559055118,
                    "duration": 0.3703703333333408
                },
                {
                    "name": "G#2",
                    "midi": 44,
                    "time": 229.2592363333335,
                    "velocity": 0.3779527559055118,
                    "duration": 0.3703703333333408
                },
                {
                    "name": "G#3",
                    "midi": 56,
                    "time": 229.62960666666683,
                    "velocity": 0.3779527559055118,
                    "duration": 0.3703703333333408
                },
                {
                    "name": "G#2",
                    "midi": 44,
                    "time": 229.99997700000017,
                    "velocity": 0.3858267716535433,
                    "duration": 0.3703703333333408
                },
                {
                    "name": "G#3",
                    "midi": 56,
                    "time": 230.3703473333335,
                    "velocity": 0.3858267716535433,
                    "duration": 0.3703703333333408
                },
                {
                    "name": "G#2",
                    "midi": 44,
                    "time": 230.74071766666685,
                    "velocity": 0.3858267716535433,
                    "duration": 0.3703703333333408
                },
                {
                    "name": "G3",
                    "midi": 55,
                    "time": 231.1110880000002,
                    "velocity": 0.5275590551181102,
                    "duration": 0.3703703333333408
                },
                {
                    "name": "G#2",
                    "midi": 44,
                    "time": 231.48145833333353,
                    "velocity": 0.3937007874015748,
                    "duration": 0.3703703333333408
                },
                {
                    "name": "G3",
                    "midi": 55,
                    "time": 231.85182866666688,
                    "velocity": 0.3937007874015748,
                    "duration": 0.3703703333333408
                },
                {
                    "name": "G#2",
                    "midi": 44,
                    "time": 232.22219900000022,
                    "velocity": 0.3937007874015748,
                    "duration": 0.3703703333333408
                },
                {
                    "name": "G3",
                    "midi": 55,
                    "time": 232.59256933333356,
                    "velocity": 0.3937007874015748,
                    "duration": 0.3703703333333408
                },
                {
                    "name": "G#2",
                    "midi": 44,
                    "time": 232.9629396666669,
                    "velocity": 0.3937007874015748,
                    "duration": 0.3703703333333408
                },
                {
                    "name": "G3",
                    "midi": 55,
                    "time": 233.33331000000024,
                    "velocity": 0.4015748031496063,
                    "duration": 0.3703703333333408
                },
                {
                    "name": "G#2",
                    "midi": 44,
                    "time": 233.70368033333358,
                    "velocity": 0.4015748031496063,
                    "duration": 0.3703703333333408
                },
                {
                    "name": "G3",
                    "midi": 55,
                    "time": 234.07405066666692,
                    "velocity": 0.4015748031496063,
                    "duration": 0.3703703333333408
                },
                {
                    "name": "G#2",
                    "midi": 44,
                    "time": 234.44442100000026,
                    "velocity": 0.4566929133858268,
                    "duration": 0.3703703333333408
                },
                {
                    "name": "G#3",
                    "midi": 56,
                    "time": 234.8147913333336,
                    "velocity": 0.5433070866141733,
                    "duration": 0.3703703333333408
                },
                {
                    "name": "G#2",
                    "midi": 44,
                    "time": 235.18516166666694,
                    "velocity": 0.4094488188976378,
                    "duration": 0.3703703333333408
                },
                {
                    "name": "G#3",
                    "midi": 56,
                    "time": 235.55553200000028,
                    "velocity": 0.4094488188976378,
                    "duration": 0.3703703333333408
                },
                {
                    "name": "G#2",
                    "midi": 44,
                    "time": 235.92590233333362,
                    "velocity": 0.4094488188976378,
                    "duration": 0.3703703333333408
                },
                {
                    "name": "G#3",
                    "midi": 56,
                    "time": 236.29627266666697,
                    "velocity": 0.4094488188976378,
                    "duration": 0.3703703333333408
                },
                {
                    "name": "G#2",
                    "midi": 44,
                    "time": 236.6666430000003,
                    "velocity": 0.41732283464566927,
                    "duration": 0.3703703333333408
                },
                {
                    "name": "G#3",
                    "midi": 56,
                    "time": 237.03701333333365,
                    "velocity": 0.41732283464566927,
                    "duration": 0.3703703333333408
                },
                {
                    "name": "G#2",
                    "midi": 44,
                    "time": 237.407383666667,
                    "velocity": 0.4251968503937008,
                    "duration": 0.3703703333333408
                },
                {
                    "name": "A3",
                    "midi": 57,
                    "time": 237.77775400000033,
                    "velocity": 0.5039370078740157,
                    "duration": 0.3703703333333408
                },
                {
                    "name": "G#2",
                    "midi": 44,
                    "time": 238.14812433333367,
                    "velocity": 0.47244094488188976,
                    "duration": 0.3703703333333408
                },
                {
                    "name": "A3",
                    "midi": 57,
                    "time": 238.518494666667,
                    "velocity": 0.47244094488188976,
                    "duration": 0.3703703333333408
                },
                {
                    "name": "G#2",
                    "midi": 44,
                    "time": 238.88886500000035,
                    "velocity": 0.47244094488188976,
                    "duration": 0.3703703333333408
                },
                {
                    "name": "A3",
                    "midi": 57,
                    "time": 239.2592353333337,
                    "velocity": 0.48031496062992124,
                    "duration": 0.3703703333333408
                },
                {
                    "name": "G#2",
                    "midi": 44,
                    "time": 239.62960566666703,
                    "velocity": 0.48031496062992124,
                    "duration": 0.3703703333333408
                },
                {
                    "name": "A3",
                    "midi": 57,
                    "time": 239.99997600000037,
                    "velocity": 0.48031496062992124,
                    "duration": 0.3703703333333408
                },
                {
                    "name": "G#2",
                    "midi": 44,
                    "time": 240.3703463333337,
                    "velocity": 0.48031496062992124,
                    "duration": 0.3703703333333408
                },
                {
                    "name": "A3",
                    "midi": 57,
                    "time": 240.74071666666705,
                    "velocity": 0.4881889763779528,
                    "duration": 0.3703703333333408
                },
                {
                    "name": "G#2",
                    "midi": 44,
                    "time": 241.1110870000004,
                    "velocity": 0.4409448818897638,
                    "duration": 1.099536927083335
                },
                {
                    "name": "A3",
                    "midi": 57,
                    "time": 241.1110870000004,
                    "velocity": 0.5275590551181102,
                    "duration": 1.099536927083335
                },
                {
                    "name": "G#2",
                    "midi": 44,
                    "time": 242.2221980000004,
                    "velocity": 0.4566929133858268,
                    "duration": 1.099536927083335
                },
                {
                    "name": "A3",
                    "midi": 57,
                    "time": 242.2221980000004,
                    "velocity": 0.5354330708661418,
                    "duration": 1.099536927083335
                },
                {
                    "name": "G#2",
                    "midi": 44,
                    "time": 243.33330900000038,
                    "velocity": 0.47244094488188976,
                    "duration": 1.111110999999994
                },
                {
                    "name": "G#3",
                    "midi": 56,
                    "time": 243.33330900000038,
                    "velocity": 0.5590551181102362,
                    "duration": 1.111110999999994
                },
                {
                    "name": "C#3",
                    "midi": 49,
                    "time": 244.44442000000038,
                    "velocity": 0.4645669291338583,
                    "duration": 1.0995369270833066
                },
                {
                    "name": "G#3",
                    "midi": 56,
                    "time": 244.44442000000038,
                    "velocity": 0.4645669291338583,
                    "duration": 1.0995369270833066
                },
                {
                    "name": "C#4",
                    "midi": 61,
                    "time": 244.44442000000038,
                    "velocity": 0.5669291338582677,
                    "duration": 1.0995369270833066
                },
                {
                    "name": "C#3",
                    "midi": 49,
                    "time": 245.55553100000034,
                    "velocity": 0.3700787401574803,
                    "duration": 1.099536927083335
                },
                {
                    "name": "G#3",
                    "midi": 56,
                    "time": 245.55553100000034,
                    "velocity": 0.3700787401574803,
                    "duration": 1.099536927083335
                },
                {
                    "name": "C#4",
                    "midi": 61,
                    "time": 245.55553100000034,
                    "velocity": 0.44881889763779526,
                    "duration": 1.099536927083335
                },
                {
                    "name": "C#3",
                    "midi": 49,
                    "time": 246.66664200000034,
                    "velocity": 0.3700787401574803,
                    "duration": 1.099536927083335
                },
                {
                    "name": "G#3",
                    "midi": 56,
                    "time": 246.66664200000034,
                    "velocity": 0.3700787401574803,
                    "duration": 1.099536927083335
                },
                {
                    "name": "C#4",
                    "midi": 61,
                    "time": 246.66664200000034,
                    "velocity": 0.44881889763779526,
                    "duration": 1.099536927083335
                },
                {
                    "name": "F#3",
                    "midi": 54,
                    "time": 247.77775300000033,
                    "velocity": 0.4251968503937008,
                    "duration": 3.333332999999982
                },
                {
                    "name": "C#4",
                    "midi": 61,
                    "time": 247.77775300000033,
                    "velocity": 0.5039370078740157,
                    "duration": 3.333332999999982
                },
                {
                    "name": "F#2",
                    "midi": 42,
                    "time": 248.88886400000032,
                    "velocity": 0.4881889763779528,
                    "duration": 0.555555499999997
                },
                {
                    "name": "F#1",
                    "midi": 30,
                    "time": 249.99997500000032,
                    "velocity": 0.4881889763779528,
                    "duration": 0.555555499999997
                },
                {
                    "name": "C#2",
                    "midi": 37,
                    "time": 251.1110860000003,
                    "velocity": 0.4881889763779528,
                    "duration": 0.555555499999997
                },
                {
                    "name": "C#3",
                    "midi": 49,
                    "time": 252.2221970000003,
                    "velocity": 0.36220472440944884,
                    "duration": 0.2777777500000127
                },
                {
                    "name": "G#3",
                    "midi": 56,
                    "time": 252.2221970000003,
                    "velocity": 0.36220472440944884,
                    "duration": 0.2777777500000127
                },
                {
                    "name": "C#4",
                    "midi": 61,
                    "time": 252.2221970000003,
                    "velocity": 0.4330708661417323,
                    "duration": 0.2777777500000127
                },
                {
                    "name": "C#3",
                    "midi": 49,
                    "time": 252.77775250000033,
                    "velocity": 0.36220472440944884,
                    "duration": 0.2777777500000127
                },
                {
                    "name": "G#3",
                    "midi": 56,
                    "time": 252.77775250000033,
                    "velocity": 0.36220472440944884,
                    "duration": 0.2777777500000127
                },
                {
                    "name": "C#4",
                    "midi": 61,
                    "time": 252.77775250000033,
                    "velocity": 0.4330708661417323,
                    "duration": 0.2777777500000127
                },
                {
                    "name": "C#3",
                    "midi": 49,
                    "time": 253.33330800000036,
                    "velocity": 0.36220472440944884,
                    "duration": 0.2777777500000127
                },
                {
                    "name": "G#3",
                    "midi": 56,
                    "time": 253.33330800000036,
                    "velocity": 0.36220472440944884,
                    "duration": 0.2777777500000127
                },
                {
                    "name": "C#4",
                    "midi": 61,
                    "time": 253.33330800000036,
                    "velocity": 0.4409448818897638,
                    "duration": 0.2777777500000127
                },
                {
                    "name": "C#3",
                    "midi": 49,
                    "time": 253.88886350000038,
                    "velocity": 0.3700787401574803,
                    "duration": 0.2777777500000127
                },
                {
                    "name": "G#3",
                    "midi": 56,
                    "time": 253.88886350000038,
                    "velocity": 0.3700787401574803,
                    "duration": 0.2777777500000127
                },
                {
                    "name": "C#4",
                    "midi": 61,
                    "time": 253.88886350000038,
                    "velocity": 0.44881889763779526,
                    "duration": 0.2777777500000127
                },
                {
                    "name": "C#3",
                    "midi": 49,
                    "time": 254.4444190000004,
                    "velocity": 0.3858267716535433,
                    "duration": 1.111110999999994
                },
                {
                    "name": "A3",
                    "midi": 57,
                    "time": 254.4444190000004,
                    "velocity": 0.3858267716535433,
                    "duration": 1.111110999999994
                },
                {
                    "name": "C4",
                    "midi": 60,
                    "time": 254.4444190000004,
                    "velocity": 0.4645669291338583,
                    "duration": 1.111110999999994
                },
                {
                    "name": "C#3",
                    "midi": 49,
                    "time": 255.5555300000004,
                    "velocity": 0.4015748031496063,
                    "duration": 1.1111110000000224
                },
                {
                    "name": "A3",
                    "midi": 57,
                    "time": 255.5555300000004,
                    "velocity": 0.4015748031496063,
                    "duration": 1.1111110000000224
                },
                {
                    "name": "C4",
                    "midi": 60,
                    "time": 255.5555300000004,
                    "velocity": 0.48031496062992124,
                    "duration": 1.1111110000000224
                },
                {
                    "name": "C#3",
                    "midi": 49,
                    "time": 256.6666410000004,
                    "velocity": 0.4094488188976378,
                    "duration": 1.111110999999994
                },
                {
                    "name": "G#3",
                    "midi": 56,
                    "time": 256.6666410000004,
                    "velocity": 0.4094488188976378,
                    "duration": 1.111110999999994
                },
                {
                    "name": "C4",
                    "midi": 60,
                    "time": 256.6666410000004,
                    "velocity": 0.4881889763779528,
                    "duration": 1.111110999999994
                },
                {
                    "name": "C#3",
                    "midi": 49,
                    "time": 257.7777520000004,
                    "velocity": 0.44881889763779526,
                    "duration": 1.0995369270833635
                },
                {
                    "name": "G#3",
                    "midi": 56,
                    "time": 257.7777520000004,
                    "velocity": 0.44881889763779526,
                    "duration": 1.0995369270833635
                },
                {
                    "name": "C#4",
                    "midi": 61,
                    "time": 257.7777520000004,
                    "velocity": 0.5433070866141733,
                    "duration": 1.0995369270833635
                },
                {
                    "name": "C#3",
                    "midi": 49,
                    "time": 258.88886300000047,
                    "velocity": 0.3700787401574803,
                    "duration": 1.0995369270833066
                },
                {
                    "name": "G#3",
                    "midi": 56,
                    "time": 258.88886300000047,
                    "velocity": 0.3700787401574803,
                    "duration": 1.0995369270833066
                },
                {
                    "name": "C#4",
                    "midi": 61,
                    "time": 258.88886300000047,
                    "velocity": 0.44881889763779526,
                    "duration": 1.0995369270833066
                },
                {
                    "name": "C#3",
                    "midi": 49,
                    "time": 259.99997400000046,
                    "velocity": 0.3700787401574803,
                    "duration": 1.0995369270833066
                },
                {
                    "name": "G#3",
                    "midi": 56,
                    "time": 259.99997400000046,
                    "velocity": 0.3700787401574803,
                    "duration": 1.0995369270833066
                },
                {
                    "name": "C#4",
                    "midi": 61,
                    "time": 259.99997400000046,
                    "velocity": 0.44881889763779526,
                    "duration": 1.0995369270833066
                },
                {
                    "name": "F#3",
                    "midi": 54,
                    "time": 261.11108500000046,
                    "velocity": 0.4251968503937008,
                    "duration": 3.3333330000000956
                },
                {
                    "name": "C#4",
                    "midi": 61,
                    "time": 261.11108500000046,
                    "velocity": 0.5039370078740157,
                    "duration": 3.3333330000000956
                },
                {
                    "name": "F#2",
                    "midi": 42,
                    "time": 262.22219600000045,
                    "velocity": 0.4881889763779528,
                    "duration": 0.5555555000000254
                },
                {
                    "name": "F#1",
                    "midi": 30,
                    "time": 263.3333070000005,
                    "velocity": 0.4881889763779528,
                    "duration": 0.5555555000000254
                },
                {
                    "name": "C#2",
                    "midi": 37,
                    "time": 264.44441800000055,
                    "velocity": 0.4881889763779528,
                    "duration": 0.5555554999999686
                },
                {
                    "name": "C#3",
                    "midi": 49,
                    "time": 265.55552900000055,
                    "velocity": 0.36220472440944884,
                    "duration": 0.2777777499999843
                },
                {
                    "name": "G#3",
                    "midi": 56,
                    "time": 265.55552900000055,
                    "velocity": 0.36220472440944884,
                    "duration": 0.2777777499999843
                },
                {
                    "name": "C#4",
                    "midi": 61,
                    "time": 265.55552900000055,
                    "velocity": 0.4330708661417323,
                    "duration": 0.2777777499999843
                },
                {
                    "name": "C#3",
                    "midi": 49,
                    "time": 266.1110845000005,
                    "velocity": 0.36220472440944884,
                    "duration": 0.2777777499999843
                },
                {
                    "name": "G#3",
                    "midi": 56,
                    "time": 266.1110845000005,
                    "velocity": 0.36220472440944884,
                    "duration": 0.2777777499999843
                },
                {
                    "name": "C#4",
                    "midi": 61,
                    "time": 266.1110845000005,
                    "velocity": 0.4330708661417323,
                    "duration": 0.2777777499999843
                },
                {
                    "name": "C#3",
                    "midi": 49,
                    "time": 266.6666400000005,
                    "velocity": 0.36220472440944884,
                    "duration": 0.2777777499999843
                },
                {
                    "name": "G#3",
                    "midi": 56,
                    "time": 266.6666400000005,
                    "velocity": 0.36220472440944884,
                    "duration": 0.2777777499999843
                },
                {
                    "name": "C#4",
                    "midi": 61,
                    "time": 266.6666400000005,
                    "velocity": 0.4409448818897638,
                    "duration": 0.2777777499999843
                },
                {
                    "name": "C#3",
                    "midi": 49,
                    "time": 267.22219550000045,
                    "velocity": 0.3700787401574803,
                    "duration": 0.2777777499999843
                },
                {
                    "name": "G#3",
                    "midi": 56,
                    "time": 267.22219550000045,
                    "velocity": 0.3700787401574803,
                    "duration": 0.2777777499999843
                },
                {
                    "name": "C#4",
                    "midi": 61,
                    "time": 267.22219550000045,
                    "velocity": 0.44881889763779526,
                    "duration": 0.2777777499999843
                },
                {
                    "name": "C#3",
                    "midi": 49,
                    "time": 267.7777510000004,
                    "velocity": 0.30708661417322836,
                    "duration": 1.111110999999994
                },
                {
                    "name": "G3",
                    "midi": 55,
                    "time": 267.7777510000004,
                    "velocity": 0.3858267716535433,
                    "duration": 1.111110999999994
                },
                {
                    "name": "C3",
                    "midi": 48,
                    "time": 268.8888620000004,
                    "velocity": 0.3228346456692913,
                    "duration": 1.111110999999994
                },
                {
                    "name": "G3",
                    "midi": 55,
                    "time": 268.8888620000004,
                    "velocity": 0.3937007874015748,
                    "duration": 1.111110999999994
                },
                {
                    "name": "C3",
                    "midi": 48,
                    "time": 269.9999730000004,
                    "velocity": 0.29133858267716534,
                    "duration": 1.111110999999994
                },
                {
                    "name": "G3",
                    "midi": 55,
                    "time": 269.9999730000004,
                    "velocity": 0.29133858267716534,
                    "duration": 1.111110999999994
                },
                {
                    "name": "B3",
                    "midi": 59,
                    "time": 269.9999730000004,
                    "velocity": 0.3543307086614173,
                    "duration": 1.111110999999994
                },
                {
                    "name": "C3",
                    "midi": 48,
                    "time": 271.1110840000004,
                    "velocity": 0.2047244094488189,
                    "duration": 1.0995369270833635
                },
                {
                    "name": "G3",
                    "midi": 55,
                    "time": 271.1110840000004,
                    "velocity": 0.2047244094488189,
                    "duration": 1.0995369270833635
                },
                {
                    "name": "C4",
                    "midi": 60,
                    "time": 271.1110840000004,
                    "velocity": 0.25196850393700787,
                    "duration": 1.0995369270833635
                },
                {
                    "name": "C3",
                    "midi": 48,
                    "time": 272.22219500000045,
                    "velocity": 0.1732283464566929,
                    "duration": 1.0995369270833066
                },
                {
                    "name": "G3",
                    "midi": 55,
                    "time": 272.22219500000045,
                    "velocity": 0.1732283464566929,
                    "duration": 1.0995369270833066
                },
                {
                    "name": "C4",
                    "midi": 60,
                    "time": 272.22219500000045,
                    "velocity": 0.2047244094488189,
                    "duration": 1.0995369270833066
                },
                {
                    "name": "C3",
                    "midi": 48,
                    "time": 273.33330600000045,
                    "velocity": 0.1732283464566929,
                    "duration": 1.0995369270833066
                },
                {
                    "name": "G3",
                    "midi": 55,
                    "time": 273.33330600000045,
                    "velocity": 0.1732283464566929,
                    "duration": 1.0995369270833066
                },
                {
                    "name": "C4",
                    "midi": 60,
                    "time": 273.33330600000045,
                    "velocity": 0.2047244094488189,
                    "duration": 1.0995369270833066
                },
                {
                    "name": "F3",
                    "midi": 53,
                    "time": 274.44441700000044,
                    "velocity": 0.1968503937007874,
                    "duration": 3.3333330000000956
                },
                {
                    "name": "C4",
                    "midi": 60,
                    "time": 274.44441700000044,
                    "velocity": 0.23622047244094488,
                    "duration": 3.3333330000000956
                },
                {
                    "name": "F2",
                    "midi": 41,
                    "time": 275.55552800000044,
                    "velocity": 0.2204724409448819,
                    "duration": 0.5555555000000254
                },
                {
                    "name": "F1",
                    "midi": 29,
                    "time": 276.6666390000005,
                    "velocity": 0.2204724409448819,
                    "duration": 0.5555555000000254
                },
                {
                    "name": "C2",
                    "midi": 36,
                    "time": 277.77775000000054,
                    "velocity": 0.29133858267716534,
                    "duration": 0.5555554999999686
                },
                {
                    "name": "C3",
                    "midi": 48,
                    "time": 278.88886100000053,
                    "velocity": 0.2125984251968504,
                    "duration": 0.2777777499999843
                },
                {
                    "name": "G3",
                    "midi": 55,
                    "time": 278.88886100000053,
                    "velocity": 0.2125984251968504,
                    "duration": 0.2777777499999843
                },
                {
                    "name": "C4",
                    "midi": 60,
                    "time": 278.88886100000053,
                    "velocity": 0.25196850393700787,
                    "duration": 0.2777777499999843
                },
                {
                    "name": "C3",
                    "midi": 48,
                    "time": 279.4444165000005,
                    "velocity": 0.2204724409448819,
                    "duration": 0.2777777499999843
                },
                {
                    "name": "G3",
                    "midi": 55,
                    "time": 279.4444165000005,
                    "velocity": 0.2204724409448819,
                    "duration": 0.2777777499999843
                },
                {
                    "name": "C4",
                    "midi": 60,
                    "time": 279.4444165000005,
                    "velocity": 0.25984251968503935,
                    "duration": 0.2777777499999843
                },
                {
                    "name": "C3",
                    "midi": 48,
                    "time": 279.99997200000047,
                    "velocity": 0.2204724409448819,
                    "duration": 0.2777777499999843
                },
                {
                    "name": "G3",
                    "midi": 55,
                    "time": 279.99997200000047,
                    "velocity": 0.2204724409448819,
                    "duration": 0.2777777499999843
                },
                {
                    "name": "C4",
                    "midi": 60,
                    "time": 279.99997200000047,
                    "velocity": 0.25984251968503935,
                    "duration": 0.2777777499999843
                },
                {
                    "name": "C3",
                    "midi": 48,
                    "time": 280.55552750000044,
                    "velocity": 0.2283464566929134,
                    "duration": 0.2777777499999843
                },
                {
                    "name": "G3",
                    "midi": 55,
                    "time": 280.55552750000044,
                    "velocity": 0.2283464566929134,
                    "duration": 0.2777777499999843
                },
                {
                    "name": "C4",
                    "midi": 60,
                    "time": 280.55552750000044,
                    "velocity": 0.2677165354330709,
                    "duration": 0.2777777499999843
                },
                {
                    "name": "C3",
                    "midi": 48,
                    "time": 281.1110830000004,
                    "velocity": 0.2204724409448819,
                    "duration": 1.111110999999994
                },
                {
                    "name": "G#3",
                    "midi": 56,
                    "time": 281.1110830000004,
                    "velocity": 0.2204724409448819,
                    "duration": 1.111110999999994
                },
                {
                    "name": "B3",
                    "midi": 59,
                    "time": 281.1110830000004,
                    "velocity": 0.2755905511811024,
                    "duration": 1.111110999999994
                },
                {
                    "name": "C3",
                    "midi": 48,
                    "time": 282.2221940000004,
                    "velocity": 0.23622047244094488,
                    "duration": 1.111110999999994
                },
                {
                    "name": "G#3",
                    "midi": 56,
                    "time": 282.2221940000004,
                    "velocity": 0.23622047244094488,
                    "duration": 1.111110999999994
                },
                {
                    "name": "B3",
                    "midi": 59,
                    "time": 282.2221940000004,
                    "velocity": 0.29133858267716534,
                    "duration": 1.111110999999994
                },
                {
                    "name": "C3",
                    "midi": 48,
                    "time": 283.3333050000004,
                    "velocity": 0.2440944881889764,
                    "duration": 1.111110999999994
                },
                {
                    "name": "G3",
                    "midi": 55,
                    "time": 283.3333050000004,
                    "velocity": 0.2440944881889764,
                    "duration": 1.111110999999994
                },
                {
                    "name": "B3",
                    "midi": 59,
                    "time": 283.3333050000004,
                    "velocity": 0.30708661417322836,
                    "duration": 1.111110999999994
                },
                {
                    "name": "C3",
                    "midi": 48,
                    "time": 284.4444160000004,
                    "velocity": 0.28346456692913385,
                    "duration": 1.0995369270833066
                },
                {
                    "name": "G3",
                    "midi": 55,
                    "time": 284.4444160000004,
                    "velocity": 0.28346456692913385,
                    "duration": 1.0995369270833066
                },
                {
                    "name": "C4",
                    "midi": 60,
                    "time": 284.4444160000004,
                    "velocity": 0.3464566929133858,
                    "duration": 1.0995369270833066
                },
                {
                    "name": "C3",
                    "midi": 48,
                    "time": 285.5555270000004,
                    "velocity": 0.23622047244094488,
                    "duration": 1.0995369270833066
                },
                {
                    "name": "G3",
                    "midi": 55,
                    "time": 285.5555270000004,
                    "velocity": 0.23622047244094488,
                    "duration": 1.0995369270833066
                },
                {
                    "name": "C4",
                    "midi": 60,
                    "time": 285.5555270000004,
                    "velocity": 0.28346456692913385,
                    "duration": 1.0995369270833066
                },
                {
                    "name": "C3",
                    "midi": 48,
                    "time": 286.6666380000004,
                    "velocity": 0.23622047244094488,
                    "duration": 1.0995369270833066
                },
                {
                    "name": "G3",
                    "midi": 55,
                    "time": 286.6666380000004,
                    "velocity": 0.23622047244094488,
                    "duration": 1.0995369270833066
                },
                {
                    "name": "C4",
                    "midi": 60,
                    "time": 286.6666380000004,
                    "velocity": 0.28346456692913385,
                    "duration": 1.0995369270833066
                },
                {
                    "name": "G#3",
                    "midi": 56,
                    "time": 287.77774900000037,
                    "velocity": 0.28346456692913385,
                    "duration": 1.111110999999994
                },
                {
                    "name": "B3",
                    "midi": 59,
                    "time": 287.77774900000037,
                    "velocity": 0.3464566929133858,
                    "duration": 1.111110999999994
                },
                {
                    "name": "A3",
                    "midi": 57,
                    "time": 288.88886000000036,
                    "velocity": 0.2992125984251969,
                    "duration": 1.111110999999994
                },
                {
                    "name": "C4",
                    "midi": 60,
                    "time": 288.88886000000036,
                    "velocity": 0.36220472440944884,
                    "duration": 1.111110999999994
                },
                {
                    "name": "B3",
                    "midi": 59,
                    "time": 289.99997100000036,
                    "velocity": 0.31496062992125984,
                    "duration": 1.111110999999994
                },
                {
                    "name": "D4",
                    "midi": 62,
                    "time": 289.99997100000036,
                    "velocity": 0.3858267716535433,
                    "duration": 1.111110999999994
                },
                {
                    "name": "C4",
                    "midi": 60,
                    "time": 291.11108200000035,
                    "velocity": 0.3543307086614173,
                    "duration": 1.0995369270833066
                },
                {
                    "name": "D#4",
                    "midi": 63,
                    "time": 291.11108200000035,
                    "velocity": 0.4330708661417323,
                    "duration": 1.0995369270833066
                },
                {
                    "name": "C4",
                    "midi": 60,
                    "time": 292.22219300000035,
                    "velocity": 0.30708661417322836,
                    "duration": 1.0995369270833066
                },
                {
                    "name": "D#4",
                    "midi": 63,
                    "time": 292.22219300000035,
                    "velocity": 0.3700787401574803,
                    "duration": 1.0995369270833066
                },
                {
                    "name": "C4",
                    "midi": 60,
                    "time": 293.33330400000034,
                    "velocity": 0.3228346456692913,
                    "duration": 1.0995369270833066
                },
                {
                    "name": "D#4",
                    "midi": 63,
                    "time": 293.33330400000034,
                    "velocity": 0.3858267716535433,
                    "duration": 1.0995369270833066
                },
                {
                    "name": "B3",
                    "midi": 59,
                    "time": 294.44441500000033,
                    "velocity": 0.36220472440944884,
                    "duration": 1.111110999999994
                },
                {
                    "name": "D4",
                    "midi": 62,
                    "time": 294.44441500000033,
                    "velocity": 0.4330708661417323,
                    "duration": 1.111110999999994
                },
                {
                    "name": "C4",
                    "midi": 60,
                    "time": 295.5555260000003,
                    "velocity": 0.3779527559055118,
                    "duration": 1.111110999999994
                },
                {
                    "name": "D#4",
                    "midi": 63,
                    "time": 295.5555260000003,
                    "velocity": 0.44881889763779526,
                    "duration": 1.111110999999994
                },
                {
                    "name": "D4",
                    "midi": 62,
                    "time": 296.6666370000003,
                    "velocity": 0.4015748031496063,
                    "duration": 1.111110999999994
                },
                {
                    "name": "F4",
                    "midi": 65,
                    "time": 296.6666370000003,
                    "velocity": 0.47244094488188976,
                    "duration": 1.111110999999994
                },
                {
                    "name": "D#4",
                    "midi": 63,
                    "time": 297.7777480000003,
                    "velocity": 0.3779527559055118,
                    "duration": 1.0995369270833066
                },
                {
                    "name": "F#4",
                    "midi": 66,
                    "time": 297.7777480000003,
                    "velocity": 0.44881889763779526,
                    "duration": 1.0995369270833066
                },
                {
                    "name": "D#4",
                    "midi": 63,
                    "time": 298.8888590000003,
                    "velocity": 0.4015748031496063,
                    "duration": 1.0995369270833066
                },
                {
                    "name": "F#4",
                    "midi": 66,
                    "time": 298.8888590000003,
                    "velocity": 0.47244094488188976,
                    "duration": 1.0995369270833066
                },
                {
                    "name": "D#4",
                    "midi": 63,
                    "time": 299.9999700000003,
                    "velocity": 0.41732283464566927,
                    "duration": 1.0995369270833066
                },
                {
                    "name": "F#4",
                    "midi": 66,
                    "time": 299.9999700000003,
                    "velocity": 0.49606299212598426,
                    "duration": 1.0995369270833066
                },
                {
                    "name": "D#4",
                    "midi": 63,
                    "time": 301.1110810000003,
                    "velocity": 0.4409448818897638,
                    "duration": 1.0995369270833066
                },
                {
                    "name": "F#4",
                    "midi": 66,
                    "time": 301.1110810000003,
                    "velocity": 0.5196850393700787,
                    "duration": 1.0995369270833066
                },
                {
                    "name": "D#4",
                    "midi": 63,
                    "time": 302.2221920000003,
                    "velocity": 0.4566929133858268,
                    "duration": 1.0995369270833066
                },
                {
                    "name": "F#4",
                    "midi": 66,
                    "time": 302.2221920000003,
                    "velocity": 0.5433070866141733,
                    "duration": 1.0995369270833066
                },
                {
                    "name": "C#4",
                    "midi": 61,
                    "time": 303.3333030000003,
                    "velocity": 0.48031496062992124,
                    "duration": 1.0995369270833066
                },
                {
                    "name": "F#4",
                    "midi": 66,
                    "time": 303.3333030000003,
                    "velocity": 0.5748031496062992,
                    "duration": 1.0995369270833066
                },
                {
                    "name": "C4",
                    "midi": 60,
                    "time": 304.4444140000003,
                    "velocity": 0.5039370078740157,
                    "duration": 3.333332999999982
                },
                {
                    "name": "F#4",
                    "midi": 66,
                    "time": 304.4444140000003,
                    "velocity": 0.5984251968503937,
                    "duration": 3.333332999999982
                },
                {
                    "name": "C3",
                    "midi": 48,
                    "time": 307.77774700000026,
                    "velocity": 0.5748031496062992,
                    "duration": 1.111110999999994
                },
                {
                    "name": "C4",
                    "midi": 60,
                    "time": 307.77774700000026,
                    "velocity": 0.6771653543307087,
                    "duration": 1.111110999999994
                },
                {
                    "name": "C#3",
                    "midi": 49,
                    "time": 308.88885800000025,
                    "velocity": 0.6062992125984252,
                    "duration": 1.111110999999994
                },
                {
                    "name": "C#4",
                    "midi": 61,
                    "time": 308.88885800000025,
                    "velocity": 0.7165354330708661,
                    "duration": 1.111110999999994
                },
                {
                    "name": "D3",
                    "midi": 50,
                    "time": 309.99996900000025,
                    "velocity": 0.6377952755905512,
                    "duration": 1.111110999999994
                },
                {
                    "name": "D4",
                    "midi": 62,
                    "time": 309.99996900000025,
                    "velocity": 0.7559055118110236,
                    "duration": 1.111110999999994
                },
                {
                    "name": "E3",
                    "midi": 52,
                    "time": 311.11108000000024,
                    "velocity": 0.6614173228346457,
                    "duration": 1.6666665000000194
                },
                {
                    "name": "E4",
                    "midi": 64,
                    "time": 311.11108000000024,
                    "velocity": 0.7795275590551181,
                    "duration": 1.6666665000000194
                },
                {
                    "name": "D#3",
                    "midi": 51,
                    "time": 312.77774650000026,
                    "velocity": 0.6220472440944882,
                    "duration": 0.5555555000000254
                },
                {
                    "name": "D#4",
                    "midi": 63,
                    "time": 312.77774650000026,
                    "velocity": 0.7401574803149606,
                    "duration": 0.5555555000000254
                },
                {
                    "name": "C#3",
                    "midi": 49,
                    "time": 313.3333020000003,
                    "velocity": 0.6220472440944882,
                    "duration": 0.5555555000000254
                },
                {
                    "name": "C#4",
                    "midi": 61,
                    "time": 313.3333020000003,
                    "velocity": 0.7322834645669292,
                    "duration": 0.5555555000000254
                },
                {
                    "name": "C3",
                    "midi": 48,
                    "time": 313.8888575000003,
                    "velocity": 0.6141732283464567,
                    "duration": 0.5555555000000254
                },
                {
                    "name": "C4",
                    "midi": 60,
                    "time": 313.8888575000003,
                    "velocity": 0.7244094488188977,
                    "duration": 0.5555555000000254
                },
                {
                    "name": "A2",
                    "midi": 45,
                    "time": 314.44441300000034,
                    "velocity": 0.6062992125984252,
                    "duration": 0.5555554999999686
                },
                {
                    "name": "A3",
                    "midi": 57,
                    "time": 314.44441300000034,
                    "velocity": 0.7165354330708661,
                    "duration": 0.5555554999999686
                },
                {
                    "name": "G#2",
                    "midi": 44,
                    "time": 314.9999685000003,
                    "velocity": 0.6062992125984252,
                    "duration": 0.5555555000000254
                },
                {
                    "name": "G#3",
                    "midi": 56,
                    "time": 314.9999685000003,
                    "velocity": 0.7165354330708661,
                    "duration": 0.5555555000000254
                },
                {
                    "name": "G2",
                    "midi": 43,
                    "time": 315.55552400000033,
                    "velocity": 0.5984251968503937,
                    "duration": 0.5555555000000254
                },
                {
                    "name": "G3",
                    "midi": 55,
                    "time": 315.55552400000033,
                    "velocity": 0.7086614173228346,
                    "duration": 0.5555555000000254
                },
                {
                    "name": "G#2",
                    "midi": 44,
                    "time": 316.11107950000036,
                    "velocity": 0.5590551181102362,
                    "duration": 0.5555555000000254
                },
                {
                    "name": "G#3",
                    "midi": 56,
                    "time": 316.11107950000036,
                    "velocity": 0.6614173228346457,
                    "duration": 0.5555555000000254
                },
                {
                    "name": "B2",
                    "midi": 47,
                    "time": 316.6666350000004,
                    "velocity": 0.5826771653543307,
                    "duration": 0.2777777499999843
                },
                {
                    "name": "B3",
                    "midi": 59,
                    "time": 316.6666350000004,
                    "velocity": 0.6929133858267716,
                    "duration": 0.2777777499999843
                },
                {
                    "name": "A2",
                    "midi": 45,
                    "time": 317.22219050000035,
                    "velocity": 0.5826771653543307,
                    "duration": 0.2777777499999843
                },
                {
                    "name": "A3",
                    "midi": 57,
                    "time": 317.22219050000035,
                    "velocity": 0.6929133858267716,
                    "duration": 0.2777777499999843
                },
                {
                    "name": "G#2",
                    "midi": 44,
                    "time": 317.7777460000003,
                    "velocity": 0.5826771653543307,
                    "duration": 0.2777777499999843
                },
                {
                    "name": "G#3",
                    "midi": 56,
                    "time": 317.7777460000003,
                    "velocity": 0.6929133858267716,
                    "duration": 0.2777777499999843
                },
                {
                    "name": "F#2",
                    "midi": 42,
                    "time": 318.3333015000003,
                    "velocity": 0.5748031496062992,
                    "duration": 0.2777777499999843
                },
                {
                    "name": "F#3",
                    "midi": 54,
                    "time": 318.3333015000003,
                    "velocity": 0.6850393700787402,
                    "duration": 0.2777777499999843
                },
                {
                    "name": "E2",
                    "midi": 40,
                    "time": 318.88885700000026,
                    "velocity": 0.5748031496062992,
                    "duration": 0.2777777499999843
                },
                {
                    "name": "E3",
                    "midi": 52,
                    "time": 318.88885700000026,
                    "velocity": 0.6850393700787402,
                    "duration": 0.2777777499999843
                },
                {
                    "name": "D#2",
                    "midi": 39,
                    "time": 319.4444125000002,
                    "velocity": 0.5748031496062992,
                    "duration": 0.2777777499999843
                },
                {
                    "name": "D#3",
                    "midi": 51,
                    "time": 319.4444125000002,
                    "velocity": 0.6850393700787402,
                    "duration": 0.2777777499999843
                },
                {
                    "name": "C#2",
                    "midi": 37,
                    "time": 319.9999680000002,
                    "velocity": 0.5748031496062992,
                    "duration": 0.2777777499999843
                },
                {
                    "name": "C#3",
                    "midi": 49,
                    "time": 319.9999680000002,
                    "velocity": 0.6771653543307087,
                    "duration": 0.2777777499999843
                },
                {
                    "name": "C2",
                    "midi": 36,
                    "time": 320.55552350000016,
                    "velocity": 0.5748031496062992,
                    "duration": 0.2777777499999843
                },
                {
                    "name": "C3",
                    "midi": 48,
                    "time": 320.55552350000016,
                    "velocity": 0.6771653543307087,
                    "duration": 0.2777777499999843
                },
                {
                    "name": "D#2",
                    "midi": 39,
                    "time": 321.11107900000013,
                    "velocity": 0.5748031496062992,
                    "duration": 0.2777777499999843
                },
                {
                    "name": "D#3",
                    "midi": 51,
                    "time": 321.11107900000013,
                    "velocity": 0.6771653543307087,
                    "duration": 0.2777777499999843
                },
                {
                    "name": "A1",
                    "midi": 33,
                    "time": 321.6666345000001,
                    "velocity": 0.6771653543307087,
                    "duration": 2.222221999999988
                },
                {
                    "name": "A2",
                    "midi": 45,
                    "time": 321.6666345000001,
                    "velocity": 0.8031496062992126,
                    "duration": 2.222221999999988
                },
                {
                    "name": "G#1",
                    "midi": 32,
                    "time": 323.8888565000001,
                    "velocity": 0.6141732283464567,
                    "duration": 1.111110999999994
                },
                {
                    "name": "G#2",
                    "midi": 44,
                    "time": 323.8888565000001,
                    "velocity": 0.7244094488188977,
                    "duration": 1.111110999999994
                },
                {
                    "name": "G1",
                    "midi": 31,
                    "time": 324.9999675000001,
                    "velocity": 0.6456692913385826,
                    "duration": 1.111110999999994
                },
                {
                    "name": "G2",
                    "midi": 43,
                    "time": 324.9999675000001,
                    "velocity": 0.7637795275590551,
                    "duration": 1.111110999999994
                },
                {
                    "name": "G#1",
                    "midi": 32,
                    "time": 326.1110785000001,
                    "velocity": 0.6456692913385826,
                    "duration": 1.111110999999994
                },
                {
                    "name": "G#2",
                    "midi": 44,
                    "time": 326.1110785000001,
                    "velocity": 0.7637795275590551,
                    "duration": 1.111110999999994
                },
                {
                    "name": "D#1",
                    "midi": 27,
                    "time": 327.22218950000007,
                    "velocity": 0.6535433070866141,
                    "duration": 1.111110999999994
                },
                {
                    "name": "D#2",
                    "midi": 39,
                    "time": 327.22218950000007,
                    "velocity": 0.7716535433070866,
                    "duration": 1.111110999999994
                },
                {
                    "name": "F#1",
                    "midi": 30,
                    "time": 328.33330050000006,
                    "velocity": 0.6220472440944882,
                    "duration": 1.6666665000000194
                },
                {
                    "name": "F#2",
                    "midi": 42,
                    "time": 328.33330050000006,
                    "velocity": 0.7401574803149606,
                    "duration": 1.6666665000000194
                },
                {
                    "name": "E1",
                    "midi": 28,
                    "time": 329.9999670000001,
                    "velocity": 0.5984251968503937,
                    "duration": 0.5555555000000254
                },
                {
                    "name": "E2",
                    "midi": 40,
                    "time": 329.9999670000001,
                    "velocity": 0.7086614173228346,
                    "duration": 0.5555555000000254
                },
                {
                    "name": "C#2",
                    "midi": 37,
                    "time": 330.5555225000001,
                    "velocity": 0.8031496062992126,
                    "duration": 0.3703703333333692
                },
                {
                    "name": "G#2",
                    "midi": 44,
                    "time": 330.9258928333335,
                    "velocity": 0.2992125984251969,
                    "duration": 0.3703703333333124
                },
                {
                    "name": "G#3",
                    "midi": 56,
                    "time": 331.2962631666668,
                    "velocity": 0.30708661417322836,
                    "duration": 0.3703703333333124
                },
                {
                    "name": "C#3",
                    "midi": 49,
                    "time": 331.6666335000001,
                    "velocity": 0.3228346456692913,
                    "duration": 0.3703703333333124
                },
                {
                    "name": "G#2",
                    "midi": 44,
                    "time": 332.0370038333334,
                    "velocity": 0.33858267716535434,
                    "duration": 0.3703703333333124
                },
                {
                    "name": "C#2",
                    "midi": 37,
                    "time": 332.4073741666667,
                    "velocity": 0.3543307086614173,
                    "duration": 0.3703703333333124
                },
                {
                    "name": "G#2",
                    "midi": 44,
                    "time": 332.77774450000004,
                    "velocity": 0.3700787401574803,
                    "duration": 0.3703703333333124
                },
                {
                    "name": "C#3",
                    "midi": 49,
                    "time": 333.14811483333335,
                    "velocity": 0.36220472440944884,
                    "duration": 0.3703703333333124
                },
                {
                    "name": "G#3",
                    "midi": 56,
                    "time": 333.51848516666666,
                    "velocity": 0.3464566929133858,
                    "duration": 0.3703703333333124
                },
                {
                    "name": "C#3",
                    "midi": 49,
                    "time": 333.8888555,
                    "velocity": 0.33858267716535434,
                    "duration": 0.3703703333333124
                },
                {
                    "name": "G#2",
                    "midi": 44,
                    "time": 334.2592258333333,
                    "velocity": 0.33070866141732286,
                    "duration": 0.3703703333333124
                },
                {
                    "name": "C#2",
                    "midi": 37,
                    "time": 334.6295961666666,
                    "velocity": 0.31496062992125984,
                    "duration": 0.3703703333333124
                },
                {
                    "name": "G#2",
                    "midi": 44,
                    "time": 334.9999664999999,
                    "velocity": 0.33070866141732286,
                    "duration": 0.3703703333333124
                },
                {
                    "name": "C#3",
                    "midi": 49,
                    "time": 335.3703368333332,
                    "velocity": 0.31496062992125984,
                    "duration": 0.3703703333333124
                },
                {
                    "name": "G#3",
                    "midi": 56,
                    "time": 335.74070716666654,
                    "velocity": 0.2992125984251969,
                    "duration": 0.3703703333333124
                },
                {
                    "name": "C#3",
                    "midi": 49,
                    "time": 336.11107749999985,
                    "velocity": 0.28346456692913385,
                    "duration": 0.3703703333333124
                },
                {
                    "name": "G#2",
                    "midi": 44,
                    "time": 336.48144783333316,
                    "velocity": 0.2677165354330709,
                    "duration": 0.3703703333333124
                },
                {
                    "name": "C#2",
                    "midi": 37,
                    "time": 336.8518181666665,
                    "velocity": 0.2440944881889764,
                    "duration": 0.3703703333333124
                },
                {
                    "name": "G#2",
                    "midi": 44,
                    "time": 337.2221884999998,
                    "velocity": 0.23622047244094488,
                    "duration": 0.3703703333333124
                },
                {
                    "name": "C#3",
                    "midi": 49,
                    "time": 337.5925588333331,
                    "velocity": 0.2283464566929134,
                    "duration": 0.3703703333333124
                },
                {
                    "name": "G#3",
                    "midi": 56,
                    "time": 337.9629291666664,
                    "velocity": 0.2204724409448819,
                    "duration": 0.3703703333333124
                },
                {
                    "name": "C#3",
                    "midi": 49,
                    "time": 338.3332994999997,
                    "velocity": 0.2125984251968504,
                    "duration": 0.3703703333333124
                },
                {
                    "name": "G#2",
                    "midi": 44,
                    "time": 338.70366983333304,
                    "velocity": 0.2047244094488189,
                    "duration": 0.3703703333333124
                },
                {
                    "name": "C#2",
                    "midi": 37,
                    "time": 339.07404016666635,
                    "velocity": 0.1968503937007874,
                    "duration": 0.3703703333333124
                },
                {
                    "name": "G#2",
                    "midi": 44,
                    "time": 339.44441049999966,
                    "velocity": 0.2047244094488189,
                    "duration": 0.3703703333333692
                },
                {
                    "name": "C#3",
                    "midi": 49,
                    "time": 339.81478083333303,
                    "velocity": 0.1968503937007874,
                    "duration": 0.3703703333333124
                },
                {
                    "name": "G#3",
                    "midi": 56,
                    "time": 340.18515116666634,
                    "velocity": 0.2047244094488189,
                    "duration": 0.3703703333333124
                },
                {
                    "name": "C#3",
                    "midi": 49,
                    "time": 340.55552149999966,
                    "velocity": 0.2125984251968504,
                    "duration": 0.3703703333333124
                },
                {
                    "name": "G#2",
                    "midi": 44,
                    "time": 340.92589183333297,
                    "velocity": 0.2204724409448819,
                    "duration": 0.3703703333333124
                },
                {
                    "name": "C#2",
                    "midi": 37,
                    "time": 341.2962621666663,
                    "velocity": 0.2283464566929134,
                    "duration": 0.3703703333333124
                },
                {
                    "name": "G#2",
                    "midi": 44,
                    "time": 341.6666324999996,
                    "velocity": 0.2204724409448819,
                    "duration": 0.3703703333333692
                },
                {
                    "name": "C#3",
                    "midi": 49,
                    "time": 342.03700283333296,
                    "velocity": 0.2283464566929134,
                    "duration": 0.3703703333333124
                },
                {
                    "name": "B3",
                    "midi": 59,
                    "time": 342.4073731666663,
                    "velocity": 0.23622047244094488,
                    "duration": 0.3703703333333124
                },
                {
                    "name": "C#3",
                    "midi": 49,
                    "time": 342.7777434999996,
                    "velocity": 0.23622047244094488,
                    "duration": 0.3703703333333124
                },
                {
                    "name": "G#2",
                    "midi": 44,
                    "time": 343.1481138333329,
                    "velocity": 0.2440944881889764,
                    "duration": 0.3703703333333124
                },
                {
                    "name": "C#2",
                    "midi": 37,
                    "time": 343.5184841666662,
                    "velocity": 0.25196850393700787,
                    "duration": 0.3703703333333124
                },
                {
                    "name": "G#2",
                    "midi": 44,
                    "time": 343.8888544999995,
                    "velocity": 0.25984251968503935,
                    "duration": 0.3703703333333124
                },
                {
                    "name": "C#3",
                    "midi": 49,
                    "time": 344.25922483333284,
                    "velocity": 0.2440944881889764,
                    "duration": 0.3703703333333124
                },
                {
                    "name": "B3",
                    "midi": 59,
                    "time": 344.62959516666615,
                    "velocity": 0.23622047244094488,
                    "duration": 0.3703703333333124
                },
                {
                    "name": "C#3",
                    "midi": 49,
                    "time": 344.99996549999946,
                    "velocity": 0.23622047244094488,
                    "duration": 0.3703703333333124
                },
                {
                    "name": "G#2",
                    "midi": 44,
                    "time": 345.3703358333328,
                    "velocity": 0.2283464566929134,
                    "duration": 0.3703703333333124
                },
                {
                    "name": "C#2",
                    "midi": 37,
                    "time": 345.7407061666661,
                    "velocity": 0.2204724409448819,
                    "duration": 0.3703703333333124
                },
                {
                    "name": "A2",
                    "midi": 45,
                    "time": 346.1110764999994,
                    "velocity": 0.2204724409448819,
                    "duration": 0.3703703333333692
                },
                {
                    "name": "C#3",
                    "midi": 49,
                    "time": 346.48144683333277,
                    "velocity": 0.2204724409448819,
                    "duration": 0.3703703333333124
                },
                {
                    "name": "A3",
                    "midi": 57,
                    "time": 346.8518171666661,
                    "velocity": 0.2204724409448819,
                    "duration": 0.3703703333333124
                },
                {
                    "name": "C#3",
                    "midi": 49,
                    "time": 347.2221874999994,
                    "velocity": 0.2204724409448819,
                    "duration": 0.3703703333333124
                },
                {
                    "name": "A2",
                    "midi": 45,
                    "time": 347.5925578333327,
                    "velocity": 0.2204724409448819,
                    "duration": 0.3703703333333124
                },
                {
                    "name": "C#2",
                    "midi": 37,
                    "time": 347.962928166666,
                    "velocity": 0.2204724409448819,
                    "duration": 0.3703703333333124
                },
                {
                    "name": "A2",
                    "midi": 45,
                    "time": 348.33329849999933,
                    "velocity": 0.25196850393700787,
                    "duration": 0.3703703333333692
                },
                {
                    "name": "D3",
                    "midi": 50,
                    "time": 348.7036688333327,
                    "velocity": 0.2283464566929134,
                    "duration": 0.3703703333333124
                },
                {
                    "name": "A3",
                    "midi": 57,
                    "time": 349.074039166666,
                    "velocity": 0.2283464566929134,
                    "duration": 0.3703703333333124
                },
                {
                    "name": "D3",
                    "midi": 50,
                    "time": 349.4444094999993,
                    "velocity": 0.2204724409448819,
                    "duration": 0.3703703333333124
                },
                {
                    "name": "A2",
                    "midi": 45,
                    "time": 349.81477983333264,
                    "velocity": 0.2125984251968504,
                    "duration": 0.3703703333333124
                },
                {
                    "name": "C#2",
                    "midi": 37,
                    "time": 350.18515016666595,
                    "velocity": 0.2047244094488189,
                    "duration": 0.3703703333333124
                },
                {
                    "name": "A2",
                    "midi": 45,
                    "time": 350.55552049999926,
                    "velocity": 0.1968503937007874,
                    "duration": 0.3703703333333692
                },
                {
                    "name": "D3",
                    "midi": 50,
                    "time": 350.92589083333263,
                    "velocity": 0.1889763779527559,
                    "duration": 0.3703703333333124
                },
                {
                    "name": "A3",
                    "midi": 57,
                    "time": 351.29626116666594,
                    "velocity": 0.1889763779527559,
                    "duration": 0.3703703333333124
                },
                {
                    "name": "D3",
                    "midi": 50,
                    "time": 351.66663149999926,
                    "velocity": 0.1889763779527559,
                    "duration": 0.3703703333333124
                },
                {
                    "name": "A2",
                    "midi": 45,
                    "time": 352.03700183333257,
                    "velocity": 0.1889763779527559,
                    "duration": 0.3703703333333124
                },
                {
                    "name": "C#2",
                    "midi": 37,
                    "time": 352.4073721666659,
                    "velocity": 0.1889763779527559,
                    "duration": 0.3703703333333124
                },
                {
                    "name": "G#2",
                    "midi": 44,
                    "time": 352.7777424999992,
                    "velocity": 0.2047244094488189,
                    "duration": 0.3703703333333124
                },
                {
                    "name": "E3",
                    "midi": 52,
                    "time": 353.1481128333325,
                    "velocity": 0.1889763779527559,
                    "duration": 0.3703703333333124
                },
                {
                    "name": "C#4",
                    "midi": 61,
                    "time": 353.5184831666658,
                    "velocity": 0.18110236220472442,
                    "duration": 0.3703703333333124
                },
                {
                    "name": "E3",
                    "midi": 52,
                    "time": 353.88885349999913,
                    "velocity": 0.18110236220472442,
                    "duration": 0.3703703333333124
                },
                {
                    "name": "G#2",
                    "midi": 44,
                    "time": 354.25922383333244,
                    "velocity": 0.18110236220472442,
                    "duration": 0.3703703333333124
                },
                {
                    "name": "C#2",
                    "midi": 37,
                    "time": 354.62959416666575,
                    "velocity": 0.18110236220472442,
                    "duration": 0.3703703333333124
                },
                {
                    "name": "B1",
                    "midi": 35,
                    "time": 354.99996449999907,
                    "velocity": 0.2047244094488189,
                    "duration": 0.3703703333333124
                },
                {
                    "name": "B2",
                    "midi": 47,
                    "time": 355.3703348333324,
                    "velocity": 0.1889763779527559,
                    "duration": 0.3703703333333124
                },
                {
                    "name": "D#4",
                    "midi": 63,
                    "time": 355.7407051666657,
                    "velocity": 0.1889763779527559,
                    "duration": 0.3703703333333124
                },
                {
                    "name": "A3",
                    "midi": 57,
                    "time": 356.111075499999,
                    "velocity": 0.1889763779527559,
                    "duration": 0.3703703333333124
                },
                {
                    "name": "B2",
                    "midi": 47,
                    "time": 356.4814458333323,
                    "velocity": 0.1889763779527559,
                    "duration": 0.3703703333333124
                },
                {
                    "name": "B1",
                    "midi": 35,
                    "time": 356.8518161666656,
                    "velocity": 0.1889763779527559,
                    "duration": 0.3703703333333124
                },
                {
                    "name": "E2",
                    "midi": 40,
                    "time": 357.22218649999894,
                    "velocity": 0.23622047244094488,
                    "duration": 0.3703703333333692
                },
                {
                    "name": "B2",
                    "midi": 47,
                    "time": 357.5925568333323,
                    "velocity": 0.2440944881889764,
                    "duration": 0.3703703333333124
                },
                {
                    "name": "E4",
                    "midi": 64,
                    "time": 357.9629271666656,
                    "velocity": 0.2440944881889764,
                    "duration": 0.3703703333333124
                },
                {
                    "name": "G#3",
                    "midi": 56,
                    "time": 358.33329749999893,
                    "velocity": 0.25196850393700787,
                    "duration": 0.3703703333333124
                },
                {
                    "name": "B2",
                    "midi": 47,
                    "time": 358.70366783333225,
                    "velocity": 0.25196850393700787,
                    "duration": 0.3703703333333124
                },
                {
                    "name": "D#2",
                    "midi": 39,
                    "time": 359.07403816666556,
                    "velocity": 0.25984251968503935,
                    "duration": 0.3703703333333124
                },
                {
                    "name": "C#2",
                    "midi": 37,
                    "time": 359.4444084999989,
                    "velocity": 0.2677165354330709,
                    "duration": 0.3703703333333692
                },
                {
                    "name": "G#2",
                    "midi": 44,
                    "time": 359.81477883333224,
                    "velocity": 0.2677165354330709,
                    "duration": 0.3703703333333124
                },
                {
                    "name": "G#3",
                    "midi": 56,
                    "time": 360.18514916666555,
                    "velocity": 0.2755905511811024,
                    "duration": 0.3703703333333124
                },
                {
                    "name": "C#3",
                    "midi": 49,
                    "time": 360.55551949999887,
                    "velocity": 0.2755905511811024,
                    "duration": 0.3703703333333124
                },
                {
                    "name": "G#2",
                    "midi": 44,
                    "time": 360.9258898333322,
                    "velocity": 0.28346456692913385,
                    "duration": 0.3703703333333124
                },
                {
                    "name": "C#2",
                    "midi": 37,
                    "time": 361.2962601666655,
                    "velocity": 0.28346456692913385,
                    "duration": 0.3703703333333124
                },
                {
                    "name": "C#2",
                    "midi": 37,
                    "time": 361.6666304999988,
                    "velocity": 0.29133858267716534,
                    "duration": 0.3703703333333124
                },
                {
                    "name": "G#2",
                    "midi": 44,
                    "time": 362.0370008333321,
                    "velocity": 0.29133858267716534,
                    "duration": 0.3703703333333124
                },
                {
                    "name": "C#4",
                    "midi": 61,
                    "time": 362.4073711666654,
                    "velocity": 0.28346456692913385,
                    "duration": 0.3703703333333124
                },
                {
                    "name": "F3",
                    "midi": 53,
                    "time": 362.77774149999874,
                    "velocity": 0.2755905511811024,
                    "duration": 0.3703703333333124
                },
                {
                    "name": "G#2",
                    "midi": 44,
                    "time": 363.14811183333205,
                    "velocity": 0.2677165354330709,
                    "duration": 0.3703703333333124
                },
                {
                    "name": "C#2",
                    "midi": 37,
                    "time": 363.51848216666536,
                    "velocity": 0.25984251968503935,
                    "duration": 0.3703703333333124
                },
                {
                    "name": "C#2",
                    "midi": 37,
                    "time": 363.8888524999987,
                    "velocity": 0.25196850393700787,
                    "duration": 0.3703703333333124
                },
                {
                    "name": "A2",
                    "midi": 45,
                    "time": 364.259222833332,
                    "velocity": 0.2440944881889764,
                    "duration": 0.3703703333333124
                },
                {
                    "name": "C#4",
                    "midi": 61,
                    "time": 364.6295931666653,
                    "velocity": 0.23622047244094488,
                    "duration": 0.3703703333333124
                },
                {
                    "name": "F#3",
                    "midi": 54,
                    "time": 364.9999634999986,
                    "velocity": 0.2283464566929134,
                    "duration": 0.3703703333333124
                },
                {
                    "name": "A2",
                    "midi": 45,
                    "time": 365.3703338333319,
                    "velocity": 0.2283464566929134,
                    "duration": 0.3703703333333124
                },
                {
                    "name": "C#2",
                    "midi": 37,
                    "time": 365.74070416666524,
                    "velocity": 0.2204724409448819,
                    "duration": 0.3703703333333124
                },
                {
                    "name": "C#2",
                    "midi": 37,
                    "time": 366.11107449999855,
                    "velocity": 0.2047244094488189,
                    "duration": 0.3703703333333124
                },
                {
                    "name": "A2",
                    "midi": 45,
                    "time": 366.48144483333186,
                    "velocity": 0.1889763779527559,
                    "duration": 0.3703703333333124
                },
                {
                    "name": "A3",
                    "midi": 57,
                    "time": 366.8518151666652,
                    "velocity": 0.1889763779527559,
                    "duration": 0.3703703333333124
                },
                {
                    "name": "D3",
                    "midi": 50,
                    "time": 367.2221854999985,
                    "velocity": 0.1889763779527559,
                    "duration": 0.3703703333333124
                },
                {
                    "name": "A2",
                    "midi": 45,
                    "time": 367.5925558333318,
                    "velocity": 0.1889763779527559,
                    "duration": 0.3703703333333124
                },
                {
                    "name": "C#2",
                    "midi": 37,
                    "time": 367.9629261666651,
                    "velocity": 0.1889763779527559,
                    "duration": 0.3703703333333124
                },
                {
                    "name": "C#2",
                    "midi": 37,
                    "time": 368.3332964999984,
                    "velocity": 0.2047244094488189,
                    "duration": 0.3703703333333692
                },
                {
                    "name": "A2",
                    "midi": 45,
                    "time": 368.7036668333318,
                    "velocity": 0.1889763779527559,
                    "duration": 0.3703703333333124
                },
                {
                    "name": "A3",
                    "midi": 57,
                    "time": 369.0740371666651,
                    "velocity": 0.1889763779527559,
                    "duration": 0.3703703333333124
                },
                {
                    "name": "D3",
                    "midi": 50,
                    "time": 369.4444074999984,
                    "velocity": 0.1889763779527559,
                    "duration": 0.3703703333333124
                },
                {
                    "name": "A2",
                    "midi": 45,
                    "time": 369.81477783333173,
                    "velocity": 0.1889763779527559,
                    "duration": 0.3703703333333124
                },
                {
                    "name": "C#2",
                    "midi": 37,
                    "time": 370.18514816666504,
                    "velocity": 0.1889763779527559,
                    "duration": 0.3703703333333124
                },
                {
                    "name": "C#2",
                    "midi": 37,
                    "time": 370.55551849999836,
                    "velocity": 0.2440944881889764,
                    "duration": 0.3703703333333692
                },
                {
                    "name": "A2",
                    "midi": 45,
                    "time": 370.9258888333317,
                    "velocity": 0.2047244094488189,
                    "duration": 0.3703703333333124
                },
                {
                    "name": "A3",
                    "midi": 57,
                    "time": 371.29625916666504,
                    "velocity": 0.2204724409448819,
                    "duration": 0.3703703333333124
                },
                {
                    "name": "D3",
                    "midi": 50,
                    "time": 371.66662949999835,
                    "velocity": 0.25196850393700787,
                    "duration": 0.3703703333333124
                },
                {
                    "name": "A2",
                    "midi": 45,
                    "time": 372.03699983333166,
                    "velocity": 0.2125984251968504,
                    "duration": 0.3703703333333124
                },
                {
                    "name": "C#2",
                    "midi": 37,
                    "time": 372.407370166665,
                    "velocity": 0.2125984251968504,
                    "duration": 0.3703703333333124
                },
                {
                    "name": "C#2",
                    "midi": 37,
                    "time": 372.7777404999983,
                    "velocity": 0.2440944881889764,
                    "duration": 0.3703703333333692
                },
                {
                    "name": "A2",
                    "midi": 45,
                    "time": 373.14811083333166,
                    "velocity": 0.2204724409448819,
                    "duration": 0.3703703333333124
                },
                {
                    "name": "A3",
                    "midi": 57,
                    "time": 373.51848116666497,
                    "velocity": 0.2204724409448819,
                    "duration": 0.3703703333333124
                },
                {
                    "name": "D3",
                    "midi": 50,
                    "time": 373.8888514999983,
                    "velocity": 0.2204724409448819,
                    "duration": 0.3703703333333124
                },
                {
                    "name": "A2",
                    "midi": 45,
                    "time": 374.2592218333316,
                    "velocity": 0.2204724409448819,
                    "duration": 0.3703703333333124
                },
                {
                    "name": "C#2",
                    "midi": 37,
                    "time": 374.6295921666649,
                    "velocity": 0.2204724409448819,
                    "duration": 0.3703703333333124
                },
                {
                    "name": "C#2",
                    "midi": 37,
                    "time": 374.9999624999982,
                    "velocity": 0.2755905511811024,
                    "duration": 0.3703703333333692
                },
                {
                    "name": "G#2",
                    "midi": 44,
                    "time": 375.3703328333316,
                    "velocity": 0.1968503937007874,
                    "duration": 0.3703703333333124
                },
                {
                    "name": "C#4",
                    "midi": 61,
                    "time": 375.7407031666649,
                    "velocity": 0.23622047244094488,
                    "duration": 0.3703703333333124
                },
                {
                    "name": "F3",
                    "midi": 53,
                    "time": 376.1110734999982,
                    "velocity": 0.2125984251968504,
                    "duration": 0.3703703333333124
                },
                {
                    "name": "G#2",
                    "midi": 44,
                    "time": 376.4814438333315,
                    "velocity": 0.2125984251968504,
                    "duration": 0.3703703333333124
                },
                {
                    "name": "C#2",
                    "midi": 37,
                    "time": 376.85181416666484,
                    "velocity": 0.2125984251968504,
                    "duration": 0.3703703333333124
                },
                {
                    "name": "C#2",
                    "midi": 37,
                    "time": 377.22218449999815,
                    "velocity": 0.2440944881889764,
                    "duration": 0.3703703333333124
                },
                {
                    "name": "G#2",
                    "midi": 44,
                    "time": 377.59255483333146,
                    "velocity": 0.2204724409448819,
                    "duration": 0.3703703333333124
                },
                {
                    "name": "C4",
                    "midi": 60,
                    "time": 377.9629251666648,
                    "velocity": 0.25196850393700787,
                    "duration": 0.3703703333333124
                },
                {
                    "name": "D#3",
                    "midi": 51,
                    "time": 378.3332954999981,
                    "velocity": 0.2204724409448819,
                    "duration": 0.3703703333333124
                },
                {
                    "name": "G#2",
                    "midi": 44,
                    "time": 378.7036658333314,
                    "velocity": 0.2125984251968504,
                    "duration": 0.3703703333333124
                },
                {
                    "name": "C#2",
                    "midi": 37,
                    "time": 379.0740361666647,
                    "velocity": 0.2125984251968504,
                    "duration": 0.3703703333333124
                },
                {
                    "name": "C#2",
                    "midi": 37,
                    "time": 379.444406499998,
                    "velocity": 0.29133858267716534,
                    "duration": 0.3703703333333124
                },
                {
                    "name": "G#2",
                    "midi": 44,
                    "time": 379.81477683333134,
                    "velocity": 0.2047244094488189,
                    "duration": 0.3703703333333124
                },
                {
                    "name": "A#3",
                    "midi": 58,
                    "time": 380.18514716666465,
                    "velocity": 0.2677165354330709,
                    "duration": 0.3703703333333124
                },
                {
                    "name": "C#3",
                    "midi": 49,
                    "time": 380.55551749999796,
                    "velocity": 0.2047244094488189,
                    "duration": 0.3703703333333124
                },
                {
                    "name": "G#2",
                    "midi": 44,
                    "time": 380.9258878333313,
                    "velocity": 0.2047244094488189,
                    "duration": 0.3703703333333124
                },
                {
                    "name": "C#2",
                    "midi": 37,
                    "time": 381.2962581666646,
                    "velocity": 0.2047244094488189,
                    "duration": 0.3703703333333124
                },
                {
                    "name": "C#2",
                    "midi": 37,
                    "time": 381.6666284999979,
                    "velocity": 0.2283464566929134,
                    "duration": 0.3703703333333124
                },
                {
                    "name": "G#2",
                    "midi": 44,
                    "time": 382.0369988333312,
                    "velocity": 0.2047244094488189,
                    "duration": 0.3703703333333124
                },
                {
                    "name": "G#3",
                    "midi": 56,
                    "time": 382.4073691666645,
                    "velocity": 0.25984251968503935,
                    "duration": 0.3703703333333124
                },
                {
                    "name": "C3",
                    "midi": 48,
                    "time": 382.77773949999784,
                    "velocity": 0.2047244094488189,
                    "duration": 0.3703703333333124
                },
                {
                    "name": "G#2",
                    "midi": 44,
                    "time": 383.14810983333115,
                    "velocity": 0.2047244094488189,
                    "duration": 0.3703703333333124
                },
                {
                    "name": "C#2",
                    "midi": 37,
                    "time": 383.51848016666446,
                    "velocity": 0.2047244094488189,
                    "duration": 0.3703703333333124
                },
                {
                    "name": "C#2",
                    "midi": 37,
                    "time": 383.8888504999978,
                    "velocity": 0.2755905511811024,
                    "duration": 0.3703703333333124
                },
                {
                    "name": "G#2",
                    "midi": 44,
                    "time": 384.2592208333311,
                    "velocity": 0.1968503937007874,
                    "duration": 0.3703703333333124
                },
                {
                    "name": "C#4",
                    "midi": 61,
                    "time": 384.6295911666644,
                    "velocity": 0.23622047244094488,
                    "duration": 0.3703703333333124
                },
                {
                    "name": "F3",
                    "midi": 53,
                    "time": 384.9999614999977,
                    "velocity": 0.1968503937007874,
                    "duration": 0.3703703333333124
                },
                {
                    "name": "G#2",
                    "midi": 44,
                    "time": 385.370331833331,
                    "velocity": 0.1968503937007874,
                    "duration": 0.3703703333333124
                },
                {
                    "name": "C#2",
                    "midi": 37,
                    "time": 385.74070216666433,
                    "velocity": 0.1968503937007874,
                    "duration": 0.3703703333333124
                },
                {
                    "name": "C#2",
                    "midi": 37,
                    "time": 386.11107249999765,
                    "velocity": 0.2204724409448819,
                    "duration": 0.3703703333333692
                },
                {
                    "name": "G#2",
                    "midi": 44,
                    "time": 386.481442833331,
                    "velocity": 0.1968503937007874,
                    "duration": 0.3703703333333124
                },
                {
                    "name": "C4",
                    "midi": 60,
                    "time": 386.85181316666433,
                    "velocity": 0.2440944881889764,
                    "duration": 0.3703703333333124
                },
                {
                    "name": "D#3",
                    "midi": 51,
                    "time": 387.22218349999764,
                    "velocity": 0.1968503937007874,
                    "duration": 0.3703703333333124
                },
                {
                    "name": "G#2",
                    "midi": 44,
                    "time": 387.59255383333095,
                    "velocity": 0.1968503937007874,
                    "duration": 0.3703703333333124
                },
                {
                    "name": "C#2",
                    "midi": 37,
                    "time": 387.96292416666427,
                    "velocity": 0.1968503937007874,
                    "duration": 0.3703703333333124
                },
                {
                    "name": "C#2",
                    "midi": 37,
                    "time": 388.3332944999976,
                    "velocity": 0.25984251968503935,
                    "duration": 0.3703703333333692
                },
                {
                    "name": "G#2",
                    "midi": 44,
                    "time": 388.70366483333095,
                    "velocity": 0.1889763779527559,
                    "duration": 0.3703703333333124
                },
                {
                    "name": "A#3",
                    "midi": 58,
                    "time": 389.07403516666426,
                    "velocity": 0.2283464566929134,
                    "duration": 0.3703703333333124
                },
                {
                    "name": "C#3",
                    "midi": 49,
                    "time": 389.4444054999976,
                    "velocity": 0.18110236220472442,
                    "duration": 0.3703703333333124
                },
                {
                    "name": "G#2",
                    "midi": 44,
                    "time": 389.8147758333309,
                    "velocity": 0.18110236220472442,
                    "duration": 0.3703703333333124
                },
                {
                    "name": "C#2",
                    "midi": 37,
                    "time": 390.1851461666642,
                    "velocity": 0.18110236220472442,
                    "duration": 0.3703703333333124
                },
                {
                    "name": "C#2",
                    "midi": 37,
                    "time": 390.5555164999975,
                    "velocity": 0.2047244094488189,
                    "duration": 0.3703703333333124
                },
                {
                    "name": "G#2",
                    "midi": 44,
                    "time": 390.9258868333308,
                    "velocity": 0.1889763779527559,
                    "duration": 0.3703703333333124
                },
                {
                    "name": "G#3",
                    "midi": 56,
                    "time": 391.29625716666413,
                    "velocity": 0.2204724409448819,
                    "duration": 0.3703703333333124
                },
                {
                    "name": "C3",
                    "midi": 48,
                    "time": 391.66662749999745,
                    "velocity": 0.18110236220472442,
                    "duration": 0.3703703333333124
                },
                {
                    "name": "G#2",
                    "midi": 44,
                    "time": 392.03699783333076,
                    "velocity": 0.18110236220472442,
                    "duration": 0.3703703333333124
                },
                {
                    "name": "C#2",
                    "midi": 37,
                    "time": 392.40736816666407,
                    "velocity": 0.18110236220472442,
                    "duration": 0.3703703333333124
                },
                {
                    "name": "C#2",
                    "midi": 37,
                    "time": 392.7777384999974,
                    "velocity": 0.2440944881889764,
                    "duration": 0.3703703333333124
                },
                {
                    "name": "G#2",
                    "midi": 44,
                    "time": 393.1481088333307,
                    "velocity": 0.1732283464566929,
                    "duration": 0.3703703333333124
                },
                {
                    "name": "G#3",
                    "midi": 56,
                    "time": 393.518479166664,
                    "velocity": 0.2125984251968504,
                    "duration": 0.3703703333333124
                },
                {
                    "name": "C#3",
                    "midi": 49,
                    "time": 393.8888494999973,
                    "velocity": 0.1732283464566929,
                    "duration": 0.3703703333333124
                },
                {
                    "name": "G#2",
                    "midi": 44,
                    "time": 394.25921983333063,
                    "velocity": 0.1732283464566929,
                    "duration": 0.3703703333333124
                },
                {
                    "name": "C#2",
                    "midi": 37,
                    "time": 394.62959016666395,
                    "velocity": 0.1732283464566929,
                    "duration": 0.3703703333333124
                },
                {
                    "name": "G#2",
                    "midi": 44,
                    "time": 394.99996049999726,
                    "velocity": 0.2440944881889764,
                    "duration": 0.3703703333333124
                },
                {
                    "name": "C#3",
                    "midi": 49,
                    "time": 395.37033083333057,
                    "velocity": 0.2047244094488189,
                    "duration": 0.3703703333333124
                },
                {
                    "name": "G#3",
                    "midi": 56,
                    "time": 395.7407011666639,
                    "velocity": 0.2204724409448819,
                    "duration": 0.3703703333333124
                },
                {
                    "name": "C#3",
                    "midi": 49,
                    "time": 396.1110714999972,
                    "velocity": 0.23622047244094488,
                    "duration": 0.3703703333333124
                },
                {
                    "name": "G#2",
                    "midi": 44,
                    "time": 396.4814418333305,
                    "velocity": 0.25196850393700787,
                    "duration": 0.3703703333333124
                },
                {
                    "name": "C#2",
                    "midi": 37,
                    "time": 396.8518121666638,
                    "velocity": 0.2755905511811024,
                    "duration": 0.3703703333333124
                },
                {
                    "name": "F#2",
                    "midi": 42,
                    "time": 397.22218249999713,
                    "velocity": 0.33070866141732286,
                    "duration": 0.3703703333333692
                },
                {
                    "name": "C#3",
                    "midi": 49,
                    "time": 397.5925528333305,
                    "velocity": 0.23622047244094488,
                    "duration": 0.3703703333333124
                },
                {
                    "name": "C#4",
                    "midi": 61,
                    "time": 397.9629231666638,
                    "velocity": 0.2440944881889764,
                    "duration": 0.3703703333333124
                },
                {
                    "name": "F#3",
                    "midi": 54,
                    "time": 398.3332934999971,
                    "velocity": 0.25984251968503935,
                    "duration": 0.3703703333333124
                },
                {
                    "name": "C#3",
                    "midi": 49,
                    "time": 398.70366383333044,
                    "velocity": 0.2755905511811024,
                    "duration": 0.3703703333333124
                },
                {
                    "name": "F#2",
                    "midi": 42,
                    "time": 399.07403416666375,
                    "velocity": 0.28346456692913385,
                    "duration": 0.3703703333333124
                },
                {
                    "name": "F#1",
                    "midi": 30,
                    "time": 399.44440449999706,
                    "velocity": 0.3464566929133858,
                    "duration": 0.3703703333333124
                },
                {
                    "name": "C#3",
                    "midi": 49,
                    "time": 399.8147748333304,
                    "velocity": 0.29133858267716534,
                    "duration": 0.3703703333333124
                },
                {
                    "name": "C#4",
                    "midi": 61,
                    "time": 400.1851451666637,
                    "velocity": 0.29133858267716534,
                    "duration": 0.3703703333333124
                },
                {
                    "name": "F#3",
                    "midi": 54,
                    "time": 400.555515499997,
                    "velocity": 0.29133858267716534,
                    "duration": 0.3703703333333124
                },
                {
                    "name": "C#3",
                    "midi": 49,
                    "time": 400.9258858333303,
                    "velocity": 0.29133858267716534,
                    "duration": 0.3703703333333124
                },
                {
                    "name": "F#2",
                    "midi": 42,
                    "time": 401.2962561666636,
                    "velocity": 0.29133858267716534,
                    "duration": 0.3703703333333124
                },
                {
                    "name": "C#1",
                    "midi": 25,
                    "time": 401.66662649999694,
                    "velocity": 0.4330708661417323,
                    "duration": 0.1851851666666562
                },
                {
                    "name": "C#2",
                    "midi": 37,
                    "time": 402.03699683333025,
                    "velocity": 0.3464566929133858,
                    "duration": 0.1851851666666562
                },
                {
                    "name": "G#2",
                    "midi": 44,
                    "time": 402.40736716666356,
                    "velocity": 0.36220472440944884,
                    "duration": 0.1851851666666562
                },
                {
                    "name": "C#3",
                    "midi": 49,
                    "time": 402.7777374999969,
                    "velocity": 0.3779527559055118,
                    "duration": 0.1851851666666562
                },
                {
                    "name": "G#3",
                    "midi": 56,
                    "time": 403.1481078333302,
                    "velocity": 0.3937007874015748,
                    "duration": 0.1851851666666562
                },
                {
                    "name": "C#4",
                    "midi": 61,
                    "time": 403.5184781666635,
                    "velocity": 0.4015748031496063,
                    "duration": 0.1851851666666562
                },
                {
                    "name": "G#2",
                    "midi": 44,
                    "time": 404.9999594999968,
                    "velocity": 0.1732283464566929,
                    "duration": 5.55555499999997
                },
                {
                    "name": "C#3",
                    "midi": 49,
                    "time": 404.9999594999968,
                    "velocity": 0.1732283464566929,
                    "duration": 5.55555499999997
                },
                {
                    "name": "F3",
                    "midi": 53,
                    "time": 404.9999594999968,
                    "velocity": 0.1732283464566929,
                    "duration": 5.55555499999997
                },
                {
                    "name": "G#3",
                    "midi": 56,
                    "time": 404.9999594999968,
                    "velocity": 0.2125984251968504,
                    "duration": 5.55555499999997
                },
                {
                    "name": "C#2",
                    "midi": 37,
                    "time": 406.1110704999968,
                    "velocity": 0.1968503937007874,
                    "duration": 4.444443999999976
                }
            ],
            "controlChanges": {
                "7": [
                    {
                        "number": 7,
                        "time": 0,
                        "value": 0.7874015748031497
                    }
                ],
                "10": [
                    {
                        "number": 10,
                        "time": 0,
                        "value": 0.5039370078740157
                    }
                ],
                "64": [
                    {
                        "number": 64,
                        "time": 0,
                        "value": 1
                    },
                    {
                        "number": 64,
                        "time": 8.92129540416667,
                        "value": 0
                    },
                    {
                        "number": 64,
                        "time": 9.10185094166667,
                        "value": 1
                    },
                    {
                        "number": 64,
                        "time": 11.14814703333334,
                        "value": 0
                    },
                    {
                        "number": 64,
                        "time": 11.291665537500005,
                        "value": 1
                    },
                    {
                        "number": 64,
                        "time": 13.365739404166675,
                        "value": 0
                    },
                    {
                        "number": 64,
                        "time": 13.481480133333342,
                        "value": 1
                    },
                    {
                        "number": 64,
                        "time": 15.585646589583343,
                        "value": 0
                    },
                    {
                        "number": 64,
                        "time": 15.768516941666675,
                        "value": 1
                    },
                    {
                        "number": 64,
                        "time": 17.803238960416678,
                        "value": 0
                    },
                    {
                        "number": 64,
                        "time": 17.909720431250012,
                        "value": 1
                    },
                    {
                        "number": 64,
                        "time": 20.027775775000013,
                        "value": 0
                    },
                    {
                        "number": 64,
                        "time": 20.18518316666668,
                        "value": 1
                    },
                    {
                        "number": 64,
                        "time": 22.256942218750016,
                        "value": 0
                    },
                    {
                        "number": 64,
                        "time": 22.377312577083348,
                        "value": 1
                    },
                    {
                        "number": 64,
                        "time": 24.479164218750018,
                        "value": 0
                    },
                    {
                        "number": 64,
                        "time": 24.63194198125002,
                        "value": 1
                    },
                    {
                        "number": 64,
                        "time": 26.699071404166688,
                        "value": 0
                    },
                    {
                        "number": 64,
                        "time": 26.912034345833355,
                        "value": 1
                    },
                    {
                        "number": 64,
                        "time": 28.92592303333336,
                        "value": 0
                    },
                    {
                        "number": 64,
                        "time": 29.069441537500026,
                        "value": 1
                    },
                    {
                        "number": 64,
                        "time": 31.143515404166692,
                        "value": 0
                    },
                    {
                        "number": 64,
                        "time": 31.25925613333336,
                        "value": 1
                    },
                    {
                        "number": 64,
                        "time": 33.374996662500024,
                        "value": 0
                    },
                    {
                        "number": 64,
                        "time": 33.54629294166669,
                        "value": 1
                    },
                    {
                        "number": 64,
                        "time": 35.590274218750025,
                        "value": 0
                    },
                    {
                        "number": 64,
                        "time": 35.687496431250025,
                        "value": 1
                    },
                    {
                        "number": 64,
                        "time": 37.805551775000026,
                        "value": 0
                    },
                    {
                        "number": 64,
                        "time": 37.95138509375003,
                        "value": 1
                    },
                    {
                        "number": 64,
                        "time": 44.476847404166705,
                        "value": 0
                    },
                    {
                        "number": 64,
                        "time": 44.590273318750036,
                        "value": 1
                    },
                    {
                        "number": 64,
                        "time": 46.71527310625004,
                        "value": 0
                    },
                    {
                        "number": 64,
                        "time": 46.847217537500036,
                        "value": 1
                    },
                    {
                        "number": 64,
                        "time": 48.92129140416671,
                        "value": 0
                    },
                    {
                        "number": 64,
                        "time": 49.13425434583338,
                        "value": 1
                    },
                    {
                        "number": 64,
                        "time": 51.15508747708338,
                        "value": 0
                    },
                    {
                        "number": 64,
                        "time": 51.29166153750004,
                        "value": 1
                    },
                    {
                        "number": 64,
                        "time": 53.36573540416671,
                        "value": 0
                    },
                    {
                        "number": 64,
                        "time": 53.57869834583338,
                        "value": 1
                    },
                    {
                        "number": 64,
                        "time": 55.597216662500045,
                        "value": 0
                    },
                    {
                        "number": 64,
                        "time": 55.736105537500045,
                        "value": 1
                    },
                    {
                        "number": 64,
                        "time": 57.81017940416672,
                        "value": 0
                    },
                    {
                        "number": 64,
                        "time": 58.023142345833385,
                        "value": 1
                    },
                    {
                        "number": 64,
                        "time": 60.04166066250005,
                        "value": 0
                    },
                    {
                        "number": 64,
                        "time": 60.18054953750005,
                        "value": 1
                    },
                    {
                        "number": 64,
                        "time": 62.25462340416672,
                        "value": 0
                    },
                    {
                        "number": 64,
                        "time": 62.46758634583339,
                        "value": 1
                    },
                    {
                        "number": 64,
                        "time": 64.48610466250005,
                        "value": 0
                    },
                    {
                        "number": 64,
                        "time": 64.62499353750006,
                        "value": 1
                    },
                    {
                        "number": 64,
                        "time": 66.69906740416668,
                        "value": 0
                    },
                    {
                        "number": 64,
                        "time": 66.91203034583334,
                        "value": 1
                    },
                    {
                        "number": 64,
                        "time": 68.93054866249999,
                        "value": 0
                    },
                    {
                        "number": 64,
                        "time": 69.0694375375,
                        "value": 1
                    },
                    {
                        "number": 64,
                        "time": 71.14351140416662,
                        "value": 0
                    },
                    {
                        "number": 64,
                        "time": 71.27082620624995,
                        "value": 1
                    },
                    {
                        "number": 64,
                        "time": 73.37267784791658,
                        "value": 0
                    },
                    {
                        "number": 64,
                        "time": 73.51388153749991,
                        "value": 1
                    },
                    {
                        "number": 64,
                        "time": 75.58795540416654,
                        "value": 0
                    },
                    {
                        "number": 64,
                        "time": 75.8009183458332,
                        "value": 1
                    },
                    {
                        "number": 64,
                        "time": 77.81943666249985,
                        "value": 0
                    },
                    {
                        "number": 64,
                        "time": 78.00693664374985,
                        "value": 1
                    },
                    {
                        "number": 64,
                        "time": 80.03239940416648,
                        "value": 0
                    },
                    {
                        "number": 64,
                        "time": 80.34258455833314,
                        "value": 1
                    },
                    {
                        "number": 64,
                        "time": 82.26388066249979,
                        "value": 0
                    },
                    {
                        "number": 64,
                        "time": 82.4027695374998,
                        "value": 1
                    },
                    {
                        "number": 64,
                        "time": 84.47684340416642,
                        "value": 0
                    },
                    {
                        "number": 64,
                        "time": 84.68980634583308,
                        "value": 1
                    },
                    {
                        "number": 64,
                        "time": 86.68980614583305,
                        "value": 0
                    },
                    {
                        "number": 64,
                        "time": 86.87962094166637,
                        "value": 1
                    },
                    {
                        "number": 64,
                        "time": 88.912028145833,
                        "value": 0
                    },
                    {
                        "number": 64,
                        "time": 89.113417014583,
                        "value": 1
                    },
                    {
                        "number": 64,
                        "time": 91.14119458958297,
                        "value": 0
                    },
                    {
                        "number": 64,
                        "time": 91.25693531874963,
                        "value": 1
                    },
                    {
                        "number": 64,
                        "time": 93.36804621874958,
                        "value": 0
                    },
                    {
                        "number": 64,
                        "time": 93.48841657708292,
                        "value": 1
                    },
                    {
                        "number": 64,
                        "time": 95.59026821874957,
                        "value": 0
                    },
                    {
                        "number": 64,
                        "time": 95.66897191458291,
                        "value": 1
                    },
                    {
                        "number": 64,
                        "time": 97.8101754041662,
                        "value": 0
                    },
                    {
                        "number": 64,
                        "time": 98.02313834583286,
                        "value": 1
                    },
                    {
                        "number": 64,
                        "time": 100.03934184791616,
                        "value": 0
                    },
                    {
                        "number": 64,
                        "time": 100.1805455374995,
                        "value": 1
                    },
                    {
                        "number": 64,
                        "time": 102.25461940416612,
                        "value": 0
                    },
                    {
                        "number": 64,
                        "time": 102.37036013333278,
                        "value": 1
                    },
                    {
                        "number": 64,
                        "time": 104.48378584791608,
                        "value": 0
                    },
                    {
                        "number": 64,
                        "time": 104.66897101458275,
                        "value": 1
                    },
                    {
                        "number": 64,
                        "time": 106.68748933124938,
                        "value": 0
                    },
                    {
                        "number": 64,
                        "time": 106.79860043124938,
                        "value": 1
                    },
                    {
                        "number": 64,
                        "time": 108.93054466249936,
                        "value": 0
                    },
                    {
                        "number": 64,
                        "time": 109.06248909374936,
                        "value": 1
                    },
                    {
                        "number": 64,
                        "time": 111.15045184791599,
                        "value": 0
                    },
                    {
                        "number": 64,
                        "time": 111.29628516666598,
                        "value": 1
                    },
                    {
                        "number": 64,
                        "time": 113.37267384791595,
                        "value": 0
                    },
                    {
                        "number": 64,
                        "time": 113.54397012708262,
                        "value": 1
                    },
                    {
                        "number": 64,
                        "time": 115.59489584791591,
                        "value": 0
                    },
                    {
                        "number": 64,
                        "time": 115.72915509374924,
                        "value": 1
                    },
                    {
                        "number": 64,
                        "time": 124.45137644374908,
                        "value": 0
                    },
                    {
                        "number": 64,
                        "time": 151.22915154374948,
                        "value": 1
                    },
                    {
                        "number": 64,
                        "time": 154.46063270208288,
                        "value": 0
                    },
                    {
                        "number": 64,
                        "time": 154.65507712708288,
                        "value": 1
                    },
                    {
                        "number": 64,
                        "time": 157.80091014583294,
                        "value": 0
                    },
                    {
                        "number": 64,
                        "time": 157.97683605416628,
                        "value": 1
                    },
                    {
                        "number": 64,
                        "time": 161.14581721874967,
                        "value": 0
                    },
                    {
                        "number": 64,
                        "time": 161.25692831874966,
                        "value": 1
                    },
                    {
                        "number": 64,
                        "time": 164.46757614583305,
                        "value": 0
                    },
                    {
                        "number": 64,
                        "time": 164.56248354374972,
                        "value": 1
                    },
                    {
                        "number": 64,
                        "time": 167.80090914583312,
                        "value": 0
                    },
                    {
                        "number": 64,
                        "time": 167.98840912708312,
                        "value": 1
                    },
                    {
                        "number": 64,
                        "time": 171.13192733124984,
                        "value": 0
                    },
                    {
                        "number": 64,
                        "time": 171.20137176874985,
                        "value": 1
                    },
                    {
                        "number": 64,
                        "time": 174.48146403333322,
                        "value": 0
                    },
                    {
                        "number": 64,
                        "time": 174.7222047499999,
                        "value": 1
                    },
                    {
                        "number": 64,
                        "time": 177.79859333124995,
                        "value": 0
                    },
                    {
                        "number": 64,
                        "time": 177.96757479583326,
                        "value": 1
                    },
                    {
                        "number": 64,
                        "time": 181.1272967020831,
                        "value": 0
                    },
                    {
                        "number": 64,
                        "time": 181.27544483541644,
                        "value": 1
                    },
                    {
                        "number": 64,
                        "time": 184.47914821874983,
                        "value": 0
                    },
                    {
                        "number": 64,
                        "time": 184.5740556166665,
                        "value": 1
                    },
                    {
                        "number": 64,
                        "time": 187.80322196041655,
                        "value": 0
                    },
                    {
                        "number": 64,
                        "time": 187.9745182395832,
                        "value": 1
                    },
                    {
                        "number": 64,
                        "time": 190.0416476624999,
                        "value": 0
                    },
                    {
                        "number": 64,
                        "time": 190.49072169166658,
                        "value": 1
                    },
                    {
                        "number": 64,
                        "time": 191.11109199999993,
                        "value": 0
                    },
                    {
                        "number": 64,
                        "time": 191.30090679583324,
                        "value": 1
                    },
                    {
                        "number": 64,
                        "time": 197.81248021874958,
                        "value": 0
                    },
                    {
                        "number": 64,
                        "time": 198.12960981666626,
                        "value": 1
                    },
                    {
                        "number": 64,
                        "time": 201.1365539604163,
                        "value": 0
                    },
                    {
                        "number": 64,
                        "time": 201.3726650479163,
                        "value": 1
                    },
                    {
                        "number": 64,
                        "time": 204.46988696041637,
                        "value": 0
                    },
                    {
                        "number": 64,
                        "time": 204.62960916666637,
                        "value": 1
                    },
                    {
                        "number": 64,
                        "time": 207.7962755166664,
                        "value": 0
                    },
                    {
                        "number": 64,
                        "time": 208.00692364374976,
                        "value": 1
                    },
                    {
                        "number": 64,
                        "time": 211.12497888749982,
                        "value": 0
                    },
                    {
                        "number": 64,
                        "time": 211.32405294166648,
                        "value": 1
                    },
                    {
                        "number": 64,
                        "time": 214.47683040416655,
                        "value": 0
                    },
                    {
                        "number": 64,
                        "time": 214.61803409374988,
                        "value": 1
                    },
                    {
                        "number": 64,
                        "time": 217.79858933124996,
                        "value": 0
                    },
                    {
                        "number": 64,
                        "time": 217.9745152395833,
                        "value": 1
                    },
                    {
                        "number": 64,
                        "time": 221.12960751666668,
                        "value": 0
                    },
                    {
                        "number": 64,
                        "time": 221.24303343125,
                        "value": 1
                    },
                    {
                        "number": 64,
                        "time": 224.47219977500006,
                        "value": 0
                    },
                    {
                        "number": 64,
                        "time": 224.62497753750006,
                        "value": 1
                    },
                    {
                        "number": 64,
                        "time": 227.79858833125013,
                        "value": 0
                    },
                    {
                        "number": 64,
                        "time": 227.9421068354168,
                        "value": 1
                    },
                    {
                        "number": 64,
                        "time": 231.1319213312502,
                        "value": 0
                    },
                    {
                        "number": 64,
                        "time": 231.27543983541688,
                        "value": 1
                    },
                    {
                        "number": 64,
                        "time": 234.46525433125026,
                        "value": 0
                    },
                    {
                        "number": 64,
                        "time": 234.60877283541694,
                        "value": 1
                    },
                    {
                        "number": 64,
                        "time": 237.80784658958368,
                        "value": 0
                    },
                    {
                        "number": 64,
                        "time": 237.93979102083367,
                        "value": 1
                    },
                    {
                        "number": 64,
                        "time": 244.46293851666704,
                        "value": 0
                    },
                    {
                        "number": 64,
                        "time": 245.18516066666703,
                        "value": 1
                    },
                    {
                        "number": 64,
                        "time": 247.81479003333365,
                        "value": 0
                    },
                    {
                        "number": 64,
                        "time": 248.226827029167,
                        "value": 1
                    },
                    {
                        "number": 64,
                        "time": 250.97914156875032,
                        "value": 0
                    },
                    {
                        "number": 64,
                        "time": 251.2430304312503,
                        "value": 1
                    },
                    {
                        "number": 64,
                        "time": 254.28932642291707,
                        "value": 0
                    },
                    {
                        "number": 64,
                        "time": 257.7985853312504,
                        "value": 0
                    },
                    {
                        "number": 64,
                        "time": 258.5184926666671,
                        "value": 1
                    },
                    {
                        "number": 64,
                        "time": 261.1481220333338,
                        "value": 0
                    },
                    {
                        "number": 64,
                        "time": 261.5601590291671,
                        "value": 1
                    },
                    {
                        "number": 64,
                        "time": 264.31247356875053,
                        "value": 0
                    },
                    {
                        "number": 64,
                        "time": 264.5601587291672,
                        "value": 1
                    },
                    {
                        "number": 64,
                        "time": 267.6226584229171,
                        "value": 0
                    },
                    {
                        "number": 64,
                        "time": 271.1296025166671,
                        "value": 0
                    },
                    {
                        "number": 64,
                        "time": 271.8518246666671,
                        "value": 1
                    },
                    {
                        "number": 64,
                        "time": 274.48145403333376,
                        "value": 0
                    },
                    {
                        "number": 64,
                        "time": 274.8934910291671,
                        "value": 1
                    },
                    {
                        "number": 64,
                        "time": 277.6458055687505,
                        "value": 0
                    },
                    {
                        "number": 64,
                        "time": 277.87728702708387,
                        "value": 1
                    },
                    {
                        "number": 64,
                        "time": 280.95599042291707,
                        "value": 0
                    },
                    {
                        "number": 64,
                        "time": 307.8703395833336,
                        "value": 1
                    },
                    {
                        "number": 64,
                        "time": 311.15737629166694,
                        "value": 0
                    },
                    {
                        "number": 64,
                        "time": 314.52311669583366,
                        "value": 1
                    },
                    {
                        "number": 64,
                        "time": 316.7453386958337,
                        "value": 0
                    },
                    {
                        "number": 64,
                        "time": 330.75228173958345,
                        "value": 1
                    },
                    {
                        "number": 64,
                        "time": 339.47681790416635,
                        "value": 0
                    },
                    {
                        "number": 64,
                        "time": 339.689780845833,
                        "value": 1
                    },
                    {
                        "number": 64,
                        "time": 341.7013547187496,
                        "value": 0
                    },
                    {
                        "number": 64,
                        "time": 341.8471880374996,
                        "value": 1
                    },
                    {
                        "number": 64,
                        "time": 343.9212619041662,
                        "value": 0
                    },
                    {
                        "number": 64,
                        "time": 344.03700263333286,
                        "value": 1
                    },
                    {
                        "number": 64,
                        "time": 346.1319098312494,
                        "value": 0
                    },
                    {
                        "number": 64,
                        "time": 346.30783573958274,
                        "value": 1
                    },
                    {
                        "number": 64,
                        "time": 348.358761460416,
                        "value": 0
                    },
                    {
                        "number": 64,
                        "time": 348.46524293124935,
                        "value": 1
                    },
                    {
                        "number": 64,
                        "time": 350.58098346041595,
                        "value": 0
                    },
                    {
                        "number": 64,
                        "time": 350.6874649312493,
                        "value": 1
                    },
                    {
                        "number": 64,
                        "time": 352.8124647187492,
                        "value": 0
                    },
                    {
                        "number": 64,
                        "time": 352.93283507708253,
                        "value": 1
                    },
                    {
                        "number": 64,
                        "time": 355.0346867187491,
                        "value": 0
                    },
                    {
                        "number": 64,
                        "time": 355.1133904145824,
                        "value": 1
                    },
                    {
                        "number": 64,
                        "time": 357.25459390416563,
                        "value": 0
                    },
                    {
                        "number": 64,
                        "time": 357.4675568458323,
                        "value": 1
                    },
                    {
                        "number": 64,
                        "time": 359.4860751624989,
                        "value": 0
                    },
                    {
                        "number": 64,
                        "time": 359.6249640374989,
                        "value": 1
                    },
                    {
                        "number": 64,
                        "time": 361.6990379041655,
                        "value": 0
                    },
                    {
                        "number": 64,
                        "time": 361.81477863333214,
                        "value": 1
                    },
                    {
                        "number": 64,
                        "time": 363.932833977082,
                        "value": 0
                    },
                    {
                        "number": 64,
                        "time": 364.12727840208197,
                        "value": 1
                    },
                    {
                        "number": 64,
                        "time": 366.13422264583187,
                        "value": 0
                    },
                    {
                        "number": 64,
                        "time": 366.2430189312485,
                        "value": 1
                    },
                    {
                        "number": 64,
                        "time": 368.36107427499843,
                        "value": 0
                    },
                    {
                        "number": 64,
                        "time": 368.47912981874845,
                        "value": 1
                    },
                    {
                        "number": 64,
                        "time": 370.59487034791505,
                        "value": 0
                    },
                    {
                        "number": 64,
                        "time": 370.7800555145817,
                        "value": 1
                    },
                    {
                        "number": 64,
                        "time": 372.8124627187483,
                        "value": 0
                    },
                    {
                        "number": 64,
                        "time": 372.98838862708163,
                        "value": 1
                    },
                    {
                        "number": 64,
                        "time": 375.0393143479149,
                        "value": 0
                    },
                    {
                        "number": 64,
                        "time": 375.1295921166649,
                        "value": 1
                    },
                    {
                        "number": 64,
                        "time": 377.25922153333147,
                        "value": 0
                    },
                    {
                        "number": 64,
                        "time": 377.3703326333315,
                        "value": 1
                    },
                    {
                        "number": 64,
                        "time": 379.48838797708135,
                        "value": 0
                    },
                    {
                        "number": 64,
                        "time": 379.5740361166647,
                        "value": 1
                    },
                    {
                        "number": 64,
                        "time": 381.7036655333312,
                        "value": 0
                    },
                    {
                        "number": 64,
                        "time": 381.84255440833124,
                        "value": 1
                    },
                    {
                        "number": 64,
                        "time": 383.9305171624978,
                        "value": 0
                    },
                    {
                        "number": 64,
                        "time": 384.0184801166644,
                        "value": 1
                    },
                    {
                        "number": 64,
                        "time": 386.14810953333097,
                        "value": 0
                    },
                    {
                        "number": 64,
                        "time": 386.335609514581,
                        "value": 1
                    },
                    {
                        "number": 64,
                        "time": 388.3819056062476,
                        "value": 0
                    },
                    {
                        "number": 64,
                        "time": 388.5717204020809,
                        "value": 1
                    },
                    {
                        "number": 64,
                        "time": 390.59255353333083,
                        "value": 0
                    },
                    {
                        "number": 64,
                        "time": 390.72449796458085,
                        "value": 1
                    },
                    {
                        "number": 64,
                        "time": 392.8194051624974,
                        "value": 0
                    },
                    {
                        "number": 64,
                        "time": 392.99070144166404,
                        "value": 1
                    },
                    {
                        "number": 64,
                        "time": 397.2615343479138,
                        "value": 0
                    },
                    {
                        "number": 64,
                        "time": 397.4675528458305,
                        "value": 1
                    },
                    {
                        "number": 64,
                        "time": 399.48375634791375,
                        "value": 0
                    },
                    {
                        "number": 64,
                        "time": 399.70597854791373,
                        "value": 1
                    },
                    {
                        "number": 64,
                        "time": 401.70597834791363,
                        "value": 0
                    },
                    {
                        "number": 64,
                        "time": 401.77310797083027,
                        "value": 1
                    },
                    {
                        "number": 64,
                        "time": 413.88884749999676,
                        "value": 0
                    }
                ]
            },
            "id": 2,
            "name": "Piano left",
            "instrumentNumber": 0,
            "instrument": "acoustic grand piano",
            "instrumentFamily": "piano",
            "channelNumber": 0,
            "isPercussion": false
        },
        {
            "startTime": 0,
            "duration": 0,
            "length": 0,
            "notes": [],
            "controlChanges": {},
            "id": 3,
            "name": "Chopin:  Nocturne Op. 27 Nr. 1"
        },
        {
            "startTime": 0,
            "duration": 0,
            "length": 0,
            "notes": [],
            "controlChanges": {},
            "id": 4,
            "name": "Copyright  2003 by Bernd Krueger"
        },
        {
            "startTime": 0,
            "duration": 0,
            "length": 0,
            "notes": [],
            "controlChanges": {},
            "id": 5,
            "name": "http://www.piano-midi.de"
        },
        {
            "startTime": 0,
            "duration": 0,
            "length": 0,
            "notes": [],
            "controlChanges": {},
            "id": 6,
            "name": "Edition: 2014-02-19"
        },
        {
            "startTime": 0,
            "duration": 0,
            "length": 0,
            "notes": [],
            "controlChanges": {},
            "id": 7,
            "name": "Spur 7"
        }
    ]
}