{
    "header": {
        "PPQ": 480,
        "timeSignature": [
            4,
            4
        ],
        "bpm": 91.49995882501852,
        "name": "Prelude"
    },
    "startTime": 0,
    "duration": 231.47551400000128,
    "tracks": [
        {
            "startTime": 0,
            "duration": 0,
            "length": 0,
            "notes": [],
            "controlChanges": {},
            "id": 0,
            "name": "Prelude"
        },
        {
            "startTime": 1.311476,
            "duration": 231.47551400000128,
            "length": 1110,
            "notes": [
                {
                    "name": "G4",
                    "midi": 67,
                    "time": 1.311476,
                    "velocity": 0.5511811023622047,
                    "duration": 1.967214
                },
                {
                    "name": "A#4",
                    "midi": 70,
                    "time": 1.311476,
                    "velocity": 0.5511811023622047,
                    "duration": 1.967214
                },
                {
                    "name": "D5",
                    "midi": 74,
                    "time": 1.311476,
                    "velocity": 0.5511811023622047,
                    "duration": 1.967214
                },
                {
                    "name": "G5",
                    "midi": 79,
                    "time": 1.311476,
                    "velocity": 0.6535433070866141,
                    "duration": 1.4754105000000004
                },
                {
                    "name": "A5",
                    "midi": 81,
                    "time": 2.7868865000000005,
                    "velocity": 0.41732283464566927,
                    "duration": 0.16393449999999987
                },
                {
                    "name": "A#5",
                    "midi": 82,
                    "time": 2.9508210000000004,
                    "velocity": 0.41732283464566927,
                    "duration": 0.16393449999999987
                },
                {
                    "name": "A5",
                    "midi": 81,
                    "time": 3.1147555000000002,
                    "velocity": 0.41732283464566927,
                    "duration": 0.16393449999999987
                },
                {
                    "name": "G5",
                    "midi": 79,
                    "time": 3.27869,
                    "velocity": 0.4409448818897638,
                    "duration": 0.16393449999999987
                },
                {
                    "name": "A5",
                    "midi": 81,
                    "time": 3.4426245,
                    "velocity": 0.4251968503937008,
                    "duration": 0.16393449999999987
                },
                {
                    "name": "G5",
                    "midi": 79,
                    "time": 3.606559,
                    "velocity": 0.4251968503937008,
                    "duration": 0.16393449999999987
                },
                {
                    "name": "F5",
                    "midi": 77,
                    "time": 3.7704934999999997,
                    "velocity": 0.4251968503937008,
                    "duration": 0.16393449999999987
                },
                {
                    "name": "D5",
                    "midi": 74,
                    "time": 3.9344279999999996,
                    "velocity": 0.44881889763779526,
                    "duration": 0.16393449999999987
                },
                {
                    "name": "F5",
                    "midi": 77,
                    "time": 4.0983624999999995,
                    "velocity": 0.4251968503937008,
                    "duration": 0.16393449999999987
                },
                {
                    "name": "D5",
                    "midi": 74,
                    "time": 4.262296999999999,
                    "velocity": 0.4251968503937008,
                    "duration": 0.16393449999999987
                },
                {
                    "name": "C5",
                    "midi": 72,
                    "time": 4.426231499999999,
                    "velocity": 0.4251968503937008,
                    "duration": 0.16393449999999987
                },
                {
                    "name": "A#4",
                    "midi": 70,
                    "time": 4.590165999999999,
                    "velocity": 0.4566929133858268,
                    "duration": 0.16393449999999987
                },
                {
                    "name": "G4",
                    "midi": 67,
                    "time": 4.754100499999999,
                    "velocity": 0.4251968503937008,
                    "duration": 0.16393449999999987
                },
                {
                    "name": "D4",
                    "midi": 62,
                    "time": 4.918034999999999,
                    "velocity": 0.41732283464566927,
                    "duration": 0.16393449999999987
                },
                {
                    "name": "E4",
                    "midi": 64,
                    "time": 5.081969499999999,
                    "velocity": 0.41732283464566927,
                    "duration": 0.16393449999999987
                },
                {
                    "name": "G4",
                    "midi": 67,
                    "time": 5.245903999999999,
                    "velocity": 0.4094488188976378,
                    "duration": 0.16393449999999987
                },
                {
                    "name": "C4",
                    "midi": 60,
                    "time": 5.245903999999999,
                    "velocity": 0.3464566929133858,
                    "duration": 1.3114759999999999
                },
                {
                    "name": "F4",
                    "midi": 65,
                    "time": 5.409838499999998,
                    "velocity": 0.3779527559055118,
                    "duration": 0.16393449999999987
                },
                {
                    "name": "G4",
                    "midi": 67,
                    "time": 5.573772999999998,
                    "velocity": 0.3779527559055118,
                    "duration": 0.16393449999999987
                },
                {
                    "name": "A4",
                    "midi": 69,
                    "time": 5.737707499999998,
                    "velocity": 0.3700787401574803,
                    "duration": 0.16393449999999987
                },
                {
                    "name": "G4",
                    "midi": 67,
                    "time": 5.901641999999998,
                    "velocity": 0.3700787401574803,
                    "duration": 0.8196725000000002
                },
                {
                    "name": "D4",
                    "midi": 62,
                    "time": 6.557379999999998,
                    "velocity": 0.3464566929133858,
                    "duration": 1.311475999999999
                },
                {
                    "name": "F4",
                    "midi": 65,
                    "time": 6.721314499999998,
                    "velocity": 0.3779527559055118,
                    "duration": 0.16393449999999987
                },
                {
                    "name": "G4",
                    "midi": 67,
                    "time": 6.885248999999998,
                    "velocity": 0.3858267716535433,
                    "duration": 0.16393449999999987
                },
                {
                    "name": "A4",
                    "midi": 69,
                    "time": 7.049183499999998,
                    "velocity": 0.4094488188976378,
                    "duration": 0.16393449999999987
                },
                {
                    "name": "C5",
                    "midi": 72,
                    "time": 7.213117999999998,
                    "velocity": 0.41732283464566927,
                    "duration": 0.16393449999999987
                },
                {
                    "name": "A4",
                    "midi": 69,
                    "time": 7.377052499999998,
                    "velocity": 0.41732283464566927,
                    "duration": 0.16393449999999987
                },
                {
                    "name": "G4",
                    "midi": 67,
                    "time": 7.540986999999998,
                    "velocity": 0.41732283464566927,
                    "duration": 0.16393449999999987
                },
                {
                    "name": "F4",
                    "midi": 65,
                    "time": 7.7049214999999975,
                    "velocity": 0.41732283464566927,
                    "duration": 0.16393449999999987
                },
                {
                    "name": "E4",
                    "midi": 64,
                    "time": 7.868855999999997,
                    "velocity": 0.3543307086614173,
                    "duration": 1.311475999999999
                },
                {
                    "name": "G4",
                    "midi": 67,
                    "time": 7.868855999999997,
                    "velocity": 0.4251968503937008,
                    "duration": 0.16393449999999987
                },
                {
                    "name": "F4",
                    "midi": 65,
                    "time": 8.032790499999997,
                    "velocity": 0.3858267716535433,
                    "duration": 0.16393449999999987
                },
                {
                    "name": "G4",
                    "midi": 67,
                    "time": 8.196724999999997,
                    "velocity": 0.4015748031496063,
                    "duration": 0.16393449999999987
                },
                {
                    "name": "A4",
                    "midi": 69,
                    "time": 8.360659499999997,
                    "velocity": 0.3858267716535433,
                    "duration": 0.16393449999999987
                },
                {
                    "name": "G4",
                    "midi": 67,
                    "time": 8.524593999999997,
                    "velocity": 0.3779527559055118,
                    "duration": 0.8196724999999994
                },
                {
                    "name": "D4",
                    "midi": 62,
                    "time": 9.180331999999996,
                    "velocity": 0.3543307086614173,
                    "duration": 1.311475999999999
                },
                {
                    "name": "F4",
                    "midi": 65,
                    "time": 9.344266499999996,
                    "velocity": 0.3858267716535433,
                    "duration": 0.16393449999999987
                },
                {
                    "name": "G4",
                    "midi": 67,
                    "time": 9.508200999999996,
                    "velocity": 0.4015748031496063,
                    "duration": 0.16393449999999987
                },
                {
                    "name": "A4",
                    "midi": 69,
                    "time": 9.672135499999996,
                    "velocity": 0.4094488188976378,
                    "duration": 0.16393449999999987
                },
                {
                    "name": "D5",
                    "midi": 74,
                    "time": 9.836069999999996,
                    "velocity": 0.4409448818897638,
                    "duration": 0.16393449999999987
                },
                {
                    "name": "A4",
                    "midi": 69,
                    "time": 10.000004499999996,
                    "velocity": 0.4251968503937008,
                    "duration": 0.16393449999999987
                },
                {
                    "name": "G4",
                    "midi": 67,
                    "time": 10.163938999999996,
                    "velocity": 0.4251968503937008,
                    "duration": 0.16393449999999987
                },
                {
                    "name": "F4",
                    "midi": 65,
                    "time": 10.327873499999995,
                    "velocity": 0.4251968503937008,
                    "duration": 0.32786899999999974
                },
                {
                    "name": "D4",
                    "midi": 62,
                    "time": 10.491807999999995,
                    "velocity": 0.3858267716535433,
                    "duration": 0.6557379999999995
                },
                {
                    "name": "A#4",
                    "midi": 70,
                    "time": 10.655742499999995,
                    "velocity": 0.4094488188976378,
                    "duration": 0.16393449999999987
                },
                {
                    "name": "D5",
                    "midi": 74,
                    "time": 10.819676999999995,
                    "velocity": 0.4251968503937008,
                    "duration": 0.16393449999999987
                },
                {
                    "name": "F5",
                    "midi": 77,
                    "time": 10.983611499999995,
                    "velocity": 0.44881889763779526,
                    "duration": 0.16393449999999987
                },
                {
                    "name": "D5",
                    "midi": 74,
                    "time": 11.147545999999995,
                    "velocity": 0.3700787401574803,
                    "duration": 0.6557379999999995
                },
                {
                    "name": "A5",
                    "midi": 81,
                    "time": 11.147545999999995,
                    "velocity": 0.47244094488188976,
                    "duration": 0.9836069999999992
                },
                {
                    "name": "C5",
                    "midi": 72,
                    "time": 11.803283999999994,
                    "velocity": 0.4094488188976378,
                    "duration": 2.295082999999998
                },
                {
                    "name": "G5",
                    "midi": 79,
                    "time": 12.131152999999994,
                    "velocity": 0.4251968503937008,
                    "duration": 0.32786899999999974
                },
                {
                    "name": "F5",
                    "midi": 77,
                    "time": 12.459021999999994,
                    "velocity": 0.4094488188976378,
                    "duration": 0.32786899999999974
                },
                {
                    "name": "G5",
                    "midi": 79,
                    "time": 12.786890999999994,
                    "velocity": 0.4251968503937008,
                    "duration": 0.4918034999999996
                },
                {
                    "name": "F5",
                    "midi": 77,
                    "time": 13.278694499999993,
                    "velocity": 0.3858267716535433,
                    "duration": 0.16393449999999987
                },
                {
                    "name": "E5",
                    "midi": 76,
                    "time": 13.442628999999993,
                    "velocity": 0.4015748031496063,
                    "duration": 0.16393449999999987
                },
                {
                    "name": "G5",
                    "midi": 79,
                    "time": 13.606563499999993,
                    "velocity": 0.4015748031496063,
                    "duration": 0.16393449999999987
                },
                {
                    "name": "F5",
                    "midi": 77,
                    "time": 13.770497999999993,
                    "velocity": 0.4251968503937008,
                    "duration": 0.9836069999999992
                },
                {
                    "name": "A#4",
                    "midi": 70,
                    "time": 14.098366999999993,
                    "velocity": 0.3858267716535433,
                    "duration": 0.16393449999999987
                },
                {
                    "name": "A4",
                    "midi": 69,
                    "time": 14.262301499999992,
                    "velocity": 0.3858267716535433,
                    "duration": 0.16393449999999987
                },
                {
                    "name": "A#4",
                    "midi": 70,
                    "time": 14.426235999999992,
                    "velocity": 0.4015748031496063,
                    "duration": 1.311475999999999
                },
                {
                    "name": "E5",
                    "midi": 76,
                    "time": 14.754104999999992,
                    "velocity": 0.36220472440944884,
                    "duration": 0.32786899999999974
                },
                {
                    "name": "D5",
                    "midi": 74,
                    "time": 15.081973999999992,
                    "velocity": 0.3543307086614173,
                    "duration": 0.32786899999999974
                },
                {
                    "name": "F4",
                    "midi": 65,
                    "time": 15.081973999999992,
                    "velocity": 0.29133858267716534,
                    "duration": 0.32786899999999974
                },
                {
                    "name": "C5",
                    "midi": 72,
                    "time": 15.409842999999992,
                    "velocity": 0.33858267716535434,
                    "duration": 0.32786899999999974
                },
                {
                    "name": "E4",
                    "midi": 64,
                    "time": 15.409842999999992,
                    "velocity": 0.28346456692913385,
                    "duration": 0.32786899999999974
                },
                {
                    "name": "D5",
                    "midi": 74,
                    "time": 17.04918799999999,
                    "velocity": 0.5511811023622047,
                    "duration": 1.9672139999999985
                },
                {
                    "name": "A#4",
                    "midi": 70,
                    "time": 17.04918799999999,
                    "velocity": 0.5511811023622047,
                    "duration": 1.9672139999999985
                },
                {
                    "name": "G5",
                    "midi": 79,
                    "time": 17.04918799999999,
                    "velocity": 0.6535433070866141,
                    "duration": 1.4754104999999988
                },
                {
                    "name": "G4",
                    "midi": 67,
                    "time": 17.04918799999999,
                    "velocity": 0.5511811023622047,
                    "duration": 1.9672139999999985
                },
                {
                    "name": "A5",
                    "midi": 81,
                    "time": 18.52459849999999,
                    "velocity": 0.41732283464566927,
                    "duration": 0.16393449999999987
                },
                {
                    "name": "A#5",
                    "midi": 82,
                    "time": 18.68853299999999,
                    "velocity": 0.41732283464566927,
                    "duration": 0.16393449999999987
                },
                {
                    "name": "A5",
                    "midi": 81,
                    "time": 18.85246749999999,
                    "velocity": 0.41732283464566927,
                    "duration": 0.16393449999999987
                },
                {
                    "name": "G5",
                    "midi": 79,
                    "time": 19.01640199999999,
                    "velocity": 0.4409448818897638,
                    "duration": 0.16393449999999987
                },
                {
                    "name": "A5",
                    "midi": 81,
                    "time": 19.18033649999999,
                    "velocity": 0.4251968503937008,
                    "duration": 0.16393449999999987
                },
                {
                    "name": "G5",
                    "midi": 79,
                    "time": 19.34427099999999,
                    "velocity": 0.4251968503937008,
                    "duration": 0.16393449999999987
                },
                {
                    "name": "F5",
                    "midi": 77,
                    "time": 19.50820549999999,
                    "velocity": 0.4251968503937008,
                    "duration": 0.16393449999999987
                },
                {
                    "name": "D5",
                    "midi": 74,
                    "time": 19.672139999999988,
                    "velocity": 0.44881889763779526,
                    "duration": 0.16393449999999987
                },
                {
                    "name": "F5",
                    "midi": 77,
                    "time": 19.836074499999988,
                    "velocity": 0.4251968503937008,
                    "duration": 0.16393449999999987
                },
                {
                    "name": "D5",
                    "midi": 74,
                    "time": 20.000008999999988,
                    "velocity": 0.4251968503937008,
                    "duration": 0.16393449999999987
                },
                {
                    "name": "C5",
                    "midi": 72,
                    "time": 20.163943499999988,
                    "velocity": 0.4251968503937008,
                    "duration": 0.16393449999999987
                },
                {
                    "name": "A#4",
                    "midi": 70,
                    "time": 20.327877999999988,
                    "velocity": 0.4566929133858268,
                    "duration": 0.16393449999999987
                },
                {
                    "name": "G4",
                    "midi": 67,
                    "time": 20.491812499999988,
                    "velocity": 0.4251968503937008,
                    "duration": 0.16393449999999987
                },
                {
                    "name": "D4",
                    "midi": 62,
                    "time": 20.655746999999987,
                    "velocity": 0.41732283464566927,
                    "duration": 0.16393449999999987
                },
                {
                    "name": "E4",
                    "midi": 64,
                    "time": 20.819681499999987,
                    "velocity": 0.41732283464566927,
                    "duration": 0.16393449999999987
                },
                {
                    "name": "G4",
                    "midi": 67,
                    "time": 20.983615999999987,
                    "velocity": 0.4015748031496063,
                    "duration": 0.16393449999999987
                },
                {
                    "name": "F4",
                    "midi": 65,
                    "time": 21.147550499999987,
                    "velocity": 0.3700787401574803,
                    "duration": 0.16393449999999987
                },
                {
                    "name": "G4",
                    "midi": 67,
                    "time": 21.311484999999987,
                    "velocity": 0.3779527559055118,
                    "duration": 0.16393449999999987
                },
                {
                    "name": "A4",
                    "midi": 69,
                    "time": 21.475419499999987,
                    "velocity": 0.3700787401574803,
                    "duration": 0.16393449999999987
                },
                {
                    "name": "G4",
                    "midi": 67,
                    "time": 21.639353999999987,
                    "velocity": 0.36220472440944884,
                    "duration": 0.8196724999999994
                },
                {
                    "name": "F4",
                    "midi": 65,
                    "time": 22.459026499999986,
                    "velocity": 0.3779527559055118,
                    "duration": 0.16393449999999987
                },
                {
                    "name": "G4",
                    "midi": 67,
                    "time": 22.622960999999986,
                    "velocity": 0.3858267716535433,
                    "duration": 0.16393449999999987
                },
                {
                    "name": "A4",
                    "midi": 69,
                    "time": 22.786895499999986,
                    "velocity": 0.4094488188976378,
                    "duration": 0.16393449999999987
                },
                {
                    "name": "C5",
                    "midi": 72,
                    "time": 22.950829999999986,
                    "velocity": 0.41732283464566927,
                    "duration": 0.16393449999999987
                },
                {
                    "name": "A4",
                    "midi": 69,
                    "time": 23.114764499999986,
                    "velocity": 0.41732283464566927,
                    "duration": 0.16393449999999987
                },
                {
                    "name": "G4",
                    "midi": 67,
                    "time": 23.278698999999985,
                    "velocity": 0.41732283464566927,
                    "duration": 0.16393449999999987
                },
                {
                    "name": "F4",
                    "midi": 65,
                    "time": 23.442633499999985,
                    "velocity": 0.41732283464566927,
                    "duration": 0.16393449999999987
                },
                {
                    "name": "G4",
                    "midi": 67,
                    "time": 23.606567999999985,
                    "velocity": 0.4094488188976378,
                    "duration": 0.16393449999999987
                },
                {
                    "name": "F4",
                    "midi": 65,
                    "time": 23.770502499999985,
                    "velocity": 0.3858267716535433,
                    "duration": 0.16393449999999987
                },
                {
                    "name": "G4",
                    "midi": 67,
                    "time": 23.934436999999985,
                    "velocity": 0.4015748031496063,
                    "duration": 0.16393449999999987
                },
                {
                    "name": "A4",
                    "midi": 69,
                    "time": 24.098371499999985,
                    "velocity": 0.3858267716535433,
                    "duration": 0.16393449999999987
                },
                {
                    "name": "G4",
                    "midi": 67,
                    "time": 24.262305999999985,
                    "velocity": 0.3779527559055118,
                    "duration": 0.8196724999999994
                },
                {
                    "name": "D#4",
                    "midi": 63,
                    "time": 24.918043999999984,
                    "velocity": 0.3543307086614173,
                    "duration": 1.311475999999999
                },
                {
                    "name": "F4",
                    "midi": 65,
                    "time": 25.081978499999984,
                    "velocity": 0.3858267716535433,
                    "duration": 0.16393449999999987
                },
                {
                    "name": "G4",
                    "midi": 67,
                    "time": 25.245912999999984,
                    "velocity": 0.4015748031496063,
                    "duration": 0.16393449999999987
                },
                {
                    "name": "A4",
                    "midi": 69,
                    "time": 25.409847499999984,
                    "velocity": 0.4094488188976378,
                    "duration": 0.16393449999999987
                },
                {
                    "name": "D5",
                    "midi": 74,
                    "time": 25.573781999999984,
                    "velocity": 0.4409448818897638,
                    "duration": 0.16393449999999987
                },
                {
                    "name": "A4",
                    "midi": 69,
                    "time": 25.737716499999983,
                    "velocity": 0.4251968503937008,
                    "duration": 0.16393449999999987
                },
                {
                    "name": "G4",
                    "midi": 67,
                    "time": 25.901650999999983,
                    "velocity": 0.4251968503937008,
                    "duration": 0.16393449999999987
                },
                {
                    "name": "F4",
                    "midi": 65,
                    "time": 26.065585499999983,
                    "velocity": 0.4251968503937008,
                    "duration": 0.16393449999999987
                },
                {
                    "name": "D5",
                    "midi": 74,
                    "time": 26.885257999999983,
                    "velocity": 0.41732283464566927,
                    "duration": 0.9836069999999992
                },
                {
                    "name": "F5",
                    "midi": 77,
                    "time": 26.885257999999983,
                    "velocity": 0.49606299212598426,
                    "duration": 0.9836069999999992
                },
                {
                    "name": "C5",
                    "midi": 72,
                    "time": 27.868864999999982,
                    "velocity": 0.4015748031496063,
                    "duration": 0.16393449999999987
                },
                {
                    "name": "E5",
                    "midi": 76,
                    "time": 27.868864999999982,
                    "velocity": 0.47244094488188976,
                    "duration": 0.16393449999999987
                },
                {
                    "name": "D5",
                    "midi": 74,
                    "time": 28.03279949999998,
                    "velocity": 0.3937007874015748,
                    "duration": 0.16393449999999987
                },
                {
                    "name": "F5",
                    "midi": 77,
                    "time": 28.03279949999998,
                    "velocity": 0.4645669291338583,
                    "duration": 0.16393449999999987
                },
                {
                    "name": "C5",
                    "midi": 72,
                    "time": 28.19673399999998,
                    "velocity": 0.4251968503937008,
                    "duration": 0.32786899999999974
                },
                {
                    "name": "E5",
                    "midi": 76,
                    "time": 28.19673399999998,
                    "velocity": 0.5039370078740157,
                    "duration": 0.32786899999999974
                },
                {
                    "name": "D5",
                    "midi": 74,
                    "time": 28.52460299999998,
                    "velocity": 0.4330708661417323,
                    "duration": 0.16393449999999987
                },
                {
                    "name": "A#4",
                    "midi": 70,
                    "time": 28.52460299999998,
                    "velocity": 0.36220472440944884,
                    "duration": 0.16393449999999987
                },
                {
                    "name": "E5",
                    "midi": 76,
                    "time": 28.68853749999998,
                    "velocity": 0.4251968503937008,
                    "duration": 0.16393449999999987
                },
                {
                    "name": "C5",
                    "midi": 72,
                    "time": 28.68853749999998,
                    "velocity": 0.36220472440944884,
                    "duration": 0.16393449999999987
                },
                {
                    "name": "D5",
                    "midi": 74,
                    "time": 28.85247199999998,
                    "velocity": 0.4881889763779528,
                    "duration": 0.3210383958333338
                },
                {
                    "name": "A#4",
                    "midi": 70,
                    "time": 28.85247199999998,
                    "velocity": 0.4094488188976378,
                    "duration": 0.3210383958333338
                },
                {
                    "name": "C5",
                    "midi": 72,
                    "time": 29.18034099999998,
                    "velocity": 0.4409448818897638,
                    "duration": 0.29508209999999835
                },
                {
                    "name": "G4",
                    "midi": 67,
                    "time": 29.18034099999998,
                    "velocity": 0.3700787401574803,
                    "duration": 0.29508209999999835
                },
                {
                    "name": "C5",
                    "midi": 72,
                    "time": 29.50820999999998,
                    "velocity": 0.44881889763779526,
                    "duration": 0.3005465833333325
                },
                {
                    "name": "G4",
                    "midi": 67,
                    "time": 29.50820999999998,
                    "velocity": 0.3700787401574803,
                    "duration": 0.3005465833333325
                },
                {
                    "name": "D5",
                    "midi": 74,
                    "time": 29.83607899999998,
                    "velocity": 0.4566929133858268,
                    "duration": 0.32786899999999974
                },
                {
                    "name": "A#4",
                    "midi": 70,
                    "time": 29.83607899999998,
                    "velocity": 0.3858267716535433,
                    "duration": 0.32786899999999974
                },
                {
                    "name": "C5",
                    "midi": 72,
                    "time": 30.16394799999998,
                    "velocity": 0.3779527559055118,
                    "duration": 0.3142077916666679
                },
                {
                    "name": "A4",
                    "midi": 69,
                    "time": 30.16394799999998,
                    "velocity": 0.3779527559055118,
                    "duration": 0.3142077916666679
                },
                {
                    "name": "E5",
                    "midi": 76,
                    "time": 30.16394799999998,
                    "velocity": 0.4566929133858268,
                    "duration": 0.3142077916666679
                },
                {
                    "name": "D5",
                    "midi": 74,
                    "time": 30.49181699999998,
                    "velocity": 0.4094488188976378,
                    "duration": 0.29508209999999835
                },
                {
                    "name": "G5",
                    "midi": 79,
                    "time": 30.49181699999998,
                    "velocity": 0.4881889763779528,
                    "duration": 0.29508209999999835
                },
                {
                    "name": "A#4",
                    "midi": 70,
                    "time": 30.49181699999998,
                    "velocity": 0.4094488188976378,
                    "duration": 0.29508209999999835
                },
                {
                    "name": "D5",
                    "midi": 74,
                    "time": 30.81968599999998,
                    "velocity": 0.4330708661417323,
                    "duration": 0.32786899999999974
                },
                {
                    "name": "G5",
                    "midi": 79,
                    "time": 30.81968599999998,
                    "velocity": 0.5118110236220472,
                    "duration": 0.32786899999999974
                },
                {
                    "name": "A#4",
                    "midi": 70,
                    "time": 30.81968599999998,
                    "velocity": 0.4330708661417323,
                    "duration": 0.32786899999999974
                },
                {
                    "name": "A4",
                    "midi": 69,
                    "time": 31.14755499999998,
                    "velocity": 0.4251968503937008,
                    "duration": 0.32786899999999974
                },
                {
                    "name": "C#5",
                    "midi": 73,
                    "time": 31.14755499999998,
                    "velocity": 0.4251968503937008,
                    "duration": 0.32786899999999974
                },
                {
                    "name": "A5",
                    "midi": 81,
                    "time": 31.14755499999998,
                    "velocity": 0.5039370078740157,
                    "duration": 0.32786899999999974
                },
                {
                    "name": "D5",
                    "midi": 74,
                    "time": 32.13116199999998,
                    "velocity": 0.41732283464566927,
                    "duration": 0.9836069999999992
                },
                {
                    "name": "F5",
                    "midi": 77,
                    "time": 32.13116199999998,
                    "velocity": 0.49606299212598426,
                    "duration": 0.9836069999999992
                },
                {
                    "name": "C5",
                    "midi": 72,
                    "time": 33.11476899999998,
                    "velocity": 0.4015748031496063,
                    "duration": 0.16393450000000342
                },
                {
                    "name": "E5",
                    "midi": 76,
                    "time": 33.11476899999998,
                    "velocity": 0.47244094488188976,
                    "duration": 0.16393450000000342
                },
                {
                    "name": "D5",
                    "midi": 74,
                    "time": 33.278703499999985,
                    "velocity": 0.3937007874015748,
                    "duration": 0.16393450000000342
                },
                {
                    "name": "F5",
                    "midi": 77,
                    "time": 33.278703499999985,
                    "velocity": 0.4645669291338583,
                    "duration": 0.16393450000000342
                },
                {
                    "name": "C5",
                    "midi": 72,
                    "time": 33.44263799999999,
                    "velocity": 0.4251968503937008,
                    "duration": 0.32786899999999974
                },
                {
                    "name": "E5",
                    "midi": 76,
                    "time": 33.44263799999999,
                    "velocity": 0.5039370078740157,
                    "duration": 0.32786899999999974
                },
                {
                    "name": "A#4",
                    "midi": 70,
                    "time": 33.77050699999999,
                    "velocity": 0.36220472440944884,
                    "duration": 0.16393450000000342
                },
                {
                    "name": "D5",
                    "midi": 74,
                    "time": 33.77050699999999,
                    "velocity": 0.4330708661417323,
                    "duration": 0.16393450000000342
                },
                {
                    "name": "C5",
                    "midi": 72,
                    "time": 33.93444149999999,
                    "velocity": 0.36220472440944884,
                    "duration": 0.16393450000000342
                },
                {
                    "name": "E5",
                    "midi": 76,
                    "time": 33.93444149999999,
                    "velocity": 0.4409448818897638,
                    "duration": 0.16393450000000342
                },
                {
                    "name": "D5",
                    "midi": 74,
                    "time": 34.098375999999995,
                    "velocity": 0.4881889763779528,
                    "duration": 0.3210383958333338
                },
                {
                    "name": "A#4",
                    "midi": 70,
                    "time": 34.098375999999995,
                    "velocity": 0.4094488188976378,
                    "duration": 0.3210383958333338
                },
                {
                    "name": "C5",
                    "midi": 72,
                    "time": 34.426244999999994,
                    "velocity": 0.4409448818897638,
                    "duration": 0.2950821000000019
                },
                {
                    "name": "G4",
                    "midi": 67,
                    "time": 34.426244999999994,
                    "velocity": 0.3700787401574803,
                    "duration": 0.2950821000000019
                },
                {
                    "name": "C5",
                    "midi": 72,
                    "time": 34.754113999999994,
                    "velocity": 0.44881889763779526,
                    "duration": 0.30054658333333606
                },
                {
                    "name": "G4",
                    "midi": 67,
                    "time": 34.754113999999994,
                    "velocity": 0.3700787401574803,
                    "duration": 0.30054658333333606
                },
                {
                    "name": "D5",
                    "midi": 74,
                    "time": 35.081982999999994,
                    "velocity": 0.48031496062992124,
                    "duration": 0.32786899999999974
                },
                {
                    "name": "A#4",
                    "midi": 70,
                    "time": 35.081982999999994,
                    "velocity": 0.4015748031496063,
                    "duration": 0.32786899999999974
                },
                {
                    "name": "C5",
                    "midi": 72,
                    "time": 35.409851999999994,
                    "velocity": 0.4094488188976378,
                    "duration": 0.3142077916666679
                },
                {
                    "name": "A4",
                    "midi": 69,
                    "time": 35.409851999999994,
                    "velocity": 0.4094488188976378,
                    "duration": 0.3142077916666679
                },
                {
                    "name": "E5",
                    "midi": 76,
                    "time": 35.409851999999994,
                    "velocity": 0.48031496062992124,
                    "duration": 0.3142077916666679
                },
                {
                    "name": "G5",
                    "midi": 79,
                    "time": 35.73772099999999,
                    "velocity": 0.49606299212598426,
                    "duration": 0.2950821000000019
                },
                {
                    "name": "A#4",
                    "midi": 70,
                    "time": 35.73772099999999,
                    "velocity": 0.41732283464566927,
                    "duration": 0.2950821000000019
                },
                {
                    "name": "D5",
                    "midi": 74,
                    "time": 35.73772099999999,
                    "velocity": 0.41732283464566927,
                    "duration": 0.2950821000000019
                },
                {
                    "name": "G5",
                    "midi": 79,
                    "time": 36.06558999999999,
                    "velocity": 0.5196850393700787,
                    "duration": 0.32786899999999974
                },
                {
                    "name": "D5",
                    "midi": 74,
                    "time": 36.06558999999999,
                    "velocity": 0.4330708661417323,
                    "duration": 0.32786899999999974
                },
                {
                    "name": "A#4",
                    "midi": 70,
                    "time": 36.06558999999999,
                    "velocity": 0.4330708661417323,
                    "duration": 0.32786899999999974
                },
                {
                    "name": "A4",
                    "midi": 69,
                    "time": 36.39345899999999,
                    "velocity": 0.41732283464566927,
                    "duration": 0.32786899999999974
                },
                {
                    "name": "C#5",
                    "midi": 73,
                    "time": 36.39345899999999,
                    "velocity": 0.41732283464566927,
                    "duration": 0.32786899999999974
                },
                {
                    "name": "A5",
                    "midi": 81,
                    "time": 36.39345899999999,
                    "velocity": 0.49606299212598426,
                    "duration": 0.32786899999999974
                },
                {
                    "name": "D5",
                    "midi": 74,
                    "time": 37.04919699999999,
                    "velocity": 0.3543307086614173,
                    "duration": 0.9836070000000063
                },
                {
                    "name": "C6",
                    "midi": 84,
                    "time": 37.04919699999999,
                    "velocity": 0.4881889763779528,
                    "duration": 0.32786899999999974
                },
                {
                    "name": "F5",
                    "midi": 77,
                    "time": 37.04919699999999,
                    "velocity": 0.3543307086614173,
                    "duration": 0.9836070000000063
                },
                {
                    "name": "A#5",
                    "midi": 82,
                    "time": 37.37706599999999,
                    "velocity": 0.44881889763779526,
                    "duration": 0.16393450000000342
                },
                {
                    "name": "A5",
                    "midi": 81,
                    "time": 37.541000499999996,
                    "velocity": 0.4251968503937008,
                    "duration": 0.16393450000000342
                },
                {
                    "name": "G5",
                    "midi": 79,
                    "time": 37.704935,
                    "velocity": 0.44881889763779526,
                    "duration": 0.49180350000000317
                },
                {
                    "name": "F5",
                    "midi": 77,
                    "time": 38.1967385,
                    "velocity": 0.4251968503937008,
                    "duration": 0.16393450000000342
                },
                {
                    "name": "G5",
                    "midi": 79,
                    "time": 38.360673000000006,
                    "velocity": 0.4094488188976378,
                    "duration": 0.16393450000000342
                },
                {
                    "name": "A5",
                    "midi": 81,
                    "time": 38.52460750000001,
                    "velocity": 0.4094488188976378,
                    "duration": 0.16393450000000342
                },
                {
                    "name": "E5",
                    "midi": 76,
                    "time": 38.68854200000001,
                    "velocity": 0.44881889763779526,
                    "duration": 0.32786899999999974
                },
                {
                    "name": "A#4",
                    "midi": 70,
                    "time": 38.68854200000001,
                    "velocity": 0.3543307086614173,
                    "duration": 0.6557379999999995
                },
                {
                    "name": "D5",
                    "midi": 74,
                    "time": 39.01641100000001,
                    "velocity": 0.4251968503937008,
                    "duration": 0.32786899999999974
                },
                {
                    "name": "F4",
                    "midi": 65,
                    "time": 39.34428000000001,
                    "velocity": 0.4409448818897638,
                    "duration": 0.9836070000000063
                },
                {
                    "name": "C5",
                    "midi": 72,
                    "time": 39.67214900000001,
                    "velocity": 0.41732283464566927,
                    "duration": 0.32786899999999974
                },
                {
                    "name": "A#4",
                    "midi": 70,
                    "time": 40.00001800000001,
                    "velocity": 0.4094488188976378,
                    "duration": 0.16393450000000342
                },
                {
                    "name": "A4",
                    "midi": 69,
                    "time": 40.163952500000015,
                    "velocity": 0.4094488188976378,
                    "duration": 0.16393450000000342
                },
                {
                    "name": "G4",
                    "midi": 67,
                    "time": 40.32788700000002,
                    "velocity": 0.4251968503937008,
                    "duration": 0.16393450000000342
                },
                {
                    "name": "D4",
                    "midi": 62,
                    "time": 40.32788700000002,
                    "velocity": 0.4251968503937008,
                    "duration": 0.6557380000000066
                },
                {
                    "name": "F4",
                    "midi": 65,
                    "time": 40.49182150000002,
                    "velocity": 0.4094488188976378,
                    "duration": 0.16393450000000342
                },
                {
                    "name": "G4",
                    "midi": 67,
                    "time": 40.655756000000025,
                    "velocity": 0.41732283464566927,
                    "duration": 0.16393450000000342
                },
                {
                    "name": "A4",
                    "midi": 69,
                    "time": 40.81969050000003,
                    "velocity": 0.41732283464566927,
                    "duration": 0.13661208333333263
                },
                {
                    "name": "A#3",
                    "midi": 58,
                    "time": 40.983625000000025,
                    "velocity": 0.4409448818897638,
                    "duration": 0.9836069999999992
                },
                {
                    "name": "E4",
                    "midi": 64,
                    "time": 40.983625000000025,
                    "velocity": 0.5196850393700787,
                    "duration": 0.30054658333333606
                },
                {
                    "name": "D4",
                    "midi": 62,
                    "time": 41.311494000000025,
                    "velocity": 0.49606299212598426,
                    "duration": 0.30054658333333606
                },
                {
                    "name": "F4",
                    "midi": 65,
                    "time": 41.639363000000024,
                    "velocity": 0.5354330708661418,
                    "duration": 0.27322416666666527
                },
                {
                    "name": "C4",
                    "midi": 60,
                    "time": 42.295101000000024,
                    "velocity": 0.48031496062992124,
                    "duration": 0.16393450000000342
                },
                {
                    "name": "E3",
                    "midi": 52,
                    "time": 42.295101000000024,
                    "velocity": 0.4015748031496063,
                    "duration": 0.16393450000000342
                },
                {
                    "name": "A3",
                    "midi": 57,
                    "time": 42.295101000000024,
                    "velocity": 0.4015748031496063,
                    "duration": 0.16393450000000342
                },
                {
                    "name": "A3",
                    "midi": 57,
                    "time": 42.62297000000003,
                    "velocity": 0.4645669291338583,
                    "duration": 0.16393450000000342
                },
                {
                    "name": "D3",
                    "midi": 50,
                    "time": 42.62297000000003,
                    "velocity": 0.3937007874015748,
                    "duration": 0.16393450000000342
                },
                {
                    "name": "F3",
                    "midi": 53,
                    "time": 42.62297000000003,
                    "velocity": 0.3937007874015748,
                    "duration": 0.16393450000000342
                },
                {
                    "name": "G3",
                    "midi": 55,
                    "time": 42.95083900000004,
                    "velocity": 0.4015748031496063,
                    "duration": 0.16393450000000342
                },
                {
                    "name": "C4",
                    "midi": 60,
                    "time": 42.95083900000004,
                    "velocity": 0.48031496062992124,
                    "duration": 0.16393450000000342
                },
                {
                    "name": "E3",
                    "midi": 52,
                    "time": 42.95083900000004,
                    "velocity": 0.4015748031496063,
                    "duration": 0.16393450000000342
                },
                {
                    "name": "A3",
                    "midi": 57,
                    "time": 43.606577000000044,
                    "velocity": 0.41732283464566927,
                    "duration": 0.32786900000000685
                },
                {
                    "name": "C4",
                    "midi": 60,
                    "time": 43.606577000000044,
                    "velocity": 0.49606299212598426,
                    "duration": 0.10928966666666895
                },
                {
                    "name": "D4",
                    "midi": 62,
                    "time": 43.71586666666671,
                    "velocity": 0.49606299212598426,
                    "duration": 0.10928966666666895
                },
                {
                    "name": "C4",
                    "midi": 60,
                    "time": 43.82515633333338,
                    "velocity": 0.49606299212598426,
                    "duration": 0.10928966666666895
                },
                {
                    "name": "F3",
                    "midi": 53,
                    "time": 43.93444600000005,
                    "velocity": 0.4330708661417323,
                    "duration": 0.32786899999999974
                },
                {
                    "name": "A3",
                    "midi": 57,
                    "time": 43.93444600000005,
                    "velocity": 0.5196850393700787,
                    "duration": 0.32786899999999974
                },
                {
                    "name": "G3",
                    "midi": 55,
                    "time": 44.26231500000005,
                    "velocity": 0.4330708661417323,
                    "duration": 0.32786899999999974
                },
                {
                    "name": "C4",
                    "midi": 60,
                    "time": 44.26231500000005,
                    "velocity": 0.5196850393700787,
                    "duration": 0.32786899999999974
                },
                {
                    "name": "D4",
                    "midi": 62,
                    "time": 44.59018400000005,
                    "velocity": 0.4645669291338583,
                    "duration": 0.32786899999999974
                },
                {
                    "name": "A#3",
                    "midi": 58,
                    "time": 44.59018400000005,
                    "velocity": 0.3937007874015748,
                    "duration": 0.32786899999999974
                },
                {
                    "name": "F4",
                    "midi": 65,
                    "time": 44.91805300000005,
                    "velocity": 0.44881889763779526,
                    "duration": 0.32786899999999974
                },
                {
                    "name": "C4",
                    "midi": 60,
                    "time": 44.91805300000005,
                    "velocity": 0.3779527559055118,
                    "duration": 0.32786899999999974
                },
                {
                    "name": "G4",
                    "midi": 67,
                    "time": 45.24592200000005,
                    "velocity": 0.4251968503937008,
                    "duration": 0.9836069999999992
                },
                {
                    "name": "D4",
                    "midi": 62,
                    "time": 45.24592200000005,
                    "velocity": 0.3543307086614173,
                    "duration": 1.311476000000006
                },
                {
                    "name": "G4",
                    "midi": 67,
                    "time": 46.22952900000005,
                    "velocity": 0.3858267716535433,
                    "duration": 0.10928966666666895
                },
                {
                    "name": "A4",
                    "midi": 69,
                    "time": 46.33881866666672,
                    "velocity": 0.3858267716535433,
                    "duration": 0.10928966666666895
                },
                {
                    "name": "G4",
                    "midi": 67,
                    "time": 46.44810833333339,
                    "velocity": 0.3858267716535433,
                    "duration": 0.10928966666666895
                },
                {
                    "name": "D4",
                    "midi": 62,
                    "time": 46.557398000000056,
                    "velocity": 0.3543307086614173,
                    "duration": 0.6557379999999995
                },
                {
                    "name": "F4",
                    "midi": 65,
                    "time": 46.557398000000056,
                    "velocity": 0.4251968503937008,
                    "duration": 0.32786899999999974
                },
                {
                    "name": "E4",
                    "midi": 64,
                    "time": 46.885267000000056,
                    "velocity": 0.4015748031496063,
                    "duration": 0.32786899999999974
                },
                {
                    "name": "A#3",
                    "midi": 58,
                    "time": 47.213136000000056,
                    "velocity": 0.33858267716535434,
                    "duration": 0.6557379999999995
                },
                {
                    "name": "F4",
                    "midi": 65,
                    "time": 47.213136000000056,
                    "velocity": 0.4015748031496063,
                    "duration": 1.9672139999999985
                },
                {
                    "name": "D4",
                    "midi": 62,
                    "time": 47.213136000000056,
                    "velocity": 0.33858267716535434,
                    "duration": 0.6557379999999995
                },
                {
                    "name": "C4",
                    "midi": 60,
                    "time": 47.868874000000055,
                    "velocity": 0.30708661417322836,
                    "duration": 0.32786899999999974
                },
                {
                    "name": "A3",
                    "midi": 57,
                    "time": 47.868874000000055,
                    "velocity": 0.25984251968503935,
                    "duration": 0.32786899999999974
                },
                {
                    "name": "A#3",
                    "midi": 58,
                    "time": 48.196743000000055,
                    "velocity": 0.28346456692913385,
                    "duration": 0.32786899999999974
                },
                {
                    "name": "G3",
                    "midi": 55,
                    "time": 48.196743000000055,
                    "velocity": 0.23622047244094488,
                    "duration": 0.32786899999999974
                },
                {
                    "name": "C4",
                    "midi": 60,
                    "time": 48.524612000000054,
                    "velocity": 0.25984251968503935,
                    "duration": 0.3251367583333362
                },
                {
                    "name": "A3",
                    "midi": 57,
                    "time": 48.524612000000054,
                    "velocity": 0.2125984251968504,
                    "duration": 1.311475999999999
                },
                {
                    "name": "E6",
                    "midi": 88,
                    "time": 49.83608800000005,
                    "velocity": 0.3779527559055118,
                    "duration": 0.32786899999999974
                },
                {
                    "name": "E5",
                    "midi": 76,
                    "time": 49.83608800000005,
                    "velocity": 0.25984251968503935,
                    "duration": 1.9672139999999985
                },
                {
                    "name": "B5",
                    "midi": 83,
                    "time": 50.16395700000005,
                    "velocity": 0.33858267716535434,
                    "duration": 0.6557379999999995
                },
                {
                    "name": "A5",
                    "midi": 81,
                    "time": 50.81969500000005,
                    "velocity": 0.3543307086614173,
                    "duration": 0.6557379999999995
                },
                {
                    "name": "E5",
                    "midi": 76,
                    "time": 51.47543300000005,
                    "velocity": 0.33070866141732286,
                    "duration": 0.32786899999999974
                },
                {
                    "name": "F4",
                    "midi": 65,
                    "time": 51.80330200000005,
                    "velocity": 0.25196850393700787,
                    "duration": 0.32786899999999264
                },
                {
                    "name": "B4",
                    "midi": 71,
                    "time": 51.80330200000005,
                    "velocity": 0.30708661417322836,
                    "duration": 0.08196724999999816
                },
                {
                    "name": "A4",
                    "midi": 69,
                    "time": 51.88526925000005,
                    "velocity": 0.30708661417322836,
                    "duration": 0.08196724999999816
                },
                {
                    "name": "B4",
                    "midi": 71,
                    "time": 51.96723650000005,
                    "velocity": 0.30708661417322836,
                    "duration": 0.08196724999999816
                },
                {
                    "name": "D5",
                    "midi": 74,
                    "time": 52.049203750000046,
                    "velocity": 0.30708661417322836,
                    "duration": 0.08196724999999816
                },
                {
                    "name": "E6",
                    "midi": 88,
                    "time": 52.459040000000044,
                    "velocity": 0.3779527559055118,
                    "duration": 0.32786899999999974
                },
                {
                    "name": "E5",
                    "midi": 76,
                    "time": 52.459040000000044,
                    "velocity": 0.25984251968503935,
                    "duration": 1.9672139999999985
                },
                {
                    "name": "B5",
                    "midi": 83,
                    "time": 52.786909000000044,
                    "velocity": 0.33858267716535434,
                    "duration": 0.6557379999999995
                },
                {
                    "name": "A5",
                    "midi": 81,
                    "time": 53.44264700000004,
                    "velocity": 0.3543307086614173,
                    "duration": 0.6557379999999995
                },
                {
                    "name": "E5",
                    "midi": 76,
                    "time": 54.09838500000004,
                    "velocity": 0.33070866141732286,
                    "duration": 0.32786899999999974
                },
                {
                    "name": "F4",
                    "midi": 65,
                    "time": 54.42625400000004,
                    "velocity": 0.30708661417322836,
                    "duration": 0.6557379999999995
                },
                {
                    "name": "B4",
                    "midi": 71,
                    "time": 54.42625400000004,
                    "velocity": 0.30708661417322836,
                    "duration": 0.32786899999999974
                },
                {
                    "name": "A4",
                    "midi": 69,
                    "time": 54.75412300000004,
                    "velocity": 0.30708661417322836,
                    "duration": 0.4098362499999979
                },
                {
                    "name": "B4",
                    "midi": 71,
                    "time": 55.16395925000004,
                    "velocity": 0.2755905511811024,
                    "duration": 0.08196724999999816
                },
                {
                    "name": "A4",
                    "midi": 69,
                    "time": 55.24592650000004,
                    "velocity": 0.29133858267716534,
                    "duration": 0.08196724999999816
                },
                {
                    "name": "G4",
                    "midi": 67,
                    "time": 55.32789375000004,
                    "velocity": 0.30708661417322836,
                    "duration": 0.08196724999999816
                },
                {
                    "name": "C4",
                    "midi": 60,
                    "time": 55.409861000000035,
                    "velocity": 0.23622047244094488,
                    "duration": 0.6557379999999995
                },
                {
                    "name": "E4",
                    "midi": 64,
                    "time": 55.409861000000035,
                    "velocity": 0.28346456692913385,
                    "duration": 0.6557379999999995
                },
                {
                    "name": "A3",
                    "midi": 57,
                    "time": 56.065599000000034,
                    "velocity": 0.25196850393700787,
                    "duration": 1.6393449999999987
                },
                {
                    "name": "D4",
                    "midi": 62,
                    "time": 56.065599000000034,
                    "velocity": 0.2992125984251969,
                    "duration": 0.6557379999999995
                },
                {
                    "name": "E4",
                    "midi": 64,
                    "time": 56.721337000000034,
                    "velocity": 0.3228346456692913,
                    "duration": 0.32786899999999974
                },
                {
                    "name": "F4",
                    "midi": 65,
                    "time": 57.049206000000034,
                    "velocity": 0.3543307086614173,
                    "duration": 0.32786899999999974
                },
                {
                    "name": "A4",
                    "midi": 69,
                    "time": 57.37707500000003,
                    "velocity": 0.3228346456692913,
                    "duration": 0.30054658333333606
                },
                {
                    "name": "E4",
                    "midi": 64,
                    "time": 57.70494400000003,
                    "velocity": 0.2992125984251969,
                    "duration": 0.32786899999999974
                },
                {
                    "name": "B3",
                    "midi": 59,
                    "time": 57.70494400000003,
                    "velocity": 0.25196850393700787,
                    "duration": 1.311476000000006
                },
                {
                    "name": "D4",
                    "midi": 62,
                    "time": 58.03281300000003,
                    "velocity": 0.28346456692913385,
                    "duration": 0.16393450000000342
                },
                {
                    "name": "E4",
                    "midi": 64,
                    "time": 58.196747500000036,
                    "velocity": 0.2677165354330709,
                    "duration": 0.16393450000000342
                },
                {
                    "name": "D4",
                    "midi": 62,
                    "time": 58.36068200000004,
                    "velocity": 0.29133858267716534,
                    "duration": 0.27322416666666527
                },
                {
                    "name": "E4",
                    "midi": 64,
                    "time": 58.68855100000004,
                    "velocity": 0.2992125984251969,
                    "duration": 0.6557379999999995
                },
                {
                    "name": "A3",
                    "midi": 57,
                    "time": 59.01642000000004,
                    "velocity": 0.2204724409448819,
                    "duration": 0.9836070000000063
                },
                {
                    "name": "D4",
                    "midi": 62,
                    "time": 59.34428900000004,
                    "velocity": 0.25196850393700787,
                    "duration": 0.16393450000000342
                },
                {
                    "name": "E4",
                    "midi": 64,
                    "time": 59.50822350000004,
                    "velocity": 0.23622047244094488,
                    "duration": 0.16393450000000342
                },
                {
                    "name": "D4",
                    "midi": 62,
                    "time": 59.672158000000046,
                    "velocity": 0.2440944881889764,
                    "duration": 0.27322416666666527
                },
                {
                    "name": "B3",
                    "midi": 59,
                    "time": 60.000027000000046,
                    "velocity": 0.1889763779527559,
                    "duration": 0.32786899999999974
                },
                {
                    "name": "E4",
                    "midi": 64,
                    "time": 60.000027000000046,
                    "velocity": 0.1889763779527559,
                    "duration": 0.32786899999999974
                },
                {
                    "name": "G3",
                    "midi": 55,
                    "time": 60.000027000000046,
                    "velocity": 0.14960629921259844,
                    "duration": 0.32786899999999974
                },
                {
                    "name": "E6",
                    "midi": 88,
                    "time": 60.327896000000045,
                    "velocity": 0.3543307086614173,
                    "duration": 0.32786899999999974
                },
                {
                    "name": "E5",
                    "midi": 76,
                    "time": 60.327896000000045,
                    "velocity": 0.23622047244094488,
                    "duration": 1.9672139999999985
                },
                {
                    "name": "B5",
                    "midi": 83,
                    "time": 60.655765000000045,
                    "velocity": 0.33858267716535434,
                    "duration": 0.6557379999999995
                },
                {
                    "name": "A5",
                    "midi": 81,
                    "time": 61.311503000000044,
                    "velocity": 0.3543307086614173,
                    "duration": 0.6557379999999995
                },
                {
                    "name": "E5",
                    "midi": 76,
                    "time": 61.967241000000044,
                    "velocity": 0.33070866141732286,
                    "duration": 0.32786899999999974
                },
                {
                    "name": "F4",
                    "midi": 65,
                    "time": 62.295110000000044,
                    "velocity": 0.25196850393700787,
                    "duration": 0.32786899999999264
                },
                {
                    "name": "B4",
                    "midi": 71,
                    "time": 62.295110000000044,
                    "velocity": 0.30708661417322836,
                    "duration": 0.08196724999999816
                },
                {
                    "name": "A4",
                    "midi": 69,
                    "time": 62.37707725000004,
                    "velocity": 0.30708661417322836,
                    "duration": 0.08196724999999816
                },
                {
                    "name": "B4",
                    "midi": 71,
                    "time": 62.45904450000004,
                    "velocity": 0.30708661417322836,
                    "duration": 0.08196724999999816
                },
                {
                    "name": "D5",
                    "midi": 74,
                    "time": 62.54101175000004,
                    "velocity": 0.30708661417322836,
                    "duration": 0.08196724999999816
                },
                {
                    "name": "E6",
                    "midi": 88,
                    "time": 62.950848000000036,
                    "velocity": 0.3779527559055118,
                    "duration": 0.32786899999999974
                },
                {
                    "name": "E5",
                    "midi": 76,
                    "time": 62.950848000000036,
                    "velocity": 0.25984251968503935,
                    "duration": 1.311475999999999
                },
                {
                    "name": "B5",
                    "midi": 83,
                    "time": 63.278717000000036,
                    "velocity": 0.33858267716535434,
                    "duration": 0.6557379999999995
                },
                {
                    "name": "A5",
                    "midi": 81,
                    "time": 63.934455000000035,
                    "velocity": 0.33858267716535434,
                    "duration": 0.32786899999999974
                },
                {
                    "name": "A6",
                    "midi": 93,
                    "time": 64.26232400000004,
                    "velocity": 0.41732283464566927,
                    "duration": 0.32786900000000685
                },
                {
                    "name": "A5",
                    "midi": 81,
                    "time": 64.26232400000004,
                    "velocity": 0.28346456692913385,
                    "duration": 1.3114760000000132
                },
                {
                    "name": "E6",
                    "midi": 88,
                    "time": 64.59019300000004,
                    "velocity": 0.36220472440944884,
                    "duration": 0.6557379999999995
                },
                {
                    "name": "D6",
                    "midi": 86,
                    "time": 65.24593100000004,
                    "velocity": 0.36220472440944884,
                    "duration": 0.32786900000000685
                },
                {
                    "name": "D5",
                    "midi": 74,
                    "time": 65.57380000000005,
                    "velocity": 0.2755905511811024,
                    "duration": 0.10928966666666895
                },
                {
                    "name": "B4",
                    "midi": 71,
                    "time": 65.57380000000005,
                    "velocity": 0.2283464566929134,
                    "duration": 0.3278689999999784
                },
                {
                    "name": "E5",
                    "midi": 76,
                    "time": 65.65576725000005,
                    "velocity": 0.28346456692913385,
                    "duration": 0.10928966666665474
                },
                {
                    "name": "G5",
                    "midi": 79,
                    "time": 65.73773450000004,
                    "velocity": 0.2992125984251969,
                    "duration": 0.10928966666665474
                },
                {
                    "name": "A5",
                    "midi": 81,
                    "time": 65.81970175000004,
                    "velocity": 0.30708661417322836,
                    "duration": 0.10928966666665474
                },
                {
                    "name": "D6",
                    "midi": 86,
                    "time": 65.90166900000003,
                    "velocity": 0.36220472440944884,
                    "duration": 0.6557379999999995
                },
                {
                    "name": "E6",
                    "midi": 88,
                    "time": 66.55740700000003,
                    "velocity": 0.33858267716535434,
                    "duration": 0.32786900000000685
                },
                {
                    "name": "G4",
                    "midi": 67,
                    "time": 66.88527600000003,
                    "velocity": 0.16535433070866143,
                    "duration": 0.3278689999999784
                },
                {
                    "name": "A4",
                    "midi": 69,
                    "time": 66.88527600000003,
                    "velocity": 0.28346456692913385,
                    "duration": 0.10928966666666895
                },
                {
                    "name": "C5",
                    "midi": 72,
                    "time": 66.96724325000004,
                    "velocity": 0.28346456692913385,
                    "duration": 0.10928966666665474
                },
                {
                    "name": "D5",
                    "midi": 74,
                    "time": 67.04921050000003,
                    "velocity": 0.29133858267716534,
                    "duration": 0.10928966666665474
                },
                {
                    "name": "E5",
                    "midi": 76,
                    "time": 67.13117775000002,
                    "velocity": 0.2992125984251969,
                    "duration": 0.10928966666665474
                },
                {
                    "name": "A5",
                    "midi": 81,
                    "time": 67.21314500000001,
                    "velocity": 0.3543307086614173,
                    "duration": 0.49180350000000317
                },
                {
                    "name": "G5",
                    "midi": 79,
                    "time": 67.70494850000001,
                    "velocity": 0.30708661417322836,
                    "duration": 0.16393449999999632
                },
                {
                    "name": "A5",
                    "midi": 81,
                    "time": 67.86888300000001,
                    "velocity": 0.3464566929133858,
                    "duration": 0.16393449999999632
                },
                {
                    "name": "C6",
                    "midi": 84,
                    "time": 68.03281750000001,
                    "velocity": 0.33070866141732286,
                    "duration": 0.16393449999999632
                },
                {
                    "name": "B4",
                    "midi": 71,
                    "time": 68.196752,
                    "velocity": 0.2283464566929134,
                    "duration": 0.3278689999999784
                },
                {
                    "name": "D5",
                    "midi": 74,
                    "time": 68.196752,
                    "velocity": 0.2755905511811024,
                    "duration": 0.10928966666666895
                },
                {
                    "name": "E5",
                    "midi": 76,
                    "time": 68.27871925000001,
                    "velocity": 0.28346456692913385,
                    "duration": 0.10928966666665474
                },
                {
                    "name": "F5",
                    "midi": 77,
                    "time": 68.3606865,
                    "velocity": 0.2992125984251969,
                    "duration": 0.10928966666665474
                },
                {
                    "name": "A5",
                    "midi": 81,
                    "time": 68.44265374999999,
                    "velocity": 0.30708661417322836,
                    "duration": 0.10928966666665474
                },
                {
                    "name": "D6",
                    "midi": 86,
                    "time": 68.52462099999998,
                    "velocity": 0.36220472440944884,
                    "duration": 0.6557379999999995
                },
                {
                    "name": "E6",
                    "midi": 88,
                    "time": 69.18035899999998,
                    "velocity": 0.33858267716535434,
                    "duration": 0.32786900000000685
                },
                {
                    "name": "A4",
                    "midi": 69,
                    "time": 69.50822799999999,
                    "velocity": 0.28346456692913385,
                    "duration": 0.10928966666666895
                },
                {
                    "name": "G4",
                    "midi": 67,
                    "time": 69.50822799999999,
                    "velocity": 0.16535433070866143,
                    "duration": 0.3278689999999784
                },
                {
                    "name": "C5",
                    "midi": 72,
                    "time": 69.59019525,
                    "velocity": 0.28346456692913385,
                    "duration": 0.10928966666665474
                },
                {
                    "name": "D5",
                    "midi": 74,
                    "time": 69.67216249999998,
                    "velocity": 0.29133858267716534,
                    "duration": 0.10928966666665474
                },
                {
                    "name": "E5",
                    "midi": 76,
                    "time": 69.75412974999998,
                    "velocity": 0.2992125984251969,
                    "duration": 0.10928966666665474
                },
                {
                    "name": "A5",
                    "midi": 81,
                    "time": 69.83609699999997,
                    "velocity": 0.3543307086614173,
                    "duration": 0.49180350000000317
                },
                {
                    "name": "B5",
                    "midi": 83,
                    "time": 70.32790049999997,
                    "velocity": 0.3464566929133858,
                    "duration": 0.16393449999999632
                },
                {
                    "name": "A5",
                    "midi": 81,
                    "time": 70.49183499999997,
                    "velocity": 0.3464566929133858,
                    "duration": 0.16393449999999632
                },
                {
                    "name": "G5",
                    "midi": 79,
                    "time": 70.65576949999996,
                    "velocity": 0.33858267716535434,
                    "duration": 0.16393449999999632
                },
                {
                    "name": "C#4",
                    "midi": 61,
                    "time": 70.81970399999996,
                    "velocity": 0.2204724409448819,
                    "duration": 0.10928966666666895
                },
                {
                    "name": "B3",
                    "midi": 59,
                    "time": 70.81970399999996,
                    "velocity": 0.1889763779527559,
                    "duration": 0.3278689999999784
                },
                {
                    "name": "D#4",
                    "midi": 63,
                    "time": 70.90167124999996,
                    "velocity": 0.23622047244094488,
                    "duration": 0.10928966666665474
                },
                {
                    "name": "F#4",
                    "midi": 66,
                    "time": 70.98363849999996,
                    "velocity": 0.25196850393700787,
                    "duration": 0.10928966666665474
                },
                {
                    "name": "A4",
                    "midi": 69,
                    "time": 71.06560574999995,
                    "velocity": 0.25984251968503935,
                    "duration": 0.10928966666665474
                },
                {
                    "name": "C#5",
                    "midi": 73,
                    "time": 71.14757299999994,
                    "velocity": 0.2992125984251969,
                    "duration": 0.6557379999999995
                },
                {
                    "name": "D#5",
                    "midi": 75,
                    "time": 71.80331099999994,
                    "velocity": 0.2677165354330709,
                    "duration": 0.32786900000000685
                },
                {
                    "name": "B3",
                    "midi": 59,
                    "time": 72.13117999999994,
                    "velocity": 0.14173228346456693,
                    "duration": 0.3278689999999784
                },
                {
                    "name": "C#4",
                    "midi": 61,
                    "time": 72.13117999999994,
                    "velocity": 0.23622047244094488,
                    "duration": 0.10928966666666895
                },
                {
                    "name": "D#4",
                    "midi": 63,
                    "time": 72.21314724999995,
                    "velocity": 0.23622047244094488,
                    "duration": 0.10928966666665474
                },
                {
                    "name": "E4",
                    "midi": 64,
                    "time": 72.29511449999994,
                    "velocity": 0.2440944881889764,
                    "duration": 0.10928966666665474
                },
                {
                    "name": "F#4",
                    "midi": 66,
                    "time": 72.37708174999993,
                    "velocity": 0.25196850393700787,
                    "duration": 0.10928966666665474
                },
                {
                    "name": "G#4",
                    "midi": 68,
                    "time": 72.45904899999992,
                    "velocity": 0.2992125984251969,
                    "duration": 0.49180350000000317
                },
                {
                    "name": "B4",
                    "midi": 71,
                    "time": 72.95085249999993,
                    "velocity": 0.25984251968503935,
                    "duration": 0.16393449999999632
                },
                {
                    "name": "G#4",
                    "midi": 68,
                    "time": 73.11478699999992,
                    "velocity": 0.28346456692913385,
                    "duration": 0.16393449999999632
                },
                {
                    "name": "B4",
                    "midi": 71,
                    "time": 73.27872149999992,
                    "velocity": 0.2677165354330709,
                    "duration": 0.16393449999999632
                },
                {
                    "name": "C#4",
                    "midi": 61,
                    "time": 73.44265599999991,
                    "velocity": 0.2204724409448819,
                    "duration": 0.10928966666666895
                },
                {
                    "name": "B3",
                    "midi": 59,
                    "time": 73.44265599999991,
                    "velocity": 0.1889763779527559,
                    "duration": 0.3278689999999784
                },
                {
                    "name": "D#4",
                    "midi": 63,
                    "time": 73.52462324999992,
                    "velocity": 0.23622047244094488,
                    "duration": 0.10928966666665474
                },
                {
                    "name": "F#4",
                    "midi": 66,
                    "time": 73.60659049999991,
                    "velocity": 0.25196850393700787,
                    "duration": 0.10928966666665474
                },
                {
                    "name": "A4",
                    "midi": 69,
                    "time": 73.6885577499999,
                    "velocity": 0.25984251968503935,
                    "duration": 0.10928966666665474
                },
                {
                    "name": "C#5",
                    "midi": 73,
                    "time": 73.77052499999989,
                    "velocity": 0.2992125984251969,
                    "duration": 0.49180350000000317
                },
                {
                    "name": "D#5",
                    "midi": 75,
                    "time": 74.2623284999999,
                    "velocity": 0.2755905511811024,
                    "duration": 0.16393449999999632
                },
                {
                    "name": "C#5",
                    "midi": 73,
                    "time": 74.42626299999989,
                    "velocity": 0.2992125984251969,
                    "duration": 0.16393449999999632
                },
                {
                    "name": "D#5",
                    "midi": 75,
                    "time": 74.59019749999989,
                    "velocity": 0.28346456692913385,
                    "duration": 0.16393449999999632
                },
                {
                    "name": "B4",
                    "midi": 71,
                    "time": 74.75413199999988,
                    "velocity": 0.2125984251968504,
                    "duration": 0.3278689999999784
                },
                {
                    "name": "C#5",
                    "midi": 73,
                    "time": 74.75413199999988,
                    "velocity": 0.29133858267716534,
                    "duration": 0.10928966666666895
                },
                {
                    "name": "D#5",
                    "midi": 75,
                    "time": 74.83609924999989,
                    "velocity": 0.29133858267716534,
                    "duration": 0.10928966666665474
                },
                {
                    "name": "E5",
                    "midi": 76,
                    "time": 74.91806649999988,
                    "velocity": 0.2992125984251969,
                    "duration": 0.10928966666665474
                },
                {
                    "name": "F#5",
                    "midi": 78,
                    "time": 75.00003374999987,
                    "velocity": 0.30708661417322836,
                    "duration": 0.10928966666665474
                },
                {
                    "name": "G#5",
                    "midi": 80,
                    "time": 75.08200099999986,
                    "velocity": 0.3700787401574803,
                    "duration": 0.49180350000000317
                },
                {
                    "name": "B5",
                    "midi": 83,
                    "time": 75.57380449999987,
                    "velocity": 0.3700787401574803,
                    "duration": 0.16393449999999632
                },
                {
                    "name": "G#5",
                    "midi": 80,
                    "time": 75.73773899999986,
                    "velocity": 0.4251968503937008,
                    "duration": 0.16393449999999632
                },
                {
                    "name": "B5",
                    "midi": 83,
                    "time": 75.90167349999986,
                    "velocity": 0.41732283464566927,
                    "duration": 0.16393449999999632
                },
                {
                    "name": "D6",
                    "midi": 86,
                    "time": 76.06560799999986,
                    "velocity": 0.41732283464566927,
                    "duration": 0.32786900000000685
                },
                {
                    "name": "F5",
                    "midi": 77,
                    "time": 76.06560799999986,
                    "velocity": 0.3543307086614173,
                    "duration": 0.6557379999999995
                },
                {
                    "name": "C6",
                    "midi": 84,
                    "time": 76.39347699999986,
                    "velocity": 0.4094488188976378,
                    "duration": 0.16393449999999632
                },
                {
                    "name": "B5",
                    "midi": 83,
                    "time": 76.55741149999986,
                    "velocity": 0.4094488188976378,
                    "duration": 0.16393449999999632
                },
                {
                    "name": "D5",
                    "midi": 74,
                    "time": 76.72134599999985,
                    "velocity": 0.33070866141732286,
                    "duration": 0.6557379999999853
                },
                {
                    "name": "A5",
                    "midi": 81,
                    "time": 76.72134599999985,
                    "velocity": 0.41732283464566927,
                    "duration": 0.16393449999999632
                },
                {
                    "name": "G5",
                    "midi": 79,
                    "time": 76.88528049999985,
                    "velocity": 0.4015748031496063,
                    "duration": 0.16393449999999632
                },
                {
                    "name": "A5",
                    "midi": 81,
                    "time": 77.04921499999985,
                    "velocity": 0.4015748031496063,
                    "duration": 0.16393449999999632
                },
                {
                    "name": "B5",
                    "midi": 83,
                    "time": 77.21314949999984,
                    "velocity": 0.4015748031496063,
                    "duration": 0.13661208333333263
                },
                {
                    "name": "E5",
                    "midi": 76,
                    "time": 77.37708399999984,
                    "velocity": 0.41732283464566927,
                    "duration": 0.16393449999999632
                },
                {
                    "name": "B4",
                    "midi": 71,
                    "time": 77.37708399999984,
                    "velocity": 0.33070866141732286,
                    "duration": 0.32786899999999264
                },
                {
                    "name": "F5",
                    "midi": 77,
                    "time": 77.54101849999984,
                    "velocity": 0.4015748031496063,
                    "duration": 0.16393449999999632
                },
                {
                    "name": "A4",
                    "midi": 69,
                    "time": 77.70495299999983,
                    "velocity": 0.30708661417322836,
                    "duration": 0.6557379999999853
                },
                {
                    "name": "G5",
                    "midi": 79,
                    "time": 77.70495299999983,
                    "velocity": 0.4015748031496063,
                    "duration": 0.16393449999999632
                },
                {
                    "name": "A5",
                    "midi": 81,
                    "time": 77.86888749999983,
                    "velocity": 0.4015748031496063,
                    "duration": 0.13661208333333263
                },
                {
                    "name": "D5",
                    "midi": 74,
                    "time": 78.03282199999983,
                    "velocity": 0.41732283464566927,
                    "duration": 0.16393449999999632
                },
                {
                    "name": "E5",
                    "midi": 76,
                    "time": 78.19675649999982,
                    "velocity": 0.3858267716535433,
                    "duration": 0.16393449999999632
                },
                {
                    "name": "F5",
                    "midi": 77,
                    "time": 78.36069099999982,
                    "velocity": 0.3858267716535433,
                    "duration": 0.16393449999999632
                },
                {
                    "name": "G4",
                    "midi": 67,
                    "time": 78.36069099999982,
                    "velocity": 0.30708661417322836,
                    "duration": 0.6557379999999853
                },
                {
                    "name": "G5",
                    "midi": 79,
                    "time": 78.52462549999981,
                    "velocity": 0.3858267716535433,
                    "duration": 0.13661208333333263
                },
                {
                    "name": "C5",
                    "midi": 72,
                    "time": 78.68855999999981,
                    "velocity": 0.41732283464566927,
                    "duration": 0.16393449999999632
                },
                {
                    "name": "D5",
                    "midi": 74,
                    "time": 78.8524944999998,
                    "velocity": 0.4094488188976378,
                    "duration": 0.16393449999999632
                },
                {
                    "name": "E5",
                    "midi": 76,
                    "time": 79.0164289999998,
                    "velocity": 0.4094488188976378,
                    "duration": 0.16393449999999632
                },
                {
                    "name": "F4",
                    "midi": 65,
                    "time": 79.0164289999998,
                    "velocity": 0.30708661417322836,
                    "duration": 0.6557379999999995
                },
                {
                    "name": "F5",
                    "midi": 77,
                    "time": 79.1803634999998,
                    "velocity": 0.4094488188976378,
                    "duration": 0.16393449999999632
                },
                {
                    "name": "B4",
                    "midi": 71,
                    "time": 79.3442979999998,
                    "velocity": 0.4409448818897638,
                    "duration": 0.7923500833333463
                },
                {
                    "name": "G4",
                    "midi": 67,
                    "time": 79.6721669999998,
                    "velocity": 0.3543307086614173,
                    "duration": 0.32786900000000685
                },
                {
                    "name": "A4",
                    "midi": 69,
                    "time": 80.00003599999981,
                    "velocity": 0.3228346456692913,
                    "duration": 0.32786899999999264
                },
                {
                    "name": "C5",
                    "midi": 72,
                    "time": 80.1639704999998,
                    "velocity": 0.4015748031496063,
                    "duration": 0.16393449999999632
                },
                {
                    "name": "G4",
                    "midi": 67,
                    "time": 80.3279049999998,
                    "velocity": 0.25984251968503935,
                    "duration": 0.32786899999999264
                },
                {
                    "name": "D5",
                    "midi": 74,
                    "time": 80.3279049999998,
                    "velocity": 0.3779527559055118,
                    "duration": 0.16393449999999632
                },
                {
                    "name": "E5",
                    "midi": 76,
                    "time": 80.4918394999998,
                    "velocity": 0.36220472440944884,
                    "duration": 0.16393449999999632
                },
                {
                    "name": "F4",
                    "midi": 65,
                    "time": 80.6557739999998,
                    "velocity": 0.3543307086614173,
                    "duration": 0.32786900000000685
                },
                {
                    "name": "A4",
                    "midi": 69,
                    "time": 80.6557739999998,
                    "velocity": 0.3543307086614173,
                    "duration": 0.9836070000000205
                },
                {
                    "name": "E4",
                    "midi": 64,
                    "time": 80.9836429999998,
                    "velocity": 0.2992125984251969,
                    "duration": 0.32786900000000685
                },
                {
                    "name": "D#4",
                    "midi": 63,
                    "time": 81.31151199999981,
                    "velocity": 0.2755905511811024,
                    "duration": 2.6229519999999837
                },
                {
                    "name": "B4",
                    "midi": 71,
                    "time": 81.63938099999982,
                    "velocity": 0.33858267716535434,
                    "duration": 0.16393449999999632
                },
                {
                    "name": "A4",
                    "midi": 69,
                    "time": 81.80331549999981,
                    "velocity": 0.33858267716535434,
                    "duration": 0.16393449999999632
                },
                {
                    "name": "G#4",
                    "midi": 68,
                    "time": 81.96724999999981,
                    "velocity": 0.3543307086614173,
                    "duration": 0.16393449999999632
                },
                {
                    "name": "A4",
                    "midi": 69,
                    "time": 82.1311844999998,
                    "velocity": 0.33858267716535434,
                    "duration": 0.16393449999999632
                },
                {
                    "name": "F#4",
                    "midi": 66,
                    "time": 82.2951189999998,
                    "velocity": 0.3543307086614173,
                    "duration": 0.16393449999999632
                },
                {
                    "name": "G#4",
                    "midi": 68,
                    "time": 82.4590534999998,
                    "velocity": 0.33858267716535434,
                    "duration": 0.16393449999999632
                },
                {
                    "name": "A4",
                    "midi": 69,
                    "time": 82.6229879999998,
                    "velocity": 0.3543307086614173,
                    "duration": 0.30054658333332895
                },
                {
                    "name": "B4",
                    "midi": 71,
                    "time": 82.95085699999979,
                    "velocity": 0.33858267716535434,
                    "duration": 0.16393449999999632
                },
                {
                    "name": "A4",
                    "midi": 69,
                    "time": 83.11479149999978,
                    "velocity": 0.33858267716535434,
                    "duration": 0.16393449999999632
                },
                {
                    "name": "F#4",
                    "midi": 66,
                    "time": 83.27872599999978,
                    "velocity": 0.3543307086614173,
                    "duration": 0.32786900000000685
                },
                {
                    "name": "G#4",
                    "midi": 68,
                    "time": 83.60659499999979,
                    "velocity": 0.33858267716535434,
                    "duration": 0.32786900000000685
                },
                {
                    "name": "A4",
                    "midi": 69,
                    "time": 83.93446399999979,
                    "velocity": 0.2125984251968504,
                    "duration": 2.6229519999999695
                },
                {
                    "name": "A3",
                    "midi": 57,
                    "time": 83.93446399999979,
                    "velocity": 0.1732283464566929,
                    "duration": 2.6229519999999695
                },
                {
                    "name": "E4",
                    "midi": 64,
                    "time": 83.93446399999979,
                    "velocity": 0.33858267716535434,
                    "duration": 0.30054658333332895
                },
                {
                    "name": "F#4",
                    "midi": 66,
                    "time": 84.26233299999978,
                    "velocity": 0.2992125984251969,
                    "duration": 0.16393449999999632
                },
                {
                    "name": "E4",
                    "midi": 64,
                    "time": 84.42626749999978,
                    "velocity": 0.2992125984251969,
                    "duration": 0.16393449999999632
                },
                {
                    "name": "C4",
                    "midi": 60,
                    "time": 84.59020199999978,
                    "velocity": 0.2992125984251969,
                    "duration": 0.16393449999999632
                },
                {
                    "name": "D4",
                    "midi": 62,
                    "time": 84.75413649999977,
                    "velocity": 0.29133858267716534,
                    "duration": 0.16393449999999632
                },
                {
                    "name": "E4",
                    "midi": 64,
                    "time": 84.91807099999977,
                    "velocity": 0.28346456692913385,
                    "duration": 0.6284155833333358
                },
                {
                    "name": "F#4",
                    "midi": 66,
                    "time": 85.57380899999977,
                    "velocity": 0.2992125984251969,
                    "duration": 0.16393449999999632
                },
                {
                    "name": "E4",
                    "midi": 64,
                    "time": 85.73774349999977,
                    "velocity": 0.2992125984251969,
                    "duration": 0.16393449999999632
                },
                {
                    "name": "C4",
                    "midi": 60,
                    "time": 85.90167799999976,
                    "velocity": 0.2992125984251969,
                    "duration": 0.16393449999999632
                },
                {
                    "name": "D4",
                    "midi": 62,
                    "time": 86.06561249999976,
                    "velocity": 0.29133858267716534,
                    "duration": 0.16393449999999632
                },
                {
                    "name": "E4",
                    "midi": 64,
                    "time": 86.22954699999976,
                    "velocity": 0.28346456692913385,
                    "duration": 0.6420767916666676
                },
                {
                    "name": "A#3",
                    "midi": 58,
                    "time": 86.55741599999976,
                    "velocity": 0.1968503937007874,
                    "duration": 2.6229519999999695
                },
                {
                    "name": "F#4",
                    "midi": 66,
                    "time": 86.88528499999975,
                    "velocity": 0.29133858267716534,
                    "duration": 0.16393449999999632
                },
                {
                    "name": "E4",
                    "midi": 64,
                    "time": 87.04921949999975,
                    "velocity": 0.29133858267716534,
                    "duration": 0.16393449999999632
                },
                {
                    "name": "C4",
                    "midi": 60,
                    "time": 87.21315399999975,
                    "velocity": 0.29133858267716534,
                    "duration": 0.16393449999999632
                },
                {
                    "name": "D4",
                    "midi": 62,
                    "time": 87.37708849999974,
                    "velocity": 0.2755905511811024,
                    "duration": 0.16393449999999632
                },
                {
                    "name": "E4",
                    "midi": 64,
                    "time": 87.54102299999974,
                    "velocity": 0.2677165354330709,
                    "duration": 0.6284155833333358
                },
                {
                    "name": "F#4",
                    "midi": 66,
                    "time": 88.19676099999974,
                    "velocity": 0.2755905511811024,
                    "duration": 0.16393449999999632
                },
                {
                    "name": "E4",
                    "midi": 64,
                    "time": 88.36069549999974,
                    "velocity": 0.2755905511811024,
                    "duration": 0.16393449999999632
                },
                {
                    "name": "C4",
                    "midi": 60,
                    "time": 88.52462999999973,
                    "velocity": 0.2677165354330709,
                    "duration": 0.16393449999999632
                },
                {
                    "name": "D4",
                    "midi": 62,
                    "time": 88.68856449999973,
                    "velocity": 0.2440944881889764,
                    "duration": 0.16393449999999632
                },
                {
                    "name": "E4",
                    "midi": 64,
                    "time": 88.85249899999972,
                    "velocity": 0.2204724409448819,
                    "duration": 0.6557380000000137
                },
                {
                    "name": "D4",
                    "midi": 62,
                    "time": 89.18036799999973,
                    "velocity": 0.2992125984251969,
                    "duration": 0.24590175000000158
                },
                {
                    "name": "E4",
                    "midi": 64,
                    "time": 89.50823699999974,
                    "velocity": 0.3228346456692913,
                    "duration": 0.16393449999999632
                },
                {
                    "name": "F#4",
                    "midi": 66,
                    "time": 89.67217149999973,
                    "velocity": 0.3228346456692913,
                    "duration": 0.08196725000000527
                },
                {
                    "name": "G#4",
                    "midi": 68,
                    "time": 89.83610599999975,
                    "velocity": 0.3228346456692913,
                    "duration": 0.08196725000000527
                },
                {
                    "name": "A4",
                    "midi": 69,
                    "time": 90.00004049999976,
                    "velocity": 0.3228346456692913,
                    "duration": 0.08196725000000527
                },
                {
                    "name": "B4",
                    "midi": 71,
                    "time": 90.16397499999977,
                    "velocity": 0.3228346456692913,
                    "duration": 0.08196725000000527
                },
                {
                    "name": "C5",
                    "midi": 72,
                    "time": 90.32790949999978,
                    "velocity": 0.3228346456692913,
                    "duration": 0.08196725000000527
                },
                {
                    "name": "D5",
                    "midi": 74,
                    "time": 90.49184399999979,
                    "velocity": 0.30708661417322836,
                    "duration": 0.08196725000000527
                },
                {
                    "name": "E5",
                    "midi": 76,
                    "time": 90.6557784999998,
                    "velocity": 0.30708661417322836,
                    "duration": 0.08196725000000527
                },
                {
                    "name": "F#5",
                    "midi": 78,
                    "time": 90.81971299999981,
                    "velocity": 0.2992125984251969,
                    "duration": 0.08196725000000527
                },
                {
                    "name": "G#5",
                    "midi": 80,
                    "time": 90.98364749999982,
                    "velocity": 0.29133858267716534,
                    "duration": 0.08196725000000527
                },
                {
                    "name": "A5",
                    "midi": 81,
                    "time": 91.14758199999983,
                    "velocity": 0.29133858267716534,
                    "duration": 0.08196725000000527
                },
                {
                    "name": "B5",
                    "midi": 83,
                    "time": 91.31151649999984,
                    "velocity": 0.28346456692913385,
                    "duration": 0.08196725000000527
                },
                {
                    "name": "C6",
                    "midi": 84,
                    "time": 91.47545099999985,
                    "velocity": 0.2755905511811024,
                    "duration": 0.08196725000000527
                },
                {
                    "name": "D6",
                    "midi": 86,
                    "time": 91.63938549999986,
                    "velocity": 0.2755905511811024,
                    "duration": 0.08196725000000527
                },
                {
                    "name": "E6",
                    "midi": 88,
                    "time": 91.80331999999987,
                    "velocity": 0.3543307086614173,
                    "duration": 0.32786900000000685
                },
                {
                    "name": "E5",
                    "midi": 76,
                    "time": 91.80331999999987,
                    "velocity": 0.23622047244094488,
                    "duration": 1.9672140000000127
                },
                {
                    "name": "B5",
                    "midi": 83,
                    "time": 92.13118899999988,
                    "velocity": 0.3228346456692913,
                    "duration": 0.6557379999999995
                },
                {
                    "name": "A5",
                    "midi": 81,
                    "time": 92.78692699999988,
                    "velocity": 0.3543307086614173,
                    "duration": 0.6557379999999995
                },
                {
                    "name": "E5",
                    "midi": 76,
                    "time": 93.44266499999988,
                    "velocity": 0.33070866141732286,
                    "duration": 0.32786900000000685
                },
                {
                    "name": "B4",
                    "midi": 71,
                    "time": 93.77053399999988,
                    "velocity": 0.30708661417322836,
                    "duration": 0.08196725000000527
                },
                {
                    "name": "F4",
                    "midi": 65,
                    "time": 93.77053399999988,
                    "velocity": 0.30708661417322836,
                    "duration": 0.32786900000002106
                },
                {
                    "name": "A4",
                    "midi": 69,
                    "time": 93.85250124999989,
                    "velocity": 0.30708661417322836,
                    "duration": 0.08196725000000527
                },
                {
                    "name": "B4",
                    "midi": 71,
                    "time": 93.9344684999999,
                    "velocity": 0.30708661417322836,
                    "duration": 0.08196725000000527
                },
                {
                    "name": "D5",
                    "midi": 74,
                    "time": 94.0164357499999,
                    "velocity": 0.30708661417322836,
                    "duration": 0.08196725000000527
                },
                {
                    "name": "E5",
                    "midi": 76,
                    "time": 94.42627199999991,
                    "velocity": 0.25984251968503935,
                    "duration": 1.9672140000000127
                },
                {
                    "name": "E6",
                    "midi": 88,
                    "time": 94.42627199999991,
                    "velocity": 0.3779527559055118,
                    "duration": 0.32786900000000685
                },
                {
                    "name": "B5",
                    "midi": 83,
                    "time": 94.75414099999992,
                    "velocity": 0.33858267716535434,
                    "duration": 0.6557379999999995
                },
                {
                    "name": "A5",
                    "midi": 81,
                    "time": 95.40987899999992,
                    "velocity": 0.3543307086614173,
                    "duration": 0.6557379999999995
                },
                {
                    "name": "E5",
                    "midi": 76,
                    "time": 96.06561699999992,
                    "velocity": 0.33070866141732286,
                    "duration": 0.32786900000000685
                },
                {
                    "name": "B4",
                    "midi": 71,
                    "time": 96.39348599999992,
                    "velocity": 0.30708661417322836,
                    "duration": 0.32786900000000685
                },
                {
                    "name": "F#4",
                    "midi": 66,
                    "time": 96.39348599999992,
                    "velocity": 0.25984251968503935,
                    "duration": 0.32786900000000685
                },
                {
                    "name": "A4",
                    "midi": 69,
                    "time": 96.72135499999993,
                    "velocity": 0.30708661417322836,
                    "duration": 0.4098362500000121
                },
                {
                    "name": "F4",
                    "midi": 65,
                    "time": 97.04922399999994,
                    "velocity": 0.30708661417322836,
                    "duration": 0.32786900000002106
                },
                {
                    "name": "B4",
                    "midi": 71,
                    "time": 97.13119124999994,
                    "velocity": 0.2755905511811024,
                    "duration": 0.08196725000000527
                },
                {
                    "name": "A4",
                    "midi": 69,
                    "time": 97.21315849999995,
                    "velocity": 0.29133858267716534,
                    "duration": 0.08196725000000527
                },
                {
                    "name": "G4",
                    "midi": 67,
                    "time": 97.29512574999995,
                    "velocity": 0.30708661417322836,
                    "duration": 0.08196725000000527
                },
                {
                    "name": "C4",
                    "midi": 60,
                    "time": 97.37709299999996,
                    "velocity": 0.23622047244094488,
                    "duration": 0.6557379999999995
                },
                {
                    "name": "E4",
                    "midi": 64,
                    "time": 97.37709299999996,
                    "velocity": 0.28346456692913385,
                    "duration": 0.6557379999999995
                },
                {
                    "name": "A3",
                    "midi": 57,
                    "time": 98.03283099999996,
                    "velocity": 0.25196850393700787,
                    "duration": 1.6393450000000058
                },
                {
                    "name": "D4",
                    "midi": 62,
                    "time": 98.03283099999996,
                    "velocity": 0.2992125984251969,
                    "duration": 0.6557379999999995
                },
                {
                    "name": "E4",
                    "midi": 64,
                    "time": 98.68856899999996,
                    "velocity": 0.3228346456692913,
                    "duration": 0.32786900000000685
                },
                {
                    "name": "F4",
                    "midi": 65,
                    "time": 99.01643799999997,
                    "velocity": 0.3543307086614173,
                    "duration": 0.32786900000000685
                },
                {
                    "name": "A4",
                    "midi": 69,
                    "time": 99.34430699999997,
                    "velocity": 0.3228346456692913,
                    "duration": 0.30054658333332895
                },
                {
                    "name": "E4",
                    "midi": 64,
                    "time": 99.67217599999996,
                    "velocity": 0.2992125984251969,
                    "duration": 0.32786900000000685
                },
                {
                    "name": "B3",
                    "midi": 59,
                    "time": 99.67217599999996,
                    "velocity": 0.25196850393700787,
                    "duration": 1.311475999999999
                },
                {
                    "name": "D4",
                    "midi": 62,
                    "time": 100.00004499999997,
                    "velocity": 0.28346456692913385,
                    "duration": 0.16393449999999632
                },
                {
                    "name": "E4",
                    "midi": 64,
                    "time": 100.16397949999997,
                    "velocity": 0.2677165354330709,
                    "duration": 0.16393449999999632
                },
                {
                    "name": "D4",
                    "midi": 62,
                    "time": 100.32791399999996,
                    "velocity": 0.29133858267716534,
                    "duration": 0.27322416666666527
                },
                {
                    "name": "E4",
                    "midi": 64,
                    "time": 100.65578299999996,
                    "velocity": 0.2992125984251969,
                    "duration": 0.6557380000000137
                },
                {
                    "name": "D4",
                    "midi": 62,
                    "time": 101.31152099999997,
                    "velocity": 0.25196850393700787,
                    "duration": 0.16393449999999632
                },
                {
                    "name": "E4",
                    "midi": 64,
                    "time": 101.47545549999997,
                    "velocity": 0.23622047244094488,
                    "duration": 0.16393449999999632
                },
                {
                    "name": "D4",
                    "midi": 62,
                    "time": 101.63938999999996,
                    "velocity": 0.2440944881889764,
                    "duration": 0.27322416666666527
                },
                {
                    "name": "A3",
                    "midi": 57,
                    "time": 101.63938999999996,
                    "velocity": 0.2047244094488189,
                    "duration": 0.27322416666666527
                },
                {
                    "name": "B3",
                    "midi": 59,
                    "time": 101.96725899999996,
                    "velocity": 0.14960629921259844,
                    "duration": 0.32786900000000685
                },
                {
                    "name": "G3",
                    "midi": 55,
                    "time": 101.96725899999996,
                    "velocity": 0.14960629921259844,
                    "duration": 0.32786900000000685
                },
                {
                    "name": "E4",
                    "midi": 64,
                    "time": 101.96725899999996,
                    "velocity": 0.1889763779527559,
                    "duration": 0.32786900000000685
                },
                {
                    "name": "E6",
                    "midi": 88,
                    "time": 102.29512799999996,
                    "velocity": 0.3543307086614173,
                    "duration": 0.32786900000000685
                },
                {
                    "name": "E5",
                    "midi": 76,
                    "time": 102.29512799999996,
                    "velocity": 0.23622047244094488,
                    "duration": 1.9672140000000127
                },
                {
                    "name": "B5",
                    "midi": 83,
                    "time": 102.62299699999997,
                    "velocity": 0.33858267716535434,
                    "duration": 0.6557379999999995
                },
                {
                    "name": "A5",
                    "midi": 81,
                    "time": 103.27873499999997,
                    "velocity": 0.3543307086614173,
                    "duration": 0.6557379999999995
                },
                {
                    "name": "E5",
                    "midi": 76,
                    "time": 103.93447299999997,
                    "velocity": 0.33070866141732286,
                    "duration": 0.32786900000000685
                },
                {
                    "name": "F4",
                    "midi": 65,
                    "time": 104.26234199999998,
                    "velocity": 0.25984251968503935,
                    "duration": 0.32786900000002106
                },
                {
                    "name": "B4",
                    "midi": 71,
                    "time": 104.26234199999998,
                    "velocity": 0.30708661417322836,
                    "duration": 0.08196725000000527
                },
                {
                    "name": "A4",
                    "midi": 69,
                    "time": 104.34430924999998,
                    "velocity": 0.30708661417322836,
                    "duration": 0.08196725000000527
                },
                {
                    "name": "B4",
                    "midi": 71,
                    "time": 104.42627649999999,
                    "velocity": 0.30708661417322836,
                    "duration": 0.08196725000000527
                },
                {
                    "name": "D5",
                    "midi": 74,
                    "time": 104.50824374999999,
                    "velocity": 0.30708661417322836,
                    "duration": 0.08196725000000527
                },
                {
                    "name": "E6",
                    "midi": 88,
                    "time": 104.91808,
                    "velocity": 0.3779527559055118,
                    "duration": 0.32786900000000685
                },
                {
                    "name": "E5",
                    "midi": 76,
                    "time": 104.91808,
                    "velocity": 0.25984251968503935,
                    "duration": 1.3114760000000132
                },
                {
                    "name": "B5",
                    "midi": 83,
                    "time": 105.24594900000001,
                    "velocity": 0.33858267716535434,
                    "duration": 0.6557379999999995
                },
                {
                    "name": "A5",
                    "midi": 81,
                    "time": 105.90168700000001,
                    "velocity": 0.33858267716535434,
                    "duration": 0.32786900000000685
                },
                {
                    "name": "E4",
                    "midi": 64,
                    "time": 106.22955600000002,
                    "velocity": 0.2440944881889764,
                    "duration": 1.3114760000000132
                },
                {
                    "name": "E5",
                    "midi": 76,
                    "time": 106.22955600000002,
                    "velocity": 0.33070866141732286,
                    "duration": 0.32786900000000685
                },
                {
                    "name": "B4",
                    "midi": 71,
                    "time": 106.55742500000002,
                    "velocity": 0.29133858267716534,
                    "duration": 0.6557379999999995
                },
                {
                    "name": "A4",
                    "midi": 69,
                    "time": 107.21316300000002,
                    "velocity": 0.28346456692913385,
                    "duration": 0.6557380000000137
                },
                {
                    "name": "A3",
                    "midi": 57,
                    "time": 107.54103200000003,
                    "velocity": 0.29133858267716534,
                    "duration": 0.32786900000000685
                },
                {
                    "name": "E4",
                    "midi": 64,
                    "time": 107.86890100000004,
                    "velocity": 0.28346456692913385,
                    "duration": 0.6557379999999995
                },
                {
                    "name": "B3",
                    "midi": 59,
                    "time": 107.86890100000004,
                    "velocity": 0.1968503937007874,
                    "duration": 0.9836070000000063
                },
                {
                    "name": "D4",
                    "midi": 62,
                    "time": 108.52463900000004,
                    "velocity": 0.2755905511811024,
                    "duration": 0.4098362500000121
                },
                {
                    "name": "A3",
                    "midi": 57,
                    "time": 108.85250800000004,
                    "velocity": 0.25196850393700787,
                    "duration": 0.32786900000002106
                },
                {
                    "name": "C4",
                    "midi": 60,
                    "time": 108.93447525000005,
                    "velocity": 0.25196850393700787,
                    "duration": 0.08196725000000527
                },
                {
                    "name": "D4",
                    "midi": 62,
                    "time": 109.01644250000005,
                    "velocity": 0.25196850393700787,
                    "duration": 0.08196725000000527
                },
                {
                    "name": "E4",
                    "midi": 64,
                    "time": 109.09840975000006,
                    "velocity": 0.25196850393700787,
                    "duration": 0.08196725000000527
                },
                {
                    "name": "F3",
                    "midi": 53,
                    "time": 109.18037700000006,
                    "velocity": 0.1889763779527559,
                    "duration": 0.6557379999999995
                },
                {
                    "name": "A3",
                    "midi": 57,
                    "time": 109.18037700000006,
                    "velocity": 0.2677165354330709,
                    "duration": 0.6557379999999995
                },
                {
                    "name": "B3",
                    "midi": 59,
                    "time": 109.83611500000006,
                    "velocity": 0.25196850393700787,
                    "duration": 0.32786900000000685
                },
                {
                    "name": "E3",
                    "midi": 52,
                    "time": 109.83611500000006,
                    "velocity": 0.1732283464566929,
                    "duration": 0.32786900000000685
                },
                {
                    "name": "E3",
                    "midi": 52,
                    "time": 110.49185300000008,
                    "velocity": 0.1732283464566929,
                    "duration": 0.12295087500000079
                },
                {
                    "name": "A3",
                    "midi": 57,
                    "time": 110.49185300000008,
                    "velocity": 0.2125984251968504,
                    "duration": 0.12295087500000079
                },
                {
                    "name": "D3",
                    "midi": 50,
                    "time": 111.14759100000008,
                    "velocity": 0.15748031496062992,
                    "duration": 0.08196725000000527
                },
                {
                    "name": "F3",
                    "midi": 53,
                    "time": 111.14759100000008,
                    "velocity": 0.1968503937007874,
                    "duration": 0.08196725000000527
                },
                {
                    "name": "E3",
                    "midi": 52,
                    "time": 111.47546000000008,
                    "velocity": 0.1732283464566929,
                    "duration": 0.08196725000000527
                },
                {
                    "name": "A3",
                    "midi": 57,
                    "time": 111.47546000000008,
                    "velocity": 0.2125984251968504,
                    "duration": 0.08196725000000527
                },
                {
                    "name": "E3",
                    "midi": 52,
                    "time": 111.80332900000009,
                    "velocity": 0.1732283464566929,
                    "duration": 0.08196725000000527
                },
                {
                    "name": "A3",
                    "midi": 57,
                    "time": 111.80332900000009,
                    "velocity": 0.2125984251968504,
                    "duration": 0.08196725000000527
                },
                {
                    "name": "C3",
                    "midi": 48,
                    "time": 113.11480500000009,
                    "velocity": 0.28346456692913385,
                    "duration": 0.16393449999999632
                },
                {
                    "name": "D3",
                    "midi": 50,
                    "time": 113.27873950000009,
                    "velocity": 0.28346456692913385,
                    "duration": 0.16393449999999632
                },
                {
                    "name": "C3",
                    "midi": 48,
                    "time": 113.44267400000008,
                    "velocity": 0.25196850393700787,
                    "duration": 1.9672140000000269
                },
                {
                    "name": "E3",
                    "midi": 52,
                    "time": 113.44267400000008,
                    "velocity": 0.2992125984251969,
                    "duration": 0.9836070000000063
                },
                {
                    "name": "D3",
                    "midi": 50,
                    "time": 114.42628100000009,
                    "velocity": 0.25196850393700787,
                    "duration": 0.32786900000000685
                },
                {
                    "name": "F3",
                    "midi": 53,
                    "time": 114.42628100000009,
                    "velocity": 0.2992125984251969,
                    "duration": 0.32786900000000685
                },
                {
                    "name": "E3",
                    "midi": 52,
                    "time": 114.7541500000001,
                    "velocity": 0.25196850393700787,
                    "duration": 0.32786900000000685
                },
                {
                    "name": "G3",
                    "midi": 55,
                    "time": 114.7541500000001,
                    "velocity": 0.2992125984251969,
                    "duration": 0.32786900000000685
                },
                {
                    "name": "A3",
                    "midi": 57,
                    "time": 115.0820190000001,
                    "velocity": 0.25196850393700787,
                    "duration": 0.32786900000000685
                },
                {
                    "name": "F3",
                    "midi": 53,
                    "time": 115.0820190000001,
                    "velocity": 0.2992125984251969,
                    "duration": 0.32786900000000685
                },
                {
                    "name": "G3",
                    "midi": 55,
                    "time": 115.40988800000011,
                    "velocity": 0.28346456692913385,
                    "duration": 0.32786900000000685
                },
                {
                    "name": "C3",
                    "midi": 48,
                    "time": 115.40988800000011,
                    "velocity": 0.28346456692913385,
                    "duration": 0.6557380000000137
                },
                {
                    "name": "A#3",
                    "midi": 58,
                    "time": 115.40988800000011,
                    "velocity": 0.28346456692913385,
                    "duration": 0.32786900000000685
                },
                {
                    "name": "A3",
                    "midi": 57,
                    "time": 115.73775700000012,
                    "velocity": 0.29133858267716534,
                    "duration": 0.32786900000000685
                },
                {
                    "name": "C4",
                    "midi": 60,
                    "time": 115.73775700000012,
                    "velocity": 0.29133858267716534,
                    "duration": 0.32786900000000685
                },
                {
                    "name": "D4",
                    "midi": 62,
                    "time": 116.06562600000012,
                    "velocity": 0.2992125984251969,
                    "duration": 0.32786900000000685
                },
                {
                    "name": "F3",
                    "midi": 53,
                    "time": 116.06562600000012,
                    "velocity": 0.25196850393700787,
                    "duration": 0.32786900000000685
                },
                {
                    "name": "A#3",
                    "midi": 58,
                    "time": 116.06562600000012,
                    "velocity": 0.25196850393700787,
                    "duration": 0.32786900000000685
                },
                {
                    "name": "F4",
                    "midi": 65,
                    "time": 116.39349500000013,
                    "velocity": 0.3228346456692913,
                    "duration": 0.32786900000000685
                },
                {
                    "name": "A3",
                    "midi": 57,
                    "time": 116.39349500000013,
                    "velocity": 0.2755905511811024,
                    "duration": 0.32786900000000685
                },
                {
                    "name": "C4",
                    "midi": 60,
                    "time": 116.39349500000013,
                    "velocity": 0.2755905511811024,
                    "duration": 0.32786900000000685
                },
                {
                    "name": "G4",
                    "midi": 67,
                    "time": 116.72136400000014,
                    "velocity": 0.33070866141732286,
                    "duration": 0.3142077916666608
                },
                {
                    "name": "A#3",
                    "midi": 58,
                    "time": 116.72136400000014,
                    "velocity": 0.2755905511811024,
                    "duration": 0.3142077916666608
                },
                {
                    "name": "D4",
                    "midi": 62,
                    "time": 116.72136400000014,
                    "velocity": 0.2755905511811024,
                    "duration": 0.3142077916666608
                },
                {
                    "name": "F4",
                    "midi": 65,
                    "time": 117.04923300000013,
                    "velocity": 0.2992125984251969,
                    "duration": 0.6557379999999995
                },
                {
                    "name": "A3",
                    "midi": 57,
                    "time": 117.04923300000013,
                    "velocity": 0.25196850393700787,
                    "duration": 0.6557379999999995
                },
                {
                    "name": "C4",
                    "midi": 60,
                    "time": 117.04923300000013,
                    "velocity": 0.25196850393700787,
                    "duration": 0.6557379999999995
                },
                {
                    "name": "A#3",
                    "midi": 58,
                    "time": 117.70497100000013,
                    "velocity": 0.23622047244094488,
                    "duration": 0.32786900000000685
                },
                {
                    "name": "F3",
                    "midi": 53,
                    "time": 117.70497100000013,
                    "velocity": 0.23622047244094488,
                    "duration": 0.32786900000000685
                },
                {
                    "name": "D4",
                    "midi": 62,
                    "time": 117.70497100000013,
                    "velocity": 0.28346456692913385,
                    "duration": 0.32786900000000685
                },
                {
                    "name": "C3",
                    "midi": 48,
                    "time": 118.36070900000014,
                    "velocity": 0.28346456692913385,
                    "duration": 0.16393449999999632
                },
                {
                    "name": "D3",
                    "midi": 50,
                    "time": 118.52464350000014,
                    "velocity": 0.28346456692913385,
                    "duration": 0.16393449999999632
                },
                {
                    "name": "E3",
                    "midi": 52,
                    "time": 118.68857800000013,
                    "velocity": 0.2992125984251969,
                    "duration": 0.9836070000000063
                },
                {
                    "name": "C3",
                    "midi": 48,
                    "time": 118.68857800000013,
                    "velocity": 0.25196850393700787,
                    "duration": 1.9672140000000269
                },
                {
                    "name": "F3",
                    "midi": 53,
                    "time": 119.67218500000014,
                    "velocity": 0.2992125984251969,
                    "duration": 0.32786900000000685
                },
                {
                    "name": "D3",
                    "midi": 50,
                    "time": 119.67218500000014,
                    "velocity": 0.2992125984251969,
                    "duration": 0.32786900000000685
                },
                {
                    "name": "G3",
                    "midi": 55,
                    "time": 120.00005400000015,
                    "velocity": 0.2992125984251969,
                    "duration": 0.32786900000000685
                },
                {
                    "name": "E3",
                    "midi": 52,
                    "time": 120.00005400000015,
                    "velocity": 0.2992125984251969,
                    "duration": 0.32786900000000685
                },
                {
                    "name": "A3",
                    "midi": 57,
                    "time": 120.32792300000015,
                    "velocity": 0.2992125984251969,
                    "duration": 0.32786900000000685
                },
                {
                    "name": "F3",
                    "midi": 53,
                    "time": 120.32792300000015,
                    "velocity": 0.2992125984251969,
                    "duration": 0.32786900000000685
                },
                {
                    "name": "G3",
                    "midi": 55,
                    "time": 120.65579200000016,
                    "velocity": 0.23622047244094488,
                    "duration": 0.32786900000000685
                },
                {
                    "name": "C3",
                    "midi": 48,
                    "time": 120.65579200000016,
                    "velocity": 0.28346456692913385,
                    "duration": 0.6557380000000137
                },
                {
                    "name": "A#3",
                    "midi": 58,
                    "time": 120.65579200000016,
                    "velocity": 0.28346456692913385,
                    "duration": 0.32786900000000685
                },
                {
                    "name": "A3",
                    "midi": 57,
                    "time": 120.98366100000017,
                    "velocity": 0.2440944881889764,
                    "duration": 0.32786900000000685
                },
                {
                    "name": "C4",
                    "midi": 60,
                    "time": 120.98366100000017,
                    "velocity": 0.29133858267716534,
                    "duration": 0.32786900000000685
                },
                {
                    "name": "A#3",
                    "midi": 58,
                    "time": 121.31153000000018,
                    "velocity": 0.2677165354330709,
                    "duration": 0.32786900000000685
                },
                {
                    "name": "F3",
                    "midi": 53,
                    "time": 121.31153000000018,
                    "velocity": 0.2677165354330709,
                    "duration": 0.32786900000000685
                },
                {
                    "name": "D4",
                    "midi": 62,
                    "time": 121.31153000000018,
                    "velocity": 0.31496062992125984,
                    "duration": 0.32786900000000685
                },
                {
                    "name": "C4",
                    "midi": 60,
                    "time": 121.63939900000018,
                    "velocity": 0.2755905511811024,
                    "duration": 0.32786900000000685
                },
                {
                    "name": "A3",
                    "midi": 57,
                    "time": 121.63939900000018,
                    "velocity": 0.2755905511811024,
                    "duration": 0.32786900000000685
                },
                {
                    "name": "F4",
                    "midi": 65,
                    "time": 121.63939900000018,
                    "velocity": 0.33070866141732286,
                    "duration": 0.32786900000000685
                },
                {
                    "name": "D4",
                    "midi": 62,
                    "time": 121.96726800000019,
                    "velocity": 0.28346456692913385,
                    "duration": 0.3142077916666608
                },
                {
                    "name": "G4",
                    "midi": 67,
                    "time": 121.96726800000019,
                    "velocity": 0.3464566929133858,
                    "duration": 0.3142077916666608
                },
                {
                    "name": "A#3",
                    "midi": 58,
                    "time": 121.96726800000019,
                    "velocity": 0.28346456692913385,
                    "duration": 0.3142077916666608
                },
                {
                    "name": "F4",
                    "midi": 65,
                    "time": 122.29513700000018,
                    "velocity": 0.30708661417322836,
                    "duration": 0.6557379999999995
                },
                {
                    "name": "A3",
                    "midi": 57,
                    "time": 122.29513700000018,
                    "velocity": 0.25984251968503935,
                    "duration": 0.6557379999999995
                },
                {
                    "name": "C4",
                    "midi": 60,
                    "time": 122.29513700000018,
                    "velocity": 0.25984251968503935,
                    "duration": 0.6557379999999995
                },
                {
                    "name": "D4",
                    "midi": 62,
                    "time": 122.95087500000018,
                    "velocity": 0.25984251968503935,
                    "duration": 0.3142077916666608
                },
                {
                    "name": "G4",
                    "midi": 67,
                    "time": 122.95087500000018,
                    "velocity": 0.30708661417322836,
                    "duration": 0.3142077916666608
                },
                {
                    "name": "A#3",
                    "midi": 58,
                    "time": 122.95087500000018,
                    "velocity": 0.25984251968503935,
                    "duration": 0.3142077916666608
                },
                {
                    "name": "F4",
                    "midi": 65,
                    "time": 123.60661300000018,
                    "velocity": 0.30708661417322836,
                    "duration": 0.16393449999999632
                },
                {
                    "name": "G4",
                    "midi": 67,
                    "time": 123.77054750000018,
                    "velocity": 0.30708661417322836,
                    "duration": 0.16393449999999632
                },
                {
                    "name": "A4",
                    "midi": 69,
                    "time": 123.93448200000017,
                    "velocity": 0.33070866141732286,
                    "duration": 0.9836070000000063
                },
                {
                    "name": "F4",
                    "midi": 65,
                    "time": 123.93448200000017,
                    "velocity": 0.2755905511811024,
                    "duration": 1.9672140000000269
                },
                {
                    "name": "A#4",
                    "midi": 70,
                    "time": 124.91808900000018,
                    "velocity": 0.33070866141732286,
                    "duration": 0.32786900000000685
                },
                {
                    "name": "G4",
                    "midi": 67,
                    "time": 124.91808900000018,
                    "velocity": 0.2755905511811024,
                    "duration": 0.32786900000000685
                },
                {
                    "name": "C5",
                    "midi": 72,
                    "time": 125.24595800000019,
                    "velocity": 0.33070866141732286,
                    "duration": 0.32786900000000685
                },
                {
                    "name": "A4",
                    "midi": 69,
                    "time": 125.24595800000019,
                    "velocity": 0.2755905511811024,
                    "duration": 0.32786900000000685
                },
                {
                    "name": "D5",
                    "midi": 74,
                    "time": 125.5738270000002,
                    "velocity": 0.33070866141732286,
                    "duration": 0.32786900000000685
                },
                {
                    "name": "A#4",
                    "midi": 70,
                    "time": 125.5738270000002,
                    "velocity": 0.2755905511811024,
                    "duration": 0.32786900000000685
                },
                {
                    "name": "C5",
                    "midi": 72,
                    "time": 125.9016960000002,
                    "velocity": 0.25984251968503935,
                    "duration": 0.32786900000000685
                },
                {
                    "name": "F4",
                    "midi": 65,
                    "time": 125.9016960000002,
                    "velocity": 0.23622047244094488,
                    "duration": 0.6557380000000137
                },
                {
                    "name": "D#5",
                    "midi": 75,
                    "time": 125.9016960000002,
                    "velocity": 0.30708661417322836,
                    "duration": 0.32786900000000685
                },
                {
                    "name": "D5",
                    "midi": 74,
                    "time": 126.2295650000002,
                    "velocity": 0.2755905511811024,
                    "duration": 0.32786900000000685
                },
                {
                    "name": "F5",
                    "midi": 77,
                    "time": 126.2295650000002,
                    "velocity": 0.3228346456692913,
                    "duration": 0.32786900000000685
                },
                {
                    "name": "C5",
                    "midi": 72,
                    "time": 126.55743400000021,
                    "velocity": 0.23622047244094488,
                    "duration": 0.6557380000000137
                },
                {
                    "name": "D#5",
                    "midi": 75,
                    "time": 126.55743400000021,
                    "velocity": 0.2755905511811024,
                    "duration": 0.32786900000000685
                },
                {
                    "name": "G5",
                    "midi": 79,
                    "time": 126.55743400000021,
                    "velocity": 0.33070866141732286,
                    "duration": 0.32786900000000685
                },
                {
                    "name": "G5",
                    "midi": 79,
                    "time": 126.88530300000022,
                    "velocity": 0.30708661417322836,
                    "duration": 0.32786900000000685
                },
                {
                    "name": "A#5",
                    "midi": 82,
                    "time": 126.88530300000022,
                    "velocity": 0.36220472440944884,
                    "duration": 0.32786900000000685
                },
                {
                    "name": "C5",
                    "midi": 72,
                    "time": 127.21317200000023,
                    "velocity": 0.25196850393700787,
                    "duration": 0.6557380000000137
                },
                {
                    "name": "A5",
                    "midi": 81,
                    "time": 127.21317200000023,
                    "velocity": 0.3858267716535433,
                    "duration": 0.32786900000000685
                },
                {
                    "name": "C6",
                    "midi": 84,
                    "time": 127.21317200000023,
                    "velocity": 0.3858267716535433,
                    "duration": 0.32786900000000685
                },
                {
                    "name": "A5",
                    "midi": 81,
                    "time": 127.54104100000023,
                    "velocity": 0.36220472440944884,
                    "duration": 0.32786900000000685
                },
                {
                    "name": "F5",
                    "midi": 77,
                    "time": 127.54104100000023,
                    "velocity": 0.36220472440944884,
                    "duration": 0.32786900000000685
                },
                {
                    "name": "D#5",
                    "midi": 75,
                    "time": 127.86891000000024,
                    "velocity": 0.33858267716535434,
                    "duration": 0.32786900000000685
                },
                {
                    "name": "C5",
                    "midi": 72,
                    "time": 127.86891000000024,
                    "velocity": 0.2125984251968504,
                    "duration": 0.6557379999999995
                },
                {
                    "name": "G5",
                    "midi": 79,
                    "time": 127.86891000000024,
                    "velocity": 0.33858267716535434,
                    "duration": 0.32786900000000685
                },
                {
                    "name": "C5",
                    "midi": 72,
                    "time": 128.19677900000025,
                    "velocity": 0.2755905511811024,
                    "duration": 0.32786899999999264
                },
                {
                    "name": "D#5",
                    "midi": 75,
                    "time": 128.19677900000025,
                    "velocity": 0.3228346456692913,
                    "duration": 0.32786899999999264
                },
                {
                    "name": "F4",
                    "midi": 65,
                    "time": 128.85251700000023,
                    "velocity": 0.30708661417322836,
                    "duration": 0.16393450000001053
                },
                {
                    "name": "G4",
                    "midi": 67,
                    "time": 129.01645150000024,
                    "velocity": 0.30708661417322836,
                    "duration": 0.16393450000001053
                },
                {
                    "name": "F4",
                    "midi": 65,
                    "time": 129.18038600000025,
                    "velocity": 0.2755905511811024,
                    "duration": 1.9672139999999843
                },
                {
                    "name": "A4",
                    "midi": 69,
                    "time": 129.18038600000025,
                    "velocity": 0.33070866141732286,
                    "duration": 0.9562845833333427
                },
                {
                    "name": "A#4",
                    "midi": 70,
                    "time": 130.16399300000026,
                    "velocity": 0.33070866141732286,
                    "duration": 0.32786899999999264
                },
                {
                    "name": "G4",
                    "midi": 67,
                    "time": 130.16399300000026,
                    "velocity": 0.2755905511811024,
                    "duration": 0.32786899999999264
                },
                {
                    "name": "C5",
                    "midi": 72,
                    "time": 130.49186200000025,
                    "velocity": 0.33070866141732286,
                    "duration": 0.32786899999999264
                },
                {
                    "name": "A4",
                    "midi": 69,
                    "time": 130.49186200000025,
                    "velocity": 0.2755905511811024,
                    "duration": 0.32786899999999264
                },
                {
                    "name": "A#4",
                    "midi": 70,
                    "time": 130.81973100000025,
                    "velocity": 0.2755905511811024,
                    "duration": 0.32786899999999264
                },
                {
                    "name": "D5",
                    "midi": 74,
                    "time": 130.81973100000025,
                    "velocity": 0.33070866141732286,
                    "duration": 0.32786899999999264
                },
                {
                    "name": "D#5",
                    "midi": 75,
                    "time": 131.14760000000024,
                    "velocity": 0.30708661417322836,
                    "duration": 0.32786899999999264
                },
                {
                    "name": "F4",
                    "midi": 65,
                    "time": 131.14760000000024,
                    "velocity": 0.23622047244094488,
                    "duration": 0.6557379999999853
                },
                {
                    "name": "C5",
                    "midi": 72,
                    "time": 131.14760000000024,
                    "velocity": 0.25984251968503935,
                    "duration": 0.32786899999999264
                },
                {
                    "name": "F5",
                    "midi": 77,
                    "time": 131.47546900000023,
                    "velocity": 0.3228346456692913,
                    "duration": 0.32786899999999264
                },
                {
                    "name": "D5",
                    "midi": 74,
                    "time": 131.47546900000023,
                    "velocity": 0.2755905511811024,
                    "duration": 0.32786899999999264
                },
                {
                    "name": "D#5",
                    "midi": 75,
                    "time": 131.80333800000022,
                    "velocity": 0.33070866141732286,
                    "duration": 0.32786899999999264
                },
                {
                    "name": "C5",
                    "midi": 72,
                    "time": 131.80333800000022,
                    "velocity": 0.23622047244094488,
                    "duration": 0.6557379999999853
                },
                {
                    "name": "G5",
                    "midi": 79,
                    "time": 131.80333800000022,
                    "velocity": 0.33070866141732286,
                    "duration": 0.32786899999999264
                },
                {
                    "name": "A#5",
                    "midi": 82,
                    "time": 132.13120700000022,
                    "velocity": 0.3700787401574803,
                    "duration": 0.32786899999999264
                },
                {
                    "name": "G5",
                    "midi": 79,
                    "time": 132.13120700000022,
                    "velocity": 0.3700787401574803,
                    "duration": 0.32786899999999264
                },
                {
                    "name": "E5",
                    "midi": 76,
                    "time": 132.4590760000002,
                    "velocity": 0.2755905511811024,
                    "duration": 1.3114759999999706
                },
                {
                    "name": "C5",
                    "midi": 72,
                    "time": 132.4590760000002,
                    "velocity": 0.2755905511811024,
                    "duration": 1.3114759999999706
                },
                {
                    "name": "C6",
                    "midi": 84,
                    "time": 132.4590760000002,
                    "velocity": 0.4094488188976378,
                    "duration": 0.30054658333332895
                },
                {
                    "name": "A5",
                    "midi": 81,
                    "time": 132.7869450000002,
                    "velocity": 0.4409448818897638,
                    "duration": 0.32786899999999264
                },
                {
                    "name": "A#5",
                    "midi": 82,
                    "time": 133.1148140000002,
                    "velocity": 0.4566929133858268,
                    "duration": 0.32786899999999264
                },
                {
                    "name": "C6",
                    "midi": 84,
                    "time": 133.4426830000002,
                    "velocity": 0.47244094488188976,
                    "duration": 0.6284155833333216
                },
                {
                    "name": "F5",
                    "midi": 77,
                    "time": 133.77055200000018,
                    "velocity": 0.49606299212598426,
                    "duration": 2.622951999999941
                },
                {
                    "name": "D5",
                    "midi": 74,
                    "time": 133.77055200000018,
                    "velocity": 0.4251968503937008,
                    "duration": 2.622951999999941
                },
                {
                    "name": "A5",
                    "midi": 81,
                    "time": 134.09842100000017,
                    "velocity": 0.4645669291338583,
                    "duration": 0.32786899999999264
                },
                {
                    "name": "A#5",
                    "midi": 82,
                    "time": 134.42629000000017,
                    "velocity": 0.47244094488188976,
                    "duration": 0.32786899999999264
                },
                {
                    "name": "C6",
                    "midi": 84,
                    "time": 134.75415900000016,
                    "velocity": 0.47244094488188976,
                    "duration": 0.6284155833333216
                },
                {
                    "name": "A5",
                    "midi": 81,
                    "time": 135.40989700000014,
                    "velocity": 0.44881889763779526,
                    "duration": 0.32786899999999264
                },
                {
                    "name": "A#5",
                    "midi": 82,
                    "time": 135.73776600000014,
                    "velocity": 0.4566929133858268,
                    "duration": 0.32786899999999264
                },
                {
                    "name": "C6",
                    "midi": 84,
                    "time": 136.06563500000013,
                    "velocity": 0.47244094488188976,
                    "duration": 0.6557379999999853
                },
                {
                    "name": "E5",
                    "midi": 76,
                    "time": 136.39350400000012,
                    "velocity": 0.36220472440944884,
                    "duration": 2.6229519999999695
                },
                {
                    "name": "C#5",
                    "midi": 73,
                    "time": 136.39350400000012,
                    "velocity": 0.30708661417322836,
                    "duration": 2.6229519999999695
                },
                {
                    "name": "A#5",
                    "midi": 82,
                    "time": 136.7213730000001,
                    "velocity": 0.41732283464566927,
                    "duration": 0.16393450000001053
                },
                {
                    "name": "A5",
                    "midi": 81,
                    "time": 136.88530750000012,
                    "velocity": 0.41732283464566927,
                    "duration": 0.16393450000001053
                },
                {
                    "name": "G5",
                    "midi": 79,
                    "time": 137.04924200000013,
                    "velocity": 0.4409448818897638,
                    "duration": 0.32786899999999264
                },
                {
                    "name": "A5",
                    "midi": 81,
                    "time": 137.37711100000013,
                    "velocity": 0.4251968503937008,
                    "duration": 0.32786899999999264
                },
                {
                    "name": "A#5",
                    "midi": 82,
                    "time": 137.70498000000012,
                    "velocity": 0.41732283464566927,
                    "duration": 0.30054658333332895
                },
                {
                    "name": "G5",
                    "midi": 79,
                    "time": 138.0328490000001,
                    "velocity": 0.4015748031496063,
                    "duration": 0.32786899999999264
                },
                {
                    "name": "A5",
                    "midi": 81,
                    "time": 138.3607180000001,
                    "velocity": 0.4015748031496063,
                    "duration": 0.32786899999999264
                },
                {
                    "name": "A#5",
                    "midi": 82,
                    "time": 138.6885870000001,
                    "velocity": 0.4015748031496063,
                    "duration": 0.32786899999999264
                },
                {
                    "name": "F5",
                    "midi": 77,
                    "time": 139.0164560000001,
                    "velocity": 0.49606299212598426,
                    "duration": 2.622951999999941
                },
                {
                    "name": "C6",
                    "midi": 84,
                    "time": 139.0164560000001,
                    "velocity": 0.47244094488188976,
                    "duration": 0.30054658333332895
                },
                {
                    "name": "D5",
                    "midi": 74,
                    "time": 139.0164560000001,
                    "velocity": 0.4251968503937008,
                    "duration": 2.622951999999941
                },
                {
                    "name": "A5",
                    "midi": 81,
                    "time": 139.34432500000008,
                    "velocity": 0.44881889763779526,
                    "duration": 0.32786899999999264
                },
                {
                    "name": "A#5",
                    "midi": 82,
                    "time": 139.67219400000008,
                    "velocity": 0.4566929133858268,
                    "duration": 0.32786899999999264
                },
                {
                    "name": "C6",
                    "midi": 84,
                    "time": 140.00006300000007,
                    "velocity": 0.47244094488188976,
                    "duration": 0.6284155833333216
                },
                {
                    "name": "A5",
                    "midi": 81,
                    "time": 140.65580100000005,
                    "velocity": 0.4251968503937008,
                    "duration": 0.32786899999999264
                },
                {
                    "name": "A#5",
                    "midi": 82,
                    "time": 140.98367000000005,
                    "velocity": 0.4251968503937008,
                    "duration": 0.32786899999999264
                },
                {
                    "name": "C6",
                    "midi": 84,
                    "time": 141.31153900000004,
                    "velocity": 0.4251968503937008,
                    "duration": 0.6284155833333216
                },
                {
                    "name": "E5",
                    "midi": 76,
                    "time": 141.63940800000003,
                    "velocity": 0.36220472440944884,
                    "duration": 2.6229519999999695
                },
                {
                    "name": "C#5",
                    "midi": 73,
                    "time": 141.63940800000003,
                    "velocity": 0.30708661417322836,
                    "duration": 2.6229519999999695
                },
                {
                    "name": "A#5",
                    "midi": 82,
                    "time": 141.96727700000002,
                    "velocity": 0.41732283464566927,
                    "duration": 0.16393450000001053
                },
                {
                    "name": "A5",
                    "midi": 81,
                    "time": 142.13121150000003,
                    "velocity": 0.41732283464566927,
                    "duration": 0.16393450000001053
                },
                {
                    "name": "G5",
                    "midi": 79,
                    "time": 142.29514600000005,
                    "velocity": 0.4409448818897638,
                    "duration": 0.32786899999999264
                },
                {
                    "name": "A5",
                    "midi": 81,
                    "time": 142.62301500000004,
                    "velocity": 0.4251968503937008,
                    "duration": 0.32786899999999264
                },
                {
                    "name": "A#5",
                    "midi": 82,
                    "time": 142.95088400000003,
                    "velocity": 0.4251968503937008,
                    "duration": 0.24590175000000158
                },
                {
                    "name": "G4",
                    "midi": 67,
                    "time": 143.27875300000002,
                    "velocity": 0.33070866141732286,
                    "duration": 0.32786899999999264
                },
                {
                    "name": "A4",
                    "midi": 69,
                    "time": 143.60662200000002,
                    "velocity": 0.2992125984251969,
                    "duration": 0.32786899999999264
                },
                {
                    "name": "A#4",
                    "midi": 70,
                    "time": 143.934491,
                    "velocity": 0.28346456692913385,
                    "duration": 0.32786899999999264
                },
                {
                    "name": "B4",
                    "midi": 71,
                    "time": 144.26236,
                    "velocity": 0.2755905511811024,
                    "duration": 0.32786899999999264
                },
                {
                    "name": "E5",
                    "midi": 76,
                    "time": 144.26236,
                    "velocity": 0.2992125984251969,
                    "duration": 2.622951999999941
                },
                {
                    "name": "C#5",
                    "midi": 73,
                    "time": 144.26236,
                    "velocity": 0.25196850393700787,
                    "duration": 2.622951999999941
                },
                {
                    "name": "G#4",
                    "midi": 68,
                    "time": 144.590229,
                    "velocity": 0.2755905511811024,
                    "duration": 0.32786899999999264
                },
                {
                    "name": "A4",
                    "midi": 69,
                    "time": 144.918098,
                    "velocity": 0.2755905511811024,
                    "duration": 0.32786899999999264
                },
                {
                    "name": "B4",
                    "midi": 71,
                    "time": 145.24596699999998,
                    "velocity": 0.28346456692913385,
                    "duration": 0.6284155833333216
                },
                {
                    "name": "G#4",
                    "midi": 68,
                    "time": 145.90170499999996,
                    "velocity": 0.2755905511811024,
                    "duration": 0.32786899999999264
                },
                {
                    "name": "A4",
                    "midi": 69,
                    "time": 146.22957399999996,
                    "velocity": 0.2755905511811024,
                    "duration": 0.32786899999999264
                },
                {
                    "name": "B4",
                    "midi": 71,
                    "time": 146.55744299999995,
                    "velocity": 0.28346456692913385,
                    "duration": 0.6557379999999853
                },
                {
                    "name": "D#5",
                    "midi": 75,
                    "time": 146.88531199999994,
                    "velocity": 0.23622047244094488,
                    "duration": 2.6229519999999695
                },
                {
                    "name": "C5",
                    "midi": 72,
                    "time": 146.88531199999994,
                    "velocity": 0.1968503937007874,
                    "duration": 2.6229519999999695
                },
                {
                    "name": "A4",
                    "midi": 69,
                    "time": 147.21318099999993,
                    "velocity": 0.2755905511811024,
                    "duration": 0.16393450000001053
                },
                {
                    "name": "G#4",
                    "midi": 68,
                    "time": 147.37711549999995,
                    "velocity": 0.2755905511811024,
                    "duration": 0.16393450000001053
                },
                {
                    "name": "F#4",
                    "midi": 66,
                    "time": 147.54104999999996,
                    "velocity": 0.2755905511811024,
                    "duration": 0.32786899999999264
                },
                {
                    "name": "G#4",
                    "midi": 68,
                    "time": 147.86891899999995,
                    "velocity": 0.28346456692913385,
                    "duration": 0.32786899999999264
                },
                {
                    "name": "A4",
                    "midi": 69,
                    "time": 148.19678799999994,
                    "velocity": 0.29133858267716534,
                    "duration": 0.30054658333332895
                },
                {
                    "name": "F#4",
                    "midi": 66,
                    "time": 148.52465699999993,
                    "velocity": 0.28346456692913385,
                    "duration": 0.32786899999999264
                },
                {
                    "name": "G#4",
                    "midi": 68,
                    "time": 148.85252599999993,
                    "velocity": 0.28346456692913385,
                    "duration": 0.32786899999999264
                },
                {
                    "name": "A4",
                    "midi": 69,
                    "time": 149.18039499999992,
                    "velocity": 0.29133858267716534,
                    "duration": 0.32786899999999264
                },
                {
                    "name": "B4",
                    "midi": 71,
                    "time": 149.5082639999999,
                    "velocity": 0.2755905511811024,
                    "duration": 0.32786899999999264
                },
                {
                    "name": "E5",
                    "midi": 76,
                    "time": 149.5082639999999,
                    "velocity": 0.2992125984251969,
                    "duration": 2.622951999999941
                },
                {
                    "name": "C#5",
                    "midi": 73,
                    "time": 149.5082639999999,
                    "velocity": 0.2992125984251969,
                    "duration": 2.622951999999941
                },
                {
                    "name": "G#4",
                    "midi": 68,
                    "time": 149.8361329999999,
                    "velocity": 0.2755905511811024,
                    "duration": 0.32786899999999264
                },
                {
                    "name": "A4",
                    "midi": 69,
                    "time": 150.1640019999999,
                    "velocity": 0.2755905511811024,
                    "duration": 0.32786899999999264
                },
                {
                    "name": "B4",
                    "midi": 71,
                    "time": 150.4918709999999,
                    "velocity": 0.28346456692913385,
                    "duration": 0.6284155833333216
                },
                {
                    "name": "G#4",
                    "midi": 68,
                    "time": 151.14760899999987,
                    "velocity": 0.2755905511811024,
                    "duration": 0.32786899999999264
                },
                {
                    "name": "A4",
                    "midi": 69,
                    "time": 151.47547799999987,
                    "velocity": 0.2755905511811024,
                    "duration": 0.32786899999999264
                },
                {
                    "name": "B4",
                    "midi": 71,
                    "time": 151.80334699999986,
                    "velocity": 0.28346456692913385,
                    "duration": 0.6557379999999853
                },
                {
                    "name": "C5",
                    "midi": 72,
                    "time": 152.13121599999985,
                    "velocity": 0.23622047244094488,
                    "duration": 2.6229519999999695
                },
                {
                    "name": "D#5",
                    "midi": 75,
                    "time": 152.13121599999985,
                    "velocity": 0.23622047244094488,
                    "duration": 2.6229519999999695
                },
                {
                    "name": "A4",
                    "midi": 69,
                    "time": 152.45908499999985,
                    "velocity": 0.2755905511811024,
                    "duration": 0.16393450000001053
                },
                {
                    "name": "G#4",
                    "midi": 68,
                    "time": 152.62301949999986,
                    "velocity": 0.2755905511811024,
                    "duration": 0.16393450000001053
                },
                {
                    "name": "F#4",
                    "midi": 66,
                    "time": 152.78695399999987,
                    "velocity": 0.2755905511811024,
                    "duration": 0.32786899999999264
                },
                {
                    "name": "G#4",
                    "midi": 68,
                    "time": 153.11482299999986,
                    "velocity": 0.28346456692913385,
                    "duration": 0.32786899999999264
                },
                {
                    "name": "A4",
                    "midi": 69,
                    "time": 153.44269199999985,
                    "velocity": 0.29133858267716534,
                    "duration": 0.30054658333332895
                },
                {
                    "name": "F#4",
                    "midi": 66,
                    "time": 153.77056099999984,
                    "velocity": 0.28346456692913385,
                    "duration": 0.32786899999999264
                },
                {
                    "name": "G#4",
                    "midi": 68,
                    "time": 154.09842999999984,
                    "velocity": 0.28346456692913385,
                    "duration": 0.32786899999999264
                },
                {
                    "name": "A4",
                    "midi": 69,
                    "time": 154.42629899999983,
                    "velocity": 0.29133858267716534,
                    "duration": 0.32786899999999264
                },
                {
                    "name": "A#5",
                    "midi": 82,
                    "time": 154.75416799999982,
                    "velocity": 0.3228346456692913,
                    "duration": 0.32786899999999264
                },
                {
                    "name": "D5",
                    "midi": 74,
                    "time": 154.75416799999982,
                    "velocity": 0.23622047244094488,
                    "duration": 0.6557379999999853
                },
                {
                    "name": "E5",
                    "midi": 76,
                    "time": 154.75416799999982,
                    "velocity": 0.23622047244094488,
                    "duration": 0.6557379999999853
                },
                {
                    "name": "A#4",
                    "midi": 70,
                    "time": 154.75416799999982,
                    "velocity": 0.2755905511811024,
                    "duration": 0.32786899999999264
                },
                {
                    "name": "G4",
                    "midi": 67,
                    "time": 155.08203699999981,
                    "velocity": 0.2440944881889764,
                    "duration": 0.32786899999999264
                },
                {
                    "name": "G5",
                    "midi": 79,
                    "time": 155.08203699999981,
                    "velocity": 0.29133858267716534,
                    "duration": 0.32786899999999264
                },
                {
                    "name": "C5",
                    "midi": 72,
                    "time": 155.4099059999998,
                    "velocity": 0.1968503937007874,
                    "duration": 0.6557379999999853
                },
                {
                    "name": "A5",
                    "midi": 81,
                    "time": 155.4099059999998,
                    "velocity": 0.29133858267716534,
                    "duration": 0.32786899999999264
                },
                {
                    "name": "A4",
                    "midi": 69,
                    "time": 155.4099059999998,
                    "velocity": 0.2440944881889764,
                    "duration": 0.32786899999999264
                },
                {
                    "name": "E5",
                    "midi": 76,
                    "time": 155.4099059999998,
                    "velocity": 0.23622047244094488,
                    "duration": 0.6557379999999853
                },
                {
                    "name": "A#5",
                    "midi": 82,
                    "time": 155.7377749999998,
                    "velocity": 0.33070866141732286,
                    "duration": 0.6557379999999853
                },
                {
                    "name": "A#4",
                    "midi": 70,
                    "time": 155.7377749999998,
                    "velocity": 0.2755905511811024,
                    "duration": 0.6557379999999853
                },
                {
                    "name": "E5",
                    "midi": 76,
                    "time": 156.0656439999998,
                    "velocity": 0.2992125984251969,
                    "duration": 0.6557379999999853
                },
                {
                    "name": "D5",
                    "midi": 74,
                    "time": 156.0656439999998,
                    "velocity": 0.25196850393700787,
                    "duration": 0.6557379999999853
                },
                {
                    "name": "G5",
                    "midi": 79,
                    "time": 156.39351299999979,
                    "velocity": 0.30708661417322836,
                    "duration": 0.32786899999999264
                },
                {
                    "name": "G4",
                    "midi": 67,
                    "time": 156.39351299999979,
                    "velocity": 0.25984251968503935,
                    "duration": 0.32786899999999264
                },
                {
                    "name": "A5",
                    "midi": 81,
                    "time": 156.72138199999978,
                    "velocity": 0.30708661417322836,
                    "duration": 0.32786899999999264
                },
                {
                    "name": "C5",
                    "midi": 72,
                    "time": 156.72138199999978,
                    "velocity": 0.2125984251968504,
                    "duration": 0.6557379999999853
                },
                {
                    "name": "E5",
                    "midi": 76,
                    "time": 156.72138199999978,
                    "velocity": 0.25196850393700787,
                    "duration": 0.6557379999999853
                },
                {
                    "name": "A4",
                    "midi": 69,
                    "time": 156.72138199999978,
                    "velocity": 0.25984251968503935,
                    "duration": 0.32786899999999264
                },
                {
                    "name": "A#5",
                    "midi": 82,
                    "time": 157.04925099999977,
                    "velocity": 0.30708661417322836,
                    "duration": 0.32786899999999264
                },
                {
                    "name": "A#4",
                    "midi": 70,
                    "time": 157.04925099999977,
                    "velocity": 0.25984251968503935,
                    "duration": 0.32786899999999264
                },
                {
                    "name": "A#4",
                    "midi": 70,
                    "time": 157.37711999999976,
                    "velocity": 0.2755905511811024,
                    "duration": 2.2950830000000337
                },
                {
                    "name": "D5",
                    "midi": 74,
                    "time": 157.37711999999976,
                    "velocity": 0.3543307086614173,
                    "duration": 0.30054658333332895
                },
                {
                    "name": "A#5",
                    "midi": 82,
                    "time": 157.37711999999976,
                    "velocity": 0.33070866141732286,
                    "duration": 2.6229520000000264
                },
                {
                    "name": "F5",
                    "midi": 77,
                    "time": 157.70498899999976,
                    "velocity": 0.3700787401574803,
                    "duration": 0.6557380000000137
                },
                {
                    "name": "E5",
                    "midi": 76,
                    "time": 158.36072699999977,
                    "velocity": 0.36220472440944884,
                    "duration": 0.16393450000001053
                },
                {
                    "name": "F5",
                    "midi": 77,
                    "time": 158.52466149999978,
                    "velocity": 0.36220472440944884,
                    "duration": 0.16393450000001053
                },
                {
                    "name": "D5",
                    "midi": 74,
                    "time": 158.6885959999998,
                    "velocity": 0.4094488188976378,
                    "duration": 0.32786899999999264
                },
                {
                    "name": "C5",
                    "midi": 72,
                    "time": 159.01646499999978,
                    "velocity": 0.3779527559055118,
                    "duration": 0.16393450000001053
                },
                {
                    "name": "D5",
                    "midi": 74,
                    "time": 159.1803994999998,
                    "velocity": 0.3779527559055118,
                    "duration": 0.16393450000001053
                },
                {
                    "name": "A#4",
                    "midi": 70,
                    "time": 159.3443339999998,
                    "velocity": 0.4251968503937008,
                    "duration": 0.6557379999999853
                },
                {
                    "name": "D5",
                    "midi": 74,
                    "time": 159.6722029999998,
                    "velocity": 0.4094488188976378,
                    "duration": 0.32786899999999264
                },
                {
                    "name": "A#4",
                    "midi": 70,
                    "time": 160.0000719999998,
                    "velocity": 0.31496062992125984,
                    "duration": 0.32786899999999264
                },
                {
                    "name": "D5",
                    "midi": 74,
                    "time": 160.0000719999998,
                    "velocity": 0.28346456692913385,
                    "duration": 0.6557379999999853
                },
                {
                    "name": "E5",
                    "midi": 76,
                    "time": 160.0000719999998,
                    "velocity": 0.28346456692913385,
                    "duration": 0.6557379999999853
                },
                {
                    "name": "A#5",
                    "midi": 82,
                    "time": 160.0000719999998,
                    "velocity": 0.3779527559055118,
                    "duration": 0.32786899999999264
                },
                {
                    "name": "G5",
                    "midi": 79,
                    "time": 160.32794099999978,
                    "velocity": 0.3543307086614173,
                    "duration": 0.32786899999999264
                },
                {
                    "name": "G4",
                    "midi": 67,
                    "time": 160.32794099999978,
                    "velocity": 0.29133858267716534,
                    "duration": 0.32786899999999264
                },
                {
                    "name": "E5",
                    "midi": 76,
                    "time": 160.65580999999978,
                    "velocity": 0.28346456692913385,
                    "duration": 0.6557379999999853
                },
                {
                    "name": "C5",
                    "midi": 72,
                    "time": 160.65580999999978,
                    "velocity": 0.23622047244094488,
                    "duration": 0.6557379999999853
                },
                {
                    "name": "A5",
                    "midi": 81,
                    "time": 160.65580999999978,
                    "velocity": 0.3543307086614173,
                    "duration": 0.32786899999999264
                },
                {
                    "name": "A4",
                    "midi": 69,
                    "time": 160.65580999999978,
                    "velocity": 0.29133858267716534,
                    "duration": 0.32786899999999264
                },
                {
                    "name": "A#5",
                    "midi": 82,
                    "time": 160.98367899999977,
                    "velocity": 0.3858267716535433,
                    "duration": 0.6557379999999853
                },
                {
                    "name": "A#4",
                    "midi": 70,
                    "time": 160.98367899999977,
                    "velocity": 0.3228346456692913,
                    "duration": 0.6557379999999853
                },
                {
                    "name": "E5",
                    "midi": 76,
                    "time": 161.31154799999976,
                    "velocity": 0.3779527559055118,
                    "duration": 0.6557379999999853
                },
                {
                    "name": "D5",
                    "midi": 74,
                    "time": 161.31154799999976,
                    "velocity": 0.31496062992125984,
                    "duration": 0.6557379999999853
                },
                {
                    "name": "G5",
                    "midi": 79,
                    "time": 161.63941699999975,
                    "velocity": 0.36220472440944884,
                    "duration": 0.32786899999999264
                },
                {
                    "name": "G4",
                    "midi": 67,
                    "time": 161.63941699999975,
                    "velocity": 0.30708661417322836,
                    "duration": 0.32786899999999264
                },
                {
                    "name": "E5",
                    "midi": 76,
                    "time": 161.96728599999975,
                    "velocity": 0.2992125984251969,
                    "duration": 0.6557379999999853
                },
                {
                    "name": "C5",
                    "midi": 72,
                    "time": 161.96728599999975,
                    "velocity": 0.25196850393700787,
                    "duration": 0.6557379999999853
                },
                {
                    "name": "A5",
                    "midi": 81,
                    "time": 161.96728599999975,
                    "velocity": 0.36220472440944884,
                    "duration": 0.32786899999999264
                },
                {
                    "name": "A4",
                    "midi": 69,
                    "time": 161.96728599999975,
                    "velocity": 0.30708661417322836,
                    "duration": 0.32786899999999264
                },
                {
                    "name": "A#5",
                    "midi": 82,
                    "time": 162.29515499999974,
                    "velocity": 0.36220472440944884,
                    "duration": 0.32786899999999264
                },
                {
                    "name": "A#4",
                    "midi": 70,
                    "time": 162.29515499999974,
                    "velocity": 0.30708661417322836,
                    "duration": 0.32786899999999264
                },
                {
                    "name": "A#4",
                    "midi": 70,
                    "time": 162.62302399999973,
                    "velocity": 0.3228346456692913,
                    "duration": 2.2950830000000337
                },
                {
                    "name": "D5",
                    "midi": 74,
                    "time": 162.62302399999973,
                    "velocity": 0.4251968503937008,
                    "duration": 0.30054658333332895
                },
                {
                    "name": "A#5",
                    "midi": 82,
                    "time": 162.62302399999973,
                    "velocity": 0.3858267716535433,
                    "duration": 2.6229520000000264
                },
                {
                    "name": "F5",
                    "midi": 77,
                    "time": 162.95089299999972,
                    "velocity": 0.4566929133858268,
                    "duration": 0.6557380000000137
                },
                {
                    "name": "E5",
                    "midi": 76,
                    "time": 163.60663099999974,
                    "velocity": 0.44881889763779526,
                    "duration": 0.16393450000001053
                },
                {
                    "name": "F5",
                    "midi": 77,
                    "time": 163.77056549999975,
                    "velocity": 0.44881889763779526,
                    "duration": 0.16393450000001053
                },
                {
                    "name": "D5",
                    "midi": 74,
                    "time": 163.93449999999976,
                    "velocity": 0.49606299212598426,
                    "duration": 0.32786899999999264
                },
                {
                    "name": "C5",
                    "midi": 72,
                    "time": 164.26236899999975,
                    "velocity": 0.4645669291338583,
                    "duration": 0.16393450000001053
                },
                {
                    "name": "D5",
                    "midi": 74,
                    "time": 164.42630349999976,
                    "velocity": 0.4645669291338583,
                    "duration": 0.16393450000001053
                },
                {
                    "name": "A#4",
                    "midi": 70,
                    "time": 164.59023799999977,
                    "velocity": 0.5039370078740157,
                    "duration": 0.6557379999999853
                },
                {
                    "name": "D5",
                    "midi": 74,
                    "time": 164.91810699999976,
                    "velocity": 0.49606299212598426,
                    "duration": 0.30054658333332895
                },
                {
                    "name": "A#4",
                    "midi": 70,
                    "time": 165.24597599999976,
                    "velocity": 0.3543307086614173,
                    "duration": 2.6229520000000264
                },
                {
                    "name": "F5",
                    "midi": 77,
                    "time": 165.24597599999976,
                    "velocity": 0.4566929133858268,
                    "duration": 0.30054658333332895
                },
                {
                    "name": "D5",
                    "midi": 74,
                    "time": 165.24597599999976,
                    "velocity": 0.41732283464566927,
                    "duration": 2.2950830000000337
                },
                {
                    "name": "A5",
                    "midi": 81,
                    "time": 165.57384499999975,
                    "velocity": 0.4881889763779528,
                    "duration": 0.6557380000000137
                },
                {
                    "name": "G5",
                    "midi": 79,
                    "time": 166.22958299999976,
                    "velocity": 0.47244094488188976,
                    "duration": 0.16393450000001053
                },
                {
                    "name": "A5",
                    "midi": 81,
                    "time": 166.39351749999977,
                    "velocity": 0.47244094488188976,
                    "duration": 0.16393450000001053
                },
                {
                    "name": "F5",
                    "midi": 77,
                    "time": 166.55745199999978,
                    "velocity": 0.5275590551181102,
                    "duration": 0.32786899999999264
                },
                {
                    "name": "E5",
                    "midi": 76,
                    "time": 166.88532099999978,
                    "velocity": 0.49606299212598426,
                    "duration": 0.16393450000001053
                },
                {
                    "name": "F5",
                    "midi": 77,
                    "time": 167.0492554999998,
                    "velocity": 0.49606299212598426,
                    "duration": 0.16393450000001053
                },
                {
                    "name": "D5",
                    "midi": 74,
                    "time": 167.2131899999998,
                    "velocity": 0.5433070866141733,
                    "duration": 0.6557379999999853
                },
                {
                    "name": "F5",
                    "midi": 77,
                    "time": 167.5410589999998,
                    "velocity": 0.5275590551181102,
                    "duration": 0.32786899999999264
                },
                {
                    "name": "C6",
                    "midi": 84,
                    "time": 167.86892799999978,
                    "velocity": 0.4251968503937008,
                    "duration": 0.0874317333333181
                },
                {
                    "name": "D6",
                    "midi": 86,
                    "time": 167.95089524999977,
                    "velocity": 0.3779527559055118,
                    "duration": 0.0874317333333181
                },
                {
                    "name": "C6",
                    "midi": 84,
                    "time": 168.03286249999977,
                    "velocity": 0.4251968503937008,
                    "duration": 0.0874317333333181
                },
                {
                    "name": "D6",
                    "midi": 86,
                    "time": 168.11482974999976,
                    "velocity": 0.3858267716535433,
                    "duration": 0.0874317333333181
                },
                {
                    "name": "C6",
                    "midi": 84,
                    "time": 168.19679699999975,
                    "velocity": 0.4251968503937008,
                    "duration": 0.0874317333333181
                },
                {
                    "name": "D6",
                    "midi": 86,
                    "time": 168.27876424999974,
                    "velocity": 0.3858267716535433,
                    "duration": 0.0874317333333181
                },
                {
                    "name": "C6",
                    "midi": 84,
                    "time": 168.36073149999973,
                    "velocity": 0.4251968503937008,
                    "duration": 0.0874317333333181
                },
                {
                    "name": "D6",
                    "midi": 86,
                    "time": 168.44269874999972,
                    "velocity": 0.3858267716535433,
                    "duration": 0.0874317333333181
                },
                {
                    "name": "C6",
                    "midi": 84,
                    "time": 168.5246659999997,
                    "velocity": 0.4251968503937008,
                    "duration": 0.08196724999999105
                },
                {
                    "name": "D6",
                    "midi": 86,
                    "time": 168.6066332499997,
                    "velocity": 0.4094488188976378,
                    "duration": 0.0874317333333181
                },
                {
                    "name": "C6",
                    "midi": 84,
                    "time": 168.6886004999997,
                    "velocity": 0.3700787401574803,
                    "duration": 0.0874317333333181
                },
                {
                    "name": "D6",
                    "midi": 86,
                    "time": 168.77056774999969,
                    "velocity": 0.4094488188976378,
                    "duration": 0.0874317333333181
                },
                {
                    "name": "C6",
                    "midi": 84,
                    "time": 168.85253499999968,
                    "velocity": 0.3779527559055118,
                    "duration": 0.0874317333333181
                },
                {
                    "name": "D6",
                    "midi": 86,
                    "time": 168.93450224999967,
                    "velocity": 0.41732283464566927,
                    "duration": 0.0874317333333181
                },
                {
                    "name": "C6",
                    "midi": 84,
                    "time": 169.01646949999966,
                    "velocity": 0.3858267716535433,
                    "duration": 0.0874317333333181
                },
                {
                    "name": "D6",
                    "midi": 86,
                    "time": 169.09843674999965,
                    "velocity": 0.4015748031496063,
                    "duration": 0.0874317333333181
                },
                {
                    "name": "C6",
                    "midi": 84,
                    "time": 169.18040399999964,
                    "velocity": 0.4251968503937008,
                    "duration": 0.08196724999999105
                },
                {
                    "name": "D6",
                    "midi": 86,
                    "time": 169.26237124999963,
                    "velocity": 0.4015748031496063,
                    "duration": 0.08196724999999105
                },
                {
                    "name": "C6",
                    "midi": 84,
                    "time": 169.34433849999962,
                    "velocity": 0.4409448818897638,
                    "duration": 0.08196724999999105
                },
                {
                    "name": "D6",
                    "midi": 86,
                    "time": 169.4263057499996,
                    "velocity": 0.41732283464566927,
                    "duration": 0.08196724999999105
                },
                {
                    "name": "C6",
                    "midi": 84,
                    "time": 169.5082729999996,
                    "velocity": 0.4566929133858268,
                    "duration": 0.08196724999999105
                },
                {
                    "name": "D6",
                    "midi": 86,
                    "time": 169.5902402499996,
                    "velocity": 0.4409448818897638,
                    "duration": 0.08196724999999105
                },
                {
                    "name": "C6",
                    "midi": 84,
                    "time": 169.6722074999996,
                    "velocity": 0.5039370078740157,
                    "duration": 0.08196724999999105
                },
                {
                    "name": "D6",
                    "midi": 86,
                    "time": 169.75417474999958,
                    "velocity": 0.47244094488188976,
                    "duration": 0.08196724999999105
                },
                {
                    "name": "C6",
                    "midi": 84,
                    "time": 169.83614199999957,
                    "velocity": 0.5354330708661418,
                    "duration": 0.08196724999999105
                },
                {
                    "name": "D6",
                    "midi": 86,
                    "time": 169.91810924999956,
                    "velocity": 0.5118110236220472,
                    "duration": 0.08196724999999105
                },
                {
                    "name": "C6",
                    "midi": 84,
                    "time": 170.00007649999955,
                    "velocity": 0.6062992125984252,
                    "duration": 0.08196724999999105
                },
                {
                    "name": "D6",
                    "midi": 86,
                    "time": 170.08204374999954,
                    "velocity": 0.5590551181102362,
                    "duration": 0.08196724999999105
                },
                {
                    "name": "C6",
                    "midi": 84,
                    "time": 170.16401099999953,
                    "velocity": 0.6771653543307087,
                    "duration": 0.08196724999999105
                },
                {
                    "name": "D6",
                    "midi": 86,
                    "time": 170.24597824999952,
                    "velocity": 0.7086614173228346,
                    "duration": 0.08196724999999105
                },
                {
                    "name": "E6",
                    "midi": 88,
                    "time": 170.32794549999952,
                    "velocity": 0.7559055118110236,
                    "duration": 0.08196724999999105
                },
                {
                    "name": "F6",
                    "midi": 89,
                    "time": 170.4099127499995,
                    "velocity": 0.7874015748031497,
                    "duration": 0.08196724999999105
                },
                {
                    "name": "G6",
                    "midi": 91,
                    "time": 170.4918799999995,
                    "velocity": 0.8503937007874016,
                    "duration": 0.6557380000000137
                },
                {
                    "name": "G4",
                    "midi": 67,
                    "time": 171.80335599999952,
                    "velocity": 0.5511811023622047,
                    "duration": 1.967214000000041
                },
                {
                    "name": "A#4",
                    "midi": 70,
                    "time": 171.80335599999952,
                    "velocity": 0.5511811023622047,
                    "duration": 1.967214000000041
                },
                {
                    "name": "D5",
                    "midi": 74,
                    "time": 171.80335599999952,
                    "velocity": 0.5511811023622047,
                    "duration": 1.967214000000041
                },
                {
                    "name": "G5",
                    "midi": 79,
                    "time": 171.80335599999952,
                    "velocity": 0.6535433070866141,
                    "duration": 1.4754105000000095
                },
                {
                    "name": "A5",
                    "midi": 81,
                    "time": 173.27876649999953,
                    "velocity": 0.41732283464566927,
                    "duration": 0.16393450000001053
                },
                {
                    "name": "A#5",
                    "midi": 82,
                    "time": 173.44270099999954,
                    "velocity": 0.41732283464566927,
                    "duration": 0.16393450000001053
                },
                {
                    "name": "A5",
                    "midi": 81,
                    "time": 173.60663549999956,
                    "velocity": 0.41732283464566927,
                    "duration": 0.16393450000001053
                },
                {
                    "name": "G5",
                    "midi": 79,
                    "time": 173.77056999999957,
                    "velocity": 0.4409448818897638,
                    "duration": 0.16393450000001053
                },
                {
                    "name": "A5",
                    "midi": 81,
                    "time": 173.93450449999958,
                    "velocity": 0.4251968503937008,
                    "duration": 0.16393450000001053
                },
                {
                    "name": "G5",
                    "midi": 79,
                    "time": 174.0984389999996,
                    "velocity": 0.4251968503937008,
                    "duration": 0.16393450000001053
                },
                {
                    "name": "F5",
                    "midi": 77,
                    "time": 174.2623734999996,
                    "velocity": 0.4251968503937008,
                    "duration": 0.16393450000001053
                },
                {
                    "name": "D5",
                    "midi": 74,
                    "time": 174.4263079999996,
                    "velocity": 0.44881889763779526,
                    "duration": 0.16393450000001053
                },
                {
                    "name": "F5",
                    "midi": 77,
                    "time": 174.59024249999962,
                    "velocity": 0.4251968503937008,
                    "duration": 0.16393450000001053
                },
                {
                    "name": "D5",
                    "midi": 74,
                    "time": 174.75417699999963,
                    "velocity": 0.4251968503937008,
                    "duration": 0.16393450000001053
                },
                {
                    "name": "C5",
                    "midi": 72,
                    "time": 174.91811149999964,
                    "velocity": 0.4251968503937008,
                    "duration": 0.16393450000001053
                },
                {
                    "name": "A#4",
                    "midi": 70,
                    "time": 175.08204599999965,
                    "velocity": 0.4566929133858268,
                    "duration": 0.16393450000001053
                },
                {
                    "name": "G4",
                    "midi": 67,
                    "time": 175.24598049999966,
                    "velocity": 0.4251968503937008,
                    "duration": 0.16393450000001053
                },
                {
                    "name": "D4",
                    "midi": 62,
                    "time": 175.40991499999967,
                    "velocity": 0.41732283464566927,
                    "duration": 0.16393450000001053
                },
                {
                    "name": "E4",
                    "midi": 64,
                    "time": 175.57384949999968,
                    "velocity": 0.41732283464566927,
                    "duration": 0.16393450000001053
                },
                {
                    "name": "C#4",
                    "midi": 61,
                    "time": 175.7377839999997,
                    "velocity": 0.33070866141732286,
                    "duration": 1.3114760000000558
                },
                {
                    "name": "G4",
                    "midi": 67,
                    "time": 175.7377839999997,
                    "velocity": 0.4094488188976378,
                    "duration": 0.16393450000001053
                },
                {
                    "name": "F4",
                    "midi": 65,
                    "time": 175.9017184999997,
                    "velocity": 0.3779527559055118,
                    "duration": 0.16393450000001053
                },
                {
                    "name": "G4",
                    "midi": 67,
                    "time": 176.0656529999997,
                    "velocity": 0.3779527559055118,
                    "duration": 0.16393450000001053
                },
                {
                    "name": "A4",
                    "midi": 69,
                    "time": 176.22958749999972,
                    "velocity": 0.3700787401574803,
                    "duration": 0.16393450000001053
                },
                {
                    "name": "G4",
                    "midi": 67,
                    "time": 176.39352199999973,
                    "velocity": 0.3700787401574803,
                    "duration": 0.8196725000000242
                },
                {
                    "name": "D4",
                    "midi": 62,
                    "time": 177.04925999999975,
                    "velocity": 0.3464566929133858,
                    "duration": 1.3114760000000842
                },
                {
                    "name": "F4",
                    "midi": 65,
                    "time": 177.21319449999976,
                    "velocity": 0.3779527559055118,
                    "duration": 0.16393450000001053
                },
                {
                    "name": "G4",
                    "midi": 67,
                    "time": 177.37712899999977,
                    "velocity": 0.3858267716535433,
                    "duration": 0.16393450000001053
                },
                {
                    "name": "A4",
                    "midi": 69,
                    "time": 177.54106349999978,
                    "velocity": 0.4094488188976378,
                    "duration": 0.16393450000001053
                },
                {
                    "name": "C5",
                    "midi": 72,
                    "time": 177.7049979999998,
                    "velocity": 0.41732283464566927,
                    "duration": 0.16393450000001053
                },
                {
                    "name": "A4",
                    "midi": 69,
                    "time": 177.8689324999998,
                    "velocity": 0.41732283464566927,
                    "duration": 0.16393450000001053
                },
                {
                    "name": "G4",
                    "midi": 67,
                    "time": 178.0328669999998,
                    "velocity": 0.41732283464566927,
                    "duration": 0.16393450000001053
                },
                {
                    "name": "F4",
                    "midi": 65,
                    "time": 178.19680149999982,
                    "velocity": 0.41732283464566927,
                    "duration": 0.16393450000001053
                },
                {
                    "name": "G4",
                    "midi": 67,
                    "time": 178.36073599999983,
                    "velocity": 0.4251968503937008,
                    "duration": 0.16393450000001053
                },
                {
                    "name": "D#4",
                    "midi": 63,
                    "time": 178.36073599999983,
                    "velocity": 0.33858267716535434,
                    "duration": 1.3114760000000558
                },
                {
                    "name": "F4",
                    "midi": 65,
                    "time": 178.52467049999984,
                    "velocity": 0.3858267716535433,
                    "duration": 0.16393450000001053
                },
                {
                    "name": "G4",
                    "midi": 67,
                    "time": 178.68860499999985,
                    "velocity": 0.4015748031496063,
                    "duration": 0.16393450000001053
                },
                {
                    "name": "A4",
                    "midi": 69,
                    "time": 178.85253949999986,
                    "velocity": 0.3858267716535433,
                    "duration": 0.16393450000001053
                },
                {
                    "name": "G4",
                    "midi": 67,
                    "time": 179.01647399999987,
                    "velocity": 0.3779527559055118,
                    "duration": 0.8196725000000242
                },
                {
                    "name": "D4",
                    "midi": 62,
                    "time": 179.6722119999999,
                    "velocity": 0.3543307086614173,
                    "duration": 1.3114760000000842
                },
                {
                    "name": "F4",
                    "midi": 65,
                    "time": 179.8361464999999,
                    "velocity": 0.3858267716535433,
                    "duration": 0.16393450000001053
                },
                {
                    "name": "G4",
                    "midi": 67,
                    "time": 180.0000809999999,
                    "velocity": 0.4015748031496063,
                    "duration": 0.16393450000001053
                },
                {
                    "name": "A4",
                    "midi": 69,
                    "time": 180.16401549999992,
                    "velocity": 0.4094488188976378,
                    "duration": 0.16393450000001053
                },
                {
                    "name": "D5",
                    "midi": 74,
                    "time": 180.32794999999993,
                    "velocity": 0.4409448818897638,
                    "duration": 0.16393450000001053
                },
                {
                    "name": "A4",
                    "midi": 69,
                    "time": 180.49188449999994,
                    "velocity": 0.4251968503937008,
                    "duration": 0.16393450000001053
                },
                {
                    "name": "G4",
                    "midi": 67,
                    "time": 180.65581899999995,
                    "velocity": 0.4251968503937008,
                    "duration": 0.16393450000001053
                },
                {
                    "name": "F4",
                    "midi": 65,
                    "time": 180.81975349999996,
                    "velocity": 0.4251968503937008,
                    "duration": 0.32786900000002106
                },
                {
                    "name": "D4",
                    "midi": 62,
                    "time": 180.98368799999997,
                    "velocity": 0.3858267716535433,
                    "duration": 0.6557380000000421
                },
                {
                    "name": "A#4",
                    "midi": 70,
                    "time": 181.14762249999998,
                    "velocity": 0.4094488188976378,
                    "duration": 0.16393450000001053
                },
                {
                    "name": "D5",
                    "midi": 74,
                    "time": 181.311557,
                    "velocity": 0.4251968503937008,
                    "duration": 0.16393450000001053
                },
                {
                    "name": "F5",
                    "midi": 77,
                    "time": 181.4754915,
                    "velocity": 0.44881889763779526,
                    "duration": 0.16393450000001053
                },
                {
                    "name": "D5",
                    "midi": 74,
                    "time": 181.63942600000001,
                    "velocity": 0.31496062992125984,
                    "duration": 0.6557380000000137
                },
                {
                    "name": "A5",
                    "midi": 81,
                    "time": 181.63942600000001,
                    "velocity": 0.47244094488188976,
                    "duration": 0.9836070000000063
                },
                {
                    "name": "C5",
                    "midi": 72,
                    "time": 182.29516400000003,
                    "velocity": 0.3464566929133858,
                    "duration": 2.2950830000000053
                },
                {
                    "name": "G5",
                    "midi": 79,
                    "time": 182.62303300000002,
                    "velocity": 0.4251968503937008,
                    "duration": 0.32786899999999264
                },
                {
                    "name": "F5",
                    "midi": 77,
                    "time": 182.950902,
                    "velocity": 0.4094488188976378,
                    "duration": 0.32786899999999264
                },
                {
                    "name": "G5",
                    "midi": 79,
                    "time": 183.278771,
                    "velocity": 0.4251968503937008,
                    "duration": 0.49180350000000317
                },
                {
                    "name": "F5",
                    "midi": 77,
                    "time": 183.7705745,
                    "velocity": 0.3858267716535433,
                    "duration": 0.16393450000001053
                },
                {
                    "name": "E5",
                    "midi": 76,
                    "time": 183.93450900000002,
                    "velocity": 0.4015748031496063,
                    "duration": 0.16393450000001053
                },
                {
                    "name": "G5",
                    "midi": 79,
                    "time": 184.09844350000003,
                    "velocity": 0.4015748031496063,
                    "duration": 0.16393450000001053
                },
                {
                    "name": "F5",
                    "midi": 77,
                    "time": 184.26237800000004,
                    "velocity": 0.4251968503937008,
                    "duration": 0.9836070000000063
                },
                {
                    "name": "A#4",
                    "midi": 70,
                    "time": 184.59024700000003,
                    "velocity": 0.3858267716535433,
                    "duration": 0.16393450000001053
                },
                {
                    "name": "A4",
                    "midi": 69,
                    "time": 184.75418150000004,
                    "velocity": 0.3858267716535433,
                    "duration": 0.16393450000001053
                },
                {
                    "name": "A#4",
                    "midi": 70,
                    "time": 184.91811600000005,
                    "velocity": 0.4015748031496063,
                    "duration": 1.3114759999999706
                },
                {
                    "name": "E5",
                    "midi": 76,
                    "time": 185.24598500000005,
                    "velocity": 0.36220472440944884,
                    "duration": 0.32786899999999264
                },
                {
                    "name": "D5",
                    "midi": 74,
                    "time": 185.57385400000004,
                    "velocity": 0.3543307086614173,
                    "duration": 0.32786899999999264
                },
                {
                    "name": "F4",
                    "midi": 65,
                    "time": 185.57385400000004,
                    "velocity": 0.3543307086614173,
                    "duration": 0.32786899999999264
                },
                {
                    "name": "C5",
                    "midi": 72,
                    "time": 185.90172300000003,
                    "velocity": 0.33858267716535434,
                    "duration": 0.32786899999999264
                },
                {
                    "name": "E4",
                    "midi": 64,
                    "time": 185.90172300000003,
                    "velocity": 0.33858267716535434,
                    "duration": 0.32786899999999264
                },
                {
                    "name": "G5",
                    "midi": 79,
                    "time": 187.54106800000002,
                    "velocity": 0.6535433070866141,
                    "duration": 1.4754105000000095
                },
                {
                    "name": "G4",
                    "midi": 67,
                    "time": 187.54106800000002,
                    "velocity": 0.5511811023622047,
                    "duration": 1.967214000000041
                },
                {
                    "name": "D5",
                    "midi": 74,
                    "time": 187.54106800000002,
                    "velocity": 0.5511811023622047,
                    "duration": 1.967214000000041
                },
                {
                    "name": "A#4",
                    "midi": 70,
                    "time": 187.54106800000002,
                    "velocity": 0.5511811023622047,
                    "duration": 1.967214000000041
                },
                {
                    "name": "A5",
                    "midi": 81,
                    "time": 189.01647850000003,
                    "velocity": 0.41732283464566927,
                    "duration": 0.16393450000001053
                },
                {
                    "name": "A#5",
                    "midi": 82,
                    "time": 189.18041300000004,
                    "velocity": 0.41732283464566927,
                    "duration": 0.16393450000001053
                },
                {
                    "name": "A5",
                    "midi": 81,
                    "time": 189.34434750000005,
                    "velocity": 0.41732283464566927,
                    "duration": 0.16393450000001053
                },
                {
                    "name": "G5",
                    "midi": 79,
                    "time": 189.50828200000007,
                    "velocity": 0.4409448818897638,
                    "duration": 0.16393450000001053
                },
                {
                    "name": "A5",
                    "midi": 81,
                    "time": 189.67221650000008,
                    "velocity": 0.4251968503937008,
                    "duration": 0.16393450000001053
                },
                {
                    "name": "G5",
                    "midi": 79,
                    "time": 189.8361510000001,
                    "velocity": 0.4251968503937008,
                    "duration": 0.16393450000001053
                },
                {
                    "name": "F5",
                    "midi": 77,
                    "time": 190.0000855000001,
                    "velocity": 0.4251968503937008,
                    "duration": 0.16393450000001053
                },
                {
                    "name": "D5",
                    "midi": 74,
                    "time": 190.1640200000001,
                    "velocity": 0.44881889763779526,
                    "duration": 0.16393450000001053
                },
                {
                    "name": "F5",
                    "midi": 77,
                    "time": 190.32795450000012,
                    "velocity": 0.4251968503937008,
                    "duration": 0.16393450000001053
                },
                {
                    "name": "D5",
                    "midi": 74,
                    "time": 190.49188900000013,
                    "velocity": 0.4251968503937008,
                    "duration": 0.16393450000001053
                },
                {
                    "name": "C5",
                    "midi": 72,
                    "time": 190.65582350000014,
                    "velocity": 0.4251968503937008,
                    "duration": 0.16393450000001053
                },
                {
                    "name": "A#4",
                    "midi": 70,
                    "time": 190.81975800000015,
                    "velocity": 0.4566929133858268,
                    "duration": 0.16393450000001053
                },
                {
                    "name": "G4",
                    "midi": 67,
                    "time": 190.98369250000016,
                    "velocity": 0.4251968503937008,
                    "duration": 0.16393450000001053
                },
                {
                    "name": "D4",
                    "midi": 62,
                    "time": 191.14762700000017,
                    "velocity": 0.41732283464566927,
                    "duration": 0.16393450000001053
                },
                {
                    "name": "E4",
                    "midi": 64,
                    "time": 191.31156150000018,
                    "velocity": 0.41732283464566927,
                    "duration": 0.16393450000001053
                },
                {
                    "name": "D4",
                    "midi": 62,
                    "time": 191.4754960000002,
                    "velocity": 0.33858267716535434,
                    "duration": 2.6229520000001116
                },
                {
                    "name": "G4",
                    "midi": 67,
                    "time": 191.4754960000002,
                    "velocity": 0.4015748031496063,
                    "duration": 0.16393450000001053
                },
                {
                    "name": "F4",
                    "midi": 65,
                    "time": 191.6394305000002,
                    "velocity": 0.3700787401574803,
                    "duration": 0.16393450000001053
                },
                {
                    "name": "G4",
                    "midi": 67,
                    "time": 191.8033650000002,
                    "velocity": 0.3779527559055118,
                    "duration": 0.16393450000001053
                },
                {
                    "name": "A4",
                    "midi": 69,
                    "time": 191.96729950000022,
                    "velocity": 0.3700787401574803,
                    "duration": 0.16393450000001053
                },
                {
                    "name": "G4",
                    "midi": 67,
                    "time": 192.13123400000023,
                    "velocity": 0.36220472440944884,
                    "duration": 0.8196724999999958
                },
                {
                    "name": "F4",
                    "midi": 65,
                    "time": 192.95090650000023,
                    "velocity": 0.3543307086614173,
                    "duration": 0.16393450000001053
                },
                {
                    "name": "G4",
                    "midi": 67,
                    "time": 193.11484100000024,
                    "velocity": 0.36220472440944884,
                    "duration": 0.16393450000001053
                },
                {
                    "name": "A4",
                    "midi": 69,
                    "time": 193.27877550000025,
                    "velocity": 0.3779527559055118,
                    "duration": 0.16393450000001053
                },
                {
                    "name": "C5",
                    "midi": 72,
                    "time": 193.44271000000026,
                    "velocity": 0.3858267716535433,
                    "duration": 0.16393450000001053
                },
                {
                    "name": "A4",
                    "midi": 69,
                    "time": 193.60664450000027,
                    "velocity": 0.3858267716535433,
                    "duration": 0.16393450000001053
                },
                {
                    "name": "G4",
                    "midi": 67,
                    "time": 193.77057900000028,
                    "velocity": 0.3858267716535433,
                    "duration": 0.16393450000001053
                },
                {
                    "name": "F4",
                    "midi": 65,
                    "time": 193.9345135000003,
                    "velocity": 0.3858267716535433,
                    "duration": 0.16393450000001053
                },
                {
                    "name": "G4",
                    "midi": 67,
                    "time": 194.0984480000003,
                    "velocity": 0.3779527559055118,
                    "duration": 0.16393450000001053
                },
                {
                    "name": "D4",
                    "midi": 62,
                    "time": 194.0984480000003,
                    "velocity": 0.33858267716535434,
                    "duration": 2.6229520000001116
                },
                {
                    "name": "F4",
                    "midi": 65,
                    "time": 194.2623825000003,
                    "velocity": 0.36220472440944884,
                    "duration": 0.16393450000001053
                },
                {
                    "name": "G4",
                    "midi": 67,
                    "time": 194.42631700000032,
                    "velocity": 0.3700787401574803,
                    "duration": 0.16393450000001053
                },
                {
                    "name": "A4",
                    "midi": 69,
                    "time": 194.59025150000033,
                    "velocity": 0.36220472440944884,
                    "duration": 0.16393450000001053
                },
                {
                    "name": "G4",
                    "midi": 67,
                    "time": 194.75418600000035,
                    "velocity": 0.3543307086614173,
                    "duration": 0.8196724999999958
                },
                {
                    "name": "F4",
                    "midi": 65,
                    "time": 195.57385850000034,
                    "velocity": 0.36220472440944884,
                    "duration": 0.16393450000001053
                },
                {
                    "name": "G4",
                    "midi": 67,
                    "time": 195.73779300000035,
                    "velocity": 0.3700787401574803,
                    "duration": 0.16393450000001053
                },
                {
                    "name": "A4",
                    "midi": 69,
                    "time": 195.90172750000036,
                    "velocity": 0.3779527559055118,
                    "duration": 0.16393450000001053
                },
                {
                    "name": "D5",
                    "midi": 74,
                    "time": 196.06566200000037,
                    "velocity": 0.4094488188976378,
                    "duration": 0.16393450000001053
                },
                {
                    "name": "A4",
                    "midi": 69,
                    "time": 196.22959650000038,
                    "velocity": 0.4015748031496063,
                    "duration": 0.16393450000001053
                },
                {
                    "name": "G4",
                    "midi": 67,
                    "time": 196.3935310000004,
                    "velocity": 0.4015748031496063,
                    "duration": 0.16393450000001053
                },
                {
                    "name": "F4",
                    "midi": 65,
                    "time": 196.5574655000004,
                    "velocity": 0.4015748031496063,
                    "duration": 0.16393450000001053
                },
                {
                    "name": "E5",
                    "midi": 76,
                    "time": 196.72140000000041,
                    "velocity": 0.4015748031496063,
                    "duration": 0.16393450000001053
                },
                {
                    "name": "A#4",
                    "midi": 70,
                    "time": 196.88533450000043,
                    "velocity": 0.3858267716535433,
                    "duration": 0.16393450000001053
                },
                {
                    "name": "A4",
                    "midi": 69,
                    "time": 197.04926900000044,
                    "velocity": 0.3858267716535433,
                    "duration": 0.16393450000001053
                },
                {
                    "name": "G4",
                    "midi": 67,
                    "time": 197.21320350000045,
                    "velocity": 0.3858267716535433,
                    "duration": 0.1502732916666787
                },
                {
                    "name": "F5",
                    "midi": 77,
                    "time": 197.37713800000046,
                    "velocity": 0.4094488188976378,
                    "duration": 0.16393450000001053
                },
                {
                    "name": "C5",
                    "midi": 72,
                    "time": 197.54107250000047,
                    "velocity": 0.4015748031496063,
                    "duration": 0.16393450000001053
                },
                {
                    "name": "A#4",
                    "midi": 70,
                    "time": 197.70500700000048,
                    "velocity": 0.4015748031496063,
                    "duration": 0.16393450000001053
                },
                {
                    "name": "A4",
                    "midi": 69,
                    "time": 197.8689415000005,
                    "velocity": 0.4015748031496063,
                    "duration": 0.1502732916666787
                },
                {
                    "name": "G5",
                    "midi": 79,
                    "time": 198.0328760000005,
                    "velocity": 0.41732283464566927,
                    "duration": 0.16393450000001053
                },
                {
                    "name": "D5",
                    "midi": 74,
                    "time": 198.1968105000005,
                    "velocity": 0.4015748031496063,
                    "duration": 0.16393450000001053
                },
                {
                    "name": "C5",
                    "midi": 72,
                    "time": 198.36074500000052,
                    "velocity": 0.4015748031496063,
                    "duration": 0.16393450000001053
                },
                {
                    "name": "A#4",
                    "midi": 70,
                    "time": 198.52467950000053,
                    "velocity": 0.4015748031496063,
                    "duration": 0.1502732916666787
                },
                {
                    "name": "A5",
                    "midi": 81,
                    "time": 198.68861400000054,
                    "velocity": 0.4251968503937008,
                    "duration": 0.16393450000001053
                },
                {
                    "name": "E5",
                    "midi": 76,
                    "time": 198.85254850000055,
                    "velocity": 0.4094488188976378,
                    "duration": 0.16393450000001053
                },
                {
                    "name": "D5",
                    "midi": 74,
                    "time": 199.01648300000056,
                    "velocity": 0.4094488188976378,
                    "duration": 0.16393450000001053
                },
                {
                    "name": "C5",
                    "midi": 72,
                    "time": 199.18041750000057,
                    "velocity": 0.4094488188976378,
                    "duration": 0.1502732916666787
                },
                {
                    "name": "A#5",
                    "midi": 82,
                    "time": 199.34435200000058,
                    "velocity": 0.4409448818897638,
                    "duration": 0.16393450000001053
                },
                {
                    "name": "F5",
                    "midi": 77,
                    "time": 199.5082865000006,
                    "velocity": 0.4251968503937008,
                    "duration": 0.16393450000001053
                },
                {
                    "name": "E5",
                    "midi": 76,
                    "time": 199.6722210000006,
                    "velocity": 0.4251968503937008,
                    "duration": 0.16393450000001053
                },
                {
                    "name": "D5",
                    "midi": 74,
                    "time": 199.83615550000061,
                    "velocity": 0.4251968503937008,
                    "duration": 0.1502732916666787
                },
                {
                    "name": "C6",
                    "midi": 84,
                    "time": 200.00009000000063,
                    "velocity": 0.4566929133858268,
                    "duration": 0.16393450000001053
                },
                {
                    "name": "G5",
                    "midi": 79,
                    "time": 200.16402450000064,
                    "velocity": 0.4409448818897638,
                    "duration": 0.16393450000001053
                },
                {
                    "name": "F5",
                    "midi": 77,
                    "time": 200.32795900000065,
                    "velocity": 0.4409448818897638,
                    "duration": 0.16393450000001053
                },
                {
                    "name": "E5",
                    "midi": 76,
                    "time": 200.49189350000066,
                    "velocity": 0.44881889763779526,
                    "duration": 0.1502732916666787
                },
                {
                    "name": "D6",
                    "midi": 86,
                    "time": 200.65582800000067,
                    "velocity": 0.47244094488188976,
                    "duration": 0.16393450000001053
                },
                {
                    "name": "A5",
                    "midi": 81,
                    "time": 200.81976250000068,
                    "velocity": 0.4566929133858268,
                    "duration": 0.16393450000001053
                },
                {
                    "name": "G5",
                    "midi": 79,
                    "time": 200.9836970000007,
                    "velocity": 0.4645669291338583,
                    "duration": 0.16393450000001053
                },
                {
                    "name": "F5",
                    "midi": 77,
                    "time": 201.1476315000007,
                    "velocity": 0.4645669291338583,
                    "duration": 0.1502732916666787
                },
                {
                    "name": "E6",
                    "midi": 88,
                    "time": 201.3115660000007,
                    "velocity": 0.49606299212598426,
                    "duration": 0.16393450000001053
                },
                {
                    "name": "A#5",
                    "midi": 82,
                    "time": 201.47550050000072,
                    "velocity": 0.47244094488188976,
                    "duration": 0.16393450000001053
                },
                {
                    "name": "A5",
                    "midi": 81,
                    "time": 201.63943500000073,
                    "velocity": 0.47244094488188976,
                    "duration": 0.16393450000001053
                },
                {
                    "name": "G5",
                    "midi": 79,
                    "time": 201.80336950000074,
                    "velocity": 0.47244094488188976,
                    "duration": 0.1502732916666787
                },
                {
                    "name": "G6",
                    "midi": 91,
                    "time": 201.96730400000075,
                    "velocity": 0.6850393700787402,
                    "duration": 0.1502732916666787
                },
                {
                    "name": "D6",
                    "midi": 86,
                    "time": 202.13123850000076,
                    "velocity": 0.5275590551181102,
                    "duration": 0.1502732916666787
                },
                {
                    "name": "C6",
                    "midi": 84,
                    "time": 202.29517300000077,
                    "velocity": 0.5275590551181102,
                    "duration": 0.1502732916666787
                },
                {
                    "name": "A#5",
                    "midi": 82,
                    "time": 202.45910750000078,
                    "velocity": 0.5275590551181102,
                    "duration": 0.1502732916666787
                },
                {
                    "name": "F5",
                    "midi": 77,
                    "time": 203.2787800000008,
                    "velocity": 0.49606299212598426,
                    "duration": 0.1502732916666787
                },
                {
                    "name": "G5",
                    "midi": 79,
                    "time": 203.44271450000082,
                    "velocity": 0.5118110236220472,
                    "duration": 0.1502732916666787
                },
                {
                    "name": "A5",
                    "midi": 81,
                    "time": 203.60664900000083,
                    "velocity": 0.5275590551181102,
                    "duration": 0.1502732916666787
                },
                {
                    "name": "A#5",
                    "midi": 82,
                    "time": 203.77058350000084,
                    "velocity": 0.5433070866141733,
                    "duration": 0.1502732916666787
                },
                {
                    "name": "C6",
                    "midi": 84,
                    "time": 203.93451800000085,
                    "velocity": 0.5669291338582677,
                    "duration": 0.1502732916666787
                },
                {
                    "name": "D6",
                    "midi": 86,
                    "time": 204.09845250000086,
                    "velocity": 0.5669291338582677,
                    "duration": 0.1502732916666787
                },
                {
                    "name": "E6",
                    "midi": 88,
                    "time": 204.26238700000087,
                    "velocity": 0.5905511811023622,
                    "duration": 0.1502732916666787
                },
                {
                    "name": "F6",
                    "midi": 89,
                    "time": 204.42632150000088,
                    "velocity": 0.6062992125984252,
                    "duration": 0.1502732916666787
                },
                {
                    "name": "G6",
                    "midi": 91,
                    "time": 204.5902560000009,
                    "velocity": 0.6850393700787402,
                    "duration": 0.1502732916666787
                },
                {
                    "name": "D6",
                    "midi": 86,
                    "time": 204.7541905000009,
                    "velocity": 0.5275590551181102,
                    "duration": 0.1502732916666787
                },
                {
                    "name": "C6",
                    "midi": 84,
                    "time": 204.9181250000009,
                    "velocity": 0.5275590551181102,
                    "duration": 0.1502732916666787
                },
                {
                    "name": "A#5",
                    "midi": 82,
                    "time": 205.08205950000092,
                    "velocity": 0.5275590551181102,
                    "duration": 0.1502732916666787
                },
                {
                    "name": "F5",
                    "midi": 77,
                    "time": 205.90173200000095,
                    "velocity": 0.5039370078740157,
                    "duration": 0.1502732916666787
                },
                {
                    "name": "G5",
                    "midi": 79,
                    "time": 206.06566650000096,
                    "velocity": 0.5196850393700787,
                    "duration": 0.1502732916666787
                },
                {
                    "name": "A5",
                    "midi": 81,
                    "time": 206.22960100000097,
                    "velocity": 0.5433070866141733,
                    "duration": 0.1502732916666787
                },
                {
                    "name": "A#5",
                    "midi": 82,
                    "time": 206.39353550000098,
                    "velocity": 0.5669291338582677,
                    "duration": 0.1502732916666787
                },
                {
                    "name": "C6",
                    "midi": 84,
                    "time": 206.557470000001,
                    "velocity": 0.5748031496062992,
                    "duration": 0.1502732916666787
                },
                {
                    "name": "D6",
                    "midi": 86,
                    "time": 206.721404500001,
                    "velocity": 0.5984251968503937,
                    "duration": 0.1502732916666787
                },
                {
                    "name": "E6",
                    "midi": 88,
                    "time": 206.885339000001,
                    "velocity": 0.6141732283464567,
                    "duration": 0.1502732916666787
                },
                {
                    "name": "F6",
                    "midi": 89,
                    "time": 207.04927350000102,
                    "velocity": 0.6299212598425197,
                    "duration": 0.1502732916666787
                },
                {
                    "name": "G6",
                    "midi": 91,
                    "time": 207.21320800000103,
                    "velocity": 0.7007874015748031,
                    "duration": 0.1502732916666787
                },
                {
                    "name": "D6",
                    "midi": 86,
                    "time": 207.37714250000104,
                    "velocity": 0.5669291338582677,
                    "duration": 0.1502732916666787
                },
                {
                    "name": "C6",
                    "midi": 84,
                    "time": 207.54107700000105,
                    "velocity": 0.5669291338582677,
                    "duration": 0.1502732916666787
                },
                {
                    "name": "A#5",
                    "midi": 82,
                    "time": 207.70501150000106,
                    "velocity": 0.5669291338582677,
                    "duration": 0.1502732916666787
                },
                {
                    "name": "G5",
                    "midi": 79,
                    "time": 208.5246840000011,
                    "velocity": 0.5669291338582677,
                    "duration": 0.1502732916666787
                },
                {
                    "name": "A5",
                    "midi": 81,
                    "time": 208.6886185000011,
                    "velocity": 0.5748031496062992,
                    "duration": 0.1502732916666787
                },
                {
                    "name": "A#5",
                    "midi": 82,
                    "time": 208.8525530000011,
                    "velocity": 0.5984251968503937,
                    "duration": 0.1502732916666787
                },
                {
                    "name": "C6",
                    "midi": 84,
                    "time": 209.01648750000112,
                    "velocity": 0.6141732283464567,
                    "duration": 0.1502732916666787
                },
                {
                    "name": "D6",
                    "midi": 86,
                    "time": 209.18042200000113,
                    "velocity": 0.6299212598425197,
                    "duration": 0.1502732916666787
                },
                {
                    "name": "E6",
                    "midi": 88,
                    "time": 209.34435650000114,
                    "velocity": 0.6535433070866141,
                    "duration": 0.1502732916666787
                },
                {
                    "name": "F6",
                    "midi": 89,
                    "time": 209.50829100000115,
                    "velocity": 0.6692913385826772,
                    "duration": 0.1502732916666787
                },
                {
                    "name": "G6",
                    "midi": 91,
                    "time": 209.67222550000116,
                    "velocity": 0.6850393700787402,
                    "duration": 0.1502732916666787
                },
                {
                    "name": "F6",
                    "midi": 89,
                    "time": 209.83616000000117,
                    "velocity": 0.5905511811023622,
                    "duration": 0.32786899999999264
                },
                {
                    "name": "A5",
                    "midi": 81,
                    "time": 209.83616000000117,
                    "velocity": 0.5905511811023622,
                    "duration": 0.32786899999999264
                },
                {
                    "name": "A6",
                    "midi": 93,
                    "time": 209.83616000000117,
                    "velocity": 0.7007874015748031,
                    "duration": 0.32786899999999264
                },
                {
                    "name": "D#4",
                    "midi": 63,
                    "time": 210.49189800000116,
                    "velocity": 0.4566929133858268,
                    "duration": 0.9836070000000063
                },
                {
                    "name": "G4",
                    "midi": 67,
                    "time": 210.49189800000116,
                    "velocity": 0.5433070866141733,
                    "duration": 0.9836070000000063
                },
                {
                    "name": "D4",
                    "midi": 62,
                    "time": 211.47550500000116,
                    "velocity": 0.41732283464566927,
                    "duration": 0.16393450000001053
                },
                {
                    "name": "F4",
                    "midi": 65,
                    "time": 211.47550500000116,
                    "velocity": 0.49606299212598426,
                    "duration": 0.16393450000001053
                },
                {
                    "name": "D#4",
                    "midi": 63,
                    "time": 211.63943950000117,
                    "velocity": 0.41732283464566927,
                    "duration": 0.16393450000001053
                },
                {
                    "name": "G4",
                    "midi": 67,
                    "time": 211.63943950000117,
                    "velocity": 0.49606299212598426,
                    "duration": 0.16393450000001053
                },
                {
                    "name": "D4",
                    "midi": 62,
                    "time": 211.80337400000118,
                    "velocity": 0.44881889763779526,
                    "duration": 0.32786899999999264
                },
                {
                    "name": "F4",
                    "midi": 65,
                    "time": 211.80337400000118,
                    "velocity": 0.5354330708661418,
                    "duration": 0.32786899999999264
                },
                {
                    "name": "C4",
                    "midi": 60,
                    "time": 212.13124300000118,
                    "velocity": 0.4330708661417323,
                    "duration": 0.16393450000001053
                },
                {
                    "name": "D#4",
                    "midi": 63,
                    "time": 212.13124300000118,
                    "velocity": 0.5118110236220472,
                    "duration": 0.16393450000001053
                },
                {
                    "name": "F4",
                    "midi": 65,
                    "time": 212.2951775000012,
                    "velocity": 0.5118110236220472,
                    "duration": 0.16393450000001053
                },
                {
                    "name": "D4",
                    "midi": 62,
                    "time": 212.2951775000012,
                    "velocity": 0.4330708661417323,
                    "duration": 0.16393450000001053
                },
                {
                    "name": "D#4",
                    "midi": 63,
                    "time": 212.4591120000012,
                    "velocity": 0.5511811023622047,
                    "duration": 0.30054658333332895
                },
                {
                    "name": "C4",
                    "midi": 60,
                    "time": 212.4591120000012,
                    "velocity": 0.4645669291338583,
                    "duration": 0.30054658333332895
                },
                {
                    "name": "C4",
                    "midi": 60,
                    "time": 212.7869810000012,
                    "velocity": 0.6220472440944882,
                    "duration": 0.9836069999999779
                },
                {
                    "name": "D4",
                    "midi": 62,
                    "time": 213.11485000000118,
                    "velocity": 0.6220472440944882,
                    "duration": 0.32786899999999264
                },
                {
                    "name": "D#4",
                    "midi": 63,
                    "time": 213.44271900000118,
                    "velocity": 0.6220472440944882,
                    "duration": 0.32786899999999264
                },
                {
                    "name": "G5",
                    "midi": 79,
                    "time": 213.77058800000117,
                    "velocity": 0.5669291338582677,
                    "duration": 0.1502732916666787
                },
                {
                    "name": "A5",
                    "midi": 81,
                    "time": 213.93452250000118,
                    "velocity": 0.5748031496062992,
                    "duration": 0.1502732916666787
                },
                {
                    "name": "A#5",
                    "midi": 82,
                    "time": 214.0984570000012,
                    "velocity": 0.5984251968503937,
                    "duration": 0.1502732916666787
                },
                {
                    "name": "C6",
                    "midi": 84,
                    "time": 214.2623915000012,
                    "velocity": 0.6141732283464567,
                    "duration": 0.1502732916666787
                },
                {
                    "name": "D6",
                    "midi": 86,
                    "time": 214.4263260000012,
                    "velocity": 0.6299212598425197,
                    "duration": 0.1502732916666787
                },
                {
                    "name": "E6",
                    "midi": 88,
                    "time": 214.59026050000122,
                    "velocity": 0.6535433070866141,
                    "duration": 0.1502732916666787
                },
                {
                    "name": "F6",
                    "midi": 89,
                    "time": 214.75419500000123,
                    "velocity": 0.6692913385826772,
                    "duration": 0.1502732916666787
                },
                {
                    "name": "G6",
                    "midi": 91,
                    "time": 214.91812950000124,
                    "velocity": 0.6850393700787402,
                    "duration": 0.1502732916666787
                },
                {
                    "name": "A6",
                    "midi": 93,
                    "time": 215.08206400000125,
                    "velocity": 0.7007874015748031,
                    "duration": 0.32786899999999264
                },
                {
                    "name": "A5",
                    "midi": 81,
                    "time": 215.08206400000125,
                    "velocity": 0.5905511811023622,
                    "duration": 0.32786899999999264
                },
                {
                    "name": "F6",
                    "midi": 89,
                    "time": 215.08206400000125,
                    "velocity": 0.7007874015748031,
                    "duration": 0.32786899999999264
                },
                {
                    "name": "G4",
                    "midi": 67,
                    "time": 215.73780200000124,
                    "velocity": 0.5433070866141733,
                    "duration": 0.9836070000000063
                },
                {
                    "name": "D#4",
                    "midi": 63,
                    "time": 215.73780200000124,
                    "velocity": 0.4566929133858268,
                    "duration": 0.9836070000000063
                },
                {
                    "name": "F4",
                    "midi": 65,
                    "time": 216.72140900000124,
                    "velocity": 0.49606299212598426,
                    "duration": 0.16393450000001053
                },
                {
                    "name": "D4",
                    "midi": 62,
                    "time": 216.72140900000124,
                    "velocity": 0.41732283464566927,
                    "duration": 0.16393450000001053
                },
                {
                    "name": "G4",
                    "midi": 67,
                    "time": 216.88534350000126,
                    "velocity": 0.49606299212598426,
                    "duration": 0.16393450000001053
                },
                {
                    "name": "D#4",
                    "midi": 63,
                    "time": 216.88534350000126,
                    "velocity": 0.41732283464566927,
                    "duration": 0.16393450000001053
                },
                {
                    "name": "F4",
                    "midi": 65,
                    "time": 217.04927800000127,
                    "velocity": 0.5354330708661418,
                    "duration": 0.32786899999999264
                },
                {
                    "name": "D4",
                    "midi": 62,
                    "time": 217.04927800000127,
                    "velocity": 0.44881889763779526,
                    "duration": 0.32786899999999264
                },
                {
                    "name": "D#4",
                    "midi": 63,
                    "time": 217.37714700000126,
                    "velocity": 0.5118110236220472,
                    "duration": 0.16393450000001053
                },
                {
                    "name": "C4",
                    "midi": 60,
                    "time": 217.37714700000126,
                    "velocity": 0.4330708661417323,
                    "duration": 0.16393450000001053
                },
                {
                    "name": "F4",
                    "midi": 65,
                    "time": 217.54108150000127,
                    "velocity": 0.5118110236220472,
                    "duration": 0.16393450000001053
                },
                {
                    "name": "D4",
                    "midi": 62,
                    "time": 217.54108150000127,
                    "velocity": 0.4330708661417323,
                    "duration": 0.16393450000001053
                },
                {
                    "name": "D#4",
                    "midi": 63,
                    "time": 217.70501600000128,
                    "velocity": 0.5511811023622047,
                    "duration": 0.30054658333332895
                },
                {
                    "name": "C4",
                    "midi": 60,
                    "time": 217.70501600000128,
                    "velocity": 0.5511811023622047,
                    "duration": 0.30054658333332895
                },
                {
                    "name": "C4",
                    "midi": 60,
                    "time": 218.03288500000127,
                    "velocity": 0.6220472440944882,
                    "duration": 0.9836069999999779
                },
                {
                    "name": "D4",
                    "midi": 62,
                    "time": 218.36075400000126,
                    "velocity": 0.6220472440944882,
                    "duration": 0.32786899999999264
                },
                {
                    "name": "D#4",
                    "midi": 63,
                    "time": 218.68862300000126,
                    "velocity": 0.6220472440944882,
                    "duration": 0.32786899999999264
                },
                {
                    "name": "G5",
                    "midi": 79,
                    "time": 219.01649200000125,
                    "velocity": 0.5905511811023622,
                    "duration": 0.1502732916666787
                },
                {
                    "name": "A5",
                    "midi": 81,
                    "time": 219.18042650000126,
                    "velocity": 0.6062992125984252,
                    "duration": 0.1502732916666787
                },
                {
                    "name": "A#5",
                    "midi": 82,
                    "time": 219.34436100000127,
                    "velocity": 0.6299212598425197,
                    "duration": 0.1502732916666787
                },
                {
                    "name": "C6",
                    "midi": 84,
                    "time": 219.50829550000128,
                    "velocity": 0.6535433070866141,
                    "duration": 0.1502732916666787
                },
                {
                    "name": "D6",
                    "midi": 86,
                    "time": 219.6722300000013,
                    "velocity": 0.6692913385826772,
                    "duration": 0.1502732916666787
                },
                {
                    "name": "E6",
                    "midi": 88,
                    "time": 219.8361645000013,
                    "velocity": 0.6929133858267716,
                    "duration": 0.1502732916666787
                },
                {
                    "name": "F6",
                    "midi": 89,
                    "time": 220.0000990000013,
                    "velocity": 0.7086614173228346,
                    "duration": 0.1502732916666787
                },
                {
                    "name": "G6",
                    "midi": 91,
                    "time": 220.16403350000132,
                    "velocity": 0.7401574803149606,
                    "duration": 0.1502732916666787
                },
                {
                    "name": "D6",
                    "midi": 86,
                    "time": 220.32796800000133,
                    "velocity": 0.7559055118110236,
                    "duration": 0.32786899999999264
                },
                {
                    "name": "A#5",
                    "midi": 82,
                    "time": 220.32796800000133,
                    "velocity": 0.6377952755905512,
                    "duration": 0.32786899999999264
                },
                {
                    "name": "A#6",
                    "midi": 94,
                    "time": 220.32796800000133,
                    "velocity": 0.7716535433070866,
                    "duration": 0.32786899999999264
                },
                {
                    "name": "A#4",
                    "midi": 70,
                    "time": 220.98370600000132,
                    "velocity": 0.6377952755905512,
                    "duration": 0.9836070000000063
                },
                {
                    "name": "F4",
                    "midi": 65,
                    "time": 220.98370600000132,
                    "velocity": 0.5354330708661418,
                    "duration": 1.63934500000002
                },
                {
                    "name": "A4",
                    "midi": 69,
                    "time": 221.96731300000133,
                    "velocity": 0.5984251968503937,
                    "duration": 0.16393450000001053
                },
                {
                    "name": "A#4",
                    "midi": 70,
                    "time": 222.13124750000134,
                    "velocity": 0.5984251968503937,
                    "duration": 0.16393450000001053
                },
                {
                    "name": "A4",
                    "midi": 69,
                    "time": 222.29518200000135,
                    "velocity": 0.6377952755905512,
                    "duration": 0.32786899999999264
                },
                {
                    "name": "D4",
                    "midi": 62,
                    "time": 222.62305100000134,
                    "velocity": 0.5118110236220472,
                    "duration": 0.32786900000002106
                },
                {
                    "name": "G4",
                    "midi": 67,
                    "time": 222.62305100000134,
                    "velocity": 0.6062992125984252,
                    "duration": 0.16393450000001053
                },
                {
                    "name": "A4",
                    "midi": 69,
                    "time": 222.78698550000135,
                    "velocity": 0.6062992125984252,
                    "duration": 0.16393450000001053
                },
                {
                    "name": "G4",
                    "midi": 67,
                    "time": 222.95092000000136,
                    "velocity": 0.6377952755905512,
                    "duration": 0.32786899999999264
                },
                {
                    "name": "D4",
                    "midi": 62,
                    "time": 222.95092000000136,
                    "velocity": 0.5039370078740157,
                    "duration": 0.6557379999999853
                },
                {
                    "name": "F4",
                    "midi": 65,
                    "time": 223.27878900000135,
                    "velocity": 0.5669291338582677,
                    "duration": 0.32786899999999264
                },
                {
                    "name": "G4",
                    "midi": 67,
                    "time": 223.60665800000135,
                    "velocity": 0.5984251968503937,
                    "duration": 0.32786899999999264
                },
                {
                    "name": "A4",
                    "midi": 69,
                    "time": 223.93452700000134,
                    "velocity": 0.6220472440944882,
                    "duration": 0.32786899999999264
                },
                {
                    "name": "A#4",
                    "midi": 70,
                    "time": 224.26239600000133,
                    "velocity": 0.6535433070866141,
                    "duration": 0.32786899999999264
                },
                {
                    "name": "C5",
                    "midi": 72,
                    "time": 224.59026500000132,
                    "velocity": 0.6771653543307087,
                    "duration": 0.32786899999999264
                },
                {
                    "name": "D5",
                    "midi": 74,
                    "time": 224.91813400000132,
                    "velocity": 0.7086614173228346,
                    "duration": 0.32786899999999264
                },
                {
                    "name": "F5",
                    "midi": 77,
                    "time": 225.2460030000013,
                    "velocity": 0.7401574803149606,
                    "duration": 0.32786899999999264
                },
                {
                    "name": "C6",
                    "midi": 84,
                    "time": 225.5738720000013,
                    "velocity": 0.7401574803149606,
                    "duration": 2.622951999999941
                },
                {
                    "name": "F5",
                    "midi": 77,
                    "time": 225.5738720000013,
                    "velocity": 0.6299212598425197,
                    "duration": 1.311475999999999
                },
                {
                    "name": "A#5",
                    "midi": 82,
                    "time": 225.5738720000013,
                    "velocity": 0.6299212598425197,
                    "duration": 1.311475999999999
                },
                {
                    "name": "A5",
                    "midi": 81,
                    "time": 226.8853480000013,
                    "velocity": 0.7401574803149606,
                    "duration": 0.6557380000000137
                },
                {
                    "name": "F5",
                    "midi": 77,
                    "time": 226.8853480000013,
                    "velocity": 0.6299212598425197,
                    "duration": 0.6557380000000137
                },
                {
                    "name": "G5",
                    "midi": 79,
                    "time": 227.54108600000131,
                    "velocity": 0.6299212598425197,
                    "duration": 0.10928966666665474
                },
                {
                    "name": "D5",
                    "midi": 74,
                    "time": 227.54108600000131,
                    "velocity": 0.6299212598425197,
                    "duration": 0.10928966666665474
                },
                {
                    "name": "A5",
                    "midi": 81,
                    "time": 227.65037566666797,
                    "velocity": 0.5984251968503937,
                    "duration": 0.10928966666665474
                },
                {
                    "name": "G5",
                    "midi": 79,
                    "time": 227.75966533333462,
                    "velocity": 0.5984251968503937,
                    "duration": 0.10928966666665474
                },
                {
                    "name": "F5",
                    "midi": 77,
                    "time": 227.86895500000128,
                    "velocity": 0.6299212598425197,
                    "duration": 0.10928966666665474
                },
                {
                    "name": "D5",
                    "midi": 74,
                    "time": 227.97824466666793,
                    "velocity": 0.5984251968503937,
                    "duration": 0.10928966666665474
                },
                {
                    "name": "F5",
                    "midi": 77,
                    "time": 228.0875343333346,
                    "velocity": 0.5984251968503937,
                    "duration": 0.10928966666665474
                },
                {
                    "name": "C5",
                    "midi": 72,
                    "time": 228.19682400000124,
                    "velocity": 0.5748031496062992,
                    "duration": 0.6557380000000137
                },
                {
                    "name": "C6",
                    "midi": 84,
                    "time": 228.19682400000124,
                    "velocity": 0.6850393700787402,
                    "duration": 0.6557380000000137
                },
                {
                    "name": "A5",
                    "midi": 81,
                    "time": 228.19682400000124,
                    "velocity": 0.5748031496062992,
                    "duration": 0.6557380000000137
                },
                {
                    "name": "F5",
                    "midi": 77,
                    "time": 228.19682400000124,
                    "velocity": 0.5748031496062992,
                    "duration": 0.6557380000000137
                },
                {
                    "name": "F5",
                    "midi": 77,
                    "time": 230.81977600000127,
                    "velocity": 0.6535433070866141,
                    "duration": 0.6557380000000137
                },
                {
                    "name": "F6",
                    "midi": 89,
                    "time": 230.81977600000127,
                    "velocity": 0.7795275590551181,
                    "duration": 0.6557380000000137
                },
                {
                    "name": "C6",
                    "midi": 84,
                    "time": 230.81977600000127,
                    "velocity": 0.6535433070866141,
                    "duration": 0.6557380000000137
                },
                {
                    "name": "A5",
                    "midi": 81,
                    "time": 230.81977600000127,
                    "velocity": 0.6535433070866141,
                    "duration": 0.6557380000000137
                }
            ],
            "controlChanges": {
                "7": [
                    {
                        "number": 7,
                        "time": 0,
                        "value": 0.7874015748031497
                    }
                ],
                "10": [
                    {
                        "number": 10,
                        "time": 0,
                        "value": 0.5039370078740157
                    }
                ],
                "91": [
                    {
                        "number": 91,
                        "time": 0,
                        "value": 1
                    },
                    {
                        "number": 91,
                        "time": 15.737711999999991,
                        "value": 1
                    },
                    {
                        "number": 91,
                        "time": 170.4918799999995,
                        "value": 1
                    },
                    {
                        "number": 91,
                        "time": 186.22959200000003,
                        "value": 1
                    }
                ]
            },
            "id": 1,
            "name": "Piano right",
            "instrumentNumber": 0,
            "instrument": "acoustic grand piano",
            "instrumentFamily": "piano",
            "channelNumber": 0,
            "isPercussion": false
        },
        {
            "startTime": 0.0013661208333333335,
            "duration": 231.4755140000002,
            "length": 629,
            "notes": [
                {
                    "name": "F1",
                    "midi": 29,
                    "time": 0.0013661208333333335,
                    "velocity": 0.6850393700787402,
                    "duration": 0.327869
                },
                {
                    "name": "F2",
                    "midi": 41,
                    "time": 0.327869,
                    "velocity": 0.6141732283464567,
                    "duration": 0.327869
                },
                {
                    "name": "C3",
                    "midi": 48,
                    "time": 0.655738,
                    "velocity": 0.6377952755905512,
                    "duration": 0.3005465833333333
                },
                {
                    "name": "C3",
                    "midi": 48,
                    "time": 0.983607,
                    "velocity": 0.6377952755905512,
                    "duration": 2.2950830000000004
                },
                {
                    "name": "D4",
                    "midi": 62,
                    "time": 1.311476,
                    "velocity": 0.5511811023622047,
                    "duration": 1.9672140000000005
                },
                {
                    "name": "A#3",
                    "midi": 58,
                    "time": 1.311476,
                    "velocity": 0.4566929133858268,
                    "duration": 1.9672140000000005
                },
                {
                    "name": "G3",
                    "midi": 55,
                    "time": 1.311476,
                    "velocity": 0.4566929133858268,
                    "duration": 1.9672140000000005
                },
                {
                    "name": "F2",
                    "midi": 41,
                    "time": 5.245904000000001,
                    "velocity": 0.28346456692913385,
                    "duration": 1.3114759999999999
                },
                {
                    "name": "C3",
                    "midi": 48,
                    "time": 5.245904000000001,
                    "velocity": 0.28346456692913385,
                    "duration": 1.3114759999999999
                },
                {
                    "name": "A3",
                    "midi": 57,
                    "time": 5.245904000000001,
                    "velocity": 0.3464566929133858,
                    "duration": 2.6229519999999997
                },
                {
                    "name": "F3",
                    "midi": 53,
                    "time": 6.557380000000001,
                    "velocity": 0.29133858267716534,
                    "duration": 1.3114759999999999
                },
                {
                    "name": "A#2",
                    "midi": 46,
                    "time": 6.557380000000001,
                    "velocity": 0.29133858267716534,
                    "duration": 1.3114759999999999
                },
                {
                    "name": "A3",
                    "midi": 57,
                    "time": 7.868856000000001,
                    "velocity": 0.29133858267716534,
                    "duration": 2.6229520000000015
                },
                {
                    "name": "C3",
                    "midi": 48,
                    "time": 7.868856000000001,
                    "velocity": 0.29133858267716534,
                    "duration": 1.3114760000000008
                },
                {
                    "name": "D3",
                    "midi": 50,
                    "time": 9.180332000000002,
                    "velocity": 0.3543307086614173,
                    "duration": 1.3114760000000008
                },
                {
                    "name": "A#2",
                    "midi": 46,
                    "time": 10.491808000000002,
                    "velocity": 0.3228346456692913,
                    "duration": 0.6557380000000013
                },
                {
                    "name": "F3",
                    "midi": 53,
                    "time": 10.491808000000002,
                    "velocity": 0.3228346456692913,
                    "duration": 0.6557380000000013
                },
                {
                    "name": "A#3",
                    "midi": 58,
                    "time": 10.491808000000002,
                    "velocity": 0.3228346456692913,
                    "duration": 0.6557380000000013
                },
                {
                    "name": "A#3",
                    "midi": 58,
                    "time": 11.147546000000004,
                    "velocity": 0.33070866141732286,
                    "duration": 1.9672139999999985
                },
                {
                    "name": "F4",
                    "midi": 65,
                    "time": 11.147546000000004,
                    "velocity": 0.3700787401574803,
                    "duration": 0.6557379999999995
                },
                {
                    "name": "E4",
                    "midi": 64,
                    "time": 11.803284000000003,
                    "velocity": 0.3700787401574803,
                    "duration": 0.6557379999999995
                },
                {
                    "name": "D4",
                    "midi": 62,
                    "time": 12.459022000000003,
                    "velocity": 0.4015748031496063,
                    "duration": 0.32786899999999974
                },
                {
                    "name": "E4",
                    "midi": 64,
                    "time": 12.786891000000002,
                    "velocity": 0.41732283464566927,
                    "duration": 0.4918034999999996
                },
                {
                    "name": "A3",
                    "midi": 57,
                    "time": 13.114760000000002,
                    "velocity": 0.41732283464566927,
                    "duration": 1.311475999999999
                },
                {
                    "name": "F4",
                    "midi": 65,
                    "time": 13.278694500000002,
                    "velocity": 0.3543307086614173,
                    "duration": 0.16393449999999987
                },
                {
                    "name": "G4",
                    "midi": 67,
                    "time": 13.442629000000002,
                    "velocity": 0.3543307086614173,
                    "duration": 0.16393449999999987
                },
                {
                    "name": "A4",
                    "midi": 69,
                    "time": 13.606563500000002,
                    "velocity": 0.3543307086614173,
                    "duration": 0.16393449999999987
                },
                {
                    "name": "D4",
                    "midi": 62,
                    "time": 13.770498000000002,
                    "velocity": 0.3543307086614173,
                    "duration": 0.9836069999999992
                },
                {
                    "name": "G3",
                    "midi": 55,
                    "time": 14.426236000000001,
                    "velocity": 0.36220472440944884,
                    "duration": 0.6557379999999995
                },
                {
                    "name": "E4",
                    "midi": 64,
                    "time": 14.754105000000001,
                    "velocity": 0.3543307086614173,
                    "duration": 0.32786899999999974
                },
                {
                    "name": "C3",
                    "midi": 48,
                    "time": 15.081974,
                    "velocity": 0.3228346456692913,
                    "duration": 0.6557379999999995
                },
                {
                    "name": "F1",
                    "midi": 29,
                    "time": 15.739078120833334,
                    "velocity": 0.7007874015748031,
                    "duration": 0.32786899999999974
                },
                {
                    "name": "F2",
                    "midi": 41,
                    "time": 16.065581,
                    "velocity": 0.6062992125984252,
                    "duration": 0.32786899999999974
                },
                {
                    "name": "C3",
                    "midi": 48,
                    "time": 16.39345,
                    "velocity": 0.6377952755905512,
                    "duration": 0.3005465833333325
                },
                {
                    "name": "C3",
                    "midi": 48,
                    "time": 16.721319,
                    "velocity": 0.6377952755905512,
                    "duration": 2.2950830000000018
                },
                {
                    "name": "D4",
                    "midi": 62,
                    "time": 17.049188,
                    "velocity": 0.5590551181102362,
                    "duration": 1.967214000000002
                },
                {
                    "name": "A#3",
                    "midi": 58,
                    "time": 17.049188,
                    "velocity": 0.47244094488188976,
                    "duration": 1.967214000000002
                },
                {
                    "name": "G3",
                    "midi": 55,
                    "time": 17.049188,
                    "velocity": 0.47244094488188976,
                    "duration": 1.967214000000002
                },
                {
                    "name": "D#4",
                    "midi": 63,
                    "time": 20.983616000000005,
                    "velocity": 0.28346456692913385,
                    "duration": 2.622951999999998
                },
                {
                    "name": "A#3",
                    "midi": 58,
                    "time": 20.983616000000005,
                    "velocity": 0.33858267716535434,
                    "duration": 1.311475999999999
                },
                {
                    "name": "C4",
                    "midi": 60,
                    "time": 20.993178845833338,
                    "velocity": 0.28346456692913385,
                    "duration": 2.622951999999998
                },
                {
                    "name": "A3",
                    "midi": 57,
                    "time": 22.295092000000004,
                    "velocity": 0.2992125984251969,
                    "duration": 1.311475999999999
                },
                {
                    "name": "D4",
                    "midi": 62,
                    "time": 23.606568000000003,
                    "velocity": 0.3228346456692913,
                    "duration": 1.311475999999999
                },
                {
                    "name": "A#3",
                    "midi": 58,
                    "time": 23.606568000000003,
                    "velocity": 0.2755905511811024,
                    "duration": 1.311475999999999
                },
                {
                    "name": "D#3",
                    "midi": 51,
                    "time": 23.606568000000003,
                    "velocity": 0.2755905511811024,
                    "duration": 1.311475999999999
                },
                {
                    "name": "F2",
                    "midi": 41,
                    "time": 24.918044000000002,
                    "velocity": 0.25196850393700787,
                    "duration": 1.311475999999999
                },
                {
                    "name": "C3",
                    "midi": 48,
                    "time": 24.918044000000002,
                    "velocity": 0.25196850393700787,
                    "duration": 1.311475999999999
                },
                {
                    "name": "A3",
                    "midi": 57,
                    "time": 24.918044000000002,
                    "velocity": 0.2992125984251969,
                    "duration": 1.311475999999999
                },
                {
                    "name": "A#1",
                    "midi": 34,
                    "time": 26.22952,
                    "velocity": 0.5669291338582677,
                    "duration": 0.32786899999999974
                },
                {
                    "name": "A#2",
                    "midi": 46,
                    "time": 26.22952,
                    "velocity": 0.5669291338582677,
                    "duration": 0.32786899999999974
                },
                {
                    "name": "F3",
                    "midi": 53,
                    "time": 26.557389,
                    "velocity": 0.5669291338582677,
                    "duration": 0.32786899999999974
                },
                {
                    "name": "D4",
                    "midi": 62,
                    "time": 26.885258,
                    "velocity": 0.33070866141732286,
                    "duration": 0.9836069999999992
                },
                {
                    "name": "F4",
                    "midi": 65,
                    "time": 26.885258,
                    "velocity": 0.3937007874015748,
                    "duration": 0.9836069999999992
                },
                {
                    "name": "E4",
                    "midi": 64,
                    "time": 27.868865,
                    "velocity": 0.29133858267716534,
                    "duration": 0.16393449999999987
                },
                {
                    "name": "G4",
                    "midi": 67,
                    "time": 27.868865,
                    "velocity": 0.3464566929133858,
                    "duration": 0.16393449999999987
                },
                {
                    "name": "F4",
                    "midi": 65,
                    "time": 28.0327995,
                    "velocity": 0.28346456692913385,
                    "duration": 0.16393449999999987
                },
                {
                    "name": "A4",
                    "midi": 69,
                    "time": 28.0327995,
                    "velocity": 0.33858267716535434,
                    "duration": 0.16393449999999987
                },
                {
                    "name": "E4",
                    "midi": 64,
                    "time": 28.196734,
                    "velocity": 0.3228346456692913,
                    "duration": 0.32786899999999974
                },
                {
                    "name": "G4",
                    "midi": 67,
                    "time": 28.196734,
                    "velocity": 0.3858267716535433,
                    "duration": 0.32786899999999974
                },
                {
                    "name": "D4",
                    "midi": 62,
                    "time": 28.524603,
                    "velocity": 0.2755905511811024,
                    "duration": 0.16393449999999987
                },
                {
                    "name": "F4",
                    "midi": 65,
                    "time": 28.524603,
                    "velocity": 0.33070866141732286,
                    "duration": 0.16393449999999987
                },
                {
                    "name": "E4",
                    "midi": 64,
                    "time": 28.6885375,
                    "velocity": 0.2755905511811024,
                    "duration": 0.16393449999999987
                },
                {
                    "name": "G4",
                    "midi": 67,
                    "time": 28.6885375,
                    "velocity": 0.33070866141732286,
                    "duration": 0.16393449999999987
                },
                {
                    "name": "D4",
                    "midi": 62,
                    "time": 28.852472,
                    "velocity": 0.31496062992125984,
                    "duration": 0.3210383958333338
                },
                {
                    "name": "F4",
                    "midi": 65,
                    "time": 28.852472,
                    "velocity": 0.3700787401574803,
                    "duration": 0.3210383958333338
                },
                {
                    "name": "C4",
                    "midi": 60,
                    "time": 29.180341,
                    "velocity": 0.29133858267716534,
                    "duration": 0.29508209999999835
                },
                {
                    "name": "E4",
                    "midi": 64,
                    "time": 29.180341,
                    "velocity": 0.3464566929133858,
                    "duration": 0.29508209999999835
                },
                {
                    "name": "C4",
                    "midi": 60,
                    "time": 29.50821,
                    "velocity": 0.2992125984251969,
                    "duration": 0.3005465833333325
                },
                {
                    "name": "E4",
                    "midi": 64,
                    "time": 29.50821,
                    "velocity": 0.3543307086614173,
                    "duration": 0.3005465833333325
                },
                {
                    "name": "A#3",
                    "midi": 58,
                    "time": 29.836078999999998,
                    "velocity": 0.2992125984251969,
                    "duration": 0.32786899999999974
                },
                {
                    "name": "F4",
                    "midi": 65,
                    "time": 29.836078999999998,
                    "velocity": 0.3543307086614173,
                    "duration": 0.32786899999999974
                },
                {
                    "name": "E4",
                    "midi": 64,
                    "time": 30.163947999999998,
                    "velocity": 0.3464566929133858,
                    "duration": 0.3142077916666679
                },
                {
                    "name": "C4",
                    "midi": 60,
                    "time": 30.163947999999998,
                    "velocity": 0.29133858267716534,
                    "duration": 0.3142077916666679
                },
                {
                    "name": "A3",
                    "midi": 57,
                    "time": 30.163947999999998,
                    "velocity": 0.29133858267716534,
                    "duration": 0.3142077916666679
                },
                {
                    "name": "G3",
                    "midi": 55,
                    "time": 30.491816999999998,
                    "velocity": 0.30708661417322836,
                    "duration": 0.29508209999999835
                },
                {
                    "name": "A#3",
                    "midi": 58,
                    "time": 30.491816999999998,
                    "velocity": 0.30708661417322836,
                    "duration": 0.29508209999999835
                },
                {
                    "name": "D4",
                    "midi": 62,
                    "time": 30.491816999999998,
                    "velocity": 0.36220472440944884,
                    "duration": 0.29508209999999835
                },
                {
                    "name": "G3",
                    "midi": 55,
                    "time": 30.819685999999997,
                    "velocity": 0.33858267716535434,
                    "duration": 0.32786899999999974
                },
                {
                    "name": "A#3",
                    "midi": 58,
                    "time": 30.819685999999997,
                    "velocity": 0.33858267716535434,
                    "duration": 0.32786899999999974
                },
                {
                    "name": "D4",
                    "midi": 62,
                    "time": 30.819685999999997,
                    "velocity": 0.3937007874015748,
                    "duration": 0.32786899999999974
                },
                {
                    "name": "F3",
                    "midi": 53,
                    "time": 31.147554999999997,
                    "velocity": 0.31496062992125984,
                    "duration": 0.32786899999999974
                },
                {
                    "name": "A3",
                    "midi": 57,
                    "time": 31.147554999999997,
                    "velocity": 0.31496062992125984,
                    "duration": 0.32786899999999974
                },
                {
                    "name": "C#4",
                    "midi": 61,
                    "time": 31.147554999999997,
                    "velocity": 0.3779527559055118,
                    "duration": 0.32786899999999974
                },
                {
                    "name": "A#1",
                    "midi": 34,
                    "time": 31.475423999999997,
                    "velocity": 0.48031496062992124,
                    "duration": 0.32786899999999974
                },
                {
                    "name": "A#2",
                    "midi": 46,
                    "time": 31.475423999999997,
                    "velocity": 0.5669291338582677,
                    "duration": 0.32786899999999974
                },
                {
                    "name": "F3",
                    "midi": 53,
                    "time": 31.803292999999996,
                    "velocity": 0.5669291338582677,
                    "duration": 0.32786899999999974
                },
                {
                    "name": "D4",
                    "midi": 62,
                    "time": 32.131161999999996,
                    "velocity": 0.3543307086614173,
                    "duration": 0.9836069999999992
                },
                {
                    "name": "F4",
                    "midi": 65,
                    "time": 32.131161999999996,
                    "velocity": 0.41732283464566927,
                    "duration": 0.9836069999999992
                },
                {
                    "name": "E4",
                    "midi": 64,
                    "time": 33.114768999999995,
                    "velocity": 0.31496062992125984,
                    "duration": 0.16393450000000342
                },
                {
                    "name": "G4",
                    "midi": 67,
                    "time": 33.114768999999995,
                    "velocity": 0.3700787401574803,
                    "duration": 0.16393450000000342
                },
                {
                    "name": "F4",
                    "midi": 65,
                    "time": 33.2787035,
                    "velocity": 0.30708661417322836,
                    "duration": 0.16393450000000342
                },
                {
                    "name": "A4",
                    "midi": 69,
                    "time": 33.2787035,
                    "velocity": 0.36220472440944884,
                    "duration": 0.16393450000000342
                },
                {
                    "name": "E4",
                    "midi": 64,
                    "time": 33.442638,
                    "velocity": 0.33858267716535434,
                    "duration": 0.32786899999999974
                },
                {
                    "name": "G4",
                    "midi": 67,
                    "time": 33.442638,
                    "velocity": 0.4015748031496063,
                    "duration": 0.32786899999999974
                },
                {
                    "name": "D4",
                    "midi": 62,
                    "time": 33.770507,
                    "velocity": 0.30708661417322836,
                    "duration": 0.16393450000000342
                },
                {
                    "name": "F4",
                    "midi": 65,
                    "time": 33.770507,
                    "velocity": 0.36220472440944884,
                    "duration": 0.16393450000000342
                },
                {
                    "name": "E4",
                    "midi": 64,
                    "time": 33.934441500000005,
                    "velocity": 0.30708661417322836,
                    "duration": 0.16393450000000342
                },
                {
                    "name": "G4",
                    "midi": 67,
                    "time": 33.934441500000005,
                    "velocity": 0.36220472440944884,
                    "duration": 0.16393450000000342
                },
                {
                    "name": "D4",
                    "midi": 62,
                    "time": 34.09837600000001,
                    "velocity": 0.33070866141732286,
                    "duration": 0.3210383958333338
                },
                {
                    "name": "F4",
                    "midi": 65,
                    "time": 34.09837600000001,
                    "velocity": 0.4015748031496063,
                    "duration": 0.3210383958333338
                },
                {
                    "name": "C4",
                    "midi": 60,
                    "time": 34.42624500000001,
                    "velocity": 0.31496062992125984,
                    "duration": 0.2950821000000019
                },
                {
                    "name": "E4",
                    "midi": 64,
                    "time": 34.42624500000001,
                    "velocity": 0.3700787401574803,
                    "duration": 0.2950821000000019
                },
                {
                    "name": "C4",
                    "midi": 60,
                    "time": 34.75411400000001,
                    "velocity": 0.31496062992125984,
                    "duration": 0.30054658333333606
                },
                {
                    "name": "E4",
                    "midi": 64,
                    "time": 34.75411400000001,
                    "velocity": 0.3700787401574803,
                    "duration": 0.30054658333333606
                },
                {
                    "name": "A#3",
                    "midi": 58,
                    "time": 35.08198300000001,
                    "velocity": 0.31496062992125984,
                    "duration": 0.32786899999999974
                },
                {
                    "name": "F4",
                    "midi": 65,
                    "time": 35.08198300000001,
                    "velocity": 0.3779527559055118,
                    "duration": 0.32786899999999974
                },
                {
                    "name": "E4",
                    "midi": 64,
                    "time": 35.40985200000001,
                    "velocity": 0.3779527559055118,
                    "duration": 0.3142077916666679
                },
                {
                    "name": "C4",
                    "midi": 60,
                    "time": 35.40985200000001,
                    "velocity": 0.3228346456692913,
                    "duration": 0.3142077916666679
                },
                {
                    "name": "A3",
                    "midi": 57,
                    "time": 35.40985200000001,
                    "velocity": 0.3228346456692913,
                    "duration": 0.3142077916666679
                },
                {
                    "name": "G3",
                    "midi": 55,
                    "time": 35.73772100000001,
                    "velocity": 0.3228346456692913,
                    "duration": 0.2950821000000019
                },
                {
                    "name": "A#3",
                    "midi": 58,
                    "time": 35.73772100000001,
                    "velocity": 0.3228346456692913,
                    "duration": 0.2950821000000019
                },
                {
                    "name": "D4",
                    "midi": 62,
                    "time": 35.73772100000001,
                    "velocity": 0.3779527559055118,
                    "duration": 0.2950821000000019
                },
                {
                    "name": "G3",
                    "midi": 55,
                    "time": 36.06559000000001,
                    "velocity": 0.3543307086614173,
                    "duration": 0.32786899999999974
                },
                {
                    "name": "A#3",
                    "midi": 58,
                    "time": 36.06559000000001,
                    "velocity": 0.3543307086614173,
                    "duration": 0.32786899999999974
                },
                {
                    "name": "D4",
                    "midi": 62,
                    "time": 36.06559000000001,
                    "velocity": 0.4330708661417323,
                    "duration": 0.32786899999999974
                },
                {
                    "name": "F3",
                    "midi": 53,
                    "time": 36.39345900000001,
                    "velocity": 0.3464566929133858,
                    "duration": 0.32786899999999974
                },
                {
                    "name": "A3",
                    "midi": 57,
                    "time": 36.39345900000001,
                    "velocity": 0.3464566929133858,
                    "duration": 0.32786899999999974
                },
                {
                    "name": "C#4",
                    "midi": 61,
                    "time": 36.39345900000001,
                    "velocity": 0.41732283464566927,
                    "duration": 0.32786899999999974
                },
                {
                    "name": "G1",
                    "midi": 31,
                    "time": 36.72132800000001,
                    "velocity": 0.41732283464566927,
                    "duration": 0.27322416666666527
                },
                {
                    "name": "G2",
                    "midi": 43,
                    "time": 36.72132800000001,
                    "velocity": 0.4566929133858268,
                    "duration": 0.27322416666666527
                },
                {
                    "name": "F3",
                    "midi": 53,
                    "time": 37.04919700000001,
                    "velocity": 0.29133858267716534,
                    "duration": 0.32786899999999974
                },
                {
                    "name": "G3",
                    "midi": 55,
                    "time": 37.377066000000006,
                    "velocity": 0.29133858267716534,
                    "duration": 0.32786899999999974
                },
                {
                    "name": "A#3",
                    "midi": 58,
                    "time": 37.704935000000006,
                    "velocity": 0.29133858267716534,
                    "duration": 0.32786899999999974
                },
                {
                    "name": "D4",
                    "midi": 62,
                    "time": 38.032804000000006,
                    "velocity": 0.30708661417322836,
                    "duration": 0.32786899999999974
                },
                {
                    "name": "F4",
                    "midi": 65,
                    "time": 38.360673000000006,
                    "velocity": 0.28346456692913385,
                    "duration": 0.32786899999999974
                },
                {
                    "name": "G4",
                    "midi": 67,
                    "time": 38.688542000000005,
                    "velocity": 0.28346456692913385,
                    "duration": 0.32786899999999974
                },
                {
                    "name": "F4",
                    "midi": 65,
                    "time": 39.016411000000005,
                    "velocity": 0.28346456692913385,
                    "duration": 0.3251367583333362
                },
                {
                    "name": "E4",
                    "midi": 64,
                    "time": 39.672149000000005,
                    "velocity": 0.3779527559055118,
                    "duration": 0.32786899999999974
                },
                {
                    "name": "D4",
                    "midi": 62,
                    "time": 40.000018000000004,
                    "velocity": 0.36220472440944884,
                    "duration": 0.16393450000000342
                },
                {
                    "name": "C4",
                    "midi": 60,
                    "time": 40.16395250000001,
                    "velocity": 0.36220472440944884,
                    "duration": 0.16393450000000342
                },
                {
                    "name": "A#3",
                    "midi": 58,
                    "time": 40.32788700000001,
                    "velocity": 0.3779527559055118,
                    "duration": 0.32786899999999974
                },
                {
                    "name": "A3",
                    "midi": 57,
                    "time": 40.65575600000001,
                    "velocity": 0.3858267716535433,
                    "duration": 0.30054658333333606
                },
                {
                    "name": "G3",
                    "midi": 55,
                    "time": 40.98362500000001,
                    "velocity": 0.4566929133858268,
                    "duration": 0.30054658333333606
                },
                {
                    "name": "F3",
                    "midi": 53,
                    "time": 41.31149400000001,
                    "velocity": 0.4409448818897638,
                    "duration": 0.30054658333333606
                },
                {
                    "name": "D3",
                    "midi": 50,
                    "time": 41.63936300000001,
                    "velocity": 0.4566929133858268,
                    "duration": 0.27322416666666527
                },
                {
                    "name": "A1",
                    "midi": 33,
                    "time": 42.29510100000001,
                    "velocity": 0.3779527559055118,
                    "duration": 0.16393450000000342
                },
                {
                    "name": "A2",
                    "midi": 45,
                    "time": 42.29510100000001,
                    "velocity": 0.44881889763779526,
                    "duration": 0.16393450000000342
                },
                {
                    "name": "A#1",
                    "midi": 34,
                    "time": 42.62297000000002,
                    "velocity": 0.3700787401574803,
                    "duration": 0.16393450000000342
                },
                {
                    "name": "A#2",
                    "midi": 46,
                    "time": 42.62297000000002,
                    "velocity": 0.4409448818897638,
                    "duration": 0.16393450000000342
                },
                {
                    "name": "C2",
                    "midi": 36,
                    "time": 42.95083900000002,
                    "velocity": 0.3779527559055118,
                    "duration": 0.16393450000000342
                },
                {
                    "name": "C3",
                    "midi": 48,
                    "time": 42.95083900000002,
                    "velocity": 0.44881889763779526,
                    "duration": 0.16393450000000342
                },
                {
                    "name": "E3",
                    "midi": 52,
                    "time": 43.60657700000003,
                    "velocity": 0.49606299212598426,
                    "duration": 0.32786899999999974
                },
                {
                    "name": "A2",
                    "midi": 45,
                    "time": 43.60657700000003,
                    "velocity": 0.41732283464566927,
                    "duration": 0.32786899999999974
                },
                {
                    "name": "D3",
                    "midi": 50,
                    "time": 43.93444600000003,
                    "velocity": 0.49606299212598426,
                    "duration": 0.32786899999999974
                },
                {
                    "name": "C3",
                    "midi": 48,
                    "time": 44.26231500000003,
                    "velocity": 0.41732283464566927,
                    "duration": 0.32786899999999974
                },
                {
                    "name": "E3",
                    "midi": 52,
                    "time": 44.26231500000003,
                    "velocity": 0.49606299212598426,
                    "duration": 0.32786899999999974
                },
                {
                    "name": "A#2",
                    "midi": 46,
                    "time": 44.59018400000003,
                    "velocity": 0.3700787401574803,
                    "duration": 0.32786899999999974
                },
                {
                    "name": "F3",
                    "midi": 53,
                    "time": 44.59018400000003,
                    "velocity": 0.4409448818897638,
                    "duration": 0.32786899999999974
                },
                {
                    "name": "A2",
                    "midi": 45,
                    "time": 44.91805300000003,
                    "velocity": 0.3543307086614173,
                    "duration": 0.32786899999999974
                },
                {
                    "name": "A3",
                    "midi": 57,
                    "time": 44.91805300000003,
                    "velocity": 0.41732283464566927,
                    "duration": 0.32786899999999974
                },
                {
                    "name": "G2",
                    "midi": 43,
                    "time": 45.24592200000003,
                    "velocity": 0.33858267716535434,
                    "duration": 1.311475999999999
                },
                {
                    "name": "D3",
                    "midi": 50,
                    "time": 45.24592200000003,
                    "velocity": 0.33858267716535434,
                    "duration": 1.311475999999999
                },
                {
                    "name": "A#3",
                    "midi": 58,
                    "time": 45.24592200000003,
                    "velocity": 0.4015748031496063,
                    "duration": 1.311475999999999
                },
                {
                    "name": "C3",
                    "midi": 48,
                    "time": 46.55739800000003,
                    "velocity": 0.31496062992125984,
                    "duration": 0.6557380000000066
                },
                {
                    "name": "A#3",
                    "midi": 58,
                    "time": 46.55739800000003,
                    "velocity": 0.36220472440944884,
                    "duration": 0.6557380000000066
                },
                {
                    "name": "F2",
                    "midi": 41,
                    "time": 47.213136000000034,
                    "velocity": 0.4015748031496063,
                    "duration": 0.32786899999999974
                },
                {
                    "name": "F1",
                    "midi": 29,
                    "time": 47.213136000000034,
                    "velocity": 0.31496062992125984,
                    "duration": 2.622952000000005
                },
                {
                    "name": "C3",
                    "midi": 48,
                    "time": 47.541005000000034,
                    "velocity": 0.36220472440944884,
                    "duration": 0.6557379999999995
                },
                {
                    "name": "F3",
                    "midi": 53,
                    "time": 48.19674300000003,
                    "velocity": 0.33070866141732286,
                    "duration": 0.6557379999999995
                },
                {
                    "name": "C4",
                    "midi": 60,
                    "time": 48.85248100000003,
                    "velocity": 0.25984251968503935,
                    "duration": 0.6557379999999995
                },
                {
                    "name": "F4",
                    "midi": 65,
                    "time": 49.50821900000003,
                    "velocity": 0.23622047244094488,
                    "duration": 0.2185793333333379
                },
                {
                    "name": "A3",
                    "midi": 57,
                    "time": 49.754120750000034,
                    "velocity": 0.2204724409448819,
                    "duration": 2.0491812500000037
                },
                {
                    "name": "E4",
                    "midi": 64,
                    "time": 49.79510437500004,
                    "velocity": 0.2204724409448819,
                    "duration": 2.008197625000001
                },
                {
                    "name": "C5",
                    "midi": 72,
                    "time": 49.83608800000004,
                    "velocity": 0.25984251968503935,
                    "duration": 1.9672139999999985
                },
                {
                    "name": "A3",
                    "midi": 57,
                    "time": 51.80330200000004,
                    "velocity": 0.25984251968503935,
                    "duration": 0.32786899999999974
                },
                {
                    "name": "D3",
                    "midi": 50,
                    "time": 51.80330200000004,
                    "velocity": 0.2440944881889764,
                    "duration": 0.32786899999999974
                },
                {
                    "name": "B5",
                    "midi": 83,
                    "time": 52.13117100000004,
                    "velocity": 0.29133858267716534,
                    "duration": 0.32786899999999974
                },
                {
                    "name": "A5",
                    "midi": 81,
                    "time": 52.13117100000004,
                    "velocity": 0.29133858267716534,
                    "duration": 0.32786899999999974
                },
                {
                    "name": "F5",
                    "midi": 77,
                    "time": 52.13117100000004,
                    "velocity": 0.29133858267716534,
                    "duration": 0.32786899999999974
                },
                {
                    "name": "A3",
                    "midi": 57,
                    "time": 52.45904000000004,
                    "velocity": 0.2125984251968504,
                    "duration": 1.9672139999999985
                },
                {
                    "name": "E4",
                    "midi": 64,
                    "time": 52.45904000000004,
                    "velocity": 0.2125984251968504,
                    "duration": 1.9672139999999985
                },
                {
                    "name": "C5",
                    "midi": 72,
                    "time": 52.45904000000004,
                    "velocity": 0.25984251968503935,
                    "duration": 1.9672139999999985
                },
                {
                    "name": "C4",
                    "midi": 60,
                    "time": 54.426254000000036,
                    "velocity": 0.25984251968503935,
                    "duration": 0.6557379999999995
                },
                {
                    "name": "D3",
                    "midi": 50,
                    "time": 54.426254000000036,
                    "velocity": 0.2125984251968504,
                    "duration": 0.6557379999999995
                },
                {
                    "name": "G2",
                    "midi": 43,
                    "time": 55.081992000000035,
                    "velocity": 0.2283464566929134,
                    "duration": 0.32786899999999974
                },
                {
                    "name": "D3",
                    "midi": 50,
                    "time": 55.081992000000035,
                    "velocity": 0.2283464566929134,
                    "duration": 0.32786899999999974
                },
                {
                    "name": "B3",
                    "midi": 59,
                    "time": 55.081992000000035,
                    "velocity": 0.2755905511811024,
                    "duration": 0.32786899999999974
                },
                {
                    "name": "C3",
                    "midi": 48,
                    "time": 55.409861000000035,
                    "velocity": 0.2755905511811024,
                    "duration": 0.6557379999999995
                },
                {
                    "name": "G3",
                    "midi": 55,
                    "time": 55.409861000000035,
                    "velocity": 0.3228346456692913,
                    "duration": 0.6557379999999995
                },
                {
                    "name": "F2",
                    "midi": 41,
                    "time": 56.065599000000034,
                    "velocity": 0.2440944881889764,
                    "duration": 0.6557379999999995
                },
                {
                    "name": "C3",
                    "midi": 48,
                    "time": 56.065599000000034,
                    "velocity": 0.29133858267716534,
                    "duration": 1.6393449999999987
                },
                {
                    "name": "E2",
                    "midi": 40,
                    "time": 56.721337000000034,
                    "velocity": 0.2755905511811024,
                    "duration": 0.32786899999999974
                },
                {
                    "name": "D2",
                    "midi": 38,
                    "time": 57.049206000000034,
                    "velocity": 0.2755905511811024,
                    "duration": 0.6557379999999995
                },
                {
                    "name": "G2",
                    "midi": 43,
                    "time": 57.70494400000003,
                    "velocity": 0.2440944881889764,
                    "duration": 2.295082999999998
                },
                {
                    "name": "F3",
                    "midi": 53,
                    "time": 57.70494400000003,
                    "velocity": 0.29133858267716534,
                    "duration": 2.295082999999998
                },
                {
                    "name": "E2",
                    "midi": 40,
                    "time": 60.00002700000003,
                    "velocity": 0.15748031496062992,
                    "duration": 0.32786899999999974
                },
                {
                    "name": "B2",
                    "midi": 47,
                    "time": 60.00002700000003,
                    "velocity": 0.15748031496062992,
                    "duration": 0.32786899999999974
                },
                {
                    "name": "E3",
                    "midi": 52,
                    "time": 60.00002700000003,
                    "velocity": 0.1968503937007874,
                    "duration": 0.32786899999999974
                },
                {
                    "name": "A3",
                    "midi": 57,
                    "time": 60.32789600000003,
                    "velocity": 0.23622047244094488,
                    "duration": 1.9672139999999985
                },
                {
                    "name": "E4",
                    "midi": 64,
                    "time": 60.32789600000003,
                    "velocity": 0.23622047244094488,
                    "duration": 1.9672139999999985
                },
                {
                    "name": "C5",
                    "midi": 72,
                    "time": 60.32789600000003,
                    "velocity": 0.23622047244094488,
                    "duration": 1.9672139999999985
                },
                {
                    "name": "A3",
                    "midi": 57,
                    "time": 62.29511000000003,
                    "velocity": 0.25984251968503935,
                    "duration": 0.32786899999999974
                },
                {
                    "name": "D3",
                    "midi": 50,
                    "time": 62.29511000000003,
                    "velocity": 0.2125984251968504,
                    "duration": 0.32786899999999974
                },
                {
                    "name": "B5",
                    "midi": 83,
                    "time": 62.62297900000003,
                    "velocity": 0.29133858267716534,
                    "duration": 0.32786899999999974
                },
                {
                    "name": "A5",
                    "midi": 81,
                    "time": 62.62297900000003,
                    "velocity": 0.29133858267716534,
                    "duration": 0.32786899999999974
                },
                {
                    "name": "F5",
                    "midi": 77,
                    "time": 62.62297900000003,
                    "velocity": 0.29133858267716534,
                    "duration": 0.32786899999999974
                },
                {
                    "name": "A3",
                    "midi": 57,
                    "time": 62.95084800000003,
                    "velocity": 0.2125984251968504,
                    "duration": 1.311476000000006
                },
                {
                    "name": "E4",
                    "midi": 64,
                    "time": 62.95084800000003,
                    "velocity": 0.2125984251968504,
                    "duration": 1.311476000000006
                },
                {
                    "name": "C5",
                    "midi": 72,
                    "time": 62.95084800000003,
                    "velocity": 0.25984251968503935,
                    "duration": 1.311476000000006
                },
                {
                    "name": "D4",
                    "midi": 62,
                    "time": 64.26232400000004,
                    "velocity": 0.25984251968503935,
                    "duration": 1.3114759999999848
                },
                {
                    "name": "A4",
                    "midi": 69,
                    "time": 64.26232400000004,
                    "velocity": 0.25984251968503935,
                    "duration": 1.3114759999999848
                },
                {
                    "name": "F5",
                    "midi": 77,
                    "time": 64.26232400000004,
                    "velocity": 0.30708661417322836,
                    "duration": 1.3114759999999848
                },
                {
                    "name": "G3",
                    "midi": 55,
                    "time": 65.57380000000002,
                    "velocity": 0.2125984251968504,
                    "duration": 1.3114760000000132
                },
                {
                    "name": "F4",
                    "midi": 65,
                    "time": 65.57380000000002,
                    "velocity": 0.25196850393700787,
                    "duration": 1.3114760000000132
                },
                {
                    "name": "C3",
                    "midi": 48,
                    "time": 66.88527600000003,
                    "velocity": 0.16535433070866143,
                    "duration": 1.3114760000000132
                },
                {
                    "name": "E4",
                    "midi": 64,
                    "time": 66.88527600000003,
                    "velocity": 0.2047244094488189,
                    "duration": 1.3114760000000132
                },
                {
                    "name": "G3",
                    "midi": 55,
                    "time": 66.88527600000003,
                    "velocity": 0.16535433070866143,
                    "duration": 1.3114760000000132
                },
                {
                    "name": "F4",
                    "midi": 65,
                    "time": 68.19675200000005,
                    "velocity": 0.25196850393700787,
                    "duration": 1.311475999999999
                },
                {
                    "name": "G3",
                    "midi": 55,
                    "time": 68.19675200000005,
                    "velocity": 0.2125984251968504,
                    "duration": 1.311475999999999
                },
                {
                    "name": "E4",
                    "midi": 64,
                    "time": 69.50822800000005,
                    "velocity": 0.2204724409448819,
                    "duration": 1.311475999999999
                },
                {
                    "name": "G3",
                    "midi": 55,
                    "time": 69.50822800000005,
                    "velocity": 0.1889763779527559,
                    "duration": 1.311475999999999
                },
                {
                    "name": "C3",
                    "midi": 48,
                    "time": 69.50822800000005,
                    "velocity": 0.1889763779527559,
                    "duration": 1.311475999999999
                },
                {
                    "name": "F#2",
                    "midi": 42,
                    "time": 70.81970400000004,
                    "velocity": 0.18110236220472442,
                    "duration": 1.3114759999999848
                },
                {
                    "name": "B2",
                    "midi": 47,
                    "time": 70.81970400000004,
                    "velocity": 0.18110236220472442,
                    "duration": 1.3114759999999848
                },
                {
                    "name": "A3",
                    "midi": 57,
                    "time": 70.81970400000004,
                    "velocity": 0.2125984251968504,
                    "duration": 1.3114759999999848
                },
                {
                    "name": "E2",
                    "midi": 40,
                    "time": 72.13118000000003,
                    "velocity": 0.18110236220472442,
                    "duration": 1.3114760000000132
                },
                {
                    "name": "B2",
                    "midi": 47,
                    "time": 72.13118000000003,
                    "velocity": 0.18110236220472442,
                    "duration": 1.3114760000000132
                },
                {
                    "name": "G#3",
                    "midi": 56,
                    "time": 72.13118000000003,
                    "velocity": 0.2125984251968504,
                    "duration": 1.3114760000000132
                },
                {
                    "name": "F#2",
                    "midi": 42,
                    "time": 73.44265600000004,
                    "velocity": 0.2204724409448819,
                    "duration": 1.311475999999999
                },
                {
                    "name": "B2",
                    "midi": 47,
                    "time": 73.44265600000004,
                    "velocity": 0.2204724409448819,
                    "duration": 1.311475999999999
                },
                {
                    "name": "A3",
                    "midi": 57,
                    "time": 73.44265600000004,
                    "velocity": 0.2677165354330709,
                    "duration": 1.311475999999999
                },
                {
                    "name": "G#4",
                    "midi": 68,
                    "time": 74.75413200000004,
                    "velocity": 0.33070866141732286,
                    "duration": 1.311475999999999
                },
                {
                    "name": "B3",
                    "midi": 59,
                    "time": 74.75413200000004,
                    "velocity": 0.2755905511811024,
                    "duration": 1.311475999999999
                },
                {
                    "name": "E3",
                    "midi": 52,
                    "time": 74.75413200000004,
                    "velocity": 0.2755905511811024,
                    "duration": 1.311475999999999
                },
                {
                    "name": "D4",
                    "midi": 62,
                    "time": 76.06560800000004,
                    "velocity": 0.2992125984251969,
                    "duration": 0.6557379999999995
                },
                {
                    "name": "A4",
                    "midi": 69,
                    "time": 76.06560800000004,
                    "velocity": 0.3543307086614173,
                    "duration": 0.6557379999999995
                },
                {
                    "name": "F4",
                    "midi": 65,
                    "time": 76.72134600000004,
                    "velocity": 0.2755905511811024,
                    "duration": 0.6557379999999995
                },
                {
                    "name": "B4",
                    "midi": 71,
                    "time": 76.72134600000004,
                    "velocity": 0.33070866141732286,
                    "duration": 0.6557379999999995
                },
                {
                    "name": "G4",
                    "midi": 67,
                    "time": 77.37708400000004,
                    "velocity": 0.33070866141732286,
                    "duration": 0.32786900000000685
                },
                {
                    "name": "C4",
                    "midi": 60,
                    "time": 77.37708400000004,
                    "velocity": 0.2755905511811024,
                    "duration": 0.6557380000000137
                },
                {
                    "name": "F4",
                    "midi": 65,
                    "time": 77.70495300000005,
                    "velocity": 0.30708661417322836,
                    "duration": 0.6557380000000137
                },
                {
                    "name": "B3",
                    "midi": 59,
                    "time": 78.03282200000005,
                    "velocity": 0.33070866141732286,
                    "duration": 0.6557380000000137
                },
                {
                    "name": "E4",
                    "midi": 64,
                    "time": 78.36069100000006,
                    "velocity": 0.30708661417322836,
                    "duration": 0.6557380000000137
                },
                {
                    "name": "A3",
                    "midi": 57,
                    "time": 78.68856000000007,
                    "velocity": 0.33070866141732286,
                    "duration": 0.6557380000000137
                },
                {
                    "name": "D4",
                    "midi": 62,
                    "time": 79.01642900000007,
                    "velocity": 0.30708661417322836,
                    "duration": 0.9836070000000205
                },
                {
                    "name": "A3",
                    "midi": 57,
                    "time": 79.34429800000008,
                    "velocity": 0.33070866141732286,
                    "duration": 0.32786900000000685
                },
                {
                    "name": "G3",
                    "midi": 55,
                    "time": 79.67216700000009,
                    "velocity": 0.3464566929133858,
                    "duration": 0.32786900000000685
                },
                {
                    "name": "F3",
                    "midi": 53,
                    "time": 80.0000360000001,
                    "velocity": 0.25984251968503935,
                    "duration": 0.32786900000000685
                },
                {
                    "name": "D4",
                    "midi": 62,
                    "time": 80.0000360000001,
                    "velocity": 0.30708661417322836,
                    "duration": 0.32786900000000685
                },
                {
                    "name": "E3",
                    "midi": 52,
                    "time": 80.3279050000001,
                    "velocity": 0.2125984251968504,
                    "duration": 0.32786900000000685
                },
                {
                    "name": "B3",
                    "midi": 59,
                    "time": 80.3279050000001,
                    "velocity": 0.25984251968503935,
                    "duration": 0.32786900000000685
                },
                {
                    "name": "D3",
                    "midi": 50,
                    "time": 80.65577400000011,
                    "velocity": 0.25196850393700787,
                    "duration": 0.32786900000000685
                },
                {
                    "name": "C4",
                    "midi": 60,
                    "time": 80.65577400000011,
                    "velocity": 0.2992125984251969,
                    "duration": 0.32786900000000685
                },
                {
                    "name": "C3",
                    "midi": 48,
                    "time": 80.98364300000011,
                    "velocity": 0.23622047244094488,
                    "duration": 0.32786900000000685
                },
                {
                    "name": "E3",
                    "midi": 52,
                    "time": 80.98364300000011,
                    "velocity": 0.28346456692913385,
                    "duration": 0.32786900000000685
                },
                {
                    "name": "B2",
                    "midi": 47,
                    "time": 81.31151200000012,
                    "velocity": 0.23622047244094488,
                    "duration": 2.622951999999998
                },
                {
                    "name": "F#3",
                    "midi": 54,
                    "time": 81.31151200000012,
                    "velocity": 0.28346456692913385,
                    "duration": 2.622951999999998
                },
                {
                    "name": "C3",
                    "midi": 48,
                    "time": 83.93446400000012,
                    "velocity": 0.1732283464566929,
                    "duration": 5.24590400000001
                },
                {
                    "name": "F#3",
                    "midi": 54,
                    "time": 83.93446400000012,
                    "velocity": 0.2125984251968504,
                    "duration": 5.24590400000001
                },
                {
                    "name": "B2",
                    "midi": 47,
                    "time": 89.18036800000013,
                    "velocity": 0.2283464566929134,
                    "duration": 0.24590175000000158
                },
                {
                    "name": "G#3",
                    "midi": 56,
                    "time": 89.18036800000013,
                    "velocity": 0.2755905511811024,
                    "duration": 0.24590175000000158
                },
                {
                    "name": "E2",
                    "midi": 40,
                    "time": 89.50823700000014,
                    "velocity": 0.2992125984251969,
                    "duration": 0.24590175000000158
                },
                {
                    "name": "A3",
                    "midi": 57,
                    "time": 91.80332000000014,
                    "velocity": 0.1968503937007874,
                    "duration": 1.9672139999999985
                },
                {
                    "name": "E4",
                    "midi": 64,
                    "time": 91.80332000000014,
                    "velocity": 0.1968503937007874,
                    "duration": 1.9672139999999985
                },
                {
                    "name": "C5",
                    "midi": 72,
                    "time": 91.80332000000014,
                    "velocity": 0.23622047244094488,
                    "duration": 1.9672139999999985
                },
                {
                    "name": "A3",
                    "midi": 57,
                    "time": 93.77053400000014,
                    "velocity": 0.25984251968503935,
                    "duration": 0.32786900000000685
                },
                {
                    "name": "D3",
                    "midi": 50,
                    "time": 93.77053400000014,
                    "velocity": 0.2125984251968504,
                    "duration": 0.32786900000000685
                },
                {
                    "name": "B5",
                    "midi": 83,
                    "time": 94.09840300000015,
                    "velocity": 0.29133858267716534,
                    "duration": 0.32786900000000685
                },
                {
                    "name": "A5",
                    "midi": 81,
                    "time": 94.09840300000015,
                    "velocity": 0.29133858267716534,
                    "duration": 0.32786900000000685
                },
                {
                    "name": "F5",
                    "midi": 77,
                    "time": 94.09840300000015,
                    "velocity": 0.29133858267716534,
                    "duration": 0.32786900000000685
                },
                {
                    "name": "A3",
                    "midi": 57,
                    "time": 94.42627200000015,
                    "velocity": 0.2125984251968504,
                    "duration": 1.9672140000000127
                },
                {
                    "name": "E4",
                    "midi": 64,
                    "time": 94.42627200000015,
                    "velocity": 0.2125984251968504,
                    "duration": 1.9672140000000127
                },
                {
                    "name": "C5",
                    "midi": 72,
                    "time": 94.42627200000015,
                    "velocity": 0.25984251968503935,
                    "duration": 1.9672140000000127
                },
                {
                    "name": "C4",
                    "midi": 60,
                    "time": 96.39348600000017,
                    "velocity": 0.25984251968503935,
                    "duration": 0.6557379999999995
                },
                {
                    "name": "D3",
                    "midi": 50,
                    "time": 96.39348600000017,
                    "velocity": 0.2125984251968504,
                    "duration": 0.6557379999999995
                },
                {
                    "name": "G2",
                    "midi": 43,
                    "time": 97.04922400000017,
                    "velocity": 0.2283464566929134,
                    "duration": 0.32786900000000685
                },
                {
                    "name": "D3",
                    "midi": 50,
                    "time": 97.04922400000017,
                    "velocity": 0.2283464566929134,
                    "duration": 0.32786900000000685
                },
                {
                    "name": "B3",
                    "midi": 59,
                    "time": 97.04922400000017,
                    "velocity": 0.2755905511811024,
                    "duration": 0.32786900000000685
                },
                {
                    "name": "C3",
                    "midi": 48,
                    "time": 97.37709300000017,
                    "velocity": 0.2755905511811024,
                    "duration": 0.6557379999999995
                },
                {
                    "name": "G3",
                    "midi": 55,
                    "time": 97.37709300000017,
                    "velocity": 0.3228346456692913,
                    "duration": 0.6557379999999995
                },
                {
                    "name": "F2",
                    "midi": 41,
                    "time": 98.03283100000017,
                    "velocity": 0.2440944881889764,
                    "duration": 0.6557379999999995
                },
                {
                    "name": "C3",
                    "midi": 48,
                    "time": 98.03283100000017,
                    "velocity": 0.29133858267716534,
                    "duration": 1.6393450000000058
                },
                {
                    "name": "E2",
                    "midi": 40,
                    "time": 98.68856900000017,
                    "velocity": 0.2755905511811024,
                    "duration": 0.32786900000000685
                },
                {
                    "name": "D2",
                    "midi": 38,
                    "time": 99.01643800000018,
                    "velocity": 0.2755905511811024,
                    "duration": 0.6557379999999995
                },
                {
                    "name": "G2",
                    "midi": 43,
                    "time": 99.67217600000018,
                    "velocity": 0.2440944881889764,
                    "duration": 1.9672139999999985
                },
                {
                    "name": "F3",
                    "midi": 53,
                    "time": 99.67217600000018,
                    "velocity": 0.29133858267716534,
                    "duration": 1.9672139999999985
                },
                {
                    "name": "B2",
                    "midi": 47,
                    "time": 101.63939000000018,
                    "velocity": 0.2440944881889764,
                    "duration": 0.6557379999999995
                },
                {
                    "name": "F2",
                    "midi": 41,
                    "time": 101.63939000000018,
                    "velocity": 0.2047244094488189,
                    "duration": 0.27322416666666527
                },
                {
                    "name": "E2",
                    "midi": 40,
                    "time": 101.96725900000017,
                    "velocity": 0.1968503937007874,
                    "duration": 0.32786900000000685
                },
                {
                    "name": "A3",
                    "midi": 57,
                    "time": 102.29512800000018,
                    "velocity": 0.1968503937007874,
                    "duration": 1.9672139999999985
                },
                {
                    "name": "E4",
                    "midi": 64,
                    "time": 102.29512800000018,
                    "velocity": 0.1968503937007874,
                    "duration": 1.9672139999999985
                },
                {
                    "name": "C5",
                    "midi": 72,
                    "time": 102.29512800000018,
                    "velocity": 0.23622047244094488,
                    "duration": 1.9672139999999985
                },
                {
                    "name": "A3",
                    "midi": 57,
                    "time": 104.26234200000017,
                    "velocity": 0.25984251968503935,
                    "duration": 0.32786900000000685
                },
                {
                    "name": "D3",
                    "midi": 50,
                    "time": 104.26234200000017,
                    "velocity": 0.2125984251968504,
                    "duration": 0.32786900000000685
                },
                {
                    "name": "B5",
                    "midi": 83,
                    "time": 104.59021100000018,
                    "velocity": 0.29133858267716534,
                    "duration": 0.32786900000000685
                },
                {
                    "name": "A5",
                    "midi": 81,
                    "time": 104.59021100000018,
                    "velocity": 0.29133858267716534,
                    "duration": 0.32786900000000685
                },
                {
                    "name": "F5",
                    "midi": 77,
                    "time": 104.59021100000018,
                    "velocity": 0.29133858267716534,
                    "duration": 0.32786900000000685
                },
                {
                    "name": "A3",
                    "midi": 57,
                    "time": 104.91808000000019,
                    "velocity": 0.2125984251968504,
                    "duration": 1.311475999999999
                },
                {
                    "name": "E4",
                    "midi": 64,
                    "time": 104.91808000000019,
                    "velocity": 0.2125984251968504,
                    "duration": 1.311475999999999
                },
                {
                    "name": "C5",
                    "midi": 72,
                    "time": 104.91808000000019,
                    "velocity": 0.25984251968503935,
                    "duration": 1.311475999999999
                },
                {
                    "name": "A2",
                    "midi": 45,
                    "time": 106.22955600000019,
                    "velocity": 0.2125984251968504,
                    "duration": 1.311475999999999
                },
                {
                    "name": "E3",
                    "midi": 52,
                    "time": 106.22955600000019,
                    "velocity": 0.2125984251968504,
                    "duration": 1.311475999999999
                },
                {
                    "name": "C#4",
                    "midi": 61,
                    "time": 106.22955600000019,
                    "velocity": 0.25984251968503935,
                    "duration": 1.311475999999999
                },
                {
                    "name": "F2",
                    "midi": 41,
                    "time": 107.54103200000019,
                    "velocity": 0.14960629921259844,
                    "duration": 0.32786900000000685
                },
                {
                    "name": "C3",
                    "midi": 48,
                    "time": 107.54103200000019,
                    "velocity": 0.2125984251968504,
                    "duration": 0.32786900000000685
                },
                {
                    "name": "G2",
                    "midi": 43,
                    "time": 107.86890100000019,
                    "velocity": 0.1732283464566929,
                    "duration": 0.9836069999999921
                },
                {
                    "name": "F3",
                    "midi": 53,
                    "time": 107.86890100000019,
                    "velocity": 0.25196850393700787,
                    "duration": 0.9836069999999921
                },
                {
                    "name": "A2",
                    "midi": 45,
                    "time": 108.85250800000019,
                    "velocity": 0.18110236220472442,
                    "duration": 0.32786899999999264
                },
                {
                    "name": "E3",
                    "midi": 52,
                    "time": 108.85250800000019,
                    "velocity": 0.25984251968503935,
                    "duration": 0.32786899999999264
                },
                {
                    "name": "D3",
                    "midi": 50,
                    "time": 109.18037700000018,
                    "velocity": 0.25984251968503935,
                    "duration": 0.6557379999999995
                },
                {
                    "name": "G3",
                    "midi": 55,
                    "time": 109.83611500000018,
                    "velocity": 0.2440944881889764,
                    "duration": 0.32786900000000685
                },
                {
                    "name": "A2",
                    "midi": 45,
                    "time": 110.49185300000019,
                    "velocity": 0.14960629921259844,
                    "duration": 0.12295087500000079
                },
                {
                    "name": "C3",
                    "midi": 48,
                    "time": 110.49185300000019,
                    "velocity": 0.1889763779527559,
                    "duration": 0.12295087500000079
                },
                {
                    "name": "G2",
                    "midi": 43,
                    "time": 111.14759100000019,
                    "velocity": 0.13385826771653545,
                    "duration": 0.08196725000000527
                },
                {
                    "name": "B2",
                    "midi": 47,
                    "time": 111.14759100000019,
                    "velocity": 0.16535433070866143,
                    "duration": 0.08196725000000527
                },
                {
                    "name": "A2",
                    "midi": 45,
                    "time": 111.4754600000002,
                    "velocity": 0.14960629921259844,
                    "duration": 0.08196725000000527
                },
                {
                    "name": "C3",
                    "midi": 48,
                    "time": 111.4754600000002,
                    "velocity": 0.1889763779527559,
                    "duration": 0.08196725000000527
                },
                {
                    "name": "A2",
                    "midi": 45,
                    "time": 111.8033290000002,
                    "velocity": 0.14960629921259844,
                    "duration": 0.08196725000000527
                },
                {
                    "name": "C3",
                    "midi": 48,
                    "time": 111.8033290000002,
                    "velocity": 0.1889763779527559,
                    "duration": 0.08196725000000527
                },
                {
                    "name": "A#1",
                    "midi": 34,
                    "time": 112.78693600000021,
                    "velocity": 0.1968503937007874,
                    "duration": 0.6557379999999995
                },
                {
                    "name": "A#2",
                    "midi": 46,
                    "time": 112.78693600000021,
                    "velocity": 0.23622047244094488,
                    "duration": 0.6557379999999995
                },
                {
                    "name": "A1",
                    "midi": 33,
                    "time": 113.44267400000021,
                    "velocity": 0.2204724409448819,
                    "duration": 0.6557379999999995
                },
                {
                    "name": "A2",
                    "midi": 45,
                    "time": 113.44267400000021,
                    "velocity": 0.2677165354330709,
                    "duration": 0.6557379999999995
                },
                {
                    "name": "G1",
                    "midi": 31,
                    "time": 114.09841200000021,
                    "velocity": 0.23622047244094488,
                    "duration": 0.6557379999999995
                },
                {
                    "name": "G2",
                    "midi": 43,
                    "time": 114.09841200000021,
                    "velocity": 0.28346456692913385,
                    "duration": 0.6557379999999995
                },
                {
                    "name": "F1",
                    "midi": 29,
                    "time": 114.75415000000021,
                    "velocity": 0.2204724409448819,
                    "duration": 0.6557379999999995
                },
                {
                    "name": "F2",
                    "midi": 41,
                    "time": 114.75415000000021,
                    "velocity": 0.2677165354330709,
                    "duration": 0.6557379999999995
                },
                {
                    "name": "E1",
                    "midi": 28,
                    "time": 115.40988800000021,
                    "velocity": 0.2047244094488189,
                    "duration": 0.6557379999999995
                },
                {
                    "name": "E2",
                    "midi": 40,
                    "time": 115.40988800000021,
                    "velocity": 0.2440944881889764,
                    "duration": 0.6557379999999995
                },
                {
                    "name": "D1",
                    "midi": 26,
                    "time": 116.06562600000021,
                    "velocity": 0.2283464566929134,
                    "duration": 0.6557379999999995
                },
                {
                    "name": "D2",
                    "midi": 38,
                    "time": 116.06562600000021,
                    "velocity": 0.2755905511811024,
                    "duration": 0.6557379999999995
                },
                {
                    "name": "C1",
                    "midi": 24,
                    "time": 116.72136400000021,
                    "velocity": 0.25196850393700787,
                    "duration": 0.6557379999999995
                },
                {
                    "name": "C2",
                    "midi": 36,
                    "time": 116.72136400000021,
                    "velocity": 0.2992125984251969,
                    "duration": 0.6557379999999995
                },
                {
                    "name": "D1",
                    "midi": 26,
                    "time": 117.3771020000002,
                    "velocity": 0.2204724409448819,
                    "duration": 0.6557379999999995
                },
                {
                    "name": "D2",
                    "midi": 38,
                    "time": 117.3771020000002,
                    "velocity": 0.2677165354330709,
                    "duration": 0.6557379999999995
                },
                {
                    "name": "A#1",
                    "midi": 34,
                    "time": 118.0328400000002,
                    "velocity": 0.2440944881889764,
                    "duration": 0.6557379999999995
                },
                {
                    "name": "A#2",
                    "midi": 46,
                    "time": 118.0328400000002,
                    "velocity": 0.29133858267716534,
                    "duration": 0.6557379999999995
                },
                {
                    "name": "A1",
                    "midi": 33,
                    "time": 118.6885780000002,
                    "velocity": 0.2204724409448819,
                    "duration": 0.6557379999999995
                },
                {
                    "name": "A2",
                    "midi": 45,
                    "time": 118.6885780000002,
                    "velocity": 0.2677165354330709,
                    "duration": 0.6557379999999995
                },
                {
                    "name": "G1",
                    "midi": 31,
                    "time": 119.3443160000002,
                    "velocity": 0.23622047244094488,
                    "duration": 0.6557379999999995
                },
                {
                    "name": "G2",
                    "midi": 43,
                    "time": 119.3443160000002,
                    "velocity": 0.28346456692913385,
                    "duration": 0.6557379999999995
                },
                {
                    "name": "F1",
                    "midi": 29,
                    "time": 120.0000540000002,
                    "velocity": 0.2204724409448819,
                    "duration": 0.6557379999999995
                },
                {
                    "name": "F2",
                    "midi": 41,
                    "time": 120.0000540000002,
                    "velocity": 0.2677165354330709,
                    "duration": 0.6557379999999995
                },
                {
                    "name": "E1",
                    "midi": 28,
                    "time": 120.6557920000002,
                    "velocity": 0.2047244094488189,
                    "duration": 0.6557379999999995
                },
                {
                    "name": "E2",
                    "midi": 40,
                    "time": 120.6557920000002,
                    "velocity": 0.2440944881889764,
                    "duration": 0.6557379999999995
                },
                {
                    "name": "D1",
                    "midi": 26,
                    "time": 121.3115300000002,
                    "velocity": 0.2283464566929134,
                    "duration": 0.6557379999999995
                },
                {
                    "name": "D2",
                    "midi": 38,
                    "time": 121.3115300000002,
                    "velocity": 0.2755905511811024,
                    "duration": 0.6557379999999995
                },
                {
                    "name": "C1",
                    "midi": 24,
                    "time": 121.9672680000002,
                    "velocity": 0.25196850393700787,
                    "duration": 0.6557379999999995
                },
                {
                    "name": "C2",
                    "midi": 36,
                    "time": 121.9672680000002,
                    "velocity": 0.2992125984251969,
                    "duration": 0.6557379999999995
                },
                {
                    "name": "C3",
                    "midi": 48,
                    "time": 122.6230060000002,
                    "velocity": 0.3228346456692913,
                    "duration": 0.6557379999999995
                },
                {
                    "name": "D#4",
                    "midi": 63,
                    "time": 123.2787440000002,
                    "velocity": 0.36220472440944884,
                    "duration": 2.622951999999998
                },
                {
                    "name": "D4",
                    "midi": 62,
                    "time": 123.9344820000002,
                    "velocity": 0.3543307086614173,
                    "duration": 0.6557379999999995
                },
                {
                    "name": "C4",
                    "midi": 60,
                    "time": 124.5902200000002,
                    "velocity": 0.33070866141732286,
                    "duration": 0.6557379999999995
                },
                {
                    "name": "A#3",
                    "midi": 58,
                    "time": 125.2459580000002,
                    "velocity": 0.33070866141732286,
                    "duration": 0.6557379999999995
                },
                {
                    "name": "D#4",
                    "midi": 63,
                    "time": 125.9016960000002,
                    "velocity": 0.28346456692913385,
                    "duration": 0.6557379999999995
                },
                {
                    "name": "C4",
                    "midi": 60,
                    "time": 125.9016960000002,
                    "velocity": 0.23622047244094488,
                    "duration": 0.6557379999999995
                },
                {
                    "name": "A3",
                    "midi": 57,
                    "time": 125.9016960000002,
                    "velocity": 0.23622047244094488,
                    "duration": 0.6557379999999995
                },
                {
                    "name": "G4",
                    "midi": 67,
                    "time": 126.5574340000002,
                    "velocity": 0.28346456692913385,
                    "duration": 0.6557379999999995
                },
                {
                    "name": "D#4",
                    "midi": 63,
                    "time": 126.5574340000002,
                    "velocity": 0.23622047244094488,
                    "duration": 0.6557379999999995
                },
                {
                    "name": "C4",
                    "midi": 60,
                    "time": 126.5574340000002,
                    "velocity": 0.23622047244094488,
                    "duration": 0.6557379999999995
                },
                {
                    "name": "G3",
                    "midi": 55,
                    "time": 126.5574340000002,
                    "velocity": 0.23622047244094488,
                    "duration": 0.6557379999999995
                },
                {
                    "name": "A4",
                    "midi": 69,
                    "time": 127.2131720000002,
                    "velocity": 0.2992125984251969,
                    "duration": 0.6557379999999995
                },
                {
                    "name": "D#4",
                    "midi": 63,
                    "time": 127.2131720000002,
                    "velocity": 0.25196850393700787,
                    "duration": 0.6557379999999995
                },
                {
                    "name": "C4",
                    "midi": 60,
                    "time": 127.2131720000002,
                    "velocity": 0.25196850393700787,
                    "duration": 0.6557379999999995
                },
                {
                    "name": "F3",
                    "midi": 53,
                    "time": 127.2131720000002,
                    "velocity": 0.25196850393700787,
                    "duration": 0.6557379999999995
                },
                {
                    "name": "G4",
                    "midi": 67,
                    "time": 127.8689100000002,
                    "velocity": 0.25984251968503935,
                    "duration": 0.6557379999999853
                },
                {
                    "name": "D#4",
                    "midi": 63,
                    "time": 127.8689100000002,
                    "velocity": 0.2125984251968504,
                    "duration": 0.6557379999999853
                },
                {
                    "name": "C4",
                    "midi": 60,
                    "time": 127.8689100000002,
                    "velocity": 0.2125984251968504,
                    "duration": 0.6557379999999853
                },
                {
                    "name": "G3",
                    "midi": 55,
                    "time": 127.8689100000002,
                    "velocity": 0.2125984251968504,
                    "duration": 0.6557379999999853
                },
                {
                    "name": "D#4",
                    "midi": 63,
                    "time": 128.52464800000018,
                    "velocity": 0.36220472440944884,
                    "duration": 2.6229520000000264
                },
                {
                    "name": "D4",
                    "midi": 62,
                    "time": 129.1803860000002,
                    "velocity": 0.3543307086614173,
                    "duration": 0.6557380000000137
                },
                {
                    "name": "C4",
                    "midi": 60,
                    "time": 129.8361240000002,
                    "velocity": 0.33070866141732286,
                    "duration": 0.6557380000000137
                },
                {
                    "name": "A#3",
                    "midi": 58,
                    "time": 130.49186200000022,
                    "velocity": 0.33070866141732286,
                    "duration": 0.6557379999999853
                },
                {
                    "name": "D#4",
                    "midi": 63,
                    "time": 131.1476000000002,
                    "velocity": 0.28346456692913385,
                    "duration": 0.6557379999999853
                },
                {
                    "name": "C4",
                    "midi": 60,
                    "time": 131.1476000000002,
                    "velocity": 0.23622047244094488,
                    "duration": 0.6557379999999853
                },
                {
                    "name": "A3",
                    "midi": 57,
                    "time": 131.1476000000002,
                    "velocity": 0.23622047244094488,
                    "duration": 0.6557379999999853
                },
                {
                    "name": "G4",
                    "midi": 67,
                    "time": 131.8033380000002,
                    "velocity": 0.28346456692913385,
                    "duration": 0.6557379999999853
                },
                {
                    "name": "D#4",
                    "midi": 63,
                    "time": 131.8033380000002,
                    "velocity": 0.23622047244094488,
                    "duration": 0.6557379999999853
                },
                {
                    "name": "C4",
                    "midi": 60,
                    "time": 131.8033380000002,
                    "velocity": 0.23622047244094488,
                    "duration": 0.6557379999999853
                },
                {
                    "name": "G3",
                    "midi": 55,
                    "time": 131.8033380000002,
                    "velocity": 0.23622047244094488,
                    "duration": 0.6557379999999853
                },
                {
                    "name": "A4",
                    "midi": 69,
                    "time": 132.45907600000018,
                    "velocity": 0.4094488188976378,
                    "duration": 0.30054658333332895
                },
                {
                    "name": "D#4",
                    "midi": 63,
                    "time": 132.45907600000018,
                    "velocity": 0.3228346456692913,
                    "duration": 1.3114759999999706
                },
                {
                    "name": "C4",
                    "midi": 60,
                    "time": 132.45907600000018,
                    "velocity": 0.2755905511811024,
                    "duration": 1.3114759999999706
                },
                {
                    "name": "F3",
                    "midi": 53,
                    "time": 132.45907600000018,
                    "velocity": 0.2755905511811024,
                    "duration": 1.3114759999999706
                },
                {
                    "name": "F4",
                    "midi": 65,
                    "time": 132.78694500000017,
                    "velocity": 0.4251968503937008,
                    "duration": 0.32786899999999264
                },
                {
                    "name": "G4",
                    "midi": 67,
                    "time": 133.11481400000017,
                    "velocity": 0.4409448818897638,
                    "duration": 0.32786899999999264
                },
                {
                    "name": "A4",
                    "midi": 69,
                    "time": 133.44268300000016,
                    "velocity": 0.4645669291338583,
                    "duration": 0.32786899999999264
                },
                {
                    "name": "A#1",
                    "midi": 34,
                    "time": 133.77055200000015,
                    "velocity": 0.4251968503937008,
                    "duration": 5.245903999999996
                },
                {
                    "name": "F2",
                    "midi": 41,
                    "time": 133.77055200000015,
                    "velocity": 0.5039370078740157,
                    "duration": 5.245903999999996
                },
                {
                    "name": "F3",
                    "midi": 53,
                    "time": 135.08202800000015,
                    "velocity": 0.4251968503937008,
                    "duration": 0.24590175000000158
                },
                {
                    "name": "F4",
                    "midi": 65,
                    "time": 135.40989700000014,
                    "velocity": 0.36220472440944884,
                    "duration": 0.24590175000000158
                },
                {
                    "name": "F4",
                    "midi": 65,
                    "time": 136.39350400000015,
                    "velocity": 0.41732283464566927,
                    "duration": 0.24590175000000158
                },
                {
                    "name": "F5",
                    "midi": 77,
                    "time": 136.72137300000014,
                    "velocity": 0.4015748031496063,
                    "duration": 0.24590175000000158
                },
                {
                    "name": "F3",
                    "midi": 53,
                    "time": 137.70498000000015,
                    "velocity": 0.4015748031496063,
                    "duration": 0.24590175000000158
                },
                {
                    "name": "F4",
                    "midi": 65,
                    "time": 138.03284900000014,
                    "velocity": 0.36220472440944884,
                    "duration": 0.24590175000000158
                },
                {
                    "name": "A#1",
                    "midi": 34,
                    "time": 139.01645600000015,
                    "velocity": 0.4251968503937008,
                    "duration": 5.245903999999996
                },
                {
                    "name": "F2",
                    "midi": 41,
                    "time": 139.01645600000015,
                    "velocity": 0.5039370078740157,
                    "duration": 5.245903999999996
                },
                {
                    "name": "F3",
                    "midi": 53,
                    "time": 140.32793200000015,
                    "velocity": 0.4251968503937008,
                    "duration": 0.24590175000000158
                },
                {
                    "name": "F4",
                    "midi": 65,
                    "time": 140.65580100000014,
                    "velocity": 0.3700787401574803,
                    "duration": 0.24590175000000158
                },
                {
                    "name": "F4",
                    "midi": 65,
                    "time": 141.63940800000015,
                    "velocity": 0.41732283464566927,
                    "duration": 0.24590175000000158
                },
                {
                    "name": "F5",
                    "midi": 77,
                    "time": 141.96727700000014,
                    "velocity": 0.3700787401574803,
                    "duration": 0.24590175000000158
                },
                {
                    "name": "A1",
                    "midi": 33,
                    "time": 144.26236000000014,
                    "velocity": 0.25984251968503935,
                    "duration": 2.6229519999999695
                },
                {
                    "name": "E2",
                    "midi": 40,
                    "time": 144.26236000000014,
                    "velocity": 0.30708661417322836,
                    "duration": 2.6229519999999695
                },
                {
                    "name": "E3",
                    "midi": 52,
                    "time": 145.5738360000001,
                    "velocity": 0.25984251968503935,
                    "duration": 0.24590175000000158
                },
                {
                    "name": "E4",
                    "midi": 64,
                    "time": 145.9017050000001,
                    "velocity": 0.2125984251968504,
                    "duration": 0.24590175000000158
                },
                {
                    "name": "F#6",
                    "midi": 90,
                    "time": 146.8853120000001,
                    "velocity": 0.3464566929133858,
                    "duration": 0.24590175000000158
                },
                {
                    "name": "D#6",
                    "midi": 87,
                    "time": 147.5410500000001,
                    "velocity": 0.3464566929133858,
                    "duration": 0.24590175000000158
                },
                {
                    "name": "C6",
                    "midi": 84,
                    "time": 148.1967880000001,
                    "velocity": 0.33858267716535434,
                    "duration": 0.24590174999997316
                },
                {
                    "name": "A5",
                    "midi": 81,
                    "time": 148.8525260000001,
                    "velocity": 0.30708661417322836,
                    "duration": 0.24590175000000158
                },
                {
                    "name": "A1",
                    "midi": 33,
                    "time": 149.5082640000001,
                    "velocity": 0.30708661417322836,
                    "duration": 2.622951999999998
                },
                {
                    "name": "E2",
                    "midi": 40,
                    "time": 149.5082640000001,
                    "velocity": 0.30708661417322836,
                    "duration": 2.622951999999998
                },
                {
                    "name": "E3",
                    "midi": 52,
                    "time": 150.8197400000001,
                    "velocity": 0.25984251968503935,
                    "duration": 0.24590175000000158
                },
                {
                    "name": "E4",
                    "midi": 64,
                    "time": 151.1476090000001,
                    "velocity": 0.2125984251968504,
                    "duration": 0.24590175000000158
                },
                {
                    "name": "F#4",
                    "midi": 66,
                    "time": 152.1312160000001,
                    "velocity": 0.29133858267716534,
                    "duration": 0.32786899999999264
                },
                {
                    "name": "D#4",
                    "midi": 63,
                    "time": 152.7869540000001,
                    "velocity": 0.29133858267716534,
                    "duration": 0.32786899999999264
                },
                {
                    "name": "C4",
                    "midi": 60,
                    "time": 153.44269200000008,
                    "velocity": 0.29133858267716534,
                    "duration": 0.32786899999999264
                },
                {
                    "name": "A3",
                    "midi": 57,
                    "time": 154.09843000000006,
                    "velocity": 0.2755905511811024,
                    "duration": 0.32786899999999264
                },
                {
                    "name": "G1",
                    "midi": 31,
                    "time": 154.75416800000005,
                    "velocity": 0.2047244094488189,
                    "duration": 0.6557380000000137
                },
                {
                    "name": "G2",
                    "midi": 43,
                    "time": 154.75416800000005,
                    "velocity": 0.2440944881889764,
                    "duration": 0.6557380000000137
                },
                {
                    "name": "C2",
                    "midi": 36,
                    "time": 155.40990600000006,
                    "velocity": 0.2047244094488189,
                    "duration": 0.6557379999999853
                },
                {
                    "name": "C3",
                    "midi": 48,
                    "time": 155.40990600000006,
                    "velocity": 0.2440944881889764,
                    "duration": 0.6557379999999853
                },
                {
                    "name": "G2",
                    "midi": 43,
                    "time": 156.06564400000005,
                    "velocity": 0.2440944881889764,
                    "duration": 0.6557380000000137
                },
                {
                    "name": "G3",
                    "midi": 55,
                    "time": 156.06564400000005,
                    "velocity": 0.29133858267716534,
                    "duration": 0.6557380000000137
                },
                {
                    "name": "C3",
                    "midi": 48,
                    "time": 156.72138200000006,
                    "velocity": 0.2125984251968504,
                    "duration": 0.6557380000000137
                },
                {
                    "name": "C4",
                    "midi": 60,
                    "time": 156.72138200000006,
                    "velocity": 0.25984251968503935,
                    "duration": 0.6557380000000137
                },
                {
                    "name": "D4",
                    "midi": 62,
                    "time": 157.37712000000008,
                    "velocity": 0.3543307086614173,
                    "duration": 0.30054658333332895
                },
                {
                    "name": "A#3",
                    "midi": 58,
                    "time": 157.37712000000008,
                    "velocity": 0.2755905511811024,
                    "duration": 2.2950830000000053
                },
                {
                    "name": "G3",
                    "midi": 55,
                    "time": 157.37712000000008,
                    "velocity": 0.2755905511811024,
                    "duration": 2.622951999999998
                },
                {
                    "name": "F4",
                    "midi": 65,
                    "time": 157.70498900000007,
                    "velocity": 0.3700787401574803,
                    "duration": 0.6557380000000137
                },
                {
                    "name": "E4",
                    "midi": 64,
                    "time": 158.36072700000008,
                    "velocity": 0.3543307086614173,
                    "duration": 0.1639344999999821
                },
                {
                    "name": "F4",
                    "midi": 65,
                    "time": 158.52466150000006,
                    "velocity": 0.3543307086614173,
                    "duration": 0.16393450000001053
                },
                {
                    "name": "D4",
                    "midi": 62,
                    "time": 158.68859600000008,
                    "velocity": 0.3858267716535433,
                    "duration": 0.32786899999999264
                },
                {
                    "name": "C4",
                    "midi": 60,
                    "time": 159.01646500000007,
                    "velocity": 0.36220472440944884,
                    "duration": 0.16393450000001053
                },
                {
                    "name": "D4",
                    "midi": 62,
                    "time": 159.18039950000008,
                    "velocity": 0.36220472440944884,
                    "duration": 0.16393450000001053
                },
                {
                    "name": "A#3",
                    "midi": 58,
                    "time": 159.3443340000001,
                    "velocity": 0.4094488188976378,
                    "duration": 0.6557379999999853
                },
                {
                    "name": "D4",
                    "midi": 62,
                    "time": 159.67220300000008,
                    "velocity": 0.3858267716535433,
                    "duration": 0.32786899999999264
                },
                {
                    "name": "G1",
                    "midi": 31,
                    "time": 160.00007200000007,
                    "velocity": 0.2440944881889764,
                    "duration": 0.6557380000000137
                },
                {
                    "name": "G2",
                    "midi": 43,
                    "time": 160.00007200000007,
                    "velocity": 0.29133858267716534,
                    "duration": 0.6557380000000137
                },
                {
                    "name": "C2",
                    "midi": 36,
                    "time": 160.6558100000001,
                    "velocity": 0.2440944881889764,
                    "duration": 0.6557380000000137
                },
                {
                    "name": "C3",
                    "midi": 48,
                    "time": 160.6558100000001,
                    "velocity": 0.29133858267716534,
                    "duration": 0.6557380000000137
                },
                {
                    "name": "G2",
                    "midi": 43,
                    "time": 161.3115480000001,
                    "velocity": 0.28346456692913385,
                    "duration": 0.6557379999999853
                },
                {
                    "name": "G3",
                    "midi": 55,
                    "time": 161.3115480000001,
                    "velocity": 0.3464566929133858,
                    "duration": 0.6557379999999853
                },
                {
                    "name": "C3",
                    "midi": 48,
                    "time": 161.9672860000001,
                    "velocity": 0.25984251968503935,
                    "duration": 0.6557380000000137
                },
                {
                    "name": "C4",
                    "midi": 60,
                    "time": 161.9672860000001,
                    "velocity": 0.30708661417322836,
                    "duration": 0.6557380000000137
                },
                {
                    "name": "D4",
                    "midi": 62,
                    "time": 162.6230240000001,
                    "velocity": 0.4251968503937008,
                    "duration": 0.3005465833333574
                },
                {
                    "name": "A#3",
                    "midi": 58,
                    "time": 162.6230240000001,
                    "velocity": 0.3228346456692913,
                    "duration": 2.295083000000062
                },
                {
                    "name": "G3",
                    "midi": 55,
                    "time": 162.6230240000001,
                    "velocity": 0.3228346456692913,
                    "duration": 2.622952000000055
                },
                {
                    "name": "F4",
                    "midi": 65,
                    "time": 162.95089300000012,
                    "velocity": 0.4566929133858268,
                    "duration": 0.6557380000000137
                },
                {
                    "name": "E4",
                    "midi": 64,
                    "time": 163.60663100000014,
                    "velocity": 0.4251968503937008,
                    "duration": 0.1639344999999821
                },
                {
                    "name": "F4",
                    "midi": 65,
                    "time": 163.77056550000012,
                    "velocity": 0.4251968503937008,
                    "duration": 0.16393450000001053
                },
                {
                    "name": "D4",
                    "midi": 62,
                    "time": 163.93450000000013,
                    "velocity": 0.47244094488188976,
                    "duration": 0.32786899999999264
                },
                {
                    "name": "C4",
                    "midi": 60,
                    "time": 164.26236900000012,
                    "velocity": 0.44881889763779526,
                    "duration": 0.16393450000001053
                },
                {
                    "name": "D4",
                    "midi": 62,
                    "time": 164.42630350000013,
                    "velocity": 0.44881889763779526,
                    "duration": 0.16393450000001053
                },
                {
                    "name": "A#3",
                    "midi": 58,
                    "time": 164.59023800000014,
                    "velocity": 0.49606299212598426,
                    "duration": 0.6557380000000137
                },
                {
                    "name": "D4",
                    "midi": 62,
                    "time": 164.91810700000016,
                    "velocity": 0.47244094488188976,
                    "duration": 0.30054658333332895
                },
                {
                    "name": "F4",
                    "midi": 65,
                    "time": 165.24597600000016,
                    "velocity": 0.4566929133858268,
                    "duration": 0.30054658333332895
                },
                {
                    "name": "A#3",
                    "midi": 58,
                    "time": 165.24597600000016,
                    "velocity": 0.3543307086614173,
                    "duration": 2.6229520000000264
                },
                {
                    "name": "D4",
                    "midi": 62,
                    "time": 165.24597600000016,
                    "velocity": 0.41732283464566927,
                    "duration": 2.2950830000000337
                },
                {
                    "name": "A4",
                    "midi": 69,
                    "time": 165.57384500000015,
                    "velocity": 0.4881889763779528,
                    "duration": 0.6557380000000137
                },
                {
                    "name": "G4",
                    "midi": 67,
                    "time": 166.22958300000016,
                    "velocity": 0.4566929133858268,
                    "duration": 0.16393450000001053
                },
                {
                    "name": "A4",
                    "midi": 69,
                    "time": 166.39351750000017,
                    "velocity": 0.4566929133858268,
                    "duration": 0.16393450000001053
                },
                {
                    "name": "F4",
                    "midi": 65,
                    "time": 166.55745200000018,
                    "velocity": 0.49606299212598426,
                    "duration": 0.32786899999999264
                },
                {
                    "name": "E4",
                    "midi": 64,
                    "time": 166.88532100000018,
                    "velocity": 0.47244094488188976,
                    "duration": 0.16393450000001053
                },
                {
                    "name": "F4",
                    "midi": 65,
                    "time": 167.04925550000019,
                    "velocity": 0.47244094488188976,
                    "duration": 0.16393450000001053
                },
                {
                    "name": "D4",
                    "midi": 62,
                    "time": 167.2131900000002,
                    "velocity": 0.5275590551181102,
                    "duration": 0.6557379999999853
                },
                {
                    "name": "F4",
                    "midi": 65,
                    "time": 167.5410590000002,
                    "velocity": 0.49606299212598426,
                    "duration": 0.32786899999999264
                },
                {
                    "name": "C4",
                    "midi": 60,
                    "time": 167.86892800000018,
                    "velocity": 0.4330708661417323,
                    "duration": 0.6557380000000137
                },
                {
                    "name": "D4",
                    "midi": 62,
                    "time": 167.86892800000018,
                    "velocity": 0.4330708661417323,
                    "duration": 0.6557380000000137
                },
                {
                    "name": "G4",
                    "midi": 67,
                    "time": 167.86892800000018,
                    "velocity": 0.4330708661417323,
                    "duration": 0.6557380000000137
                },
                {
                    "name": "F4",
                    "midi": 65,
                    "time": 167.86892800000018,
                    "velocity": 0.4330708661417323,
                    "duration": 0.6557380000000137
                },
                {
                    "name": "A#4",
                    "midi": 70,
                    "time": 167.86892800000018,
                    "velocity": 0.5196850393700787,
                    "duration": 0.6557380000000137
                },
                {
                    "name": "G3",
                    "midi": 55,
                    "time": 168.5246660000002,
                    "velocity": 0.4881889763779528,
                    "duration": 0.6557380000000137
                },
                {
                    "name": "C4",
                    "midi": 60,
                    "time": 169.1804040000002,
                    "velocity": 0.6299212598425197,
                    "duration": 0.6557380000000137
                },
                {
                    "name": "C3",
                    "midi": 48,
                    "time": 169.83614200000022,
                    "velocity": 0.6062992125984252,
                    "duration": 0.6557380000000137
                },
                {
                    "name": "F1",
                    "midi": 29,
                    "time": 170.49324612083356,
                    "velocity": 0.7637795275590551,
                    "duration": 0.32786899999999264
                },
                {
                    "name": "F2",
                    "midi": 41,
                    "time": 170.81974900000023,
                    "velocity": 0.6141732283464567,
                    "duration": 0.32786899999999264
                },
                {
                    "name": "C3",
                    "midi": 48,
                    "time": 171.14761800000022,
                    "velocity": 0.6377952755905512,
                    "duration": 0.30054658333332895
                },
                {
                    "name": "C3",
                    "midi": 48,
                    "time": 171.47548700000021,
                    "velocity": 0.6377952755905512,
                    "duration": 2.2950830000000053
                },
                {
                    "name": "D4",
                    "midi": 62,
                    "time": 171.8033560000002,
                    "velocity": 0.5905511811023622,
                    "duration": 1.9672140000000127
                },
                {
                    "name": "A#3",
                    "midi": 58,
                    "time": 171.8033560000002,
                    "velocity": 0.4881889763779528,
                    "duration": 1.9672140000000127
                },
                {
                    "name": "G3",
                    "midi": 55,
                    "time": 171.8033560000002,
                    "velocity": 0.4881889763779528,
                    "duration": 1.9672140000000127
                },
                {
                    "name": "F2",
                    "midi": 41,
                    "time": 175.73778400000023,
                    "velocity": 0.29133858267716534,
                    "duration": 1.311475999999999
                },
                {
                    "name": "C#3",
                    "midi": 49,
                    "time": 175.73778400000023,
                    "velocity": 0.30708661417322836,
                    "duration": 1.311475999999999
                },
                {
                    "name": "A3",
                    "midi": 57,
                    "time": 175.73778400000023,
                    "velocity": 0.33070866141732286,
                    "duration": 1.311475999999999
                },
                {
                    "name": "F3",
                    "midi": 53,
                    "time": 177.04926000000023,
                    "velocity": 0.3543307086614173,
                    "duration": 1.311475999999999
                },
                {
                    "name": "A#2",
                    "midi": 46,
                    "time": 177.04926000000023,
                    "velocity": 0.31496062992125984,
                    "duration": 1.311475999999999
                },
                {
                    "name": "A3",
                    "midi": 57,
                    "time": 178.36073600000023,
                    "velocity": 0.3543307086614173,
                    "duration": 2.622951999999998
                },
                {
                    "name": "C3",
                    "midi": 48,
                    "time": 178.36073600000023,
                    "velocity": 0.31496062992125984,
                    "duration": 1.311475999999999
                },
                {
                    "name": "D3",
                    "midi": 50,
                    "time": 179.67221200000023,
                    "velocity": 0.31496062992125984,
                    "duration": 1.311475999999999
                },
                {
                    "name": "A#2",
                    "midi": 46,
                    "time": 180.98368800000023,
                    "velocity": 0.3228346456692913,
                    "duration": 0.6557379999999853
                },
                {
                    "name": "F3",
                    "midi": 53,
                    "time": 180.98368800000023,
                    "velocity": 0.3228346456692913,
                    "duration": 0.6557379999999853
                },
                {
                    "name": "A#3",
                    "midi": 58,
                    "time": 180.98368800000023,
                    "velocity": 0.3858267716535433,
                    "duration": 0.6557379999999853
                },
                {
                    "name": "A#3",
                    "midi": 58,
                    "time": 181.6394260000002,
                    "velocity": 0.30708661417322836,
                    "duration": 1.9672140000000127
                },
                {
                    "name": "F4",
                    "midi": 65,
                    "time": 181.6394260000002,
                    "velocity": 0.3700787401574803,
                    "duration": 0.6557380000000137
                },
                {
                    "name": "E4",
                    "midi": 64,
                    "time": 182.29516400000023,
                    "velocity": 0.3700787401574803,
                    "duration": 0.6557380000000137
                },
                {
                    "name": "D4",
                    "midi": 62,
                    "time": 182.95090200000024,
                    "velocity": 0.4015748031496063,
                    "duration": 0.32786899999999264
                },
                {
                    "name": "E4",
                    "midi": 64,
                    "time": 183.27877100000023,
                    "velocity": 0.41732283464566927,
                    "duration": 0.49180350000000317
                },
                {
                    "name": "A3",
                    "midi": 57,
                    "time": 183.60664000000023,
                    "velocity": 0.41732283464566927,
                    "duration": 1.3114760000000558
                },
                {
                    "name": "F4",
                    "midi": 65,
                    "time": 183.77057450000024,
                    "velocity": 0.41732283464566927,
                    "duration": 0.16393450000001053
                },
                {
                    "name": "G4",
                    "midi": 67,
                    "time": 183.93450900000025,
                    "velocity": 0.41732283464566927,
                    "duration": 0.16393450000001053
                },
                {
                    "name": "A4",
                    "midi": 69,
                    "time": 184.09844350000026,
                    "velocity": 0.41732283464566927,
                    "duration": 0.16393450000001053
                },
                {
                    "name": "D4",
                    "midi": 62,
                    "time": 184.26237800000027,
                    "velocity": 0.4251968503937008,
                    "duration": 0.9836070000000063
                },
                {
                    "name": "G3",
                    "midi": 55,
                    "time": 184.91811600000028,
                    "velocity": 0.36220472440944884,
                    "duration": 0.6557379999999853
                },
                {
                    "name": "E4",
                    "midi": 64,
                    "time": 185.24598500000027,
                    "velocity": 0.3543307086614173,
                    "duration": 0.32786899999999264
                },
                {
                    "name": "C3",
                    "midi": 48,
                    "time": 185.57385400000027,
                    "velocity": 0.3228346456692913,
                    "duration": 0.6557380000000137
                },
                {
                    "name": "F1",
                    "midi": 29,
                    "time": 186.2309581208336,
                    "velocity": 0.7007874015748031,
                    "duration": 0.3278689999999642
                },
                {
                    "name": "F2",
                    "midi": 41,
                    "time": 186.55746100000025,
                    "velocity": 0.6062992125984252,
                    "duration": 0.32786899999999264
                },
                {
                    "name": "C3",
                    "midi": 48,
                    "time": 186.88533000000024,
                    "velocity": 0.6377952755905512,
                    "duration": 0.30054658333332895
                },
                {
                    "name": "C3",
                    "midi": 48,
                    "time": 187.21319900000023,
                    "velocity": 0.6377952755905512,
                    "duration": 2.2950830000000053
                },
                {
                    "name": "D4",
                    "midi": 62,
                    "time": 187.54106800000022,
                    "velocity": 0.5984251968503937,
                    "duration": 1.9672140000000127
                },
                {
                    "name": "A#3",
                    "midi": 58,
                    "time": 187.54106800000022,
                    "velocity": 0.49606299212598426,
                    "duration": 1.9672140000000127
                },
                {
                    "name": "G3",
                    "midi": 55,
                    "time": 187.54106800000022,
                    "velocity": 0.49606299212598426,
                    "duration": 1.9672140000000127
                },
                {
                    "name": "D3",
                    "midi": 50,
                    "time": 191.47549600000025,
                    "velocity": 0.28346456692913385,
                    "duration": 1.1475414999999884
                },
                {
                    "name": "A3",
                    "midi": 57,
                    "time": 191.47549600000025,
                    "velocity": 0.33858267716535434,
                    "duration": 1.1475414999999884
                },
                {
                    "name": "G2",
                    "midi": 43,
                    "time": 192.62303750000024,
                    "velocity": 0.2204724409448819,
                    "duration": 1.475410499999981
                },
                {
                    "name": "D3",
                    "midi": 50,
                    "time": 192.70500475000023,
                    "velocity": 0.25984251968503935,
                    "duration": 1.39344324999999
                },
                {
                    "name": "A#3",
                    "midi": 58,
                    "time": 192.78697200000022,
                    "velocity": 0.2992125984251969,
                    "duration": 1.311475999999999
                },
                {
                    "name": "A3",
                    "midi": 57,
                    "time": 194.09844800000022,
                    "velocity": 0.3228346456692913,
                    "duration": 1.1475414999999884
                },
                {
                    "name": "D3",
                    "midi": 50,
                    "time": 194.09844800000022,
                    "velocity": 0.2755905511811024,
                    "duration": 1.1475414999999884
                },
                {
                    "name": "G2",
                    "midi": 43,
                    "time": 195.2459895000002,
                    "velocity": 0.25196850393700787,
                    "duration": 1.475410499999981
                },
                {
                    "name": "D3",
                    "midi": 50,
                    "time": 195.3279567500002,
                    "velocity": 0.2755905511811024,
                    "duration": 1.39344324999999
                },
                {
                    "name": "B3",
                    "midi": 59,
                    "time": 195.4099240000002,
                    "velocity": 0.2992125984251969,
                    "duration": 1.311475999999999
                },
                {
                    "name": "C2",
                    "midi": 36,
                    "time": 196.7214000000002,
                    "velocity": 0.33858267716535434,
                    "duration": 2.6229519999999695
                },
                {
                    "name": "C3",
                    "midi": 48,
                    "time": 196.7214000000002,
                    "velocity": 0.4015748031496063,
                    "duration": 2.6229519999999695
                },
                {
                    "name": "A3",
                    "midi": 57,
                    "time": 197.3771380000002,
                    "velocity": 0.30708661417322836,
                    "duration": 0.32786899999999264
                },
                {
                    "name": "C4",
                    "midi": 60,
                    "time": 197.3771380000002,
                    "velocity": 0.36220472440944884,
                    "duration": 0.32786899999999264
                },
                {
                    "name": "D4",
                    "midi": 62,
                    "time": 197.7050070000002,
                    "velocity": 0.25196850393700787,
                    "duration": 0.30054658333332895
                },
                {
                    "name": "F4",
                    "midi": 65,
                    "time": 197.7050070000002,
                    "velocity": 0.2992125984251969,
                    "duration": 0.30054658333332895
                },
                {
                    "name": "A#3",
                    "midi": 58,
                    "time": 198.0328760000002,
                    "velocity": 0.31496062992125984,
                    "duration": 0.32786899999999264
                },
                {
                    "name": "D4",
                    "midi": 62,
                    "time": 198.0328760000002,
                    "velocity": 0.3700787401574803,
                    "duration": 0.32786899999999264
                },
                {
                    "name": "G4",
                    "midi": 67,
                    "time": 198.36074500000018,
                    "velocity": 0.2992125984251969,
                    "duration": 0.30054658333332895
                },
                {
                    "name": "E4",
                    "midi": 64,
                    "time": 198.36074500000018,
                    "velocity": 0.25196850393700787,
                    "duration": 0.30054658333332895
                },
                {
                    "name": "C4",
                    "midi": 60,
                    "time": 198.68861400000017,
                    "velocity": 0.3228346456692913,
                    "duration": 0.32786899999999264
                },
                {
                    "name": "E4",
                    "midi": 64,
                    "time": 198.68861400000017,
                    "velocity": 0.3858267716535433,
                    "duration": 0.32786899999999264
                },
                {
                    "name": "F4",
                    "midi": 65,
                    "time": 199.01648300000016,
                    "velocity": 0.2755905511811024,
                    "duration": 0.30054658333332895
                },
                {
                    "name": "A4",
                    "midi": 69,
                    "time": 199.01648300000016,
                    "velocity": 0.3228346456692913,
                    "duration": 0.30054658333332895
                },
                {
                    "name": "D4",
                    "midi": 62,
                    "time": 199.34435200000016,
                    "velocity": 0.33858267716535434,
                    "duration": 0.32786899999999264
                },
                {
                    "name": "F4",
                    "midi": 65,
                    "time": 199.34435200000016,
                    "velocity": 0.4015748031496063,
                    "duration": 0.32786899999999264
                },
                {
                    "name": "G4",
                    "midi": 67,
                    "time": 199.67222100000015,
                    "velocity": 0.2755905511811024,
                    "duration": 0.30054658333332895
                },
                {
                    "name": "A#4",
                    "midi": 70,
                    "time": 199.67222100000015,
                    "velocity": 0.3228346456692913,
                    "duration": 0.30054658333332895
                },
                {
                    "name": "E4",
                    "midi": 64,
                    "time": 200.00009000000014,
                    "velocity": 0.3543307086614173,
                    "duration": 0.32786900000002106
                },
                {
                    "name": "G4",
                    "midi": 67,
                    "time": 200.00009000000014,
                    "velocity": 0.41732283464566927,
                    "duration": 0.32786900000002106
                },
                {
                    "name": "C5",
                    "midi": 72,
                    "time": 200.32795900000016,
                    "velocity": 0.33858267716535434,
                    "duration": 0.30054658333332895
                },
                {
                    "name": "A4",
                    "midi": 69,
                    "time": 200.32795900000016,
                    "velocity": 0.28346456692913385,
                    "duration": 0.30054658333332895
                },
                {
                    "name": "A4",
                    "midi": 69,
                    "time": 200.65582800000016,
                    "velocity": 0.4251968503937008,
                    "duration": 0.32786899999999264
                },
                {
                    "name": "F4",
                    "midi": 65,
                    "time": 200.65582800000016,
                    "velocity": 0.3543307086614173,
                    "duration": 0.32786899999999264
                },
                {
                    "name": "A#4",
                    "midi": 70,
                    "time": 200.98369700000015,
                    "velocity": 0.29133858267716534,
                    "duration": 0.30054658333332895
                },
                {
                    "name": "D5",
                    "midi": 74,
                    "time": 200.98369700000015,
                    "velocity": 0.3543307086614173,
                    "duration": 0.30054658333332895
                },
                {
                    "name": "A#4",
                    "midi": 70,
                    "time": 201.31156600000014,
                    "velocity": 0.44881889763779526,
                    "duration": 0.32786899999999264
                },
                {
                    "name": "G4",
                    "midi": 67,
                    "time": 201.31156600000014,
                    "velocity": 0.3779527559055118,
                    "duration": 0.32786899999999264
                },
                {
                    "name": "C5",
                    "midi": 72,
                    "time": 201.63943500000013,
                    "velocity": 0.31496062992125984,
                    "duration": 0.17759570833334237
                },
                {
                    "name": "E5",
                    "midi": 76,
                    "time": 201.63943500000013,
                    "velocity": 0.3700787401574803,
                    "duration": 0.17759570833334237
                },
                {
                    "name": "A#3",
                    "midi": 58,
                    "time": 201.84435312500014,
                    "velocity": 0.31496062992125984,
                    "duration": 2.7459028750000414
                },
                {
                    "name": "F4",
                    "midi": 65,
                    "time": 201.88533675000014,
                    "velocity": 0.4094488188976378,
                    "duration": 2.704919250000046
                },
                {
                    "name": "G4",
                    "midi": 67,
                    "time": 201.92632037500013,
                    "velocity": 0.4251968503937008,
                    "duration": 2.6639356250000503
                },
                {
                    "name": "D5",
                    "midi": 74,
                    "time": 201.96730400000013,
                    "velocity": 0.4566929133858268,
                    "duration": 0.9699457916667029
                },
                {
                    "name": "G5",
                    "midi": 79,
                    "time": 202.62304200000014,
                    "velocity": 0.47244094488188976,
                    "duration": 0.1502732916666787
                },
                {
                    "name": "D5",
                    "midi": 74,
                    "time": 202.78697650000015,
                    "velocity": 0.44881889763779526,
                    "duration": 1.8032795000000306
                },
                {
                    "name": "C5",
                    "midi": 72,
                    "time": 202.95091100000016,
                    "velocity": 0.44881889763779526,
                    "duration": 0.1502732916666787
                },
                {
                    "name": "A#4",
                    "midi": 70,
                    "time": 203.11484550000017,
                    "velocity": 0.44881889763779526,
                    "duration": 0.1502732916666787
                },
                {
                    "name": "G3",
                    "midi": 55,
                    "time": 204.59025600000018,
                    "velocity": 0.3858267716535433,
                    "duration": 2.622952000000055
                },
                {
                    "name": "C4",
                    "midi": 60,
                    "time": 204.59025600000018,
                    "velocity": 0.3858267716535433,
                    "duration": 2.622952000000055
                },
                {
                    "name": "D4",
                    "midi": 62,
                    "time": 204.59025600000018,
                    "velocity": 0.4566929133858268,
                    "duration": 2.622952000000055
                },
                {
                    "name": "A#4",
                    "midi": 70,
                    "time": 204.59025600000018,
                    "velocity": 0.4566929133858268,
                    "duration": 1.297814791666724
                },
                {
                    "name": "G5",
                    "midi": 79,
                    "time": 205.2459940000002,
                    "velocity": 0.47244094488188976,
                    "duration": 0.1502732916666787
                },
                {
                    "name": "D5",
                    "midi": 74,
                    "time": 205.4099285000002,
                    "velocity": 0.44881889763779526,
                    "duration": 0.1502732916666787
                },
                {
                    "name": "C5",
                    "midi": 72,
                    "time": 205.57386300000022,
                    "velocity": 0.44881889763779526,
                    "duration": 0.1502732916666787
                },
                {
                    "name": "A#4",
                    "midi": 70,
                    "time": 205.73779750000023,
                    "velocity": 0.44881889763779526,
                    "duration": 1.4754105000000095
                },
                {
                    "name": "C3",
                    "midi": 48,
                    "time": 207.21320800000024,
                    "velocity": 0.4330708661417323,
                    "duration": 2.6229520000000264
                },
                {
                    "name": "G3",
                    "midi": 55,
                    "time": 207.21320800000024,
                    "velocity": 0.4330708661417323,
                    "duration": 2.6229520000000264
                },
                {
                    "name": "A#3",
                    "midi": 58,
                    "time": 207.21320800000024,
                    "velocity": 0.4330708661417323,
                    "duration": 2.6229520000000264
                },
                {
                    "name": "E4",
                    "midi": 64,
                    "time": 207.21320800000024,
                    "velocity": 0.5118110236220472,
                    "duration": 2.6229520000000264
                },
                {
                    "name": "G5",
                    "midi": 79,
                    "time": 207.86894600000022,
                    "velocity": 0.5039370078740157,
                    "duration": 0.1502732916666787
                },
                {
                    "name": "D5",
                    "midi": 74,
                    "time": 208.03288050000023,
                    "velocity": 0.4645669291338583,
                    "duration": 0.1502732916666787
                },
                {
                    "name": "C5",
                    "midi": 72,
                    "time": 208.19681500000024,
                    "velocity": 0.4645669291338583,
                    "duration": 0.1502732916666787
                },
                {
                    "name": "A#4",
                    "midi": 70,
                    "time": 208.36074950000025,
                    "velocity": 0.4645669291338583,
                    "duration": 0.1502732916666787
                },
                {
                    "name": "F1",
                    "midi": 29,
                    "time": 209.83616000000026,
                    "velocity": 0.5354330708661418,
                    "duration": 0.32786899999999264
                },
                {
                    "name": "F2",
                    "midi": 41,
                    "time": 209.83616000000026,
                    "velocity": 0.6377952755905512,
                    "duration": 0.32786899999999264
                },
                {
                    "name": "C3",
                    "midi": 48,
                    "time": 210.16402900000026,
                    "velocity": 0.6377952755905512,
                    "duration": 3.4836081249999893
                },
                {
                    "name": "C4",
                    "midi": 60,
                    "time": 210.49189800000025,
                    "velocity": 0.5433070866141733,
                    "duration": 1.6393449999999916
                },
                {
                    "name": "A3",
                    "midi": 57,
                    "time": 210.49189800000025,
                    "velocity": 0.4566929133858268,
                    "duration": 1.6393449999999916
                },
                {
                    "name": "F3",
                    "midi": 53,
                    "time": 212.13124300000024,
                    "velocity": 0.33070866141732286,
                    "duration": 1.5710389583333324
                },
                {
                    "name": "A3",
                    "midi": 57,
                    "time": 212.13124300000024,
                    "velocity": 0.3937007874015748,
                    "duration": 1.5710389583333324
                },
                {
                    "name": "C3",
                    "midi": 48,
                    "time": 213.64763712500024,
                    "velocity": 0.3937007874015748,
                    "duration": 1.434426875000014
                },
                {
                    "name": "G3",
                    "midi": 55,
                    "time": 213.68862075000024,
                    "velocity": 0.49606299212598426,
                    "duration": 1.3934432500000185
                },
                {
                    "name": "A#3",
                    "midi": 58,
                    "time": 213.72960437500024,
                    "velocity": 0.4409448818897638,
                    "duration": 1.352459625000023
                },
                {
                    "name": "E4",
                    "midi": 64,
                    "time": 213.77058800000023,
                    "velocity": 0.5669291338582677,
                    "duration": 0.6557380000000137
                },
                {
                    "name": "D4",
                    "midi": 62,
                    "time": 214.42632600000024,
                    "velocity": 0.5669291338582677,
                    "duration": 0.6557380000000137
                },
                {
                    "name": "F1",
                    "midi": 29,
                    "time": 215.08206400000026,
                    "velocity": 0.5354330708661418,
                    "duration": 0.32786899999999264
                },
                {
                    "name": "F2",
                    "midi": 41,
                    "time": 215.08206400000026,
                    "velocity": 0.6377952755905512,
                    "duration": 0.32786899999999264
                },
                {
                    "name": "C3",
                    "midi": 48,
                    "time": 215.40993300000025,
                    "velocity": 0.6377952755905512,
                    "duration": 3.6065590000000043
                },
                {
                    "name": "C4",
                    "midi": 60,
                    "time": 215.73780200000024,
                    "velocity": 0.5433070866141733,
                    "duration": 1.63934500000002
                },
                {
                    "name": "A3",
                    "midi": 57,
                    "time": 215.73780200000024,
                    "velocity": 0.4566929133858268,
                    "duration": 1.63934500000002
                },
                {
                    "name": "F3",
                    "midi": 53,
                    "time": 217.37714700000026,
                    "velocity": 0.33858267716535434,
                    "duration": 1.6393449999999916
                },
                {
                    "name": "A3",
                    "midi": 57,
                    "time": 217.37714700000026,
                    "velocity": 0.4015748031496063,
                    "duration": 1.6393449999999916
                },
                {
                    "name": "C3",
                    "midi": 48,
                    "time": 218.89354112500027,
                    "velocity": 0.4645669291338583,
                    "duration": 1.434426875000014
                },
                {
                    "name": "G3",
                    "midi": 55,
                    "time": 218.93452475000026,
                    "velocity": 0.4251968503937008,
                    "duration": 1.3934432500000185
                },
                {
                    "name": "A#3",
                    "midi": 58,
                    "time": 218.97550837500026,
                    "velocity": 0.5275590551181102,
                    "duration": 1.352459625000023
                },
                {
                    "name": "E4",
                    "midi": 64,
                    "time": 219.01649200000026,
                    "velocity": 0.5669291338582677,
                    "duration": 0.6557380000000137
                },
                {
                    "name": "D4",
                    "midi": 62,
                    "time": 219.67223000000027,
                    "velocity": 0.5669291338582677,
                    "duration": 0.6557380000000137
                },
                {
                    "name": "A#1",
                    "midi": 34,
                    "time": 220.32796800000028,
                    "velocity": 0.5354330708661418,
                    "duration": 0.32786899999999264
                },
                {
                    "name": "A#2",
                    "midi": 46,
                    "time": 220.32796800000028,
                    "velocity": 0.6377952755905512,
                    "duration": 0.32786899999999264
                },
                {
                    "name": "F3",
                    "midi": 53,
                    "time": 220.65583700000028,
                    "velocity": 0.6377952755905512,
                    "duration": 0.32786899999999264
                },
                {
                    "name": "A#3",
                    "midi": 58,
                    "time": 220.98370600000027,
                    "velocity": 0.44881889763779526,
                    "duration": 0.9836070000000063
                },
                {
                    "name": "D4",
                    "midi": 62,
                    "time": 220.98370600000027,
                    "velocity": 0.5354330708661418,
                    "duration": 1.63934500000002
                },
                {
                    "name": "A3",
                    "midi": 57,
                    "time": 221.96731300000027,
                    "velocity": 0.5118110236220472,
                    "duration": 0.16393450000001053
                },
                {
                    "name": "A#3",
                    "midi": 58,
                    "time": 222.13124750000028,
                    "velocity": 0.5118110236220472,
                    "duration": 0.16393450000001053
                },
                {
                    "name": "A3",
                    "midi": 57,
                    "time": 222.2951820000003,
                    "velocity": 0.5354330708661418,
                    "duration": 0.32786899999999264
                },
                {
                    "name": "G3",
                    "midi": 55,
                    "time": 222.6230510000003,
                    "velocity": 0.5039370078740157,
                    "duration": 0.16393450000001053
                },
                {
                    "name": "A#3",
                    "midi": 58,
                    "time": 222.6230510000003,
                    "velocity": 0.4251968503937008,
                    "duration": 0.32786900000002106
                },
                {
                    "name": "A3",
                    "midi": 57,
                    "time": 222.7869855000003,
                    "velocity": 0.5039370078740157,
                    "duration": 0.16393450000001053
                },
                {
                    "name": "A#3",
                    "midi": 58,
                    "time": 222.9509200000003,
                    "velocity": 0.4251968503937008,
                    "duration": 0.6557379999999853
                },
                {
                    "name": "G3",
                    "midi": 55,
                    "time": 222.9509200000003,
                    "velocity": 0.5354330708661418,
                    "duration": 0.32786899999999264
                },
                {
                    "name": "F3",
                    "midi": 53,
                    "time": 223.2787890000003,
                    "velocity": 0.49606299212598426,
                    "duration": 0.32786899999999264
                },
                {
                    "name": "G3",
                    "midi": 55,
                    "time": 223.6066580000003,
                    "velocity": 0.5118110236220472,
                    "duration": 0.32786899999999264
                },
                {
                    "name": "A3",
                    "midi": 57,
                    "time": 223.9345270000003,
                    "velocity": 0.5354330708661418,
                    "duration": 0.32786899999999264
                },
                {
                    "name": "A#3",
                    "midi": 58,
                    "time": 224.26239600000028,
                    "velocity": 0.5590551181102362,
                    "duration": 0.32786899999999264
                },
                {
                    "name": "C4",
                    "midi": 60,
                    "time": 224.59026500000027,
                    "velocity": 0.5748031496062992,
                    "duration": 0.32786899999999264
                },
                {
                    "name": "D4",
                    "midi": 62,
                    "time": 224.91813400000026,
                    "velocity": 0.5984251968503937,
                    "duration": 0.32786899999999264
                },
                {
                    "name": "F4",
                    "midi": 65,
                    "time": 225.24600300000026,
                    "velocity": 0.6299212598425197,
                    "duration": 0.32786899999999264
                },
                {
                    "name": "D4",
                    "midi": 62,
                    "time": 225.57387200000025,
                    "velocity": 0.47244094488188976,
                    "duration": 1.311475999999999
                },
                {
                    "name": "F4",
                    "midi": 65,
                    "time": 225.57387200000025,
                    "velocity": 0.47244094488188976,
                    "duration": 1.311475999999999
                },
                {
                    "name": "C5",
                    "midi": 72,
                    "time": 225.57387200000025,
                    "velocity": 0.5669291338582677,
                    "duration": 1.311475999999999
                },
                {
                    "name": "A#4",
                    "midi": 70,
                    "time": 225.57387200000025,
                    "velocity": 0.5669291338582677,
                    "duration": 1.311475999999999
                },
                {
                    "name": "C4",
                    "midi": 60,
                    "time": 226.88534800000025,
                    "velocity": 0.47244094488188976,
                    "duration": 0.6557380000000137
                },
                {
                    "name": "F4",
                    "midi": 65,
                    "time": 226.88534800000025,
                    "velocity": 0.47244094488188976,
                    "duration": 0.6557380000000137
                },
                {
                    "name": "A4",
                    "midi": 69,
                    "time": 226.88534800000025,
                    "velocity": 0.47244094488188976,
                    "duration": 0.6557380000000137
                },
                {
                    "name": "C5",
                    "midi": 72,
                    "time": 226.88534800000025,
                    "velocity": 0.5669291338582677,
                    "duration": 0.6557380000000137
                },
                {
                    "name": "A#3",
                    "midi": 58,
                    "time": 227.54108600000026,
                    "velocity": 0.4330708661417323,
                    "duration": 0.6557379999999853
                },
                {
                    "name": "D4",
                    "midi": 62,
                    "time": 227.54108600000026,
                    "velocity": 0.4330708661417323,
                    "duration": 0.6557379999999853
                },
                {
                    "name": "G4",
                    "midi": 67,
                    "time": 227.54108600000026,
                    "velocity": 0.5118110236220472,
                    "duration": 0.6557379999999853
                },
                {
                    "name": "F4",
                    "midi": 65,
                    "time": 227.54108600000026,
                    "velocity": 0.4330708661417323,
                    "duration": 0.6557379999999853
                },
                {
                    "name": "F3",
                    "midi": 53,
                    "time": 228.19682400000025,
                    "velocity": 0.49606299212598426,
                    "duration": 0.6557379999999853
                },
                {
                    "name": "C4",
                    "midi": 60,
                    "time": 228.19682400000025,
                    "velocity": 0.49606299212598426,
                    "duration": 0.6557379999999853
                },
                {
                    "name": "F4",
                    "midi": 65,
                    "time": 228.19682400000025,
                    "velocity": 0.49606299212598426,
                    "duration": 0.6557379999999853
                },
                {
                    "name": "A4",
                    "midi": 69,
                    "time": 228.19682400000025,
                    "velocity": 0.5905511811023622,
                    "duration": 0.6557379999999853
                },
                {
                    "name": "F1",
                    "midi": 29,
                    "time": 230.81977600000022,
                    "velocity": 0.44881889763779526,
                    "duration": 0.6557379999999853
                },
                {
                    "name": "C2",
                    "midi": 36,
                    "time": 230.81977600000022,
                    "velocity": 0.44881889763779526,
                    "duration": 0.6557379999999853
                },
                {
                    "name": "F2",
                    "midi": 41,
                    "time": 230.81977600000022,
                    "velocity": 0.5354330708661418,
                    "duration": 0.6557379999999853
                }
            ],
            "controlChanges": {
                "7": [
                    {
                        "number": 7,
                        "time": 0,
                        "value": 0.7874015748031497
                    }
                ],
                "10": [
                    {
                        "number": 10,
                        "time": 0,
                        "value": 0.5039370078740157
                    }
                ],
                "64": [
                    {
                        "number": 64,
                        "time": 0,
                        "value": 1
                    },
                    {
                        "number": 64,
                        "time": 1.3224049666666668,
                        "value": 0
                    },
                    {
                        "number": 64,
                        "time": 1.5819679250000003,
                        "value": 1
                    },
                    {
                        "number": 64,
                        "time": 2.6229520000000006,
                        "value": 0
                    },
                    {
                        "number": 64,
                        "time": 10.579239733333337,
                        "value": 1
                    },
                    {
                        "number": 64,
                        "time": 11.81421296666667,
                        "value": 0
                    },
                    {
                        "number": 64,
                        "time": 15.872957962500001,
                        "value": 1
                    },
                    {
                        "number": 64,
                        "time": 17.069679812500002,
                        "value": 0
                    },
                    {
                        "number": 64,
                        "time": 17.454925887500004,
                        "value": 1
                    },
                    {
                        "number": 64,
                        "time": 18.360664000000003,
                        "value": 0
                    },
                    {
                        "number": 64,
                        "time": 26.22952,
                        "value": 1
                    },
                    {
                        "number": 64,
                        "time": 27.8975535375,
                        "value": 0
                    },
                    {
                        "number": 64,
                        "time": 31.56285573333333,
                        "value": 1
                    },
                    {
                        "number": 64,
                        "time": 33.09564330833333,
                        "value": 0
                    },
                    {
                        "number": 64,
                        "time": 36.78826792083334,
                        "value": 1
                    },
                    {
                        "number": 64,
                        "time": 37.39619169166667,
                        "value": 0
                    },
                    {
                        "number": 64,
                        "time": 39.39755871250001,
                        "value": 1
                    },
                    {
                        "number": 64,
                        "time": 40.01094696666667,
                        "value": 0
                    },
                    {
                        "number": 64,
                        "time": 41.34018253750001,
                        "value": 1
                    },
                    {
                        "number": 64,
                        "time": 41.88526475000001,
                        "value": 0
                    },
                    {
                        "number": 64,
                        "time": 43.66941855833336,
                        "value": 1
                    },
                    {
                        "number": 64,
                        "time": 43.95903617500003,
                        "value": 0
                    },
                    {
                        "number": 64,
                        "time": 45.424883829166696,
                        "value": 1
                    },
                    {
                        "number": 64,
                        "time": 46.591551020833364,
                        "value": 0
                    },
                    {
                        "number": 64,
                        "time": 47.275977558333366,
                        "value": 1
                    },
                    {
                        "number": 64,
                        "time": 48.55876502083337,
                        "value": 0
                    },
                    {
                        "number": 64,
                        "time": 48.64073227083337,
                        "value": 1
                    },
                    {
                        "number": 64,
                        "time": 49.5437381416667,
                        "value": 0
                    },
                    {
                        "number": 64,
                        "time": 49.754120750000034,
                        "value": 1
                    },
                    {
                        "number": 64,
                        "time": 51.81559708750004,
                        "value": 0
                    },
                    {
                        "number": 64,
                        "time": 51.86614355833337,
                        "value": 1
                    },
                    {
                        "number": 64,
                        "time": 52.45904000000004,
                        "value": 0
                    },
                    {
                        "number": 64,
                        "time": 52.709040112500034,
                        "value": 1
                    },
                    {
                        "number": 64,
                        "time": 54.44264745000004,
                        "value": 0
                    },
                    {
                        "number": 64,
                        "time": 55.13663683333337,
                        "value": 1
                    },
                    {
                        "number": 64,
                        "time": 55.41805772500003,
                        "value": 0
                    },
                    {
                        "number": 64,
                        "time": 57.0888235041667,
                        "value": 1
                    },
                    {
                        "number": 64,
                        "time": 57.70494400000003,
                        "value": 0
                    },
                    {
                        "number": 64,
                        "time": 60.39073755833336,
                        "value": 1
                    },
                    {
                        "number": 64,
                        "time": 62.3060389666667,
                        "value": 0
                    },
                    {
                        "number": 64,
                        "time": 62.34565647083336,
                        "value": 1
                    },
                    {
                        "number": 64,
                        "time": 62.95084800000003,
                        "value": 0
                    },
                    {
                        "number": 64,
                        "time": 63.202214233333365,
                        "value": 1
                    },
                    {
                        "number": 64,
                        "time": 64.2855480541667,
                        "value": 0
                    },
                    {
                        "number": 64,
                        "time": 64.68718757916669,
                        "value": 1
                    },
                    {
                        "number": 64,
                        "time": 65.57380000000002,
                        "value": 0
                    },
                    {
                        "number": 64,
                        "time": 65.65166888750002,
                        "value": 1
                    },
                    {
                        "number": 64,
                        "time": 66.58199717500003,
                        "value": 0
                    },
                    {
                        "number": 64,
                        "time": 66.94265307500004,
                        "value": 1
                    },
                    {
                        "number": 64,
                        "time": 67.71041298333337,
                        "value": 0
                    },
                    {
                        "number": 64,
                        "time": 67.94675188750004,
                        "value": 1
                    },
                    {
                        "number": 64,
                        "time": 68.19675200000005,
                        "value": 0
                    },
                    {
                        "number": 64,
                        "time": 68.25412907500005,
                        "value": 1
                    },
                    {
                        "number": 64,
                        "time": 69.50822800000005,
                        "value": 0
                    },
                    {
                        "number": 64,
                        "time": 69.5806324041667,
                        "value": 1
                    },
                    {
                        "number": 64,
                        "time": 70.34292782916671,
                        "value": 0
                    },
                    {
                        "number": 64,
                        "time": 70.87434883333337,
                        "value": 1
                    },
                    {
                        "number": 64,
                        "time": 71.86205419583337,
                        "value": 0
                    },
                    {
                        "number": 64,
                        "time": 72.20631664583337,
                        "value": 1
                    },
                    {
                        "number": 64,
                        "time": 72.96451370833337,
                        "value": 0
                    },
                    {
                        "number": 64,
                        "time": 73.00959569583337,
                        "value": 1
                    },
                    {
                        "number": 64,
                        "time": 73.44265600000004,
                        "value": 0
                    },
                    {
                        "number": 64,
                        "time": 73.49730083333337,
                        "value": 1
                    },
                    {
                        "number": 64,
                        "time": 74.28282031250004,
                        "value": 0
                    },
                    {
                        "number": 64,
                        "time": 74.78555277916671,
                        "value": 1
                    },
                    {
                        "number": 64,
                        "time": 75.59019795000005,
                        "value": 0
                    },
                    {
                        "number": 64,
                        "time": 75.65167338750004,
                        "value": 1
                    },
                    {
                        "number": 64,
                        "time": 76.06970636250004,
                        "value": 0
                    },
                    {
                        "number": 64,
                        "time": 83.40440911666678,
                        "value": 1
                    },
                    {
                        "number": 64,
                        "time": 83.97408150416679,
                        "value": 0
                    },
                    {
                        "number": 64,
                        "time": 91.86616155833347,
                        "value": 1
                    },
                    {
                        "number": 64,
                        "time": 93.78419520833347,
                        "value": 0
                    },
                    {
                        "number": 64,
                        "time": 93.83747392083347,
                        "value": 1
                    },
                    {
                        "number": 64,
                        "time": 94.42627200000015,
                        "value": 0
                    },
                    {
                        "number": 64,
                        "time": 94.58200977500016,
                        "value": 1
                    },
                    {
                        "number": 64,
                        "time": 96.42217453750017,
                        "value": 0
                    },
                    {
                        "number": 64,
                        "time": 97.09293986666684,
                        "value": 1
                    },
                    {
                        "number": 64,
                        "time": 97.3948525708335,
                        "value": 0
                    },
                    {
                        "number": 64,
                        "time": 99.0710828333335,
                        "value": 1
                    },
                    {
                        "number": 64,
                        "time": 99.68447108750017,
                        "value": 0
                    },
                    {
                        "number": 64,
                        "time": 102.36480016250017,
                        "value": 1
                    },
                    {
                        "number": 64,
                        "time": 104.27327096666684,
                        "value": 0
                    },
                    {
                        "number": 64,
                        "time": 104.32928192083351,
                        "value": 1
                    },
                    {
                        "number": 64,
                        "time": 104.91808000000019,
                        "value": 0
                    },
                    {
                        "number": 64,
                        "time": 105.13119485000018,
                        "value": 1
                    },
                    {
                        "number": 64,
                        "time": 106.24594945000018,
                        "value": 0
                    },
                    {
                        "number": 64,
                        "time": 106.53829930833352,
                        "value": 1
                    },
                    {
                        "number": 64,
                        "time": 107.32928327083351,
                        "value": 0
                    },
                    {
                        "number": 64,
                        "time": 107.92764419583352,
                        "value": 1
                    },
                    {
                        "number": 64,
                        "time": 108.55059529583352,
                        "value": 0
                    },
                    {
                        "number": 64,
                        "time": 108.91534955833352,
                        "value": 1
                    },
                    {
                        "number": 64,
                        "time": 109.19540432916685,
                        "value": 0
                    },
                    {
                        "number": 64,
                        "time": 126.04240644583354,
                        "value": 1
                    },
                    {
                        "number": 64,
                        "time": 126.56426460416687,
                        "value": 0
                    },
                    {
                        "number": 64,
                        "time": 126.74459255416687,
                        "value": 1
                    },
                    {
                        "number": 64,
                        "time": 127.23912829583354,
                        "value": 0
                    },
                    {
                        "number": 64,
                        "time": 127.44814478333353,
                        "value": 1
                    },
                    {
                        "number": 64,
                        "time": 127.88120508750019,
                        "value": 0
                    },
                    {
                        "number": 64,
                        "time": 128.04104122500019,
                        "value": 1
                    },
                    {
                        "number": 64,
                        "time": 128.52464800000018,
                        "value": 0
                    },
                    {
                        "number": 64,
                        "time": 129.94268142500022,
                        "value": 1
                    },
                    {
                        "number": 64,
                        "time": 130.50552320833356,
                        "value": 0
                    },
                    {
                        "number": 64,
                        "time": 130.63667080833355,
                        "value": 1
                    },
                    {
                        "number": 64,
                        "time": 131.15716284583354,
                        "value": 0
                    },
                    {
                        "number": 64,
                        "time": 131.3197312250002,
                        "value": 1
                    },
                    {
                        "number": 64,
                        "time": 131.83066041666686,
                        "value": 0
                    },
                    {
                        "number": 64,
                        "time": 131.97546922500018,
                        "value": 1
                    },
                    {
                        "number": 64,
                        "time": 132.4713710875002,
                        "value": 0
                    },
                    {
                        "number": 64,
                        "time": 132.64623455416685,
                        "value": 1
                    },
                    {
                        "number": 64,
                        "time": 133.77055200000015,
                        "value": 0
                    },
                    {
                        "number": 64,
                        "time": 133.83339355833348,
                        "value": 1
                    },
                    {
                        "number": 64,
                        "time": 135.14486955833348,
                        "value": 0
                    },
                    {
                        "number": 64,
                        "time": 135.19814827083349,
                        "value": 1
                    },
                    {
                        "number": 64,
                        "time": 136.39350400000015,
                        "value": 0
                    },
                    {
                        "number": 64,
                        "time": 136.45224719583348,
                        "value": 1
                    },
                    {
                        "number": 64,
                        "time": 137.05743872500014,
                        "value": 0
                    },
                    {
                        "number": 64,
                        "time": 137.10252071250014,
                        "value": 1
                    },
                    {
                        "number": 64,
                        "time": 137.7241056916668,
                        "value": 0
                    },
                    {
                        "number": 64,
                        "time": 137.76782155833348,
                        "value": 1
                    },
                    {
                        "number": 64,
                        "time": 139.01645600000015,
                        "value": 0
                    },
                    {
                        "number": 64,
                        "time": 139.07929755833348,
                        "value": 1
                    },
                    {
                        "number": 64,
                        "time": 140.33749484583348,
                        "value": 0
                    },
                    {
                        "number": 64,
                        "time": 140.3962380416668,
                        "value": 1
                    },
                    {
                        "number": 64,
                        "time": 141.63940800000015,
                        "value": 0
                    },
                    {
                        "number": 64,
                        "time": 144.34022888750013,
                        "value": 1
                    },
                    {
                        "number": 64,
                        "time": 144.93585757083346,
                        "value": 0
                    },
                    {
                        "number": 64,
                        "time": 145.0437811166668,
                        "value": 1
                    },
                    {
                        "number": 64,
                        "time": 145.57930048333344,
                        "value": 0
                    },
                    {
                        "number": 64,
                        "time": 145.6517048875001,
                        "value": 1
                    },
                    {
                        "number": 64,
                        "time": 146.2486996916668,
                        "value": 0
                    },
                    {
                        "number": 64,
                        "time": 146.31700573333345,
                        "value": 1
                    },
                    {
                        "number": 64,
                        "time": 146.8853120000001,
                        "value": 0
                    },
                    {
                        "number": 64,
                        "time": 146.9672792500001,
                        "value": 1
                    },
                    {
                        "number": 64,
                        "time": 147.5164598250001,
                        "value": 0
                    },
                    {
                        "number": 64,
                        "time": 147.59979319583343,
                        "value": 1
                    },
                    {
                        "number": 64,
                        "time": 148.21591369166677,
                        "value": 0
                    },
                    {
                        "number": 64,
                        "time": 148.3074437875001,
                        "value": 1
                    },
                    {
                        "number": 64,
                        "time": 148.88121453750009,
                        "value": 0
                    },
                    {
                        "number": 64,
                        "time": 148.97820911666676,
                        "value": 1
                    },
                    {
                        "number": 64,
                        "time": 149.53012193333345,
                        "value": 0
                    },
                    {
                        "number": 64,
                        "time": 149.56700719583344,
                        "value": 1
                    },
                    {
                        "number": 64,
                        "time": 150.18312769166678,
                        "value": 0
                    },
                    {
                        "number": 64,
                        "time": 150.24596925000012,
                        "value": 1
                    },
                    {
                        "number": 64,
                        "time": 150.84979465833345,
                        "value": 0
                    },
                    {
                        "number": 64,
                        "time": 150.91127009583346,
                        "value": 1
                    },
                    {
                        "number": 64,
                        "time": 151.49050532916678,
                        "value": 0
                    },
                    {
                        "number": 64,
                        "time": 151.5533468875001,
                        "value": 1
                    },
                    {
                        "number": 64,
                        "time": 152.1312160000001,
                        "value": 0
                    },
                    {
                        "number": 64,
                        "time": 152.24050566666676,
                        "value": 1
                    },
                    {
                        "number": 64,
                        "time": 152.79788296666675,
                        "value": 0
                    },
                    {
                        "number": 64,
                        "time": 152.89624366666675,
                        "value": 1
                    },
                    {
                        "number": 64,
                        "time": 153.47001441666674,
                        "value": 0
                    },
                    {
                        "number": 64,
                        "time": 153.5997958958334,
                        "value": 1
                    },
                    {
                        "number": 64,
                        "time": 154.12575241666673,
                        "value": 0
                    },
                    {
                        "number": 64,
                        "time": 154.23914044583339,
                        "value": 1
                    },
                    {
                        "number": 64,
                        "time": 154.75963248333338,
                        "value": 0
                    },
                    {
                        "number": 64,
                        "time": 154.98640854166672,
                        "value": 1
                    },
                    {
                        "number": 64,
                        "time": 155.4317639333334,
                        "value": 0
                    },
                    {
                        "number": 64,
                        "time": 155.6612722333334,
                        "value": 1
                    },
                    {
                        "number": 64,
                        "time": 156.08613581250006,
                        "value": 0
                    },
                    {
                        "number": 64,
                        "time": 156.33613592500006,
                        "value": 1
                    },
                    {
                        "number": 64,
                        "time": 156.74050769166672,
                        "value": 0
                    },
                    {
                        "number": 64,
                        "time": 156.95362254166673,
                        "value": 1
                    },
                    {
                        "number": 64,
                        "time": 157.37712000000008,
                        "value": 0
                    },
                    {
                        "number": 64,
                        "time": 157.4440599208334,
                        "value": 1
                    },
                    {
                        "number": 64,
                        "time": 158.37985269166674,
                        "value": 0
                    },
                    {
                        "number": 64,
                        "time": 159.47001711666675,
                        "value": 1
                    },
                    {
                        "number": 64,
                        "time": 160.00007200000007,
                        "value": 0
                    },
                    {
                        "number": 64,
                        "time": 160.23231254166674,
                        "value": 1
                    },
                    {
                        "number": 64,
                        "time": 160.67766793333342,
                        "value": 0
                    },
                    {
                        "number": 64,
                        "time": 160.88668442083343,
                        "value": 1
                    },
                    {
                        "number": 64,
                        "time": 161.3361381750001,
                        "value": 0
                    },
                    {
                        "number": 64,
                        "time": 161.52329672916676,
                        "value": 1
                    },
                    {
                        "number": 64,
                        "time": 161.98504557083342,
                        "value": 0
                    },
                    {
                        "number": 64,
                        "time": 162.19952654166676,
                        "value": 1
                    },
                    {
                        "number": 64,
                        "time": 162.6230240000001,
                        "value": 0
                    },
                    {
                        "number": 64,
                        "time": 162.71045573333345,
                        "value": 1
                    },
                    {
                        "number": 64,
                        "time": 163.6257566916668,
                        "value": 0
                    },
                    {
                        "number": 64,
                        "time": 164.68723257916682,
                        "value": 1
                    },
                    {
                        "number": 64,
                        "time": 165.2569049666668,
                        "value": 0
                    },
                    {
                        "number": 64,
                        "time": 165.43859903750015,
                        "value": 1
                    },
                    {
                        "number": 64,
                        "time": 166.2432442083335,
                        "value": 0
                    },
                    {
                        "number": 64,
                        "time": 167.32931027083353,
                        "value": 1
                    },
                    {
                        "number": 64,
                        "time": 167.8812230875002,
                        "value": 0
                    },
                    {
                        "number": 64,
                        "time": 167.91674222916686,
                        "value": 1
                    },
                    {
                        "number": 64,
                        "time": 170.49188000000024,
                        "value": 0
                    },
                    {
                        "number": 64,
                        "time": 170.72275442083355,
                        "value": 1
                    },
                    {
                        "number": 64,
                        "time": 171.81291884583354,
                        "value": 0
                    },
                    {
                        "number": 64,
                        "time": 172.03559654166688,
                        "value": 1
                    },
                    {
                        "number": 64,
                        "time": 173.1148320000002,
                        "value": 0
                    },
                    {
                        "number": 64,
                        "time": 181.06155688750022,
                        "value": 1
                    },
                    {
                        "number": 64,
                        "time": 182.33341538333357,
                        "value": 0
                    },
                    {
                        "number": 64,
                        "time": 186.4030893458336,
                        "value": 1
                    },
                    {
                        "number": 64,
                        "time": 187.5697565375002,
                        "value": 0
                    },
                    {
                        "number": 64,
                        "time": 187.79243423333355,
                        "value": 1
                    },
                    {
                        "number": 64,
                        "time": 188.85254400000022,
                        "value": 0
                    },
                    {
                        "number": 64,
                        "time": 196.78833992083352,
                        "value": 1
                    },
                    {
                        "number": 64,
                        "time": 197.39899593333354,
                        "value": 0
                    },
                    {
                        "number": 64,
                        "time": 197.52194680833352,
                        "value": 1
                    },
                    {
                        "number": 64,
                        "time": 198.04653720833352,
                        "value": 0
                    },
                    {
                        "number": 64,
                        "time": 198.15855911666685,
                        "value": 1
                    },
                    {
                        "number": 64,
                        "time": 198.71183805416683,
                        "value": 0
                    },
                    {
                        "number": 64,
                        "time": 198.8334228083335,
                        "value": 1
                    },
                    {
                        "number": 64,
                        "time": 199.35664708750016,
                        "value": 0
                    },
                    {
                        "number": 64,
                        "time": 199.40172907500016,
                        "value": 1
                    },
                    {
                        "number": 64,
                        "time": 200.00692060416682,
                        "value": 0
                    },
                    {
                        "number": 64,
                        "time": 200.07795888750016,
                        "value": 1
                    },
                    {
                        "number": 64,
                        "time": 200.6708553291668,
                        "value": 0
                    },
                    {
                        "number": 64,
                        "time": 200.7528225791668,
                        "value": 1
                    },
                    {
                        "number": 64,
                        "time": 201.32522720833347,
                        "value": 0
                    },
                    {
                        "number": 64,
                        "time": 201.3839704041668,
                        "value": 1
                    },
                    {
                        "number": 64,
                        "time": 201.96730400000013,
                        "value": 0
                    },
                    {
                        "number": 64,
                        "time": 202.08342427083346,
                        "value": 1
                    },
                    {
                        "number": 64,
                        "time": 203.29653957083352,
                        "value": 0
                    },
                    {
                        "number": 64,
                        "time": 204.63943635000018,
                        "value": 1
                    },
                    {
                        "number": 64,
                        "time": 205.9126609666669,
                        "value": 0
                    },
                    {
                        "number": 64,
                        "time": 207.29107688750022,
                        "value": 1
                    },
                    {
                        "number": 64,
                        "time": 208.53697908750027,
                        "value": 0
                    },
                    {
                        "number": 64,
                        "time": 209.9522802708336,
                        "value": 1
                    },
                    {
                        "number": 64,
                        "time": 211.4891662083336,
                        "value": 0
                    },
                    {
                        "number": 64,
                        "time": 215.20774711666692,
                        "value": 1
                    },
                    {
                        "number": 64,
                        "time": 216.73916857083358,
                        "value": 0
                    },
                    {
                        "number": 64,
                        "time": 220.52059103750028,
                        "value": 1
                    },
                    {
                        "number": 64,
                        "time": 221.9878048125003,
                        "value": 0
                    },
                    {
                        "number": 64,
                        "time": 224.93725969166692,
                        "value": 1
                    },
                    {
                        "number": 64,
                        "time": 225.57387200000025,
                        "value": 0
                    },
                    {
                        "number": 64,
                        "time": 225.68999227083359,
                        "value": 1
                    },
                    {
                        "number": 64,
                        "time": 226.90583981250026,
                        "value": 0
                    },
                    {
                        "number": 64,
                        "time": 226.9727797333336,
                        "value": 1
                    },
                    {
                        "number": 64,
                        "time": 227.56021169166692,
                        "value": 0
                    },
                    {
                        "number": 64,
                        "time": 227.65174178750024,
                        "value": 1
                    },
                    {
                        "number": 64,
                        "time": 228.2118513291669,
                        "value": 0
                    },
                    {
                        "number": 64,
                        "time": 228.56157826250023,
                        "value": 1
                    },
                    {
                        "number": 64,
                        "time": 228.9249664041669,
                        "value": 0
                    },
                    {
                        "number": 64,
                        "time": 231.07524059583355,
                        "value": 1
                    },
                    {
                        "number": 64,
                        "time": 231.84026826250022,
                        "value": 0
                    }
                ],
                "91": [
                    {
                        "number": 91,
                        "time": 0,
                        "value": 1
                    },
                    {
                        "number": 91,
                        "time": 15.737712,
                        "value": 1
                    },
                    {
                        "number": 91,
                        "time": 170.49188000000024,
                        "value": 1
                    },
                    {
                        "number": 91,
                        "time": 186.22959200000028,
                        "value": 1
                    }
                ]
            },
            "id": 2,
            "name": "Piano left",
            "instrumentNumber": 0,
            "instrument": "acoustic grand piano",
            "instrumentFamily": "piano",
            "channelNumber": 0,
            "isPercussion": false
        },
        {
            "startTime": 0,
            "duration": 0,
            "length": 0,
            "notes": [],
            "controlChanges": {},
            "id": 3,
            "name": "Debussy: Prelude from Suite bergamasque"
        },
        {
            "startTime": 0,
            "duration": 0,
            "length": 0,
            "notes": [],
            "controlChanges": {},
            "id": 4,
            "name": "Copyright  1998 by Bernd Krger"
        },
        {
            "startTime": 0,
            "duration": 0,
            "length": 0,
            "notes": [],
            "controlChanges": {},
            "id": 5,
            "name": "http://www.piano-midi.de"
        },
        {
            "startTime": 0,
            "duration": 0,
            "length": 0,
            "notes": [],
            "controlChanges": {},
            "id": 6,
            "name": "Edition: 2011-08-04"
        }
    ]
}