{
    "header": {
        "PPQ": 480,
        "timeSignature": [
            4,
            4
        ],
        "bpm": 170.50007672503452,
        "name": "Passepied"
    },
    "startTime": 0,
    "duration": 218.357673,
    "tracks": [
        {
            "startTime": 0,
            "duration": 0,
            "length": 0,
            "notes": [],
            "controlChanges": {},
            "id": 0,
            "name": "Passepied"
        },
        {
            "startTime": 2.815248,
            "duration": 218.3576729999994,
            "length": 1064,
            "notes": [
                {
                    "name": "F#4",
                    "midi": 66,
                    "time": 2.815248,
                    "velocity": 0.4330708661417323,
                    "duration": 0.26392950000000015
                },
                {
                    "name": "C#5",
                    "midi": 73,
                    "time": 3.167154,
                    "velocity": 0.4330708661417323,
                    "duration": 0.1759529999999998
                },
                {
                    "name": "B4",
                    "midi": 71,
                    "time": 3.5190599999999996,
                    "velocity": 0.4409448818897638,
                    "duration": 1.0557179999999997
                },
                {
                    "name": "A4",
                    "midi": 69,
                    "time": 4.574777999999999,
                    "velocity": 0.4251968503937008,
                    "duration": 0.13196474999999985
                },
                {
                    "name": "G#4",
                    "midi": 68,
                    "time": 4.750730999999999,
                    "velocity": 0.4251968503937008,
                    "duration": 0.13196474999999985
                },
                {
                    "name": "F#4",
                    "midi": 66,
                    "time": 4.926683999999999,
                    "velocity": 0.4409448818897638,
                    "duration": 0.29325500000000027
                },
                {
                    "name": "E4",
                    "midi": 64,
                    "time": 5.2785899999999994,
                    "velocity": 0.4251968503937008,
                    "duration": 0.13196474999999985
                },
                {
                    "name": "D4",
                    "midi": 62,
                    "time": 5.454542999999999,
                    "velocity": 0.41732283464566927,
                    "duration": 0.13196474999999985
                },
                {
                    "name": "C#4",
                    "midi": 61,
                    "time": 5.630495999999999,
                    "velocity": 0.4409448818897638,
                    "duration": 0.3445746249999999
                },
                {
                    "name": "D4",
                    "midi": 62,
                    "time": 5.982401999999999,
                    "velocity": 0.41732283464566927,
                    "duration": 0.1759529999999998
                },
                {
                    "name": "E4",
                    "midi": 64,
                    "time": 6.1583549999999985,
                    "velocity": 0.41732283464566927,
                    "duration": 0.1759529999999998
                },
                {
                    "name": "F#4",
                    "midi": 66,
                    "time": 6.334307999999998,
                    "velocity": 0.44881889763779526,
                    "duration": 0.3519059999999996
                },
                {
                    "name": "A4",
                    "midi": 69,
                    "time": 6.686213999999998,
                    "velocity": 0.4330708661417323,
                    "duration": 0.3519059999999996
                },
                {
                    "name": "G#4",
                    "midi": 68,
                    "time": 7.0381199999999975,
                    "velocity": 0.44881889763779526,
                    "duration": 1.5689142500000006
                },
                {
                    "name": "F#4",
                    "midi": 66,
                    "time": 8.621696999999998,
                    "velocity": 0.3937007874015748,
                    "duration": 0.13196474999999985
                },
                {
                    "name": "G#4",
                    "midi": 68,
                    "time": 8.797649999999997,
                    "velocity": 0.3937007874015748,
                    "duration": 0.13196474999999985
                },
                {
                    "name": "A4",
                    "midi": 69,
                    "time": 8.973602999999997,
                    "velocity": 0.3937007874015748,
                    "duration": 0.13196474999999985
                },
                {
                    "name": "F#4",
                    "midi": 66,
                    "time": 9.149555999999997,
                    "velocity": 0.4330708661417323,
                    "duration": 0.3519059999999996
                },
                {
                    "name": "B4",
                    "midi": 71,
                    "time": 9.149555999999997,
                    "velocity": 0.4330708661417323,
                    "duration": 0.8651022499999996
                },
                {
                    "name": "F4",
                    "midi": 65,
                    "time": 9.501461999999997,
                    "velocity": 0.3937007874015748,
                    "duration": 0.3519059999999996
                },
                {
                    "name": "C#4",
                    "midi": 61,
                    "time": 9.853367999999996,
                    "velocity": 0.3937007874015748,
                    "duration": 0.3519059999999996
                },
                {
                    "name": "A4",
                    "midi": 69,
                    "time": 10.029320999999996,
                    "velocity": 0.4094488188976378,
                    "duration": 0.1759529999999998
                },
                {
                    "name": "B4",
                    "midi": 71,
                    "time": 10.205273999999996,
                    "velocity": 0.4094488188976378,
                    "duration": 0.1759529999999998
                },
                {
                    "name": "C#5",
                    "midi": 73,
                    "time": 10.381226999999996,
                    "velocity": 0.4094488188976378,
                    "duration": 0.1759529999999998
                },
                {
                    "name": "D5",
                    "midi": 74,
                    "time": 10.557179999999995,
                    "velocity": 0.4409448818897638,
                    "duration": 0.8651022499999996
                },
                {
                    "name": "A4",
                    "midi": 69,
                    "time": 10.557179999999995,
                    "velocity": 0.4409448818897638,
                    "duration": 0.3519059999999996
                },
                {
                    "name": "G#4",
                    "midi": 68,
                    "time": 10.909085999999995,
                    "velocity": 0.3937007874015748,
                    "duration": 0.3519059999999996
                },
                {
                    "name": "E4",
                    "midi": 64,
                    "time": 11.260991999999995,
                    "velocity": 0.3937007874015748,
                    "duration": 0.3519059999999996
                },
                {
                    "name": "C#5",
                    "midi": 73,
                    "time": 11.436944999999994,
                    "velocity": 0.4251968503937008,
                    "duration": 0.1759529999999998
                },
                {
                    "name": "D5",
                    "midi": 74,
                    "time": 11.612897999999994,
                    "velocity": 0.4566929133858268,
                    "duration": 0.1759529999999998
                },
                {
                    "name": "E5",
                    "midi": 76,
                    "time": 11.788850999999994,
                    "velocity": 0.49606299212598426,
                    "duration": 0.1759529999999998
                },
                {
                    "name": "D5",
                    "midi": 74,
                    "time": 11.964803999999994,
                    "velocity": 0.5039370078740157,
                    "duration": 1.0557180000000006
                },
                {
                    "name": "F#5",
                    "midi": 78,
                    "time": 11.964803999999994,
                    "velocity": 0.5590551181102362,
                    "duration": 1.4076240000000002
                },
                {
                    "name": "F#4",
                    "midi": 66,
                    "time": 13.372427999999994,
                    "velocity": 0.4409448818897638,
                    "duration": 0.9677415000000007
                },
                {
                    "name": "C#5",
                    "midi": 73,
                    "time": 14.428145999999995,
                    "velocity": 0.41732283464566927,
                    "duration": 0.0879764999999999
                },
                {
                    "name": "B4",
                    "midi": 71,
                    "time": 14.780051999999994,
                    "velocity": 0.4409448818897638,
                    "duration": 1.0557180000000006
                },
                {
                    "name": "A4",
                    "midi": 69,
                    "time": 15.835769999999995,
                    "velocity": 0.4251968503937008,
                    "duration": 0.13196474999999985
                },
                {
                    "name": "G#4",
                    "midi": 68,
                    "time": 16.011722999999996,
                    "velocity": 0.4251968503937008,
                    "duration": 0.13196475000000163
                },
                {
                    "name": "F#4",
                    "midi": 66,
                    "time": 16.187676,
                    "velocity": 0.4409448818897638,
                    "duration": 0.2932549999999985
                },
                {
                    "name": "E4",
                    "midi": 64,
                    "time": 16.539582,
                    "velocity": 0.4251968503937008,
                    "duration": 0.13196475000000163
                },
                {
                    "name": "D4",
                    "midi": 62,
                    "time": 16.715535000000003,
                    "velocity": 0.41732283464566927,
                    "duration": 0.13196475000000163
                },
                {
                    "name": "C#4",
                    "midi": 61,
                    "time": 17.067441000000006,
                    "velocity": 0.4409448818897638,
                    "duration": 0.1759529999999998
                },
                {
                    "name": "D4",
                    "midi": 62,
                    "time": 17.243394000000006,
                    "velocity": 0.41732283464566927,
                    "duration": 0.1759529999999998
                },
                {
                    "name": "E4",
                    "midi": 64,
                    "time": 17.419347000000005,
                    "velocity": 0.41732283464566927,
                    "duration": 0.1759529999999998
                },
                {
                    "name": "F#4",
                    "midi": 66,
                    "time": 17.595300000000005,
                    "velocity": 0.44881889763779526,
                    "duration": 0.3519059999999996
                },
                {
                    "name": "A4",
                    "midi": 69,
                    "time": 17.947206000000005,
                    "velocity": 0.4330708661417323,
                    "duration": 0.3519059999999996
                },
                {
                    "name": "F#4",
                    "midi": 66,
                    "time": 18.299112000000004,
                    "velocity": 0.44881889763779526,
                    "duration": 2.111436000000001
                },
                {
                    "name": "G#4",
                    "midi": 68,
                    "time": 18.299112000000004,
                    "velocity": 0.44881889763779526,
                    "duration": 2.111436000000001
                },
                {
                    "name": "F#4",
                    "midi": 66,
                    "time": 20.410548000000006,
                    "velocity": 0.47244094488188976,
                    "duration": 0.3519059999999996
                },
                {
                    "name": "A4",
                    "midi": 69,
                    "time": 20.410548000000006,
                    "velocity": 0.47244094488188976,
                    "duration": 0.3519059999999996
                },
                {
                    "name": "E5",
                    "midi": 76,
                    "time": 20.762454000000005,
                    "velocity": 0.4645669291338583,
                    "duration": 0.0879764999999999
                },
                {
                    "name": "G#5",
                    "midi": 80,
                    "time": 20.762454000000005,
                    "velocity": 0.4645669291338583,
                    "duration": 0.0879764999999999
                },
                {
                    "name": "F#4",
                    "midi": 66,
                    "time": 21.114360000000005,
                    "velocity": 0.4566929133858268,
                    "duration": 0.7038119999999992
                },
                {
                    "name": "G#4",
                    "midi": 68,
                    "time": 21.114360000000005,
                    "velocity": 0.4566929133858268,
                    "duration": 0.7038119999999992
                },
                {
                    "name": "F#4",
                    "midi": 66,
                    "time": 21.818172000000004,
                    "velocity": 0.4409448818897638,
                    "duration": 0.3519059999999996
                },
                {
                    "name": "D4",
                    "midi": 62,
                    "time": 21.818172000000004,
                    "velocity": 0.4409448818897638,
                    "duration": 0.3519059999999996
                },
                {
                    "name": "E5",
                    "midi": 76,
                    "time": 22.170078000000004,
                    "velocity": 0.4645669291338583,
                    "duration": 0.0879764999999999
                },
                {
                    "name": "C#5",
                    "midi": 73,
                    "time": 22.170078000000004,
                    "velocity": 0.4645669291338583,
                    "duration": 0.0879764999999999
                },
                {
                    "name": "C#4",
                    "midi": 61,
                    "time": 22.521984000000003,
                    "velocity": 0.44881889763779526,
                    "duration": 0.7038119999999992
                },
                {
                    "name": "E4",
                    "midi": 64,
                    "time": 22.521984000000003,
                    "velocity": 0.44881889763779526,
                    "duration": 0.7038119999999992
                },
                {
                    "name": "B3",
                    "midi": 59,
                    "time": 23.225796000000003,
                    "velocity": 0.5196850393700787,
                    "duration": 0.3519059999999996
                },
                {
                    "name": "D#4",
                    "midi": 63,
                    "time": 23.225796000000003,
                    "velocity": 0.5196850393700787,
                    "duration": 0.3519059999999996
                },
                {
                    "name": "A4",
                    "midi": 69,
                    "time": 23.577702000000002,
                    "velocity": 0.5433070866141733,
                    "duration": 0.10997062499999899
                },
                {
                    "name": "C#5",
                    "midi": 73,
                    "time": 23.577702000000002,
                    "velocity": 0.5433070866141733,
                    "duration": 0.10997062499999899
                },
                {
                    "name": "C#4",
                    "midi": 61,
                    "time": 23.929608,
                    "velocity": 0.5433070866141733,
                    "duration": 2.0967732499999983
                },
                {
                    "name": "G#3",
                    "midi": 56,
                    "time": 23.929608,
                    "velocity": 0.5433070866141733,
                    "duration": 2.0967732499999983
                },
                {
                    "name": "B3",
                    "midi": 59,
                    "time": 26.041044,
                    "velocity": 0.33070866141732286,
                    "duration": 0.3519059999999996
                },
                {
                    "name": "D4",
                    "midi": 62,
                    "time": 26.041044,
                    "velocity": 0.33070866141732286,
                    "duration": 0.3519059999999996
                },
                {
                    "name": "A4",
                    "midi": 69,
                    "time": 26.39295,
                    "velocity": 0.33858267716535434,
                    "duration": 0.3519059999999996
                },
                {
                    "name": "F#4",
                    "midi": 66,
                    "time": 26.39295,
                    "velocity": 0.33858267716535434,
                    "duration": 0.3519059999999996
                },
                {
                    "name": "G#4",
                    "midi": 68,
                    "time": 26.744856,
                    "velocity": 0.33858267716535434,
                    "duration": 0.879764999999999
                },
                {
                    "name": "E4",
                    "midi": 64,
                    "time": 26.744856,
                    "velocity": 0.33858267716535434,
                    "duration": 0.879764999999999
                },
                {
                    "name": "A4",
                    "midi": 69,
                    "time": 27.624620999999998,
                    "velocity": 0.30708661417322836,
                    "duration": 0.1759529999999998
                },
                {
                    "name": "F#4",
                    "midi": 66,
                    "time": 27.624620999999998,
                    "velocity": 0.30708661417322836,
                    "duration": 0.1759529999999998
                },
                {
                    "name": "B4",
                    "midi": 71,
                    "time": 27.800573999999997,
                    "velocity": 0.3464566929133858,
                    "duration": 0.7038119999999992
                },
                {
                    "name": "G#4",
                    "midi": 68,
                    "time": 27.800573999999997,
                    "velocity": 0.3464566929133858,
                    "duration": 0.7038119999999992
                },
                {
                    "name": "C#5",
                    "midi": 73,
                    "time": 28.504385999999997,
                    "velocity": 0.3228346456692913,
                    "duration": 0.3372432500000002
                },
                {
                    "name": "A4",
                    "midi": 69,
                    "time": 28.504385999999997,
                    "velocity": 0.3228346456692913,
                    "duration": 0.3372432500000002
                },
                {
                    "name": "B3",
                    "midi": 59,
                    "time": 28.856291999999996,
                    "velocity": 0.33070866141732286,
                    "duration": 0.3519059999999996
                },
                {
                    "name": "D4",
                    "midi": 62,
                    "time": 28.856291999999996,
                    "velocity": 0.33070866141732286,
                    "duration": 0.3519059999999996
                },
                {
                    "name": "A4",
                    "midi": 69,
                    "time": 29.208197999999996,
                    "velocity": 0.3464566929133858,
                    "duration": 0.3519059999999996
                },
                {
                    "name": "F#4",
                    "midi": 66,
                    "time": 29.208197999999996,
                    "velocity": 0.3464566929133858,
                    "duration": 0.3519059999999996
                },
                {
                    "name": "G#4",
                    "midi": 68,
                    "time": 29.560103999999995,
                    "velocity": 0.33858267716535434,
                    "duration": 0.879764999999999
                },
                {
                    "name": "E4",
                    "midi": 64,
                    "time": 29.560103999999995,
                    "velocity": 0.33858267716535434,
                    "duration": 0.879764999999999
                },
                {
                    "name": "A4",
                    "midi": 69,
                    "time": 30.439868999999995,
                    "velocity": 0.33070866141732286,
                    "duration": 0.1759529999999998
                },
                {
                    "name": "F#4",
                    "midi": 66,
                    "time": 30.439868999999995,
                    "velocity": 0.33070866141732286,
                    "duration": 0.1759529999999998
                },
                {
                    "name": "B4",
                    "midi": 71,
                    "time": 30.615821999999994,
                    "velocity": 0.36220472440944884,
                    "duration": 0.6891492499999998
                },
                {
                    "name": "G#4",
                    "midi": 68,
                    "time": 30.615821999999994,
                    "velocity": 0.36220472440944884,
                    "duration": 0.6891492499999998
                },
                {
                    "name": "G#4",
                    "midi": 68,
                    "time": 31.319633999999994,
                    "velocity": 0.4015748031496063,
                    "duration": 0.3519059999999996
                },
                {
                    "name": "E4",
                    "midi": 64,
                    "time": 31.319633999999994,
                    "velocity": 0.4015748031496063,
                    "duration": 0.3519059999999996
                },
                {
                    "name": "A4",
                    "midi": 69,
                    "time": 31.671539999999993,
                    "velocity": 0.4330708661417323,
                    "duration": 0.3519059999999996
                },
                {
                    "name": "F#4",
                    "midi": 66,
                    "time": 31.671539999999993,
                    "velocity": 0.4330708661417323,
                    "duration": 0.3519059999999996
                },
                {
                    "name": "B4",
                    "midi": 71,
                    "time": 32.02344599999999,
                    "velocity": 0.4645669291338583,
                    "duration": 0.3519059999999996
                },
                {
                    "name": "G#4",
                    "midi": 68,
                    "time": 32.02344599999999,
                    "velocity": 0.4645669291338583,
                    "duration": 0.3519059999999996
                },
                {
                    "name": "B4",
                    "midi": 71,
                    "time": 32.37535199999999,
                    "velocity": 0.29133858267716534,
                    "duration": 0.7038119999999921
                },
                {
                    "name": "C#5",
                    "midi": 73,
                    "time": 32.37535199999999,
                    "velocity": 0.4645669291338583,
                    "duration": 0.23460399999999737
                },
                {
                    "name": "G4",
                    "midi": 67,
                    "time": 32.37535199999999,
                    "velocity": 0.29133858267716534,
                    "duration": 0.7038119999999921
                },
                {
                    "name": "C#5",
                    "midi": 73,
                    "time": 32.60995599999999,
                    "velocity": 0.4645669291338583,
                    "duration": 0.23460399999999737
                },
                {
                    "name": "E5",
                    "midi": 76,
                    "time": 32.84455999999999,
                    "velocity": 0.4409448818897638,
                    "duration": 0.23460399999999737
                },
                {
                    "name": "F#4",
                    "midi": 66,
                    "time": 33.079163999999984,
                    "velocity": 0.29133858267716534,
                    "duration": 0.7038119999999921
                },
                {
                    "name": "C#5",
                    "midi": 73,
                    "time": 33.079163999999984,
                    "velocity": 0.4645669291338583,
                    "duration": 0.23460399999999737
                },
                {
                    "name": "A4",
                    "midi": 69,
                    "time": 33.079163999999984,
                    "velocity": 0.29133858267716534,
                    "duration": 0.7038119999999921
                },
                {
                    "name": "B4",
                    "midi": 71,
                    "time": 33.31376799999998,
                    "velocity": 0.4645669291338583,
                    "duration": 0.23460399999999737
                },
                {
                    "name": "C#5",
                    "midi": 73,
                    "time": 33.54837199999998,
                    "velocity": 0.4409448818897638,
                    "duration": 0.23460399999999737
                },
                {
                    "name": "A4",
                    "midi": 69,
                    "time": 33.78297599999998,
                    "velocity": 0.4409448818897638,
                    "duration": 0.3519059999999996
                },
                {
                    "name": "E4",
                    "midi": 64,
                    "time": 33.78297599999998,
                    "velocity": 0.29133858267716534,
                    "duration": 0.7038119999999992
                },
                {
                    "name": "F#4",
                    "midi": 66,
                    "time": 33.78297599999998,
                    "velocity": 0.29133858267716534,
                    "duration": 0.7038119999999992
                },
                {
                    "name": "C#5",
                    "midi": 73,
                    "time": 34.134881999999976,
                    "velocity": 0.4094488188976378,
                    "duration": 0.3519059999999996
                },
                {
                    "name": "B4",
                    "midi": 71,
                    "time": 34.486787999999976,
                    "velocity": 0.4330708661417323,
                    "duration": 1.0557179999999988
                },
                {
                    "name": "D4",
                    "midi": 62,
                    "time": 34.486787999999976,
                    "velocity": 0.3543307086614173,
                    "duration": 1.4076239999999984
                },
                {
                    "name": "A4",
                    "midi": 69,
                    "time": 34.486787999999976,
                    "velocity": 0.3543307086614173,
                    "duration": 0.7038119999999992
                },
                {
                    "name": "G4",
                    "midi": 67,
                    "time": 35.190599999999975,
                    "velocity": 0.3228346456692913,
                    "duration": 1.4076239999999984
                },
                {
                    "name": "C#5",
                    "midi": 73,
                    "time": 35.542505999999975,
                    "velocity": 0.36220472440944884,
                    "duration": 0.3519059999999996
                },
                {
                    "name": "A4",
                    "midi": 69,
                    "time": 35.894411999999974,
                    "velocity": 0.3464566929133858,
                    "duration": 0.7038119999999992
                },
                {
                    "name": "D4",
                    "midi": 62,
                    "time": 35.894411999999974,
                    "velocity": 0.29133858267716534,
                    "duration": 0.3519059999999996
                },
                {
                    "name": "B3",
                    "midi": 59,
                    "time": 36.246317999999974,
                    "velocity": 0.2677165354330709,
                    "duration": 0.3519059999999996
                },
                {
                    "name": "A4",
                    "midi": 69,
                    "time": 36.59822399999997,
                    "velocity": 0.31496062992125984,
                    "duration": 1.6422279999999816
                },
                {
                    "name": "C#4",
                    "midi": 61,
                    "time": 36.59822399999997,
                    "velocity": 0.3937007874015748,
                    "duration": 0.23460399999999737
                },
                {
                    "name": "F#4",
                    "midi": 66,
                    "time": 36.59822399999997,
                    "velocity": 0.31496062992125984,
                    "duration": 1.4076239999999842
                },
                {
                    "name": "D4",
                    "midi": 62,
                    "time": 36.83282799999997,
                    "velocity": 0.3858267716535433,
                    "duration": 0.23460399999999737
                },
                {
                    "name": "B3",
                    "midi": 59,
                    "time": 37.06743199999997,
                    "velocity": 0.3858267716535433,
                    "duration": 0.23460399999999737
                },
                {
                    "name": "C#4",
                    "midi": 61,
                    "time": 37.302035999999966,
                    "velocity": 0.4094488188976378,
                    "duration": 0.23460399999999737
                },
                {
                    "name": "D4",
                    "midi": 62,
                    "time": 37.53663999999996,
                    "velocity": 0.3858267716535433,
                    "duration": 0.23460399999999737
                },
                {
                    "name": "E4",
                    "midi": 64,
                    "time": 37.77124399999996,
                    "velocity": 0.3858267716535433,
                    "duration": 0.23460399999999737
                },
                {
                    "name": "F#4",
                    "midi": 66,
                    "time": 38.00584799999996,
                    "velocity": 0.4094488188976378,
                    "duration": 0.23460399999999737
                },
                {
                    "name": "G#4",
                    "midi": 68,
                    "time": 38.240451999999955,
                    "velocity": 0.3858267716535433,
                    "duration": 0.23460399999999737
                },
                {
                    "name": "E4",
                    "midi": 64,
                    "time": 38.47505599999995,
                    "velocity": 0.3858267716535433,
                    "duration": 0.23460399999999737
                },
                {
                    "name": "F#4",
                    "midi": 66,
                    "time": 38.70965999999995,
                    "velocity": 0.4015748031496063,
                    "duration": 0.23460399999999737
                },
                {
                    "name": "G#4",
                    "midi": 68,
                    "time": 38.94426399999995,
                    "velocity": 0.3779527559055118,
                    "duration": 0.23460399999999737
                },
                {
                    "name": "A4",
                    "midi": 69,
                    "time": 39.178867999999945,
                    "velocity": 0.3700787401574803,
                    "duration": 0.23460399999999737
                },
                {
                    "name": "B4",
                    "midi": 71,
                    "time": 39.41347199999994,
                    "velocity": 0.3700787401574803,
                    "duration": 0.23460399999999737
                },
                {
                    "name": "C#5",
                    "midi": 73,
                    "time": 39.64807599999994,
                    "velocity": 0.3464566929133858,
                    "duration": 0.23460399999999737
                },
                {
                    "name": "A4",
                    "midi": 69,
                    "time": 39.88267999999994,
                    "velocity": 0.3464566929133858,
                    "duration": 0.23460399999999737
                },
                {
                    "name": "B4",
                    "midi": 71,
                    "time": 40.117283999999934,
                    "velocity": 0.3464566929133858,
                    "duration": 0.23460399999999737
                },
                {
                    "name": "C#5",
                    "midi": 73,
                    "time": 40.35188799999993,
                    "velocity": 0.3228346456692913,
                    "duration": 0.23460399999999737
                },
                {
                    "name": "D5",
                    "midi": 74,
                    "time": 40.58649199999993,
                    "velocity": 0.3228346456692913,
                    "duration": 0.23460399999999737
                },
                {
                    "name": "D5",
                    "midi": 74,
                    "time": 40.821095999999926,
                    "velocity": 0.3779527559055118,
                    "duration": 0.7038120000000063
                },
                {
                    "name": "F#5",
                    "midi": 78,
                    "time": 40.821095999999926,
                    "velocity": 0.3779527559055118,
                    "duration": 0.26392950000000326
                },
                {
                    "name": "F#4",
                    "midi": 66,
                    "time": 40.821095999999926,
                    "velocity": 0.3779527559055118,
                    "duration": 0.26392950000000326
                },
                {
                    "name": "C#6",
                    "midi": 85,
                    "time": 41.17300199999993,
                    "velocity": 0.3779527559055118,
                    "duration": 0.1759529999999998
                },
                {
                    "name": "C#5",
                    "midi": 73,
                    "time": 41.17300199999993,
                    "velocity": 0.3779527559055118,
                    "duration": 0.1759529999999998
                },
                {
                    "name": "B4",
                    "midi": 71,
                    "time": 41.52490799999993,
                    "velocity": 0.4015748031496063,
                    "duration": 1.0557179999999988
                },
                {
                    "name": "F5",
                    "midi": 77,
                    "time": 41.52490799999993,
                    "velocity": 0.4015748031496063,
                    "duration": 0.7038119999999992
                },
                {
                    "name": "B5",
                    "midi": 83,
                    "time": 41.52490799999993,
                    "velocity": 0.4015748031496063,
                    "duration": 1.0557179999999988
                },
                {
                    "name": "A4",
                    "midi": 69,
                    "time": 42.58062599999993,
                    "velocity": 0.3937007874015748,
                    "duration": 0.13196475000000163
                },
                {
                    "name": "G#4",
                    "midi": 68,
                    "time": 42.75657899999993,
                    "velocity": 0.3937007874015748,
                    "duration": 0.13196475000000163
                },
                {
                    "name": "F#4",
                    "midi": 66,
                    "time": 42.93253199999993,
                    "velocity": 0.4094488188976378,
                    "duration": 0.29325500000000204
                },
                {
                    "name": "E4",
                    "midi": 64,
                    "time": 43.28443799999993,
                    "velocity": 0.3937007874015748,
                    "duration": 0.13196475000000163
                },
                {
                    "name": "D4",
                    "midi": 62,
                    "time": 43.46039099999993,
                    "velocity": 0.3858267716535433,
                    "duration": 0.13196475000000163
                },
                {
                    "name": "C#4",
                    "midi": 61,
                    "time": 43.63634399999993,
                    "velocity": 0.4094488188976378,
                    "duration": 0.3445746249999999
                },
                {
                    "name": "D4",
                    "midi": 62,
                    "time": 43.98824999999993,
                    "velocity": 0.3858267716535433,
                    "duration": 0.1759529999999998
                },
                {
                    "name": "E4",
                    "midi": 64,
                    "time": 44.16420299999993,
                    "velocity": 0.3858267716535433,
                    "duration": 0.1759529999999998
                },
                {
                    "name": "F#4",
                    "midi": 66,
                    "time": 44.34015599999993,
                    "velocity": 0.41732283464566927,
                    "duration": 0.26392950000000326
                },
                {
                    "name": "A4",
                    "midi": 69,
                    "time": 44.692061999999936,
                    "velocity": 0.4015748031496063,
                    "duration": 0.26392950000000326
                },
                {
                    "name": "F#4",
                    "midi": 66,
                    "time": 45.04396799999994,
                    "velocity": 0.41732283464566927,
                    "duration": 1.759529999999998
                },
                {
                    "name": "G#4",
                    "midi": 68,
                    "time": 45.04396799999994,
                    "velocity": 0.41732283464566927,
                    "duration": 1.5689142499999988
                },
                {
                    "name": "F#4",
                    "midi": 66,
                    "time": 46.62754499999994,
                    "velocity": 0.4015748031496063,
                    "duration": 2.639294999999997
                },
                {
                    "name": "G#4",
                    "midi": 68,
                    "time": 46.80349799999994,
                    "velocity": 0.4251968503937008,
                    "duration": 0.1759529999999998
                },
                {
                    "name": "A4",
                    "midi": 69,
                    "time": 46.97945099999994,
                    "velocity": 0.4409448818897638,
                    "duration": 0.1759529999999998
                },
                {
                    "name": "B4",
                    "midi": 71,
                    "time": 47.15540399999994,
                    "velocity": 0.44881889763779526,
                    "duration": 0.8651022499999996
                },
                {
                    "name": "A4",
                    "midi": 69,
                    "time": 48.03516899999994,
                    "velocity": 0.4330708661417323,
                    "duration": 0.1759529999999998
                },
                {
                    "name": "B4",
                    "midi": 71,
                    "time": 48.21112199999994,
                    "velocity": 0.44881889763779526,
                    "duration": 0.1759529999999998
                },
                {
                    "name": "A4",
                    "midi": 69,
                    "time": 48.38707499999994,
                    "velocity": 0.4330708661417323,
                    "duration": 0.1759529999999998
                },
                {
                    "name": "G#4",
                    "midi": 68,
                    "time": 48.56302799999994,
                    "velocity": 0.4409448818897638,
                    "duration": 0.8651022499999996
                },
                {
                    "name": "F#4",
                    "midi": 66,
                    "time": 49.44279299999994,
                    "velocity": 0.4251968503937008,
                    "duration": 0.1759529999999998
                },
                {
                    "name": "E4",
                    "midi": 64,
                    "time": 49.61874599999994,
                    "velocity": 0.4409448818897638,
                    "duration": 0.1759529999999998
                },
                {
                    "name": "D4",
                    "midi": 62,
                    "time": 49.79469899999994,
                    "velocity": 0.4566929133858268,
                    "duration": 0.1759529999999998
                },
                {
                    "name": "C#4",
                    "midi": 61,
                    "time": 49.97065199999994,
                    "velocity": 0.47244094488188976,
                    "duration": 0.7008794500000022
                },
                {
                    "name": "C#4",
                    "midi": 61,
                    "time": 52.08208799999994,
                    "velocity": 0.3228346456692913,
                    "duration": 0.1759529999999998
                },
                {
                    "name": "B3",
                    "midi": 59,
                    "time": 52.25804099999994,
                    "velocity": 0.3228346456692913,
                    "duration": 0.1759529999999998
                },
                {
                    "name": "C#5",
                    "midi": 73,
                    "time": 52.78589999999994,
                    "velocity": 0.29133858267716534,
                    "duration": 0.1759529999999998
                },
                {
                    "name": "B4",
                    "midi": 71,
                    "time": 52.96185299999994,
                    "velocity": 0.29133858267716534,
                    "duration": 0.1759529999999998
                },
                {
                    "name": "F#5",
                    "midi": 78,
                    "time": 53.48971199999994,
                    "velocity": 0.3779527559055118,
                    "duration": 0.3519059999999996
                },
                {
                    "name": "C#6",
                    "midi": 85,
                    "time": 53.84161799999994,
                    "velocity": 0.3779527559055118,
                    "duration": 0.3519059999999996
                },
                {
                    "name": "F#5",
                    "midi": 78,
                    "time": 54.19352399999994,
                    "velocity": 0.31496062992125984,
                    "duration": 0.7038119999999992
                },
                {
                    "name": "A5",
                    "midi": 81,
                    "time": 54.19352399999994,
                    "velocity": 0.31496062992125984,
                    "duration": 0.7038119999999992
                },
                {
                    "name": "C6",
                    "midi": 84,
                    "time": 54.19352399999994,
                    "velocity": 0.3937007874015748,
                    "duration": 0.7038119999999992
                },
                {
                    "name": "C#6",
                    "midi": 85,
                    "time": 54.89733599999994,
                    "velocity": 0.4330708661417323,
                    "duration": 0.3519059999999996
                },
                {
                    "name": "F#5",
                    "midi": 78,
                    "time": 55.24924199999994,
                    "velocity": 0.31496062992125984,
                    "duration": 0.3519059999999996
                },
                {
                    "name": "A5",
                    "midi": 81,
                    "time": 55.24924199999994,
                    "velocity": 0.31496062992125984,
                    "duration": 0.3519059999999996
                },
                {
                    "name": "E6",
                    "midi": 88,
                    "time": 55.24924199999994,
                    "velocity": 0.4330708661417323,
                    "duration": 0.3519059999999996
                },
                {
                    "name": "D#6",
                    "midi": 87,
                    "time": 55.60114799999994,
                    "velocity": 0.44881889763779526,
                    "duration": 0.23460399999999737
                },
                {
                    "name": "B5",
                    "midi": 83,
                    "time": 55.835751999999935,
                    "velocity": 0.4094488188976378,
                    "duration": 0.23460399999999737
                },
                {
                    "name": "F#5",
                    "midi": 78,
                    "time": 55.835751999999935,
                    "velocity": 0.31496062992125984,
                    "duration": 0.23460399999999737
                },
                {
                    "name": "A5",
                    "midi": 81,
                    "time": 56.07035599999993,
                    "velocity": 0.4015748031496063,
                    "duration": 0.23460399999999737
                },
                {
                    "name": "F#5",
                    "midi": 78,
                    "time": 56.30495999999993,
                    "velocity": 0.3779527559055118,
                    "duration": 0.3519059999999996
                },
                {
                    "name": "C#6",
                    "midi": 85,
                    "time": 56.65686599999993,
                    "velocity": 0.3779527559055118,
                    "duration": 0.3519059999999996
                },
                {
                    "name": "C6",
                    "midi": 84,
                    "time": 57.00877199999993,
                    "velocity": 0.3937007874015748,
                    "duration": 0.7038119999999992
                },
                {
                    "name": "A5",
                    "midi": 81,
                    "time": 57.00877199999993,
                    "velocity": 0.31496062992125984,
                    "duration": 0.7038119999999992
                },
                {
                    "name": "F#5",
                    "midi": 78,
                    "time": 57.00877199999993,
                    "velocity": 0.31496062992125984,
                    "duration": 0.7038119999999992
                },
                {
                    "name": "C#6",
                    "midi": 85,
                    "time": 57.71258399999993,
                    "velocity": 0.4330708661417323,
                    "duration": 0.3519059999999996
                },
                {
                    "name": "E6",
                    "midi": 88,
                    "time": 58.06448999999993,
                    "velocity": 0.4330708661417323,
                    "duration": 0.3519059999999996
                },
                {
                    "name": "A5",
                    "midi": 81,
                    "time": 58.06448999999993,
                    "velocity": 0.2755905511811024,
                    "duration": 0.3519059999999996
                },
                {
                    "name": "F#5",
                    "midi": 78,
                    "time": 58.06448999999993,
                    "velocity": 0.2755905511811024,
                    "duration": 0.3519059999999996
                },
                {
                    "name": "D#6",
                    "midi": 87,
                    "time": 58.41639599999993,
                    "velocity": 0.44881889763779526,
                    "duration": 0.23460399999999737
                },
                {
                    "name": "F#5",
                    "midi": 78,
                    "time": 58.650999999999925,
                    "velocity": 0.31496062992125984,
                    "duration": 0.23460399999999737
                },
                {
                    "name": "B5",
                    "midi": 83,
                    "time": 58.650999999999925,
                    "velocity": 0.4094488188976378,
                    "duration": 0.23460399999999737
                },
                {
                    "name": "D#6",
                    "midi": 87,
                    "time": 58.88560399999992,
                    "velocity": 0.4015748031496063,
                    "duration": 0.23460399999999737
                },
                {
                    "name": "C#5",
                    "midi": 73,
                    "time": 59.12020799999992,
                    "velocity": 0.36220472440944884,
                    "duration": 0.3519059999999996
                },
                {
                    "name": "A4",
                    "midi": 69,
                    "time": 59.47211399999992,
                    "velocity": 0.1968503937007874,
                    "duration": 0.3519059999999996
                },
                {
                    "name": "E5",
                    "midi": 76,
                    "time": 59.47211399999992,
                    "velocity": 0.36220472440944884,
                    "duration": 0.3519059999999996
                },
                {
                    "name": "F#4",
                    "midi": 66,
                    "time": 59.47211399999992,
                    "velocity": 0.1968503937007874,
                    "duration": 0.3519059999999996
                },
                {
                    "name": "D#5",
                    "midi": 75,
                    "time": 59.82401999999992,
                    "velocity": 0.3858267716535433,
                    "duration": 0.23460399999999737
                },
                {
                    "name": "F#4",
                    "midi": 66,
                    "time": 60.05862399999992,
                    "velocity": 0.1968503937007874,
                    "duration": 0.23460399999999737
                },
                {
                    "name": "A4",
                    "midi": 69,
                    "time": 60.05862399999992,
                    "velocity": 0.1968503937007874,
                    "duration": 0.23460399999999737
                },
                {
                    "name": "B4",
                    "midi": 71,
                    "time": 60.05862399999992,
                    "velocity": 0.3543307086614173,
                    "duration": 0.23460399999999737
                },
                {
                    "name": "D#5",
                    "midi": 75,
                    "time": 60.293227999999914,
                    "velocity": 0.3464566929133858,
                    "duration": 0.23460399999999737
                },
                {
                    "name": "F#4",
                    "midi": 66,
                    "time": 60.52783199999991,
                    "velocity": 0.36220472440944884,
                    "duration": 0.7038119999999992
                },
                {
                    "name": "D#4",
                    "midi": 63,
                    "time": 60.52783199999991,
                    "velocity": 0.36220472440944884,
                    "duration": 0.7038119999999992
                },
                {
                    "name": "C#5",
                    "midi": 73,
                    "time": 60.52783199999991,
                    "velocity": 0.36220472440944884,
                    "duration": 0.7038119999999992
                },
                {
                    "name": "E4",
                    "midi": 64,
                    "time": 61.23164399999991,
                    "velocity": 0.36220472440944884,
                    "duration": 0.3519059999999996
                },
                {
                    "name": "B4",
                    "midi": 71,
                    "time": 61.23164399999991,
                    "velocity": 0.36220472440944884,
                    "duration": 0.3519059999999996
                },
                {
                    "name": "G#4",
                    "midi": 68,
                    "time": 61.23164399999991,
                    "velocity": 0.36220472440944884,
                    "duration": 0.3519059999999996
                },
                {
                    "name": "E4",
                    "midi": 64,
                    "time": 61.58354999999991,
                    "velocity": 0.3543307086614173,
                    "duration": 0.3519059999999996
                },
                {
                    "name": "B3",
                    "midi": 59,
                    "time": 61.58354999999991,
                    "velocity": 0.3543307086614173,
                    "duration": 0.3519059999999996
                },
                {
                    "name": "G#4",
                    "midi": 68,
                    "time": 61.58354999999991,
                    "velocity": 0.3543307086614173,
                    "duration": 0.3519059999999996
                },
                {
                    "name": "C#4",
                    "midi": 61,
                    "time": 61.93545599999991,
                    "velocity": 0.3543307086614173,
                    "duration": 0.7038119999999921
                },
                {
                    "name": "E4",
                    "midi": 64,
                    "time": 61.93545599999991,
                    "velocity": 0.3543307086614173,
                    "duration": 0.23460399999999737
                },
                {
                    "name": "A3",
                    "midi": 57,
                    "time": 61.93545599999991,
                    "velocity": 0.3543307086614173,
                    "duration": 0.7038119999999921
                },
                {
                    "name": "F#4",
                    "midi": 66,
                    "time": 62.17005999999991,
                    "velocity": 0.3464566929133858,
                    "duration": 0.23460399999999737
                },
                {
                    "name": "G#4",
                    "midi": 68,
                    "time": 62.404663999999904,
                    "velocity": 0.3464566929133858,
                    "duration": 0.23460399999999737
                },
                {
                    "name": "A3",
                    "midi": 57,
                    "time": 62.6392679999999,
                    "velocity": 0.3464566929133858,
                    "duration": 0.7038119999999992
                },
                {
                    "name": "E4",
                    "midi": 64,
                    "time": 62.6392679999999,
                    "velocity": 0.3464566929133858,
                    "duration": 0.3519059999999996
                },
                {
                    "name": "F#4",
                    "midi": 66,
                    "time": 62.6392679999999,
                    "velocity": 0.3464566929133858,
                    "duration": 0.7038119999999992
                },
                {
                    "name": "D#4",
                    "midi": 63,
                    "time": 62.9911739999999,
                    "velocity": 0.33858267716535434,
                    "duration": 0.3519059999999996
                },
                {
                    "name": "E4",
                    "midi": 64,
                    "time": 63.3430799999999,
                    "velocity": 0.3464566929133858,
                    "duration": 1.4076240000000126
                },
                {
                    "name": "C#4",
                    "midi": 61,
                    "time": 63.3430799999999,
                    "velocity": 0.3464566929133858,
                    "duration": 0.3519059999999996
                },
                {
                    "name": "G#4",
                    "midi": 68,
                    "time": 63.3430799999999,
                    "velocity": 0.3464566929133858,
                    "duration": 1.2316710000000057
                },
                {
                    "name": "B3",
                    "midi": 59,
                    "time": 63.6949859999999,
                    "velocity": 0.31496062992125984,
                    "duration": 0.3519059999999996
                },
                {
                    "name": "G#4",
                    "midi": 68,
                    "time": 64.3987979999999,
                    "velocity": 0.30708661417322836,
                    "duration": 0.3519060000000138
                },
                {
                    "name": "B4",
                    "midi": 71,
                    "time": 64.5747509999999,
                    "velocity": 0.31496062992125984,
                    "duration": 0.1759530000000069
                },
                {
                    "name": "C#5",
                    "midi": 73,
                    "time": 64.75070399999991,
                    "velocity": 0.36220472440944884,
                    "duration": 0.3519059999999996
                },
                {
                    "name": "A#4",
                    "midi": 70,
                    "time": 64.75070399999991,
                    "velocity": 0.25196850393700787,
                    "duration": 0.7038119999999992
                },
                {
                    "name": "G4",
                    "midi": 67,
                    "time": 64.75070399999991,
                    "velocity": 0.25196850393700787,
                    "duration": 0.7038119999999992
                },
                {
                    "name": "E5",
                    "midi": 76,
                    "time": 65.10260999999991,
                    "velocity": 0.36220472440944884,
                    "duration": 0.3519059999999996
                },
                {
                    "name": "G#4",
                    "midi": 68,
                    "time": 65.45451599999991,
                    "velocity": 0.2677165354330709,
                    "duration": 0.7038120000000134
                },
                {
                    "name": "D#5",
                    "midi": 75,
                    "time": 65.45451599999991,
                    "velocity": 0.3858267716535433,
                    "duration": 0.23460400000000448
                },
                {
                    "name": "B4",
                    "midi": 71,
                    "time": 65.45451599999991,
                    "velocity": 0.2677165354330709,
                    "duration": 0.46920800000000895
                },
                {
                    "name": "B4",
                    "midi": 71,
                    "time": 65.68911999999992,
                    "velocity": 0.3543307086614173,
                    "duration": 0.46920800000000895
                },
                {
                    "name": "D#5",
                    "midi": 75,
                    "time": 65.92372399999992,
                    "velocity": 0.3464566929133858,
                    "duration": 0.23460400000000448
                },
                {
                    "name": "G#4",
                    "midi": 68,
                    "time": 66.15832799999993,
                    "velocity": 0.3700787401574803,
                    "duration": 0.7038119999999992
                },
                {
                    "name": "E4",
                    "midi": 64,
                    "time": 66.15832799999993,
                    "velocity": 0.3700787401574803,
                    "duration": 0.7038119999999992
                },
                {
                    "name": "C#5",
                    "midi": 73,
                    "time": 66.15832799999993,
                    "velocity": 0.3700787401574803,
                    "duration": 0.7038119999999992
                },
                {
                    "name": "D#4",
                    "midi": 63,
                    "time": 66.86213999999993,
                    "velocity": 0.3700787401574803,
                    "duration": 0.3519059999999996
                },
                {
                    "name": "B4",
                    "midi": 71,
                    "time": 66.86213999999993,
                    "velocity": 0.3700787401574803,
                    "duration": 0.3519059999999996
                },
                {
                    "name": "G#4",
                    "midi": 68,
                    "time": 66.86213999999993,
                    "velocity": 0.3700787401574803,
                    "duration": 0.3519059999999996
                },
                {
                    "name": "D#4",
                    "midi": 63,
                    "time": 67.21404599999993,
                    "velocity": 0.3543307086614173,
                    "duration": 0.3519059999999996
                },
                {
                    "name": "B3",
                    "midi": 59,
                    "time": 67.21404599999993,
                    "velocity": 0.3543307086614173,
                    "duration": 0.3519059999999996
                },
                {
                    "name": "G#4",
                    "midi": 68,
                    "time": 67.21404599999993,
                    "velocity": 0.3543307086614173,
                    "duration": 0.3519059999999996
                },
                {
                    "name": "C#4",
                    "midi": 61,
                    "time": 67.56595199999992,
                    "velocity": 0.3543307086614173,
                    "duration": 0.7038120000000134
                },
                {
                    "name": "E4",
                    "midi": 64,
                    "time": 67.56595199999992,
                    "velocity": 0.3543307086614173,
                    "duration": 0.23460400000000448
                },
                {
                    "name": "A#3",
                    "midi": 58,
                    "time": 67.56595199999992,
                    "velocity": 0.3543307086614173,
                    "duration": 0.7038120000000134
                },
                {
                    "name": "F#4",
                    "midi": 66,
                    "time": 67.80055599999993,
                    "velocity": 0.3464566929133858,
                    "duration": 0.23460400000000448
                },
                {
                    "name": "G#4",
                    "midi": 68,
                    "time": 68.03515999999993,
                    "velocity": 0.3543307086614173,
                    "duration": 0.23460400000000448
                },
                {
                    "name": "F#4",
                    "midi": 66,
                    "time": 68.26976399999994,
                    "velocity": 0.36220472440944884,
                    "duration": 1.0557179999999988
                },
                {
                    "name": "D#4",
                    "midi": 63,
                    "time": 68.26976399999994,
                    "velocity": 0.36220472440944884,
                    "duration": 0.3519059999999996
                },
                {
                    "name": "A#4",
                    "midi": 70,
                    "time": 68.26976399999994,
                    "velocity": 0.36220472440944884,
                    "duration": 1.0557179999999988
                },
                {
                    "name": "C#4",
                    "midi": 61,
                    "time": 68.62166999999994,
                    "velocity": 0.33858267716535434,
                    "duration": 0.7038119999999992
                },
                {
                    "name": "F#4",
                    "midi": 66,
                    "time": 69.32548199999994,
                    "velocity": 0.3700787401574803,
                    "duration": 0.3519059999999996
                },
                {
                    "name": "B4",
                    "midi": 71,
                    "time": 69.32548199999994,
                    "velocity": 0.3700787401574803,
                    "duration": 0.3519059999999996
                },
                {
                    "name": "B3",
                    "midi": 59,
                    "time": 69.32548199999994,
                    "velocity": 0.3700787401574803,
                    "duration": 0.3519059999999996
                },
                {
                    "name": "F#4",
                    "midi": 66,
                    "time": 69.67738799999994,
                    "velocity": 0.3937007874015748,
                    "duration": 0.3519059999999996
                },
                {
                    "name": "D#5",
                    "midi": 75,
                    "time": 69.67738799999994,
                    "velocity": 0.3937007874015748,
                    "duration": 0.3519059999999996
                },
                {
                    "name": "B4",
                    "midi": 71,
                    "time": 69.67738799999994,
                    "velocity": 0.3937007874015748,
                    "duration": 0.3519059999999996
                },
                {
                    "name": "B4",
                    "midi": 71,
                    "time": 70.02929399999994,
                    "velocity": 0.4251968503937008,
                    "duration": 0.3519059999999996
                },
                {
                    "name": "D#5",
                    "midi": 75,
                    "time": 70.02929399999994,
                    "velocity": 0.4251968503937008,
                    "duration": 0.3519059999999996
                },
                {
                    "name": "F#5",
                    "midi": 78,
                    "time": 70.02929399999994,
                    "velocity": 0.4251968503937008,
                    "duration": 0.3519059999999996
                },
                {
                    "name": "E5",
                    "midi": 76,
                    "time": 70.38119999999994,
                    "velocity": 0.3700787401574803,
                    "duration": 2.1114359999999976
                },
                {
                    "name": "G#5",
                    "midi": 80,
                    "time": 70.38119999999994,
                    "velocity": 0.3700787401574803,
                    "duration": 2.1114359999999976
                },
                {
                    "name": "D#5",
                    "midi": 75,
                    "time": 70.38119999999994,
                    "velocity": 0.4015748031496063,
                    "duration": 0.3519059999999996
                },
                {
                    "name": "C#5",
                    "midi": 73,
                    "time": 70.73310599999994,
                    "velocity": 0.28346456692913385,
                    "duration": 0.3519059999999996
                },
                {
                    "name": "D#5",
                    "midi": 75,
                    "time": 71.08501199999994,
                    "velocity": 0.33070866141732286,
                    "duration": 0.3519059999999996
                },
                {
                    "name": "C#5",
                    "midi": 73,
                    "time": 71.43691799999993,
                    "velocity": 0.29133858267716534,
                    "duration": 0.3519059999999996
                },
                {
                    "name": "D#5",
                    "midi": 75,
                    "time": 71.78882399999993,
                    "velocity": 0.3779527559055118,
                    "duration": 0.3519059999999996
                },
                {
                    "name": "C#5",
                    "midi": 73,
                    "time": 72.14072999999993,
                    "velocity": 0.3228346456692913,
                    "duration": 0.3519059999999996
                },
                {
                    "name": "G#5",
                    "midi": 80,
                    "time": 72.49263599999993,
                    "velocity": 0.2677165354330709,
                    "duration": 0.7038120000000134
                },
                {
                    "name": "E5",
                    "midi": 76,
                    "time": 72.49263599999993,
                    "velocity": 0.2677165354330709,
                    "duration": 0.7038120000000134
                },
                {
                    "name": "B5",
                    "midi": 83,
                    "time": 72.49263599999993,
                    "velocity": 0.44881889763779526,
                    "duration": 0.23460400000000448
                },
                {
                    "name": "D#6",
                    "midi": 87,
                    "time": 72.72723999999994,
                    "velocity": 0.41732283464566927,
                    "duration": 0.23460400000000448
                },
                {
                    "name": "B5",
                    "midi": 83,
                    "time": 72.96184399999994,
                    "velocity": 0.41732283464566927,
                    "duration": 0.23460400000000448
                },
                {
                    "name": "G#5",
                    "midi": 80,
                    "time": 73.19644799999995,
                    "velocity": 0.3543307086614173,
                    "duration": 2.1114359999999976
                },
                {
                    "name": "D#5",
                    "midi": 75,
                    "time": 73.19644799999995,
                    "velocity": 0.3858267716535433,
                    "duration": 0.3519059999999996
                },
                {
                    "name": "E5",
                    "midi": 76,
                    "time": 73.19644799999995,
                    "velocity": 0.3543307086614173,
                    "duration": 2.1114359999999976
                },
                {
                    "name": "C#5",
                    "midi": 73,
                    "time": 73.54835399999995,
                    "velocity": 0.28346456692913385,
                    "duration": 0.3519059999999996
                },
                {
                    "name": "D#5",
                    "midi": 75,
                    "time": 73.90025999999995,
                    "velocity": 0.33070866141732286,
                    "duration": 0.3519059999999996
                },
                {
                    "name": "C#5",
                    "midi": 73,
                    "time": 74.25216599999995,
                    "velocity": 0.29133858267716534,
                    "duration": 0.3519059999999996
                },
                {
                    "name": "D#5",
                    "midi": 75,
                    "time": 74.60407199999995,
                    "velocity": 0.3779527559055118,
                    "duration": 0.3519059999999996
                },
                {
                    "name": "G#5",
                    "midi": 80,
                    "time": 74.95597799999994,
                    "velocity": 0.33858267716535434,
                    "duration": 0.3519059999999996
                },
                {
                    "name": "C#6",
                    "midi": 85,
                    "time": 74.95597799999994,
                    "velocity": 0.3700787401574803,
                    "duration": 0.3519059999999996
                },
                {
                    "name": "E5",
                    "midi": 76,
                    "time": 74.95597799999994,
                    "velocity": 0.33858267716535434,
                    "duration": 0.3519059999999996
                },
                {
                    "name": "C#5",
                    "midi": 73,
                    "time": 75.30788399999994,
                    "velocity": 0.31496062992125984,
                    "duration": 0.3519059999999996
                },
                {
                    "name": "A#5",
                    "midi": 82,
                    "time": 75.30788399999994,
                    "velocity": 0.3464566929133858,
                    "duration": 0.3519059999999996
                },
                {
                    "name": "F#5",
                    "midi": 78,
                    "time": 75.30788399999994,
                    "velocity": 0.31496062992125984,
                    "duration": 0.3519059999999996
                },
                {
                    "name": "E5",
                    "midi": 76,
                    "time": 75.65978999999994,
                    "velocity": 0.30708661417322836,
                    "duration": 0.3519059999999996
                },
                {
                    "name": "A#4",
                    "midi": 70,
                    "time": 75.65978999999994,
                    "velocity": 0.30708661417322836,
                    "duration": 0.3519059999999996
                },
                {
                    "name": "G#5",
                    "midi": 80,
                    "time": 75.65978999999994,
                    "velocity": 0.33070866141732286,
                    "duration": 0.3519059999999996
                },
                {
                    "name": "F#5",
                    "midi": 78,
                    "time": 76.01169599999994,
                    "velocity": 0.3700787401574803,
                    "duration": 2.1114359999999976
                },
                {
                    "name": "C#5",
                    "midi": 73,
                    "time": 76.01169599999994,
                    "velocity": 0.36220472440944884,
                    "duration": 0.3519059999999996
                },
                {
                    "name": "D5",
                    "midi": 74,
                    "time": 76.01169599999994,
                    "velocity": 0.3700787401574803,
                    "duration": 2.1114359999999976
                },
                {
                    "name": "B4",
                    "midi": 71,
                    "time": 76.36360199999994,
                    "velocity": 0.28346456692913385,
                    "duration": 0.3519059999999996
                },
                {
                    "name": "C#5",
                    "midi": 73,
                    "time": 76.71550799999994,
                    "velocity": 0.33070866141732286,
                    "duration": 0.3519059999999996
                },
                {
                    "name": "B4",
                    "midi": 71,
                    "time": 77.06741399999994,
                    "velocity": 0.29133858267716534,
                    "duration": 0.3519059999999996
                },
                {
                    "name": "C#5",
                    "midi": 73,
                    "time": 77.41931999999994,
                    "velocity": 0.3779527559055118,
                    "duration": 0.3519059999999996
                },
                {
                    "name": "B4",
                    "midi": 71,
                    "time": 77.77122599999994,
                    "velocity": 0.3228346456692913,
                    "duration": 0.3519059999999996
                },
                {
                    "name": "F#5",
                    "midi": 78,
                    "time": 78.12313199999994,
                    "velocity": 0.31496062992125984,
                    "duration": 0.7038120000000134
                },
                {
                    "name": "D5",
                    "midi": 74,
                    "time": 78.12313199999994,
                    "velocity": 0.31496062992125984,
                    "duration": 0.7038120000000134
                },
                {
                    "name": "A5",
                    "midi": 81,
                    "time": 78.12313199999994,
                    "velocity": 0.41732283464566927,
                    "duration": 0.23460400000000448
                },
                {
                    "name": "C#6",
                    "midi": 85,
                    "time": 78.35773599999995,
                    "velocity": 0.4015748031496063,
                    "duration": 0.23460400000000448
                },
                {
                    "name": "A5",
                    "midi": 81,
                    "time": 78.59233999999995,
                    "velocity": 0.3937007874015748,
                    "duration": 0.23460400000000448
                },
                {
                    "name": "F#5",
                    "midi": 78,
                    "time": 78.82694399999995,
                    "velocity": 0.3543307086614173,
                    "duration": 2.1114359999999976
                },
                {
                    "name": "C#5",
                    "midi": 73,
                    "time": 78.82694399999995,
                    "velocity": 0.36220472440944884,
                    "duration": 0.3519059999999996
                },
                {
                    "name": "D5",
                    "midi": 74,
                    "time": 78.82694399999995,
                    "velocity": 0.3543307086614173,
                    "duration": 2.1114359999999976
                },
                {
                    "name": "B4",
                    "midi": 71,
                    "time": 79.17884999999995,
                    "velocity": 0.28346456692913385,
                    "duration": 0.3519059999999996
                },
                {
                    "name": "C#5",
                    "midi": 73,
                    "time": 79.53075599999995,
                    "velocity": 0.33070866141732286,
                    "duration": 0.3519059999999996
                },
                {
                    "name": "B4",
                    "midi": 71,
                    "time": 79.88266199999995,
                    "velocity": 0.29133858267716534,
                    "duration": 0.3519059999999996
                },
                {
                    "name": "C#5",
                    "midi": 73,
                    "time": 80.23456799999995,
                    "velocity": 0.3779527559055118,
                    "duration": 0.3519059999999996
                },
                {
                    "name": "F#5",
                    "midi": 78,
                    "time": 80.58647399999995,
                    "velocity": 0.4015748031496063,
                    "duration": 0.3519059999999996
                },
                {
                    "name": "B5",
                    "midi": 83,
                    "time": 80.58647399999995,
                    "velocity": 0.4409448818897638,
                    "duration": 0.3519059999999996
                },
                {
                    "name": "D5",
                    "midi": 74,
                    "time": 80.58647399999995,
                    "velocity": 0.4015748031496063,
                    "duration": 0.3519059999999996
                },
                {
                    "name": "B4",
                    "midi": 71,
                    "time": 80.93837999999995,
                    "velocity": 0.3779527559055118,
                    "duration": 0.3519059999999996
                },
                {
                    "name": "G#5",
                    "midi": 80,
                    "time": 80.93837999999995,
                    "velocity": 0.4094488188976378,
                    "duration": 0.3519059999999996
                },
                {
                    "name": "E5",
                    "midi": 76,
                    "time": 80.93837999999995,
                    "velocity": 0.3779527559055118,
                    "duration": 0.3519059999999996
                },
                {
                    "name": "D5",
                    "midi": 74,
                    "time": 81.29028599999995,
                    "velocity": 0.36220472440944884,
                    "duration": 0.3519059999999996
                },
                {
                    "name": "G#4",
                    "midi": 68,
                    "time": 81.29028599999995,
                    "velocity": 0.36220472440944884,
                    "duration": 0.3519059999999996
                },
                {
                    "name": "F#5",
                    "midi": 78,
                    "time": 81.29028599999995,
                    "velocity": 0.3937007874015748,
                    "duration": 0.3519059999999996
                },
                {
                    "name": "E5",
                    "midi": 76,
                    "time": 81.64219199999995,
                    "velocity": 0.49606299212598426,
                    "duration": 0.3519059999999996
                },
                {
                    "name": "A4",
                    "midi": 69,
                    "time": 81.64219199999995,
                    "velocity": 0.4566929133858268,
                    "duration": 0.3519059999999996
                },
                {
                    "name": "C#5",
                    "midi": 73,
                    "time": 81.64219199999995,
                    "velocity": 0.4566929133858268,
                    "duration": 0.3519059999999996
                },
                {
                    "name": "A4",
                    "midi": 69,
                    "time": 81.99409799999995,
                    "velocity": 0.4409448818897638,
                    "duration": 0.06598237500000437
                },
                {
                    "name": "E4",
                    "midi": 64,
                    "time": 81.99409799999995,
                    "velocity": 0.4409448818897638,
                    "duration": 0.06598237500000437
                },
                {
                    "name": "C#5",
                    "midi": 73,
                    "time": 81.99409799999995,
                    "velocity": 0.4409448818897638,
                    "duration": 0.06598237500000437
                },
                {
                    "name": "E4",
                    "midi": 64,
                    "time": 82.17005099999996,
                    "velocity": 0.4409448818897638,
                    "duration": 0.06598237500000437
                },
                {
                    "name": "A4",
                    "midi": 69,
                    "time": 82.17005099999996,
                    "velocity": 0.4409448818897638,
                    "duration": 0.06598237500000437
                },
                {
                    "name": "C#5",
                    "midi": 73,
                    "time": 82.17005099999996,
                    "velocity": 0.4409448818897638,
                    "duration": 0.06598237500000437
                },
                {
                    "name": "A4",
                    "midi": 69,
                    "time": 82.34600399999997,
                    "velocity": 0.4409448818897638,
                    "duration": 0.26392950000000326
                },
                {
                    "name": "C#5",
                    "midi": 73,
                    "time": 82.34600399999997,
                    "velocity": 0.4409448818897638,
                    "duration": 0.26392950000000326
                },
                {
                    "name": "E4",
                    "midi": 64,
                    "time": 82.34600399999997,
                    "velocity": 0.4409448818897638,
                    "duration": 0.26392950000000326
                },
                {
                    "name": "C#5",
                    "midi": 73,
                    "time": 82.69790999999996,
                    "velocity": 0.4566929133858268,
                    "duration": 0.3519059999999996
                },
                {
                    "name": "A4",
                    "midi": 69,
                    "time": 82.69790999999996,
                    "velocity": 0.4566929133858268,
                    "duration": 0.3519059999999996
                },
                {
                    "name": "E5",
                    "midi": 76,
                    "time": 82.69790999999996,
                    "velocity": 0.4566929133858268,
                    "duration": 0.3519059999999996
                },
                {
                    "name": "A4",
                    "midi": 69,
                    "time": 83.04981599999996,
                    "velocity": 0.4566929133858268,
                    "duration": 0.3519059999999996
                },
                {
                    "name": "F#5",
                    "midi": 78,
                    "time": 83.04981599999996,
                    "velocity": 0.4566929133858268,
                    "duration": 0.3519059999999996
                },
                {
                    "name": "C#5",
                    "midi": 73,
                    "time": 83.04981599999996,
                    "velocity": 0.4566929133858268,
                    "duration": 0.3519059999999996
                },
                {
                    "name": "C#5",
                    "midi": 73,
                    "time": 83.40172199999996,
                    "velocity": 0.4251968503937008,
                    "duration": 0.13196474999999452
                },
                {
                    "name": "A4",
                    "midi": 69,
                    "time": 83.40172199999996,
                    "velocity": 0.4251968503937008,
                    "duration": 0.13196474999999452
                },
                {
                    "name": "F#5",
                    "midi": 78,
                    "time": 83.40172199999996,
                    "velocity": 0.4251968503937008,
                    "duration": 0.13196474999999452
                },
                {
                    "name": "G#5",
                    "midi": 80,
                    "time": 83.57767499999996,
                    "velocity": 0.4251968503937008,
                    "duration": 0.13196474999999452
                },
                {
                    "name": "B4",
                    "midi": 71,
                    "time": 83.57767499999996,
                    "velocity": 0.4251968503937008,
                    "duration": 0.13196474999999452
                },
                {
                    "name": "C#5",
                    "midi": 73,
                    "time": 83.57767499999996,
                    "velocity": 0.4251968503937008,
                    "duration": 0.13196474999999452
                },
                {
                    "name": "C#5",
                    "midi": 73,
                    "time": 83.75362799999995,
                    "velocity": 0.4251968503937008,
                    "duration": 0.13196474999999452
                },
                {
                    "name": "A4",
                    "midi": 69,
                    "time": 83.75362799999995,
                    "velocity": 0.4251968503937008,
                    "duration": 0.13196474999999452
                },
                {
                    "name": "F#5",
                    "midi": 78,
                    "time": 83.75362799999995,
                    "velocity": 0.4251968503937008,
                    "duration": 0.13196474999999452
                },
                {
                    "name": "B4",
                    "midi": 71,
                    "time": 83.92958099999994,
                    "velocity": 0.4251968503937008,
                    "duration": 0.13196474999999452
                },
                {
                    "name": "G#5",
                    "midi": 80,
                    "time": 83.92958099999994,
                    "velocity": 0.4251968503937008,
                    "duration": 0.13196474999999452
                },
                {
                    "name": "C#5",
                    "midi": 73,
                    "time": 83.92958099999994,
                    "velocity": 0.4251968503937008,
                    "duration": 0.13196474999999452
                },
                {
                    "name": "C#5",
                    "midi": 73,
                    "time": 84.10553399999993,
                    "velocity": 0.44881889763779526,
                    "duration": 0.3519059999999996
                },
                {
                    "name": "A4",
                    "midi": 69,
                    "time": 84.10553399999993,
                    "velocity": 0.44881889763779526,
                    "duration": 0.3519059999999996
                },
                {
                    "name": "F#5",
                    "midi": 78,
                    "time": 84.10553399999993,
                    "velocity": 0.44881889763779526,
                    "duration": 0.3519059999999996
                },
                {
                    "name": "E5",
                    "midi": 76,
                    "time": 84.45743999999993,
                    "velocity": 0.4881889763779528,
                    "duration": 0.3519059999999996
                },
                {
                    "name": "A4",
                    "midi": 69,
                    "time": 84.45743999999993,
                    "velocity": 0.4881889763779528,
                    "duration": 0.3519059999999996
                },
                {
                    "name": "C#5",
                    "midi": 73,
                    "time": 84.45743999999993,
                    "velocity": 0.4881889763779528,
                    "duration": 0.3519059999999996
                },
                {
                    "name": "A4",
                    "midi": 69,
                    "time": 84.80934599999993,
                    "velocity": 0.4409448818897638,
                    "duration": 0.06598237500000437
                },
                {
                    "name": "G#4",
                    "midi": 68,
                    "time": 84.80934599999993,
                    "velocity": 0.4409448818897638,
                    "duration": 0.06598237500000437
                },
                {
                    "name": "C#5",
                    "midi": 73,
                    "time": 84.80934599999993,
                    "velocity": 0.4409448818897638,
                    "duration": 0.06598237500000437
                },
                {
                    "name": "G#4",
                    "midi": 68,
                    "time": 84.98529899999994,
                    "velocity": 0.4409448818897638,
                    "duration": 0.06598237500000437
                },
                {
                    "name": "A4",
                    "midi": 69,
                    "time": 84.98529899999994,
                    "velocity": 0.4409448818897638,
                    "duration": 0.06598237500000437
                },
                {
                    "name": "C#5",
                    "midi": 73,
                    "time": 84.98529899999994,
                    "velocity": 0.4409448818897638,
                    "duration": 0.06598237500000437
                },
                {
                    "name": "A4",
                    "midi": 69,
                    "time": 85.16125199999995,
                    "velocity": 0.4409448818897638,
                    "duration": 0.26392950000000326
                },
                {
                    "name": "C#5",
                    "midi": 73,
                    "time": 85.16125199999995,
                    "velocity": 0.4409448818897638,
                    "duration": 0.26392950000000326
                },
                {
                    "name": "F#4",
                    "midi": 66,
                    "time": 85.16125199999995,
                    "velocity": 0.4409448818897638,
                    "duration": 0.26392950000000326
                },
                {
                    "name": "F#4",
                    "midi": 66,
                    "time": 85.51315799999995,
                    "velocity": 0.48031496062992124,
                    "duration": 0.3519059999999996
                },
                {
                    "name": "E4",
                    "midi": 64,
                    "time": 85.51315799999995,
                    "velocity": 0.48031496062992124,
                    "duration": 0.3519059999999996
                },
                {
                    "name": "A4",
                    "midi": 69,
                    "time": 85.51315799999995,
                    "velocity": 0.48031496062992124,
                    "duration": 0.3519059999999996
                },
                {
                    "name": "C#5",
                    "midi": 73,
                    "time": 85.86506399999995,
                    "velocity": 0.5039370078740157,
                    "duration": 1.4076239999999984
                },
                {
                    "name": "F#4",
                    "midi": 66,
                    "time": 85.86506399999995,
                    "velocity": 0.5039370078740157,
                    "duration": 1.4076239999999984
                },
                {
                    "name": "A4",
                    "midi": 69,
                    "time": 85.86506399999995,
                    "velocity": 0.5039370078740157,
                    "duration": 1.4076239999999984
                },
                {
                    "name": "D4",
                    "midi": 62,
                    "time": 85.86506399999995,
                    "velocity": 0.5039370078740157,
                    "duration": 1.4076239999999984
                },
                {
                    "name": "D4",
                    "midi": 62,
                    "time": 87.27268799999995,
                    "velocity": 0.23622047244094488,
                    "duration": 0.3519059999999996
                },
                {
                    "name": "B4",
                    "midi": 71,
                    "time": 87.27268799999995,
                    "velocity": 0.23622047244094488,
                    "duration": 0.3519059999999996
                },
                {
                    "name": "G4",
                    "midi": 67,
                    "time": 87.27268799999995,
                    "velocity": 0.23622047244094488,
                    "duration": 0.3519059999999996
                },
                {
                    "name": "G4",
                    "midi": 67,
                    "time": 87.62459399999995,
                    "velocity": 0.2283464566929134,
                    "duration": 0.06598237500000437
                },
                {
                    "name": "B3",
                    "midi": 59,
                    "time": 87.62459399999995,
                    "velocity": 0.2283464566929134,
                    "duration": 0.06598237500000437
                },
                {
                    "name": "D4",
                    "midi": 62,
                    "time": 87.62459399999995,
                    "velocity": 0.2283464566929134,
                    "duration": 0.06598237500000437
                },
                {
                    "name": "G4",
                    "midi": 67,
                    "time": 87.80054699999995,
                    "velocity": 0.2283464566929134,
                    "duration": 0.06598237500000437
                },
                {
                    "name": "B3",
                    "midi": 59,
                    "time": 87.80054699999995,
                    "velocity": 0.2283464566929134,
                    "duration": 0.06598237500000437
                },
                {
                    "name": "D4",
                    "midi": 62,
                    "time": 87.80054699999995,
                    "velocity": 0.2283464566929134,
                    "duration": 0.06598237500000437
                },
                {
                    "name": "D4",
                    "midi": 62,
                    "time": 87.97649999999996,
                    "velocity": 0.2283464566929134,
                    "duration": 0.1759530000000069
                },
                {
                    "name": "B3",
                    "midi": 59,
                    "time": 87.97649999999996,
                    "velocity": 0.2283464566929134,
                    "duration": 0.1759530000000069
                },
                {
                    "name": "G4",
                    "midi": 67,
                    "time": 87.97649999999996,
                    "velocity": 0.2283464566929134,
                    "duration": 0.1759530000000069
                },
                {
                    "name": "D4",
                    "midi": 62,
                    "time": 88.32840599999997,
                    "velocity": 0.23622047244094488,
                    "duration": 0.26392950000000326
                },
                {
                    "name": "B4",
                    "midi": 71,
                    "time": 88.32840599999997,
                    "velocity": 0.23622047244094488,
                    "duration": 0.26392950000000326
                },
                {
                    "name": "G4",
                    "midi": 67,
                    "time": 88.32840599999997,
                    "velocity": 0.23622047244094488,
                    "duration": 0.26392950000000326
                },
                {
                    "name": "F4",
                    "midi": 65,
                    "time": 88.68031199999997,
                    "velocity": 0.23622047244094488,
                    "duration": 0.3519059999999996
                },
                {
                    "name": "C4",
                    "midi": 60,
                    "time": 88.68031199999997,
                    "velocity": 0.23622047244094488,
                    "duration": 0.3519059999999996
                },
                {
                    "name": "A4",
                    "midi": 69,
                    "time": 88.68031199999997,
                    "velocity": 0.23622047244094488,
                    "duration": 0.3519059999999996
                },
                {
                    "name": "A4",
                    "midi": 69,
                    "time": 89.03221799999997,
                    "velocity": 0.2204724409448819,
                    "duration": 0.08797649999999635
                },
                {
                    "name": "C4",
                    "midi": 60,
                    "time": 89.03221799999997,
                    "velocity": 0.2204724409448819,
                    "duration": 0.08797649999999635
                },
                {
                    "name": "F4",
                    "midi": 65,
                    "time": 89.03221799999997,
                    "velocity": 0.2204724409448819,
                    "duration": 0.08797649999999635
                },
                {
                    "name": "B4",
                    "midi": 71,
                    "time": 89.20817099999996,
                    "velocity": 0.2204724409448819,
                    "duration": 0.08797649999999635
                },
                {
                    "name": "D4",
                    "midi": 62,
                    "time": 89.20817099999996,
                    "velocity": 0.2204724409448819,
                    "duration": 0.08797649999999635
                },
                {
                    "name": "F4",
                    "midi": 65,
                    "time": 89.20817099999996,
                    "velocity": 0.2204724409448819,
                    "duration": 0.08797649999999635
                },
                {
                    "name": "F4",
                    "midi": 65,
                    "time": 89.38412399999996,
                    "velocity": 0.2204724409448819,
                    "duration": 0.08797649999999635
                },
                {
                    "name": "A4",
                    "midi": 69,
                    "time": 89.38412399999996,
                    "velocity": 0.2204724409448819,
                    "duration": 0.08797649999999635
                },
                {
                    "name": "C4",
                    "midi": 60,
                    "time": 89.38412399999996,
                    "velocity": 0.2204724409448819,
                    "duration": 0.08797649999999635
                },
                {
                    "name": "F4",
                    "midi": 65,
                    "time": 89.56007699999995,
                    "velocity": 0.2204724409448819,
                    "duration": 0.08797649999999635
                },
                {
                    "name": "D4",
                    "midi": 62,
                    "time": 89.56007699999995,
                    "velocity": 0.2204724409448819,
                    "duration": 0.08797649999999635
                },
                {
                    "name": "B4",
                    "midi": 71,
                    "time": 89.56007699999995,
                    "velocity": 0.2204724409448819,
                    "duration": 0.08797649999999635
                },
                {
                    "name": "E4",
                    "midi": 64,
                    "time": 89.73602999999994,
                    "velocity": 0.23622047244094488,
                    "duration": 0.1759530000000069
                },
                {
                    "name": "C5",
                    "midi": 72,
                    "time": 89.73602999999994,
                    "velocity": 0.23622047244094488,
                    "duration": 0.1759530000000069
                },
                {
                    "name": "F4",
                    "midi": 65,
                    "time": 89.73602999999994,
                    "velocity": 0.23622047244094488,
                    "duration": 0.1759530000000069
                },
                {
                    "name": "G4",
                    "midi": 67,
                    "time": 90.08793599999996,
                    "velocity": 0.2440944881889764,
                    "duration": 0.3519059999999996
                },
                {
                    "name": "D4",
                    "midi": 62,
                    "time": 90.08793599999996,
                    "velocity": 0.2440944881889764,
                    "duration": 0.3519059999999996
                },
                {
                    "name": "B4",
                    "midi": 71,
                    "time": 90.08793599999996,
                    "velocity": 0.2440944881889764,
                    "duration": 0.3519059999999996
                },
                {
                    "name": "G4",
                    "midi": 67,
                    "time": 90.43984199999996,
                    "velocity": 0.2204724409448819,
                    "duration": 0.06598237500000437
                },
                {
                    "name": "B3",
                    "midi": 59,
                    "time": 90.43984199999996,
                    "velocity": 0.2204724409448819,
                    "duration": 0.06598237500000437
                },
                {
                    "name": "D4",
                    "midi": 62,
                    "time": 90.43984199999996,
                    "velocity": 0.2204724409448819,
                    "duration": 0.06598237500000437
                },
                {
                    "name": "D4",
                    "midi": 62,
                    "time": 90.61579499999996,
                    "velocity": 0.2204724409448819,
                    "duration": 0.06598237500000437
                },
                {
                    "name": "B3",
                    "midi": 59,
                    "time": 90.61579499999996,
                    "velocity": 0.2204724409448819,
                    "duration": 0.06598237500000437
                },
                {
                    "name": "G4",
                    "midi": 67,
                    "time": 90.61579499999996,
                    "velocity": 0.2204724409448819,
                    "duration": 0.06598237500000437
                },
                {
                    "name": "B3",
                    "midi": 59,
                    "time": 90.79174799999997,
                    "velocity": 0.2283464566929134,
                    "duration": 0.26392950000000326
                },
                {
                    "name": "G4",
                    "midi": 67,
                    "time": 90.79174799999997,
                    "velocity": 0.2283464566929134,
                    "duration": 0.26392950000000326
                },
                {
                    "name": "D4",
                    "midi": 62,
                    "time": 90.79174799999997,
                    "velocity": 0.2283464566929134,
                    "duration": 0.26392950000000326
                },
                {
                    "name": "G4",
                    "midi": 67,
                    "time": 91.14365399999997,
                    "velocity": 0.25196850393700787,
                    "duration": 0.3519059999999996
                },
                {
                    "name": "D4",
                    "midi": 62,
                    "time": 91.14365399999997,
                    "velocity": 0.25196850393700787,
                    "duration": 0.3519059999999996
                },
                {
                    "name": "B4",
                    "midi": 71,
                    "time": 91.14365399999997,
                    "velocity": 0.25196850393700787,
                    "duration": 0.3519059999999996
                },
                {
                    "name": "E4",
                    "midi": 64,
                    "time": 91.49555999999997,
                    "velocity": 0.2755905511811024,
                    "duration": 0.7038119999999992
                },
                {
                    "name": "B4",
                    "midi": 71,
                    "time": 91.49555999999997,
                    "velocity": 0.2755905511811024,
                    "duration": 0.7038119999999992
                },
                {
                    "name": "G#4",
                    "midi": 68,
                    "time": 91.49555999999997,
                    "velocity": 0.2755905511811024,
                    "duration": 0.7038119999999992
                },
                {
                    "name": "E4",
                    "midi": 64,
                    "time": 92.19937199999997,
                    "velocity": 0.3779527559055118,
                    "duration": 0.5263927249999938
                },
                {
                    "name": "E5",
                    "midi": 76,
                    "time": 92.90318399999997,
                    "velocity": 0.49606299212598426,
                    "duration": 0.3519059999999996
                },
                {
                    "name": "A4",
                    "midi": 69,
                    "time": 92.90318399999997,
                    "velocity": 0.49606299212598426,
                    "duration": 0.3519059999999996
                },
                {
                    "name": "C#5",
                    "midi": 73,
                    "time": 92.90318399999997,
                    "velocity": 0.49606299212598426,
                    "duration": 0.3519059999999996
                },
                {
                    "name": "A4",
                    "midi": 69,
                    "time": 93.25508999999997,
                    "velocity": 0.48031496062992124,
                    "duration": 0.06598237500000437
                },
                {
                    "name": "C#5",
                    "midi": 73,
                    "time": 93.25508999999997,
                    "velocity": 0.48031496062992124,
                    "duration": 0.06598237500000437
                },
                {
                    "name": "C#5",
                    "midi": 73,
                    "time": 93.43104299999997,
                    "velocity": 0.48031496062992124,
                    "duration": 0.06598237500000437
                },
                {
                    "name": "A4",
                    "midi": 69,
                    "time": 93.43104299999997,
                    "velocity": 0.48031496062992124,
                    "duration": 0.06598237500000437
                },
                {
                    "name": "A4",
                    "midi": 69,
                    "time": 93.60699599999998,
                    "velocity": 0.48031496062992124,
                    "duration": 0.26392950000000326
                },
                {
                    "name": "C#5",
                    "midi": 73,
                    "time": 93.60699599999998,
                    "velocity": 0.48031496062992124,
                    "duration": 0.26392950000000326
                },
                {
                    "name": "E5",
                    "midi": 76,
                    "time": 93.95890199999998,
                    "velocity": 0.49606299212598426,
                    "duration": 0.3519059999999996
                },
                {
                    "name": "A4",
                    "midi": 69,
                    "time": 93.95890199999998,
                    "velocity": 0.49606299212598426,
                    "duration": 0.3519059999999996
                },
                {
                    "name": "C#5",
                    "midi": 73,
                    "time": 93.95890199999998,
                    "velocity": 0.49606299212598426,
                    "duration": 0.3519059999999996
                },
                {
                    "name": "C#5",
                    "midi": 73,
                    "time": 94.31080799999998,
                    "velocity": 0.49606299212598426,
                    "duration": 0.3519059999999996
                },
                {
                    "name": "A4",
                    "midi": 69,
                    "time": 94.31080799999998,
                    "velocity": 0.49606299212598426,
                    "duration": 0.3519059999999996
                },
                {
                    "name": "F#5",
                    "midi": 78,
                    "time": 94.31080799999998,
                    "velocity": 0.49606299212598426,
                    "duration": 0.3519059999999996
                },
                {
                    "name": "A4",
                    "midi": 69,
                    "time": 94.66271399999998,
                    "velocity": 0.4409448818897638,
                    "duration": 0.13196474999999452
                },
                {
                    "name": "F#5",
                    "midi": 78,
                    "time": 94.66271399999998,
                    "velocity": 0.4409448818897638,
                    "duration": 0.13196474999999452
                },
                {
                    "name": "C#5",
                    "midi": 73,
                    "time": 94.66271399999998,
                    "velocity": 0.4409448818897638,
                    "duration": 0.13196474999999452
                },
                {
                    "name": "C#5",
                    "midi": 73,
                    "time": 94.83866699999997,
                    "velocity": 0.4409448818897638,
                    "duration": 0.13196474999999452
                },
                {
                    "name": "B4",
                    "midi": 71,
                    "time": 94.83866699999997,
                    "velocity": 0.4409448818897638,
                    "duration": 0.13196474999999452
                },
                {
                    "name": "G#5",
                    "midi": 80,
                    "time": 94.83866699999997,
                    "velocity": 0.4409448818897638,
                    "duration": 0.13196474999999452
                },
                {
                    "name": "F#5",
                    "midi": 78,
                    "time": 95.01461999999997,
                    "velocity": 0.4566929133858268,
                    "duration": 0.13196474999999452
                },
                {
                    "name": "A4",
                    "midi": 69,
                    "time": 95.01461999999997,
                    "velocity": 0.4566929133858268,
                    "duration": 0.13196474999999452
                },
                {
                    "name": "D5",
                    "midi": 74,
                    "time": 95.01461999999997,
                    "velocity": 0.4566929133858268,
                    "duration": 0.13196474999999452
                },
                {
                    "name": "D5",
                    "midi": 74,
                    "time": 95.19057299999996,
                    "velocity": 0.44881889763779526,
                    "duration": 0.13196474999999452
                },
                {
                    "name": "A4",
                    "midi": 69,
                    "time": 95.19057299999996,
                    "velocity": 0.44881889763779526,
                    "duration": 0.13196474999999452
                },
                {
                    "name": "G#5",
                    "midi": 80,
                    "time": 95.19057299999996,
                    "velocity": 0.44881889763779526,
                    "duration": 0.13196474999999452
                },
                {
                    "name": "A4",
                    "midi": 69,
                    "time": 95.36652599999995,
                    "velocity": 0.48031496062992124,
                    "duration": 0.3519059999999996
                },
                {
                    "name": "F#5",
                    "midi": 78,
                    "time": 95.36652599999995,
                    "velocity": 0.48031496062992124,
                    "duration": 0.3519059999999996
                },
                {
                    "name": "D5",
                    "midi": 74,
                    "time": 95.36652599999995,
                    "velocity": 0.48031496062992124,
                    "duration": 0.3519059999999996
                },
                {
                    "name": "C#5",
                    "midi": 73,
                    "time": 95.71843199999995,
                    "velocity": 0.5354330708661418,
                    "duration": 0.3519059999999996
                },
                {
                    "name": "A4",
                    "midi": 69,
                    "time": 95.71843199999995,
                    "velocity": 0.5354330708661418,
                    "duration": 0.3519059999999996
                },
                {
                    "name": "E5",
                    "midi": 76,
                    "time": 95.71843199999995,
                    "velocity": 0.5354330708661418,
                    "duration": 0.3519059999999996
                },
                {
                    "name": "C#5",
                    "midi": 73,
                    "time": 96.07033799999995,
                    "velocity": 0.48031496062992124,
                    "duration": 0.06598237500000437
                },
                {
                    "name": "G#4",
                    "midi": 68,
                    "time": 96.07033799999995,
                    "velocity": 0.48031496062992124,
                    "duration": 0.06598237500000437
                },
                {
                    "name": "A4",
                    "midi": 69,
                    "time": 96.07033799999995,
                    "velocity": 0.48031496062992124,
                    "duration": 0.06598237500000437
                },
                {
                    "name": "C#5",
                    "midi": 73,
                    "time": 96.24629099999996,
                    "velocity": 0.48031496062992124,
                    "duration": 0.06598237500000437
                },
                {
                    "name": "A4",
                    "midi": 69,
                    "time": 96.24629099999996,
                    "velocity": 0.48031496062992124,
                    "duration": 0.06598237500000437
                },
                {
                    "name": "G#4",
                    "midi": 68,
                    "time": 96.24629099999996,
                    "velocity": 0.48031496062992124,
                    "duration": 0.06598237500000437
                },
                {
                    "name": "A4",
                    "midi": 69,
                    "time": 96.42224399999996,
                    "velocity": 0.48031496062992124,
                    "duration": 0.26392950000000326
                },
                {
                    "name": "F#4",
                    "midi": 66,
                    "time": 96.42224399999996,
                    "velocity": 0.48031496062992124,
                    "duration": 0.26392950000000326
                },
                {
                    "name": "C#5",
                    "midi": 73,
                    "time": 96.42224399999996,
                    "velocity": 0.48031496062992124,
                    "duration": 0.26392950000000326
                },
                {
                    "name": "A4",
                    "midi": 69,
                    "time": 96.77414999999996,
                    "velocity": 0.49606299212598426,
                    "duration": 0.3519059999999996
                },
                {
                    "name": "E4",
                    "midi": 64,
                    "time": 96.77414999999996,
                    "velocity": 0.49606299212598426,
                    "duration": 0.3519059999999996
                },
                {
                    "name": "F#4",
                    "midi": 66,
                    "time": 96.77414999999996,
                    "velocity": 0.49606299212598426,
                    "duration": 0.3519059999999996
                },
                {
                    "name": "D#4",
                    "midi": 63,
                    "time": 97.12605599999996,
                    "velocity": 0.5275590551181102,
                    "duration": 1.759529999999998
                },
                {
                    "name": "C#5",
                    "midi": 73,
                    "time": 97.12605599999996,
                    "velocity": 0.5275590551181102,
                    "duration": 1.759529999999998
                },
                {
                    "name": "A4",
                    "midi": 69,
                    "time": 97.12605599999996,
                    "velocity": 0.5275590551181102,
                    "duration": 1.759529999999998
                },
                {
                    "name": "F#4",
                    "midi": 66,
                    "time": 97.12605599999996,
                    "velocity": 0.5275590551181102,
                    "duration": 1.759529999999998
                },
                {
                    "name": "A4",
                    "midi": 69,
                    "time": 98.88558599999996,
                    "velocity": 0.4015748031496063,
                    "duration": 0.08797649999999635
                },
                {
                    "name": "C#4",
                    "midi": 61,
                    "time": 98.88558599999996,
                    "velocity": 0.4015748031496063,
                    "duration": 0.08797649999999635
                },
                {
                    "name": "F#4",
                    "midi": 66,
                    "time": 98.88558599999996,
                    "velocity": 0.4015748031496063,
                    "duration": 0.08797649999999635
                },
                {
                    "name": "C#4",
                    "midi": 61,
                    "time": 99.06153899999995,
                    "velocity": 0.4015748031496063,
                    "duration": 0.08797649999999635
                },
                {
                    "name": "A4",
                    "midi": 69,
                    "time": 99.06153899999995,
                    "velocity": 0.4015748031496063,
                    "duration": 0.08797649999999635
                },
                {
                    "name": "F#4",
                    "midi": 66,
                    "time": 99.06153899999995,
                    "velocity": 0.4015748031496063,
                    "duration": 0.08797649999999635
                },
                {
                    "name": "D#4",
                    "midi": 63,
                    "time": 99.23749199999995,
                    "velocity": 0.4015748031496063,
                    "duration": 0.26392950000000326
                },
                {
                    "name": "B3",
                    "midi": 59,
                    "time": 99.23749199999995,
                    "velocity": 0.4015748031496063,
                    "duration": 0.26392950000000326
                },
                {
                    "name": "F#4",
                    "midi": 66,
                    "time": 99.23749199999995,
                    "velocity": 0.4015748031496063,
                    "duration": 0.26392950000000326
                },
                {
                    "name": "A4",
                    "midi": 69,
                    "time": 99.58939799999995,
                    "velocity": 0.4251968503937008,
                    "duration": 0.26392950000000326
                },
                {
                    "name": "E4",
                    "midi": 64,
                    "time": 99.58939799999995,
                    "velocity": 0.4251968503937008,
                    "duration": 0.26392950000000326
                },
                {
                    "name": "F#4",
                    "midi": 66,
                    "time": 99.58939799999995,
                    "velocity": 0.4251968503937008,
                    "duration": 0.26392950000000326
                },
                {
                    "name": "A4",
                    "midi": 69,
                    "time": 99.94130399999995,
                    "velocity": 0.4409448818897638,
                    "duration": 0.3519059999999996
                },
                {
                    "name": "D#4",
                    "midi": 63,
                    "time": 99.94130399999995,
                    "velocity": 0.4409448818897638,
                    "duration": 0.3519059999999996
                },
                {
                    "name": "C#5",
                    "midi": 73,
                    "time": 99.94130399999995,
                    "velocity": 0.4409448818897638,
                    "duration": 0.3519059999999996
                },
                {
                    "name": "C#4",
                    "midi": 61,
                    "time": 100.29320999999995,
                    "velocity": 0.4251968503937008,
                    "duration": 0.08797649999999635
                },
                {
                    "name": "A4",
                    "midi": 69,
                    "time": 100.29320999999995,
                    "velocity": 0.4251968503937008,
                    "duration": 0.08797649999999635
                },
                {
                    "name": "F#4",
                    "midi": 66,
                    "time": 100.29320999999995,
                    "velocity": 0.4251968503937008,
                    "duration": 0.08797649999999635
                },
                {
                    "name": "F#4",
                    "midi": 66,
                    "time": 100.46916299999994,
                    "velocity": 0.4251968503937008,
                    "duration": 0.08797649999999635
                },
                {
                    "name": "C#4",
                    "midi": 61,
                    "time": 100.46916299999994,
                    "velocity": 0.4251968503937008,
                    "duration": 0.08797649999999635
                },
                {
                    "name": "A4",
                    "midi": 69,
                    "time": 100.46916299999994,
                    "velocity": 0.4251968503937008,
                    "duration": 0.08797649999999635
                },
                {
                    "name": "B3",
                    "midi": 59,
                    "time": 100.64511599999993,
                    "velocity": 0.4409448818897638,
                    "duration": 0.26392950000000326
                },
                {
                    "name": "F#4",
                    "midi": 66,
                    "time": 100.64511599999993,
                    "velocity": 0.4409448818897638,
                    "duration": 0.26392950000000326
                },
                {
                    "name": "D#4",
                    "midi": 63,
                    "time": 100.64511599999993,
                    "velocity": 0.4409448818897638,
                    "duration": 0.26392950000000326
                },
                {
                    "name": "E4",
                    "midi": 64,
                    "time": 100.99702199999993,
                    "velocity": 0.4566929133858268,
                    "duration": 0.26392950000000326
                },
                {
                    "name": "A4",
                    "midi": 69,
                    "time": 100.99702199999993,
                    "velocity": 0.4566929133858268,
                    "duration": 0.26392950000000326
                },
                {
                    "name": "F#4",
                    "midi": 66,
                    "time": 100.99702199999993,
                    "velocity": 0.4566929133858268,
                    "duration": 0.26392950000000326
                },
                {
                    "name": "A4",
                    "midi": 69,
                    "time": 101.34892799999993,
                    "velocity": 0.5275590551181102,
                    "duration": 0.3519059999999996
                },
                {
                    "name": "D#4",
                    "midi": 63,
                    "time": 101.34892799999993,
                    "velocity": 0.5275590551181102,
                    "duration": 0.3519059999999996
                },
                {
                    "name": "C#5",
                    "midi": 73,
                    "time": 101.34892799999993,
                    "velocity": 0.5275590551181102,
                    "duration": 0.3519059999999996
                },
                {
                    "name": "A4",
                    "midi": 69,
                    "time": 101.70083399999993,
                    "velocity": 0.5196850393700787,
                    "duration": 0.7038119999999992
                },
                {
                    "name": "C#4",
                    "midi": 61,
                    "time": 101.70083399999993,
                    "velocity": 0.5196850393700787,
                    "duration": 0.7038119999999992
                },
                {
                    "name": "F#4",
                    "midi": 66,
                    "time": 101.70083399999993,
                    "velocity": 0.5196850393700787,
                    "duration": 0.7038119999999992
                },
                {
                    "name": "A4",
                    "midi": 69,
                    "time": 102.40464599999993,
                    "velocity": 0.5748031496062992,
                    "duration": 0.3519059999999996
                },
                {
                    "name": "F#4",
                    "midi": 66,
                    "time": 102.40464599999993,
                    "velocity": 0.5748031496062992,
                    "duration": 0.3519059999999996
                },
                {
                    "name": "C#5",
                    "midi": 73,
                    "time": 102.40464599999993,
                    "velocity": 0.5748031496062992,
                    "duration": 0.3519059999999996
                },
                {
                    "name": "G#4",
                    "midi": 68,
                    "time": 102.75655199999993,
                    "velocity": 0.5748031496062992,
                    "duration": 0.1759530000000069
                },
                {
                    "name": "D#5",
                    "midi": 75,
                    "time": 102.75655199999993,
                    "velocity": 0.5748031496062992,
                    "duration": 0.1759530000000069
                },
                {
                    "name": "D#4",
                    "midi": 63,
                    "time": 102.93250499999994,
                    "velocity": 0.5196850393700787,
                    "duration": 0.1759530000000069
                },
                {
                    "name": "D#4",
                    "midi": 63,
                    "time": 103.81226999999994,
                    "velocity": 0.5669291338582677,
                    "duration": 0.1759530000000069
                },
                {
                    "name": "G#3",
                    "midi": 56,
                    "time": 103.98822299999995,
                    "velocity": 0.5433070866141733,
                    "duration": 0.1759530000000069
                },
                {
                    "name": "D#5",
                    "midi": 75,
                    "time": 104.51608199999995,
                    "velocity": 0.5826771653543307,
                    "duration": 0.1759530000000069
                },
                {
                    "name": "G#4",
                    "midi": 68,
                    "time": 104.69203499999996,
                    "velocity": 0.5669291338582677,
                    "duration": 0.17448672499999418
                },
                {
                    "name": "D#6",
                    "midi": 87,
                    "time": 105.21989399999995,
                    "velocity": 0.5275590551181102,
                    "duration": 0.1759530000000069
                },
                {
                    "name": "G#5",
                    "midi": 80,
                    "time": 105.39584699999996,
                    "velocity": 0.4881889763779528,
                    "duration": 0.1759530000000069
                },
                {
                    "name": "D#6",
                    "midi": 87,
                    "time": 105.57179999999997,
                    "velocity": 0.4094488188976378,
                    "duration": 0.3519059999999996
                },
                {
                    "name": "C6",
                    "midi": 84,
                    "time": 105.57179999999997,
                    "velocity": 0.4094488188976378,
                    "duration": 0.3504397250000011
                },
                {
                    "name": "C6",
                    "midi": 84,
                    "time": 105.92370599999997,
                    "velocity": 0.4015748031496063,
                    "duration": 0.3519059999999996
                },
                {
                    "name": "B5",
                    "midi": 83,
                    "time": 106.27561199999997,
                    "velocity": 0.4094488188976378,
                    "duration": 0.7038119999999992
                },
                {
                    "name": "D#6",
                    "midi": 87,
                    "time": 106.27561199999997,
                    "velocity": 0.4094488188976378,
                    "duration": 0.3519059999999996
                },
                {
                    "name": "G6",
                    "midi": 91,
                    "time": 106.62751799999997,
                    "velocity": 0.4015748031496063,
                    "duration": 0.3519059999999996
                },
                {
                    "name": "D#6",
                    "midi": 87,
                    "time": 106.97942399999997,
                    "velocity": 0.4094488188976378,
                    "duration": 0.7038119999999992
                },
                {
                    "name": "C6",
                    "midi": 84,
                    "time": 106.97942399999997,
                    "velocity": 0.4094488188976378,
                    "duration": 0.7038119999999992
                },
                {
                    "name": "G#5",
                    "midi": 80,
                    "time": 107.68323599999997,
                    "velocity": 0.3700787401574803,
                    "duration": 1.4076240000000126
                },
                {
                    "name": "C6",
                    "midi": 84,
                    "time": 107.68323599999997,
                    "velocity": 0.4094488188976378,
                    "duration": 0.3519059999999996
                },
                {
                    "name": "D#6",
                    "midi": 87,
                    "time": 108.03514199999996,
                    "velocity": 0.4094488188976378,
                    "duration": 0.3519059999999996
                },
                {
                    "name": "C6",
                    "midi": 84,
                    "time": 108.38704799999996,
                    "velocity": 0.4094488188976378,
                    "duration": 0.23460400000000448
                },
                {
                    "name": "A#5",
                    "midi": 82,
                    "time": 108.62165199999997,
                    "velocity": 0.3937007874015748,
                    "duration": 0.23460400000000448
                },
                {
                    "name": "C6",
                    "midi": 84,
                    "time": 108.85625599999997,
                    "velocity": 0.3937007874015748,
                    "duration": 0.23460400000000448
                },
                {
                    "name": "G#5",
                    "midi": 80,
                    "time": 109.09085999999998,
                    "velocity": 0.3779527559055118,
                    "duration": 0.3519059999999996
                },
                {
                    "name": "G5",
                    "midi": 79,
                    "time": 109.09085999999998,
                    "velocity": 0.31496062992125984,
                    "duration": 0.7038119999999992
                },
                {
                    "name": "C6",
                    "midi": 84,
                    "time": 109.44276599999998,
                    "velocity": 0.3779527559055118,
                    "duration": 0.3519059999999996
                },
                {
                    "name": "F5",
                    "midi": 77,
                    "time": 109.79467199999998,
                    "velocity": 0.3228346456692913,
                    "duration": 0.7038119999999992
                },
                {
                    "name": "A#5",
                    "midi": 82,
                    "time": 109.79467199999998,
                    "velocity": 0.3700787401574803,
                    "duration": 0.7038119999999992
                },
                {
                    "name": "A#4",
                    "midi": 70,
                    "time": 110.49848399999998,
                    "velocity": 0.3700787401574803,
                    "duration": 0.3519059999999996
                },
                {
                    "name": "C5",
                    "midi": 72,
                    "time": 110.85038999999998,
                    "velocity": 0.3858267716535433,
                    "duration": 0.3519059999999996
                },
                {
                    "name": "C#5",
                    "midi": 73,
                    "time": 111.20229599999998,
                    "velocity": 0.4094488188976378,
                    "duration": 0.7038119999999992
                },
                {
                    "name": "C5",
                    "midi": 72,
                    "time": 111.90610799999997,
                    "velocity": 0.3700787401574803,
                    "duration": 0.3519059999999996
                },
                {
                    "name": "F5",
                    "midi": 77,
                    "time": 112.25801399999997,
                    "velocity": 0.3858267716535433,
                    "duration": 0.3519059999999996
                },
                {
                    "name": "A#4",
                    "midi": 70,
                    "time": 112.60991999999997,
                    "velocity": 0.3543307086614173,
                    "duration": 0.7038119999999992
                },
                {
                    "name": "G#4",
                    "midi": 68,
                    "time": 113.31373199999997,
                    "velocity": 0.3700787401574803,
                    "duration": 0.3519059999999996
                },
                {
                    "name": "F5",
                    "midi": 77,
                    "time": 113.66563799999997,
                    "velocity": 0.3858267716535433,
                    "duration": 0.3519059999999996
                },
                {
                    "name": "G4",
                    "midi": 67,
                    "time": 114.01754399999997,
                    "velocity": 0.31496062992125984,
                    "duration": 0.7038119999999992
                },
                {
                    "name": "F4",
                    "midi": 65,
                    "time": 114.72135599999997,
                    "velocity": 0.3464566929133858,
                    "duration": 0.3519059999999996
                },
                {
                    "name": "F5",
                    "midi": 77,
                    "time": 115.07326199999997,
                    "velocity": 0.3464566929133858,
                    "duration": 0.3519059999999996
                },
                {
                    "name": "D#4",
                    "midi": 63,
                    "time": 115.42516799999997,
                    "velocity": 0.2992125984251969,
                    "duration": 1.7595300000000265
                },
                {
                    "name": "A#3",
                    "midi": 58,
                    "time": 116.30493299999998,
                    "velocity": 0.2204724409448819,
                    "duration": 0.1759530000000069
                },
                {
                    "name": "C#4",
                    "midi": 61,
                    "time": 116.30493299999998,
                    "velocity": 0.2204724409448819,
                    "duration": 0.1759530000000069
                },
                {
                    "name": "A#3",
                    "midi": 58,
                    "time": 116.65683899999999,
                    "velocity": 0.2204724409448819,
                    "duration": 0.1759530000000069
                },
                {
                    "name": "C#4",
                    "midi": 61,
                    "time": 116.65683899999999,
                    "velocity": 0.2204724409448819,
                    "duration": 0.1759530000000069
                },
                {
                    "name": "C4",
                    "midi": 60,
                    "time": 117.184698,
                    "velocity": 0.2992125984251969,
                    "duration": 0.3372432500000002
                },
                {
                    "name": "D#4",
                    "midi": 63,
                    "time": 117.536604,
                    "velocity": 0.30708661417322836,
                    "duration": 0.3519059999999996
                },
                {
                    "name": "B3",
                    "midi": 59,
                    "time": 117.536604,
                    "velocity": 0.30708661417322836,
                    "duration": 0.7038119999999992
                },
                {
                    "name": "G4",
                    "midi": 67,
                    "time": 117.88851,
                    "velocity": 0.28346456692913385,
                    "duration": 0.3519059999999996
                },
                {
                    "name": "C4",
                    "midi": 60,
                    "time": 118.240416,
                    "velocity": 0.30708661417322836,
                    "duration": 0.7038119999999992
                },
                {
                    "name": "D#4",
                    "midi": 63,
                    "time": 118.240416,
                    "velocity": 0.30708661417322836,
                    "duration": 0.7038119999999992
                },
                {
                    "name": "C4",
                    "midi": 60,
                    "time": 118.944228,
                    "velocity": 0.30708661417322836,
                    "duration": 0.3519059999999996
                },
                {
                    "name": "A#3",
                    "midi": 58,
                    "time": 118.944228,
                    "velocity": 0.2755905511811024,
                    "duration": 1.1730200000000082
                },
                {
                    "name": "D#4",
                    "midi": 63,
                    "time": 119.296134,
                    "velocity": 0.30708661417322836,
                    "duration": 0.3519059999999996
                },
                {
                    "name": "C4",
                    "midi": 60,
                    "time": 119.64804,
                    "velocity": 0.30708661417322836,
                    "duration": 0.23460400000000448
                },
                {
                    "name": "A#3",
                    "midi": 58,
                    "time": 119.882644,
                    "velocity": 0.29133858267716534,
                    "duration": 0.46920800000000895
                },
                {
                    "name": "C4",
                    "midi": 60,
                    "time": 120.117248,
                    "velocity": 0.29133858267716534,
                    "duration": 0.23460400000000448
                },
                {
                    "name": "G#3",
                    "midi": 56,
                    "time": 120.35185200000001,
                    "velocity": 0.28346456692913385,
                    "duration": 0.3519059999999996
                },
                {
                    "name": "G3",
                    "midi": 55,
                    "time": 120.35185200000001,
                    "velocity": 0.23622047244094488,
                    "duration": 0.7038119999999992
                },
                {
                    "name": "C4",
                    "midi": 60,
                    "time": 120.70375800000001,
                    "velocity": 0.2755905511811024,
                    "duration": 0.3519059999999996
                },
                {
                    "name": "D3",
                    "midi": 50,
                    "time": 121.05566400000001,
                    "velocity": 0.1968503937007874,
                    "duration": 1.4076239999999984
                },
                {
                    "name": "A#3",
                    "midi": 58,
                    "time": 121.05566400000001,
                    "velocity": 0.2677165354330709,
                    "duration": 0.7038119999999992
                },
                {
                    "name": "F3",
                    "midi": 53,
                    "time": 121.05566400000001,
                    "velocity": 0.1968503937007874,
                    "duration": 1.4076239999999984
                },
                {
                    "name": "G#3",
                    "midi": 56,
                    "time": 121.759476,
                    "velocity": 0.2283464566929134,
                    "duration": 0.3519059999999996
                },
                {
                    "name": "A#3",
                    "midi": 58,
                    "time": 122.111382,
                    "velocity": 0.2125984251968504,
                    "duration": 0.3519059999999996
                },
                {
                    "name": "G#4",
                    "midi": 68,
                    "time": 122.463288,
                    "velocity": 0.2204724409448819,
                    "duration": 0.3519059999999996
                },
                {
                    "name": "E4",
                    "midi": 64,
                    "time": 122.463288,
                    "velocity": 0.2204724409448819,
                    "duration": 0.3519059999999996
                },
                {
                    "name": "B4",
                    "midi": 71,
                    "time": 122.463288,
                    "velocity": 0.2204724409448819,
                    "duration": 0.3519059999999996
                },
                {
                    "name": "E4",
                    "midi": 64,
                    "time": 122.815194,
                    "velocity": 0.2047244094488189,
                    "duration": 0.06598237500000437
                },
                {
                    "name": "G#4",
                    "midi": 68,
                    "time": 122.815194,
                    "velocity": 0.2047244094488189,
                    "duration": 0.06598237500000437
                },
                {
                    "name": "E4",
                    "midi": 64,
                    "time": 122.99114700000001,
                    "velocity": 0.2047244094488189,
                    "duration": 0.06598237500000437
                },
                {
                    "name": "G#4",
                    "midi": 68,
                    "time": 122.99114700000001,
                    "velocity": 0.2047244094488189,
                    "duration": 0.06598237500000437
                },
                {
                    "name": "E4",
                    "midi": 64,
                    "time": 123.16710000000002,
                    "velocity": 0.2047244094488189,
                    "duration": 0.08797649999999635
                },
                {
                    "name": "G#4",
                    "midi": 68,
                    "time": 123.16710000000002,
                    "velocity": 0.2047244094488189,
                    "duration": 0.08797649999999635
                },
                {
                    "name": "B4",
                    "midi": 71,
                    "time": 123.51900600000002,
                    "velocity": 0.2204724409448819,
                    "duration": 0.08797649999999635
                },
                {
                    "name": "E4",
                    "midi": 64,
                    "time": 123.51900600000002,
                    "velocity": 0.2204724409448819,
                    "duration": 0.08797649999999635
                },
                {
                    "name": "G#4",
                    "midi": 68,
                    "time": 123.51900600000002,
                    "velocity": 0.2204724409448819,
                    "duration": 0.08797649999999635
                },
                {
                    "name": "G#4",
                    "midi": 68,
                    "time": 123.87091200000002,
                    "velocity": 0.2204724409448819,
                    "duration": 0.3519059999999996
                },
                {
                    "name": "E4",
                    "midi": 64,
                    "time": 123.87091200000002,
                    "velocity": 0.2204724409448819,
                    "duration": 0.3519059999999996
                },
                {
                    "name": "C#5",
                    "midi": 73,
                    "time": 123.87091200000002,
                    "velocity": 0.2204724409448819,
                    "duration": 0.3519059999999996
                },
                {
                    "name": "E4",
                    "midi": 64,
                    "time": 124.22281800000002,
                    "velocity": 0.25196850393700787,
                    "duration": 0.06598237500000437
                },
                {
                    "name": "C#5",
                    "midi": 73,
                    "time": 124.22281800000002,
                    "velocity": 0.25196850393700787,
                    "duration": 0.06598237500000437
                },
                {
                    "name": "G#4",
                    "midi": 68,
                    "time": 124.22281800000002,
                    "velocity": 0.25196850393700787,
                    "duration": 0.06598237500000437
                },
                {
                    "name": "G#4",
                    "midi": 68,
                    "time": 124.39877100000002,
                    "velocity": 0.23622047244094488,
                    "duration": 0.06598237500000437
                },
                {
                    "name": "E4",
                    "midi": 64,
                    "time": 124.39877100000002,
                    "velocity": 0.23622047244094488,
                    "duration": 0.06598237500000437
                },
                {
                    "name": "D#5",
                    "midi": 75,
                    "time": 124.39877100000002,
                    "velocity": 0.23622047244094488,
                    "duration": 0.06598237500000437
                },
                {
                    "name": "E4",
                    "midi": 64,
                    "time": 124.57472400000003,
                    "velocity": 0.25196850393700787,
                    "duration": 0.06598237500000437
                },
                {
                    "name": "C#5",
                    "midi": 73,
                    "time": 124.57472400000003,
                    "velocity": 0.25196850393700787,
                    "duration": 0.06598237500000437
                },
                {
                    "name": "G#4",
                    "midi": 68,
                    "time": 124.57472400000003,
                    "velocity": 0.25196850393700787,
                    "duration": 0.06598237500000437
                },
                {
                    "name": "E4",
                    "midi": 64,
                    "time": 124.75067700000004,
                    "velocity": 0.23622047244094488,
                    "duration": 0.06598237500000437
                },
                {
                    "name": "D#5",
                    "midi": 75,
                    "time": 124.75067700000004,
                    "velocity": 0.23622047244094488,
                    "duration": 0.06598237500000437
                },
                {
                    "name": "G#4",
                    "midi": 68,
                    "time": 124.75067700000004,
                    "velocity": 0.23622047244094488,
                    "duration": 0.06598237500000437
                },
                {
                    "name": "G#4",
                    "midi": 68,
                    "time": 124.92663000000005,
                    "velocity": 0.2125984251968504,
                    "duration": 0.08797649999999635
                },
                {
                    "name": "E4",
                    "midi": 64,
                    "time": 124.92663000000005,
                    "velocity": 0.2125984251968504,
                    "duration": 0.08797649999999635
                },
                {
                    "name": "C#5",
                    "midi": 73,
                    "time": 124.92663000000005,
                    "velocity": 0.2125984251968504,
                    "duration": 0.08797649999999635
                },
                {
                    "name": "B4",
                    "midi": 71,
                    "time": 125.27853600000005,
                    "velocity": 0.2283464566929134,
                    "duration": 0.3519059999999996
                },
                {
                    "name": "E4",
                    "midi": 64,
                    "time": 125.27853600000005,
                    "velocity": 0.2283464566929134,
                    "duration": 0.3519059999999996
                },
                {
                    "name": "G#4",
                    "midi": 68,
                    "time": 125.27853600000005,
                    "velocity": 0.2283464566929134,
                    "duration": 0.3519059999999996
                },
                {
                    "name": "G#4",
                    "midi": 68,
                    "time": 125.63044200000004,
                    "velocity": 0.2047244094488189,
                    "duration": 0.06598237500000437
                },
                {
                    "name": "E4",
                    "midi": 64,
                    "time": 125.63044200000004,
                    "velocity": 0.2047244094488189,
                    "duration": 0.06598237500000437
                },
                {
                    "name": "G#4",
                    "midi": 68,
                    "time": 125.80639500000005,
                    "velocity": 0.2047244094488189,
                    "duration": 0.06598237500000437
                },
                {
                    "name": "E4",
                    "midi": 64,
                    "time": 125.80639500000005,
                    "velocity": 0.2047244094488189,
                    "duration": 0.06598237500000437
                },
                {
                    "name": "G#4",
                    "midi": 68,
                    "time": 125.98234800000006,
                    "velocity": 0.2047244094488189,
                    "duration": 0.26392950000000326
                },
                {
                    "name": "E4",
                    "midi": 64,
                    "time": 125.98234800000006,
                    "velocity": 0.2047244094488189,
                    "duration": 0.26392950000000326
                },
                {
                    "name": "G#4",
                    "midi": 68,
                    "time": 126.33425400000006,
                    "velocity": 0.23622047244094488,
                    "duration": 0.3519059999999996
                },
                {
                    "name": "E4",
                    "midi": 64,
                    "time": 126.33425400000006,
                    "velocity": 0.23622047244094488,
                    "duration": 0.3519059999999996
                },
                {
                    "name": "B4",
                    "midi": 71,
                    "time": 126.33425400000006,
                    "velocity": 0.23622047244094488,
                    "duration": 0.3519059999999996
                },
                {
                    "name": "F4",
                    "midi": 65,
                    "time": 126.68616000000006,
                    "velocity": 0.2204724409448819,
                    "duration": 0.9457473750000105
                },
                {
                    "name": "A#4",
                    "midi": 70,
                    "time": 126.68616000000006,
                    "velocity": 0.2204724409448819,
                    "duration": 1.1217003750000174
                },
                {
                    "name": "G#4",
                    "midi": 68,
                    "time": 126.68616000000006,
                    "velocity": 0.2204724409448819,
                    "duration": 1.4076240000000269
                },
                {
                    "name": "D4",
                    "midi": 62,
                    "time": 126.68616000000006,
                    "velocity": 0.2204724409448819,
                    "duration": 1.4076240000000269
                },
                {
                    "name": "F4",
                    "midi": 65,
                    "time": 127.56592500000006,
                    "velocity": 0.2047244094488189,
                    "duration": 0.4178883750000182
                },
                {
                    "name": "A#4",
                    "midi": 70,
                    "time": 127.74187800000007,
                    "velocity": 0.2204724409448819,
                    "duration": 0.3519060000000138
                },
                {
                    "name": "F4",
                    "midi": 65,
                    "time": 127.91783100000008,
                    "velocity": 0.2047244094488189,
                    "duration": 0.1759530000000069
                },
                {
                    "name": "G#5",
                    "midi": 80,
                    "time": 128.09378400000008,
                    "velocity": 0.2204724409448819,
                    "duration": 0.3519060000000138
                },
                {
                    "name": "E5",
                    "midi": 76,
                    "time": 128.09378400000008,
                    "velocity": 0.2204724409448819,
                    "duration": 0.3519060000000138
                },
                {
                    "name": "B5",
                    "midi": 83,
                    "time": 128.09378400000008,
                    "velocity": 0.23622047244094488,
                    "duration": 0.3519060000000138
                },
                {
                    "name": "E5",
                    "midi": 76,
                    "time": 128.4456900000001,
                    "velocity": 0.2047244094488189,
                    "duration": 0.06598237500000437
                },
                {
                    "name": "G#5",
                    "midi": 80,
                    "time": 128.4456900000001,
                    "velocity": 0.2204724409448819,
                    "duration": 0.06598237500000437
                },
                {
                    "name": "E5",
                    "midi": 76,
                    "time": 128.6216430000001,
                    "velocity": 0.2047244094488189,
                    "duration": 0.06598237500000437
                },
                {
                    "name": "G#5",
                    "midi": 80,
                    "time": 128.6216430000001,
                    "velocity": 0.2204724409448819,
                    "duration": 0.06598237500000437
                },
                {
                    "name": "G#5",
                    "midi": 80,
                    "time": 128.79759600000008,
                    "velocity": 0.2204724409448819,
                    "duration": 0.08797649999999635
                },
                {
                    "name": "E5",
                    "midi": 76,
                    "time": 128.79759600000008,
                    "velocity": 0.2047244094488189,
                    "duration": 0.08797649999999635
                },
                {
                    "name": "G#5",
                    "midi": 80,
                    "time": 129.14950200000007,
                    "velocity": 0.2204724409448819,
                    "duration": 0.3519060000000138
                },
                {
                    "name": "E5",
                    "midi": 76,
                    "time": 129.14950200000007,
                    "velocity": 0.2204724409448819,
                    "duration": 0.3519060000000138
                },
                {
                    "name": "B5",
                    "midi": 83,
                    "time": 129.14950200000007,
                    "velocity": 0.23622047244094488,
                    "duration": 0.3519060000000138
                },
                {
                    "name": "E5",
                    "midi": 76,
                    "time": 129.50140800000008,
                    "velocity": 0.2204724409448819,
                    "duration": 0.3519060000000138
                },
                {
                    "name": "C#6",
                    "midi": 85,
                    "time": 129.50140800000008,
                    "velocity": 0.2440944881889764,
                    "duration": 0.3519060000000138
                },
                {
                    "name": "G#5",
                    "midi": 80,
                    "time": 129.50140800000008,
                    "velocity": 0.2204724409448819,
                    "duration": 0.3519060000000138
                },
                {
                    "name": "G#5",
                    "midi": 80,
                    "time": 129.8533140000001,
                    "velocity": 0.25196850393700787,
                    "duration": 0.06598237500000437
                },
                {
                    "name": "E5",
                    "midi": 76,
                    "time": 129.8533140000001,
                    "velocity": 0.25196850393700787,
                    "duration": 0.06598237500000437
                },
                {
                    "name": "C#6",
                    "midi": 85,
                    "time": 129.8533140000001,
                    "velocity": 0.2677165354330709,
                    "duration": 0.06598237500000437
                },
                {
                    "name": "D#6",
                    "midi": 87,
                    "time": 130.0292670000001,
                    "velocity": 0.23622047244094488,
                    "duration": 0.06598237500000437
                },
                {
                    "name": "E5",
                    "midi": 76,
                    "time": 130.0292670000001,
                    "velocity": 0.2204724409448819,
                    "duration": 0.06598237500000437
                },
                {
                    "name": "G#5",
                    "midi": 80,
                    "time": 130.0292670000001,
                    "velocity": 0.2204724409448819,
                    "duration": 0.06598237500000437
                },
                {
                    "name": "G#5",
                    "midi": 80,
                    "time": 130.20522000000008,
                    "velocity": 0.25196850393700787,
                    "duration": 0.06598237500000437
                },
                {
                    "name": "E5",
                    "midi": 76,
                    "time": 130.20522000000008,
                    "velocity": 0.25196850393700787,
                    "duration": 0.06598237500000437
                },
                {
                    "name": "C#6",
                    "midi": 85,
                    "time": 130.20522000000008,
                    "velocity": 0.2677165354330709,
                    "duration": 0.06598237500000437
                },
                {
                    "name": "E5",
                    "midi": 76,
                    "time": 130.38117300000008,
                    "velocity": 0.23622047244094488,
                    "duration": 0.06598237500000437
                },
                {
                    "name": "D#6",
                    "midi": 87,
                    "time": 130.38117300000008,
                    "velocity": 0.25984251968503935,
                    "duration": 0.06598237500000437
                },
                {
                    "name": "G#5",
                    "midi": 80,
                    "time": 130.38117300000008,
                    "velocity": 0.23622047244094488,
                    "duration": 0.06598237500000437
                },
                {
                    "name": "G#5",
                    "midi": 80,
                    "time": 130.55712600000007,
                    "velocity": 0.2125984251968504,
                    "duration": 0.3519060000000138
                },
                {
                    "name": "E5",
                    "midi": 76,
                    "time": 130.55712600000007,
                    "velocity": 0.2125984251968504,
                    "duration": 0.3519060000000138
                },
                {
                    "name": "C#6",
                    "midi": 85,
                    "time": 130.55712600000007,
                    "velocity": 0.2283464566929134,
                    "duration": 0.3519060000000138
                },
                {
                    "name": "B5",
                    "midi": 83,
                    "time": 130.90903200000008,
                    "velocity": 0.25196850393700787,
                    "duration": 0.3519060000000138
                },
                {
                    "name": "E5",
                    "midi": 76,
                    "time": 130.90903200000008,
                    "velocity": 0.2283464566929134,
                    "duration": 0.3519060000000138
                },
                {
                    "name": "G#5",
                    "midi": 80,
                    "time": 130.90903200000008,
                    "velocity": 0.2283464566929134,
                    "duration": 0.3519060000000138
                },
                {
                    "name": "G#5",
                    "midi": 80,
                    "time": 131.2609380000001,
                    "velocity": 0.2204724409448819,
                    "duration": 0.06598237500000437
                },
                {
                    "name": "E5",
                    "midi": 76,
                    "time": 131.2609380000001,
                    "velocity": 0.2047244094488189,
                    "duration": 0.06598237500000437
                },
                {
                    "name": "G#5",
                    "midi": 80,
                    "time": 131.4368910000001,
                    "velocity": 0.2204724409448819,
                    "duration": 0.06598237500000437
                },
                {
                    "name": "E5",
                    "midi": 76,
                    "time": 131.4368910000001,
                    "velocity": 0.2047244094488189,
                    "duration": 0.06598237500000437
                },
                {
                    "name": "G#5",
                    "midi": 80,
                    "time": 131.61284400000008,
                    "velocity": 0.2204724409448819,
                    "duration": 0.26392949999998905
                },
                {
                    "name": "E5",
                    "midi": 76,
                    "time": 131.61284400000008,
                    "velocity": 0.2047244094488189,
                    "duration": 0.26392949999998905
                },
                {
                    "name": "G#5",
                    "midi": 80,
                    "time": 131.96475000000007,
                    "velocity": 0.2283464566929134,
                    "duration": 0.3519060000000138
                },
                {
                    "name": "B5",
                    "midi": 83,
                    "time": 131.96475000000007,
                    "velocity": 0.25196850393700787,
                    "duration": 0.3519060000000138
                },
                {
                    "name": "E5",
                    "midi": 76,
                    "time": 131.96475000000007,
                    "velocity": 0.2283464566929134,
                    "duration": 0.3519060000000138
                },
                {
                    "name": "F5",
                    "midi": 77,
                    "time": 132.31665600000008,
                    "velocity": 0.23622047244094488,
                    "duration": 0.1759529999999927
                },
                {
                    "name": "A#5",
                    "midi": 82,
                    "time": 132.31665600000008,
                    "velocity": 0.30708661417322836,
                    "duration": 0.1759529999999927
                },
                {
                    "name": "D5",
                    "midi": 74,
                    "time": 132.49260900000007,
                    "velocity": 0.2283464566929134,
                    "duration": 0.1759529999999927
                },
                {
                    "name": "A#5",
                    "midi": 82,
                    "time": 133.02046800000008,
                    "velocity": 0.28346456692913385,
                    "duration": 0.1759529999999927
                },
                {
                    "name": "F5",
                    "midi": 77,
                    "time": 133.02046800000008,
                    "velocity": 0.23622047244094488,
                    "duration": 0.1759529999999927
                },
                {
                    "name": "D5",
                    "midi": 74,
                    "time": 133.19642100000007,
                    "velocity": 0.2283464566929134,
                    "duration": 0.1759529999999927
                },
                {
                    "name": "F5",
                    "midi": 77,
                    "time": 133.72428000000008,
                    "velocity": 0.23622047244094488,
                    "duration": 0.1759529999999927
                },
                {
                    "name": "A#5",
                    "midi": 82,
                    "time": 133.72428000000008,
                    "velocity": 0.28346456692913385,
                    "duration": 0.1759529999999927
                },
                {
                    "name": "D5",
                    "midi": 74,
                    "time": 133.90023300000007,
                    "velocity": 0.2283464566929134,
                    "duration": 0.1759529999999927
                },
                {
                    "name": "A#5",
                    "midi": 82,
                    "time": 134.42809200000008,
                    "velocity": 0.28346456692913385,
                    "duration": 0.1759529999999927
                },
                {
                    "name": "F5",
                    "midi": 77,
                    "time": 134.42809200000008,
                    "velocity": 0.23622047244094488,
                    "duration": 0.1759529999999927
                },
                {
                    "name": "D5",
                    "midi": 74,
                    "time": 134.60404500000007,
                    "velocity": 0.23622047244094488,
                    "duration": 0.1759529999999927
                },
                {
                    "name": "F5",
                    "midi": 77,
                    "time": 135.13190400000008,
                    "velocity": 0.23622047244094488,
                    "duration": 0.1759529999999927
                },
                {
                    "name": "A#5",
                    "midi": 82,
                    "time": 135.13190400000008,
                    "velocity": 0.28346456692913385,
                    "duration": 0.1759529999999927
                },
                {
                    "name": "D5",
                    "midi": 74,
                    "time": 135.30785700000007,
                    "velocity": 0.2283464566929134,
                    "duration": 0.1759529999999927
                },
                {
                    "name": "B5",
                    "midi": 83,
                    "time": 135.83571600000008,
                    "velocity": 0.29133858267716534,
                    "duration": 0.1759529999999927
                },
                {
                    "name": "F#5",
                    "midi": 78,
                    "time": 135.83571600000008,
                    "velocity": 0.2440944881889764,
                    "duration": 0.1759529999999927
                },
                {
                    "name": "D#5",
                    "midi": 75,
                    "time": 136.01166900000007,
                    "velocity": 0.2440944881889764,
                    "duration": 0.1759529999999927
                },
                {
                    "name": "G#5",
                    "midi": 80,
                    "time": 136.53952800000008,
                    "velocity": 0.25984251968503935,
                    "duration": 0.1759529999999927
                },
                {
                    "name": "C#6",
                    "midi": 85,
                    "time": 136.53952800000008,
                    "velocity": 0.30708661417322836,
                    "duration": 0.1759529999999927
                },
                {
                    "name": "F5",
                    "midi": 77,
                    "time": 136.71548100000007,
                    "velocity": 0.2440944881889764,
                    "duration": 0.1759529999999927
                },
                {
                    "name": "B5",
                    "midi": 83,
                    "time": 137.24334000000007,
                    "velocity": 0.29133858267716534,
                    "duration": 0.1759529999999927
                },
                {
                    "name": "F#5",
                    "midi": 78,
                    "time": 137.24334000000007,
                    "velocity": 0.2440944881889764,
                    "duration": 0.1759529999999927
                },
                {
                    "name": "D#5",
                    "midi": 75,
                    "time": 137.41929300000007,
                    "velocity": 0.2440944881889764,
                    "duration": 0.1759529999999927
                },
                {
                    "name": "F5",
                    "midi": 77,
                    "time": 137.94715200000007,
                    "velocity": 0.23622047244094488,
                    "duration": 0.1759529999999927
                },
                {
                    "name": "A#5",
                    "midi": 82,
                    "time": 137.94715200000007,
                    "velocity": 0.28346456692913385,
                    "duration": 0.1759529999999927
                },
                {
                    "name": "D5",
                    "midi": 74,
                    "time": 138.12310500000007,
                    "velocity": 0.2283464566929134,
                    "duration": 0.1759529999999927
                },
                {
                    "name": "B5",
                    "midi": 83,
                    "time": 138.65096400000007,
                    "velocity": 0.29133858267716534,
                    "duration": 0.1759529999999927
                },
                {
                    "name": "F#5",
                    "midi": 78,
                    "time": 138.65096400000007,
                    "velocity": 0.2440944881889764,
                    "duration": 0.1759529999999927
                },
                {
                    "name": "D#5",
                    "midi": 75,
                    "time": 138.82691700000007,
                    "velocity": 0.2440944881889764,
                    "duration": 0.1759529999999927
                },
                {
                    "name": "G#5",
                    "midi": 80,
                    "time": 139.35477600000007,
                    "velocity": 0.25984251968503935,
                    "duration": 0.1759529999999927
                },
                {
                    "name": "C#6",
                    "midi": 85,
                    "time": 139.35477600000007,
                    "velocity": 0.30708661417322836,
                    "duration": 0.1759529999999927
                },
                {
                    "name": "F5",
                    "midi": 77,
                    "time": 139.53072900000006,
                    "velocity": 0.2440944881889764,
                    "duration": 0.1759529999999927
                },
                {
                    "name": "F#5",
                    "midi": 78,
                    "time": 140.05858800000007,
                    "velocity": 0.2440944881889764,
                    "duration": 0.1759529999999927
                },
                {
                    "name": "B5",
                    "midi": 83,
                    "time": 140.05858800000007,
                    "velocity": 0.29133858267716534,
                    "duration": 0.1759529999999927
                },
                {
                    "name": "D#5",
                    "midi": 75,
                    "time": 140.23454100000006,
                    "velocity": 0.2440944881889764,
                    "duration": 0.1759529999999927
                },
                {
                    "name": "A#5",
                    "midi": 82,
                    "time": 140.76240000000007,
                    "velocity": 0.28346456692913385,
                    "duration": 0.1759529999999927
                },
                {
                    "name": "F5",
                    "midi": 77,
                    "time": 140.76240000000007,
                    "velocity": 0.23622047244094488,
                    "duration": 0.1759529999999927
                },
                {
                    "name": "D5",
                    "midi": 74,
                    "time": 140.93835300000006,
                    "velocity": 0.2283464566929134,
                    "duration": 0.1759529999999927
                },
                {
                    "name": "F#5",
                    "midi": 78,
                    "time": 141.46621200000007,
                    "velocity": 0.2440944881889764,
                    "duration": 0.1759529999999927
                },
                {
                    "name": "B5",
                    "midi": 83,
                    "time": 141.46621200000007,
                    "velocity": 0.29133858267716534,
                    "duration": 0.1759529999999927
                },
                {
                    "name": "D#5",
                    "midi": 75,
                    "time": 141.64216500000006,
                    "velocity": 0.2440944881889764,
                    "duration": 0.1759529999999927
                },
                {
                    "name": "C#6",
                    "midi": 85,
                    "time": 142.17002400000007,
                    "velocity": 0.30708661417322836,
                    "duration": 0.1759529999999927
                },
                {
                    "name": "G#5",
                    "midi": 80,
                    "time": 142.17002400000007,
                    "velocity": 0.25984251968503935,
                    "duration": 0.1759529999999927
                },
                {
                    "name": "F5",
                    "midi": 77,
                    "time": 142.34597700000006,
                    "velocity": 0.2440944881889764,
                    "duration": 0.1759529999999927
                },
                {
                    "name": "G#5",
                    "midi": 80,
                    "time": 142.87383600000007,
                    "velocity": 0.25984251968503935,
                    "duration": 0.1759529999999927
                },
                {
                    "name": "C#6",
                    "midi": 85,
                    "time": 142.87383600000007,
                    "velocity": 0.30708661417322836,
                    "duration": 0.1759529999999927
                },
                {
                    "name": "F5",
                    "midi": 77,
                    "time": 143.04978900000006,
                    "velocity": 0.2440944881889764,
                    "duration": 0.1759529999999927
                },
                {
                    "name": "C#6",
                    "midi": 85,
                    "time": 143.57764800000007,
                    "velocity": 0.31496062992125984,
                    "duration": 0.1759529999999927
                },
                {
                    "name": "G#5",
                    "midi": 80,
                    "time": 143.57764800000007,
                    "velocity": 0.2677165354330709,
                    "duration": 0.1759529999999927
                },
                {
                    "name": "F5",
                    "midi": 77,
                    "time": 143.75360100000006,
                    "velocity": 0.25196850393700787,
                    "duration": 0.1759529999999927
                },
                {
                    "name": "G#5",
                    "midi": 80,
                    "time": 144.28146000000007,
                    "velocity": 0.2677165354330709,
                    "duration": 0.1759529999999927
                },
                {
                    "name": "C#6",
                    "midi": 85,
                    "time": 144.28146000000007,
                    "velocity": 0.31496062992125984,
                    "duration": 0.1759529999999927
                },
                {
                    "name": "F5",
                    "midi": 77,
                    "time": 144.45741300000006,
                    "velocity": 0.25196850393700787,
                    "duration": 0.1759529999999927
                },
                {
                    "name": "C#6",
                    "midi": 85,
                    "time": 144.98527200000007,
                    "velocity": 0.28346456692913385,
                    "duration": 0.1759529999999927
                },
                {
                    "name": "A5",
                    "midi": 81,
                    "time": 144.98527200000007,
                    "velocity": 0.23622047244094488,
                    "duration": 0.1759529999999927
                },
                {
                    "name": "F5",
                    "midi": 77,
                    "time": 145.16122500000006,
                    "velocity": 0.2204724409448819,
                    "duration": 0.1759529999999927
                },
                {
                    "name": "A5",
                    "midi": 81,
                    "time": 145.68908400000007,
                    "velocity": 0.23622047244094488,
                    "duration": 0.1759529999999927
                },
                {
                    "name": "C#6",
                    "midi": 85,
                    "time": 145.68908400000007,
                    "velocity": 0.28346456692913385,
                    "duration": 0.1759529999999927
                },
                {
                    "name": "F5",
                    "midi": 77,
                    "time": 145.86503700000006,
                    "velocity": 0.2204724409448819,
                    "duration": 0.1759529999999927
                },
                {
                    "name": "C#6",
                    "midi": 85,
                    "time": 146.39289600000006,
                    "velocity": 0.2677165354330709,
                    "duration": 0.1759529999999927
                },
                {
                    "name": "A5",
                    "midi": 81,
                    "time": 146.39289600000006,
                    "velocity": 0.2204724409448819,
                    "duration": 0.1759529999999927
                },
                {
                    "name": "F5",
                    "midi": 77,
                    "time": 146.56884900000006,
                    "velocity": 0.2047244094488189,
                    "duration": 0.1759529999999927
                },
                {
                    "name": "A5",
                    "midi": 81,
                    "time": 147.09670800000006,
                    "velocity": 0.2125984251968504,
                    "duration": 0.1759529999999927
                },
                {
                    "name": "C#6",
                    "midi": 85,
                    "time": 147.09670800000006,
                    "velocity": 0.25196850393700787,
                    "duration": 0.1759529999999927
                },
                {
                    "name": "F5",
                    "midi": 77,
                    "time": 147.27266100000006,
                    "velocity": 0.1968503937007874,
                    "duration": 0.1759529999999927
                },
                {
                    "name": "C#6",
                    "midi": 85,
                    "time": 147.80052000000006,
                    "velocity": 0.2440944881889764,
                    "duration": 0.1759529999999927
                },
                {
                    "name": "A5",
                    "midi": 81,
                    "time": 147.97647300000006,
                    "velocity": 0.2283464566929134,
                    "duration": 0.1759529999999927
                },
                {
                    "name": "E5",
                    "midi": 76,
                    "time": 148.15242600000005,
                    "velocity": 0.2283464566929134,
                    "duration": 0.1759529999999927
                },
                {
                    "name": "C#5",
                    "midi": 73,
                    "time": 148.32837900000004,
                    "velocity": 0.2440944881889764,
                    "duration": 0.1759529999999927
                },
                {
                    "name": "C#6",
                    "midi": 85,
                    "time": 148.50433200000003,
                    "velocity": 0.2440944881889764,
                    "duration": 0.1759529999999927
                },
                {
                    "name": "A5",
                    "midi": 81,
                    "time": 148.68028500000003,
                    "velocity": 0.2283464566929134,
                    "duration": 0.1759529999999927
                },
                {
                    "name": "E5",
                    "midi": 76,
                    "time": 148.85623800000002,
                    "velocity": 0.2283464566929134,
                    "duration": 0.1759529999999927
                },
                {
                    "name": "C#5",
                    "midi": 73,
                    "time": 149.032191,
                    "velocity": 0.23622047244094488,
                    "duration": 0.1759529999999927
                },
                {
                    "name": "C#6",
                    "midi": 85,
                    "time": 149.208144,
                    "velocity": 0.2440944881889764,
                    "duration": 0.1759529999999927
                },
                {
                    "name": "A5",
                    "midi": 81,
                    "time": 149.384097,
                    "velocity": 0.2283464566929134,
                    "duration": 0.1759529999999927
                },
                {
                    "name": "F#5",
                    "midi": 78,
                    "time": 149.56005,
                    "velocity": 0.2283464566929134,
                    "duration": 0.1759529999999927
                },
                {
                    "name": "C#5",
                    "midi": 73,
                    "time": 149.73600299999998,
                    "velocity": 0.2283464566929134,
                    "duration": 0.1759529999999927
                },
                {
                    "name": "C#6",
                    "midi": 85,
                    "time": 149.91195599999998,
                    "velocity": 0.2440944881889764,
                    "duration": 0.1759529999999927
                },
                {
                    "name": "A5",
                    "midi": 81,
                    "time": 150.08790899999997,
                    "velocity": 0.2283464566929134,
                    "duration": 0.1759529999999927
                },
                {
                    "name": "F#5",
                    "midi": 78,
                    "time": 150.26386199999996,
                    "velocity": 0.2283464566929134,
                    "duration": 0.1759529999999927
                },
                {
                    "name": "C#5",
                    "midi": 73,
                    "time": 150.43981499999995,
                    "velocity": 0.2283464566929134,
                    "duration": 0.1759529999999927
                },
                {
                    "name": "C#6",
                    "midi": 85,
                    "time": 150.61576799999995,
                    "velocity": 0.2440944881889764,
                    "duration": 0.1759529999999927
                },
                {
                    "name": "A5",
                    "midi": 81,
                    "time": 150.79172099999994,
                    "velocity": 0.2283464566929134,
                    "duration": 0.1759529999999927
                },
                {
                    "name": "F#5",
                    "midi": 78,
                    "time": 150.96767399999993,
                    "velocity": 0.2283464566929134,
                    "duration": 0.1759529999999927
                },
                {
                    "name": "C#5",
                    "midi": 73,
                    "time": 151.14362699999992,
                    "velocity": 0.2283464566929134,
                    "duration": 0.1759529999999927
                },
                {
                    "name": "C#6",
                    "midi": 85,
                    "time": 151.31957999999992,
                    "velocity": 0.2440944881889764,
                    "duration": 0.1759529999999927
                },
                {
                    "name": "A5",
                    "midi": 81,
                    "time": 151.4955329999999,
                    "velocity": 0.2283464566929134,
                    "duration": 0.1759529999999927
                },
                {
                    "name": "F#5",
                    "midi": 78,
                    "time": 151.6714859999999,
                    "velocity": 0.2283464566929134,
                    "duration": 0.1759529999999927
                },
                {
                    "name": "C#5",
                    "midi": 73,
                    "time": 151.8474389999999,
                    "velocity": 0.2283464566929134,
                    "duration": 0.1759529999999927
                },
                {
                    "name": "C#6",
                    "midi": 85,
                    "time": 152.0233919999999,
                    "velocity": 0.25196850393700787,
                    "duration": 0.1759529999999927
                },
                {
                    "name": "B5",
                    "midi": 83,
                    "time": 152.19934499999988,
                    "velocity": 0.23622047244094488,
                    "duration": 0.1759529999999927
                },
                {
                    "name": "F#5",
                    "midi": 78,
                    "time": 152.37529799999987,
                    "velocity": 0.23622047244094488,
                    "duration": 0.1759529999999927
                },
                {
                    "name": "C#5",
                    "midi": 73,
                    "time": 152.55125099999987,
                    "velocity": 0.23622047244094488,
                    "duration": 0.1759529999999927
                },
                {
                    "name": "C#6",
                    "midi": 85,
                    "time": 152.72720399999986,
                    "velocity": 0.25196850393700787,
                    "duration": 0.1759529999999927
                },
                {
                    "name": "B5",
                    "midi": 83,
                    "time": 152.90315699999985,
                    "velocity": 0.23622047244094488,
                    "duration": 0.1759529999999927
                },
                {
                    "name": "F5",
                    "midi": 77,
                    "time": 153.07910999999984,
                    "velocity": 0.23622047244094488,
                    "duration": 0.1759529999999927
                },
                {
                    "name": "C#5",
                    "midi": 73,
                    "time": 153.25506299999984,
                    "velocity": 0.23622047244094488,
                    "duration": 0.1759529999999927
                },
                {
                    "name": "F#4",
                    "midi": 66,
                    "time": 153.60696899999982,
                    "velocity": 0.29133858267716534,
                    "duration": 0.13196475000000873
                },
                {
                    "name": "G#4",
                    "midi": 68,
                    "time": 153.78292199999984,
                    "velocity": 0.2992125984251969,
                    "duration": 0.13196475000000873
                },
                {
                    "name": "A4",
                    "midi": 69,
                    "time": 153.95887499999986,
                    "velocity": 0.31496062992125984,
                    "duration": 0.13196475000000873
                },
                {
                    "name": "F#4",
                    "midi": 66,
                    "time": 154.13482799999989,
                    "velocity": 0.3543307086614173,
                    "duration": 0.3519060000000138
                },
                {
                    "name": "B4",
                    "midi": 71,
                    "time": 154.13482799999989,
                    "velocity": 0.3700787401574803,
                    "duration": 0.8651022500000352
                },
                {
                    "name": "F4",
                    "midi": 65,
                    "time": 154.4867339999999,
                    "velocity": 0.3543307086614173,
                    "duration": 0.3519060000000138
                },
                {
                    "name": "C#4",
                    "midi": 61,
                    "time": 154.8386399999999,
                    "velocity": 0.3543307086614173,
                    "duration": 0.3519060000000138
                },
                {
                    "name": "A4",
                    "midi": 69,
                    "time": 155.01459299999993,
                    "velocity": 0.36220472440944884,
                    "duration": 0.1759529999999927
                },
                {
                    "name": "B4",
                    "midi": 71,
                    "time": 155.19054599999993,
                    "velocity": 0.3700787401574803,
                    "duration": 0.1759529999999927
                },
                {
                    "name": "C#5",
                    "midi": 73,
                    "time": 155.36649899999992,
                    "velocity": 0.3700787401574803,
                    "duration": 0.1759529999999927
                },
                {
                    "name": "D5",
                    "midi": 74,
                    "time": 155.5424519999999,
                    "velocity": 0.4094488188976378,
                    "duration": 0.8651022500000352
                },
                {
                    "name": "A4",
                    "midi": 69,
                    "time": 155.5424519999999,
                    "velocity": 0.4094488188976378,
                    "duration": 0.3519060000000138
                },
                {
                    "name": "G#4",
                    "midi": 68,
                    "time": 155.89435799999993,
                    "velocity": 0.3700787401574803,
                    "duration": 0.3519060000000138
                },
                {
                    "name": "E4",
                    "midi": 64,
                    "time": 156.24626399999994,
                    "velocity": 0.3779527559055118,
                    "duration": 0.3519060000000138
                },
                {
                    "name": "C#5",
                    "midi": 73,
                    "time": 156.42221699999996,
                    "velocity": 0.41732283464566927,
                    "duration": 0.1759529999999927
                },
                {
                    "name": "D5",
                    "midi": 74,
                    "time": 156.59816999999995,
                    "velocity": 0.44881889763779526,
                    "duration": 0.1759529999999927
                },
                {
                    "name": "E5",
                    "midi": 76,
                    "time": 156.77412299999995,
                    "velocity": 0.49606299212598426,
                    "duration": 0.1759529999999927
                },
                {
                    "name": "D5",
                    "midi": 74,
                    "time": 156.95007599999994,
                    "velocity": 0.5039370078740157,
                    "duration": 1.4076239999999984
                },
                {
                    "name": "F#5",
                    "midi": 78,
                    "time": 156.95007599999994,
                    "velocity": 0.5039370078740157,
                    "duration": 1.4076239999999984
                },
                {
                    "name": "F#4",
                    "midi": 66,
                    "time": 158.35769999999994,
                    "velocity": 0.4409448818897638,
                    "duration": 0.9677414999999883
                },
                {
                    "name": "C#5",
                    "midi": 73,
                    "time": 159.41341799999992,
                    "velocity": 0.41732283464566927,
                    "duration": 0.08797649999999635
                },
                {
                    "name": "B4",
                    "midi": 71,
                    "time": 159.7653239999999,
                    "velocity": 0.4409448818897638,
                    "duration": 1.055718000000013
                },
                {
                    "name": "A4",
                    "midi": 69,
                    "time": 160.82104199999992,
                    "velocity": 0.4251968503937008,
                    "duration": 0.13196475000000873
                },
                {
                    "name": "G#4",
                    "midi": 68,
                    "time": 160.99699499999994,
                    "velocity": 0.4251968503937008,
                    "duration": 0.13196475000000873
                },
                {
                    "name": "F#4",
                    "midi": 66,
                    "time": 161.17294799999996,
                    "velocity": 0.4409448818897638,
                    "duration": 0.29325499999998783
                },
                {
                    "name": "E4",
                    "midi": 64,
                    "time": 161.52485399999995,
                    "velocity": 0.4251968503937008,
                    "duration": 0.13196475000000873
                },
                {
                    "name": "D4",
                    "midi": 62,
                    "time": 161.70080699999997,
                    "velocity": 0.41732283464566927,
                    "duration": 0.13196475000000873
                },
                {
                    "name": "C#4",
                    "midi": 61,
                    "time": 161.87676,
                    "velocity": 0.4409448818897638,
                    "duration": 0.3519060000000138
                },
                {
                    "name": "D4",
                    "midi": 62,
                    "time": 162.228666,
                    "velocity": 0.4330708661417323,
                    "duration": 0.1759529999999927
                },
                {
                    "name": "E4",
                    "midi": 64,
                    "time": 162.404619,
                    "velocity": 0.4409448818897638,
                    "duration": 0.1759529999999927
                },
                {
                    "name": "F#4",
                    "midi": 66,
                    "time": 162.580572,
                    "velocity": 0.4881889763779528,
                    "duration": 0.3519060000000138
                },
                {
                    "name": "A4",
                    "midi": 69,
                    "time": 162.932478,
                    "velocity": 0.49606299212598426,
                    "duration": 0.3519060000000138
                },
                {
                    "name": "F#4",
                    "midi": 66,
                    "time": 163.28438400000002,
                    "velocity": 0.5354330708661418,
                    "duration": 2.1114359999999976
                },
                {
                    "name": "G#4",
                    "midi": 68,
                    "time": 163.28438400000002,
                    "velocity": 0.5354330708661418,
                    "duration": 2.1114359999999976
                },
                {
                    "name": "A4",
                    "midi": 69,
                    "time": 165.39582000000001,
                    "velocity": 0.48031496062992124,
                    "duration": 0.3519060000000138
                },
                {
                    "name": "F#4",
                    "midi": 66,
                    "time": 165.39582000000001,
                    "velocity": 0.48031496062992124,
                    "duration": 0.3519060000000138
                },
                {
                    "name": "E5",
                    "midi": 76,
                    "time": 165.74772600000003,
                    "velocity": 0.47244094488188976,
                    "duration": 0.08797649999999635
                },
                {
                    "name": "G#5",
                    "midi": 80,
                    "time": 165.74772600000003,
                    "velocity": 0.47244094488188976,
                    "duration": 0.08797649999999635
                },
                {
                    "name": "F#4",
                    "midi": 66,
                    "time": 166.099632,
                    "velocity": 0.4645669291338583,
                    "duration": 0.3519060000000138
                },
                {
                    "name": "G#4",
                    "midi": 68,
                    "time": 166.099632,
                    "velocity": 0.4645669291338583,
                    "duration": 0.3519060000000138
                },
                {
                    "name": "F#4",
                    "midi": 66,
                    "time": 166.80344400000004,
                    "velocity": 0.41732283464566927,
                    "duration": 0.3519060000000138
                },
                {
                    "name": "D4",
                    "midi": 62,
                    "time": 166.80344400000004,
                    "velocity": 0.41732283464566927,
                    "duration": 0.3519060000000138
                },
                {
                    "name": "E5",
                    "midi": 76,
                    "time": 167.15535000000006,
                    "velocity": 0.44881889763779526,
                    "duration": 0.08797649999999635
                },
                {
                    "name": "C#5",
                    "midi": 73,
                    "time": 167.15535000000006,
                    "velocity": 0.44881889763779526,
                    "duration": 0.08797649999999635
                },
                {
                    "name": "C#4",
                    "midi": 61,
                    "time": 167.50725600000004,
                    "velocity": 0.4330708661417323,
                    "duration": 0.3519060000000138
                },
                {
                    "name": "E4",
                    "midi": 64,
                    "time": 167.50725600000004,
                    "velocity": 0.4330708661417323,
                    "duration": 0.3519060000000138
                },
                {
                    "name": "B3",
                    "midi": 59,
                    "time": 168.21106800000007,
                    "velocity": 0.5196850393700787,
                    "duration": 0.3519060000000138
                },
                {
                    "name": "D#4",
                    "midi": 63,
                    "time": 168.21106800000007,
                    "velocity": 0.5196850393700787,
                    "duration": 0.3519060000000138
                },
                {
                    "name": "A4",
                    "midi": 69,
                    "time": 168.56297400000008,
                    "velocity": 0.5433070866141733,
                    "duration": 0.10997062499998833
                },
                {
                    "name": "C#5",
                    "midi": 73,
                    "time": 168.56297400000008,
                    "velocity": 0.5433070866141733,
                    "duration": 0.10997062499998833
                },
                {
                    "name": "C#4",
                    "midi": 61,
                    "time": 168.91488000000007,
                    "velocity": 0.5433070866141733,
                    "duration": 2.0967732500000125
                },
                {
                    "name": "G#3",
                    "midi": 56,
                    "time": 168.91488000000007,
                    "velocity": 0.5433070866141733,
                    "duration": 2.0967732500000125
                },
                {
                    "name": "B3",
                    "midi": 59,
                    "time": 171.0263160000001,
                    "velocity": 0.3700787401574803,
                    "duration": 0.3519060000000138
                },
                {
                    "name": "G3",
                    "midi": 55,
                    "time": 171.0263160000001,
                    "velocity": 0.3700787401574803,
                    "duration": 0.3519060000000138
                },
                {
                    "name": "G4",
                    "midi": 67,
                    "time": 171.3782220000001,
                    "velocity": 0.4015748031496063,
                    "duration": 0.10997062499998833
                },
                {
                    "name": "B4",
                    "midi": 71,
                    "time": 171.3782220000001,
                    "velocity": 0.4015748031496063,
                    "duration": 0.10997062499998833
                },
                {
                    "name": "C#4",
                    "midi": 61,
                    "time": 171.7301280000001,
                    "velocity": 0.3937007874015748,
                    "duration": 2.0967732500000125
                },
                {
                    "name": "G#3",
                    "midi": 56,
                    "time": 171.7301280000001,
                    "velocity": 0.3937007874015748,
                    "duration": 2.0967732500000125
                },
                {
                    "name": "B3",
                    "midi": 59,
                    "time": 173.84156400000012,
                    "velocity": 0.2992125984251969,
                    "duration": 0.3519060000000138
                },
                {
                    "name": "G3",
                    "midi": 55,
                    "time": 173.84156400000012,
                    "velocity": 0.2992125984251969,
                    "duration": 0.3519060000000138
                },
                {
                    "name": "G4",
                    "midi": 67,
                    "time": 174.19347000000013,
                    "velocity": 0.30708661417322836,
                    "duration": 0.26392949999998905
                },
                {
                    "name": "B4",
                    "midi": 71,
                    "time": 174.19347000000013,
                    "velocity": 0.30708661417322836,
                    "duration": 0.26392949999998905
                },
                {
                    "name": "F#3",
                    "midi": 54,
                    "time": 174.54537600000012,
                    "velocity": 0.30708661417322836,
                    "duration": 0.1759529999999927
                },
                {
                    "name": "A3",
                    "midi": 57,
                    "time": 174.54537600000012,
                    "velocity": 0.30708661417322836,
                    "duration": 0.1759529999999927
                },
                {
                    "name": "F#3",
                    "midi": 54,
                    "time": 174.7799800000001,
                    "velocity": 0.2992125984251969,
                    "duration": 0.1759529999999927
                },
                {
                    "name": "F#3",
                    "midi": 54,
                    "time": 175.0145840000001,
                    "velocity": 0.2992125984251969,
                    "duration": 0.1759529999999927
                },
                {
                    "name": "F#3",
                    "midi": 54,
                    "time": 175.2491880000001,
                    "velocity": 0.3228346456692913,
                    "duration": 0.3519060000000138
                },
                {
                    "name": "A3",
                    "midi": 57,
                    "time": 175.6010940000001,
                    "velocity": 0.2992125984251969,
                    "duration": 0.3519060000000138
                },
                {
                    "name": "F#3",
                    "midi": 54,
                    "time": 175.6010940000001,
                    "velocity": 0.2992125984251969,
                    "duration": 0.3519060000000138
                },
                {
                    "name": "F#3",
                    "midi": 54,
                    "time": 175.95300000000012,
                    "velocity": 0.30708661417322836,
                    "duration": 0.1759529999999927
                },
                {
                    "name": "B3",
                    "midi": 59,
                    "time": 175.95300000000012,
                    "velocity": 0.30708661417322836,
                    "duration": 0.1759529999999927
                },
                {
                    "name": "F#3",
                    "midi": 54,
                    "time": 176.1876040000001,
                    "velocity": 0.30708661417322836,
                    "duration": 0.1759529999999927
                },
                {
                    "name": "B3",
                    "midi": 59,
                    "time": 176.1876040000001,
                    "velocity": 0.30708661417322836,
                    "duration": 0.1759529999999927
                },
                {
                    "name": "F#3",
                    "midi": 54,
                    "time": 176.4222080000001,
                    "velocity": 0.30708661417322836,
                    "duration": 0.1759529999999927
                },
                {
                    "name": "B3",
                    "midi": 59,
                    "time": 176.4222080000001,
                    "velocity": 0.30708661417322836,
                    "duration": 0.1759529999999927
                },
                {
                    "name": "F#3",
                    "midi": 54,
                    "time": 176.6568120000001,
                    "velocity": 0.30708661417322836,
                    "duration": 0.1759529999999927
                },
                {
                    "name": "B3",
                    "midi": 59,
                    "time": 176.6568120000001,
                    "velocity": 0.30708661417322836,
                    "duration": 0.1759529999999927
                },
                {
                    "name": "F#3",
                    "midi": 54,
                    "time": 176.89141600000008,
                    "velocity": 0.2992125984251969,
                    "duration": 0.1759529999999927
                },
                {
                    "name": "C#4",
                    "midi": 61,
                    "time": 176.89141600000008,
                    "velocity": 0.2992125984251969,
                    "duration": 0.1759529999999927
                },
                {
                    "name": "F#3",
                    "midi": 54,
                    "time": 177.12602000000007,
                    "velocity": 0.2992125984251969,
                    "duration": 0.1759529999999927
                },
                {
                    "name": "B3",
                    "midi": 59,
                    "time": 177.12602000000007,
                    "velocity": 0.2992125984251969,
                    "duration": 0.1759529999999927
                },
                {
                    "name": "F#3",
                    "midi": 54,
                    "time": 177.36062400000006,
                    "velocity": 0.30708661417322836,
                    "duration": 0.1759529999999927
                },
                {
                    "name": "A3",
                    "midi": 57,
                    "time": 177.36062400000006,
                    "velocity": 0.30708661417322836,
                    "duration": 0.1759529999999927
                },
                {
                    "name": "F#3",
                    "midi": 54,
                    "time": 177.59522800000005,
                    "velocity": 0.2992125984251969,
                    "duration": 0.1759529999999927
                },
                {
                    "name": "F#3",
                    "midi": 54,
                    "time": 177.82983200000004,
                    "velocity": 0.2992125984251969,
                    "duration": 0.1759529999999927
                },
                {
                    "name": "F#3",
                    "midi": 54,
                    "time": 178.06443600000003,
                    "velocity": 0.30708661417322836,
                    "duration": 0.3519060000000138
                },
                {
                    "name": "A3",
                    "midi": 57,
                    "time": 178.41634200000004,
                    "velocity": 0.30708661417322836,
                    "duration": 0.3519060000000138
                },
                {
                    "name": "F#3",
                    "midi": 54,
                    "time": 178.41634200000004,
                    "velocity": 0.30708661417322836,
                    "duration": 0.3519060000000138
                },
                {
                    "name": "G#3",
                    "midi": 56,
                    "time": 178.76824800000006,
                    "velocity": 0.30708661417322836,
                    "duration": 1.4076239999999984
                },
                {
                    "name": "F#3",
                    "midi": 54,
                    "time": 178.76824800000006,
                    "velocity": 0.30708661417322836,
                    "duration": 1.4076239999999984
                },
                {
                    "name": "D4",
                    "midi": 62,
                    "time": 179.82396600000007,
                    "velocity": 0.2755905511811024,
                    "duration": 0.1759529999999927
                },
                {
                    "name": "F#4",
                    "midi": 66,
                    "time": 179.99991900000006,
                    "velocity": 0.2755905511811024,
                    "duration": 0.1759529999999927
                },
                {
                    "name": "F#4",
                    "midi": 66,
                    "time": 180.17587200000006,
                    "velocity": 0.28346456692913385,
                    "duration": 0.1759529999999927
                },
                {
                    "name": "D4",
                    "midi": 62,
                    "time": 180.17587200000006,
                    "velocity": 0.28346456692913385,
                    "duration": 0.1759529999999927
                },
                {
                    "name": "A4",
                    "midi": 69,
                    "time": 180.17587200000006,
                    "velocity": 0.28346456692913385,
                    "duration": 0.1759529999999927
                },
                {
                    "name": "D4",
                    "midi": 62,
                    "time": 180.41047600000005,
                    "velocity": 0.2755905511811024,
                    "duration": 0.1759529999999927
                },
                {
                    "name": "F#4",
                    "midi": 66,
                    "time": 180.41047600000005,
                    "velocity": 0.2755905511811024,
                    "duration": 0.1759529999999927
                },
                {
                    "name": "D4",
                    "midi": 62,
                    "time": 180.64508000000004,
                    "velocity": 0.2755905511811024,
                    "duration": 0.1759529999999927
                },
                {
                    "name": "F#4",
                    "midi": 66,
                    "time": 180.64508000000004,
                    "velocity": 0.2755905511811024,
                    "duration": 0.1759529999999927
                },
                {
                    "name": "D4",
                    "midi": 62,
                    "time": 180.87968400000003,
                    "velocity": 0.2992125984251969,
                    "duration": 0.3519060000000138
                },
                {
                    "name": "F#4",
                    "midi": 66,
                    "time": 180.87968400000003,
                    "velocity": 0.2992125984251969,
                    "duration": 0.3519060000000138
                },
                {
                    "name": "F#4",
                    "midi": 66,
                    "time": 181.23159000000004,
                    "velocity": 0.2755905511811024,
                    "duration": 0.3519060000000138
                },
                {
                    "name": "D4",
                    "midi": 62,
                    "time": 181.23159000000004,
                    "velocity": 0.2755905511811024,
                    "duration": 0.3519060000000138
                },
                {
                    "name": "A4",
                    "midi": 69,
                    "time": 181.23159000000004,
                    "velocity": 0.2755905511811024,
                    "duration": 0.3519060000000138
                },
                {
                    "name": "B4",
                    "midi": 71,
                    "time": 181.58349600000005,
                    "velocity": 0.28346456692913385,
                    "duration": 0.1759529999999927
                },
                {
                    "name": "D4",
                    "midi": 62,
                    "time": 181.58349600000005,
                    "velocity": 0.28346456692913385,
                    "duration": 0.1759529999999927
                },
                {
                    "name": "F#4",
                    "midi": 66,
                    "time": 181.58349600000005,
                    "velocity": 0.28346456692913385,
                    "duration": 0.1759529999999927
                },
                {
                    "name": "F#4",
                    "midi": 66,
                    "time": 181.81810000000004,
                    "velocity": 0.28346456692913385,
                    "duration": 0.1759529999999927
                },
                {
                    "name": "D4",
                    "midi": 62,
                    "time": 181.81810000000004,
                    "velocity": 0.28346456692913385,
                    "duration": 0.1759529999999927
                },
                {
                    "name": "B4",
                    "midi": 71,
                    "time": 181.81810000000004,
                    "velocity": 0.28346456692913385,
                    "duration": 0.1759529999999927
                },
                {
                    "name": "D4",
                    "midi": 62,
                    "time": 182.05270400000003,
                    "velocity": 0.28346456692913385,
                    "duration": 0.1759529999999927
                },
                {
                    "name": "B4",
                    "midi": 71,
                    "time": 182.05270400000003,
                    "velocity": 0.28346456692913385,
                    "duration": 0.1759529999999927
                },
                {
                    "name": "F#4",
                    "midi": 66,
                    "time": 182.05270400000003,
                    "velocity": 0.28346456692913385,
                    "duration": 0.1759529999999927
                },
                {
                    "name": "F#4",
                    "midi": 66,
                    "time": 182.28730800000002,
                    "velocity": 0.28346456692913385,
                    "duration": 0.1759529999999927
                },
                {
                    "name": "D4",
                    "midi": 62,
                    "time": 182.28730800000002,
                    "velocity": 0.28346456692913385,
                    "duration": 0.1759529999999927
                },
                {
                    "name": "B4",
                    "midi": 71,
                    "time": 182.28730800000002,
                    "velocity": 0.28346456692913385,
                    "duration": 0.1759529999999927
                },
                {
                    "name": "C#5",
                    "midi": 73,
                    "time": 182.52191200000001,
                    "velocity": 0.2755905511811024,
                    "duration": 0.1759529999999927
                },
                {
                    "name": "E4",
                    "midi": 64,
                    "time": 182.52191200000001,
                    "velocity": 0.2755905511811024,
                    "duration": 0.1759529999999927
                },
                {
                    "name": "F#4",
                    "midi": 66,
                    "time": 182.52191200000001,
                    "velocity": 0.2755905511811024,
                    "duration": 0.1759529999999927
                },
                {
                    "name": "F#4",
                    "midi": 66,
                    "time": 182.756516,
                    "velocity": 0.2755905511811024,
                    "duration": 0.1759529999999927
                },
                {
                    "name": "D4",
                    "midi": 62,
                    "time": 182.756516,
                    "velocity": 0.2755905511811024,
                    "duration": 0.1759529999999927
                },
                {
                    "name": "B4",
                    "midi": 71,
                    "time": 182.756516,
                    "velocity": 0.2755905511811024,
                    "duration": 0.1759529999999927
                },
                {
                    "name": "D4",
                    "midi": 62,
                    "time": 182.99112,
                    "velocity": 0.28346456692913385,
                    "duration": 0.1759529999999927
                },
                {
                    "name": "A4",
                    "midi": 69,
                    "time": 182.99112,
                    "velocity": 0.28346456692913385,
                    "duration": 0.1759529999999927
                },
                {
                    "name": "F#4",
                    "midi": 66,
                    "time": 182.99112,
                    "velocity": 0.28346456692913385,
                    "duration": 0.1759529999999927
                },
                {
                    "name": "F#4",
                    "midi": 66,
                    "time": 183.22572399999999,
                    "velocity": 0.2755905511811024,
                    "duration": 0.1759529999999927
                },
                {
                    "name": "D4",
                    "midi": 62,
                    "time": 183.22572399999999,
                    "velocity": 0.28346456692913385,
                    "duration": 0.1759529999999927
                },
                {
                    "name": "F#4",
                    "midi": 66,
                    "time": 183.46032799999998,
                    "velocity": 0.2755905511811024,
                    "duration": 0.1759529999999927
                },
                {
                    "name": "D4",
                    "midi": 62,
                    "time": 183.46032799999998,
                    "velocity": 0.28346456692913385,
                    "duration": 0.1759529999999927
                },
                {
                    "name": "F#4",
                    "midi": 66,
                    "time": 183.69493199999997,
                    "velocity": 0.28346456692913385,
                    "duration": 0.3519060000000138
                },
                {
                    "name": "D4",
                    "midi": 62,
                    "time": 183.69493199999997,
                    "velocity": 0.28346456692913385,
                    "duration": 0.3519060000000138
                },
                {
                    "name": "A4",
                    "midi": 69,
                    "time": 184.04683799999998,
                    "velocity": 0.28346456692913385,
                    "duration": 0.3519060000000138
                },
                {
                    "name": "C#4",
                    "midi": 61,
                    "time": 184.04683799999998,
                    "velocity": 0.28346456692913385,
                    "duration": 0.3519060000000138
                },
                {
                    "name": "D4",
                    "midi": 62,
                    "time": 184.04683799999998,
                    "velocity": 0.28346456692913385,
                    "duration": 0.3519060000000138
                },
                {
                    "name": "F#4",
                    "midi": 66,
                    "time": 184.04683799999998,
                    "velocity": 0.28346456692913385,
                    "duration": 0.3519060000000138
                },
                {
                    "name": "B3",
                    "midi": 59,
                    "time": 184.398744,
                    "velocity": 0.30708661417322836,
                    "duration": 1.4076239999999984
                },
                {
                    "name": "F#4",
                    "midi": 66,
                    "time": 184.398744,
                    "velocity": 0.30708661417322836,
                    "duration": 1.4076239999999984
                },
                {
                    "name": "D4",
                    "midi": 62,
                    "time": 184.398744,
                    "velocity": 0.30708661417322836,
                    "duration": 1.4076239999999984
                },
                {
                    "name": "G#4",
                    "midi": 68,
                    "time": 184.398744,
                    "velocity": 0.30708661417322836,
                    "duration": 1.4076239999999984
                },
                {
                    "name": "F#4",
                    "midi": 66,
                    "time": 186.51018,
                    "velocity": 0.28346456692913385,
                    "duration": 0.1759529999999927
                },
                {
                    "name": "G#4",
                    "midi": 68,
                    "time": 186.68613299999998,
                    "velocity": 0.2755905511811024,
                    "duration": 0.1759529999999927
                },
                {
                    "name": "B4",
                    "midi": 71,
                    "time": 186.86208599999998,
                    "velocity": 0.2755905511811024,
                    "duration": 0.1759529999999927
                },
                {
                    "name": "D5",
                    "midi": 74,
                    "time": 187.03803899999997,
                    "velocity": 0.28346456692913385,
                    "duration": 0.1759529999999927
                },
                {
                    "name": "F#5",
                    "midi": 78,
                    "time": 187.21399199999996,
                    "velocity": 0.33858267716535434,
                    "duration": 0.1759529999999927
                },
                {
                    "name": "D5",
                    "midi": 74,
                    "time": 187.38994499999995,
                    "velocity": 0.30708661417322836,
                    "duration": 0.1759529999999927
                },
                {
                    "name": "B4",
                    "midi": 71,
                    "time": 187.56589799999995,
                    "velocity": 0.30708661417322836,
                    "duration": 0.1759529999999927
                },
                {
                    "name": "B4",
                    "midi": 71,
                    "time": 188.09375699999995,
                    "velocity": 0.28346456692913385,
                    "duration": 0.1759529999999927
                },
                {
                    "name": "D5",
                    "midi": 74,
                    "time": 188.26970999999995,
                    "velocity": 0.28346456692913385,
                    "duration": 0.1759529999999927
                },
                {
                    "name": "E5",
                    "midi": 76,
                    "time": 188.44566299999994,
                    "velocity": 0.28346456692913385,
                    "duration": 0.1759529999999927
                },
                {
                    "name": "F#5",
                    "midi": 78,
                    "time": 188.62161599999993,
                    "velocity": 0.33858267716535434,
                    "duration": 0.1759529999999927
                },
                {
                    "name": "D5",
                    "midi": 74,
                    "time": 188.79756899999992,
                    "velocity": 0.30708661417322836,
                    "duration": 0.1759529999999927
                },
                {
                    "name": "B4",
                    "midi": 71,
                    "time": 188.97352199999992,
                    "velocity": 0.30708661417322836,
                    "duration": 0.1759529999999927
                },
                {
                    "name": "B4",
                    "midi": 71,
                    "time": 189.50138099999992,
                    "velocity": 0.2755905511811024,
                    "duration": 0.1759529999999927
                },
                {
                    "name": "D5",
                    "midi": 74,
                    "time": 189.67733399999992,
                    "velocity": 0.2755905511811024,
                    "duration": 0.1759529999999927
                },
                {
                    "name": "E5",
                    "midi": 76,
                    "time": 189.8532869999999,
                    "velocity": 0.2755905511811024,
                    "duration": 0.1759529999999927
                },
                {
                    "name": "F#5",
                    "midi": 78,
                    "time": 190.0292399999999,
                    "velocity": 0.3228346456692913,
                    "duration": 0.1759529999999927
                },
                {
                    "name": "D5",
                    "midi": 74,
                    "time": 190.2051929999999,
                    "velocity": 0.29133858267716534,
                    "duration": 0.1759529999999927
                },
                {
                    "name": "B4",
                    "midi": 71,
                    "time": 190.3811459999999,
                    "velocity": 0.28346456692913385,
                    "duration": 0.1759529999999927
                },
                {
                    "name": "B4",
                    "midi": 71,
                    "time": 190.9090049999999,
                    "velocity": 0.25196850393700787,
                    "duration": 0.1759529999999927
                },
                {
                    "name": "D5",
                    "midi": 74,
                    "time": 191.0849579999999,
                    "velocity": 0.25196850393700787,
                    "duration": 0.1759529999999927
                },
                {
                    "name": "E5",
                    "midi": 76,
                    "time": 191.26091099999988,
                    "velocity": 0.2440944881889764,
                    "duration": 0.1759529999999927
                },
                {
                    "name": "F#5",
                    "midi": 78,
                    "time": 191.43686399999987,
                    "velocity": 0.29133858267716534,
                    "duration": 0.1759529999999927
                },
                {
                    "name": "D5",
                    "midi": 74,
                    "time": 191.61281699999986,
                    "velocity": 0.2677165354330709,
                    "duration": 0.1759529999999927
                },
                {
                    "name": "B4",
                    "midi": 71,
                    "time": 191.78876999999986,
                    "velocity": 0.25984251968503935,
                    "duration": 0.1759529999999927
                },
                {
                    "name": "B4",
                    "midi": 71,
                    "time": 192.31662899999986,
                    "velocity": 0.23622047244094488,
                    "duration": 0.1759529999999927
                },
                {
                    "name": "D5",
                    "midi": 74,
                    "time": 192.49258199999986,
                    "velocity": 0.2283464566929134,
                    "duration": 0.1759529999999927
                },
                {
                    "name": "E5",
                    "midi": 76,
                    "time": 192.66853499999985,
                    "velocity": 0.2204724409448819,
                    "duration": 0.1759529999999927
                },
                {
                    "name": "F#5",
                    "midi": 78,
                    "time": 192.84448799999984,
                    "velocity": 0.3700787401574803,
                    "duration": 0.3519060000000138
                },
                {
                    "name": "C#6",
                    "midi": 85,
                    "time": 193.19639399999986,
                    "velocity": 0.3700787401574803,
                    "duration": 0.3519060000000138
                },
                {
                    "name": "A5",
                    "midi": 81,
                    "time": 193.54829999999987,
                    "velocity": 0.28346456692913385,
                    "duration": 0.7038119999999992
                },
                {
                    "name": "C6",
                    "midi": 84,
                    "time": 193.54829999999987,
                    "velocity": 0.3858267716535433,
                    "duration": 0.7038119999999992
                },
                {
                    "name": "F#5",
                    "midi": 78,
                    "time": 193.54829999999987,
                    "velocity": 0.28346456692913385,
                    "duration": 0.7038119999999992
                },
                {
                    "name": "C#6",
                    "midi": 85,
                    "time": 194.25211199999987,
                    "velocity": 0.3700787401574803,
                    "duration": 0.3519060000000138
                },
                {
                    "name": "A5",
                    "midi": 81,
                    "time": 194.60401799999988,
                    "velocity": 0.28346456692913385,
                    "duration": 0.3519060000000138
                },
                {
                    "name": "E6",
                    "midi": 88,
                    "time": 194.60401799999988,
                    "velocity": 0.3700787401574803,
                    "duration": 0.3519060000000138
                },
                {
                    "name": "F#5",
                    "midi": 78,
                    "time": 194.60401799999988,
                    "velocity": 0.28346456692913385,
                    "duration": 0.3519060000000138
                },
                {
                    "name": "D#6",
                    "midi": 87,
                    "time": 194.9559239999999,
                    "velocity": 0.3858267716535433,
                    "duration": 0.23460399999999026
                },
                {
                    "name": "F#5",
                    "midi": 78,
                    "time": 195.1905279999999,
                    "velocity": 0.28346456692913385,
                    "duration": 0.23460399999999026
                },
                {
                    "name": "B5",
                    "midi": 83,
                    "time": 195.1905279999999,
                    "velocity": 0.3543307086614173,
                    "duration": 0.23460399999999026
                },
                {
                    "name": "A5",
                    "midi": 81,
                    "time": 195.42513199999988,
                    "velocity": 0.3464566929133858,
                    "duration": 0.23460399999999026
                },
                {
                    "name": "F#5",
                    "midi": 78,
                    "time": 195.65973599999987,
                    "velocity": 0.3700787401574803,
                    "duration": 0.3519060000000138
                },
                {
                    "name": "C#6",
                    "midi": 85,
                    "time": 196.01164199999988,
                    "velocity": 0.3700787401574803,
                    "duration": 0.3519060000000138
                },
                {
                    "name": "F#5",
                    "midi": 78,
                    "time": 196.3635479999999,
                    "velocity": 0.28346456692913385,
                    "duration": 0.7038119999999992
                },
                {
                    "name": "A5",
                    "midi": 81,
                    "time": 196.3635479999999,
                    "velocity": 0.28346456692913385,
                    "duration": 0.7038119999999992
                },
                {
                    "name": "C6",
                    "midi": 84,
                    "time": 196.3635479999999,
                    "velocity": 0.3858267716535433,
                    "duration": 0.7038119999999992
                },
                {
                    "name": "C#6",
                    "midi": 85,
                    "time": 197.0673599999999,
                    "velocity": 0.3700787401574803,
                    "duration": 0.3519060000000138
                },
                {
                    "name": "F#5",
                    "midi": 78,
                    "time": 197.4192659999999,
                    "velocity": 0.2440944881889764,
                    "duration": 0.3519060000000138
                },
                {
                    "name": "A5",
                    "midi": 81,
                    "time": 197.4192659999999,
                    "velocity": 0.2440944881889764,
                    "duration": 0.3519060000000138
                },
                {
                    "name": "E6",
                    "midi": 88,
                    "time": 197.4192659999999,
                    "velocity": 0.3700787401574803,
                    "duration": 0.3519060000000138
                },
                {
                    "name": "D#6",
                    "midi": 87,
                    "time": 197.77117199999992,
                    "velocity": 0.3858267716535433,
                    "duration": 0.23460399999999026
                },
                {
                    "name": "B5",
                    "midi": 83,
                    "time": 198.0057759999999,
                    "velocity": 0.3543307086614173,
                    "duration": 0.23460399999999026
                },
                {
                    "name": "F#5",
                    "midi": 78,
                    "time": 198.0057759999999,
                    "velocity": 0.28346456692913385,
                    "duration": 0.23460399999999026
                },
                {
                    "name": "A5",
                    "midi": 81,
                    "time": 198.2403799999999,
                    "velocity": 0.3464566929133858,
                    "duration": 0.23460399999999026
                },
                {
                    "name": "C#5",
                    "midi": 73,
                    "time": 198.4749839999999,
                    "velocity": 0.3543307086614173,
                    "duration": 0.3519060000000138
                },
                {
                    "name": "F#4",
                    "midi": 66,
                    "time": 198.8268899999999,
                    "velocity": 0.1732283464566929,
                    "duration": 0.3519060000000138
                },
                {
                    "name": "A4",
                    "midi": 69,
                    "time": 198.8268899999999,
                    "velocity": 0.1732283464566929,
                    "duration": 0.3519060000000138
                },
                {
                    "name": "E5",
                    "midi": 76,
                    "time": 198.8268899999999,
                    "velocity": 0.3543307086614173,
                    "duration": 0.3519060000000138
                },
                {
                    "name": "D#5",
                    "midi": 75,
                    "time": 199.17879599999992,
                    "velocity": 0.3779527559055118,
                    "duration": 0.23460399999999026
                },
                {
                    "name": "F#4",
                    "midi": 66,
                    "time": 199.4133999999999,
                    "velocity": 0.25984251968503935,
                    "duration": 0.23460399999999026
                },
                {
                    "name": "B4",
                    "midi": 71,
                    "time": 199.4133999999999,
                    "velocity": 0.3464566929133858,
                    "duration": 0.23460399999999026
                },
                {
                    "name": "A4",
                    "midi": 69,
                    "time": 199.6480039999999,
                    "velocity": 0.33070866141732286,
                    "duration": 0.23460399999999026
                },
                {
                    "name": "C#5",
                    "midi": 73,
                    "time": 199.8826079999999,
                    "velocity": 0.31496062992125984,
                    "duration": 1.40762399999997
                },
                {
                    "name": "D#4",
                    "midi": 63,
                    "time": 200.76237299999988,
                    "velocity": 0.25196850393700787,
                    "duration": 0.1759529999999927
                },
                {
                    "name": "F#4",
                    "midi": 66,
                    "time": 200.93832599999988,
                    "velocity": 0.25196850393700787,
                    "duration": 0.1759529999999927
                },
                {
                    "name": "A4",
                    "midi": 69,
                    "time": 201.11427899999987,
                    "velocity": 0.25196850393700787,
                    "duration": 0.1759529999999927
                },
                {
                    "name": "C#5",
                    "midi": 73,
                    "time": 201.29023199999986,
                    "velocity": 0.25984251968503935,
                    "duration": 0.1759529999999927
                },
                {
                    "name": "D#6",
                    "midi": 87,
                    "time": 202.16999699999985,
                    "velocity": 0.25196850393700787,
                    "duration": 0.1759529999999927
                },
                {
                    "name": "F#6",
                    "midi": 90,
                    "time": 202.34594999999985,
                    "velocity": 0.25196850393700787,
                    "duration": 0.1759529999999927
                },
                {
                    "name": "A6",
                    "midi": 93,
                    "time": 202.52190299999984,
                    "velocity": 0.2440944881889764,
                    "duration": 0.1759529999999927
                },
                {
                    "name": "B6",
                    "midi": 95,
                    "time": 202.69785599999983,
                    "velocity": 0.28346456692913385,
                    "duration": 1.40762399999997
                },
                {
                    "name": "C#7",
                    "midi": 97,
                    "time": 202.69785599999983,
                    "velocity": 0.28346456692913385,
                    "duration": 1.40762399999997
                },
                {
                    "name": "F4",
                    "midi": 65,
                    "time": 203.40166799999983,
                    "velocity": 0.25196850393700787,
                    "duration": 0.1759529999999927
                },
                {
                    "name": "G#4",
                    "midi": 68,
                    "time": 203.57762099999982,
                    "velocity": 0.25196850393700787,
                    "duration": 0.1759529999999927
                },
                {
                    "name": "B4",
                    "midi": 71,
                    "time": 203.75357399999982,
                    "velocity": 0.25196850393700787,
                    "duration": 0.1759529999999927
                },
                {
                    "name": "C#5",
                    "midi": 73,
                    "time": 203.9295269999998,
                    "velocity": 0.25196850393700787,
                    "duration": 0.1759529999999927
                },
                {
                    "name": "F6",
                    "midi": 89,
                    "time": 204.8092919999998,
                    "velocity": 0.2440944881889764,
                    "duration": 0.1759529999999927
                },
                {
                    "name": "G#6",
                    "midi": 92,
                    "time": 204.9852449999998,
                    "velocity": 0.23622047244094488,
                    "duration": 0.1759529999999927
                },
                {
                    "name": "B6",
                    "midi": 95,
                    "time": 205.16119799999979,
                    "velocity": 0.2283464566929134,
                    "duration": 0.1759529999999927
                },
                {
                    "name": "C#7",
                    "midi": 97,
                    "time": 205.33715099999978,
                    "velocity": 0.2204724409448819,
                    "duration": 0.1759529999999927
                },
                {
                    "name": "C#7",
                    "midi": 97,
                    "time": 205.51310399999977,
                    "velocity": 0.25196850393700787,
                    "duration": 0.1759529999999927
                },
                {
                    "name": "F#7",
                    "midi": 102,
                    "time": 205.51310399999977,
                    "velocity": 0.25196850393700787,
                    "duration": 0.1759529999999927
                },
                {
                    "name": "F#6",
                    "midi": 90,
                    "time": 205.68905699999976,
                    "velocity": 0.25196850393700787,
                    "duration": 0.1759529999999927
                },
                {
                    "name": "F#7",
                    "midi": 102,
                    "time": 205.86500999999976,
                    "velocity": 0.25196850393700787,
                    "duration": 0.1759529999999927
                },
                {
                    "name": "C#7",
                    "midi": 97,
                    "time": 205.86500999999976,
                    "velocity": 0.25196850393700787,
                    "duration": 0.1759529999999927
                },
                {
                    "name": "F#6",
                    "midi": 90,
                    "time": 206.04096299999975,
                    "velocity": 0.25196850393700787,
                    "duration": 0.1759529999999927
                },
                {
                    "name": "F#6",
                    "midi": 90,
                    "time": 206.21691599999974,
                    "velocity": 0.23622047244094488,
                    "duration": 0.1759529999999927
                },
                {
                    "name": "C#7",
                    "midi": 97,
                    "time": 206.21691599999974,
                    "velocity": 0.23622047244094488,
                    "duration": 0.1759529999999927
                },
                {
                    "name": "C#6",
                    "midi": 85,
                    "time": 206.39286899999973,
                    "velocity": 0.23622047244094488,
                    "duration": 0.1759529999999927
                },
                {
                    "name": "C#7",
                    "midi": 97,
                    "time": 206.56882199999973,
                    "velocity": 0.23622047244094488,
                    "duration": 0.1759529999999927
                },
                {
                    "name": "F#6",
                    "midi": 90,
                    "time": 206.56882199999973,
                    "velocity": 0.23622047244094488,
                    "duration": 0.1759529999999927
                },
                {
                    "name": "C#6",
                    "midi": 85,
                    "time": 206.74477499999972,
                    "velocity": 0.23622047244094488,
                    "duration": 0.1759529999999927
                },
                {
                    "name": "D#7",
                    "midi": 99,
                    "time": 206.9207279999997,
                    "velocity": 0.25196850393700787,
                    "duration": 0.1759529999999927
                },
                {
                    "name": "F#6",
                    "midi": 90,
                    "time": 206.9207279999997,
                    "velocity": 0.25196850393700787,
                    "duration": 0.1759529999999927
                },
                {
                    "name": "D#6",
                    "midi": 87,
                    "time": 207.0966809999997,
                    "velocity": 0.25196850393700787,
                    "duration": 0.1759529999999927
                },
                {
                    "name": "F#6",
                    "midi": 90,
                    "time": 207.2726339999997,
                    "velocity": 0.25196850393700787,
                    "duration": 0.1759529999999927
                },
                {
                    "name": "D#7",
                    "midi": 99,
                    "time": 207.2726339999997,
                    "velocity": 0.25196850393700787,
                    "duration": 0.1759529999999927
                },
                {
                    "name": "D#6",
                    "midi": 87,
                    "time": 207.4485869999997,
                    "velocity": 0.25196850393700787,
                    "duration": 0.1759529999999927
                },
                {
                    "name": "B6",
                    "midi": 95,
                    "time": 207.62453999999968,
                    "velocity": 0.23622047244094488,
                    "duration": 0.1759529999999927
                },
                {
                    "name": "F#6",
                    "midi": 90,
                    "time": 207.62453999999968,
                    "velocity": 0.23622047244094488,
                    "duration": 0.1759529999999927
                },
                {
                    "name": "B5",
                    "midi": 83,
                    "time": 207.80049299999968,
                    "velocity": 0.23622047244094488,
                    "duration": 0.1759529999999927
                },
                {
                    "name": "F#6",
                    "midi": 90,
                    "time": 207.97644599999967,
                    "velocity": 0.23622047244094488,
                    "duration": 0.1759529999999927
                },
                {
                    "name": "B6",
                    "midi": 95,
                    "time": 207.97644599999967,
                    "velocity": 0.23622047244094488,
                    "duration": 0.1759529999999927
                },
                {
                    "name": "B5",
                    "midi": 83,
                    "time": 208.15239899999966,
                    "velocity": 0.23622047244094488,
                    "duration": 0.1759529999999927
                },
                {
                    "name": "F#6",
                    "midi": 90,
                    "time": 208.32835199999965,
                    "velocity": 0.25196850393700787,
                    "duration": 0.1759529999999927
                },
                {
                    "name": "C#6",
                    "midi": 85,
                    "time": 208.32835199999965,
                    "velocity": 0.25196850393700787,
                    "duration": 0.1759529999999927
                },
                {
                    "name": "F#5",
                    "midi": 78,
                    "time": 208.50430499999965,
                    "velocity": 0.25196850393700787,
                    "duration": 0.1759529999999927
                },
                {
                    "name": "C#6",
                    "midi": 85,
                    "time": 208.68025799999964,
                    "velocity": 0.25196850393700787,
                    "duration": 0.1759529999999927
                },
                {
                    "name": "F#6",
                    "midi": 90,
                    "time": 208.68025799999964,
                    "velocity": 0.25196850393700787,
                    "duration": 0.1759529999999927
                },
                {
                    "name": "F#5",
                    "midi": 78,
                    "time": 208.85621099999963,
                    "velocity": 0.25196850393700787,
                    "duration": 0.1759529999999927
                },
                {
                    "name": "C#6",
                    "midi": 85,
                    "time": 209.03216399999963,
                    "velocity": 0.23622047244094488,
                    "duration": 0.1759529999999927
                },
                {
                    "name": "F#5",
                    "midi": 78,
                    "time": 209.03216399999963,
                    "velocity": 0.23622047244094488,
                    "duration": 0.1759529999999927
                },
                {
                    "name": "C#5",
                    "midi": 73,
                    "time": 209.20811699999962,
                    "velocity": 0.23622047244094488,
                    "duration": 0.1759529999999927
                },
                {
                    "name": "F#5",
                    "midi": 78,
                    "time": 209.3840699999996,
                    "velocity": 0.23622047244094488,
                    "duration": 0.1759529999999927
                },
                {
                    "name": "C#6",
                    "midi": 85,
                    "time": 209.3840699999996,
                    "velocity": 0.23622047244094488,
                    "duration": 0.1759529999999927
                },
                {
                    "name": "C#5",
                    "midi": 73,
                    "time": 209.5600229999996,
                    "velocity": 0.23622047244094488,
                    "duration": 0.1759529999999927
                },
                {
                    "name": "D#6",
                    "midi": 87,
                    "time": 209.7359759999996,
                    "velocity": 0.25196850393700787,
                    "duration": 0.1759529999999927
                },
                {
                    "name": "F#5",
                    "midi": 78,
                    "time": 209.7359759999996,
                    "velocity": 0.25196850393700787,
                    "duration": 0.1759529999999927
                },
                {
                    "name": "D#5",
                    "midi": 75,
                    "time": 209.9119289999996,
                    "velocity": 0.25196850393700787,
                    "duration": 0.1759529999999927
                },
                {
                    "name": "F#5",
                    "midi": 78,
                    "time": 210.08788199999958,
                    "velocity": 0.25196850393700787,
                    "duration": 0.1759529999999927
                },
                {
                    "name": "D#6",
                    "midi": 87,
                    "time": 210.08788199999958,
                    "velocity": 0.25196850393700787,
                    "duration": 0.1759529999999927
                },
                {
                    "name": "D#5",
                    "midi": 75,
                    "time": 210.26383499999957,
                    "velocity": 0.25196850393700787,
                    "duration": 0.1759529999999927
                },
                {
                    "name": "B5",
                    "midi": 83,
                    "time": 210.43978799999957,
                    "velocity": 0.2283464566929134,
                    "duration": 0.1759529999999927
                },
                {
                    "name": "F#5",
                    "midi": 78,
                    "time": 210.43978799999957,
                    "velocity": 0.2283464566929134,
                    "duration": 0.1759529999999927
                },
                {
                    "name": "B4",
                    "midi": 71,
                    "time": 210.61574099999956,
                    "velocity": 0.2283464566929134,
                    "duration": 0.1759529999999927
                },
                {
                    "name": "B5",
                    "midi": 83,
                    "time": 210.79169399999955,
                    "velocity": 0.2283464566929134,
                    "duration": 0.1759529999999927
                },
                {
                    "name": "F#5",
                    "midi": 78,
                    "time": 210.79169399999955,
                    "velocity": 0.2283464566929134,
                    "duration": 0.1759529999999927
                },
                {
                    "name": "B4",
                    "midi": 71,
                    "time": 210.96764699999954,
                    "velocity": 0.2283464566929134,
                    "duration": 0.1759529999999927
                },
                {
                    "name": "C#5",
                    "midi": 73,
                    "time": 211.14359999999954,
                    "velocity": 0.23622047244094488,
                    "duration": 0.1759529999999927
                },
                {
                    "name": "F#5",
                    "midi": 78,
                    "time": 211.14359999999954,
                    "velocity": 0.23622047244094488,
                    "duration": 0.1759529999999927
                },
                {
                    "name": "F#4",
                    "midi": 66,
                    "time": 211.31955299999953,
                    "velocity": 0.23622047244094488,
                    "duration": 0.1759529999999927
                },
                {
                    "name": "F#5",
                    "midi": 78,
                    "time": 211.49550599999952,
                    "velocity": 0.23622047244094488,
                    "duration": 0.1759529999999927
                },
                {
                    "name": "C#5",
                    "midi": 73,
                    "time": 211.49550599999952,
                    "velocity": 0.23622047244094488,
                    "duration": 0.1759529999999927
                },
                {
                    "name": "F#4",
                    "midi": 66,
                    "time": 211.67145899999952,
                    "velocity": 0.23622047244094488,
                    "duration": 0.1759529999999927
                },
                {
                    "name": "F#4",
                    "midi": 66,
                    "time": 211.8474119999995,
                    "velocity": 0.2204724409448819,
                    "duration": 0.1759529999999927
                },
                {
                    "name": "C#5",
                    "midi": 73,
                    "time": 211.8474119999995,
                    "velocity": 0.2204724409448819,
                    "duration": 0.1759529999999927
                },
                {
                    "name": "C#4",
                    "midi": 61,
                    "time": 212.0233649999995,
                    "velocity": 0.2204724409448819,
                    "duration": 0.1759529999999927
                },
                {
                    "name": "C#5",
                    "midi": 73,
                    "time": 212.1993179999995,
                    "velocity": 0.2204724409448819,
                    "duration": 0.1759529999999927
                },
                {
                    "name": "F#4",
                    "midi": 66,
                    "time": 212.1993179999995,
                    "velocity": 0.2204724409448819,
                    "duration": 0.1759529999999927
                },
                {
                    "name": "C#4",
                    "midi": 61,
                    "time": 212.3752709999995,
                    "velocity": 0.2204724409448819,
                    "duration": 0.1759529999999927
                },
                {
                    "name": "F#4",
                    "midi": 66,
                    "time": 212.55122399999948,
                    "velocity": 0.23622047244094488,
                    "duration": 1.4076239999999984
                },
                {
                    "name": "D#4",
                    "midi": 63,
                    "time": 212.55122399999948,
                    "velocity": 0.23622047244094488,
                    "duration": 1.4076239999999984
                },
                {
                    "name": "D#5",
                    "midi": 75,
                    "time": 212.55122399999948,
                    "velocity": 0.23622047244094488,
                    "duration": 1.4076239999999984
                },
                {
                    "name": "D#5",
                    "midi": 75,
                    "time": 214.13480099999947,
                    "velocity": 0.23622047244094488,
                    "duration": 0.1759529999999927
                },
                {
                    "name": "F#5",
                    "midi": 78,
                    "time": 214.31075399999946,
                    "velocity": 0.23622047244094488,
                    "duration": 0.1759529999999927
                },
                {
                    "name": "B5",
                    "midi": 83,
                    "time": 214.48670699999946,
                    "velocity": 0.23622047244094488,
                    "duration": 0.1759529999999927
                },
                {
                    "name": "D#6",
                    "midi": 87,
                    "time": 214.66265999999945,
                    "velocity": 0.2283464566929134,
                    "duration": 0.1759529999999927
                },
                {
                    "name": "F#6",
                    "midi": 90,
                    "time": 214.83861299999944,
                    "velocity": 0.2283464566929134,
                    "duration": 0.1759529999999927
                },
                {
                    "name": "B6",
                    "midi": 95,
                    "time": 215.01456599999943,
                    "velocity": 0.2204724409448819,
                    "duration": 0.1759529999999927
                },
                {
                    "name": "D#7",
                    "midi": 99,
                    "time": 215.19051899999943,
                    "velocity": 0.2204724409448819,
                    "duration": 0.1759529999999927
                },
                {
                    "name": "C#7",
                    "midi": 97,
                    "time": 215.36647199999942,
                    "velocity": 0.2125984251968504,
                    "duration": 0.1759529999999927
                },
                {
                    "name": "F#7",
                    "midi": 102,
                    "time": 215.36647199999942,
                    "velocity": 0.2125984251968504,
                    "duration": 0.1759529999999927
                },
                {
                    "name": "F#6",
                    "midi": 90,
                    "time": 215.36647199999942,
                    "velocity": 0.2125984251968504,
                    "duration": 0.1759529999999927
                },
                {
                    "name": "F#4",
                    "midi": 66,
                    "time": 216.77409599999942,
                    "velocity": 0.1889763779527559,
                    "duration": 0.1759529999999927
                },
                {
                    "name": "F#5",
                    "midi": 78,
                    "time": 216.77409599999942,
                    "velocity": 0.1889763779527559,
                    "duration": 0.1759529999999927
                },
                {
                    "name": "C#5",
                    "midi": 73,
                    "time": 216.77409599999942,
                    "velocity": 0.1889763779527559,
                    "duration": 0.1759529999999927
                },
                {
                    "name": "F#5",
                    "midi": 78,
                    "time": 218.18171999999942,
                    "velocity": 0.2047244094488189,
                    "duration": 0.1759529999999927
                },
                {
                    "name": "F#6",
                    "midi": 90,
                    "time": 218.18171999999942,
                    "velocity": 0.2047244094488189,
                    "duration": 0.1759529999999927
                }
            ],
            "controlChanges": {
                "7": [
                    {
                        "number": 7,
                        "time": 0,
                        "value": 0.7874015748031497
                    }
                ],
                "10": [
                    {
                        "number": 10,
                        "time": 0,
                        "value": 0.5039370078740157
                    }
                ],
                "64": [
                    {
                        "number": 64,
                        "time": 0,
                        "value": 0
                    }
                ],
                "91": [
                    {
                        "number": 91,
                        "time": 0,
                        "value": 1
                    },
                    {
                        "number": 91,
                        "time": 0,
                        "value": 1
                    }
                ]
            },
            "id": 1,
            "name": "Piano right",
            "instrumentNumber": 0,
            "instrument": "acoustic grand piano",
            "instrumentFamily": "piano",
            "channelNumber": 0,
            "isPercussion": false
        },
        {
            "startTime": 0,
            "duration": 218.357673,
            "length": 1080,
            "notes": [
                {
                    "name": "F#2",
                    "midi": 42,
                    "time": 0,
                    "velocity": 0.2992125984251969,
                    "duration": 0.065982375
                },
                {
                    "name": "C#3",
                    "midi": 49,
                    "time": 0.175953,
                    "velocity": 0.25196850393700787,
                    "duration": 0.06598237500000001
                },
                {
                    "name": "A3",
                    "midi": 57,
                    "time": 0.351906,
                    "velocity": 0.2677165354330709,
                    "duration": 0.06598237499999998
                },
                {
                    "name": "C#3",
                    "midi": 49,
                    "time": 0.527859,
                    "velocity": 0.25984251968503935,
                    "duration": 0.06598237500000004
                },
                {
                    "name": "G#2",
                    "midi": 44,
                    "time": 0.703812,
                    "velocity": 0.33070866141732286,
                    "duration": 0.06598237500000004
                },
                {
                    "name": "C#3",
                    "midi": 49,
                    "time": 0.879765,
                    "velocity": 0.2677165354330709,
                    "duration": 0.06598237500000004
                },
                {
                    "name": "B3",
                    "midi": 59,
                    "time": 1.0557180000000002,
                    "velocity": 0.2992125984251969,
                    "duration": 0.06598237499999993
                },
                {
                    "name": "C#3",
                    "midi": 49,
                    "time": 1.2316710000000002,
                    "velocity": 0.28346456692913385,
                    "duration": 0.06598237499999993
                },
                {
                    "name": "A2",
                    "midi": 45,
                    "time": 1.4076240000000002,
                    "velocity": 0.3464566929133858,
                    "duration": 0.06598237499999993
                },
                {
                    "name": "F#3",
                    "midi": 54,
                    "time": 1.5835770000000002,
                    "velocity": 0.31496062992125984,
                    "duration": 0.06598237499999993
                },
                {
                    "name": "C#4",
                    "midi": 61,
                    "time": 1.7595300000000003,
                    "velocity": 0.3464566929133858,
                    "duration": 0.06598237499999993
                },
                {
                    "name": "F#3",
                    "midi": 54,
                    "time": 1.9354830000000003,
                    "velocity": 0.31496062992125984,
                    "duration": 0.06598237500000015
                },
                {
                    "name": "B2",
                    "midi": 47,
                    "time": 2.1114360000000003,
                    "velocity": 0.3464566929133858,
                    "duration": 0.06598237499999993
                },
                {
                    "name": "F#3",
                    "midi": 54,
                    "time": 2.287389,
                    "velocity": 0.2992125984251969,
                    "duration": 0.06598237499999993
                },
                {
                    "name": "D4",
                    "midi": 62,
                    "time": 2.463342,
                    "velocity": 0.3228346456692913,
                    "duration": 0.06598237499999993
                },
                {
                    "name": "F#3",
                    "midi": 54,
                    "time": 2.6392949999999997,
                    "velocity": 0.2992125984251969,
                    "duration": 0.06598237499999993
                },
                {
                    "name": "F#2",
                    "midi": 42,
                    "time": 2.8152479999999995,
                    "velocity": 0.36220472440944884,
                    "duration": 0.06598237499999993
                },
                {
                    "name": "C#3",
                    "midi": 49,
                    "time": 2.9912009999999993,
                    "velocity": 0.28346456692913385,
                    "duration": 0.06598237499999993
                },
                {
                    "name": "A3",
                    "midi": 57,
                    "time": 3.167153999999999,
                    "velocity": 0.3228346456692913,
                    "duration": 0.06598237499999993
                },
                {
                    "name": "C#3",
                    "midi": 49,
                    "time": 3.343106999999999,
                    "velocity": 0.28346456692913385,
                    "duration": 0.06598237499999993
                },
                {
                    "name": "G#2",
                    "midi": 44,
                    "time": 3.5190599999999987,
                    "velocity": 0.36220472440944884,
                    "duration": 0.06598237499999993
                },
                {
                    "name": "C#3",
                    "midi": 49,
                    "time": 3.6950129999999985,
                    "velocity": 0.28346456692913385,
                    "duration": 0.06598237499999993
                },
                {
                    "name": "B3",
                    "midi": 59,
                    "time": 3.8709659999999984,
                    "velocity": 0.33070866141732286,
                    "duration": 0.06598237499999993
                },
                {
                    "name": "C#3",
                    "midi": 49,
                    "time": 4.046918999999998,
                    "velocity": 0.28346456692913385,
                    "duration": 0.06598237499999993
                },
                {
                    "name": "A2",
                    "midi": 45,
                    "time": 4.222871999999998,
                    "velocity": 0.36220472440944884,
                    "duration": 0.06598237499999993
                },
                {
                    "name": "F#3",
                    "midi": 54,
                    "time": 4.398824999999998,
                    "velocity": 0.2755905511811024,
                    "duration": 0.06598237499999993
                },
                {
                    "name": "C#4",
                    "midi": 61,
                    "time": 4.574777999999998,
                    "velocity": 0.30708661417322836,
                    "duration": 0.06598237499999993
                },
                {
                    "name": "F#3",
                    "midi": 54,
                    "time": 4.750730999999997,
                    "velocity": 0.2677165354330709,
                    "duration": 0.06598237499999993
                },
                {
                    "name": "B2",
                    "midi": 47,
                    "time": 4.926683999999997,
                    "velocity": 0.33858267716535434,
                    "duration": 0.06598237499999993
                },
                {
                    "name": "F#3",
                    "midi": 54,
                    "time": 5.102636999999997,
                    "velocity": 0.2677165354330709,
                    "duration": 0.06598237499999993
                },
                {
                    "name": "D4",
                    "midi": 62,
                    "time": 5.278589999999997,
                    "velocity": 0.28346456692913385,
                    "duration": 0.06598237499999993
                },
                {
                    "name": "F#3",
                    "midi": 54,
                    "time": 5.454542999999997,
                    "velocity": 0.25984251968503935,
                    "duration": 0.06598237499999993
                },
                {
                    "name": "F#2",
                    "midi": 42,
                    "time": 5.630495999999996,
                    "velocity": 0.3228346456692913,
                    "duration": 0.06598237499999993
                },
                {
                    "name": "C#3",
                    "midi": 49,
                    "time": 5.806448999999996,
                    "velocity": 0.25984251968503935,
                    "duration": 0.06598237499999993
                },
                {
                    "name": "A3",
                    "midi": 57,
                    "time": 5.982401999999996,
                    "velocity": 0.29133858267716534,
                    "duration": 0.06598237499999993
                },
                {
                    "name": "C#3",
                    "midi": 49,
                    "time": 6.158354999999996,
                    "velocity": 0.2677165354330709,
                    "duration": 0.06598237499999993
                },
                {
                    "name": "A2",
                    "midi": 45,
                    "time": 6.334307999999996,
                    "velocity": 0.33858267716535434,
                    "duration": 0.06598237499999993
                },
                {
                    "name": "F#3",
                    "midi": 54,
                    "time": 6.510260999999995,
                    "velocity": 0.2677165354330709,
                    "duration": 0.06598237499999993
                },
                {
                    "name": "C#4",
                    "midi": 61,
                    "time": 6.686213999999995,
                    "velocity": 0.30708661417322836,
                    "duration": 0.06598237499999993
                },
                {
                    "name": "F#3",
                    "midi": 54,
                    "time": 6.862166999999995,
                    "velocity": 0.2755905511811024,
                    "duration": 0.06598237499999993
                },
                {
                    "name": "C#3",
                    "midi": 49,
                    "time": 7.038119999999995,
                    "velocity": 0.36220472440944884,
                    "duration": 0.06598237499999993
                },
                {
                    "name": "G#3",
                    "midi": 56,
                    "time": 7.214072999999995,
                    "velocity": 0.28346456692913385,
                    "duration": 0.06598237499999993
                },
                {
                    "name": "E4",
                    "midi": 64,
                    "time": 7.390025999999994,
                    "velocity": 0.3228346456692913,
                    "duration": 0.06598237499999993
                },
                {
                    "name": "G#3",
                    "midi": 56,
                    "time": 7.565978999999994,
                    "velocity": 0.28346456692913385,
                    "duration": 0.06598237499999993
                },
                {
                    "name": "B2",
                    "midi": 47,
                    "time": 7.741931999999994,
                    "velocity": 0.33858267716535434,
                    "duration": 0.06598237499999993
                },
                {
                    "name": "G#3",
                    "midi": 56,
                    "time": 7.917884999999994,
                    "velocity": 0.2677165354330709,
                    "duration": 0.06598237499999993
                },
                {
                    "name": "C#4",
                    "midi": 61,
                    "time": 8.093837999999995,
                    "velocity": 0.31496062992125984,
                    "duration": 0.06598237500000081
                },
                {
                    "name": "G#3",
                    "midi": 56,
                    "time": 8.269790999999996,
                    "velocity": 0.2755905511811024,
                    "duration": 0.06598237500000081
                },
                {
                    "name": "A2",
                    "midi": 45,
                    "time": 8.445743999999998,
                    "velocity": 0.3464566929133858,
                    "duration": 0.06598237500000081
                },
                {
                    "name": "F#3",
                    "midi": 54,
                    "time": 8.621697,
                    "velocity": 0.30708661417322836,
                    "duration": 0.06598237500000081
                },
                {
                    "name": "C#4",
                    "midi": 61,
                    "time": 8.79765,
                    "velocity": 0.30708661417322836,
                    "duration": 0.06598237500000081
                },
                {
                    "name": "F#3",
                    "midi": 54,
                    "time": 8.973603000000002,
                    "velocity": 0.30708661417322836,
                    "duration": 0.06598237500000081
                },
                {
                    "name": "G#2",
                    "midi": 44,
                    "time": 9.149556000000004,
                    "velocity": 0.33858267716535434,
                    "duration": 0.06598237500000081
                },
                {
                    "name": "C#3",
                    "midi": 49,
                    "time": 9.325509000000006,
                    "velocity": 0.30708661417322836,
                    "duration": 0.06598237500000081
                },
                {
                    "name": "B3",
                    "midi": 59,
                    "time": 9.501462000000007,
                    "velocity": 0.30708661417322836,
                    "duration": 0.06598237500000081
                },
                {
                    "name": "C#3",
                    "midi": 49,
                    "time": 9.677415000000009,
                    "velocity": 0.30708661417322836,
                    "duration": 0.06598237500000081
                },
                {
                    "name": "F#2",
                    "midi": 42,
                    "time": 9.85336800000001,
                    "velocity": 0.3543307086614173,
                    "duration": 0.06598237500000081
                },
                {
                    "name": "C#3",
                    "midi": 49,
                    "time": 10.029321000000012,
                    "velocity": 0.3228346456692913,
                    "duration": 0.06598237500000081
                },
                {
                    "name": "A3",
                    "midi": 57,
                    "time": 10.205274000000014,
                    "velocity": 0.3228346456692913,
                    "duration": 0.06598237500000081
                },
                {
                    "name": "C#3",
                    "midi": 49,
                    "time": 10.381227000000015,
                    "velocity": 0.33070866141732286,
                    "duration": 0.06598237500000081
                },
                {
                    "name": "B2",
                    "midi": 47,
                    "time": 10.557180000000017,
                    "velocity": 0.3700787401574803,
                    "duration": 0.06598237500000081
                },
                {
                    "name": "E3",
                    "midi": 52,
                    "time": 10.733133000000018,
                    "velocity": 0.3543307086614173,
                    "duration": 0.06598237500000081
                },
                {
                    "name": "D4",
                    "midi": 62,
                    "time": 10.90908600000002,
                    "velocity": 0.3543307086614173,
                    "duration": 0.06598237500000081
                },
                {
                    "name": "E3",
                    "midi": 52,
                    "time": 11.085039000000021,
                    "velocity": 0.3543307086614173,
                    "duration": 0.06598237500000081
                },
                {
                    "name": "A2",
                    "midi": 45,
                    "time": 11.260992000000023,
                    "velocity": 0.3700787401574803,
                    "duration": 0.06598237500000081
                },
                {
                    "name": "E3",
                    "midi": 52,
                    "time": 11.436945000000025,
                    "velocity": 0.36220472440944884,
                    "duration": 0.06598237500000081
                },
                {
                    "name": "A3",
                    "midi": 57,
                    "time": 11.612898000000026,
                    "velocity": 0.3858267716535433,
                    "duration": 0.06598237500000081
                },
                {
                    "name": "C#4",
                    "midi": 61,
                    "time": 11.788851000000028,
                    "velocity": 0.4015748031496063,
                    "duration": 0.06598237500000081
                },
                {
                    "name": "D3",
                    "midi": 50,
                    "time": 11.96480400000003,
                    "velocity": 0.41732283464566927,
                    "duration": 0.06598237500000081
                },
                {
                    "name": "A3",
                    "midi": 57,
                    "time": 12.14075700000003,
                    "velocity": 0.30708661417322836,
                    "duration": 0.06598237500000081
                },
                {
                    "name": "D4",
                    "midi": 62,
                    "time": 12.316710000000032,
                    "velocity": 0.2992125984251969,
                    "duration": 0.06598237500000081
                },
                {
                    "name": "F#4",
                    "midi": 66,
                    "time": 12.492663000000034,
                    "velocity": 0.2992125984251969,
                    "duration": 0.06598237500000081
                },
                {
                    "name": "A3",
                    "midi": 57,
                    "time": 12.668616000000036,
                    "velocity": 0.33070866141732286,
                    "duration": 0.06598237500000081
                },
                {
                    "name": "D4",
                    "midi": 62,
                    "time": 12.844569000000037,
                    "velocity": 0.29133858267716534,
                    "duration": 0.06598237500000081
                },
                {
                    "name": "F#4",
                    "midi": 66,
                    "time": 13.020522000000039,
                    "velocity": 0.29133858267716534,
                    "duration": 0.06598237500000081
                },
                {
                    "name": "A4",
                    "midi": 69,
                    "time": 13.19647500000004,
                    "velocity": 0.29133858267716534,
                    "duration": 0.0879764999999999
                },
                {
                    "name": "D4",
                    "midi": 62,
                    "time": 13.54838100000004,
                    "velocity": 0.29133858267716534,
                    "duration": 0.0879764999999999
                },
                {
                    "name": "C#4",
                    "midi": 61,
                    "time": 13.72433400000004,
                    "velocity": 0.28346456692913385,
                    "duration": 0.0879764999999999
                },
                {
                    "name": "B3",
                    "midi": 59,
                    "time": 13.90028700000004,
                    "velocity": 0.28346456692913385,
                    "duration": 0.0879764999999999
                },
                {
                    "name": "A3",
                    "midi": 57,
                    "time": 14.07624000000004,
                    "velocity": 0.36220472440944884,
                    "duration": 0.06598237500000081
                },
                {
                    "name": "C#4",
                    "midi": 61,
                    "time": 14.252193000000041,
                    "velocity": 0.28346456692913385,
                    "duration": 0.06598237500000081
                },
                {
                    "name": "A3",
                    "midi": 57,
                    "time": 14.428146000000043,
                    "velocity": 0.3228346456692913,
                    "duration": 0.06598237500000081
                },
                {
                    "name": "F#3",
                    "midi": 54,
                    "time": 14.604099000000044,
                    "velocity": 0.28346456692913385,
                    "duration": 0.06598237500000081
                },
                {
                    "name": "G#3",
                    "midi": 56,
                    "time": 14.780052000000046,
                    "velocity": 0.36220472440944884,
                    "duration": 0.06598237500000081
                },
                {
                    "name": "B3",
                    "midi": 59,
                    "time": 14.956005000000047,
                    "velocity": 0.28346456692913385,
                    "duration": 0.06598237500000081
                },
                {
                    "name": "E4",
                    "midi": 64,
                    "time": 15.131958000000049,
                    "velocity": 0.33070866141732286,
                    "duration": 0.06598237500000081
                },
                {
                    "name": "F#3",
                    "midi": 54,
                    "time": 15.30791100000005,
                    "velocity": 0.28346456692913385,
                    "duration": 0.06598237500000081
                },
                {
                    "name": "E3",
                    "midi": 52,
                    "time": 15.483864000000052,
                    "velocity": 0.36220472440944884,
                    "duration": 0.06598237500000081
                },
                {
                    "name": "B3",
                    "midi": 59,
                    "time": 15.659817000000054,
                    "velocity": 0.2755905511811024,
                    "duration": 0.06598237500000081
                },
                {
                    "name": "E4",
                    "midi": 64,
                    "time": 15.835770000000055,
                    "velocity": 0.30708661417322836,
                    "duration": 0.06598237500000081
                },
                {
                    "name": "B3",
                    "midi": 59,
                    "time": 16.011723000000057,
                    "velocity": 0.2677165354330709,
                    "duration": 0.06598237500000081
                },
                {
                    "name": "B2",
                    "midi": 47,
                    "time": 16.187676000000057,
                    "velocity": 0.33858267716535434,
                    "duration": 0.06598237500000081
                },
                {
                    "name": "G#3",
                    "midi": 56,
                    "time": 16.363629000000056,
                    "velocity": 0.2677165354330709,
                    "duration": 0.06598237500000081
                },
                {
                    "name": "D4",
                    "midi": 62,
                    "time": 16.539582000000056,
                    "velocity": 0.28346456692913385,
                    "duration": 0.06598237500000081
                },
                {
                    "name": "E3",
                    "midi": 52,
                    "time": 16.715535000000056,
                    "velocity": 0.25984251968503935,
                    "duration": 0.06598237500000081
                },
                {
                    "name": "A2",
                    "midi": 45,
                    "time": 16.891488000000056,
                    "velocity": 0.3228346456692913,
                    "duration": 0.06598237500000081
                },
                {
                    "name": "E3",
                    "midi": 52,
                    "time": 17.067441000000056,
                    "velocity": 0.25984251968503935,
                    "duration": 0.06598237500000081
                },
                {
                    "name": "A3",
                    "midi": 57,
                    "time": 17.243394000000055,
                    "velocity": 0.29133858267716534,
                    "duration": 0.06598237500000081
                },
                {
                    "name": "E3",
                    "midi": 52,
                    "time": 17.419347000000055,
                    "velocity": 0.2677165354330709,
                    "duration": 0.06598237500000081
                },
                {
                    "name": "D3",
                    "midi": 50,
                    "time": 17.595300000000055,
                    "velocity": 0.33858267716535434,
                    "duration": 0.06598237500000081
                },
                {
                    "name": "A3",
                    "midi": 57,
                    "time": 17.771253000000055,
                    "velocity": 0.2677165354330709,
                    "duration": 0.06598237500000081
                },
                {
                    "name": "D4",
                    "midi": 62,
                    "time": 17.947206000000055,
                    "velocity": 0.30708661417322836,
                    "duration": 0.06598237500000081
                },
                {
                    "name": "C#3",
                    "midi": 49,
                    "time": 18.123159000000054,
                    "velocity": 0.2755905511811024,
                    "duration": 0.06598237500000081
                },
                {
                    "name": "C3",
                    "midi": 48,
                    "time": 18.299112000000054,
                    "velocity": 0.36220472440944884,
                    "duration": 0.06598237500000081
                },
                {
                    "name": "G#3",
                    "midi": 56,
                    "time": 18.475065000000054,
                    "velocity": 0.28346456692913385,
                    "duration": 0.06598237500000081
                },
                {
                    "name": "D#4",
                    "midi": 63,
                    "time": 18.651018000000054,
                    "velocity": 0.3228346456692913,
                    "duration": 0.06598237500000081
                },
                {
                    "name": "G#3",
                    "midi": 56,
                    "time": 18.826971000000054,
                    "velocity": 0.28346456692913385,
                    "duration": 0.06598237500000081
                },
                {
                    "name": "C3",
                    "midi": 48,
                    "time": 19.002924000000053,
                    "velocity": 0.33858267716535434,
                    "duration": 0.06598237500000081
                },
                {
                    "name": "G#3",
                    "midi": 56,
                    "time": 19.178877000000053,
                    "velocity": 0.2677165354330709,
                    "duration": 0.06598237500000081
                },
                {
                    "name": "D#4",
                    "midi": 63,
                    "time": 19.354830000000053,
                    "velocity": 0.31496062992125984,
                    "duration": 0.06598237500000081
                },
                {
                    "name": "G#3",
                    "midi": 56,
                    "time": 19.530783000000053,
                    "velocity": 0.2755905511811024,
                    "duration": 0.06598237500000081
                },
                {
                    "name": "C3",
                    "midi": 48,
                    "time": 19.706736000000053,
                    "velocity": 0.36220472440944884,
                    "duration": 0.06598237500000081
                },
                {
                    "name": "G#3",
                    "midi": 56,
                    "time": 19.882689000000052,
                    "velocity": 0.28346456692913385,
                    "duration": 0.06598237500000081
                },
                {
                    "name": "D#4",
                    "midi": 63,
                    "time": 20.058642000000052,
                    "velocity": 0.3228346456692913,
                    "duration": 0.06598237500000081
                },
                {
                    "name": "G#3",
                    "midi": 56,
                    "time": 20.234595000000052,
                    "velocity": 0.28346456692913385,
                    "duration": 0.06598237500000081
                },
                {
                    "name": "C#3",
                    "midi": 49,
                    "time": 20.410548000000052,
                    "velocity": 0.3858267716535433,
                    "duration": 0.06598237500000081
                },
                {
                    "name": "A3",
                    "midi": 57,
                    "time": 20.58650100000005,
                    "velocity": 0.3543307086614173,
                    "duration": 0.06598237500000081
                },
                {
                    "name": "E4",
                    "midi": 64,
                    "time": 20.76245400000005,
                    "velocity": 0.3858267716535433,
                    "duration": 0.06598237499999726
                },
                {
                    "name": "A3",
                    "midi": 57,
                    "time": 20.938407000000048,
                    "velocity": 0.3700787401574803,
                    "duration": 0.06598237500000081
                },
                {
                    "name": "C3",
                    "midi": 48,
                    "time": 21.114360000000048,
                    "velocity": 0.3858267716535433,
                    "duration": 0.06598237500000081
                },
                {
                    "name": "G#3",
                    "midi": 56,
                    "time": 21.290313000000047,
                    "velocity": 0.2992125984251969,
                    "duration": 0.06598237500000081
                },
                {
                    "name": "D#4",
                    "midi": 63,
                    "time": 21.466266000000047,
                    "velocity": 0.3464566929133858,
                    "duration": 0.06598237500000081
                },
                {
                    "name": "G#3",
                    "midi": 56,
                    "time": 21.642219000000047,
                    "velocity": 0.2992125984251969,
                    "duration": 0.06598237500000081
                },
                {
                    "name": "B2",
                    "midi": 47,
                    "time": 21.818172000000047,
                    "velocity": 0.4094488188976378,
                    "duration": 0.06598237500000081
                },
                {
                    "name": "E3",
                    "midi": 52,
                    "time": 21.994125000000047,
                    "velocity": 0.3779527559055118,
                    "duration": 0.06598237500000081
                },
                {
                    "name": "G#3",
                    "midi": 56,
                    "time": 22.170078000000046,
                    "velocity": 0.4094488188976378,
                    "duration": 0.06598237500000081
                },
                {
                    "name": "D4",
                    "midi": 62,
                    "time": 22.170078000000046,
                    "velocity": 0.4094488188976378,
                    "duration": 0.06598237500000081
                },
                {
                    "name": "E3",
                    "midi": 52,
                    "time": 22.346031000000046,
                    "velocity": 0.3937007874015748,
                    "duration": 0.06598237500000081
                },
                {
                    "name": "A2",
                    "midi": 45,
                    "time": 22.521984000000046,
                    "velocity": 0.4094488188976378,
                    "duration": 0.06598237500000081
                },
                {
                    "name": "E3",
                    "midi": 52,
                    "time": 22.697937000000046,
                    "velocity": 0.3464566929133858,
                    "duration": 0.06598237500000081
                },
                {
                    "name": "C#4",
                    "midi": 61,
                    "time": 22.873890000000046,
                    "velocity": 0.3858267716535433,
                    "duration": 0.06598237500000081
                },
                {
                    "name": "E3",
                    "midi": 52,
                    "time": 23.049843000000045,
                    "velocity": 0.36220472440944884,
                    "duration": 0.06598237500000081
                },
                {
                    "name": "F#2",
                    "midi": 42,
                    "time": 23.225796000000045,
                    "velocity": 0.4330708661417323,
                    "duration": 0.06598237500000081
                },
                {
                    "name": "B2",
                    "midi": 47,
                    "time": 23.401749000000045,
                    "velocity": 0.3937007874015748,
                    "duration": 0.06598237500000081
                },
                {
                    "name": "A3",
                    "midi": 57,
                    "time": 23.577702000000045,
                    "velocity": 0.4330708661417323,
                    "duration": 0.06598237499999726
                },
                {
                    "name": "B2",
                    "midi": 47,
                    "time": 23.75365500000004,
                    "velocity": 0.4094488188976378,
                    "duration": 0.06598237500000081
                },
                {
                    "name": "C#2",
                    "midi": 37,
                    "time": 23.92960800000004,
                    "velocity": 0.5196850393700787,
                    "duration": 0.06598237500000081
                },
                {
                    "name": "G#2",
                    "midi": 44,
                    "time": 24.10556100000004,
                    "velocity": 0.44881889763779526,
                    "duration": 0.06598237500000081
                },
                {
                    "name": "F3",
                    "midi": 53,
                    "time": 24.28151400000004,
                    "velocity": 0.48031496062992124,
                    "duration": 0.06598237500000081
                },
                {
                    "name": "G#2",
                    "midi": 44,
                    "time": 24.45746700000004,
                    "velocity": 0.44881889763779526,
                    "duration": 0.06598237500000081
                },
                {
                    "name": "C#2",
                    "midi": 37,
                    "time": 24.63342000000004,
                    "velocity": 0.5196850393700787,
                    "duration": 0.06598237500000081
                },
                {
                    "name": "G#2",
                    "midi": 44,
                    "time": 24.80937300000004,
                    "velocity": 0.44881889763779526,
                    "duration": 0.06598237500000081
                },
                {
                    "name": "F3",
                    "midi": 53,
                    "time": 24.98532600000004,
                    "velocity": 0.48031496062992124,
                    "duration": 0.06598237500000081
                },
                {
                    "name": "G#2",
                    "midi": 44,
                    "time": 25.16127900000004,
                    "velocity": 0.44881889763779526,
                    "duration": 0.06598237500000081
                },
                {
                    "name": "C#2",
                    "midi": 37,
                    "time": 25.33723200000004,
                    "velocity": 0.48031496062992124,
                    "duration": 0.06598237500000081
                },
                {
                    "name": "G#2",
                    "midi": 44,
                    "time": 25.51318500000004,
                    "velocity": 0.4330708661417323,
                    "duration": 0.06598237500000081
                },
                {
                    "name": "F3",
                    "midi": 53,
                    "time": 25.68913800000004,
                    "velocity": 0.4566929133858268,
                    "duration": 0.06598237500000081
                },
                {
                    "name": "G#2",
                    "midi": 44,
                    "time": 25.86509100000004,
                    "velocity": 0.4330708661417323,
                    "duration": 0.06598237500000081
                },
                {
                    "name": "B2",
                    "midi": 47,
                    "time": 26.04104400000004,
                    "velocity": 0.2992125984251969,
                    "duration": 0.06598237499999726
                },
                {
                    "name": "F#3",
                    "midi": 54,
                    "time": 26.216997000000035,
                    "velocity": 0.2755905511811024,
                    "duration": 0.06598237500000081
                },
                {
                    "name": "A3",
                    "midi": 57,
                    "time": 26.392950000000035,
                    "velocity": 0.29133858267716534,
                    "duration": 0.06598237500000081
                },
                {
                    "name": "C#4",
                    "midi": 61,
                    "time": 26.568903000000034,
                    "velocity": 0.2755905511811024,
                    "duration": 0.06598237499999726
                },
                {
                    "name": "E3",
                    "midi": 52,
                    "time": 26.74485600000003,
                    "velocity": 0.29133858267716534,
                    "duration": 0.06598237500000081
                },
                {
                    "name": "B3",
                    "midi": 59,
                    "time": 26.92080900000003,
                    "velocity": 0.2677165354330709,
                    "duration": 0.06598237500000081
                },
                {
                    "name": "D4",
                    "midi": 62,
                    "time": 27.09676200000003,
                    "velocity": 0.2677165354330709,
                    "duration": 0.06598237500000081
                },
                {
                    "name": "B3",
                    "midi": 59,
                    "time": 27.27271500000003,
                    "velocity": 0.2677165354330709,
                    "duration": 0.06598237500000081
                },
                {
                    "name": "E3",
                    "midi": 52,
                    "time": 27.44866800000003,
                    "velocity": 0.31496062992125984,
                    "duration": 0.06598237500000081
                },
                {
                    "name": "B3",
                    "midi": 59,
                    "time": 27.62462100000003,
                    "velocity": 0.28346456692913385,
                    "duration": 0.06598237500000081
                },
                {
                    "name": "E3",
                    "midi": 52,
                    "time": 27.80057400000003,
                    "velocity": 0.29133858267716534,
                    "duration": 0.06598237500000081
                },
                {
                    "name": "B2",
                    "midi": 47,
                    "time": 27.97652700000003,
                    "velocity": 0.2755905511811024,
                    "duration": 0.06598237500000081
                },
                {
                    "name": "E2",
                    "midi": 40,
                    "time": 28.15248000000003,
                    "velocity": 0.29133858267716534,
                    "duration": 0.06598237500000081
                },
                {
                    "name": "B2",
                    "midi": 47,
                    "time": 28.32843300000003,
                    "velocity": 0.2677165354330709,
                    "duration": 0.06598237500000081
                },
                {
                    "name": "E3",
                    "midi": 52,
                    "time": 28.50438600000003,
                    "velocity": 0.2677165354330709,
                    "duration": 0.06598237500000081
                },
                {
                    "name": "G#3",
                    "midi": 56,
                    "time": 28.68033900000003,
                    "velocity": 0.2677165354330709,
                    "duration": 0.06598237500000081
                },
                {
                    "name": "B2",
                    "midi": 47,
                    "time": 28.85629200000003,
                    "velocity": 0.29133858267716534,
                    "duration": 0.06598237499999726
                },
                {
                    "name": "F#3",
                    "midi": 54,
                    "time": 29.032245000000025,
                    "velocity": 0.2677165354330709,
                    "duration": 0.06598237500000081
                },
                {
                    "name": "A3",
                    "midi": 57,
                    "time": 29.208198000000024,
                    "velocity": 0.2677165354330709,
                    "duration": 0.06598237500000081
                },
                {
                    "name": "C#4",
                    "midi": 61,
                    "time": 29.384151000000024,
                    "velocity": 0.2677165354330709,
                    "duration": 0.06598237500000081
                },
                {
                    "name": "E3",
                    "midi": 52,
                    "time": 29.560104000000024,
                    "velocity": 0.2992125984251969,
                    "duration": 0.06598237500000081
                },
                {
                    "name": "B3",
                    "midi": 59,
                    "time": 29.736057000000024,
                    "velocity": 0.2677165354330709,
                    "duration": 0.06598237500000081
                },
                {
                    "name": "D4",
                    "midi": 62,
                    "time": 29.912010000000024,
                    "velocity": 0.2677165354330709,
                    "duration": 0.06598237500000081
                },
                {
                    "name": "B3",
                    "midi": 59,
                    "time": 30.087963000000023,
                    "velocity": 0.2677165354330709,
                    "duration": 0.06598237500000081
                },
                {
                    "name": "E3",
                    "midi": 52,
                    "time": 30.263916000000023,
                    "velocity": 0.3228346456692913,
                    "duration": 0.06598237500000081
                },
                {
                    "name": "B3",
                    "midi": 59,
                    "time": 30.439869000000023,
                    "velocity": 0.29133858267716534,
                    "duration": 0.06598237500000081
                },
                {
                    "name": "E3",
                    "midi": 52,
                    "time": 30.615822000000023,
                    "velocity": 0.29133858267716534,
                    "duration": 0.06598237500000081
                },
                {
                    "name": "B2",
                    "midi": 47,
                    "time": 30.791775000000023,
                    "velocity": 0.29133858267716534,
                    "duration": 0.06598237500000081
                },
                {
                    "name": "E2",
                    "midi": 40,
                    "time": 30.967728000000022,
                    "velocity": 0.3543307086614173,
                    "duration": 0.06598237500000081
                },
                {
                    "name": "B2",
                    "midi": 47,
                    "time": 31.143681000000022,
                    "velocity": 0.2992125984251969,
                    "duration": 0.06598237500000081
                },
                {
                    "name": "E3",
                    "midi": 52,
                    "time": 31.319634000000022,
                    "velocity": 0.2992125984251969,
                    "duration": 0.06598237500000081
                },
                {
                    "name": "G#3",
                    "midi": 56,
                    "time": 31.49558700000002,
                    "velocity": 0.2992125984251969,
                    "duration": 0.06598237500000081
                },
                {
                    "name": "B2",
                    "midi": 47,
                    "time": 31.67154000000002,
                    "velocity": 0.36220472440944884,
                    "duration": 0.06598237500000081
                },
                {
                    "name": "E3",
                    "midi": 52,
                    "time": 31.84749300000002,
                    "velocity": 0.30708661417322836,
                    "duration": 0.06598237500000081
                },
                {
                    "name": "D4",
                    "midi": 62,
                    "time": 32.02344600000002,
                    "velocity": 0.30708661417322836,
                    "duration": 0.06598237499999726
                },
                {
                    "name": "E3",
                    "midi": 52,
                    "time": 32.19939900000002,
                    "velocity": 0.30708661417322836,
                    "duration": 0.06598237499999726
                },
                {
                    "name": "A2",
                    "midi": 45,
                    "time": 32.37535200000002,
                    "velocity": 0.33070866141732286,
                    "duration": 0.06598237499999726
                },
                {
                    "name": "E3",
                    "midi": 52,
                    "time": 32.55130500000002,
                    "velocity": 0.2992125984251969,
                    "duration": 0.06598237499999726
                },
                {
                    "name": "A3",
                    "midi": 57,
                    "time": 32.72725800000002,
                    "velocity": 0.2992125984251969,
                    "duration": 0.06598237499999726
                },
                {
                    "name": "C#4",
                    "midi": 61,
                    "time": 32.90321100000002,
                    "velocity": 0.2992125984251969,
                    "duration": 0.06598237499999726
                },
                {
                    "name": "D3",
                    "midi": 50,
                    "time": 33.07916400000002,
                    "velocity": 0.3228346456692913,
                    "duration": 0.06598237499999726
                },
                {
                    "name": "A3",
                    "midi": 57,
                    "time": 33.25511700000002,
                    "velocity": 0.2992125984251969,
                    "duration": 0.06598237499999726
                },
                {
                    "name": "D4",
                    "midi": 62,
                    "time": 33.43107000000002,
                    "velocity": 0.2992125984251969,
                    "duration": 0.06598237499999726
                },
                {
                    "name": "A3",
                    "midi": 57,
                    "time": 33.60702300000002,
                    "velocity": 0.2992125984251969,
                    "duration": 0.06598237499999726
                },
                {
                    "name": "F#3",
                    "midi": 54,
                    "time": 33.78297600000002,
                    "velocity": 0.3228346456692913,
                    "duration": 0.06598237499999726
                },
                {
                    "name": "A3",
                    "midi": 57,
                    "time": 33.95892900000002,
                    "velocity": 0.2677165354330709,
                    "duration": 0.06598237499999726
                },
                {
                    "name": "C#4",
                    "midi": 61,
                    "time": 34.13488200000002,
                    "velocity": 0.2755905511811024,
                    "duration": 0.06598237499999726
                },
                {
                    "name": "A3",
                    "midi": 57,
                    "time": 34.31083500000002,
                    "velocity": 0.2677165354330709,
                    "duration": 0.06598237499999726
                },
                {
                    "name": "B2",
                    "midi": 47,
                    "time": 34.48678800000002,
                    "velocity": 0.29133858267716534,
                    "duration": 0.06598237499999726
                },
                {
                    "name": "F#3",
                    "midi": 54,
                    "time": 34.66274100000002,
                    "velocity": 0.25196850393700787,
                    "duration": 0.06598237499999726
                },
                {
                    "name": "B3",
                    "midi": 59,
                    "time": 34.83869400000002,
                    "velocity": 0.2677165354330709,
                    "duration": 0.06598237499999726
                },
                {
                    "name": "F#3",
                    "midi": 54,
                    "time": 35.01464700000002,
                    "velocity": 0.25984251968503935,
                    "duration": 0.06598237499999726
                },
                {
                    "name": "E2",
                    "midi": 40,
                    "time": 35.19060000000002,
                    "velocity": 0.2755905511811024,
                    "duration": 0.06598237499999726
                },
                {
                    "name": "B2",
                    "midi": 47,
                    "time": 35.36655300000002,
                    "velocity": 0.23622047244094488,
                    "duration": 0.06598237499999726
                },
                {
                    "name": "E3",
                    "midi": 52,
                    "time": 35.54250600000002,
                    "velocity": 0.23622047244094488,
                    "duration": 0.06598237499999726
                },
                {
                    "name": "G3",
                    "midi": 55,
                    "time": 35.71845900000002,
                    "velocity": 0.23622047244094488,
                    "duration": 0.06598237499999726
                },
                {
                    "name": "E2",
                    "midi": 40,
                    "time": 35.89441200000002,
                    "velocity": 0.25984251968503935,
                    "duration": 0.06598237499999726
                },
                {
                    "name": "A2",
                    "midi": 45,
                    "time": 36.07036500000002,
                    "velocity": 0.23622047244094488,
                    "duration": 0.06598237499999726
                },
                {
                    "name": "G3",
                    "midi": 55,
                    "time": 36.24631800000002,
                    "velocity": 0.2204724409448819,
                    "duration": 0.06598237499999726
                },
                {
                    "name": "A2",
                    "midi": 45,
                    "time": 36.422271000000016,
                    "velocity": 0.2204724409448819,
                    "duration": 0.06598237499999726
                },
                {
                    "name": "F#2",
                    "midi": 42,
                    "time": 36.598224000000016,
                    "velocity": 0.2992125984251969,
                    "duration": 0.06598237499999726
                },
                {
                    "name": "C#3",
                    "midi": 49,
                    "time": 36.774177000000016,
                    "velocity": 0.2755905511811024,
                    "duration": 0.06598237499999726
                },
                {
                    "name": "A3",
                    "midi": 57,
                    "time": 36.950130000000016,
                    "velocity": 0.2755905511811024,
                    "duration": 0.06598237499999726
                },
                {
                    "name": "F#3",
                    "midi": 54,
                    "time": 37.126083000000015,
                    "velocity": 0.2755905511811024,
                    "duration": 0.06598237499999726
                },
                {
                    "name": "E2",
                    "midi": 40,
                    "time": 37.302036000000015,
                    "velocity": 0.2992125984251969,
                    "duration": 0.06598237499999726
                },
                {
                    "name": "A2",
                    "midi": 45,
                    "time": 37.477989000000015,
                    "velocity": 0.2755905511811024,
                    "duration": 0.06598237499999726
                },
                {
                    "name": "F#3",
                    "midi": 54,
                    "time": 37.653942000000015,
                    "velocity": 0.2755905511811024,
                    "duration": 0.06598237499999726
                },
                {
                    "name": "A2",
                    "midi": 45,
                    "time": 37.829895000000015,
                    "velocity": 0.28346456692913385,
                    "duration": 0.06598237499999726
                },
                {
                    "name": "D2",
                    "midi": 38,
                    "time": 38.005848000000015,
                    "velocity": 0.2992125984251969,
                    "duration": 0.06598237499999726
                },
                {
                    "name": "A2",
                    "midi": 45,
                    "time": 38.181801000000014,
                    "velocity": 0.2755905511811024,
                    "duration": 0.06598237499999726
                },
                {
                    "name": "D3",
                    "midi": 50,
                    "time": 38.357754000000014,
                    "velocity": 0.2755905511811024,
                    "duration": 0.06598237499999726
                },
                {
                    "name": "F#3",
                    "midi": 54,
                    "time": 38.533707000000014,
                    "velocity": 0.2755905511811024,
                    "duration": 0.06598237499999726
                },
                {
                    "name": "A2",
                    "midi": 45,
                    "time": 38.709660000000014,
                    "velocity": 0.2755905511811024,
                    "duration": 0.06598237499999726
                },
                {
                    "name": "D3",
                    "midi": 50,
                    "time": 38.88561300000001,
                    "velocity": 0.25984251968503935,
                    "duration": 0.06598237499999726
                },
                {
                    "name": "F#3",
                    "midi": 54,
                    "time": 39.06156600000001,
                    "velocity": 0.25984251968503935,
                    "duration": 0.06598237499999726
                },
                {
                    "name": "A3",
                    "midi": 57,
                    "time": 39.23751900000001,
                    "velocity": 0.2755905511811024,
                    "duration": 0.06598237499999726
                },
                {
                    "name": "D3",
                    "midi": 50,
                    "time": 39.41347200000001,
                    "velocity": 0.2677165354330709,
                    "duration": 0.06598237499999726
                },
                {
                    "name": "A3",
                    "midi": 57,
                    "time": 39.58942500000001,
                    "velocity": 0.2440944881889764,
                    "duration": 0.06598237499999726
                },
                {
                    "name": "D4",
                    "midi": 62,
                    "time": 39.76537800000001,
                    "velocity": 0.2440944881889764,
                    "duration": 0.06598237499999726
                },
                {
                    "name": "F#4",
                    "midi": 66,
                    "time": 39.94133100000001,
                    "velocity": 0.23622047244094488,
                    "duration": 0.06598237499999726
                },
                {
                    "name": "C#3",
                    "midi": 49,
                    "time": 40.11728400000001,
                    "velocity": 0.2440944881889764,
                    "duration": 0.06598237499999726
                },
                {
                    "name": "F#3",
                    "midi": 54,
                    "time": 40.29323700000001,
                    "velocity": 0.23622047244094488,
                    "duration": 0.06598237499999726
                },
                {
                    "name": "A3",
                    "midi": 57,
                    "time": 40.46919000000001,
                    "velocity": 0.2283464566929134,
                    "duration": 0.06598237499999726
                },
                {
                    "name": "D4",
                    "midi": 62,
                    "time": 40.64514300000001,
                    "velocity": 0.2204724409448819,
                    "duration": 0.06598237499999726
                },
                {
                    "name": "B2",
                    "midi": 47,
                    "time": 40.82109600000001,
                    "velocity": 0.31496062992125984,
                    "duration": 0.06598237499999726
                },
                {
                    "name": "F#3",
                    "midi": 54,
                    "time": 40.99704900000001,
                    "velocity": 0.28346456692913385,
                    "duration": 0.06598237499999726
                },
                {
                    "name": "B3",
                    "midi": 59,
                    "time": 41.17300200000001,
                    "velocity": 0.28346456692913385,
                    "duration": 0.06598237499999726
                },
                {
                    "name": "D4",
                    "midi": 62,
                    "time": 41.34895500000001,
                    "velocity": 0.28346456692913385,
                    "duration": 0.06598237499999726
                },
                {
                    "name": "B2",
                    "midi": 47,
                    "time": 41.52490800000001,
                    "velocity": 0.31496062992125984,
                    "duration": 0.06598237500000437
                },
                {
                    "name": "F3",
                    "midi": 53,
                    "time": 41.70086100000002,
                    "velocity": 0.28346456692913385,
                    "duration": 0.06598237499999726
                },
                {
                    "name": "G#3",
                    "midi": 56,
                    "time": 41.87681400000002,
                    "velocity": 0.28346456692913385,
                    "duration": 0.06598237499999726
                },
                {
                    "name": "D4",
                    "midi": 62,
                    "time": 42.05276700000002,
                    "velocity": 0.28346456692913385,
                    "duration": 0.06598237499999726
                },
                {
                    "name": "B2",
                    "midi": 47,
                    "time": 42.22872000000002,
                    "velocity": 0.31496062992125984,
                    "duration": 0.06598237499999726
                },
                {
                    "name": "F#3",
                    "midi": 54,
                    "time": 42.40467300000002,
                    "velocity": 0.2755905511811024,
                    "duration": 0.06598237499999726
                },
                {
                    "name": "B3",
                    "midi": 59,
                    "time": 42.58062600000002,
                    "velocity": 0.2755905511811024,
                    "duration": 0.06598237499999726
                },
                {
                    "name": "D4",
                    "midi": 62,
                    "time": 42.756579000000016,
                    "velocity": 0.2755905511811024,
                    "duration": 0.06598237499999726
                },
                {
                    "name": "B2",
                    "midi": 47,
                    "time": 42.932532000000016,
                    "velocity": 0.30708661417322836,
                    "duration": 0.06598237499999726
                },
                {
                    "name": "F#3",
                    "midi": 54,
                    "time": 43.108485000000016,
                    "velocity": 0.2677165354330709,
                    "duration": 0.06598237499999726
                },
                {
                    "name": "G#3",
                    "midi": 56,
                    "time": 43.284438000000016,
                    "velocity": 0.2677165354330709,
                    "duration": 0.06598237499999726
                },
                {
                    "name": "F#3",
                    "midi": 54,
                    "time": 43.460391000000016,
                    "velocity": 0.2677165354330709,
                    "duration": 0.06598237499999726
                },
                {
                    "name": "A2",
                    "midi": 45,
                    "time": 43.636344000000015,
                    "velocity": 0.3228346456692913,
                    "duration": 0.06598237499999726
                },
                {
                    "name": "F#3",
                    "midi": 54,
                    "time": 43.812297000000015,
                    "velocity": 0.2755905511811024,
                    "duration": 0.06598237499999726
                },
                {
                    "name": "A3",
                    "midi": 57,
                    "time": 43.988250000000015,
                    "velocity": 0.2755905511811024,
                    "duration": 0.06598237499999726
                },
                {
                    "name": "F#3",
                    "midi": 54,
                    "time": 44.164203000000015,
                    "velocity": 0.2677165354330709,
                    "duration": 0.06598237499999726
                },
                {
                    "name": "F#2",
                    "midi": 42,
                    "time": 44.340156000000015,
                    "velocity": 0.33858267716535434,
                    "duration": 0.06598237499999726
                },
                {
                    "name": "C#3",
                    "midi": 49,
                    "time": 44.516109000000014,
                    "velocity": 0.2755905511811024,
                    "duration": 0.06598237499999726
                },
                {
                    "name": "A3",
                    "midi": 57,
                    "time": 44.692062000000014,
                    "velocity": 0.2755905511811024,
                    "duration": 0.06598237499999726
                },
                {
                    "name": "C#3",
                    "midi": 49,
                    "time": 44.868015000000014,
                    "velocity": 0.2755905511811024,
                    "duration": 0.06598237499999726
                },
                {
                    "name": "C3",
                    "midi": 48,
                    "time": 45.043968000000014,
                    "velocity": 0.33070866141732286,
                    "duration": 0.06598237499999726
                },
                {
                    "name": "F#3",
                    "midi": 54,
                    "time": 45.219921000000014,
                    "velocity": 0.2755905511811024,
                    "duration": 0.06598237499999726
                },
                {
                    "name": "D#4",
                    "midi": 63,
                    "time": 45.39587400000001,
                    "velocity": 0.30708661417322836,
                    "duration": 0.06598237499999726
                },
                {
                    "name": "F#3",
                    "midi": 54,
                    "time": 45.57182700000001,
                    "velocity": 0.2755905511811024,
                    "duration": 0.06598237499999726
                },
                {
                    "name": "C#3",
                    "midi": 49,
                    "time": 45.74778000000001,
                    "velocity": 0.3228346456692913,
                    "duration": 0.06598237499999726
                },
                {
                    "name": "F#3",
                    "midi": 54,
                    "time": 45.92373300000001,
                    "velocity": 0.29133858267716534,
                    "duration": 0.06598237499999726
                },
                {
                    "name": "E4",
                    "midi": 64,
                    "time": 46.09968600000001,
                    "velocity": 0.33070866141732286,
                    "duration": 0.06598237499999726
                },
                {
                    "name": "F#3",
                    "midi": 54,
                    "time": 46.27563900000001,
                    "velocity": 0.2992125984251969,
                    "duration": 0.06598237499999726
                },
                {
                    "name": "D#3",
                    "midi": 51,
                    "time": 46.45159200000001,
                    "velocity": 0.3464566929133858,
                    "duration": 0.06598237499999726
                },
                {
                    "name": "F#3",
                    "midi": 54,
                    "time": 46.62754500000001,
                    "velocity": 0.31496062992125984,
                    "duration": 0.06598237499999726
                },
                {
                    "name": "C4",
                    "midi": 60,
                    "time": 46.80349800000001,
                    "velocity": 0.33858267716535434,
                    "duration": 0.06598237499999726
                },
                {
                    "name": "F#3",
                    "midi": 54,
                    "time": 46.97945100000001,
                    "velocity": 0.3543307086614173,
                    "duration": 0.06598237499999726
                },
                {
                    "name": "E3",
                    "midi": 52,
                    "time": 47.15540400000001,
                    "velocity": 0.3700787401574803,
                    "duration": 0.06598237499999726
                },
                {
                    "name": "F#3",
                    "midi": 54,
                    "time": 47.33135700000001,
                    "velocity": 0.3228346456692913,
                    "duration": 0.06598237499999726
                },
                {
                    "name": "C#4",
                    "midi": 61,
                    "time": 47.50731000000001,
                    "velocity": 0.3228346456692913,
                    "duration": 0.06598237499999726
                },
                {
                    "name": "F#3",
                    "midi": 54,
                    "time": 47.68326300000001,
                    "velocity": 0.3228346456692913,
                    "duration": 0.06598237499999726
                },
                {
                    "name": "D#3",
                    "midi": 51,
                    "time": 47.85921600000001,
                    "velocity": 0.3700787401574803,
                    "duration": 0.06598237499999726
                },
                {
                    "name": "F#3",
                    "midi": 54,
                    "time": 48.03516900000001,
                    "velocity": 0.3543307086614173,
                    "duration": 0.06598237499999726
                },
                {
                    "name": "C4",
                    "midi": 60,
                    "time": 48.21112200000001,
                    "velocity": 0.3543307086614173,
                    "duration": 0.06598237499999726
                },
                {
                    "name": "F#3",
                    "midi": 54,
                    "time": 48.38707500000001,
                    "velocity": 0.3543307086614173,
                    "duration": 0.06598237499999726
                },
                {
                    "name": "G#2",
                    "midi": 44,
                    "time": 48.56302800000001,
                    "velocity": 0.3700787401574803,
                    "duration": 0.06598237499999726
                },
                {
                    "name": "D#3",
                    "midi": 51,
                    "time": 48.73898100000001,
                    "velocity": 0.3543307086614173,
                    "duration": 0.06598237499999726
                },
                {
                    "name": "C4",
                    "midi": 60,
                    "time": 48.91493400000001,
                    "velocity": 0.3543307086614173,
                    "duration": 0.06598237499999726
                },
                {
                    "name": "D#3",
                    "midi": 51,
                    "time": 49.09088700000001,
                    "velocity": 0.3543307086614173,
                    "duration": 0.06598237499999726
                },
                {
                    "name": "G#2",
                    "midi": 44,
                    "time": 49.26684000000001,
                    "velocity": 0.3700787401574803,
                    "duration": 0.06598237499999726
                },
                {
                    "name": "D3",
                    "midi": 50,
                    "time": 49.44279300000001,
                    "velocity": 0.3464566929133858,
                    "duration": 0.06598237499999726
                },
                {
                    "name": "B3",
                    "midi": 59,
                    "time": 49.61874600000001,
                    "velocity": 0.3464566929133858,
                    "duration": 0.06598237499999726
                },
                {
                    "name": "D3",
                    "midi": 50,
                    "time": 49.79469900000001,
                    "velocity": 0.3464566929133858,
                    "duration": 0.06598237499999726
                },
                {
                    "name": "E2",
                    "midi": 40,
                    "time": 49.97065200000001,
                    "velocity": 0.3700787401574803,
                    "duration": 0.1759529999999998
                },
                {
                    "name": "D3",
                    "midi": 50,
                    "time": 50.14660500000001,
                    "velocity": 0.3228346456692913,
                    "duration": 0.1759529999999998
                },
                {
                    "name": "E3",
                    "midi": 52,
                    "time": 50.32255800000001,
                    "velocity": 0.3228346456692913,
                    "duration": 0.1759529999999998
                },
                {
                    "name": "G#3",
                    "midi": 56,
                    "time": 50.49851100000001,
                    "velocity": 0.3228346456692913,
                    "duration": 0.1759529999999998
                },
                {
                    "name": "C#4",
                    "midi": 61,
                    "time": 50.67446400000001,
                    "velocity": 0.3543307086614173,
                    "duration": 1.4054245875000007
                },
                {
                    "name": "G#3",
                    "midi": 56,
                    "time": 50.85041700000001,
                    "velocity": 0.3228346456692913,
                    "duration": 0.1759529999999998
                },
                {
                    "name": "D3",
                    "midi": 50,
                    "time": 51.02637000000001,
                    "velocity": 0.2992125984251969,
                    "duration": 0.1759529999999998
                },
                {
                    "name": "E2",
                    "midi": 40,
                    "time": 51.20232300000001,
                    "velocity": 0.28346456692913385,
                    "duration": 0.1759529999999998
                },
                {
                    "name": "C#2",
                    "midi": 37,
                    "time": 51.37827600000001,
                    "velocity": 0.31496062992125984,
                    "duration": 0.1759529999999998
                },
                {
                    "name": "G#2",
                    "midi": 44,
                    "time": 51.55422900000001,
                    "velocity": 0.29133858267716534,
                    "duration": 0.1759529999999998
                },
                {
                    "name": "F3",
                    "midi": 53,
                    "time": 51.730182000000006,
                    "velocity": 0.2992125984251969,
                    "duration": 0.1759529999999998
                },
                {
                    "name": "B3",
                    "midi": 59,
                    "time": 51.906135000000006,
                    "velocity": 0.2992125984251969,
                    "duration": 0.1759529999999998
                },
                {
                    "name": "F3",
                    "midi": 53,
                    "time": 52.433994000000006,
                    "velocity": 0.30708661417322836,
                    "duration": 0.1759529999999998
                },
                {
                    "name": "G#2",
                    "midi": 44,
                    "time": 52.609947000000005,
                    "velocity": 0.30708661417322836,
                    "duration": 0.1759529999999998
                },
                {
                    "name": "F4",
                    "midi": 65,
                    "time": 53.13780600000001,
                    "velocity": 0.2755905511811024,
                    "duration": 0.1759529999999998
                },
                {
                    "name": "G#3",
                    "midi": 56,
                    "time": 53.31375900000001,
                    "velocity": 0.25984251968503935,
                    "duration": 0.1759529999999998
                },
                {
                    "name": "F#3",
                    "midi": 54,
                    "time": 53.66566500000001,
                    "velocity": 0.2440944881889764,
                    "duration": 0.1759529999999998
                },
                {
                    "name": "C#4",
                    "midi": 61,
                    "time": 53.84161800000001,
                    "velocity": 0.2440944881889764,
                    "duration": 0.1759529999999998
                },
                {
                    "name": "A4",
                    "midi": 69,
                    "time": 54.01757100000001,
                    "velocity": 0.2440944881889764,
                    "duration": 0.1759529999999998
                },
                {
                    "name": "A3",
                    "midi": 57,
                    "time": 54.36947700000001,
                    "velocity": 0.23622047244094488,
                    "duration": 0.1759529999999998
                },
                {
                    "name": "D4",
                    "midi": 62,
                    "time": 54.54543000000001,
                    "velocity": 0.23622047244094488,
                    "duration": 0.1759529999999998
                },
                {
                    "name": "F#4",
                    "midi": 66,
                    "time": 54.54543000000001,
                    "velocity": 0.23622047244094488,
                    "duration": 0.1759529999999998
                },
                {
                    "name": "C5",
                    "midi": 72,
                    "time": 54.72138300000001,
                    "velocity": 0.23622047244094488,
                    "duration": 0.1759529999999998
                },
                {
                    "name": "C#4",
                    "midi": 61,
                    "time": 55.07328900000001,
                    "velocity": 0.2440944881889764,
                    "duration": 0.1759529999999998
                },
                {
                    "name": "F#4",
                    "midi": 66,
                    "time": 55.24924200000001,
                    "velocity": 0.2440944881889764,
                    "duration": 0.1759529999999998
                },
                {
                    "name": "E5",
                    "midi": 76,
                    "time": 55.42519500000001,
                    "velocity": 0.2440944881889764,
                    "duration": 0.1759529999999998
                },
                {
                    "name": "B3",
                    "midi": 59,
                    "time": 55.77710100000001,
                    "velocity": 0.2047244094488189,
                    "duration": 0.1759529999999998
                },
                {
                    "name": "F#4",
                    "midi": 66,
                    "time": 55.95305400000001,
                    "velocity": 0.18110236220472442,
                    "duration": 0.1759529999999998
                },
                {
                    "name": "D#5",
                    "midi": 75,
                    "time": 56.12900700000001,
                    "velocity": 0.1889763779527559,
                    "duration": 0.1759529999999998
                },
                {
                    "name": "F#3",
                    "midi": 54,
                    "time": 56.48091300000001,
                    "velocity": 0.2440944881889764,
                    "duration": 0.1759529999999998
                },
                {
                    "name": "C#4",
                    "midi": 61,
                    "time": 56.65686600000001,
                    "velocity": 0.2440944881889764,
                    "duration": 0.1759529999999998
                },
                {
                    "name": "A4",
                    "midi": 69,
                    "time": 56.83281900000001,
                    "velocity": 0.2440944881889764,
                    "duration": 0.1759529999999998
                },
                {
                    "name": "A3",
                    "midi": 57,
                    "time": 57.18472500000001,
                    "velocity": 0.23622047244094488,
                    "duration": 0.1759529999999998
                },
                {
                    "name": "D4",
                    "midi": 62,
                    "time": 57.36067800000001,
                    "velocity": 0.23622047244094488,
                    "duration": 0.1759529999999998
                },
                {
                    "name": "F#4",
                    "midi": 66,
                    "time": 57.36067800000001,
                    "velocity": 0.23622047244094488,
                    "duration": 0.1759529999999998
                },
                {
                    "name": "C5",
                    "midi": 72,
                    "time": 57.53663100000001,
                    "velocity": 0.23622047244094488,
                    "duration": 0.1759529999999998
                },
                {
                    "name": "C#4",
                    "midi": 61,
                    "time": 57.88853700000001,
                    "velocity": 0.2440944881889764,
                    "duration": 0.1759529999999998
                },
                {
                    "name": "F#4",
                    "midi": 66,
                    "time": 58.064490000000006,
                    "velocity": 0.2440944881889764,
                    "duration": 0.1759529999999998
                },
                {
                    "name": "E5",
                    "midi": 76,
                    "time": 58.240443000000006,
                    "velocity": 0.2440944881889764,
                    "duration": 0.1759529999999998
                },
                {
                    "name": "B3",
                    "midi": 59,
                    "time": 58.592349,
                    "velocity": 0.2047244094488189,
                    "duration": 0.1759529999999998
                },
                {
                    "name": "F#4",
                    "midi": 66,
                    "time": 58.768302,
                    "velocity": 0.18110236220472442,
                    "duration": 0.1759529999999998
                },
                {
                    "name": "D#5",
                    "midi": 75,
                    "time": 58.944255,
                    "velocity": 0.18110236220472442,
                    "duration": 0.1759529999999998
                },
                {
                    "name": "C#3",
                    "midi": 49,
                    "time": 59.29616099999999,
                    "velocity": 0.2125984251968504,
                    "duration": 0.1759529999999998
                },
                {
                    "name": "F#3",
                    "midi": 54,
                    "time": 59.47211399999999,
                    "velocity": 0.1889763779527559,
                    "duration": 0.1759529999999998
                },
                {
                    "name": "E4",
                    "midi": 64,
                    "time": 59.64806699999999,
                    "velocity": 0.1889763779527559,
                    "duration": 0.1759529999999998
                },
                {
                    "name": "B2",
                    "midi": 47,
                    "time": 59.99997299999999,
                    "velocity": 0.2125984251968504,
                    "duration": 0.1759529999999998
                },
                {
                    "name": "F#3",
                    "midi": 54,
                    "time": 60.17592599999999,
                    "velocity": 0.2204724409448819,
                    "duration": 0.1759529999999998
                },
                {
                    "name": "D#4",
                    "midi": 63,
                    "time": 60.35187899999999,
                    "velocity": 0.2125984251968504,
                    "duration": 0.1759529999999998
                },
                {
                    "name": "A2",
                    "midi": 45,
                    "time": 60.70378499999999,
                    "velocity": 0.28346456692913385,
                    "duration": 0.1759529999999998
                },
                {
                    "name": "F#3",
                    "midi": 54,
                    "time": 60.87973799999999,
                    "velocity": 0.28346456692913385,
                    "duration": 0.1759529999999998
                },
                {
                    "name": "C#4",
                    "midi": 61,
                    "time": 61.05569099999999,
                    "velocity": 0.28346456692913385,
                    "duration": 0.1759529999999998
                },
                {
                    "name": "G#2",
                    "midi": 44,
                    "time": 61.40759699999999,
                    "velocity": 0.28346456692913385,
                    "duration": 0.1759529999999998
                },
                {
                    "name": "E3",
                    "midi": 52,
                    "time": 61.58354999999999,
                    "velocity": 0.28346456692913385,
                    "duration": 0.1759529999999998
                },
                {
                    "name": "G#2",
                    "midi": 44,
                    "time": 61.75950299999999,
                    "velocity": 0.28346456692913385,
                    "duration": 0.1759529999999998
                },
                {
                    "name": "F#2",
                    "midi": 42,
                    "time": 62.11140899999999,
                    "velocity": 0.2755905511811024,
                    "duration": 0.1759529999999998
                },
                {
                    "name": "C#3",
                    "midi": 49,
                    "time": 62.28736199999999,
                    "velocity": 0.2755905511811024,
                    "duration": 0.1759529999999998
                },
                {
                    "name": "F#2",
                    "midi": 42,
                    "time": 62.46331499999999,
                    "velocity": 0.2755905511811024,
                    "duration": 0.1759529999999998
                },
                {
                    "name": "B1",
                    "midi": 35,
                    "time": 62.81522099999999,
                    "velocity": 0.25984251968503935,
                    "duration": 0.1759529999999998
                },
                {
                    "name": "B2",
                    "midi": 47,
                    "time": 62.99117399999999,
                    "velocity": 0.25984251968503935,
                    "duration": 0.1759529999999998
                },
                {
                    "name": "B1",
                    "midi": 35,
                    "time": 63.16712699999999,
                    "velocity": 0.25984251968503935,
                    "duration": 0.1759529999999998
                },
                {
                    "name": "E2",
                    "midi": 40,
                    "time": 63.343079999999986,
                    "velocity": 0.2755905511811024,
                    "duration": 0.1759529999999998
                },
                {
                    "name": "B2",
                    "midi": 47,
                    "time": 63.519032999999986,
                    "velocity": 0.2677165354330709,
                    "duration": 0.1759529999999998
                },
                {
                    "name": "E3",
                    "midi": 52,
                    "time": 63.694985999999986,
                    "velocity": 0.2677165354330709,
                    "duration": 0.1759529999999998
                },
                {
                    "name": "G#3",
                    "midi": 56,
                    "time": 63.870938999999986,
                    "velocity": 0.2677165354330709,
                    "duration": 0.1759529999999998
                },
                {
                    "name": "B3",
                    "midi": 59,
                    "time": 64.04689199999999,
                    "velocity": 0.29133858267716534,
                    "duration": 0.1759530000000069
                },
                {
                    "name": "E4",
                    "midi": 64,
                    "time": 64.22284499999999,
                    "velocity": 0.2755905511811024,
                    "duration": 0.1759530000000069
                },
                {
                    "name": "G3",
                    "midi": 55,
                    "time": 64.926657,
                    "velocity": 0.28346456692913385,
                    "duration": 0.1759530000000069
                },
                {
                    "name": "C#4",
                    "midi": 61,
                    "time": 65.10261000000001,
                    "velocity": 0.28346456692913385,
                    "duration": 0.1759530000000069
                },
                {
                    "name": "E4",
                    "midi": 64,
                    "time": 65.27856300000002,
                    "velocity": 0.28346456692913385,
                    "duration": 0.1759529999999927
                },
                {
                    "name": "G#3",
                    "midi": 56,
                    "time": 65.630469,
                    "velocity": 0.25196850393700787,
                    "duration": 0.1759530000000069
                },
                {
                    "name": "B3",
                    "midi": 59,
                    "time": 65.80642200000001,
                    "velocity": 0.2204724409448819,
                    "duration": 0.1759530000000069
                },
                {
                    "name": "D#4",
                    "midi": 63,
                    "time": 65.98237500000002,
                    "velocity": 0.2204724409448819,
                    "duration": 0.1759530000000069
                },
                {
                    "name": "C#3",
                    "midi": 49,
                    "time": 66.33428100000002,
                    "velocity": 0.28346456692913385,
                    "duration": 0.1759530000000069
                },
                {
                    "name": "G#3",
                    "midi": 56,
                    "time": 66.51023400000003,
                    "velocity": 0.28346456692913385,
                    "duration": 0.1759530000000069
                },
                {
                    "name": "C#4",
                    "midi": 61,
                    "time": 66.68618700000003,
                    "velocity": 0.28346456692913385,
                    "duration": 0.1759530000000069
                },
                {
                    "name": "G#2",
                    "midi": 44,
                    "time": 67.03809300000005,
                    "velocity": 0.28346456692913385,
                    "duration": 0.1759530000000069
                },
                {
                    "name": "D#3",
                    "midi": 51,
                    "time": 67.21404600000005,
                    "velocity": 0.28346456692913385,
                    "duration": 0.1759530000000069
                },
                {
                    "name": "G#3",
                    "midi": 56,
                    "time": 67.38999900000006,
                    "velocity": 0.28346456692913385,
                    "duration": 0.1759530000000069
                },
                {
                    "name": "F#2",
                    "midi": 42,
                    "time": 67.74190500000007,
                    "velocity": 0.2755905511811024,
                    "duration": 0.1759530000000069
                },
                {
                    "name": "C#3",
                    "midi": 49,
                    "time": 67.91785800000008,
                    "velocity": 0.2755905511811024,
                    "duration": 0.1759530000000069
                },
                {
                    "name": "F#2",
                    "midi": 42,
                    "time": 68.09381100000009,
                    "velocity": 0.2755905511811024,
                    "duration": 0.1759530000000069
                },
                {
                    "name": "E2",
                    "midi": 40,
                    "time": 68.4457170000001,
                    "velocity": 0.28346456692913385,
                    "duration": 0.1759530000000069
                },
                {
                    "name": "C#3",
                    "midi": 49,
                    "time": 68.62167000000011,
                    "velocity": 0.28346456692913385,
                    "duration": 0.1759530000000069
                },
                {
                    "name": "E2",
                    "midi": 40,
                    "time": 68.79762300000012,
                    "velocity": 0.28346456692913385,
                    "duration": 0.1759530000000069
                },
                {
                    "name": "D#2",
                    "midi": 39,
                    "time": 68.97357600000012,
                    "velocity": 0.31496062992125984,
                    "duration": 0.1759529999999927
                },
                {
                    "name": "B2",
                    "midi": 47,
                    "time": 69.14952900000011,
                    "velocity": 0.28346456692913385,
                    "duration": 0.1759530000000069
                },
                {
                    "name": "D#3",
                    "midi": 51,
                    "time": 69.32548200000012,
                    "velocity": 0.28346456692913385,
                    "duration": 0.1759529999999927
                },
                {
                    "name": "F#3",
                    "midi": 54,
                    "time": 69.50143500000011,
                    "velocity": 0.28346456692913385,
                    "duration": 0.1759530000000069
                },
                {
                    "name": "B3",
                    "midi": 59,
                    "time": 69.67738800000012,
                    "velocity": 0.33070866141732286,
                    "duration": 0.1759530000000069
                },
                {
                    "name": "D#4",
                    "midi": 63,
                    "time": 69.85334100000013,
                    "velocity": 0.2992125984251969,
                    "duration": 0.1759530000000069
                },
                {
                    "name": "F#4",
                    "midi": 66,
                    "time": 70.02929400000014,
                    "velocity": 0.33858267716535434,
                    "duration": 0.1759530000000069
                },
                {
                    "name": "B4",
                    "midi": 71,
                    "time": 70.20524700000014,
                    "velocity": 0.36220472440944884,
                    "duration": 0.1759530000000069
                },
                {
                    "name": "C#4",
                    "midi": 61,
                    "time": 70.55715300000016,
                    "velocity": 0.2992125984251969,
                    "duration": 0.1759530000000069
                },
                {
                    "name": "E4",
                    "midi": 64,
                    "time": 70.73310600000016,
                    "velocity": 0.25984251968503935,
                    "duration": 0.1759530000000069
                },
                {
                    "name": "G#4",
                    "midi": 68,
                    "time": 70.90905900000017,
                    "velocity": 0.25984251968503935,
                    "duration": 0.1759530000000069
                },
                {
                    "name": "B3",
                    "midi": 59,
                    "time": 71.26096500000018,
                    "velocity": 0.29133858267716534,
                    "duration": 0.1759530000000069
                },
                {
                    "name": "E4",
                    "midi": 64,
                    "time": 71.43691800000019,
                    "velocity": 0.25196850393700787,
                    "duration": 0.1759530000000069
                },
                {
                    "name": "G#4",
                    "midi": 68,
                    "time": 71.6128710000002,
                    "velocity": 0.25196850393700787,
                    "duration": 0.1759530000000069
                },
                {
                    "name": "A#3",
                    "midi": 58,
                    "time": 71.96477700000021,
                    "velocity": 0.2992125984251969,
                    "duration": 0.1759530000000069
                },
                {
                    "name": "E4",
                    "midi": 64,
                    "time": 72.14073000000022,
                    "velocity": 0.2677165354330709,
                    "duration": 0.1759530000000069
                },
                {
                    "name": "G#4",
                    "midi": 68,
                    "time": 72.31668300000022,
                    "velocity": 0.2677165354330709,
                    "duration": 0.1759530000000069
                },
                {
                    "name": "G#3",
                    "midi": 56,
                    "time": 72.66858900000024,
                    "velocity": 0.25984251968503935,
                    "duration": 0.1759530000000069
                },
                {
                    "name": "E4",
                    "midi": 64,
                    "time": 72.84454200000025,
                    "velocity": 0.25984251968503935,
                    "duration": 0.1759530000000069
                },
                {
                    "name": "B4",
                    "midi": 71,
                    "time": 73.02049500000025,
                    "velocity": 0.25196850393700787,
                    "duration": 0.1759530000000069
                },
                {
                    "name": "C#4",
                    "midi": 61,
                    "time": 73.37240100000027,
                    "velocity": 0.29133858267716534,
                    "duration": 0.1759530000000069
                },
                {
                    "name": "E4",
                    "midi": 64,
                    "time": 73.54835400000027,
                    "velocity": 0.25984251968503935,
                    "duration": 0.1759530000000069
                },
                {
                    "name": "G#4",
                    "midi": 68,
                    "time": 73.72430700000028,
                    "velocity": 0.25984251968503935,
                    "duration": 0.1759530000000069
                },
                {
                    "name": "B3",
                    "midi": 59,
                    "time": 74.0762130000003,
                    "velocity": 0.28346456692913385,
                    "duration": 0.1759530000000069
                },
                {
                    "name": "E4",
                    "midi": 64,
                    "time": 74.2521660000003,
                    "velocity": 0.25196850393700787,
                    "duration": 0.1759530000000069
                },
                {
                    "name": "G#4",
                    "midi": 68,
                    "time": 74.42811900000031,
                    "velocity": 0.25196850393700787,
                    "duration": 0.1759530000000069
                },
                {
                    "name": "A#3",
                    "midi": 58,
                    "time": 74.78002500000032,
                    "velocity": 0.29133858267716534,
                    "duration": 0.1759530000000069
                },
                {
                    "name": "E4",
                    "midi": 64,
                    "time": 74.95597800000033,
                    "velocity": 0.2677165354330709,
                    "duration": 0.1759529999999927
                },
                {
                    "name": "G#4",
                    "midi": 68,
                    "time": 75.13193100000032,
                    "velocity": 0.2677165354330709,
                    "duration": 0.1759530000000069
                },
                {
                    "name": "F#3",
                    "midi": 54,
                    "time": 75.48383700000032,
                    "velocity": 0.2992125984251969,
                    "duration": 0.1759530000000069
                },
                {
                    "name": "C#4",
                    "midi": 61,
                    "time": 75.65979000000033,
                    "velocity": 0.25984251968503935,
                    "duration": 0.1759530000000069
                },
                {
                    "name": "F#4",
                    "midi": 66,
                    "time": 75.83574300000033,
                    "velocity": 0.25984251968503935,
                    "duration": 0.1759530000000069
                },
                {
                    "name": "B3",
                    "midi": 59,
                    "time": 76.18764900000035,
                    "velocity": 0.2992125984251969,
                    "duration": 0.1759530000000069
                },
                {
                    "name": "D4",
                    "midi": 62,
                    "time": 76.36360200000036,
                    "velocity": 0.25984251968503935,
                    "duration": 0.1759530000000069
                },
                {
                    "name": "F#4",
                    "midi": 66,
                    "time": 76.53955500000036,
                    "velocity": 0.25984251968503935,
                    "duration": 0.1759530000000069
                },
                {
                    "name": "A3",
                    "midi": 57,
                    "time": 76.89146100000038,
                    "velocity": 0.29133858267716534,
                    "duration": 0.1759530000000069
                },
                {
                    "name": "D4",
                    "midi": 62,
                    "time": 77.06741400000038,
                    "velocity": 0.25196850393700787,
                    "duration": 0.1759530000000069
                },
                {
                    "name": "F#4",
                    "midi": 66,
                    "time": 77.24336700000039,
                    "velocity": 0.25196850393700787,
                    "duration": 0.1759530000000069
                },
                {
                    "name": "G#3",
                    "midi": 56,
                    "time": 77.5952730000004,
                    "velocity": 0.2992125984251969,
                    "duration": 0.1759530000000069
                },
                {
                    "name": "D4",
                    "midi": 62,
                    "time": 77.77122600000041,
                    "velocity": 0.2677165354330709,
                    "duration": 0.1759530000000069
                },
                {
                    "name": "F#4",
                    "midi": 66,
                    "time": 77.94717900000042,
                    "velocity": 0.2677165354330709,
                    "duration": 0.1759530000000069
                },
                {
                    "name": "F#3",
                    "midi": 54,
                    "time": 78.29908500000043,
                    "velocity": 0.29133858267716534,
                    "duration": 0.1759530000000069
                },
                {
                    "name": "D4",
                    "midi": 62,
                    "time": 78.47503800000044,
                    "velocity": 0.28346456692913385,
                    "duration": 0.1759530000000069
                },
                {
                    "name": "A4",
                    "midi": 69,
                    "time": 78.65099100000045,
                    "velocity": 0.2677165354330709,
                    "duration": 0.1759530000000069
                },
                {
                    "name": "B3",
                    "midi": 59,
                    "time": 79.00289700000046,
                    "velocity": 0.29133858267716534,
                    "duration": 0.1759530000000069
                },
                {
                    "name": "D4",
                    "midi": 62,
                    "time": 79.17885000000047,
                    "velocity": 0.25984251968503935,
                    "duration": 0.1759530000000069
                },
                {
                    "name": "F#4",
                    "midi": 66,
                    "time": 79.35480300000047,
                    "velocity": 0.25984251968503935,
                    "duration": 0.1759530000000069
                },
                {
                    "name": "A3",
                    "midi": 57,
                    "time": 79.70670900000049,
                    "velocity": 0.29133858267716534,
                    "duration": 0.1759530000000069
                },
                {
                    "name": "D4",
                    "midi": 62,
                    "time": 79.8826620000005,
                    "velocity": 0.25196850393700787,
                    "duration": 0.1759530000000069
                },
                {
                    "name": "F#4",
                    "midi": 66,
                    "time": 80.0586150000005,
                    "velocity": 0.25196850393700787,
                    "duration": 0.1759530000000069
                },
                {
                    "name": "G#3",
                    "midi": 56,
                    "time": 80.41052100000051,
                    "velocity": 0.30708661417322836,
                    "duration": 0.1759530000000069
                },
                {
                    "name": "D4",
                    "midi": 62,
                    "time": 80.58647400000052,
                    "velocity": 0.31496062992125984,
                    "duration": 0.1759529999999927
                },
                {
                    "name": "F#4",
                    "midi": 66,
                    "time": 80.76242700000051,
                    "velocity": 0.31496062992125984,
                    "duration": 0.1759530000000069
                },
                {
                    "name": "E3",
                    "midi": 52,
                    "time": 81.11433300000051,
                    "velocity": 0.3543307086614173,
                    "duration": 0.1759530000000069
                },
                {
                    "name": "B3",
                    "midi": 59,
                    "time": 81.29028600000052,
                    "velocity": 0.30708661417322836,
                    "duration": 0.1759530000000069
                },
                {
                    "name": "E3",
                    "midi": 52,
                    "time": 81.46623900000053,
                    "velocity": 0.30708661417322836,
                    "duration": 0.1759530000000069
                },
                {
                    "name": "A2",
                    "midi": 45,
                    "time": 81.64219200000053,
                    "velocity": 0.4330708661417323,
                    "duration": 0.06598237500000437
                },
                {
                    "name": "E3",
                    "midi": 52,
                    "time": 81.81814500000054,
                    "velocity": 0.4015748031496063,
                    "duration": 0.06598237500000437
                },
                {
                    "name": "A3",
                    "midi": 57,
                    "time": 81.99409800000055,
                    "velocity": 0.4015748031496063,
                    "duration": 0.06598237500000437
                },
                {
                    "name": "C#4",
                    "midi": 61,
                    "time": 82.17005100000056,
                    "velocity": 0.4015748031496063,
                    "duration": 0.06598237500000437
                },
                {
                    "name": "C#4",
                    "midi": 61,
                    "time": 82.34600400000056,
                    "velocity": 0.4330708661417323,
                    "duration": 0.06598237500000437
                },
                {
                    "name": "A3",
                    "midi": 57,
                    "time": 82.52195700000057,
                    "velocity": 0.3937007874015748,
                    "duration": 0.06598237500000437
                },
                {
                    "name": "E3",
                    "midi": 52,
                    "time": 82.69791000000058,
                    "velocity": 0.3937007874015748,
                    "duration": 0.06598237500000437
                },
                {
                    "name": "A2",
                    "midi": 45,
                    "time": 82.87386300000058,
                    "velocity": 0.3937007874015748,
                    "duration": 0.06598237500000437
                },
                {
                    "name": "F#2",
                    "midi": 42,
                    "time": 83.04981600000059,
                    "velocity": 0.47244094488188976,
                    "duration": 0.06598237500000437
                },
                {
                    "name": "C#3",
                    "midi": 49,
                    "time": 83.2257690000006,
                    "velocity": 0.4251968503937008,
                    "duration": 0.06598237500000437
                },
                {
                    "name": "F#3",
                    "midi": 54,
                    "time": 83.4017220000006,
                    "velocity": 0.4409448818897638,
                    "duration": 0.06598237500000437
                },
                {
                    "name": "C#4",
                    "midi": 61,
                    "time": 83.57767500000061,
                    "velocity": 0.4251968503937008,
                    "duration": 0.06598237500000437
                },
                {
                    "name": "C#4",
                    "midi": 61,
                    "time": 83.75362800000062,
                    "velocity": 0.47244094488188976,
                    "duration": 0.06598237500000437
                },
                {
                    "name": "F#3",
                    "midi": 54,
                    "time": 83.92958100000062,
                    "velocity": 0.4330708661417323,
                    "duration": 0.06598237500000437
                },
                {
                    "name": "C#3",
                    "midi": 49,
                    "time": 84.10553400000063,
                    "velocity": 0.44881889763779526,
                    "duration": 0.06598237500000437
                },
                {
                    "name": "F#2",
                    "midi": 42,
                    "time": 84.28148700000064,
                    "velocity": 0.4330708661417323,
                    "duration": 0.06598237500000437
                },
                {
                    "name": "A2",
                    "midi": 45,
                    "time": 84.45744000000064,
                    "velocity": 0.4330708661417323,
                    "duration": 0.06598237500000437
                },
                {
                    "name": "E3",
                    "midi": 52,
                    "time": 84.63339300000065,
                    "velocity": 0.4015748031496063,
                    "duration": 0.06598237500000437
                },
                {
                    "name": "A3",
                    "midi": 57,
                    "time": 84.80934600000066,
                    "velocity": 0.4015748031496063,
                    "duration": 0.06598237500000437
                },
                {
                    "name": "C#4",
                    "midi": 61,
                    "time": 84.98529900000067,
                    "velocity": 0.4015748031496063,
                    "duration": 0.06598237500000437
                },
                {
                    "name": "C#4",
                    "midi": 61,
                    "time": 85.16125200000067,
                    "velocity": 0.44881889763779526,
                    "duration": 0.06598237500000437
                },
                {
                    "name": "A3",
                    "midi": 57,
                    "time": 85.33720500000068,
                    "velocity": 0.4094488188976378,
                    "duration": 0.06598237500000437
                },
                {
                    "name": "E3",
                    "midi": 52,
                    "time": 85.51315800000069,
                    "velocity": 0.44881889763779526,
                    "duration": 0.06598237500000437
                },
                {
                    "name": "A2",
                    "midi": 45,
                    "time": 85.6891110000007,
                    "velocity": 0.4251968503937008,
                    "duration": 0.06598237500000437
                },
                {
                    "name": "D2",
                    "midi": 38,
                    "time": 85.8650640000007,
                    "velocity": 0.47244094488188976,
                    "duration": 0.06598237500000437
                },
                {
                    "name": "A2",
                    "midi": 45,
                    "time": 86.0410170000007,
                    "velocity": 0.4330708661417323,
                    "duration": 0.06598237500000437
                },
                {
                    "name": "D3",
                    "midi": 50,
                    "time": 86.21697000000071,
                    "velocity": 0.44881889763779526,
                    "duration": 0.06598237500000437
                },
                {
                    "name": "F#3",
                    "midi": 54,
                    "time": 86.39292300000072,
                    "velocity": 0.4330708661417323,
                    "duration": 0.06598237500000437
                },
                {
                    "name": "F#3",
                    "midi": 54,
                    "time": 86.56887600000073,
                    "velocity": 0.47244094488188976,
                    "duration": 0.06598237500000437
                },
                {
                    "name": "D3",
                    "midi": 50,
                    "time": 86.74482900000073,
                    "velocity": 0.4409448818897638,
                    "duration": 0.06598237500000437
                },
                {
                    "name": "A2",
                    "midi": 45,
                    "time": 86.92078200000074,
                    "velocity": 0.4566929133858268,
                    "duration": 0.06598237500000437
                },
                {
                    "name": "D2",
                    "midi": 38,
                    "time": 87.09673500000075,
                    "velocity": 0.4409448818897638,
                    "duration": 0.06598237500000437
                },
                {
                    "name": "G2",
                    "midi": 43,
                    "time": 87.27268800000076,
                    "velocity": 0.2283464566929134,
                    "duration": 0.06598237500000437
                },
                {
                    "name": "D3",
                    "midi": 50,
                    "time": 87.44864100000076,
                    "velocity": 0.2125984251968504,
                    "duration": 0.06598237500000437
                },
                {
                    "name": "G3",
                    "midi": 55,
                    "time": 87.62459400000077,
                    "velocity": 0.2125984251968504,
                    "duration": 0.06598237500000437
                },
                {
                    "name": "D3",
                    "midi": 50,
                    "time": 87.80054700000078,
                    "velocity": 0.2125984251968504,
                    "duration": 0.06598237500000437
                },
                {
                    "name": "G2",
                    "midi": 43,
                    "time": 87.97650000000078,
                    "velocity": 0.2283464566929134,
                    "duration": 0.06598237500000437
                },
                {
                    "name": "D3",
                    "midi": 50,
                    "time": 88.15245300000079,
                    "velocity": 0.2047244094488189,
                    "duration": 0.06598237500000437
                },
                {
                    "name": "G3",
                    "midi": 55,
                    "time": 88.3284060000008,
                    "velocity": 0.2047244094488189,
                    "duration": 0.06598237500000437
                },
                {
                    "name": "D3",
                    "midi": 50,
                    "time": 88.5043590000008,
                    "velocity": 0.2047244094488189,
                    "duration": 0.06598237500000437
                },
                {
                    "name": "D2",
                    "midi": 38,
                    "time": 88.68031200000081,
                    "velocity": 0.2283464566929134,
                    "duration": 0.06598237500000437
                },
                {
                    "name": "A2",
                    "midi": 45,
                    "time": 88.85626500000082,
                    "velocity": 0.2125984251968504,
                    "duration": 0.06598237500000437
                },
                {
                    "name": "F3",
                    "midi": 53,
                    "time": 89.03221800000082,
                    "velocity": 0.2125984251968504,
                    "duration": 0.06598237500000437
                },
                {
                    "name": "A2",
                    "midi": 45,
                    "time": 89.20817100000083,
                    "velocity": 0.2125984251968504,
                    "duration": 0.06598237500000437
                },
                {
                    "name": "F2",
                    "midi": 41,
                    "time": 89.38412400000084,
                    "velocity": 0.2283464566929134,
                    "duration": 0.06598237500000437
                },
                {
                    "name": "C3",
                    "midi": 48,
                    "time": 89.56007700000085,
                    "velocity": 0.2125984251968504,
                    "duration": 0.06598237500000437
                },
                {
                    "name": "A3",
                    "midi": 57,
                    "time": 89.73603000000085,
                    "velocity": 0.2125984251968504,
                    "duration": 0.06598237500000437
                },
                {
                    "name": "C3",
                    "midi": 48,
                    "time": 89.91198300000086,
                    "velocity": 0.2125984251968504,
                    "duration": 0.06598237500000437
                },
                {
                    "name": "G2",
                    "midi": 43,
                    "time": 90.08793600000087,
                    "velocity": 0.2283464566929134,
                    "duration": 0.06598237500000437
                },
                {
                    "name": "D3",
                    "midi": 50,
                    "time": 90.26388900000087,
                    "velocity": 0.2125984251968504,
                    "duration": 0.06598237500000437
                },
                {
                    "name": "G3",
                    "midi": 55,
                    "time": 90.43984200000088,
                    "velocity": 0.2125984251968504,
                    "duration": 0.06598237500000437
                },
                {
                    "name": "D3",
                    "midi": 50,
                    "time": 90.61579500000089,
                    "velocity": 0.2125984251968504,
                    "duration": 0.06598237500000437
                },
                {
                    "name": "F2",
                    "midi": 41,
                    "time": 90.7917480000009,
                    "velocity": 0.23622047244094488,
                    "duration": 0.06598237500000437
                },
                {
                    "name": "D3",
                    "midi": 50,
                    "time": 90.9677010000009,
                    "velocity": 0.2204724409448819,
                    "duration": 0.06598237500000437
                },
                {
                    "name": "G3",
                    "midi": 55,
                    "time": 91.14365400000091,
                    "velocity": 0.2283464566929134,
                    "duration": 0.06598237500000437
                },
                {
                    "name": "D3",
                    "midi": 50,
                    "time": 91.31960700000091,
                    "velocity": 0.2440944881889764,
                    "duration": 0.06598237500000437
                },
                {
                    "name": "E2",
                    "midi": 40,
                    "time": 91.49556000000092,
                    "velocity": 0.2755905511811024,
                    "duration": 0.1759529999999927
                },
                {
                    "name": "B2",
                    "midi": 47,
                    "time": 91.67151300000091,
                    "velocity": 0.30708661417322836,
                    "duration": 0.1759530000000069
                },
                {
                    "name": "E3",
                    "midi": 52,
                    "time": 91.84746600000092,
                    "velocity": 0.31496062992125984,
                    "duration": 0.1759530000000069
                },
                {
                    "name": "G#3",
                    "midi": 56,
                    "time": 92.02341900000093,
                    "velocity": 0.3228346456692913,
                    "duration": 0.13196474999999452
                },
                {
                    "name": "E3",
                    "midi": 52,
                    "time": 92.19937200000092,
                    "velocity": 0.36220472440944884,
                    "duration": 0.1759530000000069
                },
                {
                    "name": "G#3",
                    "midi": 56,
                    "time": 92.37532500000093,
                    "velocity": 0.3937007874015748,
                    "duration": 0.1759530000000069
                },
                {
                    "name": "B3",
                    "midi": 59,
                    "time": 92.55127800000093,
                    "velocity": 0.4251968503937008,
                    "duration": 0.1759530000000069
                },
                {
                    "name": "E4",
                    "midi": 64,
                    "time": 92.72723100000094,
                    "velocity": 0.44881889763779526,
                    "duration": 0.1759530000000069
                },
                {
                    "name": "A3",
                    "midi": 57,
                    "time": 92.90318400000095,
                    "velocity": 0.47244094488188976,
                    "duration": 0.06598237500000437
                },
                {
                    "name": "C#4",
                    "midi": 61,
                    "time": 93.07913700000096,
                    "velocity": 0.4409448818897638,
                    "duration": 0.06598237500000437
                },
                {
                    "name": "E4",
                    "midi": 64,
                    "time": 93.25509000000096,
                    "velocity": 0.4409448818897638,
                    "duration": 0.06598237500000437
                },
                {
                    "name": "C#4",
                    "midi": 61,
                    "time": 93.43104300000097,
                    "velocity": 0.4409448818897638,
                    "duration": 0.06598237500000437
                },
                {
                    "name": "G#3",
                    "midi": 56,
                    "time": 93.60699600000098,
                    "velocity": 0.47244094488188976,
                    "duration": 0.06598237500000437
                },
                {
                    "name": "C#4",
                    "midi": 61,
                    "time": 93.78294900000098,
                    "velocity": 0.4330708661417323,
                    "duration": 0.06598237500000437
                },
                {
                    "name": "E4",
                    "midi": 64,
                    "time": 93.95890200000099,
                    "velocity": 0.4330708661417323,
                    "duration": 0.06598237500000437
                },
                {
                    "name": "C#4",
                    "midi": 61,
                    "time": 94.134855000001,
                    "velocity": 0.4330708661417323,
                    "duration": 0.06598237500000437
                },
                {
                    "name": "F#3",
                    "midi": 54,
                    "time": 94.310808000001,
                    "velocity": 0.5196850393700787,
                    "duration": 0.06598237500000437
                },
                {
                    "name": "C#4",
                    "midi": 61,
                    "time": 94.48676100000101,
                    "velocity": 0.4566929133858268,
                    "duration": 0.06598237500000437
                },
                {
                    "name": "F#4",
                    "midi": 66,
                    "time": 94.66271400000102,
                    "velocity": 0.48031496062992124,
                    "duration": 0.06598237500000437
                },
                {
                    "name": "C#4",
                    "midi": 61,
                    "time": 94.83866700000102,
                    "velocity": 0.4566929133858268,
                    "duration": 0.06598237500000437
                },
                {
                    "name": "F#3",
                    "midi": 54,
                    "time": 95.01462000000103,
                    "velocity": 0.5196850393700787,
                    "duration": 0.06598237500000437
                },
                {
                    "name": "A3",
                    "midi": 57,
                    "time": 95.19057300000104,
                    "velocity": 0.47244094488188976,
                    "duration": 0.06598237500000437
                },
                {
                    "name": "F#4",
                    "midi": 66,
                    "time": 95.36652600000104,
                    "velocity": 0.4881889763779528,
                    "duration": 0.06598237500000437
                },
                {
                    "name": "A3",
                    "midi": 57,
                    "time": 95.54247900000105,
                    "velocity": 0.47244094488188976,
                    "duration": 0.06598237500000437
                },
                {
                    "name": "A2",
                    "midi": 45,
                    "time": 95.71843200000106,
                    "velocity": 0.47244094488188976,
                    "duration": 0.06598237500000437
                },
                {
                    "name": "E3",
                    "midi": 52,
                    "time": 95.89438500000107,
                    "velocity": 0.4409448818897638,
                    "duration": 0.06598237500000437
                },
                {
                    "name": "C#4",
                    "midi": 61,
                    "time": 96.07033800000107,
                    "velocity": 0.4409448818897638,
                    "duration": 0.06598237500000437
                },
                {
                    "name": "E3",
                    "midi": 52,
                    "time": 96.24629100000108,
                    "velocity": 0.4409448818897638,
                    "duration": 0.06598237500000437
                },
                {
                    "name": "F#2",
                    "midi": 42,
                    "time": 96.42224400000109,
                    "velocity": 0.4881889763779528,
                    "duration": 0.06598237500000437
                },
                {
                    "name": "C#3",
                    "midi": 49,
                    "time": 96.5981970000011,
                    "velocity": 0.44881889763779526,
                    "duration": 0.06598237500000437
                },
                {
                    "name": "A3",
                    "midi": 57,
                    "time": 96.7741500000011,
                    "velocity": 0.4881889763779528,
                    "duration": 0.06598237500000437
                },
                {
                    "name": "C#3",
                    "midi": 49,
                    "time": 96.9501030000011,
                    "velocity": 0.4566929133858268,
                    "duration": 0.06598237500000437
                },
                {
                    "name": "B1",
                    "midi": 35,
                    "time": 97.12605600000111,
                    "velocity": 0.49606299212598426,
                    "duration": 0.06598237500000437
                },
                {
                    "name": "F#2",
                    "midi": 42,
                    "time": 97.30200900000112,
                    "velocity": 0.44881889763779526,
                    "duration": 0.06598237500000437
                },
                {
                    "name": "B2",
                    "midi": 47,
                    "time": 97.47796200000113,
                    "velocity": 0.48031496062992124,
                    "duration": 0.06598237500000437
                },
                {
                    "name": "F#2",
                    "midi": 42,
                    "time": 97.65391500000113,
                    "velocity": 0.44881889763779526,
                    "duration": 0.06598237500000437
                },
                {
                    "name": "F#2",
                    "midi": 42,
                    "time": 97.82986800000114,
                    "velocity": 0.4881889763779528,
                    "duration": 0.06598237500000437
                },
                {
                    "name": "B2",
                    "midi": 47,
                    "time": 98.00582100000115,
                    "velocity": 0.44881889763779526,
                    "duration": 0.06598237500000437
                },
                {
                    "name": "F#3",
                    "midi": 54,
                    "time": 98.18177400000116,
                    "velocity": 0.48031496062992124,
                    "duration": 0.06598237500000437
                },
                {
                    "name": "B2",
                    "midi": 47,
                    "time": 98.35772700000116,
                    "velocity": 0.44881889763779526,
                    "duration": 0.06598237500000437
                },
                {
                    "name": "B2",
                    "midi": 47,
                    "time": 98.53368000000117,
                    "velocity": 0.4251968503937008,
                    "duration": 0.06598237500000437
                },
                {
                    "name": "F#3",
                    "midi": 54,
                    "time": 98.70963300000118,
                    "velocity": 0.3464566929133858,
                    "duration": 0.06598237500000437
                },
                {
                    "name": "B3",
                    "midi": 59,
                    "time": 98.88558600000118,
                    "velocity": 0.3464566929133858,
                    "duration": 0.06598237500000437
                },
                {
                    "name": "F#3",
                    "midi": 54,
                    "time": 99.06153900000119,
                    "velocity": 0.3464566929133858,
                    "duration": 0.06598237500000437
                },
                {
                    "name": "F#2",
                    "midi": 42,
                    "time": 99.2374920000012,
                    "velocity": 0.4015748031496063,
                    "duration": 0.06598237500000437
                },
                {
                    "name": "C#3",
                    "midi": 49,
                    "time": 99.4134450000012,
                    "velocity": 0.3543307086614173,
                    "duration": 0.06598237500000437
                },
                {
                    "name": "F#3",
                    "midi": 54,
                    "time": 99.58939800000121,
                    "velocity": 0.3543307086614173,
                    "duration": 0.06598237500000437
                },
                {
                    "name": "C#3",
                    "midi": 49,
                    "time": 99.76535100000122,
                    "velocity": 0.3543307086614173,
                    "duration": 0.06598237500000437
                },
                {
                    "name": "B2",
                    "midi": 47,
                    "time": 99.94130400000122,
                    "velocity": 0.4330708661417323,
                    "duration": 0.06598237500000437
                },
                {
                    "name": "F#3",
                    "midi": 54,
                    "time": 100.11725700000123,
                    "velocity": 0.3937007874015748,
                    "duration": 0.06598237500000437
                },
                {
                    "name": "B3",
                    "midi": 59,
                    "time": 100.29321000000124,
                    "velocity": 0.3937007874015748,
                    "duration": 0.06598237500000437
                },
                {
                    "name": "F#3",
                    "midi": 54,
                    "time": 100.46916300000125,
                    "velocity": 0.3937007874015748,
                    "duration": 0.06598237500000437
                },
                {
                    "name": "F#2",
                    "midi": 42,
                    "time": 100.64511600000125,
                    "velocity": 0.4409448818897638,
                    "duration": 0.06598237500000437
                },
                {
                    "name": "C#3",
                    "midi": 49,
                    "time": 100.82106900000126,
                    "velocity": 0.4094488188976378,
                    "duration": 0.06598237500000437
                },
                {
                    "name": "F#3",
                    "midi": 54,
                    "time": 100.99702200000127,
                    "velocity": 0.4094488188976378,
                    "duration": 0.06598237500000437
                },
                {
                    "name": "C#3",
                    "midi": 49,
                    "time": 101.17297500000127,
                    "velocity": 0.4251968503937008,
                    "duration": 0.06598237500000437
                },
                {
                    "name": "B2",
                    "midi": 47,
                    "time": 101.34892800000128,
                    "velocity": 0.49606299212598426,
                    "duration": 0.06598237500000437
                },
                {
                    "name": "F#3",
                    "midi": 54,
                    "time": 101.52488100000129,
                    "velocity": 0.44881889763779526,
                    "duration": 0.06598237500000437
                },
                {
                    "name": "B3",
                    "midi": 59,
                    "time": 101.7008340000013,
                    "velocity": 0.44881889763779526,
                    "duration": 0.06598237500000437
                },
                {
                    "name": "F#3",
                    "midi": 54,
                    "time": 101.8767870000013,
                    "velocity": 0.44881889763779526,
                    "duration": 0.06598237500000437
                },
                {
                    "name": "F#2",
                    "midi": 42,
                    "time": 102.05274000000131,
                    "velocity": 0.5354330708661418,
                    "duration": 0.06598237500000437
                },
                {
                    "name": "C#3",
                    "midi": 49,
                    "time": 102.22869300000131,
                    "velocity": 0.4566929133858268,
                    "duration": 0.06598237500000437
                },
                {
                    "name": "F#3",
                    "midi": 54,
                    "time": 102.40464600000132,
                    "velocity": 0.4881889763779528,
                    "duration": 0.06598237500000437
                },
                {
                    "name": "C#3",
                    "midi": 49,
                    "time": 102.58059900000133,
                    "velocity": 0.5196850393700787,
                    "duration": 0.06598237500000437
                },
                {
                    "name": "G#1",
                    "midi": 32,
                    "time": 103.10845800000133,
                    "velocity": 0.5039370078740157,
                    "duration": 0.1759530000000069
                },
                {
                    "name": "D#2",
                    "midi": 39,
                    "time": 103.10845800000133,
                    "velocity": 0.5039370078740157,
                    "duration": 0.1759530000000069
                },
                {
                    "name": "G#2",
                    "midi": 44,
                    "time": 103.28441100000134,
                    "velocity": 0.5196850393700787,
                    "duration": 0.1759530000000069
                },
                {
                    "name": "G#2",
                    "midi": 44,
                    "time": 103.46036400000135,
                    "velocity": 0.5354330708661418,
                    "duration": 0.1759530000000069
                },
                {
                    "name": "D#3",
                    "midi": 51,
                    "time": 103.63631700000136,
                    "velocity": 0.5433070866141733,
                    "duration": 0.1759530000000069
                },
                {
                    "name": "G#3",
                    "midi": 56,
                    "time": 104.16417600000136,
                    "velocity": 0.5905511811023622,
                    "duration": 0.1759530000000069
                },
                {
                    "name": "D#4",
                    "midi": 63,
                    "time": 104.34012900000137,
                    "velocity": 0.5511811023622047,
                    "duration": 0.1759530000000069
                },
                {
                    "name": "G#4",
                    "midi": 68,
                    "time": 104.86798800000138,
                    "velocity": 0.5511811023622047,
                    "duration": 0.1759530000000069
                },
                {
                    "name": "D#5",
                    "midi": 75,
                    "time": 105.04394100000138,
                    "velocity": 0.5196850393700787,
                    "duration": 0.1759530000000069
                },
                {
                    "name": "G#4",
                    "midi": 68,
                    "time": 105.57180000000139,
                    "velocity": 0.25196850393700787,
                    "duration": 0.1759530000000069
                },
                {
                    "name": "C5",
                    "midi": 72,
                    "time": 105.7477530000014,
                    "velocity": 0.23622047244094488,
                    "duration": 0.1759530000000069
                },
                {
                    "name": "D#5",
                    "midi": 75,
                    "time": 105.9237060000014,
                    "velocity": 0.23622047244094488,
                    "duration": 0.1759530000000069
                },
                {
                    "name": "C5",
                    "midi": 72,
                    "time": 106.09965900000141,
                    "velocity": 0.23622047244094488,
                    "duration": 0.1759530000000069
                },
                {
                    "name": "G#4",
                    "midi": 68,
                    "time": 106.27561200000142,
                    "velocity": 0.25196850393700787,
                    "duration": 0.1759530000000069
                },
                {
                    "name": "B4",
                    "midi": 71,
                    "time": 106.45156500000142,
                    "velocity": 0.23622047244094488,
                    "duration": 0.1759530000000069
                },
                {
                    "name": "D#5",
                    "midi": 75,
                    "time": 106.62751800000143,
                    "velocity": 0.23622047244094488,
                    "duration": 0.1759530000000069
                },
                {
                    "name": "B4",
                    "midi": 71,
                    "time": 106.80347100000144,
                    "velocity": 0.23622047244094488,
                    "duration": 0.1759530000000069
                },
                {
                    "name": "G#4",
                    "midi": 68,
                    "time": 106.97942400000144,
                    "velocity": 0.25196850393700787,
                    "duration": 0.1759529999999927
                },
                {
                    "name": "C5",
                    "midi": 72,
                    "time": 107.15537700000144,
                    "velocity": 0.23622047244094488,
                    "duration": 0.1759530000000069
                },
                {
                    "name": "D#5",
                    "midi": 75,
                    "time": 107.33133000000144,
                    "velocity": 0.23622047244094488,
                    "duration": 0.1759530000000069
                },
                {
                    "name": "C5",
                    "midi": 72,
                    "time": 107.50728300000145,
                    "velocity": 0.23622047244094488,
                    "duration": 0.1759530000000069
                },
                {
                    "name": "G4",
                    "midi": 67,
                    "time": 107.68323600000146,
                    "velocity": 0.25196850393700787,
                    "duration": 0.1759530000000069
                },
                {
                    "name": "G#4",
                    "midi": 68,
                    "time": 107.85918900000146,
                    "velocity": 0.23622047244094488,
                    "duration": 0.1759530000000069
                },
                {
                    "name": "C5",
                    "midi": 72,
                    "time": 108.03514200000147,
                    "velocity": 0.23622047244094488,
                    "duration": 0.1759530000000069
                },
                {
                    "name": "G4",
                    "midi": 67,
                    "time": 108.21109500000148,
                    "velocity": 0.23622047244094488,
                    "duration": 0.1759530000000069
                },
                {
                    "name": "F4",
                    "midi": 65,
                    "time": 108.38704800000149,
                    "velocity": 0.25196850393700787,
                    "duration": 0.1759530000000069
                },
                {
                    "name": "G#4",
                    "midi": 68,
                    "time": 108.56300100000149,
                    "velocity": 0.23622047244094488,
                    "duration": 0.1759530000000069
                },
                {
                    "name": "C5",
                    "midi": 72,
                    "time": 108.7389540000015,
                    "velocity": 0.23622047244094488,
                    "duration": 0.1759530000000069
                },
                {
                    "name": "G#4",
                    "midi": 68,
                    "time": 108.9149070000015,
                    "velocity": 0.23622047244094488,
                    "duration": 0.1759530000000069
                },
                {
                    "name": "D#4",
                    "midi": 63,
                    "time": 109.09086000000151,
                    "velocity": 0.25196850393700787,
                    "duration": 0.1759529999999927
                },
                {
                    "name": "G4",
                    "midi": 67,
                    "time": 109.2668130000015,
                    "velocity": 0.2204724409448819,
                    "duration": 0.1759530000000069
                },
                {
                    "name": "G#4",
                    "midi": 68,
                    "time": 109.44276600000151,
                    "velocity": 0.2204724409448819,
                    "duration": 0.1759530000000069
                },
                {
                    "name": "G4",
                    "midi": 67,
                    "time": 109.61871900000152,
                    "velocity": 0.2204724409448819,
                    "duration": 0.1759530000000069
                },
                {
                    "name": "C#4",
                    "midi": 61,
                    "time": 109.79467200000153,
                    "velocity": 0.23622047244094488,
                    "duration": 0.1759530000000069
                },
                {
                    "name": "F4",
                    "midi": 65,
                    "time": 109.97062500000153,
                    "velocity": 0.2204724409448819,
                    "duration": 0.1759530000000069
                },
                {
                    "name": "G#4",
                    "midi": 68,
                    "time": 110.14657800000154,
                    "velocity": 0.2204724409448819,
                    "duration": 0.1759530000000069
                },
                {
                    "name": "F4",
                    "midi": 65,
                    "time": 110.32253100000155,
                    "velocity": 0.2204724409448819,
                    "duration": 0.1759530000000069
                },
                {
                    "name": "D#4",
                    "midi": 63,
                    "time": 110.49848400000155,
                    "velocity": 0.2440944881889764,
                    "duration": 0.1759530000000069
                },
                {
                    "name": "F4",
                    "midi": 65,
                    "time": 110.67443700000156,
                    "velocity": 0.2283464566929134,
                    "duration": 0.1759530000000069
                },
                {
                    "name": "G#4",
                    "midi": 68,
                    "time": 110.85039000000157,
                    "velocity": 0.25984251968503935,
                    "duration": 0.1759530000000069
                },
                {
                    "name": "F4",
                    "midi": 65,
                    "time": 111.02634300000157,
                    "velocity": 0.23622047244094488,
                    "duration": 0.1759530000000069
                },
                {
                    "name": "F4",
                    "midi": 65,
                    "time": 111.20229600000158,
                    "velocity": 0.2677165354330709,
                    "duration": 0.7038120000000276
                },
                {
                    "name": "G#4",
                    "midi": 68,
                    "time": 111.37824900000159,
                    "velocity": 0.23622047244094488,
                    "duration": 0.1759530000000069
                },
                {
                    "name": "A#4",
                    "midi": 70,
                    "time": 111.5542020000016,
                    "velocity": 0.23622047244094488,
                    "duration": 0.1759530000000069
                },
                {
                    "name": "G#4",
                    "midi": 68,
                    "time": 111.7301550000016,
                    "velocity": 0.23622047244094488,
                    "duration": 0.1759530000000069
                },
                {
                    "name": "D#4",
                    "midi": 63,
                    "time": 111.90610800000161,
                    "velocity": 0.25196850393700787,
                    "duration": 0.7038120000000134
                },
                {
                    "name": "G4",
                    "midi": 67,
                    "time": 112.0820610000016,
                    "velocity": 0.2204724409448819,
                    "duration": 0.1759530000000069
                },
                {
                    "name": "G#4",
                    "midi": 68,
                    "time": 112.25801400000161,
                    "velocity": 0.23622047244094488,
                    "duration": 0.1759530000000069
                },
                {
                    "name": "G4",
                    "midi": 67,
                    "time": 112.43396700000162,
                    "velocity": 0.2204724409448819,
                    "duration": 0.1759530000000069
                },
                {
                    "name": "C#4",
                    "midi": 61,
                    "time": 112.60992000000162,
                    "velocity": 0.23622047244094488,
                    "duration": 0.7038120000000276
                },
                {
                    "name": "F4",
                    "midi": 65,
                    "time": 112.78587300000163,
                    "velocity": 0.2204724409448819,
                    "duration": 0.1759530000000069
                },
                {
                    "name": "G4",
                    "midi": 67,
                    "time": 112.96182600000164,
                    "velocity": 0.2204724409448819,
                    "duration": 0.1759530000000069
                },
                {
                    "name": "F4",
                    "midi": 65,
                    "time": 113.13777900000164,
                    "velocity": 0.2204724409448819,
                    "duration": 0.1759530000000069
                },
                {
                    "name": "C4",
                    "midi": 60,
                    "time": 113.31373200000165,
                    "velocity": 0.23622047244094488,
                    "duration": 0.7038120000000134
                },
                {
                    "name": "D#4",
                    "midi": 63,
                    "time": 113.48968500000164,
                    "velocity": 0.2204724409448819,
                    "duration": 0.1759530000000069
                },
                {
                    "name": "F4",
                    "midi": 65,
                    "time": 113.66563800000165,
                    "velocity": 0.2204724409448819,
                    "duration": 0.1759530000000069
                },
                {
                    "name": "D#4",
                    "midi": 63,
                    "time": 113.84159100000166,
                    "velocity": 0.2204724409448819,
                    "duration": 0.1759530000000069
                },
                {
                    "name": "A#3",
                    "midi": 58,
                    "time": 114.01754400000166,
                    "velocity": 0.23622047244094488,
                    "duration": 0.7038120000000276
                },
                {
                    "name": "C#4",
                    "midi": 61,
                    "time": 114.19349700000167,
                    "velocity": 0.2047244094488189,
                    "duration": 0.1759530000000069
                },
                {
                    "name": "D#4",
                    "midi": 63,
                    "time": 114.36945000000168,
                    "velocity": 0.2047244094488189,
                    "duration": 0.1759530000000069
                },
                {
                    "name": "C#4",
                    "midi": 61,
                    "time": 114.54540300000168,
                    "velocity": 0.2047244094488189,
                    "duration": 0.1759530000000069
                },
                {
                    "name": "G#3",
                    "midi": 56,
                    "time": 114.72135600000169,
                    "velocity": 0.23622047244094488,
                    "duration": 0.7038120000000276
                },
                {
                    "name": "C4",
                    "midi": 60,
                    "time": 114.8973090000017,
                    "velocity": 0.2047244094488189,
                    "duration": 0.1759530000000069
                },
                {
                    "name": "C#4",
                    "midi": 61,
                    "time": 115.0732620000017,
                    "velocity": 0.2047244094488189,
                    "duration": 0.1759530000000069
                },
                {
                    "name": "C4",
                    "midi": 60,
                    "time": 115.24921500000171,
                    "velocity": 0.2047244094488189,
                    "duration": 0.1759530000000069
                },
                {
                    "name": "G3",
                    "midi": 55,
                    "time": 115.42516800000172,
                    "velocity": 0.2204724409448819,
                    "duration": 0.7038120000000276
                },
                {
                    "name": "A#3",
                    "midi": 58,
                    "time": 115.60112100000173,
                    "velocity": 0.1968503937007874,
                    "duration": 0.1759530000000069
                },
                {
                    "name": "C#4",
                    "midi": 61,
                    "time": 115.77707400000173,
                    "velocity": 0.1968503937007874,
                    "duration": 0.1759530000000069
                },
                {
                    "name": "A#3",
                    "midi": 58,
                    "time": 115.95302700000174,
                    "velocity": 0.1968503937007874,
                    "duration": 0.1759530000000069
                },
                {
                    "name": "F3",
                    "midi": 53,
                    "time": 116.12898000000175,
                    "velocity": 0.25984251968503935,
                    "duration": 0.3519059999999996
                },
                {
                    "name": "D#3",
                    "midi": 51,
                    "time": 116.48088600000175,
                    "velocity": 0.2440944881889764,
                    "duration": 0.3519059999999996
                },
                {
                    "name": "G#2",
                    "midi": 44,
                    "time": 116.83279200000175,
                    "velocity": 0.2204724409448819,
                    "duration": 0.1759529999999927
                },
                {
                    "name": "C3",
                    "midi": 48,
                    "time": 117.00874500000174,
                    "velocity": 0.2125984251968504,
                    "duration": 0.1759530000000069
                },
                {
                    "name": "G#2",
                    "midi": 44,
                    "time": 117.18469800000175,
                    "velocity": 0.2125984251968504,
                    "duration": 0.1759530000000069
                },
                {
                    "name": "C3",
                    "midi": 48,
                    "time": 117.36065100000175,
                    "velocity": 0.2125984251968504,
                    "duration": 0.1759530000000069
                },
                {
                    "name": "G2",
                    "midi": 43,
                    "time": 117.53660400000176,
                    "velocity": 0.2204724409448819,
                    "duration": 0.1759530000000069
                },
                {
                    "name": "D#3",
                    "midi": 51,
                    "time": 117.71255700000177,
                    "velocity": 0.2125984251968504,
                    "duration": 0.1759530000000069
                },
                {
                    "name": "G2",
                    "midi": 43,
                    "time": 117.88851000000177,
                    "velocity": 0.2125984251968504,
                    "duration": 0.1759530000000069
                },
                {
                    "name": "D#3",
                    "midi": 51,
                    "time": 118.06446300000178,
                    "velocity": 0.2125984251968504,
                    "duration": 0.1759530000000069
                },
                {
                    "name": "G#2",
                    "midi": 44,
                    "time": 118.24041600000179,
                    "velocity": 0.2204724409448819,
                    "duration": 0.1759530000000069
                },
                {
                    "name": "D#3",
                    "midi": 51,
                    "time": 118.4163690000018,
                    "velocity": 0.2125984251968504,
                    "duration": 0.1759530000000069
                },
                {
                    "name": "G#2",
                    "midi": 44,
                    "time": 118.5923220000018,
                    "velocity": 0.2125984251968504,
                    "duration": 0.1759530000000069
                },
                {
                    "name": "D#3",
                    "midi": 51,
                    "time": 118.76827500000181,
                    "velocity": 0.2125984251968504,
                    "duration": 0.1759530000000069
                },
                {
                    "name": "G2",
                    "midi": 43,
                    "time": 118.94422800000181,
                    "velocity": 0.2204724409448819,
                    "duration": 0.1759529999999927
                },
                {
                    "name": "D#3",
                    "midi": 51,
                    "time": 119.1201810000018,
                    "velocity": 0.2125984251968504,
                    "duration": 0.1759530000000069
                },
                {
                    "name": "G2",
                    "midi": 43,
                    "time": 119.29613400000181,
                    "velocity": 0.2125984251968504,
                    "duration": 0.1759530000000069
                },
                {
                    "name": "D#3",
                    "midi": 51,
                    "time": 119.47208700000182,
                    "velocity": 0.2125984251968504,
                    "duration": 0.1759530000000069
                },
                {
                    "name": "F2",
                    "midi": 41,
                    "time": 119.64804000000183,
                    "velocity": 0.2204724409448819,
                    "duration": 0.1759529999999927
                },
                {
                    "name": "C3",
                    "midi": 48,
                    "time": 119.82399300000182,
                    "velocity": 0.2125984251968504,
                    "duration": 0.1759530000000069
                },
                {
                    "name": "F2",
                    "midi": 41,
                    "time": 119.99994600000183,
                    "velocity": 0.2125984251968504,
                    "duration": 0.1759530000000069
                },
                {
                    "name": "C3",
                    "midi": 48,
                    "time": 120.17589900000183,
                    "velocity": 0.2125984251968504,
                    "duration": 0.1759530000000069
                },
                {
                    "name": "D#2",
                    "midi": 39,
                    "time": 120.35185200000184,
                    "velocity": 0.2204724409448819,
                    "duration": 0.1759530000000069
                },
                {
                    "name": "C3",
                    "midi": 48,
                    "time": 120.52780500000185,
                    "velocity": 0.1968503937007874,
                    "duration": 0.1759530000000069
                },
                {
                    "name": "D#2",
                    "midi": 39,
                    "time": 120.70375800000186,
                    "velocity": 0.1968503937007874,
                    "duration": 0.1759530000000069
                },
                {
                    "name": "C3",
                    "midi": 48,
                    "time": 120.87971100000186,
                    "velocity": 0.1968503937007874,
                    "duration": 0.1759530000000069
                },
                {
                    "name": "G#1",
                    "midi": 32,
                    "time": 121.05566400000187,
                    "velocity": 0.2125984251968504,
                    "duration": 0.1759529999999927
                },
                {
                    "name": "G#2",
                    "midi": 44,
                    "time": 121.23161700000186,
                    "velocity": 0.1968503937007874,
                    "duration": 0.1759530000000069
                },
                {
                    "name": "G#1",
                    "midi": 32,
                    "time": 121.40757000000187,
                    "velocity": 0.1968503937007874,
                    "duration": 0.1759530000000069
                },
                {
                    "name": "G#2",
                    "midi": 44,
                    "time": 121.58352300000188,
                    "velocity": 0.1968503937007874,
                    "duration": 0.1759530000000069
                },
                {
                    "name": "G#1",
                    "midi": 32,
                    "time": 121.75947600000188,
                    "velocity": 0.1968503937007874,
                    "duration": 0.1759530000000069
                },
                {
                    "name": "G#2",
                    "midi": 44,
                    "time": 121.93542900000189,
                    "velocity": 0.1968503937007874,
                    "duration": 0.1759530000000069
                },
                {
                    "name": "G#1",
                    "midi": 32,
                    "time": 122.1113820000019,
                    "velocity": 0.1968503937007874,
                    "duration": 0.1759530000000069
                },
                {
                    "name": "G#2",
                    "midi": 44,
                    "time": 122.2873350000019,
                    "velocity": 0.1968503937007874,
                    "duration": 0.1759530000000069
                },
                {
                    "name": "G#2",
                    "midi": 44,
                    "time": 122.46328800000191,
                    "velocity": 0.2047244094488189,
                    "duration": 0.06598237500000437
                },
                {
                    "name": "E3",
                    "midi": 52,
                    "time": 122.63924100000192,
                    "velocity": 0.1889763779527559,
                    "duration": 0.06598237500000437
                },
                {
                    "name": "B3",
                    "midi": 59,
                    "time": 122.81519400000192,
                    "velocity": 0.1889763779527559,
                    "duration": 0.06598237500000437
                },
                {
                    "name": "E3",
                    "midi": 52,
                    "time": 122.99114700000193,
                    "velocity": 0.1889763779527559,
                    "duration": 0.06598237500000437
                },
                {
                    "name": "G#2",
                    "midi": 44,
                    "time": 123.16710000000194,
                    "velocity": 0.2047244094488189,
                    "duration": 0.06598237500000437
                },
                {
                    "name": "E3",
                    "midi": 52,
                    "time": 123.34305300000194,
                    "velocity": 0.18110236220472442,
                    "duration": 0.06598237500000437
                },
                {
                    "name": "B3",
                    "midi": 59,
                    "time": 123.51900600000195,
                    "velocity": 0.18110236220472442,
                    "duration": 0.06598237500000437
                },
                {
                    "name": "E3",
                    "midi": 52,
                    "time": 123.69495900000196,
                    "velocity": 0.18110236220472442,
                    "duration": 0.06598237500000437
                },
                {
                    "name": "G#2",
                    "midi": 44,
                    "time": 123.87091200000197,
                    "velocity": 0.2204724409448819,
                    "duration": 0.06598237500000437
                },
                {
                    "name": "E3",
                    "midi": 52,
                    "time": 124.04686500000197,
                    "velocity": 0.1968503937007874,
                    "duration": 0.06598237500000437
                },
                {
                    "name": "A#3",
                    "midi": 58,
                    "time": 124.22281800000198,
                    "velocity": 0.2047244094488189,
                    "duration": 0.06598237500000437
                },
                {
                    "name": "E3",
                    "midi": 52,
                    "time": 124.39877100000199,
                    "velocity": 0.1968503937007874,
                    "duration": 0.06598237500000437
                },
                {
                    "name": "G#2",
                    "midi": 44,
                    "time": 124.57472400000199,
                    "velocity": 0.2204724409448819,
                    "duration": 0.06598237500000437
                },
                {
                    "name": "E3",
                    "midi": 52,
                    "time": 124.750677000002,
                    "velocity": 0.2047244094488189,
                    "duration": 0.06598237500000437
                },
                {
                    "name": "A#3",
                    "midi": 58,
                    "time": 124.926630000002,
                    "velocity": 0.2125984251968504,
                    "duration": 0.06598237500000437
                },
                {
                    "name": "E3",
                    "midi": 52,
                    "time": 125.10258300000201,
                    "velocity": 0.2047244094488189,
                    "duration": 0.06598237500000437
                },
                {
                    "name": "G#2",
                    "midi": 44,
                    "time": 125.27853600000202,
                    "velocity": 0.2047244094488189,
                    "duration": 0.06598237500000437
                },
                {
                    "name": "E3",
                    "midi": 52,
                    "time": 125.45448900000203,
                    "velocity": 0.1889763779527559,
                    "duration": 0.06598237500000437
                },
                {
                    "name": "B3",
                    "midi": 59,
                    "time": 125.63044200000203,
                    "velocity": 0.1889763779527559,
                    "duration": 0.06598237500000437
                },
                {
                    "name": "E3",
                    "midi": 52,
                    "time": 125.80639500000204,
                    "velocity": 0.1889763779527559,
                    "duration": 0.06598237500000437
                },
                {
                    "name": "G#2",
                    "midi": 44,
                    "time": 125.98234800000205,
                    "velocity": 0.2047244094488189,
                    "duration": 0.06598237500000437
                },
                {
                    "name": "E3",
                    "midi": 52,
                    "time": 126.15830100000206,
                    "velocity": 0.1889763779527559,
                    "duration": 0.06598237500000437
                },
                {
                    "name": "B3",
                    "midi": 59,
                    "time": 126.33425400000206,
                    "velocity": 0.1968503937007874,
                    "duration": 0.06598237500000437
                },
                {
                    "name": "E3",
                    "midi": 52,
                    "time": 126.51020700000207,
                    "velocity": 0.1889763779527559,
                    "duration": 0.06598237500000437
                },
                {
                    "name": "G#2",
                    "midi": 44,
                    "time": 126.68616000000208,
                    "velocity": 0.2125984251968504,
                    "duration": 0.06598237500000437
                },
                {
                    "name": "F3",
                    "midi": 53,
                    "time": 126.86211300000208,
                    "velocity": 0.2047244094488189,
                    "duration": 0.06598237500000437
                },
                {
                    "name": "A#3",
                    "midi": 58,
                    "time": 127.03806600000209,
                    "velocity": 0.2125984251968504,
                    "duration": 0.06598237500000437
                },
                {
                    "name": "F3",
                    "midi": 53,
                    "time": 127.2140190000021,
                    "velocity": 0.2047244094488189,
                    "duration": 0.06598237500000437
                },
                {
                    "name": "G#3",
                    "midi": 56,
                    "time": 127.3899720000021,
                    "velocity": 0.2283464566929134,
                    "duration": 0.06598237500000437
                },
                {
                    "name": "G#3",
                    "midi": 56,
                    "time": 128.0937840000021,
                    "velocity": 0.2047244094488189,
                    "duration": 0.06598237500000437
                },
                {
                    "name": "E4",
                    "midi": 64,
                    "time": 128.2697370000021,
                    "velocity": 0.1889763779527559,
                    "duration": 0.06598237500000437
                },
                {
                    "name": "B4",
                    "midi": 71,
                    "time": 128.4456900000021,
                    "velocity": 0.1889763779527559,
                    "duration": 0.06598237500000437
                },
                {
                    "name": "E4",
                    "midi": 64,
                    "time": 128.62164300000208,
                    "velocity": 0.1889763779527559,
                    "duration": 0.06598237500000437
                },
                {
                    "name": "G#3",
                    "midi": 56,
                    "time": 128.79759600000207,
                    "velocity": 0.2047244094488189,
                    "duration": 0.06598237500000437
                },
                {
                    "name": "E4",
                    "midi": 64,
                    "time": 128.97354900000207,
                    "velocity": 0.18110236220472442,
                    "duration": 0.06598237500000437
                },
                {
                    "name": "B4",
                    "midi": 71,
                    "time": 129.14950200000206,
                    "velocity": 0.18110236220472442,
                    "duration": 0.06598237500000437
                },
                {
                    "name": "E4",
                    "midi": 64,
                    "time": 129.32545500000205,
                    "velocity": 0.18110236220472442,
                    "duration": 0.06598237500000437
                },
                {
                    "name": "G#3",
                    "midi": 56,
                    "time": 129.50140800000204,
                    "velocity": 0.2204724409448819,
                    "duration": 0.06598237500000437
                },
                {
                    "name": "E4",
                    "midi": 64,
                    "time": 129.67736100000204,
                    "velocity": 0.1968503937007874,
                    "duration": 0.06598237500000437
                },
                {
                    "name": "A#4",
                    "midi": 70,
                    "time": 129.85331400000203,
                    "velocity": 0.2047244094488189,
                    "duration": 0.06598237500000437
                },
                {
                    "name": "E4",
                    "midi": 64,
                    "time": 130.02926700000202,
                    "velocity": 0.1968503937007874,
                    "duration": 0.06598237500000437
                },
                {
                    "name": "G#3",
                    "midi": 56,
                    "time": 130.20522000000202,
                    "velocity": 0.2204724409448819,
                    "duration": 0.06598237500000437
                },
                {
                    "name": "E4",
                    "midi": 64,
                    "time": 130.381173000002,
                    "velocity": 0.2047244094488189,
                    "duration": 0.06598237500000437
                },
                {
                    "name": "A#4",
                    "midi": 70,
                    "time": 130.557126000002,
                    "velocity": 0.2125984251968504,
                    "duration": 0.06598237500000437
                },
                {
                    "name": "E4",
                    "midi": 64,
                    "time": 130.733079000002,
                    "velocity": 0.2047244094488189,
                    "duration": 0.06598237500000437
                },
                {
                    "name": "G#3",
                    "midi": 56,
                    "time": 130.909032000002,
                    "velocity": 0.2047244094488189,
                    "duration": 0.06598237500000437
                },
                {
                    "name": "E4",
                    "midi": 64,
                    "time": 131.08498500000198,
                    "velocity": 0.1889763779527559,
                    "duration": 0.06598237500000437
                },
                {
                    "name": "B4",
                    "midi": 71,
                    "time": 131.26093800000197,
                    "velocity": 0.1889763779527559,
                    "duration": 0.06598237500000437
                },
                {
                    "name": "E4",
                    "midi": 64,
                    "time": 131.43689100000196,
                    "velocity": 0.1889763779527559,
                    "duration": 0.06598237500000437
                },
                {
                    "name": "G#3",
                    "midi": 56,
                    "time": 131.61284400000196,
                    "velocity": 0.2047244094488189,
                    "duration": 0.06598237500000437
                },
                {
                    "name": "E4",
                    "midi": 64,
                    "time": 131.78879700000195,
                    "velocity": 0.1889763779527559,
                    "duration": 0.06598237500000437
                },
                {
                    "name": "B4",
                    "midi": 71,
                    "time": 131.96475000000194,
                    "velocity": 0.1968503937007874,
                    "duration": 0.06598237500000437
                },
                {
                    "name": "E4",
                    "midi": 64,
                    "time": 132.14070300000193,
                    "velocity": 0.1889763779527559,
                    "duration": 0.06598237500000437
                },
                {
                    "name": "G#3",
                    "midi": 56,
                    "time": 132.31665600000193,
                    "velocity": 0.2677165354330709,
                    "duration": 4.2228719999999385
                },
                {
                    "name": "D4",
                    "midi": 62,
                    "time": 132.66856200000194,
                    "velocity": 0.1968503937007874,
                    "duration": 0.1759529999999927
                },
                {
                    "name": "F4",
                    "midi": 65,
                    "time": 132.66856200000194,
                    "velocity": 0.1968503937007874,
                    "duration": 0.1759529999999927
                },
                {
                    "name": "A#4",
                    "midi": 70,
                    "time": 132.84451500000193,
                    "velocity": 0.2204724409448819,
                    "duration": 0.1759529999999927
                },
                {
                    "name": "D4",
                    "midi": 62,
                    "time": 133.3723740000019,
                    "velocity": 0.1968503937007874,
                    "duration": 0.1759529999999927
                },
                {
                    "name": "F4",
                    "midi": 65,
                    "time": 133.3723740000019,
                    "velocity": 0.1968503937007874,
                    "duration": 0.1759529999999927
                },
                {
                    "name": "A#4",
                    "midi": 70,
                    "time": 133.5483270000019,
                    "velocity": 0.2283464566929134,
                    "duration": 0.1759529999999927
                },
                {
                    "name": "D4",
                    "midi": 62,
                    "time": 134.0761860000019,
                    "velocity": 0.1968503937007874,
                    "duration": 0.1759529999999927
                },
                {
                    "name": "F4",
                    "midi": 65,
                    "time": 134.0761860000019,
                    "velocity": 0.1968503937007874,
                    "duration": 0.1759529999999927
                },
                {
                    "name": "A#4",
                    "midi": 70,
                    "time": 134.2521390000019,
                    "velocity": 0.2283464566929134,
                    "duration": 0.1759529999999927
                },
                {
                    "name": "D4",
                    "midi": 62,
                    "time": 134.77999800000188,
                    "velocity": 0.1889763779527559,
                    "duration": 0.1759529999999927
                },
                {
                    "name": "F4",
                    "midi": 65,
                    "time": 134.77999800000188,
                    "velocity": 0.1889763779527559,
                    "duration": 0.1759529999999927
                },
                {
                    "name": "A#4",
                    "midi": 70,
                    "time": 134.95595100000187,
                    "velocity": 0.2204724409448819,
                    "duration": 0.1759529999999927
                },
                {
                    "name": "D4",
                    "midi": 62,
                    "time": 135.48381000000188,
                    "velocity": 0.1968503937007874,
                    "duration": 0.1759529999999927
                },
                {
                    "name": "F4",
                    "midi": 65,
                    "time": 135.48381000000188,
                    "velocity": 0.1968503937007874,
                    "duration": 0.1759529999999927
                },
                {
                    "name": "A#4",
                    "midi": 70,
                    "time": 135.65976300000187,
                    "velocity": 0.2283464566929134,
                    "duration": 0.1759529999999927
                },
                {
                    "name": "D#4",
                    "midi": 63,
                    "time": 136.18762200000188,
                    "velocity": 0.1968503937007874,
                    "duration": 0.1759529999999927
                },
                {
                    "name": "F#4",
                    "midi": 66,
                    "time": 136.18762200000188,
                    "velocity": 0.1968503937007874,
                    "duration": 0.1759529999999927
                },
                {
                    "name": "B4",
                    "midi": 71,
                    "time": 136.36357500000187,
                    "velocity": 0.23622047244094488,
                    "duration": 0.1759529999999927
                },
                {
                    "name": "B3",
                    "midi": 59,
                    "time": 136.53952800000187,
                    "velocity": 0.29133858267716534,
                    "duration": 1.4076239999999416
                },
                {
                    "name": "F4",
                    "midi": 65,
                    "time": 136.89143400000185,
                    "velocity": 0.2125984251968504,
                    "duration": 0.1759529999999927
                },
                {
                    "name": "G#4",
                    "midi": 68,
                    "time": 136.89143400000185,
                    "velocity": 0.2125984251968504,
                    "duration": 0.1759529999999927
                },
                {
                    "name": "C#5",
                    "midi": 73,
                    "time": 137.06738700000184,
                    "velocity": 0.2440944881889764,
                    "duration": 0.1759529999999927
                },
                {
                    "name": "D#4",
                    "midi": 63,
                    "time": 137.59524600000182,
                    "velocity": 0.1889763779527559,
                    "duration": 0.1759529999999927
                },
                {
                    "name": "F#4",
                    "midi": 66,
                    "time": 137.59524600000182,
                    "velocity": 0.1889763779527559,
                    "duration": 0.1759529999999927
                },
                {
                    "name": "B4",
                    "midi": 71,
                    "time": 137.77119900000181,
                    "velocity": 0.2204724409448819,
                    "duration": 0.1759529999999927
                },
                {
                    "name": "G#3",
                    "midi": 56,
                    "time": 137.9471520000018,
                    "velocity": 0.2677165354330709,
                    "duration": 1.4076239999999416
                },
                {
                    "name": "D4",
                    "midi": 62,
                    "time": 138.2990580000018,
                    "velocity": 0.1968503937007874,
                    "duration": 0.1759529999999927
                },
                {
                    "name": "F4",
                    "midi": 65,
                    "time": 138.2990580000018,
                    "velocity": 0.1968503937007874,
                    "duration": 0.1759529999999927
                },
                {
                    "name": "A#4",
                    "midi": 70,
                    "time": 138.47501100000179,
                    "velocity": 0.2283464566929134,
                    "duration": 0.1759529999999927
                },
                {
                    "name": "D#4",
                    "midi": 63,
                    "time": 139.00287000000176,
                    "velocity": 0.1968503937007874,
                    "duration": 0.1759529999999927
                },
                {
                    "name": "F#4",
                    "midi": 66,
                    "time": 139.00287000000176,
                    "velocity": 0.1968503937007874,
                    "duration": 0.1759529999999927
                },
                {
                    "name": "B4",
                    "midi": 71,
                    "time": 139.17882300000176,
                    "velocity": 0.23622047244094488,
                    "duration": 0.1759529999999927
                },
                {
                    "name": "B3",
                    "midi": 59,
                    "time": 139.35477600000175,
                    "velocity": 0.29133858267716534,
                    "duration": 1.4076239999999416
                },
                {
                    "name": "F4",
                    "midi": 65,
                    "time": 139.70668200000173,
                    "velocity": 0.2125984251968504,
                    "duration": 0.1759529999999927
                },
                {
                    "name": "G#4",
                    "midi": 68,
                    "time": 139.70668200000173,
                    "velocity": 0.2125984251968504,
                    "duration": 0.1759529999999927
                },
                {
                    "name": "C#5",
                    "midi": 73,
                    "time": 139.88263500000173,
                    "velocity": 0.2440944881889764,
                    "duration": 0.1759529999999927
                },
                {
                    "name": "D#4",
                    "midi": 63,
                    "time": 140.4104940000017,
                    "velocity": 0.1889763779527559,
                    "duration": 0.1759529999999927
                },
                {
                    "name": "F#4",
                    "midi": 66,
                    "time": 140.4104940000017,
                    "velocity": 0.1889763779527559,
                    "duration": 0.1759529999999927
                },
                {
                    "name": "B4",
                    "midi": 71,
                    "time": 140.5864470000017,
                    "velocity": 0.2204724409448819,
                    "duration": 0.1759529999999927
                },
                {
                    "name": "G#3",
                    "midi": 56,
                    "time": 140.7624000000017,
                    "velocity": 0.2677165354330709,
                    "duration": 1.40762399999997
                },
                {
                    "name": "D4",
                    "midi": 62,
                    "time": 141.1143060000017,
                    "velocity": 0.1968503937007874,
                    "duration": 0.1759529999999927
                },
                {
                    "name": "F4",
                    "midi": 65,
                    "time": 141.1143060000017,
                    "velocity": 0.1968503937007874,
                    "duration": 0.1759529999999927
                },
                {
                    "name": "A#4",
                    "midi": 70,
                    "time": 141.2902590000017,
                    "velocity": 0.2283464566929134,
                    "duration": 0.1759529999999927
                },
                {
                    "name": "D#4",
                    "midi": 63,
                    "time": 141.81811800000168,
                    "velocity": 0.1968503937007874,
                    "duration": 0.1759529999999927
                },
                {
                    "name": "F#4",
                    "midi": 66,
                    "time": 141.81811800000168,
                    "velocity": 0.1968503937007874,
                    "duration": 0.1759529999999927
                },
                {
                    "name": "B4",
                    "midi": 71,
                    "time": 141.99407100000167,
                    "velocity": 0.23622047244094488,
                    "duration": 0.1759529999999927
                },
                {
                    "name": "B3",
                    "midi": 59,
                    "time": 142.17002400000166,
                    "velocity": 0.29133858267716534,
                    "duration": 2.8152479999999684
                },
                {
                    "name": "F4",
                    "midi": 65,
                    "time": 142.52193000000165,
                    "velocity": 0.2125984251968504,
                    "duration": 0.1759529999999927
                },
                {
                    "name": "G#4",
                    "midi": 68,
                    "time": 142.52193000000165,
                    "velocity": 0.2125984251968504,
                    "duration": 0.1759529999999927
                },
                {
                    "name": "C#5",
                    "midi": 73,
                    "time": 142.69788300000164,
                    "velocity": 0.2440944881889764,
                    "duration": 0.1759529999999927
                },
                {
                    "name": "F4",
                    "midi": 65,
                    "time": 143.22574200000165,
                    "velocity": 0.2125984251968504,
                    "duration": 0.1759529999999927
                },
                {
                    "name": "G#4",
                    "midi": 68,
                    "time": 143.22574200000165,
                    "velocity": 0.2125984251968504,
                    "duration": 0.1759529999999927
                },
                {
                    "name": "C#5",
                    "midi": 73,
                    "time": 143.40169500000164,
                    "velocity": 0.2440944881889764,
                    "duration": 0.1759529999999927
                },
                {
                    "name": "F4",
                    "midi": 65,
                    "time": 143.92955400000164,
                    "velocity": 0.2204724409448819,
                    "duration": 0.1759529999999927
                },
                {
                    "name": "G#4",
                    "midi": 68,
                    "time": 143.92955400000164,
                    "velocity": 0.2204724409448819,
                    "duration": 0.1759529999999927
                },
                {
                    "name": "C#5",
                    "midi": 73,
                    "time": 144.10550700000164,
                    "velocity": 0.25196850393700787,
                    "duration": 0.1759529999999927
                },
                {
                    "name": "F4",
                    "midi": 65,
                    "time": 144.63336600000164,
                    "velocity": 0.2204724409448819,
                    "duration": 0.1759529999999927
                },
                {
                    "name": "G#4",
                    "midi": 68,
                    "time": 144.63336600000164,
                    "velocity": 0.2204724409448819,
                    "duration": 0.1759529999999927
                },
                {
                    "name": "C#5",
                    "midi": 73,
                    "time": 144.80931900000164,
                    "velocity": 0.25196850393700787,
                    "duration": 0.1759529999999927
                },
                {
                    "name": "F4",
                    "midi": 65,
                    "time": 145.33717800000164,
                    "velocity": 0.1968503937007874,
                    "duration": 0.1759529999999927
                },
                {
                    "name": "A4",
                    "midi": 69,
                    "time": 145.33717800000164,
                    "velocity": 0.1968503937007874,
                    "duration": 0.1759529999999927
                },
                {
                    "name": "C#5",
                    "midi": 73,
                    "time": 145.51313100000164,
                    "velocity": 0.2125984251968504,
                    "duration": 0.1759529999999927
                },
                {
                    "name": "F4",
                    "midi": 65,
                    "time": 146.04099000000164,
                    "velocity": 0.1968503937007874,
                    "duration": 0.1759529999999927
                },
                {
                    "name": "A4",
                    "midi": 69,
                    "time": 146.04099000000164,
                    "velocity": 0.1968503937007874,
                    "duration": 0.1759529999999927
                },
                {
                    "name": "C#5",
                    "midi": 73,
                    "time": 146.21694300000163,
                    "velocity": 0.2125984251968504,
                    "duration": 0.1759529999999927
                },
                {
                    "name": "F4",
                    "midi": 65,
                    "time": 146.74480200000164,
                    "velocity": 0.1732283464566929,
                    "duration": 0.1759529999999927
                },
                {
                    "name": "A4",
                    "midi": 69,
                    "time": 146.74480200000164,
                    "velocity": 0.1732283464566929,
                    "duration": 0.1759529999999927
                },
                {
                    "name": "C#5",
                    "midi": 73,
                    "time": 146.92075500000163,
                    "velocity": 0.1889763779527559,
                    "duration": 0.1759529999999927
                },
                {
                    "name": "F4",
                    "midi": 65,
                    "time": 147.44861400000164,
                    "velocity": 0.16535433070866143,
                    "duration": 0.1759529999999927
                },
                {
                    "name": "A4",
                    "midi": 69,
                    "time": 147.44861400000164,
                    "velocity": 0.16535433070866143,
                    "duration": 0.1759529999999927
                },
                {
                    "name": "C#5",
                    "midi": 73,
                    "time": 147.62456700000163,
                    "velocity": 0.18110236220472442,
                    "duration": 0.1759529999999927
                },
                {
                    "name": "E4",
                    "midi": 64,
                    "time": 147.80052000000163,
                    "velocity": 0.2755905511811024,
                    "duration": 1.4076239999999984
                },
                {
                    "name": "F#4",
                    "midi": 66,
                    "time": 147.80052000000163,
                    "velocity": 0.33858267716535434,
                    "duration": 0.08797649999999635
                },
                {
                    "name": "C#5",
                    "midi": 73,
                    "time": 148.1524260000016,
                    "velocity": 0.33858267716535434,
                    "duration": 0.13196475000000873
                },
                {
                    "name": "B4",
                    "midi": 71,
                    "time": 148.50433200000163,
                    "velocity": 0.3464566929133858,
                    "duration": 1.055718000000013
                },
                {
                    "name": "D#4",
                    "midi": 63,
                    "time": 149.20814400000162,
                    "velocity": 0.2755905511811024,
                    "duration": 0.7038120000000561
                },
                {
                    "name": "A4",
                    "midi": 69,
                    "time": 149.56005000000164,
                    "velocity": 0.33070866141732286,
                    "duration": 0.13196475000000873
                },
                {
                    "name": "G#4",
                    "midi": 68,
                    "time": 149.73600300000166,
                    "velocity": 0.33070866141732286,
                    "duration": 0.13196475000000873
                },
                {
                    "name": "D4",
                    "midi": 62,
                    "time": 149.91195600000168,
                    "velocity": 0.2755905511811024,
                    "duration": 0.5278590000000065
                },
                {
                    "name": "F#4",
                    "midi": 66,
                    "time": 149.91195600000168,
                    "velocity": 0.3464566929133858,
                    "duration": 0.29325499999998783
                },
                {
                    "name": "E4",
                    "midi": 64,
                    "time": 150.26386200000167,
                    "velocity": 0.33070866141732286,
                    "duration": 0.13196475000000873
                },
                {
                    "name": "D4",
                    "midi": 62,
                    "time": 150.4398150000017,
                    "velocity": 0.33070866141732286,
                    "duration": 0.13196475000000873
                },
                {
                    "name": "F#3",
                    "midi": 54,
                    "time": 150.6157680000017,
                    "velocity": 0.2755905511811024,
                    "duration": 0.7038120000000561
                },
                {
                    "name": "C#4",
                    "midi": 61,
                    "time": 150.6157680000017,
                    "velocity": 0.3464566929133858,
                    "duration": 0.344574625000007
                },
                {
                    "name": "D4",
                    "midi": 62,
                    "time": 150.96767400000172,
                    "velocity": 0.33070866141732286,
                    "duration": 0.13196475000000873
                },
                {
                    "name": "E4",
                    "midi": 64,
                    "time": 151.14362700000174,
                    "velocity": 0.33070866141732286,
                    "duration": 0.13196475000000873
                },
                {
                    "name": "A3",
                    "midi": 57,
                    "time": 151.31958000000176,
                    "velocity": 0.29133858267716534,
                    "duration": 0.1759529999999927
                },
                {
                    "name": "F#4",
                    "midi": 66,
                    "time": 151.31958000000176,
                    "velocity": 0.3543307086614173,
                    "duration": 0.1759529999999927
                },
                {
                    "name": "B3",
                    "midi": 59,
                    "time": 151.67148600000175,
                    "velocity": 0.2755905511811024,
                    "duration": 0.1759529999999927
                },
                {
                    "name": "A4",
                    "midi": 69,
                    "time": 151.67148600000175,
                    "velocity": 0.33858267716535434,
                    "duration": 0.1759529999999927
                },
                {
                    "name": "C#4",
                    "midi": 61,
                    "time": 152.02339200000173,
                    "velocity": 0.29133858267716534,
                    "duration": 1.4076239999999984
                },
                {
                    "name": "G#4",
                    "midi": 68,
                    "time": 152.02339200000173,
                    "velocity": 0.3543307086614173,
                    "duration": 1.4076239999999984
                },
                {
                    "name": "A2",
                    "midi": 45,
                    "time": 153.43101600000173,
                    "velocity": 0.33858267716535434,
                    "duration": 0.06598237500000437
                },
                {
                    "name": "F#3",
                    "midi": 54,
                    "time": 153.60696900000173,
                    "velocity": 0.2755905511811024,
                    "duration": 0.06598237500000437
                },
                {
                    "name": "C#4",
                    "midi": 61,
                    "time": 153.78292200000172,
                    "velocity": 0.2755905511811024,
                    "duration": 0.06598237500000437
                },
                {
                    "name": "F#3",
                    "midi": 54,
                    "time": 153.9588750000017,
                    "velocity": 0.2755905511811024,
                    "duration": 0.06598237500000437
                },
                {
                    "name": "G#2",
                    "midi": 44,
                    "time": 154.1348280000017,
                    "velocity": 0.2992125984251969,
                    "duration": 0.06598237500000437
                },
                {
                    "name": "C#3",
                    "midi": 49,
                    "time": 154.3107810000017,
                    "velocity": 0.2755905511811024,
                    "duration": 0.06598237500000437
                },
                {
                    "name": "B3",
                    "midi": 59,
                    "time": 154.4867340000017,
                    "velocity": 0.2755905511811024,
                    "duration": 0.06598237500000437
                },
                {
                    "name": "C#3",
                    "midi": 49,
                    "time": 154.66268700000168,
                    "velocity": 0.2755905511811024,
                    "duration": 0.06598237500000437
                },
                {
                    "name": "F#2",
                    "midi": 42,
                    "time": 154.83864000000167,
                    "velocity": 0.31496062992125984,
                    "duration": 0.06598237500000437
                },
                {
                    "name": "C#3",
                    "midi": 49,
                    "time": 155.01459300000167,
                    "velocity": 0.28346456692913385,
                    "duration": 0.06598237500000437
                },
                {
                    "name": "A3",
                    "midi": 57,
                    "time": 155.19054600000166,
                    "velocity": 0.29133858267716534,
                    "duration": 0.06598237500000437
                },
                {
                    "name": "C#3",
                    "midi": 49,
                    "time": 155.36649900000165,
                    "velocity": 0.2992125984251969,
                    "duration": 0.06598237500000437
                },
                {
                    "name": "B2",
                    "midi": 47,
                    "time": 155.54245200000165,
                    "velocity": 0.33858267716535434,
                    "duration": 0.06598237500000437
                },
                {
                    "name": "E3",
                    "midi": 52,
                    "time": 155.71840500000164,
                    "velocity": 0.33070866141732286,
                    "duration": 0.06598237500000437
                },
                {
                    "name": "D4",
                    "midi": 62,
                    "time": 155.89435800000163,
                    "velocity": 0.33070866141732286,
                    "duration": 0.06598237500000437
                },
                {
                    "name": "E3",
                    "midi": 52,
                    "time": 156.07031100000162,
                    "velocity": 0.33070866141732286,
                    "duration": 0.06598237500000437
                },
                {
                    "name": "A2",
                    "midi": 45,
                    "time": 156.24626400000162,
                    "velocity": 0.3543307086614173,
                    "duration": 0.06598237500000437
                },
                {
                    "name": "E3",
                    "midi": 52,
                    "time": 156.4222170000016,
                    "velocity": 0.36220472440944884,
                    "duration": 0.06598237500000437
                },
                {
                    "name": "A3",
                    "midi": 57,
                    "time": 156.5981700000016,
                    "velocity": 0.3858267716535433,
                    "duration": 0.06598237500000437
                },
                {
                    "name": "C#4",
                    "midi": 61,
                    "time": 156.7741230000016,
                    "velocity": 0.3937007874015748,
                    "duration": 0.06598237500000437
                },
                {
                    "name": "D3",
                    "midi": 50,
                    "time": 156.9500760000016,
                    "velocity": 0.4251968503937008,
                    "duration": 0.06598237500000437
                },
                {
                    "name": "A3",
                    "midi": 57,
                    "time": 157.12602900000158,
                    "velocity": 0.36220472440944884,
                    "duration": 0.06598237500000437
                },
                {
                    "name": "D4",
                    "midi": 62,
                    "time": 157.30198200000157,
                    "velocity": 0.3543307086614173,
                    "duration": 0.06598237500000437
                },
                {
                    "name": "F#4",
                    "midi": 66,
                    "time": 157.47793500000157,
                    "velocity": 0.3543307086614173,
                    "duration": 0.06598237500000437
                },
                {
                    "name": "A3",
                    "midi": 57,
                    "time": 157.65388800000156,
                    "velocity": 0.33070866141732286,
                    "duration": 0.06598237500000437
                },
                {
                    "name": "D4",
                    "midi": 62,
                    "time": 157.82984100000155,
                    "velocity": 0.29133858267716534,
                    "duration": 0.06598237500000437
                },
                {
                    "name": "F#4",
                    "midi": 66,
                    "time": 158.00579400000154,
                    "velocity": 0.29133858267716534,
                    "duration": 0.06598237500000437
                },
                {
                    "name": "A4",
                    "midi": 69,
                    "time": 158.18174700000154,
                    "velocity": 0.29133858267716534,
                    "duration": 0.08797649999999635
                },
                {
                    "name": "D4",
                    "midi": 62,
                    "time": 158.53365300000152,
                    "velocity": 0.29133858267716534,
                    "duration": 0.08797649999999635
                },
                {
                    "name": "C#4",
                    "midi": 61,
                    "time": 158.70960600000151,
                    "velocity": 0.28346456692913385,
                    "duration": 0.08797649999999635
                },
                {
                    "name": "B3",
                    "midi": 59,
                    "time": 158.8855590000015,
                    "velocity": 0.28346456692913385,
                    "duration": 0.08797649999999635
                },
                {
                    "name": "A3",
                    "midi": 57,
                    "time": 159.0615120000015,
                    "velocity": 0.36220472440944884,
                    "duration": 0.06598237500000437
                },
                {
                    "name": "C#4",
                    "midi": 61,
                    "time": 159.2374650000015,
                    "velocity": 0.28346456692913385,
                    "duration": 0.06598237500000437
                },
                {
                    "name": "A3",
                    "midi": 57,
                    "time": 159.41341800000149,
                    "velocity": 0.3228346456692913,
                    "duration": 0.06598237500000437
                },
                {
                    "name": "F#3",
                    "midi": 54,
                    "time": 159.58937100000148,
                    "velocity": 0.28346456692913385,
                    "duration": 0.06598237500000437
                },
                {
                    "name": "G#3",
                    "midi": 56,
                    "time": 159.76532400000147,
                    "velocity": 0.36220472440944884,
                    "duration": 0.06598237500000437
                },
                {
                    "name": "B3",
                    "midi": 59,
                    "time": 159.94127700000146,
                    "velocity": 0.28346456692913385,
                    "duration": 0.06598237500000437
                },
                {
                    "name": "E4",
                    "midi": 64,
                    "time": 160.11723000000146,
                    "velocity": 0.33070866141732286,
                    "duration": 0.06598237500000437
                },
                {
                    "name": "F#3",
                    "midi": 54,
                    "time": 160.29318300000145,
                    "velocity": 0.28346456692913385,
                    "duration": 0.06598237500000437
                },
                {
                    "name": "E3",
                    "midi": 52,
                    "time": 160.46913600000144,
                    "velocity": 0.36220472440944884,
                    "duration": 0.06598237500000437
                },
                {
                    "name": "B3",
                    "midi": 59,
                    "time": 160.64508900000143,
                    "velocity": 0.2755905511811024,
                    "duration": 0.06598237500000437
                },
                {
                    "name": "E4",
                    "midi": 64,
                    "time": 160.82104200000143,
                    "velocity": 0.30708661417322836,
                    "duration": 0.06598237500000437
                },
                {
                    "name": "B3",
                    "midi": 59,
                    "time": 160.99699500000142,
                    "velocity": 0.2677165354330709,
                    "duration": 0.06598237500000437
                },
                {
                    "name": "B2",
                    "midi": 47,
                    "time": 161.1729480000014,
                    "velocity": 0.33858267716535434,
                    "duration": 0.06598237500000437
                },
                {
                    "name": "G#3",
                    "midi": 56,
                    "time": 161.3489010000014,
                    "velocity": 0.2677165354330709,
                    "duration": 0.06598237500000437
                },
                {
                    "name": "D4",
                    "midi": 62,
                    "time": 161.5248540000014,
                    "velocity": 0.28346456692913385,
                    "duration": 0.06598237500000437
                },
                {
                    "name": "E3",
                    "midi": 52,
                    "time": 161.7008070000014,
                    "velocity": 0.25984251968503935,
                    "duration": 0.06598237500000437
                },
                {
                    "name": "A2",
                    "midi": 45,
                    "time": 161.87676000000138,
                    "velocity": 0.3228346456692913,
                    "duration": 0.06598237500000437
                },
                {
                    "name": "E3",
                    "midi": 52,
                    "time": 162.05271300000138,
                    "velocity": 0.25984251968503935,
                    "duration": 0.06598237500000437
                },
                {
                    "name": "A3",
                    "midi": 57,
                    "time": 162.22866600000137,
                    "velocity": 0.2992125984251969,
                    "duration": 0.06598237500000437
                },
                {
                    "name": "E3",
                    "midi": 52,
                    "time": 162.40461900000136,
                    "velocity": 0.28346456692913385,
                    "duration": 0.06598237500000437
                },
                {
                    "name": "D3",
                    "midi": 50,
                    "time": 162.58057200000135,
                    "velocity": 0.3700787401574803,
                    "duration": 0.06598237500000437
                },
                {
                    "name": "A3",
                    "midi": 57,
                    "time": 162.75652500000135,
                    "velocity": 0.2992125984251969,
                    "duration": 0.06598237500000437
                },
                {
                    "name": "D4",
                    "midi": 62,
                    "time": 162.93247800000134,
                    "velocity": 0.3464566929133858,
                    "duration": 0.06598237500000437
                },
                {
                    "name": "C#3",
                    "midi": 49,
                    "time": 163.10843100000133,
                    "velocity": 0.31496062992125984,
                    "duration": 0.06598237500000437
                },
                {
                    "name": "C3",
                    "midi": 48,
                    "time": 163.28438400000132,
                    "velocity": 0.4330708661417323,
                    "duration": 0.06598237500000437
                },
                {
                    "name": "G#3",
                    "midi": 56,
                    "time": 163.46033700000132,
                    "velocity": 0.33070866141732286,
                    "duration": 0.06598237500000437
                },
                {
                    "name": "D#4",
                    "midi": 63,
                    "time": 163.6362900000013,
                    "velocity": 0.3779527559055118,
                    "duration": 0.06598237500000437
                },
                {
                    "name": "G#3",
                    "midi": 56,
                    "time": 163.8122430000013,
                    "velocity": 0.33070866141732286,
                    "duration": 0.06598237500000437
                },
                {
                    "name": "C3",
                    "midi": 48,
                    "time": 163.9881960000013,
                    "velocity": 0.3858267716535433,
                    "duration": 0.06598237500000437
                },
                {
                    "name": "G#3",
                    "midi": 56,
                    "time": 164.1641490000013,
                    "velocity": 0.2992125984251969,
                    "duration": 0.06598237500000437
                },
                {
                    "name": "D#4",
                    "midi": 63,
                    "time": 164.34010200000128,
                    "velocity": 0.3543307086614173,
                    "duration": 0.06598237500000437
                },
                {
                    "name": "G#3",
                    "midi": 56,
                    "time": 164.51605500000127,
                    "velocity": 0.30708661417322836,
                    "duration": 0.06598237500000437
                },
                {
                    "name": "C3",
                    "midi": 48,
                    "time": 164.69200800000127,
                    "velocity": 0.36220472440944884,
                    "duration": 0.06598237500000437
                },
                {
                    "name": "G#3",
                    "midi": 56,
                    "time": 164.86796100000126,
                    "velocity": 0.28346456692913385,
                    "duration": 0.06598237500000437
                },
                {
                    "name": "D#4",
                    "midi": 63,
                    "time": 165.04391400000125,
                    "velocity": 0.3228346456692913,
                    "duration": 0.06598237500000437
                },
                {
                    "name": "G#3",
                    "midi": 56,
                    "time": 165.21986700000124,
                    "velocity": 0.28346456692913385,
                    "duration": 0.06598237500000437
                },
                {
                    "name": "C#3",
                    "midi": 49,
                    "time": 165.39582000000124,
                    "velocity": 0.3937007874015748,
                    "duration": 0.06598237500000437
                },
                {
                    "name": "A3",
                    "midi": 57,
                    "time": 165.57177300000123,
                    "velocity": 0.36220472440944884,
                    "duration": 0.06598237500000437
                },
                {
                    "name": "E4",
                    "midi": 64,
                    "time": 165.74772600000122,
                    "velocity": 0.3937007874015748,
                    "duration": 0.06598237500000437
                },
                {
                    "name": "A3",
                    "midi": 57,
                    "time": 165.92367900000121,
                    "velocity": 0.3779527559055118,
                    "duration": 0.06598237500000437
                },
                {
                    "name": "C3",
                    "midi": 48,
                    "time": 166.0996320000012,
                    "velocity": 0.3937007874015748,
                    "duration": 0.06598237500000437
                },
                {
                    "name": "G#3",
                    "midi": 56,
                    "time": 166.2755850000012,
                    "velocity": 0.30708661417322836,
                    "duration": 0.06598237500000437
                },
                {
                    "name": "D#4",
                    "midi": 63,
                    "time": 166.4515380000012,
                    "velocity": 0.3543307086614173,
                    "duration": 0.06598237500000437
                },
                {
                    "name": "G#3",
                    "midi": 56,
                    "time": 166.62749100000119,
                    "velocity": 0.30708661417322836,
                    "duration": 0.06598237500000437
                },
                {
                    "name": "B2",
                    "midi": 47,
                    "time": 166.80344400000118,
                    "velocity": 0.3937007874015748,
                    "duration": 0.06598237499997595
                },
                {
                    "name": "E3",
                    "midi": 52,
                    "time": 166.97939700000114,
                    "velocity": 0.36220472440944884,
                    "duration": 0.06598237500000437
                },
                {
                    "name": "G#3",
                    "midi": 56,
                    "time": 167.15535000000114,
                    "velocity": 0.3937007874015748,
                    "duration": 0.06598237500000437
                },
                {
                    "name": "D4",
                    "midi": 62,
                    "time": 167.15535000000114,
                    "velocity": 0.3937007874015748,
                    "duration": 0.06598237500000437
                },
                {
                    "name": "E3",
                    "midi": 52,
                    "time": 167.33130300000113,
                    "velocity": 0.3779527559055118,
                    "duration": 0.06598237500000437
                },
                {
                    "name": "A2",
                    "midi": 45,
                    "time": 167.50725600000112,
                    "velocity": 0.3937007874015748,
                    "duration": 0.06598237500000437
                },
                {
                    "name": "E3",
                    "midi": 52,
                    "time": 167.6832090000011,
                    "velocity": 0.33070866141732286,
                    "duration": 0.06598237500000437
                },
                {
                    "name": "A3",
                    "midi": 57,
                    "time": 167.8591620000011,
                    "velocity": 0.3700787401574803,
                    "duration": 0.06598237500000437
                },
                {
                    "name": "E3",
                    "midi": 52,
                    "time": 168.0351150000011,
                    "velocity": 0.3464566929133858,
                    "duration": 0.06598237500000437
                },
                {
                    "name": "F#2",
                    "midi": 42,
                    "time": 168.2110680000011,
                    "velocity": 0.4330708661417323,
                    "duration": 0.06598237500000437
                },
                {
                    "name": "B2",
                    "midi": 47,
                    "time": 168.38702100000108,
                    "velocity": 0.3937007874015748,
                    "duration": 0.06598237500000437
                },
                {
                    "name": "A3",
                    "midi": 57,
                    "time": 168.56297400000108,
                    "velocity": 0.4330708661417323,
                    "duration": 0.06598237500000437
                },
                {
                    "name": "B2",
                    "midi": 47,
                    "time": 168.73892700000107,
                    "velocity": 0.4094488188976378,
                    "duration": 0.06598237500000437
                },
                {
                    "name": "C#2",
                    "midi": 37,
                    "time": 168.91488000000106,
                    "velocity": 0.5196850393700787,
                    "duration": 0.06598237500000437
                },
                {
                    "name": "G#2",
                    "midi": 44,
                    "time": 169.09083300000106,
                    "velocity": 0.44881889763779526,
                    "duration": 0.06598237500000437
                },
                {
                    "name": "F3",
                    "midi": 53,
                    "time": 169.26678600000105,
                    "velocity": 0.48031496062992124,
                    "duration": 0.06598237500000437
                },
                {
                    "name": "G#2",
                    "midi": 44,
                    "time": 169.44273900000104,
                    "velocity": 0.44881889763779526,
                    "duration": 0.06598237500000437
                },
                {
                    "name": "C#2",
                    "midi": 37,
                    "time": 169.61869200000103,
                    "velocity": 0.5196850393700787,
                    "duration": 0.06598237500000437
                },
                {
                    "name": "G#2",
                    "midi": 44,
                    "time": 169.79464500000103,
                    "velocity": 0.44881889763779526,
                    "duration": 0.06598237500000437
                },
                {
                    "name": "F3",
                    "midi": 53,
                    "time": 169.97059800000102,
                    "velocity": 0.48031496062992124,
                    "duration": 0.06598237500000437
                },
                {
                    "name": "G#2",
                    "midi": 44,
                    "time": 170.146551000001,
                    "velocity": 0.44881889763779526,
                    "duration": 0.06598237500000437
                },
                {
                    "name": "C#2",
                    "midi": 37,
                    "time": 170.322504000001,
                    "velocity": 0.5196850393700787,
                    "duration": 0.06598237500000437
                },
                {
                    "name": "G#2",
                    "midi": 44,
                    "time": 170.498457000001,
                    "velocity": 0.44881889763779526,
                    "duration": 0.06598237500000437
                },
                {
                    "name": "F3",
                    "midi": 53,
                    "time": 170.674410000001,
                    "velocity": 0.48031496062992124,
                    "duration": 0.06598237500000437
                },
                {
                    "name": "G#2",
                    "midi": 44,
                    "time": 170.85036300000098,
                    "velocity": 0.44881889763779526,
                    "duration": 0.06598237500000437
                },
                {
                    "name": "C#2",
                    "midi": 37,
                    "time": 171.02631600000097,
                    "velocity": 0.36220472440944884,
                    "duration": 0.06598237500000437
                },
                {
                    "name": "A2",
                    "midi": 45,
                    "time": 171.20226900000097,
                    "velocity": 0.33070866141732286,
                    "duration": 0.06598237500000437
                },
                {
                    "name": "E3",
                    "midi": 52,
                    "time": 171.37822200000096,
                    "velocity": 0.36220472440944884,
                    "duration": 0.06598237500000437
                },
                {
                    "name": "A2",
                    "midi": 45,
                    "time": 171.55417500000095,
                    "velocity": 0.3464566929133858,
                    "duration": 0.06598237500000437
                },
                {
                    "name": "C#2",
                    "midi": 37,
                    "time": 171.73012800000095,
                    "velocity": 0.3779527559055118,
                    "duration": 0.06598237500000437
                },
                {
                    "name": "G#2",
                    "midi": 44,
                    "time": 171.90608100000094,
                    "velocity": 0.31496062992125984,
                    "duration": 0.06598237500000437
                },
                {
                    "name": "F3",
                    "midi": 53,
                    "time": 172.08203400000093,
                    "velocity": 0.33858267716535434,
                    "duration": 0.06598237500000437
                },
                {
                    "name": "G#2",
                    "midi": 44,
                    "time": 172.25798700000092,
                    "velocity": 0.30708661417322836,
                    "duration": 0.06598237500000437
                },
                {
                    "name": "C#2",
                    "midi": 37,
                    "time": 172.43394000000092,
                    "velocity": 0.3543307086614173,
                    "duration": 0.06598237500000437
                },
                {
                    "name": "G#2",
                    "midi": 44,
                    "time": 172.6098930000009,
                    "velocity": 0.2992125984251969,
                    "duration": 0.06598237500000437
                },
                {
                    "name": "F3",
                    "midi": 53,
                    "time": 172.7858460000009,
                    "velocity": 0.3228346456692913,
                    "duration": 0.06598237500000437
                },
                {
                    "name": "G#2",
                    "midi": 44,
                    "time": 172.9617990000009,
                    "velocity": 0.29133858267716534,
                    "duration": 0.06598237500000437
                },
                {
                    "name": "C#2",
                    "midi": 37,
                    "time": 173.1377520000009,
                    "velocity": 0.33858267716535434,
                    "duration": 0.06598237500000437
                },
                {
                    "name": "G#2",
                    "midi": 44,
                    "time": 173.31370500000088,
                    "velocity": 0.29133858267716534,
                    "duration": 0.06598237500000437
                },
                {
                    "name": "F3",
                    "midi": 53,
                    "time": 173.48965800000087,
                    "velocity": 0.30708661417322836,
                    "duration": 0.06598237500000437
                },
                {
                    "name": "G#2",
                    "midi": 44,
                    "time": 173.66561100000087,
                    "velocity": 0.28346456692913385,
                    "duration": 0.06598237500000437
                },
                {
                    "name": "C#2",
                    "midi": 37,
                    "time": 173.84156400000086,
                    "velocity": 0.30708661417322836,
                    "duration": 0.06598237500000437
                },
                {
                    "name": "A2",
                    "midi": 45,
                    "time": 174.01751700000085,
                    "velocity": 0.2755905511811024,
                    "duration": 0.06598237500000437
                },
                {
                    "name": "E3",
                    "midi": 52,
                    "time": 174.19347000000084,
                    "velocity": 0.30708661417322836,
                    "duration": 0.06598237500000437
                },
                {
                    "name": "A2",
                    "midi": 45,
                    "time": 174.36942300000084,
                    "velocity": 0.29133858267716534,
                    "duration": 0.06598237500000437
                },
                {
                    "name": "D2",
                    "midi": 38,
                    "time": 174.54537600000083,
                    "velocity": 0.2204724409448819,
                    "duration": 0.17595300000002112
                },
                {
                    "name": "A2",
                    "midi": 45,
                    "time": 174.72132900000085,
                    "velocity": 0.2125984251968504,
                    "duration": 0.1759529999999927
                },
                {
                    "name": "D3",
                    "midi": 50,
                    "time": 174.89728200000084,
                    "velocity": 0.2125984251968504,
                    "duration": 0.1759529999999927
                },
                {
                    "name": "A2",
                    "midi": 45,
                    "time": 175.07323500000084,
                    "velocity": 0.2125984251968504,
                    "duration": 0.1759529999999927
                },
                {
                    "name": "D2",
                    "midi": 38,
                    "time": 175.24918800000083,
                    "velocity": 0.2204724409448819,
                    "duration": 0.1759529999999927
                },
                {
                    "name": "A2",
                    "midi": 45,
                    "time": 175.42514100000082,
                    "velocity": 0.2047244094488189,
                    "duration": 0.1759529999999927
                },
                {
                    "name": "D3",
                    "midi": 50,
                    "time": 175.6010940000008,
                    "velocity": 0.2047244094488189,
                    "duration": 0.1759529999999927
                },
                {
                    "name": "A2",
                    "midi": 45,
                    "time": 175.7770470000008,
                    "velocity": 0.2047244094488189,
                    "duration": 0.1759529999999927
                },
                {
                    "name": "D2",
                    "midi": 38,
                    "time": 175.9530000000008,
                    "velocity": 0.2204724409448819,
                    "duration": 0.1759529999999927
                },
                {
                    "name": "G#2",
                    "midi": 44,
                    "time": 176.1289530000008,
                    "velocity": 0.1968503937007874,
                    "duration": 0.1759529999999927
                },
                {
                    "name": "D3",
                    "midi": 50,
                    "time": 176.30490600000078,
                    "velocity": 0.1968503937007874,
                    "duration": 0.1759529999999927
                },
                {
                    "name": "G#2",
                    "midi": 44,
                    "time": 176.48085900000078,
                    "velocity": 0.1968503937007874,
                    "duration": 0.1759529999999927
                },
                {
                    "name": "D2",
                    "midi": 38,
                    "time": 176.65681200000077,
                    "velocity": 0.2204724409448819,
                    "duration": 0.17595300000002112
                },
                {
                    "name": "G#2",
                    "midi": 44,
                    "time": 176.8327650000008,
                    "velocity": 0.1968503937007874,
                    "duration": 0.17595300000002112
                },
                {
                    "name": "D3",
                    "midi": 50,
                    "time": 177.0087180000008,
                    "velocity": 0.1968503937007874,
                    "duration": 0.1759529999999927
                },
                {
                    "name": "G#2",
                    "midi": 44,
                    "time": 177.1846710000008,
                    "velocity": 0.1968503937007874,
                    "duration": 0.1759529999999927
                },
                {
                    "name": "D2",
                    "midi": 38,
                    "time": 177.3606240000008,
                    "velocity": 0.2204724409448819,
                    "duration": 0.1759529999999927
                },
                {
                    "name": "A2",
                    "midi": 45,
                    "time": 177.5365770000008,
                    "velocity": 0.2125984251968504,
                    "duration": 0.1759529999999927
                },
                {
                    "name": "D3",
                    "midi": 50,
                    "time": 177.71253000000078,
                    "velocity": 0.2125984251968504,
                    "duration": 0.1759529999999927
                },
                {
                    "name": "A2",
                    "midi": 45,
                    "time": 177.88848300000078,
                    "velocity": 0.2125984251968504,
                    "duration": 0.1759529999999927
                },
                {
                    "name": "D2",
                    "midi": 38,
                    "time": 178.06443600000077,
                    "velocity": 0.2204724409448819,
                    "duration": 0.1759529999999927
                },
                {
                    "name": "A2",
                    "midi": 45,
                    "time": 178.24038900000076,
                    "velocity": 0.1968503937007874,
                    "duration": 0.1759529999999927
                },
                {
                    "name": "D3",
                    "midi": 50,
                    "time": 178.41634200000075,
                    "velocity": 0.1968503937007874,
                    "duration": 0.1759529999999927
                },
                {
                    "name": "A2",
                    "midi": 45,
                    "time": 178.59229500000075,
                    "velocity": 0.1968503937007874,
                    "duration": 0.1759529999999927
                },
                {
                    "name": "D2",
                    "midi": 38,
                    "time": 178.76824800000074,
                    "velocity": 0.29133858267716534,
                    "duration": 0.1759529999999927
                },
                {
                    "name": "B2",
                    "midi": 47,
                    "time": 178.94420100000073,
                    "velocity": 0.25984251968503935,
                    "duration": 0.1759529999999927
                },
                {
                    "name": "D3",
                    "midi": 50,
                    "time": 179.12015400000072,
                    "velocity": 0.25984251968503935,
                    "duration": 0.1759529999999927
                },
                {
                    "name": "F#3",
                    "midi": 54,
                    "time": 179.29610700000072,
                    "velocity": 0.25984251968503935,
                    "duration": 0.1759529999999927
                },
                {
                    "name": "G#3",
                    "midi": 56,
                    "time": 179.4720600000007,
                    "velocity": 0.25984251968503935,
                    "duration": 0.1759529999999927
                },
                {
                    "name": "B3",
                    "midi": 59,
                    "time": 179.6480130000007,
                    "velocity": 0.25984251968503935,
                    "duration": 0.1759529999999927
                },
                {
                    "name": "D2",
                    "midi": 38,
                    "time": 180.1758720000007,
                    "velocity": 0.2204724409448819,
                    "duration": 0.17595300000002112
                },
                {
                    "name": "A2",
                    "midi": 45,
                    "time": 180.35182500000073,
                    "velocity": 0.2125984251968504,
                    "duration": 0.1759529999999927
                },
                {
                    "name": "D3",
                    "midi": 50,
                    "time": 180.52777800000072,
                    "velocity": 0.2125984251968504,
                    "duration": 0.1759529999999927
                },
                {
                    "name": "F#3",
                    "midi": 54,
                    "time": 180.70373100000072,
                    "velocity": 0.2125984251968504,
                    "duration": 0.1759529999999927
                },
                {
                    "name": "A3",
                    "midi": 57,
                    "time": 180.8796840000007,
                    "velocity": 0.2204724409448819,
                    "duration": 0.1759529999999927
                },
                {
                    "name": "F#3",
                    "midi": 54,
                    "time": 181.0556370000007,
                    "velocity": 0.2047244094488189,
                    "duration": 0.1759529999999927
                },
                {
                    "name": "D3",
                    "midi": 50,
                    "time": 181.2315900000007,
                    "velocity": 0.2047244094488189,
                    "duration": 0.1759529999999927
                },
                {
                    "name": "A2",
                    "midi": 45,
                    "time": 181.4075430000007,
                    "velocity": 0.2047244094488189,
                    "duration": 0.1759529999999927
                },
                {
                    "name": "D2",
                    "midi": 38,
                    "time": 181.58349600000068,
                    "velocity": 0.2204724409448819,
                    "duration": 0.1759529999999927
                },
                {
                    "name": "G#2",
                    "midi": 44,
                    "time": 181.75944900000067,
                    "velocity": 0.1968503937007874,
                    "duration": 0.1759529999999927
                },
                {
                    "name": "D3",
                    "midi": 50,
                    "time": 181.93540200000066,
                    "velocity": 0.1968503937007874,
                    "duration": 0.1759529999999927
                },
                {
                    "name": "F#3",
                    "midi": 54,
                    "time": 182.11135500000066,
                    "velocity": 0.1968503937007874,
                    "duration": 0.1759529999999927
                },
                {
                    "name": "G#3",
                    "midi": 56,
                    "time": 182.28730800000065,
                    "velocity": 0.2204724409448819,
                    "duration": 0.1759529999999927
                },
                {
                    "name": "F#3",
                    "midi": 54,
                    "time": 182.46326100000064,
                    "velocity": 0.1968503937007874,
                    "duration": 0.1759529999999927
                },
                {
                    "name": "D3",
                    "midi": 50,
                    "time": 182.63921400000063,
                    "velocity": 0.1968503937007874,
                    "duration": 0.1759529999999927
                },
                {
                    "name": "G#2",
                    "midi": 44,
                    "time": 182.81516700000063,
                    "velocity": 0.1968503937007874,
                    "duration": 0.1759529999999927
                },
                {
                    "name": "D2",
                    "midi": 38,
                    "time": 182.99112000000062,
                    "velocity": 0.2204724409448819,
                    "duration": 0.1759529999999927
                },
                {
                    "name": "A2",
                    "midi": 45,
                    "time": 183.1670730000006,
                    "velocity": 0.2125984251968504,
                    "duration": 0.1759529999999927
                },
                {
                    "name": "D3",
                    "midi": 50,
                    "time": 183.3430260000006,
                    "velocity": 0.2125984251968504,
                    "duration": 0.1759529999999927
                },
                {
                    "name": "F#3",
                    "midi": 54,
                    "time": 183.5189790000006,
                    "velocity": 0.2125984251968504,
                    "duration": 0.1759529999999927
                },
                {
                    "name": "A3",
                    "midi": 57,
                    "time": 183.6949320000006,
                    "velocity": 0.2204724409448819,
                    "duration": 0.1759529999999927
                },
                {
                    "name": "F#3",
                    "midi": 54,
                    "time": 183.87088500000058,
                    "velocity": 0.1968503937007874,
                    "duration": 0.1759529999999927
                },
                {
                    "name": "D3",
                    "midi": 50,
                    "time": 184.04683800000058,
                    "velocity": 0.1968503937007874,
                    "duration": 0.1759529999999927
                },
                {
                    "name": "A2",
                    "midi": 45,
                    "time": 184.22279100000057,
                    "velocity": 0.1968503937007874,
                    "duration": 0.1759529999999927
                },
                {
                    "name": "E2",
                    "midi": 40,
                    "time": 184.39874400000056,
                    "velocity": 0.29133858267716534,
                    "duration": 0.1759529999999927
                },
                {
                    "name": "B2",
                    "midi": 47,
                    "time": 184.57469700000055,
                    "velocity": 0.25984251968503935,
                    "duration": 0.1759529999999927
                },
                {
                    "name": "E3",
                    "midi": 52,
                    "time": 184.75065000000055,
                    "velocity": 0.25984251968503935,
                    "duration": 0.1759529999999927
                },
                {
                    "name": "F#3",
                    "midi": 54,
                    "time": 184.92660300000054,
                    "velocity": 0.25984251968503935,
                    "duration": 0.1759529999999927
                },
                {
                    "name": "G#3",
                    "midi": 56,
                    "time": 185.10255600000053,
                    "velocity": 0.28346456692913385,
                    "duration": 0.1759529999999927
                },
                {
                    "name": "F#3",
                    "midi": 54,
                    "time": 185.27850900000053,
                    "velocity": 0.25984251968503935,
                    "duration": 0.1759529999999927
                },
                {
                    "name": "G#3",
                    "midi": 56,
                    "time": 185.45446200000052,
                    "velocity": 0.25984251968503935,
                    "duration": 0.1759529999999927
                },
                {
                    "name": "B3",
                    "midi": 59,
                    "time": 185.6304150000005,
                    "velocity": 0.25984251968503935,
                    "duration": 0.1759529999999927
                },
                {
                    "name": "D4",
                    "midi": 62,
                    "time": 185.8063680000005,
                    "velocity": 0.2992125984251969,
                    "duration": 0.3519059999999854
                },
                {
                    "name": "B3",
                    "midi": 59,
                    "time": 185.9823210000005,
                    "velocity": 0.25984251968503935,
                    "duration": 0.1759529999999927
                },
                {
                    "name": "D4",
                    "midi": 62,
                    "time": 186.1582740000005,
                    "velocity": 0.28346456692913385,
                    "duration": 0.1759529999999927
                },
                {
                    "name": "E4",
                    "midi": 64,
                    "time": 186.33422700000048,
                    "velocity": 0.28346456692913385,
                    "duration": 0.1759529999999927
                },
                {
                    "name": "F#4",
                    "midi": 66,
                    "time": 187.74185100000048,
                    "velocity": 0.28346456692913385,
                    "duration": 0.8797649999999919
                },
                {
                    "name": "G#4",
                    "midi": 68,
                    "time": 187.91780400000047,
                    "velocity": 0.28346456692913385,
                    "duration": 0.7038119999999992
                },
                {
                    "name": "E4",
                    "midi": 64,
                    "time": 189.14947500000048,
                    "velocity": 0.2755905511811024,
                    "duration": 0.8797649999999919
                },
                {
                    "name": "G#4",
                    "midi": 68,
                    "time": 189.32542800000047,
                    "velocity": 0.2755905511811024,
                    "duration": 0.7038119999999992
                },
                {
                    "name": "F#4",
                    "midi": 66,
                    "time": 190.55709900000048,
                    "velocity": 0.25984251968503935,
                    "duration": 0.8797649999999919
                },
                {
                    "name": "G#4",
                    "midi": 68,
                    "time": 190.73305200000047,
                    "velocity": 0.25984251968503935,
                    "duration": 0.7038119999999992
                },
                {
                    "name": "E4",
                    "midi": 64,
                    "time": 191.96472300000048,
                    "velocity": 0.23622047244094488,
                    "duration": 0.8797649999999919
                },
                {
                    "name": "G#4",
                    "midi": 68,
                    "time": 192.14067600000047,
                    "velocity": 0.23622047244094488,
                    "duration": 0.7038119999999992
                },
                {
                    "name": "F#3",
                    "midi": 54,
                    "time": 193.02044100000046,
                    "velocity": 0.2125984251968504,
                    "duration": 0.1759529999999927
                },
                {
                    "name": "F#4",
                    "midi": 66,
                    "time": 193.19639400000045,
                    "velocity": 0.2125984251968504,
                    "duration": 0.1759529999999927
                },
                {
                    "name": "C#4",
                    "midi": 61,
                    "time": 193.19639400000045,
                    "velocity": 0.2125984251968504,
                    "duration": 0.1759529999999927
                },
                {
                    "name": "A4",
                    "midi": 69,
                    "time": 193.37234700000045,
                    "velocity": 0.2125984251968504,
                    "duration": 0.1759529999999927
                },
                {
                    "name": "A3",
                    "midi": 57,
                    "time": 193.72425300000043,
                    "velocity": 0.2125984251968504,
                    "duration": 0.1759529999999927
                },
                {
                    "name": "D4",
                    "midi": 62,
                    "time": 193.90020600000042,
                    "velocity": 0.2125984251968504,
                    "duration": 0.1759529999999927
                },
                {
                    "name": "F#4",
                    "midi": 66,
                    "time": 193.90020600000042,
                    "velocity": 0.2125984251968504,
                    "duration": 0.1759529999999927
                },
                {
                    "name": "C5",
                    "midi": 72,
                    "time": 194.07615900000042,
                    "velocity": 0.2125984251968504,
                    "duration": 0.1759529999999927
                },
                {
                    "name": "C#4",
                    "midi": 61,
                    "time": 194.42806500000037,
                    "velocity": 0.2125984251968504,
                    "duration": 0.1759529999999927
                },
                {
                    "name": "F#4",
                    "midi": 66,
                    "time": 194.60401800000037,
                    "velocity": 0.2125984251968504,
                    "duration": 0.1759529999999927
                },
                {
                    "name": "E5",
                    "midi": 76,
                    "time": 194.77997100000036,
                    "velocity": 0.2125984251968504,
                    "duration": 0.1759529999999927
                },
                {
                    "name": "B3",
                    "midi": 59,
                    "time": 195.13187700000034,
                    "velocity": 0.18110236220472442,
                    "duration": 0.1759529999999927
                },
                {
                    "name": "F#4",
                    "midi": 66,
                    "time": 195.30783000000034,
                    "velocity": 0.15748031496062992,
                    "duration": 0.1759529999999927
                },
                {
                    "name": "D#5",
                    "midi": 75,
                    "time": 195.48378300000033,
                    "velocity": 0.16535433070866143,
                    "duration": 0.1759529999999927
                },
                {
                    "name": "F#3",
                    "midi": 54,
                    "time": 195.8356890000003,
                    "velocity": 0.2125984251968504,
                    "duration": 0.1759529999999927
                },
                {
                    "name": "F#4",
                    "midi": 66,
                    "time": 196.01164200000028,
                    "velocity": 0.2125984251968504,
                    "duration": 0.1759529999999927
                },
                {
                    "name": "C#4",
                    "midi": 61,
                    "time": 196.01164200000028,
                    "velocity": 0.2125984251968504,
                    "duration": 0.1759529999999927
                },
                {
                    "name": "A4",
                    "midi": 69,
                    "time": 196.18759500000027,
                    "velocity": 0.2125984251968504,
                    "duration": 0.1759529999999927
                },
                {
                    "name": "A3",
                    "midi": 57,
                    "time": 196.53950100000026,
                    "velocity": 0.2125984251968504,
                    "duration": 0.1759529999999927
                },
                {
                    "name": "D4",
                    "midi": 62,
                    "time": 196.71545400000025,
                    "velocity": 0.2125984251968504,
                    "duration": 0.1759529999999927
                },
                {
                    "name": "F#4",
                    "midi": 66,
                    "time": 196.71545400000025,
                    "velocity": 0.2125984251968504,
                    "duration": 0.1759529999999927
                },
                {
                    "name": "C5",
                    "midi": 72,
                    "time": 196.89140700000024,
                    "velocity": 0.2125984251968504,
                    "duration": 0.1759529999999927
                },
                {
                    "name": "C#4",
                    "midi": 61,
                    "time": 197.24331300000023,
                    "velocity": 0.2125984251968504,
                    "duration": 0.1759529999999927
                },
                {
                    "name": "F#4",
                    "midi": 66,
                    "time": 197.41926600000022,
                    "velocity": 0.2125984251968504,
                    "duration": 0.1759529999999927
                },
                {
                    "name": "E5",
                    "midi": 76,
                    "time": 197.5952190000002,
                    "velocity": 0.2125984251968504,
                    "duration": 0.1759529999999927
                },
                {
                    "name": "B3",
                    "midi": 59,
                    "time": 197.94712500000017,
                    "velocity": 0.18110236220472442,
                    "duration": 0.1759529999999927
                },
                {
                    "name": "F#4",
                    "midi": 66,
                    "time": 198.12307800000016,
                    "velocity": 0.15748031496062992,
                    "duration": 0.1759529999999927
                },
                {
                    "name": "D#5",
                    "midi": 75,
                    "time": 198.29903100000016,
                    "velocity": 0.15748031496062992,
                    "duration": 0.1759529999999927
                },
                {
                    "name": "C#3",
                    "midi": 49,
                    "time": 198.65093700000014,
                    "velocity": 0.1889763779527559,
                    "duration": 0.1759529999999927
                },
                {
                    "name": "F#3",
                    "midi": 54,
                    "time": 198.82689000000013,
                    "velocity": 0.16535433070866143,
                    "duration": 0.1759529999999927
                },
                {
                    "name": "E4",
                    "midi": 64,
                    "time": 199.00284300000013,
                    "velocity": 0.16535433070866143,
                    "duration": 0.1759529999999927
                },
                {
                    "name": "B2",
                    "midi": 47,
                    "time": 199.35474900000014,
                    "velocity": 0.1889763779527559,
                    "duration": 0.1759529999999927
                },
                {
                    "name": "F#3",
                    "midi": 54,
                    "time": 199.53070200000013,
                    "velocity": 0.1968503937007874,
                    "duration": 0.1759529999999927
                },
                {
                    "name": "D#4",
                    "midi": 63,
                    "time": 199.70665500000013,
                    "velocity": 0.1889763779527559,
                    "duration": 0.1759529999999927
                },
                {
                    "name": "A2",
                    "midi": 45,
                    "time": 199.88260800000012,
                    "velocity": 0.2677165354330709,
                    "duration": 0.17595300000002112
                },
                {
                    "name": "D#3",
                    "midi": 51,
                    "time": 200.05856100000014,
                    "velocity": 0.2440944881889764,
                    "duration": 0.1759529999999927
                },
                {
                    "name": "F#3",
                    "midi": 54,
                    "time": 200.23451400000013,
                    "velocity": 0.2440944881889764,
                    "duration": 0.1759529999999927
                },
                {
                    "name": "A3",
                    "midi": 57,
                    "time": 200.41046700000012,
                    "velocity": 0.23622047244094488,
                    "duration": 0.1759529999999927
                },
                {
                    "name": "C#4",
                    "midi": 61,
                    "time": 200.58642000000012,
                    "velocity": 0.2755905511811024,
                    "duration": 0.1759529999999927
                },
                {
                    "name": "D#5",
                    "midi": 75,
                    "time": 201.4661850000001,
                    "velocity": 0.2440944881889764,
                    "duration": 0.1759529999999927
                },
                {
                    "name": "F#5",
                    "midi": 78,
                    "time": 201.6421380000001,
                    "velocity": 0.23622047244094488,
                    "duration": 0.1759529999999927
                },
                {
                    "name": "A5",
                    "midi": 81,
                    "time": 201.8180910000001,
                    "velocity": 0.23622047244094488,
                    "duration": 0.1759529999999927
                },
                {
                    "name": "C#6",
                    "midi": 85,
                    "time": 201.9940440000001,
                    "velocity": 0.25984251968503935,
                    "duration": 0.1759529999999927
                },
                {
                    "name": "G#2",
                    "midi": 44,
                    "time": 202.6978560000001,
                    "velocity": 0.25196850393700787,
                    "duration": 0.1759529999999927
                },
                {
                    "name": "F3",
                    "midi": 53,
                    "time": 202.87380900000008,
                    "velocity": 0.23622047244094488,
                    "duration": 0.1759529999999927
                },
                {
                    "name": "G#3",
                    "midi": 56,
                    "time": 203.04976200000007,
                    "velocity": 0.23622047244094488,
                    "duration": 0.1759529999999927
                },
                {
                    "name": "B3",
                    "midi": 59,
                    "time": 203.22571500000006,
                    "velocity": 0.23622047244094488,
                    "duration": 0.1759529999999927
                },
                {
                    "name": "C#4",
                    "midi": 61,
                    "time": 203.40166800000006,
                    "velocity": 0.2677165354330709,
                    "duration": 0.17595300000002112
                },
                {
                    "name": "F5",
                    "midi": 77,
                    "time": 204.10548000000009,
                    "velocity": 0.25984251968503935,
                    "duration": 0.17595300000002112
                },
                {
                    "name": "G#5",
                    "midi": 80,
                    "time": 204.2814330000001,
                    "velocity": 0.2440944881889764,
                    "duration": 0.1759529999999927
                },
                {
                    "name": "B5",
                    "midi": 83,
                    "time": 204.4573860000001,
                    "velocity": 0.23622047244094488,
                    "duration": 0.1759529999999927
                },
                {
                    "name": "C#6",
                    "midi": 85,
                    "time": 204.6333390000001,
                    "velocity": 0.23622047244094488,
                    "duration": 0.1759529999999927
                },
                {
                    "name": "F#1",
                    "midi": 30,
                    "time": 205.51310400000006,
                    "velocity": 0.23622047244094488,
                    "duration": 0.7038119999999992
                },
                {
                    "name": "C#2",
                    "midi": 37,
                    "time": 205.51310400000006,
                    "velocity": 0.23622047244094488,
                    "duration": 0.7038119999999992
                },
                {
                    "name": "F#2",
                    "midi": 42,
                    "time": 205.51310400000006,
                    "velocity": 0.23622047244094488,
                    "duration": 0.7038119999999992
                },
                {
                    "name": "C#2",
                    "midi": 37,
                    "time": 206.21691600000005,
                    "velocity": 0.23622047244094488,
                    "duration": 0.7038119999999992
                },
                {
                    "name": "F#2",
                    "midi": 42,
                    "time": 206.21691600000005,
                    "velocity": 0.23622047244094488,
                    "duration": 0.7038119999999992
                },
                {
                    "name": "C#3",
                    "midi": 49,
                    "time": 206.21691600000005,
                    "velocity": 0.23622047244094488,
                    "duration": 0.7038119999999992
                },
                {
                    "name": "B1",
                    "midi": 35,
                    "time": 206.92072800000005,
                    "velocity": 0.23622047244094488,
                    "duration": 1.4076239999999984
                },
                {
                    "name": "F#2",
                    "midi": 42,
                    "time": 206.92072800000005,
                    "velocity": 0.23622047244094488,
                    "duration": 1.4076239999999984
                },
                {
                    "name": "B2",
                    "midi": 47,
                    "time": 206.92072800000005,
                    "velocity": 0.23622047244094488,
                    "duration": 1.4076239999999984
                },
                {
                    "name": "F#1",
                    "midi": 30,
                    "time": 208.32835200000005,
                    "velocity": 0.23622047244094488,
                    "duration": 0.7038119999999992
                },
                {
                    "name": "C#2",
                    "midi": 37,
                    "time": 208.32835200000005,
                    "velocity": 0.23622047244094488,
                    "duration": 0.7038119999999992
                },
                {
                    "name": "F#2",
                    "midi": 42,
                    "time": 208.32835200000005,
                    "velocity": 0.23622047244094488,
                    "duration": 0.7038119999999992
                },
                {
                    "name": "C#2",
                    "midi": 37,
                    "time": 209.03216400000005,
                    "velocity": 0.23622047244094488,
                    "duration": 0.7038119999999992
                },
                {
                    "name": "F#2",
                    "midi": 42,
                    "time": 209.03216400000005,
                    "velocity": 0.23622047244094488,
                    "duration": 0.7038119999999992
                },
                {
                    "name": "C#3",
                    "midi": 49,
                    "time": 209.03216400000005,
                    "velocity": 0.23622047244094488,
                    "duration": 0.7038119999999992
                },
                {
                    "name": "B1",
                    "midi": 35,
                    "time": 209.73597600000005,
                    "velocity": 0.23622047244094488,
                    "duration": 1.4076239999999984
                },
                {
                    "name": "F#2",
                    "midi": 42,
                    "time": 209.73597600000005,
                    "velocity": 0.23622047244094488,
                    "duration": 1.4076239999999984
                },
                {
                    "name": "B2",
                    "midi": 47,
                    "time": 209.73597600000005,
                    "velocity": 0.23622047244094488,
                    "duration": 1.4076239999999984
                },
                {
                    "name": "F#1",
                    "midi": 30,
                    "time": 211.14360000000005,
                    "velocity": 0.23622047244094488,
                    "duration": 0.7038119999999992
                },
                {
                    "name": "C#2",
                    "midi": 37,
                    "time": 211.14360000000005,
                    "velocity": 0.23622047244094488,
                    "duration": 0.7038119999999992
                },
                {
                    "name": "F#2",
                    "midi": 42,
                    "time": 211.14360000000005,
                    "velocity": 0.23622047244094488,
                    "duration": 0.7038119999999992
                },
                {
                    "name": "F#2",
                    "midi": 42,
                    "time": 211.84741200000005,
                    "velocity": 0.23622047244094488,
                    "duration": 0.7038119999999992
                },
                {
                    "name": "C#2",
                    "midi": 37,
                    "time": 211.84741200000005,
                    "velocity": 0.23622047244094488,
                    "duration": 0.7038119999999992
                },
                {
                    "name": "C#3",
                    "midi": 49,
                    "time": 211.84741200000005,
                    "velocity": 0.23622047244094488,
                    "duration": 0.7038119999999992
                },
                {
                    "name": "B1",
                    "midi": 35,
                    "time": 212.55122400000005,
                    "velocity": 0.23622047244094488,
                    "duration": 0.1759529999999927
                },
                {
                    "name": "F#2",
                    "midi": 42,
                    "time": 212.72717700000004,
                    "velocity": 0.23622047244094488,
                    "duration": 0.1759529999999927
                },
                {
                    "name": "B2",
                    "midi": 47,
                    "time": 212.90313000000003,
                    "velocity": 0.23622047244094488,
                    "duration": 0.1759529999999927
                },
                {
                    "name": "D#3",
                    "midi": 51,
                    "time": 213.07908300000003,
                    "velocity": 0.23622047244094488,
                    "duration": 0.1759529999999927
                },
                {
                    "name": "F#3",
                    "midi": 54,
                    "time": 213.25503600000002,
                    "velocity": 0.23622047244094488,
                    "duration": 0.1759529999999927
                },
                {
                    "name": "B3",
                    "midi": 59,
                    "time": 213.430989,
                    "velocity": 0.23622047244094488,
                    "duration": 0.1759529999999927
                },
                {
                    "name": "D#4",
                    "midi": 63,
                    "time": 213.606942,
                    "velocity": 0.23622047244094488,
                    "duration": 0.1759529999999927
                },
                {
                    "name": "F#4",
                    "midi": 66,
                    "time": 213.782895,
                    "velocity": 0.23622047244094488,
                    "duration": 0.1759529999999927
                },
                {
                    "name": "B4",
                    "midi": 71,
                    "time": 213.958848,
                    "velocity": 0.23622047244094488,
                    "duration": 0.1759529999999927
                },
                {
                    "name": "F#1",
                    "midi": 30,
                    "time": 215.366472,
                    "velocity": 0.2125984251968504,
                    "duration": 0.1759529999999927
                },
                {
                    "name": "C#2",
                    "midi": 37,
                    "time": 215.366472,
                    "velocity": 0.2125984251968504,
                    "duration": 0.1759529999999927
                },
                {
                    "name": "F#2",
                    "midi": 42,
                    "time": 215.366472,
                    "velocity": 0.2125984251968504,
                    "duration": 0.1759529999999927
                },
                {
                    "name": "F#2",
                    "midi": 42,
                    "time": 216.77409599999996,
                    "velocity": 0.18110236220472442,
                    "duration": 0.17595300000002112
                },
                {
                    "name": "C#3",
                    "midi": 49,
                    "time": 216.77409599999996,
                    "velocity": 0.18110236220472442,
                    "duration": 0.17595300000002112
                },
                {
                    "name": "A3",
                    "midi": 57,
                    "time": 216.77409599999996,
                    "velocity": 0.18110236220472442,
                    "duration": 0.17595300000002112
                },
                {
                    "name": "F#1",
                    "midi": 30,
                    "time": 218.18171999999998,
                    "velocity": 0.1968503937007874,
                    "duration": 0.17595300000002112
                },
                {
                    "name": "F#2",
                    "midi": 42,
                    "time": 218.18171999999998,
                    "velocity": 0.1968503937007874,
                    "duration": 0.17595300000002112
                }
            ],
            "controlChanges": {
                "7": [
                    {
                        "number": 7,
                        "time": 0,
                        "value": 0.7874015748031497
                    }
                ],
                "10": [
                    {
                        "number": 10,
                        "time": 0,
                        "value": 0.5039370078740157
                    }
                ],
                "64": [
                    {
                        "number": 64,
                        "time": 11.462604812500025,
                        "value": 1
                    },
                    {
                        "number": 64,
                        "time": 11.97800047500003,
                        "value": 0
                    },
                    {
                        "number": 64,
                        "time": 20.45673566250005,
                        "value": 1
                    },
                    {
                        "number": 64,
                        "time": 20.81670617500005,
                        "value": 0
                    },
                    {
                        "number": 64,
                        "time": 21.843098675000046,
                        "value": 1
                    },
                    {
                        "number": 64,
                        "time": 22.182541337500048,
                        "value": 0
                    },
                    {
                        "number": 64,
                        "time": 23.249256400000046,
                        "value": 1
                    },
                    {
                        "number": 64,
                        "time": 23.593097887500043,
                        "value": 0
                    },
                    {
                        "number": 64,
                        "time": 26.049108512500037,
                        "value": 1
                    },
                    {
                        "number": 64,
                        "time": 26.619489487500033,
                        "value": 0
                    },
                    {
                        "number": 64,
                        "time": 28.871687887500027,
                        "value": 1
                    },
                    {
                        "number": 64,
                        "time": 29.456731612500025,
                        "value": 0
                    },
                    {
                        "number": 64,
                        "time": 40.87974700000001,
                        "value": 1
                    },
                    {
                        "number": 64,
                        "time": 41.53737133750001,
                        "value": 0
                    },
                    {
                        "number": 64,
                        "time": 50.67446400000001,
                        "value": 1
                    },
                    {
                        "number": 64,
                        "time": 51.38487423750001,
                        "value": 0
                    },
                    {
                        "number": 64,
                        "time": 51.470651325000006,
                        "value": 1
                    },
                    {
                        "number": 64,
                        "time": 52.08795310000001,
                        "value": 0
                    },
                    {
                        "number": 64,
                        "time": 52.34161867500001,
                        "value": 1
                    },
                    {
                        "number": 64,
                        "time": 52.78956568750001,
                        "value": 0
                    },
                    {
                        "number": 64,
                        "time": 53.10408167500001,
                        "value": 1
                    },
                    {
                        "number": 64,
                        "time": 53.49484396250001,
                        "value": 0
                    },
                    {
                        "number": 64,
                        "time": 53.58208732500001,
                        "value": 1
                    },
                    {
                        "number": 64,
                        "time": 54.20525420000001,
                        "value": 0
                    },
                    {
                        "number": 64,
                        "time": 54.302761487500014,
                        "value": 1
                    },
                    {
                        "number": 64,
                        "time": 54.90540051250001,
                        "value": 0
                    },
                    {
                        "number": 64,
                        "time": 54.98971132500001,
                        "value": 1
                    },
                    {
                        "number": 64,
                        "time": 55.61067878750001,
                        "value": 0
                    },
                    {
                        "number": 64,
                        "time": 55.65173448750001,
                        "value": 1
                    },
                    {
                        "number": 64,
                        "time": 56.307892550000005,
                        "value": 0
                    },
                    {
                        "number": 64,
                        "time": 56.39733532500001,
                        "value": 1
                    },
                    {
                        "number": 64,
                        "time": 57.02196847500001,
                        "value": 0
                    },
                    {
                        "number": 64,
                        "time": 57.10114732500001,
                        "value": 1
                    },
                    {
                        "number": 64,
                        "time": 57.71624968750001,
                        "value": 0
                    },
                    {
                        "number": 64,
                        "time": 57.79689481250001,
                        "value": 1
                    },
                    {
                        "number": 64,
                        "time": 58.425193650000004,
                        "value": 0
                    },
                    {
                        "number": 64,
                        "time": 58.533698,
                        "value": 1
                    },
                    {
                        "number": 64,
                        "time": 59.127539375,
                        "value": 0
                    },
                    {
                        "number": 64,
                        "time": 59.229445487499994,
                        "value": 1
                    },
                    {
                        "number": 64,
                        "time": 59.83428392499999,
                        "value": 0
                    },
                    {
                        "number": 64,
                        "time": 59.88267099999999,
                        "value": 1
                    },
                    {
                        "number": 64,
                        "time": 60.52783199999999,
                        "value": 0
                    },
                    {
                        "number": 64,
                        "time": 61.31448853749999,
                        "value": 1
                    },
                    {
                        "number": 64,
                        "time": 61.93545599999999,
                        "value": 0
                    },
                    {
                        "number": 64,
                        "time": 63.043226762499984,
                        "value": 1
                    },
                    {
                        "number": 64,
                        "time": 63.343079999999986,
                        "value": 0
                    },
                    {
                        "number": 64,
                        "time": 63.436188462499985,
                        "value": 1
                    },
                    {
                        "number": 64,
                        "time": 63.70524992499998,
                        "value": 0
                    },
                    {
                        "number": 64,
                        "time": 63.829883299999985,
                        "value": 1
                    },
                    {
                        "number": 64,
                        "time": 64.750704,
                        "value": 0
                    },
                    {
                        "number": 64,
                        "time": 64.9097948375,
                        "value": 1
                    },
                    {
                        "number": 64,
                        "time": 65.36653950000002,
                        "value": 0
                    },
                    {
                        "number": 64,
                        "time": 65.56375348750001,
                        "value": 1
                    },
                    {
                        "number": 64,
                        "time": 66.15832800000003,
                        "value": 0
                    },
                    {
                        "number": 64,
                        "time": 66.29249216250003,
                        "value": 1
                    },
                    {
                        "number": 64,
                        "time": 66.87387020000004,
                        "value": 0
                    },
                    {
                        "number": 64,
                        "time": 66.95451532500005,
                        "value": 1
                    },
                    {
                        "number": 64,
                        "time": 67.56595200000007,
                        "value": 0
                    },
                    {
                        "number": 64,
                        "time": 68.69425061250011,
                        "value": 1
                    },
                    {
                        "number": 64,
                        "time": 68.99923581250012,
                        "value": 0
                    },
                    {
                        "number": 64,
                        "time": 69.09087800000012,
                        "value": 1
                    },
                    {
                        "number": 64,
                        "time": 69.33794533750012,
                        "value": 0
                    },
                    {
                        "number": 64,
                        "time": 69.43471948750012,
                        "value": 1
                    },
                    {
                        "number": 64,
                        "time": 70.38120000000015,
                        "value": 0
                    },
                    {
                        "number": 64,
                        "time": 75.01462900000033,
                        "value": 1
                    },
                    {
                        "number": 64,
                        "time": 75.32181361250032,
                        "value": 0
                    },
                    {
                        "number": 64,
                        "time": 75.42518600000032,
                        "value": 1
                    },
                    {
                        "number": 64,
                        "time": 75.66345568750033,
                        "value": 0
                    },
                    {
                        "number": 64,
                        "time": 75.73530316250033,
                        "value": 1
                    },
                    {
                        "number": 64,
                        "time": 76.01169600000034,
                        "value": 0
                    },
                    {
                        "number": 64,
                        "time": 78.22650438750043,
                        "value": 1
                    },
                    {
                        "number": 64,
                        "time": 78.82694400000045,
                        "value": 0
                    },
                    {
                        "number": 64,
                        "time": 80.63852676250052,
                        "value": 1
                    },
                    {
                        "number": 64,
                        "time": 80.95084333750052,
                        "value": 0
                    },
                    {
                        "number": 64,
                        "time": 81.05274945000052,
                        "value": 1
                    },
                    {
                        "number": 64,
                        "time": 81.29981678750052,
                        "value": 0
                    },
                    {
                        "number": 64,
                        "time": 81.41491937500052,
                        "value": 1
                    },
                    {
                        "number": 64,
                        "time": 81.64219200000053,
                        "value": 0
                    },
                    {
                        "number": 64,
                        "time": 91.53954825000092,
                        "value": 1
                    },
                    {
                        "number": 64,
                        "time": 92.91857988750095,
                        "value": 0
                    },
                    {
                        "number": 64,
                        "time": 102.75655200000134,
                        "value": 1
                    },
                    {
                        "number": 64,
                        "time": 105.57180000000139,
                        "value": 0
                    },
                    {
                        "number": 64,
                        "time": 105.7147618125014,
                        "value": 1
                    },
                    {
                        "number": 64,
                        "time": 106.28367651250142,
                        "value": 0
                    },
                    {
                        "number": 64,
                        "time": 106.35918967500142,
                        "value": 1
                    },
                    {
                        "number": 64,
                        "time": 106.98528910000144,
                        "value": 0
                    },
                    {
                        "number": 64,
                        "time": 107.08279638750143,
                        "value": 1
                    },
                    {
                        "number": 64,
                        "time": 107.68470227500146,
                        "value": 0
                    },
                    {
                        "number": 64,
                        "time": 107.78660838750146,
                        "value": 1
                    },
                    {
                        "number": 64,
                        "time": 108.39364623750149,
                        "value": 0
                    },
                    {
                        "number": 64,
                        "time": 108.52194530000149,
                        "value": 1
                    },
                    {
                        "number": 64,
                        "time": 109.09745823750151,
                        "value": 0
                    },
                    {
                        "number": 64,
                        "time": 109.20522945000151,
                        "value": 1
                    },
                    {
                        "number": 64,
                        "time": 109.79467200000153,
                        "value": 0
                    },
                    {
                        "number": 64,
                        "time": 112.02047745000161,
                        "value": 1
                    },
                    {
                        "number": 64,
                        "time": 112.62018392500163,
                        "value": 0
                    },
                    {
                        "number": 64,
                        "time": 113.40684046250165,
                        "value": 1
                    },
                    {
                        "number": 64,
                        "time": 114.02487537500167,
                        "value": 0
                    },
                    {
                        "number": 64,
                        "time": 114.8247283875017,
                        "value": 1
                    },
                    {
                        "number": 64,
                        "time": 115.43029996250172,
                        "value": 0
                    },
                    {
                        "number": 64,
                        "time": 116.91563653750174,
                        "value": 1
                    },
                    {
                        "number": 64,
                        "time": 117.54686792500176,
                        "value": 0
                    },
                    {
                        "number": 64,
                        "time": 117.66123737500176,
                        "value": 1
                    },
                    {
                        "number": 64,
                        "time": 118.24848051250179,
                        "value": 0
                    },
                    {
                        "number": 64,
                        "time": 118.34378838750179,
                        "value": 1
                    },
                    {
                        "number": 64,
                        "time": 118.95375878750181,
                        "value": 0
                    },
                    {
                        "number": 64,
                        "time": 119.03733646250181,
                        "value": 1
                    },
                    {
                        "number": 64,
                        "time": 119.65757078750183,
                        "value": 0
                    },
                    {
                        "number": 64,
                        "time": 119.76240945000183,
                        "value": 1
                    },
                    {
                        "number": 64,
                        "time": 120.36651475000184,
                        "value": 0
                    },
                    {
                        "number": 64,
                        "time": 120.45522438750184,
                        "value": 1
                    },
                    {
                        "number": 64,
                        "time": 121.06152910000186,
                        "value": 0
                    },
                    {
                        "number": 64,
                        "time": 121.18029737500186,
                        "value": 1
                    },
                    {
                        "number": 64,
                        "time": 121.77267247500188,
                        "value": 0
                    },
                    {
                        "number": 64,
                        "time": 132.35844483750193,
                        "value": 1
                    },
                    {
                        "number": 64,
                        "time": 133.02559996250193,
                        "value": 0
                    },
                    {
                        "number": 64,
                        "time": 133.13777000000192,
                        "value": 1
                    },
                    {
                        "number": 64,
                        "time": 133.7286788250019,
                        "value": 0
                    },
                    {
                        "number": 64,
                        "time": 133.84158200000192,
                        "value": 1
                    },
                    {
                        "number": 64,
                        "time": 134.4361565125019,
                        "value": 0
                    },
                    {
                        "number": 64,
                        "time": 134.5160685000019,
                        "value": 1
                    },
                    {
                        "number": 64,
                        "time": 135.13923537500187,
                        "value": 0
                    },
                    {
                        "number": 64,
                        "time": 135.25800365000188,
                        "value": 1
                    },
                    {
                        "number": 64,
                        "time": 135.84964561250186,
                        "value": 0
                    },
                    {
                        "number": 64,
                        "time": 135.97867781250187,
                        "value": 1
                    },
                    {
                        "number": 64,
                        "time": 136.54246055000186,
                        "value": 0
                    },
                    {
                        "number": 64,
                        "time": 136.64876548750186,
                        "value": 1
                    },
                    {
                        "number": 64,
                        "time": 137.25946902500183,
                        "value": 0
                    },
                    {
                        "number": 64,
                        "time": 137.36870651250183,
                        "value": 1
                    },
                    {
                        "number": 64,
                        "time": 137.95155082500182,
                        "value": 0
                    },
                    {
                        "number": 64,
                        "time": 138.0563894875018,
                        "value": 1
                    },
                    {
                        "number": 64,
                        "time": 138.65756223750176,
                        "value": 0
                    },
                    {
                        "number": 64,
                        "time": 138.70961500000178,
                        "value": 1
                    },
                    {
                        "number": 64,
                        "time": 139.36064110000174,
                        "value": 0
                    },
                    {
                        "number": 64,
                        "time": 139.47207800000174,
                        "value": 1
                    },
                    {
                        "number": 64,
                        "time": 140.0703182000017,
                        "value": 0
                    },
                    {
                        "number": 64,
                        "time": 140.14656450000172,
                        "value": 1
                    },
                    {
                        "number": 64,
                        "time": 140.7697313750017,
                        "value": 0
                    },
                    {
                        "number": 64,
                        "time": 140.8547753250017,
                        "value": 1
                    },
                    {
                        "number": 64,
                        "time": 141.47794220000168,
                        "value": 0
                    },
                    {
                        "number": 64,
                        "time": 141.60037616250168,
                        "value": 1
                    },
                    {
                        "number": 64,
                        "time": 142.17588910000165,
                        "value": 0
                    },
                    {
                        "number": 64,
                        "time": 142.24553716250165,
                        "value": 1
                    },
                    {
                        "number": 64,
                        "time": 144.98527200000163,
                        "value": 0
                    },
                    {
                        "number": 64,
                        "time": 145.12823381250163,
                        "value": 1
                    },
                    {
                        "number": 64,
                        "time": 147.80052000000163,
                        "value": 0
                    },
                    {
                        "number": 64,
                        "time": 156.44787681250162,
                        "value": 1
                    },
                    {
                        "number": 64,
                        "time": 156.9757358125016,
                        "value": 0
                    },
                    {
                        "number": 64,
                        "time": 165.42514550000124,
                        "value": 1
                    },
                    {
                        "number": 64,
                        "time": 165.76898698750122,
                        "value": 0
                    },
                    {
                        "number": 64,
                        "time": 166.82837067500117,
                        "value": 1
                    },
                    {
                        "number": 64,
                        "time": 167.17661098750114,
                        "value": 0
                    },
                    {
                        "number": 64,
                        "time": 168.2293964375011,
                        "value": 1
                    },
                    {
                        "number": 64,
                        "time": 168.58643440000108,
                        "value": 0
                    },
                    {
                        "number": 64,
                        "time": 171.04171188750098,
                        "value": 1
                    },
                    {
                        "number": 64,
                        "time": 171.38335396250096,
                        "value": 0
                    },
                    {
                        "number": 64,
                        "time": 173.86282498750086,
                        "value": 1
                    },
                    {
                        "number": 64,
                        "time": 174.20593333750085,
                        "value": 0
                    },
                    {
                        "number": 64,
                        "time": 174.59742876250084,
                        "value": 1
                    },
                    {
                        "number": 64,
                        "time": 175.9566656875008,
                        "value": 0
                    },
                    {
                        "number": 64,
                        "time": 176.0673694500008,
                        "value": 1
                    },
                    {
                        "number": 64,
                        "time": 176.66927533750078,
                        "value": 0
                    },
                    {
                        "number": 64,
                        "time": 176.8532928500008,
                        "value": 1
                    },
                    {
                        "number": 64,
                        "time": 177.3606240000008,
                        "value": 0
                    },
                    {
                        "number": 64,
                        "time": 177.4749934500008,
                        "value": 1
                    },
                    {
                        "number": 64,
                        "time": 178.76824800000074,
                        "value": 0
                    },
                    {
                        "number": 64,
                        "time": 178.89288137500074,
                        "value": 1
                    },
                    {
                        "number": 64,
                        "time": 179.4823239250007,
                        "value": 0
                    },
                    {
                        "number": 64,
                        "time": 180.21766083750072,
                        "value": 1
                    },
                    {
                        "number": 64,
                        "time": 181.5878948250007,
                        "value": 0
                    },
                    {
                        "number": 64,
                        "time": 181.65754288750068,
                        "value": 1
                    },
                    {
                        "number": 64,
                        "time": 182.29097368750064,
                        "value": 0
                    },
                    {
                        "number": 64,
                        "time": 182.39874490000065,
                        "value": 1
                    },
                    {
                        "number": 64,
                        "time": 183.00138392500062,
                        "value": 0
                    },
                    {
                        "number": 64,
                        "time": 183.09449238750062,
                        "value": 1
                    },
                    {
                        "number": 64,
                        "time": 184.39874400000056,
                        "value": 0
                    },
                    {
                        "number": 64,
                        "time": 187.21399200000047,
                        "value": 1
                    },
                    {
                        "number": 64,
                        "time": 187.92440223750046,
                        "value": 0
                    },
                    {
                        "number": 64,
                        "time": 188.62161600000047,
                        "value": 1
                    },
                    {
                        "number": 64,
                        "time": 189.33202623750046,
                        "value": 0
                    },
                    {
                        "number": 64,
                        "time": 190.02924000000047,
                        "value": 1
                    },
                    {
                        "number": 64,
                        "time": 190.73965023750046,
                        "value": 0
                    },
                    {
                        "number": 64,
                        "time": 191.43686400000047,
                        "value": 1
                    },
                    {
                        "number": 64,
                        "time": 192.15020678750048,
                        "value": 0
                    },
                    {
                        "number": 64,
                        "time": 192.84448800000047,
                        "value": 1
                    },
                    {
                        "number": 64,
                        "time": 193.55636451250044,
                        "value": 0
                    },
                    {
                        "number": 64,
                        "time": 193.64067532500044,
                        "value": 1
                    },
                    {
                        "number": 64,
                        "time": 194.2587102375004,
                        "value": 0
                    },
                    {
                        "number": 64,
                        "time": 194.3444873250004,
                        "value": 1
                    },
                    {
                        "number": 64,
                        "time": 194.95885655000035,
                        "value": 0
                    },
                    {
                        "number": 64,
                        "time": 195.04829932500036,
                        "value": 1
                    },
                    {
                        "number": 64,
                        "time": 195.6663342375003,
                        "value": 0
                    },
                    {
                        "number": 64,
                        "time": 195.7521113250003,
                        "value": 1
                    },
                    {
                        "number": 64,
                        "time": 196.37894388750027,
                        "value": 0
                    },
                    {
                        "number": 64,
                        "time": 196.48085000000026,
                        "value": 1
                    },
                    {
                        "number": 64,
                        "time": 197.07249196250024,
                        "value": 0
                    },
                    {
                        "number": 64,
                        "time": 197.15973532500024,
                        "value": 1
                    },
                    {
                        "number": 64,
                        "time": 197.7829022000002,
                        "value": 0
                    },
                    {
                        "number": 64,
                        "time": 197.87161183750018,
                        "value": 1
                    },
                    {
                        "number": 64,
                        "time": 198.47498400000015,
                        "value": 0
                    },
                    {
                        "number": 64,
                        "time": 198.55049716250014,
                        "value": 1
                    },
                    {
                        "number": 64,
                        "time": 199.18319482500013,
                        "value": 0
                    },
                    {
                        "number": 64,
                        "time": 199.29609800000014,
                        "value": 1
                    },
                    {
                        "number": 64,
                        "time": 199.88260800000012,
                        "value": 0
                    },
                    {
                        "number": 64,
                        "time": 199.96691881250013,
                        "value": 1
                    },
                    {
                        "number": 64,
                        "time": 202.7315803250001,
                        "value": 0
                    },
                    {
                        "number": 64,
                        "time": 202.7982958375001,
                        "value": 1
                    },
                    {
                        "number": 64,
                        "time": 203.41266506250005,
                        "value": 0
                    },
                    {
                        "number": 64,
                        "time": 203.48597881250006,
                        "value": 1
                    },
                    {
                        "number": 64,
                        "time": 204.10841255000008,
                        "value": 0
                    },
                    {
                        "number": 64,
                        "time": 204.1897908125001,
                        "value": 1
                    },
                    {
                        "number": 64,
                        "time": 204.92439458750007,
                        "value": 0
                    },
                    {
                        "number": 64,
                        "time": 204.99404265000007,
                        "value": 1
                    },
                    {
                        "number": 64,
                        "time": 205.51750282500007,
                        "value": 0
                    },
                    {
                        "number": 64,
                        "time": 205.62747345000005,
                        "value": 1
                    },
                    {
                        "number": 64,
                        "time": 206.92072800000005,
                        "value": 0
                    },
                    {
                        "number": 64,
                        "time": 206.99624116250004,
                        "value": 1
                    },
                    {
                        "number": 64,
                        "time": 208.33348396250005,
                        "value": 0
                    },
                    {
                        "number": 64,
                        "time": 208.44272145000005,
                        "value": 1
                    },
                    {
                        "number": 64,
                        "time": 209.74184110000004,
                        "value": 0
                    },
                    {
                        "number": 64,
                        "time": 209.82028681250006,
                        "value": 1
                    },
                    {
                        "number": 64,
                        "time": 211.14946510000004,
                        "value": 0
                    },
                    {
                        "number": 64,
                        "time": 211.26823337500005,
                        "value": 1
                    },
                    {
                        "number": 64,
                        "time": 212.55855537500005,
                        "value": 0
                    },
                    {
                        "number": 64,
                        "time": 212.66852600000004,
                        "value": 1
                    },
                    {
                        "number": 64,
                        "time": 215.366472,
                        "value": 0
                    },
                    {
                        "number": 64,
                        "time": 215.45958046249999,
                        "value": 1
                    },
                    {
                        "number": 64,
                        "time": 215.60474168749997,
                        "value": 0
                    },
                    {
                        "number": 64,
                        "time": 216.79462384999997,
                        "value": 1
                    },
                    {
                        "number": 64,
                        "time": 216.96031292499998,
                        "value": 0
                    },
                    {
                        "number": 64,
                        "time": 218.212511775,
                        "value": 1
                    },
                    {
                        "number": 64,
                        "time": 218.37820085,
                        "value": 0
                    }
                ],
                "91": [
                    {
                        "number": 91,
                        "time": 0,
                        "value": 1
                    }
                ]
            },
            "id": 2,
            "name": "Piano left",
            "instrumentNumber": 0,
            "instrument": "acoustic grand piano",
            "instrumentFamily": "piano",
            "channelNumber": 0,
            "isPercussion": false
        },
        {
            "startTime": 0,
            "duration": 0,
            "length": 0,
            "notes": [],
            "controlChanges": {},
            "id": 3,
            "name": "Debussy: \"Passepied\" from Suite bergamasque"
        },
        {
            "startTime": 0,
            "duration": 0,
            "length": 0,
            "notes": [],
            "controlChanges": {},
            "id": 4,
            "name": "Copyright  1998 by Bernd Krger"
        },
        {
            "startTime": 0,
            "duration": 0,
            "length": 0,
            "notes": [],
            "controlChanges": {},
            "id": 5,
            "name": "http://www.piano-midi.de"
        },
        {
            "startTime": 0,
            "duration": 0,
            "length": 0,
            "notes": [],
            "controlChanges": {},
            "id": 6,
            "name": "Edition: 2011-08-24"
        }
    ]
}