{
    "header": {
        "PPQ": 480,
        "timeSignature": [
            4,
            4
        ],
        "bpm": 120.36011747147465,
        "name": "The snow is dancing"
    },
    "startTime": 0,
    "duration": 145.56316800000204,
    "tracks": [
        {
            "startTime": 0,
            "duration": 0,
            "length": 0,
            "notes": [],
            "controlChanges": {},
            "id": 0,
            "name": "The snow is dancing"
        },
        {
            "startTime": 0,
            "duration": 145.56316800000096,
            "length": 666,
            "notes": [
                {
                    "name": "E5",
                    "midi": 76,
                    "time": 0,
                    "velocity": 0.25196850393700787,
                    "duration": 0.124626
                },
                {
                    "name": "F5",
                    "midi": 77,
                    "time": 0.249252,
                    "velocity": 0.2047244094488189,
                    "duration": 0.12462599999999999
                },
                {
                    "name": "G5",
                    "midi": 79,
                    "time": 0.498504,
                    "velocity": 0.2047244094488189,
                    "duration": 0.12462599999999996
                },
                {
                    "name": "A5",
                    "midi": 81,
                    "time": 0.747756,
                    "velocity": 0.2047244094488189,
                    "duration": 0.12462600000000001
                },
                {
                    "name": "E5",
                    "midi": 76,
                    "time": 0.997008,
                    "velocity": 0.25196850393700787,
                    "duration": 0.12462600000000001
                },
                {
                    "name": "F5",
                    "midi": 77,
                    "time": 1.24626,
                    "velocity": 0.2204724409448819,
                    "duration": 0.1246259999999999
                },
                {
                    "name": "G5",
                    "midi": 79,
                    "time": 1.4955119999999997,
                    "velocity": 0.2204724409448819,
                    "duration": 0.1246259999999999
                },
                {
                    "name": "A5",
                    "midi": 81,
                    "time": 1.7447639999999995,
                    "velocity": 0.2204724409448819,
                    "duration": 0.1246259999999999
                },
                {
                    "name": "E5",
                    "midi": 76,
                    "time": 2.1186419999999995,
                    "velocity": 0.28346456692913385,
                    "duration": 0.09346949999999987
                },
                {
                    "name": "F5",
                    "midi": 77,
                    "time": 2.3678939999999993,
                    "velocity": 0.23622047244094488,
                    "duration": 0.09346949999999987
                },
                {
                    "name": "G5",
                    "midi": 79,
                    "time": 2.617145999999999,
                    "velocity": 0.23622047244094488,
                    "duration": 0.09346949999999987
                },
                {
                    "name": "A5",
                    "midi": 81,
                    "time": 2.866397999999999,
                    "velocity": 0.23622047244094488,
                    "duration": 0.09346949999999987
                },
                {
                    "name": "E5",
                    "midi": 76,
                    "time": 3.1156499999999987,
                    "velocity": 0.28346456692913385,
                    "duration": 0.09346949999999987
                },
                {
                    "name": "F5",
                    "midi": 77,
                    "time": 3.3649019999999985,
                    "velocity": 0.2283464566929134,
                    "duration": 0.09346949999999987
                },
                {
                    "name": "G5",
                    "midi": 79,
                    "time": 3.6141539999999983,
                    "velocity": 0.2283464566929134,
                    "duration": 0.09346949999999987
                },
                {
                    "name": "A5",
                    "midi": 81,
                    "time": 3.863405999999998,
                    "velocity": 0.2283464566929134,
                    "duration": 0.09346949999999987
                },
                {
                    "name": "E5",
                    "midi": 76,
                    "time": 4.112657999999998,
                    "velocity": 0.31496062992125984,
                    "duration": 0.09346950000000032
                },
                {
                    "name": "F5",
                    "midi": 77,
                    "time": 4.361909999999998,
                    "velocity": 0.2677165354330709,
                    "duration": 0.09346950000000032
                },
                {
                    "name": "G5",
                    "midi": 79,
                    "time": 4.611161999999998,
                    "velocity": 0.2677165354330709,
                    "duration": 0.09346950000000032
                },
                {
                    "name": "A5",
                    "midi": 81,
                    "time": 4.860413999999999,
                    "velocity": 0.2677165354330709,
                    "duration": 0.09346950000000032
                },
                {
                    "name": "E5",
                    "midi": 76,
                    "time": 5.109665999999999,
                    "velocity": 0.31496062992125984,
                    "duration": 0.09346950000000032
                },
                {
                    "name": "F5",
                    "midi": 77,
                    "time": 5.358917999999999,
                    "velocity": 0.25984251968503935,
                    "duration": 0.09346950000000032
                },
                {
                    "name": "G5",
                    "midi": 79,
                    "time": 5.608169999999999,
                    "velocity": 0.25984251968503935,
                    "duration": 0.09346950000000032
                },
                {
                    "name": "A5",
                    "midi": 81,
                    "time": 5.857422,
                    "velocity": 0.25984251968503935,
                    "duration": 0.09346950000000032
                },
                {
                    "name": "E5",
                    "midi": 76,
                    "time": 6.106674,
                    "velocity": 0.31496062992125984,
                    "duration": 0.09346950000000032
                },
                {
                    "name": "F5",
                    "midi": 77,
                    "time": 6.355926,
                    "velocity": 0.2677165354330709,
                    "duration": 0.09346950000000032
                },
                {
                    "name": "G5",
                    "midi": 79,
                    "time": 6.605178,
                    "velocity": 0.2677165354330709,
                    "duration": 0.09346950000000032
                },
                {
                    "name": "A5",
                    "midi": 81,
                    "time": 6.854430000000001,
                    "velocity": 0.2677165354330709,
                    "duration": 0.09346950000000032
                },
                {
                    "name": "E5",
                    "midi": 76,
                    "time": 7.103682000000001,
                    "velocity": 0.31496062992125984,
                    "duration": 0.09346950000000032
                },
                {
                    "name": "F5",
                    "midi": 77,
                    "time": 7.352934000000001,
                    "velocity": 0.25984251968503935,
                    "duration": 0.09346950000000032
                },
                {
                    "name": "G5",
                    "midi": 79,
                    "time": 7.602186000000001,
                    "velocity": 0.25984251968503935,
                    "duration": 0.09346950000000032
                },
                {
                    "name": "A5",
                    "midi": 81,
                    "time": 7.851438000000002,
                    "velocity": 0.25984251968503935,
                    "duration": 0.09346950000000032
                },
                {
                    "name": "E5",
                    "midi": 76,
                    "time": 8.100690000000002,
                    "velocity": 0.31496062992125984,
                    "duration": 0.09346949999999943
                },
                {
                    "name": "F5",
                    "midi": 77,
                    "time": 8.349942000000002,
                    "velocity": 0.2677165354330709,
                    "duration": 0.09346949999999943
                },
                {
                    "name": "G5",
                    "midi": 79,
                    "time": 8.599194000000002,
                    "velocity": 0.2677165354330709,
                    "duration": 0.09346949999999943
                },
                {
                    "name": "A5",
                    "midi": 81,
                    "time": 8.848446000000003,
                    "velocity": 0.2677165354330709,
                    "duration": 0.09346949999999943
                },
                {
                    "name": "E5",
                    "midi": 76,
                    "time": 9.097698000000003,
                    "velocity": 0.31496062992125984,
                    "duration": 0.09346949999999943
                },
                {
                    "name": "F5",
                    "midi": 77,
                    "time": 9.346950000000003,
                    "velocity": 0.25984251968503935,
                    "duration": 0.09346949999999943
                },
                {
                    "name": "G5",
                    "midi": 79,
                    "time": 9.596202000000003,
                    "velocity": 0.25984251968503935,
                    "duration": 0.09346949999999943
                },
                {
                    "name": "A5",
                    "midi": 81,
                    "time": 9.845454000000004,
                    "velocity": 0.25984251968503935,
                    "duration": 0.09346949999999943
                },
                {
                    "name": "E5",
                    "midi": 76,
                    "time": 10.094706000000004,
                    "velocity": 0.31496062992125984,
                    "duration": 0.09346949999999943
                },
                {
                    "name": "F5",
                    "midi": 77,
                    "time": 10.343958000000004,
                    "velocity": 0.2677165354330709,
                    "duration": 0.09346949999999943
                },
                {
                    "name": "G5",
                    "midi": 79,
                    "time": 10.593210000000004,
                    "velocity": 0.2677165354330709,
                    "duration": 0.09346949999999943
                },
                {
                    "name": "A5",
                    "midi": 81,
                    "time": 10.842462000000005,
                    "velocity": 0.2677165354330709,
                    "duration": 0.09346949999999943
                },
                {
                    "name": "E5",
                    "midi": 76,
                    "time": 11.091714000000005,
                    "velocity": 0.31496062992125984,
                    "duration": 0.09346949999999943
                },
                {
                    "name": "F5",
                    "midi": 77,
                    "time": 11.340966000000005,
                    "velocity": 0.25984251968503935,
                    "duration": 0.09346949999999943
                },
                {
                    "name": "G5",
                    "midi": 79,
                    "time": 11.590218000000005,
                    "velocity": 0.25984251968503935,
                    "duration": 0.09346949999999943
                },
                {
                    "name": "A5",
                    "midi": 81,
                    "time": 11.839470000000006,
                    "velocity": 0.25984251968503935,
                    "duration": 0.09346949999999943
                },
                {
                    "name": "E5",
                    "midi": 76,
                    "time": 12.088722000000006,
                    "velocity": 0.28346456692913385,
                    "duration": 0.09346949999999943
                },
                {
                    "name": "F5",
                    "midi": 77,
                    "time": 12.337974000000006,
                    "velocity": 0.23622047244094488,
                    "duration": 0.09346949999999943
                },
                {
                    "name": "G5",
                    "midi": 79,
                    "time": 12.587226000000006,
                    "velocity": 0.23622047244094488,
                    "duration": 0.09346949999999943
                },
                {
                    "name": "A5",
                    "midi": 81,
                    "time": 12.836478000000007,
                    "velocity": 0.23622047244094488,
                    "duration": 0.09346949999999943
                },
                {
                    "name": "D5",
                    "midi": 74,
                    "time": 13.085730000000007,
                    "velocity": 0.28346456692913385,
                    "duration": 0.09346949999999943
                },
                {
                    "name": "E5",
                    "midi": 76,
                    "time": 13.334982000000007,
                    "velocity": 0.2283464566929134,
                    "duration": 0.09346949999999943
                },
                {
                    "name": "F5",
                    "midi": 77,
                    "time": 13.584234000000007,
                    "velocity": 0.2283464566929134,
                    "duration": 0.09346949999999943
                },
                {
                    "name": "G5",
                    "midi": 79,
                    "time": 13.833486000000008,
                    "velocity": 0.2283464566929134,
                    "duration": 0.09346949999999943
                },
                {
                    "name": "E5",
                    "midi": 76,
                    "time": 14.082738000000008,
                    "velocity": 0.28346456692913385,
                    "duration": 0.09346949999999943
                },
                {
                    "name": "F5",
                    "midi": 77,
                    "time": 14.331990000000008,
                    "velocity": 0.23622047244094488,
                    "duration": 0.09346949999999943
                },
                {
                    "name": "G5",
                    "midi": 79,
                    "time": 14.581242000000008,
                    "velocity": 0.23622047244094488,
                    "duration": 0.09346949999999943
                },
                {
                    "name": "A5",
                    "midi": 81,
                    "time": 14.830494000000009,
                    "velocity": 0.23622047244094488,
                    "duration": 0.09346949999999943
                },
                {
                    "name": "D5",
                    "midi": 74,
                    "time": 15.079746000000009,
                    "velocity": 0.28346456692913385,
                    "duration": 0.09346949999999943
                },
                {
                    "name": "E5",
                    "midi": 76,
                    "time": 15.32899800000001,
                    "velocity": 0.2283464566929134,
                    "duration": 0.09346949999999943
                },
                {
                    "name": "F5",
                    "midi": 77,
                    "time": 15.57825000000001,
                    "velocity": 0.2283464566929134,
                    "duration": 0.09346949999999943
                },
                {
                    "name": "G5",
                    "midi": 79,
                    "time": 15.82750200000001,
                    "velocity": 0.2283464566929134,
                    "duration": 0.09346949999999943
                },
                {
                    "name": "E5",
                    "midi": 76,
                    "time": 16.076754000000008,
                    "velocity": 0.28346456692913385,
                    "duration": 0.0934695000000012
                },
                {
                    "name": "F5",
                    "midi": 77,
                    "time": 16.32600600000001,
                    "velocity": 0.23622047244094488,
                    "duration": 0.0934695000000012
                },
                {
                    "name": "D5",
                    "midi": 74,
                    "time": 16.575258000000012,
                    "velocity": 0.23622047244094488,
                    "duration": 0.0934695000000012
                },
                {
                    "name": "E5",
                    "midi": 76,
                    "time": 16.824510000000014,
                    "velocity": 0.23622047244094488,
                    "duration": 0.0934695000000012
                },
                {
                    "name": "C5",
                    "midi": 72,
                    "time": 17.073762000000016,
                    "velocity": 0.28346456692913385,
                    "duration": 0.0934695000000012
                },
                {
                    "name": "D5",
                    "midi": 74,
                    "time": 17.32301400000002,
                    "velocity": 0.2283464566929134,
                    "duration": 0.0934695000000012
                },
                {
                    "name": "A#4",
                    "midi": 70,
                    "time": 17.57226600000002,
                    "velocity": 0.2283464566929134,
                    "duration": 0.0934695000000012
                },
                {
                    "name": "C5",
                    "midi": 72,
                    "time": 17.821518000000022,
                    "velocity": 0.2283464566929134,
                    "duration": 0.0934695000000012
                },
                {
                    "name": "E5",
                    "midi": 76,
                    "time": 18.070770000000024,
                    "velocity": 0.28346456692913385,
                    "duration": 0.0934695000000012
                },
                {
                    "name": "F5",
                    "midi": 77,
                    "time": 18.320022000000026,
                    "velocity": 0.23622047244094488,
                    "duration": 0.0934695000000012
                },
                {
                    "name": "D5",
                    "midi": 74,
                    "time": 18.56927400000003,
                    "velocity": 0.23622047244094488,
                    "duration": 0.0934695000000012
                },
                {
                    "name": "E5",
                    "midi": 76,
                    "time": 18.81852600000003,
                    "velocity": 0.23622047244094488,
                    "duration": 0.0934695000000012
                },
                {
                    "name": "C5",
                    "midi": 72,
                    "time": 19.067778000000033,
                    "velocity": 0.28346456692913385,
                    "duration": 0.0934695000000012
                },
                {
                    "name": "D5",
                    "midi": 74,
                    "time": 19.317030000000035,
                    "velocity": 0.2283464566929134,
                    "duration": 0.0934695000000012
                },
                {
                    "name": "E5",
                    "midi": 76,
                    "time": 19.566282000000037,
                    "velocity": 0.2283464566929134,
                    "duration": 0.0934695000000012
                },
                {
                    "name": "F5",
                    "midi": 77,
                    "time": 19.81553400000004,
                    "velocity": 0.2283464566929134,
                    "duration": 0.0934695000000012
                },
                {
                    "name": "F5",
                    "midi": 77,
                    "time": 20.06478600000004,
                    "velocity": 0.31496062992125984,
                    "duration": 0.12462599999999924
                },
                {
                    "name": "E5",
                    "midi": 76,
                    "time": 20.31403800000004,
                    "velocity": 0.2992125984251969,
                    "duration": 0.12462599999999924
                },
                {
                    "name": "F5",
                    "midi": 77,
                    "time": 20.563290000000038,
                    "velocity": 0.33858267716535434,
                    "duration": 0.12462599999999924
                },
                {
                    "name": "E5",
                    "midi": 76,
                    "time": 20.812542000000036,
                    "velocity": 0.3228346456692913,
                    "duration": 0.12462599999999924
                },
                {
                    "name": "F5",
                    "midi": 77,
                    "time": 21.061794000000035,
                    "velocity": 0.36220472440944884,
                    "duration": 0.12462599999999924
                },
                {
                    "name": "E5",
                    "midi": 76,
                    "time": 21.311046000000033,
                    "velocity": 0.3464566929133858,
                    "duration": 0.12462599999999924
                },
                {
                    "name": "F5",
                    "midi": 77,
                    "time": 21.56029800000003,
                    "velocity": 0.3937007874015748,
                    "duration": 0.12462599999999924
                },
                {
                    "name": "E5",
                    "midi": 76,
                    "time": 21.80955000000003,
                    "velocity": 0.3700787401574803,
                    "duration": 0.12462599999999924
                },
                {
                    "name": "F5",
                    "midi": 77,
                    "time": 22.05880200000003,
                    "velocity": 0.33070866141732286,
                    "duration": 0.12462599999999924
                },
                {
                    "name": "E5",
                    "midi": 76,
                    "time": 22.308054000000027,
                    "velocity": 0.2992125984251969,
                    "duration": 0.12462599999999924
                },
                {
                    "name": "F5",
                    "midi": 77,
                    "time": 22.557306000000025,
                    "velocity": 0.3228346456692913,
                    "duration": 0.12462599999999924
                },
                {
                    "name": "E5",
                    "midi": 76,
                    "time": 22.806558000000024,
                    "velocity": 0.29133858267716534,
                    "duration": 0.12462599999999924
                },
                {
                    "name": "F5",
                    "midi": 77,
                    "time": 23.055810000000022,
                    "velocity": 0.31496062992125984,
                    "duration": 0.12462599999999924
                },
                {
                    "name": "E5",
                    "midi": 76,
                    "time": 23.30506200000002,
                    "velocity": 0.29133858267716534,
                    "duration": 0.12462599999999924
                },
                {
                    "name": "F5",
                    "midi": 77,
                    "time": 23.55431400000002,
                    "velocity": 0.30708661417322836,
                    "duration": 0.12462599999999924
                },
                {
                    "name": "E5",
                    "midi": 76,
                    "time": 23.803566000000018,
                    "velocity": 0.28346456692913385,
                    "duration": 0.12462599999999924
                },
                {
                    "name": "F5",
                    "midi": 77,
                    "time": 24.052818000000016,
                    "velocity": 0.31496062992125984,
                    "duration": 0.12462599999999924
                },
                {
                    "name": "E5",
                    "midi": 76,
                    "time": 24.302070000000015,
                    "velocity": 0.2992125984251969,
                    "duration": 0.12462599999999924
                },
                {
                    "name": "F5",
                    "midi": 77,
                    "time": 24.551322000000013,
                    "velocity": 0.33070866141732286,
                    "duration": 0.12462599999999924
                },
                {
                    "name": "E5",
                    "midi": 76,
                    "time": 24.80057400000001,
                    "velocity": 0.30708661417322836,
                    "duration": 0.12462599999999924
                },
                {
                    "name": "F5",
                    "midi": 77,
                    "time": 25.04982600000001,
                    "velocity": 0.33858267716535434,
                    "duration": 0.12462599999999924
                },
                {
                    "name": "E5",
                    "midi": 76,
                    "time": 25.29907800000001,
                    "velocity": 0.31496062992125984,
                    "duration": 0.12462599999999924
                },
                {
                    "name": "F5",
                    "midi": 77,
                    "time": 25.548330000000007,
                    "velocity": 0.3543307086614173,
                    "duration": 0.12462599999999924
                },
                {
                    "name": "E5",
                    "midi": 76,
                    "time": 25.797582000000006,
                    "velocity": 0.33070866141732286,
                    "duration": 0.12462599999999924
                },
                {
                    "name": "D#5",
                    "midi": 75,
                    "time": 26.046834000000004,
                    "velocity": 0.33070866141732286,
                    "duration": 0.12462599999999924
                },
                {
                    "name": "F5",
                    "midi": 77,
                    "time": 26.296086000000003,
                    "velocity": 0.2992125984251969,
                    "duration": 0.12462599999999924
                },
                {
                    "name": "D#5",
                    "midi": 75,
                    "time": 26.545338,
                    "velocity": 0.3228346456692913,
                    "duration": 0.12462599999999924
                },
                {
                    "name": "F5",
                    "midi": 77,
                    "time": 26.79459,
                    "velocity": 0.29133858267716534,
                    "duration": 0.12462599999999924
                },
                {
                    "name": "B4",
                    "midi": 71,
                    "time": 27.043841999999998,
                    "velocity": 0.30708661417322836,
                    "duration": 0.12462599999999924
                },
                {
                    "name": "C#5",
                    "midi": 73,
                    "time": 27.293093999999996,
                    "velocity": 0.2755905511811024,
                    "duration": 0.12462599999999924
                },
                {
                    "name": "B4",
                    "midi": 71,
                    "time": 27.542345999999995,
                    "velocity": 0.2992125984251969,
                    "duration": 0.12462599999999924
                },
                {
                    "name": "C#5",
                    "midi": 73,
                    "time": 27.791597999999993,
                    "velocity": 0.2677165354330709,
                    "duration": 0.12462599999999924
                },
                {
                    "name": "D#5",
                    "midi": 75,
                    "time": 28.040849999999992,
                    "velocity": 0.33070866141732286,
                    "duration": 0.12462599999999924
                },
                {
                    "name": "F5",
                    "midi": 77,
                    "time": 28.29010199999999,
                    "velocity": 0.2992125984251969,
                    "duration": 0.12462599999999924
                },
                {
                    "name": "D#5",
                    "midi": 75,
                    "time": 28.53935399999999,
                    "velocity": 0.3228346456692913,
                    "duration": 0.12462599999999924
                },
                {
                    "name": "F5",
                    "midi": 77,
                    "time": 28.788605999999987,
                    "velocity": 0.29133858267716534,
                    "duration": 0.12462599999999924
                },
                {
                    "name": "B4",
                    "midi": 71,
                    "time": 29.037857999999986,
                    "velocity": 0.30708661417322836,
                    "duration": 0.12462599999999924
                },
                {
                    "name": "C#5",
                    "midi": 73,
                    "time": 29.287109999999984,
                    "velocity": 0.2755905511811024,
                    "duration": 0.12462599999999924
                },
                {
                    "name": "B4",
                    "midi": 71,
                    "time": 29.536361999999983,
                    "velocity": 0.2992125984251969,
                    "duration": 0.12462599999999924
                },
                {
                    "name": "C#5",
                    "midi": 73,
                    "time": 29.78561399999998,
                    "velocity": 0.2677165354330709,
                    "duration": 0.12462599999999924
                },
                {
                    "name": "G#4",
                    "midi": 68,
                    "time": 30.03486599999998,
                    "velocity": 0.29133858267716534,
                    "duration": 0.12462599999999924
                },
                {
                    "name": "A#4",
                    "midi": 70,
                    "time": 30.284117999999978,
                    "velocity": 0.2677165354330709,
                    "duration": 0.12462599999999924
                },
                {
                    "name": "G#4",
                    "midi": 68,
                    "time": 30.533369999999977,
                    "velocity": 0.29133858267716534,
                    "duration": 0.12462599999999924
                },
                {
                    "name": "A#4",
                    "midi": 70,
                    "time": 30.782621999999975,
                    "velocity": 0.2677165354330709,
                    "duration": 0.12462599999999924
                },
                {
                    "name": "G#4",
                    "midi": 68,
                    "time": 31.031873999999974,
                    "velocity": 0.29133858267716534,
                    "duration": 0.12462599999999924
                },
                {
                    "name": "A#4",
                    "midi": 70,
                    "time": 31.281125999999972,
                    "velocity": 0.2677165354330709,
                    "duration": 0.12462599999999924
                },
                {
                    "name": "G#4",
                    "midi": 68,
                    "time": 31.53037799999997,
                    "velocity": 0.29133858267716534,
                    "duration": 0.12462599999999924
                },
                {
                    "name": "A#4",
                    "midi": 70,
                    "time": 31.77962999999997,
                    "velocity": 0.2677165354330709,
                    "duration": 0.12462599999999924
                },
                {
                    "name": "G#4",
                    "midi": 68,
                    "time": 32.02888199999997,
                    "velocity": 0.3228346456692913,
                    "duration": 0.12462599999999924
                },
                {
                    "name": "A#4",
                    "midi": 70,
                    "time": 32.278133999999966,
                    "velocity": 0.28346456692913385,
                    "duration": 0.12462599999999924
                },
                {
                    "name": "G#4",
                    "midi": 68,
                    "time": 32.527385999999964,
                    "velocity": 0.29133858267716534,
                    "duration": 0.12462599999999924
                },
                {
                    "name": "A#4",
                    "midi": 70,
                    "time": 32.77663799999996,
                    "velocity": 0.25196850393700787,
                    "duration": 0.12462599999999924
                },
                {
                    "name": "G#4",
                    "midi": 68,
                    "time": 33.02588999999996,
                    "velocity": 0.25984251968503935,
                    "duration": 0.12462599999999924
                },
                {
                    "name": "A#4",
                    "midi": 70,
                    "time": 33.27514199999996,
                    "velocity": 0.2283464566929134,
                    "duration": 0.12462599999999924
                },
                {
                    "name": "G#4",
                    "midi": 68,
                    "time": 33.52439399999996,
                    "velocity": 0.25196850393700787,
                    "duration": 0.12462599999999924
                },
                {
                    "name": "A#4",
                    "midi": 70,
                    "time": 33.77364599999996,
                    "velocity": 0.2204724409448819,
                    "duration": 0.12462599999999924
                },
                {
                    "name": "G#4",
                    "midi": 68,
                    "time": 34.022897999999955,
                    "velocity": 0.2755905511811024,
                    "duration": 0.12462599999999924
                },
                {
                    "name": "A#4",
                    "midi": 70,
                    "time": 34.272149999999954,
                    "velocity": 0.25196850393700787,
                    "duration": 0.12462599999999924
                },
                {
                    "name": "G#4",
                    "midi": 68,
                    "time": 34.52140199999995,
                    "velocity": 0.2677165354330709,
                    "duration": 0.12462599999999924
                },
                {
                    "name": "A#4",
                    "midi": 70,
                    "time": 34.77065399999995,
                    "velocity": 0.2440944881889764,
                    "duration": 0.12462599999999924
                },
                {
                    "name": "G#4",
                    "midi": 68,
                    "time": 35.01990599999995,
                    "velocity": 0.25984251968503935,
                    "duration": 0.12462599999999924
                },
                {
                    "name": "A#4",
                    "midi": 70,
                    "time": 35.26915799999995,
                    "velocity": 0.2283464566929134,
                    "duration": 0.12462599999999924
                },
                {
                    "name": "G#4",
                    "midi": 68,
                    "time": 35.518409999999946,
                    "velocity": 0.25196850393700787,
                    "duration": 0.12462599999999924
                },
                {
                    "name": "A#4",
                    "midi": 70,
                    "time": 35.767661999999945,
                    "velocity": 0.2204724409448819,
                    "duration": 0.12462599999999924
                },
                {
                    "name": "G#4",
                    "midi": 68,
                    "time": 36.01691399999994,
                    "velocity": 0.3228346456692913,
                    "duration": 0.12462599999999924
                },
                {
                    "name": "A#4",
                    "midi": 70,
                    "time": 36.26616599999994,
                    "velocity": 0.28346456692913385,
                    "duration": 0.12462599999999924
                },
                {
                    "name": "G#4",
                    "midi": 68,
                    "time": 36.51541799999994,
                    "velocity": 0.29133858267716534,
                    "duration": 0.12462599999999924
                },
                {
                    "name": "A#4",
                    "midi": 70,
                    "time": 36.76466999999994,
                    "velocity": 0.25196850393700787,
                    "duration": 0.12462599999999924
                },
                {
                    "name": "G#4",
                    "midi": 68,
                    "time": 37.01392199999994,
                    "velocity": 0.25984251968503935,
                    "duration": 0.12462599999999924
                },
                {
                    "name": "A#4",
                    "midi": 70,
                    "time": 37.263173999999935,
                    "velocity": 0.2283464566929134,
                    "duration": 0.12462599999999924
                },
                {
                    "name": "G#4",
                    "midi": 68,
                    "time": 37.512425999999934,
                    "velocity": 0.25196850393700787,
                    "duration": 0.12462599999999924
                },
                {
                    "name": "A#4",
                    "midi": 70,
                    "time": 37.76167799999993,
                    "velocity": 0.2204724409448819,
                    "duration": 0.12462599999999924
                },
                {
                    "name": "G#4",
                    "midi": 68,
                    "time": 38.01092999999993,
                    "velocity": 0.28346456692913385,
                    "duration": 0.12462599999999924
                },
                {
                    "name": "A#4",
                    "midi": 70,
                    "time": 38.26018199999993,
                    "velocity": 0.29133858267716534,
                    "duration": 0.12462599999999924
                },
                {
                    "name": "G#4",
                    "midi": 68,
                    "time": 38.50943399999993,
                    "velocity": 0.33858267716535434,
                    "duration": 0.12462599999999924
                },
                {
                    "name": "A#4",
                    "midi": 70,
                    "time": 38.758685999999926,
                    "velocity": 0.33858267716535434,
                    "duration": 0.12462599999999924
                },
                {
                    "name": "G#4",
                    "midi": 68,
                    "time": 39.007937999999925,
                    "velocity": 0.2992125984251969,
                    "duration": 0.12462599999999924
                },
                {
                    "name": "A#4",
                    "midi": 70,
                    "time": 39.25718999999992,
                    "velocity": 0.25196850393700787,
                    "duration": 0.12462599999999924
                },
                {
                    "name": "G#4",
                    "midi": 68,
                    "time": 39.50644199999992,
                    "velocity": 0.2677165354330709,
                    "duration": 0.12462599999999924
                },
                {
                    "name": "A#4",
                    "midi": 70,
                    "time": 39.75569399999992,
                    "velocity": 0.2204724409448819,
                    "duration": 0.12462599999999924
                },
                {
                    "name": "G#4",
                    "midi": 68,
                    "time": 40.00494599999992,
                    "velocity": 0.28346456692913385,
                    "duration": 0.12462599999999924
                },
                {
                    "name": "A#4",
                    "midi": 70,
                    "time": 40.25419799999992,
                    "velocity": 0.29133858267716534,
                    "duration": 0.12462599999999924
                },
                {
                    "name": "G#4",
                    "midi": 68,
                    "time": 40.503449999999916,
                    "velocity": 0.33858267716535434,
                    "duration": 0.12462599999999924
                },
                {
                    "name": "A#4",
                    "midi": 70,
                    "time": 40.752701999999914,
                    "velocity": 0.33858267716535434,
                    "duration": 0.12462599999999924
                },
                {
                    "name": "G#4",
                    "midi": 68,
                    "time": 41.00195399999991,
                    "velocity": 0.2992125984251969,
                    "duration": 0.12462599999999924
                },
                {
                    "name": "A#4",
                    "midi": 70,
                    "time": 41.25120599999991,
                    "velocity": 0.25196850393700787,
                    "duration": 0.12462599999999924
                },
                {
                    "name": "G#4",
                    "midi": 68,
                    "time": 41.50045799999991,
                    "velocity": 0.2677165354330709,
                    "duration": 0.12462599999999924
                },
                {
                    "name": "A#4",
                    "midi": 70,
                    "time": 41.74970999999991,
                    "velocity": 0.2204724409448819,
                    "duration": 0.12462599999999924
                },
                {
                    "name": "F#5",
                    "midi": 78,
                    "time": 41.87433599999991,
                    "velocity": 0.30708661417322836,
                    "duration": 0.9970079999999939
                },
                {
                    "name": "F#4",
                    "midi": 66,
                    "time": 41.998961999999906,
                    "velocity": 0.29133858267716534,
                    "duration": 0.12462599999999924
                },
                {
                    "name": "G#4",
                    "midi": 68,
                    "time": 42.248213999999905,
                    "velocity": 0.2677165354330709,
                    "duration": 0.12462599999999924
                },
                {
                    "name": "F#4",
                    "midi": 66,
                    "time": 42.4974659999999,
                    "velocity": 0.29133858267716534,
                    "duration": 0.12462599999999924
                },
                {
                    "name": "G#4",
                    "midi": 68,
                    "time": 42.7467179999999,
                    "velocity": 0.2677165354330709,
                    "duration": 0.12462599999999924
                },
                {
                    "name": "D5",
                    "midi": 74,
                    "time": 42.8713439999999,
                    "velocity": 0.30708661417322836,
                    "duration": 0.9970079999999939
                },
                {
                    "name": "F#4",
                    "midi": 66,
                    "time": 42.9959699999999,
                    "velocity": 0.29133858267716534,
                    "duration": 0.12462599999999924
                },
                {
                    "name": "G#4",
                    "midi": 68,
                    "time": 43.2452219999999,
                    "velocity": 0.2677165354330709,
                    "duration": 0.12462599999999924
                },
                {
                    "name": "F#4",
                    "midi": 66,
                    "time": 43.4944739999999,
                    "velocity": 0.29133858267716534,
                    "duration": 0.12462599999999924
                },
                {
                    "name": "G#4",
                    "midi": 68,
                    "time": 43.743725999999896,
                    "velocity": 0.2677165354330709,
                    "duration": 0.12462599999999924
                },
                {
                    "name": "E5",
                    "midi": 76,
                    "time": 43.868351999999895,
                    "velocity": 0.30708661417322836,
                    "duration": 1.4955119999999908
                },
                {
                    "name": "F#4",
                    "midi": 66,
                    "time": 43.992977999999894,
                    "velocity": 0.29133858267716534,
                    "duration": 0.12462599999999924
                },
                {
                    "name": "G#4",
                    "midi": 68,
                    "time": 44.24222999999989,
                    "velocity": 0.2677165354330709,
                    "duration": 0.12462599999999924
                },
                {
                    "name": "F#4",
                    "midi": 66,
                    "time": 44.49148199999989,
                    "velocity": 0.29133858267716534,
                    "duration": 0.12462599999999924
                },
                {
                    "name": "G#4",
                    "midi": 68,
                    "time": 44.74073399999989,
                    "velocity": 0.2677165354330709,
                    "duration": 0.12462599999999924
                },
                {
                    "name": "F#4",
                    "midi": 66,
                    "time": 44.98998599999989,
                    "velocity": 0.29133858267716534,
                    "duration": 0.12462599999999924
                },
                {
                    "name": "G#4",
                    "midi": 68,
                    "time": 45.23923799999989,
                    "velocity": 0.2677165354330709,
                    "duration": 0.12462599999999924
                },
                {
                    "name": "E5",
                    "midi": 76,
                    "time": 45.363863999999886,
                    "velocity": 0.30708661417322836,
                    "duration": 0.49850399999999695
                },
                {
                    "name": "F#4",
                    "midi": 66,
                    "time": 45.488489999999885,
                    "velocity": 0.29133858267716534,
                    "duration": 0.12462599999999924
                },
                {
                    "name": "G#4",
                    "midi": 68,
                    "time": 45.73774199999988,
                    "velocity": 0.2677165354330709,
                    "duration": 0.12462599999999924
                },
                {
                    "name": "F#5",
                    "midi": 78,
                    "time": 45.86236799999988,
                    "velocity": 0.30708661417322836,
                    "duration": 0.49850399999999695
                },
                {
                    "name": "F#4",
                    "midi": 66,
                    "time": 45.98699399999988,
                    "velocity": 0.29133858267716534,
                    "duration": 0.12462599999999924
                },
                {
                    "name": "G#4",
                    "midi": 68,
                    "time": 46.23624599999988,
                    "velocity": 0.2677165354330709,
                    "duration": 0.12462599999999924
                },
                {
                    "name": "F#5",
                    "midi": 78,
                    "time": 46.36087199999988,
                    "velocity": 0.30708661417322836,
                    "duration": 0.49850399999999695
                },
                {
                    "name": "F#4",
                    "midi": 66,
                    "time": 46.48549799999988,
                    "velocity": 0.29133858267716534,
                    "duration": 0.12462599999999924
                },
                {
                    "name": "G#4",
                    "midi": 68,
                    "time": 46.73474999999988,
                    "velocity": 0.2677165354330709,
                    "duration": 0.12462599999999924
                },
                {
                    "name": "D5",
                    "midi": 74,
                    "time": 46.85937599999988,
                    "velocity": 0.30708661417322836,
                    "duration": 0.49850399999999695
                },
                {
                    "name": "F#4",
                    "midi": 66,
                    "time": 46.984001999999876,
                    "velocity": 0.29133858267716534,
                    "duration": 0.12462599999999924
                },
                {
                    "name": "G#4",
                    "midi": 68,
                    "time": 47.233253999999874,
                    "velocity": 0.2677165354330709,
                    "duration": 0.12462599999999924
                },
                {
                    "name": "D5",
                    "midi": 74,
                    "time": 47.357879999999874,
                    "velocity": 0.30708661417322836,
                    "duration": 0.49850399999999695
                },
                {
                    "name": "F#4",
                    "midi": 66,
                    "time": 47.48250599999987,
                    "velocity": 0.29133858267716534,
                    "duration": 0.12462599999999924
                },
                {
                    "name": "G#4",
                    "midi": 68,
                    "time": 47.73175799999987,
                    "velocity": 0.2677165354330709,
                    "duration": 0.12462599999999924
                },
                {
                    "name": "E5",
                    "midi": 76,
                    "time": 47.85638399999987,
                    "velocity": 0.30708661417322836,
                    "duration": 1.9940159999999878
                },
                {
                    "name": "F#4",
                    "midi": 66,
                    "time": 47.98100999999987,
                    "velocity": 0.28346456692913385,
                    "duration": 0.12462599999999924
                },
                {
                    "name": "G#4",
                    "midi": 68,
                    "time": 48.23026199999987,
                    "velocity": 0.25196850393700787,
                    "duration": 0.12462599999999924
                },
                {
                    "name": "F#4",
                    "midi": 66,
                    "time": 48.47951399999987,
                    "velocity": 0.2677165354330709,
                    "duration": 0.12462599999999924
                },
                {
                    "name": "G#4",
                    "midi": 68,
                    "time": 48.728765999999865,
                    "velocity": 0.2440944881889764,
                    "duration": 0.12462599999999924
                },
                {
                    "name": "F#4",
                    "midi": 66,
                    "time": 48.978017999999864,
                    "velocity": 0.25196850393700787,
                    "duration": 0.12462599999999924
                },
                {
                    "name": "G#4",
                    "midi": 68,
                    "time": 49.22726999999986,
                    "velocity": 0.2283464566929134,
                    "duration": 0.12462599999999924
                },
                {
                    "name": "F#4",
                    "midi": 66,
                    "time": 49.47652199999986,
                    "velocity": 0.2440944881889764,
                    "duration": 0.12462599999999924
                },
                {
                    "name": "G#4",
                    "midi": 68,
                    "time": 49.72577399999986,
                    "velocity": 0.2125984251968504,
                    "duration": 0.12462599999999924
                },
                {
                    "name": "E5",
                    "midi": 76,
                    "time": 49.85039999999986,
                    "velocity": 0.30708661417322836,
                    "duration": 0.9970079999999939
                },
                {
                    "name": "F#4",
                    "midi": 66,
                    "time": 49.97502599999986,
                    "velocity": 0.29133858267716534,
                    "duration": 0.12462599999999924
                },
                {
                    "name": "G#4",
                    "midi": 68,
                    "time": 50.224277999999856,
                    "velocity": 0.2677165354330709,
                    "duration": 0.12462599999999924
                },
                {
                    "name": "F#4",
                    "midi": 66,
                    "time": 50.473529999999855,
                    "velocity": 0.29133858267716534,
                    "duration": 0.12462599999999924
                },
                {
                    "name": "G#4",
                    "midi": 68,
                    "time": 50.72278199999985,
                    "velocity": 0.2677165354330709,
                    "duration": 0.12462599999999924
                },
                {
                    "name": "C5",
                    "midi": 72,
                    "time": 50.84740799999985,
                    "velocity": 0.30708661417322836,
                    "duration": 0.9970079999999939
                },
                {
                    "name": "F#4",
                    "midi": 66,
                    "time": 50.97203399999985,
                    "velocity": 0.29133858267716534,
                    "duration": 0.12462599999999924
                },
                {
                    "name": "G#4",
                    "midi": 68,
                    "time": 51.22128599999985,
                    "velocity": 0.2677165354330709,
                    "duration": 0.12462599999999924
                },
                {
                    "name": "F#4",
                    "midi": 66,
                    "time": 51.47053799999985,
                    "velocity": 0.29133858267716534,
                    "duration": 0.12462599999999924
                },
                {
                    "name": "G#4",
                    "midi": 68,
                    "time": 51.71978999999985,
                    "velocity": 0.2677165354330709,
                    "duration": 0.12462599999999924
                },
                {
                    "name": "D5",
                    "midi": 74,
                    "time": 51.844415999999846,
                    "velocity": 0.30708661417322836,
                    "duration": 1.4955119999999908
                },
                {
                    "name": "F4",
                    "midi": 65,
                    "time": 51.969041999999845,
                    "velocity": 0.29133858267716534,
                    "duration": 0.12462599999999924
                },
                {
                    "name": "G4",
                    "midi": 67,
                    "time": 52.218293999999844,
                    "velocity": 0.2677165354330709,
                    "duration": 0.12462599999999924
                },
                {
                    "name": "F4",
                    "midi": 65,
                    "time": 52.46754599999984,
                    "velocity": 0.29133858267716534,
                    "duration": 0.12462599999999924
                },
                {
                    "name": "G4",
                    "midi": 67,
                    "time": 52.71679799999984,
                    "velocity": 0.2677165354330709,
                    "duration": 0.12462599999999924
                },
                {
                    "name": "F4",
                    "midi": 65,
                    "time": 52.96604999999984,
                    "velocity": 0.29133858267716534,
                    "duration": 0.12462599999999924
                },
                {
                    "name": "G4",
                    "midi": 67,
                    "time": 53.21530199999984,
                    "velocity": 0.2677165354330709,
                    "duration": 0.12462599999999924
                },
                {
                    "name": "D5",
                    "midi": 74,
                    "time": 53.33992799999984,
                    "velocity": 0.30708661417322836,
                    "duration": 0.49850399999999695
                },
                {
                    "name": "F4",
                    "midi": 65,
                    "time": 53.464553999999836,
                    "velocity": 0.29133858267716534,
                    "duration": 0.12462599999999924
                },
                {
                    "name": "G4",
                    "midi": 67,
                    "time": 53.713805999999835,
                    "velocity": 0.2677165354330709,
                    "duration": 0.12462599999999924
                },
                {
                    "name": "E5",
                    "midi": 76,
                    "time": 53.838431999999834,
                    "velocity": 0.30708661417322836,
                    "duration": 0.49850399999999695
                },
                {
                    "name": "F#4",
                    "midi": 66,
                    "time": 53.96305799999983,
                    "velocity": 0.29133858267716534,
                    "duration": 0.12462599999999924
                },
                {
                    "name": "G#4",
                    "midi": 68,
                    "time": 54.21230999999983,
                    "velocity": 0.2677165354330709,
                    "duration": 0.12462599999999924
                },
                {
                    "name": "E5",
                    "midi": 76,
                    "time": 54.33693599999983,
                    "velocity": 0.30708661417322836,
                    "duration": 0.49850399999999695
                },
                {
                    "name": "F#4",
                    "midi": 66,
                    "time": 54.46156199999983,
                    "velocity": 0.29133858267716534,
                    "duration": 0.12462599999999924
                },
                {
                    "name": "G#4",
                    "midi": 68,
                    "time": 54.71081399999983,
                    "velocity": 0.2677165354330709,
                    "duration": 0.12462599999999924
                },
                {
                    "name": "C5",
                    "midi": 72,
                    "time": 54.83543999999983,
                    "velocity": 0.30708661417322836,
                    "duration": 0.49850399999999695
                },
                {
                    "name": "F#4",
                    "midi": 66,
                    "time": 54.96006599999983,
                    "velocity": 0.29133858267716534,
                    "duration": 0.12462599999999924
                },
                {
                    "name": "G#4",
                    "midi": 68,
                    "time": 55.209317999999826,
                    "velocity": 0.2677165354330709,
                    "duration": 0.12462599999999924
                },
                {
                    "name": "C5",
                    "midi": 72,
                    "time": 55.333943999999825,
                    "velocity": 0.30708661417322836,
                    "duration": 0.49850399999999695
                },
                {
                    "name": "F#4",
                    "midi": 66,
                    "time": 55.458569999999824,
                    "velocity": 0.29133858267716534,
                    "duration": 0.12462599999999924
                },
                {
                    "name": "G#4",
                    "midi": 68,
                    "time": 55.70782199999982,
                    "velocity": 0.2677165354330709,
                    "duration": 0.12462599999999924
                },
                {
                    "name": "D5",
                    "midi": 74,
                    "time": 55.83244799999982,
                    "velocity": 0.30708661417322836,
                    "duration": 1.9940159999999878
                },
                {
                    "name": "F4",
                    "midi": 65,
                    "time": 55.95707399999982,
                    "velocity": 0.28346456692913385,
                    "duration": 0.12462599999999924
                },
                {
                    "name": "G4",
                    "midi": 67,
                    "time": 56.20632599999982,
                    "velocity": 0.25196850393700787,
                    "duration": 0.12462599999999924
                },
                {
                    "name": "F4",
                    "midi": 65,
                    "time": 56.45557799999982,
                    "velocity": 0.2677165354330709,
                    "duration": 0.12462599999999924
                },
                {
                    "name": "G4",
                    "midi": 67,
                    "time": 56.704829999999816,
                    "velocity": 0.2440944881889764,
                    "duration": 0.12462599999999924
                },
                {
                    "name": "F4",
                    "midi": 65,
                    "time": 56.954081999999815,
                    "velocity": 0.25196850393700787,
                    "duration": 0.12462599999999924
                },
                {
                    "name": "G4",
                    "midi": 67,
                    "time": 57.20333399999981,
                    "velocity": 0.2283464566929134,
                    "duration": 0.12462599999999924
                },
                {
                    "name": "F4",
                    "midi": 65,
                    "time": 57.45258599999981,
                    "velocity": 0.2440944881889764,
                    "duration": 0.12462599999999924
                },
                {
                    "name": "G4",
                    "midi": 67,
                    "time": 57.70183799999981,
                    "velocity": 0.2125984251968504,
                    "duration": 0.12462599999999924
                },
                {
                    "name": "E4",
                    "midi": 64,
                    "time": 57.95108999999981,
                    "velocity": 0.31496062992125984,
                    "duration": 0.09346949999999765
                },
                {
                    "name": "F4",
                    "midi": 65,
                    "time": 58.20034199999981,
                    "velocity": 0.2677165354330709,
                    "duration": 0.09346949999999765
                },
                {
                    "name": "G4",
                    "midi": 67,
                    "time": 58.449593999999806,
                    "velocity": 0.2677165354330709,
                    "duration": 0.09346949999999765
                },
                {
                    "name": "A4",
                    "midi": 69,
                    "time": 58.698845999999804,
                    "velocity": 0.2677165354330709,
                    "duration": 0.09346949999999765
                },
                {
                    "name": "D4",
                    "midi": 62,
                    "time": 58.9480979999998,
                    "velocity": 0.3464566929133858,
                    "duration": 0.09346949999999765
                },
                {
                    "name": "E4",
                    "midi": 64,
                    "time": 59.1973499999998,
                    "velocity": 0.25984251968503935,
                    "duration": 0.09346949999999765
                },
                {
                    "name": "F4",
                    "midi": 65,
                    "time": 59.4466019999998,
                    "velocity": 0.25984251968503935,
                    "duration": 0.09346949999999765
                },
                {
                    "name": "G4",
                    "midi": 67,
                    "time": 59.6958539999998,
                    "velocity": 0.25984251968503935,
                    "duration": 0.09346949999999765
                },
                {
                    "name": "E4",
                    "midi": 64,
                    "time": 59.9451059999998,
                    "velocity": 0.31496062992125984,
                    "duration": 0.09346949999999765
                },
                {
                    "name": "F4",
                    "midi": 65,
                    "time": 60.194357999999795,
                    "velocity": 0.2677165354330709,
                    "duration": 0.09346949999999765
                },
                {
                    "name": "G4",
                    "midi": 67,
                    "time": 60.443609999999794,
                    "velocity": 0.2677165354330709,
                    "duration": 0.09346949999999765
                },
                {
                    "name": "A4",
                    "midi": 69,
                    "time": 60.69286199999979,
                    "velocity": 0.2677165354330709,
                    "duration": 0.09346949999999765
                },
                {
                    "name": "D4",
                    "midi": 62,
                    "time": 60.94211399999979,
                    "velocity": 0.3464566929133858,
                    "duration": 0.09346949999999765
                },
                {
                    "name": "E4",
                    "midi": 64,
                    "time": 61.19136599999979,
                    "velocity": 0.25984251968503935,
                    "duration": 0.09346949999999765
                },
                {
                    "name": "F4",
                    "midi": 65,
                    "time": 61.44061799999979,
                    "velocity": 0.25984251968503935,
                    "duration": 0.09346949999999765
                },
                {
                    "name": "G4",
                    "midi": 67,
                    "time": 61.689869999999786,
                    "velocity": 0.25984251968503935,
                    "duration": 0.09346949999999765
                },
                {
                    "name": "C4",
                    "midi": 60,
                    "time": 61.814495999999785,
                    "velocity": 0.3543307086614173,
                    "duration": 1.9940159999999878
                },
                {
                    "name": "D4",
                    "midi": 62,
                    "time": 61.939121999999784,
                    "velocity": 0.31496062992125984,
                    "duration": 0.09346949999999765
                },
                {
                    "name": "D#4",
                    "midi": 63,
                    "time": 62.18837399999978,
                    "velocity": 0.2677165354330709,
                    "duration": 0.09346949999999765
                },
                {
                    "name": "F4",
                    "midi": 65,
                    "time": 62.43762599999978,
                    "velocity": 0.2677165354330709,
                    "duration": 0.09346949999999765
                },
                {
                    "name": "G4",
                    "midi": 67,
                    "time": 62.68687799999978,
                    "velocity": 0.2677165354330709,
                    "duration": 0.09346949999999765
                },
                {
                    "name": "D4",
                    "midi": 62,
                    "time": 62.93612999999978,
                    "velocity": 0.33858267716535434,
                    "duration": 0.09346949999999765
                },
                {
                    "name": "D#4",
                    "midi": 63,
                    "time": 63.18538199999978,
                    "velocity": 0.2755905511811024,
                    "duration": 0.09346949999999765
                },
                {
                    "name": "F4",
                    "midi": 65,
                    "time": 63.434633999999775,
                    "velocity": 0.30708661417322836,
                    "duration": 0.09346949999999765
                },
                {
                    "name": "G4",
                    "midi": 67,
                    "time": 63.683885999999774,
                    "velocity": 0.3228346456692913,
                    "duration": 0.09346949999999765
                },
                {
                    "name": "C4",
                    "midi": 60,
                    "time": 63.80851199999977,
                    "velocity": 0.3543307086614173,
                    "duration": 1.9940159999999807
                },
                {
                    "name": "D4",
                    "midi": 62,
                    "time": 63.93313799999977,
                    "velocity": 0.31496062992125984,
                    "duration": 0.09346949999999765
                },
                {
                    "name": "D#4",
                    "midi": 63,
                    "time": 64.18238999999977,
                    "velocity": 0.2677165354330709,
                    "duration": 0.09346949999999765
                },
                {
                    "name": "F4",
                    "midi": 65,
                    "time": 64.43164199999977,
                    "velocity": 0.2677165354330709,
                    "duration": 0.09346949999999765
                },
                {
                    "name": "G4",
                    "midi": 67,
                    "time": 64.68089399999977,
                    "velocity": 0.2677165354330709,
                    "duration": 0.09346949999999765
                },
                {
                    "name": "D4",
                    "midi": 62,
                    "time": 64.93014599999977,
                    "velocity": 0.33858267716535434,
                    "duration": 0.09346949999999765
                },
                {
                    "name": "D#4",
                    "midi": 63,
                    "time": 65.17939799999976,
                    "velocity": 0.2755905511811024,
                    "duration": 0.09346949999999765
                },
                {
                    "name": "F4",
                    "midi": 65,
                    "time": 65.42864999999976,
                    "velocity": 0.30708661417322836,
                    "duration": 0.09346949999999765
                },
                {
                    "name": "G4",
                    "midi": 67,
                    "time": 65.67790199999976,
                    "velocity": 0.3228346456692913,
                    "duration": 0.09346949999999765
                },
                {
                    "name": "A#5",
                    "midi": 82,
                    "time": 66.30103199999975,
                    "velocity": 0.41732283464566927,
                    "duration": 0.12462600000000634
                },
                {
                    "name": "A#5",
                    "midi": 82,
                    "time": 66.46719999999976,
                    "velocity": 0.3700787401574803,
                    "duration": 0.12462600000000634
                },
                {
                    "name": "A#5",
                    "midi": 82,
                    "time": 66.63336799999978,
                    "velocity": 0.3700787401574803,
                    "duration": 0.12462600000000634
                },
                {
                    "name": "A#5",
                    "midi": 82,
                    "time": 66.79953599999979,
                    "velocity": 0.4251968503937008,
                    "duration": 0.12462600000000634
                },
                {
                    "name": "A#5",
                    "midi": 82,
                    "time": 66.9657039999998,
                    "velocity": 0.36220472440944884,
                    "duration": 0.12462600000000634
                },
                {
                    "name": "A#5",
                    "midi": 82,
                    "time": 67.13187199999982,
                    "velocity": 0.36220472440944884,
                    "duration": 0.12462600000000634
                },
                {
                    "name": "A#5",
                    "midi": 82,
                    "time": 67.29803999999983,
                    "velocity": 0.4251968503937008,
                    "duration": 0.12462600000000634
                },
                {
                    "name": "A#5",
                    "midi": 82,
                    "time": 67.46420799999984,
                    "velocity": 0.3700787401574803,
                    "duration": 0.12462600000000634
                },
                {
                    "name": "A#5",
                    "midi": 82,
                    "time": 67.63037599999986,
                    "velocity": 0.3700787401574803,
                    "duration": 0.12462600000000634
                },
                {
                    "name": "A#5",
                    "midi": 82,
                    "time": 67.79654399999987,
                    "velocity": 0.4251968503937008,
                    "duration": 0.24925199999999847
                },
                {
                    "name": "A5",
                    "midi": 81,
                    "time": 68.04579599999987,
                    "velocity": 0.3937007874015748,
                    "duration": 0.24925199999999847
                },
                {
                    "name": "G5",
                    "midi": 79,
                    "time": 68.29504799999987,
                    "velocity": 0.3779527559055118,
                    "duration": 0.9970079999999939
                },
                {
                    "name": "A#5",
                    "midi": 82,
                    "time": 69.29205599999986,
                    "velocity": 0.4566929133858268,
                    "duration": 0.16616799999999898
                },
                {
                    "name": "A5",
                    "midi": 81,
                    "time": 69.45822399999986,
                    "velocity": 0.49606299212598426,
                    "duration": 0.16616799999999898
                },
                {
                    "name": "G5",
                    "midi": 79,
                    "time": 69.62439199999986,
                    "velocity": 0.5275590551181102,
                    "duration": 0.16616799999999898
                },
                {
                    "name": "G5",
                    "midi": 79,
                    "time": 69.79055999999986,
                    "velocity": 0.5511811023622047,
                    "duration": 0.49850399999999695
                },
                {
                    "name": "F5",
                    "midi": 77,
                    "time": 70.28906399999985,
                    "velocity": 0.5590551181102362,
                    "duration": 0.16616799999999898
                },
                {
                    "name": "E5",
                    "midi": 76,
                    "time": 70.45523199999985,
                    "velocity": 0.5275590551181102,
                    "duration": 0.16616799999999898
                },
                {
                    "name": "D5",
                    "midi": 74,
                    "time": 70.62139999999985,
                    "velocity": 0.4881889763779528,
                    "duration": 0.16616799999999898
                },
                {
                    "name": "C#5",
                    "midi": 73,
                    "time": 70.78756799999985,
                    "velocity": 0.5039370078740157,
                    "duration": 0.1869389999999953
                },
                {
                    "name": "A#4",
                    "midi": 70,
                    "time": 71.03681999999985,
                    "velocity": 0.3858267716535433,
                    "duration": 0.7477559999999954
                },
                {
                    "name": "F5",
                    "midi": 77,
                    "time": 72.28307999999984,
                    "velocity": 0.5354330708661418,
                    "duration": 0.16616799999999898
                },
                {
                    "name": "E5",
                    "midi": 76,
                    "time": 72.44924799999984,
                    "velocity": 0.48031496062992124,
                    "duration": 0.16616799999999898
                },
                {
                    "name": "D5",
                    "midi": 74,
                    "time": 72.61541599999984,
                    "velocity": 0.44881889763779526,
                    "duration": 0.16616799999999898
                },
                {
                    "name": "C#5",
                    "midi": 73,
                    "time": 72.78158399999984,
                    "velocity": 0.48031496062992124,
                    "duration": 0.1869389999999953
                },
                {
                    "name": "A#4",
                    "midi": 70,
                    "time": 73.03083599999984,
                    "velocity": 0.3858267716535433,
                    "duration": 0.24925199999999847
                },
                {
                    "name": "F5",
                    "midi": 77,
                    "time": 73.28008799999984,
                    "velocity": 0.49606299212598426,
                    "duration": 0.16616799999999898
                },
                {
                    "name": "E5",
                    "midi": 76,
                    "time": 73.44625599999983,
                    "velocity": 0.4251968503937008,
                    "duration": 0.16616799999999898
                },
                {
                    "name": "D5",
                    "midi": 74,
                    "time": 73.61242399999983,
                    "velocity": 0.3937007874015748,
                    "duration": 0.10385499999999581
                },
                {
                    "name": "C#5",
                    "midi": 73,
                    "time": 73.71627899999983,
                    "velocity": 0.3937007874015748,
                    "duration": 1.952473999999981
                },
                {
                    "name": "E5",
                    "midi": 76,
                    "time": 73.73704999999983,
                    "velocity": 0.4251968503937008,
                    "duration": 1.952473999999981
                },
                {
                    "name": "F#5",
                    "midi": 78,
                    "time": 73.75782099999982,
                    "velocity": 0.44881889763779526,
                    "duration": 1.952473999999981
                },
                {
                    "name": "C#6",
                    "midi": 85,
                    "time": 73.77859199999982,
                    "velocity": 0.5826771653543307,
                    "duration": 0.24925199999999847
                },
                {
                    "name": "A#5",
                    "midi": 82,
                    "time": 74.02784399999982,
                    "velocity": 0.4251968503937008,
                    "duration": 0.24925199999999847
                },
                {
                    "name": "C#4",
                    "midi": 61,
                    "time": 75.7102949999998,
                    "velocity": 0.30708661417322836,
                    "duration": 0.5608169999999859
                },
                {
                    "name": "E4",
                    "midi": 64,
                    "time": 75.7310659999998,
                    "velocity": 0.30708661417322836,
                    "duration": 0.5400459999999896
                },
                {
                    "name": "F#4",
                    "midi": 66,
                    "time": 75.7518369999998,
                    "velocity": 0.3543307086614173,
                    "duration": 0.49850399999999695
                },
                {
                    "name": "C#5",
                    "midi": 73,
                    "time": 75.77260799999979,
                    "velocity": 0.4881889763779528,
                    "duration": 0.24925199999999847
                },
                {
                    "name": "A#4",
                    "midi": 70,
                    "time": 76.02185999999979,
                    "velocity": 0.36220472440944884,
                    "duration": 0.24925199999999847
                },
                {
                    "name": "A#3",
                    "midi": 58,
                    "time": 77.26811999999978,
                    "velocity": 0.25196850393700787,
                    "duration": 0.12462600000000634
                },
                {
                    "name": "C4",
                    "midi": 60,
                    "time": 77.39274599999979,
                    "velocity": 0.1968503937007874,
                    "duration": 0.12462600000000634
                },
                {
                    "name": "A#3",
                    "midi": 58,
                    "time": 77.5173719999998,
                    "velocity": 0.2440944881889764,
                    "duration": 0.12462600000000634
                },
                {
                    "name": "C4",
                    "midi": 60,
                    "time": 77.6419979999998,
                    "velocity": 0.2047244094488189,
                    "duration": 0.12462600000000634
                },
                {
                    "name": "A#3",
                    "midi": 58,
                    "time": 77.76662399999981,
                    "velocity": 0.2283464566929134,
                    "duration": 0.12462600000000634
                },
                {
                    "name": "C4",
                    "midi": 60,
                    "time": 77.89124999999981,
                    "velocity": 0.1968503937007874,
                    "duration": 0.12462600000000634
                },
                {
                    "name": "A#3",
                    "midi": 58,
                    "time": 78.01587599999982,
                    "velocity": 0.2283464566929134,
                    "duration": 0.12462600000000634
                },
                {
                    "name": "C4",
                    "midi": 60,
                    "time": 78.14050199999983,
                    "velocity": 0.1889763779527559,
                    "duration": 0.12462600000000634
                },
                {
                    "name": "A#3",
                    "midi": 58,
                    "time": 78.26512799999983,
                    "velocity": 0.2283464566929134,
                    "duration": 0.12462600000000634
                },
                {
                    "name": "C4",
                    "midi": 60,
                    "time": 78.38975399999984,
                    "velocity": 0.1889763779527559,
                    "duration": 0.12462600000000634
                },
                {
                    "name": "A#3",
                    "midi": 58,
                    "time": 78.51437999999985,
                    "velocity": 0.2283464566929134,
                    "duration": 0.12462600000000634
                },
                {
                    "name": "C4",
                    "midi": 60,
                    "time": 78.63900599999985,
                    "velocity": 0.1889763779527559,
                    "duration": 0.12462600000000634
                },
                {
                    "name": "A#3",
                    "midi": 58,
                    "time": 78.76363199999986,
                    "velocity": 0.23622047244094488,
                    "duration": 0.12462600000000634
                },
                {
                    "name": "C4",
                    "midi": 60,
                    "time": 78.88825799999987,
                    "velocity": 0.1889763779527559,
                    "duration": 0.12462600000000634
                },
                {
                    "name": "A#3",
                    "midi": 58,
                    "time": 79.01288399999987,
                    "velocity": 0.23622047244094488,
                    "duration": 0.12462600000000634
                },
                {
                    "name": "C4",
                    "midi": 60,
                    "time": 79.13750999999988,
                    "velocity": 0.1889763779527559,
                    "duration": 0.12462600000000634
                },
                {
                    "name": "A#3",
                    "midi": 58,
                    "time": 79.26213599999988,
                    "velocity": 0.25984251968503935,
                    "duration": 0.12462600000000634
                },
                {
                    "name": "C4",
                    "midi": 60,
                    "time": 79.38676199999989,
                    "velocity": 0.1889763779527559,
                    "duration": 0.12462600000000634
                },
                {
                    "name": "A#3",
                    "midi": 58,
                    "time": 79.5113879999999,
                    "velocity": 0.23622047244094488,
                    "duration": 0.12462600000000634
                },
                {
                    "name": "C4",
                    "midi": 60,
                    "time": 79.6360139999999,
                    "velocity": 0.1968503937007874,
                    "duration": 0.12462600000000634
                },
                {
                    "name": "A#3",
                    "midi": 58,
                    "time": 79.76063999999991,
                    "velocity": 0.2755905511811024,
                    "duration": 0.12462600000000634
                },
                {
                    "name": "C4",
                    "midi": 60,
                    "time": 79.88526599999992,
                    "velocity": 0.2047244094488189,
                    "duration": 0.12462600000000634
                },
                {
                    "name": "A#3",
                    "midi": 58,
                    "time": 80.00989199999992,
                    "velocity": 0.2047244094488189,
                    "duration": 0.12462600000000634
                },
                {
                    "name": "C4",
                    "midi": 60,
                    "time": 80.13451799999993,
                    "velocity": 0.28346456692913385,
                    "duration": 0.12462600000000634
                },
                {
                    "name": "A#3",
                    "midi": 58,
                    "time": 80.25914399999994,
                    "velocity": 0.2125984251968504,
                    "duration": 0.12462600000000634
                },
                {
                    "name": "C#4",
                    "midi": 61,
                    "time": 80.38376999999994,
                    "velocity": 0.25196850393700787,
                    "duration": 0.12462600000000634
                },
                {
                    "name": "A#3",
                    "midi": 58,
                    "time": 80.50839599999995,
                    "velocity": 0.2677165354330709,
                    "duration": 0.12462600000000634
                },
                {
                    "name": "C#4",
                    "midi": 61,
                    "time": 80.63302199999995,
                    "velocity": 0.30708661417322836,
                    "duration": 0.12462600000000634
                },
                {
                    "name": "A#4",
                    "midi": 70,
                    "time": 81.00689999999996,
                    "velocity": 0.4330708661417323,
                    "duration": 0.12462600000000634
                },
                {
                    "name": "C#5",
                    "midi": 73,
                    "time": 81.13152599999997,
                    "velocity": 0.3779527559055118,
                    "duration": 0.12462600000000634
                },
                {
                    "name": "A#3",
                    "midi": 58,
                    "time": 81.50540399999997,
                    "velocity": 0.3543307086614173,
                    "duration": 0.12462600000000634
                },
                {
                    "name": "C#4",
                    "midi": 61,
                    "time": 81.63002999999998,
                    "velocity": 0.31496062992125984,
                    "duration": 0.12462600000000634
                },
                {
                    "name": "A#3",
                    "midi": 58,
                    "time": 81.75465599999998,
                    "velocity": 0.2283464566929134,
                    "duration": 0.12462600000000634
                },
                {
                    "name": "C4",
                    "midi": 60,
                    "time": 81.87928199999999,
                    "velocity": 0.1968503937007874,
                    "duration": 0.12462600000000634
                },
                {
                    "name": "A#3",
                    "midi": 58,
                    "time": 82.003908,
                    "velocity": 0.2283464566929134,
                    "duration": 0.12462600000000634
                },
                {
                    "name": "C4",
                    "midi": 60,
                    "time": 82.128534,
                    "velocity": 0.1889763779527559,
                    "duration": 0.12462600000000634
                },
                {
                    "name": "A#3",
                    "midi": 58,
                    "time": 82.25316000000001,
                    "velocity": 0.2283464566929134,
                    "duration": 0.12462600000000634
                },
                {
                    "name": "C4",
                    "midi": 60,
                    "time": 82.37778600000001,
                    "velocity": 0.1889763779527559,
                    "duration": 0.12462600000000634
                },
                {
                    "name": "A#3",
                    "midi": 58,
                    "time": 82.50241200000002,
                    "velocity": 0.2283464566929134,
                    "duration": 0.12462600000000634
                },
                {
                    "name": "C4",
                    "midi": 60,
                    "time": 82.62703800000003,
                    "velocity": 0.1889763779527559,
                    "duration": 0.12462600000000634
                },
                {
                    "name": "A#3",
                    "midi": 58,
                    "time": 82.75166400000003,
                    "velocity": 0.23622047244094488,
                    "duration": 0.12462600000000634
                },
                {
                    "name": "C4",
                    "midi": 60,
                    "time": 82.87629000000004,
                    "velocity": 0.1889763779527559,
                    "duration": 0.12462600000000634
                },
                {
                    "name": "A#3",
                    "midi": 58,
                    "time": 83.00091600000005,
                    "velocity": 0.23622047244094488,
                    "duration": 0.12462600000000634
                },
                {
                    "name": "C4",
                    "midi": 60,
                    "time": 83.12554200000005,
                    "velocity": 0.1889763779527559,
                    "duration": 0.12462600000000634
                },
                {
                    "name": "A#3",
                    "midi": 58,
                    "time": 83.25016800000006,
                    "velocity": 0.25984251968503935,
                    "duration": 0.12462600000000634
                },
                {
                    "name": "C4",
                    "midi": 60,
                    "time": 83.37479400000007,
                    "velocity": 0.1889763779527559,
                    "duration": 0.12462600000000634
                },
                {
                    "name": "A#3",
                    "midi": 58,
                    "time": 83.49942000000007,
                    "velocity": 0.23622047244094488,
                    "duration": 0.12462600000000634
                },
                {
                    "name": "C4",
                    "midi": 60,
                    "time": 83.62404600000008,
                    "velocity": 0.1968503937007874,
                    "duration": 0.12462600000000634
                },
                {
                    "name": "A#3",
                    "midi": 58,
                    "time": 83.74867200000008,
                    "velocity": 0.2755905511811024,
                    "duration": 0.12462600000000634
                },
                {
                    "name": "C4",
                    "midi": 60,
                    "time": 83.87329800000009,
                    "velocity": 0.2047244094488189,
                    "duration": 0.12462600000000634
                },
                {
                    "name": "A#3",
                    "midi": 58,
                    "time": 83.9979240000001,
                    "velocity": 0.2047244094488189,
                    "duration": 0.12462600000000634
                },
                {
                    "name": "C4",
                    "midi": 60,
                    "time": 84.1225500000001,
                    "velocity": 0.28346456692913385,
                    "duration": 0.12462600000000634
                },
                {
                    "name": "A#3",
                    "midi": 58,
                    "time": 84.24717600000011,
                    "velocity": 0.2125984251968504,
                    "duration": 0.12462600000000634
                },
                {
                    "name": "C#4",
                    "midi": 61,
                    "time": 84.37180200000012,
                    "velocity": 0.25196850393700787,
                    "duration": 0.12462600000000634
                },
                {
                    "name": "A#3",
                    "midi": 58,
                    "time": 84.49642800000012,
                    "velocity": 0.2677165354330709,
                    "duration": 0.12462600000000634
                },
                {
                    "name": "C#4",
                    "midi": 61,
                    "time": 84.62105400000013,
                    "velocity": 0.30708661417322836,
                    "duration": 0.12462600000000634
                },
                {
                    "name": "A#4",
                    "midi": 70,
                    "time": 84.99493200000013,
                    "velocity": 0.4330708661417323,
                    "duration": 0.12462600000000634
                },
                {
                    "name": "C#5",
                    "midi": 73,
                    "time": 85.11955800000014,
                    "velocity": 0.3779527559055118,
                    "duration": 0.12462600000000634
                },
                {
                    "name": "A#4",
                    "midi": 70,
                    "time": 85.24418400000015,
                    "velocity": 0.4251968503937008,
                    "duration": 0.12462600000000634
                },
                {
                    "name": "C#5",
                    "midi": 73,
                    "time": 85.36881000000015,
                    "velocity": 0.3858267716535433,
                    "duration": 0.12462600000000634
                },
                {
                    "name": "A#5",
                    "midi": 82,
                    "time": 86.24119200000015,
                    "velocity": 0.41732283464566927,
                    "duration": 0.12462600000000634
                },
                {
                    "name": "A#5",
                    "midi": 82,
                    "time": 86.40736000000017,
                    "velocity": 0.3700787401574803,
                    "duration": 0.12462600000000634
                },
                {
                    "name": "A#5",
                    "midi": 82,
                    "time": 86.57352800000018,
                    "velocity": 0.3700787401574803,
                    "duration": 0.12462600000000634
                },
                {
                    "name": "A#5",
                    "midi": 82,
                    "time": 86.7396960000002,
                    "velocity": 0.4251968503937008,
                    "duration": 0.12462600000000634
                },
                {
                    "name": "A#5",
                    "midi": 82,
                    "time": 86.90586400000021,
                    "velocity": 0.36220472440944884,
                    "duration": 0.12462600000000634
                },
                {
                    "name": "A#5",
                    "midi": 82,
                    "time": 87.07203200000022,
                    "velocity": 0.36220472440944884,
                    "duration": 0.12462600000000634
                },
                {
                    "name": "A#5",
                    "midi": 82,
                    "time": 87.23820000000023,
                    "velocity": 0.4251968503937008,
                    "duration": 0.12462600000000634
                },
                {
                    "name": "A#5",
                    "midi": 82,
                    "time": 87.40436800000025,
                    "velocity": 0.3700787401574803,
                    "duration": 0.12462600000000634
                },
                {
                    "name": "A#5",
                    "midi": 82,
                    "time": 87.57053600000026,
                    "velocity": 0.3700787401574803,
                    "duration": 0.12462600000000634
                },
                {
                    "name": "A#5",
                    "midi": 82,
                    "time": 87.73670400000027,
                    "velocity": 0.4251968503937008,
                    "duration": 0.24925199999999847
                },
                {
                    "name": "A5",
                    "midi": 81,
                    "time": 87.98595600000027,
                    "velocity": 0.3937007874015748,
                    "duration": 0.24925199999999847
                },
                {
                    "name": "G5",
                    "midi": 79,
                    "time": 88.23520800000027,
                    "velocity": 0.3779527559055118,
                    "duration": 0.9970079999999939
                },
                {
                    "name": "A#5",
                    "midi": 82,
                    "time": 89.23221600000026,
                    "velocity": 0.5433070866141733,
                    "duration": 0.16616799999999898
                },
                {
                    "name": "A5",
                    "midi": 81,
                    "time": 89.39838400000026,
                    "velocity": 0.5118110236220472,
                    "duration": 0.16616799999999898
                },
                {
                    "name": "G5",
                    "midi": 79,
                    "time": 89.56455200000026,
                    "velocity": 0.44881889763779526,
                    "duration": 0.16616799999999898
                },
                {
                    "name": "G5",
                    "midi": 79,
                    "time": 89.73072000000026,
                    "velocity": 0.5039370078740157,
                    "duration": 0.49850399999999695
                },
                {
                    "name": "F5",
                    "midi": 77,
                    "time": 90.22922400000026,
                    "velocity": 0.5196850393700787,
                    "duration": 0.16616799999999898
                },
                {
                    "name": "E5",
                    "midi": 76,
                    "time": 90.39539200000026,
                    "velocity": 0.4645669291338583,
                    "duration": 0.16616799999999898
                },
                {
                    "name": "D5",
                    "midi": 74,
                    "time": 90.56156000000026,
                    "velocity": 0.4330708661417323,
                    "duration": 0.16616799999999898
                },
                {
                    "name": "C#5",
                    "midi": 73,
                    "time": 90.72772800000025,
                    "velocity": 0.48031496062992124,
                    "duration": 0.1869389999999953
                },
                {
                    "name": "A#4",
                    "midi": 70,
                    "time": 90.97698000000025,
                    "velocity": 0.3858267716535433,
                    "duration": 0.7477559999999954
                },
                {
                    "name": "F5",
                    "midi": 77,
                    "time": 92.22324000000025,
                    "velocity": 0.5196850393700787,
                    "duration": 0.16616799999999898
                },
                {
                    "name": "G#4",
                    "midi": 68,
                    "time": 92.22324000000025,
                    "velocity": 0.5196850393700787,
                    "duration": 0.49850399999999695
                },
                {
                    "name": "E5",
                    "midi": 76,
                    "time": 92.38940800000024,
                    "velocity": 0.4645669291338583,
                    "duration": 0.16616799999999898
                },
                {
                    "name": "D5",
                    "midi": 74,
                    "time": 92.55557600000024,
                    "velocity": 0.4409448818897638,
                    "duration": 0.16616799999999898
                },
                {
                    "name": "G4",
                    "midi": 67,
                    "time": 92.72174400000024,
                    "velocity": 0.3464566929133858,
                    "duration": 0.49850399999999695
                },
                {
                    "name": "C#5",
                    "midi": 73,
                    "time": 92.72174400000024,
                    "velocity": 0.48031496062992124,
                    "duration": 0.1869389999999953
                },
                {
                    "name": "A#4",
                    "midi": 70,
                    "time": 92.97099600000024,
                    "velocity": 0.3858267716535433,
                    "duration": 0.1869389999999953
                },
                {
                    "name": "F5",
                    "midi": 77,
                    "time": 93.22024800000024,
                    "velocity": 0.49606299212598426,
                    "duration": 0.16616799999999898
                },
                {
                    "name": "G#4",
                    "midi": 68,
                    "time": 93.22024800000024,
                    "velocity": 0.49606299212598426,
                    "duration": 0.49850399999999695
                },
                {
                    "name": "E5",
                    "midi": 76,
                    "time": 93.38641600000024,
                    "velocity": 0.4251968503937008,
                    "duration": 0.16616799999999898
                },
                {
                    "name": "D5",
                    "midi": 74,
                    "time": 93.55258400000024,
                    "velocity": 0.3937007874015748,
                    "duration": 0.16616799999999898
                },
                {
                    "name": "G4",
                    "midi": 67,
                    "time": 93.71875200000024,
                    "velocity": 0.3464566929133858,
                    "duration": 0.49850399999999695
                },
                {
                    "name": "C#5",
                    "midi": 73,
                    "time": 93.71875200000024,
                    "velocity": 0.48031496062992124,
                    "duration": 0.1869389999999953
                },
                {
                    "name": "A#4",
                    "midi": 70,
                    "time": 93.96800400000024,
                    "velocity": 0.3858267716535433,
                    "duration": 0.1869389999999953
                },
                {
                    "name": "G#4",
                    "midi": 68,
                    "time": 94.21725600000023,
                    "velocity": 0.4015748031496063,
                    "duration": 0.49850399999999695
                },
                {
                    "name": "F5",
                    "midi": 77,
                    "time": 94.21725600000023,
                    "velocity": 0.49606299212598426,
                    "duration": 0.16616799999999898
                },
                {
                    "name": "E5",
                    "midi": 76,
                    "time": 94.38342400000023,
                    "velocity": 0.4251968503937008,
                    "duration": 0.16616799999999898
                },
                {
                    "name": "D5",
                    "midi": 74,
                    "time": 94.54959200000023,
                    "velocity": 0.3937007874015748,
                    "duration": 0.16616799999999898
                },
                {
                    "name": "A#4",
                    "midi": 70,
                    "time": 94.71576000000023,
                    "velocity": 0.5905511811023622,
                    "duration": 0.12462600000000634
                },
                {
                    "name": "C#5",
                    "midi": 73,
                    "time": 94.71576000000023,
                    "velocity": 0.5905511811023622,
                    "duration": 0.12462600000000634
                },
                {
                    "name": "F#4",
                    "midi": 66,
                    "time": 94.84038600000024,
                    "velocity": 0.5433070866141733,
                    "duration": 0.12462600000000634
                },
                {
                    "name": "A#4",
                    "midi": 70,
                    "time": 95.71276800000024,
                    "velocity": 0.5905511811023622,
                    "duration": 0.12462600000000634
                },
                {
                    "name": "C#5",
                    "midi": 73,
                    "time": 95.71276800000024,
                    "velocity": 0.5905511811023622,
                    "duration": 0.12462600000000634
                },
                {
                    "name": "F4",
                    "midi": 65,
                    "time": 95.83739400000024,
                    "velocity": 0.5354330708661418,
                    "duration": 0.12462600000000634
                },
                {
                    "name": "A#4",
                    "midi": 70,
                    "time": 96.70977600000025,
                    "velocity": 0.5905511811023622,
                    "duration": 0.12462600000000634
                },
                {
                    "name": "C#5",
                    "midi": 73,
                    "time": 96.70977600000025,
                    "velocity": 0.5905511811023622,
                    "duration": 0.12462600000000634
                },
                {
                    "name": "D#4",
                    "midi": 63,
                    "time": 96.83440200000025,
                    "velocity": 0.5433070866141733,
                    "duration": 0.09346949999999765
                },
                {
                    "name": "A#4",
                    "midi": 70,
                    "time": 98.70379200000025,
                    "velocity": 0.5905511811023622,
                    "duration": 0.12462600000000634
                },
                {
                    "name": "C#5",
                    "midi": 73,
                    "time": 98.70379200000025,
                    "velocity": 0.5905511811023622,
                    "duration": 0.12462600000000634
                },
                {
                    "name": "F#4",
                    "midi": 66,
                    "time": 98.82841800000026,
                    "velocity": 0.5433070866141733,
                    "duration": 0.12462600000000634
                },
                {
                    "name": "A#4",
                    "midi": 70,
                    "time": 99.70080000000026,
                    "velocity": 0.5905511811023622,
                    "duration": 0.12462600000000634
                },
                {
                    "name": "C#5",
                    "midi": 73,
                    "time": 99.70080000000026,
                    "velocity": 0.5905511811023622,
                    "duration": 0.12462600000000634
                },
                {
                    "name": "F4",
                    "midi": 65,
                    "time": 99.82542600000026,
                    "velocity": 0.5354330708661418,
                    "duration": 0.12462600000000634
                },
                {
                    "name": "A#4",
                    "midi": 70,
                    "time": 100.69780800000026,
                    "velocity": 0.5905511811023622,
                    "duration": 0.12462600000000634
                },
                {
                    "name": "C#5",
                    "midi": 73,
                    "time": 100.69780800000026,
                    "velocity": 0.5905511811023622,
                    "duration": 0.12462600000000634
                },
                {
                    "name": "D#4",
                    "midi": 63,
                    "time": 100.82243400000027,
                    "velocity": 0.5433070866141733,
                    "duration": 0.09346949999999765
                },
                {
                    "name": "D#4",
                    "midi": 63,
                    "time": 101.69481600000027,
                    "velocity": 0.33070866141732286,
                    "duration": 0.09346949999999765
                },
                {
                    "name": "D4",
                    "midi": 62,
                    "time": 101.81944200000027,
                    "velocity": 0.2755905511811024,
                    "duration": 0.09346949999999765
                },
                {
                    "name": "F#4",
                    "midi": 66,
                    "time": 101.94406800000026,
                    "velocity": 0.33070866141732286,
                    "duration": 0.09346949999999765
                },
                {
                    "name": "F4",
                    "midi": 65,
                    "time": 102.06869400000025,
                    "velocity": 0.29133858267716534,
                    "duration": 0.09346949999999765
                },
                {
                    "name": "D#4",
                    "midi": 63,
                    "time": 102.19332000000024,
                    "velocity": 0.33070866141732286,
                    "duration": 0.09346949999999765
                },
                {
                    "name": "F4",
                    "midi": 65,
                    "time": 102.31794600000023,
                    "velocity": 0.29133858267716534,
                    "duration": 0.09346949999999765
                },
                {
                    "name": "F#4",
                    "midi": 66,
                    "time": 102.44257200000023,
                    "velocity": 0.29133858267716534,
                    "duration": 0.09346949999999765
                },
                {
                    "name": "G4",
                    "midi": 67,
                    "time": 102.56719800000022,
                    "velocity": 0.29133858267716534,
                    "duration": 0.09346949999999765
                },
                {
                    "name": "D#4",
                    "midi": 63,
                    "time": 102.69182400000021,
                    "velocity": 0.33070866141732286,
                    "duration": 0.09346949999999765
                },
                {
                    "name": "D4",
                    "midi": 62,
                    "time": 102.8164500000002,
                    "velocity": 0.2755905511811024,
                    "duration": 0.09346949999999765
                },
                {
                    "name": "F#4",
                    "midi": 66,
                    "time": 102.9410760000002,
                    "velocity": 0.33070866141732286,
                    "duration": 0.09346949999999765
                },
                {
                    "name": "F4",
                    "midi": 65,
                    "time": 103.06570200000019,
                    "velocity": 0.28346456692913385,
                    "duration": 0.09346949999999765
                },
                {
                    "name": "D#4",
                    "midi": 63,
                    "time": 103.19032800000018,
                    "velocity": 0.33070866141732286,
                    "duration": 0.09346949999999765
                },
                {
                    "name": "F4",
                    "midi": 65,
                    "time": 103.31495400000017,
                    "velocity": 0.29133858267716534,
                    "duration": 0.09346949999999765
                },
                {
                    "name": "F#4",
                    "midi": 66,
                    "time": 103.43958000000016,
                    "velocity": 0.29133858267716534,
                    "duration": 0.09346949999999765
                },
                {
                    "name": "G4",
                    "midi": 67,
                    "time": 103.56420600000015,
                    "velocity": 0.29133858267716534,
                    "duration": 0.09346949999999765
                },
                {
                    "name": "F#4",
                    "midi": 66,
                    "time": 103.68883200000015,
                    "velocity": 0.33070866141732286,
                    "duration": 0.09346949999999765
                },
                {
                    "name": "F4",
                    "midi": 65,
                    "time": 103.81345800000014,
                    "velocity": 0.2755905511811024,
                    "duration": 0.09346949999999765
                },
                {
                    "name": "A#4",
                    "midi": 70,
                    "time": 103.93808400000013,
                    "velocity": 0.33070866141732286,
                    "duration": 0.09346949999999765
                },
                {
                    "name": "A4",
                    "midi": 69,
                    "time": 104.06271000000012,
                    "velocity": 0.29133858267716534,
                    "duration": 0.09346949999999765
                },
                {
                    "name": "F#4",
                    "midi": 66,
                    "time": 104.18733600000012,
                    "velocity": 0.33070866141732286,
                    "duration": 0.09346949999999765
                },
                {
                    "name": "G#4",
                    "midi": 68,
                    "time": 104.31196200000011,
                    "velocity": 0.29133858267716534,
                    "duration": 0.09346949999999765
                },
                {
                    "name": "A#4",
                    "midi": 70,
                    "time": 104.4365880000001,
                    "velocity": 0.29133858267716534,
                    "duration": 0.09346949999999765
                },
                {
                    "name": "B4",
                    "midi": 71,
                    "time": 104.56121400000009,
                    "velocity": 0.29133858267716534,
                    "duration": 0.09346949999999765
                },
                {
                    "name": "F#4",
                    "midi": 66,
                    "time": 104.68584000000008,
                    "velocity": 0.33070866141732286,
                    "duration": 0.09346949999999765
                },
                {
                    "name": "F4",
                    "midi": 65,
                    "time": 104.81046600000008,
                    "velocity": 0.2755905511811024,
                    "duration": 0.09346949999999765
                },
                {
                    "name": "A#4",
                    "midi": 70,
                    "time": 104.93509200000007,
                    "velocity": 0.33070866141732286,
                    "duration": 0.09346949999999765
                },
                {
                    "name": "A4",
                    "midi": 69,
                    "time": 105.05971800000006,
                    "velocity": 0.28346456692913385,
                    "duration": 0.09346949999999765
                },
                {
                    "name": "F#4",
                    "midi": 66,
                    "time": 105.18434400000005,
                    "velocity": 0.33070866141732286,
                    "duration": 0.09346949999999765
                },
                {
                    "name": "A4",
                    "midi": 69,
                    "time": 105.30897000000004,
                    "velocity": 0.29133858267716534,
                    "duration": 0.09346949999999765
                },
                {
                    "name": "A#4",
                    "midi": 70,
                    "time": 105.43359600000004,
                    "velocity": 0.29133858267716534,
                    "duration": 0.09346949999999765
                },
                {
                    "name": "B4",
                    "midi": 71,
                    "time": 105.55822200000003,
                    "velocity": 0.29133858267716534,
                    "duration": 0.09346949999999765
                },
                {
                    "name": "A#4",
                    "midi": 70,
                    "time": 105.68284800000002,
                    "velocity": 0.33070866141732286,
                    "duration": 0.09346949999999765
                },
                {
                    "name": "A4",
                    "midi": 69,
                    "time": 105.80747400000001,
                    "velocity": 0.2755905511811024,
                    "duration": 0.09346949999999765
                },
                {
                    "name": "C#5",
                    "midi": 73,
                    "time": 105.9321,
                    "velocity": 0.33070866141732286,
                    "duration": 0.09346949999999765
                },
                {
                    "name": "C5",
                    "midi": 72,
                    "time": 106.056726,
                    "velocity": 0.29133858267716534,
                    "duration": 0.09346949999999765
                },
                {
                    "name": "A#4",
                    "midi": 70,
                    "time": 106.18135199999999,
                    "velocity": 0.33070866141732286,
                    "duration": 0.09346949999999765
                },
                {
                    "name": "B4",
                    "midi": 71,
                    "time": 106.30597799999998,
                    "velocity": 0.29133858267716534,
                    "duration": 0.09346949999999765
                },
                {
                    "name": "C#5",
                    "midi": 73,
                    "time": 106.43060399999997,
                    "velocity": 0.29133858267716534,
                    "duration": 0.09346949999999765
                },
                {
                    "name": "D5",
                    "midi": 74,
                    "time": 106.55522999999997,
                    "velocity": 0.29133858267716534,
                    "duration": 0.09346949999999765
                },
                {
                    "name": "A#4",
                    "midi": 70,
                    "time": 106.67985599999996,
                    "velocity": 0.33070866141732286,
                    "duration": 0.09346949999999765
                },
                {
                    "name": "A4",
                    "midi": 69,
                    "time": 106.80448199999995,
                    "velocity": 0.2755905511811024,
                    "duration": 0.09346949999999765
                },
                {
                    "name": "C#5",
                    "midi": 73,
                    "time": 106.92910799999994,
                    "velocity": 0.33070866141732286,
                    "duration": 0.09346949999999765
                },
                {
                    "name": "C5",
                    "midi": 72,
                    "time": 107.05373399999993,
                    "velocity": 0.28346456692913385,
                    "duration": 0.09346949999999765
                },
                {
                    "name": "A#4",
                    "midi": 70,
                    "time": 107.17835999999993,
                    "velocity": 0.33070866141732286,
                    "duration": 0.09346949999999765
                },
                {
                    "name": "B4",
                    "midi": 71,
                    "time": 107.30298599999992,
                    "velocity": 0.29133858267716534,
                    "duration": 0.09346949999999765
                },
                {
                    "name": "C#5",
                    "midi": 73,
                    "time": 107.42761199999991,
                    "velocity": 0.29133858267716534,
                    "duration": 0.09346949999999765
                },
                {
                    "name": "D5",
                    "midi": 74,
                    "time": 107.5522379999999,
                    "velocity": 0.29133858267716534,
                    "duration": 0.09346949999999765
                },
                {
                    "name": "A#4",
                    "midi": 70,
                    "time": 107.6768639999999,
                    "velocity": 0.33070866141732286,
                    "duration": 0.12462600000000634
                },
                {
                    "name": "B4",
                    "midi": 71,
                    "time": 107.8014899999999,
                    "velocity": 0.3228346456692913,
                    "duration": 0.12462600000000634
                },
                {
                    "name": "C#5",
                    "midi": 73,
                    "time": 107.92611599999991,
                    "velocity": 0.3228346456692913,
                    "duration": 0.12462600000000634
                },
                {
                    "name": "D5",
                    "midi": 74,
                    "time": 108.05074199999991,
                    "velocity": 0.31496062992125984,
                    "duration": 0.12462600000000634
                },
                {
                    "name": "A#4",
                    "midi": 70,
                    "time": 108.17536799999992,
                    "velocity": 0.30708661417322836,
                    "duration": 0.12462600000000634
                },
                {
                    "name": "B4",
                    "midi": 71,
                    "time": 108.29999399999993,
                    "velocity": 0.30708661417322836,
                    "duration": 0.12462600000000634
                },
                {
                    "name": "C#5",
                    "midi": 73,
                    "time": 108.42461999999993,
                    "velocity": 0.30708661417322836,
                    "duration": 0.12462600000000634
                },
                {
                    "name": "D5",
                    "midi": 74,
                    "time": 108.54924599999994,
                    "velocity": 0.2992125984251969,
                    "duration": 0.12462600000000634
                },
                {
                    "name": "A#4",
                    "midi": 70,
                    "time": 108.67387199999995,
                    "velocity": 0.29133858267716534,
                    "duration": 0.12462600000000634
                },
                {
                    "name": "B4",
                    "midi": 71,
                    "time": 108.79849799999995,
                    "velocity": 0.29133858267716534,
                    "duration": 0.12462600000000634
                },
                {
                    "name": "C#5",
                    "midi": 73,
                    "time": 108.92312399999996,
                    "velocity": 0.28346456692913385,
                    "duration": 0.12462600000000634
                },
                {
                    "name": "D5",
                    "midi": 74,
                    "time": 109.04774999999997,
                    "velocity": 0.28346456692913385,
                    "duration": 0.12462600000000634
                },
                {
                    "name": "A#4",
                    "midi": 70,
                    "time": 109.17237599999997,
                    "velocity": 0.2755905511811024,
                    "duration": 0.12462600000000634
                },
                {
                    "name": "B4",
                    "midi": 71,
                    "time": 109.29700199999998,
                    "velocity": 0.2755905511811024,
                    "duration": 0.12462600000000634
                },
                {
                    "name": "C#5",
                    "midi": 73,
                    "time": 109.42162799999998,
                    "velocity": 0.2677165354330709,
                    "duration": 0.12462600000000634
                },
                {
                    "name": "D5",
                    "midi": 74,
                    "time": 109.54625399999999,
                    "velocity": 0.2677165354330709,
                    "duration": 0.12462600000000634
                },
                {
                    "name": "E5",
                    "midi": 76,
                    "time": 109.795506,
                    "velocity": 0.28346456692913385,
                    "duration": 0.09346949999999765
                },
                {
                    "name": "F5",
                    "midi": 77,
                    "time": 110.044758,
                    "velocity": 0.23622047244094488,
                    "duration": 0.09346949999999765
                },
                {
                    "name": "G5",
                    "midi": 79,
                    "time": 110.29401,
                    "velocity": 0.23622047244094488,
                    "duration": 0.09346949999999765
                },
                {
                    "name": "A5",
                    "midi": 81,
                    "time": 110.543262,
                    "velocity": 0.23622047244094488,
                    "duration": 0.09346949999999765
                },
                {
                    "name": "D5",
                    "midi": 74,
                    "time": 110.792514,
                    "velocity": 0.28346456692913385,
                    "duration": 0.09346949999999765
                },
                {
                    "name": "E5",
                    "midi": 76,
                    "time": 111.041766,
                    "velocity": 0.2283464566929134,
                    "duration": 0.09346949999999765
                },
                {
                    "name": "F5",
                    "midi": 77,
                    "time": 111.291018,
                    "velocity": 0.2283464566929134,
                    "duration": 0.09346949999999765
                },
                {
                    "name": "G5",
                    "midi": 79,
                    "time": 111.54026999999999,
                    "velocity": 0.2283464566929134,
                    "duration": 0.09346949999999765
                },
                {
                    "name": "E5",
                    "midi": 76,
                    "time": 111.78952199999999,
                    "velocity": 0.28346456692913385,
                    "duration": 0.09346949999999765
                },
                {
                    "name": "F5",
                    "midi": 77,
                    "time": 112.03877399999999,
                    "velocity": 0.23622047244094488,
                    "duration": 0.09346949999999765
                },
                {
                    "name": "G5",
                    "midi": 79,
                    "time": 112.28802599999999,
                    "velocity": 0.23622047244094488,
                    "duration": 0.09346949999999765
                },
                {
                    "name": "A5",
                    "midi": 81,
                    "time": 112.53727799999999,
                    "velocity": 0.23622047244094488,
                    "duration": 0.09346949999999765
                },
                {
                    "name": "D5",
                    "midi": 74,
                    "time": 112.78652999999998,
                    "velocity": 0.28346456692913385,
                    "duration": 0.09346949999999765
                },
                {
                    "name": "E5",
                    "midi": 76,
                    "time": 113.03578199999998,
                    "velocity": 0.2283464566929134,
                    "duration": 0.09346949999999765
                },
                {
                    "name": "F5",
                    "midi": 77,
                    "time": 113.28503399999998,
                    "velocity": 0.2283464566929134,
                    "duration": 0.09346949999999765
                },
                {
                    "name": "G5",
                    "midi": 79,
                    "time": 113.53428599999998,
                    "velocity": 0.2283464566929134,
                    "duration": 0.09346949999999765
                },
                {
                    "name": "E5",
                    "midi": 76,
                    "time": 113.78353799999998,
                    "velocity": 0.28346456692913385,
                    "duration": 0.09346949999999765
                },
                {
                    "name": "F5",
                    "midi": 77,
                    "time": 114.03278999999998,
                    "velocity": 0.23622047244094488,
                    "duration": 0.09346949999999765
                },
                {
                    "name": "D5",
                    "midi": 74,
                    "time": 114.28204199999998,
                    "velocity": 0.23622047244094488,
                    "duration": 0.09346949999999765
                },
                {
                    "name": "E5",
                    "midi": 76,
                    "time": 114.53129399999997,
                    "velocity": 0.23622047244094488,
                    "duration": 0.09346949999999765
                },
                {
                    "name": "C5",
                    "midi": 72,
                    "time": 114.78054599999997,
                    "velocity": 0.28346456692913385,
                    "duration": 0.09346949999999765
                },
                {
                    "name": "D5",
                    "midi": 74,
                    "time": 115.02979799999997,
                    "velocity": 0.2283464566929134,
                    "duration": 0.09346949999999765
                },
                {
                    "name": "A#4",
                    "midi": 70,
                    "time": 115.27904999999997,
                    "velocity": 0.2283464566929134,
                    "duration": 0.09346949999999765
                },
                {
                    "name": "C5",
                    "midi": 72,
                    "time": 115.52830199999997,
                    "velocity": 0.2283464566929134,
                    "duration": 0.09346949999999765
                },
                {
                    "name": "E5",
                    "midi": 76,
                    "time": 115.77755399999997,
                    "velocity": 0.28346456692913385,
                    "duration": 0.09346949999999765
                },
                {
                    "name": "F5",
                    "midi": 77,
                    "time": 116.02680599999997,
                    "velocity": 0.23622047244094488,
                    "duration": 0.09346949999999765
                },
                {
                    "name": "D5",
                    "midi": 74,
                    "time": 116.27605799999996,
                    "velocity": 0.23622047244094488,
                    "duration": 0.09346949999999765
                },
                {
                    "name": "E5",
                    "midi": 76,
                    "time": 116.52530999999996,
                    "velocity": 0.23622047244094488,
                    "duration": 0.09346949999999765
                },
                {
                    "name": "C5",
                    "midi": 72,
                    "time": 116.77456199999996,
                    "velocity": 0.28346456692913385,
                    "duration": 0.09346949999999765
                },
                {
                    "name": "D5",
                    "midi": 74,
                    "time": 117.02381399999996,
                    "velocity": 0.2283464566929134,
                    "duration": 0.09346949999999765
                },
                {
                    "name": "E5",
                    "midi": 76,
                    "time": 117.27306599999996,
                    "velocity": 0.2283464566929134,
                    "duration": 0.09346949999999765
                },
                {
                    "name": "F5",
                    "midi": 77,
                    "time": 117.52231799999996,
                    "velocity": 0.2283464566929134,
                    "duration": 0.09346949999999765
                },
                {
                    "name": "F5",
                    "midi": 77,
                    "time": 117.77156999999995,
                    "velocity": 0.29133858267716534,
                    "duration": 0.12462600000000634
                },
                {
                    "name": "E5",
                    "midi": 76,
                    "time": 118.02082199999997,
                    "velocity": 0.2677165354330709,
                    "duration": 0.12462600000000634
                },
                {
                    "name": "F5",
                    "midi": 77,
                    "time": 118.27007399999998,
                    "velocity": 0.2992125984251969,
                    "duration": 0.12462600000000634
                },
                {
                    "name": "E5",
                    "midi": 76,
                    "time": 118.51932599999999,
                    "velocity": 0.28346456692913385,
                    "duration": 0.12462600000000634
                },
                {
                    "name": "F5",
                    "midi": 77,
                    "time": 118.768578,
                    "velocity": 0.30708661417322836,
                    "duration": 0.12462600000000634
                },
                {
                    "name": "E5",
                    "midi": 76,
                    "time": 119.01783000000002,
                    "velocity": 0.29133858267716534,
                    "duration": 0.12462600000000634
                },
                {
                    "name": "F5",
                    "midi": 77,
                    "time": 119.26708200000003,
                    "velocity": 0.3228346456692913,
                    "duration": 0.12462600000000634
                },
                {
                    "name": "E5",
                    "midi": 76,
                    "time": 119.51633400000004,
                    "velocity": 0.2992125984251969,
                    "duration": 0.12462600000000634
                },
                {
                    "name": "F5",
                    "midi": 77,
                    "time": 119.76558600000006,
                    "velocity": 0.33070866141732286,
                    "duration": 0.12462600000000634
                },
                {
                    "name": "E5",
                    "midi": 76,
                    "time": 120.01483800000007,
                    "velocity": 0.2992125984251969,
                    "duration": 0.12462600000000634
                },
                {
                    "name": "F5",
                    "midi": 77,
                    "time": 120.26409000000008,
                    "velocity": 0.3228346456692913,
                    "duration": 0.12462600000000634
                },
                {
                    "name": "E5",
                    "midi": 76,
                    "time": 120.5133420000001,
                    "velocity": 0.29133858267716534,
                    "duration": 0.12462600000000634
                },
                {
                    "name": "F5",
                    "midi": 77,
                    "time": 120.7625940000001,
                    "velocity": 0.31496062992125984,
                    "duration": 0.12462600000000634
                },
                {
                    "name": "E5",
                    "midi": 76,
                    "time": 121.01184600000012,
                    "velocity": 0.29133858267716534,
                    "duration": 0.12462600000000634
                },
                {
                    "name": "F5",
                    "midi": 77,
                    "time": 121.26109800000013,
                    "velocity": 0.30708661417322836,
                    "duration": 0.12462600000000634
                },
                {
                    "name": "E5",
                    "midi": 76,
                    "time": 121.51035000000014,
                    "velocity": 0.28346456692913385,
                    "duration": 0.12462600000000634
                },
                {
                    "name": "F5",
                    "midi": 77,
                    "time": 121.75960200000016,
                    "velocity": 0.29133858267716534,
                    "duration": 0.12462600000000634
                },
                {
                    "name": "E5",
                    "midi": 76,
                    "time": 122.00885400000017,
                    "velocity": 0.2677165354330709,
                    "duration": 0.12462600000000634
                },
                {
                    "name": "F5",
                    "midi": 77,
                    "time": 122.25810600000018,
                    "velocity": 0.29133858267716534,
                    "duration": 0.12462600000000634
                },
                {
                    "name": "E5",
                    "midi": 76,
                    "time": 122.5073580000002,
                    "velocity": 0.2677165354330709,
                    "duration": 0.12462600000000634
                },
                {
                    "name": "F5",
                    "midi": 77,
                    "time": 122.75661000000021,
                    "velocity": 0.29133858267716534,
                    "duration": 0.12462600000000634
                },
                {
                    "name": "E5",
                    "midi": 76,
                    "time": 123.00586200000022,
                    "velocity": 0.2677165354330709,
                    "duration": 0.12462600000000634
                },
                {
                    "name": "F5",
                    "midi": 77,
                    "time": 123.25511400000023,
                    "velocity": 0.29133858267716534,
                    "duration": 0.12462600000000634
                },
                {
                    "name": "E5",
                    "midi": 76,
                    "time": 123.50436600000025,
                    "velocity": 0.2677165354330709,
                    "duration": 0.12462600000000634
                },
                {
                    "name": "F5",
                    "midi": 77,
                    "time": 123.75361800000026,
                    "velocity": 0.33070866141732286,
                    "duration": 0.12462600000000634
                },
                {
                    "name": "E5",
                    "midi": 76,
                    "time": 124.00287000000027,
                    "velocity": 0.2992125984251969,
                    "duration": 0.12462600000000634
                },
                {
                    "name": "F5",
                    "midi": 77,
                    "time": 124.25212200000028,
                    "velocity": 0.3228346456692913,
                    "duration": 0.12462600000000634
                },
                {
                    "name": "E5",
                    "midi": 76,
                    "time": 124.5013740000003,
                    "velocity": 0.29133858267716534,
                    "duration": 0.12462600000000634
                },
                {
                    "name": "D#5",
                    "midi": 75,
                    "time": 124.75062600000031,
                    "velocity": 0.30708661417322836,
                    "duration": 0.12462600000000634
                },
                {
                    "name": "C#5",
                    "midi": 73,
                    "time": 124.99987800000032,
                    "velocity": 0.2755905511811024,
                    "duration": 0.12462600000000634
                },
                {
                    "name": "D#5",
                    "midi": 75,
                    "time": 125.24913000000033,
                    "velocity": 0.2992125984251969,
                    "duration": 0.12462600000000634
                },
                {
                    "name": "C#5",
                    "midi": 73,
                    "time": 125.49838200000035,
                    "velocity": 0.2677165354330709,
                    "duration": 0.12462600000000634
                },
                {
                    "name": "C5",
                    "midi": 72,
                    "time": 125.74763400000036,
                    "velocity": 0.33070866141732286,
                    "duration": 0.12462600000000634
                },
                {
                    "name": "A#4",
                    "midi": 70,
                    "time": 125.99688600000037,
                    "velocity": 0.2992125984251969,
                    "duration": 0.12462600000000634
                },
                {
                    "name": "C5",
                    "midi": 72,
                    "time": 126.24613800000039,
                    "velocity": 0.3228346456692913,
                    "duration": 0.12462600000000634
                },
                {
                    "name": "A#4",
                    "midi": 70,
                    "time": 126.4953900000004,
                    "velocity": 0.29133858267716534,
                    "duration": 0.12462600000000634
                },
                {
                    "name": "A4",
                    "midi": 69,
                    "time": 126.74464200000041,
                    "velocity": 0.30708661417322836,
                    "duration": 0.12462600000000634
                },
                {
                    "name": "G4",
                    "midi": 67,
                    "time": 126.99389400000042,
                    "velocity": 0.2755905511811024,
                    "duration": 0.12462600000000634
                },
                {
                    "name": "A4",
                    "midi": 69,
                    "time": 127.24314600000044,
                    "velocity": 0.2992125984251969,
                    "duration": 0.12462600000000634
                },
                {
                    "name": "G4",
                    "midi": 67,
                    "time": 127.49239800000045,
                    "velocity": 0.2677165354330709,
                    "duration": 0.12462600000000634
                },
                {
                    "name": "D#4",
                    "midi": 63,
                    "time": 127.74165000000046,
                    "velocity": 0.29133858267716534,
                    "duration": 0.12462600000000634
                },
                {
                    "name": "D#4",
                    "midi": 63,
                    "time": 127.99090200000047,
                    "velocity": 0.2677165354330709,
                    "duration": 0.12462599999999213
                },
                {
                    "name": "D#4",
                    "midi": 63,
                    "time": 128.24015400000047,
                    "velocity": 0.29133858267716534,
                    "duration": 0.12462600000000634
                },
                {
                    "name": "D#4",
                    "midi": 63,
                    "time": 128.48940600000049,
                    "velocity": 0.2677165354330709,
                    "duration": 0.12462600000000634
                },
                {
                    "name": "D#4",
                    "midi": 63,
                    "time": 128.7386580000005,
                    "velocity": 0.29133858267716534,
                    "duration": 0.12462600000000634
                },
                {
                    "name": "D#4",
                    "midi": 63,
                    "time": 128.9879100000005,
                    "velocity": 0.2677165354330709,
                    "duration": 0.12462600000000634
                },
                {
                    "name": "E4",
                    "midi": 64,
                    "time": 129.23716200000052,
                    "velocity": 0.29133858267716534,
                    "duration": 0.12462600000000634
                },
                {
                    "name": "E4",
                    "midi": 64,
                    "time": 129.48641400000054,
                    "velocity": 0.2677165354330709,
                    "duration": 0.12462600000000634
                },
                {
                    "name": "A#5",
                    "midi": 82,
                    "time": 131.85430800000054,
                    "velocity": 0.2755905511811024,
                    "duration": 0.12462600000000634
                },
                {
                    "name": "A5",
                    "midi": 81,
                    "time": 131.97893400000055,
                    "velocity": 0.2755905511811024,
                    "duration": 0.12462600000000634
                },
                {
                    "name": "A#5",
                    "midi": 82,
                    "time": 132.10356000000056,
                    "velocity": 0.31496062992125984,
                    "duration": 0.12462600000000634
                },
                {
                    "name": "F#5",
                    "midi": 78,
                    "time": 132.35281200000057,
                    "velocity": 0.29133858267716534,
                    "duration": 0.12462600000000634
                },
                {
                    "name": "A#5",
                    "midi": 82,
                    "time": 132.47743800000057,
                    "velocity": 0.2440944881889764,
                    "duration": 0.12462600000000634
                },
                {
                    "name": "A5",
                    "midi": 81,
                    "time": 132.60206400000058,
                    "velocity": 0.2992125984251969,
                    "duration": 0.12462600000000634
                },
                {
                    "name": "A#5",
                    "midi": 82,
                    "time": 132.7266900000006,
                    "velocity": 0.3228346456692913,
                    "duration": 0.12462600000000634
                },
                {
                    "name": "C6",
                    "midi": 84,
                    "time": 132.8513160000006,
                    "velocity": 0.36220472440944884,
                    "duration": 0.6231300000000033
                },
                {
                    "name": "C#6",
                    "midi": 85,
                    "time": 133.4744460000006,
                    "velocity": 0.33070866141732286,
                    "duration": 0.12462600000000634
                },
                {
                    "name": "D6",
                    "midi": 86,
                    "time": 133.5990720000006,
                    "velocity": 0.4015748031496063,
                    "duration": 0.3738779999999906
                },
                {
                    "name": "D#6",
                    "midi": 87,
                    "time": 133.9729500000006,
                    "velocity": 0.4015748031496063,
                    "duration": 0.12462600000000634
                },
                {
                    "name": "E6",
                    "midi": 88,
                    "time": 134.0975760000006,
                    "velocity": 0.44881889763779526,
                    "duration": 0.8723819999999876
                },
                {
                    "name": "F6",
                    "midi": 89,
                    "time": 134.9699580000006,
                    "velocity": 0.3858267716535433,
                    "duration": 0.12462600000000634
                },
                {
                    "name": "F#6",
                    "midi": 90,
                    "time": 135.0945840000006,
                    "velocity": 0.44881889763779526,
                    "duration": 0.3738779999999906
                },
                {
                    "name": "G#6",
                    "midi": 92,
                    "time": 135.46846200000059,
                    "velocity": 0.36220472440944884,
                    "duration": 0.12462600000000634
                },
                {
                    "name": "A6",
                    "midi": 93,
                    "time": 135.5930880000006,
                    "velocity": 0.25196850393700787,
                    "duration": 0.12462600000000634
                },
                {
                    "name": "A#6",
                    "midi": 94,
                    "time": 135.7177140000006,
                    "velocity": 0.2125984251968504,
                    "duration": 0.12462600000000634
                },
                {
                    "name": "A6",
                    "midi": 93,
                    "time": 135.8423400000006,
                    "velocity": 0.25196850393700787,
                    "duration": 0.12462600000000634
                },
                {
                    "name": "A#6",
                    "midi": 94,
                    "time": 135.9669660000006,
                    "velocity": 0.2204724409448819,
                    "duration": 0.12462600000000634
                },
                {
                    "name": "A6",
                    "midi": 93,
                    "time": 136.09159200000062,
                    "velocity": 0.25196850393700787,
                    "duration": 0.12462600000000634
                },
                {
                    "name": "A#6",
                    "midi": 94,
                    "time": 136.21621800000062,
                    "velocity": 0.2283464566929134,
                    "duration": 0.12462600000000634
                },
                {
                    "name": "A6",
                    "midi": 93,
                    "time": 136.34084400000063,
                    "velocity": 0.25196850393700787,
                    "duration": 0.12462600000000634
                },
                {
                    "name": "A#6",
                    "midi": 94,
                    "time": 136.46547000000064,
                    "velocity": 0.2204724409448819,
                    "duration": 0.12462600000000634
                },
                {
                    "name": "A6",
                    "midi": 93,
                    "time": 136.59009600000064,
                    "velocity": 0.25196850393700787,
                    "duration": 0.12462600000000634
                },
                {
                    "name": "B6",
                    "midi": 95,
                    "time": 136.71472200000065,
                    "velocity": 0.2283464566929134,
                    "duration": 0.12462600000000634
                },
                {
                    "name": "A6",
                    "midi": 93,
                    "time": 136.83934800000065,
                    "velocity": 0.25196850393700787,
                    "duration": 0.12462600000000634
                },
                {
                    "name": "B6",
                    "midi": 95,
                    "time": 136.96397400000066,
                    "velocity": 0.2204724409448819,
                    "duration": 0.12462600000000634
                },
                {
                    "name": "A6",
                    "midi": 93,
                    "time": 137.08860000000067,
                    "velocity": 0.25196850393700787,
                    "duration": 0.12462600000000634
                },
                {
                    "name": "B6",
                    "midi": 95,
                    "time": 137.21322600000067,
                    "velocity": 0.2204724409448819,
                    "duration": 0.12462600000000634
                },
                {
                    "name": "A6",
                    "midi": 93,
                    "time": 137.33785200000068,
                    "velocity": 0.25196850393700787,
                    "duration": 0.12462600000000634
                },
                {
                    "name": "B6",
                    "midi": 95,
                    "time": 137.4624780000007,
                    "velocity": 0.2204724409448819,
                    "duration": 0.12462600000000634
                },
                {
                    "name": "A6",
                    "midi": 93,
                    "time": 137.5871040000007,
                    "velocity": 0.25196850393700787,
                    "duration": 0.12462600000000634
                },
                {
                    "name": "A#6",
                    "midi": 94,
                    "time": 137.7117300000007,
                    "velocity": 0.2125984251968504,
                    "duration": 0.12462600000000634
                },
                {
                    "name": "A6",
                    "midi": 93,
                    "time": 137.8363560000007,
                    "velocity": 0.25196850393700787,
                    "duration": 0.12462600000000634
                },
                {
                    "name": "A#6",
                    "midi": 94,
                    "time": 137.9609820000007,
                    "velocity": 0.2204724409448819,
                    "duration": 0.12462600000000634
                },
                {
                    "name": "A6",
                    "midi": 93,
                    "time": 138.08560800000072,
                    "velocity": 0.25196850393700787,
                    "duration": 0.12462600000000634
                },
                {
                    "name": "A#6",
                    "midi": 94,
                    "time": 138.21023400000072,
                    "velocity": 0.2283464566929134,
                    "duration": 0.12462600000000634
                },
                {
                    "name": "A6",
                    "midi": 93,
                    "time": 138.33486000000073,
                    "velocity": 0.25196850393700787,
                    "duration": 0.12462600000000634
                },
                {
                    "name": "A#6",
                    "midi": 94,
                    "time": 138.45948600000074,
                    "velocity": 0.2204724409448819,
                    "duration": 0.12462600000000634
                },
                {
                    "name": "A6",
                    "midi": 93,
                    "time": 138.58411200000074,
                    "velocity": 0.25196850393700787,
                    "duration": 0.12462600000000634
                },
                {
                    "name": "B6",
                    "midi": 95,
                    "time": 138.70873800000075,
                    "velocity": 0.2283464566929134,
                    "duration": 0.12462600000000634
                },
                {
                    "name": "A6",
                    "midi": 93,
                    "time": 138.83336400000076,
                    "velocity": 0.25196850393700787,
                    "duration": 0.12462600000000634
                },
                {
                    "name": "B6",
                    "midi": 95,
                    "time": 138.95799000000076,
                    "velocity": 0.2204724409448819,
                    "duration": 0.12462600000000634
                },
                {
                    "name": "A6",
                    "midi": 93,
                    "time": 139.08261600000077,
                    "velocity": 0.25196850393700787,
                    "duration": 0.12462600000000634
                },
                {
                    "name": "B6",
                    "midi": 95,
                    "time": 139.20724200000078,
                    "velocity": 0.2204724409448819,
                    "duration": 0.12462600000000634
                },
                {
                    "name": "A6",
                    "midi": 93,
                    "time": 139.33186800000078,
                    "velocity": 0.25196850393700787,
                    "duration": 0.12462600000000634
                },
                {
                    "name": "B6",
                    "midi": 95,
                    "time": 139.4564940000008,
                    "velocity": 0.2204724409448819,
                    "duration": 0.12462600000000634
                },
                {
                    "name": "A6",
                    "midi": 93,
                    "time": 139.5811200000008,
                    "velocity": 0.25196850393700787,
                    "duration": 0.12462600000000634
                },
                {
                    "name": "A#6",
                    "midi": 94,
                    "time": 139.7057460000008,
                    "velocity": 0.2125984251968504,
                    "duration": 0.12462600000000634
                },
                {
                    "name": "A6",
                    "midi": 93,
                    "time": 139.8303720000008,
                    "velocity": 0.25196850393700787,
                    "duration": 0.12462600000000634
                },
                {
                    "name": "B6",
                    "midi": 95,
                    "time": 139.9549980000008,
                    "velocity": 0.2204724409448819,
                    "duration": 0.12462600000000634
                },
                {
                    "name": "A6",
                    "midi": 93,
                    "time": 140.07962400000082,
                    "velocity": 0.25196850393700787,
                    "duration": 0.12462600000000634
                },
                {
                    "name": "A#6",
                    "midi": 94,
                    "time": 140.20425000000083,
                    "velocity": 0.2283464566929134,
                    "duration": 0.12462600000000634
                },
                {
                    "name": "A6",
                    "midi": 93,
                    "time": 140.32887600000083,
                    "velocity": 0.25196850393700787,
                    "duration": 0.12462600000000634
                },
                {
                    "name": "B6",
                    "midi": 95,
                    "time": 140.45350200000084,
                    "velocity": 0.2204724409448819,
                    "duration": 0.12462600000000634
                },
                {
                    "name": "A6",
                    "midi": 93,
                    "time": 140.57812800000085,
                    "velocity": 0.25196850393700787,
                    "duration": 0.12462600000000634
                },
                {
                    "name": "A#6",
                    "midi": 94,
                    "time": 140.70275400000085,
                    "velocity": 0.2283464566929134,
                    "duration": 0.12462600000000634
                },
                {
                    "name": "A6",
                    "midi": 93,
                    "time": 140.82738000000086,
                    "velocity": 0.25196850393700787,
                    "duration": 0.12462600000000634
                },
                {
                    "name": "B6",
                    "midi": 95,
                    "time": 140.95200600000086,
                    "velocity": 0.2204724409448819,
                    "duration": 0.12462600000000634
                },
                {
                    "name": "A6",
                    "midi": 93,
                    "time": 141.07663200000087,
                    "velocity": 0.25196850393700787,
                    "duration": 0.12462600000000634
                },
                {
                    "name": "A#6",
                    "midi": 94,
                    "time": 141.20125800000088,
                    "velocity": 0.2204724409448819,
                    "duration": 0.12462600000000634
                },
                {
                    "name": "A6",
                    "midi": 93,
                    "time": 141.32588400000088,
                    "velocity": 0.25196850393700787,
                    "duration": 0.12462600000000634
                },
                {
                    "name": "B6",
                    "midi": 95,
                    "time": 141.4505100000009,
                    "velocity": 0.2204724409448819,
                    "duration": 0.12462600000000634
                },
                {
                    "name": "A6",
                    "midi": 93,
                    "time": 141.5751360000009,
                    "velocity": 0.25196850393700787,
                    "duration": 0.12462600000000634
                },
                {
                    "name": "A#6",
                    "midi": 94,
                    "time": 141.6997620000009,
                    "velocity": 0.2125984251968504,
                    "duration": 0.12462600000000634
                },
                {
                    "name": "A6",
                    "midi": 93,
                    "time": 141.8243880000009,
                    "velocity": 0.25196850393700787,
                    "duration": 0.12462600000000634
                },
                {
                    "name": "B6",
                    "midi": 95,
                    "time": 141.94901400000091,
                    "velocity": 0.2204724409448819,
                    "duration": 0.12462600000000634
                },
                {
                    "name": "A6",
                    "midi": 93,
                    "time": 142.07364000000092,
                    "velocity": 0.25196850393700787,
                    "duration": 0.12462600000000634
                },
                {
                    "name": "A#6",
                    "midi": 94,
                    "time": 142.19826600000093,
                    "velocity": 0.2283464566929134,
                    "duration": 0.12462600000000634
                },
                {
                    "name": "A6",
                    "midi": 93,
                    "time": 142.32289200000093,
                    "velocity": 0.25196850393700787,
                    "duration": 0.12462600000000634
                },
                {
                    "name": "B6",
                    "midi": 95,
                    "time": 142.44751800000094,
                    "velocity": 0.2204724409448819,
                    "duration": 0.12462600000000634
                },
                {
                    "name": "A6",
                    "midi": 93,
                    "time": 142.57214400000095,
                    "velocity": 0.25196850393700787,
                    "duration": 0.12462600000000634
                },
                {
                    "name": "A#6",
                    "midi": 94,
                    "time": 142.69677000000095,
                    "velocity": 0.2283464566929134,
                    "duration": 0.12462600000000634
                },
                {
                    "name": "A6",
                    "midi": 93,
                    "time": 142.82139600000096,
                    "velocity": 0.25196850393700787,
                    "duration": 0.12462600000000634
                },
                {
                    "name": "B6",
                    "midi": 95,
                    "time": 142.94602200000097,
                    "velocity": 0.2204724409448819,
                    "duration": 0.12462600000000634
                },
                {
                    "name": "A6",
                    "midi": 93,
                    "time": 143.07064800000097,
                    "velocity": 0.25196850393700787,
                    "duration": 0.12462600000000634
                },
                {
                    "name": "A#6",
                    "midi": 94,
                    "time": 143.19527400000098,
                    "velocity": 0.2204724409448819,
                    "duration": 0.12462600000000634
                },
                {
                    "name": "A6",
                    "midi": 93,
                    "time": 143.31990000000098,
                    "velocity": 0.25196850393700787,
                    "duration": 0.12462600000000634
                },
                {
                    "name": "B6",
                    "midi": 95,
                    "time": 143.444526000001,
                    "velocity": 0.2204724409448819,
                    "duration": 0.12462600000000634
                },
                {
                    "name": "A6",
                    "midi": 93,
                    "time": 143.631465000001,
                    "velocity": 0.23622047244094488,
                    "duration": 1.9317029999999704
                },
                {
                    "name": "D7",
                    "midi": 98,
                    "time": 143.69377800000098,
                    "velocity": 0.28346456692913385,
                    "duration": 1.8693899999999815
                },
                {
                    "name": "A7",
                    "midi": 105,
                    "time": 143.75609100000096,
                    "velocity": 0.31496062992125984,
                    "duration": 1.8070769999999925
                }
            ],
            "controlChanges": {},
            "id": 1,
            "name": "Piano right",
            "instrumentNumber": 0,
            "instrument": "acoustic grand piano",
            "instrumentFamily": "piano",
            "channelNumber": 0,
            "isPercussion": false
        },
        {
            "startTime": 1.994016,
            "duration": 145.56316800000204,
            "length": 723,
            "notes": [
                {
                    "name": "E4",
                    "midi": 64,
                    "time": 1.994016,
                    "velocity": 0.25984251968503935,
                    "duration": 0.0934695000000001
                },
                {
                    "name": "F4",
                    "midi": 65,
                    "time": 2.243268,
                    "velocity": 0.2283464566929134,
                    "duration": 0.09346949999999987
                },
                {
                    "name": "G4",
                    "midi": 67,
                    "time": 2.49252,
                    "velocity": 0.2283464566929134,
                    "duration": 0.09346949999999987
                },
                {
                    "name": "A4",
                    "midi": 69,
                    "time": 2.7417719999999997,
                    "velocity": 0.2283464566929134,
                    "duration": 0.09346949999999987
                },
                {
                    "name": "E4",
                    "midi": 64,
                    "time": 2.9910239999999995,
                    "velocity": 0.25984251968503935,
                    "duration": 0.09346949999999987
                },
                {
                    "name": "F4",
                    "midi": 65,
                    "time": 3.2402759999999993,
                    "velocity": 0.23622047244094488,
                    "duration": 0.09346949999999987
                },
                {
                    "name": "G4",
                    "midi": 67,
                    "time": 3.489527999999999,
                    "velocity": 0.23622047244094488,
                    "duration": 0.09346949999999987
                },
                {
                    "name": "A4",
                    "midi": 69,
                    "time": 3.738779999999999,
                    "velocity": 0.23622047244094488,
                    "duration": 0.09346949999999987
                },
                {
                    "name": "A#4",
                    "midi": 70,
                    "time": 3.9880319999999987,
                    "velocity": 0.3543307086614173,
                    "duration": 1.994016000000002
                },
                {
                    "name": "E4",
                    "midi": 64,
                    "time": 3.9880319999999987,
                    "velocity": 0.29133858267716534,
                    "duration": 0.09346950000000032
                },
                {
                    "name": "F4",
                    "midi": 65,
                    "time": 4.237283999999999,
                    "velocity": 0.25984251968503935,
                    "duration": 0.09346950000000032
                },
                {
                    "name": "G4",
                    "midi": 67,
                    "time": 4.486535999999999,
                    "velocity": 0.25984251968503935,
                    "duration": 0.09346950000000032
                },
                {
                    "name": "A4",
                    "midi": 69,
                    "time": 4.735787999999999,
                    "velocity": 0.25984251968503935,
                    "duration": 0.09346950000000032
                },
                {
                    "name": "E4",
                    "midi": 64,
                    "time": 4.98504,
                    "velocity": 0.29133858267716534,
                    "duration": 0.09346950000000032
                },
                {
                    "name": "F4",
                    "midi": 65,
                    "time": 5.234292,
                    "velocity": 0.2677165354330709,
                    "duration": 0.09346950000000032
                },
                {
                    "name": "G4",
                    "midi": 67,
                    "time": 5.483544,
                    "velocity": 0.2677165354330709,
                    "duration": 0.09346950000000032
                },
                {
                    "name": "A4",
                    "midi": 69,
                    "time": 5.7327960000000004,
                    "velocity": 0.2677165354330709,
                    "duration": 0.09346950000000032
                },
                {
                    "name": "C5",
                    "midi": 72,
                    "time": 5.982048000000001,
                    "velocity": 0.3543307086614173,
                    "duration": 1.994016000000002
                },
                {
                    "name": "E4",
                    "midi": 64,
                    "time": 5.982048000000001,
                    "velocity": 0.29133858267716534,
                    "duration": 0.09346950000000032
                },
                {
                    "name": "F4",
                    "midi": 65,
                    "time": 6.231300000000001,
                    "velocity": 0.25984251968503935,
                    "duration": 0.09346950000000032
                },
                {
                    "name": "G4",
                    "midi": 67,
                    "time": 6.480552000000001,
                    "velocity": 0.25984251968503935,
                    "duration": 0.09346950000000032
                },
                {
                    "name": "A4",
                    "midi": 69,
                    "time": 6.7298040000000015,
                    "velocity": 0.25984251968503935,
                    "duration": 0.09346950000000032
                },
                {
                    "name": "E4",
                    "midi": 64,
                    "time": 6.979056000000002,
                    "velocity": 0.29133858267716534,
                    "duration": 0.09346950000000032
                },
                {
                    "name": "F4",
                    "midi": 65,
                    "time": 7.228308000000002,
                    "velocity": 0.2677165354330709,
                    "duration": 0.09346950000000032
                },
                {
                    "name": "G4",
                    "midi": 67,
                    "time": 7.477560000000002,
                    "velocity": 0.2677165354330709,
                    "duration": 0.09346950000000032
                },
                {
                    "name": "A4",
                    "midi": 69,
                    "time": 7.7268120000000025,
                    "velocity": 0.2677165354330709,
                    "duration": 0.09346950000000032
                },
                {
                    "name": "A#4",
                    "midi": 70,
                    "time": 7.976064000000003,
                    "velocity": 0.3543307086614173,
                    "duration": 1.994016000000002
                },
                {
                    "name": "E4",
                    "midi": 64,
                    "time": 7.976064000000003,
                    "velocity": 0.29133858267716534,
                    "duration": 0.09346949999999943
                },
                {
                    "name": "F4",
                    "midi": 65,
                    "time": 8.225316000000003,
                    "velocity": 0.25984251968503935,
                    "duration": 0.09346949999999943
                },
                {
                    "name": "G4",
                    "midi": 67,
                    "time": 8.474568000000003,
                    "velocity": 0.25984251968503935,
                    "duration": 0.09346949999999943
                },
                {
                    "name": "A4",
                    "midi": 69,
                    "time": 8.723820000000003,
                    "velocity": 0.25984251968503935,
                    "duration": 0.09346949999999943
                },
                {
                    "name": "E4",
                    "midi": 64,
                    "time": 8.973072000000004,
                    "velocity": 0.29133858267716534,
                    "duration": 0.09346949999999943
                },
                {
                    "name": "F4",
                    "midi": 65,
                    "time": 9.222324000000004,
                    "velocity": 0.2677165354330709,
                    "duration": 0.09346949999999943
                },
                {
                    "name": "G4",
                    "midi": 67,
                    "time": 9.471576000000004,
                    "velocity": 0.2677165354330709,
                    "duration": 0.09346949999999943
                },
                {
                    "name": "A4",
                    "midi": 69,
                    "time": 9.720828000000004,
                    "velocity": 0.2677165354330709,
                    "duration": 0.09346949999999943
                },
                {
                    "name": "C#5",
                    "midi": 73,
                    "time": 9.970080000000005,
                    "velocity": 0.3543307086614173,
                    "duration": 1.994016000000002
                },
                {
                    "name": "E4",
                    "midi": 64,
                    "time": 9.970080000000005,
                    "velocity": 0.29133858267716534,
                    "duration": 0.09346949999999943
                },
                {
                    "name": "F4",
                    "midi": 65,
                    "time": 10.219332000000005,
                    "velocity": 0.25984251968503935,
                    "duration": 0.09346949999999943
                },
                {
                    "name": "G4",
                    "midi": 67,
                    "time": 10.468584000000005,
                    "velocity": 0.25984251968503935,
                    "duration": 0.09346949999999943
                },
                {
                    "name": "A4",
                    "midi": 69,
                    "time": 10.717836000000005,
                    "velocity": 0.25984251968503935,
                    "duration": 0.09346949999999943
                },
                {
                    "name": "E4",
                    "midi": 64,
                    "time": 10.967088000000006,
                    "velocity": 0.29133858267716534,
                    "duration": 0.09346949999999943
                },
                {
                    "name": "F4",
                    "midi": 65,
                    "time": 11.216340000000006,
                    "velocity": 0.2677165354330709,
                    "duration": 0.09346949999999943
                },
                {
                    "name": "G4",
                    "midi": 67,
                    "time": 11.465592000000006,
                    "velocity": 0.2677165354330709,
                    "duration": 0.09346949999999943
                },
                {
                    "name": "A4",
                    "midi": 69,
                    "time": 11.714844000000006,
                    "velocity": 0.2677165354330709,
                    "duration": 0.09346949999999943
                },
                {
                    "name": "D5",
                    "midi": 74,
                    "time": 11.964096000000007,
                    "velocity": 0.30708661417322836,
                    "duration": 0.09346949999999943
                },
                {
                    "name": "D4",
                    "midi": 62,
                    "time": 11.964096000000007,
                    "velocity": 0.30708661417322836,
                    "duration": 1.994016000000002
                },
                {
                    "name": "C5",
                    "midi": 72,
                    "time": 12.213348000000007,
                    "velocity": 0.2283464566929134,
                    "duration": 0.09346949999999943
                },
                {
                    "name": "A#4",
                    "midi": 70,
                    "time": 12.462600000000007,
                    "velocity": 0.2283464566929134,
                    "duration": 0.09346949999999943
                },
                {
                    "name": "A4",
                    "midi": 69,
                    "time": 12.711852000000007,
                    "velocity": 0.2283464566929134,
                    "duration": 0.09346949999999943
                },
                {
                    "name": "C5",
                    "midi": 72,
                    "time": 12.961104000000008,
                    "velocity": 0.28346456692913385,
                    "duration": 0.09346949999999943
                },
                {
                    "name": "A#4",
                    "midi": 70,
                    "time": 13.210356000000008,
                    "velocity": 0.23622047244094488,
                    "duration": 0.09346949999999943
                },
                {
                    "name": "A4",
                    "midi": 69,
                    "time": 13.459608000000008,
                    "velocity": 0.23622047244094488,
                    "duration": 0.09346949999999943
                },
                {
                    "name": "G4",
                    "midi": 67,
                    "time": 13.708860000000008,
                    "velocity": 0.23622047244094488,
                    "duration": 0.09346949999999943
                },
                {
                    "name": "D4",
                    "midi": 62,
                    "time": 13.958112000000009,
                    "velocity": 0.31496062992125984,
                    "duration": 1.994016000000002
                },
                {
                    "name": "D5",
                    "midi": 74,
                    "time": 13.958112000000009,
                    "velocity": 0.25984251968503935,
                    "duration": 0.09346949999999943
                },
                {
                    "name": "C5",
                    "midi": 72,
                    "time": 14.207364000000009,
                    "velocity": 0.2283464566929134,
                    "duration": 0.09346949999999943
                },
                {
                    "name": "A#4",
                    "midi": 70,
                    "time": 14.45661600000001,
                    "velocity": 0.2283464566929134,
                    "duration": 0.09346949999999943
                },
                {
                    "name": "A4",
                    "midi": 69,
                    "time": 14.70586800000001,
                    "velocity": 0.2283464566929134,
                    "duration": 0.09346949999999943
                },
                {
                    "name": "C5",
                    "midi": 72,
                    "time": 14.95512000000001,
                    "velocity": 0.25984251968503935,
                    "duration": 0.09346949999999943
                },
                {
                    "name": "A#4",
                    "midi": 70,
                    "time": 15.20437200000001,
                    "velocity": 0.23622047244094488,
                    "duration": 0.09346949999999943
                },
                {
                    "name": "A4",
                    "midi": 69,
                    "time": 15.45362400000001,
                    "velocity": 0.23622047244094488,
                    "duration": 0.09346949999999943
                },
                {
                    "name": "G4",
                    "midi": 67,
                    "time": 15.70287600000001,
                    "velocity": 0.23622047244094488,
                    "duration": 0.09346949999999943
                },
                {
                    "name": "D4",
                    "midi": 62,
                    "time": 15.95212800000001,
                    "velocity": 0.31496062992125984,
                    "duration": 1.9940160000000144
                },
                {
                    "name": "A4",
                    "midi": 69,
                    "time": 15.95212800000001,
                    "velocity": 0.25984251968503935,
                    "duration": 0.09346949999999943
                },
                {
                    "name": "C5",
                    "midi": 72,
                    "time": 16.20138000000001,
                    "velocity": 0.2283464566929134,
                    "duration": 0.0934695000000012
                },
                {
                    "name": "A#4",
                    "midi": 70,
                    "time": 16.450632000000013,
                    "velocity": 0.2283464566929134,
                    "duration": 0.0934695000000012
                },
                {
                    "name": "G4",
                    "midi": 67,
                    "time": 16.699884000000015,
                    "velocity": 0.2283464566929134,
                    "duration": 0.0934695000000012
                },
                {
                    "name": "A4",
                    "midi": 69,
                    "time": 16.949136000000017,
                    "velocity": 0.25984251968503935,
                    "duration": 0.0934695000000012
                },
                {
                    "name": "F4",
                    "midi": 65,
                    "time": 17.19838800000002,
                    "velocity": 0.23622047244094488,
                    "duration": 0.0934695000000012
                },
                {
                    "name": "G4",
                    "midi": 67,
                    "time": 17.44764000000002,
                    "velocity": 0.23622047244094488,
                    "duration": 0.0934695000000012
                },
                {
                    "name": "E4",
                    "midi": 64,
                    "time": 17.696892000000023,
                    "velocity": 0.23622047244094488,
                    "duration": 0.0934695000000012
                },
                {
                    "name": "D4",
                    "midi": 62,
                    "time": 17.946144000000025,
                    "velocity": 0.31496062992125984,
                    "duration": 1.9940160000000162
                },
                {
                    "name": "A4",
                    "midi": 69,
                    "time": 17.946144000000025,
                    "velocity": 0.25984251968503935,
                    "duration": 0.0934695000000012
                },
                {
                    "name": "C5",
                    "midi": 72,
                    "time": 18.195396000000027,
                    "velocity": 0.2283464566929134,
                    "duration": 0.0934695000000012
                },
                {
                    "name": "A#4",
                    "midi": 70,
                    "time": 18.44464800000003,
                    "velocity": 0.2283464566929134,
                    "duration": 0.0934695000000012
                },
                {
                    "name": "G4",
                    "midi": 67,
                    "time": 18.69390000000003,
                    "velocity": 0.2283464566929134,
                    "duration": 0.0934695000000012
                },
                {
                    "name": "A4",
                    "midi": 69,
                    "time": 18.943152000000033,
                    "velocity": 0.25984251968503935,
                    "duration": 0.0934695000000012
                },
                {
                    "name": "F4",
                    "midi": 65,
                    "time": 19.192404000000035,
                    "velocity": 0.23622047244094488,
                    "duration": 0.0934695000000012
                },
                {
                    "name": "A4",
                    "midi": 69,
                    "time": 19.441656000000037,
                    "velocity": 0.25196850393700787,
                    "duration": 0.0934695000000012
                },
                {
                    "name": "D5",
                    "midi": 74,
                    "time": 19.69090800000004,
                    "velocity": 0.25984251968503935,
                    "duration": 0.0934695000000012
                },
                {
                    "name": "C#5",
                    "midi": 73,
                    "time": 19.94016000000004,
                    "velocity": 0.4015748031496063,
                    "duration": 0.12462599999999924
                },
                {
                    "name": "A5",
                    "midi": 81,
                    "time": 20.18941200000004,
                    "velocity": 0.33858267716535434,
                    "duration": 0.12462599999999924
                },
                {
                    "name": "C#5",
                    "midi": 73,
                    "time": 20.43866400000004,
                    "velocity": 0.29133858267716534,
                    "duration": 0.12462599999999924
                },
                {
                    "name": "A5",
                    "midi": 81,
                    "time": 20.687916000000037,
                    "velocity": 0.30708661417322836,
                    "duration": 0.12462599999999924
                },
                {
                    "name": "C#5",
                    "midi": 73,
                    "time": 20.937168000000035,
                    "velocity": 0.3858267716535433,
                    "duration": 0.12462599999999924
                },
                {
                    "name": "G5",
                    "midi": 79,
                    "time": 21.186420000000034,
                    "velocity": 0.3779527559055118,
                    "duration": 0.12462599999999924
                },
                {
                    "name": "C#5",
                    "midi": 73,
                    "time": 21.435672000000032,
                    "velocity": 0.33858267716535434,
                    "duration": 0.12462599999999924
                },
                {
                    "name": "G5",
                    "midi": 79,
                    "time": 21.68492400000003,
                    "velocity": 0.3543307086614173,
                    "duration": 0.12462599999999924
                },
                {
                    "name": "A#4",
                    "midi": 70,
                    "time": 21.93417600000003,
                    "velocity": 0.36220472440944884,
                    "duration": 1.9940159999999878
                },
                {
                    "name": "C#5",
                    "midi": 73,
                    "time": 21.93417600000003,
                    "velocity": 0.4251968503937008,
                    "duration": 0.12462599999999924
                },
                {
                    "name": "A#5",
                    "midi": 82,
                    "time": 22.183428000000028,
                    "velocity": 0.3464566929133858,
                    "duration": 0.12462599999999924
                },
                {
                    "name": "C#5",
                    "midi": 73,
                    "time": 22.432680000000026,
                    "velocity": 0.29133858267716534,
                    "duration": 0.12462599999999924
                },
                {
                    "name": "A#5",
                    "midi": 82,
                    "time": 22.681932000000025,
                    "velocity": 0.28346456692913385,
                    "duration": 0.12462599999999924
                },
                {
                    "name": "C#5",
                    "midi": 73,
                    "time": 22.931184000000023,
                    "velocity": 0.3464566929133858,
                    "duration": 0.12462599999999924
                },
                {
                    "name": "A#5",
                    "midi": 82,
                    "time": 23.18043600000002,
                    "velocity": 0.3228346456692913,
                    "duration": 0.12462599999999924
                },
                {
                    "name": "C#5",
                    "midi": 73,
                    "time": 23.42968800000002,
                    "velocity": 0.2755905511811024,
                    "duration": 0.12462599999999924
                },
                {
                    "name": "A#5",
                    "midi": 82,
                    "time": 23.67894000000002,
                    "velocity": 0.2755905511811024,
                    "duration": 0.12462599999999924
                },
                {
                    "name": "C#5",
                    "midi": 73,
                    "time": 23.928192000000017,
                    "velocity": 0.4015748031496063,
                    "duration": 0.12462599999999924
                },
                {
                    "name": "A5",
                    "midi": 81,
                    "time": 24.177444000000015,
                    "velocity": 0.33858267716535434,
                    "duration": 0.12462599999999924
                },
                {
                    "name": "C#5",
                    "midi": 73,
                    "time": 24.426696000000014,
                    "velocity": 0.29133858267716534,
                    "duration": 0.12462599999999924
                },
                {
                    "name": "A5",
                    "midi": 81,
                    "time": 24.675948000000012,
                    "velocity": 0.29133858267716534,
                    "duration": 0.12462599999999924
                },
                {
                    "name": "C#5",
                    "midi": 73,
                    "time": 24.92520000000001,
                    "velocity": 0.36220472440944884,
                    "duration": 0.12462599999999924
                },
                {
                    "name": "G5",
                    "midi": 79,
                    "time": 25.17445200000001,
                    "velocity": 0.3543307086614173,
                    "duration": 0.12462599999999924
                },
                {
                    "name": "C#5",
                    "midi": 73,
                    "time": 25.423704000000008,
                    "velocity": 0.30708661417322836,
                    "duration": 0.12462599999999924
                },
                {
                    "name": "G5",
                    "midi": 79,
                    "time": 25.672956000000006,
                    "velocity": 0.31496062992125984,
                    "duration": 0.12462599999999924
                },
                {
                    "name": "F#4",
                    "midi": 66,
                    "time": 25.922208000000005,
                    "velocity": 0.30708661417322836,
                    "duration": 0.9970079999999939
                },
                {
                    "name": "A#4",
                    "midi": 70,
                    "time": 25.922208000000005,
                    "velocity": 0.36220472440944884,
                    "duration": 0.9970079999999939
                },
                {
                    "name": "C#5",
                    "midi": 73,
                    "time": 25.922208000000005,
                    "velocity": 0.4251968503937008,
                    "duration": 0.12462599999999924
                },
                {
                    "name": "A#5",
                    "midi": 82,
                    "time": 26.171460000000003,
                    "velocity": 0.3464566929133858,
                    "duration": 0.12462599999999924
                },
                {
                    "name": "C#5",
                    "midi": 73,
                    "time": 26.420712,
                    "velocity": 0.28346456692913385,
                    "duration": 0.12462599999999924
                },
                {
                    "name": "A#5",
                    "midi": 82,
                    "time": 26.669964,
                    "velocity": 0.28346456692913385,
                    "duration": 0.12462599999999924
                },
                {
                    "name": "D#4",
                    "midi": 63,
                    "time": 26.919216,
                    "velocity": 0.28346456692913385,
                    "duration": 0.9970079999999939
                },
                {
                    "name": "F#4",
                    "midi": 66,
                    "time": 26.919216,
                    "velocity": 0.33858267716535434,
                    "duration": 0.9970079999999939
                },
                {
                    "name": "A#4",
                    "midi": 70,
                    "time": 26.919216,
                    "velocity": 0.33858267716535434,
                    "duration": 0.12462599999999924
                },
                {
                    "name": "F#5",
                    "midi": 78,
                    "time": 27.168467999999997,
                    "velocity": 0.31496062992125984,
                    "duration": 0.12462599999999924
                },
                {
                    "name": "A#4",
                    "midi": 70,
                    "time": 27.417719999999996,
                    "velocity": 0.2677165354330709,
                    "duration": 0.12462599999999924
                },
                {
                    "name": "F#5",
                    "midi": 78,
                    "time": 27.666971999999994,
                    "velocity": 0.25984251968503935,
                    "duration": 0.12462599999999924
                },
                {
                    "name": "F#4",
                    "midi": 66,
                    "time": 27.916223999999993,
                    "velocity": 0.30708661417322836,
                    "duration": 0.9970079999999939
                },
                {
                    "name": "A#4",
                    "midi": 70,
                    "time": 27.916223999999993,
                    "velocity": 0.36220472440944884,
                    "duration": 0.9970079999999939
                },
                {
                    "name": "C#5",
                    "midi": 73,
                    "time": 27.916223999999993,
                    "velocity": 0.4251968503937008,
                    "duration": 0.12462599999999924
                },
                {
                    "name": "A#5",
                    "midi": 82,
                    "time": 28.16547599999999,
                    "velocity": 0.3464566929133858,
                    "duration": 0.12462599999999924
                },
                {
                    "name": "C#5",
                    "midi": 73,
                    "time": 28.41472799999999,
                    "velocity": 0.28346456692913385,
                    "duration": 0.12462599999999924
                },
                {
                    "name": "A#5",
                    "midi": 82,
                    "time": 28.663979999999988,
                    "velocity": 0.28346456692913385,
                    "duration": 0.12462599999999924
                },
                {
                    "name": "D#4",
                    "midi": 63,
                    "time": 28.913231999999986,
                    "velocity": 0.28346456692913385,
                    "duration": 0.9970079999999939
                },
                {
                    "name": "F#4",
                    "midi": 66,
                    "time": 28.913231999999986,
                    "velocity": 0.33858267716535434,
                    "duration": 0.9970079999999939
                },
                {
                    "name": "A#4",
                    "midi": 70,
                    "time": 28.913231999999986,
                    "velocity": 0.33858267716535434,
                    "duration": 0.12462599999999924
                },
                {
                    "name": "F#5",
                    "midi": 78,
                    "time": 29.162483999999985,
                    "velocity": 0.31496062992125984,
                    "duration": 0.12462599999999924
                },
                {
                    "name": "A#4",
                    "midi": 70,
                    "time": 29.411735999999983,
                    "velocity": 0.2677165354330709,
                    "duration": 0.12462599999999924
                },
                {
                    "name": "F#5",
                    "midi": 78,
                    "time": 29.660987999999982,
                    "velocity": 0.25984251968503935,
                    "duration": 0.12462599999999924
                },
                {
                    "name": "B3",
                    "midi": 59,
                    "time": 29.91023999999998,
                    "velocity": 0.28346456692913385,
                    "duration": 1.9940159999999878
                },
                {
                    "name": "D#4",
                    "midi": 63,
                    "time": 29.91023999999998,
                    "velocity": 0.33858267716535434,
                    "duration": 1.9940159999999878
                },
                {
                    "name": "F#4",
                    "midi": 66,
                    "time": 29.91023999999998,
                    "velocity": 0.3700787401574803,
                    "duration": 0.12462599999999924
                },
                {
                    "name": "D#5",
                    "midi": 75,
                    "time": 30.15949199999998,
                    "velocity": 0.30708661417322836,
                    "duration": 0.12462599999999924
                },
                {
                    "name": "F#4",
                    "midi": 66,
                    "time": 30.408743999999977,
                    "velocity": 0.25984251968503935,
                    "duration": 0.12462599999999924
                },
                {
                    "name": "D#5",
                    "midi": 75,
                    "time": 30.657995999999976,
                    "velocity": 0.25984251968503935,
                    "duration": 0.12462599999999924
                },
                {
                    "name": "F#4",
                    "midi": 66,
                    "time": 30.907247999999974,
                    "velocity": 0.31496062992125984,
                    "duration": 0.12462599999999924
                },
                {
                    "name": "D#5",
                    "midi": 75,
                    "time": 31.156499999999973,
                    "velocity": 0.2992125984251969,
                    "duration": 0.12462599999999924
                },
                {
                    "name": "F#4",
                    "midi": 66,
                    "time": 31.40575199999997,
                    "velocity": 0.25984251968503935,
                    "duration": 0.12462599999999924
                },
                {
                    "name": "D#5",
                    "midi": 75,
                    "time": 31.65500399999997,
                    "velocity": 0.25984251968503935,
                    "duration": 0.12462599999999924
                },
                {
                    "name": "D#4",
                    "midi": 63,
                    "time": 31.904255999999968,
                    "velocity": 0.36220472440944884,
                    "duration": 0.9970079999999939
                },
                {
                    "name": "F#4",
                    "midi": 66,
                    "time": 31.904255999999968,
                    "velocity": 0.4251968503937008,
                    "duration": 0.12462599999999924
                },
                {
                    "name": "D#5",
                    "midi": 75,
                    "time": 32.15350799999997,
                    "velocity": 0.33070866141732286,
                    "duration": 0.12462599999999924
                },
                {
                    "name": "F#4",
                    "midi": 66,
                    "time": 32.402759999999965,
                    "velocity": 0.25984251968503935,
                    "duration": 0.12462599999999924
                },
                {
                    "name": "D#5",
                    "midi": 75,
                    "time": 32.652011999999964,
                    "velocity": 0.25196850393700787,
                    "duration": 0.12462599999999924
                },
                {
                    "name": "C#4",
                    "midi": 61,
                    "time": 32.90126399999996,
                    "velocity": 0.23622047244094488,
                    "duration": 0.9970079999999939
                },
                {
                    "name": "D#4",
                    "midi": 63,
                    "time": 32.90126399999996,
                    "velocity": 0.28346456692913385,
                    "duration": 0.9970079999999939
                },
                {
                    "name": "F#4",
                    "midi": 66,
                    "time": 32.90126399999996,
                    "velocity": 0.28346456692913385,
                    "duration": 0.12462599999999924
                },
                {
                    "name": "D#5",
                    "midi": 75,
                    "time": 33.15051599999996,
                    "velocity": 0.2677165354330709,
                    "duration": 0.12462599999999924
                },
                {
                    "name": "F#4",
                    "midi": 66,
                    "time": 33.39976799999996,
                    "velocity": 0.2204724409448819,
                    "duration": 0.12462599999999924
                },
                {
                    "name": "D#5",
                    "midi": 75,
                    "time": 33.64901999999996,
                    "velocity": 0.2204724409448819,
                    "duration": 0.12462599999999924
                },
                {
                    "name": "B3",
                    "midi": 59,
                    "time": 33.898271999999956,
                    "velocity": 0.25984251968503935,
                    "duration": 1.9940159999999878
                },
                {
                    "name": "D#4",
                    "midi": 63,
                    "time": 33.898271999999956,
                    "velocity": 0.30708661417322836,
                    "duration": 1.9940159999999878
                },
                {
                    "name": "F#4",
                    "midi": 66,
                    "time": 33.898271999999956,
                    "velocity": 0.3543307086614173,
                    "duration": 0.12462599999999924
                },
                {
                    "name": "D#5",
                    "midi": 75,
                    "time": 34.147523999999954,
                    "velocity": 0.25984251968503935,
                    "duration": 0.12462599999999924
                },
                {
                    "name": "F#4",
                    "midi": 66,
                    "time": 34.39677599999995,
                    "velocity": 0.2125984251968504,
                    "duration": 0.12462599999999924
                },
                {
                    "name": "D#5",
                    "midi": 75,
                    "time": 34.64602799999995,
                    "velocity": 0.2125984251968504,
                    "duration": 0.12462599999999924
                },
                {
                    "name": "F#4",
                    "midi": 66,
                    "time": 34.89527999999995,
                    "velocity": 0.25196850393700787,
                    "duration": 0.12462599999999924
                },
                {
                    "name": "D#5",
                    "midi": 75,
                    "time": 35.14453199999995,
                    "velocity": 0.23622047244094488,
                    "duration": 0.12462599999999924
                },
                {
                    "name": "F#4",
                    "midi": 66,
                    "time": 35.39378399999995,
                    "velocity": 0.1968503937007874,
                    "duration": 0.12462599999999924
                },
                {
                    "name": "D#5",
                    "midi": 75,
                    "time": 35.643035999999945,
                    "velocity": 0.1968503937007874,
                    "duration": 0.12462599999999924
                },
                {
                    "name": "D#4",
                    "midi": 63,
                    "time": 35.892287999999944,
                    "velocity": 0.36220472440944884,
                    "duration": 0.9970079999999939
                },
                {
                    "name": "F#4",
                    "midi": 66,
                    "time": 35.892287999999944,
                    "velocity": 0.4251968503937008,
                    "duration": 0.12462599999999924
                },
                {
                    "name": "D#5",
                    "midi": 75,
                    "time": 36.14153999999994,
                    "velocity": 0.33070866141732286,
                    "duration": 0.12462599999999924
                },
                {
                    "name": "F#4",
                    "midi": 66,
                    "time": 36.39079199999994,
                    "velocity": 0.25984251968503935,
                    "duration": 0.12462599999999924
                },
                {
                    "name": "D#5",
                    "midi": 75,
                    "time": 36.64004399999994,
                    "velocity": 0.25196850393700787,
                    "duration": 0.12462599999999924
                },
                {
                    "name": "C#4",
                    "midi": 61,
                    "time": 36.88929599999994,
                    "velocity": 0.23622047244094488,
                    "duration": 0.9970079999999939
                },
                {
                    "name": "D#4",
                    "midi": 63,
                    "time": 36.88929599999994,
                    "velocity": 0.28346456692913385,
                    "duration": 0.9970079999999939
                },
                {
                    "name": "F#4",
                    "midi": 66,
                    "time": 36.88929599999994,
                    "velocity": 0.28346456692913385,
                    "duration": 0.12462599999999924
                },
                {
                    "name": "D#5",
                    "midi": 75,
                    "time": 37.138547999999936,
                    "velocity": 0.2677165354330709,
                    "duration": 0.12462599999999924
                },
                {
                    "name": "F#4",
                    "midi": 66,
                    "time": 37.387799999999935,
                    "velocity": 0.2204724409448819,
                    "duration": 0.12462599999999924
                },
                {
                    "name": "D#5",
                    "midi": 75,
                    "time": 37.63705199999993,
                    "velocity": 0.2204724409448819,
                    "duration": 0.12462599999999924
                },
                {
                    "name": "C4",
                    "midi": 60,
                    "time": 37.88630399999993,
                    "velocity": 0.2204724409448819,
                    "duration": 0.9970079999999939
                },
                {
                    "name": "D#4",
                    "midi": 63,
                    "time": 37.88630399999993,
                    "velocity": 0.25984251968503935,
                    "duration": 0.9970079999999939
                },
                {
                    "name": "F#4",
                    "midi": 66,
                    "time": 37.88630399999993,
                    "velocity": 0.2992125984251969,
                    "duration": 0.12462599999999924
                },
                {
                    "name": "D#5",
                    "midi": 75,
                    "time": 38.13555599999993,
                    "velocity": 0.28346456692913385,
                    "duration": 0.12462599999999924
                },
                {
                    "name": "F#4",
                    "midi": 66,
                    "time": 38.38480799999993,
                    "velocity": 0.3228346456692913,
                    "duration": 0.12462599999999924
                },
                {
                    "name": "D#5",
                    "midi": 75,
                    "time": 38.63405999999993,
                    "velocity": 0.3464566929133858,
                    "duration": 0.12462599999999924
                },
                {
                    "name": "C#4",
                    "midi": 61,
                    "time": 38.883311999999925,
                    "velocity": 0.30708661417322836,
                    "duration": 0.49850399999999695
                },
                {
                    "name": "D#4",
                    "midi": 63,
                    "time": 38.883311999999925,
                    "velocity": 0.30708661417322836,
                    "duration": 0.49850399999999695
                },
                {
                    "name": "F#4",
                    "midi": 66,
                    "time": 38.883311999999925,
                    "velocity": 0.33858267716535434,
                    "duration": 0.12462599999999924
                },
                {
                    "name": "F5",
                    "midi": 77,
                    "time": 39.132563999999924,
                    "velocity": 0.30708661417322836,
                    "duration": 0.12462599999999924
                },
                {
                    "name": "A#3",
                    "midi": 58,
                    "time": 39.38181599999992,
                    "velocity": 0.28346456692913385,
                    "duration": 0.49850399999999695
                },
                {
                    "name": "F#4",
                    "midi": 66,
                    "time": 39.38181599999992,
                    "velocity": 0.23622047244094488,
                    "duration": 0.12462599999999924
                },
                {
                    "name": "F5",
                    "midi": 77,
                    "time": 39.63106799999992,
                    "velocity": 0.2283464566929134,
                    "duration": 0.12462599999999924
                },
                {
                    "name": "C4",
                    "midi": 60,
                    "time": 39.88031999999992,
                    "velocity": 0.2283464566929134,
                    "duration": 0.9970079999999939
                },
                {
                    "name": "D#4",
                    "midi": 63,
                    "time": 39.88031999999992,
                    "velocity": 0.2755905511811024,
                    "duration": 0.9970079999999939
                },
                {
                    "name": "F#4",
                    "midi": 66,
                    "time": 39.88031999999992,
                    "velocity": 0.31496062992125984,
                    "duration": 0.12462599999999924
                },
                {
                    "name": "D#5",
                    "midi": 75,
                    "time": 40.12957199999992,
                    "velocity": 0.31496062992125984,
                    "duration": 0.12462599999999924
                },
                {
                    "name": "F#4",
                    "midi": 66,
                    "time": 40.378823999999916,
                    "velocity": 0.28346456692913385,
                    "duration": 0.12462599999999924
                },
                {
                    "name": "D#5",
                    "midi": 75,
                    "time": 40.628075999999915,
                    "velocity": 0.31496062992125984,
                    "duration": 0.12462599999999924
                },
                {
                    "name": "C#4",
                    "midi": 61,
                    "time": 40.87732799999991,
                    "velocity": 0.30708661417322836,
                    "duration": 0.49850399999999695
                },
                {
                    "name": "D#4",
                    "midi": 63,
                    "time": 40.87732799999991,
                    "velocity": 0.30708661417322836,
                    "duration": 0.49850399999999695
                },
                {
                    "name": "F#4",
                    "midi": 66,
                    "time": 40.87732799999991,
                    "velocity": 0.33858267716535434,
                    "duration": 0.12462599999999924
                },
                {
                    "name": "F5",
                    "midi": 77,
                    "time": 41.12657999999991,
                    "velocity": 0.30708661417322836,
                    "duration": 0.12462599999999924
                },
                {
                    "name": "A#3",
                    "midi": 58,
                    "time": 41.37583199999991,
                    "velocity": 0.28346456692913385,
                    "duration": 0.49850399999999695
                },
                {
                    "name": "F#4",
                    "midi": 66,
                    "time": 41.37583199999991,
                    "velocity": 0.23622047244094488,
                    "duration": 0.12462599999999924
                },
                {
                    "name": "F5",
                    "midi": 77,
                    "time": 41.62508399999991,
                    "velocity": 0.2283464566929134,
                    "duration": 0.12462599999999924
                },
                {
                    "name": "F#3",
                    "midi": 54,
                    "time": 41.87433599999991,
                    "velocity": 0.2677165354330709,
                    "duration": 0.49850399999999695
                },
                {
                    "name": "C4",
                    "midi": 60,
                    "time": 41.87433599999991,
                    "velocity": 0.3700787401574803,
                    "duration": 0.12462599999999924
                },
                {
                    "name": "D4",
                    "midi": 62,
                    "time": 42.123587999999906,
                    "velocity": 0.2755905511811024,
                    "duration": 0.12462599999999924
                },
                {
                    "name": "C4",
                    "midi": 60,
                    "time": 42.372839999999904,
                    "velocity": 0.25984251968503935,
                    "duration": 0.12462599999999924
                },
                {
                    "name": "D4",
                    "midi": 62,
                    "time": 42.6220919999999,
                    "velocity": 0.25984251968503935,
                    "duration": 0.12462599999999924
                },
                {
                    "name": "D3",
                    "midi": 50,
                    "time": 42.8713439999999,
                    "velocity": 0.2677165354330709,
                    "duration": 0.49850399999999695
                },
                {
                    "name": "C4",
                    "midi": 60,
                    "time": 42.8713439999999,
                    "velocity": 0.31496062992125984,
                    "duration": 0.12462599999999924
                },
                {
                    "name": "D4",
                    "midi": 62,
                    "time": 43.1205959999999,
                    "velocity": 0.29133858267716534,
                    "duration": 0.12462599999999924
                },
                {
                    "name": "C4",
                    "midi": 60,
                    "time": 43.3698479999999,
                    "velocity": 0.25984251968503935,
                    "duration": 0.12462599999999924
                },
                {
                    "name": "D4",
                    "midi": 62,
                    "time": 43.6190999999999,
                    "velocity": 0.25984251968503935,
                    "duration": 0.12462599999999924
                },
                {
                    "name": "E3",
                    "midi": 52,
                    "time": 43.868351999999895,
                    "velocity": 0.2677165354330709,
                    "duration": 0.49850399999999695
                },
                {
                    "name": "C4",
                    "midi": 60,
                    "time": 43.868351999999895,
                    "velocity": 0.3700787401574803,
                    "duration": 0.12462599999999924
                },
                {
                    "name": "D4",
                    "midi": 62,
                    "time": 44.11760399999989,
                    "velocity": 0.2755905511811024,
                    "duration": 0.12462599999999924
                },
                {
                    "name": "C4",
                    "midi": 60,
                    "time": 44.36685599999989,
                    "velocity": 0.25984251968503935,
                    "duration": 0.12462599999999924
                },
                {
                    "name": "D4",
                    "midi": 62,
                    "time": 44.61610799999989,
                    "velocity": 0.25984251968503935,
                    "duration": 0.12462599999999924
                },
                {
                    "name": "C4",
                    "midi": 60,
                    "time": 44.86535999999989,
                    "velocity": 0.31496062992125984,
                    "duration": 0.12462599999999924
                },
                {
                    "name": "D4",
                    "midi": 62,
                    "time": 45.11461199999989,
                    "velocity": 0.29133858267716534,
                    "duration": 0.12462599999999924
                },
                {
                    "name": "E3",
                    "midi": 52,
                    "time": 45.363863999999886,
                    "velocity": 0.2677165354330709,
                    "duration": 0.49850399999999695
                },
                {
                    "name": "C4",
                    "midi": 60,
                    "time": 45.363863999999886,
                    "velocity": 0.25984251968503935,
                    "duration": 0.12462599999999924
                },
                {
                    "name": "D4",
                    "midi": 62,
                    "time": 45.613115999999884,
                    "velocity": 0.25984251968503935,
                    "duration": 0.12462599999999924
                },
                {
                    "name": "F#3",
                    "midi": 54,
                    "time": 45.86236799999988,
                    "velocity": 0.2677165354330709,
                    "duration": 0.49850399999999695
                },
                {
                    "name": "C4",
                    "midi": 60,
                    "time": 45.86236799999988,
                    "velocity": 0.3700787401574803,
                    "duration": 0.12462599999999924
                },
                {
                    "name": "D4",
                    "midi": 62,
                    "time": 46.11161999999988,
                    "velocity": 0.2755905511811024,
                    "duration": 0.12462599999999924
                },
                {
                    "name": "C4",
                    "midi": 60,
                    "time": 46.36087199999988,
                    "velocity": 0.25984251968503935,
                    "duration": 0.12462599999999924
                },
                {
                    "name": "D4",
                    "midi": 62,
                    "time": 46.61012399999988,
                    "velocity": 0.25984251968503935,
                    "duration": 0.12462599999999924
                },
                {
                    "name": "D3",
                    "midi": 50,
                    "time": 46.85937599999988,
                    "velocity": 0.2677165354330709,
                    "duration": 0.49850399999999695
                },
                {
                    "name": "C4",
                    "midi": 60,
                    "time": 46.85937599999988,
                    "velocity": 0.31496062992125984,
                    "duration": 0.12462599999999924
                },
                {
                    "name": "D4",
                    "midi": 62,
                    "time": 47.108627999999875,
                    "velocity": 0.29133858267716534,
                    "duration": 0.12462599999999924
                },
                {
                    "name": "C4",
                    "midi": 60,
                    "time": 47.357879999999874,
                    "velocity": 0.25984251968503935,
                    "duration": 0.12462599999999924
                },
                {
                    "name": "D4",
                    "midi": 62,
                    "time": 47.60713199999987,
                    "velocity": 0.25984251968503935,
                    "duration": 0.12462599999999924
                },
                {
                    "name": "E3",
                    "midi": 52,
                    "time": 47.85638399999987,
                    "velocity": 0.2677165354330709,
                    "duration": 0.49850399999999695
                },
                {
                    "name": "C4",
                    "midi": 60,
                    "time": 47.85638399999987,
                    "velocity": 0.3700787401574803,
                    "duration": 0.12462599999999924
                },
                {
                    "name": "D4",
                    "midi": 62,
                    "time": 48.10563599999987,
                    "velocity": 0.2677165354330709,
                    "duration": 0.12462599999999924
                },
                {
                    "name": "C4",
                    "midi": 60,
                    "time": 48.35488799999987,
                    "velocity": 0.2440944881889764,
                    "duration": 0.12462599999999924
                },
                {
                    "name": "D4",
                    "midi": 62,
                    "time": 48.604139999999866,
                    "velocity": 0.23622047244094488,
                    "duration": 0.12462599999999924
                },
                {
                    "name": "C4",
                    "midi": 60,
                    "time": 48.853391999999864,
                    "velocity": 0.28346456692913385,
                    "duration": 0.12462599999999924
                },
                {
                    "name": "D4",
                    "midi": 62,
                    "time": 49.10264399999986,
                    "velocity": 0.25196850393700787,
                    "duration": 0.12462599999999924
                },
                {
                    "name": "C4",
                    "midi": 60,
                    "time": 49.35189599999986,
                    "velocity": 0.2204724409448819,
                    "duration": 0.12462599999999924
                },
                {
                    "name": "D4",
                    "midi": 62,
                    "time": 49.60114799999986,
                    "velocity": 0.2125984251968504,
                    "duration": 0.12462599999999924
                },
                {
                    "name": "E3",
                    "midi": 52,
                    "time": 49.85039999999986,
                    "velocity": 0.2677165354330709,
                    "duration": 0.49850399999999695
                },
                {
                    "name": "C4",
                    "midi": 60,
                    "time": 49.85039999999986,
                    "velocity": 0.3700787401574803,
                    "duration": 0.12462599999999924
                },
                {
                    "name": "D4",
                    "midi": 62,
                    "time": 50.09965199999986,
                    "velocity": 0.2755905511811024,
                    "duration": 0.12462599999999924
                },
                {
                    "name": "C4",
                    "midi": 60,
                    "time": 50.348903999999855,
                    "velocity": 0.25984251968503935,
                    "duration": 0.12462599999999924
                },
                {
                    "name": "D4",
                    "midi": 62,
                    "time": 50.598155999999854,
                    "velocity": 0.25984251968503935,
                    "duration": 0.12462599999999924
                },
                {
                    "name": "C3",
                    "midi": 48,
                    "time": 50.84740799999985,
                    "velocity": 0.2677165354330709,
                    "duration": 0.49850399999999695
                },
                {
                    "name": "C4",
                    "midi": 60,
                    "time": 50.84740799999985,
                    "velocity": 0.31496062992125984,
                    "duration": 0.12462599999999924
                },
                {
                    "name": "D4",
                    "midi": 62,
                    "time": 51.09665999999985,
                    "velocity": 0.29133858267716534,
                    "duration": 0.12462599999999924
                },
                {
                    "name": "C4",
                    "midi": 60,
                    "time": 51.34591199999985,
                    "velocity": 0.25984251968503935,
                    "duration": 0.12462599999999924
                },
                {
                    "name": "D4",
                    "midi": 62,
                    "time": 51.59516399999985,
                    "velocity": 0.25984251968503935,
                    "duration": 0.12462599999999924
                },
                {
                    "name": "D3",
                    "midi": 50,
                    "time": 51.844415999999846,
                    "velocity": 0.2677165354330709,
                    "duration": 0.49850399999999695
                },
                {
                    "name": "A#3",
                    "midi": 58,
                    "time": 51.844415999999846,
                    "velocity": 0.3700787401574803,
                    "duration": 0.12462599999999924
                },
                {
                    "name": "C4",
                    "midi": 60,
                    "time": 52.093667999999845,
                    "velocity": 0.25984251968503935,
                    "duration": 0.12462599999999924
                },
                {
                    "name": "A#3",
                    "midi": 58,
                    "time": 52.34291999999984,
                    "velocity": 0.2992125984251969,
                    "duration": 0.12462599999999924
                },
                {
                    "name": "C4",
                    "midi": 60,
                    "time": 52.59217199999984,
                    "velocity": 0.25984251968503935,
                    "duration": 0.12462599999999924
                },
                {
                    "name": "A#3",
                    "midi": 58,
                    "time": 52.84142399999984,
                    "velocity": 0.33858267716535434,
                    "duration": 0.12462599999999924
                },
                {
                    "name": "C4",
                    "midi": 60,
                    "time": 53.09067599999984,
                    "velocity": 0.25196850393700787,
                    "duration": 0.12462599999999924
                },
                {
                    "name": "A#3",
                    "midi": 58,
                    "time": 53.33992799999984,
                    "velocity": 0.31496062992125984,
                    "duration": 0.12462599999999924
                },
                {
                    "name": "D3",
                    "midi": 50,
                    "time": 53.33992799999984,
                    "velocity": 0.31496062992125984,
                    "duration": 0.49850399999999695
                },
                {
                    "name": "C4",
                    "midi": 60,
                    "time": 53.589179999999836,
                    "velocity": 0.25984251968503935,
                    "duration": 0.12462599999999924
                },
                {
                    "name": "E3",
                    "midi": 52,
                    "time": 53.838431999999834,
                    "velocity": 0.2677165354330709,
                    "duration": 0.49850399999999695
                },
                {
                    "name": "C4",
                    "midi": 60,
                    "time": 53.838431999999834,
                    "velocity": 0.3700787401574803,
                    "duration": 0.12462599999999924
                },
                {
                    "name": "D4",
                    "midi": 62,
                    "time": 54.08768399999983,
                    "velocity": 0.2755905511811024,
                    "duration": 0.12462599999999924
                },
                {
                    "name": "C4",
                    "midi": 60,
                    "time": 54.33693599999983,
                    "velocity": 0.25984251968503935,
                    "duration": 0.12462599999999924
                },
                {
                    "name": "D4",
                    "midi": 62,
                    "time": 54.58618799999983,
                    "velocity": 0.25984251968503935,
                    "duration": 0.12462599999999924
                },
                {
                    "name": "C3",
                    "midi": 48,
                    "time": 54.83543999999983,
                    "velocity": 0.2677165354330709,
                    "duration": 0.49850399999999695
                },
                {
                    "name": "C4",
                    "midi": 60,
                    "time": 54.83543999999983,
                    "velocity": 0.31496062992125984,
                    "duration": 0.12462599999999924
                },
                {
                    "name": "D4",
                    "midi": 62,
                    "time": 55.084691999999826,
                    "velocity": 0.29133858267716534,
                    "duration": 0.12462599999999924
                },
                {
                    "name": "C4",
                    "midi": 60,
                    "time": 55.333943999999825,
                    "velocity": 0.25984251968503935,
                    "duration": 0.12462599999999924
                },
                {
                    "name": "D4",
                    "midi": 62,
                    "time": 55.58319599999982,
                    "velocity": 0.25984251968503935,
                    "duration": 0.12462599999999924
                },
                {
                    "name": "D3",
                    "midi": 50,
                    "time": 55.83244799999982,
                    "velocity": 0.2677165354330709,
                    "duration": 1.9940159999999878
                },
                {
                    "name": "A#3",
                    "midi": 58,
                    "time": 55.83244799999982,
                    "velocity": 0.3700787401574803,
                    "duration": 0.12462599999999924
                },
                {
                    "name": "C4",
                    "midi": 60,
                    "time": 56.08169999999982,
                    "velocity": 0.2677165354330709,
                    "duration": 0.12462599999999924
                },
                {
                    "name": "A#3",
                    "midi": 58,
                    "time": 56.33095199999982,
                    "velocity": 0.2440944881889764,
                    "duration": 0.12462599999999924
                },
                {
                    "name": "C4",
                    "midi": 60,
                    "time": 56.58020399999982,
                    "velocity": 0.23622047244094488,
                    "duration": 0.12462599999999924
                },
                {
                    "name": "A#3",
                    "midi": 58,
                    "time": 56.829455999999816,
                    "velocity": 0.28346456692913385,
                    "duration": 0.12462599999999924
                },
                {
                    "name": "C4",
                    "midi": 60,
                    "time": 57.078707999999814,
                    "velocity": 0.25196850393700787,
                    "duration": 0.12462599999999924
                },
                {
                    "name": "A#3",
                    "midi": 58,
                    "time": 57.32795999999981,
                    "velocity": 0.2204724409448819,
                    "duration": 0.12462599999999924
                },
                {
                    "name": "C4",
                    "midi": 60,
                    "time": 57.57721199999981,
                    "velocity": 0.2125984251968504,
                    "duration": 0.12462599999999924
                },
                {
                    "name": "D3",
                    "midi": 50,
                    "time": 57.82646399999981,
                    "velocity": 0.2204724409448819,
                    "duration": 1.9940159999999878
                },
                {
                    "name": "D4",
                    "midi": 62,
                    "time": 57.82646399999981,
                    "velocity": 0.33070866141732286,
                    "duration": 0.09346949999999765
                },
                {
                    "name": "C4",
                    "midi": 60,
                    "time": 58.07571599999981,
                    "velocity": 0.25984251968503935,
                    "duration": 0.09346949999999765
                },
                {
                    "name": "A#3",
                    "midi": 58,
                    "time": 58.32496799999981,
                    "velocity": 0.25984251968503935,
                    "duration": 0.09346949999999765
                },
                {
                    "name": "A3",
                    "midi": 57,
                    "time": 58.574219999999805,
                    "velocity": 0.25984251968503935,
                    "duration": 0.09346949999999765
                },
                {
                    "name": "C4",
                    "midi": 60,
                    "time": 58.8234719999998,
                    "velocity": 0.29133858267716534,
                    "duration": 0.09346949999999765
                },
                {
                    "name": "A#3",
                    "midi": 58,
                    "time": 59.0727239999998,
                    "velocity": 0.2677165354330709,
                    "duration": 0.09346949999999765
                },
                {
                    "name": "A3",
                    "midi": 57,
                    "time": 59.3219759999998,
                    "velocity": 0.2677165354330709,
                    "duration": 0.09346949999999765
                },
                {
                    "name": "G3",
                    "midi": 55,
                    "time": 59.5712279999998,
                    "velocity": 0.2677165354330709,
                    "duration": 0.09346949999999765
                },
                {
                    "name": "D3",
                    "midi": 50,
                    "time": 59.8204799999998,
                    "velocity": 0.2755905511811024,
                    "duration": 1.9940159999999878
                },
                {
                    "name": "D4",
                    "midi": 62,
                    "time": 59.8204799999998,
                    "velocity": 0.33070866141732286,
                    "duration": 0.09346949999999765
                },
                {
                    "name": "C4",
                    "midi": 60,
                    "time": 60.069731999999796,
                    "velocity": 0.25984251968503935,
                    "duration": 0.09346949999999765
                },
                {
                    "name": "A#3",
                    "midi": 58,
                    "time": 60.318983999999794,
                    "velocity": 0.25984251968503935,
                    "duration": 0.09346949999999765
                },
                {
                    "name": "A3",
                    "midi": 57,
                    "time": 60.56823599999979,
                    "velocity": 0.25984251968503935,
                    "duration": 0.09346949999999765
                },
                {
                    "name": "C4",
                    "midi": 60,
                    "time": 60.81748799999979,
                    "velocity": 0.29133858267716534,
                    "duration": 0.09346949999999765
                },
                {
                    "name": "A#3",
                    "midi": 58,
                    "time": 61.06673999999979,
                    "velocity": 0.2677165354330709,
                    "duration": 0.09346949999999765
                },
                {
                    "name": "A3",
                    "midi": 57,
                    "time": 61.31599199999979,
                    "velocity": 0.2677165354330709,
                    "duration": 0.09346949999999765
                },
                {
                    "name": "G3",
                    "midi": 55,
                    "time": 61.56524399999979,
                    "velocity": 0.2677165354330709,
                    "duration": 0.09346949999999765
                },
                {
                    "name": "G3",
                    "midi": 55,
                    "time": 61.814495999999785,
                    "velocity": 0.29133858267716534,
                    "duration": 0.12462599999999924
                },
                {
                    "name": "C3",
                    "midi": 48,
                    "time": 62.063747999999784,
                    "velocity": 0.25196850393700787,
                    "duration": 0.12462599999999924
                },
                {
                    "name": "G2",
                    "midi": 43,
                    "time": 62.31299999999978,
                    "velocity": 0.25196850393700787,
                    "duration": 0.12462599999999924
                },
                {
                    "name": "C2",
                    "midi": 36,
                    "time": 62.56225199999978,
                    "velocity": 0.25196850393700787,
                    "duration": 0.12462599999999924
                },
                {
                    "name": "G2",
                    "midi": 43,
                    "time": 62.81150399999978,
                    "velocity": 0.25196850393700787,
                    "duration": 0.12462599999999924
                },
                {
                    "name": "C3",
                    "midi": 48,
                    "time": 63.06075599999978,
                    "velocity": 0.25196850393700787,
                    "duration": 0.12462599999999924
                },
                {
                    "name": "A3",
                    "midi": 57,
                    "time": 63.310007999999776,
                    "velocity": 0.25984251968503935,
                    "duration": 0.12462599999999924
                },
                {
                    "name": "F3",
                    "midi": 53,
                    "time": 63.559259999999774,
                    "velocity": 0.28346456692913385,
                    "duration": 0.12462599999999924
                },
                {
                    "name": "G3",
                    "midi": 55,
                    "time": 63.80851199999977,
                    "velocity": 0.29133858267716534,
                    "duration": 0.12462599999999924
                },
                {
                    "name": "C3",
                    "midi": 48,
                    "time": 64.05776399999978,
                    "velocity": 0.25196850393700787,
                    "duration": 0.12462600000000634
                },
                {
                    "name": "G2",
                    "midi": 43,
                    "time": 64.30701599999979,
                    "velocity": 0.25196850393700787,
                    "duration": 0.12462600000000634
                },
                {
                    "name": "C2",
                    "midi": 36,
                    "time": 64.5562679999998,
                    "velocity": 0.25196850393700787,
                    "duration": 0.12462600000000634
                },
                {
                    "name": "G2",
                    "midi": 43,
                    "time": 64.80551999999982,
                    "velocity": 0.25196850393700787,
                    "duration": 0.12462600000000634
                },
                {
                    "name": "C3",
                    "midi": 48,
                    "time": 65.05477199999983,
                    "velocity": 0.25196850393700787,
                    "duration": 0.12462600000000634
                },
                {
                    "name": "A3",
                    "midi": 57,
                    "time": 65.30402399999984,
                    "velocity": 0.25984251968503935,
                    "duration": 0.12462600000000634
                },
                {
                    "name": "F3",
                    "midi": 53,
                    "time": 65.55327599999985,
                    "velocity": 0.28346456692913385,
                    "duration": 0.12462600000000634
                },
                {
                    "name": "D4",
                    "midi": 62,
                    "time": 65.80252799999987,
                    "velocity": 0.28346456692913385,
                    "duration": 0.09346949999999765
                },
                {
                    "name": "C4",
                    "midi": 60,
                    "time": 65.92715399999986,
                    "velocity": 0.2125984251968504,
                    "duration": 0.12462600000000634
                },
                {
                    "name": "D#4",
                    "midi": 63,
                    "time": 66.05177999999987,
                    "velocity": 0.23622047244094488,
                    "duration": 0.09346949999999765
                },
                {
                    "name": "C4",
                    "midi": 60,
                    "time": 66.17640599999986,
                    "velocity": 0.2125984251968504,
                    "duration": 0.12462600000000634
                },
                {
                    "name": "F4",
                    "midi": 65,
                    "time": 66.30103199999986,
                    "velocity": 0.23622047244094488,
                    "duration": 0.09346949999999765
                },
                {
                    "name": "C4",
                    "midi": 60,
                    "time": 66.42565799999986,
                    "velocity": 0.2125984251968504,
                    "duration": 0.12462600000000634
                },
                {
                    "name": "G4",
                    "midi": 67,
                    "time": 66.55028399999986,
                    "velocity": 0.23622047244094488,
                    "duration": 0.09346949999999765
                },
                {
                    "name": "C4",
                    "midi": 60,
                    "time": 66.67490999999985,
                    "velocity": 0.2125984251968504,
                    "duration": 0.12462600000000634
                },
                {
                    "name": "D4",
                    "midi": 62,
                    "time": 66.79953599999986,
                    "velocity": 0.2992125984251969,
                    "duration": 0.09346949999999765
                },
                {
                    "name": "C4",
                    "midi": 60,
                    "time": 66.92416199999985,
                    "velocity": 0.2125984251968504,
                    "duration": 0.12462600000000634
                },
                {
                    "name": "D#4",
                    "midi": 63,
                    "time": 67.04878799999986,
                    "velocity": 0.2440944881889764,
                    "duration": 0.09346949999999765
                },
                {
                    "name": "C4",
                    "midi": 60,
                    "time": 67.17341399999985,
                    "velocity": 0.2125984251968504,
                    "duration": 0.12462600000000634
                },
                {
                    "name": "F4",
                    "midi": 65,
                    "time": 67.29803999999986,
                    "velocity": 0.2755905511811024,
                    "duration": 0.09346949999999765
                },
                {
                    "name": "C4",
                    "midi": 60,
                    "time": 67.42266599999985,
                    "velocity": 0.2125984251968504,
                    "duration": 0.12462600000000634
                },
                {
                    "name": "G4",
                    "midi": 67,
                    "time": 67.54729199999986,
                    "velocity": 0.28346456692913385,
                    "duration": 0.09346949999999765
                },
                {
                    "name": "C4",
                    "midi": 60,
                    "time": 67.67191799999985,
                    "velocity": 0.2125984251968504,
                    "duration": 0.12462600000000634
                },
                {
                    "name": "D4",
                    "midi": 62,
                    "time": 67.79654399999986,
                    "velocity": 0.31496062992125984,
                    "duration": 0.09346949999999765
                },
                {
                    "name": "C4",
                    "midi": 60,
                    "time": 67.92116999999985,
                    "velocity": 0.23622047244094488,
                    "duration": 0.12462600000000634
                },
                {
                    "name": "D#4",
                    "midi": 63,
                    "time": 68.04579599999985,
                    "velocity": 0.2677165354330709,
                    "duration": 0.09346949999999765
                },
                {
                    "name": "C4",
                    "midi": 60,
                    "time": 68.17042199999985,
                    "velocity": 0.23622047244094488,
                    "duration": 0.12462600000000634
                },
                {
                    "name": "F4",
                    "midi": 65,
                    "time": 68.29504799999985,
                    "velocity": 0.2677165354330709,
                    "duration": 0.09346949999999765
                },
                {
                    "name": "C4",
                    "midi": 60,
                    "time": 68.41967399999984,
                    "velocity": 0.23622047244094488,
                    "duration": 0.12462600000000634
                },
                {
                    "name": "G4",
                    "midi": 67,
                    "time": 68.54429999999985,
                    "velocity": 0.28346456692913385,
                    "duration": 0.09346949999999765
                },
                {
                    "name": "C4",
                    "midi": 60,
                    "time": 68.66892599999984,
                    "velocity": 0.25196850393700787,
                    "duration": 0.12462600000000634
                },
                {
                    "name": "D4",
                    "midi": 62,
                    "time": 68.79355199999985,
                    "velocity": 0.3779527559055118,
                    "duration": 0.09346949999999765
                },
                {
                    "name": "C4",
                    "midi": 60,
                    "time": 68.91817799999984,
                    "velocity": 0.2677165354330709,
                    "duration": 0.12462600000000634
                },
                {
                    "name": "D#4",
                    "midi": 63,
                    "time": 69.04280399999985,
                    "velocity": 0.3228346456692913,
                    "duration": 0.09346949999999765
                },
                {
                    "name": "C4",
                    "midi": 60,
                    "time": 69.16742999999984,
                    "velocity": 0.28346456692913385,
                    "duration": 0.12462600000000634
                },
                {
                    "name": "F4",
                    "midi": 65,
                    "time": 69.29205599999985,
                    "velocity": 0.3779527559055118,
                    "duration": 0.09346949999999765
                },
                {
                    "name": "C4",
                    "midi": 60,
                    "time": 69.41668199999984,
                    "velocity": 0.29133858267716534,
                    "duration": 0.12462600000000634
                },
                {
                    "name": "G4",
                    "midi": 67,
                    "time": 69.54130799999984,
                    "velocity": 0.4015748031496063,
                    "duration": 0.09346949999999765
                },
                {
                    "name": "C4",
                    "midi": 60,
                    "time": 69.66593399999984,
                    "velocity": 0.29133858267716534,
                    "duration": 0.12462600000000634
                },
                {
                    "name": "D4",
                    "midi": 62,
                    "time": 69.79055999999984,
                    "velocity": 0.3937007874015748,
                    "duration": 0.09346949999999765
                },
                {
                    "name": "C4",
                    "midi": 60,
                    "time": 69.91518599999984,
                    "velocity": 0.29133858267716534,
                    "duration": 0.12462600000000634
                },
                {
                    "name": "D#4",
                    "midi": 63,
                    "time": 70.03981199999984,
                    "velocity": 0.33070866141732286,
                    "duration": 0.09346949999999765
                },
                {
                    "name": "C4",
                    "midi": 60,
                    "time": 70.16443799999983,
                    "velocity": 0.29133858267716534,
                    "duration": 0.12462600000000634
                },
                {
                    "name": "F4",
                    "midi": 65,
                    "time": 70.28906399999984,
                    "velocity": 0.3937007874015748,
                    "duration": 0.09346949999999765
                },
                {
                    "name": "C4",
                    "midi": 60,
                    "time": 70.41368999999983,
                    "velocity": 0.36220472440944884,
                    "duration": 0.12462600000000634
                },
                {
                    "name": "G4",
                    "midi": 67,
                    "time": 70.53831599999984,
                    "velocity": 0.36220472440944884,
                    "duration": 0.09346949999999765
                },
                {
                    "name": "C4",
                    "midi": 60,
                    "time": 70.66294199999983,
                    "velocity": 0.3543307086614173,
                    "duration": 0.12462600000000634
                },
                {
                    "name": "G4",
                    "midi": 67,
                    "time": 70.78756799999984,
                    "velocity": 0.3858267716535433,
                    "duration": 0.09346949999999765
                },
                {
                    "name": "A#3",
                    "midi": 58,
                    "time": 70.91219399999983,
                    "velocity": 0.29133858267716534,
                    "duration": 0.12462600000000634
                },
                {
                    "name": "G4",
                    "midi": 67,
                    "time": 71.03681999999984,
                    "velocity": 0.33858267716535434,
                    "duration": 0.09346949999999765
                },
                {
                    "name": "A#3",
                    "midi": 58,
                    "time": 71.16144599999983,
                    "velocity": 0.2755905511811024,
                    "duration": 0.12462600000000634
                },
                {
                    "name": "G4",
                    "midi": 67,
                    "time": 71.28607199999983,
                    "velocity": 0.30708661417322836,
                    "duration": 0.09346949999999765
                },
                {
                    "name": "A#3",
                    "midi": 58,
                    "time": 71.41069799999983,
                    "velocity": 0.23622047244094488,
                    "duration": 0.12462600000000634
                },
                {
                    "name": "G4",
                    "midi": 67,
                    "time": 71.53532399999983,
                    "velocity": 0.3228346456692913,
                    "duration": 0.09346949999999765
                },
                {
                    "name": "A#3",
                    "midi": 58,
                    "time": 71.65994999999982,
                    "velocity": 0.23622047244094488,
                    "duration": 0.12462600000000634
                },
                {
                    "name": "G4",
                    "midi": 67,
                    "time": 71.78457599999983,
                    "velocity": 0.31496062992125984,
                    "duration": 0.09346949999999765
                },
                {
                    "name": "A#3",
                    "midi": 58,
                    "time": 71.90920199999982,
                    "velocity": 0.23622047244094488,
                    "duration": 0.12462600000000634
                },
                {
                    "name": "G4",
                    "midi": 67,
                    "time": 72.03382799999983,
                    "velocity": 0.2677165354330709,
                    "duration": 0.09346949999999765
                },
                {
                    "name": "A#3",
                    "midi": 58,
                    "time": 72.15845399999982,
                    "velocity": 0.23622047244094488,
                    "duration": 0.12462600000000634
                },
                {
                    "name": "F4",
                    "midi": 65,
                    "time": 72.28307999999983,
                    "velocity": 0.3779527559055118,
                    "duration": 0.24925200000001269
                },
                {
                    "name": "A#3",
                    "midi": 58,
                    "time": 72.40770599999983,
                    "velocity": 0.33858267716535434,
                    "duration": 0.12462600000000634
                },
                {
                    "name": "F4",
                    "midi": 65,
                    "time": 72.53233199999984,
                    "velocity": 0.29133858267716534,
                    "duration": 0.09346949999999765
                },
                {
                    "name": "A#3",
                    "midi": 58,
                    "time": 72.65695799999983,
                    "velocity": 0.31496062992125984,
                    "duration": 0.12462600000000634
                },
                {
                    "name": "E4",
                    "midi": 64,
                    "time": 72.78158399999984,
                    "velocity": 0.3858267716535433,
                    "duration": 0.24925200000001269
                },
                {
                    "name": "A#3",
                    "midi": 58,
                    "time": 72.90620999999985,
                    "velocity": 0.25196850393700787,
                    "duration": 0.12462600000000634
                },
                {
                    "name": "E4",
                    "midi": 64,
                    "time": 73.03083599999985,
                    "velocity": 0.2992125984251969,
                    "duration": 0.09346949999999765
                },
                {
                    "name": "A#3",
                    "midi": 58,
                    "time": 73.15546199999984,
                    "velocity": 0.2755905511811024,
                    "duration": 0.12462600000000634
                },
                {
                    "name": "F4",
                    "midi": 65,
                    "time": 73.28008799999985,
                    "velocity": 0.30708661417322836,
                    "duration": 0.24925200000001269
                },
                {
                    "name": "A#3",
                    "midi": 58,
                    "time": 73.40471399999986,
                    "velocity": 0.23622047244094488,
                    "duration": 0.12462600000000634
                },
                {
                    "name": "F4",
                    "midi": 65,
                    "time": 73.52933999999986,
                    "velocity": 0.3228346456692913,
                    "duration": 0.09346949999999765
                },
                {
                    "name": "A#3",
                    "midi": 58,
                    "time": 73.65396599999985,
                    "velocity": 0.23622047244094488,
                    "duration": 0.06231300000000317
                },
                {
                    "name": "C#4",
                    "midi": 61,
                    "time": 73.71627899999986,
                    "velocity": 0.29133858267716534,
                    "duration": 2.0563290000000904
                },
                {
                    "name": "E4",
                    "midi": 64,
                    "time": 73.74743549999985,
                    "velocity": 0.29133858267716534,
                    "duration": 2.025172500000096
                },
                {
                    "name": "A#3",
                    "midi": 58,
                    "time": 73.77859199999985,
                    "velocity": 0.30708661417322836,
                    "duration": 0.12462600000000634
                },
                {
                    "name": "F#4",
                    "midi": 66,
                    "time": 73.77859199999985,
                    "velocity": 0.3464566929133858,
                    "duration": 1.9940160000001015
                },
                {
                    "name": "C4",
                    "midi": 60,
                    "time": 73.90321799999985,
                    "velocity": 0.29133858267716534,
                    "duration": 0.12462600000000634
                },
                {
                    "name": "A#3",
                    "midi": 58,
                    "time": 74.02784399999986,
                    "velocity": 0.2677165354330709,
                    "duration": 0.12462600000000634
                },
                {
                    "name": "C4",
                    "midi": 60,
                    "time": 74.15246999999987,
                    "velocity": 0.25196850393700787,
                    "duration": 0.12462600000000634
                },
                {
                    "name": "A#3",
                    "midi": 58,
                    "time": 74.27709599999987,
                    "velocity": 0.2677165354330709,
                    "duration": 0.12462600000000634
                },
                {
                    "name": "C4",
                    "midi": 60,
                    "time": 74.40172199999988,
                    "velocity": 0.23622047244094488,
                    "duration": 0.12462600000000634
                },
                {
                    "name": "A#3",
                    "midi": 58,
                    "time": 74.52634799999989,
                    "velocity": 0.25984251968503935,
                    "duration": 0.12462600000000634
                },
                {
                    "name": "C4",
                    "midi": 60,
                    "time": 74.65097399999989,
                    "velocity": 0.23622047244094488,
                    "duration": 0.12462600000000634
                },
                {
                    "name": "A#3",
                    "midi": 58,
                    "time": 74.7755999999999,
                    "velocity": 0.25984251968503935,
                    "duration": 0.12462600000000634
                },
                {
                    "name": "C4",
                    "midi": 60,
                    "time": 74.9002259999999,
                    "velocity": 0.23622047244094488,
                    "duration": 0.12462600000000634
                },
                {
                    "name": "A#3",
                    "midi": 58,
                    "time": 75.02485199999991,
                    "velocity": 0.25984251968503935,
                    "duration": 0.12462600000000634
                },
                {
                    "name": "C4",
                    "midi": 60,
                    "time": 75.14947799999992,
                    "velocity": 0.2440944881889764,
                    "duration": 0.12462600000000634
                },
                {
                    "name": "A#3",
                    "midi": 58,
                    "time": 75.27410399999992,
                    "velocity": 0.25196850393700787,
                    "duration": 0.12462600000000634
                },
                {
                    "name": "C4",
                    "midi": 60,
                    "time": 75.39872999999993,
                    "velocity": 0.2440944881889764,
                    "duration": 0.12462600000000634
                },
                {
                    "name": "A#3",
                    "midi": 58,
                    "time": 75.52335599999994,
                    "velocity": 0.2755905511811024,
                    "duration": 0.12462600000000634
                },
                {
                    "name": "C4",
                    "midi": 60,
                    "time": 75.64798199999994,
                    "velocity": 0.2440944881889764,
                    "duration": 0.12462600000000634
                },
                {
                    "name": "A#3",
                    "midi": 58,
                    "time": 75.77260799999995,
                    "velocity": 0.29133858267716534,
                    "duration": 0.12462600000000634
                },
                {
                    "name": "C4",
                    "midi": 60,
                    "time": 75.89723399999995,
                    "velocity": 0.2440944881889764,
                    "duration": 0.12462600000000634
                },
                {
                    "name": "A#3",
                    "midi": 58,
                    "time": 76.02185999999996,
                    "velocity": 0.2440944881889764,
                    "duration": 0.12462600000000634
                },
                {
                    "name": "C4",
                    "midi": 60,
                    "time": 76.14648599999997,
                    "velocity": 0.25196850393700787,
                    "duration": 0.12462600000000634
                },
                {
                    "name": "A#3",
                    "midi": 58,
                    "time": 76.27111199999997,
                    "velocity": 0.2677165354330709,
                    "duration": 0.12462600000000634
                },
                {
                    "name": "C4",
                    "midi": 60,
                    "time": 76.39573799999998,
                    "velocity": 0.23622047244094488,
                    "duration": 0.12462600000000634
                },
                {
                    "name": "A#3",
                    "midi": 58,
                    "time": 76.52036399999999,
                    "velocity": 0.25196850393700787,
                    "duration": 0.12462600000000634
                },
                {
                    "name": "C4",
                    "midi": 60,
                    "time": 76.64498999999999,
                    "velocity": 0.2440944881889764,
                    "duration": 0.12462600000000634
                },
                {
                    "name": "A#3",
                    "midi": 58,
                    "time": 76.769616,
                    "velocity": 0.25984251968503935,
                    "duration": 0.12462600000000634
                },
                {
                    "name": "C4",
                    "midi": 60,
                    "time": 76.894242,
                    "velocity": 0.23622047244094488,
                    "duration": 0.12462600000000634
                },
                {
                    "name": "A#3",
                    "midi": 58,
                    "time": 77.01886800000001,
                    "velocity": 0.25984251968503935,
                    "duration": 0.12462600000000634
                },
                {
                    "name": "C4",
                    "midi": 60,
                    "time": 77.14349400000002,
                    "velocity": 0.2440944881889764,
                    "duration": 0.12462600000000634
                },
                {
                    "name": "A#2",
                    "midi": 46,
                    "time": 78.01587600000002,
                    "velocity": 0.2755905511811024,
                    "duration": 0.12462600000000634
                },
                {
                    "name": "A2",
                    "midi": 45,
                    "time": 78.14050200000003,
                    "velocity": 0.2755905511811024,
                    "duration": 0.12462600000000634
                },
                {
                    "name": "A#2",
                    "midi": 46,
                    "time": 78.26512800000003,
                    "velocity": 0.31496062992125984,
                    "duration": 0.12462600000000634
                },
                {
                    "name": "F#2",
                    "midi": 42,
                    "time": 78.51438000000005,
                    "velocity": 0.29133858267716534,
                    "duration": 0.12462600000000634
                },
                {
                    "name": "A#2",
                    "midi": 46,
                    "time": 78.63900600000005,
                    "velocity": 0.2440944881889764,
                    "duration": 0.12462600000000634
                },
                {
                    "name": "A2",
                    "midi": 45,
                    "time": 78.76363200000006,
                    "velocity": 0.2992125984251969,
                    "duration": 0.12462600000000634
                },
                {
                    "name": "A#2",
                    "midi": 46,
                    "time": 78.88825800000006,
                    "velocity": 0.3228346456692913,
                    "duration": 0.12462600000000634
                },
                {
                    "name": "C3",
                    "midi": 48,
                    "time": 79.01288400000007,
                    "velocity": 0.36220472440944884,
                    "duration": 0.6231300000000033
                },
                {
                    "name": "C#3",
                    "midi": 49,
                    "time": 79.63601400000007,
                    "velocity": 0.3228346456692913,
                    "duration": 0.12462600000000634
                },
                {
                    "name": "D3",
                    "midi": 50,
                    "time": 79.76064000000008,
                    "velocity": 0.3779527559055118,
                    "duration": 0.3738780000000048
                },
                {
                    "name": "D#3",
                    "midi": 51,
                    "time": 80.13451800000009,
                    "velocity": 0.3464566929133858,
                    "duration": 0.12462600000000634
                },
                {
                    "name": "E3",
                    "midi": 52,
                    "time": 80.25914400000009,
                    "velocity": 0.4409448818897638,
                    "duration": 1.4955120000000193
                },
                {
                    "name": "A#3",
                    "midi": 58,
                    "time": 80.7337613500001,
                    "velocity": 0.49606299212598426,
                    "duration": 0.12462600000000634
                },
                {
                    "name": "C#4",
                    "midi": 61,
                    "time": 80.8822740000001,
                    "velocity": 0.4015748031496063,
                    "duration": 0.12462600000000634
                },
                {
                    "name": "A#3",
                    "midi": 58,
                    "time": 81.2561520000001,
                    "velocity": 0.4094488188976378,
                    "duration": 0.12462600000000634
                },
                {
                    "name": "C#4",
                    "midi": 61,
                    "time": 81.3807780000001,
                    "velocity": 0.36220472440944884,
                    "duration": 0.12462600000000634
                },
                {
                    "name": "A#2",
                    "midi": 46,
                    "time": 82.00390800000011,
                    "velocity": 0.2755905511811024,
                    "duration": 0.12462600000000634
                },
                {
                    "name": "A2",
                    "midi": 45,
                    "time": 82.12853400000012,
                    "velocity": 0.2755905511811024,
                    "duration": 0.12462600000000634
                },
                {
                    "name": "A#2",
                    "midi": 46,
                    "time": 82.25316000000012,
                    "velocity": 0.31496062992125984,
                    "duration": 0.12462600000000634
                },
                {
                    "name": "F#2",
                    "midi": 42,
                    "time": 82.50241200000013,
                    "velocity": 0.29133858267716534,
                    "duration": 0.12462600000000634
                },
                {
                    "name": "A#2",
                    "midi": 46,
                    "time": 82.62703800000014,
                    "velocity": 0.2440944881889764,
                    "duration": 0.12462600000000634
                },
                {
                    "name": "A2",
                    "midi": 45,
                    "time": 82.75166400000015,
                    "velocity": 0.2992125984251969,
                    "duration": 0.12462600000000634
                },
                {
                    "name": "A#2",
                    "midi": 46,
                    "time": 82.87629000000015,
                    "velocity": 0.3228346456692913,
                    "duration": 0.12462600000000634
                },
                {
                    "name": "C3",
                    "midi": 48,
                    "time": 83.00091600000016,
                    "velocity": 0.36220472440944884,
                    "duration": 0.6231300000000033
                },
                {
                    "name": "C#3",
                    "midi": 49,
                    "time": 83.62404600000016,
                    "velocity": 0.3228346456692913,
                    "duration": 0.12462600000000634
                },
                {
                    "name": "D#3",
                    "midi": 51,
                    "time": 83.74867200000017,
                    "velocity": 0.3779527559055118,
                    "duration": 0.3738780000000048
                },
                {
                    "name": "F3",
                    "midi": 53,
                    "time": 84.12255000000017,
                    "velocity": 0.3464566929133858,
                    "duration": 0.12462600000000634
                },
                {
                    "name": "F#3",
                    "midi": 54,
                    "time": 84.24717600000018,
                    "velocity": 0.4409448818897638,
                    "duration": 1.4955120000000193
                },
                {
                    "name": "A#3",
                    "midi": 58,
                    "time": 84.72179335000018,
                    "velocity": 0.49606299212598426,
                    "duration": 0.12462600000000634
                },
                {
                    "name": "C#4",
                    "midi": 61,
                    "time": 84.87030600000018,
                    "velocity": 0.4015748031496063,
                    "duration": 0.12462600000000634
                },
                {
                    "name": "A#4",
                    "midi": 70,
                    "time": 85.49343600000019,
                    "velocity": 0.4330708661417323,
                    "duration": 0.12462600000000634
                },
                {
                    "name": "C#5",
                    "midi": 73,
                    "time": 85.6180620000002,
                    "velocity": 0.3464566929133858,
                    "duration": 0.12462600000000634
                },
                {
                    "name": "A#4",
                    "midi": 70,
                    "time": 85.7426880000002,
                    "velocity": 0.3779527559055118,
                    "duration": 0.24925200000001269
                },
                {
                    "name": "C#5",
                    "midi": 73,
                    "time": 85.8673140000002,
                    "velocity": 0.29133858267716534,
                    "duration": 0.12462600000000634
                },
                {
                    "name": "A#4",
                    "midi": 70,
                    "time": 85.99194000000021,
                    "velocity": 0.3228346456692913,
                    "duration": 0.24925200000001269
                },
                {
                    "name": "C#5",
                    "midi": 73,
                    "time": 86.11656600000022,
                    "velocity": 0.2755905511811024,
                    "duration": 0.12462600000000634
                },
                {
                    "name": "G#4",
                    "midi": 68,
                    "time": 86.24119200000023,
                    "velocity": 0.28346456692913385,
                    "duration": 0.49850400000002537
                },
                {
                    "name": "A#4",
                    "midi": 70,
                    "time": 86.24119200000023,
                    "velocity": 0.23622047244094488,
                    "duration": 0.12462600000000634
                },
                {
                    "name": "C#5",
                    "midi": 73,
                    "time": 86.36581800000023,
                    "velocity": 0.2125984251968504,
                    "duration": 0.12462600000000634
                },
                {
                    "name": "A#4",
                    "midi": 70,
                    "time": 86.49044400000024,
                    "velocity": 0.23622047244094488,
                    "duration": 0.12462600000000634
                },
                {
                    "name": "C#5",
                    "midi": 73,
                    "time": 86.61507000000024,
                    "velocity": 0.2125984251968504,
                    "duration": 0.12462600000000634
                },
                {
                    "name": "F#4",
                    "midi": 66,
                    "time": 86.73969600000025,
                    "velocity": 0.28346456692913385,
                    "duration": 0.49850400000002537
                },
                {
                    "name": "A#4",
                    "midi": 70,
                    "time": 86.73969600000025,
                    "velocity": 0.2992125984251969,
                    "duration": 0.12462600000000634
                },
                {
                    "name": "C#5",
                    "midi": 73,
                    "time": 86.86432200000026,
                    "velocity": 0.2125984251968504,
                    "duration": 0.12462600000000634
                },
                {
                    "name": "A#4",
                    "midi": 70,
                    "time": 86.98894800000026,
                    "velocity": 0.2440944881889764,
                    "duration": 0.12462600000000634
                },
                {
                    "name": "C#5",
                    "midi": 73,
                    "time": 87.11357400000027,
                    "velocity": 0.2125984251968504,
                    "duration": 0.12462600000000634
                },
                {
                    "name": "F4",
                    "midi": 65,
                    "time": 87.23820000000028,
                    "velocity": 0.28346456692913385,
                    "duration": 0.49850400000002537
                },
                {
                    "name": "A#4",
                    "midi": 70,
                    "time": 87.23820000000028,
                    "velocity": 0.2755905511811024,
                    "duration": 0.12462600000000634
                },
                {
                    "name": "C#5",
                    "midi": 73,
                    "time": 87.36282600000028,
                    "velocity": 0.2125984251968504,
                    "duration": 0.12462600000000634
                },
                {
                    "name": "A#4",
                    "midi": 70,
                    "time": 87.48745200000029,
                    "velocity": 0.28346456692913385,
                    "duration": 0.12462600000000634
                },
                {
                    "name": "C#5",
                    "midi": 73,
                    "time": 87.6120780000003,
                    "velocity": 0.2125984251968504,
                    "duration": 0.12462600000000634
                },
                {
                    "name": "A#4",
                    "midi": 70,
                    "time": 87.7367040000003,
                    "velocity": 0.2677165354330709,
                    "duration": 0.12462600000000634
                },
                {
                    "name": "E4",
                    "midi": 64,
                    "time": 87.7367040000003,
                    "velocity": 0.25196850393700787,
                    "duration": 0.9970080000000507
                },
                {
                    "name": "C#5",
                    "midi": 73,
                    "time": 87.86133000000031,
                    "velocity": 0.23622047244094488,
                    "duration": 0.12462600000000634
                },
                {
                    "name": "A#4",
                    "midi": 70,
                    "time": 87.98595600000031,
                    "velocity": 0.2677165354330709,
                    "duration": 0.12462600000000634
                },
                {
                    "name": "C#5",
                    "midi": 73,
                    "time": 88.11058200000032,
                    "velocity": 0.23622047244094488,
                    "duration": 0.12462600000000634
                },
                {
                    "name": "A#4",
                    "midi": 70,
                    "time": 88.23520800000033,
                    "velocity": 0.31496062992125984,
                    "duration": 0.12462600000000634
                },
                {
                    "name": "C#5",
                    "midi": 73,
                    "time": 88.35983400000033,
                    "velocity": 0.2677165354330709,
                    "duration": 0.12462600000000634
                },
                {
                    "name": "A#4",
                    "midi": 70,
                    "time": 88.48446000000034,
                    "velocity": 0.31496062992125984,
                    "duration": 0.12462600000000634
                },
                {
                    "name": "C#5",
                    "midi": 73,
                    "time": 88.60908600000035,
                    "velocity": 0.2755905511811024,
                    "duration": 0.12462600000000634
                },
                {
                    "name": "F4",
                    "midi": 65,
                    "time": 88.73371200000035,
                    "velocity": 0.31496062992125984,
                    "duration": 0.9970080000000507
                },
                {
                    "name": "A#4",
                    "midi": 70,
                    "time": 88.73371200000035,
                    "velocity": 0.33858267716535434,
                    "duration": 0.12462600000000634
                },
                {
                    "name": "C#5",
                    "midi": 73,
                    "time": 88.85833800000036,
                    "velocity": 0.2755905511811024,
                    "duration": 0.12462600000000634
                },
                {
                    "name": "A#4",
                    "midi": 70,
                    "time": 88.98296400000036,
                    "velocity": 0.3228346456692913,
                    "duration": 0.12462600000000634
                },
                {
                    "name": "C#5",
                    "midi": 73,
                    "time": 89.10759000000037,
                    "velocity": 0.23622047244094488,
                    "duration": 0.12462600000000634
                },
                {
                    "name": "A#4",
                    "midi": 70,
                    "time": 89.23221600000038,
                    "velocity": 0.3858267716535433,
                    "duration": 0.12462600000000634
                },
                {
                    "name": "C#5",
                    "midi": 73,
                    "time": 89.35684200000038,
                    "velocity": 0.31496062992125984,
                    "duration": 0.12462600000000634
                },
                {
                    "name": "A#4",
                    "midi": 70,
                    "time": 89.48146800000039,
                    "velocity": 0.36220472440944884,
                    "duration": 0.12462600000000634
                },
                {
                    "name": "C#5",
                    "midi": 73,
                    "time": 89.6060940000004,
                    "velocity": 0.30708661417322836,
                    "duration": 0.12462600000000634
                },
                {
                    "name": "A#4",
                    "midi": 70,
                    "time": 89.7307200000004,
                    "velocity": 0.31496062992125984,
                    "duration": 0.24925200000001269
                },
                {
                    "name": "C#5",
                    "midi": 73,
                    "time": 89.85534600000041,
                    "velocity": 0.2755905511811024,
                    "duration": 0.12462600000000634
                },
                {
                    "name": "A#4",
                    "midi": 70,
                    "time": 89.97997200000042,
                    "velocity": 0.30708661417322836,
                    "duration": 0.24925200000001269
                },
                {
                    "name": "C#5",
                    "midi": 73,
                    "time": 90.10459800000042,
                    "velocity": 0.2755905511811024,
                    "duration": 0.12462600000000634
                },
                {
                    "name": "G4",
                    "midi": 67,
                    "time": 90.22922400000043,
                    "velocity": 0.31496062992125984,
                    "duration": 0.24925200000001269
                },
                {
                    "name": "A#4",
                    "midi": 70,
                    "time": 90.35385000000043,
                    "velocity": 0.23622047244094488,
                    "duration": 0.12462600000000634
                },
                {
                    "name": "G4",
                    "midi": 67,
                    "time": 90.47847600000044,
                    "velocity": 0.2677165354330709,
                    "duration": 0.24925200000001269
                },
                {
                    "name": "A#4",
                    "midi": 70,
                    "time": 90.60310200000045,
                    "velocity": 0.23622047244094488,
                    "duration": 0.12462600000000634
                },
                {
                    "name": "E4",
                    "midi": 64,
                    "time": 90.72772800000045,
                    "velocity": 0.2992125984251969,
                    "duration": 0.24925200000001269
                },
                {
                    "name": "G4",
                    "midi": 67,
                    "time": 90.85235400000046,
                    "velocity": 0.23622047244094488,
                    "duration": 0.12462600000000634
                },
                {
                    "name": "E4",
                    "midi": 64,
                    "time": 90.97698000000047,
                    "velocity": 0.2755905511811024,
                    "duration": 0.24925200000001269
                },
                {
                    "name": "G4",
                    "midi": 67,
                    "time": 91.10160600000047,
                    "velocity": 0.23622047244094488,
                    "duration": 0.12462600000000634
                },
                {
                    "name": "C#4",
                    "midi": 61,
                    "time": 91.22623200000048,
                    "velocity": 0.31496062992125984,
                    "duration": 0.24925200000001269
                },
                {
                    "name": "F4",
                    "midi": 65,
                    "time": 91.35085800000049,
                    "velocity": 0.23622047244094488,
                    "duration": 0.12462600000000634
                },
                {
                    "name": "C#4",
                    "midi": 61,
                    "time": 91.47548400000049,
                    "velocity": 0.3228346456692913,
                    "duration": 0.12462600000000634
                },
                {
                    "name": "F4",
                    "midi": 65,
                    "time": 91.6001100000005,
                    "velocity": 0.23622047244094488,
                    "duration": 0.12462600000000634
                },
                {
                    "name": "A#3",
                    "midi": 58,
                    "time": 91.7247360000005,
                    "velocity": 0.31496062992125984,
                    "duration": 0.24925200000001269
                },
                {
                    "name": "C#4",
                    "midi": 61,
                    "time": 91.84936200000051,
                    "velocity": 0.23622047244094488,
                    "duration": 0.12462600000000634
                },
                {
                    "name": "A#3",
                    "midi": 58,
                    "time": 91.97398800000052,
                    "velocity": 0.2677165354330709,
                    "duration": 0.24925200000001269
                },
                {
                    "name": "C#4",
                    "midi": 61,
                    "time": 92.09861400000052,
                    "velocity": 0.23622047244094488,
                    "duration": 0.12462600000000634
                },
                {
                    "name": "D#3",
                    "midi": 51,
                    "time": 92.22324000000053,
                    "velocity": 0.31496062992125984,
                    "duration": 0.9970080000000507
                },
                {
                    "name": "B3",
                    "midi": 59,
                    "time": 92.22324000000053,
                    "velocity": 0.31496062992125984,
                    "duration": 0.12462600000000634
                },
                {
                    "name": "D4",
                    "midi": 62,
                    "time": 92.34786600000054,
                    "velocity": 0.31496062992125984,
                    "duration": 0.12462600000000634
                },
                {
                    "name": "B3",
                    "midi": 59,
                    "time": 92.47249200000054,
                    "velocity": 0.29133858267716534,
                    "duration": 0.12462600000000634
                },
                {
                    "name": "D4",
                    "midi": 62,
                    "time": 92.59711800000055,
                    "velocity": 0.31496062992125984,
                    "duration": 0.12462600000000634
                },
                {
                    "name": "A#3",
                    "midi": 58,
                    "time": 92.72174400000056,
                    "velocity": 0.3858267716535433,
                    "duration": 0.12462600000000634
                },
                {
                    "name": "D#4",
                    "midi": 63,
                    "time": 92.84637000000056,
                    "velocity": 0.25196850393700787,
                    "duration": 0.12462600000000634
                },
                {
                    "name": "A#3",
                    "midi": 58,
                    "time": 92.97099600000057,
                    "velocity": 0.2992125984251969,
                    "duration": 0.12462600000000634
                },
                {
                    "name": "D#4",
                    "midi": 63,
                    "time": 93.09562200000057,
                    "velocity": 0.2755905511811024,
                    "duration": 0.12462600000000634
                },
                {
                    "name": "D#3",
                    "midi": 51,
                    "time": 93.22024800000058,
                    "velocity": 0.31496062992125984,
                    "duration": 0.9970080000000365
                },
                {
                    "name": "B3",
                    "midi": 59,
                    "time": 93.22024800000058,
                    "velocity": 0.30708661417322836,
                    "duration": 0.09346949999999765
                },
                {
                    "name": "D4",
                    "midi": 62,
                    "time": 93.34487400000057,
                    "velocity": 0.23622047244094488,
                    "duration": 0.12462600000000634
                },
                {
                    "name": "B3",
                    "midi": 59,
                    "time": 93.46950000000058,
                    "velocity": 0.3228346456692913,
                    "duration": 0.12462600000000634
                },
                {
                    "name": "D4",
                    "midi": 62,
                    "time": 93.59412600000059,
                    "velocity": 0.23622047244094488,
                    "duration": 0.12462600000000634
                },
                {
                    "name": "A#3",
                    "midi": 58,
                    "time": 93.71875200000059,
                    "velocity": 0.3858267716535433,
                    "duration": 0.12462600000000634
                },
                {
                    "name": "D#4",
                    "midi": 63,
                    "time": 93.8433780000006,
                    "velocity": 0.25196850393700787,
                    "duration": 0.12462600000000634
                },
                {
                    "name": "A#3",
                    "midi": 58,
                    "time": 93.9680040000006,
                    "velocity": 0.2992125984251969,
                    "duration": 0.12462600000000634
                },
                {
                    "name": "D#4",
                    "midi": 63,
                    "time": 94.09263000000061,
                    "velocity": 0.2755905511811024,
                    "duration": 0.12462600000000634
                },
                {
                    "name": "B3",
                    "midi": 59,
                    "time": 94.21725600000062,
                    "velocity": 0.30708661417322836,
                    "duration": 0.09346949999999765
                },
                {
                    "name": "D4",
                    "midi": 62,
                    "time": 94.34188200000061,
                    "velocity": 0.3464566929133858,
                    "duration": 0.12462600000000634
                },
                {
                    "name": "E4",
                    "midi": 64,
                    "time": 94.46650800000062,
                    "velocity": 0.3779527559055118,
                    "duration": 0.12462600000000634
                },
                {
                    "name": "F4",
                    "midi": 65,
                    "time": 94.59113400000062,
                    "velocity": 0.3937007874015748,
                    "duration": 0.12462600000000634
                },
                {
                    "name": "F#3",
                    "midi": 54,
                    "time": 94.71576000000063,
                    "velocity": 0.5905511811023622,
                    "duration": 0.12462600000000634
                },
                {
                    "name": "C#4",
                    "midi": 61,
                    "time": 94.71576000000063,
                    "velocity": 0.5905511811023622,
                    "duration": 0.12462600000000634
                },
                {
                    "name": "D#4",
                    "midi": 63,
                    "time": 94.96501200000064,
                    "velocity": 0.4566929133858268,
                    "duration": 0.06231300000000317
                },
                {
                    "name": "D#4",
                    "midi": 63,
                    "time": 95.08963800000065,
                    "velocity": 0.49606299212598426,
                    "duration": 0.06231300000000317
                },
                {
                    "name": "D#4",
                    "midi": 63,
                    "time": 95.21426400000065,
                    "velocity": 0.49606299212598426,
                    "duration": 0.06231300000000317
                },
                {
                    "name": "D#4",
                    "midi": 63,
                    "time": 95.33889000000066,
                    "velocity": 0.5196850393700787,
                    "duration": 0.06231300000000317
                },
                {
                    "name": "D#4",
                    "midi": 63,
                    "time": 95.46351600000067,
                    "velocity": 0.5354330708661418,
                    "duration": 0.06231300000000317
                },
                {
                    "name": "D#4",
                    "midi": 63,
                    "time": 95.58814200000067,
                    "velocity": 0.5669291338582677,
                    "duration": 0.06231300000000317
                },
                {
                    "name": "C#4",
                    "midi": 61,
                    "time": 95.71276800000068,
                    "velocity": 0.5826771653543307,
                    "duration": 0.12462600000000634
                },
                {
                    "name": "A#3",
                    "midi": 58,
                    "time": 95.71276800000068,
                    "velocity": 0.5826771653543307,
                    "duration": 0.12462600000000634
                },
                {
                    "name": "D#4",
                    "midi": 63,
                    "time": 95.96202000000069,
                    "velocity": 0.5196850393700787,
                    "duration": 0.06231300000000317
                },
                {
                    "name": "D#4",
                    "midi": 63,
                    "time": 96.0866460000007,
                    "velocity": 0.5354330708661418,
                    "duration": 0.06231300000000317
                },
                {
                    "name": "D#4",
                    "midi": 63,
                    "time": 96.2112720000007,
                    "velocity": 0.5748031496062992,
                    "duration": 0.06231300000000317
                },
                {
                    "name": "D#4",
                    "midi": 63,
                    "time": 96.33589800000071,
                    "velocity": 0.5905511811023622,
                    "duration": 0.06231300000000317
                },
                {
                    "name": "D#4",
                    "midi": 63,
                    "time": 96.46052400000072,
                    "velocity": 0.6141732283464567,
                    "duration": 0.06231300000000317
                },
                {
                    "name": "D#4",
                    "midi": 63,
                    "time": 96.58515000000072,
                    "velocity": 0.6141732283464567,
                    "duration": 0.06231300000000317
                },
                {
                    "name": "G3",
                    "midi": 55,
                    "time": 96.70977600000073,
                    "velocity": 0.5905511811023622,
                    "duration": 0.12462600000000634
                },
                {
                    "name": "C#4",
                    "midi": 61,
                    "time": 96.70977600000073,
                    "velocity": 0.5905511811023622,
                    "duration": 0.12462600000000634
                },
                {
                    "name": "D#4",
                    "midi": 63,
                    "time": 96.95902800000074,
                    "velocity": 0.5433070866141733,
                    "duration": 0.06231300000000317
                },
                {
                    "name": "D#4",
                    "midi": 63,
                    "time": 97.08365400000075,
                    "velocity": 0.5275590551181102,
                    "duration": 0.06231300000000317
                },
                {
                    "name": "D#4",
                    "midi": 63,
                    "time": 97.20828000000076,
                    "velocity": 0.5275590551181102,
                    "duration": 0.06231300000000317
                },
                {
                    "name": "D#4",
                    "midi": 63,
                    "time": 97.33290600000076,
                    "velocity": 0.5275590551181102,
                    "duration": 0.06231300000000317
                },
                {
                    "name": "D#4",
                    "midi": 63,
                    "time": 97.45753200000077,
                    "velocity": 0.5275590551181102,
                    "duration": 0.06231300000000317
                },
                {
                    "name": "D#4",
                    "midi": 63,
                    "time": 97.58215800000077,
                    "velocity": 0.5039370078740157,
                    "duration": 0.06231300000000317
                },
                {
                    "name": "D#4",
                    "midi": 63,
                    "time": 97.70678400000078,
                    "velocity": 0.48031496062992124,
                    "duration": 0.06231300000000317
                },
                {
                    "name": "D#4",
                    "midi": 63,
                    "time": 97.83141000000079,
                    "velocity": 0.48031496062992124,
                    "duration": 0.06231300000000317
                },
                {
                    "name": "D#4",
                    "midi": 63,
                    "time": 97.9560360000008,
                    "velocity": 0.48031496062992124,
                    "duration": 0.06231300000000317
                },
                {
                    "name": "D#4",
                    "midi": 63,
                    "time": 98.0806620000008,
                    "velocity": 0.48031496062992124,
                    "duration": 0.06231300000000317
                },
                {
                    "name": "D#4",
                    "midi": 63,
                    "time": 98.2052880000008,
                    "velocity": 0.48031496062992124,
                    "duration": 0.06231300000000317
                },
                {
                    "name": "D#4",
                    "midi": 63,
                    "time": 98.32991400000081,
                    "velocity": 0.47244094488188976,
                    "duration": 0.06231300000000317
                },
                {
                    "name": "D#4",
                    "midi": 63,
                    "time": 98.45454000000082,
                    "velocity": 0.44881889763779526,
                    "duration": 0.06231300000000317
                },
                {
                    "name": "D#4",
                    "midi": 63,
                    "time": 98.57916600000082,
                    "velocity": 0.44881889763779526,
                    "duration": 0.06231300000000317
                },
                {
                    "name": "F#3",
                    "midi": 54,
                    "time": 98.70379200000083,
                    "velocity": 0.5905511811023622,
                    "duration": 0.12462600000000634
                },
                {
                    "name": "C#4",
                    "midi": 61,
                    "time": 98.70379200000083,
                    "velocity": 0.5905511811023622,
                    "duration": 0.12462600000000634
                },
                {
                    "name": "D#4",
                    "midi": 63,
                    "time": 98.95304400000084,
                    "velocity": 0.4566929133858268,
                    "duration": 0.06231300000000317
                },
                {
                    "name": "D#4",
                    "midi": 63,
                    "time": 99.07767000000085,
                    "velocity": 0.49606299212598426,
                    "duration": 0.06231300000000317
                },
                {
                    "name": "D#4",
                    "midi": 63,
                    "time": 99.20229600000086,
                    "velocity": 0.49606299212598426,
                    "duration": 0.06231300000000317
                },
                {
                    "name": "D#4",
                    "midi": 63,
                    "time": 99.32692200000086,
                    "velocity": 0.5196850393700787,
                    "duration": 0.06231300000000317
                },
                {
                    "name": "D#4",
                    "midi": 63,
                    "time": 99.45154800000087,
                    "velocity": 0.5354330708661418,
                    "duration": 0.06231300000000317
                },
                {
                    "name": "D#4",
                    "midi": 63,
                    "time": 99.57617400000088,
                    "velocity": 0.5669291338582677,
                    "duration": 0.06231300000000317
                },
                {
                    "name": "C#4",
                    "midi": 61,
                    "time": 99.70080000000088,
                    "velocity": 0.5826771653543307,
                    "duration": 0.12462600000000634
                },
                {
                    "name": "A#3",
                    "midi": 58,
                    "time": 99.70080000000088,
                    "velocity": 0.5826771653543307,
                    "duration": 0.12462600000000634
                },
                {
                    "name": "D#4",
                    "midi": 63,
                    "time": 99.9500520000009,
                    "velocity": 0.5196850393700787,
                    "duration": 0.06231300000000317
                },
                {
                    "name": "D#4",
                    "midi": 63,
                    "time": 100.0746780000009,
                    "velocity": 0.5354330708661418,
                    "duration": 0.06231300000000317
                },
                {
                    "name": "D#4",
                    "midi": 63,
                    "time": 100.19930400000091,
                    "velocity": 0.5748031496062992,
                    "duration": 0.06231300000000317
                },
                {
                    "name": "D#4",
                    "midi": 63,
                    "time": 100.32393000000091,
                    "velocity": 0.5905511811023622,
                    "duration": 0.06231300000000317
                },
                {
                    "name": "D#4",
                    "midi": 63,
                    "time": 100.44855600000092,
                    "velocity": 0.6141732283464567,
                    "duration": 0.06231300000000317
                },
                {
                    "name": "D#4",
                    "midi": 63,
                    "time": 100.57318200000093,
                    "velocity": 0.6141732283464567,
                    "duration": 0.06231300000000317
                },
                {
                    "name": "G3",
                    "midi": 55,
                    "time": 100.69780800000093,
                    "velocity": 0.5905511811023622,
                    "duration": 0.12462600000000634
                },
                {
                    "name": "C#4",
                    "midi": 61,
                    "time": 100.69780800000093,
                    "velocity": 0.5905511811023622,
                    "duration": 0.12462600000000634
                },
                {
                    "name": "D#4",
                    "midi": 63,
                    "time": 100.94706000000095,
                    "velocity": 0.5039370078740157,
                    "duration": 0.06231300000000317
                },
                {
                    "name": "D#4",
                    "midi": 63,
                    "time": 101.07168600000095,
                    "velocity": 0.48031496062992124,
                    "duration": 0.06231300000000317
                },
                {
                    "name": "D#4",
                    "midi": 63,
                    "time": 101.19631200000096,
                    "velocity": 0.44881889763779526,
                    "duration": 0.06231300000000317
                },
                {
                    "name": "D#4",
                    "midi": 63,
                    "time": 101.32093800000096,
                    "velocity": 0.4330708661417323,
                    "duration": 0.06231300000000317
                },
                {
                    "name": "D#4",
                    "midi": 63,
                    "time": 101.44556400000097,
                    "velocity": 0.4015748031496063,
                    "duration": 0.06231300000000317
                },
                {
                    "name": "D#4",
                    "midi": 63,
                    "time": 101.57019000000098,
                    "velocity": 0.3937007874015748,
                    "duration": 0.06231300000000317
                },
                {
                    "name": "D4",
                    "midi": 62,
                    "time": 109.67088000000098,
                    "velocity": 0.31496062992125984,
                    "duration": 1.9940159999999878
                },
                {
                    "name": "D5",
                    "midi": 74,
                    "time": 109.67088000000098,
                    "velocity": 0.25984251968503935,
                    "duration": 0.09346949999999765
                },
                {
                    "name": "C5",
                    "midi": 72,
                    "time": 109.92013200000098,
                    "velocity": 0.2283464566929134,
                    "duration": 0.09346949999999765
                },
                {
                    "name": "A#4",
                    "midi": 70,
                    "time": 110.16938400000097,
                    "velocity": 0.2283464566929134,
                    "duration": 0.09346949999999765
                },
                {
                    "name": "A4",
                    "midi": 69,
                    "time": 110.41863600000097,
                    "velocity": 0.2283464566929134,
                    "duration": 0.09346949999999765
                },
                {
                    "name": "C5",
                    "midi": 72,
                    "time": 110.66788800000097,
                    "velocity": 0.25984251968503935,
                    "duration": 0.09346949999999765
                },
                {
                    "name": "A#4",
                    "midi": 70,
                    "time": 110.91714000000097,
                    "velocity": 0.23622047244094488,
                    "duration": 0.09346949999999765
                },
                {
                    "name": "A4",
                    "midi": 69,
                    "time": 111.16639200000097,
                    "velocity": 0.23622047244094488,
                    "duration": 0.09346949999999765
                },
                {
                    "name": "G4",
                    "midi": 67,
                    "time": 111.41564400000097,
                    "velocity": 0.23622047244094488,
                    "duration": 0.09346949999999765
                },
                {
                    "name": "D4",
                    "midi": 62,
                    "time": 111.66489600000097,
                    "velocity": 0.31496062992125984,
                    "duration": 1.9940159999999878
                },
                {
                    "name": "D5",
                    "midi": 74,
                    "time": 111.66489600000097,
                    "velocity": 0.25984251968503935,
                    "duration": 0.09346949999999765
                },
                {
                    "name": "C5",
                    "midi": 72,
                    "time": 111.91414800000096,
                    "velocity": 0.2283464566929134,
                    "duration": 0.09346949999999765
                },
                {
                    "name": "A#4",
                    "midi": 70,
                    "time": 112.16340000000096,
                    "velocity": 0.2283464566929134,
                    "duration": 0.09346949999999765
                },
                {
                    "name": "A4",
                    "midi": 69,
                    "time": 112.41265200000096,
                    "velocity": 0.2283464566929134,
                    "duration": 0.09346949999999765
                },
                {
                    "name": "C5",
                    "midi": 72,
                    "time": 112.66190400000096,
                    "velocity": 0.25984251968503935,
                    "duration": 0.09346949999999765
                },
                {
                    "name": "A#4",
                    "midi": 70,
                    "time": 112.91115600000096,
                    "velocity": 0.23622047244094488,
                    "duration": 0.09346949999999765
                },
                {
                    "name": "A4",
                    "midi": 69,
                    "time": 113.16040800000096,
                    "velocity": 0.23622047244094488,
                    "duration": 0.09346949999999765
                },
                {
                    "name": "G4",
                    "midi": 67,
                    "time": 113.40966000000095,
                    "velocity": 0.23622047244094488,
                    "duration": 0.09346949999999765
                },
                {
                    "name": "D4",
                    "midi": 62,
                    "time": 113.65891200000095,
                    "velocity": 0.31496062992125984,
                    "duration": 1.9940159999999878
                },
                {
                    "name": "A4",
                    "midi": 69,
                    "time": 113.65891200000095,
                    "velocity": 0.25984251968503935,
                    "duration": 0.09346949999999765
                },
                {
                    "name": "C5",
                    "midi": 72,
                    "time": 113.90816400000095,
                    "velocity": 0.2283464566929134,
                    "duration": 0.09346949999999765
                },
                {
                    "name": "A#4",
                    "midi": 70,
                    "time": 114.15741600000095,
                    "velocity": 0.2283464566929134,
                    "duration": 0.09346949999999765
                },
                {
                    "name": "G4",
                    "midi": 67,
                    "time": 114.40666800000095,
                    "velocity": 0.2283464566929134,
                    "duration": 0.09346949999999765
                },
                {
                    "name": "A4",
                    "midi": 69,
                    "time": 114.65592000000095,
                    "velocity": 0.25984251968503935,
                    "duration": 0.09346949999999765
                },
                {
                    "name": "F4",
                    "midi": 65,
                    "time": 114.90517200000095,
                    "velocity": 0.23622047244094488,
                    "duration": 0.09346949999999765
                },
                {
                    "name": "G4",
                    "midi": 67,
                    "time": 115.15442400000094,
                    "velocity": 0.23622047244094488,
                    "duration": 0.09346949999999765
                },
                {
                    "name": "E4",
                    "midi": 64,
                    "time": 115.40367600000094,
                    "velocity": 0.23622047244094488,
                    "duration": 0.09346949999999765
                },
                {
                    "name": "D4",
                    "midi": 62,
                    "time": 115.65292800000094,
                    "velocity": 0.31496062992125984,
                    "duration": 1.9940159999999878
                },
                {
                    "name": "A4",
                    "midi": 69,
                    "time": 115.65292800000094,
                    "velocity": 0.25984251968503935,
                    "duration": 0.09346949999999765
                },
                {
                    "name": "C5",
                    "midi": 72,
                    "time": 115.90218000000094,
                    "velocity": 0.2283464566929134,
                    "duration": 0.09346949999999765
                },
                {
                    "name": "A#4",
                    "midi": 70,
                    "time": 116.15143200000094,
                    "velocity": 0.2283464566929134,
                    "duration": 0.09346949999999765
                },
                {
                    "name": "G4",
                    "midi": 67,
                    "time": 116.40068400000094,
                    "velocity": 0.2283464566929134,
                    "duration": 0.09346949999999765
                },
                {
                    "name": "A4",
                    "midi": 69,
                    "time": 116.64993600000093,
                    "velocity": 0.25984251968503935,
                    "duration": 0.09346949999999765
                },
                {
                    "name": "F4",
                    "midi": 65,
                    "time": 116.89918800000093,
                    "velocity": 0.23622047244094488,
                    "duration": 0.09346949999999765
                },
                {
                    "name": "A4",
                    "midi": 69,
                    "time": 117.14844000000093,
                    "velocity": 0.23622047244094488,
                    "duration": 0.09346949999999765
                },
                {
                    "name": "D5",
                    "midi": 74,
                    "time": 117.39769200000093,
                    "velocity": 0.23622047244094488,
                    "duration": 0.09346949999999765
                },
                {
                    "name": "C#5",
                    "midi": 73,
                    "time": 117.64694400000093,
                    "velocity": 0.3700787401574803,
                    "duration": 0.12462600000000634
                },
                {
                    "name": "A5",
                    "midi": 81,
                    "time": 117.89619600000094,
                    "velocity": 0.30708661417322836,
                    "duration": 0.12462600000000634
                },
                {
                    "name": "C#5",
                    "midi": 73,
                    "time": 118.14544800000095,
                    "velocity": 0.25984251968503935,
                    "duration": 0.12462600000000634
                },
                {
                    "name": "A5",
                    "midi": 81,
                    "time": 118.39470000000097,
                    "velocity": 0.2677165354330709,
                    "duration": 0.12462600000000634
                },
                {
                    "name": "C#5",
                    "midi": 73,
                    "time": 118.64395200000098,
                    "velocity": 0.33070866141732286,
                    "duration": 0.12462600000000634
                },
                {
                    "name": "G5",
                    "midi": 79,
                    "time": 118.89320400000099,
                    "velocity": 0.3228346456692913,
                    "duration": 0.12462600000000634
                },
                {
                    "name": "C#5",
                    "midi": 73,
                    "time": 119.142456000001,
                    "velocity": 0.28346456692913385,
                    "duration": 0.12462600000000634
                },
                {
                    "name": "G5",
                    "midi": 79,
                    "time": 119.39170800000102,
                    "velocity": 0.29133858267716534,
                    "duration": 0.12462600000000634
                },
                {
                    "name": "A#4",
                    "midi": 70,
                    "time": 119.64096000000103,
                    "velocity": 0.36220472440944884,
                    "duration": 1.9940160000001015
                },
                {
                    "name": "C#5",
                    "midi": 73,
                    "time": 119.64096000000103,
                    "velocity": 0.4251968503937008,
                    "duration": 0.12462600000000634
                },
                {
                    "name": "A#5",
                    "midi": 82,
                    "time": 119.89021200000104,
                    "velocity": 0.3464566929133858,
                    "duration": 0.12462600000000634
                },
                {
                    "name": "C#5",
                    "midi": 73,
                    "time": 120.13946400000106,
                    "velocity": 0.29133858267716534,
                    "duration": 0.12462600000000634
                },
                {
                    "name": "A#5",
                    "midi": 82,
                    "time": 120.38871600000107,
                    "velocity": 0.28346456692913385,
                    "duration": 0.12462600000000634
                },
                {
                    "name": "C#5",
                    "midi": 73,
                    "time": 120.63796800000108,
                    "velocity": 0.3464566929133858,
                    "duration": 0.12462600000000634
                },
                {
                    "name": "A#5",
                    "midi": 82,
                    "time": 120.8872200000011,
                    "velocity": 0.3228346456692913,
                    "duration": 0.12462600000000634
                },
                {
                    "name": "C#5",
                    "midi": 73,
                    "time": 121.1364720000011,
                    "velocity": 0.2755905511811024,
                    "duration": 0.12462600000000634
                },
                {
                    "name": "A#5",
                    "midi": 82,
                    "time": 121.38572400000112,
                    "velocity": 0.2755905511811024,
                    "duration": 0.12462600000000634
                },
                {
                    "name": "C#5",
                    "midi": 73,
                    "time": 121.63497600000113,
                    "velocity": 0.3700787401574803,
                    "duration": 0.12462600000000634
                },
                {
                    "name": "A5",
                    "midi": 81,
                    "time": 121.88422800000114,
                    "velocity": 0.30708661417322836,
                    "duration": 0.12462600000000634
                },
                {
                    "name": "C#5",
                    "midi": 73,
                    "time": 122.13348000000116,
                    "velocity": 0.25984251968503935,
                    "duration": 0.12462600000000634
                },
                {
                    "name": "A5",
                    "midi": 81,
                    "time": 122.38273200000117,
                    "velocity": 0.25984251968503935,
                    "duration": 0.12462600000000634
                },
                {
                    "name": "C#5",
                    "midi": 73,
                    "time": 122.63198400000118,
                    "velocity": 0.31496062992125984,
                    "duration": 0.12462600000000634
                },
                {
                    "name": "G5",
                    "midi": 79,
                    "time": 122.8812360000012,
                    "velocity": 0.2992125984251969,
                    "duration": 0.12462600000000634
                },
                {
                    "name": "C#5",
                    "midi": 73,
                    "time": 123.13048800000121,
                    "velocity": 0.25984251968503935,
                    "duration": 0.12462600000000634
                },
                {
                    "name": "G5",
                    "midi": 79,
                    "time": 123.37974000000122,
                    "velocity": 0.25984251968503935,
                    "duration": 0.12462600000000634
                },
                {
                    "name": "A#4",
                    "midi": 70,
                    "time": 123.62899200000123,
                    "velocity": 0.36220472440944884,
                    "duration": 0.9970080000000507
                },
                {
                    "name": "C#5",
                    "midi": 73,
                    "time": 123.62899200000123,
                    "velocity": 0.4251968503937008,
                    "duration": 0.12462600000000634
                },
                {
                    "name": "A#5",
                    "midi": 82,
                    "time": 123.87824400000125,
                    "velocity": 0.3464566929133858,
                    "duration": 0.12462600000000634
                },
                {
                    "name": "C#5",
                    "midi": 73,
                    "time": 124.12749600000126,
                    "velocity": 0.28346456692913385,
                    "duration": 0.12462600000000634
                },
                {
                    "name": "A#5",
                    "midi": 82,
                    "time": 124.37674800000127,
                    "velocity": 0.28346456692913385,
                    "duration": 0.12462600000000634
                },
                {
                    "name": "G4",
                    "midi": 67,
                    "time": 124.62600000000128,
                    "velocity": 0.33858267716535434,
                    "duration": 0.9970080000000507
                },
                {
                    "name": "A#4",
                    "midi": 70,
                    "time": 124.62600000000128,
                    "velocity": 0.33858267716535434,
                    "duration": 0.12462600000000634
                },
                {
                    "name": "G5",
                    "midi": 79,
                    "time": 124.8752520000013,
                    "velocity": 0.31496062992125984,
                    "duration": 0.12462600000000634
                },
                {
                    "name": "A#4",
                    "midi": 70,
                    "time": 125.12450400000131,
                    "velocity": 0.2677165354330709,
                    "duration": 0.12462600000000634
                },
                {
                    "name": "G5",
                    "midi": 79,
                    "time": 125.37375600000132,
                    "velocity": 0.25984251968503935,
                    "duration": 0.12462600000000634
                },
                {
                    "name": "E4",
                    "midi": 64,
                    "time": 125.62300800000133,
                    "velocity": 0.36220472440944884,
                    "duration": 0.9970080000000507
                },
                {
                    "name": "G4",
                    "midi": 67,
                    "time": 125.62300800000133,
                    "velocity": 0.4251968503937008,
                    "duration": 0.12462600000000634
                },
                {
                    "name": "E5",
                    "midi": 76,
                    "time": 125.87226000000135,
                    "velocity": 0.3464566929133858,
                    "duration": 0.12462600000000634
                },
                {
                    "name": "G4",
                    "midi": 67,
                    "time": 126.12151200000136,
                    "velocity": 0.28346456692913385,
                    "duration": 0.12462600000000634
                },
                {
                    "name": "E5",
                    "midi": 76,
                    "time": 126.37076400000137,
                    "velocity": 0.28346456692913385,
                    "duration": 0.12462600000000634
                },
                {
                    "name": "C#4",
                    "midi": 61,
                    "time": 126.62001600000139,
                    "velocity": 0.33858267716535434,
                    "duration": 0.9970080000000507
                },
                {
                    "name": "E4",
                    "midi": 64,
                    "time": 126.62001600000139,
                    "velocity": 0.33858267716535434,
                    "duration": 0.12462600000000634
                },
                {
                    "name": "C#5",
                    "midi": 73,
                    "time": 126.8692680000014,
                    "velocity": 0.31496062992125984,
                    "duration": 0.12462600000000634
                },
                {
                    "name": "E4",
                    "midi": 64,
                    "time": 127.11852000000141,
                    "velocity": 0.2677165354330709,
                    "duration": 0.12462600000000634
                },
                {
                    "name": "C#5",
                    "midi": 73,
                    "time": 127.36777200000142,
                    "velocity": 0.25984251968503935,
                    "duration": 0.12462600000000634
                },
                {
                    "name": "G3",
                    "midi": 55,
                    "time": 127.61702400000144,
                    "velocity": 0.33858267716535434,
                    "duration": 1.994016000000073
                },
                {
                    "name": "C#4",
                    "midi": 61,
                    "time": 127.86627600000143,
                    "velocity": 0.30708661417322836,
                    "duration": 0.12462600000000634
                },
                {
                    "name": "C#4",
                    "midi": 61,
                    "time": 128.11552800000143,
                    "velocity": 0.25984251968503935,
                    "duration": 0.12462600000000634
                },
                {
                    "name": "C#4",
                    "midi": 61,
                    "time": 128.36478000000145,
                    "velocity": 0.25984251968503935,
                    "duration": 0.12462600000000634
                },
                {
                    "name": "A4",
                    "midi": 69,
                    "time": 128.61403200000146,
                    "velocity": 0.36220472440944884,
                    "duration": 0.12462600000000634
                },
                {
                    "name": "C#4",
                    "midi": 61,
                    "time": 128.86328400000147,
                    "velocity": 0.2992125984251969,
                    "duration": 0.12462600000000634
                },
                {
                    "name": "G4",
                    "midi": 67,
                    "time": 129.11253600000148,
                    "velocity": 0.3228346456692913,
                    "duration": 0.12462600000000634
                },
                {
                    "name": "C#4",
                    "midi": 61,
                    "time": 129.3617880000015,
                    "velocity": 0.25984251968503935,
                    "duration": 0.12462600000000634
                },
                {
                    "name": "C#4",
                    "midi": 61,
                    "time": 129.6110400000015,
                    "velocity": 0.31496062992125984,
                    "duration": 0.12462600000000634
                },
                {
                    "name": "G3",
                    "midi": 55,
                    "time": 129.73566600000152,
                    "velocity": 0.30708661417322836,
                    "duration": 0.12462600000000634
                },
                {
                    "name": "C#4",
                    "midi": 61,
                    "time": 129.86029200000152,
                    "velocity": 0.2755905511811024,
                    "duration": 0.12462600000000634
                },
                {
                    "name": "G3",
                    "midi": 55,
                    "time": 129.98491800000153,
                    "velocity": 0.2677165354330709,
                    "duration": 0.12462600000000634
                },
                {
                    "name": "C#4",
                    "midi": 61,
                    "time": 130.10954400000153,
                    "velocity": 0.2677165354330709,
                    "duration": 0.12462600000000634
                },
                {
                    "name": "G3",
                    "midi": 55,
                    "time": 130.23417000000154,
                    "velocity": 0.25984251968503935,
                    "duration": 0.12462600000000634
                },
                {
                    "name": "C#4",
                    "midi": 61,
                    "time": 130.35879600000155,
                    "velocity": 0.25984251968503935,
                    "duration": 0.12462600000000634
                },
                {
                    "name": "G3",
                    "midi": 55,
                    "time": 130.48342200000155,
                    "velocity": 0.25984251968503935,
                    "duration": 0.12462600000000634
                },
                {
                    "name": "C#4",
                    "midi": 61,
                    "time": 130.60804800000156,
                    "velocity": 0.25984251968503935,
                    "duration": 0.12462600000000634
                },
                {
                    "name": "G3",
                    "midi": 55,
                    "time": 130.73267400000157,
                    "velocity": 0.25196850393700787,
                    "duration": 0.12462600000000634
                },
                {
                    "name": "C#4",
                    "midi": 61,
                    "time": 130.85730000000157,
                    "velocity": 0.2440944881889764,
                    "duration": 0.12462600000000634
                },
                {
                    "name": "G3",
                    "midi": 55,
                    "time": 130.98192600000158,
                    "velocity": 0.23622047244094488,
                    "duration": 0.12462600000000634
                },
                {
                    "name": "C#4",
                    "midi": 61,
                    "time": 131.10655200000159,
                    "velocity": 0.23622047244094488,
                    "duration": 0.12462600000000634
                },
                {
                    "name": "G3",
                    "midi": 55,
                    "time": 131.2311780000016,
                    "velocity": 0.23622047244094488,
                    "duration": 0.12462600000000634
                },
                {
                    "name": "C#4",
                    "midi": 61,
                    "time": 131.3558040000016,
                    "velocity": 0.23622047244094488,
                    "duration": 0.12462600000000634
                },
                {
                    "name": "G3",
                    "midi": 55,
                    "time": 131.4804300000016,
                    "velocity": 0.23622047244094488,
                    "duration": 0.09346949999999765
                },
                {
                    "name": "F#3",
                    "midi": 54,
                    "time": 131.6050560000016,
                    "velocity": 0.2283464566929134,
                    "duration": 0.12462600000000634
                },
                {
                    "name": "C#4",
                    "midi": 61,
                    "time": 131.72968200000162,
                    "velocity": 0.18110236220472442,
                    "duration": 0.12462600000000634
                },
                {
                    "name": "F#3",
                    "midi": 54,
                    "time": 131.85430800000162,
                    "velocity": 0.1968503937007874,
                    "duration": 0.12462600000000634
                },
                {
                    "name": "C#4",
                    "midi": 61,
                    "time": 131.97893400000163,
                    "velocity": 0.18110236220472442,
                    "duration": 0.12462600000000634
                },
                {
                    "name": "F#3",
                    "midi": 54,
                    "time": 132.10356000000164,
                    "velocity": 0.2283464566929134,
                    "duration": 0.12462600000000634
                },
                {
                    "name": "C#4",
                    "midi": 61,
                    "time": 132.22818600000164,
                    "velocity": 0.18110236220472442,
                    "duration": 0.12462600000000634
                },
                {
                    "name": "F#3",
                    "midi": 54,
                    "time": 132.35281200000165,
                    "velocity": 0.1968503937007874,
                    "duration": 0.12462600000000634
                },
                {
                    "name": "C#4",
                    "midi": 61,
                    "time": 132.47743800000165,
                    "velocity": 0.18110236220472442,
                    "duration": 0.12462600000000634
                },
                {
                    "name": "F#3",
                    "midi": 54,
                    "time": 132.60206400000166,
                    "velocity": 0.2283464566929134,
                    "duration": 0.12462600000000634
                },
                {
                    "name": "C#4",
                    "midi": 61,
                    "time": 132.72669000000167,
                    "velocity": 0.18110236220472442,
                    "duration": 0.12462600000000634
                },
                {
                    "name": "F#3",
                    "midi": 54,
                    "time": 132.85131600000167,
                    "velocity": 0.1968503937007874,
                    "duration": 0.12462600000000634
                },
                {
                    "name": "C#4",
                    "midi": 61,
                    "time": 132.97594200000168,
                    "velocity": 0.18110236220472442,
                    "duration": 0.12462600000000634
                },
                {
                    "name": "F#3",
                    "midi": 54,
                    "time": 133.1005680000017,
                    "velocity": 0.2283464566929134,
                    "duration": 0.12462600000000634
                },
                {
                    "name": "C#4",
                    "midi": 61,
                    "time": 133.2251940000017,
                    "velocity": 0.18110236220472442,
                    "duration": 0.12462600000000634
                },
                {
                    "name": "F#3",
                    "midi": 54,
                    "time": 133.3498200000017,
                    "velocity": 0.1968503937007874,
                    "duration": 0.12462600000000634
                },
                {
                    "name": "C#4",
                    "midi": 61,
                    "time": 133.4744460000017,
                    "velocity": 0.18110236220472442,
                    "duration": 0.12462600000000634
                },
                {
                    "name": "F#3",
                    "midi": 54,
                    "time": 133.5990720000017,
                    "velocity": 0.2283464566929134,
                    "duration": 0.12462600000000634
                },
                {
                    "name": "C#4",
                    "midi": 61,
                    "time": 133.72369800000172,
                    "velocity": 0.18110236220472442,
                    "duration": 0.12462600000000634
                },
                {
                    "name": "F#3",
                    "midi": 54,
                    "time": 133.84832400000172,
                    "velocity": 0.1968503937007874,
                    "duration": 0.12462600000000634
                },
                {
                    "name": "C#4",
                    "midi": 61,
                    "time": 133.97295000000173,
                    "velocity": 0.18110236220472442,
                    "duration": 0.12462600000000634
                },
                {
                    "name": "F#4",
                    "midi": 66,
                    "time": 134.09757600000174,
                    "velocity": 0.2283464566929134,
                    "duration": 0.12462600000000634
                },
                {
                    "name": "C#5",
                    "midi": 73,
                    "time": 134.22220200000174,
                    "velocity": 0.18110236220472442,
                    "duration": 0.12462600000000634
                },
                {
                    "name": "F#4",
                    "midi": 66,
                    "time": 134.34682800000175,
                    "velocity": 0.1968503937007874,
                    "duration": 0.12462600000000634
                },
                {
                    "name": "C#5",
                    "midi": 73,
                    "time": 134.47145400000176,
                    "velocity": 0.18110236220472442,
                    "duration": 0.12462600000000634
                },
                {
                    "name": "F#4",
                    "midi": 66,
                    "time": 134.59608000000176,
                    "velocity": 0.28346456692913385,
                    "duration": 0.24925200000001269
                },
                {
                    "name": "E4",
                    "midi": 64,
                    "time": 136.59009600000178,
                    "velocity": 0.2047244094488189,
                    "duration": 0.24925200000001269
                },
                {
                    "name": "D4",
                    "midi": 62,
                    "time": 136.59009600000178,
                    "velocity": 0.2047244094488189,
                    "duration": 0.9970080000000507
                },
                {
                    "name": "F4",
                    "midi": 65,
                    "time": 136.8393480000018,
                    "velocity": 0.18110236220472442,
                    "duration": 0.24925200000001269
                },
                {
                    "name": "G4",
                    "midi": 67,
                    "time": 137.0886000000018,
                    "velocity": 0.15748031496062992,
                    "duration": 0.24925200000001269
                },
                {
                    "name": "A4",
                    "midi": 69,
                    "time": 137.33785200000182,
                    "velocity": 0.15748031496062992,
                    "duration": 0.24925200000001269
                },
                {
                    "name": "E5",
                    "midi": 76,
                    "time": 138.58411200000182,
                    "velocity": 0.2047244094488189,
                    "duration": 0.24925200000001269
                },
                {
                    "name": "D5",
                    "midi": 74,
                    "time": 138.58411200000182,
                    "velocity": 0.2047244094488189,
                    "duration": 0.9970080000000507
                },
                {
                    "name": "F5",
                    "midi": 77,
                    "time": 138.83336400000184,
                    "velocity": 0.18110236220472442,
                    "duration": 0.24925200000001269
                },
                {
                    "name": "G5",
                    "midi": 79,
                    "time": 139.08261600000185,
                    "velocity": 0.15748031496062992,
                    "duration": 0.24925200000001269
                },
                {
                    "name": "A5",
                    "midi": 81,
                    "time": 139.33186800000186,
                    "velocity": 0.15748031496062992,
                    "duration": 0.24925200000001269
                },
                {
                    "name": "A5",
                    "midi": 81,
                    "time": 140.07962400000187,
                    "velocity": 0.18110236220472442,
                    "duration": 0.24925200000001269
                },
                {
                    "name": "D5",
                    "midi": 74,
                    "time": 140.07962400000187,
                    "velocity": 0.18110236220472442,
                    "duration": 0.24925200000001269
                },
                {
                    "name": "D6",
                    "midi": 86,
                    "time": 140.5781280000019,
                    "velocity": 0.18110236220472442,
                    "duration": 0.24925200000001269
                },
                {
                    "name": "D5",
                    "midi": 74,
                    "time": 141.07663200000192,
                    "velocity": 0.18110236220472442,
                    "duration": 0.24925200000001269
                },
                {
                    "name": "A5",
                    "midi": 81,
                    "time": 141.07663200000192,
                    "velocity": 0.18110236220472442,
                    "duration": 0.24925200000001269
                },
                {
                    "name": "D6",
                    "midi": 86,
                    "time": 141.57513600000195,
                    "velocity": 0.18110236220472442,
                    "duration": 0.24925200000001269
                },
                {
                    "name": "A5",
                    "midi": 81,
                    "time": 142.07364000000197,
                    "velocity": 0.18110236220472442,
                    "duration": 0.24925200000001269
                },
                {
                    "name": "D5",
                    "midi": 74,
                    "time": 142.07364000000197,
                    "velocity": 0.18110236220472442,
                    "duration": 0.24925200000001269
                },
                {
                    "name": "D6",
                    "midi": 86,
                    "time": 142.572144000002,
                    "velocity": 0.18110236220472442,
                    "duration": 0.24925200000001269
                },
                {
                    "name": "D5",
                    "midi": 74,
                    "time": 143.07064800000202,
                    "velocity": 0.18110236220472442,
                    "duration": 0.24925200000001269
                },
                {
                    "name": "A5",
                    "midi": 81,
                    "time": 143.07064800000202,
                    "velocity": 0.18110236220472442,
                    "duration": 0.24925200000001269
                },
                {
                    "name": "D6",
                    "midi": 86,
                    "time": 143.56915200000205,
                    "velocity": 0.18110236220472442,
                    "duration": 1.9940159999999878
                }
            ],
            "controlChanges": {},
            "id": 2,
            "name": "Piano left",
            "instrumentNumber": 0,
            "instrument": "acoustic grand piano",
            "instrumentFamily": "piano",
            "channelNumber": 0,
            "isPercussion": false
        },
        {
            "startTime": 0,
            "duration": 0,
            "length": 0,
            "notes": [],
            "controlChanges": {
                "64": [
                    {
                        "number": 64,
                        "time": 4.04722935,
                        "value": 1
                    },
                    {
                        "number": 64,
                        "time": 4.2455924000000005,
                        "value": 0
                    },
                    {
                        "number": 64,
                        "time": 4.318290900000001,
                        "value": 1
                    },
                    {
                        "number": 64,
                        "time": 4.500037150000001,
                        "value": 0
                    },
                    {
                        "number": 64,
                        "time": 4.603892150000001,
                        "value": 1
                    },
                    {
                        "number": 64,
                        "time": 4.749289150000001,
                        "value": 0
                    },
                    {
                        "number": 64,
                        "time": 4.8167949000000005,
                        "value": 1
                    },
                    {
                        "number": 64,
                        "time": 5.0006182500000005,
                        "value": 0
                    },
                    {
                        "number": 64,
                        "time": 5.102396150000001,
                        "value": 1
                    },
                    {
                        "number": 64,
                        "time": 5.2488317,
                        "value": 0
                    },
                    {
                        "number": 64,
                        "time": 5.32256875,
                        "value": 1
                    },
                    {
                        "number": 64,
                        "time": 5.49704515,
                        "value": 0
                    },
                    {
                        "number": 64,
                        "time": 5.57182075,
                        "value": 1
                    },
                    {
                        "number": 64,
                        "time": 5.7369502,
                        "value": 0
                    },
                    {
                        "number": 64,
                        "time": 5.79199335,
                        "value": 1
                    },
                    {
                        "number": 64,
                        "time": 5.91661935,
                        "value": 0
                    },
                    {
                        "number": 64,
                        "time": 6.048515200000001,
                        "value": 1
                    },
                    {
                        "number": 64,
                        "time": 6.239608400000001,
                        "value": 0
                    },
                    {
                        "number": 64,
                        "time": 6.312306900000001,
                        "value": 1
                    },
                    {
                        "number": 64,
                        "time": 6.494053150000001,
                        "value": 0
                    },
                    {
                        "number": 64,
                        "time": 6.547019200000001,
                        "value": 1
                    },
                    {
                        "number": 64,
                        "time": 6.743305150000001,
                        "value": 0
                    },
                    {
                        "number": 64,
                        "time": 6.810810900000001,
                        "value": 1
                    },
                    {
                        "number": 64,
                        "time": 6.994634250000001,
                        "value": 0
                    },
                    {
                        "number": 64,
                        "time": 7.060062900000001,
                        "value": 1
                    },
                    {
                        "number": 64,
                        "time": 7.242847700000001,
                        "value": 0
                    },
                    {
                        "number": 64,
                        "time": 7.316584750000001,
                        "value": 1
                    },
                    {
                        "number": 64,
                        "time": 7.491061150000001,
                        "value": 0
                    },
                    {
                        "number": 64,
                        "time": 7.565836750000001,
                        "value": 1
                    },
                    {
                        "number": 64,
                        "time": 7.730966200000001,
                        "value": 0
                    },
                    {
                        "number": 64,
                        "time": 7.786009350000001,
                        "value": 1
                    },
                    {
                        "number": 64,
                        "time": 7.9106353500000015,
                        "value": 0
                    },
                    {
                        "number": 64,
                        "time": 8.057070900000001,
                        "value": 1
                    },
                    {
                        "number": 64,
                        "time": 8.233624400000002,
                        "value": 0
                    },
                    {
                        "number": 64,
                        "time": 8.306322900000001,
                        "value": 1
                    },
                    {
                        "number": 64,
                        "time": 8.488069150000001,
                        "value": 0
                    },
                    {
                        "number": 64,
                        "time": 8.555574900000002,
                        "value": 1
                    },
                    {
                        "number": 64,
                        "time": 8.737321150000001,
                        "value": 0
                    },
                    {
                        "number": 64,
                        "time": 8.804826900000002,
                        "value": 1
                    },
                    {
                        "number": 64,
                        "time": 8.988650250000003,
                        "value": 0
                    },
                    {
                        "number": 64,
                        "time": 9.039539200000002,
                        "value": 1
                    },
                    {
                        "number": 64,
                        "time": 9.236863700000002,
                        "value": 0
                    },
                    {
                        "number": 64,
                        "time": 9.310600750000003,
                        "value": 1
                    },
                    {
                        "number": 64,
                        "time": 9.485077150000002,
                        "value": 0
                    },
                    {
                        "number": 64,
                        "time": 9.559852750000003,
                        "value": 1
                    },
                    {
                        "number": 64,
                        "time": 9.724982200000003,
                        "value": 0
                    },
                    {
                        "number": 64,
                        "time": 9.780025350000003,
                        "value": 1
                    },
                    {
                        "number": 64,
                        "time": 9.904651350000002,
                        "value": 0
                    },
                    {
                        "number": 64,
                        "time": 10.051086900000001,
                        "value": 1
                    },
                    {
                        "number": 64,
                        "time": 10.227640400000002,
                        "value": 0
                    },
                    {
                        "number": 64,
                        "time": 10.300338900000002,
                        "value": 1
                    },
                    {
                        "number": 64,
                        "time": 10.482085150000001,
                        "value": 0
                    },
                    {
                        "number": 64,
                        "time": 10.549590900000002,
                        "value": 1
                    },
                    {
                        "number": 64,
                        "time": 10.731337150000002,
                        "value": 0
                    },
                    {
                        "number": 64,
                        "time": 10.798842900000002,
                        "value": 1
                    },
                    {
                        "number": 64,
                        "time": 10.982666250000003,
                        "value": 0
                    },
                    {
                        "number": 64,
                        "time": 11.055364750000003,
                        "value": 1
                    },
                    {
                        "number": 64,
                        "time": 11.230879700000003,
                        "value": 0
                    },
                    {
                        "number": 64,
                        "time": 11.304616750000003,
                        "value": 1
                    },
                    {
                        "number": 64,
                        "time": 11.479093150000002,
                        "value": 0
                    },
                    {
                        "number": 64,
                        "time": 11.553868750000003,
                        "value": 1
                    },
                    {
                        "number": 64,
                        "time": 11.718998200000003,
                        "value": 0
                    },
                    {
                        "number": 64,
                        "time": 11.774041350000003,
                        "value": 1
                    },
                    {
                        "number": 64,
                        "time": 11.898667350000002,
                        "value": 0
                    },
                    {
                        "number": 64,
                        "time": 12.023293350000001,
                        "value": 1
                    },
                    {
                        "number": 64,
                        "time": 12.2216564,
                        "value": 0
                    },
                    {
                        "number": 64,
                        "time": 12.2943549,
                        "value": 1
                    },
                    {
                        "number": 64,
                        "time": 12.47610115,
                        "value": 0
                    },
                    {
                        "number": 64,
                        "time": 12.53633705,
                        "value": 1
                    },
                    {
                        "number": 64,
                        "time": 12.72535315,
                        "value": 0
                    },
                    {
                        "number": 64,
                        "time": 12.7928589,
                        "value": 1
                    },
                    {
                        "number": 64,
                        "time": 12.976682250000001,
                        "value": 0
                    },
                    {
                        "number": 64,
                        "time": 13.0421109,
                        "value": 1
                    },
                    {
                        "number": 64,
                        "time": 13.224895700000001,
                        "value": 0
                    },
                    {
                        "number": 64,
                        "time": 13.298632750000001,
                        "value": 1
                    },
                    {
                        "number": 64,
                        "time": 13.47310915,
                        "value": 0
                    },
                    {
                        "number": 64,
                        "time": 13.547884750000001,
                        "value": 1
                    },
                    {
                        "number": 64,
                        "time": 13.713014200000002,
                        "value": 0
                    },
                    {
                        "number": 64,
                        "time": 13.768057350000001,
                        "value": 1
                    },
                    {
                        "number": 64,
                        "time": 13.89268335,
                        "value": 0
                    },
                    {
                        "number": 64,
                        "time": 14.0536586,
                        "value": 1
                    },
                    {
                        "number": 64,
                        "time": 14.2156724,
                        "value": 0
                    },
                    {
                        "number": 64,
                        "time": 14.2883709,
                        "value": 1
                    },
                    {
                        "number": 64,
                        "time": 14.47011715,
                        "value": 0
                    },
                    {
                        "number": 64,
                        "time": 14.53035305,
                        "value": 1
                    },
                    {
                        "number": 64,
                        "time": 14.71936915,
                        "value": 0
                    },
                    {
                        "number": 64,
                        "time": 14.7868749,
                        "value": 1
                    },
                    {
                        "number": 64,
                        "time": 14.970698250000002,
                        "value": 0
                    },
                    {
                        "number": 64,
                        "time": 15.072476150000002,
                        "value": 1
                    },
                    {
                        "number": 64,
                        "time": 15.218911700000001,
                        "value": 0
                    },
                    {
                        "number": 64,
                        "time": 15.292648750000001,
                        "value": 1
                    },
                    {
                        "number": 64,
                        "time": 15.467125150000001,
                        "value": 0
                    },
                    {
                        "number": 64,
                        "time": 15.541900750000002,
                        "value": 1
                    },
                    {
                        "number": 64,
                        "time": 15.707030200000002,
                        "value": 0
                    },
                    {
                        "number": 64,
                        "time": 15.762073350000001,
                        "value": 1
                    },
                    {
                        "number": 64,
                        "time": 15.88669935,
                        "value": 0
                    },
                    {
                        "number": 64,
                        "time": 16.02586505,
                        "value": 1
                    },
                    {
                        "number": 64,
                        "time": 16.2096884,
                        "value": 0
                    },
                    {
                        "number": 64,
                        "time": 16.282386900000002,
                        "value": 1
                    },
                    {
                        "number": 64,
                        "time": 16.464133150000002,
                        "value": 0
                    },
                    {
                        "number": 64,
                        "time": 16.5316389,
                        "value": 1
                    },
                    {
                        "number": 64,
                        "time": 16.71338515,
                        "value": 0
                    },
                    {
                        "number": 64,
                        "time": 16.7808909,
                        "value": 1
                    },
                    {
                        "number": 64,
                        "time": 16.96471425,
                        "value": 0
                    },
                    {
                        "number": 64,
                        "time": 17.0156032,
                        "value": 1
                    },
                    {
                        "number": 64,
                        "time": 17.2129277,
                        "value": 0
                    },
                    {
                        "number": 64,
                        "time": 17.28666475,
                        "value": 1
                    },
                    {
                        "number": 64,
                        "time": 17.46114115,
                        "value": 0
                    },
                    {
                        "number": 64,
                        "time": 17.53591675,
                        "value": 1
                    },
                    {
                        "number": 64,
                        "time": 17.701046199999997,
                        "value": 0
                    },
                    {
                        "number": 64,
                        "time": 17.756089349999996,
                        "value": 1
                    },
                    {
                        "number": 64,
                        "time": 17.880715349999996,
                        "value": 0
                    },
                    {
                        "number": 64,
                        "time": 18.027150899999995,
                        "value": 1
                    },
                    {
                        "number": 64,
                        "time": 18.203704399999996,
                        "value": 0
                    },
                    {
                        "number": 64,
                        "time": 18.240053649999997,
                        "value": 1
                    },
                    {
                        "number": 64,
                        "time": 18.458149149999997,
                        "value": 0
                    },
                    {
                        "number": 64,
                        "time": 18.525654899999996,
                        "value": 1
                    },
                    {
                        "number": 64,
                        "time": 18.707401149999995,
                        "value": 0
                    },
                    {
                        "number": 64,
                        "time": 18.748943149999995,
                        "value": 1
                    },
                    {
                        "number": 64,
                        "time": 18.958730249999995,
                        "value": 0
                    },
                    {
                        "number": 64,
                        "time": 19.024158899999996,
                        "value": 1
                    },
                    {
                        "number": 64,
                        "time": 19.206943699999997,
                        "value": 0
                    },
                    {
                        "number": 64,
                        "time": 19.247447149999996,
                        "value": 1
                    },
                    {
                        "number": 64,
                        "time": 19.455157149999994,
                        "value": 0
                    },
                    {
                        "number": 64,
                        "time": 19.503968999999994,
                        "value": 1
                    },
                    {
                        "number": 64,
                        "time": 19.695062199999995,
                        "value": 0
                    },
                    {
                        "number": 64,
                        "time": 19.750105349999995,
                        "value": 1
                    },
                    {
                        "number": 64,
                        "time": 19.874731349999994,
                        "value": 0
                    },
                    {
                        "number": 64,
                        "time": 19.976509249999992,
                        "value": 1
                    },
                    {
                        "number": 64,
                        "time": 20.95586189999999,
                        "value": 0
                    },
                    {
                        "number": 64,
                        "time": 21.020251999999992,
                        "value": 1
                    },
                    {
                        "number": 64,
                        "time": 21.934175999999994,
                        "value": 0
                    },
                    {
                        "number": 64,
                        "time": 22.023491299999993,
                        "value": 1
                    },
                    {
                        "number": 64,
                        "time": 23.928191999999992,
                        "value": 0
                    },
                    {
                        "number": 64,
                        "time": 24.02373859999999,
                        "value": 1
                    },
                    {
                        "number": 64,
                        "time": 24.943893899999992,
                        "value": 0
                    },
                    {
                        "number": 64,
                        "time": 25.008283999999993,
                        "value": 1
                    },
                    {
                        "number": 64,
                        "time": 25.922207999999994,
                        "value": 0
                    },
                    {
                        "number": 64,
                        "time": 26.011523299999993,
                        "value": 1
                    },
                    {
                        "number": 64,
                        "time": 26.930640049999994,
                        "value": 0
                    },
                    {
                        "number": 64,
                        "time": 27.056304599999994,
                        "value": 1
                    },
                    {
                        "number": 64,
                        "time": 27.916223999999993,
                        "value": 0
                    },
                    {
                        "number": 64,
                        "time": 28.00553929999999,
                        "value": 1
                    },
                    {
                        "number": 64,
                        "time": 28.924656049999992,
                        "value": 0
                    },
                    {
                        "number": 64,
                        "time": 29.050320599999992,
                        "value": 1
                    },
                    {
                        "number": 64,
                        "time": 29.91023999999999,
                        "value": 0
                    },
                    {
                        "number": 64,
                        "time": 30.00578659999999,
                        "value": 1
                    },
                    {
                        "number": 64,
                        "time": 31.90425599999999,
                        "value": 0
                    },
                    {
                        "number": 64,
                        "time": 31.99357129999999,
                        "value": 1
                    },
                    {
                        "number": 64,
                        "time": 32.912688049999986,
                        "value": 0
                    },
                    {
                        "number": 64,
                        "time": 33.03835259999999,
                        "value": 1
                    },
                    {
                        "number": 64,
                        "time": 33.89827199999999,
                        "value": 0
                    },
                    {
                        "number": 64,
                        "time": 33.987587299999994,
                        "value": 1
                    },
                    {
                        "number": 64,
                        "time": 35.89228799999999,
                        "value": 0
                    },
                    {
                        "number": 64,
                        "time": 35.981603299999996,
                        "value": 1
                    },
                    {
                        "number": 64,
                        "time": 36.90072005,
                        "value": 0
                    },
                    {
                        "number": 64,
                        "time": 37.0263846,
                        "value": 1
                    },
                    {
                        "number": 64,
                        "time": 37.886304,
                        "value": 0
                    },
                    {
                        "number": 64,
                        "time": 37.975619300000005,
                        "value": 1
                    },
                    {
                        "number": 64,
                        "time": 38.8957746,
                        "value": 0
                    },
                    {
                        "number": 64,
                        "time": 38.945625,
                        "value": 1
                    },
                    {
                        "number": 64,
                        "time": 39.88032,
                        "value": 0
                    },
                    {
                        "number": 64,
                        "time": 39.9696353,
                        "value": 1
                    },
                    {
                        "number": 64,
                        "time": 40.8897906,
                        "value": 0
                    },
                    {
                        "number": 64,
                        "time": 40.9666433,
                        "value": 1
                    },
                    {
                        "number": 64,
                        "time": 41.874336,
                        "value": 0
                    },
                    {
                        "number": 64,
                        "time": 41.9698826,
                        "value": 1
                    },
                    {
                        "number": 64,
                        "time": 42.890037899999996,
                        "value": 0
                    },
                    {
                        "number": 64,
                        "time": 42.95442799999999,
                        "value": 1
                    },
                    {
                        "number": 64,
                        "time": 43.868351999999994,
                        "value": 0
                    },
                    {
                        "number": 64,
                        "time": 43.96389859999999,
                        "value": 1
                    },
                    {
                        "number": 64,
                        "time": 45.862368,
                        "value": 0
                    },
                    {
                        "number": 64,
                        "time": 45.957914599999995,
                        "value": 1
                    },
                    {
                        "number": 64,
                        "time": 46.87806989999999,
                        "value": 0
                    },
                    {
                        "number": 64,
                        "time": 46.94245999999999,
                        "value": 1
                    },
                    {
                        "number": 64,
                        "time": 47.85638399999999,
                        "value": 0
                    },
                    {
                        "number": 64,
                        "time": 47.95193059999999,
                        "value": 1
                    },
                    {
                        "number": 64,
                        "time": 49.85039999999999,
                        "value": 0
                    },
                    {
                        "number": 64,
                        "time": 49.94594659999999,
                        "value": 1
                    },
                    {
                        "number": 64,
                        "time": 50.86610189999999,
                        "value": 0
                    },
                    {
                        "number": 64,
                        "time": 50.93049199999999,
                        "value": 1
                    },
                    {
                        "number": 64,
                        "time": 51.84441599999999,
                        "value": 0
                    },
                    {
                        "number": 64,
                        "time": 51.93996259999999,
                        "value": 1
                    },
                    {
                        "number": 64,
                        "time": 53.83843199999999,
                        "value": 0
                    },
                    {
                        "number": 64,
                        "time": 53.93397859999999,
                        "value": 1
                    },
                    {
                        "number": 64,
                        "time": 54.85413389999999,
                        "value": 0
                    },
                    {
                        "number": 64,
                        "time": 54.918523999999984,
                        "value": 1
                    },
                    {
                        "number": 64,
                        "time": 55.832447999999985,
                        "value": 0
                    },
                    {
                        "number": 64,
                        "time": 55.927994599999984,
                        "value": 1
                    },
                    {
                        "number": 64,
                        "time": 57.82646399999999,
                        "value": 0
                    },
                    {
                        "number": 64,
                        "time": 57.885661349999985,
                        "value": 1
                    },
                    {
                        "number": 64,
                        "time": 58.08402439999998,
                        "value": 0
                    },
                    {
                        "number": 64,
                        "time": 58.156722899999984,
                        "value": 1
                    },
                    {
                        "number": 64,
                        "time": 58.33846914999999,
                        "value": 0
                    },
                    {
                        "number": 64,
                        "time": 58.38728099999999,
                        "value": 1
                    },
                    {
                        "number": 64,
                        "time": 58.587721149999986,
                        "value": 0
                    },
                    {
                        "number": 64,
                        "time": 58.65522689999999,
                        "value": 1
                    },
                    {
                        "number": 64,
                        "time": 58.839050249999985,
                        "value": 0
                    },
                    {
                        "number": 64,
                        "time": 58.90447889999999,
                        "value": 1
                    },
                    {
                        "number": 64,
                        "time": 59.08726369999999,
                        "value": 0
                    },
                    {
                        "number": 64,
                        "time": 59.161000749999985,
                        "value": 1
                    },
                    {
                        "number": 64,
                        "time": 59.33547714999999,
                        "value": 0
                    },
                    {
                        "number": 64,
                        "time": 59.41025274999999,
                        "value": 1
                    },
                    {
                        "number": 64,
                        "time": 59.57538219999999,
                        "value": 0
                    },
                    {
                        "number": 64,
                        "time": 59.630425349999996,
                        "value": 1
                    },
                    {
                        "number": 64,
                        "time": 59.755051349999995,
                        "value": 0
                    },
                    {
                        "number": 64,
                        "time": 59.820479999999996,
                        "value": 0
                    },
                    {
                        "number": 64,
                        "time": 59.879677349999994,
                        "value": 1
                    },
                    {
                        "number": 64,
                        "time": 60.07804039999999,
                        "value": 0
                    },
                    {
                        "number": 64,
                        "time": 60.15073889999999,
                        "value": 1
                    },
                    {
                        "number": 64,
                        "time": 60.33248515,
                        "value": 0
                    },
                    {
                        "number": 64,
                        "time": 60.3999909,
                        "value": 1
                    },
                    {
                        "number": 64,
                        "time": 60.58173715,
                        "value": 0
                    },
                    {
                        "number": 64,
                        "time": 60.649242900000004,
                        "value": 1
                    },
                    {
                        "number": 64,
                        "time": 60.83306625,
                        "value": 0
                    },
                    {
                        "number": 64,
                        "time": 60.8839552,
                        "value": 1
                    },
                    {
                        "number": 64,
                        "time": 61.0812797,
                        "value": 0
                    },
                    {
                        "number": 64,
                        "time": 61.15501675,
                        "value": 1
                    },
                    {
                        "number": 64,
                        "time": 61.329493150000005,
                        "value": 0
                    },
                    {
                        "number": 64,
                        "time": 61.40426875000001,
                        "value": 1
                    },
                    {
                        "number": 64,
                        "time": 61.56939820000001,
                        "value": 0
                    },
                    {
                        "number": 64,
                        "time": 61.62444135000001,
                        "value": 1
                    },
                    {
                        "number": 64,
                        "time": 61.74906735000001,
                        "value": 0
                    },
                    {
                        "number": 64,
                        "time": 61.81449600000001,
                        "value": 1
                    },
                    {
                        "number": 64,
                        "time": 63.81889750000001,
                        "value": 0
                    },
                    {
                        "number": 64,
                        "time": 63.88017195000001,
                        "value": 1
                    },
                    {
                        "number": 64,
                        "time": 65.80252800000001,
                        "value": 0
                    },
                    {
                        "number": 64,
                        "time": 65.86795665000001,
                        "value": 1
                    },
                    {
                        "number": 64,
                        "time": 66.82238410000001,
                        "value": 0
                    },
                    {
                        "number": 64,
                        "time": 66.90027535,
                        "value": 1
                    },
                    {
                        "number": 64,
                        "time": 67.796544,
                        "value": 0
                    },
                    {
                        "number": 64,
                        "time": 67.86197265,
                        "value": 1
                    },
                    {
                        "number": 64,
                        "time": 68.3116648,
                        "value": 0
                    },
                    {
                        "number": 64,
                        "time": 68.39578735,
                        "value": 1
                    },
                    {
                        "number": 64,
                        "time": 69.3107499,
                        "value": 0
                    },
                    {
                        "number": 64,
                        "time": 69.39279535,
                        "value": 1
                    },
                    {
                        "number": 64,
                        "time": 69.79056,
                        "value": 0
                    },
                    {
                        "number": 64,
                        "time": 69.86845124999999,
                        "value": 1
                    },
                    {
                        "number": 64,
                        "time": 70.80314625,
                        "value": 0
                    },
                    {
                        "number": 64,
                        "time": 70.84676535,
                        "value": 1
                    },
                    {
                        "number": 64,
                        "time": 71.784576,
                        "value": 0
                    },
                    {
                        "number": 64,
                        "time": 71.82923365,
                        "value": 1
                    },
                    {
                        "number": 64,
                        "time": 72.79716225,
                        "value": 0
                    },
                    {
                        "number": 64,
                        "time": 72.8501283,
                        "value": 1
                    },
                    {
                        "number": 64,
                        "time": 73.716279,
                        "value": 0
                    },
                    {
                        "number": 64,
                        "time": 73.778592,
                        "value": 1
                    },
                    {
                        "number": 64,
                        "time": 75.710295,
                        "value": 0
                    },
                    {
                        "number": 64,
                        "time": 75.772608,
                        "value": 1
                    },
                    {
                        "number": 64,
                        "time": 78.02833860000001,
                        "value": 0
                    },
                    {
                        "number": 64,
                        "time": 79.83853125000002,
                        "value": 1
                    },
                    {
                        "number": 64,
                        "time": 80.14490350000001,
                        "value": 0
                    },
                    {
                        "number": 64,
                        "time": 80.35469060000001,
                        "value": 1
                    },
                    {
                        "number": 64,
                        "time": 82.01637060000002,
                        "value": 0
                    },
                    {
                        "number": 64,
                        "time": 83.82656325000002,
                        "value": 1
                    },
                    {
                        "number": 64,
                        "time": 84.13293550000002,
                        "value": 0
                    },
                    {
                        "number": 64,
                        "time": 84.34272260000002,
                        "value": 1
                    },
                    {
                        "number": 64,
                        "time": 85.74268800000002,
                        "value": 0
                    },
                    {
                        "number": 64,
                        "time": 85.84965865000001,
                        "value": 1
                    },
                    {
                        "number": 64,
                        "time": 86.76254410000001,
                        "value": 0
                    },
                    {
                        "number": 64,
                        "time": 86.84043535,
                        "value": 1
                    },
                    {
                        "number": 64,
                        "time": 87.736704,
                        "value": 0
                    },
                    {
                        "number": 64,
                        "time": 87.80213265,
                        "value": 1
                    },
                    {
                        "number": 64,
                        "time": 88.74098185,
                        "value": 0
                    },
                    {
                        "number": 64,
                        "time": 88.8708006,
                        "value": 1
                    },
                    {
                        "number": 64,
                        "time": 89.73071999999999,
                        "value": 0
                    },
                    {
                        "number": 64,
                        "time": 89.80861124999998,
                        "value": 1
                    },
                    {
                        "number": 64,
                        "time": 90.74330624999999,
                        "value": 0
                    },
                    {
                        "number": 64,
                        "time": 90.82846734999998,
                        "value": 1
                    },
                    {
                        "number": 64,
                        "time": 91.72473599999998,
                        "value": 0
                    },
                    {
                        "number": 64,
                        "time": 91.80262724999997,
                        "value": 1
                    },
                    {
                        "number": 64,
                        "time": 92.23154839999997,
                        "value": 0
                    },
                    {
                        "number": 64,
                        "time": 92.29489994999996,
                        "value": 1
                    },
                    {
                        "number": 64,
                        "time": 92.73732224999996,
                        "value": 0
                    },
                    {
                        "number": 64,
                        "time": 92.82248334999996,
                        "value": 1
                    },
                    {
                        "number": 64,
                        "time": 93.23790334999995,
                        "value": 0
                    },
                    {
                        "number": 64,
                        "time": 93.33344994999996,
                        "value": 1
                    },
                    {
                        "number": 64,
                        "time": 93.73433024999996,
                        "value": 0
                    },
                    {
                        "number": 64,
                        "time": 93.77379514999996,
                        "value": 1
                    },
                    {
                        "number": 64,
                        "time": 94.23491134999996,
                        "value": 0
                    },
                    {
                        "number": 64,
                        "time": 94.28683884999997,
                        "value": 1
                    },
                    {
                        "number": 64,
                        "time": 94.71575999999996,
                        "value": 0
                    },
                    {
                        "number": 64,
                        "time": 94.78118864999996,
                        "value": 1
                    },
                    {
                        "number": 64,
                        "time": 94.97539749999996,
                        "value": 0
                    },
                    {
                        "number": 64,
                        "time": 95.76054129999996,
                        "value": 1
                    },
                    {
                        "number": 64,
                        "time": 95.97240549999995,
                        "value": 0
                    },
                    {
                        "number": 64,
                        "time": 96.77520464999995,
                        "value": 1
                    },
                    {
                        "number": 64,
                        "time": 96.96941349999994,
                        "value": 0
                    },
                    {
                        "number": 64,
                        "time": 98.76922064999995,
                        "value": 1
                    },
                    {
                        "number": 64,
                        "time": 98.96342949999995,
                        "value": 0
                    },
                    {
                        "number": 64,
                        "time": 99.74857329999995,
                        "value": 1
                    },
                    {
                        "number": 64,
                        "time": 99.96043749999994,
                        "value": 0
                    },
                    {
                        "number": 64,
                        "time": 100.76323664999994,
                        "value": 1
                    },
                    {
                        "number": 64,
                        "time": 100.95744549999993,
                        "value": 0
                    },
                    {
                        "number": 64,
                        "time": 107.75994799999994,
                        "value": 1
                    },
                    {
                        "number": 64,
                        "time": 109.67087999999994,
                        "value": 0
                    },
                    {
                        "number": 64,
                        "time": 109.73007734999995,
                        "value": 1
                    },
                    {
                        "number": 64,
                        "time": 109.92844039999994,
                        "value": 0
                    },
                    {
                        "number": 64,
                        "time": 110.00113889999994,
                        "value": 1
                    },
                    {
                        "number": 64,
                        "time": 110.18288514999995,
                        "value": 0
                    },
                    {
                        "number": 64,
                        "time": 110.23585119999994,
                        "value": 1
                    },
                    {
                        "number": 64,
                        "time": 110.43213714999995,
                        "value": 0
                    },
                    {
                        "number": 64,
                        "time": 110.49964289999994,
                        "value": 1
                    },
                    {
                        "number": 64,
                        "time": 110.68346624999994,
                        "value": 0
                    },
                    {
                        "number": 64,
                        "time": 110.74889489999994,
                        "value": 1
                    },
                    {
                        "number": 64,
                        "time": 110.93167969999993,
                        "value": 0
                    },
                    {
                        "number": 64,
                        "time": 111.00541674999994,
                        "value": 1
                    },
                    {
                        "number": 64,
                        "time": 111.17989314999994,
                        "value": 0
                    },
                    {
                        "number": 64,
                        "time": 111.25466874999994,
                        "value": 1
                    },
                    {
                        "number": 64,
                        "time": 111.41979819999993,
                        "value": 0
                    },
                    {
                        "number": 64,
                        "time": 111.47484134999993,
                        "value": 1
                    },
                    {
                        "number": 64,
                        "time": 111.59946734999994,
                        "value": 0
                    },
                    {
                        "number": 64,
                        "time": 111.76044259999995,
                        "value": 1
                    },
                    {
                        "number": 64,
                        "time": 111.92245639999994,
                        "value": 0
                    },
                    {
                        "number": 64,
                        "time": 111.99515489999995,
                        "value": 1
                    },
                    {
                        "number": 64,
                        "time": 112.17690114999995,
                        "value": 0
                    },
                    {
                        "number": 64,
                        "time": 112.25894659999994,
                        "value": 1
                    },
                    {
                        "number": 64,
                        "time": 112.42615314999995,
                        "value": 0
                    },
                    {
                        "number": 64,
                        "time": 112.49365889999994,
                        "value": 1
                    },
                    {
                        "number": 64,
                        "time": 112.67748224999994,
                        "value": 0
                    },
                    {
                        "number": 64,
                        "time": 112.72837119999994,
                        "value": 1
                    },
                    {
                        "number": 64,
                        "time": 112.92569569999993,
                        "value": 0
                    },
                    {
                        "number": 64,
                        "time": 112.99943274999994,
                        "value": 1
                    },
                    {
                        "number": 64,
                        "time": 113.17390914999994,
                        "value": 0
                    },
                    {
                        "number": 64,
                        "time": 113.24868474999994,
                        "value": 1
                    },
                    {
                        "number": 64,
                        "time": 113.41381419999993,
                        "value": 0
                    },
                    {
                        "number": 64,
                        "time": 113.46885734999994,
                        "value": 1
                    },
                    {
                        "number": 64,
                        "time": 113.59348334999994,
                        "value": 0
                    },
                    {
                        "number": 64,
                        "time": 113.73264904999995,
                        "value": 1
                    },
                    {
                        "number": 64,
                        "time": 113.91647239999995,
                        "value": 0
                    },
                    {
                        "number": 64,
                        "time": 113.98917089999995,
                        "value": 1
                    },
                    {
                        "number": 64,
                        "time": 114.17091714999995,
                        "value": 0
                    },
                    {
                        "number": 64,
                        "time": 114.22388319999995,
                        "value": 1
                    },
                    {
                        "number": 64,
                        "time": 114.42016914999995,
                        "value": 0
                    },
                    {
                        "number": 64,
                        "time": 114.48767489999994,
                        "value": 1
                    },
                    {
                        "number": 64,
                        "time": 114.67149824999994,
                        "value": 0
                    },
                    {
                        "number": 64,
                        "time": 114.75146659999994,
                        "value": 1
                    },
                    {
                        "number": 64,
                        "time": 114.91971169999994,
                        "value": 0
                    },
                    {
                        "number": 64,
                        "time": 114.99344874999994,
                        "value": 1
                    },
                    {
                        "number": 64,
                        "time": 115.16792514999995,
                        "value": 0
                    },
                    {
                        "number": 64,
                        "time": 115.24270074999994,
                        "value": 1
                    },
                    {
                        "number": 64,
                        "time": 115.40783019999994,
                        "value": 0
                    },
                    {
                        "number": 64,
                        "time": 115.46287334999994,
                        "value": 1
                    },
                    {
                        "number": 64,
                        "time": 115.58749934999994,
                        "value": 0
                    },
                    {
                        "number": 64,
                        "time": 115.73393489999995,
                        "value": 1
                    },
                    {
                        "number": 64,
                        "time": 115.91048839999995,
                        "value": 0
                    },
                    {
                        "number": 64,
                        "time": 115.98318689999995,
                        "value": 1
                    },
                    {
                        "number": 64,
                        "time": 116.16493314999995,
                        "value": 0
                    },
                    {
                        "number": 64,
                        "time": 116.23243889999995,
                        "value": 1
                    },
                    {
                        "number": 64,
                        "time": 116.41418514999995,
                        "value": 0
                    },
                    {
                        "number": 64,
                        "time": 116.48169089999995,
                        "value": 1
                    },
                    {
                        "number": 64,
                        "time": 116.66551424999994,
                        "value": 0
                    },
                    {
                        "number": 64,
                        "time": 116.73821274999995,
                        "value": 1
                    },
                    {
                        "number": 64,
                        "time": 116.91372769999994,
                        "value": 0
                    },
                    {
                        "number": 64,
                        "time": 116.98746474999994,
                        "value": 1
                    },
                    {
                        "number": 64,
                        "time": 117.16194114999995,
                        "value": 0
                    },
                    {
                        "number": 64,
                        "time": 117.23671674999994,
                        "value": 1
                    },
                    {
                        "number": 64,
                        "time": 117.40184619999994,
                        "value": 0
                    },
                    {
                        "number": 64,
                        "time": 117.45688934999994,
                        "value": 1
                    },
                    {
                        "number": 64,
                        "time": 117.58151534999995,
                        "value": 0
                    },
                    {
                        "number": 64,
                        "time": 117.68329324999995,
                        "value": 1
                    },
                    {
                        "number": 64,
                        "time": 118.66264589999994,
                        "value": 0
                    },
                    {
                        "number": 64,
                        "time": 118.72703599999994,
                        "value": 1
                    },
                    {
                        "number": 64,
                        "time": 119.64095999999994,
                        "value": 0
                    },
                    {
                        "number": 64,
                        "time": 119.73027529999993,
                        "value": 1
                    },
                    {
                        "number": 64,
                        "time": 121.63497599999994,
                        "value": 0
                    },
                    {
                        "number": 64,
                        "time": 121.73052259999994,
                        "value": 1
                    },
                    {
                        "number": 64,
                        "time": 122.65067789999995,
                        "value": 0
                    },
                    {
                        "number": 64,
                        "time": 122.71506799999995,
                        "value": 1
                    },
                    {
                        "number": 64,
                        "time": 123.62899199999994,
                        "value": 0
                    },
                    {
                        "number": 64,
                        "time": 123.71830729999994,
                        "value": 1
                    },
                    {
                        "number": 64,
                        "time": 124.63742404999994,
                        "value": 0
                    },
                    {
                        "number": 64,
                        "time": 124.76308859999993,
                        "value": 1
                    },
                    {
                        "number": 64,
                        "time": 125.62300799999993,
                        "value": 0
                    },
                    {
                        "number": 64,
                        "time": 125.71232329999992,
                        "value": 1
                    },
                    {
                        "number": 64,
                        "time": 126.63144004999992,
                        "value": 0
                    },
                    {
                        "number": 64,
                        "time": 126.75710459999992,
                        "value": 1
                    },
                    {
                        "number": 64,
                        "time": 127.61702399999992,
                        "value": 0
                    },
                    {
                        "number": 64,
                        "time": 127.71257059999992,
                        "value": 1
                    },
                    {
                        "number": 64,
                        "time": 129.13019134999993,
                        "value": 0
                    },
                    {
                        "number": 64,
                        "time": 129.21327534999995,
                        "value": 1
                    },
                    {
                        "number": 64,
                        "time": 129.61103999999995,
                        "value": 0
                    },
                    {
                        "number": 64,
                        "time": 129.66296749999995,
                        "value": 1
                    },
                    {
                        "number": 64,
                        "time": 131.86261639999995,
                        "value": 0
                    },
                    {
                        "number": 64,
                        "time": 132.92297594999994,
                        "value": 1
                    },
                    {
                        "number": 64,
                        "time": 133.59907199999995,
                        "value": 0
                    },
                    {
                        "number": 64,
                        "time": 133.69461859999996,
                        "value": 1
                    },
                    {
                        "number": 64,
                        "time": 134.11003859999997,
                        "value": 0
                    },
                    {
                        "number": 64,
                        "time": 134.16923594999997,
                        "value": 1
                    },
                    {
                        "number": 64,
                        "time": 134.62619794999998,
                        "value": 0
                    },
                    {
                        "number": 64,
                        "time": 135.65851664999997,
                        "value": 1
                    },
                    {
                        "number": 64,
                        "time": 136.60359714999996,
                        "value": 0
                    },
                    {
                        "number": 64,
                        "time": 136.69706664999995,
                        "value": 1
                    },
                    {
                        "number": 64,
                        "time": 137.58710399999995,
                        "value": 0
                    },
                    {
                        "number": 64,
                        "time": 137.65253264999996,
                        "value": 1
                    },
                    {
                        "number": 64,
                        "time": 138.59761314999994,
                        "value": 0
                    },
                    {
                        "number": 64,
                        "time": 138.69108264999994,
                        "value": 1
                    },
                    {
                        "number": 64,
                        "time": 139.58111999999994,
                        "value": 0
                    },
                    {
                        "number": 64,
                        "time": 139.64654864999994,
                        "value": 1
                    },
                    {
                        "number": 64,
                        "time": 145.56316799999993,
                        "value": 0
                    }
                ]
            },
            "id": 3,
            "name": "Pedale",
            "instrumentNumber": 0,
            "instrument": "acoustic grand piano",
            "instrumentFamily": "piano",
            "channelNumber": 0,
            "isPercussion": false
        },
        {
            "startTime": 0,
            "duration": 0,
            "length": 0,
            "notes": [],
            "controlChanges": {},
            "id": 4,
            "name": "Debussy: Childrens Corner 4"
        },
        {
            "startTime": 0,
            "duration": 0,
            "length": 0,
            "notes": [],
            "controlChanges": {},
            "id": 5,
            "name": "Copyright  2010 by Bernd Krueger"
        },
        {
            "startTime": 0,
            "duration": 0,
            "length": 0,
            "notes": [],
            "controlChanges": {},
            "id": 6,
            "name": "http://www.piano-midi.de/"
        },
        {
            "startTime": 0,
            "duration": 0,
            "length": 0,
            "notes": [],
            "controlChanges": {},
            "id": 7,
            "name": "Edition:  2011-05-25"
        },
        {
            "startTime": 0,
            "duration": 0,
            "length": 0,
            "notes": [],
            "controlChanges": {},
            "id": 8,
            "name": "Spur 8"
        },
        {
            "startTime": 0,
            "duration": 0,
            "length": 0,
            "notes": [],
            "controlChanges": {},
            "id": 9,
            "name": "Spur 9"
        },
        {
            "startTime": 0,
            "duration": 0,
            "length": 0,
            "notes": [],
            "controlChanges": {},
            "id": 10,
            "name": "Spur 10"
        },
        {
            "startTime": 0,
            "duration": 0,
            "length": 0,
            "notes": [],
            "controlChanges": {},
            "id": 11,
            "name": "Spur 11"
        },
        {
            "startTime": 0,
            "duration": 0,
            "length": 0,
            "notes": [],
            "controlChanges": {},
            "id": 12,
            "name": "Spur 12"
        },
        {
            "startTime": 0,
            "duration": 0,
            "length": 0,
            "notes": [],
            "controlChanges": {},
            "id": 13,
            "name": "Spur 13"
        },
        {
            "startTime": 0,
            "duration": 0,
            "length": 0,
            "notes": [],
            "controlChanges": {},
            "id": 14,
            "name": "Spur 14"
        },
        {
            "startTime": 0,
            "duration": 0,
            "length": 0,
            "notes": [],
            "controlChanges": {},
            "id": 15,
            "name": "Spur 15"
        },
        {
            "startTime": 0,
            "duration": 0,
            "length": 0,
            "notes": [],
            "controlChanges": {},
            "id": 16,
            "name": "Spur 16"
        }
    ]
}