{
    "header": {
        "PPQ": 480,
        "timeSignature": [
            2,
            4
        ],
        "bpm": 112.84007176628565,
        "name": "Debussy: Childrens Corner 6"
    },
    "startTime": 0,
    "duration": 135.32426699999968,
    "tracks": [
        {
            "startTime": 0,
            "duration": 0,
            "length": 0,
            "notes": [],
            "controlChanges": {},
            "id": 0,
            "name": "Debussy: Childrens Corner 6"
        },
        {
            "startTime": 0,
            "duration": 135.32426699999968,
            "length": 618,
            "notes": [
                {
                    "name": "A#5",
                    "midi": 82,
                    "time": 0,
                    "velocity": 0.6299212598425197,
                    "duration": 0.1329315
                },
                {
                    "name": "G#5",
                    "midi": 80,
                    "time": 0.1329315,
                    "velocity": 0.5826771653543307,
                    "duration": 0.1329315
                },
                {
                    "name": "A#5",
                    "midi": 82,
                    "time": 0.39879450000000005,
                    "velocity": 0.5826771653543307,
                    "duration": 0.13293149999999998
                },
                {
                    "name": "F5",
                    "midi": 77,
                    "time": 0.531726,
                    "velocity": 0.5984251968503937,
                    "duration": 0.13293149999999998
                },
                {
                    "name": "A#5",
                    "midi": 82,
                    "time": 0.797589,
                    "velocity": 0.6299212598425197,
                    "duration": 0.09969862500000004
                },
                {
                    "name": "G#5",
                    "midi": 80,
                    "time": 1.063452,
                    "velocity": 0.6299212598425197,
                    "duration": 0.13293149999999998
                },
                {
                    "name": "F5",
                    "midi": 77,
                    "time": 1.1963835,
                    "velocity": 0.6299212598425197,
                    "duration": 0.13293149999999998
                },
                {
                    "name": "D#5",
                    "midi": 75,
                    "time": 1.4622465,
                    "velocity": 0.5826771653543307,
                    "duration": 0.13293149999999998
                },
                {
                    "name": "B4",
                    "midi": 71,
                    "time": 1.595178,
                    "velocity": 0.6299212598425197,
                    "duration": 0.5317260000000001
                },
                {
                    "name": "G#4",
                    "midi": 68,
                    "time": 2.2598355000000003,
                    "velocity": 0.6299212598425197,
                    "duration": 0.1329315000000002
                },
                {
                    "name": "F4",
                    "midi": 65,
                    "time": 2.3927670000000005,
                    "velocity": 0.6220472440944882,
                    "duration": 0.1329315000000002
                },
                {
                    "name": "D#4",
                    "midi": 63,
                    "time": 2.5256985000000007,
                    "velocity": 0.6614173228346457,
                    "duration": 0.1329315000000002
                },
                {
                    "name": "B3",
                    "midi": 59,
                    "time": 2.658630000000001,
                    "velocity": 0.6771653543307087,
                    "duration": 0.5317259999999999
                },
                {
                    "name": "G#3",
                    "midi": 56,
                    "time": 3.323287500000001,
                    "velocity": 0.6299212598425197,
                    "duration": 0.1329315000000002
                },
                {
                    "name": "F3",
                    "midi": 53,
                    "time": 3.4562190000000013,
                    "velocity": 0.6220472440944882,
                    "duration": 0.1329315000000002
                },
                {
                    "name": "D#3",
                    "midi": 51,
                    "time": 3.5891505000000015,
                    "velocity": 0.6614173228346457,
                    "duration": 0.1329315000000002
                },
                {
                    "name": "B2",
                    "midi": 47,
                    "time": 3.7220820000000017,
                    "velocity": 0.6771653543307087,
                    "duration": 0.26586299999999996
                },
                {
                    "name": "G3",
                    "midi": 55,
                    "time": 3.9879450000000016,
                    "velocity": 0.7637795275590551,
                    "duration": 0.2658630000000004
                },
                {
                    "name": "D3",
                    "midi": 50,
                    "time": 3.9879450000000016,
                    "velocity": 0.6456692913385826,
                    "duration": 0.2658630000000004
                },
                {
                    "name": "D#3",
                    "midi": 51,
                    "time": 5.583123000000002,
                    "velocity": 0.31496062992125984,
                    "duration": 0.09969862500000026
                },
                {
                    "name": "A#3",
                    "midi": 58,
                    "time": 5.583123000000002,
                    "velocity": 0.31496062992125984,
                    "duration": 0.09969862500000026
                },
                {
                    "name": "A#3",
                    "midi": 58,
                    "time": 6.114849000000002,
                    "velocity": 0.44881889763779526,
                    "duration": 0.06646574999999988
                },
                {
                    "name": "D#3",
                    "midi": 51,
                    "time": 6.114849000000002,
                    "velocity": 0.3937007874015748,
                    "duration": 0.06646574999999988
                },
                {
                    "name": "A#3",
                    "midi": 58,
                    "time": 6.247780500000002,
                    "velocity": 0.5039370078740157,
                    "duration": 0.06646574999999988
                },
                {
                    "name": "D#3",
                    "midi": 51,
                    "time": 6.247780500000002,
                    "velocity": 0.4409448818897638,
                    "duration": 0.06646574999999988
                },
                {
                    "name": "D#3",
                    "midi": 51,
                    "time": 6.646575000000002,
                    "velocity": 0.31496062992125984,
                    "duration": 0.09969862500000026
                },
                {
                    "name": "A#3",
                    "midi": 58,
                    "time": 6.646575000000002,
                    "velocity": 0.31496062992125984,
                    "duration": 0.09969862500000026
                },
                {
                    "name": "D#3",
                    "midi": 51,
                    "time": 7.178301000000002,
                    "velocity": 0.31496062992125984,
                    "duration": 0.09969862500000026
                },
                {
                    "name": "A#3",
                    "midi": 58,
                    "time": 7.178301000000002,
                    "velocity": 0.31496062992125984,
                    "duration": 0.09969862500000026
                },
                {
                    "name": "A#3",
                    "midi": 58,
                    "time": 7.710027000000002,
                    "velocity": 0.44881889763779526,
                    "duration": 0.06646574999999988
                },
                {
                    "name": "D#3",
                    "midi": 51,
                    "time": 7.710027000000002,
                    "velocity": 0.3937007874015748,
                    "duration": 0.06646574999999988
                },
                {
                    "name": "A#3",
                    "midi": 58,
                    "time": 7.842958500000002,
                    "velocity": 0.5039370078740157,
                    "duration": 0.06646574999999988
                },
                {
                    "name": "D#3",
                    "midi": 51,
                    "time": 7.842958500000002,
                    "velocity": 0.4409448818897638,
                    "duration": 0.06646574999999988
                },
                {
                    "name": "D#3",
                    "midi": 51,
                    "time": 8.241753000000001,
                    "velocity": 0.31496062992125984,
                    "duration": 0.09969862500000026
                },
                {
                    "name": "A#3",
                    "midi": 58,
                    "time": 8.241753000000001,
                    "velocity": 0.31496062992125984,
                    "duration": 0.09969862500000026
                },
                {
                    "name": "D#3",
                    "midi": 51,
                    "time": 8.773479000000002,
                    "velocity": 0.25196850393700787,
                    "duration": 0.09969862500000026
                },
                {
                    "name": "A#3",
                    "midi": 58,
                    "time": 8.773479000000002,
                    "velocity": 0.25196850393700787,
                    "duration": 0.09969862500000026
                },
                {
                    "name": "D#3",
                    "midi": 51,
                    "time": 9.305205000000003,
                    "velocity": 0.2283464566929134,
                    "duration": 0.09969862500000026
                },
                {
                    "name": "A#3",
                    "midi": 58,
                    "time": 9.305205000000003,
                    "velocity": 0.2283464566929134,
                    "duration": 0.09969862500000026
                },
                {
                    "name": "A#4",
                    "midi": 70,
                    "time": 9.571068000000002,
                    "velocity": 0.6299212598425197,
                    "duration": 0.13293149999999976
                },
                {
                    "name": "G#4",
                    "midi": 68,
                    "time": 9.703999500000002,
                    "velocity": 0.5826771653543307,
                    "duration": 0.13293149999999976
                },
                {
                    "name": "B3",
                    "midi": 59,
                    "time": 9.836931000000002,
                    "velocity": 0.3543307086614173,
                    "duration": 0.13293149999999976
                },
                {
                    "name": "D#4",
                    "midi": 63,
                    "time": 9.836931000000002,
                    "velocity": 0.3543307086614173,
                    "duration": 0.13293149999999976
                },
                {
                    "name": "A#4",
                    "midi": 70,
                    "time": 9.969862500000001,
                    "velocity": 0.5826771653543307,
                    "duration": 0.13293149999999976
                },
                {
                    "name": "F4",
                    "midi": 65,
                    "time": 10.102794000000001,
                    "velocity": 0.5984251968503937,
                    "duration": 0.13293149999999976
                },
                {
                    "name": "B3",
                    "midi": 59,
                    "time": 10.368657,
                    "velocity": 0.3543307086614173,
                    "duration": 0.13293149999999976
                },
                {
                    "name": "D#4",
                    "midi": 63,
                    "time": 10.368657,
                    "velocity": 0.3543307086614173,
                    "duration": 0.13293149999999976
                },
                {
                    "name": "A#4",
                    "midi": 70,
                    "time": 10.368657,
                    "velocity": 0.6299212598425197,
                    "duration": 0.09969862500000026
                },
                {
                    "name": "G#4",
                    "midi": 68,
                    "time": 10.63452,
                    "velocity": 0.6299212598425197,
                    "duration": 0.13293149999999976
                },
                {
                    "name": "F4",
                    "midi": 65,
                    "time": 10.7674515,
                    "velocity": 0.6299212598425197,
                    "duration": 0.13293149999999976
                },
                {
                    "name": "B3",
                    "midi": 59,
                    "time": 10.900383,
                    "velocity": 0.3543307086614173,
                    "duration": 0.09969862500000026
                },
                {
                    "name": "D#4",
                    "midi": 63,
                    "time": 11.0333145,
                    "velocity": 0.5826771653543307,
                    "duration": 0.13293149999999976
                },
                {
                    "name": "B3",
                    "midi": 59,
                    "time": 11.166246,
                    "velocity": 0.6299212598425197,
                    "duration": 0.13293149999999976
                },
                {
                    "name": "B3",
                    "midi": 59,
                    "time": 11.432108999999999,
                    "velocity": 0.5669291338582677,
                    "duration": 0.06646575000000077
                },
                {
                    "name": "D#4",
                    "midi": 63,
                    "time": 11.432108999999999,
                    "velocity": 0.6299212598425197,
                    "duration": 0.06646575000000077
                },
                {
                    "name": "A#3",
                    "midi": 58,
                    "time": 11.697972,
                    "velocity": 0.6299212598425197,
                    "duration": 0.09969862500000026
                },
                {
                    "name": "A#3",
                    "midi": 58,
                    "time": 11.8309035,
                    "velocity": 0.5826771653543307,
                    "duration": 0.13293149999999976
                },
                {
                    "name": "C4",
                    "midi": 60,
                    "time": 12.0967665,
                    "velocity": 0.5826771653543307,
                    "duration": 0.13293149999999976
                },
                {
                    "name": "A#3",
                    "midi": 58,
                    "time": 12.229697999999999,
                    "velocity": 0.5984251968503937,
                    "duration": 0.13293149999999976
                },
                {
                    "name": "D#4",
                    "midi": 63,
                    "time": 12.462328124999999,
                    "velocity": 0.5354330708661418,
                    "duration": 0.13293149999999976
                },
                {
                    "name": "A#4",
                    "midi": 70,
                    "time": 12.495560999999999,
                    "velocity": 0.6299212598425197,
                    "duration": 0.09969862500000026
                },
                {
                    "name": "A#3",
                    "midi": 58,
                    "time": 12.761423999999998,
                    "velocity": 0.6299212598425197,
                    "duration": 1.0634519999999998
                },
                {
                    "name": "A#3",
                    "midi": 58,
                    "time": 13.824875999999998,
                    "velocity": 0.5039370078740157,
                    "duration": 0.13293149999999976
                },
                {
                    "name": "G#3",
                    "midi": 56,
                    "time": 13.957807499999998,
                    "velocity": 0.44881889763779526,
                    "duration": 0.13293149999999976
                },
                {
                    "name": "A#3",
                    "midi": 58,
                    "time": 14.223670499999997,
                    "velocity": 0.4409448818897638,
                    "duration": 0.13293149999999976
                },
                {
                    "name": "C4",
                    "midi": 60,
                    "time": 14.356601999999997,
                    "velocity": 0.5039370078740157,
                    "duration": 0.13293149999999976
                },
                {
                    "name": "G#3",
                    "midi": 56,
                    "time": 14.622464999999996,
                    "velocity": 0.41732283464566927,
                    "duration": 0.09969862500000026
                },
                {
                    "name": "A#3",
                    "midi": 58,
                    "time": 14.888327999999996,
                    "velocity": 0.5039370078740157,
                    "duration": 0.13293149999999976
                },
                {
                    "name": "G#3",
                    "midi": 56,
                    "time": 15.021259499999996,
                    "velocity": 0.44881889763779526,
                    "duration": 0.13293149999999976
                },
                {
                    "name": "A#3",
                    "midi": 58,
                    "time": 15.287122499999995,
                    "velocity": 0.4409448818897638,
                    "duration": 0.13293149999999976
                },
                {
                    "name": "B3",
                    "midi": 59,
                    "time": 15.420053999999995,
                    "velocity": 0.5039370078740157,
                    "duration": 0.13293149999999976
                },
                {
                    "name": "G#3",
                    "midi": 56,
                    "time": 15.685916999999995,
                    "velocity": 0.41732283464566927,
                    "duration": 0.09969862500000026
                },
                {
                    "name": "A#3",
                    "midi": 58,
                    "time": 15.951779999999994,
                    "velocity": 0.5039370078740157,
                    "duration": 0.13293149999999976
                },
                {
                    "name": "G#3",
                    "midi": 56,
                    "time": 16.084711499999994,
                    "velocity": 0.4645669291338583,
                    "duration": 0.13293150000000153
                },
                {
                    "name": "F3",
                    "midi": 53,
                    "time": 16.350574499999997,
                    "velocity": 0.4645669291338583,
                    "duration": 0.09969862499999849
                },
                {
                    "name": "D#3",
                    "midi": 51,
                    "time": 16.483505999999995,
                    "velocity": 0.48031496062992124,
                    "duration": 0.13293150000000153
                },
                {
                    "name": "D3",
                    "midi": 50,
                    "time": 16.749368999999998,
                    "velocity": 0.5118110236220472,
                    "duration": 0.13293150000000153
                },
                {
                    "name": "C3",
                    "midi": 48,
                    "time": 17.015232,
                    "velocity": 0.5590551181102362,
                    "duration": 0.13293150000000153
                },
                {
                    "name": "G2",
                    "midi": 43,
                    "time": 17.281095000000004,
                    "velocity": 0.5354330708661418,
                    "duration": 0.13293150000000153
                },
                {
                    "name": "C3",
                    "midi": 48,
                    "time": 17.546958000000007,
                    "velocity": 0.5984251968503937,
                    "duration": 0.13293150000000153
                },
                {
                    "name": "D3",
                    "midi": 50,
                    "time": 17.81282100000001,
                    "velocity": 0.6299212598425197,
                    "duration": 0.13293150000000153
                },
                {
                    "name": "A#4",
                    "midi": 70,
                    "time": 18.078684000000013,
                    "velocity": 0.6299212598425197,
                    "duration": 0.13293150000000153
                },
                {
                    "name": "G#4",
                    "midi": 68,
                    "time": 18.211615500000015,
                    "velocity": 0.5826771653543307,
                    "duration": 0.13293150000000153
                },
                {
                    "name": "B3",
                    "midi": 59,
                    "time": 18.344547000000016,
                    "velocity": 0.3543307086614173,
                    "duration": 0.13293150000000153
                },
                {
                    "name": "D#4",
                    "midi": 63,
                    "time": 18.344547000000016,
                    "velocity": 0.3543307086614173,
                    "duration": 0.13293150000000153
                },
                {
                    "name": "A#4",
                    "midi": 70,
                    "time": 18.477478500000018,
                    "velocity": 0.5826771653543307,
                    "duration": 0.13293150000000153
                },
                {
                    "name": "F4",
                    "midi": 65,
                    "time": 18.61041000000002,
                    "velocity": 0.5984251968503937,
                    "duration": 0.13293150000000153
                },
                {
                    "name": "B3",
                    "midi": 59,
                    "time": 18.876273000000023,
                    "velocity": 0.3543307086614173,
                    "duration": 0.13293149999999798
                },
                {
                    "name": "D#4",
                    "midi": 63,
                    "time": 18.876273000000023,
                    "velocity": 0.3543307086614173,
                    "duration": 0.13293149999999798
                },
                {
                    "name": "A#4",
                    "midi": 70,
                    "time": 18.876273000000023,
                    "velocity": 0.6299212598425197,
                    "duration": 0.09969862499999849
                },
                {
                    "name": "G#4",
                    "midi": 68,
                    "time": 19.142136000000022,
                    "velocity": 0.6299212598425197,
                    "duration": 0.13293150000000153
                },
                {
                    "name": "F4",
                    "midi": 65,
                    "time": 19.275067500000024,
                    "velocity": 0.6299212598425197,
                    "duration": 0.13293150000000153
                },
                {
                    "name": "B3",
                    "midi": 59,
                    "time": 19.407999000000025,
                    "velocity": 0.3543307086614173,
                    "duration": 0.09969862499999849
                },
                {
                    "name": "D#4",
                    "midi": 63,
                    "time": 19.540930500000023,
                    "velocity": 0.5826771653543307,
                    "duration": 0.13293150000000153
                },
                {
                    "name": "B3",
                    "midi": 59,
                    "time": 19.673862000000025,
                    "velocity": 0.6299212598425197,
                    "duration": 0.13293150000000153
                },
                {
                    "name": "B3",
                    "midi": 59,
                    "time": 19.939725000000028,
                    "velocity": 0.5669291338582677,
                    "duration": 0.06646574999999899
                },
                {
                    "name": "D#4",
                    "midi": 63,
                    "time": 19.939725000000028,
                    "velocity": 0.6299212598425197,
                    "duration": 0.06646574999999899
                },
                {
                    "name": "A#3",
                    "midi": 58,
                    "time": 20.205588000000027,
                    "velocity": 0.6299212598425197,
                    "duration": 0.09969862499999849
                },
                {
                    "name": "A#3",
                    "midi": 58,
                    "time": 20.338519500000025,
                    "velocity": 0.5826771653543307,
                    "duration": 0.13293150000000153
                },
                {
                    "name": "C4",
                    "midi": 60,
                    "time": 20.60438250000003,
                    "velocity": 0.5826771653543307,
                    "duration": 0.13293150000000153
                },
                {
                    "name": "A#3",
                    "midi": 58,
                    "time": 20.73731400000003,
                    "velocity": 0.5984251968503937,
                    "duration": 0.13293150000000153
                },
                {
                    "name": "D#4",
                    "midi": 63,
                    "time": 20.96994412500003,
                    "velocity": 0.5354330708661418,
                    "duration": 0.13293149999999798
                },
                {
                    "name": "A#4",
                    "midi": 70,
                    "time": 21.00317700000003,
                    "velocity": 0.6299212598425197,
                    "duration": 0.09969862499999849
                },
                {
                    "name": "A#3",
                    "midi": 58,
                    "time": 21.26904000000003,
                    "velocity": 0.6299212598425197,
                    "duration": 1.0634520000000016
                },
                {
                    "name": "A#3",
                    "midi": 58,
                    "time": 22.33249200000003,
                    "velocity": 0.4330708661417323,
                    "duration": 0.09969862499999849
                },
                {
                    "name": "A#3",
                    "midi": 58,
                    "time": 22.46542350000003,
                    "velocity": 0.3858267716535433,
                    "duration": 0.13293150000000153
                },
                {
                    "name": "C4",
                    "midi": 60,
                    "time": 22.73128650000003,
                    "velocity": 0.41732283464566927,
                    "duration": 0.13293150000000153
                },
                {
                    "name": "A#3",
                    "midi": 58,
                    "time": 22.864218000000033,
                    "velocity": 0.48031496062992124,
                    "duration": 0.13293150000000153
                },
                {
                    "name": "C#4",
                    "midi": 61,
                    "time": 23.130081000000036,
                    "velocity": 0.41732283464566927,
                    "duration": 0.09969862499999849
                },
                {
                    "name": "D#4",
                    "midi": 63,
                    "time": 23.395944000000036,
                    "velocity": 0.5039370078740157,
                    "duration": 0.09969862499999849
                },
                {
                    "name": "F4",
                    "midi": 65,
                    "time": 23.661807000000035,
                    "velocity": 0.48031496062992124,
                    "duration": 0.09969862499999849
                },
                {
                    "name": "D#4",
                    "midi": 63,
                    "time": 23.927670000000035,
                    "velocity": 0.5118110236220472,
                    "duration": 0.09969862499999849
                },
                {
                    "name": "F#4",
                    "midi": 66,
                    "time": 24.193533000000034,
                    "velocity": 0.5590551181102362,
                    "duration": 0.09969862499999849
                },
                {
                    "name": "F4",
                    "midi": 65,
                    "time": 24.459396000000034,
                    "velocity": 0.6299212598425197,
                    "duration": 0.09969862499999849
                },
                {
                    "name": "F4",
                    "midi": 65,
                    "time": 24.59232750000003,
                    "velocity": 0.5826771653543307,
                    "duration": 0.13293150000000153
                },
                {
                    "name": "G4",
                    "midi": 67,
                    "time": 24.858190500000035,
                    "velocity": 0.5826771653543307,
                    "duration": 0.13293150000000153
                },
                {
                    "name": "F4",
                    "midi": 65,
                    "time": 24.991122000000036,
                    "velocity": 0.5984251968503937,
                    "duration": 0.23263012500000002
                },
                {
                    "name": "G4",
                    "midi": 67,
                    "time": 25.223752125000036,
                    "velocity": 0.5354330708661418,
                    "duration": 0.13293149999999798
                },
                {
                    "name": "D5",
                    "midi": 74,
                    "time": 25.256985000000036,
                    "velocity": 0.6299212598425197,
                    "duration": 0.09969862499999849
                },
                {
                    "name": "A#4",
                    "midi": 70,
                    "time": 25.522848000000035,
                    "velocity": 0.6692913385826772,
                    "duration": 0.531725999999999
                },
                {
                    "name": "D4",
                    "midi": 62,
                    "time": 25.522848000000035,
                    "velocity": 0.5669291338582677,
                    "duration": 0.531725999999999
                },
                {
                    "name": "A#5",
                    "midi": 82,
                    "time": 26.054574000000034,
                    "velocity": 0.7086614173228346,
                    "duration": 0.2658629999999995
                },
                {
                    "name": "A#6",
                    "midi": 94,
                    "time": 26.054574000000034,
                    "velocity": 0.8346456692913385,
                    "duration": 0.2658629999999995
                },
                {
                    "name": "C4",
                    "midi": 60,
                    "time": 26.586300000000033,
                    "velocity": 0.4251968503937008,
                    "duration": 0.13293150000000153
                },
                {
                    "name": "D#4",
                    "midi": 63,
                    "time": 26.586300000000033,
                    "velocity": 0.5039370078740157,
                    "duration": 0.13293150000000153
                },
                {
                    "name": "D4",
                    "midi": 62,
                    "time": 26.719231500000035,
                    "velocity": 0.3779527559055118,
                    "duration": 0.2658629999999995
                },
                {
                    "name": "F4",
                    "midi": 65,
                    "time": 26.719231500000035,
                    "velocity": 0.44881889763779526,
                    "duration": 0.2658629999999995
                },
                {
                    "name": "D#4",
                    "midi": 63,
                    "time": 26.985094500000034,
                    "velocity": 0.3700787401574803,
                    "duration": 0.13293150000000153
                },
                {
                    "name": "G4",
                    "midi": 67,
                    "time": 26.985094500000034,
                    "velocity": 0.4409448818897638,
                    "duration": 0.13293150000000153
                },
                {
                    "name": "D4",
                    "midi": 62,
                    "time": 27.118026000000036,
                    "velocity": 0.4251968503937008,
                    "duration": 0.09969862499999849
                },
                {
                    "name": "F4",
                    "midi": 65,
                    "time": 27.118026000000036,
                    "velocity": 0.5039370078740157,
                    "duration": 0.09969862499999849
                },
                {
                    "name": "C4",
                    "midi": 60,
                    "time": 27.383889000000035,
                    "velocity": 0.3543307086614173,
                    "duration": 0.09969862499999849
                },
                {
                    "name": "D#4",
                    "midi": 63,
                    "time": 27.383889000000035,
                    "velocity": 0.41732283464566927,
                    "duration": 0.09969862499999849
                },
                {
                    "name": "F4",
                    "midi": 65,
                    "time": 27.649752000000035,
                    "velocity": 0.41732283464566927,
                    "duration": 1.063451999999998
                },
                {
                    "name": "D4",
                    "midi": 62,
                    "time": 27.649752000000035,
                    "velocity": 0.3543307086614173,
                    "duration": 1.063451999999998
                },
                {
                    "name": "A#6",
                    "midi": 94,
                    "time": 28.181478000000034,
                    "velocity": 0.5039370078740157,
                    "duration": 0.2658629999999995
                },
                {
                    "name": "A#5",
                    "midi": 82,
                    "time": 28.181478000000034,
                    "velocity": 0.4251968503937008,
                    "duration": 0.2658629999999995
                },
                {
                    "name": "C4",
                    "midi": 60,
                    "time": 28.713204000000033,
                    "velocity": 0.4251968503937008,
                    "duration": 0.13293150000000153
                },
                {
                    "name": "D#4",
                    "midi": 63,
                    "time": 28.713204000000033,
                    "velocity": 0.5039370078740157,
                    "duration": 0.13293150000000153
                },
                {
                    "name": "D4",
                    "midi": 62,
                    "time": 28.846135500000035,
                    "velocity": 0.3779527559055118,
                    "duration": 0.2658629999999995
                },
                {
                    "name": "F4",
                    "midi": 65,
                    "time": 28.846135500000035,
                    "velocity": 0.44881889763779526,
                    "duration": 0.2658629999999995
                },
                {
                    "name": "D#4",
                    "midi": 63,
                    "time": 29.111998500000034,
                    "velocity": 0.3700787401574803,
                    "duration": 0.13293150000000153
                },
                {
                    "name": "G4",
                    "midi": 67,
                    "time": 29.111998500000034,
                    "velocity": 0.4409448818897638,
                    "duration": 0.13293150000000153
                },
                {
                    "name": "D4",
                    "midi": 62,
                    "time": 29.244930000000036,
                    "velocity": 0.4251968503937008,
                    "duration": 0.13293150000000153
                },
                {
                    "name": "F4",
                    "midi": 65,
                    "time": 29.244930000000036,
                    "velocity": 0.5039370078740157,
                    "duration": 0.13293150000000153
                },
                {
                    "name": "C4",
                    "midi": 60,
                    "time": 29.51079300000004,
                    "velocity": 0.3543307086614173,
                    "duration": 0.09969862499999849
                },
                {
                    "name": "D#4",
                    "midi": 63,
                    "time": 29.51079300000004,
                    "velocity": 0.41732283464566927,
                    "duration": 0.09969862499999849
                },
                {
                    "name": "F4",
                    "midi": 65,
                    "time": 29.776656000000038,
                    "velocity": 0.41732283464566927,
                    "duration": 0.13293150000000153
                },
                {
                    "name": "D4",
                    "midi": 62,
                    "time": 29.776656000000038,
                    "velocity": 0.3543307086614173,
                    "duration": 0.13293150000000153
                },
                {
                    "name": "C4",
                    "midi": 60,
                    "time": 30.04251900000004,
                    "velocity": 0.41732283464566927,
                    "duration": 0.2658629999999995
                },
                {
                    "name": "D#4",
                    "midi": 63,
                    "time": 30.04251900000004,
                    "velocity": 0.41732283464566927,
                    "duration": 0.2658629999999995
                },
                {
                    "name": "D4",
                    "midi": 62,
                    "time": 30.30838200000004,
                    "velocity": 0.41732283464566927,
                    "duration": 0.2658629999999995
                },
                {
                    "name": "F4",
                    "midi": 65,
                    "time": 30.30838200000004,
                    "velocity": 0.41732283464566927,
                    "duration": 0.2658629999999995
                },
                {
                    "name": "G4",
                    "midi": 67,
                    "time": 30.57424500000004,
                    "velocity": 0.41732283464566927,
                    "duration": 0.13293150000000153
                },
                {
                    "name": "A#4",
                    "midi": 70,
                    "time": 30.57424500000004,
                    "velocity": 0.41732283464566927,
                    "duration": 0.13293150000000153
                },
                {
                    "name": "C5",
                    "midi": 72,
                    "time": 30.57424500000004,
                    "velocity": 0.41732283464566927,
                    "duration": 0.13293150000000153
                },
                {
                    "name": "G#3",
                    "midi": 56,
                    "time": 30.840108000000043,
                    "velocity": 0.28346456692913385,
                    "duration": 2.1269040000000032
                },
                {
                    "name": "C4",
                    "midi": 60,
                    "time": 30.840108000000043,
                    "velocity": 0.28346456692913385,
                    "duration": 2.1269040000000032
                },
                {
                    "name": "D#4",
                    "midi": 63,
                    "time": 30.840108000000043,
                    "velocity": 0.33070866141732286,
                    "duration": 2.1269040000000032
                },
                {
                    "name": "G3",
                    "midi": 55,
                    "time": 32.96701200000005,
                    "velocity": 0.23622047244094488,
                    "duration": 1.063451999999998
                },
                {
                    "name": "C4",
                    "midi": 60,
                    "time": 32.96701200000005,
                    "velocity": 0.23622047244094488,
                    "duration": 1.063451999999998
                },
                {
                    "name": "D#4",
                    "midi": 63,
                    "time": 32.96701200000005,
                    "velocity": 0.28346456692913385,
                    "duration": 1.063451999999998
                },
                {
                    "name": "A#2",
                    "midi": 46,
                    "time": 34.16339550000004,
                    "velocity": 0.5118110236220472,
                    "duration": 0.13293149999999798
                },
                {
                    "name": "C3",
                    "midi": 48,
                    "time": 34.29632700000004,
                    "velocity": 0.5118110236220472,
                    "duration": 0.13293149999999798
                },
                {
                    "name": "D3",
                    "midi": 50,
                    "time": 34.42925850000004,
                    "velocity": 0.5275590551181102,
                    "duration": 0.13293149999999798
                },
                {
                    "name": "C3",
                    "midi": 48,
                    "time": 34.56219000000004,
                    "velocity": 0.5354330708661418,
                    "duration": 0.13293149999999798
                },
                {
                    "name": "A#2",
                    "midi": 46,
                    "time": 34.82805300000003,
                    "velocity": 0.4881889763779528,
                    "duration": 0.09969862500000204
                },
                {
                    "name": "C4",
                    "midi": 60,
                    "time": 35.093916000000036,
                    "velocity": 0.4251968503937008,
                    "duration": 0.13293149999999798
                },
                {
                    "name": "D#4",
                    "midi": 63,
                    "time": 35.093916000000036,
                    "velocity": 0.5039370078740157,
                    "duration": 0.13293149999999798
                },
                {
                    "name": "D4",
                    "midi": 62,
                    "time": 35.226847500000034,
                    "velocity": 0.3779527559055118,
                    "duration": 0.26586300000000307
                },
                {
                    "name": "F4",
                    "midi": 65,
                    "time": 35.226847500000034,
                    "velocity": 0.44881889763779526,
                    "duration": 0.26586300000000307
                },
                {
                    "name": "D#4",
                    "midi": 63,
                    "time": 35.49271050000004,
                    "velocity": 0.3700787401574803,
                    "duration": 0.13293149999999798
                },
                {
                    "name": "G4",
                    "midi": 67,
                    "time": 35.49271050000004,
                    "velocity": 0.4409448818897638,
                    "duration": 0.13293149999999798
                },
                {
                    "name": "D4",
                    "midi": 62,
                    "time": 35.625642000000035,
                    "velocity": 0.4251968503937008,
                    "duration": 0.09969862500000204
                },
                {
                    "name": "F4",
                    "midi": 65,
                    "time": 35.625642000000035,
                    "velocity": 0.5039370078740157,
                    "duration": 0.09969862500000204
                },
                {
                    "name": "C4",
                    "midi": 60,
                    "time": 35.89150500000004,
                    "velocity": 0.3543307086614173,
                    "duration": 0.09969862500000204
                },
                {
                    "name": "D#4",
                    "midi": 63,
                    "time": 35.89150500000004,
                    "velocity": 0.41732283464566927,
                    "duration": 0.09969862500000204
                },
                {
                    "name": "F4",
                    "midi": 65,
                    "time": 36.15736800000004,
                    "velocity": 0.41732283464566927,
                    "duration": 1.0634520000000052
                },
                {
                    "name": "D4",
                    "midi": 62,
                    "time": 36.15736800000004,
                    "velocity": 0.3543307086614173,
                    "duration": 1.0634520000000052
                },
                {
                    "name": "A#6",
                    "midi": 94,
                    "time": 36.68909400000004,
                    "velocity": 0.5039370078740157,
                    "duration": 0.26586300000000307
                },
                {
                    "name": "A#5",
                    "midi": 82,
                    "time": 36.68909400000004,
                    "velocity": 0.4251968503937008,
                    "duration": 0.26586300000000307
                },
                {
                    "name": "C4",
                    "midi": 60,
                    "time": 37.220820000000046,
                    "velocity": 0.4251968503937008,
                    "duration": 0.13293149999999798
                },
                {
                    "name": "D#4",
                    "midi": 63,
                    "time": 37.220820000000046,
                    "velocity": 0.5039370078740157,
                    "duration": 0.13293149999999798
                },
                {
                    "name": "D4",
                    "midi": 62,
                    "time": 37.353751500000044,
                    "velocity": 0.3779527559055118,
                    "duration": 0.26586300000000307
                },
                {
                    "name": "F4",
                    "midi": 65,
                    "time": 37.353751500000044,
                    "velocity": 0.44881889763779526,
                    "duration": 0.26586300000000307
                },
                {
                    "name": "D#4",
                    "midi": 63,
                    "time": 37.61961450000005,
                    "velocity": 0.3700787401574803,
                    "duration": 0.13293149999999798
                },
                {
                    "name": "G4",
                    "midi": 67,
                    "time": 37.61961450000005,
                    "velocity": 0.4409448818897638,
                    "duration": 0.13293149999999798
                },
                {
                    "name": "D4",
                    "midi": 62,
                    "time": 37.752546000000045,
                    "velocity": 0.4251968503937008,
                    "duration": 0.13293149999999798
                },
                {
                    "name": "F4",
                    "midi": 65,
                    "time": 37.752546000000045,
                    "velocity": 0.5039370078740157,
                    "duration": 0.13293149999999798
                },
                {
                    "name": "C4",
                    "midi": 60,
                    "time": 38.01840900000004,
                    "velocity": 0.3543307086614173,
                    "duration": 0.09969862500000204
                },
                {
                    "name": "D#4",
                    "midi": 63,
                    "time": 38.01840900000004,
                    "velocity": 0.41732283464566927,
                    "duration": 0.09969862500000204
                },
                {
                    "name": "F4",
                    "midi": 65,
                    "time": 38.284272000000044,
                    "velocity": 0.41732283464566927,
                    "duration": 0.13293149999999798
                },
                {
                    "name": "D4",
                    "midi": 62,
                    "time": 38.284272000000044,
                    "velocity": 0.3543307086614173,
                    "duration": 0.13293149999999798
                },
                {
                    "name": "C4",
                    "midi": 60,
                    "time": 38.55013500000004,
                    "velocity": 0.41732283464566927,
                    "duration": 0.26586300000000307
                },
                {
                    "name": "D#4",
                    "midi": 63,
                    "time": 38.55013500000004,
                    "velocity": 0.41732283464566927,
                    "duration": 0.26586300000000307
                },
                {
                    "name": "D4",
                    "midi": 62,
                    "time": 38.81599800000004,
                    "velocity": 0.41732283464566927,
                    "duration": 0.26586300000000307
                },
                {
                    "name": "F4",
                    "midi": 65,
                    "time": 38.81599800000004,
                    "velocity": 0.41732283464566927,
                    "duration": 0.26586300000000307
                },
                {
                    "name": "G4",
                    "midi": 67,
                    "time": 39.081861000000046,
                    "velocity": 0.41732283464566927,
                    "duration": 0.13293149999999798
                },
                {
                    "name": "A#4",
                    "midi": 70,
                    "time": 39.081861000000046,
                    "velocity": 0.41732283464566927,
                    "duration": 0.13293149999999798
                },
                {
                    "name": "C5",
                    "midi": 72,
                    "time": 39.081861000000046,
                    "velocity": 0.41732283464566927,
                    "duration": 0.13293149999999798
                },
                {
                    "name": "B4",
                    "midi": 71,
                    "time": 39.34772400000004,
                    "velocity": 0.47244094488188976,
                    "duration": 1.5951779999999829
                },
                {
                    "name": "D#5",
                    "midi": 75,
                    "time": 39.34772400000004,
                    "velocity": 0.47244094488188976,
                    "duration": 1.5951779999999829
                },
                {
                    "name": "A#5",
                    "midi": 82,
                    "time": 39.34772400000004,
                    "velocity": 0.6299212598425197,
                    "duration": 0.13293149999999798
                },
                {
                    "name": "G#5",
                    "midi": 80,
                    "time": 39.48065550000004,
                    "velocity": 0.5826771653543307,
                    "duration": 0.13293149999999798
                },
                {
                    "name": "A#5",
                    "midi": 82,
                    "time": 39.746518500000036,
                    "velocity": 0.5826771653543307,
                    "duration": 0.13293149999999798
                },
                {
                    "name": "F5",
                    "midi": 77,
                    "time": 39.879450000000034,
                    "velocity": 0.5984251968503937,
                    "duration": 0.13293149999999798
                },
                {
                    "name": "A#5",
                    "midi": 82,
                    "time": 40.14531300000003,
                    "velocity": 0.6299212598425197,
                    "duration": 0.09969862500000204
                },
                {
                    "name": "G#5",
                    "midi": 80,
                    "time": 40.41117600000003,
                    "velocity": 0.6299212598425197,
                    "duration": 0.13293149999999798
                },
                {
                    "name": "F5",
                    "midi": 77,
                    "time": 40.54410750000003,
                    "velocity": 0.6299212598425197,
                    "duration": 0.13293149999999798
                },
                {
                    "name": "D#5",
                    "midi": 75,
                    "time": 40.80997050000003,
                    "velocity": 0.5826771653543307,
                    "duration": 0.13293149999999798
                },
                {
                    "name": "B4",
                    "midi": 71,
                    "time": 40.942902000000025,
                    "velocity": 0.6299212598425197,
                    "duration": 0.531725999999999
                },
                {
                    "name": "G#4",
                    "midi": 68,
                    "time": 41.60755950000002,
                    "velocity": 0.6299212598425197,
                    "duration": 0.13293149999999798
                },
                {
                    "name": "F4",
                    "midi": 65,
                    "time": 41.74049100000002,
                    "velocity": 0.6220472440944882,
                    "duration": 0.13293149999999798
                },
                {
                    "name": "D#4",
                    "midi": 63,
                    "time": 41.87342250000002,
                    "velocity": 0.6614173228346457,
                    "duration": 0.13293149999999798
                },
                {
                    "name": "B3",
                    "midi": 59,
                    "time": 42.006354000000016,
                    "velocity": 0.6771653543307087,
                    "duration": 0.13293149999999798
                },
                {
                    "name": "G3",
                    "midi": 55,
                    "time": 42.27221700000001,
                    "velocity": 0.7637795275590551,
                    "duration": 0.26586300000000307
                },
                {
                    "name": "D3",
                    "midi": 50,
                    "time": 42.27221700000001,
                    "velocity": 0.6456692913385826,
                    "duration": 0.26586300000000307
                },
                {
                    "name": "D#3",
                    "midi": 51,
                    "time": 42.80394300000002,
                    "velocity": 0.31496062992125984,
                    "duration": 0.09969862500000204
                },
                {
                    "name": "A#3",
                    "midi": 58,
                    "time": 42.80394300000002,
                    "velocity": 0.31496062992125984,
                    "duration": 0.09969862500000204
                },
                {
                    "name": "D#3",
                    "midi": 51,
                    "time": 43.33566900000002,
                    "velocity": 0.31496062992125984,
                    "duration": 0.09969862500000204
                },
                {
                    "name": "A#3",
                    "midi": 58,
                    "time": 43.33566900000002,
                    "velocity": 0.31496062992125984,
                    "duration": 0.09969862500000204
                },
                {
                    "name": "D#3",
                    "midi": 51,
                    "time": 44.93084700000002,
                    "velocity": 0.30708661417322836,
                    "duration": 0.09969862500000204
                },
                {
                    "name": "A#3",
                    "midi": 58,
                    "time": 44.93084700000002,
                    "velocity": 0.30708661417322836,
                    "duration": 0.09969862500000204
                },
                {
                    "name": "D#3",
                    "midi": 51,
                    "time": 45.46257300000002,
                    "velocity": 0.28346456692913385,
                    "duration": 0.09969862500000204
                },
                {
                    "name": "A#3",
                    "midi": 58,
                    "time": 45.46257300000002,
                    "velocity": 0.28346456692913385,
                    "duration": 0.09969862500000204
                },
                {
                    "name": "D#3",
                    "midi": 51,
                    "time": 47.057751000000025,
                    "velocity": 0.30708661417322836,
                    "duration": 0.09969862500000204
                },
                {
                    "name": "A#3",
                    "midi": 58,
                    "time": 47.057751000000025,
                    "velocity": 0.30708661417322836,
                    "duration": 0.09969862500000204
                },
                {
                    "name": "D#3",
                    "midi": 51,
                    "time": 47.589477000000024,
                    "velocity": 0.28346456692913385,
                    "duration": 0.09969862500000204
                },
                {
                    "name": "A#3",
                    "midi": 58,
                    "time": 47.589477000000024,
                    "velocity": 0.28346456692913385,
                    "duration": 0.09969862500000204
                },
                {
                    "name": "A3",
                    "midi": 57,
                    "time": 49.11818925000003,
                    "velocity": 0.1968503937007874,
                    "duration": 0.06646574999999899
                },
                {
                    "name": "C#4",
                    "midi": 61,
                    "time": 49.18465500000003,
                    "velocity": 0.23622047244094488,
                    "duration": 0.06646574999999899
                },
                {
                    "name": "A#3",
                    "midi": 58,
                    "time": 49.18465500000003,
                    "velocity": 0.1968503937007874,
                    "duration": 0.06646574999999899
                },
                {
                    "name": "A3",
                    "midi": 57,
                    "time": 49.64991525000003,
                    "velocity": 0.1968503937007874,
                    "duration": 0.06646574999999899
                },
                {
                    "name": "C#4",
                    "midi": 61,
                    "time": 49.71638100000003,
                    "velocity": 0.23622047244094488,
                    "duration": 0.06646574999999899
                },
                {
                    "name": "A#3",
                    "midi": 58,
                    "time": 49.71638100000003,
                    "velocity": 0.1968503937007874,
                    "duration": 0.06646574999999899
                },
                {
                    "name": "G3",
                    "midi": 55,
                    "time": 50.18164125000003,
                    "velocity": 0.1968503937007874,
                    "duration": 0.06646574999999899
                },
                {
                    "name": "G#3",
                    "midi": 56,
                    "time": 50.248107000000026,
                    "velocity": 0.2204724409448819,
                    "duration": 0.06646574999999899
                },
                {
                    "name": "B3",
                    "midi": 59,
                    "time": 50.248107000000026,
                    "velocity": 0.25984251968503935,
                    "duration": 0.06646574999999899
                },
                {
                    "name": "G#3",
                    "midi": 56,
                    "time": 50.713367250000026,
                    "velocity": 0.1968503937007874,
                    "duration": 0.06646574999999899
                },
                {
                    "name": "F4",
                    "midi": 65,
                    "time": 50.779833000000025,
                    "velocity": 0.2992125984251969,
                    "duration": 0.06646574999999899
                },
                {
                    "name": "C4",
                    "midi": 60,
                    "time": 50.779833000000025,
                    "velocity": 0.2992125984251969,
                    "duration": 0.06646574999999899
                },
                {
                    "name": "A3",
                    "midi": 57,
                    "time": 50.779833000000025,
                    "velocity": 0.25196850393700787,
                    "duration": 0.06646574999999899
                },
                {
                    "name": "A3",
                    "midi": 57,
                    "time": 51.245093250000025,
                    "velocity": 0.1968503937007874,
                    "duration": 0.06646574999999899
                },
                {
                    "name": "C#4",
                    "midi": 61,
                    "time": 51.311559000000024,
                    "velocity": 0.23622047244094488,
                    "duration": 0.06646574999999899
                },
                {
                    "name": "A#3",
                    "midi": 58,
                    "time": 51.311559000000024,
                    "velocity": 0.1968503937007874,
                    "duration": 0.06646574999999899
                },
                {
                    "name": "A3",
                    "midi": 57,
                    "time": 51.776819250000024,
                    "velocity": 0.1968503937007874,
                    "duration": 0.06646574999999899
                },
                {
                    "name": "C#4",
                    "midi": 61,
                    "time": 51.84328500000002,
                    "velocity": 0.23622047244094488,
                    "duration": 0.06646574999999899
                },
                {
                    "name": "A#3",
                    "midi": 58,
                    "time": 51.84328500000002,
                    "velocity": 0.1968503937007874,
                    "duration": 0.06646574999999899
                },
                {
                    "name": "G3",
                    "midi": 55,
                    "time": 52.30854525000002,
                    "velocity": 0.1968503937007874,
                    "duration": 0.06646574999999899
                },
                {
                    "name": "G#3",
                    "midi": 56,
                    "time": 52.37501100000002,
                    "velocity": 0.2204724409448819,
                    "duration": 0.06646574999999899
                },
                {
                    "name": "B3",
                    "midi": 59,
                    "time": 52.37501100000002,
                    "velocity": 0.25984251968503935,
                    "duration": 0.06646574999999899
                },
                {
                    "name": "G#3",
                    "midi": 56,
                    "time": 52.84027125000002,
                    "velocity": 0.1968503937007874,
                    "duration": 0.06646574999999899
                },
                {
                    "name": "F4",
                    "midi": 65,
                    "time": 52.90673700000002,
                    "velocity": 0.2992125984251969,
                    "duration": 0.06646574999999899
                },
                {
                    "name": "C4",
                    "midi": 60,
                    "time": 52.90673700000002,
                    "velocity": 0.2992125984251969,
                    "duration": 0.06646574999999899
                },
                {
                    "name": "A3",
                    "midi": 57,
                    "time": 52.90673700000002,
                    "velocity": 0.25196850393700787,
                    "duration": 0.06646574999999899
                },
                {
                    "name": "A3",
                    "midi": 57,
                    "time": 53.37199725000002,
                    "velocity": 0.1968503937007874,
                    "duration": 0.06646574999999899
                },
                {
                    "name": "C#4",
                    "midi": 61,
                    "time": 53.43846300000002,
                    "velocity": 0.23622047244094488,
                    "duration": 0.06646574999999899
                },
                {
                    "name": "A#3",
                    "midi": 58,
                    "time": 53.43846300000002,
                    "velocity": 0.1968503937007874,
                    "duration": 0.06646574999999899
                },
                {
                    "name": "A3",
                    "midi": 57,
                    "time": 54.70131225000002,
                    "velocity": 0.1968503937007874,
                    "duration": 0.06646574999999899
                },
                {
                    "name": "A#3",
                    "midi": 58,
                    "time": 54.76777800000002,
                    "velocity": 0.2204724409448819,
                    "duration": 0.06646574999999899
                },
                {
                    "name": "C#4",
                    "midi": 61,
                    "time": 54.76777800000002,
                    "velocity": 0.25984251968503935,
                    "duration": 0.06646574999999899
                },
                {
                    "name": "C3",
                    "midi": 48,
                    "time": 56.82821625000002,
                    "velocity": 0.16535433070866143,
                    "duration": 0.06646574999999899
                },
                {
                    "name": "B2",
                    "midi": 47,
                    "time": 56.89468200000002,
                    "velocity": 0.1732283464566929,
                    "duration": 0.06646574999999899
                },
                {
                    "name": "D#3",
                    "midi": 51,
                    "time": 56.89468200000002,
                    "velocity": 0.2125984251968504,
                    "duration": 0.06646574999999899
                },
                {
                    "name": "A3",
                    "midi": 57,
                    "time": 57.62580525000001,
                    "velocity": 0.1968503937007874,
                    "duration": 0.06646574999999899
                },
                {
                    "name": "C#4",
                    "midi": 61,
                    "time": 57.69227100000001,
                    "velocity": 0.23622047244094488,
                    "duration": 0.06646574999999899
                },
                {
                    "name": "A#3",
                    "midi": 58,
                    "time": 57.69227100000001,
                    "velocity": 0.1968503937007874,
                    "duration": 0.06646574999999899
                },
                {
                    "name": "A3",
                    "midi": 57,
                    "time": 58.15753125000001,
                    "velocity": 0.1968503937007874,
                    "duration": 0.06646574999999899
                },
                {
                    "name": "C#4",
                    "midi": 61,
                    "time": 58.22399700000001,
                    "velocity": 0.23622047244094488,
                    "duration": 0.06646574999999899
                },
                {
                    "name": "A#3",
                    "midi": 58,
                    "time": 58.22399700000001,
                    "velocity": 0.1968503937007874,
                    "duration": 0.06646574999999899
                },
                {
                    "name": "G3",
                    "midi": 55,
                    "time": 58.68925725000001,
                    "velocity": 0.1968503937007874,
                    "duration": 0.06646574999999899
                },
                {
                    "name": "G#3",
                    "midi": 56,
                    "time": 58.75572300000001,
                    "velocity": 0.2204724409448819,
                    "duration": 0.06646574999999899
                },
                {
                    "name": "B3",
                    "midi": 59,
                    "time": 58.75572300000001,
                    "velocity": 0.25984251968503935,
                    "duration": 0.06646574999999899
                },
                {
                    "name": "G#3",
                    "midi": 56,
                    "time": 59.22098325000001,
                    "velocity": 0.1968503937007874,
                    "duration": 0.06646574999999899
                },
                {
                    "name": "F4",
                    "midi": 65,
                    "time": 59.28744900000001,
                    "velocity": 0.2992125984251969,
                    "duration": 0.06646574999999899
                },
                {
                    "name": "C4",
                    "midi": 60,
                    "time": 59.28744900000001,
                    "velocity": 0.2992125984251969,
                    "duration": 0.06646574999999899
                },
                {
                    "name": "A3",
                    "midi": 57,
                    "time": 59.28744900000001,
                    "velocity": 0.25196850393700787,
                    "duration": 0.06646574999999899
                },
                {
                    "name": "A3",
                    "midi": 57,
                    "time": 59.75270925000001,
                    "velocity": 0.1968503937007874,
                    "duration": 0.06646574999999899
                },
                {
                    "name": "C#4",
                    "midi": 61,
                    "time": 59.81917500000001,
                    "velocity": 0.23622047244094488,
                    "duration": 0.06646574999999899
                },
                {
                    "name": "A#3",
                    "midi": 58,
                    "time": 59.81917500000001,
                    "velocity": 0.1968503937007874,
                    "duration": 0.06646574999999899
                },
                {
                    "name": "A3",
                    "midi": 57,
                    "time": 60.28443525000001,
                    "velocity": 0.1968503937007874,
                    "duration": 0.06646574999999899
                },
                {
                    "name": "C#4",
                    "midi": 61,
                    "time": 60.35090100000001,
                    "velocity": 0.23622047244094488,
                    "duration": 0.06646574999999899
                },
                {
                    "name": "A#3",
                    "midi": 58,
                    "time": 60.35090100000001,
                    "velocity": 0.1968503937007874,
                    "duration": 0.06646574999999899
                },
                {
                    "name": "G3",
                    "midi": 55,
                    "time": 60.81616125000001,
                    "velocity": 0.1968503937007874,
                    "duration": 0.06646574999999899
                },
                {
                    "name": "G#3",
                    "midi": 56,
                    "time": 60.88262700000001,
                    "velocity": 0.2204724409448819,
                    "duration": 0.06646574999999899
                },
                {
                    "name": "B3",
                    "midi": 59,
                    "time": 60.88262700000001,
                    "velocity": 0.25984251968503935,
                    "duration": 0.06646574999999899
                },
                {
                    "name": "G#3",
                    "midi": 56,
                    "time": 61.34788725000001,
                    "velocity": 0.1968503937007874,
                    "duration": 0.06646574999999899
                },
                {
                    "name": "F4",
                    "midi": 65,
                    "time": 61.414353000000006,
                    "velocity": 0.2992125984251969,
                    "duration": 0.06646574999999899
                },
                {
                    "name": "C4",
                    "midi": 60,
                    "time": 61.414353000000006,
                    "velocity": 0.2992125984251969,
                    "duration": 0.06646574999999899
                },
                {
                    "name": "A3",
                    "midi": 57,
                    "time": 61.414353000000006,
                    "velocity": 0.25196850393700787,
                    "duration": 0.06646574999999899
                },
                {
                    "name": "A3",
                    "midi": 57,
                    "time": 61.879613250000006,
                    "velocity": 0.1968503937007874,
                    "duration": 0.06646574999999899
                },
                {
                    "name": "C#4",
                    "midi": 61,
                    "time": 61.946079000000005,
                    "velocity": 0.23622047244094488,
                    "duration": 0.06646574999999899
                },
                {
                    "name": "A#3",
                    "midi": 58,
                    "time": 61.946079000000005,
                    "velocity": 0.1968503937007874,
                    "duration": 0.06646574999999899
                },
                {
                    "name": "A3",
                    "midi": 57,
                    "time": 64.338846,
                    "velocity": 0.36220472440944884,
                    "duration": 1.3293150000000082
                },
                {
                    "name": "F4",
                    "midi": 65,
                    "time": 64.87057200000001,
                    "velocity": 0.49606299212598426,
                    "duration": 0.7975890000000021
                },
                {
                    "name": "E4",
                    "midi": 64,
                    "time": 65.66816100000001,
                    "velocity": 0.5354330708661418,
                    "duration": 0.26586299999999596
                },
                {
                    "name": "A#3",
                    "midi": 58,
                    "time": 65.66816100000001,
                    "velocity": 0.5354330708661418,
                    "duration": 0.26586299999999596
                },
                {
                    "name": "D#4",
                    "midi": 63,
                    "time": 65.93402400000001,
                    "velocity": 0.3858267716535433,
                    "duration": 1.0634520000000407
                },
                {
                    "name": "B3",
                    "midi": 59,
                    "time": 65.93402400000001,
                    "velocity": 0.3228346456692913,
                    "duration": 1.0634520000000407
                },
                {
                    "name": "D5",
                    "midi": 74,
                    "time": 66.13342125000001,
                    "velocity": 0.1968503937007874,
                    "duration": 0.0664657500000061
                },
                {
                    "name": "B4",
                    "midi": 71,
                    "time": 66.19988700000002,
                    "velocity": 0.2204724409448819,
                    "duration": 0.0664657500000061
                },
                {
                    "name": "D#5",
                    "midi": 75,
                    "time": 66.19988700000002,
                    "velocity": 0.25984251968503935,
                    "duration": 0.0664657500000061
                },
                {
                    "name": "C5",
                    "midi": 72,
                    "time": 66.39928425000002,
                    "velocity": 0.1968503937007874,
                    "duration": 0.0664657500000061
                },
                {
                    "name": "B4",
                    "midi": 71,
                    "time": 66.46575000000003,
                    "velocity": 0.2204724409448819,
                    "duration": 0.0664657500000061
                },
                {
                    "name": "C#5",
                    "midi": 73,
                    "time": 66.46575000000003,
                    "velocity": 0.25984251968503935,
                    "duration": 0.0664657500000061
                },
                {
                    "name": "D5",
                    "midi": 74,
                    "time": 66.66514725000003,
                    "velocity": 0.1968503937007874,
                    "duration": 0.0664657500000061
                },
                {
                    "name": "D#5",
                    "midi": 75,
                    "time": 66.73161300000004,
                    "velocity": 0.2992125984251969,
                    "duration": 0.0664657500000061
                },
                {
                    "name": "B4",
                    "midi": 71,
                    "time": 66.73161300000004,
                    "velocity": 0.2992125984251969,
                    "duration": 0.0664657500000061
                },
                {
                    "name": "D5",
                    "midi": 74,
                    "time": 67.19687325000005,
                    "velocity": 0.1968503937007874,
                    "duration": 0.0664657500000061
                },
                {
                    "name": "B4",
                    "midi": 71,
                    "time": 67.26333900000006,
                    "velocity": 0.2204724409448819,
                    "duration": 0.0664657500000061
                },
                {
                    "name": "D#5",
                    "midi": 75,
                    "time": 67.26333900000006,
                    "velocity": 0.25984251968503935,
                    "duration": 0.0664657500000061
                },
                {
                    "name": "C5",
                    "midi": 72,
                    "time": 67.46273625000006,
                    "velocity": 0.1968503937007874,
                    "duration": 0.0664657500000061
                },
                {
                    "name": "B4",
                    "midi": 71,
                    "time": 67.52920200000007,
                    "velocity": 0.2204724409448819,
                    "duration": 0.0664657500000061
                },
                {
                    "name": "C#5",
                    "midi": 73,
                    "time": 67.52920200000007,
                    "velocity": 0.25984251968503935,
                    "duration": 0.0664657500000061
                },
                {
                    "name": "D5",
                    "midi": 74,
                    "time": 67.72859925000007,
                    "velocity": 0.1968503937007874,
                    "duration": 0.0664657500000061
                },
                {
                    "name": "D#5",
                    "midi": 75,
                    "time": 67.79506500000008,
                    "velocity": 0.2992125984251969,
                    "duration": 0.0664657500000061
                },
                {
                    "name": "B4",
                    "midi": 71,
                    "time": 67.79506500000008,
                    "velocity": 0.2992125984251969,
                    "duration": 0.0664657500000061
                },
                {
                    "name": "A3",
                    "midi": 57,
                    "time": 68.59265400000008,
                    "velocity": 0.36220472440944884,
                    "duration": 1.5951780000000042
                },
                {
                    "name": "F4",
                    "midi": 65,
                    "time": 69.12438000000009,
                    "velocity": 0.49606299212598426,
                    "duration": 0.7975890000000021
                },
                {
                    "name": "E4",
                    "midi": 64,
                    "time": 69.92196900000009,
                    "velocity": 0.5354330708661418,
                    "duration": 0.26586299999999596
                },
                {
                    "name": "D#4",
                    "midi": 63,
                    "time": 70.18783200000009,
                    "velocity": 0.3858267716535433,
                    "duration": 1.0634520000000407
                },
                {
                    "name": "A#3",
                    "midi": 58,
                    "time": 70.18783200000009,
                    "velocity": 0.3228346456692913,
                    "duration": 1.0634520000000407
                },
                {
                    "name": "D5",
                    "midi": 74,
                    "time": 70.38722925000009,
                    "velocity": 0.1968503937007874,
                    "duration": 0.0664657500000061
                },
                {
                    "name": "A#4",
                    "midi": 70,
                    "time": 70.4536950000001,
                    "velocity": 0.2204724409448819,
                    "duration": 0.0664657500000061
                },
                {
                    "name": "D#5",
                    "midi": 75,
                    "time": 70.4536950000001,
                    "velocity": 0.25984251968503935,
                    "duration": 0.0664657500000061
                },
                {
                    "name": "C5",
                    "midi": 72,
                    "time": 70.6530922500001,
                    "velocity": 0.1968503937007874,
                    "duration": 0.0664657500000061
                },
                {
                    "name": "A#4",
                    "midi": 70,
                    "time": 70.7195580000001,
                    "velocity": 0.2204724409448819,
                    "duration": 0.0664657500000061
                },
                {
                    "name": "C#5",
                    "midi": 73,
                    "time": 70.7195580000001,
                    "velocity": 0.25984251968503935,
                    "duration": 0.0664657500000061
                },
                {
                    "name": "D5",
                    "midi": 74,
                    "time": 70.91895525000011,
                    "velocity": 0.1968503937007874,
                    "duration": 0.0664657500000061
                },
                {
                    "name": "D#5",
                    "midi": 75,
                    "time": 70.98542100000012,
                    "velocity": 0.2992125984251969,
                    "duration": 0.0664657500000061
                },
                {
                    "name": "A#4",
                    "midi": 70,
                    "time": 70.98542100000012,
                    "velocity": 0.2992125984251969,
                    "duration": 0.0664657500000061
                },
                {
                    "name": "D5",
                    "midi": 74,
                    "time": 71.45068125000013,
                    "velocity": 0.1968503937007874,
                    "duration": 0.0664657500000061
                },
                {
                    "name": "A#4",
                    "midi": 70,
                    "time": 71.51714700000014,
                    "velocity": 0.2204724409448819,
                    "duration": 0.0664657500000061
                },
                {
                    "name": "D#5",
                    "midi": 75,
                    "time": 71.51714700000014,
                    "velocity": 0.25984251968503935,
                    "duration": 0.0664657500000061
                },
                {
                    "name": "C5",
                    "midi": 72,
                    "time": 71.71654425000014,
                    "velocity": 0.1968503937007874,
                    "duration": 0.0664657500000061
                },
                {
                    "name": "A#4",
                    "midi": 70,
                    "time": 71.78301000000015,
                    "velocity": 0.2204724409448819,
                    "duration": 0.0664657500000061
                },
                {
                    "name": "C#5",
                    "midi": 73,
                    "time": 71.78301000000015,
                    "velocity": 0.25984251968503935,
                    "duration": 0.0664657500000061
                },
                {
                    "name": "D5",
                    "midi": 74,
                    "time": 71.98240725000015,
                    "velocity": 0.1968503937007874,
                    "duration": 0.0664657500000061
                },
                {
                    "name": "D#5",
                    "midi": 75,
                    "time": 72.04887300000016,
                    "velocity": 0.2992125984251969,
                    "duration": 0.0664657500000061
                },
                {
                    "name": "A#4",
                    "midi": 70,
                    "time": 72.04887300000016,
                    "velocity": 0.2992125984251969,
                    "duration": 0.0664657500000061
                },
                {
                    "name": "A4",
                    "midi": 69,
                    "time": 72.84646200000016,
                    "velocity": 0.3937007874015748,
                    "duration": 0.5317260000000061
                },
                {
                    "name": "F5",
                    "midi": 77,
                    "time": 73.37818800000016,
                    "velocity": 0.49606299212598426,
                    "duration": 0.26586299999999596
                },
                {
                    "name": "G#5",
                    "midi": 80,
                    "time": 73.64405100000016,
                    "velocity": 0.5826771653543307,
                    "duration": 0.5317260000000061
                },
                {
                    "name": "F#5",
                    "midi": 78,
                    "time": 74.17577700000017,
                    "velocity": 0.5354330708661418,
                    "duration": 0.26586299999999596
                },
                {
                    "name": "A#4",
                    "midi": 70,
                    "time": 74.44164000000016,
                    "velocity": 0.44881889763779526,
                    "duration": 0.26586299999999596
                },
                {
                    "name": "D#5",
                    "midi": 75,
                    "time": 74.44164000000016,
                    "velocity": 0.5354330708661418,
                    "duration": 0.13293149999999798
                },
                {
                    "name": "F#5",
                    "midi": 78,
                    "time": 74.57457150000016,
                    "velocity": 0.5826771653543307,
                    "duration": 0.26586299999999596
                },
                {
                    "name": "G#4",
                    "midi": 68,
                    "time": 74.70750300000016,
                    "velocity": 0.5669291338582677,
                    "duration": 0.26586299999999596
                },
                {
                    "name": "F5",
                    "midi": 77,
                    "time": 74.84043450000016,
                    "velocity": 0.5354330708661418,
                    "duration": 0.13293149999999798
                },
                {
                    "name": "C#5",
                    "midi": 73,
                    "time": 74.97336600000015,
                    "velocity": 0.6141732283464567,
                    "duration": 0.5317259999999919
                },
                {
                    "name": "F#4",
                    "midi": 66,
                    "time": 74.97336600000015,
                    "velocity": 0.5196850393700787,
                    "duration": 0.26586299999999596
                },
                {
                    "name": "F4",
                    "midi": 65,
                    "time": 75.23922900000015,
                    "velocity": 0.44881889763779526,
                    "duration": 0.26586299999999596
                },
                {
                    "name": "D#4",
                    "midi": 63,
                    "time": 75.50509200000015,
                    "velocity": 0.3779527559055118,
                    "duration": 0.26586299999999596
                },
                {
                    "name": "G#4",
                    "midi": 68,
                    "time": 75.50509200000015,
                    "velocity": 0.44881889763779526,
                    "duration": 0.13293149999999798
                },
                {
                    "name": "B4",
                    "midi": 71,
                    "time": 75.63802350000014,
                    "velocity": 0.48031496062992124,
                    "duration": 0.26586299999999596
                },
                {
                    "name": "C#4",
                    "midi": 61,
                    "time": 75.77095500000014,
                    "velocity": 0.4330708661417323,
                    "duration": 0.26586299999999596
                },
                {
                    "name": "A#4",
                    "midi": 70,
                    "time": 75.90388650000014,
                    "velocity": 0.44881889763779526,
                    "duration": 0.13293149999999798
                },
                {
                    "name": "B3",
                    "midi": 59,
                    "time": 76.03681800000014,
                    "velocity": 0.33070866141732286,
                    "duration": 1.3293149999999798
                },
                {
                    "name": "C#4",
                    "midi": 61,
                    "time": 76.03681800000014,
                    "velocity": 0.3937007874015748,
                    "duration": 0.5317259999999919
                },
                {
                    "name": "A#3",
                    "midi": 58,
                    "time": 76.30268100000013,
                    "velocity": 0.33070866141732286,
                    "duration": 0.5317259999999919
                },
                {
                    "name": "A3",
                    "midi": 57,
                    "time": 77.10027000000012,
                    "velocity": 0.36220472440944884,
                    "duration": 1.063451999999998
                },
                {
                    "name": "F4",
                    "midi": 65,
                    "time": 77.63199600000011,
                    "velocity": 0.49606299212598426,
                    "duration": 0.7975890000000021
                },
                {
                    "name": "A#3",
                    "midi": 58,
                    "time": 78.16372200000012,
                    "velocity": 0.5354330708661418,
                    "duration": 0.5317259999999919
                },
                {
                    "name": "E4",
                    "midi": 64,
                    "time": 78.42958500000012,
                    "velocity": 0.5354330708661418,
                    "duration": 0.26586299999999596
                },
                {
                    "name": "D#4",
                    "midi": 63,
                    "time": 78.69544800000011,
                    "velocity": 0.3858267716535433,
                    "duration": 1.0634520000000407
                },
                {
                    "name": "B3",
                    "midi": 59,
                    "time": 78.69544800000011,
                    "velocity": 0.3228346456692913,
                    "duration": 1.0634520000000407
                },
                {
                    "name": "D5",
                    "midi": 74,
                    "time": 78.89484525000012,
                    "velocity": 0.1968503937007874,
                    "duration": 0.0664657500000061
                },
                {
                    "name": "B4",
                    "midi": 71,
                    "time": 78.96131100000012,
                    "velocity": 0.2204724409448819,
                    "duration": 0.0664657500000061
                },
                {
                    "name": "D#5",
                    "midi": 75,
                    "time": 78.96131100000012,
                    "velocity": 0.25984251968503935,
                    "duration": 0.0664657500000061
                },
                {
                    "name": "C5",
                    "midi": 72,
                    "time": 79.16070825000013,
                    "velocity": 0.1968503937007874,
                    "duration": 0.0664657500000061
                },
                {
                    "name": "B4",
                    "midi": 71,
                    "time": 79.22717400000013,
                    "velocity": 0.2204724409448819,
                    "duration": 0.0664657500000061
                },
                {
                    "name": "C#5",
                    "midi": 73,
                    "time": 79.22717400000013,
                    "velocity": 0.25984251968503935,
                    "duration": 0.0664657500000061
                },
                {
                    "name": "D5",
                    "midi": 74,
                    "time": 79.42657125000014,
                    "velocity": 0.1968503937007874,
                    "duration": 0.0664657500000061
                },
                {
                    "name": "D#5",
                    "midi": 75,
                    "time": 79.49303700000014,
                    "velocity": 0.2992125984251969,
                    "duration": 0.0664657500000061
                },
                {
                    "name": "B4",
                    "midi": 71,
                    "time": 79.49303700000014,
                    "velocity": 0.2992125984251969,
                    "duration": 0.0664657500000061
                },
                {
                    "name": "A3",
                    "midi": 57,
                    "time": 80.29062600000016,
                    "velocity": 0.36220472440944884,
                    "duration": 1.5951780000000042
                },
                {
                    "name": "F4",
                    "midi": 65,
                    "time": 80.82235200000017,
                    "velocity": 0.49606299212598426,
                    "duration": 0.7975890000000021
                },
                {
                    "name": "E4",
                    "midi": 64,
                    "time": 81.61994100000017,
                    "velocity": 0.41732283464566927,
                    "duration": 0.26586299999999596
                },
                {
                    "name": "D#4",
                    "midi": 63,
                    "time": 81.88580400000016,
                    "velocity": 0.3858267716535433,
                    "duration": 1.0634520000000407
                },
                {
                    "name": "A#3",
                    "midi": 58,
                    "time": 81.88580400000016,
                    "velocity": 0.3228346456692913,
                    "duration": 1.0634520000000407
                },
                {
                    "name": "D5",
                    "midi": 74,
                    "time": 82.08520125000017,
                    "velocity": 0.1968503937007874,
                    "duration": 0.0664657500000061
                },
                {
                    "name": "A#4",
                    "midi": 70,
                    "time": 82.15166700000017,
                    "velocity": 0.2204724409448819,
                    "duration": 0.0664657500000061
                },
                {
                    "name": "D#5",
                    "midi": 75,
                    "time": 82.15166700000017,
                    "velocity": 0.25984251968503935,
                    "duration": 0.0664657500000061
                },
                {
                    "name": "C5",
                    "midi": 72,
                    "time": 82.35106425000018,
                    "velocity": 0.1968503937007874,
                    "duration": 0.0664657500000061
                },
                {
                    "name": "A#4",
                    "midi": 70,
                    "time": 82.41753000000018,
                    "velocity": 0.2204724409448819,
                    "duration": 0.0664657500000061
                },
                {
                    "name": "C#5",
                    "midi": 73,
                    "time": 82.41753000000018,
                    "velocity": 0.25984251968503935,
                    "duration": 0.0664657500000061
                },
                {
                    "name": "D5",
                    "midi": 74,
                    "time": 82.61692725000019,
                    "velocity": 0.1968503937007874,
                    "duration": 0.0664657500000061
                },
                {
                    "name": "D#5",
                    "midi": 75,
                    "time": 82.6833930000002,
                    "velocity": 0.2992125984251969,
                    "duration": 0.0664657500000061
                },
                {
                    "name": "A#4",
                    "midi": 70,
                    "time": 82.6833930000002,
                    "velocity": 0.2992125984251969,
                    "duration": 0.0664657500000061
                },
                {
                    "name": "C#5",
                    "midi": 73,
                    "time": 83.48098200000021,
                    "velocity": 0.3937007874015748,
                    "duration": 0.5317260000000061
                },
                {
                    "name": "A5",
                    "midi": 81,
                    "time": 84.01270800000022,
                    "velocity": 0.49606299212598426,
                    "duration": 0.26586299999999596
                },
                {
                    "name": "B5",
                    "midi": 83,
                    "time": 84.27857100000021,
                    "velocity": 0.5826771653543307,
                    "duration": 0.5317260000000061
                },
                {
                    "name": "A#5",
                    "midi": 82,
                    "time": 84.81029700000022,
                    "velocity": 0.5354330708661418,
                    "duration": 0.26586299999999596
                },
                {
                    "name": "A#4",
                    "midi": 70,
                    "time": 85.07616000000021,
                    "velocity": 0.44881889763779526,
                    "duration": 0.26586299999999596
                },
                {
                    "name": "F5",
                    "midi": 77,
                    "time": 85.07616000000021,
                    "velocity": 0.5354330708661418,
                    "duration": 0.13293149999999798
                },
                {
                    "name": "G#5",
                    "midi": 80,
                    "time": 85.20909150000021,
                    "velocity": 0.5826771653543307,
                    "duration": 0.26586299999999596
                },
                {
                    "name": "G#4",
                    "midi": 68,
                    "time": 85.34202300000021,
                    "velocity": 0.5669291338582677,
                    "duration": 0.26586299999999596
                },
                {
                    "name": "F#5",
                    "midi": 78,
                    "time": 85.47495450000021,
                    "velocity": 0.5354330708661418,
                    "duration": 0.13293149999999798
                },
                {
                    "name": "D#5",
                    "midi": 75,
                    "time": 85.6078860000002,
                    "velocity": 0.6141732283464567,
                    "duration": 0.5317259999999919
                },
                {
                    "name": "F#4",
                    "midi": 66,
                    "time": 85.6078860000002,
                    "velocity": 0.5196850393700787,
                    "duration": 0.26586299999999596
                },
                {
                    "name": "F4",
                    "midi": 65,
                    "time": 85.8737490000002,
                    "velocity": 0.44881889763779526,
                    "duration": 0.26586299999999596
                },
                {
                    "name": "A#4",
                    "midi": 70,
                    "time": 86.1396120000002,
                    "velocity": 0.44881889763779526,
                    "duration": 0.13293149999999798
                },
                {
                    "name": "C#5",
                    "midi": 73,
                    "time": 86.2725435000002,
                    "velocity": 0.48031496062992124,
                    "duration": 0.26586299999999596
                },
                {
                    "name": "B4",
                    "midi": 71,
                    "time": 86.53840650000019,
                    "velocity": 0.44881889763779526,
                    "duration": 0.13293149999999798
                },
                {
                    "name": "F4",
                    "midi": 65,
                    "time": 86.67133800000019,
                    "velocity": 0.3937007874015748,
                    "duration": 0.39879449999999395
                },
                {
                    "name": "F#4",
                    "midi": 66,
                    "time": 87.07013250000018,
                    "velocity": 0.3937007874015748,
                    "duration": 0.13293149999999798
                },
                {
                    "name": "F#3",
                    "midi": 54,
                    "time": 87.20306400000018,
                    "velocity": 0.2440944881889764,
                    "duration": 4.253807999999978
                },
                {
                    "name": "B3",
                    "midi": 59,
                    "time": 87.20306400000018,
                    "velocity": 0.2440944881889764,
                    "duration": 4.253807999999978
                },
                {
                    "name": "D#4",
                    "midi": 63,
                    "time": 87.20306400000018,
                    "velocity": 0.2440944881889764,
                    "duration": 4.253807999999978
                },
                {
                    "name": "A#4",
                    "midi": 70,
                    "time": 89.72876250000019,
                    "velocity": 0.33858267716535434,
                    "duration": 0.13293149999999798
                },
                {
                    "name": "G#4",
                    "midi": 68,
                    "time": 89.86169400000018,
                    "velocity": 0.3700787401574803,
                    "duration": 0.26586299999999596
                },
                {
                    "name": "A#4",
                    "midi": 70,
                    "time": 90.12755700000018,
                    "velocity": 0.3228346456692913,
                    "duration": 0.26586299999999596
                },
                {
                    "name": "A#4",
                    "midi": 70,
                    "time": 90.79221450000017,
                    "velocity": 0.33858267716535434,
                    "duration": 0.13293149999999798
                },
                {
                    "name": "G#4",
                    "midi": 68,
                    "time": 90.92514600000017,
                    "velocity": 0.3700787401574803,
                    "duration": 0.26586299999999596
                },
                {
                    "name": "A#4",
                    "midi": 70,
                    "time": 91.19100900000016,
                    "velocity": 0.3228346456692913,
                    "duration": 0.26586299999999596
                },
                {
                    "name": "F#3",
                    "midi": 54,
                    "time": 91.45687200000016,
                    "velocity": 0.2440944881889764,
                    "duration": 1.063451999999998
                },
                {
                    "name": "B3",
                    "midi": 59,
                    "time": 91.45687200000016,
                    "velocity": 0.2440944881889764,
                    "duration": 3.1903559999999658
                },
                {
                    "name": "C#4",
                    "midi": 61,
                    "time": 91.45687200000016,
                    "velocity": 0.2440944881889764,
                    "duration": 3.1903559999999658
                },
                {
                    "name": "F3",
                    "midi": 53,
                    "time": 92.52032400000016,
                    "velocity": 0.2440944881889764,
                    "duration": 2.1269039999999677
                },
                {
                    "name": "A#4",
                    "midi": 70,
                    "time": 92.91911850000015,
                    "velocity": 0.2677165354330709,
                    "duration": 0.13293149999999798
                },
                {
                    "name": "G#4",
                    "midi": 68,
                    "time": 93.05205000000015,
                    "velocity": 0.30708661417322836,
                    "duration": 0.26586299999999596
                },
                {
                    "name": "A#4",
                    "midi": 70,
                    "time": 93.31791300000015,
                    "velocity": 0.2677165354330709,
                    "duration": 0.26586299999999596
                },
                {
                    "name": "A#4",
                    "midi": 70,
                    "time": 93.98257050000014,
                    "velocity": 0.25984251968503935,
                    "duration": 0.13293149999999798
                },
                {
                    "name": "G#4",
                    "midi": 68,
                    "time": 94.11550200000013,
                    "velocity": 0.31496062992125984,
                    "duration": 0.26586299999999596
                },
                {
                    "name": "A#4",
                    "midi": 70,
                    "time": 94.38136500000013,
                    "velocity": 0.25196850393700787,
                    "duration": 0.26586299999999596
                },
                {
                    "name": "A#4",
                    "midi": 70,
                    "time": 94.64722800000013,
                    "velocity": 0.30708661417322836,
                    "duration": 0.13293149999999798
                },
                {
                    "name": "G#4",
                    "midi": 68,
                    "time": 94.78015950000012,
                    "velocity": 0.2677165354330709,
                    "duration": 0.13293149999999798
                },
                {
                    "name": "A#4",
                    "midi": 70,
                    "time": 95.04602250000012,
                    "velocity": 0.33070866141732286,
                    "duration": 0.13293149999999798
                },
                {
                    "name": "F4",
                    "midi": 65,
                    "time": 95.17895400000012,
                    "velocity": 0.3543307086614173,
                    "duration": 0.13293149999999798
                },
                {
                    "name": "A#4",
                    "midi": 70,
                    "time": 95.44481700000011,
                    "velocity": 0.3779527559055118,
                    "duration": 0.09969862500000204
                },
                {
                    "name": "G#4",
                    "midi": 68,
                    "time": 95.71068000000011,
                    "velocity": 0.30708661417322836,
                    "duration": 0.13293149999999798
                },
                {
                    "name": "F4",
                    "midi": 65,
                    "time": 95.84361150000011,
                    "velocity": 0.2677165354330709,
                    "duration": 0.13293149999999798
                },
                {
                    "name": "D#4",
                    "midi": 63,
                    "time": 96.1094745000001,
                    "velocity": 0.33070866141732286,
                    "duration": 0.13293149999999798
                },
                {
                    "name": "B3",
                    "midi": 59,
                    "time": 96.2424060000001,
                    "velocity": 0.3543307086614173,
                    "duration": 0.13293149999999798
                },
                {
                    "name": "D#4",
                    "midi": 63,
                    "time": 96.5082690000001,
                    "velocity": 0.3779527559055118,
                    "duration": 0.09969862500000204
                },
                {
                    "name": "A#3",
                    "midi": 58,
                    "time": 96.7741320000001,
                    "velocity": 0.6299212598425197,
                    "duration": 0.09969862500000204
                },
                {
                    "name": "A#3",
                    "midi": 58,
                    "time": 96.90706350000009,
                    "velocity": 0.5826771653543307,
                    "duration": 0.13293149999999798
                },
                {
                    "name": "C4",
                    "midi": 60,
                    "time": 97.17292650000009,
                    "velocity": 0.5826771653543307,
                    "duration": 0.13293149999999798
                },
                {
                    "name": "A#3",
                    "midi": 58,
                    "time": 97.30585800000009,
                    "velocity": 0.5984251968503937,
                    "duration": 0.13293149999999798
                },
                {
                    "name": "D#4",
                    "midi": 63,
                    "time": 97.53848812500009,
                    "velocity": 0.5354330708661418,
                    "duration": 0.13293149999999798
                },
                {
                    "name": "A#4",
                    "midi": 70,
                    "time": 97.57172100000008,
                    "velocity": 0.6299212598425197,
                    "duration": 0.09969862500000204
                },
                {
                    "name": "A#3",
                    "midi": 58,
                    "time": 97.83758400000008,
                    "velocity": 0.6299212598425197,
                    "duration": 1.063451999999998
                },
                {
                    "name": "A#3",
                    "midi": 58,
                    "time": 98.90103600000008,
                    "velocity": 0.5039370078740157,
                    "duration": 0.13293149999999798
                },
                {
                    "name": "G#3",
                    "midi": 56,
                    "time": 99.03396750000007,
                    "velocity": 0.44881889763779526,
                    "duration": 0.13293149999999798
                },
                {
                    "name": "A#3",
                    "midi": 58,
                    "time": 99.29983050000007,
                    "velocity": 0.4409448818897638,
                    "duration": 0.13293149999999798
                },
                {
                    "name": "C4",
                    "midi": 60,
                    "time": 99.43276200000007,
                    "velocity": 0.5039370078740157,
                    "duration": 0.09969862500000204
                },
                {
                    "name": "G#3",
                    "midi": 56,
                    "time": 99.69862500000006,
                    "velocity": 0.41732283464566927,
                    "duration": 0.09969862500000204
                },
                {
                    "name": "A#3",
                    "midi": 58,
                    "time": 99.96448800000006,
                    "velocity": 0.5039370078740157,
                    "duration": 0.13293149999999798
                },
                {
                    "name": "G#3",
                    "midi": 56,
                    "time": 100.09741950000006,
                    "velocity": 0.44881889763779526,
                    "duration": 0.13293149999999798
                },
                {
                    "name": "A#3",
                    "midi": 58,
                    "time": 100.36328250000005,
                    "velocity": 0.4409448818897638,
                    "duration": 0.13293149999999798
                },
                {
                    "name": "B3",
                    "midi": 59,
                    "time": 100.49621400000005,
                    "velocity": 0.5039370078740157,
                    "duration": 0.09969862500000204
                },
                {
                    "name": "G#3",
                    "midi": 56,
                    "time": 100.76207700000005,
                    "velocity": 0.41732283464566927,
                    "duration": 0.09969862500000204
                },
                {
                    "name": "A#3",
                    "midi": 58,
                    "time": 101.02794000000004,
                    "velocity": 0.5039370078740157,
                    "duration": 0.13293149999999798
                },
                {
                    "name": "G#3",
                    "midi": 56,
                    "time": 101.16087150000004,
                    "velocity": 0.4645669291338583,
                    "duration": 0.13293149999999798
                },
                {
                    "name": "F3",
                    "midi": 53,
                    "time": 101.42673450000004,
                    "velocity": 0.4645669291338583,
                    "duration": 0.09969862500000204
                },
                {
                    "name": "D#3",
                    "midi": 51,
                    "time": 101.55966600000004,
                    "velocity": 0.48031496062992124,
                    "duration": 0.13293149999999798
                },
                {
                    "name": "D3",
                    "midi": 50,
                    "time": 101.82552900000003,
                    "velocity": 0.5118110236220472,
                    "duration": 0.13293149999999798
                },
                {
                    "name": "C3",
                    "midi": 48,
                    "time": 102.09139200000003,
                    "velocity": 0.5590551181102362,
                    "duration": 0.13293149999999798
                },
                {
                    "name": "G2",
                    "midi": 43,
                    "time": 102.35725500000002,
                    "velocity": 0.5354330708661418,
                    "duration": 0.13293149999999798
                },
                {
                    "name": "C3",
                    "midi": 48,
                    "time": 102.62311800000002,
                    "velocity": 0.5984251968503937,
                    "duration": 0.13293149999999798
                },
                {
                    "name": "D3",
                    "midi": 50,
                    "time": 102.88898100000002,
                    "velocity": 0.6299212598425197,
                    "duration": 0.13293149999999798
                },
                {
                    "name": "A#4",
                    "midi": 70,
                    "time": 103.15484400000001,
                    "velocity": 0.6299212598425197,
                    "duration": 0.13293149999999798
                },
                {
                    "name": "G#4",
                    "midi": 68,
                    "time": 103.28777550000001,
                    "velocity": 0.5826771653543307,
                    "duration": 0.13293149999999798
                },
                {
                    "name": "D#4",
                    "midi": 63,
                    "time": 103.42070700000001,
                    "velocity": 0.3543307086614173,
                    "duration": 0.13293149999999798
                },
                {
                    "name": "B3",
                    "midi": 59,
                    "time": 103.42070700000001,
                    "velocity": 0.3543307086614173,
                    "duration": 0.13293149999999798
                },
                {
                    "name": "A#4",
                    "midi": 70,
                    "time": 103.5536385,
                    "velocity": 0.5826771653543307,
                    "duration": 0.13293149999999798
                },
                {
                    "name": "F4",
                    "midi": 65,
                    "time": 103.68657,
                    "velocity": 0.5984251968503937,
                    "duration": 0.13293149999999798
                },
                {
                    "name": "B3",
                    "midi": 59,
                    "time": 103.952433,
                    "velocity": 0.3543307086614173,
                    "duration": 0.13293149999999798
                },
                {
                    "name": "D#4",
                    "midi": 63,
                    "time": 103.952433,
                    "velocity": 0.3543307086614173,
                    "duration": 0.13293149999999798
                },
                {
                    "name": "A#4",
                    "midi": 70,
                    "time": 103.952433,
                    "velocity": 0.6299212598425197,
                    "duration": 0.09969862500000204
                },
                {
                    "name": "G#4",
                    "midi": 68,
                    "time": 104.218296,
                    "velocity": 0.6299212598425197,
                    "duration": 0.13293149999999798
                },
                {
                    "name": "F4",
                    "midi": 65,
                    "time": 104.3512275,
                    "velocity": 0.6299212598425197,
                    "duration": 0.13293149999999798
                },
                {
                    "name": "B3",
                    "midi": 59,
                    "time": 104.48415899999999,
                    "velocity": 0.3543307086614173,
                    "duration": 0.09969862500000204
                },
                {
                    "name": "D#4",
                    "midi": 63,
                    "time": 104.61709049999999,
                    "velocity": 0.5826771653543307,
                    "duration": 0.13293149999999798
                },
                {
                    "name": "B3",
                    "midi": 59,
                    "time": 104.75002199999999,
                    "velocity": 0.6299212598425197,
                    "duration": 0.13293149999999798
                },
                {
                    "name": "D#4",
                    "midi": 63,
                    "time": 105.01588499999998,
                    "velocity": 0.6299212598425197,
                    "duration": 0.0664657500000061
                },
                {
                    "name": "B3",
                    "midi": 59,
                    "time": 105.01588499999998,
                    "velocity": 0.5669291338582677,
                    "duration": 0.0664657500000061
                },
                {
                    "name": "A#3",
                    "midi": 58,
                    "time": 105.281748,
                    "velocity": 0.6299212598425197,
                    "duration": 0.09969862500000204
                },
                {
                    "name": "A#3",
                    "midi": 58,
                    "time": 105.41467949999999,
                    "velocity": 0.5826771653543307,
                    "duration": 0.13293149999999798
                },
                {
                    "name": "C4",
                    "midi": 60,
                    "time": 105.68054249999999,
                    "velocity": 0.5826771653543307,
                    "duration": 0.13293149999999798
                },
                {
                    "name": "A#3",
                    "midi": 58,
                    "time": 105.81347399999999,
                    "velocity": 0.5984251968503937,
                    "duration": 0.13293149999999798
                },
                {
                    "name": "D#4",
                    "midi": 63,
                    "time": 106.04610412499999,
                    "velocity": 0.5354330708661418,
                    "duration": 0.13293149999999798
                },
                {
                    "name": "A#4",
                    "midi": 70,
                    "time": 106.07933699999998,
                    "velocity": 0.6299212598425197,
                    "duration": 0.09969862500000204
                },
                {
                    "name": "A#3",
                    "midi": 58,
                    "time": 106.34519999999998,
                    "velocity": 0.6299212598425197,
                    "duration": 1.063451999999998
                },
                {
                    "name": "A#3",
                    "midi": 58,
                    "time": 107.40865199999998,
                    "velocity": 0.4330708661417323,
                    "duration": 0.09969862500000204
                },
                {
                    "name": "A#3",
                    "midi": 58,
                    "time": 107.54158349999997,
                    "velocity": 0.3858267716535433,
                    "duration": 0.13293149999999798
                },
                {
                    "name": "C4",
                    "midi": 60,
                    "time": 107.80744649999997,
                    "velocity": 0.41732283464566927,
                    "duration": 0.13293149999999798
                },
                {
                    "name": "A#3",
                    "midi": 58,
                    "time": 107.94037799999997,
                    "velocity": 0.48031496062992124,
                    "duration": 0.09969862500000204
                },
                {
                    "name": "C#4",
                    "midi": 61,
                    "time": 108.20624099999996,
                    "velocity": 0.41732283464566927,
                    "duration": 0.09969862500000204
                },
                {
                    "name": "D#4",
                    "midi": 63,
                    "time": 108.47210399999996,
                    "velocity": 0.5039370078740157,
                    "duration": 0.09969862500000204
                },
                {
                    "name": "F4",
                    "midi": 65,
                    "time": 108.73796699999995,
                    "velocity": 0.48031496062992124,
                    "duration": 0.09969862500000204
                },
                {
                    "name": "D#4",
                    "midi": 63,
                    "time": 109.00382999999995,
                    "velocity": 0.5118110236220472,
                    "duration": 0.09969862500000204
                },
                {
                    "name": "F#4",
                    "midi": 66,
                    "time": 109.26969299999995,
                    "velocity": 0.5590551181102362,
                    "duration": 0.09969862500000204
                },
                {
                    "name": "F4",
                    "midi": 65,
                    "time": 109.53555599999994,
                    "velocity": 0.6299212598425197,
                    "duration": 0.09969862500000204
                },
                {
                    "name": "F4",
                    "midi": 65,
                    "time": 109.66848749999994,
                    "velocity": 0.5826771653543307,
                    "duration": 0.13293149999999798
                },
                {
                    "name": "G4",
                    "midi": 67,
                    "time": 109.93435049999994,
                    "velocity": 0.5826771653543307,
                    "duration": 0.13293149999999798
                },
                {
                    "name": "F4",
                    "midi": 65,
                    "time": 110.06728199999993,
                    "velocity": 0.5984251968503937,
                    "duration": 0.23263012500000002
                },
                {
                    "name": "G4",
                    "midi": 67,
                    "time": 110.29991212499993,
                    "velocity": 0.5354330708661418,
                    "duration": 0.13293149999999798
                },
                {
                    "name": "D5",
                    "midi": 74,
                    "time": 110.33314499999993,
                    "velocity": 0.6299212598425197,
                    "duration": 0.09969862500000204
                },
                {
                    "name": "D4",
                    "midi": 62,
                    "time": 110.59900799999993,
                    "velocity": 0.5669291338582677,
                    "duration": 0.5317260000000061
                },
                {
                    "name": "A#4",
                    "midi": 70,
                    "time": 110.59900799999993,
                    "velocity": 0.6692913385826772,
                    "duration": 0.5317260000000061
                },
                {
                    "name": "A#6",
                    "midi": 94,
                    "time": 111.13073399999993,
                    "velocity": 0.8346456692913385,
                    "duration": 0.26586299999999596
                },
                {
                    "name": "A#5",
                    "midi": 82,
                    "time": 111.13073399999993,
                    "velocity": 0.7086614173228346,
                    "duration": 0.26586299999999596
                },
                {
                    "name": "D#4",
                    "midi": 63,
                    "time": 111.66245999999992,
                    "velocity": 0.5039370078740157,
                    "duration": 0.13293149999999798
                },
                {
                    "name": "C4",
                    "midi": 60,
                    "time": 111.66245999999992,
                    "velocity": 0.4251968503937008,
                    "duration": 0.13293149999999798
                },
                {
                    "name": "D4",
                    "midi": 62,
                    "time": 111.79539149999992,
                    "velocity": 0.3779527559055118,
                    "duration": 0.26586299999999596
                },
                {
                    "name": "F4",
                    "midi": 65,
                    "time": 111.79539149999992,
                    "velocity": 0.44881889763779526,
                    "duration": 0.26586299999999596
                },
                {
                    "name": "G4",
                    "midi": 67,
                    "time": 112.06125449999992,
                    "velocity": 0.4409448818897638,
                    "duration": 0.13293149999999798
                },
                {
                    "name": "D#4",
                    "midi": 63,
                    "time": 112.06125449999992,
                    "velocity": 0.3700787401574803,
                    "duration": 0.13293149999999798
                },
                {
                    "name": "D4",
                    "midi": 62,
                    "time": 112.19418599999992,
                    "velocity": 0.4251968503937008,
                    "duration": 0.09969862500000204
                },
                {
                    "name": "F4",
                    "midi": 65,
                    "time": 112.19418599999992,
                    "velocity": 0.5039370078740157,
                    "duration": 0.09969862500000204
                },
                {
                    "name": "C4",
                    "midi": 60,
                    "time": 112.46004899999991,
                    "velocity": 0.3543307086614173,
                    "duration": 0.09969862500000204
                },
                {
                    "name": "D#4",
                    "midi": 63,
                    "time": 112.46004899999991,
                    "velocity": 0.41732283464566927,
                    "duration": 0.09969862500000204
                },
                {
                    "name": "F4",
                    "midi": 65,
                    "time": 112.72591199999991,
                    "velocity": 0.41732283464566927,
                    "duration": 1.063451999999998
                },
                {
                    "name": "D4",
                    "midi": 62,
                    "time": 112.72591199999991,
                    "velocity": 0.3543307086614173,
                    "duration": 1.063451999999998
                },
                {
                    "name": "A#6",
                    "midi": 94,
                    "time": 113.25763799999991,
                    "velocity": 0.5039370078740157,
                    "duration": 0.26586299999999596
                },
                {
                    "name": "A#5",
                    "midi": 82,
                    "time": 113.25763799999991,
                    "velocity": 0.4251968503937008,
                    "duration": 0.26586299999999596
                },
                {
                    "name": "C4",
                    "midi": 60,
                    "time": 113.7893639999999,
                    "velocity": 0.4251968503937008,
                    "duration": 0.13293149999999798
                },
                {
                    "name": "D#4",
                    "midi": 63,
                    "time": 113.7893639999999,
                    "velocity": 0.5039370078740157,
                    "duration": 0.13293149999999798
                },
                {
                    "name": "F4",
                    "midi": 65,
                    "time": 113.9222954999999,
                    "velocity": 0.44881889763779526,
                    "duration": 0.26586299999999596
                },
                {
                    "name": "D4",
                    "midi": 62,
                    "time": 113.9222954999999,
                    "velocity": 0.3779527559055118,
                    "duration": 0.26586299999999596
                },
                {
                    "name": "G4",
                    "midi": 67,
                    "time": 114.1881584999999,
                    "velocity": 0.4409448818897638,
                    "duration": 0.13293149999999798
                },
                {
                    "name": "D#4",
                    "midi": 63,
                    "time": 114.1881584999999,
                    "velocity": 0.3700787401574803,
                    "duration": 0.13293149999999798
                },
                {
                    "name": "F4",
                    "midi": 65,
                    "time": 114.3210899999999,
                    "velocity": 0.5039370078740157,
                    "duration": 0.09969862500000204
                },
                {
                    "name": "D4",
                    "midi": 62,
                    "time": 114.3210899999999,
                    "velocity": 0.4251968503937008,
                    "duration": 0.09969862500000204
                },
                {
                    "name": "C4",
                    "midi": 60,
                    "time": 114.5869529999999,
                    "velocity": 0.3543307086614173,
                    "duration": 0.09969862500000204
                },
                {
                    "name": "D#4",
                    "midi": 63,
                    "time": 114.5869529999999,
                    "velocity": 0.41732283464566927,
                    "duration": 0.09969862500000204
                },
                {
                    "name": "F4",
                    "midi": 65,
                    "time": 114.85281599999989,
                    "velocity": 0.41732283464566927,
                    "duration": 0.13293149999999798
                },
                {
                    "name": "D4",
                    "midi": 62,
                    "time": 114.85281599999989,
                    "velocity": 0.3543307086614173,
                    "duration": 0.13293149999999798
                },
                {
                    "name": "C4",
                    "midi": 60,
                    "time": 115.11867899999989,
                    "velocity": 0.41732283464566927,
                    "duration": 0.26586299999999596
                },
                {
                    "name": "D#4",
                    "midi": 63,
                    "time": 115.11867899999989,
                    "velocity": 0.41732283464566927,
                    "duration": 0.26586299999999596
                },
                {
                    "name": "D4",
                    "midi": 62,
                    "time": 115.38454199999988,
                    "velocity": 0.41732283464566927,
                    "duration": 0.26586299999999596
                },
                {
                    "name": "F4",
                    "midi": 65,
                    "time": 115.38454199999988,
                    "velocity": 0.41732283464566927,
                    "duration": 0.26586299999999596
                },
                {
                    "name": "A#4",
                    "midi": 70,
                    "time": 115.65040499999988,
                    "velocity": 0.41732283464566927,
                    "duration": 0.13293149999999798
                },
                {
                    "name": "C5",
                    "midi": 72,
                    "time": 115.65040499999988,
                    "velocity": 0.41732283464566927,
                    "duration": 0.13293149999999798
                },
                {
                    "name": "G4",
                    "midi": 67,
                    "time": 115.65040499999988,
                    "velocity": 0.41732283464566927,
                    "duration": 0.13293149999999798
                },
                {
                    "name": "A3",
                    "midi": 57,
                    "time": 115.91626799999987,
                    "velocity": 0.28346456692913385,
                    "duration": 1.063451999999998
                },
                {
                    "name": "C#4",
                    "midi": 61,
                    "time": 115.91626799999987,
                    "velocity": 0.28346456692913385,
                    "duration": 1.063451999999998
                },
                {
                    "name": "E4",
                    "midi": 64,
                    "time": 115.91626799999987,
                    "velocity": 0.33070866141732286,
                    "duration": 1.063451999999998
                },
                {
                    "name": "G#3",
                    "midi": 56,
                    "time": 116.97971999999987,
                    "velocity": 0.28346456692913385,
                    "duration": 1.063451999999998
                },
                {
                    "name": "C4",
                    "midi": 60,
                    "time": 116.97971999999987,
                    "velocity": 0.28346456692913385,
                    "duration": 1.063451999999998
                },
                {
                    "name": "F4",
                    "midi": 65,
                    "time": 116.97971999999987,
                    "velocity": 0.33070866141732286,
                    "duration": 1.063451999999998
                },
                {
                    "name": "G3",
                    "midi": 55,
                    "time": 118.04317199999987,
                    "velocity": 0.23622047244094488,
                    "duration": 2.126903999999982
                },
                {
                    "name": "A#3",
                    "midi": 58,
                    "time": 118.04317199999987,
                    "velocity": 0.28346456692913385,
                    "duration": 2.126903999999982
                },
                {
                    "name": "F3",
                    "midi": 53,
                    "time": 118.04317199999987,
                    "velocity": 0.23622047244094488,
                    "duration": 1.063451999999998
                },
                {
                    "name": "D#3",
                    "midi": 51,
                    "time": 119.10662399999987,
                    "velocity": 0.23622047244094488,
                    "duration": 1.0634519999999839
                },
                {
                    "name": "C3",
                    "midi": 48,
                    "time": 119.37248699999986,
                    "velocity": 0.5433070866141733,
                    "duration": 0.13293149999999798
                },
                {
                    "name": "D3",
                    "midi": 50,
                    "time": 119.50541849999986,
                    "velocity": 0.5748031496062992,
                    "duration": 0.13293149999999798
                },
                {
                    "name": "C3",
                    "midi": 48,
                    "time": 119.63834999999986,
                    "velocity": 0.5984251968503937,
                    "duration": 0.13293149999999798
                },
                {
                    "name": "C4",
                    "midi": 60,
                    "time": 120.17007599999985,
                    "velocity": 0.4251968503937008,
                    "duration": 0.13293149999999798
                },
                {
                    "name": "D#4",
                    "midi": 63,
                    "time": 120.17007599999985,
                    "velocity": 0.5039370078740157,
                    "duration": 0.13293149999999798
                },
                {
                    "name": "D4",
                    "midi": 62,
                    "time": 120.30300749999985,
                    "velocity": 0.3779527559055118,
                    "duration": 0.26586299999999596
                },
                {
                    "name": "F4",
                    "midi": 65,
                    "time": 120.30300749999985,
                    "velocity": 0.44881889763779526,
                    "duration": 0.26586299999999596
                },
                {
                    "name": "G4",
                    "midi": 67,
                    "time": 120.56887049999985,
                    "velocity": 0.4409448818897638,
                    "duration": 0.13293149999999798
                },
                {
                    "name": "D#4",
                    "midi": 63,
                    "time": 120.56887049999985,
                    "velocity": 0.3700787401574803,
                    "duration": 0.13293149999999798
                },
                {
                    "name": "F4",
                    "midi": 65,
                    "time": 120.70180199999984,
                    "velocity": 0.5039370078740157,
                    "duration": 0.09969862500000204
                },
                {
                    "name": "D4",
                    "midi": 62,
                    "time": 120.70180199999984,
                    "velocity": 0.4251968503937008,
                    "duration": 0.09969862500000204
                },
                {
                    "name": "D#4",
                    "midi": 63,
                    "time": 120.96766499999984,
                    "velocity": 0.41732283464566927,
                    "duration": 0.09969862500000204
                },
                {
                    "name": "C4",
                    "midi": 60,
                    "time": 120.96766499999984,
                    "velocity": 0.3543307086614173,
                    "duration": 0.09969862500000204
                },
                {
                    "name": "D4",
                    "midi": 62,
                    "time": 121.23352799999984,
                    "velocity": 0.3543307086614173,
                    "duration": 1.063451999999998
                },
                {
                    "name": "F4",
                    "midi": 65,
                    "time": 121.23352799999984,
                    "velocity": 0.41732283464566927,
                    "duration": 1.063451999999998
                },
                {
                    "name": "A#6",
                    "midi": 94,
                    "time": 121.76525399999984,
                    "velocity": 0.5039370078740157,
                    "duration": 0.26586299999999596
                },
                {
                    "name": "A#5",
                    "midi": 82,
                    "time": 121.76525399999984,
                    "velocity": 0.4251968503937008,
                    "duration": 0.26586299999999596
                },
                {
                    "name": "C4",
                    "midi": 60,
                    "time": 122.29697999999983,
                    "velocity": 0.4251968503937008,
                    "duration": 0.13293149999999798
                },
                {
                    "name": "D#4",
                    "midi": 63,
                    "time": 122.29697999999983,
                    "velocity": 0.5039370078740157,
                    "duration": 0.13293149999999798
                },
                {
                    "name": "D4",
                    "midi": 62,
                    "time": 122.42991149999983,
                    "velocity": 0.3779527559055118,
                    "duration": 0.26586299999999596
                },
                {
                    "name": "F4",
                    "midi": 65,
                    "time": 122.42991149999983,
                    "velocity": 0.44881889763779526,
                    "duration": 0.26586299999999596
                },
                {
                    "name": "G4",
                    "midi": 67,
                    "time": 122.69577449999983,
                    "velocity": 0.4409448818897638,
                    "duration": 0.13293149999999798
                },
                {
                    "name": "D#4",
                    "midi": 63,
                    "time": 122.69577449999983,
                    "velocity": 0.3700787401574803,
                    "duration": 0.13293149999999798
                },
                {
                    "name": "F4",
                    "midi": 65,
                    "time": 122.82870599999983,
                    "velocity": 0.5039370078740157,
                    "duration": 0.09969862500000204
                },
                {
                    "name": "D4",
                    "midi": 62,
                    "time": 122.82870599999983,
                    "velocity": 0.4251968503937008,
                    "duration": 0.09969862500000204
                },
                {
                    "name": "D#4",
                    "midi": 63,
                    "time": 123.09456899999982,
                    "velocity": 0.41732283464566927,
                    "duration": 0.09969862500000204
                },
                {
                    "name": "C4",
                    "midi": 60,
                    "time": 123.09456899999982,
                    "velocity": 0.3543307086614173,
                    "duration": 0.09969862500000204
                },
                {
                    "name": "D4",
                    "midi": 62,
                    "time": 123.36043199999982,
                    "velocity": 0.3543307086614173,
                    "duration": 0.13293149999999798
                },
                {
                    "name": "F4",
                    "midi": 65,
                    "time": 123.36043199999982,
                    "velocity": 0.41732283464566927,
                    "duration": 0.13293149999999798
                },
                {
                    "name": "D#4",
                    "midi": 63,
                    "time": 123.62629499999981,
                    "velocity": 0.41732283464566927,
                    "duration": 0.26586299999999596
                },
                {
                    "name": "C4",
                    "midi": 60,
                    "time": 123.62629499999981,
                    "velocity": 0.41732283464566927,
                    "duration": 0.26586299999999596
                },
                {
                    "name": "F4",
                    "midi": 65,
                    "time": 123.89215799999981,
                    "velocity": 0.41732283464566927,
                    "duration": 0.26586299999999596
                },
                {
                    "name": "D4",
                    "midi": 62,
                    "time": 123.89215799999981,
                    "velocity": 0.41732283464566927,
                    "duration": 0.26586299999999596
                },
                {
                    "name": "A#4",
                    "midi": 70,
                    "time": 124.1580209999998,
                    "velocity": 0.41732283464566927,
                    "duration": 0.13293149999999798
                },
                {
                    "name": "G4",
                    "midi": 67,
                    "time": 124.1580209999998,
                    "velocity": 0.41732283464566927,
                    "duration": 0.13293149999999798
                },
                {
                    "name": "C5",
                    "midi": 72,
                    "time": 124.1580209999998,
                    "velocity": 0.41732283464566927,
                    "duration": 0.13293149999999798
                },
                {
                    "name": "B4",
                    "midi": 71,
                    "time": 124.4238839999998,
                    "velocity": 0.47244094488188976,
                    "duration": 1.5951779999999758
                },
                {
                    "name": "A#5",
                    "midi": 82,
                    "time": 124.4238839999998,
                    "velocity": 0.6299212598425197,
                    "duration": 0.13293149999999798
                },
                {
                    "name": "D#5",
                    "midi": 75,
                    "time": 124.4238839999998,
                    "velocity": 0.47244094488188976,
                    "duration": 1.5951779999999758
                },
                {
                    "name": "G#5",
                    "midi": 80,
                    "time": 124.5568154999998,
                    "velocity": 0.5826771653543307,
                    "duration": 0.13293149999999798
                },
                {
                    "name": "A#5",
                    "midi": 82,
                    "time": 124.8226784999998,
                    "velocity": 0.5826771653543307,
                    "duration": 0.13293149999999798
                },
                {
                    "name": "F5",
                    "midi": 77,
                    "time": 124.9556099999998,
                    "velocity": 0.5984251968503937,
                    "duration": 0.13293149999999798
                },
                {
                    "name": "A#5",
                    "midi": 82,
                    "time": 125.22147299999979,
                    "velocity": 0.6299212598425197,
                    "duration": 0.09969862500000204
                },
                {
                    "name": "G#5",
                    "midi": 80,
                    "time": 125.48733599999979,
                    "velocity": 0.6299212598425197,
                    "duration": 0.13293149999999798
                },
                {
                    "name": "F5",
                    "midi": 77,
                    "time": 125.62026749999978,
                    "velocity": 0.6299212598425197,
                    "duration": 0.13293149999999798
                },
                {
                    "name": "D#5",
                    "midi": 75,
                    "time": 125.88613049999978,
                    "velocity": 0.5826771653543307,
                    "duration": 0.13293149999999798
                },
                {
                    "name": "B4",
                    "midi": 71,
                    "time": 126.01906199999978,
                    "velocity": 0.6299212598425197,
                    "duration": 0.5317260000000061
                },
                {
                    "name": "G#4",
                    "midi": 68,
                    "time": 126.68371949999978,
                    "velocity": 0.6299212598425197,
                    "duration": 0.13293149999999798
                },
                {
                    "name": "F4",
                    "midi": 65,
                    "time": 126.81665099999978,
                    "velocity": 0.6220472440944882,
                    "duration": 0.13293149999999798
                },
                {
                    "name": "D#4",
                    "midi": 63,
                    "time": 126.94958249999978,
                    "velocity": 0.6614173228346457,
                    "duration": 0.13293149999999798
                },
                {
                    "name": "B3",
                    "midi": 59,
                    "time": 127.08251399999978,
                    "velocity": 0.6771653543307087,
                    "duration": 0.13293149999999798
                },
                {
                    "name": "G3",
                    "midi": 55,
                    "time": 127.34837699999977,
                    "velocity": 0.7637795275590551,
                    "duration": 0.26586299999999596
                },
                {
                    "name": "D3",
                    "midi": 50,
                    "time": 127.34837699999977,
                    "velocity": 0.6456692913385826,
                    "duration": 0.26586299999999596
                },
                {
                    "name": "A#3",
                    "midi": 58,
                    "time": 127.88010299999976,
                    "velocity": 0.31496062992125984,
                    "duration": 0.09969862500000204
                },
                {
                    "name": "D#3",
                    "midi": 51,
                    "time": 127.88010299999976,
                    "velocity": 0.31496062992125984,
                    "duration": 0.09969862500000204
                },
                {
                    "name": "A#3",
                    "midi": 58,
                    "time": 128.41182899999976,
                    "velocity": 0.31496062992125984,
                    "duration": 0.09969862500000204
                },
                {
                    "name": "D#3",
                    "midi": 51,
                    "time": 128.41182899999976,
                    "velocity": 0.31496062992125984,
                    "duration": 0.09969862500000204
                },
                {
                    "name": "D#3",
                    "midi": 51,
                    "time": 130.00700699999976,
                    "velocity": 0.25984251968503935,
                    "duration": 0.09969862500000204
                },
                {
                    "name": "A#3",
                    "midi": 58,
                    "time": 130.00700699999976,
                    "velocity": 0.25984251968503935,
                    "duration": 0.09969862500000204
                },
                {
                    "name": "D#3",
                    "midi": 51,
                    "time": 130.53873299999975,
                    "velocity": 0.23622047244094488,
                    "duration": 0.09969862500000204
                },
                {
                    "name": "A#3",
                    "midi": 58,
                    "time": 130.53873299999975,
                    "velocity": 0.23622047244094488,
                    "duration": 0.09969862500000204
                },
                {
                    "name": "A#3",
                    "midi": 58,
                    "time": 132.13391099999976,
                    "velocity": 0.2204724409448819,
                    "duration": 0.09969862500000204
                },
                {
                    "name": "D#3",
                    "midi": 51,
                    "time": 132.13391099999976,
                    "velocity": 0.2204724409448819,
                    "duration": 0.09969862500000204
                },
                {
                    "name": "A#3",
                    "midi": 58,
                    "time": 132.66563699999975,
                    "velocity": 0.1968503937007874,
                    "duration": 0.09969862500000204
                },
                {
                    "name": "D#3",
                    "midi": 51,
                    "time": 132.66563699999975,
                    "velocity": 0.1968503937007874,
                    "duration": 0.09969862500000204
                },
                {
                    "name": "B2",
                    "midi": 47,
                    "time": 133.46322599999974,
                    "velocity": 0.5511811023622047,
                    "duration": 0.26586299999999596
                },
                {
                    "name": "A#2",
                    "midi": 46,
                    "time": 133.72908899999973,
                    "velocity": 0.5905511811023622,
                    "duration": 0.07311232499998255
                },
                {
                    "name": "G#2",
                    "midi": 44,
                    "time": 133.79555474999972,
                    "velocity": 0.6062992125984252,
                    "duration": 0.07311232499998255
                },
                {
                    "name": "G2",
                    "midi": 43,
                    "time": 133.86202049999972,
                    "velocity": 0.6220472440944882,
                    "duration": 0.07311232499998255
                },
                {
                    "name": "F2",
                    "midi": 41,
                    "time": 133.9284862499997,
                    "velocity": 0.6377952755905512,
                    "duration": 0.07311232499998255
                },
                {
                    "name": "D#3",
                    "midi": 51,
                    "time": 133.9949519999997,
                    "velocity": 0.6692913385826772,
                    "duration": 0.26586299999999596
                },
                {
                    "name": "D#3",
                    "midi": 51,
                    "time": 135.05840399999968,
                    "velocity": 0.7007874015748031,
                    "duration": 0.26586299999999596
                }
            ],
            "controlChanges": {},
            "id": 1,
            "name": "Piano right",
            "instrumentNumber": 0,
            "instrument": "acoustic grand piano",
            "instrumentFamily": "piano",
            "channelNumber": 0,
            "isPercussion": false
        },
        {
            "startTime": 0,
            "duration": 135.3242669999995,
            "length": 689,
            "notes": [
                {
                    "name": "A#4",
                    "midi": 70,
                    "time": 0,
                    "velocity": 0.5354330708661418,
                    "duration": 0.1329315
                },
                {
                    "name": "G#4",
                    "midi": 68,
                    "time": 0.1329315,
                    "velocity": 0.4881889763779528,
                    "duration": 0.1329315
                },
                {
                    "name": "A#4",
                    "midi": 70,
                    "time": 0.39879450000000005,
                    "velocity": 0.4881889763779528,
                    "duration": 0.13293149999999998
                },
                {
                    "name": "F4",
                    "midi": 65,
                    "time": 0.531726,
                    "velocity": 0.5039370078740157,
                    "duration": 0.13293149999999998
                },
                {
                    "name": "A#4",
                    "midi": 70,
                    "time": 0.797589,
                    "velocity": 0.5354330708661418,
                    "duration": 0.09969862500000004
                },
                {
                    "name": "G#4",
                    "midi": 68,
                    "time": 1.063452,
                    "velocity": 0.5354330708661418,
                    "duration": 0.13293149999999998
                },
                {
                    "name": "F4",
                    "midi": 65,
                    "time": 1.1963835,
                    "velocity": 0.5354330708661418,
                    "duration": 0.13293149999999998
                },
                {
                    "name": "D#4",
                    "midi": 63,
                    "time": 1.4622465,
                    "velocity": 0.4881889763779528,
                    "duration": 0.13293149999999998
                },
                {
                    "name": "B3",
                    "midi": 59,
                    "time": 1.595178,
                    "velocity": 0.5354330708661418,
                    "duration": 0.5317260000000001
                },
                {
                    "name": "G#3",
                    "midi": 56,
                    "time": 2.2598355000000003,
                    "velocity": 0.5118110236220472,
                    "duration": 0.1329315000000002
                },
                {
                    "name": "F3",
                    "midi": 53,
                    "time": 2.3927670000000005,
                    "velocity": 0.5118110236220472,
                    "duration": 0.1329315000000002
                },
                {
                    "name": "D#3",
                    "midi": 51,
                    "time": 2.5256985000000007,
                    "velocity": 0.5275590551181102,
                    "duration": 0.1329315000000002
                },
                {
                    "name": "B2",
                    "midi": 47,
                    "time": 2.658630000000001,
                    "velocity": 0.5590551181102362,
                    "duration": 0.5317259999999999
                },
                {
                    "name": "G#2",
                    "midi": 44,
                    "time": 3.323287500000001,
                    "velocity": 0.5118110236220472,
                    "duration": 0.1329315000000002
                },
                {
                    "name": "F2",
                    "midi": 41,
                    "time": 3.4562190000000013,
                    "velocity": 0.5118110236220472,
                    "duration": 0.1329315000000002
                },
                {
                    "name": "D#2",
                    "midi": 39,
                    "time": 3.5891505000000015,
                    "velocity": 0.5275590551181102,
                    "duration": 0.1329315000000002
                },
                {
                    "name": "B1",
                    "midi": 35,
                    "time": 3.7220820000000017,
                    "velocity": 0.5590551181102362,
                    "duration": 0.26586299999999996
                },
                {
                    "name": "A#2",
                    "midi": 46,
                    "time": 3.9879450000000016,
                    "velocity": 0.6141732283464567,
                    "duration": 0.2658630000000004
                },
                {
                    "name": "A#1",
                    "midi": 34,
                    "time": 3.9879450000000016,
                    "velocity": 0.5196850393700787,
                    "duration": 0.2658630000000004
                },
                {
                    "name": "D#2",
                    "midi": 39,
                    "time": 5.317260000000002,
                    "velocity": 0.31496062992125984,
                    "duration": 0.09969862500000026
                },
                {
                    "name": "A#2",
                    "midi": 46,
                    "time": 5.317260000000002,
                    "velocity": 0.31496062992125984,
                    "duration": 0.09969862500000026
                },
                {
                    "name": "G3",
                    "midi": 55,
                    "time": 5.583123000000002,
                    "velocity": 0.25984251968503935,
                    "duration": 0.09969862500000026
                },
                {
                    "name": "F3",
                    "midi": 53,
                    "time": 5.583123000000002,
                    "velocity": 0.25984251968503935,
                    "duration": 0.09969862500000026
                },
                {
                    "name": "D#2",
                    "midi": 39,
                    "time": 5.848986000000003,
                    "velocity": 0.31496062992125984,
                    "duration": 0.09969862500000026
                },
                {
                    "name": "A#2",
                    "midi": 46,
                    "time": 5.848986000000003,
                    "velocity": 0.31496062992125984,
                    "duration": 0.09969862500000026
                },
                {
                    "name": "G3",
                    "midi": 55,
                    "time": 6.114849000000003,
                    "velocity": 0.2755905511811024,
                    "duration": 0.09969862500000026
                },
                {
                    "name": "F3",
                    "midi": 53,
                    "time": 6.114849000000003,
                    "velocity": 0.2755905511811024,
                    "duration": 0.09969862500000026
                },
                {
                    "name": "D#2",
                    "midi": 39,
                    "time": 6.3807120000000035,
                    "velocity": 0.31496062992125984,
                    "duration": 0.09969862500000026
                },
                {
                    "name": "A#2",
                    "midi": 46,
                    "time": 6.3807120000000035,
                    "velocity": 0.31496062992125984,
                    "duration": 0.09969862500000026
                },
                {
                    "name": "G3",
                    "midi": 55,
                    "time": 6.646575000000004,
                    "velocity": 0.25984251968503935,
                    "duration": 0.09969862500000026
                },
                {
                    "name": "F3",
                    "midi": 53,
                    "time": 6.646575000000004,
                    "velocity": 0.25984251968503935,
                    "duration": 0.09969862500000026
                },
                {
                    "name": "D#2",
                    "midi": 39,
                    "time": 6.912438000000004,
                    "velocity": 0.31496062992125984,
                    "duration": 0.09969862500000026
                },
                {
                    "name": "A#2",
                    "midi": 46,
                    "time": 6.912438000000004,
                    "velocity": 0.31496062992125984,
                    "duration": 0.09969862500000026
                },
                {
                    "name": "G3",
                    "midi": 55,
                    "time": 7.178301000000005,
                    "velocity": 0.25984251968503935,
                    "duration": 0.09969862500000026
                },
                {
                    "name": "F3",
                    "midi": 53,
                    "time": 7.178301000000005,
                    "velocity": 0.25984251968503935,
                    "duration": 0.09969862500000026
                },
                {
                    "name": "D#2",
                    "midi": 39,
                    "time": 7.444164000000005,
                    "velocity": 0.31496062992125984,
                    "duration": 0.09969862500000026
                },
                {
                    "name": "A#2",
                    "midi": 46,
                    "time": 7.444164000000005,
                    "velocity": 0.31496062992125984,
                    "duration": 0.09969862500000026
                },
                {
                    "name": "G3",
                    "midi": 55,
                    "time": 7.7100270000000055,
                    "velocity": 0.2755905511811024,
                    "duration": 0.09969862500000026
                },
                {
                    "name": "F3",
                    "midi": 53,
                    "time": 7.7100270000000055,
                    "velocity": 0.2755905511811024,
                    "duration": 0.09969862500000026
                },
                {
                    "name": "D#2",
                    "midi": 39,
                    "time": 7.975890000000006,
                    "velocity": 0.31496062992125984,
                    "duration": 0.09969862499999937
                },
                {
                    "name": "A#2",
                    "midi": 46,
                    "time": 7.975890000000006,
                    "velocity": 0.31496062992125984,
                    "duration": 0.09969862499999937
                },
                {
                    "name": "G3",
                    "midi": 55,
                    "time": 8.241753000000005,
                    "velocity": 0.25984251968503935,
                    "duration": 0.09969862500000026
                },
                {
                    "name": "F3",
                    "midi": 53,
                    "time": 8.241753000000005,
                    "velocity": 0.25984251968503935,
                    "duration": 0.09969862500000026
                },
                {
                    "name": "D#2",
                    "midi": 39,
                    "time": 8.507616000000004,
                    "velocity": 0.2677165354330709,
                    "duration": 0.09969862500000026
                },
                {
                    "name": "A#2",
                    "midi": 46,
                    "time": 8.507616000000004,
                    "velocity": 0.2677165354330709,
                    "duration": 0.09969862500000026
                },
                {
                    "name": "G3",
                    "midi": 55,
                    "time": 8.773479000000004,
                    "velocity": 0.2125984251968504,
                    "duration": 0.09969862500000026
                },
                {
                    "name": "F3",
                    "midi": 53,
                    "time": 8.773479000000004,
                    "velocity": 0.2125984251968504,
                    "duration": 0.09969862500000026
                },
                {
                    "name": "D#2",
                    "midi": 39,
                    "time": 9.039342000000003,
                    "velocity": 0.2440944881889764,
                    "duration": 0.09969862500000026
                },
                {
                    "name": "A#2",
                    "midi": 46,
                    "time": 9.039342000000003,
                    "velocity": 0.2440944881889764,
                    "duration": 0.09969862500000026
                },
                {
                    "name": "G3",
                    "midi": 55,
                    "time": 9.305205000000003,
                    "velocity": 0.1889763779527559,
                    "duration": 0.09969862500000026
                },
                {
                    "name": "F3",
                    "midi": 53,
                    "time": 9.305205000000003,
                    "velocity": 0.1889763779527559,
                    "duration": 0.09969862500000026
                },
                {
                    "name": "D#2",
                    "midi": 39,
                    "time": 9.571068000000002,
                    "velocity": 0.31496062992125984,
                    "duration": 0.09969862500000026
                },
                {
                    "name": "A#2",
                    "midi": 46,
                    "time": 9.571068000000002,
                    "velocity": 0.31496062992125984,
                    "duration": 0.09969862500000026
                },
                {
                    "name": "G#3",
                    "midi": 56,
                    "time": 9.836931000000002,
                    "velocity": 0.25984251968503935,
                    "duration": 0.09969862500000026
                },
                {
                    "name": "F3",
                    "midi": 53,
                    "time": 9.836931000000002,
                    "velocity": 0.25984251968503935,
                    "duration": 0.09969862500000026
                },
                {
                    "name": "D#2",
                    "midi": 39,
                    "time": 10.102794000000001,
                    "velocity": 0.31496062992125984,
                    "duration": 0.09969862500000026
                },
                {
                    "name": "A#2",
                    "midi": 46,
                    "time": 10.102794000000001,
                    "velocity": 0.31496062992125984,
                    "duration": 0.09969862500000026
                },
                {
                    "name": "G#3",
                    "midi": 56,
                    "time": 10.368657,
                    "velocity": 0.2755905511811024,
                    "duration": 0.09969862500000026
                },
                {
                    "name": "F3",
                    "midi": 53,
                    "time": 10.368657,
                    "velocity": 0.2755905511811024,
                    "duration": 0.09969862500000026
                },
                {
                    "name": "D#2",
                    "midi": 39,
                    "time": 10.63452,
                    "velocity": 0.31496062992125984,
                    "duration": 0.09969862500000026
                },
                {
                    "name": "A#2",
                    "midi": 46,
                    "time": 10.63452,
                    "velocity": 0.31496062992125984,
                    "duration": 0.09969862500000026
                },
                {
                    "name": "G#3",
                    "midi": 56,
                    "time": 10.900383,
                    "velocity": 0.25984251968503935,
                    "duration": 0.09969862500000026
                },
                {
                    "name": "F3",
                    "midi": 53,
                    "time": 10.900383,
                    "velocity": 0.25984251968503935,
                    "duration": 0.09969862500000026
                },
                {
                    "name": "D#2",
                    "midi": 39,
                    "time": 11.166246,
                    "velocity": 0.31496062992125984,
                    "duration": 0.09969862500000026
                },
                {
                    "name": "A#2",
                    "midi": 46,
                    "time": 11.166246,
                    "velocity": 0.31496062992125984,
                    "duration": 0.09969862500000026
                },
                {
                    "name": "G#3",
                    "midi": 56,
                    "time": 11.432108999999999,
                    "velocity": 0.25984251968503935,
                    "duration": 0.09969862500000026
                },
                {
                    "name": "F3",
                    "midi": 53,
                    "time": 11.432108999999999,
                    "velocity": 0.25984251968503935,
                    "duration": 0.09969862500000026
                },
                {
                    "name": "D#2",
                    "midi": 39,
                    "time": 11.697971999999998,
                    "velocity": 0.2677165354330709,
                    "duration": 0.09969862500000026
                },
                {
                    "name": "A#2",
                    "midi": 46,
                    "time": 11.697971999999998,
                    "velocity": 0.31496062992125984,
                    "duration": 0.09969862500000026
                },
                {
                    "name": "G3",
                    "midi": 55,
                    "time": 11.963834999999998,
                    "velocity": 0.25984251968503935,
                    "duration": 0.09969862500000026
                },
                {
                    "name": "F3",
                    "midi": 53,
                    "time": 11.963834999999998,
                    "velocity": 0.2204724409448819,
                    "duration": 0.09969862500000026
                },
                {
                    "name": "A#2",
                    "midi": 46,
                    "time": 12.229697999999997,
                    "velocity": 0.3700787401574803,
                    "duration": 0.09969862500000026
                },
                {
                    "name": "D#2",
                    "midi": 39,
                    "time": 12.229697999999997,
                    "velocity": 0.30708661417322836,
                    "duration": 0.09969862500000026
                },
                {
                    "name": "F3",
                    "midi": 53,
                    "time": 12.495560999999997,
                    "velocity": 0.2677165354330709,
                    "duration": 0.09969862500000026
                },
                {
                    "name": "G3",
                    "midi": 55,
                    "time": 12.495560999999997,
                    "velocity": 0.3228346456692913,
                    "duration": 0.09969862500000026
                },
                {
                    "name": "A#2",
                    "midi": 46,
                    "time": 12.761423999999996,
                    "velocity": 0.3937007874015748,
                    "duration": 0.09969862500000026
                },
                {
                    "name": "D#2",
                    "midi": 39,
                    "time": 12.761423999999996,
                    "velocity": 0.33070866141732286,
                    "duration": 0.09969862500000026
                },
                {
                    "name": "F3",
                    "midi": 53,
                    "time": 13.027286999999996,
                    "velocity": 0.2677165354330709,
                    "duration": 0.09969862500000026
                },
                {
                    "name": "G3",
                    "midi": 55,
                    "time": 13.027286999999996,
                    "velocity": 0.31496062992125984,
                    "duration": 0.09969862500000026
                },
                {
                    "name": "A#2",
                    "midi": 46,
                    "time": 13.293149999999995,
                    "velocity": 0.33858267716535434,
                    "duration": 0.09969862500000026
                },
                {
                    "name": "D#2",
                    "midi": 39,
                    "time": 13.293149999999995,
                    "velocity": 0.28346456692913385,
                    "duration": 0.09969862500000026
                },
                {
                    "name": "F3",
                    "midi": 53,
                    "time": 13.559012999999995,
                    "velocity": 0.2283464566929134,
                    "duration": 0.09969862500000026
                },
                {
                    "name": "G3",
                    "midi": 55,
                    "time": 13.559012999999995,
                    "velocity": 0.2755905511811024,
                    "duration": 0.09969862500000026
                },
                {
                    "name": "D#2",
                    "midi": 39,
                    "time": 13.824875999999994,
                    "velocity": 0.31496062992125984,
                    "duration": 0.09969862500000026
                },
                {
                    "name": "A#2",
                    "midi": 46,
                    "time": 13.824875999999994,
                    "velocity": 0.31496062992125984,
                    "duration": 0.09969862500000026
                },
                {
                    "name": "F3",
                    "midi": 53,
                    "time": 14.090738999999994,
                    "velocity": 0.25984251968503935,
                    "duration": 0.09969862500000026
                },
                {
                    "name": "D#3",
                    "midi": 51,
                    "time": 14.090738999999994,
                    "velocity": 0.25984251968503935,
                    "duration": 0.09969862500000026
                },
                {
                    "name": "D#2",
                    "midi": 39,
                    "time": 14.356601999999993,
                    "velocity": 0.31496062992125984,
                    "duration": 0.09969862500000026
                },
                {
                    "name": "A#2",
                    "midi": 46,
                    "time": 14.356601999999993,
                    "velocity": 0.31496062992125984,
                    "duration": 0.09969862500000026
                },
                {
                    "name": "F3",
                    "midi": 53,
                    "time": 14.622464999999993,
                    "velocity": 0.2755905511811024,
                    "duration": 0.09969862500000026
                },
                {
                    "name": "D#3",
                    "midi": 51,
                    "time": 14.622464999999993,
                    "velocity": 0.2755905511811024,
                    "duration": 0.09969862500000026
                },
                {
                    "name": "D#2",
                    "midi": 39,
                    "time": 14.888327999999992,
                    "velocity": 0.31496062992125984,
                    "duration": 0.09969862500000026
                },
                {
                    "name": "A#2",
                    "midi": 46,
                    "time": 14.888327999999992,
                    "velocity": 0.31496062992125984,
                    "duration": 0.09969862500000026
                },
                {
                    "name": "F3",
                    "midi": 53,
                    "time": 15.154190999999992,
                    "velocity": 0.25984251968503935,
                    "duration": 0.09969862500000026
                },
                {
                    "name": "D#3",
                    "midi": 51,
                    "time": 15.154190999999992,
                    "velocity": 0.25984251968503935,
                    "duration": 0.09969862500000026
                },
                {
                    "name": "D#2",
                    "midi": 39,
                    "time": 15.420053999999991,
                    "velocity": 0.31496062992125984,
                    "duration": 0.09969862500000026
                },
                {
                    "name": "A#2",
                    "midi": 46,
                    "time": 15.420053999999991,
                    "velocity": 0.31496062992125984,
                    "duration": 0.09969862500000026
                },
                {
                    "name": "F3",
                    "midi": 53,
                    "time": 15.685916999999991,
                    "velocity": 0.2755905511811024,
                    "duration": 0.09969862500000026
                },
                {
                    "name": "D#3",
                    "midi": 51,
                    "time": 15.685916999999991,
                    "velocity": 0.2755905511811024,
                    "duration": 0.09969862500000026
                },
                {
                    "name": "A#2",
                    "midi": 46,
                    "time": 15.95177999999999,
                    "velocity": 0.4251968503937008,
                    "duration": 0.13293149999999976
                },
                {
                    "name": "G#2",
                    "midi": 44,
                    "time": 16.08471149999999,
                    "velocity": 0.3937007874015748,
                    "duration": 0.13293150000000153
                },
                {
                    "name": "F2",
                    "midi": 41,
                    "time": 16.350574499999993,
                    "velocity": 0.3937007874015748,
                    "duration": 0.09969862499999849
                },
                {
                    "name": "D#2",
                    "midi": 39,
                    "time": 16.48350599999999,
                    "velocity": 0.4015748031496063,
                    "duration": 0.13293150000000153
                },
                {
                    "name": "D2",
                    "midi": 38,
                    "time": 16.749368999999994,
                    "velocity": 0.4330708661417323,
                    "duration": 0.13293150000000153
                },
                {
                    "name": "C2",
                    "midi": 36,
                    "time": 17.015231999999997,
                    "velocity": 0.47244094488188976,
                    "duration": 0.13293150000000153
                },
                {
                    "name": "G1",
                    "midi": 31,
                    "time": 17.281095,
                    "velocity": 0.44881889763779526,
                    "duration": 0.13293150000000153
                },
                {
                    "name": "C2",
                    "midi": 36,
                    "time": 17.546958000000004,
                    "velocity": 0.5039370078740157,
                    "duration": 0.13293150000000153
                },
                {
                    "name": "D2",
                    "midi": 38,
                    "time": 17.812821000000007,
                    "velocity": 0.5354330708661418,
                    "duration": 0.13293150000000153
                },
                {
                    "name": "D#2",
                    "midi": 39,
                    "time": 18.07868400000001,
                    "velocity": 0.31496062992125984,
                    "duration": 0.09969862499999849
                },
                {
                    "name": "A#2",
                    "midi": 46,
                    "time": 18.07868400000001,
                    "velocity": 0.31496062992125984,
                    "duration": 0.09969862499999849
                },
                {
                    "name": "G#3",
                    "midi": 56,
                    "time": 18.34454700000001,
                    "velocity": 0.25984251968503935,
                    "duration": 0.09969862499999849
                },
                {
                    "name": "F3",
                    "midi": 53,
                    "time": 18.34454700000001,
                    "velocity": 0.25984251968503935,
                    "duration": 0.09969862499999849
                },
                {
                    "name": "D#2",
                    "midi": 39,
                    "time": 18.61041000000001,
                    "velocity": 0.31496062992125984,
                    "duration": 0.09969862499999849
                },
                {
                    "name": "A#2",
                    "midi": 46,
                    "time": 18.61041000000001,
                    "velocity": 0.31496062992125984,
                    "duration": 0.09969862499999849
                },
                {
                    "name": "G#3",
                    "midi": 56,
                    "time": 18.87627300000001,
                    "velocity": 0.2755905511811024,
                    "duration": 0.09969862499999849
                },
                {
                    "name": "F3",
                    "midi": 53,
                    "time": 18.87627300000001,
                    "velocity": 0.2755905511811024,
                    "duration": 0.09969862499999849
                },
                {
                    "name": "D#2",
                    "midi": 39,
                    "time": 19.142136000000008,
                    "velocity": 0.31496062992125984,
                    "duration": 0.09969862499999849
                },
                {
                    "name": "A#2",
                    "midi": 46,
                    "time": 19.142136000000008,
                    "velocity": 0.31496062992125984,
                    "duration": 0.09969862499999849
                },
                {
                    "name": "G#3",
                    "midi": 56,
                    "time": 19.407999000000007,
                    "velocity": 0.25984251968503935,
                    "duration": 0.09969862499999849
                },
                {
                    "name": "F3",
                    "midi": 53,
                    "time": 19.407999000000007,
                    "velocity": 0.25984251968503935,
                    "duration": 0.09969862499999849
                },
                {
                    "name": "D#2",
                    "midi": 39,
                    "time": 19.673862000000007,
                    "velocity": 0.31496062992125984,
                    "duration": 0.09969862499999849
                },
                {
                    "name": "A#2",
                    "midi": 46,
                    "time": 19.673862000000007,
                    "velocity": 0.31496062992125984,
                    "duration": 0.09969862499999849
                },
                {
                    "name": "G#3",
                    "midi": 56,
                    "time": 19.939725000000006,
                    "velocity": 0.25984251968503935,
                    "duration": 0.09969862499999849
                },
                {
                    "name": "F3",
                    "midi": 53,
                    "time": 19.939725000000006,
                    "velocity": 0.25984251968503935,
                    "duration": 0.09969862499999849
                },
                {
                    "name": "D#2",
                    "midi": 39,
                    "time": 20.205588000000006,
                    "velocity": 0.2677165354330709,
                    "duration": 0.09969862499999849
                },
                {
                    "name": "A#2",
                    "midi": 46,
                    "time": 20.205588000000006,
                    "velocity": 0.31496062992125984,
                    "duration": 0.09969862499999849
                },
                {
                    "name": "G3",
                    "midi": 55,
                    "time": 20.471451000000005,
                    "velocity": 0.25984251968503935,
                    "duration": 0.09969862499999849
                },
                {
                    "name": "F3",
                    "midi": 53,
                    "time": 20.471451000000005,
                    "velocity": 0.2204724409448819,
                    "duration": 0.09969862499999849
                },
                {
                    "name": "A#2",
                    "midi": 46,
                    "time": 20.737314000000005,
                    "velocity": 0.3700787401574803,
                    "duration": 0.09969862499999849
                },
                {
                    "name": "D#2",
                    "midi": 39,
                    "time": 20.737314000000005,
                    "velocity": 0.30708661417322836,
                    "duration": 0.09969862499999849
                },
                {
                    "name": "F3",
                    "midi": 53,
                    "time": 21.003177000000004,
                    "velocity": 0.2677165354330709,
                    "duration": 0.09969862499999849
                },
                {
                    "name": "G3",
                    "midi": 55,
                    "time": 21.003177000000004,
                    "velocity": 0.3228346456692913,
                    "duration": 0.09969862499999849
                },
                {
                    "name": "A#2",
                    "midi": 46,
                    "time": 21.269040000000004,
                    "velocity": 0.3937007874015748,
                    "duration": 0.09969862499999849
                },
                {
                    "name": "D#2",
                    "midi": 39,
                    "time": 21.269040000000004,
                    "velocity": 0.33070866141732286,
                    "duration": 0.09969862499999849
                },
                {
                    "name": "F3",
                    "midi": 53,
                    "time": 21.534903000000003,
                    "velocity": 0.2677165354330709,
                    "duration": 0.09969862499999849
                },
                {
                    "name": "G3",
                    "midi": 55,
                    "time": 21.534903000000003,
                    "velocity": 0.31496062992125984,
                    "duration": 0.09969862499999849
                },
                {
                    "name": "A#2",
                    "midi": 46,
                    "time": 21.800766000000003,
                    "velocity": 0.33858267716535434,
                    "duration": 0.09969862499999849
                },
                {
                    "name": "D#2",
                    "midi": 39,
                    "time": 21.800766000000003,
                    "velocity": 0.28346456692913385,
                    "duration": 0.09969862499999849
                },
                {
                    "name": "F3",
                    "midi": 53,
                    "time": 22.066629000000002,
                    "velocity": 0.2283464566929134,
                    "duration": 0.09969862499999849
                },
                {
                    "name": "G3",
                    "midi": 55,
                    "time": 22.066629000000002,
                    "velocity": 0.2755905511811024,
                    "duration": 0.09969862499999849
                },
                {
                    "name": "F#2",
                    "midi": 42,
                    "time": 22.332492000000002,
                    "velocity": 0.2677165354330709,
                    "duration": 0.09969862499999849
                },
                {
                    "name": "C#3",
                    "midi": 49,
                    "time": 22.332492000000002,
                    "velocity": 0.31496062992125984,
                    "duration": 0.09969862499999849
                },
                {
                    "name": "C#3",
                    "midi": 49,
                    "time": 22.598355,
                    "velocity": 0.2204724409448819,
                    "duration": 0.06646574999999899
                },
                {
                    "name": "G#3",
                    "midi": 56,
                    "time": 22.598355,
                    "velocity": 0.25984251968503935,
                    "duration": 0.09969862499999849
                },
                {
                    "name": "F#3",
                    "midi": 54,
                    "time": 22.598355,
                    "velocity": 0.2204724409448819,
                    "duration": 0.09969862499999849
                },
                {
                    "name": "F#2",
                    "midi": 42,
                    "time": 22.864218,
                    "velocity": 0.2677165354330709,
                    "duration": 0.09969862499999849
                },
                {
                    "name": "C#3",
                    "midi": 49,
                    "time": 22.864218,
                    "velocity": 0.31496062992125984,
                    "duration": 0.09969862499999849
                },
                {
                    "name": "C#3",
                    "midi": 49,
                    "time": 23.130081,
                    "velocity": 0.2283464566929134,
                    "duration": 0.06646574999999899
                },
                {
                    "name": "A3",
                    "midi": 57,
                    "time": 23.130081,
                    "velocity": 0.2755905511811024,
                    "duration": 0.09969862499999849
                },
                {
                    "name": "F#3",
                    "midi": 54,
                    "time": 23.130081,
                    "velocity": 0.2283464566929134,
                    "duration": 0.09969862499999849
                },
                {
                    "name": "C#3",
                    "midi": 49,
                    "time": 23.395944,
                    "velocity": 0.33858267716535434,
                    "duration": 0.09969862499999849
                },
                {
                    "name": "F#2",
                    "midi": 42,
                    "time": 23.395944,
                    "velocity": 0.28346456692913385,
                    "duration": 0.09969862499999849
                },
                {
                    "name": "F#3",
                    "midi": 54,
                    "time": 23.661807,
                    "velocity": 0.2440944881889764,
                    "duration": 0.09969862499999849
                },
                {
                    "name": "A#3",
                    "midi": 58,
                    "time": 23.661807,
                    "velocity": 0.29133858267716534,
                    "duration": 0.09969862499999849
                },
                {
                    "name": "C#3",
                    "midi": 49,
                    "time": 23.661807,
                    "velocity": 0.2440944881889764,
                    "duration": 0.06646574999999899
                },
                {
                    "name": "C#3",
                    "midi": 49,
                    "time": 23.92767,
                    "velocity": 0.3543307086614173,
                    "duration": 0.09969862499999849
                },
                {
                    "name": "F#2",
                    "midi": 42,
                    "time": 23.92767,
                    "velocity": 0.2992125984251969,
                    "duration": 0.09969862499999849
                },
                {
                    "name": "F#3",
                    "midi": 54,
                    "time": 24.193533,
                    "velocity": 0.2755905511811024,
                    "duration": 0.09969862499999849
                },
                {
                    "name": "B3",
                    "midi": 59,
                    "time": 24.193533,
                    "velocity": 0.33070866141732286,
                    "duration": 0.09969862499999849
                },
                {
                    "name": "C#3",
                    "midi": 49,
                    "time": 24.193533,
                    "velocity": 0.2755905511811024,
                    "duration": 0.06646574999999899
                },
                {
                    "name": "E4",
                    "midi": 64,
                    "time": 24.725258999999998,
                    "velocity": 0.5275590551181102,
                    "duration": 0.13293149999999798
                },
                {
                    "name": "C#4",
                    "midi": 61,
                    "time": 24.725258999999998,
                    "velocity": 0.33070866141732286,
                    "duration": 0.09969862499999849
                },
                {
                    "name": "C4",
                    "midi": 60,
                    "time": 24.991121999999997,
                    "velocity": 0.44881889763779526,
                    "duration": 0.2658629999999995
                },
                {
                    "name": "D#4",
                    "midi": 63,
                    "time": 24.991121999999997,
                    "velocity": 0.5039370078740157,
                    "duration": 0.2658629999999995
                },
                {
                    "name": "D#4",
                    "midi": 63,
                    "time": 25.256984999999997,
                    "velocity": 0.4566929133858268,
                    "duration": 0.09969862499999849
                },
                {
                    "name": "A3",
                    "midi": 57,
                    "time": 25.256984999999997,
                    "velocity": 0.3858267716535433,
                    "duration": 0.09969862499999849
                },
                {
                    "name": "F3",
                    "midi": 53,
                    "time": 25.256984999999997,
                    "velocity": 0.3858267716535433,
                    "duration": 0.06646574999999899
                },
                {
                    "name": "F3",
                    "midi": 53,
                    "time": 25.522847999999996,
                    "velocity": 0.4881889763779528,
                    "duration": 0.2658629999999995
                },
                {
                    "name": "A#3",
                    "midi": 58,
                    "time": 25.522847999999996,
                    "velocity": 0.5748031496062992,
                    "duration": 0.2658629999999995
                },
                {
                    "name": "A#2",
                    "midi": 46,
                    "time": 25.522847999999996,
                    "velocity": 0.4881889763779528,
                    "duration": 0.2658629999999995
                },
                {
                    "name": "A#1",
                    "midi": 34,
                    "time": 26.054573999999995,
                    "velocity": 0.47244094488188976,
                    "duration": 0.2658629999999995
                },
                {
                    "name": "A#2",
                    "midi": 46,
                    "time": 26.054573999999995,
                    "velocity": 0.5590551181102362,
                    "duration": 0.2658629999999995
                },
                {
                    "name": "G#3",
                    "midi": 56,
                    "time": 26.586299999999994,
                    "velocity": 0.31496062992125984,
                    "duration": 0.09969862499999849
                },
                {
                    "name": "A#3",
                    "midi": 58,
                    "time": 26.586299999999994,
                    "velocity": 0.31496062992125984,
                    "duration": 0.09969862499999849
                },
                {
                    "name": "A#4",
                    "midi": 70,
                    "time": 26.852162999999994,
                    "velocity": 0.25984251968503935,
                    "duration": 0.09969862499999849
                },
                {
                    "name": "G#4",
                    "midi": 68,
                    "time": 26.852162999999994,
                    "velocity": 0.25984251968503935,
                    "duration": 0.09969862499999849
                },
                {
                    "name": "G#3",
                    "midi": 56,
                    "time": 27.118025999999993,
                    "velocity": 0.31496062992125984,
                    "duration": 0.09969862499999849
                },
                {
                    "name": "A#3",
                    "midi": 58,
                    "time": 27.118025999999993,
                    "velocity": 0.31496062992125984,
                    "duration": 0.09969862499999849
                },
                {
                    "name": "A#4",
                    "midi": 70,
                    "time": 27.383888999999993,
                    "velocity": 0.2755905511811024,
                    "duration": 0.09969862499999849
                },
                {
                    "name": "G#4",
                    "midi": 68,
                    "time": 27.383888999999993,
                    "velocity": 0.2755905511811024,
                    "duration": 0.09969862499999849
                },
                {
                    "name": "G#3",
                    "midi": 56,
                    "time": 27.649751999999992,
                    "velocity": 0.31496062992125984,
                    "duration": 0.09969862499999849
                },
                {
                    "name": "A#3",
                    "midi": 58,
                    "time": 27.649751999999992,
                    "velocity": 0.31496062992125984,
                    "duration": 0.09969862499999849
                },
                {
                    "name": "A#4",
                    "midi": 70,
                    "time": 27.915614999999992,
                    "velocity": 0.25984251968503935,
                    "duration": 0.09969862499999849
                },
                {
                    "name": "G#4",
                    "midi": 68,
                    "time": 27.915614999999992,
                    "velocity": 0.25984251968503935,
                    "duration": 0.09969862499999849
                },
                {
                    "name": "G#3",
                    "midi": 56,
                    "time": 28.18147799999999,
                    "velocity": 0.31496062992125984,
                    "duration": 0.09969862499999849
                },
                {
                    "name": "A#3",
                    "midi": 58,
                    "time": 28.18147799999999,
                    "velocity": 0.31496062992125984,
                    "duration": 0.09969862499999849
                },
                {
                    "name": "A#4",
                    "midi": 70,
                    "time": 28.44734099999999,
                    "velocity": 0.2755905511811024,
                    "duration": 0.09969862499999849
                },
                {
                    "name": "G#4",
                    "midi": 68,
                    "time": 28.44734099999999,
                    "velocity": 0.2755905511811024,
                    "duration": 0.09969862499999849
                },
                {
                    "name": "G3",
                    "midi": 55,
                    "time": 28.71320399999999,
                    "velocity": 0.31496062992125984,
                    "duration": 0.09969862499999849
                },
                {
                    "name": "A#3",
                    "midi": 58,
                    "time": 28.71320399999999,
                    "velocity": 0.31496062992125984,
                    "duration": 0.09969862499999849
                },
                {
                    "name": "A#4",
                    "midi": 70,
                    "time": 28.97906699999999,
                    "velocity": 0.25984251968503935,
                    "duration": 0.09969862499999849
                },
                {
                    "name": "G3",
                    "midi": 55,
                    "time": 29.24492999999999,
                    "velocity": 0.31496062992125984,
                    "duration": 0.09969862499999849
                },
                {
                    "name": "A#3",
                    "midi": 58,
                    "time": 29.24492999999999,
                    "velocity": 0.31496062992125984,
                    "duration": 0.09969862499999849
                },
                {
                    "name": "A#4",
                    "midi": 70,
                    "time": 29.51079299999999,
                    "velocity": 0.2755905511811024,
                    "duration": 0.09969862499999849
                },
                {
                    "name": "G3",
                    "midi": 55,
                    "time": 29.77665599999999,
                    "velocity": 0.31496062992125984,
                    "duration": 0.13293150000000153
                },
                {
                    "name": "A#3",
                    "midi": 58,
                    "time": 29.77665599999999,
                    "velocity": 0.31496062992125984,
                    "duration": 0.13293150000000153
                },
                {
                    "name": "A#4",
                    "midi": 70,
                    "time": 30.04251899999999,
                    "velocity": 0.25984251968503935,
                    "duration": 0.09969862499999849
                },
                {
                    "name": "G3",
                    "midi": 55,
                    "time": 30.30838199999999,
                    "velocity": 0.31496062992125984,
                    "duration": 0.2658629999999995
                },
                {
                    "name": "A#3",
                    "midi": 58,
                    "time": 30.30838199999999,
                    "velocity": 0.31496062992125984,
                    "duration": 0.2658629999999995
                },
                {
                    "name": "D#4",
                    "midi": 63,
                    "time": 30.57424499999999,
                    "velocity": 0.2755905511811024,
                    "duration": 0.09969862499999849
                },
                {
                    "name": "A#2",
                    "midi": 46,
                    "time": 30.84010799999999,
                    "velocity": 0.3464566929133858,
                    "duration": 0.13293150000000153
                },
                {
                    "name": "C3",
                    "midi": 48,
                    "time": 30.97303949999999,
                    "velocity": 0.30708661417322836,
                    "duration": 0.13293150000000153
                },
                {
                    "name": "D3",
                    "midi": 50,
                    "time": 31.238902499999995,
                    "velocity": 0.30708661417322836,
                    "duration": 0.13293150000000153
                },
                {
                    "name": "C3",
                    "midi": 48,
                    "time": 31.371833999999996,
                    "velocity": 0.3464566929133858,
                    "duration": 0.13293150000000153
                },
                {
                    "name": "A#2",
                    "midi": 46,
                    "time": 31.637697,
                    "velocity": 0.29133858267716534,
                    "duration": 0.09969862499999849
                },
                {
                    "name": "A#2",
                    "midi": 46,
                    "time": 31.90356,
                    "velocity": 0.3464566929133858,
                    "duration": 0.13293149999999798
                },
                {
                    "name": "C3",
                    "midi": 48,
                    "time": 32.0364915,
                    "velocity": 0.30708661417322836,
                    "duration": 0.13293149999999798
                },
                {
                    "name": "D3",
                    "midi": 50,
                    "time": 32.30235449999999,
                    "velocity": 0.30708661417322836,
                    "duration": 0.13293149999999798
                },
                {
                    "name": "C3",
                    "midi": 48,
                    "time": 32.43528599999999,
                    "velocity": 0.3464566929133858,
                    "duration": 0.13293149999999798
                },
                {
                    "name": "A#2",
                    "midi": 46,
                    "time": 32.70114899999999,
                    "velocity": 0.29133858267716534,
                    "duration": 0.09969862500000204
                },
                {
                    "name": "A#2",
                    "midi": 46,
                    "time": 32.96701199999999,
                    "velocity": 0.29133858267716534,
                    "duration": 0.13293149999999798
                },
                {
                    "name": "C3",
                    "midi": 48,
                    "time": 33.09994349999999,
                    "velocity": 0.25984251968503935,
                    "duration": 0.13293149999999798
                },
                {
                    "name": "D3",
                    "midi": 50,
                    "time": 33.365806499999984,
                    "velocity": 0.25984251968503935,
                    "duration": 0.13293149999999798
                },
                {
                    "name": "C3",
                    "midi": 48,
                    "time": 33.49873799999998,
                    "velocity": 0.29133858267716534,
                    "duration": 0.13293149999999798
                },
                {
                    "name": "A#2",
                    "midi": 46,
                    "time": 33.76460099999998,
                    "velocity": 0.2440944881889764,
                    "duration": 0.09969862500000204
                },
                {
                    "name": "A#1",
                    "midi": 34,
                    "time": 34.16339549999998,
                    "velocity": 0.5118110236220472,
                    "duration": 0.13293149999999798
                },
                {
                    "name": "C2",
                    "midi": 36,
                    "time": 34.29632699999998,
                    "velocity": 0.5118110236220472,
                    "duration": 0.13293149999999798
                },
                {
                    "name": "D2",
                    "midi": 38,
                    "time": 34.429258499999975,
                    "velocity": 0.5275590551181102,
                    "duration": 0.13293149999999798
                },
                {
                    "name": "C2",
                    "midi": 36,
                    "time": 34.56218999999997,
                    "velocity": 0.5354330708661418,
                    "duration": 0.13293149999999798
                },
                {
                    "name": "A#0",
                    "midi": 22,
                    "time": 34.82805299999997,
                    "velocity": 0.4330708661417323,
                    "duration": 0.09969862500000204
                },
                {
                    "name": "A#1",
                    "midi": 34,
                    "time": 34.82805299999997,
                    "velocity": 0.4881889763779528,
                    "duration": 0.09969862500000204
                },
                {
                    "name": "G#3",
                    "midi": 56,
                    "time": 35.09391599999997,
                    "velocity": 0.31496062992125984,
                    "duration": 0.09969862500000204
                },
                {
                    "name": "A#3",
                    "midi": 58,
                    "time": 35.09391599999997,
                    "velocity": 0.31496062992125984,
                    "duration": 0.09969862500000204
                },
                {
                    "name": "A#4",
                    "midi": 70,
                    "time": 35.359778999999975,
                    "velocity": 0.25984251968503935,
                    "duration": 0.09969862500000204
                },
                {
                    "name": "G#4",
                    "midi": 68,
                    "time": 35.359778999999975,
                    "velocity": 0.25984251968503935,
                    "duration": 0.09969862500000204
                },
                {
                    "name": "G#3",
                    "midi": 56,
                    "time": 35.62564199999998,
                    "velocity": 0.31496062992125984,
                    "duration": 0.09969862500000204
                },
                {
                    "name": "A#3",
                    "midi": 58,
                    "time": 35.62564199999998,
                    "velocity": 0.31496062992125984,
                    "duration": 0.09969862500000204
                },
                {
                    "name": "A#4",
                    "midi": 70,
                    "time": 35.89150499999998,
                    "velocity": 0.2755905511811024,
                    "duration": 0.09969862500000204
                },
                {
                    "name": "G#4",
                    "midi": 68,
                    "time": 35.89150499999998,
                    "velocity": 0.2755905511811024,
                    "duration": 0.09969862500000204
                },
                {
                    "name": "G#3",
                    "midi": 56,
                    "time": 36.157367999999984,
                    "velocity": 0.31496062992125984,
                    "duration": 0.09969862500000204
                },
                {
                    "name": "A#3",
                    "midi": 58,
                    "time": 36.157367999999984,
                    "velocity": 0.31496062992125984,
                    "duration": 0.09969862500000204
                },
                {
                    "name": "A#4",
                    "midi": 70,
                    "time": 36.42323099999999,
                    "velocity": 0.25984251968503935,
                    "duration": 0.09969862500000204
                },
                {
                    "name": "G#4",
                    "midi": 68,
                    "time": 36.42323099999999,
                    "velocity": 0.25984251968503935,
                    "duration": 0.09969862500000204
                },
                {
                    "name": "G#3",
                    "midi": 56,
                    "time": 36.68909399999999,
                    "velocity": 0.31496062992125984,
                    "duration": 0.09969862500000204
                },
                {
                    "name": "A#3",
                    "midi": 58,
                    "time": 36.68909399999999,
                    "velocity": 0.31496062992125984,
                    "duration": 0.09969862500000204
                },
                {
                    "name": "A#4",
                    "midi": 70,
                    "time": 36.95495699999999,
                    "velocity": 0.2755905511811024,
                    "duration": 0.09969862500000204
                },
                {
                    "name": "G#4",
                    "midi": 68,
                    "time": 36.95495699999999,
                    "velocity": 0.2755905511811024,
                    "duration": 0.09969862500000204
                },
                {
                    "name": "G3",
                    "midi": 55,
                    "time": 37.220819999999996,
                    "velocity": 0.31496062992125984,
                    "duration": 0.09969862500000204
                },
                {
                    "name": "A#3",
                    "midi": 58,
                    "time": 37.220819999999996,
                    "velocity": 0.31496062992125984,
                    "duration": 0.09969862500000204
                },
                {
                    "name": "G4",
                    "midi": 67,
                    "time": 37.486683,
                    "velocity": 0.25984251968503935,
                    "duration": 0.09969862500000204
                },
                {
                    "name": "A#4",
                    "midi": 70,
                    "time": 37.486683,
                    "velocity": 0.25984251968503935,
                    "duration": 0.09969862500000204
                },
                {
                    "name": "G3",
                    "midi": 55,
                    "time": 37.752546,
                    "velocity": 0.31496062992125984,
                    "duration": 0.09969862500000204
                },
                {
                    "name": "A#3",
                    "midi": 58,
                    "time": 37.752546,
                    "velocity": 0.31496062992125984,
                    "duration": 0.09969862500000204
                },
                {
                    "name": "G4",
                    "midi": 67,
                    "time": 38.018409000000005,
                    "velocity": 0.25984251968503935,
                    "duration": 0.09969862500000204
                },
                {
                    "name": "A#4",
                    "midi": 70,
                    "time": 38.018409000000005,
                    "velocity": 0.2755905511811024,
                    "duration": 0.09969862500000204
                },
                {
                    "name": "G3",
                    "midi": 55,
                    "time": 38.28427200000001,
                    "velocity": 0.31496062992125984,
                    "duration": 0.13293149999999798
                },
                {
                    "name": "A#3",
                    "midi": 58,
                    "time": 38.28427200000001,
                    "velocity": 0.31496062992125984,
                    "duration": 0.13293149999999798
                },
                {
                    "name": "G4",
                    "midi": 67,
                    "time": 38.550135000000004,
                    "velocity": 0.25984251968503935,
                    "duration": 0.09969862500000204
                },
                {
                    "name": "A#4",
                    "midi": 70,
                    "time": 38.550135000000004,
                    "velocity": 0.25984251968503935,
                    "duration": 0.09969862500000204
                },
                {
                    "name": "G3",
                    "midi": 55,
                    "time": 38.81599800000001,
                    "velocity": 0.31496062992125984,
                    "duration": 0.26586300000000307
                },
                {
                    "name": "A#3",
                    "midi": 58,
                    "time": 38.81599800000001,
                    "velocity": 0.31496062992125984,
                    "duration": 0.26586300000000307
                },
                {
                    "name": "D#4",
                    "midi": 63,
                    "time": 39.08186100000001,
                    "velocity": 0.2755905511811024,
                    "duration": 0.09969862500000204
                },
                {
                    "name": "B3",
                    "midi": 59,
                    "time": 39.347724000000014,
                    "velocity": 0.4015748031496063,
                    "duration": 1.5951779999999829
                },
                {
                    "name": "D#4",
                    "midi": 63,
                    "time": 39.347724000000014,
                    "velocity": 0.4015748031496063,
                    "duration": 1.5951779999999829
                },
                {
                    "name": "A#4",
                    "midi": 70,
                    "time": 39.347724000000014,
                    "velocity": 0.5354330708661418,
                    "duration": 0.13293149999999798
                },
                {
                    "name": "G#4",
                    "midi": 68,
                    "time": 39.48065550000001,
                    "velocity": 0.4881889763779528,
                    "duration": 0.13293149999999798
                },
                {
                    "name": "A#4",
                    "midi": 70,
                    "time": 39.74651850000001,
                    "velocity": 0.4881889763779528,
                    "duration": 0.13293149999999798
                },
                {
                    "name": "F4",
                    "midi": 65,
                    "time": 39.879450000000006,
                    "velocity": 0.5039370078740157,
                    "duration": 0.13293149999999798
                },
                {
                    "name": "A#4",
                    "midi": 70,
                    "time": 40.145313,
                    "velocity": 0.5354330708661418,
                    "duration": 0.09969862500000204
                },
                {
                    "name": "G#4",
                    "midi": 68,
                    "time": 40.411176000000005,
                    "velocity": 0.5354330708661418,
                    "duration": 0.13293149999999798
                },
                {
                    "name": "F4",
                    "midi": 65,
                    "time": 40.5441075,
                    "velocity": 0.5354330708661418,
                    "duration": 0.13293149999999798
                },
                {
                    "name": "D#4",
                    "midi": 63,
                    "time": 40.8099705,
                    "velocity": 0.4881889763779528,
                    "duration": 0.13293149999999798
                },
                {
                    "name": "B3",
                    "midi": 59,
                    "time": 40.942902,
                    "velocity": 0.5354330708661418,
                    "duration": 0.531725999999999
                },
                {
                    "name": "G#3",
                    "midi": 56,
                    "time": 41.607559499999994,
                    "velocity": 0.5118110236220472,
                    "duration": 0.13293149999999798
                },
                {
                    "name": "F3",
                    "midi": 53,
                    "time": 41.74049099999999,
                    "velocity": 0.5118110236220472,
                    "duration": 0.13293149999999798
                },
                {
                    "name": "D#3",
                    "midi": 51,
                    "time": 41.87342249999999,
                    "velocity": 0.5275590551181102,
                    "duration": 0.13293149999999798
                },
                {
                    "name": "B2",
                    "midi": 47,
                    "time": 42.00635399999999,
                    "velocity": 0.5590551181102362,
                    "duration": 0.13293149999999798
                },
                {
                    "name": "A#2",
                    "midi": 46,
                    "time": 42.27221699999998,
                    "velocity": 0.6141732283464567,
                    "duration": 0.26586300000000307
                },
                {
                    "name": "A#1",
                    "midi": 34,
                    "time": 42.27221699999998,
                    "velocity": 0.5196850393700787,
                    "duration": 0.26586300000000307
                },
                {
                    "name": "G3",
                    "midi": 55,
                    "time": 42.80394299999999,
                    "velocity": 0.25984251968503935,
                    "duration": 0.09969862500000204
                },
                {
                    "name": "F3",
                    "midi": 53,
                    "time": 42.80394299999999,
                    "velocity": 0.25984251968503935,
                    "duration": 0.09969862500000204
                },
                {
                    "name": "D#2",
                    "midi": 39,
                    "time": 43.06980599999999,
                    "velocity": 0.31496062992125984,
                    "duration": 0.09969862500000204
                },
                {
                    "name": "A#2",
                    "midi": 46,
                    "time": 43.06980599999999,
                    "velocity": 0.31496062992125984,
                    "duration": 0.09969862500000204
                },
                {
                    "name": "G3",
                    "midi": 55,
                    "time": 43.335668999999996,
                    "velocity": 0.25984251968503935,
                    "duration": 0.09969862500000204
                },
                {
                    "name": "F3",
                    "midi": 53,
                    "time": 43.335668999999996,
                    "velocity": 0.25984251968503935,
                    "duration": 0.09969862500000204
                },
                {
                    "name": "D#2",
                    "midi": 39,
                    "time": 43.601532,
                    "velocity": 0.2677165354330709,
                    "duration": 0.531725999999999
                },
                {
                    "name": "A#2",
                    "midi": 46,
                    "time": 43.601532,
                    "velocity": 0.31496062992125984,
                    "duration": 0.531725999999999
                },
                {
                    "name": "G3",
                    "midi": 55,
                    "time": 44.930847,
                    "velocity": 0.25196850393700787,
                    "duration": 0.09969862500000204
                },
                {
                    "name": "F3",
                    "midi": 53,
                    "time": 44.930847,
                    "velocity": 0.25196850393700787,
                    "duration": 0.09969862500000204
                },
                {
                    "name": "D#2",
                    "midi": 39,
                    "time": 45.19671,
                    "velocity": 0.2992125984251969,
                    "duration": 0.09969862500000204
                },
                {
                    "name": "A#2",
                    "midi": 46,
                    "time": 45.19671,
                    "velocity": 0.2992125984251969,
                    "duration": 0.09969862500000204
                },
                {
                    "name": "G3",
                    "midi": 55,
                    "time": 45.462573000000006,
                    "velocity": 0.2283464566929134,
                    "duration": 0.09969862500000204
                },
                {
                    "name": "F3",
                    "midi": 53,
                    "time": 45.462573000000006,
                    "velocity": 0.2283464566929134,
                    "duration": 0.09969862500000204
                },
                {
                    "name": "D#2",
                    "midi": 39,
                    "time": 45.72843600000001,
                    "velocity": 0.2283464566929134,
                    "duration": 0.531725999999999
                },
                {
                    "name": "A#2",
                    "midi": 46,
                    "time": 45.72843600000001,
                    "velocity": 0.2677165354330709,
                    "duration": 0.531725999999999
                },
                {
                    "name": "G3",
                    "midi": 55,
                    "time": 47.05775100000001,
                    "velocity": 0.25196850393700787,
                    "duration": 0.09969862500000204
                },
                {
                    "name": "F3",
                    "midi": 53,
                    "time": 47.05775100000001,
                    "velocity": 0.25196850393700787,
                    "duration": 0.09969862500000204
                },
                {
                    "name": "D#2",
                    "midi": 39,
                    "time": 47.32361400000001,
                    "velocity": 0.2992125984251969,
                    "duration": 0.09969862500000204
                },
                {
                    "name": "A#2",
                    "midi": 46,
                    "time": 47.32361400000001,
                    "velocity": 0.2992125984251969,
                    "duration": 0.09969862500000204
                },
                {
                    "name": "G3",
                    "midi": 55,
                    "time": 47.58947700000002,
                    "velocity": 0.23622047244094488,
                    "duration": 0.09969862500000204
                },
                {
                    "name": "F3",
                    "midi": 53,
                    "time": 47.58947700000002,
                    "velocity": 0.23622047244094488,
                    "duration": 0.09969862500000204
                },
                {
                    "name": "D#2",
                    "midi": 39,
                    "time": 47.85534000000002,
                    "velocity": 0.2677165354330709,
                    "duration": 0.531725999999999
                },
                {
                    "name": "F2",
                    "midi": 41,
                    "time": 48.38706600000002,
                    "velocity": 0.2677165354330709,
                    "duration": 0.531725999999999
                },
                {
                    "name": "F#2",
                    "midi": 42,
                    "time": 48.91879200000002,
                    "velocity": 0.23622047244094488,
                    "duration": 0.13293149999999798
                },
                {
                    "name": "C#3",
                    "midi": 49,
                    "time": 48.91879200000002,
                    "velocity": 0.23622047244094488,
                    "duration": 2.126903999999996
                },
                {
                    "name": "F#2",
                    "midi": 42,
                    "time": 49.45051800000002,
                    "velocity": 0.2283464566929134,
                    "duration": 0.13293149999999798
                },
                {
                    "name": "F#2",
                    "midi": 42,
                    "time": 49.982244000000016,
                    "velocity": 0.23622047244094488,
                    "duration": 0.13293149999999798
                },
                {
                    "name": "F#2",
                    "midi": 42,
                    "time": 50.513970000000015,
                    "velocity": 0.2283464566929134,
                    "duration": 0.13293149999999798
                },
                {
                    "name": "D#3",
                    "midi": 51,
                    "time": 50.979230250000015,
                    "velocity": 0.1889763779527559,
                    "duration": 0.06646574999999899
                },
                {
                    "name": "F#2",
                    "midi": 42,
                    "time": 51.045696000000014,
                    "velocity": 0.23622047244094488,
                    "duration": 0.13293149999999798
                },
                {
                    "name": "C#3",
                    "midi": 49,
                    "time": 51.045696000000014,
                    "velocity": 0.23622047244094488,
                    "duration": 2.126903999999996
                },
                {
                    "name": "F#2",
                    "midi": 42,
                    "time": 51.57742200000001,
                    "velocity": 0.2283464566929134,
                    "duration": 0.13293149999999798
                },
                {
                    "name": "F#2",
                    "midi": 42,
                    "time": 52.10914800000001,
                    "velocity": 0.23622047244094488,
                    "duration": 0.13293149999999798
                },
                {
                    "name": "F#2",
                    "midi": 42,
                    "time": 52.64087400000001,
                    "velocity": 0.2283464566929134,
                    "duration": 0.13293149999999798
                },
                {
                    "name": "C#3",
                    "midi": 49,
                    "time": 53.17260000000001,
                    "velocity": 0.23622047244094488,
                    "duration": 2.126903999999996
                },
                {
                    "name": "F#2",
                    "midi": 42,
                    "time": 53.43846300000001,
                    "velocity": 0.2283464566929134,
                    "duration": 0.13293149999999798
                },
                {
                    "name": "F2",
                    "midi": 41,
                    "time": 53.70432600000001,
                    "velocity": 0.2283464566929134,
                    "duration": 0.13293149999999798
                },
                {
                    "name": "D#2",
                    "midi": 39,
                    "time": 53.970189000000005,
                    "velocity": 0.2283464566929134,
                    "duration": 0.13293149999999798
                },
                {
                    "name": "C#2",
                    "midi": 37,
                    "time": 54.236052,
                    "velocity": 0.29133858267716534,
                    "duration": 0.26586300000000307
                },
                {
                    "name": "F#2",
                    "midi": 42,
                    "time": 55.56536700000001,
                    "velocity": 0.2283464566929134,
                    "duration": 0.13293149999999798
                },
                {
                    "name": "F2",
                    "midi": 41,
                    "time": 55.831230000000005,
                    "velocity": 0.2283464566929134,
                    "duration": 0.13293149999999798
                },
                {
                    "name": "D#2",
                    "midi": 39,
                    "time": 56.097093,
                    "velocity": 0.2283464566929134,
                    "duration": 0.13293149999999798
                },
                {
                    "name": "C#2",
                    "midi": 37,
                    "time": 56.362956,
                    "velocity": 0.29133858267716534,
                    "duration": 0.13293149999999798
                },
                {
                    "name": "B1",
                    "midi": 35,
                    "time": 56.62881899999999,
                    "velocity": 0.25196850393700787,
                    "duration": 0.13293149999999798
                },
                {
                    "name": "A#1",
                    "midi": 34,
                    "time": 56.89468199999999,
                    "velocity": 0.23622047244094488,
                    "duration": 0.13293149999999798
                },
                {
                    "name": "G#1",
                    "midi": 32,
                    "time": 57.160544999999985,
                    "velocity": 0.23622047244094488,
                    "duration": 0.13293149999999798
                },
                {
                    "name": "F#2",
                    "midi": 42,
                    "time": 57.42640799999998,
                    "velocity": 0.23622047244094488,
                    "duration": 0.13293149999999798
                },
                {
                    "name": "C#3",
                    "midi": 49,
                    "time": 57.42640799999998,
                    "velocity": 0.23622047244094488,
                    "duration": 2.126903999999996
                },
                {
                    "name": "F#2",
                    "midi": 42,
                    "time": 57.95813399999998,
                    "velocity": 0.2283464566929134,
                    "duration": 0.13293149999999798
                },
                {
                    "name": "F#2",
                    "midi": 42,
                    "time": 58.48985999999998,
                    "velocity": 0.23622047244094488,
                    "duration": 0.13293149999999798
                },
                {
                    "name": "F#2",
                    "midi": 42,
                    "time": 59.02158599999998,
                    "velocity": 0.2283464566929134,
                    "duration": 0.13293149999999798
                },
                {
                    "name": "D#3",
                    "midi": 51,
                    "time": 59.48684624999998,
                    "velocity": 0.1889763779527559,
                    "duration": 0.06646574999999899
                },
                {
                    "name": "F#2",
                    "midi": 42,
                    "time": 59.55331199999998,
                    "velocity": 0.23622047244094488,
                    "duration": 0.13293149999999798
                },
                {
                    "name": "C#3",
                    "midi": 49,
                    "time": 59.55331199999998,
                    "velocity": 0.23622047244094488,
                    "duration": 2.126903999999996
                },
                {
                    "name": "F#2",
                    "midi": 42,
                    "time": 60.085037999999976,
                    "velocity": 0.2283464566929134,
                    "duration": 0.13293149999999798
                },
                {
                    "name": "F#2",
                    "midi": 42,
                    "time": 60.616763999999975,
                    "velocity": 0.23622047244094488,
                    "duration": 0.13293149999999798
                },
                {
                    "name": "F#2",
                    "midi": 42,
                    "time": 61.148489999999974,
                    "velocity": 0.2283464566929134,
                    "duration": 0.13293149999999798
                },
                {
                    "name": "C#3",
                    "midi": 49,
                    "time": 61.68021599999997,
                    "velocity": 0.23622047244094488,
                    "duration": 2.392766999999992
                },
                {
                    "name": "F#2",
                    "midi": 42,
                    "time": 61.946078999999976,
                    "velocity": 0.2283464566929134,
                    "duration": 0.13293149999999798
                },
                {
                    "name": "F2",
                    "midi": 41,
                    "time": 62.21194199999997,
                    "velocity": 0.2283464566929134,
                    "duration": 0.13293149999999798
                },
                {
                    "name": "D#2",
                    "midi": 39,
                    "time": 62.47780499999997,
                    "velocity": 0.2283464566929134,
                    "duration": 0.13293149999999798
                },
                {
                    "name": "C#2",
                    "midi": 37,
                    "time": 62.743667999999964,
                    "velocity": 0.29133858267716534,
                    "duration": 0.26586300000000307
                },
                {
                    "name": "D#2",
                    "midi": 39,
                    "time": 64.07298299999997,
                    "velocity": 0.29133858267716534,
                    "duration": 0.26586299999999596
                },
                {
                    "name": "F2",
                    "midi": 41,
                    "time": 64.33884599999996,
                    "velocity": 0.3228346456692913,
                    "duration": 0.26586299999999596
                },
                {
                    "name": "F#2",
                    "midi": 42,
                    "time": 64.60470899999996,
                    "velocity": 0.2992125984251969,
                    "duration": 0.26586299999999596
                },
                {
                    "name": "A2",
                    "midi": 45,
                    "time": 64.87057199999995,
                    "velocity": 0.3858267716535433,
                    "duration": 0.26586299999999596
                },
                {
                    "name": "A#2",
                    "midi": 46,
                    "time": 65.13643499999995,
                    "velocity": 0.33070866141732286,
                    "duration": 0.26586299999999596
                },
                {
                    "name": "B2",
                    "midi": 47,
                    "time": 65.40229799999994,
                    "velocity": 0.4330708661417323,
                    "duration": 0.26586299999999596
                },
                {
                    "name": "C3",
                    "midi": 48,
                    "time": 65.66816099999994,
                    "velocity": 0.36220472440944884,
                    "duration": 0.26586299999999596
                },
                {
                    "name": "C#3",
                    "midi": 49,
                    "time": 65.93402399999994,
                    "velocity": 0.2283464566929134,
                    "duration": 1.0634520000000265
                },
                {
                    "name": "G#2",
                    "midi": 44,
                    "time": 65.93402399999994,
                    "velocity": 0.1889763779527559,
                    "duration": 1.0634520000000265
                },
                {
                    "name": "G#3",
                    "midi": 56,
                    "time": 66.19988699999993,
                    "velocity": 0.2283464566929134,
                    "duration": 0.0664657500000061
                },
                {
                    "name": "B3",
                    "midi": 59,
                    "time": 66.19988699999993,
                    "velocity": 0.2283464566929134,
                    "duration": 0.0664657500000061
                },
                {
                    "name": "F4",
                    "midi": 65,
                    "time": 66.19988699999993,
                    "velocity": 0.2283464566929134,
                    "duration": 0.0664657500000061
                },
                {
                    "name": "G#3",
                    "midi": 56,
                    "time": 66.46574999999994,
                    "velocity": 0.2283464566929134,
                    "duration": 0.0664657500000061
                },
                {
                    "name": "B3",
                    "midi": 59,
                    "time": 66.46574999999994,
                    "velocity": 0.2283464566929134,
                    "duration": 0.0664657500000061
                },
                {
                    "name": "F4",
                    "midi": 65,
                    "time": 66.46574999999994,
                    "velocity": 0.2283464566929134,
                    "duration": 0.0664657500000061
                },
                {
                    "name": "B3",
                    "midi": 59,
                    "time": 66.73161299999995,
                    "velocity": 0.2283464566929134,
                    "duration": 0.0664657500000061
                },
                {
                    "name": "G#3",
                    "midi": 56,
                    "time": 66.73161299999995,
                    "velocity": 0.2283464566929134,
                    "duration": 0.0664657500000061
                },
                {
                    "name": "F4",
                    "midi": 65,
                    "time": 66.73161299999995,
                    "velocity": 0.2283464566929134,
                    "duration": 0.0664657500000061
                },
                {
                    "name": "G#3",
                    "midi": 56,
                    "time": 67.26333899999996,
                    "velocity": 0.2283464566929134,
                    "duration": 0.0664657500000061
                },
                {
                    "name": "B3",
                    "midi": 59,
                    "time": 67.26333899999996,
                    "velocity": 0.2283464566929134,
                    "duration": 0.0664657500000061
                },
                {
                    "name": "F4",
                    "midi": 65,
                    "time": 67.26333899999996,
                    "velocity": 0.2283464566929134,
                    "duration": 0.0664657500000061
                },
                {
                    "name": "G#3",
                    "midi": 56,
                    "time": 67.52920199999997,
                    "velocity": 0.2283464566929134,
                    "duration": 0.0664657500000061
                },
                {
                    "name": "B3",
                    "midi": 59,
                    "time": 67.52920199999997,
                    "velocity": 0.2283464566929134,
                    "duration": 0.0664657500000061
                },
                {
                    "name": "F4",
                    "midi": 65,
                    "time": 67.52920199999997,
                    "velocity": 0.2283464566929134,
                    "duration": 0.0664657500000061
                },
                {
                    "name": "B3",
                    "midi": 59,
                    "time": 67.79506499999998,
                    "velocity": 0.2283464566929134,
                    "duration": 0.0664657500000061
                },
                {
                    "name": "G#3",
                    "midi": 56,
                    "time": 67.79506499999998,
                    "velocity": 0.2283464566929134,
                    "duration": 0.0664657500000061
                },
                {
                    "name": "F4",
                    "midi": 65,
                    "time": 67.79506499999998,
                    "velocity": 0.2283464566929134,
                    "duration": 0.0664657500000061
                },
                {
                    "name": "C#3",
                    "midi": 49,
                    "time": 69.12437999999999,
                    "velocity": 0.2283464566929134,
                    "duration": 2.1269040000000246
                },
                {
                    "name": "F#2",
                    "midi": 42,
                    "time": 70.18783199999999,
                    "velocity": 0.1889763779527559,
                    "duration": 1.0634520000000265
                },
                {
                    "name": "A#3",
                    "midi": 58,
                    "time": 70.45369499999998,
                    "velocity": 0.2283464566929134,
                    "duration": 0.0664657500000061
                },
                {
                    "name": "C#4",
                    "midi": 61,
                    "time": 70.45369499999998,
                    "velocity": 0.2283464566929134,
                    "duration": 0.0664657500000061
                },
                {
                    "name": "F#4",
                    "midi": 66,
                    "time": 70.45369499999998,
                    "velocity": 0.2283464566929134,
                    "duration": 0.0664657500000061
                },
                {
                    "name": "A#3",
                    "midi": 58,
                    "time": 70.71955799999999,
                    "velocity": 0.2283464566929134,
                    "duration": 0.0664657500000061
                },
                {
                    "name": "C#4",
                    "midi": 61,
                    "time": 70.71955799999999,
                    "velocity": 0.2283464566929134,
                    "duration": 0.0664657500000061
                },
                {
                    "name": "F#4",
                    "midi": 66,
                    "time": 70.71955799999999,
                    "velocity": 0.2283464566929134,
                    "duration": 0.0664657500000061
                },
                {
                    "name": "C#4",
                    "midi": 61,
                    "time": 70.985421,
                    "velocity": 0.2283464566929134,
                    "duration": 0.0664657500000061
                },
                {
                    "name": "A#3",
                    "midi": 58,
                    "time": 70.985421,
                    "velocity": 0.2283464566929134,
                    "duration": 0.0664657500000061
                },
                {
                    "name": "F#4",
                    "midi": 66,
                    "time": 70.985421,
                    "velocity": 0.2283464566929134,
                    "duration": 0.0664657500000061
                },
                {
                    "name": "A#3",
                    "midi": 58,
                    "time": 71.51714700000001,
                    "velocity": 0.2283464566929134,
                    "duration": 0.0664657500000061
                },
                {
                    "name": "C#4",
                    "midi": 61,
                    "time": 71.51714700000001,
                    "velocity": 0.2283464566929134,
                    "duration": 0.0664657500000061
                },
                {
                    "name": "F#4",
                    "midi": 66,
                    "time": 71.51714700000001,
                    "velocity": 0.2283464566929134,
                    "duration": 0.0664657500000061
                },
                {
                    "name": "A#3",
                    "midi": 58,
                    "time": 71.78301000000002,
                    "velocity": 0.2283464566929134,
                    "duration": 0.0664657500000061
                },
                {
                    "name": "C#4",
                    "midi": 61,
                    "time": 71.78301000000002,
                    "velocity": 0.2283464566929134,
                    "duration": 0.0664657500000061
                },
                {
                    "name": "F#4",
                    "midi": 66,
                    "time": 71.78301000000002,
                    "velocity": 0.2283464566929134,
                    "duration": 0.0664657500000061
                },
                {
                    "name": "C#4",
                    "midi": 61,
                    "time": 72.04887300000003,
                    "velocity": 0.2283464566929134,
                    "duration": 0.0664657500000061
                },
                {
                    "name": "A#3",
                    "midi": 58,
                    "time": 72.04887300000003,
                    "velocity": 0.2283464566929134,
                    "duration": 0.0664657500000061
                },
                {
                    "name": "F#4",
                    "midi": 66,
                    "time": 72.04887300000003,
                    "velocity": 0.2283464566929134,
                    "duration": 0.0664657500000061
                },
                {
                    "name": "A3",
                    "midi": 57,
                    "time": 72.84646200000003,
                    "velocity": 0.33070866141732286,
                    "duration": 0.5317260000000061
                },
                {
                    "name": "F4",
                    "midi": 65,
                    "time": 73.37818800000004,
                    "velocity": 0.41732283464566927,
                    "duration": 0.26586299999999596
                },
                {
                    "name": "G#4",
                    "midi": 68,
                    "time": 73.64405100000003,
                    "velocity": 0.4881889763779528,
                    "duration": 0.5317260000000061
                },
                {
                    "name": "F#4",
                    "midi": 66,
                    "time": 74.17577700000004,
                    "velocity": 0.44881889763779526,
                    "duration": 0.26586299999999596
                },
                {
                    "name": "C#3",
                    "midi": 49,
                    "time": 74.44164000000004,
                    "velocity": 0.2283464566929134,
                    "duration": 1.0634519999999839
                },
                {
                    "name": "F4",
                    "midi": 65,
                    "time": 74.70750300000003,
                    "velocity": 0.3858267716535433,
                    "duration": 0.26586299999999596
                },
                {
                    "name": "G#3",
                    "midi": 56,
                    "time": 74.70750300000003,
                    "velocity": 0.3228346456692913,
                    "duration": 0.7975889999999879
                },
                {
                    "name": "B3",
                    "midi": 59,
                    "time": 74.70750300000003,
                    "velocity": 0.3228346456692913,
                    "duration": 0.7975889999999879
                },
                {
                    "name": "D#4",
                    "midi": 63,
                    "time": 74.97336600000003,
                    "velocity": 0.3858267716535433,
                    "duration": 0.26586299999999596
                },
                {
                    "name": "C#4",
                    "midi": 61,
                    "time": 75.23922900000002,
                    "velocity": 0.3228346456692913,
                    "duration": 0.26586299999999596
                },
                {
                    "name": "F#3",
                    "midi": 54,
                    "time": 75.50509200000002,
                    "velocity": 0.3228346456692913,
                    "duration": 0.26586299999999596
                },
                {
                    "name": "B3",
                    "midi": 59,
                    "time": 75.50509200000002,
                    "velocity": 0.2677165354330709,
                    "duration": 0.7975889999999879
                },
                {
                    "name": "F3",
                    "midi": 53,
                    "time": 75.77095500000001,
                    "velocity": 0.3228346456692913,
                    "duration": 0.26586299999999596
                },
                {
                    "name": "D#3",
                    "midi": 51,
                    "time": 76.03681800000001,
                    "velocity": 0.28346456692913385,
                    "duration": 0.26586299999999596
                },
                {
                    "name": "C#3",
                    "midi": 49,
                    "time": 76.302681,
                    "velocity": 0.2677165354330709,
                    "duration": 0.5317259999999919
                },
                {
                    "name": "F#2",
                    "midi": 42,
                    "time": 76.568544,
                    "velocity": 0.2283464566929134,
                    "duration": 1.063451999999998
                },
                {
                    "name": "C#3",
                    "midi": 49,
                    "time": 76.834407,
                    "velocity": 0.2677165354330709,
                    "duration": 0.5317260000000061
                },
                {
                    "name": "C#3",
                    "midi": 49,
                    "time": 77.366133,
                    "velocity": 0.2677165354330709,
                    "duration": 0.5317259999999919
                },
                {
                    "name": "G2",
                    "midi": 43,
                    "time": 77.631996,
                    "velocity": 0.2283464566929134,
                    "duration": 1.063451999999998
                },
                {
                    "name": "C#3",
                    "midi": 49,
                    "time": 77.897859,
                    "velocity": 0.33070866141732286,
                    "duration": 0.7975890000000021
                },
                {
                    "name": "C#3",
                    "midi": 49,
                    "time": 78.695448,
                    "velocity": 0.2283464566929134,
                    "duration": 1.0634520000000265
                },
                {
                    "name": "G#2",
                    "midi": 44,
                    "time": 78.695448,
                    "velocity": 0.1889763779527559,
                    "duration": 1.0634520000000265
                },
                {
                    "name": "G#3",
                    "midi": 56,
                    "time": 78.961311,
                    "velocity": 0.2283464566929134,
                    "duration": 0.0664657500000061
                },
                {
                    "name": "B3",
                    "midi": 59,
                    "time": 78.961311,
                    "velocity": 0.2283464566929134,
                    "duration": 0.0664657500000061
                },
                {
                    "name": "F#4",
                    "midi": 66,
                    "time": 78.961311,
                    "velocity": 0.2283464566929134,
                    "duration": 0.0664657500000061
                },
                {
                    "name": "G#3",
                    "midi": 56,
                    "time": 79.227174,
                    "velocity": 0.2283464566929134,
                    "duration": 0.0664657500000061
                },
                {
                    "name": "B3",
                    "midi": 59,
                    "time": 79.227174,
                    "velocity": 0.2283464566929134,
                    "duration": 0.0664657500000061
                },
                {
                    "name": "F4",
                    "midi": 65,
                    "time": 79.227174,
                    "velocity": 0.2283464566929134,
                    "duration": 0.0664657500000061
                },
                {
                    "name": "B3",
                    "midi": 59,
                    "time": 79.49303700000002,
                    "velocity": 0.2283464566929134,
                    "duration": 0.0664657500000061
                },
                {
                    "name": "G#3",
                    "midi": 56,
                    "time": 79.49303700000002,
                    "velocity": 0.2283464566929134,
                    "duration": 0.0664657500000061
                },
                {
                    "name": "D#4",
                    "midi": 63,
                    "time": 79.49303700000002,
                    "velocity": 0.2283464566929134,
                    "duration": 0.0664657500000061
                },
                {
                    "name": "F#3",
                    "midi": 54,
                    "time": 80.02476300000002,
                    "velocity": 0.2677165354330709,
                    "duration": 0.26586299999999596
                },
                {
                    "name": "F3",
                    "midi": 53,
                    "time": 80.29062600000002,
                    "velocity": 0.2677165354330709,
                    "duration": 0.26586299999999596
                },
                {
                    "name": "D#3",
                    "midi": 51,
                    "time": 80.55648900000001,
                    "velocity": 0.2677165354330709,
                    "duration": 0.7975890000000021
                },
                {
                    "name": "C3",
                    "midi": 48,
                    "time": 81.35407800000002,
                    "velocity": 0.25196850393700787,
                    "duration": 0.5317260000000061
                },
                {
                    "name": "C#3",
                    "midi": 49,
                    "time": 81.88580400000002,
                    "velocity": 0.2283464566929134,
                    "duration": 1.0634520000000265
                },
                {
                    "name": "F#2",
                    "midi": 42,
                    "time": 81.88580400000002,
                    "velocity": 0.1889763779527559,
                    "duration": 1.0634520000000265
                },
                {
                    "name": "A#3",
                    "midi": 58,
                    "time": 82.15166700000002,
                    "velocity": 0.2283464566929134,
                    "duration": 0.0664657500000061
                },
                {
                    "name": "C#4",
                    "midi": 61,
                    "time": 82.15166700000002,
                    "velocity": 0.2283464566929134,
                    "duration": 0.0664657500000061
                },
                {
                    "name": "F#4",
                    "midi": 66,
                    "time": 82.15166700000002,
                    "velocity": 0.2283464566929134,
                    "duration": 0.0664657500000061
                },
                {
                    "name": "A#3",
                    "midi": 58,
                    "time": 82.41753000000003,
                    "velocity": 0.2283464566929134,
                    "duration": 0.0664657500000061
                },
                {
                    "name": "C#4",
                    "midi": 61,
                    "time": 82.41753000000003,
                    "velocity": 0.2283464566929134,
                    "duration": 0.0664657500000061
                },
                {
                    "name": "F4",
                    "midi": 65,
                    "time": 82.41753000000003,
                    "velocity": 0.2283464566929134,
                    "duration": 0.0664657500000061
                },
                {
                    "name": "C#4",
                    "midi": 61,
                    "time": 82.68339300000004,
                    "velocity": 0.2283464566929134,
                    "duration": 0.0664657500000061
                },
                {
                    "name": "A#3",
                    "midi": 58,
                    "time": 82.68339300000004,
                    "velocity": 0.2283464566929134,
                    "duration": 0.0664657500000061
                },
                {
                    "name": "D#4",
                    "midi": 63,
                    "time": 82.68339300000004,
                    "velocity": 0.2283464566929134,
                    "duration": 0.0664657500000061
                },
                {
                    "name": "C#4",
                    "midi": 61,
                    "time": 83.48098200000005,
                    "velocity": 0.33070866141732286,
                    "duration": 0.5317260000000061
                },
                {
                    "name": "A4",
                    "midi": 69,
                    "time": 84.01270800000006,
                    "velocity": 0.41732283464566927,
                    "duration": 0.26586299999999596
                },
                {
                    "name": "B4",
                    "midi": 71,
                    "time": 84.27857100000006,
                    "velocity": 0.4881889763779528,
                    "duration": 0.5317260000000061
                },
                {
                    "name": "A#4",
                    "midi": 70,
                    "time": 84.81029700000006,
                    "velocity": 0.44881889763779526,
                    "duration": 0.26586299999999596
                },
                {
                    "name": "B2",
                    "midi": 47,
                    "time": 85.07616000000006,
                    "velocity": 0.2283464566929134,
                    "duration": 1.063451999999998
                },
                {
                    "name": "B3",
                    "midi": 59,
                    "time": 85.34202300000005,
                    "velocity": 0.3228346456692913,
                    "duration": 0.7975890000000021
                },
                {
                    "name": "D#4",
                    "midi": 63,
                    "time": 85.34202300000005,
                    "velocity": 0.3858267716535433,
                    "duration": 0.7975890000000021
                },
                {
                    "name": "G#3",
                    "midi": 56,
                    "time": 85.34202300000005,
                    "velocity": 0.23622047244094488,
                    "duration": 0.7975890000000021
                },
                {
                    "name": "F#3",
                    "midi": 54,
                    "time": 85.34202300000005,
                    "velocity": 0.23622047244094488,
                    "duration": 0.7975890000000021
                },
                {
                    "name": "D#4",
                    "midi": 63,
                    "time": 86.13961200000006,
                    "velocity": 0.3228346456692913,
                    "duration": 0.26586299999999596
                },
                {
                    "name": "C#4",
                    "midi": 61,
                    "time": 86.40547500000005,
                    "velocity": 0.3228346456692913,
                    "duration": 0.26586299999999596
                },
                {
                    "name": "B3",
                    "midi": 59,
                    "time": 86.67133800000005,
                    "velocity": 0.28346456692913385,
                    "duration": 0.17724200000000678
                },
                {
                    "name": "A#3",
                    "midi": 58,
                    "time": 86.84858000000006,
                    "velocity": 0.28346456692913385,
                    "duration": 0.17724200000000678
                },
                {
                    "name": "G#3",
                    "midi": 56,
                    "time": 87.02582200000006,
                    "velocity": 0.28346456692913385,
                    "duration": 0.17724200000000678
                },
                {
                    "name": "A#2",
                    "midi": 46,
                    "time": 87.20306400000007,
                    "velocity": 0.2440944881889764,
                    "duration": 0.13293149999999798
                },
                {
                    "name": "C#3",
                    "midi": 49,
                    "time": 87.33599550000007,
                    "velocity": 0.3228346456692913,
                    "duration": 0.26586299999999596
                },
                {
                    "name": "B2",
                    "midi": 47,
                    "time": 87.60185850000006,
                    "velocity": 0.29133858267716534,
                    "duration": 0.13293149999999798
                },
                {
                    "name": "C#2",
                    "midi": 37,
                    "time": 87.73479000000006,
                    "velocity": 0.2440944881889764,
                    "duration": 0.6646575000000041
                },
                {
                    "name": "D#2",
                    "midi": 39,
                    "time": 88.39944750000006,
                    "velocity": 0.25984251968503935,
                    "duration": 0.26586299999999596
                },
                {
                    "name": "F2",
                    "midi": 41,
                    "time": 88.66531050000006,
                    "velocity": 0.2125984251968504,
                    "duration": 0.13293149999999798
                },
                {
                    "name": "D#2",
                    "midi": 39,
                    "time": 88.79824200000006,
                    "velocity": 0.2677165354330709,
                    "duration": 0.26586299999999596
                },
                {
                    "name": "C#2",
                    "midi": 37,
                    "time": 89.06410500000005,
                    "velocity": 0.2440944881889764,
                    "duration": 2.3927670000000063
                },
                {
                    "name": "A#2",
                    "midi": 46,
                    "time": 91.45687200000006,
                    "velocity": 0.2440944881889764,
                    "duration": 0.13293149999999798
                },
                {
                    "name": "C#3",
                    "midi": 49,
                    "time": 91.58980350000006,
                    "velocity": 0.3228346456692913,
                    "duration": 0.26586299999999596
                },
                {
                    "name": "B2",
                    "midi": 47,
                    "time": 91.85566650000005,
                    "velocity": 0.29133858267716534,
                    "duration": 0.13293149999999798
                },
                {
                    "name": "C#2",
                    "midi": 37,
                    "time": 91.98859800000005,
                    "velocity": 0.2440944881889764,
                    "duration": 0.13293149999999798
                },
                {
                    "name": "D#2",
                    "midi": 39,
                    "time": 92.12152950000005,
                    "velocity": 0.23622047244094488,
                    "duration": 0.26586299999999596
                },
                {
                    "name": "F2",
                    "midi": 41,
                    "time": 92.38739250000005,
                    "velocity": 0.25984251968503935,
                    "duration": 0.13293149999999798
                },
                {
                    "name": "D#2",
                    "midi": 39,
                    "time": 92.52032400000004,
                    "velocity": 0.23622047244094488,
                    "duration": 0.2658630000000102
                },
                {
                    "name": "C#2",
                    "midi": 37,
                    "time": 92.77843266250005,
                    "velocity": 0.2125984251968504,
                    "duration": 1.8610410000000002
                },
                {
                    "name": "D#2",
                    "midi": 39,
                    "time": 96.77413200000005,
                    "velocity": 0.2677165354330709,
                    "duration": 0.09969862500000204
                },
                {
                    "name": "A#2",
                    "midi": 46,
                    "time": 96.77413200000005,
                    "velocity": 0.31496062992125984,
                    "duration": 0.09969862500000204
                },
                {
                    "name": "G3",
                    "midi": 55,
                    "time": 97.03999500000005,
                    "velocity": 0.25984251968503935,
                    "duration": 0.09969862500000204
                },
                {
                    "name": "F3",
                    "midi": 53,
                    "time": 97.03999500000005,
                    "velocity": 0.2204724409448819,
                    "duration": 0.09969862500000204
                },
                {
                    "name": "A#2",
                    "midi": 46,
                    "time": 97.30585800000004,
                    "velocity": 0.3700787401574803,
                    "duration": 0.09969862500000204
                },
                {
                    "name": "D#2",
                    "midi": 39,
                    "time": 97.30585800000004,
                    "velocity": 0.30708661417322836,
                    "duration": 0.09969862500000204
                },
                {
                    "name": "F3",
                    "midi": 53,
                    "time": 97.57172100000004,
                    "velocity": 0.2677165354330709,
                    "duration": 0.09969862500000204
                },
                {
                    "name": "G3",
                    "midi": 55,
                    "time": 97.57172100000004,
                    "velocity": 0.3228346456692913,
                    "duration": 0.09969862500000204
                },
                {
                    "name": "A#2",
                    "midi": 46,
                    "time": 97.83758400000004,
                    "velocity": 0.3937007874015748,
                    "duration": 0.09969862500000204
                },
                {
                    "name": "D#2",
                    "midi": 39,
                    "time": 97.83758400000004,
                    "velocity": 0.33070866141732286,
                    "duration": 0.09969862500000204
                },
                {
                    "name": "F3",
                    "midi": 53,
                    "time": 98.10344700000003,
                    "velocity": 0.2677165354330709,
                    "duration": 0.09969862500000204
                },
                {
                    "name": "G3",
                    "midi": 55,
                    "time": 98.10344700000003,
                    "velocity": 0.31496062992125984,
                    "duration": 0.09969862500000204
                },
                {
                    "name": "A#2",
                    "midi": 46,
                    "time": 98.36931000000003,
                    "velocity": 0.33858267716535434,
                    "duration": 0.09969862500000204
                },
                {
                    "name": "D#2",
                    "midi": 39,
                    "time": 98.36931000000003,
                    "velocity": 0.28346456692913385,
                    "duration": 0.09969862500000204
                },
                {
                    "name": "F3",
                    "midi": 53,
                    "time": 98.63517300000002,
                    "velocity": 0.2283464566929134,
                    "duration": 0.09969862500000204
                },
                {
                    "name": "G3",
                    "midi": 55,
                    "time": 98.63517300000002,
                    "velocity": 0.2755905511811024,
                    "duration": 0.09969862500000204
                },
                {
                    "name": "D#2",
                    "midi": 39,
                    "time": 98.90103600000002,
                    "velocity": 0.31496062992125984,
                    "duration": 0.09969862500000204
                },
                {
                    "name": "A#2",
                    "midi": 46,
                    "time": 98.90103600000002,
                    "velocity": 0.31496062992125984,
                    "duration": 0.09969862500000204
                },
                {
                    "name": "F3",
                    "midi": 53,
                    "time": 99.16689900000002,
                    "velocity": 0.25984251968503935,
                    "duration": 0.09969862500000204
                },
                {
                    "name": "D#3",
                    "midi": 51,
                    "time": 99.16689900000002,
                    "velocity": 0.25984251968503935,
                    "duration": 0.09969862500000204
                },
                {
                    "name": "D#2",
                    "midi": 39,
                    "time": 99.43276200000001,
                    "velocity": 0.31496062992125984,
                    "duration": 0.09969862500000204
                },
                {
                    "name": "A#2",
                    "midi": 46,
                    "time": 99.43276200000001,
                    "velocity": 0.31496062992125984,
                    "duration": 0.09969862500000204
                },
                {
                    "name": "F3",
                    "midi": 53,
                    "time": 99.698625,
                    "velocity": 0.2755905511811024,
                    "duration": 0.09969862500000204
                },
                {
                    "name": "D#3",
                    "midi": 51,
                    "time": 99.698625,
                    "velocity": 0.2755905511811024,
                    "duration": 0.09969862500000204
                },
                {
                    "name": "D#2",
                    "midi": 39,
                    "time": 99.964488,
                    "velocity": 0.31496062992125984,
                    "duration": 0.09969862500000204
                },
                {
                    "name": "A#2",
                    "midi": 46,
                    "time": 99.964488,
                    "velocity": 0.31496062992125984,
                    "duration": 0.09969862500000204
                },
                {
                    "name": "F3",
                    "midi": 53,
                    "time": 100.230351,
                    "velocity": 0.25984251968503935,
                    "duration": 0.09969862500000204
                },
                {
                    "name": "D#3",
                    "midi": 51,
                    "time": 100.230351,
                    "velocity": 0.25984251968503935,
                    "duration": 0.09969862500000204
                },
                {
                    "name": "D#2",
                    "midi": 39,
                    "time": 100.496214,
                    "velocity": 0.31496062992125984,
                    "duration": 0.09969862500000204
                },
                {
                    "name": "A#2",
                    "midi": 46,
                    "time": 100.496214,
                    "velocity": 0.31496062992125984,
                    "duration": 0.09969862500000204
                },
                {
                    "name": "F3",
                    "midi": 53,
                    "time": 100.76207699999999,
                    "velocity": 0.2755905511811024,
                    "duration": 0.09969862500000204
                },
                {
                    "name": "D#3",
                    "midi": 51,
                    "time": 100.76207699999999,
                    "velocity": 0.2755905511811024,
                    "duration": 0.09969862500000204
                },
                {
                    "name": "A#2",
                    "midi": 46,
                    "time": 101.02793999999999,
                    "velocity": 0.4251968503937008,
                    "duration": 0.13293149999999798
                },
                {
                    "name": "G#2",
                    "midi": 44,
                    "time": 101.16087149999998,
                    "velocity": 0.3937007874015748,
                    "duration": 0.13293149999999798
                },
                {
                    "name": "F2",
                    "midi": 41,
                    "time": 101.42673449999998,
                    "velocity": 0.3937007874015748,
                    "duration": 0.09969862500000204
                },
                {
                    "name": "D#2",
                    "midi": 39,
                    "time": 101.55966599999998,
                    "velocity": 0.4015748031496063,
                    "duration": 0.13293149999999798
                },
                {
                    "name": "D2",
                    "midi": 38,
                    "time": 101.82552899999997,
                    "velocity": 0.4330708661417323,
                    "duration": 0.13293149999999798
                },
                {
                    "name": "C2",
                    "midi": 36,
                    "time": 102.09139199999997,
                    "velocity": 0.47244094488188976,
                    "duration": 0.13293149999999798
                },
                {
                    "name": "G1",
                    "midi": 31,
                    "time": 102.35725499999997,
                    "velocity": 0.44881889763779526,
                    "duration": 0.13293149999999798
                },
                {
                    "name": "C2",
                    "midi": 36,
                    "time": 102.62311799999996,
                    "velocity": 0.5039370078740157,
                    "duration": 0.13293149999999798
                },
                {
                    "name": "D2",
                    "midi": 38,
                    "time": 102.88898099999996,
                    "velocity": 0.5354330708661418,
                    "duration": 0.13293149999999798
                },
                {
                    "name": "D#2",
                    "midi": 39,
                    "time": 103.15484399999995,
                    "velocity": 0.31496062992125984,
                    "duration": 0.09969862500000204
                },
                {
                    "name": "A#2",
                    "midi": 46,
                    "time": 103.15484399999995,
                    "velocity": 0.31496062992125984,
                    "duration": 0.09969862500000204
                },
                {
                    "name": "G#3",
                    "midi": 56,
                    "time": 103.42070699999995,
                    "velocity": 0.25984251968503935,
                    "duration": 0.09969862500000204
                },
                {
                    "name": "F3",
                    "midi": 53,
                    "time": 103.42070699999995,
                    "velocity": 0.25984251968503935,
                    "duration": 0.09969862500000204
                },
                {
                    "name": "D#2",
                    "midi": 39,
                    "time": 103.68656999999995,
                    "velocity": 0.31496062992125984,
                    "duration": 0.09969862500000204
                },
                {
                    "name": "A#2",
                    "midi": 46,
                    "time": 103.68656999999995,
                    "velocity": 0.31496062992125984,
                    "duration": 0.09969862500000204
                },
                {
                    "name": "G#3",
                    "midi": 56,
                    "time": 103.95243299999994,
                    "velocity": 0.2755905511811024,
                    "duration": 0.09969862500000204
                },
                {
                    "name": "F3",
                    "midi": 53,
                    "time": 103.95243299999994,
                    "velocity": 0.2755905511811024,
                    "duration": 0.09969862500000204
                },
                {
                    "name": "D#2",
                    "midi": 39,
                    "time": 104.21829599999994,
                    "velocity": 0.31496062992125984,
                    "duration": 0.09969862500000204
                },
                {
                    "name": "A#2",
                    "midi": 46,
                    "time": 104.21829599999994,
                    "velocity": 0.31496062992125984,
                    "duration": 0.09969862500000204
                },
                {
                    "name": "G#3",
                    "midi": 56,
                    "time": 104.48415899999993,
                    "velocity": 0.25984251968503935,
                    "duration": 0.09969862500000204
                },
                {
                    "name": "F3",
                    "midi": 53,
                    "time": 104.48415899999993,
                    "velocity": 0.25984251968503935,
                    "duration": 0.09969862500000204
                },
                {
                    "name": "D#2",
                    "midi": 39,
                    "time": 104.75002199999993,
                    "velocity": 0.31496062992125984,
                    "duration": 0.09969862500000204
                },
                {
                    "name": "A#2",
                    "midi": 46,
                    "time": 104.75002199999993,
                    "velocity": 0.31496062992125984,
                    "duration": 0.09969862500000204
                },
                {
                    "name": "G#3",
                    "midi": 56,
                    "time": 105.01588499999993,
                    "velocity": 0.25984251968503935,
                    "duration": 0.0664657500000061
                },
                {
                    "name": "F3",
                    "midi": 53,
                    "time": 105.01588499999993,
                    "velocity": 0.25984251968503935,
                    "duration": 0.0664657500000061
                },
                {
                    "name": "D#2",
                    "midi": 39,
                    "time": 105.28174799999994,
                    "velocity": 0.2677165354330709,
                    "duration": 0.09969862500000204
                },
                {
                    "name": "A#2",
                    "midi": 46,
                    "time": 105.28174799999994,
                    "velocity": 0.31496062992125984,
                    "duration": 0.09969862500000204
                },
                {
                    "name": "G3",
                    "midi": 55,
                    "time": 105.54761099999993,
                    "velocity": 0.25984251968503935,
                    "duration": 0.09969862500000204
                },
                {
                    "name": "F3",
                    "midi": 53,
                    "time": 105.54761099999993,
                    "velocity": 0.2204724409448819,
                    "duration": 0.09969862500000204
                },
                {
                    "name": "A#2",
                    "midi": 46,
                    "time": 105.81347399999993,
                    "velocity": 0.3700787401574803,
                    "duration": 0.09969862500000204
                },
                {
                    "name": "D#2",
                    "midi": 39,
                    "time": 105.81347399999993,
                    "velocity": 0.30708661417322836,
                    "duration": 0.09969862500000204
                },
                {
                    "name": "F3",
                    "midi": 53,
                    "time": 106.07933699999992,
                    "velocity": 0.2677165354330709,
                    "duration": 0.09969862500000204
                },
                {
                    "name": "G3",
                    "midi": 55,
                    "time": 106.07933699999992,
                    "velocity": 0.3228346456692913,
                    "duration": 0.09969862500000204
                },
                {
                    "name": "A#2",
                    "midi": 46,
                    "time": 106.34519999999992,
                    "velocity": 0.3937007874015748,
                    "duration": 0.09969862500000204
                },
                {
                    "name": "D#2",
                    "midi": 39,
                    "time": 106.34519999999992,
                    "velocity": 0.33070866141732286,
                    "duration": 0.09969862500000204
                },
                {
                    "name": "F3",
                    "midi": 53,
                    "time": 106.61106299999992,
                    "velocity": 0.2677165354330709,
                    "duration": 0.09969862500000204
                },
                {
                    "name": "G3",
                    "midi": 55,
                    "time": 106.61106299999992,
                    "velocity": 0.31496062992125984,
                    "duration": 0.09969862500000204
                },
                {
                    "name": "A#2",
                    "midi": 46,
                    "time": 106.87692599999991,
                    "velocity": 0.33858267716535434,
                    "duration": 0.09969862500000204
                },
                {
                    "name": "D#2",
                    "midi": 39,
                    "time": 106.87692599999991,
                    "velocity": 0.28346456692913385,
                    "duration": 0.09969862500000204
                },
                {
                    "name": "F3",
                    "midi": 53,
                    "time": 107.14278899999991,
                    "velocity": 0.2283464566929134,
                    "duration": 0.09969862500000204
                },
                {
                    "name": "G3",
                    "midi": 55,
                    "time": 107.14278899999991,
                    "velocity": 0.2755905511811024,
                    "duration": 0.09969862500000204
                },
                {
                    "name": "F#2",
                    "midi": 42,
                    "time": 107.4086519999999,
                    "velocity": 0.2677165354330709,
                    "duration": 0.09969862500000204
                },
                {
                    "name": "C#3",
                    "midi": 49,
                    "time": 107.4086519999999,
                    "velocity": 0.31496062992125984,
                    "duration": 0.09969862500000204
                },
                {
                    "name": "C#3",
                    "midi": 49,
                    "time": 107.6745149999999,
                    "velocity": 0.2204724409448819,
                    "duration": 0.0664657500000061
                },
                {
                    "name": "G#3",
                    "midi": 56,
                    "time": 107.6745149999999,
                    "velocity": 0.25984251968503935,
                    "duration": 0.09969862500000204
                },
                {
                    "name": "F#3",
                    "midi": 54,
                    "time": 107.6745149999999,
                    "velocity": 0.2204724409448819,
                    "duration": 0.09969862500000204
                },
                {
                    "name": "F#2",
                    "midi": 42,
                    "time": 107.9403779999999,
                    "velocity": 0.2677165354330709,
                    "duration": 0.09969862500000204
                },
                {
                    "name": "C#3",
                    "midi": 49,
                    "time": 107.9403779999999,
                    "velocity": 0.31496062992125984,
                    "duration": 0.09969862500000204
                },
                {
                    "name": "C#3",
                    "midi": 49,
                    "time": 108.20624099999989,
                    "velocity": 0.2283464566929134,
                    "duration": 0.0664657500000061
                },
                {
                    "name": "A3",
                    "midi": 57,
                    "time": 108.20624099999989,
                    "velocity": 0.2755905511811024,
                    "duration": 0.09969862500000204
                },
                {
                    "name": "F#3",
                    "midi": 54,
                    "time": 108.20624099999989,
                    "velocity": 0.2283464566929134,
                    "duration": 0.09969862500000204
                },
                {
                    "name": "C#3",
                    "midi": 49,
                    "time": 108.47210399999989,
                    "velocity": 0.33858267716535434,
                    "duration": 0.09969862500000204
                },
                {
                    "name": "F#2",
                    "midi": 42,
                    "time": 108.47210399999989,
                    "velocity": 0.28346456692913385,
                    "duration": 0.09969862500000204
                },
                {
                    "name": "F#3",
                    "midi": 54,
                    "time": 108.73796699999988,
                    "velocity": 0.2440944881889764,
                    "duration": 0.09969862500000204
                },
                {
                    "name": "A#3",
                    "midi": 58,
                    "time": 108.73796699999988,
                    "velocity": 0.29133858267716534,
                    "duration": 0.09969862500000204
                },
                {
                    "name": "C#3",
                    "midi": 49,
                    "time": 108.73796699999988,
                    "velocity": 0.2440944881889764,
                    "duration": 0.0664657500000061
                },
                {
                    "name": "C#3",
                    "midi": 49,
                    "time": 109.00382999999988,
                    "velocity": 0.3543307086614173,
                    "duration": 0.09969862500000204
                },
                {
                    "name": "F#2",
                    "midi": 42,
                    "time": 109.00382999999988,
                    "velocity": 0.2992125984251969,
                    "duration": 0.09969862500000204
                },
                {
                    "name": "F#3",
                    "midi": 54,
                    "time": 109.26969299999988,
                    "velocity": 0.2755905511811024,
                    "duration": 0.09969862500000204
                },
                {
                    "name": "B3",
                    "midi": 59,
                    "time": 109.26969299999988,
                    "velocity": 0.33070866141732286,
                    "duration": 0.09969862500000204
                },
                {
                    "name": "C#3",
                    "midi": 49,
                    "time": 109.26969299999988,
                    "velocity": 0.2755905511811024,
                    "duration": 0.0664657500000061
                },
                {
                    "name": "E4",
                    "midi": 64,
                    "time": 109.80141899999988,
                    "velocity": 0.5275590551181102,
                    "duration": 0.13293149999999798
                },
                {
                    "name": "C#4",
                    "midi": 61,
                    "time": 109.80141899999988,
                    "velocity": 0.33070866141732286,
                    "duration": 0.09969862500000204
                },
                {
                    "name": "C4",
                    "midi": 60,
                    "time": 110.06728199999988,
                    "velocity": 0.44881889763779526,
                    "duration": 0.26586299999999596
                },
                {
                    "name": "D#4",
                    "midi": 63,
                    "time": 110.06728199999988,
                    "velocity": 0.5039370078740157,
                    "duration": 0.26586299999999596
                },
                {
                    "name": "D#4",
                    "midi": 63,
                    "time": 110.33314499999987,
                    "velocity": 0.4566929133858268,
                    "duration": 0.09969862500000204
                },
                {
                    "name": "A3",
                    "midi": 57,
                    "time": 110.33314499999987,
                    "velocity": 0.3858267716535433,
                    "duration": 0.09969862500000204
                },
                {
                    "name": "F3",
                    "midi": 53,
                    "time": 110.33314499999987,
                    "velocity": 0.3858267716535433,
                    "duration": 0.0664657500000061
                },
                {
                    "name": "F3",
                    "midi": 53,
                    "time": 110.59900799999987,
                    "velocity": 0.4881889763779528,
                    "duration": 0.26586299999999596
                },
                {
                    "name": "A#3",
                    "midi": 58,
                    "time": 110.59900799999987,
                    "velocity": 0.5748031496062992,
                    "duration": 0.26586299999999596
                },
                {
                    "name": "A#2",
                    "midi": 46,
                    "time": 110.59900799999987,
                    "velocity": 0.4881889763779528,
                    "duration": 0.26586299999999596
                },
                {
                    "name": "A#1",
                    "midi": 34,
                    "time": 111.13073399999986,
                    "velocity": 0.47244094488188976,
                    "duration": 0.26586299999999596
                },
                {
                    "name": "A#2",
                    "midi": 46,
                    "time": 111.13073399999986,
                    "velocity": 0.5590551181102362,
                    "duration": 0.26586299999999596
                },
                {
                    "name": "G#3",
                    "midi": 56,
                    "time": 111.66245999999985,
                    "velocity": 0.31496062992125984,
                    "duration": 0.09969862500000204
                },
                {
                    "name": "A#3",
                    "midi": 58,
                    "time": 111.66245999999985,
                    "velocity": 0.31496062992125984,
                    "duration": 0.09969862500000204
                },
                {
                    "name": "A#4",
                    "midi": 70,
                    "time": 111.92832299999985,
                    "velocity": 0.25984251968503935,
                    "duration": 0.09969862500000204
                },
                {
                    "name": "G#4",
                    "midi": 68,
                    "time": 111.92832299999985,
                    "velocity": 0.25984251968503935,
                    "duration": 0.09969862500000204
                },
                {
                    "name": "G#3",
                    "midi": 56,
                    "time": 112.19418599999985,
                    "velocity": 0.31496062992125984,
                    "duration": 0.09969862500000204
                },
                {
                    "name": "A#3",
                    "midi": 58,
                    "time": 112.19418599999985,
                    "velocity": 0.31496062992125984,
                    "duration": 0.09969862500000204
                },
                {
                    "name": "A#4",
                    "midi": 70,
                    "time": 112.46004899999984,
                    "velocity": 0.2755905511811024,
                    "duration": 0.09969862500000204
                },
                {
                    "name": "G#4",
                    "midi": 68,
                    "time": 112.46004899999984,
                    "velocity": 0.2755905511811024,
                    "duration": 0.09969862500000204
                },
                {
                    "name": "G#3",
                    "midi": 56,
                    "time": 112.72591199999984,
                    "velocity": 0.31496062992125984,
                    "duration": 0.09969862500000204
                },
                {
                    "name": "A#3",
                    "midi": 58,
                    "time": 112.72591199999984,
                    "velocity": 0.31496062992125984,
                    "duration": 0.09969862500000204
                },
                {
                    "name": "A#4",
                    "midi": 70,
                    "time": 112.99177499999983,
                    "velocity": 0.25984251968503935,
                    "duration": 0.09969862500000204
                },
                {
                    "name": "G#4",
                    "midi": 68,
                    "time": 112.99177499999983,
                    "velocity": 0.25984251968503935,
                    "duration": 0.09969862500000204
                },
                {
                    "name": "G#3",
                    "midi": 56,
                    "time": 113.25763799999983,
                    "velocity": 0.31496062992125984,
                    "duration": 0.09969862500000204
                },
                {
                    "name": "A#3",
                    "midi": 58,
                    "time": 113.25763799999983,
                    "velocity": 0.31496062992125984,
                    "duration": 0.09969862500000204
                },
                {
                    "name": "A#4",
                    "midi": 70,
                    "time": 113.52350099999983,
                    "velocity": 0.2755905511811024,
                    "duration": 0.09969862500000204
                },
                {
                    "name": "G#4",
                    "midi": 68,
                    "time": 113.52350099999983,
                    "velocity": 0.2755905511811024,
                    "duration": 0.09969862500000204
                },
                {
                    "name": "G3",
                    "midi": 55,
                    "time": 113.78936399999982,
                    "velocity": 0.31496062992125984,
                    "duration": 0.09969862500000204
                },
                {
                    "name": "A#3",
                    "midi": 58,
                    "time": 113.78936399999982,
                    "velocity": 0.31496062992125984,
                    "duration": 0.09969862500000204
                },
                {
                    "name": "A#4",
                    "midi": 70,
                    "time": 114.05522699999982,
                    "velocity": 0.25984251968503935,
                    "duration": 0.09969862500000204
                },
                {
                    "name": "G3",
                    "midi": 55,
                    "time": 114.32108999999981,
                    "velocity": 0.31496062992125984,
                    "duration": 0.09969862500000204
                },
                {
                    "name": "A#3",
                    "midi": 58,
                    "time": 114.32108999999981,
                    "velocity": 0.31496062992125984,
                    "duration": 0.09969862500000204
                },
                {
                    "name": "A#4",
                    "midi": 70,
                    "time": 114.58695299999981,
                    "velocity": 0.2755905511811024,
                    "duration": 0.09969862500000204
                },
                {
                    "name": "G3",
                    "midi": 55,
                    "time": 114.8528159999998,
                    "velocity": 0.31496062992125984,
                    "duration": 0.13293149999999798
                },
                {
                    "name": "A#3",
                    "midi": 58,
                    "time": 114.8528159999998,
                    "velocity": 0.31496062992125984,
                    "duration": 0.13293149999999798
                },
                {
                    "name": "A#4",
                    "midi": 70,
                    "time": 115.1186789999998,
                    "velocity": 0.25984251968503935,
                    "duration": 0.09969862500000204
                },
                {
                    "name": "G3",
                    "midi": 55,
                    "time": 115.3845419999998,
                    "velocity": 0.31496062992125984,
                    "duration": 0.26586299999999596
                },
                {
                    "name": "A#3",
                    "midi": 58,
                    "time": 115.3845419999998,
                    "velocity": 0.31496062992125984,
                    "duration": 0.26586299999999596
                },
                {
                    "name": "D#4",
                    "midi": 63,
                    "time": 115.6504049999998,
                    "velocity": 0.2755905511811024,
                    "duration": 0.09969862500000204
                },
                {
                    "name": "B2",
                    "midi": 47,
                    "time": 115.91626799999979,
                    "velocity": 0.3464566929133858,
                    "duration": 0.13293149999999798
                },
                {
                    "name": "C#3",
                    "midi": 49,
                    "time": 116.04919949999979,
                    "velocity": 0.30708661417322836,
                    "duration": 0.13293149999999798
                },
                {
                    "name": "D#3",
                    "midi": 51,
                    "time": 116.31506249999978,
                    "velocity": 0.30708661417322836,
                    "duration": 0.13293149999999798
                },
                {
                    "name": "C#3",
                    "midi": 49,
                    "time": 116.44799399999978,
                    "velocity": 0.3464566929133858,
                    "duration": 0.13293149999999798
                },
                {
                    "name": "B2",
                    "midi": 47,
                    "time": 116.71385699999978,
                    "velocity": 0.29133858267716534,
                    "duration": 0.09969862500000204
                },
                {
                    "name": "A#2",
                    "midi": 46,
                    "time": 116.97971999999977,
                    "velocity": 0.3464566929133858,
                    "duration": 0.13293149999999798
                },
                {
                    "name": "C3",
                    "midi": 48,
                    "time": 117.11265149999977,
                    "velocity": 0.30708661417322836,
                    "duration": 0.13293149999999798
                },
                {
                    "name": "D3",
                    "midi": 50,
                    "time": 117.37851449999977,
                    "velocity": 0.30708661417322836,
                    "duration": 0.13293149999999798
                },
                {
                    "name": "C3",
                    "midi": 48,
                    "time": 117.51144599999976,
                    "velocity": 0.3464566929133858,
                    "duration": 0.13293149999999798
                },
                {
                    "name": "A#2",
                    "midi": 46,
                    "time": 117.77730899999976,
                    "velocity": 0.29133858267716534,
                    "duration": 0.09969862500000204
                },
                {
                    "name": "A#2",
                    "midi": 46,
                    "time": 118.04317199999976,
                    "velocity": 0.29133858267716534,
                    "duration": 0.13293149999999798
                },
                {
                    "name": "C3",
                    "midi": 48,
                    "time": 118.17610349999975,
                    "velocity": 0.25984251968503935,
                    "duration": 0.13293149999999798
                },
                {
                    "name": "D3",
                    "midi": 50,
                    "time": 118.44196649999975,
                    "velocity": 0.25984251968503935,
                    "duration": 0.13293149999999798
                },
                {
                    "name": "C3",
                    "midi": 48,
                    "time": 118.57489799999975,
                    "velocity": 0.29133858267716534,
                    "duration": 0.13293149999999798
                },
                {
                    "name": "A#2",
                    "midi": 46,
                    "time": 118.84076099999974,
                    "velocity": 0.2440944881889764,
                    "duration": 0.09969862500000204
                },
                {
                    "name": "A#2",
                    "midi": 46,
                    "time": 119.23955549999975,
                    "velocity": 0.5511811023622047,
                    "duration": 0.13293149999999798
                },
                {
                    "name": "A#1",
                    "midi": 34,
                    "time": 119.23955549999975,
                    "velocity": 0.5511811023622047,
                    "duration": 0.13293149999999798
                },
                {
                    "name": "C2",
                    "midi": 36,
                    "time": 119.37248699999975,
                    "velocity": 0.5511811023622047,
                    "duration": 0.13293149999999798
                },
                {
                    "name": "D2",
                    "midi": 38,
                    "time": 119.50541849999975,
                    "velocity": 0.5748031496062992,
                    "duration": 0.13293149999999798
                },
                {
                    "name": "C2",
                    "midi": 36,
                    "time": 119.63834999999975,
                    "velocity": 0.6141732283464567,
                    "duration": 0.13293149999999798
                },
                {
                    "name": "A#0",
                    "midi": 22,
                    "time": 119.90421299999974,
                    "velocity": 0.5826771653543307,
                    "duration": 0.09969862500000204
                },
                {
                    "name": "A#1",
                    "midi": 34,
                    "time": 119.90421299999974,
                    "velocity": 0.6535433070866141,
                    "duration": 0.09969862500000204
                },
                {
                    "name": "G#3",
                    "midi": 56,
                    "time": 120.17007599999974,
                    "velocity": 0.31496062992125984,
                    "duration": 0.09969862500000204
                },
                {
                    "name": "A#3",
                    "midi": 58,
                    "time": 120.17007599999974,
                    "velocity": 0.31496062992125984,
                    "duration": 0.09969862500000204
                },
                {
                    "name": "A#4",
                    "midi": 70,
                    "time": 120.43593899999973,
                    "velocity": 0.25984251968503935,
                    "duration": 0.09969862500000204
                },
                {
                    "name": "G#4",
                    "midi": 68,
                    "time": 120.43593899999973,
                    "velocity": 0.25984251968503935,
                    "duration": 0.09969862500000204
                },
                {
                    "name": "G#3",
                    "midi": 56,
                    "time": 120.70180199999973,
                    "velocity": 0.31496062992125984,
                    "duration": 0.09969862500000204
                },
                {
                    "name": "A#3",
                    "midi": 58,
                    "time": 120.70180199999973,
                    "velocity": 0.31496062992125984,
                    "duration": 0.09969862500000204
                },
                {
                    "name": "A#4",
                    "midi": 70,
                    "time": 120.96766499999973,
                    "velocity": 0.2755905511811024,
                    "duration": 0.09969862500000204
                },
                {
                    "name": "G#4",
                    "midi": 68,
                    "time": 120.96766499999973,
                    "velocity": 0.2755905511811024,
                    "duration": 0.09969862500000204
                },
                {
                    "name": "G#3",
                    "midi": 56,
                    "time": 121.23352799999972,
                    "velocity": 0.31496062992125984,
                    "duration": 0.09969862500000204
                },
                {
                    "name": "A#3",
                    "midi": 58,
                    "time": 121.23352799999972,
                    "velocity": 0.31496062992125984,
                    "duration": 0.09969862500000204
                },
                {
                    "name": "A#4",
                    "midi": 70,
                    "time": 121.49939099999972,
                    "velocity": 0.25984251968503935,
                    "duration": 0.09969862500000204
                },
                {
                    "name": "G#4",
                    "midi": 68,
                    "time": 121.49939099999972,
                    "velocity": 0.25984251968503935,
                    "duration": 0.09969862500000204
                },
                {
                    "name": "G#3",
                    "midi": 56,
                    "time": 121.76525399999971,
                    "velocity": 0.31496062992125984,
                    "duration": 0.09969862500000204
                },
                {
                    "name": "A#3",
                    "midi": 58,
                    "time": 121.76525399999971,
                    "velocity": 0.31496062992125984,
                    "duration": 0.09969862500000204
                },
                {
                    "name": "A#4",
                    "midi": 70,
                    "time": 122.03111699999971,
                    "velocity": 0.2755905511811024,
                    "duration": 0.09969862500000204
                },
                {
                    "name": "G#4",
                    "midi": 68,
                    "time": 122.03111699999971,
                    "velocity": 0.2755905511811024,
                    "duration": 0.09969862500000204
                },
                {
                    "name": "G3",
                    "midi": 55,
                    "time": 122.2969799999997,
                    "velocity": 0.31496062992125984,
                    "duration": 0.09969862500000204
                },
                {
                    "name": "A#3",
                    "midi": 58,
                    "time": 122.2969799999997,
                    "velocity": 0.31496062992125984,
                    "duration": 0.09969862500000204
                },
                {
                    "name": "G4",
                    "midi": 67,
                    "time": 122.5628429999997,
                    "velocity": 0.25984251968503935,
                    "duration": 0.09969862500000204
                },
                {
                    "name": "A#4",
                    "midi": 70,
                    "time": 122.5628429999997,
                    "velocity": 0.25984251968503935,
                    "duration": 0.09969862500000204
                },
                {
                    "name": "G3",
                    "midi": 55,
                    "time": 122.8287059999997,
                    "velocity": 0.31496062992125984,
                    "duration": 0.09969862500000204
                },
                {
                    "name": "A#3",
                    "midi": 58,
                    "time": 122.8287059999997,
                    "velocity": 0.31496062992125984,
                    "duration": 0.09969862500000204
                },
                {
                    "name": "G4",
                    "midi": 67,
                    "time": 123.0945689999997,
                    "velocity": 0.25984251968503935,
                    "duration": 0.09969862500000204
                },
                {
                    "name": "A#4",
                    "midi": 70,
                    "time": 123.0945689999997,
                    "velocity": 0.2755905511811024,
                    "duration": 0.09969862500000204
                },
                {
                    "name": "G3",
                    "midi": 55,
                    "time": 123.36043199999969,
                    "velocity": 0.31496062992125984,
                    "duration": 0.13293149999999798
                },
                {
                    "name": "A#3",
                    "midi": 58,
                    "time": 123.36043199999969,
                    "velocity": 0.31496062992125984,
                    "duration": 0.13293149999999798
                },
                {
                    "name": "G4",
                    "midi": 67,
                    "time": 123.62629499999969,
                    "velocity": 0.25984251968503935,
                    "duration": 0.09969862500000204
                },
                {
                    "name": "A#4",
                    "midi": 70,
                    "time": 123.62629499999969,
                    "velocity": 0.25984251968503935,
                    "duration": 0.09969862500000204
                },
                {
                    "name": "G3",
                    "midi": 55,
                    "time": 123.89215799999968,
                    "velocity": 0.31496062992125984,
                    "duration": 0.26586299999999596
                },
                {
                    "name": "A#3",
                    "midi": 58,
                    "time": 123.89215799999968,
                    "velocity": 0.31496062992125984,
                    "duration": 0.26586299999999596
                },
                {
                    "name": "D#4",
                    "midi": 63,
                    "time": 124.15802099999968,
                    "velocity": 0.2755905511811024,
                    "duration": 0.09969862500000204
                },
                {
                    "name": "B3",
                    "midi": 59,
                    "time": 124.42388399999967,
                    "velocity": 0.4015748031496063,
                    "duration": 1.5951779999999758
                },
                {
                    "name": "D#4",
                    "midi": 63,
                    "time": 124.42388399999967,
                    "velocity": 0.4015748031496063,
                    "duration": 1.5951779999999758
                },
                {
                    "name": "A#4",
                    "midi": 70,
                    "time": 124.42388399999967,
                    "velocity": 0.5354330708661418,
                    "duration": 0.13293149999999798
                },
                {
                    "name": "G#4",
                    "midi": 68,
                    "time": 124.55681549999967,
                    "velocity": 0.4881889763779528,
                    "duration": 0.13293149999999798
                },
                {
                    "name": "A#4",
                    "midi": 70,
                    "time": 124.82267849999967,
                    "velocity": 0.4881889763779528,
                    "duration": 0.13293149999999798
                },
                {
                    "name": "F4",
                    "midi": 65,
                    "time": 124.95560999999967,
                    "velocity": 0.5039370078740157,
                    "duration": 0.13293149999999798
                },
                {
                    "name": "A#4",
                    "midi": 70,
                    "time": 125.22147299999966,
                    "velocity": 0.5354330708661418,
                    "duration": 0.09969862500000204
                },
                {
                    "name": "G#4",
                    "midi": 68,
                    "time": 125.48733599999966,
                    "velocity": 0.5354330708661418,
                    "duration": 0.13293149999999798
                },
                {
                    "name": "F4",
                    "midi": 65,
                    "time": 125.62026749999966,
                    "velocity": 0.5354330708661418,
                    "duration": 0.13293149999999798
                },
                {
                    "name": "D#4",
                    "midi": 63,
                    "time": 125.88613049999965,
                    "velocity": 0.4881889763779528,
                    "duration": 0.13293149999999798
                },
                {
                    "name": "B3",
                    "midi": 59,
                    "time": 126.01906199999965,
                    "velocity": 0.5354330708661418,
                    "duration": 0.5317260000000061
                },
                {
                    "name": "G#3",
                    "midi": 56,
                    "time": 126.68371949999965,
                    "velocity": 0.5118110236220472,
                    "duration": 0.13293149999999798
                },
                {
                    "name": "F3",
                    "midi": 53,
                    "time": 126.81665099999965,
                    "velocity": 0.5118110236220472,
                    "duration": 0.13293149999999798
                },
                {
                    "name": "D#3",
                    "midi": 51,
                    "time": 126.94958249999965,
                    "velocity": 0.5275590551181102,
                    "duration": 0.13293149999999798
                },
                {
                    "name": "B2",
                    "midi": 47,
                    "time": 127.08251399999965,
                    "velocity": 0.5590551181102362,
                    "duration": 0.13293149999999798
                },
                {
                    "name": "A#2",
                    "midi": 46,
                    "time": 127.34837699999964,
                    "velocity": 0.6141732283464567,
                    "duration": 0.26586299999999596
                },
                {
                    "name": "A#1",
                    "midi": 34,
                    "time": 127.34837699999964,
                    "velocity": 0.5196850393700787,
                    "duration": 0.26586299999999596
                },
                {
                    "name": "G3",
                    "midi": 55,
                    "time": 127.88010299999964,
                    "velocity": 0.25984251968503935,
                    "duration": 0.09969862500000204
                },
                {
                    "name": "F3",
                    "midi": 53,
                    "time": 127.88010299999964,
                    "velocity": 0.25984251968503935,
                    "duration": 0.09969862500000204
                },
                {
                    "name": "D#2",
                    "midi": 39,
                    "time": 128.14596599999965,
                    "velocity": 0.31496062992125984,
                    "duration": 0.09969862500000204
                },
                {
                    "name": "A#2",
                    "midi": 46,
                    "time": 128.14596599999965,
                    "velocity": 0.31496062992125984,
                    "duration": 0.09969862500000204
                },
                {
                    "name": "G3",
                    "midi": 55,
                    "time": 128.41182899999964,
                    "velocity": 0.25984251968503935,
                    "duration": 0.09969862500000204
                },
                {
                    "name": "F3",
                    "midi": 53,
                    "time": 128.41182899999964,
                    "velocity": 0.25984251968503935,
                    "duration": 0.09969862500000204
                },
                {
                    "name": "D#2",
                    "midi": 39,
                    "time": 128.67769199999964,
                    "velocity": 0.2677165354330709,
                    "duration": 0.5317259999999919
                },
                {
                    "name": "A#2",
                    "midi": 46,
                    "time": 128.67769199999964,
                    "velocity": 0.31496062992125984,
                    "duration": 0.5317259999999919
                },
                {
                    "name": "G3",
                    "midi": 55,
                    "time": 130.00700699999962,
                    "velocity": 0.2125984251968504,
                    "duration": 0.09969862500000204
                },
                {
                    "name": "F3",
                    "midi": 53,
                    "time": 130.00700699999962,
                    "velocity": 0.2125984251968504,
                    "duration": 0.09969862500000204
                },
                {
                    "name": "D#2",
                    "midi": 39,
                    "time": 130.2728699999996,
                    "velocity": 0.25196850393700787,
                    "duration": 0.09969862500000204
                },
                {
                    "name": "A#2",
                    "midi": 46,
                    "time": 130.2728699999996,
                    "velocity": 0.25196850393700787,
                    "duration": 0.09969862500000204
                },
                {
                    "name": "G3",
                    "midi": 55,
                    "time": 130.5387329999996,
                    "velocity": 0.1889763779527559,
                    "duration": 0.09969862500000204
                },
                {
                    "name": "F3",
                    "midi": 53,
                    "time": 130.5387329999996,
                    "velocity": 0.1889763779527559,
                    "duration": 0.09969862500000204
                },
                {
                    "name": "D#2",
                    "midi": 39,
                    "time": 130.8045959999996,
                    "velocity": 0.1889763779527559,
                    "duration": 0.5317259999999919
                },
                {
                    "name": "A#2",
                    "midi": 46,
                    "time": 130.8045959999996,
                    "velocity": 0.2204724409448819,
                    "duration": 0.5317259999999919
                },
                {
                    "name": "G3",
                    "midi": 55,
                    "time": 132.13391099999959,
                    "velocity": 0.1732283464566929,
                    "duration": 0.09969862500000204
                },
                {
                    "name": "F3",
                    "midi": 53,
                    "time": 132.13391099999959,
                    "velocity": 0.1732283464566929,
                    "duration": 0.09969862500000204
                },
                {
                    "name": "D#2",
                    "midi": 39,
                    "time": 132.39977399999958,
                    "velocity": 0.2125984251968504,
                    "duration": 0.09969862500000204
                },
                {
                    "name": "A#2",
                    "midi": 46,
                    "time": 132.39977399999958,
                    "velocity": 0.2125984251968504,
                    "duration": 0.09969862500000204
                },
                {
                    "name": "G3",
                    "midi": 55,
                    "time": 132.66563699999958,
                    "velocity": 0.16535433070866143,
                    "duration": 0.09969862500000204
                },
                {
                    "name": "F3",
                    "midi": 53,
                    "time": 132.66563699999958,
                    "velocity": 0.16535433070866143,
                    "duration": 0.09969862500000204
                },
                {
                    "name": "B1",
                    "midi": 35,
                    "time": 133.46322599999957,
                    "velocity": 0.4645669291338583,
                    "duration": 0.26586299999999596
                },
                {
                    "name": "A#1",
                    "midi": 34,
                    "time": 133.72908899999956,
                    "velocity": 0.49606299212598426,
                    "duration": 0.07311232499998255
                },
                {
                    "name": "G#1",
                    "midi": 32,
                    "time": 133.79555474999955,
                    "velocity": 0.5118110236220472,
                    "duration": 0.07311232499998255
                },
                {
                    "name": "G1",
                    "midi": 31,
                    "time": 133.86202049999955,
                    "velocity": 0.5275590551181102,
                    "duration": 0.07311232499998255
                },
                {
                    "name": "F1",
                    "midi": 29,
                    "time": 133.92848624999954,
                    "velocity": 0.5354330708661418,
                    "duration": 0.07311232499998255
                },
                {
                    "name": "D#1",
                    "midi": 27,
                    "time": 133.99495199999953,
                    "velocity": 0.48031496062992124,
                    "duration": 0.26586299999999596
                },
                {
                    "name": "D#2",
                    "midi": 39,
                    "time": 133.99495199999953,
                    "velocity": 0.5669291338582677,
                    "duration": 0.26586299999999596
                },
                {
                    "name": "D#1",
                    "midi": 27,
                    "time": 135.0584039999995,
                    "velocity": 0.4881889763779528,
                    "duration": 0.26586299999999596
                },
                {
                    "name": "D#2",
                    "midi": 39,
                    "time": 135.0584039999995,
                    "velocity": 0.5826771653543307,
                    "duration": 0.26586299999999596
                }
            ],
            "controlChanges": {},
            "id": 2,
            "name": "Piano left",
            "instrumentNumber": 0,
            "instrument": "acoustic grand piano",
            "instrumentFamily": "piano",
            "channelNumber": 0,
            "isPercussion": false
        },
        {
            "startTime": 0,
            "duration": 0,
            "length": 0,
            "notes": [],
            "controlChanges": {
                "64": [
                    {
                        "number": 64,
                        "time": 2.4005213375000003,
                        "value": 1
                    },
                    {
                        "number": 64,
                        "time": 2.6807852500000005,
                        "value": 0
                    },
                    {
                        "number": 64,
                        "time": 3.4872363500000003,
                        "value": 1
                    },
                    {
                        "number": 64,
                        "time": 3.7386984375,
                        "value": 0
                    },
                    {
                        "number": 64,
                        "time": 6.134788725,
                        "value": 1
                    },
                    {
                        "number": 64,
                        "time": 6.380712,
                        "value": 0
                    },
                    {
                        "number": 64,
                        "time": 7.7377210625,
                        "value": 1
                    },
                    {
                        "number": 64,
                        "time": 7.9836443375,
                        "value": 0
                    },
                    {
                        "number": 64,
                        "time": 9.571068,
                        "value": 1
                    },
                    {
                        "number": 64,
                        "time": 9.7117538375,
                        "value": 0
                    },
                    {
                        "number": 64,
                        "time": 9.9886944625,
                        "value": 1
                    },
                    {
                        "number": 64,
                        "time": 10.11608715,
                        "value": 0
                    },
                    {
                        "number": 64,
                        "time": 10.665537350000001,
                        "value": 1
                    },
                    {
                        "number": 64,
                        "time": 10.775205837500001,
                        "value": 0
                    },
                    {
                        "number": 64,
                        "time": 11.076517237500001,
                        "value": 1
                    },
                    {
                        "number": 64,
                        "time": 11.2249574125,
                        "value": 0
                    },
                    {
                        "number": 64,
                        "time": 11.697972,
                        "value": 1
                    },
                    {
                        "number": 64,
                        "time": 12.2440989125,
                        "value": 0
                    },
                    {
                        "number": 64,
                        "time": 13.824876,
                        "value": 1
                    },
                    {
                        "number": 64,
                        "time": 13.9655618375,
                        "value": 0
                    },
                    {
                        "number": 64,
                        "time": 14.2425024625,
                        "value": 1
                    },
                    {
                        "number": 64,
                        "time": 14.36989515,
                        "value": 0
                    },
                    {
                        "number": 64,
                        "time": 14.888328,
                        "value": 1
                    },
                    {
                        "number": 64,
                        "time": 15.029013837499999,
                        "value": 0
                    },
                    {
                        "number": 64,
                        "time": 15.305954462499999,
                        "value": 1
                    },
                    {
                        "number": 64,
                        "time": 15.43334715,
                        "value": 0
                    },
                    {
                        "number": 64,
                        "time": 15.99165945,
                        "value": 1
                    },
                    {
                        "number": 64,
                        "time": 16.1788713125,
                        "value": 0
                    },
                    {
                        "number": 64,
                        "time": 16.4757516625,
                        "value": 1
                    },
                    {
                        "number": 64,
                        "time": 16.600928824999997,
                        "value": 0
                    },
                    {
                        "number": 64,
                        "time": 17.022986337499997,
                        "value": 1
                    },
                    {
                        "number": 64,
                        "time": 17.148163499999995,
                        "value": 0
                    },
                    {
                        "number": 64,
                        "time": 17.328728787499994,
                        "value": 1
                    },
                    {
                        "number": 64,
                        "time": 17.437289512499994,
                        "value": 0
                    },
                    {
                        "number": 64,
                        "time": 17.633363474999996,
                        "value": 1
                    },
                    {
                        "number": 64,
                        "time": 17.719768949999995,
                        "value": 0
                    },
                    {
                        "number": 64,
                        "time": 17.883717799999996,
                        "value": 1
                    },
                    {
                        "number": 64,
                        "time": 18.008894962499994,
                        "value": 0
                    },
                    {
                        "number": 64,
                        "time": 18.078683999999996,
                        "value": 1
                    },
                    {
                        "number": 64,
                        "time": 18.219369837499997,
                        "value": 0
                    },
                    {
                        "number": 64,
                        "time": 18.4963104625,
                        "value": 1
                    },
                    {
                        "number": 64,
                        "time": 18.623703149999997,
                        "value": 0
                    },
                    {
                        "number": 64,
                        "time": 19.173153349999996,
                        "value": 1
                    },
                    {
                        "number": 64,
                        "time": 19.282821837499995,
                        "value": 0
                    },
                    {
                        "number": 64,
                        "time": 19.584133237499994,
                        "value": 1
                    },
                    {
                        "number": 64,
                        "time": 19.732573412499995,
                        "value": 0
                    },
                    {
                        "number": 64,
                        "time": 20.205587999999995,
                        "value": 1
                    },
                    {
                        "number": 64,
                        "time": 20.751714912499995,
                        "value": 0
                    },
                    {
                        "number": 64,
                        "time": 22.332491999999995,
                        "value": 1
                    },
                    {
                        "number": 64,
                        "time": 22.473177837499996,
                        "value": 0
                    },
                    {
                        "number": 64,
                        "time": 22.750118462499998,
                        "value": 1
                    },
                    {
                        "number": 64,
                        "time": 22.877511149999997,
                        "value": 0
                    },
                    {
                        "number": 64,
                        "time": 24.459395999999998,
                        "value": 1
                    },
                    {
                        "number": 64,
                        "time": 25.0055229125,
                        "value": 0
                    },
                    {
                        "number": 64,
                        "time": 25.32345075,
                        "value": 1
                    },
                    {
                        "number": 64,
                        "time": 25.522848,
                        "value": 0
                    },
                    {
                        "number": 64,
                        "time": 25.72224525,
                        "value": 1
                    },
                    {
                        "number": 64,
                        "time": 26.320437000000002,
                        "value": 0
                    },
                    {
                        "number": 64,
                        "time": 26.5863,
                        "value": 1
                    },
                    {
                        "number": 64,
                        "time": 26.726985837500003,
                        "value": 0
                    },
                    {
                        "number": 64,
                        "time": 27.003926462500004,
                        "value": 1
                    },
                    {
                        "number": 64,
                        "time": 27.131319150000003,
                        "value": 0
                    },
                    {
                        "number": 64,
                        "time": 27.691846975000004,
                        "value": 1
                    },
                    {
                        "number": 64,
                        "time": 28.048546500000004,
                        "value": 0
                    },
                    {
                        "number": 64,
                        "time": 28.259021375000003,
                        "value": 1
                    },
                    {
                        "number": 64,
                        "time": 28.713204000000005,
                        "value": 0
                    },
                    {
                        "number": 64,
                        "time": 28.782993037500006,
                        "value": 1
                    },
                    {
                        "number": 64,
                        "time": 28.853889837500006,
                        "value": 0
                    },
                    {
                        "number": 64,
                        "time": 29.130830462500008,
                        "value": 1
                    },
                    {
                        "number": 64,
                        "time": 29.258223150000006,
                        "value": 0
                    },
                    {
                        "number": 64,
                        "time": 30.385925375000006,
                        "value": 1
                    },
                    {
                        "number": 64,
                        "time": 30.840108000000008,
                        "value": 0
                    },
                    {
                        "number": 64,
                        "time": 35.09391600000001,
                        "value": 1
                    },
                    {
                        "number": 64,
                        "time": 35.23460183750001,
                        "value": 0
                    },
                    {
                        "number": 64,
                        "time": 35.51154246250001,
                        "value": 1
                    },
                    {
                        "number": 64,
                        "time": 35.63893515000001,
                        "value": 0
                    },
                    {
                        "number": 64,
                        "time": 36.19946297500001,
                        "value": 1
                    },
                    {
                        "number": 64,
                        "time": 36.55616250000001,
                        "value": 0
                    },
                    {
                        "number": 64,
                        "time": 36.766637375000016,
                        "value": 1
                    },
                    {
                        "number": 64,
                        "time": 37.22082000000002,
                        "value": 0
                    },
                    {
                        "number": 64,
                        "time": 37.29060903750002,
                        "value": 1
                    },
                    {
                        "number": 64,
                        "time": 37.36150583750002,
                        "value": 0
                    },
                    {
                        "number": 64,
                        "time": 37.63844646250002,
                        "value": 1
                    },
                    {
                        "number": 64,
                        "time": 37.76583915000002,
                        "value": 0
                    },
                    {
                        "number": 64,
                        "time": 38.89354137500002,
                        "value": 1
                    },
                    {
                        "number": 64,
                        "time": 39.34772400000002,
                        "value": 0
                    },
                    {
                        "number": 64,
                        "time": 41.77150835000002,
                        "value": 1
                    },
                    {
                        "number": 64,
                        "time": 42.02297043750002,
                        "value": 0
                    },
                    {
                        "number": 64,
                        "time": 42.53808000000002,
                        "value": 0
                    },
                    {
                        "number": 64,
                        "time": 43.60153200000002,
                        "value": 1
                    },
                    {
                        "number": 64,
                        "time": 44.13325800000002,
                        "value": 0
                    },
                    {
                        "number": 64,
                        "time": 44.66498400000002,
                        "value": 0
                    },
                    {
                        "number": 64,
                        "time": 45.728436000000016,
                        "value": 1
                    },
                    {
                        "number": 64,
                        "time": 46.260162000000015,
                        "value": 0
                    },
                    {
                        "number": 64,
                        "time": 46.791888000000014,
                        "value": 0
                    },
                    {
                        "number": 64,
                        "time": 47.85534000000001,
                        "value": 1
                    },
                    {
                        "number": 64,
                        "time": 48.38706600000001,
                        "value": 0
                    },
                    {
                        "number": 64,
                        "time": 64.43300581250001,
                        "value": 1
                    },
                    {
                        "number": 64,
                        "time": 64.61910991250001,
                        "value": 0
                    },
                    {
                        "number": 64,
                        "time": 64.72988616250001,
                        "value": 1
                    },
                    {
                        "number": 64,
                        "time": 64.88386515,
                        "value": 0
                    },
                    {
                        "number": 64,
                        "time": 64.959193,
                        "value": 1
                    },
                    {
                        "number": 64,
                        "time": 65.1596980125,
                        "value": 0
                    },
                    {
                        "number": 64,
                        "time": 65.2638276875,
                        "value": 1
                    },
                    {
                        "number": 64,
                        "time": 65.4277765375,
                        "value": 0
                    },
                    {
                        "number": 64,
                        "time": 65.55406146249999,
                        "value": 1
                    },
                    {
                        "number": 64,
                        "time": 65.68256191249999,
                        "value": 0
                    },
                    {
                        "number": 64,
                        "time": 65.77007515,
                        "value": 1
                    },
                    {
                        "number": 64,
                        "time": 65.9428861,
                        "value": 0
                    },
                    {
                        "number": 64,
                        "time": 68.68681381249999,
                        "value": 1
                    },
                    {
                        "number": 64,
                        "time": 69.9363699125,
                        "value": 0
                    },
                    {
                        "number": 64,
                        "time": 70.02388315,
                        "value": 1
                    },
                    {
                        "number": 64,
                        "time": 70.1966941,
                        "value": 0
                    },
                    {
                        "number": 64,
                        "time": 70.4093845,
                        "value": 1
                    },
                    {
                        "number": 64,
                        "time": 70.4891434,
                        "value": 0
                    },
                    {
                        "number": 64,
                        "time": 70.681894075,
                        "value": 1
                    },
                    {
                        "number": 64,
                        "time": 70.7516831125,
                        "value": 0
                    },
                    {
                        "number": 64,
                        "time": 70.92892511250001,
                        "value": 1
                    },
                    {
                        "number": 64,
                        "time": 71.09287396250001,
                        "value": 0
                    },
                    {
                        "number": 64,
                        "time": 71.46397440000001,
                        "value": 1
                    },
                    {
                        "number": 64,
                        "time": 71.53376343750001,
                        "value": 0
                    },
                    {
                        "number": 64,
                        "time": 71.72983740000001,
                        "value": 1
                    },
                    {
                        "number": 64,
                        "time": 71.80516525,
                        "value": 0
                    },
                    {
                        "number": 64,
                        "time": 71.99237711250001,
                        "value": 1
                    },
                    {
                        "number": 64,
                        "time": 72.08099811250001,
                        "value": 0
                    },
                    {
                        "number": 64,
                        "time": 73.44465375000001,
                        "value": 1
                    },
                    {
                        "number": 64,
                        "time": 74.19017791250002,
                        "value": 0
                    },
                    {
                        "number": 64,
                        "time": 74.27769115000002,
                        "value": 1
                    },
                    {
                        "number": 64,
                        "time": 74.44164000000002,
                        "value": 0
                    },
                    {
                        "number": 64,
                        "time": 74.52029113750002,
                        "value": 1
                    },
                    {
                        "number": 64,
                        "time": 74.98112033750003,
                        "value": 0
                    },
                    {
                        "number": 64,
                        "time": 75.06752581250004,
                        "value": 1
                    },
                    {
                        "number": 64,
                        "time": 75.50509200000003,
                        "value": 0
                    },
                    {
                        "number": 64,
                        "time": 75.58374313750004,
                        "value": 1
                    },
                    {
                        "number": 64,
                        "time": 76.04457233750004,
                        "value": 0
                    },
                    {
                        "number": 64,
                        "time": 76.13097781250005,
                        "value": 1
                    },
                    {
                        "number": 64,
                        "time": 76.56854400000005,
                        "value": 0
                    },
                    {
                        "number": 64,
                        "time": 77.19442981250005,
                        "value": 1
                    },
                    {
                        "number": 64,
                        "time": 77.38053391250004,
                        "value": 0
                    },
                    {
                        "number": 64,
                        "time": 77.49131016250004,
                        "value": 1
                    },
                    {
                        "number": 64,
                        "time": 77.64528915000004,
                        "value": 0
                    },
                    {
                        "number": 64,
                        "time": 77.72061700000003,
                        "value": 1
                    },
                    {
                        "number": 64,
                        "time": 77.92112201250004,
                        "value": 0
                    },
                    {
                        "number": 64,
                        "time": 78.02525168750003,
                        "value": 1
                    },
                    {
                        "number": 64,
                        "time": 78.18920053750003,
                        "value": 0
                    },
                    {
                        "number": 64,
                        "time": 78.31548546250002,
                        "value": 1
                    },
                    {
                        "number": 64,
                        "time": 78.44398591250003,
                        "value": 0
                    },
                    {
                        "number": 64,
                        "time": 78.53149915000003,
                        "value": 1
                    },
                    {
                        "number": 64,
                        "time": 78.70431010000003,
                        "value": 0
                    },
                    {
                        "number": 64,
                        "time": 80.38478581250003,
                        "value": 1
                    },
                    {
                        "number": 64,
                        "time": 80.57088991250002,
                        "value": 0
                    },
                    {
                        "number": 64,
                        "time": 80.68166616250002,
                        "value": 1
                    },
                    {
                        "number": 64,
                        "time": 80.83564515000002,
                        "value": 0
                    },
                    {
                        "number": 64,
                        "time": 80.91097300000001,
                        "value": 1
                    },
                    {
                        "number": 64,
                        "time": 81.11147801250002,
                        "value": 0
                    },
                    {
                        "number": 64,
                        "time": 81.21560768750001,
                        "value": 1
                    },
                    {
                        "number": 64,
                        "time": 81.37955653750001,
                        "value": 0
                    },
                    {
                        "number": 64,
                        "time": 81.5058414625,
                        "value": 1
                    },
                    {
                        "number": 64,
                        "time": 81.6343419125,
                        "value": 0
                    },
                    {
                        "number": 64,
                        "time": 81.72185515000001,
                        "value": 1
                    },
                    {
                        "number": 64,
                        "time": 81.89466610000001,
                        "value": 0
                    },
                    {
                        "number": 64,
                        "time": 82.09517111250001,
                        "value": 1
                    },
                    {
                        "number": 64,
                        "time": 82.25358115000002,
                        "value": 0
                    },
                    {
                        "number": 64,
                        "time": 82.41199118750002,
                        "value": 1
                    },
                    {
                        "number": 64,
                        "time": 82.48399575000002,
                        "value": 0
                    },
                    {
                        "number": 64,
                        "time": 82.65791446250002,
                        "value": 1
                    },
                    {
                        "number": 64,
                        "time": 82.78530715000002,
                        "value": 0
                    },
                    {
                        "number": 64,
                        "time": 84.07917375000002,
                        "value": 1
                    },
                    {
                        "number": 64,
                        "time": 84.82469791250003,
                        "value": 0
                    },
                    {
                        "number": 64,
                        "time": 84.91221115000003,
                        "value": 1
                    },
                    {
                        "number": 64,
                        "time": 85.07616000000003,
                        "value": 0
                    },
                    {
                        "number": 64,
                        "time": 85.15481113750003,
                        "value": 1
                    },
                    {
                        "number": 64,
                        "time": 85.61564033750004,
                        "value": 0
                    },
                    {
                        "number": 64,
                        "time": 85.70204581250005,
                        "value": 1
                    },
                    {
                        "number": 64,
                        "time": 86.13961200000004,
                        "value": 0
                    },
                    {
                        "number": 64,
                        "time": 86.21826313750005,
                        "value": 1
                    },
                    {
                        "number": 64,
                        "time": 86.67909233750005,
                        "value": 0
                    },
                    {
                        "number": 64,
                        "time": 86.76549781250006,
                        "value": 1
                    },
                    {
                        "number": 64,
                        "time": 87.20306400000005,
                        "value": 0
                    },
                    {
                        "number": 64,
                        "time": 87.28946947500006,
                        "value": 1
                    },
                    {
                        "number": 64,
                        "time": 87.61847493750007,
                        "value": 0
                    },
                    {
                        "number": 64,
                        "time": 89.83067665000007,
                        "value": 1
                    },
                    {
                        "number": 64,
                        "time": 90.79221450000007,
                        "value": 0
                    },
                    {
                        "number": 64,
                        "time": 90.89412865000007,
                        "value": 1
                    },
                    {
                        "number": 64,
                        "time": 91.45687200000008,
                        "value": 0
                    },
                    {
                        "number": 64,
                        "time": 91.54327747500008,
                        "value": 1
                    },
                    {
                        "number": 64,
                        "time": 91.87228293750009,
                        "value": 0
                    },
                    {
                        "number": 64,
                        "time": 92.06724913750008,
                        "value": 1
                    },
                    {
                        "number": 64,
                        "time": 92.39957788750009,
                        "value": 0
                    },
                    {
                        "number": 64,
                        "time": 93.01327831250009,
                        "value": 1
                    },
                    {
                        "number": 64,
                        "time": 93.99364812500009,
                        "value": 0
                    },
                    {
                        "number": 64,
                        "time": 94.07673031250009,
                        "value": 1
                    },
                    {
                        "number": 64,
                        "time": 94.64722800000008,
                        "value": 0
                    },
                    {
                        "number": 64,
                        "time": 96.77413200000008,
                        "value": 1
                    },
                    {
                        "number": 64,
                        "time": 97.32025891250008,
                        "value": 0
                    },
                    {
                        "number": 64,
                        "time": 98.90103600000008,
                        "value": 1
                    },
                    {
                        "number": 64,
                        "time": 99.04172183750008,
                        "value": 0
                    },
                    {
                        "number": 64,
                        "time": 99.31866246250007,
                        "value": 1
                    },
                    {
                        "number": 64,
                        "time": 99.44605515000008,
                        "value": 0
                    },
                    {
                        "number": 64,
                        "time": 99.96448800000007,
                        "value": 1
                    },
                    {
                        "number": 64,
                        "time": 100.10517383750008,
                        "value": 0
                    },
                    {
                        "number": 64,
                        "time": 100.38211446250007,
                        "value": 1
                    },
                    {
                        "number": 64,
                        "time": 100.50950715000008,
                        "value": 0
                    },
                    {
                        "number": 64,
                        "time": 101.06781945000007,
                        "value": 1
                    },
                    {
                        "number": 64,
                        "time": 101.25503131250008,
                        "value": 0
                    },
                    {
                        "number": 64,
                        "time": 101.55191166250007,
                        "value": 1
                    },
                    {
                        "number": 64,
                        "time": 101.67708882500007,
                        "value": 0
                    },
                    {
                        "number": 64,
                        "time": 102.09914633750007,
                        "value": 1
                    },
                    {
                        "number": 64,
                        "time": 102.22432350000007,
                        "value": 0
                    },
                    {
                        "number": 64,
                        "time": 102.40488878750007,
                        "value": 1
                    },
                    {
                        "number": 64,
                        "time": 102.51344951250007,
                        "value": 0
                    },
                    {
                        "number": 64,
                        "time": 102.70952347500007,
                        "value": 1
                    },
                    {
                        "number": 64,
                        "time": 102.79592895000008,
                        "value": 0
                    },
                    {
                        "number": 64,
                        "time": 102.95987780000007,
                        "value": 1
                    },
                    {
                        "number": 64,
                        "time": 103.08505496250007,
                        "value": 0
                    },
                    {
                        "number": 64,
                        "time": 103.15484400000007,
                        "value": 1
                    },
                    {
                        "number": 64,
                        "time": 103.29552983750007,
                        "value": 0
                    },
                    {
                        "number": 64,
                        "time": 103.57247046250006,
                        "value": 1
                    },
                    {
                        "number": 64,
                        "time": 103.69986315000007,
                        "value": 0
                    },
                    {
                        "number": 64,
                        "time": 104.24931335000007,
                        "value": 1
                    },
                    {
                        "number": 64,
                        "time": 104.35898183750007,
                        "value": 0
                    },
                    {
                        "number": 64,
                        "time": 104.66029323750007,
                        "value": 1
                    },
                    {
                        "number": 64,
                        "time": 104.80873341250008,
                        "value": 0
                    },
                    {
                        "number": 64,
                        "time": 105.28174800000008,
                        "value": 1
                    },
                    {
                        "number": 64,
                        "time": 105.82787491250008,
                        "value": 0
                    },
                    {
                        "number": 64,
                        "time": 107.40865200000007,
                        "value": 1
                    },
                    {
                        "number": 64,
                        "time": 107.54933783750008,
                        "value": 0
                    },
                    {
                        "number": 64,
                        "time": 107.82627846250007,
                        "value": 1
                    },
                    {
                        "number": 64,
                        "time": 107.95367115000008,
                        "value": 0
                    },
                    {
                        "number": 64,
                        "time": 109.53555600000007,
                        "value": 1
                    },
                    {
                        "number": 64,
                        "time": 110.08168291250007,
                        "value": 0
                    },
                    {
                        "number": 64,
                        "time": 110.39961075000006,
                        "value": 1
                    },
                    {
                        "number": 64,
                        "time": 110.59900800000007,
                        "value": 0
                    },
                    {
                        "number": 64,
                        "time": 110.79840525000007,
                        "value": 1
                    },
                    {
                        "number": 64,
                        "time": 111.39659700000007,
                        "value": 0
                    },
                    {
                        "number": 64,
                        "time": 111.66246000000007,
                        "value": 1
                    },
                    {
                        "number": 64,
                        "time": 111.80314583750007,
                        "value": 0
                    },
                    {
                        "number": 64,
                        "time": 112.08008646250006,
                        "value": 1
                    },
                    {
                        "number": 64,
                        "time": 112.20747915000007,
                        "value": 0
                    },
                    {
                        "number": 64,
                        "time": 112.76800697500006,
                        "value": 1
                    },
                    {
                        "number": 64,
                        "time": 113.12470650000006,
                        "value": 0
                    },
                    {
                        "number": 64,
                        "time": 113.33518137500006,
                        "value": 1
                    },
                    {
                        "number": 64,
                        "time": 113.78936400000006,
                        "value": 0
                    },
                    {
                        "number": 64,
                        "time": 113.85915303750006,
                        "value": 1
                    },
                    {
                        "number": 64,
                        "time": 113.93004983750006,
                        "value": 0
                    },
                    {
                        "number": 64,
                        "time": 114.20699046250006,
                        "value": 1
                    },
                    {
                        "number": 64,
                        "time": 114.33438315000006,
                        "value": 0
                    },
                    {
                        "number": 64,
                        "time": 115.46208537500006,
                        "value": 1
                    },
                    {
                        "number": 64,
                        "time": 115.91626800000006,
                        "value": 0
                    },
                    {
                        "number": 64,
                        "time": 120.17007600000007,
                        "value": 1
                    },
                    {
                        "number": 64,
                        "time": 120.31076183750007,
                        "value": 0
                    },
                    {
                        "number": 64,
                        "time": 120.58770246250006,
                        "value": 1
                    },
                    {
                        "number": 64,
                        "time": 120.71509515000007,
                        "value": 0
                    },
                    {
                        "number": 64,
                        "time": 121.27562297500006,
                        "value": 1
                    },
                    {
                        "number": 64,
                        "time": 121.63232250000006,
                        "value": 0
                    },
                    {
                        "number": 64,
                        "time": 121.84279737500006,
                        "value": 1
                    },
                    {
                        "number": 64,
                        "time": 122.29698000000006,
                        "value": 0
                    },
                    {
                        "number": 64,
                        "time": 122.36676903750006,
                        "value": 1
                    },
                    {
                        "number": 64,
                        "time": 122.43766583750006,
                        "value": 0
                    },
                    {
                        "number": 64,
                        "time": 122.71460646250006,
                        "value": 1
                    },
                    {
                        "number": 64,
                        "time": 122.84199915000006,
                        "value": 0
                    },
                    {
                        "number": 64,
                        "time": 123.96970137500006,
                        "value": 1
                    },
                    {
                        "number": 64,
                        "time": 124.42388400000006,
                        "value": 0
                    },
                    {
                        "number": 64,
                        "time": 126.84766835000006,
                        "value": 1
                    },
                    {
                        "number": 64,
                        "time": 127.09913043750007,
                        "value": 0
                    },
                    {
                        "number": 64,
                        "time": 127.61424000000007,
                        "value": 0
                    },
                    {
                        "number": 64,
                        "time": 128.67769200000006,
                        "value": 1
                    },
                    {
                        "number": 64,
                        "time": 129.20941800000006,
                        "value": 0
                    },
                    {
                        "number": 64,
                        "time": 129.74114400000005,
                        "value": 0
                    },
                    {
                        "number": 64,
                        "time": 130.80459600000006,
                        "value": 1
                    },
                    {
                        "number": 64,
                        "time": 131.33632200000005,
                        "value": 0
                    },
                    {
                        "number": 64,
                        "time": 131.86804800000004,
                        "value": 0
                    },
                    {
                        "number": 64,
                        "time": 134.07360313750004,
                        "value": 1
                    },
                    {
                        "number": 64,
                        "time": 134.26081500000004,
                        "value": 0
                    },
                    {
                        "number": 64,
                        "time": 135.08942135000004,
                        "value": 1
                    },
                    {
                        "number": 64,
                        "time": 135.52809530000005,
                        "value": 0
                    }
                ]
            },
            "id": 3,
            "name": "Pedale",
            "instrumentNumber": 0,
            "instrument": "acoustic grand piano",
            "instrumentFamily": "piano",
            "channelNumber": 0,
            "isPercussion": false
        },
        {
            "startTime": 0,
            "duration": 0,
            "length": 0,
            "notes": [],
            "controlChanges": {},
            "id": 4,
            "name": "Debussy: Childrens Corner 6"
        },
        {
            "startTime": 0,
            "duration": 0,
            "length": 0,
            "notes": [],
            "controlChanges": {},
            "id": 5,
            "name": "Copyright  2010 by Bernd Krueger"
        },
        {
            "startTime": 0,
            "duration": 0,
            "length": 0,
            "notes": [],
            "controlChanges": {},
            "id": 6,
            "name": "http://www.piano-midi.de/"
        },
        {
            "startTime": 0,
            "duration": 0,
            "length": 0,
            "notes": [],
            "controlChanges": {},
            "id": 7,
            "name": "Edition: 2011-07-14"
        },
        {
            "startTime": 0,
            "duration": 0,
            "length": 0,
            "notes": [],
            "controlChanges": {},
            "id": 8,
            "name": "Spur 8"
        },
        {
            "startTime": 0,
            "duration": 0,
            "length": 0,
            "notes": [],
            "controlChanges": {},
            "id": 9,
            "name": "Spur 9"
        },
        {
            "startTime": 0,
            "duration": 0,
            "length": 0,
            "notes": [],
            "controlChanges": {},
            "id": 10,
            "name": "Spur 10"
        },
        {
            "startTime": 0,
            "duration": 0,
            "length": 0,
            "notes": [],
            "controlChanges": {},
            "id": 11,
            "name": "Spur 11"
        },
        {
            "startTime": 0,
            "duration": 0,
            "length": 0,
            "notes": [],
            "controlChanges": {},
            "id": 12,
            "name": "Spur 12"
        },
        {
            "startTime": 0,
            "duration": 0,
            "length": 0,
            "notes": [],
            "controlChanges": {},
            "id": 13,
            "name": "Spur 13"
        },
        {
            "startTime": 0,
            "duration": 0,
            "length": 0,
            "notes": [],
            "controlChanges": {},
            "id": 14,
            "name": "Spur 14"
        },
        {
            "startTime": 0,
            "duration": 0,
            "length": 0,
            "notes": [],
            "controlChanges": {},
            "id": 15,
            "name": "Spur 15"
        },
        {
            "startTime": 0,
            "duration": 0,
            "length": 0,
            "notes": [],
            "controlChanges": {},
            "id": 16,
            "name": "Spur 16"
        }
    ]
}