{
    "header": {
        "PPQ": 480,
        "timeSignature": [
            2,
            4
        ],
        "bpm": 64.10003023384759,
        "name": "Grieg: Berceuse Opus 38 Nr. 1"
    },
    "startTime": 0,
    "duration": 162.75343337500036,
    "tracks": [
        {
            "startTime": 0,
            "duration": 0,
            "length": 0,
            "notes": [],
            "controlChanges": {},
            "id": 0,
            "name": "Grieg: Berceuse Opus 38 Nr. 1"
        },
        {
            "startTime": 0,
            "duration": 162.75343337500001,
            "length": 472,
            "notes": [
                {
                    "name": "G4",
                    "midi": 67,
                    "time": 0,
                    "velocity": 0.31496062992125984,
                    "duration": 0.936037
                },
                {
                    "name": "D4",
                    "midi": 62,
                    "time": 0.936037,
                    "velocity": 0.25196850393700787,
                    "duration": 0.936037
                },
                {
                    "name": "G4",
                    "midi": 67,
                    "time": 1.872074,
                    "velocity": 0.2992125984251969,
                    "duration": 0.9360370000000002
                },
                {
                    "name": "D4",
                    "midi": 62,
                    "time": 2.8081110000000002,
                    "velocity": 0.23622047244094488,
                    "duration": 0.9360369999999998
                },
                {
                    "name": "G4",
                    "midi": 67,
                    "time": 3.744148,
                    "velocity": 0.29133858267716534,
                    "duration": 0.31201233333333356
                },
                {
                    "name": "F#4",
                    "midi": 66,
                    "time": 4.056160333333334,
                    "velocity": 0.25984251968503935,
                    "duration": 0.31201233333333356
                },
                {
                    "name": "D4",
                    "midi": 62,
                    "time": 4.2121665,
                    "velocity": 0.2204724409448819,
                    "duration": 0.46801850000000034
                },
                {
                    "name": "G4",
                    "midi": 67,
                    "time": 4.368172666666667,
                    "velocity": 0.2755905511811024,
                    "duration": 0.31201233333333356
                },
                {
                    "name": "E4",
                    "midi": 64,
                    "time": 4.680185000000001,
                    "velocity": 0.2204724409448819,
                    "duration": 0.46801850000000034
                },
                {
                    "name": "A4",
                    "midi": 69,
                    "time": 4.680185000000001,
                    "velocity": 0.30708661417322836,
                    "duration": 0.31201233333333356
                },
                {
                    "name": "B4",
                    "midi": 71,
                    "time": 4.992197333333334,
                    "velocity": 0.25196850393700787,
                    "duration": 0.31201233333333356
                },
                {
                    "name": "F#4",
                    "midi": 66,
                    "time": 5.148203500000001,
                    "velocity": 0.18110236220472442,
                    "duration": 0.46801850000000034
                },
                {
                    "name": "A4",
                    "midi": 69,
                    "time": 5.304209666666668,
                    "velocity": 0.25196850393700787,
                    "duration": 0.31201233333333356
                },
                {
                    "name": "G4",
                    "midi": 67,
                    "time": 5.616222000000001,
                    "velocity": 0.2992125984251969,
                    "duration": 0.9360369999999998
                },
                {
                    "name": "D4",
                    "midi": 62,
                    "time": 6.552259000000001,
                    "velocity": 0.2677165354330709,
                    "duration": 0.7020277500000001
                },
                {
                    "name": "F#4",
                    "midi": 66,
                    "time": 7.254286750000001,
                    "velocity": 0.25984251968503935,
                    "duration": 1.1700462499999995
                },
                {
                    "name": "B4",
                    "midi": 71,
                    "time": 7.371291375000001,
                    "velocity": 0.28346456692913385,
                    "duration": 1.0530416249999996
                },
                {
                    "name": "D5",
                    "midi": 74,
                    "time": 7.488296000000001,
                    "velocity": 0.2992125984251969,
                    "duration": 1.8720739999999987
                },
                {
                    "name": "A4",
                    "midi": 69,
                    "time": 8.424333,
                    "velocity": 0.25984251968503935,
                    "duration": 0.7020277499999992
                },
                {
                    "name": "D4",
                    "midi": 62,
                    "time": 8.424333,
                    "velocity": 0.2204724409448819,
                    "duration": 0.7020277499999992
                },
                {
                    "name": "F#4",
                    "midi": 66,
                    "time": 9.12636075,
                    "velocity": 0.25984251968503935,
                    "duration": 1.1700462500000004
                },
                {
                    "name": "B4",
                    "midi": 71,
                    "time": 9.243365375,
                    "velocity": 0.28346456692913385,
                    "duration": 1.0530416250000005
                },
                {
                    "name": "D5",
                    "midi": 74,
                    "time": 9.36037,
                    "velocity": 0.2992125984251969,
                    "duration": 1.8720740000000013
                },
                {
                    "name": "A4",
                    "midi": 69,
                    "time": 10.296407,
                    "velocity": 0.25984251968503935,
                    "duration": 0.702027750000001
                },
                {
                    "name": "D4",
                    "midi": 62,
                    "time": 10.296407,
                    "velocity": 0.2204724409448819,
                    "duration": 0.702027750000001
                },
                {
                    "name": "F#4",
                    "midi": 66,
                    "time": 10.998434750000001,
                    "velocity": 0.25984251968503935,
                    "duration": 0.5460215833333333
                },
                {
                    "name": "B4",
                    "midi": 71,
                    "time": 11.115439375000001,
                    "velocity": 0.28346456692913385,
                    "duration": 0.4290169583333334
                },
                {
                    "name": "D5",
                    "midi": 74,
                    "time": 11.232444000000001,
                    "velocity": 0.2992125984251969,
                    "duration": 0.31201233333333356
                },
                {
                    "name": "D4",
                    "midi": 62,
                    "time": 11.544456333333335,
                    "velocity": 0.2047244094488189,
                    "duration": 0.31201233333333356
                },
                {
                    "name": "A4",
                    "midi": 69,
                    "time": 11.544456333333335,
                    "velocity": 0.2440944881889764,
                    "duration": 0.31201233333333356
                },
                {
                    "name": "D5",
                    "midi": 74,
                    "time": 11.856468666666668,
                    "velocity": 0.2440944881889764,
                    "duration": 0.31201233333333356
                },
                {
                    "name": "F#4",
                    "midi": 66,
                    "time": 11.856468666666668,
                    "velocity": 0.18110236220472442,
                    "duration": 0.31201233333333356
                },
                {
                    "name": "E5",
                    "midi": 76,
                    "time": 12.168481000000002,
                    "velocity": 0.3228346456692913,
                    "duration": 0.31201233333333356
                },
                {
                    "name": "G4",
                    "midi": 67,
                    "time": 12.168481000000002,
                    "velocity": 0.2440944881889764,
                    "duration": 0.31201233333333356
                },
                {
                    "name": "C5",
                    "midi": 72,
                    "time": 12.480493333333335,
                    "velocity": 0.2125984251968504,
                    "duration": 0.31201233333333356
                },
                {
                    "name": "F#5",
                    "midi": 78,
                    "time": 12.480493333333335,
                    "velocity": 0.28346456692913385,
                    "duration": 0.31201233333333356
                },
                {
                    "name": "G4",
                    "midi": 67,
                    "time": 12.792505666666669,
                    "velocity": 0.1889763779527559,
                    "duration": 0.07800308333333383
                },
                {
                    "name": "E5",
                    "midi": 76,
                    "time": 12.792505666666669,
                    "velocity": 0.25196850393700787,
                    "duration": 0.15600616666666767
                },
                {
                    "name": "F#4",
                    "midi": 66,
                    "time": 12.948511833333336,
                    "velocity": 0.25984251968503935,
                    "duration": 1.0920431666666683
                },
                {
                    "name": "B4",
                    "midi": 71,
                    "time": 13.02651491666667,
                    "velocity": 0.28346456692913385,
                    "duration": 1.0140400833333345
                },
                {
                    "name": "D5",
                    "midi": 74,
                    "time": 13.104518000000004,
                    "velocity": 0.2992125984251969,
                    "duration": 1.8720739999999996
                },
                {
                    "name": "A4",
                    "midi": 69,
                    "time": 14.040555000000005,
                    "velocity": 0.25984251968503935,
                    "duration": 0.7020277499999992
                },
                {
                    "name": "D4",
                    "midi": 62,
                    "time": 14.040555000000005,
                    "velocity": 0.2204724409448819,
                    "duration": 0.7020277499999992
                },
                {
                    "name": "E5",
                    "midi": 76,
                    "time": 14.859587375000004,
                    "velocity": 0.2992125984251969,
                    "duration": 1.0530416250000005
                },
                {
                    "name": "G5",
                    "midi": 79,
                    "time": 14.976592000000004,
                    "velocity": 0.3464566929133858,
                    "duration": 0.9360370000000007
                },
                {
                    "name": "D5",
                    "midi": 74,
                    "time": 15.912629000000004,
                    "velocity": 0.2677165354330709,
                    "duration": 0.9360370000000007
                },
                {
                    "name": "G4",
                    "midi": 67,
                    "time": 15.912629000000004,
                    "velocity": 0.2204724409448819,
                    "duration": 0.9360370000000007
                },
                {
                    "name": "E5",
                    "midi": 76,
                    "time": 16.731661375000005,
                    "velocity": 0.2992125984251969,
                    "duration": 1.0530416249999988
                },
                {
                    "name": "G5",
                    "midi": 79,
                    "time": 16.848666000000005,
                    "velocity": 0.3464566929133858,
                    "duration": 0.9360369999999989
                },
                {
                    "name": "D5",
                    "midi": 74,
                    "time": 17.784703000000004,
                    "velocity": 0.2677165354330709,
                    "duration": 0.819032374999999
                },
                {
                    "name": "G4",
                    "midi": 67,
                    "time": 17.784703000000004,
                    "velocity": 0.2204724409448819,
                    "duration": 0.819032374999999
                },
                {
                    "name": "E5",
                    "midi": 76,
                    "time": 18.603735375000003,
                    "velocity": 0.2677165354330709,
                    "duration": 0.42901695833333164
                },
                {
                    "name": "G5",
                    "midi": 79,
                    "time": 18.720740000000003,
                    "velocity": 0.29133858267716534,
                    "duration": 0.3120123333333318
                },
                {
                    "name": "G4",
                    "midi": 67,
                    "time": 19.032752333333335,
                    "velocity": 0.2204724409448819,
                    "duration": 0.23400924999999972
                },
                {
                    "name": "D5",
                    "midi": 74,
                    "time": 19.032752333333335,
                    "velocity": 0.25984251968503935,
                    "duration": 0.3120123333333318
                },
                {
                    "name": "G5",
                    "midi": 79,
                    "time": 19.344764666666666,
                    "velocity": 0.31496062992125984,
                    "duration": 0.3120123333333318
                },
                {
                    "name": "E5",
                    "midi": 76,
                    "time": 19.656776999999998,
                    "velocity": 0.2204724409448819,
                    "duration": 0.46801849999999945
                },
                {
                    "name": "A5",
                    "midi": 81,
                    "time": 19.656776999999998,
                    "velocity": 0.3464566929133858,
                    "duration": 0.3120123333333318
                },
                {
                    "name": "B5",
                    "midi": 83,
                    "time": 19.96878933333333,
                    "velocity": 0.30708661417322836,
                    "duration": 0.31201233333333533
                },
                {
                    "name": "F#5",
                    "midi": 78,
                    "time": 20.124795499999998,
                    "velocity": 0.18110236220472442,
                    "duration": 0.46801849999999945
                },
                {
                    "name": "A5",
                    "midi": 81,
                    "time": 20.280801666666665,
                    "velocity": 0.2992125984251969,
                    "duration": 0.19500770833333192
                },
                {
                    "name": "E5",
                    "midi": 76,
                    "time": 20.475809374999997,
                    "velocity": 0.2992125984251969,
                    "duration": 1.0530416249999988
                },
                {
                    "name": "G5",
                    "midi": 79,
                    "time": 20.592813999999997,
                    "velocity": 0.3464566929133858,
                    "duration": 0.9360369999999989
                },
                {
                    "name": "D5",
                    "midi": 74,
                    "time": 21.528850999999996,
                    "velocity": 0.2677165354330709,
                    "duration": 0.9360369999999989
                },
                {
                    "name": "G4",
                    "midi": 67,
                    "time": 21.528850999999996,
                    "velocity": 0.2204724409448819,
                    "duration": 0.9360369999999989
                },
                {
                    "name": "A5",
                    "midi": 81,
                    "time": 22.230878749999995,
                    "velocity": 0.28346456692913385,
                    "duration": 1.1700462499999986
                },
                {
                    "name": "B5",
                    "midi": 83,
                    "time": 22.347883374999995,
                    "velocity": 0.3228346456692913,
                    "duration": 1.755069374999998
                },
                {
                    "name": "D6",
                    "midi": 86,
                    "time": 22.464887999999995,
                    "velocity": 0.4094488188976378,
                    "duration": 1.638064749999998
                },
                {
                    "name": "G5",
                    "midi": 79,
                    "time": 23.400924999999994,
                    "velocity": 0.25984251968503935,
                    "duration": 0.7020277499999992
                },
                {
                    "name": "D5",
                    "midi": 74,
                    "time": 23.400924999999994,
                    "velocity": 0.2204724409448819,
                    "duration": 0.7020277499999992
                },
                {
                    "name": "A#5",
                    "midi": 82,
                    "time": 24.102952749999993,
                    "velocity": 0.28346456692913385,
                    "duration": 1.1700462499999986
                },
                {
                    "name": "D6",
                    "midi": 86,
                    "time": 24.219957374999993,
                    "velocity": 0.3228346456692913,
                    "duration": 1.0530416249999988
                },
                {
                    "name": "E6",
                    "midi": 88,
                    "time": 24.336961999999993,
                    "velocity": 0.4094488188976378,
                    "duration": 1.638064749999998
                },
                {
                    "name": "C#6",
                    "midi": 85,
                    "time": 25.27299899999999,
                    "velocity": 0.25984251968503935,
                    "duration": 0.7020277499999992
                },
                {
                    "name": "E5",
                    "midi": 76,
                    "time": 25.27299899999999,
                    "velocity": 0.2204724409448819,
                    "duration": 0.7020277499999992
                },
                {
                    "name": "C6",
                    "midi": 84,
                    "time": 25.97502674999999,
                    "velocity": 0.28346456692913385,
                    "duration": 1.1700462499999986
                },
                {
                    "name": "E6",
                    "midi": 88,
                    "time": 26.09203137499999,
                    "velocity": 0.33070866141732286,
                    "duration": 1.0530416249999988
                },
                {
                    "name": "F#6",
                    "midi": 90,
                    "time": 26.20903599999999,
                    "velocity": 0.4094488188976378,
                    "duration": 1.638064749999998
                },
                {
                    "name": "D6",
                    "midi": 86,
                    "time": 27.14507299999999,
                    "velocity": 0.25984251968503935,
                    "duration": 0.7020277499999992
                },
                {
                    "name": "F#5",
                    "midi": 78,
                    "time": 27.14507299999999,
                    "velocity": 0.2204724409448819,
                    "duration": 0.7020277499999992
                },
                {
                    "name": "B5",
                    "midi": 83,
                    "time": 27.84710074999999,
                    "velocity": 0.3228346456692913,
                    "duration": 1.1700462499999986
                },
                {
                    "name": "D6",
                    "midi": 86,
                    "time": 27.96410537499999,
                    "velocity": 0.3464566929133858,
                    "duration": 1.0530416249999988
                },
                {
                    "name": "G6",
                    "midi": 91,
                    "time": 28.08110999999999,
                    "velocity": 0.3779527559055118,
                    "duration": 1.8720739999999978
                },
                {
                    "name": "G5",
                    "midi": 79,
                    "time": 29.017146999999987,
                    "velocity": 0.25984251968503935,
                    "duration": 0.819032374999999
                },
                {
                    "name": "G4",
                    "midi": 67,
                    "time": 29.953183999999986,
                    "velocity": 0.28346456692913385,
                    "duration": 0.9360369999999989
                },
                {
                    "name": "D4",
                    "midi": 62,
                    "time": 30.889220999999985,
                    "velocity": 0.2204724409448819,
                    "duration": 0.9360369999999989
                },
                {
                    "name": "G4",
                    "midi": 67,
                    "time": 31.825257999999984,
                    "velocity": 0.2677165354330709,
                    "duration": 0.9360369999999989
                },
                {
                    "name": "D4",
                    "midi": 62,
                    "time": 32.76129499999998,
                    "velocity": 0.2125984251968504,
                    "duration": 0.9360369999999989
                },
                {
                    "name": "G4",
                    "midi": 67,
                    "time": 33.69733199999998,
                    "velocity": 0.25984251968503935,
                    "duration": 0.31201233333333533
                },
                {
                    "name": "F#4",
                    "midi": 66,
                    "time": 34.00934433333332,
                    "velocity": 0.2283464566929134,
                    "duration": 0.31201233333332823
                },
                {
                    "name": "D4",
                    "midi": 62,
                    "time": 34.16535049999998,
                    "velocity": 0.1968503937007874,
                    "duration": 0.46801849999999945
                },
                {
                    "name": "G4",
                    "midi": 67,
                    "time": 34.321356666666645,
                    "velocity": 0.2440944881889764,
                    "duration": 0.31201233333333533
                },
                {
                    "name": "E4",
                    "midi": 64,
                    "time": 34.63336899999998,
                    "velocity": 0.1968503937007874,
                    "duration": 0.46801849999999945
                },
                {
                    "name": "A4",
                    "midi": 69,
                    "time": 34.63336899999998,
                    "velocity": 0.2755905511811024,
                    "duration": 0.31201233333333533
                },
                {
                    "name": "B4",
                    "midi": 71,
                    "time": 34.945381333333316,
                    "velocity": 0.2204724409448819,
                    "duration": 0.31201233333332823
                },
                {
                    "name": "F#4",
                    "midi": 66,
                    "time": 35.10138749999998,
                    "velocity": 0.15748031496062992,
                    "duration": 0.46801849999999945
                },
                {
                    "name": "A4",
                    "midi": 69,
                    "time": 35.257393666666644,
                    "velocity": 0.2204724409448819,
                    "duration": 0.31201233333333533
                },
                {
                    "name": "G4",
                    "midi": 67,
                    "time": 35.56940599999998,
                    "velocity": 0.2677165354330709,
                    "duration": 0.9360369999999989
                },
                {
                    "name": "D4",
                    "midi": 62,
                    "time": 36.50544299999998,
                    "velocity": 0.23622047244094488,
                    "duration": 0.7020277499999992
                },
                {
                    "name": "F#4",
                    "midi": 66,
                    "time": 37.20747074999998,
                    "velocity": 0.2283464566929134,
                    "duration": 1.1700462499999986
                },
                {
                    "name": "B4",
                    "midi": 71,
                    "time": 37.32447537499998,
                    "velocity": 0.25196850393700787,
                    "duration": 1.0530416249999988
                },
                {
                    "name": "D5",
                    "midi": 74,
                    "time": 37.44147999999998,
                    "velocity": 0.2677165354330709,
                    "duration": 1.8720739999999978
                },
                {
                    "name": "A4",
                    "midi": 69,
                    "time": 38.377516999999976,
                    "velocity": 0.2283464566929134,
                    "duration": 0.7020277499999992
                },
                {
                    "name": "D4",
                    "midi": 62,
                    "time": 38.377516999999976,
                    "velocity": 0.1968503937007874,
                    "duration": 0.7020277499999992
                },
                {
                    "name": "F#4",
                    "midi": 66,
                    "time": 39.079544749999975,
                    "velocity": 0.25984251968503935,
                    "duration": 1.1700462499999986
                },
                {
                    "name": "B4",
                    "midi": 71,
                    "time": 39.196549374999975,
                    "velocity": 0.28346456692913385,
                    "duration": 1.0530416249999988
                },
                {
                    "name": "D5",
                    "midi": 74,
                    "time": 39.313553999999975,
                    "velocity": 0.2992125984251969,
                    "duration": 1.8720739999999978
                },
                {
                    "name": "A4",
                    "midi": 69,
                    "time": 40.249590999999974,
                    "velocity": 0.25984251968503935,
                    "duration": 0.7020277499999992
                },
                {
                    "name": "D4",
                    "midi": 62,
                    "time": 40.249590999999974,
                    "velocity": 0.2204724409448819,
                    "duration": 0.7020277499999992
                },
                {
                    "name": "F#4",
                    "midi": 66,
                    "time": 40.95161874999997,
                    "velocity": 0.25984251968503935,
                    "duration": 0.5460215833333351
                },
                {
                    "name": "B4",
                    "midi": 71,
                    "time": 41.06862337499997,
                    "velocity": 0.28346456692913385,
                    "duration": 0.4290169583333352
                },
                {
                    "name": "D5",
                    "midi": 74,
                    "time": 41.18562799999997,
                    "velocity": 0.2992125984251969,
                    "duration": 0.31201233333333533
                },
                {
                    "name": "D4",
                    "midi": 62,
                    "time": 41.49764033333331,
                    "velocity": 0.2047244094488189,
                    "duration": 0.31201233333333533
                },
                {
                    "name": "A4",
                    "midi": 69,
                    "time": 41.49764033333331,
                    "velocity": 0.2440944881889764,
                    "duration": 0.31201233333333533
                },
                {
                    "name": "D5",
                    "midi": 74,
                    "time": 41.80965266666664,
                    "velocity": 0.2440944881889764,
                    "duration": 0.31201233333333533
                },
                {
                    "name": "F#4",
                    "midi": 66,
                    "time": 41.80965266666664,
                    "velocity": 0.18110236220472442,
                    "duration": 0.31201233333333533
                },
                {
                    "name": "E5",
                    "midi": 76,
                    "time": 42.12166499999998,
                    "velocity": 0.3228346456692913,
                    "duration": 0.31201233333333533
                },
                {
                    "name": "G4",
                    "midi": 67,
                    "time": 42.12166499999998,
                    "velocity": 0.2440944881889764,
                    "duration": 0.31201233333333533
                },
                {
                    "name": "C5",
                    "midi": 72,
                    "time": 42.433677333333314,
                    "velocity": 0.2125984251968504,
                    "duration": 0.31201233333333533
                },
                {
                    "name": "F#5",
                    "midi": 78,
                    "time": 42.433677333333314,
                    "velocity": 0.28346456692913385,
                    "duration": 0.31201233333333533
                },
                {
                    "name": "G4",
                    "midi": 67,
                    "time": 42.74568966666665,
                    "velocity": 0.1889763779527559,
                    "duration": 0.07800308333333561
                },
                {
                    "name": "E5",
                    "midi": 76,
                    "time": 42.74568966666665,
                    "velocity": 0.25196850393700787,
                    "duration": 0.15600616666667122
                },
                {
                    "name": "F#4",
                    "midi": 66,
                    "time": 42.90169583333332,
                    "velocity": 0.25984251968503935,
                    "duration": 1.0920431666666701
                },
                {
                    "name": "B4",
                    "midi": 71,
                    "time": 42.979698916666656,
                    "velocity": 0.28346456692913385,
                    "duration": 1.0140400833333345
                },
                {
                    "name": "D5",
                    "midi": 74,
                    "time": 43.05770199999999,
                    "velocity": 0.2992125984251969,
                    "duration": 1.8720739999999978
                },
                {
                    "name": "A4",
                    "midi": 69,
                    "time": 43.99373899999999,
                    "velocity": 0.25984251968503935,
                    "duration": 0.7020277499999992
                },
                {
                    "name": "D4",
                    "midi": 62,
                    "time": 43.99373899999999,
                    "velocity": 0.2204724409448819,
                    "duration": 0.7020277499999992
                },
                {
                    "name": "E5",
                    "midi": 76,
                    "time": 44.81277137499999,
                    "velocity": 0.2992125984251969,
                    "duration": 1.0530416249999988
                },
                {
                    "name": "G5",
                    "midi": 79,
                    "time": 44.92977599999999,
                    "velocity": 0.3464566929133858,
                    "duration": 0.9360369999999989
                },
                {
                    "name": "D5",
                    "midi": 74,
                    "time": 45.86581299999999,
                    "velocity": 0.2677165354330709,
                    "duration": 0.9360369999999989
                },
                {
                    "name": "G4",
                    "midi": 67,
                    "time": 45.86581299999999,
                    "velocity": 0.2204724409448819,
                    "duration": 0.9360369999999989
                },
                {
                    "name": "E5",
                    "midi": 76,
                    "time": 46.68484537499999,
                    "velocity": 0.2992125984251969,
                    "duration": 1.0530416249999988
                },
                {
                    "name": "G5",
                    "midi": 79,
                    "time": 46.80184999999999,
                    "velocity": 0.3464566929133858,
                    "duration": 0.9360369999999989
                },
                {
                    "name": "D5",
                    "midi": 74,
                    "time": 47.737886999999986,
                    "velocity": 0.2677165354330709,
                    "duration": 0.819032374999999
                },
                {
                    "name": "G4",
                    "midi": 67,
                    "time": 47.737886999999986,
                    "velocity": 0.2204724409448819,
                    "duration": 0.819032374999999
                },
                {
                    "name": "E5",
                    "midi": 76,
                    "time": 48.556919374999985,
                    "velocity": 0.2677165354330709,
                    "duration": 0.4290169583333352
                },
                {
                    "name": "G5",
                    "midi": 79,
                    "time": 48.673923999999985,
                    "velocity": 0.29133858267716534,
                    "duration": 0.31201233333333533
                },
                {
                    "name": "G4",
                    "midi": 67,
                    "time": 48.98593633333332,
                    "velocity": 0.2204724409448819,
                    "duration": 0.23400924999999972
                },
                {
                    "name": "D5",
                    "midi": 74,
                    "time": 48.98593633333332,
                    "velocity": 0.25984251968503935,
                    "duration": 0.31201233333333533
                },
                {
                    "name": "G5",
                    "midi": 79,
                    "time": 49.297948666666656,
                    "velocity": 0.31496062992125984,
                    "duration": 0.31201233333333533
                },
                {
                    "name": "E5",
                    "midi": 76,
                    "time": 49.60996099999999,
                    "velocity": 0.2204724409448819,
                    "duration": 0.46801849999999945
                },
                {
                    "name": "A5",
                    "midi": 81,
                    "time": 49.60996099999999,
                    "velocity": 0.3464566929133858,
                    "duration": 0.31201233333333533
                },
                {
                    "name": "B5",
                    "midi": 83,
                    "time": 49.92197333333333,
                    "velocity": 0.30708661417322836,
                    "duration": 0.31201233333332823
                },
                {
                    "name": "F#5",
                    "midi": 78,
                    "time": 50.07797949999999,
                    "velocity": 0.18110236220472442,
                    "duration": 0.46801849999999945
                },
                {
                    "name": "A5",
                    "midi": 81,
                    "time": 50.233985666666655,
                    "velocity": 0.2992125984251969,
                    "duration": 0.19500770833333547
                },
                {
                    "name": "E5",
                    "midi": 76,
                    "time": 50.42899337499999,
                    "velocity": 0.2992125984251969,
                    "duration": 1.0530416249999988
                },
                {
                    "name": "G5",
                    "midi": 79,
                    "time": 50.54599799999999,
                    "velocity": 0.3464566929133858,
                    "duration": 0.9360369999999989
                },
                {
                    "name": "D5",
                    "midi": 74,
                    "time": 51.48203499999999,
                    "velocity": 0.2677165354330709,
                    "duration": 0.9360369999999989
                },
                {
                    "name": "G4",
                    "midi": 67,
                    "time": 51.48203499999999,
                    "velocity": 0.2204724409448819,
                    "duration": 0.9360369999999989
                },
                {
                    "name": "A5",
                    "midi": 81,
                    "time": 52.18406274999999,
                    "velocity": 0.28346456692913385,
                    "duration": 1.1700462499999986
                },
                {
                    "name": "B5",
                    "midi": 83,
                    "time": 52.30106737499999,
                    "velocity": 0.3228346456692913,
                    "duration": 1.755069374999998
                },
                {
                    "name": "D6",
                    "midi": 86,
                    "time": 52.41807199999999,
                    "velocity": 0.4094488188976378,
                    "duration": 1.638064749999998
                },
                {
                    "name": "G5",
                    "midi": 79,
                    "time": 53.35410899999999,
                    "velocity": 0.25984251968503935,
                    "duration": 0.7020277499999992
                },
                {
                    "name": "D5",
                    "midi": 74,
                    "time": 53.35410899999999,
                    "velocity": 0.2204724409448819,
                    "duration": 0.7020277499999992
                },
                {
                    "name": "A#5",
                    "midi": 82,
                    "time": 54.056136749999986,
                    "velocity": 0.28346456692913385,
                    "duration": 1.1700462499999986
                },
                {
                    "name": "D6",
                    "midi": 86,
                    "time": 54.173141374999986,
                    "velocity": 0.3228346456692913,
                    "duration": 1.0530416249999988
                },
                {
                    "name": "E6",
                    "midi": 88,
                    "time": 54.290145999999986,
                    "velocity": 0.4094488188976378,
                    "duration": 1.638064749999998
                },
                {
                    "name": "C#6",
                    "midi": 85,
                    "time": 55.226182999999985,
                    "velocity": 0.25984251968503935,
                    "duration": 0.7020277499999992
                },
                {
                    "name": "E5",
                    "midi": 76,
                    "time": 55.226182999999985,
                    "velocity": 0.2204724409448819,
                    "duration": 0.7020277499999992
                },
                {
                    "name": "C6",
                    "midi": 84,
                    "time": 55.928210749999984,
                    "velocity": 0.28346456692913385,
                    "duration": 1.1700462499999986
                },
                {
                    "name": "E6",
                    "midi": 88,
                    "time": 56.045215374999984,
                    "velocity": 0.33070866141732286,
                    "duration": 1.0530416249999988
                },
                {
                    "name": "F#6",
                    "midi": 90,
                    "time": 56.162219999999984,
                    "velocity": 0.4094488188976378,
                    "duration": 1.638064749999998
                },
                {
                    "name": "D6",
                    "midi": 86,
                    "time": 57.09825699999998,
                    "velocity": 0.25984251968503935,
                    "duration": 0.7020277499999992
                },
                {
                    "name": "F#5",
                    "midi": 78,
                    "time": 57.09825699999998,
                    "velocity": 0.2204724409448819,
                    "duration": 0.7020277499999992
                },
                {
                    "name": "B5",
                    "midi": 83,
                    "time": 57.80028474999998,
                    "velocity": 0.3228346456692913,
                    "duration": 1.1700462499999986
                },
                {
                    "name": "D6",
                    "midi": 86,
                    "time": 57.91728937499998,
                    "velocity": 0.3464566929133858,
                    "duration": 1.0530416249999988
                },
                {
                    "name": "G6",
                    "midi": 91,
                    "time": 58.03429399999998,
                    "velocity": 0.3779527559055118,
                    "duration": 1.8720739999999978
                },
                {
                    "name": "G5",
                    "midi": 79,
                    "time": 58.97033099999998,
                    "velocity": 0.25984251968503935,
                    "duration": 0.819032374999999
                },
                {
                    "name": "G4",
                    "midi": 67,
                    "time": 59.90636799999998,
                    "velocity": 0.33070866141732286,
                    "duration": 0.11700462499999986
                },
                {
                    "name": "A#3",
                    "midi": 58,
                    "time": 59.90636799999998,
                    "velocity": 0.2755905511811024,
                    "duration": 0.11700462499999986
                },
                {
                    "name": "F#4",
                    "midi": 66,
                    "time": 60.37438649999998,
                    "velocity": 0.30708661417322836,
                    "duration": 0.23400924999999972
                },
                {
                    "name": "A#3",
                    "midi": 58,
                    "time": 60.37438649999998,
                    "velocity": 0.25984251968503935,
                    "duration": 0.46801849999999945
                },
                {
                    "name": "G4",
                    "midi": 67,
                    "time": 60.60839574999998,
                    "velocity": 0.2755905511811024,
                    "duration": 0.23400924999999972
                },
                {
                    "name": "A4",
                    "midi": 69,
                    "time": 60.84240499999998,
                    "velocity": 0.36220472440944884,
                    "duration": 0.7020277499999992
                },
                {
                    "name": "F#4",
                    "midi": 66,
                    "time": 60.84240499999998,
                    "velocity": 0.30708661417322836,
                    "duration": 0.9360369999999989
                },
                {
                    "name": "C4",
                    "midi": 60,
                    "time": 60.84240499999998,
                    "velocity": 0.30708661417322836,
                    "duration": 0.9360369999999989
                },
                {
                    "name": "A#4",
                    "midi": 70,
                    "time": 61.54443274999998,
                    "velocity": 0.2992125984251969,
                    "duration": 0.23400924999999972
                },
                {
                    "name": "G4",
                    "midi": 67,
                    "time": 61.77844199999998,
                    "velocity": 0.33070866141732286,
                    "duration": 0.11700462499999986
                },
                {
                    "name": "A#3",
                    "midi": 58,
                    "time": 61.77844199999998,
                    "velocity": 0.2755905511811024,
                    "duration": 0.11700462499999986
                },
                {
                    "name": "F#4",
                    "midi": 66,
                    "time": 62.246460499999976,
                    "velocity": 0.30708661417322836,
                    "duration": 0.23400924999999972
                },
                {
                    "name": "A#3",
                    "midi": 58,
                    "time": 62.246460499999976,
                    "velocity": 0.25984251968503935,
                    "duration": 0.46801849999999945
                },
                {
                    "name": "G4",
                    "midi": 67,
                    "time": 62.480469749999976,
                    "velocity": 0.2755905511811024,
                    "duration": 0.23400924999999972
                },
                {
                    "name": "A4",
                    "midi": 69,
                    "time": 62.714478999999976,
                    "velocity": 0.36220472440944884,
                    "duration": 0.7020277499999992
                },
                {
                    "name": "F#4",
                    "midi": 66,
                    "time": 62.714478999999976,
                    "velocity": 0.30708661417322836,
                    "duration": 0.9360369999999989
                },
                {
                    "name": "C4",
                    "midi": 60,
                    "time": 62.714478999999976,
                    "velocity": 0.30708661417322836,
                    "duration": 0.9360369999999989
                },
                {
                    "name": "A#4",
                    "midi": 70,
                    "time": 63.416506749999975,
                    "velocity": 0.2992125984251969,
                    "duration": 0.23400924999999972
                },
                {
                    "name": "G4",
                    "midi": 67,
                    "time": 63.650515999999975,
                    "velocity": 0.33070866141732286,
                    "duration": 0.11700462499999986
                },
                {
                    "name": "A#3",
                    "midi": 58,
                    "time": 63.650515999999975,
                    "velocity": 0.2755905511811024,
                    "duration": 0.11700462499999986
                },
                {
                    "name": "F#4",
                    "midi": 66,
                    "time": 64.11853449999998,
                    "velocity": 0.28346456692913385,
                    "duration": 0.46801849999999945
                },
                {
                    "name": "A4",
                    "midi": 69,
                    "time": 64.11853449999998,
                    "velocity": 0.33070866141732286,
                    "duration": 0.23400924999999972
                },
                {
                    "name": "C4",
                    "midi": 60,
                    "time": 64.11853449999998,
                    "velocity": 0.28346456692913385,
                    "duration": 0.46801849999999945
                },
                {
                    "name": "A#4",
                    "midi": 70,
                    "time": 64.35254374999998,
                    "velocity": 0.2992125984251969,
                    "duration": 0.23400924999999972
                },
                {
                    "name": "G4",
                    "midi": 67,
                    "time": 64.58655299999998,
                    "velocity": 0.3700787401574803,
                    "duration": 0.11700462500000697
                },
                {
                    "name": "A#3",
                    "midi": 58,
                    "time": 64.58655299999998,
                    "velocity": 0.30708661417322836,
                    "duration": 0.11700462500000697
                },
                {
                    "name": "F#4",
                    "midi": 66,
                    "time": 65.0545715,
                    "velocity": 0.3779527559055118,
                    "duration": 0.46801849999999945
                },
                {
                    "name": "A4",
                    "midi": 69,
                    "time": 65.0545715,
                    "velocity": 0.3779527559055118,
                    "duration": 0.23400924999999972
                },
                {
                    "name": "C4",
                    "midi": 60,
                    "time": 65.0545715,
                    "velocity": 0.31496062992125984,
                    "duration": 0.46801849999999945
                },
                {
                    "name": "A#4",
                    "midi": 70,
                    "time": 65.28858075,
                    "velocity": 0.3464566929133858,
                    "duration": 0.23400924999999972
                },
                {
                    "name": "G4",
                    "midi": 67,
                    "time": 65.52259,
                    "velocity": 0.41732283464566927,
                    "duration": 0.11700462500000697
                },
                {
                    "name": "A#3",
                    "midi": 58,
                    "time": 65.52259,
                    "velocity": 0.3464566929133858,
                    "duration": 0.11700462500000697
                },
                {
                    "name": "F#4",
                    "midi": 66,
                    "time": 65.99060850000001,
                    "velocity": 0.3543307086614173,
                    "duration": 0.46801849999999945
                },
                {
                    "name": "A4",
                    "midi": 69,
                    "time": 65.99060850000001,
                    "velocity": 0.4251968503937008,
                    "duration": 0.23400924999999972
                },
                {
                    "name": "C4",
                    "midi": 60,
                    "time": 65.99060850000001,
                    "velocity": 0.3543307086614173,
                    "duration": 0.46801849999999945
                },
                {
                    "name": "A#4",
                    "midi": 70,
                    "time": 66.22461775000001,
                    "velocity": 0.3858267716535433,
                    "duration": 0.23400924999999972
                },
                {
                    "name": "G4",
                    "midi": 67,
                    "time": 66.458627,
                    "velocity": 0.4645669291338583,
                    "duration": 0.11700462500000697
                },
                {
                    "name": "A#3",
                    "midi": 58,
                    "time": 66.458627,
                    "velocity": 0.3858267716535433,
                    "duration": 0.11700462500000697
                },
                {
                    "name": "F#4",
                    "midi": 66,
                    "time": 66.92664550000002,
                    "velocity": 0.3858267716535433,
                    "duration": 0.46801849999999945
                },
                {
                    "name": "A4",
                    "midi": 69,
                    "time": 66.92664550000002,
                    "velocity": 0.5196850393700787,
                    "duration": 0.23400924999999972
                },
                {
                    "name": "C4",
                    "midi": 60,
                    "time": 66.92664550000002,
                    "velocity": 0.3858267716535433,
                    "duration": 0.46801849999999945
                },
                {
                    "name": "A#4",
                    "midi": 70,
                    "time": 67.16065475000002,
                    "velocity": 0.48031496062992124,
                    "duration": 0.23400924999999972
                },
                {
                    "name": "A#3",
                    "midi": 58,
                    "time": 67.39466400000002,
                    "velocity": 0.4409448818897638,
                    "duration": 1.872074000000012
                },
                {
                    "name": "G4",
                    "midi": 67,
                    "time": 67.39466400000002,
                    "velocity": 0.5196850393700787,
                    "duration": 0.9360369999999989
                },
                {
                    "name": "A4",
                    "midi": 69,
                    "time": 68.33070100000002,
                    "velocity": 0.4881889763779528,
                    "duration": 0.46801849999999945
                },
                {
                    "name": "A#4",
                    "midi": 70,
                    "time": 68.79871950000002,
                    "velocity": 0.44881889763779526,
                    "duration": 0.23400924999999972
                },
                {
                    "name": "A4",
                    "midi": 69,
                    "time": 69.03272875000002,
                    "velocity": 0.3543307086614173,
                    "duration": 0.11700462500000697
                },
                {
                    "name": "A#4",
                    "midi": 70,
                    "time": 69.14973337500003,
                    "velocity": 0.3543307086614173,
                    "duration": 0.11700462500000697
                },
                {
                    "name": "A#3",
                    "midi": 58,
                    "time": 69.26673800000003,
                    "velocity": 0.33070866141732286,
                    "duration": 1.8720739999999978
                },
                {
                    "name": "A4",
                    "midi": 69,
                    "time": 69.26673800000003,
                    "velocity": 0.4566929133858268,
                    "duration": 0.9360369999999989
                },
                {
                    "name": "G4",
                    "midi": 67,
                    "time": 70.20277500000003,
                    "velocity": 0.3779527559055118,
                    "duration": 0.46801849999999945
                },
                {
                    "name": "F4",
                    "midi": 65,
                    "time": 70.67079350000003,
                    "velocity": 0.3228346456692913,
                    "duration": 0.46801849999999945
                },
                {
                    "name": "A#3",
                    "midi": 58,
                    "time": 71.13881200000003,
                    "velocity": 0.2283464566929134,
                    "duration": 2.8081109999999967
                },
                {
                    "name": "D4",
                    "midi": 62,
                    "time": 71.13881200000003,
                    "velocity": 0.2755905511811024,
                    "duration": 0.9360369999999989
                },
                {
                    "name": "D4",
                    "midi": 62,
                    "time": 72.07484900000003,
                    "velocity": 0.2125984251968504,
                    "duration": 1.8720739999999978
                },
                {
                    "name": "A#4",
                    "midi": 70,
                    "time": 74.88296000000003,
                    "velocity": 0.33070866141732286,
                    "duration": 0.11700462500000697
                },
                {
                    "name": "C#4",
                    "midi": 61,
                    "time": 74.88296000000003,
                    "velocity": 0.2755905511811024,
                    "duration": 0.11700462500000697
                },
                {
                    "name": "A4",
                    "midi": 69,
                    "time": 75.35097850000004,
                    "velocity": 0.30708661417322836,
                    "duration": 0.23400924999999972
                },
                {
                    "name": "C#4",
                    "midi": 61,
                    "time": 75.35097850000004,
                    "velocity": 0.25984251968503935,
                    "duration": 0.46801849999999945
                },
                {
                    "name": "A#4",
                    "midi": 70,
                    "time": 75.58498775000004,
                    "velocity": 0.2755905511811024,
                    "duration": 0.23400924999999972
                },
                {
                    "name": "C5",
                    "midi": 72,
                    "time": 75.81899700000004,
                    "velocity": 0.36220472440944884,
                    "duration": 0.7020277499999992
                },
                {
                    "name": "A4",
                    "midi": 69,
                    "time": 75.81899700000004,
                    "velocity": 0.30708661417322836,
                    "duration": 0.9360369999999989
                },
                {
                    "name": "D#4",
                    "midi": 63,
                    "time": 75.81899700000004,
                    "velocity": 0.30708661417322836,
                    "duration": 0.9360369999999989
                },
                {
                    "name": "C#5",
                    "midi": 73,
                    "time": 76.52102475000004,
                    "velocity": 0.2992125984251969,
                    "duration": 0.23400924999999972
                },
                {
                    "name": "A#4",
                    "midi": 70,
                    "time": 76.75503400000004,
                    "velocity": 0.33070866141732286,
                    "duration": 0.11700462500000697
                },
                {
                    "name": "C#4",
                    "midi": 61,
                    "time": 76.75503400000004,
                    "velocity": 0.2755905511811024,
                    "duration": 0.11700462500000697
                },
                {
                    "name": "A4",
                    "midi": 69,
                    "time": 77.22305250000005,
                    "velocity": 0.30708661417322836,
                    "duration": 0.23400924999999972
                },
                {
                    "name": "C#4",
                    "midi": 61,
                    "time": 77.22305250000005,
                    "velocity": 0.25984251968503935,
                    "duration": 0.46801849999999945
                },
                {
                    "name": "A#4",
                    "midi": 70,
                    "time": 77.45706175000005,
                    "velocity": 0.2755905511811024,
                    "duration": 0.23400924999999972
                },
                {
                    "name": "C5",
                    "midi": 72,
                    "time": 77.69107100000005,
                    "velocity": 0.36220472440944884,
                    "duration": 0.7020277499999992
                },
                {
                    "name": "A4",
                    "midi": 69,
                    "time": 77.69107100000005,
                    "velocity": 0.30708661417322836,
                    "duration": 0.9360369999999989
                },
                {
                    "name": "D#4",
                    "midi": 63,
                    "time": 77.69107100000005,
                    "velocity": 0.30708661417322836,
                    "duration": 0.9360369999999989
                },
                {
                    "name": "C#5",
                    "midi": 73,
                    "time": 78.39309875000005,
                    "velocity": 0.2992125984251969,
                    "duration": 0.23400924999999972
                },
                {
                    "name": "A#4",
                    "midi": 70,
                    "time": 78.62710800000005,
                    "velocity": 0.33070866141732286,
                    "duration": 0.11700462500000697
                },
                {
                    "name": "C#4",
                    "midi": 61,
                    "time": 78.62710800000005,
                    "velocity": 0.2755905511811024,
                    "duration": 0.11700462500000697
                },
                {
                    "name": "A4",
                    "midi": 69,
                    "time": 79.09512650000006,
                    "velocity": 0.28346456692913385,
                    "duration": 0.46801849999999945
                },
                {
                    "name": "C5",
                    "midi": 72,
                    "time": 79.09512650000006,
                    "velocity": 0.33070866141732286,
                    "duration": 0.23400924999999972
                },
                {
                    "name": "D#4",
                    "midi": 63,
                    "time": 79.09512650000006,
                    "velocity": 0.28346456692913385,
                    "duration": 0.46801849999999945
                },
                {
                    "name": "C#5",
                    "midi": 73,
                    "time": 79.32913575000006,
                    "velocity": 0.2992125984251969,
                    "duration": 0.23400924999999972
                },
                {
                    "name": "A#4",
                    "midi": 70,
                    "time": 79.56314500000006,
                    "velocity": 0.3700787401574803,
                    "duration": 0.11700462500000697
                },
                {
                    "name": "C#4",
                    "midi": 61,
                    "time": 79.56314500000006,
                    "velocity": 0.30708661417322836,
                    "duration": 0.11700462500000697
                },
                {
                    "name": "A4",
                    "midi": 69,
                    "time": 80.03116350000008,
                    "velocity": 0.3779527559055118,
                    "duration": 0.46801849999999945
                },
                {
                    "name": "C5",
                    "midi": 72,
                    "time": 80.03116350000008,
                    "velocity": 0.3779527559055118,
                    "duration": 0.23400924999999972
                },
                {
                    "name": "D#4",
                    "midi": 63,
                    "time": 80.03116350000008,
                    "velocity": 0.31496062992125984,
                    "duration": 0.46801849999999945
                },
                {
                    "name": "C#5",
                    "midi": 73,
                    "time": 80.26517275000008,
                    "velocity": 0.3464566929133858,
                    "duration": 0.23400924999999972
                },
                {
                    "name": "A#4",
                    "midi": 70,
                    "time": 80.49918200000008,
                    "velocity": 0.41732283464566927,
                    "duration": 0.11700462500000697
                },
                {
                    "name": "C#4",
                    "midi": 61,
                    "time": 80.49918200000008,
                    "velocity": 0.3464566929133858,
                    "duration": 0.11700462500000697
                },
                {
                    "name": "A4",
                    "midi": 69,
                    "time": 80.96720050000009,
                    "velocity": 0.3543307086614173,
                    "duration": 0.46801849999999945
                },
                {
                    "name": "C5",
                    "midi": 72,
                    "time": 80.96720050000009,
                    "velocity": 0.4251968503937008,
                    "duration": 0.23400924999999972
                },
                {
                    "name": "D#4",
                    "midi": 63,
                    "time": 80.96720050000009,
                    "velocity": 0.3543307086614173,
                    "duration": 0.46801849999999945
                },
                {
                    "name": "C#5",
                    "midi": 73,
                    "time": 81.20120975000009,
                    "velocity": 0.3858267716535433,
                    "duration": 0.23400924999999972
                },
                {
                    "name": "A#4",
                    "midi": 70,
                    "time": 81.43521900000009,
                    "velocity": 0.4645669291338583,
                    "duration": 0.11700462500000697
                },
                {
                    "name": "C#4",
                    "midi": 61,
                    "time": 81.43521900000009,
                    "velocity": 0.3858267716535433,
                    "duration": 0.11700462500000697
                },
                {
                    "name": "A4",
                    "midi": 69,
                    "time": 81.9032375000001,
                    "velocity": 0.3858267716535433,
                    "duration": 0.46801849999999945
                },
                {
                    "name": "C5",
                    "midi": 72,
                    "time": 81.9032375000001,
                    "velocity": 0.5196850393700787,
                    "duration": 0.23400924999999972
                },
                {
                    "name": "D#4",
                    "midi": 63,
                    "time": 81.9032375000001,
                    "velocity": 0.3858267716535433,
                    "duration": 0.46801849999999945
                },
                {
                    "name": "C#5",
                    "midi": 73,
                    "time": 82.1372467500001,
                    "velocity": 0.48031496062992124,
                    "duration": 0.23400924999999972
                },
                {
                    "name": "C#4",
                    "midi": 61,
                    "time": 82.3712560000001,
                    "velocity": 0.4409448818897638,
                    "duration": 1.872074000000012
                },
                {
                    "name": "A#4",
                    "midi": 70,
                    "time": 82.3712560000001,
                    "velocity": 0.5196850393700787,
                    "duration": 0.9360369999999989
                },
                {
                    "name": "C5",
                    "midi": 72,
                    "time": 83.3072930000001,
                    "velocity": 0.4881889763779528,
                    "duration": 0.46801849999999945
                },
                {
                    "name": "C#5",
                    "midi": 73,
                    "time": 83.7753115000001,
                    "velocity": 0.44881889763779526,
                    "duration": 0.23400924999999972
                },
                {
                    "name": "C5",
                    "midi": 72,
                    "time": 84.0093207500001,
                    "velocity": 0.3543307086614173,
                    "duration": 0.11700462500000697
                },
                {
                    "name": "C#5",
                    "midi": 73,
                    "time": 84.1263253750001,
                    "velocity": 0.3543307086614173,
                    "duration": 0.11700462500000697
                },
                {
                    "name": "C#4",
                    "midi": 61,
                    "time": 84.24333000000011,
                    "velocity": 0.33070866141732286,
                    "duration": 1.8720739999999978
                },
                {
                    "name": "C5",
                    "midi": 72,
                    "time": 84.24333000000011,
                    "velocity": 0.4566929133858268,
                    "duration": 0.9360369999999989
                },
                {
                    "name": "A#4",
                    "midi": 70,
                    "time": 85.17936700000011,
                    "velocity": 0.3779527559055118,
                    "duration": 0.46801849999999945
                },
                {
                    "name": "G#4",
                    "midi": 68,
                    "time": 85.64738550000011,
                    "velocity": 0.3228346456692913,
                    "duration": 0.46801849999999945
                },
                {
                    "name": "C#4",
                    "midi": 61,
                    "time": 86.11540400000011,
                    "velocity": 0.2283464566929134,
                    "duration": 2.8081109999999967
                },
                {
                    "name": "F4",
                    "midi": 65,
                    "time": 86.11540400000011,
                    "velocity": 0.2755905511811024,
                    "duration": 0.9360369999999989
                },
                {
                    "name": "F4",
                    "midi": 65,
                    "time": 87.05144100000011,
                    "velocity": 0.2125984251968504,
                    "duration": 1.8720739999999978
                },
                {
                    "name": "E4",
                    "midi": 64,
                    "time": 91.7316260000001,
                    "velocity": 0.2755905511811024,
                    "duration": 0.9360369999999989
                },
                {
                    "name": "E4",
                    "midi": 64,
                    "time": 92.6676630000001,
                    "velocity": 0.2125984251968504,
                    "duration": 1.8720739999999978
                },
                {
                    "name": "E5",
                    "midi": 76,
                    "time": 95.4757740000001,
                    "velocity": 0.28346456692913385,
                    "duration": 0.9360369999999989
                },
                {
                    "name": "A4",
                    "midi": 69,
                    "time": 96.4118110000001,
                    "velocity": 0.2204724409448819,
                    "duration": 0.9360369999999989
                },
                {
                    "name": "E5",
                    "midi": 76,
                    "time": 97.3478480000001,
                    "velocity": 0.2677165354330709,
                    "duration": 0.9360369999999989
                },
                {
                    "name": "A4",
                    "midi": 69,
                    "time": 98.2838850000001,
                    "velocity": 0.2125984251968504,
                    "duration": 0.9360369999999989
                },
                {
                    "name": "E5",
                    "midi": 76,
                    "time": 99.2199220000001,
                    "velocity": 0.25984251968503935,
                    "duration": 0.31201233333332823
                },
                {
                    "name": "A4",
                    "midi": 69,
                    "time": 99.53193433333342,
                    "velocity": 0.2283464566929134,
                    "duration": 0.31201233333332823
                },
                {
                    "name": "E5",
                    "midi": 76,
                    "time": 99.84394666666675,
                    "velocity": 0.2440944881889764,
                    "duration": 0.31201233333332823
                },
                {
                    "name": "F5",
                    "midi": 77,
                    "time": 100.15595900000008,
                    "velocity": 0.2755905511811024,
                    "duration": 0.31201233333332823
                },
                {
                    "name": "G5",
                    "midi": 79,
                    "time": 100.46797133333341,
                    "velocity": 0.2204724409448819,
                    "duration": 0.31201233333332823
                },
                {
                    "name": "F5",
                    "midi": 77,
                    "time": 100.77998366666674,
                    "velocity": 0.2204724409448819,
                    "duration": 0.31201233333332823
                },
                {
                    "name": "E5",
                    "midi": 76,
                    "time": 101.09199600000007,
                    "velocity": 0.2677165354330709,
                    "duration": 0.9360369999999989
                },
                {
                    "name": "A4",
                    "midi": 69,
                    "time": 102.02803300000006,
                    "velocity": 0.23622047244094488,
                    "duration": 0.7020277499999992
                },
                {
                    "name": "C#5",
                    "midi": 73,
                    "time": 102.73006075000006,
                    "velocity": 0.2283464566929134,
                    "duration": 1.1700462500000128
                },
                {
                    "name": "F5",
                    "midi": 77,
                    "time": 102.84706537500007,
                    "velocity": 0.25196850393700787,
                    "duration": 1.0530416250000059
                },
                {
                    "name": "A5",
                    "midi": 81,
                    "time": 102.96407000000008,
                    "velocity": 0.2677165354330709,
                    "duration": 1.872074000000012
                },
                {
                    "name": "E5",
                    "midi": 76,
                    "time": 103.90010700000008,
                    "velocity": 0.2283464566929134,
                    "duration": 0.7020277499999992
                },
                {
                    "name": "A4",
                    "midi": 69,
                    "time": 103.90010700000008,
                    "velocity": 0.1968503937007874,
                    "duration": 0.7020277499999992
                },
                {
                    "name": "C#5",
                    "midi": 73,
                    "time": 104.60213475000008,
                    "velocity": 0.25984251968503935,
                    "duration": 1.1700462500000128
                },
                {
                    "name": "F5",
                    "midi": 77,
                    "time": 104.71913937500008,
                    "velocity": 0.28346456692913385,
                    "duration": 1.0530416250000059
                },
                {
                    "name": "A5",
                    "midi": 81,
                    "time": 104.83614400000009,
                    "velocity": 0.2992125984251969,
                    "duration": 1.8720739999999978
                },
                {
                    "name": "E5",
                    "midi": 76,
                    "time": 105.77218100000009,
                    "velocity": 0.25984251968503935,
                    "duration": 0.9360369999999989
                },
                {
                    "name": "A4",
                    "midi": 69,
                    "time": 105.77218100000009,
                    "velocity": 0.2204724409448819,
                    "duration": 0.9360369999999989
                },
                {
                    "name": "C#5",
                    "midi": 73,
                    "time": 106.70821800000009,
                    "velocity": 0.28346456692913385,
                    "duration": 0.31201233333332823
                },
                {
                    "name": "A5",
                    "midi": 81,
                    "time": 106.70821800000009,
                    "velocity": 0.2992125984251969,
                    "duration": 0.31201233333332823
                },
                {
                    "name": "A4",
                    "midi": 69,
                    "time": 107.02023033333342,
                    "velocity": 0.2047244094488189,
                    "duration": 0.31201233333332823
                },
                {
                    "name": "E5",
                    "midi": 76,
                    "time": 107.02023033333342,
                    "velocity": 0.2440944881889764,
                    "duration": 0.31201233333332823
                },
                {
                    "name": "A5",
                    "midi": 81,
                    "time": 107.33224266666674,
                    "velocity": 0.2440944881889764,
                    "duration": 0.31201233333332823
                },
                {
                    "name": "C#5",
                    "midi": 73,
                    "time": 107.33224266666674,
                    "velocity": 0.18110236220472442,
                    "duration": 0.31201233333332823
                },
                {
                    "name": "A#5",
                    "midi": 82,
                    "time": 107.64425500000007,
                    "velocity": 0.3228346456692913,
                    "duration": 0.31201233333332823
                },
                {
                    "name": "D5",
                    "midi": 74,
                    "time": 107.64425500000007,
                    "velocity": 0.2440944881889764,
                    "duration": 0.31201233333332823
                },
                {
                    "name": "G5",
                    "midi": 79,
                    "time": 107.9562673333334,
                    "velocity": 0.2125984251968504,
                    "duration": 0.31201233333332823
                },
                {
                    "name": "C6",
                    "midi": 84,
                    "time": 107.9562673333334,
                    "velocity": 0.28346456692913385,
                    "duration": 0.31201233333332823
                },
                {
                    "name": "D5",
                    "midi": 74,
                    "time": 108.26827966666673,
                    "velocity": 0.1889763779527559,
                    "duration": 0.0780030833333285
                },
                {
                    "name": "A#5",
                    "midi": 82,
                    "time": 108.26827966666673,
                    "velocity": 0.25196850393700787,
                    "duration": 0.156006166666657
                },
                {
                    "name": "C#5",
                    "midi": 73,
                    "time": 108.42428583333339,
                    "velocity": 0.25984251968503935,
                    "duration": 1.092043166666656
                },
                {
                    "name": "F5",
                    "midi": 77,
                    "time": 108.50228891666671,
                    "velocity": 0.28346456692913385,
                    "duration": 1.0140400833333274
                },
                {
                    "name": "A5",
                    "midi": 81,
                    "time": 108.58029200000004,
                    "velocity": 0.2992125984251969,
                    "duration": 1.8720739999999978
                },
                {
                    "name": "E5",
                    "midi": 76,
                    "time": 109.51632900000004,
                    "velocity": 0.25984251968503935,
                    "duration": 0.9360369999999989
                },
                {
                    "name": "A4",
                    "midi": 69,
                    "time": 109.51632900000004,
                    "velocity": 0.2204724409448819,
                    "duration": 0.9360369999999989
                },
                {
                    "name": "D#5",
                    "midi": 75,
                    "time": 110.45236600000004,
                    "velocity": 0.3228346456692913,
                    "duration": 0.31201233333332823
                },
                {
                    "name": "A#5",
                    "midi": 82,
                    "time": 110.45236600000004,
                    "velocity": 0.33858267716535434,
                    "duration": 0.31201233333332823
                },
                {
                    "name": "A#4",
                    "midi": 70,
                    "time": 110.76437833333337,
                    "velocity": 0.2283464566929134,
                    "duration": 0.31201233333332823
                },
                {
                    "name": "G5",
                    "midi": 79,
                    "time": 110.76437833333337,
                    "velocity": 0.2755905511811024,
                    "duration": 0.31201233333332823
                },
                {
                    "name": "A#5",
                    "midi": 82,
                    "time": 111.0763906666667,
                    "velocity": 0.2755905511811024,
                    "duration": 0.31201233333332823
                },
                {
                    "name": "D#5",
                    "midi": 75,
                    "time": 111.0763906666667,
                    "velocity": 0.2047244094488189,
                    "duration": 0.31201233333332823
                },
                {
                    "name": "C6",
                    "midi": 84,
                    "time": 111.38840300000003,
                    "velocity": 0.3700787401574803,
                    "duration": 0.31201233333332823
                },
                {
                    "name": "G5",
                    "midi": 79,
                    "time": 111.38840300000003,
                    "velocity": 0.2755905511811024,
                    "duration": 0.31201233333332823
                },
                {
                    "name": "A#5",
                    "midi": 82,
                    "time": 111.70041533333335,
                    "velocity": 0.2440944881889764,
                    "duration": 0.31201233333332823
                },
                {
                    "name": "D6",
                    "midi": 86,
                    "time": 111.70041533333335,
                    "velocity": 0.3228346456692913,
                    "duration": 0.31201233333332823
                },
                {
                    "name": "G5",
                    "midi": 79,
                    "time": 112.01242766666668,
                    "velocity": 0.2125984251968504,
                    "duration": 0.0780030833333285
                },
                {
                    "name": "C6",
                    "midi": 84,
                    "time": 112.01242766666668,
                    "velocity": 0.28346456692913385,
                    "duration": 0.156006166666657
                },
                {
                    "name": "F5",
                    "midi": 77,
                    "time": 112.16843383333334,
                    "velocity": 0.29133858267716534,
                    "duration": 1.0920431666666701
                },
                {
                    "name": "A#5",
                    "midi": 82,
                    "time": 112.32444000000001,
                    "velocity": 0.33858267716535434,
                    "duration": 1.8720739999999978
                },
                {
                    "name": "D#5",
                    "midi": 75,
                    "time": 113.26047700000001,
                    "velocity": 0.29133858267716534,
                    "duration": 0.9360369999999989
                },
                {
                    "name": "A#4",
                    "midi": 70,
                    "time": 113.26047700000001,
                    "velocity": 0.25196850393700787,
                    "duration": 0.9360369999999989
                },
                {
                    "name": "D#5",
                    "midi": 75,
                    "time": 114.19651400000001,
                    "velocity": 0.3700787401574803,
                    "duration": 0.31201233333332823
                },
                {
                    "name": "C6",
                    "midi": 84,
                    "time": 114.19651400000001,
                    "velocity": 0.3858267716535433,
                    "duration": 0.31201233333332823
                },
                {
                    "name": "C5",
                    "midi": 72,
                    "time": 114.50852633333334,
                    "velocity": 0.25984251968503935,
                    "duration": 0.31201233333332823
                },
                {
                    "name": "G5",
                    "midi": 79,
                    "time": 114.50852633333334,
                    "velocity": 0.31496062992125984,
                    "duration": 0.31201233333332823
                },
                {
                    "name": "C6",
                    "midi": 84,
                    "time": 114.82053866666666,
                    "velocity": 0.31496062992125984,
                    "duration": 0.31201233333332823
                },
                {
                    "name": "D#5",
                    "midi": 75,
                    "time": 114.82053866666666,
                    "velocity": 0.2283464566929134,
                    "duration": 0.31201233333332823
                },
                {
                    "name": "D#6",
                    "midi": 87,
                    "time": 115.13255099999999,
                    "velocity": 0.4251968503937008,
                    "duration": 0.31201233333332823
                },
                {
                    "name": "G5",
                    "midi": 79,
                    "time": 115.13255099999999,
                    "velocity": 0.31496062992125984,
                    "duration": 0.31201233333332823
                },
                {
                    "name": "C6",
                    "midi": 84,
                    "time": 115.44456333333332,
                    "velocity": 0.2755905511811024,
                    "duration": 0.31201233333332823
                },
                {
                    "name": "F6",
                    "midi": 89,
                    "time": 115.44456333333332,
                    "velocity": 0.3700787401574803,
                    "duration": 0.31201233333332823
                },
                {
                    "name": "G5",
                    "midi": 79,
                    "time": 115.75657566666665,
                    "velocity": 0.2440944881889764,
                    "duration": 0.0780030833333285
                },
                {
                    "name": "D#6",
                    "midi": 87,
                    "time": 115.75657566666665,
                    "velocity": 0.3228346456692913,
                    "duration": 0.156006166666657
                },
                {
                    "name": "D#5",
                    "midi": 75,
                    "time": 115.9125818333333,
                    "velocity": 0.33070866141732286,
                    "duration": 1.0920431666666701
                },
                {
                    "name": "C6",
                    "midi": 84,
                    "time": 116.06858799999998,
                    "velocity": 0.4409448818897638,
                    "duration": 1.872074000000012
                },
                {
                    "name": "C5",
                    "midi": 72,
                    "time": 117.00462499999998,
                    "velocity": 0.3543307086614173,
                    "duration": 0.8190323750000061
                },
                {
                    "name": "G5",
                    "midi": 79,
                    "time": 117.00462499999998,
                    "velocity": 0.3543307086614173,
                    "duration": 0.8190323750000061
                },
                {
                    "name": "C6",
                    "midi": 84,
                    "time": 117.82365737499998,
                    "velocity": 0.4015748031496063,
                    "duration": 1.0530416250000059
                },
                {
                    "name": "F#6",
                    "midi": 90,
                    "time": 117.94066199999999,
                    "velocity": 0.5196850393700787,
                    "duration": 0.9360369999999989
                },
                {
                    "name": "D#6",
                    "midi": 87,
                    "time": 118.87669899999999,
                    "velocity": 0.5039370078740157,
                    "duration": 0.8190323750000061
                },
                {
                    "name": "F#5",
                    "midi": 78,
                    "time": 118.87669899999999,
                    "velocity": 0.4251968503937008,
                    "duration": 0.8190323750000061
                },
                {
                    "name": "C6",
                    "midi": 84,
                    "time": 119.695731375,
                    "velocity": 0.4015748031496063,
                    "duration": 1.0530416250000059
                },
                {
                    "name": "F#6",
                    "midi": 90,
                    "time": 119.812736,
                    "velocity": 0.5196850393700787,
                    "duration": 0.9360369999999989
                },
                {
                    "name": "D#6",
                    "midi": 87,
                    "time": 120.748773,
                    "velocity": 0.5118110236220472,
                    "duration": 0.8190323750000061
                },
                {
                    "name": "F#5",
                    "midi": 78,
                    "time": 120.748773,
                    "velocity": 0.4330708661417323,
                    "duration": 0.8190323750000061
                },
                {
                    "name": "C6",
                    "midi": 84,
                    "time": 121.567805375,
                    "velocity": 0.4015748031496063,
                    "duration": 0.5850231250000064
                },
                {
                    "name": "F#6",
                    "midi": 90,
                    "time": 121.68481000000001,
                    "velocity": 0.5433070866141733,
                    "duration": 0.46801849999999945
                },
                {
                    "name": "D#6",
                    "midi": 87,
                    "time": 122.15282850000001,
                    "velocity": 0.5118110236220472,
                    "duration": 0.46801849999999945
                },
                {
                    "name": "F#5",
                    "midi": 78,
                    "time": 122.15282850000001,
                    "velocity": 0.4251968503937008,
                    "duration": 0.46801849999999945
                },
                {
                    "name": "F#6",
                    "midi": 90,
                    "time": 122.62084700000001,
                    "velocity": 0.5748031496062992,
                    "duration": 0.46801849999999945
                },
                {
                    "name": "C6",
                    "midi": 84,
                    "time": 122.62084700000001,
                    "velocity": 0.4881889763779528,
                    "duration": 0.46801849999999945
                },
                {
                    "name": "D#6",
                    "midi": 87,
                    "time": 123.08886550000001,
                    "velocity": 0.5511811023622047,
                    "duration": 0.46801849999999945
                },
                {
                    "name": "F#5",
                    "midi": 78,
                    "time": 123.08886550000001,
                    "velocity": 0.4645669291338583,
                    "duration": 0.46801849999999945
                },
                {
                    "name": "F#6",
                    "midi": 90,
                    "time": 123.55688400000001,
                    "velocity": 0.5984251968503937,
                    "duration": 0.46801849999999945
                },
                {
                    "name": "C6",
                    "midi": 84,
                    "time": 123.55688400000001,
                    "velocity": 0.5039370078740157,
                    "duration": 0.46801849999999945
                },
                {
                    "name": "F#5",
                    "midi": 78,
                    "time": 124.02490250000001,
                    "velocity": 0.4251968503937008,
                    "duration": 0.46801849999999945
                },
                {
                    "name": "D#6",
                    "midi": 87,
                    "time": 124.02490250000001,
                    "velocity": 0.49606299212598426,
                    "duration": 0.46801849999999945
                },
                {
                    "name": "F#6",
                    "midi": 90,
                    "time": 124.49292100000001,
                    "velocity": 0.6299212598425197,
                    "duration": 0.46801849999999945
                },
                {
                    "name": "C6",
                    "midi": 84,
                    "time": 124.49292100000001,
                    "velocity": 0.5354330708661418,
                    "duration": 0.46801849999999945
                },
                {
                    "name": "D#6",
                    "midi": 87,
                    "time": 124.96093950000001,
                    "velocity": 0.5669291338582677,
                    "duration": 0.3510138750000067
                },
                {
                    "name": "F#5",
                    "midi": 78,
                    "time": 124.96093950000001,
                    "velocity": 0.48031496062992124,
                    "duration": 0.3510138750000067
                },
                {
                    "name": "C6",
                    "midi": 84,
                    "time": 125.31195337500002,
                    "velocity": 0.36220472440944884,
                    "duration": 0.11700462500000697
                },
                {
                    "name": "G6",
                    "midi": 91,
                    "time": 125.42895800000002,
                    "velocity": 0.5039370078740157,
                    "duration": 0.9360369999999989
                },
                {
                    "name": "G5",
                    "midi": 79,
                    "time": 126.36499500000002,
                    "velocity": 0.47244094488188976,
                    "duration": 0.7800308333333277
                },
                {
                    "name": "G5",
                    "midi": 79,
                    "time": 127.18402737500001,
                    "velocity": 0.3779527559055118,
                    "duration": 0.11700462500000697
                },
                {
                    "name": "D6",
                    "midi": 86,
                    "time": 127.30103200000002,
                    "velocity": 0.4881889763779528,
                    "duration": 0.9360369999999989
                },
                {
                    "name": "D5",
                    "midi": 74,
                    "time": 128.23706900000002,
                    "velocity": 0.4251968503937008,
                    "duration": 0.7800308333333419
                },
                {
                    "name": "D5",
                    "midi": 74,
                    "time": 129.05610137500003,
                    "velocity": 0.31496062992125984,
                    "duration": 0.11700462499999276
                },
                {
                    "name": "G5",
                    "midi": 79,
                    "time": 129.17310600000002,
                    "velocity": 0.4094488188976378,
                    "duration": 0.9360369999999989
                },
                {
                    "name": "G4",
                    "midi": 67,
                    "time": 130.10914300000002,
                    "velocity": 0.3543307086614173,
                    "duration": 0.7800308333333419
                },
                {
                    "name": "G4",
                    "midi": 67,
                    "time": 130.92817537500002,
                    "velocity": 0.25196850393700787,
                    "duration": 0.11700462499999276
                },
                {
                    "name": "D5",
                    "midi": 74,
                    "time": 131.04518000000002,
                    "velocity": 0.3228346456692913,
                    "duration": 0.9360369999999989
                },
                {
                    "name": "D4",
                    "midi": 62,
                    "time": 131.98121700000002,
                    "velocity": 0.2283464566929134,
                    "duration": 0.7800308333333419
                },
                {
                    "name": "D4",
                    "midi": 62,
                    "time": 132.80024937500002,
                    "velocity": 0.2283464566929134,
                    "duration": 0.11700462499999276
                },
                {
                    "name": "G4",
                    "midi": 67,
                    "time": 132.917254,
                    "velocity": 0.2755905511811024,
                    "duration": 0.9360369999999989
                },
                {
                    "name": "D4",
                    "midi": 62,
                    "time": 133.853291,
                    "velocity": 0.2047244094488189,
                    "duration": 0.9360369999999989
                },
                {
                    "name": "G4",
                    "midi": 67,
                    "time": 134.789328,
                    "velocity": 0.2755905511811024,
                    "duration": 0.9360369999999989
                },
                {
                    "name": "D4",
                    "midi": 62,
                    "time": 135.725365,
                    "velocity": 0.2125984251968504,
                    "duration": 0.9360369999999989
                },
                {
                    "name": "G4",
                    "midi": 67,
                    "time": 136.661402,
                    "velocity": 0.29133858267716534,
                    "duration": 0.31201233333334244
                },
                {
                    "name": "F#4",
                    "midi": 66,
                    "time": 136.97341433333335,
                    "velocity": 0.25984251968503935,
                    "duration": 0.312012333333314
                },
                {
                    "name": "D4",
                    "midi": 62,
                    "time": 137.1294205,
                    "velocity": 0.2204724409448819,
                    "duration": 0.46801849999999945
                },
                {
                    "name": "G4",
                    "midi": 67,
                    "time": 137.28542666666667,
                    "velocity": 0.2755905511811024,
                    "duration": 0.31201233333334244
                },
                {
                    "name": "E4",
                    "midi": 64,
                    "time": 137.597439,
                    "velocity": 0.2204724409448819,
                    "duration": 0.46801849999999945
                },
                {
                    "name": "A4",
                    "midi": 69,
                    "time": 137.597439,
                    "velocity": 0.30708661417322836,
                    "duration": 0.31201233333334244
                },
                {
                    "name": "B4",
                    "midi": 71,
                    "time": 137.90945133333335,
                    "velocity": 0.25196850393700787,
                    "duration": 0.312012333333314
                },
                {
                    "name": "F#4",
                    "midi": 66,
                    "time": 138.0654575,
                    "velocity": 0.18110236220472442,
                    "duration": 0.46801849999999945
                },
                {
                    "name": "A4",
                    "midi": 69,
                    "time": 138.22146366666666,
                    "velocity": 0.25196850393700787,
                    "duration": 0.31201233333334244
                },
                {
                    "name": "G4",
                    "midi": 67,
                    "time": 138.533476,
                    "velocity": 0.2992125984251969,
                    "duration": 0.9360369999999989
                },
                {
                    "name": "D4",
                    "midi": 62,
                    "time": 139.469513,
                    "velocity": 0.2677165354330709,
                    "duration": 0.7020277500000134
                },
                {
                    "name": "F#4",
                    "midi": 66,
                    "time": 140.17154075000002,
                    "velocity": 0.25984251968503935,
                    "duration": 1.1700462499999844
                },
                {
                    "name": "B4",
                    "midi": 71,
                    "time": 140.288545375,
                    "velocity": 0.28346456692913385,
                    "duration": 1.0530416249999917
                },
                {
                    "name": "D5",
                    "midi": 74,
                    "time": 140.40555,
                    "velocity": 0.2992125984251969,
                    "duration": 1.8720739999999978
                },
                {
                    "name": "A4",
                    "midi": 69,
                    "time": 141.341587,
                    "velocity": 0.25984251968503935,
                    "duration": 0.7020277500000134
                },
                {
                    "name": "D4",
                    "midi": 62,
                    "time": 141.341587,
                    "velocity": 0.2204724409448819,
                    "duration": 0.7020277500000134
                },
                {
                    "name": "F#4",
                    "midi": 66,
                    "time": 142.04361475000002,
                    "velocity": 0.25984251968503935,
                    "duration": 1.1700462499999844
                },
                {
                    "name": "B4",
                    "midi": 71,
                    "time": 142.160619375,
                    "velocity": 0.28346456692913385,
                    "duration": 1.0530416249999917
                },
                {
                    "name": "D5",
                    "midi": 74,
                    "time": 142.277624,
                    "velocity": 0.2992125984251969,
                    "duration": 1.8720739999999978
                },
                {
                    "name": "A4",
                    "midi": 69,
                    "time": 143.213661,
                    "velocity": 0.25984251968503935,
                    "duration": 0.7020277500000134
                },
                {
                    "name": "D4",
                    "midi": 62,
                    "time": 143.213661,
                    "velocity": 0.2204724409448819,
                    "duration": 0.7020277500000134
                },
                {
                    "name": "F#4",
                    "midi": 66,
                    "time": 143.91568875000002,
                    "velocity": 0.25984251968503935,
                    "duration": 0.546021583333328
                },
                {
                    "name": "B4",
                    "midi": 71,
                    "time": 144.032693375,
                    "velocity": 0.28346456692913385,
                    "duration": 0.4290169583333352
                },
                {
                    "name": "D5",
                    "midi": 74,
                    "time": 144.149698,
                    "velocity": 0.2992125984251969,
                    "duration": 0.31201233333334244
                },
                {
                    "name": "D4",
                    "midi": 62,
                    "time": 144.46171033333334,
                    "velocity": 0.2047244094488189,
                    "duration": 0.31201233333334244
                },
                {
                    "name": "A4",
                    "midi": 69,
                    "time": 144.46171033333334,
                    "velocity": 0.2440944881889764,
                    "duration": 0.31201233333334244
                },
                {
                    "name": "D5",
                    "midi": 74,
                    "time": 144.77372266666669,
                    "velocity": 0.2440944881889764,
                    "duration": 0.31201233333334244
                },
                {
                    "name": "F#4",
                    "midi": 66,
                    "time": 144.77372266666669,
                    "velocity": 0.18110236220472442,
                    "duration": 0.31201233333334244
                },
                {
                    "name": "E5",
                    "midi": 76,
                    "time": 145.08573500000003,
                    "velocity": 0.3228346456692913,
                    "duration": 0.31201233333334244
                },
                {
                    "name": "G4",
                    "midi": 67,
                    "time": 145.08573500000003,
                    "velocity": 0.2440944881889764,
                    "duration": 0.31201233333334244
                },
                {
                    "name": "C5",
                    "midi": 72,
                    "time": 145.39774733333337,
                    "velocity": 0.2125984251968504,
                    "duration": 0.31201233333334244
                },
                {
                    "name": "F#5",
                    "midi": 78,
                    "time": 145.39774733333337,
                    "velocity": 0.28346456692913385,
                    "duration": 0.31201233333334244
                },
                {
                    "name": "G4",
                    "midi": 67,
                    "time": 145.7097596666667,
                    "velocity": 0.1889763779527559,
                    "duration": 0.0780030833333285
                },
                {
                    "name": "E5",
                    "midi": 76,
                    "time": 145.7097596666667,
                    "velocity": 0.25196850393700787,
                    "duration": 0.156006166666657
                },
                {
                    "name": "F#4",
                    "midi": 66,
                    "time": 145.86576583333337,
                    "velocity": 0.25984251968503935,
                    "duration": 1.092043166666656
                },
                {
                    "name": "B4",
                    "midi": 71,
                    "time": 145.9437689166667,
                    "velocity": 0.28346456692913385,
                    "duration": 1.0140400833333274
                },
                {
                    "name": "D5",
                    "midi": 74,
                    "time": 146.02177200000003,
                    "velocity": 0.2992125984251969,
                    "duration": 1.8720739999999978
                },
                {
                    "name": "A4",
                    "midi": 69,
                    "time": 146.95780900000003,
                    "velocity": 0.25984251968503935,
                    "duration": 0.7020277500000134
                },
                {
                    "name": "D4",
                    "midi": 62,
                    "time": 146.95780900000003,
                    "velocity": 0.2204724409448819,
                    "duration": 0.7020277500000134
                },
                {
                    "name": "E5",
                    "midi": 76,
                    "time": 147.77684137500003,
                    "velocity": 0.2992125984251969,
                    "duration": 1.0530416249999917
                },
                {
                    "name": "G5",
                    "midi": 79,
                    "time": 147.89384600000002,
                    "velocity": 0.3464566929133858,
                    "duration": 0.9360369999999989
                },
                {
                    "name": "D5",
                    "midi": 74,
                    "time": 148.82988300000002,
                    "velocity": 0.2677165354330709,
                    "duration": 0.9360369999999989
                },
                {
                    "name": "G4",
                    "midi": 67,
                    "time": 148.82988300000002,
                    "velocity": 0.2204724409448819,
                    "duration": 0.9360369999999989
                },
                {
                    "name": "E5",
                    "midi": 76,
                    "time": 149.64891537500003,
                    "velocity": 0.2992125984251969,
                    "duration": 1.0530416249999917
                },
                {
                    "name": "G5",
                    "midi": 79,
                    "time": 149.76592000000002,
                    "velocity": 0.3464566929133858,
                    "duration": 0.9360369999999989
                },
                {
                    "name": "D5",
                    "midi": 74,
                    "time": 150.70195700000002,
                    "velocity": 0.2677165354330709,
                    "duration": 0.8190323750000061
                },
                {
                    "name": "G4",
                    "midi": 67,
                    "time": 150.70195700000002,
                    "velocity": 0.2204724409448819,
                    "duration": 0.8190323750000061
                },
                {
                    "name": "E5",
                    "midi": 76,
                    "time": 151.52098937500003,
                    "velocity": 0.2677165354330709,
                    "duration": 0.4290169583333352
                },
                {
                    "name": "G5",
                    "midi": 79,
                    "time": 151.63799400000002,
                    "velocity": 0.29133858267716534,
                    "duration": 0.31201233333334244
                },
                {
                    "name": "G4",
                    "midi": 67,
                    "time": 151.95000633333336,
                    "velocity": 0.2204724409448819,
                    "duration": 0.23400925000001394
                },
                {
                    "name": "D5",
                    "midi": 74,
                    "time": 151.95000633333336,
                    "velocity": 0.25984251968503935,
                    "duration": 0.31201233333334244
                },
                {
                    "name": "G5",
                    "midi": 79,
                    "time": 152.2620186666667,
                    "velocity": 0.31496062992125984,
                    "duration": 0.31201233333334244
                },
                {
                    "name": "E5",
                    "midi": 76,
                    "time": 152.57403100000005,
                    "velocity": 0.2204724409448819,
                    "duration": 0.46801849999999945
                },
                {
                    "name": "A5",
                    "midi": 81,
                    "time": 152.57403100000005,
                    "velocity": 0.3464566929133858,
                    "duration": 0.31201233333334244
                },
                {
                    "name": "B5",
                    "midi": 83,
                    "time": 152.8860433333334,
                    "velocity": 0.30708661417322836,
                    "duration": 0.312012333333314
                },
                {
                    "name": "F#5",
                    "midi": 78,
                    "time": 153.04204950000005,
                    "velocity": 0.18110236220472442,
                    "duration": 0.468018499999971
                },
                {
                    "name": "A5",
                    "midi": 81,
                    "time": 153.1980556666667,
                    "velocity": 0.2992125984251969,
                    "duration": 0.19500770833332126
                },
                {
                    "name": "E5",
                    "midi": 76,
                    "time": 153.39306337500003,
                    "velocity": 0.2992125984251969,
                    "duration": 1.0530416249999917
                },
                {
                    "name": "G5",
                    "midi": 79,
                    "time": 153.51006800000002,
                    "velocity": 0.3464566929133858,
                    "duration": 0.9360369999999989
                },
                {
                    "name": "D5",
                    "midi": 74,
                    "time": 154.44610500000002,
                    "velocity": 0.2677165354330709,
                    "duration": 0.9360369999999989
                },
                {
                    "name": "G4",
                    "midi": 67,
                    "time": 154.44610500000002,
                    "velocity": 0.2204724409448819,
                    "duration": 0.9360369999999989
                },
                {
                    "name": "A5",
                    "midi": 81,
                    "time": 155.14813275000003,
                    "velocity": 0.28346456692913385,
                    "duration": 1.1700462499999844
                },
                {
                    "name": "B5",
                    "midi": 83,
                    "time": 155.26513737500002,
                    "velocity": 0.3228346456692913,
                    "duration": 1.755069375000005
                },
                {
                    "name": "D6",
                    "midi": 86,
                    "time": 155.38214200000002,
                    "velocity": 0.4094488188976378,
                    "duration": 1.6380647500000123
                },
                {
                    "name": "G5",
                    "midi": 79,
                    "time": 156.31817900000001,
                    "velocity": 0.25984251968503935,
                    "duration": 0.7020277500000134
                },
                {
                    "name": "D5",
                    "midi": 74,
                    "time": 156.31817900000001,
                    "velocity": 0.2204724409448819,
                    "duration": 0.7020277500000134
                },
                {
                    "name": "A#5",
                    "midi": 82,
                    "time": 157.02020675000003,
                    "velocity": 0.28346456692913385,
                    "duration": 1.1700462499999844
                },
                {
                    "name": "D6",
                    "midi": 86,
                    "time": 157.13721137500002,
                    "velocity": 0.3228346456692913,
                    "duration": 1.0530416249999917
                },
                {
                    "name": "E6",
                    "midi": 88,
                    "time": 157.254216,
                    "velocity": 0.4094488188976378,
                    "duration": 1.6380647500000123
                },
                {
                    "name": "C#6",
                    "midi": 85,
                    "time": 158.190253,
                    "velocity": 0.25984251968503935,
                    "duration": 0.7020277500000134
                },
                {
                    "name": "E5",
                    "midi": 76,
                    "time": 158.190253,
                    "velocity": 0.2204724409448819,
                    "duration": 0.7020277500000134
                },
                {
                    "name": "C6",
                    "midi": 84,
                    "time": 158.89228075000003,
                    "velocity": 0.25196850393700787,
                    "duration": 1.1700462499999844
                },
                {
                    "name": "E6",
                    "midi": 88,
                    "time": 159.00928537500002,
                    "velocity": 0.29133858267716534,
                    "duration": 1.0530416249999917
                },
                {
                    "name": "F#6",
                    "midi": 90,
                    "time": 159.12629,
                    "velocity": 0.36220472440944884,
                    "duration": 1.6380647500000123
                },
                {
                    "name": "D6",
                    "midi": 86,
                    "time": 160.062327,
                    "velocity": 0.2283464566929134,
                    "duration": 0.7020277500000134
                },
                {
                    "name": "F#5",
                    "midi": 78,
                    "time": 160.062327,
                    "velocity": 0.1968503937007874,
                    "duration": 0.7020277500000134
                },
                {
                    "name": "B5",
                    "midi": 83,
                    "time": 160.76435475000002,
                    "velocity": 0.25196850393700787,
                    "duration": 1.1700462499999844
                },
                {
                    "name": "D6",
                    "midi": 86,
                    "time": 160.88135937500002,
                    "velocity": 0.2755905511811024,
                    "duration": 1.0530416249999917
                },
                {
                    "name": "G6",
                    "midi": 91,
                    "time": 160.998364,
                    "velocity": 0.2992125984251969,
                    "duration": 1.8720739999999978
                },
                {
                    "name": "G5",
                    "midi": 79,
                    "time": 161.934401,
                    "velocity": 0.2047244094488189,
                    "duration": 0.8190323750000061
                }
            ],
            "controlChanges": {},
            "id": 1,
            "name": "Piano right",
            "instrumentNumber": 0,
            "instrument": "acoustic grand piano",
            "instrumentFamily": "piano",
            "channelNumber": 0,
            "isPercussion": false
        },
        {
            "startTime": 0,
            "duration": 162.75343337500036,
            "length": 476,
            "notes": [
                {
                    "name": "G2",
                    "midi": 43,
                    "time": 0,
                    "velocity": 0.2204724409448819,
                    "duration": 0.4680185
                },
                {
                    "name": "B3",
                    "midi": 59,
                    "time": 0.4680185,
                    "velocity": 0.15748031496062992,
                    "duration": 0.9360370000000001
                },
                {
                    "name": "D3",
                    "midi": 50,
                    "time": 0.4680185,
                    "velocity": 0.13385826771653545,
                    "duration": 0.9360370000000001
                },
                {
                    "name": "B3",
                    "midi": 59,
                    "time": 1.4040555000000001,
                    "velocity": 0.15748031496062992,
                    "duration": 0.4680184999999999
                },
                {
                    "name": "D3",
                    "midi": 50,
                    "time": 1.4040555000000001,
                    "velocity": 0.13385826771653545,
                    "duration": 0.4680184999999999
                },
                {
                    "name": "G2",
                    "midi": 43,
                    "time": 1.872074,
                    "velocity": 0.2204724409448819,
                    "duration": 0.4680184999999999
                },
                {
                    "name": "B3",
                    "midi": 59,
                    "time": 2.3400925,
                    "velocity": 0.16535433070866143,
                    "duration": 0.9360369999999998
                },
                {
                    "name": "D3",
                    "midi": 50,
                    "time": 2.3400925,
                    "velocity": 0.13385826771653545,
                    "duration": 0.9360369999999998
                },
                {
                    "name": "B3",
                    "midi": 59,
                    "time": 3.2761294999999997,
                    "velocity": 0.16535433070866143,
                    "duration": 0.4680184999999999
                },
                {
                    "name": "D3",
                    "midi": 50,
                    "time": 3.2761294999999997,
                    "velocity": 0.13385826771653545,
                    "duration": 0.4680184999999999
                },
                {
                    "name": "G2",
                    "midi": 43,
                    "time": 3.7441479999999996,
                    "velocity": 0.2204724409448819,
                    "duration": 0.4680184999999999
                },
                {
                    "name": "B3",
                    "midi": 59,
                    "time": 4.2121664999999995,
                    "velocity": 0.1889763779527559,
                    "duration": 0.9360369999999998
                },
                {
                    "name": "D3",
                    "midi": 50,
                    "time": 4.2121664999999995,
                    "velocity": 0.15748031496062992,
                    "duration": 0.9360369999999998
                },
                {
                    "name": "C4",
                    "midi": 60,
                    "time": 5.148203499999999,
                    "velocity": 0.18110236220472442,
                    "duration": 0.46801850000000034
                },
                {
                    "name": "D3",
                    "midi": 50,
                    "time": 5.148203499999999,
                    "velocity": 0.14960629921259844,
                    "duration": 0.46801850000000034
                },
                {
                    "name": "G2",
                    "midi": 43,
                    "time": 5.616222,
                    "velocity": 0.2204724409448819,
                    "duration": 0.46801850000000034
                },
                {
                    "name": "B3",
                    "midi": 59,
                    "time": 6.0842405,
                    "velocity": 0.1889763779527559,
                    "duration": 0.9360369999999998
                },
                {
                    "name": "D3",
                    "midi": 50,
                    "time": 6.0842405,
                    "velocity": 0.15748031496062992,
                    "duration": 0.9360369999999998
                },
                {
                    "name": "B3",
                    "midi": 59,
                    "time": 7.0202775,
                    "velocity": 0.1889763779527559,
                    "duration": 0.23400924999999972
                },
                {
                    "name": "D3",
                    "midi": 50,
                    "time": 7.0202775,
                    "velocity": 0.15748031496062992,
                    "duration": 0.23400924999999972
                },
                {
                    "name": "G2",
                    "midi": 43,
                    "time": 7.488295999999999,
                    "velocity": 0.2204724409448819,
                    "duration": 0.46801850000000034
                },
                {
                    "name": "C4",
                    "midi": 60,
                    "time": 7.9563144999999995,
                    "velocity": 0.1889763779527559,
                    "duration": 0.9360370000000007
                },
                {
                    "name": "D3",
                    "midi": 50,
                    "time": 7.9563144999999995,
                    "velocity": 0.15748031496062992,
                    "duration": 0.9360370000000007
                },
                {
                    "name": "C4",
                    "midi": 60,
                    "time": 8.8923515,
                    "velocity": 0.18110236220472442,
                    "duration": 0.23400924999999972
                },
                {
                    "name": "D3",
                    "midi": 50,
                    "time": 8.8923515,
                    "velocity": 0.14960629921259844,
                    "duration": 0.23400924999999972
                },
                {
                    "name": "G2",
                    "midi": 43,
                    "time": 9.36037,
                    "velocity": 0.2204724409448819,
                    "duration": 0.46801849999999945
                },
                {
                    "name": "C4",
                    "midi": 60,
                    "time": 9.828388499999999,
                    "velocity": 0.1889763779527559,
                    "duration": 0.9360370000000007
                },
                {
                    "name": "D3",
                    "midi": 50,
                    "time": 9.828388499999999,
                    "velocity": 0.15748031496062992,
                    "duration": 0.9360370000000007
                },
                {
                    "name": "C4",
                    "midi": 60,
                    "time": 10.7644255,
                    "velocity": 0.18110236220472442,
                    "duration": 0.23400924999999972
                },
                {
                    "name": "D3",
                    "midi": 50,
                    "time": 10.7644255,
                    "velocity": 0.14960629921259844,
                    "duration": 0.23400924999999972
                },
                {
                    "name": "G2",
                    "midi": 43,
                    "time": 11.232444,
                    "velocity": 0.2204724409448819,
                    "duration": 0.46801849999999945
                },
                {
                    "name": "C4",
                    "midi": 60,
                    "time": 11.700462499999999,
                    "velocity": 0.1889763779527559,
                    "duration": 0.9360370000000007
                },
                {
                    "name": "D3",
                    "midi": 50,
                    "time": 11.700462499999999,
                    "velocity": 0.15748031496062992,
                    "duration": 0.9360370000000007
                },
                {
                    "name": "C4",
                    "midi": 60,
                    "time": 12.6364995,
                    "velocity": 0.18110236220472442,
                    "duration": 0.23400924999999972
                },
                {
                    "name": "D3",
                    "midi": 50,
                    "time": 12.6364995,
                    "velocity": 0.14960629921259844,
                    "duration": 0.23400924999999972
                },
                {
                    "name": "G2",
                    "midi": 43,
                    "time": 13.104517999999999,
                    "velocity": 0.2204724409448819,
                    "duration": 0.46801849999999945
                },
                {
                    "name": "C4",
                    "midi": 60,
                    "time": 13.572536499999998,
                    "velocity": 0.1889763779527559,
                    "duration": 0.9360370000000007
                },
                {
                    "name": "D3",
                    "midi": 50,
                    "time": 13.572536499999998,
                    "velocity": 0.15748031496062992,
                    "duration": 0.9360370000000007
                },
                {
                    "name": "C4",
                    "midi": 60,
                    "time": 14.508573499999999,
                    "velocity": 0.18110236220472442,
                    "duration": 0.23400924999999972
                },
                {
                    "name": "D3",
                    "midi": 50,
                    "time": 14.508573499999999,
                    "velocity": 0.14960629921259844,
                    "duration": 0.23400924999999972
                },
                {
                    "name": "G3",
                    "midi": 55,
                    "time": 14.976591999999998,
                    "velocity": 0.2204724409448819,
                    "duration": 0.46801849999999945
                },
                {
                    "name": "B4",
                    "midi": 71,
                    "time": 15.444610499999998,
                    "velocity": 0.1889763779527559,
                    "duration": 0.9360370000000007
                },
                {
                    "name": "D4",
                    "midi": 62,
                    "time": 15.444610499999998,
                    "velocity": 0.15748031496062992,
                    "duration": 0.9360370000000007
                },
                {
                    "name": "B4",
                    "midi": 71,
                    "time": 16.3806475,
                    "velocity": 0.18110236220472442,
                    "duration": 0.23400924999999972
                },
                {
                    "name": "D4",
                    "midi": 62,
                    "time": 16.3806475,
                    "velocity": 0.14960629921259844,
                    "duration": 0.23400924999999972
                },
                {
                    "name": "G3",
                    "midi": 55,
                    "time": 16.848665999999998,
                    "velocity": 0.2204724409448819,
                    "duration": 0.46801849999999945
                },
                {
                    "name": "B4",
                    "midi": 71,
                    "time": 17.316684499999997,
                    "velocity": 0.1889763779527559,
                    "duration": 0.9360369999999989
                },
                {
                    "name": "D4",
                    "midi": 62,
                    "time": 17.316684499999997,
                    "velocity": 0.15748031496062992,
                    "duration": 0.9360369999999989
                },
                {
                    "name": "B4",
                    "midi": 71,
                    "time": 18.252721499999996,
                    "velocity": 0.18110236220472442,
                    "duration": 0.23400924999999972
                },
                {
                    "name": "D4",
                    "midi": 62,
                    "time": 18.252721499999996,
                    "velocity": 0.14960629921259844,
                    "duration": 0.23400924999999972
                },
                {
                    "name": "G3",
                    "midi": 55,
                    "time": 18.720739999999996,
                    "velocity": 0.2204724409448819,
                    "duration": 0.46801849999999945
                },
                {
                    "name": "B4",
                    "midi": 71,
                    "time": 19.188758499999995,
                    "velocity": 0.1889763779527559,
                    "duration": 0.9360369999999989
                },
                {
                    "name": "D4",
                    "midi": 62,
                    "time": 19.188758499999995,
                    "velocity": 0.15748031496062992,
                    "duration": 0.9360369999999989
                },
                {
                    "name": "C5",
                    "midi": 72,
                    "time": 20.124795499999994,
                    "velocity": 0.18110236220472442,
                    "duration": 0.3510138749999996
                },
                {
                    "name": "D4",
                    "midi": 62,
                    "time": 20.124795499999994,
                    "velocity": 0.14960629921259844,
                    "duration": 0.3510138749999996
                },
                {
                    "name": "G3",
                    "midi": 55,
                    "time": 20.592813999999994,
                    "velocity": 0.2204724409448819,
                    "duration": 0.46801849999999945
                },
                {
                    "name": "B4",
                    "midi": 71,
                    "time": 21.060832499999993,
                    "velocity": 0.1889763779527559,
                    "duration": 0.9360369999999989
                },
                {
                    "name": "D4",
                    "midi": 62,
                    "time": 21.060832499999993,
                    "velocity": 0.15748031496062992,
                    "duration": 0.9360369999999989
                },
                {
                    "name": "B4",
                    "midi": 71,
                    "time": 21.996869499999992,
                    "velocity": 0.18110236220472442,
                    "duration": 0.23400924999999972
                },
                {
                    "name": "D4",
                    "midi": 62,
                    "time": 21.996869499999992,
                    "velocity": 0.14960629921259844,
                    "duration": 0.23400924999999972
                },
                {
                    "name": "D3",
                    "midi": 50,
                    "time": 22.46488799999999,
                    "velocity": 0.2204724409448819,
                    "duration": 0.46801849999999945
                },
                {
                    "name": "B3",
                    "midi": 59,
                    "time": 22.93290649999999,
                    "velocity": 0.13385826771653545,
                    "duration": 0.9360369999999989
                },
                {
                    "name": "A4",
                    "midi": 69,
                    "time": 22.93290649999999,
                    "velocity": 0.16535433070866143,
                    "duration": 0.9360369999999989
                },
                {
                    "name": "D4",
                    "midi": 62,
                    "time": 22.93290649999999,
                    "velocity": 0.13385826771653545,
                    "duration": 0.9360369999999989
                },
                {
                    "name": "B3",
                    "midi": 59,
                    "time": 23.86894349999999,
                    "velocity": 0.12598425196850394,
                    "duration": 0.23400924999999972
                },
                {
                    "name": "G4",
                    "midi": 67,
                    "time": 23.86894349999999,
                    "velocity": 0.15748031496062992,
                    "duration": 0.23400924999999972
                },
                {
                    "name": "D4",
                    "midi": 62,
                    "time": 23.86894349999999,
                    "velocity": 0.12598425196850394,
                    "duration": 0.23400924999999972
                },
                {
                    "name": "D3",
                    "midi": 50,
                    "time": 24.33696199999999,
                    "velocity": 0.2204724409448819,
                    "duration": 0.46801849999999945
                },
                {
                    "name": "A#3",
                    "midi": 58,
                    "time": 24.80498049999999,
                    "velocity": 0.13385826771653545,
                    "duration": 0.9360369999999989
                },
                {
                    "name": "A4",
                    "midi": 69,
                    "time": 24.80498049999999,
                    "velocity": 0.16535433070866143,
                    "duration": 0.9360369999999989
                },
                {
                    "name": "E4",
                    "midi": 64,
                    "time": 24.80498049999999,
                    "velocity": 0.13385826771653545,
                    "duration": 0.9360369999999989
                },
                {
                    "name": "A#3",
                    "midi": 58,
                    "time": 25.741017499999987,
                    "velocity": 0.12598425196850394,
                    "duration": 0.23400924999999972
                },
                {
                    "name": "G4",
                    "midi": 67,
                    "time": 25.741017499999987,
                    "velocity": 0.15748031496062992,
                    "duration": 0.23400924999999972
                },
                {
                    "name": "E4",
                    "midi": 64,
                    "time": 25.741017499999987,
                    "velocity": 0.12598425196850394,
                    "duration": 0.23400924999999972
                },
                {
                    "name": "D3",
                    "midi": 50,
                    "time": 26.209035999999987,
                    "velocity": 0.2204724409448819,
                    "duration": 0.46801849999999945
                },
                {
                    "name": "C4",
                    "midi": 60,
                    "time": 26.677054499999986,
                    "velocity": 0.13385826771653545,
                    "duration": 0.9360369999999989
                },
                {
                    "name": "B4",
                    "midi": 71,
                    "time": 26.677054499999986,
                    "velocity": 0.16535433070866143,
                    "duration": 0.9360369999999989
                },
                {
                    "name": "F#4",
                    "midi": 66,
                    "time": 26.677054499999986,
                    "velocity": 0.13385826771653545,
                    "duration": 0.9360369999999989
                },
                {
                    "name": "C4",
                    "midi": 60,
                    "time": 27.613091499999985,
                    "velocity": 0.12598425196850394,
                    "duration": 0.23400924999999972
                },
                {
                    "name": "A4",
                    "midi": 69,
                    "time": 27.613091499999985,
                    "velocity": 0.15748031496062992,
                    "duration": 0.23400924999999972
                },
                {
                    "name": "F#4",
                    "midi": 66,
                    "time": 27.613091499999985,
                    "velocity": 0.12598425196850394,
                    "duration": 0.23400924999999972
                },
                {
                    "name": "G2",
                    "midi": 43,
                    "time": 28.081109999999985,
                    "velocity": 0.14960629921259844,
                    "duration": 0.46801849999999945
                },
                {
                    "name": "D3",
                    "midi": 50,
                    "time": 28.081109999999985,
                    "velocity": 0.18110236220472442,
                    "duration": 0.46801849999999945
                },
                {
                    "name": "B3",
                    "midi": 59,
                    "time": 28.549128499999984,
                    "velocity": 0.13385826771653545,
                    "duration": 1.2870508749999985
                },
                {
                    "name": "G4",
                    "midi": 67,
                    "time": 28.549128499999984,
                    "velocity": 0.16535433070866143,
                    "duration": 1.2870508749999985
                },
                {
                    "name": "D4",
                    "midi": 62,
                    "time": 28.549128499999984,
                    "velocity": 0.13385826771653545,
                    "duration": 1.2870508749999985
                },
                {
                    "name": "G2",
                    "midi": 43,
                    "time": 29.953183999999982,
                    "velocity": 0.1968503937007874,
                    "duration": 0.46801849999999945
                },
                {
                    "name": "B3",
                    "midi": 59,
                    "time": 30.421202499999982,
                    "velocity": 0.14173228346456693,
                    "duration": 0.9360369999999989
                },
                {
                    "name": "D3",
                    "midi": 50,
                    "time": 30.421202499999982,
                    "velocity": 0.11811023622047244,
                    "duration": 0.9360369999999989
                },
                {
                    "name": "B3",
                    "midi": 59,
                    "time": 31.35723949999998,
                    "velocity": 0.14173228346456693,
                    "duration": 0.46801849999999945
                },
                {
                    "name": "D3",
                    "midi": 50,
                    "time": 31.35723949999998,
                    "velocity": 0.11811023622047244,
                    "duration": 0.46801849999999945
                },
                {
                    "name": "G2",
                    "midi": 43,
                    "time": 31.82525799999998,
                    "velocity": 0.1968503937007874,
                    "duration": 0.468018500000003
                },
                {
                    "name": "B3",
                    "midi": 59,
                    "time": 32.29327649999998,
                    "velocity": 0.14173228346456693,
                    "duration": 0.9360369999999989
                },
                {
                    "name": "D3",
                    "midi": 50,
                    "time": 32.29327649999998,
                    "velocity": 0.11811023622047244,
                    "duration": 0.9360369999999989
                },
                {
                    "name": "B3",
                    "midi": 59,
                    "time": 33.22931349999998,
                    "velocity": 0.14173228346456693,
                    "duration": 0.46801849999999945
                },
                {
                    "name": "D3",
                    "midi": 50,
                    "time": 33.22931349999998,
                    "velocity": 0.11811023622047244,
                    "duration": 0.46801849999999945
                },
                {
                    "name": "G2",
                    "midi": 43,
                    "time": 33.69733199999998,
                    "velocity": 0.1968503937007874,
                    "duration": 0.46801849999999945
                },
                {
                    "name": "B3",
                    "midi": 59,
                    "time": 34.16535049999998,
                    "velocity": 0.16535433070866143,
                    "duration": 0.9360369999999989
                },
                {
                    "name": "D3",
                    "midi": 50,
                    "time": 34.16535049999998,
                    "velocity": 0.14173228346456693,
                    "duration": 0.9360369999999989
                },
                {
                    "name": "C4",
                    "midi": 60,
                    "time": 35.10138749999998,
                    "velocity": 0.15748031496062992,
                    "duration": 0.46801849999999945
                },
                {
                    "name": "D3",
                    "midi": 50,
                    "time": 35.10138749999998,
                    "velocity": 0.13385826771653545,
                    "duration": 0.46801849999999945
                },
                {
                    "name": "G2",
                    "midi": 43,
                    "time": 35.56940599999998,
                    "velocity": 0.1968503937007874,
                    "duration": 0.46801849999999945
                },
                {
                    "name": "B3",
                    "midi": 59,
                    "time": 36.03742449999998,
                    "velocity": 0.16535433070866143,
                    "duration": 0.9360369999999989
                },
                {
                    "name": "D3",
                    "midi": 50,
                    "time": 36.03742449999998,
                    "velocity": 0.14173228346456693,
                    "duration": 0.9360369999999989
                },
                {
                    "name": "B3",
                    "midi": 59,
                    "time": 36.97346149999998,
                    "velocity": 0.16535433070866143,
                    "duration": 0.23400924999999972
                },
                {
                    "name": "D3",
                    "midi": 50,
                    "time": 36.97346149999998,
                    "velocity": 0.14173228346456693,
                    "duration": 0.23400924999999972
                },
                {
                    "name": "G2",
                    "midi": 43,
                    "time": 37.44147999999998,
                    "velocity": 0.1968503937007874,
                    "duration": 0.46801849999999945
                },
                {
                    "name": "C4",
                    "midi": 60,
                    "time": 37.90949849999998,
                    "velocity": 0.16535433070866143,
                    "duration": 0.9360369999999989
                },
                {
                    "name": "D3",
                    "midi": 50,
                    "time": 37.90949849999998,
                    "velocity": 0.14173228346456693,
                    "duration": 0.9360369999999989
                },
                {
                    "name": "C4",
                    "midi": 60,
                    "time": 38.845535499999976,
                    "velocity": 0.15748031496062992,
                    "duration": 0.23400924999999972
                },
                {
                    "name": "D3",
                    "midi": 50,
                    "time": 38.845535499999976,
                    "velocity": 0.13385826771653545,
                    "duration": 0.23400924999999972
                },
                {
                    "name": "G2",
                    "midi": 43,
                    "time": 39.313553999999975,
                    "velocity": 0.2204724409448819,
                    "duration": 0.46801849999999945
                },
                {
                    "name": "C4",
                    "midi": 60,
                    "time": 39.781572499999974,
                    "velocity": 0.1889763779527559,
                    "duration": 0.9360369999999989
                },
                {
                    "name": "D3",
                    "midi": 50,
                    "time": 39.781572499999974,
                    "velocity": 0.15748031496062992,
                    "duration": 0.9360369999999989
                },
                {
                    "name": "C4",
                    "midi": 60,
                    "time": 40.71760949999997,
                    "velocity": 0.18110236220472442,
                    "duration": 0.23400924999999972
                },
                {
                    "name": "D3",
                    "midi": 50,
                    "time": 40.71760949999997,
                    "velocity": 0.14960629921259844,
                    "duration": 0.23400924999999972
                },
                {
                    "name": "G2",
                    "midi": 43,
                    "time": 41.18562799999997,
                    "velocity": 0.2204724409448819,
                    "duration": 0.46801849999999945
                },
                {
                    "name": "C4",
                    "midi": 60,
                    "time": 41.65364649999997,
                    "velocity": 0.1889763779527559,
                    "duration": 0.9360369999999989
                },
                {
                    "name": "D3",
                    "midi": 50,
                    "time": 41.65364649999997,
                    "velocity": 0.15748031496062992,
                    "duration": 0.9360369999999989
                },
                {
                    "name": "C4",
                    "midi": 60,
                    "time": 42.58968349999997,
                    "velocity": 0.18110236220472442,
                    "duration": 0.23400924999999972
                },
                {
                    "name": "D3",
                    "midi": 50,
                    "time": 42.58968349999997,
                    "velocity": 0.14960629921259844,
                    "duration": 0.23400924999999972
                },
                {
                    "name": "G2",
                    "midi": 43,
                    "time": 43.05770199999997,
                    "velocity": 0.2204724409448819,
                    "duration": 0.46801849999999945
                },
                {
                    "name": "C4",
                    "midi": 60,
                    "time": 43.52572049999997,
                    "velocity": 0.1889763779527559,
                    "duration": 0.9360369999999989
                },
                {
                    "name": "D3",
                    "midi": 50,
                    "time": 43.52572049999997,
                    "velocity": 0.15748031496062992,
                    "duration": 0.9360369999999989
                },
                {
                    "name": "C4",
                    "midi": 60,
                    "time": 44.46175749999997,
                    "velocity": 0.18110236220472442,
                    "duration": 0.23400924999999972
                },
                {
                    "name": "D3",
                    "midi": 50,
                    "time": 44.46175749999997,
                    "velocity": 0.14960629921259844,
                    "duration": 0.23400924999999972
                },
                {
                    "name": "G3",
                    "midi": 55,
                    "time": 44.92977599999997,
                    "velocity": 0.2204724409448819,
                    "duration": 0.46801849999999945
                },
                {
                    "name": "B4",
                    "midi": 71,
                    "time": 45.39779449999997,
                    "velocity": 0.1889763779527559,
                    "duration": 0.9360369999999989
                },
                {
                    "name": "D4",
                    "midi": 62,
                    "time": 45.39779449999997,
                    "velocity": 0.15748031496062992,
                    "duration": 0.9360369999999989
                },
                {
                    "name": "B4",
                    "midi": 71,
                    "time": 46.33383149999997,
                    "velocity": 0.18110236220472442,
                    "duration": 0.23400924999999972
                },
                {
                    "name": "D4",
                    "midi": 62,
                    "time": 46.33383149999997,
                    "velocity": 0.14960629921259844,
                    "duration": 0.23400924999999972
                },
                {
                    "name": "G3",
                    "midi": 55,
                    "time": 46.801849999999966,
                    "velocity": 0.2204724409448819,
                    "duration": 0.46801849999999945
                },
                {
                    "name": "B4",
                    "midi": 71,
                    "time": 47.269868499999966,
                    "velocity": 0.1889763779527559,
                    "duration": 0.9360369999999989
                },
                {
                    "name": "D4",
                    "midi": 62,
                    "time": 47.269868499999966,
                    "velocity": 0.15748031496062992,
                    "duration": 0.9360369999999989
                },
                {
                    "name": "B4",
                    "midi": 71,
                    "time": 48.205905499999965,
                    "velocity": 0.18110236220472442,
                    "duration": 0.23400924999999972
                },
                {
                    "name": "D4",
                    "midi": 62,
                    "time": 48.205905499999965,
                    "velocity": 0.14960629921259844,
                    "duration": 0.23400924999999972
                },
                {
                    "name": "G3",
                    "midi": 55,
                    "time": 48.673923999999964,
                    "velocity": 0.2204724409448819,
                    "duration": 0.46801849999999945
                },
                {
                    "name": "B4",
                    "midi": 71,
                    "time": 49.14194249999996,
                    "velocity": 0.1889763779527559,
                    "duration": 0.9360369999999989
                },
                {
                    "name": "D4",
                    "midi": 62,
                    "time": 49.14194249999996,
                    "velocity": 0.15748031496062992,
                    "duration": 0.9360369999999989
                },
                {
                    "name": "C5",
                    "midi": 72,
                    "time": 50.07797949999996,
                    "velocity": 0.18110236220472442,
                    "duration": 0.3510138749999996
                },
                {
                    "name": "D4",
                    "midi": 62,
                    "time": 50.07797949999996,
                    "velocity": 0.14960629921259844,
                    "duration": 0.3510138749999996
                },
                {
                    "name": "G3",
                    "midi": 55,
                    "time": 50.54599799999996,
                    "velocity": 0.2204724409448819,
                    "duration": 0.46801849999999945
                },
                {
                    "name": "B4",
                    "midi": 71,
                    "time": 51.01401649999996,
                    "velocity": 0.1889763779527559,
                    "duration": 0.9360369999999989
                },
                {
                    "name": "D4",
                    "midi": 62,
                    "time": 51.01401649999996,
                    "velocity": 0.15748031496062992,
                    "duration": 0.9360369999999989
                },
                {
                    "name": "B4",
                    "midi": 71,
                    "time": 51.95005349999996,
                    "velocity": 0.18110236220472442,
                    "duration": 0.23400924999999972
                },
                {
                    "name": "D4",
                    "midi": 62,
                    "time": 51.95005349999996,
                    "velocity": 0.14960629921259844,
                    "duration": 0.23400924999999972
                },
                {
                    "name": "D3",
                    "midi": 50,
                    "time": 52.41807199999996,
                    "velocity": 0.2204724409448819,
                    "duration": 0.46801849999999945
                },
                {
                    "name": "B3",
                    "midi": 59,
                    "time": 52.88609049999996,
                    "velocity": 0.13385826771653545,
                    "duration": 0.9360369999999989
                },
                {
                    "name": "A4",
                    "midi": 69,
                    "time": 52.88609049999996,
                    "velocity": 0.16535433070866143,
                    "duration": 0.9360369999999989
                },
                {
                    "name": "D4",
                    "midi": 62,
                    "time": 52.88609049999996,
                    "velocity": 0.13385826771653545,
                    "duration": 0.9360369999999989
                },
                {
                    "name": "B3",
                    "midi": 59,
                    "time": 53.82212749999996,
                    "velocity": 0.12598425196850394,
                    "duration": 0.23400924999999972
                },
                {
                    "name": "G4",
                    "midi": 67,
                    "time": 53.82212749999996,
                    "velocity": 0.15748031496062992,
                    "duration": 0.23400924999999972
                },
                {
                    "name": "D4",
                    "midi": 62,
                    "time": 53.82212749999996,
                    "velocity": 0.12598425196850394,
                    "duration": 0.23400924999999972
                },
                {
                    "name": "D3",
                    "midi": 50,
                    "time": 54.29014599999996,
                    "velocity": 0.2204724409448819,
                    "duration": 0.46801849999999945
                },
                {
                    "name": "A#3",
                    "midi": 58,
                    "time": 54.75816449999996,
                    "velocity": 0.13385826771653545,
                    "duration": 0.9360369999999989
                },
                {
                    "name": "A4",
                    "midi": 69,
                    "time": 54.75816449999996,
                    "velocity": 0.16535433070866143,
                    "duration": 0.9360369999999989
                },
                {
                    "name": "E4",
                    "midi": 64,
                    "time": 54.75816449999996,
                    "velocity": 0.13385826771653545,
                    "duration": 0.9360369999999989
                },
                {
                    "name": "A#3",
                    "midi": 58,
                    "time": 55.694201499999956,
                    "velocity": 0.12598425196850394,
                    "duration": 0.23400924999999972
                },
                {
                    "name": "G4",
                    "midi": 67,
                    "time": 55.694201499999956,
                    "velocity": 0.15748031496062992,
                    "duration": 0.23400924999999972
                },
                {
                    "name": "E4",
                    "midi": 64,
                    "time": 55.694201499999956,
                    "velocity": 0.12598425196850394,
                    "duration": 0.23400924999999972
                },
                {
                    "name": "D3",
                    "midi": 50,
                    "time": 56.162219999999955,
                    "velocity": 0.2204724409448819,
                    "duration": 0.46801849999999945
                },
                {
                    "name": "C4",
                    "midi": 60,
                    "time": 56.630238499999955,
                    "velocity": 0.13385826771653545,
                    "duration": 0.9360369999999989
                },
                {
                    "name": "B4",
                    "midi": 71,
                    "time": 56.630238499999955,
                    "velocity": 0.16535433070866143,
                    "duration": 0.9360369999999989
                },
                {
                    "name": "F#4",
                    "midi": 66,
                    "time": 56.630238499999955,
                    "velocity": 0.13385826771653545,
                    "duration": 0.9360369999999989
                },
                {
                    "name": "C4",
                    "midi": 60,
                    "time": 57.56627549999995,
                    "velocity": 0.12598425196850394,
                    "duration": 0.23400924999999972
                },
                {
                    "name": "A4",
                    "midi": 69,
                    "time": 57.56627549999995,
                    "velocity": 0.15748031496062992,
                    "duration": 0.23400924999999972
                },
                {
                    "name": "F#4",
                    "midi": 66,
                    "time": 57.56627549999995,
                    "velocity": 0.12598425196850394,
                    "duration": 0.23400924999999972
                },
                {
                    "name": "G2",
                    "midi": 43,
                    "time": 58.03429399999995,
                    "velocity": 0.14960629921259844,
                    "duration": 0.46801849999999945
                },
                {
                    "name": "D3",
                    "midi": 50,
                    "time": 58.03429399999995,
                    "velocity": 0.18110236220472442,
                    "duration": 0.46801849999999945
                },
                {
                    "name": "B3",
                    "midi": 59,
                    "time": 58.50231249999995,
                    "velocity": 0.13385826771653545,
                    "duration": 1.2870508749999985
                },
                {
                    "name": "G4",
                    "midi": 67,
                    "time": 58.50231249999995,
                    "velocity": 0.16535433070866143,
                    "duration": 1.2870508749999985
                },
                {
                    "name": "D4",
                    "midi": 62,
                    "time": 58.50231249999995,
                    "velocity": 0.13385826771653545,
                    "duration": 1.2870508749999985
                },
                {
                    "name": "D3",
                    "midi": 50,
                    "time": 59.90636799999995,
                    "velocity": 0.25196850393700787,
                    "duration": 0.11700462499999986
                },
                {
                    "name": "G2",
                    "midi": 43,
                    "time": 59.90636799999995,
                    "velocity": 0.2125984251968504,
                    "duration": 0.11700462499999986
                },
                {
                    "name": "G2",
                    "midi": 43,
                    "time": 60.37438649999995,
                    "velocity": 0.18110236220472442,
                    "duration": 0.23400924999999972
                },
                {
                    "name": "D3",
                    "midi": 50,
                    "time": 60.37438649999995,
                    "velocity": 0.2204724409448819,
                    "duration": 0.23400924999999972
                },
                {
                    "name": "D#3",
                    "midi": 51,
                    "time": 60.84240499999995,
                    "velocity": 0.2440944881889764,
                    "duration": 0.9360369999999989
                },
                {
                    "name": "G2",
                    "midi": 43,
                    "time": 60.84240499999995,
                    "velocity": 0.2047244094488189,
                    "duration": 0.9360369999999989
                },
                {
                    "name": "D3",
                    "midi": 50,
                    "time": 61.77844199999995,
                    "velocity": 0.25196850393700787,
                    "duration": 0.11700462499999986
                },
                {
                    "name": "G2",
                    "midi": 43,
                    "time": 61.77844199999995,
                    "velocity": 0.2125984251968504,
                    "duration": 0.11700462499999986
                },
                {
                    "name": "G2",
                    "midi": 43,
                    "time": 62.24646049999995,
                    "velocity": 0.18110236220472442,
                    "duration": 0.23400924999999972
                },
                {
                    "name": "D3",
                    "midi": 50,
                    "time": 62.24646049999995,
                    "velocity": 0.2204724409448819,
                    "duration": 0.23400924999999972
                },
                {
                    "name": "D#3",
                    "midi": 51,
                    "time": 62.71447899999995,
                    "velocity": 0.2440944881889764,
                    "duration": 0.9360369999999989
                },
                {
                    "name": "G2",
                    "midi": 43,
                    "time": 62.71447899999995,
                    "velocity": 0.2047244094488189,
                    "duration": 0.9360369999999989
                },
                {
                    "name": "D3",
                    "midi": 50,
                    "time": 63.650515999999946,
                    "velocity": 0.25196850393700787,
                    "duration": 0.11700462499999986
                },
                {
                    "name": "G2",
                    "midi": 43,
                    "time": 63.650515999999946,
                    "velocity": 0.2125984251968504,
                    "duration": 0.11700462499999986
                },
                {
                    "name": "G2",
                    "midi": 43,
                    "time": 64.11853449999995,
                    "velocity": 0.1968503937007874,
                    "duration": 0.23400924999999972
                },
                {
                    "name": "D#3",
                    "midi": 51,
                    "time": 64.11853449999995,
                    "velocity": 0.23622047244094488,
                    "duration": 0.23400924999999972
                },
                {
                    "name": "D3",
                    "midi": 50,
                    "time": 64.58655299999995,
                    "velocity": 0.2755905511811024,
                    "duration": 0.11700462500000697
                },
                {
                    "name": "G2",
                    "midi": 43,
                    "time": 64.58655299999995,
                    "velocity": 0.2283464566929134,
                    "duration": 0.11700462500000697
                },
                {
                    "name": "G2",
                    "midi": 43,
                    "time": 65.05457149999997,
                    "velocity": 0.2283464566929134,
                    "duration": 0.23400924999999972
                },
                {
                    "name": "D#3",
                    "midi": 51,
                    "time": 65.05457149999997,
                    "velocity": 0.2677165354330709,
                    "duration": 0.23400924999999972
                },
                {
                    "name": "D3",
                    "midi": 50,
                    "time": 65.52258999999997,
                    "velocity": 0.31496062992125984,
                    "duration": 0.11700462500000697
                },
                {
                    "name": "G2",
                    "midi": 43,
                    "time": 65.52258999999997,
                    "velocity": 0.2677165354330709,
                    "duration": 0.11700462500000697
                },
                {
                    "name": "G2",
                    "midi": 43,
                    "time": 65.99060849999998,
                    "velocity": 0.25196850393700787,
                    "duration": 0.23400924999999972
                },
                {
                    "name": "D#3",
                    "midi": 51,
                    "time": 65.99060849999998,
                    "velocity": 0.2992125984251969,
                    "duration": 0.23400924999999972
                },
                {
                    "name": "D3",
                    "midi": 50,
                    "time": 66.45862699999998,
                    "velocity": 0.3543307086614173,
                    "duration": 0.11700462500000697
                },
                {
                    "name": "G2",
                    "midi": 43,
                    "time": 66.45862699999998,
                    "velocity": 0.29133858267716534,
                    "duration": 0.11700462500000697
                },
                {
                    "name": "G2",
                    "midi": 43,
                    "time": 66.92664549999999,
                    "velocity": 0.2755905511811024,
                    "duration": 0.23400924999999972
                },
                {
                    "name": "D#3",
                    "midi": 51,
                    "time": 66.92664549999999,
                    "velocity": 0.3228346456692913,
                    "duration": 0.23400924999999972
                },
                {
                    "name": "G2",
                    "midi": 43,
                    "time": 67.39466399999999,
                    "velocity": 0.33070866141732286,
                    "duration": 1.8720739999999978
                },
                {
                    "name": "D3",
                    "midi": 50,
                    "time": 67.39466399999999,
                    "velocity": 0.4015748031496063,
                    "duration": 1.8720739999999978
                },
                {
                    "name": "D2",
                    "midi": 38,
                    "time": 69.26673799999999,
                    "velocity": 0.2992125984251969,
                    "duration": 1.8720739999999978
                },
                {
                    "name": "F3",
                    "midi": 53,
                    "time": 69.26673799999999,
                    "velocity": 0.3543307086614173,
                    "duration": 1.8720739999999978
                },
                {
                    "name": "G1",
                    "midi": 31,
                    "time": 71.13881199999999,
                    "velocity": 0.2125984251968504,
                    "duration": 2.8081109999999967
                },
                {
                    "name": "D3",
                    "midi": 50,
                    "time": 71.13881199999999,
                    "velocity": 0.25196850393700787,
                    "duration": 2.8081109999999967
                },
                {
                    "name": "F3",
                    "midi": 53,
                    "time": 74.88295999999998,
                    "velocity": 0.25196850393700787,
                    "duration": 0.11700462500000697
                },
                {
                    "name": "A#2",
                    "midi": 46,
                    "time": 74.88295999999998,
                    "velocity": 0.2125984251968504,
                    "duration": 0.11700462500000697
                },
                {
                    "name": "A#2",
                    "midi": 46,
                    "time": 75.3509785,
                    "velocity": 0.18110236220472442,
                    "duration": 0.23400924999999972
                },
                {
                    "name": "F3",
                    "midi": 53,
                    "time": 75.3509785,
                    "velocity": 0.2204724409448819,
                    "duration": 0.23400924999999972
                },
                {
                    "name": "F#3",
                    "midi": 54,
                    "time": 75.818997,
                    "velocity": 0.2440944881889764,
                    "duration": 0.9360369999999989
                },
                {
                    "name": "A#2",
                    "midi": 46,
                    "time": 75.818997,
                    "velocity": 0.2047244094488189,
                    "duration": 0.9360369999999989
                },
                {
                    "name": "F3",
                    "midi": 53,
                    "time": 76.755034,
                    "velocity": 0.25196850393700787,
                    "duration": 0.11700462500000697
                },
                {
                    "name": "A#2",
                    "midi": 46,
                    "time": 76.755034,
                    "velocity": 0.2125984251968504,
                    "duration": 0.11700462500000697
                },
                {
                    "name": "A#2",
                    "midi": 46,
                    "time": 77.22305250000001,
                    "velocity": 0.18110236220472442,
                    "duration": 0.23400924999999972
                },
                {
                    "name": "F3",
                    "midi": 53,
                    "time": 77.22305250000001,
                    "velocity": 0.2204724409448819,
                    "duration": 0.23400924999999972
                },
                {
                    "name": "F#3",
                    "midi": 54,
                    "time": 77.69107100000001,
                    "velocity": 0.2440944881889764,
                    "duration": 0.9360369999999989
                },
                {
                    "name": "A#2",
                    "midi": 46,
                    "time": 77.69107100000001,
                    "velocity": 0.2047244094488189,
                    "duration": 0.9360369999999989
                },
                {
                    "name": "F3",
                    "midi": 53,
                    "time": 78.627108,
                    "velocity": 0.25196850393700787,
                    "duration": 0.11700462500000697
                },
                {
                    "name": "A#2",
                    "midi": 46,
                    "time": 78.627108,
                    "velocity": 0.2125984251968504,
                    "duration": 0.11700462500000697
                },
                {
                    "name": "A#2",
                    "midi": 46,
                    "time": 79.09512650000002,
                    "velocity": 0.1968503937007874,
                    "duration": 0.23400924999999972
                },
                {
                    "name": "F#3",
                    "midi": 54,
                    "time": 79.09512650000002,
                    "velocity": 0.23622047244094488,
                    "duration": 0.23400924999999972
                },
                {
                    "name": "F3",
                    "midi": 53,
                    "time": 79.56314500000002,
                    "velocity": 0.2755905511811024,
                    "duration": 0.11700462500000697
                },
                {
                    "name": "A#2",
                    "midi": 46,
                    "time": 79.56314500000002,
                    "velocity": 0.2283464566929134,
                    "duration": 0.11700462500000697
                },
                {
                    "name": "A#2",
                    "midi": 46,
                    "time": 80.03116350000003,
                    "velocity": 0.2283464566929134,
                    "duration": 0.23400924999999972
                },
                {
                    "name": "F#3",
                    "midi": 54,
                    "time": 80.03116350000003,
                    "velocity": 0.2677165354330709,
                    "duration": 0.23400924999999972
                },
                {
                    "name": "F3",
                    "midi": 53,
                    "time": 80.49918200000003,
                    "velocity": 0.31496062992125984,
                    "duration": 0.11700462500000697
                },
                {
                    "name": "A#2",
                    "midi": 46,
                    "time": 80.49918200000003,
                    "velocity": 0.2677165354330709,
                    "duration": 0.11700462500000697
                },
                {
                    "name": "A#2",
                    "midi": 46,
                    "time": 80.96720050000005,
                    "velocity": 0.25196850393700787,
                    "duration": 0.23400924999999972
                },
                {
                    "name": "F#3",
                    "midi": 54,
                    "time": 80.96720050000005,
                    "velocity": 0.2992125984251969,
                    "duration": 0.23400924999999972
                },
                {
                    "name": "F3",
                    "midi": 53,
                    "time": 81.43521900000005,
                    "velocity": 0.3543307086614173,
                    "duration": 0.11700462500000697
                },
                {
                    "name": "A#2",
                    "midi": 46,
                    "time": 81.43521900000005,
                    "velocity": 0.29133858267716534,
                    "duration": 0.11700462500000697
                },
                {
                    "name": "A#2",
                    "midi": 46,
                    "time": 81.90323750000006,
                    "velocity": 0.2755905511811024,
                    "duration": 0.23400924999999972
                },
                {
                    "name": "F#3",
                    "midi": 54,
                    "time": 81.90323750000006,
                    "velocity": 0.3228346456692913,
                    "duration": 0.23400924999999972
                },
                {
                    "name": "A#2",
                    "midi": 46,
                    "time": 82.37125600000006,
                    "velocity": 0.33070866141732286,
                    "duration": 1.8720739999999978
                },
                {
                    "name": "F3",
                    "midi": 53,
                    "time": 82.37125600000006,
                    "velocity": 0.4015748031496063,
                    "duration": 1.8720739999999978
                },
                {
                    "name": "F2",
                    "midi": 41,
                    "time": 84.24333000000006,
                    "velocity": 0.2992125984251969,
                    "duration": 1.8720739999999978
                },
                {
                    "name": "G#3",
                    "midi": 56,
                    "time": 84.24333000000006,
                    "velocity": 0.3543307086614173,
                    "duration": 1.8720739999999978
                },
                {
                    "name": "A#1",
                    "midi": 34,
                    "time": 86.11540400000005,
                    "velocity": 0.2125984251968504,
                    "duration": 2.8081109999999967
                },
                {
                    "name": "F3",
                    "midi": 53,
                    "time": 86.11540400000005,
                    "velocity": 0.25196850393700787,
                    "duration": 2.8081109999999967
                },
                {
                    "name": "C#2",
                    "midi": 37,
                    "time": 89.85955200000005,
                    "velocity": 0.1889763779527559,
                    "duration": 4.68018499999998
                },
                {
                    "name": "G#2",
                    "midi": 44,
                    "time": 90.17156433333338,
                    "velocity": 0.1889763779527559,
                    "duration": 4.368172666666652
                },
                {
                    "name": "C#3",
                    "midi": 49,
                    "time": 90.4835766666667,
                    "velocity": 0.1968503937007874,
                    "duration": 4.056160333333324
                },
                {
                    "name": "E3",
                    "midi": 52,
                    "time": 90.79558900000004,
                    "velocity": 0.2283464566929134,
                    "duration": 3.7441479999999956
                },
                {
                    "name": "G#3",
                    "midi": 56,
                    "time": 91.10760133333336,
                    "velocity": 0.2125984251968504,
                    "duration": 3.4321356666666674
                },
                {
                    "name": "C#4",
                    "midi": 61,
                    "time": 91.41961366666669,
                    "velocity": 0.2283464566929134,
                    "duration": 3.120123333333339
                },
                {
                    "name": "G3",
                    "midi": 55,
                    "time": 95.47577400000003,
                    "velocity": 0.16535433070866143,
                    "duration": 1.8720739999999978
                },
                {
                    "name": "C#4",
                    "midi": 61,
                    "time": 95.94379250000003,
                    "velocity": 0.09448818897637795,
                    "duration": 0.9360369999999989
                },
                {
                    "name": "E4",
                    "midi": 64,
                    "time": 95.94379250000003,
                    "velocity": 0.11811023622047244,
                    "duration": 0.9360369999999989
                },
                {
                    "name": "A3",
                    "midi": 57,
                    "time": 95.94379250000003,
                    "velocity": 0.09448818897637795,
                    "duration": 0.9360369999999989
                },
                {
                    "name": "C#4",
                    "midi": 61,
                    "time": 96.87982950000003,
                    "velocity": 0.09448818897637795,
                    "duration": 0.46801849999999945
                },
                {
                    "name": "E4",
                    "midi": 64,
                    "time": 96.87982950000003,
                    "velocity": 0.11811023622047244,
                    "duration": 0.46801849999999945
                },
                {
                    "name": "A3",
                    "midi": 57,
                    "time": 96.87982950000003,
                    "velocity": 0.09448818897637795,
                    "duration": 0.46801849999999945
                },
                {
                    "name": "G3",
                    "midi": 55,
                    "time": 97.34784800000003,
                    "velocity": 0.16535433070866143,
                    "duration": 1.8720739999999978
                },
                {
                    "name": "C#4",
                    "midi": 61,
                    "time": 97.81586650000003,
                    "velocity": 0.09448818897637795,
                    "duration": 0.9360369999999989
                },
                {
                    "name": "E4",
                    "midi": 64,
                    "time": 97.81586650000003,
                    "velocity": 0.11811023622047244,
                    "duration": 0.9360369999999989
                },
                {
                    "name": "A3",
                    "midi": 57,
                    "time": 97.81586650000003,
                    "velocity": 0.09448818897637795,
                    "duration": 0.9360369999999989
                },
                {
                    "name": "C#4",
                    "midi": 61,
                    "time": 98.75190350000003,
                    "velocity": 0.09448818897637795,
                    "duration": 0.46801849999999945
                },
                {
                    "name": "E4",
                    "midi": 64,
                    "time": 98.75190350000003,
                    "velocity": 0.11811023622047244,
                    "duration": 0.46801849999999945
                },
                {
                    "name": "A3",
                    "midi": 57,
                    "time": 98.75190350000003,
                    "velocity": 0.09448818897637795,
                    "duration": 0.46801849999999945
                },
                {
                    "name": "G3",
                    "midi": 55,
                    "time": 99.21992200000003,
                    "velocity": 0.16535433070866143,
                    "duration": 1.8720739999999978
                },
                {
                    "name": "C#4",
                    "midi": 61,
                    "time": 99.68794050000002,
                    "velocity": 0.11811023622047244,
                    "duration": 0.9360369999999989
                },
                {
                    "name": "E4",
                    "midi": 64,
                    "time": 99.68794050000002,
                    "velocity": 0.13385826771653545,
                    "duration": 0.9360369999999989
                },
                {
                    "name": "A3",
                    "midi": 57,
                    "time": 99.68794050000002,
                    "velocity": 0.11811023622047244,
                    "duration": 0.9360369999999989
                },
                {
                    "name": "D4",
                    "midi": 62,
                    "time": 100.62397750000002,
                    "velocity": 0.11023622047244094,
                    "duration": 0.46801849999999945
                },
                {
                    "name": "F4",
                    "midi": 65,
                    "time": 100.62397750000002,
                    "velocity": 0.13385826771653545,
                    "duration": 0.46801849999999945
                },
                {
                    "name": "A#3",
                    "midi": 58,
                    "time": 100.62397750000002,
                    "velocity": 0.11023622047244094,
                    "duration": 0.46801849999999945
                },
                {
                    "name": "G3",
                    "midi": 55,
                    "time": 101.09199600000002,
                    "velocity": 0.16535433070866143,
                    "duration": 1.8720739999999978
                },
                {
                    "name": "C#4",
                    "midi": 61,
                    "time": 101.56001450000002,
                    "velocity": 0.11811023622047244,
                    "duration": 0.9360369999999989
                },
                {
                    "name": "E4",
                    "midi": 64,
                    "time": 101.56001450000002,
                    "velocity": 0.13385826771653545,
                    "duration": 0.9360369999999989
                },
                {
                    "name": "A3",
                    "midi": 57,
                    "time": 101.56001450000002,
                    "velocity": 0.11811023622047244,
                    "duration": 0.9360369999999989
                },
                {
                    "name": "C#4",
                    "midi": 61,
                    "time": 102.49605150000002,
                    "velocity": 0.11811023622047244,
                    "duration": 0.23400924999999972
                },
                {
                    "name": "E4",
                    "midi": 64,
                    "time": 102.49605150000002,
                    "velocity": 0.13385826771653545,
                    "duration": 0.23400924999999972
                },
                {
                    "name": "A3",
                    "midi": 57,
                    "time": 102.49605150000002,
                    "velocity": 0.11811023622047244,
                    "duration": 0.23400924999999972
                },
                {
                    "name": "G3",
                    "midi": 55,
                    "time": 102.96407000000002,
                    "velocity": 0.16535433070866143,
                    "duration": 1.8720739999999978
                },
                {
                    "name": "C#4",
                    "midi": 61,
                    "time": 103.43208850000002,
                    "velocity": 0.11811023622047244,
                    "duration": 0.9360369999999989
                },
                {
                    "name": "E4",
                    "midi": 64,
                    "time": 103.43208850000002,
                    "velocity": 0.13385826771653545,
                    "duration": 0.9360369999999989
                },
                {
                    "name": "A3",
                    "midi": 57,
                    "time": 103.43208850000002,
                    "velocity": 0.11811023622047244,
                    "duration": 0.9360369999999989
                },
                {
                    "name": "C#4",
                    "midi": 61,
                    "time": 104.36812550000002,
                    "velocity": 0.11023622047244094,
                    "duration": 0.23400924999999972
                },
                {
                    "name": "E4",
                    "midi": 64,
                    "time": 104.36812550000002,
                    "velocity": 0.13385826771653545,
                    "duration": 0.23400924999999972
                },
                {
                    "name": "A3",
                    "midi": 57,
                    "time": 104.36812550000002,
                    "velocity": 0.11023622047244094,
                    "duration": 0.23400924999999972
                },
                {
                    "name": "G3",
                    "midi": 55,
                    "time": 104.83614400000002,
                    "velocity": 0.18110236220472442,
                    "duration": 1.8720739999999978
                },
                {
                    "name": "C#4",
                    "midi": 61,
                    "time": 105.30416250000002,
                    "velocity": 0.13385826771653545,
                    "duration": 0.9360369999999989
                },
                {
                    "name": "E4",
                    "midi": 64,
                    "time": 105.30416250000002,
                    "velocity": 0.15748031496062992,
                    "duration": 0.9360369999999989
                },
                {
                    "name": "A3",
                    "midi": 57,
                    "time": 105.30416250000002,
                    "velocity": 0.13385826771653545,
                    "duration": 0.9360369999999989
                },
                {
                    "name": "C#4",
                    "midi": 61,
                    "time": 106.24019950000002,
                    "velocity": 0.12598425196850394,
                    "duration": 0.46801849999999945
                },
                {
                    "name": "E4",
                    "midi": 64,
                    "time": 106.24019950000002,
                    "velocity": 0.14960629921259844,
                    "duration": 0.46801849999999945
                },
                {
                    "name": "A3",
                    "midi": 57,
                    "time": 106.24019950000002,
                    "velocity": 0.12598425196850394,
                    "duration": 0.46801849999999945
                },
                {
                    "name": "G3",
                    "midi": 55,
                    "time": 106.70821800000002,
                    "velocity": 0.18110236220472442,
                    "duration": 1.8720739999999978
                },
                {
                    "name": "C#4",
                    "midi": 61,
                    "time": 107.17623650000002,
                    "velocity": 0.13385826771653545,
                    "duration": 0.9360369999999989
                },
                {
                    "name": "E4",
                    "midi": 64,
                    "time": 107.17623650000002,
                    "velocity": 0.15748031496062992,
                    "duration": 0.9360369999999989
                },
                {
                    "name": "A3",
                    "midi": 57,
                    "time": 107.17623650000002,
                    "velocity": 0.13385826771653545,
                    "duration": 0.9360369999999989
                },
                {
                    "name": "D4",
                    "midi": 62,
                    "time": 108.11227350000001,
                    "velocity": 0.12598425196850394,
                    "duration": 0.23400924999999972
                },
                {
                    "name": "E4",
                    "midi": 64,
                    "time": 108.11227350000001,
                    "velocity": 0.14960629921259844,
                    "duration": 0.23400924999999972
                },
                {
                    "name": "A#3",
                    "midi": 58,
                    "time": 108.11227350000001,
                    "velocity": 0.12598425196850394,
                    "duration": 0.23400924999999972
                },
                {
                    "name": "G3",
                    "midi": 55,
                    "time": 108.58029200000001,
                    "velocity": 0.18110236220472442,
                    "duration": 1.8720739999999978
                },
                {
                    "name": "C#4",
                    "midi": 61,
                    "time": 109.04831050000001,
                    "velocity": 0.13385826771653545,
                    "duration": 0.9360369999999989
                },
                {
                    "name": "E4",
                    "midi": 64,
                    "time": 109.04831050000001,
                    "velocity": 0.15748031496062992,
                    "duration": 0.9360369999999989
                },
                {
                    "name": "A3",
                    "midi": 57,
                    "time": 109.04831050000001,
                    "velocity": 0.13385826771653545,
                    "duration": 0.9360369999999989
                },
                {
                    "name": "C#4",
                    "midi": 61,
                    "time": 109.98434750000001,
                    "velocity": 0.12598425196850394,
                    "duration": 0.46801849999999945
                },
                {
                    "name": "E4",
                    "midi": 64,
                    "time": 109.98434750000001,
                    "velocity": 0.14960629921259844,
                    "duration": 0.46801849999999945
                },
                {
                    "name": "A3",
                    "midi": 57,
                    "time": 109.98434750000001,
                    "velocity": 0.12598425196850394,
                    "duration": 0.46801849999999945
                },
                {
                    "name": "G3",
                    "midi": 55,
                    "time": 110.45236600000001,
                    "velocity": 0.2204724409448819,
                    "duration": 1.8720739999999978
                },
                {
                    "name": "D#4",
                    "midi": 63,
                    "time": 110.92038450000001,
                    "velocity": 0.15748031496062992,
                    "duration": 0.9360369999999989
                },
                {
                    "name": "G4",
                    "midi": 67,
                    "time": 110.92038450000001,
                    "velocity": 0.1889763779527559,
                    "duration": 0.9360369999999989
                },
                {
                    "name": "A#3",
                    "midi": 58,
                    "time": 110.92038450000001,
                    "velocity": 0.15748031496062992,
                    "duration": 0.9360369999999989
                },
                {
                    "name": "D#4",
                    "midi": 63,
                    "time": 111.85642150000001,
                    "velocity": 0.14960629921259844,
                    "duration": 0.23400924999999972
                },
                {
                    "name": "G4",
                    "midi": 67,
                    "time": 111.85642150000001,
                    "velocity": 0.18110236220472442,
                    "duration": 0.23400924999999972
                },
                {
                    "name": "A#3",
                    "midi": 58,
                    "time": 111.85642150000001,
                    "velocity": 0.14960629921259844,
                    "duration": 0.23400924999999972
                },
                {
                    "name": "G3",
                    "midi": 55,
                    "time": 112.32444000000001,
                    "velocity": 0.2204724409448819,
                    "duration": 1.8720739999999978
                },
                {
                    "name": "D#4",
                    "midi": 63,
                    "time": 112.79245850000001,
                    "velocity": 0.15748031496062992,
                    "duration": 0.9360369999999989
                },
                {
                    "name": "G4",
                    "midi": 67,
                    "time": 112.79245850000001,
                    "velocity": 0.1889763779527559,
                    "duration": 0.9360369999999989
                },
                {
                    "name": "A#3",
                    "midi": 58,
                    "time": 112.79245850000001,
                    "velocity": 0.15748031496062992,
                    "duration": 0.9360369999999989
                },
                {
                    "name": "D#4",
                    "midi": 63,
                    "time": 113.72849550000001,
                    "velocity": 0.14960629921259844,
                    "duration": 0.46801849999999945
                },
                {
                    "name": "G4",
                    "midi": 67,
                    "time": 113.72849550000001,
                    "velocity": 0.18110236220472442,
                    "duration": 0.46801849999999945
                },
                {
                    "name": "A#3",
                    "midi": 58,
                    "time": 113.72849550000001,
                    "velocity": 0.14960629921259844,
                    "duration": 0.46801849999999945
                },
                {
                    "name": "G3",
                    "midi": 55,
                    "time": 114.19651400000001,
                    "velocity": 0.28346456692913385,
                    "duration": 1.8720739999999978
                },
                {
                    "name": "D#4",
                    "midi": 63,
                    "time": 114.6645325,
                    "velocity": 0.2047244094488189,
                    "duration": 0.9360369999999989
                },
                {
                    "name": "G#4",
                    "midi": 68,
                    "time": 114.6645325,
                    "velocity": 0.2440944881889764,
                    "duration": 0.9360369999999989
                },
                {
                    "name": "C4",
                    "midi": 60,
                    "time": 114.6645325,
                    "velocity": 0.2047244094488189,
                    "duration": 0.9360369999999989
                },
                {
                    "name": "D#4",
                    "midi": 63,
                    "time": 115.6005695,
                    "velocity": 0.1889763779527559,
                    "duration": 0.23400924999999972
                },
                {
                    "name": "A4",
                    "midi": 69,
                    "time": 115.6005695,
                    "velocity": 0.2283464566929134,
                    "duration": 0.23400924999999972
                },
                {
                    "name": "C4",
                    "midi": 60,
                    "time": 115.6005695,
                    "velocity": 0.1889763779527559,
                    "duration": 0.23400924999999972
                },
                {
                    "name": "G3",
                    "midi": 55,
                    "time": 116.068588,
                    "velocity": 0.28346456692913385,
                    "duration": 1.872074000000012
                },
                {
                    "name": "D#4",
                    "midi": 63,
                    "time": 116.5366065,
                    "velocity": 0.2047244094488189,
                    "duration": 0.9360369999999989
                },
                {
                    "name": "G#4",
                    "midi": 68,
                    "time": 116.5366065,
                    "velocity": 0.2440944881889764,
                    "duration": 0.9360369999999989
                },
                {
                    "name": "C4",
                    "midi": 60,
                    "time": 116.5366065,
                    "velocity": 0.2047244094488189,
                    "duration": 0.9360369999999989
                },
                {
                    "name": "D#4",
                    "midi": 63,
                    "time": 117.4726435,
                    "velocity": 0.1889763779527559,
                    "duration": 0.3510138750000067
                },
                {
                    "name": "A4",
                    "midi": 69,
                    "time": 117.4726435,
                    "velocity": 0.2283464566929134,
                    "duration": 0.3510138750000067
                },
                {
                    "name": "C4",
                    "midi": 60,
                    "time": 117.4726435,
                    "velocity": 0.1889763779527559,
                    "duration": 0.3510138750000067
                },
                {
                    "name": "G3",
                    "midi": 55,
                    "time": 117.94066200000002,
                    "velocity": 0.4251968503937008,
                    "duration": 0.46801849999999945
                },
                {
                    "name": "A#4",
                    "midi": 70,
                    "time": 118.40868050000002,
                    "velocity": 0.33858267716535434,
                    "duration": 0.9360369999999989
                },
                {
                    "name": "F#4",
                    "midi": 66,
                    "time": 118.40868050000002,
                    "velocity": 0.29133858267716534,
                    "duration": 0.9360369999999989
                },
                {
                    "name": "C5",
                    "midi": 72,
                    "time": 118.40868050000002,
                    "velocity": 0.33858267716535434,
                    "duration": 0.9360369999999989
                },
                {
                    "name": "D#4",
                    "midi": 63,
                    "time": 118.40868050000002,
                    "velocity": 0.29133858267716534,
                    "duration": 0.9360369999999989
                },
                {
                    "name": "D#4",
                    "midi": 63,
                    "time": 119.34471750000002,
                    "velocity": 0.29133858267716534,
                    "duration": 0.3510138750000067
                },
                {
                    "name": "C5",
                    "midi": 72,
                    "time": 119.34471750000002,
                    "velocity": 0.33858267716535434,
                    "duration": 0.3510138750000067
                },
                {
                    "name": "F#4",
                    "midi": 66,
                    "time": 119.34471750000002,
                    "velocity": 0.29133858267716534,
                    "duration": 0.3510138750000067
                },
                {
                    "name": "A4",
                    "midi": 69,
                    "time": 119.34471750000002,
                    "velocity": 0.33858267716535434,
                    "duration": 0.3510138750000067
                },
                {
                    "name": "G3",
                    "midi": 55,
                    "time": 119.81273600000003,
                    "velocity": 0.4251968503937008,
                    "duration": 0.46801849999999945
                },
                {
                    "name": "A#4",
                    "midi": 70,
                    "time": 120.28075450000003,
                    "velocity": 0.33858267716535434,
                    "duration": 0.9360369999999989
                },
                {
                    "name": "F#4",
                    "midi": 66,
                    "time": 120.28075450000003,
                    "velocity": 0.29133858267716534,
                    "duration": 0.9360369999999989
                },
                {
                    "name": "C5",
                    "midi": 72,
                    "time": 120.28075450000003,
                    "velocity": 0.33858267716535434,
                    "duration": 0.9360369999999989
                },
                {
                    "name": "D#4",
                    "midi": 63,
                    "time": 120.28075450000003,
                    "velocity": 0.29133858267716534,
                    "duration": 0.9360369999999989
                },
                {
                    "name": "D#4",
                    "midi": 63,
                    "time": 121.21679150000003,
                    "velocity": 0.29133858267716534,
                    "duration": 0.3510138750000067
                },
                {
                    "name": "C5",
                    "midi": 72,
                    "time": 121.21679150000003,
                    "velocity": 0.33858267716535434,
                    "duration": 0.3510138750000067
                },
                {
                    "name": "F#4",
                    "midi": 66,
                    "time": 121.21679150000003,
                    "velocity": 0.29133858267716534,
                    "duration": 0.3510138750000067
                },
                {
                    "name": "A4",
                    "midi": 69,
                    "time": 121.21679150000003,
                    "velocity": 0.33858267716535434,
                    "duration": 0.3510138750000067
                },
                {
                    "name": "G3",
                    "midi": 55,
                    "time": 121.68481000000004,
                    "velocity": 0.4251968503937008,
                    "duration": 0.46801849999999945
                },
                {
                    "name": "A#4",
                    "midi": 70,
                    "time": 122.15282850000004,
                    "velocity": 0.3464566929133858,
                    "duration": 0.9360369999999989
                },
                {
                    "name": "F#4",
                    "midi": 66,
                    "time": 122.15282850000004,
                    "velocity": 0.29133858267716534,
                    "duration": 0.9360369999999989
                },
                {
                    "name": "C5",
                    "midi": 72,
                    "time": 122.15282850000004,
                    "velocity": 0.3464566929133858,
                    "duration": 0.9360369999999989
                },
                {
                    "name": "D#4",
                    "midi": 63,
                    "time": 122.15282850000004,
                    "velocity": 0.29133858267716534,
                    "duration": 0.9360369999999989
                },
                {
                    "name": "D#4",
                    "midi": 63,
                    "time": 123.08886550000004,
                    "velocity": 0.31496062992125984,
                    "duration": 0.46801849999999945
                },
                {
                    "name": "C5",
                    "midi": 72,
                    "time": 123.08886550000004,
                    "velocity": 0.3779527559055118,
                    "duration": 0.46801849999999945
                },
                {
                    "name": "F#4",
                    "midi": 66,
                    "time": 123.08886550000004,
                    "velocity": 0.31496062992125984,
                    "duration": 0.46801849999999945
                },
                {
                    "name": "A4",
                    "midi": 69,
                    "time": 123.08886550000004,
                    "velocity": 0.3779527559055118,
                    "duration": 0.46801849999999945
                },
                {
                    "name": "G3",
                    "midi": 55,
                    "time": 123.55688400000004,
                    "velocity": 0.5118110236220472,
                    "duration": 0.46801849999999945
                },
                {
                    "name": "A#4",
                    "midi": 70,
                    "time": 124.02490250000004,
                    "velocity": 0.4015748031496063,
                    "duration": 0.9360369999999989
                },
                {
                    "name": "F#4",
                    "midi": 66,
                    "time": 124.02490250000004,
                    "velocity": 0.33858267716535434,
                    "duration": 0.9360369999999989
                },
                {
                    "name": "C5",
                    "midi": 72,
                    "time": 124.02490250000004,
                    "velocity": 0.4015748031496063,
                    "duration": 0.9360369999999989
                },
                {
                    "name": "D#4",
                    "midi": 63,
                    "time": 124.02490250000004,
                    "velocity": 0.33858267716535434,
                    "duration": 0.9360369999999989
                },
                {
                    "name": "D#4",
                    "midi": 63,
                    "time": 124.96093950000004,
                    "velocity": 0.3464566929133858,
                    "duration": 0.3510138750000067
                },
                {
                    "name": "C5",
                    "midi": 72,
                    "time": 124.96093950000004,
                    "velocity": 0.4015748031496063,
                    "duration": 0.3510138750000067
                },
                {
                    "name": "F#4",
                    "midi": 66,
                    "time": 124.96093950000004,
                    "velocity": 0.3464566929133858,
                    "duration": 0.3510138750000067
                },
                {
                    "name": "A4",
                    "midi": 69,
                    "time": 124.96093950000004,
                    "velocity": 0.4015748031496063,
                    "duration": 0.3510138750000067
                },
                {
                    "name": "C3",
                    "midi": 48,
                    "time": 125.42895800000005,
                    "velocity": 0.30708661417322836,
                    "duration": 1.872074000000012
                },
                {
                    "name": "G3",
                    "midi": 55,
                    "time": 125.89697650000005,
                    "velocity": 0.29133858267716534,
                    "duration": 0.9360369999999989
                },
                {
                    "name": "D#4",
                    "midi": 63,
                    "time": 125.89697650000005,
                    "velocity": 0.33858267716535434,
                    "duration": 0.9360369999999989
                },
                {
                    "name": "D#4",
                    "midi": 63,
                    "time": 126.83301350000005,
                    "velocity": 0.33858267716535434,
                    "duration": 0.3510138750000067
                },
                {
                    "name": "G3",
                    "midi": 55,
                    "time": 126.83301350000005,
                    "velocity": 0.29133858267716534,
                    "duration": 0.3510138750000067
                },
                {
                    "name": "B2",
                    "midi": 47,
                    "time": 127.30103200000006,
                    "velocity": 0.33858267716535434,
                    "duration": 1.872074000000012
                },
                {
                    "name": "G3",
                    "midi": 55,
                    "time": 127.76905050000006,
                    "velocity": 0.25984251968503935,
                    "duration": 0.9360370000000131
                },
                {
                    "name": "D4",
                    "midi": 62,
                    "time": 127.76905050000006,
                    "velocity": 0.2992125984251969,
                    "duration": 0.9360370000000131
                },
                {
                    "name": "D4",
                    "midi": 62,
                    "time": 128.70508750000008,
                    "velocity": 0.2992125984251969,
                    "duration": 0.3510138750000067
                },
                {
                    "name": "G3",
                    "midi": 55,
                    "time": 128.70508750000008,
                    "velocity": 0.25984251968503935,
                    "duration": 0.3510138750000067
                },
                {
                    "name": "A#2",
                    "midi": 46,
                    "time": 129.17310600000008,
                    "velocity": 0.30708661417322836,
                    "duration": 1.8720739999999978
                },
                {
                    "name": "E3",
                    "midi": 52,
                    "time": 129.64112450000007,
                    "velocity": 0.2283464566929134,
                    "duration": 0.9360369999999989
                },
                {
                    "name": "G3",
                    "midi": 55,
                    "time": 129.64112450000007,
                    "velocity": 0.2283464566929134,
                    "duration": 0.9360369999999989
                },
                {
                    "name": "C#4",
                    "midi": 61,
                    "time": 129.64112450000007,
                    "velocity": 0.2677165354330709,
                    "duration": 0.9360369999999989
                },
                {
                    "name": "E3",
                    "midi": 52,
                    "time": 130.57716150000007,
                    "velocity": 0.2283464566929134,
                    "duration": 0.3510138750000067
                },
                {
                    "name": "C#4",
                    "midi": 61,
                    "time": 130.57716150000007,
                    "velocity": 0.2677165354330709,
                    "duration": 0.3510138750000067
                },
                {
                    "name": "G3",
                    "midi": 55,
                    "time": 130.57716150000007,
                    "velocity": 0.2283464566929134,
                    "duration": 0.3510138750000067
                },
                {
                    "name": "A2",
                    "midi": 45,
                    "time": 131.04518000000007,
                    "velocity": 0.2440944881889764,
                    "duration": 1.8720739999999978
                },
                {
                    "name": "D3",
                    "midi": 50,
                    "time": 131.51319850000007,
                    "velocity": 0.14173228346456693,
                    "duration": 0.9360369999999989
                },
                {
                    "name": "F#3",
                    "midi": 54,
                    "time": 131.51319850000007,
                    "velocity": 0.14173228346456693,
                    "duration": 0.9360369999999989
                },
                {
                    "name": "C4",
                    "midi": 60,
                    "time": 131.51319850000007,
                    "velocity": 0.16535433070866143,
                    "duration": 0.9360369999999989
                },
                {
                    "name": "D3",
                    "midi": 50,
                    "time": 132.44923550000007,
                    "velocity": 0.14173228346456693,
                    "duration": 0.3510138750000067
                },
                {
                    "name": "C4",
                    "midi": 60,
                    "time": 132.44923550000007,
                    "velocity": 0.16535433070866143,
                    "duration": 0.3510138750000067
                },
                {
                    "name": "F#3",
                    "midi": 54,
                    "time": 132.44923550000007,
                    "velocity": 0.14173228346456693,
                    "duration": 0.3510138750000067
                },
                {
                    "name": "G2",
                    "midi": 43,
                    "time": 132.91725400000007,
                    "velocity": 0.2204724409448819,
                    "duration": 0.46801849999999945
                },
                {
                    "name": "B3",
                    "midi": 59,
                    "time": 133.38527250000007,
                    "velocity": 0.15748031496062992,
                    "duration": 0.9360369999999989
                },
                {
                    "name": "D3",
                    "midi": 50,
                    "time": 133.38527250000007,
                    "velocity": 0.13385826771653545,
                    "duration": 0.9360369999999989
                },
                {
                    "name": "B3",
                    "midi": 59,
                    "time": 134.32130950000007,
                    "velocity": 0.15748031496062992,
                    "duration": 0.46801849999999945
                },
                {
                    "name": "D3",
                    "midi": 50,
                    "time": 134.32130950000007,
                    "velocity": 0.13385826771653545,
                    "duration": 0.46801849999999945
                },
                {
                    "name": "G2",
                    "midi": 43,
                    "time": 134.78932800000007,
                    "velocity": 0.2204724409448819,
                    "duration": 0.46801849999999945
                },
                {
                    "name": "B3",
                    "midi": 59,
                    "time": 135.25734650000007,
                    "velocity": 0.16535433070866143,
                    "duration": 0.9360369999999989
                },
                {
                    "name": "D3",
                    "midi": 50,
                    "time": 135.25734650000007,
                    "velocity": 0.13385826771653545,
                    "duration": 0.9360369999999989
                },
                {
                    "name": "B3",
                    "midi": 59,
                    "time": 136.19338350000007,
                    "velocity": 0.16535433070866143,
                    "duration": 0.46801849999999945
                },
                {
                    "name": "D3",
                    "midi": 50,
                    "time": 136.19338350000007,
                    "velocity": 0.13385826771653545,
                    "duration": 0.46801849999999945
                },
                {
                    "name": "G2",
                    "midi": 43,
                    "time": 136.66140200000007,
                    "velocity": 0.2204724409448819,
                    "duration": 0.46801849999999945
                },
                {
                    "name": "B3",
                    "midi": 59,
                    "time": 137.12942050000007,
                    "velocity": 0.1889763779527559,
                    "duration": 0.9360369999999989
                },
                {
                    "name": "D3",
                    "midi": 50,
                    "time": 137.12942050000007,
                    "velocity": 0.15748031496062992,
                    "duration": 0.9360369999999989
                },
                {
                    "name": "C4",
                    "midi": 60,
                    "time": 138.06545750000006,
                    "velocity": 0.18110236220472442,
                    "duration": 0.46801849999999945
                },
                {
                    "name": "D3",
                    "midi": 50,
                    "time": 138.06545750000006,
                    "velocity": 0.14960629921259844,
                    "duration": 0.46801849999999945
                },
                {
                    "name": "G2",
                    "midi": 43,
                    "time": 138.53347600000006,
                    "velocity": 0.2204724409448819,
                    "duration": 0.46801849999999945
                },
                {
                    "name": "B3",
                    "midi": 59,
                    "time": 139.00149450000006,
                    "velocity": 0.1889763779527559,
                    "duration": 0.9360369999999989
                },
                {
                    "name": "D3",
                    "midi": 50,
                    "time": 139.00149450000006,
                    "velocity": 0.15748031496062992,
                    "duration": 0.9360369999999989
                },
                {
                    "name": "B3",
                    "midi": 59,
                    "time": 139.93753150000006,
                    "velocity": 0.1889763779527559,
                    "duration": 0.23400925000001394
                },
                {
                    "name": "D3",
                    "midi": 50,
                    "time": 139.93753150000006,
                    "velocity": 0.15748031496062992,
                    "duration": 0.23400925000001394
                },
                {
                    "name": "G2",
                    "midi": 43,
                    "time": 140.4055500000001,
                    "velocity": 0.2204724409448819,
                    "duration": 0.46801849999999945
                },
                {
                    "name": "C4",
                    "midi": 60,
                    "time": 140.8735685000001,
                    "velocity": 0.1889763779527559,
                    "duration": 0.9360369999999989
                },
                {
                    "name": "D3",
                    "midi": 50,
                    "time": 140.8735685000001,
                    "velocity": 0.15748031496062992,
                    "duration": 0.9360369999999989
                },
                {
                    "name": "C4",
                    "midi": 60,
                    "time": 141.8096055000001,
                    "velocity": 0.18110236220472442,
                    "duration": 0.23400925000001394
                },
                {
                    "name": "D3",
                    "midi": 50,
                    "time": 141.8096055000001,
                    "velocity": 0.14960629921259844,
                    "duration": 0.23400925000001394
                },
                {
                    "name": "G2",
                    "midi": 43,
                    "time": 142.27762400000012,
                    "velocity": 0.2204724409448819,
                    "duration": 0.46801849999999945
                },
                {
                    "name": "C4",
                    "midi": 60,
                    "time": 142.74564250000012,
                    "velocity": 0.1889763779527559,
                    "duration": 0.9360369999999989
                },
                {
                    "name": "D3",
                    "midi": 50,
                    "time": 142.74564250000012,
                    "velocity": 0.15748031496062992,
                    "duration": 0.9360369999999989
                },
                {
                    "name": "C4",
                    "midi": 60,
                    "time": 143.68167950000012,
                    "velocity": 0.18110236220472442,
                    "duration": 0.23400925000001394
                },
                {
                    "name": "D3",
                    "midi": 50,
                    "time": 143.68167950000012,
                    "velocity": 0.14960629921259844,
                    "duration": 0.23400925000001394
                },
                {
                    "name": "G2",
                    "midi": 43,
                    "time": 144.14969800000014,
                    "velocity": 0.2204724409448819,
                    "duration": 0.46801849999999945
                },
                {
                    "name": "C4",
                    "midi": 60,
                    "time": 144.61771650000014,
                    "velocity": 0.1889763779527559,
                    "duration": 0.9360369999999989
                },
                {
                    "name": "D3",
                    "midi": 50,
                    "time": 144.61771650000014,
                    "velocity": 0.15748031496062992,
                    "duration": 0.9360369999999989
                },
                {
                    "name": "C4",
                    "midi": 60,
                    "time": 145.55375350000014,
                    "velocity": 0.18110236220472442,
                    "duration": 0.23400925000001394
                },
                {
                    "name": "D3",
                    "midi": 50,
                    "time": 145.55375350000014,
                    "velocity": 0.14960629921259844,
                    "duration": 0.23400925000001394
                },
                {
                    "name": "G2",
                    "midi": 43,
                    "time": 146.02177200000017,
                    "velocity": 0.2204724409448819,
                    "duration": 0.46801849999999945
                },
                {
                    "name": "C4",
                    "midi": 60,
                    "time": 146.48979050000017,
                    "velocity": 0.1889763779527559,
                    "duration": 0.9360369999999989
                },
                {
                    "name": "D3",
                    "midi": 50,
                    "time": 146.48979050000017,
                    "velocity": 0.15748031496062992,
                    "duration": 0.9360369999999989
                },
                {
                    "name": "C4",
                    "midi": 60,
                    "time": 147.42582750000017,
                    "velocity": 0.18110236220472442,
                    "duration": 0.23400925000001394
                },
                {
                    "name": "D3",
                    "midi": 50,
                    "time": 147.42582750000017,
                    "velocity": 0.14960629921259844,
                    "duration": 0.23400925000001394
                },
                {
                    "name": "G3",
                    "midi": 55,
                    "time": 147.8938460000002,
                    "velocity": 0.2204724409448819,
                    "duration": 0.46801849999999945
                },
                {
                    "name": "B4",
                    "midi": 71,
                    "time": 148.3618645000002,
                    "velocity": 0.1889763779527559,
                    "duration": 0.9360369999999989
                },
                {
                    "name": "D4",
                    "midi": 62,
                    "time": 148.3618645000002,
                    "velocity": 0.15748031496062992,
                    "duration": 0.9360369999999989
                },
                {
                    "name": "B4",
                    "midi": 71,
                    "time": 149.2979015000002,
                    "velocity": 0.18110236220472442,
                    "duration": 0.23400925000001394
                },
                {
                    "name": "D4",
                    "midi": 62,
                    "time": 149.2979015000002,
                    "velocity": 0.14960629921259844,
                    "duration": 0.23400925000001394
                },
                {
                    "name": "G3",
                    "midi": 55,
                    "time": 149.76592000000022,
                    "velocity": 0.2204724409448819,
                    "duration": 0.46801849999999945
                },
                {
                    "name": "B4",
                    "midi": 71,
                    "time": 150.23393850000022,
                    "velocity": 0.1889763779527559,
                    "duration": 0.9360369999999989
                },
                {
                    "name": "D4",
                    "midi": 62,
                    "time": 150.23393850000022,
                    "velocity": 0.15748031496062992,
                    "duration": 0.9360369999999989
                },
                {
                    "name": "B4",
                    "midi": 71,
                    "time": 151.16997550000022,
                    "velocity": 0.18110236220472442,
                    "duration": 0.23400925000001394
                },
                {
                    "name": "D4",
                    "midi": 62,
                    "time": 151.16997550000022,
                    "velocity": 0.14960629921259844,
                    "duration": 0.23400925000001394
                },
                {
                    "name": "G3",
                    "midi": 55,
                    "time": 151.63799400000025,
                    "velocity": 0.2204724409448819,
                    "duration": 0.46801849999999945
                },
                {
                    "name": "B4",
                    "midi": 71,
                    "time": 152.10601250000025,
                    "velocity": 0.1889763779527559,
                    "duration": 0.9360369999999989
                },
                {
                    "name": "D4",
                    "midi": 62,
                    "time": 152.10601250000025,
                    "velocity": 0.15748031496062992,
                    "duration": 0.9360369999999989
                },
                {
                    "name": "C5",
                    "midi": 72,
                    "time": 153.04204950000025,
                    "velocity": 0.18110236220472442,
                    "duration": 0.3510138750000067
                },
                {
                    "name": "D4",
                    "midi": 62,
                    "time": 153.04204950000025,
                    "velocity": 0.14960629921259844,
                    "duration": 0.3510138750000067
                },
                {
                    "name": "G3",
                    "midi": 55,
                    "time": 153.51006800000025,
                    "velocity": 0.2204724409448819,
                    "duration": 0.46801849999999945
                },
                {
                    "name": "B4",
                    "midi": 71,
                    "time": 153.97808650000024,
                    "velocity": 0.1889763779527559,
                    "duration": 0.9360369999999989
                },
                {
                    "name": "D4",
                    "midi": 62,
                    "time": 153.97808650000024,
                    "velocity": 0.15748031496062992,
                    "duration": 0.9360369999999989
                },
                {
                    "name": "B4",
                    "midi": 71,
                    "time": 154.91412350000024,
                    "velocity": 0.18110236220472442,
                    "duration": 0.23400925000001394
                },
                {
                    "name": "D4",
                    "midi": 62,
                    "time": 154.91412350000024,
                    "velocity": 0.14960629921259844,
                    "duration": 0.23400925000001394
                },
                {
                    "name": "D3",
                    "midi": 50,
                    "time": 155.38214200000027,
                    "velocity": 0.2204724409448819,
                    "duration": 0.46801849999999945
                },
                {
                    "name": "B3",
                    "midi": 59,
                    "time": 155.85016050000027,
                    "velocity": 0.13385826771653545,
                    "duration": 0.9360369999999989
                },
                {
                    "name": "A4",
                    "midi": 69,
                    "time": 155.85016050000027,
                    "velocity": 0.16535433070866143,
                    "duration": 0.9360369999999989
                },
                {
                    "name": "D4",
                    "midi": 62,
                    "time": 155.85016050000027,
                    "velocity": 0.13385826771653545,
                    "duration": 0.9360369999999989
                },
                {
                    "name": "B3",
                    "midi": 59,
                    "time": 156.78619750000027,
                    "velocity": 0.12598425196850394,
                    "duration": 0.23400925000001394
                },
                {
                    "name": "G4",
                    "midi": 67,
                    "time": 156.78619750000027,
                    "velocity": 0.15748031496062992,
                    "duration": 0.23400925000001394
                },
                {
                    "name": "D4",
                    "midi": 62,
                    "time": 156.78619750000027,
                    "velocity": 0.12598425196850394,
                    "duration": 0.23400925000001394
                },
                {
                    "name": "D3",
                    "midi": 50,
                    "time": 157.2542160000003,
                    "velocity": 0.2204724409448819,
                    "duration": 0.46801849999999945
                },
                {
                    "name": "A#3",
                    "midi": 58,
                    "time": 157.7222345000003,
                    "velocity": 0.13385826771653545,
                    "duration": 0.9360369999999989
                },
                {
                    "name": "A4",
                    "midi": 69,
                    "time": 157.7222345000003,
                    "velocity": 0.16535433070866143,
                    "duration": 0.9360369999999989
                },
                {
                    "name": "E4",
                    "midi": 64,
                    "time": 157.7222345000003,
                    "velocity": 0.13385826771653545,
                    "duration": 0.9360369999999989
                },
                {
                    "name": "A#3",
                    "midi": 58,
                    "time": 158.6582715000003,
                    "velocity": 0.12598425196850394,
                    "duration": 0.23400925000001394
                },
                {
                    "name": "G4",
                    "midi": 67,
                    "time": 158.6582715000003,
                    "velocity": 0.15748031496062992,
                    "duration": 0.23400925000001394
                },
                {
                    "name": "E4",
                    "midi": 64,
                    "time": 158.6582715000003,
                    "velocity": 0.12598425196850394,
                    "duration": 0.23400925000001394
                },
                {
                    "name": "D3",
                    "midi": 50,
                    "time": 159.12629000000032,
                    "velocity": 0.1968503937007874,
                    "duration": 0.46801849999999945
                },
                {
                    "name": "C4",
                    "midi": 60,
                    "time": 159.59430850000032,
                    "velocity": 0.11811023622047244,
                    "duration": 0.9360369999999989
                },
                {
                    "name": "B4",
                    "midi": 71,
                    "time": 159.59430850000032,
                    "velocity": 0.14173228346456693,
                    "duration": 0.9360369999999989
                },
                {
                    "name": "F#4",
                    "midi": 66,
                    "time": 159.59430850000032,
                    "velocity": 0.11811023622047244,
                    "duration": 0.9360369999999989
                },
                {
                    "name": "C4",
                    "midi": 60,
                    "time": 160.53034550000032,
                    "velocity": 0.11023622047244094,
                    "duration": 0.23400925000001394
                },
                {
                    "name": "A4",
                    "midi": 69,
                    "time": 160.53034550000032,
                    "velocity": 0.14173228346456693,
                    "duration": 0.23400925000001394
                },
                {
                    "name": "F#4",
                    "midi": 66,
                    "time": 160.53034550000032,
                    "velocity": 0.11023622047244094,
                    "duration": 0.23400925000001394
                },
                {
                    "name": "G2",
                    "midi": 43,
                    "time": 160.99836400000035,
                    "velocity": 0.11811023622047244,
                    "duration": 0.46801849999999945
                },
                {
                    "name": "D3",
                    "midi": 50,
                    "time": 160.99836400000035,
                    "velocity": 0.14173228346456693,
                    "duration": 0.46801849999999945
                },
                {
                    "name": "B3",
                    "midi": 59,
                    "time": 161.46638250000035,
                    "velocity": 0.10236220472440945,
                    "duration": 1.2870508750000056
                },
                {
                    "name": "G4",
                    "midi": 67,
                    "time": 161.46638250000035,
                    "velocity": 0.12598425196850394,
                    "duration": 1.2870508750000056
                },
                {
                    "name": "D4",
                    "midi": 62,
                    "time": 161.46638250000035,
                    "velocity": 0.10236220472440945,
                    "duration": 1.2870508750000056
                }
            ],
            "controlChanges": {},
            "id": 2,
            "name": "Piano left",
            "instrumentNumber": 0,
            "instrument": "acoustic grand piano",
            "instrumentFamily": "piano",
            "channelNumber": 0,
            "isPercussion": false
        },
        {
            "startTime": 0,
            "duration": 0,
            "length": 0,
            "notes": [],
            "controlChanges": {
                "64": [
                    {
                        "number": 64,
                        "time": 0.19305763125,
                        "value": 1
                    },
                    {
                        "number": 64,
                        "time": 4.717236464583333,
                        "value": 0
                    },
                    {
                        "number": 64,
                        "time": 5.80927963125,
                        "value": 1
                    },
                    {
                        "number": 64,
                        "time": 7.38884206875,
                        "value": 0
                    },
                    {
                        "number": 64,
                        "time": 7.488296,
                        "value": 1
                    },
                    {
                        "number": 64,
                        "time": 9.36037,
                        "value": 0
                    },
                    {
                        "number": 64,
                        "time": 9.450073545833334,
                        "value": 1
                    },
                    {
                        "number": 64,
                        "time": 11.261695156250001,
                        "value": 0
                    },
                    {
                        "number": 64,
                        "time": 11.3845500125,
                        "value": 1
                    },
                    {
                        "number": 64,
                        "time": 12.985563297916666,
                        "value": 0
                    },
                    {
                        "number": 64,
                        "time": 13.104518,
                        "value": 1
                    },
                    {
                        "number": 64,
                        "time": 14.853737143750001,
                        "value": 0
                    },
                    {
                        "number": 64,
                        "time": 15.101396933333334,
                        "value": 1
                    },
                    {
                        "number": 64,
                        "time": 19.693828464583333,
                        "value": 0
                    },
                    {
                        "number": 64,
                        "time": 20.709818625,
                        "value": 1
                    },
                    {
                        "number": 64,
                        "time": 22.26012990625,
                        "value": 0
                    },
                    {
                        "number": 64,
                        "time": 22.464888000000002,
                        "value": 1
                    },
                    {
                        "number": 64,
                        "time": 24.13025382916667,
                        "value": 0
                    },
                    {
                        "number": 64,
                        "time": 24.336962000000003,
                        "value": 1
                    },
                    {
                        "number": 64,
                        "time": 25.992577443750005,
                        "value": 0
                    },
                    {
                        "number": 64,
                        "time": 26.209036000000005,
                        "value": 1
                    },
                    {
                        "number": 64,
                        "time": 27.87245175208334,
                        "value": 0
                    },
                    {
                        "number": 64,
                        "time": 28.081110000000006,
                        "value": 1
                    },
                    {
                        "number": 64,
                        "time": 29.830329143750006,
                        "value": 0
                    },
                    {
                        "number": 64,
                        "time": 30.146241631250007,
                        "value": 1
                    },
                    {
                        "number": 64,
                        "time": 34.67042046458334,
                        "value": 0
                    },
                    {
                        "number": 64,
                        "time": 35.76246363125001,
                        "value": 1
                    },
                    {
                        "number": 64,
                        "time": 37.34202606875001,
                        "value": 0
                    },
                    {
                        "number": 64,
                        "time": 37.441480000000006,
                        "value": 1
                    },
                    {
                        "number": 64,
                        "time": 39.313554,
                        "value": 0
                    },
                    {
                        "number": 64,
                        "time": 39.403257545833334,
                        "value": 1
                    },
                    {
                        "number": 64,
                        "time": 41.21487915625,
                        "value": 0
                    },
                    {
                        "number": 64,
                        "time": 41.3377340125,
                        "value": 1
                    },
                    {
                        "number": 64,
                        "time": 42.93874729791667,
                        "value": 0
                    },
                    {
                        "number": 64,
                        "time": 43.057702000000006,
                        "value": 1
                    },
                    {
                        "number": 64,
                        "time": 44.80692114375,
                        "value": 0
                    },
                    {
                        "number": 64,
                        "time": 45.054580933333334,
                        "value": 1
                    },
                    {
                        "number": 64,
                        "time": 49.647012464583334,
                        "value": 0
                    },
                    {
                        "number": 64,
                        "time": 50.663002625,
                        "value": 1
                    },
                    {
                        "number": 64,
                        "time": 52.213313906249994,
                        "value": 0
                    },
                    {
                        "number": 64,
                        "time": 52.418071999999995,
                        "value": 1
                    },
                    {
                        "number": 64,
                        "time": 54.08343782916666,
                        "value": 0
                    },
                    {
                        "number": 64,
                        "time": 54.29014599999999,
                        "value": 1
                    },
                    {
                        "number": 64,
                        "time": 55.945761443749994,
                        "value": 0
                    },
                    {
                        "number": 64,
                        "time": 56.16221999999999,
                        "value": 1
                    },
                    {
                        "number": 64,
                        "time": 57.82563575208332,
                        "value": 0
                    },
                    {
                        "number": 64,
                        "time": 58.03429399999999,
                        "value": 1
                    },
                    {
                        "number": 64,
                        "time": 59.79716368333332,
                        "value": 0
                    },
                    {
                        "number": 64,
                        "time": 60.96525985624999,
                        "value": 1
                    },
                    {
                        "number": 64,
                        "time": 61.77844199999999,
                        "value": 0
                    },
                    {
                        "number": 64,
                        "time": 62.89388609166666,
                        "value": 1
                    },
                    {
                        "number": 64,
                        "time": 63.775320933333326,
                        "value": 0
                    },
                    {
                        "number": 64,
                        "time": 71.40012232916666,
                        "value": 1
                    },
                    {
                        "number": 64,
                        "time": 73.74021482916666,
                        "value": 0
                    },
                    {
                        "number": 64,
                        "time": 75.94185185625,
                        "value": 1
                    },
                    {
                        "number": 64,
                        "time": 76.755034,
                        "value": 0
                    },
                    {
                        "number": 64,
                        "time": 77.87047809166666,
                        "value": 1
                    },
                    {
                        "number": 64,
                        "time": 78.75191293333332,
                        "value": 0
                    },
                    {
                        "number": 64,
                        "time": 86.37671432916665,
                        "value": 1
                    },
                    {
                        "number": 64,
                        "time": 88.71680682916664,
                        "value": 0
                    },
                    {
                        "number": 64,
                        "time": 89.96095600833331,
                        "value": 1
                    },
                    {
                        "number": 64,
                        "time": 94.18287289374997,
                        "value": 0
                    },
                    {
                        "number": 64,
                        "time": 95.66883163124997,
                        "value": 1
                    },
                    {
                        "number": 64,
                        "time": 100.19301046458331,
                        "value": 0
                    },
                    {
                        "number": 64,
                        "time": 101.28505363124998,
                        "value": 1
                    },
                    {
                        "number": 64,
                        "time": 102.86461606874998,
                        "value": 0
                    },
                    {
                        "number": 64,
                        "time": 102.96406999999998,
                        "value": 1
                    },
                    {
                        "number": 64,
                        "time": 104.85369469374997,
                        "value": 0
                    },
                    {
                        "number": 64,
                        "time": 105.16765710416664,
                        "value": 1
                    },
                    {
                        "number": 64,
                        "time": 106.73746915624997,
                        "value": 0
                    },
                    {
                        "number": 64,
                        "time": 106.86032401249997,
                        "value": 1
                    },
                    {
                        "number": 64,
                        "time": 108.46133729791664,
                        "value": 0
                    },
                    {
                        "number": 64,
                        "time": 108.58029199999997,
                        "value": 1
                    },
                    {
                        "number": 64,
                        "time": 110.48161715624997,
                        "value": 0
                    },
                    {
                        "number": 64,
                        "time": 110.60447201249997,
                        "value": 1
                    },
                    {
                        "number": 64,
                        "time": 112.20548529791664,
                        "value": 0
                    },
                    {
                        "number": 64,
                        "time": 112.32443999999997,
                        "value": 1
                    },
                    {
                        "number": 64,
                        "time": 114.22576515624996,
                        "value": 0
                    },
                    {
                        "number": 64,
                        "time": 114.34862001249996,
                        "value": 1
                    },
                    {
                        "number": 64,
                        "time": 115.94963329791663,
                        "value": 0
                    },
                    {
                        "number": 64,
                        "time": 116.0237362270833,
                        "value": 1
                    },
                    {
                        "number": 64,
                        "time": 117.9543125395833,
                        "value": 0
                    },
                    {
                        "number": 64,
                        "time": 118.07911747291664,
                        "value": 1
                    },
                    {
                        "number": 64,
                        "time": 119.4812228958333,
                        "value": 0
                    },
                    {
                        "number": 64,
                        "time": 119.8263865395833,
                        "value": 0
                    },
                    {
                        "number": 64,
                        "time": 119.95119147291663,
                        "value": 1
                    },
                    {
                        "number": 64,
                        "time": 121.3532968958333,
                        "value": 0
                    },
                    {
                        "number": 64,
                        "time": 121.6984605395833,
                        "value": 0
                    },
                    {
                        "number": 64,
                        "time": 121.82326547291663,
                        "value": 1
                    },
                    {
                        "number": 64,
                        "time": 123.2253708958333,
                        "value": 0
                    },
                    {
                        "number": 64,
                        "time": 123.57053453958329,
                        "value": 0
                    },
                    {
                        "number": 64,
                        "time": 123.69533947291663,
                        "value": 1
                    },
                    {
                        "number": 64,
                        "time": 125.09744489583329,
                        "value": 0
                    },
                    {
                        "number": 64,
                        "time": 125.51281131458329,
                        "value": 1
                    },
                    {
                        "number": 64,
                        "time": 127.30103199999995,
                        "value": 0
                    },
                    {
                        "number": 64,
                        "time": 127.41218639374995,
                        "value": 1
                    },
                    {
                        "number": 64,
                        "time": 129.22575808124995,
                        "value": 0
                    },
                    {
                        "number": 64,
                        "time": 129.26280954583328,
                        "value": 1
                    },
                    {
                        "number": 64,
                        "time": 131.06078061666662,
                        "value": 0
                    },
                    {
                        "number": 64,
                        "time": 131.11538277499994,
                        "value": 1
                    },
                    {
                        "number": 64,
                        "time": 132.84120099374994,
                        "value": 0
                    },
                    {
                        "number": 64,
                        "time": 133.11031163124994,
                        "value": 1
                    },
                    {
                        "number": 64,
                        "time": 137.63449046458328,
                        "value": 0
                    },
                    {
                        "number": 64,
                        "time": 138.72653363124994,
                        "value": 1
                    },
                    {
                        "number": 64,
                        "time": 140.30609606874992,
                        "value": 0
                    },
                    {
                        "number": 64,
                        "time": 140.40554999999992,
                        "value": 1
                    },
                    {
                        "number": 64,
                        "time": 142.27762399999992,
                        "value": 0
                    },
                    {
                        "number": 64,
                        "time": 142.36732754583326,
                        "value": 1
                    },
                    {
                        "number": 64,
                        "time": 144.17894915624993,
                        "value": 0
                    },
                    {
                        "number": 64,
                        "time": 144.30180401249993,
                        "value": 1
                    },
                    {
                        "number": 64,
                        "time": 145.90281729791658,
                        "value": 0
                    },
                    {
                        "number": 64,
                        "time": 146.0217719999999,
                        "value": 1
                    },
                    {
                        "number": 64,
                        "time": 147.7709911437499,
                        "value": 0
                    },
                    {
                        "number": 64,
                        "time": 148.01865093333325,
                        "value": 1
                    },
                    {
                        "number": 64,
                        "time": 152.61108246458326,
                        "value": 0
                    },
                    {
                        "number": 64,
                        "time": 153.62707262499993,
                        "value": 1
                    },
                    {
                        "number": 64,
                        "time": 155.17738390624993,
                        "value": 0
                    },
                    {
                        "number": 64,
                        "time": 155.38214199999993,
                        "value": 1
                    },
                    {
                        "number": 64,
                        "time": 157.0475078291666,
                        "value": 0
                    },
                    {
                        "number": 64,
                        "time": 157.25421599999993,
                        "value": 1
                    },
                    {
                        "number": 64,
                        "time": 158.90983144374994,
                        "value": 0
                    },
                    {
                        "number": 64,
                        "time": 159.12628999999993,
                        "value": 1
                    },
                    {
                        "number": 64,
                        "time": 160.78970575208325,
                        "value": 0
                    },
                    {
                        "number": 64,
                        "time": 160.99836399999992,
                        "value": 1
                    },
                    {
                        "number": 64,
                        "time": 162.74758314374992,
                        "value": 0
                    }
                ]
            },
            "id": 3,
            "name": "Pedale",
            "instrumentNumber": 0,
            "instrument": "acoustic grand piano",
            "instrumentFamily": "piano",
            "channelNumber": 0,
            "isPercussion": false
        },
        {
            "startTime": 0,
            "duration": 0,
            "length": 0,
            "notes": [],
            "controlChanges": {},
            "id": 4,
            "name": "Grieg: Berceuse"
        },
        {
            "startTime": 0,
            "duration": 0,
            "length": 0,
            "notes": [],
            "controlChanges": {},
            "id": 5,
            "name": "Copyright  2012 by Bernd Krueger"
        },
        {
            "startTime": 0,
            "duration": 0,
            "length": 0,
            "notes": [],
            "controlChanges": {},
            "id": 6,
            "name": "http://www.piano-midi.de/"
        },
        {
            "startTime": 0,
            "duration": 0,
            "length": 0,
            "notes": [],
            "controlChanges": {},
            "id": 7,
            "name": "Edition: 2012-09-12"
        },
        {
            "startTime": 0,
            "duration": 0,
            "length": 0,
            "notes": [],
            "controlChanges": {},
            "id": 8,
            "name": "Spur 8"
        },
        {
            "startTime": 0,
            "duration": 0,
            "length": 0,
            "notes": [],
            "controlChanges": {},
            "id": 9,
            "name": "Spur 9"
        },
        {
            "startTime": 0,
            "duration": 0,
            "length": 0,
            "notes": [],
            "controlChanges": {},
            "id": 10,
            "name": "Spur 10"
        },
        {
            "startTime": 0,
            "duration": 0,
            "length": 0,
            "notes": [],
            "controlChanges": {},
            "id": 11,
            "name": "Spur 11"
        },
        {
            "startTime": 0,
            "duration": 0,
            "length": 0,
            "notes": [],
            "controlChanges": {},
            "id": 12,
            "name": "Spur 12"
        },
        {
            "startTime": 0,
            "duration": 0,
            "length": 0,
            "notes": [],
            "controlChanges": {},
            "id": 13,
            "name": "Spur 13"
        },
        {
            "startTime": 0,
            "duration": 0,
            "length": 0,
            "notes": [],
            "controlChanges": {},
            "id": 14,
            "name": "Spur 14"
        },
        {
            "startTime": 0,
            "duration": 0,
            "length": 0,
            "notes": [],
            "controlChanges": {},
            "id": 15,
            "name": "Spur 15"
        },
        {
            "startTime": 0,
            "duration": 0,
            "length": 0,
            "notes": [],
            "controlChanges": {},
            "id": 16,
            "name": "Spur 16"
        }
    ]
}