{
    "header": {
        "PPQ": 480,
        "timeSignature": [
            4,
            4
        ],
        "bpm": 114.28005470205285,
        "name": "Hochzeitstag auf Troldhaugen Op 65, No. 6"
    },
    "startTime": 0,
    "duration": 355.3113455000077,
    "tracks": [
        {
            "startTime": 0,
            "duration": 0,
            "length": 0,
            "notes": [],
            "controlChanges": {},
            "id": 0,
            "name": "Hochzeitstag auf Troldhaugen Op 65, No. 6"
        },
        {
            "startTime": 0.525026,
            "duration": 355.3113455000077,
            "length": 2239,
            "notes": [
                {
                    "name": "A3",
                    "midi": 57,
                    "time": 0.525026,
                    "velocity": 0.2440944881889764,
                    "duration": 0.262513
                },
                {
                    "name": "D3",
                    "midi": 50,
                    "time": 0.525026,
                    "velocity": 0.2440944881889764,
                    "duration": 0.262513
                },
                {
                    "name": "D3",
                    "midi": 50,
                    "time": 0.787539,
                    "velocity": 0.2440944881889764,
                    "duration": 0.262513
                },
                {
                    "name": "A3",
                    "midi": 57,
                    "time": 0.787539,
                    "velocity": 0.2440944881889764,
                    "duration": 0.262513
                },
                {
                    "name": "D3",
                    "midi": 50,
                    "time": 1.050052,
                    "velocity": 0.28346456692913385,
                    "duration": 0.262513
                },
                {
                    "name": "A3",
                    "midi": 57,
                    "time": 1.050052,
                    "velocity": 0.28346456692913385,
                    "duration": 0.262513
                },
                {
                    "name": "D3",
                    "midi": 50,
                    "time": 2.62513,
                    "velocity": 0.2440944881889764,
                    "duration": 0.2625129999999998
                },
                {
                    "name": "A3",
                    "midi": 57,
                    "time": 2.62513,
                    "velocity": 0.2440944881889764,
                    "duration": 0.2625129999999998
                },
                {
                    "name": "D3",
                    "midi": 50,
                    "time": 2.8876429999999997,
                    "velocity": 0.2440944881889764,
                    "duration": 0.2625130000000002
                },
                {
                    "name": "A3",
                    "midi": 57,
                    "time": 2.8876429999999997,
                    "velocity": 0.2440944881889764,
                    "duration": 0.2625130000000002
                },
                {
                    "name": "D3",
                    "midi": 50,
                    "time": 3.150156,
                    "velocity": 0.2755905511811024,
                    "duration": 0.2625130000000002
                },
                {
                    "name": "A3",
                    "midi": 57,
                    "time": 3.150156,
                    "velocity": 0.2755905511811024,
                    "duration": 0.2625130000000002
                },
                {
                    "name": "A4",
                    "midi": 69,
                    "time": 3.937695,
                    "velocity": 0.30708661417322836,
                    "duration": 0.08750433333333296
                },
                {
                    "name": "B4",
                    "midi": 71,
                    "time": 4.025199333333333,
                    "velocity": 0.30708661417322836,
                    "duration": 0.0875043333333334
                },
                {
                    "name": "A4",
                    "midi": 69,
                    "time": 4.1127036666666665,
                    "velocity": 0.3228346456692913,
                    "duration": 0.0875043333333334
                },
                {
                    "name": "F#4",
                    "midi": 66,
                    "time": 4.200208,
                    "velocity": 0.3464566929133858,
                    "duration": 0.5250260000000004
                },
                {
                    "name": "A4",
                    "midi": 69,
                    "time": 4.462721,
                    "velocity": 0.3464566929133858,
                    "duration": 0.2625130000000002
                },
                {
                    "name": "F#4",
                    "midi": 66,
                    "time": 4.725234,
                    "velocity": 0.33070866141732286,
                    "duration": 0.06562824999999961
                },
                {
                    "name": "D5",
                    "midi": 74,
                    "time": 4.725234,
                    "velocity": 0.3543307086614173,
                    "duration": 0.06562824999999961
                },
                {
                    "name": "F#5",
                    "midi": 78,
                    "time": 4.987747,
                    "velocity": 0.33070866141732286,
                    "duration": 0.06562824999999961
                },
                {
                    "name": "F#4",
                    "midi": 66,
                    "time": 4.987747,
                    "velocity": 0.3543307086614173,
                    "duration": 0.06562824999999961
                },
                {
                    "name": "E5",
                    "midi": 76,
                    "time": 5.250259999999999,
                    "velocity": 0.3543307086614173,
                    "duration": 0.2625130000000002
                },
                {
                    "name": "F#4",
                    "midi": 66,
                    "time": 5.250259999999999,
                    "velocity": 0.29133858267716534,
                    "duration": 0.5250260000000004
                },
                {
                    "name": "D5",
                    "midi": 74,
                    "time": 5.512772999999999,
                    "velocity": 0.33070866141732286,
                    "duration": 0.2625130000000002
                },
                {
                    "name": "F#4",
                    "midi": 66,
                    "time": 5.7752859999999995,
                    "velocity": 0.33070866141732286,
                    "duration": 0.06562824999999961
                },
                {
                    "name": "A4",
                    "midi": 69,
                    "time": 6.037798999999999,
                    "velocity": 0.3228346456692913,
                    "duration": 0.06562824999999961
                },
                {
                    "name": "F#4",
                    "midi": 66,
                    "time": 6.037798999999999,
                    "velocity": 0.3228346456692913,
                    "duration": 0.06562824999999961
                },
                {
                    "name": "B4",
                    "midi": 71,
                    "time": 6.300311999999998,
                    "velocity": 0.3543307086614173,
                    "duration": 0.2625130000000002
                },
                {
                    "name": "A4",
                    "midi": 69,
                    "time": 6.300311999999998,
                    "velocity": 0.3543307086614173,
                    "duration": 0.2625130000000002
                },
                {
                    "name": "F#4",
                    "midi": 66,
                    "time": 6.300311999999998,
                    "velocity": 0.3543307086614173,
                    "duration": 0.2625130000000002
                },
                {
                    "name": "F#4",
                    "midi": 66,
                    "time": 6.825337999999999,
                    "velocity": 0.3228346456692913,
                    "duration": 0.2625130000000002
                },
                {
                    "name": "A4",
                    "midi": 69,
                    "time": 6.825337999999999,
                    "velocity": 0.3228346456692913,
                    "duration": 0.2625130000000002
                },
                {
                    "name": "B4",
                    "midi": 71,
                    "time": 6.825337999999999,
                    "velocity": 0.3228346456692913,
                    "duration": 0.2625130000000002
                },
                {
                    "name": "F#4",
                    "midi": 66,
                    "time": 7.219107499999999,
                    "velocity": 0.3228346456692913,
                    "duration": 0.1312565000000001
                },
                {
                    "name": "B4",
                    "midi": 71,
                    "time": 7.219107499999999,
                    "velocity": 0.3228346456692913,
                    "duration": 0.1312565000000001
                },
                {
                    "name": "A4",
                    "midi": 69,
                    "time": 7.219107499999999,
                    "velocity": 0.3228346456692913,
                    "duration": 0.1312565000000001
                },
                {
                    "name": "B4",
                    "midi": 71,
                    "time": 7.350363999999999,
                    "velocity": 0.3228346456692913,
                    "duration": 0.5250260000000004
                },
                {
                    "name": "A4",
                    "midi": 69,
                    "time": 7.350363999999999,
                    "velocity": 0.3228346456692913,
                    "duration": 0.5250260000000004
                },
                {
                    "name": "F#4",
                    "midi": 66,
                    "time": 7.350363999999999,
                    "velocity": 0.3228346456692913,
                    "duration": 0.5250260000000004
                },
                {
                    "name": "D4",
                    "midi": 62,
                    "time": 7.8753899999999994,
                    "velocity": 0.33070866141732286,
                    "duration": 0.06562824999999961
                },
                {
                    "name": "F#4",
                    "midi": 66,
                    "time": 7.8753899999999994,
                    "velocity": 0.33070866141732286,
                    "duration": 0.06562824999999961
                },
                {
                    "name": "D4",
                    "midi": 62,
                    "time": 8.137903,
                    "velocity": 0.33070866141732286,
                    "duration": 0.06562824999999961
                },
                {
                    "name": "G#4",
                    "midi": 68,
                    "time": 8.137903,
                    "velocity": 0.33070866141732286,
                    "duration": 0.06562824999999961
                },
                {
                    "name": "F#4",
                    "midi": 66,
                    "time": 8.137903,
                    "velocity": 0.33070866141732286,
                    "duration": 0.06562824999999961
                },
                {
                    "name": "D4",
                    "midi": 62,
                    "time": 8.400416,
                    "velocity": 0.3543307086614173,
                    "duration": 0.5250260000000004
                },
                {
                    "name": "F#4",
                    "midi": 66,
                    "time": 8.400416,
                    "velocity": 0.3543307086614173,
                    "duration": 0.5250260000000004
                },
                {
                    "name": "A4",
                    "midi": 69,
                    "time": 8.400416,
                    "velocity": 0.3543307086614173,
                    "duration": 0.2625130000000002
                },
                {
                    "name": "B4",
                    "midi": 71,
                    "time": 8.662929,
                    "velocity": 0.33070866141732286,
                    "duration": 0.2625130000000002
                },
                {
                    "name": "F#4",
                    "midi": 66,
                    "time": 8.925442,
                    "velocity": 0.3464566929133858,
                    "duration": 0.06562824999999961
                },
                {
                    "name": "D4",
                    "midi": 62,
                    "time": 8.925442,
                    "velocity": 0.3464566929133858,
                    "duration": 0.06562824999999961
                },
                {
                    "name": "D4",
                    "midi": 62,
                    "time": 9.187955,
                    "velocity": 0.3464566929133858,
                    "duration": 0.06562824999999961
                },
                {
                    "name": "G#4",
                    "midi": 68,
                    "time": 9.187955,
                    "velocity": 0.3464566929133858,
                    "duration": 0.06562824999999961
                },
                {
                    "name": "F#4",
                    "midi": 66,
                    "time": 9.187955,
                    "velocity": 0.3464566929133858,
                    "duration": 0.06562824999999961
                },
                {
                    "name": "A4",
                    "midi": 69,
                    "time": 9.450468,
                    "velocity": 0.3543307086614173,
                    "duration": 0.2625130000000002
                },
                {
                    "name": "D4",
                    "midi": 62,
                    "time": 9.450468,
                    "velocity": 0.3543307086614173,
                    "duration": 0.5250260000000004
                },
                {
                    "name": "F#4",
                    "midi": 66,
                    "time": 9.450468,
                    "velocity": 0.3543307086614173,
                    "duration": 0.5250260000000004
                },
                {
                    "name": "B4",
                    "midi": 71,
                    "time": 9.712981000000001,
                    "velocity": 0.33070866141732286,
                    "duration": 0.2625130000000002
                },
                {
                    "name": "D4",
                    "midi": 62,
                    "time": 9.975494000000001,
                    "velocity": 0.3464566929133858,
                    "duration": 0.13125649999999922
                },
                {
                    "name": "F#4",
                    "midi": 66,
                    "time": 9.975494000000001,
                    "velocity": 0.3464566929133858,
                    "duration": 0.13125649999999922
                },
                {
                    "name": "F#4",
                    "midi": 66,
                    "time": 10.238007,
                    "velocity": 0.3464566929133858,
                    "duration": 0.06562824999999961
                },
                {
                    "name": "D4",
                    "midi": 62,
                    "time": 10.238007,
                    "velocity": 0.3464566929133858,
                    "duration": 0.06562824999999961
                },
                {
                    "name": "G#4",
                    "midi": 68,
                    "time": 10.238007,
                    "velocity": 0.3464566929133858,
                    "duration": 0.06562824999999961
                },
                {
                    "name": "D4",
                    "midi": 62,
                    "time": 10.50052,
                    "velocity": 0.3700787401574803,
                    "duration": 0.2625130000000002
                },
                {
                    "name": "E4",
                    "midi": 64,
                    "time": 10.50052,
                    "velocity": 0.3700787401574803,
                    "duration": 0.2625130000000002
                },
                {
                    "name": "A4",
                    "midi": 69,
                    "time": 10.50052,
                    "velocity": 0.3700787401574803,
                    "duration": 0.2625130000000002
                },
                {
                    "name": "C#4",
                    "midi": 61,
                    "time": 11.025546,
                    "velocity": 0.33070866141732286,
                    "duration": 0.2625130000000002
                },
                {
                    "name": "A4",
                    "midi": 69,
                    "time": 11.025546,
                    "velocity": 0.33070866141732286,
                    "duration": 0.2625130000000002
                },
                {
                    "name": "A4",
                    "midi": 69,
                    "time": 11.4193155,
                    "velocity": 0.33070866141732286,
                    "duration": 0.13125649999999922
                },
                {
                    "name": "C#4",
                    "midi": 61,
                    "time": 11.4193155,
                    "velocity": 0.33070866141732286,
                    "duration": 0.13125649999999922
                },
                {
                    "name": "A4",
                    "midi": 69,
                    "time": 11.550571999999999,
                    "velocity": 0.33070866141732286,
                    "duration": 0.2625130000000002
                },
                {
                    "name": "C#4",
                    "midi": 61,
                    "time": 11.550571999999999,
                    "velocity": 0.33070866141732286,
                    "duration": 0.2625130000000002
                },
                {
                    "name": "C#5",
                    "midi": 73,
                    "time": 12.338111,
                    "velocity": 0.3464566929133858,
                    "duration": 0.0875043333333334
                },
                {
                    "name": "D5",
                    "midi": 74,
                    "time": 12.425615333333333,
                    "velocity": 0.3464566929133858,
                    "duration": 0.0875043333333334
                },
                {
                    "name": "C#5",
                    "midi": 73,
                    "time": 12.513119666666666,
                    "velocity": 0.3464566929133858,
                    "duration": 0.0875043333333334
                },
                {
                    "name": "B4",
                    "midi": 71,
                    "time": 12.600624,
                    "velocity": 0.3700787401574803,
                    "duration": 0.5250260000000004
                },
                {
                    "name": "D5",
                    "midi": 74,
                    "time": 12.863137,
                    "velocity": 0.3700787401574803,
                    "duration": 0.2625130000000002
                },
                {
                    "name": "G5",
                    "midi": 79,
                    "time": 13.12565,
                    "velocity": 0.3858267716535433,
                    "duration": 0.06562824999999961
                },
                {
                    "name": "B4",
                    "midi": 71,
                    "time": 13.12565,
                    "velocity": 0.3858267716535433,
                    "duration": 0.06562824999999961
                },
                {
                    "name": "B5",
                    "midi": 83,
                    "time": 13.388163,
                    "velocity": 0.3543307086614173,
                    "duration": 0.06562824999999961
                },
                {
                    "name": "B4",
                    "midi": 71,
                    "time": 13.388163,
                    "velocity": 0.3543307086614173,
                    "duration": 0.06562824999999961
                },
                {
                    "name": "A5",
                    "midi": 81,
                    "time": 13.650676,
                    "velocity": 0.3779527559055118,
                    "duration": 0.2625130000000002
                },
                {
                    "name": "B4",
                    "midi": 71,
                    "time": 13.650676,
                    "velocity": 0.3228346456692913,
                    "duration": 0.5250260000000004
                },
                {
                    "name": "G5",
                    "midi": 79,
                    "time": 13.913189000000001,
                    "velocity": 0.33070866141732286,
                    "duration": 0.2625130000000002
                },
                {
                    "name": "B4",
                    "midi": 71,
                    "time": 14.175702000000001,
                    "velocity": 0.33070866141732286,
                    "duration": 0.06562824999999961
                },
                {
                    "name": "G4",
                    "midi": 67,
                    "time": 14.175702000000001,
                    "velocity": 0.33070866141732286,
                    "duration": 0.06562824999999961
                },
                {
                    "name": "G4",
                    "midi": 67,
                    "time": 14.438215000000001,
                    "velocity": 0.33070866141732286,
                    "duration": 0.06562824999999961
                },
                {
                    "name": "B4",
                    "midi": 71,
                    "time": 14.438215000000001,
                    "velocity": 0.33070866141732286,
                    "duration": 0.06562824999999961
                },
                {
                    "name": "D5",
                    "midi": 74,
                    "time": 14.438215000000001,
                    "velocity": 0.33070866141732286,
                    "duration": 0.06562824999999961
                },
                {
                    "name": "F#5",
                    "midi": 78,
                    "time": 14.700728000000002,
                    "velocity": 0.36220472440944884,
                    "duration": 0.2625130000000002
                },
                {
                    "name": "D5",
                    "midi": 74,
                    "time": 14.700728000000002,
                    "velocity": 0.36220472440944884,
                    "duration": 0.2625130000000002
                },
                {
                    "name": "B4",
                    "midi": 71,
                    "time": 14.700728000000002,
                    "velocity": 0.36220472440944884,
                    "duration": 0.2625130000000002
                },
                {
                    "name": "G4",
                    "midi": 67,
                    "time": 14.700728000000002,
                    "velocity": 0.36220472440944884,
                    "duration": 0.2625130000000002
                },
                {
                    "name": "F#5",
                    "midi": 78,
                    "time": 15.225754000000002,
                    "velocity": 0.33070866141732286,
                    "duration": 0.2625130000000002
                },
                {
                    "name": "D5",
                    "midi": 74,
                    "time": 15.225754000000002,
                    "velocity": 0.33070866141732286,
                    "duration": 0.2625130000000002
                },
                {
                    "name": "B4",
                    "midi": 71,
                    "time": 15.225754000000002,
                    "velocity": 0.33070866141732286,
                    "duration": 0.2625130000000002
                },
                {
                    "name": "G4",
                    "midi": 67,
                    "time": 15.225754000000002,
                    "velocity": 0.33070866141732286,
                    "duration": 0.2625130000000002
                },
                {
                    "name": "F#5",
                    "midi": 78,
                    "time": 15.619523500000001,
                    "velocity": 0.33070866141732286,
                    "duration": 0.13125649999999922
                },
                {
                    "name": "D5",
                    "midi": 74,
                    "time": 15.619523500000001,
                    "velocity": 0.33070866141732286,
                    "duration": 0.13125649999999922
                },
                {
                    "name": "B4",
                    "midi": 71,
                    "time": 15.619523500000001,
                    "velocity": 0.33070866141732286,
                    "duration": 0.13125649999999922
                },
                {
                    "name": "G4",
                    "midi": 67,
                    "time": 15.619523500000001,
                    "velocity": 0.33070866141732286,
                    "duration": 0.13125649999999922
                },
                {
                    "name": "F#5",
                    "midi": 78,
                    "time": 15.75078,
                    "velocity": 0.33070866141732286,
                    "duration": 0.5250259999999987
                },
                {
                    "name": "D5",
                    "midi": 74,
                    "time": 15.75078,
                    "velocity": 0.33070866141732286,
                    "duration": 0.5250259999999987
                },
                {
                    "name": "G4",
                    "midi": 67,
                    "time": 15.75078,
                    "velocity": 0.33070866141732286,
                    "duration": 0.5250259999999987
                },
                {
                    "name": "B4",
                    "midi": 71,
                    "time": 15.75078,
                    "velocity": 0.33070866141732286,
                    "duration": 0.5250259999999987
                },
                {
                    "name": "B4",
                    "midi": 71,
                    "time": 16.275806,
                    "velocity": 0.33070866141732286,
                    "duration": 0.06562824999999961
                },
                {
                    "name": "G4",
                    "midi": 67,
                    "time": 16.275806,
                    "velocity": 0.33070866141732286,
                    "duration": 0.06562824999999961
                },
                {
                    "name": "C#5",
                    "midi": 73,
                    "time": 16.538318999999998,
                    "velocity": 0.33070866141732286,
                    "duration": 0.06562824999999961
                },
                {
                    "name": "B4",
                    "midi": 71,
                    "time": 16.538318999999998,
                    "velocity": 0.33070866141732286,
                    "duration": 0.06562824999999961
                },
                {
                    "name": "G4",
                    "midi": 67,
                    "time": 16.538318999999998,
                    "velocity": 0.33070866141732286,
                    "duration": 0.06562824999999961
                },
                {
                    "name": "D5",
                    "midi": 74,
                    "time": 16.800831999999996,
                    "velocity": 0.36220472440944884,
                    "duration": 0.26251299999999844
                },
                {
                    "name": "G4",
                    "midi": 67,
                    "time": 16.800831999999996,
                    "velocity": 0.36220472440944884,
                    "duration": 0.5250259999999969
                },
                {
                    "name": "B4",
                    "midi": 71,
                    "time": 16.800831999999996,
                    "velocity": 0.36220472440944884,
                    "duration": 0.5250259999999969
                },
                {
                    "name": "E5",
                    "midi": 76,
                    "time": 17.063344999999995,
                    "velocity": 0.33070866141732286,
                    "duration": 0.26251299999999844
                },
                {
                    "name": "B4",
                    "midi": 71,
                    "time": 17.325857999999993,
                    "velocity": 0.3543307086614173,
                    "duration": 0.06562824999999961
                },
                {
                    "name": "G4",
                    "midi": 67,
                    "time": 17.325857999999993,
                    "velocity": 0.3543307086614173,
                    "duration": 0.06562824999999961
                },
                {
                    "name": "G4",
                    "midi": 67,
                    "time": 17.58837099999999,
                    "velocity": 0.3543307086614173,
                    "duration": 0.06562824999999961
                },
                {
                    "name": "B4",
                    "midi": 71,
                    "time": 17.58837099999999,
                    "velocity": 0.3543307086614173,
                    "duration": 0.06562824999999961
                },
                {
                    "name": "C#5",
                    "midi": 73,
                    "time": 17.58837099999999,
                    "velocity": 0.3543307086614173,
                    "duration": 0.06562824999999961
                },
                {
                    "name": "D5",
                    "midi": 74,
                    "time": 17.85088399999999,
                    "velocity": 0.3700787401574803,
                    "duration": 0.26251299999999844
                },
                {
                    "name": "G4",
                    "midi": 67,
                    "time": 17.85088399999999,
                    "velocity": 0.3700787401574803,
                    "duration": 0.5250259999999969
                },
                {
                    "name": "B4",
                    "midi": 71,
                    "time": 17.85088399999999,
                    "velocity": 0.3700787401574803,
                    "duration": 0.5250259999999969
                },
                {
                    "name": "E5",
                    "midi": 76,
                    "time": 18.11339699999999,
                    "velocity": 0.3464566929133858,
                    "duration": 0.26251299999999844
                },
                {
                    "name": "B4",
                    "midi": 71,
                    "time": 18.375909999999987,
                    "velocity": 0.3543307086614173,
                    "duration": 0.06562824999999961
                },
                {
                    "name": "G4",
                    "midi": 67,
                    "time": 18.375909999999987,
                    "velocity": 0.3543307086614173,
                    "duration": 0.06562824999999961
                },
                {
                    "name": "G4",
                    "midi": 67,
                    "time": 18.638422999999985,
                    "velocity": 0.3543307086614173,
                    "duration": 0.06562824999999961
                },
                {
                    "name": "B4",
                    "midi": 71,
                    "time": 18.638422999999985,
                    "velocity": 0.3543307086614173,
                    "duration": 0.06562824999999961
                },
                {
                    "name": "C#5",
                    "midi": 73,
                    "time": 18.638422999999985,
                    "velocity": 0.3543307086614173,
                    "duration": 0.06562824999999961
                },
                {
                    "name": "D5",
                    "midi": 74,
                    "time": 18.900935999999984,
                    "velocity": 0.3858267716535433,
                    "duration": 0.26251299999999844
                },
                {
                    "name": "A4",
                    "midi": 69,
                    "time": 18.900935999999984,
                    "velocity": 0.3858267716535433,
                    "duration": 0.26251299999999844
                },
                {
                    "name": "G4",
                    "midi": 67,
                    "time": 18.900935999999984,
                    "velocity": 0.3858267716535433,
                    "duration": 0.26251299999999844
                },
                {
                    "name": "D5",
                    "midi": 74,
                    "time": 19.42596199999998,
                    "velocity": 0.3543307086614173,
                    "duration": 0.26251299999999844
                },
                {
                    "name": "F#4",
                    "midi": 66,
                    "time": 19.42596199999998,
                    "velocity": 0.3543307086614173,
                    "duration": 0.26251299999999844
                },
                {
                    "name": "D5",
                    "midi": 74,
                    "time": 19.81973149999998,
                    "velocity": 0.3543307086614173,
                    "duration": 0.13125649999999922
                },
                {
                    "name": "F#4",
                    "midi": 66,
                    "time": 19.81973149999998,
                    "velocity": 0.3543307086614173,
                    "duration": 0.13125649999999922
                },
                {
                    "name": "D5",
                    "midi": 74,
                    "time": 19.950987999999978,
                    "velocity": 0.3543307086614173,
                    "duration": 0.26251299999999844
                },
                {
                    "name": "F#4",
                    "midi": 66,
                    "time": 19.950987999999978,
                    "velocity": 0.3543307086614173,
                    "duration": 0.26251299999999844
                },
                {
                    "name": "D4",
                    "midi": 62,
                    "time": 21.526065999999975,
                    "velocity": 0.2125984251968504,
                    "duration": 0.26251299999999844
                },
                {
                    "name": "A4",
                    "midi": 69,
                    "time": 21.526065999999975,
                    "velocity": 0.2125984251968504,
                    "duration": 0.26251299999999844
                },
                {
                    "name": "D4",
                    "midi": 62,
                    "time": 21.788578999999974,
                    "velocity": 0.2125984251968504,
                    "duration": 0.26251299999999844
                },
                {
                    "name": "A4",
                    "midi": 69,
                    "time": 21.788578999999974,
                    "velocity": 0.2125984251968504,
                    "duration": 0.26251299999999844
                },
                {
                    "name": "D4",
                    "midi": 62,
                    "time": 22.051091999999972,
                    "velocity": 0.25984251968503935,
                    "duration": 0.26251299999999844
                },
                {
                    "name": "A4",
                    "midi": 69,
                    "time": 22.051091999999972,
                    "velocity": 0.25984251968503935,
                    "duration": 0.26251299999999844
                },
                {
                    "name": "D4",
                    "midi": 62,
                    "time": 23.62616999999997,
                    "velocity": 0.2125984251968504,
                    "duration": 0.26251299999999844
                },
                {
                    "name": "A4",
                    "midi": 69,
                    "time": 23.62616999999997,
                    "velocity": 0.2125984251968504,
                    "duration": 0.26251299999999844
                },
                {
                    "name": "D4",
                    "midi": 62,
                    "time": 23.88868299999997,
                    "velocity": 0.2125984251968504,
                    "duration": 0.26251299999999844
                },
                {
                    "name": "A4",
                    "midi": 69,
                    "time": 23.88868299999997,
                    "velocity": 0.2125984251968504,
                    "duration": 0.26251299999999844
                },
                {
                    "name": "D4",
                    "midi": 62,
                    "time": 24.151195999999967,
                    "velocity": 0.2440944881889764,
                    "duration": 0.26251299999999844
                },
                {
                    "name": "A4",
                    "midi": 69,
                    "time": 24.151195999999967,
                    "velocity": 0.2440944881889764,
                    "duration": 0.26251299999999844
                },
                {
                    "name": "A5",
                    "midi": 81,
                    "time": 24.938734999999966,
                    "velocity": 0.2755905511811024,
                    "duration": 0.08750433333333163
                },
                {
                    "name": "B5",
                    "midi": 83,
                    "time": 25.026239333333297,
                    "velocity": 0.2755905511811024,
                    "duration": 0.08750433333333163
                },
                {
                    "name": "A5",
                    "midi": 81,
                    "time": 25.11374366666663,
                    "velocity": 0.28346456692913385,
                    "duration": 0.08750433333333163
                },
                {
                    "name": "F#5",
                    "midi": 78,
                    "time": 25.20124799999996,
                    "velocity": 0.30708661417322836,
                    "duration": 0.5250259999999969
                },
                {
                    "name": "A5",
                    "midi": 81,
                    "time": 25.46376099999996,
                    "velocity": 0.30708661417322836,
                    "duration": 0.26251299999999844
                },
                {
                    "name": "F#5",
                    "midi": 78,
                    "time": 25.726273999999957,
                    "velocity": 0.30708661417322836,
                    "duration": 0.06562824999999961
                },
                {
                    "name": "D6",
                    "midi": 86,
                    "time": 25.726273999999957,
                    "velocity": 0.30708661417322836,
                    "duration": 0.06562824999999961
                },
                {
                    "name": "F#6",
                    "midi": 90,
                    "time": 25.988786999999956,
                    "velocity": 0.29133858267716534,
                    "duration": 0.06562824999999961
                },
                {
                    "name": "F#5",
                    "midi": 78,
                    "time": 25.988786999999956,
                    "velocity": 0.29133858267716534,
                    "duration": 0.06562824999999961
                },
                {
                    "name": "E6",
                    "midi": 88,
                    "time": 26.251299999999954,
                    "velocity": 0.3228346456692913,
                    "duration": 0.26251299999999844
                },
                {
                    "name": "F#5",
                    "midi": 78,
                    "time": 26.251299999999954,
                    "velocity": 0.25984251968503935,
                    "duration": 0.5250259999999969
                },
                {
                    "name": "D6",
                    "midi": 86,
                    "time": 26.513812999999953,
                    "velocity": 0.29133858267716534,
                    "duration": 0.26251299999999844
                },
                {
                    "name": "F#5",
                    "midi": 78,
                    "time": 26.77632599999995,
                    "velocity": 0.29133858267716534,
                    "duration": 0.06562824999999961
                },
                {
                    "name": "A5",
                    "midi": 81,
                    "time": 27.03883899999995,
                    "velocity": 0.28346456692913385,
                    "duration": 0.06562824999999961
                },
                {
                    "name": "F#5",
                    "midi": 78,
                    "time": 27.03883899999995,
                    "velocity": 0.28346456692913385,
                    "duration": 0.06562824999999961
                },
                {
                    "name": "F#5",
                    "midi": 78,
                    "time": 27.301351999999948,
                    "velocity": 0.30708661417322836,
                    "duration": 0.26251299999999844
                },
                {
                    "name": "A5",
                    "midi": 81,
                    "time": 27.301351999999948,
                    "velocity": 0.30708661417322836,
                    "duration": 0.26251299999999844
                },
                {
                    "name": "B5",
                    "midi": 83,
                    "time": 27.301351999999948,
                    "velocity": 0.30708661417322836,
                    "duration": 0.26251299999999844
                },
                {
                    "name": "F#5",
                    "midi": 78,
                    "time": 27.826377999999945,
                    "velocity": 0.29133858267716534,
                    "duration": 0.26251299999999844
                },
                {
                    "name": "A5",
                    "midi": 81,
                    "time": 27.826377999999945,
                    "velocity": 0.29133858267716534,
                    "duration": 0.26251299999999844
                },
                {
                    "name": "B5",
                    "midi": 83,
                    "time": 27.826377999999945,
                    "velocity": 0.29133858267716534,
                    "duration": 0.26251299999999844
                },
                {
                    "name": "B5",
                    "midi": 83,
                    "time": 28.220147499999943,
                    "velocity": 0.29133858267716534,
                    "duration": 0.13125649999999922
                },
                {
                    "name": "F#5",
                    "midi": 78,
                    "time": 28.220147499999943,
                    "velocity": 0.29133858267716534,
                    "duration": 0.13125649999999922
                },
                {
                    "name": "A5",
                    "midi": 81,
                    "time": 28.220147499999943,
                    "velocity": 0.29133858267716534,
                    "duration": 0.13125649999999922
                },
                {
                    "name": "F#5",
                    "midi": 78,
                    "time": 28.351403999999942,
                    "velocity": 0.29133858267716534,
                    "duration": 0.5250260000000004
                },
                {
                    "name": "A5",
                    "midi": 81,
                    "time": 28.351403999999942,
                    "velocity": 0.29133858267716534,
                    "duration": 0.5250260000000004
                },
                {
                    "name": "B5",
                    "midi": 83,
                    "time": 28.351403999999942,
                    "velocity": 0.29133858267716534,
                    "duration": 0.5250260000000004
                },
                {
                    "name": "D5",
                    "midi": 74,
                    "time": 28.876429999999942,
                    "velocity": 0.2992125984251969,
                    "duration": 0.06562824999999961
                },
                {
                    "name": "F#5",
                    "midi": 78,
                    "time": 28.876429999999942,
                    "velocity": 0.2992125984251969,
                    "duration": 0.06562824999999961
                },
                {
                    "name": "D5",
                    "midi": 74,
                    "time": 29.13894299999994,
                    "velocity": 0.2992125984251969,
                    "duration": 0.06562824999999961
                },
                {
                    "name": "G#5",
                    "midi": 80,
                    "time": 29.13894299999994,
                    "velocity": 0.2992125984251969,
                    "duration": 0.06562824999999961
                },
                {
                    "name": "F#5",
                    "midi": 78,
                    "time": 29.13894299999994,
                    "velocity": 0.2992125984251969,
                    "duration": 0.06562824999999961
                },
                {
                    "name": "A5",
                    "midi": 81,
                    "time": 29.40145599999994,
                    "velocity": 0.3228346456692913,
                    "duration": 0.26251299999999844
                },
                {
                    "name": "F#5",
                    "midi": 78,
                    "time": 29.40145599999994,
                    "velocity": 0.3228346456692913,
                    "duration": 0.5250259999999969
                },
                {
                    "name": "D5",
                    "midi": 74,
                    "time": 29.40145599999994,
                    "velocity": 0.3228346456692913,
                    "duration": 0.5250259999999969
                },
                {
                    "name": "B5",
                    "midi": 83,
                    "time": 29.663968999999938,
                    "velocity": 0.29133858267716534,
                    "duration": 0.26251299999999844
                },
                {
                    "name": "F#5",
                    "midi": 78,
                    "time": 29.926481999999936,
                    "velocity": 0.30708661417322836,
                    "duration": 0.06562824999999961
                },
                {
                    "name": "D5",
                    "midi": 74,
                    "time": 29.926481999999936,
                    "velocity": 0.30708661417322836,
                    "duration": 0.06562824999999961
                },
                {
                    "name": "G#5",
                    "midi": 80,
                    "time": 30.188994999999935,
                    "velocity": 0.2992125984251969,
                    "duration": 0.06562824999999961
                },
                {
                    "name": "D5",
                    "midi": 74,
                    "time": 30.188994999999935,
                    "velocity": 0.2992125984251969,
                    "duration": 0.06562824999999961
                },
                {
                    "name": "F#5",
                    "midi": 78,
                    "time": 30.188994999999935,
                    "velocity": 0.2992125984251969,
                    "duration": 0.06562824999999961
                },
                {
                    "name": "F#5",
                    "midi": 78,
                    "time": 30.451507999999933,
                    "velocity": 0.3228346456692913,
                    "duration": 0.5250259999999969
                },
                {
                    "name": "D5",
                    "midi": 74,
                    "time": 30.451507999999933,
                    "velocity": 0.3228346456692913,
                    "duration": 0.5250259999999969
                },
                {
                    "name": "A5",
                    "midi": 81,
                    "time": 30.451507999999933,
                    "velocity": 0.3228346456692913,
                    "duration": 0.26251299999999844
                },
                {
                    "name": "B5",
                    "midi": 83,
                    "time": 30.71402099999993,
                    "velocity": 0.29133858267716534,
                    "duration": 0.26251299999999844
                },
                {
                    "name": "D5",
                    "midi": 74,
                    "time": 30.97653399999993,
                    "velocity": 0.30708661417322836,
                    "duration": 0.06562824999999961
                },
                {
                    "name": "F#5",
                    "midi": 78,
                    "time": 30.97653399999993,
                    "velocity": 0.30708661417322836,
                    "duration": 0.06562824999999961
                },
                {
                    "name": "G#5",
                    "midi": 80,
                    "time": 31.23904699999993,
                    "velocity": 0.30708661417322836,
                    "duration": 0.06562824999999961
                },
                {
                    "name": "D5",
                    "midi": 74,
                    "time": 31.23904699999993,
                    "velocity": 0.30708661417322836,
                    "duration": 0.06562824999999961
                },
                {
                    "name": "F#5",
                    "midi": 78,
                    "time": 31.23904699999993,
                    "velocity": 0.30708661417322836,
                    "duration": 0.06562824999999961
                },
                {
                    "name": "D5",
                    "midi": 74,
                    "time": 31.501559999999927,
                    "velocity": 0.3228346456692913,
                    "duration": 0.26251299999999844
                },
                {
                    "name": "E5",
                    "midi": 76,
                    "time": 31.501559999999927,
                    "velocity": 0.3228346456692913,
                    "duration": 0.26251299999999844
                },
                {
                    "name": "A5",
                    "midi": 81,
                    "time": 31.501559999999927,
                    "velocity": 0.3228346456692913,
                    "duration": 0.26251299999999844
                },
                {
                    "name": "C#5",
                    "midi": 73,
                    "time": 32.026585999999924,
                    "velocity": 0.2992125984251969,
                    "duration": 0.26251299999999844
                },
                {
                    "name": "A5",
                    "midi": 81,
                    "time": 32.026585999999924,
                    "velocity": 0.2992125984251969,
                    "duration": 0.26251299999999844
                },
                {
                    "name": "C#5",
                    "midi": 73,
                    "time": 32.42035549999992,
                    "velocity": 0.2992125984251969,
                    "duration": 0.13125649999999922
                },
                {
                    "name": "A5",
                    "midi": 81,
                    "time": 32.42035549999992,
                    "velocity": 0.2992125984251969,
                    "duration": 0.13125649999999922
                },
                {
                    "name": "C#5",
                    "midi": 73,
                    "time": 32.55161199999992,
                    "velocity": 0.2992125984251969,
                    "duration": 0.26251299999999844
                },
                {
                    "name": "A5",
                    "midi": 81,
                    "time": 32.55161199999992,
                    "velocity": 0.2992125984251969,
                    "duration": 0.26251299999999844
                },
                {
                    "name": "C#6",
                    "midi": 85,
                    "time": 33.339150999999916,
                    "velocity": 0.30708661417322836,
                    "duration": 0.08750433333333518
                },
                {
                    "name": "D6",
                    "midi": 86,
                    "time": 33.42665533333325,
                    "velocity": 0.30708661417322836,
                    "duration": 0.08750433333333518
                },
                {
                    "name": "C#6",
                    "midi": 85,
                    "time": 33.514159666666586,
                    "velocity": 0.30708661417322836,
                    "duration": 0.08750433333333518
                },
                {
                    "name": "B5",
                    "midi": 83,
                    "time": 33.60166399999992,
                    "velocity": 0.33070866141732286,
                    "duration": 0.5250259999999969
                },
                {
                    "name": "D6",
                    "midi": 86,
                    "time": 33.86417699999992,
                    "velocity": 0.33070866141732286,
                    "duration": 0.26251299999999844
                },
                {
                    "name": "G6",
                    "midi": 91,
                    "time": 34.12668999999992,
                    "velocity": 0.3464566929133858,
                    "duration": 0.06562825000000316
                },
                {
                    "name": "B5",
                    "midi": 83,
                    "time": 34.12668999999992,
                    "velocity": 0.3464566929133858,
                    "duration": 0.06562825000000316
                },
                {
                    "name": "B6",
                    "midi": 95,
                    "time": 34.389202999999924,
                    "velocity": 0.30708661417322836,
                    "duration": 0.06562825000000316
                },
                {
                    "name": "B5",
                    "midi": 83,
                    "time": 34.389202999999924,
                    "velocity": 0.30708661417322836,
                    "duration": 0.06562825000000316
                },
                {
                    "name": "A6",
                    "midi": 93,
                    "time": 34.65171599999993,
                    "velocity": 0.33070866141732286,
                    "duration": 0.26251299999999844
                },
                {
                    "name": "B5",
                    "midi": 83,
                    "time": 34.65171599999993,
                    "velocity": 0.29133858267716534,
                    "duration": 0.5250259999999969
                },
                {
                    "name": "G6",
                    "midi": 91,
                    "time": 34.91422899999993,
                    "velocity": 0.2992125984251969,
                    "duration": 0.26251299999999844
                },
                {
                    "name": "B5",
                    "midi": 83,
                    "time": 35.176741999999926,
                    "velocity": 0.2992125984251969,
                    "duration": 0.06562825000000316
                },
                {
                    "name": "G5",
                    "midi": 79,
                    "time": 35.176741999999926,
                    "velocity": 0.2992125984251969,
                    "duration": 0.06562825000000316
                },
                {
                    "name": "B5",
                    "midi": 83,
                    "time": 35.43925499999993,
                    "velocity": 0.2992125984251969,
                    "duration": 0.06562825000000316
                },
                {
                    "name": "G5",
                    "midi": 79,
                    "time": 35.43925499999993,
                    "velocity": 0.2992125984251969,
                    "duration": 0.06562825000000316
                },
                {
                    "name": "D6",
                    "midi": 86,
                    "time": 35.43925499999993,
                    "velocity": 0.2992125984251969,
                    "duration": 0.06562825000000316
                },
                {
                    "name": "B5",
                    "midi": 83,
                    "time": 35.70176799999994,
                    "velocity": 0.33070866141732286,
                    "duration": 0.26251299999999844
                },
                {
                    "name": "D6",
                    "midi": 86,
                    "time": 35.70176799999994,
                    "velocity": 0.33070866141732286,
                    "duration": 0.26251299999999844
                },
                {
                    "name": "F#6",
                    "midi": 90,
                    "time": 35.70176799999994,
                    "velocity": 0.33070866141732286,
                    "duration": 0.26251299999999844
                },
                {
                    "name": "G5",
                    "midi": 79,
                    "time": 35.70176799999994,
                    "velocity": 0.33070866141732286,
                    "duration": 0.26251299999999844
                },
                {
                    "name": "B5",
                    "midi": 83,
                    "time": 36.226793999999934,
                    "velocity": 0.29133858267716534,
                    "duration": 0.26251299999999844
                },
                {
                    "name": "D6",
                    "midi": 86,
                    "time": 36.226793999999934,
                    "velocity": 0.29133858267716534,
                    "duration": 0.26251299999999844
                },
                {
                    "name": "F#6",
                    "midi": 90,
                    "time": 36.226793999999934,
                    "velocity": 0.29133858267716534,
                    "duration": 0.26251299999999844
                },
                {
                    "name": "G5",
                    "midi": 79,
                    "time": 36.226793999999934,
                    "velocity": 0.29133858267716534,
                    "duration": 0.26251299999999844
                },
                {
                    "name": "B5",
                    "midi": 83,
                    "time": 36.62056349999993,
                    "velocity": 0.29133858267716534,
                    "duration": 0.13125649999999922
                },
                {
                    "name": "D6",
                    "midi": 86,
                    "time": 36.62056349999993,
                    "velocity": 0.29133858267716534,
                    "duration": 0.13125649999999922
                },
                {
                    "name": "F#6",
                    "midi": 90,
                    "time": 36.62056349999993,
                    "velocity": 0.29133858267716534,
                    "duration": 0.13125649999999922
                },
                {
                    "name": "G5",
                    "midi": 79,
                    "time": 36.62056349999993,
                    "velocity": 0.29133858267716534,
                    "duration": 0.13125649999999922
                },
                {
                    "name": "B5",
                    "midi": 83,
                    "time": 36.75181999999993,
                    "velocity": 0.29133858267716534,
                    "duration": 0.5250259999999969
                },
                {
                    "name": "D6",
                    "midi": 86,
                    "time": 36.75181999999993,
                    "velocity": 0.29133858267716534,
                    "duration": 0.5250259999999969
                },
                {
                    "name": "F#6",
                    "midi": 90,
                    "time": 36.75181999999993,
                    "velocity": 0.29133858267716534,
                    "duration": 0.5250259999999969
                },
                {
                    "name": "G5",
                    "midi": 79,
                    "time": 36.75181999999993,
                    "velocity": 0.29133858267716534,
                    "duration": 0.5250259999999969
                },
                {
                    "name": "G5",
                    "midi": 79,
                    "time": 37.27684599999993,
                    "velocity": 0.2992125984251969,
                    "duration": 0.06562825000000316
                },
                {
                    "name": "B5",
                    "midi": 83,
                    "time": 37.27684599999993,
                    "velocity": 0.2992125984251969,
                    "duration": 0.06562825000000316
                },
                {
                    "name": "C#6",
                    "midi": 85,
                    "time": 37.53935899999993,
                    "velocity": 0.2992125984251969,
                    "duration": 0.06562825000000316
                },
                {
                    "name": "B5",
                    "midi": 83,
                    "time": 37.53935899999993,
                    "velocity": 0.2992125984251969,
                    "duration": 0.06562825000000316
                },
                {
                    "name": "G5",
                    "midi": 79,
                    "time": 37.53935899999993,
                    "velocity": 0.2992125984251969,
                    "duration": 0.06562825000000316
                },
                {
                    "name": "B5",
                    "midi": 83,
                    "time": 37.80187199999994,
                    "velocity": 0.33070866141732286,
                    "duration": 0.5250259999999969
                },
                {
                    "name": "G5",
                    "midi": 79,
                    "time": 37.80187199999994,
                    "velocity": 0.33070866141732286,
                    "duration": 0.5250259999999969
                },
                {
                    "name": "D6",
                    "midi": 86,
                    "time": 37.80187199999994,
                    "velocity": 0.33070866141732286,
                    "duration": 0.26251299999999844
                },
                {
                    "name": "E6",
                    "midi": 88,
                    "time": 38.06438499999994,
                    "velocity": 0.2992125984251969,
                    "duration": 0.26251299999999844
                },
                {
                    "name": "B5",
                    "midi": 83,
                    "time": 38.326897999999936,
                    "velocity": 0.30708661417322836,
                    "duration": 0.06562825000000316
                },
                {
                    "name": "G5",
                    "midi": 79,
                    "time": 38.326897999999936,
                    "velocity": 0.30708661417322836,
                    "duration": 0.06562825000000316
                },
                {
                    "name": "C#6",
                    "midi": 85,
                    "time": 38.58941099999994,
                    "velocity": 0.30708661417322836,
                    "duration": 0.06562825000000316
                },
                {
                    "name": "B5",
                    "midi": 83,
                    "time": 38.58941099999994,
                    "velocity": 0.30708661417322836,
                    "duration": 0.06562825000000316
                },
                {
                    "name": "G5",
                    "midi": 79,
                    "time": 38.58941099999994,
                    "velocity": 0.30708661417322836,
                    "duration": 0.06562825000000316
                },
                {
                    "name": "D6",
                    "midi": 86,
                    "time": 38.85192399999995,
                    "velocity": 0.33070866141732286,
                    "duration": 0.26251299999999844
                },
                {
                    "name": "B5",
                    "midi": 83,
                    "time": 38.85192399999995,
                    "velocity": 0.33070866141732286,
                    "duration": 0.5250259999999969
                },
                {
                    "name": "G5",
                    "midi": 79,
                    "time": 38.85192399999995,
                    "velocity": 0.33070866141732286,
                    "duration": 0.5250259999999969
                },
                {
                    "name": "E6",
                    "midi": 88,
                    "time": 39.114436999999945,
                    "velocity": 0.30708661417322836,
                    "duration": 0.26251299999999844
                },
                {
                    "name": "B5",
                    "midi": 83,
                    "time": 39.376949999999944,
                    "velocity": 0.30708661417322836,
                    "duration": 0.06562825000000316
                },
                {
                    "name": "G5",
                    "midi": 79,
                    "time": 39.376949999999944,
                    "velocity": 0.30708661417322836,
                    "duration": 0.06562825000000316
                },
                {
                    "name": "C#6",
                    "midi": 85,
                    "time": 39.63946299999995,
                    "velocity": 0.30708661417322836,
                    "duration": 0.06562825000000316
                },
                {
                    "name": "B5",
                    "midi": 83,
                    "time": 39.63946299999995,
                    "velocity": 0.30708661417322836,
                    "duration": 0.06562825000000316
                },
                {
                    "name": "G5",
                    "midi": 79,
                    "time": 39.63946299999995,
                    "velocity": 0.30708661417322836,
                    "duration": 0.06562825000000316
                },
                {
                    "name": "D6",
                    "midi": 86,
                    "time": 39.901975999999955,
                    "velocity": 0.3464566929133858,
                    "duration": 0.26251299999999844
                },
                {
                    "name": "A5",
                    "midi": 81,
                    "time": 39.901975999999955,
                    "velocity": 0.3464566929133858,
                    "duration": 0.26251299999999844
                },
                {
                    "name": "G5",
                    "midi": 79,
                    "time": 39.901975999999955,
                    "velocity": 0.3464566929133858,
                    "duration": 0.26251299999999844
                },
                {
                    "name": "D6",
                    "midi": 86,
                    "time": 40.42700199999995,
                    "velocity": 0.30708661417322836,
                    "duration": 0.26251299999999844
                },
                {
                    "name": "F#5",
                    "midi": 78,
                    "time": 40.42700199999995,
                    "velocity": 0.30708661417322836,
                    "duration": 0.26251299999999844
                },
                {
                    "name": "D6",
                    "midi": 86,
                    "time": 40.82077149999995,
                    "velocity": 0.30708661417322836,
                    "duration": 0.13125649999999922
                },
                {
                    "name": "F#5",
                    "midi": 78,
                    "time": 40.82077149999995,
                    "velocity": 0.30708661417322836,
                    "duration": 0.13125649999999922
                },
                {
                    "name": "D6",
                    "midi": 86,
                    "time": 40.95202799999995,
                    "velocity": 0.30708661417322836,
                    "duration": 0.26251299999999844
                },
                {
                    "name": "F#5",
                    "midi": 78,
                    "time": 40.95202799999995,
                    "velocity": 0.30708661417322836,
                    "duration": 0.26251299999999844
                },
                {
                    "name": "C#4",
                    "midi": 61,
                    "time": 44.10218399999995,
                    "velocity": 0.5905511811023622,
                    "duration": 0.13125649999999922
                },
                {
                    "name": "E4",
                    "midi": 64,
                    "time": 44.10218399999995,
                    "velocity": 0.5905511811023622,
                    "duration": 0.525026000000004
                },
                {
                    "name": "B3",
                    "midi": 59,
                    "time": 44.23344049999995,
                    "velocity": 0.5354330708661418,
                    "duration": 0.13125649999999922
                },
                {
                    "name": "C#4",
                    "midi": 61,
                    "time": 44.36469699999995,
                    "velocity": 0.5354330708661418,
                    "duration": 0.13125649999999922
                },
                {
                    "name": "A3",
                    "midi": 57,
                    "time": 44.49595349999995,
                    "velocity": 0.5354330708661418,
                    "duration": 0.06562825000000316
                },
                {
                    "name": "D4",
                    "midi": 62,
                    "time": 44.627209999999955,
                    "velocity": 0.5354330708661418,
                    "duration": 0.13125649999999922
                },
                {
                    "name": "F#4",
                    "midi": 66,
                    "time": 44.627209999999955,
                    "velocity": 0.5590551181102362,
                    "duration": 0.5250259999999969
                },
                {
                    "name": "B3",
                    "midi": 59,
                    "time": 44.889722999999954,
                    "velocity": 0.5354330708661418,
                    "duration": 0.13125649999999922
                },
                {
                    "name": "C#4",
                    "midi": 61,
                    "time": 45.15223599999995,
                    "velocity": 0.5905511811023622,
                    "duration": 0.13125649999999922
                },
                {
                    "name": "E4",
                    "midi": 64,
                    "time": 45.15223599999995,
                    "velocity": 0.5905511811023622,
                    "duration": 0.525026000000004
                },
                {
                    "name": "B3",
                    "midi": 59,
                    "time": 45.28349249999995,
                    "velocity": 0.5433070866141733,
                    "duration": 0.13125649999999922
                },
                {
                    "name": "C#4",
                    "midi": 61,
                    "time": 45.41474899999995,
                    "velocity": 0.5433070866141733,
                    "duration": 0.13125649999999922
                },
                {
                    "name": "A3",
                    "midi": 57,
                    "time": 45.54600549999995,
                    "velocity": 0.5433070866141733,
                    "duration": 0.06562825000000316
                },
                {
                    "name": "D4",
                    "midi": 62,
                    "time": 45.677261999999956,
                    "velocity": 0.5354330708661418,
                    "duration": 0.13125649999999922
                },
                {
                    "name": "F#4",
                    "midi": 66,
                    "time": 45.677261999999956,
                    "velocity": 0.5590551181102362,
                    "duration": 0.5250259999999969
                },
                {
                    "name": "B3",
                    "midi": 59,
                    "time": 45.939774999999955,
                    "velocity": 0.5354330708661418,
                    "duration": 0.13125649999999922
                },
                {
                    "name": "D5",
                    "midi": 74,
                    "time": 46.46480099999995,
                    "velocity": 0.4409448818897638,
                    "duration": 0.26251300000000555
                },
                {
                    "name": "F#5",
                    "midi": 78,
                    "time": 46.46480099999995,
                    "velocity": 0.4409448818897638,
                    "duration": 0.08750433333333518
                },
                {
                    "name": "G#4",
                    "midi": 68,
                    "time": 46.46480099999995,
                    "velocity": 0.4409448818897638,
                    "duration": 0.26251300000000555
                },
                {
                    "name": "G#5",
                    "midi": 80,
                    "time": 46.55230533333329,
                    "velocity": 0.4409448818897638,
                    "duration": 0.08750433333333518
                },
                {
                    "name": "F#5",
                    "midi": 78,
                    "time": 46.63980966666662,
                    "velocity": 0.4409448818897638,
                    "duration": 0.08750433333333518
                },
                {
                    "name": "E5",
                    "midi": 76,
                    "time": 46.72731399999996,
                    "velocity": 0.47244094488188976,
                    "duration": 0.13125649999999922
                },
                {
                    "name": "C#5",
                    "midi": 73,
                    "time": 46.72731399999996,
                    "velocity": 0.47244094488188976,
                    "duration": 0.13125649999999922
                },
                {
                    "name": "A4",
                    "midi": 69,
                    "time": 46.72731399999996,
                    "velocity": 0.47244094488188976,
                    "duration": 0.13125649999999922
                },
                {
                    "name": "C#5",
                    "midi": 73,
                    "time": 46.989826999999956,
                    "velocity": 0.4645669291338583,
                    "duration": 0.13125649999999922
                },
                {
                    "name": "E5",
                    "midi": 76,
                    "time": 46.989826999999956,
                    "velocity": 0.4645669291338583,
                    "duration": 0.13125649999999922
                },
                {
                    "name": "A4",
                    "midi": 69,
                    "time": 46.989826999999956,
                    "velocity": 0.4645669291338583,
                    "duration": 0.13125649999999922
                },
                {
                    "name": "E5",
                    "midi": 76,
                    "time": 47.252339999999954,
                    "velocity": 0.4645669291338583,
                    "duration": 1.0500520000000009
                },
                {
                    "name": "C#5",
                    "midi": 73,
                    "time": 47.252339999999954,
                    "velocity": 0.4645669291338583,
                    "duration": 1.0500520000000009
                },
                {
                    "name": "A4",
                    "midi": 69,
                    "time": 47.252339999999954,
                    "velocity": 0.4645669291338583,
                    "duration": 1.0500520000000009
                },
                {
                    "name": "C4",
                    "midi": 60,
                    "time": 48.302391999999955,
                    "velocity": 0.4094488188976378,
                    "duration": 0.5250259999999969
                },
                {
                    "name": "E4",
                    "midi": 64,
                    "time": 48.302391999999955,
                    "velocity": 0.4094488188976378,
                    "duration": 0.5250259999999969
                },
                {
                    "name": "G#4",
                    "midi": 68,
                    "time": 48.82741799999995,
                    "velocity": 0.3779527559055118,
                    "duration": 0.26251299999999844
                },
                {
                    "name": "C5",
                    "midi": 72,
                    "time": 48.82741799999995,
                    "velocity": 0.3779527559055118,
                    "duration": 0.26251299999999844
                },
                {
                    "name": "E5",
                    "midi": 76,
                    "time": 48.82741799999995,
                    "velocity": 0.3779527559055118,
                    "duration": 0.26251299999999844
                },
                {
                    "name": "G#4",
                    "midi": 68,
                    "time": 49.08993099999995,
                    "velocity": 0.3700787401574803,
                    "duration": 0.26251299999999844
                },
                {
                    "name": "C5",
                    "midi": 72,
                    "time": 49.08993099999995,
                    "velocity": 0.3700787401574803,
                    "duration": 0.26251299999999844
                },
                {
                    "name": "E5",
                    "midi": 76,
                    "time": 49.08993099999995,
                    "velocity": 0.3700787401574803,
                    "duration": 0.26251299999999844
                },
                {
                    "name": "G#4",
                    "midi": 68,
                    "time": 49.35244399999995,
                    "velocity": 0.36220472440944884,
                    "duration": 0.5250259999999969
                },
                {
                    "name": "C5",
                    "midi": 72,
                    "time": 49.35244399999995,
                    "velocity": 0.36220472440944884,
                    "duration": 0.5250259999999969
                },
                {
                    "name": "E5",
                    "midi": 76,
                    "time": 49.35244399999995,
                    "velocity": 0.36220472440944884,
                    "duration": 0.5250259999999969
                },
                {
                    "name": "C5",
                    "midi": 72,
                    "time": 49.877469999999946,
                    "velocity": 0.2677165354330709,
                    "duration": 0.06562825000000316
                },
                {
                    "name": "E5",
                    "midi": 76,
                    "time": 49.877469999999946,
                    "velocity": 0.2677165354330709,
                    "duration": 0.06562825000000316
                },
                {
                    "name": "E5",
                    "midi": 76,
                    "time": 50.13998299999995,
                    "velocity": 0.2677165354330709,
                    "duration": 0.06562825000000316
                },
                {
                    "name": "C5",
                    "midi": 72,
                    "time": 50.13998299999995,
                    "velocity": 0.2677165354330709,
                    "duration": 0.06562825000000316
                },
                {
                    "name": "F5",
                    "midi": 77,
                    "time": 50.13998299999995,
                    "velocity": 0.2677165354330709,
                    "duration": 0.06562825000000316
                },
                {
                    "name": "C5",
                    "midi": 72,
                    "time": 50.40249599999996,
                    "velocity": 0.29133858267716534,
                    "duration": 0.5250259999999969
                },
                {
                    "name": "E5",
                    "midi": 76,
                    "time": 50.40249599999996,
                    "velocity": 0.29133858267716534,
                    "duration": 0.5250259999999969
                },
                {
                    "name": "G5",
                    "midi": 79,
                    "time": 50.40249599999996,
                    "velocity": 0.29133858267716534,
                    "duration": 0.26251299999999844
                },
                {
                    "name": "A5",
                    "midi": 81,
                    "time": 50.665008999999955,
                    "velocity": 0.2677165354330709,
                    "duration": 0.26251299999999844
                },
                {
                    "name": "C5",
                    "midi": 72,
                    "time": 50.92752199999995,
                    "velocity": 0.2677165354330709,
                    "duration": 0.06562825000000316
                },
                {
                    "name": "E5",
                    "midi": 76,
                    "time": 50.92752199999995,
                    "velocity": 0.2677165354330709,
                    "duration": 0.06562825000000316
                },
                {
                    "name": "C5",
                    "midi": 72,
                    "time": 51.19003499999996,
                    "velocity": 0.2677165354330709,
                    "duration": 0.06562825000000316
                },
                {
                    "name": "E5",
                    "midi": 76,
                    "time": 51.19003499999996,
                    "velocity": 0.2677165354330709,
                    "duration": 0.06562825000000316
                },
                {
                    "name": "F5",
                    "midi": 77,
                    "time": 51.19003499999996,
                    "velocity": 0.2677165354330709,
                    "duration": 0.06562825000000316
                },
                {
                    "name": "B4",
                    "midi": 71,
                    "time": 51.452547999999965,
                    "velocity": 0.2992125984251969,
                    "duration": 0.5250259999999969
                },
                {
                    "name": "F5",
                    "midi": 77,
                    "time": 51.452547999999965,
                    "velocity": 0.2992125984251969,
                    "duration": 0.5250259999999969
                },
                {
                    "name": "G5",
                    "midi": 79,
                    "time": 51.452547999999965,
                    "velocity": 0.2992125984251969,
                    "duration": 0.26251299999999844
                },
                {
                    "name": "A5",
                    "midi": 81,
                    "time": 51.71506099999996,
                    "velocity": 0.2677165354330709,
                    "duration": 0.26251299999999844
                },
                {
                    "name": "G4",
                    "midi": 67,
                    "time": 51.97757399999996,
                    "velocity": 0.2677165354330709,
                    "duration": 0.13125649999999922
                },
                {
                    "name": "B4",
                    "midi": 71,
                    "time": 51.97757399999996,
                    "velocity": 0.2677165354330709,
                    "duration": 0.13125649999999922
                },
                {
                    "name": "E5",
                    "midi": 76,
                    "time": 51.97757399999996,
                    "velocity": 0.2677165354330709,
                    "duration": 0.13125649999999922
                },
                {
                    "name": "G4",
                    "midi": 67,
                    "time": 52.24008699999996,
                    "velocity": 0.2677165354330709,
                    "duration": 0.13125649999999922
                },
                {
                    "name": "B4",
                    "midi": 71,
                    "time": 52.24008699999996,
                    "velocity": 0.2677165354330709,
                    "duration": 0.13125649999999922
                },
                {
                    "name": "D5",
                    "midi": 74,
                    "time": 52.24008699999996,
                    "velocity": 0.2677165354330709,
                    "duration": 0.13125649999999922
                },
                {
                    "name": "D5",
                    "midi": 74,
                    "time": 52.37134349999996,
                    "velocity": 0.2755905511811024,
                    "duration": 0.06562825000000316
                },
                {
                    "name": "E5",
                    "midi": 76,
                    "time": 52.43697174999996,
                    "velocity": 0.2755905511811024,
                    "duration": 0.06562825000000316
                },
                {
                    "name": "E4",
                    "midi": 64,
                    "time": 52.502599999999966,
                    "velocity": 0.30708661417322836,
                    "duration": 0.5250259999999969
                },
                {
                    "name": "D5",
                    "midi": 74,
                    "time": 52.502599999999966,
                    "velocity": 0.30708661417322836,
                    "duration": 0.26251299999999844
                },
                {
                    "name": "C5",
                    "midi": 72,
                    "time": 52.765112999999964,
                    "velocity": 0.2677165354330709,
                    "duration": 0.26251299999999844
                },
                {
                    "name": "E4",
                    "midi": 64,
                    "time": 53.02762599999996,
                    "velocity": 0.2677165354330709,
                    "duration": 0.13125649999999922
                },
                {
                    "name": "C5",
                    "midi": 72,
                    "time": 53.02762599999996,
                    "velocity": 0.2677165354330709,
                    "duration": 0.13125649999999922
                },
                {
                    "name": "E4",
                    "midi": 64,
                    "time": 53.29013899999996,
                    "velocity": 0.2677165354330709,
                    "duration": 0.13125649999999922
                },
                {
                    "name": "C5",
                    "midi": 72,
                    "time": 53.29013899999996,
                    "velocity": 0.2677165354330709,
                    "duration": 0.13125649999999922
                },
                {
                    "name": "E4",
                    "midi": 64,
                    "time": 53.55265199999996,
                    "velocity": 0.30708661417322836,
                    "duration": 0.39376949999999766
                },
                {
                    "name": "C5",
                    "midi": 72,
                    "time": 53.55265199999996,
                    "velocity": 0.30708661417322836,
                    "duration": 0.39376949999999766
                },
                {
                    "name": "E4",
                    "midi": 64,
                    "time": 54.60270399999996,
                    "velocity": 0.5905511811023622,
                    "duration": 0.13125649999999922
                },
                {
                    "name": "G4",
                    "midi": 67,
                    "time": 54.60270399999996,
                    "velocity": 0.5905511811023622,
                    "duration": 0.525026000000004
                },
                {
                    "name": "D4",
                    "midi": 62,
                    "time": 54.73396049999996,
                    "velocity": 0.5354330708661418,
                    "duration": 0.13125649999999922
                },
                {
                    "name": "E4",
                    "midi": 64,
                    "time": 54.86521699999996,
                    "velocity": 0.5354330708661418,
                    "duration": 0.13125649999999922
                },
                {
                    "name": "C4",
                    "midi": 60,
                    "time": 54.99647349999996,
                    "velocity": 0.5354330708661418,
                    "duration": 0.06562825000000316
                },
                {
                    "name": "F4",
                    "midi": 65,
                    "time": 55.127729999999964,
                    "velocity": 0.5354330708661418,
                    "duration": 0.13125649999999922
                },
                {
                    "name": "A4",
                    "midi": 69,
                    "time": 55.127729999999964,
                    "velocity": 0.5590551181102362,
                    "duration": 0.5250259999999969
                },
                {
                    "name": "D4",
                    "midi": 62,
                    "time": 55.39024299999996,
                    "velocity": 0.5354330708661418,
                    "duration": 0.13125649999999922
                },
                {
                    "name": "E4",
                    "midi": 64,
                    "time": 55.65275599999996,
                    "velocity": 0.5905511811023622,
                    "duration": 0.13125649999999922
                },
                {
                    "name": "G4",
                    "midi": 67,
                    "time": 55.65275599999996,
                    "velocity": 0.5905511811023622,
                    "duration": 0.525026000000004
                },
                {
                    "name": "D4",
                    "midi": 62,
                    "time": 55.78401249999996,
                    "velocity": 0.5433070866141733,
                    "duration": 0.13125649999999922
                },
                {
                    "name": "E4",
                    "midi": 64,
                    "time": 55.91526899999996,
                    "velocity": 0.5433070866141733,
                    "duration": 0.13125649999999922
                },
                {
                    "name": "C4",
                    "midi": 60,
                    "time": 56.04652549999996,
                    "velocity": 0.5433070866141733,
                    "duration": 0.06562825000000316
                },
                {
                    "name": "F4",
                    "midi": 65,
                    "time": 56.177781999999965,
                    "velocity": 0.5354330708661418,
                    "duration": 0.13125649999999922
                },
                {
                    "name": "A4",
                    "midi": 69,
                    "time": 56.177781999999965,
                    "velocity": 0.5590551181102362,
                    "duration": 0.5250259999999969
                },
                {
                    "name": "D4",
                    "midi": 62,
                    "time": 56.44029499999996,
                    "velocity": 0.5354330708661418,
                    "duration": 0.13125649999999922
                },
                {
                    "name": "F5",
                    "midi": 77,
                    "time": 56.96532099999996,
                    "velocity": 0.4409448818897638,
                    "duration": 0.26251300000000555
                },
                {
                    "name": "A5",
                    "midi": 81,
                    "time": 56.96532099999996,
                    "velocity": 0.4409448818897638,
                    "duration": 0.08750433333333518
                },
                {
                    "name": "B4",
                    "midi": 71,
                    "time": 56.96532099999996,
                    "velocity": 0.4409448818897638,
                    "duration": 0.26251300000000555
                },
                {
                    "name": "B5",
                    "midi": 83,
                    "time": 57.052825333333296,
                    "velocity": 0.4409448818897638,
                    "duration": 0.08750433333333518
                },
                {
                    "name": "A5",
                    "midi": 81,
                    "time": 57.14032966666663,
                    "velocity": 0.4409448818897638,
                    "duration": 0.08750433333333518
                },
                {
                    "name": "G5",
                    "midi": 79,
                    "time": 57.227833999999966,
                    "velocity": 0.47244094488188976,
                    "duration": 0.13125649999999922
                },
                {
                    "name": "E5",
                    "midi": 76,
                    "time": 57.227833999999966,
                    "velocity": 0.47244094488188976,
                    "duration": 0.13125649999999922
                },
                {
                    "name": "C5",
                    "midi": 72,
                    "time": 57.227833999999966,
                    "velocity": 0.47244094488188976,
                    "duration": 0.13125649999999922
                },
                {
                    "name": "E5",
                    "midi": 76,
                    "time": 57.490346999999964,
                    "velocity": 0.4645669291338583,
                    "duration": 0.13125649999999922
                },
                {
                    "name": "G5",
                    "midi": 79,
                    "time": 57.490346999999964,
                    "velocity": 0.4645669291338583,
                    "duration": 0.13125649999999922
                },
                {
                    "name": "C5",
                    "midi": 72,
                    "time": 57.490346999999964,
                    "velocity": 0.4645669291338583,
                    "duration": 0.13125649999999922
                },
                {
                    "name": "G5",
                    "midi": 79,
                    "time": 57.75285999999996,
                    "velocity": 0.4645669291338583,
                    "duration": 1.0500520000000009
                },
                {
                    "name": "E5",
                    "midi": 76,
                    "time": 57.75285999999996,
                    "velocity": 0.4645669291338583,
                    "duration": 1.0500520000000009
                },
                {
                    "name": "C5",
                    "midi": 72,
                    "time": 57.75285999999996,
                    "velocity": 0.4645669291338583,
                    "duration": 1.0500520000000009
                },
                {
                    "name": "D#4",
                    "midi": 63,
                    "time": 58.802911999999964,
                    "velocity": 0.4094488188976378,
                    "duration": 0.5250259999999969
                },
                {
                    "name": "G4",
                    "midi": 67,
                    "time": 58.802911999999964,
                    "velocity": 0.4094488188976378,
                    "duration": 0.5250259999999969
                },
                {
                    "name": "B4",
                    "midi": 71,
                    "time": 59.32793799999996,
                    "velocity": 0.3779527559055118,
                    "duration": 0.26251299999999844
                },
                {
                    "name": "D#5",
                    "midi": 75,
                    "time": 59.32793799999996,
                    "velocity": 0.3779527559055118,
                    "duration": 0.26251299999999844
                },
                {
                    "name": "G5",
                    "midi": 79,
                    "time": 59.32793799999996,
                    "velocity": 0.3779527559055118,
                    "duration": 0.26251299999999844
                },
                {
                    "name": "B4",
                    "midi": 71,
                    "time": 59.59045099999996,
                    "velocity": 0.3700787401574803,
                    "duration": 0.26251299999999844
                },
                {
                    "name": "D#5",
                    "midi": 75,
                    "time": 59.59045099999996,
                    "velocity": 0.3700787401574803,
                    "duration": 0.26251299999999844
                },
                {
                    "name": "G5",
                    "midi": 79,
                    "time": 59.59045099999996,
                    "velocity": 0.3700787401574803,
                    "duration": 0.26251299999999844
                },
                {
                    "name": "B4",
                    "midi": 71,
                    "time": 59.85296399999996,
                    "velocity": 0.36220472440944884,
                    "duration": 0.5250259999999969
                },
                {
                    "name": "D#5",
                    "midi": 75,
                    "time": 59.85296399999996,
                    "velocity": 0.36220472440944884,
                    "duration": 0.5250259999999969
                },
                {
                    "name": "G5",
                    "midi": 79,
                    "time": 59.85296399999996,
                    "velocity": 0.36220472440944884,
                    "duration": 0.5250259999999969
                },
                {
                    "name": "D#5",
                    "midi": 75,
                    "time": 60.377989999999954,
                    "velocity": 0.2677165354330709,
                    "duration": 0.06562825000000316
                },
                {
                    "name": "G5",
                    "midi": 79,
                    "time": 60.377989999999954,
                    "velocity": 0.2677165354330709,
                    "duration": 0.06562825000000316
                },
                {
                    "name": "G5",
                    "midi": 79,
                    "time": 60.64050299999996,
                    "velocity": 0.2677165354330709,
                    "duration": 0.13125649999999922
                },
                {
                    "name": "D#5",
                    "midi": 75,
                    "time": 60.64050299999996,
                    "velocity": 0.2677165354330709,
                    "duration": 0.13125649999999922
                },
                {
                    "name": "G#5",
                    "midi": 80,
                    "time": 60.64050299999996,
                    "velocity": 0.2677165354330709,
                    "duration": 0.13125649999999922
                },
                {
                    "name": "D#5",
                    "midi": 75,
                    "time": 60.90301599999996,
                    "velocity": 0.29133858267716534,
                    "duration": 0.5250259999999969
                },
                {
                    "name": "G5",
                    "midi": 79,
                    "time": 60.90301599999996,
                    "velocity": 0.29133858267716534,
                    "duration": 0.5250259999999969
                },
                {
                    "name": "A#5",
                    "midi": 82,
                    "time": 60.90301599999996,
                    "velocity": 0.29133858267716534,
                    "duration": 0.26251299999999844
                },
                {
                    "name": "C6",
                    "midi": 84,
                    "time": 61.16552899999996,
                    "velocity": 0.2677165354330709,
                    "duration": 0.26251299999999844
                },
                {
                    "name": "D#5",
                    "midi": 75,
                    "time": 61.428041999999955,
                    "velocity": 0.2677165354330709,
                    "duration": 0.06562825000000316
                },
                {
                    "name": "G5",
                    "midi": 79,
                    "time": 61.428041999999955,
                    "velocity": 0.2677165354330709,
                    "duration": 0.06562825000000316
                },
                {
                    "name": "D#5",
                    "midi": 75,
                    "time": 61.69055499999996,
                    "velocity": 0.2677165354330709,
                    "duration": 0.06562825000000316
                },
                {
                    "name": "G5",
                    "midi": 79,
                    "time": 61.69055499999996,
                    "velocity": 0.2677165354330709,
                    "duration": 0.06562825000000316
                },
                {
                    "name": "G#5",
                    "midi": 80,
                    "time": 61.69055499999996,
                    "velocity": 0.2677165354330709,
                    "duration": 0.06562825000000316
                },
                {
                    "name": "D5",
                    "midi": 74,
                    "time": 61.953067999999966,
                    "velocity": 0.2992125984251969,
                    "duration": 0.5250259999999969
                },
                {
                    "name": "G#5",
                    "midi": 80,
                    "time": 61.953067999999966,
                    "velocity": 0.2992125984251969,
                    "duration": 0.5250259999999969
                },
                {
                    "name": "A#5",
                    "midi": 82,
                    "time": 61.953067999999966,
                    "velocity": 0.2992125984251969,
                    "duration": 0.26251299999999844
                },
                {
                    "name": "C6",
                    "midi": 84,
                    "time": 62.215580999999965,
                    "velocity": 0.2677165354330709,
                    "duration": 0.26251299999999844
                },
                {
                    "name": "A#4",
                    "midi": 70,
                    "time": 62.47809399999996,
                    "velocity": 0.2677165354330709,
                    "duration": 0.13125649999999922
                },
                {
                    "name": "D5",
                    "midi": 74,
                    "time": 62.47809399999996,
                    "velocity": 0.2677165354330709,
                    "duration": 0.13125649999999922
                },
                {
                    "name": "G5",
                    "midi": 79,
                    "time": 62.47809399999996,
                    "velocity": 0.2677165354330709,
                    "duration": 0.13125649999999922
                },
                {
                    "name": "A#4",
                    "midi": 70,
                    "time": 62.74060699999996,
                    "velocity": 0.2677165354330709,
                    "duration": 0.13125649999999922
                },
                {
                    "name": "D5",
                    "midi": 74,
                    "time": 62.74060699999996,
                    "velocity": 0.2677165354330709,
                    "duration": 0.13125649999999922
                },
                {
                    "name": "F5",
                    "midi": 77,
                    "time": 62.74060699999996,
                    "velocity": 0.2677165354330709,
                    "duration": 0.13125649999999922
                },
                {
                    "name": "F5",
                    "midi": 77,
                    "time": 62.87186349999996,
                    "velocity": 0.2755905511811024,
                    "duration": 0.06562825000000316
                },
                {
                    "name": "G5",
                    "midi": 79,
                    "time": 62.937491749999964,
                    "velocity": 0.2755905511811024,
                    "duration": 0.06562825000000316
                },
                {
                    "name": "G4",
                    "midi": 67,
                    "time": 63.00311999999997,
                    "velocity": 0.30708661417322836,
                    "duration": 0.5250259999999969
                },
                {
                    "name": "F5",
                    "midi": 77,
                    "time": 63.00311999999997,
                    "velocity": 0.30708661417322836,
                    "duration": 0.26251299999999844
                },
                {
                    "name": "D#5",
                    "midi": 75,
                    "time": 63.265632999999966,
                    "velocity": 0.2677165354330709,
                    "duration": 0.26251299999999844
                },
                {
                    "name": "G4",
                    "midi": 67,
                    "time": 63.528145999999964,
                    "velocity": 0.2677165354330709,
                    "duration": 0.13125649999999922
                },
                {
                    "name": "D#5",
                    "midi": 75,
                    "time": 63.528145999999964,
                    "velocity": 0.2677165354330709,
                    "duration": 0.13125649999999922
                },
                {
                    "name": "G4",
                    "midi": 67,
                    "time": 63.79065899999996,
                    "velocity": 0.2677165354330709,
                    "duration": 0.13125649999999922
                },
                {
                    "name": "D#5",
                    "midi": 75,
                    "time": 63.79065899999996,
                    "velocity": 0.2677165354330709,
                    "duration": 0.13125649999999922
                },
                {
                    "name": "G4",
                    "midi": 67,
                    "time": 64.05317199999996,
                    "velocity": 0.30708661417322836,
                    "duration": 0.5250259999999969
                },
                {
                    "name": "D#5",
                    "midi": 75,
                    "time": 64.05317199999996,
                    "velocity": 0.30708661417322836,
                    "duration": 0.5250259999999969
                },
                {
                    "name": "G3",
                    "midi": 55,
                    "time": 64.70945449999996,
                    "velocity": 0.1968503937007874,
                    "duration": 0.13125650000000633
                },
                {
                    "name": "C#4",
                    "midi": 61,
                    "time": 64.70945449999996,
                    "velocity": 0.2204724409448819,
                    "duration": 0.13125650000000633
                },
                {
                    "name": "D#4",
                    "midi": 63,
                    "time": 64.97196749999998,
                    "velocity": 0.2283464566929134,
                    "duration": 0.13125650000000633
                },
                {
                    "name": "C#4",
                    "midi": 61,
                    "time": 64.97196749999998,
                    "velocity": 0.1968503937007874,
                    "duration": 0.13125650000000633
                },
                {
                    "name": "G3",
                    "midi": 55,
                    "time": 64.97196749999998,
                    "velocity": 0.1968503937007874,
                    "duration": 0.13125650000000633
                },
                {
                    "name": "G3",
                    "midi": 55,
                    "time": 65.23448049999999,
                    "velocity": 0.1968503937007874,
                    "duration": 0.13125650000000633
                },
                {
                    "name": "C#4",
                    "midi": 61,
                    "time": 65.23448049999999,
                    "velocity": 0.1968503937007874,
                    "duration": 0.13125650000000633
                },
                {
                    "name": "F4",
                    "midi": 65,
                    "time": 65.23448049999999,
                    "velocity": 0.2677165354330709,
                    "duration": 0.13125650000000633
                },
                {
                    "name": "G3",
                    "midi": 55,
                    "time": 65.4969935,
                    "velocity": 0.2047244094488189,
                    "duration": 0.13125650000000633
                },
                {
                    "name": "C#4",
                    "midi": 61,
                    "time": 65.4969935,
                    "velocity": 0.2047244094488189,
                    "duration": 0.13125650000000633
                },
                {
                    "name": "G4",
                    "midi": 67,
                    "time": 65.4969935,
                    "velocity": 0.25984251968503935,
                    "duration": 0.13125650000000633
                },
                {
                    "name": "G3",
                    "midi": 55,
                    "time": 65.75950650000001,
                    "velocity": 0.2125984251968504,
                    "duration": 0.13125650000000633
                },
                {
                    "name": "C#4",
                    "midi": 61,
                    "time": 65.75950650000001,
                    "velocity": 0.2440944881889764,
                    "duration": 0.13125650000000633
                },
                {
                    "name": "D#4",
                    "midi": 63,
                    "time": 66.02201950000003,
                    "velocity": 0.2440944881889764,
                    "duration": 0.13125650000000633
                },
                {
                    "name": "G3",
                    "midi": 55,
                    "time": 66.02201950000003,
                    "velocity": 0.2125984251968504,
                    "duration": 0.13125650000000633
                },
                {
                    "name": "C#4",
                    "midi": 61,
                    "time": 66.02201950000003,
                    "velocity": 0.2125984251968504,
                    "duration": 0.13125650000000633
                },
                {
                    "name": "G3",
                    "midi": 55,
                    "time": 66.28453250000004,
                    "velocity": 0.2204724409448819,
                    "duration": 0.13125650000000633
                },
                {
                    "name": "C#4",
                    "midi": 61,
                    "time": 66.28453250000004,
                    "velocity": 0.2204724409448819,
                    "duration": 0.13125650000000633
                },
                {
                    "name": "F4",
                    "midi": 65,
                    "time": 66.28453250000004,
                    "velocity": 0.28346456692913385,
                    "duration": 0.13125650000000633
                },
                {
                    "name": "G3",
                    "midi": 55,
                    "time": 66.54704550000005,
                    "velocity": 0.2204724409448819,
                    "duration": 0.13125650000000633
                },
                {
                    "name": "C#4",
                    "midi": 61,
                    "time": 66.54704550000005,
                    "velocity": 0.2204724409448819,
                    "duration": 0.13125650000000633
                },
                {
                    "name": "G4",
                    "midi": 67,
                    "time": 66.54704550000005,
                    "velocity": 0.25984251968503935,
                    "duration": 0.13125650000000633
                },
                {
                    "name": "G3",
                    "midi": 55,
                    "time": 66.80955850000007,
                    "velocity": 0.2283464566929134,
                    "duration": 0.13125650000000633
                },
                {
                    "name": "C#4",
                    "midi": 61,
                    "time": 66.80955850000007,
                    "velocity": 0.2677165354330709,
                    "duration": 0.13125650000000633
                },
                {
                    "name": "D#4",
                    "midi": 63,
                    "time": 67.07207150000008,
                    "velocity": 0.2677165354330709,
                    "duration": 0.13125650000000633
                },
                {
                    "name": "G3",
                    "midi": 55,
                    "time": 67.07207150000008,
                    "velocity": 0.23622047244094488,
                    "duration": 0.13125650000000633
                },
                {
                    "name": "C#4",
                    "midi": 61,
                    "time": 67.07207150000008,
                    "velocity": 0.23622047244094488,
                    "duration": 0.13125650000000633
                },
                {
                    "name": "G3",
                    "midi": 55,
                    "time": 67.33458450000009,
                    "velocity": 0.2283464566929134,
                    "duration": 0.13125650000000633
                },
                {
                    "name": "C#4",
                    "midi": 61,
                    "time": 67.33458450000009,
                    "velocity": 0.2283464566929134,
                    "duration": 0.13125650000000633
                },
                {
                    "name": "F4",
                    "midi": 65,
                    "time": 67.33458450000009,
                    "velocity": 0.30708661417322836,
                    "duration": 0.13125650000000633
                },
                {
                    "name": "G#4",
                    "midi": 68,
                    "time": 67.5970975000001,
                    "velocity": 0.33070866141732286,
                    "duration": 0.13125650000000633
                },
                {
                    "name": "G3",
                    "midi": 55,
                    "time": 67.85961050000012,
                    "velocity": 0.2440944881889764,
                    "duration": 0.13125650000000633
                },
                {
                    "name": "C#4",
                    "midi": 61,
                    "time": 67.85961050000012,
                    "velocity": 0.2440944881889764,
                    "duration": 0.13125650000000633
                },
                {
                    "name": "G4",
                    "midi": 67,
                    "time": 67.85961050000012,
                    "velocity": 0.2992125984251969,
                    "duration": 0.13125650000000633
                },
                {
                    "name": "D#4",
                    "midi": 63,
                    "time": 68.12212350000013,
                    "velocity": 0.2992125984251969,
                    "duration": 0.13125650000000633
                },
                {
                    "name": "G3",
                    "midi": 55,
                    "time": 68.12212350000013,
                    "velocity": 0.2440944881889764,
                    "duration": 0.13125650000000633
                },
                {
                    "name": "C#4",
                    "midi": 61,
                    "time": 68.12212350000013,
                    "velocity": 0.2440944881889764,
                    "duration": 0.13125650000000633
                },
                {
                    "name": "G3",
                    "midi": 55,
                    "time": 68.38463650000014,
                    "velocity": 0.2440944881889764,
                    "duration": 0.13125650000000633
                },
                {
                    "name": "C#4",
                    "midi": 61,
                    "time": 68.38463650000014,
                    "velocity": 0.2440944881889764,
                    "duration": 0.13125650000000633
                },
                {
                    "name": "F4",
                    "midi": 65,
                    "time": 68.38463650000014,
                    "velocity": 0.30708661417322836,
                    "duration": 0.13125650000000633
                },
                {
                    "name": "G3",
                    "midi": 55,
                    "time": 68.64714950000015,
                    "velocity": 0.25196850393700787,
                    "duration": 0.13125650000000633
                },
                {
                    "name": "C#4",
                    "midi": 61,
                    "time": 68.64714950000015,
                    "velocity": 0.2992125984251969,
                    "duration": 0.13125650000000633
                },
                {
                    "name": "G#3",
                    "midi": 56,
                    "time": 68.90966250000017,
                    "velocity": 0.28346456692913385,
                    "duration": 0.13125650000000633
                },
                {
                    "name": "D#4",
                    "midi": 63,
                    "time": 68.90966250000017,
                    "velocity": 0.28346456692913385,
                    "duration": 0.13125650000000633
                },
                {
                    "name": "D#4",
                    "midi": 63,
                    "time": 69.17217550000018,
                    "velocity": 0.2755905511811024,
                    "duration": 0.13125650000000633
                },
                {
                    "name": "F4",
                    "midi": 65,
                    "time": 69.17217550000018,
                    "velocity": 0.2755905511811024,
                    "duration": 0.13125650000000633
                },
                {
                    "name": "G#3",
                    "midi": 56,
                    "time": 69.17217550000018,
                    "velocity": 0.2755905511811024,
                    "duration": 0.13125650000000633
                },
                {
                    "name": "G#3",
                    "midi": 56,
                    "time": 69.43468850000019,
                    "velocity": 0.23622047244094488,
                    "duration": 0.13125650000000633
                },
                {
                    "name": "D#4",
                    "midi": 63,
                    "time": 69.43468850000019,
                    "velocity": 0.23622047244094488,
                    "duration": 0.13125650000000633
                },
                {
                    "name": "G4",
                    "midi": 67,
                    "time": 69.43468850000019,
                    "velocity": 0.31496062992125984,
                    "duration": 0.13125650000000633
                },
                {
                    "name": "G#3",
                    "midi": 56,
                    "time": 69.6972015000002,
                    "velocity": 0.2440944881889764,
                    "duration": 0.13125650000000633
                },
                {
                    "name": "D#4",
                    "midi": 63,
                    "time": 69.6972015000002,
                    "velocity": 0.2440944881889764,
                    "duration": 0.13125650000000633
                },
                {
                    "name": "G#4",
                    "midi": 68,
                    "time": 69.6972015000002,
                    "velocity": 0.30708661417322836,
                    "duration": 0.13125650000000633
                },
                {
                    "name": "G#3",
                    "midi": 56,
                    "time": 69.95971450000022,
                    "velocity": 0.2440944881889764,
                    "duration": 0.13125650000000633
                },
                {
                    "name": "D#4",
                    "midi": 63,
                    "time": 69.95971450000022,
                    "velocity": 0.28346456692913385,
                    "duration": 0.13125650000000633
                },
                {
                    "name": "D#4",
                    "midi": 63,
                    "time": 70.22222750000023,
                    "velocity": 0.28346456692913385,
                    "duration": 0.13125650000000633
                },
                {
                    "name": "G#3",
                    "midi": 56,
                    "time": 70.22222750000023,
                    "velocity": 0.2440944881889764,
                    "duration": 0.13125650000000633
                },
                {
                    "name": "F4",
                    "midi": 65,
                    "time": 70.22222750000023,
                    "velocity": 0.2440944881889764,
                    "duration": 0.13125650000000633
                },
                {
                    "name": "G#3",
                    "midi": 56,
                    "time": 70.48474050000024,
                    "velocity": 0.25196850393700787,
                    "duration": 0.13125650000000633
                },
                {
                    "name": "D#4",
                    "midi": 63,
                    "time": 70.48474050000024,
                    "velocity": 0.25196850393700787,
                    "duration": 0.13125650000000633
                },
                {
                    "name": "G4",
                    "midi": 67,
                    "time": 70.48474050000024,
                    "velocity": 0.3228346456692913,
                    "duration": 0.13125650000000633
                },
                {
                    "name": "G#3",
                    "midi": 56,
                    "time": 70.74725350000026,
                    "velocity": 0.25196850393700787,
                    "duration": 0.13125650000000633
                },
                {
                    "name": "D#4",
                    "midi": 63,
                    "time": 70.74725350000026,
                    "velocity": 0.25196850393700787,
                    "duration": 0.13125650000000633
                },
                {
                    "name": "G#4",
                    "midi": 68,
                    "time": 70.74725350000026,
                    "velocity": 0.30708661417322836,
                    "duration": 0.13125650000000633
                },
                {
                    "name": "G#3",
                    "midi": 56,
                    "time": 71.00976650000027,
                    "velocity": 0.2677165354330709,
                    "duration": 0.13125650000000633
                },
                {
                    "name": "D#4",
                    "midi": 63,
                    "time": 71.00976650000027,
                    "velocity": 0.30708661417322836,
                    "duration": 0.13125650000000633
                },
                {
                    "name": "D#4",
                    "midi": 63,
                    "time": 71.27227950000028,
                    "velocity": 0.30708661417322836,
                    "duration": 0.13125650000000633
                },
                {
                    "name": "G#3",
                    "midi": 56,
                    "time": 71.27227950000028,
                    "velocity": 0.2677165354330709,
                    "duration": 0.13125650000000633
                },
                {
                    "name": "F4",
                    "midi": 65,
                    "time": 71.27227950000028,
                    "velocity": 0.2677165354330709,
                    "duration": 0.13125650000000633
                },
                {
                    "name": "G#3",
                    "midi": 56,
                    "time": 71.5347925000003,
                    "velocity": 0.2677165354330709,
                    "duration": 0.13125650000000633
                },
                {
                    "name": "D#4",
                    "midi": 63,
                    "time": 71.5347925000003,
                    "velocity": 0.2677165354330709,
                    "duration": 0.13125650000000633
                },
                {
                    "name": "G4",
                    "midi": 67,
                    "time": 71.5347925000003,
                    "velocity": 0.3464566929133858,
                    "duration": 0.13125650000000633
                },
                {
                    "name": "A#4",
                    "midi": 70,
                    "time": 71.7973055000003,
                    "velocity": 0.3779527559055118,
                    "duration": 0.13125650000000633
                },
                {
                    "name": "G#3",
                    "midi": 56,
                    "time": 72.05981850000032,
                    "velocity": 0.28346456692913385,
                    "duration": 0.13125650000000633
                },
                {
                    "name": "D#4",
                    "midi": 63,
                    "time": 72.05981850000032,
                    "velocity": 0.28346456692913385,
                    "duration": 0.13125650000000633
                },
                {
                    "name": "G#4",
                    "midi": 68,
                    "time": 72.05981850000032,
                    "velocity": 0.3464566929133858,
                    "duration": 0.13125650000000633
                },
                {
                    "name": "D#4",
                    "midi": 63,
                    "time": 72.32233150000033,
                    "velocity": 0.3464566929133858,
                    "duration": 0.13125650000000633
                },
                {
                    "name": "G#3",
                    "midi": 56,
                    "time": 72.32233150000033,
                    "velocity": 0.28346456692913385,
                    "duration": 0.13125650000000633
                },
                {
                    "name": "F4",
                    "midi": 65,
                    "time": 72.32233150000033,
                    "velocity": 0.28346456692913385,
                    "duration": 0.13125650000000633
                },
                {
                    "name": "G#3",
                    "midi": 56,
                    "time": 72.58484450000034,
                    "velocity": 0.28346456692913385,
                    "duration": 0.13125650000000633
                },
                {
                    "name": "D#4",
                    "midi": 63,
                    "time": 72.58484450000034,
                    "velocity": 0.28346456692913385,
                    "duration": 0.13125650000000633
                },
                {
                    "name": "G4",
                    "midi": 67,
                    "time": 72.58484450000034,
                    "velocity": 0.3543307086614173,
                    "duration": 0.13125650000000633
                },
                {
                    "name": "G#3",
                    "midi": 56,
                    "time": 72.84735750000036,
                    "velocity": 0.28346456692913385,
                    "duration": 0.13125650000000633
                },
                {
                    "name": "D#4",
                    "midi": 63,
                    "time": 72.84735750000036,
                    "velocity": 0.33858267716535434,
                    "duration": 0.13125650000000633
                },
                {
                    "name": "C4",
                    "midi": 60,
                    "time": 73.10987050000037,
                    "velocity": 0.3779527559055118,
                    "duration": 0.13125650000000633
                },
                {
                    "name": "F#4",
                    "midi": 66,
                    "time": 73.10987050000037,
                    "velocity": 0.3779527559055118,
                    "duration": 0.13125650000000633
                },
                {
                    "name": "F#4",
                    "midi": 66,
                    "time": 73.37238350000038,
                    "velocity": 0.3464566929133858,
                    "duration": 0.13125650000000633
                },
                {
                    "name": "G#4",
                    "midi": 68,
                    "time": 73.37238350000038,
                    "velocity": 0.3464566929133858,
                    "duration": 0.13125650000000633
                },
                {
                    "name": "C4",
                    "midi": 60,
                    "time": 73.37238350000038,
                    "velocity": 0.3464566929133858,
                    "duration": 0.13125650000000633
                },
                {
                    "name": "C4",
                    "midi": 60,
                    "time": 73.6348965000004,
                    "velocity": 0.3700787401574803,
                    "duration": 0.13125650000000633
                },
                {
                    "name": "F#4",
                    "midi": 66,
                    "time": 73.6348965000004,
                    "velocity": 0.3700787401574803,
                    "duration": 0.13125650000000633
                },
                {
                    "name": "A#4",
                    "midi": 70,
                    "time": 73.6348965000004,
                    "velocity": 0.3700787401574803,
                    "duration": 0.13125650000000633
                },
                {
                    "name": "C4",
                    "midi": 60,
                    "time": 73.8974095000004,
                    "velocity": 0.29133858267716534,
                    "duration": 0.13125650000000633
                },
                {
                    "name": "F#4",
                    "midi": 66,
                    "time": 73.8974095000004,
                    "velocity": 0.29133858267716534,
                    "duration": 0.13125650000000633
                },
                {
                    "name": "C5",
                    "midi": 72,
                    "time": 73.8974095000004,
                    "velocity": 0.36220472440944884,
                    "duration": 0.13125650000000633
                },
                {
                    "name": "C4",
                    "midi": 60,
                    "time": 74.15992250000042,
                    "velocity": 0.3779527559055118,
                    "duration": 0.13125650000000633
                },
                {
                    "name": "F#4",
                    "midi": 66,
                    "time": 74.15992250000042,
                    "velocity": 0.3779527559055118,
                    "duration": 0.13125650000000633
                },
                {
                    "name": "F#4",
                    "midi": 66,
                    "time": 74.42243550000043,
                    "velocity": 0.3464566929133858,
                    "duration": 0.13125650000000633
                },
                {
                    "name": "C4",
                    "midi": 60,
                    "time": 74.42243550000043,
                    "velocity": 0.29133858267716534,
                    "duration": 0.13125650000000633
                },
                {
                    "name": "G#4",
                    "midi": 68,
                    "time": 74.42243550000043,
                    "velocity": 0.29133858267716534,
                    "duration": 0.13125650000000633
                },
                {
                    "name": "C4",
                    "midi": 60,
                    "time": 74.68494850000044,
                    "velocity": 0.3700787401574803,
                    "duration": 0.13125650000000633
                },
                {
                    "name": "F#4",
                    "midi": 66,
                    "time": 74.68494850000044,
                    "velocity": 0.3700787401574803,
                    "duration": 0.13125650000000633
                },
                {
                    "name": "A#4",
                    "midi": 70,
                    "time": 74.68494850000044,
                    "velocity": 0.3700787401574803,
                    "duration": 0.13125650000000633
                },
                {
                    "name": "C4",
                    "midi": 60,
                    "time": 74.94746150000046,
                    "velocity": 0.29133858267716534,
                    "duration": 0.13125650000000633
                },
                {
                    "name": "F#4",
                    "midi": 66,
                    "time": 74.94746150000046,
                    "velocity": 0.29133858267716534,
                    "duration": 0.13125650000000633
                },
                {
                    "name": "C5",
                    "midi": 72,
                    "time": 74.94746150000046,
                    "velocity": 0.3543307086614173,
                    "duration": 0.13125650000000633
                },
                {
                    "name": "C4",
                    "midi": 60,
                    "time": 75.20997450000047,
                    "velocity": 0.3700787401574803,
                    "duration": 0.13125650000000633
                },
                {
                    "name": "F#4",
                    "midi": 66,
                    "time": 75.20997450000047,
                    "velocity": 0.3700787401574803,
                    "duration": 0.13125650000000633
                },
                {
                    "name": "F#4",
                    "midi": 66,
                    "time": 75.47248750000048,
                    "velocity": 0.36220472440944884,
                    "duration": 0.13125650000000633
                },
                {
                    "name": "C4",
                    "midi": 60,
                    "time": 75.47248750000048,
                    "velocity": 0.36220472440944884,
                    "duration": 0.13125650000000633
                },
                {
                    "name": "G#4",
                    "midi": 68,
                    "time": 75.47248750000048,
                    "velocity": 0.36220472440944884,
                    "duration": 0.13125650000000633
                },
                {
                    "name": "C4",
                    "midi": 60,
                    "time": 75.7350005000005,
                    "velocity": 0.4409448818897638,
                    "duration": 0.13125650000000633
                },
                {
                    "name": "F#4",
                    "midi": 66,
                    "time": 75.7350005000005,
                    "velocity": 0.4409448818897638,
                    "duration": 0.13125650000000633
                },
                {
                    "name": "A#4",
                    "midi": 70,
                    "time": 75.7350005000005,
                    "velocity": 0.4409448818897638,
                    "duration": 0.13125650000000633
                },
                {
                    "name": "C#5",
                    "midi": 73,
                    "time": 75.99751350000051,
                    "velocity": 0.3937007874015748,
                    "duration": 0.13125650000000633
                },
                {
                    "name": "C4",
                    "midi": 60,
                    "time": 76.26002650000052,
                    "velocity": 0.4330708661417323,
                    "duration": 0.13125650000000633
                },
                {
                    "name": "F#4",
                    "midi": 66,
                    "time": 76.26002650000052,
                    "velocity": 0.4330708661417323,
                    "duration": 0.13125650000000633
                },
                {
                    "name": "C5",
                    "midi": 72,
                    "time": 76.26002650000052,
                    "velocity": 0.4330708661417323,
                    "duration": 0.13125650000000633
                },
                {
                    "name": "G#4",
                    "midi": 68,
                    "time": 76.52253950000053,
                    "velocity": 0.3779527559055118,
                    "duration": 0.13125650000000633
                },
                {
                    "name": "C4",
                    "midi": 60,
                    "time": 76.52253950000053,
                    "velocity": 0.31496062992125984,
                    "duration": 0.13125650000000633
                },
                {
                    "name": "F#4",
                    "midi": 66,
                    "time": 76.52253950000053,
                    "velocity": 0.31496062992125984,
                    "duration": 0.13125650000000633
                },
                {
                    "name": "C4",
                    "midi": 60,
                    "time": 76.78505250000055,
                    "velocity": 0.31496062992125984,
                    "duration": 0.13125650000000633
                },
                {
                    "name": "F#4",
                    "midi": 66,
                    "time": 76.78505250000055,
                    "velocity": 0.31496062992125984,
                    "duration": 0.13125650000000633
                },
                {
                    "name": "A#4",
                    "midi": 70,
                    "time": 76.78505250000055,
                    "velocity": 0.3937007874015748,
                    "duration": 0.13125650000000633
                },
                {
                    "name": "C4",
                    "midi": 60,
                    "time": 77.04756550000056,
                    "velocity": 0.31496062992125984,
                    "duration": 0.13125650000000633
                },
                {
                    "name": "F#4",
                    "midi": 66,
                    "time": 77.04756550000056,
                    "velocity": 0.3700787401574803,
                    "duration": 0.13125650000000633
                },
                {
                    "name": "C#4",
                    "midi": 61,
                    "time": 77.31007850000057,
                    "velocity": 0.4645669291338583,
                    "duration": 0.13125650000000633
                },
                {
                    "name": "G#4",
                    "midi": 68,
                    "time": 77.31007850000057,
                    "velocity": 0.4645669291338583,
                    "duration": 0.13125650000000633
                },
                {
                    "name": "G#4",
                    "midi": 68,
                    "time": 77.57259150000058,
                    "velocity": 0.4094488188976378,
                    "duration": 0.13125650000000633
                },
                {
                    "name": "A#4",
                    "midi": 70,
                    "time": 77.57259150000058,
                    "velocity": 0.4094488188976378,
                    "duration": 0.13125650000000633
                },
                {
                    "name": "C#4",
                    "midi": 61,
                    "time": 77.57259150000058,
                    "velocity": 0.4094488188976378,
                    "duration": 0.13125650000000633
                },
                {
                    "name": "C#4",
                    "midi": 61,
                    "time": 77.8351045000006,
                    "velocity": 0.44881889763779526,
                    "duration": 0.13125650000000633
                },
                {
                    "name": "G#4",
                    "midi": 68,
                    "time": 77.8351045000006,
                    "velocity": 0.44881889763779526,
                    "duration": 0.13125650000000633
                },
                {
                    "name": "C5",
                    "midi": 72,
                    "time": 77.8351045000006,
                    "velocity": 0.44881889763779526,
                    "duration": 0.13125650000000633
                },
                {
                    "name": "C#4",
                    "midi": 61,
                    "time": 78.09761750000061,
                    "velocity": 0.4330708661417323,
                    "duration": 0.13125650000000633
                },
                {
                    "name": "G#4",
                    "midi": 68,
                    "time": 78.09761750000061,
                    "velocity": 0.4330708661417323,
                    "duration": 0.13125650000000633
                },
                {
                    "name": "C#5",
                    "midi": 73,
                    "time": 78.09761750000061,
                    "velocity": 0.4330708661417323,
                    "duration": 0.13125650000000633
                },
                {
                    "name": "C#4",
                    "midi": 61,
                    "time": 78.36013050000062,
                    "velocity": 0.4645669291338583,
                    "duration": 0.13125650000000633
                },
                {
                    "name": "G#4",
                    "midi": 68,
                    "time": 78.36013050000062,
                    "velocity": 0.4645669291338583,
                    "duration": 0.13125650000000633
                },
                {
                    "name": "G#4",
                    "midi": 68,
                    "time": 78.62264350000063,
                    "velocity": 0.41732283464566927,
                    "duration": 0.13125650000000633
                },
                {
                    "name": "C#4",
                    "midi": 61,
                    "time": 78.62264350000063,
                    "velocity": 0.41732283464566927,
                    "duration": 0.13125650000000633
                },
                {
                    "name": "A#4",
                    "midi": 70,
                    "time": 78.62264350000063,
                    "velocity": 0.41732283464566927,
                    "duration": 0.13125650000000633
                },
                {
                    "name": "C#4",
                    "midi": 61,
                    "time": 78.88515650000065,
                    "velocity": 0.4645669291338583,
                    "duration": 0.13125650000000633
                },
                {
                    "name": "G#4",
                    "midi": 68,
                    "time": 78.88515650000065,
                    "velocity": 0.4645669291338583,
                    "duration": 0.13125650000000633
                },
                {
                    "name": "C5",
                    "midi": 72,
                    "time": 78.88515650000065,
                    "velocity": 0.4645669291338583,
                    "duration": 0.13125650000000633
                },
                {
                    "name": "C#4",
                    "midi": 61,
                    "time": 79.14766950000066,
                    "velocity": 0.4330708661417323,
                    "duration": 0.13125650000000633
                },
                {
                    "name": "G#4",
                    "midi": 68,
                    "time": 79.14766950000066,
                    "velocity": 0.4330708661417323,
                    "duration": 0.13125650000000633
                },
                {
                    "name": "C#5",
                    "midi": 73,
                    "time": 79.14766950000066,
                    "velocity": 0.4330708661417323,
                    "duration": 0.13125650000000633
                },
                {
                    "name": "C#4",
                    "midi": 61,
                    "time": 79.41018250000067,
                    "velocity": 0.4645669291338583,
                    "duration": 0.13125650000000633
                },
                {
                    "name": "G#4",
                    "midi": 68,
                    "time": 79.41018250000067,
                    "velocity": 0.4645669291338583,
                    "duration": 0.13125650000000633
                },
                {
                    "name": "G#4",
                    "midi": 68,
                    "time": 79.67269550000069,
                    "velocity": 0.44881889763779526,
                    "duration": 0.13125650000000633
                },
                {
                    "name": "C#4",
                    "midi": 61,
                    "time": 79.67269550000069,
                    "velocity": 0.44881889763779526,
                    "duration": 0.13125650000000633
                },
                {
                    "name": "A#4",
                    "midi": 70,
                    "time": 79.67269550000069,
                    "velocity": 0.44881889763779526,
                    "duration": 0.13125650000000633
                },
                {
                    "name": "C#4",
                    "midi": 61,
                    "time": 79.9352085000007,
                    "velocity": 0.5039370078740157,
                    "duration": 0.13125650000000633
                },
                {
                    "name": "G#4",
                    "midi": 68,
                    "time": 79.9352085000007,
                    "velocity": 0.5039370078740157,
                    "duration": 0.13125650000000633
                },
                {
                    "name": "C5",
                    "midi": 72,
                    "time": 79.9352085000007,
                    "velocity": 0.5039370078740157,
                    "duration": 0.13125650000000633
                },
                {
                    "name": "D#5",
                    "midi": 75,
                    "time": 80.19772150000071,
                    "velocity": 0.5039370078740157,
                    "duration": 0.13125650000000633
                },
                {
                    "name": "C#4",
                    "midi": 61,
                    "time": 80.46023450000072,
                    "velocity": 0.4881889763779528,
                    "duration": 0.13125650000000633
                },
                {
                    "name": "G#4",
                    "midi": 68,
                    "time": 80.46023450000072,
                    "velocity": 0.4881889763779528,
                    "duration": 0.13125650000000633
                },
                {
                    "name": "C#5",
                    "midi": 73,
                    "time": 80.46023450000072,
                    "velocity": 0.4881889763779528,
                    "duration": 0.13125650000000633
                },
                {
                    "name": "A#4",
                    "midi": 70,
                    "time": 80.72274750000074,
                    "velocity": 0.4645669291338583,
                    "duration": 0.13125650000000633
                },
                {
                    "name": "C#4",
                    "midi": 61,
                    "time": 80.72274750000074,
                    "velocity": 0.3779527559055118,
                    "duration": 0.13125650000000633
                },
                {
                    "name": "G#4",
                    "midi": 68,
                    "time": 80.72274750000074,
                    "velocity": 0.3779527559055118,
                    "duration": 0.13125650000000633
                },
                {
                    "name": "C#4",
                    "midi": 61,
                    "time": 80.98526050000075,
                    "velocity": 0.3779527559055118,
                    "duration": 0.13125650000000633
                },
                {
                    "name": "G#4",
                    "midi": 68,
                    "time": 80.98526050000075,
                    "velocity": 0.3779527559055118,
                    "duration": 0.13125650000000633
                },
                {
                    "name": "C5",
                    "midi": 72,
                    "time": 80.98526050000075,
                    "velocity": 0.48031496062992124,
                    "duration": 0.13125650000000633
                },
                {
                    "name": "C#4",
                    "midi": 61,
                    "time": 81.24777350000076,
                    "velocity": 0.3779527559055118,
                    "duration": 0.13125650000000633
                },
                {
                    "name": "G#4",
                    "midi": 68,
                    "time": 81.24777350000076,
                    "velocity": 0.44881889763779526,
                    "duration": 0.13125650000000633
                },
                {
                    "name": "D4",
                    "midi": 62,
                    "time": 81.51028650000077,
                    "velocity": 0.5590551181102362,
                    "duration": 0.13125650000000633
                },
                {
                    "name": "G#4",
                    "midi": 68,
                    "time": 81.51028650000077,
                    "velocity": 0.5590551181102362,
                    "duration": 0.13125650000000633
                },
                {
                    "name": "G#4",
                    "midi": 68,
                    "time": 81.77279950000079,
                    "velocity": 0.49606299212598426,
                    "duration": 0.13125650000000633
                },
                {
                    "name": "D4",
                    "midi": 62,
                    "time": 81.77279950000079,
                    "velocity": 0.49606299212598426,
                    "duration": 0.13125650000000633
                },
                {
                    "name": "A#4",
                    "midi": 70,
                    "time": 81.77279950000079,
                    "velocity": 0.49606299212598426,
                    "duration": 0.13125650000000633
                },
                {
                    "name": "D4",
                    "midi": 62,
                    "time": 82.0353125000008,
                    "velocity": 0.5511811023622047,
                    "duration": 0.13125650000000633
                },
                {
                    "name": "G#4",
                    "midi": 68,
                    "time": 82.0353125000008,
                    "velocity": 0.5511811023622047,
                    "duration": 0.13125650000000633
                },
                {
                    "name": "C5",
                    "midi": 72,
                    "time": 82.0353125000008,
                    "velocity": 0.5511811023622047,
                    "duration": 0.13125650000000633
                },
                {
                    "name": "D#5",
                    "midi": 75,
                    "time": 82.29782550000081,
                    "velocity": 0.5905511811023622,
                    "duration": 0.13125650000000633
                },
                {
                    "name": "D4",
                    "midi": 62,
                    "time": 82.56033850000082,
                    "velocity": 0.5433070866141733,
                    "duration": 0.13125650000000633
                },
                {
                    "name": "G#4",
                    "midi": 68,
                    "time": 82.56033850000082,
                    "velocity": 0.5433070866141733,
                    "duration": 0.13125650000000633
                },
                {
                    "name": "D5",
                    "midi": 74,
                    "time": 82.56033850000082,
                    "velocity": 0.5433070866141733,
                    "duration": 0.13125650000000633
                },
                {
                    "name": "A#4",
                    "midi": 70,
                    "time": 82.82285150000084,
                    "velocity": 0.49606299212598426,
                    "duration": 0.13125650000000633
                },
                {
                    "name": "D4",
                    "midi": 62,
                    "time": 82.82285150000084,
                    "velocity": 0.4094488188976378,
                    "duration": 0.13125650000000633
                },
                {
                    "name": "G#4",
                    "midi": 68,
                    "time": 82.82285150000084,
                    "velocity": 0.4094488188976378,
                    "duration": 0.13125650000000633
                },
                {
                    "name": "D4",
                    "midi": 62,
                    "time": 83.08536450000085,
                    "velocity": 0.4094488188976378,
                    "duration": 0.13125650000000633
                },
                {
                    "name": "G#4",
                    "midi": 68,
                    "time": 83.08536450000085,
                    "velocity": 0.4094488188976378,
                    "duration": 0.13125650000000633
                },
                {
                    "name": "C5",
                    "midi": 72,
                    "time": 83.08536450000085,
                    "velocity": 0.5196850393700787,
                    "duration": 0.13125650000000633
                },
                {
                    "name": "G#4",
                    "midi": 68,
                    "time": 83.34787750000086,
                    "velocity": 0.4881889763779528,
                    "duration": 0.13125650000000633
                },
                {
                    "name": "D5",
                    "midi": 74,
                    "time": 83.61039050000088,
                    "velocity": 0.5511811023622047,
                    "duration": 0.13125650000000633
                },
                {
                    "name": "C5",
                    "midi": 72,
                    "time": 83.61039050000088,
                    "velocity": 0.5511811023622047,
                    "duration": 0.13125650000000633
                },
                {
                    "name": "G#4",
                    "midi": 68,
                    "time": 83.61039050000088,
                    "velocity": 0.5511811023622047,
                    "duration": 0.13125650000000633
                },
                {
                    "name": "G#4",
                    "midi": 68,
                    "time": 83.87290350000089,
                    "velocity": 0.5196850393700787,
                    "duration": 0.13125650000000633
                },
                {
                    "name": "D#5",
                    "midi": 75,
                    "time": 83.87290350000089,
                    "velocity": 0.5196850393700787,
                    "duration": 0.13125650000000633
                },
                {
                    "name": "C5",
                    "midi": 72,
                    "time": 83.87290350000089,
                    "velocity": 0.5196850393700787,
                    "duration": 0.13125650000000633
                },
                {
                    "name": "F5",
                    "midi": 77,
                    "time": 84.1354165000009,
                    "velocity": 0.5669291338582677,
                    "duration": 0.13125650000000633
                },
                {
                    "name": "G#4",
                    "midi": 68,
                    "time": 84.1354165000009,
                    "velocity": 0.5669291338582677,
                    "duration": 0.13125650000000633
                },
                {
                    "name": "C5",
                    "midi": 72,
                    "time": 84.1354165000009,
                    "velocity": 0.5669291338582677,
                    "duration": 0.13125650000000633
                },
                {
                    "name": "G#5",
                    "midi": 80,
                    "time": 84.39792950000091,
                    "velocity": 0.6377952755905512,
                    "duration": 0.13125650000000633
                },
                {
                    "name": "G5",
                    "midi": 79,
                    "time": 84.66044250000093,
                    "velocity": 0.6299212598425197,
                    "duration": 0.13125650000000633
                },
                {
                    "name": "G#4",
                    "midi": 68,
                    "time": 84.66044250000093,
                    "velocity": 0.6299212598425197,
                    "duration": 0.13125650000000633
                },
                {
                    "name": "C5",
                    "midi": 72,
                    "time": 84.66044250000093,
                    "velocity": 0.6299212598425197,
                    "duration": 0.13125650000000633
                },
                {
                    "name": "C5",
                    "midi": 72,
                    "time": 84.92295550000094,
                    "velocity": 0.5669291338582677,
                    "duration": 0.13125650000000633
                },
                {
                    "name": "D#5",
                    "midi": 75,
                    "time": 84.92295550000094,
                    "velocity": 0.5669291338582677,
                    "duration": 0.13125650000000633
                },
                {
                    "name": "G#4",
                    "midi": 68,
                    "time": 84.92295550000094,
                    "velocity": 0.5669291338582677,
                    "duration": 0.13125650000000633
                },
                {
                    "name": "F5",
                    "midi": 77,
                    "time": 85.18546850000095,
                    "velocity": 0.6299212598425197,
                    "duration": 0.13125650000000633
                },
                {
                    "name": "G#4",
                    "midi": 68,
                    "time": 85.18546850000095,
                    "velocity": 0.6299212598425197,
                    "duration": 0.13125650000000633
                },
                {
                    "name": "C5",
                    "midi": 72,
                    "time": 85.18546850000095,
                    "velocity": 0.6299212598425197,
                    "duration": 0.13125650000000633
                },
                {
                    "name": "D5",
                    "midi": 74,
                    "time": 85.44798150000096,
                    "velocity": 0.5196850393700787,
                    "duration": 0.13125650000000633
                },
                {
                    "name": "F5",
                    "midi": 77,
                    "time": 85.71049450000098,
                    "velocity": 0.5905511811023622,
                    "duration": 0.13125650000000633
                },
                {
                    "name": "G5",
                    "midi": 79,
                    "time": 85.97300750000099,
                    "velocity": 0.5905511811023622,
                    "duration": 0.13125650000000633
                },
                {
                    "name": "G#5",
                    "midi": 80,
                    "time": 86.235520500001,
                    "velocity": 0.6377952755905512,
                    "duration": 0.13125650000000633
                },
                {
                    "name": "C6",
                    "midi": 84,
                    "time": 86.49803350000101,
                    "velocity": 0.5905511811023622,
                    "duration": 0.13125650000000633
                },
                {
                    "name": "G#5",
                    "midi": 80,
                    "time": 86.76054650000103,
                    "velocity": 0.5905511811023622,
                    "duration": 0.13125650000000633
                },
                {
                    "name": "F5",
                    "midi": 77,
                    "time": 87.02305950000104,
                    "velocity": 0.5905511811023622,
                    "duration": 0.13125650000000633
                },
                {
                    "name": "G#5",
                    "midi": 80,
                    "time": 87.28557250000105,
                    "velocity": 0.6377952755905512,
                    "duration": 0.13125650000000633
                },
                {
                    "name": "F5",
                    "midi": 77,
                    "time": 87.54808550000106,
                    "velocity": 0.5905511811023622,
                    "duration": 0.13125650000000633
                },
                {
                    "name": "D5",
                    "midi": 74,
                    "time": 87.81059850000108,
                    "velocity": 0.5905511811023622,
                    "duration": 0.13125650000000633
                },
                {
                    "name": "F5",
                    "midi": 77,
                    "time": 88.07311150000109,
                    "velocity": 0.5905511811023622,
                    "duration": 0.13125650000000633
                },
                {
                    "name": "D5",
                    "midi": 74,
                    "time": 88.3356245000011,
                    "velocity": 0.6377952755905512,
                    "duration": 0.13125650000000633
                },
                {
                    "name": "A#4",
                    "midi": 70,
                    "time": 88.59813750000112,
                    "velocity": 0.5905511811023622,
                    "duration": 0.13125650000000633
                },
                {
                    "name": "D5",
                    "midi": 74,
                    "time": 88.86065050000113,
                    "velocity": 0.5905511811023622,
                    "duration": 0.13125650000000633
                },
                {
                    "name": "A#4",
                    "midi": 70,
                    "time": 89.12316350000114,
                    "velocity": 0.5905511811023622,
                    "duration": 0.13125650000000633
                },
                {
                    "name": "G4",
                    "midi": 67,
                    "time": 89.38567650000115,
                    "velocity": 0.6377952755905512,
                    "duration": 0.13125650000000633
                },
                {
                    "name": "A#4",
                    "midi": 70,
                    "time": 89.64818950000117,
                    "velocity": 0.5905511811023622,
                    "duration": 0.13125650000000633
                },
                {
                    "name": "G4",
                    "midi": 67,
                    "time": 89.91070250000118,
                    "velocity": 0.5905511811023622,
                    "duration": 0.13125650000000633
                },
                {
                    "name": "D#4",
                    "midi": 63,
                    "time": 90.17321550000119,
                    "velocity": 0.5905511811023622,
                    "duration": 0.13125650000000633
                },
                {
                    "name": "G4",
                    "midi": 67,
                    "time": 90.4357285000012,
                    "velocity": 0.6692913385826772,
                    "duration": 0.13125650000000633
                },
                {
                    "name": "D#4",
                    "midi": 63,
                    "time": 90.69824150000122,
                    "velocity": 0.6299212598425197,
                    "duration": 0.13125650000000633
                },
                {
                    "name": "C4",
                    "midi": 60,
                    "time": 90.96075450000123,
                    "velocity": 0.6299212598425197,
                    "duration": 0.13125650000000633
                },
                {
                    "name": "D#4",
                    "midi": 63,
                    "time": 91.22326750000124,
                    "velocity": 0.6299212598425197,
                    "duration": 0.13125650000000633
                },
                {
                    "name": "C4",
                    "midi": 60,
                    "time": 91.48578050000125,
                    "velocity": 0.7322834645669292,
                    "duration": 0.13125650000000633
                },
                {
                    "name": "G#3",
                    "midi": 56,
                    "time": 91.74829350000127,
                    "velocity": 0.6771653543307087,
                    "duration": 0.13125650000000633
                },
                {
                    "name": "C4",
                    "midi": 60,
                    "time": 92.01080650000128,
                    "velocity": 0.7007874015748031,
                    "duration": 0.13125650000000633
                },
                {
                    "name": "G#3",
                    "midi": 56,
                    "time": 92.27331950000129,
                    "velocity": 0.8110236220472441,
                    "duration": 0.13125650000000633
                },
                {
                    "name": "G3",
                    "midi": 55,
                    "time": 92.4045760000013,
                    "velocity": 0.8503937007874016,
                    "duration": 2.1001039999999875
                },
                {
                    "name": "G#4",
                    "midi": 68,
                    "time": 92.9296020000013,
                    "velocity": 0.7322834645669292,
                    "duration": 0.5250259999999969
                },
                {
                    "name": "G#3",
                    "midi": 56,
                    "time": 92.9296020000013,
                    "velocity": 0.6535433070866141,
                    "duration": 0.5250259999999969
                },
                {
                    "name": "C4",
                    "midi": 60,
                    "time": 92.9296020000013,
                    "velocity": 0.6535433070866141,
                    "duration": 0.5250259999999969
                },
                {
                    "name": "D#4",
                    "midi": 63,
                    "time": 92.9296020000013,
                    "velocity": 0.6535433070866141,
                    "duration": 0.5250259999999969
                },
                {
                    "name": "G#5",
                    "midi": 80,
                    "time": 93.45462800000129,
                    "velocity": 0.7322834645669292,
                    "duration": 0.5250259999999969
                },
                {
                    "name": "D#5",
                    "midi": 75,
                    "time": 93.45462800000129,
                    "velocity": 0.6535433070866141,
                    "duration": 0.5250259999999969
                },
                {
                    "name": "G#4",
                    "midi": 68,
                    "time": 93.45462800000129,
                    "velocity": 0.6535433070866141,
                    "duration": 0.5250259999999969
                },
                {
                    "name": "C5",
                    "midi": 72,
                    "time": 93.45462800000129,
                    "velocity": 0.6535433070866141,
                    "duration": 0.5250259999999969
                },
                {
                    "name": "G#6",
                    "midi": 92,
                    "time": 93.97965400000129,
                    "velocity": 0.7165354330708661,
                    "duration": 0.5250259999999969
                },
                {
                    "name": "D#6",
                    "midi": 87,
                    "time": 93.97965400000129,
                    "velocity": 0.6377952755905512,
                    "duration": 0.5250259999999969
                },
                {
                    "name": "C6",
                    "midi": 84,
                    "time": 93.97965400000129,
                    "velocity": 0.6377952755905512,
                    "duration": 0.5250259999999969
                },
                {
                    "name": "G#5",
                    "midi": 80,
                    "time": 93.97965400000129,
                    "velocity": 0.6377952755905512,
                    "duration": 0.5250259999999969
                },
                {
                    "name": "F#3",
                    "midi": 54,
                    "time": 94.50468000000129,
                    "velocity": 0.8503937007874016,
                    "duration": 2.1001039999999875
                },
                {
                    "name": "G#4",
                    "midi": 68,
                    "time": 95.02970600000128,
                    "velocity": 0.7322834645669292,
                    "duration": 0.5250259999999969
                },
                {
                    "name": "G#3",
                    "midi": 56,
                    "time": 95.02970600000128,
                    "velocity": 0.6535433070866141,
                    "duration": 0.5250259999999969
                },
                {
                    "name": "C4",
                    "midi": 60,
                    "time": 95.02970600000128,
                    "velocity": 0.6535433070866141,
                    "duration": 0.5250259999999969
                },
                {
                    "name": "D#4",
                    "midi": 63,
                    "time": 95.02970600000128,
                    "velocity": 0.6535433070866141,
                    "duration": 0.5250259999999969
                },
                {
                    "name": "G#5",
                    "midi": 80,
                    "time": 95.55473200000128,
                    "velocity": 0.7322834645669292,
                    "duration": 0.5250259999999969
                },
                {
                    "name": "D#5",
                    "midi": 75,
                    "time": 95.55473200000128,
                    "velocity": 0.6535433070866141,
                    "duration": 0.5250259999999969
                },
                {
                    "name": "G#4",
                    "midi": 68,
                    "time": 95.55473200000128,
                    "velocity": 0.6535433070866141,
                    "duration": 0.5250259999999969
                },
                {
                    "name": "C5",
                    "midi": 72,
                    "time": 95.55473200000128,
                    "velocity": 0.6535433070866141,
                    "duration": 0.5250259999999969
                },
                {
                    "name": "G#6",
                    "midi": 92,
                    "time": 96.07975800000128,
                    "velocity": 0.7165354330708661,
                    "duration": 0.5250259999999969
                },
                {
                    "name": "D#6",
                    "midi": 87,
                    "time": 96.07975800000128,
                    "velocity": 0.6377952755905512,
                    "duration": 0.5250259999999969
                },
                {
                    "name": "C6",
                    "midi": 84,
                    "time": 96.07975800000128,
                    "velocity": 0.6377952755905512,
                    "duration": 0.5250259999999969
                },
                {
                    "name": "G#5",
                    "midi": 80,
                    "time": 96.07975800000128,
                    "velocity": 0.6377952755905512,
                    "duration": 0.5250259999999969
                },
                {
                    "name": "F3",
                    "midi": 53,
                    "time": 96.60478400000127,
                    "velocity": 0.8740157480314961,
                    "duration": 2.1001039999999875
                },
                {
                    "name": "G#4",
                    "midi": 68,
                    "time": 97.12981000000127,
                    "velocity": 0.7322834645669292,
                    "duration": 0.5250259999999969
                },
                {
                    "name": "G#3",
                    "midi": 56,
                    "time": 97.12981000000127,
                    "velocity": 0.6535433070866141,
                    "duration": 0.5250259999999969
                },
                {
                    "name": "B3",
                    "midi": 59,
                    "time": 97.12981000000127,
                    "velocity": 0.6535433070866141,
                    "duration": 0.5250259999999969
                },
                {
                    "name": "D#4",
                    "midi": 63,
                    "time": 97.12981000000127,
                    "velocity": 0.6535433070866141,
                    "duration": 0.5250259999999969
                },
                {
                    "name": "G#5",
                    "midi": 80,
                    "time": 97.65483600000127,
                    "velocity": 0.7322834645669292,
                    "duration": 0.5250259999999969
                },
                {
                    "name": "D#5",
                    "midi": 75,
                    "time": 97.65483600000127,
                    "velocity": 0.6535433070866141,
                    "duration": 0.5250259999999969
                },
                {
                    "name": "G#4",
                    "midi": 68,
                    "time": 97.65483600000127,
                    "velocity": 0.6535433070866141,
                    "duration": 0.5250259999999969
                },
                {
                    "name": "B4",
                    "midi": 71,
                    "time": 97.65483600000127,
                    "velocity": 0.6535433070866141,
                    "duration": 0.5250259999999969
                },
                {
                    "name": "G#6",
                    "midi": 92,
                    "time": 98.17986200000126,
                    "velocity": 0.7165354330708661,
                    "duration": 0.5250259999999969
                },
                {
                    "name": "D#6",
                    "midi": 87,
                    "time": 98.17986200000126,
                    "velocity": 0.6377952755905512,
                    "duration": 0.5250259999999969
                },
                {
                    "name": "B5",
                    "midi": 83,
                    "time": 98.17986200000126,
                    "velocity": 0.6377952755905512,
                    "duration": 0.5250259999999969
                },
                {
                    "name": "G#5",
                    "midi": 80,
                    "time": 98.17986200000126,
                    "velocity": 0.6377952755905512,
                    "duration": 0.5250259999999969
                },
                {
                    "name": "E3",
                    "midi": 52,
                    "time": 98.70488800000126,
                    "velocity": 0.8740157480314961,
                    "duration": 2.1001039999999733
                },
                {
                    "name": "A3",
                    "midi": 57,
                    "time": 99.22991400000126,
                    "velocity": 0.6535433070866141,
                    "duration": 0.5250259999999969
                },
                {
                    "name": "A4",
                    "midi": 69,
                    "time": 99.22991400000126,
                    "velocity": 0.7322834645669292,
                    "duration": 0.5250259999999969
                },
                {
                    "name": "G3",
                    "midi": 55,
                    "time": 99.22991400000126,
                    "velocity": 0.6535433070866141,
                    "duration": 0.5250259999999969
                },
                {
                    "name": "C#4",
                    "midi": 61,
                    "time": 99.22991400000126,
                    "velocity": 0.6535433070866141,
                    "duration": 0.5250259999999969
                },
                {
                    "name": "G4",
                    "midi": 67,
                    "time": 99.22991400000126,
                    "velocity": 0.7322834645669292,
                    "duration": 0.5250259999999969
                },
                {
                    "name": "G4",
                    "midi": 67,
                    "time": 99.75494000000126,
                    "velocity": 0.6535433070866141,
                    "duration": 0.5250259999999969
                },
                {
                    "name": "A5",
                    "midi": 81,
                    "time": 99.75494000000126,
                    "velocity": 0.7322834645669292,
                    "duration": 0.5250259999999969
                },
                {
                    "name": "G5",
                    "midi": 79,
                    "time": 99.75494000000126,
                    "velocity": 0.7322834645669292,
                    "duration": 0.5250259999999969
                },
                {
                    "name": "A4",
                    "midi": 69,
                    "time": 99.75494000000126,
                    "velocity": 0.6535433070866141,
                    "duration": 0.5250259999999969
                },
                {
                    "name": "C#5",
                    "midi": 73,
                    "time": 99.75494000000126,
                    "velocity": 0.6535433070866141,
                    "duration": 0.5250259999999969
                },
                {
                    "name": "A5",
                    "midi": 81,
                    "time": 100.27996600000125,
                    "velocity": 0.6141732283464567,
                    "duration": 0.26251299999999844
                },
                {
                    "name": "A6",
                    "midi": 93,
                    "time": 100.27996600000125,
                    "velocity": 0.6771653543307087,
                    "duration": 0.26251299999999844
                },
                {
                    "name": "G6",
                    "midi": 91,
                    "time": 100.27996600000125,
                    "velocity": 0.6771653543307087,
                    "duration": 0.26251299999999844
                },
                {
                    "name": "C#6",
                    "midi": 85,
                    "time": 100.27996600000125,
                    "velocity": 0.6141732283464567,
                    "duration": 0.26251299999999844
                },
                {
                    "name": "G5",
                    "midi": 79,
                    "time": 100.27996600000125,
                    "velocity": 0.6141732283464567,
                    "duration": 0.26251299999999844
                },
                {
                    "name": "A5",
                    "midi": 81,
                    "time": 100.54247900000125,
                    "velocity": 0.6929133858267716,
                    "duration": 0.08750433333332808
                },
                {
                    "name": "B5",
                    "midi": 83,
                    "time": 100.62998333333458,
                    "velocity": 0.6929133858267716,
                    "duration": 0.08750433333332808
                },
                {
                    "name": "A5",
                    "midi": 81,
                    "time": 100.7174876666679,
                    "velocity": 0.6929133858267716,
                    "duration": 0.08750433333332808
                },
                {
                    "name": "F#5",
                    "midi": 78,
                    "time": 100.80499200000123,
                    "velocity": 0.7637795275590551,
                    "duration": 0.5250259999999969
                },
                {
                    "name": "A5",
                    "midi": 81,
                    "time": 101.06750500000123,
                    "velocity": 0.7637795275590551,
                    "duration": 0.26251299999999844
                },
                {
                    "name": "A5",
                    "midi": 81,
                    "time": 101.33001800000123,
                    "velocity": 0.7086614173228346,
                    "duration": 0.13125650000000633
                },
                {
                    "name": "D6",
                    "midi": 86,
                    "time": 101.33001800000123,
                    "velocity": 0.7952755905511811,
                    "duration": 0.13125650000000633
                },
                {
                    "name": "F#5",
                    "midi": 78,
                    "time": 101.33001800000123,
                    "velocity": 0.7086614173228346,
                    "duration": 0.13125650000000633
                },
                {
                    "name": "A5",
                    "midi": 81,
                    "time": 101.59253100000124,
                    "velocity": 0.6535433070866141,
                    "duration": 0.13125650000000633
                },
                {
                    "name": "F#6",
                    "midi": 90,
                    "time": 101.59253100000124,
                    "velocity": 0.7322834645669292,
                    "duration": 0.13125650000000633
                },
                {
                    "name": "F#5",
                    "midi": 78,
                    "time": 101.59253100000124,
                    "velocity": 0.6535433070866141,
                    "duration": 0.13125650000000633
                },
                {
                    "name": "A5",
                    "midi": 81,
                    "time": 101.85504400000126,
                    "velocity": 0.5905511811023622,
                    "duration": 0.5250259999999969
                },
                {
                    "name": "E6",
                    "midi": 88,
                    "time": 101.85504400000126,
                    "velocity": 0.8031496062992126,
                    "duration": 0.26251299999999844
                },
                {
                    "name": "F#5",
                    "midi": 78,
                    "time": 101.85504400000126,
                    "velocity": 0.5905511811023622,
                    "duration": 0.5250259999999969
                },
                {
                    "name": "D6",
                    "midi": 86,
                    "time": 102.11755700000126,
                    "velocity": 0.7322834645669292,
                    "duration": 0.26251299999999844
                },
                {
                    "name": "D5",
                    "midi": 74,
                    "time": 102.38007000000125,
                    "velocity": 0.7007874015748031,
                    "duration": 0.13125650000000633
                },
                {
                    "name": "F#5",
                    "midi": 78,
                    "time": 102.38007000000125,
                    "velocity": 0.7322834645669292,
                    "duration": 0.13125650000000633
                },
                {
                    "name": "D5",
                    "midi": 74,
                    "time": 102.64258300000127,
                    "velocity": 0.6377952755905512,
                    "duration": 0.13125650000000633
                },
                {
                    "name": "A5",
                    "midi": 81,
                    "time": 102.64258300000127,
                    "velocity": 0.7086614173228346,
                    "duration": 0.13125650000000633
                },
                {
                    "name": "F#5",
                    "midi": 78,
                    "time": 102.64258300000127,
                    "velocity": 0.6377952755905512,
                    "duration": 0.13125650000000633
                },
                {
                    "name": "D5",
                    "midi": 74,
                    "time": 102.90509600000128,
                    "velocity": 0.6692913385826772,
                    "duration": 0.26251299999999844
                },
                {
                    "name": "B5",
                    "midi": 83,
                    "time": 102.90509600000128,
                    "velocity": 0.7480314960629921,
                    "duration": 0.26251299999999844
                },
                {
                    "name": "A5",
                    "midi": 81,
                    "time": 102.90509600000128,
                    "velocity": 0.6692913385826772,
                    "duration": 0.26251299999999844
                },
                {
                    "name": "F#5",
                    "midi": 78,
                    "time": 102.90509600000128,
                    "velocity": 0.6692913385826772,
                    "duration": 0.26251299999999844
                },
                {
                    "name": "D5",
                    "midi": 74,
                    "time": 103.43012200000128,
                    "velocity": 0.6062992125984252,
                    "duration": 0.26251299999999844
                },
                {
                    "name": "B5",
                    "midi": 83,
                    "time": 103.43012200000128,
                    "velocity": 0.6771653543307087,
                    "duration": 0.26251299999999844
                },
                {
                    "name": "A5",
                    "midi": 81,
                    "time": 103.43012200000128,
                    "velocity": 0.6062992125984252,
                    "duration": 0.26251299999999844
                },
                {
                    "name": "F#5",
                    "midi": 78,
                    "time": 103.43012200000128,
                    "velocity": 0.6062992125984252,
                    "duration": 0.26251299999999844
                },
                {
                    "name": "D5",
                    "midi": 74,
                    "time": 103.82389150000128,
                    "velocity": 0.6062992125984252,
                    "duration": 0.13125650000000633
                },
                {
                    "name": "B5",
                    "midi": 83,
                    "time": 103.82389150000128,
                    "velocity": 0.6771653543307087,
                    "duration": 0.13125650000000633
                },
                {
                    "name": "A5",
                    "midi": 81,
                    "time": 103.82389150000128,
                    "velocity": 0.6062992125984252,
                    "duration": 0.13125650000000633
                },
                {
                    "name": "F#5",
                    "midi": 78,
                    "time": 103.82389150000128,
                    "velocity": 0.6062992125984252,
                    "duration": 0.13125650000000633
                },
                {
                    "name": "D5",
                    "midi": 74,
                    "time": 103.95514800000129,
                    "velocity": 0.6062992125984252,
                    "duration": 0.5250259999999969
                },
                {
                    "name": "B5",
                    "midi": 83,
                    "time": 103.95514800000129,
                    "velocity": 0.6771653543307087,
                    "duration": 0.5250259999999969
                },
                {
                    "name": "A5",
                    "midi": 81,
                    "time": 103.95514800000129,
                    "velocity": 0.6771653543307087,
                    "duration": 0.5250259999999969
                },
                {
                    "name": "F#5",
                    "midi": 78,
                    "time": 103.95514800000129,
                    "velocity": 0.6062992125984252,
                    "duration": 0.5250259999999969
                },
                {
                    "name": "D5",
                    "midi": 74,
                    "time": 104.48017400000128,
                    "velocity": 0.7086614173228346,
                    "duration": 0.13125650000000633
                },
                {
                    "name": "F#5",
                    "midi": 78,
                    "time": 104.48017400000128,
                    "velocity": 0.7086614173228346,
                    "duration": 0.13125650000000633
                },
                {
                    "name": "D5",
                    "midi": 74,
                    "time": 104.7426870000013,
                    "velocity": 0.7086614173228346,
                    "duration": 0.13125650000000633
                },
                {
                    "name": "G#5",
                    "midi": 80,
                    "time": 104.7426870000013,
                    "velocity": 0.7086614173228346,
                    "duration": 0.13125650000000633
                },
                {
                    "name": "F#5",
                    "midi": 78,
                    "time": 104.7426870000013,
                    "velocity": 0.7086614173228346,
                    "duration": 0.13125650000000633
                },
                {
                    "name": "D5",
                    "midi": 74,
                    "time": 105.00520000000131,
                    "velocity": 0.6850393700787402,
                    "duration": 0.5250259999999969
                },
                {
                    "name": "F#5",
                    "midi": 78,
                    "time": 105.00520000000131,
                    "velocity": 0.6850393700787402,
                    "duration": 0.5250259999999969
                },
                {
                    "name": "A5",
                    "midi": 81,
                    "time": 105.00520000000131,
                    "velocity": 0.7637795275590551,
                    "duration": 0.26251299999999844
                },
                {
                    "name": "B5",
                    "midi": 83,
                    "time": 105.26771300000131,
                    "velocity": 0.7007874015748031,
                    "duration": 0.26251299999999844
                },
                {
                    "name": "F#5",
                    "midi": 78,
                    "time": 105.5302260000013,
                    "velocity": 0.7322834645669292,
                    "duration": 0.13125650000000633
                },
                {
                    "name": "D5",
                    "midi": 74,
                    "time": 105.5302260000013,
                    "velocity": 0.7322834645669292,
                    "duration": 0.13125650000000633
                },
                {
                    "name": "G#5",
                    "midi": 80,
                    "time": 105.79273900000132,
                    "velocity": 0.7086614173228346,
                    "duration": 0.13125650000000633
                },
                {
                    "name": "F#5",
                    "midi": 78,
                    "time": 105.79273900000132,
                    "velocity": 0.7086614173228346,
                    "duration": 0.13125650000000633
                },
                {
                    "name": "D5",
                    "midi": 74,
                    "time": 105.79273900000132,
                    "velocity": 0.7086614173228346,
                    "duration": 0.13125650000000633
                },
                {
                    "name": "A5",
                    "midi": 81,
                    "time": 106.05525200000133,
                    "velocity": 0.7637795275590551,
                    "duration": 0.26251299999999844
                },
                {
                    "name": "D5",
                    "midi": 74,
                    "time": 106.05525200000133,
                    "velocity": 0.6850393700787402,
                    "duration": 0.5250259999999969
                },
                {
                    "name": "F#5",
                    "midi": 78,
                    "time": 106.05525200000133,
                    "velocity": 0.6850393700787402,
                    "duration": 0.5250259999999969
                },
                {
                    "name": "B5",
                    "midi": 83,
                    "time": 106.31776500000133,
                    "velocity": 0.7007874015748031,
                    "duration": 0.26251299999999844
                },
                {
                    "name": "D5",
                    "midi": 74,
                    "time": 106.58027800000133,
                    "velocity": 0.7322834645669292,
                    "duration": 0.13125650000000633
                },
                {
                    "name": "F#5",
                    "midi": 78,
                    "time": 106.58027800000133,
                    "velocity": 0.7322834645669292,
                    "duration": 0.13125650000000633
                },
                {
                    "name": "G#5",
                    "midi": 80,
                    "time": 106.84279100000134,
                    "velocity": 0.7322834645669292,
                    "duration": 0.13125650000000633
                },
                {
                    "name": "D5",
                    "midi": 74,
                    "time": 106.84279100000134,
                    "velocity": 0.7322834645669292,
                    "duration": 0.13125650000000633
                },
                {
                    "name": "F#5",
                    "midi": 78,
                    "time": 106.84279100000134,
                    "velocity": 0.7322834645669292,
                    "duration": 0.13125650000000633
                },
                {
                    "name": "A4",
                    "midi": 69,
                    "time": 107.10530400000135,
                    "velocity": 0.6850393700787402,
                    "duration": 0.26251299999999844
                },
                {
                    "name": "D5",
                    "midi": 74,
                    "time": 107.10530400000135,
                    "velocity": 0.6850393700787402,
                    "duration": 0.26251299999999844
                },
                {
                    "name": "E5",
                    "midi": 76,
                    "time": 107.10530400000135,
                    "velocity": 0.6850393700787402,
                    "duration": 0.26251299999999844
                },
                {
                    "name": "A5",
                    "midi": 81,
                    "time": 107.10530400000135,
                    "velocity": 0.7637795275590551,
                    "duration": 0.26251299999999844
                },
                {
                    "name": "E5",
                    "midi": 76,
                    "time": 107.63033000000135,
                    "velocity": 0.5905511811023622,
                    "duration": 0.26251299999999844
                },
                {
                    "name": "A4",
                    "midi": 69,
                    "time": 107.63033000000135,
                    "velocity": 0.5905511811023622,
                    "duration": 0.26251299999999844
                },
                {
                    "name": "C#5",
                    "midi": 73,
                    "time": 107.63033000000135,
                    "velocity": 0.5905511811023622,
                    "duration": 0.26251299999999844
                },
                {
                    "name": "A5",
                    "midi": 81,
                    "time": 107.63033000000135,
                    "velocity": 0.6614173228346457,
                    "duration": 0.26251299999999844
                },
                {
                    "name": "A4",
                    "midi": 69,
                    "time": 108.02409950000136,
                    "velocity": 0.5905511811023622,
                    "duration": 0.13125650000000633
                },
                {
                    "name": "E5",
                    "midi": 76,
                    "time": 108.02409950000136,
                    "velocity": 0.5905511811023622,
                    "duration": 0.13125650000000633
                },
                {
                    "name": "C#5",
                    "midi": 73,
                    "time": 108.02409950000136,
                    "velocity": 0.5905511811023622,
                    "duration": 0.13125650000000633
                },
                {
                    "name": "A5",
                    "midi": 81,
                    "time": 108.02409950000136,
                    "velocity": 0.6614173228346457,
                    "duration": 0.13125650000000633
                },
                {
                    "name": "A4",
                    "midi": 69,
                    "time": 108.15535600000136,
                    "velocity": 0.5905511811023622,
                    "duration": 0.5250259999999969
                },
                {
                    "name": "E5",
                    "midi": 76,
                    "time": 108.15535600000136,
                    "velocity": 0.5905511811023622,
                    "duration": 0.5250259999999969
                },
                {
                    "name": "C#5",
                    "midi": 73,
                    "time": 108.15535600000136,
                    "velocity": 0.5905511811023622,
                    "duration": 0.5250259999999969
                },
                {
                    "name": "A5",
                    "midi": 81,
                    "time": 108.15535600000136,
                    "velocity": 0.6614173228346457,
                    "duration": 0.5250259999999969
                },
                {
                    "name": "C#6",
                    "midi": 85,
                    "time": 108.94289500000136,
                    "velocity": 0.7007874015748031,
                    "duration": 0.08750433333332808
                },
                {
                    "name": "D6",
                    "midi": 86,
                    "time": 109.03039933333469,
                    "velocity": 0.7007874015748031,
                    "duration": 0.08750433333332808
                },
                {
                    "name": "C#6",
                    "midi": 85,
                    "time": 109.11790366666801,
                    "velocity": 0.7007874015748031,
                    "duration": 0.08750433333332808
                },
                {
                    "name": "B5",
                    "midi": 83,
                    "time": 109.20540800000134,
                    "velocity": 0.7559055118110236,
                    "duration": 0.5250259999999969
                },
                {
                    "name": "D6",
                    "midi": 86,
                    "time": 109.46792100000134,
                    "velocity": 0.7559055118110236,
                    "duration": 0.26251299999999844
                },
                {
                    "name": "D6",
                    "midi": 86,
                    "time": 109.73043400000134,
                    "velocity": 0.7007874015748031,
                    "duration": 0.13125650000000633
                },
                {
                    "name": "G6",
                    "midi": 91,
                    "time": 109.73043400000134,
                    "velocity": 0.7795275590551181,
                    "duration": 0.13125650000000633
                },
                {
                    "name": "B5",
                    "midi": 83,
                    "time": 109.73043400000134,
                    "velocity": 0.7007874015748031,
                    "duration": 0.13125650000000633
                },
                {
                    "name": "D6",
                    "midi": 86,
                    "time": 109.99294700000135,
                    "velocity": 0.6377952755905512,
                    "duration": 0.13125650000000633
                },
                {
                    "name": "B6",
                    "midi": 95,
                    "time": 109.99294700000135,
                    "velocity": 0.7165354330708661,
                    "duration": 0.13125650000000633
                },
                {
                    "name": "B5",
                    "midi": 83,
                    "time": 109.99294700000135,
                    "velocity": 0.6377952755905512,
                    "duration": 0.13125650000000633
                },
                {
                    "name": "A6",
                    "midi": 93,
                    "time": 110.25546000000136,
                    "velocity": 0.7637795275590551,
                    "duration": 0.26251299999999844
                },
                {
                    "name": "B5",
                    "midi": 83,
                    "time": 110.25546000000136,
                    "velocity": 0.5984251968503937,
                    "duration": 0.5250259999999969
                },
                {
                    "name": "G6",
                    "midi": 91,
                    "time": 110.51797300000136,
                    "velocity": 0.6771653543307087,
                    "duration": 0.26251299999999844
                },
                {
                    "name": "B5",
                    "midi": 83,
                    "time": 110.78048600000136,
                    "velocity": 0.6771653543307087,
                    "duration": 0.13125650000000633
                },
                {
                    "name": "G5",
                    "midi": 79,
                    "time": 110.78048600000136,
                    "velocity": 0.5984251968503937,
                    "duration": 0.13125650000000633
                },
                {
                    "name": "B5",
                    "midi": 83,
                    "time": 111.04299900000137,
                    "velocity": 0.5984251968503937,
                    "duration": 0.13125650000000633
                },
                {
                    "name": "D6",
                    "midi": 86,
                    "time": 111.04299900000137,
                    "velocity": 0.6771653543307087,
                    "duration": 0.13125650000000633
                },
                {
                    "name": "G5",
                    "midi": 79,
                    "time": 111.04299900000137,
                    "velocity": 0.5984251968503937,
                    "duration": 0.13125650000000633
                },
                {
                    "name": "F#6",
                    "midi": 90,
                    "time": 111.30551200000139,
                    "velocity": 0.7086614173228346,
                    "duration": 0.26251299999999844
                },
                {
                    "name": "D6",
                    "midi": 86,
                    "time": 111.30551200000139,
                    "velocity": 0.6299212598425197,
                    "duration": 0.26251299999999844
                },
                {
                    "name": "B5",
                    "midi": 83,
                    "time": 111.30551200000139,
                    "velocity": 0.6299212598425197,
                    "duration": 0.26251299999999844
                },
                {
                    "name": "G5",
                    "midi": 79,
                    "time": 111.30551200000139,
                    "velocity": 0.6299212598425197,
                    "duration": 0.26251299999999844
                },
                {
                    "name": "F#6",
                    "midi": 90,
                    "time": 111.83053800000138,
                    "velocity": 0.6299212598425197,
                    "duration": 0.26251299999999844
                },
                {
                    "name": "D6",
                    "midi": 86,
                    "time": 111.83053800000138,
                    "velocity": 0.5669291338582677,
                    "duration": 0.26251299999999844
                },
                {
                    "name": "B5",
                    "midi": 83,
                    "time": 111.83053800000138,
                    "velocity": 0.5669291338582677,
                    "duration": 0.26251299999999844
                },
                {
                    "name": "G5",
                    "midi": 79,
                    "time": 111.83053800000138,
                    "velocity": 0.5669291338582677,
                    "duration": 0.26251299999999844
                },
                {
                    "name": "F#6",
                    "midi": 90,
                    "time": 112.22430750000139,
                    "velocity": 0.6299212598425197,
                    "duration": 0.13125650000000633
                },
                {
                    "name": "D6",
                    "midi": 86,
                    "time": 112.22430750000139,
                    "velocity": 0.5669291338582677,
                    "duration": 0.13125650000000633
                },
                {
                    "name": "B5",
                    "midi": 83,
                    "time": 112.22430750000139,
                    "velocity": 0.5669291338582677,
                    "duration": 0.13125650000000633
                },
                {
                    "name": "G5",
                    "midi": 79,
                    "time": 112.22430750000139,
                    "velocity": 0.5669291338582677,
                    "duration": 0.13125650000000633
                },
                {
                    "name": "F#6",
                    "midi": 90,
                    "time": 112.3555640000014,
                    "velocity": 0.6299212598425197,
                    "duration": 0.5250259999999969
                },
                {
                    "name": "D6",
                    "midi": 86,
                    "time": 112.3555640000014,
                    "velocity": 0.5669291338582677,
                    "duration": 0.5250259999999969
                },
                {
                    "name": "B5",
                    "midi": 83,
                    "time": 112.3555640000014,
                    "velocity": 0.5669291338582677,
                    "duration": 0.5250259999999969
                },
                {
                    "name": "G5",
                    "midi": 79,
                    "time": 112.3555640000014,
                    "velocity": 0.5669291338582677,
                    "duration": 0.5250259999999969
                },
                {
                    "name": "B5",
                    "midi": 83,
                    "time": 112.88059000000139,
                    "velocity": 0.6771653543307087,
                    "duration": 0.13125650000000633
                },
                {
                    "name": "G5",
                    "midi": 79,
                    "time": 112.88059000000139,
                    "velocity": 0.6771653543307087,
                    "duration": 0.13125650000000633
                },
                {
                    "name": "C#6",
                    "midi": 85,
                    "time": 113.1431030000014,
                    "velocity": 0.6771653543307087,
                    "duration": 0.13125650000000633
                },
                {
                    "name": "B5",
                    "midi": 83,
                    "time": 113.1431030000014,
                    "velocity": 0.6771653543307087,
                    "duration": 0.13125650000000633
                },
                {
                    "name": "G5",
                    "midi": 79,
                    "time": 113.1431030000014,
                    "velocity": 0.6771653543307087,
                    "duration": 0.13125650000000633
                },
                {
                    "name": "D6",
                    "midi": 86,
                    "time": 113.40561600000142,
                    "velocity": 0.7559055118110236,
                    "duration": 0.26251299999999844
                },
                {
                    "name": "G5",
                    "midi": 79,
                    "time": 113.40561600000142,
                    "velocity": 0.6771653543307087,
                    "duration": 0.5250259999999969
                },
                {
                    "name": "B5",
                    "midi": 83,
                    "time": 113.40561600000142,
                    "velocity": 0.6771653543307087,
                    "duration": 0.5250259999999969
                },
                {
                    "name": "E6",
                    "midi": 88,
                    "time": 113.66812900000141,
                    "velocity": 0.6771653543307087,
                    "duration": 0.26251299999999844
                },
                {
                    "name": "B5",
                    "midi": 83,
                    "time": 113.93064200000141,
                    "velocity": 0.7165354330708661,
                    "duration": 0.13125650000000633
                },
                {
                    "name": "G5",
                    "midi": 79,
                    "time": 113.93064200000141,
                    "velocity": 0.7165354330708661,
                    "duration": 0.13125650000000633
                },
                {
                    "name": "C#6",
                    "midi": 85,
                    "time": 114.19315500000143,
                    "velocity": 0.7007874015748031,
                    "duration": 0.13125650000000633
                },
                {
                    "name": "B5",
                    "midi": 83,
                    "time": 114.19315500000143,
                    "velocity": 0.7007874015748031,
                    "duration": 0.13125650000000633
                },
                {
                    "name": "G5",
                    "midi": 79,
                    "time": 114.19315500000143,
                    "velocity": 0.7007874015748031,
                    "duration": 0.13125650000000633
                },
                {
                    "name": "D6",
                    "midi": 86,
                    "time": 114.45566800000144,
                    "velocity": 0.7559055118110236,
                    "duration": 0.26251299999999844
                },
                {
                    "name": "B5",
                    "midi": 83,
                    "time": 114.45566800000144,
                    "velocity": 0.6771653543307087,
                    "duration": 0.5250259999999969
                },
                {
                    "name": "G5",
                    "midi": 79,
                    "time": 114.45566800000144,
                    "velocity": 0.6771653543307087,
                    "duration": 0.5250259999999969
                },
                {
                    "name": "E6",
                    "midi": 88,
                    "time": 114.71818100000144,
                    "velocity": 0.7007874015748031,
                    "duration": 0.26251299999999844
                },
                {
                    "name": "B5",
                    "midi": 83,
                    "time": 114.98069400000144,
                    "velocity": 0.7165354330708661,
                    "duration": 0.13125650000000633
                },
                {
                    "name": "G5",
                    "midi": 79,
                    "time": 114.98069400000144,
                    "velocity": 0.7165354330708661,
                    "duration": 0.13125650000000633
                },
                {
                    "name": "C#6",
                    "midi": 85,
                    "time": 115.24320700000145,
                    "velocity": 0.7165354330708661,
                    "duration": 0.13125650000000633
                },
                {
                    "name": "B5",
                    "midi": 83,
                    "time": 115.24320700000145,
                    "velocity": 0.7165354330708661,
                    "duration": 0.13125650000000633
                },
                {
                    "name": "G5",
                    "midi": 79,
                    "time": 115.24320700000145,
                    "velocity": 0.7165354330708661,
                    "duration": 0.13125650000000633
                },
                {
                    "name": "D5",
                    "midi": 74,
                    "time": 115.50572000000146,
                    "velocity": 0.6614173228346457,
                    "duration": 0.26251299999999844
                },
                {
                    "name": "D6",
                    "midi": 86,
                    "time": 115.50572000000146,
                    "velocity": 0.7401574803149606,
                    "duration": 0.26251299999999844
                },
                {
                    "name": "A5",
                    "midi": 81,
                    "time": 115.50572000000146,
                    "velocity": 0.6614173228346457,
                    "duration": 0.26251299999999844
                },
                {
                    "name": "G5",
                    "midi": 79,
                    "time": 115.50572000000146,
                    "velocity": 0.6614173228346457,
                    "duration": 0.26251299999999844
                },
                {
                    "name": "A5",
                    "midi": 81,
                    "time": 116.03074600000146,
                    "velocity": 0.5748031496062992,
                    "duration": 0.26251299999999844
                },
                {
                    "name": "D5",
                    "midi": 74,
                    "time": 116.03074600000146,
                    "velocity": 0.5748031496062992,
                    "duration": 0.26251299999999844
                },
                {
                    "name": "D6",
                    "midi": 86,
                    "time": 116.03074600000146,
                    "velocity": 0.6377952755905512,
                    "duration": 0.26251299999999844
                },
                {
                    "name": "F#5",
                    "midi": 78,
                    "time": 116.03074600000146,
                    "velocity": 0.5748031496062992,
                    "duration": 0.26251299999999844
                },
                {
                    "name": "A5",
                    "midi": 81,
                    "time": 116.42451550000146,
                    "velocity": 0.5748031496062992,
                    "duration": 0.13125650000000633
                },
                {
                    "name": "D5",
                    "midi": 74,
                    "time": 116.42451550000146,
                    "velocity": 0.5748031496062992,
                    "duration": 0.13125650000000633
                },
                {
                    "name": "D6",
                    "midi": 86,
                    "time": 116.42451550000146,
                    "velocity": 0.6377952755905512,
                    "duration": 0.13125650000000633
                },
                {
                    "name": "F#5",
                    "midi": 78,
                    "time": 116.42451550000146,
                    "velocity": 0.5748031496062992,
                    "duration": 0.13125650000000633
                },
                {
                    "name": "A5",
                    "midi": 81,
                    "time": 116.55577200000147,
                    "velocity": 0.5748031496062992,
                    "duration": 0.26251299999999844
                },
                {
                    "name": "D5",
                    "midi": 74,
                    "time": 116.55577200000147,
                    "velocity": 0.5748031496062992,
                    "duration": 0.26251299999999844
                },
                {
                    "name": "D6",
                    "midi": 86,
                    "time": 116.55577200000147,
                    "velocity": 0.6377952755905512,
                    "duration": 0.26251299999999844
                },
                {
                    "name": "F#5",
                    "midi": 78,
                    "time": 116.55577200000147,
                    "velocity": 0.5748031496062992,
                    "duration": 0.26251299999999844
                },
                {
                    "name": "B4",
                    "midi": 71,
                    "time": 119.70592800000146,
                    "velocity": 0.3464566929133858,
                    "duration": 0.26251299999999844
                },
                {
                    "name": "B3",
                    "midi": 59,
                    "time": 119.70592800000146,
                    "velocity": 0.23622047244094488,
                    "duration": 1.0500519999999938
                },
                {
                    "name": "D4",
                    "midi": 62,
                    "time": 119.70592800000146,
                    "velocity": 0.23622047244094488,
                    "duration": 1.0500519999999938
                },
                {
                    "name": "A4",
                    "midi": 69,
                    "time": 119.96844100000146,
                    "velocity": 0.36220472440944884,
                    "duration": 0.5250259999999969
                },
                {
                    "name": "G4",
                    "midi": 67,
                    "time": 120.49346700000146,
                    "velocity": 0.33070866141732286,
                    "duration": 0.26251299999999844
                },
                {
                    "name": "B3",
                    "midi": 59,
                    "time": 120.75598000000146,
                    "velocity": 0.23622047244094488,
                    "duration": 1.0500519999999938
                },
                {
                    "name": "D4",
                    "midi": 62,
                    "time": 120.75598000000146,
                    "velocity": 0.23622047244094488,
                    "duration": 1.0500519999999938
                },
                {
                    "name": "F#4",
                    "midi": 66,
                    "time": 120.75598000000146,
                    "velocity": 0.3464566929133858,
                    "duration": 1.0500519999999938
                },
                {
                    "name": "A4",
                    "midi": 69,
                    "time": 121.80603200000145,
                    "velocity": 0.3464566929133858,
                    "duration": 0.26251299999999844
                },
                {
                    "name": "A3",
                    "midi": 57,
                    "time": 121.80603200000145,
                    "velocity": 0.23622047244094488,
                    "duration": 1.0500519999999938
                },
                {
                    "name": "C4",
                    "midi": 60,
                    "time": 121.80603200000145,
                    "velocity": 0.23622047244094488,
                    "duration": 1.0500519999999938
                },
                {
                    "name": "G4",
                    "midi": 67,
                    "time": 122.06854500000145,
                    "velocity": 0.36220472440944884,
                    "duration": 0.5250259999999969
                },
                {
                    "name": "F#4",
                    "midi": 66,
                    "time": 122.59357100000145,
                    "velocity": 0.31496062992125984,
                    "duration": 0.26251299999999844
                },
                {
                    "name": "A3",
                    "midi": 57,
                    "time": 122.85608400000145,
                    "velocity": 0.23622047244094488,
                    "duration": 1.0500519999999938
                },
                {
                    "name": "C4",
                    "midi": 60,
                    "time": 122.85608400000145,
                    "velocity": 0.23622047244094488,
                    "duration": 1.0500519999999938
                },
                {
                    "name": "E4",
                    "midi": 64,
                    "time": 122.85608400000145,
                    "velocity": 0.3464566929133858,
                    "duration": 1.0500519999999938
                },
                {
                    "name": "G4",
                    "midi": 67,
                    "time": 123.90613600000144,
                    "velocity": 0.3543307086614173,
                    "duration": 0.26251299999999844
                },
                {
                    "name": "G3",
                    "midi": 55,
                    "time": 123.90613600000144,
                    "velocity": 0.2440944881889764,
                    "duration": 1.0500519999999938
                },
                {
                    "name": "B3",
                    "midi": 59,
                    "time": 123.90613600000144,
                    "velocity": 0.2440944881889764,
                    "duration": 1.0500519999999938
                },
                {
                    "name": "F#4",
                    "midi": 66,
                    "time": 124.16864900000144,
                    "velocity": 0.36220472440944884,
                    "duration": 0.5250259999999969
                },
                {
                    "name": "E4",
                    "midi": 64,
                    "time": 124.69367500000143,
                    "velocity": 0.31496062992125984,
                    "duration": 0.26251299999999844
                },
                {
                    "name": "G3",
                    "midi": 55,
                    "time": 124.95618800000143,
                    "velocity": 0.2677165354330709,
                    "duration": 1.0500519999999938
                },
                {
                    "name": "D4",
                    "midi": 62,
                    "time": 124.95618800000143,
                    "velocity": 0.2440944881889764,
                    "duration": 1.0500519999999938
                },
                {
                    "name": "G4",
                    "midi": 67,
                    "time": 124.95618800000143,
                    "velocity": 0.36220472440944884,
                    "duration": 1.0500519999999938
                },
                {
                    "name": "F#4",
                    "midi": 66,
                    "time": 126.00624000000143,
                    "velocity": 0.3543307086614173,
                    "duration": 0.26251299999999844
                },
                {
                    "name": "G3",
                    "midi": 55,
                    "time": 126.00624000000143,
                    "velocity": 0.3464566929133858,
                    "duration": 1.0500519999999938
                },
                {
                    "name": "C#4",
                    "midi": 61,
                    "time": 126.00624000000143,
                    "velocity": 0.3464566929133858,
                    "duration": 1.0500519999999938
                },
                {
                    "name": "E4",
                    "midi": 64,
                    "time": 126.26875300000142,
                    "velocity": 0.36220472440944884,
                    "duration": 0.5250259999999969
                },
                {
                    "name": "F#4",
                    "midi": 66,
                    "time": 126.79377900000142,
                    "velocity": 0.33070866141732286,
                    "duration": 0.26251299999999844
                },
                {
                    "name": "F#3",
                    "midi": 54,
                    "time": 127.05629200000142,
                    "velocity": 0.3464566929133858,
                    "duration": 1.050052000000008
                },
                {
                    "name": "D4",
                    "midi": 62,
                    "time": 127.05629200000142,
                    "velocity": 0.3464566929133858,
                    "duration": 1.050052000000008
                },
                {
                    "name": "E4",
                    "midi": 64,
                    "time": 128.10634400000143,
                    "velocity": 0.31496062992125984,
                    "duration": 1.0500520000000222
                },
                {
                    "name": "B4",
                    "midi": 71,
                    "time": 128.10634400000143,
                    "velocity": 0.31496062992125984,
                    "duration": 1.0500520000000222
                },
                {
                    "name": "E5",
                    "midi": 76,
                    "time": 128.10634400000143,
                    "velocity": 0.4409448818897638,
                    "duration": 0.26251300000001265
                },
                {
                    "name": "D5",
                    "midi": 74,
                    "time": 128.36885700000144,
                    "velocity": 0.4330708661417323,
                    "duration": 0.5250259999999969
                },
                {
                    "name": "C5",
                    "midi": 72,
                    "time": 128.89388300000144,
                    "velocity": 0.3464566929133858,
                    "duration": 0.26251300000001265
                },
                {
                    "name": "E4",
                    "midi": 64,
                    "time": 129.15639600000145,
                    "velocity": 0.31496062992125984,
                    "duration": 1.0500519999999938
                },
                {
                    "name": "G4",
                    "midi": 67,
                    "time": 129.15639600000145,
                    "velocity": 0.31496062992125984,
                    "duration": 1.0500519999999938
                },
                {
                    "name": "B4",
                    "midi": 71,
                    "time": 129.15639600000145,
                    "velocity": 0.3543307086614173,
                    "duration": 1.0500519999999938
                },
                {
                    "name": "D4",
                    "midi": 62,
                    "time": 130.20644800000144,
                    "velocity": 0.28346456692913385,
                    "duration": 1.0500520000000222
                },
                {
                    "name": "A4",
                    "midi": 69,
                    "time": 130.20644800000144,
                    "velocity": 0.28346456692913385,
                    "duration": 1.0500520000000222
                },
                {
                    "name": "D5",
                    "midi": 74,
                    "time": 130.20644800000144,
                    "velocity": 0.4015748031496063,
                    "duration": 0.26251300000001265
                },
                {
                    "name": "C5",
                    "midi": 72,
                    "time": 130.46896100000146,
                    "velocity": 0.4330708661417323,
                    "duration": 0.5250259999999969
                },
                {
                    "name": "B4",
                    "midi": 71,
                    "time": 130.99398700000145,
                    "velocity": 0.3464566929133858,
                    "duration": 0.26251300000001265
                },
                {
                    "name": "D4",
                    "midi": 62,
                    "time": 131.25650000000147,
                    "velocity": 0.2992125984251969,
                    "duration": 1.0500519999999938
                },
                {
                    "name": "F#4",
                    "midi": 66,
                    "time": 131.25650000000147,
                    "velocity": 0.2992125984251969,
                    "duration": 1.0500519999999938
                },
                {
                    "name": "A4",
                    "midi": 69,
                    "time": 131.25650000000147,
                    "velocity": 0.3543307086614173,
                    "duration": 1.0500519999999938
                },
                {
                    "name": "C4",
                    "midi": 60,
                    "time": 132.30655200000146,
                    "velocity": 0.28346456692913385,
                    "duration": 1.0500520000000222
                },
                {
                    "name": "G4",
                    "midi": 67,
                    "time": 132.30655200000146,
                    "velocity": 0.28346456692913385,
                    "duration": 1.0500520000000222
                },
                {
                    "name": "C5",
                    "midi": 72,
                    "time": 132.30655200000146,
                    "velocity": 0.4094488188976378,
                    "duration": 0.26251300000001265
                },
                {
                    "name": "B4",
                    "midi": 71,
                    "time": 132.56906500000147,
                    "velocity": 0.4330708661417323,
                    "duration": 0.5250259999999969
                },
                {
                    "name": "A4",
                    "midi": 69,
                    "time": 133.09409100000147,
                    "velocity": 0.3700787401574803,
                    "duration": 0.26251300000001265
                },
                {
                    "name": "F#5",
                    "midi": 78,
                    "time": 133.35660400000148,
                    "velocity": 0.48031496062992124,
                    "duration": 0.6562825000000032
                },
                {
                    "name": "G4",
                    "midi": 67,
                    "time": 133.35660400000148,
                    "velocity": 0.2755905511811024,
                    "duration": 1.0500519999999938
                },
                {
                    "name": "C5",
                    "midi": 72,
                    "time": 133.35660400000148,
                    "velocity": 0.2755905511811024,
                    "duration": 1.0500519999999938
                },
                {
                    "name": "A5",
                    "midi": 81,
                    "time": 134.01288650000149,
                    "velocity": 0.4330708661417323,
                    "duration": 0.13125650000000633
                },
                {
                    "name": "G5",
                    "midi": 79,
                    "time": 134.1441430000015,
                    "velocity": 0.3464566929133858,
                    "duration": 0.08750433333332808
                },
                {
                    "name": "E5",
                    "midi": 76,
                    "time": 134.23164733333482,
                    "velocity": 0.3464566929133858,
                    "duration": 0.08750433333332808
                },
                {
                    "name": "C5",
                    "midi": 72,
                    "time": 134.31915166666815,
                    "velocity": 0.3464566929133858,
                    "duration": 0.08750433333332808
                },
                {
                    "name": "C4",
                    "midi": 60,
                    "time": 134.40665600000148,
                    "velocity": 0.29133858267716534,
                    "duration": 1.0500520000000222
                },
                {
                    "name": "F#4",
                    "midi": 66,
                    "time": 134.40665600000148,
                    "velocity": 0.29133858267716534,
                    "duration": 1.0500520000000222
                },
                {
                    "name": "B4",
                    "midi": 71,
                    "time": 134.40665600000148,
                    "velocity": 0.36220472440944884,
                    "duration": 0.26251300000001265
                },
                {
                    "name": "A4",
                    "midi": 69,
                    "time": 134.6691690000015,
                    "velocity": 0.3779527559055118,
                    "duration": 0.5250259999999969
                },
                {
                    "name": "B4",
                    "midi": 71,
                    "time": 135.19419500000149,
                    "velocity": 0.30708661417322836,
                    "duration": 0.26251300000001265
                },
                {
                    "name": "C4",
                    "midi": 60,
                    "time": 135.4567080000015,
                    "velocity": 0.31496062992125984,
                    "duration": 0.26251300000001265
                },
                {
                    "name": "G4",
                    "midi": 67,
                    "time": 135.4567080000015,
                    "velocity": 0.23622047244094488,
                    "duration": 1.0500520000000222
                },
                {
                    "name": "B3",
                    "midi": 59,
                    "time": 135.7192210000015,
                    "velocity": 0.29133858267716534,
                    "duration": 0.4593977499999937
                },
                {
                    "name": "B4",
                    "midi": 71,
                    "time": 136.3755035000015,
                    "velocity": 0.2125984251968504,
                    "duration": 1.1813085000000285
                },
                {
                    "name": "D#5",
                    "midi": 75,
                    "time": 136.44113175000152,
                    "velocity": 0.2125984251968504,
                    "duration": 1.1156802500000254
                },
                {
                    "name": "B5",
                    "midi": 83,
                    "time": 136.50676000000152,
                    "velocity": 0.33070866141732286,
                    "duration": 0.26251300000001265
                },
                {
                    "name": "A#5",
                    "midi": 82,
                    "time": 136.76927300000153,
                    "velocity": 0.3543307086614173,
                    "duration": 0.5250259999999969
                },
                {
                    "name": "G#5",
                    "midi": 80,
                    "time": 137.29429900000153,
                    "velocity": 0.31496062992125984,
                    "duration": 0.13125650000000633
                },
                {
                    "name": "B4",
                    "midi": 71,
                    "time": 137.42555550000154,
                    "velocity": 0.2125984251968504,
                    "duration": 1.1813085
                },
                {
                    "name": "D#5",
                    "midi": 75,
                    "time": 137.49118375000154,
                    "velocity": 0.2125984251968504,
                    "duration": 1.115680249999997
                },
                {
                    "name": "A#5",
                    "midi": 82,
                    "time": 137.55681200000154,
                    "velocity": 0.3464566929133858,
                    "duration": 0.9187954999999874
                },
                {
                    "name": "B4",
                    "midi": 71,
                    "time": 138.47560750000153,
                    "velocity": 0.2125984251968504,
                    "duration": 1.1813085000000285
                },
                {
                    "name": "D#5",
                    "midi": 75,
                    "time": 138.54123575000153,
                    "velocity": 0.2125984251968504,
                    "duration": 1.1156802500000254
                },
                {
                    "name": "A#5",
                    "midi": 82,
                    "time": 138.60686400000154,
                    "velocity": 0.33070866141732286,
                    "duration": 0.26251300000001265
                },
                {
                    "name": "G#5",
                    "midi": 80,
                    "time": 138.86937700000155,
                    "velocity": 0.3543307086614173,
                    "duration": 0.5250259999999969
                },
                {
                    "name": "F#5",
                    "midi": 78,
                    "time": 139.39440300000155,
                    "velocity": 0.31496062992125984,
                    "duration": 0.13125650000000633
                },
                {
                    "name": "B4",
                    "midi": 71,
                    "time": 139.52565950000155,
                    "velocity": 0.2125984251968504,
                    "duration": 1.1813085
                },
                {
                    "name": "D#5",
                    "midi": 75,
                    "time": 139.59128775000156,
                    "velocity": 0.2125984251968504,
                    "duration": 1.115680249999997
                },
                {
                    "name": "G#5",
                    "midi": 80,
                    "time": 139.65691600000156,
                    "velocity": 0.33070866141732286,
                    "duration": 1.0500519999999938
                },
                {
                    "name": "C5",
                    "midi": 72,
                    "time": 140.70696800000155,
                    "velocity": 0.2283464566929134,
                    "duration": 1.0500520000000222
                },
                {
                    "name": "G#5",
                    "midi": 80,
                    "time": 140.70696800000155,
                    "velocity": 0.33070866141732286,
                    "duration": 0.26251300000001265
                },
                {
                    "name": "G5",
                    "midi": 79,
                    "time": 140.96948100000157,
                    "velocity": 0.3700787401574803,
                    "duration": 0.5250259999999969
                },
                {
                    "name": "F#5",
                    "midi": 78,
                    "time": 141.49450700000156,
                    "velocity": 0.33070866141732286,
                    "duration": 0.26251300000001265
                },
                {
                    "name": "C#5",
                    "midi": 73,
                    "time": 141.75702000000157,
                    "velocity": 0.29133858267716534,
                    "duration": 0.26251300000001265
                },
                {
                    "name": "F5",
                    "midi": 77,
                    "time": 141.75702000000157,
                    "velocity": 0.3937007874015748,
                    "duration": 0.5250260000000253
                },
                {
                    "name": "C5",
                    "midi": 72,
                    "time": 142.0195330000016,
                    "velocity": 0.30708661417322836,
                    "duration": 0.5250260000000253
                },
                {
                    "name": "E5",
                    "midi": 76,
                    "time": 142.2820460000016,
                    "velocity": 0.3464566929133858,
                    "duration": 0.5250260000000253
                },
                {
                    "name": "B4",
                    "midi": 71,
                    "time": 142.5445590000016,
                    "velocity": 0.2755905511811024,
                    "duration": 0.26251300000001265
                },
                {
                    "name": "A#4",
                    "midi": 70,
                    "time": 142.80707200000163,
                    "velocity": 0.2440944881889764,
                    "duration": 1.0500520000000222
                },
                {
                    "name": "D#5",
                    "midi": 75,
                    "time": 142.80707200000163,
                    "velocity": 0.2992125984251969,
                    "duration": 0.26251300000001265
                },
                {
                    "name": "C#5",
                    "midi": 73,
                    "time": 143.06958500000164,
                    "velocity": 0.33070866141732286,
                    "duration": 0.5250259999999969
                },
                {
                    "name": "D#5",
                    "midi": 75,
                    "time": 143.59461100000163,
                    "velocity": 0.33070866141732286,
                    "duration": 0.26251300000001265
                },
                {
                    "name": "F#4",
                    "midi": 66,
                    "time": 143.85712400000165,
                    "velocity": 0.23622047244094488,
                    "duration": 0.7219107500000064
                },
                {
                    "name": "B4",
                    "midi": 71,
                    "time": 143.85712400000165,
                    "velocity": 0.23622047244094488,
                    "duration": 0.7219107500000064
                },
                {
                    "name": "G4",
                    "midi": 67,
                    "time": 144.77591950000166,
                    "velocity": 0.18110236220472442,
                    "duration": 1.1813085000000285
                },
                {
                    "name": "B4",
                    "midi": 71,
                    "time": 144.84154775000167,
                    "velocity": 0.18110236220472442,
                    "duration": 1.1156802500000254
                },
                {
                    "name": "G5",
                    "midi": 79,
                    "time": 144.90717600000167,
                    "velocity": 0.29133858267716534,
                    "duration": 0.26251300000001265
                },
                {
                    "name": "F#5",
                    "midi": 78,
                    "time": 145.16968900000168,
                    "velocity": 0.30708661417322836,
                    "duration": 0.5250259999999969
                },
                {
                    "name": "E5",
                    "midi": 76,
                    "time": 145.69471500000168,
                    "velocity": 0.28346456692913385,
                    "duration": 0.13125650000000633
                },
                {
                    "name": "G4",
                    "midi": 67,
                    "time": 145.82597150000169,
                    "velocity": 0.18110236220472442,
                    "duration": 1.1813085
                },
                {
                    "name": "B4",
                    "midi": 71,
                    "time": 145.8915997500017,
                    "velocity": 0.18110236220472442,
                    "duration": 1.115680249999997
                },
                {
                    "name": "F#5",
                    "midi": 78,
                    "time": 145.9572280000017,
                    "velocity": 0.2992125984251969,
                    "duration": 0.9187954999999874
                },
                {
                    "name": "G4",
                    "midi": 67,
                    "time": 146.87602350000168,
                    "velocity": 0.18110236220472442,
                    "duration": 1.1813085000000285
                },
                {
                    "name": "B4",
                    "midi": 71,
                    "time": 146.94165175000168,
                    "velocity": 0.18110236220472442,
                    "duration": 1.1156802500000254
                },
                {
                    "name": "F#5",
                    "midi": 78,
                    "time": 147.00728000000169,
                    "velocity": 0.29133858267716534,
                    "duration": 0.26251300000001265
                },
                {
                    "name": "E5",
                    "midi": 76,
                    "time": 147.2697930000017,
                    "velocity": 0.30708661417322836,
                    "duration": 0.5250259999999969
                },
                {
                    "name": "D5",
                    "midi": 74,
                    "time": 147.7948190000017,
                    "velocity": 0.28346456692913385,
                    "duration": 0.13125650000000633
                },
                {
                    "name": "G4",
                    "midi": 67,
                    "time": 147.9260755000017,
                    "velocity": 0.18110236220472442,
                    "duration": 1.1813085
                },
                {
                    "name": "B4",
                    "midi": 71,
                    "time": 147.9917037500017,
                    "velocity": 0.18110236220472442,
                    "duration": 1.115680249999997
                },
                {
                    "name": "E5",
                    "midi": 76,
                    "time": 148.0573320000017,
                    "velocity": 0.2992125984251969,
                    "duration": 1.0500519999999938
                },
                {
                    "name": "G#4",
                    "midi": 68,
                    "time": 149.1073840000017,
                    "velocity": 0.2125984251968504,
                    "duration": 1.0500520000000222
                },
                {
                    "name": "E5",
                    "midi": 76,
                    "time": 149.1073840000017,
                    "velocity": 0.30708661417322836,
                    "duration": 0.26251300000001265
                },
                {
                    "name": "D#5",
                    "midi": 75,
                    "time": 149.3698970000017,
                    "velocity": 0.3543307086614173,
                    "duration": 0.5250259999999969
                },
                {
                    "name": "D5",
                    "midi": 74,
                    "time": 149.8949230000017,
                    "velocity": 0.30708661417322836,
                    "duration": 0.26251300000001265
                },
                {
                    "name": "A4",
                    "midi": 69,
                    "time": 150.15743600000172,
                    "velocity": 0.2755905511811024,
                    "duration": 0.26251300000001265
                },
                {
                    "name": "C#5",
                    "midi": 73,
                    "time": 150.15743600000172,
                    "velocity": 0.3700787401574803,
                    "duration": 0.5250260000000253
                },
                {
                    "name": "G#4",
                    "midi": 68,
                    "time": 150.41994900000174,
                    "velocity": 0.29133858267716534,
                    "duration": 0.5250260000000253
                },
                {
                    "name": "C5",
                    "midi": 72,
                    "time": 150.68246200000175,
                    "velocity": 0.31496062992125984,
                    "duration": 0.5250260000000253
                },
                {
                    "name": "G4",
                    "midi": 67,
                    "time": 150.94497500000176,
                    "velocity": 0.2440944881889764,
                    "duration": 0.26251300000001265
                },
                {
                    "name": "F#4",
                    "midi": 66,
                    "time": 151.20748800000177,
                    "velocity": 0.2283464566929134,
                    "duration": 1.0500520000000222
                },
                {
                    "name": "B4",
                    "midi": 71,
                    "time": 151.20748800000177,
                    "velocity": 0.28346456692913385,
                    "duration": 0.26251300000001265
                },
                {
                    "name": "A4",
                    "midi": 69,
                    "time": 151.4700010000018,
                    "velocity": 0.30708661417322836,
                    "duration": 0.5250259999999969
                },
                {
                    "name": "F#4",
                    "midi": 66,
                    "time": 151.99502700000178,
                    "velocity": 0.30708661417322836,
                    "duration": 0.26251300000001265
                },
                {
                    "name": "D4",
                    "midi": 62,
                    "time": 152.2575400000018,
                    "velocity": 0.2204724409448819,
                    "duration": 1.0500519999999938
                },
                {
                    "name": "B4",
                    "midi": 71,
                    "time": 153.3075920000018,
                    "velocity": 0.2755905511811024,
                    "duration": 0.26251300000001265
                },
                {
                    "name": "B3",
                    "midi": 59,
                    "time": 153.3075920000018,
                    "velocity": 0.2047244094488189,
                    "duration": 1.0500520000000222
                },
                {
                    "name": "D4",
                    "midi": 62,
                    "time": 153.3075920000018,
                    "velocity": 0.2047244094488189,
                    "duration": 1.0500520000000222
                },
                {
                    "name": "A4",
                    "midi": 69,
                    "time": 153.5701050000018,
                    "velocity": 0.28346456692913385,
                    "duration": 0.5250259999999969
                },
                {
                    "name": "G4",
                    "midi": 67,
                    "time": 154.0951310000018,
                    "velocity": 0.2677165354330709,
                    "duration": 0.26251300000001265
                },
                {
                    "name": "B3",
                    "midi": 59,
                    "time": 154.3576440000018,
                    "velocity": 0.2047244094488189,
                    "duration": 1.0500519999999938
                },
                {
                    "name": "D4",
                    "midi": 62,
                    "time": 154.3576440000018,
                    "velocity": 0.2047244094488189,
                    "duration": 1.0500519999999938
                },
                {
                    "name": "F#4",
                    "midi": 66,
                    "time": 154.3576440000018,
                    "velocity": 0.28346456692913385,
                    "duration": 1.0500519999999938
                },
                {
                    "name": "A4",
                    "midi": 69,
                    "time": 155.4076960000018,
                    "velocity": 0.28346456692913385,
                    "duration": 0.26251300000001265
                },
                {
                    "name": "A3",
                    "midi": 57,
                    "time": 155.4076960000018,
                    "velocity": 0.2047244094488189,
                    "duration": 1.0500520000000222
                },
                {
                    "name": "C4",
                    "midi": 60,
                    "time": 155.4076960000018,
                    "velocity": 0.2047244094488189,
                    "duration": 1.0500520000000222
                },
                {
                    "name": "G4",
                    "midi": 67,
                    "time": 155.67020900000182,
                    "velocity": 0.2992125984251969,
                    "duration": 0.5250259999999969
                },
                {
                    "name": "F#4",
                    "midi": 66,
                    "time": 156.19523500000182,
                    "velocity": 0.2755905511811024,
                    "duration": 0.26251300000001265
                },
                {
                    "name": "A3",
                    "midi": 57,
                    "time": 156.45774800000183,
                    "velocity": 0.2047244094488189,
                    "duration": 1.0500519999999938
                },
                {
                    "name": "C4",
                    "midi": 60,
                    "time": 156.45774800000183,
                    "velocity": 0.2047244094488189,
                    "duration": 1.0500519999999938
                },
                {
                    "name": "E4",
                    "midi": 64,
                    "time": 156.45774800000183,
                    "velocity": 0.28346456692913385,
                    "duration": 1.0500519999999938
                },
                {
                    "name": "G4",
                    "midi": 67,
                    "time": 157.50780000000182,
                    "velocity": 0.29133858267716534,
                    "duration": 0.26251300000001265
                },
                {
                    "name": "G3",
                    "midi": 55,
                    "time": 157.50780000000182,
                    "velocity": 0.2125984251968504,
                    "duration": 1.0500520000000222
                },
                {
                    "name": "B3",
                    "midi": 59,
                    "time": 157.50780000000182,
                    "velocity": 0.2125984251968504,
                    "duration": 1.0500520000000222
                },
                {
                    "name": "F#4",
                    "midi": 66,
                    "time": 157.77031300000183,
                    "velocity": 0.2992125984251969,
                    "duration": 0.5250259999999969
                },
                {
                    "name": "E4",
                    "midi": 64,
                    "time": 158.29533900000183,
                    "velocity": 0.2755905511811024,
                    "duration": 0.26251300000001265
                },
                {
                    "name": "G3",
                    "midi": 55,
                    "time": 158.55785200000184,
                    "velocity": 0.2125984251968504,
                    "duration": 1.0500519999999938
                },
                {
                    "name": "D4",
                    "midi": 62,
                    "time": 158.55785200000184,
                    "velocity": 0.2125984251968504,
                    "duration": 1.0500519999999938
                },
                {
                    "name": "G4",
                    "midi": 67,
                    "time": 158.55785200000184,
                    "velocity": 0.2125984251968504,
                    "duration": 1.0500519999999938
                },
                {
                    "name": "F#4",
                    "midi": 66,
                    "time": 159.60790400000184,
                    "velocity": 0.29133858267716534,
                    "duration": 0.26251300000001265
                },
                {
                    "name": "G3",
                    "midi": 55,
                    "time": 159.60790400000184,
                    "velocity": 0.28346456692913385,
                    "duration": 1.0500520000000222
                },
                {
                    "name": "C#4",
                    "midi": 61,
                    "time": 159.60790400000184,
                    "velocity": 0.28346456692913385,
                    "duration": 1.0500520000000222
                },
                {
                    "name": "E4",
                    "midi": 64,
                    "time": 159.87041700000185,
                    "velocity": 0.2992125984251969,
                    "duration": 0.5250259999999969
                },
                {
                    "name": "F#4",
                    "midi": 66,
                    "time": 160.39544300000185,
                    "velocity": 0.2755905511811024,
                    "duration": 0.26251300000001265
                },
                {
                    "name": "F#3",
                    "midi": 54,
                    "time": 160.65795600000186,
                    "velocity": 0.28346456692913385,
                    "duration": 1.0500519999999938
                },
                {
                    "name": "D4",
                    "midi": 62,
                    "time": 160.65795600000186,
                    "velocity": 0.28346456692913385,
                    "duration": 1.0500519999999938
                },
                {
                    "name": "E4",
                    "midi": 64,
                    "time": 161.70800800000185,
                    "velocity": 0.2755905511811024,
                    "duration": 1.0500520000000222
                },
                {
                    "name": "B4",
                    "midi": 71,
                    "time": 161.70800800000185,
                    "velocity": 0.2755905511811024,
                    "duration": 1.0500520000000222
                },
                {
                    "name": "E5",
                    "midi": 76,
                    "time": 161.70800800000185,
                    "velocity": 0.3700787401574803,
                    "duration": 0.26251300000001265
                },
                {
                    "name": "D5",
                    "midi": 74,
                    "time": 161.97052100000187,
                    "velocity": 0.36220472440944884,
                    "duration": 0.5250259999999969
                },
                {
                    "name": "C5",
                    "midi": 72,
                    "time": 162.49554700000186,
                    "velocity": 0.28346456692913385,
                    "duration": 0.26251300000001265
                },
                {
                    "name": "E4",
                    "midi": 64,
                    "time": 162.75806000000188,
                    "velocity": 0.2755905511811024,
                    "duration": 1.0500519999999938
                },
                {
                    "name": "G4",
                    "midi": 67,
                    "time": 162.75806000000188,
                    "velocity": 0.2755905511811024,
                    "duration": 1.0500519999999938
                },
                {
                    "name": "B4",
                    "midi": 71,
                    "time": 162.75806000000188,
                    "velocity": 0.2992125984251969,
                    "duration": 1.0500519999999938
                },
                {
                    "name": "D4",
                    "midi": 62,
                    "time": 163.80811200000187,
                    "velocity": 0.2283464566929134,
                    "duration": 1.0500520000000222
                },
                {
                    "name": "A4",
                    "midi": 69,
                    "time": 163.80811200000187,
                    "velocity": 0.2283464566929134,
                    "duration": 1.0500520000000222
                },
                {
                    "name": "D5",
                    "midi": 74,
                    "time": 163.80811200000187,
                    "velocity": 0.33070866141732286,
                    "duration": 0.26251300000001265
                },
                {
                    "name": "C5",
                    "midi": 72,
                    "time": 164.07062500000188,
                    "velocity": 0.36220472440944884,
                    "duration": 0.5250259999999969
                },
                {
                    "name": "B4",
                    "midi": 71,
                    "time": 164.59565100000188,
                    "velocity": 0.28346456692913385,
                    "duration": 0.26251300000001265
                },
                {
                    "name": "D4",
                    "midi": 62,
                    "time": 164.8581640000019,
                    "velocity": 0.2440944881889764,
                    "duration": 1.0500519999999938
                },
                {
                    "name": "F#4",
                    "midi": 66,
                    "time": 164.8581640000019,
                    "velocity": 0.2440944881889764,
                    "duration": 1.0500519999999938
                },
                {
                    "name": "A4",
                    "midi": 69,
                    "time": 164.8581640000019,
                    "velocity": 0.2992125984251969,
                    "duration": 1.0500519999999938
                },
                {
                    "name": "C4",
                    "midi": 60,
                    "time": 165.9082160000019,
                    "velocity": 0.2283464566929134,
                    "duration": 1.0500520000000222
                },
                {
                    "name": "G4",
                    "midi": 67,
                    "time": 165.9082160000019,
                    "velocity": 0.2283464566929134,
                    "duration": 1.0500520000000222
                },
                {
                    "name": "C5",
                    "midi": 72,
                    "time": 165.9082160000019,
                    "velocity": 0.3464566929133858,
                    "duration": 0.26251300000001265
                },
                {
                    "name": "B4",
                    "midi": 71,
                    "time": 166.1707290000019,
                    "velocity": 0.36220472440944884,
                    "duration": 0.5250259999999969
                },
                {
                    "name": "A4",
                    "midi": 69,
                    "time": 166.6957550000019,
                    "velocity": 0.30708661417322836,
                    "duration": 0.26251300000001265
                },
                {
                    "name": "F#5",
                    "midi": 78,
                    "time": 166.9582680000019,
                    "velocity": 0.4015748031496063,
                    "duration": 0.6562825000000032
                },
                {
                    "name": "G4",
                    "midi": 67,
                    "time": 166.9582680000019,
                    "velocity": 0.2204724409448819,
                    "duration": 1.0500519999999938
                },
                {
                    "name": "C5",
                    "midi": 72,
                    "time": 166.9582680000019,
                    "velocity": 0.2204724409448819,
                    "duration": 1.0500519999999938
                },
                {
                    "name": "A5",
                    "midi": 81,
                    "time": 167.6145505000019,
                    "velocity": 0.36220472440944884,
                    "duration": 0.13125650000000633
                },
                {
                    "name": "G5",
                    "midi": 79,
                    "time": 167.74580700000192,
                    "velocity": 0.28346456692913385,
                    "duration": 0.08750433333332808
                },
                {
                    "name": "E5",
                    "midi": 76,
                    "time": 167.83331133333525,
                    "velocity": 0.28346456692913385,
                    "duration": 0.08750433333332808
                },
                {
                    "name": "C5",
                    "midi": 72,
                    "time": 167.92081566666857,
                    "velocity": 0.28346456692913385,
                    "duration": 0.08750433333332808
                },
                {
                    "name": "C4",
                    "midi": 60,
                    "time": 168.0083200000019,
                    "velocity": 0.23622047244094488,
                    "duration": 1.0500520000000222
                },
                {
                    "name": "F#4",
                    "midi": 66,
                    "time": 168.0083200000019,
                    "velocity": 0.23622047244094488,
                    "duration": 1.0500520000000222
                },
                {
                    "name": "B4",
                    "midi": 71,
                    "time": 168.0083200000019,
                    "velocity": 0.2992125984251969,
                    "duration": 0.26251300000001265
                },
                {
                    "name": "A4",
                    "midi": 69,
                    "time": 168.27083300000191,
                    "velocity": 0.31496062992125984,
                    "duration": 0.5250259999999969
                },
                {
                    "name": "B4",
                    "midi": 71,
                    "time": 168.7958590000019,
                    "velocity": 0.2677165354330709,
                    "duration": 0.26251300000001265
                },
                {
                    "name": "C4",
                    "midi": 60,
                    "time": 169.05837200000192,
                    "velocity": 0.2755905511811024,
                    "duration": 0.26251300000001265
                },
                {
                    "name": "G4",
                    "midi": 67,
                    "time": 169.05837200000192,
                    "velocity": 0.2047244094488189,
                    "duration": 1.0500520000000222
                },
                {
                    "name": "B3",
                    "midi": 59,
                    "time": 169.32088500000194,
                    "velocity": 0.23622047244094488,
                    "duration": 0.5250259999999969
                },
                {
                    "name": "B4",
                    "midi": 71,
                    "time": 169.97716750000194,
                    "velocity": 0.2125984251968504,
                    "duration": 1.1813085000000285
                },
                {
                    "name": "D#5",
                    "midi": 75,
                    "time": 170.04279575000194,
                    "velocity": 0.2125984251968504,
                    "duration": 1.1156802500000254
                },
                {
                    "name": "B5",
                    "midi": 83,
                    "time": 170.10842400000195,
                    "velocity": 0.33070866141732286,
                    "duration": 0.26251300000001265
                },
                {
                    "name": "A#5",
                    "midi": 82,
                    "time": 170.37093700000196,
                    "velocity": 0.3543307086614173,
                    "duration": 0.5250259999999969
                },
                {
                    "name": "G#5",
                    "midi": 80,
                    "time": 170.89596300000196,
                    "velocity": 0.31496062992125984,
                    "duration": 0.13125650000000633
                },
                {
                    "name": "B4",
                    "midi": 71,
                    "time": 171.02721950000196,
                    "velocity": 0.2125984251968504,
                    "duration": 1.1813085
                },
                {
                    "name": "D#5",
                    "midi": 75,
                    "time": 171.09284775000197,
                    "velocity": 0.2125984251968504,
                    "duration": 1.115680249999997
                },
                {
                    "name": "A#5",
                    "midi": 82,
                    "time": 171.15847600000197,
                    "velocity": 0.33070866141732286,
                    "duration": 0.9187954999999874
                },
                {
                    "name": "B4",
                    "midi": 71,
                    "time": 172.07727150000196,
                    "velocity": 0.2125984251968504,
                    "duration": 1.1813085000000285
                },
                {
                    "name": "D#5",
                    "midi": 75,
                    "time": 172.14289975000196,
                    "velocity": 0.2125984251968504,
                    "duration": 1.1156802500000254
                },
                {
                    "name": "A#5",
                    "midi": 82,
                    "time": 172.20852800000196,
                    "velocity": 0.33070866141732286,
                    "duration": 0.26251300000001265
                },
                {
                    "name": "G#5",
                    "midi": 80,
                    "time": 172.47104100000197,
                    "velocity": 0.3543307086614173,
                    "duration": 0.5250259999999969
                },
                {
                    "name": "F#5",
                    "midi": 78,
                    "time": 172.99606700000197,
                    "velocity": 0.31496062992125984,
                    "duration": 0.13125650000000633
                },
                {
                    "name": "B4",
                    "midi": 71,
                    "time": 173.12732350000198,
                    "velocity": 0.2125984251968504,
                    "duration": 1.1813085
                },
                {
                    "name": "D#5",
                    "midi": 75,
                    "time": 173.19295175000198,
                    "velocity": 0.2125984251968504,
                    "duration": 1.115680249999997
                },
                {
                    "name": "G#5",
                    "midi": 80,
                    "time": 173.25858000000198,
                    "velocity": 0.33070866141732286,
                    "duration": 1.0500519999999938
                },
                {
                    "name": "C5",
                    "midi": 72,
                    "time": 174.30863200000198,
                    "velocity": 0.2283464566929134,
                    "duration": 1.0500520000000222
                },
                {
                    "name": "G#5",
                    "midi": 80,
                    "time": 174.30863200000198,
                    "velocity": 0.33070866141732286,
                    "duration": 0.26251300000001265
                },
                {
                    "name": "G5",
                    "midi": 79,
                    "time": 174.571145000002,
                    "velocity": 0.3700787401574803,
                    "duration": 0.5250259999999969
                },
                {
                    "name": "F#5",
                    "midi": 78,
                    "time": 175.096171000002,
                    "velocity": 0.33070866141732286,
                    "duration": 0.26251300000001265
                },
                {
                    "name": "C#5",
                    "midi": 73,
                    "time": 175.358684000002,
                    "velocity": 0.29133858267716534,
                    "duration": 0.26251300000001265
                },
                {
                    "name": "F5",
                    "midi": 77,
                    "time": 175.358684000002,
                    "velocity": 0.3937007874015748,
                    "duration": 0.5250260000000253
                },
                {
                    "name": "C5",
                    "midi": 72,
                    "time": 175.621197000002,
                    "velocity": 0.30708661417322836,
                    "duration": 0.5250260000000253
                },
                {
                    "name": "E5",
                    "midi": 76,
                    "time": 175.88371000000203,
                    "velocity": 0.3464566929133858,
                    "duration": 0.5250260000000253
                },
                {
                    "name": "B4",
                    "midi": 71,
                    "time": 176.14622300000204,
                    "velocity": 0.2755905511811024,
                    "duration": 0.26251300000001265
                },
                {
                    "name": "A#4",
                    "midi": 70,
                    "time": 176.40873600000205,
                    "velocity": 0.2440944881889764,
                    "duration": 1.0500520000000222
                },
                {
                    "name": "D#5",
                    "midi": 75,
                    "time": 176.40873600000205,
                    "velocity": 0.2992125984251969,
                    "duration": 0.26251300000001265
                },
                {
                    "name": "C#5",
                    "midi": 73,
                    "time": 176.67124900000206,
                    "velocity": 0.33070866141732286,
                    "duration": 0.5250259999999969
                },
                {
                    "name": "D#5",
                    "midi": 75,
                    "time": 177.19627500000206,
                    "velocity": 0.33070866141732286,
                    "duration": 0.26251300000001265
                },
                {
                    "name": "F#4",
                    "midi": 66,
                    "time": 177.45878800000207,
                    "velocity": 0.23622047244094488,
                    "duration": 0.7219107500000064
                },
                {
                    "name": "B4",
                    "midi": 71,
                    "time": 177.45878800000207,
                    "velocity": 0.23622047244094488,
                    "duration": 0.7219107500000064
                },
                {
                    "name": "G4",
                    "midi": 67,
                    "time": 178.3775835000021,
                    "velocity": 0.18110236220472442,
                    "duration": 1.1813085000000285
                },
                {
                    "name": "B4",
                    "midi": 71,
                    "time": 178.4432117500021,
                    "velocity": 0.18110236220472442,
                    "duration": 1.1156802500000254
                },
                {
                    "name": "G5",
                    "midi": 79,
                    "time": 178.5088400000021,
                    "velocity": 0.29133858267716534,
                    "duration": 0.26251300000001265
                },
                {
                    "name": "F#5",
                    "midi": 78,
                    "time": 178.7713530000021,
                    "velocity": 0.30708661417322836,
                    "duration": 0.5250259999999969
                },
                {
                    "name": "E5",
                    "midi": 76,
                    "time": 179.2963790000021,
                    "velocity": 0.28346456692913385,
                    "duration": 0.13125650000000633
                },
                {
                    "name": "G4",
                    "midi": 67,
                    "time": 179.4276355000021,
                    "velocity": 0.18110236220472442,
                    "duration": 1.1813085
                },
                {
                    "name": "B4",
                    "midi": 71,
                    "time": 179.49326375000211,
                    "velocity": 0.18110236220472442,
                    "duration": 1.115680249999997
                },
                {
                    "name": "F#5",
                    "midi": 78,
                    "time": 179.55889200000212,
                    "velocity": 0.2992125984251969,
                    "duration": 0.9187954999999874
                },
                {
                    "name": "G4",
                    "midi": 67,
                    "time": 180.4776875000021,
                    "velocity": 0.18110236220472442,
                    "duration": 1.1813085000000285
                },
                {
                    "name": "B4",
                    "midi": 71,
                    "time": 180.5433157500021,
                    "velocity": 0.18110236220472442,
                    "duration": 1.1156802500000254
                },
                {
                    "name": "F#5",
                    "midi": 78,
                    "time": 180.6089440000021,
                    "velocity": 0.29133858267716534,
                    "duration": 0.26251300000001265
                },
                {
                    "name": "E5",
                    "midi": 76,
                    "time": 180.87145700000212,
                    "velocity": 0.30708661417322836,
                    "duration": 0.5250259999999969
                },
                {
                    "name": "D5",
                    "midi": 74,
                    "time": 181.39648300000212,
                    "velocity": 0.28346456692913385,
                    "duration": 0.13125650000000633
                },
                {
                    "name": "G4",
                    "midi": 67,
                    "time": 181.52773950000213,
                    "velocity": 0.18110236220472442,
                    "duration": 1.1813085
                },
                {
                    "name": "B4",
                    "midi": 71,
                    "time": 181.59336775000213,
                    "velocity": 0.18110236220472442,
                    "duration": 1.115680249999997
                },
                {
                    "name": "E5",
                    "midi": 76,
                    "time": 181.65899600000213,
                    "velocity": 0.2992125984251969,
                    "duration": 1.0500519999999938
                },
                {
                    "name": "G#4",
                    "midi": 68,
                    "time": 182.70904800000213,
                    "velocity": 0.2125984251968504,
                    "duration": 1.0500520000000222
                },
                {
                    "name": "E5",
                    "midi": 76,
                    "time": 182.70904800000213,
                    "velocity": 0.30708661417322836,
                    "duration": 0.26251300000001265
                },
                {
                    "name": "D#5",
                    "midi": 75,
                    "time": 182.97156100000214,
                    "velocity": 0.3543307086614173,
                    "duration": 0.5250259999999969
                },
                {
                    "name": "D5",
                    "midi": 74,
                    "time": 183.49658700000214,
                    "velocity": 0.30708661417322836,
                    "duration": 0.26251300000001265
                },
                {
                    "name": "A4",
                    "midi": 69,
                    "time": 183.75910000000215,
                    "velocity": 0.2755905511811024,
                    "duration": 0.26251300000001265
                },
                {
                    "name": "C#5",
                    "midi": 73,
                    "time": 183.75910000000215,
                    "velocity": 0.3700787401574803,
                    "duration": 0.5250260000000253
                },
                {
                    "name": "G#4",
                    "midi": 68,
                    "time": 184.02161300000216,
                    "velocity": 0.29133858267716534,
                    "duration": 0.5250260000000253
                },
                {
                    "name": "C5",
                    "midi": 72,
                    "time": 184.28412600000217,
                    "velocity": 0.31496062992125984,
                    "duration": 0.5250260000000253
                },
                {
                    "name": "G4",
                    "midi": 67,
                    "time": 184.5466390000022,
                    "velocity": 0.2440944881889764,
                    "duration": 0.26251300000001265
                },
                {
                    "name": "F#4",
                    "midi": 66,
                    "time": 184.8091520000022,
                    "velocity": 0.2283464566929134,
                    "duration": 1.0500520000000222
                },
                {
                    "name": "B4",
                    "midi": 71,
                    "time": 184.8091520000022,
                    "velocity": 0.28346456692913385,
                    "duration": 0.26251300000001265
                },
                {
                    "name": "A4",
                    "midi": 69,
                    "time": 185.0716650000022,
                    "velocity": 0.30708661417322836,
                    "duration": 0.5250259999999969
                },
                {
                    "name": "F#4",
                    "midi": 66,
                    "time": 185.5966910000022,
                    "velocity": 0.30708661417322836,
                    "duration": 0.26251300000001265
                },
                {
                    "name": "D4",
                    "midi": 62,
                    "time": 185.85920400000222,
                    "velocity": 0.2204724409448819,
                    "duration": 1.0500519999999938
                },
                {
                    "name": "B4",
                    "midi": 71,
                    "time": 186.90925600000222,
                    "velocity": 0.2755905511811024,
                    "duration": 0.26251300000001265
                },
                {
                    "name": "B3",
                    "midi": 59,
                    "time": 186.90925600000222,
                    "velocity": 0.2047244094488189,
                    "duration": 1.0500520000000222
                },
                {
                    "name": "D4",
                    "midi": 62,
                    "time": 186.90925600000222,
                    "velocity": 0.2047244094488189,
                    "duration": 1.0500520000000222
                },
                {
                    "name": "A4",
                    "midi": 69,
                    "time": 187.17176900000223,
                    "velocity": 0.28346456692913385,
                    "duration": 0.5250259999999969
                },
                {
                    "name": "G4",
                    "midi": 67,
                    "time": 187.69679500000223,
                    "velocity": 0.2677165354330709,
                    "duration": 0.26251300000001265
                },
                {
                    "name": "B3",
                    "midi": 59,
                    "time": 187.95930800000224,
                    "velocity": 0.2047244094488189,
                    "duration": 1.0500519999999938
                },
                {
                    "name": "D4",
                    "midi": 62,
                    "time": 187.95930800000224,
                    "velocity": 0.2047244094488189,
                    "duration": 1.0500519999999938
                },
                {
                    "name": "F#4",
                    "midi": 66,
                    "time": 187.95930800000224,
                    "velocity": 0.28346456692913385,
                    "duration": 1.0500519999999938
                },
                {
                    "name": "A4",
                    "midi": 69,
                    "time": 189.00936000000223,
                    "velocity": 0.28346456692913385,
                    "duration": 0.26251300000001265
                },
                {
                    "name": "A3",
                    "midi": 57,
                    "time": 189.00936000000223,
                    "velocity": 0.2047244094488189,
                    "duration": 1.0500520000000222
                },
                {
                    "name": "C4",
                    "midi": 60,
                    "time": 189.00936000000223,
                    "velocity": 0.2047244094488189,
                    "duration": 1.0500520000000222
                },
                {
                    "name": "G4",
                    "midi": 67,
                    "time": 189.27187300000224,
                    "velocity": 0.2992125984251969,
                    "duration": 0.5250259999999969
                },
                {
                    "name": "F#4",
                    "midi": 66,
                    "time": 189.79689900000224,
                    "velocity": 0.2755905511811024,
                    "duration": 0.26251300000001265
                },
                {
                    "name": "A3",
                    "midi": 57,
                    "time": 190.05941200000225,
                    "velocity": 0.2047244094488189,
                    "duration": 1.0500519999999938
                },
                {
                    "name": "C4",
                    "midi": 60,
                    "time": 190.05941200000225,
                    "velocity": 0.2047244094488189,
                    "duration": 1.0500519999999938
                },
                {
                    "name": "E4",
                    "midi": 64,
                    "time": 190.05941200000225,
                    "velocity": 0.29133858267716534,
                    "duration": 1.0500519999999938
                },
                {
                    "name": "G4",
                    "midi": 67,
                    "time": 191.10946400000225,
                    "velocity": 0.29133858267716534,
                    "duration": 0.26251300000001265
                },
                {
                    "name": "G3",
                    "midi": 55,
                    "time": 191.10946400000225,
                    "velocity": 0.2125984251968504,
                    "duration": 1.0500520000000222
                },
                {
                    "name": "B3",
                    "midi": 59,
                    "time": 191.10946400000225,
                    "velocity": 0.2125984251968504,
                    "duration": 1.0500520000000222
                },
                {
                    "name": "F#4",
                    "midi": 66,
                    "time": 191.37197700000226,
                    "velocity": 0.2992125984251969,
                    "duration": 0.5250259999999969
                },
                {
                    "name": "E4",
                    "midi": 64,
                    "time": 191.89700300000226,
                    "velocity": 0.2755905511811024,
                    "duration": 0.26251300000001265
                },
                {
                    "name": "G3",
                    "midi": 55,
                    "time": 192.15951600000227,
                    "velocity": 0.2125984251968504,
                    "duration": 1.0500519999999938
                },
                {
                    "name": "D4",
                    "midi": 62,
                    "time": 192.15951600000227,
                    "velocity": 0.2125984251968504,
                    "duration": 1.0500519999999938
                },
                {
                    "name": "G4",
                    "midi": 67,
                    "time": 192.15951600000227,
                    "velocity": 0.2125984251968504,
                    "duration": 1.0500519999999938
                },
                {
                    "name": "F#4",
                    "midi": 66,
                    "time": 193.20956800000226,
                    "velocity": 0.29133858267716534,
                    "duration": 0.26251300000001265
                },
                {
                    "name": "G3",
                    "midi": 55,
                    "time": 193.20956800000226,
                    "velocity": 0.28346456692913385,
                    "duration": 1.0500520000000222
                },
                {
                    "name": "C#4",
                    "midi": 61,
                    "time": 193.20956800000226,
                    "velocity": 0.28346456692913385,
                    "duration": 1.0500520000000222
                },
                {
                    "name": "E4",
                    "midi": 64,
                    "time": 193.47208100000228,
                    "velocity": 0.2992125984251969,
                    "duration": 0.5250259999999969
                },
                {
                    "name": "F#4",
                    "midi": 66,
                    "time": 193.99710700000227,
                    "velocity": 0.2755905511811024,
                    "duration": 0.26251300000001265
                },
                {
                    "name": "F#3",
                    "midi": 54,
                    "time": 194.2596200000023,
                    "velocity": 0.28346456692913385,
                    "duration": 1.0500519999999938
                },
                {
                    "name": "D4",
                    "midi": 62,
                    "time": 194.2596200000023,
                    "velocity": 0.28346456692913385,
                    "duration": 1.0500519999999938
                },
                {
                    "name": "E4",
                    "midi": 64,
                    "time": 195.30967200000228,
                    "velocity": 0.2755905511811024,
                    "duration": 1.0500520000000222
                },
                {
                    "name": "B4",
                    "midi": 71,
                    "time": 195.30967200000228,
                    "velocity": 0.2755905511811024,
                    "duration": 1.0500520000000222
                },
                {
                    "name": "E5",
                    "midi": 76,
                    "time": 195.30967200000228,
                    "velocity": 0.3700787401574803,
                    "duration": 0.26251300000001265
                },
                {
                    "name": "D5",
                    "midi": 74,
                    "time": 195.5721850000023,
                    "velocity": 0.36220472440944884,
                    "duration": 0.5250259999999969
                },
                {
                    "name": "C5",
                    "midi": 72,
                    "time": 196.0972110000023,
                    "velocity": 0.28346456692913385,
                    "duration": 0.26251300000001265
                },
                {
                    "name": "E4",
                    "midi": 64,
                    "time": 196.3597240000023,
                    "velocity": 0.2755905511811024,
                    "duration": 1.0500519999999938
                },
                {
                    "name": "G4",
                    "midi": 67,
                    "time": 196.3597240000023,
                    "velocity": 0.2755905511811024,
                    "duration": 1.0500519999999938
                },
                {
                    "name": "B4",
                    "midi": 71,
                    "time": 196.3597240000023,
                    "velocity": 0.2992125984251969,
                    "duration": 1.0500519999999938
                },
                {
                    "name": "D4",
                    "midi": 62,
                    "time": 197.4097760000023,
                    "velocity": 0.2283464566929134,
                    "duration": 1.0500520000000222
                },
                {
                    "name": "A4",
                    "midi": 69,
                    "time": 197.4097760000023,
                    "velocity": 0.2283464566929134,
                    "duration": 1.0500520000000222
                },
                {
                    "name": "D5",
                    "midi": 74,
                    "time": 197.4097760000023,
                    "velocity": 0.33070866141732286,
                    "duration": 0.26251300000001265
                },
                {
                    "name": "C5",
                    "midi": 72,
                    "time": 197.6722890000023,
                    "velocity": 0.36220472440944884,
                    "duration": 0.5250259999999969
                },
                {
                    "name": "B4",
                    "midi": 71,
                    "time": 198.1973150000023,
                    "velocity": 0.28346456692913385,
                    "duration": 0.26251300000001265
                },
                {
                    "name": "D4",
                    "midi": 62,
                    "time": 198.45982800000232,
                    "velocity": 0.2440944881889764,
                    "duration": 1.0500519999999938
                },
                {
                    "name": "F#4",
                    "midi": 66,
                    "time": 198.45982800000232,
                    "velocity": 0.2440944881889764,
                    "duration": 1.0500519999999938
                },
                {
                    "name": "A4",
                    "midi": 69,
                    "time": 198.45982800000232,
                    "velocity": 0.2992125984251969,
                    "duration": 1.0500519999999938
                },
                {
                    "name": "C4",
                    "midi": 60,
                    "time": 199.5098800000023,
                    "velocity": 0.2283464566929134,
                    "duration": 1.0500520000000222
                },
                {
                    "name": "G4",
                    "midi": 67,
                    "time": 199.5098800000023,
                    "velocity": 0.2283464566929134,
                    "duration": 1.0500520000000222
                },
                {
                    "name": "C5",
                    "midi": 72,
                    "time": 199.5098800000023,
                    "velocity": 0.3464566929133858,
                    "duration": 0.26251300000001265
                },
                {
                    "name": "B4",
                    "midi": 71,
                    "time": 199.77239300000232,
                    "velocity": 0.36220472440944884,
                    "duration": 0.5250259999999969
                },
                {
                    "name": "A4",
                    "midi": 69,
                    "time": 200.29741900000232,
                    "velocity": 0.30708661417322836,
                    "duration": 0.26251300000001265
                },
                {
                    "name": "F#5",
                    "midi": 78,
                    "time": 200.55993200000233,
                    "velocity": 0.4015748031496063,
                    "duration": 0.6562825000000032
                },
                {
                    "name": "G4",
                    "midi": 67,
                    "time": 200.55993200000233,
                    "velocity": 0.2204724409448819,
                    "duration": 1.0500519999999938
                },
                {
                    "name": "C5",
                    "midi": 72,
                    "time": 200.55993200000233,
                    "velocity": 0.2204724409448819,
                    "duration": 1.0500519999999938
                },
                {
                    "name": "A5",
                    "midi": 81,
                    "time": 201.21621450000234,
                    "velocity": 0.36220472440944884,
                    "duration": 0.13125650000000633
                },
                {
                    "name": "G5",
                    "midi": 79,
                    "time": 201.34747100000234,
                    "velocity": 0.28346456692913385,
                    "duration": 0.08750433333332808
                },
                {
                    "name": "E5",
                    "midi": 76,
                    "time": 201.43497533333567,
                    "velocity": 0.28346456692913385,
                    "duration": 0.08750433333332808
                },
                {
                    "name": "C5",
                    "midi": 72,
                    "time": 201.522479666669,
                    "velocity": 0.28346456692913385,
                    "duration": 0.08750433333332808
                },
                {
                    "name": "C4",
                    "midi": 60,
                    "time": 201.60998400000233,
                    "velocity": 0.23622047244094488,
                    "duration": 1.0500520000000222
                },
                {
                    "name": "F#4",
                    "midi": 66,
                    "time": 201.60998400000233,
                    "velocity": 0.23622047244094488,
                    "duration": 1.0500520000000222
                },
                {
                    "name": "B4",
                    "midi": 71,
                    "time": 201.60998400000233,
                    "velocity": 0.2992125984251969,
                    "duration": 0.26251300000001265
                },
                {
                    "name": "A4",
                    "midi": 69,
                    "time": 201.87249700000234,
                    "velocity": 0.31496062992125984,
                    "duration": 0.5250259999999969
                },
                {
                    "name": "B4",
                    "midi": 71,
                    "time": 202.39752300000234,
                    "velocity": 0.2677165354330709,
                    "duration": 0.26251300000001265
                },
                {
                    "name": "C4",
                    "midi": 60,
                    "time": 202.66003600000235,
                    "velocity": 0.2755905511811024,
                    "duration": 0.26251300000001265
                },
                {
                    "name": "G4",
                    "midi": 67,
                    "time": 202.66003600000235,
                    "velocity": 0.2047244094488189,
                    "duration": 1.0500520000000222
                },
                {
                    "name": "B3",
                    "midi": 59,
                    "time": 202.92254900000236,
                    "velocity": 0.23622047244094488,
                    "duration": 0.5250259999999969
                },
                {
                    "name": "D3",
                    "midi": 50,
                    "time": 204.23511400000237,
                    "velocity": 0.2440944881889764,
                    "duration": 0.26251300000001265
                },
                {
                    "name": "A3",
                    "midi": 57,
                    "time": 204.23511400000237,
                    "velocity": 0.2440944881889764,
                    "duration": 0.26251300000001265
                },
                {
                    "name": "D3",
                    "midi": 50,
                    "time": 204.49762700000238,
                    "velocity": 0.2440944881889764,
                    "duration": 0.26251300000001265
                },
                {
                    "name": "A3",
                    "midi": 57,
                    "time": 204.49762700000238,
                    "velocity": 0.2440944881889764,
                    "duration": 0.26251300000001265
                },
                {
                    "name": "D3",
                    "midi": 50,
                    "time": 204.7601400000024,
                    "velocity": 0.28346456692913385,
                    "duration": 0.26251300000001265
                },
                {
                    "name": "A3",
                    "midi": 57,
                    "time": 204.7601400000024,
                    "velocity": 0.28346456692913385,
                    "duration": 0.26251300000001265
                },
                {
                    "name": "D3",
                    "midi": 50,
                    "time": 206.3352180000024,
                    "velocity": 0.2440944881889764,
                    "duration": 0.26251300000001265
                },
                {
                    "name": "A3",
                    "midi": 57,
                    "time": 206.3352180000024,
                    "velocity": 0.2440944881889764,
                    "duration": 0.26251300000001265
                },
                {
                    "name": "D3",
                    "midi": 50,
                    "time": 206.59773100000243,
                    "velocity": 0.2440944881889764,
                    "duration": 0.26251300000001265
                },
                {
                    "name": "A3",
                    "midi": 57,
                    "time": 206.59773100000243,
                    "velocity": 0.2440944881889764,
                    "duration": 0.26251300000001265
                },
                {
                    "name": "D3",
                    "midi": 50,
                    "time": 206.86024400000244,
                    "velocity": 0.2755905511811024,
                    "duration": 0.26251300000001265
                },
                {
                    "name": "A3",
                    "midi": 57,
                    "time": 206.86024400000244,
                    "velocity": 0.2755905511811024,
                    "duration": 0.26251300000001265
                },
                {
                    "name": "A4",
                    "midi": 69,
                    "time": 207.64778300000245,
                    "velocity": 0.30708661417322836,
                    "duration": 0.08750433333332808
                },
                {
                    "name": "B4",
                    "midi": 71,
                    "time": 207.73528733333578,
                    "velocity": 0.30708661417322836,
                    "duration": 0.08750433333332808
                },
                {
                    "name": "A4",
                    "midi": 69,
                    "time": 207.8227916666691,
                    "velocity": 0.3228346456692913,
                    "duration": 0.08750433333332808
                },
                {
                    "name": "F#4",
                    "midi": 66,
                    "time": 207.91029600000243,
                    "velocity": 0.3464566929133858,
                    "duration": 0.5250260000000253
                },
                {
                    "name": "A4",
                    "midi": 69,
                    "time": 208.17280900000245,
                    "velocity": 0.3464566929133858,
                    "duration": 0.26251300000001265
                },
                {
                    "name": "D5",
                    "midi": 74,
                    "time": 208.43532200000246,
                    "velocity": 0.3543307086614173,
                    "duration": 0.06562825000000316
                },
                {
                    "name": "F#4",
                    "midi": 66,
                    "time": 208.43532200000246,
                    "velocity": 0.33070866141732286,
                    "duration": 0.06562825000000316
                },
                {
                    "name": "F#5",
                    "midi": 78,
                    "time": 208.69783500000247,
                    "velocity": 0.33070866141732286,
                    "duration": 0.06562825000000316
                },
                {
                    "name": "F#4",
                    "midi": 66,
                    "time": 208.69783500000247,
                    "velocity": 0.3543307086614173,
                    "duration": 0.06562825000000316
                },
                {
                    "name": "E5",
                    "midi": 76,
                    "time": 208.96034800000248,
                    "velocity": 0.3543307086614173,
                    "duration": 0.26251300000001265
                },
                {
                    "name": "F#4",
                    "midi": 66,
                    "time": 208.96034800000248,
                    "velocity": 0.29133858267716534,
                    "duration": 0.5250260000000253
                },
                {
                    "name": "D5",
                    "midi": 74,
                    "time": 209.2228610000025,
                    "velocity": 0.33070866141732286,
                    "duration": 0.26251300000001265
                },
                {
                    "name": "F#4",
                    "midi": 66,
                    "time": 209.4853740000025,
                    "velocity": 0.33070866141732286,
                    "duration": 0.06562825000000316
                },
                {
                    "name": "A4",
                    "midi": 69,
                    "time": 209.74788700000252,
                    "velocity": 0.3228346456692913,
                    "duration": 0.06562825000000316
                },
                {
                    "name": "F#4",
                    "midi": 66,
                    "time": 209.74788700000252,
                    "velocity": 0.3228346456692913,
                    "duration": 0.06562825000000316
                },
                {
                    "name": "B4",
                    "midi": 71,
                    "time": 210.01040000000253,
                    "velocity": 0.3543307086614173,
                    "duration": 0.26251300000001265
                },
                {
                    "name": "A4",
                    "midi": 69,
                    "time": 210.01040000000253,
                    "velocity": 0.3543307086614173,
                    "duration": 0.26251300000001265
                },
                {
                    "name": "F#4",
                    "midi": 66,
                    "time": 210.01040000000253,
                    "velocity": 0.3543307086614173,
                    "duration": 0.26251300000001265
                },
                {
                    "name": "B4",
                    "midi": 71,
                    "time": 210.53542600000256,
                    "velocity": 0.3228346456692913,
                    "duration": 0.26251300000001265
                },
                {
                    "name": "A4",
                    "midi": 69,
                    "time": 210.53542600000256,
                    "velocity": 0.3228346456692913,
                    "duration": 0.26251300000001265
                },
                {
                    "name": "F#4",
                    "midi": 66,
                    "time": 210.53542600000256,
                    "velocity": 0.3228346456692913,
                    "duration": 0.26251300000001265
                },
                {
                    "name": "B4",
                    "midi": 71,
                    "time": 210.92919550000258,
                    "velocity": 0.3228346456692913,
                    "duration": 0.13125650000000633
                },
                {
                    "name": "A4",
                    "midi": 69,
                    "time": 210.92919550000258,
                    "velocity": 0.3228346456692913,
                    "duration": 0.13125650000000633
                },
                {
                    "name": "F#4",
                    "midi": 66,
                    "time": 210.92919550000258,
                    "velocity": 0.3228346456692913,
                    "duration": 0.13125650000000633
                },
                {
                    "name": "B4",
                    "midi": 71,
                    "time": 211.06045200000258,
                    "velocity": 0.3228346456692913,
                    "duration": 0.5250259999999969
                },
                {
                    "name": "A4",
                    "midi": 69,
                    "time": 211.06045200000258,
                    "velocity": 0.3228346456692913,
                    "duration": 0.5250259999999969
                },
                {
                    "name": "F#4",
                    "midi": 66,
                    "time": 211.06045200000258,
                    "velocity": 0.3228346456692913,
                    "duration": 0.5250259999999969
                },
                {
                    "name": "D4",
                    "midi": 62,
                    "time": 211.58547800000258,
                    "velocity": 0.33070866141732286,
                    "duration": 0.06562825000000316
                },
                {
                    "name": "F#4",
                    "midi": 66,
                    "time": 211.58547800000258,
                    "velocity": 0.33070866141732286,
                    "duration": 0.06562825000000316
                },
                {
                    "name": "D4",
                    "midi": 62,
                    "time": 211.8479910000026,
                    "velocity": 0.33070866141732286,
                    "duration": 0.06562825000000316
                },
                {
                    "name": "G#4",
                    "midi": 68,
                    "time": 211.8479910000026,
                    "velocity": 0.33070866141732286,
                    "duration": 0.06562825000000316
                },
                {
                    "name": "F#4",
                    "midi": 66,
                    "time": 211.8479910000026,
                    "velocity": 0.33070866141732286,
                    "duration": 0.06562825000000316
                },
                {
                    "name": "D4",
                    "midi": 62,
                    "time": 212.1105040000026,
                    "velocity": 0.3543307086614173,
                    "duration": 0.5250260000000253
                },
                {
                    "name": "F#4",
                    "midi": 66,
                    "time": 212.1105040000026,
                    "velocity": 0.3543307086614173,
                    "duration": 0.5250260000000253
                },
                {
                    "name": "A4",
                    "midi": 69,
                    "time": 212.1105040000026,
                    "velocity": 0.3543307086614173,
                    "duration": 0.26251300000001265
                },
                {
                    "name": "B4",
                    "midi": 71,
                    "time": 212.37301700000262,
                    "velocity": 0.33070866141732286,
                    "duration": 0.26251300000001265
                },
                {
                    "name": "F#4",
                    "midi": 66,
                    "time": 212.63553000000263,
                    "velocity": 0.3464566929133858,
                    "duration": 0.06562825000000316
                },
                {
                    "name": "D4",
                    "midi": 62,
                    "time": 212.63553000000263,
                    "velocity": 0.3464566929133858,
                    "duration": 0.06562825000000316
                },
                {
                    "name": "G#4",
                    "midi": 68,
                    "time": 212.89804300000264,
                    "velocity": 0.3464566929133858,
                    "duration": 0.06562825000000316
                },
                {
                    "name": "F#4",
                    "midi": 66,
                    "time": 212.89804300000264,
                    "velocity": 0.3464566929133858,
                    "duration": 0.06562825000000316
                },
                {
                    "name": "D4",
                    "midi": 62,
                    "time": 212.89804300000264,
                    "velocity": 0.3464566929133858,
                    "duration": 0.06562825000000316
                },
                {
                    "name": "A4",
                    "midi": 69,
                    "time": 213.16055600000266,
                    "velocity": 0.3543307086614173,
                    "duration": 0.26251300000001265
                },
                {
                    "name": "D4",
                    "midi": 62,
                    "time": 213.16055600000266,
                    "velocity": 0.3543307086614173,
                    "duration": 0.5250260000000253
                },
                {
                    "name": "F#4",
                    "midi": 66,
                    "time": 213.16055600000266,
                    "velocity": 0.3543307086614173,
                    "duration": 0.5250260000000253
                },
                {
                    "name": "B4",
                    "midi": 71,
                    "time": 213.42306900000267,
                    "velocity": 0.33070866141732286,
                    "duration": 0.26251300000001265
                },
                {
                    "name": "D4",
                    "midi": 62,
                    "time": 213.68558200000268,
                    "velocity": 0.3464566929133858,
                    "duration": 0.06562825000000316
                },
                {
                    "name": "F#4",
                    "midi": 66,
                    "time": 213.68558200000268,
                    "velocity": 0.3464566929133858,
                    "duration": 0.06562825000000316
                },
                {
                    "name": "G#4",
                    "midi": 68,
                    "time": 213.9480950000027,
                    "velocity": 0.3464566929133858,
                    "duration": 0.06562825000000316
                },
                {
                    "name": "D4",
                    "midi": 62,
                    "time": 213.9480950000027,
                    "velocity": 0.3464566929133858,
                    "duration": 0.06562825000000316
                },
                {
                    "name": "F#4",
                    "midi": 66,
                    "time": 213.9480950000027,
                    "velocity": 0.3464566929133858,
                    "duration": 0.06562825000000316
                },
                {
                    "name": "D4",
                    "midi": 62,
                    "time": 214.2106080000027,
                    "velocity": 0.3700787401574803,
                    "duration": 0.26251300000001265
                },
                {
                    "name": "E4",
                    "midi": 64,
                    "time": 214.2106080000027,
                    "velocity": 0.3700787401574803,
                    "duration": 0.26251300000001265
                },
                {
                    "name": "A4",
                    "midi": 69,
                    "time": 214.2106080000027,
                    "velocity": 0.3700787401574803,
                    "duration": 0.26251300000001265
                },
                {
                    "name": "C#4",
                    "midi": 61,
                    "time": 214.73563400000273,
                    "velocity": 0.33070866141732286,
                    "duration": 0.26251300000001265
                },
                {
                    "name": "A4",
                    "midi": 69,
                    "time": 214.73563400000273,
                    "velocity": 0.33070866141732286,
                    "duration": 0.26251300000001265
                },
                {
                    "name": "C#4",
                    "midi": 61,
                    "time": 215.12940350000275,
                    "velocity": 0.33070866141732286,
                    "duration": 0.13125650000000633
                },
                {
                    "name": "A4",
                    "midi": 69,
                    "time": 215.12940350000275,
                    "velocity": 0.33070866141732286,
                    "duration": 0.13125650000000633
                },
                {
                    "name": "C#4",
                    "midi": 61,
                    "time": 215.26066000000276,
                    "velocity": 0.33070866141732286,
                    "duration": 0.26251300000001265
                },
                {
                    "name": "A4",
                    "midi": 69,
                    "time": 215.26066000000276,
                    "velocity": 0.33070866141732286,
                    "duration": 0.26251300000001265
                },
                {
                    "name": "C#5",
                    "midi": 73,
                    "time": 216.04819900000277,
                    "velocity": 0.3464566929133858,
                    "duration": 0.08750433333332808
                },
                {
                    "name": "D5",
                    "midi": 74,
                    "time": 216.1357033333361,
                    "velocity": 0.3464566929133858,
                    "duration": 0.08750433333332808
                },
                {
                    "name": "C#5",
                    "midi": 73,
                    "time": 216.22320766666942,
                    "velocity": 0.3464566929133858,
                    "duration": 0.08750433333332808
                },
                {
                    "name": "B4",
                    "midi": 71,
                    "time": 216.31071200000275,
                    "velocity": 0.3700787401574803,
                    "duration": 0.5250260000000253
                },
                {
                    "name": "D5",
                    "midi": 74,
                    "time": 216.57322500000276,
                    "velocity": 0.3700787401574803,
                    "duration": 0.26251300000001265
                },
                {
                    "name": "G5",
                    "midi": 79,
                    "time": 216.83573800000278,
                    "velocity": 0.3858267716535433,
                    "duration": 0.06562825000000316
                },
                {
                    "name": "B4",
                    "midi": 71,
                    "time": 216.83573800000278,
                    "velocity": 0.3858267716535433,
                    "duration": 0.06562825000000316
                },
                {
                    "name": "B5",
                    "midi": 83,
                    "time": 217.0982510000028,
                    "velocity": 0.3543307086614173,
                    "duration": 0.06562825000000316
                },
                {
                    "name": "B4",
                    "midi": 71,
                    "time": 217.0982510000028,
                    "velocity": 0.3543307086614173,
                    "duration": 0.06562825000000316
                },
                {
                    "name": "A5",
                    "midi": 81,
                    "time": 217.3607640000028,
                    "velocity": 0.3779527559055118,
                    "duration": 0.26251300000001265
                },
                {
                    "name": "B4",
                    "midi": 71,
                    "time": 217.3607640000028,
                    "velocity": 0.3228346456692913,
                    "duration": 0.5250260000000253
                },
                {
                    "name": "G5",
                    "midi": 79,
                    "time": 217.62327700000282,
                    "velocity": 0.33070866141732286,
                    "duration": 0.26251300000001265
                },
                {
                    "name": "B4",
                    "midi": 71,
                    "time": 217.88579000000283,
                    "velocity": 0.33070866141732286,
                    "duration": 0.06562825000000316
                },
                {
                    "name": "G4",
                    "midi": 67,
                    "time": 217.88579000000283,
                    "velocity": 0.33070866141732286,
                    "duration": 0.06562825000000316
                },
                {
                    "name": "B4",
                    "midi": 71,
                    "time": 218.14830300000284,
                    "velocity": 0.33070866141732286,
                    "duration": 0.06562825000000316
                },
                {
                    "name": "D5",
                    "midi": 74,
                    "time": 218.14830300000284,
                    "velocity": 0.33070866141732286,
                    "duration": 0.06562825000000316
                },
                {
                    "name": "G4",
                    "midi": 67,
                    "time": 218.14830300000284,
                    "velocity": 0.33070866141732286,
                    "duration": 0.06562825000000316
                },
                {
                    "name": "F#5",
                    "midi": 78,
                    "time": 218.41081600000285,
                    "velocity": 0.36220472440944884,
                    "duration": 0.26251300000001265
                },
                {
                    "name": "D5",
                    "midi": 74,
                    "time": 218.41081600000285,
                    "velocity": 0.36220472440944884,
                    "duration": 0.26251300000001265
                },
                {
                    "name": "B4",
                    "midi": 71,
                    "time": 218.41081600000285,
                    "velocity": 0.36220472440944884,
                    "duration": 0.26251300000001265
                },
                {
                    "name": "G4",
                    "midi": 67,
                    "time": 218.41081600000285,
                    "velocity": 0.36220472440944884,
                    "duration": 0.26251300000001265
                },
                {
                    "name": "F#5",
                    "midi": 78,
                    "time": 218.93584200000288,
                    "velocity": 0.33070866141732286,
                    "duration": 0.26251300000001265
                },
                {
                    "name": "D5",
                    "midi": 74,
                    "time": 218.93584200000288,
                    "velocity": 0.33070866141732286,
                    "duration": 0.26251300000001265
                },
                {
                    "name": "B4",
                    "midi": 71,
                    "time": 218.93584200000288,
                    "velocity": 0.33070866141732286,
                    "duration": 0.26251300000001265
                },
                {
                    "name": "G4",
                    "midi": 67,
                    "time": 218.93584200000288,
                    "velocity": 0.33070866141732286,
                    "duration": 0.26251300000001265
                },
                {
                    "name": "F#5",
                    "midi": 78,
                    "time": 219.3296115000029,
                    "velocity": 0.33070866141732286,
                    "duration": 0.13125650000000633
                },
                {
                    "name": "D5",
                    "midi": 74,
                    "time": 219.3296115000029,
                    "velocity": 0.33070866141732286,
                    "duration": 0.13125650000000633
                },
                {
                    "name": "B4",
                    "midi": 71,
                    "time": 219.3296115000029,
                    "velocity": 0.33070866141732286,
                    "duration": 0.13125650000000633
                },
                {
                    "name": "G4",
                    "midi": 67,
                    "time": 219.3296115000029,
                    "velocity": 0.33070866141732286,
                    "duration": 0.13125650000000633
                },
                {
                    "name": "F#5",
                    "midi": 78,
                    "time": 219.4608680000029,
                    "velocity": 0.33070866141732286,
                    "duration": 0.5250259999999969
                },
                {
                    "name": "D5",
                    "midi": 74,
                    "time": 219.4608680000029,
                    "velocity": 0.33070866141732286,
                    "duration": 0.5250259999999969
                },
                {
                    "name": "B4",
                    "midi": 71,
                    "time": 219.4608680000029,
                    "velocity": 0.33070866141732286,
                    "duration": 0.5250259999999969
                },
                {
                    "name": "G4",
                    "midi": 67,
                    "time": 219.4608680000029,
                    "velocity": 0.33070866141732286,
                    "duration": 0.5250259999999969
                },
                {
                    "name": "B4",
                    "midi": 71,
                    "time": 219.9858940000029,
                    "velocity": 0.33070866141732286,
                    "duration": 0.06562825000000316
                },
                {
                    "name": "G4",
                    "midi": 67,
                    "time": 219.9858940000029,
                    "velocity": 0.33070866141732286,
                    "duration": 0.06562825000000316
                },
                {
                    "name": "C#5",
                    "midi": 73,
                    "time": 220.2484070000029,
                    "velocity": 0.33070866141732286,
                    "duration": 0.06562825000000316
                },
                {
                    "name": "B4",
                    "midi": 71,
                    "time": 220.2484070000029,
                    "velocity": 0.33070866141732286,
                    "duration": 0.06562825000000316
                },
                {
                    "name": "G4",
                    "midi": 67,
                    "time": 220.2484070000029,
                    "velocity": 0.33070866141732286,
                    "duration": 0.06562825000000316
                },
                {
                    "name": "D5",
                    "midi": 74,
                    "time": 220.51092000000293,
                    "velocity": 0.36220472440944884,
                    "duration": 0.26251300000001265
                },
                {
                    "name": "G4",
                    "midi": 67,
                    "time": 220.51092000000293,
                    "velocity": 0.36220472440944884,
                    "duration": 0.5250260000000253
                },
                {
                    "name": "B4",
                    "midi": 71,
                    "time": 220.51092000000293,
                    "velocity": 0.36220472440944884,
                    "duration": 0.5250260000000253
                },
                {
                    "name": "E5",
                    "midi": 76,
                    "time": 220.77343300000294,
                    "velocity": 0.33070866141732286,
                    "duration": 0.26251300000001265
                },
                {
                    "name": "B4",
                    "midi": 71,
                    "time": 221.03594600000295,
                    "velocity": 0.3543307086614173,
                    "duration": 0.06562825000000316
                },
                {
                    "name": "G4",
                    "midi": 67,
                    "time": 221.03594600000295,
                    "velocity": 0.3543307086614173,
                    "duration": 0.06562825000000316
                },
                {
                    "name": "C#5",
                    "midi": 73,
                    "time": 221.29845900000296,
                    "velocity": 0.3543307086614173,
                    "duration": 0.06562825000000316
                },
                {
                    "name": "B4",
                    "midi": 71,
                    "time": 221.29845900000296,
                    "velocity": 0.3543307086614173,
                    "duration": 0.06562825000000316
                },
                {
                    "name": "G4",
                    "midi": 67,
                    "time": 221.29845900000296,
                    "velocity": 0.3543307086614173,
                    "duration": 0.06562825000000316
                },
                {
                    "name": "D5",
                    "midi": 74,
                    "time": 221.56097200000298,
                    "velocity": 0.3700787401574803,
                    "duration": 0.26251300000001265
                },
                {
                    "name": "B4",
                    "midi": 71,
                    "time": 221.56097200000298,
                    "velocity": 0.3700787401574803,
                    "duration": 0.5250260000000253
                },
                {
                    "name": "G4",
                    "midi": 67,
                    "time": 221.56097200000298,
                    "velocity": 0.3700787401574803,
                    "duration": 0.5250260000000253
                },
                {
                    "name": "E5",
                    "midi": 76,
                    "time": 221.823485000003,
                    "velocity": 0.3464566929133858,
                    "duration": 0.26251300000001265
                },
                {
                    "name": "B4",
                    "midi": 71,
                    "time": 222.085998000003,
                    "velocity": 0.3543307086614173,
                    "duration": 0.06562825000000316
                },
                {
                    "name": "G4",
                    "midi": 67,
                    "time": 222.085998000003,
                    "velocity": 0.3543307086614173,
                    "duration": 0.06562825000000316
                },
                {
                    "name": "C#5",
                    "midi": 73,
                    "time": 222.34851100000301,
                    "velocity": 0.3543307086614173,
                    "duration": 0.06562825000000316
                },
                {
                    "name": "B4",
                    "midi": 71,
                    "time": 222.34851100000301,
                    "velocity": 0.3543307086614173,
                    "duration": 0.06562825000000316
                },
                {
                    "name": "G4",
                    "midi": 67,
                    "time": 222.34851100000301,
                    "velocity": 0.3543307086614173,
                    "duration": 0.06562825000000316
                },
                {
                    "name": "D5",
                    "midi": 74,
                    "time": 222.61102400000303,
                    "velocity": 0.3858267716535433,
                    "duration": 0.26251300000001265
                },
                {
                    "name": "A4",
                    "midi": 69,
                    "time": 222.61102400000303,
                    "velocity": 0.3858267716535433,
                    "duration": 0.26251300000001265
                },
                {
                    "name": "G4",
                    "midi": 67,
                    "time": 222.61102400000303,
                    "velocity": 0.3858267716535433,
                    "duration": 0.26251300000001265
                },
                {
                    "name": "D5",
                    "midi": 74,
                    "time": 223.13605000000305,
                    "velocity": 0.3543307086614173,
                    "duration": 0.26251300000001265
                },
                {
                    "name": "F#4",
                    "midi": 66,
                    "time": 223.13605000000305,
                    "velocity": 0.3543307086614173,
                    "duration": 0.26251300000001265
                },
                {
                    "name": "D5",
                    "midi": 74,
                    "time": 223.52981950000307,
                    "velocity": 0.3543307086614173,
                    "duration": 0.13125650000000633
                },
                {
                    "name": "F#4",
                    "midi": 66,
                    "time": 223.52981950000307,
                    "velocity": 0.3543307086614173,
                    "duration": 0.13125650000000633
                },
                {
                    "name": "D5",
                    "midi": 74,
                    "time": 223.66107600000308,
                    "velocity": 0.3543307086614173,
                    "duration": 0.26251300000001265
                },
                {
                    "name": "F#4",
                    "midi": 66,
                    "time": 223.66107600000308,
                    "velocity": 0.3543307086614173,
                    "duration": 0.26251300000001265
                },
                {
                    "name": "D4",
                    "midi": 62,
                    "time": 225.2361540000031,
                    "velocity": 0.2125984251968504,
                    "duration": 0.26251300000001265
                },
                {
                    "name": "A4",
                    "midi": 69,
                    "time": 225.2361540000031,
                    "velocity": 0.2125984251968504,
                    "duration": 0.26251300000001265
                },
                {
                    "name": "D4",
                    "midi": 62,
                    "time": 225.4986670000031,
                    "velocity": 0.2125984251968504,
                    "duration": 0.26251300000001265
                },
                {
                    "name": "A4",
                    "midi": 69,
                    "time": 225.4986670000031,
                    "velocity": 0.2125984251968504,
                    "duration": 0.26251300000001265
                },
                {
                    "name": "D4",
                    "midi": 62,
                    "time": 225.76118000000312,
                    "velocity": 0.25984251968503935,
                    "duration": 0.26251300000001265
                },
                {
                    "name": "A4",
                    "midi": 69,
                    "time": 225.76118000000312,
                    "velocity": 0.25984251968503935,
                    "duration": 0.26251300000001265
                },
                {
                    "name": "D4",
                    "midi": 62,
                    "time": 227.33625800000314,
                    "velocity": 0.2125984251968504,
                    "duration": 0.26251300000001265
                },
                {
                    "name": "A4",
                    "midi": 69,
                    "time": 227.33625800000314,
                    "velocity": 0.2125984251968504,
                    "duration": 0.26251300000001265
                },
                {
                    "name": "D4",
                    "midi": 62,
                    "time": 227.59877100000315,
                    "velocity": 0.2125984251968504,
                    "duration": 0.26251300000001265
                },
                {
                    "name": "A4",
                    "midi": 69,
                    "time": 227.59877100000315,
                    "velocity": 0.2125984251968504,
                    "duration": 0.26251300000001265
                },
                {
                    "name": "D4",
                    "midi": 62,
                    "time": 227.86128400000317,
                    "velocity": 0.2440944881889764,
                    "duration": 0.26251300000001265
                },
                {
                    "name": "A4",
                    "midi": 69,
                    "time": 227.86128400000317,
                    "velocity": 0.2440944881889764,
                    "duration": 0.26251300000001265
                },
                {
                    "name": "A5",
                    "midi": 81,
                    "time": 228.64882300000318,
                    "velocity": 0.2755905511811024,
                    "duration": 0.08750433333332808
                },
                {
                    "name": "B5",
                    "midi": 83,
                    "time": 228.7363273333365,
                    "velocity": 0.2755905511811024,
                    "duration": 0.08750433333332808
                },
                {
                    "name": "A5",
                    "midi": 81,
                    "time": 228.82383166666983,
                    "velocity": 0.28346456692913385,
                    "duration": 0.08750433333332808
                },
                {
                    "name": "F#5",
                    "midi": 78,
                    "time": 228.91133600000316,
                    "velocity": 0.30708661417322836,
                    "duration": 0.5250260000000253
                },
                {
                    "name": "A5",
                    "midi": 81,
                    "time": 229.17384900000317,
                    "velocity": 0.30708661417322836,
                    "duration": 0.26251300000001265
                },
                {
                    "name": "D6",
                    "midi": 86,
                    "time": 229.4363620000032,
                    "velocity": 0.30708661417322836,
                    "duration": 0.06562825000000316
                },
                {
                    "name": "F#5",
                    "midi": 78,
                    "time": 229.4363620000032,
                    "velocity": 0.30708661417322836,
                    "duration": 0.06562825000000316
                },
                {
                    "name": "F#6",
                    "midi": 90,
                    "time": 229.6988750000032,
                    "velocity": 0.29133858267716534,
                    "duration": 0.06562825000000316
                },
                {
                    "name": "F#5",
                    "midi": 78,
                    "time": 229.6988750000032,
                    "velocity": 0.29133858267716534,
                    "duration": 0.06562825000000316
                },
                {
                    "name": "E6",
                    "midi": 88,
                    "time": 229.9613880000032,
                    "velocity": 0.3228346456692913,
                    "duration": 0.26251300000001265
                },
                {
                    "name": "F#5",
                    "midi": 78,
                    "time": 229.9613880000032,
                    "velocity": 0.25984251968503935,
                    "duration": 0.5250260000000253
                },
                {
                    "name": "D6",
                    "midi": 86,
                    "time": 230.22390100000322,
                    "velocity": 0.29133858267716534,
                    "duration": 0.26251300000001265
                },
                {
                    "name": "F#5",
                    "midi": 78,
                    "time": 230.48641400000324,
                    "velocity": 0.29133858267716534,
                    "duration": 0.06562825000000316
                },
                {
                    "name": "A5",
                    "midi": 81,
                    "time": 230.74892700000325,
                    "velocity": 0.28346456692913385,
                    "duration": 0.06562825000000316
                },
                {
                    "name": "F#5",
                    "midi": 78,
                    "time": 230.74892700000325,
                    "velocity": 0.28346456692913385,
                    "duration": 0.06562825000000316
                },
                {
                    "name": "B5",
                    "midi": 83,
                    "time": 231.01144000000326,
                    "velocity": 0.30708661417322836,
                    "duration": 0.26251300000001265
                },
                {
                    "name": "A5",
                    "midi": 81,
                    "time": 231.01144000000326,
                    "velocity": 0.30708661417322836,
                    "duration": 0.26251300000001265
                },
                {
                    "name": "F#5",
                    "midi": 78,
                    "time": 231.01144000000326,
                    "velocity": 0.30708661417322836,
                    "duration": 0.26251300000001265
                },
                {
                    "name": "B5",
                    "midi": 83,
                    "time": 231.5364660000033,
                    "velocity": 0.29133858267716534,
                    "duration": 0.26251300000001265
                },
                {
                    "name": "A5",
                    "midi": 81,
                    "time": 231.5364660000033,
                    "velocity": 0.29133858267716534,
                    "duration": 0.26251300000001265
                },
                {
                    "name": "F#5",
                    "midi": 78,
                    "time": 231.5364660000033,
                    "velocity": 0.29133858267716534,
                    "duration": 0.26251300000001265
                },
                {
                    "name": "B5",
                    "midi": 83,
                    "time": 231.9302355000033,
                    "velocity": 0.29133858267716534,
                    "duration": 0.13125650000000633
                },
                {
                    "name": "A5",
                    "midi": 81,
                    "time": 231.9302355000033,
                    "velocity": 0.29133858267716534,
                    "duration": 0.13125650000000633
                },
                {
                    "name": "F#5",
                    "midi": 78,
                    "time": 231.9302355000033,
                    "velocity": 0.29133858267716534,
                    "duration": 0.13125650000000633
                },
                {
                    "name": "B5",
                    "midi": 83,
                    "time": 232.0614920000033,
                    "velocity": 0.29133858267716534,
                    "duration": 0.5250259999999969
                },
                {
                    "name": "A5",
                    "midi": 81,
                    "time": 232.0614920000033,
                    "velocity": 0.29133858267716534,
                    "duration": 0.5250259999999969
                },
                {
                    "name": "F#5",
                    "midi": 78,
                    "time": 232.0614920000033,
                    "velocity": 0.29133858267716534,
                    "duration": 0.5250259999999969
                },
                {
                    "name": "D5",
                    "midi": 74,
                    "time": 232.5865180000033,
                    "velocity": 0.2992125984251969,
                    "duration": 0.06562825000000316
                },
                {
                    "name": "F#5",
                    "midi": 78,
                    "time": 232.5865180000033,
                    "velocity": 0.2992125984251969,
                    "duration": 0.06562825000000316
                },
                {
                    "name": "D5",
                    "midi": 74,
                    "time": 232.84903100000332,
                    "velocity": 0.2992125984251969,
                    "duration": 0.06562825000000316
                },
                {
                    "name": "G#5",
                    "midi": 80,
                    "time": 232.84903100000332,
                    "velocity": 0.2992125984251969,
                    "duration": 0.06562825000000316
                },
                {
                    "name": "F#5",
                    "midi": 78,
                    "time": 232.84903100000332,
                    "velocity": 0.2992125984251969,
                    "duration": 0.06562825000000316
                },
                {
                    "name": "D5",
                    "midi": 74,
                    "time": 233.11154400000333,
                    "velocity": 0.3228346456692913,
                    "duration": 0.5250260000000253
                },
                {
                    "name": "F#5",
                    "midi": 78,
                    "time": 233.11154400000333,
                    "velocity": 0.3228346456692913,
                    "duration": 0.5250260000000253
                },
                {
                    "name": "A5",
                    "midi": 81,
                    "time": 233.11154400000333,
                    "velocity": 0.3228346456692913,
                    "duration": 0.26251300000001265
                },
                {
                    "name": "B5",
                    "midi": 83,
                    "time": 233.37405700000335,
                    "velocity": 0.29133858267716534,
                    "duration": 0.26251300000001265
                },
                {
                    "name": "F#5",
                    "midi": 78,
                    "time": 233.63657000000336,
                    "velocity": 0.30708661417322836,
                    "duration": 0.06562825000000316
                },
                {
                    "name": "D5",
                    "midi": 74,
                    "time": 233.63657000000336,
                    "velocity": 0.30708661417322836,
                    "duration": 0.06562825000000316
                },
                {
                    "name": "G#5",
                    "midi": 80,
                    "time": 233.89908300000337,
                    "velocity": 0.2992125984251969,
                    "duration": 0.06562825000000316
                },
                {
                    "name": "F#5",
                    "midi": 78,
                    "time": 233.89908300000337,
                    "velocity": 0.2992125984251969,
                    "duration": 0.06562825000000316
                },
                {
                    "name": "D5",
                    "midi": 74,
                    "time": 233.89908300000337,
                    "velocity": 0.2992125984251969,
                    "duration": 0.06562825000000316
                },
                {
                    "name": "A5",
                    "midi": 81,
                    "time": 234.16159600000339,
                    "velocity": 0.3228346456692913,
                    "duration": 0.26251300000001265
                },
                {
                    "name": "D5",
                    "midi": 74,
                    "time": 234.16159600000339,
                    "velocity": 0.3228346456692913,
                    "duration": 0.5250260000000253
                },
                {
                    "name": "F#5",
                    "midi": 78,
                    "time": 234.16159600000339,
                    "velocity": 0.3228346456692913,
                    "duration": 0.5250260000000253
                },
                {
                    "name": "B5",
                    "midi": 83,
                    "time": 234.4241090000034,
                    "velocity": 0.29133858267716534,
                    "duration": 0.26251300000001265
                },
                {
                    "name": "D5",
                    "midi": 74,
                    "time": 234.6866220000034,
                    "velocity": 0.30708661417322836,
                    "duration": 0.06562825000000316
                },
                {
                    "name": "F#5",
                    "midi": 78,
                    "time": 234.6866220000034,
                    "velocity": 0.30708661417322836,
                    "duration": 0.06562825000000316
                },
                {
                    "name": "G#5",
                    "midi": 80,
                    "time": 234.94913500000342,
                    "velocity": 0.30708661417322836,
                    "duration": 0.06562825000000316
                },
                {
                    "name": "D5",
                    "midi": 74,
                    "time": 234.94913500000342,
                    "velocity": 0.30708661417322836,
                    "duration": 0.06562825000000316
                },
                {
                    "name": "F#5",
                    "midi": 78,
                    "time": 234.94913500000342,
                    "velocity": 0.30708661417322836,
                    "duration": 0.06562825000000316
                },
                {
                    "name": "D5",
                    "midi": 74,
                    "time": 235.21164800000344,
                    "velocity": 0.3228346456692913,
                    "duration": 0.26251300000001265
                },
                {
                    "name": "E5",
                    "midi": 76,
                    "time": 235.21164800000344,
                    "velocity": 0.3228346456692913,
                    "duration": 0.26251300000001265
                },
                {
                    "name": "A5",
                    "midi": 81,
                    "time": 235.21164800000344,
                    "velocity": 0.3228346456692913,
                    "duration": 0.26251300000001265
                },
                {
                    "name": "C#5",
                    "midi": 73,
                    "time": 235.73667400000346,
                    "velocity": 0.2992125984251969,
                    "duration": 0.26251300000001265
                },
                {
                    "name": "A5",
                    "midi": 81,
                    "time": 235.73667400000346,
                    "velocity": 0.2992125984251969,
                    "duration": 0.26251300000001265
                },
                {
                    "name": "C#5",
                    "midi": 73,
                    "time": 236.13044350000348,
                    "velocity": 0.2992125984251969,
                    "duration": 0.13125650000000633
                },
                {
                    "name": "A5",
                    "midi": 81,
                    "time": 236.13044350000348,
                    "velocity": 0.2992125984251969,
                    "duration": 0.13125650000000633
                },
                {
                    "name": "C#5",
                    "midi": 73,
                    "time": 236.2617000000035,
                    "velocity": 0.2992125984251969,
                    "duration": 0.26251300000001265
                },
                {
                    "name": "A5",
                    "midi": 81,
                    "time": 236.2617000000035,
                    "velocity": 0.2992125984251969,
                    "duration": 0.26251300000001265
                },
                {
                    "name": "C#6",
                    "midi": 85,
                    "time": 237.0492390000035,
                    "velocity": 0.30708661417322836,
                    "duration": 0.08750433333332808
                },
                {
                    "name": "D6",
                    "midi": 86,
                    "time": 237.13674333333682,
                    "velocity": 0.30708661417322836,
                    "duration": 0.08750433333332808
                },
                {
                    "name": "C#6",
                    "midi": 85,
                    "time": 237.22424766667015,
                    "velocity": 0.30708661417322836,
                    "duration": 0.08750433333332808
                },
                {
                    "name": "B5",
                    "midi": 83,
                    "time": 237.31175200000348,
                    "velocity": 0.33070866141732286,
                    "duration": 0.5250260000000253
                },
                {
                    "name": "D6",
                    "midi": 86,
                    "time": 237.5742650000035,
                    "velocity": 0.33070866141732286,
                    "duration": 0.26251300000001265
                },
                {
                    "name": "G6",
                    "midi": 91,
                    "time": 237.8367780000035,
                    "velocity": 0.3464566929133858,
                    "duration": 0.06562825000000316
                },
                {
                    "name": "B5",
                    "midi": 83,
                    "time": 237.8367780000035,
                    "velocity": 0.3464566929133858,
                    "duration": 0.06562825000000316
                },
                {
                    "name": "B6",
                    "midi": 95,
                    "time": 238.09929100000352,
                    "velocity": 0.30708661417322836,
                    "duration": 0.06562825000000316
                },
                {
                    "name": "B5",
                    "midi": 83,
                    "time": 238.09929100000352,
                    "velocity": 0.30708661417322836,
                    "duration": 0.06562825000000316
                },
                {
                    "name": "A6",
                    "midi": 93,
                    "time": 238.36180400000353,
                    "velocity": 0.33070866141732286,
                    "duration": 0.26251300000001265
                },
                {
                    "name": "B5",
                    "midi": 83,
                    "time": 238.36180400000353,
                    "velocity": 0.29133858267716534,
                    "duration": 0.5250260000000253
                },
                {
                    "name": "G6",
                    "midi": 91,
                    "time": 238.62431700000354,
                    "velocity": 0.2992125984251969,
                    "duration": 0.26251300000001265
                },
                {
                    "name": "B5",
                    "midi": 83,
                    "time": 238.88683000000356,
                    "velocity": 0.2992125984251969,
                    "duration": 0.06562825000000316
                },
                {
                    "name": "G5",
                    "midi": 79,
                    "time": 238.88683000000356,
                    "velocity": 0.2992125984251969,
                    "duration": 0.06562825000000316
                },
                {
                    "name": "B5",
                    "midi": 83,
                    "time": 239.14934300000357,
                    "velocity": 0.2992125984251969,
                    "duration": 0.06562825000000316
                },
                {
                    "name": "D6",
                    "midi": 86,
                    "time": 239.14934300000357,
                    "velocity": 0.2992125984251969,
                    "duration": 0.06562825000000316
                },
                {
                    "name": "G5",
                    "midi": 79,
                    "time": 239.14934300000357,
                    "velocity": 0.2992125984251969,
                    "duration": 0.06562825000000316
                },
                {
                    "name": "F#6",
                    "midi": 90,
                    "time": 239.41185600000358,
                    "velocity": 0.33070866141732286,
                    "duration": 0.26251300000001265
                },
                {
                    "name": "D6",
                    "midi": 86,
                    "time": 239.41185600000358,
                    "velocity": 0.33070866141732286,
                    "duration": 0.26251300000001265
                },
                {
                    "name": "B5",
                    "midi": 83,
                    "time": 239.41185600000358,
                    "velocity": 0.33070866141732286,
                    "duration": 0.26251300000001265
                },
                {
                    "name": "G5",
                    "midi": 79,
                    "time": 239.41185600000358,
                    "velocity": 0.33070866141732286,
                    "duration": 0.26251300000001265
                },
                {
                    "name": "F#6",
                    "midi": 90,
                    "time": 239.9368820000036,
                    "velocity": 0.29133858267716534,
                    "duration": 0.26251300000001265
                },
                {
                    "name": "D6",
                    "midi": 86,
                    "time": 239.9368820000036,
                    "velocity": 0.29133858267716534,
                    "duration": 0.26251300000001265
                },
                {
                    "name": "B5",
                    "midi": 83,
                    "time": 239.9368820000036,
                    "velocity": 0.29133858267716534,
                    "duration": 0.26251300000001265
                },
                {
                    "name": "G5",
                    "midi": 79,
                    "time": 239.9368820000036,
                    "velocity": 0.29133858267716534,
                    "duration": 0.26251300000001265
                },
                {
                    "name": "F#6",
                    "midi": 90,
                    "time": 240.33065150000363,
                    "velocity": 0.29133858267716534,
                    "duration": 0.13125650000000633
                },
                {
                    "name": "D6",
                    "midi": 86,
                    "time": 240.33065150000363,
                    "velocity": 0.29133858267716534,
                    "duration": 0.13125650000000633
                },
                {
                    "name": "B5",
                    "midi": 83,
                    "time": 240.33065150000363,
                    "velocity": 0.29133858267716534,
                    "duration": 0.13125650000000633
                },
                {
                    "name": "G5",
                    "midi": 79,
                    "time": 240.33065150000363,
                    "velocity": 0.29133858267716534,
                    "duration": 0.13125650000000633
                },
                {
                    "name": "F#6",
                    "midi": 90,
                    "time": 240.46190800000363,
                    "velocity": 0.29133858267716534,
                    "duration": 0.5250259999999969
                },
                {
                    "name": "D6",
                    "midi": 86,
                    "time": 240.46190800000363,
                    "velocity": 0.29133858267716534,
                    "duration": 0.5250259999999969
                },
                {
                    "name": "B5",
                    "midi": 83,
                    "time": 240.46190800000363,
                    "velocity": 0.29133858267716534,
                    "duration": 0.5250259999999969
                },
                {
                    "name": "G5",
                    "midi": 79,
                    "time": 240.46190800000363,
                    "velocity": 0.29133858267716534,
                    "duration": 0.5250259999999969
                },
                {
                    "name": "B5",
                    "midi": 83,
                    "time": 240.98693400000363,
                    "velocity": 0.2992125984251969,
                    "duration": 0.06562825000000316
                },
                {
                    "name": "G5",
                    "midi": 79,
                    "time": 240.98693400000363,
                    "velocity": 0.2992125984251969,
                    "duration": 0.06562825000000316
                },
                {
                    "name": "C#6",
                    "midi": 85,
                    "time": 241.24944700000364,
                    "velocity": 0.2992125984251969,
                    "duration": 0.06562825000000316
                },
                {
                    "name": "B5",
                    "midi": 83,
                    "time": 241.24944700000364,
                    "velocity": 0.2992125984251969,
                    "duration": 0.06562825000000316
                },
                {
                    "name": "G5",
                    "midi": 79,
                    "time": 241.24944700000364,
                    "velocity": 0.2992125984251969,
                    "duration": 0.06562825000000316
                },
                {
                    "name": "D6",
                    "midi": 86,
                    "time": 241.51196000000365,
                    "velocity": 0.33070866141732286,
                    "duration": 0.26251300000001265
                },
                {
                    "name": "G5",
                    "midi": 79,
                    "time": 241.51196000000365,
                    "velocity": 0.33070866141732286,
                    "duration": 0.5250260000000253
                },
                {
                    "name": "B5",
                    "midi": 83,
                    "time": 241.51196000000365,
                    "velocity": 0.33070866141732286,
                    "duration": 0.5250260000000253
                },
                {
                    "name": "E6",
                    "midi": 88,
                    "time": 241.77447300000367,
                    "velocity": 0.2992125984251969,
                    "duration": 0.26251300000001265
                },
                {
                    "name": "B5",
                    "midi": 83,
                    "time": 242.03698600000368,
                    "velocity": 0.30708661417322836,
                    "duration": 0.06562825000000316
                },
                {
                    "name": "G5",
                    "midi": 79,
                    "time": 242.03698600000368,
                    "velocity": 0.30708661417322836,
                    "duration": 0.06562825000000316
                },
                {
                    "name": "C#6",
                    "midi": 85,
                    "time": 242.2994990000037,
                    "velocity": 0.30708661417322836,
                    "duration": 0.06562825000000316
                },
                {
                    "name": "B5",
                    "midi": 83,
                    "time": 242.2994990000037,
                    "velocity": 0.30708661417322836,
                    "duration": 0.06562825000000316
                },
                {
                    "name": "G5",
                    "midi": 79,
                    "time": 242.2994990000037,
                    "velocity": 0.30708661417322836,
                    "duration": 0.06562825000000316
                },
                {
                    "name": "D6",
                    "midi": 86,
                    "time": 242.5620120000037,
                    "velocity": 0.33070866141732286,
                    "duration": 0.26251300000001265
                },
                {
                    "name": "B5",
                    "midi": 83,
                    "time": 242.5620120000037,
                    "velocity": 0.33070866141732286,
                    "duration": 0.5250260000000253
                },
                {
                    "name": "G5",
                    "midi": 79,
                    "time": 242.5620120000037,
                    "velocity": 0.33070866141732286,
                    "duration": 0.5250260000000253
                },
                {
                    "name": "E6",
                    "midi": 88,
                    "time": 242.82452500000372,
                    "velocity": 0.30708661417322836,
                    "duration": 0.26251300000001265
                },
                {
                    "name": "B5",
                    "midi": 83,
                    "time": 243.08703800000373,
                    "velocity": 0.30708661417322836,
                    "duration": 0.06562825000000316
                },
                {
                    "name": "G5",
                    "midi": 79,
                    "time": 243.08703800000373,
                    "velocity": 0.30708661417322836,
                    "duration": 0.06562825000000316
                },
                {
                    "name": "C#6",
                    "midi": 85,
                    "time": 243.34955100000374,
                    "velocity": 0.30708661417322836,
                    "duration": 0.06562825000000316
                },
                {
                    "name": "B5",
                    "midi": 83,
                    "time": 243.34955100000374,
                    "velocity": 0.30708661417322836,
                    "duration": 0.06562825000000316
                },
                {
                    "name": "G5",
                    "midi": 79,
                    "time": 243.34955100000374,
                    "velocity": 0.30708661417322836,
                    "duration": 0.06562825000000316
                },
                {
                    "name": "D6",
                    "midi": 86,
                    "time": 243.61206400000376,
                    "velocity": 0.3464566929133858,
                    "duration": 0.26251300000001265
                },
                {
                    "name": "A5",
                    "midi": 81,
                    "time": 243.61206400000376,
                    "velocity": 0.3464566929133858,
                    "duration": 0.26251300000001265
                },
                {
                    "name": "G5",
                    "midi": 79,
                    "time": 243.61206400000376,
                    "velocity": 0.3464566929133858,
                    "duration": 0.26251300000001265
                },
                {
                    "name": "D6",
                    "midi": 86,
                    "time": 244.13709000000378,
                    "velocity": 0.30708661417322836,
                    "duration": 0.26251300000001265
                },
                {
                    "name": "F#5",
                    "midi": 78,
                    "time": 244.13709000000378,
                    "velocity": 0.30708661417322836,
                    "duration": 0.26251300000001265
                },
                {
                    "name": "D6",
                    "midi": 86,
                    "time": 244.5308595000038,
                    "velocity": 0.30708661417322836,
                    "duration": 0.13125650000000633
                },
                {
                    "name": "F#5",
                    "midi": 78,
                    "time": 244.5308595000038,
                    "velocity": 0.30708661417322836,
                    "duration": 0.13125650000000633
                },
                {
                    "name": "D6",
                    "midi": 86,
                    "time": 244.6621160000038,
                    "velocity": 0.30708661417322836,
                    "duration": 0.26251300000001265
                },
                {
                    "name": "F#5",
                    "midi": 78,
                    "time": 244.6621160000038,
                    "velocity": 0.30708661417322836,
                    "duration": 0.26251300000001265
                },
                {
                    "name": "C#4",
                    "midi": 61,
                    "time": 247.81227200000382,
                    "velocity": 0.5905511811023622,
                    "duration": 0.13125650000000633
                },
                {
                    "name": "E4",
                    "midi": 64,
                    "time": 247.81227200000382,
                    "velocity": 0.5905511811023622,
                    "duration": 0.5250260000000253
                },
                {
                    "name": "B3",
                    "midi": 59,
                    "time": 247.94352850000382,
                    "velocity": 0.5354330708661418,
                    "duration": 0.13125650000000633
                },
                {
                    "name": "C#4",
                    "midi": 61,
                    "time": 248.07478500000383,
                    "velocity": 0.5354330708661418,
                    "duration": 0.13125650000000633
                },
                {
                    "name": "A3",
                    "midi": 57,
                    "time": 248.20604150000383,
                    "velocity": 0.5354330708661418,
                    "duration": 0.06562825000000316
                },
                {
                    "name": "D4",
                    "midi": 62,
                    "time": 248.33729800000384,
                    "velocity": 0.5354330708661418,
                    "duration": 0.13125650000000633
                },
                {
                    "name": "F#4",
                    "midi": 66,
                    "time": 248.33729800000384,
                    "velocity": 0.5590551181102362,
                    "duration": 0.5250260000000253
                },
                {
                    "name": "B3",
                    "midi": 59,
                    "time": 248.59981100000385,
                    "velocity": 0.5354330708661418,
                    "duration": 0.13125650000000633
                },
                {
                    "name": "C#4",
                    "midi": 61,
                    "time": 248.86232400000387,
                    "velocity": 0.5905511811023622,
                    "duration": 0.13125650000000633
                },
                {
                    "name": "E4",
                    "midi": 64,
                    "time": 248.86232400000387,
                    "velocity": 0.5905511811023622,
                    "duration": 0.5250260000000253
                },
                {
                    "name": "B3",
                    "midi": 59,
                    "time": 248.99358050000387,
                    "velocity": 0.5433070866141733,
                    "duration": 0.13125650000000633
                },
                {
                    "name": "C#4",
                    "midi": 61,
                    "time": 249.12483700000388,
                    "velocity": 0.5433070866141733,
                    "duration": 0.13125650000000633
                },
                {
                    "name": "A3",
                    "midi": 57,
                    "time": 249.25609350000389,
                    "velocity": 0.5433070866141733,
                    "duration": 0.06562825000000316
                },
                {
                    "name": "D4",
                    "midi": 62,
                    "time": 249.3873500000039,
                    "velocity": 0.5354330708661418,
                    "duration": 0.13125650000000633
                },
                {
                    "name": "F#4",
                    "midi": 66,
                    "time": 249.3873500000039,
                    "velocity": 0.5590551181102362,
                    "duration": 0.5250260000000253
                },
                {
                    "name": "B3",
                    "midi": 59,
                    "time": 249.6498630000039,
                    "velocity": 0.5354330708661418,
                    "duration": 0.13125650000000633
                },
                {
                    "name": "D5",
                    "midi": 74,
                    "time": 250.17488900000393,
                    "velocity": 0.4409448818897638,
                    "duration": 0.26251299999998423
                },
                {
                    "name": "F#5",
                    "midi": 78,
                    "time": 250.17488900000393,
                    "velocity": 0.4409448818897638,
                    "duration": 0.08750433333332808
                },
                {
                    "name": "G#4",
                    "midi": 68,
                    "time": 250.17488900000393,
                    "velocity": 0.4409448818897638,
                    "duration": 0.26251299999998423
                },
                {
                    "name": "G#5",
                    "midi": 80,
                    "time": 250.26239333333726,
                    "velocity": 0.4409448818897638,
                    "duration": 0.08750433333332808
                },
                {
                    "name": "F#5",
                    "midi": 78,
                    "time": 250.34989766667059,
                    "velocity": 0.4409448818897638,
                    "duration": 0.08750433333332808
                },
                {
                    "name": "E5",
                    "midi": 76,
                    "time": 250.4374020000039,
                    "velocity": 0.47244094488188976,
                    "duration": 0.13125650000000633
                },
                {
                    "name": "C#5",
                    "midi": 73,
                    "time": 250.4374020000039,
                    "velocity": 0.47244094488188976,
                    "duration": 0.13125650000000633
                },
                {
                    "name": "A4",
                    "midi": 69,
                    "time": 250.4374020000039,
                    "velocity": 0.47244094488188976,
                    "duration": 0.13125650000000633
                },
                {
                    "name": "C#5",
                    "midi": 73,
                    "time": 250.69991500000393,
                    "velocity": 0.4645669291338583,
                    "duration": 0.13125650000000633
                },
                {
                    "name": "E5",
                    "midi": 76,
                    "time": 250.69991500000393,
                    "velocity": 0.4645669291338583,
                    "duration": 0.13125650000000633
                },
                {
                    "name": "A4",
                    "midi": 69,
                    "time": 250.69991500000393,
                    "velocity": 0.4645669291338583,
                    "duration": 0.13125650000000633
                },
                {
                    "name": "E5",
                    "midi": 76,
                    "time": 250.96242800000394,
                    "velocity": 0.4645669291338583,
                    "duration": 1.0500519999999938
                },
                {
                    "name": "C#5",
                    "midi": 73,
                    "time": 250.96242800000394,
                    "velocity": 0.4645669291338583,
                    "duration": 1.0500519999999938
                },
                {
                    "name": "A4",
                    "midi": 69,
                    "time": 250.96242800000394,
                    "velocity": 0.4645669291338583,
                    "duration": 1.0500519999999938
                },
                {
                    "name": "C4",
                    "midi": 60,
                    "time": 252.01248000000393,
                    "velocity": 0.4094488188976378,
                    "duration": 0.5250259999999969
                },
                {
                    "name": "E4",
                    "midi": 64,
                    "time": 252.01248000000393,
                    "velocity": 0.4094488188976378,
                    "duration": 0.5250259999999969
                },
                {
                    "name": "G#4",
                    "midi": 68,
                    "time": 252.53750600000393,
                    "velocity": 0.3779527559055118,
                    "duration": 0.26251300000001265
                },
                {
                    "name": "C5",
                    "midi": 72,
                    "time": 252.53750600000393,
                    "velocity": 0.3779527559055118,
                    "duration": 0.26251300000001265
                },
                {
                    "name": "E5",
                    "midi": 76,
                    "time": 252.53750600000393,
                    "velocity": 0.3779527559055118,
                    "duration": 0.26251300000001265
                },
                {
                    "name": "G#4",
                    "midi": 68,
                    "time": 252.80001900000394,
                    "velocity": 0.3700787401574803,
                    "duration": 0.26251300000001265
                },
                {
                    "name": "C5",
                    "midi": 72,
                    "time": 252.80001900000394,
                    "velocity": 0.3700787401574803,
                    "duration": 0.26251300000001265
                },
                {
                    "name": "E5",
                    "midi": 76,
                    "time": 252.80001900000394,
                    "velocity": 0.3700787401574803,
                    "duration": 0.26251300000001265
                },
                {
                    "name": "G#4",
                    "midi": 68,
                    "time": 253.06253200000396,
                    "velocity": 0.36220472440944884,
                    "duration": 0.5250259999999969
                },
                {
                    "name": "C5",
                    "midi": 72,
                    "time": 253.06253200000396,
                    "velocity": 0.36220472440944884,
                    "duration": 0.5250259999999969
                },
                {
                    "name": "E5",
                    "midi": 76,
                    "time": 253.06253200000396,
                    "velocity": 0.36220472440944884,
                    "duration": 0.5250259999999969
                },
                {
                    "name": "C5",
                    "midi": 72,
                    "time": 253.58755800000395,
                    "velocity": 0.2677165354330709,
                    "duration": 0.13125650000000633
                },
                {
                    "name": "E5",
                    "midi": 76,
                    "time": 253.58755800000395,
                    "velocity": 0.2677165354330709,
                    "duration": 0.13125650000000633
                },
                {
                    "name": "E5",
                    "midi": 76,
                    "time": 253.85007100000396,
                    "velocity": 0.2677165354330709,
                    "duration": 0.13125650000000633
                },
                {
                    "name": "C5",
                    "midi": 72,
                    "time": 253.85007100000396,
                    "velocity": 0.2677165354330709,
                    "duration": 0.13125650000000633
                },
                {
                    "name": "F5",
                    "midi": 77,
                    "time": 253.85007100000396,
                    "velocity": 0.2677165354330709,
                    "duration": 0.13125650000000633
                },
                {
                    "name": "C5",
                    "midi": 72,
                    "time": 254.11258400000398,
                    "velocity": 0.29133858267716534,
                    "duration": 0.5250260000000253
                },
                {
                    "name": "E5",
                    "midi": 76,
                    "time": 254.11258400000398,
                    "velocity": 0.29133858267716534,
                    "duration": 0.5250260000000253
                },
                {
                    "name": "G5",
                    "midi": 79,
                    "time": 254.11258400000398,
                    "velocity": 0.29133858267716534,
                    "duration": 0.26251300000001265
                },
                {
                    "name": "A5",
                    "midi": 81,
                    "time": 254.375097000004,
                    "velocity": 0.2677165354330709,
                    "duration": 0.26251300000001265
                },
                {
                    "name": "C5",
                    "midi": 72,
                    "time": 254.637610000004,
                    "velocity": 0.2677165354330709,
                    "duration": 0.13125650000000633
                },
                {
                    "name": "E5",
                    "midi": 76,
                    "time": 254.637610000004,
                    "velocity": 0.2677165354330709,
                    "duration": 0.13125650000000633
                },
                {
                    "name": "C5",
                    "midi": 72,
                    "time": 254.90012300000402,
                    "velocity": 0.2677165354330709,
                    "duration": 0.13125650000000633
                },
                {
                    "name": "E5",
                    "midi": 76,
                    "time": 254.90012300000402,
                    "velocity": 0.2677165354330709,
                    "duration": 0.13125650000000633
                },
                {
                    "name": "F5",
                    "midi": 77,
                    "time": 254.90012300000402,
                    "velocity": 0.2677165354330709,
                    "duration": 0.13125650000000633
                },
                {
                    "name": "B4",
                    "midi": 71,
                    "time": 255.16263600000403,
                    "velocity": 0.2992125984251969,
                    "duration": 0.5250260000000253
                },
                {
                    "name": "F5",
                    "midi": 77,
                    "time": 255.16263600000403,
                    "velocity": 0.2992125984251969,
                    "duration": 0.5250260000000253
                },
                {
                    "name": "G5",
                    "midi": 79,
                    "time": 255.16263600000403,
                    "velocity": 0.2992125984251969,
                    "duration": 0.26251300000001265
                },
                {
                    "name": "A5",
                    "midi": 81,
                    "time": 255.42514900000404,
                    "velocity": 0.2677165354330709,
                    "duration": 0.26251300000001265
                },
                {
                    "name": "G4",
                    "midi": 67,
                    "time": 255.68766200000405,
                    "velocity": 0.2677165354330709,
                    "duration": 0.13125650000000633
                },
                {
                    "name": "B4",
                    "midi": 71,
                    "time": 255.68766200000405,
                    "velocity": 0.2677165354330709,
                    "duration": 0.13125650000000633
                },
                {
                    "name": "E5",
                    "midi": 76,
                    "time": 255.68766200000405,
                    "velocity": 0.2677165354330709,
                    "duration": 0.13125650000000633
                },
                {
                    "name": "G4",
                    "midi": 67,
                    "time": 255.95017500000407,
                    "velocity": 0.2677165354330709,
                    "duration": 0.1312564999999779
                },
                {
                    "name": "B4",
                    "midi": 71,
                    "time": 255.95017500000407,
                    "velocity": 0.2677165354330709,
                    "duration": 0.1312564999999779
                },
                {
                    "name": "D5",
                    "midi": 74,
                    "time": 255.95017500000407,
                    "velocity": 0.2677165354330709,
                    "duration": 0.1312564999999779
                },
                {
                    "name": "D5",
                    "midi": 74,
                    "time": 256.08143150000404,
                    "velocity": 0.2755905511811024,
                    "duration": 0.06562824999997474
                },
                {
                    "name": "E5",
                    "midi": 76,
                    "time": 256.147059750004,
                    "velocity": 0.2755905511811024,
                    "duration": 0.06562824999997474
                },
                {
                    "name": "E4",
                    "midi": 64,
                    "time": 256.212688000004,
                    "velocity": 0.30708661417322836,
                    "duration": 0.5250260000000253
                },
                {
                    "name": "D5",
                    "midi": 74,
                    "time": 256.212688000004,
                    "velocity": 0.30708661417322836,
                    "duration": 0.26251300000001265
                },
                {
                    "name": "C5",
                    "midi": 72,
                    "time": 256.475201000004,
                    "velocity": 0.2677165354330709,
                    "duration": 0.26251300000001265
                },
                {
                    "name": "E4",
                    "midi": 64,
                    "time": 256.737714000004,
                    "velocity": 0.2677165354330709,
                    "duration": 0.13125650000000633
                },
                {
                    "name": "C5",
                    "midi": 72,
                    "time": 256.737714000004,
                    "velocity": 0.2677165354330709,
                    "duration": 0.13125650000000633
                },
                {
                    "name": "E4",
                    "midi": 64,
                    "time": 257.00022700000403,
                    "velocity": 0.2677165354330709,
                    "duration": 0.13125650000000633
                },
                {
                    "name": "C5",
                    "midi": 72,
                    "time": 257.00022700000403,
                    "velocity": 0.2677165354330709,
                    "duration": 0.13125650000000633
                },
                {
                    "name": "E4",
                    "midi": 64,
                    "time": 257.26274000000404,
                    "velocity": 0.30708661417322836,
                    "duration": 0.393769500000019
                },
                {
                    "name": "C5",
                    "midi": 72,
                    "time": 257.26274000000404,
                    "velocity": 0.30708661417322836,
                    "duration": 0.393769500000019
                },
                {
                    "name": "E4",
                    "midi": 64,
                    "time": 258.31279200000404,
                    "velocity": 0.5905511811023622,
                    "duration": 0.13125650000000633
                },
                {
                    "name": "G4",
                    "midi": 67,
                    "time": 258.31279200000404,
                    "velocity": 0.5905511811023622,
                    "duration": 0.5250259999999685
                },
                {
                    "name": "D4",
                    "midi": 62,
                    "time": 258.44404850000404,
                    "velocity": 0.5354330708661418,
                    "duration": 0.13125650000000633
                },
                {
                    "name": "E4",
                    "midi": 64,
                    "time": 258.57530500000405,
                    "velocity": 0.5354330708661418,
                    "duration": 0.13125650000000633
                },
                {
                    "name": "C4",
                    "midi": 60,
                    "time": 258.70656150000406,
                    "velocity": 0.5354330708661418,
                    "duration": 0.06562824999997474
                },
                {
                    "name": "F4",
                    "midi": 65,
                    "time": 258.837818000004,
                    "velocity": 0.5354330708661418,
                    "duration": 0.13125650000000633
                },
                {
                    "name": "A4",
                    "midi": 69,
                    "time": 258.837818000004,
                    "velocity": 0.5590551181102362,
                    "duration": 0.5250260000000253
                },
                {
                    "name": "D4",
                    "midi": 62,
                    "time": 259.100331000004,
                    "velocity": 0.5354330708661418,
                    "duration": 0.13125650000000633
                },
                {
                    "name": "E4",
                    "midi": 64,
                    "time": 259.36284400000403,
                    "velocity": 0.5905511811023622,
                    "duration": 0.13125650000000633
                },
                {
                    "name": "G4",
                    "midi": 67,
                    "time": 259.36284400000403,
                    "velocity": 0.5905511811023622,
                    "duration": 0.5250259999999685
                },
                {
                    "name": "D4",
                    "midi": 62,
                    "time": 259.49410050000404,
                    "velocity": 0.5433070866141733,
                    "duration": 0.13125650000000633
                },
                {
                    "name": "E4",
                    "midi": 64,
                    "time": 259.62535700000404,
                    "velocity": 0.5433070866141733,
                    "duration": 0.13125650000000633
                },
                {
                    "name": "C4",
                    "midi": 60,
                    "time": 259.75661350000405,
                    "velocity": 0.5433070866141733,
                    "duration": 0.06562824999997474
                },
                {
                    "name": "F4",
                    "midi": 65,
                    "time": 259.887870000004,
                    "velocity": 0.5354330708661418,
                    "duration": 0.13125650000000633
                },
                {
                    "name": "A4",
                    "midi": 69,
                    "time": 259.887870000004,
                    "velocity": 0.5590551181102362,
                    "duration": 0.5250260000000253
                },
                {
                    "name": "D4",
                    "midi": 62,
                    "time": 260.150383000004,
                    "velocity": 0.5354330708661418,
                    "duration": 0.13125650000000633
                },
                {
                    "name": "F5",
                    "midi": 77,
                    "time": 260.67540900000404,
                    "velocity": 0.4409448818897638,
                    "duration": 0.2625130000000695
                },
                {
                    "name": "A5",
                    "midi": 81,
                    "time": 260.67540900000404,
                    "velocity": 0.4409448818897638,
                    "duration": 0.0875043333333565
                },
                {
                    "name": "B4",
                    "midi": 71,
                    "time": 260.67540900000404,
                    "velocity": 0.4409448818897638,
                    "duration": 0.2625130000000695
                },
                {
                    "name": "B5",
                    "midi": 83,
                    "time": 260.7629133333374,
                    "velocity": 0.4409448818897638,
                    "duration": 0.0875043333333565
                },
                {
                    "name": "A5",
                    "midi": 81,
                    "time": 260.85041766667075,
                    "velocity": 0.4409448818897638,
                    "duration": 0.0875043333333565
                },
                {
                    "name": "G5",
                    "midi": 79,
                    "time": 260.9379220000041,
                    "velocity": 0.47244094488188976,
                    "duration": 0.13125650000000633
                },
                {
                    "name": "E5",
                    "midi": 76,
                    "time": 260.9379220000041,
                    "velocity": 0.47244094488188976,
                    "duration": 0.13125650000000633
                },
                {
                    "name": "C5",
                    "midi": 72,
                    "time": 260.9379220000041,
                    "velocity": 0.47244094488188976,
                    "duration": 0.13125650000000633
                },
                {
                    "name": "E5",
                    "midi": 76,
                    "time": 261.2004350000041,
                    "velocity": 0.4645669291338583,
                    "duration": 0.13125650000000633
                },
                {
                    "name": "G5",
                    "midi": 79,
                    "time": 261.2004350000041,
                    "velocity": 0.4645669291338583,
                    "duration": 0.13125650000000633
                },
                {
                    "name": "C5",
                    "midi": 72,
                    "time": 261.2004350000041,
                    "velocity": 0.4645669291338583,
                    "duration": 0.13125650000000633
                },
                {
                    "name": "G5",
                    "midi": 79,
                    "time": 261.46294800000413,
                    "velocity": 0.4645669291338583,
                    "duration": 1.0500519999999938
                },
                {
                    "name": "E5",
                    "midi": 76,
                    "time": 261.46294800000413,
                    "velocity": 0.4645669291338583,
                    "duration": 1.0500519999999938
                },
                {
                    "name": "C5",
                    "midi": 72,
                    "time": 261.46294800000413,
                    "velocity": 0.4645669291338583,
                    "duration": 1.0500519999999938
                },
                {
                    "name": "D#4",
                    "midi": 63,
                    "time": 262.5130000000041,
                    "velocity": 0.4094488188976378,
                    "duration": 0.5250260000000253
                },
                {
                    "name": "G4",
                    "midi": 67,
                    "time": 262.5130000000041,
                    "velocity": 0.4094488188976378,
                    "duration": 0.5250260000000253
                },
                {
                    "name": "B4",
                    "midi": 71,
                    "time": 263.03802600000415,
                    "velocity": 0.3779527559055118,
                    "duration": 0.26251300000001265
                },
                {
                    "name": "D#5",
                    "midi": 75,
                    "time": 263.03802600000415,
                    "velocity": 0.3779527559055118,
                    "duration": 0.26251300000001265
                },
                {
                    "name": "G5",
                    "midi": 79,
                    "time": 263.03802600000415,
                    "velocity": 0.3779527559055118,
                    "duration": 0.26251300000001265
                },
                {
                    "name": "B4",
                    "midi": 71,
                    "time": 263.30053900000416,
                    "velocity": 0.3700787401574803,
                    "duration": 0.26251300000001265
                },
                {
                    "name": "D#5",
                    "midi": 75,
                    "time": 263.30053900000416,
                    "velocity": 0.3700787401574803,
                    "duration": 0.26251300000001265
                },
                {
                    "name": "G5",
                    "midi": 79,
                    "time": 263.30053900000416,
                    "velocity": 0.3700787401574803,
                    "duration": 0.26251300000001265
                },
                {
                    "name": "B4",
                    "midi": 71,
                    "time": 263.5630520000042,
                    "velocity": 0.36220472440944884,
                    "duration": 0.5250260000000253
                },
                {
                    "name": "D#5",
                    "midi": 75,
                    "time": 263.5630520000042,
                    "velocity": 0.36220472440944884,
                    "duration": 0.5250260000000253
                },
                {
                    "name": "G5",
                    "midi": 79,
                    "time": 263.5630520000042,
                    "velocity": 0.36220472440944884,
                    "duration": 0.5250260000000253
                },
                {
                    "name": "D#5",
                    "midi": 75,
                    "time": 264.0880780000042,
                    "velocity": 0.2677165354330709,
                    "duration": 0.06562824999997474
                },
                {
                    "name": "G5",
                    "midi": 79,
                    "time": 264.0880780000042,
                    "velocity": 0.2677165354330709,
                    "duration": 0.06562824999997474
                },
                {
                    "name": "G5",
                    "midi": 79,
                    "time": 264.35059100000416,
                    "velocity": 0.2677165354330709,
                    "duration": 0.06562824999997474
                },
                {
                    "name": "D#5",
                    "midi": 75,
                    "time": 264.35059100000416,
                    "velocity": 0.2677165354330709,
                    "duration": 0.06562824999997474
                },
                {
                    "name": "G#5",
                    "midi": 80,
                    "time": 264.35059100000416,
                    "velocity": 0.2677165354330709,
                    "duration": 0.06562824999997474
                },
                {
                    "name": "D#5",
                    "midi": 75,
                    "time": 264.6131040000041,
                    "velocity": 0.29133858267716534,
                    "duration": 0.5250260000000253
                },
                {
                    "name": "G5",
                    "midi": 79,
                    "time": 264.6131040000041,
                    "velocity": 0.29133858267716534,
                    "duration": 0.5250260000000253
                },
                {
                    "name": "A#5",
                    "midi": 82,
                    "time": 264.6131040000041,
                    "velocity": 0.29133858267716534,
                    "duration": 0.26251300000001265
                },
                {
                    "name": "C6",
                    "midi": 84,
                    "time": 264.8756170000041,
                    "velocity": 0.2677165354330709,
                    "duration": 0.26251300000001265
                },
                {
                    "name": "D#5",
                    "midi": 75,
                    "time": 265.13813000000414,
                    "velocity": 0.2677165354330709,
                    "duration": 0.06562824999997474
                },
                {
                    "name": "G5",
                    "midi": 79,
                    "time": 265.13813000000414,
                    "velocity": 0.2677165354330709,
                    "duration": 0.06562824999997474
                },
                {
                    "name": "D#5",
                    "midi": 75,
                    "time": 265.4006430000041,
                    "velocity": 0.2677165354330709,
                    "duration": 0.06562824999997474
                },
                {
                    "name": "G5",
                    "midi": 79,
                    "time": 265.4006430000041,
                    "velocity": 0.2677165354330709,
                    "duration": 0.06562824999997474
                },
                {
                    "name": "G#5",
                    "midi": 80,
                    "time": 265.4006430000041,
                    "velocity": 0.2677165354330709,
                    "duration": 0.06562824999997474
                },
                {
                    "name": "D5",
                    "midi": 74,
                    "time": 265.66315600000405,
                    "velocity": 0.2992125984251969,
                    "duration": 0.5250260000000253
                },
                {
                    "name": "G#5",
                    "midi": 80,
                    "time": 265.66315600000405,
                    "velocity": 0.2992125984251969,
                    "duration": 0.5250260000000253
                },
                {
                    "name": "A#5",
                    "midi": 82,
                    "time": 265.66315600000405,
                    "velocity": 0.2992125984251969,
                    "duration": 0.26251300000001265
                },
                {
                    "name": "C6",
                    "midi": 84,
                    "time": 265.92566900000406,
                    "velocity": 0.2677165354330709,
                    "duration": 0.26251300000001265
                },
                {
                    "name": "A#4",
                    "midi": 70,
                    "time": 266.1881820000041,
                    "velocity": 0.2677165354330709,
                    "duration": 0.13125650000000633
                },
                {
                    "name": "D5",
                    "midi": 74,
                    "time": 266.1881820000041,
                    "velocity": 0.2677165354330709,
                    "duration": 0.13125650000000633
                },
                {
                    "name": "G5",
                    "midi": 79,
                    "time": 266.1881820000041,
                    "velocity": 0.2677165354330709,
                    "duration": 0.13125650000000633
                },
                {
                    "name": "A#4",
                    "midi": 70,
                    "time": 266.4506950000041,
                    "velocity": 0.2677165354330709,
                    "duration": 0.13125650000000633
                },
                {
                    "name": "D5",
                    "midi": 74,
                    "time": 266.4506950000041,
                    "velocity": 0.2677165354330709,
                    "duration": 0.13125650000000633
                },
                {
                    "name": "F5",
                    "midi": 77,
                    "time": 266.4506950000041,
                    "velocity": 0.2677165354330709,
                    "duration": 0.13125650000000633
                },
                {
                    "name": "F5",
                    "midi": 77,
                    "time": 266.5819515000041,
                    "velocity": 0.2755905511811024,
                    "duration": 0.06562824999997474
                },
                {
                    "name": "G5",
                    "midi": 79,
                    "time": 266.64757975000407,
                    "velocity": 0.2755905511811024,
                    "duration": 0.06562824999997474
                },
                {
                    "name": "G4",
                    "midi": 67,
                    "time": 266.71320800000404,
                    "velocity": 0.30708661417322836,
                    "duration": 0.5250260000000253
                },
                {
                    "name": "F5",
                    "midi": 77,
                    "time": 266.71320800000404,
                    "velocity": 0.30708661417322836,
                    "duration": 0.26251300000001265
                },
                {
                    "name": "D#5",
                    "midi": 75,
                    "time": 266.97572100000406,
                    "velocity": 0.2677165354330709,
                    "duration": 0.26251300000001265
                },
                {
                    "name": "G4",
                    "midi": 67,
                    "time": 267.23823400000407,
                    "velocity": 0.2677165354330709,
                    "duration": 0.13125650000000633
                },
                {
                    "name": "D#5",
                    "midi": 75,
                    "time": 267.23823400000407,
                    "velocity": 0.2677165354330709,
                    "duration": 0.13125650000000633
                },
                {
                    "name": "G4",
                    "midi": 67,
                    "time": 267.5007470000041,
                    "velocity": 0.2677165354330709,
                    "duration": 0.13125650000000633
                },
                {
                    "name": "D#5",
                    "midi": 75,
                    "time": 267.5007470000041,
                    "velocity": 0.2677165354330709,
                    "duration": 0.13125650000000633
                },
                {
                    "name": "G4",
                    "midi": 67,
                    "time": 267.7632600000041,
                    "velocity": 0.30708661417322836,
                    "duration": 0.5250260000000253
                },
                {
                    "name": "D#5",
                    "midi": 75,
                    "time": 267.7632600000041,
                    "velocity": 0.30708661417322836,
                    "duration": 0.5250260000000253
                },
                {
                    "name": "G3",
                    "midi": 55,
                    "time": 268.4195425000041,
                    "velocity": 0.1968503937007874,
                    "duration": 0.13125650000000633
                },
                {
                    "name": "C#4",
                    "midi": 61,
                    "time": 268.4195425000041,
                    "velocity": 0.2204724409448819,
                    "duration": 0.13125650000000633
                },
                {
                    "name": "D#4",
                    "midi": 63,
                    "time": 268.68205550000414,
                    "velocity": 0.2283464566929134,
                    "duration": 0.13125650000000633
                },
                {
                    "name": "C#4",
                    "midi": 61,
                    "time": 268.68205550000414,
                    "velocity": 0.1968503937007874,
                    "duration": 0.13125650000000633
                },
                {
                    "name": "G3",
                    "midi": 55,
                    "time": 268.68205550000414,
                    "velocity": 0.1968503937007874,
                    "duration": 0.13125650000000633
                },
                {
                    "name": "G3",
                    "midi": 55,
                    "time": 268.94456850000415,
                    "velocity": 0.1968503937007874,
                    "duration": 0.13125650000000633
                },
                {
                    "name": "A#3",
                    "midi": 58,
                    "time": 268.94456850000415,
                    "velocity": 0.1968503937007874,
                    "duration": 0.13125650000000633
                },
                {
                    "name": "F4",
                    "midi": 65,
                    "time": 268.94456850000415,
                    "velocity": 0.2677165354330709,
                    "duration": 0.13125650000000633
                },
                {
                    "name": "G3",
                    "midi": 55,
                    "time": 269.20708150000416,
                    "velocity": 0.2047244094488189,
                    "duration": 0.13125650000000633
                },
                {
                    "name": "C#4",
                    "midi": 61,
                    "time": 269.20708150000416,
                    "velocity": 0.2047244094488189,
                    "duration": 0.13125650000000633
                },
                {
                    "name": "G4",
                    "midi": 67,
                    "time": 269.20708150000416,
                    "velocity": 0.25984251968503935,
                    "duration": 0.13125650000000633
                },
                {
                    "name": "G3",
                    "midi": 55,
                    "time": 269.4695945000042,
                    "velocity": 0.2125984251968504,
                    "duration": 0.13125650000000633
                },
                {
                    "name": "C#4",
                    "midi": 61,
                    "time": 269.4695945000042,
                    "velocity": 0.2440944881889764,
                    "duration": 0.13125650000000633
                },
                {
                    "name": "D#4",
                    "midi": 63,
                    "time": 269.7321075000042,
                    "velocity": 0.2440944881889764,
                    "duration": 0.13125650000000633
                },
                {
                    "name": "G3",
                    "midi": 55,
                    "time": 269.7321075000042,
                    "velocity": 0.2125984251968504,
                    "duration": 0.13125650000000633
                },
                {
                    "name": "C#4",
                    "midi": 61,
                    "time": 269.7321075000042,
                    "velocity": 0.2125984251968504,
                    "duration": 0.13125650000000633
                },
                {
                    "name": "G3",
                    "midi": 55,
                    "time": 269.9946205000042,
                    "velocity": 0.2204724409448819,
                    "duration": 0.13125650000000633
                },
                {
                    "name": "C#4",
                    "midi": 61,
                    "time": 269.9946205000042,
                    "velocity": 0.2204724409448819,
                    "duration": 0.13125650000000633
                },
                {
                    "name": "F4",
                    "midi": 65,
                    "time": 269.9946205000042,
                    "velocity": 0.28346456692913385,
                    "duration": 0.13125650000000633
                },
                {
                    "name": "G3",
                    "midi": 55,
                    "time": 270.2571335000042,
                    "velocity": 0.2204724409448819,
                    "duration": 0.13125650000000633
                },
                {
                    "name": "C#4",
                    "midi": 61,
                    "time": 270.2571335000042,
                    "velocity": 0.2204724409448819,
                    "duration": 0.13125650000000633
                },
                {
                    "name": "G4",
                    "midi": 67,
                    "time": 270.2571335000042,
                    "velocity": 0.25984251968503935,
                    "duration": 0.13125650000000633
                },
                {
                    "name": "G3",
                    "midi": 55,
                    "time": 270.5196465000042,
                    "velocity": 0.2283464566929134,
                    "duration": 0.13125650000000633
                },
                {
                    "name": "C#4",
                    "midi": 61,
                    "time": 270.5196465000042,
                    "velocity": 0.2677165354330709,
                    "duration": 0.13125650000000633
                },
                {
                    "name": "D#4",
                    "midi": 63,
                    "time": 270.78215950000424,
                    "velocity": 0.2677165354330709,
                    "duration": 0.13125650000000633
                },
                {
                    "name": "G3",
                    "midi": 55,
                    "time": 270.78215950000424,
                    "velocity": 0.23622047244094488,
                    "duration": 0.13125650000000633
                },
                {
                    "name": "C#4",
                    "midi": 61,
                    "time": 270.78215950000424,
                    "velocity": 0.23622047244094488,
                    "duration": 0.13125650000000633
                },
                {
                    "name": "G3",
                    "midi": 55,
                    "time": 271.04467250000425,
                    "velocity": 0.2283464566929134,
                    "duration": 0.13125650000000633
                },
                {
                    "name": "C#4",
                    "midi": 61,
                    "time": 271.04467250000425,
                    "velocity": 0.2283464566929134,
                    "duration": 0.13125650000000633
                },
                {
                    "name": "F4",
                    "midi": 65,
                    "time": 271.04467250000425,
                    "velocity": 0.30708661417322836,
                    "duration": 0.13125650000000633
                },
                {
                    "name": "G#4",
                    "midi": 68,
                    "time": 271.30718550000427,
                    "velocity": 0.33070866141732286,
                    "duration": 0.13125650000000633
                },
                {
                    "name": "G3",
                    "midi": 55,
                    "time": 271.5696985000043,
                    "velocity": 0.2440944881889764,
                    "duration": 0.13125650000000633
                },
                {
                    "name": "C#4",
                    "midi": 61,
                    "time": 271.5696985000043,
                    "velocity": 0.2440944881889764,
                    "duration": 0.13125650000000633
                },
                {
                    "name": "G4",
                    "midi": 67,
                    "time": 271.5696985000043,
                    "velocity": 0.2992125984251969,
                    "duration": 0.13125650000000633
                },
                {
                    "name": "D#4",
                    "midi": 63,
                    "time": 271.8322115000043,
                    "velocity": 0.2992125984251969,
                    "duration": 0.13125650000000633
                },
                {
                    "name": "G3",
                    "midi": 55,
                    "time": 271.8322115000043,
                    "velocity": 0.2440944881889764,
                    "duration": 0.13125650000000633
                },
                {
                    "name": "C#4",
                    "midi": 61,
                    "time": 271.8322115000043,
                    "velocity": 0.2440944881889764,
                    "duration": 0.13125650000000633
                },
                {
                    "name": "G3",
                    "midi": 55,
                    "time": 272.0947245000043,
                    "velocity": 0.2440944881889764,
                    "duration": 0.13125650000000633
                },
                {
                    "name": "C#4",
                    "midi": 61,
                    "time": 272.0947245000043,
                    "velocity": 0.2440944881889764,
                    "duration": 0.13125650000000633
                },
                {
                    "name": "F4",
                    "midi": 65,
                    "time": 272.0947245000043,
                    "velocity": 0.30708661417322836,
                    "duration": 0.13125650000000633
                },
                {
                    "name": "G3",
                    "midi": 55,
                    "time": 272.3572375000043,
                    "velocity": 0.25196850393700787,
                    "duration": 0.13125650000000633
                },
                {
                    "name": "C#4",
                    "midi": 61,
                    "time": 272.3572375000043,
                    "velocity": 0.2992125984251969,
                    "duration": 0.13125650000000633
                },
                {
                    "name": "G#3",
                    "midi": 56,
                    "time": 272.61975050000433,
                    "velocity": 0.28346456692913385,
                    "duration": 0.13125650000000633
                },
                {
                    "name": "D#4",
                    "midi": 63,
                    "time": 272.61975050000433,
                    "velocity": 0.28346456692913385,
                    "duration": 0.13125650000000633
                },
                {
                    "name": "D#4",
                    "midi": 63,
                    "time": 272.88226350000434,
                    "velocity": 0.2755905511811024,
                    "duration": 0.13125650000000633
                },
                {
                    "name": "F4",
                    "midi": 65,
                    "time": 272.88226350000434,
                    "velocity": 0.2755905511811024,
                    "duration": 0.13125650000000633
                },
                {
                    "name": "G#3",
                    "midi": 56,
                    "time": 272.88226350000434,
                    "velocity": 0.2755905511811024,
                    "duration": 0.13125650000000633
                },
                {
                    "name": "G#3",
                    "midi": 56,
                    "time": 273.14477650000435,
                    "velocity": 0.23622047244094488,
                    "duration": 0.13125650000000633
                },
                {
                    "name": "D#4",
                    "midi": 63,
                    "time": 273.14477650000435,
                    "velocity": 0.23622047244094488,
                    "duration": 0.13125650000000633
                },
                {
                    "name": "G4",
                    "midi": 67,
                    "time": 273.14477650000435,
                    "velocity": 0.31496062992125984,
                    "duration": 0.13125650000000633
                },
                {
                    "name": "G#3",
                    "midi": 56,
                    "time": 273.40728950000437,
                    "velocity": 0.2440944881889764,
                    "duration": 0.13125650000000633
                },
                {
                    "name": "D#4",
                    "midi": 63,
                    "time": 273.40728950000437,
                    "velocity": 0.2440944881889764,
                    "duration": 0.13125650000000633
                },
                {
                    "name": "G#4",
                    "midi": 68,
                    "time": 273.40728950000437,
                    "velocity": 0.30708661417322836,
                    "duration": 0.13125650000000633
                },
                {
                    "name": "G#3",
                    "midi": 56,
                    "time": 273.6698025000044,
                    "velocity": 0.2440944881889764,
                    "duration": 0.13125650000000633
                },
                {
                    "name": "D#4",
                    "midi": 63,
                    "time": 273.6698025000044,
                    "velocity": 0.28346456692913385,
                    "duration": 0.13125650000000633
                },
                {
                    "name": "D#4",
                    "midi": 63,
                    "time": 273.9323155000044,
                    "velocity": 0.28346456692913385,
                    "duration": 0.13125650000000633
                },
                {
                    "name": "G#3",
                    "midi": 56,
                    "time": 273.9323155000044,
                    "velocity": 0.2440944881889764,
                    "duration": 0.13125650000000633
                },
                {
                    "name": "F4",
                    "midi": 65,
                    "time": 273.9323155000044,
                    "velocity": 0.2440944881889764,
                    "duration": 0.13125650000000633
                },
                {
                    "name": "G#3",
                    "midi": 56,
                    "time": 274.1948285000044,
                    "velocity": 0.25196850393700787,
                    "duration": 0.13125650000000633
                },
                {
                    "name": "D#4",
                    "midi": 63,
                    "time": 274.1948285000044,
                    "velocity": 0.25196850393700787,
                    "duration": 0.13125650000000633
                },
                {
                    "name": "G4",
                    "midi": 67,
                    "time": 274.1948285000044,
                    "velocity": 0.3228346456692913,
                    "duration": 0.13125650000000633
                },
                {
                    "name": "G#3",
                    "midi": 56,
                    "time": 274.4573415000044,
                    "velocity": 0.25196850393700787,
                    "duration": 0.13125650000000633
                },
                {
                    "name": "D#4",
                    "midi": 63,
                    "time": 274.4573415000044,
                    "velocity": 0.25196850393700787,
                    "duration": 0.13125650000000633
                },
                {
                    "name": "G#4",
                    "midi": 68,
                    "time": 274.4573415000044,
                    "velocity": 0.30708661417322836,
                    "duration": 0.13125650000000633
                },
                {
                    "name": "G#3",
                    "midi": 56,
                    "time": 274.71985450000443,
                    "velocity": 0.2677165354330709,
                    "duration": 0.13125650000000633
                },
                {
                    "name": "D#4",
                    "midi": 63,
                    "time": 274.71985450000443,
                    "velocity": 0.30708661417322836,
                    "duration": 0.13125650000000633
                },
                {
                    "name": "D#4",
                    "midi": 63,
                    "time": 274.98236750000444,
                    "velocity": 0.30708661417322836,
                    "duration": 0.13125650000000633
                },
                {
                    "name": "G#3",
                    "midi": 56,
                    "time": 274.98236750000444,
                    "velocity": 0.2755905511811024,
                    "duration": 0.13125650000000633
                },
                {
                    "name": "F4",
                    "midi": 65,
                    "time": 274.98236750000444,
                    "velocity": 0.2755905511811024,
                    "duration": 0.13125650000000633
                },
                {
                    "name": "G#3",
                    "midi": 56,
                    "time": 275.24488050000446,
                    "velocity": 0.2677165354330709,
                    "duration": 0.13125650000000633
                },
                {
                    "name": "D#4",
                    "midi": 63,
                    "time": 275.24488050000446,
                    "velocity": 0.2677165354330709,
                    "duration": 0.13125650000000633
                },
                {
                    "name": "G4",
                    "midi": 67,
                    "time": 275.24488050000446,
                    "velocity": 0.3464566929133858,
                    "duration": 0.13125650000000633
                },
                {
                    "name": "A#4",
                    "midi": 70,
                    "time": 275.50739350000447,
                    "velocity": 0.3779527559055118,
                    "duration": 0.13125650000000633
                },
                {
                    "name": "G#3",
                    "midi": 56,
                    "time": 275.7699065000045,
                    "velocity": 0.28346456692913385,
                    "duration": 0.13125650000000633
                },
                {
                    "name": "D#4",
                    "midi": 63,
                    "time": 275.7699065000045,
                    "velocity": 0.28346456692913385,
                    "duration": 0.13125650000000633
                },
                {
                    "name": "G#4",
                    "midi": 68,
                    "time": 275.7699065000045,
                    "velocity": 0.3464566929133858,
                    "duration": 0.13125650000000633
                },
                {
                    "name": "D#4",
                    "midi": 63,
                    "time": 276.0324195000045,
                    "velocity": 0.3464566929133858,
                    "duration": 0.13125650000000633
                },
                {
                    "name": "G#3",
                    "midi": 56,
                    "time": 276.0324195000045,
                    "velocity": 0.28346456692913385,
                    "duration": 0.13125650000000633
                },
                {
                    "name": "F4",
                    "midi": 65,
                    "time": 276.0324195000045,
                    "velocity": 0.28346456692913385,
                    "duration": 0.13125650000000633
                },
                {
                    "name": "G#3",
                    "midi": 56,
                    "time": 276.2949325000045,
                    "velocity": 0.28346456692913385,
                    "duration": 0.13125650000000633
                },
                {
                    "name": "D#4",
                    "midi": 63,
                    "time": 276.2949325000045,
                    "velocity": 0.28346456692913385,
                    "duration": 0.13125650000000633
                },
                {
                    "name": "G4",
                    "midi": 67,
                    "time": 276.2949325000045,
                    "velocity": 0.3543307086614173,
                    "duration": 0.13125650000000633
                },
                {
                    "name": "G#3",
                    "midi": 56,
                    "time": 276.5574455000045,
                    "velocity": 0.28346456692913385,
                    "duration": 0.13125650000000633
                },
                {
                    "name": "D#4",
                    "midi": 63,
                    "time": 276.5574455000045,
                    "velocity": 0.33858267716535434,
                    "duration": 0.13125650000000633
                },
                {
                    "name": "C4",
                    "midi": 60,
                    "time": 276.81995850000453,
                    "velocity": 0.3779527559055118,
                    "duration": 0.13125650000000633
                },
                {
                    "name": "F#4",
                    "midi": 66,
                    "time": 276.81995850000453,
                    "velocity": 0.3779527559055118,
                    "duration": 0.13125650000000633
                },
                {
                    "name": "F#4",
                    "midi": 66,
                    "time": 277.08247150000454,
                    "velocity": 0.3464566929133858,
                    "duration": 0.13125650000000633
                },
                {
                    "name": "G#4",
                    "midi": 68,
                    "time": 277.08247150000454,
                    "velocity": 0.3464566929133858,
                    "duration": 0.13125650000000633
                },
                {
                    "name": "C4",
                    "midi": 60,
                    "time": 277.08247150000454,
                    "velocity": 0.3464566929133858,
                    "duration": 0.13125650000000633
                },
                {
                    "name": "C4",
                    "midi": 60,
                    "time": 277.34498450000456,
                    "velocity": 0.3700787401574803,
                    "duration": 0.13125650000000633
                },
                {
                    "name": "F#4",
                    "midi": 66,
                    "time": 277.34498450000456,
                    "velocity": 0.3700787401574803,
                    "duration": 0.13125650000000633
                },
                {
                    "name": "A#4",
                    "midi": 70,
                    "time": 277.34498450000456,
                    "velocity": 0.3700787401574803,
                    "duration": 0.13125650000000633
                },
                {
                    "name": "C4",
                    "midi": 60,
                    "time": 277.60749750000457,
                    "velocity": 0.29133858267716534,
                    "duration": 0.13125650000000633
                },
                {
                    "name": "F#4",
                    "midi": 66,
                    "time": 277.60749750000457,
                    "velocity": 0.29133858267716534,
                    "duration": 0.13125650000000633
                },
                {
                    "name": "C5",
                    "midi": 72,
                    "time": 277.60749750000457,
                    "velocity": 0.36220472440944884,
                    "duration": 0.13125650000000633
                },
                {
                    "name": "C4",
                    "midi": 60,
                    "time": 277.8700105000046,
                    "velocity": 0.3779527559055118,
                    "duration": 0.13125650000000633
                },
                {
                    "name": "F#4",
                    "midi": 66,
                    "time": 277.8700105000046,
                    "velocity": 0.3779527559055118,
                    "duration": 0.13125650000000633
                },
                {
                    "name": "F#4",
                    "midi": 66,
                    "time": 278.1325235000046,
                    "velocity": 0.3464566929133858,
                    "duration": 0.13125650000000633
                },
                {
                    "name": "C4",
                    "midi": 60,
                    "time": 278.1325235000046,
                    "velocity": 0.29133858267716534,
                    "duration": 0.13125650000000633
                },
                {
                    "name": "G#4",
                    "midi": 68,
                    "time": 278.1325235000046,
                    "velocity": 0.29133858267716534,
                    "duration": 0.13125650000000633
                },
                {
                    "name": "C4",
                    "midi": 60,
                    "time": 278.3950365000046,
                    "velocity": 0.3700787401574803,
                    "duration": 0.13125650000000633
                },
                {
                    "name": "F#4",
                    "midi": 66,
                    "time": 278.3950365000046,
                    "velocity": 0.3700787401574803,
                    "duration": 0.13125650000000633
                },
                {
                    "name": "A#4",
                    "midi": 70,
                    "time": 278.3950365000046,
                    "velocity": 0.3700787401574803,
                    "duration": 0.13125650000000633
                },
                {
                    "name": "C4",
                    "midi": 60,
                    "time": 278.6575495000046,
                    "velocity": 0.29133858267716534,
                    "duration": 0.13125650000000633
                },
                {
                    "name": "F#4",
                    "midi": 66,
                    "time": 278.6575495000046,
                    "velocity": 0.29133858267716534,
                    "duration": 0.13125650000000633
                },
                {
                    "name": "C5",
                    "midi": 72,
                    "time": 278.6575495000046,
                    "velocity": 0.3543307086614173,
                    "duration": 0.13125650000000633
                },
                {
                    "name": "C4",
                    "midi": 60,
                    "time": 278.92006250000463,
                    "velocity": 0.3700787401574803,
                    "duration": 0.13125650000000633
                },
                {
                    "name": "F#4",
                    "midi": 66,
                    "time": 278.92006250000463,
                    "velocity": 0.3700787401574803,
                    "duration": 0.13125650000000633
                },
                {
                    "name": "F#4",
                    "midi": 66,
                    "time": 279.18257550000465,
                    "velocity": 0.36220472440944884,
                    "duration": 0.13125650000000633
                },
                {
                    "name": "C4",
                    "midi": 60,
                    "time": 279.18257550000465,
                    "velocity": 0.36220472440944884,
                    "duration": 0.13125650000000633
                },
                {
                    "name": "G#4",
                    "midi": 68,
                    "time": 279.18257550000465,
                    "velocity": 0.36220472440944884,
                    "duration": 0.13125650000000633
                },
                {
                    "name": "C4",
                    "midi": 60,
                    "time": 279.44508850000466,
                    "velocity": 0.4409448818897638,
                    "duration": 0.13125650000000633
                },
                {
                    "name": "F#4",
                    "midi": 66,
                    "time": 279.44508850000466,
                    "velocity": 0.4409448818897638,
                    "duration": 0.13125650000000633
                },
                {
                    "name": "A#4",
                    "midi": 70,
                    "time": 279.44508850000466,
                    "velocity": 0.4409448818897638,
                    "duration": 0.13125650000000633
                },
                {
                    "name": "C#5",
                    "midi": 73,
                    "time": 279.70760150000467,
                    "velocity": 0.3937007874015748,
                    "duration": 0.13125650000000633
                },
                {
                    "name": "C4",
                    "midi": 60,
                    "time": 279.9701145000047,
                    "velocity": 0.4330708661417323,
                    "duration": 0.13125650000000633
                },
                {
                    "name": "F#4",
                    "midi": 66,
                    "time": 279.9701145000047,
                    "velocity": 0.4330708661417323,
                    "duration": 0.13125650000000633
                },
                {
                    "name": "C5",
                    "midi": 72,
                    "time": 279.9701145000047,
                    "velocity": 0.4330708661417323,
                    "duration": 0.13125650000000633
                },
                {
                    "name": "G#4",
                    "midi": 68,
                    "time": 280.2326275000047,
                    "velocity": 0.3779527559055118,
                    "duration": 0.13125650000000633
                },
                {
                    "name": "C4",
                    "midi": 60,
                    "time": 280.2326275000047,
                    "velocity": 0.31496062992125984,
                    "duration": 0.13125650000000633
                },
                {
                    "name": "F#4",
                    "midi": 66,
                    "time": 280.2326275000047,
                    "velocity": 0.31496062992125984,
                    "duration": 0.13125650000000633
                },
                {
                    "name": "C4",
                    "midi": 60,
                    "time": 280.4951405000047,
                    "velocity": 0.31496062992125984,
                    "duration": 0.13125650000000633
                },
                {
                    "name": "F#4",
                    "midi": 66,
                    "time": 280.4951405000047,
                    "velocity": 0.31496062992125984,
                    "duration": 0.13125650000000633
                },
                {
                    "name": "A#4",
                    "midi": 70,
                    "time": 280.4951405000047,
                    "velocity": 0.3937007874015748,
                    "duration": 0.13125650000000633
                },
                {
                    "name": "C4",
                    "midi": 60,
                    "time": 280.7576535000047,
                    "velocity": 0.31496062992125984,
                    "duration": 0.13125650000000633
                },
                {
                    "name": "F#4",
                    "midi": 66,
                    "time": 280.7576535000047,
                    "velocity": 0.3700787401574803,
                    "duration": 0.13125650000000633
                },
                {
                    "name": "C#4",
                    "midi": 61,
                    "time": 281.02016650000473,
                    "velocity": 0.4645669291338583,
                    "duration": 0.13125650000000633
                },
                {
                    "name": "G#4",
                    "midi": 68,
                    "time": 281.02016650000473,
                    "velocity": 0.4645669291338583,
                    "duration": 0.13125650000000633
                },
                {
                    "name": "G#4",
                    "midi": 68,
                    "time": 281.28267950000475,
                    "velocity": 0.4094488188976378,
                    "duration": 0.13125650000000633
                },
                {
                    "name": "A#4",
                    "midi": 70,
                    "time": 281.28267950000475,
                    "velocity": 0.4094488188976378,
                    "duration": 0.13125650000000633
                },
                {
                    "name": "C#4",
                    "midi": 61,
                    "time": 281.28267950000475,
                    "velocity": 0.4094488188976378,
                    "duration": 0.13125650000000633
                },
                {
                    "name": "C#4",
                    "midi": 61,
                    "time": 281.54519250000476,
                    "velocity": 0.44881889763779526,
                    "duration": 0.13125650000000633
                },
                {
                    "name": "G#4",
                    "midi": 68,
                    "time": 281.54519250000476,
                    "velocity": 0.44881889763779526,
                    "duration": 0.13125650000000633
                },
                {
                    "name": "C5",
                    "midi": 72,
                    "time": 281.54519250000476,
                    "velocity": 0.44881889763779526,
                    "duration": 0.13125650000000633
                },
                {
                    "name": "C#4",
                    "midi": 61,
                    "time": 281.8077055000048,
                    "velocity": 0.4330708661417323,
                    "duration": 0.13125650000000633
                },
                {
                    "name": "G#4",
                    "midi": 68,
                    "time": 281.8077055000048,
                    "velocity": 0.4330708661417323,
                    "duration": 0.13125650000000633
                },
                {
                    "name": "C#5",
                    "midi": 73,
                    "time": 281.8077055000048,
                    "velocity": 0.4330708661417323,
                    "duration": 0.13125650000000633
                },
                {
                    "name": "C#4",
                    "midi": 61,
                    "time": 282.0702185000048,
                    "velocity": 0.4645669291338583,
                    "duration": 0.13125650000000633
                },
                {
                    "name": "G#4",
                    "midi": 68,
                    "time": 282.0702185000048,
                    "velocity": 0.4645669291338583,
                    "duration": 0.13125650000000633
                },
                {
                    "name": "G#4",
                    "midi": 68,
                    "time": 282.3327315000048,
                    "velocity": 0.41732283464566927,
                    "duration": 0.13125650000000633
                },
                {
                    "name": "C#4",
                    "midi": 61,
                    "time": 282.3327315000048,
                    "velocity": 0.41732283464566927,
                    "duration": 0.13125650000000633
                },
                {
                    "name": "A#4",
                    "midi": 70,
                    "time": 282.3327315000048,
                    "velocity": 0.41732283464566927,
                    "duration": 0.13125650000000633
                },
                {
                    "name": "C#4",
                    "midi": 61,
                    "time": 282.5952445000048,
                    "velocity": 0.4645669291338583,
                    "duration": 0.13125650000000633
                },
                {
                    "name": "G#4",
                    "midi": 68,
                    "time": 282.5952445000048,
                    "velocity": 0.4645669291338583,
                    "duration": 0.13125650000000633
                },
                {
                    "name": "C5",
                    "midi": 72,
                    "time": 282.5952445000048,
                    "velocity": 0.4645669291338583,
                    "duration": 0.13125650000000633
                },
                {
                    "name": "C#4",
                    "midi": 61,
                    "time": 282.8577575000048,
                    "velocity": 0.4330708661417323,
                    "duration": 0.13125650000000633
                },
                {
                    "name": "G#4",
                    "midi": 68,
                    "time": 282.8577575000048,
                    "velocity": 0.4330708661417323,
                    "duration": 0.13125650000000633
                },
                {
                    "name": "C#5",
                    "midi": 73,
                    "time": 282.8577575000048,
                    "velocity": 0.4330708661417323,
                    "duration": 0.13125650000000633
                },
                {
                    "name": "C#4",
                    "midi": 61,
                    "time": 283.12027050000484,
                    "velocity": 0.4645669291338583,
                    "duration": 0.13125650000000633
                },
                {
                    "name": "G#4",
                    "midi": 68,
                    "time": 283.12027050000484,
                    "velocity": 0.4645669291338583,
                    "duration": 0.13125650000000633
                },
                {
                    "name": "G#4",
                    "midi": 68,
                    "time": 283.38278350000485,
                    "velocity": 0.44881889763779526,
                    "duration": 0.13125650000000633
                },
                {
                    "name": "C#4",
                    "midi": 61,
                    "time": 283.38278350000485,
                    "velocity": 0.44881889763779526,
                    "duration": 0.13125650000000633
                },
                {
                    "name": "A#4",
                    "midi": 70,
                    "time": 283.38278350000485,
                    "velocity": 0.44881889763779526,
                    "duration": 0.13125650000000633
                },
                {
                    "name": "C#4",
                    "midi": 61,
                    "time": 283.64529650000486,
                    "velocity": 0.5039370078740157,
                    "duration": 0.13125650000000633
                },
                {
                    "name": "G#4",
                    "midi": 68,
                    "time": 283.64529650000486,
                    "velocity": 0.5039370078740157,
                    "duration": 0.13125650000000633
                },
                {
                    "name": "C5",
                    "midi": 72,
                    "time": 283.64529650000486,
                    "velocity": 0.5039370078740157,
                    "duration": 0.13125650000000633
                },
                {
                    "name": "D#5",
                    "midi": 75,
                    "time": 283.9078095000049,
                    "velocity": 0.5039370078740157,
                    "duration": 0.13125650000000633
                },
                {
                    "name": "C#4",
                    "midi": 61,
                    "time": 284.1703225000049,
                    "velocity": 0.4881889763779528,
                    "duration": 0.13125650000000633
                },
                {
                    "name": "G#4",
                    "midi": 68,
                    "time": 284.1703225000049,
                    "velocity": 0.4881889763779528,
                    "duration": 0.13125650000000633
                },
                {
                    "name": "C#5",
                    "midi": 73,
                    "time": 284.1703225000049,
                    "velocity": 0.4881889763779528,
                    "duration": 0.13125650000000633
                },
                {
                    "name": "A#4",
                    "midi": 70,
                    "time": 284.4328355000049,
                    "velocity": 0.4645669291338583,
                    "duration": 0.13125650000000633
                },
                {
                    "name": "C#4",
                    "midi": 61,
                    "time": 284.4328355000049,
                    "velocity": 0.3779527559055118,
                    "duration": 0.13125650000000633
                },
                {
                    "name": "G#4",
                    "midi": 68,
                    "time": 284.4328355000049,
                    "velocity": 0.3779527559055118,
                    "duration": 0.13125650000000633
                },
                {
                    "name": "C#4",
                    "midi": 61,
                    "time": 284.6953485000049,
                    "velocity": 0.3779527559055118,
                    "duration": 0.13125650000000633
                },
                {
                    "name": "G#4",
                    "midi": 68,
                    "time": 284.6953485000049,
                    "velocity": 0.3779527559055118,
                    "duration": 0.13125650000000633
                },
                {
                    "name": "C5",
                    "midi": 72,
                    "time": 284.6953485000049,
                    "velocity": 0.48031496062992124,
                    "duration": 0.13125650000000633
                },
                {
                    "name": "C#4",
                    "midi": 61,
                    "time": 284.9578615000049,
                    "velocity": 0.3779527559055118,
                    "duration": 0.13125650000000633
                },
                {
                    "name": "G#4",
                    "midi": 68,
                    "time": 284.9578615000049,
                    "velocity": 0.44881889763779526,
                    "duration": 0.13125650000000633
                },
                {
                    "name": "D4",
                    "midi": 62,
                    "time": 285.22037450000494,
                    "velocity": 0.5590551181102362,
                    "duration": 0.13125650000000633
                },
                {
                    "name": "G#4",
                    "midi": 68,
                    "time": 285.22037450000494,
                    "velocity": 0.5590551181102362,
                    "duration": 0.13125650000000633
                },
                {
                    "name": "G#4",
                    "midi": 68,
                    "time": 285.48288750000495,
                    "velocity": 0.49606299212598426,
                    "duration": 0.13125650000000633
                },
                {
                    "name": "D4",
                    "midi": 62,
                    "time": 285.48288750000495,
                    "velocity": 0.49606299212598426,
                    "duration": 0.13125650000000633
                },
                {
                    "name": "A#4",
                    "midi": 70,
                    "time": 285.48288750000495,
                    "velocity": 0.49606299212598426,
                    "duration": 0.13125650000000633
                },
                {
                    "name": "D4",
                    "midi": 62,
                    "time": 285.74540050000496,
                    "velocity": 0.5511811023622047,
                    "duration": 0.13125650000000633
                },
                {
                    "name": "G#4",
                    "midi": 68,
                    "time": 285.74540050000496,
                    "velocity": 0.5511811023622047,
                    "duration": 0.13125650000000633
                },
                {
                    "name": "C5",
                    "midi": 72,
                    "time": 285.74540050000496,
                    "velocity": 0.5511811023622047,
                    "duration": 0.13125650000000633
                },
                {
                    "name": "D#5",
                    "midi": 75,
                    "time": 286.007913500005,
                    "velocity": 0.5905511811023622,
                    "duration": 0.13125650000000633
                },
                {
                    "name": "D4",
                    "midi": 62,
                    "time": 286.270426500005,
                    "velocity": 0.5433070866141733,
                    "duration": 0.13125650000000633
                },
                {
                    "name": "G#4",
                    "midi": 68,
                    "time": 286.270426500005,
                    "velocity": 0.5433070866141733,
                    "duration": 0.13125650000000633
                },
                {
                    "name": "D5",
                    "midi": 74,
                    "time": 286.270426500005,
                    "velocity": 0.5433070866141733,
                    "duration": 0.13125650000000633
                },
                {
                    "name": "A#4",
                    "midi": 70,
                    "time": 286.532939500005,
                    "velocity": 0.49606299212598426,
                    "duration": 0.13125650000000633
                },
                {
                    "name": "D4",
                    "midi": 62,
                    "time": 286.532939500005,
                    "velocity": 0.4094488188976378,
                    "duration": 0.13125650000000633
                },
                {
                    "name": "G#4",
                    "midi": 68,
                    "time": 286.532939500005,
                    "velocity": 0.4094488188976378,
                    "duration": 0.13125650000000633
                },
                {
                    "name": "D4",
                    "midi": 62,
                    "time": 286.795452500005,
                    "velocity": 0.4094488188976378,
                    "duration": 0.13125650000000633
                },
                {
                    "name": "G#4",
                    "midi": 68,
                    "time": 286.795452500005,
                    "velocity": 0.4094488188976378,
                    "duration": 0.13125650000000633
                },
                {
                    "name": "C5",
                    "midi": 72,
                    "time": 286.795452500005,
                    "velocity": 0.5196850393700787,
                    "duration": 0.13125650000000633
                },
                {
                    "name": "G#4",
                    "midi": 68,
                    "time": 287.057965500005,
                    "velocity": 0.4881889763779528,
                    "duration": 0.13125650000000633
                },
                {
                    "name": "D5",
                    "midi": 74,
                    "time": 287.32047850000504,
                    "velocity": 0.5511811023622047,
                    "duration": 0.13125650000000633
                },
                {
                    "name": "C5",
                    "midi": 72,
                    "time": 287.32047850000504,
                    "velocity": 0.5511811023622047,
                    "duration": 0.13125650000000633
                },
                {
                    "name": "G#4",
                    "midi": 68,
                    "time": 287.32047850000504,
                    "velocity": 0.5511811023622047,
                    "duration": 0.13125650000000633
                },
                {
                    "name": "G#4",
                    "midi": 68,
                    "time": 287.58299150000505,
                    "velocity": 0.5196850393700787,
                    "duration": 0.13125650000000633
                },
                {
                    "name": "D#5",
                    "midi": 75,
                    "time": 287.58299150000505,
                    "velocity": 0.5196850393700787,
                    "duration": 0.13125650000000633
                },
                {
                    "name": "C5",
                    "midi": 72,
                    "time": 287.58299150000505,
                    "velocity": 0.5196850393700787,
                    "duration": 0.13125650000000633
                },
                {
                    "name": "F5",
                    "midi": 77,
                    "time": 287.84550450000506,
                    "velocity": 0.5669291338582677,
                    "duration": 0.13125650000000633
                },
                {
                    "name": "G#4",
                    "midi": 68,
                    "time": 287.84550450000506,
                    "velocity": 0.5669291338582677,
                    "duration": 0.13125650000000633
                },
                {
                    "name": "C5",
                    "midi": 72,
                    "time": 287.84550450000506,
                    "velocity": 0.5669291338582677,
                    "duration": 0.13125650000000633
                },
                {
                    "name": "G#5",
                    "midi": 80,
                    "time": 288.1080175000051,
                    "velocity": 0.6377952755905512,
                    "duration": 0.13125650000000633
                },
                {
                    "name": "G5",
                    "midi": 79,
                    "time": 288.3705305000051,
                    "velocity": 0.6299212598425197,
                    "duration": 0.13125650000000633
                },
                {
                    "name": "G#4",
                    "midi": 68,
                    "time": 288.3705305000051,
                    "velocity": 0.6299212598425197,
                    "duration": 0.13125650000000633
                },
                {
                    "name": "C5",
                    "midi": 72,
                    "time": 288.3705305000051,
                    "velocity": 0.6299212598425197,
                    "duration": 0.13125650000000633
                },
                {
                    "name": "C5",
                    "midi": 72,
                    "time": 288.6330435000051,
                    "velocity": 0.5669291338582677,
                    "duration": 0.13125650000000633
                },
                {
                    "name": "D#5",
                    "midi": 75,
                    "time": 288.6330435000051,
                    "velocity": 0.5669291338582677,
                    "duration": 0.13125650000000633
                },
                {
                    "name": "G#4",
                    "midi": 68,
                    "time": 288.6330435000051,
                    "velocity": 0.5669291338582677,
                    "duration": 0.13125650000000633
                },
                {
                    "name": "F5",
                    "midi": 77,
                    "time": 288.8955565000051,
                    "velocity": 0.6299212598425197,
                    "duration": 0.13125650000000633
                },
                {
                    "name": "G#4",
                    "midi": 68,
                    "time": 288.8955565000051,
                    "velocity": 0.6299212598425197,
                    "duration": 0.13125650000000633
                },
                {
                    "name": "C5",
                    "midi": 72,
                    "time": 288.8955565000051,
                    "velocity": 0.6299212598425197,
                    "duration": 0.13125650000000633
                },
                {
                    "name": "D5",
                    "midi": 74,
                    "time": 289.1580695000051,
                    "velocity": 0.5196850393700787,
                    "duration": 0.13125650000000633
                },
                {
                    "name": "F5",
                    "midi": 77,
                    "time": 289.42058250000514,
                    "velocity": 0.5905511811023622,
                    "duration": 0.13125650000000633
                },
                {
                    "name": "G5",
                    "midi": 79,
                    "time": 289.68309550000515,
                    "velocity": 0.5905511811023622,
                    "duration": 0.13125650000000633
                },
                {
                    "name": "G#5",
                    "midi": 80,
                    "time": 289.94560850000516,
                    "velocity": 0.6377952755905512,
                    "duration": 0.13125650000000633
                },
                {
                    "name": "C6",
                    "midi": 84,
                    "time": 290.2081215000052,
                    "velocity": 0.5905511811023622,
                    "duration": 0.13125650000000633
                },
                {
                    "name": "G#5",
                    "midi": 80,
                    "time": 290.4706345000052,
                    "velocity": 0.5905511811023622,
                    "duration": 0.13125650000000633
                },
                {
                    "name": "F5",
                    "midi": 77,
                    "time": 290.7331475000052,
                    "velocity": 0.5905511811023622,
                    "duration": 0.13125650000000633
                },
                {
                    "name": "G#5",
                    "midi": 80,
                    "time": 290.9956605000052,
                    "velocity": 0.6377952755905512,
                    "duration": 0.13125650000000633
                },
                {
                    "name": "F5",
                    "midi": 77,
                    "time": 291.2581735000052,
                    "velocity": 0.5905511811023622,
                    "duration": 0.13125650000000633
                },
                {
                    "name": "D5",
                    "midi": 74,
                    "time": 291.52068650000524,
                    "velocity": 0.5905511811023622,
                    "duration": 0.13125650000000633
                },
                {
                    "name": "F5",
                    "midi": 77,
                    "time": 291.78319950000525,
                    "velocity": 0.5905511811023622,
                    "duration": 0.13125650000000633
                },
                {
                    "name": "D5",
                    "midi": 74,
                    "time": 292.04571250000527,
                    "velocity": 0.6377952755905512,
                    "duration": 0.13125650000000633
                },
                {
                    "name": "A#4",
                    "midi": 70,
                    "time": 292.3082255000053,
                    "velocity": 0.5905511811023622,
                    "duration": 0.13125650000000633
                },
                {
                    "name": "D5",
                    "midi": 74,
                    "time": 292.5707385000053,
                    "velocity": 0.5905511811023622,
                    "duration": 0.13125650000000633
                },
                {
                    "name": "A#4",
                    "midi": 70,
                    "time": 292.8332515000053,
                    "velocity": 0.5905511811023622,
                    "duration": 0.13125650000000633
                },
                {
                    "name": "G4",
                    "midi": 67,
                    "time": 293.0957645000053,
                    "velocity": 0.6377952755905512,
                    "duration": 0.13125650000000633
                },
                {
                    "name": "A#4",
                    "midi": 70,
                    "time": 293.35827750000533,
                    "velocity": 0.5905511811023622,
                    "duration": 0.13125650000000633
                },
                {
                    "name": "G4",
                    "midi": 67,
                    "time": 293.62079050000534,
                    "velocity": 0.5905511811023622,
                    "duration": 0.13125650000000633
                },
                {
                    "name": "D#4",
                    "midi": 63,
                    "time": 293.88330350000535,
                    "velocity": 0.5905511811023622,
                    "duration": 0.13125650000000633
                },
                {
                    "name": "G4",
                    "midi": 67,
                    "time": 294.14581650000537,
                    "velocity": 0.6692913385826772,
                    "duration": 0.13125650000000633
                },
                {
                    "name": "D#4",
                    "midi": 63,
                    "time": 294.4083295000054,
                    "velocity": 0.6299212598425197,
                    "duration": 0.13125650000000633
                },
                {
                    "name": "C4",
                    "midi": 60,
                    "time": 294.6708425000054,
                    "velocity": 0.6299212598425197,
                    "duration": 0.13125650000000633
                },
                {
                    "name": "D#4",
                    "midi": 63,
                    "time": 294.9333555000054,
                    "velocity": 0.6299212598425197,
                    "duration": 0.13125650000000633
                },
                {
                    "name": "C4",
                    "midi": 60,
                    "time": 295.1958685000054,
                    "velocity": 0.7322834645669292,
                    "duration": 0.13125650000000633
                },
                {
                    "name": "G#3",
                    "midi": 56,
                    "time": 295.45838150000543,
                    "velocity": 0.6771653543307087,
                    "duration": 0.13125650000000633
                },
                {
                    "name": "C4",
                    "midi": 60,
                    "time": 295.72089450000544,
                    "velocity": 0.7007874015748031,
                    "duration": 0.13125650000000633
                },
                {
                    "name": "G#3",
                    "midi": 56,
                    "time": 295.98340750000546,
                    "velocity": 0.8110236220472441,
                    "duration": 0.13125650000000633
                },
                {
                    "name": "G3",
                    "midi": 55,
                    "time": 296.11466400000546,
                    "velocity": 0.8503937007874016,
                    "duration": 2.1001040000001012
                },
                {
                    "name": "G#4",
                    "midi": 68,
                    "time": 296.6396900000055,
                    "velocity": 0.7322834645669292,
                    "duration": 0.5250260000000253
                },
                {
                    "name": "G#3",
                    "midi": 56,
                    "time": 296.6396900000055,
                    "velocity": 0.6535433070866141,
                    "duration": 0.5250260000000253
                },
                {
                    "name": "C4",
                    "midi": 60,
                    "time": 296.6396900000055,
                    "velocity": 0.6535433070866141,
                    "duration": 0.5250260000000253
                },
                {
                    "name": "D#4",
                    "midi": 63,
                    "time": 296.6396900000055,
                    "velocity": 0.6535433070866141,
                    "duration": 0.5250260000000253
                },
                {
                    "name": "G#5",
                    "midi": 80,
                    "time": 297.1647160000055,
                    "velocity": 0.7322834645669292,
                    "duration": 0.5250260000000253
                },
                {
                    "name": "D#5",
                    "midi": 75,
                    "time": 297.1647160000055,
                    "velocity": 0.6535433070866141,
                    "duration": 0.5250260000000253
                },
                {
                    "name": "G#4",
                    "midi": 68,
                    "time": 297.1647160000055,
                    "velocity": 0.6535433070866141,
                    "duration": 0.5250260000000253
                },
                {
                    "name": "C5",
                    "midi": 72,
                    "time": 297.1647160000055,
                    "velocity": 0.6535433070866141,
                    "duration": 0.5250260000000253
                },
                {
                    "name": "G#6",
                    "midi": 92,
                    "time": 297.68974200000554,
                    "velocity": 0.7165354330708661,
                    "duration": 0.5250260000000253
                },
                {
                    "name": "D#6",
                    "midi": 87,
                    "time": 297.68974200000554,
                    "velocity": 0.6377952755905512,
                    "duration": 0.5250260000000253
                },
                {
                    "name": "C6",
                    "midi": 84,
                    "time": 297.68974200000554,
                    "velocity": 0.6377952755905512,
                    "duration": 0.5250260000000253
                },
                {
                    "name": "G#5",
                    "midi": 80,
                    "time": 297.68974200000554,
                    "velocity": 0.6377952755905512,
                    "duration": 0.5250260000000253
                },
                {
                    "name": "F#3",
                    "midi": 54,
                    "time": 298.21476800000556,
                    "velocity": 0.8503937007874016,
                    "duration": 2.1001040000001012
                },
                {
                    "name": "G#4",
                    "midi": 68,
                    "time": 298.7397940000056,
                    "velocity": 0.7322834645669292,
                    "duration": 0.5250260000000253
                },
                {
                    "name": "G#3",
                    "midi": 56,
                    "time": 298.7397940000056,
                    "velocity": 0.6535433070866141,
                    "duration": 0.5250260000000253
                },
                {
                    "name": "C4",
                    "midi": 60,
                    "time": 298.7397940000056,
                    "velocity": 0.6535433070866141,
                    "duration": 0.5250260000000253
                },
                {
                    "name": "D#4",
                    "midi": 63,
                    "time": 298.7397940000056,
                    "velocity": 0.6535433070866141,
                    "duration": 0.5250260000000253
                },
                {
                    "name": "G#5",
                    "midi": 80,
                    "time": 299.2648200000056,
                    "velocity": 0.7322834645669292,
                    "duration": 0.5250260000000253
                },
                {
                    "name": "D#5",
                    "midi": 75,
                    "time": 299.2648200000056,
                    "velocity": 0.6535433070866141,
                    "duration": 0.5250260000000253
                },
                {
                    "name": "G#4",
                    "midi": 68,
                    "time": 299.2648200000056,
                    "velocity": 0.6535433070866141,
                    "duration": 0.5250260000000253
                },
                {
                    "name": "C5",
                    "midi": 72,
                    "time": 299.2648200000056,
                    "velocity": 0.6535433070866141,
                    "duration": 0.5250260000000253
                },
                {
                    "name": "G#6",
                    "midi": 92,
                    "time": 299.78984600000564,
                    "velocity": 0.7165354330708661,
                    "duration": 0.5250260000000253
                },
                {
                    "name": "D#6",
                    "midi": 87,
                    "time": 299.78984600000564,
                    "velocity": 0.6377952755905512,
                    "duration": 0.5250260000000253
                },
                {
                    "name": "C6",
                    "midi": 84,
                    "time": 299.78984600000564,
                    "velocity": 0.6377952755905512,
                    "duration": 0.5250260000000253
                },
                {
                    "name": "G#5",
                    "midi": 80,
                    "time": 299.78984600000564,
                    "velocity": 0.6377952755905512,
                    "duration": 0.5250260000000253
                },
                {
                    "name": "F3",
                    "midi": 53,
                    "time": 300.31487200000566,
                    "velocity": 0.8740157480314961,
                    "duration": 2.1001040000001012
                },
                {
                    "name": "G#4",
                    "midi": 68,
                    "time": 300.8398980000057,
                    "velocity": 0.7322834645669292,
                    "duration": 0.5250260000000253
                },
                {
                    "name": "G#3",
                    "midi": 56,
                    "time": 300.8398980000057,
                    "velocity": 0.6535433070866141,
                    "duration": 0.5250260000000253
                },
                {
                    "name": "B3",
                    "midi": 59,
                    "time": 300.8398980000057,
                    "velocity": 0.6535433070866141,
                    "duration": 0.5250260000000253
                },
                {
                    "name": "D#4",
                    "midi": 63,
                    "time": 300.8398980000057,
                    "velocity": 0.6535433070866141,
                    "duration": 0.5250260000000253
                },
                {
                    "name": "G#5",
                    "midi": 80,
                    "time": 301.3649240000057,
                    "velocity": 0.7322834645669292,
                    "duration": 0.5250260000000253
                },
                {
                    "name": "D#5",
                    "midi": 75,
                    "time": 301.3649240000057,
                    "velocity": 0.6535433070866141,
                    "duration": 0.5250260000000253
                },
                {
                    "name": "G#4",
                    "midi": 68,
                    "time": 301.3649240000057,
                    "velocity": 0.6535433070866141,
                    "duration": 0.5250260000000253
                },
                {
                    "name": "B4",
                    "midi": 71,
                    "time": 301.3649240000057,
                    "velocity": 0.6535433070866141,
                    "duration": 0.5250260000000253
                },
                {
                    "name": "G#6",
                    "midi": 92,
                    "time": 301.88995000000574,
                    "velocity": 0.7165354330708661,
                    "duration": 0.5250260000000253
                },
                {
                    "name": "D#6",
                    "midi": 87,
                    "time": 301.88995000000574,
                    "velocity": 0.6377952755905512,
                    "duration": 0.5250260000000253
                },
                {
                    "name": "B5",
                    "midi": 83,
                    "time": 301.88995000000574,
                    "velocity": 0.6377952755905512,
                    "duration": 0.5250260000000253
                },
                {
                    "name": "G#5",
                    "midi": 80,
                    "time": 301.88995000000574,
                    "velocity": 0.6377952755905512,
                    "duration": 0.5250260000000253
                },
                {
                    "name": "E3",
                    "midi": 52,
                    "time": 302.41497600000577,
                    "velocity": 0.8740157480314961,
                    "duration": 2.100104000000158
                },
                {
                    "name": "A3",
                    "midi": 57,
                    "time": 302.9400020000058,
                    "velocity": 0.6535433070866141,
                    "duration": 0.5250260000000253
                },
                {
                    "name": "A4",
                    "midi": 69,
                    "time": 302.9400020000058,
                    "velocity": 0.7322834645669292,
                    "duration": 0.5250260000000253
                },
                {
                    "name": "G3",
                    "midi": 55,
                    "time": 302.9400020000058,
                    "velocity": 0.6535433070866141,
                    "duration": 0.5250260000000253
                },
                {
                    "name": "C#4",
                    "midi": 61,
                    "time": 302.9400020000058,
                    "velocity": 0.6535433070866141,
                    "duration": 0.5250260000000253
                },
                {
                    "name": "G4",
                    "midi": 67,
                    "time": 302.9400020000058,
                    "velocity": 0.7322834645669292,
                    "duration": 0.5250260000000253
                },
                {
                    "name": "G4",
                    "midi": 67,
                    "time": 303.4650280000058,
                    "velocity": 0.6535433070866141,
                    "duration": 0.5250260000000253
                },
                {
                    "name": "A5",
                    "midi": 81,
                    "time": 303.4650280000058,
                    "velocity": 0.7322834645669292,
                    "duration": 0.5250260000000253
                },
                {
                    "name": "G5",
                    "midi": 79,
                    "time": 303.4650280000058,
                    "velocity": 0.7322834645669292,
                    "duration": 0.5250260000000253
                },
                {
                    "name": "A4",
                    "midi": 69,
                    "time": 303.4650280000058,
                    "velocity": 0.6535433070866141,
                    "duration": 0.5250260000000253
                },
                {
                    "name": "C#5",
                    "midi": 73,
                    "time": 303.4650280000058,
                    "velocity": 0.6535433070866141,
                    "duration": 0.5250260000000253
                },
                {
                    "name": "A5",
                    "midi": 81,
                    "time": 303.99005400000584,
                    "velocity": 0.6141732283464567,
                    "duration": 0.26251300000001265
                },
                {
                    "name": "A6",
                    "midi": 93,
                    "time": 303.99005400000584,
                    "velocity": 0.6771653543307087,
                    "duration": 0.26251300000001265
                },
                {
                    "name": "G6",
                    "midi": 91,
                    "time": 303.99005400000584,
                    "velocity": 0.6771653543307087,
                    "duration": 0.26251300000001265
                },
                {
                    "name": "C#6",
                    "midi": 85,
                    "time": 303.99005400000584,
                    "velocity": 0.6141732283464567,
                    "duration": 0.26251300000001265
                },
                {
                    "name": "G5",
                    "midi": 79,
                    "time": 303.99005400000584,
                    "velocity": 0.6141732283464567,
                    "duration": 0.26251300000001265
                },
                {
                    "name": "A5",
                    "midi": 81,
                    "time": 304.25256700000585,
                    "velocity": 0.6929133858267716,
                    "duration": 0.0875043333333565
                },
                {
                    "name": "B5",
                    "midi": 83,
                    "time": 304.3400713333392,
                    "velocity": 0.6929133858267716,
                    "duration": 0.0875043333333565
                },
                {
                    "name": "A5",
                    "midi": 81,
                    "time": 304.42757566667257,
                    "velocity": 0.6929133858267716,
                    "duration": 0.0875043333333565
                },
                {
                    "name": "F#5",
                    "midi": 78,
                    "time": 304.5150800000059,
                    "velocity": 0.7637795275590551,
                    "duration": 0.5250260000000253
                },
                {
                    "name": "A5",
                    "midi": 81,
                    "time": 304.77759300000594,
                    "velocity": 0.7637795275590551,
                    "duration": 0.26251300000001265
                },
                {
                    "name": "A5",
                    "midi": 81,
                    "time": 305.04010600000595,
                    "velocity": 0.7086614173228346,
                    "duration": 0.13125650000000633
                },
                {
                    "name": "D6",
                    "midi": 86,
                    "time": 305.04010600000595,
                    "velocity": 0.7952755905511811,
                    "duration": 0.13125650000000633
                },
                {
                    "name": "F#5",
                    "midi": 78,
                    "time": 305.04010600000595,
                    "velocity": 0.7086614173228346,
                    "duration": 0.13125650000000633
                },
                {
                    "name": "A5",
                    "midi": 81,
                    "time": 305.30261900000596,
                    "velocity": 0.6535433070866141,
                    "duration": 0.13125650000000633
                },
                {
                    "name": "F#6",
                    "midi": 90,
                    "time": 305.30261900000596,
                    "velocity": 0.7322834645669292,
                    "duration": 0.13125650000000633
                },
                {
                    "name": "F#5",
                    "midi": 78,
                    "time": 305.30261900000596,
                    "velocity": 0.6535433070866141,
                    "duration": 0.13125650000000633
                },
                {
                    "name": "A5",
                    "midi": 81,
                    "time": 305.565132000006,
                    "velocity": 0.5905511811023622,
                    "duration": 0.5250260000000253
                },
                {
                    "name": "E6",
                    "midi": 88,
                    "time": 305.565132000006,
                    "velocity": 0.8031496062992126,
                    "duration": 0.26251300000001265
                },
                {
                    "name": "F#5",
                    "midi": 78,
                    "time": 305.565132000006,
                    "velocity": 0.5905511811023622,
                    "duration": 0.5250260000000253
                },
                {
                    "name": "D6",
                    "midi": 86,
                    "time": 305.827645000006,
                    "velocity": 0.7322834645669292,
                    "duration": 0.26251300000001265
                },
                {
                    "name": "D5",
                    "midi": 74,
                    "time": 306.090158000006,
                    "velocity": 0.7086614173228346,
                    "duration": 0.13125650000000633
                },
                {
                    "name": "F#5",
                    "midi": 78,
                    "time": 306.090158000006,
                    "velocity": 0.7322834645669292,
                    "duration": 0.13125650000000633
                },
                {
                    "name": "D5",
                    "midi": 74,
                    "time": 306.352671000006,
                    "velocity": 0.6377952755905512,
                    "duration": 0.13125650000000633
                },
                {
                    "name": "A5",
                    "midi": 81,
                    "time": 306.352671000006,
                    "velocity": 0.7086614173228346,
                    "duration": 0.13125650000000633
                },
                {
                    "name": "F#5",
                    "midi": 78,
                    "time": 306.352671000006,
                    "velocity": 0.6377952755905512,
                    "duration": 0.13125650000000633
                },
                {
                    "name": "D5",
                    "midi": 74,
                    "time": 306.615184000006,
                    "velocity": 0.6692913385826772,
                    "duration": 0.26251300000001265
                },
                {
                    "name": "B5",
                    "midi": 83,
                    "time": 306.615184000006,
                    "velocity": 0.7480314960629921,
                    "duration": 0.26251300000001265
                },
                {
                    "name": "A5",
                    "midi": 81,
                    "time": 306.615184000006,
                    "velocity": 0.7480314960629921,
                    "duration": 0.26251300000001265
                },
                {
                    "name": "F#5",
                    "midi": 78,
                    "time": 306.615184000006,
                    "velocity": 0.6692913385826772,
                    "duration": 0.26251300000001265
                },
                {
                    "name": "D5",
                    "midi": 74,
                    "time": 307.14021000000605,
                    "velocity": 0.6062992125984252,
                    "duration": 0.26251300000001265
                },
                {
                    "name": "B5",
                    "midi": 83,
                    "time": 307.14021000000605,
                    "velocity": 0.6771653543307087,
                    "duration": 0.26251300000001265
                },
                {
                    "name": "A5",
                    "midi": 81,
                    "time": 307.14021000000605,
                    "velocity": 0.6771653543307087,
                    "duration": 0.26251300000001265
                },
                {
                    "name": "F#5",
                    "midi": 78,
                    "time": 307.14021000000605,
                    "velocity": 0.6062992125984252,
                    "duration": 0.26251300000001265
                },
                {
                    "name": "D5",
                    "midi": 74,
                    "time": 307.53397950000607,
                    "velocity": 0.6062992125984252,
                    "duration": 0.13125650000000633
                },
                {
                    "name": "B5",
                    "midi": 83,
                    "time": 307.53397950000607,
                    "velocity": 0.6771653543307087,
                    "duration": 0.13125650000000633
                },
                {
                    "name": "A5",
                    "midi": 81,
                    "time": 307.53397950000607,
                    "velocity": 0.6771653543307087,
                    "duration": 0.13125650000000633
                },
                {
                    "name": "F#5",
                    "midi": 78,
                    "time": 307.53397950000607,
                    "velocity": 0.6062992125984252,
                    "duration": 0.13125650000000633
                },
                {
                    "name": "D5",
                    "midi": 74,
                    "time": 307.6652360000061,
                    "velocity": 0.6062992125984252,
                    "duration": 0.5250260000000253
                },
                {
                    "name": "B5",
                    "midi": 83,
                    "time": 307.6652360000061,
                    "velocity": 0.6771653543307087,
                    "duration": 0.5250260000000253
                },
                {
                    "name": "A5",
                    "midi": 81,
                    "time": 307.6652360000061,
                    "velocity": 0.6771653543307087,
                    "duration": 0.5250260000000253
                },
                {
                    "name": "F#5",
                    "midi": 78,
                    "time": 307.6652360000061,
                    "velocity": 0.6062992125984252,
                    "duration": 0.5250260000000253
                },
                {
                    "name": "D5",
                    "midi": 74,
                    "time": 308.1902620000061,
                    "velocity": 0.7086614173228346,
                    "duration": 0.13125650000000633
                },
                {
                    "name": "F#5",
                    "midi": 78,
                    "time": 308.1902620000061,
                    "velocity": 0.7086614173228346,
                    "duration": 0.13125650000000633
                },
                {
                    "name": "D5",
                    "midi": 74,
                    "time": 308.4527750000061,
                    "velocity": 0.7086614173228346,
                    "duration": 0.13125650000000633
                },
                {
                    "name": "G#5",
                    "midi": 80,
                    "time": 308.4527750000061,
                    "velocity": 0.7086614173228346,
                    "duration": 0.13125650000000633
                },
                {
                    "name": "F#5",
                    "midi": 78,
                    "time": 308.4527750000061,
                    "velocity": 0.7086614173228346,
                    "duration": 0.13125650000000633
                },
                {
                    "name": "D5",
                    "midi": 74,
                    "time": 308.7152880000061,
                    "velocity": 0.6850393700787402,
                    "duration": 0.5250260000000253
                },
                {
                    "name": "F#5",
                    "midi": 78,
                    "time": 308.7152880000061,
                    "velocity": 0.6850393700787402,
                    "duration": 0.5250260000000253
                },
                {
                    "name": "A5",
                    "midi": 81,
                    "time": 308.7152880000061,
                    "velocity": 0.7637795275590551,
                    "duration": 0.26251300000001265
                },
                {
                    "name": "B5",
                    "midi": 83,
                    "time": 308.97780100000614,
                    "velocity": 0.7007874015748031,
                    "duration": 0.26251300000001265
                },
                {
                    "name": "F#5",
                    "midi": 78,
                    "time": 309.24031400000615,
                    "velocity": 0.7322834645669292,
                    "duration": 0.13125650000000633
                },
                {
                    "name": "D5",
                    "midi": 74,
                    "time": 309.24031400000615,
                    "velocity": 0.7322834645669292,
                    "duration": 0.13125650000000633
                },
                {
                    "name": "G#5",
                    "midi": 80,
                    "time": 309.50282700000616,
                    "velocity": 0.7086614173228346,
                    "duration": 0.13125650000000633
                },
                {
                    "name": "F#5",
                    "midi": 78,
                    "time": 309.50282700000616,
                    "velocity": 0.7086614173228346,
                    "duration": 0.13125650000000633
                },
                {
                    "name": "D5",
                    "midi": 74,
                    "time": 309.50282700000616,
                    "velocity": 0.7086614173228346,
                    "duration": 0.13125650000000633
                },
                {
                    "name": "A5",
                    "midi": 81,
                    "time": 309.7653400000062,
                    "velocity": 0.7637795275590551,
                    "duration": 0.26251300000001265
                },
                {
                    "name": "D5",
                    "midi": 74,
                    "time": 309.7653400000062,
                    "velocity": 0.6850393700787402,
                    "duration": 0.5250260000000253
                },
                {
                    "name": "F#5",
                    "midi": 78,
                    "time": 309.7653400000062,
                    "velocity": 0.6850393700787402,
                    "duration": 0.5250260000000253
                },
                {
                    "name": "B5",
                    "midi": 83,
                    "time": 310.0278530000062,
                    "velocity": 0.7007874015748031,
                    "duration": 0.26251300000001265
                },
                {
                    "name": "D5",
                    "midi": 74,
                    "time": 310.2903660000062,
                    "velocity": 0.7322834645669292,
                    "duration": 0.13125650000000633
                },
                {
                    "name": "F#5",
                    "midi": 78,
                    "time": 310.2903660000062,
                    "velocity": 0.7322834645669292,
                    "duration": 0.13125650000000633
                },
                {
                    "name": "G#5",
                    "midi": 80,
                    "time": 310.5528790000062,
                    "velocity": 0.7322834645669292,
                    "duration": 0.13125650000000633
                },
                {
                    "name": "D5",
                    "midi": 74,
                    "time": 310.5528790000062,
                    "velocity": 0.7322834645669292,
                    "duration": 0.13125650000000633
                },
                {
                    "name": "F#5",
                    "midi": 78,
                    "time": 310.5528790000062,
                    "velocity": 0.7322834645669292,
                    "duration": 0.13125650000000633
                },
                {
                    "name": "A4",
                    "midi": 69,
                    "time": 310.8153920000062,
                    "velocity": 0.6850393700787402,
                    "duration": 0.26251300000001265
                },
                {
                    "name": "D5",
                    "midi": 74,
                    "time": 310.8153920000062,
                    "velocity": 0.6850393700787402,
                    "duration": 0.26251300000001265
                },
                {
                    "name": "E5",
                    "midi": 76,
                    "time": 310.8153920000062,
                    "velocity": 0.6850393700787402,
                    "duration": 0.26251300000001265
                },
                {
                    "name": "A5",
                    "midi": 81,
                    "time": 310.8153920000062,
                    "velocity": 0.7637795275590551,
                    "duration": 0.26251300000001265
                },
                {
                    "name": "E5",
                    "midi": 76,
                    "time": 311.34041800000625,
                    "velocity": 0.5905511811023622,
                    "duration": 0.26251300000001265
                },
                {
                    "name": "A4",
                    "midi": 69,
                    "time": 311.34041800000625,
                    "velocity": 0.5905511811023622,
                    "duration": 0.26251300000001265
                },
                {
                    "name": "C#5",
                    "midi": 73,
                    "time": 311.34041800000625,
                    "velocity": 0.5905511811023622,
                    "duration": 0.26251300000001265
                },
                {
                    "name": "A5",
                    "midi": 81,
                    "time": 311.34041800000625,
                    "velocity": 0.6614173228346457,
                    "duration": 0.26251300000001265
                },
                {
                    "name": "A4",
                    "midi": 69,
                    "time": 311.73418750000627,
                    "velocity": 0.5905511811023622,
                    "duration": 0.13125650000000633
                },
                {
                    "name": "E5",
                    "midi": 76,
                    "time": 311.73418750000627,
                    "velocity": 0.5905511811023622,
                    "duration": 0.13125650000000633
                },
                {
                    "name": "C#5",
                    "midi": 73,
                    "time": 311.73418750000627,
                    "velocity": 0.5905511811023622,
                    "duration": 0.13125650000000633
                },
                {
                    "name": "A5",
                    "midi": 81,
                    "time": 311.73418750000627,
                    "velocity": 0.6614173228346457,
                    "duration": 0.13125650000000633
                },
                {
                    "name": "A4",
                    "midi": 69,
                    "time": 311.8654440000063,
                    "velocity": 0.5905511811023622,
                    "duration": 0.5250260000000253
                },
                {
                    "name": "E5",
                    "midi": 76,
                    "time": 311.8654440000063,
                    "velocity": 0.5905511811023622,
                    "duration": 0.5250260000000253
                },
                {
                    "name": "C#5",
                    "midi": 73,
                    "time": 311.8654440000063,
                    "velocity": 0.5905511811023622,
                    "duration": 0.5250260000000253
                },
                {
                    "name": "A5",
                    "midi": 81,
                    "time": 311.8654440000063,
                    "velocity": 0.6614173228346457,
                    "duration": 0.5250260000000253
                },
                {
                    "name": "C#6",
                    "midi": 85,
                    "time": 312.6529830000063,
                    "velocity": 0.7007874015748031,
                    "duration": 0.0875043333333565
                },
                {
                    "name": "D6",
                    "midi": 86,
                    "time": 312.7404873333397,
                    "velocity": 0.7007874015748031,
                    "duration": 0.0875043333333565
                },
                {
                    "name": "C#6",
                    "midi": 85,
                    "time": 312.82799166667303,
                    "velocity": 0.7007874015748031,
                    "duration": 0.0875043333333565
                },
                {
                    "name": "B5",
                    "midi": 83,
                    "time": 312.9154960000064,
                    "velocity": 0.7559055118110236,
                    "duration": 0.5250260000000253
                },
                {
                    "name": "D6",
                    "midi": 86,
                    "time": 313.1780090000064,
                    "velocity": 0.7559055118110236,
                    "duration": 0.26251300000001265
                },
                {
                    "name": "D6",
                    "midi": 86,
                    "time": 313.4405220000064,
                    "velocity": 0.7007874015748031,
                    "duration": 0.13125650000000633
                },
                {
                    "name": "G6",
                    "midi": 91,
                    "time": 313.4405220000064,
                    "velocity": 0.7795275590551181,
                    "duration": 0.13125650000000633
                },
                {
                    "name": "B5",
                    "midi": 83,
                    "time": 313.4405220000064,
                    "velocity": 0.7007874015748031,
                    "duration": 0.13125650000000633
                },
                {
                    "name": "D6",
                    "midi": 86,
                    "time": 313.7030350000064,
                    "velocity": 0.6377952755905512,
                    "duration": 0.13125650000000633
                },
                {
                    "name": "B6",
                    "midi": 95,
                    "time": 313.7030350000064,
                    "velocity": 0.7165354330708661,
                    "duration": 0.13125650000000633
                },
                {
                    "name": "B5",
                    "midi": 83,
                    "time": 313.7030350000064,
                    "velocity": 0.6377952755905512,
                    "duration": 0.13125650000000633
                },
                {
                    "name": "A6",
                    "midi": 93,
                    "time": 313.96554800000644,
                    "velocity": 0.7637795275590551,
                    "duration": 0.26251300000001265
                },
                {
                    "name": "B5",
                    "midi": 83,
                    "time": 313.96554800000644,
                    "velocity": 0.5984251968503937,
                    "duration": 0.5250260000000253
                },
                {
                    "name": "G6",
                    "midi": 91,
                    "time": 314.22806100000645,
                    "velocity": 0.6771653543307087,
                    "duration": 0.26251300000001265
                },
                {
                    "name": "B5",
                    "midi": 83,
                    "time": 314.49057400000646,
                    "velocity": 0.6771653543307087,
                    "duration": 0.13125650000000633
                },
                {
                    "name": "G5",
                    "midi": 79,
                    "time": 314.49057400000646,
                    "velocity": 0.6771653543307087,
                    "duration": 0.13125650000000633
                },
                {
                    "name": "B5",
                    "midi": 83,
                    "time": 314.7530870000065,
                    "velocity": 0.6771653543307087,
                    "duration": 0.13125650000000633
                },
                {
                    "name": "D6",
                    "midi": 86,
                    "time": 314.7530870000065,
                    "velocity": 0.6771653543307087,
                    "duration": 0.13125650000000633
                },
                {
                    "name": "G5",
                    "midi": 79,
                    "time": 314.7530870000065,
                    "velocity": 0.5984251968503937,
                    "duration": 0.13125650000000633
                },
                {
                    "name": "F#6",
                    "midi": 90,
                    "time": 315.0156000000065,
                    "velocity": 0.7086614173228346,
                    "duration": 0.26251300000001265
                },
                {
                    "name": "D6",
                    "midi": 86,
                    "time": 315.0156000000065,
                    "velocity": 0.6299212598425197,
                    "duration": 0.26251300000001265
                },
                {
                    "name": "B5",
                    "midi": 83,
                    "time": 315.0156000000065,
                    "velocity": 0.6299212598425197,
                    "duration": 0.26251300000001265
                },
                {
                    "name": "G5",
                    "midi": 79,
                    "time": 315.0156000000065,
                    "velocity": 0.6299212598425197,
                    "duration": 0.26251300000001265
                },
                {
                    "name": "F#6",
                    "midi": 90,
                    "time": 315.5406260000065,
                    "velocity": 0.6299212598425197,
                    "duration": 0.26251300000001265
                },
                {
                    "name": "D6",
                    "midi": 86,
                    "time": 315.5406260000065,
                    "velocity": 0.5669291338582677,
                    "duration": 0.26251300000001265
                },
                {
                    "name": "B5",
                    "midi": 83,
                    "time": 315.5406260000065,
                    "velocity": 0.5669291338582677,
                    "duration": 0.26251300000001265
                },
                {
                    "name": "G5",
                    "midi": 79,
                    "time": 315.5406260000065,
                    "velocity": 0.5669291338582677,
                    "duration": 0.26251300000001265
                },
                {
                    "name": "F#6",
                    "midi": 90,
                    "time": 315.93439550000653,
                    "velocity": 0.6299212598425197,
                    "duration": 0.13125650000000633
                },
                {
                    "name": "D6",
                    "midi": 86,
                    "time": 315.93439550000653,
                    "velocity": 0.5669291338582677,
                    "duration": 0.13125650000000633
                },
                {
                    "name": "B5",
                    "midi": 83,
                    "time": 315.93439550000653,
                    "velocity": 0.5669291338582677,
                    "duration": 0.13125650000000633
                },
                {
                    "name": "G5",
                    "midi": 79,
                    "time": 315.93439550000653,
                    "velocity": 0.5669291338582677,
                    "duration": 0.13125650000000633
                },
                {
                    "name": "F#6",
                    "midi": 90,
                    "time": 316.06565200000654,
                    "velocity": 0.6299212598425197,
                    "duration": 0.5250260000000253
                },
                {
                    "name": "D6",
                    "midi": 86,
                    "time": 316.06565200000654,
                    "velocity": 0.5669291338582677,
                    "duration": 0.5250260000000253
                },
                {
                    "name": "B5",
                    "midi": 83,
                    "time": 316.06565200000654,
                    "velocity": 0.5669291338582677,
                    "duration": 0.5250260000000253
                },
                {
                    "name": "G5",
                    "midi": 79,
                    "time": 316.06565200000654,
                    "velocity": 0.5669291338582677,
                    "duration": 0.5250260000000253
                },
                {
                    "name": "B5",
                    "midi": 83,
                    "time": 316.59067800000656,
                    "velocity": 0.6771653543307087,
                    "duration": 0.13125650000000633
                },
                {
                    "name": "G5",
                    "midi": 79,
                    "time": 316.59067800000656,
                    "velocity": 0.6771653543307087,
                    "duration": 0.13125650000000633
                },
                {
                    "name": "C#6",
                    "midi": 85,
                    "time": 316.8531910000066,
                    "velocity": 0.6771653543307087,
                    "duration": 0.13125650000000633
                },
                {
                    "name": "B5",
                    "midi": 83,
                    "time": 316.8531910000066,
                    "velocity": 0.6771653543307087,
                    "duration": 0.13125650000000633
                },
                {
                    "name": "G5",
                    "midi": 79,
                    "time": 316.8531910000066,
                    "velocity": 0.6771653543307087,
                    "duration": 0.13125650000000633
                },
                {
                    "name": "D6",
                    "midi": 86,
                    "time": 317.1157040000066,
                    "velocity": 0.7559055118110236,
                    "duration": 0.26251300000001265
                },
                {
                    "name": "G5",
                    "midi": 79,
                    "time": 317.1157040000066,
                    "velocity": 0.6771653543307087,
                    "duration": 0.5250260000000253
                },
                {
                    "name": "B5",
                    "midi": 83,
                    "time": 317.1157040000066,
                    "velocity": 0.6771653543307087,
                    "duration": 0.5250260000000253
                },
                {
                    "name": "E6",
                    "midi": 88,
                    "time": 317.3782170000066,
                    "velocity": 0.6771653543307087,
                    "duration": 0.26251300000001265
                },
                {
                    "name": "B5",
                    "midi": 83,
                    "time": 317.6407300000066,
                    "velocity": 0.7165354330708661,
                    "duration": 0.13125650000000633
                },
                {
                    "name": "G5",
                    "midi": 79,
                    "time": 317.6407300000066,
                    "velocity": 0.7165354330708661,
                    "duration": 0.13125650000000633
                },
                {
                    "name": "C#6",
                    "midi": 85,
                    "time": 317.9032430000066,
                    "velocity": 0.7007874015748031,
                    "duration": 0.13125650000000633
                },
                {
                    "name": "B5",
                    "midi": 83,
                    "time": 317.9032430000066,
                    "velocity": 0.7007874015748031,
                    "duration": 0.13125650000000633
                },
                {
                    "name": "G5",
                    "midi": 79,
                    "time": 317.9032430000066,
                    "velocity": 0.7007874015748031,
                    "duration": 0.13125650000000633
                },
                {
                    "name": "D6",
                    "midi": 86,
                    "time": 318.16575600000664,
                    "velocity": 0.7559055118110236,
                    "duration": 0.26251300000001265
                },
                {
                    "name": "B5",
                    "midi": 83,
                    "time": 318.16575600000664,
                    "velocity": 0.6771653543307087,
                    "duration": 0.5250260000000253
                },
                {
                    "name": "G5",
                    "midi": 79,
                    "time": 318.16575600000664,
                    "velocity": 0.6771653543307087,
                    "duration": 0.5250260000000253
                },
                {
                    "name": "E6",
                    "midi": 88,
                    "time": 318.42826900000665,
                    "velocity": 0.7007874015748031,
                    "duration": 0.26251300000001265
                },
                {
                    "name": "B5",
                    "midi": 83,
                    "time": 318.69078200000666,
                    "velocity": 0.7165354330708661,
                    "duration": 0.13125650000000633
                },
                {
                    "name": "G5",
                    "midi": 79,
                    "time": 318.69078200000666,
                    "velocity": 0.7165354330708661,
                    "duration": 0.13125650000000633
                },
                {
                    "name": "C#6",
                    "midi": 85,
                    "time": 318.9532950000067,
                    "velocity": 0.7165354330708661,
                    "duration": 0.13125650000000633
                },
                {
                    "name": "B5",
                    "midi": 83,
                    "time": 318.9532950000067,
                    "velocity": 0.7165354330708661,
                    "duration": 0.13125650000000633
                },
                {
                    "name": "G5",
                    "midi": 79,
                    "time": 318.9532950000067,
                    "velocity": 0.7165354330708661,
                    "duration": 0.13125650000000633
                },
                {
                    "name": "D5",
                    "midi": 74,
                    "time": 319.2158080000067,
                    "velocity": 0.6614173228346457,
                    "duration": 0.26251300000001265
                },
                {
                    "name": "D6",
                    "midi": 86,
                    "time": 319.2158080000067,
                    "velocity": 0.7401574803149606,
                    "duration": 0.26251300000001265
                },
                {
                    "name": "A5",
                    "midi": 81,
                    "time": 319.2158080000067,
                    "velocity": 0.6614173228346457,
                    "duration": 0.26251300000001265
                },
                {
                    "name": "G5",
                    "midi": 79,
                    "time": 319.2158080000067,
                    "velocity": 0.6614173228346457,
                    "duration": 0.26251300000001265
                },
                {
                    "name": "A5",
                    "midi": 81,
                    "time": 319.7408340000067,
                    "velocity": 0.5748031496062992,
                    "duration": 0.26251300000001265
                },
                {
                    "name": "D5",
                    "midi": 74,
                    "time": 319.7408340000067,
                    "velocity": 0.5748031496062992,
                    "duration": 0.26251300000001265
                },
                {
                    "name": "D6",
                    "midi": 86,
                    "time": 319.7408340000067,
                    "velocity": 0.6377952755905512,
                    "duration": 0.26251300000001265
                },
                {
                    "name": "F#5",
                    "midi": 78,
                    "time": 319.7408340000067,
                    "velocity": 0.5748031496062992,
                    "duration": 0.26251300000001265
                },
                {
                    "name": "A5",
                    "midi": 81,
                    "time": 320.13460350000673,
                    "velocity": 0.5748031496062992,
                    "duration": 0.13125650000000633
                },
                {
                    "name": "D5",
                    "midi": 74,
                    "time": 320.13460350000673,
                    "velocity": 0.5748031496062992,
                    "duration": 0.13125650000000633
                },
                {
                    "name": "D6",
                    "midi": 86,
                    "time": 320.13460350000673,
                    "velocity": 0.6377952755905512,
                    "duration": 0.13125650000000633
                },
                {
                    "name": "F#5",
                    "midi": 78,
                    "time": 320.13460350000673,
                    "velocity": 0.5748031496062992,
                    "duration": 0.13125650000000633
                },
                {
                    "name": "A5",
                    "midi": 81,
                    "time": 320.26586000000674,
                    "velocity": 0.5748031496062992,
                    "duration": 0.26251300000001265
                },
                {
                    "name": "D5",
                    "midi": 74,
                    "time": 320.26586000000674,
                    "velocity": 0.5748031496062992,
                    "duration": 0.26251300000001265
                },
                {
                    "name": "D6",
                    "midi": 86,
                    "time": 320.26586000000674,
                    "velocity": 0.6377952755905512,
                    "duration": 0.26251300000001265
                },
                {
                    "name": "F#5",
                    "midi": 78,
                    "time": 320.26586000000674,
                    "velocity": 0.5748031496062992,
                    "duration": 0.26251300000001265
                },
                {
                    "name": "D6",
                    "midi": 86,
                    "time": 321.0533990000068,
                    "velocity": 0.5590551181102362,
                    "duration": 0.0875043333333565
                },
                {
                    "name": "E6",
                    "midi": 88,
                    "time": 321.14090333334013,
                    "velocity": 0.5590551181102362,
                    "duration": 0.0875043333333565
                },
                {
                    "name": "D6",
                    "midi": 86,
                    "time": 321.2284076666735,
                    "velocity": 0.5590551181102362,
                    "duration": 0.0875043333333565
                },
                {
                    "name": "C6",
                    "midi": 84,
                    "time": 321.44716850000685,
                    "velocity": 0.5669291338582677,
                    "duration": 0.13125650000000633
                },
                {
                    "name": "F#5",
                    "midi": 78,
                    "time": 321.44716850000685,
                    "velocity": 0.5669291338582677,
                    "duration": 0.13125650000000633
                },
                {
                    "name": "E6",
                    "midi": 88,
                    "time": 321.70968150000687,
                    "velocity": 0.5669291338582677,
                    "duration": 0.13125650000000633
                },
                {
                    "name": "C6",
                    "midi": 84,
                    "time": 321.70968150000687,
                    "velocity": 0.5669291338582677,
                    "duration": 0.13125650000000633
                },
                {
                    "name": "F#5",
                    "midi": 78,
                    "time": 321.70968150000687,
                    "velocity": 0.5669291338582677,
                    "duration": 0.13125650000000633
                },
                {
                    "name": "D6",
                    "midi": 86,
                    "time": 321.9721945000069,
                    "velocity": 0.5669291338582677,
                    "duration": 0.13125650000000633
                },
                {
                    "name": "C6",
                    "midi": 84,
                    "time": 321.9721945000069,
                    "velocity": 0.5669291338582677,
                    "duration": 0.13125650000000633
                },
                {
                    "name": "F#5",
                    "midi": 78,
                    "time": 321.9721945000069,
                    "velocity": 0.5669291338582677,
                    "duration": 0.13125650000000633
                },
                {
                    "name": "F#6",
                    "midi": 90,
                    "time": 322.2347075000069,
                    "velocity": 0.5669291338582677,
                    "duration": 0.13125650000000633
                },
                {
                    "name": "C6",
                    "midi": 84,
                    "time": 322.2347075000069,
                    "velocity": 0.5669291338582677,
                    "duration": 0.13125650000000633
                },
                {
                    "name": "F#5",
                    "midi": 78,
                    "time": 322.2347075000069,
                    "velocity": 0.5669291338582677,
                    "duration": 0.13125650000000633
                },
                {
                    "name": "C6",
                    "midi": 84,
                    "time": 322.4972205000069,
                    "velocity": 0.5669291338582677,
                    "duration": 0.13125650000000633
                },
                {
                    "name": "F#5",
                    "midi": 78,
                    "time": 322.4972205000069,
                    "velocity": 0.5669291338582677,
                    "duration": 0.13125650000000633
                },
                {
                    "name": "E6",
                    "midi": 88,
                    "time": 322.7597335000069,
                    "velocity": 0.5669291338582677,
                    "duration": 0.13125650000000633
                },
                {
                    "name": "C6",
                    "midi": 84,
                    "time": 322.7597335000069,
                    "velocity": 0.5669291338582677,
                    "duration": 0.13125650000000633
                },
                {
                    "name": "F#5",
                    "midi": 78,
                    "time": 322.7597335000069,
                    "velocity": 0.5669291338582677,
                    "duration": 0.13125650000000633
                },
                {
                    "name": "D6",
                    "midi": 86,
                    "time": 323.02224650000693,
                    "velocity": 0.5669291338582677,
                    "duration": 0.13125650000000633
                },
                {
                    "name": "C6",
                    "midi": 84,
                    "time": 323.02224650000693,
                    "velocity": 0.5669291338582677,
                    "duration": 0.13125650000000633
                },
                {
                    "name": "F#5",
                    "midi": 78,
                    "time": 323.02224650000693,
                    "velocity": 0.5669291338582677,
                    "duration": 0.13125650000000633
                },
                {
                    "name": "F#6",
                    "midi": 90,
                    "time": 323.28475950000694,
                    "velocity": 0.5669291338582677,
                    "duration": 0.13125650000000633
                },
                {
                    "name": "C6",
                    "midi": 84,
                    "time": 323.28475950000694,
                    "velocity": 0.5669291338582677,
                    "duration": 0.13125650000000633
                },
                {
                    "name": "F#5",
                    "midi": 78,
                    "time": 323.28475950000694,
                    "velocity": 0.5669291338582677,
                    "duration": 0.13125650000000633
                },
                {
                    "name": "B5",
                    "midi": 83,
                    "time": 323.41601600000695,
                    "velocity": 0.6614173228346457,
                    "duration": 0.26251300000001265
                },
                {
                    "name": "A5",
                    "midi": 81,
                    "time": 323.41601600000695,
                    "velocity": 0.6614173228346457,
                    "duration": 0.26251300000001265
                },
                {
                    "name": "D6",
                    "midi": 86,
                    "time": 323.41601600000695,
                    "velocity": 0.6614173228346457,
                    "duration": 0.26251300000001265
                },
                {
                    "name": "B5",
                    "midi": 83,
                    "time": 323.941042000007,
                    "velocity": 0.5669291338582677,
                    "duration": 0.26251300000001265
                },
                {
                    "name": "G5",
                    "midi": 79,
                    "time": 323.941042000007,
                    "velocity": 0.5669291338582677,
                    "duration": 0.26251300000001265
                },
                {
                    "name": "D6",
                    "midi": 86,
                    "time": 323.941042000007,
                    "velocity": 0.5669291338582677,
                    "duration": 0.26251300000001265
                },
                {
                    "name": "B5",
                    "midi": 83,
                    "time": 324.334811500007,
                    "velocity": 0.5669291338582677,
                    "duration": 0.13125650000000633
                },
                {
                    "name": "D6",
                    "midi": 86,
                    "time": 324.334811500007,
                    "velocity": 0.5669291338582677,
                    "duration": 0.13125650000000633
                },
                {
                    "name": "G5",
                    "midi": 79,
                    "time": 324.334811500007,
                    "velocity": 0.5669291338582677,
                    "duration": 0.13125650000000633
                },
                {
                    "name": "B5",
                    "midi": 83,
                    "time": 324.466068000007,
                    "velocity": 0.5669291338582677,
                    "duration": 0.5250260000000253
                },
                {
                    "name": "D6",
                    "midi": 86,
                    "time": 324.466068000007,
                    "velocity": 0.5669291338582677,
                    "duration": 0.5250260000000253
                },
                {
                    "name": "G5",
                    "midi": 79,
                    "time": 324.466068000007,
                    "velocity": 0.5669291338582677,
                    "duration": 0.5250260000000253
                },
                {
                    "name": "A5",
                    "midi": 81,
                    "time": 325.25360700000704,
                    "velocity": 0.49606299212598426,
                    "duration": 0.0875043333333565
                },
                {
                    "name": "B5",
                    "midi": 83,
                    "time": 325.34220513750705,
                    "velocity": 0.49606299212598426,
                    "duration": 0.08750433333329966
                },
                {
                    "name": "A5",
                    "midi": 81,
                    "time": 325.42752186250704,
                    "velocity": 0.49606299212598426,
                    "duration": 0.08750433333329966
                },
                {
                    "name": "G5",
                    "midi": 79,
                    "time": 325.647376500007,
                    "velocity": 0.5039370078740157,
                    "duration": 0.13125650000000633
                },
                {
                    "name": "C#5",
                    "midi": 73,
                    "time": 325.647376500007,
                    "velocity": 0.5039370078740157,
                    "duration": 0.13125650000000633
                },
                {
                    "name": "B5",
                    "midi": 83,
                    "time": 325.909889500007,
                    "velocity": 0.5039370078740157,
                    "duration": 0.13125650000000633
                },
                {
                    "name": "G5",
                    "midi": 79,
                    "time": 325.909889500007,
                    "velocity": 0.5039370078740157,
                    "duration": 0.13125650000000633
                },
                {
                    "name": "C#5",
                    "midi": 73,
                    "time": 325.909889500007,
                    "velocity": 0.5039370078740157,
                    "duration": 0.13125650000000633
                },
                {
                    "name": "G5",
                    "midi": 79,
                    "time": 326.172402500007,
                    "velocity": 0.5039370078740157,
                    "duration": 0.13125650000000633
                },
                {
                    "name": "A5",
                    "midi": 81,
                    "time": 326.172402500007,
                    "velocity": 0.5039370078740157,
                    "duration": 0.13125650000000633
                },
                {
                    "name": "C#5",
                    "midi": 73,
                    "time": 326.172402500007,
                    "velocity": 0.5039370078740157,
                    "duration": 0.13125650000000633
                },
                {
                    "name": "C#6",
                    "midi": 85,
                    "time": 326.43491550000704,
                    "velocity": 0.5039370078740157,
                    "duration": 0.13125650000000633
                },
                {
                    "name": "G5",
                    "midi": 79,
                    "time": 326.43491550000704,
                    "velocity": 0.5039370078740157,
                    "duration": 0.13125650000000633
                },
                {
                    "name": "C#5",
                    "midi": 73,
                    "time": 326.43491550000704,
                    "velocity": 0.5039370078740157,
                    "duration": 0.13125650000000633
                },
                {
                    "name": "C#5",
                    "midi": 73,
                    "time": 326.69742850000705,
                    "velocity": 0.49606299212598426,
                    "duration": 0.13125650000000633
                },
                {
                    "name": "G5",
                    "midi": 79,
                    "time": 326.69742850000705,
                    "velocity": 0.49606299212598426,
                    "duration": 0.13125650000000633
                },
                {
                    "name": "B5",
                    "midi": 83,
                    "time": 326.95994150000706,
                    "velocity": 0.49606299212598426,
                    "duration": 0.13125650000000633
                },
                {
                    "name": "G5",
                    "midi": 79,
                    "time": 326.95994150000706,
                    "velocity": 0.49606299212598426,
                    "duration": 0.13125650000000633
                },
                {
                    "name": "C#5",
                    "midi": 73,
                    "time": 326.95994150000706,
                    "velocity": 0.49606299212598426,
                    "duration": 0.13125650000000633
                },
                {
                    "name": "C#5",
                    "midi": 73,
                    "time": 327.2224545000071,
                    "velocity": 0.49606299212598426,
                    "duration": 0.13125650000000633
                },
                {
                    "name": "G5",
                    "midi": 79,
                    "time": 327.2224545000071,
                    "velocity": 0.49606299212598426,
                    "duration": 0.13125650000000633
                },
                {
                    "name": "A5",
                    "midi": 81,
                    "time": 327.2224545000071,
                    "velocity": 0.49606299212598426,
                    "duration": 0.13125650000000633
                },
                {
                    "name": "G5",
                    "midi": 79,
                    "time": 327.4849675000071,
                    "velocity": 0.49606299212598426,
                    "duration": 0.13125650000000633
                },
                {
                    "name": "C#6",
                    "midi": 85,
                    "time": 327.4849675000071,
                    "velocity": 0.49606299212598426,
                    "duration": 0.13125650000000633
                },
                {
                    "name": "C#5",
                    "midi": 73,
                    "time": 327.4849675000071,
                    "velocity": 0.49606299212598426,
                    "duration": 0.13125650000000633
                },
                {
                    "name": "A5",
                    "midi": 81,
                    "time": 327.6162240000071,
                    "velocity": 0.5511811023622047,
                    "duration": 0.26251300000001265
                },
                {
                    "name": "F#5",
                    "midi": 78,
                    "time": 327.6162240000071,
                    "velocity": 0.5511811023622047,
                    "duration": 0.26251300000001265
                },
                {
                    "name": "E5",
                    "midi": 76,
                    "time": 327.6162240000071,
                    "velocity": 0.5511811023622047,
                    "duration": 0.26251300000001265
                },
                {
                    "name": "A5",
                    "midi": 81,
                    "time": 328.1412500000071,
                    "velocity": 0.5039370078740157,
                    "duration": 0.26251300000001265
                },
                {
                    "name": "F#5",
                    "midi": 78,
                    "time": 328.1412500000071,
                    "velocity": 0.5039370078740157,
                    "duration": 0.26251300000001265
                },
                {
                    "name": "D5",
                    "midi": 74,
                    "time": 328.1412500000071,
                    "velocity": 0.5039370078740157,
                    "duration": 0.26251300000001265
                },
                {
                    "name": "A5",
                    "midi": 81,
                    "time": 328.53501950000714,
                    "velocity": 0.5039370078740157,
                    "duration": 0.13125650000000633
                },
                {
                    "name": "F#5",
                    "midi": 78,
                    "time": 328.53501950000714,
                    "velocity": 0.5039370078740157,
                    "duration": 0.13125650000000633
                },
                {
                    "name": "D5",
                    "midi": 74,
                    "time": 328.53501950000714,
                    "velocity": 0.5039370078740157,
                    "duration": 0.13125650000000633
                },
                {
                    "name": "A5",
                    "midi": 81,
                    "time": 328.66627600000714,
                    "velocity": 0.5039370078740157,
                    "duration": 0.5250260000000253
                },
                {
                    "name": "F#5",
                    "midi": 78,
                    "time": 328.66627600000714,
                    "velocity": 0.5039370078740157,
                    "duration": 0.5250260000000253
                },
                {
                    "name": "D5",
                    "midi": 74,
                    "time": 328.66627600000714,
                    "velocity": 0.5039370078740157,
                    "duration": 0.5250260000000253
                },
                {
                    "name": "D5",
                    "midi": 74,
                    "time": 329.4538150000072,
                    "velocity": 0.3937007874015748,
                    "duration": 0.0875043333333565
                },
                {
                    "name": "E5",
                    "midi": 76,
                    "time": 329.54131933334054,
                    "velocity": 0.3937007874015748,
                    "duration": 0.0875043333333565
                },
                {
                    "name": "D5",
                    "midi": 74,
                    "time": 329.6288236666739,
                    "velocity": 0.3937007874015748,
                    "duration": 0.0875043333333565
                },
                {
                    "name": "C5",
                    "midi": 72,
                    "time": 329.84758450000726,
                    "velocity": 0.4015748031496063,
                    "duration": 0.13125650000000633
                },
                {
                    "name": "F#4",
                    "midi": 66,
                    "time": 329.84758450000726,
                    "velocity": 0.4015748031496063,
                    "duration": 0.13125650000000633
                },
                {
                    "name": "E5",
                    "midi": 76,
                    "time": 330.11009750000727,
                    "velocity": 0.4015748031496063,
                    "duration": 0.13125650000000633
                },
                {
                    "name": "C5",
                    "midi": 72,
                    "time": 330.11009750000727,
                    "velocity": 0.4015748031496063,
                    "duration": 0.13125650000000633
                },
                {
                    "name": "F#4",
                    "midi": 66,
                    "time": 330.11009750000727,
                    "velocity": 0.4015748031496063,
                    "duration": 0.13125650000000633
                },
                {
                    "name": "C5",
                    "midi": 72,
                    "time": 330.3726105000073,
                    "velocity": 0.4015748031496063,
                    "duration": 0.13125650000000633
                },
                {
                    "name": "D5",
                    "midi": 74,
                    "time": 330.3726105000073,
                    "velocity": 0.4015748031496063,
                    "duration": 0.13125650000000633
                },
                {
                    "name": "F#4",
                    "midi": 66,
                    "time": 330.3726105000073,
                    "velocity": 0.4015748031496063,
                    "duration": 0.13125650000000633
                },
                {
                    "name": "F#5",
                    "midi": 78,
                    "time": 330.6351235000073,
                    "velocity": 0.4015748031496063,
                    "duration": 0.13125650000000633
                },
                {
                    "name": "C5",
                    "midi": 72,
                    "time": 330.6351235000073,
                    "velocity": 0.4015748031496063,
                    "duration": 0.13125650000000633
                },
                {
                    "name": "F#4",
                    "midi": 66,
                    "time": 330.6351235000073,
                    "velocity": 0.4015748031496063,
                    "duration": 0.13125650000000633
                },
                {
                    "name": "F#4",
                    "midi": 66,
                    "time": 330.8976365000073,
                    "velocity": 0.3937007874015748,
                    "duration": 0.13125650000000633
                },
                {
                    "name": "C5",
                    "midi": 72,
                    "time": 330.8976365000073,
                    "velocity": 0.3937007874015748,
                    "duration": 0.13125650000000633
                },
                {
                    "name": "E5",
                    "midi": 76,
                    "time": 331.1601495000073,
                    "velocity": 0.3937007874015748,
                    "duration": 0.13125650000000633
                },
                {
                    "name": "C5",
                    "midi": 72,
                    "time": 331.1601495000073,
                    "velocity": 0.3937007874015748,
                    "duration": 0.13125650000000633
                },
                {
                    "name": "F#4",
                    "midi": 66,
                    "time": 331.1601495000073,
                    "velocity": 0.3937007874015748,
                    "duration": 0.13125650000000633
                },
                {
                    "name": "F#4",
                    "midi": 66,
                    "time": 331.42266250000733,
                    "velocity": 0.3937007874015748,
                    "duration": 0.13125650000000633
                },
                {
                    "name": "C5",
                    "midi": 72,
                    "time": 331.42266250000733,
                    "velocity": 0.3937007874015748,
                    "duration": 0.13125650000000633
                },
                {
                    "name": "D5",
                    "midi": 74,
                    "time": 331.42266250000733,
                    "velocity": 0.3937007874015748,
                    "duration": 0.13125650000000633
                },
                {
                    "name": "C5",
                    "midi": 72,
                    "time": 331.68517550000735,
                    "velocity": 0.3937007874015748,
                    "duration": 0.13125650000000633
                },
                {
                    "name": "F#5",
                    "midi": 78,
                    "time": 331.68517550000735,
                    "velocity": 0.3937007874015748,
                    "duration": 0.13125650000000633
                },
                {
                    "name": "F#4",
                    "midi": 66,
                    "time": 331.68517550000735,
                    "velocity": 0.3937007874015748,
                    "duration": 0.13125650000000633
                },
                {
                    "name": "D5",
                    "midi": 74,
                    "time": 331.81643200000735,
                    "velocity": 0.47244094488188976,
                    "duration": 0.26251300000001265
                },
                {
                    "name": "B4",
                    "midi": 71,
                    "time": 331.81643200000735,
                    "velocity": 0.47244094488188976,
                    "duration": 0.26251300000001265
                },
                {
                    "name": "A4",
                    "midi": 69,
                    "time": 331.81643200000735,
                    "velocity": 0.47244094488188976,
                    "duration": 0.26251300000001265
                },
                {
                    "name": "D5",
                    "midi": 74,
                    "time": 332.3414580000074,
                    "velocity": 0.4015748031496063,
                    "duration": 0.26251300000001265
                },
                {
                    "name": "B4",
                    "midi": 71,
                    "time": 332.3414580000074,
                    "velocity": 0.4015748031496063,
                    "duration": 0.26251300000001265
                },
                {
                    "name": "G4",
                    "midi": 67,
                    "time": 332.3414580000074,
                    "velocity": 0.4015748031496063,
                    "duration": 0.26251300000001265
                },
                {
                    "name": "D5",
                    "midi": 74,
                    "time": 332.7352275000074,
                    "velocity": 0.4015748031496063,
                    "duration": 0.13125650000000633
                },
                {
                    "name": "B4",
                    "midi": 71,
                    "time": 332.7352275000074,
                    "velocity": 0.4015748031496063,
                    "duration": 0.13125650000000633
                },
                {
                    "name": "G4",
                    "midi": 67,
                    "time": 332.7352275000074,
                    "velocity": 0.4015748031496063,
                    "duration": 0.13125650000000633
                },
                {
                    "name": "D5",
                    "midi": 74,
                    "time": 332.8664840000074,
                    "velocity": 0.4015748031496063,
                    "duration": 0.5250260000000253
                },
                {
                    "name": "B4",
                    "midi": 71,
                    "time": 332.8664840000074,
                    "velocity": 0.4015748031496063,
                    "duration": 0.5250260000000253
                },
                {
                    "name": "G4",
                    "midi": 67,
                    "time": 332.8664840000074,
                    "velocity": 0.4015748031496063,
                    "duration": 0.5250260000000253
                },
                {
                    "name": "A4",
                    "midi": 69,
                    "time": 333.65402300000744,
                    "velocity": 0.3700787401574803,
                    "duration": 0.0875043333333565
                },
                {
                    "name": "B4",
                    "midi": 71,
                    "time": 333.74262113750746,
                    "velocity": 0.3700787401574803,
                    "duration": 0.08750433333329966
                },
                {
                    "name": "A4",
                    "midi": 69,
                    "time": 333.82793786250744,
                    "velocity": 0.3700787401574803,
                    "duration": 0.08750433333329966
                },
                {
                    "name": "G4",
                    "midi": 67,
                    "time": 334.0477925000074,
                    "velocity": 0.3700787401574803,
                    "duration": 0.13125650000000633
                },
                {
                    "name": "C#4",
                    "midi": 61,
                    "time": 334.0477925000074,
                    "velocity": 0.3700787401574803,
                    "duration": 0.13125650000000633
                },
                {
                    "name": "B4",
                    "midi": 71,
                    "time": 334.3103055000074,
                    "velocity": 0.3700787401574803,
                    "duration": 0.13125650000000633
                },
                {
                    "name": "G4",
                    "midi": 67,
                    "time": 334.3103055000074,
                    "velocity": 0.3700787401574803,
                    "duration": 0.13125650000000633
                },
                {
                    "name": "C#4",
                    "midi": 61,
                    "time": 334.3103055000074,
                    "velocity": 0.3700787401574803,
                    "duration": 0.13125650000000633
                },
                {
                    "name": "G4",
                    "midi": 67,
                    "time": 334.57281850000743,
                    "velocity": 0.3700787401574803,
                    "duration": 0.13125650000000633
                },
                {
                    "name": "A4",
                    "midi": 69,
                    "time": 334.57281850000743,
                    "velocity": 0.3700787401574803,
                    "duration": 0.13125650000000633
                },
                {
                    "name": "C#4",
                    "midi": 61,
                    "time": 334.57281850000743,
                    "velocity": 0.3700787401574803,
                    "duration": 0.13125650000000633
                },
                {
                    "name": "C#5",
                    "midi": 73,
                    "time": 334.83533150000744,
                    "velocity": 0.3700787401574803,
                    "duration": 0.13125650000000633
                },
                {
                    "name": "G4",
                    "midi": 67,
                    "time": 334.83533150000744,
                    "velocity": 0.3700787401574803,
                    "duration": 0.13125650000000633
                },
                {
                    "name": "C#4",
                    "midi": 61,
                    "time": 334.83533150000744,
                    "velocity": 0.3700787401574803,
                    "duration": 0.13125650000000633
                },
                {
                    "name": "C#4",
                    "midi": 61,
                    "time": 335.09784450000745,
                    "velocity": 0.3700787401574803,
                    "duration": 0.13125650000000633
                },
                {
                    "name": "G4",
                    "midi": 67,
                    "time": 335.09784450000745,
                    "velocity": 0.3700787401574803,
                    "duration": 0.13125650000000633
                },
                {
                    "name": "B4",
                    "midi": 71,
                    "time": 335.36035750000747,
                    "velocity": 0.3700787401574803,
                    "duration": 0.13125650000000633
                },
                {
                    "name": "G4",
                    "midi": 67,
                    "time": 335.36035750000747,
                    "velocity": 0.3700787401574803,
                    "duration": 0.13125650000000633
                },
                {
                    "name": "C#4",
                    "midi": 61,
                    "time": 335.36035750000747,
                    "velocity": 0.3700787401574803,
                    "duration": 0.13125650000000633
                },
                {
                    "name": "C#4",
                    "midi": 61,
                    "time": 335.6228705000075,
                    "velocity": 0.3700787401574803,
                    "duration": 0.13125650000000633
                },
                {
                    "name": "G4",
                    "midi": 67,
                    "time": 335.6228705000075,
                    "velocity": 0.3700787401574803,
                    "duration": 0.13125650000000633
                },
                {
                    "name": "A4",
                    "midi": 69,
                    "time": 335.6228705000075,
                    "velocity": 0.3700787401574803,
                    "duration": 0.13125650000000633
                },
                {
                    "name": "G4",
                    "midi": 67,
                    "time": 335.8853835000075,
                    "velocity": 0.3700787401574803,
                    "duration": 0.13125650000000633
                },
                {
                    "name": "C#5",
                    "midi": 73,
                    "time": 335.8853835000075,
                    "velocity": 0.3700787401574803,
                    "duration": 0.13125650000000633
                },
                {
                    "name": "C#4",
                    "midi": 61,
                    "time": 335.8853835000075,
                    "velocity": 0.3700787401574803,
                    "duration": 0.13125650000000633
                },
                {
                    "name": "A4",
                    "midi": 69,
                    "time": 336.0166400000075,
                    "velocity": 0.4330708661417323,
                    "duration": 0.26251300000001265
                },
                {
                    "name": "F#4",
                    "midi": 66,
                    "time": 336.0166400000075,
                    "velocity": 0.4330708661417323,
                    "duration": 0.26251300000001265
                },
                {
                    "name": "E4",
                    "midi": 64,
                    "time": 336.0166400000075,
                    "velocity": 0.4330708661417323,
                    "duration": 0.26251300000001265
                },
                {
                    "name": "A4",
                    "midi": 69,
                    "time": 336.5416660000075,
                    "velocity": 0.3700787401574803,
                    "duration": 0.26251300000001265
                },
                {
                    "name": "F#4",
                    "midi": 66,
                    "time": 336.5416660000075,
                    "velocity": 0.3700787401574803,
                    "duration": 0.26251300000001265
                },
                {
                    "name": "D4",
                    "midi": 62,
                    "time": 336.5416660000075,
                    "velocity": 0.3700787401574803,
                    "duration": 0.26251300000001265
                },
                {
                    "name": "A4",
                    "midi": 69,
                    "time": 336.93543550000754,
                    "velocity": 0.3700787401574803,
                    "duration": 0.13125650000000633
                },
                {
                    "name": "F#4",
                    "midi": 66,
                    "time": 336.93543550000754,
                    "velocity": 0.3700787401574803,
                    "duration": 0.13125650000000633
                },
                {
                    "name": "D4",
                    "midi": 62,
                    "time": 336.93543550000754,
                    "velocity": 0.3700787401574803,
                    "duration": 0.13125650000000633
                },
                {
                    "name": "A4",
                    "midi": 69,
                    "time": 337.06669200000755,
                    "velocity": 0.3700787401574803,
                    "duration": 0.5250260000000253
                },
                {
                    "name": "F#4",
                    "midi": 66,
                    "time": 337.06669200000755,
                    "velocity": 0.3700787401574803,
                    "duration": 0.5250260000000253
                },
                {
                    "name": "D4",
                    "midi": 62,
                    "time": 337.06669200000755,
                    "velocity": 0.3700787401574803,
                    "duration": 0.5250260000000253
                },
                {
                    "name": "D4",
                    "midi": 62,
                    "time": 338.1167440000076,
                    "velocity": 0.3543307086614173,
                    "duration": 0.26251300000001265
                },
                {
                    "name": "B3",
                    "midi": 59,
                    "time": 338.1167440000076,
                    "velocity": 0.3543307086614173,
                    "duration": 0.26251300000001265
                },
                {
                    "name": "A3",
                    "midi": 57,
                    "time": 338.1167440000076,
                    "velocity": 0.3543307086614173,
                    "duration": 0.26251300000001265
                },
                {
                    "name": "D4",
                    "midi": 62,
                    "time": 338.6417700000076,
                    "velocity": 0.33070866141732286,
                    "duration": 0.26251300000001265
                },
                {
                    "name": "B3",
                    "midi": 59,
                    "time": 338.6417700000076,
                    "velocity": 0.33070866141732286,
                    "duration": 0.26251300000001265
                },
                {
                    "name": "G3",
                    "midi": 55,
                    "time": 338.6417700000076,
                    "velocity": 0.33070866141732286,
                    "duration": 0.26251300000001265
                },
                {
                    "name": "D4",
                    "midi": 62,
                    "time": 339.03553950000764,
                    "velocity": 0.33070866141732286,
                    "duration": 0.13125650000000633
                },
                {
                    "name": "B3",
                    "midi": 59,
                    "time": 339.03553950000764,
                    "velocity": 0.33070866141732286,
                    "duration": 0.13125650000000633
                },
                {
                    "name": "G3",
                    "midi": 55,
                    "time": 339.03553950000764,
                    "velocity": 0.33070866141732286,
                    "duration": 0.13125650000000633
                },
                {
                    "name": "D4",
                    "midi": 62,
                    "time": 339.16679600000765,
                    "velocity": 0.33070866141732286,
                    "duration": 0.5250260000000253
                },
                {
                    "name": "B3",
                    "midi": 59,
                    "time": 339.16679600000765,
                    "velocity": 0.33070866141732286,
                    "duration": 0.5250260000000253
                },
                {
                    "name": "G3",
                    "midi": 55,
                    "time": 339.16679600000765,
                    "velocity": 0.33070866141732286,
                    "duration": 0.5250260000000253
                },
                {
                    "name": "E3",
                    "midi": 52,
                    "time": 340.7418740000077,
                    "velocity": 0.2755905511811024,
                    "duration": 0.13125650000000633
                },
                {
                    "name": "A3",
                    "midi": 57,
                    "time": 340.7418740000077,
                    "velocity": 0.2755905511811024,
                    "duration": 0.13125650000000633
                },
                {
                    "name": "F#3",
                    "midi": 54,
                    "time": 340.7418740000077,
                    "velocity": 0.2755905511811024,
                    "duration": 0.13125650000000633
                },
                {
                    "name": "D3",
                    "midi": 50,
                    "time": 341.7919260000077,
                    "velocity": 0.2755905511811024,
                    "duration": 0.13125650000000633
                },
                {
                    "name": "A3",
                    "midi": 57,
                    "time": 341.7919260000077,
                    "velocity": 0.2755905511811024,
                    "duration": 0.13125650000000633
                },
                {
                    "name": "F#3",
                    "midi": 54,
                    "time": 341.7919260000077,
                    "velocity": 0.2755905511811024,
                    "duration": 0.13125650000000633
                },
                {
                    "name": "A2",
                    "midi": 45,
                    "time": 342.8419780000077,
                    "velocity": 0.2755905511811024,
                    "duration": 0.13125650000000633
                },
                {
                    "name": "B2",
                    "midi": 47,
                    "time": 342.8419780000077,
                    "velocity": 0.2755905511811024,
                    "duration": 0.13125650000000633
                },
                {
                    "name": "D3",
                    "midi": 50,
                    "time": 342.8419780000077,
                    "velocity": 0.2755905511811024,
                    "duration": 0.13125650000000633
                },
                {
                    "name": "G2",
                    "midi": 43,
                    "time": 343.8920300000077,
                    "velocity": 0.2755905511811024,
                    "duration": 0.13125650000000633
                },
                {
                    "name": "B2",
                    "midi": 47,
                    "time": 343.8920300000077,
                    "velocity": 0.2755905511811024,
                    "duration": 0.13125650000000633
                },
                {
                    "name": "D3",
                    "midi": 50,
                    "time": 343.8920300000077,
                    "velocity": 0.2755905511811024,
                    "duration": 0.13125650000000633
                },
                {
                    "name": "D3",
                    "midi": 50,
                    "time": 344.9420820000077,
                    "velocity": 0.2755905511811024,
                    "duration": 0.26251300000001265
                },
                {
                    "name": "G2",
                    "midi": 43,
                    "time": 344.9420820000077,
                    "velocity": 0.2755905511811024,
                    "duration": 0.26251300000001265
                },
                {
                    "name": "D4",
                    "midi": 62,
                    "time": 345.9921340000077,
                    "velocity": 0.2755905511811024,
                    "duration": 0.26251300000001265
                },
                {
                    "name": "G3",
                    "midi": 55,
                    "time": 345.9921340000077,
                    "velocity": 0.2755905511811024,
                    "duration": 0.26251300000001265
                },
                {
                    "name": "D5",
                    "midi": 74,
                    "time": 347.0421860000077,
                    "velocity": 0.29133858267716534,
                    "duration": 0.26251300000001265
                },
                {
                    "name": "G4",
                    "midi": 67,
                    "time": 347.0421860000077,
                    "velocity": 0.29133858267716534,
                    "duration": 0.26251300000001265
                },
                {
                    "name": "D6",
                    "midi": 86,
                    "time": 348.0922380000077,
                    "velocity": 0.30708661417322836,
                    "duration": 0.26251300000001265
                },
                {
                    "name": "G5",
                    "midi": 79,
                    "time": 348.0922380000077,
                    "velocity": 0.30708661417322836,
                    "duration": 0.26251300000001265
                },
                {
                    "name": "D6",
                    "midi": 86,
                    "time": 349.1422900000077,
                    "velocity": 0.30708661417322836,
                    "duration": 0.26251300000001265
                },
                {
                    "name": "G5",
                    "midi": 79,
                    "time": 349.1422900000077,
                    "velocity": 0.30708661417322836,
                    "duration": 0.26251300000001265
                },
                {
                    "name": "G4",
                    "midi": 67,
                    "time": 350.19234200000767,
                    "velocity": 0.29133858267716534,
                    "duration": 0.26251300000001265
                },
                {
                    "name": "D5",
                    "midi": 74,
                    "time": 350.19234200000767,
                    "velocity": 0.29133858267716534,
                    "duration": 0.26251300000001265
                },
                {
                    "name": "G3",
                    "midi": 55,
                    "time": 351.24239400000766,
                    "velocity": 0.2755905511811024,
                    "duration": 0.26251300000001265
                },
                {
                    "name": "D4",
                    "midi": 62,
                    "time": 351.24239400000766,
                    "velocity": 0.2755905511811024,
                    "duration": 0.26251300000001265
                },
                {
                    "name": "G2",
                    "midi": 43,
                    "time": 352.29244600000766,
                    "velocity": 0.2677165354330709,
                    "duration": 0.26251300000001265
                },
                {
                    "name": "D3",
                    "midi": 50,
                    "time": 352.29244600000766,
                    "velocity": 0.2677165354330709,
                    "duration": 0.26251300000001265
                },
                {
                    "name": "G1",
                    "midi": 31,
                    "time": 353.8675240000077,
                    "velocity": 0.23622047244094488,
                    "duration": 0.26251300000001265
                },
                {
                    "name": "D2",
                    "midi": 38,
                    "time": 353.8675240000077,
                    "velocity": 0.23622047244094488,
                    "duration": 0.26251300000001265
                },
                {
                    "name": "D6",
                    "midi": 86,
                    "time": 354.91757600000767,
                    "velocity": 0.9921259842519685,
                    "duration": 0.393769500000019
                },
                {
                    "name": "A5",
                    "midi": 81,
                    "time": 354.91757600000767,
                    "velocity": 0.7401574803149606,
                    "duration": 0.393769500000019
                },
                {
                    "name": "F#5",
                    "midi": 78,
                    "time": 354.91757600000767,
                    "velocity": 0.7322834645669292,
                    "duration": 0.393769500000019
                },
                {
                    "name": "D5",
                    "midi": 74,
                    "time": 354.91757600000767,
                    "velocity": 0.7322834645669292,
                    "duration": 0.393769500000019
                }
            ],
            "controlChanges": {
                "7": [
                    {
                        "number": 7,
                        "time": 0,
                        "value": 0.7874015748031497
                    }
                ],
                "10": [
                    {
                        "number": 10,
                        "time": 0,
                        "value": 0.5039370078740157
                    }
                ],
                "91": [
                    {
                        "number": 91,
                        "time": 0,
                        "value": 1
                    },
                    {
                        "number": 91,
                        "time": 21.001039999999975,
                        "value": 1
                    },
                    {
                        "number": 91,
                        "time": 42.00207999999995,
                        "value": 1
                    },
                    {
                        "number": 91,
                        "time": 64.57819799999996,
                        "value": 1
                    },
                    {
                        "number": 91,
                        "time": 68.77840600000016,
                        "value": 1
                    },
                    {
                        "number": 91,
                        "time": 72.97861400000036,
                        "value": 1
                    },
                    {
                        "number": 91,
                        "time": 77.17882200000057,
                        "value": 1
                    },
                    {
                        "number": 91,
                        "time": 92.4045760000013,
                        "value": 1
                    },
                    {
                        "number": 91,
                        "time": 100.54247900000125,
                        "value": 1
                    },
                    {
                        "number": 91,
                        "time": 117.60582400000146,
                        "value": 1
                    },
                    {
                        "number": 91,
                        "time": 128.10634400000143,
                        "value": 1
                    },
                    {
                        "number": 91,
                        "time": 136.50676000000152,
                        "value": 1
                    },
                    {
                        "number": 91,
                        "time": 144.90717600000167,
                        "value": 1
                    },
                    {
                        "number": 91,
                        "time": 153.3075920000018,
                        "value": 1
                    },
                    {
                        "number": 91,
                        "time": 161.70800800000185,
                        "value": 1
                    },
                    {
                        "number": 91,
                        "time": 170.10842400000195,
                        "value": 1
                    },
                    {
                        "number": 91,
                        "time": 178.5088400000021,
                        "value": 1
                    },
                    {
                        "number": 91,
                        "time": 186.90925600000222,
                        "value": 1
                    },
                    {
                        "number": 91,
                        "time": 195.30967200000228,
                        "value": 1
                    },
                    {
                        "number": 91,
                        "time": 203.71008800000237,
                        "value": 1
                    },
                    {
                        "number": 91,
                        "time": 224.7111280000031,
                        "value": 1
                    },
                    {
                        "number": 91,
                        "time": 245.71216800000383,
                        "value": 1
                    },
                    {
                        "number": 91,
                        "time": 268.2882860000041,
                        "value": 1
                    },
                    {
                        "number": 91,
                        "time": 272.4884940000043,
                        "value": 1
                    },
                    {
                        "number": 91,
                        "time": 276.6887020000045,
                        "value": 1
                    },
                    {
                        "number": 91,
                        "time": 280.8889100000047,
                        "value": 1
                    },
                    {
                        "number": 91,
                        "time": 296.11466400000546,
                        "value": 1
                    },
                    {
                        "number": 91,
                        "time": 304.25256700000585,
                        "value": 1
                    },
                    {
                        "number": 91,
                        "time": 320.79088600000676,
                        "value": 1
                    },
                    {
                        "number": 91,
                        "time": 324.9987506291737,
                        "value": 1
                    },
                    {
                        "number": 91,
                        "time": 329.19895862917383,
                        "value": 1
                    },
                    {
                        "number": 91,
                        "time": 333.3991666291741,
                        "value": 1
                    },
                    {
                        "number": 91,
                        "time": 340.2168480000077,
                        "value": 1
                    }
                ]
            },
            "id": 1,
            "name": "Piano right",
            "instrumentNumber": 0,
            "instrument": "acoustic grand piano",
            "instrumentFamily": "piano",
            "channelNumber": 0,
            "isPercussion": false
        },
        {
            "startTime": 0,
            "duration": 355.31134550000127,
            "length": 1603,
            "notes": [
                {
                    "name": "D2",
                    "midi": 38,
                    "time": 0,
                    "velocity": 0.28346456692913385,
                    "duration": 0.262513
                },
                {
                    "name": "A2",
                    "midi": 45,
                    "time": 0,
                    "velocity": 0.28346456692913385,
                    "duration": 0.262513
                },
                {
                    "name": "D2",
                    "midi": 38,
                    "time": 1.575078,
                    "velocity": 0.2440944881889764,
                    "duration": 0.262513
                },
                {
                    "name": "A2",
                    "midi": 45,
                    "time": 1.575078,
                    "velocity": 0.2440944881889764,
                    "duration": 0.262513
                },
                {
                    "name": "A2",
                    "midi": 45,
                    "time": 1.837591,
                    "velocity": 0.2440944881889764,
                    "duration": 0.262513
                },
                {
                    "name": "D2",
                    "midi": 38,
                    "time": 1.837591,
                    "velocity": 0.2440944881889764,
                    "duration": 0.262513
                },
                {
                    "name": "D2",
                    "midi": 38,
                    "time": 2.100104,
                    "velocity": 0.28346456692913385,
                    "duration": 0.2625130000000002
                },
                {
                    "name": "A2",
                    "midi": 45,
                    "time": 2.100104,
                    "velocity": 0.28346456692913385,
                    "duration": 0.2625130000000002
                },
                {
                    "name": "D2",
                    "midi": 38,
                    "time": 3.6751820000000004,
                    "velocity": 0.2440944881889764,
                    "duration": 0.2625130000000002
                },
                {
                    "name": "A2",
                    "midi": 45,
                    "time": 3.6751820000000004,
                    "velocity": 0.2440944881889764,
                    "duration": 0.2625130000000002
                },
                {
                    "name": "A2",
                    "midi": 45,
                    "time": 3.9376950000000006,
                    "velocity": 0.2440944881889764,
                    "duration": 0.2625130000000002
                },
                {
                    "name": "D2",
                    "midi": 38,
                    "time": 3.9376950000000006,
                    "velocity": 0.2440944881889764,
                    "duration": 0.2625130000000002
                },
                {
                    "name": "A2",
                    "midi": 45,
                    "time": 4.200208000000001,
                    "velocity": 0.2755905511811024,
                    "duration": 0.2625130000000002
                },
                {
                    "name": "D2",
                    "midi": 38,
                    "time": 4.200208000000001,
                    "velocity": 0.2755905511811024,
                    "duration": 0.2625130000000002
                },
                {
                    "name": "D3",
                    "midi": 50,
                    "time": 4.725234000000001,
                    "velocity": 0.2440944881889764,
                    "duration": 0.06562824999999961
                },
                {
                    "name": "A3",
                    "midi": 57,
                    "time": 4.725234000000001,
                    "velocity": 0.2440944881889764,
                    "duration": 0.06562824999999961
                },
                {
                    "name": "D3",
                    "midi": 50,
                    "time": 4.987747000000001,
                    "velocity": 0.2440944881889764,
                    "duration": 0.06562824999999961
                },
                {
                    "name": "A3",
                    "midi": 57,
                    "time": 4.987747000000001,
                    "velocity": 0.2440944881889764,
                    "duration": 0.06562824999999961
                },
                {
                    "name": "D3",
                    "midi": 50,
                    "time": 5.25026,
                    "velocity": 0.2755905511811024,
                    "duration": 0.2625130000000002
                },
                {
                    "name": "A3",
                    "midi": 57,
                    "time": 5.25026,
                    "velocity": 0.2755905511811024,
                    "duration": 0.2625130000000002
                },
                {
                    "name": "D2",
                    "midi": 38,
                    "time": 5.775286,
                    "velocity": 0.2440944881889764,
                    "duration": 0.06562824999999961
                },
                {
                    "name": "A2",
                    "midi": 45,
                    "time": 5.775286,
                    "velocity": 0.2440944881889764,
                    "duration": 0.06562824999999961
                },
                {
                    "name": "D2",
                    "midi": 38,
                    "time": 6.037799,
                    "velocity": 0.2440944881889764,
                    "duration": 0.06562824999999961
                },
                {
                    "name": "A2",
                    "midi": 45,
                    "time": 6.037799,
                    "velocity": 0.2440944881889764,
                    "duration": 0.06562824999999961
                },
                {
                    "name": "A2",
                    "midi": 45,
                    "time": 6.300311999999999,
                    "velocity": 0.2755905511811024,
                    "duration": 0.5250259999999995
                },
                {
                    "name": "D2",
                    "midi": 38,
                    "time": 6.300311999999999,
                    "velocity": 0.2755905511811024,
                    "duration": 0.5250259999999995
                },
                {
                    "name": "D3",
                    "midi": 50,
                    "time": 6.825337999999999,
                    "velocity": 0.25984251968503935,
                    "duration": 0.2625130000000002
                },
                {
                    "name": "A3",
                    "midi": 57,
                    "time": 6.825337999999999,
                    "velocity": 0.25984251968503935,
                    "duration": 0.2625130000000002
                },
                {
                    "name": "D3",
                    "midi": 50,
                    "time": 7.219107499999999,
                    "velocity": 0.25984251968503935,
                    "duration": 0.1312565000000001
                },
                {
                    "name": "A3",
                    "midi": 57,
                    "time": 7.219107499999999,
                    "velocity": 0.25984251968503935,
                    "duration": 0.1312565000000001
                },
                {
                    "name": "A3",
                    "midi": 57,
                    "time": 7.350363999999999,
                    "velocity": 0.25984251968503935,
                    "duration": 0.5250260000000004
                },
                {
                    "name": "D3",
                    "midi": 50,
                    "time": 7.350363999999999,
                    "velocity": 0.25984251968503935,
                    "duration": 0.5250260000000004
                },
                {
                    "name": "B1",
                    "midi": 35,
                    "time": 8.400416,
                    "velocity": 0.2677165354330709,
                    "duration": 0.5250260000000004
                },
                {
                    "name": "F#2",
                    "midi": 42,
                    "time": 8.400416,
                    "velocity": 0.2677165354330709,
                    "duration": 0.5250260000000004
                },
                {
                    "name": "F#3",
                    "midi": 54,
                    "time": 8.925442,
                    "velocity": 0.2440944881889764,
                    "duration": 0.06562824999999961
                },
                {
                    "name": "B2",
                    "midi": 47,
                    "time": 8.925442,
                    "velocity": 0.2440944881889764,
                    "duration": 0.06562824999999961
                },
                {
                    "name": "B2",
                    "midi": 47,
                    "time": 9.187955,
                    "velocity": 0.2440944881889764,
                    "duration": 0.06562824999999961
                },
                {
                    "name": "F#3",
                    "midi": 54,
                    "time": 9.187955,
                    "velocity": 0.2440944881889764,
                    "duration": 0.06562824999999961
                },
                {
                    "name": "E2",
                    "midi": 40,
                    "time": 9.450468,
                    "velocity": 0.2677165354330709,
                    "duration": 0.5250260000000004
                },
                {
                    "name": "B2",
                    "midi": 47,
                    "time": 9.450468,
                    "velocity": 0.2677165354330709,
                    "duration": 0.5250260000000004
                },
                {
                    "name": "E3",
                    "midi": 52,
                    "time": 9.975494000000001,
                    "velocity": 0.2440944881889764,
                    "duration": 0.13125649999999922
                },
                {
                    "name": "B3",
                    "midi": 59,
                    "time": 9.975494000000001,
                    "velocity": 0.2440944881889764,
                    "duration": 0.13125649999999922
                },
                {
                    "name": "E3",
                    "midi": 52,
                    "time": 10.238007,
                    "velocity": 0.2440944881889764,
                    "duration": 0.06562824999999961
                },
                {
                    "name": "B3",
                    "midi": 59,
                    "time": 10.238007,
                    "velocity": 0.2440944881889764,
                    "duration": 0.06562824999999961
                },
                {
                    "name": "A1",
                    "midi": 33,
                    "time": 10.50052,
                    "velocity": 0.2755905511811024,
                    "duration": 0.5250260000000004
                },
                {
                    "name": "E2",
                    "midi": 40,
                    "time": 10.50052,
                    "velocity": 0.2755905511811024,
                    "duration": 0.5250260000000004
                },
                {
                    "name": "A3",
                    "midi": 57,
                    "time": 11.025546,
                    "velocity": 0.25984251968503935,
                    "duration": 0.2625130000000002
                },
                {
                    "name": "E4",
                    "midi": 64,
                    "time": 11.025546,
                    "velocity": 0.25984251968503935,
                    "duration": 0.2625130000000002
                },
                {
                    "name": "E4",
                    "midi": 64,
                    "time": 11.4193155,
                    "velocity": 0.25984251968503935,
                    "duration": 0.13125649999999922
                },
                {
                    "name": "A3",
                    "midi": 57,
                    "time": 11.4193155,
                    "velocity": 0.25984251968503935,
                    "duration": 0.13125649999999922
                },
                {
                    "name": "E4",
                    "midi": 64,
                    "time": 11.550571999999999,
                    "velocity": 0.25984251968503935,
                    "duration": 0.2625130000000002
                },
                {
                    "name": "A3",
                    "midi": 57,
                    "time": 11.550571999999999,
                    "velocity": 0.25984251968503935,
                    "duration": 0.2625130000000002
                },
                {
                    "name": "G2",
                    "midi": 43,
                    "time": 12.600624,
                    "velocity": 0.30708661417322836,
                    "duration": 0.5250260000000004
                },
                {
                    "name": "D3",
                    "midi": 50,
                    "time": 12.600624,
                    "velocity": 0.30708661417322836,
                    "duration": 0.5250260000000004
                },
                {
                    "name": "D4",
                    "midi": 62,
                    "time": 13.12565,
                    "velocity": 0.2992125984251969,
                    "duration": 0.06562824999999961
                },
                {
                    "name": "G3",
                    "midi": 55,
                    "time": 13.12565,
                    "velocity": 0.2992125984251969,
                    "duration": 0.06562824999999961
                },
                {
                    "name": "G3",
                    "midi": 55,
                    "time": 13.388163,
                    "velocity": 0.2992125984251969,
                    "duration": 0.06562824999999961
                },
                {
                    "name": "D4",
                    "midi": 62,
                    "time": 13.388163,
                    "velocity": 0.2992125984251969,
                    "duration": 0.06562824999999961
                },
                {
                    "name": "G3",
                    "midi": 55,
                    "time": 13.650676,
                    "velocity": 0.3228346456692913,
                    "duration": 0.5250260000000004
                },
                {
                    "name": "D4",
                    "midi": 62,
                    "time": 13.650676,
                    "velocity": 0.3228346456692913,
                    "duration": 0.5250260000000004
                },
                {
                    "name": "E2",
                    "midi": 40,
                    "time": 14.700728000000002,
                    "velocity": 0.28346456692913385,
                    "duration": 0.5250260000000004
                },
                {
                    "name": "B2",
                    "midi": 47,
                    "time": 14.700728000000002,
                    "velocity": 0.28346456692913385,
                    "duration": 0.5250260000000004
                },
                {
                    "name": "B3",
                    "midi": 59,
                    "time": 15.225754000000002,
                    "velocity": 0.2677165354330709,
                    "duration": 0.2625130000000002
                },
                {
                    "name": "E3",
                    "midi": 52,
                    "time": 15.225754000000002,
                    "velocity": 0.2677165354330709,
                    "duration": 0.2625130000000002
                },
                {
                    "name": "E3",
                    "midi": 52,
                    "time": 15.619523500000001,
                    "velocity": 0.2677165354330709,
                    "duration": 0.13125649999999922
                },
                {
                    "name": "B3",
                    "midi": 59,
                    "time": 15.619523500000001,
                    "velocity": 0.2677165354330709,
                    "duration": 0.13125649999999922
                },
                {
                    "name": "E3",
                    "midi": 52,
                    "time": 15.75078,
                    "velocity": 0.28346456692913385,
                    "duration": 0.5250259999999987
                },
                {
                    "name": "B3",
                    "midi": 59,
                    "time": 15.75078,
                    "velocity": 0.28346456692913385,
                    "duration": 0.5250259999999987
                },
                {
                    "name": "A2",
                    "midi": 45,
                    "time": 16.800832,
                    "velocity": 0.30708661417322836,
                    "duration": 0.5250260000000004
                },
                {
                    "name": "E3",
                    "midi": 52,
                    "time": 16.800832,
                    "velocity": 0.30708661417322836,
                    "duration": 0.5250260000000004
                },
                {
                    "name": "E4",
                    "midi": 64,
                    "time": 17.325858,
                    "velocity": 0.28346456692913385,
                    "duration": 0.06562824999999961
                },
                {
                    "name": "A3",
                    "midi": 57,
                    "time": 17.325858,
                    "velocity": 0.28346456692913385,
                    "duration": 0.06562824999999961
                },
                {
                    "name": "A3",
                    "midi": 57,
                    "time": 17.588371,
                    "velocity": 0.28346456692913385,
                    "duration": 0.06562824999999961
                },
                {
                    "name": "E4",
                    "midi": 64,
                    "time": 17.588371,
                    "velocity": 0.28346456692913385,
                    "duration": 0.06562824999999961
                },
                {
                    "name": "A3",
                    "midi": 57,
                    "time": 17.850883999999997,
                    "velocity": 0.30708661417322836,
                    "duration": 0.5250260000000004
                },
                {
                    "name": "E4",
                    "midi": 64,
                    "time": 17.850883999999997,
                    "velocity": 0.30708661417322836,
                    "duration": 0.5250260000000004
                },
                {
                    "name": "A2",
                    "midi": 45,
                    "time": 18.900935999999998,
                    "velocity": 0.30708661417322836,
                    "duration": 0.5250260000000004
                },
                {
                    "name": "D2",
                    "midi": 38,
                    "time": 18.900935999999998,
                    "velocity": 0.30708661417322836,
                    "duration": 0.5250260000000004
                },
                {
                    "name": "A4",
                    "midi": 69,
                    "time": 19.425962,
                    "velocity": 0.28346456692913385,
                    "duration": 0.26251299999999844
                },
                {
                    "name": "D4",
                    "midi": 62,
                    "time": 19.425962,
                    "velocity": 0.28346456692913385,
                    "duration": 0.26251299999999844
                },
                {
                    "name": "A4",
                    "midi": 69,
                    "time": 19.819731499999996,
                    "velocity": 0.28346456692913385,
                    "duration": 0.13125649999999922
                },
                {
                    "name": "D4",
                    "midi": 62,
                    "time": 19.819731499999996,
                    "velocity": 0.28346456692913385,
                    "duration": 0.13125649999999922
                },
                {
                    "name": "D4",
                    "midi": 62,
                    "time": 19.950987999999995,
                    "velocity": 0.28346456692913385,
                    "duration": 0.5250260000000004
                },
                {
                    "name": "A4",
                    "midi": 69,
                    "time": 19.950987999999995,
                    "velocity": 0.28346456692913385,
                    "duration": 0.5250260000000004
                },
                {
                    "name": "D3",
                    "midi": 50,
                    "time": 20.476013999999996,
                    "velocity": 0.2125984251968504,
                    "duration": 0.26251299999999844
                },
                {
                    "name": "A3",
                    "midi": 57,
                    "time": 20.476013999999996,
                    "velocity": 0.2125984251968504,
                    "duration": 0.26251299999999844
                },
                {
                    "name": "D3",
                    "midi": 50,
                    "time": 20.738526999999994,
                    "velocity": 0.2125984251968504,
                    "duration": 0.26251299999999844
                },
                {
                    "name": "A3",
                    "midi": 57,
                    "time": 20.738526999999994,
                    "velocity": 0.2125984251968504,
                    "duration": 0.26251299999999844
                },
                {
                    "name": "D3",
                    "midi": 50,
                    "time": 21.001039999999993,
                    "velocity": 0.2440944881889764,
                    "duration": 0.26251299999999844
                },
                {
                    "name": "A3",
                    "midi": 57,
                    "time": 21.001039999999993,
                    "velocity": 0.2440944881889764,
                    "duration": 0.26251299999999844
                },
                {
                    "name": "D3",
                    "midi": 50,
                    "time": 22.57611799999999,
                    "velocity": 0.2125984251968504,
                    "duration": 0.26251299999999844
                },
                {
                    "name": "A3",
                    "midi": 57,
                    "time": 22.57611799999999,
                    "velocity": 0.2125984251968504,
                    "duration": 0.26251299999999844
                },
                {
                    "name": "D3",
                    "midi": 50,
                    "time": 22.83863099999999,
                    "velocity": 0.2125984251968504,
                    "duration": 0.26251299999999844
                },
                {
                    "name": "A3",
                    "midi": 57,
                    "time": 22.83863099999999,
                    "velocity": 0.2125984251968504,
                    "duration": 0.26251299999999844
                },
                {
                    "name": "A3",
                    "midi": 57,
                    "time": 23.101143999999987,
                    "velocity": 0.23622047244094488,
                    "duration": 0.26251299999999844
                },
                {
                    "name": "D3",
                    "midi": 50,
                    "time": 23.101143999999987,
                    "velocity": 0.23622047244094488,
                    "duration": 0.26251299999999844
                },
                {
                    "name": "D3",
                    "midi": 50,
                    "time": 24.676221999999985,
                    "velocity": 0.2125984251968504,
                    "duration": 0.26251299999999844
                },
                {
                    "name": "A3",
                    "midi": 57,
                    "time": 24.676221999999985,
                    "velocity": 0.2125984251968504,
                    "duration": 0.26251299999999844
                },
                {
                    "name": "D3",
                    "midi": 50,
                    "time": 24.938734999999983,
                    "velocity": 0.2125984251968504,
                    "duration": 0.26251299999999844
                },
                {
                    "name": "A3",
                    "midi": 57,
                    "time": 24.938734999999983,
                    "velocity": 0.2125984251968504,
                    "duration": 0.26251299999999844
                },
                {
                    "name": "D3",
                    "midi": 50,
                    "time": 25.201247999999982,
                    "velocity": 0.2440944881889764,
                    "duration": 0.26251299999999844
                },
                {
                    "name": "A3",
                    "midi": 57,
                    "time": 25.201247999999982,
                    "velocity": 0.2440944881889764,
                    "duration": 0.26251299999999844
                },
                {
                    "name": "D4",
                    "midi": 62,
                    "time": 25.72627399999998,
                    "velocity": 0.2125984251968504,
                    "duration": 0.06562824999999961
                },
                {
                    "name": "A4",
                    "midi": 69,
                    "time": 25.72627399999998,
                    "velocity": 0.2125984251968504,
                    "duration": 0.06562824999999961
                },
                {
                    "name": "A4",
                    "midi": 69,
                    "time": 25.988786999999977,
                    "velocity": 0.2125984251968504,
                    "duration": 0.06562824999999961
                },
                {
                    "name": "D4",
                    "midi": 62,
                    "time": 25.988786999999977,
                    "velocity": 0.2125984251968504,
                    "duration": 0.06562824999999961
                },
                {
                    "name": "D4",
                    "midi": 62,
                    "time": 26.251299999999976,
                    "velocity": 0.2440944881889764,
                    "duration": 0.26251299999999844
                },
                {
                    "name": "A4",
                    "midi": 69,
                    "time": 26.251299999999976,
                    "velocity": 0.2440944881889764,
                    "duration": 0.26251299999999844
                },
                {
                    "name": "A3",
                    "midi": 57,
                    "time": 26.776325999999973,
                    "velocity": 0.2125984251968504,
                    "duration": 0.06562824999999961
                },
                {
                    "name": "D3",
                    "midi": 50,
                    "time": 26.776325999999973,
                    "velocity": 0.2125984251968504,
                    "duration": 0.06562824999999961
                },
                {
                    "name": "A3",
                    "midi": 57,
                    "time": 27.03883899999997,
                    "velocity": 0.2125984251968504,
                    "duration": 0.06562824999999961
                },
                {
                    "name": "D3",
                    "midi": 50,
                    "time": 27.03883899999997,
                    "velocity": 0.2125984251968504,
                    "duration": 0.06562824999999961
                },
                {
                    "name": "D3",
                    "midi": 50,
                    "time": 27.30135199999997,
                    "velocity": 0.2440944881889764,
                    "duration": 0.5250260000000004
                },
                {
                    "name": "A3",
                    "midi": 57,
                    "time": 27.30135199999997,
                    "velocity": 0.2440944881889764,
                    "duration": 0.5250260000000004
                },
                {
                    "name": "D4",
                    "midi": 62,
                    "time": 27.82637799999997,
                    "velocity": 0.23622047244094488,
                    "duration": 0.26251299999999844
                },
                {
                    "name": "A4",
                    "midi": 69,
                    "time": 27.82637799999997,
                    "velocity": 0.23622047244094488,
                    "duration": 0.26251299999999844
                },
                {
                    "name": "D4",
                    "midi": 62,
                    "time": 28.220147499999968,
                    "velocity": 0.23622047244094488,
                    "duration": 0.13125649999999922
                },
                {
                    "name": "A4",
                    "midi": 69,
                    "time": 28.220147499999968,
                    "velocity": 0.23622047244094488,
                    "duration": 0.13125649999999922
                },
                {
                    "name": "A4",
                    "midi": 69,
                    "time": 28.351403999999967,
                    "velocity": 0.23622047244094488,
                    "duration": 0.5250260000000004
                },
                {
                    "name": "D4",
                    "midi": 62,
                    "time": 28.351403999999967,
                    "velocity": 0.23622047244094488,
                    "duration": 0.5250260000000004
                },
                {
                    "name": "B2",
                    "midi": 47,
                    "time": 29.401455999999968,
                    "velocity": 0.23622047244094488,
                    "duration": 0.5250260000000004
                },
                {
                    "name": "F#3",
                    "midi": 54,
                    "time": 29.401455999999968,
                    "velocity": 0.23622047244094488,
                    "duration": 0.5250260000000004
                },
                {
                    "name": "F#4",
                    "midi": 66,
                    "time": 29.926481999999968,
                    "velocity": 0.2125984251968504,
                    "duration": 0.06562824999999961
                },
                {
                    "name": "B3",
                    "midi": 59,
                    "time": 29.926481999999968,
                    "velocity": 0.2125984251968504,
                    "duration": 0.06562824999999961
                },
                {
                    "name": "B3",
                    "midi": 59,
                    "time": 30.188994999999966,
                    "velocity": 0.2125984251968504,
                    "duration": 0.06562824999999961
                },
                {
                    "name": "F#4",
                    "midi": 66,
                    "time": 30.188994999999966,
                    "velocity": 0.2125984251968504,
                    "duration": 0.06562824999999961
                },
                {
                    "name": "E3",
                    "midi": 52,
                    "time": 30.451507999999965,
                    "velocity": 0.23622047244094488,
                    "duration": 0.5250260000000004
                },
                {
                    "name": "B3",
                    "midi": 59,
                    "time": 30.451507999999965,
                    "velocity": 0.23622047244094488,
                    "duration": 0.5250260000000004
                },
                {
                    "name": "E4",
                    "midi": 64,
                    "time": 30.976533999999965,
                    "velocity": 0.2125984251968504,
                    "duration": 0.06562824999999961
                },
                {
                    "name": "B4",
                    "midi": 71,
                    "time": 30.976533999999965,
                    "velocity": 0.2125984251968504,
                    "duration": 0.06562824999999961
                },
                {
                    "name": "B4",
                    "midi": 71,
                    "time": 31.239046999999964,
                    "velocity": 0.2125984251968504,
                    "duration": 0.06562824999999961
                },
                {
                    "name": "E4",
                    "midi": 64,
                    "time": 31.239046999999964,
                    "velocity": 0.2125984251968504,
                    "duration": 0.06562824999999961
                },
                {
                    "name": "A3",
                    "midi": 57,
                    "time": 31.501559999999962,
                    "velocity": 0.23622047244094488,
                    "duration": 0.5250259999999969
                },
                {
                    "name": "E4",
                    "midi": 64,
                    "time": 31.501559999999962,
                    "velocity": 0.23622047244094488,
                    "duration": 0.5250259999999969
                },
                {
                    "name": "A4",
                    "midi": 69,
                    "time": 32.02658599999996,
                    "velocity": 0.2204724409448819,
                    "duration": 0.26251299999999844
                },
                {
                    "name": "E5",
                    "midi": 76,
                    "time": 32.02658599999996,
                    "velocity": 0.2204724409448819,
                    "duration": 0.26251299999999844
                },
                {
                    "name": "E5",
                    "midi": 76,
                    "time": 32.42035549999996,
                    "velocity": 0.2204724409448819,
                    "duration": 0.13125649999999922
                },
                {
                    "name": "A4",
                    "midi": 69,
                    "time": 32.42035549999996,
                    "velocity": 0.2204724409448819,
                    "duration": 0.13125649999999922
                },
                {
                    "name": "E5",
                    "midi": 76,
                    "time": 32.551611999999956,
                    "velocity": 0.2204724409448819,
                    "duration": 0.26251299999999844
                },
                {
                    "name": "A4",
                    "midi": 69,
                    "time": 32.551611999999956,
                    "velocity": 0.2204724409448819,
                    "duration": 0.26251299999999844
                },
                {
                    "name": "G3",
                    "midi": 55,
                    "time": 33.60166399999996,
                    "velocity": 0.2755905511811024,
                    "duration": 0.5250259999999969
                },
                {
                    "name": "D4",
                    "midi": 62,
                    "time": 33.60166399999996,
                    "velocity": 0.2755905511811024,
                    "duration": 0.5250259999999969
                },
                {
                    "name": "G4",
                    "midi": 67,
                    "time": 34.126689999999954,
                    "velocity": 0.25984251968503935,
                    "duration": 0.06562825000000316
                },
                {
                    "name": "D5",
                    "midi": 74,
                    "time": 34.126689999999954,
                    "velocity": 0.25984251968503935,
                    "duration": 0.06562825000000316
                },
                {
                    "name": "D5",
                    "midi": 74,
                    "time": 34.38920299999996,
                    "velocity": 0.25984251968503935,
                    "duration": 0.06562825000000316
                },
                {
                    "name": "G4",
                    "midi": 67,
                    "time": 34.38920299999996,
                    "velocity": 0.25984251968503935,
                    "duration": 0.06562825000000316
                },
                {
                    "name": "G4",
                    "midi": 67,
                    "time": 34.651715999999965,
                    "velocity": 0.28346456692913385,
                    "duration": 0.5250259999999969
                },
                {
                    "name": "D5",
                    "midi": 74,
                    "time": 34.651715999999965,
                    "velocity": 0.28346456692913385,
                    "duration": 0.5250259999999969
                },
                {
                    "name": "E3",
                    "midi": 52,
                    "time": 35.70176799999996,
                    "velocity": 0.25984251968503935,
                    "duration": 0.5250259999999969
                },
                {
                    "name": "B3",
                    "midi": 59,
                    "time": 35.70176799999996,
                    "velocity": 0.25984251968503935,
                    "duration": 0.5250259999999969
                },
                {
                    "name": "B4",
                    "midi": 71,
                    "time": 36.226793999999956,
                    "velocity": 0.2283464566929134,
                    "duration": 0.26251299999999844
                },
                {
                    "name": "E4",
                    "midi": 64,
                    "time": 36.226793999999956,
                    "velocity": 0.2283464566929134,
                    "duration": 0.26251299999999844
                },
                {
                    "name": "E4",
                    "midi": 64,
                    "time": 36.62056349999995,
                    "velocity": 0.2283464566929134,
                    "duration": 0.13125649999999922
                },
                {
                    "name": "B4",
                    "midi": 71,
                    "time": 36.62056349999995,
                    "velocity": 0.2283464566929134,
                    "duration": 0.13125649999999922
                },
                {
                    "name": "B4",
                    "midi": 71,
                    "time": 36.75181999999995,
                    "velocity": 0.25984251968503935,
                    "duration": 0.5250259999999969
                },
                {
                    "name": "E4",
                    "midi": 64,
                    "time": 36.75181999999995,
                    "velocity": 0.25984251968503935,
                    "duration": 0.5250259999999969
                },
                {
                    "name": "A3",
                    "midi": 57,
                    "time": 37.801871999999946,
                    "velocity": 0.2677165354330709,
                    "duration": 0.5250259999999969
                },
                {
                    "name": "E4",
                    "midi": 64,
                    "time": 37.801871999999946,
                    "velocity": 0.2677165354330709,
                    "duration": 0.5250259999999969
                },
                {
                    "name": "E5",
                    "midi": 76,
                    "time": 38.32689799999994,
                    "velocity": 0.25984251968503935,
                    "duration": 0.06562825000000316
                },
                {
                    "name": "A4",
                    "midi": 69,
                    "time": 38.32689799999994,
                    "velocity": 0.25984251968503935,
                    "duration": 0.06562825000000316
                },
                {
                    "name": "A4",
                    "midi": 69,
                    "time": 38.58941099999995,
                    "velocity": 0.25984251968503935,
                    "duration": 0.06562825000000316
                },
                {
                    "name": "E5",
                    "midi": 76,
                    "time": 38.58941099999995,
                    "velocity": 0.25984251968503935,
                    "duration": 0.06562825000000316
                },
                {
                    "name": "A4",
                    "midi": 69,
                    "time": 38.851923999999954,
                    "velocity": 0.2755905511811024,
                    "duration": 0.5250259999999969
                },
                {
                    "name": "E5",
                    "midi": 76,
                    "time": 38.851923999999954,
                    "velocity": 0.2755905511811024,
                    "duration": 0.5250259999999969
                },
                {
                    "name": "A4",
                    "midi": 69,
                    "time": 39.90197599999995,
                    "velocity": 0.2677165354330709,
                    "duration": 0.5250259999999969
                },
                {
                    "name": "D4",
                    "midi": 62,
                    "time": 39.90197599999995,
                    "velocity": 0.2677165354330709,
                    "duration": 0.5250259999999969
                },
                {
                    "name": "A5",
                    "midi": 81,
                    "time": 40.427001999999945,
                    "velocity": 0.25984251968503935,
                    "duration": 0.26251299999999844
                },
                {
                    "name": "D5",
                    "midi": 74,
                    "time": 40.427001999999945,
                    "velocity": 0.25984251968503935,
                    "duration": 0.26251299999999844
                },
                {
                    "name": "A5",
                    "midi": 81,
                    "time": 40.82077149999994,
                    "velocity": 0.25984251968503935,
                    "duration": 0.13125649999999922
                },
                {
                    "name": "D5",
                    "midi": 74,
                    "time": 40.82077149999994,
                    "velocity": 0.25984251968503935,
                    "duration": 0.13125649999999922
                },
                {
                    "name": "D5",
                    "midi": 74,
                    "time": 40.95202799999994,
                    "velocity": 0.25984251968503935,
                    "duration": 0.5250259999999969
                },
                {
                    "name": "A5",
                    "midi": 81,
                    "time": 40.95202799999994,
                    "velocity": 0.25984251968503935,
                    "duration": 0.5250259999999969
                },
                {
                    "name": "A2",
                    "midi": 45,
                    "time": 42.002079999999935,
                    "velocity": 0.6299212598425197,
                    "duration": 0.5250259999999969
                },
                {
                    "name": "E3",
                    "midi": 52,
                    "time": 42.002079999999935,
                    "velocity": 0.6299212598425197,
                    "duration": 0.5250259999999969
                },
                {
                    "name": "A2",
                    "midi": 45,
                    "time": 42.52710599999993,
                    "velocity": 0.5669291338582677,
                    "duration": 0.13125649999999922
                },
                {
                    "name": "E3",
                    "midi": 52,
                    "time": 42.52710599999993,
                    "velocity": 0.5669291338582677,
                    "duration": 0.13125649999999922
                },
                {
                    "name": "E3",
                    "midi": 52,
                    "time": 42.78961899999993,
                    "velocity": 0.5669291338582677,
                    "duration": 0.13125649999999922
                },
                {
                    "name": "A2",
                    "midi": 45,
                    "time": 42.78961899999993,
                    "velocity": 0.5669291338582677,
                    "duration": 0.13125649999999922
                },
                {
                    "name": "A2",
                    "midi": 45,
                    "time": 43.05213199999993,
                    "velocity": 0.6299212598425197,
                    "duration": 0.5250259999999969
                },
                {
                    "name": "E3",
                    "midi": 52,
                    "time": 43.05213199999993,
                    "velocity": 0.6299212598425197,
                    "duration": 0.5250259999999969
                },
                {
                    "name": "A2",
                    "midi": 45,
                    "time": 43.577157999999926,
                    "velocity": 0.5669291338582677,
                    "duration": 0.13125649999999922
                },
                {
                    "name": "E3",
                    "midi": 52,
                    "time": 43.577157999999926,
                    "velocity": 0.5669291338582677,
                    "duration": 0.13125649999999922
                },
                {
                    "name": "A2",
                    "midi": 45,
                    "time": 43.839670999999925,
                    "velocity": 0.5669291338582677,
                    "duration": 0.13125649999999922
                },
                {
                    "name": "E3",
                    "midi": 52,
                    "time": 43.839670999999925,
                    "velocity": 0.5669291338582677,
                    "duration": 0.13125649999999922
                },
                {
                    "name": "A2",
                    "midi": 45,
                    "time": 44.10218399999992,
                    "velocity": 0.5590551181102362,
                    "duration": 0.5250259999999969
                },
                {
                    "name": "E3",
                    "midi": 52,
                    "time": 44.10218399999992,
                    "velocity": 0.5590551181102362,
                    "duration": 0.5250259999999969
                },
                {
                    "name": "A2",
                    "midi": 45,
                    "time": 44.62720999999992,
                    "velocity": 0.5039370078740157,
                    "duration": 0.26251299999999844
                },
                {
                    "name": "E3",
                    "midi": 52,
                    "time": 44.62720999999992,
                    "velocity": 0.5039370078740157,
                    "duration": 0.26251299999999844
                },
                {
                    "name": "A2",
                    "midi": 45,
                    "time": 44.88972299999992,
                    "velocity": 0.5039370078740157,
                    "duration": 0.13125649999999922
                },
                {
                    "name": "E3",
                    "midi": 52,
                    "time": 44.88972299999992,
                    "velocity": 0.5039370078740157,
                    "duration": 0.13125649999999922
                },
                {
                    "name": "A2",
                    "midi": 45,
                    "time": 45.15223599999992,
                    "velocity": 0.5590551181102362,
                    "duration": 0.5250259999999969
                },
                {
                    "name": "E3",
                    "midi": 52,
                    "time": 45.15223599999992,
                    "velocity": 0.5590551181102362,
                    "duration": 0.5250259999999969
                },
                {
                    "name": "A2",
                    "midi": 45,
                    "time": 45.677261999999914,
                    "velocity": 0.5039370078740157,
                    "duration": 0.26251299999999844
                },
                {
                    "name": "E3",
                    "midi": 52,
                    "time": 45.677261999999914,
                    "velocity": 0.5039370078740157,
                    "duration": 0.26251299999999844
                },
                {
                    "name": "A2",
                    "midi": 45,
                    "time": 45.93977499999991,
                    "velocity": 0.5039370078740157,
                    "duration": 0.13125649999999922
                },
                {
                    "name": "E3",
                    "midi": 52,
                    "time": 45.93977499999991,
                    "velocity": 0.5039370078740157,
                    "duration": 0.13125649999999922
                },
                {
                    "name": "G#3",
                    "midi": 56,
                    "time": 48.30239199999991,
                    "velocity": 0.4645669291338583,
                    "duration": 0.5250259999999969
                },
                {
                    "name": "G2",
                    "midi": 43,
                    "time": 50.40249599999991,
                    "velocity": 0.25984251968503935,
                    "duration": 0.13125649999999922
                },
                {
                    "name": "E3",
                    "midi": 52,
                    "time": 50.40249599999991,
                    "velocity": 0.25984251968503935,
                    "duration": 0.13125649999999922
                },
                {
                    "name": "G3",
                    "midi": 55,
                    "time": 50.533752499999906,
                    "velocity": 0.25984251968503935,
                    "duration": 0.13125649999999922
                },
                {
                    "name": "C4",
                    "midi": 60,
                    "time": 50.665008999999905,
                    "velocity": 0.25984251968503935,
                    "duration": 0.13125649999999922
                },
                {
                    "name": "E4",
                    "midi": 64,
                    "time": 50.796265499999905,
                    "velocity": 0.25984251968503935,
                    "duration": 0.13125649999999922
                },
                {
                    "name": "G2",
                    "midi": 43,
                    "time": 51.4525479999999,
                    "velocity": 0.25984251968503935,
                    "duration": 0.13125649999999922
                },
                {
                    "name": "D3",
                    "midi": 50,
                    "time": 51.4525479999999,
                    "velocity": 0.25984251968503935,
                    "duration": 0.13125649999999922
                },
                {
                    "name": "G3",
                    "midi": 55,
                    "time": 51.5838044999999,
                    "velocity": 0.25984251968503935,
                    "duration": 0.13125649999999922
                },
                {
                    "name": "B3",
                    "midi": 59,
                    "time": 51.7150609999999,
                    "velocity": 0.25984251968503935,
                    "duration": 0.13125649999999922
                },
                {
                    "name": "F4",
                    "midi": 65,
                    "time": 51.8463174999999,
                    "velocity": 0.25984251968503935,
                    "duration": 0.13125649999999922
                },
                {
                    "name": "C2",
                    "midi": 36,
                    "time": 52.502599999999894,
                    "velocity": 0.25984251968503935,
                    "duration": 0.5250259999999969
                },
                {
                    "name": "G2",
                    "midi": 43,
                    "time": 52.502599999999894,
                    "velocity": 0.25984251968503935,
                    "duration": 0.5250259999999969
                },
                {
                    "name": "C3",
                    "midi": 48,
                    "time": 53.02762599999989,
                    "velocity": 0.23622047244094488,
                    "duration": 0.13125649999999922
                },
                {
                    "name": "G3",
                    "midi": 55,
                    "time": 53.02762599999989,
                    "velocity": 0.23622047244094488,
                    "duration": 0.13125649999999922
                },
                {
                    "name": "C3",
                    "midi": 48,
                    "time": 53.29013899999989,
                    "velocity": 0.23622047244094488,
                    "duration": 0.13125649999999922
                },
                {
                    "name": "G3",
                    "midi": 55,
                    "time": 53.29013899999989,
                    "velocity": 0.23622047244094488,
                    "duration": 0.13125649999999922
                },
                {
                    "name": "C3",
                    "midi": 48,
                    "time": 53.55265199999989,
                    "velocity": 0.25984251968503935,
                    "duration": 0.39376949999999766
                },
                {
                    "name": "G3",
                    "midi": 55,
                    "time": 53.55265199999989,
                    "velocity": 0.25984251968503935,
                    "duration": 0.39376949999999766
                },
                {
                    "name": "G3",
                    "midi": 55,
                    "time": 54.077677999999885,
                    "velocity": 0.5669291338582677,
                    "duration": 0.13125649999999922
                },
                {
                    "name": "C3",
                    "midi": 48,
                    "time": 54.077677999999885,
                    "velocity": 0.5669291338582677,
                    "duration": 0.13125649999999922
                },
                {
                    "name": "C3",
                    "midi": 48,
                    "time": 54.340190999999884,
                    "velocity": 0.5669291338582677,
                    "duration": 0.13125649999999922
                },
                {
                    "name": "G3",
                    "midi": 55,
                    "time": 54.340190999999884,
                    "velocity": 0.5669291338582677,
                    "duration": 0.13125649999999922
                },
                {
                    "name": "C3",
                    "midi": 48,
                    "time": 54.60270399999988,
                    "velocity": 0.5590551181102362,
                    "duration": 0.5250259999999969
                },
                {
                    "name": "G3",
                    "midi": 55,
                    "time": 54.60270399999988,
                    "velocity": 0.5590551181102362,
                    "duration": 0.5250259999999969
                },
                {
                    "name": "G3",
                    "midi": 55,
                    "time": 55.12772999999988,
                    "velocity": 0.5039370078740157,
                    "duration": 0.26251299999999844
                },
                {
                    "name": "C3",
                    "midi": 48,
                    "time": 55.12772999999988,
                    "velocity": 0.5039370078740157,
                    "duration": 0.26251299999999844
                },
                {
                    "name": "C3",
                    "midi": 48,
                    "time": 55.39024299999988,
                    "velocity": 0.5039370078740157,
                    "duration": 0.13125649999999922
                },
                {
                    "name": "G3",
                    "midi": 55,
                    "time": 55.39024299999988,
                    "velocity": 0.5039370078740157,
                    "duration": 0.13125649999999922
                },
                {
                    "name": "G3",
                    "midi": 55,
                    "time": 55.652755999999876,
                    "velocity": 0.5590551181102362,
                    "duration": 0.5250259999999969
                },
                {
                    "name": "C3",
                    "midi": 48,
                    "time": 55.652755999999876,
                    "velocity": 0.5590551181102362,
                    "duration": 0.5250259999999969
                },
                {
                    "name": "G3",
                    "midi": 55,
                    "time": 56.17778199999987,
                    "velocity": 0.5039370078740157,
                    "duration": 0.26251299999999844
                },
                {
                    "name": "C3",
                    "midi": 48,
                    "time": 56.17778199999987,
                    "velocity": 0.5039370078740157,
                    "duration": 0.26251299999999844
                },
                {
                    "name": "G3",
                    "midi": 55,
                    "time": 56.44029499999987,
                    "velocity": 0.5039370078740157,
                    "duration": 0.13125649999999922
                },
                {
                    "name": "C3",
                    "midi": 48,
                    "time": 56.44029499999987,
                    "velocity": 0.5039370078740157,
                    "duration": 0.13125649999999922
                },
                {
                    "name": "B3",
                    "midi": 59,
                    "time": 58.80291199999987,
                    "velocity": 0.4645669291338583,
                    "duration": 0.5250259999999969
                },
                {
                    "name": "A#2",
                    "midi": 46,
                    "time": 60.903015999999866,
                    "velocity": 0.25984251968503935,
                    "duration": 0.13125649999999922
                },
                {
                    "name": "G3",
                    "midi": 55,
                    "time": 60.903015999999866,
                    "velocity": 0.25984251968503935,
                    "duration": 0.13125649999999922
                },
                {
                    "name": "A#3",
                    "midi": 58,
                    "time": 61.034272499999865,
                    "velocity": 0.25984251968503935,
                    "duration": 0.13125649999999922
                },
                {
                    "name": "D#4",
                    "midi": 63,
                    "time": 61.165528999999864,
                    "velocity": 0.25984251968503935,
                    "duration": 0.13125649999999922
                },
                {
                    "name": "G4",
                    "midi": 67,
                    "time": 61.296785499999864,
                    "velocity": 0.25984251968503935,
                    "duration": 0.13125649999999922
                },
                {
                    "name": "F3",
                    "midi": 53,
                    "time": 61.95306799999986,
                    "velocity": 0.25984251968503935,
                    "duration": 0.13125649999999922
                },
                {
                    "name": "A#2",
                    "midi": 46,
                    "time": 61.95306799999986,
                    "velocity": 0.25984251968503935,
                    "duration": 0.13125649999999922
                },
                {
                    "name": "A#3",
                    "midi": 58,
                    "time": 62.08432449999986,
                    "velocity": 0.25984251968503935,
                    "duration": 0.13125649999999922
                },
                {
                    "name": "D4",
                    "midi": 62,
                    "time": 62.21558099999986,
                    "velocity": 0.25984251968503935,
                    "duration": 0.13125649999999922
                },
                {
                    "name": "G#4",
                    "midi": 68,
                    "time": 62.34683749999986,
                    "velocity": 0.25984251968503935,
                    "duration": 0.13125649999999922
                },
                {
                    "name": "A#2",
                    "midi": 46,
                    "time": 63.00311999999985,
                    "velocity": 0.25984251968503935,
                    "duration": 0.5250259999999969
                },
                {
                    "name": "D#2",
                    "midi": 39,
                    "time": 63.00311999999985,
                    "velocity": 0.25984251968503935,
                    "duration": 0.5250259999999969
                },
                {
                    "name": "A#3",
                    "midi": 58,
                    "time": 63.52814599999985,
                    "velocity": 0.23622047244094488,
                    "duration": 0.13125649999999922
                },
                {
                    "name": "D#3",
                    "midi": 51,
                    "time": 63.52814599999985,
                    "velocity": 0.23622047244094488,
                    "duration": 0.13125649999999922
                },
                {
                    "name": "A#3",
                    "midi": 58,
                    "time": 63.79065899999985,
                    "velocity": 0.23622047244094488,
                    "duration": 0.13125649999999922
                },
                {
                    "name": "D#3",
                    "midi": 51,
                    "time": 63.79065899999985,
                    "velocity": 0.23622047244094488,
                    "duration": 0.13125649999999922
                },
                {
                    "name": "A#3",
                    "midi": 58,
                    "time": 64.05317199999985,
                    "velocity": 0.25984251968503935,
                    "duration": 0.5250259999999969
                },
                {
                    "name": "D#3",
                    "midi": 51,
                    "time": 64.05317199999985,
                    "velocity": 0.25984251968503935,
                    "duration": 0.5250259999999969
                },
                {
                    "name": "A#2",
                    "midi": 46,
                    "time": 64.57819799999984,
                    "velocity": 0.2125984251968504,
                    "duration": 0.13125650000000633
                },
                {
                    "name": "D#3",
                    "midi": 51,
                    "time": 64.57819799999984,
                    "velocity": 0.2125984251968504,
                    "duration": 0.13125650000000633
                },
                {
                    "name": "D#2",
                    "midi": 39,
                    "time": 64.84071099999986,
                    "velocity": 0.18110236220472442,
                    "duration": 0.13125650000000633
                },
                {
                    "name": "A#2",
                    "midi": 46,
                    "time": 65.10322399999987,
                    "velocity": 0.18110236220472442,
                    "duration": 0.13125650000000633
                },
                {
                    "name": "D#3",
                    "midi": 51,
                    "time": 65.10322399999987,
                    "velocity": 0.18110236220472442,
                    "duration": 0.13125650000000633
                },
                {
                    "name": "D#2",
                    "midi": 39,
                    "time": 65.36573699999988,
                    "velocity": 0.2047244094488189,
                    "duration": 0.13125650000000633
                },
                {
                    "name": "A#2",
                    "midi": 46,
                    "time": 65.6282499999999,
                    "velocity": 0.2283464566929134,
                    "duration": 0.13125650000000633
                },
                {
                    "name": "D#3",
                    "midi": 51,
                    "time": 65.6282499999999,
                    "velocity": 0.2283464566929134,
                    "duration": 0.13125650000000633
                },
                {
                    "name": "D#2",
                    "midi": 39,
                    "time": 65.89076299999991,
                    "velocity": 0.2125984251968504,
                    "duration": 0.13125650000000633
                },
                {
                    "name": "A#2",
                    "midi": 46,
                    "time": 66.15327599999992,
                    "velocity": 0.2125984251968504,
                    "duration": 0.13125650000000633
                },
                {
                    "name": "D#3",
                    "midi": 51,
                    "time": 66.15327599999992,
                    "velocity": 0.2125984251968504,
                    "duration": 0.13125650000000633
                },
                {
                    "name": "D#2",
                    "midi": 39,
                    "time": 66.41578899999993,
                    "velocity": 0.2204724409448819,
                    "duration": 0.13125650000000633
                },
                {
                    "name": "A#2",
                    "midi": 46,
                    "time": 66.67830199999995,
                    "velocity": 0.2755905511811024,
                    "duration": 0.13125650000000633
                },
                {
                    "name": "D#3",
                    "midi": 51,
                    "time": 66.67830199999995,
                    "velocity": 0.2755905511811024,
                    "duration": 0.13125650000000633
                },
                {
                    "name": "D#2",
                    "midi": 39,
                    "time": 66.94081499999996,
                    "velocity": 0.23622047244094488,
                    "duration": 0.13125650000000633
                },
                {
                    "name": "A#2",
                    "midi": 46,
                    "time": 67.20332799999997,
                    "velocity": 0.23622047244094488,
                    "duration": 0.13125650000000633
                },
                {
                    "name": "D#3",
                    "midi": 51,
                    "time": 67.20332799999997,
                    "velocity": 0.23622047244094488,
                    "duration": 0.13125650000000633
                },
                {
                    "name": "D#2",
                    "midi": 39,
                    "time": 67.46584099999998,
                    "velocity": 0.23622047244094488,
                    "duration": 0.13125650000000633
                },
                {
                    "name": "A#2",
                    "midi": 46,
                    "time": 67.728354,
                    "velocity": 0.28346456692913385,
                    "duration": 0.13125650000000633
                },
                {
                    "name": "D#3",
                    "midi": 51,
                    "time": 67.728354,
                    "velocity": 0.28346456692913385,
                    "duration": 0.13125650000000633
                },
                {
                    "name": "D#2",
                    "midi": 39,
                    "time": 67.99086700000001,
                    "velocity": 0.25984251968503935,
                    "duration": 0.13125650000000633
                },
                {
                    "name": "A#2",
                    "midi": 46,
                    "time": 68.25338000000002,
                    "velocity": 0.25984251968503935,
                    "duration": 0.13125650000000633
                },
                {
                    "name": "D#3",
                    "midi": 51,
                    "time": 68.25338000000002,
                    "velocity": 0.25984251968503935,
                    "duration": 0.13125650000000633
                },
                {
                    "name": "D#2",
                    "midi": 39,
                    "time": 68.51589300000003,
                    "velocity": 0.25984251968503935,
                    "duration": 0.13125650000000633
                },
                {
                    "name": "C3",
                    "midi": 48,
                    "time": 68.77840600000005,
                    "velocity": 0.25984251968503935,
                    "duration": 0.13125650000000633
                },
                {
                    "name": "D#3",
                    "midi": 51,
                    "time": 68.77840600000005,
                    "velocity": 0.25984251968503935,
                    "duration": 0.13125650000000633
                },
                {
                    "name": "D#2",
                    "midi": 39,
                    "time": 69.04091900000006,
                    "velocity": 0.23622047244094488,
                    "duration": 0.13125650000000633
                },
                {
                    "name": "C3",
                    "midi": 48,
                    "time": 69.30343200000007,
                    "velocity": 0.2440944881889764,
                    "duration": 0.13125650000000633
                },
                {
                    "name": "D#3",
                    "midi": 51,
                    "time": 69.30343200000007,
                    "velocity": 0.2440944881889764,
                    "duration": 0.13125650000000633
                },
                {
                    "name": "D#2",
                    "midi": 39,
                    "time": 69.56594500000008,
                    "velocity": 0.23622047244094488,
                    "duration": 0.13125650000000633
                },
                {
                    "name": "C3",
                    "midi": 48,
                    "time": 69.8284580000001,
                    "velocity": 0.2677165354330709,
                    "duration": 0.13125650000000633
                },
                {
                    "name": "D#3",
                    "midi": 51,
                    "time": 69.8284580000001,
                    "velocity": 0.2677165354330709,
                    "duration": 0.13125650000000633
                },
                {
                    "name": "D#2",
                    "midi": 39,
                    "time": 70.09097100000011,
                    "velocity": 0.2440944881889764,
                    "duration": 0.13125650000000633
                },
                {
                    "name": "C3",
                    "midi": 48,
                    "time": 70.35348400000012,
                    "velocity": 0.25196850393700787,
                    "duration": 0.13125650000000633
                },
                {
                    "name": "D#3",
                    "midi": 51,
                    "time": 70.35348400000012,
                    "velocity": 0.25196850393700787,
                    "duration": 0.13125650000000633
                },
                {
                    "name": "D#2",
                    "midi": 39,
                    "time": 70.61599700000014,
                    "velocity": 0.25196850393700787,
                    "duration": 0.13125650000000633
                },
                {
                    "name": "C3",
                    "midi": 48,
                    "time": 70.87851000000015,
                    "velocity": 0.31496062992125984,
                    "duration": 0.13125650000000633
                },
                {
                    "name": "D#3",
                    "midi": 51,
                    "time": 70.87851000000015,
                    "velocity": 0.31496062992125984,
                    "duration": 0.13125650000000633
                },
                {
                    "name": "D#2",
                    "midi": 39,
                    "time": 71.14102300000016,
                    "velocity": 0.2677165354330709,
                    "duration": 0.13125650000000633
                },
                {
                    "name": "C3",
                    "midi": 48,
                    "time": 71.40353600000017,
                    "velocity": 0.2755905511811024,
                    "duration": 0.13125650000000633
                },
                {
                    "name": "D#3",
                    "midi": 51,
                    "time": 71.40353600000017,
                    "velocity": 0.2755905511811024,
                    "duration": 0.13125650000000633
                },
                {
                    "name": "D#2",
                    "midi": 39,
                    "time": 71.66604900000019,
                    "velocity": 0.2755905511811024,
                    "duration": 0.13125650000000633
                },
                {
                    "name": "C3",
                    "midi": 48,
                    "time": 71.9285620000002,
                    "velocity": 0.33070866141732286,
                    "duration": 0.13125650000000633
                },
                {
                    "name": "D#3",
                    "midi": 51,
                    "time": 71.9285620000002,
                    "velocity": 0.33070866141732286,
                    "duration": 0.13125650000000633
                },
                {
                    "name": "D#2",
                    "midi": 39,
                    "time": 72.19107500000021,
                    "velocity": 0.29133858267716534,
                    "duration": 0.13125650000000633
                },
                {
                    "name": "C3",
                    "midi": 48,
                    "time": 72.45358800000022,
                    "velocity": 0.2992125984251969,
                    "duration": 0.13125650000000633
                },
                {
                    "name": "D#3",
                    "midi": 51,
                    "time": 72.45358800000022,
                    "velocity": 0.2992125984251969,
                    "duration": 0.13125650000000633
                },
                {
                    "name": "D#2",
                    "midi": 39,
                    "time": 72.71610100000024,
                    "velocity": 0.2992125984251969,
                    "duration": 0.13125650000000633
                },
                {
                    "name": "G#2",
                    "midi": 44,
                    "time": 72.97861400000025,
                    "velocity": 0.3464566929133858,
                    "duration": 0.13125650000000633
                },
                {
                    "name": "F#3",
                    "midi": 54,
                    "time": 72.97861400000025,
                    "velocity": 0.3464566929133858,
                    "duration": 0.13125650000000633
                },
                {
                    "name": "D#2",
                    "midi": 39,
                    "time": 73.24112700000026,
                    "velocity": 0.33070866141732286,
                    "duration": 0.13125650000000633
                },
                {
                    "name": "G#2",
                    "midi": 44,
                    "time": 73.50364000000027,
                    "velocity": 0.3464566929133858,
                    "duration": 0.13125650000000633
                },
                {
                    "name": "F#3",
                    "midi": 54,
                    "time": 73.50364000000027,
                    "velocity": 0.3464566929133858,
                    "duration": 0.13125650000000633
                },
                {
                    "name": "D#2",
                    "midi": 39,
                    "time": 73.76615300000029,
                    "velocity": 0.30708661417322836,
                    "duration": 0.13125650000000633
                },
                {
                    "name": "G#2",
                    "midi": 44,
                    "time": 74.0286660000003,
                    "velocity": 0.3543307086614173,
                    "duration": 0.13125650000000633
                },
                {
                    "name": "F#3",
                    "midi": 54,
                    "time": 74.0286660000003,
                    "velocity": 0.3543307086614173,
                    "duration": 0.13125650000000633
                },
                {
                    "name": "D#2",
                    "midi": 39,
                    "time": 74.29117900000031,
                    "velocity": 0.33070866141732286,
                    "duration": 0.13125650000000633
                },
                {
                    "name": "G#2",
                    "midi": 44,
                    "time": 74.55369200000032,
                    "velocity": 0.33070866141732286,
                    "duration": 0.13125650000000633
                },
                {
                    "name": "F#3",
                    "midi": 54,
                    "time": 74.55369200000032,
                    "velocity": 0.33070866141732286,
                    "duration": 0.13125650000000633
                },
                {
                    "name": "D#2",
                    "midi": 39,
                    "time": 74.81620500000034,
                    "velocity": 0.3464566929133858,
                    "duration": 0.13125650000000633
                },
                {
                    "name": "G#2",
                    "midi": 44,
                    "time": 75.07871800000035,
                    "velocity": 0.3779527559055118,
                    "duration": 0.13125650000000633
                },
                {
                    "name": "F#3",
                    "midi": 54,
                    "time": 75.07871800000035,
                    "velocity": 0.3779527559055118,
                    "duration": 0.13125650000000633
                },
                {
                    "name": "D#2",
                    "midi": 39,
                    "time": 75.34123100000036,
                    "velocity": 0.33070866141732286,
                    "duration": 0.13125650000000633
                },
                {
                    "name": "G#2",
                    "midi": 44,
                    "time": 75.60374400000038,
                    "velocity": 0.3700787401574803,
                    "duration": 0.13125650000000633
                },
                {
                    "name": "F#3",
                    "midi": 54,
                    "time": 75.60374400000038,
                    "velocity": 0.3700787401574803,
                    "duration": 0.13125650000000633
                },
                {
                    "name": "D#2",
                    "midi": 39,
                    "time": 75.86625700000039,
                    "velocity": 0.3464566929133858,
                    "duration": 0.13125650000000633
                },
                {
                    "name": "G#2",
                    "midi": 44,
                    "time": 76.1287700000004,
                    "velocity": 0.3937007874015748,
                    "duration": 0.13125650000000633
                },
                {
                    "name": "F#3",
                    "midi": 54,
                    "time": 76.1287700000004,
                    "velocity": 0.3937007874015748,
                    "duration": 0.13125650000000633
                },
                {
                    "name": "D#2",
                    "midi": 39,
                    "time": 76.39128300000041,
                    "velocity": 0.36220472440944884,
                    "duration": 0.13125650000000633
                },
                {
                    "name": "G#2",
                    "midi": 44,
                    "time": 76.65379600000043,
                    "velocity": 0.36220472440944884,
                    "duration": 0.13125650000000633
                },
                {
                    "name": "F#3",
                    "midi": 54,
                    "time": 76.65379600000043,
                    "velocity": 0.36220472440944884,
                    "duration": 0.13125650000000633
                },
                {
                    "name": "D#2",
                    "midi": 39,
                    "time": 76.91630900000044,
                    "velocity": 0.36220472440944884,
                    "duration": 0.13125650000000633
                },
                {
                    "name": "G#2",
                    "midi": 44,
                    "time": 77.17882200000045,
                    "velocity": 0.3937007874015748,
                    "duration": 0.13125650000000633
                },
                {
                    "name": "F3",
                    "midi": 53,
                    "time": 77.17882200000045,
                    "velocity": 0.3937007874015748,
                    "duration": 0.13125650000000633
                },
                {
                    "name": "D#2",
                    "midi": 39,
                    "time": 77.44133500000046,
                    "velocity": 0.36220472440944884,
                    "duration": 0.13125650000000633
                },
                {
                    "name": "G#2",
                    "midi": 44,
                    "time": 77.70384800000048,
                    "velocity": 0.3779527559055118,
                    "duration": 0.13125650000000633
                },
                {
                    "name": "F3",
                    "midi": 53,
                    "time": 77.70384800000048,
                    "velocity": 0.3779527559055118,
                    "duration": 0.13125650000000633
                },
                {
                    "name": "D#2",
                    "midi": 39,
                    "time": 77.96636100000049,
                    "velocity": 0.36220472440944884,
                    "duration": 0.13125650000000633
                },
                {
                    "name": "G#2",
                    "midi": 44,
                    "time": 78.2288740000005,
                    "velocity": 0.4015748031496063,
                    "duration": 0.13125650000000633
                },
                {
                    "name": "F3",
                    "midi": 53,
                    "time": 78.2288740000005,
                    "velocity": 0.4015748031496063,
                    "duration": 0.13125650000000633
                },
                {
                    "name": "D#2",
                    "midi": 39,
                    "time": 78.49138700000051,
                    "velocity": 0.3700787401574803,
                    "duration": 0.13125650000000633
                },
                {
                    "name": "G#2",
                    "midi": 44,
                    "time": 78.75390000000053,
                    "velocity": 0.3937007874015748,
                    "duration": 0.13125650000000633
                },
                {
                    "name": "F3",
                    "midi": 53,
                    "time": 78.75390000000053,
                    "velocity": 0.3937007874015748,
                    "duration": 0.13125650000000633
                },
                {
                    "name": "D#2",
                    "midi": 39,
                    "time": 79.01641300000054,
                    "velocity": 0.3700787401574803,
                    "duration": 0.13125650000000633
                },
                {
                    "name": "G#2",
                    "midi": 44,
                    "time": 79.27892600000055,
                    "velocity": 0.47244094488188976,
                    "duration": 0.13125650000000633
                },
                {
                    "name": "F3",
                    "midi": 53,
                    "time": 79.27892600000055,
                    "velocity": 0.47244094488188976,
                    "duration": 0.13125650000000633
                },
                {
                    "name": "D#2",
                    "midi": 39,
                    "time": 79.54143900000057,
                    "velocity": 0.3937007874015748,
                    "duration": 0.13125650000000633
                },
                {
                    "name": "G#2",
                    "midi": 44,
                    "time": 79.80395200000058,
                    "velocity": 0.4409448818897638,
                    "duration": 0.13125650000000633
                },
                {
                    "name": "F3",
                    "midi": 53,
                    "time": 79.80395200000058,
                    "velocity": 0.4409448818897638,
                    "duration": 0.13125650000000633
                },
                {
                    "name": "D#2",
                    "midi": 39,
                    "time": 80.06646500000059,
                    "velocity": 0.4015748031496063,
                    "duration": 0.13125650000000633
                },
                {
                    "name": "G#2",
                    "midi": 44,
                    "time": 80.3289780000006,
                    "velocity": 0.4645669291338583,
                    "duration": 0.13125650000000633
                },
                {
                    "name": "F3",
                    "midi": 53,
                    "time": 80.3289780000006,
                    "velocity": 0.4645669291338583,
                    "duration": 0.13125650000000633
                },
                {
                    "name": "D#2",
                    "midi": 39,
                    "time": 80.59149100000062,
                    "velocity": 0.41732283464566927,
                    "duration": 0.13125650000000633
                },
                {
                    "name": "G#2",
                    "midi": 44,
                    "time": 80.85400400000063,
                    "velocity": 0.44881889763779526,
                    "duration": 0.13125650000000633
                },
                {
                    "name": "F3",
                    "midi": 53,
                    "time": 80.85400400000063,
                    "velocity": 0.44881889763779526,
                    "duration": 0.13125650000000633
                },
                {
                    "name": "D#2",
                    "midi": 39,
                    "time": 81.11651700000064,
                    "velocity": 0.41732283464566927,
                    "duration": 0.13125650000000633
                },
                {
                    "name": "D#2",
                    "midi": 39,
                    "time": 81.37903000000065,
                    "velocity": 0.47244094488188976,
                    "duration": 0.26251299999999844
                },
                {
                    "name": "A#2",
                    "midi": 46,
                    "time": 81.37903000000065,
                    "velocity": 0.47244094488188976,
                    "duration": 0.26251299999999844
                },
                {
                    "name": "F3",
                    "midi": 53,
                    "time": 81.37903000000065,
                    "velocity": 0.47244094488188976,
                    "duration": 0.26251299999999844
                },
                {
                    "name": "D#2",
                    "midi": 39,
                    "time": 81.64154300000065,
                    "velocity": 0.4330708661417323,
                    "duration": 0.26251299999999844
                },
                {
                    "name": "A#2",
                    "midi": 46,
                    "time": 81.64154300000065,
                    "velocity": 0.4330708661417323,
                    "duration": 0.26251299999999844
                },
                {
                    "name": "F3",
                    "midi": 53,
                    "time": 81.64154300000065,
                    "velocity": 0.4330708661417323,
                    "duration": 0.26251299999999844
                },
                {
                    "name": "D#2",
                    "midi": 39,
                    "time": 81.90405600000065,
                    "velocity": 0.44881889763779526,
                    "duration": 0.5250259999999969
                },
                {
                    "name": "A#2",
                    "midi": 46,
                    "time": 81.90405600000065,
                    "velocity": 0.44881889763779526,
                    "duration": 0.5250259999999969
                },
                {
                    "name": "F3",
                    "midi": 53,
                    "time": 81.90405600000065,
                    "velocity": 0.44881889763779526,
                    "duration": 0.5250259999999969
                },
                {
                    "name": "D#3",
                    "midi": 51,
                    "time": 82.42908200000065,
                    "velocity": 0.41732283464566927,
                    "duration": 0.26251299999999844
                },
                {
                    "name": "A#3",
                    "midi": 58,
                    "time": 82.42908200000065,
                    "velocity": 0.41732283464566927,
                    "duration": 0.26251299999999844
                },
                {
                    "name": "F4",
                    "midi": 65,
                    "time": 82.42908200000065,
                    "velocity": 0.41732283464566927,
                    "duration": 0.26251299999999844
                },
                {
                    "name": "D#3",
                    "midi": 51,
                    "time": 82.69159500000065,
                    "velocity": 0.41732283464566927,
                    "duration": 0.26251299999999844
                },
                {
                    "name": "A#3",
                    "midi": 58,
                    "time": 82.69159500000065,
                    "velocity": 0.41732283464566927,
                    "duration": 0.26251299999999844
                },
                {
                    "name": "F4",
                    "midi": 65,
                    "time": 82.69159500000065,
                    "velocity": 0.41732283464566927,
                    "duration": 0.26251299999999844
                },
                {
                    "name": "D#3",
                    "midi": 51,
                    "time": 82.95410800000064,
                    "velocity": 0.48031496062992124,
                    "duration": 0.5250259999999969
                },
                {
                    "name": "A#3",
                    "midi": 58,
                    "time": 82.95410800000064,
                    "velocity": 0.48031496062992124,
                    "duration": 0.5250259999999969
                },
                {
                    "name": "F4",
                    "midi": 65,
                    "time": 82.95410800000064,
                    "velocity": 0.48031496062992124,
                    "duration": 0.5250259999999969
                },
                {
                    "name": "D#2",
                    "midi": 39,
                    "time": 83.47913400000064,
                    "velocity": 0.4645669291338583,
                    "duration": 0.26251299999999844
                },
                {
                    "name": "A#2",
                    "midi": 46,
                    "time": 83.47913400000064,
                    "velocity": 0.4645669291338583,
                    "duration": 0.26251299999999844
                },
                {
                    "name": "F3",
                    "midi": 53,
                    "time": 83.47913400000064,
                    "velocity": 0.4645669291338583,
                    "duration": 0.26251299999999844
                },
                {
                    "name": "D#2",
                    "midi": 39,
                    "time": 83.74164700000064,
                    "velocity": 0.4330708661417323,
                    "duration": 0.26251299999999844
                },
                {
                    "name": "A#2",
                    "midi": 46,
                    "time": 83.74164700000064,
                    "velocity": 0.4330708661417323,
                    "duration": 0.26251299999999844
                },
                {
                    "name": "F3",
                    "midi": 53,
                    "time": 83.74164700000064,
                    "velocity": 0.4330708661417323,
                    "duration": 0.26251299999999844
                },
                {
                    "name": "D#2",
                    "midi": 39,
                    "time": 84.00416000000064,
                    "velocity": 0.4645669291338583,
                    "duration": 0.5250259999999969
                },
                {
                    "name": "A#2",
                    "midi": 46,
                    "time": 84.00416000000064,
                    "velocity": 0.4645669291338583,
                    "duration": 0.5250259999999969
                },
                {
                    "name": "F3",
                    "midi": 53,
                    "time": 84.00416000000064,
                    "velocity": 0.4645669291338583,
                    "duration": 0.5250259999999969
                },
                {
                    "name": "D#3",
                    "midi": 51,
                    "time": 84.52918600000064,
                    "velocity": 0.48031496062992124,
                    "duration": 0.26251299999999844
                },
                {
                    "name": "A#3",
                    "midi": 58,
                    "time": 84.52918600000064,
                    "velocity": 0.48031496062992124,
                    "duration": 0.26251299999999844
                },
                {
                    "name": "F4",
                    "midi": 65,
                    "time": 84.52918600000064,
                    "velocity": 0.48031496062992124,
                    "duration": 0.26251299999999844
                },
                {
                    "name": "D#3",
                    "midi": 51,
                    "time": 84.79169900000063,
                    "velocity": 0.4409448818897638,
                    "duration": 0.26251299999999844
                },
                {
                    "name": "A#3",
                    "midi": 58,
                    "time": 84.79169900000063,
                    "velocity": 0.4409448818897638,
                    "duration": 0.26251299999999844
                },
                {
                    "name": "F4",
                    "midi": 65,
                    "time": 84.79169900000063,
                    "velocity": 0.4409448818897638,
                    "duration": 0.26251299999999844
                },
                {
                    "name": "D#3",
                    "midi": 51,
                    "time": 85.05421200000063,
                    "velocity": 0.5039370078740157,
                    "duration": 0.5250259999999969
                },
                {
                    "name": "A#3",
                    "midi": 58,
                    "time": 85.05421200000063,
                    "velocity": 0.5039370078740157,
                    "duration": 0.5250259999999969
                },
                {
                    "name": "F4",
                    "midi": 65,
                    "time": 85.05421200000063,
                    "velocity": 0.5039370078740157,
                    "duration": 0.5250259999999969
                },
                {
                    "name": "F4",
                    "midi": 65,
                    "time": 85.57923800000063,
                    "velocity": 0.5905511811023622,
                    "duration": 0.13125650000000633
                },
                {
                    "name": "F3",
                    "midi": 53,
                    "time": 85.57923800000063,
                    "velocity": 0.5905511811023622,
                    "duration": 0.13125650000000633
                },
                {
                    "name": "G3",
                    "midi": 55,
                    "time": 85.84175100000064,
                    "velocity": 0.5905511811023622,
                    "duration": 0.13125650000000633
                },
                {
                    "name": "G4",
                    "midi": 67,
                    "time": 85.84175100000064,
                    "velocity": 0.5905511811023622,
                    "duration": 0.13125650000000633
                },
                {
                    "name": "G#4",
                    "midi": 68,
                    "time": 86.10426400000065,
                    "velocity": 0.6456692913385826,
                    "duration": 0.13125650000000633
                },
                {
                    "name": "G#3",
                    "midi": 56,
                    "time": 86.10426400000065,
                    "velocity": 0.6456692913385826,
                    "duration": 0.13125650000000633
                },
                {
                    "name": "C5",
                    "midi": 72,
                    "time": 86.36677700000067,
                    "velocity": 0.5905511811023622,
                    "duration": 0.13125650000000633
                },
                {
                    "name": "C4",
                    "midi": 60,
                    "time": 86.36677700000067,
                    "velocity": 0.5905511811023622,
                    "duration": 0.13125650000000633
                },
                {
                    "name": "G#4",
                    "midi": 68,
                    "time": 86.62929000000068,
                    "velocity": 0.5905511811023622,
                    "duration": 0.13125650000000633
                },
                {
                    "name": "G#3",
                    "midi": 56,
                    "time": 86.62929000000068,
                    "velocity": 0.5905511811023622,
                    "duration": 0.13125650000000633
                },
                {
                    "name": "F4",
                    "midi": 65,
                    "time": 86.89180300000069,
                    "velocity": 0.5905511811023622,
                    "duration": 0.13125650000000633
                },
                {
                    "name": "F3",
                    "midi": 53,
                    "time": 86.89180300000069,
                    "velocity": 0.5905511811023622,
                    "duration": 0.13125650000000633
                },
                {
                    "name": "G#4",
                    "midi": 68,
                    "time": 87.1543160000007,
                    "velocity": 0.6456692913385826,
                    "duration": 0.26251299999999844
                },
                {
                    "name": "G#3",
                    "midi": 56,
                    "time": 87.1543160000007,
                    "velocity": 0.6456692913385826,
                    "duration": 0.26251299999999844
                },
                {
                    "name": "F4",
                    "midi": 65,
                    "time": 87.4168290000007,
                    "velocity": 0.5905511811023622,
                    "duration": 0.26251299999999844
                },
                {
                    "name": "F3",
                    "midi": 53,
                    "time": 87.4168290000007,
                    "velocity": 0.5905511811023622,
                    "duration": 0.26251299999999844
                },
                {
                    "name": "D4",
                    "midi": 62,
                    "time": 87.6793420000007,
                    "velocity": 0.5905511811023622,
                    "duration": 0.26251299999999844
                },
                {
                    "name": "D3",
                    "midi": 50,
                    "time": 87.6793420000007,
                    "velocity": 0.5905511811023622,
                    "duration": 0.26251299999999844
                },
                {
                    "name": "F3",
                    "midi": 53,
                    "time": 87.9418550000007,
                    "velocity": 0.5905511811023622,
                    "duration": 0.26251299999999844
                },
                {
                    "name": "F4",
                    "midi": 65,
                    "time": 87.9418550000007,
                    "velocity": 0.5905511811023622,
                    "duration": 0.26251299999999844
                },
                {
                    "name": "D3",
                    "midi": 50,
                    "time": 88.2043680000007,
                    "velocity": 0.6456692913385826,
                    "duration": 0.26251299999999844
                },
                {
                    "name": "D4",
                    "midi": 62,
                    "time": 88.2043680000007,
                    "velocity": 0.6456692913385826,
                    "duration": 0.26251299999999844
                },
                {
                    "name": "A#2",
                    "midi": 46,
                    "time": 88.4668810000007,
                    "velocity": 0.5905511811023622,
                    "duration": 0.26251299999999844
                },
                {
                    "name": "A#3",
                    "midi": 58,
                    "time": 88.4668810000007,
                    "velocity": 0.5905511811023622,
                    "duration": 0.26251299999999844
                },
                {
                    "name": "D4",
                    "midi": 62,
                    "time": 88.7293940000007,
                    "velocity": 0.5905511811023622,
                    "duration": 0.26251299999999844
                },
                {
                    "name": "D3",
                    "midi": 50,
                    "time": 88.7293940000007,
                    "velocity": 0.5905511811023622,
                    "duration": 0.26251299999999844
                },
                {
                    "name": "A#2",
                    "midi": 46,
                    "time": 88.9919070000007,
                    "velocity": 0.5905511811023622,
                    "duration": 0.26251299999999844
                },
                {
                    "name": "A#3",
                    "midi": 58,
                    "time": 88.9919070000007,
                    "velocity": 0.5905511811023622,
                    "duration": 0.26251299999999844
                },
                {
                    "name": "G2",
                    "midi": 43,
                    "time": 89.25442000000069,
                    "velocity": 0.6456692913385826,
                    "duration": 0.26251299999999844
                },
                {
                    "name": "G3",
                    "midi": 55,
                    "time": 89.25442000000069,
                    "velocity": 0.6456692913385826,
                    "duration": 0.26251299999999844
                },
                {
                    "name": "A#2",
                    "midi": 46,
                    "time": 89.51693300000069,
                    "velocity": 0.5905511811023622,
                    "duration": 0.26251299999999844
                },
                {
                    "name": "A#3",
                    "midi": 58,
                    "time": 89.51693300000069,
                    "velocity": 0.5905511811023622,
                    "duration": 0.26251299999999844
                },
                {
                    "name": "G2",
                    "midi": 43,
                    "time": 89.77944600000069,
                    "velocity": 0.5905511811023622,
                    "duration": 0.26251299999999844
                },
                {
                    "name": "G3",
                    "midi": 55,
                    "time": 89.77944600000069,
                    "velocity": 0.5905511811023622,
                    "duration": 0.26251299999999844
                },
                {
                    "name": "D#2",
                    "midi": 39,
                    "time": 90.04195900000069,
                    "velocity": 0.5905511811023622,
                    "duration": 0.26251299999999844
                },
                {
                    "name": "D#3",
                    "midi": 51,
                    "time": 90.04195900000069,
                    "velocity": 0.5905511811023622,
                    "duration": 0.26251299999999844
                },
                {
                    "name": "G2",
                    "midi": 43,
                    "time": 90.30447200000069,
                    "velocity": 0.6692913385826772,
                    "duration": 0.26251299999999844
                },
                {
                    "name": "G3",
                    "midi": 55,
                    "time": 90.30447200000069,
                    "velocity": 0.6692913385826772,
                    "duration": 0.26251299999999844
                },
                {
                    "name": "D#2",
                    "midi": 39,
                    "time": 90.56698500000068,
                    "velocity": 0.6220472440944882,
                    "duration": 0.26251299999999844
                },
                {
                    "name": "D#3",
                    "midi": 51,
                    "time": 90.56698500000068,
                    "velocity": 0.6220472440944882,
                    "duration": 0.26251299999999844
                },
                {
                    "name": "C2",
                    "midi": 36,
                    "time": 90.82949800000068,
                    "velocity": 0.6220472440944882,
                    "duration": 0.26251299999999844
                },
                {
                    "name": "C3",
                    "midi": 48,
                    "time": 90.82949800000068,
                    "velocity": 0.6220472440944882,
                    "duration": 0.26251299999999844
                },
                {
                    "name": "D#2",
                    "midi": 39,
                    "time": 91.09201100000068,
                    "velocity": 0.6220472440944882,
                    "duration": 0.26251299999999844
                },
                {
                    "name": "D#3",
                    "midi": 51,
                    "time": 91.09201100000068,
                    "velocity": 0.6220472440944882,
                    "duration": 0.26251299999999844
                },
                {
                    "name": "C2",
                    "midi": 36,
                    "time": 91.35452400000068,
                    "velocity": 0.6692913385826772,
                    "duration": 0.26251299999999844
                },
                {
                    "name": "C3",
                    "midi": 48,
                    "time": 91.35452400000068,
                    "velocity": 0.6692913385826772,
                    "duration": 0.26251299999999844
                },
                {
                    "name": "G#1",
                    "midi": 32,
                    "time": 91.61703700000068,
                    "velocity": 0.6377952755905512,
                    "duration": 0.26251299999999844
                },
                {
                    "name": "G#2",
                    "midi": 44,
                    "time": 91.61703700000068,
                    "velocity": 0.6377952755905512,
                    "duration": 0.26251299999999844
                },
                {
                    "name": "C2",
                    "midi": 36,
                    "time": 91.87955000000068,
                    "velocity": 0.6771653543307087,
                    "duration": 0.26251299999999844
                },
                {
                    "name": "C3",
                    "midi": 48,
                    "time": 91.87955000000068,
                    "velocity": 0.6771653543307087,
                    "duration": 0.26251299999999844
                },
                {
                    "name": "G#1",
                    "midi": 32,
                    "time": 92.14206300000068,
                    "velocity": 0.7480314960629921,
                    "duration": 0.26251299999999844
                },
                {
                    "name": "G#2",
                    "midi": 44,
                    "time": 92.14206300000068,
                    "velocity": 0.7480314960629921,
                    "duration": 0.26251299999999844
                },
                {
                    "name": "G1",
                    "midi": 31,
                    "time": 92.40457600000067,
                    "velocity": 0.7086614173228346,
                    "duration": 2.1001039999999875
                },
                {
                    "name": "G2",
                    "midi": 43,
                    "time": 92.40457600000067,
                    "velocity": 0.84251968503937,
                    "duration": 2.1001039999999875
                },
                {
                    "name": "D#3",
                    "midi": 51,
                    "time": 92.92960200000067,
                    "velocity": 0.6929133858267716,
                    "duration": 0.5250259999999969
                },
                {
                    "name": "C3",
                    "midi": 48,
                    "time": 92.92960200000067,
                    "velocity": 0.5826771653543307,
                    "duration": 0.5250259999999969
                },
                {
                    "name": "G#2",
                    "midi": 44,
                    "time": 92.92960200000067,
                    "velocity": 0.5826771653543307,
                    "duration": 0.5250259999999969
                },
                {
                    "name": "D#4",
                    "midi": 63,
                    "time": 93.45462800000067,
                    "velocity": 0.6929133858267716,
                    "duration": 0.5250259999999969
                },
                {
                    "name": "C4",
                    "midi": 60,
                    "time": 93.45462800000067,
                    "velocity": 0.5826771653543307,
                    "duration": 0.5250259999999969
                },
                {
                    "name": "G#3",
                    "midi": 56,
                    "time": 93.45462800000067,
                    "velocity": 0.5826771653543307,
                    "duration": 0.5250259999999969
                },
                {
                    "name": "D#5",
                    "midi": 75,
                    "time": 93.97965400000066,
                    "velocity": 0.6929133858267716,
                    "duration": 0.5250259999999969
                },
                {
                    "name": "C5",
                    "midi": 72,
                    "time": 93.97965400000066,
                    "velocity": 0.5826771653543307,
                    "duration": 0.5250259999999969
                },
                {
                    "name": "G#4",
                    "midi": 68,
                    "time": 93.97965400000066,
                    "velocity": 0.5826771653543307,
                    "duration": 0.5250259999999969
                },
                {
                    "name": "F#1",
                    "midi": 30,
                    "time": 94.50468000000066,
                    "velocity": 0.7086614173228346,
                    "duration": 2.1001039999999875
                },
                {
                    "name": "F#2",
                    "midi": 42,
                    "time": 94.50468000000066,
                    "velocity": 0.84251968503937,
                    "duration": 2.1001039999999875
                },
                {
                    "name": "D#3",
                    "midi": 51,
                    "time": 95.02970600000066,
                    "velocity": 0.6929133858267716,
                    "duration": 0.5250259999999969
                },
                {
                    "name": "C3",
                    "midi": 48,
                    "time": 95.02970600000066,
                    "velocity": 0.5826771653543307,
                    "duration": 0.5250259999999969
                },
                {
                    "name": "G#2",
                    "midi": 44,
                    "time": 95.02970600000066,
                    "velocity": 0.5826771653543307,
                    "duration": 0.5250259999999969
                },
                {
                    "name": "D#4",
                    "midi": 63,
                    "time": 95.55473200000066,
                    "velocity": 0.6929133858267716,
                    "duration": 0.5250259999999969
                },
                {
                    "name": "C4",
                    "midi": 60,
                    "time": 95.55473200000066,
                    "velocity": 0.5826771653543307,
                    "duration": 0.5250259999999969
                },
                {
                    "name": "G#3",
                    "midi": 56,
                    "time": 95.55473200000066,
                    "velocity": 0.5826771653543307,
                    "duration": 0.5250259999999969
                },
                {
                    "name": "D#5",
                    "midi": 75,
                    "time": 96.07975800000065,
                    "velocity": 0.6929133858267716,
                    "duration": 0.5250259999999969
                },
                {
                    "name": "C5",
                    "midi": 72,
                    "time": 96.07975800000065,
                    "velocity": 0.5826771653543307,
                    "duration": 0.5250259999999969
                },
                {
                    "name": "G#4",
                    "midi": 68,
                    "time": 96.07975800000065,
                    "velocity": 0.5826771653543307,
                    "duration": 0.5250259999999969
                },
                {
                    "name": "F1",
                    "midi": 29,
                    "time": 96.60478400000065,
                    "velocity": 0.7322834645669292,
                    "duration": 2.1001039999999875
                },
                {
                    "name": "F2",
                    "midi": 41,
                    "time": 96.60478400000065,
                    "velocity": 0.8661417322834646,
                    "duration": 2.1001039999999875
                },
                {
                    "name": "D#3",
                    "midi": 51,
                    "time": 97.12981000000065,
                    "velocity": 0.6929133858267716,
                    "duration": 0.5250259999999969
                },
                {
                    "name": "B2",
                    "midi": 47,
                    "time": 97.12981000000065,
                    "velocity": 0.5826771653543307,
                    "duration": 0.5250259999999969
                },
                {
                    "name": "G#2",
                    "midi": 44,
                    "time": 97.12981000000065,
                    "velocity": 0.5826771653543307,
                    "duration": 0.5250259999999969
                },
                {
                    "name": "D#4",
                    "midi": 63,
                    "time": 97.65483600000064,
                    "velocity": 0.6929133858267716,
                    "duration": 0.5250259999999969
                },
                {
                    "name": "B3",
                    "midi": 59,
                    "time": 97.65483600000064,
                    "velocity": 0.5826771653543307,
                    "duration": 0.5250259999999969
                },
                {
                    "name": "G#3",
                    "midi": 56,
                    "time": 97.65483600000064,
                    "velocity": 0.5826771653543307,
                    "duration": 0.5250259999999969
                },
                {
                    "name": "D#5",
                    "midi": 75,
                    "time": 98.17986200000064,
                    "velocity": 0.6929133858267716,
                    "duration": 0.5250259999999969
                },
                {
                    "name": "B4",
                    "midi": 71,
                    "time": 98.17986200000064,
                    "velocity": 0.5826771653543307,
                    "duration": 0.5250259999999969
                },
                {
                    "name": "G#4",
                    "midi": 68,
                    "time": 98.17986200000064,
                    "velocity": 0.5826771653543307,
                    "duration": 0.5250259999999969
                },
                {
                    "name": "E1",
                    "midi": 28,
                    "time": 98.70488800000064,
                    "velocity": 0.7322834645669292,
                    "duration": 2.1001039999999875
                },
                {
                    "name": "E2",
                    "midi": 40,
                    "time": 98.70488800000064,
                    "velocity": 0.8661417322834646,
                    "duration": 1.0500519999999938
                },
                {
                    "name": "C#3",
                    "midi": 49,
                    "time": 99.22991400000063,
                    "velocity": 0.6929133858267716,
                    "duration": 0.5250259999999969
                },
                {
                    "name": "A2",
                    "midi": 45,
                    "time": 99.22991400000063,
                    "velocity": 0.5826771653543307,
                    "duration": 0.5250259999999969
                },
                {
                    "name": "E2",
                    "midi": 40,
                    "time": 99.22991400000063,
                    "velocity": 0.5826771653543307,
                    "duration": 1.5750779999999907
                },
                {
                    "name": "A3",
                    "midi": 57,
                    "time": 99.75494000000063,
                    "velocity": 0.5826771653543307,
                    "duration": 0.5250259999999969
                },
                {
                    "name": "C#4",
                    "midi": 61,
                    "time": 99.75494000000063,
                    "velocity": 0.6929133858267716,
                    "duration": 0.5250259999999969
                },
                {
                    "name": "E3",
                    "midi": 52,
                    "time": 99.75494000000063,
                    "velocity": 0.5826771653543307,
                    "duration": 0.5250259999999969
                },
                {
                    "name": "C#5",
                    "midi": 73,
                    "time": 100.27996600000063,
                    "velocity": 0.6929133858267716,
                    "duration": 0.26251299999999844
                },
                {
                    "name": "A4",
                    "midi": 69,
                    "time": 100.27996600000063,
                    "velocity": 0.5826771653543307,
                    "duration": 0.26251299999999844
                },
                {
                    "name": "E4",
                    "midi": 64,
                    "time": 100.27996600000063,
                    "velocity": 0.5826771653543307,
                    "duration": 0.26251299999999844
                },
                {
                    "name": "D2",
                    "midi": 38,
                    "time": 100.80499200000062,
                    "velocity": 0.6220472440944882,
                    "duration": 0.13125650000000633
                },
                {
                    "name": "A2",
                    "midi": 45,
                    "time": 100.80499200000062,
                    "velocity": 0.6220472440944882,
                    "duration": 0.13125650000000633
                },
                {
                    "name": "D3",
                    "midi": 50,
                    "time": 100.93624850000063,
                    "velocity": 0.5354330708661418,
                    "duration": 0.13125650000000633
                },
                {
                    "name": "F#3",
                    "midi": 54,
                    "time": 101.06750500000064,
                    "velocity": 0.5354330708661418,
                    "duration": 0.13125650000000633
                },
                {
                    "name": "A3",
                    "midi": 57,
                    "time": 101.19876150000064,
                    "velocity": 0.5354330708661418,
                    "duration": 0.13125650000000633
                },
                {
                    "name": "D4",
                    "midi": 62,
                    "time": 101.33001800000065,
                    "velocity": 0.5511811023622047,
                    "duration": 0.10500519999999369
                },
                {
                    "name": "A3",
                    "midi": 57,
                    "time": 101.43502320000064,
                    "velocity": 0.5511811023622047,
                    "duration": 0.10500519999999369
                },
                {
                    "name": "F#3",
                    "midi": 54,
                    "time": 101.54002840000064,
                    "velocity": 0.5433070866141733,
                    "duration": 0.10500519999999369
                },
                {
                    "name": "D3",
                    "midi": 50,
                    "time": 101.64503360000063,
                    "velocity": 0.5354330708661418,
                    "duration": 0.10500519999999369
                },
                {
                    "name": "A2",
                    "midi": 45,
                    "time": 101.75003880000062,
                    "velocity": 0.5354330708661418,
                    "duration": 0.10500519999999369
                },
                {
                    "name": "D2",
                    "midi": 38,
                    "time": 101.85504400000062,
                    "velocity": 0.5039370078740157,
                    "duration": 0.10500519999999369
                },
                {
                    "name": "A2",
                    "midi": 45,
                    "time": 101.96004920000061,
                    "velocity": 0.5433070866141733,
                    "duration": 0.10500519999999369
                },
                {
                    "name": "D3",
                    "midi": 50,
                    "time": 102.0650544000006,
                    "velocity": 0.5511811023622047,
                    "duration": 0.10500519999999369
                },
                {
                    "name": "F#3",
                    "midi": 54,
                    "time": 102.1700596000006,
                    "velocity": 0.5590551181102362,
                    "duration": 0.10500519999999369
                },
                {
                    "name": "A3",
                    "midi": 57,
                    "time": 102.27506480000059,
                    "velocity": 0.5748031496062992,
                    "duration": 0.10500519999999369
                },
                {
                    "name": "D4",
                    "midi": 62,
                    "time": 102.38007000000059,
                    "velocity": 0.5905511811023622,
                    "duration": 0.26251299999999844
                },
                {
                    "name": "D2",
                    "midi": 38,
                    "time": 102.90509600000058,
                    "velocity": 0.6062992125984252,
                    "duration": 0.26251299999999844
                },
                {
                    "name": "A2",
                    "midi": 45,
                    "time": 102.90509600000058,
                    "velocity": 0.6062992125984252,
                    "duration": 0.26251299999999844
                },
                {
                    "name": "D3",
                    "midi": 50,
                    "time": 102.90509600000058,
                    "velocity": 0.6062992125984252,
                    "duration": 0.26251299999999844
                },
                {
                    "name": "D4",
                    "midi": 62,
                    "time": 103.16760900000058,
                    "velocity": 0.5354330708661418,
                    "duration": 0.5250259999999969
                },
                {
                    "name": "A3",
                    "midi": 57,
                    "time": 103.16760900000058,
                    "velocity": 0.5354330708661418,
                    "duration": 0.5250259999999969
                },
                {
                    "name": "F#3",
                    "midi": 54,
                    "time": 103.16760900000058,
                    "velocity": 0.5354330708661418,
                    "duration": 0.5250259999999969
                },
                {
                    "name": "F#4",
                    "midi": 66,
                    "time": 103.69263500000058,
                    "velocity": 0.5354330708661418,
                    "duration": 0.5250259999999969
                },
                {
                    "name": "D4",
                    "midi": 62,
                    "time": 103.69263500000058,
                    "velocity": 0.5354330708661418,
                    "duration": 0.5250259999999969
                },
                {
                    "name": "A3",
                    "midi": 57,
                    "time": 103.69263500000058,
                    "velocity": 0.5354330708661418,
                    "duration": 0.5250259999999969
                },
                {
                    "name": "A4",
                    "midi": 69,
                    "time": 104.21766100000058,
                    "velocity": 0.5354330708661418,
                    "duration": 0.26251299999999844
                },
                {
                    "name": "F#4",
                    "midi": 66,
                    "time": 104.21766100000058,
                    "velocity": 0.5354330708661418,
                    "duration": 0.26251299999999844
                },
                {
                    "name": "D4",
                    "midi": 62,
                    "time": 104.21766100000058,
                    "velocity": 0.5354330708661418,
                    "duration": 0.26251299999999844
                },
                {
                    "name": "B1",
                    "midi": 35,
                    "time": 105.00520000000057,
                    "velocity": 0.5196850393700787,
                    "duration": 0.08750433333332808
                },
                {
                    "name": "F#2",
                    "midi": 42,
                    "time": 105.0927043333339,
                    "velocity": 0.4645669291338583,
                    "duration": 0.08750433333332808
                },
                {
                    "name": "B2",
                    "midi": 47,
                    "time": 105.18020866666723,
                    "velocity": 0.4645669291338583,
                    "duration": 0.08750433333332808
                },
                {
                    "name": "D3",
                    "midi": 50,
                    "time": 105.26771300000055,
                    "velocity": 0.4645669291338583,
                    "duration": 0.08750433333332808
                },
                {
                    "name": "F#3",
                    "midi": 54,
                    "time": 105.35521733333388,
                    "velocity": 0.4645669291338583,
                    "duration": 0.08750433333332808
                },
                {
                    "name": "B3",
                    "midi": 59,
                    "time": 105.44272166666721,
                    "velocity": 0.4645669291338583,
                    "duration": 0.08750433333332808
                },
                {
                    "name": "D4",
                    "midi": 62,
                    "time": 105.53022600000054,
                    "velocity": 0.4645669291338583,
                    "duration": 0.26251299999999844
                },
                {
                    "name": "E2",
                    "midi": 40,
                    "time": 106.05525200000054,
                    "velocity": 0.5196850393700787,
                    "duration": 0.10500519999999369
                },
                {
                    "name": "B2",
                    "midi": 47,
                    "time": 106.16025720000053,
                    "velocity": 0.4645669291338583,
                    "duration": 0.10500519999999369
                },
                {
                    "name": "E3",
                    "midi": 52,
                    "time": 106.26526240000052,
                    "velocity": 0.4645669291338583,
                    "duration": 0.10500519999999369
                },
                {
                    "name": "G#3",
                    "midi": 56,
                    "time": 106.37026760000052,
                    "velocity": 0.4645669291338583,
                    "duration": 0.10500519999999369
                },
                {
                    "name": "D4",
                    "midi": 62,
                    "time": 106.47527280000051,
                    "velocity": 0.4645669291338583,
                    "duration": 0.10500519999999369
                },
                {
                    "name": "F#4",
                    "midi": 66,
                    "time": 106.5802780000005,
                    "velocity": 0.4645669291338583,
                    "duration": 0.26251299999999844
                },
                {
                    "name": "A1",
                    "midi": 33,
                    "time": 107.1053040000005,
                    "velocity": 0.5905511811023622,
                    "duration": 0.26251299999999844
                },
                {
                    "name": "E2",
                    "midi": 40,
                    "time": 107.1053040000005,
                    "velocity": 0.5905511811023622,
                    "duration": 0.26251299999999844
                },
                {
                    "name": "A2",
                    "midi": 45,
                    "time": 107.1053040000005,
                    "velocity": 0.5905511811023622,
                    "duration": 0.26251299999999844
                },
                {
                    "name": "C#4",
                    "midi": 61,
                    "time": 107.3678170000005,
                    "velocity": 0.5039370078740157,
                    "duration": 0.5250259999999969
                },
                {
                    "name": "A3",
                    "midi": 57,
                    "time": 107.3678170000005,
                    "velocity": 0.5039370078740157,
                    "duration": 0.5250259999999969
                },
                {
                    "name": "E3",
                    "midi": 52,
                    "time": 107.3678170000005,
                    "velocity": 0.5039370078740157,
                    "duration": 0.5250259999999969
                },
                {
                    "name": "E4",
                    "midi": 64,
                    "time": 107.8928430000005,
                    "velocity": 0.5039370078740157,
                    "duration": 0.5250259999999969
                },
                {
                    "name": "C#4",
                    "midi": 61,
                    "time": 107.8928430000005,
                    "velocity": 0.5039370078740157,
                    "duration": 0.5250259999999969
                },
                {
                    "name": "A3",
                    "midi": 57,
                    "time": 107.8928430000005,
                    "velocity": 0.5039370078740157,
                    "duration": 0.5250259999999969
                },
                {
                    "name": "A4",
                    "midi": 69,
                    "time": 108.4178690000005,
                    "velocity": 0.5039370078740157,
                    "duration": 0.26251299999999844
                },
                {
                    "name": "E4",
                    "midi": 64,
                    "time": 108.4178690000005,
                    "velocity": 0.5039370078740157,
                    "duration": 0.26251299999999844
                },
                {
                    "name": "C#4",
                    "midi": 61,
                    "time": 108.4178690000005,
                    "velocity": 0.5039370078740157,
                    "duration": 0.26251299999999844
                },
                {
                    "name": "G2",
                    "midi": 43,
                    "time": 109.20540800000049,
                    "velocity": 0.5118110236220472,
                    "duration": 0.13125650000000633
                },
                {
                    "name": "D3",
                    "midi": 50,
                    "time": 109.20540800000049,
                    "velocity": 0.5118110236220472,
                    "duration": 0.13125650000000633
                },
                {
                    "name": "G3",
                    "midi": 55,
                    "time": 109.3366645000005,
                    "velocity": 0.44881889763779526,
                    "duration": 0.13125650000000633
                },
                {
                    "name": "B3",
                    "midi": 59,
                    "time": 109.4679210000005,
                    "velocity": 0.44881889763779526,
                    "duration": 0.13125650000000633
                },
                {
                    "name": "D4",
                    "midi": 62,
                    "time": 109.59917750000051,
                    "velocity": 0.44881889763779526,
                    "duration": 0.13125650000000633
                },
                {
                    "name": "G4",
                    "midi": 67,
                    "time": 109.73043400000051,
                    "velocity": 0.5118110236220472,
                    "duration": 0.10500519999999369
                },
                {
                    "name": "D4",
                    "midi": 62,
                    "time": 109.83543920000051,
                    "velocity": 0.4645669291338583,
                    "duration": 0.10500519999999369
                },
                {
                    "name": "B3",
                    "midi": 59,
                    "time": 109.9404444000005,
                    "velocity": 0.4566929133858268,
                    "duration": 0.10500519999999369
                },
                {
                    "name": "G3",
                    "midi": 55,
                    "time": 110.0454496000005,
                    "velocity": 0.4566929133858268,
                    "duration": 0.10500519999999369
                },
                {
                    "name": "D3",
                    "midi": 50,
                    "time": 110.15045480000049,
                    "velocity": 0.44881889763779526,
                    "duration": 0.10500519999999369
                },
                {
                    "name": "G2",
                    "midi": 43,
                    "time": 110.25546000000048,
                    "velocity": 0.4409448818897638,
                    "duration": 0.10500519999999369
                },
                {
                    "name": "B2",
                    "midi": 47,
                    "time": 110.36046520000048,
                    "velocity": 0.4409448818897638,
                    "duration": 0.10500519999999369
                },
                {
                    "name": "G3",
                    "midi": 55,
                    "time": 110.46547040000047,
                    "velocity": 0.44881889763779526,
                    "duration": 0.10500519999999369
                },
                {
                    "name": "B3",
                    "midi": 59,
                    "time": 110.57047560000046,
                    "velocity": 0.44881889763779526,
                    "duration": 0.10500519999999369
                },
                {
                    "name": "D4",
                    "midi": 62,
                    "time": 110.67548080000046,
                    "velocity": 0.44881889763779526,
                    "duration": 0.10500519999999369
                },
                {
                    "name": "G4",
                    "midi": 67,
                    "time": 110.78048600000045,
                    "velocity": 0.44881889763779526,
                    "duration": 0.26251299999999844
                },
                {
                    "name": "E2",
                    "midi": 40,
                    "time": 111.30551200000045,
                    "velocity": 0.5748031496062992,
                    "duration": 0.26251299999999844
                },
                {
                    "name": "B2",
                    "midi": 47,
                    "time": 111.30551200000045,
                    "velocity": 0.5748031496062992,
                    "duration": 0.26251299999999844
                },
                {
                    "name": "E3",
                    "midi": 52,
                    "time": 111.30551200000045,
                    "velocity": 0.5748031496062992,
                    "duration": 0.26251299999999844
                },
                {
                    "name": "F#4",
                    "midi": 66,
                    "time": 111.56802500000045,
                    "velocity": 0.4881889763779528,
                    "duration": 0.5250259999999969
                },
                {
                    "name": "D4",
                    "midi": 62,
                    "time": 111.56802500000045,
                    "velocity": 0.4881889763779528,
                    "duration": 0.5250259999999969
                },
                {
                    "name": "B3",
                    "midi": 59,
                    "time": 111.56802500000045,
                    "velocity": 0.4881889763779528,
                    "duration": 0.5250259999999969
                },
                {
                    "name": "G3",
                    "midi": 55,
                    "time": 111.56802500000045,
                    "velocity": 0.4881889763779528,
                    "duration": 0.5250259999999969
                },
                {
                    "name": "G4",
                    "midi": 67,
                    "time": 112.09305100000044,
                    "velocity": 0.4881889763779528,
                    "duration": 0.5250259999999969
                },
                {
                    "name": "F#4",
                    "midi": 66,
                    "time": 112.09305100000044,
                    "velocity": 0.4881889763779528,
                    "duration": 0.5250259999999969
                },
                {
                    "name": "D4",
                    "midi": 62,
                    "time": 112.09305100000044,
                    "velocity": 0.4881889763779528,
                    "duration": 0.5250259999999969
                },
                {
                    "name": "B3",
                    "midi": 59,
                    "time": 112.09305100000044,
                    "velocity": 0.4881889763779528,
                    "duration": 0.5250259999999969
                },
                {
                    "name": "B4",
                    "midi": 71,
                    "time": 112.61807700000044,
                    "velocity": 0.4881889763779528,
                    "duration": 0.26251299999999844
                },
                {
                    "name": "G4",
                    "midi": 67,
                    "time": 112.61807700000044,
                    "velocity": 0.4881889763779528,
                    "duration": 0.26251299999999844
                },
                {
                    "name": "F#4",
                    "midi": 66,
                    "time": 112.61807700000044,
                    "velocity": 0.4881889763779528,
                    "duration": 0.26251299999999844
                },
                {
                    "name": "D4",
                    "midi": 62,
                    "time": 112.61807700000044,
                    "velocity": 0.4881889763779528,
                    "duration": 0.26251299999999844
                },
                {
                    "name": "A2",
                    "midi": 45,
                    "time": 113.40561600000044,
                    "velocity": 0.5433070866141733,
                    "duration": 0.10500519999999369
                },
                {
                    "name": "E3",
                    "midi": 52,
                    "time": 113.51062120000043,
                    "velocity": 0.47244094488188976,
                    "duration": 0.10500519999999369
                },
                {
                    "name": "A3",
                    "midi": 57,
                    "time": 113.61562640000042,
                    "velocity": 0.47244094488188976,
                    "duration": 0.10500519999999369
                },
                {
                    "name": "D4",
                    "midi": 62,
                    "time": 113.72063160000042,
                    "velocity": 0.47244094488188976,
                    "duration": 0.10500519999999369
                },
                {
                    "name": "G4",
                    "midi": 67,
                    "time": 113.82563680000041,
                    "velocity": 0.47244094488188976,
                    "duration": 0.10500519999999369
                },
                {
                    "name": "B4",
                    "midi": 71,
                    "time": 113.9306420000004,
                    "velocity": 0.47244094488188976,
                    "duration": 0.26251299999999844
                },
                {
                    "name": "A2",
                    "midi": 45,
                    "time": 114.4556680000004,
                    "velocity": 0.5433070866141733,
                    "duration": 0.10500519999999369
                },
                {
                    "name": "E3",
                    "midi": 52,
                    "time": 114.5606732000004,
                    "velocity": 0.47244094488188976,
                    "duration": 0.10500519999999369
                },
                {
                    "name": "A3",
                    "midi": 57,
                    "time": 114.66567840000039,
                    "velocity": 0.47244094488188976,
                    "duration": 0.10500519999999369
                },
                {
                    "name": "D4",
                    "midi": 62,
                    "time": 114.77068360000038,
                    "velocity": 0.47244094488188976,
                    "duration": 0.10500519999999369
                },
                {
                    "name": "G4",
                    "midi": 67,
                    "time": 114.87568880000038,
                    "velocity": 0.47244094488188976,
                    "duration": 0.10500519999999369
                },
                {
                    "name": "B4",
                    "midi": 71,
                    "time": 114.98069400000037,
                    "velocity": 0.47244094488188976,
                    "duration": 0.26251299999999844
                },
                {
                    "name": "D2",
                    "midi": 38,
                    "time": 115.50572000000037,
                    "velocity": 0.5905511811023622,
                    "duration": 0.26251299999999844
                },
                {
                    "name": "A2",
                    "midi": 45,
                    "time": 115.50572000000037,
                    "velocity": 0.5905511811023622,
                    "duration": 0.26251299999999844
                },
                {
                    "name": "D3",
                    "midi": 50,
                    "time": 115.50572000000037,
                    "velocity": 0.5905511811023622,
                    "duration": 0.26251299999999844
                },
                {
                    "name": "F#4",
                    "midi": 66,
                    "time": 115.76823300000036,
                    "velocity": 0.5039370078740157,
                    "duration": 0.5250259999999969
                },
                {
                    "name": "D4",
                    "midi": 62,
                    "time": 115.76823300000036,
                    "velocity": 0.5039370078740157,
                    "duration": 0.5250259999999969
                },
                {
                    "name": "A3",
                    "midi": 57,
                    "time": 115.76823300000036,
                    "velocity": 0.5039370078740157,
                    "duration": 0.5250259999999969
                },
                {
                    "name": "A4",
                    "midi": 69,
                    "time": 116.29325900000036,
                    "velocity": 0.5039370078740157,
                    "duration": 0.5250259999999969
                },
                {
                    "name": "F#4",
                    "midi": 66,
                    "time": 116.29325900000036,
                    "velocity": 0.5039370078740157,
                    "duration": 0.5250259999999969
                },
                {
                    "name": "D4",
                    "midi": 62,
                    "time": 116.29325900000036,
                    "velocity": 0.5039370078740157,
                    "duration": 0.5250259999999969
                },
                {
                    "name": "F#4",
                    "midi": 66,
                    "time": 116.81828500000036,
                    "velocity": 0.4881889763779528,
                    "duration": 0.26251299999999844
                },
                {
                    "name": "A4",
                    "midi": 69,
                    "time": 116.81828500000036,
                    "velocity": 0.4881889763779528,
                    "duration": 0.26251299999999844
                },
                {
                    "name": "D5",
                    "midi": 74,
                    "time": 116.81828500000036,
                    "velocity": 0.4881889763779528,
                    "duration": 0.26251299999999844
                },
                {
                    "name": "G2",
                    "midi": 43,
                    "time": 117.60582400000035,
                    "velocity": 0.3464566929133858,
                    "duration": 1.0500519999999938
                },
                {
                    "name": "D3",
                    "midi": 50,
                    "time": 117.60582400000035,
                    "velocity": 0.3464566929133858,
                    "duration": 1.0500519999999938
                },
                {
                    "name": "G2",
                    "midi": 43,
                    "time": 118.65587600000035,
                    "velocity": 0.3464566929133858,
                    "duration": 1.0500519999999938
                },
                {
                    "name": "D3",
                    "midi": 50,
                    "time": 118.65587600000035,
                    "velocity": 0.3464566929133858,
                    "duration": 1.0500519999999938
                },
                {
                    "name": "G2",
                    "midi": 43,
                    "time": 119.70592800000034,
                    "velocity": 0.23622047244094488,
                    "duration": 1.0500519999999938
                },
                {
                    "name": "D3",
                    "midi": 50,
                    "time": 119.70592800000034,
                    "velocity": 0.23622047244094488,
                    "duration": 1.0500519999999938
                },
                {
                    "name": "B3",
                    "midi": 59,
                    "time": 120.75598000000033,
                    "velocity": 0.3464566929133858,
                    "duration": 0.26251299999999844
                },
                {
                    "name": "G2",
                    "midi": 43,
                    "time": 120.75598000000033,
                    "velocity": 0.23622047244094488,
                    "duration": 1.0500519999999938
                },
                {
                    "name": "D3",
                    "midi": 50,
                    "time": 120.75598000000033,
                    "velocity": 0.23622047244094488,
                    "duration": 1.0500519999999938
                },
                {
                    "name": "A3",
                    "midi": 57,
                    "time": 121.01849300000033,
                    "velocity": 0.3543307086614173,
                    "duration": 0.5250259999999969
                },
                {
                    "name": "G3",
                    "midi": 55,
                    "time": 121.54351900000033,
                    "velocity": 0.31496062992125984,
                    "duration": 0.26251299999999844
                },
                {
                    "name": "G2",
                    "midi": 43,
                    "time": 121.80603200000033,
                    "velocity": 0.2125984251968504,
                    "duration": 1.0500519999999938
                },
                {
                    "name": "D3",
                    "midi": 50,
                    "time": 121.80603200000033,
                    "velocity": 0.2125984251968504,
                    "duration": 1.0500519999999938
                },
                {
                    "name": "F#3",
                    "midi": 54,
                    "time": 121.80603200000033,
                    "velocity": 0.33070866141732286,
                    "duration": 1.0500519999999938
                },
                {
                    "name": "A3",
                    "midi": 57,
                    "time": 122.85608400000032,
                    "velocity": 0.3464566929133858,
                    "duration": 0.26251299999999844
                },
                {
                    "name": "G2",
                    "midi": 43,
                    "time": 122.85608400000032,
                    "velocity": 0.23622047244094488,
                    "duration": 1.0500519999999938
                },
                {
                    "name": "D3",
                    "midi": 50,
                    "time": 122.85608400000032,
                    "velocity": 0.23622047244094488,
                    "duration": 1.0500519999999938
                },
                {
                    "name": "G3",
                    "midi": 55,
                    "time": 123.11859700000032,
                    "velocity": 0.36220472440944884,
                    "duration": 0.5250259999999969
                },
                {
                    "name": "F#3",
                    "midi": 54,
                    "time": 123.64362300000032,
                    "velocity": 0.31496062992125984,
                    "duration": 0.26251299999999844
                },
                {
                    "name": "E3",
                    "midi": 52,
                    "time": 123.90613600000032,
                    "velocity": 0.33070866141732286,
                    "duration": 1.0500519999999938
                },
                {
                    "name": "G2",
                    "midi": 43,
                    "time": 123.90613600000032,
                    "velocity": 0.2125984251968504,
                    "duration": 1.0500519999999938
                },
                {
                    "name": "D3",
                    "midi": 50,
                    "time": 123.90613600000032,
                    "velocity": 0.2125984251968504,
                    "duration": 1.0500519999999938
                },
                {
                    "name": "G3",
                    "midi": 55,
                    "time": 124.95618800000031,
                    "velocity": 0.3464566929133858,
                    "duration": 0.26251299999999844
                },
                {
                    "name": "E2",
                    "midi": 40,
                    "time": 124.95618800000031,
                    "velocity": 0.29133858267716534,
                    "duration": 1.0500519999999938
                },
                {
                    "name": "F#3",
                    "midi": 54,
                    "time": 125.21870100000031,
                    "velocity": 0.36220472440944884,
                    "duration": 0.5250259999999969
                },
                {
                    "name": "E3",
                    "midi": 52,
                    "time": 125.7437270000003,
                    "velocity": 0.33070866141732286,
                    "duration": 0.26251299999999844
                },
                {
                    "name": "A1",
                    "midi": 33,
                    "time": 126.0062400000003,
                    "velocity": 0.3464566929133858,
                    "duration": 1.0500519999999938
                },
                {
                    "name": "A2",
                    "midi": 45,
                    "time": 126.0062400000003,
                    "velocity": 0.3464566929133858,
                    "duration": 1.0500519999999938
                },
                {
                    "name": "D2",
                    "midi": 38,
                    "time": 127.0562920000003,
                    "velocity": 0.3937007874015748,
                    "duration": 0.26251299999999844
                },
                {
                    "name": "A2",
                    "midi": 45,
                    "time": 127.0562920000003,
                    "velocity": 0.3937007874015748,
                    "duration": 0.26251299999999844
                },
                {
                    "name": "D4",
                    "midi": 62,
                    "time": 127.3188050000003,
                    "velocity": 0.4330708661417323,
                    "duration": 0.5250259999999969
                },
                {
                    "name": "D3",
                    "midi": 50,
                    "time": 127.3188050000003,
                    "velocity": 0.4330708661417323,
                    "duration": 0.5250259999999969
                },
                {
                    "name": "C#3",
                    "midi": 49,
                    "time": 127.84383100000029,
                    "velocity": 0.4330708661417323,
                    "duration": 0.26251299999999844
                },
                {
                    "name": "C#4",
                    "midi": 61,
                    "time": 127.84383100000029,
                    "velocity": 0.4330708661417323,
                    "duration": 0.26251299999999844
                },
                {
                    "name": "C3",
                    "midi": 48,
                    "time": 128.1063440000003,
                    "velocity": 0.31496062992125984,
                    "duration": 1.0500519999999938
                },
                {
                    "name": "G3",
                    "midi": 55,
                    "time": 128.1063440000003,
                    "velocity": 0.31496062992125984,
                    "duration": 1.0500519999999938
                },
                {
                    "name": "C4",
                    "midi": 60,
                    "time": 128.1063440000003,
                    "velocity": 0.31496062992125984,
                    "duration": 1.0500519999999938
                },
                {
                    "name": "G3",
                    "midi": 55,
                    "time": 129.15639600000029,
                    "velocity": 0.2677165354330709,
                    "duration": 1.0500520000000222
                },
                {
                    "name": "E3",
                    "midi": 52,
                    "time": 129.15639600000029,
                    "velocity": 0.2440944881889764,
                    "duration": 0.26251300000001265
                },
                {
                    "name": "E4",
                    "midi": 64,
                    "time": 129.15639600000029,
                    "velocity": 0.2440944881889764,
                    "duration": 0.26251300000001265
                },
                {
                    "name": "D3",
                    "midi": 50,
                    "time": 129.4189090000003,
                    "velocity": 0.28346456692913385,
                    "duration": 0.5250259999999969
                },
                {
                    "name": "D4",
                    "midi": 62,
                    "time": 129.4189090000003,
                    "velocity": 0.28346456692913385,
                    "duration": 0.5250259999999969
                },
                {
                    "name": "C3",
                    "midi": 48,
                    "time": 129.9439350000003,
                    "velocity": 0.2204724409448819,
                    "duration": 0.26251300000001265
                },
                {
                    "name": "C4",
                    "midi": 60,
                    "time": 129.9439350000003,
                    "velocity": 0.2204724409448819,
                    "duration": 0.26251300000001265
                },
                {
                    "name": "B2",
                    "midi": 47,
                    "time": 130.2064480000003,
                    "velocity": 0.2440944881889764,
                    "duration": 1.0500519999999938
                },
                {
                    "name": "F#3",
                    "midi": 54,
                    "time": 130.2064480000003,
                    "velocity": 0.2440944881889764,
                    "duration": 1.0500519999999938
                },
                {
                    "name": "B3",
                    "midi": 59,
                    "time": 130.2064480000003,
                    "velocity": 0.2440944881889764,
                    "duration": 1.0500519999999938
                },
                {
                    "name": "F#3",
                    "midi": 54,
                    "time": 131.2565000000003,
                    "velocity": 0.28346456692913385,
                    "duration": 1.0500520000000222
                },
                {
                    "name": "D3",
                    "midi": 50,
                    "time": 131.2565000000003,
                    "velocity": 0.2440944881889764,
                    "duration": 0.26251300000001265
                },
                {
                    "name": "D4",
                    "midi": 62,
                    "time": 131.2565000000003,
                    "velocity": 0.2440944881889764,
                    "duration": 0.26251300000001265
                },
                {
                    "name": "C3",
                    "midi": 48,
                    "time": 131.5190130000003,
                    "velocity": 0.28346456692913385,
                    "duration": 0.5250259999999969
                },
                {
                    "name": "C4",
                    "midi": 60,
                    "time": 131.5190130000003,
                    "velocity": 0.28346456692913385,
                    "duration": 0.5250259999999969
                },
                {
                    "name": "B2",
                    "midi": 47,
                    "time": 132.0440390000003,
                    "velocity": 0.2283464566929134,
                    "duration": 0.26251300000001265
                },
                {
                    "name": "B3",
                    "midi": 59,
                    "time": 132.0440390000003,
                    "velocity": 0.2283464566929134,
                    "duration": 0.26251300000001265
                },
                {
                    "name": "A2",
                    "midi": 45,
                    "time": 132.30655200000032,
                    "velocity": 0.23622047244094488,
                    "duration": 1.0500519999999938
                },
                {
                    "name": "E3",
                    "midi": 52,
                    "time": 132.30655200000032,
                    "velocity": 0.23622047244094488,
                    "duration": 1.0500519999999938
                },
                {
                    "name": "A3",
                    "midi": 57,
                    "time": 132.30655200000032,
                    "velocity": 0.23622047244094488,
                    "duration": 1.0500519999999938
                },
                {
                    "name": "A1",
                    "midi": 33,
                    "time": 133.35660400000032,
                    "velocity": 0.4330708661417323,
                    "duration": 1.0500520000000222
                },
                {
                    "name": "C4",
                    "midi": 60,
                    "time": 133.35660400000032,
                    "velocity": 0.44881889763779526,
                    "duration": 0.26251300000001265
                },
                {
                    "name": "B3",
                    "midi": 59,
                    "time": 133.61911700000033,
                    "velocity": 0.4015748031496063,
                    "duration": 0.5250259999999969
                },
                {
                    "name": "A3",
                    "midi": 57,
                    "time": 134.14414300000033,
                    "velocity": 0.3543307086614173,
                    "duration": 0.26251300000001265
                },
                {
                    "name": "D2",
                    "midi": 38,
                    "time": 134.40665600000034,
                    "velocity": 0.31496062992125984,
                    "duration": 1.0500519999999938
                },
                {
                    "name": "D3",
                    "midi": 50,
                    "time": 134.40665600000034,
                    "velocity": 0.31496062992125984,
                    "duration": 1.0500519999999938
                },
                {
                    "name": "G2",
                    "midi": 43,
                    "time": 135.45670800000033,
                    "velocity": 0.23622047244094488,
                    "duration": 0.7219107500000064
                },
                {
                    "name": "D3",
                    "midi": 50,
                    "time": 135.45670800000033,
                    "velocity": 0.23622047244094488,
                    "duration": 0.7219107500000064
                },
                {
                    "name": "F#3",
                    "midi": 54,
                    "time": 136.17861875000034,
                    "velocity": 0.2125984251968504,
                    "duration": 4.528349250000048
                },
                {
                    "name": "D#4",
                    "midi": 63,
                    "time": 136.24424700000034,
                    "velocity": 0.2125984251968504,
                    "duration": 4.462721000000045
                },
                {
                    "name": "F#4",
                    "midi": 66,
                    "time": 136.30987525000035,
                    "velocity": 0.2125984251968504,
                    "duration": 4.397092750000041
                },
                {
                    "name": "B4",
                    "midi": 71,
                    "time": 137.55681200000035,
                    "velocity": 0.2283464566929134,
                    "duration": 0.26251300000001265
                },
                {
                    "name": "A#4",
                    "midi": 70,
                    "time": 137.81932500000036,
                    "velocity": 0.2283464566929134,
                    "duration": 0.5250259999999969
                },
                {
                    "name": "G#4",
                    "midi": 68,
                    "time": 138.34435100000036,
                    "velocity": 0.2125984251968504,
                    "duration": 0.26251300000001265
                },
                {
                    "name": "A#4",
                    "midi": 70,
                    "time": 138.60686400000037,
                    "velocity": 0.2125984251968504,
                    "duration": 1.0500519999999938
                },
                {
                    "name": "A#4",
                    "midi": 70,
                    "time": 139.65691600000036,
                    "velocity": 0.2283464566929134,
                    "duration": 0.26251300000001265
                },
                {
                    "name": "G#4",
                    "midi": 68,
                    "time": 139.91942900000038,
                    "velocity": 0.2283464566929134,
                    "duration": 0.5250259999999969
                },
                {
                    "name": "F#4",
                    "midi": 66,
                    "time": 140.44445500000037,
                    "velocity": 0.2125984251968504,
                    "duration": 0.26251300000001265
                },
                {
                    "name": "D#4",
                    "midi": 63,
                    "time": 140.7069680000004,
                    "velocity": 0.2283464566929134,
                    "duration": 1.0500519999999938
                },
                {
                    "name": "F#4",
                    "midi": 66,
                    "time": 140.7069680000004,
                    "velocity": 0.2283464566929134,
                    "duration": 1.0500519999999938
                },
                {
                    "name": "C#4",
                    "midi": 61,
                    "time": 141.75702000000038,
                    "velocity": 0.2677165354330709,
                    "duration": 1.0500519999999938
                },
                {
                    "name": "G#4",
                    "midi": 68,
                    "time": 141.75702000000038,
                    "velocity": 0.2677165354330709,
                    "duration": 1.0500519999999938
                },
                {
                    "name": "E4",
                    "midi": 64,
                    "time": 142.80707200000037,
                    "velocity": 0.2440944881889764,
                    "duration": 1.0500519999999938
                },
                {
                    "name": "F#3",
                    "midi": 54,
                    "time": 142.80707200000037,
                    "velocity": 0.2440944881889764,
                    "duration": 1.0500519999999938
                },
                {
                    "name": "E4",
                    "midi": 64,
                    "time": 143.85712400000037,
                    "velocity": 0.2440944881889764,
                    "duration": 0.26251300000001265
                },
                {
                    "name": "B3",
                    "midi": 59,
                    "time": 143.85712400000037,
                    "velocity": 0.1968503937007874,
                    "duration": 1.0500520000000222
                },
                {
                    "name": "D#4",
                    "midi": 63,
                    "time": 144.11963700000038,
                    "velocity": 0.2440944881889764,
                    "duration": 0.4593977499999937
                },
                {
                    "name": "D3",
                    "midi": 50,
                    "time": 144.57903475000037,
                    "velocity": 0.18110236220472442,
                    "duration": 4.528349250000048
                },
                {
                    "name": "B3",
                    "midi": 59,
                    "time": 144.64466300000038,
                    "velocity": 0.18110236220472442,
                    "duration": 4.462721000000045
                },
                {
                    "name": "D4",
                    "midi": 62,
                    "time": 144.71029125000038,
                    "velocity": 0.18110236220472442,
                    "duration": 4.397092750000041
                },
                {
                    "name": "G4",
                    "midi": 67,
                    "time": 145.95722800000038,
                    "velocity": 0.2283464566929134,
                    "duration": 0.26251300000001265
                },
                {
                    "name": "F#4",
                    "midi": 66,
                    "time": 146.2197410000004,
                    "velocity": 0.2283464566929134,
                    "duration": 0.5250259999999969
                },
                {
                    "name": "E4",
                    "midi": 64,
                    "time": 146.7447670000004,
                    "velocity": 0.2125984251968504,
                    "duration": 0.26251300000001265
                },
                {
                    "name": "F#4",
                    "midi": 66,
                    "time": 147.0072800000004,
                    "velocity": 0.2125984251968504,
                    "duration": 1.0500519999999938
                },
                {
                    "name": "F#4",
                    "midi": 66,
                    "time": 148.0573320000004,
                    "velocity": 0.2283464566929134,
                    "duration": 0.26251300000001265
                },
                {
                    "name": "E4",
                    "midi": 64,
                    "time": 148.3198450000004,
                    "velocity": 0.2283464566929134,
                    "duration": 0.5250259999999969
                },
                {
                    "name": "D4",
                    "midi": 62,
                    "time": 148.8448710000004,
                    "velocity": 0.2125984251968504,
                    "duration": 0.26251300000001265
                },
                {
                    "name": "B3",
                    "midi": 59,
                    "time": 149.10738400000042,
                    "velocity": 0.2125984251968504,
                    "duration": 1.0500519999999938
                },
                {
                    "name": "D4",
                    "midi": 62,
                    "time": 149.10738400000042,
                    "velocity": 0.2125984251968504,
                    "duration": 1.0500519999999938
                },
                {
                    "name": "A3",
                    "midi": 57,
                    "time": 150.15743600000042,
                    "velocity": 0.23622047244094488,
                    "duration": 1.0500519999999938
                },
                {
                    "name": "E4",
                    "midi": 64,
                    "time": 150.15743600000042,
                    "velocity": 0.23622047244094488,
                    "duration": 1.0500519999999938
                },
                {
                    "name": "C4",
                    "midi": 60,
                    "time": 151.2074880000004,
                    "velocity": 0.2283464566929134,
                    "duration": 1.0500519999999938
                },
                {
                    "name": "D3",
                    "midi": 50,
                    "time": 151.2074880000004,
                    "velocity": 0.2283464566929134,
                    "duration": 1.0500519999999938
                },
                {
                    "name": "B3",
                    "midi": 59,
                    "time": 152.2575400000004,
                    "velocity": 0.2283464566929134,
                    "duration": 0.26251300000001265
                },
                {
                    "name": "A3",
                    "midi": 57,
                    "time": 152.52005300000042,
                    "velocity": 0.2283464566929134,
                    "duration": 0.5250259999999969
                },
                {
                    "name": "F#3",
                    "midi": 54,
                    "time": 153.0450790000004,
                    "velocity": 0.2283464566929134,
                    "duration": 0.26251300000001265
                },
                {
                    "name": "G2",
                    "midi": 43,
                    "time": 153.30759200000043,
                    "velocity": 0.18110236220472442,
                    "duration": 0.5250259999999969
                },
                {
                    "name": "D3",
                    "midi": 50,
                    "time": 153.30759200000043,
                    "velocity": 0.18110236220472442,
                    "duration": 0.5250259999999969
                },
                {
                    "name": "D5",
                    "midi": 74,
                    "time": 153.83261800000042,
                    "velocity": 0.2677165354330709,
                    "duration": 0.5250259999999969
                },
                {
                    "name": "B3",
                    "midi": 59,
                    "time": 154.35764400000042,
                    "velocity": 0.2283464566929134,
                    "duration": 0.26251300000001265
                },
                {
                    "name": "G2",
                    "midi": 43,
                    "time": 154.35764400000042,
                    "velocity": 0.2047244094488189,
                    "duration": 1.0500520000000222
                },
                {
                    "name": "D3",
                    "midi": 50,
                    "time": 154.35764400000042,
                    "velocity": 0.2047244094488189,
                    "duration": 1.0500520000000222
                },
                {
                    "name": "A3",
                    "midi": 57,
                    "time": 154.62015700000043,
                    "velocity": 0.2755905511811024,
                    "duration": 0.5250259999999969
                },
                {
                    "name": "G3",
                    "midi": 55,
                    "time": 155.14518300000043,
                    "velocity": 0.2440944881889764,
                    "duration": 0.26251300000001265
                },
                {
                    "name": "G2",
                    "midi": 43,
                    "time": 155.40769600000044,
                    "velocity": 0.1732283464566929,
                    "duration": 0.5250259999999969
                },
                {
                    "name": "D3",
                    "midi": 50,
                    "time": 155.40769600000044,
                    "velocity": 0.1732283464566929,
                    "duration": 0.5250259999999969
                },
                {
                    "name": "F#3",
                    "midi": 54,
                    "time": 155.40769600000044,
                    "velocity": 0.1732283464566929,
                    "duration": 0.5250259999999969
                },
                {
                    "name": "D5",
                    "midi": 74,
                    "time": 155.93272200000044,
                    "velocity": 0.2755905511811024,
                    "duration": 0.5250259999999969
                },
                {
                    "name": "A3",
                    "midi": 57,
                    "time": 156.45774800000044,
                    "velocity": 0.2283464566929134,
                    "duration": 0.26251300000001265
                },
                {
                    "name": "G2",
                    "midi": 43,
                    "time": 156.45774800000044,
                    "velocity": 0.2047244094488189,
                    "duration": 1.0500520000000222
                },
                {
                    "name": "D3",
                    "midi": 50,
                    "time": 156.45774800000044,
                    "velocity": 0.2047244094488189,
                    "duration": 1.0500520000000222
                },
                {
                    "name": "G3",
                    "midi": 55,
                    "time": 156.72026100000045,
                    "velocity": 0.28346456692913385,
                    "duration": 0.5250259999999969
                },
                {
                    "name": "F#3",
                    "midi": 54,
                    "time": 157.24528700000045,
                    "velocity": 0.2440944881889764,
                    "duration": 0.26251300000001265
                },
                {
                    "name": "E3",
                    "midi": 52,
                    "time": 157.50780000000046,
                    "velocity": 0.1732283464566929,
                    "duration": 0.5250259999999969
                },
                {
                    "name": "G2",
                    "midi": 43,
                    "time": 157.50780000000046,
                    "velocity": 0.1732283464566929,
                    "duration": 0.5250259999999969
                },
                {
                    "name": "D3",
                    "midi": 50,
                    "time": 157.50780000000046,
                    "velocity": 0.1732283464566929,
                    "duration": 0.5250259999999969
                },
                {
                    "name": "D5",
                    "midi": 74,
                    "time": 158.03282600000045,
                    "velocity": 0.2677165354330709,
                    "duration": 0.39376949999999056
                },
                {
                    "name": "E2",
                    "midi": 40,
                    "time": 158.42659550000045,
                    "velocity": 0.23622047244094488,
                    "duration": 1.1813085000000285
                },
                {
                    "name": "G3",
                    "midi": 55,
                    "time": 158.55785200000045,
                    "velocity": 0.2677165354330709,
                    "duration": 0.26251300000001265
                },
                {
                    "name": "F#3",
                    "midi": 54,
                    "time": 158.82036500000046,
                    "velocity": 0.28346456692913385,
                    "duration": 0.5250259999999969
                },
                {
                    "name": "E3",
                    "midi": 52,
                    "time": 159.34539100000046,
                    "velocity": 0.2440944881889764,
                    "duration": 0.26251300000001265
                },
                {
                    "name": "A1",
                    "midi": 33,
                    "time": 159.60790400000047,
                    "velocity": 0.28346456692913385,
                    "duration": 0.5250259999999969
                },
                {
                    "name": "A2",
                    "midi": 45,
                    "time": 159.60790400000047,
                    "velocity": 0.28346456692913385,
                    "duration": 0.5250259999999969
                },
                {
                    "name": "A4",
                    "midi": 69,
                    "time": 160.13293000000047,
                    "velocity": 0.28346456692913385,
                    "duration": 0.5250259999999969
                },
                {
                    "name": "D2",
                    "midi": 38,
                    "time": 160.65795600000047,
                    "velocity": 0.33070866141732286,
                    "duration": 0.26251300000001265
                },
                {
                    "name": "A2",
                    "midi": 45,
                    "time": 160.65795600000047,
                    "velocity": 0.33070866141732286,
                    "duration": 0.26251300000001265
                },
                {
                    "name": "D4",
                    "midi": 62,
                    "time": 160.92046900000048,
                    "velocity": 0.36220472440944884,
                    "duration": 0.5250259999999969
                },
                {
                    "name": "D3",
                    "midi": 50,
                    "time": 160.92046900000048,
                    "velocity": 0.36220472440944884,
                    "duration": 0.5250259999999969
                },
                {
                    "name": "C#3",
                    "midi": 49,
                    "time": 161.44549500000048,
                    "velocity": 0.36220472440944884,
                    "duration": 0.26251300000001265
                },
                {
                    "name": "C#4",
                    "midi": 61,
                    "time": 161.44549500000048,
                    "velocity": 0.36220472440944884,
                    "duration": 0.26251300000001265
                },
                {
                    "name": "C3",
                    "midi": 48,
                    "time": 161.7080080000005,
                    "velocity": 0.2755905511811024,
                    "duration": 0.5250259999999969
                },
                {
                    "name": "G3",
                    "midi": 55,
                    "time": 161.7080080000005,
                    "velocity": 0.2755905511811024,
                    "duration": 0.5250259999999969
                },
                {
                    "name": "C4",
                    "midi": 60,
                    "time": 161.7080080000005,
                    "velocity": 0.2755905511811024,
                    "duration": 0.5250259999999969
                },
                {
                    "name": "G5",
                    "midi": 79,
                    "time": 162.2330340000005,
                    "velocity": 0.36220472440944884,
                    "duration": 0.5250259999999969
                },
                {
                    "name": "G3",
                    "midi": 55,
                    "time": 162.75806000000048,
                    "velocity": 0.1732283464566929,
                    "duration": 1.0500520000000222
                },
                {
                    "name": "E3",
                    "midi": 52,
                    "time": 162.75806000000048,
                    "velocity": 0.18110236220472442,
                    "duration": 0.26251300000001265
                },
                {
                    "name": "E4",
                    "midi": 64,
                    "time": 162.75806000000048,
                    "velocity": 0.18110236220472442,
                    "duration": 0.26251300000001265
                },
                {
                    "name": "D3",
                    "midi": 50,
                    "time": 163.0205730000005,
                    "velocity": 0.2440944881889764,
                    "duration": 0.5250259999999969
                },
                {
                    "name": "D4",
                    "midi": 62,
                    "time": 163.0205730000005,
                    "velocity": 0.2440944881889764,
                    "duration": 0.5250259999999969
                },
                {
                    "name": "C3",
                    "midi": 48,
                    "time": 163.5455990000005,
                    "velocity": 0.1968503937007874,
                    "duration": 0.26251300000001265
                },
                {
                    "name": "C4",
                    "midi": 60,
                    "time": 163.5455990000005,
                    "velocity": 0.1968503937007874,
                    "duration": 0.26251300000001265
                },
                {
                    "name": "B2",
                    "midi": 47,
                    "time": 163.8081120000005,
                    "velocity": 0.2125984251968504,
                    "duration": 0.5250259999999969
                },
                {
                    "name": "F#3",
                    "midi": 54,
                    "time": 163.8081120000005,
                    "velocity": 0.2125984251968504,
                    "duration": 0.5250259999999969
                },
                {
                    "name": "B3",
                    "midi": 59,
                    "time": 163.8081120000005,
                    "velocity": 0.2125984251968504,
                    "duration": 0.5250259999999969
                },
                {
                    "name": "F#5",
                    "midi": 78,
                    "time": 164.3331380000005,
                    "velocity": 0.36220472440944884,
                    "duration": 0.5250259999999969
                },
                {
                    "name": "F#3",
                    "midi": 54,
                    "time": 164.8581640000005,
                    "velocity": 0.1732283464566929,
                    "duration": 1.0500520000000222
                },
                {
                    "name": "D3",
                    "midi": 50,
                    "time": 164.8581640000005,
                    "velocity": 0.18110236220472442,
                    "duration": 0.26251300000001265
                },
                {
                    "name": "D4",
                    "midi": 62,
                    "time": 164.8581640000005,
                    "velocity": 0.18110236220472442,
                    "duration": 0.26251300000001265
                },
                {
                    "name": "C3",
                    "midi": 48,
                    "time": 165.1206770000005,
                    "velocity": 0.2440944881889764,
                    "duration": 0.5250259999999969
                },
                {
                    "name": "C4",
                    "midi": 60,
                    "time": 165.1206770000005,
                    "velocity": 0.2440944881889764,
                    "duration": 0.5250259999999969
                },
                {
                    "name": "B2",
                    "midi": 47,
                    "time": 165.6457030000005,
                    "velocity": 0.1968503937007874,
                    "duration": 0.26251300000001265
                },
                {
                    "name": "B3",
                    "midi": 59,
                    "time": 165.6457030000005,
                    "velocity": 0.1968503937007874,
                    "duration": 0.26251300000001265
                },
                {
                    "name": "A2",
                    "midi": 45,
                    "time": 165.90821600000052,
                    "velocity": 0.2047244094488189,
                    "duration": 0.5250259999999969
                },
                {
                    "name": "E3",
                    "midi": 52,
                    "time": 165.90821600000052,
                    "velocity": 0.2047244094488189,
                    "duration": 0.5250259999999969
                },
                {
                    "name": "A3",
                    "midi": 57,
                    "time": 165.90821600000052,
                    "velocity": 0.2047244094488189,
                    "duration": 0.5250259999999969
                },
                {
                    "name": "E5",
                    "midi": 76,
                    "time": 166.43324200000052,
                    "velocity": 0.3464566929133858,
                    "duration": 0.39376949999999056
                },
                {
                    "name": "A1",
                    "midi": 33,
                    "time": 166.8270115000005,
                    "velocity": 0.4409448818897638,
                    "duration": 1.1813085000000285
                },
                {
                    "name": "C4",
                    "midi": 60,
                    "time": 166.95826800000052,
                    "velocity": 0.4330708661417323,
                    "duration": 0.26251300000001265
                },
                {
                    "name": "B3",
                    "midi": 59,
                    "time": 167.22078100000053,
                    "velocity": 0.33070866141732286,
                    "duration": 0.5250259999999969
                },
                {
                    "name": "A3",
                    "midi": 57,
                    "time": 167.74580700000053,
                    "velocity": 0.29133858267716534,
                    "duration": 0.26251300000001265
                },
                {
                    "name": "D2",
                    "midi": 38,
                    "time": 168.00832000000054,
                    "velocity": 0.2755905511811024,
                    "duration": 0.5250259999999969
                },
                {
                    "name": "D3",
                    "midi": 50,
                    "time": 168.00832000000054,
                    "velocity": 0.2755905511811024,
                    "duration": 0.5250259999999969
                },
                {
                    "name": "D5",
                    "midi": 74,
                    "time": 168.53334600000053,
                    "velocity": 0.2992125984251969,
                    "duration": 0.5250259999999969
                },
                {
                    "name": "G2",
                    "midi": 43,
                    "time": 169.05837200000053,
                    "velocity": 0.2047244094488189,
                    "duration": 0.7875390000000095
                },
                {
                    "name": "D3",
                    "midi": 50,
                    "time": 169.05837200000053,
                    "velocity": 0.2047244094488189,
                    "duration": 0.7875390000000095
                },
                {
                    "name": "F#3",
                    "midi": 54,
                    "time": 169.78028275000054,
                    "velocity": 0.2125984251968504,
                    "duration": 4.528349250000048
                },
                {
                    "name": "D#4",
                    "midi": 63,
                    "time": 169.84591100000054,
                    "velocity": 0.2125984251968504,
                    "duration": 4.462721000000045
                },
                {
                    "name": "F#4",
                    "midi": 66,
                    "time": 169.91153925000054,
                    "velocity": 0.2125984251968504,
                    "duration": 4.397092750000041
                },
                {
                    "name": "B4",
                    "midi": 71,
                    "time": 171.15847600000055,
                    "velocity": 0.2283464566929134,
                    "duration": 0.26251300000001265
                },
                {
                    "name": "A#4",
                    "midi": 70,
                    "time": 171.42098900000056,
                    "velocity": 0.2283464566929134,
                    "duration": 0.5250259999999969
                },
                {
                    "name": "G#4",
                    "midi": 68,
                    "time": 171.94601500000056,
                    "velocity": 0.2125984251968504,
                    "duration": 0.26251300000001265
                },
                {
                    "name": "A#4",
                    "midi": 70,
                    "time": 172.20852800000057,
                    "velocity": 0.2125984251968504,
                    "duration": 1.0500519999999938
                },
                {
                    "name": "A#4",
                    "midi": 70,
                    "time": 173.25858000000056,
                    "velocity": 0.2283464566929134,
                    "duration": 0.26251300000001265
                },
                {
                    "name": "G#4",
                    "midi": 68,
                    "time": 173.52109300000058,
                    "velocity": 0.2283464566929134,
                    "duration": 0.5250259999999969
                },
                {
                    "name": "F#4",
                    "midi": 66,
                    "time": 174.04611900000057,
                    "velocity": 0.2125984251968504,
                    "duration": 0.26251300000001265
                },
                {
                    "name": "D#4",
                    "midi": 63,
                    "time": 174.30863200000059,
                    "velocity": 0.2283464566929134,
                    "duration": 1.0500519999999938
                },
                {
                    "name": "F#4",
                    "midi": 66,
                    "time": 174.30863200000059,
                    "velocity": 0.2283464566929134,
                    "duration": 1.0500519999999938
                },
                {
                    "name": "C#4",
                    "midi": 61,
                    "time": 175.35868400000058,
                    "velocity": 0.2677165354330709,
                    "duration": 1.0500519999999938
                },
                {
                    "name": "G#4",
                    "midi": 68,
                    "time": 175.35868400000058,
                    "velocity": 0.2677165354330709,
                    "duration": 1.0500519999999938
                },
                {
                    "name": "E4",
                    "midi": 64,
                    "time": 176.40873600000057,
                    "velocity": 0.2440944881889764,
                    "duration": 1.0500519999999938
                },
                {
                    "name": "F#3",
                    "midi": 54,
                    "time": 176.40873600000057,
                    "velocity": 0.2440944881889764,
                    "duration": 1.0500519999999938
                },
                {
                    "name": "E4",
                    "midi": 64,
                    "time": 177.45878800000057,
                    "velocity": 0.2440944881889764,
                    "duration": 0.26251300000001265
                },
                {
                    "name": "B3",
                    "midi": 59,
                    "time": 177.45878800000057,
                    "velocity": 0.1968503937007874,
                    "duration": 1.0500520000000222
                },
                {
                    "name": "D#4",
                    "midi": 63,
                    "time": 177.72130100000058,
                    "velocity": 0.2440944881889764,
                    "duration": 0.4593977499999937
                },
                {
                    "name": "D3",
                    "midi": 50,
                    "time": 178.18069875000057,
                    "velocity": 0.18110236220472442,
                    "duration": 4.528349250000048
                },
                {
                    "name": "B3",
                    "midi": 59,
                    "time": 178.24632700000058,
                    "velocity": 0.18110236220472442,
                    "duration": 4.462721000000045
                },
                {
                    "name": "D4",
                    "midi": 62,
                    "time": 178.31195525000058,
                    "velocity": 0.18110236220472442,
                    "duration": 4.397092750000041
                },
                {
                    "name": "G4",
                    "midi": 67,
                    "time": 179.55889200000058,
                    "velocity": 0.2283464566929134,
                    "duration": 0.26251300000001265
                },
                {
                    "name": "F#4",
                    "midi": 66,
                    "time": 179.8214050000006,
                    "velocity": 0.2283464566929134,
                    "duration": 0.5250259999999969
                },
                {
                    "name": "E4",
                    "midi": 64,
                    "time": 180.3464310000006,
                    "velocity": 0.2125984251968504,
                    "duration": 0.26251300000001265
                },
                {
                    "name": "F#4",
                    "midi": 66,
                    "time": 180.6089440000006,
                    "velocity": 0.2125984251968504,
                    "duration": 1.0500519999999938
                },
                {
                    "name": "F#4",
                    "midi": 66,
                    "time": 181.6589960000006,
                    "velocity": 0.2283464566929134,
                    "duration": 0.26251300000001265
                },
                {
                    "name": "E4",
                    "midi": 64,
                    "time": 181.9215090000006,
                    "velocity": 0.2283464566929134,
                    "duration": 0.5250259999999969
                },
                {
                    "name": "D4",
                    "midi": 62,
                    "time": 182.4465350000006,
                    "velocity": 0.2125984251968504,
                    "duration": 0.26251300000001265
                },
                {
                    "name": "B3",
                    "midi": 59,
                    "time": 182.70904800000062,
                    "velocity": 0.2125984251968504,
                    "duration": 1.0500519999999938
                },
                {
                    "name": "D4",
                    "midi": 62,
                    "time": 182.70904800000062,
                    "velocity": 0.2125984251968504,
                    "duration": 1.0500519999999938
                },
                {
                    "name": "A3",
                    "midi": 57,
                    "time": 183.75910000000061,
                    "velocity": 0.23622047244094488,
                    "duration": 1.0500519999999938
                },
                {
                    "name": "E4",
                    "midi": 64,
                    "time": 183.75910000000061,
                    "velocity": 0.23622047244094488,
                    "duration": 1.0500519999999938
                },
                {
                    "name": "C4",
                    "midi": 60,
                    "time": 184.8091520000006,
                    "velocity": 0.2283464566929134,
                    "duration": 1.0500519999999938
                },
                {
                    "name": "D3",
                    "midi": 50,
                    "time": 184.8091520000006,
                    "velocity": 0.2283464566929134,
                    "duration": 1.0500519999999938
                },
                {
                    "name": "B3",
                    "midi": 59,
                    "time": 185.8592040000006,
                    "velocity": 0.2283464566929134,
                    "duration": 0.26251300000001265
                },
                {
                    "name": "A3",
                    "midi": 57,
                    "time": 186.12171700000061,
                    "velocity": 0.2283464566929134,
                    "duration": 0.5250259999999969
                },
                {
                    "name": "F#3",
                    "midi": 54,
                    "time": 186.6467430000006,
                    "velocity": 0.2283464566929134,
                    "duration": 0.26251300000001265
                },
                {
                    "name": "G2",
                    "midi": 43,
                    "time": 186.90925600000062,
                    "velocity": 0.18110236220472442,
                    "duration": 0.5250259999999969
                },
                {
                    "name": "D3",
                    "midi": 50,
                    "time": 186.90925600000062,
                    "velocity": 0.18110236220472442,
                    "duration": 0.5250259999999969
                },
                {
                    "name": "D5",
                    "midi": 74,
                    "time": 187.43428200000062,
                    "velocity": 0.2677165354330709,
                    "duration": 0.5250259999999969
                },
                {
                    "name": "B3",
                    "midi": 59,
                    "time": 187.95930800000062,
                    "velocity": 0.2283464566929134,
                    "duration": 0.26251300000001265
                },
                {
                    "name": "G2",
                    "midi": 43,
                    "time": 187.95930800000062,
                    "velocity": 0.2047244094488189,
                    "duration": 1.0500520000000222
                },
                {
                    "name": "D3",
                    "midi": 50,
                    "time": 187.95930800000062,
                    "velocity": 0.2047244094488189,
                    "duration": 1.0500520000000222
                },
                {
                    "name": "A3",
                    "midi": 57,
                    "time": 188.22182100000063,
                    "velocity": 0.2755905511811024,
                    "duration": 0.5250259999999969
                },
                {
                    "name": "G3",
                    "midi": 55,
                    "time": 188.74684700000063,
                    "velocity": 0.2440944881889764,
                    "duration": 0.26251300000001265
                },
                {
                    "name": "G2",
                    "midi": 43,
                    "time": 189.00936000000064,
                    "velocity": 0.1732283464566929,
                    "duration": 0.5250259999999969
                },
                {
                    "name": "D3",
                    "midi": 50,
                    "time": 189.00936000000064,
                    "velocity": 0.1732283464566929,
                    "duration": 0.5250259999999969
                },
                {
                    "name": "F#3",
                    "midi": 54,
                    "time": 189.00936000000064,
                    "velocity": 0.1732283464566929,
                    "duration": 0.5250259999999969
                },
                {
                    "name": "D5",
                    "midi": 74,
                    "time": 189.53438600000064,
                    "velocity": 0.2755905511811024,
                    "duration": 0.5250259999999969
                },
                {
                    "name": "A3",
                    "midi": 57,
                    "time": 190.05941200000063,
                    "velocity": 0.2283464566929134,
                    "duration": 0.26251300000001265
                },
                {
                    "name": "G2",
                    "midi": 43,
                    "time": 190.05941200000063,
                    "velocity": 0.2047244094488189,
                    "duration": 1.0500520000000222
                },
                {
                    "name": "D3",
                    "midi": 50,
                    "time": 190.05941200000063,
                    "velocity": 0.2047244094488189,
                    "duration": 1.0500520000000222
                },
                {
                    "name": "G3",
                    "midi": 55,
                    "time": 190.32192500000065,
                    "velocity": 0.28346456692913385,
                    "duration": 0.5250259999999969
                },
                {
                    "name": "F#3",
                    "midi": 54,
                    "time": 190.84695100000064,
                    "velocity": 0.2440944881889764,
                    "duration": 0.26251300000001265
                },
                {
                    "name": "E3",
                    "midi": 52,
                    "time": 191.10946400000066,
                    "velocity": 0.1732283464566929,
                    "duration": 0.5250259999999969
                },
                {
                    "name": "G2",
                    "midi": 43,
                    "time": 191.10946400000066,
                    "velocity": 0.1732283464566929,
                    "duration": 0.5250259999999969
                },
                {
                    "name": "D3",
                    "midi": 50,
                    "time": 191.10946400000066,
                    "velocity": 0.1732283464566929,
                    "duration": 0.5250259999999969
                },
                {
                    "name": "D5",
                    "midi": 74,
                    "time": 191.63449000000065,
                    "velocity": 0.2755905511811024,
                    "duration": 0.39376949999999056
                },
                {
                    "name": "E2",
                    "midi": 40,
                    "time": 192.02825950000064,
                    "velocity": 0.23622047244094488,
                    "duration": 1.1813085000000285
                },
                {
                    "name": "G3",
                    "midi": 55,
                    "time": 192.15951600000065,
                    "velocity": 0.2677165354330709,
                    "duration": 0.26251300000001265
                },
                {
                    "name": "F#3",
                    "midi": 54,
                    "time": 192.42202900000066,
                    "velocity": 0.28346456692913385,
                    "duration": 0.5250259999999969
                },
                {
                    "name": "E3",
                    "midi": 52,
                    "time": 192.94705500000066,
                    "velocity": 0.2440944881889764,
                    "duration": 0.26251300000001265
                },
                {
                    "name": "A1",
                    "midi": 33,
                    "time": 193.20956800000067,
                    "velocity": 0.28346456692913385,
                    "duration": 0.5250259999999969
                },
                {
                    "name": "A2",
                    "midi": 45,
                    "time": 193.20956800000067,
                    "velocity": 0.28346456692913385,
                    "duration": 0.5250259999999969
                },
                {
                    "name": "A4",
                    "midi": 69,
                    "time": 193.73459400000067,
                    "velocity": 0.28346456692913385,
                    "duration": 0.5250259999999969
                },
                {
                    "name": "D2",
                    "midi": 38,
                    "time": 194.25962000000067,
                    "velocity": 0.33070866141732286,
                    "duration": 0.26251300000001265
                },
                {
                    "name": "A2",
                    "midi": 45,
                    "time": 194.25962000000067,
                    "velocity": 0.33070866141732286,
                    "duration": 0.26251300000001265
                },
                {
                    "name": "D4",
                    "midi": 62,
                    "time": 194.52213300000068,
                    "velocity": 0.36220472440944884,
                    "duration": 0.5250259999999969
                },
                {
                    "name": "D3",
                    "midi": 50,
                    "time": 194.52213300000068,
                    "velocity": 0.36220472440944884,
                    "duration": 0.5250259999999969
                },
                {
                    "name": "C#3",
                    "midi": 49,
                    "time": 195.04715900000068,
                    "velocity": 0.36220472440944884,
                    "duration": 0.26251300000001265
                },
                {
                    "name": "C#4",
                    "midi": 61,
                    "time": 195.04715900000068,
                    "velocity": 0.36220472440944884,
                    "duration": 0.26251300000001265
                },
                {
                    "name": "C3",
                    "midi": 48,
                    "time": 195.3096720000007,
                    "velocity": 0.2755905511811024,
                    "duration": 0.5250259999999969
                },
                {
                    "name": "G3",
                    "midi": 55,
                    "time": 195.3096720000007,
                    "velocity": 0.2755905511811024,
                    "duration": 0.5250259999999969
                },
                {
                    "name": "C4",
                    "midi": 60,
                    "time": 195.3096720000007,
                    "velocity": 0.2755905511811024,
                    "duration": 0.5250259999999969
                },
                {
                    "name": "G5",
                    "midi": 79,
                    "time": 195.83469800000069,
                    "velocity": 0.3700787401574803,
                    "duration": 0.5250259999999969
                },
                {
                    "name": "G3",
                    "midi": 55,
                    "time": 196.35972400000068,
                    "velocity": 0.1732283464566929,
                    "duration": 1.0500520000000222
                },
                {
                    "name": "E3",
                    "midi": 52,
                    "time": 196.35972400000068,
                    "velocity": 0.18110236220472442,
                    "duration": 0.26251300000001265
                },
                {
                    "name": "E4",
                    "midi": 64,
                    "time": 196.35972400000068,
                    "velocity": 0.18110236220472442,
                    "duration": 0.26251300000001265
                },
                {
                    "name": "D3",
                    "midi": 50,
                    "time": 196.6222370000007,
                    "velocity": 0.2440944881889764,
                    "duration": 0.5250259999999969
                },
                {
                    "name": "D4",
                    "midi": 62,
                    "time": 196.6222370000007,
                    "velocity": 0.2440944881889764,
                    "duration": 0.5250259999999969
                },
                {
                    "name": "C3",
                    "midi": 48,
                    "time": 197.1472630000007,
                    "velocity": 0.1968503937007874,
                    "duration": 0.26251300000001265
                },
                {
                    "name": "C4",
                    "midi": 60,
                    "time": 197.1472630000007,
                    "velocity": 0.1968503937007874,
                    "duration": 0.26251300000001265
                },
                {
                    "name": "B2",
                    "midi": 47,
                    "time": 197.4097760000007,
                    "velocity": 0.2125984251968504,
                    "duration": 0.5250259999999969
                },
                {
                    "name": "F#3",
                    "midi": 54,
                    "time": 197.4097760000007,
                    "velocity": 0.2125984251968504,
                    "duration": 0.5250259999999969
                },
                {
                    "name": "B3",
                    "midi": 59,
                    "time": 197.4097760000007,
                    "velocity": 0.2125984251968504,
                    "duration": 0.5250259999999969
                },
                {
                    "name": "F#5",
                    "midi": 78,
                    "time": 197.9348020000007,
                    "velocity": 0.36220472440944884,
                    "duration": 0.5250259999999969
                },
                {
                    "name": "F#3",
                    "midi": 54,
                    "time": 198.4598280000007,
                    "velocity": 0.1732283464566929,
                    "duration": 1.0500520000000222
                },
                {
                    "name": "D3",
                    "midi": 50,
                    "time": 198.4598280000007,
                    "velocity": 0.18110236220472442,
                    "duration": 0.26251300000001265
                },
                {
                    "name": "D4",
                    "midi": 62,
                    "time": 198.4598280000007,
                    "velocity": 0.18110236220472442,
                    "duration": 0.26251300000001265
                },
                {
                    "name": "C3",
                    "midi": 48,
                    "time": 198.7223410000007,
                    "velocity": 0.2440944881889764,
                    "duration": 0.5250259999999969
                },
                {
                    "name": "C4",
                    "midi": 60,
                    "time": 198.7223410000007,
                    "velocity": 0.2440944881889764,
                    "duration": 0.5250259999999969
                },
                {
                    "name": "B2",
                    "midi": 47,
                    "time": 199.2473670000007,
                    "velocity": 0.1968503937007874,
                    "duration": 0.26251300000001265
                },
                {
                    "name": "B3",
                    "midi": 59,
                    "time": 199.2473670000007,
                    "velocity": 0.1968503937007874,
                    "duration": 0.26251300000001265
                },
                {
                    "name": "A2",
                    "midi": 45,
                    "time": 199.50988000000072,
                    "velocity": 0.2047244094488189,
                    "duration": 0.5250259999999969
                },
                {
                    "name": "E3",
                    "midi": 52,
                    "time": 199.50988000000072,
                    "velocity": 0.2047244094488189,
                    "duration": 0.5250259999999969
                },
                {
                    "name": "A3",
                    "midi": 57,
                    "time": 199.50988000000072,
                    "velocity": 0.2047244094488189,
                    "duration": 0.5250259999999969
                },
                {
                    "name": "E5",
                    "midi": 76,
                    "time": 200.03490600000072,
                    "velocity": 0.33070866141732286,
                    "duration": 0.39376949999999056
                },
                {
                    "name": "A1",
                    "midi": 33,
                    "time": 200.4286755000007,
                    "velocity": 0.4409448818897638,
                    "duration": 1.1813085000000285
                },
                {
                    "name": "C4",
                    "midi": 60,
                    "time": 200.5599320000007,
                    "velocity": 0.4330708661417323,
                    "duration": 0.26251300000001265
                },
                {
                    "name": "B3",
                    "midi": 59,
                    "time": 200.82244500000073,
                    "velocity": 0.33070866141732286,
                    "duration": 0.5250259999999969
                },
                {
                    "name": "A3",
                    "midi": 57,
                    "time": 201.34747100000072,
                    "velocity": 0.29133858267716534,
                    "duration": 0.26251300000001265
                },
                {
                    "name": "D2",
                    "midi": 38,
                    "time": 201.60998400000074,
                    "velocity": 0.2755905511811024,
                    "duration": 0.5250259999999969
                },
                {
                    "name": "D3",
                    "midi": 50,
                    "time": 201.60998400000074,
                    "velocity": 0.2755905511811024,
                    "duration": 0.5250259999999969
                },
                {
                    "name": "D5",
                    "midi": 74,
                    "time": 202.13501000000073,
                    "velocity": 0.2755905511811024,
                    "duration": 0.5250259999999969
                },
                {
                    "name": "G2",
                    "midi": 43,
                    "time": 202.66003600000073,
                    "velocity": 0.2047244094488189,
                    "duration": 0.7875390000000095
                },
                {
                    "name": "D3",
                    "midi": 50,
                    "time": 202.66003600000073,
                    "velocity": 0.2047244094488189,
                    "duration": 0.7875390000000095
                },
                {
                    "name": "D2",
                    "midi": 38,
                    "time": 203.71008800000075,
                    "velocity": 0.28346456692913385,
                    "duration": 0.26251300000001265
                },
                {
                    "name": "A2",
                    "midi": 45,
                    "time": 203.71008800000075,
                    "velocity": 0.28346456692913385,
                    "duration": 0.26251300000001265
                },
                {
                    "name": "D2",
                    "midi": 38,
                    "time": 205.28516600000077,
                    "velocity": 0.2440944881889764,
                    "duration": 0.26251300000001265
                },
                {
                    "name": "A2",
                    "midi": 45,
                    "time": 205.28516600000077,
                    "velocity": 0.2440944881889764,
                    "duration": 0.26251300000001265
                },
                {
                    "name": "D2",
                    "midi": 38,
                    "time": 205.54767900000078,
                    "velocity": 0.2440944881889764,
                    "duration": 0.26251300000001265
                },
                {
                    "name": "A2",
                    "midi": 45,
                    "time": 205.54767900000078,
                    "velocity": 0.2440944881889764,
                    "duration": 0.26251300000001265
                },
                {
                    "name": "D2",
                    "midi": 38,
                    "time": 205.8101920000008,
                    "velocity": 0.28346456692913385,
                    "duration": 0.26251300000001265
                },
                {
                    "name": "A2",
                    "midi": 45,
                    "time": 205.8101920000008,
                    "velocity": 0.28346456692913385,
                    "duration": 0.26251300000001265
                },
                {
                    "name": "D2",
                    "midi": 38,
                    "time": 207.38527000000082,
                    "velocity": 0.2440944881889764,
                    "duration": 0.26251300000001265
                },
                {
                    "name": "A2",
                    "midi": 45,
                    "time": 207.38527000000082,
                    "velocity": 0.2440944881889764,
                    "duration": 0.26251300000001265
                },
                {
                    "name": "D2",
                    "midi": 38,
                    "time": 207.64778300000083,
                    "velocity": 0.2440944881889764,
                    "duration": 0.26251300000001265
                },
                {
                    "name": "A2",
                    "midi": 45,
                    "time": 207.64778300000083,
                    "velocity": 0.2440944881889764,
                    "duration": 0.26251300000001265
                },
                {
                    "name": "D2",
                    "midi": 38,
                    "time": 207.91029600000084,
                    "velocity": 0.2755905511811024,
                    "duration": 0.26251300000001265
                },
                {
                    "name": "A2",
                    "midi": 45,
                    "time": 207.91029600000084,
                    "velocity": 0.2755905511811024,
                    "duration": 0.26251300000001265
                },
                {
                    "name": "D3",
                    "midi": 50,
                    "time": 208.43532200000087,
                    "velocity": 0.2440944881889764,
                    "duration": 0.06562825000000316
                },
                {
                    "name": "A3",
                    "midi": 57,
                    "time": 208.43532200000087,
                    "velocity": 0.2440944881889764,
                    "duration": 0.06562825000000316
                },
                {
                    "name": "D3",
                    "midi": 50,
                    "time": 208.69783500000088,
                    "velocity": 0.2440944881889764,
                    "duration": 0.06562825000000316
                },
                {
                    "name": "A3",
                    "midi": 57,
                    "time": 208.69783500000088,
                    "velocity": 0.2440944881889764,
                    "duration": 0.06562825000000316
                },
                {
                    "name": "A3",
                    "midi": 57,
                    "time": 208.9603480000009,
                    "velocity": 0.2755905511811024,
                    "duration": 0.26251300000001265
                },
                {
                    "name": "D3",
                    "midi": 50,
                    "time": 208.9603480000009,
                    "velocity": 0.2755905511811024,
                    "duration": 0.26251300000001265
                },
                {
                    "name": "D2",
                    "midi": 38,
                    "time": 209.48537400000092,
                    "velocity": 0.2440944881889764,
                    "duration": 0.06562825000000316
                },
                {
                    "name": "A2",
                    "midi": 45,
                    "time": 209.48537400000092,
                    "velocity": 0.2440944881889764,
                    "duration": 0.06562825000000316
                },
                {
                    "name": "D2",
                    "midi": 38,
                    "time": 209.74788700000093,
                    "velocity": 0.2440944881889764,
                    "duration": 0.06562825000000316
                },
                {
                    "name": "A2",
                    "midi": 45,
                    "time": 209.74788700000093,
                    "velocity": 0.2440944881889764,
                    "duration": 0.06562825000000316
                },
                {
                    "name": "D2",
                    "midi": 38,
                    "time": 210.01040000000094,
                    "velocity": 0.2755905511811024,
                    "duration": 0.5250259999999969
                },
                {
                    "name": "A2",
                    "midi": 45,
                    "time": 210.01040000000094,
                    "velocity": 0.2755905511811024,
                    "duration": 0.5250259999999969
                },
                {
                    "name": "D3",
                    "midi": 50,
                    "time": 210.53542600000094,
                    "velocity": 0.25984251968503935,
                    "duration": 0.26251300000001265
                },
                {
                    "name": "A3",
                    "midi": 57,
                    "time": 210.53542600000094,
                    "velocity": 0.25984251968503935,
                    "duration": 0.26251300000001265
                },
                {
                    "name": "D3",
                    "midi": 50,
                    "time": 210.92919550000096,
                    "velocity": 0.25984251968503935,
                    "duration": 0.13125650000000633
                },
                {
                    "name": "A3",
                    "midi": 57,
                    "time": 210.92919550000096,
                    "velocity": 0.25984251968503935,
                    "duration": 0.13125650000000633
                },
                {
                    "name": "D3",
                    "midi": 50,
                    "time": 211.06045200000096,
                    "velocity": 0.25984251968503935,
                    "duration": 0.5250259999999969
                },
                {
                    "name": "A3",
                    "midi": 57,
                    "time": 211.06045200000096,
                    "velocity": 0.25984251968503935,
                    "duration": 0.5250259999999969
                },
                {
                    "name": "B1",
                    "midi": 35,
                    "time": 212.11050400000096,
                    "velocity": 0.2677165354330709,
                    "duration": 0.5250259999999969
                },
                {
                    "name": "F#2",
                    "midi": 42,
                    "time": 212.11050400000096,
                    "velocity": 0.2677165354330709,
                    "duration": 0.5250259999999969
                },
                {
                    "name": "B2",
                    "midi": 47,
                    "time": 212.63553000000095,
                    "velocity": 0.2440944881889764,
                    "duration": 0.06562825000000316
                },
                {
                    "name": "F#3",
                    "midi": 54,
                    "time": 212.63553000000095,
                    "velocity": 0.2440944881889764,
                    "duration": 0.06562825000000316
                },
                {
                    "name": "B2",
                    "midi": 47,
                    "time": 212.89804300000097,
                    "velocity": 0.2440944881889764,
                    "duration": 0.06562825000000316
                },
                {
                    "name": "F#3",
                    "midi": 54,
                    "time": 212.89804300000097,
                    "velocity": 0.2440944881889764,
                    "duration": 0.06562825000000316
                },
                {
                    "name": "E2",
                    "midi": 40,
                    "time": 213.16055600000098,
                    "velocity": 0.2677165354330709,
                    "duration": 0.5250259999999969
                },
                {
                    "name": "B2",
                    "midi": 47,
                    "time": 213.16055600000098,
                    "velocity": 0.2677165354330709,
                    "duration": 0.5250259999999969
                },
                {
                    "name": "E3",
                    "midi": 52,
                    "time": 213.68558200000098,
                    "velocity": 0.2440944881889764,
                    "duration": 0.06562825000000316
                },
                {
                    "name": "B3",
                    "midi": 59,
                    "time": 213.68558200000098,
                    "velocity": 0.2440944881889764,
                    "duration": 0.06562825000000316
                },
                {
                    "name": "E3",
                    "midi": 52,
                    "time": 213.948095000001,
                    "velocity": 0.2440944881889764,
                    "duration": 0.06562825000000316
                },
                {
                    "name": "B3",
                    "midi": 59,
                    "time": 213.948095000001,
                    "velocity": 0.2440944881889764,
                    "duration": 0.06562825000000316
                },
                {
                    "name": "A1",
                    "midi": 33,
                    "time": 214.210608000001,
                    "velocity": 0.2755905511811024,
                    "duration": 0.5250259999999969
                },
                {
                    "name": "E2",
                    "midi": 40,
                    "time": 214.210608000001,
                    "velocity": 0.2755905511811024,
                    "duration": 0.5250259999999969
                },
                {
                    "name": "E4",
                    "midi": 64,
                    "time": 214.735634000001,
                    "velocity": 0.25984251968503935,
                    "duration": 0.26251300000001265
                },
                {
                    "name": "A3",
                    "midi": 57,
                    "time": 214.735634000001,
                    "velocity": 0.25984251968503935,
                    "duration": 0.26251300000001265
                },
                {
                    "name": "E4",
                    "midi": 64,
                    "time": 215.12940350000102,
                    "velocity": 0.25984251968503935,
                    "duration": 0.13125650000000633
                },
                {
                    "name": "A3",
                    "midi": 57,
                    "time": 215.12940350000102,
                    "velocity": 0.25984251968503935,
                    "duration": 0.13125650000000633
                },
                {
                    "name": "E4",
                    "midi": 64,
                    "time": 215.26066000000102,
                    "velocity": 0.25984251968503935,
                    "duration": 0.26251300000001265
                },
                {
                    "name": "A3",
                    "midi": 57,
                    "time": 215.26066000000102,
                    "velocity": 0.25984251968503935,
                    "duration": 0.26251300000001265
                },
                {
                    "name": "G2",
                    "midi": 43,
                    "time": 216.31071200000105,
                    "velocity": 0.30708661417322836,
                    "duration": 0.5250259999999969
                },
                {
                    "name": "D3",
                    "midi": 50,
                    "time": 216.31071200000105,
                    "velocity": 0.30708661417322836,
                    "duration": 0.5250259999999969
                },
                {
                    "name": "D4",
                    "midi": 62,
                    "time": 216.83573800000104,
                    "velocity": 0.2992125984251969,
                    "duration": 0.06562825000000316
                },
                {
                    "name": "G3",
                    "midi": 55,
                    "time": 216.83573800000104,
                    "velocity": 0.2992125984251969,
                    "duration": 0.06562825000000316
                },
                {
                    "name": "D4",
                    "midi": 62,
                    "time": 217.09825100000106,
                    "velocity": 0.2992125984251969,
                    "duration": 0.06562825000000316
                },
                {
                    "name": "G3",
                    "midi": 55,
                    "time": 217.09825100000106,
                    "velocity": 0.2992125984251969,
                    "duration": 0.06562825000000316
                },
                {
                    "name": "G3",
                    "midi": 55,
                    "time": 217.36076400000107,
                    "velocity": 0.3228346456692913,
                    "duration": 0.5250259999999969
                },
                {
                    "name": "D4",
                    "midi": 62,
                    "time": 217.36076400000107,
                    "velocity": 0.3228346456692913,
                    "duration": 0.5250259999999969
                },
                {
                    "name": "E2",
                    "midi": 40,
                    "time": 218.41081600000106,
                    "velocity": 0.28346456692913385,
                    "duration": 0.5250259999999969
                },
                {
                    "name": "B2",
                    "midi": 47,
                    "time": 218.41081600000106,
                    "velocity": 0.28346456692913385,
                    "duration": 0.5250259999999969
                },
                {
                    "name": "B3",
                    "midi": 59,
                    "time": 218.93584200000106,
                    "velocity": 0.2677165354330709,
                    "duration": 0.26251300000001265
                },
                {
                    "name": "E3",
                    "midi": 52,
                    "time": 218.93584200000106,
                    "velocity": 0.2677165354330709,
                    "duration": 0.26251300000001265
                },
                {
                    "name": "B3",
                    "midi": 59,
                    "time": 219.32961150000108,
                    "velocity": 0.2677165354330709,
                    "duration": 0.13125650000000633
                },
                {
                    "name": "E3",
                    "midi": 52,
                    "time": 219.32961150000108,
                    "velocity": 0.2677165354330709,
                    "duration": 0.13125650000000633
                },
                {
                    "name": "E3",
                    "midi": 52,
                    "time": 219.46086800000108,
                    "velocity": 0.28346456692913385,
                    "duration": 0.5250259999999969
                },
                {
                    "name": "B3",
                    "midi": 59,
                    "time": 219.46086800000108,
                    "velocity": 0.28346456692913385,
                    "duration": 0.5250259999999969
                },
                {
                    "name": "A2",
                    "midi": 45,
                    "time": 220.51092000000108,
                    "velocity": 0.30708661417322836,
                    "duration": 0.5250259999999969
                },
                {
                    "name": "E3",
                    "midi": 52,
                    "time": 220.51092000000108,
                    "velocity": 0.30708661417322836,
                    "duration": 0.5250259999999969
                },
                {
                    "name": "E4",
                    "midi": 64,
                    "time": 221.03594600000108,
                    "velocity": 0.28346456692913385,
                    "duration": 0.06562825000000316
                },
                {
                    "name": "A3",
                    "midi": 57,
                    "time": 221.03594600000108,
                    "velocity": 0.28346456692913385,
                    "duration": 0.06562825000000316
                },
                {
                    "name": "E4",
                    "midi": 64,
                    "time": 221.2984590000011,
                    "velocity": 0.28346456692913385,
                    "duration": 0.06562825000000316
                },
                {
                    "name": "A3",
                    "midi": 57,
                    "time": 221.2984590000011,
                    "velocity": 0.28346456692913385,
                    "duration": 0.06562825000000316
                },
                {
                    "name": "A3",
                    "midi": 57,
                    "time": 221.5609720000011,
                    "velocity": 0.30708661417322836,
                    "duration": 0.5250259999999969
                },
                {
                    "name": "E4",
                    "midi": 64,
                    "time": 221.5609720000011,
                    "velocity": 0.30708661417322836,
                    "duration": 0.5250259999999969
                },
                {
                    "name": "D2",
                    "midi": 38,
                    "time": 222.6110240000011,
                    "velocity": 0.30708661417322836,
                    "duration": 0.5250259999999969
                },
                {
                    "name": "A2",
                    "midi": 45,
                    "time": 222.6110240000011,
                    "velocity": 0.30708661417322836,
                    "duration": 0.5250259999999969
                },
                {
                    "name": "A4",
                    "midi": 69,
                    "time": 223.1360500000011,
                    "velocity": 0.28346456692913385,
                    "duration": 0.26251300000001265
                },
                {
                    "name": "D4",
                    "midi": 62,
                    "time": 223.1360500000011,
                    "velocity": 0.28346456692913385,
                    "duration": 0.26251300000001265
                },
                {
                    "name": "A4",
                    "midi": 69,
                    "time": 223.5298195000011,
                    "velocity": 0.28346456692913385,
                    "duration": 0.13125650000000633
                },
                {
                    "name": "D4",
                    "midi": 62,
                    "time": 223.5298195000011,
                    "velocity": 0.28346456692913385,
                    "duration": 0.13125650000000633
                },
                {
                    "name": "A4",
                    "midi": 69,
                    "time": 223.66107600000112,
                    "velocity": 0.28346456692913385,
                    "duration": 0.5250259999999969
                },
                {
                    "name": "D4",
                    "midi": 62,
                    "time": 223.66107600000112,
                    "velocity": 0.28346456692913385,
                    "duration": 0.5250259999999969
                },
                {
                    "name": "D3",
                    "midi": 50,
                    "time": 224.1861020000011,
                    "velocity": 0.2125984251968504,
                    "duration": 0.26251300000001265
                },
                {
                    "name": "A3",
                    "midi": 57,
                    "time": 224.1861020000011,
                    "velocity": 0.2125984251968504,
                    "duration": 0.26251300000001265
                },
                {
                    "name": "D3",
                    "midi": 50,
                    "time": 224.44861500000113,
                    "velocity": 0.2125984251968504,
                    "duration": 0.26251300000001265
                },
                {
                    "name": "A3",
                    "midi": 57,
                    "time": 224.44861500000113,
                    "velocity": 0.2125984251968504,
                    "duration": 0.26251300000001265
                },
                {
                    "name": "D3",
                    "midi": 50,
                    "time": 224.71112800000114,
                    "velocity": 0.2440944881889764,
                    "duration": 0.26251300000001265
                },
                {
                    "name": "A3",
                    "midi": 57,
                    "time": 224.71112800000114,
                    "velocity": 0.2440944881889764,
                    "duration": 0.26251300000001265
                },
                {
                    "name": "D3",
                    "midi": 50,
                    "time": 226.28620600000116,
                    "velocity": 0.2125984251968504,
                    "duration": 0.26251300000001265
                },
                {
                    "name": "A3",
                    "midi": 57,
                    "time": 226.28620600000116,
                    "velocity": 0.2125984251968504,
                    "duration": 0.26251300000001265
                },
                {
                    "name": "D3",
                    "midi": 50,
                    "time": 226.54871900000117,
                    "velocity": 0.2125984251968504,
                    "duration": 0.26251300000001265
                },
                {
                    "name": "A3",
                    "midi": 57,
                    "time": 226.54871900000117,
                    "velocity": 0.2125984251968504,
                    "duration": 0.26251300000001265
                },
                {
                    "name": "D3",
                    "midi": 50,
                    "time": 226.81123200000118,
                    "velocity": 0.23622047244094488,
                    "duration": 0.26251300000001265
                },
                {
                    "name": "A3",
                    "midi": 57,
                    "time": 226.81123200000118,
                    "velocity": 0.23622047244094488,
                    "duration": 0.26251300000001265
                },
                {
                    "name": "D3",
                    "midi": 50,
                    "time": 228.3863100000012,
                    "velocity": 0.2125984251968504,
                    "duration": 0.26251300000001265
                },
                {
                    "name": "A3",
                    "midi": 57,
                    "time": 228.3863100000012,
                    "velocity": 0.2125984251968504,
                    "duration": 0.26251300000001265
                },
                {
                    "name": "D3",
                    "midi": 50,
                    "time": 228.64882300000122,
                    "velocity": 0.2125984251968504,
                    "duration": 0.26251300000001265
                },
                {
                    "name": "A3",
                    "midi": 57,
                    "time": 228.64882300000122,
                    "velocity": 0.2125984251968504,
                    "duration": 0.26251300000001265
                },
                {
                    "name": "D3",
                    "midi": 50,
                    "time": 228.91133600000123,
                    "velocity": 0.2440944881889764,
                    "duration": 0.26251300000001265
                },
                {
                    "name": "A3",
                    "midi": 57,
                    "time": 228.91133600000123,
                    "velocity": 0.2440944881889764,
                    "duration": 0.26251300000001265
                },
                {
                    "name": "D4",
                    "midi": 62,
                    "time": 229.43636200000125,
                    "velocity": 0.2125984251968504,
                    "duration": 0.06562825000000316
                },
                {
                    "name": "A4",
                    "midi": 69,
                    "time": 229.43636200000125,
                    "velocity": 0.2125984251968504,
                    "duration": 0.06562825000000316
                },
                {
                    "name": "D4",
                    "midi": 62,
                    "time": 229.69887500000127,
                    "velocity": 0.2125984251968504,
                    "duration": 0.06562825000000316
                },
                {
                    "name": "A4",
                    "midi": 69,
                    "time": 229.69887500000127,
                    "velocity": 0.2125984251968504,
                    "duration": 0.06562825000000316
                },
                {
                    "name": "A4",
                    "midi": 69,
                    "time": 229.96138800000128,
                    "velocity": 0.2440944881889764,
                    "duration": 0.26251300000001265
                },
                {
                    "name": "D4",
                    "midi": 62,
                    "time": 229.96138800000128,
                    "velocity": 0.2440944881889764,
                    "duration": 0.26251300000001265
                },
                {
                    "name": "D3",
                    "midi": 50,
                    "time": 230.4864140000013,
                    "velocity": 0.2125984251968504,
                    "duration": 0.06562825000000316
                },
                {
                    "name": "A3",
                    "midi": 57,
                    "time": 230.4864140000013,
                    "velocity": 0.2125984251968504,
                    "duration": 0.06562825000000316
                },
                {
                    "name": "D3",
                    "midi": 50,
                    "time": 230.74892700000132,
                    "velocity": 0.2125984251968504,
                    "duration": 0.06562825000000316
                },
                {
                    "name": "A3",
                    "midi": 57,
                    "time": 230.74892700000132,
                    "velocity": 0.2125984251968504,
                    "duration": 0.06562825000000316
                },
                {
                    "name": "D3",
                    "midi": 50,
                    "time": 231.01144000000133,
                    "velocity": 0.2440944881889764,
                    "duration": 0.5250259999999969
                },
                {
                    "name": "A3",
                    "midi": 57,
                    "time": 231.01144000000133,
                    "velocity": 0.2440944881889764,
                    "duration": 0.5250259999999969
                },
                {
                    "name": "D4",
                    "midi": 62,
                    "time": 231.53646600000133,
                    "velocity": 0.23622047244094488,
                    "duration": 0.26251300000001265
                },
                {
                    "name": "A4",
                    "midi": 69,
                    "time": 231.53646600000133,
                    "velocity": 0.23622047244094488,
                    "duration": 0.26251300000001265
                },
                {
                    "name": "D4",
                    "midi": 62,
                    "time": 231.93023550000134,
                    "velocity": 0.23622047244094488,
                    "duration": 0.13125650000000633
                },
                {
                    "name": "A4",
                    "midi": 69,
                    "time": 231.93023550000134,
                    "velocity": 0.23622047244094488,
                    "duration": 0.13125650000000633
                },
                {
                    "name": "D4",
                    "midi": 62,
                    "time": 232.06149200000135,
                    "velocity": 0.23622047244094488,
                    "duration": 0.5250259999999969
                },
                {
                    "name": "A4",
                    "midi": 69,
                    "time": 232.06149200000135,
                    "velocity": 0.23622047244094488,
                    "duration": 0.5250259999999969
                },
                {
                    "name": "B2",
                    "midi": 47,
                    "time": 233.11154400000135,
                    "velocity": 0.23622047244094488,
                    "duration": 0.5250259999999969
                },
                {
                    "name": "F#3",
                    "midi": 54,
                    "time": 233.11154400000135,
                    "velocity": 0.23622047244094488,
                    "duration": 0.5250259999999969
                },
                {
                    "name": "B3",
                    "midi": 59,
                    "time": 233.63657000000134,
                    "velocity": 0.2125984251968504,
                    "duration": 0.06562825000000316
                },
                {
                    "name": "F#4",
                    "midi": 66,
                    "time": 233.63657000000134,
                    "velocity": 0.2125984251968504,
                    "duration": 0.06562825000000316
                },
                {
                    "name": "B3",
                    "midi": 59,
                    "time": 233.89908300000135,
                    "velocity": 0.2125984251968504,
                    "duration": 0.06562825000000316
                },
                {
                    "name": "F#4",
                    "midi": 66,
                    "time": 233.89908300000135,
                    "velocity": 0.2125984251968504,
                    "duration": 0.06562825000000316
                },
                {
                    "name": "E3",
                    "midi": 52,
                    "time": 234.16159600000137,
                    "velocity": 0.23622047244094488,
                    "duration": 0.5250259999999969
                },
                {
                    "name": "B3",
                    "midi": 59,
                    "time": 234.16159600000137,
                    "velocity": 0.23622047244094488,
                    "duration": 0.5250259999999969
                },
                {
                    "name": "E4",
                    "midi": 64,
                    "time": 234.68662200000136,
                    "velocity": 0.2125984251968504,
                    "duration": 0.06562825000000316
                },
                {
                    "name": "B4",
                    "midi": 71,
                    "time": 234.68662200000136,
                    "velocity": 0.2125984251968504,
                    "duration": 0.06562825000000316
                },
                {
                    "name": "E4",
                    "midi": 64,
                    "time": 234.94913500000138,
                    "velocity": 0.2125984251968504,
                    "duration": 0.06562825000000316
                },
                {
                    "name": "B4",
                    "midi": 71,
                    "time": 234.94913500000138,
                    "velocity": 0.2125984251968504,
                    "duration": 0.06562825000000316
                },
                {
                    "name": "A3",
                    "midi": 57,
                    "time": 235.2116480000014,
                    "velocity": 0.23622047244094488,
                    "duration": 0.5250259999999969
                },
                {
                    "name": "E4",
                    "midi": 64,
                    "time": 235.2116480000014,
                    "velocity": 0.23622047244094488,
                    "duration": 0.5250259999999969
                },
                {
                    "name": "E5",
                    "midi": 76,
                    "time": 235.7366740000014,
                    "velocity": 0.2204724409448819,
                    "duration": 0.26251300000001265
                },
                {
                    "name": "A4",
                    "midi": 69,
                    "time": 235.7366740000014,
                    "velocity": 0.2204724409448819,
                    "duration": 0.26251300000001265
                },
                {
                    "name": "E5",
                    "midi": 76,
                    "time": 236.1304435000014,
                    "velocity": 0.2204724409448819,
                    "duration": 0.13125650000000633
                },
                {
                    "name": "A4",
                    "midi": 69,
                    "time": 236.1304435000014,
                    "velocity": 0.2204724409448819,
                    "duration": 0.13125650000000633
                },
                {
                    "name": "E5",
                    "midi": 76,
                    "time": 236.2617000000014,
                    "velocity": 0.2204724409448819,
                    "duration": 0.26251300000001265
                },
                {
                    "name": "A4",
                    "midi": 69,
                    "time": 236.2617000000014,
                    "velocity": 0.2204724409448819,
                    "duration": 0.26251300000001265
                },
                {
                    "name": "G3",
                    "midi": 55,
                    "time": 237.31175200000143,
                    "velocity": 0.2755905511811024,
                    "duration": 0.5250259999999969
                },
                {
                    "name": "D4",
                    "midi": 62,
                    "time": 237.31175200000143,
                    "velocity": 0.2755905511811024,
                    "duration": 0.5250259999999969
                },
                {
                    "name": "D5",
                    "midi": 74,
                    "time": 237.83677800000143,
                    "velocity": 0.25984251968503935,
                    "duration": 0.06562825000000316
                },
                {
                    "name": "G4",
                    "midi": 67,
                    "time": 237.83677800000143,
                    "velocity": 0.25984251968503935,
                    "duration": 0.06562825000000316
                },
                {
                    "name": "D5",
                    "midi": 74,
                    "time": 238.09929100000144,
                    "velocity": 0.25984251968503935,
                    "duration": 0.06562825000000316
                },
                {
                    "name": "G4",
                    "midi": 67,
                    "time": 238.09929100000144,
                    "velocity": 0.25984251968503935,
                    "duration": 0.06562825000000316
                },
                {
                    "name": "G4",
                    "midi": 67,
                    "time": 238.36180400000146,
                    "velocity": 0.28346456692913385,
                    "duration": 0.5250259999999969
                },
                {
                    "name": "D5",
                    "midi": 74,
                    "time": 238.36180400000146,
                    "velocity": 0.28346456692913385,
                    "duration": 0.5250259999999969
                },
                {
                    "name": "E3",
                    "midi": 52,
                    "time": 239.41185600000145,
                    "velocity": 0.25984251968503935,
                    "duration": 0.5250259999999969
                },
                {
                    "name": "B3",
                    "midi": 59,
                    "time": 239.41185600000145,
                    "velocity": 0.25984251968503935,
                    "duration": 0.5250259999999969
                },
                {
                    "name": "B4",
                    "midi": 71,
                    "time": 239.93688200000145,
                    "velocity": 0.2283464566929134,
                    "duration": 0.26251300000001265
                },
                {
                    "name": "E4",
                    "midi": 64,
                    "time": 239.93688200000145,
                    "velocity": 0.2283464566929134,
                    "duration": 0.26251300000001265
                },
                {
                    "name": "B4",
                    "midi": 71,
                    "time": 240.33065150000147,
                    "velocity": 0.2283464566929134,
                    "duration": 0.13125650000000633
                },
                {
                    "name": "E4",
                    "midi": 64,
                    "time": 240.33065150000147,
                    "velocity": 0.2283464566929134,
                    "duration": 0.13125650000000633
                },
                {
                    "name": "E4",
                    "midi": 64,
                    "time": 240.46190800000147,
                    "velocity": 0.25984251968503935,
                    "duration": 0.5250259999999969
                },
                {
                    "name": "B4",
                    "midi": 71,
                    "time": 240.46190800000147,
                    "velocity": 0.25984251968503935,
                    "duration": 0.5250259999999969
                },
                {
                    "name": "A3",
                    "midi": 57,
                    "time": 241.51196000000147,
                    "velocity": 0.2677165354330709,
                    "duration": 0.5250259999999969
                },
                {
                    "name": "E4",
                    "midi": 64,
                    "time": 241.51196000000147,
                    "velocity": 0.2677165354330709,
                    "duration": 0.5250259999999969
                },
                {
                    "name": "E5",
                    "midi": 76,
                    "time": 242.03698600000146,
                    "velocity": 0.25984251968503935,
                    "duration": 0.06562825000000316
                },
                {
                    "name": "A4",
                    "midi": 69,
                    "time": 242.03698600000146,
                    "velocity": 0.25984251968503935,
                    "duration": 0.06562825000000316
                },
                {
                    "name": "E5",
                    "midi": 76,
                    "time": 242.29949900000148,
                    "velocity": 0.25984251968503935,
                    "duration": 0.06562825000000316
                },
                {
                    "name": "A4",
                    "midi": 69,
                    "time": 242.29949900000148,
                    "velocity": 0.25984251968503935,
                    "duration": 0.06562825000000316
                },
                {
                    "name": "A4",
                    "midi": 69,
                    "time": 242.5620120000015,
                    "velocity": 0.2755905511811024,
                    "duration": 0.5250259999999969
                },
                {
                    "name": "E5",
                    "midi": 76,
                    "time": 242.5620120000015,
                    "velocity": 0.2755905511811024,
                    "duration": 0.5250259999999969
                },
                {
                    "name": "D4",
                    "midi": 62,
                    "time": 243.61206400000148,
                    "velocity": 0.2677165354330709,
                    "duration": 0.5250259999999969
                },
                {
                    "name": "A4",
                    "midi": 69,
                    "time": 243.61206400000148,
                    "velocity": 0.2677165354330709,
                    "duration": 0.5250259999999969
                },
                {
                    "name": "A5",
                    "midi": 81,
                    "time": 244.13709000000148,
                    "velocity": 0.25984251968503935,
                    "duration": 0.26251300000001265
                },
                {
                    "name": "D5",
                    "midi": 74,
                    "time": 244.13709000000148,
                    "velocity": 0.25984251968503935,
                    "duration": 0.26251300000001265
                },
                {
                    "name": "A5",
                    "midi": 81,
                    "time": 244.5308595000015,
                    "velocity": 0.25984251968503935,
                    "duration": 0.13125650000000633
                },
                {
                    "name": "D5",
                    "midi": 74,
                    "time": 244.5308595000015,
                    "velocity": 0.25984251968503935,
                    "duration": 0.13125650000000633
                },
                {
                    "name": "A5",
                    "midi": 81,
                    "time": 244.6621160000015,
                    "velocity": 0.25984251968503935,
                    "duration": 0.5250259999999969
                },
                {
                    "name": "D5",
                    "midi": 74,
                    "time": 244.6621160000015,
                    "velocity": 0.25984251968503935,
                    "duration": 0.5250259999999969
                },
                {
                    "name": "A2",
                    "midi": 45,
                    "time": 245.7121680000015,
                    "velocity": 0.6299212598425197,
                    "duration": 0.5250259999999969
                },
                {
                    "name": "E3",
                    "midi": 52,
                    "time": 245.7121680000015,
                    "velocity": 0.6299212598425197,
                    "duration": 0.5250259999999969
                },
                {
                    "name": "A2",
                    "midi": 45,
                    "time": 246.2371940000015,
                    "velocity": 0.5669291338582677,
                    "duration": 0.13125650000000633
                },
                {
                    "name": "E3",
                    "midi": 52,
                    "time": 246.2371940000015,
                    "velocity": 0.5669291338582677,
                    "duration": 0.13125650000000633
                },
                {
                    "name": "E3",
                    "midi": 52,
                    "time": 246.4997070000015,
                    "velocity": 0.5669291338582677,
                    "duration": 0.13125650000000633
                },
                {
                    "name": "A2",
                    "midi": 45,
                    "time": 246.4997070000015,
                    "velocity": 0.5669291338582677,
                    "duration": 0.13125650000000633
                },
                {
                    "name": "A2",
                    "midi": 45,
                    "time": 246.76222000000152,
                    "velocity": 0.6299212598425197,
                    "duration": 0.5250259999999969
                },
                {
                    "name": "E3",
                    "midi": 52,
                    "time": 246.76222000000152,
                    "velocity": 0.6299212598425197,
                    "duration": 0.5250259999999969
                },
                {
                    "name": "A2",
                    "midi": 45,
                    "time": 247.28724600000152,
                    "velocity": 0.5669291338582677,
                    "duration": 0.13125650000000633
                },
                {
                    "name": "E3",
                    "midi": 52,
                    "time": 247.28724600000152,
                    "velocity": 0.5669291338582677,
                    "duration": 0.13125650000000633
                },
                {
                    "name": "A2",
                    "midi": 45,
                    "time": 247.54975900000153,
                    "velocity": 0.5669291338582677,
                    "duration": 0.13125650000000633
                },
                {
                    "name": "E3",
                    "midi": 52,
                    "time": 247.54975900000153,
                    "velocity": 0.5669291338582677,
                    "duration": 0.13125650000000633
                },
                {
                    "name": "A2",
                    "midi": 45,
                    "time": 247.81227200000154,
                    "velocity": 0.5590551181102362,
                    "duration": 0.5250259999999969
                },
                {
                    "name": "E3",
                    "midi": 52,
                    "time": 247.81227200000154,
                    "velocity": 0.5590551181102362,
                    "duration": 0.5250259999999969
                },
                {
                    "name": "A2",
                    "midi": 45,
                    "time": 248.33729800000154,
                    "velocity": 0.5039370078740157,
                    "duration": 0.26251300000001265
                },
                {
                    "name": "E3",
                    "midi": 52,
                    "time": 248.33729800000154,
                    "velocity": 0.5039370078740157,
                    "duration": 0.26251300000001265
                },
                {
                    "name": "A2",
                    "midi": 45,
                    "time": 248.59981100000155,
                    "velocity": 0.5039370078740157,
                    "duration": 0.13125650000000633
                },
                {
                    "name": "E3",
                    "midi": 52,
                    "time": 248.59981100000155,
                    "velocity": 0.5039370078740157,
                    "duration": 0.13125650000000633
                },
                {
                    "name": "A2",
                    "midi": 45,
                    "time": 248.86232400000156,
                    "velocity": 0.5590551181102362,
                    "duration": 0.5250259999999969
                },
                {
                    "name": "E3",
                    "midi": 52,
                    "time": 248.86232400000156,
                    "velocity": 0.5590551181102362,
                    "duration": 0.5250259999999969
                },
                {
                    "name": "A2",
                    "midi": 45,
                    "time": 249.38735000000156,
                    "velocity": 0.5039370078740157,
                    "duration": 0.26251300000001265
                },
                {
                    "name": "E3",
                    "midi": 52,
                    "time": 249.38735000000156,
                    "velocity": 0.5039370078740157,
                    "duration": 0.26251300000001265
                },
                {
                    "name": "A2",
                    "midi": 45,
                    "time": 249.64986300000157,
                    "velocity": 0.5039370078740157,
                    "duration": 0.13125650000000633
                },
                {
                    "name": "E3",
                    "midi": 52,
                    "time": 249.64986300000157,
                    "velocity": 0.5039370078740157,
                    "duration": 0.13125650000000633
                },
                {
                    "name": "G#3",
                    "midi": 56,
                    "time": 252.01248000000157,
                    "velocity": 0.4645669291338583,
                    "duration": 0.5250259999999969
                },
                {
                    "name": "G2",
                    "midi": 43,
                    "time": 254.11258400000156,
                    "velocity": 0.25984251968503935,
                    "duration": 0.13125650000000633
                },
                {
                    "name": "E3",
                    "midi": 52,
                    "time": 254.11258400000156,
                    "velocity": 0.25984251968503935,
                    "duration": 0.13125650000000633
                },
                {
                    "name": "G3",
                    "midi": 55,
                    "time": 254.24384050000157,
                    "velocity": 0.25984251968503935,
                    "duration": 0.13125650000000633
                },
                {
                    "name": "C4",
                    "midi": 60,
                    "time": 254.37509700000157,
                    "velocity": 0.25984251968503935,
                    "duration": 0.13125650000000633
                },
                {
                    "name": "E4",
                    "midi": 64,
                    "time": 254.50635350000158,
                    "velocity": 0.25984251968503935,
                    "duration": 0.13125650000000633
                },
                {
                    "name": "G2",
                    "midi": 43,
                    "time": 255.16263600000158,
                    "velocity": 0.25984251968503935,
                    "duration": 0.13125650000000633
                },
                {
                    "name": "D3",
                    "midi": 50,
                    "time": 255.16263600000158,
                    "velocity": 0.25984251968503935,
                    "duration": 0.13125650000000633
                },
                {
                    "name": "G3",
                    "midi": 55,
                    "time": 255.2938925000016,
                    "velocity": 0.25984251968503935,
                    "duration": 0.13125650000000633
                },
                {
                    "name": "B3",
                    "midi": 59,
                    "time": 255.4251490000016,
                    "velocity": 0.25984251968503935,
                    "duration": 0.13125650000000633
                },
                {
                    "name": "F4",
                    "midi": 65,
                    "time": 255.5564055000016,
                    "velocity": 0.25984251968503935,
                    "duration": 0.13125650000000633
                },
                {
                    "name": "C2",
                    "midi": 36,
                    "time": 256.2126880000016,
                    "velocity": 0.25984251968503935,
                    "duration": 0.5250260000000253
                },
                {
                    "name": "G2",
                    "midi": 43,
                    "time": 256.2126880000016,
                    "velocity": 0.25984251968503935,
                    "duration": 0.5250260000000253
                },
                {
                    "name": "C3",
                    "midi": 48,
                    "time": 256.73771400000163,
                    "velocity": 0.23622047244094488,
                    "duration": 0.13125650000000633
                },
                {
                    "name": "G3",
                    "midi": 55,
                    "time": 256.73771400000163,
                    "velocity": 0.23622047244094488,
                    "duration": 0.13125650000000633
                },
                {
                    "name": "C3",
                    "midi": 48,
                    "time": 257.00022700000164,
                    "velocity": 0.23622047244094488,
                    "duration": 0.13125650000000633
                },
                {
                    "name": "G3",
                    "midi": 55,
                    "time": 257.00022700000164,
                    "velocity": 0.23622047244094488,
                    "duration": 0.13125650000000633
                },
                {
                    "name": "C3",
                    "midi": 48,
                    "time": 257.26274000000166,
                    "velocity": 0.25984251968503935,
                    "duration": 0.393769500000019
                },
                {
                    "name": "G3",
                    "midi": 55,
                    "time": 257.26274000000166,
                    "velocity": 0.25984251968503935,
                    "duration": 0.393769500000019
                },
                {
                    "name": "G3",
                    "midi": 55,
                    "time": 257.7877660000017,
                    "velocity": 0.5669291338582677,
                    "duration": 0.13125650000000633
                },
                {
                    "name": "C3",
                    "midi": 48,
                    "time": 257.7877660000017,
                    "velocity": 0.5669291338582677,
                    "duration": 0.13125650000000633
                },
                {
                    "name": "C3",
                    "midi": 48,
                    "time": 258.0502790000017,
                    "velocity": 0.5669291338582677,
                    "duration": 0.13125650000000633
                },
                {
                    "name": "G3",
                    "midi": 55,
                    "time": 258.0502790000017,
                    "velocity": 0.5669291338582677,
                    "duration": 0.13125650000000633
                },
                {
                    "name": "C3",
                    "midi": 48,
                    "time": 258.3127920000017,
                    "velocity": 0.5590551181102362,
                    "duration": 0.5250260000000253
                },
                {
                    "name": "G3",
                    "midi": 55,
                    "time": 258.3127920000017,
                    "velocity": 0.5590551181102362,
                    "duration": 0.5250260000000253
                },
                {
                    "name": "G3",
                    "midi": 55,
                    "time": 258.83781800000173,
                    "velocity": 0.5039370078740157,
                    "duration": 0.26251300000001265
                },
                {
                    "name": "C3",
                    "midi": 48,
                    "time": 258.83781800000173,
                    "velocity": 0.5039370078740157,
                    "duration": 0.26251300000001265
                },
                {
                    "name": "C3",
                    "midi": 48,
                    "time": 259.10033100000174,
                    "velocity": 0.5039370078740157,
                    "duration": 0.13125650000000633
                },
                {
                    "name": "G3",
                    "midi": 55,
                    "time": 259.10033100000174,
                    "velocity": 0.5039370078740157,
                    "duration": 0.13125650000000633
                },
                {
                    "name": "G3",
                    "midi": 55,
                    "time": 259.36284400000176,
                    "velocity": 0.5590551181102362,
                    "duration": 0.5250260000000253
                },
                {
                    "name": "C3",
                    "midi": 48,
                    "time": 259.36284400000176,
                    "velocity": 0.5590551181102362,
                    "duration": 0.5250260000000253
                },
                {
                    "name": "G3",
                    "midi": 55,
                    "time": 259.8878700000018,
                    "velocity": 0.5039370078740157,
                    "duration": 0.26251300000001265
                },
                {
                    "name": "C3",
                    "midi": 48,
                    "time": 259.8878700000018,
                    "velocity": 0.5039370078740157,
                    "duration": 0.26251300000001265
                },
                {
                    "name": "G3",
                    "midi": 55,
                    "time": 260.1503830000018,
                    "velocity": 0.5039370078740157,
                    "duration": 0.13125650000000633
                },
                {
                    "name": "C3",
                    "midi": 48,
                    "time": 260.1503830000018,
                    "velocity": 0.5039370078740157,
                    "duration": 0.13125650000000633
                },
                {
                    "name": "B3",
                    "midi": 59,
                    "time": 262.5130000000018,
                    "velocity": 0.4645669291338583,
                    "duration": 0.5250260000000253
                },
                {
                    "name": "A#2",
                    "midi": 46,
                    "time": 264.61310400000184,
                    "velocity": 0.25984251968503935,
                    "duration": 0.13125650000000633
                },
                {
                    "name": "G3",
                    "midi": 55,
                    "time": 264.61310400000184,
                    "velocity": 0.25984251968503935,
                    "duration": 0.13125650000000633
                },
                {
                    "name": "A#3",
                    "midi": 58,
                    "time": 264.74436050000185,
                    "velocity": 0.25984251968503935,
                    "duration": 0.13125650000000633
                },
                {
                    "name": "D#4",
                    "midi": 63,
                    "time": 264.87561700000185,
                    "velocity": 0.25984251968503935,
                    "duration": 0.13125650000000633
                },
                {
                    "name": "G4",
                    "midi": 67,
                    "time": 265.00687350000186,
                    "velocity": 0.25984251968503935,
                    "duration": 0.13125650000000633
                },
                {
                    "name": "F3",
                    "midi": 53,
                    "time": 265.6631560000019,
                    "velocity": 0.25984251968503935,
                    "duration": 0.13125650000000633
                },
                {
                    "name": "A#2",
                    "midi": 46,
                    "time": 265.6631560000019,
                    "velocity": 0.25984251968503935,
                    "duration": 0.13125650000000633
                },
                {
                    "name": "A#3",
                    "midi": 58,
                    "time": 265.7944125000019,
                    "velocity": 0.25984251968503935,
                    "duration": 0.13125650000000633
                },
                {
                    "name": "D4",
                    "midi": 62,
                    "time": 265.9256690000019,
                    "velocity": 0.25984251968503935,
                    "duration": 0.13125650000000633
                },
                {
                    "name": "G#4",
                    "midi": 68,
                    "time": 266.0569255000019,
                    "velocity": 0.25984251968503935,
                    "duration": 0.13125650000000633
                },
                {
                    "name": "A#2",
                    "midi": 46,
                    "time": 266.71320800000194,
                    "velocity": 0.25984251968503935,
                    "duration": 0.5250260000000253
                },
                {
                    "name": "D#2",
                    "midi": 39,
                    "time": 266.71320800000194,
                    "velocity": 0.25984251968503935,
                    "duration": 0.5250260000000253
                },
                {
                    "name": "A#3",
                    "midi": 58,
                    "time": 267.23823400000197,
                    "velocity": 0.23622047244094488,
                    "duration": 0.13125650000000633
                },
                {
                    "name": "D#3",
                    "midi": 51,
                    "time": 267.23823400000197,
                    "velocity": 0.23622047244094488,
                    "duration": 0.13125650000000633
                },
                {
                    "name": "A#3",
                    "midi": 58,
                    "time": 267.500747000002,
                    "velocity": 0.23622047244094488,
                    "duration": 0.13125650000000633
                },
                {
                    "name": "D#3",
                    "midi": 51,
                    "time": 267.500747000002,
                    "velocity": 0.23622047244094488,
                    "duration": 0.13125650000000633
                },
                {
                    "name": "A#3",
                    "midi": 58,
                    "time": 267.763260000002,
                    "velocity": 0.25984251968503935,
                    "duration": 0.5250260000000253
                },
                {
                    "name": "D#3",
                    "midi": 51,
                    "time": 267.763260000002,
                    "velocity": 0.25984251968503935,
                    "duration": 0.5250260000000253
                },
                {
                    "name": "A#2",
                    "midi": 46,
                    "time": 268.288286000002,
                    "velocity": 0.2125984251968504,
                    "duration": 0.13125650000000633
                },
                {
                    "name": "D#3",
                    "midi": 51,
                    "time": 268.288286000002,
                    "velocity": 0.2125984251968504,
                    "duration": 0.13125650000000633
                },
                {
                    "name": "D#2",
                    "midi": 39,
                    "time": 268.55079900000203,
                    "velocity": 0.18110236220472442,
                    "duration": 0.13125650000000633
                },
                {
                    "name": "A#2",
                    "midi": 46,
                    "time": 268.81331200000204,
                    "velocity": 0.18110236220472442,
                    "duration": 0.13125650000000633
                },
                {
                    "name": "D#3",
                    "midi": 51,
                    "time": 268.81331200000204,
                    "velocity": 0.18110236220472442,
                    "duration": 0.13125650000000633
                },
                {
                    "name": "D#2",
                    "midi": 39,
                    "time": 269.07582500000206,
                    "velocity": 0.2047244094488189,
                    "duration": 0.13125650000000633
                },
                {
                    "name": "A#2",
                    "midi": 46,
                    "time": 269.33833800000207,
                    "velocity": 0.2283464566929134,
                    "duration": 0.13125650000000633
                },
                {
                    "name": "D#3",
                    "midi": 51,
                    "time": 269.33833800000207,
                    "velocity": 0.2283464566929134,
                    "duration": 0.13125650000000633
                },
                {
                    "name": "D#2",
                    "midi": 39,
                    "time": 269.6008510000021,
                    "velocity": 0.2125984251968504,
                    "duration": 0.13125650000000633
                },
                {
                    "name": "A#2",
                    "midi": 46,
                    "time": 269.8633640000021,
                    "velocity": 0.2125984251968504,
                    "duration": 0.13125650000000633
                },
                {
                    "name": "D#3",
                    "midi": 51,
                    "time": 269.8633640000021,
                    "velocity": 0.2125984251968504,
                    "duration": 0.13125650000000633
                },
                {
                    "name": "D#2",
                    "midi": 39,
                    "time": 270.1258770000021,
                    "velocity": 0.2204724409448819,
                    "duration": 0.13125650000000633
                },
                {
                    "name": "A#2",
                    "midi": 46,
                    "time": 270.3883900000021,
                    "velocity": 0.2755905511811024,
                    "duration": 0.13125650000000633
                },
                {
                    "name": "D#3",
                    "midi": 51,
                    "time": 270.3883900000021,
                    "velocity": 0.2755905511811024,
                    "duration": 0.13125650000000633
                },
                {
                    "name": "D#2",
                    "midi": 39,
                    "time": 270.65090300000213,
                    "velocity": 0.23622047244094488,
                    "duration": 0.13125650000000633
                },
                {
                    "name": "A#2",
                    "midi": 46,
                    "time": 270.91341600000214,
                    "velocity": 0.23622047244094488,
                    "duration": 0.13125650000000633
                },
                {
                    "name": "D#3",
                    "midi": 51,
                    "time": 270.91341600000214,
                    "velocity": 0.23622047244094488,
                    "duration": 0.13125650000000633
                },
                {
                    "name": "D#2",
                    "midi": 39,
                    "time": 271.17592900000216,
                    "velocity": 0.23622047244094488,
                    "duration": 0.13125650000000633
                },
                {
                    "name": "A#2",
                    "midi": 46,
                    "time": 271.43844200000217,
                    "velocity": 0.28346456692913385,
                    "duration": 0.13125650000000633
                },
                {
                    "name": "D#3",
                    "midi": 51,
                    "time": 271.43844200000217,
                    "velocity": 0.28346456692913385,
                    "duration": 0.13125650000000633
                },
                {
                    "name": "D#2",
                    "midi": 39,
                    "time": 271.7009550000022,
                    "velocity": 0.25984251968503935,
                    "duration": 0.13125650000000633
                },
                {
                    "name": "A#2",
                    "midi": 46,
                    "time": 271.9634680000022,
                    "velocity": 0.25984251968503935,
                    "duration": 0.13125650000000633
                },
                {
                    "name": "D#3",
                    "midi": 51,
                    "time": 271.9634680000022,
                    "velocity": 0.25984251968503935,
                    "duration": 0.13125650000000633
                },
                {
                    "name": "D#2",
                    "midi": 39,
                    "time": 272.2259810000022,
                    "velocity": 0.25984251968503935,
                    "duration": 0.13125650000000633
                },
                {
                    "name": "C3",
                    "midi": 48,
                    "time": 272.4884940000022,
                    "velocity": 0.25984251968503935,
                    "duration": 0.13125650000000633
                },
                {
                    "name": "D#3",
                    "midi": 51,
                    "time": 272.4884940000022,
                    "velocity": 0.25984251968503935,
                    "duration": 0.13125650000000633
                },
                {
                    "name": "D#2",
                    "midi": 39,
                    "time": 272.75100700000223,
                    "velocity": 0.23622047244094488,
                    "duration": 0.13125650000000633
                },
                {
                    "name": "C3",
                    "midi": 48,
                    "time": 273.01352000000225,
                    "velocity": 0.2440944881889764,
                    "duration": 0.13125650000000633
                },
                {
                    "name": "D#3",
                    "midi": 51,
                    "time": 273.01352000000225,
                    "velocity": 0.2440944881889764,
                    "duration": 0.13125650000000633
                },
                {
                    "name": "D#2",
                    "midi": 39,
                    "time": 273.27603300000226,
                    "velocity": 0.23622047244094488,
                    "duration": 0.13125650000000633
                },
                {
                    "name": "C3",
                    "midi": 48,
                    "time": 273.53854600000227,
                    "velocity": 0.2677165354330709,
                    "duration": 0.13125650000000633
                },
                {
                    "name": "D#3",
                    "midi": 51,
                    "time": 273.53854600000227,
                    "velocity": 0.2677165354330709,
                    "duration": 0.13125650000000633
                },
                {
                    "name": "D#2",
                    "midi": 39,
                    "time": 273.8010590000023,
                    "velocity": 0.2440944881889764,
                    "duration": 0.13125650000000633
                },
                {
                    "name": "C3",
                    "midi": 48,
                    "time": 274.0635720000023,
                    "velocity": 0.25196850393700787,
                    "duration": 0.13125650000000633
                },
                {
                    "name": "D#3",
                    "midi": 51,
                    "time": 274.0635720000023,
                    "velocity": 0.25196850393700787,
                    "duration": 0.13125650000000633
                },
                {
                    "name": "D#2",
                    "midi": 39,
                    "time": 274.3260850000023,
                    "velocity": 0.25196850393700787,
                    "duration": 0.13125650000000633
                },
                {
                    "name": "C3",
                    "midi": 48,
                    "time": 274.5885980000023,
                    "velocity": 0.31496062992125984,
                    "duration": 0.13125650000000633
                },
                {
                    "name": "D#3",
                    "midi": 51,
                    "time": 274.5885980000023,
                    "velocity": 0.31496062992125984,
                    "duration": 0.13125650000000633
                },
                {
                    "name": "D#2",
                    "midi": 39,
                    "time": 274.85111100000233,
                    "velocity": 0.2677165354330709,
                    "duration": 0.13125650000000633
                },
                {
                    "name": "C3",
                    "midi": 48,
                    "time": 275.11362400000235,
                    "velocity": 0.2755905511811024,
                    "duration": 0.13125650000000633
                },
                {
                    "name": "D#3",
                    "midi": 51,
                    "time": 275.11362400000235,
                    "velocity": 0.2755905511811024,
                    "duration": 0.13125650000000633
                },
                {
                    "name": "D#2",
                    "midi": 39,
                    "time": 275.37613700000236,
                    "velocity": 0.2755905511811024,
                    "duration": 0.13125650000000633
                },
                {
                    "name": "C3",
                    "midi": 48,
                    "time": 275.6386500000024,
                    "velocity": 0.33070866141732286,
                    "duration": 0.13125650000000633
                },
                {
                    "name": "D#3",
                    "midi": 51,
                    "time": 275.6386500000024,
                    "velocity": 0.33070866141732286,
                    "duration": 0.13125650000000633
                },
                {
                    "name": "D#2",
                    "midi": 39,
                    "time": 275.9011630000024,
                    "velocity": 0.29133858267716534,
                    "duration": 0.13125650000000633
                },
                {
                    "name": "C3",
                    "midi": 48,
                    "time": 276.1636760000024,
                    "velocity": 0.2992125984251969,
                    "duration": 0.13125650000000633
                },
                {
                    "name": "D#3",
                    "midi": 51,
                    "time": 276.1636760000024,
                    "velocity": 0.2992125984251969,
                    "duration": 0.13125650000000633
                },
                {
                    "name": "D#2",
                    "midi": 39,
                    "time": 276.4261890000024,
                    "velocity": 0.2992125984251969,
                    "duration": 0.13125650000000633
                },
                {
                    "name": "G#2",
                    "midi": 44,
                    "time": 276.6887020000024,
                    "velocity": 0.3464566929133858,
                    "duration": 0.13125650000000633
                },
                {
                    "name": "F#3",
                    "midi": 54,
                    "time": 276.6887020000024,
                    "velocity": 0.3464566929133858,
                    "duration": 0.13125650000000633
                },
                {
                    "name": "D#2",
                    "midi": 39,
                    "time": 276.95121500000243,
                    "velocity": 0.33070866141732286,
                    "duration": 0.13125650000000633
                },
                {
                    "name": "G#2",
                    "midi": 44,
                    "time": 277.21372800000245,
                    "velocity": 0.3464566929133858,
                    "duration": 0.13125650000000633
                },
                {
                    "name": "F#3",
                    "midi": 54,
                    "time": 277.21372800000245,
                    "velocity": 0.3464566929133858,
                    "duration": 0.13125650000000633
                },
                {
                    "name": "D#2",
                    "midi": 39,
                    "time": 277.47624100000246,
                    "velocity": 0.30708661417322836,
                    "duration": 0.13125650000000633
                },
                {
                    "name": "G#2",
                    "midi": 44,
                    "time": 277.7387540000025,
                    "velocity": 0.3543307086614173,
                    "duration": 0.13125650000000633
                },
                {
                    "name": "F#3",
                    "midi": 54,
                    "time": 277.7387540000025,
                    "velocity": 0.3543307086614173,
                    "duration": 0.13125650000000633
                },
                {
                    "name": "D#2",
                    "midi": 39,
                    "time": 278.0012670000025,
                    "velocity": 0.33070866141732286,
                    "duration": 0.13125650000000633
                },
                {
                    "name": "G#2",
                    "midi": 44,
                    "time": 278.2637800000025,
                    "velocity": 0.33070866141732286,
                    "duration": 0.13125650000000633
                },
                {
                    "name": "F#3",
                    "midi": 54,
                    "time": 278.2637800000025,
                    "velocity": 0.33070866141732286,
                    "duration": 0.13125650000000633
                },
                {
                    "name": "D#2",
                    "midi": 39,
                    "time": 278.5262930000025,
                    "velocity": 0.3464566929133858,
                    "duration": 0.13125650000000633
                },
                {
                    "name": "G#2",
                    "midi": 44,
                    "time": 278.7888060000025,
                    "velocity": 0.3779527559055118,
                    "duration": 0.13125650000000633
                },
                {
                    "name": "F#3",
                    "midi": 54,
                    "time": 278.7888060000025,
                    "velocity": 0.3779527559055118,
                    "duration": 0.13125650000000633
                },
                {
                    "name": "D#2",
                    "midi": 39,
                    "time": 279.05131900000254,
                    "velocity": 0.33070866141732286,
                    "duration": 0.13125650000000633
                },
                {
                    "name": "G#2",
                    "midi": 44,
                    "time": 279.31383200000255,
                    "velocity": 0.3700787401574803,
                    "duration": 0.13125650000000633
                },
                {
                    "name": "F#3",
                    "midi": 54,
                    "time": 279.31383200000255,
                    "velocity": 0.3700787401574803,
                    "duration": 0.13125650000000633
                },
                {
                    "name": "D#2",
                    "midi": 39,
                    "time": 279.57634500000256,
                    "velocity": 0.3464566929133858,
                    "duration": 0.13125650000000633
                },
                {
                    "name": "G#2",
                    "midi": 44,
                    "time": 279.8388580000026,
                    "velocity": 0.3937007874015748,
                    "duration": 0.13125650000000633
                },
                {
                    "name": "F#3",
                    "midi": 54,
                    "time": 279.8388580000026,
                    "velocity": 0.3937007874015748,
                    "duration": 0.13125650000000633
                },
                {
                    "name": "D#2",
                    "midi": 39,
                    "time": 280.1013710000026,
                    "velocity": 0.36220472440944884,
                    "duration": 0.13125650000000633
                },
                {
                    "name": "G#2",
                    "midi": 44,
                    "time": 280.3638840000026,
                    "velocity": 0.36220472440944884,
                    "duration": 0.13125650000000633
                },
                {
                    "name": "F#3",
                    "midi": 54,
                    "time": 280.3638840000026,
                    "velocity": 0.36220472440944884,
                    "duration": 0.13125650000000633
                },
                {
                    "name": "D#2",
                    "midi": 39,
                    "time": 280.6263970000026,
                    "velocity": 0.36220472440944884,
                    "duration": 0.13125650000000633
                },
                {
                    "name": "G#2",
                    "midi": 44,
                    "time": 280.8889100000026,
                    "velocity": 0.3937007874015748,
                    "duration": 0.13125650000000633
                },
                {
                    "name": "F3",
                    "midi": 53,
                    "time": 280.8889100000026,
                    "velocity": 0.3937007874015748,
                    "duration": 0.13125650000000633
                },
                {
                    "name": "D#2",
                    "midi": 39,
                    "time": 281.15142300000264,
                    "velocity": 0.36220472440944884,
                    "duration": 0.13125650000000633
                },
                {
                    "name": "G#2",
                    "midi": 44,
                    "time": 281.41393600000265,
                    "velocity": 0.3779527559055118,
                    "duration": 0.13125650000000633
                },
                {
                    "name": "F3",
                    "midi": 53,
                    "time": 281.41393600000265,
                    "velocity": 0.3779527559055118,
                    "duration": 0.13125650000000633
                },
                {
                    "name": "D#2",
                    "midi": 39,
                    "time": 281.67644900000266,
                    "velocity": 0.36220472440944884,
                    "duration": 0.13125650000000633
                },
                {
                    "name": "G#2",
                    "midi": 44,
                    "time": 281.9389620000027,
                    "velocity": 0.4015748031496063,
                    "duration": 0.13125650000000633
                },
                {
                    "name": "F3",
                    "midi": 53,
                    "time": 281.9389620000027,
                    "velocity": 0.4015748031496063,
                    "duration": 0.13125650000000633
                },
                {
                    "name": "D#2",
                    "midi": 39,
                    "time": 282.2014750000027,
                    "velocity": 0.3700787401574803,
                    "duration": 0.13125650000000633
                },
                {
                    "name": "G#2",
                    "midi": 44,
                    "time": 282.4639880000027,
                    "velocity": 0.3937007874015748,
                    "duration": 0.13125650000000633
                },
                {
                    "name": "F3",
                    "midi": 53,
                    "time": 282.4639880000027,
                    "velocity": 0.3937007874015748,
                    "duration": 0.13125650000000633
                },
                {
                    "name": "D#2",
                    "midi": 39,
                    "time": 282.7265010000027,
                    "velocity": 0.3700787401574803,
                    "duration": 0.13125650000000633
                },
                {
                    "name": "G#2",
                    "midi": 44,
                    "time": 282.9890140000027,
                    "velocity": 0.47244094488188976,
                    "duration": 0.13125650000000633
                },
                {
                    "name": "F3",
                    "midi": 53,
                    "time": 282.9890140000027,
                    "velocity": 0.47244094488188976,
                    "duration": 0.13125650000000633
                },
                {
                    "name": "D#2",
                    "midi": 39,
                    "time": 283.25152700000274,
                    "velocity": 0.3937007874015748,
                    "duration": 0.13125650000000633
                },
                {
                    "name": "G#2",
                    "midi": 44,
                    "time": 283.51404000000275,
                    "velocity": 0.4409448818897638,
                    "duration": 0.13125650000000633
                },
                {
                    "name": "F3",
                    "midi": 53,
                    "time": 283.51404000000275,
                    "velocity": 0.4409448818897638,
                    "duration": 0.13125650000000633
                },
                {
                    "name": "D#2",
                    "midi": 39,
                    "time": 283.77655300000276,
                    "velocity": 0.4015748031496063,
                    "duration": 0.13125650000000633
                },
                {
                    "name": "G#2",
                    "midi": 44,
                    "time": 284.0390660000028,
                    "velocity": 0.4645669291338583,
                    "duration": 0.13125650000000633
                },
                {
                    "name": "F3",
                    "midi": 53,
                    "time": 284.0390660000028,
                    "velocity": 0.4645669291338583,
                    "duration": 0.13125650000000633
                },
                {
                    "name": "D#2",
                    "midi": 39,
                    "time": 284.3015790000028,
                    "velocity": 0.41732283464566927,
                    "duration": 0.13125650000000633
                },
                {
                    "name": "G#2",
                    "midi": 44,
                    "time": 284.5640920000028,
                    "velocity": 0.44881889763779526,
                    "duration": 0.13125650000000633
                },
                {
                    "name": "F3",
                    "midi": 53,
                    "time": 284.5640920000028,
                    "velocity": 0.44881889763779526,
                    "duration": 0.13125650000000633
                },
                {
                    "name": "D#2",
                    "midi": 39,
                    "time": 284.8266050000028,
                    "velocity": 0.41732283464566927,
                    "duration": 0.13125650000000633
                },
                {
                    "name": "D#2",
                    "midi": 39,
                    "time": 285.0891180000028,
                    "velocity": 0.47244094488188976,
                    "duration": 0.26251300000001265
                },
                {
                    "name": "A#2",
                    "midi": 46,
                    "time": 285.0891180000028,
                    "velocity": 0.47244094488188976,
                    "duration": 0.26251300000001265
                },
                {
                    "name": "F3",
                    "midi": 53,
                    "time": 285.0891180000028,
                    "velocity": 0.47244094488188976,
                    "duration": 0.26251300000001265
                },
                {
                    "name": "D#2",
                    "midi": 39,
                    "time": 285.35163100000284,
                    "velocity": 0.4330708661417323,
                    "duration": 0.26251300000001265
                },
                {
                    "name": "A#2",
                    "midi": 46,
                    "time": 285.35163100000284,
                    "velocity": 0.4330708661417323,
                    "duration": 0.26251300000001265
                },
                {
                    "name": "F3",
                    "midi": 53,
                    "time": 285.35163100000284,
                    "velocity": 0.4330708661417323,
                    "duration": 0.26251300000001265
                },
                {
                    "name": "D#2",
                    "midi": 39,
                    "time": 285.61414400000285,
                    "velocity": 0.44881889763779526,
                    "duration": 0.5250260000000253
                },
                {
                    "name": "A#2",
                    "midi": 46,
                    "time": 285.61414400000285,
                    "velocity": 0.44881889763779526,
                    "duration": 0.5250260000000253
                },
                {
                    "name": "F3",
                    "midi": 53,
                    "time": 285.61414400000285,
                    "velocity": 0.44881889763779526,
                    "duration": 0.5250260000000253
                },
                {
                    "name": "D#3",
                    "midi": 51,
                    "time": 286.1391700000029,
                    "velocity": 0.41732283464566927,
                    "duration": 0.26251300000001265
                },
                {
                    "name": "A#3",
                    "midi": 58,
                    "time": 286.1391700000029,
                    "velocity": 0.41732283464566927,
                    "duration": 0.26251300000001265
                },
                {
                    "name": "F4",
                    "midi": 65,
                    "time": 286.1391700000029,
                    "velocity": 0.41732283464566927,
                    "duration": 0.26251300000001265
                },
                {
                    "name": "D#3",
                    "midi": 51,
                    "time": 286.4016830000029,
                    "velocity": 0.41732283464566927,
                    "duration": 0.26251300000001265
                },
                {
                    "name": "A#3",
                    "midi": 58,
                    "time": 286.4016830000029,
                    "velocity": 0.41732283464566927,
                    "duration": 0.26251300000001265
                },
                {
                    "name": "F4",
                    "midi": 65,
                    "time": 286.4016830000029,
                    "velocity": 0.41732283464566927,
                    "duration": 0.26251300000001265
                },
                {
                    "name": "D#3",
                    "midi": 51,
                    "time": 286.6641960000029,
                    "velocity": 0.48031496062992124,
                    "duration": 0.5250260000000253
                },
                {
                    "name": "A#3",
                    "midi": 58,
                    "time": 286.6641960000029,
                    "velocity": 0.48031496062992124,
                    "duration": 0.5250260000000253
                },
                {
                    "name": "F4",
                    "midi": 65,
                    "time": 286.6641960000029,
                    "velocity": 0.48031496062992124,
                    "duration": 0.5250260000000253
                },
                {
                    "name": "D#2",
                    "midi": 39,
                    "time": 287.1892220000029,
                    "velocity": 0.4645669291338583,
                    "duration": 0.26251300000001265
                },
                {
                    "name": "A#2",
                    "midi": 46,
                    "time": 287.1892220000029,
                    "velocity": 0.4645669291338583,
                    "duration": 0.26251300000001265
                },
                {
                    "name": "F3",
                    "midi": 53,
                    "time": 287.1892220000029,
                    "velocity": 0.4645669291338583,
                    "duration": 0.26251300000001265
                },
                {
                    "name": "D#2",
                    "midi": 39,
                    "time": 287.45173500000294,
                    "velocity": 0.4330708661417323,
                    "duration": 0.26251300000001265
                },
                {
                    "name": "A#2",
                    "midi": 46,
                    "time": 287.45173500000294,
                    "velocity": 0.4330708661417323,
                    "duration": 0.26251300000001265
                },
                {
                    "name": "F3",
                    "midi": 53,
                    "time": 287.45173500000294,
                    "velocity": 0.4330708661417323,
                    "duration": 0.26251300000001265
                },
                {
                    "name": "D#2",
                    "midi": 39,
                    "time": 287.71424800000295,
                    "velocity": 0.4645669291338583,
                    "duration": 0.5250260000000253
                },
                {
                    "name": "A#2",
                    "midi": 46,
                    "time": 287.71424800000295,
                    "velocity": 0.4645669291338583,
                    "duration": 0.5250260000000253
                },
                {
                    "name": "F3",
                    "midi": 53,
                    "time": 287.71424800000295,
                    "velocity": 0.4645669291338583,
                    "duration": 0.5250260000000253
                },
                {
                    "name": "D#3",
                    "midi": 51,
                    "time": 288.239274000003,
                    "velocity": 0.48031496062992124,
                    "duration": 0.26251300000001265
                },
                {
                    "name": "A#3",
                    "midi": 58,
                    "time": 288.239274000003,
                    "velocity": 0.48031496062992124,
                    "duration": 0.26251300000001265
                },
                {
                    "name": "F4",
                    "midi": 65,
                    "time": 288.239274000003,
                    "velocity": 0.48031496062992124,
                    "duration": 0.26251300000001265
                },
                {
                    "name": "D#3",
                    "midi": 51,
                    "time": 288.501787000003,
                    "velocity": 0.4409448818897638,
                    "duration": 0.26251300000001265
                },
                {
                    "name": "A#3",
                    "midi": 58,
                    "time": 288.501787000003,
                    "velocity": 0.4409448818897638,
                    "duration": 0.26251300000001265
                },
                {
                    "name": "F4",
                    "midi": 65,
                    "time": 288.501787000003,
                    "velocity": 0.4409448818897638,
                    "duration": 0.26251300000001265
                },
                {
                    "name": "D#3",
                    "midi": 51,
                    "time": 288.764300000003,
                    "velocity": 0.5039370078740157,
                    "duration": 0.5250260000000253
                },
                {
                    "name": "A#3",
                    "midi": 58,
                    "time": 288.764300000003,
                    "velocity": 0.5039370078740157,
                    "duration": 0.5250260000000253
                },
                {
                    "name": "F4",
                    "midi": 65,
                    "time": 288.764300000003,
                    "velocity": 0.5039370078740157,
                    "duration": 0.5250260000000253
                },
                {
                    "name": "F4",
                    "midi": 65,
                    "time": 289.28932600000303,
                    "velocity": 0.5905511811023622,
                    "duration": 0.13125650000000633
                },
                {
                    "name": "F3",
                    "midi": 53,
                    "time": 289.28932600000303,
                    "velocity": 0.5905511811023622,
                    "duration": 0.13125650000000633
                },
                {
                    "name": "G3",
                    "midi": 55,
                    "time": 289.55183900000304,
                    "velocity": 0.5905511811023622,
                    "duration": 0.13125650000000633
                },
                {
                    "name": "G4",
                    "midi": 67,
                    "time": 289.55183900000304,
                    "velocity": 0.5905511811023622,
                    "duration": 0.13125650000000633
                },
                {
                    "name": "G#4",
                    "midi": 68,
                    "time": 289.81435200000305,
                    "velocity": 0.6456692913385826,
                    "duration": 0.13125650000000633
                },
                {
                    "name": "G#3",
                    "midi": 56,
                    "time": 289.81435200000305,
                    "velocity": 0.6456692913385826,
                    "duration": 0.13125650000000633
                },
                {
                    "name": "C5",
                    "midi": 72,
                    "time": 290.07686500000307,
                    "velocity": 0.5905511811023622,
                    "duration": 0.13125650000000633
                },
                {
                    "name": "C4",
                    "midi": 60,
                    "time": 290.07686500000307,
                    "velocity": 0.5905511811023622,
                    "duration": 0.13125650000000633
                },
                {
                    "name": "G#4",
                    "midi": 68,
                    "time": 290.3393780000031,
                    "velocity": 0.5905511811023622,
                    "duration": 0.13125650000000633
                },
                {
                    "name": "G#3",
                    "midi": 56,
                    "time": 290.3393780000031,
                    "velocity": 0.5905511811023622,
                    "duration": 0.13125650000000633
                },
                {
                    "name": "F4",
                    "midi": 65,
                    "time": 290.6018910000031,
                    "velocity": 0.5905511811023622,
                    "duration": 0.13125650000000633
                },
                {
                    "name": "F3",
                    "midi": 53,
                    "time": 290.6018910000031,
                    "velocity": 0.5905511811023622,
                    "duration": 0.13125650000000633
                },
                {
                    "name": "G#4",
                    "midi": 68,
                    "time": 290.8644040000031,
                    "velocity": 0.6456692913385826,
                    "duration": 0.26251300000001265
                },
                {
                    "name": "G#3",
                    "midi": 56,
                    "time": 290.8644040000031,
                    "velocity": 0.6456692913385826,
                    "duration": 0.26251300000001265
                },
                {
                    "name": "F4",
                    "midi": 65,
                    "time": 291.1269170000031,
                    "velocity": 0.5905511811023622,
                    "duration": 0.26251300000001265
                },
                {
                    "name": "F3",
                    "midi": 53,
                    "time": 291.1269170000031,
                    "velocity": 0.5905511811023622,
                    "duration": 0.26251300000001265
                },
                {
                    "name": "D4",
                    "midi": 62,
                    "time": 291.38943000000313,
                    "velocity": 0.5905511811023622,
                    "duration": 0.26251300000001265
                },
                {
                    "name": "D3",
                    "midi": 50,
                    "time": 291.38943000000313,
                    "velocity": 0.5905511811023622,
                    "duration": 0.26251300000001265
                },
                {
                    "name": "F3",
                    "midi": 53,
                    "time": 291.65194300000314,
                    "velocity": 0.5905511811023622,
                    "duration": 0.26251300000001265
                },
                {
                    "name": "F4",
                    "midi": 65,
                    "time": 291.65194300000314,
                    "velocity": 0.5905511811023622,
                    "duration": 0.26251300000001265
                },
                {
                    "name": "D3",
                    "midi": 50,
                    "time": 291.91445600000316,
                    "velocity": 0.6456692913385826,
                    "duration": 0.26251300000001265
                },
                {
                    "name": "D4",
                    "midi": 62,
                    "time": 291.91445600000316,
                    "velocity": 0.6456692913385826,
                    "duration": 0.26251300000001265
                },
                {
                    "name": "A#2",
                    "midi": 46,
                    "time": 292.17696900000317,
                    "velocity": 0.5905511811023622,
                    "duration": 0.26251300000001265
                },
                {
                    "name": "A#3",
                    "midi": 58,
                    "time": 292.17696900000317,
                    "velocity": 0.5905511811023622,
                    "duration": 0.26251300000001265
                },
                {
                    "name": "D4",
                    "midi": 62,
                    "time": 292.4394820000032,
                    "velocity": 0.5905511811023622,
                    "duration": 0.26251300000001265
                },
                {
                    "name": "D3",
                    "midi": 50,
                    "time": 292.4394820000032,
                    "velocity": 0.5905511811023622,
                    "duration": 0.26251300000001265
                },
                {
                    "name": "A#2",
                    "midi": 46,
                    "time": 292.7019950000032,
                    "velocity": 0.5905511811023622,
                    "duration": 0.26251300000001265
                },
                {
                    "name": "A#3",
                    "midi": 58,
                    "time": 292.7019950000032,
                    "velocity": 0.5905511811023622,
                    "duration": 0.26251300000001265
                },
                {
                    "name": "G2",
                    "midi": 43,
                    "time": 292.9645080000032,
                    "velocity": 0.6456692913385826,
                    "duration": 0.26251300000001265
                },
                {
                    "name": "G3",
                    "midi": 55,
                    "time": 292.9645080000032,
                    "velocity": 0.6456692913385826,
                    "duration": 0.26251300000001265
                },
                {
                    "name": "A#2",
                    "midi": 46,
                    "time": 293.2270210000032,
                    "velocity": 0.5905511811023622,
                    "duration": 0.26251300000001265
                },
                {
                    "name": "A#3",
                    "midi": 58,
                    "time": 293.2270210000032,
                    "velocity": 0.5905511811023622,
                    "duration": 0.26251300000001265
                },
                {
                    "name": "G2",
                    "midi": 43,
                    "time": 293.48953400000323,
                    "velocity": 0.5905511811023622,
                    "duration": 0.26251300000001265
                },
                {
                    "name": "G3",
                    "midi": 55,
                    "time": 293.48953400000323,
                    "velocity": 0.5905511811023622,
                    "duration": 0.26251300000001265
                },
                {
                    "name": "D#2",
                    "midi": 39,
                    "time": 293.75204700000324,
                    "velocity": 0.5905511811023622,
                    "duration": 0.26251300000001265
                },
                {
                    "name": "D#3",
                    "midi": 51,
                    "time": 293.75204700000324,
                    "velocity": 0.5905511811023622,
                    "duration": 0.26251300000001265
                },
                {
                    "name": "G2",
                    "midi": 43,
                    "time": 294.01456000000326,
                    "velocity": 0.6692913385826772,
                    "duration": 0.26251300000001265
                },
                {
                    "name": "G3",
                    "midi": 55,
                    "time": 294.01456000000326,
                    "velocity": 0.6692913385826772,
                    "duration": 0.26251300000001265
                },
                {
                    "name": "D#2",
                    "midi": 39,
                    "time": 294.27707300000327,
                    "velocity": 0.6220472440944882,
                    "duration": 0.26251300000001265
                },
                {
                    "name": "D#3",
                    "midi": 51,
                    "time": 294.27707300000327,
                    "velocity": 0.6220472440944882,
                    "duration": 0.26251300000001265
                },
                {
                    "name": "C2",
                    "midi": 36,
                    "time": 294.5395860000033,
                    "velocity": 0.6220472440944882,
                    "duration": 0.26251300000001265
                },
                {
                    "name": "C3",
                    "midi": 48,
                    "time": 294.5395860000033,
                    "velocity": 0.6220472440944882,
                    "duration": 0.26251300000001265
                },
                {
                    "name": "D#2",
                    "midi": 39,
                    "time": 294.8020990000033,
                    "velocity": 0.6220472440944882,
                    "duration": 0.26251300000001265
                },
                {
                    "name": "D#3",
                    "midi": 51,
                    "time": 294.8020990000033,
                    "velocity": 0.6220472440944882,
                    "duration": 0.26251300000001265
                },
                {
                    "name": "C2",
                    "midi": 36,
                    "time": 295.0646120000033,
                    "velocity": 0.6692913385826772,
                    "duration": 0.26251300000001265
                },
                {
                    "name": "C3",
                    "midi": 48,
                    "time": 295.0646120000033,
                    "velocity": 0.6692913385826772,
                    "duration": 0.26251300000001265
                },
                {
                    "name": "G#1",
                    "midi": 32,
                    "time": 295.3271250000033,
                    "velocity": 0.6377952755905512,
                    "duration": 0.26251300000001265
                },
                {
                    "name": "G#2",
                    "midi": 44,
                    "time": 295.3271250000033,
                    "velocity": 0.6377952755905512,
                    "duration": 0.26251300000001265
                },
                {
                    "name": "C2",
                    "midi": 36,
                    "time": 295.58963800000333,
                    "velocity": 0.6771653543307087,
                    "duration": 0.26251300000001265
                },
                {
                    "name": "C3",
                    "midi": 48,
                    "time": 295.58963800000333,
                    "velocity": 0.6771653543307087,
                    "duration": 0.26251300000001265
                },
                {
                    "name": "G#1",
                    "midi": 32,
                    "time": 295.85215100000335,
                    "velocity": 0.7480314960629921,
                    "duration": 0.26251300000001265
                },
                {
                    "name": "G#2",
                    "midi": 44,
                    "time": 295.85215100000335,
                    "velocity": 0.7480314960629921,
                    "duration": 0.26251300000001265
                },
                {
                    "name": "G1",
                    "midi": 31,
                    "time": 296.11466400000336,
                    "velocity": 0.7086614173228346,
                    "duration": 2.1001040000001012
                },
                {
                    "name": "G2",
                    "midi": 43,
                    "time": 296.11466400000336,
                    "velocity": 0.84251968503937,
                    "duration": 2.1001040000001012
                },
                {
                    "name": "D#3",
                    "midi": 51,
                    "time": 296.6396900000034,
                    "velocity": 0.6929133858267716,
                    "duration": 0.5250260000000253
                },
                {
                    "name": "C3",
                    "midi": 48,
                    "time": 296.6396900000034,
                    "velocity": 0.5826771653543307,
                    "duration": 0.5250260000000253
                },
                {
                    "name": "G#2",
                    "midi": 44,
                    "time": 296.6396900000034,
                    "velocity": 0.5826771653543307,
                    "duration": 0.5250260000000253
                },
                {
                    "name": "D#4",
                    "midi": 63,
                    "time": 297.1647160000034,
                    "velocity": 0.6929133858267716,
                    "duration": 0.5250260000000253
                },
                {
                    "name": "C4",
                    "midi": 60,
                    "time": 297.1647160000034,
                    "velocity": 0.5826771653543307,
                    "duration": 0.5250260000000253
                },
                {
                    "name": "G#3",
                    "midi": 56,
                    "time": 297.1647160000034,
                    "velocity": 0.5826771653543307,
                    "duration": 0.5250260000000253
                },
                {
                    "name": "D#5",
                    "midi": 75,
                    "time": 297.68974200000343,
                    "velocity": 0.6929133858267716,
                    "duration": 0.5250260000000253
                },
                {
                    "name": "C5",
                    "midi": 72,
                    "time": 297.68974200000343,
                    "velocity": 0.5826771653543307,
                    "duration": 0.5250260000000253
                },
                {
                    "name": "G#4",
                    "midi": 68,
                    "time": 297.68974200000343,
                    "velocity": 0.5826771653543307,
                    "duration": 0.5250260000000253
                },
                {
                    "name": "F#1",
                    "midi": 30,
                    "time": 298.21476800000346,
                    "velocity": 0.7086614173228346,
                    "duration": 2.1001040000001012
                },
                {
                    "name": "F#2",
                    "midi": 42,
                    "time": 298.21476800000346,
                    "velocity": 0.84251968503937,
                    "duration": 2.1001040000001012
                },
                {
                    "name": "D#3",
                    "midi": 51,
                    "time": 298.7397940000035,
                    "velocity": 0.6929133858267716,
                    "duration": 0.5250260000000253
                },
                {
                    "name": "C3",
                    "midi": 48,
                    "time": 298.7397940000035,
                    "velocity": 0.5826771653543307,
                    "duration": 0.5250260000000253
                },
                {
                    "name": "G#2",
                    "midi": 44,
                    "time": 298.7397940000035,
                    "velocity": 0.5826771653543307,
                    "duration": 0.5250260000000253
                },
                {
                    "name": "D#4",
                    "midi": 63,
                    "time": 299.2648200000035,
                    "velocity": 0.6929133858267716,
                    "duration": 0.5250260000000253
                },
                {
                    "name": "C4",
                    "midi": 60,
                    "time": 299.2648200000035,
                    "velocity": 0.5826771653543307,
                    "duration": 0.5250260000000253
                },
                {
                    "name": "G#3",
                    "midi": 56,
                    "time": 299.2648200000035,
                    "velocity": 0.5826771653543307,
                    "duration": 0.5250260000000253
                },
                {
                    "name": "D#5",
                    "midi": 75,
                    "time": 299.78984600000354,
                    "velocity": 0.6929133858267716,
                    "duration": 0.5250260000000253
                },
                {
                    "name": "C5",
                    "midi": 72,
                    "time": 299.78984600000354,
                    "velocity": 0.5826771653543307,
                    "duration": 0.5250260000000253
                },
                {
                    "name": "G#4",
                    "midi": 68,
                    "time": 299.78984600000354,
                    "velocity": 0.5826771653543307,
                    "duration": 0.5250260000000253
                },
                {
                    "name": "F1",
                    "midi": 29,
                    "time": 300.31487200000356,
                    "velocity": 0.7322834645669292,
                    "duration": 2.1001040000001012
                },
                {
                    "name": "F2",
                    "midi": 41,
                    "time": 300.31487200000356,
                    "velocity": 0.8661417322834646,
                    "duration": 2.1001040000001012
                },
                {
                    "name": "D#3",
                    "midi": 51,
                    "time": 300.8398980000036,
                    "velocity": 0.6929133858267716,
                    "duration": 0.5250260000000253
                },
                {
                    "name": "B2",
                    "midi": 47,
                    "time": 300.8398980000036,
                    "velocity": 0.5826771653543307,
                    "duration": 0.5250260000000253
                },
                {
                    "name": "G#2",
                    "midi": 44,
                    "time": 300.8398980000036,
                    "velocity": 0.5826771653543307,
                    "duration": 0.5250260000000253
                },
                {
                    "name": "D#4",
                    "midi": 63,
                    "time": 301.3649240000036,
                    "velocity": 0.6929133858267716,
                    "duration": 0.5250260000000253
                },
                {
                    "name": "B3",
                    "midi": 59,
                    "time": 301.3649240000036,
                    "velocity": 0.5826771653543307,
                    "duration": 0.5250260000000253
                },
                {
                    "name": "G#3",
                    "midi": 56,
                    "time": 301.3649240000036,
                    "velocity": 0.5826771653543307,
                    "duration": 0.5250260000000253
                },
                {
                    "name": "D#5",
                    "midi": 75,
                    "time": 301.88995000000364,
                    "velocity": 0.6929133858267716,
                    "duration": 0.5250260000000253
                },
                {
                    "name": "B4",
                    "midi": 71,
                    "time": 301.88995000000364,
                    "velocity": 0.5826771653543307,
                    "duration": 0.5250260000000253
                },
                {
                    "name": "G#4",
                    "midi": 68,
                    "time": 301.88995000000364,
                    "velocity": 0.5826771653543307,
                    "duration": 0.5250260000000253
                },
                {
                    "name": "E1",
                    "midi": 28,
                    "time": 302.41497600000366,
                    "velocity": 0.7322834645669292,
                    "duration": 2.1001040000001012
                },
                {
                    "name": "E2",
                    "midi": 40,
                    "time": 302.41497600000366,
                    "velocity": 0.8661417322834646,
                    "duration": 1.0500520000000506
                },
                {
                    "name": "C#3",
                    "midi": 49,
                    "time": 302.9400020000037,
                    "velocity": 0.6929133858267716,
                    "duration": 0.5250260000000253
                },
                {
                    "name": "A2",
                    "midi": 45,
                    "time": 302.9400020000037,
                    "velocity": 0.5826771653543307,
                    "duration": 0.5250260000000253
                },
                {
                    "name": "E2",
                    "midi": 40,
                    "time": 302.9400020000037,
                    "velocity": 0.5826771653543307,
                    "duration": 1.575078000000076
                },
                {
                    "name": "A3",
                    "midi": 57,
                    "time": 303.4650280000037,
                    "velocity": 0.5826771653543307,
                    "duration": 0.5250260000000253
                },
                {
                    "name": "C#4",
                    "midi": 61,
                    "time": 303.4650280000037,
                    "velocity": 0.6929133858267716,
                    "duration": 0.5250260000000253
                },
                {
                    "name": "E3",
                    "midi": 52,
                    "time": 303.4650280000037,
                    "velocity": 0.5826771653543307,
                    "duration": 0.5250260000000253
                },
                {
                    "name": "C#5",
                    "midi": 73,
                    "time": 303.99005400000374,
                    "velocity": 0.6929133858267716,
                    "duration": 0.26251300000001265
                },
                {
                    "name": "A4",
                    "midi": 69,
                    "time": 303.99005400000374,
                    "velocity": 0.5826771653543307,
                    "duration": 0.26251300000001265
                },
                {
                    "name": "E4",
                    "midi": 64,
                    "time": 303.99005400000374,
                    "velocity": 0.5826771653543307,
                    "duration": 0.26251300000001265
                },
                {
                    "name": "D2",
                    "midi": 38,
                    "time": 304.51508000000376,
                    "velocity": 0.6220472440944882,
                    "duration": 0.13125650000000633
                },
                {
                    "name": "A2",
                    "midi": 45,
                    "time": 304.51508000000376,
                    "velocity": 0.6220472440944882,
                    "duration": 0.13125650000000633
                },
                {
                    "name": "D3",
                    "midi": 50,
                    "time": 304.64633650000377,
                    "velocity": 0.5354330708661418,
                    "duration": 0.13125650000000633
                },
                {
                    "name": "F#3",
                    "midi": 54,
                    "time": 304.7775930000038,
                    "velocity": 0.5354330708661418,
                    "duration": 0.13125650000000633
                },
                {
                    "name": "A3",
                    "midi": 57,
                    "time": 304.9088495000038,
                    "velocity": 0.5354330708661418,
                    "duration": 0.13125650000000633
                },
                {
                    "name": "D4",
                    "midi": 62,
                    "time": 305.0401060000038,
                    "velocity": 0.5511811023622047,
                    "duration": 0.10500519999999369
                },
                {
                    "name": "A3",
                    "midi": 57,
                    "time": 305.1451112000038,
                    "velocity": 0.5511811023622047,
                    "duration": 0.10500519999999369
                },
                {
                    "name": "F#3",
                    "midi": 54,
                    "time": 305.2501164000038,
                    "velocity": 0.5433070866141733,
                    "duration": 0.10500519999999369
                },
                {
                    "name": "D3",
                    "midi": 50,
                    "time": 305.35512160000377,
                    "velocity": 0.5354330708661418,
                    "duration": 0.10500519999999369
                },
                {
                    "name": "A2",
                    "midi": 45,
                    "time": 305.46012680000376,
                    "velocity": 0.5354330708661418,
                    "duration": 0.10500519999999369
                },
                {
                    "name": "D2",
                    "midi": 38,
                    "time": 305.56513200000376,
                    "velocity": 0.5039370078740157,
                    "duration": 0.10500519999999369
                },
                {
                    "name": "A2",
                    "midi": 45,
                    "time": 305.67013720000375,
                    "velocity": 0.5433070866141733,
                    "duration": 0.10500519999999369
                },
                {
                    "name": "D3",
                    "midi": 50,
                    "time": 305.77514240000374,
                    "velocity": 0.5511811023622047,
                    "duration": 0.10500519999999369
                },
                {
                    "name": "F#3",
                    "midi": 54,
                    "time": 305.88014760000374,
                    "velocity": 0.5590551181102362,
                    "duration": 0.10500519999999369
                },
                {
                    "name": "A3",
                    "midi": 57,
                    "time": 305.98515280000373,
                    "velocity": 0.5748031496062992,
                    "duration": 0.10500519999999369
                },
                {
                    "name": "D4",
                    "midi": 62,
                    "time": 306.0901580000037,
                    "velocity": 0.5905511811023622,
                    "duration": 0.26251300000001265
                },
                {
                    "name": "D2",
                    "midi": 38,
                    "time": 306.61518400000375,
                    "velocity": 0.6062992125984252,
                    "duration": 0.26251300000001265
                },
                {
                    "name": "A2",
                    "midi": 45,
                    "time": 306.61518400000375,
                    "velocity": 0.6062992125984252,
                    "duration": 0.26251300000001265
                },
                {
                    "name": "D3",
                    "midi": 50,
                    "time": 306.61518400000375,
                    "velocity": 0.6062992125984252,
                    "duration": 0.26251300000001265
                },
                {
                    "name": "D4",
                    "midi": 62,
                    "time": 306.87769700000376,
                    "velocity": 0.5354330708661418,
                    "duration": 0.5250260000000253
                },
                {
                    "name": "A3",
                    "midi": 57,
                    "time": 306.87769700000376,
                    "velocity": 0.5354330708661418,
                    "duration": 0.5250260000000253
                },
                {
                    "name": "F#3",
                    "midi": 54,
                    "time": 306.87769700000376,
                    "velocity": 0.5354330708661418,
                    "duration": 0.5250260000000253
                },
                {
                    "name": "F#4",
                    "midi": 66,
                    "time": 307.4027230000038,
                    "velocity": 0.5354330708661418,
                    "duration": 0.5250260000000253
                },
                {
                    "name": "D4",
                    "midi": 62,
                    "time": 307.4027230000038,
                    "velocity": 0.5354330708661418,
                    "duration": 0.5250260000000253
                },
                {
                    "name": "A3",
                    "midi": 57,
                    "time": 307.4027230000038,
                    "velocity": 0.5354330708661418,
                    "duration": 0.5250260000000253
                },
                {
                    "name": "A4",
                    "midi": 69,
                    "time": 307.9277490000038,
                    "velocity": 0.5354330708661418,
                    "duration": 0.26251300000001265
                },
                {
                    "name": "F#4",
                    "midi": 66,
                    "time": 307.9277490000038,
                    "velocity": 0.5354330708661418,
                    "duration": 0.26251300000001265
                },
                {
                    "name": "D4",
                    "midi": 62,
                    "time": 307.9277490000038,
                    "velocity": 0.5354330708661418,
                    "duration": 0.26251300000001265
                },
                {
                    "name": "B1",
                    "midi": 35,
                    "time": 308.71528800000385,
                    "velocity": 0.5196850393700787,
                    "duration": 0.0875043333333565
                },
                {
                    "name": "F#2",
                    "midi": 42,
                    "time": 308.8027923333372,
                    "velocity": 0.4645669291338583,
                    "duration": 0.0875043333333565
                },
                {
                    "name": "B2",
                    "midi": 47,
                    "time": 308.89029666667057,
                    "velocity": 0.4645669291338583,
                    "duration": 0.0875043333333565
                },
                {
                    "name": "D3",
                    "midi": 50,
                    "time": 308.9778010000039,
                    "velocity": 0.4645669291338583,
                    "duration": 0.0875043333333565
                },
                {
                    "name": "F#3",
                    "midi": 54,
                    "time": 309.0653053333373,
                    "velocity": 0.4645669291338583,
                    "duration": 0.0875043333333565
                },
                {
                    "name": "B3",
                    "midi": 59,
                    "time": 309.15280966667063,
                    "velocity": 0.4645669291338583,
                    "duration": 0.0875043333333565
                },
                {
                    "name": "D4",
                    "midi": 62,
                    "time": 309.240314000004,
                    "velocity": 0.4645669291338583,
                    "duration": 0.26251300000001265
                },
                {
                    "name": "E2",
                    "midi": 40,
                    "time": 309.765340000004,
                    "velocity": 0.5196850393700787,
                    "duration": 0.10500519999999369
                },
                {
                    "name": "B2",
                    "midi": 47,
                    "time": 309.870345200004,
                    "velocity": 0.4645669291338583,
                    "duration": 0.10500519999999369
                },
                {
                    "name": "E3",
                    "midi": 52,
                    "time": 309.975350400004,
                    "velocity": 0.4645669291338583,
                    "duration": 0.10500519999999369
                },
                {
                    "name": "G#3",
                    "midi": 56,
                    "time": 310.080355600004,
                    "velocity": 0.4645669291338583,
                    "duration": 0.10500519999999369
                },
                {
                    "name": "D4",
                    "midi": 62,
                    "time": 310.185360800004,
                    "velocity": 0.4645669291338583,
                    "duration": 0.10500519999999369
                },
                {
                    "name": "F#4",
                    "midi": 66,
                    "time": 310.290366000004,
                    "velocity": 0.4645669291338583,
                    "duration": 0.26251300000001265
                },
                {
                    "name": "A1",
                    "midi": 33,
                    "time": 310.815392000004,
                    "velocity": 0.5905511811023622,
                    "duration": 0.26251300000001265
                },
                {
                    "name": "E2",
                    "midi": 40,
                    "time": 310.815392000004,
                    "velocity": 0.5905511811023622,
                    "duration": 0.26251300000001265
                },
                {
                    "name": "A2",
                    "midi": 45,
                    "time": 310.815392000004,
                    "velocity": 0.5905511811023622,
                    "duration": 0.26251300000001265
                },
                {
                    "name": "C#4",
                    "midi": 61,
                    "time": 311.077905000004,
                    "velocity": 0.5039370078740157,
                    "duration": 0.5250260000000253
                },
                {
                    "name": "A3",
                    "midi": 57,
                    "time": 311.077905000004,
                    "velocity": 0.5039370078740157,
                    "duration": 0.5250260000000253
                },
                {
                    "name": "E3",
                    "midi": 52,
                    "time": 311.077905000004,
                    "velocity": 0.5039370078740157,
                    "duration": 0.5250260000000253
                },
                {
                    "name": "E4",
                    "midi": 64,
                    "time": 311.60293100000405,
                    "velocity": 0.5039370078740157,
                    "duration": 0.5250260000000253
                },
                {
                    "name": "C#4",
                    "midi": 61,
                    "time": 311.60293100000405,
                    "velocity": 0.5039370078740157,
                    "duration": 0.5250260000000253
                },
                {
                    "name": "A3",
                    "midi": 57,
                    "time": 311.60293100000405,
                    "velocity": 0.5039370078740157,
                    "duration": 0.5250260000000253
                },
                {
                    "name": "A4",
                    "midi": 69,
                    "time": 312.1279570000041,
                    "velocity": 0.5039370078740157,
                    "duration": 0.26251300000001265
                },
                {
                    "name": "E4",
                    "midi": 64,
                    "time": 312.1279570000041,
                    "velocity": 0.5039370078740157,
                    "duration": 0.26251300000001265
                },
                {
                    "name": "C#4",
                    "midi": 61,
                    "time": 312.1279570000041,
                    "velocity": 0.5039370078740157,
                    "duration": 0.26251300000001265
                },
                {
                    "name": "G2",
                    "midi": 43,
                    "time": 312.9154960000041,
                    "velocity": 0.5118110236220472,
                    "duration": 0.13125650000000633
                },
                {
                    "name": "D3",
                    "midi": 50,
                    "time": 312.9154960000041,
                    "velocity": 0.5118110236220472,
                    "duration": 0.13125650000000633
                },
                {
                    "name": "G3",
                    "midi": 55,
                    "time": 313.0467525000041,
                    "velocity": 0.44881889763779526,
                    "duration": 0.13125650000000633
                },
                {
                    "name": "B3",
                    "midi": 59,
                    "time": 313.1780090000041,
                    "velocity": 0.44881889763779526,
                    "duration": 0.13125650000000633
                },
                {
                    "name": "D4",
                    "midi": 62,
                    "time": 313.30926550000413,
                    "velocity": 0.44881889763779526,
                    "duration": 0.13125650000000633
                },
                {
                    "name": "G4",
                    "midi": 67,
                    "time": 313.44052200000414,
                    "velocity": 0.5118110236220472,
                    "duration": 0.10500519999999369
                },
                {
                    "name": "D4",
                    "midi": 62,
                    "time": 313.54552720000413,
                    "velocity": 0.4645669291338583,
                    "duration": 0.10500519999999369
                },
                {
                    "name": "B3",
                    "midi": 59,
                    "time": 313.6505324000041,
                    "velocity": 0.4566929133858268,
                    "duration": 0.10500519999999369
                },
                {
                    "name": "G3",
                    "midi": 55,
                    "time": 313.7555376000041,
                    "velocity": 0.4566929133858268,
                    "duration": 0.10500519999999369
                },
                {
                    "name": "D3",
                    "midi": 50,
                    "time": 313.8605428000041,
                    "velocity": 0.44881889763779526,
                    "duration": 0.10500519999999369
                },
                {
                    "name": "G2",
                    "midi": 43,
                    "time": 313.9655480000041,
                    "velocity": 0.4409448818897638,
                    "duration": 0.10500519999999369
                },
                {
                    "name": "B2",
                    "midi": 47,
                    "time": 314.0705532000041,
                    "velocity": 0.4409448818897638,
                    "duration": 0.10500519999999369
                },
                {
                    "name": "G3",
                    "midi": 55,
                    "time": 314.1755584000041,
                    "velocity": 0.44881889763779526,
                    "duration": 0.10500519999999369
                },
                {
                    "name": "B3",
                    "midi": 59,
                    "time": 314.2805636000041,
                    "velocity": 0.44881889763779526,
                    "duration": 0.10500519999999369
                },
                {
                    "name": "D4",
                    "midi": 62,
                    "time": 314.3855688000041,
                    "velocity": 0.44881889763779526,
                    "duration": 0.10500519999999369
                },
                {
                    "name": "G4",
                    "midi": 67,
                    "time": 314.4905740000041,
                    "velocity": 0.44881889763779526,
                    "duration": 0.26251300000001265
                },
                {
                    "name": "E2",
                    "midi": 40,
                    "time": 315.0156000000041,
                    "velocity": 0.5748031496062992,
                    "duration": 0.26251300000001265
                },
                {
                    "name": "B2",
                    "midi": 47,
                    "time": 315.0156000000041,
                    "velocity": 0.5748031496062992,
                    "duration": 0.26251300000001265
                },
                {
                    "name": "E3",
                    "midi": 52,
                    "time": 315.0156000000041,
                    "velocity": 0.5748031496062992,
                    "duration": 0.26251300000001265
                },
                {
                    "name": "F#4",
                    "midi": 66,
                    "time": 315.2781130000041,
                    "velocity": 0.4881889763779528,
                    "duration": 0.5250260000000253
                },
                {
                    "name": "D4",
                    "midi": 62,
                    "time": 315.2781130000041,
                    "velocity": 0.4881889763779528,
                    "duration": 0.5250260000000253
                },
                {
                    "name": "B3",
                    "midi": 59,
                    "time": 315.2781130000041,
                    "velocity": 0.4881889763779528,
                    "duration": 0.5250260000000253
                },
                {
                    "name": "G3",
                    "midi": 55,
                    "time": 315.2781130000041,
                    "velocity": 0.4881889763779528,
                    "duration": 0.5250260000000253
                },
                {
                    "name": "G4",
                    "midi": 67,
                    "time": 315.80313900000414,
                    "velocity": 0.4881889763779528,
                    "duration": 0.5250260000000253
                },
                {
                    "name": "F#4",
                    "midi": 66,
                    "time": 315.80313900000414,
                    "velocity": 0.4881889763779528,
                    "duration": 0.5250260000000253
                },
                {
                    "name": "D4",
                    "midi": 62,
                    "time": 315.80313900000414,
                    "velocity": 0.4881889763779528,
                    "duration": 0.5250260000000253
                },
                {
                    "name": "B3",
                    "midi": 59,
                    "time": 315.80313900000414,
                    "velocity": 0.4881889763779528,
                    "duration": 0.5250260000000253
                },
                {
                    "name": "B4",
                    "midi": 71,
                    "time": 316.32816500000416,
                    "velocity": 0.4881889763779528,
                    "duration": 0.26251300000001265
                },
                {
                    "name": "G4",
                    "midi": 67,
                    "time": 316.32816500000416,
                    "velocity": 0.4881889763779528,
                    "duration": 0.26251300000001265
                },
                {
                    "name": "F#4",
                    "midi": 66,
                    "time": 316.32816500000416,
                    "velocity": 0.4881889763779528,
                    "duration": 0.26251300000001265
                },
                {
                    "name": "D4",
                    "midi": 62,
                    "time": 316.32816500000416,
                    "velocity": 0.4881889763779528,
                    "duration": 0.26251300000001265
                },
                {
                    "name": "A2",
                    "midi": 45,
                    "time": 317.1157040000042,
                    "velocity": 0.5433070866141733,
                    "duration": 0.10500519999999369
                },
                {
                    "name": "E3",
                    "midi": 52,
                    "time": 317.2207092000042,
                    "velocity": 0.47244094488188976,
                    "duration": 0.10500519999999369
                },
                {
                    "name": "A3",
                    "midi": 57,
                    "time": 317.3257144000042,
                    "velocity": 0.47244094488188976,
                    "duration": 0.10500519999999369
                },
                {
                    "name": "D4",
                    "midi": 62,
                    "time": 317.4307196000042,
                    "velocity": 0.47244094488188976,
                    "duration": 0.10500519999999369
                },
                {
                    "name": "G4",
                    "midi": 67,
                    "time": 317.5357248000042,
                    "velocity": 0.47244094488188976,
                    "duration": 0.10500519999999369
                },
                {
                    "name": "B4",
                    "midi": 71,
                    "time": 317.64073000000417,
                    "velocity": 0.47244094488188976,
                    "duration": 0.26251300000001265
                },
                {
                    "name": "A2",
                    "midi": 45,
                    "time": 318.1657560000042,
                    "velocity": 0.5433070866141733,
                    "duration": 0.10500519999999369
                },
                {
                    "name": "E3",
                    "midi": 52,
                    "time": 318.2707612000042,
                    "velocity": 0.47244094488188976,
                    "duration": 0.10500519999999369
                },
                {
                    "name": "A3",
                    "midi": 57,
                    "time": 318.3757664000042,
                    "velocity": 0.47244094488188976,
                    "duration": 0.10500519999999369
                },
                {
                    "name": "D4",
                    "midi": 62,
                    "time": 318.4807716000042,
                    "velocity": 0.47244094488188976,
                    "duration": 0.10500519999999369
                },
                {
                    "name": "G4",
                    "midi": 67,
                    "time": 318.58577680000417,
                    "velocity": 0.47244094488188976,
                    "duration": 0.10500519999999369
                },
                {
                    "name": "B4",
                    "midi": 71,
                    "time": 318.69078200000416,
                    "velocity": 0.47244094488188976,
                    "duration": 0.26251300000001265
                },
                {
                    "name": "D2",
                    "midi": 38,
                    "time": 319.2158080000042,
                    "velocity": 0.5905511811023622,
                    "duration": 0.26251300000001265
                },
                {
                    "name": "A2",
                    "midi": 45,
                    "time": 319.2158080000042,
                    "velocity": 0.5905511811023622,
                    "duration": 0.26251300000001265
                },
                {
                    "name": "D3",
                    "midi": 50,
                    "time": 319.2158080000042,
                    "velocity": 0.5905511811023622,
                    "duration": 0.26251300000001265
                },
                {
                    "name": "F#4",
                    "midi": 66,
                    "time": 319.4783210000042,
                    "velocity": 0.5039370078740157,
                    "duration": 0.5250260000000253
                },
                {
                    "name": "D4",
                    "midi": 62,
                    "time": 319.4783210000042,
                    "velocity": 0.5039370078740157,
                    "duration": 0.5250260000000253
                },
                {
                    "name": "A3",
                    "midi": 57,
                    "time": 319.4783210000042,
                    "velocity": 0.5039370078740157,
                    "duration": 0.5250260000000253
                },
                {
                    "name": "A4",
                    "midi": 69,
                    "time": 320.0033470000042,
                    "velocity": 0.5039370078740157,
                    "duration": 0.5250260000000253
                },
                {
                    "name": "F#4",
                    "midi": 66,
                    "time": 320.0033470000042,
                    "velocity": 0.5039370078740157,
                    "duration": 0.5250260000000253
                },
                {
                    "name": "D4",
                    "midi": 62,
                    "time": 320.0033470000042,
                    "velocity": 0.5039370078740157,
                    "duration": 0.5250260000000253
                },
                {
                    "name": "F#4",
                    "midi": 66,
                    "time": 320.52837300000425,
                    "velocity": 0.4881889763779528,
                    "duration": 0.26251300000001265
                },
                {
                    "name": "A4",
                    "midi": 69,
                    "time": 320.52837300000425,
                    "velocity": 0.4881889763779528,
                    "duration": 0.26251300000001265
                },
                {
                    "name": "D5",
                    "midi": 74,
                    "time": 320.52837300000425,
                    "velocity": 0.4881889763779528,
                    "duration": 0.26251300000001265
                },
                {
                    "name": "D2",
                    "midi": 38,
                    "time": 321.3159120000043,
                    "velocity": 0.4330708661417323,
                    "duration": 0.19688474999998107
                },
                {
                    "name": "A2",
                    "midi": 45,
                    "time": 321.3159120000043,
                    "velocity": 0.4330708661417323,
                    "duration": 0.19688474999998107
                },
                {
                    "name": "A1",
                    "midi": 33,
                    "time": 321.57842500000424,
                    "velocity": 0.3779527559055118,
                    "duration": 0.19688474999998107
                },
                {
                    "name": "A2",
                    "midi": 45,
                    "time": 321.57842500000424,
                    "velocity": 0.3779527559055118,
                    "duration": 0.19688474999998107
                },
                {
                    "name": "D2",
                    "midi": 38,
                    "time": 321.8409380000042,
                    "velocity": 0.4330708661417323,
                    "duration": 0.19688474999998107
                },
                {
                    "name": "A2",
                    "midi": 45,
                    "time": 321.8409380000042,
                    "velocity": 0.4330708661417323,
                    "duration": 0.19688474999998107
                },
                {
                    "name": "A1",
                    "midi": 33,
                    "time": 322.10345100000416,
                    "velocity": 0.3779527559055118,
                    "duration": 0.19688474999998107
                },
                {
                    "name": "A2",
                    "midi": 45,
                    "time": 322.10345100000416,
                    "velocity": 0.3779527559055118,
                    "duration": 0.19688474999998107
                },
                {
                    "name": "D2",
                    "midi": 38,
                    "time": 322.3659640000041,
                    "velocity": 0.4094488188976378,
                    "duration": 0.19688474999998107
                },
                {
                    "name": "A2",
                    "midi": 45,
                    "time": 322.3659640000041,
                    "velocity": 0.4094488188976378,
                    "duration": 0.19688474999998107
                },
                {
                    "name": "A1",
                    "midi": 33,
                    "time": 322.62847700000407,
                    "velocity": 0.3779527559055118,
                    "duration": 0.19688474999998107
                },
                {
                    "name": "A2",
                    "midi": 45,
                    "time": 322.62847700000407,
                    "velocity": 0.3779527559055118,
                    "duration": 0.19688474999998107
                },
                {
                    "name": "D2",
                    "midi": 38,
                    "time": 322.890990000004,
                    "velocity": 0.4330708661417323,
                    "duration": 0.19688474999998107
                },
                {
                    "name": "A2",
                    "midi": 45,
                    "time": 322.890990000004,
                    "velocity": 0.4330708661417323,
                    "duration": 0.19688474999998107
                },
                {
                    "name": "A1",
                    "midi": 33,
                    "time": 323.153503000004,
                    "velocity": 0.36220472440944884,
                    "duration": 0.19688474999998107
                },
                {
                    "name": "A2",
                    "midi": 45,
                    "time": 323.153503000004,
                    "velocity": 0.36220472440944884,
                    "duration": 0.19688474999998107
                },
                {
                    "name": "D2",
                    "midi": 38,
                    "time": 323.41601600000394,
                    "velocity": 0.4015748031496063,
                    "duration": 0.19688474999998107
                },
                {
                    "name": "A2",
                    "midi": 45,
                    "time": 323.41601600000394,
                    "velocity": 0.4015748031496063,
                    "duration": 0.19688474999998107
                },
                {
                    "name": "A1",
                    "midi": 33,
                    "time": 323.6785290000039,
                    "velocity": 0.4094488188976378,
                    "duration": 0.19688474999998107
                },
                {
                    "name": "D2",
                    "midi": 38,
                    "time": 323.94104200000385,
                    "velocity": 0.4015748031496063,
                    "duration": 0.19688474999998107
                },
                {
                    "name": "A2",
                    "midi": 45,
                    "time": 323.94104200000385,
                    "velocity": 0.4015748031496063,
                    "duration": 0.19688474999998107
                },
                {
                    "name": "A1",
                    "midi": 33,
                    "time": 324.2035550000038,
                    "velocity": 0.4094488188976378,
                    "duration": 0.19688474999998107
                },
                {
                    "name": "D2",
                    "midi": 38,
                    "time": 324.46606800000376,
                    "velocity": 0.4015748031496063,
                    "duration": 0.19688474999998107
                },
                {
                    "name": "A2",
                    "midi": 45,
                    "time": 324.46606800000376,
                    "velocity": 0.4015748031496063,
                    "duration": 0.19688474999998107
                },
                {
                    "name": "A1",
                    "midi": 33,
                    "time": 324.7285810000037,
                    "velocity": 0.4015748031496063,
                    "duration": 0.19688474999998107
                },
                {
                    "name": "D2",
                    "midi": 38,
                    "time": 324.99109400000367,
                    "velocity": 0.4015748031496063,
                    "duration": 0.19688474999998107
                },
                {
                    "name": "A2",
                    "midi": 45,
                    "time": 324.99109400000367,
                    "velocity": 0.4015748031496063,
                    "duration": 0.19688474999998107
                },
                {
                    "name": "A1",
                    "midi": 33,
                    "time": 325.2536070000036,
                    "velocity": 0.4094488188976378,
                    "duration": 0.19688474999998107
                },
                {
                    "name": "D2",
                    "midi": 38,
                    "time": 325.5161200000036,
                    "velocity": 0.4330708661417323,
                    "duration": 0.19688474999998107
                },
                {
                    "name": "A2",
                    "midi": 45,
                    "time": 325.5161200000036,
                    "velocity": 0.4330708661417323,
                    "duration": 0.19688474999998107
                },
                {
                    "name": "A1",
                    "midi": 33,
                    "time": 325.77863300000354,
                    "velocity": 0.3779527559055118,
                    "duration": 0.19688474999998107
                },
                {
                    "name": "A2",
                    "midi": 45,
                    "time": 325.77863300000354,
                    "velocity": 0.3779527559055118,
                    "duration": 0.19688474999998107
                },
                {
                    "name": "D2",
                    "midi": 38,
                    "time": 326.0411460000035,
                    "velocity": 0.4330708661417323,
                    "duration": 0.19688474999998107
                },
                {
                    "name": "A2",
                    "midi": 45,
                    "time": 326.0411460000035,
                    "velocity": 0.4330708661417323,
                    "duration": 0.19688474999998107
                },
                {
                    "name": "A1",
                    "midi": 33,
                    "time": 326.30365900000345,
                    "velocity": 0.3779527559055118,
                    "duration": 0.19688474999998107
                },
                {
                    "name": "A2",
                    "midi": 45,
                    "time": 326.30365900000345,
                    "velocity": 0.3779527559055118,
                    "duration": 0.19688474999998107
                },
                {
                    "name": "D2",
                    "midi": 38,
                    "time": 326.5661720000034,
                    "velocity": 0.41732283464566927,
                    "duration": 0.19688474999998107
                },
                {
                    "name": "A2",
                    "midi": 45,
                    "time": 326.5661720000034,
                    "velocity": 0.41732283464566927,
                    "duration": 0.19688474999998107
                },
                {
                    "name": "A1",
                    "midi": 33,
                    "time": 326.82868500000336,
                    "velocity": 0.3779527559055118,
                    "duration": 0.19688474999998107
                },
                {
                    "name": "A2",
                    "midi": 45,
                    "time": 326.82868500000336,
                    "velocity": 0.3779527559055118,
                    "duration": 0.19688474999998107
                },
                {
                    "name": "D2",
                    "midi": 38,
                    "time": 327.0911980000033,
                    "velocity": 0.41732283464566927,
                    "duration": 0.19688474999998107
                },
                {
                    "name": "A2",
                    "midi": 45,
                    "time": 327.0911980000033,
                    "velocity": 0.41732283464566927,
                    "duration": 0.19688474999998107
                },
                {
                    "name": "A1",
                    "midi": 33,
                    "time": 327.3537110000033,
                    "velocity": 0.36220472440944884,
                    "duration": 0.19688474999998107
                },
                {
                    "name": "A2",
                    "midi": 45,
                    "time": 327.3537110000033,
                    "velocity": 0.36220472440944884,
                    "duration": 0.19688474999998107
                },
                {
                    "name": "D2",
                    "midi": 38,
                    "time": 327.6162240000032,
                    "velocity": 0.4015748031496063,
                    "duration": 0.19688474999998107
                },
                {
                    "name": "A2",
                    "midi": 45,
                    "time": 327.6162240000032,
                    "velocity": 0.4015748031496063,
                    "duration": 0.19688474999998107
                },
                {
                    "name": "A1",
                    "midi": 33,
                    "time": 327.8787370000032,
                    "velocity": 0.4094488188976378,
                    "duration": 0.19688474999998107
                },
                {
                    "name": "D2",
                    "midi": 38,
                    "time": 328.14125000000314,
                    "velocity": 0.4015748031496063,
                    "duration": 0.19688474999998107
                },
                {
                    "name": "A2",
                    "midi": 45,
                    "time": 328.14125000000314,
                    "velocity": 0.4015748031496063,
                    "duration": 0.19688474999998107
                },
                {
                    "name": "A1",
                    "midi": 33,
                    "time": 328.4037630000031,
                    "velocity": 0.4094488188976378,
                    "duration": 0.19688474999998107
                },
                {
                    "name": "D2",
                    "midi": 38,
                    "time": 328.66627600000305,
                    "velocity": 0.4015748031496063,
                    "duration": 0.19688474999998107
                },
                {
                    "name": "A2",
                    "midi": 45,
                    "time": 328.66627600000305,
                    "velocity": 0.4015748031496063,
                    "duration": 0.19688474999998107
                },
                {
                    "name": "A1",
                    "midi": 33,
                    "time": 328.928789000003,
                    "velocity": 0.4015748031496063,
                    "duration": 0.19688474999998107
                },
                {
                    "name": "D2",
                    "midi": 38,
                    "time": 329.19130200000296,
                    "velocity": 0.4015748031496063,
                    "duration": 0.19688474999998107
                },
                {
                    "name": "A2",
                    "midi": 45,
                    "time": 329.19130200000296,
                    "velocity": 0.4015748031496063,
                    "duration": 0.19688474999998107
                },
                {
                    "name": "A1",
                    "midi": 33,
                    "time": 329.4538150000029,
                    "velocity": 0.31496062992125984,
                    "duration": 0.19688474999998107
                },
                {
                    "name": "D2",
                    "midi": 38,
                    "time": 329.7163280000029,
                    "velocity": 0.3464566929133858,
                    "duration": 0.19688474999998107
                },
                {
                    "name": "A2",
                    "midi": 45,
                    "time": 329.7163280000029,
                    "velocity": 0.3464566929133858,
                    "duration": 0.19688474999998107
                },
                {
                    "name": "A1",
                    "midi": 33,
                    "time": 329.97884100000283,
                    "velocity": 0.2992125984251969,
                    "duration": 0.19688474999998107
                },
                {
                    "name": "A2",
                    "midi": 45,
                    "time": 329.97884100000283,
                    "velocity": 0.2992125984251969,
                    "duration": 0.19688474999998107
                },
                {
                    "name": "D2",
                    "midi": 38,
                    "time": 330.2413540000028,
                    "velocity": 0.3464566929133858,
                    "duration": 0.19688474999998107
                },
                {
                    "name": "A2",
                    "midi": 45,
                    "time": 330.2413540000028,
                    "velocity": 0.3464566929133858,
                    "duration": 0.19688474999998107
                },
                {
                    "name": "A1",
                    "midi": 33,
                    "time": 330.50386700000274,
                    "velocity": 0.2992125984251969,
                    "duration": 0.19688474999998107
                },
                {
                    "name": "A2",
                    "midi": 45,
                    "time": 330.50386700000274,
                    "velocity": 0.2992125984251969,
                    "duration": 0.19688474999998107
                },
                {
                    "name": "D2",
                    "midi": 38,
                    "time": 330.7663800000027,
                    "velocity": 0.33070866141732286,
                    "duration": 0.19688474999998107
                },
                {
                    "name": "A2",
                    "midi": 45,
                    "time": 330.7663800000027,
                    "velocity": 0.33070866141732286,
                    "duration": 0.19688474999998107
                },
                {
                    "name": "A1",
                    "midi": 33,
                    "time": 331.02889300000265,
                    "velocity": 0.2992125984251969,
                    "duration": 0.19688474999998107
                },
                {
                    "name": "A2",
                    "midi": 45,
                    "time": 331.02889300000265,
                    "velocity": 0.2992125984251969,
                    "duration": 0.19688474999998107
                },
                {
                    "name": "D2",
                    "midi": 38,
                    "time": 331.2914060000026,
                    "velocity": 0.33070866141732286,
                    "duration": 0.19688474999998107
                },
                {
                    "name": "A2",
                    "midi": 45,
                    "time": 331.2914060000026,
                    "velocity": 0.33070866141732286,
                    "duration": 0.19688474999998107
                },
                {
                    "name": "A1",
                    "midi": 33,
                    "time": 331.55391900000257,
                    "velocity": 0.28346456692913385,
                    "duration": 0.19688474999998107
                },
                {
                    "name": "D2",
                    "midi": 38,
                    "time": 331.8164320000025,
                    "velocity": 0.30708661417322836,
                    "duration": 0.19688474999998107
                },
                {
                    "name": "A2",
                    "midi": 45,
                    "time": 331.8164320000025,
                    "velocity": 0.30708661417322836,
                    "duration": 0.19688474999998107
                },
                {
                    "name": "A1",
                    "midi": 33,
                    "time": 332.0789450000025,
                    "velocity": 0.31496062992125984,
                    "duration": 0.19688474999998107
                },
                {
                    "name": "D2",
                    "midi": 38,
                    "time": 332.34145800000243,
                    "velocity": 0.30708661417322836,
                    "duration": 0.19688474999998107
                },
                {
                    "name": "A2",
                    "midi": 45,
                    "time": 332.34145800000243,
                    "velocity": 0.30708661417322836,
                    "duration": 0.19688474999998107
                },
                {
                    "name": "A1",
                    "midi": 33,
                    "time": 332.6039710000024,
                    "velocity": 0.31496062992125984,
                    "duration": 0.19688474999998107
                },
                {
                    "name": "D2",
                    "midi": 38,
                    "time": 332.86648400000234,
                    "velocity": 0.30708661417322836,
                    "duration": 0.19688474999998107
                },
                {
                    "name": "A2",
                    "midi": 45,
                    "time": 332.86648400000234,
                    "velocity": 0.30708661417322836,
                    "duration": 0.19688474999998107
                },
                {
                    "name": "A1",
                    "midi": 33,
                    "time": 333.1289970000023,
                    "velocity": 0.30708661417322836,
                    "duration": 0.19688474999998107
                },
                {
                    "name": "D2",
                    "midi": 38,
                    "time": 333.39151000000226,
                    "velocity": 0.30708661417322836,
                    "duration": 0.19688474999998107
                },
                {
                    "name": "A2",
                    "midi": 45,
                    "time": 333.39151000000226,
                    "velocity": 0.30708661417322836,
                    "duration": 0.19688474999998107
                },
                {
                    "name": "A1",
                    "midi": 33,
                    "time": 333.6540230000022,
                    "velocity": 0.30708661417322836,
                    "duration": 0.19688474999998107
                },
                {
                    "name": "D2",
                    "midi": 38,
                    "time": 333.91653600000217,
                    "velocity": 0.3464566929133858,
                    "duration": 0.19688474999998107
                },
                {
                    "name": "A2",
                    "midi": 45,
                    "time": 333.91653600000217,
                    "velocity": 0.3464566929133858,
                    "duration": 0.19688474999998107
                },
                {
                    "name": "A1",
                    "midi": 33,
                    "time": 334.1790490000021,
                    "velocity": 0.2992125984251969,
                    "duration": 0.19688474999998107
                },
                {
                    "name": "D2",
                    "midi": 38,
                    "time": 334.4415620000021,
                    "velocity": 0.3464566929133858,
                    "duration": 0.19688474999998107
                },
                {
                    "name": "A2",
                    "midi": 45,
                    "time": 334.4415620000021,
                    "velocity": 0.3464566929133858,
                    "duration": 0.19688474999998107
                },
                {
                    "name": "A1",
                    "midi": 33,
                    "time": 334.70407500000204,
                    "velocity": 0.2992125984251969,
                    "duration": 0.19688474999998107
                },
                {
                    "name": "D2",
                    "midi": 38,
                    "time": 334.966588000002,
                    "velocity": 0.33070866141732286,
                    "duration": 0.19688474999998107
                },
                {
                    "name": "A2",
                    "midi": 45,
                    "time": 334.966588000002,
                    "velocity": 0.33070866141732286,
                    "duration": 0.19688474999998107
                },
                {
                    "name": "A1",
                    "midi": 33,
                    "time": 335.22910100000195,
                    "velocity": 0.2992125984251969,
                    "duration": 0.19688474999998107
                },
                {
                    "name": "D2",
                    "midi": 38,
                    "time": 335.4916140000019,
                    "velocity": 0.33070866141732286,
                    "duration": 0.19688474999998107
                },
                {
                    "name": "A2",
                    "midi": 45,
                    "time": 335.4916140000019,
                    "velocity": 0.33070866141732286,
                    "duration": 0.19688474999998107
                },
                {
                    "name": "A1",
                    "midi": 33,
                    "time": 335.75412700000186,
                    "velocity": 0.28346456692913385,
                    "duration": 0.19688474999998107
                },
                {
                    "name": "D2",
                    "midi": 38,
                    "time": 336.0166400000018,
                    "velocity": 0.30708661417322836,
                    "duration": 0.19688474999998107
                },
                {
                    "name": "A2",
                    "midi": 45,
                    "time": 336.0166400000018,
                    "velocity": 0.30708661417322836,
                    "duration": 0.19688474999998107
                },
                {
                    "name": "A1",
                    "midi": 33,
                    "time": 336.27915300000177,
                    "velocity": 0.31496062992125984,
                    "duration": 0.19688474999998107
                },
                {
                    "name": "D2",
                    "midi": 38,
                    "time": 336.5416660000017,
                    "velocity": 0.30708661417322836,
                    "duration": 0.19688474999998107
                },
                {
                    "name": "A2",
                    "midi": 45,
                    "time": 336.5416660000017,
                    "velocity": 0.30708661417322836,
                    "duration": 0.19688474999998107
                },
                {
                    "name": "A1",
                    "midi": 33,
                    "time": 336.8041790000017,
                    "velocity": 0.31496062992125984,
                    "duration": 0.19688474999998107
                },
                {
                    "name": "D2",
                    "midi": 38,
                    "time": 337.06669200000164,
                    "velocity": 0.30708661417322836,
                    "duration": 0.19688474999998107
                },
                {
                    "name": "A2",
                    "midi": 45,
                    "time": 337.06669200000164,
                    "velocity": 0.30708661417322836,
                    "duration": 0.19688474999998107
                },
                {
                    "name": "A1",
                    "midi": 33,
                    "time": 337.3292050000016,
                    "velocity": 0.30708661417322836,
                    "duration": 0.19688474999998107
                },
                {
                    "name": "D2",
                    "midi": 38,
                    "time": 337.59171800000155,
                    "velocity": 0.30708661417322836,
                    "duration": 0.19688474999998107
                },
                {
                    "name": "A2",
                    "midi": 45,
                    "time": 337.59171800000155,
                    "velocity": 0.30708661417322836,
                    "duration": 0.19688474999998107
                },
                {
                    "name": "A1",
                    "midi": 33,
                    "time": 337.8542310000015,
                    "velocity": 0.30708661417322836,
                    "duration": 0.19688474999998107
                },
                {
                    "name": "D2",
                    "midi": 38,
                    "time": 338.11674400000146,
                    "velocity": 0.2755905511811024,
                    "duration": 0.19688474999998107
                },
                {
                    "name": "A2",
                    "midi": 45,
                    "time": 338.11674400000146,
                    "velocity": 0.2755905511811024,
                    "duration": 0.19688474999998107
                },
                {
                    "name": "A1",
                    "midi": 33,
                    "time": 338.3792570000014,
                    "velocity": 0.28346456692913385,
                    "duration": 0.19688474999998107
                },
                {
                    "name": "D2",
                    "midi": 38,
                    "time": 338.6417700000014,
                    "velocity": 0.2755905511811024,
                    "duration": 0.19688474999998107
                },
                {
                    "name": "A2",
                    "midi": 45,
                    "time": 338.6417700000014,
                    "velocity": 0.2755905511811024,
                    "duration": 0.19688474999998107
                },
                {
                    "name": "A1",
                    "midi": 33,
                    "time": 338.9042830000013,
                    "velocity": 0.28346456692913385,
                    "duration": 0.19688474999998107
                },
                {
                    "name": "D2",
                    "midi": 38,
                    "time": 339.1667960000013,
                    "velocity": 0.2755905511811024,
                    "duration": 0.19688474999998107
                },
                {
                    "name": "A2",
                    "midi": 45,
                    "time": 339.1667960000013,
                    "velocity": 0.2755905511811024,
                    "duration": 0.19688474999998107
                },
                {
                    "name": "A1",
                    "midi": 33,
                    "time": 339.42930900000124,
                    "velocity": 0.2755905511811024,
                    "duration": 0.19688474999998107
                },
                {
                    "name": "D2",
                    "midi": 38,
                    "time": 339.6918220000012,
                    "velocity": 0.2755905511811024,
                    "duration": 0.19688474999998107
                },
                {
                    "name": "A2",
                    "midi": 45,
                    "time": 339.6918220000012,
                    "velocity": 0.2755905511811024,
                    "duration": 0.19688474999998107
                },
                {
                    "name": "A1",
                    "midi": 33,
                    "time": 339.95433500000115,
                    "velocity": 0.2755905511811024,
                    "duration": 0.19688474999998107
                },
                {
                    "name": "D2",
                    "midi": 38,
                    "time": 340.2168480000011,
                    "velocity": 0.2755905511811024,
                    "duration": 0.13125650000000633
                },
                {
                    "name": "A2",
                    "midi": 45,
                    "time": 340.2168480000011,
                    "velocity": 0.2755905511811024,
                    "duration": 0.13125650000000633
                },
                {
                    "name": "A1",
                    "midi": 33,
                    "time": 340.74187400000113,
                    "velocity": 0.28346456692913385,
                    "duration": 0.13125650000000633
                },
                {
                    "name": "D2",
                    "midi": 38,
                    "time": 341.26690000000116,
                    "velocity": 0.2755905511811024,
                    "duration": 0.13125650000000633
                },
                {
                    "name": "A2",
                    "midi": 45,
                    "time": 341.26690000000116,
                    "velocity": 0.2755905511811024,
                    "duration": 0.13125650000000633
                },
                {
                    "name": "A1",
                    "midi": 33,
                    "time": 341.7919260000012,
                    "velocity": 0.2755905511811024,
                    "duration": 0.13125650000000633
                },
                {
                    "name": "D2",
                    "midi": 38,
                    "time": 342.3169520000012,
                    "velocity": 0.2755905511811024,
                    "duration": 0.13125650000000633
                },
                {
                    "name": "A2",
                    "midi": 45,
                    "time": 342.3169520000012,
                    "velocity": 0.2755905511811024,
                    "duration": 0.13125650000000633
                },
                {
                    "name": "A1",
                    "midi": 33,
                    "time": 342.84197800000123,
                    "velocity": 0.2677165354330709,
                    "duration": 0.13125650000000633
                },
                {
                    "name": "D2",
                    "midi": 38,
                    "time": 343.36700400000126,
                    "velocity": 0.2755905511811024,
                    "duration": 0.13125650000000633
                },
                {
                    "name": "A2",
                    "midi": 45,
                    "time": 343.36700400000126,
                    "velocity": 0.2755905511811024,
                    "duration": 0.13125650000000633
                },
                {
                    "name": "A1",
                    "midi": 33,
                    "time": 343.8920300000013,
                    "velocity": 0.2755905511811024,
                    "duration": 0.13125650000000633
                },
                {
                    "name": "D2",
                    "midi": 38,
                    "time": 344.4170560000013,
                    "velocity": 0.2755905511811024,
                    "duration": 0.26251300000001265
                },
                {
                    "name": "A2",
                    "midi": 45,
                    "time": 344.4170560000013,
                    "velocity": 0.2755905511811024,
                    "duration": 0.26251300000001265
                },
                {
                    "name": "A3",
                    "midi": 57,
                    "time": 345.4671080000013,
                    "velocity": 0.2755905511811024,
                    "duration": 0.26251300000001265
                },
                {
                    "name": "D3",
                    "midi": 50,
                    "time": 345.4671080000013,
                    "velocity": 0.2755905511811024,
                    "duration": 0.26251300000001265
                },
                {
                    "name": "D4",
                    "midi": 62,
                    "time": 346.5171600000013,
                    "velocity": 0.2755905511811024,
                    "duration": 0.26251300000001265
                },
                {
                    "name": "A4",
                    "midi": 69,
                    "time": 346.5171600000013,
                    "velocity": 0.2755905511811024,
                    "duration": 0.26251300000001265
                },
                {
                    "name": "A5",
                    "midi": 81,
                    "time": 347.5672120000013,
                    "velocity": 0.2992125984251969,
                    "duration": 0.26251300000001265
                },
                {
                    "name": "D5",
                    "midi": 74,
                    "time": 347.5672120000013,
                    "velocity": 0.2992125984251969,
                    "duration": 0.26251300000001265
                },
                {
                    "name": "A6",
                    "midi": 93,
                    "time": 348.6172640000013,
                    "velocity": 0.33070866141732286,
                    "duration": 0.26251300000001265
                },
                {
                    "name": "D6",
                    "midi": 86,
                    "time": 348.6172640000013,
                    "velocity": 0.33070866141732286,
                    "duration": 0.26251300000001265
                },
                {
                    "name": "A5",
                    "midi": 81,
                    "time": 349.6673160000013,
                    "velocity": 0.30708661417322836,
                    "duration": 0.26251300000001265
                },
                {
                    "name": "D5",
                    "midi": 74,
                    "time": 349.6673160000013,
                    "velocity": 0.30708661417322836,
                    "duration": 0.26251300000001265
                },
                {
                    "name": "D4",
                    "midi": 62,
                    "time": 350.7173680000013,
                    "velocity": 0.2755905511811024,
                    "duration": 0.26251300000001265
                },
                {
                    "name": "A4",
                    "midi": 69,
                    "time": 350.7173680000013,
                    "velocity": 0.2755905511811024,
                    "duration": 0.26251300000001265
                },
                {
                    "name": "D3",
                    "midi": 50,
                    "time": 351.76742000000127,
                    "velocity": 0.2440944881889764,
                    "duration": 0.26251300000001265
                },
                {
                    "name": "A3",
                    "midi": 57,
                    "time": 351.76742000000127,
                    "velocity": 0.2440944881889764,
                    "duration": 0.26251300000001265
                },
                {
                    "name": "D2",
                    "midi": 38,
                    "time": 352.81747200000126,
                    "velocity": 0.2440944881889764,
                    "duration": 0.26251300000001265
                },
                {
                    "name": "A2",
                    "midi": 45,
                    "time": 352.81747200000126,
                    "velocity": 0.2440944881889764,
                    "duration": 0.26251300000001265
                },
                {
                    "name": "D1",
                    "midi": 26,
                    "time": 354.91757600000125,
                    "velocity": 0.6062992125984252,
                    "duration": 0.393769500000019
                },
                {
                    "name": "A1",
                    "midi": 33,
                    "time": 354.91757600000125,
                    "velocity": 0.6062992125984252,
                    "duration": 0.393769500000019
                },
                {
                    "name": "D2",
                    "midi": 38,
                    "time": 354.91757600000125,
                    "velocity": 0.7165354330708661,
                    "duration": 0.393769500000019
                }
            ],
            "controlChanges": {
                "7": [
                    {
                        "number": 7,
                        "time": 0,
                        "value": 0.7874015748031497
                    }
                ],
                "10": [
                    {
                        "number": 10,
                        "time": 0,
                        "value": 0.5039370078740157
                    }
                ],
                "91": [
                    {
                        "number": 91,
                        "time": 0,
                        "value": 1
                    },
                    {
                        "number": 91,
                        "time": 21.001039999999993,
                        "value": 1
                    },
                    {
                        "number": 91,
                        "time": 42.002079999999935,
                        "value": 1
                    },
                    {
                        "number": 91,
                        "time": 64.57819799999984,
                        "value": 1
                    },
                    {
                        "number": 91,
                        "time": 68.77840600000005,
                        "value": 1
                    },
                    {
                        "number": 91,
                        "time": 72.97861400000025,
                        "value": 1
                    },
                    {
                        "number": 91,
                        "time": 77.17882200000045,
                        "value": 1
                    },
                    {
                        "number": 91,
                        "time": 92.40457600000067,
                        "value": 1
                    },
                    {
                        "number": 91,
                        "time": 100.54247900000063,
                        "value": 1
                    },
                    {
                        "number": 91,
                        "time": 117.60582400000035,
                        "value": 1
                    },
                    {
                        "number": 91,
                        "time": 128.1063440000003,
                        "value": 1
                    },
                    {
                        "number": 91,
                        "time": 136.50676000000036,
                        "value": 1
                    },
                    {
                        "number": 91,
                        "time": 144.9071760000004,
                        "value": 1
                    },
                    {
                        "number": 91,
                        "time": 153.30759200000043,
                        "value": 1
                    },
                    {
                        "number": 91,
                        "time": 161.7080080000005,
                        "value": 1
                    },
                    {
                        "number": 91,
                        "time": 170.10842400000055,
                        "value": 1
                    },
                    {
                        "number": 91,
                        "time": 178.5088400000006,
                        "value": 1
                    },
                    {
                        "number": 91,
                        "time": 186.90925600000062,
                        "value": 1
                    },
                    {
                        "number": 91,
                        "time": 195.3096720000007,
                        "value": 1
                    },
                    {
                        "number": 91,
                        "time": 203.71008800000075,
                        "value": 1
                    },
                    {
                        "number": 91,
                        "time": 224.71112800000114,
                        "value": 1
                    },
                    {
                        "number": 91,
                        "time": 245.7121680000015,
                        "value": 1
                    },
                    {
                        "number": 91,
                        "time": 268.288286000002,
                        "value": 1
                    },
                    {
                        "number": 91,
                        "time": 272.4884940000022,
                        "value": 1
                    },
                    {
                        "number": 91,
                        "time": 276.6887020000024,
                        "value": 1
                    },
                    {
                        "number": 91,
                        "time": 280.8889100000026,
                        "value": 1
                    },
                    {
                        "number": 91,
                        "time": 296.11466400000336,
                        "value": 1
                    },
                    {
                        "number": 91,
                        "time": 304.25256700000375,
                        "value": 1
                    },
                    {
                        "number": 91,
                        "time": 321.3159120000043,
                        "value": 1
                    },
                    {
                        "number": 91,
                        "time": 325.52377662917024,
                        "value": 1
                    },
                    {
                        "number": 91,
                        "time": 329.72398462916954,
                        "value": 1
                    },
                    {
                        "number": 91,
                        "time": 333.92419262916883,
                        "value": 1
                    },
                    {
                        "number": 91,
                        "time": 340.2168480000011,
                        "value": 1
                    }
                ]
            },
            "id": 2,
            "name": "Piano left",
            "instrumentNumber": 0,
            "instrument": "acoustic grand piano",
            "instrumentFamily": "piano",
            "channelNumber": 0,
            "isPercussion": false
        },
        {
            "startTime": 0,
            "duration": 0,
            "length": 0,
            "notes": [],
            "controlChanges": {
                "64": [
                    {
                        "number": 64,
                        "time": 0.20125996666666668,
                        "value": 1
                    },
                    {
                        "number": 64,
                        "time": 4.080983345833333,
                        "value": 0
                    },
                    {
                        "number": 64,
                        "time": 4.293181354166666,
                        "value": 1
                    },
                    {
                        "number": 64,
                        "time": 5.8179443625,
                        "value": 0
                    },
                    {
                        "number": 64,
                        "time": 6.414067633333333,
                        "value": 1
                    },
                    {
                        "number": 64,
                        "time": 7.739758283333332,
                        "value": 0
                    },
                    {
                        "number": 64,
                        "time": 8.438699145833333,
                        "value": 1
                    },
                    {
                        "number": 64,
                        "time": 8.929817216666667,
                        "value": 0
                    },
                    {
                        "number": 64,
                        "time": 9.488751145833334,
                        "value": 1
                    },
                    {
                        "number": 64,
                        "time": 10.108938108333334,
                        "value": 0
                    },
                    {
                        "number": 64,
                        "time": 10.666778233333334,
                        "value": 1
                    },
                    {
                        "number": 64,
                        "time": 12.195916458333334,
                        "value": 0
                    },
                    {
                        "number": 64,
                        "time": 12.662970837500001,
                        "value": 1
                    },
                    {
                        "number": 64,
                        "time": 14.226016991666668,
                        "value": 0
                    },
                    {
                        "number": 64,
                        "time": 14.798076570833334,
                        "value": 1
                    },
                    {
                        "number": 64,
                        "time": 16.2790874125,
                        "value": 0
                    },
                    {
                        "number": 64,
                        "time": 16.890523941666668,
                        "value": 1
                    },
                    {
                        "number": 64,
                        "time": 17.34335886666667,
                        "value": 0
                    },
                    {
                        "number": 64,
                        "time": 17.899011383333335,
                        "value": 1
                    },
                    {
                        "number": 64,
                        "time": 18.521385954166668,
                        "value": 0
                    },
                    {
                        "number": 64,
                        "time": 19.06281901666667,
                        "value": 1
                    },
                    {
                        "number": 64,
                        "time": 20.49679627916667,
                        "value": 0
                    },
                    {
                        "number": 64,
                        "time": 20.576643983333337,
                        "value": 1
                    },
                    {
                        "number": 64,
                        "time": 25.085304758333336,
                        "value": 0
                    },
                    {
                        "number": 64,
                        "time": 25.25156299166667,
                        "value": 1
                    },
                    {
                        "number": 64,
                        "time": 25.73064921666667,
                        "value": 0
                    },
                    {
                        "number": 64,
                        "time": 26.286301733333335,
                        "value": 1
                    },
                    {
                        "number": 64,
                        "time": 26.791639258333337,
                        "value": 0
                    },
                    {
                        "number": 64,
                        "time": 27.337447537500005,
                        "value": 1
                    },
                    {
                        "number": 64,
                        "time": 28.971590962500006,
                        "value": 0
                    },
                    {
                        "number": 64,
                        "time": 29.460521425000007,
                        "value": 1
                    },
                    {
                        "number": 64,
                        "time": 29.929763412500005,
                        "value": 0
                    },
                    {
                        "number": 64,
                        "time": 30.48541592916667,
                        "value": 1
                    },
                    {
                        "number": 64,
                        "time": 31.094664850000004,
                        "value": 0
                    },
                    {
                        "number": 64,
                        "time": 31.629535087500006,
                        "value": 1
                    },
                    {
                        "number": 64,
                        "time": 33.32383774166667,
                        "value": 0
                    },
                    {
                        "number": 64,
                        "time": 33.651978991666674,
                        "value": 1
                    },
                    {
                        "number": 64,
                        "time": 35.21174373333334,
                        "value": 0
                    },
                    {
                        "number": 64,
                        "time": 35.76411483750001,
                        "value": 1
                    },
                    {
                        "number": 64,
                        "time": 37.32934860000001,
                        "value": 0
                    },
                    {
                        "number": 64,
                        "time": 37.83687373333334,
                        "value": 1
                    },
                    {
                        "number": 64,
                        "time": 38.31377235000001,
                        "value": 0
                    },
                    {
                        "number": 64,
                        "time": 38.88692573333334,
                        "value": 1
                    },
                    {
                        "number": 64,
                        "time": 39.50820650000001,
                        "value": 0
                    },
                    {
                        "number": 64,
                        "time": 40.00260598333334,
                        "value": 1
                    },
                    {
                        "number": 64,
                        "time": 41.496742475000005,
                        "value": 0
                    },
                    {
                        "number": 64,
                        "time": 42.10270998333334,
                        "value": 1
                    },
                    {
                        "number": 64,
                        "time": 42.581796208333344,
                        "value": 0
                    },
                    {
                        "number": 64,
                        "time": 43.20635838750001,
                        "value": 1
                    },
                    {
                        "number": 64,
                        "time": 43.607784516666676,
                        "value": 0
                    },
                    {
                        "number": 64,
                        "time": 44.149217579166674,
                        "value": 1
                    },
                    {
                        "number": 64,
                        "time": 44.67424357916667,
                        "value": 0
                    },
                    {
                        "number": 64,
                        "time": 45.22223946666667,
                        "value": 1
                    },
                    {
                        "number": 64,
                        "time": 45.73195220833334,
                        "value": 0
                    },
                    {
                        "number": 64,
                        "time": 48.374583075000004,
                        "value": 1
                    },
                    {
                        "number": 64,
                        "time": 49.915753145833335,
                        "value": 0
                    },
                    {
                        "number": 64,
                        "time": 50.44624816666667,
                        "value": 1
                    },
                    {
                        "number": 64,
                        "time": 50.93955384583334,
                        "value": 0
                    },
                    {
                        "number": 64,
                        "time": 51.48208071250001,
                        "value": 1
                    },
                    {
                        "number": 64,
                        "time": 51.993981062500005,
                        "value": 0
                    },
                    {
                        "number": 64,
                        "time": 52.55947781666667,
                        "value": 1
                    },
                    {
                        "number": 64,
                        "time": 53.96501617083334,
                        "value": 0
                    },
                    {
                        "number": 64,
                        "time": 54.668332250000006,
                        "value": 1
                    },
                    {
                        "number": 64,
                        "time": 55.140855650000006,
                        "value": 0
                    },
                    {
                        "number": 64,
                        "time": 55.709633816666674,
                        "value": 1
                    },
                    {
                        "number": 64,
                        "time": 56.19418906250001,
                        "value": 0
                    },
                    {
                        "number": 64,
                        "time": 58.86525883750001,
                        "value": 1
                    },
                    {
                        "number": 64,
                        "time": 60.39002184583334,
                        "value": 0
                    },
                    {
                        "number": 64,
                        "time": 60.92161067083334,
                        "value": 1
                    },
                    {
                        "number": 64,
                        "time": 61.44226145416667,
                        "value": 0
                    },
                    {
                        "number": 64,
                        "time": 61.996820166666666,
                        "value": 1
                    },
                    {
                        "number": 64,
                        "time": 62.5010638875,
                        "value": 0
                    },
                    {
                        "number": 64,
                        "time": 63.09390574583334,
                        "value": 1
                    },
                    {
                        "number": 64,
                        "time": 64.48741225416667,
                        "value": 0
                    },
                    {
                        "number": 64,
                        "time": 64.6142935375,
                        "value": 1
                    },
                    {
                        "number": 64,
                        "time": 65.5921544625,
                        "value": 0
                    },
                    {
                        "number": 64,
                        "time": 65.70591009583333,
                        "value": 1
                    },
                    {
                        "number": 64,
                        "time": 66.63345602916667,
                        "value": 0
                    },
                    {
                        "number": 64,
                        "time": 66.7012718875,
                        "value": 1
                    },
                    {
                        "number": 64,
                        "time": 67.6791328125,
                        "value": 0
                    },
                    {
                        "number": 64,
                        "time": 67.7644495375,
                        "value": 1
                    },
                    {
                        "number": 64,
                        "time": 68.7291848125,
                        "value": 0
                    },
                    {
                        "number": 64,
                        "time": 68.8013758875,
                        "value": 1
                    },
                    {
                        "number": 64,
                        "time": 69.7792368125,
                        "value": 0
                    },
                    {
                        "number": 64,
                        "time": 69.88314820833334,
                        "value": 1
                    },
                    {
                        "number": 64,
                        "time": 70.84678967916668,
                        "value": 0
                    },
                    {
                        "number": 64,
                        "time": 70.937575425,
                        "value": 1
                    },
                    {
                        "number": 64,
                        "time": 71.89246646250001,
                        "value": 0
                    },
                    {
                        "number": 64,
                        "time": 71.97450177500001,
                        "value": 1
                    },
                    {
                        "number": 64,
                        "time": 72.93376802916667,
                        "value": 0
                    },
                    {
                        "number": 64,
                        "time": 73.03330420833333,
                        "value": 1
                    },
                    {
                        "number": 64,
                        "time": 73.9925704625,
                        "value": 0
                    },
                    {
                        "number": 64,
                        "time": 74.05601110416667,
                        "value": 1
                    },
                    {
                        "number": 64,
                        "time": 75.04699767916667,
                        "value": 0
                    },
                    {
                        "number": 64,
                        "time": 75.124657775,
                        "value": 1
                    },
                    {
                        "number": 64,
                        "time": 76.08392402916667,
                        "value": 0
                    },
                    {
                        "number": 64,
                        "time": 76.18346020833333,
                        "value": 1
                    },
                    {
                        "number": 64,
                        "time": 77.11538135833332,
                        "value": 0
                    },
                    {
                        "number": 64,
                        "time": 77.21929275416666,
                        "value": 1
                    },
                    {
                        "number": 64,
                        "time": 78.18402802916665,
                        "value": 0
                    },
                    {
                        "number": 64,
                        "time": 78.28356420833332,
                        "value": 1
                    },
                    {
                        "number": 64,
                        "time": 79.25158089583331,
                        "value": 0
                    },
                    {
                        "number": 64,
                        "time": 79.33361620833331,
                        "value": 1
                    },
                    {
                        "number": 64,
                        "time": 80.26991257499998,
                        "value": 0
                    },
                    {
                        "number": 64,
                        "time": 80.37929299166665,
                        "value": 1
                    },
                    {
                        "number": 64,
                        "time": 81.33855924583331,
                        "value": 0
                    },
                    {
                        "number": 64,
                        "time": 81.42934499166664,
                        "value": 1
                    },
                    {
                        "number": 64,
                        "time": 82.39298646249998,
                        "value": 0
                    },
                    {
                        "number": 64,
                        "time": 82.46517753749998,
                        "value": 1
                    },
                    {
                        "number": 64,
                        "time": 83.43428802916665,
                        "value": 0
                    },
                    {
                        "number": 64,
                        "time": 83.53382420833331,
                        "value": 1
                    },
                    {
                        "number": 64,
                        "time": 84.46027633749998,
                        "value": 0
                    },
                    {
                        "number": 64,
                        "time": 84.59153283749998,
                        "value": 1
                    },
                    {
                        "number": 64,
                        "time": 85.54861148333332,
                        "value": 0
                    },
                    {
                        "number": 64,
                        "time": 92.55442717083332,
                        "value": 1
                    },
                    {
                        "number": 64,
                        "time": 94.51889945416666,
                        "value": 0
                    },
                    {
                        "number": 64,
                        "time": 94.90501232499999,
                        "value": 1
                    },
                    {
                        "number": 64,
                        "time": 96.61790964999999,
                        "value": 0
                    },
                    {
                        "number": 64,
                        "time": 97.05543131666666,
                        "value": 1
                    },
                    {
                        "number": 64,
                        "time": 98.71473223749999,
                        "value": 0
                    },
                    {
                        "number": 64,
                        "time": 98.80551798333332,
                        "value": 1
                    },
                    {
                        "number": 64,
                        "time": 100.63873376666665,
                        "value": 0
                    },
                    {
                        "number": 64,
                        "time": 100.85202557916665,
                        "value": 1
                    },
                    {
                        "number": 64,
                        "time": 102.39210184583331,
                        "value": 0
                    },
                    {
                        "number": 64,
                        "time": 102.96416142499997,
                        "value": 1
                    },
                    {
                        "number": 64,
                        "time": 104.48017399999998,
                        "value": 0
                    },
                    {
                        "number": 64,
                        "time": 105.05879640416664,
                        "value": 1
                    },
                    {
                        "number": 64,
                        "time": 105.55210208333331,
                        "value": 0
                    },
                    {
                        "number": 64,
                        "time": 106.11541122916664,
                        "value": 1
                    },
                    {
                        "number": 64,
                        "time": 106.6087169083333,
                        "value": 0
                    },
                    {
                        "number": 64,
                        "time": 107.1632756208333,
                        "value": 1
                    },
                    {
                        "number": 64,
                        "time": 108.6956952583333,
                        "value": 0
                    },
                    {
                        "number": 64,
                        "time": 109.24478494999997,
                        "value": 1
                    },
                    {
                        "number": 64,
                        "time": 110.7925178458333,
                        "value": 0
                    },
                    {
                        "number": 64,
                        "time": 111.4028605708333,
                        "value": 1
                    },
                    {
                        "number": 64,
                        "time": 112.9090289083333,
                        "value": 0
                    },
                    {
                        "number": 64,
                        "time": 113.43624251666662,
                        "value": 1
                    },
                    {
                        "number": 64,
                        "time": 114.12424533749996,
                        "value": 0
                    },
                    {
                        "number": 64,
                        "time": 114.52129624999996,
                        "value": 1
                    },
                    {
                        "number": 64,
                        "time": 115.04632224999996,
                        "value": 0
                    },
                    {
                        "number": 64,
                        "time": 115.61400661249996,
                        "value": 1
                    },
                    {
                        "number": 64,
                        "time": 117.11142451666663,
                        "value": 0
                    },
                    {
                        "number": 64,
                        "time": 117.60582399999997,
                        "value": 1
                    },
                    {
                        "number": 64,
                        "time": 120.78660651666664,
                        "value": 0
                    },
                    {
                        "number": 64,
                        "time": 121.94494512916664,
                        "value": 1
                    },
                    {
                        "number": 64,
                        "time": 122.85608399999997,
                        "value": 0
                    },
                    {
                        "number": 64,
                        "time": 125.06447461249996,
                        "value": 1
                    },
                    {
                        "number": 64,
                        "time": 126.00623999999996,
                        "value": 0
                    },
                    {
                        "number": 64,
                        "time": 127.05629199999996,
                        "value": 1
                    },
                    {
                        "number": 64,
                        "time": 128.10634399999995,
                        "value": 0
                    },
                    {
                        "number": 64,
                        "time": 128.38417025833328,
                        "value": 1
                    },
                    {
                        "number": 64,
                        "time": 129.15639599999994,
                        "value": 0
                    },
                    {
                        "number": 64,
                        "time": 130.4077079666666,
                        "value": 1
                    },
                    {
                        "number": 64,
                        "time": 131.25649999999993,
                        "value": 0
                    },
                    {
                        "number": 64,
                        "time": 132.46077838749994,
                        "value": 1
                    },
                    {
                        "number": 64,
                        "time": 133.35660399999995,
                        "value": 0
                    },
                    {
                        "number": 64,
                        "time": 133.4145756208333,
                        "value": 1
                    },
                    {
                        "number": 64,
                        "time": 134.40665599999997,
                        "value": 0
                    },
                    {
                        "number": 64,
                        "time": 136.55707499166664,
                        "value": 1
                    },
                    {
                        "number": 64,
                        "time": 137.5852509083333,
                        "value": 0
                    },
                    {
                        "number": 64,
                        "time": 144.96952283749997,
                        "value": 1
                    },
                    {
                        "number": 64,
                        "time": 146.01957483749996,
                        "value": 0
                    },
                    {
                        "number": 64,
                        "time": 153.4935387083333,
                        "value": 1
                    },
                    {
                        "number": 64,
                        "time": 154.3729572583333,
                        "value": 0
                    },
                    {
                        "number": 64,
                        "time": 155.53129587083328,
                        "value": 1
                    },
                    {
                        "number": 64,
                        "time": 156.4883745166666,
                        "value": 0
                    },
                    {
                        "number": 64,
                        "time": 158.42659549999993,
                        "value": 1
                    },
                    {
                        "number": 64,
                        "time": 159.60790399999993,
                        "value": 0
                    },
                    {
                        "number": 64,
                        "time": 160.69623914583326,
                        "value": 1
                    },
                    {
                        "number": 64,
                        "time": 161.71675843333327,
                        "value": 0
                    },
                    {
                        "number": 64,
                        "time": 161.9092679666666,
                        "value": 1
                    },
                    {
                        "number": 64,
                        "time": 162.77337325833327,
                        "value": 0
                    },
                    {
                        "number": 64,
                        "time": 164.07062499999992,
                        "value": 1
                    },
                    {
                        "number": 64,
                        "time": 164.89207192916658,
                        "value": 0
                    },
                    {
                        "number": 64,
                        "time": 166.07884944999992,
                        "value": 1
                    },
                    {
                        "number": 64,
                        "time": 166.6498152249999,
                        "value": 0
                    },
                    {
                        "number": 64,
                        "time": 166.83466812916657,
                        "value": 1
                    },
                    {
                        "number": 64,
                        "time": 168.0083199999999,
                        "value": 0
                    },
                    {
                        "number": 64,
                        "time": 170.1084239999999,
                        "value": 1
                    },
                    {
                        "number": 64,
                        "time": 171.18691490833322,
                        "value": 0
                    },
                    {
                        "number": 64,
                        "time": 178.57118683749988,
                        "value": 1
                    },
                    {
                        "number": 64,
                        "time": 179.62123883749987,
                        "value": 0
                    },
                    {
                        "number": 64,
                        "time": 187.0952027083332,
                        "value": 1
                    },
                    {
                        "number": 64,
                        "time": 187.9746212583332,
                        "value": 0
                    },
                    {
                        "number": 64,
                        "time": 189.1329598708332,
                        "value": 1
                    },
                    {
                        "number": 64,
                        "time": 190.0900385166665,
                        "value": 0
                    },
                    {
                        "number": 64,
                        "time": 192.02825949999985,
                        "value": 1
                    },
                    {
                        "number": 64,
                        "time": 193.20956799999985,
                        "value": 0
                    },
                    {
                        "number": 64,
                        "time": 194.29790314583317,
                        "value": 1
                    },
                    {
                        "number": 64,
                        "time": 195.31842243333318,
                        "value": 0
                    },
                    {
                        "number": 64,
                        "time": 195.5109319666665,
                        "value": 1
                    },
                    {
                        "number": 64,
                        "time": 196.37503725833318,
                        "value": 0
                    },
                    {
                        "number": 64,
                        "time": 197.67228899999984,
                        "value": 1
                    },
                    {
                        "number": 64,
                        "time": 198.4937359291665,
                        "value": 0
                    },
                    {
                        "number": 64,
                        "time": 199.68051344999984,
                        "value": 1
                    },
                    {
                        "number": 64,
                        "time": 200.25147922499983,
                        "value": 0
                    },
                    {
                        "number": 64,
                        "time": 200.4363321291665,
                        "value": 1
                    },
                    {
                        "number": 64,
                        "time": 201.60998399999983,
                        "value": 0
                    },
                    {
                        "number": 64,
                        "time": 203.88072144999984,
                        "value": 1
                    },
                    {
                        "number": 64,
                        "time": 207.79107134583316,
                        "value": 0
                    },
                    {
                        "number": 64,
                        "time": 208.0032693541665,
                        "value": 1
                    },
                    {
                        "number": 64,
                        "time": 209.52803236249983,
                        "value": 0
                    },
                    {
                        "number": 64,
                        "time": 210.12415563333317,
                        "value": 1
                    },
                    {
                        "number": 64,
                        "time": 211.71892210833317,
                        "value": 0
                    },
                    {
                        "number": 64,
                        "time": 212.14878714583318,
                        "value": 1
                    },
                    {
                        "number": 64,
                        "time": 212.6399052166665,
                        "value": 0
                    },
                    {
                        "number": 64,
                        "time": 213.19883914583318,
                        "value": 1
                    },
                    {
                        "number": 64,
                        "time": 213.70198906249985,
                        "value": 0
                    },
                    {
                        "number": 64,
                        "time": 214.37686623333317,
                        "value": 1
                    },
                    {
                        "number": 64,
                        "time": 215.90600445833317,
                        "value": 0
                    },
                    {
                        "number": 64,
                        "time": 216.37305883749983,
                        "value": 1
                    },
                    {
                        "number": 64,
                        "time": 217.9361049916665,
                        "value": 0
                    },
                    {
                        "number": 64,
                        "time": 218.50816457083317,
                        "value": 1
                    },
                    {
                        "number": 64,
                        "time": 219.98917541249983,
                        "value": 0
                    },
                    {
                        "number": 64,
                        "time": 220.6006119416665,
                        "value": 1
                    },
                    {
                        "number": 64,
                        "time": 221.0534468666665,
                        "value": 0
                    },
                    {
                        "number": 64,
                        "time": 221.60909938333316,
                        "value": 1
                    },
                    {
                        "number": 64,
                        "time": 222.2249111291665,
                        "value": 0
                    },
                    {
                        "number": 64,
                        "time": 222.7729070166665,
                        "value": 1
                    },
                    {
                        "number": 64,
                        "time": 224.2068842791665,
                        "value": 0
                    },
                    {
                        "number": 64,
                        "time": 224.28673198333317,
                        "value": 1
                    },
                    {
                        "number": 64,
                        "time": 228.79539275833318,
                        "value": 0
                    },
                    {
                        "number": 64,
                        "time": 228.96165099166652,
                        "value": 1
                    },
                    {
                        "number": 64,
                        "time": 229.56433708749984,
                        "value": 0
                    },
                    {
                        "number": 64,
                        "time": 229.99638973333316,
                        "value": 1
                    },
                    {
                        "number": 64,
                        "time": 230.50172725833315,
                        "value": 0
                    },
                    {
                        "number": 64,
                        "time": 231.0475355374998,
                        "value": 1
                    },
                    {
                        "number": 64,
                        "time": 232.59854984583313,
                        "value": 0
                    },
                    {
                        "number": 64,
                        "time": 233.1706094249998,
                        "value": 1
                    },
                    {
                        "number": 64,
                        "time": 233.71423009583313,
                        "value": 0
                    },
                    {
                        "number": 64,
                        "time": 234.19550392916648,
                        "value": 1
                    },
                    {
                        "number": 64,
                        "time": 234.79053339583314,
                        "value": 0
                    },
                    {
                        "number": 64,
                        "time": 235.3396230874998,
                        "value": 1
                    },
                    {
                        "number": 64,
                        "time": 237.03392574166648,
                        "value": 0
                    },
                    {
                        "number": 64,
                        "time": 237.36206699166647,
                        "value": 1
                    },
                    {
                        "number": 64,
                        "time": 238.9951166124998,
                        "value": 0
                    },
                    {
                        "number": 64,
                        "time": 239.4742028374998,
                        "value": 1
                    },
                    {
                        "number": 64,
                        "time": 241.03943659999982,
                        "value": 0
                    },
                    {
                        "number": 64,
                        "time": 241.54696173333315,
                        "value": 1
                    },
                    {
                        "number": 64,
                        "time": 242.1857433666665,
                        "value": 0
                    },
                    {
                        "number": 64,
                        "time": 242.59701373333314,
                        "value": 1
                    },
                    {
                        "number": 64,
                        "time": 243.25001482083314,
                        "value": 0
                    },
                    {
                        "number": 64,
                        "time": 243.71269398333314,
                        "value": 1
                    },
                    {
                        "number": 64,
                        "time": 245.2068304749998,
                        "value": 0
                    },
                    {
                        "number": 64,
                        "time": 245.81279798333313,
                        "value": 1
                    },
                    {
                        "number": 64,
                        "time": 246.29188420833313,
                        "value": 0
                    },
                    {
                        "number": 64,
                        "time": 246.9164463874998,
                        "value": 1
                    },
                    {
                        "number": 64,
                        "time": 247.31787251666648,
                        "value": 0
                    },
                    {
                        "number": 64,
                        "time": 247.8593055791665,
                        "value": 1
                    },
                    {
                        "number": 64,
                        "time": 248.38433157916648,
                        "value": 0
                    },
                    {
                        "number": 64,
                        "time": 248.9323274666665,
                        "value": 1
                    },
                    {
                        "number": 64,
                        "time": 249.44204020833317,
                        "value": 0
                    },
                    {
                        "number": 64,
                        "time": 252.08467107499985,
                        "value": 1
                    },
                    {
                        "number": 64,
                        "time": 253.71006406666652,
                        "value": 0
                    },
                    {
                        "number": 64,
                        "time": 254.1563361666665,
                        "value": 1
                    },
                    {
                        "number": 64,
                        "time": 254.64964184583317,
                        "value": 0
                    },
                    {
                        "number": 64,
                        "time": 255.19216871249984,
                        "value": 1
                    },
                    {
                        "number": 64,
                        "time": 255.70406906249983,
                        "value": 0
                    },
                    {
                        "number": 64,
                        "time": 256.2695658166665,
                        "value": 1
                    },
                    {
                        "number": 64,
                        "time": 257.67510417083315,
                        "value": 0
                    },
                    {
                        "number": 64,
                        "time": 258.3784202499998,
                        "value": 1
                    },
                    {
                        "number": 64,
                        "time": 258.8509436499998,
                        "value": 0
                    },
                    {
                        "number": 64,
                        "time": 259.4197218166665,
                        "value": 1
                    },
                    {
                        "number": 64,
                        "time": 259.90427706249983,
                        "value": 0
                    },
                    {
                        "number": 64,
                        "time": 262.5753468374998,
                        "value": 1
                    },
                    {
                        "number": 64,
                        "time": 264.18542657083316,
                        "value": 0
                    },
                    {
                        "number": 64,
                        "time": 264.63169867083315,
                        "value": 1
                    },
                    {
                        "number": 64,
                        "time": 265.25844845833313,
                        "value": 0
                    },
                    {
                        "number": 64,
                        "time": 265.7069081666665,
                        "value": 1
                    },
                    {
                        "number": 64,
                        "time": 266.21115188749985,
                        "value": 0
                    },
                    {
                        "number": 64,
                        "time": 266.80399374583317,
                        "value": 1
                    },
                    {
                        "number": 64,
                        "time": 268.1975002541665,
                        "value": 0
                    },
                    {
                        "number": 64,
                        "time": 268.32438153749985,
                        "value": 1
                    },
                    {
                        "number": 64,
                        "time": 269.30224246249986,
                        "value": 0
                    },
                    {
                        "number": 64,
                        "time": 269.4159980958332,
                        "value": 1
                    },
                    {
                        "number": 64,
                        "time": 270.3435440291665,
                        "value": 0
                    },
                    {
                        "number": 64,
                        "time": 270.4113598874998,
                        "value": 1
                    },
                    {
                        "number": 64,
                        "time": 271.38922081249984,
                        "value": 0
                    },
                    {
                        "number": 64,
                        "time": 271.4745375374998,
                        "value": 1
                    },
                    {
                        "number": 64,
                        "time": 272.43927281249984,
                        "value": 0
                    },
                    {
                        "number": 64,
                        "time": 272.5114638874998,
                        "value": 1
                    },
                    {
                        "number": 64,
                        "time": 273.48932481249983,
                        "value": 0
                    },
                    {
                        "number": 64,
                        "time": 273.59323620833317,
                        "value": 1
                    },
                    {
                        "number": 64,
                        "time": 274.5568776791665,
                        "value": 0
                    },
                    {
                        "number": 64,
                        "time": 274.64766342499985,
                        "value": 1
                    },
                    {
                        "number": 64,
                        "time": 275.6025544624998,
                        "value": 0
                    },
                    {
                        "number": 64,
                        "time": 275.68458977499984,
                        "value": 1
                    },
                    {
                        "number": 64,
                        "time": 276.6438560291665,
                        "value": 0
                    },
                    {
                        "number": 64,
                        "time": 276.74339220833315,
                        "value": 1
                    },
                    {
                        "number": 64,
                        "time": 277.7026584624998,
                        "value": 0
                    },
                    {
                        "number": 64,
                        "time": 277.76609910416647,
                        "value": 1
                    },
                    {
                        "number": 64,
                        "time": 278.7570856791665,
                        "value": 0
                    },
                    {
                        "number": 64,
                        "time": 278.8347457749998,
                        "value": 1
                    },
                    {
                        "number": 64,
                        "time": 279.7940120291665,
                        "value": 0
                    },
                    {
                        "number": 64,
                        "time": 279.89354820833313,
                        "value": 1
                    },
                    {
                        "number": 64,
                        "time": 280.8254693583331,
                        "value": 0
                    },
                    {
                        "number": 64,
                        "time": 280.92938075416646,
                        "value": 1
                    },
                    {
                        "number": 64,
                        "time": 281.89411602916647,
                        "value": 0
                    },
                    {
                        "number": 64,
                        "time": 281.9936522083331,
                        "value": 1
                    },
                    {
                        "number": 64,
                        "time": 282.9616688958331,
                        "value": 0
                    },
                    {
                        "number": 64,
                        "time": 283.0437042083331,
                        "value": 1
                    },
                    {
                        "number": 64,
                        "time": 283.9800005749998,
                        "value": 0
                    },
                    {
                        "number": 64,
                        "time": 284.0893809916665,
                        "value": 1
                    },
                    {
                        "number": 64,
                        "time": 285.04864724583314,
                        "value": 0
                    },
                    {
                        "number": 64,
                        "time": 285.13943299166647,
                        "value": 1
                    },
                    {
                        "number": 64,
                        "time": 286.1030744624998,
                        "value": 0
                    },
                    {
                        "number": 64,
                        "time": 286.1752655374998,
                        "value": 1
                    },
                    {
                        "number": 64,
                        "time": 287.14437602916644,
                        "value": 0
                    },
                    {
                        "number": 64,
                        "time": 287.2439122083331,
                        "value": 1
                    },
                    {
                        "number": 64,
                        "time": 288.17036433749973,
                        "value": 0
                    },
                    {
                        "number": 64,
                        "time": 288.30162083749974,
                        "value": 1
                    },
                    {
                        "number": 64,
                        "time": 289.2586994833331,
                        "value": 0
                    },
                    {
                        "number": 64,
                        "time": 296.2645151708331,
                        "value": 1
                    },
                    {
                        "number": 64,
                        "time": 298.22898745416643,
                        "value": 0
                    },
                    {
                        "number": 64,
                        "time": 298.6151003249998,
                        "value": 1
                    },
                    {
                        "number": 64,
                        "time": 300.3279976499998,
                        "value": 0
                    },
                    {
                        "number": 64,
                        "time": 300.7655193166665,
                        "value": 1
                    },
                    {
                        "number": 64,
                        "time": 302.42482023749983,
                        "value": 0
                    },
                    {
                        "number": 64,
                        "time": 302.51560598333316,
                        "value": 1
                    },
                    {
                        "number": 64,
                        "time": 304.3488217666665,
                        "value": 0
                    },
                    {
                        "number": 64,
                        "time": 304.5621135791665,
                        "value": 1
                    },
                    {
                        "number": 64,
                        "time": 306.1021898458332,
                        "value": 0
                    },
                    {
                        "number": 64,
                        "time": 306.67424942499986,
                        "value": 1
                    },
                    {
                        "number": 64,
                        "time": 308.2941733958332,
                        "value": 0
                    },
                    {
                        "number": 64,
                        "time": 308.7688844041665,
                        "value": 1
                    },
                    {
                        "number": 64,
                        "time": 309.26219008333317,
                        "value": 0
                    },
                    {
                        "number": 64,
                        "time": 309.8254992291665,
                        "value": 1
                    },
                    {
                        "number": 64,
                        "time": 310.31880490833316,
                        "value": 0
                    },
                    {
                        "number": 64,
                        "time": 310.8733636208332,
                        "value": 1
                    },
                    {
                        "number": 64,
                        "time": 312.4057832583332,
                        "value": 0
                    },
                    {
                        "number": 64,
                        "time": 312.95487294999987,
                        "value": 1
                    },
                    {
                        "number": 64,
                        "time": 314.5026058458332,
                        "value": 0
                    },
                    {
                        "number": 64,
                        "time": 315.1129485708332,
                        "value": 1
                    },
                    {
                        "number": 64,
                        "time": 316.7219344999999,
                        "value": 0
                    },
                    {
                        "number": 64,
                        "time": 317.17367562083325,
                        "value": 1
                    },
                    {
                        "number": 64,
                        "time": 317.8343333374999,
                        "value": 0
                    },
                    {
                        "number": 64,
                        "time": 318.2313842499999,
                        "value": 1
                    },
                    {
                        "number": 64,
                        "time": 318.75641024999993,
                        "value": 0
                    },
                    {
                        "number": 64,
                        "time": 319.32409461249995,
                        "value": 1
                    },
                    {
                        "number": 64,
                        "time": 320.8215125166666,
                        "value": 0
                    },
                    {
                        "number": 64,
                        "time": 321.3585703624999,
                        "value": 1
                    },
                    {
                        "number": 64,
                        "time": 323.4160159999999,
                        "value": 0
                    },
                    {
                        "number": 64,
                        "time": 323.4936760958332,
                        "value": 1
                    },
                    {
                        "number": 64,
                        "time": 325.0337523624999,
                        "value": 0
                    },
                    {
                        "number": 64,
                        "time": 325.58612346666655,
                        "value": 1
                    },
                    {
                        "number": 64,
                        "time": 327.6162239999999,
                        "value": 0
                    },
                    {
                        "number": 64,
                        "time": 327.6665389916665,
                        "value": 1
                    },
                    {
                        "number": 64,
                        "time": 329.1956772166665,
                        "value": 0
                    },
                    {
                        "number": 64,
                        "time": 331.92143719999984,
                        "value": 1
                    },
                    {
                        "number": 64,
                        "time": 333.43088694999983,
                        "value": 0
                    },
                    {
                        "number": 64,
                        "time": 336.10961335416647,
                        "value": 1
                    },
                    {
                        "number": 64,
                        "time": 337.53046496666644,
                        "value": 0
                    },
                    {
                        "number": 64,
                        "time": 338.1714342083331,
                        "value": 1
                    },
                    {
                        "number": 64,
                        "time": 339.62619374999974,
                        "value": 0
                    },
                    {
                        "number": 64,
                        "time": 340.86000484999977,
                        "value": 1
                    },
                    {
                        "number": 64,
                        "time": 342.01287444166644,
                        "value": 0
                    },
                    {
                        "number": 64,
                        "time": 342.96010884999976,
                        "value": 1
                    },
                    {
                        "number": 64,
                        "time": 344.1206350708331,
                        "value": 0
                    },
                    {
                        "number": 64,
                        "time": 344.55596912916644,
                        "value": 1
                    },
                    {
                        "number": 64,
                        "time": 346.51715999999976,
                        "value": 0
                    },
                    {
                        "number": 64,
                        "time": 346.7796729999998,
                        "value": 1
                    },
                    {
                        "number": 64,
                        "time": 348.61726399999975,
                        "value": 0
                    },
                    {
                        "number": 64,
                        "time": 348.84915048333306,
                        "value": 1
                    },
                    {
                        "number": 64,
                        "time": 350.71736799999974,
                        "value": 0
                    },
                    {
                        "number": 64,
                        "time": 350.9339412249997,
                        "value": 1
                    },
                    {
                        "number": 64,
                        "time": 352.8174719999997,
                        "value": 0
                    },
                    {
                        "number": 64,
                        "time": 352.9716983874997,
                        "value": 1
                    },
                    {
                        "number": 64,
                        "time": 354.732723095833,
                        "value": 0
                    },
                    {
                        "number": 64,
                        "time": 354.9175759999997,
                        "value": 1
                    },
                    {
                        "number": 64,
                        "time": 355.497292208333,
                        "value": 0
                    }
                ]
            },
            "id": 3,
            "name": "Pedal"
        },
        {
            "startTime": 0,
            "duration": 0,
            "length": 0,
            "notes": [],
            "controlChanges": {},
            "id": 4,
            "name": "Grieg: Hochzeitstag auf Troldhaugen Op. 65No. 6"
        },
        {
            "startTime": 0,
            "duration": 0,
            "length": 0,
            "notes": [],
            "controlChanges": {},
            "id": 5,
            "name": "Copyright  1998 by Bernd Krueger"
        },
        {
            "startTime": 0,
            "duration": 0,
            "length": 0,
            "notes": [],
            "controlChanges": {},
            "id": 6,
            "name": "http://www.piano-midi.de"
        },
        {
            "startTime": 0,
            "duration": 0,
            "length": 0,
            "notes": [],
            "controlChanges": {},
            "id": 7,
            "name": "Edition: 2012-11-18"
        }
    ]
}