{
    "header": {
        "PPQ": 480,
        "timeSignature": [
            6,
            4
        ],
        "bpm": 162.34996157717575,
        "name": "Liebestraum Nr. 3"
    },
    "startTime": 0,
    "duration": 202.52545599999948,
    "tracks": [
        {
            "startTime": 0,
            "duration": 0,
            "length": 0,
            "notes": [],
            "controlChanges": {},
            "id": 0,
            "name": "Liebestraum Nr. 3"
        },
        {
            "startTime": 2.402218,
            "duration": 202.52545599999948,
            "length": 1104,
            "notes": [
                {
                    "name": "D#4",
                    "midi": 63,
                    "time": 2.402218,
                    "velocity": 0.2677165354330709,
                    "duration": 0.1847859999999999
                },
                {
                    "name": "G#4",
                    "midi": 68,
                    "time": 2.587004,
                    "velocity": 0.31496062992125984,
                    "duration": 0.1847859999999999
                },
                {
                    "name": "C5",
                    "midi": 72,
                    "time": 2.7717899999999998,
                    "velocity": 0.28346456692913385,
                    "duration": 0.1847859999999999
                },
                {
                    "name": "G#4",
                    "midi": 68,
                    "time": 2.9565759999999996,
                    "velocity": 0.25196850393700787,
                    "duration": 0.1847859999999999
                },
                {
                    "name": "D#4",
                    "midi": 63,
                    "time": 3.1413619999999995,
                    "velocity": 0.25196850393700787,
                    "duration": 0.1847859999999999
                },
                {
                    "name": "D#4",
                    "midi": 63,
                    "time": 3.5109339999999993,
                    "velocity": 0.29133858267716534,
                    "duration": 0.1847859999999999
                },
                {
                    "name": "G#4",
                    "midi": 68,
                    "time": 3.6957199999999992,
                    "velocity": 0.31496062992125984,
                    "duration": 0.1847859999999999
                },
                {
                    "name": "C5",
                    "midi": 72,
                    "time": 3.880505999999999,
                    "velocity": 0.29133858267716534,
                    "duration": 0.18478600000000034
                },
                {
                    "name": "G#4",
                    "midi": 68,
                    "time": 4.0652919999999995,
                    "velocity": 0.25984251968503935,
                    "duration": 0.1847859999999999
                },
                {
                    "name": "D#4",
                    "midi": 63,
                    "time": 4.250077999999999,
                    "velocity": 0.2677165354330709,
                    "duration": 0.1847859999999999
                },
                {
                    "name": "E4",
                    "midi": 64,
                    "time": 4.619649999999999,
                    "velocity": 0.23622047244094488,
                    "duration": 0.1847859999999999
                },
                {
                    "name": "A#4",
                    "midi": 70,
                    "time": 4.804435999999999,
                    "velocity": 0.2677165354330709,
                    "duration": 0.1847859999999999
                },
                {
                    "name": "C5",
                    "midi": 72,
                    "time": 4.989221999999999,
                    "velocity": 0.2440944881889764,
                    "duration": 0.1847859999999999
                },
                {
                    "name": "A#4",
                    "midi": 70,
                    "time": 5.174007999999999,
                    "velocity": 0.2125984251968504,
                    "duration": 0.1847859999999999
                },
                {
                    "name": "E4",
                    "midi": 64,
                    "time": 5.358793999999999,
                    "velocity": 0.2125984251968504,
                    "duration": 0.1847859999999999
                },
                {
                    "name": "E4",
                    "midi": 64,
                    "time": 5.7283659999999985,
                    "velocity": 0.23622047244094488,
                    "duration": 0.1847859999999999
                },
                {
                    "name": "A#4",
                    "midi": 70,
                    "time": 5.913151999999998,
                    "velocity": 0.2677165354330709,
                    "duration": 0.1847859999999999
                },
                {
                    "name": "C5",
                    "midi": 72,
                    "time": 6.097937999999998,
                    "velocity": 0.23622047244094488,
                    "duration": 0.1847859999999999
                },
                {
                    "name": "A#4",
                    "midi": 70,
                    "time": 6.282723999999998,
                    "velocity": 0.2047244094488189,
                    "duration": 0.1847859999999999
                },
                {
                    "name": "E4",
                    "midi": 64,
                    "time": 6.467509999999998,
                    "velocity": 0.2047244094488189,
                    "duration": 0.1847859999999999
                },
                {
                    "name": "D#4",
                    "midi": 63,
                    "time": 6.837081999999998,
                    "velocity": 0.2677165354330709,
                    "duration": 0.1847859999999999
                },
                {
                    "name": "A4",
                    "midi": 69,
                    "time": 7.021867999999998,
                    "velocity": 0.28346456692913385,
                    "duration": 0.1847859999999999
                },
                {
                    "name": "C5",
                    "midi": 72,
                    "time": 7.206653999999998,
                    "velocity": 0.2755905511811024,
                    "duration": 0.1847859999999999
                },
                {
                    "name": "A4",
                    "midi": 69,
                    "time": 7.391439999999998,
                    "velocity": 0.28346456692913385,
                    "duration": 0.1847859999999999
                },
                {
                    "name": "D#4",
                    "midi": 63,
                    "time": 7.5762259999999975,
                    "velocity": 0.2992125984251969,
                    "duration": 0.1847859999999999
                },
                {
                    "name": "D#4",
                    "midi": 63,
                    "time": 7.945797999999997,
                    "velocity": 0.2992125984251969,
                    "duration": 0.1847859999999999
                },
                {
                    "name": "A4",
                    "midi": 69,
                    "time": 8.130583999999997,
                    "velocity": 0.33858267716535434,
                    "duration": 0.18478600000000078
                },
                {
                    "name": "C5",
                    "midi": 72,
                    "time": 8.315369999999998,
                    "velocity": 0.31496062992125984,
                    "duration": 0.18478600000000078
                },
                {
                    "name": "A4",
                    "midi": 69,
                    "time": 8.500155999999999,
                    "velocity": 0.29133858267716534,
                    "duration": 0.18478600000000078
                },
                {
                    "name": "D#4",
                    "midi": 63,
                    "time": 8.684942,
                    "velocity": 0.29133858267716534,
                    "duration": 0.18478600000000078
                },
                {
                    "name": "D4",
                    "midi": 62,
                    "time": 9.054514000000001,
                    "velocity": 0.2992125984251969,
                    "duration": 0.18478600000000078
                },
                {
                    "name": "G#4",
                    "midi": 68,
                    "time": 9.239300000000002,
                    "velocity": 0.33858267716535434,
                    "duration": 0.18478600000000078
                },
                {
                    "name": "C5",
                    "midi": 72,
                    "time": 9.424086000000003,
                    "velocity": 0.33070866141732286,
                    "duration": 0.18478600000000078
                },
                {
                    "name": "G#4",
                    "midi": 68,
                    "time": 9.608872000000003,
                    "velocity": 0.30708661417322836,
                    "duration": 0.18478600000000078
                },
                {
                    "name": "D4",
                    "midi": 62,
                    "time": 9.793658000000004,
                    "velocity": 0.30708661417322836,
                    "duration": 0.18478600000000078
                },
                {
                    "name": "D4",
                    "midi": 62,
                    "time": 10.163230000000006,
                    "velocity": 0.28346456692913385,
                    "duration": 0.18478600000000078
                },
                {
                    "name": "G#4",
                    "midi": 68,
                    "time": 10.348016000000007,
                    "velocity": 0.31496062992125984,
                    "duration": 0.18478600000000078
                },
                {
                    "name": "C5",
                    "midi": 72,
                    "time": 10.532802000000007,
                    "velocity": 0.29133858267716534,
                    "duration": 0.18478600000000078
                },
                {
                    "name": "G#4",
                    "midi": 68,
                    "time": 10.717588000000008,
                    "velocity": 0.25196850393700787,
                    "duration": 0.18478600000000078
                },
                {
                    "name": "D4",
                    "midi": 62,
                    "time": 10.902374000000009,
                    "velocity": 0.2677165354330709,
                    "duration": 0.18478600000000078
                },
                {
                    "name": "C#4",
                    "midi": 61,
                    "time": 11.27194600000001,
                    "velocity": 0.2992125984251969,
                    "duration": 0.18478600000000078
                },
                {
                    "name": "D#4",
                    "midi": 63,
                    "time": 11.456732000000011,
                    "velocity": 0.3543307086614173,
                    "duration": 0.18478600000000078
                },
                {
                    "name": "C5",
                    "midi": 72,
                    "time": 11.641518000000012,
                    "velocity": 0.2992125984251969,
                    "duration": 0.18478600000000078
                },
                {
                    "name": "D#4",
                    "midi": 63,
                    "time": 11.826304000000013,
                    "velocity": 0.2677165354330709,
                    "duration": 0.18478600000000078
                },
                {
                    "name": "C#4",
                    "midi": 61,
                    "time": 12.011090000000014,
                    "velocity": 0.25984251968503935,
                    "duration": 0.18478600000000078
                },
                {
                    "name": "C#4",
                    "midi": 61,
                    "time": 12.380662000000015,
                    "velocity": 0.2992125984251969,
                    "duration": 0.18478600000000078
                },
                {
                    "name": "D#4",
                    "midi": 63,
                    "time": 12.565448000000016,
                    "velocity": 0.33858267716535434,
                    "duration": 0.18478600000000078
                },
                {
                    "name": "G4",
                    "midi": 67,
                    "time": 12.750234000000017,
                    "velocity": 0.2992125984251969,
                    "duration": 0.18478600000000078
                },
                {
                    "name": "D#4",
                    "midi": 63,
                    "time": 12.935020000000018,
                    "velocity": 0.2677165354330709,
                    "duration": 0.18478600000000078
                },
                {
                    "name": "C#4",
                    "midi": 61,
                    "time": 13.119806000000018,
                    "velocity": 0.2677165354330709,
                    "duration": 0.18478600000000078
                },
                {
                    "name": "C4",
                    "midi": 60,
                    "time": 13.48937800000002,
                    "velocity": 0.2992125984251969,
                    "duration": 0.18478600000000078
                },
                {
                    "name": "D#4",
                    "midi": 63,
                    "time": 13.67416400000002,
                    "velocity": 0.33858267716535434,
                    "duration": 0.18478600000000078
                },
                {
                    "name": "G#4",
                    "midi": 68,
                    "time": 13.858950000000021,
                    "velocity": 0.2992125984251969,
                    "duration": 0.18478600000000078
                },
                {
                    "name": "D#4",
                    "midi": 63,
                    "time": 14.043736000000022,
                    "velocity": 0.2677165354330709,
                    "duration": 0.18478600000000078
                },
                {
                    "name": "C4",
                    "midi": 60,
                    "time": 14.228522000000023,
                    "velocity": 0.2677165354330709,
                    "duration": 0.18478600000000078
                },
                {
                    "name": "G#3",
                    "midi": 56,
                    "time": 14.58731481666669,
                    "velocity": 0.2992125984251969,
                    "duration": 0.18478600000000078
                },
                {
                    "name": "C4",
                    "midi": 60,
                    "time": 14.782880000000025,
                    "velocity": 0.33858267716535434,
                    "duration": 0.18478600000000078
                },
                {
                    "name": "G#4",
                    "midi": 68,
                    "time": 14.989224366666694,
                    "velocity": 0.2992125984251969,
                    "duration": 0.18478600000000078
                },
                {
                    "name": "D#4",
                    "midi": 63,
                    "time": 15.152452000000027,
                    "velocity": 0.2677165354330709,
                    "duration": 0.18478600000000078
                },
                {
                    "name": "G#3",
                    "midi": 56,
                    "time": 15.337238000000028,
                    "velocity": 0.2677165354330709,
                    "duration": 0.18478600000000078
                },
                {
                    "name": "D#4",
                    "midi": 63,
                    "time": 15.70681000000003,
                    "velocity": 0.2677165354330709,
                    "duration": 0.18478600000000078
                },
                {
                    "name": "G#4",
                    "midi": 68,
                    "time": 15.89159600000003,
                    "velocity": 0.31496062992125984,
                    "duration": 0.18478600000000078
                },
                {
                    "name": "C5",
                    "midi": 72,
                    "time": 16.07638200000003,
                    "velocity": 0.28346456692913385,
                    "duration": 0.184785999999999
                },
                {
                    "name": "G#4",
                    "midi": 68,
                    "time": 16.26116800000003,
                    "velocity": 0.25196850393700787,
                    "duration": 0.184785999999999
                },
                {
                    "name": "D#4",
                    "midi": 63,
                    "time": 16.44595400000003,
                    "velocity": 0.23622047244094488,
                    "duration": 0.184785999999999
                },
                {
                    "name": "D#4",
                    "midi": 63,
                    "time": 16.815526000000027,
                    "velocity": 0.29133858267716534,
                    "duration": 0.184785999999999
                },
                {
                    "name": "G#4",
                    "midi": 68,
                    "time": 17.000312000000026,
                    "velocity": 0.31496062992125984,
                    "duration": 0.184785999999999
                },
                {
                    "name": "C5",
                    "midi": 72,
                    "time": 17.185098000000025,
                    "velocity": 0.29133858267716534,
                    "duration": 0.184785999999999
                },
                {
                    "name": "G#4",
                    "midi": 68,
                    "time": 17.369884000000024,
                    "velocity": 0.25984251968503935,
                    "duration": 0.184785999999999
                },
                {
                    "name": "D#4",
                    "midi": 63,
                    "time": 17.554670000000023,
                    "velocity": 0.25984251968503935,
                    "duration": 0.184785999999999
                },
                {
                    "name": "E4",
                    "midi": 64,
                    "time": 17.92424200000002,
                    "velocity": 0.2204724409448819,
                    "duration": 0.184785999999999
                },
                {
                    "name": "A#4",
                    "midi": 70,
                    "time": 18.10902800000002,
                    "velocity": 0.25196850393700787,
                    "duration": 0.184785999999999
                },
                {
                    "name": "C5",
                    "midi": 72,
                    "time": 18.29381400000002,
                    "velocity": 0.23622047244094488,
                    "duration": 0.184785999999999
                },
                {
                    "name": "A#4",
                    "midi": 70,
                    "time": 18.478600000000018,
                    "velocity": 0.2204724409448819,
                    "duration": 0.184785999999999
                },
                {
                    "name": "E4",
                    "midi": 64,
                    "time": 18.663386000000017,
                    "velocity": 0.2204724409448819,
                    "duration": 0.184785999999999
                },
                {
                    "name": "E4",
                    "midi": 64,
                    "time": 19.032958000000015,
                    "velocity": 0.25196850393700787,
                    "duration": 0.184785999999999
                },
                {
                    "name": "A#4",
                    "midi": 70,
                    "time": 19.217744000000014,
                    "velocity": 0.29133858267716534,
                    "duration": 0.184785999999999
                },
                {
                    "name": "C5",
                    "midi": 72,
                    "time": 19.402530000000013,
                    "velocity": 0.2755905511811024,
                    "duration": 0.184785999999999
                },
                {
                    "name": "A#4",
                    "midi": 70,
                    "time": 19.587316000000012,
                    "velocity": 0.25196850393700787,
                    "duration": 0.184785999999999
                },
                {
                    "name": "E4",
                    "midi": 64,
                    "time": 19.77210200000001,
                    "velocity": 0.29133858267716534,
                    "duration": 0.184785999999999
                },
                {
                    "name": "D#4",
                    "midi": 63,
                    "time": 20.14167400000001,
                    "velocity": 0.33070866141732286,
                    "duration": 0.184785999999999
                },
                {
                    "name": "A4",
                    "midi": 69,
                    "time": 20.326460000000008,
                    "velocity": 0.3543307086614173,
                    "duration": 0.184785999999999
                },
                {
                    "name": "C5",
                    "midi": 72,
                    "time": 20.511246000000007,
                    "velocity": 0.33858267716535434,
                    "duration": 0.184785999999999
                },
                {
                    "name": "A4",
                    "midi": 69,
                    "time": 20.696032000000006,
                    "velocity": 0.3543307086614173,
                    "duration": 0.184785999999999
                },
                {
                    "name": "D#4",
                    "midi": 63,
                    "time": 20.880818000000005,
                    "velocity": 0.36220472440944884,
                    "duration": 0.184785999999999
                },
                {
                    "name": "D#4",
                    "midi": 63,
                    "time": 21.250390000000003,
                    "velocity": 0.3700787401574803,
                    "duration": 0.184785999999999
                },
                {
                    "name": "A4",
                    "midi": 69,
                    "time": 21.435176000000002,
                    "velocity": 0.4251968503937008,
                    "duration": 0.184785999999999
                },
                {
                    "name": "C5",
                    "midi": 72,
                    "time": 21.619962,
                    "velocity": 0.3937007874015748,
                    "duration": 0.184785999999999
                },
                {
                    "name": "A4",
                    "midi": 69,
                    "time": 21.804748,
                    "velocity": 0.3700787401574803,
                    "duration": 0.184785999999999
                },
                {
                    "name": "D#4",
                    "midi": 63,
                    "time": 21.989534,
                    "velocity": 0.4015748031496063,
                    "duration": 0.184785999999999
                },
                {
                    "name": "D4",
                    "midi": 62,
                    "time": 22.359105999999997,
                    "velocity": 0.2992125984251969,
                    "duration": 0.184785999999999
                },
                {
                    "name": "G#4",
                    "midi": 68,
                    "time": 22.543891999999996,
                    "velocity": 0.33858267716535434,
                    "duration": 0.184785999999999
                },
                {
                    "name": "F5",
                    "midi": 77,
                    "time": 22.728677999999995,
                    "velocity": 0.33070866141732286,
                    "duration": 0.184785999999999
                },
                {
                    "name": "C5",
                    "midi": 72,
                    "time": 22.913463999999994,
                    "velocity": 0.30708661417322836,
                    "duration": 0.184785999999999
                },
                {
                    "name": "G#4",
                    "midi": 68,
                    "time": 23.098249999999993,
                    "velocity": 0.30708661417322836,
                    "duration": 0.184785999999999
                },
                {
                    "name": "G#3",
                    "midi": 56,
                    "time": 23.46782199999999,
                    "velocity": 0.28346456692913385,
                    "duration": 0.184785999999999
                },
                {
                    "name": "A#3",
                    "midi": 58,
                    "time": 23.65260799999999,
                    "velocity": 0.31496062992125984,
                    "duration": 0.184785999999999
                },
                {
                    "name": "F4",
                    "midi": 65,
                    "time": 23.83739399999999,
                    "velocity": 0.29133858267716534,
                    "duration": 0.184785999999999
                },
                {
                    "name": "D4",
                    "midi": 62,
                    "time": 24.022179999999988,
                    "velocity": 0.25984251968503935,
                    "duration": 0.184785999999999
                },
                {
                    "name": "A#3",
                    "midi": 58,
                    "time": 24.206965999999987,
                    "velocity": 0.25984251968503935,
                    "duration": 0.184785999999999
                },
                {
                    "name": "A#3",
                    "midi": 58,
                    "time": 24.576537999999985,
                    "velocity": 0.2992125984251969,
                    "duration": 0.184785999999999
                },
                {
                    "name": "C#4",
                    "midi": 61,
                    "time": 24.761323999999984,
                    "velocity": 0.3543307086614173,
                    "duration": 0.184785999999999
                },
                {
                    "name": "G4",
                    "midi": 67,
                    "time": 24.946109999999983,
                    "velocity": 0.2992125984251969,
                    "duration": 0.184785999999999
                },
                {
                    "name": "D#4",
                    "midi": 63,
                    "time": 25.130895999999982,
                    "velocity": 0.2677165354330709,
                    "duration": 0.184785999999999
                },
                {
                    "name": "C#4",
                    "midi": 61,
                    "time": 25.31568199999998,
                    "velocity": 0.2755905511811024,
                    "duration": 0.184785999999999
                },
                {
                    "name": "C#4",
                    "midi": 61,
                    "time": 25.68525399999998,
                    "velocity": 0.2992125984251969,
                    "duration": 0.184785999999999
                },
                {
                    "name": "D#4",
                    "midi": 63,
                    "time": 25.870039999999978,
                    "velocity": 0.33858267716535434,
                    "duration": 0.184785999999999
                },
                {
                    "name": "G4",
                    "midi": 67,
                    "time": 26.054825999999977,
                    "velocity": 0.2992125984251969,
                    "duration": 0.184785999999999
                },
                {
                    "name": "D#4",
                    "midi": 63,
                    "time": 26.239611999999976,
                    "velocity": 0.25984251968503935,
                    "duration": 0.184785999999999
                },
                {
                    "name": "C#4",
                    "midi": 61,
                    "time": 26.424397999999975,
                    "velocity": 0.25984251968503935,
                    "duration": 0.184785999999999
                },
                {
                    "name": "C4",
                    "midi": 60,
                    "time": 26.793969999999973,
                    "velocity": 0.2992125984251969,
                    "duration": 0.184785999999999
                },
                {
                    "name": "D#4",
                    "midi": 63,
                    "time": 26.978755999999972,
                    "velocity": 0.33858267716535434,
                    "duration": 0.184785999999999
                },
                {
                    "name": "G#4",
                    "midi": 68,
                    "time": 27.16354199999997,
                    "velocity": 0.2992125984251969,
                    "duration": 0.184785999999999
                },
                {
                    "name": "D#4",
                    "midi": 63,
                    "time": 27.34832799999997,
                    "velocity": 0.2677165354330709,
                    "duration": 0.184785999999999
                },
                {
                    "name": "C4",
                    "midi": 60,
                    "time": 27.53311399999997,
                    "velocity": 0.2677165354330709,
                    "duration": 0.184785999999999
                },
                {
                    "name": "C4",
                    "midi": 60,
                    "time": 27.902685999999967,
                    "velocity": 0.2992125984251969,
                    "duration": 0.184785999999999
                },
                {
                    "name": "G#4",
                    "midi": 68,
                    "time": 28.087471999999966,
                    "velocity": 0.33858267716535434,
                    "duration": 0.184785999999999
                },
                {
                    "name": "D#4",
                    "midi": 63,
                    "time": 28.272257999999965,
                    "velocity": 0.2992125984251969,
                    "duration": 0.184785999999999
                },
                {
                    "name": "C4",
                    "midi": 60,
                    "time": 28.457043999999964,
                    "velocity": 0.2992125984251969,
                    "duration": 0.184785999999999
                },
                {
                    "name": "G#3",
                    "midi": 56,
                    "time": 28.641829999999963,
                    "velocity": 0.3700787401574803,
                    "duration": 0.18247617500000146
                },
                {
                    "name": "C#4",
                    "midi": 61,
                    "time": 29.011401999999965,
                    "velocity": 0.2992125984251969,
                    "duration": 0.184785999999999
                },
                {
                    "name": "G#4",
                    "midi": 68,
                    "time": 29.196187999999964,
                    "velocity": 0.31496062992125984,
                    "duration": 0.184785999999999
                },
                {
                    "name": "E4",
                    "midi": 64,
                    "time": 29.380973999999963,
                    "velocity": 0.2992125984251969,
                    "duration": 0.184785999999999
                },
                {
                    "name": "C#4",
                    "midi": 61,
                    "time": 29.565759999999962,
                    "velocity": 0.2677165354330709,
                    "duration": 0.184785999999999
                },
                {
                    "name": "C#4",
                    "midi": 61,
                    "time": 30.120117999999962,
                    "velocity": 0.31496062992125984,
                    "duration": 0.184785999999999
                },
                {
                    "name": "G#4",
                    "midi": 68,
                    "time": 30.30490399999996,
                    "velocity": 0.3543307086614173,
                    "duration": 0.184785999999999
                },
                {
                    "name": "E4",
                    "midi": 64,
                    "time": 30.48968999999996,
                    "velocity": 0.33070866141732286,
                    "duration": 0.184785999999999
                },
                {
                    "name": "C#4",
                    "midi": 61,
                    "time": 30.67447599999996,
                    "velocity": 0.33070866141732286,
                    "duration": 0.184785999999999
                },
                {
                    "name": "D#4",
                    "midi": 63,
                    "time": 31.22883399999996,
                    "velocity": 0.31496062992125984,
                    "duration": 0.184785999999999
                },
                {
                    "name": "C5",
                    "midi": 72,
                    "time": 31.41361999999996,
                    "velocity": 0.3543307086614173,
                    "duration": 0.184785999999999
                },
                {
                    "name": "G#4",
                    "midi": 68,
                    "time": 31.598405999999958,
                    "velocity": 0.33070866141732286,
                    "duration": 0.184785999999999
                },
                {
                    "name": "D#4",
                    "midi": 63,
                    "time": 31.783191999999957,
                    "velocity": 0.2992125984251969,
                    "duration": 0.184785999999999
                },
                {
                    "name": "C4",
                    "midi": 60,
                    "time": 31.967977999999956,
                    "velocity": 0.2992125984251969,
                    "duration": 0.184785999999999
                },
                {
                    "name": "D#4",
                    "midi": 63,
                    "time": 32.33754999999996,
                    "velocity": 0.31496062992125984,
                    "duration": 0.18478600000000256
                },
                {
                    "name": "C5",
                    "midi": 72,
                    "time": 32.52233599999996,
                    "velocity": 0.3543307086614173,
                    "duration": 0.18478600000000256
                },
                {
                    "name": "G#4",
                    "midi": 68,
                    "time": 32.70712199999996,
                    "velocity": 0.33070866141732286,
                    "duration": 0.18478600000000256
                },
                {
                    "name": "D#4",
                    "midi": 63,
                    "time": 32.891907999999965,
                    "velocity": 0.33070866141732286,
                    "duration": 0.18478600000000256
                },
                {
                    "name": "C4",
                    "midi": 60,
                    "time": 33.07669399999997,
                    "velocity": 0.36220472440944884,
                    "duration": 0.18324611666666613
                },
                {
                    "name": "F4",
                    "midi": 65,
                    "time": 33.446265999999966,
                    "velocity": 0.33858267716535434,
                    "duration": 0.18478600000000256
                },
                {
                    "name": "C5",
                    "midi": 72,
                    "time": 33.63105199999997,
                    "velocity": 0.36220472440944884,
                    "duration": 0.18478600000000256
                },
                {
                    "name": "G#4",
                    "midi": 68,
                    "time": 33.81583799999997,
                    "velocity": 0.30708661417322836,
                    "duration": 0.18478600000000256
                },
                {
                    "name": "F4",
                    "midi": 65,
                    "time": 34.00062399999997,
                    "velocity": 0.31496062992125984,
                    "duration": 0.18478600000000256
                },
                {
                    "name": "F4",
                    "midi": 65,
                    "time": 34.554981999999974,
                    "velocity": 0.3779527559055118,
                    "duration": 0.18478600000000256
                },
                {
                    "name": "C5",
                    "midi": 72,
                    "time": 34.73976799999998,
                    "velocity": 0.41732283464566927,
                    "duration": 0.18478600000000256
                },
                {
                    "name": "G#4",
                    "midi": 68,
                    "time": 34.92455399999998,
                    "velocity": 0.3700787401574803,
                    "duration": 0.18478600000000256
                },
                {
                    "name": "F4",
                    "midi": 65,
                    "time": 35.10933999999998,
                    "velocity": 0.3700787401574803,
                    "duration": 0.18478600000000256
                },
                {
                    "name": "G4",
                    "midi": 67,
                    "time": 35.66369799999998,
                    "velocity": 0.3937007874015748,
                    "duration": 0.18478600000000256
                },
                {
                    "name": "C5",
                    "midi": 72,
                    "time": 35.848483999999985,
                    "velocity": 0.4409448818897638,
                    "duration": 0.18478600000000256
                },
                {
                    "name": "E5",
                    "midi": 76,
                    "time": 36.03326999999999,
                    "velocity": 0.4094488188976378,
                    "duration": 0.18478600000000256
                },
                {
                    "name": "C5",
                    "midi": 72,
                    "time": 36.21805599999999,
                    "velocity": 0.3858267716535433,
                    "duration": 0.18478600000000256
                },
                {
                    "name": "G4",
                    "midi": 67,
                    "time": 36.40284199999999,
                    "velocity": 0.3858267716535433,
                    "duration": 0.18478600000000256
                },
                {
                    "name": "G4",
                    "midi": 67,
                    "time": 36.772414,
                    "velocity": 0.3937007874015748,
                    "duration": 0.18478600000000256
                },
                {
                    "name": "C5",
                    "midi": 72,
                    "time": 36.9572,
                    "velocity": 0.4409448818897638,
                    "duration": 0.18478600000000256
                },
                {
                    "name": "E5",
                    "midi": 76,
                    "time": 37.141986,
                    "velocity": 0.4094488188976378,
                    "duration": 0.18478600000000256
                },
                {
                    "name": "C5",
                    "midi": 72,
                    "time": 37.326772000000005,
                    "velocity": 0.3858267716535433,
                    "duration": 0.18478600000000256
                },
                {
                    "name": "G4",
                    "midi": 67,
                    "time": 37.51155800000001,
                    "velocity": 0.3858267716535433,
                    "duration": 0.18478600000000256
                },
                {
                    "name": "A4",
                    "midi": 69,
                    "time": 37.88113000000001,
                    "velocity": 0.30708661417322836,
                    "duration": 0.18478600000000256
                },
                {
                    "name": "C5",
                    "midi": 72,
                    "time": 38.065916000000016,
                    "velocity": 0.3543307086614173,
                    "duration": 0.18478600000000256
                },
                {
                    "name": "E5",
                    "midi": 76,
                    "time": 38.25070200000002,
                    "velocity": 0.2992125984251969,
                    "duration": 0.18478600000000256
                },
                {
                    "name": "C5",
                    "midi": 72,
                    "time": 38.43548800000002,
                    "velocity": 0.25984251968503935,
                    "duration": 0.18478600000000256
                },
                {
                    "name": "A4",
                    "midi": 69,
                    "time": 38.62027400000002,
                    "velocity": 0.25984251968503935,
                    "duration": 0.18478600000000256
                },
                {
                    "name": "A4",
                    "midi": 69,
                    "time": 38.98984600000003,
                    "velocity": 0.2677165354330709,
                    "duration": 0.18478600000000256
                },
                {
                    "name": "C5",
                    "midi": 72,
                    "time": 39.17463200000003,
                    "velocity": 0.3228346456692913,
                    "duration": 0.18478600000000256
                },
                {
                    "name": "E5",
                    "midi": 76,
                    "time": 39.35941800000003,
                    "velocity": 0.2755905511811024,
                    "duration": 0.18478600000000256
                },
                {
                    "name": "C5",
                    "midi": 72,
                    "time": 39.544204000000036,
                    "velocity": 0.25196850393700787,
                    "duration": 0.18478600000000256
                },
                {
                    "name": "A4",
                    "midi": 69,
                    "time": 39.72899000000004,
                    "velocity": 0.25196850393700787,
                    "duration": 0.18478600000000256
                },
                {
                    "name": "G#4",
                    "midi": 68,
                    "time": 40.098562000000044,
                    "velocity": 0.25984251968503935,
                    "duration": 0.18478600000000256
                },
                {
                    "name": "B4",
                    "midi": 71,
                    "time": 40.283348000000046,
                    "velocity": 0.3228346456692913,
                    "duration": 0.18478600000000256
                },
                {
                    "name": "E5",
                    "midi": 76,
                    "time": 40.46813400000005,
                    "velocity": 0.28346456692913385,
                    "duration": 0.18478600000000256
                },
                {
                    "name": "B4",
                    "midi": 71,
                    "time": 40.65292000000005,
                    "velocity": 0.25196850393700787,
                    "duration": 0.18478600000000256
                },
                {
                    "name": "G#4",
                    "midi": 68,
                    "time": 40.837706000000054,
                    "velocity": 0.25984251968503935,
                    "duration": 0.18478600000000256
                },
                {
                    "name": "E4",
                    "midi": 64,
                    "time": 41.20727800000006,
                    "velocity": 0.2440944881889764,
                    "duration": 0.18478600000000256
                },
                {
                    "name": "G#4",
                    "midi": 68,
                    "time": 41.39206400000006,
                    "velocity": 0.29133858267716534,
                    "duration": 0.18478600000000256
                },
                {
                    "name": "B4",
                    "midi": 71,
                    "time": 41.576850000000064,
                    "velocity": 0.2440944881889764,
                    "duration": 0.18478600000000256
                },
                {
                    "name": "G#4",
                    "midi": 68,
                    "time": 41.76163600000007,
                    "velocity": 0.2440944881889764,
                    "duration": 0.18478600000000256
                },
                {
                    "name": "E4",
                    "midi": 64,
                    "time": 41.94642200000007,
                    "velocity": 0.2125984251968504,
                    "duration": 0.18478600000000256
                },
                {
                    "name": "E4",
                    "midi": 64,
                    "time": 42.315994000000074,
                    "velocity": 0.2047244094488189,
                    "duration": 0.18478600000000256
                },
                {
                    "name": "G#4",
                    "midi": 68,
                    "time": 42.50078000000008,
                    "velocity": 0.25984251968503935,
                    "duration": 0.18478600000000256
                },
                {
                    "name": "C#5",
                    "midi": 73,
                    "time": 42.68556600000008,
                    "velocity": 0.2440944881889764,
                    "duration": 0.18478600000000256
                },
                {
                    "name": "G#4",
                    "midi": 68,
                    "time": 42.87035200000008,
                    "velocity": 0.23622047244094488,
                    "duration": 0.18478600000000256
                },
                {
                    "name": "E4",
                    "midi": 64,
                    "time": 43.055138000000085,
                    "velocity": 0.23622047244094488,
                    "duration": 0.18478600000000256
                },
                {
                    "name": "C#4",
                    "midi": 61,
                    "time": 43.42471000000009,
                    "velocity": 0.2125984251968504,
                    "duration": 0.7160457500000064
                },
                {
                    "name": "E4",
                    "midi": 64,
                    "time": 43.60949600000009,
                    "velocity": 0.2677165354330709,
                    "duration": 0.18478600000000256
                },
                {
                    "name": "G#4",
                    "midi": 68,
                    "time": 43.794282000000095,
                    "velocity": 0.23622047244094488,
                    "duration": 0.18478600000000256
                },
                {
                    "name": "E4",
                    "midi": 64,
                    "time": 43.9790680000001,
                    "velocity": 0.2047244094488189,
                    "duration": 0.18478599999999545
                },
                {
                    "name": "C#4",
                    "midi": 61,
                    "time": 44.16385400000009,
                    "velocity": 0.2283464566929134,
                    "duration": 0.18478600000000256
                },
                {
                    "name": "D#4",
                    "midi": 63,
                    "time": 44.5334260000001,
                    "velocity": 0.2440944881889764,
                    "duration": 0.18478600000000256
                },
                {
                    "name": "G4",
                    "midi": 67,
                    "time": 44.7182120000001,
                    "velocity": 0.2992125984251969,
                    "duration": 0.18478600000000256
                },
                {
                    "name": "A#4",
                    "midi": 70,
                    "time": 44.9029980000001,
                    "velocity": 0.2677165354330709,
                    "duration": 0.18478600000000256
                },
                {
                    "name": "G4",
                    "midi": 67,
                    "time": 45.087784000000106,
                    "velocity": 0.2440944881889764,
                    "duration": 0.18478600000000256
                },
                {
                    "name": "D#4",
                    "midi": 63,
                    "time": 45.27257000000011,
                    "velocity": 0.2440944881889764,
                    "duration": 0.18478600000000256
                },
                {
                    "name": "E4",
                    "midi": 64,
                    "time": 45.64214200000011,
                    "velocity": 0.2440944881889764,
                    "duration": 0.18478600000000256
                },
                {
                    "name": "G#4",
                    "midi": 68,
                    "time": 45.826928000000116,
                    "velocity": 0.2992125984251969,
                    "duration": 0.18478600000000256
                },
                {
                    "name": "C#5",
                    "midi": 73,
                    "time": 46.01171400000012,
                    "velocity": 0.25196850393700787,
                    "duration": 0.18478600000000256
                },
                {
                    "name": "G#4",
                    "midi": 68,
                    "time": 46.19650000000012,
                    "velocity": 0.2283464566929134,
                    "duration": 0.18478600000000256
                },
                {
                    "name": "E4",
                    "midi": 64,
                    "time": 46.381286000000124,
                    "velocity": 0.2283464566929134,
                    "duration": 0.18478600000000256
                },
                {
                    "name": "D#4",
                    "midi": 63,
                    "time": 46.75085800000013,
                    "velocity": 0.2440944881889764,
                    "duration": 0.18478600000000256
                },
                {
                    "name": "G4",
                    "midi": 67,
                    "time": 46.93564400000013,
                    "velocity": 0.2992125984251969,
                    "duration": 0.18478600000000256
                },
                {
                    "name": "A#4",
                    "midi": 70,
                    "time": 47.120430000000134,
                    "velocity": 0.25984251968503935,
                    "duration": 0.18478600000000256
                },
                {
                    "name": "G4",
                    "midi": 67,
                    "time": 47.30521600000014,
                    "velocity": 0.23622047244094488,
                    "duration": 0.18478600000000256
                },
                {
                    "name": "D#4",
                    "midi": 63,
                    "time": 47.49000200000014,
                    "velocity": 0.23622047244094488,
                    "duration": 0.18478600000000256
                },
                {
                    "name": "E4",
                    "midi": 64,
                    "time": 47.859574000000144,
                    "velocity": 0.25984251968503935,
                    "duration": 0.18478600000000256
                },
                {
                    "name": "G#4",
                    "midi": 68,
                    "time": 48.04436000000015,
                    "velocity": 0.31496062992125984,
                    "duration": 0.18478600000000256
                },
                {
                    "name": "C#5",
                    "midi": 73,
                    "time": 48.22914600000015,
                    "velocity": 0.2677165354330709,
                    "duration": 0.18478600000000256
                },
                {
                    "name": "G#4",
                    "midi": 68,
                    "time": 48.41393200000015,
                    "velocity": 0.2440944881889764,
                    "duration": 0.18478600000000256
                },
                {
                    "name": "E4",
                    "midi": 64,
                    "time": 48.598718000000154,
                    "velocity": 0.2440944881889764,
                    "duration": 0.18478600000000256
                },
                {
                    "name": "D#4",
                    "midi": 63,
                    "time": 48.96829000000016,
                    "velocity": 0.2440944881889764,
                    "duration": 0.18478600000000256
                },
                {
                    "name": "G4",
                    "midi": 67,
                    "time": 49.15307600000016,
                    "velocity": 0.30708661417322836,
                    "duration": 0.18478600000000256
                },
                {
                    "name": "A#4",
                    "midi": 70,
                    "time": 49.337862000000165,
                    "velocity": 0.2677165354330709,
                    "duration": 0.18478600000000256
                },
                {
                    "name": "G4",
                    "midi": 67,
                    "time": 49.52264800000017,
                    "velocity": 0.25196850393700787,
                    "duration": 0.18478600000000256
                },
                {
                    "name": "D#4",
                    "midi": 63,
                    "time": 49.70743400000017,
                    "velocity": 0.25984251968503935,
                    "duration": 0.18478600000000256
                },
                {
                    "name": "G#4",
                    "midi": 68,
                    "time": 50.077006000000175,
                    "velocity": 0.28346456692913385,
                    "duration": 0.18478600000000256
                },
                {
                    "name": "A#4",
                    "midi": 70,
                    "time": 50.26179200000018,
                    "velocity": 0.3543307086614173,
                    "duration": 0.18478600000000256
                },
                {
                    "name": "E5",
                    "midi": 76,
                    "time": 50.44657800000018,
                    "velocity": 0.3228346456692913,
                    "duration": 0.18478600000000256
                },
                {
                    "name": "A#4",
                    "midi": 70,
                    "time": 50.63136400000018,
                    "velocity": 0.2992125984251969,
                    "duration": 0.18478600000000256
                },
                {
                    "name": "G#4",
                    "midi": 68,
                    "time": 50.816150000000185,
                    "velocity": 0.3228346456692913,
                    "duration": 0.18478600000000256
                },
                {
                    "name": "G#4",
                    "midi": 68,
                    "time": 55.80537200000019,
                    "velocity": 0.29133858267716534,
                    "duration": 0.09239300000000128
                },
                {
                    "name": "E4",
                    "midi": 64,
                    "time": 55.80537200000019,
                    "velocity": 0.29133858267716534,
                    "duration": 0.09239300000000128
                },
                {
                    "name": "D#4",
                    "midi": 63,
                    "time": 55.89776500000019,
                    "velocity": 0.30708661417322836,
                    "duration": 0.09239300000000128
                },
                {
                    "name": "G4",
                    "midi": 67,
                    "time": 55.89776500000019,
                    "velocity": 0.30708661417322836,
                    "duration": 0.09239300000000128
                },
                {
                    "name": "G#4",
                    "midi": 68,
                    "time": 55.99015800000019,
                    "velocity": 0.31496062992125984,
                    "duration": 0.09239300000000128
                },
                {
                    "name": "C#5",
                    "midi": 73,
                    "time": 55.99015800000019,
                    "velocity": 0.31496062992125984,
                    "duration": 0.09239300000000128
                },
                {
                    "name": "G4",
                    "midi": 67,
                    "time": 56.082551000000194,
                    "velocity": 0.33070866141732286,
                    "duration": 0.09239300000000128
                },
                {
                    "name": "A#4",
                    "midi": 70,
                    "time": 56.082551000000194,
                    "velocity": 0.33070866141732286,
                    "duration": 0.09239300000000128
                },
                {
                    "name": "C#5",
                    "midi": 73,
                    "time": 56.174944000000195,
                    "velocity": 0.33858267716535434,
                    "duration": 0.09239300000000128
                },
                {
                    "name": "E5",
                    "midi": 76,
                    "time": 56.174944000000195,
                    "velocity": 0.33858267716535434,
                    "duration": 0.09239300000000128
                },
                {
                    "name": "A#4",
                    "midi": 70,
                    "time": 56.2673370000002,
                    "velocity": 0.3543307086614173,
                    "duration": 0.09239300000000128
                },
                {
                    "name": "D#5",
                    "midi": 75,
                    "time": 56.2673370000002,
                    "velocity": 0.3543307086614173,
                    "duration": 0.09239300000000128
                },
                {
                    "name": "E5",
                    "midi": 76,
                    "time": 56.3597300000002,
                    "velocity": 0.36220472440944884,
                    "duration": 0.09239300000000128
                },
                {
                    "name": "G#5",
                    "midi": 80,
                    "time": 56.3597300000002,
                    "velocity": 0.36220472440944884,
                    "duration": 0.09239300000000128
                },
                {
                    "name": "D#5",
                    "midi": 75,
                    "time": 56.4521230000002,
                    "velocity": 0.3779527559055118,
                    "duration": 0.09239300000000128
                },
                {
                    "name": "G5",
                    "midi": 79,
                    "time": 56.4521230000002,
                    "velocity": 0.3779527559055118,
                    "duration": 0.09239300000000128
                },
                {
                    "name": "C#6",
                    "midi": 85,
                    "time": 56.5445160000002,
                    "velocity": 0.3858267716535433,
                    "duration": 0.09239300000000128
                },
                {
                    "name": "G#5",
                    "midi": 80,
                    "time": 56.5445160000002,
                    "velocity": 0.3858267716535433,
                    "duration": 0.09239300000000128
                },
                {
                    "name": "G5",
                    "midi": 79,
                    "time": 56.6369090000002,
                    "velocity": 0.4015748031496063,
                    "duration": 0.09239300000000128
                },
                {
                    "name": "A#5",
                    "midi": 82,
                    "time": 56.6369090000002,
                    "velocity": 0.4015748031496063,
                    "duration": 0.09239300000000128
                },
                {
                    "name": "C#6",
                    "midi": 85,
                    "time": 56.7293020000002,
                    "velocity": 0.4094488188976378,
                    "duration": 0.09239300000000128
                },
                {
                    "name": "E6",
                    "midi": 88,
                    "time": 56.7293020000002,
                    "velocity": 0.4094488188976378,
                    "duration": 0.09239300000000128
                },
                {
                    "name": "A#5",
                    "midi": 82,
                    "time": 56.821695000000204,
                    "velocity": 0.4251968503937008,
                    "duration": 0.09239300000000128
                },
                {
                    "name": "D#6",
                    "midi": 87,
                    "time": 56.821695000000204,
                    "velocity": 0.4251968503937008,
                    "duration": 0.09239300000000128
                },
                {
                    "name": "E6",
                    "midi": 88,
                    "time": 56.914088000000206,
                    "velocity": 0.4330708661417323,
                    "duration": 0.09239300000000128
                },
                {
                    "name": "G#6",
                    "midi": 92,
                    "time": 56.914088000000206,
                    "velocity": 0.4330708661417323,
                    "duration": 0.09239300000000128
                },
                {
                    "name": "D#6",
                    "midi": 87,
                    "time": 57.00648100000021,
                    "velocity": 0.44881889763779526,
                    "duration": 0.09239300000000128
                },
                {
                    "name": "G6",
                    "midi": 91,
                    "time": 57.00648100000021,
                    "velocity": 0.44881889763779526,
                    "duration": 0.09239300000000128
                },
                {
                    "name": "G#6",
                    "midi": 92,
                    "time": 57.09887400000021,
                    "velocity": 0.4566929133858268,
                    "duration": 0.09239300000000128
                },
                {
                    "name": "C#7",
                    "midi": 97,
                    "time": 57.09887400000021,
                    "velocity": 0.4566929133858268,
                    "duration": 0.09239300000000128
                },
                {
                    "name": "A#6",
                    "midi": 94,
                    "time": 57.19126700000021,
                    "velocity": 0.47244094488188976,
                    "duration": 0.09239300000000128
                },
                {
                    "name": "G6",
                    "midi": 91,
                    "time": 57.19126700000021,
                    "velocity": 0.47244094488188976,
                    "duration": 0.09239300000000128
                },
                {
                    "name": "C#7",
                    "midi": 97,
                    "time": 57.28366000000021,
                    "velocity": 0.48031496062992124,
                    "duration": 0.09239300000000128
                },
                {
                    "name": "E7",
                    "midi": 100,
                    "time": 57.28366000000021,
                    "velocity": 0.48031496062992124,
                    "duration": 0.09239300000000128
                },
                {
                    "name": "A#6",
                    "midi": 94,
                    "time": 57.37605300000021,
                    "velocity": 0.48031496062992124,
                    "duration": 0.09239300000000128
                },
                {
                    "name": "D#7",
                    "midi": 99,
                    "time": 57.37605300000021,
                    "velocity": 0.48031496062992124,
                    "duration": 0.09239300000000128
                },
                {
                    "name": "C#7",
                    "midi": 97,
                    "time": 57.46844600000021,
                    "velocity": 0.47244094488188976,
                    "duration": 0.09239300000000128
                },
                {
                    "name": "E7",
                    "midi": 100,
                    "time": 57.46844600000021,
                    "velocity": 0.47244094488188976,
                    "duration": 0.09239300000000128
                },
                {
                    "name": "A#6",
                    "midi": 94,
                    "time": 57.560839000000215,
                    "velocity": 0.4645669291338583,
                    "duration": 0.09239300000000128
                },
                {
                    "name": "D#7",
                    "midi": 99,
                    "time": 57.560839000000215,
                    "velocity": 0.4645669291338583,
                    "duration": 0.09239300000000128
                },
                {
                    "name": "G#6",
                    "midi": 92,
                    "time": 57.653232000000216,
                    "velocity": 0.44881889763779526,
                    "duration": 0.09239300000000128
                },
                {
                    "name": "C#7",
                    "midi": 97,
                    "time": 57.653232000000216,
                    "velocity": 0.44881889763779526,
                    "duration": 0.09239300000000128
                },
                {
                    "name": "G6",
                    "midi": 91,
                    "time": 57.74562500000022,
                    "velocity": 0.44881889763779526,
                    "duration": 0.09239300000000128
                },
                {
                    "name": "A#6",
                    "midi": 94,
                    "time": 57.74562500000022,
                    "velocity": 0.44881889763779526,
                    "duration": 0.09239300000000128
                },
                {
                    "name": "G#6",
                    "midi": 92,
                    "time": 57.83801800000022,
                    "velocity": 0.4330708661417323,
                    "duration": 0.09239300000000128
                },
                {
                    "name": "E6",
                    "midi": 88,
                    "time": 57.83801800000022,
                    "velocity": 0.4330708661417323,
                    "duration": 0.09239300000000128
                },
                {
                    "name": "D#6",
                    "midi": 87,
                    "time": 57.93041100000022,
                    "velocity": 0.4251968503937008,
                    "duration": 0.09239300000000128
                },
                {
                    "name": "G6",
                    "midi": 91,
                    "time": 57.93041100000022,
                    "velocity": 0.4251968503937008,
                    "duration": 0.09239300000000128
                },
                {
                    "name": "G#6",
                    "midi": 92,
                    "time": 58.02280400000022,
                    "velocity": 0.41732283464566927,
                    "duration": 0.09239300000000128
                },
                {
                    "name": "E6",
                    "midi": 88,
                    "time": 58.02280400000022,
                    "velocity": 0.41732283464566927,
                    "duration": 0.09239300000000128
                },
                {
                    "name": "D#6",
                    "midi": 87,
                    "time": 58.11519700000022,
                    "velocity": 0.4094488188976378,
                    "duration": 0.09239300000000128
                },
                {
                    "name": "G6",
                    "midi": 91,
                    "time": 58.11519700000022,
                    "velocity": 0.4094488188976378,
                    "duration": 0.09239300000000128
                },
                {
                    "name": "C#6",
                    "midi": 85,
                    "time": 58.20759000000022,
                    "velocity": 0.4015748031496063,
                    "duration": 0.09239300000000128
                },
                {
                    "name": "E6",
                    "midi": 88,
                    "time": 58.20759000000022,
                    "velocity": 0.4015748031496063,
                    "duration": 0.09239300000000128
                },
                {
                    "name": "A#5",
                    "midi": 82,
                    "time": 58.299983000000225,
                    "velocity": 0.3937007874015748,
                    "duration": 0.09239300000000128
                },
                {
                    "name": "D#6",
                    "midi": 87,
                    "time": 58.299983000000225,
                    "velocity": 0.3937007874015748,
                    "duration": 0.09239300000000128
                },
                {
                    "name": "C#6",
                    "midi": 85,
                    "time": 58.392376000000226,
                    "velocity": 0.3858267716535433,
                    "duration": 0.09239300000000128
                },
                {
                    "name": "G#5",
                    "midi": 80,
                    "time": 58.392376000000226,
                    "velocity": 0.3858267716535433,
                    "duration": 0.09239300000000128
                },
                {
                    "name": "A#5",
                    "midi": 82,
                    "time": 58.48476900000023,
                    "velocity": 0.3779527559055118,
                    "duration": 0.09239300000000128
                },
                {
                    "name": "G5",
                    "midi": 79,
                    "time": 58.48476900000023,
                    "velocity": 0.3779527559055118,
                    "duration": 0.09239300000000128
                },
                {
                    "name": "C#6",
                    "midi": 85,
                    "time": 58.57716200000023,
                    "velocity": 0.3700787401574803,
                    "duration": 0.09239300000000128
                },
                {
                    "name": "G#5",
                    "midi": 80,
                    "time": 58.57716200000023,
                    "velocity": 0.3700787401574803,
                    "duration": 0.09239300000000128
                },
                {
                    "name": "A#5",
                    "midi": 82,
                    "time": 58.66955500000023,
                    "velocity": 0.36220472440944884,
                    "duration": 0.09239300000000128
                },
                {
                    "name": "G5",
                    "midi": 79,
                    "time": 58.66955500000023,
                    "velocity": 0.36220472440944884,
                    "duration": 0.09239300000000128
                },
                {
                    "name": "G#5",
                    "midi": 80,
                    "time": 58.76194800000023,
                    "velocity": 0.3543307086614173,
                    "duration": 0.09239300000000128
                },
                {
                    "name": "E5",
                    "midi": 76,
                    "time": 58.76194800000023,
                    "velocity": 0.3543307086614173,
                    "duration": 0.09239300000000128
                },
                {
                    "name": "D#5",
                    "midi": 75,
                    "time": 58.85434100000023,
                    "velocity": 0.3464566929133858,
                    "duration": 0.09239300000000128
                },
                {
                    "name": "G5",
                    "midi": 79,
                    "time": 58.85434100000023,
                    "velocity": 0.3464566929133858,
                    "duration": 0.09239300000000128
                },
                {
                    "name": "C#5",
                    "midi": 73,
                    "time": 58.946734000000234,
                    "velocity": 0.33858267716535434,
                    "duration": 0.09239300000000128
                },
                {
                    "name": "E5",
                    "midi": 76,
                    "time": 58.946734000000234,
                    "velocity": 0.33858267716535434,
                    "duration": 0.09239300000000128
                },
                {
                    "name": "A#4",
                    "midi": 70,
                    "time": 59.039127000000235,
                    "velocity": 0.33070866141732286,
                    "duration": 0.09239300000000128
                },
                {
                    "name": "D#5",
                    "midi": 75,
                    "time": 59.039127000000235,
                    "velocity": 0.33070866141732286,
                    "duration": 0.09239300000000128
                },
                {
                    "name": "C#5",
                    "midi": 73,
                    "time": 59.131520000000236,
                    "velocity": 0.3228346456692913,
                    "duration": 0.09239300000000128
                },
                {
                    "name": "E5",
                    "midi": 76,
                    "time": 59.131520000000236,
                    "velocity": 0.3228346456692913,
                    "duration": 0.09239300000000128
                },
                {
                    "name": "A#4",
                    "midi": 70,
                    "time": 59.22391300000024,
                    "velocity": 0.31496062992125984,
                    "duration": 0.09239300000000128
                },
                {
                    "name": "D#5",
                    "midi": 75,
                    "time": 59.22391300000024,
                    "velocity": 0.31496062992125984,
                    "duration": 0.09239300000000128
                },
                {
                    "name": "G#4",
                    "midi": 68,
                    "time": 59.31630600000024,
                    "velocity": 0.30708661417322836,
                    "duration": 0.09239300000000128
                },
                {
                    "name": "C#5",
                    "midi": 73,
                    "time": 59.31630600000024,
                    "velocity": 0.30708661417322836,
                    "duration": 0.09239300000000128
                },
                {
                    "name": "G4",
                    "midi": 67,
                    "time": 59.40869900000024,
                    "velocity": 0.2992125984251969,
                    "duration": 0.09239300000000128
                },
                {
                    "name": "A#4",
                    "midi": 70,
                    "time": 59.40869900000024,
                    "velocity": 0.2992125984251969,
                    "duration": 0.09239300000000128
                },
                {
                    "name": "G#4",
                    "midi": 68,
                    "time": 59.50109200000024,
                    "velocity": 0.3228346456692913,
                    "duration": 0.09239300000000128
                },
                {
                    "name": "C#5",
                    "midi": 73,
                    "time": 59.50109200000024,
                    "velocity": 0.3228346456692913,
                    "duration": 0.09239300000000128
                },
                {
                    "name": "G4",
                    "midi": 67,
                    "time": 59.59348500000024,
                    "velocity": 0.33070866141732286,
                    "duration": 0.09239300000000128
                },
                {
                    "name": "A#4",
                    "midi": 70,
                    "time": 59.59348500000024,
                    "velocity": 0.33070866141732286,
                    "duration": 0.09239300000000128
                },
                {
                    "name": "G#4",
                    "midi": 68,
                    "time": 59.685878000000244,
                    "velocity": 0.33858267716535434,
                    "duration": 0.09239300000000128
                },
                {
                    "name": "C#5",
                    "midi": 73,
                    "time": 59.685878000000244,
                    "velocity": 0.33858267716535434,
                    "duration": 0.09239300000000128
                },
                {
                    "name": "G4",
                    "midi": 67,
                    "time": 59.778271000000245,
                    "velocity": 0.3464566929133858,
                    "duration": 0.09239300000000128
                },
                {
                    "name": "A#4",
                    "midi": 70,
                    "time": 59.778271000000245,
                    "velocity": 0.3464566929133858,
                    "duration": 0.09239300000000128
                },
                {
                    "name": "G#4",
                    "midi": 68,
                    "time": 59.87066400000025,
                    "velocity": 0.36220472440944884,
                    "duration": 0.09239300000000128
                },
                {
                    "name": "C#5",
                    "midi": 73,
                    "time": 59.87066400000025,
                    "velocity": 0.36220472440944884,
                    "duration": 0.09239300000000128
                },
                {
                    "name": "G#4",
                    "midi": 68,
                    "time": 59.87066400000025,
                    "velocity": 0.36220472440944884,
                    "duration": 0.09239300000000128
                },
                {
                    "name": "C#5",
                    "midi": 73,
                    "time": 59.87066400000025,
                    "velocity": 0.36220472440944884,
                    "duration": 0.09239300000000128
                },
                {
                    "name": "G4",
                    "midi": 67,
                    "time": 59.96305700000025,
                    "velocity": 0.3779527559055118,
                    "duration": 0.09239300000000128
                },
                {
                    "name": "A#4",
                    "midi": 70,
                    "time": 59.96305700000025,
                    "velocity": 0.3779527559055118,
                    "duration": 0.09239300000000128
                },
                {
                    "name": "G#4",
                    "midi": 68,
                    "time": 60.05545000000025,
                    "velocity": 0.4015748031496063,
                    "duration": 0.09239300000000128
                },
                {
                    "name": "C#5",
                    "midi": 73,
                    "time": 60.05545000000025,
                    "velocity": 0.4015748031496063,
                    "duration": 0.09239300000000128
                },
                {
                    "name": "G4",
                    "midi": 67,
                    "time": 60.14784300000025,
                    "velocity": 0.41732283464566927,
                    "duration": 0.09239300000000128
                },
                {
                    "name": "A#4",
                    "midi": 70,
                    "time": 60.14784300000025,
                    "velocity": 0.41732283464566927,
                    "duration": 0.09239300000000128
                },
                {
                    "name": "G#4",
                    "midi": 68,
                    "time": 60.24023600000025,
                    "velocity": 0.4330708661417323,
                    "duration": 0.09239300000000128
                },
                {
                    "name": "C#5",
                    "midi": 73,
                    "time": 60.24023600000025,
                    "velocity": 0.4330708661417323,
                    "duration": 0.09239300000000128
                },
                {
                    "name": "G4",
                    "midi": 67,
                    "time": 60.33262900000025,
                    "velocity": 0.44881889763779526,
                    "duration": 0.09239300000000128
                },
                {
                    "name": "A#4",
                    "midi": 70,
                    "time": 60.33262900000025,
                    "velocity": 0.44881889763779526,
                    "duration": 0.09239300000000128
                },
                {
                    "name": "G#4",
                    "midi": 68,
                    "time": 60.425022000000254,
                    "velocity": 0.47244094488188976,
                    "duration": 0.09239300000000128
                },
                {
                    "name": "C#5",
                    "midi": 73,
                    "time": 60.425022000000254,
                    "velocity": 0.47244094488188976,
                    "duration": 0.09239300000000128
                },
                {
                    "name": "G4",
                    "midi": 67,
                    "time": 60.517415000000256,
                    "velocity": 0.4881889763779528,
                    "duration": 0.09239300000000128
                },
                {
                    "name": "A#4",
                    "midi": 70,
                    "time": 60.517415000000256,
                    "velocity": 0.4881889763779528,
                    "duration": 0.09239300000000128
                },
                {
                    "name": "G#4",
                    "midi": 68,
                    "time": 60.60980800000026,
                    "velocity": 0.5118110236220472,
                    "duration": 0.09239300000000128
                },
                {
                    "name": "C#5",
                    "midi": 73,
                    "time": 60.60980800000026,
                    "velocity": 0.5118110236220472,
                    "duration": 0.09239300000000128
                },
                {
                    "name": "G4",
                    "midi": 67,
                    "time": 60.70220100000026,
                    "velocity": 0.5039370078740157,
                    "duration": 0.09239300000000128
                },
                {
                    "name": "A#4",
                    "midi": 70,
                    "time": 60.70220100000026,
                    "velocity": 0.5039370078740157,
                    "duration": 0.09239300000000128
                },
                {
                    "name": "G#4",
                    "midi": 68,
                    "time": 60.79459400000026,
                    "velocity": 0.48031496062992124,
                    "duration": 0.09239300000000128
                },
                {
                    "name": "C#5",
                    "midi": 73,
                    "time": 60.79459400000026,
                    "velocity": 0.48031496062992124,
                    "duration": 0.09239300000000128
                },
                {
                    "name": "G4",
                    "midi": 67,
                    "time": 60.88698700000026,
                    "velocity": 0.4566929133858268,
                    "duration": 0.09239300000000128
                },
                {
                    "name": "A#4",
                    "midi": 70,
                    "time": 60.88698700000026,
                    "velocity": 0.4566929133858268,
                    "duration": 0.09239300000000128
                },
                {
                    "name": "G#4",
                    "midi": 68,
                    "time": 60.97938000000026,
                    "velocity": 0.4330708661417323,
                    "duration": 0.09239300000000128
                },
                {
                    "name": "C#5",
                    "midi": 73,
                    "time": 60.97938000000026,
                    "velocity": 0.4330708661417323,
                    "duration": 0.09239300000000128
                },
                {
                    "name": "G4",
                    "midi": 67,
                    "time": 61.07177300000026,
                    "velocity": 0.41732283464566927,
                    "duration": 0.09239300000000128
                },
                {
                    "name": "A#4",
                    "midi": 70,
                    "time": 61.07177300000026,
                    "velocity": 0.41732283464566927,
                    "duration": 0.09239300000000128
                },
                {
                    "name": "G#4",
                    "midi": 68,
                    "time": 61.164166000000264,
                    "velocity": 0.3779527559055118,
                    "duration": 0.09239300000000128
                },
                {
                    "name": "C#5",
                    "midi": 73,
                    "time": 61.164166000000264,
                    "velocity": 0.3779527559055118,
                    "duration": 0.09239300000000128
                },
                {
                    "name": "G4",
                    "midi": 67,
                    "time": 61.256559000000266,
                    "velocity": 0.3464566929133858,
                    "duration": 0.09239300000000128
                },
                {
                    "name": "A#4",
                    "midi": 70,
                    "time": 61.256559000000266,
                    "velocity": 0.3464566929133858,
                    "duration": 0.09239300000000128
                },
                {
                    "name": "G#4",
                    "midi": 68,
                    "time": 61.34895200000027,
                    "velocity": 0.3228346456692913,
                    "duration": 0.09239300000000128
                },
                {
                    "name": "C#5",
                    "midi": 73,
                    "time": 61.34895200000027,
                    "velocity": 0.3228346456692913,
                    "duration": 0.09239300000000128
                },
                {
                    "name": "G4",
                    "midi": 67,
                    "time": 61.44134500000027,
                    "velocity": 0.29133858267716534,
                    "duration": 0.09239300000000128
                },
                {
                    "name": "A#4",
                    "midi": 70,
                    "time": 61.44134500000027,
                    "velocity": 0.29133858267716534,
                    "duration": 0.09239300000000128
                },
                {
                    "name": "G#4",
                    "midi": 68,
                    "time": 61.53373800000027,
                    "velocity": 0.2677165354330709,
                    "duration": 0.09239300000000128
                },
                {
                    "name": "C#5",
                    "midi": 73,
                    "time": 61.53373800000027,
                    "velocity": 0.2677165354330709,
                    "duration": 0.09239300000000128
                },
                {
                    "name": "G4",
                    "midi": 67,
                    "time": 61.62613100000027,
                    "velocity": 0.23622047244094488,
                    "duration": 0.09239300000000128
                },
                {
                    "name": "A#4",
                    "midi": 70,
                    "time": 61.62613100000027,
                    "velocity": 0.23622047244094488,
                    "duration": 0.09239300000000128
                },
                {
                    "name": "D5",
                    "midi": 74,
                    "time": 62.457668000000275,
                    "velocity": 0.36220472440944884,
                    "duration": 0.369571999999998
                },
                {
                    "name": "D#5",
                    "midi": 75,
                    "time": 62.82724000000027,
                    "velocity": 0.4094488188976378,
                    "duration": 1.1087160000000154
                },
                {
                    "name": "D#4",
                    "midi": 63,
                    "time": 63.012026000000276,
                    "velocity": 0.2125984251968504,
                    "duration": 0.18478600000000256
                },
                {
                    "name": "F#4",
                    "midi": 66,
                    "time": 63.19681200000028,
                    "velocity": 0.25196850393700787,
                    "duration": 0.18478600000000256
                },
                {
                    "name": "B4",
                    "midi": 71,
                    "time": 63.38159800000028,
                    "velocity": 0.2204724409448819,
                    "duration": 0.18478600000000256
                },
                {
                    "name": "F#4",
                    "midi": 66,
                    "time": 63.56638400000028,
                    "velocity": 0.2125984251968504,
                    "duration": 0.18478600000000256
                },
                {
                    "name": "D#4",
                    "midi": 63,
                    "time": 63.751170000000286,
                    "velocity": 0.2125984251968504,
                    "duration": 0.18478600000000256
                },
                {
                    "name": "D#5",
                    "midi": 75,
                    "time": 63.93595600000029,
                    "velocity": 0.4094488188976378,
                    "duration": 1.1087160000000154
                },
                {
                    "name": "D#4",
                    "midi": 63,
                    "time": 64.12074200000029,
                    "velocity": 0.2283464566929134,
                    "duration": 0.18478600000000256
                },
                {
                    "name": "F#4",
                    "midi": 66,
                    "time": 64.3055280000003,
                    "velocity": 0.25196850393700787,
                    "duration": 0.18478600000000256
                },
                {
                    "name": "B4",
                    "midi": 71,
                    "time": 64.4903140000003,
                    "velocity": 0.2283464566929134,
                    "duration": 0.18478600000000256
                },
                {
                    "name": "F#4",
                    "midi": 66,
                    "time": 64.6751000000003,
                    "velocity": 0.2204724409448819,
                    "duration": 0.18478600000000256
                },
                {
                    "name": "D#4",
                    "midi": 63,
                    "time": 64.8598860000003,
                    "velocity": 0.2283464566929134,
                    "duration": 0.18478600000000256
                },
                {
                    "name": "D#5",
                    "midi": 75,
                    "time": 65.0446720000003,
                    "velocity": 0.4251968503937008,
                    "duration": 1.1087160000000154
                },
                {
                    "name": "D#4",
                    "midi": 63,
                    "time": 65.2294580000003,
                    "velocity": 0.25196850393700787,
                    "duration": 0.18478600000000256
                },
                {
                    "name": "G4",
                    "midi": 67,
                    "time": 65.41424400000031,
                    "velocity": 0.2992125984251969,
                    "duration": 0.18478600000000256
                },
                {
                    "name": "C#5",
                    "midi": 73,
                    "time": 65.59903000000031,
                    "velocity": 0.25196850393700787,
                    "duration": 0.18478600000000256
                },
                {
                    "name": "G4",
                    "midi": 67,
                    "time": 65.78381600000031,
                    "velocity": 0.23622047244094488,
                    "duration": 0.18478600000000256
                },
                {
                    "name": "D#4",
                    "midi": 63,
                    "time": 65.96860200000032,
                    "velocity": 0.23622047244094488,
                    "duration": 0.18478600000000256
                },
                {
                    "name": "D#4",
                    "midi": 63,
                    "time": 66.33817400000032,
                    "velocity": 0.25196850393700787,
                    "duration": 0.18478600000000256
                },
                {
                    "name": "G4",
                    "midi": 67,
                    "time": 66.52296000000032,
                    "velocity": 0.2755905511811024,
                    "duration": 0.18478600000000256
                },
                {
                    "name": "C#5",
                    "midi": 73,
                    "time": 66.70774600000033,
                    "velocity": 0.25196850393700787,
                    "duration": 0.18478600000000256
                },
                {
                    "name": "D#5",
                    "midi": 75,
                    "time": 66.89253200000033,
                    "velocity": 0.4094488188976378,
                    "duration": 0.3695720000000051
                },
                {
                    "name": "G4",
                    "midi": 67,
                    "time": 66.89253200000033,
                    "velocity": 0.2204724409448819,
                    "duration": 0.18478600000000256
                },
                {
                    "name": "D#4",
                    "midi": 63,
                    "time": 67.07731800000033,
                    "velocity": 0.25984251968503935,
                    "duration": 0.18478600000000256
                },
                {
                    "name": "D#5",
                    "midi": 75,
                    "time": 67.26210400000033,
                    "velocity": 0.4409448818897638,
                    "duration": 0.7391440000000102
                },
                {
                    "name": "D#4",
                    "midi": 63,
                    "time": 67.44689000000034,
                    "velocity": 0.2755905511811024,
                    "duration": 0.18478600000000256
                },
                {
                    "name": "F#4",
                    "midi": 66,
                    "time": 67.63167600000034,
                    "velocity": 0.29133858267716534,
                    "duration": 0.18478600000000256
                },
                {
                    "name": "C#5",
                    "midi": 73,
                    "time": 67.81646200000034,
                    "velocity": 0.2677165354330709,
                    "duration": 0.18478600000000256
                },
                {
                    "name": "F#4",
                    "midi": 66,
                    "time": 68.00124800000034,
                    "velocity": 0.2440944881889764,
                    "duration": 0.18478600000000256
                },
                {
                    "name": "D#5",
                    "midi": 75,
                    "time": 68.00124800000034,
                    "velocity": 0.3937007874015748,
                    "duration": 0.3695720000000051
                },
                {
                    "name": "D#4",
                    "midi": 63,
                    "time": 68.18603400000035,
                    "velocity": 0.2755905511811024,
                    "duration": 0.18478600000000256
                },
                {
                    "name": "E5",
                    "midi": 76,
                    "time": 68.37082000000035,
                    "velocity": 0.4330708661417323,
                    "duration": 0.7391440000000102
                },
                {
                    "name": "D#4",
                    "midi": 63,
                    "time": 68.55560600000035,
                    "velocity": 0.2992125984251969,
                    "duration": 0.18478600000000256
                },
                {
                    "name": "F#4",
                    "midi": 66,
                    "time": 68.74039200000036,
                    "velocity": 0.33070866141732286,
                    "duration": 0.18478600000000256
                },
                {
                    "name": "C5",
                    "midi": 72,
                    "time": 68.92517800000036,
                    "velocity": 0.29133858267716534,
                    "duration": 0.18478600000000256
                },
                {
                    "name": "D#5",
                    "midi": 75,
                    "time": 69.10996400000036,
                    "velocity": 0.3858267716535433,
                    "duration": 0.3695720000000051
                },
                {
                    "name": "F#4",
                    "midi": 66,
                    "time": 69.10996400000036,
                    "velocity": 0.25984251968503935,
                    "duration": 0.18478600000000256
                },
                {
                    "name": "D#4",
                    "midi": 63,
                    "time": 69.29475000000036,
                    "velocity": 0.25984251968503935,
                    "duration": 0.18478600000000256
                },
                {
                    "name": "D#5",
                    "midi": 75,
                    "time": 69.47953600000037,
                    "velocity": 0.4409448818897638,
                    "duration": 1.1087160000000154
                },
                {
                    "name": "D#4",
                    "midi": 63,
                    "time": 69.66432200000037,
                    "velocity": 0.23622047244094488,
                    "duration": 0.18478600000000256
                },
                {
                    "name": "F4",
                    "midi": 65,
                    "time": 69.84910800000037,
                    "velocity": 0.2677165354330709,
                    "duration": 0.18478600000000256
                },
                {
                    "name": "B4",
                    "midi": 71,
                    "time": 70.03389400000037,
                    "velocity": 0.25984251968503935,
                    "duration": 0.18478600000000256
                },
                {
                    "name": "F4",
                    "midi": 65,
                    "time": 70.21868000000038,
                    "velocity": 0.2440944881889764,
                    "duration": 0.18478600000000256
                },
                {
                    "name": "D#4",
                    "midi": 63,
                    "time": 70.40346600000038,
                    "velocity": 0.2440944881889764,
                    "duration": 0.18478600000000256
                },
                {
                    "name": "G#4",
                    "midi": 68,
                    "time": 70.58825200000038,
                    "velocity": 0.36220472440944884,
                    "duration": 0.3695720000000051
                },
                {
                    "name": "B3",
                    "midi": 59,
                    "time": 70.77303800000038,
                    "velocity": 0.1889763779527559,
                    "duration": 0.18478600000000256
                },
                {
                    "name": "C#4",
                    "midi": 61,
                    "time": 70.95782400000039,
                    "velocity": 0.23622047244094488,
                    "duration": 0.18478600000000256
                },
                {
                    "name": "F4",
                    "midi": 65,
                    "time": 71.14261000000039,
                    "velocity": 0.1889763779527559,
                    "duration": 0.18478600000000256
                },
                {
                    "name": "C#4",
                    "midi": 61,
                    "time": 71.32739600000039,
                    "velocity": 0.2440944881889764,
                    "duration": 0.18478600000000256
                },
                {
                    "name": "G#4",
                    "midi": 68,
                    "time": 71.32739600000039,
                    "velocity": 0.36220472440944884,
                    "duration": 0.3695720000000051
                },
                {
                    "name": "B3",
                    "midi": 59,
                    "time": 71.5121820000004,
                    "velocity": 0.2440944881889764,
                    "duration": 0.18478600000000256
                },
                {
                    "name": "G#4",
                    "midi": 68,
                    "time": 71.6969680000004,
                    "velocity": 0.4094488188976378,
                    "duration": 0.3695720000000051
                },
                {
                    "name": "C#4",
                    "midi": 61,
                    "time": 71.8817540000004,
                    "velocity": 0.28346456692913385,
                    "duration": 0.18478600000000256
                },
                {
                    "name": "A#4",
                    "midi": 70,
                    "time": 72.0665400000004,
                    "velocity": 0.4251968503937008,
                    "duration": 0.3695720000000051
                },
                {
                    "name": "E4",
                    "midi": 64,
                    "time": 72.0665400000004,
                    "velocity": 0.2992125984251969,
                    "duration": 0.18478600000000256
                },
                {
                    "name": "F#4",
                    "midi": 66,
                    "time": 72.2513260000004,
                    "velocity": 0.2992125984251969,
                    "duration": 0.18478600000000256
                },
                {
                    "name": "B4",
                    "midi": 71,
                    "time": 72.4361120000004,
                    "velocity": 0.4409448818897638,
                    "duration": 0.3695720000000051
                },
                {
                    "name": "E4",
                    "midi": 64,
                    "time": 72.4361120000004,
                    "velocity": 0.2992125984251969,
                    "duration": 0.18478600000000256
                },
                {
                    "name": "C#4",
                    "midi": 61,
                    "time": 72.62089800000041,
                    "velocity": 0.33070866141732286,
                    "duration": 0.18478600000000256
                },
                {
                    "name": "D#5",
                    "midi": 75,
                    "time": 72.80568400000041,
                    "velocity": 0.47244094488188976,
                    "duration": 0.7391440000000102
                },
                {
                    "name": "E4",
                    "midi": 64,
                    "time": 72.99047000000041,
                    "velocity": 0.31496062992125984,
                    "duration": 0.18478600000000256
                },
                {
                    "name": "F#4",
                    "midi": 66,
                    "time": 73.17525600000042,
                    "velocity": 0.3779527559055118,
                    "duration": 0.18478600000000256
                },
                {
                    "name": "A#4",
                    "midi": 70,
                    "time": 73.36004200000042,
                    "velocity": 0.31496062992125984,
                    "duration": 0.18478600000000256
                },
                {
                    "name": "C#5",
                    "midi": 73,
                    "time": 73.54482800000042,
                    "velocity": 0.41732283464566927,
                    "duration": 0.3695720000000051
                },
                {
                    "name": "F#4",
                    "midi": 66,
                    "time": 73.54482800000042,
                    "velocity": 0.2440944881889764,
                    "duration": 0.18478600000000256
                },
                {
                    "name": "E4",
                    "midi": 64,
                    "time": 73.72961400000042,
                    "velocity": 0.29133858267716534,
                    "duration": 0.18478600000000256
                },
                {
                    "name": "C#5",
                    "midi": 73,
                    "time": 73.91440000000043,
                    "velocity": 0.47244094488188976,
                    "duration": 0.3695720000000051
                },
                {
                    "name": "D#4",
                    "midi": 63,
                    "time": 74.09918600000043,
                    "velocity": 0.29133858267716534,
                    "duration": 0.18478600000000256
                },
                {
                    "name": "F#4",
                    "midi": 66,
                    "time": 74.28397200000043,
                    "velocity": 0.2677165354330709,
                    "duration": 0.18478600000000256
                },
                {
                    "name": "B4",
                    "midi": 71,
                    "time": 74.28397200000043,
                    "velocity": 0.41732283464566927,
                    "duration": 0.3695720000000051
                },
                {
                    "name": "D#4",
                    "midi": 63,
                    "time": 74.46875800000043,
                    "velocity": 0.28346456692913385,
                    "duration": 0.18478600000000256
                },
                {
                    "name": "G#4",
                    "midi": 68,
                    "time": 74.65354400000044,
                    "velocity": 0.41732283464566927,
                    "duration": 0.3695720000000051
                },
                {
                    "name": "D4",
                    "midi": 62,
                    "time": 74.83833000000044,
                    "velocity": 0.2440944881889764,
                    "duration": 0.18478600000000256
                },
                {
                    "name": "D#4",
                    "midi": 63,
                    "time": 75.02311600000044,
                    "velocity": 0.2677165354330709,
                    "duration": 0.18478600000000256
                },
                {
                    "name": "F#4",
                    "midi": 66,
                    "time": 75.02311600000044,
                    "velocity": 0.4094488188976378,
                    "duration": 0.3695720000000051
                },
                {
                    "name": "F#4",
                    "midi": 66,
                    "time": 75.94704600000044,
                    "velocity": 0.5118110236220472,
                    "duration": 0.18478600000000256
                },
                {
                    "name": "D#5",
                    "midi": 75,
                    "time": 76.13183200000044,
                    "velocity": 0.5669291338582677,
                    "duration": 1.1087160000000154
                },
                {
                    "name": "D#4",
                    "midi": 63,
                    "time": 76.31661800000045,
                    "velocity": 0.3858267716535433,
                    "duration": 0.18478600000000256
                },
                {
                    "name": "F#4",
                    "midi": 66,
                    "time": 76.50140400000045,
                    "velocity": 0.4409448818897638,
                    "duration": 0.18478600000000256
                },
                {
                    "name": "B4",
                    "midi": 71,
                    "time": 76.68619000000045,
                    "velocity": 0.3700787401574803,
                    "duration": 0.18478600000000256
                },
                {
                    "name": "F#4",
                    "midi": 66,
                    "time": 76.87097600000045,
                    "velocity": 0.3700787401574803,
                    "duration": 0.18478600000000256
                },
                {
                    "name": "D#4",
                    "midi": 63,
                    "time": 77.05576200000046,
                    "velocity": 0.3700787401574803,
                    "duration": 0.18478600000000256
                },
                {
                    "name": "D#5",
                    "midi": 75,
                    "time": 77.24054800000046,
                    "velocity": 0.6220472440944882,
                    "duration": 1.1087160000000154
                },
                {
                    "name": "D#4",
                    "midi": 63,
                    "time": 77.42533400000046,
                    "velocity": 0.44881889763779526,
                    "duration": 0.18478600000000256
                },
                {
                    "name": "G4",
                    "midi": 67,
                    "time": 77.61012000000046,
                    "velocity": 0.49606299212598426,
                    "duration": 0.18478600000000256
                },
                {
                    "name": "C#5",
                    "midi": 73,
                    "time": 77.79490600000047,
                    "velocity": 0.4566929133858268,
                    "duration": 0.18478600000000256
                },
                {
                    "name": "G4",
                    "midi": 67,
                    "time": 77.97969200000047,
                    "velocity": 0.4566929133858268,
                    "duration": 0.18478600000000256
                },
                {
                    "name": "D#4",
                    "midi": 63,
                    "time": 78.16447800000047,
                    "velocity": 0.4566929133858268,
                    "duration": 0.18478600000000256
                },
                {
                    "name": "D#5",
                    "midi": 75,
                    "time": 78.34926400000047,
                    "velocity": 0.6377952755905512,
                    "duration": 1.1087160000000154
                },
                {
                    "name": "D#4",
                    "midi": 63,
                    "time": 78.53405000000048,
                    "velocity": 0.4881889763779528,
                    "duration": 0.18478600000000256
                },
                {
                    "name": "F#4",
                    "midi": 66,
                    "time": 78.71883600000048,
                    "velocity": 0.5275590551181102,
                    "duration": 0.18478600000000256
                },
                {
                    "name": "C5",
                    "midi": 72,
                    "time": 78.90362200000048,
                    "velocity": 0.5196850393700787,
                    "duration": 0.18478600000000256
                },
                {
                    "name": "F#4",
                    "midi": 66,
                    "time": 79.08840800000048,
                    "velocity": 0.5433070866141733,
                    "duration": 0.18478600000000256
                },
                {
                    "name": "D#4",
                    "midi": 63,
                    "time": 79.27319400000049,
                    "velocity": 0.5433070866141733,
                    "duration": 0.18478600000000256
                },
                {
                    "name": "D#4",
                    "midi": 63,
                    "time": 79.64276600000049,
                    "velocity": 0.4881889763779528,
                    "duration": 0.18478600000000256
                },
                {
                    "name": "F#4",
                    "midi": 66,
                    "time": 79.8275520000005,
                    "velocity": 0.5354330708661418,
                    "duration": 0.18478600000000256
                },
                {
                    "name": "C5",
                    "midi": 72,
                    "time": 80.0123380000005,
                    "velocity": 0.5118110236220472,
                    "duration": 0.18478600000000256
                },
                {
                    "name": "D#5",
                    "midi": 75,
                    "time": 80.1971240000005,
                    "velocity": 0.5984251968503937,
                    "duration": 0.3695720000000051
                },
                {
                    "name": "F#4",
                    "midi": 66,
                    "time": 80.1971240000005,
                    "velocity": 0.44881889763779526,
                    "duration": 0.18478600000000256
                },
                {
                    "name": "D#4",
                    "midi": 63,
                    "time": 80.3819100000005,
                    "velocity": 0.5196850393700787,
                    "duration": 0.18478600000000256
                },
                {
                    "name": "D#5",
                    "midi": 75,
                    "time": 80.5666960000005,
                    "velocity": 0.6456692913385826,
                    "duration": 0.7391440000000102
                },
                {
                    "name": "E4",
                    "midi": 64,
                    "time": 80.75148200000051,
                    "velocity": 0.5275590551181102,
                    "duration": 0.18478600000000256
                },
                {
                    "name": "G4",
                    "midi": 67,
                    "time": 80.93626800000051,
                    "velocity": 0.5590551181102362,
                    "duration": 0.18478600000000256
                },
                {
                    "name": "C5",
                    "midi": 72,
                    "time": 81.12105400000051,
                    "velocity": 0.5039370078740157,
                    "duration": 0.18478600000000256
                },
                {
                    "name": "G4",
                    "midi": 67,
                    "time": 81.30584000000052,
                    "velocity": 0.4251968503937008,
                    "duration": 0.18478600000000256
                },
                {
                    "name": "E5",
                    "midi": 76,
                    "time": 81.30584000000052,
                    "velocity": 0.5905511811023622,
                    "duration": 0.3695720000000051
                },
                {
                    "name": "E4",
                    "midi": 64,
                    "time": 81.49062600000052,
                    "velocity": 0.49606299212598426,
                    "duration": 0.18478600000000256
                },
                {
                    "name": "D#5",
                    "midi": 75,
                    "time": 81.67541200000052,
                    "velocity": 0.6299212598425197,
                    "duration": 0.7391440000000102
                },
                {
                    "name": "E4",
                    "midi": 64,
                    "time": 81.86019800000052,
                    "velocity": 0.5039370078740157,
                    "duration": 0.18478600000000256
                },
                {
                    "name": "G4",
                    "midi": 67,
                    "time": 82.04498400000053,
                    "velocity": 0.5590551181102362,
                    "duration": 0.18478600000000256
                },
                {
                    "name": "C5",
                    "midi": 72,
                    "time": 82.22977000000053,
                    "velocity": 0.48031496062992124,
                    "duration": 0.18478600000000256
                },
                {
                    "name": "E5",
                    "midi": 76,
                    "time": 82.41455600000053,
                    "velocity": 0.6141732283464567,
                    "duration": 0.3695720000000051
                },
                {
                    "name": "G4",
                    "midi": 67,
                    "time": 82.41455600000053,
                    "velocity": 0.4251968503937008,
                    "duration": 0.18478600000000256
                },
                {
                    "name": "E4",
                    "midi": 64,
                    "time": 82.59934200000053,
                    "velocity": 0.4251968503937008,
                    "duration": 0.18478600000000256
                },
                {
                    "name": "F5",
                    "midi": 77,
                    "time": 82.78412800000054,
                    "velocity": 0.6614173228346457,
                    "duration": 1.8478600000000114
                },
                {
                    "name": "F4",
                    "midi": 65,
                    "time": 82.96891400000054,
                    "velocity": 0.5275590551181102,
                    "duration": 0.18478600000000256
                },
                {
                    "name": "A4",
                    "midi": 69,
                    "time": 83.15370000000054,
                    "velocity": 0.5669291338582677,
                    "duration": 0.18478600000000256
                },
                {
                    "name": "C5",
                    "midi": 72,
                    "time": 83.33848600000054,
                    "velocity": 0.4566929133858268,
                    "duration": 0.18478600000000256
                },
                {
                    "name": "A4",
                    "midi": 69,
                    "time": 83.52327200000055,
                    "velocity": 0.4015748031496063,
                    "duration": 0.18478600000000256
                },
                {
                    "name": "F4",
                    "midi": 65,
                    "time": 83.70805800000055,
                    "velocity": 0.4015748031496063,
                    "duration": 0.18478600000000256
                },
                {
                    "name": "A3",
                    "midi": 57,
                    "time": 84.63198800000055,
                    "velocity": 0.5511811023622047,
                    "duration": 0.3695720000000051
                },
                {
                    "name": "A4",
                    "midi": 69,
                    "time": 84.63198800000055,
                    "velocity": 0.6220472440944882,
                    "duration": 0.3695720000000051
                },
                {
                    "name": "A3",
                    "midi": 57,
                    "time": 85.00156000000055,
                    "velocity": 0.5905511811023622,
                    "duration": 0.3695720000000051
                },
                {
                    "name": "A4",
                    "midi": 69,
                    "time": 85.00156000000055,
                    "velocity": 0.6850393700787402,
                    "duration": 0.3695720000000051
                },
                {
                    "name": "B3",
                    "midi": 59,
                    "time": 85.37113200000056,
                    "velocity": 0.47244094488188976,
                    "duration": 0.3695720000000051
                },
                {
                    "name": "B4",
                    "midi": 71,
                    "time": 85.37113200000056,
                    "velocity": 0.5511811023622047,
                    "duration": 0.3695720000000051
                },
                {
                    "name": "C4",
                    "midi": 60,
                    "time": 85.74070400000056,
                    "velocity": 0.49606299212598426,
                    "duration": 0.3695720000000051
                },
                {
                    "name": "C5",
                    "midi": 72,
                    "time": 85.74070400000056,
                    "velocity": 0.5669291338582677,
                    "duration": 0.3695720000000051
                },
                {
                    "name": "E4",
                    "midi": 64,
                    "time": 86.09872687500057,
                    "velocity": 0.5275590551181102,
                    "duration": 0.750693124999998
                },
                {
                    "name": "E5",
                    "midi": 76,
                    "time": 86.11027600000057,
                    "velocity": 0.6220472440944882,
                    "duration": 0.739143999999996
                },
                {
                    "name": "D4",
                    "midi": 62,
                    "time": 86.84942000000056,
                    "velocity": 0.4566929133858268,
                    "duration": 0.3695720000000051
                },
                {
                    "name": "D5",
                    "midi": 74,
                    "time": 86.84942000000056,
                    "velocity": 0.5275590551181102,
                    "duration": 0.3695720000000051
                },
                {
                    "name": "G4",
                    "midi": 67,
                    "time": 87.21899200000057,
                    "velocity": 0.5118110236220472,
                    "duration": 0.3695720000000051
                },
                {
                    "name": "C4",
                    "midi": 60,
                    "time": 87.21899200000057,
                    "velocity": 0.5118110236220472,
                    "duration": 0.3695720000000051
                },
                {
                    "name": "C5",
                    "midi": 72,
                    "time": 87.21899200000057,
                    "velocity": 0.5905511811023622,
                    "duration": 0.3695720000000051
                },
                {
                    "name": "C6",
                    "midi": 84,
                    "time": 89.25163800000057,
                    "velocity": 0.6456692913385826,
                    "duration": 0.18478600000000256
                },
                {
                    "name": "C5",
                    "midi": 72,
                    "time": 89.25163800000057,
                    "velocity": 0.5118110236220472,
                    "duration": 0.18478600000000256
                },
                {
                    "name": "C5",
                    "midi": 72,
                    "time": 89.43642400000057,
                    "velocity": 0.5354330708661418,
                    "duration": 0.9239299999999986
                },
                {
                    "name": "F5",
                    "midi": 77,
                    "time": 89.43642400000057,
                    "velocity": 0.5354330708661418,
                    "duration": 0.9239299999999986
                },
                {
                    "name": "G#5",
                    "midi": 80,
                    "time": 89.43642400000057,
                    "velocity": 0.5354330708661418,
                    "duration": 0.9239299999999986
                },
                {
                    "name": "C6",
                    "midi": 84,
                    "time": 89.43642400000057,
                    "velocity": 0.6614173228346457,
                    "duration": 0.9239299999999986
                },
                {
                    "name": "B4",
                    "midi": 71,
                    "time": 90.36035400000057,
                    "velocity": 0.5511811023622047,
                    "duration": 0.18478600000000256
                },
                {
                    "name": "F5",
                    "midi": 77,
                    "time": 90.36035400000057,
                    "velocity": 0.5511811023622047,
                    "duration": 0.18478600000000256
                },
                {
                    "name": "G#5",
                    "midi": 80,
                    "time": 90.36035400000057,
                    "velocity": 0.5511811023622047,
                    "duration": 0.18478600000000256
                },
                {
                    "name": "B5",
                    "midi": 83,
                    "time": 90.36035400000057,
                    "velocity": 0.6141732283464567,
                    "duration": 0.18478600000000256
                },
                {
                    "name": "C5",
                    "midi": 72,
                    "time": 90.54514000000057,
                    "velocity": 0.6141732283464567,
                    "duration": 0.9239299999999986
                },
                {
                    "name": "F5",
                    "midi": 77,
                    "time": 90.54514000000057,
                    "velocity": 0.6141732283464567,
                    "duration": 0.9239299999999986
                },
                {
                    "name": "G#5",
                    "midi": 80,
                    "time": 90.54514000000057,
                    "velocity": 0.6141732283464567,
                    "duration": 0.9239299999999986
                },
                {
                    "name": "C6",
                    "midi": 84,
                    "time": 90.54514000000057,
                    "velocity": 0.6377952755905512,
                    "duration": 0.9239299999999986
                },
                {
                    "name": "D5",
                    "midi": 74,
                    "time": 91.46907000000057,
                    "velocity": 0.5354330708661418,
                    "duration": 0.18478600000000256
                },
                {
                    "name": "F5",
                    "midi": 77,
                    "time": 91.46907000000057,
                    "velocity": 0.5354330708661418,
                    "duration": 0.18478600000000256
                },
                {
                    "name": "G#5",
                    "midi": 80,
                    "time": 91.46907000000057,
                    "velocity": 0.5354330708661418,
                    "duration": 0.18478600000000256
                },
                {
                    "name": "D6",
                    "midi": 86,
                    "time": 91.46907000000057,
                    "velocity": 0.6299212598425197,
                    "duration": 0.18478600000000256
                },
                {
                    "name": "E5",
                    "midi": 76,
                    "time": 91.65385600000057,
                    "velocity": 0.5669291338582677,
                    "duration": 0.9239299999999986
                },
                {
                    "name": "G5",
                    "midi": 79,
                    "time": 91.65385600000057,
                    "velocity": 0.5748031496062992,
                    "duration": 0.9239299999999986
                },
                {
                    "name": "E6",
                    "midi": 88,
                    "time": 91.65385600000057,
                    "velocity": 0.7086614173228346,
                    "duration": 0.9239299999999986
                },
                {
                    "name": "D5",
                    "midi": 74,
                    "time": 92.57778600000057,
                    "velocity": 0.5905511811023622,
                    "duration": 0.18478600000000256
                },
                {
                    "name": "G5",
                    "midi": 79,
                    "time": 92.57778600000057,
                    "velocity": 0.5905511811023622,
                    "duration": 0.18478600000000256
                },
                {
                    "name": "D6",
                    "midi": 86,
                    "time": 92.57778600000057,
                    "velocity": 0.6535433070866141,
                    "duration": 0.18478600000000256
                },
                {
                    "name": "C5",
                    "midi": 72,
                    "time": 92.76257200000057,
                    "velocity": 0.6141732283464567,
                    "duration": 0.3695720000000051
                },
                {
                    "name": "G5",
                    "midi": 79,
                    "time": 92.76257200000057,
                    "velocity": 0.6377952755905512,
                    "duration": 0.3695720000000051
                },
                {
                    "name": "C6",
                    "midi": 84,
                    "time": 92.76257200000057,
                    "velocity": 0.6614173228346457,
                    "duration": 0.3695720000000051
                },
                {
                    "name": "E6",
                    "midi": 88,
                    "time": 93.68650200000057,
                    "velocity": 0.6929133858267716,
                    "duration": 0.18478600000000256
                },
                {
                    "name": "E5",
                    "midi": 76,
                    "time": 93.68650200000057,
                    "velocity": 0.5905511811023622,
                    "duration": 0.18478600000000256
                },
                {
                    "name": "E5",
                    "midi": 76,
                    "time": 93.87128800000058,
                    "velocity": 0.6299212598425197,
                    "duration": 0.9239299999999986
                },
                {
                    "name": "A5",
                    "midi": 81,
                    "time": 93.87128800000058,
                    "velocity": 0.6299212598425197,
                    "duration": 0.9239299999999986
                },
                {
                    "name": "C6",
                    "midi": 84,
                    "time": 93.87128800000058,
                    "velocity": 0.6299212598425197,
                    "duration": 0.9239299999999986
                },
                {
                    "name": "E6",
                    "midi": 88,
                    "time": 93.87128800000058,
                    "velocity": 0.7322834645669292,
                    "duration": 0.9239299999999986
                },
                {
                    "name": "D#5",
                    "midi": 75,
                    "time": 94.79521800000057,
                    "velocity": 0.5826771653543307,
                    "duration": 0.18478600000000256
                },
                {
                    "name": "A5",
                    "midi": 81,
                    "time": 94.79521800000057,
                    "velocity": 0.5826771653543307,
                    "duration": 0.18478600000000256
                },
                {
                    "name": "C6",
                    "midi": 84,
                    "time": 94.79521800000057,
                    "velocity": 0.5826771653543307,
                    "duration": 0.18478600000000256
                },
                {
                    "name": "D#6",
                    "midi": 87,
                    "time": 94.79521800000057,
                    "velocity": 0.6929133858267716,
                    "duration": 0.18478600000000256
                },
                {
                    "name": "E5",
                    "midi": 76,
                    "time": 94.98000400000058,
                    "velocity": 0.5905511811023622,
                    "duration": 0.9239299999999986
                },
                {
                    "name": "A5",
                    "midi": 81,
                    "time": 94.98000400000058,
                    "velocity": 0.5905511811023622,
                    "duration": 0.9239299999999986
                },
                {
                    "name": "C6",
                    "midi": 84,
                    "time": 94.98000400000058,
                    "velocity": 0.5905511811023622,
                    "duration": 0.9239299999999986
                },
                {
                    "name": "E6",
                    "midi": 88,
                    "time": 94.98000400000058,
                    "velocity": 0.7322834645669292,
                    "duration": 0.9239299999999986
                },
                {
                    "name": "F#5",
                    "midi": 78,
                    "time": 95.90393400000058,
                    "velocity": 0.6535433070866141,
                    "duration": 0.18478600000000256
                },
                {
                    "name": "F#6",
                    "midi": 90,
                    "time": 95.90393400000058,
                    "velocity": 0.6929133858267716,
                    "duration": 0.18478600000000256
                },
                {
                    "name": "G#5",
                    "midi": 80,
                    "time": 96.08872000000058,
                    "velocity": 0.6299212598425197,
                    "duration": 1.1087159999999585
                },
                {
                    "name": "G#6",
                    "midi": 92,
                    "time": 96.08872000000058,
                    "velocity": 0.7480314960629921,
                    "duration": 1.1087159999999585
                },
                {
                    "name": "B4",
                    "midi": 71,
                    "time": 96.27350600000058,
                    "velocity": 0.49606299212598426,
                    "duration": 0.20326459999999713
                },
                {
                    "name": "E5",
                    "midi": 76,
                    "time": 96.45829200000058,
                    "velocity": 0.5511811023622047,
                    "duration": 0.20326459999998292
                },
                {
                    "name": "G#4",
                    "midi": 68,
                    "time": 96.64307800000057,
                    "velocity": 0.4881889763779528,
                    "duration": 0.20326459999998292
                },
                {
                    "name": "B4",
                    "midi": 71,
                    "time": 96.82786400000056,
                    "velocity": 0.49606299212598426,
                    "duration": 0.20326459999998292
                },
                {
                    "name": "E5",
                    "midi": 76,
                    "time": 97.01265000000055,
                    "velocity": 0.49606299212598426,
                    "duration": 0.18478599999998835
                },
                {
                    "name": "G#5",
                    "midi": 80,
                    "time": 97.19743600000054,
                    "velocity": 0.6299212598425197,
                    "duration": 1.1087159999999585
                },
                {
                    "name": "G#6",
                    "midi": 92,
                    "time": 97.19743600000054,
                    "velocity": 0.7480314960629921,
                    "duration": 1.1087159999999585
                },
                {
                    "name": "B4",
                    "midi": 71,
                    "time": 97.38222200000054,
                    "velocity": 0.5275590551181102,
                    "duration": 0.20326459999999713
                },
                {
                    "name": "E5",
                    "midi": 76,
                    "time": 97.56700800000054,
                    "velocity": 0.5275590551181102,
                    "duration": 0.20326459999998292
                },
                {
                    "name": "G#4",
                    "midi": 68,
                    "time": 97.75179400000053,
                    "velocity": 0.5118110236220472,
                    "duration": 0.20326459999998292
                },
                {
                    "name": "B4",
                    "midi": 71,
                    "time": 97.93658000000052,
                    "velocity": 0.4881889763779528,
                    "duration": 0.20326459999998292
                },
                {
                    "name": "E5",
                    "midi": 76,
                    "time": 98.1213660000005,
                    "velocity": 0.4881889763779528,
                    "duration": 0.18478599999998835
                },
                {
                    "name": "G#5",
                    "midi": 80,
                    "time": 98.3061520000005,
                    "velocity": 0.6299212598425197,
                    "duration": 1.1087159999999585
                },
                {
                    "name": "G#6",
                    "midi": 92,
                    "time": 98.3061520000005,
                    "velocity": 0.7480314960629921,
                    "duration": 1.1087159999999585
                },
                {
                    "name": "C5",
                    "midi": 72,
                    "time": 98.4909380000005,
                    "velocity": 0.5275590551181102,
                    "duration": 0.20326459999999713
                },
                {
                    "name": "F#5",
                    "midi": 78,
                    "time": 98.6757240000005,
                    "velocity": 0.5590551181102362,
                    "duration": 0.20326459999998292
                },
                {
                    "name": "G#4",
                    "midi": 68,
                    "time": 98.86051000000049,
                    "velocity": 0.5275590551181102,
                    "duration": 0.20326459999998292
                },
                {
                    "name": "C5",
                    "midi": 72,
                    "time": 99.04529600000048,
                    "velocity": 0.5748031496062992,
                    "duration": 0.20326459999998292
                },
                {
                    "name": "F#5",
                    "midi": 78,
                    "time": 99.23008200000046,
                    "velocity": 0.5984251968503937,
                    "duration": 0.18478599999998835
                },
                {
                    "name": "G#5",
                    "midi": 80,
                    "time": 99.41486800000045,
                    "velocity": 0.6377952755905512,
                    "duration": 0.20326459999999713
                },
                {
                    "name": "C5",
                    "midi": 72,
                    "time": 99.59965400000046,
                    "velocity": 0.5590551181102362,
                    "duration": 0.20326459999998292
                },
                {
                    "name": "F#5",
                    "midi": 78,
                    "time": 99.78444000000044,
                    "velocity": 0.5984251968503937,
                    "duration": 0.20326459999998292
                },
                {
                    "name": "C5",
                    "midi": 72,
                    "time": 99.96922600000043,
                    "velocity": 0.5511811023622047,
                    "duration": 0.20326459999999713
                },
                {
                    "name": "G#5",
                    "midi": 80,
                    "time": 100.33879800000042,
                    "velocity": 0.6535433070866141,
                    "duration": 0.18478600000000256
                },
                {
                    "name": "G#6",
                    "midi": 92,
                    "time": 100.33879800000042,
                    "velocity": 0.6929133858267716,
                    "duration": 0.18478600000000256
                },
                {
                    "name": "G#5",
                    "midi": 80,
                    "time": 100.52358400000043,
                    "velocity": 0.6299212598425197,
                    "duration": 0.7391439999999818
                },
                {
                    "name": "G#6",
                    "midi": 92,
                    "time": 100.52358400000043,
                    "velocity": 0.7480314960629921,
                    "duration": 0.7391439999999818
                },
                {
                    "name": "B4",
                    "midi": 71,
                    "time": 100.70837000000043,
                    "velocity": 0.5354330708661418,
                    "duration": 0.20326459999999713
                },
                {
                    "name": "E5",
                    "midi": 76,
                    "time": 100.89315600000043,
                    "velocity": 0.5511811023622047,
                    "duration": 0.20326459999998292
                },
                {
                    "name": "G#4",
                    "midi": 68,
                    "time": 101.07794200000042,
                    "velocity": 0.5354330708661418,
                    "duration": 0.20326459999998292
                },
                {
                    "name": "G#6",
                    "midi": 92,
                    "time": 101.4475140000004,
                    "velocity": 0.6456692913385826,
                    "duration": 0.18478600000000256
                },
                {
                    "name": "G#5",
                    "midi": 80,
                    "time": 101.4475140000004,
                    "velocity": 0.6062992125984252,
                    "duration": 0.18478600000000256
                },
                {
                    "name": "A5",
                    "midi": 81,
                    "time": 101.6323000000004,
                    "velocity": 0.6299212598425197,
                    "duration": 0.7391439999999818
                },
                {
                    "name": "A6",
                    "midi": 93,
                    "time": 101.6323000000004,
                    "velocity": 0.7480314960629921,
                    "duration": 0.7391439999999818
                },
                {
                    "name": "B4",
                    "midi": 71,
                    "time": 101.8170860000004,
                    "velocity": 0.5275590551181102,
                    "duration": 0.20326459999999713
                },
                {
                    "name": "F5",
                    "midi": 77,
                    "time": 102.0018720000004,
                    "velocity": 0.5748031496062992,
                    "duration": 0.20326459999998292
                },
                {
                    "name": "G#4",
                    "midi": 68,
                    "time": 102.18665800000039,
                    "velocity": 0.5275590551181102,
                    "duration": 0.20326459999998292
                },
                {
                    "name": "G#6",
                    "midi": 92,
                    "time": 102.55623000000037,
                    "velocity": 0.6535433070866141,
                    "duration": 0.18478600000000256
                },
                {
                    "name": "G#5",
                    "midi": 80,
                    "time": 102.55623000000037,
                    "velocity": 0.5984251968503937,
                    "duration": 0.18478600000000256
                },
                {
                    "name": "G#5",
                    "midi": 80,
                    "time": 102.74101600000037,
                    "velocity": 0.6299212598425197,
                    "duration": 1.1087160000000011
                },
                {
                    "name": "G#6",
                    "midi": 92,
                    "time": 102.74101600000037,
                    "velocity": 0.7480314960629921,
                    "duration": 1.1087160000000011
                },
                {
                    "name": "C#5",
                    "midi": 73,
                    "time": 103.84973200000037,
                    "velocity": 0.5511811023622047,
                    "duration": 0.3695720000000051
                },
                {
                    "name": "C#6",
                    "midi": 85,
                    "time": 103.84973200000037,
                    "velocity": 0.6692913385826772,
                    "duration": 0.3695720000000051
                },
                {
                    "name": "C#5",
                    "midi": 73,
                    "time": 104.58887600000038,
                    "velocity": 0.5511811023622047,
                    "duration": 0.3695720000000051
                },
                {
                    "name": "C#6",
                    "midi": 85,
                    "time": 104.58887600000038,
                    "velocity": 0.6299212598425197,
                    "duration": 0.3695720000000051
                },
                {
                    "name": "C#5",
                    "midi": 73,
                    "time": 104.95844800000039,
                    "velocity": 0.5511811023622047,
                    "duration": 0.3695720000000051
                },
                {
                    "name": "A5",
                    "midi": 81,
                    "time": 104.95844800000039,
                    "velocity": 0.5511811023622047,
                    "duration": 0.3695720000000051
                },
                {
                    "name": "C#6",
                    "midi": 85,
                    "time": 104.95844800000039,
                    "velocity": 0.6692913385826772,
                    "duration": 0.3695720000000051
                },
                {
                    "name": "D#5",
                    "midi": 75,
                    "time": 105.3280200000004,
                    "velocity": 0.5511811023622047,
                    "duration": 0.3695720000000051
                },
                {
                    "name": "B5",
                    "midi": 83,
                    "time": 105.3280200000004,
                    "velocity": 0.5511811023622047,
                    "duration": 0.3695720000000051
                },
                {
                    "name": "A5",
                    "midi": 81,
                    "time": 105.3280200000004,
                    "velocity": 0.5511811023622047,
                    "duration": 0.3695720000000051
                },
                {
                    "name": "D#6",
                    "midi": 87,
                    "time": 105.3280200000004,
                    "velocity": 0.6614173228346457,
                    "duration": 0.3695720000000051
                },
                {
                    "name": "E5",
                    "midi": 76,
                    "time": 105.6975920000004,
                    "velocity": 0.5590551181102362,
                    "duration": 0.3695720000000051
                },
                {
                    "name": "B5",
                    "midi": 83,
                    "time": 105.6975920000004,
                    "velocity": 0.5590551181102362,
                    "duration": 0.3695720000000051
                },
                {
                    "name": "A5",
                    "midi": 81,
                    "time": 105.6975920000004,
                    "velocity": 0.5590551181102362,
                    "duration": 0.3695720000000051
                },
                {
                    "name": "E6",
                    "midi": 88,
                    "time": 105.6975920000004,
                    "velocity": 0.6692913385826772,
                    "duration": 0.3695720000000051
                },
                {
                    "name": "G#5",
                    "midi": 80,
                    "time": 106.0671640000004,
                    "velocity": 0.05511811023622047,
                    "duration": 0.739143999999996
                },
                {
                    "name": "B5",
                    "midi": 83,
                    "time": 106.0671640000004,
                    "velocity": 0.5905511811023622,
                    "duration": 0.739143999999996
                },
                {
                    "name": "D#6",
                    "midi": 87,
                    "time": 106.0671640000004,
                    "velocity": 0.6377952755905512,
                    "duration": 0.739143999999996
                },
                {
                    "name": "G#6",
                    "midi": 92,
                    "time": 106.0671640000004,
                    "velocity": 0.7086614173228346,
                    "duration": 0.739143999999996
                },
                {
                    "name": "F#5",
                    "midi": 78,
                    "time": 106.8063080000004,
                    "velocity": 0.5984251968503937,
                    "duration": 0.3695720000000051
                },
                {
                    "name": "F#6",
                    "midi": 90,
                    "time": 106.8063080000004,
                    "velocity": 0.6692913385826772,
                    "duration": 0.3695720000000051
                },
                {
                    "name": "F#5",
                    "midi": 78,
                    "time": 107.1758800000004,
                    "velocity": 0.5748031496062992,
                    "duration": 0.3695720000000051
                },
                {
                    "name": "G#5",
                    "midi": 80,
                    "time": 107.1758800000004,
                    "velocity": 0.5748031496062992,
                    "duration": 0.3695720000000051
                },
                {
                    "name": "B5",
                    "midi": 83,
                    "time": 107.1758800000004,
                    "velocity": 0.5748031496062992,
                    "duration": 0.3695720000000051
                },
                {
                    "name": "F#6",
                    "midi": 90,
                    "time": 107.1758800000004,
                    "velocity": 0.7007874015748031,
                    "duration": 0.3695720000000051
                },
                {
                    "name": "E5",
                    "midi": 76,
                    "time": 107.54545200000041,
                    "velocity": 0.6220472440944882,
                    "duration": 0.3695720000000051
                },
                {
                    "name": "E6",
                    "midi": 88,
                    "time": 107.54545200000041,
                    "velocity": 0.6692913385826772,
                    "duration": 0.3695720000000051
                },
                {
                    "name": "C#5",
                    "midi": 73,
                    "time": 107.91502400000041,
                    "velocity": 0.5511811023622047,
                    "duration": 0.3695720000000051
                },
                {
                    "name": "G5",
                    "midi": 79,
                    "time": 107.91502400000041,
                    "velocity": 0.5511811023622047,
                    "duration": 0.3695720000000051
                },
                {
                    "name": "C#6",
                    "midi": 85,
                    "time": 107.91502400000041,
                    "velocity": 0.6456692913385826,
                    "duration": 0.3695720000000051
                },
                {
                    "name": "B4",
                    "midi": 71,
                    "time": 108.28459600000042,
                    "velocity": 0.5275590551181102,
                    "duration": 0.3695720000000051
                },
                {
                    "name": "G#5",
                    "midi": 80,
                    "time": 108.28459600000042,
                    "velocity": 0.5275590551181102,
                    "duration": 0.3695720000000051
                },
                {
                    "name": "B5",
                    "midi": 83,
                    "time": 108.28459600000042,
                    "velocity": 0.6141732283464567,
                    "duration": 0.3695720000000051
                },
                {
                    "name": "B4",
                    "midi": 71,
                    "time": 109.02374000000043,
                    "velocity": 0.5590551181102362,
                    "duration": 0.3695720000000051
                },
                {
                    "name": "B5",
                    "midi": 83,
                    "time": 109.02374000000043,
                    "velocity": 0.6535433070866141,
                    "duration": 0.3695720000000051
                },
                {
                    "name": "G#5",
                    "midi": 80,
                    "time": 109.39331200000044,
                    "velocity": 0.6299212598425197,
                    "duration": 1.1087159999999585
                },
                {
                    "name": "G#6",
                    "midi": 92,
                    "time": 109.39331200000044,
                    "velocity": 0.7480314960629921,
                    "duration": 1.1087159999999585
                },
                {
                    "name": "B4",
                    "midi": 71,
                    "time": 109.57809800000044,
                    "velocity": 0.5354330708661418,
                    "duration": 0.20326459999999713
                },
                {
                    "name": "E5",
                    "midi": 76,
                    "time": 109.76288400000044,
                    "velocity": 0.5590551181102362,
                    "duration": 0.20326459999998292
                },
                {
                    "name": "G#4",
                    "midi": 68,
                    "time": 109.94767000000043,
                    "velocity": 0.5354330708661418,
                    "duration": 0.20326459999998292
                },
                {
                    "name": "B4",
                    "midi": 71,
                    "time": 110.13245600000042,
                    "velocity": 0.5039370078740157,
                    "duration": 0.20326459999998292
                },
                {
                    "name": "E5",
                    "midi": 76,
                    "time": 110.3172420000004,
                    "velocity": 0.5039370078740157,
                    "duration": 0.18478599999998835
                },
                {
                    "name": "G#5",
                    "midi": 80,
                    "time": 110.5020280000004,
                    "velocity": 0.6299212598425197,
                    "duration": 1.1087159999999585
                },
                {
                    "name": "G#6",
                    "midi": 92,
                    "time": 110.5020280000004,
                    "velocity": 0.7480314960629921,
                    "duration": 1.1087159999999585
                },
                {
                    "name": "C5",
                    "midi": 72,
                    "time": 110.6868140000004,
                    "velocity": 0.5275590551181102,
                    "duration": 0.20326459999999713
                },
                {
                    "name": "F#5",
                    "midi": 78,
                    "time": 110.8716000000004,
                    "velocity": 0.5511811023622047,
                    "duration": 0.20326459999998292
                },
                {
                    "name": "G#4",
                    "midi": 68,
                    "time": 111.05638600000039,
                    "velocity": 0.5275590551181102,
                    "duration": 0.20326459999998292
                },
                {
                    "name": "C5",
                    "midi": 72,
                    "time": 111.24117200000038,
                    "velocity": 0.4881889763779528,
                    "duration": 0.20326459999998292
                },
                {
                    "name": "F#5",
                    "midi": 78,
                    "time": 111.42595800000036,
                    "velocity": 0.4881889763779528,
                    "duration": 0.18478599999998835
                },
                {
                    "name": "G#5",
                    "midi": 80,
                    "time": 111.61074400000035,
                    "velocity": 0.6299212598425197,
                    "duration": 1.1087159999999585
                },
                {
                    "name": "G#6",
                    "midi": 92,
                    "time": 111.61074400000035,
                    "velocity": 0.7480314960629921,
                    "duration": 2.217431999999917
                },
                {
                    "name": "B4",
                    "midi": 71,
                    "time": 111.79553000000035,
                    "velocity": 0.5275590551181102,
                    "duration": 0.20326459999999713
                },
                {
                    "name": "F5",
                    "midi": 77,
                    "time": 111.98031600000036,
                    "velocity": 0.5511811023622047,
                    "duration": 0.20326459999998292
                },
                {
                    "name": "G#4",
                    "midi": 68,
                    "time": 112.16510200000035,
                    "velocity": 0.5275590551181102,
                    "duration": 0.20326459999998292
                },
                {
                    "name": "B4",
                    "midi": 71,
                    "time": 112.34988800000033,
                    "velocity": 0.5748031496062992,
                    "duration": 0.20326459999998292
                },
                {
                    "name": "F5",
                    "midi": 77,
                    "time": 112.53467400000032,
                    "velocity": 0.5984251968503937,
                    "duration": 0.18478599999998835
                },
                {
                    "name": "G#5",
                    "midi": 80,
                    "time": 112.71946000000031,
                    "velocity": 0.6614173228346457,
                    "duration": 0.18478600000000256
                },
                {
                    "name": "B4",
                    "midi": 71,
                    "time": 112.90424600000031,
                    "velocity": 0.5669291338582677,
                    "duration": 0.20326459999999713
                },
                {
                    "name": "F5",
                    "midi": 77,
                    "time": 113.08903200000032,
                    "velocity": 0.5748031496062992,
                    "duration": 0.20326459999998292
                },
                {
                    "name": "G#4",
                    "midi": 68,
                    "time": 113.2738180000003,
                    "velocity": 0.5275590551181102,
                    "duration": 0.20326459999998292
                },
                {
                    "name": "B4",
                    "midi": 71,
                    "time": 113.45860400000029,
                    "velocity": 0.49606299212598426,
                    "duration": 0.20326459999998292
                },
                {
                    "name": "F5",
                    "midi": 77,
                    "time": 113.64339000000028,
                    "velocity": 0.5354330708661418,
                    "duration": 0.18478599999998835
                },
                {
                    "name": "G#5",
                    "midi": 80,
                    "time": 113.82817600000027,
                    "velocity": 0.6299212598425197,
                    "duration": 1.1087159999999585
                },
                {
                    "name": "G#6",
                    "midi": 92,
                    "time": 113.82817600000027,
                    "velocity": 0.7480314960629921,
                    "duration": 1.1087159999999585
                },
                {
                    "name": "C5",
                    "midi": 72,
                    "time": 114.01296200000027,
                    "velocity": 0.5354330708661418,
                    "duration": 0.20326459999999713
                },
                {
                    "name": "F5",
                    "midi": 77,
                    "time": 114.19774800000027,
                    "velocity": 0.5511811023622047,
                    "duration": 0.20326459999998292
                },
                {
                    "name": "G#4",
                    "midi": 68,
                    "time": 114.38253400000026,
                    "velocity": 0.5354330708661418,
                    "duration": 0.20326459999998292
                },
                {
                    "name": "C5",
                    "midi": 72,
                    "time": 114.56732000000025,
                    "velocity": 0.5039370078740157,
                    "duration": 0.20326459999998292
                },
                {
                    "name": "F5",
                    "midi": 77,
                    "time": 114.75210600000024,
                    "velocity": 0.5039370078740157,
                    "duration": 0.18478599999998835
                },
                {
                    "name": "G#5",
                    "midi": 80,
                    "time": 114.93689200000023,
                    "velocity": 0.6299212598425197,
                    "duration": 1.1087159999999585
                },
                {
                    "name": "G#6",
                    "midi": 92,
                    "time": 114.93689200000023,
                    "velocity": 0.7480314960629921,
                    "duration": 1.1087159999999585
                },
                {
                    "name": "C#5",
                    "midi": 73,
                    "time": 115.12167800000023,
                    "velocity": 0.5275590551181102,
                    "duration": 0.20326459999999713
                },
                {
                    "name": "F5",
                    "midi": 77,
                    "time": 115.30646400000023,
                    "velocity": 0.5511811023622047,
                    "duration": 0.20326459999998292
                },
                {
                    "name": "G#4",
                    "midi": 68,
                    "time": 115.49125000000022,
                    "velocity": 0.5275590551181102,
                    "duration": 0.20326459999998292
                },
                {
                    "name": "C#5",
                    "midi": 73,
                    "time": 115.67603600000021,
                    "velocity": 0.5039370078740157,
                    "duration": 0.20326459999998292
                },
                {
                    "name": "F5",
                    "midi": 77,
                    "time": 115.8608220000002,
                    "velocity": 0.5039370078740157,
                    "duration": 0.18478599999998835
                },
                {
                    "name": "D6",
                    "midi": 86,
                    "time": 116.04560800000019,
                    "velocity": 0.6220472440944882,
                    "duration": 0.739143999999996
                },
                {
                    "name": "G#5",
                    "midi": 80,
                    "time": 116.04560800000019,
                    "velocity": 0.6220472440944882,
                    "duration": 0.739143999999996
                },
                {
                    "name": "G#6",
                    "midi": 92,
                    "time": 116.04560800000019,
                    "velocity": 0.7559055118110236,
                    "duration": 0.739143999999996
                },
                {
                    "name": "G5",
                    "midi": 79,
                    "time": 116.78475200000018,
                    "velocity": 0.6141732283464567,
                    "duration": 0.3695720000000051
                },
                {
                    "name": "G6",
                    "midi": 91,
                    "time": 116.78475200000018,
                    "velocity": 0.7086614173228346,
                    "duration": 0.3695720000000051
                },
                {
                    "name": "F6",
                    "midi": 89,
                    "time": 117.15432400000019,
                    "velocity": 0.7086614173228346,
                    "duration": 0.3695720000000051
                },
                {
                    "name": "F5",
                    "midi": 77,
                    "time": 117.15432400000019,
                    "velocity": 0.6141732283464567,
                    "duration": 0.3695720000000051
                },
                {
                    "name": "G4",
                    "midi": 67,
                    "time": 117.52389600000019,
                    "velocity": 0.5354330708661418,
                    "duration": 0.3695720000000051
                },
                {
                    "name": "G5",
                    "midi": 79,
                    "time": 117.52389600000019,
                    "velocity": 0.6377952755905512,
                    "duration": 0.3695720000000051
                },
                {
                    "name": "G#4",
                    "midi": 68,
                    "time": 117.8934680000002,
                    "velocity": 0.5433070866141733,
                    "duration": 0.3695720000000051
                },
                {
                    "name": "G#5",
                    "midi": 80,
                    "time": 117.8934680000002,
                    "velocity": 0.6377952755905512,
                    "duration": 0.3695720000000051
                },
                {
                    "name": "C5",
                    "midi": 72,
                    "time": 118.2630400000002,
                    "velocity": 0.6141732283464567,
                    "duration": 1.1087160000000011
                },
                {
                    "name": "F5",
                    "midi": 77,
                    "time": 118.2630400000002,
                    "velocity": 0.6141732283464567,
                    "duration": 1.1087160000000011
                },
                {
                    "name": "G#5",
                    "midi": 80,
                    "time": 118.2630400000002,
                    "velocity": 0.6141732283464567,
                    "duration": 1.1087160000000011
                },
                {
                    "name": "C6",
                    "midi": 84,
                    "time": 118.26380994166686,
                    "velocity": 0.7086614173228346,
                    "duration": 1.1087160000000011
                },
                {
                    "name": "A#5",
                    "midi": 82,
                    "time": 119.3717560000002,
                    "velocity": 0.6299212598425197,
                    "duration": 0.3695719999999909
                },
                {
                    "name": "A#4",
                    "midi": 70,
                    "time": 119.3717560000002,
                    "velocity": 0.5275590551181102,
                    "duration": 0.3695719999999909
                },
                {
                    "name": "G#5",
                    "midi": 80,
                    "time": 120.1109000000002,
                    "velocity": 0.6141732283464567,
                    "duration": 0.3695720000000051
                },
                {
                    "name": "G#6",
                    "midi": 92,
                    "time": 120.1109000000002,
                    "velocity": 0.6614173228346457,
                    "duration": 0.3695720000000051
                },
                {
                    "name": "G#5",
                    "midi": 80,
                    "time": 120.4804720000002,
                    "velocity": 0.6456692913385826,
                    "duration": 0.5543579999999935
                },
                {
                    "name": "D6",
                    "midi": 86,
                    "time": 120.4804720000002,
                    "velocity": 0.6456692913385826,
                    "duration": 0.5543579999999935
                },
                {
                    "name": "G#6",
                    "midi": 92,
                    "time": 120.4804720000002,
                    "velocity": 0.7086614173228346,
                    "duration": 0.5543579999999935
                },
                {
                    "name": "G6",
                    "midi": 91,
                    "time": 121.0348300000002,
                    "velocity": 0.6141732283464567,
                    "duration": 0.18478600000000256
                },
                {
                    "name": "G5",
                    "midi": 79,
                    "time": 121.0348300000002,
                    "velocity": 0.5433070866141733,
                    "duration": 0.18478600000000256
                },
                {
                    "name": "A#5",
                    "midi": 82,
                    "time": 121.2196160000002,
                    "velocity": 0.6377952755905512,
                    "duration": 0.12319066666667311
                },
                {
                    "name": "A#6",
                    "midi": 94,
                    "time": 121.2196160000002,
                    "velocity": 0.6850393700787402,
                    "duration": 0.12319066666667311
                },
                {
                    "name": "G#5",
                    "midi": 80,
                    "time": 121.34280666666687,
                    "velocity": 0.5748031496062992,
                    "duration": 0.12319066666667311
                },
                {
                    "name": "G#6",
                    "midi": 92,
                    "time": 121.34280666666687,
                    "velocity": 0.6299212598425197,
                    "duration": 0.12319066666667311
                },
                {
                    "name": "G5",
                    "midi": 79,
                    "time": 121.46599733333355,
                    "velocity": 0.5669291338582677,
                    "duration": 0.12319066666667311
                },
                {
                    "name": "G6",
                    "midi": 91,
                    "time": 121.46599733333355,
                    "velocity": 0.6299212598425197,
                    "duration": 0.12319066666667311
                },
                {
                    "name": "F6",
                    "midi": 89,
                    "time": 121.58918800000022,
                    "velocity": 0.7086614173228346,
                    "duration": 0.3695720000000051
                },
                {
                    "name": "F5",
                    "midi": 77,
                    "time": 121.58918800000022,
                    "velocity": 0.6141732283464567,
                    "duration": 0.3695720000000051
                },
                {
                    "name": "G4",
                    "midi": 67,
                    "time": 121.95876000000023,
                    "velocity": 0.5354330708661418,
                    "duration": 0.3695720000000051
                },
                {
                    "name": "G5",
                    "midi": 79,
                    "time": 121.95876000000023,
                    "velocity": 0.6377952755905512,
                    "duration": 0.3695720000000051
                },
                {
                    "name": "G#4",
                    "midi": 68,
                    "time": 122.32833200000023,
                    "velocity": 0.5433070866141733,
                    "duration": 0.3695720000000051
                },
                {
                    "name": "G#5",
                    "midi": 80,
                    "time": 122.32833200000023,
                    "velocity": 0.6377952755905512,
                    "duration": 0.3695720000000051
                },
                {
                    "name": "C5",
                    "midi": 72,
                    "time": 122.69790400000024,
                    "velocity": 0.6141732283464567,
                    "duration": 1.1087160000000011
                },
                {
                    "name": "F5",
                    "midi": 77,
                    "time": 122.69790400000024,
                    "velocity": 0.6141732283464567,
                    "duration": 1.1087160000000011
                },
                {
                    "name": "G#5",
                    "midi": 80,
                    "time": 122.69790400000024,
                    "velocity": 0.6141732283464567,
                    "duration": 1.1087160000000011
                },
                {
                    "name": "C6",
                    "midi": 84,
                    "time": 122.69790400000024,
                    "velocity": 0.7086614173228346,
                    "duration": 1.1087160000000011
                },
                {
                    "name": "A#5",
                    "midi": 82,
                    "time": 123.80662000000024,
                    "velocity": 0.6299212598425197,
                    "duration": 0.3695720000000051
                },
                {
                    "name": "A#4",
                    "midi": 70,
                    "time": 123.80662000000024,
                    "velocity": 0.5275590551181102,
                    "duration": 0.3695720000000051
                },
                {
                    "name": "G#5",
                    "midi": 80,
                    "time": 124.54576400000025,
                    "velocity": 0.6141732283464567,
                    "duration": 0.3695720000000051
                },
                {
                    "name": "G#6",
                    "midi": 92,
                    "time": 124.54576400000025,
                    "velocity": 0.6614173228346457,
                    "duration": 0.3695720000000051
                },
                {
                    "name": "G#5",
                    "midi": 80,
                    "time": 124.91533600000025,
                    "velocity": 0.6456692913385826,
                    "duration": 0.5543579999999935
                },
                {
                    "name": "D6",
                    "midi": 86,
                    "time": 124.91533600000025,
                    "velocity": 0.6456692913385826,
                    "duration": 0.5543579999999935
                },
                {
                    "name": "G#6",
                    "midi": 92,
                    "time": 124.91533600000025,
                    "velocity": 0.7086614173228346,
                    "duration": 0.5543579999999935
                },
                {
                    "name": "G6",
                    "midi": 91,
                    "time": 125.46969400000025,
                    "velocity": 0.6141732283464567,
                    "duration": 0.18478600000000256
                },
                {
                    "name": "G5",
                    "midi": 79,
                    "time": 125.46969400000025,
                    "velocity": 0.5433070866141733,
                    "duration": 0.18478600000000256
                },
                {
                    "name": "A#5",
                    "midi": 82,
                    "time": 125.65448000000025,
                    "velocity": 0.6377952755905512,
                    "duration": 0.18478600000000256
                },
                {
                    "name": "A#6",
                    "midi": 94,
                    "time": 125.65448000000025,
                    "velocity": 0.6850393700787402,
                    "duration": 0.18478600000000256
                },
                {
                    "name": "G#5",
                    "midi": 80,
                    "time": 125.83926600000025,
                    "velocity": 0.5748031496062992,
                    "duration": 0.18478600000000256
                },
                {
                    "name": "G#6",
                    "midi": 92,
                    "time": 125.83926600000025,
                    "velocity": 0.6299212598425197,
                    "duration": 0.18478600000000256
                },
                {
                    "name": "B5",
                    "midi": 83,
                    "time": 126.02405200000025,
                    "velocity": 0.6692913385826772,
                    "duration": 0.18478600000000256
                },
                {
                    "name": "B6",
                    "midi": 95,
                    "time": 126.02405200000025,
                    "velocity": 0.7637795275590551,
                    "duration": 0.18478600000000256
                },
                {
                    "name": "A#5",
                    "midi": 82,
                    "time": 126.20883800000026,
                    "velocity": 0.6929133858267716,
                    "duration": 0.18478600000000256
                },
                {
                    "name": "A#6",
                    "midi": 94,
                    "time": 126.20883800000026,
                    "velocity": 0.6929133858267716,
                    "duration": 0.18478600000000256
                },
                {
                    "name": "G7",
                    "midi": 103,
                    "time": 126.39362400000026,
                    "velocity": 0.8267716535433071,
                    "duration": 0.3695720000000051
                },
                {
                    "name": "G6",
                    "midi": 91,
                    "time": 126.39362400000026,
                    "velocity": 0.7401574803149606,
                    "duration": 0.3695720000000051
                },
                {
                    "name": "F6",
                    "midi": 89,
                    "time": 126.94798200000027,
                    "velocity": 0.5748031496062992,
                    "duration": 0.18478600000000256
                },
                {
                    "name": "F7",
                    "midi": 101,
                    "time": 126.94798200000027,
                    "velocity": 0.6692913385826772,
                    "duration": 0.18478600000000256
                },
                {
                    "name": "D#6",
                    "midi": 87,
                    "time": 127.13276800000027,
                    "velocity": 0.5748031496062992,
                    "duration": 0.18478600000000256
                },
                {
                    "name": "D#7",
                    "midi": 99,
                    "time": 127.13276800000027,
                    "velocity": 0.6614173228346457,
                    "duration": 0.18478600000000256
                },
                {
                    "name": "D7",
                    "midi": 98,
                    "time": 127.31755400000027,
                    "velocity": 0.6220472440944882,
                    "duration": 0.18478600000000256
                },
                {
                    "name": "D6",
                    "midi": 86,
                    "time": 127.31755400000027,
                    "velocity": 0.5433070866141733,
                    "duration": 0.18478600000000256
                },
                {
                    "name": "C6",
                    "midi": 84,
                    "time": 127.50234000000027,
                    "velocity": 0.5039370078740157,
                    "duration": 0.18478600000000256
                },
                {
                    "name": "C7",
                    "midi": 96,
                    "time": 127.50234000000027,
                    "velocity": 0.5826771653543307,
                    "duration": 0.18478600000000256
                },
                {
                    "name": "A#5",
                    "midi": 82,
                    "time": 127.68712600000028,
                    "velocity": 0.47244094488188976,
                    "duration": 0.18478600000000256
                },
                {
                    "name": "A#6",
                    "midi": 94,
                    "time": 127.68712600000028,
                    "velocity": 0.5511811023622047,
                    "duration": 0.18478600000000256
                },
                {
                    "name": "G#5",
                    "midi": 80,
                    "time": 127.87191200000028,
                    "velocity": 0.4330708661417323,
                    "duration": 0.18478599999998835
                },
                {
                    "name": "G#6",
                    "midi": 92,
                    "time": 127.87191200000028,
                    "velocity": 0.5039370078740157,
                    "duration": 0.18478599999998835
                },
                {
                    "name": "G5",
                    "midi": 79,
                    "time": 128.05669800000027,
                    "velocity": 0.4015748031496063,
                    "duration": 0.18478600000000256
                },
                {
                    "name": "G6",
                    "midi": 91,
                    "time": 128.05669800000027,
                    "velocity": 0.47244094488188976,
                    "duration": 0.18478600000000256
                },
                {
                    "name": "F5",
                    "midi": 77,
                    "time": 128.24148400000027,
                    "velocity": 0.3779527559055118,
                    "duration": 0.3695720000000051
                },
                {
                    "name": "F6",
                    "midi": 89,
                    "time": 128.24148400000027,
                    "velocity": 0.4409448818897638,
                    "duration": 0.3695720000000051
                },
                {
                    "name": "G4",
                    "midi": 67,
                    "time": 128.61105600000027,
                    "velocity": 0.29133858267716534,
                    "duration": 0.3695720000000051
                },
                {
                    "name": "G5",
                    "midi": 79,
                    "time": 128.61105600000027,
                    "velocity": 0.3543307086614173,
                    "duration": 0.3695720000000051
                },
                {
                    "name": "G#4",
                    "midi": 68,
                    "time": 128.98062800000028,
                    "velocity": 0.29133858267716534,
                    "duration": 0.3695720000000051
                },
                {
                    "name": "G#5",
                    "midi": 80,
                    "time": 128.98062800000028,
                    "velocity": 0.3543307086614173,
                    "duration": 0.3695720000000051
                },
                {
                    "name": "C5",
                    "midi": 72,
                    "time": 129.35020000000029,
                    "velocity": 0.3543307086614173,
                    "duration": 0.7391440000000102
                },
                {
                    "name": "F5",
                    "midi": 77,
                    "time": 129.35020000000029,
                    "velocity": 0.3543307086614173,
                    "duration": 0.7391440000000102
                },
                {
                    "name": "G#5",
                    "midi": 80,
                    "time": 129.35020000000029,
                    "velocity": 0.3543307086614173,
                    "duration": 0.7391440000000102
                },
                {
                    "name": "C6",
                    "midi": 84,
                    "time": 129.35020000000029,
                    "velocity": 0.4094488188976378,
                    "duration": 0.7391440000000102
                },
                {
                    "name": "A#5",
                    "midi": 82,
                    "time": 130.0893440000003,
                    "velocity": 0.4251968503937008,
                    "duration": 0.3695720000000051
                },
                {
                    "name": "A#4",
                    "midi": 70,
                    "time": 130.0893440000003,
                    "velocity": 0.4015748031496063,
                    "duration": 0.3695720000000051
                },
                {
                    "name": "D#6",
                    "midi": 87,
                    "time": 130.4589160000003,
                    "velocity": 0.5669291338582677,
                    "duration": 0.7391440000000102
                },
                {
                    "name": "D#5",
                    "midi": 75,
                    "time": 130.4589160000003,
                    "velocity": 0.47244094488188976,
                    "duration": 0.7391440000000102
                },
                {
                    "name": "G#5",
                    "midi": 80,
                    "time": 130.4589160000003,
                    "velocity": 0.47244094488188976,
                    "duration": 0.7391440000000102
                },
                {
                    "name": "A#5",
                    "midi": 82,
                    "time": 130.4589160000003,
                    "velocity": 0.47244094488188976,
                    "duration": 0.7391440000000102
                },
                {
                    "name": "C#6",
                    "midi": 85,
                    "time": 131.1980600000003,
                    "velocity": 0.5748031496062992,
                    "duration": 0.3695720000000051
                },
                {
                    "name": "C#5",
                    "midi": 73,
                    "time": 131.1980600000003,
                    "velocity": 0.5118110236220472,
                    "duration": 0.3695720000000051
                },
                {
                    "name": "G5",
                    "midi": 79,
                    "time": 131.56763200000032,
                    "velocity": 0.5905511811023622,
                    "duration": 0.7391440000000102
                },
                {
                    "name": "A#5",
                    "midi": 82,
                    "time": 131.56763200000032,
                    "velocity": 0.5905511811023622,
                    "duration": 0.7391440000000102
                },
                {
                    "name": "C#6",
                    "midi": 85,
                    "time": 131.56763200000032,
                    "velocity": 0.5905511811023622,
                    "duration": 0.7391440000000102
                },
                {
                    "name": "G6",
                    "midi": 91,
                    "time": 131.56763200000032,
                    "velocity": 0.7007874015748031,
                    "duration": 0.7391440000000102
                },
                {
                    "name": "F6",
                    "midi": 89,
                    "time": 132.30677600000033,
                    "velocity": 0.6377952755905512,
                    "duration": 0.3695720000000051
                },
                {
                    "name": "F5",
                    "midi": 77,
                    "time": 132.30677600000033,
                    "velocity": 0.5511811023622047,
                    "duration": 0.3695720000000051
                },
                {
                    "name": "C7",
                    "midi": 96,
                    "time": 132.67634800000033,
                    "velocity": 0.7559055118110236,
                    "duration": 0.7391440000000102
                },
                {
                    "name": "C6",
                    "midi": 84,
                    "time": 132.67634800000033,
                    "velocity": 0.6614173228346457,
                    "duration": 0.7391440000000102
                },
                {
                    "name": "F6",
                    "midi": 89,
                    "time": 132.67634800000033,
                    "velocity": 0.6614173228346457,
                    "duration": 0.7391440000000102
                },
                {
                    "name": "A#6",
                    "midi": 94,
                    "time": 133.41549200000034,
                    "velocity": 0.7007874015748031,
                    "duration": 0.3695720000000051
                },
                {
                    "name": "A#5",
                    "midi": 82,
                    "time": 133.41549200000034,
                    "velocity": 0.5984251968503937,
                    "duration": 0.3695720000000051
                },
                {
                    "name": "G6",
                    "midi": 91,
                    "time": 133.78506400000035,
                    "velocity": 0.6692913385826772,
                    "duration": 2.2174320000000023
                },
                {
                    "name": "F6",
                    "midi": 89,
                    "time": 133.78506400000035,
                    "velocity": 0.6692913385826772,
                    "duration": 2.2174320000000023
                },
                {
                    "name": "A#6",
                    "midi": 94,
                    "time": 133.78506400000035,
                    "velocity": 0.6692913385826772,
                    "duration": 2.2174320000000023
                },
                {
                    "name": "C#7",
                    "midi": 97,
                    "time": 133.78506400000035,
                    "velocity": 0.6692913385826772,
                    "duration": 2.2174320000000023
                },
                {
                    "name": "F7",
                    "midi": 101,
                    "time": 133.78506400000035,
                    "velocity": 0.7795275590551181,
                    "duration": 2.2174320000000023
                },
                {
                    "name": "E7",
                    "midi": 100,
                    "time": 136.00249600000035,
                    "velocity": 0.3464566929133858,
                    "duration": 0.09239299999998707
                },
                {
                    "name": "C7",
                    "midi": 96,
                    "time": 136.09488900000034,
                    "velocity": 0.31496062992125984,
                    "duration": 0.09239299999998707
                },
                {
                    "name": "D#7",
                    "midi": 99,
                    "time": 136.18728200000032,
                    "velocity": 0.3464566929133858,
                    "duration": 0.09239299999998707
                },
                {
                    "name": "B6",
                    "midi": 95,
                    "time": 136.2796750000003,
                    "velocity": 0.3228346456692913,
                    "duration": 0.09239299999998707
                },
                {
                    "name": "D7",
                    "midi": 98,
                    "time": 136.3720680000003,
                    "velocity": 0.3464566929133858,
                    "duration": 0.09239299999998707
                },
                {
                    "name": "A#6",
                    "midi": 94,
                    "time": 136.46446100000028,
                    "velocity": 0.31496062992125984,
                    "duration": 0.09239299999998707
                },
                {
                    "name": "C#7",
                    "midi": 97,
                    "time": 136.55685400000027,
                    "velocity": 0.33858267716535434,
                    "duration": 0.09239299999998707
                },
                {
                    "name": "A6",
                    "midi": 93,
                    "time": 136.64924700000026,
                    "velocity": 0.30708661417322836,
                    "duration": 0.09239299999998707
                },
                {
                    "name": "C7",
                    "midi": 96,
                    "time": 136.74164000000025,
                    "velocity": 0.33070866141732286,
                    "duration": 0.09239299999998707
                },
                {
                    "name": "G#6",
                    "midi": 92,
                    "time": 136.83403300000023,
                    "velocity": 0.30708661417322836,
                    "duration": 0.09239299999998707
                },
                {
                    "name": "B6",
                    "midi": 95,
                    "time": 136.92642600000022,
                    "velocity": 0.33070866141732286,
                    "duration": 0.09239299999998707
                },
                {
                    "name": "G6",
                    "midi": 91,
                    "time": 137.0188190000002,
                    "velocity": 0.30708661417322836,
                    "duration": 0.09239299999998707
                },
                {
                    "name": "A#6",
                    "midi": 94,
                    "time": 137.1112120000002,
                    "velocity": 0.3228346456692913,
                    "duration": 0.09239299999998707
                },
                {
                    "name": "F#6",
                    "midi": 90,
                    "time": 137.20360500000018,
                    "velocity": 0.29133858267716534,
                    "duration": 0.09239299999998707
                },
                {
                    "name": "A6",
                    "midi": 93,
                    "time": 137.29599800000017,
                    "velocity": 0.3228346456692913,
                    "duration": 0.09239299999998707
                },
                {
                    "name": "F6",
                    "midi": 89,
                    "time": 137.38839100000015,
                    "velocity": 0.29133858267716534,
                    "duration": 0.09239299999998707
                },
                {
                    "name": "G#6",
                    "midi": 92,
                    "time": 137.48078400000014,
                    "velocity": 0.31496062992125984,
                    "duration": 0.09239299999998707
                },
                {
                    "name": "E6",
                    "midi": 88,
                    "time": 137.57317700000013,
                    "velocity": 0.28346456692913385,
                    "duration": 0.09239299999998707
                },
                {
                    "name": "G6",
                    "midi": 91,
                    "time": 137.66557000000012,
                    "velocity": 0.31496062992125984,
                    "duration": 0.09239299999998707
                },
                {
                    "name": "E6",
                    "midi": 88,
                    "time": 137.7579630000001,
                    "velocity": 0.28346456692913385,
                    "duration": 0.09239299999998707
                },
                {
                    "name": "F#6",
                    "midi": 90,
                    "time": 137.8503560000001,
                    "velocity": 0.30708661417322836,
                    "duration": 0.09239299999998707
                },
                {
                    "name": "D6",
                    "midi": 86,
                    "time": 137.94274900000008,
                    "velocity": 0.2755905511811024,
                    "duration": 0.09239299999998707
                },
                {
                    "name": "F6",
                    "midi": 89,
                    "time": 138.03514200000006,
                    "velocity": 0.30708661417322836,
                    "duration": 0.09239299999998707
                },
                {
                    "name": "C#6",
                    "midi": 85,
                    "time": 138.12753500000005,
                    "velocity": 0.2755905511811024,
                    "duration": 0.09239299999998707
                },
                {
                    "name": "E6",
                    "midi": 88,
                    "time": 138.21992800000004,
                    "velocity": 0.2992125984251969,
                    "duration": 0.09239299999998707
                },
                {
                    "name": "C6",
                    "midi": 84,
                    "time": 138.31232100000003,
                    "velocity": 0.2755905511811024,
                    "duration": 0.09239299999998707
                },
                {
                    "name": "D#6",
                    "midi": 87,
                    "time": 138.404714,
                    "velocity": 0.2992125984251969,
                    "duration": 0.09239299999998707
                },
                {
                    "name": "B5",
                    "midi": 83,
                    "time": 138.497107,
                    "velocity": 0.25984251968503935,
                    "duration": 0.09239299999998707
                },
                {
                    "name": "D6",
                    "midi": 86,
                    "time": 138.5895,
                    "velocity": 0.29133858267716534,
                    "duration": 0.09239299999998707
                },
                {
                    "name": "A#5",
                    "midi": 82,
                    "time": 138.68189299999997,
                    "velocity": 0.25984251968503935,
                    "duration": 0.09239299999998707
                },
                {
                    "name": "C#6",
                    "midi": 85,
                    "time": 138.77428599999996,
                    "velocity": 0.29133858267716534,
                    "duration": 0.09239299999998707
                },
                {
                    "name": "A5",
                    "midi": 81,
                    "time": 138.86667899999995,
                    "velocity": 0.25984251968503935,
                    "duration": 0.09239299999998707
                },
                {
                    "name": "C6",
                    "midi": 84,
                    "time": 138.95907199999994,
                    "velocity": 0.28346456692913385,
                    "duration": 0.09239299999998707
                },
                {
                    "name": "G#5",
                    "midi": 80,
                    "time": 139.05146499999992,
                    "velocity": 0.25984251968503935,
                    "duration": 0.09239299999998707
                },
                {
                    "name": "B5",
                    "midi": 83,
                    "time": 139.1438579999999,
                    "velocity": 0.2755905511811024,
                    "duration": 0.09239299999998707
                },
                {
                    "name": "G5",
                    "midi": 79,
                    "time": 139.2362509999999,
                    "velocity": 0.2440944881889764,
                    "duration": 0.09239299999998707
                },
                {
                    "name": "A#5",
                    "midi": 82,
                    "time": 139.32864399999988,
                    "velocity": 0.2755905511811024,
                    "duration": 0.09239299999998707
                },
                {
                    "name": "F#5",
                    "midi": 78,
                    "time": 139.42103699999987,
                    "velocity": 0.2440944881889764,
                    "duration": 0.09239299999998707
                },
                {
                    "name": "A5",
                    "midi": 81,
                    "time": 139.51342999999986,
                    "velocity": 0.2755905511811024,
                    "duration": 0.09239299999998707
                },
                {
                    "name": "F5",
                    "midi": 77,
                    "time": 139.60582299999984,
                    "velocity": 0.2440944881889764,
                    "duration": 0.09239299999998707
                },
                {
                    "name": "G#5",
                    "midi": 80,
                    "time": 139.69821599999983,
                    "velocity": 0.2677165354330709,
                    "duration": 0.09239299999998707
                },
                {
                    "name": "E5",
                    "midi": 76,
                    "time": 139.79060899999982,
                    "velocity": 0.23622047244094488,
                    "duration": 0.09239299999998707
                },
                {
                    "name": "G5",
                    "midi": 79,
                    "time": 139.8830019999998,
                    "velocity": 0.25984251968503935,
                    "duration": 0.09239299999998707
                },
                {
                    "name": "E5",
                    "midi": 76,
                    "time": 139.9753949999998,
                    "velocity": 0.2283464566929134,
                    "duration": 0.09239299999998707
                },
                {
                    "name": "F#5",
                    "midi": 78,
                    "time": 140.06778799999978,
                    "velocity": 0.25984251968503935,
                    "duration": 0.09239299999998707
                },
                {
                    "name": "D5",
                    "midi": 74,
                    "time": 140.16018099999977,
                    "velocity": 0.2283464566929134,
                    "duration": 0.09239299999998707
                },
                {
                    "name": "F5",
                    "midi": 77,
                    "time": 140.25257399999975,
                    "velocity": 0.25196850393700787,
                    "duration": 0.09239299999998707
                },
                {
                    "name": "C#5",
                    "midi": 73,
                    "time": 140.34496699999974,
                    "velocity": 0.2204724409448819,
                    "duration": 0.046196500000007745
                },
                {
                    "name": "C#5",
                    "midi": 73,
                    "time": 140.42196116666642,
                    "velocity": 0.25196850393700787,
                    "duration": 0.10779183333332298
                },
                {
                    "name": "F5",
                    "midi": 77,
                    "time": 140.43735999999976,
                    "velocity": 0.25196850393700787,
                    "duration": 0.09239299999998707
                },
                {
                    "name": "D#5",
                    "midi": 75,
                    "time": 140.52975299999974,
                    "velocity": 0.25196850393700787,
                    "duration": 0.09239299999998707
                },
                {
                    "name": "C#5",
                    "midi": 73,
                    "time": 140.62214599999973,
                    "velocity": 0.25196850393700787,
                    "duration": 0.09239299999998707
                },
                {
                    "name": "A#4",
                    "midi": 70,
                    "time": 140.71453899999972,
                    "velocity": 0.2440944881889764,
                    "duration": 0.09239299999998707
                },
                {
                    "name": "G4",
                    "midi": 67,
                    "time": 140.8069319999997,
                    "velocity": 0.25196850393700787,
                    "duration": 0.09239299999998707
                },
                {
                    "name": "D4",
                    "midi": 62,
                    "time": 140.8993249999997,
                    "velocity": 0.25984251968503935,
                    "duration": 0.09239299999998707
                },
                {
                    "name": "D#4",
                    "midi": 63,
                    "time": 140.99171799999968,
                    "velocity": 0.25984251968503935,
                    "duration": 0.09239299999998707
                },
                {
                    "name": "G4",
                    "midi": 67,
                    "time": 141.08411099999967,
                    "velocity": 0.2677165354330709,
                    "duration": 0.09239299999998707
                },
                {
                    "name": "A#4",
                    "midi": 70,
                    "time": 141.17650399999965,
                    "velocity": 0.2755905511811024,
                    "duration": 0.09239299999998707
                },
                {
                    "name": "C#5",
                    "midi": 73,
                    "time": 141.26889699999964,
                    "velocity": 0.2755905511811024,
                    "duration": 0.09239299999998707
                },
                {
                    "name": "D5",
                    "midi": 74,
                    "time": 141.36128999999963,
                    "velocity": 0.28346456692913385,
                    "duration": 0.09239299999998707
                },
                {
                    "name": "F5",
                    "midi": 77,
                    "time": 141.45368299999961,
                    "velocity": 0.29133858267716534,
                    "duration": 0.09239299999998707
                },
                {
                    "name": "D#5",
                    "midi": 75,
                    "time": 141.5460759999996,
                    "velocity": 0.29133858267716534,
                    "duration": 0.09239299999998707
                },
                {
                    "name": "G5",
                    "midi": 79,
                    "time": 141.6384689999996,
                    "velocity": 0.2992125984251969,
                    "duration": 0.09239299999998707
                },
                {
                    "name": "A#5",
                    "midi": 82,
                    "time": 141.73086199999958,
                    "velocity": 0.30708661417322836,
                    "duration": 0.09239299999998707
                },
                {
                    "name": "C#6",
                    "midi": 85,
                    "time": 141.82325499999956,
                    "velocity": 0.30708661417322836,
                    "duration": 0.09239299999998707
                },
                {
                    "name": "D6",
                    "midi": 86,
                    "time": 141.91564799999955,
                    "velocity": 0.31496062992125984,
                    "duration": 0.09239299999998707
                },
                {
                    "name": "F6",
                    "midi": 89,
                    "time": 142.00804099999954,
                    "velocity": 0.31496062992125984,
                    "duration": 0.09239299999998707
                },
                {
                    "name": "D#6",
                    "midi": 87,
                    "time": 142.10043399999952,
                    "velocity": 0.3228346456692913,
                    "duration": 0.09239299999998707
                },
                {
                    "name": "G6",
                    "midi": 91,
                    "time": 142.1928269999995,
                    "velocity": 0.33070866141732286,
                    "duration": 0.09239299999998707
                },
                {
                    "name": "A#6",
                    "midi": 94,
                    "time": 142.2852199999995,
                    "velocity": 0.3464566929133858,
                    "duration": 0.09239299999998707
                },
                {
                    "name": "C#7",
                    "midi": 97,
                    "time": 142.37761299999949,
                    "velocity": 0.3464566929133858,
                    "duration": 0.09239299999998707
                },
                {
                    "name": "E7",
                    "midi": 100,
                    "time": 142.47000599999947,
                    "velocity": 0.3779527559055118,
                    "duration": 0.09239299999998707
                },
                {
                    "name": "F7",
                    "midi": 101,
                    "time": 142.56239899999946,
                    "velocity": 0.3464566929133858,
                    "duration": 0.09239299999998707
                },
                {
                    "name": "C7",
                    "midi": 96,
                    "time": 142.65479199999945,
                    "velocity": 0.3779527559055118,
                    "duration": 0.09239299999998707
                },
                {
                    "name": "C#7",
                    "midi": 97,
                    "time": 142.74718499999943,
                    "velocity": 0.3543307086614173,
                    "duration": 0.09239299999998707
                },
                {
                    "name": "A6",
                    "midi": 93,
                    "time": 142.83957799999942,
                    "velocity": 0.36220472440944884,
                    "duration": 0.09239299999998707
                },
                {
                    "name": "A#6",
                    "midi": 94,
                    "time": 142.9319709999994,
                    "velocity": 0.31496062992125984,
                    "duration": 0.09239299999998707
                },
                {
                    "name": "F#6",
                    "midi": 90,
                    "time": 143.0243639999994,
                    "velocity": 0.3464566929133858,
                    "duration": 0.09239299999998707
                },
                {
                    "name": "G6",
                    "midi": 91,
                    "time": 143.11675699999938,
                    "velocity": 0.31496062992125984,
                    "duration": 0.09239299999998707
                },
                {
                    "name": "E6",
                    "midi": 88,
                    "time": 143.20914999999937,
                    "velocity": 0.33858267716535434,
                    "duration": 0.09239299999998707
                },
                {
                    "name": "F6",
                    "midi": 89,
                    "time": 143.30154299999936,
                    "velocity": 0.30708661417322836,
                    "duration": 0.09239299999998707
                },
                {
                    "name": "C6",
                    "midi": 84,
                    "time": 143.39393599999934,
                    "velocity": 0.33070866141732286,
                    "duration": 0.09239299999998707
                },
                {
                    "name": "C#6",
                    "midi": 85,
                    "time": 143.48632899999933,
                    "velocity": 0.2992125984251969,
                    "duration": 0.09239299999998707
                },
                {
                    "name": "A5",
                    "midi": 81,
                    "time": 143.57872199999932,
                    "velocity": 0.31496062992125984,
                    "duration": 0.09239299999998707
                },
                {
                    "name": "A#5",
                    "midi": 82,
                    "time": 143.6711149999993,
                    "velocity": 0.29133858267716534,
                    "duration": 0.09239299999998707
                },
                {
                    "name": "F#5",
                    "midi": 78,
                    "time": 143.7635079999993,
                    "velocity": 0.31496062992125984,
                    "duration": 0.09239299999998707
                },
                {
                    "name": "G5",
                    "midi": 79,
                    "time": 143.85590099999928,
                    "velocity": 0.28346456692913385,
                    "duration": 0.09239299999998707
                },
                {
                    "name": "E5",
                    "midi": 76,
                    "time": 143.94829399999927,
                    "velocity": 0.30708661417322836,
                    "duration": 0.09239299999998707
                },
                {
                    "name": "F5",
                    "midi": 77,
                    "time": 144.04068699999925,
                    "velocity": 0.2755905511811024,
                    "duration": 0.09239299999998707
                },
                {
                    "name": "C5",
                    "midi": 72,
                    "time": 144.13307999999924,
                    "velocity": 0.2992125984251969,
                    "duration": 0.09239299999998707
                },
                {
                    "name": "C#5",
                    "midi": 73,
                    "time": 144.22547299999923,
                    "velocity": 0.25984251968503935,
                    "duration": 0.09239299999998707
                },
                {
                    "name": "A4",
                    "midi": 69,
                    "time": 144.3178659999992,
                    "velocity": 0.29133858267716534,
                    "duration": 0.09239299999998707
                },
                {
                    "name": "A#4",
                    "midi": 70,
                    "time": 144.4102589999992,
                    "velocity": 0.25984251968503935,
                    "duration": 0.09239299999998707
                },
                {
                    "name": "F#4",
                    "midi": 66,
                    "time": 144.5026519999992,
                    "velocity": 0.28346456692913385,
                    "duration": 0.09239299999998707
                },
                {
                    "name": "G4",
                    "midi": 67,
                    "time": 144.59504499999917,
                    "velocity": 0.25984251968503935,
                    "duration": 0.09239299999998707
                },
                {
                    "name": "E4",
                    "midi": 64,
                    "time": 144.68743799999916,
                    "velocity": 0.2755905511811024,
                    "duration": 0.09239299999998707
                },
                {
                    "name": "F4",
                    "midi": 65,
                    "time": 144.77983099999915,
                    "velocity": 0.2440944881889764,
                    "duration": 0.09239299999998707
                },
                {
                    "name": "D4",
                    "midi": 62,
                    "time": 144.87222399999914,
                    "velocity": 0.25984251968503935,
                    "duration": 0.09239299999998707
                },
                {
                    "name": "D#4",
                    "midi": 63,
                    "time": 144.96461699999912,
                    "velocity": 0.2125984251968504,
                    "duration": 0.09239299999998707
                },
                {
                    "name": "E4",
                    "midi": 64,
                    "time": 145.0570099999991,
                    "velocity": 0.25196850393700787,
                    "duration": 0.09239299999998707
                },
                {
                    "name": "D#4",
                    "midi": 63,
                    "time": 145.1494029999991,
                    "velocity": 0.2125984251968504,
                    "duration": 0.09239299999998707
                },
                {
                    "name": "F4",
                    "midi": 65,
                    "time": 145.24179599999908,
                    "velocity": 0.25196850393700787,
                    "duration": 0.09239299999998707
                },
                {
                    "name": "D#4",
                    "midi": 63,
                    "time": 145.33418899999907,
                    "velocity": 0.2204724409448819,
                    "duration": 0.09239299999998707
                },
                {
                    "name": "F#4",
                    "midi": 66,
                    "time": 145.42658199999906,
                    "velocity": 0.25196850393700787,
                    "duration": 0.09239299999998707
                },
                {
                    "name": "D#4",
                    "midi": 63,
                    "time": 145.51897499999905,
                    "velocity": 0.2204724409448819,
                    "duration": 0.09239299999998707
                },
                {
                    "name": "G4",
                    "midi": 67,
                    "time": 145.61136799999903,
                    "velocity": 0.25196850393700787,
                    "duration": 0.09239299999998707
                },
                {
                    "name": "D#4",
                    "midi": 63,
                    "time": 145.70376099999902,
                    "velocity": 0.2283464566929134,
                    "duration": 0.09239299999998707
                },
                {
                    "name": "G#4",
                    "midi": 68,
                    "time": 145.796153999999,
                    "velocity": 0.25196850393700787,
                    "duration": 0.09239299999998707
                },
                {
                    "name": "D#4",
                    "midi": 63,
                    "time": 145.888546999999,
                    "velocity": 0.2283464566929134,
                    "duration": 0.09239299999998707
                },
                {
                    "name": "A4",
                    "midi": 69,
                    "time": 145.98093999999898,
                    "velocity": 0.25196850393700787,
                    "duration": 0.09239299999998707
                },
                {
                    "name": "D#4",
                    "midi": 63,
                    "time": 146.07333299999897,
                    "velocity": 0.2283464566929134,
                    "duration": 0.09239299999998707
                },
                {
                    "name": "A#4",
                    "midi": 70,
                    "time": 146.16572599999895,
                    "velocity": 0.25196850393700787,
                    "duration": 0.09239299999998707
                },
                {
                    "name": "D#4",
                    "midi": 63,
                    "time": 146.25811899999894,
                    "velocity": 0.2283464566929134,
                    "duration": 0.09239299999998707
                },
                {
                    "name": "B4",
                    "midi": 71,
                    "time": 146.35051199999893,
                    "velocity": 0.25196850393700787,
                    "duration": 0.09239299999998707
                },
                {
                    "name": "D#4",
                    "midi": 63,
                    "time": 146.7200839999989,
                    "velocity": 0.28346456692913385,
                    "duration": 0.3695720000000051
                },
                {
                    "name": "C5",
                    "midi": 72,
                    "time": 147.0896559999989,
                    "velocity": 0.3543307086614173,
                    "duration": 1.1087160000000154
                },
                {
                    "name": "C4",
                    "midi": 60,
                    "time": 147.2744419999989,
                    "velocity": 0.16535433070866143,
                    "duration": 0.18478600000000256
                },
                {
                    "name": "D#4",
                    "midi": 63,
                    "time": 147.45922799999892,
                    "velocity": 0.2125984251968504,
                    "duration": 0.18478600000000256
                },
                {
                    "name": "G#4",
                    "midi": 68,
                    "time": 147.64401399999892,
                    "velocity": 0.15748031496062992,
                    "duration": 0.18478600000000256
                },
                {
                    "name": "D#4",
                    "midi": 63,
                    "time": 147.82879999999892,
                    "velocity": 0.15748031496062992,
                    "duration": 0.18478600000000256
                },
                {
                    "name": "C4",
                    "midi": 60,
                    "time": 148.01358599999892,
                    "velocity": 0.15748031496062992,
                    "duration": 0.18478600000000256
                },
                {
                    "name": "C5",
                    "midi": 72,
                    "time": 148.19837199999893,
                    "velocity": 0.2204724409448819,
                    "duration": 1.1087160000000154
                },
                {
                    "name": "C4",
                    "midi": 60,
                    "time": 148.38315799999893,
                    "velocity": 0.15748031496062992,
                    "duration": 0.18478600000000256
                },
                {
                    "name": "D#4",
                    "midi": 63,
                    "time": 148.56794399999893,
                    "velocity": 0.1968503937007874,
                    "duration": 0.18478600000000256
                },
                {
                    "name": "G#4",
                    "midi": 68,
                    "time": 148.75272999999893,
                    "velocity": 0.16535433070866143,
                    "duration": 0.18478600000000256
                },
                {
                    "name": "D#4",
                    "midi": 63,
                    "time": 148.93751599999894,
                    "velocity": 0.16535433070866143,
                    "duration": 0.18478600000000256
                },
                {
                    "name": "C4",
                    "midi": 60,
                    "time": 149.12230199999894,
                    "velocity": 0.16535433070866143,
                    "duration": 0.18478600000000256
                },
                {
                    "name": "C5",
                    "midi": 72,
                    "time": 149.30708799999894,
                    "velocity": 0.3543307086614173,
                    "duration": 1.4782880000000205
                },
                {
                    "name": "C4",
                    "midi": 60,
                    "time": 149.49187399999894,
                    "velocity": 0.18110236220472442,
                    "duration": 0.18478600000000256
                },
                {
                    "name": "E4",
                    "midi": 64,
                    "time": 149.67665999999895,
                    "velocity": 0.2204724409448819,
                    "duration": 0.18478600000000256
                },
                {
                    "name": "A#4",
                    "midi": 70,
                    "time": 149.86144599999895,
                    "velocity": 0.18110236220472442,
                    "duration": 0.18478600000000256
                },
                {
                    "name": "E4",
                    "midi": 64,
                    "time": 150.04623199999895,
                    "velocity": 0.1889763779527559,
                    "duration": 0.18478600000000256
                },
                {
                    "name": "C4",
                    "midi": 60,
                    "time": 150.23101799999895,
                    "velocity": 0.1889763779527559,
                    "duration": 0.18478600000000256
                },
                {
                    "name": "C4",
                    "midi": 60,
                    "time": 150.60058999999896,
                    "velocity": 0.15748031496062992,
                    "duration": 0.18478600000000256
                },
                {
                    "name": "E4",
                    "midi": 64,
                    "time": 150.78537599999896,
                    "velocity": 0.2047244094488189,
                    "duration": 0.18478600000000256
                },
                {
                    "name": "A#4",
                    "midi": 70,
                    "time": 150.97016199999896,
                    "velocity": 0.16535433070866143,
                    "duration": 0.18478600000000256
                },
                {
                    "name": "C5",
                    "midi": 72,
                    "time": 151.15494799999897,
                    "velocity": 0.31496062992125984,
                    "duration": 0.3695720000000051
                },
                {
                    "name": "E4",
                    "midi": 64,
                    "time": 151.15494799999897,
                    "velocity": 0.28346456692913385,
                    "duration": 0.18478600000000256
                },
                {
                    "name": "C4",
                    "midi": 60,
                    "time": 151.33973399999897,
                    "velocity": 0.1889763779527559,
                    "duration": 0.18478600000000256
                },
                {
                    "name": "C5",
                    "midi": 72,
                    "time": 151.52451999999897,
                    "velocity": 0.3779527559055118,
                    "duration": 0.7391440000000102
                },
                {
                    "name": "D#4",
                    "midi": 63,
                    "time": 151.70930599999897,
                    "velocity": 0.15748031496062992,
                    "duration": 0.18478600000000256
                },
                {
                    "name": "F4",
                    "midi": 65,
                    "time": 151.89409199999898,
                    "velocity": 0.2047244094488189,
                    "duration": 0.18478600000000256
                },
                {
                    "name": "A4",
                    "midi": 69,
                    "time": 152.07887799999898,
                    "velocity": 0.1889763779527559,
                    "duration": 0.18478600000000256
                },
                {
                    "name": "F4",
                    "midi": 65,
                    "time": 152.26366399999898,
                    "velocity": 0.2677165354330709,
                    "duration": 0.18478600000000256
                },
                {
                    "name": "C5",
                    "midi": 72,
                    "time": 152.26366399999898,
                    "velocity": 0.31496062992125984,
                    "duration": 0.3695720000000051
                },
                {
                    "name": "D#4",
                    "midi": 63,
                    "time": 152.44844999999899,
                    "velocity": 0.1889763779527559,
                    "duration": 0.18478600000000256
                },
                {
                    "name": "C#5",
                    "midi": 73,
                    "time": 152.633235999999,
                    "velocity": 0.3700787401574803,
                    "duration": 0.7391440000000102
                },
                {
                    "name": "D#4",
                    "midi": 63,
                    "time": 152.818021999999,
                    "velocity": 0.2204724409448819,
                    "duration": 0.18478600000000256
                },
                {
                    "name": "F4",
                    "midi": 65,
                    "time": 153.002807999999,
                    "velocity": 0.28346456692913385,
                    "duration": 0.18478600000000256
                },
                {
                    "name": "A4",
                    "midi": 69,
                    "time": 153.187593999999,
                    "velocity": 0.2204724409448819,
                    "duration": 0.18478600000000256
                },
                {
                    "name": "C5",
                    "midi": 72,
                    "time": 153.372379999999,
                    "velocity": 0.3228346456692913,
                    "duration": 0.3695720000000051
                },
                {
                    "name": "F4",
                    "midi": 65,
                    "time": 153.372379999999,
                    "velocity": 0.28346456692913385,
                    "duration": 0.18478600000000256
                },
                {
                    "name": "D#4",
                    "midi": 63,
                    "time": 153.557165999999,
                    "velocity": 0.2047244094488189,
                    "duration": 0.18478600000000256
                },
                {
                    "name": "C5",
                    "midi": 72,
                    "time": 153.741951999999,
                    "velocity": 0.3858267716535433,
                    "duration": 1.1087160000000154
                },
                {
                    "name": "G#3",
                    "midi": 56,
                    "time": 153.926737999999,
                    "velocity": 0.23622047244094488,
                    "duration": 0.18478600000000256
                },
                {
                    "name": "D4",
                    "midi": 62,
                    "time": 154.111523999999,
                    "velocity": 0.28346456692913385,
                    "duration": 0.18478600000000256
                },
                {
                    "name": "F4",
                    "midi": 65,
                    "time": 154.296309999999,
                    "velocity": 0.2283464566929134,
                    "duration": 0.18478600000000256
                },
                {
                    "name": "D4",
                    "midi": 62,
                    "time": 154.481095999999,
                    "velocity": 0.2283464566929134,
                    "duration": 0.18478600000000256
                },
                {
                    "name": "G#3",
                    "midi": 56,
                    "time": 154.66588199999902,
                    "velocity": 0.2283464566929134,
                    "duration": 0.18478600000000256
                },
                {
                    "name": "F4",
                    "midi": 65,
                    "time": 154.85066799999902,
                    "velocity": 0.29133858267716534,
                    "duration": 0.3695720000000051
                },
                {
                    "name": "G#3",
                    "midi": 56,
                    "time": 155.03545399999902,
                    "velocity": 0.18110236220472442,
                    "duration": 0.18478600000000256
                },
                {
                    "name": "A#3",
                    "midi": 58,
                    "time": 155.22023999999902,
                    "velocity": 0.2204724409448819,
                    "duration": 0.18478600000000256
                },
                {
                    "name": "D4",
                    "midi": 62,
                    "time": 155.40502599999903,
                    "velocity": 0.1732283464566929,
                    "duration": 0.18478600000000256
                },
                {
                    "name": "A#3",
                    "midi": 58,
                    "time": 155.58981199999903,
                    "velocity": 0.2204724409448819,
                    "duration": 0.18478600000000256
                },
                {
                    "name": "F4",
                    "midi": 65,
                    "time": 155.58981199999903,
                    "velocity": 0.25196850393700787,
                    "duration": 0.3695720000000051
                },
                {
                    "name": "G#3",
                    "midi": 56,
                    "time": 155.77459799999903,
                    "velocity": 0.1732283464566929,
                    "duration": 0.18478600000000256
                },
                {
                    "name": "F4",
                    "midi": 65,
                    "time": 155.95938399999903,
                    "velocity": 0.29133858267716534,
                    "duration": 0.3695720000000051
                },
                {
                    "name": "A#3",
                    "midi": 58,
                    "time": 156.14416999999904,
                    "velocity": 0.16535433070866143,
                    "duration": 0.18478600000000256
                },
                {
                    "name": "G4",
                    "midi": 67,
                    "time": 156.32895599999904,
                    "velocity": 0.2992125984251969,
                    "duration": 0.3695720000000051
                },
                {
                    "name": "C#4",
                    "midi": 61,
                    "time": 156.32895599999904,
                    "velocity": 0.25196850393700787,
                    "duration": 0.18478600000000256
                },
                {
                    "name": "D#4",
                    "midi": 63,
                    "time": 156.51374199999904,
                    "velocity": 0.2047244094488189,
                    "duration": 0.18478600000000256
                },
                {
                    "name": "G#4",
                    "midi": 68,
                    "time": 156.69852799999904,
                    "velocity": 0.30708661417322836,
                    "duration": 0.3695720000000051
                },
                {
                    "name": "C#4",
                    "midi": 61,
                    "time": 156.69852799999904,
                    "velocity": 0.2677165354330709,
                    "duration": 0.18478600000000256
                },
                {
                    "name": "A#3",
                    "midi": 58,
                    "time": 156.88331399999905,
                    "velocity": 0.2204724409448819,
                    "duration": 0.18478600000000256
                },
                {
                    "name": "C5",
                    "midi": 72,
                    "time": 157.06809999999905,
                    "velocity": 0.33070866141732286,
                    "duration": 0.7391440000000102
                },
                {
                    "name": "C#4",
                    "midi": 61,
                    "time": 157.25288599999905,
                    "velocity": 0.2047244094488189,
                    "duration": 0.18478600000000256
                },
                {
                    "name": "D#4",
                    "midi": 63,
                    "time": 157.43767199999905,
                    "velocity": 0.2047244094488189,
                    "duration": 0.18478600000000256
                },
                {
                    "name": "G4",
                    "midi": 67,
                    "time": 157.62245799999906,
                    "velocity": 0.2047244094488189,
                    "duration": 0.18478600000000256
                },
                {
                    "name": "A#4",
                    "midi": 70,
                    "time": 157.80724399999906,
                    "velocity": 0.31496062992125984,
                    "duration": 0.3695720000000051
                },
                {
                    "name": "D#4",
                    "midi": 63,
                    "time": 157.80724399999906,
                    "velocity": 0.28346456692913385,
                    "duration": 0.18478600000000256
                },
                {
                    "name": "C#4",
                    "midi": 61,
                    "time": 157.99202999999906,
                    "velocity": 0.1968503937007874,
                    "duration": 0.18478600000000256
                },
                {
                    "name": "G#4",
                    "midi": 68,
                    "time": 158.17681599999906,
                    "velocity": 0.3543307086614173,
                    "duration": 0.7391440000000102
                },
                {
                    "name": "C4",
                    "midi": 60,
                    "time": 158.36160199999907,
                    "velocity": 0.16535433070866143,
                    "duration": 0.18478600000000256
                },
                {
                    "name": "D#4",
                    "midi": 63,
                    "time": 158.54638799999907,
                    "velocity": 0.25984251968503935,
                    "duration": 0.18478600000000256
                },
                {
                    "name": "F4",
                    "midi": 65,
                    "time": 158.73117399999907,
                    "velocity": 0.1889763779527559,
                    "duration": 0.18478600000000256
                },
                {
                    "name": "D#4",
                    "midi": 63,
                    "time": 158.91595999999907,
                    "velocity": 0.1889763779527559,
                    "duration": 0.18478600000000256
                },
                {
                    "name": "C4",
                    "midi": 60,
                    "time": 159.10074599999908,
                    "velocity": 0.1889763779527559,
                    "duration": 0.18478600000000256
                },
                {
                    "name": "G#3",
                    "midi": 56,
                    "time": 159.28553199999908,
                    "velocity": 0.2204724409448819,
                    "duration": 0.18478600000000256
                },
                {
                    "name": "C4",
                    "midi": 60,
                    "time": 159.47031799999908,
                    "velocity": 0.2125984251968504,
                    "duration": 0.18478600000000256
                },
                {
                    "name": "D#4",
                    "midi": 63,
                    "time": 159.65510399999908,
                    "velocity": 0.25196850393700787,
                    "duration": 0.18478600000000256
                },
                {
                    "name": "F4",
                    "midi": 65,
                    "time": 159.8398899999991,
                    "velocity": 0.28346456692913385,
                    "duration": 0.18478600000000256
                },
                {
                    "name": "D#4",
                    "midi": 63,
                    "time": 160.0246759999991,
                    "velocity": 0.30708661417322836,
                    "duration": 0.3695720000000051
                },
                {
                    "name": "G#4",
                    "midi": 68,
                    "time": 160.2094619999991,
                    "velocity": 0.28346456692913385,
                    "duration": 0.18478600000000256
                },
                {
                    "name": "C5",
                    "midi": 72,
                    "time": 160.3942479999991,
                    "velocity": 0.3543307086614173,
                    "duration": 1.1087160000000154
                },
                {
                    "name": "D4",
                    "midi": 62,
                    "time": 160.5790339999991,
                    "velocity": 0.2440944881889764,
                    "duration": 0.18478600000000256
                },
                {
                    "name": "D#4",
                    "midi": 63,
                    "time": 160.7638199999991,
                    "velocity": 0.28346456692913385,
                    "duration": 0.18478600000000256
                },
                {
                    "name": "G#4",
                    "midi": 68,
                    "time": 160.9486059999991,
                    "velocity": 0.2204724409448819,
                    "duration": 0.18478600000000256
                },
                {
                    "name": "D#4",
                    "midi": 63,
                    "time": 161.1333919999991,
                    "velocity": 0.2204724409448819,
                    "duration": 0.18478600000000256
                },
                {
                    "name": "C4",
                    "midi": 60,
                    "time": 161.3181779999991,
                    "velocity": 0.1968503937007874,
                    "duration": 0.18478600000000256
                },
                {
                    "name": "C5",
                    "midi": 72,
                    "time": 161.5029639999991,
                    "velocity": 0.25984251968503935,
                    "duration": 1.1087160000000154
                },
                {
                    "name": "C4",
                    "midi": 60,
                    "time": 161.6877499999991,
                    "velocity": 0.15748031496062992,
                    "duration": 0.18478600000000256
                },
                {
                    "name": "D#4",
                    "midi": 63,
                    "time": 161.87253599999912,
                    "velocity": 0.2204724409448819,
                    "duration": 0.18478600000000256
                },
                {
                    "name": "G#4",
                    "midi": 68,
                    "time": 162.05732199999912,
                    "velocity": 0.2047244094488189,
                    "duration": 0.18478600000000256
                },
                {
                    "name": "D#4",
                    "midi": 63,
                    "time": 162.24210799999912,
                    "velocity": 0.2125984251968504,
                    "duration": 0.18478600000000256
                },
                {
                    "name": "C4",
                    "midi": 60,
                    "time": 162.42689399999912,
                    "velocity": 0.2440944881889764,
                    "duration": 0.18478600000000256
                },
                {
                    "name": "C5",
                    "midi": 72,
                    "time": 162.61167999999913,
                    "velocity": 0.3464566929133858,
                    "duration": 1.4782880000000205
                },
                {
                    "name": "C4",
                    "midi": 60,
                    "time": 162.79646599999913,
                    "velocity": 0.18110236220472442,
                    "duration": 0.18478600000000256
                },
                {
                    "name": "E4",
                    "midi": 64,
                    "time": 162.98125199999913,
                    "velocity": 0.25984251968503935,
                    "duration": 0.18478600000000256
                },
                {
                    "name": "A#4",
                    "midi": 70,
                    "time": 163.16603799999913,
                    "velocity": 0.1968503937007874,
                    "duration": 0.18478600000000256
                },
                {
                    "name": "E4",
                    "midi": 64,
                    "time": 163.35082399999914,
                    "velocity": 0.1968503937007874,
                    "duration": 0.18478600000000256
                },
                {
                    "name": "C4",
                    "midi": 60,
                    "time": 163.53560999999914,
                    "velocity": 0.1968503937007874,
                    "duration": 0.18478600000000256
                },
                {
                    "name": "C4",
                    "midi": 60,
                    "time": 163.90518199999914,
                    "velocity": 0.1732283464566929,
                    "duration": 0.18478600000000256
                },
                {
                    "name": "E4",
                    "midi": 64,
                    "time": 164.08996799999915,
                    "velocity": 0.2283464566929134,
                    "duration": 0.18478600000000256
                },
                {
                    "name": "A#4",
                    "midi": 70,
                    "time": 164.27475399999915,
                    "velocity": 0.1968503937007874,
                    "duration": 0.18478600000000256
                },
                {
                    "name": "E4",
                    "midi": 64,
                    "time": 164.45953999999915,
                    "velocity": 0.25196850393700787,
                    "duration": 0.18478600000000256
                },
                {
                    "name": "C5",
                    "midi": 72,
                    "time": 164.45953999999915,
                    "velocity": 0.2992125984251969,
                    "duration": 0.3695720000000051
                },
                {
                    "name": "C4",
                    "midi": 60,
                    "time": 164.64432599999915,
                    "velocity": 0.2047244094488189,
                    "duration": 0.18478600000000256
                },
                {
                    "name": "C5",
                    "midi": 72,
                    "time": 164.82911199999916,
                    "velocity": 0.3464566929133858,
                    "duration": 0.7391440000000102
                },
                {
                    "name": "C4",
                    "midi": 60,
                    "time": 165.01389799999916,
                    "velocity": 0.2204724409448819,
                    "duration": 0.18478600000000256
                },
                {
                    "name": "F4",
                    "midi": 65,
                    "time": 165.19868399999916,
                    "velocity": 0.25196850393700787,
                    "duration": 0.18478600000000256
                },
                {
                    "name": "A4",
                    "midi": 69,
                    "time": 165.38346999999916,
                    "velocity": 0.2125984251968504,
                    "duration": 0.18478600000000256
                },
                {
                    "name": "F4",
                    "midi": 65,
                    "time": 165.56825599999917,
                    "velocity": 0.28346456692913385,
                    "duration": 0.18478600000000256
                },
                {
                    "name": "C5",
                    "midi": 72,
                    "time": 165.56825599999917,
                    "velocity": 0.31496062992125984,
                    "duration": 0.3695720000000051
                },
                {
                    "name": "C4",
                    "midi": 60,
                    "time": 165.75304199999917,
                    "velocity": 0.23622047244094488,
                    "duration": 0.18478600000000256
                },
                {
                    "name": "C#5",
                    "midi": 73,
                    "time": 165.93782799999917,
                    "velocity": 0.4094488188976378,
                    "duration": 0.7391440000000102
                },
                {
                    "name": "C4",
                    "midi": 60,
                    "time": 166.12261399999917,
                    "velocity": 0.31496062992125984,
                    "duration": 0.18478600000000256
                },
                {
                    "name": "F#4",
                    "midi": 66,
                    "time": 166.30739999999918,
                    "velocity": 0.3779527559055118,
                    "duration": 0.18478600000000256
                },
                {
                    "name": "A4",
                    "midi": 69,
                    "time": 166.49218599999918,
                    "velocity": 0.33858267716535434,
                    "duration": 0.18478600000000256
                },
                {
                    "name": "C5",
                    "midi": 72,
                    "time": 166.67697199999918,
                    "velocity": 0.3937007874015748,
                    "duration": 0.3695720000000051
                },
                {
                    "name": "F#4",
                    "midi": 66,
                    "time": 166.67697199999918,
                    "velocity": 0.33070866141732286,
                    "duration": 0.18478600000000256
                },
                {
                    "name": "C4",
                    "midi": 60,
                    "time": 166.86175799999918,
                    "velocity": 0.3700787401574803,
                    "duration": 0.18478600000000256
                },
                {
                    "name": "F5",
                    "midi": 77,
                    "time": 167.0465439999992,
                    "velocity": 0.48031496062992124,
                    "duration": 2.2174320000000307
                },
                {
                    "name": "F4",
                    "midi": 65,
                    "time": 167.2313299999992,
                    "velocity": 0.25196850393700787,
                    "duration": 0.18478600000000256
                },
                {
                    "name": "G#4",
                    "midi": 68,
                    "time": 167.4161159999992,
                    "velocity": 0.3228346456692913,
                    "duration": 0.18478600000000256
                },
                {
                    "name": "C5",
                    "midi": 72,
                    "time": 167.6009019999992,
                    "velocity": 0.2283464566929134,
                    "duration": 0.18478600000000256
                },
                {
                    "name": "G#4",
                    "midi": 68,
                    "time": 167.7856879999992,
                    "velocity": 0.29133858267716534,
                    "duration": 0.18478600000000256
                },
                {
                    "name": "F4",
                    "midi": 65,
                    "time": 167.9704739999992,
                    "velocity": 0.23622047244094488,
                    "duration": 0.18478600000000256
                },
                {
                    "name": "F4",
                    "midi": 65,
                    "time": 168.3400459999992,
                    "velocity": 0.18110236220472442,
                    "duration": 0.18478600000000256
                },
                {
                    "name": "G#4",
                    "midi": 68,
                    "time": 168.5248319999992,
                    "velocity": 0.2440944881889764,
                    "duration": 0.18478600000000256
                },
                {
                    "name": "B4",
                    "midi": 71,
                    "time": 168.7096179999992,
                    "velocity": 0.2125984251968504,
                    "duration": 0.18478600000000256
                },
                {
                    "name": "G#4",
                    "midi": 68,
                    "time": 168.8944039999992,
                    "velocity": 0.2047244094488189,
                    "duration": 0.18478600000000256
                },
                {
                    "name": "F4",
                    "midi": 65,
                    "time": 169.07918999999922,
                    "velocity": 0.1968503937007874,
                    "duration": 0.18478600000000256
                },
                {
                    "name": "A#3",
                    "midi": 58,
                    "time": 169.44876199999922,
                    "velocity": 0.16535433070866143,
                    "duration": 0.18478600000000256
                },
                {
                    "name": "E4",
                    "midi": 64,
                    "time": 169.63354799999922,
                    "velocity": 0.2125984251968504,
                    "duration": 0.18478600000000256
                },
                {
                    "name": "G#4",
                    "midi": 68,
                    "time": 169.81833399999923,
                    "velocity": 0.15748031496062992,
                    "duration": 0.18478600000000256
                },
                {
                    "name": "E4",
                    "midi": 64,
                    "time": 170.00311999999923,
                    "velocity": 0.15748031496062992,
                    "duration": 0.18478600000000256
                },
                {
                    "name": "A#3",
                    "midi": 58,
                    "time": 170.18790599999923,
                    "velocity": 0.15748031496062992,
                    "duration": 0.18478600000000256
                },
                {
                    "name": "A#4",
                    "midi": 70,
                    "time": 170.37269199999923,
                    "velocity": 0.25196850393700787,
                    "duration": 1.1087160000000154
                },
                {
                    "name": "A#3",
                    "midi": 58,
                    "time": 170.55747799999924,
                    "velocity": 0.15748031496062992,
                    "duration": 0.18478600000000256
                },
                {
                    "name": "E4",
                    "midi": 64,
                    "time": 170.74226399999924,
                    "velocity": 0.1968503937007874,
                    "duration": 0.18478600000000256
                },
                {
                    "name": "G4",
                    "midi": 67,
                    "time": 170.92704999999924,
                    "velocity": 0.16535433070866143,
                    "duration": 0.18478600000000256
                },
                {
                    "name": "E4",
                    "midi": 64,
                    "time": 171.11183599999924,
                    "velocity": 0.16535433070866143,
                    "duration": 0.18478600000000256
                },
                {
                    "name": "A#3",
                    "midi": 58,
                    "time": 171.29662199999925,
                    "velocity": 0.16535433070866143,
                    "duration": 0.18478600000000256
                },
                {
                    "name": "D#5",
                    "midi": 75,
                    "time": 171.48140799999925,
                    "velocity": 0.29133858267716534,
                    "duration": 2.2174320000000307
                },
                {
                    "name": "D#4",
                    "midi": 63,
                    "time": 171.66619399999925,
                    "velocity": 0.1732283464566929,
                    "duration": 0.18478600000000256
                },
                {
                    "name": "F#4",
                    "midi": 66,
                    "time": 171.85097999999925,
                    "velocity": 0.2204724409448819,
                    "duration": 0.18478600000000256
                },
                {
                    "name": "A#4",
                    "midi": 70,
                    "time": 172.03576599999926,
                    "velocity": 0.1732283464566929,
                    "duration": 0.18478600000000256
                },
                {
                    "name": "F#4",
                    "midi": 66,
                    "time": 172.22055199999926,
                    "velocity": 0.1732283464566929,
                    "duration": 0.18478600000000256
                },
                {
                    "name": "D#4",
                    "midi": 63,
                    "time": 172.40533799999926,
                    "velocity": 0.1732283464566929,
                    "duration": 0.18478600000000256
                },
                {
                    "name": "D#4",
                    "midi": 63,
                    "time": 172.77490999999927,
                    "velocity": 0.15748031496062992,
                    "duration": 0.18478600000000256
                },
                {
                    "name": "F#4",
                    "midi": 66,
                    "time": 172.95969599999927,
                    "velocity": 0.2047244094488189,
                    "duration": 0.18478600000000256
                },
                {
                    "name": "A4",
                    "midi": 69,
                    "time": 173.14448199999927,
                    "velocity": 0.16535433070866143,
                    "duration": 0.18478600000000256
                },
                {
                    "name": "F#4",
                    "midi": 66,
                    "time": 173.32926799999927,
                    "velocity": 0.23622047244094488,
                    "duration": 0.18478600000000256
                },
                {
                    "name": "D#4",
                    "midi": 63,
                    "time": 173.51405399999928,
                    "velocity": 0.1889763779527559,
                    "duration": 0.18478600000000256
                },
                {
                    "name": "G#3",
                    "midi": 56,
                    "time": 173.88362599999928,
                    "velocity": 0.15748031496062992,
                    "duration": 0.18478600000000256
                },
                {
                    "name": "D4",
                    "midi": 62,
                    "time": 174.06841199999928,
                    "velocity": 0.1968503937007874,
                    "duration": 0.18478600000000256
                },
                {
                    "name": "F#4",
                    "midi": 66,
                    "time": 174.2531979999993,
                    "velocity": 0.15748031496062992,
                    "duration": 0.18478600000000256
                },
                {
                    "name": "D4",
                    "midi": 62,
                    "time": 174.4379839999993,
                    "velocity": 0.15748031496062992,
                    "duration": 0.18478600000000256
                },
                {
                    "name": "G#3",
                    "midi": 56,
                    "time": 174.6227699999993,
                    "velocity": 0.15748031496062992,
                    "duration": 0.18478600000000256
                },
                {
                    "name": "G#4",
                    "midi": 68,
                    "time": 174.8075559999993,
                    "velocity": 0.2283464566929134,
                    "duration": 1.1087160000000154
                },
                {
                    "name": "G#3",
                    "midi": 56,
                    "time": 174.9923419999993,
                    "velocity": 0.15748031496062992,
                    "duration": 0.18478600000000256
                },
                {
                    "name": "D4",
                    "midi": 62,
                    "time": 175.1771279999993,
                    "velocity": 0.1889763779527559,
                    "duration": 0.18478600000000256
                },
                {
                    "name": "F4",
                    "midi": 65,
                    "time": 175.3619139999993,
                    "velocity": 0.15748031496062992,
                    "duration": 0.18478600000000256
                },
                {
                    "name": "D4",
                    "midi": 62,
                    "time": 175.5466999999993,
                    "velocity": 0.15748031496062992,
                    "duration": 0.18478600000000256
                },
                {
                    "name": "G#3",
                    "midi": 56,
                    "time": 175.7314859999993,
                    "velocity": 0.15748031496062992,
                    "duration": 0.18478600000000256
                },
                {
                    "name": "C#5",
                    "midi": 73,
                    "time": 175.9162719999993,
                    "velocity": 0.2755905511811024,
                    "duration": 1.8478600000000256
                },
                {
                    "name": "C#4",
                    "midi": 61,
                    "time": 176.1010579999993,
                    "velocity": 0.14960629921259844,
                    "duration": 0.18478600000000256
                },
                {
                    "name": "F4",
                    "midi": 65,
                    "time": 176.28584399999932,
                    "velocity": 0.2125984251968504,
                    "duration": 0.18478600000000256
                },
                {
                    "name": "G#4",
                    "midi": 68,
                    "time": 176.47062999999932,
                    "velocity": 0.14173228346456693,
                    "duration": 0.18478600000000256
                },
                {
                    "name": "F4",
                    "midi": 65,
                    "time": 176.65541599999932,
                    "velocity": 0.14173228346456693,
                    "duration": 0.18478600000000256
                },
                {
                    "name": "C#4",
                    "midi": 61,
                    "time": 176.84020199999932,
                    "velocity": 0.14173228346456693,
                    "duration": 0.18478600000000256
                },
                {
                    "name": "C#4",
                    "midi": 61,
                    "time": 177.20977399999933,
                    "velocity": 0.15748031496062992,
                    "duration": 0.18478600000000256
                },
                {
                    "name": "E4",
                    "midi": 64,
                    "time": 177.39455999999933,
                    "velocity": 0.2047244094488189,
                    "duration": 0.18478600000000256
                },
                {
                    "name": "G4",
                    "midi": 67,
                    "time": 177.57934599999933,
                    "velocity": 0.16535433070866143,
                    "duration": 0.18478600000000256
                },
                {
                    "name": "C5",
                    "midi": 72,
                    "time": 177.76413199999934,
                    "velocity": 0.25196850393700787,
                    "duration": 0.3695720000000051
                },
                {
                    "name": "E4",
                    "midi": 64,
                    "time": 177.76413199999934,
                    "velocity": 0.2047244094488189,
                    "duration": 0.18478600000000256
                },
                {
                    "name": "C#4",
                    "midi": 61,
                    "time": 177.94891799999934,
                    "velocity": 0.1732283464566929,
                    "duration": 0.18478600000000256
                },
                {
                    "name": "C5",
                    "midi": 72,
                    "time": 178.13370399999934,
                    "velocity": 0.28346456692913385,
                    "duration": 0.7391440000000102
                },
                {
                    "name": "C#4",
                    "midi": 61,
                    "time": 178.31848999999934,
                    "velocity": 0.15748031496062992,
                    "duration": 0.18478600000000256
                },
                {
                    "name": "E4",
                    "midi": 64,
                    "time": 178.50327599999935,
                    "velocity": 0.1968503937007874,
                    "duration": 0.18478600000000256
                },
                {
                    "name": "G4",
                    "midi": 67,
                    "time": 178.68806199999935,
                    "velocity": 0.16535433070866143,
                    "duration": 0.18478600000000256
                },
                {
                    "name": "A#4",
                    "midi": 70,
                    "time": 178.87284799999935,
                    "velocity": 0.25196850393700787,
                    "duration": 0.3695720000000051
                },
                {
                    "name": "E4",
                    "midi": 64,
                    "time": 178.87284799999935,
                    "velocity": 0.16535433070866143,
                    "duration": 0.18478600000000256
                },
                {
                    "name": "C#4",
                    "midi": 61,
                    "time": 179.05763399999935,
                    "velocity": 0.16535433070866143,
                    "duration": 0.18478600000000256
                },
                {
                    "name": "C5",
                    "midi": 72,
                    "time": 179.24241999999936,
                    "velocity": 0.28346456692913385,
                    "duration": 0.7391440000000102
                },
                {
                    "name": "C#4",
                    "midi": 61,
                    "time": 179.42720599999936,
                    "velocity": 0.15748031496062992,
                    "duration": 0.18478600000000256
                },
                {
                    "name": "D#4",
                    "midi": 63,
                    "time": 179.61199199999936,
                    "velocity": 0.1968503937007874,
                    "duration": 0.18478600000000256
                },
                {
                    "name": "G4",
                    "midi": 67,
                    "time": 179.79677799999936,
                    "velocity": 0.16535433070866143,
                    "duration": 0.18478600000000256
                },
                {
                    "name": "A#4",
                    "midi": 70,
                    "time": 179.98156399999937,
                    "velocity": 0.2440944881889764,
                    "duration": 0.3695720000000051
                },
                {
                    "name": "D#4",
                    "midi": 63,
                    "time": 179.98156399999937,
                    "velocity": 0.16535433070866143,
                    "duration": 0.18478600000000256
                },
                {
                    "name": "C#4",
                    "midi": 61,
                    "time": 180.16634999999937,
                    "velocity": 0.16535433070866143,
                    "duration": 0.13858949999999481
                },
                {
                    "name": "C4",
                    "midi": 60,
                    "time": 180.30493949999936,
                    "velocity": 0.1889763779527559,
                    "duration": 0.41576850000001286
                },
                {
                    "name": "D#4",
                    "midi": 63,
                    "time": 180.32803774999937,
                    "velocity": 0.2283464566929134,
                    "duration": 0.392670250000009
                },
                {
                    "name": "G#4",
                    "midi": 68,
                    "time": 180.35113599999937,
                    "velocity": 0.28346456692913385,
                    "duration": 0.3695720000000051
                },
                {
                    "name": "C4",
                    "midi": 60,
                    "time": 181.27506599999938,
                    "velocity": 0.1889763779527559,
                    "duration": 0.18478600000000256
                },
                {
                    "name": "D#4",
                    "midi": 63,
                    "time": 181.4598519999994,
                    "velocity": 0.1968503937007874,
                    "duration": 0.18478600000000256
                },
                {
                    "name": "G#4",
                    "midi": 68,
                    "time": 181.6446379999994,
                    "velocity": 0.1968503937007874,
                    "duration": 0.18478600000000256
                },
                {
                    "name": "C5",
                    "midi": 72,
                    "time": 181.8294239999994,
                    "velocity": 0.2047244094488189,
                    "duration": 0.18478600000000256
                },
                {
                    "name": "D#5",
                    "midi": 75,
                    "time": 182.0142099999994,
                    "velocity": 0.2125984251968504,
                    "duration": 0.18478600000000256
                },
                {
                    "name": "G#5",
                    "midi": 80,
                    "time": 182.1989959999994,
                    "velocity": 0.2204724409448819,
                    "duration": 0.18478600000000256
                },
                {
                    "name": "A#5",
                    "midi": 82,
                    "time": 182.3837819999994,
                    "velocity": 0.2204724409448819,
                    "duration": 0.18478600000000256
                },
                {
                    "name": "D#5",
                    "midi": 75,
                    "time": 182.5685679999994,
                    "velocity": 0.25196850393700787,
                    "duration": 0.7391440000000102
                },
                {
                    "name": "C6",
                    "midi": 84,
                    "time": 182.5685679999994,
                    "velocity": 0.25196850393700787,
                    "duration": 0.7391440000000102
                },
                {
                    "name": "E5",
                    "midi": 76,
                    "time": 183.3077119999994,
                    "velocity": 0.1968503937007874,
                    "duration": 0.35109339999999634
                },
                {
                    "name": "C6",
                    "midi": 84,
                    "time": 183.3077119999994,
                    "velocity": 0.1968503937007874,
                    "duration": 0.35109339999999634
                },
                {
                    "name": "F5",
                    "midi": 77,
                    "time": 183.67728399999942,
                    "velocity": 0.2047244094488189,
                    "duration": 0.35109339999999634
                },
                {
                    "name": "C6",
                    "midi": 84,
                    "time": 183.67728399999942,
                    "velocity": 0.2047244094488189,
                    "duration": 0.35109339999999634
                },
                {
                    "name": "F#5",
                    "midi": 78,
                    "time": 184.04685599999942,
                    "velocity": 0.2283464566929134,
                    "duration": 0.35109339999999634
                },
                {
                    "name": "C#6",
                    "midi": 85,
                    "time": 184.04685599999942,
                    "velocity": 0.2283464566929134,
                    "duration": 0.35109339999999634
                },
                {
                    "name": "F#5",
                    "midi": 78,
                    "time": 184.41642799999943,
                    "velocity": 0.1968503937007874,
                    "duration": 0.35109339999999634
                },
                {
                    "name": "C6",
                    "midi": 84,
                    "time": 184.41642799999943,
                    "velocity": 0.1968503937007874,
                    "duration": 0.35109339999999634
                },
                {
                    "name": "G#5",
                    "midi": 80,
                    "time": 184.78599999999943,
                    "velocity": 0.23622047244094488,
                    "duration": 0.35109339999999634
                },
                {
                    "name": "F6",
                    "midi": 89,
                    "time": 184.78599999999943,
                    "velocity": 0.23622047244094488,
                    "duration": 0.35109339999999634
                },
                {
                    "name": "C#5",
                    "midi": 73,
                    "time": 187.00343199999944,
                    "velocity": 0.25196850393700787,
                    "duration": 0.7391440000000102
                },
                {
                    "name": "A#5",
                    "midi": 82,
                    "time": 187.00343199999944,
                    "velocity": 0.25196850393700787,
                    "duration": 0.7391440000000102
                },
                {
                    "name": "D5",
                    "midi": 74,
                    "time": 187.74257599999945,
                    "velocity": 0.1968503937007874,
                    "duration": 0.35109339999999634
                },
                {
                    "name": "A#5",
                    "midi": 82,
                    "time": 187.74257599999945,
                    "velocity": 0.1968503937007874,
                    "duration": 0.35109339999999634
                },
                {
                    "name": "D#5",
                    "midi": 75,
                    "time": 188.11214799999945,
                    "velocity": 0.2047244094488189,
                    "duration": 0.35109339999999634
                },
                {
                    "name": "A#5",
                    "midi": 82,
                    "time": 188.11214799999945,
                    "velocity": 0.2047244094488189,
                    "duration": 0.35109339999999634
                },
                {
                    "name": "E5",
                    "midi": 76,
                    "time": 188.48171999999946,
                    "velocity": 0.2283464566929134,
                    "duration": 0.35109339999999634
                },
                {
                    "name": "C6",
                    "midi": 84,
                    "time": 188.48171999999946,
                    "velocity": 0.2283464566929134,
                    "duration": 0.35109339999999634
                },
                {
                    "name": "E5",
                    "midi": 76,
                    "time": 188.85129199999946,
                    "velocity": 0.1968503937007874,
                    "duration": 0.35109339999999634
                },
                {
                    "name": "A#5",
                    "midi": 82,
                    "time": 188.85129199999946,
                    "velocity": 0.1968503937007874,
                    "duration": 0.35109339999999634
                },
                {
                    "name": "F#5",
                    "midi": 78,
                    "time": 189.22086399999947,
                    "velocity": 0.23622047244094488,
                    "duration": 0.35109339999999634
                },
                {
                    "name": "D#6",
                    "midi": 87,
                    "time": 189.22086399999947,
                    "velocity": 0.23622047244094488,
                    "duration": 0.35109339999999634
                },
                {
                    "name": "C#4",
                    "midi": 61,
                    "time": 191.34590299999945,
                    "velocity": 0.3700787401574803,
                    "duration": 2.125039000000015
                },
                {
                    "name": "E4",
                    "midi": 64,
                    "time": 191.39209949999946,
                    "velocity": 0.4094488188976378,
                    "duration": 2.0788425000000075
                },
                {
                    "name": "C#5",
                    "midi": 73,
                    "time": 191.43829599999947,
                    "velocity": 0.4566929133858268,
                    "duration": 2.0326459999999997
                },
                {
                    "name": "C#4",
                    "midi": 61,
                    "time": 193.65572799999947,
                    "velocity": 0.3228346456692913,
                    "duration": 1.478287999999992
                },
                {
                    "name": "F4",
                    "midi": 65,
                    "time": 193.65572799999947,
                    "velocity": 0.33858267716535434,
                    "duration": 1.478287999999992
                },
                {
                    "name": "A#4",
                    "midi": 70,
                    "time": 193.65572799999947,
                    "velocity": 0.4094488188976378,
                    "duration": 1.8478599999999972
                },
                {
                    "name": "D#4",
                    "midi": 63,
                    "time": 195.13401599999946,
                    "velocity": 0.29133858267716534,
                    "duration": 0.7391440000000102
                },
                {
                    "name": "C5",
                    "midi": 72,
                    "time": 195.50358799999947,
                    "velocity": 0.29133858267716534,
                    "duration": 0.3695720000000051
                },
                {
                    "name": "C4",
                    "midi": 60,
                    "time": 195.87315999999947,
                    "velocity": 0.2992125984251969,
                    "duration": 1.478287999999992
                },
                {
                    "name": "G#4",
                    "midi": 68,
                    "time": 195.87315999999947,
                    "velocity": 0.2992125984251969,
                    "duration": 2.2174320000000023
                },
                {
                    "name": "B3",
                    "midi": 59,
                    "time": 197.35144799999946,
                    "velocity": 0.29133858267716534,
                    "duration": 0.3695720000000051
                },
                {
                    "name": "C4",
                    "midi": 60,
                    "time": 197.72101999999947,
                    "velocity": 0.29133858267716534,
                    "duration": 0.3002772499999935
                },
                {
                    "name": "D#4",
                    "midi": 63,
                    "time": 198.06749374999947,
                    "velocity": 0.2992125984251969,
                    "duration": 1.1318142499999908
                },
                {
                    "name": "G#4",
                    "midi": 68,
                    "time": 198.09059199999948,
                    "velocity": 0.31496062992125984,
                    "duration": 2.2174320000000023
                },
                {
                    "name": "C#4",
                    "midi": 61,
                    "time": 199.19930799999946,
                    "velocity": 0.2677165354330709,
                    "duration": 0.7391440000000102
                },
                {
                    "name": "C4",
                    "midi": 60,
                    "time": 199.93845199999947,
                    "velocity": 0.2440944881889764,
                    "duration": 0.3695720000000051
                },
                {
                    "name": "C4",
                    "midi": 60,
                    "time": 200.49280999999948,
                    "velocity": 0.2677165354330709,
                    "duration": 2.0326459999999997
                },
                {
                    "name": "G#4",
                    "midi": 68,
                    "time": 200.58520299999947,
                    "velocity": 0.29133858267716534,
                    "duration": 1.9402530000000127
                }
            ],
            "controlChanges": {
                "7": [
                    {
                        "number": 7,
                        "time": 0,
                        "value": 0.7874015748031497
                    }
                ],
                "10": [
                    {
                        "number": 10,
                        "time": 0,
                        "value": 0.5039370078740157
                    }
                ],
                "91": [
                    {
                        "number": 91,
                        "time": 1.84786,
                        "value": 1
                    }
                ]
            },
            "id": 1,
            "name": "Piano right",
            "instrumentNumber": 0,
            "instrument": "acoustic grand piano",
            "instrumentFamily": "piano",
            "channelNumber": 0,
            "isPercussion": false
        },
        {
            "startTime": 1.84786,
            "duration": 202.5254559999994,
            "length": 784,
            "notes": [
                {
                    "name": "D#3",
                    "midi": 51,
                    "time": 1.84786,
                    "velocity": 0.3464566929133858,
                    "duration": 0.369572
                },
                {
                    "name": "G#2",
                    "midi": 44,
                    "time": 2.217432,
                    "velocity": 0.31496062992125984,
                    "duration": 0.36957200000000023
                },
                {
                    "name": "C4",
                    "midi": 60,
                    "time": 2.217432,
                    "velocity": 0.3858267716535433,
                    "duration": 1.1087160000000003
                },
                {
                    "name": "C4",
                    "midi": 60,
                    "time": 3.3261480000000003,
                    "velocity": 0.3464566929133858,
                    "duration": 1.1087159999999998
                },
                {
                    "name": "G2",
                    "midi": 43,
                    "time": 4.434864,
                    "velocity": 0.25196850393700787,
                    "duration": 0.3695719999999998
                },
                {
                    "name": "C4",
                    "midi": 60,
                    "time": 4.434864,
                    "velocity": 0.2992125984251969,
                    "duration": 1.8478599999999998
                },
                {
                    "name": "C4",
                    "midi": 60,
                    "time": 6.282724,
                    "velocity": 0.30708661417322836,
                    "duration": 0.3695719999999998
                },
                {
                    "name": "F2",
                    "midi": 41,
                    "time": 6.652296,
                    "velocity": 0.28346456692913385,
                    "duration": 0.3695719999999998
                },
                {
                    "name": "C4",
                    "midi": 60,
                    "time": 6.652296,
                    "velocity": 0.3543307086614173,
                    "duration": 0.7391439999999996
                },
                {
                    "name": "C4",
                    "midi": 60,
                    "time": 7.391439999999999,
                    "velocity": 0.3700787401574803,
                    "duration": 0.3695719999999998
                },
                {
                    "name": "C#4",
                    "midi": 61,
                    "time": 7.761011999999999,
                    "velocity": 0.4094488188976378,
                    "duration": 0.7391439999999996
                },
                {
                    "name": "C4",
                    "midi": 60,
                    "time": 8.500155999999999,
                    "velocity": 0.3858267716535433,
                    "duration": 0.3695719999999998
                },
                {
                    "name": "A#1",
                    "midi": 34,
                    "time": 8.869727999999999,
                    "velocity": 0.31496062992125984,
                    "duration": 0.3695719999999998
                },
                {
                    "name": "C4",
                    "midi": 60,
                    "time": 8.869727999999999,
                    "velocity": 0.4409448818897638,
                    "duration": 1.1087159999999994
                },
                {
                    "name": "F3",
                    "midi": 53,
                    "time": 9.978443999999998,
                    "velocity": 0.33070866141732286,
                    "duration": 0.3695719999999998
                },
                {
                    "name": "F3",
                    "midi": 53,
                    "time": 10.717587999999997,
                    "velocity": 0.33070866141732286,
                    "duration": 0.3695719999999998
                },
                {
                    "name": "D#2",
                    "midi": 39,
                    "time": 11.040963499999997,
                    "velocity": 0.3228346456692913,
                    "duration": 0.41576850000000043
                },
                {
                    "name": "F3",
                    "midi": 53,
                    "time": 11.087159999999997,
                    "velocity": 0.3779527559055118,
                    "duration": 0.3695719999999998
                },
                {
                    "name": "G3",
                    "midi": 55,
                    "time": 11.456731999999997,
                    "velocity": 0.31496062992125984,
                    "duration": 0.3695719999999998
                },
                {
                    "name": "G#3",
                    "midi": 56,
                    "time": 11.826303999999997,
                    "velocity": 0.36220472440944884,
                    "duration": 0.3233755000000009
                },
                {
                    "name": "D#3",
                    "midi": 51,
                    "time": 12.149679499999998,
                    "velocity": 0.33070866141732286,
                    "duration": 0.41576850000000043
                },
                {
                    "name": "C4",
                    "midi": 60,
                    "time": 12.195875999999998,
                    "velocity": 0.3937007874015748,
                    "duration": 0.7391439999999996
                },
                {
                    "name": "A#3",
                    "midi": 58,
                    "time": 12.935019999999998,
                    "velocity": 0.3937007874015748,
                    "duration": 0.3695719999999998
                },
                {
                    "name": "G#2",
                    "midi": 44,
                    "time": 13.304591999999998,
                    "velocity": 0.33070866141732286,
                    "duration": 0.3695719999999998
                },
                {
                    "name": "G#3",
                    "midi": 56,
                    "time": 13.304591999999998,
                    "velocity": 0.36220472440944884,
                    "duration": 1.1087159999999994
                },
                {
                    "name": "G#1",
                    "midi": 32,
                    "time": 14.413307999999997,
                    "velocity": 0.33070866141732286,
                    "duration": 0.3695719999999998
                },
                {
                    "name": "D#3",
                    "midi": 51,
                    "time": 15.152451999999997,
                    "velocity": 0.3228346456692913,
                    "duration": 0.3233755000000009
                },
                {
                    "name": "G#2",
                    "midi": 44,
                    "time": 15.475827499999998,
                    "velocity": 0.31496062992125984,
                    "duration": 0.41576850000000043
                },
                {
                    "name": "C4",
                    "midi": 60,
                    "time": 15.522023999999998,
                    "velocity": 0.3464566929133858,
                    "duration": 1.1087160000000011
                },
                {
                    "name": "C4",
                    "midi": 60,
                    "time": 16.63074,
                    "velocity": 0.33070866141732286,
                    "duration": 1.1087160000000011
                },
                {
                    "name": "G2",
                    "midi": 43,
                    "time": 17.739456,
                    "velocity": 0.2755905511811024,
                    "duration": 0.36957200000000157
                },
                {
                    "name": "C4",
                    "midi": 60,
                    "time": 17.739456,
                    "velocity": 0.2992125984251969,
                    "duration": 1.8478600000000043
                },
                {
                    "name": "F#2",
                    "midi": 42,
                    "time": 18.848172,
                    "velocity": 0.3543307086614173,
                    "duration": 0.36957200000000157
                },
                {
                    "name": "C4",
                    "midi": 60,
                    "time": 19.587316000000005,
                    "velocity": 0.3543307086614173,
                    "duration": 0.36957200000000157
                },
                {
                    "name": "F2",
                    "midi": 41,
                    "time": 19.956888000000006,
                    "velocity": 0.3858267716535433,
                    "duration": 0.36957200000000157
                },
                {
                    "name": "C4",
                    "midi": 60,
                    "time": 19.956888000000006,
                    "velocity": 0.4409448818897638,
                    "duration": 0.7391440000000031
                },
                {
                    "name": "C4",
                    "midi": 60,
                    "time": 20.69603200000001,
                    "velocity": 0.4645669291338583,
                    "duration": 0.2771790000000003
                },
                {
                    "name": "F3",
                    "midi": 53,
                    "time": 20.97321100000001,
                    "velocity": 0.3700787401574803,
                    "duration": 0.46196500000000285
                },
                {
                    "name": "A3",
                    "midi": 57,
                    "time": 21.01940750000001,
                    "velocity": 0.3858267716535433,
                    "duration": 0.4157685000000022
                },
                {
                    "name": "C#4",
                    "midi": 61,
                    "time": 21.06560400000001,
                    "velocity": 0.5039370078740157,
                    "duration": 0.7391440000000031
                },
                {
                    "name": "C4",
                    "midi": 60,
                    "time": 21.804748000000014,
                    "velocity": 0.4881889763779528,
                    "duration": 0.36957200000000157
                },
                {
                    "name": "A#2",
                    "midi": 46,
                    "time": 22.128123500000015,
                    "velocity": 0.3858267716535433,
                    "duration": 0.4157685000000022
                },
                {
                    "name": "F4",
                    "midi": 65,
                    "time": 22.174320000000016,
                    "velocity": 0.4881889763779528,
                    "duration": 1.1087160000000011
                },
                {
                    "name": "A#1",
                    "midi": 34,
                    "time": 23.283036000000017,
                    "velocity": 0.30708661417322836,
                    "duration": 0.36957200000000157
                },
                {
                    "name": "F3",
                    "midi": 53,
                    "time": 24.02218000000002,
                    "velocity": 0.33070866141732286,
                    "duration": 0.36957200000000157
                },
                {
                    "name": "D#2",
                    "midi": 39,
                    "time": 24.39175200000002,
                    "velocity": 0.3228346456692913,
                    "duration": 0.36957200000000157
                },
                {
                    "name": "F3",
                    "midi": 53,
                    "time": 24.39175200000002,
                    "velocity": 0.3779527559055118,
                    "duration": 0.36957200000000157
                },
                {
                    "name": "G3",
                    "midi": 55,
                    "time": 24.761324000000023,
                    "velocity": 0.31496062992125984,
                    "duration": 0.36957200000000157
                },
                {
                    "name": "G#3",
                    "midi": 56,
                    "time": 25.130896000000025,
                    "velocity": 0.36220472440944884,
                    "duration": 0.36957200000000157
                },
                {
                    "name": "D#3",
                    "midi": 51,
                    "time": 25.500468000000026,
                    "velocity": 0.33070866141732286,
                    "duration": 0.36957200000000157
                },
                {
                    "name": "C4",
                    "midi": 60,
                    "time": 25.500468000000026,
                    "velocity": 0.3937007874015748,
                    "duration": 0.7391440000000031
                },
                {
                    "name": "A#3",
                    "midi": 58,
                    "time": 26.23961200000003,
                    "velocity": 0.3937007874015748,
                    "duration": 0.36957200000000157
                },
                {
                    "name": "G#2",
                    "midi": 44,
                    "time": 26.60918400000003,
                    "velocity": 0.33070866141732286,
                    "duration": 0.36957200000000157
                },
                {
                    "name": "G#3",
                    "midi": 56,
                    "time": 26.60918400000003,
                    "velocity": 0.36220472440944884,
                    "duration": 0.36957200000000157
                },
                {
                    "name": "G#1",
                    "midi": 32,
                    "time": 27.717900000000032,
                    "velocity": 0.33070866141732286,
                    "duration": 0.36957200000000157
                },
                {
                    "name": "E2",
                    "midi": 40,
                    "time": 28.826616000000033,
                    "velocity": 0.31496062992125984,
                    "duration": 0.36957200000000157
                },
                {
                    "name": "G#3",
                    "midi": 56,
                    "time": 28.826616000000033,
                    "velocity": 0.3937007874015748,
                    "duration": 0.9239300000000021
                },
                {
                    "name": "G3",
                    "midi": 55,
                    "time": 29.750546000000035,
                    "velocity": 0.4015748031496063,
                    "duration": 0.184785999999999
                },
                {
                    "name": "C#2",
                    "midi": 37,
                    "time": 29.935332000000034,
                    "velocity": 0.2755905511811024,
                    "duration": 0.36957200000000157
                },
                {
                    "name": "E3",
                    "midi": 52,
                    "time": 29.935332000000034,
                    "velocity": 0.29133858267716534,
                    "duration": 0.36957200000000157
                },
                {
                    "name": "G#3",
                    "midi": 56,
                    "time": 29.935332000000034,
                    "velocity": 0.4330708661417323,
                    "duration": 0.9239300000000021
                },
                {
                    "name": "A#3",
                    "midi": 58,
                    "time": 30.859262000000037,
                    "velocity": 0.4015748031496063,
                    "duration": 0.184785999999999
                },
                {
                    "name": "G#2",
                    "midi": 44,
                    "time": 31.044048000000036,
                    "velocity": 0.2755905511811024,
                    "duration": 0.36957200000000157
                },
                {
                    "name": "D#3",
                    "midi": 51,
                    "time": 31.044048000000036,
                    "velocity": 0.31496062992125984,
                    "duration": 0.36957200000000157
                },
                {
                    "name": "C4",
                    "midi": 60,
                    "time": 31.044048000000036,
                    "velocity": 0.4409448818897638,
                    "duration": 1.1087160000000047
                },
                {
                    "name": "G#1",
                    "midi": 32,
                    "time": 32.15276400000004,
                    "velocity": 0.31496062992125984,
                    "duration": 0.369571999999998
                },
                {
                    "name": "G#2",
                    "midi": 44,
                    "time": 33.26148000000004,
                    "velocity": 0.36220472440944884,
                    "duration": 0.369571999999998
                },
                {
                    "name": "C4",
                    "midi": 60,
                    "time": 33.26148000000004,
                    "velocity": 0.44881889763779526,
                    "duration": 0.739143999999996
                },
                {
                    "name": "B3",
                    "midi": 59,
                    "time": 34.18541000000004,
                    "velocity": 0.4645669291338583,
                    "duration": 0.18478600000000256
                },
                {
                    "name": "F2",
                    "midi": 41,
                    "time": 34.37019600000004,
                    "velocity": 0.31496062992125984,
                    "duration": 0.369571999999998
                },
                {
                    "name": "G#3",
                    "midi": 56,
                    "time": 34.37019600000004,
                    "velocity": 0.33070866141732286,
                    "duration": 0.369571999999998
                },
                {
                    "name": "C4",
                    "midi": 60,
                    "time": 34.37019600000004,
                    "velocity": 0.4881889763779528,
                    "duration": 0.9239299999999986
                },
                {
                    "name": "D4",
                    "midi": 62,
                    "time": 35.29412600000004,
                    "velocity": 0.4645669291338583,
                    "duration": 0.18478600000000256
                },
                {
                    "name": "G3",
                    "midi": 55,
                    "time": 35.478912000000044,
                    "velocity": 0.36220472440944884,
                    "duration": 0.369571999999998
                },
                {
                    "name": "C2",
                    "midi": 36,
                    "time": 35.478912000000044,
                    "velocity": 0.36220472440944884,
                    "duration": 0.369571999999998
                },
                {
                    "name": "E4",
                    "midi": 64,
                    "time": 35.478912000000044,
                    "velocity": 0.49606299212598426,
                    "duration": 1.1087160000000011
                },
                {
                    "name": "E4",
                    "midi": 64,
                    "time": 36.587628000000045,
                    "velocity": 0.49606299212598426,
                    "duration": 1.1087160000000011
                },
                {
                    "name": "A2",
                    "midi": 45,
                    "time": 37.603951000000045,
                    "velocity": 0.3228346456692913,
                    "duration": 0.4619649999999993
                },
                {
                    "name": "E3",
                    "midi": 52,
                    "time": 37.650147500000045,
                    "velocity": 0.33070866141732286,
                    "duration": 0.41576849999999865
                },
                {
                    "name": "C4",
                    "midi": 60,
                    "time": 37.696344000000046,
                    "velocity": 0.33070866141732286,
                    "duration": 0.369571999999998
                },
                {
                    "name": "E4",
                    "midi": 64,
                    "time": 37.696344000000046,
                    "velocity": 0.36220472440944884,
                    "duration": 1.1087160000000011
                },
                {
                    "name": "E4",
                    "midi": 64,
                    "time": 38.80506000000005,
                    "velocity": 0.41732283464566927,
                    "duration": 1.1087160000000011
                },
                {
                    "name": "E2",
                    "midi": 40,
                    "time": 39.82138300000005,
                    "velocity": 0.25984251968503935,
                    "duration": 0.4619649999999993
                },
                {
                    "name": "B2",
                    "midi": 47,
                    "time": 39.86757950000005,
                    "velocity": 0.29133858267716534,
                    "duration": 0.41576849999999865
                },
                {
                    "name": "G#3",
                    "midi": 56,
                    "time": 39.91377600000005,
                    "velocity": 0.33070866141732286,
                    "duration": 0.369571999999998
                },
                {
                    "name": "E4",
                    "midi": 64,
                    "time": 39.91377600000005,
                    "velocity": 0.33070866141732286,
                    "duration": 1.1087160000000011
                },
                {
                    "name": "B3",
                    "midi": 59,
                    "time": 41.02249200000005,
                    "velocity": 0.30708661417322836,
                    "duration": 1.1087160000000011
                },
                {
                    "name": "E2",
                    "midi": 40,
                    "time": 42.08501150000005,
                    "velocity": 0.25984251968503935,
                    "duration": 0.41576849999999865
                },
                {
                    "name": "G#3",
                    "midi": 56,
                    "time": 42.13120800000005,
                    "velocity": 0.33070866141732286,
                    "duration": 0.369571999999998
                },
                {
                    "name": "C#4",
                    "midi": 61,
                    "time": 42.13120800000005,
                    "velocity": 0.33070866141732286,
                    "duration": 1.1087160000000011
                },
                {
                    "name": "C#4",
                    "midi": 61,
                    "time": 43.23992400000005,
                    "velocity": 0.3464566929133858,
                    "duration": 0.18324611666666613
                },
                {
                    "name": "G#3",
                    "midi": 56,
                    "time": 43.97906800000005,
                    "velocity": 0.28346456692913385,
                    "duration": 0.369571999999998
                },
                {
                    "name": "D#2",
                    "midi": 39,
                    "time": 44.302443500000045,
                    "velocity": 0.31496062992125984,
                    "duration": 0.41576849999999865
                },
                {
                    "name": "G3",
                    "midi": 55,
                    "time": 44.348640000000046,
                    "velocity": 0.3228346456692913,
                    "duration": 0.369571999999998
                },
                {
                    "name": "A#3",
                    "midi": 58,
                    "time": 44.348640000000046,
                    "velocity": 0.3543307086614173,
                    "duration": 1.1087160000000011
                },
                {
                    "name": "E2",
                    "midi": 40,
                    "time": 45.45735600000005,
                    "velocity": 0.3464566929133858,
                    "duration": 0.369571999999998
                },
                {
                    "name": "G#3",
                    "midi": 56,
                    "time": 45.45735600000005,
                    "velocity": 0.3464566929133858,
                    "duration": 0.369571999999998
                },
                {
                    "name": "C#4",
                    "midi": 61,
                    "time": 45.45735600000005,
                    "velocity": 0.3779527559055118,
                    "duration": 0.739143999999996
                },
                {
                    "name": "B3",
                    "midi": 59,
                    "time": 46.19650000000004,
                    "velocity": 0.33070866141732286,
                    "duration": 0.369571999999998
                },
                {
                    "name": "D#2",
                    "midi": 39,
                    "time": 46.56607200000004,
                    "velocity": 0.29133858267716534,
                    "duration": 0.369571999999998
                },
                {
                    "name": "G3",
                    "midi": 55,
                    "time": 46.56607200000004,
                    "velocity": 0.29133858267716534,
                    "duration": 0.369571999999998
                },
                {
                    "name": "A#3",
                    "midi": 58,
                    "time": 46.56607200000004,
                    "velocity": 0.36220472440944884,
                    "duration": 0.369571999999998
                },
                {
                    "name": "A3",
                    "midi": 57,
                    "time": 46.93564400000004,
                    "velocity": 0.33070866141732286,
                    "duration": 0.369571999999998
                },
                {
                    "name": "A#3",
                    "midi": 58,
                    "time": 47.30521600000004,
                    "velocity": 0.33858267716535434,
                    "duration": 0.369571999999998
                },
                {
                    "name": "E2",
                    "midi": 40,
                    "time": 47.628591500000034,
                    "velocity": 0.33858267716535434,
                    "duration": 0.41576849999999865
                },
                {
                    "name": "G#3",
                    "midi": 56,
                    "time": 47.674788000000035,
                    "velocity": 0.4094488188976378,
                    "duration": 0.369571999999998
                },
                {
                    "name": "C#4",
                    "midi": 61,
                    "time": 47.674788000000035,
                    "velocity": 0.4094488188976378,
                    "duration": 0.739143999999996
                },
                {
                    "name": "B3",
                    "midi": 59,
                    "time": 48.41393200000003,
                    "velocity": 0.3543307086614173,
                    "duration": 0.369571999999998
                },
                {
                    "name": "D#2",
                    "midi": 39,
                    "time": 48.78350400000003,
                    "velocity": 0.28346456692913385,
                    "duration": 0.369571999999998
                },
                {
                    "name": "G3",
                    "midi": 55,
                    "time": 48.78350400000003,
                    "velocity": 0.28346456692913385,
                    "duration": 0.369571999999998
                },
                {
                    "name": "A#3",
                    "midi": 58,
                    "time": 48.78350400000003,
                    "velocity": 0.36220472440944884,
                    "duration": 0.369571999999998
                },
                {
                    "name": "A3",
                    "midi": 57,
                    "time": 49.15307600000003,
                    "velocity": 0.30708661417322836,
                    "duration": 0.369571999999998
                },
                {
                    "name": "A#3",
                    "midi": 58,
                    "time": 49.522648000000025,
                    "velocity": 0.3228346456692913,
                    "duration": 0.369571999999998
                },
                {
                    "name": "C#2",
                    "midi": 37,
                    "time": 49.89222000000002,
                    "velocity": 0.33070866141732286,
                    "duration": 0.369571999999998
                },
                {
                    "name": "C#3",
                    "midi": 49,
                    "time": 49.89222000000002,
                    "velocity": 0.33070866141732286,
                    "duration": 0.369571999999998
                },
                {
                    "name": "E4",
                    "midi": 64,
                    "time": 49.89222000000002,
                    "velocity": 0.3543307086614173,
                    "duration": 0.739143999999996
                },
                {
                    "name": "G#3",
                    "midi": 56,
                    "time": 50.26179200000002,
                    "velocity": 0.3228346456692913,
                    "duration": 0.369571999999998
                },
                {
                    "name": "A#3",
                    "midi": 58,
                    "time": 50.63136400000002,
                    "velocity": 0.33858267716535434,
                    "duration": 0.369571999999998
                },
                {
                    "name": "E4",
                    "midi": 64,
                    "time": 51.00093600000002,
                    "velocity": 0.4015748031496063,
                    "duration": 0.369571999999998
                },
                {
                    "name": "D#4",
                    "midi": 63,
                    "time": 51.370508000000015,
                    "velocity": 0.3228346456692913,
                    "duration": 0.369571999999998
                },
                {
                    "name": "C#4",
                    "midi": 61,
                    "time": 51.74008000000001,
                    "velocity": 0.31496062992125984,
                    "duration": 0.369571999999998
                },
                {
                    "name": "B3",
                    "midi": 59,
                    "time": 52.10965200000001,
                    "velocity": 0.30708661417322836,
                    "duration": 0.369571999999998
                },
                {
                    "name": "A#3",
                    "midi": 58,
                    "time": 52.47922400000001,
                    "velocity": 0.29133858267716534,
                    "duration": 0.369571999999998
                },
                {
                    "name": "G#3",
                    "midi": 56,
                    "time": 52.84879600000001,
                    "velocity": 0.28346456692913385,
                    "duration": 0.369571999999998
                },
                {
                    "name": "G3",
                    "midi": 55,
                    "time": 53.218368000000005,
                    "velocity": 0.2755905511811024,
                    "duration": 0.369571999999998
                },
                {
                    "name": "D#2",
                    "midi": 39,
                    "time": 54.327084000000006,
                    "velocity": 0.29133858267716534,
                    "duration": 0.18478600000000256
                },
                {
                    "name": "A#2",
                    "midi": 46,
                    "time": 54.51187000000001,
                    "velocity": 0.25984251968503935,
                    "duration": 0.18478600000000256
                },
                {
                    "name": "C#3",
                    "midi": 49,
                    "time": 54.69665600000001,
                    "velocity": 0.29133858267716534,
                    "duration": 0.18478600000000256
                },
                {
                    "name": "G3",
                    "midi": 55,
                    "time": 54.881442000000014,
                    "velocity": 0.25984251968503935,
                    "duration": 0.18478600000000256
                },
                {
                    "name": "A#3",
                    "midi": 58,
                    "time": 55.06622800000002,
                    "velocity": 0.29133858267716534,
                    "duration": 0.18478600000000256
                },
                {
                    "name": "C#4",
                    "midi": 61,
                    "time": 55.25101400000002,
                    "velocity": 0.25196850393700787,
                    "duration": 0.18478600000000256
                },
                {
                    "name": "E4",
                    "midi": 64,
                    "time": 55.43580000000002,
                    "velocity": 0.29133858267716534,
                    "duration": 0.18478600000000256
                },
                {
                    "name": "D#4",
                    "midi": 63,
                    "time": 55.620586000000024,
                    "velocity": 0.2677165354330709,
                    "duration": 0.18478600000000256
                },
                {
                    "name": "E4",
                    "midi": 64,
                    "time": 55.99015800000003,
                    "velocity": 0.25984251968503935,
                    "duration": 0.09239300000000128
                },
                {
                    "name": "D#4",
                    "midi": 63,
                    "time": 56.08255100000003,
                    "velocity": 0.2755905511811024,
                    "duration": 0.09239300000000128
                },
                {
                    "name": "G#4",
                    "midi": 68,
                    "time": 56.17494400000003,
                    "velocity": 0.28346456692913385,
                    "duration": 0.09239300000000128
                },
                {
                    "name": "G4",
                    "midi": 67,
                    "time": 56.26733700000003,
                    "velocity": 0.29133858267716534,
                    "duration": 0.09239300000000128
                },
                {
                    "name": "C#5",
                    "midi": 73,
                    "time": 56.359730000000035,
                    "velocity": 0.2992125984251969,
                    "duration": 0.09239300000000128
                },
                {
                    "name": "A#4",
                    "midi": 70,
                    "time": 56.452123000000036,
                    "velocity": 0.31496062992125984,
                    "duration": 0.09239300000000128
                },
                {
                    "name": "E5",
                    "midi": 76,
                    "time": 56.54451600000004,
                    "velocity": 0.3228346456692913,
                    "duration": 0.09239300000000128
                },
                {
                    "name": "D#5",
                    "midi": 75,
                    "time": 56.63690900000004,
                    "velocity": 0.33070866141732286,
                    "duration": 0.09239300000000128
                },
                {
                    "name": "G#5",
                    "midi": 80,
                    "time": 56.72930200000004,
                    "velocity": 0.33858267716535434,
                    "duration": 0.09239300000000128
                },
                {
                    "name": "G5",
                    "midi": 79,
                    "time": 56.82169500000004,
                    "velocity": 0.3543307086614173,
                    "duration": 0.09239300000000128
                },
                {
                    "name": "C#6",
                    "midi": 85,
                    "time": 56.91408800000004,
                    "velocity": 0.36220472440944884,
                    "duration": 0.09239300000000128
                },
                {
                    "name": "A#5",
                    "midi": 82,
                    "time": 57.00648100000004,
                    "velocity": 0.3700787401574803,
                    "duration": 0.09239300000000128
                },
                {
                    "name": "E6",
                    "midi": 88,
                    "time": 57.098874000000045,
                    "velocity": 0.3779527559055118,
                    "duration": 0.09239300000000128
                },
                {
                    "name": "D#6",
                    "midi": 87,
                    "time": 57.191267000000046,
                    "velocity": 0.3937007874015748,
                    "duration": 0.09239300000000128
                },
                {
                    "name": "G#6",
                    "midi": 92,
                    "time": 57.28366000000005,
                    "velocity": 0.4015748031496063,
                    "duration": 0.09239300000000128
                },
                {
                    "name": "G6",
                    "midi": 91,
                    "time": 57.37605300000005,
                    "velocity": 0.4094488188976378,
                    "duration": 0.09239300000000128
                },
                {
                    "name": "G#6",
                    "midi": 92,
                    "time": 57.46844600000005,
                    "velocity": 0.4015748031496063,
                    "duration": 0.09239300000000128
                },
                {
                    "name": "G6",
                    "midi": 91,
                    "time": 57.56083900000005,
                    "velocity": 0.3937007874015748,
                    "duration": 0.09239300000000128
                },
                {
                    "name": "E6",
                    "midi": 88,
                    "time": 57.65323200000005,
                    "velocity": 0.3858267716535433,
                    "duration": 0.09239300000000128
                },
                {
                    "name": "D#6",
                    "midi": 87,
                    "time": 57.745625000000054,
                    "velocity": 0.3779527559055118,
                    "duration": 0.09239300000000128
                },
                {
                    "name": "C#6",
                    "midi": 85,
                    "time": 57.838018000000055,
                    "velocity": 0.36220472440944884,
                    "duration": 0.09239300000000128
                },
                {
                    "name": "A#5",
                    "midi": 82,
                    "time": 57.930411000000056,
                    "velocity": 0.3543307086614173,
                    "duration": 0.09239300000000128
                },
                {
                    "name": "C#6",
                    "midi": 85,
                    "time": 58.02280400000006,
                    "velocity": 0.3464566929133858,
                    "duration": 0.09239300000000128
                },
                {
                    "name": "A#5",
                    "midi": 82,
                    "time": 58.11519700000006,
                    "velocity": 0.33858267716535434,
                    "duration": 0.09239300000000128
                },
                {
                    "name": "G#5",
                    "midi": 80,
                    "time": 58.20759000000006,
                    "velocity": 0.33070866141732286,
                    "duration": 0.09239300000000128
                },
                {
                    "name": "G5",
                    "midi": 79,
                    "time": 58.29998300000006,
                    "velocity": 0.3228346456692913,
                    "duration": 0.09239300000000128
                },
                {
                    "name": "E5",
                    "midi": 76,
                    "time": 58.39237600000006,
                    "velocity": 0.31496062992125984,
                    "duration": 0.09239300000000128
                },
                {
                    "name": "D#5",
                    "midi": 75,
                    "time": 58.484769000000064,
                    "velocity": 0.30708661417322836,
                    "duration": 0.09239300000000128
                },
                {
                    "name": "E5",
                    "midi": 76,
                    "time": 58.577162000000065,
                    "velocity": 0.2992125984251969,
                    "duration": 0.09239300000000128
                },
                {
                    "name": "D#5",
                    "midi": 75,
                    "time": 58.66955500000007,
                    "velocity": 0.29133858267716534,
                    "duration": 0.09239300000000128
                },
                {
                    "name": "C#5",
                    "midi": 73,
                    "time": 58.76194800000007,
                    "velocity": 0.28346456692913385,
                    "duration": 0.09239300000000128
                },
                {
                    "name": "A#4",
                    "midi": 70,
                    "time": 58.85434100000007,
                    "velocity": 0.2755905511811024,
                    "duration": 0.09239300000000128
                },
                {
                    "name": "G#4",
                    "midi": 68,
                    "time": 58.94673400000007,
                    "velocity": 0.25984251968503935,
                    "duration": 0.09239300000000128
                },
                {
                    "name": "G4",
                    "midi": 67,
                    "time": 59.03912700000007,
                    "velocity": 0.2440944881889764,
                    "duration": 0.09239300000000128
                },
                {
                    "name": "G#4",
                    "midi": 68,
                    "time": 59.13152000000007,
                    "velocity": 0.25984251968503935,
                    "duration": 0.09239300000000128
                },
                {
                    "name": "G4",
                    "midi": 67,
                    "time": 59.223913000000074,
                    "velocity": 0.2440944881889764,
                    "duration": 0.09239300000000128
                },
                {
                    "name": "E4",
                    "midi": 64,
                    "time": 59.316306000000075,
                    "velocity": 0.25984251968503935,
                    "duration": 0.09239300000000128
                },
                {
                    "name": "D#4",
                    "midi": 63,
                    "time": 59.40869900000008,
                    "velocity": 0.2440944881889764,
                    "duration": 0.09239300000000128
                },
                {
                    "name": "E4",
                    "midi": 64,
                    "time": 59.50109200000008,
                    "velocity": 0.2283464566929134,
                    "duration": 0.09239300000000128
                },
                {
                    "name": "D#4",
                    "midi": 63,
                    "time": 59.59348500000008,
                    "velocity": 0.23622047244094488,
                    "duration": 0.09239300000000128
                },
                {
                    "name": "E4",
                    "midi": 64,
                    "time": 59.68587800000008,
                    "velocity": 0.2440944881889764,
                    "duration": 0.09239300000000128
                },
                {
                    "name": "D#4",
                    "midi": 63,
                    "time": 59.77827100000008,
                    "velocity": 0.25196850393700787,
                    "duration": 0.09239300000000128
                },
                {
                    "name": "E4",
                    "midi": 64,
                    "time": 59.87066400000008,
                    "velocity": 0.2677165354330709,
                    "duration": 0.09239300000000128
                },
                {
                    "name": "D#4",
                    "midi": 63,
                    "time": 59.963057000000084,
                    "velocity": 0.28346456692913385,
                    "duration": 0.09239300000000128
                },
                {
                    "name": "E4",
                    "midi": 64,
                    "time": 60.055450000000086,
                    "velocity": 0.2992125984251969,
                    "duration": 0.09239300000000128
                },
                {
                    "name": "D#4",
                    "midi": 63,
                    "time": 60.14784300000009,
                    "velocity": 0.30708661417322836,
                    "duration": 0.09239300000000128
                },
                {
                    "name": "E4",
                    "midi": 64,
                    "time": 60.24023600000009,
                    "velocity": 0.3228346456692913,
                    "duration": 0.09239300000000128
                },
                {
                    "name": "D#4",
                    "midi": 63,
                    "time": 60.33262900000009,
                    "velocity": 0.33858267716535434,
                    "duration": 0.09239300000000128
                },
                {
                    "name": "E4",
                    "midi": 64,
                    "time": 60.42502200000009,
                    "velocity": 0.3543307086614173,
                    "duration": 0.09239300000000128
                },
                {
                    "name": "D#4",
                    "midi": 63,
                    "time": 60.51741500000009,
                    "velocity": 0.3700787401574803,
                    "duration": 0.09239300000000128
                },
                {
                    "name": "E4",
                    "midi": 64,
                    "time": 60.60980800000009,
                    "velocity": 0.3858267716535433,
                    "duration": 0.09239300000000128
                },
                {
                    "name": "D#4",
                    "midi": 63,
                    "time": 60.702201000000095,
                    "velocity": 0.4015748031496063,
                    "duration": 0.09239300000000128
                },
                {
                    "name": "E4",
                    "midi": 64,
                    "time": 60.794594000000096,
                    "velocity": 0.3937007874015748,
                    "duration": 0.09239300000000128
                },
                {
                    "name": "D#4",
                    "midi": 63,
                    "time": 60.8869870000001,
                    "velocity": 0.3779527559055118,
                    "duration": 0.09239300000000128
                },
                {
                    "name": "E4",
                    "midi": 64,
                    "time": 60.9793800000001,
                    "velocity": 0.36220472440944884,
                    "duration": 0.09239300000000128
                },
                {
                    "name": "D#4",
                    "midi": 63,
                    "time": 61.0717730000001,
                    "velocity": 0.3543307086614173,
                    "duration": 0.09239300000000128
                },
                {
                    "name": "E4",
                    "midi": 64,
                    "time": 61.1641660000001,
                    "velocity": 0.33858267716535434,
                    "duration": 0.09239300000000128
                },
                {
                    "name": "D#4",
                    "midi": 63,
                    "time": 61.2565590000001,
                    "velocity": 0.3228346456692913,
                    "duration": 0.09239300000000128
                },
                {
                    "name": "E4",
                    "midi": 64,
                    "time": 61.348952000000104,
                    "velocity": 0.2992125984251969,
                    "duration": 0.09239300000000128
                },
                {
                    "name": "D#4",
                    "midi": 63,
                    "time": 61.441345000000105,
                    "velocity": 0.28346456692913385,
                    "duration": 0.09239300000000128
                },
                {
                    "name": "E4",
                    "midi": 64,
                    "time": 61.533738000000106,
                    "velocity": 0.25984251968503935,
                    "duration": 0.09239300000000128
                },
                {
                    "name": "D#4",
                    "midi": 63,
                    "time": 61.62613100000011,
                    "velocity": 0.23622047244094488,
                    "duration": 0.09239300000000128
                },
                {
                    "name": "B2",
                    "midi": 47,
                    "time": 62.82724000000011,
                    "velocity": 0.2755905511811024,
                    "duration": 0.3695720000000051
                },
                {
                    "name": "F#3",
                    "midi": 54,
                    "time": 63.01202600000011,
                    "velocity": 0.1732283464566929,
                    "duration": 0.18478600000000256
                },
                {
                    "name": "B3",
                    "midi": 59,
                    "time": 63.196812000000115,
                    "velocity": 0.2125984251968504,
                    "duration": 0.18478600000000256
                },
                {
                    "name": "D#4",
                    "midi": 63,
                    "time": 63.38159800000012,
                    "velocity": 0.1889763779527559,
                    "duration": 0.18478600000000256
                },
                {
                    "name": "B3",
                    "midi": 59,
                    "time": 63.56638400000012,
                    "velocity": 0.1732283464566929,
                    "duration": 0.18478600000000256
                },
                {
                    "name": "F#3",
                    "midi": 54,
                    "time": 63.75117000000012,
                    "velocity": 0.1732283464566929,
                    "duration": 0.18478600000000256
                },
                {
                    "name": "F#3",
                    "midi": 54,
                    "time": 64.12074200000012,
                    "velocity": 0.1889763779527559,
                    "duration": 0.18478600000000256
                },
                {
                    "name": "B3",
                    "midi": 59,
                    "time": 64.30552800000012,
                    "velocity": 0.2125984251968504,
                    "duration": 0.18478600000000256
                },
                {
                    "name": "D#4",
                    "midi": 63,
                    "time": 64.49031400000013,
                    "velocity": 0.1889763779527559,
                    "duration": 0.18478600000000256
                },
                {
                    "name": "B3",
                    "midi": 59,
                    "time": 64.67510000000013,
                    "velocity": 0.1889763779527559,
                    "duration": 0.18478600000000256
                },
                {
                    "name": "F#3",
                    "midi": 54,
                    "time": 64.85988600000013,
                    "velocity": 0.1889763779527559,
                    "duration": 0.18478600000000256
                },
                {
                    "name": "A#2",
                    "midi": 46,
                    "time": 65.04467200000013,
                    "velocity": 0.2755905511811024,
                    "duration": 0.3695720000000051
                },
                {
                    "name": "G3",
                    "midi": 55,
                    "time": 65.22945800000014,
                    "velocity": 0.2125984251968504,
                    "duration": 0.18478600000000256
                },
                {
                    "name": "C#4",
                    "midi": 61,
                    "time": 65.41424400000014,
                    "velocity": 0.2440944881889764,
                    "duration": 0.18478600000000256
                },
                {
                    "name": "D#4",
                    "midi": 63,
                    "time": 65.59903000000014,
                    "velocity": 0.2125984251968504,
                    "duration": 0.18478600000000256
                },
                {
                    "name": "C#4",
                    "midi": 61,
                    "time": 65.78381600000014,
                    "velocity": 0.2125984251968504,
                    "duration": 0.18478600000000256
                },
                {
                    "name": "G3",
                    "midi": 55,
                    "time": 65.96860200000015,
                    "velocity": 0.1968503937007874,
                    "duration": 0.18478600000000256
                },
                {
                    "name": "G3",
                    "midi": 55,
                    "time": 66.33817400000015,
                    "velocity": 0.2047244094488189,
                    "duration": 0.18478600000000256
                },
                {
                    "name": "C#4",
                    "midi": 61,
                    "time": 66.52296000000015,
                    "velocity": 0.2440944881889764,
                    "duration": 0.18478600000000256
                },
                {
                    "name": "D#4",
                    "midi": 63,
                    "time": 66.70774600000016,
                    "velocity": 0.2047244094488189,
                    "duration": 0.18478600000000256
                },
                {
                    "name": "C#4",
                    "midi": 61,
                    "time": 66.89253200000016,
                    "velocity": 0.2204724409448819,
                    "duration": 0.18478600000000256
                },
                {
                    "name": "G3",
                    "midi": 55,
                    "time": 67.07731800000016,
                    "velocity": 0.2204724409448819,
                    "duration": 0.18478600000000256
                },
                {
                    "name": "A2",
                    "midi": 45,
                    "time": 67.26210400000016,
                    "velocity": 0.2755905511811024,
                    "duration": 0.3695720000000051
                },
                {
                    "name": "F#3",
                    "midi": 54,
                    "time": 67.44689000000017,
                    "velocity": 0.1968503937007874,
                    "duration": 0.18478600000000256
                },
                {
                    "name": "C#4",
                    "midi": 61,
                    "time": 67.63167600000017,
                    "velocity": 0.2283464566929134,
                    "duration": 0.18478600000000256
                },
                {
                    "name": "D#4",
                    "midi": 63,
                    "time": 67.81646200000017,
                    "velocity": 0.2204724409448819,
                    "duration": 0.18478600000000256
                },
                {
                    "name": "C#4",
                    "midi": 61,
                    "time": 68.00124800000017,
                    "velocity": 0.2204724409448819,
                    "duration": 0.18478600000000256
                },
                {
                    "name": "F#3",
                    "midi": 54,
                    "time": 68.18603400000018,
                    "velocity": 0.2204724409448819,
                    "duration": 0.18478600000000256
                },
                {
                    "name": "G#2",
                    "midi": 44,
                    "time": 68.37082000000018,
                    "velocity": 0.2992125984251969,
                    "duration": 0.3695720000000051
                },
                {
                    "name": "F#3",
                    "midi": 54,
                    "time": 68.55560600000018,
                    "velocity": 0.23622047244094488,
                    "duration": 0.18478600000000256
                },
                {
                    "name": "C4",
                    "midi": 60,
                    "time": 68.74039200000018,
                    "velocity": 0.2677165354330709,
                    "duration": 0.18478600000000256
                },
                {
                    "name": "D#4",
                    "midi": 63,
                    "time": 68.92517800000019,
                    "velocity": 0.25196850393700787,
                    "duration": 0.18478600000000256
                },
                {
                    "name": "C4",
                    "midi": 60,
                    "time": 69.10996400000019,
                    "velocity": 0.25196850393700787,
                    "duration": 0.18478600000000256
                },
                {
                    "name": "F#3",
                    "midi": 54,
                    "time": 69.29475000000019,
                    "velocity": 0.25196850393700787,
                    "duration": 0.18478600000000256
                },
                {
                    "name": "C#2",
                    "midi": 37,
                    "time": 69.4795360000002,
                    "velocity": 0.2755905511811024,
                    "duration": 0.3695720000000051
                },
                {
                    "name": "F3",
                    "midi": 53,
                    "time": 69.6643220000002,
                    "velocity": 0.1968503937007874,
                    "duration": 0.18478600000000256
                },
                {
                    "name": "B3",
                    "midi": 59,
                    "time": 69.8491080000002,
                    "velocity": 0.2204724409448819,
                    "duration": 0.18478600000000256
                },
                {
                    "name": "D#4",
                    "midi": 63,
                    "time": 70.0338940000002,
                    "velocity": 0.2204724409448819,
                    "duration": 0.18478600000000256
                },
                {
                    "name": "B3",
                    "midi": 59,
                    "time": 70.2186800000002,
                    "velocity": 0.2047244094488189,
                    "duration": 0.18478600000000256
                },
                {
                    "name": "F3",
                    "midi": 53,
                    "time": 70.40346600000021,
                    "velocity": 0.2047244094488189,
                    "duration": 0.18478600000000256
                },
                {
                    "name": "C#3",
                    "midi": 49,
                    "time": 70.77303800000021,
                    "velocity": 0.15748031496062992,
                    "duration": 0.18478600000000256
                },
                {
                    "name": "F3",
                    "midi": 53,
                    "time": 70.95782400000022,
                    "velocity": 0.1889763779527559,
                    "duration": 0.18478600000000256
                },
                {
                    "name": "B3",
                    "midi": 59,
                    "time": 71.14261000000022,
                    "velocity": 0.1732283464566929,
                    "duration": 0.18478600000000256
                },
                {
                    "name": "F3",
                    "midi": 53,
                    "time": 71.32739600000022,
                    "velocity": 0.1732283464566929,
                    "duration": 0.18478600000000256
                },
                {
                    "name": "C#3",
                    "midi": 49,
                    "time": 71.51218200000022,
                    "velocity": 0.1732283464566929,
                    "duration": 0.18478600000000256
                },
                {
                    "name": "F#2",
                    "midi": 42,
                    "time": 71.69696800000023,
                    "velocity": 0.2755905511811024,
                    "duration": 0.3695720000000051
                },
                {
                    "name": "E3",
                    "midi": 52,
                    "time": 71.88175400000023,
                    "velocity": 0.1968503937007874,
                    "duration": 0.18478600000000256
                },
                {
                    "name": "F#3",
                    "midi": 54,
                    "time": 72.06654000000023,
                    "velocity": 0.2204724409448819,
                    "duration": 0.18478600000000256
                },
                {
                    "name": "C#4",
                    "midi": 61,
                    "time": 72.25132600000023,
                    "velocity": 0.2204724409448819,
                    "duration": 0.18478600000000256
                },
                {
                    "name": "F#3",
                    "midi": 54,
                    "time": 72.43611200000024,
                    "velocity": 0.2047244094488189,
                    "duration": 0.18478600000000256
                },
                {
                    "name": "E3",
                    "midi": 52,
                    "time": 72.62089800000024,
                    "velocity": 0.2125984251968504,
                    "duration": 0.18478600000000256
                },
                {
                    "name": "F#3",
                    "midi": 54,
                    "time": 72.99047000000024,
                    "velocity": 0.2440944881889764,
                    "duration": 0.18478600000000256
                },
                {
                    "name": "A#3",
                    "midi": 58,
                    "time": 73.17525600000025,
                    "velocity": 0.28346456692913385,
                    "duration": 0.18478600000000256
                },
                {
                    "name": "E4",
                    "midi": 64,
                    "time": 73.36004200000025,
                    "velocity": 0.2440944881889764,
                    "duration": 0.18478600000000256
                },
                {
                    "name": "A#3",
                    "midi": 58,
                    "time": 73.54482800000025,
                    "velocity": 0.2440944881889764,
                    "duration": 0.18478600000000256
                },
                {
                    "name": "F#3",
                    "midi": 54,
                    "time": 73.72961400000025,
                    "velocity": 0.2204724409448819,
                    "duration": 0.18478600000000256
                },
                {
                    "name": "B2",
                    "midi": 47,
                    "time": 74.09918600000026,
                    "velocity": 0.1889763779527559,
                    "duration": 0.18478600000000256
                },
                {
                    "name": "F#3",
                    "midi": 54,
                    "time": 74.28397200000026,
                    "velocity": 0.2204724409448819,
                    "duration": 0.18478600000000256
                },
                {
                    "name": "B3",
                    "midi": 59,
                    "time": 74.46875800000026,
                    "velocity": 0.2047244094488189,
                    "duration": 0.18478600000000256
                },
                {
                    "name": "F3",
                    "midi": 53,
                    "time": 74.65354400000027,
                    "velocity": 0.2204724409448819,
                    "duration": 0.18478600000000256
                },
                {
                    "name": "B3",
                    "midi": 59,
                    "time": 74.83833000000027,
                    "velocity": 0.1968503937007874,
                    "duration": 0.18478600000000256
                },
                {
                    "name": "F#3",
                    "midi": 54,
                    "time": 75.02311600000027,
                    "velocity": 0.2204724409448819,
                    "duration": 0.18478600000000256
                },
                {
                    "name": "D#4",
                    "midi": 63,
                    "time": 75.20790200000027,
                    "velocity": 0.2125984251968504,
                    "duration": 0.18478600000000256
                },
                {
                    "name": "C#4",
                    "midi": 61,
                    "time": 75.39268800000028,
                    "velocity": 0.2125984251968504,
                    "duration": 0.18478600000000256
                },
                {
                    "name": "B3",
                    "midi": 59,
                    "time": 75.57747400000028,
                    "velocity": 0.2047244094488189,
                    "duration": 0.18478600000000256
                },
                {
                    "name": "G#3",
                    "midi": 56,
                    "time": 75.76226000000028,
                    "velocity": 0.25984251968503935,
                    "duration": 0.18478600000000256
                },
                {
                    "name": "F#3",
                    "midi": 54,
                    "time": 75.94704600000028,
                    "velocity": 0.25196850393700787,
                    "duration": 0.18478600000000256
                },
                {
                    "name": "B2",
                    "midi": 47,
                    "time": 76.13183200000029,
                    "velocity": 0.4251968503937008,
                    "duration": 0.3695720000000051
                },
                {
                    "name": "F#3",
                    "midi": 54,
                    "time": 76.31661800000029,
                    "velocity": 0.2992125984251969,
                    "duration": 0.18478600000000256
                },
                {
                    "name": "B3",
                    "midi": 59,
                    "time": 76.50140400000029,
                    "velocity": 0.3543307086614173,
                    "duration": 0.18478600000000256
                },
                {
                    "name": "D#4",
                    "midi": 63,
                    "time": 76.6861900000003,
                    "velocity": 0.2992125984251969,
                    "duration": 0.18478600000000256
                },
                {
                    "name": "B3",
                    "midi": 59,
                    "time": 76.8709760000003,
                    "velocity": 0.29133858267716534,
                    "duration": 0.18478600000000256
                },
                {
                    "name": "F#3",
                    "midi": 54,
                    "time": 77.0557620000003,
                    "velocity": 0.29133858267716534,
                    "duration": 0.18478600000000256
                },
                {
                    "name": "A#2",
                    "midi": 46,
                    "time": 77.2405480000003,
                    "velocity": 0.47244094488188976,
                    "duration": 0.3695720000000051
                },
                {
                    "name": "G3",
                    "midi": 55,
                    "time": 77.4253340000003,
                    "velocity": 0.3543307086614173,
                    "duration": 0.18478600000000256
                },
                {
                    "name": "C#4",
                    "midi": 61,
                    "time": 77.61012000000031,
                    "velocity": 0.3937007874015748,
                    "duration": 0.18478600000000256
                },
                {
                    "name": "D#4",
                    "midi": 63,
                    "time": 77.79490600000031,
                    "velocity": 0.36220472440944884,
                    "duration": 0.18478600000000256
                },
                {
                    "name": "C#4",
                    "midi": 61,
                    "time": 77.97969200000031,
                    "velocity": 0.36220472440944884,
                    "duration": 0.18478600000000256
                },
                {
                    "name": "G3",
                    "midi": 55,
                    "time": 78.16447800000032,
                    "velocity": 0.36220472440944884,
                    "duration": 0.18478600000000256
                },
                {
                    "name": "A2",
                    "midi": 45,
                    "time": 78.34926400000032,
                    "velocity": 0.5354330708661418,
                    "duration": 0.3695720000000051
                },
                {
                    "name": "F#3",
                    "midi": 54,
                    "time": 78.53405000000032,
                    "velocity": 0.36220472440944884,
                    "duration": 0.18478600000000256
                },
                {
                    "name": "C4",
                    "midi": 60,
                    "time": 78.71883600000032,
                    "velocity": 0.3858267716535433,
                    "duration": 0.18478600000000256
                },
                {
                    "name": "D#4",
                    "midi": 63,
                    "time": 78.90362200000033,
                    "velocity": 0.3700787401574803,
                    "duration": 0.18478600000000256
                },
                {
                    "name": "C4",
                    "midi": 60,
                    "time": 79.08840800000033,
                    "velocity": 0.3700787401574803,
                    "duration": 0.18478600000000256
                },
                {
                    "name": "F#3",
                    "midi": 54,
                    "time": 79.27319400000033,
                    "velocity": 0.3779527559055118,
                    "duration": 0.18478600000000256
                },
                {
                    "name": "G#2",
                    "midi": 44,
                    "time": 79.45798000000033,
                    "velocity": 0.6062992125984252,
                    "duration": 0.3695720000000051
                },
                {
                    "name": "F#3",
                    "midi": 54,
                    "time": 79.64276600000034,
                    "velocity": 0.3858267716535433,
                    "duration": 0.18478600000000256
                },
                {
                    "name": "C4",
                    "midi": 60,
                    "time": 79.82755200000034,
                    "velocity": 0.4094488188976378,
                    "duration": 0.18478600000000256
                },
                {
                    "name": "D#4",
                    "midi": 63,
                    "time": 80.01233800000034,
                    "velocity": 0.3779527559055118,
                    "duration": 0.18478600000000256
                },
                {
                    "name": "C4",
                    "midi": 60,
                    "time": 80.19712400000034,
                    "velocity": 0.3779527559055118,
                    "duration": 0.18478600000000256
                },
                {
                    "name": "F#3",
                    "midi": 54,
                    "time": 80.38191000000035,
                    "velocity": 0.3779527559055118,
                    "duration": 0.18478600000000256
                },
                {
                    "name": "G2",
                    "midi": 43,
                    "time": 80.56669600000035,
                    "velocity": 0.6377952755905512,
                    "duration": 0.3695720000000051
                },
                {
                    "name": "G3",
                    "midi": 55,
                    "time": 80.75148200000035,
                    "velocity": 0.3543307086614173,
                    "duration": 0.18478600000000256
                },
                {
                    "name": "C4",
                    "midi": 60,
                    "time": 80.93626800000035,
                    "velocity": 0.4251968503937008,
                    "duration": 0.18478600000000256
                },
                {
                    "name": "E4",
                    "midi": 64,
                    "time": 81.12105400000036,
                    "velocity": 0.3779527559055118,
                    "duration": 0.18478600000000256
                },
                {
                    "name": "C4",
                    "midi": 60,
                    "time": 81.30584000000036,
                    "velocity": 0.3543307086614173,
                    "duration": 0.18478600000000256
                },
                {
                    "name": "G3",
                    "midi": 55,
                    "time": 81.49062600000036,
                    "velocity": 0.3543307086614173,
                    "duration": 0.18478600000000256
                },
                {
                    "name": "G3",
                    "midi": 55,
                    "time": 81.86019800000037,
                    "velocity": 0.3700787401574803,
                    "duration": 0.18478600000000256
                },
                {
                    "name": "C4",
                    "midi": 60,
                    "time": 82.04498400000037,
                    "velocity": 0.44881889763779526,
                    "duration": 0.18478600000000256
                },
                {
                    "name": "E4",
                    "midi": 64,
                    "time": 82.22977000000037,
                    "velocity": 0.3700787401574803,
                    "duration": 0.18478600000000256
                },
                {
                    "name": "C4",
                    "midi": 60,
                    "time": 82.41455600000037,
                    "velocity": 0.3700787401574803,
                    "duration": 0.18478600000000256
                },
                {
                    "name": "G3",
                    "midi": 55,
                    "time": 82.59934200000038,
                    "velocity": 0.3700787401574803,
                    "duration": 0.18478600000000256
                },
                {
                    "name": "G2",
                    "midi": 43,
                    "time": 82.78412800000038,
                    "velocity": 0.5905511811023622,
                    "duration": 0.3695720000000051
                },
                {
                    "name": "A3",
                    "midi": 57,
                    "time": 82.96891400000038,
                    "velocity": 0.4094488188976378,
                    "duration": 0.18478600000000256
                },
                {
                    "name": "D4",
                    "midi": 62,
                    "time": 83.15370000000038,
                    "velocity": 0.4251968503937008,
                    "duration": 0.18478600000000256
                },
                {
                    "name": "C4",
                    "midi": 60,
                    "time": 83.15370000000038,
                    "velocity": 0.4251968503937008,
                    "duration": 0.18478600000000256
                },
                {
                    "name": "F4",
                    "midi": 65,
                    "time": 83.33848600000039,
                    "velocity": 0.3779527559055118,
                    "duration": 0.18478600000000256
                },
                {
                    "name": "D4",
                    "midi": 62,
                    "time": 83.52327200000039,
                    "velocity": 0.3779527559055118,
                    "duration": 0.18478600000000256
                },
                {
                    "name": "C4",
                    "midi": 60,
                    "time": 83.52327200000039,
                    "velocity": 0.3779527559055118,
                    "duration": 0.18478600000000256
                },
                {
                    "name": "A3",
                    "midi": 57,
                    "time": 83.70805800000039,
                    "velocity": 0.3779527559055118,
                    "duration": 0.18478600000000256
                },
                {
                    "name": "G2",
                    "midi": 43,
                    "time": 85.1863460000004,
                    "velocity": 0.49606299212598426,
                    "duration": 0.18478600000000256
                },
                {
                    "name": "D3",
                    "midi": 50,
                    "time": 85.3711320000004,
                    "velocity": 0.47244094488188976,
                    "duration": 0.18478600000000256
                },
                {
                    "name": "F3",
                    "midi": 53,
                    "time": 85.3711320000004,
                    "velocity": 0.5433070866141733,
                    "duration": 0.18478600000000256
                },
                {
                    "name": "A3",
                    "midi": 57,
                    "time": 85.5559180000004,
                    "velocity": 0.4251968503937008,
                    "duration": 0.18478600000000256
                },
                {
                    "name": "D3",
                    "midi": 50,
                    "time": 85.7407040000004,
                    "velocity": 0.4330708661417323,
                    "duration": 0.18478600000000256
                },
                {
                    "name": "F3",
                    "midi": 53,
                    "time": 85.7407040000004,
                    "velocity": 0.5118110236220472,
                    "duration": 0.18478600000000256
                },
                {
                    "name": "G2",
                    "midi": 43,
                    "time": 85.92549000000041,
                    "velocity": 0.4566929133858268,
                    "duration": 0.13858949999999481
                },
                {
                    "name": "G2",
                    "midi": 43,
                    "time": 86.0640795000004,
                    "velocity": 0.5748031496062992,
                    "duration": 0.18478600000000256
                },
                {
                    "name": "F3",
                    "midi": 53,
                    "time": 86.0756286250004,
                    "velocity": 0.5748031496062992,
                    "duration": 0.17323687500000062
                },
                {
                    "name": "B3",
                    "midi": 59,
                    "time": 86.08717775000041,
                    "velocity": 0.5826771653543307,
                    "duration": 0.1616877499999987
                },
                {
                    "name": "C2",
                    "midi": 36,
                    "time": 87.21899200000041,
                    "velocity": 0.4881889763779528,
                    "duration": 0.3695720000000051
                },
                {
                    "name": "E3",
                    "midi": 52,
                    "time": 87.21899200000041,
                    "velocity": 0.4881889763779528,
                    "duration": 0.3695720000000051
                },
                {
                    "name": "C5",
                    "midi": 72,
                    "time": 87.58856400000042,
                    "velocity": 0.5748031496062992,
                    "duration": 0.18478600000000256
                },
                {
                    "name": "E4",
                    "midi": 64,
                    "time": 87.77335000000042,
                    "velocity": 0.49606299212598426,
                    "duration": 0.18478600000000256
                },
                {
                    "name": "G4",
                    "midi": 67,
                    "time": 87.95813600000042,
                    "velocity": 0.5511811023622047,
                    "duration": 0.18478600000000256
                },
                {
                    "name": "C4",
                    "midi": 60,
                    "time": 88.14292200000042,
                    "velocity": 0.48031496062992124,
                    "duration": 0.18478600000000256
                },
                {
                    "name": "E4",
                    "midi": 64,
                    "time": 88.32770800000043,
                    "velocity": 0.5354330708661418,
                    "duration": 0.18478600000000256
                },
                {
                    "name": "G3",
                    "midi": 55,
                    "time": 88.51249400000043,
                    "velocity": 0.4881889763779528,
                    "duration": 0.18478600000000256
                },
                {
                    "name": "C4",
                    "midi": 60,
                    "time": 88.69728000000043,
                    "velocity": 0.5511811023622047,
                    "duration": 0.18478600000000256
                },
                {
                    "name": "E3",
                    "midi": 52,
                    "time": 88.88206600000044,
                    "velocity": 0.47244094488188976,
                    "duration": 0.18478600000000256
                },
                {
                    "name": "G3",
                    "midi": 55,
                    "time": 89.06685200000044,
                    "velocity": 0.5354330708661418,
                    "duration": 0.18478600000000256
                },
                {
                    "name": "C3",
                    "midi": 48,
                    "time": 89.25163800000044,
                    "velocity": 0.48031496062992124,
                    "duration": 0.18478600000000256
                },
                {
                    "name": "F2",
                    "midi": 41,
                    "time": 89.43642400000044,
                    "velocity": 0.5433070866141733,
                    "duration": 0.18478600000000256
                },
                {
                    "name": "F3",
                    "midi": 53,
                    "time": 89.43642400000044,
                    "velocity": 0.5433070866141733,
                    "duration": 0.18478600000000256
                },
                {
                    "name": "G#4",
                    "midi": 68,
                    "time": 89.80599600000045,
                    "velocity": 0.5354330708661418,
                    "duration": 0.18478600000000256
                },
                {
                    "name": "C4",
                    "midi": 60,
                    "time": 89.99078200000045,
                    "velocity": 0.48031496062992124,
                    "duration": 0.18478600000000256
                },
                {
                    "name": "F4",
                    "midi": 65,
                    "time": 90.17556800000045,
                    "velocity": 0.5275590551181102,
                    "duration": 0.18478600000000256
                },
                {
                    "name": "G#3",
                    "midi": 56,
                    "time": 90.36035400000046,
                    "velocity": 0.48031496062992124,
                    "duration": 0.18478600000000256
                },
                {
                    "name": "C4",
                    "midi": 60,
                    "time": 90.54514000000046,
                    "velocity": 0.5196850393700787,
                    "duration": 0.18478600000000256
                },
                {
                    "name": "F3",
                    "midi": 53,
                    "time": 90.72992600000046,
                    "velocity": 0.48031496062992124,
                    "duration": 0.18478600000000256
                },
                {
                    "name": "G#3",
                    "midi": 56,
                    "time": 90.91471200000046,
                    "velocity": 0.5196850393700787,
                    "duration": 0.18478600000000256
                },
                {
                    "name": "C3",
                    "midi": 48,
                    "time": 91.09949800000047,
                    "velocity": 0.48031496062992124,
                    "duration": 0.18478600000000256
                },
                {
                    "name": "F3",
                    "midi": 53,
                    "time": 91.28428400000047,
                    "velocity": 0.5275590551181102,
                    "duration": 0.18478600000000256
                },
                {
                    "name": "G#2",
                    "midi": 44,
                    "time": 91.46907000000047,
                    "velocity": 0.48031496062992124,
                    "duration": 0.18478600000000256
                },
                {
                    "name": "C2",
                    "midi": 36,
                    "time": 91.65385600000047,
                    "velocity": 0.4881889763779528,
                    "duration": 0.3695720000000051
                },
                {
                    "name": "C3",
                    "midi": 48,
                    "time": 91.65385600000047,
                    "velocity": 0.4881889763779528,
                    "duration": 0.3695720000000051
                },
                {
                    "name": "C5",
                    "midi": 72,
                    "time": 92.02342800000048,
                    "velocity": 0.5748031496062992,
                    "duration": 0.18478600000000256
                },
                {
                    "name": "E4",
                    "midi": 64,
                    "time": 92.20821400000048,
                    "velocity": 0.49606299212598426,
                    "duration": 0.18478600000000256
                },
                {
                    "name": "G4",
                    "midi": 67,
                    "time": 92.39300000000048,
                    "velocity": 0.5511811023622047,
                    "duration": 0.18478600000000256
                },
                {
                    "name": "C4",
                    "midi": 60,
                    "time": 92.57778600000049,
                    "velocity": 0.48031496062992124,
                    "duration": 0.18478600000000256
                },
                {
                    "name": "E4",
                    "midi": 64,
                    "time": 92.76257200000049,
                    "velocity": 0.5354330708661418,
                    "duration": 0.18478600000000256
                },
                {
                    "name": "G3",
                    "midi": 55,
                    "time": 92.94735800000049,
                    "velocity": 0.4881889763779528,
                    "duration": 0.18478600000000256
                },
                {
                    "name": "C4",
                    "midi": 60,
                    "time": 93.1321440000005,
                    "velocity": 0.5511811023622047,
                    "duration": 0.18478600000000256
                },
                {
                    "name": "E3",
                    "midi": 52,
                    "time": 93.3169300000005,
                    "velocity": 0.47244094488188976,
                    "duration": 0.18478600000000256
                },
                {
                    "name": "G3",
                    "midi": 55,
                    "time": 93.5017160000005,
                    "velocity": 0.5354330708661418,
                    "duration": 0.18478600000000256
                },
                {
                    "name": "C3",
                    "midi": 48,
                    "time": 93.6865020000005,
                    "velocity": 0.48031496062992124,
                    "duration": 0.18478600000000256
                },
                {
                    "name": "A1",
                    "midi": 33,
                    "time": 93.8712880000005,
                    "velocity": 0.5433070866141733,
                    "duration": 0.18478600000000256
                },
                {
                    "name": "A2",
                    "midi": 45,
                    "time": 93.8712880000005,
                    "velocity": 0.5433070866141733,
                    "duration": 0.18478600000000256
                },
                {
                    "name": "C5",
                    "midi": 72,
                    "time": 94.24086000000051,
                    "velocity": 0.5354330708661418,
                    "duration": 0.18478600000000256
                },
                {
                    "name": "E4",
                    "midi": 64,
                    "time": 94.42564600000051,
                    "velocity": 0.48031496062992124,
                    "duration": 0.18478600000000256
                },
                {
                    "name": "A4",
                    "midi": 69,
                    "time": 94.61043200000051,
                    "velocity": 0.5275590551181102,
                    "duration": 0.18478600000000256
                },
                {
                    "name": "C4",
                    "midi": 60,
                    "time": 94.79521800000052,
                    "velocity": 0.48031496062992124,
                    "duration": 0.18478600000000256
                },
                {
                    "name": "E4",
                    "midi": 64,
                    "time": 94.98000400000052,
                    "velocity": 0.5669291338582677,
                    "duration": 0.18478600000000256
                },
                {
                    "name": "A3",
                    "midi": 57,
                    "time": 95.16479000000052,
                    "velocity": 0.5196850393700787,
                    "duration": 0.18478600000000256
                },
                {
                    "name": "C4",
                    "midi": 60,
                    "time": 95.34957600000052,
                    "velocity": 0.5748031496062992,
                    "duration": 0.18478600000000256
                },
                {
                    "name": "E3",
                    "midi": 52,
                    "time": 95.53436200000053,
                    "velocity": 0.5354330708661418,
                    "duration": 0.18478600000000256
                },
                {
                    "name": "A3",
                    "midi": 57,
                    "time": 95.71914800000053,
                    "velocity": 0.6062992125984252,
                    "duration": 0.18478600000000256
                },
                {
                    "name": "C3",
                    "midi": 48,
                    "time": 95.90393400000053,
                    "velocity": 0.5590551181102362,
                    "duration": 0.18478600000000256
                },
                {
                    "name": "E2",
                    "midi": 40,
                    "time": 96.08872000000054,
                    "velocity": 0.5511811023622047,
                    "duration": 1.1087159999999585
                },
                {
                    "name": "E3",
                    "midi": 52,
                    "time": 96.08872000000054,
                    "velocity": 0.6299212598425197,
                    "duration": 1.1087159999999585
                },
                {
                    "name": "B3",
                    "midi": 59,
                    "time": 96.27350600000054,
                    "velocity": 0.44881889763779526,
                    "duration": 0.20326459999999713
                },
                {
                    "name": "G#3",
                    "midi": 56,
                    "time": 96.45829200000054,
                    "velocity": 0.4566929133858268,
                    "duration": 0.20326459999998292
                },
                {
                    "name": "E4",
                    "midi": 64,
                    "time": 96.64307800000053,
                    "velocity": 0.44881889763779526,
                    "duration": 0.20326459999998292
                },
                {
                    "name": "B3",
                    "midi": 59,
                    "time": 96.82786400000052,
                    "velocity": 0.41732283464566927,
                    "duration": 0.20326459999998292
                },
                {
                    "name": "G#3",
                    "midi": 56,
                    "time": 97.0126500000005,
                    "velocity": 0.41732283464566927,
                    "duration": 0.18478599999998835
                },
                {
                    "name": "E2",
                    "midi": 40,
                    "time": 97.1974360000005,
                    "velocity": 0.5511811023622047,
                    "duration": 1.1087159999999585
                },
                {
                    "name": "E3",
                    "midi": 52,
                    "time": 97.1974360000005,
                    "velocity": 0.6299212598425197,
                    "duration": 1.1087159999999585
                },
                {
                    "name": "B3",
                    "midi": 59,
                    "time": 97.3822220000005,
                    "velocity": 0.44881889763779526,
                    "duration": 0.20326459999999713
                },
                {
                    "name": "G#3",
                    "midi": 56,
                    "time": 97.5670080000005,
                    "velocity": 0.4881889763779528,
                    "duration": 0.20326459999998292
                },
                {
                    "name": "E4",
                    "midi": 64,
                    "time": 97.75179400000049,
                    "velocity": 0.4645669291338583,
                    "duration": 0.20326459999998292
                },
                {
                    "name": "B3",
                    "midi": 59,
                    "time": 97.93658000000048,
                    "velocity": 0.4645669291338583,
                    "duration": 0.20326459999998292
                },
                {
                    "name": "G#3",
                    "midi": 56,
                    "time": 98.12136600000046,
                    "velocity": 0.4881889763779528,
                    "duration": 0.18478599999998835
                },
                {
                    "name": "D#2",
                    "midi": 39,
                    "time": 98.30615200000045,
                    "velocity": 0.5511811023622047,
                    "duration": 1.1087159999999585
                },
                {
                    "name": "D#3",
                    "midi": 51,
                    "time": 98.30615200000045,
                    "velocity": 0.6299212598425197,
                    "duration": 1.1087159999999585
                },
                {
                    "name": "C4",
                    "midi": 60,
                    "time": 98.49093800000045,
                    "velocity": 0.48031496062992124,
                    "duration": 0.20326459999999713
                },
                {
                    "name": "G#3",
                    "midi": 56,
                    "time": 98.67572400000046,
                    "velocity": 0.5118110236220472,
                    "duration": 0.20326459999998292
                },
                {
                    "name": "F#4",
                    "midi": 66,
                    "time": 98.86051000000045,
                    "velocity": 0.48031496062992124,
                    "duration": 0.20326459999998292
                },
                {
                    "name": "C4",
                    "midi": 60,
                    "time": 99.04529600000043,
                    "velocity": 0.4645669291338583,
                    "duration": 0.20326459999998292
                },
                {
                    "name": "G#3",
                    "midi": 56,
                    "time": 99.23008200000042,
                    "velocity": 0.5118110236220472,
                    "duration": 0.18478599999998835
                },
                {
                    "name": "D#3",
                    "midi": 51,
                    "time": 99.41486800000041,
                    "velocity": 0.5748031496062992,
                    "duration": 0.20326459999999713
                },
                {
                    "name": "C4",
                    "midi": 60,
                    "time": 99.59965400000041,
                    "velocity": 0.48031496062992124,
                    "duration": 0.20326459999998292
                },
                {
                    "name": "G#3",
                    "midi": 56,
                    "time": 99.7844400000004,
                    "velocity": 0.5039370078740157,
                    "duration": 0.20326459999998292
                },
                {
                    "name": "F#4",
                    "midi": 66,
                    "time": 99.96922600000039,
                    "velocity": 0.4645669291338583,
                    "duration": 0.20326459999998292
                },
                {
                    "name": "C4",
                    "midi": 60,
                    "time": 100.15401200000038,
                    "velocity": 0.5039370078740157,
                    "duration": 0.20326459999998292
                },
                {
                    "name": "G#3",
                    "midi": 56,
                    "time": 100.33879800000037,
                    "velocity": 0.5275590551181102,
                    "duration": 0.18478599999998835
                },
                {
                    "name": "D2",
                    "midi": 38,
                    "time": 100.52358400000035,
                    "velocity": 0.5511811023622047,
                    "duration": 1.1087159999999585
                },
                {
                    "name": "D3",
                    "midi": 50,
                    "time": 100.52358400000035,
                    "velocity": 0.6299212598425197,
                    "duration": 1.1087159999999585
                },
                {
                    "name": "B3",
                    "midi": 59,
                    "time": 100.70837000000036,
                    "velocity": 0.47244094488188976,
                    "duration": 0.20326459999999713
                },
                {
                    "name": "G#3",
                    "midi": 56,
                    "time": 100.89315600000036,
                    "velocity": 0.4881889763779528,
                    "duration": 0.20326459999998292
                },
                {
                    "name": "F#4",
                    "midi": 66,
                    "time": 101.07794200000035,
                    "velocity": 0.48031496062992124,
                    "duration": 0.20326459999998292
                },
                {
                    "name": "B3",
                    "midi": 59,
                    "time": 101.26272800000034,
                    "velocity": 0.44881889763779526,
                    "duration": 0.20326459999998292
                },
                {
                    "name": "G#3",
                    "midi": 56,
                    "time": 101.44751400000033,
                    "velocity": 0.5196850393700787,
                    "duration": 0.18478599999998835
                },
                {
                    "name": "C#2",
                    "midi": 37,
                    "time": 101.63230000000031,
                    "velocity": 0.5511811023622047,
                    "duration": 1.1087159999999585
                },
                {
                    "name": "C#3",
                    "midi": 49,
                    "time": 101.63230000000031,
                    "velocity": 0.6299212598425197,
                    "duration": 1.1087159999999585
                },
                {
                    "name": "B3",
                    "midi": 59,
                    "time": 101.81708600000032,
                    "velocity": 0.48031496062992124,
                    "duration": 0.20326459999999713
                },
                {
                    "name": "G#3",
                    "midi": 56,
                    "time": 102.00187200000032,
                    "velocity": 0.5118110236220472,
                    "duration": 0.20326459999998292
                },
                {
                    "name": "F4",
                    "midi": 65,
                    "time": 102.1866580000003,
                    "velocity": 0.4881889763779528,
                    "duration": 0.20326459999998292
                },
                {
                    "name": "B3",
                    "midi": 59,
                    "time": 102.3714440000003,
                    "velocity": 0.4645669291338583,
                    "duration": 0.20326459999998292
                },
                {
                    "name": "G#3",
                    "midi": 56,
                    "time": 102.55623000000028,
                    "velocity": 0.5275590551181102,
                    "duration": 0.18478599999998835
                },
                {
                    "name": "F#2",
                    "midi": 42,
                    "time": 102.74101600000027,
                    "velocity": 0.6299212598425197,
                    "duration": 0.18478600000000256
                },
                {
                    "name": "E3",
                    "midi": 52,
                    "time": 102.92580200000027,
                    "velocity": 0.49606299212598426,
                    "duration": 0.18478600000000256
                },
                {
                    "name": "A#3",
                    "midi": 58,
                    "time": 103.11058800000028,
                    "velocity": 0.5118110236220472,
                    "duration": 0.13858949999999481
                },
                {
                    "name": "A#3",
                    "midi": 58,
                    "time": 103.29537400000027,
                    "velocity": 0.5275590551181102,
                    "duration": 0.18478600000000256
                },
                {
                    "name": "E4",
                    "midi": 64,
                    "time": 103.48016000000027,
                    "velocity": 0.5511811023622047,
                    "duration": 0.18478600000000256
                },
                {
                    "name": "G#4",
                    "midi": 68,
                    "time": 103.66494600000027,
                    "velocity": 0.5669291338582677,
                    "duration": 0.13858949999999481
                },
                {
                    "name": "G#4",
                    "midi": 68,
                    "time": 103.84973200000026,
                    "velocity": 0.6062992125984252,
                    "duration": 0.18478600000000256
                },
                {
                    "name": "E4",
                    "midi": 64,
                    "time": 104.03451800000026,
                    "velocity": 0.5433070866141733,
                    "duration": 0.18478600000000256
                },
                {
                    "name": "A#3",
                    "midi": 58,
                    "time": 104.21930400000026,
                    "velocity": 0.5590551181102362,
                    "duration": 0.13858949999999481
                },
                {
                    "name": "A#3",
                    "midi": 58,
                    "time": 104.40409000000025,
                    "velocity": 0.5039370078740157,
                    "duration": 0.18478600000000256
                },
                {
                    "name": "E3",
                    "midi": 52,
                    "time": 104.58887600000025,
                    "velocity": 0.5511811023622047,
                    "duration": 0.18478600000000256
                },
                {
                    "name": "F#2",
                    "midi": 42,
                    "time": 104.77366200000026,
                    "velocity": 0.5039370078740157,
                    "duration": 0.18478600000000256
                },
                {
                    "name": "B1",
                    "midi": 35,
                    "time": 104.95844800000026,
                    "velocity": 0.6299212598425197,
                    "duration": 0.18478600000000256
                },
                {
                    "name": "B2",
                    "midi": 47,
                    "time": 105.14323400000026,
                    "velocity": 0.49606299212598426,
                    "duration": 0.18478600000000256
                },
                {
                    "name": "F#3",
                    "midi": 54,
                    "time": 105.32802000000027,
                    "velocity": 0.5118110236220472,
                    "duration": 0.18478600000000256
                },
                {
                    "name": "A3",
                    "midi": 57,
                    "time": 105.51280600000027,
                    "velocity": 0.5275590551181102,
                    "duration": 0.18478600000000256
                },
                {
                    "name": "C#4",
                    "midi": 61,
                    "time": 105.69759200000027,
                    "velocity": 0.5511811023622047,
                    "duration": 0.18478600000000256
                },
                {
                    "name": "E4",
                    "midi": 64,
                    "time": 105.88237800000027,
                    "velocity": 0.5669291338582677,
                    "duration": 0.18478600000000256
                },
                {
                    "name": "G#4",
                    "midi": 68,
                    "time": 106.06716400000028,
                    "velocity": 0.6062992125984252,
                    "duration": 0.18478600000000256
                },
                {
                    "name": "D#4",
                    "midi": 63,
                    "time": 106.25195000000028,
                    "velocity": 0.5433070866141733,
                    "duration": 0.18478600000000256
                },
                {
                    "name": "B3",
                    "midi": 59,
                    "time": 106.43673600000028,
                    "velocity": 0.5590551181102362,
                    "duration": 0.18478600000000256
                },
                {
                    "name": "A3",
                    "midi": 57,
                    "time": 106.62152200000028,
                    "velocity": 0.5039370078740157,
                    "duration": 0.18478600000000256
                },
                {
                    "name": "D#3",
                    "midi": 51,
                    "time": 106.80630800000029,
                    "velocity": 0.5511811023622047,
                    "duration": 0.18478600000000256
                },
                {
                    "name": "B2",
                    "midi": 47,
                    "time": 106.99109400000029,
                    "velocity": 0.5039370078740157,
                    "duration": 0.18478600000000256
                },
                {
                    "name": "E2",
                    "midi": 40,
                    "time": 107.17588000000029,
                    "velocity": 0.6299212598425197,
                    "duration": 0.18478600000000256
                },
                {
                    "name": "B2",
                    "midi": 47,
                    "time": 107.3606660000003,
                    "velocity": 0.49606299212598426,
                    "duration": 0.18478600000000256
                },
                {
                    "name": "E3",
                    "midi": 52,
                    "time": 107.5454520000003,
                    "velocity": 0.5118110236220472,
                    "duration": 0.18478600000000256
                },
                {
                    "name": "G#3",
                    "midi": 56,
                    "time": 107.7302380000003,
                    "velocity": 0.5275590551181102,
                    "duration": 0.18478600000000256
                },
                {
                    "name": "A#3",
                    "midi": 58,
                    "time": 107.9150240000003,
                    "velocity": 0.5511811023622047,
                    "duration": 0.18478600000000256
                },
                {
                    "name": "E4",
                    "midi": 64,
                    "time": 108.0998100000003,
                    "velocity": 0.5433070866141733,
                    "duration": 0.18478600000000256
                },
                {
                    "name": "B3",
                    "midi": 59,
                    "time": 108.2845960000003,
                    "velocity": 0.6062992125984252,
                    "duration": 0.18478600000000256
                },
                {
                    "name": "G#4",
                    "midi": 68,
                    "time": 108.46938200000031,
                    "velocity": 0.5433070866141733,
                    "duration": 0.18478600000000256
                },
                {
                    "name": "E4",
                    "midi": 64,
                    "time": 108.65416800000031,
                    "velocity": 0.5590551181102362,
                    "duration": 0.18478600000000256
                },
                {
                    "name": "B3",
                    "midi": 59,
                    "time": 108.83895400000031,
                    "velocity": 0.5039370078740157,
                    "duration": 0.18478600000000256
                },
                {
                    "name": "G#3",
                    "midi": 56,
                    "time": 109.02374000000032,
                    "velocity": 0.5511811023622047,
                    "duration": 0.18478600000000256
                },
                {
                    "name": "B2",
                    "midi": 47,
                    "time": 109.20852600000032,
                    "velocity": 0.5039370078740157,
                    "duration": 0.18478600000000256
                },
                {
                    "name": "E2",
                    "midi": 40,
                    "time": 109.39331200000032,
                    "velocity": 0.5511811023622047,
                    "duration": 1.1087159999999585
                },
                {
                    "name": "E3",
                    "midi": 52,
                    "time": 109.39331200000032,
                    "velocity": 0.6299212598425197,
                    "duration": 1.1087159999999585
                },
                {
                    "name": "B3",
                    "midi": 59,
                    "time": 109.57809800000032,
                    "velocity": 0.47244094488188976,
                    "duration": 0.20326459999999713
                },
                {
                    "name": "G#3",
                    "midi": 56,
                    "time": 109.76288400000033,
                    "velocity": 0.49606299212598426,
                    "duration": 0.20326459999998292
                },
                {
                    "name": "E4",
                    "midi": 64,
                    "time": 109.94767000000031,
                    "velocity": 0.48031496062992124,
                    "duration": 0.20326459999998292
                },
                {
                    "name": "B3",
                    "midi": 59,
                    "time": 110.1324560000003,
                    "velocity": 0.44881889763779526,
                    "duration": 0.20326459999998292
                },
                {
                    "name": "G#3",
                    "midi": 56,
                    "time": 110.31724200000029,
                    "velocity": 0.44881889763779526,
                    "duration": 0.18478599999998835
                },
                {
                    "name": "D#2",
                    "midi": 39,
                    "time": 110.50202800000028,
                    "velocity": 0.5511811023622047,
                    "duration": 1.1087159999999585
                },
                {
                    "name": "D#3",
                    "midi": 51,
                    "time": 110.50202800000028,
                    "velocity": 0.6299212598425197,
                    "duration": 1.1087159999999585
                },
                {
                    "name": "C4",
                    "midi": 60,
                    "time": 110.68681400000028,
                    "velocity": 0.48031496062992124,
                    "duration": 0.20326459999999713
                },
                {
                    "name": "G#3",
                    "midi": 56,
                    "time": 110.87160000000029,
                    "velocity": 0.5039370078740157,
                    "duration": 0.20326459999998292
                },
                {
                    "name": "F#4",
                    "midi": 66,
                    "time": 111.05638600000027,
                    "velocity": 0.4881889763779528,
                    "duration": 0.20326459999998292
                },
                {
                    "name": "C4",
                    "midi": 60,
                    "time": 111.24117200000026,
                    "velocity": 0.44881889763779526,
                    "duration": 0.20326459999998292
                },
                {
                    "name": "G#3",
                    "midi": 56,
                    "time": 111.42595800000025,
                    "velocity": 0.44881889763779526,
                    "duration": 0.18478599999998835
                },
                {
                    "name": "D2",
                    "midi": 38,
                    "time": 111.61074400000024,
                    "velocity": 0.5511811023622047,
                    "duration": 1.1087159999999585
                },
                {
                    "name": "D3",
                    "midi": 50,
                    "time": 111.61074400000024,
                    "velocity": 0.6299212598425197,
                    "duration": 1.1087159999999585
                },
                {
                    "name": "B3",
                    "midi": 59,
                    "time": 111.79553000000024,
                    "velocity": 0.48031496062992124,
                    "duration": 0.20326459999999713
                },
                {
                    "name": "G#3",
                    "midi": 56,
                    "time": 111.98031600000024,
                    "velocity": 0.5118110236220472,
                    "duration": 0.20326459999998292
                },
                {
                    "name": "F4",
                    "midi": 65,
                    "time": 112.16510200000023,
                    "velocity": 0.48031496062992124,
                    "duration": 0.20326459999998292
                },
                {
                    "name": "B3",
                    "midi": 59,
                    "time": 112.34988800000022,
                    "velocity": 0.47244094488188976,
                    "duration": 0.20326459999998292
                },
                {
                    "name": "G#3",
                    "midi": 56,
                    "time": 112.53467400000021,
                    "velocity": 0.49606299212598426,
                    "duration": 0.18478599999998835
                },
                {
                    "name": "C#3",
                    "midi": 49,
                    "time": 112.7194600000002,
                    "velocity": 0.6062992125984252,
                    "duration": 1.1087159999999585
                },
                {
                    "name": "B3",
                    "midi": 59,
                    "time": 112.9042460000002,
                    "velocity": 0.48031496062992124,
                    "duration": 0.20326459999999713
                },
                {
                    "name": "G#3",
                    "midi": 56,
                    "time": 113.0890320000002,
                    "velocity": 0.5039370078740157,
                    "duration": 0.20326459999998292
                },
                {
                    "name": "F4",
                    "midi": 65,
                    "time": 113.27381800000019,
                    "velocity": 0.4645669291338583,
                    "duration": 0.20326459999998292
                },
                {
                    "name": "B3",
                    "midi": 59,
                    "time": 113.45860400000018,
                    "velocity": 0.5039370078740157,
                    "duration": 0.20326459999998292
                },
                {
                    "name": "G#3",
                    "midi": 56,
                    "time": 113.64339000000017,
                    "velocity": 0.49606299212598426,
                    "duration": 0.18478599999998835
                },
                {
                    "name": "C2",
                    "midi": 36,
                    "time": 113.82817600000016,
                    "velocity": 0.5511811023622047,
                    "duration": 1.1087159999999585
                },
                {
                    "name": "C3",
                    "midi": 48,
                    "time": 113.82817600000016,
                    "velocity": 0.6299212598425197,
                    "duration": 1.1087159999999585
                },
                {
                    "name": "C4",
                    "midi": 60,
                    "time": 114.01296200000016,
                    "velocity": 0.47244094488188976,
                    "duration": 0.20326459999999713
                },
                {
                    "name": "G#3",
                    "midi": 56,
                    "time": 114.19774800000016,
                    "velocity": 0.5039370078740157,
                    "duration": 0.20326459999998292
                },
                {
                    "name": "F4",
                    "midi": 65,
                    "time": 114.38253400000015,
                    "velocity": 0.48031496062992124,
                    "duration": 0.20326459999998292
                },
                {
                    "name": "C4",
                    "midi": 60,
                    "time": 114.56732000000014,
                    "velocity": 0.44881889763779526,
                    "duration": 0.20326459999998292
                },
                {
                    "name": "G#3",
                    "midi": 56,
                    "time": 114.75210600000013,
                    "velocity": 0.44881889763779526,
                    "duration": 0.18478599999998835
                },
                {
                    "name": "B2",
                    "midi": 47,
                    "time": 114.93689200000011,
                    "velocity": 0.7007874015748031,
                    "duration": 1.1087159999999585
                },
                {
                    "name": "B1",
                    "midi": 35,
                    "time": 114.93689200000011,
                    "velocity": 0.7007874015748031,
                    "duration": 1.1087159999999585
                },
                {
                    "name": "C#4",
                    "midi": 61,
                    "time": 115.12167800000012,
                    "velocity": 0.48031496062992124,
                    "duration": 0.20326459999999713
                },
                {
                    "name": "G#3",
                    "midi": 56,
                    "time": 115.30646400000012,
                    "velocity": 0.5196850393700787,
                    "duration": 0.20326459999998292
                },
                {
                    "name": "F4",
                    "midi": 65,
                    "time": 115.49125000000011,
                    "velocity": 0.4881889763779528,
                    "duration": 0.20326459999998292
                },
                {
                    "name": "C#4",
                    "midi": 61,
                    "time": 115.6760360000001,
                    "velocity": 0.4645669291338583,
                    "duration": 0.20326459999998292
                },
                {
                    "name": "G#3",
                    "midi": 56,
                    "time": 115.86082200000008,
                    "velocity": 0.4881889763779528,
                    "duration": 0.18478599999998835
                },
                {
                    "name": "A#1",
                    "midi": 34,
                    "time": 116.04560800000007,
                    "velocity": 0.7559055118110236,
                    "duration": 0.3695720000000051
                },
                {
                    "name": "A#2",
                    "midi": 46,
                    "time": 116.04560800000007,
                    "velocity": 0.7559055118110236,
                    "duration": 0.3695720000000051
                },
                {
                    "name": "G#3",
                    "midi": 56,
                    "time": 116.23039400000008,
                    "velocity": 0.6141732283464567,
                    "duration": 0.18478600000000256
                },
                {
                    "name": "D4",
                    "midi": 62,
                    "time": 116.41518000000008,
                    "velocity": 0.6141732283464567,
                    "duration": 0.18478600000000256
                },
                {
                    "name": "F4",
                    "midi": 65,
                    "time": 116.59996600000008,
                    "velocity": 0.6141732283464567,
                    "duration": 0.18478600000000256
                },
                {
                    "name": "D4",
                    "midi": 62,
                    "time": 116.78475200000008,
                    "velocity": 0.5826771653543307,
                    "duration": 0.18478600000000256
                },
                {
                    "name": "G#3",
                    "midi": 56,
                    "time": 116.96953800000009,
                    "velocity": 0.5826771653543307,
                    "duration": 0.18478600000000256
                },
                {
                    "name": "F3",
                    "midi": 53,
                    "time": 117.15432400000009,
                    "velocity": 0.6456692913385826,
                    "duration": 0.18478600000000256
                },
                {
                    "name": "G#3",
                    "midi": 56,
                    "time": 117.33911000000009,
                    "velocity": 0.6141732283464567,
                    "duration": 0.18478600000000256
                },
                {
                    "name": "D4",
                    "midi": 62,
                    "time": 117.5238960000001,
                    "velocity": 0.6141732283464567,
                    "duration": 0.18478600000000256
                },
                {
                    "name": "F4",
                    "midi": 65,
                    "time": 117.7086820000001,
                    "velocity": 0.6141732283464567,
                    "duration": 0.18478600000000256
                },
                {
                    "name": "D4",
                    "midi": 62,
                    "time": 117.8934680000001,
                    "velocity": 0.5826771653543307,
                    "duration": 0.18478600000000256
                },
                {
                    "name": "G#3",
                    "midi": 56,
                    "time": 118.0782540000001,
                    "velocity": 0.5826771653543307,
                    "duration": 0.18478600000000256
                },
                {
                    "name": "D#2",
                    "midi": 39,
                    "time": 118.2630400000001,
                    "velocity": 0.6929133858267716,
                    "duration": 0.18478600000000256
                },
                {
                    "name": "C#3",
                    "midi": 49,
                    "time": 118.4478260000001,
                    "velocity": 0.5354330708661418,
                    "duration": 0.18478600000000256
                },
                {
                    "name": "F3",
                    "midi": 53,
                    "time": 118.63261200000011,
                    "velocity": 0.5511811023622047,
                    "duration": 0.18478600000000256
                },
                {
                    "name": "G#3",
                    "midi": 56,
                    "time": 118.81739800000011,
                    "velocity": 0.5669291338582677,
                    "duration": 0.18478600000000256
                },
                {
                    "name": "A#3",
                    "midi": 58,
                    "time": 119.00218400000011,
                    "velocity": 0.5826771653543307,
                    "duration": 0.18478600000000256
                },
                {
                    "name": "C#4",
                    "midi": 61,
                    "time": 119.18697000000012,
                    "velocity": 0.6299212598425197,
                    "duration": 0.18478600000000256
                },
                {
                    "name": "F4",
                    "midi": 65,
                    "time": 119.37175600000012,
                    "velocity": 0.6692913385826772,
                    "duration": 0.18478600000000256
                },
                {
                    "name": "C#4",
                    "midi": 61,
                    "time": 119.55654200000012,
                    "velocity": 0.6535433070866141,
                    "duration": 0.18478600000000256
                },
                {
                    "name": "A#3",
                    "midi": 58,
                    "time": 119.74132800000012,
                    "velocity": 0.5905511811023622,
                    "duration": 0.18478600000000256
                },
                {
                    "name": "G#3",
                    "midi": 56,
                    "time": 119.92611400000013,
                    "velocity": 0.5826771653543307,
                    "duration": 0.18478600000000256
                },
                {
                    "name": "F3",
                    "midi": 53,
                    "time": 120.11090000000013,
                    "velocity": 0.5669291338582677,
                    "duration": 0.18478600000000256
                },
                {
                    "name": "C#3",
                    "midi": 49,
                    "time": 120.29568600000013,
                    "velocity": 0.5433070866141733,
                    "duration": 0.18478600000000256
                },
                {
                    "name": "A#1",
                    "midi": 34,
                    "time": 120.48047200000013,
                    "velocity": 0.5511811023622047,
                    "duration": 0.3695720000000051
                },
                {
                    "name": "A#2",
                    "midi": 46,
                    "time": 120.48047200000013,
                    "velocity": 0.6141732283464567,
                    "duration": 0.3695720000000051
                },
                {
                    "name": "G#3",
                    "midi": 56,
                    "time": 120.66525800000014,
                    "velocity": 0.5433070866141733,
                    "duration": 0.18478600000000256
                },
                {
                    "name": "D4",
                    "midi": 62,
                    "time": 120.85004400000014,
                    "velocity": 0.5433070866141733,
                    "duration": 0.18478600000000256
                },
                {
                    "name": "F4",
                    "midi": 65,
                    "time": 121.03483000000014,
                    "velocity": 0.5433070866141733,
                    "duration": 0.18478600000000256
                },
                {
                    "name": "D4",
                    "midi": 62,
                    "time": 121.21961600000014,
                    "velocity": 0.5118110236220472,
                    "duration": 0.18478600000000256
                },
                {
                    "name": "G#3",
                    "midi": 56,
                    "time": 121.40440200000015,
                    "velocity": 0.5196850393700787,
                    "duration": 0.18478600000000256
                },
                {
                    "name": "F3",
                    "midi": 53,
                    "time": 121.58918800000015,
                    "velocity": 0.6456692913385826,
                    "duration": 0.18478600000000256
                },
                {
                    "name": "G#3",
                    "midi": 56,
                    "time": 121.77397400000015,
                    "velocity": 0.6141732283464567,
                    "duration": 0.18478600000000256
                },
                {
                    "name": "D4",
                    "midi": 62,
                    "time": 121.95876000000015,
                    "velocity": 0.6141732283464567,
                    "duration": 0.18478600000000256
                },
                {
                    "name": "F4",
                    "midi": 65,
                    "time": 122.14354600000016,
                    "velocity": 0.5590551181102362,
                    "duration": 0.18478600000000256
                },
                {
                    "name": "D4",
                    "midi": 62,
                    "time": 122.32833200000016,
                    "velocity": 0.6141732283464567,
                    "duration": 0.18478600000000256
                },
                {
                    "name": "G#3",
                    "midi": 56,
                    "time": 122.51311800000016,
                    "velocity": 0.5669291338582677,
                    "duration": 0.18478600000000256
                },
                {
                    "name": "D#2",
                    "midi": 39,
                    "time": 122.69790400000016,
                    "velocity": 0.6929133858267716,
                    "duration": 0.18478600000000256
                },
                {
                    "name": "C#3",
                    "midi": 49,
                    "time": 122.88269000000017,
                    "velocity": 0.5354330708661418,
                    "duration": 0.18478600000000256
                },
                {
                    "name": "F3",
                    "midi": 53,
                    "time": 123.06747600000017,
                    "velocity": 0.5511811023622047,
                    "duration": 0.18478600000000256
                },
                {
                    "name": "G#3",
                    "midi": 56,
                    "time": 123.25226200000017,
                    "velocity": 0.5669291338582677,
                    "duration": 0.18478600000000256
                },
                {
                    "name": "A#3",
                    "midi": 58,
                    "time": 123.43704800000017,
                    "velocity": 0.5826771653543307,
                    "duration": 0.18478600000000256
                },
                {
                    "name": "C#4",
                    "midi": 61,
                    "time": 123.62183400000018,
                    "velocity": 0.6299212598425197,
                    "duration": 0.18478600000000256
                },
                {
                    "name": "F4",
                    "midi": 65,
                    "time": 123.80662000000018,
                    "velocity": 0.6614173228346457,
                    "duration": 0.18478600000000256
                },
                {
                    "name": "C#4",
                    "midi": 61,
                    "time": 123.99140600000018,
                    "velocity": 0.6456692913385826,
                    "duration": 0.18478600000000256
                },
                {
                    "name": "A#3",
                    "midi": 58,
                    "time": 124.17619200000019,
                    "velocity": 0.6141732283464567,
                    "duration": 0.18478600000000256
                },
                {
                    "name": "G#3",
                    "midi": 56,
                    "time": 124.36097800000019,
                    "velocity": 0.5826771653543307,
                    "duration": 0.18478600000000256
                },
                {
                    "name": "F3",
                    "midi": 53,
                    "time": 124.54576400000019,
                    "velocity": 0.5669291338582677,
                    "duration": 0.18478600000000256
                },
                {
                    "name": "C#3",
                    "midi": 49,
                    "time": 124.73055000000019,
                    "velocity": 0.5433070866141733,
                    "duration": 0.18478600000000256
                },
                {
                    "name": "B1",
                    "midi": 35,
                    "time": 124.9153360000002,
                    "velocity": 0.5433070866141733,
                    "duration": 1.1087160000000154
                },
                {
                    "name": "B2",
                    "midi": 47,
                    "time": 124.9153360000002,
                    "velocity": 0.6141732283464567,
                    "duration": 1.1087160000000154
                },
                {
                    "name": "G#3",
                    "midi": 56,
                    "time": 125.1001220000002,
                    "velocity": 0.5433070866141733,
                    "duration": 0.18478600000000256
                },
                {
                    "name": "D4",
                    "midi": 62,
                    "time": 125.2849080000002,
                    "velocity": 0.5433070866141733,
                    "duration": 0.18478600000000256
                },
                {
                    "name": "F4",
                    "midi": 65,
                    "time": 125.4696940000002,
                    "velocity": 0.5433070866141733,
                    "duration": 0.18478600000000256
                },
                {
                    "name": "D4",
                    "midi": 62,
                    "time": 125.6544800000002,
                    "velocity": 0.5196850393700787,
                    "duration": 0.18478600000000256
                },
                {
                    "name": "G#3",
                    "midi": 56,
                    "time": 125.83926600000021,
                    "velocity": 0.5354330708661418,
                    "duration": 0.18478600000000256
                },
                {
                    "name": "A#1",
                    "midi": 34,
                    "time": 126.02405200000021,
                    "velocity": 0.5511811023622047,
                    "duration": 0.3695720000000051
                },
                {
                    "name": "A#2",
                    "midi": 46,
                    "time": 126.02405200000021,
                    "velocity": 0.6141732283464567,
                    "duration": 0.3695720000000051
                },
                {
                    "name": "F3",
                    "midi": 53,
                    "time": 126.20883800000021,
                    "velocity": 0.5433070866141733,
                    "duration": 0.18478600000000256
                },
                {
                    "name": "G#3",
                    "midi": 56,
                    "time": 126.39362400000022,
                    "velocity": 0.5433070866141733,
                    "duration": 0.18478600000000256
                },
                {
                    "name": "D4",
                    "midi": 62,
                    "time": 126.57841000000022,
                    "velocity": 0.5433070866141733,
                    "duration": 0.18478600000000256
                },
                {
                    "name": "G#3",
                    "midi": 56,
                    "time": 126.76319600000022,
                    "velocity": 0.5118110236220472,
                    "duration": 0.18478600000000256
                },
                {
                    "name": "F3",
                    "midi": 53,
                    "time": 126.94798200000022,
                    "velocity": 0.5118110236220472,
                    "duration": 0.18478600000000256
                },
                {
                    "name": "D#2",
                    "midi": 39,
                    "time": 129.35020000000023,
                    "velocity": 0.25984251968503935,
                    "duration": 0.18478600000000256
                },
                {
                    "name": "C#3",
                    "midi": 49,
                    "time": 129.53498600000023,
                    "velocity": 0.29133858267716534,
                    "duration": 0.18478600000000256
                },
                {
                    "name": "F3",
                    "midi": 53,
                    "time": 129.71977200000023,
                    "velocity": 0.31496062992125984,
                    "duration": 0.18478600000000256
                },
                {
                    "name": "G#3",
                    "midi": 56,
                    "time": 129.90455800000024,
                    "velocity": 0.3543307086614173,
                    "duration": 0.18478600000000256
                },
                {
                    "name": "A#3",
                    "midi": 58,
                    "time": 130.08934400000024,
                    "velocity": 0.3779527559055118,
                    "duration": 0.18478600000000256
                },
                {
                    "name": "C#4",
                    "midi": 61,
                    "time": 130.27413000000024,
                    "velocity": 0.41732283464566927,
                    "duration": 0.18478600000000256
                },
                {
                    "name": "F4",
                    "midi": 65,
                    "time": 130.45891600000024,
                    "velocity": 0.44881889763779526,
                    "duration": 0.18478600000000256
                },
                {
                    "name": "C#4",
                    "midi": 61,
                    "time": 130.64370200000025,
                    "velocity": 0.4645669291338583,
                    "duration": 0.18478600000000256
                },
                {
                    "name": "A#3",
                    "midi": 58,
                    "time": 130.82848800000025,
                    "velocity": 0.4645669291338583,
                    "duration": 0.18478600000000256
                },
                {
                    "name": "G#3",
                    "midi": 56,
                    "time": 131.01327400000025,
                    "velocity": 0.4645669291338583,
                    "duration": 0.18478600000000256
                },
                {
                    "name": "F3",
                    "midi": 53,
                    "time": 131.19806000000025,
                    "velocity": 0.4566929133858268,
                    "duration": 0.18478600000000256
                },
                {
                    "name": "C#3",
                    "midi": 49,
                    "time": 131.38284600000026,
                    "velocity": 0.4409448818897638,
                    "duration": 0.18478600000000256
                },
                {
                    "name": "D#2",
                    "midi": 39,
                    "time": 131.56763200000026,
                    "velocity": 0.4645669291338583,
                    "duration": 0.18478600000000256
                },
                {
                    "name": "C#3",
                    "midi": 49,
                    "time": 131.75241800000026,
                    "velocity": 0.47244094488188976,
                    "duration": 0.18478600000000256
                },
                {
                    "name": "F3",
                    "midi": 53,
                    "time": 131.93720400000026,
                    "velocity": 0.49606299212598426,
                    "duration": 0.18478600000000256
                },
                {
                    "name": "G#3",
                    "midi": 56,
                    "time": 132.12199000000027,
                    "velocity": 0.5196850393700787,
                    "duration": 0.18478600000000256
                },
                {
                    "name": "A#3",
                    "midi": 58,
                    "time": 132.30677600000027,
                    "velocity": 0.5433070866141733,
                    "duration": 0.18478600000000256
                },
                {
                    "name": "C#4",
                    "midi": 61,
                    "time": 132.49156200000027,
                    "velocity": 0.5669291338582677,
                    "duration": 0.18478600000000256
                },
                {
                    "name": "G#4",
                    "midi": 68,
                    "time": 132.67634800000027,
                    "velocity": 0.5826771653543307,
                    "duration": 0.18478600000000256
                },
                {
                    "name": "F4",
                    "midi": 65,
                    "time": 132.86113400000028,
                    "velocity": 0.5669291338582677,
                    "duration": 0.18478600000000256
                },
                {
                    "name": "C#4",
                    "midi": 61,
                    "time": 133.04592000000028,
                    "velocity": 0.5511811023622047,
                    "duration": 0.18478600000000256
                },
                {
                    "name": "G#3",
                    "midi": 56,
                    "time": 133.23070600000028,
                    "velocity": 0.5275590551181102,
                    "duration": 0.18478600000000256
                },
                {
                    "name": "F3",
                    "midi": 53,
                    "time": 133.41549200000028,
                    "velocity": 0.5118110236220472,
                    "duration": 0.18478600000000256
                },
                {
                    "name": "C#3",
                    "midi": 49,
                    "time": 133.6002780000003,
                    "velocity": 0.49606299212598426,
                    "duration": 0.18478600000000256
                },
                {
                    "name": "D#2",
                    "midi": 39,
                    "time": 133.7850640000003,
                    "velocity": 0.6456692913385826,
                    "duration": 0.18478600000000256
                },
                {
                    "name": "A#2",
                    "midi": 46,
                    "time": 133.9698500000003,
                    "velocity": 0.5039370078740157,
                    "duration": 0.18478600000000256
                },
                {
                    "name": "C#3",
                    "midi": 49,
                    "time": 134.1546360000003,
                    "velocity": 0.5039370078740157,
                    "duration": 0.18478600000000256
                },
                {
                    "name": "G3",
                    "midi": 55,
                    "time": 134.3394220000003,
                    "velocity": 0.5039370078740157,
                    "duration": 0.18478600000000256
                },
                {
                    "name": "A#3",
                    "midi": 58,
                    "time": 134.5242080000003,
                    "velocity": 0.5039370078740157,
                    "duration": 0.18478600000000256
                },
                {
                    "name": "C#4",
                    "midi": 61,
                    "time": 134.7089940000003,
                    "velocity": 0.49606299212598426,
                    "duration": 0.18478600000000256
                },
                {
                    "name": "G4",
                    "midi": 67,
                    "time": 134.8937800000003,
                    "velocity": 0.5039370078740157,
                    "duration": 0.18478600000000256
                },
                {
                    "name": "A#4",
                    "midi": 70,
                    "time": 135.0785660000003,
                    "velocity": 0.5196850393700787,
                    "duration": 0.18478600000000256
                },
                {
                    "name": "C#5",
                    "midi": 73,
                    "time": 135.2633520000003,
                    "velocity": 0.5039370078740157,
                    "duration": 0.18478600000000256
                },
                {
                    "name": "G5",
                    "midi": 79,
                    "time": 135.4481380000003,
                    "velocity": 0.4566929133858268,
                    "duration": 0.18478600000000256
                },
                {
                    "name": "A#5",
                    "midi": 82,
                    "time": 135.63292400000032,
                    "velocity": 0.3858267716535433,
                    "duration": 0.18478600000000256
                },
                {
                    "name": "C#6",
                    "midi": 85,
                    "time": 135.81771000000032,
                    "velocity": 0.29133858267716534,
                    "duration": 0.18478600000000256
                },
                {
                    "name": "G6",
                    "midi": 91,
                    "time": 136.00249600000032,
                    "velocity": 0.2755905511811024,
                    "duration": 0.09239299999998707
                },
                {
                    "name": "A#6",
                    "midi": 94,
                    "time": 136.0948890000003,
                    "velocity": 0.2440944881889764,
                    "duration": 0.09239299999998707
                },
                {
                    "name": "F#6",
                    "midi": 90,
                    "time": 136.1872820000003,
                    "velocity": 0.2755905511811024,
                    "duration": 0.09239299999998707
                },
                {
                    "name": "A6",
                    "midi": 93,
                    "time": 136.27967500000028,
                    "velocity": 0.2440944881889764,
                    "duration": 0.09239299999998707
                },
                {
                    "name": "F6",
                    "midi": 89,
                    "time": 136.37206800000027,
                    "velocity": 0.2677165354330709,
                    "duration": 0.09239299999998707
                },
                {
                    "name": "G#6",
                    "midi": 92,
                    "time": 136.46446100000026,
                    "velocity": 0.2283464566929134,
                    "duration": 0.09239299999998707
                },
                {
                    "name": "E6",
                    "midi": 88,
                    "time": 136.55685400000024,
                    "velocity": 0.25984251968503935,
                    "duration": 0.09239299999998707
                },
                {
                    "name": "G6",
                    "midi": 91,
                    "time": 136.64924700000023,
                    "velocity": 0.23622047244094488,
                    "duration": 0.09239299999998707
                },
                {
                    "name": "D#6",
                    "midi": 87,
                    "time": 136.74164000000022,
                    "velocity": 0.25984251968503935,
                    "duration": 0.09239299999998707
                },
                {
                    "name": "F#6",
                    "midi": 90,
                    "time": 136.8340330000002,
                    "velocity": 0.2283464566929134,
                    "duration": 0.09239299999998707
                },
                {
                    "name": "D6",
                    "midi": 86,
                    "time": 136.9264260000002,
                    "velocity": 0.25984251968503935,
                    "duration": 0.09239299999998707
                },
                {
                    "name": "F6",
                    "midi": 89,
                    "time": 137.01881900000018,
                    "velocity": 0.2204724409448819,
                    "duration": 0.09239299999998707
                },
                {
                    "name": "C#6",
                    "midi": 85,
                    "time": 137.11121200000017,
                    "velocity": 0.25984251968503935,
                    "duration": 0.09239299999998707
                },
                {
                    "name": "E6",
                    "midi": 88,
                    "time": 137.20360500000015,
                    "velocity": 0.2204724409448819,
                    "duration": 0.09239299999998707
                },
                {
                    "name": "C6",
                    "midi": 84,
                    "time": 137.29599800000014,
                    "velocity": 0.25196850393700787,
                    "duration": 0.09239299999998707
                },
                {
                    "name": "D#6",
                    "midi": 87,
                    "time": 137.38839100000013,
                    "velocity": 0.2204724409448819,
                    "duration": 0.09239299999998707
                },
                {
                    "name": "B5",
                    "midi": 83,
                    "time": 137.4807840000001,
                    "velocity": 0.25196850393700787,
                    "duration": 0.09239299999998707
                },
                {
                    "name": "D6",
                    "midi": 86,
                    "time": 137.5731770000001,
                    "velocity": 0.2204724409448819,
                    "duration": 0.09239299999998707
                },
                {
                    "name": "A#5",
                    "midi": 82,
                    "time": 137.6655700000001,
                    "velocity": 0.2440944881889764,
                    "duration": 0.09239299999998707
                },
                {
                    "name": "C#6",
                    "midi": 85,
                    "time": 137.75796300000007,
                    "velocity": 0.2125984251968504,
                    "duration": 0.09239299999998707
                },
                {
                    "name": "A5",
                    "midi": 81,
                    "time": 137.85035600000006,
                    "velocity": 0.2440944881889764,
                    "duration": 0.09239299999998707
                },
                {
                    "name": "C6",
                    "midi": 84,
                    "time": 137.94274900000005,
                    "velocity": 0.2125984251968504,
                    "duration": 0.09239299999998707
                },
                {
                    "name": "G#5",
                    "midi": 80,
                    "time": 138.03514200000004,
                    "velocity": 0.2440944881889764,
                    "duration": 0.09239299999998707
                },
                {
                    "name": "B5",
                    "midi": 83,
                    "time": 138.12753500000002,
                    "velocity": 0.2047244094488189,
                    "duration": 0.09239299999998707
                },
                {
                    "name": "G5",
                    "midi": 79,
                    "time": 138.219928,
                    "velocity": 0.23622047244094488,
                    "duration": 0.09239299999998707
                },
                {
                    "name": "A#5",
                    "midi": 82,
                    "time": 138.312321,
                    "velocity": 0.2047244094488189,
                    "duration": 0.09239299999998707
                },
                {
                    "name": "F#5",
                    "midi": 78,
                    "time": 138.40471399999998,
                    "velocity": 0.2283464566929134,
                    "duration": 0.09239299999998707
                },
                {
                    "name": "A5",
                    "midi": 81,
                    "time": 138.49710699999997,
                    "velocity": 0.2047244094488189,
                    "duration": 0.09239299999998707
                },
                {
                    "name": "F5",
                    "midi": 77,
                    "time": 138.58949999999996,
                    "velocity": 0.2283464566929134,
                    "duration": 0.09239299999998707
                },
                {
                    "name": "G#5",
                    "midi": 80,
                    "time": 138.68189299999995,
                    "velocity": 0.2047244094488189,
                    "duration": 0.09239299999998707
                },
                {
                    "name": "E5",
                    "midi": 76,
                    "time": 138.77428599999993,
                    "velocity": 0.2283464566929134,
                    "duration": 0.09239299999998707
                },
                {
                    "name": "G5",
                    "midi": 79,
                    "time": 138.86667899999992,
                    "velocity": 0.2047244094488189,
                    "duration": 0.09239299999998707
                },
                {
                    "name": "D#5",
                    "midi": 75,
                    "time": 138.9590719999999,
                    "velocity": 0.2204724409448819,
                    "duration": 0.09239299999998707
                },
                {
                    "name": "F#5",
                    "midi": 78,
                    "time": 139.0514649999999,
                    "velocity": 0.1968503937007874,
                    "duration": 0.09239299999998707
                },
                {
                    "name": "D5",
                    "midi": 74,
                    "time": 139.14385799999988,
                    "velocity": 0.2204724409448819,
                    "duration": 0.09239299999998707
                },
                {
                    "name": "F5",
                    "midi": 77,
                    "time": 139.23625099999987,
                    "velocity": 0.1889763779527559,
                    "duration": 0.09239299999998707
                },
                {
                    "name": "C#5",
                    "midi": 73,
                    "time": 139.32864399999985,
                    "velocity": 0.2125984251968504,
                    "duration": 0.09239299999998707
                },
                {
                    "name": "E5",
                    "midi": 76,
                    "time": 139.42103699999984,
                    "velocity": 0.1889763779527559,
                    "duration": 0.09239299999998707
                },
                {
                    "name": "C5",
                    "midi": 72,
                    "time": 139.51342999999983,
                    "velocity": 0.2125984251968504,
                    "duration": 0.09239299999998707
                },
                {
                    "name": "D#5",
                    "midi": 75,
                    "time": 139.60582299999982,
                    "velocity": 0.1889763779527559,
                    "duration": 0.09239299999998707
                },
                {
                    "name": "B4",
                    "midi": 71,
                    "time": 139.6982159999998,
                    "velocity": 0.2125984251968504,
                    "duration": 0.09239299999998707
                },
                {
                    "name": "D5",
                    "midi": 74,
                    "time": 139.7906089999998,
                    "velocity": 0.1889763779527559,
                    "duration": 0.09239299999998707
                },
                {
                    "name": "A#4",
                    "midi": 70,
                    "time": 139.88300199999978,
                    "velocity": 0.2047244094488189,
                    "duration": 0.09239299999998707
                },
                {
                    "name": "C#5",
                    "midi": 73,
                    "time": 139.97539499999976,
                    "velocity": 0.1889763779527559,
                    "duration": 0.09239299999998707
                },
                {
                    "name": "A4",
                    "midi": 69,
                    "time": 140.06778799999975,
                    "velocity": 0.2047244094488189,
                    "duration": 0.09239299999998707
                },
                {
                    "name": "C5",
                    "midi": 72,
                    "time": 140.16018099999974,
                    "velocity": 0.1889763779527559,
                    "duration": 0.09239299999998707
                },
                {
                    "name": "G#4",
                    "midi": 68,
                    "time": 140.25257399999973,
                    "velocity": 0.2047244094488189,
                    "duration": 0.09239299999998707
                },
                {
                    "name": "B4",
                    "midi": 71,
                    "time": 140.3449669999997,
                    "velocity": 0.1732283464566929,
                    "duration": 0.046196500000007745
                },
                {
                    "name": "G4",
                    "midi": 67,
                    "time": 140.39116349999972,
                    "velocity": 0.25196850393700787,
                    "duration": 0.13858949999999481
                },
                {
                    "name": "A#4",
                    "midi": 70,
                    "time": 140.40656233333306,
                    "velocity": 0.25196850393700787,
                    "duration": 0.1231906666666589
                },
                {
                    "name": "G#2",
                    "midi": 44,
                    "time": 147.0896559999997,
                    "velocity": 0.23622047244094488,
                    "duration": 0.3695720000000051
                },
                {
                    "name": "C6",
                    "midi": 84,
                    "time": 147.82879999999972,
                    "velocity": 0.18110236220472442,
                    "duration": 0.33261479999998755
                },
                {
                    "name": "G#5",
                    "midi": 80,
                    "time": 147.82879999999972,
                    "velocity": 0.18110236220472442,
                    "duration": 0.33261479999998755
                },
                {
                    "name": "D#5",
                    "midi": 75,
                    "time": 147.82879999999972,
                    "velocity": 0.14173228346456693,
                    "duration": 0.33261479999998755
                },
                {
                    "name": "D#5",
                    "midi": 75,
                    "time": 148.1983719999997,
                    "velocity": 0.15748031496062992,
                    "duration": 0.33261479999998755
                },
                {
                    "name": "G#5",
                    "midi": 80,
                    "time": 148.1983719999997,
                    "velocity": 0.16535433070866143,
                    "duration": 0.33261479999998755
                },
                {
                    "name": "C6",
                    "midi": 84,
                    "time": 148.1983719999997,
                    "velocity": 0.1889763779527559,
                    "duration": 0.33261479999998755
                },
                {
                    "name": "G2",
                    "midi": 43,
                    "time": 149.30708799999968,
                    "velocity": 0.2440944881889764,
                    "duration": 0.3695720000000051
                },
                {
                    "name": "E5",
                    "midi": 76,
                    "time": 150.0462319999997,
                    "velocity": 0.13385826771653545,
                    "duration": 0.33261479999998755
                },
                {
                    "name": "A#5",
                    "midi": 82,
                    "time": 150.0462319999997,
                    "velocity": 0.16535433070866143,
                    "duration": 0.33261479999998755
                },
                {
                    "name": "C6",
                    "midi": 84,
                    "time": 150.0462319999997,
                    "velocity": 0.16535433070866143,
                    "duration": 0.33261479999998755
                },
                {
                    "name": "E5",
                    "midi": 76,
                    "time": 150.41580399999967,
                    "velocity": 0.15748031496062992,
                    "duration": 0.33261479999998755
                },
                {
                    "name": "A#5",
                    "midi": 82,
                    "time": 150.41580399999967,
                    "velocity": 0.1889763779527559,
                    "duration": 0.33261479999998755
                },
                {
                    "name": "C6",
                    "midi": 84,
                    "time": 150.41580399999967,
                    "velocity": 0.1889763779527559,
                    "duration": 0.33261479999998755
                },
                {
                    "name": "F2",
                    "midi": 41,
                    "time": 151.52451999999965,
                    "velocity": 0.28346456692913385,
                    "duration": 0.3695720000000051
                },
                {
                    "name": "C6",
                    "midi": 84,
                    "time": 152.26366399999966,
                    "velocity": 0.1968503937007874,
                    "duration": 0.33261479999998755
                },
                {
                    "name": "A5",
                    "midi": 81,
                    "time": 152.26366399999966,
                    "velocity": 0.1968503937007874,
                    "duration": 0.33261479999998755
                },
                {
                    "name": "D#5",
                    "midi": 75,
                    "time": 152.26366399999966,
                    "velocity": 0.16535433070866143,
                    "duration": 0.33261479999998755
                },
                {
                    "name": "D#5",
                    "midi": 75,
                    "time": 152.63323599999964,
                    "velocity": 0.16535433070866143,
                    "duration": 0.33261479999998755
                },
                {
                    "name": "A5",
                    "midi": 81,
                    "time": 152.63323599999964,
                    "velocity": 0.2125984251968504,
                    "duration": 0.33261479999998755
                },
                {
                    "name": "C#6",
                    "midi": 85,
                    "time": 152.63323599999964,
                    "velocity": 0.2125984251968504,
                    "duration": 0.33261479999998755
                },
                {
                    "name": "A#1",
                    "midi": 34,
                    "time": 153.74195199999963,
                    "velocity": 0.2677165354330709,
                    "duration": 0.3695720000000051
                },
                {
                    "name": "A#2",
                    "midi": 46,
                    "time": 153.74195199999963,
                    "velocity": 0.2677165354330709,
                    "duration": 0.3695720000000051
                },
                {
                    "name": "C6",
                    "midi": 84,
                    "time": 154.48109599999964,
                    "velocity": 0.1889763779527559,
                    "duration": 0.33261479999998755
                },
                {
                    "name": "F5",
                    "midi": 77,
                    "time": 154.48109599999964,
                    "velocity": 0.1889763779527559,
                    "duration": 0.33261479999998755
                },
                {
                    "name": "D5",
                    "midi": 74,
                    "time": 154.48109599999964,
                    "velocity": 0.14960629921259844,
                    "duration": 0.33261479999998755
                },
                {
                    "name": "D5",
                    "midi": 74,
                    "time": 154.85066799999962,
                    "velocity": 0.18110236220472442,
                    "duration": 0.33261479999998755
                },
                {
                    "name": "F5",
                    "midi": 77,
                    "time": 154.85066799999962,
                    "velocity": 0.2204724409448819,
                    "duration": 0.33261479999998755
                },
                {
                    "name": "D#2",
                    "midi": 39,
                    "time": 155.9593839999996,
                    "velocity": 0.25984251968503935,
                    "duration": 0.3695720000000051
                },
                {
                    "name": "D#3",
                    "midi": 51,
                    "time": 155.9593839999996,
                    "velocity": 0.25984251968503935,
                    "duration": 0.3695720000000051
                },
                {
                    "name": "G#5",
                    "midi": 80,
                    "time": 156.6985279999996,
                    "velocity": 0.1889763779527559,
                    "duration": 0.3002772499999935
                },
                {
                    "name": "C#5",
                    "midi": 73,
                    "time": 156.6985279999996,
                    "velocity": 0.1889763779527559,
                    "duration": 0.3002772499999935
                },
                {
                    "name": "A#4",
                    "midi": 70,
                    "time": 156.6985279999996,
                    "velocity": 0.1889763779527559,
                    "duration": 0.3002772499999935
                },
                {
                    "name": "C#5",
                    "midi": 73,
                    "time": 156.9988052499996,
                    "velocity": 0.2047244094488189,
                    "duration": 0.43886675000001674
                },
                {
                    "name": "D#5",
                    "midi": 75,
                    "time": 157.0219034999996,
                    "velocity": 0.2125984251968504,
                    "duration": 0.41576850000001286
                },
                {
                    "name": "G5",
                    "midi": 79,
                    "time": 157.0450017499996,
                    "velocity": 0.2125984251968504,
                    "duration": 0.392670250000009
                },
                {
                    "name": "C6",
                    "midi": 84,
                    "time": 157.06809999999962,
                    "velocity": 0.2204724409448819,
                    "duration": 0.7391440000000102
                },
                {
                    "name": "A#5",
                    "midi": 82,
                    "time": 157.80724399999963,
                    "velocity": 0.1968503937007874,
                    "duration": 0.3695720000000051
                },
                {
                    "name": "G#1",
                    "midi": 32,
                    "time": 158.17681599999963,
                    "velocity": 0.2204724409448819,
                    "duration": 0.3695720000000051
                },
                {
                    "name": "G#2",
                    "midi": 44,
                    "time": 158.17681599999963,
                    "velocity": 0.2204724409448819,
                    "duration": 0.3695720000000051
                },
                {
                    "name": "G#5",
                    "midi": 80,
                    "time": 158.91595999999964,
                    "velocity": 0.18110236220472442,
                    "duration": 0.33261479999998755
                },
                {
                    "name": "C5",
                    "midi": 72,
                    "time": 158.91595999999964,
                    "velocity": 0.18110236220472442,
                    "duration": 0.33261479999998755
                },
                {
                    "name": "D#5",
                    "midi": 75,
                    "time": 158.91595999999964,
                    "velocity": 0.18110236220472442,
                    "duration": 0.33261479999998755
                },
                {
                    "name": "C5",
                    "midi": 72,
                    "time": 159.28553199999962,
                    "velocity": 0.1968503937007874,
                    "duration": 0.33261479999998755
                },
                {
                    "name": "D#5",
                    "midi": 75,
                    "time": 159.28553199999962,
                    "velocity": 0.1968503937007874,
                    "duration": 0.33261479999998755
                },
                {
                    "name": "G#5",
                    "midi": 80,
                    "time": 159.28553199999962,
                    "velocity": 0.1968503937007874,
                    "duration": 0.33261479999998755
                },
                {
                    "name": "G#2",
                    "midi": 44,
                    "time": 160.3480514999996,
                    "velocity": 0.2755905511811024,
                    "duration": 0.41576850000001286
                },
                {
                    "name": "D#3",
                    "midi": 51,
                    "time": 160.3711497499996,
                    "velocity": 0.28346456692913385,
                    "duration": 0.392670250000009
                },
                {
                    "name": "C4",
                    "midi": 60,
                    "time": 160.3942479999996,
                    "velocity": 0.30708661417322836,
                    "duration": 0.3695720000000051
                },
                {
                    "name": "C6",
                    "midi": 84,
                    "time": 161.13339199999962,
                    "velocity": 0.16535433070866143,
                    "duration": 0.33261479999998755
                },
                {
                    "name": "G#5",
                    "midi": 80,
                    "time": 161.13339199999962,
                    "velocity": 0.16535433070866143,
                    "duration": 0.33261479999998755
                },
                {
                    "name": "D#5",
                    "midi": 75,
                    "time": 161.13339199999962,
                    "velocity": 0.13385826771653545,
                    "duration": 0.33261479999998755
                },
                {
                    "name": "C6",
                    "midi": 84,
                    "time": 161.5029639999996,
                    "velocity": 0.2047244094488189,
                    "duration": 0.33261479999998755
                },
                {
                    "name": "G#5",
                    "midi": 80,
                    "time": 161.5029639999996,
                    "velocity": 0.2047244094488189,
                    "duration": 0.33261479999998755
                },
                {
                    "name": "D#5",
                    "midi": 75,
                    "time": 161.5029639999996,
                    "velocity": 0.1732283464566929,
                    "duration": 0.33261479999998755
                },
                {
                    "name": "G2",
                    "midi": 43,
                    "time": 162.61167999999958,
                    "velocity": 0.25196850393700787,
                    "duration": 0.3695720000000051
                },
                {
                    "name": "E3",
                    "midi": 52,
                    "time": 162.61167999999958,
                    "velocity": 0.25196850393700787,
                    "duration": 0.3695720000000051
                },
                {
                    "name": "A#3",
                    "midi": 58,
                    "time": 162.61167999999958,
                    "velocity": 0.25196850393700787,
                    "duration": 0.3695720000000051
                },
                {
                    "name": "C6",
                    "midi": 84,
                    "time": 163.3508239999996,
                    "velocity": 0.18110236220472442,
                    "duration": 0.33261479999998755
                },
                {
                    "name": "A#5",
                    "midi": 82,
                    "time": 163.3508239999996,
                    "velocity": 0.18110236220472442,
                    "duration": 0.33261479999998755
                },
                {
                    "name": "E5",
                    "midi": 76,
                    "time": 163.3508239999996,
                    "velocity": 0.14960629921259844,
                    "duration": 0.33261479999998755
                },
                {
                    "name": "C6",
                    "midi": 84,
                    "time": 163.72039599999957,
                    "velocity": 0.23622047244094488,
                    "duration": 0.33261479999998755
                },
                {
                    "name": "A#5",
                    "midi": 82,
                    "time": 163.72039599999957,
                    "velocity": 0.23622047244094488,
                    "duration": 0.33261479999998755
                },
                {
                    "name": "E5",
                    "midi": 76,
                    "time": 163.72039599999957,
                    "velocity": 0.2204724409448819,
                    "duration": 0.33261479999998755
                },
                {
                    "name": "F2",
                    "midi": 41,
                    "time": 164.82911199999955,
                    "velocity": 0.25196850393700787,
                    "duration": 1.108715999999987
                },
                {
                    "name": "A3",
                    "midi": 57,
                    "time": 164.82911199999955,
                    "velocity": 0.25196850393700787,
                    "duration": 1.108715999999987
                },
                {
                    "name": "D#2",
                    "midi": 39,
                    "time": 165.93782799999954,
                    "velocity": 0.2204724409448819,
                    "duration": 1.108715999999987
                },
                {
                    "name": "F#3",
                    "midi": 54,
                    "time": 165.93782799999954,
                    "velocity": 0.2204724409448819,
                    "duration": 1.108715999999987
                },
                {
                    "name": "D2",
                    "midi": 38,
                    "time": 167.04654399999953,
                    "velocity": 0.3543307086614173,
                    "duration": 0.3695720000000051
                },
                {
                    "name": "F3",
                    "midi": 53,
                    "time": 167.04654399999953,
                    "velocity": 0.3543307086614173,
                    "duration": 0.3695720000000051
                },
                {
                    "name": "F6",
                    "midi": 89,
                    "time": 167.78568799999954,
                    "velocity": 0.2440944881889764,
                    "duration": 0.33261479999998755
                },
                {
                    "name": "C6",
                    "midi": 84,
                    "time": 167.78568799999954,
                    "velocity": 0.2440944881889764,
                    "duration": 0.33261479999998755
                },
                {
                    "name": "G#5",
                    "midi": 80,
                    "time": 167.78568799999954,
                    "velocity": 0.1968503937007874,
                    "duration": 0.33261479999998755
                },
                {
                    "name": "B5",
                    "midi": 83,
                    "time": 168.15525999999952,
                    "velocity": 0.25196850393700787,
                    "duration": 0.33261479999998755
                },
                {
                    "name": "G#5",
                    "midi": 80,
                    "time": 168.15525999999952,
                    "velocity": 0.2204724409448819,
                    "duration": 0.33261479999998755
                },
                {
                    "name": "F6",
                    "midi": 89,
                    "time": 168.15525999999952,
                    "velocity": 0.25196850393700787,
                    "duration": 0.33261479999998755
                },
                {
                    "name": "C#2",
                    "midi": 37,
                    "time": 169.2639759999995,
                    "velocity": 0.2047244094488189,
                    "duration": 0.3695720000000051
                },
                {
                    "name": "E3",
                    "midi": 52,
                    "time": 169.2639759999995,
                    "velocity": 0.23622047244094488,
                    "duration": 0.3695720000000051
                },
                {
                    "name": "A#5",
                    "midi": 82,
                    "time": 170.0031199999995,
                    "velocity": 0.1889763779527559,
                    "duration": 0.33261479999998755
                },
                {
                    "name": "G#5",
                    "midi": 80,
                    "time": 170.0031199999995,
                    "velocity": 0.1889763779527559,
                    "duration": 0.33261479999998755
                },
                {
                    "name": "E5",
                    "midi": 76,
                    "time": 170.0031199999995,
                    "velocity": 0.15748031496062992,
                    "duration": 0.33261479999998755
                },
                {
                    "name": "E5",
                    "midi": 76,
                    "time": 170.3726919999995,
                    "velocity": 0.1732283464566929,
                    "duration": 0.33261479999998755
                },
                {
                    "name": "G5",
                    "midi": 79,
                    "time": 170.3726919999995,
                    "velocity": 0.2125984251968504,
                    "duration": 0.33261479999998755
                },
                {
                    "name": "A#5",
                    "midi": 82,
                    "time": 170.3726919999995,
                    "velocity": 0.2125984251968504,
                    "duration": 0.33261479999998755
                },
                {
                    "name": "C2",
                    "midi": 36,
                    "time": 171.45830974999947,
                    "velocity": 0.2283464566929134,
                    "duration": 0.392670250000009
                },
                {
                    "name": "D#3",
                    "midi": 51,
                    "time": 171.48140799999948,
                    "velocity": 0.2440944881889764,
                    "duration": 0.3695720000000051
                },
                {
                    "name": "F#5",
                    "midi": 78,
                    "time": 172.2205519999995,
                    "velocity": 0.12598425196850394,
                    "duration": 0.33261479999998755
                },
                {
                    "name": "A#5",
                    "midi": 82,
                    "time": 172.2205519999995,
                    "velocity": 0.15748031496062992,
                    "duration": 0.33261479999998755
                },
                {
                    "name": "D#6",
                    "midi": 87,
                    "time": 172.2205519999995,
                    "velocity": 0.15748031496062992,
                    "duration": 0.33261479999998755
                },
                {
                    "name": "F#5",
                    "midi": 78,
                    "time": 172.59012399999946,
                    "velocity": 0.15748031496062992,
                    "duration": 0.33261479999998755
                },
                {
                    "name": "A5",
                    "midi": 81,
                    "time": 172.59012399999946,
                    "velocity": 0.18110236220472442,
                    "duration": 0.33261479999998755
                },
                {
                    "name": "D#6",
                    "midi": 87,
                    "time": 172.59012399999946,
                    "velocity": 0.18110236220472442,
                    "duration": 0.33261479999998755
                },
                {
                    "name": "B1",
                    "midi": 35,
                    "time": 173.69883999999945,
                    "velocity": 0.2047244094488189,
                    "duration": 0.3695720000000051
                },
                {
                    "name": "D3",
                    "midi": 50,
                    "time": 173.69883999999945,
                    "velocity": 0.23622047244094488,
                    "duration": 0.3695720000000051
                },
                {
                    "name": "G#5",
                    "midi": 80,
                    "time": 174.43798399999946,
                    "velocity": 0.15748031496062992,
                    "duration": 0.33261479999998755
                },
                {
                    "name": "F#5",
                    "midi": 78,
                    "time": 174.43798399999946,
                    "velocity": 0.15748031496062992,
                    "duration": 0.33261479999998755
                },
                {
                    "name": "D5",
                    "midi": 74,
                    "time": 174.43798399999946,
                    "velocity": 0.12598425196850394,
                    "duration": 0.33261479999998755
                },
                {
                    "name": "D5",
                    "midi": 74,
                    "time": 174.80755599999944,
                    "velocity": 0.14960629921259844,
                    "duration": 0.33261479999998755
                },
                {
                    "name": "F5",
                    "midi": 77,
                    "time": 174.80755599999944,
                    "velocity": 0.18110236220472442,
                    "duration": 0.33261479999998755
                },
                {
                    "name": "G#5",
                    "midi": 80,
                    "time": 174.80755599999944,
                    "velocity": 0.18110236220472442,
                    "duration": 0.33261479999998755
                },
                {
                    "name": "A#1",
                    "midi": 34,
                    "time": 175.91627199999942,
                    "velocity": 0.2125984251968504,
                    "duration": 0.3695720000000051
                },
                {
                    "name": "C#3",
                    "midi": 49,
                    "time": 175.91627199999942,
                    "velocity": 0.2440944881889764,
                    "duration": 0.3695720000000051
                },
                {
                    "name": "F5",
                    "midi": 77,
                    "time": 176.65541599999943,
                    "velocity": 0.12598425196850394,
                    "duration": 0.33261479999998755
                },
                {
                    "name": "G#5",
                    "midi": 80,
                    "time": 176.65541599999943,
                    "velocity": 0.15748031496062992,
                    "duration": 0.33261479999998755
                },
                {
                    "name": "C#6",
                    "midi": 85,
                    "time": 176.65541599999943,
                    "velocity": 0.15748031496062992,
                    "duration": 0.33261479999998755
                },
                {
                    "name": "E5",
                    "midi": 76,
                    "time": 177.0249879999994,
                    "velocity": 0.14173228346456693,
                    "duration": 0.33261479999998755
                },
                {
                    "name": "G#5",
                    "midi": 80,
                    "time": 177.0249879999994,
                    "velocity": 0.18110236220472442,
                    "duration": 0.33261479999998755
                },
                {
                    "name": "C#6",
                    "midi": 85,
                    "time": 177.0249879999994,
                    "velocity": 0.18110236220472442,
                    "duration": 0.33261479999998755
                },
                {
                    "name": "D#2",
                    "midi": 39,
                    "time": 178.1337039999994,
                    "velocity": 0.2125984251968504,
                    "duration": 2.217431999999974
                },
                {
                    "name": "G3",
                    "midi": 55,
                    "time": 179.24241999999938,
                    "velocity": 0.2125984251968504,
                    "duration": 1.108715999999987
                },
                {
                    "name": "G#1",
                    "midi": 32,
                    "time": 180.53592199999937,
                    "velocity": 0.15748031496062992,
                    "duration": 0.18478600000000256
                },
                {
                    "name": "G#2",
                    "midi": 44,
                    "time": 180.72070799999938,
                    "velocity": 0.16535433070866143,
                    "duration": 0.18478600000000256
                },
                {
                    "name": "D#3",
                    "midi": 51,
                    "time": 180.90549399999938,
                    "velocity": 0.18110236220472442,
                    "duration": 0.18478600000000256
                },
                {
                    "name": "G#3",
                    "midi": 56,
                    "time": 181.09027999999938,
                    "velocity": 0.1889763779527559,
                    "duration": 0.18478600000000256
                },
                {
                    "name": "G#4",
                    "midi": 68,
                    "time": 182.56856799999937,
                    "velocity": 0.1968503937007874,
                    "duration": 0.7391440000000102
                },
                {
                    "name": "C5",
                    "midi": 72,
                    "time": 182.56856799999937,
                    "velocity": 0.1968503937007874,
                    "duration": 0.7391440000000102
                },
                {
                    "name": "G4",
                    "midi": 67,
                    "time": 183.30771199999938,
                    "velocity": 0.16535433070866143,
                    "duration": 0.35109339999999634
                },
                {
                    "name": "A#4",
                    "midi": 70,
                    "time": 183.30771199999938,
                    "velocity": 0.16535433070866143,
                    "duration": 0.35109339999999634
                },
                {
                    "name": "F4",
                    "midi": 65,
                    "time": 183.6772839999994,
                    "velocity": 0.16535433070866143,
                    "duration": 0.35109339999999634
                },
                {
                    "name": "A4",
                    "midi": 69,
                    "time": 183.6772839999994,
                    "velocity": 0.16535433070866143,
                    "duration": 0.35109339999999634
                },
                {
                    "name": "D#4",
                    "midi": 63,
                    "time": 184.0468559999994,
                    "velocity": 0.1889763779527559,
                    "duration": 0.35109339999999634
                },
                {
                    "name": "A4",
                    "midi": 69,
                    "time": 184.0468559999994,
                    "velocity": 0.1889763779527559,
                    "duration": 0.35109339999999634
                },
                {
                    "name": "A4",
                    "midi": 69,
                    "time": 184.4164279999994,
                    "velocity": 0.16535433070866143,
                    "duration": 0.35109339999999634
                },
                {
                    "name": "D#4",
                    "midi": 63,
                    "time": 184.4164279999994,
                    "velocity": 0.16535433070866143,
                    "duration": 0.35109339999999634
                },
                {
                    "name": "D4",
                    "midi": 62,
                    "time": 184.7859999999994,
                    "velocity": 0.2047244094488189,
                    "duration": 0.35109339999999634
                },
                {
                    "name": "B4",
                    "midi": 71,
                    "time": 184.7859999999994,
                    "velocity": 0.2047244094488189,
                    "duration": 0.35109339999999634
                },
                {
                    "name": "F#4",
                    "midi": 66,
                    "time": 187.0034319999994,
                    "velocity": 0.1968503937007874,
                    "duration": 0.7391440000000102
                },
                {
                    "name": "A#4",
                    "midi": 70,
                    "time": 187.0034319999994,
                    "velocity": 0.1968503937007874,
                    "duration": 0.7391440000000102
                },
                {
                    "name": "F4",
                    "midi": 65,
                    "time": 187.74257599999942,
                    "velocity": 0.16535433070866143,
                    "duration": 0.35109339999999634
                },
                {
                    "name": "G#4",
                    "midi": 68,
                    "time": 187.74257599999942,
                    "velocity": 0.16535433070866143,
                    "duration": 0.35109339999999634
                },
                {
                    "name": "D#4",
                    "midi": 63,
                    "time": 188.11214799999942,
                    "velocity": 0.16535433070866143,
                    "duration": 0.35109339999999634
                },
                {
                    "name": "G4",
                    "midi": 67,
                    "time": 188.11214799999942,
                    "velocity": 0.16535433070866143,
                    "duration": 0.35109339999999634
                },
                {
                    "name": "C#4",
                    "midi": 61,
                    "time": 188.48171999999943,
                    "velocity": 0.1889763779527559,
                    "duration": 0.35109339999999634
                },
                {
                    "name": "G4",
                    "midi": 67,
                    "time": 188.48171999999943,
                    "velocity": 0.1889763779527559,
                    "duration": 0.35109339999999634
                },
                {
                    "name": "G4",
                    "midi": 67,
                    "time": 188.85129199999943,
                    "velocity": 0.16535433070866143,
                    "duration": 0.35109339999999634
                },
                {
                    "name": "C#4",
                    "midi": 61,
                    "time": 188.85129199999943,
                    "velocity": 0.16535433070866143,
                    "duration": 0.35109339999999634
                },
                {
                    "name": "C4",
                    "midi": 60,
                    "time": 189.22086399999944,
                    "velocity": 0.2047244094488189,
                    "duration": 0.35109339999999634
                },
                {
                    "name": "A4",
                    "midi": 69,
                    "time": 189.22086399999944,
                    "velocity": 0.2047244094488189,
                    "duration": 0.35109339999999634
                },
                {
                    "name": "C#2",
                    "midi": 37,
                    "time": 191.25350999999944,
                    "velocity": 0.3228346456692913,
                    "duration": 2.2174320000000023
                },
                {
                    "name": "A3",
                    "midi": 57,
                    "time": 191.29970649999944,
                    "velocity": 0.36220472440944884,
                    "duration": 2.1712354999999945
                },
                {
                    "name": "D#2",
                    "midi": 39,
                    "time": 193.47094199999944,
                    "velocity": 0.25984251968503935,
                    "duration": 2.4022179999999764
                },
                {
                    "name": "G#3",
                    "midi": 56,
                    "time": 193.65572799999944,
                    "velocity": 0.3228346456692913,
                    "duration": 1.108715999999987
                },
                {
                    "name": "G3",
                    "midi": 55,
                    "time": 194.76444399999943,
                    "velocity": 0.25984251968503935,
                    "duration": 1.108715999999987
                },
                {
                    "name": "D#3",
                    "midi": 51,
                    "time": 195.87315999999942,
                    "velocity": 0.2440944881889764,
                    "duration": 1.478287999999992
                },
                {
                    "name": "G#2",
                    "midi": 44,
                    "time": 195.87315999999942,
                    "velocity": 0.2440944881889764,
                    "duration": 2.2174320000000023
                },
                {
                    "name": "D3",
                    "midi": 50,
                    "time": 197.3514479999994,
                    "velocity": 0.2677165354330709,
                    "duration": 0.3695720000000051
                },
                {
                    "name": "D#3",
                    "midi": 51,
                    "time": 197.7210199999994,
                    "velocity": 0.2755905511811024,
                    "duration": 0.3002772499999935
                },
                {
                    "name": "G#2",
                    "midi": 44,
                    "time": 198.0212972499994,
                    "velocity": 0.2440944881889764,
                    "duration": 2.286726750000014
                },
                {
                    "name": "G3",
                    "midi": 55,
                    "time": 198.0443954999994,
                    "velocity": 0.25984251968503935,
                    "duration": 1.1549124999999947
                },
                {
                    "name": "F3",
                    "midi": 53,
                    "time": 199.1993079999994,
                    "velocity": 0.23622047244094488,
                    "duration": 0.7391440000000102
                },
                {
                    "name": "D#3",
                    "midi": 51,
                    "time": 199.93845199999942,
                    "velocity": 0.23622047244094488,
                    "duration": 0.3695720000000051
                },
                {
                    "name": "G#2",
                    "midi": 44,
                    "time": 200.30802399999942,
                    "velocity": 0.2047244094488189,
                    "duration": 2.217431999999974
                },
                {
                    "name": "D#3",
                    "midi": 51,
                    "time": 200.4004169999994,
                    "velocity": 0.2677165354330709,
                    "duration": 2.125038999999987
                }
            ],
            "controlChanges": {
                "7": [
                    {
                        "number": 7,
                        "time": 0,
                        "value": 0.7874015748031497
                    }
                ],
                "10": [
                    {
                        "number": 10,
                        "time": 0,
                        "value": 0.5039370078740157
                    }
                ]
            },
            "id": 2,
            "name": "Piano left",
            "instrumentNumber": 0,
            "instrument": "acoustic grand piano",
            "instrumentFamily": "piano",
            "channelNumber": 0,
            "isPercussion": false
        },
        {
            "startTime": 0,
            "duration": 0,
            "length": 0,
            "notes": [],
            "controlChanges": {
                "64": [
                    {
                        "number": 64,
                        "time": 2.3044354083333336,
                        "value": 1
                    },
                    {
                        "number": 64,
                        "time": 4.446413125,
                        "value": 0
                    },
                    {
                        "number": 64,
                        "time": 4.53187665,
                        "value": 1
                    },
                    {
                        "number": 64,
                        "time": 6.664615066666666,
                        "value": 0
                    },
                    {
                        "number": 64,
                        "time": 6.74930865,
                        "value": 1
                    },
                    {
                        "number": 64,
                        "time": 7.772561124999999,
                        "value": 0
                    },
                    {
                        "number": 64,
                        "time": 7.9635066583333325,
                        "value": 1
                    },
                    {
                        "number": 64,
                        "time": 8.8789673,
                        "value": 0
                    },
                    {
                        "number": 64,
                        "time": 8.9436424,
                        "value": 1
                    },
                    {
                        "number": 64,
                        "time": 10.355715416666666,
                        "value": 0
                    },
                    {
                        "number": 64,
                        "time": 10.394212499999998,
                        "value": 1
                    },
                    {
                        "number": 64,
                        "time": 11.087159999999999,
                        "value": 0
                    },
                    {
                        "number": 64,
                        "time": 12.309827366666665,
                        "value": 1
                    },
                    {
                        "number": 64,
                        "time": 13.304592,
                        "value": 0
                    },
                    {
                        "number": 64,
                        "time": 13.380816225,
                        "value": 1
                    },
                    {
                        "number": 64,
                        "time": 15.160921358333333,
                        "value": 0
                    },
                    {
                        "number": 64,
                        "time": 15.2263664,
                        "value": 1
                    },
                    {
                        "number": 64,
                        "time": 15.531263299999999,
                        "value": 0
                    },
                    {
                        "number": 64,
                        "time": 15.717589183333333,
                        "value": 1
                    },
                    {
                        "number": 64,
                        "time": 17.7486953,
                        "value": 0
                    },
                    {
                        "number": 64,
                        "time": 17.880355325,
                        "value": 1
                    },
                    {
                        "number": 64,
                        "time": 18.858951183333332,
                        "value": 0
                    },
                    {
                        "number": 64,
                        "time": 19.05066665833333,
                        "value": 1
                    },
                    {
                        "number": 64,
                        "time": 19.966897241666665,
                        "value": 0
                    },
                    {
                        "number": 64,
                        "time": 20.05390065,
                        "value": 1
                    },
                    {
                        "number": 64,
                        "time": 21.814757241666666,
                        "value": 0
                    },
                    {
                        "number": 64,
                        "time": 22.324458625,
                        "value": 1
                    },
                    {
                        "number": 64,
                        "time": 23.661077358333333,
                        "value": 0
                    },
                    {
                        "number": 64,
                        "time": 23.74962065,
                        "value": 1
                    },
                    {
                        "number": 64,
                        "time": 24.391752,
                        "value": 0
                    },
                    {
                        "number": 64,
                        "time": 25.587471408333332,
                        "value": 1
                    },
                    {
                        "number": 64,
                        "time": 26.61534353333333,
                        "value": 0
                    },
                    {
                        "number": 64,
                        "time": 26.74007408333333,
                        "value": 1
                    },
                    {
                        "number": 64,
                        "time": 28.831235649999996,
                        "value": 0
                    },
                    {
                        "number": 64,
                        "time": 28.98522398333333,
                        "value": 1
                    },
                    {
                        "number": 64,
                        "time": 29.944571299999996,
                        "value": 0
                    },
                    {
                        "number": 64,
                        "time": 30.085470624999996,
                        "value": 1
                    },
                    {
                        "number": 64,
                        "time": 31.05482718333333,
                        "value": 0
                    },
                    {
                        "number": 64,
                        "time": 31.20727563333333,
                        "value": 1
                    },
                    {
                        "number": 64,
                        "time": 33.269949358333335,
                        "value": 0
                    },
                    {
                        "number": 64,
                        "time": 33.376201308333336,
                        "value": 1
                    },
                    {
                        "number": 64,
                        "time": 34.38020524166667,
                        "value": 0
                    },
                    {
                        "number": 64,
                        "time": 34.520334625000004,
                        "value": 1
                    },
                    {
                        "number": 64,
                        "time": 35.49277095,
                        "value": 0
                    },
                    {
                        "number": 64,
                        "time": 35.642139633333336,
                        "value": 1
                    },
                    {
                        "number": 64,
                        "time": 37.70712318333334,
                        "value": 0
                    },
                    {
                        "number": 64,
                        "time": 37.85957163333334,
                        "value": 1
                    },
                    {
                        "number": 64,
                        "time": 39.92455518333334,
                        "value": 0
                    },
                    {
                        "number": 64,
                        "time": 40.07700363333334,
                        "value": 1
                    },
                    {
                        "number": 64,
                        "time": 42.14198718333334,
                        "value": 0
                    },
                    {
                        "number": 64,
                        "time": 42.29443563333334,
                        "value": 1
                    },
                    {
                        "number": 64,
                        "time": 44.359419183333344,
                        "value": 0
                    },
                    {
                        "number": 64,
                        "time": 44.511867633333345,
                        "value": 1
                    },
                    {
                        "number": 64,
                        "time": 45.46890512500001,
                        "value": 0
                    },
                    {
                        "number": 64,
                        "time": 45.63367264166668,
                        "value": 1
                    },
                    {
                        "number": 64,
                        "time": 46.57993095000001,
                        "value": 0
                    },
                    {
                        "number": 64,
                        "time": 46.72929963333335,
                        "value": 1
                    },
                    {
                        "number": 64,
                        "time": 47.686337125000016,
                        "value": 0
                    },
                    {
                        "number": 64,
                        "time": 47.85110464166668,
                        "value": 1
                    },
                    {
                        "number": 64,
                        "time": 48.79428318333335,
                        "value": 0
                    },
                    {
                        "number": 64,
                        "time": 48.94673163333335,
                        "value": 1
                    },
                    {
                        "number": 64,
                        "time": 49.90376912500002,
                        "value": 0
                    },
                    {
                        "number": 64,
                        "time": 50.06853664166668,
                        "value": 1
                    },
                    {
                        "number": 64,
                        "time": 51.00786547500002,
                        "value": 0
                    },
                    {
                        "number": 64,
                        "time": 54.31630481666669,
                        "value": 1
                    },
                    {
                        "number": 64,
                        "time": 61.62613100000002,
                        "value": 0
                    },
                    {
                        "number": 64,
                        "time": 62.93580177500002,
                        "value": 1
                    },
                    {
                        "number": 64,
                        "time": 65.05622112500002,
                        "value": 0
                    },
                    {
                        "number": 64,
                        "time": 65.17710196666668,
                        "value": 1
                    },
                    {
                        "number": 64,
                        "time": 67.27288318333335,
                        "value": 0
                    },
                    {
                        "number": 64,
                        "time": 67.37682530833335,
                        "value": 1
                    },
                    {
                        "number": 64,
                        "time": 68.38236912500003,
                        "value": 0
                    },
                    {
                        "number": 64,
                        "time": 68.51171932500003,
                        "value": 1
                    },
                    {
                        "number": 64,
                        "time": 69.48954524166669,
                        "value": 0
                    },
                    {
                        "number": 64,
                        "time": 69.59425730833335,
                        "value": 1
                    },
                    {
                        "number": 64,
                        "time": 70.59980112500003,
                        "value": 0
                    },
                    {
                        "number": 64,
                        "time": 70.72684150000003,
                        "value": 1
                    },
                    {
                        "number": 64,
                        "time": 71.70158765000004,
                        "value": 0
                    },
                    {
                        "number": 64,
                        "time": 71.81707890000004,
                        "value": 1
                    },
                    {
                        "number": 64,
                        "time": 72.81723312500004,
                        "value": 0
                    },
                    {
                        "number": 64,
                        "time": 72.94735326666671,
                        "value": 1
                    },
                    {
                        "number": 64,
                        "time": 73.9267190666667,
                        "value": 0
                    },
                    {
                        "number": 64,
                        "time": 74.07300798333337,
                        "value": 1
                    },
                    {
                        "number": 64,
                        "time": 75.0423645416667,
                        "value": 0
                    },
                    {
                        "number": 64,
                        "time": 76.2111359916667,
                        "value": 1
                    },
                    {
                        "number": 64,
                        "time": 77.25132718333336,
                        "value": 0
                    },
                    {
                        "number": 64,
                        "time": 77.39915598333336,
                        "value": 1
                    },
                    {
                        "number": 64,
                        "time": 78.36004318333336,
                        "value": 0
                    },
                    {
                        "number": 64,
                        "time": 78.4816939666667,
                        "value": 1
                    },
                    {
                        "number": 64,
                        "time": 79.47183895000003,
                        "value": 0
                    },
                    {
                        "number": 64,
                        "time": 79.6342966416667,
                        "value": 1
                    },
                    {
                        "number": 64,
                        "time": 80.57824512500002,
                        "value": 0
                    },
                    {
                        "number": 64,
                        "time": 80.68141730833335,
                        "value": 1
                    },
                    {
                        "number": 64,
                        "time": 82.79644706666669,
                        "value": 0
                    },
                    {
                        "number": 64,
                        "time": 82.89884930833335,
                        "value": 1
                    },
                    {
                        "number": 64,
                        "time": 83.96367863333336,
                        "value": 0
                    },
                    {
                        "number": 64,
                        "time": 84.7020526916667,
                        "value": 1
                    },
                    {
                        "number": 64,
                        "time": 85.01079930000003,
                        "value": 0
                    },
                    {
                        "number": 64,
                        "time": 85.12167090000003,
                        "value": 1
                    },
                    {
                        "number": 64,
                        "time": 86.12490489166669,
                        "value": 0
                    },
                    {
                        "number": 64,
                        "time": 86.2519452666667,
                        "value": 1
                    },
                    {
                        "number": 64,
                        "time": 87.2266914166667,
                        "value": 0
                    },
                    {
                        "number": 64,
                        "time": 87.40377800000003,
                        "value": 1
                    },
                    {
                        "number": 64,
                        "time": 89.4418135916667,
                        "value": 0
                    },
                    {
                        "number": 64,
                        "time": 89.57732332500004,
                        "value": 1
                    },
                    {
                        "number": 64,
                        "time": 90.56130877500004,
                        "value": 0
                    },
                    {
                        "number": 64,
                        "time": 90.67756996666671,
                        "value": 1
                    },
                    {
                        "number": 64,
                        "time": 91.66309530000004,
                        "value": 0
                    },
                    {
                        "number": 64,
                        "time": 91.80630445000004,
                        "value": 1
                    },
                    {
                        "number": 64,
                        "time": 92.77797083333337,
                        "value": 0
                    },
                    {
                        "number": 64,
                        "time": 92.91502045000004,
                        "value": 1
                    },
                    {
                        "number": 64,
                        "time": 93.88206718333338,
                        "value": 0
                    },
                    {
                        "number": 64,
                        "time": 93.99216884166671,
                        "value": 1
                    },
                    {
                        "number": 64,
                        "time": 94.99232306666671,
                        "value": 0
                    },
                    {
                        "number": 64,
                        "time": 95.06854729166672,
                        "value": 1
                    },
                    {
                        "number": 64,
                        "time": 96.09718935833338,
                        "value": 0
                    },
                    {
                        "number": 64,
                        "time": 96.24116845000005,
                        "value": 1
                    },
                    {
                        "number": 64,
                        "time": 98.31385141666671,
                        "value": 0
                    },
                    {
                        "number": 64,
                        "time": 98.42934266666671,
                        "value": 1
                    },
                    {
                        "number": 64,
                        "time": 100.53205335833339,
                        "value": 0
                    },
                    {
                        "number": 64,
                        "time": 100.67603245000005,
                        "value": 1
                    },
                    {
                        "number": 64,
                        "time": 101.64538900833338,
                        "value": 0
                    },
                    {
                        "number": 64,
                        "time": 101.77396926666671,
                        "value": 1
                    },
                    {
                        "number": 64,
                        "time": 102.74871541666671,
                        "value": 0
                    },
                    {
                        "number": 64,
                        "time": 102.86420666666672,
                        "value": 1
                    },
                    {
                        "number": 64,
                        "time": 104.96999712500005,
                        "value": 0
                    },
                    {
                        "number": 64,
                        "time": 105.08163866666672,
                        "value": 1
                    },
                    {
                        "number": 64,
                        "time": 106.07948306666673,
                        "value": 0
                    },
                    {
                        "number": 64,
                        "time": 106.20806332500005,
                        "value": 1
                    },
                    {
                        "number": 64,
                        "time": 107.18280947500006,
                        "value": 0
                    },
                    {
                        "number": 64,
                        "time": 107.29907066666672,
                        "value": 1
                    },
                    {
                        "number": 64,
                        "time": 107.92426330000005,
                        "value": 0
                    },
                    {
                        "number": 64,
                        "time": 108.03821466666672,
                        "value": 1
                    },
                    {
                        "number": 64,
                        "time": 108.29614512500005,
                        "value": 0
                    },
                    {
                        "number": 64,
                        "time": 108.38160865000005,
                        "value": 1
                    },
                    {
                        "number": 64,
                        "time": 109.40024147500004,
                        "value": 0
                    },
                    {
                        "number": 64,
                        "time": 109.54576045000005,
                        "value": 1
                    },
                    {
                        "number": 64,
                        "time": 110.51357712500004,
                        "value": 0
                    },
                    {
                        "number": 64,
                        "time": 110.59904065000003,
                        "value": 1
                    },
                    {
                        "number": 64,
                        "time": 111.61998330000003,
                        "value": 0
                    },
                    {
                        "number": 64,
                        "time": 111.7339346666667,
                        "value": 1
                    },
                    {
                        "number": 64,
                        "time": 112.73331895000003,
                        "value": 0
                    },
                    {
                        "number": 64,
                        "time": 112.90424600000003,
                        "value": 1
                    },
                    {
                        "number": 64,
                        "time": 113.83972512500003,
                        "value": 0
                    },
                    {
                        "number": 64,
                        "time": 113.98062445000004,
                        "value": 1
                    },
                    {
                        "number": 64,
                        "time": 114.94767118333337,
                        "value": 0
                    },
                    {
                        "number": 64,
                        "time": 115.03390465000004,
                        "value": 1
                    },
                    {
                        "number": 64,
                        "time": 116.05484730000003,
                        "value": 0
                    },
                    {
                        "number": 64,
                        "time": 116.18573738333336,
                        "value": 1
                    },
                    {
                        "number": 64,
                        "time": 118.2753590666667,
                        "value": 0
                    },
                    {
                        "number": 64,
                        "time": 118.37083183333336,
                        "value": 1
                    },
                    {
                        "number": 64,
                        "time": 119.38330512500002,
                        "value": 0
                    },
                    {
                        "number": 64,
                        "time": 119.54499287500002,
                        "value": 1
                    },
                    {
                        "number": 64,
                        "time": 120.48894135833335,
                        "value": 0
                    },
                    {
                        "number": 64,
                        "time": 120.58903377500002,
                        "value": 1
                    },
                    {
                        "number": 64,
                        "time": 122.70868318333335,
                        "value": 0
                    },
                    {
                        "number": 64,
                        "time": 122.80569583333335,
                        "value": 1
                    },
                    {
                        "number": 64,
                        "time": 123.82201883333335,
                        "value": 0
                    },
                    {
                        "number": 64,
                        "time": 123.97985687500001,
                        "value": 1
                    },
                    {
                        "number": 64,
                        "time": 124.92457530000001,
                        "value": 0
                    },
                    {
                        "number": 64,
                        "time": 125.10936130000002,
                        "value": 1
                    },
                    {
                        "number": 64,
                        "time": 126.03329130000002,
                        "value": 0
                    },
                    {
                        "number": 64,
                        "time": 126.18265998333335,
                        "value": 1
                    },
                    {
                        "number": 64,
                        "time": 128.26458225000002,
                        "value": 0
                    },
                    {
                        "number": 64,
                        "time": 129.50264845,
                        "value": 1
                    },
                    {
                        "number": 64,
                        "time": 133.79045359166668,
                        "value": 0
                    },
                    {
                        "number": 64,
                        "time": 133.94829163333335,
                        "value": 1
                    },
                    {
                        "number": 64,
                        "time": 140.44582935833336,
                        "value": 0
                    },
                    {
                        "number": 64,
                        "time": 140.52590329166668,
                        "value": 1
                    },
                    {
                        "number": 64,
                        "time": 142.67712030833334,
                        "value": 0
                    },
                    {
                        "number": 64,
                        "time": 142.75180465,
                        "value": 1
                    },
                    {
                        "number": 64,
                        "time": 144.87838353333333,
                        "value": 0
                    },
                    {
                        "number": 64,
                        "time": 147.24210445,
                        "value": 1
                    },
                    {
                        "number": 64,
                        "time": 149.318637125,
                        "value": 0
                    },
                    {
                        "number": 64,
                        "time": 149.43951796666667,
                        "value": 1
                    },
                    {
                        "number": 64,
                        "time": 151.53914889166668,
                        "value": 0
                    },
                    {
                        "number": 64,
                        "time": 151.63924130833334,
                        "value": 1
                    },
                    {
                        "number": 64,
                        "time": 152.644785125,
                        "value": 0
                    },
                    {
                        "number": 64,
                        "time": 152.774135325,
                        "value": 1
                    },
                    {
                        "number": 64,
                        "time": 153.75196124166666,
                        "value": 0
                    },
                    {
                        "number": 64,
                        "time": 153.85667330833334,
                        "value": 1
                    },
                    {
                        "number": 64,
                        "time": 155.96939324166667,
                        "value": 0
                    },
                    {
                        "number": 64,
                        "time": 156.0794949,
                        "value": 1
                    },
                    {
                        "number": 64,
                        "time": 158.18682524166664,
                        "value": 0
                    },
                    {
                        "number": 64,
                        "time": 158.27382864999998,
                        "value": 1
                    },
                    {
                        "number": 64,
                        "time": 160.39424799999998,
                        "value": 0
                    },
                    {
                        "number": 64,
                        "time": 160.48125140833332,
                        "value": 1
                    },
                    {
                        "number": 64,
                        "time": 162.62014935833332,
                        "value": 0
                    },
                    {
                        "number": 64,
                        "time": 162.74410996666666,
                        "value": 1
                    },
                    {
                        "number": 64,
                        "time": 164.83989118333332,
                        "value": 0
                    },
                    {
                        "number": 64,
                        "time": 164.979250625,
                        "value": 1
                    },
                    {
                        "number": 64,
                        "time": 165.94937712499998,
                        "value": 0
                    },
                    {
                        "number": 64,
                        "time": 166.078727325,
                        "value": 1
                    },
                    {
                        "number": 64,
                        "time": 167.05655324166665,
                        "value": 0
                    },
                    {
                        "number": 64,
                        "time": 167.16126530833333,
                        "value": 1
                    },
                    {
                        "number": 64,
                        "time": 169.27475518333333,
                        "value": 0
                    },
                    {
                        "number": 64,
                        "time": 169.44029264166667,
                        "value": 1
                    },
                    {
                        "number": 64,
                        "time": 171.49449700833333,
                        "value": 0
                    },
                    {
                        "number": 64,
                        "time": 171.61383796666667,
                        "value": 1
                    },
                    {
                        "number": 64,
                        "time": 172.60475289166666,
                        "value": 0
                    },
                    {
                        "number": 64,
                        "time": 172.6640384,
                        "value": 1
                    },
                    {
                        "number": 64,
                        "time": 173.70730935833333,
                        "value": 0
                    },
                    {
                        "number": 64,
                        "time": 173.87515664166668,
                        "value": 1
                    },
                    {
                        "number": 64,
                        "time": 174.81987506666667,
                        "value": 0
                    },
                    {
                        "number": 64,
                        "time": 174.957694625,
                        "value": 1
                    },
                    {
                        "number": 64,
                        "time": 175.9247413583333,
                        "value": 0
                    },
                    {
                        "number": 64,
                        "time": 176.04870196666664,
                        "value": 1
                    },
                    {
                        "number": 64,
                        "time": 177.04192671666664,
                        "value": 0
                    },
                    {
                        "number": 64,
                        "time": 177.15741796666663,
                        "value": 1
                    },
                    {
                        "number": 64,
                        "time": 178.14602306666663,
                        "value": 0
                    },
                    {
                        "number": 64,
                        "time": 178.28384262499995,
                        "value": 1
                    },
                    {
                        "number": 64,
                        "time": 180.35729553333329,
                        "value": 0
                    },
                    {
                        "number": 64,
                        "time": 180.61214622499995,
                        "value": 1
                    },
                    {
                        "number": 64,
                        "time": 182.58473677499995,
                        "value": 0
                    },
                    {
                        "number": 64,
                        "time": 191.2381111666666,
                        "value": 1
                    },
                    {
                        "number": 64,
                        "time": 193.47633159166662,
                        "value": 0
                    },
                    {
                        "number": 64,
                        "time": 193.6749765416666,
                        "value": 1
                    },
                    {
                        "number": 64,
                        "time": 195.14941483333328,
                        "value": 0
                    },
                    {
                        "number": 64,
                        "time": 200.40041699999995,
                        "value": 1
                    },
                    {
                        "number": 64,
                        "time": 204.06533933333327,
                        "value": 0
                    }
                ]
            },
            "id": 3,
            "name": "Pedal",
            "instrumentNumber": 0,
            "instrument": "acoustic grand piano",
            "instrumentFamily": "piano",
            "channelNumber": 0,
            "isPercussion": false
        },
        {
            "startTime": 0,
            "duration": 0,
            "length": 0,
            "notes": [],
            "controlChanges": {},
            "id": 4,
            "name": "Liszt: Liebestraum"
        },
        {
            "startTime": 0,
            "duration": 0,
            "length": 0,
            "notes": [],
            "controlChanges": {},
            "id": 5,
            "name": "Copyright  2005 by Bernd Krger"
        },
        {
            "startTime": 0,
            "duration": 0,
            "length": 0,
            "notes": [],
            "controlChanges": {},
            "id": 6,
            "name": "http://www.piano-midi.de"
        },
        {
            "startTime": 0,
            "duration": 0,
            "length": 0,
            "notes": [],
            "controlChanges": {},
            "id": 7,
            "name": "Edition: 2014-03-02"
        },
        {
            "startTime": 0,
            "duration": 0,
            "length": 0,
            "notes": [],
            "controlChanges": {},
            "id": 8,
            "name": "Spur 8"
        },
        {
            "startTime": 0,
            "duration": 0,
            "length": 0,
            "notes": [],
            "controlChanges": {},
            "id": 9,
            "name": "Spur 9"
        },
        {
            "startTime": 0,
            "duration": 0,
            "length": 0,
            "notes": [],
            "controlChanges": {},
            "id": 10,
            "name": "Spur 10"
        }
    ]
}